<?xml version="1.0" encoding="utf-8"?>
<!-- Generator: Adobe Illustrator 15.0.0, SVG Export Plug-In . SVG Version: 6.00 Build 0)  -->
<!DOCTYPE svg PUBLIC "-//W3C//DTD SVG 1.1//EN" "http://www.w3.org/Graphics/SVG/1.1/DTD/svg11.dtd">
<svg version="1.1" id="Layer_1" xmlns="http://www.w3.org/2000/svg" xmlns:xlink="http://www.w3.org/1999/xlink" x="0px" y="0px"
	 width="79.64px" height="131.908px" viewBox="0 0 79.64 131.908" enable-background="new 0 0 79.64 131.908" xml:space="preserve">
<g>
	<g>
		<path fill="#E5B28F" d="M62.738,99.631c2.543-2.094-3.796-3.489-7.402-1.54c-5.835,3.162-13.287,4.055-13.287,4.055
			c2.247,1.202,5.486,1.599,8.337,1.891c1.425,0.145,5.593,0.533,6.745-0.313c1.024-0.752,0.463-1.665-0.167-1.751
			c1.501,0.19,2.222,0.269,3.241-0.229c0,0,1.583-0.849,0.335-1.759C61.495,100.101,61.96,100.267,62.738,99.631z"/>
		<path fill="#CE9D7C" d="M63.21,99.056c0.866-1.756-4.61-2.733-7.875-0.965c-0.532,0.287-1.072,0.55-1.62,0.798
			c0.256-0.07,0.506-0.108,0.766-0.185C58.063,97.671,61.115,97.56,63.21,99.056z"/>
	</g>
	<path fill="#9B8A78" d="M45.17,103.061c-1.352,0.224-2.466,0.03-2.757-1.48c-0.412-2.136,1.229-5.103,1.443-7.382
		c0.53-5.553,2.342-11.916,6.721-16.626c3.863-4.155,9.588-5.244,11.259-0.639c1.497,4.134,0.562,10.534-1.405,15.33
		c-2.308,5.621-7.119,8.663-12.326,10.039C47.14,102.557,46.097,102.909,45.17,103.061z"/>
	<path fill="#B9AD9B" d="M12.7,96.386c-18.456,15.135-15.876,30.405,1.796,34.475c8.447,1.946,19.268,1.213,32.708-2.48
		c8.076-2.22,18.775-7.104,21.63-13.545c-5.899,9.091-37.448,16.68-53.018,12.504c-8.716-2.334-12.53-9.032-10.113-15.875
		C8.376,103.893,28.551,93.972,12.7,96.386z"/>
	<path fill="#9B8A78" d="M55.707,67.198c-0.753-1.755-1.646-5.788-0.769-8.033c1.107-2.813,2.877-1.302,4.292-0.401
		c2.284,1.462,4.776,2.871,2.534,6.463C60.066,67.948,57.028,70.272,55.707,67.198z"/>
	<g>
		<path fill="#EDD2B2" d="M70.567,15.886c3.258-4.192,6.724-12.866,2.403-14.947c-6.124-2.941-16.111,7.881-16.161,14.79
			l2.244-0.111C62.014,19.415,66.157,21.557,70.567,15.886z"/>
		<path fill="#E5C6A5" d="M56.809,15.729l2.244-0.111c2.961,3.797,7.104,5.938,11.514,0.268c0.295-0.38,0.589-0.808,0.886-1.254
			c-1.647-0.368-3.18-0.948-4.485-1.872c-2.72-1.92-4.315-6.211-1.9-10.169C60.688,5.674,56.842,11.45,56.809,15.729z"/>
	</g>
	<path fill="#B9AD9B" d="M59.037,73.924c-0.558-2.653-1.326-5.144-1.482-8.013c-0.153-2.674-0.254-5.316,0.128-8.146
		c0.378-2.789,0.258-5.969,2.669-8.387c2.66-2.672,6.418-2.933,9.372-3.043c2.959-0.11,8.117-1.416,9.066-9.115
		c0.732-8.76-4.52-16.957-10.412-21.221c-5.468-3.956-18.267-3.165-24.914,3.597c-3.247,3.301-7.043,8.573-7.998,12.807
		c-1.086,4.82-2.333,9.028-4.486,13.841c-2.154,4.809-5.253,9.257-7.991,13.855c-3.996,6.709-7.722,12.954-9.567,20.224
		c-1.606,6.34-3.656,15.73-1.222,20.984c0.887,1.913,2.634,3.633,4.067,5.096c2.151,2.203,6.352,3.518,9.726,3.304
		c3.176-0.203,6.989-0.926,10.208-1.788c2.235-0.595,4.329-1.715,6.553-2.757c5.768-2.71,9.763-6.192,12.8-12.104
		c2.732-5.324,4.587-11.648,3.887-16.838C59.333,75.435,59.194,74.674,59.037,73.924z"/>
	<path opacity="0.48" fill="#C6BAAB" d="M78.723,36.983c0.059-0.387,0.092-0.769,0.125-1.15c0.099-7.496-4.042-14.432-8.996-18.663
		c-3.296-2.599-5.206-1.497-5.548,0.776c-0.267,1.737,0.376,4.146,1.996,6.107c1.394,1.677,2.183,2.213,2.141,4.765
		c-0.042,2.821-1.541,5.576-0.406,8.11C69.514,40.236,75.458,37.166,78.723,36.983z"/>
	<path opacity="0.56" fill="#C9BFB3" d="M78.326,36.605c0.215-0.241,0.37-0.492,0.438-0.747c0.216-0.823-0.115-1.956-0.365-2.621
		c-0.3-0.805-1.002-1.314-1.318-2.082c-0.385-0.931-0.26-2.179-0.564-3.174c-0.429-1.411-1.394-1.545-2.013-2.697
		c-0.573-1.063-0.42-2.066-1.45-2.874c-0.963-0.76-1.703-0.909-2.083,0.663c-0.333,1.373,0.502,2.406,0.781,3.563
		c0.386,1.604-0.124,3.148-0.002,4.794c0.104,1.428,0.431,2.235,0.129,3.893c-0.15,0.842-0.501,2.778,0.23,3.284
		C73.071,39.27,76.96,38.131,78.326,36.605z"/>
	<path fill="#AEA18F" d="M74.825,38.394c-6.285,0.155-13.106,2.792-18.318,8.375c-7.784,8.337-8.565,19.895-16.476,28.047
		c7.849,3.057,3.338,15.491-4.15,21.182c-4.333,3.294-9.73,4.233-13.298,1.729c-4.098-2.879-5.274-8.228-5.267-13.77
		c0.012-6.317,1.824-12.694,5.948-18.65c5.301-7.655,12.119-14.431,14.41-23.27c1.926-7.424,2.862-16.429,9.662-22.346
		c3.878-3.376,8.238-5.231,12.602-6.07c-5.693-0.16-12.297,1.728-16.474,5.977c-3.247,3.301-7.043,8.573-7.998,12.807
		c-1.086,4.82-2.333,9.028-4.486,13.841c-2.154,4.809-5.253,9.257-7.991,13.855c-3.996,6.709-7.722,12.954-9.567,20.224
		c-1.606,6.34-3.656,15.73-1.222,20.984c0.887,1.913,2.634,3.633,4.067,5.096c2.151,2.203,6.352,3.518,9.726,3.304
		c3.176-0.203,6.989-0.926,10.208-1.788c2.235-0.595,4.329-1.715,6.553-2.757c5.768-2.71,9.763-6.192,12.8-12.104
		c2.732-5.324,4.587-11.648,3.887-16.838c-0.106-0.788-0.246-1.549-0.403-2.298c-0.558-2.653-1.326-5.144-1.482-8.013
		c-0.153-2.674-0.254-5.316,0.128-8.146c0.378-2.789,0.258-5.969,2.669-8.387c2.66-2.672,6.418-2.933,9.372-3.043
		c2.806-0.105,7.576-1.293,8.878-7.972C77.35,38.375,76.095,38.363,74.825,38.394z"/>
	<g>
		<path fill="#D7C6B6" d="M59.037,73.924c-0.558-2.653-1.326-5.144-1.482-8.013c-0.153-2.674-0.254-5.316,0.128-8.146
			c0.378-2.789,0.258-5.969,2.669-8.387c1.603-1.61,3.604-2.335,5.589-2.689c-2.8,0.309-5.229,0.176-8.002,2.289
			c-2.604,1.984-3.981,4.857-4.773,7.944c-0.998,3.887-1.067,8.118-1.494,11.357c-0.291,2.223-1.01,4.9-2.028,7.093
			c-1.029,2.224-3.363,4.37-3.14,6.779c0.272,2.95,1.357,5.467,1.2,8.618c-0.142,2.899-0.689,5.524-2.484,8.198
			c-1.399,2.085-3.569,4.449-3.465,6.669c0.33-0.155,0.658-0.315,0.997-0.472c5.768-2.71,9.763-6.192,12.8-12.104
			c2.732-5.324,4.587-11.648,3.887-16.838C59.333,75.435,59.194,74.674,59.037,73.924z"/>
	</g>
	<g>
		<path fill="#030303" d="M64.82,29.528c0.272-2.028-1.093-3.464-3.045-3.206c-1.953,0.255-3.755,2.108-4.026,4.137
			c-0.271,2.027,1.09,3.464,3.045,3.207C62.744,33.408,64.549,31.556,64.82,29.528z"/>
		<path fill="#FFFFFF" d="M61.29,29.933c0.074-0.553-0.3-0.946-0.833-0.875c-0.535,0.069-1.03,0.579-1.104,1.131
			c-0.076,0.56,0.303,0.951,0.835,0.881C60.72,31,61.216,30.492,61.29,29.933z"/>
	</g>
	<path fill="#E8DCCF" d="M76.983,40.162l-0.683-1.339c-1.898-2.549-9.723-1.942-9.442,3.47
		C67.165,48.308,78.486,43.011,76.983,40.162z"/>
	<path fill="#D7C6B6" d="M77.015,41.251c-0.833,0.778-1.774,1.42-2.773,1.823c-1.829,0.733-3.466,0.622-4.944-0.023
		c-1.105-0.479-1.816-1.356-2.231-2.411c-0.156,0.492-0.245,1.037-0.208,1.652C67.128,47.596,75.964,44.104,77.015,41.251z"/>
	<path fill="#7F5A34" d="M76.791,42.293c1.756-1.397,3.791-7.003,2.374-7.878c-1.484-0.913-5.332,1.237-5.553,2.895
		C73.19,40.469,77.267,39.167,76.791,42.293z"/>
	<path fill="#8A623F" d="M61.283,41.75c-0.908-0.507-2.116,0.286-2.649,1.376c-0.134,0.279,0.599,0.095,0.731-0.178
		c0.073-0.149,0.16-0.293,0.251-0.414c-0.029,2.567,2.329,4.212,4.758,3.98c0.226-0.021,0.82-0.445,0.339-0.398
		c-2.31,0.222-4.452-1.581-4.359-3.988c0.103,0,0.205,0.014,0.314,0.074C60.863,42.313,61.563,41.907,61.283,41.75z"/>
	<path fill="#B78D67" d="M74.528,37.289c0.76,0.103,1.248-0.665,1.9-1.252c-0.531-0.331-1.132-0.15-1.598,0.408l0.013-0.098
		C74.72,36.564,74.57,36.985,74.528,37.289z"/>
	<g>
		<path fill="#F4AF9E" d="M49.861,27.056C62.792,17.173,43.97,2.242,37.708,9.504c-2.636,3.05-2.783,9.064-0.454,14.192
			C38.733,26.962,41.519,31.179,49.861,27.056z"/>
		<path fill="#EDD2B2" d="M45.249,9.941c4.114,1.152,6.999,6.173,6.384,11.068c-0.273,2.182-0.879,4.269-2.043,6.168
			c0.093-0.042,0.178-0.074,0.271-0.121C62.792,17.173,43.97,2.242,37.708,9.504c-1.382,1.597-2.071,4.013-2.09,6.686
			C36.841,12.169,39.246,8.266,45.249,9.941z"/>
	</g>
	<path fill="#AE9A89" d="M42.302,75.237c-4.867-1.324-11.437-1.162-16.36,3.814c5.927-3.071,12.461-2.922,16.064,1.257
		c0.559,0.645,1.022,1.343,1.402,2.083c2.233,4.366,1.683,10.04-1.188,15.398c-2.521,4.709-7.722,9.158-12.854,11.539
		c2.303-0.34,4.693-0.835,6.833-1.407c2.235-0.595,4.329-1.715,6.553-2.757c0.082-0.041,0.155-0.083,0.235-0.123
		c0.406-0.431,0.787-0.87,1.117-1.321c4.785-6.487,5.671-14.084,4.482-20.529C47.91,79.509,45.849,76.196,42.302,75.237z"/>
	<g>
		<path fill="#E6C3AA" d="M49.384,106.785c2.545-2.094-3.794-3.492-7.402-1.539c-5.833,3.16-13.287,4.049-13.287,4.049
			c2.245,1.208,5.483,1.602,8.335,1.895c1.427,0.144,5.596,0.532,6.745-0.314c1.024-0.75,0.464-1.662-0.164-1.749
			c1.5,0.189,2.223,0.269,3.24-0.229c0,0,1.585-0.851,0.337-1.761C48.141,107.256,48.61,107.421,49.384,106.785z"/>
		<path fill="#D8B298" d="M49.858,106.209c0.864-1.753-4.613-2.732-7.876-0.963c-0.528,0.286-1.073,0.549-1.622,0.798
			c0.259-0.071,0.509-0.109,0.769-0.184C44.71,104.822,47.764,104.713,49.858,106.209z"/>
	</g>
	<path fill="#9B8A78" d="M45.351,39.076L45.13,38.9c-1.923,2.748,3.204,10.154,7.404,7.342
		C49.019,45.493,46.307,42.626,45.351,39.076z"/>
	<g>
		<path fill="#AD7949" d="M65.522,69.739c-2.537,2.623-7.428,2.622-6.355-1.459c0.35-1.339,0.442-2.527,0.744-3.868
			c0.613-2.75,0.917-4.218,3.41-5.167c2.569-0.978,4.448-1.397,4.653,1.806C68.135,63.497,67.66,67.524,65.522,69.739z"/>
		<path fill="#89582E" d="M64.575,62.562c-0.781-0.334-1.742-0.736-2.06-1.596c-0.149-0.399-0.092-0.88,0.034-1.368
			c-1.787,0.955-2.091,2.38-2.637,4.813c-0.302,1.341-0.394,2.529-0.744,3.868c-1.073,4.081,3.818,4.082,6.355,1.459
			c1.796-1.861,2.412-4.993,2.467-7.401C66.925,62.965,65.714,63.05,64.575,62.562z"/>
	</g>
	<g>
		<path fill="#B9AD9B" d="M60.935,68.626c1.841-3.971-5.033-0.974-7.625-2.538c-1.579-1.104-2.644-3.32-3.208-5.31
			c-1.536-2.239-8.5,0.469-10.43,2.861c-3.533,3.97,0.003,9.003,3.291,10.242c3.37,1.267,6.166,0.884,10.786-0.23
			C56.715,72.937,59.818,70.978,60.935,68.626z"/>
		<path fill="#CEC4BA" d="M59.198,66.689c-1.88-0.399-4.009,0.393-5.749-0.66c-1.58-1.105-2.644-3.321-3.208-5.311
			c-0.118-0.165-0.271-0.298-0.443-0.411c0.021,0.723,0.275,2.304,0.383,3.105c0.342,2.571,1.64,4.363,3.695,4.435
			C55.751,67.911,56.719,67.516,59.198,66.689z"/>
		<path fill="#9B8A78" d="M43.103,73.819c3.369,1.268,6.162,0.888,10.789-0.232c1.938-0.465,4.237-1.517,5.917-2.842
			c-3.791,1.666-7.761,2.447-11.184,2.038c-4.456-0.529-8.453-4.18-9.046-8.903C36.47,67.799,39.895,72.614,43.103,73.819z"/>
		<path fill="#E6C3AA" d="M56.713,72.909c0.471,0.057,0.906,0.18,1.399,0.216c2.93,0.207,6.356-0.413,8.943-3.134
			c1.854-1.95,1.975-4.248,1.712-6.355c-0.053-0.426-0.131-1.351-0.805-0.985c-0.26,0.138-0.962,1.56-1.227,1.884
			c-0.779,0.969-2.57,2.525-3.684,1.996c-1.058-0.498,0.869-2.932,0.653-3.864c-0.262-1.154-1.667,0.423-2.144,0.948
			c-0.608,0.668-1.242,1.294-1.845,1.981c-0.245,0.278-0.449,0.563-0.729,0.802c0.704,0.325,0.196,2.256-0.119,2.945
			c-0.33,0.707-0.89,1.395-1.326,2.039c-0.406,0.603-0.763,1.132-1.395,1.505C56.346,72.878,56.532,72.888,56.713,72.909z"/>
		<path fill="#E5B28F" d="M68.768,63.635c-0.022-0.192-0.056-0.474-0.139-0.705c-0.147,1.097-0.627,2.314-1.052,3.241
			c-0.759,1.658-2.17,2.85-3.825,3.232c-1.463,0.342-3.465-0.213-4.493-1.37c-0.096,0.515-0.262,1.021-0.391,1.309
			c-0.33,0.707-0.89,1.395-1.326,2.039c-0.406,0.603-0.763,1.132-1.395,1.505c0.2-0.008,0.386,0.001,0.566,0.022
			c0.471,0.057,0.906,0.18,1.399,0.216c2.93,0.207,6.356-0.413,8.943-3.134C68.909,68.041,69.03,65.743,68.768,63.635z"/>
	</g>
</g>
</svg>
