<?xml version="1.0" encoding="utf-8"?>
<!-- Generator: Adobe Illustrator 15.0.0, SVG Export Plug-In . SVG Version: 6.00 Build 0)  -->
<!DOCTYPE svg PUBLIC "-//W3C//DTD SVG 1.1//EN" "http://www.w3.org/Graphics/SVG/1.1/DTD/svg11.dtd">
<svg version="1.1" id="Layer_1" xmlns="http://www.w3.org/2000/svg" xmlns:xlink="http://www.w3.org/1999/xlink" x="0px" y="0px"
	 width="165.974px" height="118.734px" viewBox="0 0 165.974 118.734" enable-background="new 0 0 165.974 118.734"
	 xml:space="preserve">
<g>
	<g>
		<path fill="#F79D7A" d="M76.067,103.286c-17.013,4.621-49.566,3.152-39.905-40.745C45.822,18.645,21.728-6.939,6.336,8.982
			c-12.183,12.603,6.301,25.412,6.301,25.412l-0.63,1.471C7.124,33.713-10.046,16.7,8.227,3.311
			C25.34-9.232,42.67,16.334,43.092,38.597c0.502,26.623-18.064,68.049,29.404,54.397L76.067,103.286z"/>
		<g>
			<path fill="#E67957" d="M6.033,9.323c-0.234,0.223-0.466,0.454-0.696,0.695c-10.636,11.17,2.1,22.498,5.506,25.195
				c0.435,0.28,0.831,0.504,1.165,0.651l0.63-1.471C12.637,34.394-5.497,21.814,6.033,9.323z"/>
			<path fill="#E67957" d="M7.227,4.26C24.34-8.473,41.67,17.483,42.092,40.084c0.502,27.028-18.064,69.086,29.404,55.227
				l2.872,8.402c0.581-0.136,1.148-0.278,1.699-0.428l-3.57-10.291C25.028,106.646,43.594,65.22,43.092,38.597
				C42.67,16.334,25.34-9.232,8.227,3.311C6.866,4.308,5.723,5.328,4.735,6.358C5.486,5.651,6.3,4.95,7.227,4.26z"/>
		</g>
		<path fill="#8E9FA3" d="M78.167,114.628h5.042l0.21-5.881c0,0,10.712-1.26,17.433,1.89v4.202h5.46c0,0,20.794-36.546-0.419-59.439
			l-26.045-2.731C79.847,52.668,46.243,80.393,78.167,114.628z"/>
		<path fill="#758C8E" d="M113.48,68.333c-0.098,0.406-0.188,0.813-0.294,1.221c-5.905,22.603-23.229,38.184-40.745,38.046
			c1.618,2.308,3.508,4.652,5.725,7.029h5.042l0.21-5.881c0,0,10.712-1.26,17.433,1.89v4.202h5.46
			C106.311,114.839,120.493,89.91,113.48,68.333z"/>
		<g>
			<path fill="#667D80" d="M81.062,52.795l-1.215-0.127c0,0-33.604,27.725-1.681,61.96h0.209
				C53.666,83.499,73.008,60.483,81.062,52.795z"/>
			<path fill="#667D80" d="M105.892,55.4l-0.634,1.083c16.104,19.248,3.388,50.543,0.331,58.356h0.722
				C106.311,114.839,127.105,78.293,105.892,55.4z"/>
			<path fill="#667D80" d="M101.508,114.839l0.938-4.544c-5.875-3.688-20.125-1.813-20.125-1.813l0.25,6.146h0.638l0.21-5.881
				c0,0,10.712-1.26,17.433,1.89v4.202H101.508z"/>
		</g>
		<path fill="#B1C4C7" d="M93.555,104.025c12.486-0.903,17.95-35.49-2.381-36.161C70.843,67.194,70.936,105.662,93.555,104.025z"/>
		<path fill="#C1D1D3" d="M90.303,90.443c3.654-6.533,9.024-10.909,13.687-11.719c-1.49-5.924-5.456-10.617-12.815-10.86
			c-17.984-0.593-19.984,29.433-4.552,35.241C86.655,99.285,87.871,94.791,90.303,90.443z"/>
		<path fill="#667D80" d="M76.12,56.553c2.836,4.097,19.848,12.131,35.128,6.459c0,0-5.514-8.349-6.615-9.294
			c-1.104-0.945-26.938,0.787-26.938,0.787L76.12,56.553z"/>
		<path fill="#8E9FA3" d="M72.182,47.576c-1.004-5.618,8.19-21.108,19.532-22.212c11.342-1.103,22.054,15.123,21.266,22.054
			c-0.553,4.862-6.931,14.02-22.21,13.39C76.646,60.225,72.969,51.986,72.182,47.576z"/>
		<path fill="#768B8E" d="M92.758,47.233c-8.202,0-15.128,4.047-20.509,0.686c0.914,4.48,4.754,12.321,18.521,12.889
			c13.896,0.573,20.429-6.949,21.913-11.974C107.47,51.65,100.185,47.233,92.758,47.233z"/>
		<path fill="#8E9FA3" d="M70.726,9.163c-7.987-3.481-18.544,1.354-21.68,7.843c-4.348,8.991,1.595,18.204,7.736,21.699
			c6.14,3.494,16.747,4.62,22.94-4.385C85.915,25.313,78.6,12.595,70.726,9.163z"/>
		<path fill="#F79D7A" d="M70.044,10.943c-7.068-3.081-16.411,1.199-19.186,6.94c-3.848,7.957,1.411,16.11,6.846,19.203
			c5.434,3.093,14.821,4.089,20.302-3.88C83.485,25.236,77.012,13.981,70.044,10.943z"/>
		<path fill="#E67957" d="M63.08,37.336c-5.435-3.093-10.694-11.246-6.846-19.203c1.878-3.886,6.766-7.094,11.919-7.812
			c-6.754-1.687-14.76,2.318-17.294,7.562c-3.848,7.957,1.411,16.11,6.846,19.203c2.808,1.598,6.671,2.623,10.505,2.154
			C66.316,38.847,64.55,38.173,63.08,37.336z"/>
		<path fill="#8E9FA3" d="M86.043,29.67c-1.365-3.361-2.94-9.977-1.576-10.187c1.366-0.211,3.256,8.507,3.256,8.507
			s-1.261-9.031,0-8.926c1.26,0.104,1.996,8.61,1.996,8.295s-0.105-8.295,0.734-8.191c0.842,0.104,1.629,7.246,1.733,6.825
			c0.105-0.42,0.577-5.46,1.732-5.355c1.156,0.104,0.211,6.303,0.211,6.303L86.043,29.67z"/>
		<path fill="#A4B5B8" d="M73.891,46.288c-0.852-4.955,6.951-18.616,16.576-19.59c9.625-0.972,20.584,11.758,19.916,17.87
			c-0.47,4.289-2.533,3.889-15.5,3.333C82.897,47.387,74.56,50.176,73.891,46.288z"/>
		<path fill="#B3C4C7" d="M80.073,33.438c2.21-3.174,8.08-8.131,16.963-4.805c5.462,2.045-11.607,12.775-14.02,12.935
			C80.68,41.72,76.604,38.418,80.073,33.438z"/>
		<path fill="#8E9FA3" d="M126.922,11.361c-3.978-5.037-12.666-9.479-21.313-3.703c-8.648,5.775-7.076,19.186-1.588,24.732
			c5.566,5.629,16.418,4.892,21.51,0.297C132.589,26.319,130.9,16.396,126.922,11.361z"/>
		<path fill="#F79D7A" d="M125.371,12.564c-3.462-4.386-11.025-8.253-18.553-3.224c-7.528,5.027-6.16,16.701-1.382,21.53
			c4.846,4.9,14.291,4.259,18.725,0.259C130.305,25.585,128.834,16.947,125.371,12.564z"/>
		<path fill="#E67957" d="M110.068,12.34c5.644-3.771,11.308-2.54,15.249,0.16c-3.484-4.359-11.008-8.165-18.499-3.16
			c-7.528,5.027-6.16,16.701-1.382,21.53c0.641,0.648,1.366,1.193,2.146,1.652C103.752,27.139,103.163,16.952,110.068,12.34z"/>
		<path fill="#4E6464" d="M81.004,37.756l0.839,1.26c0,0,4.305,0.105,5.671-2.31l-0.523-0.316
			C85.415,37.688,83.608,38.512,81.004,37.756z"/>
		<path fill="#4E6464" d="M103.465,37.845l-0.891,1.204c0,0-4.164-0.155-5.331-2.643l0.526-0.282
			C99.21,37.512,100.903,38.442,103.465,37.845z"/>
		<path fill="#E4F1F2" d="M90.139,47.208c0,0,0.312,5.252,1.891,5.252c2.415,0,3.046-4.936,3.046-4.936L90.139,47.208z"/>
		<path fill="#A0BBBC" d="M90.321,49.045c0.875-0.375,3.25-0.156,4.25,0.656l0.813-2l-5.344-0.469L90.321,49.045z"/>
		<g>
			<g>
				<path fill="#4E6464" d="M45.135,59.245l-0.308-0.55c9.524-5.335,21.353-7.852,22.669-8.121
					c2.759-0.563,15.716-3.746,15.846-3.778l0.15,0.614c-0.131,0.03-13.1,3.215-15.869,3.782
					C66.317,51.458,54.579,53.958,45.135,59.245z"/>
			</g>
			<g>
				<path fill="#4E6464" d="M52.279,63.073l-0.368-0.513c7.905-5.669,18.118-9.069,19.258-9.438
					c2.381-0.773,13.527-4.874,13.64-4.916l0.218,0.591c-0.113,0.043-11.271,4.148-13.662,4.924
					C70.234,54.088,60.105,57.459,52.279,63.073z"/>
			</g>
			<g>
				<path fill="#4E6464" d="M51.34,47.565l-0.165-0.607c9.389-2.538,20.151-2.141,21.344-2.088
					c2.501,0.111,14.377,0.179,14.498,0.18l-0.004,0.631c-0.119-0.002-12.008-0.069-14.521-0.18
					C71.306,45.447,60.636,45.053,51.34,47.565z"/>
			</g>
		</g>
		<g>
			<g>
				<path fill="#4E6464" d="M139.112,62.42l0.345-0.522c-8.977-6.05-20.439-9.463-21.717-9.834
					c-2.676-0.772-15.201-4.938-15.327-4.979l-0.197,0.599c0.127,0.042,12.666,4.21,15.352,4.987
					C118.835,53.039,130.212,56.427,139.112,62.42z"/>
			</g>
			<g>
				<path fill="#4E6464" d="M131.774,65.692l0.401-0.483c-7.353-6.257-17.158-10.429-18.252-10.885
					c-2.288-0.952-12.958-5.896-13.065-5.945l-0.26,0.572c0.107,0.051,10.788,4.998,13.088,5.956
					C114.771,55.359,124.493,59.495,131.774,65.692z"/>
			</g>
			<g>
				<path fill="#4E6464" d="M133.898,50.301l0.21-0.593c-9.058-3.248-19.699-3.677-20.878-3.715
					c-2.474-0.081-14.188-0.923-14.305-0.931l-0.045,0.628c0.118,0.009,11.842,0.852,14.328,0.934
					C114.38,46.661,124.93,47.086,133.898,50.301z"/>
			</g>
		</g>
		<path fill="#B1C4C7" d="M104.054,46.945c0,0,0.945,4.411-3.15,4.726c-4.096,0.315-7.246-3.938-8.821-4.095
			c-1.575-0.158-2.993,3.308-5.828,3.78c-2.836,0.473-5.828-1.33-5.828-4.884c0-1.733,5.355-3.465,11.184-1.89
			C97.438,46.157,100.904,40.801,104.054,46.945z"/>
		<path fill="#D1E3E5" d="M91.946,45.358c-0.344-1.373-5.018-2.293-7.496-1.674s-4.004,1.634-4.004,3.049
			c0,1.938,2.209,3.307,4.688,2.688S92.289,46.731,91.946,45.358z"/>
		<path fill="#D1E3E5" d="M92.985,45.411c0.343-1.373,4.895-2.333,7.302-1.737c2.407,0.597,3.884,1.595,3.875,3.006
			c-0.011,1.935-2.169,3.319-4.575,2.724S92.643,46.783,92.985,45.411z"/>
		<path fill="#4E6464" d="M89.719,44.058c-0.42,1.05,1.89,2.204,2.729,2.204c0.842,0,3.781-0.84,3.151-1.785
			C94.969,43.533,90.069,43.186,89.719,44.058z"/>
		<ellipse fill="#667D80" cx="91.049" cy="97.026" rx="0.75" ry="0.709"/>
		<path fill="#F3BD4D" d="M37.883,118.734c23-6.334,45.334-24,60.667-46c9.093-13.047,40.167-40.501,59.167-48.168l-0.834-1.499
			c0,0-31.333,15.666-58.666,48.999c-27.942,34.075-60.667,42.833-60.667,42.833L37.883,118.734z"/>
		<path fill="#8E9FA3" d="M93.893,79.553l0.631-4.175c0,0,10.239,1.26,15.359-2.206l-1.576,9.137
			C108.307,82.309,99.092,82.545,93.893,79.553z"/>
		<path fill="#8E9FA3" d="M88.696,81.983l2.094-2.813c0,0-9.104-5.289-12.175-12.613l-7.731,4.301
			C70.883,70.858,71.368,76.312,88.696,81.983z"/>
		<path fill="#8E9FA3" d="M95.762,77.254c-2.154-0.627-2.631-1.03-2.404-1.705c0.229-0.675,3.131-0.004,3.131-0.004L95.762,77.254z"
			/>
		<path fill="#8E9FA3" d="M95.268,78.691c-2.207-0.404-2.725-0.757-2.566-1.452c0.157-0.695,3.114-0.323,3.114-0.323L95.268,78.691z
			"/>
		<path fill="#8E9FA3" d="M95.286,80.22c-2.234-0.2-2.782-0.503-2.688-1.21c0.092-0.707,3.098-0.444,3.098-0.444L95.286,80.22z"/>
		<path fill="#8E9FA3" d="M89,80.865c1.407,1.175,1.637,1.638,1.256,2.081s-2.716-1.369-2.716-1.369L89,80.865z"/>
		<path fill="#8E9FA3" d="M89.943,79.924c1.517,1.021,1.79,1.457,1.455,1.938c-0.335,0.482-2.419-0.756-2.419-0.756L89.943,79.924z"
			/>
		<path fill="#8E9FA3" d="M90.208,78.795c1.666,0.737,2.009,1.118,1.759,1.652c-0.249,0.534-2.51-0.316-2.51-0.316L90.208,78.795z"
			/>
		<path fill="#F3BD4D" d="M142.709,31.511c3.033,0.217,4.717-7.315,0.973-10.296C143.682,21.215,138.194,31.188,142.709,31.511z"/>
		<path fill="#F3BD4D" d="M138.12,34.731c2.141,0.262,3.563-5.379,1.003-7.753C139.123,26.978,134.932,34.34,138.12,34.731z"/>
		<path fill="#F3BD4D" d="M148.405,28.019c3.035,0.176,4.617-7.379,0.832-10.309C149.237,17.71,143.884,27.756,148.405,28.019z"/>
		<path fill="#F3BD4D" d="M154.123,24.894c3.036,0.199,4.665-7.346,0.899-10.304C155.022,14.59,149.602,24.6,154.123,24.894z"/>
		<path fill="#F3BD4D" d="M156.551,24.265c1.316,2.743,8.691,0.466,9.423-4.269C165.974,19.997,154.592,20.18,156.551,24.265z"/>
		<path fill="#F3BD4D" d="M150.268,28.083c0.907-3.076,8.594-2.151,10.02,2.582C160.288,30.665,148.917,32.665,150.268,28.083z"/>
		<path fill="#F3BD4D" d="M143.846,31.834c0.732-2.804,7.705-2.184,9.129,2.052C152.975,33.886,142.754,36.012,143.846,31.834z"/>
		<path fill="#F3BD4D" d="M139.137,35.424c0.617-2.359,6.488-1.845,7.688,1.717C146.825,37.141,138.216,38.939,139.137,35.424z"/>
		<path fill="#8E9FA3" d="M100.79,114.871h8.188c0,0-1.587-2.02-4.094-1.962C103.7,112.936,102.312,113.489,100.79,114.871z"/>
		<path fill="#8E9FA3" d="M75.29,114.871h8.188c0,0-1.587-2.02-4.094-1.962C78.2,112.936,76.812,113.489,75.29,114.871z"/>
	</g>
	<defs>
		<filter id="Adobe_OpacityMaskFilter" filterUnits="userSpaceOnUse" x="0.017" y="0" width="165.957" height="118.734">
			<feFlood  style="flood-color:white;flood-opacity:1" result="back"/>
			<feBlend  in="SourceGraphic" in2="back" mode="normal"/>
		</filter>
	</defs>
	<mask maskUnits="userSpaceOnUse" x="0.017" y="0" width="165.957" height="118.734" id="SVGID_1_">
		<g filter="url(#Adobe_OpacityMaskFilter)">
			<defs>
				<filter id="Adobe_OpacityMaskFilter_1_" filterUnits="userSpaceOnUse" x="0.017" y="0" width="165.957" height="118.734">
					<feFlood  style="flood-color:white;flood-opacity:1" result="back"/>
					<feBlend  in="SourceGraphic" in2="back" mode="normal"/>
				</filter>
			</defs>
			<mask maskUnits="userSpaceOnUse" x="0.017" y="0" width="165.957" height="118.734" id="SVGID_1_">
				<g filter="url(#Adobe_OpacityMaskFilter_1_)">
				</g>
			</mask>
			<linearGradient id="SVGID_2_" gradientUnits="userSpaceOnUse" x1="82.9956" y1="4.0664" x2="82.9956" y2="118.8569">
				<stop  offset="0.0215" style="stop-color:#999999"/>
				<stop  offset="1" style="stop-color:#FFFFFF"/>
			</linearGradient>
			<path mask="url(#SVGID_1_)" fill="url(#SVGID_2_)" d="M165.974,19.997c0,0-7.188,0.118-9.152,2.219
				c0.771-2.415,0.465-5.846-1.8-7.625c0,0-5.02,9.273-1.359,10.228c-0.898,0.51-1.969,1.133-3.191,1.869
				c1.426-2.268,1.522-6.843-1.234-8.977c0,0-5.275,9.906-0.918,10.297c-1.107,0.69-2.306,1.457-3.582,2.295
				c1.512-2.213,1.709-6.887-1.055-9.087c0,0-5.488,9.973-0.973,10.296c0.082,0.006,0.158-0.016,0.238-0.021
				c-1.046,0.703-2.127,1.442-3.258,2.235c1.053-1.684,1.266-5.048-0.567-6.748c0,0-4.19,7.362-1.003,7.753
				c0.057,0.007,0.109-0.007,0.164-0.008c-4.672,3.336-9.951,7.406-15.52,12.223c-4.934-0.771-8.847-0.93-9.534-0.952
				c-0.071-0.002-0.151-0.006-0.237-0.009c-0.238-3.007-2-7.084-4.71-10.823c5.748,2.34,13.261,1.124,17.249-2.475
				c7.058-6.368,5.368-16.291,1.391-21.326c-3.978-5.037-12.666-9.479-21.313-3.703c-6.898,4.606-7.29,14.067-4.383,20.524
				c-2.162-1.454-4.498-2.461-6.904-2.765c0.199-1.843,0.381-4.708-0.403-4.779c-0.938-0.085-1.427,3.228-1.632,4.696
				c-0.086,0.005-0.172,0.008-0.258,0.014c-0.29-1.693-0.916-6.098-1.576-6.18c-0.611-0.075-0.721,4.126-0.736,6.543
				c-0.063,0.016-0.125,0.03-0.188,0.047c-0.294-2.393-0.92-6.62-1.807-6.693c-0.928-0.077-0.49,4.783-0.195,7.361
				c-0.052,0.021-0.104,0.047-0.155,0.068c-0.609-2.479-1.898-7.166-2.905-7.011c-1.112,0.171-0.271,4.599,0.818,8.051
				c-1.294,0.745-2.527,1.643-3.684,2.647c2.16-8.382-4.15-18.088-10.876-21.02c-7.987-3.481-18.544,1.354-21.68,7.843
				c-4.348,8.991,1.595,18.204,7.736,21.699c4.617,2.628,11.76,3.914,17.652,0.563c-1.065,2.009-1.795,3.946-2.125,5.594
				c-1.853-0.072-12.115-0.343-21.134,2.096l0.165,0.607c8.788-2.374,18.792-2.152,20.862-2.076
				c-0.112,0.785-0.126,1.493-0.02,2.087c0.044,0.245,0.098,0.505,0.161,0.772l0,0c0.032,0.135,0.067,0.272,0.104,0.411
				c0.004,0.016,0.008,0.031,0.012,0.047c0.034,0.126,0.071,0.254,0.11,0.384c0.009,0.031,0.018,0.062,0.027,0.093
				c0.011,0.037,0.021,0.072,0.033,0.109c-2.261,0.539-4.236,0.999-5.133,1.182c-1.316,0.27-13.145,2.786-22.669,8.121l0.308,0.55
				c9.443-5.287,21.182-7.786,22.488-8.053c0.909-0.187,2.918-0.654,5.209-1.201c0.015,0.042,0.032,0.085,0.047,0.127
				c0.019,0.051,0.038,0.103,0.058,0.154c0.042,0.109,0.086,0.22,0.132,0.33c0.024,0.061,0.049,0.121,0.075,0.182
				c0.044,0.104,0.091,0.21,0.139,0.315c0.031,0.067,0.062,0.136,0.094,0.204c0.047,0.101,0.097,0.201,0.148,0.303
				c0.037,0.074,0.074,0.147,0.112,0.222c0.051,0.098,0.104,0.195,0.158,0.294c0.013,0.024,0.026,0.049,0.04,0.073
				c-1.176,0.419-2.138,0.755-2.667,0.927c-1.14,0.369-11.353,3.77-19.258,9.438l0.368,0.513c7.826-5.613,17.955-8.984,19.085-9.353
				c0.549-0.178,1.563-0.532,2.795-0.972c0.028,0.046,0.059,0.092,0.087,0.137c0.058,0.092,0.117,0.184,0.178,0.275
				c0.056,0.085,0.113,0.169,0.171,0.253c0.063,0.09,0.126,0.18,0.191,0.27c0.063,0.086,0.126,0.172,0.191,0.257
				c0.066,0.088,0.134,0.175,0.203,0.262c0.07,0.087,0.141,0.174,0.213,0.261c0.071,0.085,0.143,0.169,0.216,0.254
				c0.077,0.088,0.156,0.175,0.236,0.263c0.075,0.082,0.151,0.163,0.229,0.244c0.084,0.088,0.171,0.175,0.259,0.262
				c0.081,0.08,0.162,0.159,0.245,0.238c0.022,0.021,0.043,0.043,0.066,0.063c-5.633,6.073-16.216,20.517-10.69,38.828
				c-39.137,7.979-22.385-30.707-22.862-56.018C42.67,16.334,25.34-9.232,8.227,3.311C7.755,3.657,7.318,4.006,6.896,4.357
				C6.729,4.495,6.563,4.632,6.403,4.77c-0.211,0.184-0.41,0.369-0.609,0.554c-13.128,12.086-0.546,26.272,5.048,29.89h0h0.001
				c0.434,0.281,0.83,0.504,1.164,0.651l0.63-1.471c0,0-18.134-12.58-6.604-25.071c0,0.001-0.001,0.001-0.001,0.001
				C6.136,9.21,6.226,9.096,6.336,8.982c15.392-15.921,39.485,9.663,29.825,53.559c-7.004,31.826,8.181,41.347,23.545,42.417
				c-12.885,7.459-22.157,9.941-22.157,9.941l0.333,3.835c9.844-2.711,19.564-7.503,28.667-13.816
				c1.314-0.102,2.604-0.253,3.854-0.443c0.957,1.588,2.044,3.196,3.273,4.823c0.016,0.021,0.031,0.042,0.047,0.063
				c0.397,0.523,0.809,1.05,1.236,1.577c0.057,0.07,0.11,0.14,0.167,0.21c0.391,0.479,0.797,0.96,1.214,1.442
				c0.092,0.106,0.179,0.212,0.271,0.318c0.182,0.207,0.372,0.416,0.558,0.623c-0.6,0.313-1.228,0.745-1.883,1.34h8.188
				c0,0-0.096-0.119-0.267-0.293l0.208-5.83c0,0,10.712-1.26,17.433,1.89v4.181c-0.021,0.019-0.041,0.034-0.062,0.053h8.188
				c0,0-0.708-0.88-1.908-1.461c0.044-0.087,0.089-0.176,0.137-0.27c0.008-0.017,0.016-0.033,0.024-0.05
				c0.214-0.425,0.456-0.922,0.724-1.484c0.014-0.03,0.027-0.06,0.041-0.089c0.135-0.284,0.273-0.583,0.418-0.898
				c0.004-0.011,0.01-0.022,0.015-0.034c0.296-0.649,0.612-1.365,0.939-2.14c0.013-0.029,0.024-0.058,0.036-0.087
				c0.497-1.179,1.02-2.492,1.541-3.92c0.012-0.03,0.022-0.062,0.033-0.092c0.35-0.959,0.697-1.966,1.036-3.019
				c0.001-0.004,0.003-0.008,0.004-0.013c0.167-0.521,0.333-1.053,0.495-1.594c0.009-0.031,0.018-0.063,0.027-0.093
				c0.326-1.094,0.639-2.227,0.93-3.394c0.004-0.013,0.008-0.026,0.011-0.039c0.144-0.579,0.282-1.167,0.415-1.763
				c0.008-0.03,0.014-0.061,0.021-0.091c0.266-1.197,0.506-2.424,0.712-3.676c0.004-0.022,0.008-0.046,0.012-0.068
				c0.102-0.621,0.195-1.247,0.279-1.878c0.005-0.032,0.009-0.064,0.014-0.097c0.166-1.268,0.297-2.555,0.381-3.855
				c0.002-0.037,0.006-0.073,0.008-0.11c0.041-0.646,0.07-1.293,0.088-1.944c0-0.03,0.001-0.062,0.002-0.092
				c0.033-1.311,0.016-2.63-0.058-3.954c-0.003-0.049-0.005-0.097-0.008-0.146c-0.038-0.654-0.091-1.311-0.157-1.967
				c-0.003-0.027-0.006-0.055-0.01-0.082c-0.138-1.323-0.338-2.646-0.605-3.964c-0.012-0.061-0.024-0.121-0.037-0.181
				c-0.135-0.648-0.284-1.296-0.453-1.94c-0.007-0.023-0.014-0.048-0.02-0.071c-0.176-0.664-0.369-1.325-0.582-1.982
				c0,0-0.001-0.001-0.001-0.002l0,0c-0.911-2.805-2.184-5.551-3.889-8.18c1.584-1.583,3.261-3.204,5.021-4.847
				c2.807,1.238,10.885,5.043,17.162,10.386l0.401-0.483c-6.161-5.243-14.025-9.012-17.062-10.367
				c0.783-0.728,1.579-1.457,2.39-2.188c0.021,0.006,0.044,0.013,0.063,0.019c1.269,0.367,12.646,3.756,21.545,9.749l0.345-0.522
				c-8.476-5.712-19.162-9.072-21.405-9.742c1.675-1.503,3.402-3.008,5.162-4.502c3.36,0.548,7.143,1.378,10.685,2.647l0.21-0.593
				c-3.393-1.217-7.006-2.037-10.263-2.591c4.993-4.21,10.241-8.299,15.379-11.897c-0.029,0.068-0.068,0.131-0.087,0.204
				c-0.921,3.515,7.688,1.717,7.688,1.717c-0.835-2.48-3.932-3.479-5.946-3.063c0.977-0.666,1.949-1.32,2.911-1.945
				c-0.525,3.771,9.186,1.753,9.186,1.753c-0.854-2.539-3.697-3.77-6-3.751c1.104-0.671,2.193-1.314,3.262-1.912
				c-1.07,4.395,10.051,2.441,10.051,2.441c-0.848-2.813-3.902-4.27-6.435-4.352c1.094-0.541,2.153-1.022,3.185-1.457
				C159.116,26.58,165.306,24.319,165.974,19.997z M109.281,59.678c-0.718-1.066-1.507-2.114-2.376-3.136
				c0.227-0.167,0.447-0.337,0.661-0.51c0.059-0.048,0.115-0.096,0.173-0.144c0.346-0.286,0.677-0.578,0.986-0.876
				c0.036-0.034,0.07-0.069,0.105-0.104c0.516-0.504,0.982-1.018,1.397-1.537c1.528,0.693,2.818,1.269,3.458,1.535
				c0.057,0.023,0.15,0.063,0.254,0.107C112.393,56.512,110.838,58.072,109.281,59.678z M114.435,54.542
				c-0.228-0.099-0.415-0.179-0.512-0.219c-0.616-0.257-1.842-0.804-3.304-1.465c0.229-0.313,0.438-0.624,0.633-0.936
				c0.026-0.041,0.053-0.082,0.078-0.123c0.191-0.313,0.365-0.622,0.522-0.93c0.002-0.003,0.005-0.007,0.007-0.011
				c1.905,0.62,3.668,1.188,4.825,1.545C115.938,53.103,115.187,53.818,114.435,54.542z M117.222,51.91
				c-1.11-0.337-3.009-0.947-5.087-1.623c0.068-0.151,0.135-0.303,0.195-0.451c0.012-0.029,0.021-0.059,0.033-0.088
				c0.123-0.311,0.23-0.615,0.318-0.911l0.001-0.003h-0.001c0.148-0.5,0.248-0.976,0.298-1.416c0.028-0.254,0.038-0.523,0.036-0.8
				c0.067,0.002,0.135,0.005,0.192,0.007c0.659,0.021,4.288,0.164,8.934,0.858C120.522,48.895,118.88,50.372,117.222,51.91z"/>
		</g>
	</mask>
	<linearGradient id="SVGID_3_" gradientUnits="userSpaceOnUse" x1="82.9956" y1="4.0664" x2="82.9956" y2="118.8569">
		<stop  offset="0.0215" style="stop-color:#FFD995"/>
		<stop  offset="1" style="stop-color:#260C44"/>
	</linearGradient>
	<path opacity="0.6" fill="url(#SVGID_3_)" d="M165.974,19.997c0,0-7.188,0.118-9.152,2.219c0.771-2.415,0.465-5.846-1.8-7.625
		c0,0-5.02,9.273-1.359,10.228c-0.898,0.51-1.969,1.133-3.191,1.869c1.426-2.268,1.522-6.843-1.234-8.977
		c0,0-5.275,9.906-0.918,10.297c-1.107,0.69-2.306,1.457-3.582,2.295c1.512-2.213,1.709-6.887-1.055-9.087
		c0,0-5.488,9.973-0.973,10.296c0.082,0.006,0.158-0.016,0.238-0.021c-1.046,0.703-2.127,1.442-3.258,2.235
		c1.053-1.684,1.266-5.048-0.567-6.748c0,0-4.19,7.362-1.003,7.753c0.057,0.007,0.109-0.007,0.164-0.008
		c-4.672,3.336-9.951,7.406-15.52,12.223c-4.934-0.771-8.847-0.93-9.534-0.952c-0.071-0.002-0.151-0.006-0.237-0.009
		c-0.238-3.007-2-7.084-4.71-10.823c5.748,2.34,13.261,1.124,17.249-2.475c7.058-6.368,5.368-16.291,1.391-21.326
		c-3.978-5.037-12.666-9.479-21.313-3.703c-6.898,4.606-7.29,14.067-4.383,20.524c-2.162-1.454-4.498-2.461-6.904-2.765
		c0.199-1.843,0.381-4.708-0.403-4.779c-0.938-0.085-1.427,3.228-1.632,4.696c-0.086,0.005-0.172,0.008-0.258,0.014
		c-0.29-1.693-0.916-6.098-1.576-6.18c-0.611-0.075-0.721,4.126-0.736,6.543c-0.063,0.016-0.125,0.03-0.188,0.047
		c-0.294-2.393-0.92-6.62-1.807-6.693c-0.928-0.077-0.49,4.783-0.195,7.361c-0.052,0.021-0.104,0.047-0.155,0.068
		c-0.609-2.479-1.898-7.166-2.905-7.011c-1.112,0.171-0.271,4.599,0.818,8.051c-1.294,0.745-2.527,1.643-3.684,2.647
		c2.16-8.382-4.15-18.088-10.876-21.02c-7.987-3.481-18.544,1.354-21.68,7.843c-4.348,8.991,1.595,18.204,7.736,21.699
		c4.617,2.628,11.76,3.914,17.652,0.563c-1.065,2.009-1.795,3.946-2.125,5.594c-1.853-0.072-12.115-0.343-21.134,2.096l0.165,0.607
		c8.788-2.374,18.792-2.152,20.862-2.076c-0.112,0.785-0.126,1.493-0.02,2.087c0.044,0.245,0.098,0.505,0.161,0.772l0,0
		c0.032,0.135,0.067,0.272,0.104,0.411c0.004,0.016,0.008,0.031,0.012,0.047c0.034,0.126,0.071,0.254,0.11,0.384
		c0.009,0.031,0.018,0.062,0.027,0.093c0.011,0.037,0.021,0.072,0.033,0.109c-2.261,0.539-4.236,0.999-5.133,1.182
		c-1.316,0.27-13.145,2.786-22.669,8.121l0.308,0.55c9.443-5.287,21.182-7.786,22.488-8.053c0.909-0.187,2.918-0.654,5.209-1.201
		c0.015,0.042,0.032,0.085,0.047,0.127c0.019,0.051,0.038,0.103,0.058,0.154c0.042,0.109,0.086,0.22,0.132,0.33
		c0.024,0.061,0.049,0.121,0.075,0.182c0.044,0.104,0.091,0.21,0.139,0.315c0.031,0.067,0.062,0.136,0.094,0.204
		c0.047,0.101,0.097,0.201,0.148,0.303c0.037,0.074,0.074,0.147,0.112,0.222c0.051,0.098,0.104,0.195,0.158,0.294
		c0.013,0.024,0.026,0.049,0.04,0.073c-1.176,0.419-2.138,0.755-2.667,0.927c-1.14,0.369-11.353,3.77-19.258,9.438l0.368,0.513
		c7.826-5.613,17.955-8.984,19.085-9.353c0.549-0.178,1.563-0.532,2.795-0.972c0.028,0.046,0.059,0.092,0.087,0.137
		c0.058,0.092,0.117,0.184,0.178,0.275c0.056,0.085,0.113,0.169,0.171,0.253c0.063,0.09,0.126,0.18,0.191,0.27
		c0.063,0.086,0.126,0.172,0.191,0.257c0.066,0.088,0.134,0.175,0.203,0.262c0.07,0.087,0.141,0.174,0.213,0.261
		c0.071,0.085,0.143,0.169,0.216,0.254c0.077,0.088,0.156,0.175,0.236,0.263c0.075,0.082,0.151,0.163,0.229,0.244
		c0.084,0.088,0.171,0.175,0.259,0.262c0.081,0.08,0.162,0.159,0.245,0.238c0.022,0.021,0.043,0.043,0.066,0.063
		c-5.633,6.073-16.216,20.517-10.69,38.828c-39.137,7.979-22.385-30.707-22.862-56.018C42.67,16.334,25.34-9.232,8.227,3.311
		C7.755,3.657,7.318,4.006,6.896,4.357C6.729,4.495,6.563,4.632,6.403,4.77c-0.211,0.184-0.41,0.369-0.609,0.554
		c-13.128,12.086-0.546,26.272,5.048,29.89h0h0.001c0.434,0.281,0.83,0.504,1.164,0.651l0.63-1.471c0,0-18.134-12.58-6.604-25.071
		c0,0.001-0.001,0.001-0.001,0.001C6.136,9.21,6.226,9.096,6.336,8.982c15.392-15.921,39.485,9.663,29.825,53.559
		c-7.004,31.826,8.181,41.347,23.545,42.417c-12.885,7.459-22.157,9.941-22.157,9.941l0.333,3.835
		c9.844-2.711,19.564-7.503,28.667-13.816c1.314-0.102,2.604-0.253,3.854-0.443c0.957,1.588,2.044,3.196,3.273,4.823
		c0.016,0.021,0.031,0.042,0.047,0.063c0.397,0.523,0.809,1.05,1.236,1.577c0.057,0.07,0.11,0.14,0.167,0.21
		c0.391,0.479,0.797,0.96,1.214,1.442c0.092,0.106,0.179,0.212,0.271,0.318c0.182,0.207,0.372,0.416,0.558,0.623
		c-0.6,0.313-1.228,0.745-1.883,1.34h8.188c0,0-0.096-0.119-0.267-0.293l0.208-5.83c0,0,10.712-1.26,17.433,1.89v4.181
		c-0.021,0.019-0.041,0.034-0.062,0.053h8.188c0,0-0.708-0.88-1.908-1.461c0.044-0.087,0.089-0.176,0.137-0.27
		c0.008-0.017,0.016-0.033,0.024-0.05c0.214-0.425,0.456-0.922,0.724-1.484c0.014-0.03,0.027-0.06,0.041-0.089
		c0.135-0.284,0.273-0.583,0.418-0.898c0.004-0.011,0.01-0.022,0.015-0.034c0.296-0.649,0.612-1.365,0.939-2.14
		c0.013-0.029,0.024-0.058,0.036-0.087c0.497-1.179,1.02-2.492,1.541-3.92c0.012-0.03,0.022-0.062,0.033-0.092
		c0.35-0.959,0.697-1.966,1.036-3.019c0.001-0.004,0.003-0.008,0.004-0.013c0.167-0.521,0.333-1.053,0.495-1.594
		c0.009-0.031,0.018-0.063,0.027-0.093c0.326-1.094,0.639-2.227,0.93-3.394c0.004-0.013,0.008-0.026,0.011-0.039
		c0.144-0.579,0.282-1.167,0.415-1.763c0.008-0.03,0.014-0.061,0.021-0.091c0.266-1.197,0.506-2.424,0.712-3.676
		c0.004-0.022,0.008-0.046,0.012-0.068c0.102-0.621,0.195-1.247,0.279-1.878c0.005-0.032,0.009-0.064,0.014-0.097
		c0.166-1.268,0.297-2.555,0.381-3.855c0.002-0.037,0.006-0.073,0.008-0.11c0.041-0.646,0.07-1.293,0.088-1.944
		c0-0.03,0.001-0.062,0.002-0.092c0.033-1.311,0.016-2.63-0.058-3.954c-0.003-0.049-0.005-0.097-0.008-0.146
		c-0.038-0.654-0.091-1.311-0.157-1.967c-0.003-0.027-0.006-0.055-0.01-0.082c-0.138-1.323-0.338-2.646-0.605-3.964
		c-0.012-0.061-0.024-0.121-0.037-0.181c-0.135-0.648-0.284-1.296-0.453-1.94c-0.007-0.023-0.014-0.048-0.02-0.071
		c-0.176-0.664-0.369-1.325-0.582-1.982c0,0-0.001-0.001-0.001-0.002l0,0c-0.911-2.805-2.184-5.551-3.889-8.18
		c1.584-1.583,3.261-3.204,5.021-4.847c2.807,1.238,10.885,5.043,17.162,10.386l0.401-0.483
		c-6.161-5.243-14.025-9.012-17.062-10.367c0.783-0.728,1.579-1.457,2.39-2.188c0.021,0.006,0.044,0.013,0.063,0.019
		c1.269,0.367,12.646,3.756,21.545,9.749l0.345-0.522c-8.476-5.712-19.162-9.072-21.405-9.742c1.675-1.503,3.402-3.008,5.162-4.502
		c3.36,0.548,7.143,1.378,10.685,2.647l0.21-0.593c-3.393-1.217-7.006-2.037-10.263-2.591c4.993-4.21,10.241-8.299,15.379-11.897
		c-0.029,0.068-0.068,0.131-0.087,0.204c-0.921,3.515,7.688,1.717,7.688,1.717c-0.835-2.48-3.932-3.479-5.946-3.063
		c0.977-0.666,1.949-1.32,2.911-1.945c-0.525,3.771,9.186,1.753,9.186,1.753c-0.854-2.539-3.697-3.77-6-3.751
		c1.104-0.671,2.193-1.314,3.262-1.912c-1.07,4.395,10.051,2.441,10.051,2.441c-0.848-2.813-3.902-4.27-6.435-4.352
		c1.094-0.541,2.153-1.022,3.185-1.457C159.116,26.58,165.306,24.319,165.974,19.997z M109.281,59.678
		c-0.718-1.066-1.507-2.114-2.376-3.136c0.227-0.167,0.447-0.337,0.661-0.51c0.059-0.048,0.115-0.096,0.173-0.144
		c0.346-0.286,0.677-0.578,0.986-0.876c0.036-0.034,0.07-0.069,0.105-0.104c0.516-0.504,0.982-1.018,1.397-1.537
		c1.528,0.693,2.818,1.269,3.458,1.535c0.057,0.023,0.15,0.063,0.254,0.107C112.393,56.512,110.838,58.072,109.281,59.678z
		 M114.435,54.542c-0.228-0.099-0.415-0.179-0.512-0.219c-0.616-0.257-1.842-0.804-3.304-1.465c0.229-0.313,0.438-0.624,0.633-0.936
		c0.026-0.041,0.053-0.082,0.078-0.123c0.191-0.313,0.365-0.622,0.522-0.93c0.002-0.003,0.005-0.007,0.007-0.011
		c1.905,0.62,3.668,1.188,4.825,1.545C115.938,53.103,115.187,53.818,114.435,54.542z M117.222,51.91
		c-1.11-0.337-3.009-0.947-5.087-1.623c0.068-0.151,0.135-0.303,0.195-0.451c0.012-0.029,0.021-0.059,0.033-0.088
		c0.123-0.311,0.23-0.615,0.318-0.911l0.001-0.003h-0.001c0.148-0.5,0.248-0.976,0.298-1.416c0.028-0.254,0.038-0.523,0.036-0.8
		c0.067,0.002,0.135,0.005,0.192,0.007c0.659,0.021,4.288,0.164,8.934,0.858C120.522,48.895,118.88,50.372,117.222,51.91z"/>
</g>
</svg>
