<?xml version="1.0" encoding="utf-8"?>
<!-- Generator: Adobe Illustrator 15.0.0, SVG Export Plug-In . SVG Version: 6.00 Build 0)  -->
<!DOCTYPE svg PUBLIC "-//W3C//DTD SVG 1.1//EN" "http://www.w3.org/Graphics/SVG/1.1/DTD/svg11.dtd">
<svg version="1.1" id="Layer_1" xmlns="http://www.w3.org/2000/svg" xmlns:xlink="http://www.w3.org/1999/xlink" x="0px" y="0px"
	 width="213.257px" height="197.012px" viewBox="0 0 213.257 197.012" enable-background="new 0 0 213.257 197.012"
	 xml:space="preserve">
<g>
	<path fill="#323233" d="M163.081,179.309c-0.03-0.049-0.059-0.107-0.084-0.164c1.547-1.158,2.397-2.672,4.614-2.656
		c1.723,0.018,2.009,0.926,0.588,2.072C167.283,179.295,163.89,180.616,163.081,179.309z"/>
	<path fill="#323233" d="M154.838,173.928c-0.035-0.047-0.066-0.102-0.096-0.158c1.389-1.164,2.069-2.647,4.226-2.706
		c1.676-0.042,2.045,0.818,0.771,1.97C158.924,173.773,155.755,175.162,154.838,173.928z"/>
	<path fill="#323233" d="M157.189,177.943c-0.033-0.047-0.061-0.102-0.086-0.162c1.477-1.055,2.266-2.486,4.423-2.373
		c1.676,0.088,1.974,0.977,0.621,2.024C161.273,178.107,158.004,179.244,157.189,177.943z"/>
	<path fill="#B05E36" d="M19.986,60.603c1.482,12.978,31.535-5.744,16.801-9.909C30.817,49.007,19.351,54.98,19.986,60.603z"/>
	<path fill="#9C4B31" d="M36.787,50.693c-0.799-0.227-1.692-0.311-2.646-0.28c-0.113,0.295-0.232,0.598-0.371,0.905
		c-0.729,1.649-1.88,3.3-3.247,4.477c-1.895,1.631-4.368,3.261-7.018,3.043c-1.082-0.09-2.117-0.325-3.067-0.704
		c-0.372,0.813-0.54,1.645-0.452,2.468C21.468,73.58,51.521,54.858,36.787,50.693z"/>
	<path fill="#A65834" d="M181.75,170.826c-3.211,3.351-7.387,5.836-11.621,6.893c-5.52,1.379-12.904-0.22-12.517-6.555
		c0.282-4.627,6.335-7.503,6.298-12.195c-0.041-5.217-6.836-7.511-10.144-10.74c-4.379-4.287-9.27-8.229-12.882-13.225
		c-6.991-9.672-4.634-11.629,3.145-18.878c3.72-3.461,24.088-26.776,27.85-19.706c1.683,3.162,1.225,12.373,1.799,16.162
		c2.238,14.718,10.336,27.293,13.539,41.266C188.67,160.17,186.094,166.299,181.75,170.826z"/>
	<path fill="#9A5031" d="M184.744,159.063c-8.517-0.371-13.227-10.516-14.637-17.762c-1.373-7.072-1.664-17.7,5.021-21.92
		c-0.599-2.223-1.099-4.485-1.45-6.799c-0.574-3.789-0.116-13-1.799-16.162c-3.762-7.07-24.13,16.245-27.85,19.706
		c-7.778,7.249-10.136,9.206-3.145,18.878c3.612,4.996,8.503,8.938,12.882,13.225c3.308,3.229,10.103,5.523,10.144,10.74
		c0.037,4.692-6.016,7.568-6.298,12.195c-0.388,6.335,6.997,7.934,12.517,6.555c4.234-1.057,8.41-3.542,11.621-6.893
		c3.215-3.35,5.455-7.572,5.821-12.1C186.719,158.986,185.783,159.111,184.744,159.063z"/>
	<path fill="#924525" d="M176.302,171.164c-3.874-1.819-5.276-5.313-5.978-9.336c-0.677-3.914-0.322-8.98-2.221-12.544
		c-2.374-4.453-5.667-8.758-6.092-13.957c-0.45-5.589,2.131-10.476,5.464-14.759c1.885-2.416,4.007-4.783,6.401-6.785
		c-0.07-0.398-0.142-0.797-0.2-1.201c-0.574-3.789-0.116-13-1.799-16.162c-3.762-7.07-24.13,16.245-27.85,19.706
		c-7.778,7.249-10.136,9.206-3.145,18.878c3.612,4.996,8.503,8.938,12.882,13.225c3.308,3.229,10.103,5.523,10.144,10.74
		c0.037,4.692-6.016,7.568-6.298,12.195c-0.388,6.335,6.997,7.934,12.517,6.555c3.741-0.932,7.438-2.987,10.463-5.761
		C179.177,172.095,177.699,171.82,176.302,171.164z"/>
	<path fill="#924525" d="M63.354,122.06c7.193-2.095,27.442-7.403,30.056,2.573c1.842,7.012-4.506,17.633-7.993,23.381
		c-2.868,4.73-15.626,15.076-13.803,20.793c1.129,3.535,21.783,8.762,11.282,13.627c-6.16,2.852-20.724,0.729-26.116-3.412
		c-5.12-3.941-3.981-12.045-8.123-16.918c-4.882-5.732-7.751-8.981-7.283-17.176C42.1,132.17,51.509,125.516,63.354,122.06z"/>
	<path fill="#833820" d="M64.87,178.547c-11.358-11.236,5.767-32.654,18.672-28.062c0.794-0.927,1.445-1.765,1.875-2.472
		c3.487-5.748,9.835-16.369,7.993-23.381c-2.613-9.977-22.862-4.668-30.056-2.573c-11.845,3.456-21.254,10.11-21.98,22.868
		c-0.468,8.194,2.401,11.443,7.283,17.176c4.142,4.873,3.003,12.977,8.123,16.918c5.393,4.142,19.956,6.264,26.116,3.412
		c0.043-0.018,0.08-0.039,0.122-0.061C76.769,183.215,69.571,183.197,64.87,178.547z"/>
	<path fill="#B8683C" d="M186.41,74.522c-1.163-17.965-25.946-29.479-42.066-34.118c-6.576-1.891-13.685-3.013-20.651-2.38
		c-5.396,0.488-10.514,2.347-15.224,4.875c-5.429,2.923-9.012,5.769-15.109,4.844c-5.506-0.833-10.87-2.918-16.406-3.839
		c-24.67-4.102-46.117,5.242-56.327,28.209c-1.875,4.223-5.31,13.855-5.42,26.128c-0.004,0.13-0.004,0.258-0.007,0.388
		c0,0.089-0.005,0.181-0.005,0.281c-0.063,4.223,0.305,8.504,1.095,12.785c1.778,9.59,3.773,17.457-0.026,26.838
		c-3.503,8.653-12.471,14.279-15.3,22.915c-3.245,9.896,2.329,20.245,7.634,28.255c2.793,4.213,24.229,8.523,22.854,0.449
		c-1.404-8.229-13.146-7.822-3.825-16.793c4.979-4.791,12.39-6.434,18.138-10.057c4.773-3.014,9.527-6.061,14.175-9.269
		c3.264-2.255,6.116-5.448,9.592-7.282c9.763-5.148,21.629-3.254,32.136-3.791c12.081-0.615,24.297-2.269,35.591-6.783
		c11.552-4.621,20.772-11.139,29.361-19.834C178.056,104.764,187.465,90.871,186.41,74.522z"/>
	<path fill="#B05E36" d="M186.41,74.522c-0.574-8.874-6.916-16.171-15.128-21.845c-1.538,9.146-5.757,18.308-10.001,25.385
		c-10.738,17.918-29.503,32.689-51.391,31.29c-6.268,0.626-12.522,0.678-18.826,0.708c-6.771,0.029-13.734,0.01-20.376,1.494
		c-6.098,1.365-10.621,3.721-14.527,8.625c-4.899,6.158-13.338,20.538-23.176,15.678c-5.489-2.711-8.176-9.98-9.704-15.462
		c-1.574-5.637-2.624-11.429-3.192-17.255c-1.178-12.039-0.366-25.5,3.829-37.33c-1.199,1.972-2.299,4.071-3.292,6.303
		c-1.875,4.223-5.31,13.855-5.42,26.128c-0.004,0.13-0.004,0.258-0.007,0.388c0,0.089-0.005,0.181-0.005,0.281
		c-0.063,4.223,0.305,8.504,1.095,12.785c1.778,9.59,3.773,17.457-0.026,26.838c-3.503,8.653-12.471,14.279-15.3,22.915
		c-3.245,9.896,2.329,20.245,7.634,28.255c2.793,4.213,24.229,8.523,22.854,0.449c-1.404-8.229-13.146-7.822-3.825-16.793
		c4.979-4.791,12.39-6.434,18.138-10.057c4.773-3.014,9.527-6.061,14.175-9.269c3.264-2.255,6.116-5.448,9.592-7.282
		c9.763-5.148,21.629-3.254,32.136-3.791c12.081-0.615,24.297-2.269,35.591-6.783c11.552-4.621,20.772-11.139,29.361-19.834
		C178.056,104.764,187.465,90.871,186.41,74.522z"/>
	<path fill="#A35531" d="M30.91,188.307c-0.244,0.202-0.499,0.399-0.77,0.592c-6.496,4.505-15.055-0.644-19.014-6.119
		c-3.996-5.529-4.408-12.781-3.312-19.293c1.087-6.485,4.15-11.439,7.633-16.842c3.622-5.607,5.487-10.607,5.31-17.049
		c-0.202-7.205-1.632-13.824-2.745-21.07c-1.099-7.176-2.01-14.701-1.68-22.037c-0.64,3.521-1.085,7.473-1.127,11.753
		c-0.004,0.13-0.004,0.258-0.007,0.388c0,0.089-0.005,0.181-0.005,0.281c-0.063,4.223,0.305,8.504,1.095,12.785
		c1.778,9.59,3.773,17.457-0.026,26.838c-3.503,8.653-12.471,14.279-15.3,22.915c-3.245,9.896,2.329,20.245,7.634,28.255
		c2.793,4.213,24.229,8.523,22.854,0.449C31.335,189.479,31.144,188.873,30.91,188.307z"/>
	<path fill="#A35531" d="M186.41,74.522c-0.021-0.301-0.049-0.6-0.081-0.896c-0.002-0.016-0.007-0.031-0.007-0.045
		c-0.032-0.287-0.074-0.568-0.114-0.854c0-0.003-0.002-0.003-0.002-0.003c-4.682,2.114-10.156,3.034-14.805,3.595
		c-1.307,0.158-2.611,0.275-3.918,0.373c0.128,1.406,0.185,2.813,0.125,4.206c-1.063,25.984-27.419,38.632-49.8,43.081
		c-14.475,2.877-29.604,1.698-44.03,4.696c-3.943,2.427-7.49,5.38-10.311,9.214c-3.46,4.713-6.482,9.758-10.305,14.193
		c-1.878,2.171-3.715,3.08-6.009,4.675c-2.486,1.731-4.742,3.782-7.213,5.54c-2.41,1.717-5.066,3.125-7.556,4.709
		c-2.861,1.813-5.486,4.02-7.326,6.789c-1.034,1.557-1.885,4.573-0.79,6.387c-0.604-1.627,0.04-3.635,3.356-6.824
		c4.979-4.791,12.39-6.434,18.138-10.057c4.773-3.014,9.527-6.061,14.175-9.269c3.264-2.255,6.116-5.448,9.592-7.282
		c9.763-5.148,21.629-3.254,32.136-3.791c12.081-0.615,24.297-2.269,35.591-6.783c11.552-4.621,20.772-11.139,29.361-19.834
		C178.056,104.764,187.465,90.871,186.41,74.522z"/>
	<path fill="#B8683C" d="M92.034,116.293c0.678,4.889,1.656,9.704,2.844,14.34c3.111,12.203,8.679,25.551,14.038,37.016
		c3.559,7.611,7.639,16.025,14.17,21.561c6.877,5.834,16.002,5.828,24.584,6.529c6.639,0.543,9.976,0.014,6.064-6.524
		c-3.094-5.169-8.873-7.651-12.25-12.476c-3.206-4.59-3.948-10.959-4.461-16.428c-0.865-9.223-1.328-19.263-0.626-28.623
		c0.696-9.244,4.446-17.825,6.337-26.818c1.703-8.11,0.807-15.9,0.396-24.083c-0.696-13.758-2.616-28.581-13.933-37.889
		c-6.916-5.688-16.923-4.058-24.14,1.91c-9.924,8.207-12.956,19.265-14.38,31.576C89.248,88.78,90.319,103.946,92.034,116.293z"/>
	<path fill="#A35531" d="M119.711,182.053c-4.804-6.375-14.735-24.16-16.473-27.213c1.845,4.418,3.774,8.732,5.677,12.809
		c3.559,7.611,7.639,16.025,14.17,21.561c2.643,2.242,5.621,3.619,8.769,4.504C126.906,190.799,122.926,186.83,119.711,182.053z"/>
	<path opacity="0.18" fill="#DD9254" d="M95.878,130.033c0.871,1.166,1.964,2.147,3.366,2.848c6.536,3.266,17.504-3.953,22.565-8.27
		c6.138-5.227,10.238-12.502,12.7-20.098c5.601-17.285,1.117-30.563-3.129-47.119c-3.219-12.562-13.089-23.532-26.324-12.588
		c-9.924,8.207-12.956,19.265-14.38,31.576c-1.43,12.397-0.358,27.563,1.356,39.911C92.631,120.59,93.069,126.271,95.878,130.033z"
		/>
	<path opacity="0.25" fill="#DD9254" d="M97.068,75.058c4.107-13.636,12.169-29.332,25.513-35.324
		c-5.842-1.219-12.389,0.824-17.523,5.073c-9.924,8.207-12.956,19.265-14.38,31.576c-1.381,11.973-0.427,26.521,1.182,38.622
		C91.809,101.443,93.187,87.943,97.068,75.058z"/>
	<path opacity="0.25" fill="#DD9254" d="M153.734,189.214c-3.094-5.169-8.873-7.651-12.25-12.476
		c-3.206-4.59-3.948-10.959-4.461-16.428c-0.865-9.223-1.328-19.263-0.626-28.623c1.011-13.404,8.606-26.275,7.455-39.912
		c-0.741,6.461-2.471,12.879-4.81,19.182c-4.009,10.807-9.163,21.459-11.766,32.721c-0.112,1.572-0.191,3.148-0.237,4.724
		c-0.193,7.753,0.335,15.839,3.341,23.087c4.005,9.678,13.064,13.047,21.265,18.361c1.216,0.789,2.422,1.629,3.576,2.54
		C154.984,191.536,154.498,190.494,153.734,189.214z"/>
	<g>
		<path fill="#662E14" d="M200.637,2.231c1.127,0.147,2.167,0.458,3.022,0.932c1.167,0.652,2.194,1.615,2.922,2.728
			c2.651,4.048,2.998,9.021-0.207,12.909c-1.042,1.259-2.112,1.891-3.634,2.449c-1.898,0.7-4.078,0.65-6.017,0.159
			c-2.467-0.63-4.631-1.594-5.831-3.966c-1.795-3.545-1.308-8.2,0.519-11.633C192.949,2.918,197.164,1.781,200.637,2.231z"/>
		<path fill="#662E14" d="M125.866,2.231c-1.125,0.147-2.169,0.458-3.021,0.932c-1.167,0.652-2.189,1.615-2.923,2.728
			c-2.654,4.048-2.999,9.021,0.211,12.909c1.04,1.259,2.107,1.891,3.627,2.449c1.902,0.7,4.077,0.65,6.02,0.159
			c2.465-0.63,4.633-1.594,5.832-3.966c1.797-3.545,1.308-8.2-0.52-11.633C133.555,2.918,129.336,1.781,125.866,2.231z"/>
		<path fill="#5A2512" d="M198.78,11.577c1.345-3.471,5.625-5.708,8.909-3.632c-0.309-0.701-0.673-1.391-1.107-2.054
			c-0.728-1.113-1.755-2.076-2.922-2.728c-0.855-0.474-1.896-0.785-3.022-0.932c-3.474-0.451-7.688,0.687-9.226,3.578
			c-1.826,3.434-2.313,8.088-0.519,11.633c1.2,2.372,3.364,3.335,5.831,3.966c1.098,0.279,2.271,0.405,3.431,0.346
			C198.369,18.859,197.565,14.714,198.78,11.577z"/>
		<path fill="#5A2512" d="M135.091,5.809c-1.536-2.891-5.755-4.028-9.226-3.578c-1.125,0.147-2.169,0.458-3.021,0.932
			c-1.167,0.652-2.189,1.615-2.923,2.728c-1.183,1.806-1.904,3.795-2.06,5.786c0.855-1.272,1.935-2.369,3.131-2.914
			c3.159-1.445,7.497-0.234,8.28,3.614c0.775,3.835-1.617,6.791-4.495,9.164c1.634,0.369,3.396,0.27,5.001-0.134
			c2.465-0.63,4.633-1.594,5.832-3.966C137.408,13.897,136.918,9.243,135.091,5.809z"/>
		<path fill="#B05E36" d="M195.255,7.381c0.18-0.653,0.448-1.279,0.851-1.858c0.629-0.901,2.045-2.274,3.163-2.537
			c2.936-0.7,5.471,0.786,6.965,3.239c1.581,2.611,1.971,5.275,1.333,8.289c-0.271,1.264-0.837,2.428-1.456,3.542
			c-0.635,1.138-1.418,1.843-2.503,2.518c-0.917,0.568-2.069,0.614-3.107,0.764c-0.423,0.062-1.775-0.052-1.553,0.669
			c1.934,1.049,4.976-0.411,6.588-1.447c1.918-1.23,3.011-3.662,3.697-5.768c0.815-2.48,0.523-5.199-0.429-7.556
			c-0.392-0.956-0.891-1.823-1.479-2.661c-0.89-1.274-1.826-2.254-3.192-3.002c-5.015-2.738-13.87-2.19-16.04,3.974
			c-0.557,1.585-0.944,3.243-1.136,4.914c-0.131,1.143-0.441,2.819,0.412,3.772c0.66,0.739,1.842,0.856,2.749,1.057
			c1.29,0.285,3.096,1.127,4.344,0.363c1.301-0.793,0.443-3.529,0.442-4.712C194.903,9.75,194.939,8.523,195.255,7.381z"/>
		<path fill="#B05E36" d="M131.247,7.381c-0.18-0.653-0.448-1.279-0.852-1.858c-0.628-0.901-2.044-2.274-3.163-2.537
			c-2.931-0.7-5.469,0.786-6.96,3.239c-1.584,2.611-1.97,5.275-1.334,8.289c0.266,1.264,0.838,2.428,1.456,3.542
			c0.633,1.138,1.414,1.843,2.501,2.518c0.916,0.568,2.067,0.614,3.107,0.764c0.422,0.062,1.774-0.052,1.556,0.669
			c-1.934,1.049-4.98-0.411-6.591-1.447c-1.918-1.23-3.011-3.662-3.7-5.768c-0.811-2.48-0.522-5.199,0.438-7.556
			c0.386-0.956,0.885-1.823,1.47-2.661C120.066,3.3,121,2.32,122.37,1.572c5.015-2.738,13.869-2.19,16.04,3.974
			c0.559,1.585,0.941,3.243,1.131,4.914c0.137,1.143,0.448,2.819-0.409,3.772c-0.659,0.739-1.839,0.856-2.747,1.057
			c-1.284,0.285-3.095,1.127-4.344,0.363c-1.299-0.793-0.445-3.529-0.443-4.712C131.6,9.75,131.561,8.523,131.247,7.381z"/>
		<path fill="#B8683C" d="M209.152,34.024c-3.115-10.771-8.643-21.171-20.342-24.097c-1.877-0.472-11.885-3.534-25.479-3.559
			c-0.028,0-0.054,0-0.082,0c-0.024,0-0.048,0-0.076,0c-13.601,0.025-23.602,3.087-25.479,3.559
			c-11.701,2.926-17.226,13.326-20.344,24.097c-3.122,10.79-7.46,24.259,0.085,34.224c4.063,5.367,10.759,6.514,16.593,9.021
			c9.479,4.082,15.113,9.063,29.01,9.059c13.1,0,20.023-5.004,29.436-9.059c5.829-2.508,12.531-3.652,16.593-9.021
			C216.61,58.283,212.275,44.814,209.152,34.024z"/>
		<path fill="#B05E36" d="M209.152,34.024c-3.115-10.771-8.643-21.171-20.342-24.097c-1.877-0.472-11.885-3.534-25.479-3.559
			c-0.028,0-0.054,0-0.082,0c-0.024,0-0.048,0-0.076,0c-13.601,0.025-23.602,3.087-25.479,3.559
			c-11.701,2.926-17.226,13.326-20.344,24.097c-3.122,10.79-7.46,24.259,0.085,34.224c4.063,5.367,10.759,6.514,16.593,9.021
			c9.479,4.082,15.113,9.063,29.01,9.059c13.1,0,20.023-5.004,29.436-9.059c5.829-2.508,12.531-3.652,16.593-9.021
			C216.61,58.283,212.275,44.814,209.152,34.024z M203.536,57.003c-3.34,6.042-9.686,10.989-15.761,13.968
			c-13.162,6.46-28.249,8.634-42.736,5.292c-6.735-1.557-14.564-4.52-19.336-9.76c-4.761-5.221-6.708-12.072-6.562-19.063
			c0.082-3.659,0.259-7.685,1.445-11.154c1.954-5.729,4.293-11.001,8.966-15.088c11.172-9.781,25.568-12.061,39.952-10.148
			c4.388,0.581,8.926,1.579,13.141,3.038c2.443,0.847,4.729,1.875,7.044,2.981c2.856,1.361,4.594,2.354,6.879,4.486
			c4.458,4.149,6.433,10.658,8.078,16.289C206.482,44.132,206.796,51.1,203.536,57.003z"/>
		<path opacity="0.25" fill="#DD9254" d="M182.083,31.387c-5.172-4.093-12.322-5.623-18.933-5.704
			c-7.814-0.094-13.291,1.664-19.778,5.596c-7.821,4.738-8.657,19.018-2.786,25.564c4.105,4.57,11.684,6.669,17.633,7.013
			c3.063,0.179,6.199-0.024,9.265-0.016c6.593,0.015,12.604-1.067,16.31-6.582c3.852-5.727,6.859-10.985,4.125-18.004
			C186.627,35.95,184.589,33.368,182.083,31.387z"/>
		<path fill="#DD9254" d="M189.09,78.799c-0.292-2.551-0.923-5.117-1.185-7c-0.564-4.037-1.773-8.572-3.979-12.355
			c-1.646-2.817-3.847-5.214-6.752-6.678c-12.253-6.178-25.839-3.748-33.823,7.954c-2.716,3.985-5.113,12.058-4.618,18.758
			c7.01,3.471,12.854,6.855,24.305,6.852C174.525,86.328,181.262,82.48,189.09,78.799z"/>
		<path fill="#D38346" d="M180.345,71.961c1.089-1.164,1.391-1.99,1.282-3.561c-0.064-0.957-0.297-2.375-1.568-1.607
			c-0.691,0.423-1.07,1.883-1.462,2.566c-2.086,3.639-6.355,5.576-9.192,1.507c-1.465-2.098-0.96-4.924-2.936-6.771
			c-1.366-1.275-4.677-1.109-6.134-0.02c-1.522,1.135-0.899,4.166-1.814,5.88c-2.084,3.915-8.269,3.71-10.44,0
			c-0.493-0.847-0.755-1.942-1.308-2.72c-1.317-1.846-1.358,1.674-1.233,2.377c0.283,1.581,1.109,3.093,2.354,4.121
			c1.629,1.354,4.392,1.973,6.476,1.657c1.714-0.26,3.19-0.271,4.854-0.347c1.61-0.068,2.982-1.418,4.713-1.34
			c1.107,0.053,1.98,0.727,2.999,1.158c1.955,0.827,3.934,1.18,6.005,0.967c2.104-0.219,3.419-1.211,5.25-2.275
			C179.009,73.074,179.763,72.58,180.345,71.961z"/>
		<path opacity="0.56" fill="#EAA86C" d="M174.771,63.07c3.537-2.273,5.496-5.174,4.541-8.966c-0.663-0.506-1.374-0.957-2.137-1.339
			c-9.692-4.885-20.212-4.382-28.139,1.829c-0.176,1.162-0.126,2.379,0.137,3.484c0.696,2.895,3.43,4.617,5.93,5.855
			c0.275,0.137,0.552,0.26,0.824,0.381C161.945,66.92,169.204,66.646,174.771,63.07z"/>
		<path fill="#D38346" d="M187.775,70.972c-0.393,0.212-9.879,4.863-12.198,6.407c-1.962,1.311-3.628,3.02-5.755,4.086
			c-2.148,1.071-4.535,1.311-6.908,1.43c-5.261,0.268-8.504-2.773-12.973-4.877c-3.551-1.672-7.509-2.016-11.082-3.545
			c-0.181,1.697-0.24,3.389-0.125,5.004c7.01,3.471,12.854,6.855,24.305,6.852c11.486,0,18.224-3.848,26.052-7.529
			c-0.292-2.551-0.923-5.117-1.185-7C187.869,71.528,187.823,71.251,187.775,70.972z"/>
		<g>
			<g>
				<path fill="#010101" d="M180.454,48.957c2.433,0.129,4.53-2.307,4.701-5.435c0.163-3.133-1.671-5.788-4.097-5.916
					c-2.429-0.129-4.528,2.309-4.695,5.448C176.201,46.179,178.034,48.823,180.454,48.957z"/>
				<path fill="#FFFFFF" d="M178.807,43.177c0.565,0.029,1.052-0.44,1.088-1.054c0.031-0.617-0.405-1.141-0.976-1.164
					c-0.558-0.046-1.05,0.44-1.072,1.046C177.812,42.619,178.241,43.149,178.807,43.177z"/>
			</g>
			<g>
				<path fill="#010101" d="M145.44,48.957c2.427,0.129,4.53-2.307,4.696-5.443c0.162-3.125-1.669-5.779-4.097-5.907
					c-2.425-0.129-4.525,2.309-4.689,5.448C141.183,46.179,143.024,48.823,145.44,48.957z"/>
				<path fill="#FFFFFF" d="M143.793,43.177c0.564,0.029,1.056-0.44,1.078-1.054c0.031-0.617-0.396-1.141-0.968-1.164
					c-0.558-0.046-1.055,0.44-1.078,1.042C142.794,42.619,143.223,43.149,143.793,43.177z"/>
			</g>
		</g>
		<path fill="#91231D" d="M168.341,79.039c1.438-0.52,2.798-1.273,3.98-2.218c0.601-0.481,1.197-1.001,1.713-1.573
			c-1.39,0.591-3.492,0.73-4.968,0.442c-2.934-0.575-4.579-2.343-5.755-4.966c-0.216,0.218-0.477,0.545-0.816,1.004
			c-1.573,2.1-2.157,3.4-4.927,3.816c-0.997,0.148-2.01,0.1-3.022,0.166c0.023,0,0.911,0.698,1.042,0.793
			c0.53,0.365,0.983,0.838,1.519,1.207c0.605,0.418,1.143,0.832,1.817,1.148c1.375,0.641,2.888,0.904,4.37,0.969
			C165.001,79.906,166.724,79.621,168.341,79.039z"/>
		<path fill="#6B1B0F" d="M169.067,75.69c-2.934-0.575-4.579-2.343-5.755-4.966c-0.216,0.218-0.477,0.545-0.816,1.004
			c-1.573,2.1-2.157,3.4-4.927,3.816c-0.997,0.148-2.01,0.1-3.022,0.166c0.023,0,0.911,0.698,1.042,0.793
			c0.53,0.365,0.983,0.838,1.519,1.207c0.229,0.156,0.45,0.315,0.671,0.466c1.721-1.073,3.64-1.828,5.73-1.636
			c0.854,0.076,1.629,0.228,2.357,0.437c1.411,0.224,2.638,0.728,3.738,1.529c0.967-0.46,1.885-1.022,2.718-1.686
			c0.601-0.481,1.197-1.001,1.713-1.573C172.645,75.839,170.542,75.979,169.067,75.69z"/>
		<path fill="#B8683C" d="M181.421,66.92c-0.718,1.503-0.405,3.228-1.475,4.634c-1.301,1.712-2.998,2.694-5.184,3.153
			c-2.602,0.555-5.691,0.332-7.824-1.334c-1.817-1.422-2.055-3.499-2.14-5.629c-0.031-0.693,0.023-3.238-0.656-4.303
			c0.009-0.121,0.019-0.245,0.028-0.368c-0.061-0.045-0.123-0.077-0.195-0.089c-0.134-0.027-0.251-0.009-0.363,0.022
			c-0.112-0.031-0.231-0.05-0.364-0.022c-0.071,0.012-0.13,0.044-0.192,0.089c0.014,0.123,0.017,0.247,0.031,0.368
			c-0.683,1.064-0.63,3.609-0.66,4.303c-0.088,2.13-0.323,4.207-2.142,5.629c-2.13,1.666-5.218,1.889-7.819,1.334
			c-2.188-0.459-3.887-1.441-5.188-3.153c-1.067-1.406-0.758-3.131-1.475-4.634c-1.341,1.926-0.009,5.576,1.88,6.803
			c3.06,1.984,6.698,3.106,10.38,2.802c1.271-0.106,2.452-0.444,3.394-1.299c0.796-0.723,1.529-1.894,2.105-2.966
			c0,0,0.084-0.064,0.106,0c0.575,1.072,1.305,2.243,2.1,2.966c0.943,0.854,2.126,1.192,3.396,1.299
			c3.679,0.305,7.319-0.817,10.379-2.802C181.434,72.496,182.764,68.846,181.421,66.92z"/>
		<path fill="#7F3E1D" d="M181.744,67.553c-0.057,6.49-7.455,9.302-12.98,7.962c-4.013-0.972-5.538-5.678-4.666-9.47
			c-0.105,0.012-1.208-0.371-0.848-0.354c0.013,1.887,0.146,4.84-0.746,6.477c-1.535,2.818-3.859,3.82-6.91,3.629
			c-2.93-0.191-5.123-0.651-7.539-2.42c-1.252-0.912-2.334-2.506-2.73-3.701c0.25,1.622,1.196,3.293,2.359,4.047
			c3.06,1.984,6.698,3.106,10.38,2.802c1.271-0.106,2.452-0.444,3.394-1.299c0.796-0.723,1.529-1.894,2.105-2.966
			c0,0,0.084-0.064,0.106,0c0.575,1.072,1.305,2.243,2.1,2.966c0.943,0.854,2.126,1.192,3.396,1.299
			c3.679,0.305,7.319-0.817,10.379-2.802C181.242,72.619,182.486,69.559,181.744,67.553z"/>
		<path fill="#010101" d="M172.976,62.056c-2.887,7.774-20.387,4.772-17.992-3.908c1.172-4.233,7.15-4.084,10.735-3.899
			C170.182,54.476,174.946,56.75,172.976,62.056z"/>
		<path opacity="0.25" fill="#DD9254" d="M131.723,6.153c0.125,0.376,0.233,0.761,0.359,1.141c0.414,1.24,0.97,2.521,2.269,3.059
			c1.22,0.498,2.509-0.424,2.922-1.59c0.693-1.958-0.798-4.891-2.372-6.053c-2.639-1.948-6.028-2.023-9.095-1.423
			c-0.289,0.054-3.015,0.537-2.547,1.072c0.169,0.19,1.006-0.111,1.213-0.154c1.535-0.279,2.965,0.004,4.438,0.505
			C130.555,3.262,131.203,4.575,131.723,6.153z"/>
		<path opacity="0.25" fill="#DD9254" d="M194.896,6.153c-0.124,0.376-0.231,0.761-0.355,1.141c-0.419,1.24-0.97,2.521-2.271,3.059
			c-1.218,0.498-2.509-0.424-2.918-1.59c-0.693-1.958,0.797-4.891,2.371-6.053c2.636-1.948,6.027-2.023,9.091-1.423
			c0.288,0.054,3.017,0.537,2.551,1.072c-0.17,0.19-1.006-0.111-1.218-0.154c-1.53-0.279-2.965,0.004-4.437,0.505
			C196.067,3.262,195.419,4.575,194.896,6.153z"/>
		<path fill="#EAA86C" d="M166.903,80.823c-0.217-0.762-3.159-0.38-3.955-0.38c-0.896,0-4.318-1.004-4.288,0.38
			C158.72,83.154,167.326,82.298,166.903,80.823z"/>
		<path opacity="0.56" fill="#EAA86C" d="M140.919,35.431c1.597,1.072,6.627,0.517,7.616-0.14c1.35-0.895,1.77-2.659,0.264-3.599
			c-1.946-1.21-7.14,0.204-8.198,2.302C140.268,34.646,140.441,35.109,140.919,35.431z"/>
		<path opacity="0.56" fill="#EAA86C" d="M185.448,35.431c-1.598,1.072-6.628,0.517-7.614-0.14c-1.35-0.895-1.768-2.659-0.266-3.599
			c1.947-1.21,7.14,0.204,8.203,2.302C186.099,34.646,185.925,35.109,185.448,35.431z"/>
	</g>
	<path opacity="0.18" fill="#DD9254" d="M31.895,108.264c7.921,3.898,19.309,1.043,25.03-6.475
		c6.125-8.043,9.342-17.311,16.614-24.92c7.469-7.811,14.748-15.867,5.767-25.548C65.585,36.533,39.119,49.087,29.95,63.221
		c-6.749,10.398-10.185,26.363-4.91,37.942C26.562,104.502,28.998,106.839,31.895,108.264z"/>
	<path fill="#A35531" d="M141.781,191.842c0.683,1.203,1.105,2.646,2.272,3.447c0.313-2.131-0.678-4.352-2.43-5.583
		c-0.741-0.521-1.359-1.214-2.144-1.685c-0.299-0.178-2.444-0.641-2.455-0.654c0.944,1.584,3.209,2.273,4.364,3.852
		C141.532,191.41,141.66,191.621,141.781,191.842z"/>
	<path fill="#A35531" d="M149.556,191.381c0.68,1.369,1.105,3.002,2.27,3.908c0.315-2.412-0.678-4.928-2.429-6.32
		c-0.743-0.593-1.36-1.379-2.142-1.91c-0.301-0.199-2.447-0.725-2.457-0.742c0.94,1.795,3.211,2.578,4.363,4.362
		C149.306,190.898,149.435,191.137,149.556,191.381z"/>
	<path fill="#323233" d="M143.73,196.861c-0.032,0.052-0.067,0.104-0.109,0.15c-1.76-0.793-3.494-0.815-4.546-2.762
		c-0.813-1.52-0.157-2.204,1.533-1.515C141.691,193.18,144.484,195.516,143.73,196.861z"/>
	<path fill="#323233" d="M148.981,196.913c-0.046,0.04-0.099,0.077-0.153,0.106c-1.213-1.352-2.722-1.987-2.848-4.135
		c-0.097-1.675,0.754-2.068,1.946-0.839C148.692,192.838,150.183,195.963,148.981,196.913z"/>
	<path fill="#323233" d="M154.953,195.797c-0.046,0.041-0.097,0.074-0.149,0.104c-1.216-1.35-2.723-1.981-2.849-4.135
		c-0.102-1.672,0.75-2.066,1.943-0.833C154.664,191.721,156.154,194.844,154.953,195.797z"/>
	<path fill="#682916" d="M163.162,172.196c-0.944,0.816-1.838,1.481-3.048,1.884c-0.493,0.162-2.006,0.67-1.192-0.166
		c0.894-0.918,2.14-1.416,3.139-2.208c1.189-0.94,1.933-2.038,2.98-3.095C165.222,169.834,164.027,171.443,163.162,172.196z"/>
	<path fill="#682916" d="M168.615,175.511c-1.076,0.815-1.971,1.327-3.275,1.651c-0.526,0.129-2.678,0.624-1.548,0.057
		c1.65-0.834,2.596-1.589,3.726-2.368c1.348-0.928,2.242-2.075,3.447-3.151C171.022,173.084,169.601,174.761,168.615,175.511z"/>
	<path opacity="0.75" fill="#833820" d="M19.326,190.152c0.678,1.209,1.104,2.65,2.271,3.45c0.313-2.134-0.678-4.353-2.432-5.586
		c-0.741-0.519-1.357-1.211-2.142-1.679c-0.303-0.178-2.448-0.643-2.457-0.658c0.941,1.582,3.21,2.274,4.368,3.852
		C19.074,189.725,19.203,189.935,19.326,190.152z"/>
	<path opacity="0.75" fill="#833820" d="M27.099,189.696c0.682,1.368,1.105,3.003,2.269,3.906c0.315-2.413-0.674-4.928-2.426-6.319
		c-0.746-0.592-1.361-1.379-2.146-1.907c-0.3-0.204-2.447-0.728-2.454-0.746c0.942,1.79,3.209,2.578,4.359,4.362
		C26.85,189.214,26.976,189.452,27.099,189.696z"/>
	<path fill="#323233" d="M21.272,195.173c-0.03,0.054-0.066,0.105-0.104,0.153c-1.762-0.791-3.499-0.816-4.547-2.766
		c-0.817-1.515-0.16-2.201,1.526-1.51C19.237,191.496,22.026,193.834,21.272,195.173z"/>
	<path fill="#323233" d="M26.523,195.227c-0.047,0.039-0.097,0.072-0.149,0.102c-1.213-1.35-2.723-1.979-2.85-4.137
		c-0.099-1.668,0.751-2.063,1.946-0.832C26.234,191.152,27.725,194.271,26.523,195.227z"/>
	<path fill="#323233" d="M32.497,194.107c-0.045,0.043-0.099,0.072-0.155,0.102c-1.213-1.346-2.719-1.975-2.844-4.128
		c-0.102-1.674,0.751-2.069,1.94-0.84C32.208,190.033,33.698,193.158,32.497,194.107z"/>
	<path fill="#783019" d="M72.35,180.352c1.044,0.916,1.929,2.135,3.29,2.502c-0.413-2.113-2.083-3.877-4.146-4.457
		c-0.878-0.244-1.686-0.695-2.583-0.874c-0.342-0.073-2.52,0.206-2.534,0.196c1.417,1.179,3.784,1.082,5.4,2.182
		C71.974,180.041,72.166,180.189,72.35,180.352z"/>
	<path fill="#783019" d="M80.162,178.623c1.096,1.067,2.043,2.465,3.44,2.93c-0.504-2.379-2.279-4.422-4.395-5.152
		c-0.896-0.311-1.739-0.846-2.649-1.088c-0.354-0.09-2.556,0.129-2.566,0.115c1.485,1.381,3.884,1.367,5.564,2.668
		C79.764,178.251,79.968,178.436,80.162,178.623z"/>
	<path fill="#323233" d="M74.771,184.943c-0.029,0.055-0.065,0.107-0.104,0.158c-1.772-0.775-3.509-0.766-4.587-2.704
		c-0.835-1.507-0.188-2.203,1.51-1.532C72.685,181.299,75.509,183.594,74.771,184.943z"/>
	<path fill="#323233" d="M82.658,184.032c-0.03,0.056-0.064,0.103-0.106,0.151c-1.596-0.875-3.226-0.965-4.059-2.957
		c-0.652-1.543,0.021-2.198,1.554-1.434C81.034,180.283,83.477,182.735,82.658,184.032z"/>
	<path fill="#323233" d="M87.377,181.248c-0.028,0.044-0.063,0.086-0.1,0.125c-1.609-0.822-3.226-0.969-4.13-2.742
		c-0.699-1.379-0.063-1.926,1.482-1.198C85.622,177.902,88.132,180.145,87.377,181.248z"/>
</g>
</svg>
