<svg version="1.1" id="Layer_1" xmlns="http://www.w3.org/2000/svg" xmlns:xlink="http://www.w3.org/1999/xlink" x="0px"
     y="0px"
     width="245.169px" height="358.395px" viewBox="0 0 245.169 358.395" enable-background="new 0 0 245.169 358.395"
     xml:space="preserve">
	<path fill="#9B4F24" d="M173.306,269.219c19.985-0.182,11.334,68.357-26.893,73.781
		C94.694,350.338,156.061,264.602,173.306,269.219z"/>
    <path fill="#8D431F" d="M146.302,343c-13.369,1.898-19.156-2.439-20.127-9.813c13.421,4.338,27.312-0.549,36.782-11.482
		c0.674-0.777,1.315-1.57,1.939-2.371c3.511-3.545,6.483-7.617,8.677-12.055c5.791-11.705,6.178-23.168,5.205-35.771
		C190.902,283.44,180.3,338.178,146.302,343z"/>
    <path fill="#783217" d="M134.13,342.573c-27.559-8.525,23.658-77.506,39.176-73.354c5.903-0.055,9.304,5.887,10.188,14.428
		c-12.719,8.82-26.707,15.984-38.986,25.402c-8.076,6.195-13.141,14.225-12.446,24.725
		C132.267,336.895,132.993,339.854,134.13,342.573z"/>
    <path fill="#9B4F24" d="M147.314,126.448c12.856,3.674,83.384-3.146,88.151,23.873C245.913,209.565,86.712,165.012,147.314,126.448
		z"/>
    <path fill="#8D431F" d="M147.315,126.448c1.73,0.496,4.528,0.797,8.047,1.018c0.016,14.578,8.965,27.934,21.182,35.959
		c4.098,3.287,8.578,5.945,12.996,7.684c12.777,5.031,30.287,5.057,42.037-2.475C207.593,197.854,94.738,159.907,147.315,126.448z"
    />
    <path fill="#9B4F24" d="M109.652,29.204c-2.483-15.319,14.738-38.041,34.938-25.635c21.578,13.254,12.121,34.537,1.691,40.803
		C133.242,52.204,115.491,54.749,109.652,29.204z"/>
    <path fill="#A35529" d="M119.874,29.125c-1.375-0.834-5.508-2.785-6.977-3.333c0.797-4.467,2.617-8.724,5.229-12.485
		c2.715-3.911,8.168-9.424,13.344-9.735c1.686-0.102,3.717-0.218,6.973,0.091c2.131,0.801,4.73,1.623,6.703,2.842
		c0.99,0.911,1.98,1.822,2.932,2.779C136.366,4.002,121.501,13.196,119.874,29.125z"/>
    <path fill="#8D451F" d="M143.056,2.704c0.508,0.271,1.021,0.55,1.535,0.865c21.578,13.254,12.121,34.537,1.691,40.803
		c-9.553,5.736-21.629,8.622-29.701-0.279c0.242-0.021,0.486-0.029,0.727-0.057c4.441,1.757,10.075,1.294,13.651-1.68
		c9.974,2.427,20.928-3.061,23.077-15.459C155.767,16.915,150.632,8.348,143.056,2.704z"/>
    <path fill="#EB9F53" d="M127.596,35.16c0-0.456,0-0.456,0-0.91l-0.45,1.813c-4.779-19.189,13.42-34.526,24.95-17.24
		C161.342,32.681,138.032,55.573,127.596,35.16z"/>
    <path fill="#DA8A48" d="M143.174,41.28c0.246,0.225,0.476,0.465,0.737,0.671c0.004,0.003,0.008,0.007,0.014,0.011
		c-5.507,2.664-12.014,1.635-16.329-6.802c0-0.456,0-0.456,0-0.91l-0.45,1.813c-3.871-15.541,7.33-28.553,17.856-23.753
		c-1.394,0.499-2.76,1.308-4.122,2.505c-2.247,1.976-3.847,5.814-4.244,8.682c-0.266,1.914-0.219,3.767,0.063,5.555
		C136.848,33.77,138.824,38.238,143.174,41.28z"/>
    <path fill="#A75B29" d="M149.154,300.909c-75.298,34.893-143.245-5.508-148.757-88.15C-3.273,153.993,18.351,57.94,70.185,19.931
		c6.469-3.449,13.396-4.847,20.211-4.884c0.957-2.385,1.352-5.175,0.836-7.977c3.727,1.561,5.128,4.666,4.038,8.087
		c2.642-3.107,5.132-5.441,7.772-8.548c1.401,3.107,2.02,6.061,0.625,9.016c1.088-1.398,3.26-2.18,4.816-3.885
		c0.561,2.298-0.021,4.205-1.208,5.798c5.347,1.573,10.251,3.734,14.333,6.067c34.889,22.035,25.706,62.438,27.546,95.494
		C152.824,177.868,233.628,262.344,149.154,300.909z"/>
    <path fill="#AB5C30" d="M124.95,12.495c-1.727,1.732-3.34,3.416-5.188,1.832c-0.953-0.817,0.034-3.83,0.981-5.381
		c1.517-3.011,4.053-4.285,6.935-5.727c1.729-1.152,14.273-1.672,10.816,3.226c-0.864,1.152-5.477,1.152-7.203,1.729
		C128.407,9.038,127.257,10.481,124.95,12.495z"/>
    <path fill="#BB6837" d="M88.564,57.073c-1.151-14.41,6.938-22.386,17.368-25.614c17.865-5.188,39.766,11.294,31.698,30.892
		C126.682,87.709,90.292,85.313,88.564,57.073z"/>
    <path fill="#9B4F24" d="M46.231,262.51c7.381,12.26,17.626,21.523,29.379,27.297c4.016,2.465,8.37,4.316,12.826,5.174
		c19.176,7.068,42,3.971,59.752-7.16c13.942-8.744,34.209-22.953,37.126-58.381c0,0,1.735,7.217,2.132,15.596
		c1.029,22.322-8.013,42.049-38.292,55.873c-75.298,34.893-143.245-5.508-148.757-88.15C-2.594,164.864,11.221,92.211,44.494,46.392
		c-4.286,11.049-7.521,22.286-9.946,32.632c-6.923,29.551-10.539,60.627-9.178,91.006C26.736,200.434,30.232,235.928,46.231,262.51z
		"/>
    <path fill="#8D431F" d="M28.582,256.54c4.399,8.297,9.962,18.533,17.438,25.875c2.642,3.271,5.51,6.248,8.57,8.801
		c16.106,13.441,38.127,16.811,58.414,14.205c20.857-2.676,39.793-11.375,54.608-26.463c8.683-8.846,16.546-19.797,19.892-31.697
		c0.334,21.406-9.08,40.285-38.351,53.648c-75.297,34.893-143.245-5.508-148.753-88.15C-2.978,158.68,15.083,73.075,58.373,30.133
		c-0.216,0.518-0.404,1.066-0.542,1.678c-0.182,0.8-0.421,1.576-0.667,2.352c-0.245,0.561-0.495,1.116-0.767,1.673
		c-0.639,1.093-1.229,2.223-1.813,3.363c-0.229,0.35-0.456,0.704-0.684,1.056c-0.541,0.466-1.068,0.973-1.541,1.595
		C25.337,77.5,16.776,126.475,14.853,170.2c-0.646,14.639-0.122,30.447,2.574,45.777C18.618,230.053,21.857,243.854,28.582,256.54z"
    />
    <path fill="#A75B29"
          d="M68.122,30.843c-6.033,7.343-14.075,17.605-18.098,26.79C-30.515,64.508,37.095-46.757,68.122,30.843z"/>
    <path fill="#BB6837" d="M34.622,10.942c-6.49,1.012-13.323,4.375-18.662,9.239C25.761,1.347,52.004-9.768,68.237,30.838
		c-0.162,0.197-0.34,0.418-0.506,0.62C61.351,19.186,49.173,8.678,34.622,10.942z"/>
    <path fill="#C67146" d="M20.94,12.908C30.215,2.155,45.358-2.238,58.524,13.5c-3.107-2.883-6.814-5.066-11.133-6.061
		C38.329,5.354,28.132,7.424,20.94,12.908z"/>
    <path fill="#9B4F24" d="M22.869,47.571c7.619,8.052,18.634,7.982,28.808,6.71c-0.6,1.128-1.17,2.25-1.652,3.353
		c-35.035,2.99-42.016-16.367-36.188-32.814c-0.572,6.15,0.709,12.564,3.917,17.438C19.202,44.458,20.937,46.205,22.869,47.571z"/>
    <path fill="#DA8A48" d="M93.734,278.778c-30.679-19.516-41.967-66.141-26.722-99.383c11.635-23.568,42.716-36.277,69.095-25.195
		c33.46,7.514,56.862,79.006,38.67,106.871C155.398,290.754,115.403,292.563,93.734,278.778z"/>
    <path fill="#EB9F53" d="M97.503,273.497c-28.623-18.207-39.15-61.701-24.93-92.715c10.854-21.982,39.848-33.84,64.455-23.5
		c31.215,7.008,53.047,73.699,36.074,99.695C155.026,284.67,117.716,286.356,97.503,273.497z"/>
    <path fill="#9B4F24" d="M10.665,211.606c-6.735-34.609,11.299-94.902,31.901-78.58c8.278,4.545,4.442,31.027,8.463,51.133
		c3.494,17.467,28.78,36.59,19.04,58.561C54.354,278.17,17.976,249.176,10.665,211.606z"/>
    <path fill="#8D431F" d="M36.541,238.243c2.079,1.234,4.128,2.039,6.144,2.492c8.512,3.195,18.971,0.66,22.813-7.113
		c2.348-2.377,4.32-5.203,5.871-8.256c1.402,5.588,1.357,11.363-1.297,17.354c-15.715,35.451-52.094,6.457-59.404-31.113
		c-5.639-28.971,6.08-75.932,22.134-80.891C27,140.19,23.849,151.073,22.433,162.29c-3.914,16.865-4.627,35.24-0.171,51.629
		C24.624,222.596,28.31,233.354,36.541,238.243z"/>
    <path fill="#783217" d="M55.907,257.918c-17.283,5.688-39.508-17.84-45.045-46.311c-5.33-27.375,4.842-70.811,19.52-79.697
		c-0.021,0.066-0.047,0.139-0.068,0.205c-17.43,21.385-19.023,57.865-12.887,83.861C22.289,236.559,35.159,255.67,55.907,257.918z"
    />
    <path fill="#EB9F53" d="M116.845,107.36c-27.066-9.219-27.066-43.606,3.515-48.436c14.692-1.838,32.338-6.121,36.728,11.02
		C165.716,103.592,129.153,111.549,116.845,107.36z"/>
    <path fill="#F1B975" d="M126.362,66.399c-6.855-2.029-10.67-6.431-10.67-6.431c1.47-0.429,3.019-0.784,4.668-1.044
		c9.896-1.24,21.127-3.576,28.75,0.262c0.602,3.279,0.174,6.5-2.613,8.385C141.124,69.006,134.397,68.776,126.362,66.399z"/>
    <path fill="#DA8A48" d="M153.829,94.682c-8.93,12.736-28.589,15.535-36.982,12.678c-21.945-7.473-26.092-31.492-10.576-42.89
		c-2.814,6.907-2.883,15.235,0.547,21.847C115.151,102.387,139.413,104.282,153.829,94.682z"/>
    <path fill="#010101" d="M137.837,75.776c-4.973-3.059-8.252-7.373-2.525-11.345c3.533-2.089,8.746-3.317,12.826-3.01
		c9.494,1.122,3.697,14.942-1.881,17.933l0.143-0.283C143.934,79.409,140.008,77.409,137.837,75.776z"/>
    <path fill="#010101" d="M151.394,89.364c1.808-0.984,2.617-3.205,2.814-5.133c0.063-0.619,1.488-0.279,1.421,0.383
		c-0.261,2.537-1.809,5.738-4.665,6.107c-2.172,0.279-3.553-1.027-4.385-2.73c-0.889,2.652-2.722,4.691-6.109,4.984
		c-3.832,0.336-8.875-2.131-8.897-6.494c-0.001-0.258,1.418-0.049,1.421,0.381c0.008,1.637,0.85,2.914,2.007,4.014
		c2.34,2.221,5.467,1.758,7.806-0.023c1.737-1.328,2.618-3.146,2.991-5.137c-0.001-0.008-0.006-0.018-0.006-0.025
		c-0.024-0.117,0.009-0.197,0.063-0.266c0.446-2.775-0.061-5.857-0.654-8.416c-0.08-0.348,1.316-0.131,1.402,0.238
		c0.545,2.346,0.908,5.49,0.518,8.354c0.052,0.063,0.09,0.131,0.105,0.207C147.659,87.848,148.863,90.737,151.394,89.364z"/>
    <circle fill="#010101" cx="92.777" cy="59.764" r="5.009"/>
    <path fill="#010101" d="M83.374,53.93c-2.478-0.68,3.779-12.094,9.063-7.156c1.534,3-3.499,2.499-5.438,4.205
		C85.06,52.684,85.097,54.401,83.374,53.93z"/>
    <path fill="#010101" d="M134.063,52.432c-1.144-1.992-0.453-4.536,1.539-5.68c1.996-1.141,4.537-0.449,5.68,1.541
		c1.141,1.997,0.453,4.537-1.543,5.682C137.747,55.116,135.203,54.426,134.063,52.432z"/>
    <path fill="#010101" d="M136.243,41.652c-2.055-0.608-5.678,1.522-5.566-1.275c2.264-5.563,10.959,0.865,9.326,2.239
		C138.87,43.573,138.298,42.263,136.243,41.652z"/>

    <ellipse transform="matrix(-0.9991 0.0435 -0.0435 -0.9991 289.3896 428.4387)" fill="#9B4F24" cx="140.038"
             cy="217.365" rx="2.27" ry="2.859"/>
    <path fill="#EB9F53" d="M22.279,31.471c4.882-23.485,30.925-15.754,35.011,2.918c2.641,9.951-11.951,18.088-15.754,18.088
		C29.866,53.061,19.618,44.278,22.279,31.471z"/>
    <path fill="#DA8A48" d="M32.999,20.557c-1.598-0.303-3.148-0.449-4.656-0.457c9.482-8.037,25.774-0.154,28.934,14.289
		c1.7,6.408-3.744,12.062-8.854,15.275c0.929-3.971,0.914-8.201,0.052-12.138C46.804,29.893,41.121,22.098,32.999,20.557z"/>
    <path fill="#9B4F24" d="M39.964,346.842c-27.656-16.758-30.734-58.51-17.506-74.234c3.672-1.838,11.998,6.283,17.506,9.957
		c5.511,16.527,36.729,29.383,38.565,47.748C78.529,352.348,56.134,356.639,39.964,346.842z"/>
    <path fill="#A75B29" d="M64.298,336.2c-9.611-2.438-17.153-8.666-21.896-16.945c0.213-0.746,0.524-1.494,0.947-2.24
		c2.101-1.082,4.601-1.748,7.39-1.816c8.987-0.225,17.29,2.137,24.844,6.631c1.586,2.711,2.652,5.52,2.946,8.475
		c0,1.641-0.137,3.174-0.374,4.619C73.976,336.315,68.968,336.592,64.298,336.2z"/>
    <path fill="#8D431F" d="M70.171,348.053c-7.996,5.477-20.265,4.811-30.207-1.211c-27.656-16.758-30.734-58.51-17.506-74.234
		c1.703-0.85,4.406,0.445,7.367,2.438c-5.438,16.924,0.703,38.816,9.339,52.793C44.226,336.036,58.433,347.504,70.171,348.053z"/>
    <path fill="#FFFFFF" d="M138.442,49.44c0-0.512,0.412-0.926,0.925-0.926c0.508,0,0.925,0.414,0.925,0.926
		c0,0.508-0.417,0.924-0.925,0.924C138.854,50.364,138.442,49.948,138.442,49.44z"/>
    <circle fill="#FFFFFF" cx="94.172" cy="58.503" r="1.331"/>
    <path fill="#4B200F" d="M76.618,335.434c5.744-0.604,8.21,6.43,8.21,10.807c-0.946-0.756-5.3-3.697-9.269-4.494
		C71.109,340.856,70.794,336.047,76.618,335.434z"/>
    <path fill="#A58576" d="M82.484,340.387c-1.136,0.229-2.383-1.02-3.516-1.361c-0.907-0.225-3.405-0.68-2.044-2.27
		c1.589-1.926,4.767,2.045,5.445,3.18v-0.115C82.37,340.047,82.599,340.047,82.484,340.387z"/>
    <path fill="#4B200F" d="M63.651,348.93c-3.938-2.248-2.72-6.912,2.998-5.658c5.643,1.24,5.764,8.691,4.383,12.848
		C70.374,355.098,67.169,350.938,63.651,348.93z"/>
    <path fill="#A58576" d="M70.654,349.823c-1.149-0.141-1.938-1.719-2.907-2.4c-0.789-0.498-3.014-1.717-1.223-2.793
		c2.115-1.33,3.877,3.438,4.164,4.729l0.036-0.107C70.654,349.465,70.868,349.538,70.654,349.823z"/>
    <path fill="#4B200F" d="M52.354,344.827c5.024,2.859,2.929,10.01,0.38,13.568c-0.326-1.166-2.152-6.092-4.916-9.049
		C44.719,346.028,47.267,341.934,52.354,344.827z"/>
    <path fill="#A58576" d="M54.239,352.276c-1.057-0.477-1.343-2.219-2.065-3.16c-0.606-0.709-2.37-2.531-0.339-3.029
		c2.415-0.643,2.683,4.434,2.574,5.752l0.068-0.092C54.345,351.93,54.529,352.063,54.239,352.276z"/>
    <path fill="#4B200F" d="M119.484,339.022c0-4.016,2.263-10.469,7.537-9.916c5.34,0.563,5.054,4.979,0.97,5.797
		C124.349,335.631,120.353,338.327,119.484,339.022z"/>
    <path fill="#A58576" d="M121.637,333.653c-0.104-0.314,0.103-0.314,0.103-0.521v0.104c0.627-1.039,3.539-4.682,4.997-2.914
		c1.249,1.457-1.041,1.875-1.873,2.082C123.822,332.715,122.678,333.862,121.637,333.653z"/>
    <path fill="#4B200F" d="M130.941,349.28c-1.264-3.816-1.153-10.652,4.027-11.789c5.246-1.152,6.363,3.129,2.748,5.193
		C134.491,344.524,131.55,348.346,130.941,349.28z"/>
    <path fill="#A58576" d="M131.26,343.075c0.265-1.184,1.88-5.561,3.821-4.34c1.646,0.986-0.396,2.107-1.121,2.564
		c-0.889,0.625-1.615,2.074-2.668,2.203c-0.199-0.264,0-0.328-0.066-0.527L131.26,343.075z"/>
    <path fill="#4B200F" d="M147.354,339.252c3.974-3.613,7.076-0.463,4.975,3.131c-1.876,3.205-2.52,7.984-2.577,9.096
		C146.753,348.805,143.437,342.825,147.354,339.252z"/>
    <path fill="#A58576" d="M148.075,340.276c1.916,0.033,0.706,2.023,0.309,2.781c-0.461,0.986-0.365,2.604-1.212,3.242
		c-0.302-0.127-0.165-0.285-0.321-0.424l0.078,0.068C146.568,344.784,145.785,340.188,148.075,340.276z"/>
    <path fill="#4B200F" d="M68.778,233.528c-4.609-3.609-1.785-7.518,2.455-5.912c3.786,1.434,9.038,1.256,10.242,1.117
		C79.151,232.442,73.326,237.09,68.778,233.528z"/>
    <path fill="#A58576"
          d="M69.136,229.479c0.482-2.393,3.75,1.486,9.826,0.1C74.519,232.159,68.737,232.411,69.136,229.479z"/>
    <path fill="#4B200F" d="M229.255,139.417c4.021-4.146,10.424-0.324,13.229,3.029c-1.211,0.027-6.438,0.563-9.996,2.498
		C228.507,147.108,225.179,143.618,229.255,139.417z"/>
    <path fill="#A58576"
          d="M230.155,143.383c-0.791-2.854,4.973-3.385,9.723-1.434C233.671,141.399,230.96,145.688,230.155,143.383z"
    />
    <path fill="#4B200F" d="M233.065,152.407c4.906-3.049,10.193,2.209,12.104,6.145c-1.182-0.27-6.383-1.016-10.303,0
		C230.476,159.688,228.095,155.497,233.065,152.407z"/>
    <path fill="#A58576"
          d="M232.979,156.473c-0.078-2.961,5.645-2.082,9.779,0.965C236.872,155.401,233.2,158.905,232.979,156.473z"/>
    <path fill="#4B200F" d="M231.085,165.854c5.736-0.693,8.305,6.307,8.371,10.682c-0.957-0.744-5.354-3.619-9.338-4.355
		C225.659,171.356,225.272,166.551,231.085,165.854z"/>
    <path fill="#A58576"
          d="M229.29,169.499c1.18-2.715,5.992,0.5,8.455,5.008C233.269,170.172,228.462,171.797,229.29,169.499z"/>
    <path fill="#4B200F" d="M63.934,248.506c-3.071-4.98,0.927-7.672,4.351-4.695c3.057,2.656,8.045,4.309,9.223,4.594
		C74.039,251.079,66.968,253.424,63.934,248.506z"/>
    <path fill="#A58576"
          d="M65.669,244.833c1.281-2.08,3.006,2.695,9.186,3.496C69.793,249.209,64.28,247.446,65.669,244.833z"/>
    <path fill="#4B200F" d="M54.415,254.551c3.428,2.152,8.609,3.02,9.818,3.127c-3.016,3.17-9.645,6.572-13.398,2.18
		C47.035,255.409,50.577,252.135,54.415,254.551z"/>
    <path fill="#A58576"
          d="M51.987,255.956c0.947-2.246,3.385,2.205,9.613,2.053C56.733,259.653,51.018,258.756,51.987,255.956z"/>
    <path fill="#4B200F" d="M215.499,168.135c-13.547,4.295-15.86-23.133,0-24.123l-0.989,0.332
		C227.067,139.385,227.067,164.5,215.499,168.135z"/>
    <path fill="#2F160D" d="M212.622,166.661c-2.371-0.25-3.324,0-5.316-2.482c-0.131-0.186-0.256-0.371-0.389-0.553
		c-0.086-0.119-0.178-0.223-0.264-0.334c-1.67-4.65,0.022-10.285,2.029-14.93c-0.686,2.146-1.033,4.373-0.861,6.584
		C208.146,159.174,209.767,163.95,212.622,166.661z"/>
    <path fill="#602F1D" d="M212.524,147.319c0.592-1.357,2.316-1.652,3.639-1.324c11.564-1.982,4.217,19.811-1.213,19.811
		c-2.385,0,3.295-10.406,0-14.904C213.955,149.54,211.374,149.971,212.524,147.319z"/>
    <path fill="#FFFFFF"
          d="M147.3,63.487c1.766-0.251,3.279,1.011,3.027,2.779C141.645,68.084,140.103,64.09,147.3,63.487z"/>
</svg>
