<?xml version="1.0" encoding="utf-8"?>
<!-- Generator: Adobe Illustrator 15.0.0, SVG Export Plug-In . SVG Version: 6.00 Build 0)  -->
<!DOCTYPE svg PUBLIC "-//W3C//DTD SVG 1.1//EN" "http://www.w3.org/Graphics/SVG/1.1/DTD/svg11.dtd">
<svg version="1.1" id="Layer_1" xmlns="http://www.w3.org/2000/svg" xmlns:xlink="http://www.w3.org/1999/xlink" x="0px" y="0px"
	 width="98.049px" height="143.997px" viewBox="0 0 98.049 143.997" enable-background="new 0 0 98.049 143.997"
	 xml:space="preserve">
<g>
	<g>
		<path fill="#FFCB58" d="M82.325,24.5c-1.98-3.857-6.631-4.88-7.108-8.079c-1.078-7.219-6.974-17.825-8.188-16.267
			c-2.513,3.232,4.202,15.367,2.369,16.443c-1.311,0.773-2.812-6.191-6.463-5.887c-2.585,0.216,4.31,8.689,1.724,8.473
			c-2.584-0.215-4.094-8.473-6.463-8.042c-2.37,0.43,3.879,12.496,1.293,14.65L82.325,24.5z"/>
		<g>
			<path fill="#FFD95B" d="M69.397,16.598c-1.311,0.773-2.812-6.191-6.463-5.887c-2.585,0.216,4.31,8.689,1.724,8.473
				c-2.584-0.215-4.094-8.473-6.463-8.042c-2.37,0.43,3.879,12.496,1.293,14.65l14.455-0.817c-0.225-0.613-0.459-1.228-0.715-1.841
				c-1.03-2.471-2.247-4.762-3.595-6.841C69.582,16.43,69.505,16.534,69.397,16.598z"/>
		</g>
		<path fill="#F58437" d="M42.395,119.295c0,0,4.169,18.956,3.161,23.552h2.154c0,0-2.728-18.958-0.43-23.268L42.395,119.295z"/>
		<path fill="#F58437" d="M38.518,143.854c2.442-1.008,8.043-4.885,8.043-4.885l8.475,5.027L38.518,143.854z"/>
		<path fill="#F58437" d="M59.918,119.295c0,0,4.165,18.956,3.159,23.552h2.154c0,0-2.728-18.958-0.43-23.268L59.918,119.295z"/>
		<path fill="#F58437" d="M56.041,143.854c2.441-1.008,8.043-4.885,8.043-4.885l8.474,5.027L56.041,143.854z"/>
		<path fill="#FFCB58" d="M2.755,80.801c5.456,19.313,25.712,46.823,57.02,40.79c31.31-6.03,41.652-54.579,37.343-72.388
			c-4.309-17.809-12.64-33.322-33.608-27.576c-20.968,5.744-17.878,17.422-16.374,32.46c0.862,8.616-12.785,17.631-20.682,11.489
			c-5.171-4.021-14.937-12.064-5.745,4.309c-2.298,1.005-8.771-12.079-10.915-11.202c-3.16,1.292-2.299,7.755,3.302,15.8
			c-2.008,1.435-8.698-14.548-11.633-13.646C-0.404,61.411-0.979,67.588,2.755,80.801z"/>
		<g>
			<path fill="#FFD95B" d="M40.719,86.326c21.493,0,38.917-18.021,38.917-40.25c0-9.742-2.202-18.912-7.771-25.875
				c-2.222,0.097-5.764,0.716-8.355,1.426c-20.968,5.744-17.878,17.422-16.374,32.46c0.862,8.616-12.785,17.631-20.682,11.489
				c-5.171-4.021-14.937-12.064-5.745,4.309c-2.298,1.005-8.771-12.079-10.915-11.202c-3.132,1.28-2.308,7.64,3.157,15.583
				C20.012,81.706,29.842,86.326,40.719,86.326z"/>
		</g>
		<path fill="#EEB540" d="M97.118,49.203c-2.173-8.981-5.372-17.375-10.696-22.756c15.381,22.379,8.69,75.999-31.119,86.879
			c-20.138,5.504-39.536-11.217-49.507-24.312c8.128,17.95,26.921,37.79,53.979,32.576C91.084,115.561,101.427,67.012,97.118,49.203
			z"/>
		<path fill="#B7652B" d="M84.768,61.268c-5.027,0.861-9.051-1.866-9.051-1.866s-1.866-4.311-0.86-5.314
			C75.863,53.081,84.768,61.268,84.768,61.268z"/>
		<path fill="#8F3E1F" d="M75.001,54.661c-0.29,0.433,4.983,4.746,9.767,6.606c1.006-0.287-2.154-8.044-2.154-8.044L75.001,54.661z"
			/>
		<path fill="#F49149" d="M74.282,54.446c0,0,3.017-6.679,6.176-7.182c3.363-0.537,10.845,4.237,11.563,5.673
			C91.588,54.302,80.96,56.17,74.282,54.446z"/>
		<path fill="#674B37" d="M60.779,37.138c5.604-1.58,6.752,18.098,3.305,19.104C58.363,57.908,56.551,38.332,60.779,37.138z"/>
		<path fill="#674B37" d="M86.194,32.71c4.602-1.505,6.581,13.143,3.754,14.096C85.251,48.386,82.723,33.848,86.194,32.71z"/>
		<path fill="#F6B838" d="M36.793,74.482c-4.739,1.578-18.813,4.02-18.527,11.059c0.201,4.912,7.889,4.295,12.514,3.476
			c-4.378,1.175-10.945,3.845-7.056,8.732c5.601,7.039,21.257-4.597,21.257-4.597s-9.766,12.64-0.718,16.518
			c9.049,3.878,23.889-8.312,26.14-18.528C73.399,77.559,57.487,67.585,36.793,74.482z"/>
		
			<ellipse transform="matrix(0.9804 -0.197 0.197 0.9804 -9.3122 15.7572)" fill="#8F3E1F" cx="74.55" cy="54.688" rx="0.538" ry="0.619"/>
		<g>
			<path fill="#D59729" d="M30.075,89.134c1.547-0.835,3.39-1.447,4.955-1.867c-4.625,0.819-12.313,1.437-12.514-3.476
				c-0.12-2.962,2.306-5.107,5.505-6.72c-5.008,1.72-9.925,4.28-9.755,8.47C18.458,90.213,25.415,89.883,30.075,89.134z"/>
			<path fill="#D59729" d="M48.513,107.92c-7.711-3.927-3.67-11.719-3.586-14.719c-3.75,3.438-7.981,13.668-0.938,16.688
				c3.454,1.48,8.023,0.396,12.143-1.802C53.421,108.854,50.785,108.894,48.513,107.92z"/>
			<path fill="#D59729" d="M27.974,95.999c-2.404-3.021,0.229-5.676,2.828-7.173c-5.125,0.938-11.035,4.604-7.438,9.125
				c3.103,3.899,10.375,2.375,14.55-0.544C34.089,98.639,30.222,98.824,27.974,95.999z"/>
		</g>
		<path fill="#FFD14D" d="M30.552,80.451c0.335,5.114,8.375,4,11.875,2.875c0,0-10.05,5.363-7,8.875
			c4.125,4.75,16.25-3.625,16.25-3.625s-5.125,10.875,1,14.5s12.757-4.577,14.5-9.5c2.125-6,0.041-14.237-5.125-17.75
			C55.802,71.576,30.052,72.826,30.552,80.451z"/>
	</g>
	<defs>
		<filter id="Adobe_OpacityMaskFilter" filterUnits="userSpaceOnUse" x="0" y="0" width="98.049" height="143.997">
			<feFlood  style="flood-color:white;flood-opacity:1" result="back"/>
			<feBlend  in="SourceGraphic" in2="back" mode="normal"/>
		</filter>
	</defs>
	<mask maskUnits="userSpaceOnUse" x="0" y="0" width="98.049" height="143.997" id="SVGID_1_">
		<g filter="url(#Adobe_OpacityMaskFilter)">
			<defs>
				<filter id="Adobe_OpacityMaskFilter_1_" filterUnits="userSpaceOnUse" x="0" y="0" width="98.049" height="143.997">
					<feFlood  style="flood-color:white;flood-opacity:1" result="back"/>
					<feBlend  in="SourceGraphic" in2="back" mode="normal"/>
				</filter>
			</defs>
			<mask maskUnits="userSpaceOnUse" x="0" y="0" width="98.049" height="143.997" id="SVGID_1_">
				<g filter="url(#Adobe_OpacityMaskFilter_1_)">
				</g>
			</mask>
			<linearGradient id="SVGID_2_" gradientUnits="userSpaceOnUse" x1="49.0244" y1="26.6592" x2="49.0244" y2="140.1891">
				<stop  offset="0" style="stop-color:#999999"/>
				<stop  offset="1" style="stop-color:#FFFFFF"/>
			</linearGradient>
			<path mask="url(#SVGID_1_)" fill="url(#SVGID_2_)" d="M64.51,120.301c27.612-9.738,36.691-54.22,32.607-71.098
				c-0.136-0.56-0.274-1.116-0.418-1.671c-0.031-0.12-0.065-0.24-0.097-0.36c-0.114-0.434-0.229-0.866-0.348-1.296
				c-0.027-0.097-0.057-0.192-0.084-0.289c-0.127-0.453-0.256-0.905-0.39-1.353c-0.013-0.043-0.026-0.084-0.039-0.127
				c-0.151-0.5-0.305-0.998-0.464-1.491c-0.003-0.008-0.006-0.017-0.008-0.024c-2.933-9.082-7.342-16.805-14.55-20.252
				c-2.205-2.239-5.131-3.415-5.505-5.919c-1.078-7.219-6.974-17.825-8.188-16.267c-2.364,3.042,3.44,13.965,2.605,16.139l0,0
				c-0.025,0.068-0.058,0.128-0.097,0.179s-0.085,0.094-0.14,0.126c-1.311,0.773-2.812-6.191-6.463-5.887
				c-2.585,0.216,4.31,8.689,1.724,8.473c-2.584-0.215-4.094-8.473-6.463-8.042c-1.785,0.323,1.317,7.246,1.854,11.565
				c-17.142,6.056-14.329,17.229-12.914,31.38c0.862,8.616-12.785,17.631-20.682,11.489c-5.171-4.021-14.937-12.064-5.745,4.309
				c-2.298,1.005-8.771-12.079-10.915-11.202c-0.196,0.08-0.378,0.181-0.543,0.301c-0.063,0.046-0.113,0.107-0.171,0.158
				c-0.095,0.083-0.194,0.159-0.276,0.257c-0.068,0.079-0.12,0.177-0.181,0.266C8.566,59.75,8.5,59.828,8.451,59.922
				c-0.062,0.117-0.106,0.252-0.156,0.382c-0.032,0.083-0.072,0.157-0.1,0.245c-0.049,0.161-0.081,0.341-0.114,0.519
				c-0.013,0.07-0.033,0.133-0.044,0.205c-0.03,0.211-0.043,0.439-0.051,0.671c-0.002,0.05-0.01,0.095-0.011,0.146
				c-0.004,0.263,0.011,0.54,0.034,0.827c0.002,0.025,0.001,0.049,0.003,0.075c0.028,0.313,0.074,0.641,0.136,0.98
				c0,0.002,0,0.003,0,0.004c0.505,2.793,2.121,6.447,4.947,10.507c-2.008,1.435-8.698-14.548-11.633-13.646
				c-1.866,0.574-2.441,6.751,1.293,19.964c1.465,5.184,4.005,10.956,7.529,16.514c0.046,0.072,0.091,0.145,0.137,0.216
				c0.3,0.47,0.608,0.937,0.923,1.402c0.084,0.125,0.169,0.249,0.254,0.374c0.302,0.441,0.61,0.881,0.925,1.317
				c0.102,0.141,0.204,0.279,0.307,0.419c0.316,0.432,0.635,0.861,0.964,1.287c0.094,0.122,0.191,0.242,0.287,0.364
				c1.092,1.396,2.25,2.757,3.474,4.071c0.114,0.123,0.225,0.249,0.341,0.37c0.311,0.329,0.63,0.649,0.949,0.971
				c0.21,0.212,0.418,0.425,0.632,0.634c0.3,0.294,0.606,0.582,0.913,0.869c0.245,0.229,0.49,0.458,0.739,0.684
				c0.299,0.27,0.601,0.535,0.905,0.799c0.272,0.235,0.548,0.467,0.825,0.697c0.298,0.247,0.596,0.493,0.898,0.733
				c0.304,0.241,0.614,0.477,0.924,0.711c0.289,0.22,0.576,0.441,0.871,0.655c0.38,0.275,0.769,0.54,1.157,0.805
				c0.235,0.161,0.466,0.329,0.705,0.486c0.614,0.404,1.239,0.793,1.874,1.17c0.246,0.146,0.5,0.282,0.749,0.424
				c0.418,0.238,0.836,0.475,1.262,0.699c0.282,0.149,0.569,0.29,0.855,0.434c0.406,0.204,0.814,0.404,1.228,0.597
				c0.298,0.138,0.598,0.27,0.897,0.401c0.418,0.183,0.84,0.358,1.265,0.528c0.301,0.12,0.602,0.239,0.905,0.353
				c0.449,0.168,0.904,0.324,1.361,0.478c0.288,0.097,0.573,0.196,0.863,0.287c0.531,0.165,1.071,0.314,1.612,0.46
				c0.225,0.06,0.445,0.128,0.672,0.185c0.635,0.159,1.279,0.299,1.928,0.429c0.848,4.117,2.517,12.74,2.787,17.95
				c-1.677,1.13-5.313,3.521-7.155,4.281l16.518,0.143l-7.766-4.606c-0.535-4.583-1.292-12.619-0.68-17.208
				c0.525,0.057,1.053,0.108,1.586,0.145c0.327,0.022,0.656,0.037,0.986,0.052c0.518,0.023,1.038,0.039,1.563,0.044
				c0.341,0.003,0.683,0.003,1.027-0.003c0.534-0.008,1.072-0.029,1.613-0.057c0.337-0.018,0.673-0.032,1.013-0.058
				c0.592-0.045,1.19-0.108,1.791-0.177c0.294-0.034,0.586-0.059,0.882-0.099c0.899-0.12,1.806-0.263,2.724-0.439
				c0.202-0.039,0.4-0.087,0.602-0.13c0.834,4.048,2.543,12.832,2.818,18.113c-1.678,1.131-5.313,3.521-7.154,4.28l16.517,0.143
				l-7.766-4.607C64.172,134.085,63.254,124.15,64.51,120.301z"/>
		</g>
	</mask>
	<linearGradient id="SVGID_3_" gradientUnits="userSpaceOnUse" x1="49.0244" y1="26.6592" x2="49.0244" y2="140.1891">
		<stop  offset="0" style="stop-color:#FDCC98"/>
		<stop  offset="1" style="stop-color:#16102A"/>
	</linearGradient>
	<path opacity="0.6" fill="url(#SVGID_3_)" d="M64.51,120.301c27.612-9.738,36.691-54.22,32.607-71.098
		c-0.136-0.56-0.274-1.116-0.418-1.671c-0.031-0.12-0.065-0.24-0.097-0.36c-0.114-0.434-0.229-0.866-0.348-1.296
		c-0.027-0.097-0.057-0.192-0.084-0.289c-0.127-0.453-0.256-0.905-0.39-1.353c-0.013-0.043-0.026-0.084-0.039-0.127
		c-0.151-0.5-0.305-0.998-0.464-1.491c-0.003-0.008-0.006-0.017-0.008-0.024c-2.933-9.082-7.342-16.805-14.55-20.252
		c-2.205-2.239-5.131-3.415-5.505-5.919c-1.078-7.219-6.974-17.825-8.188-16.267c-2.364,3.042,3.44,13.965,2.605,16.139l0,0
		c-0.025,0.068-0.058,0.128-0.097,0.179s-0.085,0.094-0.14,0.126c-1.311,0.773-2.812-6.191-6.463-5.887
		c-2.585,0.216,4.31,8.689,1.724,8.473c-2.584-0.215-4.094-8.473-6.463-8.042c-1.785,0.323,1.317,7.246,1.854,11.565
		c-17.142,6.056-14.329,17.229-12.914,31.38c0.862,8.616-12.785,17.631-20.682,11.489c-5.171-4.021-14.937-12.064-5.745,4.309
		c-2.298,1.005-8.771-12.079-10.915-11.202c-0.196,0.08-0.378,0.181-0.543,0.301c-0.063,0.046-0.113,0.107-0.171,0.158
		c-0.095,0.083-0.194,0.159-0.276,0.257c-0.068,0.079-0.12,0.177-0.181,0.266C8.566,59.75,8.5,59.828,8.451,59.922
		c-0.062,0.117-0.106,0.252-0.156,0.382c-0.032,0.083-0.072,0.157-0.1,0.245c-0.049,0.161-0.081,0.341-0.114,0.519
		c-0.013,0.07-0.033,0.133-0.044,0.205c-0.03,0.211-0.043,0.439-0.051,0.671c-0.002,0.05-0.01,0.095-0.011,0.146
		c-0.004,0.263,0.011,0.54,0.034,0.827c0.002,0.025,0.001,0.049,0.003,0.075c0.028,0.313,0.074,0.641,0.136,0.98
		c0,0.002,0,0.003,0,0.004c0.505,2.793,2.121,6.447,4.947,10.507c-2.008,1.435-8.698-14.548-11.633-13.646
		c-1.866,0.574-2.441,6.751,1.293,19.964c1.465,5.184,4.005,10.956,7.529,16.514c0.046,0.072,0.091,0.145,0.137,0.216
		c0.3,0.47,0.608,0.937,0.923,1.402c0.084,0.125,0.169,0.249,0.254,0.374c0.302,0.441,0.61,0.881,0.925,1.317
		c0.102,0.141,0.204,0.279,0.307,0.419c0.316,0.432,0.635,0.861,0.964,1.287c0.094,0.122,0.191,0.242,0.287,0.364
		c1.092,1.396,2.25,2.757,3.474,4.071c0.114,0.123,0.225,0.249,0.341,0.37c0.311,0.329,0.63,0.649,0.949,0.971
		c0.21,0.212,0.418,0.425,0.632,0.634c0.3,0.294,0.606,0.582,0.913,0.869c0.245,0.229,0.49,0.458,0.739,0.684
		c0.299,0.27,0.601,0.535,0.905,0.799c0.272,0.235,0.548,0.467,0.825,0.697c0.298,0.247,0.596,0.493,0.898,0.733
		c0.304,0.241,0.614,0.477,0.924,0.711c0.289,0.22,0.576,0.441,0.871,0.655c0.38,0.275,0.769,0.54,1.157,0.805
		c0.235,0.161,0.466,0.329,0.705,0.486c0.614,0.404,1.239,0.793,1.874,1.17c0.246,0.146,0.5,0.282,0.749,0.424
		c0.418,0.238,0.836,0.475,1.262,0.699c0.282,0.149,0.569,0.29,0.855,0.434c0.406,0.204,0.814,0.404,1.228,0.597
		c0.298,0.138,0.598,0.27,0.897,0.401c0.418,0.183,0.84,0.358,1.265,0.528c0.301,0.12,0.602,0.239,0.905,0.353
		c0.449,0.168,0.904,0.324,1.361,0.478c0.288,0.097,0.573,0.196,0.863,0.287c0.531,0.165,1.071,0.314,1.612,0.46
		c0.225,0.06,0.445,0.128,0.672,0.185c0.635,0.159,1.279,0.299,1.928,0.429c0.848,4.117,2.517,12.74,2.787,17.95
		c-1.677,1.13-5.313,3.521-7.155,4.281l16.518,0.143l-7.766-4.606c-0.535-4.583-1.292-12.619-0.68-17.208
		c0.525,0.057,1.053,0.108,1.586,0.145c0.327,0.022,0.656,0.037,0.986,0.052c0.518,0.023,1.038,0.039,1.563,0.044
		c0.341,0.003,0.683,0.003,1.027-0.003c0.534-0.008,1.072-0.029,1.613-0.057c0.337-0.018,0.673-0.032,1.013-0.058
		c0.592-0.045,1.19-0.108,1.791-0.177c0.294-0.034,0.586-0.059,0.882-0.099c0.899-0.12,1.806-0.263,2.724-0.439
		c0.202-0.039,0.4-0.087,0.602-0.13c0.834,4.048,2.543,12.832,2.818,18.113c-1.678,1.131-5.313,3.521-7.154,4.28l16.517,0.143
		l-7.766-4.607C64.172,134.085,63.254,124.15,64.51,120.301z"/>
</g>
</svg>
