<?xml version="1.0" encoding="utf-8"?>
<!-- Generator: Adobe Illustrator 15.0.0, SVG Export Plug-In . SVG Version: 6.00 Build 0)  -->
<!DOCTYPE svg PUBLIC "-//W3C//DTD SVG 1.1//EN" "http://www.w3.org/Graphics/SVG/1.1/DTD/svg11.dtd">
<svg version="1.1" id="Layer_1" xmlns="http://www.w3.org/2000/svg" xmlns:xlink="http://www.w3.org/1999/xlink" x="0px" y="0px"
	 width="256.483px" height="178.855px" viewBox="0 0 256.483 178.855" enable-background="new 0 0 256.483 178.855"
	 xml:space="preserve">
<g>
	<g>
		<path fill="#573A2A" d="M149.474,159.753c-0.552-0.487-1.276-0.913-2.207-1.26c-6.299-2.34-14.864-0.566-20.317,3.281
			c-3.178,2.245-8.053,5.885-7.866,9.328c1.807,0.137,3.717-0.212,5.396,0.001c3.224,0.416,0.917,1.359,2.563,2.61
			c1.802,1.375,8.631,0.326,11.055,0.207c3.662-0.191,6.885-0.185,8.999-2.854C149.818,167.625,152.721,162.626,149.474,159.753z"/>
		<path fill="#6C574C" d="M129.185,173.162c2.492-4.338,6.112-8.095,9.518-12.027c0.652,0.028,1.303,0.054,1.952,0.079
			c-2.113,4.652-5.977,8.965-9.817,13.194c-0.831,0.002-1.609-0.042-2.264-0.148C128.773,173.895,128.975,173.529,129.185,173.162z"
			/>
		<path fill="#442816" d="M124.782,168.964c2.75-2.478,6.044-4.493,8.915-6.882c0.308-0.001,0.609,0.013,0.918,0.02
			c-1.923,2.05-3.681,4.104-5.227,6.2c-1.269,1.182-2.339,2.43-3.036,3.795c-0.026-0.446-0.257-0.779-1.872-0.994
			c-0.578-0.07-1.188-0.065-1.809-0.052C123.349,170.339,124.04,169.631,124.782,168.964z"/>
		<g>
			<path fill="#442816" d="M149.853,160.146c2.595,2.915-0.147,7.63-2.756,10.92c-2.114,2.669-5.337,2.663-8.999,2.854
				c-0.12,0.003-0.273,0.014-0.409,0.025c3.619-4.211,6.373-8.778,7.318-13.462C146.618,160.479,148.236,160.359,149.853,160.146z"
				/>
			<path fill="#442816" d="M126.95,161.775c0.787-0.552,1.638-1.058,2.538-1.521c-3.948,3.303-6.81,6.889-8.824,10.867
				c-0.529,0.018-1.061,0.022-1.581-0.018C118.897,167.66,123.771,164.02,126.95,161.775z"/>
		</g>
	</g>
	<g>
		<path fill="#573A2A" d="M35.356,156.9c-1.88-1.251-4.31-1.968-6.775-2.453c-2.397-0.467-4.782-1.543-7.386-0.79
			c-4.561,1.323-7.069,5.764-9.7,8.647c-1.333,1.456-5.925,4.937-3.175,5.933c2.249,0.82,5.476-1.845,7.618-2.546
			c4.753-1.559,0.92,5.032,3.542,6.615c3.101,1.87,8.326,0.577,11.866-0.506c4.053-1.227,6.796-1.455,6.848-5.218
			c0.036-2.868,0.853-6.191-1.338-8.451C36.41,157.67,35.91,157.263,35.356,156.9z"/>
		<path fill="#6C574C" d="M27.343,154.16c0.413,0.108,0.818,0.213,1.238,0.288c0.27,0.055,0.533,0.126,0.802,0.179
			c-0.994,6.203-1.959,12.415-3.91,18.5c-1.879,0.22-3.712,0.139-5.209-0.476C23.632,166.708,25.893,160.431,27.343,154.16z"/>
		<path fill="#442816" d="M13.603,164.644c2.225-2.219,4.757-4.236,7.167-6.32c-0.747,2.513-1.625,5.015-2.7,7.477
			c-0.359-0.375-0.994-0.484-2.132-0.109c-1.573,0.515-3.736,2.084-5.669,2.561C11.327,167.02,12.426,165.809,13.603,164.644z"/>
		<g>
			<path fill="#442816" d="M11.495,162.305c2.157-2.363,4.254-5.745,7.442-7.63c-2.768,3.556-5.257,7.232-7.938,10.842
				c-0.696,0.942-1.391,1.882-2.035,2.827c-0.225-0.016-0.442-0.03-0.644-0.106C5.57,167.241,10.162,163.76,11.495,162.305z"/>
			<path fill="#442816" d="M35.356,156.9c0.554,0.363,1.054,0.77,1.5,1.231c2.191,2.26,1.374,5.583,1.338,8.451
				c-0.052,3.763-2.795,3.991-6.848,5.218c-1.168,0.357-2.527,0.732-3.931,1.008c3.163-5.492,4.434-12.558,2.685-18.019
				C32.017,155.259,33.862,155.906,35.356,156.9z"/>
		</g>
	</g>
	<g>
		<path fill="#573A2A" d="M105.29,161.432c-2.144-0.989-4.722-1.391-7.286-1.563c-2.509-0.158-5.11-0.917-7.574,0.129
			c-4.312,1.84-5.942,6.464-8.003,9.585c-1.047,1.579-4.962,5.522-2.01,6.15c2.427,0.518,5.136-2.456,7.143-3.397
			c4.447-2.092,1.923,4.776,4.879,6.005c3.48,1.442,8.463-0.452,11.805-1.929c3.821-1.69,6.525-2.235,5.825-5.906
			c-0.536-2.798-0.387-6.129-3.025-8.059C106.501,162.051,105.909,161.719,105.29,161.432z"/>
		<path fill="#6C574C" d="M96.699,159.749c0.435,0.043,0.87,0.095,1.304,0.12c0.274,0.027,0.557,0.054,0.832,0.084
			c0.248,6.15,0.519,12.305-0.217,18.454c-1.854,0.448-3.705,0.585-5.333,0.17C95.488,172.392,96.487,166.015,96.699,159.749z"/>
		<path fill="#442816" d="M84.998,171.6c1.8-2.427,3.936-4.696,5.936-7.017c-0.251,2.541-0.636,5.078-1.216,7.597
			c-0.433-0.319-1.1-0.342-2.159,0.156c-1.483,0.691-3.332,2.484-5.18,3.168C83.196,174.183,84.053,172.88,84.998,171.6z"/>
		<g>
			<path fill="#442816" d="M82.426,169.583c1.693-2.562,3.117-6.107,5.944-8.33c-2.073,3.807-3.834,7.676-5.796,11.507
				c-0.515,1.006-1.024,2.006-1.491,3.003c-0.225,0.006-0.443,0.016-0.667-0.031C77.464,175.105,81.379,171.162,82.426,169.583z"/>
			<path fill="#442816" d="M105.29,161.432c0.62,0.287,1.212,0.619,1.753,1.015c2.638,1.93,2.489,5.261,3.025,8.059
				c0.7,3.671-2.004,4.216-5.825,5.906c-1.107,0.489-2.396,1.013-3.745,1.454c2.073-5.731,1.934-12.752-0.914-17.848
				C101.614,160.239,103.595,160.65,105.29,161.432z"/>
		</g>
	</g>
	<g>
		<path fill="#573A2A" d="M204.884,156.701c-1.741-1.221-3.99-1.94-6.295-2.424c-2.236-0.477-4.442-1.54-6.902-0.828
			c-4.297,1.239-6.745,5.518-9.271,8.277c-1.273,1.399-5.65,4.728-3.097,5.705c2.093,0.809,5.167-1.733,7.193-2.393
			c4.475-1.463,0.749,4.875,3.168,6.43c2.87,1.841,7.788,0.632,11.13-0.385c3.819-1.154,6.395-1.35,6.522-4.989
			c0.097-2.767,0.932-5.98-1.069-8.19C205.855,157.457,205.398,157.063,204.884,156.701z"/>
		<path fill="#6C574C" d="M197.436,153.997c0.385,0.104,0.773,0.194,1.153,0.28c0.257,0.05,0.499,0.124,0.747,0.18
			c-1.067,5.991-2.098,11.99-4.054,17.857c-1.769,0.195-3.478,0.1-4.877-0.506C193.697,166.094,195.943,160.042,197.436,153.997z"/>
		<path fill="#442816" d="M184.343,164.008c2.133-2.124,4.547-4.056,6.854-6.053c-0.758,2.426-1.64,4.839-2.699,7.209
			c-0.326-0.369-0.918-0.476-1.984-0.126c-1.497,0.486-3.548,1.99-5.372,2.424C182.157,166.283,183.221,165.125,184.343,164.008z"/>
		<g>
			<path fill="#442816" d="M182.416,161.726c2.073-2.262,4.106-5.521,7.146-7.315c-2.683,3.424-5.084,6.95-7.666,10.413
				c-0.675,0.912-1.351,1.819-1.977,2.728c-0.206-0.024-0.41-0.041-0.601-0.12C176.766,166.454,181.143,163.125,182.416,161.726z"/>
			<path fill="#442816" d="M204.884,156.701c0.514,0.362,0.971,0.756,1.38,1.204c2.001,2.209,1.167,5.423,1.069,8.19
				c-0.127,3.639-2.703,3.834-6.522,4.989c-1.103,0.339-2.386,0.683-3.703,0.947c3.079-5.297,4.415-12.116,2.896-17.411
				C201.795,155.086,203.505,155.738,204.884,156.701z"/>
		</g>
	</g>
	<g>
		<path fill="#613C20" d="M254.681,89.67c-0.014,0.1-0.032,0.2-0.051,0.302c-8.404,0.938-12.74-12.545-13.854-17.173
			c-2.333-9.657-4.774-18.308-1.62-28.457c10.986,7.007,7.982,17.735,8.188,27.979C247.479,78.627,255.534,83.338,254.681,89.67z"/>
		<path fill="#613C20" d="M190.838,110.053c1.426-10.456,7.255-19.3,17.217-28.959c4.595-4.464,28.622-21.353,27.347-7.143
			c-0.571,6.399-8.043,13.931-11.647,19.646c-4.249,6.724-6.729,14.983-6.07,22.047c0.635,6.673,2.941,11.392-1.055,18.195
			c-3.76,6.396-3.22,24.721-15.021,25.592c-3.118,0.237-8.907,0.331-11.759-0.407c-4.823-1.237-3.37-3.67-1.93-7.664
			c2.492-6.933,6.112-13.383,4.833-20.543c-0.684-3.841-1.686-7.485-2.056-11.37C190.376,116.15,190.433,113.04,190.838,110.053z"/>
		<path fill="#54311A" d="M207.904,145.518c2.242-5.986,7.106-11.32,10.745-16.889c-0.31,1.635-0.926,3.347-2.019,5.209
			c-3.699,6.278-3.248,24.053-14.399,25.524C204.41,154.875,206.138,150.261,207.904,145.518z"/>
		<path fill="#54311A" d="M232.808,68.567c1.097,0.431,1.834,1.143,2.285,2.091c0.317,0.825,0.436,1.905,0.31,3.293
			c-0.571,6.399-8.043,13.931-11.647,19.646c-3.019,4.784-5.12,10.333-5.862,15.686c-6.058,3.956-14.418,6.2-17.004,13.611
			c-2.388,6.865-0.994,14.007-1.802,20.813c-0.452,3.715-0.845,10.716-3.094,15.89c-2.307-0.032-4.635-0.183-6.142-0.573
			c-4.823-1.237-3.37-3.67-1.93-7.664c2.492-6.933,6.112-13.383,4.833-20.543c-0.684-3.841-1.686-7.485-2.056-11.37
			c-0.291-2.993-0.255-5.827,0.049-8.555c3.096-11.347,7.399-20.188,17.309-29.798C211.599,77.656,226.654,66.867,232.808,68.567z"
			/>
		<path fill="#825937" d="M46.738,23.74c9.953-7.125,22.425-14.079,34.69-18.238c20.553-6.98,44.383-7.44,62.97,0.145
			c8.552,3.498,16.576,7.094,26.318,8.102c10.457,1.08,19.444,1.143,29.357,3.833c16.557,4.476,36.635,12.766,41.725,26.76
			c4.391,12.054,2.648,25.241-7.622,36.278c-6.324,6.798-13.846,13.723-21.362,19.887c-6.025,4.934-12.327,9.721-17.471,15.35
			c-4.733,5.172-6.407,11.222-10.49,16.127c-4.975,5.986-12.21,10.785-18.346,16.068c-5.289,4.561-9.927,13.371-18.295,14.687
			c-3.486,0.547-7.274,0.877-10.79,0.64c-1.948-0.137-8.456-0.985-8.32-2.838c0.104-1.277,9.841-8.694,11.533-10.177
			c5.672-4.97,11.299-10.226,14.637-16.34c1.201-2.211,9.072-25.727,7.146-25.874c-3.091-0.239-6.322,1.334-9.372,1.72
			c-3.612,0.461-7.077,0.026-10.747,0.043c-7.183,0.035-13.927-1.054-20.605-1.456c-1.079,8.309-6.176,15.949-10.452,23.673
			c-6.058,10.928-1.431,20.36-2.976,30.965c-0.417,0.292-0.874,0.559-1.37,0.745c-0.833,0.311-1.684,0.498-2.558,0.654
			c-6.225,0.063-17.924,0.046-17.763-1.315c1.609-13.507,4.951-26.765,1.141-39.889c-0.852-2.948-1.677-11.057-4.607-12.854
			c-2.722-1.676-13.058-1.593-16.803-1.755c-7.978,16.521-26.042,33.286-28.614,50.864c-0.692,0.403-1.421,0.713-2.175,0.947
			c-6.927,0.314-18.162,1.583-18.336-3.855c-0.077-2.379,4.381-7.62,5.444-10.149c1.837-4.36,3.188-8.813,4.277-13.271
			c5.59-22.686-1.027-44.73,3.109-67.244C32.634,51.72,30.886,35.077,46.738,23.74z"/>
		<g>
			<path opacity="0.37" fill="#643C1F" d="M35.511,160.496c-2.667,0.119-5.948,0.37-9.018,0.339
				c0.853-0.207,1.854-0.621,3.039-1.302c3.642-2.12,2.99-5.905,3.901-8.947c1.002-3.381,2.959-6.055,5.222-9.026
				c5.193-6.815,11.143-13.147,13.929-20.785c3.788-10.368,5.379-19.12,16.887-26.829c3.954-2.643,7.978-5.189,11.605-8.119
				c0.409-0.336,9.039,12.962,9.624,14.269c2.377,5.37,3.692,11.104,3.706,16.954c0.007,5.918-1.55,11.871-4.986,17.313
				c-0.139-3.706-0.629-7.393-1.702-11.072c-0.852-2.948-1.677-11.057-4.607-12.854c-2.722-1.676-13.058-1.593-16.803-1.755
				c-7.978,16.521-26.042,33.286-28.614,50.864C36.997,159.947,36.266,160.261,35.511,160.496z"/>
			<path opacity="0.37" fill="#643C1F" d="M31.572,125.892c0.054,7.734-2.898,14.109-7.022,21.029
				c-1.678,2.819-4.072,12.062-0.574,13.8c-3.768-0.304-6.7-1.333-6.793-4.083c-0.077-2.379,4.381-7.62,5.444-10.149
				c1.837-4.36,3.188-8.813,4.277-13.271c1.538-6.236,2.139-12.433,2.309-18.595C31.182,117.964,31.548,123.246,31.572,125.892z"/>
		</g>
		<path opacity="0.37" fill="#643C1F" d="M149.41,150.182c9.548-8.361,19.717-17.095,25.96-27.177
			c5.788-9.335,7.851-20.241,15.55-28.942c7.222-8.159,18.509-12.777,26.521-20.347c7.07-6.683,10.36-13.874,10.635-22.114
			c0.326-9.948-2.553-19.491-8.804-27.243c10.345,4.743,19.348,11.257,22.526,19.983c4.391,12.054,2.648,25.241-7.622,36.278
			c-6.324,6.798-13.846,13.723-21.362,19.887c-6.025,4.934-12.327,9.721-17.471,15.35c-4.733,5.172-6.407,11.222-10.49,16.127
			c-4.975,5.986-12.21,10.785-18.346,16.068c-5.289,4.561-9.927,13.371-18.295,14.687c-3.486,0.547-7.274,0.877-10.79,0.64
			c-0.729-0.052-2.095-0.201-3.51-0.464C139.613,159.202,144.79,154.234,149.41,150.182z"/>
		<path opacity="0.46" fill="#643C1F" d="M22.627,146.489c1.837-4.36,3.188-8.813,4.277-13.271
			c1.808-7.313,2.333-14.559,2.367-21.783c0.045-0.284,0.065-0.575,0.121-0.863c8.526-2.437,15.395-2.839,22.894-7.375
			c4.81-2.899,17.193-11.052,21.75-6.832c6.515,6.042,13.185,9.493,15.392,17.817c2.5,9.445,2.966,19.426,1.977,29.286
			c-0.636,6.429-0.167,13.977-1.984,20.64c-0.437-0.052-0.839-0.111-1.189-0.176c-0.006,0.001-0.013-0.004-0.023-0.004
			c-0.16-0.028-0.318-0.059-0.458-0.094c-0.025-0.006-0.043-0.01-0.066-0.01c-0.123-0.037-0.24-0.065-0.344-0.094
			c-0.031-0.015-0.065-0.023-0.095-0.037c-0.081-0.029-0.167-0.05-0.241-0.087c-0.034-0.012-0.063-0.027-0.093-0.048
			c-0.052-0.027-0.111-0.05-0.156-0.083c-0.024-0.026-0.046-0.052-0.079-0.077c-0.016-0.021-0.048-0.042-0.062-0.065
			c-0.026-0.05-0.042-0.105-0.038-0.153c1.609-13.507,4.951-26.765,1.141-39.889c-0.852-2.948-1.677-11.057-4.607-12.854
			c-2.722-1.676-13.058-1.593-16.803-1.755c-7.978,16.521-26.042,33.286-28.614,50.864c-0.692,0.403-1.421,0.713-2.175,0.947
			c-6.927,0.314-18.162,1.583-18.336-3.855C17.106,154.258,21.564,149.018,22.627,146.489z"/>
		<path opacity="0.46" fill="#643C1F" d="M108.092,121.2c2.586-4.103,5.05-8.105,6.474-12.358c2.065-3.999,3.296-8.074,2.772-12.184
			c3.702-0.009,6.882,0.955,10.473,1.338c5.949,0.657,12.033,0.391,18.001,1.032c6.328,0.671,13.365-1.882,19.09-4.373
			c2.754-1.205,6.012-3.529,7.873-5.513c-0.482,3.72-2.909,7.24-4.407,10.831c-0.635,1.539-4.006,8.157-6.643,8.169
			c-2.879,0.017-5.859,1.369-8.679,1.728c-3.612,0.461-7.077,0.026-10.747,0.043c-7.183,0.035-13.927-1.054-20.605-1.456
			c-1.079,8.309-6.176,15.949-10.452,23.673c-6.058,10.928-1.431,20.36-2.976,30.965c-0.417,0.292-0.874,0.559-1.37,0.745
			c-0.833,0.311-1.682,0.493-2.543,0.654c-1.77,0.012-3.964,0.025-6.222,0.003c1.844-7.13,1.76-14.347,2.474-22.152
			C101.298,134.792,103.667,128.236,108.092,121.2z"/>
		<path opacity="0.46" fill="#643C1F" d="M154.779,150.75c6.62-8.346,17.73-13.784,24.221-22.041
			c5.865-7.458,8.921-15.721,14.396-23.288c11.896-16.431,34.685-25.457,39.288-44.98c2.522-10.696,1.89-21.116-2.896-30.174
			c5.583,3.875,9.984,8.518,12.009,14.075c4.391,12.054,2.648,25.241-7.622,36.278c-6.324,6.798-13.846,13.723-21.362,19.887
			c-6.025,4.934-12.327,9.721-17.471,15.35c-4.733,5.172-6.407,11.222-10.49,16.127c-4.975,5.986-12.21,10.785-18.346,16.068
			c-5.289,4.561-9.927,13.371-18.295,14.687c-2.236,0.353-4.585,0.592-6.914,0.667C146.613,159.813,151.251,155.198,154.779,150.75z
			"/>
		<path opacity="0.75" fill="#643C1F" d="M46.738,23.74c2.709-1.94,5.619-3.859,8.647-5.72c8.898,5.568,23.785,5.265,35.229,9.614
			c-5.397,10.646-3.02,20.558,0.309,30.846c4.087,12.62,7.407,28.395-9.866,38.095c-13.815,7.754-29.01,12.805-41.31,22.431
			c-4.553,3.562-8.589,7.318-12.204,11.27c4.374-21.646-1.485-42.766,2.472-64.302C32.634,51.72,30.886,35.077,46.738,23.74z"/>
		<path fill="#6D4624" d="M25.187,36.86c1.608,0.164,3.169,0.063,4.565-0.394c7.397-2.414,6.965-11.413,5.5-15.739
			c-2.227-6.597-8.028-8.135-14.849-11.45c-3.843-1.874-9.356-5.825-13.473-6.47C3.596,2.28,2.672,16.509,2.917,17.868
			c0.985,5.359,4.335,10.33,9.332,13.83C15.05,33.67,20.355,36.39,25.187,36.86z"/>
		<path fill="#8D623A" d="M25.102,36.845c0.647-6.038-1.843-10.647-6.191-15.41c-3.621-3.958-5.357-7.967-7.902-12.388
			C9.742,6.836,8.002,4.613,5.961,3.1c0.293-0.237,0.622-0.35,0.97-0.293c4.116,0.645,9.63,4.597,13.473,6.47
			c6.821,3.315,12.622,4.853,14.849,11.45c1.465,4.327,1.897,13.325-5.5,15.739c-1.396,0.458-2.958,0.558-4.565,0.394
			C25.156,36.855,25.13,36.851,25.102,36.845z"/>
		<path fill="#7F5634" d="M6.931,2.807c0.668,0.102,1.383,0.32,2.12,0.577c1.922,4.139,5.043,8.33,9.47,10.305
			c3.333,2.49,7.3,3.706,11.924,1.77c0.321-0.14,0.583-0.302,0.803-0.476c1.767,1.425,3.154,3.209,4.005,5.744
			c1.465,4.327,1.897,13.325-5.5,15.739c-1.396,0.458-2.958,0.558-4.565,0.394c-0.031-0.005-0.057-0.009-0.085-0.016
			c0.647-6.038-1.843-10.647-6.191-15.41c-3.621-3.958-5.357-7.967-7.902-12.388C9.742,6.836,8.002,4.613,5.961,3.1
			C6.254,2.863,6.583,2.75,6.931,2.807z"/>
		<path fill="#6D4624" d="M79.823,38.72c-1.65,0.053-3.155-0.152-4.371-0.7c-6.417-2.882-2.705-11.74,0.321-15.916
			c4.607-6.365,10.904-7.491,18.839-10.304c4.487-1.587,11.373-5.119,15.681-5.477c3.481-0.295-0.81,13.822-1.546,15.146
			c-2.923,5.226-8.049,9.907-14.263,13.026C90.998,36.255,84.765,38.583,79.823,38.72z"/>
		<path fill="#996B45" d="M75.773,22.105c4.607-6.365,10.904-7.491,18.839-10.304c4.487-1.587,11.373-5.119,15.681-5.477
			c0.925-0.079,1.302,0.868,1.339,2.324c-4.583,5.456-12.604,8.381-17.103,14.075c-3.18,4.024-3.629,8.762-3.191,13.187
			c-3.445,1.39-7.833,2.708-11.515,2.81c-1.65,0.053-3.155-0.152-4.371-0.7C69.035,35.138,72.748,26.28,75.773,22.105z"/>
		<path fill="#8D623A" d="M75.773,22.105c2.709-3.733,6-5.663,9.865-7.192c-1.042,6.786,5.244,9.947,3.263,21.904
			c-2.945,1.009-6.222,1.821-9.079,1.903c-1.65,0.053-3.155-0.152-4.371-0.7C69.035,35.138,72.748,26.28,75.773,22.105z"/>
		<path opacity="0.66" fill="#AD7B48" d="M89.351,36.659c0.826-7.158-0.099-14.92,7.854-20.187
			c4.812-3.184,9.903-5.911,14.002-9.672c0.266,0.401,0.404,1.039,0.425,1.848c-4.583,5.456-12.604,8.381-17.103,14.075
			c-3.18,4.024-3.629,8.762-3.191,13.187C90.703,36.165,90.036,36.412,89.351,36.659z"/>
		<path fill="#996B45" d="M87.226,31.1c1.035,5.57-0.529,10.982-2.127,17.438c-1.28,5.166-0.751,10.761,0.474,15.726
			c1.194,4.794,1.288,9.144,0.553,14.177c-0.901,6.227-6.411,12.914-12.754,17.069c-2.068,1.353-4.458,2.248-6.675,3.423
			c-7.678,4.063-14.413,8.928-24.014,8.979c-3.914,0.022-7.894-0.166-11.186-1.48c-5.33-2.128-10.105-6.683-13.66-10.375
			c-4.36-4.531-7.908-9.749-7.517-15.846c0.228-3.536,1.385-7.349,3.116-10.695c1.955-3.787,4.786-7.084,5.661-11.108
			c0.746-3.404,0.204-6.824-0.288-10.148c-2.291-15.584,3.401-30.283,24.594-36.25c16.722-4.704,34.123,0.549,41.143,12.194
			C85.977,26.586,86.818,28.855,87.226,31.1z"/>
		<path fill="#6D4624" d="M255.312,92.628c-0.067,0.192-0.141,0.39-0.225,0.583c-0.562,1.333-1.485,2.864-3.206,3.553
			c-0.628,0.252-1.542,0.464-1.909,0.115c-0.444-0.416-0.265-1.547-0.371-2.091c-0.114-0.533-0.11-1.732-0.6-2.099
			c-0.499-0.399-1.247,0.139-1.824-0.248c-0.587-0.395-0.264-1.475-0.825-1.968c-0.303-0.272-0.446-0.195-0.822-0.328
			c-0.893-0.313-1.382-0.732-1.411-1.531c-0.051-1.329,0.338-2.623,0.115-3.975c-0.314-1.943-1.2-3.658-1.855-5.5
			c-0.399-1.122-0.603-2.787-0.942-3.927c0.088,0.301,1.186,1.77,1.648,1.709c0.949-0.116,0.145-1.391,1.539-1.214
			c1.005,0.129,3.969,2.792,3.535,0.044c0.832,1.132,1.536,2.456,2.559,3.52c2.12,2.194,5.777,4.089,5.764,7.25
			c-0.006,0.943-0.653,0.44-1.145,0.96c-0.5,0.536,0.24,1.903,0.28,2.489C255.688,90.844,255.589,91.746,255.312,92.628z"/>
		<path fill="#52321C" d="M244.019,80.311c0.902,1.442,0.954,3.209,1.706,4.691c0.404-1.108-0.177-2.136,0.036-3.222
			c1.396,2.354,1.222,5.229,2.524,7.536c0.282-0.222,0.547-0.559,0.605-0.949c1.647,2.341,1.495-2.658,1.207-3.485
			c0.148,0.419,0.741,0.867,0.993,1.265c0.302,0.47,0.543,0.968,0.746,1.479c0.225,0.557,0.223,2.198,1.134,2.376
			c0.345-1.354,0.056-2.493,0.054-3.811c0.573,0.354,0.752,1.487,0.946,2.059c0.245,0.713,0,1.949,0.488,2.518
			c0.47-0.187,0.458-1.001,0.421-1.326c-0.121-1.085-0.01-2.479-0.666-3.438c-0.802-1.166-2.44-1.909-3.495-2.915
			c1.074,0.596,2.7,1.769,3.975,2.041c0.774,0.161,1.14,0.024,1.424-0.232c0.211,0.515,0.373,1.042,0.366,1.625
			c-0.006,0.943-0.653,0.44-1.145,0.96c-0.5,0.536,0.24,1.903,0.28,2.489c0.07,0.874-0.029,1.775-0.306,2.658
			c-0.067,0.192-0.141,0.39-0.225,0.583c-0.562,1.333-1.485,2.864-3.206,3.553c-0.628,0.252-1.542,0.464-1.909,0.115
			c-0.444-0.416-0.265-1.547-0.371-2.091c-0.114-0.533-0.11-1.732-0.6-2.099c-0.499-0.399-1.247,0.139-1.824-0.248
			c-0.587-0.395-0.264-1.475-0.825-1.968c-0.303-0.272-0.446-0.195-0.822-0.328c-0.893-0.313-1.382-0.732-1.411-1.531
			c-0.051-1.329,0.338-2.623,0.115-3.975c-0.314-1.943-1.2-3.658-1.855-5.5c-0.071-0.209-0.137-0.44-0.194-0.674
			C242.876,79.01,243.552,79.561,244.019,80.311z"/>
		<g>
			<path fill="#010101" d="M72.149,45.84c2.675-0.019,4.59,2.149,4.271,4.843c-0.312,2.693-2.735,4.906-5.403,4.925
				c-2.67,0.02-4.576-2.149-4.261-4.852C67.067,48.066,69.486,45.868,72.149,45.84z"/>
			<path fill="#FFFFFF" d="M69.441,50.74c0.622-0.005,1.08,0.419,1.019,0.944c-0.063,0.534-0.618,0.963-1.247,0.966
				c-0.614,0.015-1.077-0.417-1.003-0.94C68.27,51.181,68.818,50.741,69.441,50.74z"/>
		</g>
		<g>
			<path fill="#010101" d="M30.042,44.406c2.673-0.018,4.582,2.149,4.271,4.846c-0.314,2.69-2.736,4.903-5.405,4.922
				c-2.672,0.021-4.576-2.149-4.261-4.852C24.957,46.633,27.383,44.435,30.042,44.406z"/>
			<path fill="#FFFFFF" d="M27.33,49.307c0.626-0.005,1.09,0.418,1.016,0.945c-0.062,0.533-0.611,0.963-1.24,0.964
				c-0.613,0.016-1.078-0.417-1.004-0.935C26.162,49.749,26.708,49.308,27.33,49.307z"/>
		</g>
		<path fill="#6D4624" d="M74.521,72.138c-0.063-0.457,0.253-0.921,0.791-1.257c0.77-0.475,1.944-0.501,2.761-0.281
			c0.955,0.269,1.759,0.779,2.058,1.558c0.085,0.229,0.321,0.979,0.007,1.184c-0.458,0.304-0.81-0.254-1.063-0.432
			c-0.388-0.277-0.965-0.417-1.474-0.555c-0.975-0.262-1.99-0.417-2.927,0.197C74.587,72.413,74.538,72.283,74.521,72.138z"/>
		<path fill="#6D4624" d="M17.183,70.125c-1.091,0.54-1.252,1.896-1.176,2.712c1.33-1.046,2.62-1.801,4.512-1.759
			c0.522,0.014-0.638-1.143-0.885-1.215C19.063,69.678,17.734,69.856,17.183,70.125z"/>
		<path fill="#BFB3AA" d="M82.954,88.985c-4.083,2.311-10.507,5.604-14.489,5.072c1.306-2.26,2.816-4.894,5.658-6.292
			c2.754-1.351,5.987-1.719,8.738-3.064c2.796-1.374,5.285-3.271,7.591-5.131c1.32-1.068,3.494-3.842,5.344-3.758
			c-1.042,4.608-6.378,9.42-11.147,12.197C84.15,88.3,83.575,88.635,82.954,88.985z"/>
		<path fill="#BFB3AA" d="M7.956,86.432c3.19,2.56,8.335,6.246,12.457,5.99c-0.464-2.321-0.996-5.025-3.292-6.597
			c-2.22-1.521-5.28-2.103-7.51-3.619c-2.259-1.544-4.023-3.587-5.618-5.579c-0.918-1.145-2.049-4.032-3.914-4.074
			c-0.649,4.623,2.862,9.736,6.558,12.8C7.02,85.675,7.465,86.045,7.956,86.432z"/>
		<path fill="#705C4F" d="M94.37,78.098c0.56-0.776,0.46-1.425,0.005-1.889c0.484-0.262,0.964-0.417,1.421-0.397
			c-1.042,4.608-6.378,9.42-11.147,12.197c-0.5,0.291-1.075,0.626-1.696,0.976c-4.083,2.311-10.507,5.604-14.489,5.072
			c0.749-1.301,1.575-2.709,2.678-3.948C81.217,90.086,89.202,85.167,94.37,78.098z"/>
		<path fill="#705C4F" d="M1.266,72.999c-1.296,8.484,8.509,14.612,18.522,16.806c0.279,0.871,0.454,1.77,0.625,2.617
			c-4.122,0.256-9.267-3.431-12.457-5.99c-0.491-0.387-0.936-0.757-1.32-1.079c-3.696-3.063-7.207-8.177-6.558-12.8
			C0.515,72.565,0.904,72.741,1.266,72.999z"/>
		<path fill="#6D4624" d="M70.991,89.756c2.314-2.81,3.731-5.968,4.529-9.138c0.399-1.622,0.459-3.228,0.756-4.845
			c0.285-1.512,0.074-3.058,0.398-4.579c0.441,0.092,0.467,0.592,0.536,0.91c0.294,1.364,0.272,2.833,0.412,4.22
			c0.129,1.435,0.112,2.896-0.073,4.351c-0.349,2.841-1.298,5.728-3.086,8.336c-2.414,3.523-12.276,11.463-17.64,11.161
			c0.897-0.882,2.319-1.373,3.512-2.092c2.562-1.567,4.841-3.136,7.132-4.916C68.822,92.115,69.991,90.965,70.991,89.756z"/>
		<path fill="#6D4624" d="M19.731,93.358c-5.528-4.931-5.807-16.633-1.474-22.847c-0.826,1.192-0.458,5.291-0.521,6.709
			c-0.083,1.94-0.063,4.039,0.11,5.959c0.632,7.066,7.061,12.127,13.662,16.083c-0.783,0.252-1.568,0.379-2.348,0.654
			c-1.051-1.424-3.116-2.093-4.709-3.077C22.802,95.821,21.119,94.604,19.731,93.358z"/>
		<path opacity="0.57" fill="#996B45" d="M185.675,70.483c-9.047,8.318-11.672,19.06-14.585,29.047
			c-2.574,8.802-6.089,17.454-9.337,26.159c-2.373,6.351-4.227,16.955-10.459,22.2c6.661-5.604,10.749-10.342,14.761-17.405
			c8.025-14.093,11.584-28.841,21.02-42.687c2.756-4.06,5.554-7.562,9.438-10.947c2.735-2.387,9.501-7.026,8.977-10.543
			c-1.298-8.619-15.894,0.646-19.538,3.925C185.852,70.315,185.766,70.399,185.675,70.483z"/>
		<path opacity="0.57" fill="#996B45" d="M113.917,102.415c-1.513,6.21-4.668,11.931-7.604,17.686
			c-6.22,12.188-6.795,24.447-8.812,37.134c-5.274-16.754,5.521-33.407,4.447-50.335c-0.647-10.31-4.613-22.029-1.457-32.488
			c1.081-3.56,3.342-8.083,9.087-6.045C121.827,72.693,115.966,94.002,113.917,102.415z"/>
		<path opacity="0.37" fill="#643C1F" d="M106.313,120.101c2.935-5.755,6.091-11.476,7.604-17.686
			c0.867-3.542,2.4-9.37,2.976-15.262c4.118-0.5,9.453,1.013,11.708,1.479c7.593,1.582,15.181,2.354,23.325,1.776
			c7.54-0.526,14.218-1.697,21.037-4.853c1.235-0.57,2.372-1.227,3.458-1.921c-2.338,5.205-3.804,10.649-5.33,15.897
			c-2.574,8.802-6.089,17.454-9.337,26.159c-0.697,1.868-1.357,4.116-2.09,6.481c-0.408,0.827-0.803,1.666-1.221,2.487
			c-0.218,0.447-0.25,0.853-0.166,1.207c-6.084,5.915-12.545,11.61-19.007,17.284c-2.971,2.606-6.381,5.544-10.113,7.736
			c-0.037-0.11-0.06-0.219-0.053-0.343c0.104-1.277,9.841-8.694,11.533-10.177c5.672-4.97,11.299-10.226,14.637-16.34
			c1.201-2.211,9.072-25.727,7.146-25.874c-3.091-0.239-6.322,1.334-9.372,1.72c-3.612,0.461-7.077,0.026-10.747,0.043
			c-7.183,0.035-13.927-1.054-20.605-1.456c-1.079,8.309-6.176,15.949-10.452,23.673c-6.058,10.931-1.445,20.373-2.99,30.975
			c-0.417,0.294-0.859,0.549-1.355,0.735c-0.833,0.311-1.684,0.498-2.558,0.654c-2.049,0.021-4.688,0.031-7.318-0.005
			c0.486-2.646,0.739-5.282,0.652-7.897c0.56-3.772,1.075-7.542,1.541-11.316C100.448,136.777,102.06,128.414,106.313,120.101z"/>
		<path opacity="0.57" fill="#996B45" d="M223.957,53.2c-4.625,0.976-10.654,0.569-16.304-0.316
			c-21.735-3.398-22.808,10.852-38.085,17.216c-16.457,6.855-37.951,4.694-46.247-6.766c-4.049-5.601-11.528-12.518-13.508-18.731
			c-2.991-9.412,7.542-15.494,8.875-24.487c0.591-3.967-3.671-11.585,2.245-14.378c9.726-4.603,28.031,6.13,34.359,9.528
			c6.895,3.714,12.764,4.418,21.527,4.143c9.602-0.301,18.863-1.248,28.053,0.465c12.747,2.377,23.553,11.691,26.346,21.609
			C233.237,48.662,229.676,51.99,223.957,53.2z"/>
		<path opacity="0.57" fill="#996B45" d="M222.474,46.021c-3.248,9.84-16.768,0.824-22.435-2.131
			c-5.562-2.896-15.924-10.223-23.907-8.643c-4.364,0.873-7.828,5.133-12.347,6.688c-20.458,7.029-43.84-11.636-37.814-27.55
			c3.882-10.252,14-0.725,17.972,3.122c7.454,7.222,21.116,7.867,33.182,7.383c9.309-0.379,20.322-3.369,29.311-1.609
			C219.081,25.743,225.746,36.074,222.474,46.021z"/>
		<path opacity="0.66" fill="#AD7B48" d="M35.762,33.884c0.067-0.299,0.162-0.595,0.283-0.893c1.112-2.77,4.291-2.391,2.584-5.858
			c-1.178-2.393-5.085-1.993-3.236-5.84c2.696-5.614,13.729-4.89,19.084-4.827c8.465,0.107,18.985-2.06,19.851,6.991
			c0.443,4.642-3.271,7.131-5.243,11.089c-1.857,3.724,1.284,5.97,0.352,9.611c-0.912,3.537-4.607,5.488-4.792,9.337
			c-0.077,1.551,1.194,2.754,0.644,4.687c-0.577,2.066-3.163,3.688-3.23,5.753c-0.118,3.914,4.096,5.688,1.772,10.074
			c-1.689,3.183-5.81,5.325-6.873,8.724c-0.801,2.589,2.597,7.637-0.179,9.791c-2.207,1.713-6.912,0.147-9.367,0.114
			c-5.286-0.067-9.64,2.084-14.722,2.626c-0.635,0.071,6.17-9.412,6.621-10.226c2.57-4.611-2.163-4.593-3.403-8.644
			c-1.086-3.559,2.405-3.006,3.607-5.708c1.5-3.388-1.904-5.222-1.938-8.26c-0.047-5.383,3.849-10.145,2.29-15.714
			C38.795,42.895,34.777,38.22,35.762,33.884z"/>
		<g>
			<path fill="#56341B" d="M85.881,28.118c-0.065,0.233-0.139,0.468-0.219,0.707c-2.551-2.861-7.078-5.621-12.821-5.22
				c-0.356,0.03-0.816,13.443-1.283,14.684c-3.043-2.037-4.454-4.98-7.341-7.146c-0.538,1.853-1.018,10.68-3.988,11.391
				c-5.224,1.241-7.15-12.312-7.837-12.134c-4.678,1.22-5.871,5.407-7.629,8.181c-3.018-1.682-5.548-5.698-5.683-8.293
				c-0.11-1.896,6.122-7.048,2.786-7.839c-3.191-0.77-9.777,5.535-12.086,6.637c-3.748-6.431-1.302-14.205,9.25-17.559
				c-2.832-0.056-5.693-0.076-8.458-0.366c-0.396-2.707,11.385-5.3,12.66-3.657C41.29,5,36.378,4.219,33.206,2.444
				c9.614-0.093,25.012-0.106,28.637,6.754c2.7-2.329,3.657-5.917,3.998-8.951c2.945,3.532,2.417,7.143,1.981,11.122
				c5.536-1.655,14.03-2.884,17.586,0.939c-3.386,0.742-7.53,0.689-10.371,2.248C82.849,17.735,87.729,21.37,85.881,28.118z"/>
			<path fill="#6D4624" d="M38.701,15.922c3.66-2.575,8.5-4.085,13.193-3.731c-1.916-3.526-7.118-7.145-12.102-9.73
				c8.918,0.184,19.181,1.297,22.051,6.737c2.7-2.329,3.657-5.917,3.998-8.951c2.945,3.532,2.417,7.143,1.981,11.122
				c4.671-1.397,11.44-2.474,15.579-0.483c-5.327,0.163-11.881,0.917-15.052,4.79c4.313,0.459,11.715,2.09,13.231,5.442
				c-4.89,0.347-9.582-1.54-14.522-1.186c1.152,3.936,1.222,8.098,1.902,12.023c-3.718-0.093-5.504-4.926-8.228-6.416
				c-0.739,1.895-0.55,3.868-0.681,5.712c-4.767-0.118-2.682-4.965-5.168-6.799c-2.709-1.997-3.097-0.242-6.709,0.135
				c-0.025-2.162,3.262-6.631,1.834-8.134C48.588,14.945,40.909,15.683,38.701,15.922z"/>
		</g>
		<path opacity="0.82" fill="#AD7B48" d="M72.017,42.092c-0.278-3.124,4.946-5.301,8.07-3.853c2.299,1.08,4.351,5.116,0.413,6.468
			C78.9,45.257,74.41,42.505,72.017,42.092z"/>
		<path opacity="0.82" fill="#AD7B48" d="M33.408,40.778c1.416-3.065-2.95-5.57-6.557-4.35c-2.663,0.912-6.167,4.758-2.768,6.361
			C25.452,43.439,30.906,41.024,33.408,40.778z"/>
		<g>
			<g>
				<path fill="#DD9483" d="M29.652,102.255c-0.486-0.395-0.914-0.829-1.265-1.294c-11.463-15.214,35.82-17.831,31.467-3.458
					C57.049,106.755,36.69,107.973,29.652,102.255z"/>
				<path fill="#D07C6B" d="M33.498,89.713c-1.894,3.449-0.538,7.651,3.26,9.515c5.893,2.874,14.525,1.149,20.379-2.242
					c1.117-0.653,2.079-1.495,2.841-2.432c0.21,0.897,0.198,1.867-0.123,2.95c-2.806,9.252-23.165,10.47-30.203,4.752
					c-0.486-0.395-0.914-0.829-1.265-1.294C24.309,95.547,27.676,91.742,33.498,89.713z"/>
				<path fill="#F1AEA0" d="M54.744,93.055c0.207,0.197,0.402,0.396,0.584,0.607c2.945,3.455,3.896,0.049,1.559-2.194
					c-2.188-2.101-6.953-2.458-10.258-2.53c-2.081-0.049-5.394-0.414-7.379,0.014c-1.306,0.285-7.798,2.106-3.075,2.143
					c2.256,0.02,4.761-1.171,7.164-1.278C47.672,89.626,52.17,90.65,54.744,93.055z"/>
			</g>
			<g>
				<path fill="#9F4D3D" d="M56.375,94.952c0.532,2.889-3.691,8.553-7.408,6.384c-4.705-2.736,4.418-11.291,7.128-7.131
					C56.231,94.424,56.325,94.674,56.375,94.952z"/>
				<path fill="#7D3126" d="M52.781,96.001c-1.732-0.101-3.188,0.877-4.318,1.856c-0.246,0.22-0.503,0.458-0.755,0.714
					c0.625-3.382,6.341-7.514,8.388-4.367c0.136,0.219,0.23,0.469,0.28,0.748c0.17,0.932-0.167,2.167-0.82,3.335
					C55.34,97.108,54.571,96.101,52.781,96.001z"/>
			</g>
			<g>
				<path fill="#9F4D3D" d="M31.593,94.109c-1.577,2.817,0.517,8.696,4.985,6.806c5.651-2.385-0.24-11.45-4.433-7.524
					C31.928,93.597,31.744,93.837,31.593,94.109z"/>
				<path fill="#7D3126" d="M34.759,95.387c1.749,0.018,2.83,1.083,3.584,2.126c0.17,0.234,0.33,0.487,0.485,0.757
					c0.621-3.384-3.507-7.851-6.684-4.88c-0.217,0.206-0.4,0.446-0.552,0.718c-0.508,0.91-0.633,2.151-0.413,3.348
					C31.827,96.308,32.954,95.365,34.759,95.387z"/>
			</g>
		</g>
	</g>
</g>
</svg>
