<svg xmlns="http://www.w3.org/2000/svg" xmlns:xlink="http://www.w3.org/1999/xlink" preserveAspectRatio="xMidYMid" width="216" height="197" viewBox="0 0 216 197">
  <defs>
    <style>

      .cls-3 {
        fill: #142a3b;
      }

      .cls-4 {
        fill: #fbb713;
      }

      .cls-5 {
        fill: #000000;
        opacity: 0.35;
      }

      .cls-6 {
        fill: #000000;
        opacity: 0.25;
      }

      .cls-7 {
        fill: #ffffff;
      }

      .cls-15 {
        fill: #ededed;
      }
    </style>
  </defs>
  <g id="group-77svg">
    <path d="M83.342,58.330 C83.342,58.330 43.345,58.330 43.345,58.330 C43.345,58.330 43.345,4.128 43.345,4.128 C43.345,1.850 45.192,0.002 47.470,0.002 C47.470,0.002 79.217,0.002 79.217,0.002 C81.495,0.002 83.342,1.850 83.342,4.128 C83.342,4.128 83.342,58.330 83.342,58.330 Z" id="path-1" class="cls-3" fill-rule="evenodd"/>
    <path d="M122.547,196.648 C122.547,196.648 4.140,196.648 4.140,196.648 C1.862,196.648 0.015,194.801 0.015,192.523 C0.015,192.523 0.015,57.456 0.015,57.456 C0.015,55.177 1.862,53.330 4.140,53.330 C4.140,53.330 122.547,53.330 122.547,53.330 C124.825,53.330 126.672,55.177 126.672,57.456 C126.672,57.456 126.672,192.523 126.672,192.523 C126.672,194.801 124.825,196.648 122.547,196.648 Z" id="path-2" class="cls-4" fill-rule="evenodd"/>
    <path d="M75.366,1.313 C76.186,3.072 76.676,5.016 76.676,7.086 C76.676,7.086 76.676,47.087 76.676,47.087 C76.676,47.087 43.345,50.419 43.345,50.419 C43.345,50.419 43.345,53.752 43.345,53.752 C43.345,53.752 83.342,53.752 83.342,53.752 C83.342,53.752 83.342,13.752 83.342,13.752 C83.342,8.228 80.066,3.499 75.366,1.313 Z" id="path-3" class="cls-5" fill-rule="evenodd"/>
    <path d="M118.697,54.640 C119.516,56.400 120.007,58.344 120.007,60.414 C120.007,60.414 120.007,176.234 120.007,176.234 C120.007,183.827 113.850,189.983 106.257,189.983 C106.257,189.983 7.097,189.983 7.097,189.983 C5.028,189.983 3.085,189.492 1.324,188.673 C3.510,193.371 8.240,196.648 13.764,196.648 C13.764,196.648 112.923,196.648 112.923,196.648 C120.517,196.648 126.672,190.493 126.672,182.900 C126.672,182.900 126.672,67.079 126.672,67.079 C126.672,61.556 123.395,56.826 118.697,54.640 Z" id="path-4" class="cls-6" fill-rule="evenodd"/>
    <path d="M71.676,21.666 C71.676,26.269 67.946,30.000 63.344,30.000 C58.742,30.000 55.011,26.269 55.011,21.666 C55.011,17.065 58.742,13.335 63.344,13.335 C67.946,13.335 71.676,17.065 71.676,21.666 Z" id="path-5" class="cls-7" fill-rule="evenodd"/>
    <path d="M70.634,17.709 C71.278,18.893 71.676,20.227 71.676,21.666 C71.676,26.269 67.946,30.000 63.344,30.000 C61.904,30.000 60.569,29.600 59.386,28.958 C60.798,31.552 63.515,33.333 66.677,33.333 C71.279,33.333 75.010,29.602 75.010,24.999 C75.010,21.839 73.228,19.122 70.634,17.709 Z" id="path-6" class="cls-5" fill-rule="evenodd"/>
    <path d="M170.558,176.650 C170.558,176.650 148.893,176.650 148.893,176.650 C148.893,176.650 148.893,106.659 148.893,106.659 C148.893,106.659 170.558,106.659 170.558,106.659 C170.558,106.659 170.558,176.650 170.558,176.650 Z" id="path-7" class="cls-3" fill-rule="evenodd"/>
    <path d="M170.558,115.303 C170.558,115.303 148.893,124.468 148.893,124.468 C148.893,124.468 148.893,106.659 148.893,106.659 C148.893,106.659 170.558,106.659 170.558,106.659 C170.558,106.659 170.558,115.303 170.558,115.303 Z" id="path-8" class="cls-5" fill-rule="evenodd"/>
    <path d="M215.555,106.659 C215.555,106.659 148.893,106.659 148.893,106.659 C148.893,106.659 148.893,11.002 148.893,11.002 C148.893,4.927 153.818,0.002 159.893,0.002 C159.893,0.002 215.555,0.002 215.555,0.002 C215.555,0.002 215.555,106.659 215.555,106.659 Z" id="path-9" class="cls-4" fill-rule="evenodd"/>
    <path d="M192.223,0.002 C192.223,0.002 185.557,0.002 185.557,0.002 C165.308,0.002 148.893,16.418 148.893,36.666 C148.893,36.666 148.893,106.659 148.893,106.659 C148.893,106.659 155.559,106.659 155.559,106.659 C155.559,106.659 155.559,36.666 155.559,36.666 C155.559,16.418 171.974,0.002 192.223,0.002 Z" id="path-10" class="cls-6" fill-rule="evenodd"/>
    <path d="M178.891,29.166 C178.891,33.769 175.160,37.499 170.558,37.499 C165.956,37.499 162.225,33.769 162.225,29.166 C162.225,24.564 165.956,20.833 170.558,20.833 C175.160,20.833 178.891,24.564 178.891,29.166 Z" id="path-11" class="cls-7" fill-rule="evenodd"/>
    <path d="M165.559,32.499 C165.559,27.897 169.289,24.167 173.891,24.167 C175.332,24.167 176.666,24.567 177.849,25.209 C176.437,22.615 173.719,20.833 170.558,20.833 C165.956,20.833 162.225,24.564 162.225,29.166 C162.225,32.328 164.006,35.045 166.602,36.457 C165.957,35.274 165.559,33.940 165.559,32.499 Z" id="path-12" class="cls-5" fill-rule="evenodd"/>
    <path d="M206.454,80.299 C204.470,80.299 202.861,78.692 202.861,76.707 C202.861,76.707 202.861,23.334 202.861,23.334 C202.861,21.350 204.470,19.742 206.454,19.742 C208.438,19.742 210.046,21.350 210.046,23.334 C210.046,23.334 210.046,76.707 210.046,76.707 C210.046,78.692 208.438,80.299 206.454,80.299 Z" id="path-13" class="cls-15" fill-rule="evenodd"/>
  </g>
</svg>
