<svg xmlns="http://www.w3.org/2000/svg" xmlns:xlink="http://www.w3.org/1999/xlink" preserveAspectRatio="xMidYMid" width="154" height="217" viewBox="0 0 154 217">
  <defs>
    <style>

      .cls-3 {
        fill: #142a3b;
      }

      .cls-9 {
        fill: #ff3a2f;
      }

      .cls-10 {
        fill: #fbb713;
      }
    </style>
  </defs>
  <g id="group-119svg">
    <path d="M21.629,198.631 C19.644,198.631 18.036,197.023 18.036,195.039 C18.036,195.039 18.036,133.521 18.036,133.521 C18.036,131.539 19.644,129.930 21.629,129.930 C23.612,129.930 25.221,131.539 25.221,133.521 C25.221,133.521 25.221,195.039 25.221,195.039 C25.221,197.023 23.612,198.631 21.629,198.631 Z" id="path-1" class="cls-3" fill-rule="evenodd"/>
    <path d="M21.629,85.849 C19.644,85.849 18.036,84.240 18.036,82.256 C18.036,82.256 18.036,20.740 18.036,20.740 C18.036,18.756 19.644,17.147 21.629,17.147 C23.612,17.147 25.221,18.756 25.221,20.740 C25.221,20.740 25.221,82.256 25.221,82.256 C25.221,84.240 23.612,85.849 21.629,85.849 Z" id="path-2" class="cls-3" fill-rule="evenodd"/>
    <circle id="circle-1" class="cls-3" cx="22" cy="16" r="16"/>
    <circle id="circle-2" class="cls-3" cx="22" cy="200" r="16"/>
    <path d="M24.233,89.676 C23.931,89.676 23.623,89.636 23.316,89.555 C21.397,89.050 20.252,87.085 20.758,85.166 C31.027,46.207 66.371,18.999 106.710,18.999 C108.693,18.999 110.302,20.609 110.302,22.592 C110.302,24.575 108.693,26.184 106.710,26.184 C69.632,26.184 37.143,51.190 27.705,86.998 C27.280,88.610 25.826,89.676 24.233,89.676 Z" id="path-3" class="cls-3" fill-rule="evenodd"/>
    <path d="M106.710,196.779 C66.360,196.779 31.009,169.553 20.739,130.573 C20.232,128.653 21.379,126.688 23.296,126.184 C25.224,125.675 27.182,126.824 27.685,128.741 C37.125,164.570 69.622,189.595 106.710,189.595 C108.693,189.595 110.302,191.203 110.302,193.186 C110.302,195.171 108.693,196.779 106.710,196.779 Z" id="path-4" class="cls-3" fill-rule="evenodd"/>
    <path d="M46.131,133.521 C46.131,133.521 5.117,133.521 5.117,133.521 C2.283,133.521 -0.010,131.230 -0.010,128.395 C-0.010,128.395 -0.010,87.384 -0.010,87.384 C-0.010,84.549 2.283,82.257 5.117,82.257 C5.117,82.257 46.131,82.257 46.131,82.257 C48.964,82.257 51.257,84.549 51.257,87.384 C51.257,87.384 51.257,128.395 51.257,128.395 C51.257,131.230 48.964,133.521 46.131,133.521 Z" id="path-5" class="cls-9" fill-rule="evenodd"/>
    <path d="M148.663,51.498 C148.663,51.498 107.650,51.498 107.650,51.498 C104.816,51.498 102.524,49.206 102.524,46.371 C102.524,46.371 102.524,5.360 102.524,5.360 C102.524,2.527 104.816,0.234 107.650,0.234 C107.650,0.234 148.663,0.234 148.663,0.234 C151.497,0.234 153.790,2.527 153.790,5.360 C153.790,5.360 153.790,46.371 153.790,46.371 C153.790,49.206 151.497,51.498 148.663,51.498 Z" id="path-6" class="cls-10" fill-rule="evenodd"/>
    <path d="M148.663,215.546 C148.663,215.546 107.650,215.546 107.650,215.546 C104.816,215.546 102.524,213.253 102.524,210.419 C102.524,210.419 102.524,169.407 102.524,169.407 C102.524,166.573 104.816,164.281 107.650,164.281 C107.650,164.281 148.663,164.281 148.663,164.281 C151.497,164.281 153.790,166.573 153.790,169.407 C153.790,169.407 153.790,210.419 153.790,210.419 C153.790,213.253 151.497,215.546 148.663,215.546 Z" id="path-7" class="cls-10" fill-rule="evenodd"/>
  </g>
</svg>
