<svg xmlns="http://www.w3.org/2000/svg" xmlns:xlink="http://www.w3.org/1999/xlink" preserveAspectRatio="xMidYMid" width="216" height="182" viewBox="0 0 216 182">
  <defs>
    <style>

      .cls-3 {
        fill: #fbb713;
      }

      .cls-6 {
        fill: #000000;
        opacity: 0.2;
      }

      .cls-9 {
        fill: #000000;
        opacity: 0.35;
      }

      .cls-11 {
        fill: #000000;
        opacity: 0.1;
      }
    </style>
  </defs>
  <g id="group-159svg">
    <path d="M53.747,-0.004 C53.747,-0.004 64.402,38.811 64.402,38.811 C64.402,38.811 0.519,34.413 0.519,34.413 C0.334,34.413 0.183,33.944 -0.002,33.958 C-0.002,33.958 53.747,-0.004 53.747,-0.004 Z" id="path-1" class="cls-3" fill-rule="evenodd"/>
    <path d="M215.538,35.322 C215.538,35.322 151.509,35.322 151.509,35.322 C151.509,35.322 161.925,-0.004 161.925,-0.004 C161.925,-0.004 215.538,35.322 215.538,35.322 Z" id="path-2" class="cls-3" fill-rule="evenodd"/>
    <path d="M151.270,38.811 C151.270,38.811 64.402,38.811 64.402,38.811 C64.402,38.811 53.747,-0.004 53.747,-0.004 C53.747,-0.004 161.925,-0.004 161.925,-0.004 C161.925,-0.004 151.270,38.811 151.270,38.811 Z" id="path-3" class="cls-3" fill-rule="evenodd"/>
    <path d="M151.270,38.811 C151.270,38.811 64.402,38.811 64.402,38.811 C64.402,38.811 53.747,-0.004 53.747,-0.004 C53.747,-0.004 161.925,-0.004 161.925,-0.004 C161.925,-0.004 151.270,38.811 151.270,38.811 Z" id="path-4" class="cls-6" fill-rule="evenodd"/>
    <path d="M151.509,35.322 C151.509,35.322 108.628,181.089 108.628,181.089 C108.628,181.089 64.551,34.413 64.551,34.413 C64.551,34.413 151.509,35.322 151.509,35.322 Z" id="path-5" class="cls-3" fill-rule="evenodd"/>
    <path d="M64.551,34.413 C64.551,34.413 108.628,181.089 108.628,181.089 C108.628,181.089 0.519,34.413 0.519,34.413 C0.519,34.413 64.551,34.413 64.551,34.413 Z" id="path-6" class="cls-3" fill-rule="evenodd"/>
    <path d="M64.551,34.413 C64.551,34.413 108.628,181.089 108.628,181.089 C108.628,181.089 0.519,34.413 0.519,34.413 C0.519,34.413 64.551,34.413 64.551,34.413 Z" id="path-7" class="cls-9" fill-rule="evenodd"/>
    <path d="M151.509,35.322 C151.509,35.322 215.538,35.322 215.538,35.322 C215.538,35.322 108.628,181.089 108.628,181.089 C108.628,181.089 151.509,35.322 151.509,35.322 Z" id="path-8" class="cls-3" fill-rule="evenodd"/>
    <path d="M151.509,35.322 C151.509,35.322 215.538,35.322 215.538,35.322 C215.538,35.322 108.628,181.089 108.628,181.089 C108.628,181.089 151.509,35.322 151.509,35.322 Z" id="path-9" class="cls-11" fill-rule="evenodd"/>
  </g>
</svg>
