<svg xmlns="http://www.w3.org/2000/svg" xmlns:xlink="http://www.w3.org/1999/xlink" preserveAspectRatio="xMidYMid" width="216" height="216" viewBox="0 0 216 216">
  <defs>
    <style>

      .cls-3 {
        fill: #142a3b;
      }

      .cls-4 {
        fill: #060606;
        opacity: 0.35;
      }

      .cls-5 {
        fill: #2476ff;
      }

      .cls-6 {
        fill: #ededed;
      }
    </style>
  </defs>
  <g id="group-10svg">
    <path d="M76.907,138.647 C74.819,136.559 72.947,134.342 71.178,132.070 C71.178,132.070 0.012,203.235 0.012,203.235 C0.012,203.235 12.317,215.540 12.317,215.540 C12.317,215.540 83.484,144.375 83.484,144.375 C81.212,142.607 78.995,140.735 76.907,138.647 Z" id="path-1" class="cls-3" fill-rule="evenodd"/>
    <path d="M77.138,138.416 C75.049,136.328 73.084,134.206 71.178,132.070 C71.178,132.070 50.010,153.238 50.010,153.238 C50.010,153.238 54.053,173.805 54.053,173.805 C54.053,173.805 83.484,144.375 83.484,144.375 C81.349,142.470 79.227,140.504 77.138,138.416 Z" id="path-2" class="cls-4" fill-rule="evenodd"/>
    <path d="M189.389,152.487 C154.506,187.368 97.950,187.368 63.067,152.487 C28.184,117.606 28.184,61.050 63.067,26.168 C97.950,-8.713 154.506,-8.713 189.389,26.168 C224.272,61.050 224.272,117.606 189.389,152.487 Z" id="path-3" class="cls-5" fill-rule="evenodd"/>
    <path d="M175.723,138.821 C148.387,166.155 104.068,166.155 76.733,138.821 C49.398,111.486 49.398,67.169 76.733,39.834 C104.068,12.500 148.387,12.500 175.723,39.834 C203.057,67.169 203.057,111.486 175.723,138.821 Z" id="path-4" class="cls-6" fill-rule="evenodd"/>
    <path d="M80.296,50.524 C107.631,23.190 151.950,23.190 179.285,50.524 C185.774,57.011 190.671,64.475 194.079,72.422 C191.117,60.487 185.052,49.164 175.723,39.835 C148.387,12.501 104.068,12.501 76.734,39.835 C55.887,60.680 50.990,91.386 61.940,116.922 C56.225,93.887 62.290,68.528 80.296,50.524 Z" id="path-5" class="cls-4" fill-rule="evenodd"/>
  </g>
</svg>
