<svg xmlns="http://www.w3.org/2000/svg" xmlns:xlink="http://www.w3.org/1999/xlink" preserveAspectRatio="xMidYMid" width="163" height="216" viewBox="0 0 163 216">
  <defs>
    <style>

      .cls-3 {
        fill: #142a3b;
      }

      .cls-4 {
        fill: #ff3a2f;
      }

      .cls-5 {
        fill: #060606;
        opacity: 0.35;
      }

      .cls-6 {
        fill: #062635;
      }

      .cls-8 {
        fill: #ededed;
      }
    </style>
  </defs>
  <g id="group-12svg">
    <path d="M143.582,88.435 C139.614,88.435 136.397,85.218 136.397,81.251 C136.397,81.251 136.397,69.467 136.397,69.467 C136.397,39.084 111.640,14.366 81.211,14.366 C50.779,14.366 26.023,39.084 26.023,69.467 C26.023,69.467 26.023,81.251 26.023,81.251 C26.023,85.218 22.805,88.435 18.837,88.435 C14.870,88.435 11.653,85.218 11.653,81.251 C11.653,81.251 11.653,69.467 11.653,69.467 C11.653,31.161 42.856,-0.002 81.211,-0.002 C119.563,-0.002 150.766,31.161 150.766,69.467 C150.766,69.467 150.766,81.251 150.766,81.251 C150.766,85.218 147.549,88.435 143.582,88.435 Z" id="path-1" class="cls-3" fill-rule="evenodd"/>
    <path d="M162.413,215.531 C162.413,215.531 0.007,215.531 0.007,215.531 C0.007,215.531 0.007,72.917 0.007,72.917 C0.007,72.917 162.413,72.917 162.413,72.917 C162.413,72.917 162.413,215.531 162.413,215.531 Z" id="path-2" class="cls-4" fill-rule="evenodd"/>
    <path d="M137.756,72.917 C137.756,72.917 137.756,215.531 137.756,215.531 C137.756,215.531 162.413,215.531 162.413,215.531 C162.413,215.531 162.413,72.917 162.413,72.917 C162.413,72.917 137.756,72.917 137.756,72.917 Z" id="path-3" class="cls-5" fill-rule="evenodd"/>
    <path d="M99.508,124.135 C99.508,114.043 91.316,105.862 81.210,105.862 C71.104,105.862 62.911,114.043 62.911,124.135 C62.911,129.517 65.256,134.340 68.963,137.684 C68.963,137.684 62.565,182.071 62.565,182.071 C62.565,182.071 99.855,182.071 99.855,182.071 C99.855,182.071 92.514,138.486 92.514,138.486 C96.767,135.139 99.508,129.962 99.508,124.135 Z" id="path-4" class="cls-6" fill-rule="evenodd"/>
    <path d="M92.514,138.487 C96.768,135.139 99.508,129.962 99.508,124.135 C99.508,114.043 91.316,105.862 81.210,105.862 C79.210,105.862 77.321,106.262 75.520,106.855 C82.821,109.254 88.128,116.040 88.128,124.135 C88.128,129.962 85.387,135.139 81.133,138.487 C81.133,138.487 88.475,182.070 88.475,182.070 C88.475,182.070 99.855,182.070 99.855,182.070 C99.855,182.070 92.514,138.487 92.514,138.487 Z" id="path-5" class="cls-5" fill-rule="evenodd"/>
    <path d="M15.559,190.912 C13.576,190.912 11.967,189.303 11.967,187.319 C11.967,187.319 11.967,109.755 11.967,109.755 C11.967,107.771 13.576,106.162 15.559,106.162 C17.544,106.162 19.152,107.771 19.152,109.755 C19.152,109.755 19.152,187.319 19.152,187.319 C19.152,189.303 17.544,190.912 15.559,190.912 Z" id="path-6" class="cls-8" fill-rule="evenodd"/>
  </g>
</svg>
