<svg xmlns="http://www.w3.org/2000/svg" xmlns:xlink="http://www.w3.org/1999/xlink" preserveAspectRatio="xMidYMid" width="216" height="177" viewBox="0 0 216 177">
  <defs>
    <style>

      .cls-3 {
        fill: #2476ff;
      }

      .cls-4 {
        fill: #000000;
        opacity: 0.35;
      }
    </style>
  </defs>
  <g id="group-143svg">
    <path d="M71.763,176.896 C48.810,176.896 25.464,170.326 2.366,157.349 C0.426,156.260 -0.480,153.945 0.206,151.822 C0.892,149.707 2.897,148.408 5.203,148.609 C22.564,150.631 40.904,146.503 54.640,138.433 C38.753,134.698 25.913,124.386 19.140,109.405 C18.382,107.729 18.674,105.763 19.891,104.380 C21.090,102.998 23.021,102.448 24.778,102.990 C26.783,103.613 28.823,104.042 30.800,104.280 C18.747,97.087 5.834,83.305 5.834,62.669 C5.834,60.858 6.877,59.211 8.507,58.442 C10.145,57.655 12.075,57.892 13.475,59.036 C14.977,60.264 16.588,61.287 18.244,62.093 C14.794,57.416 11.801,51.613 10.099,45.061 C6.979,33.037 8.781,20.865 15.315,9.857 C16.093,8.530 17.485,7.679 19.013,7.569 C20.513,7.404 22.032,8.109 23.003,9.317 C36.794,26.549 61.302,47.367 100.718,51.175 C99.996,38.702 103.739,18.258 120.963,8.201 C142.002,-4.100 162.638,-2.488 180.045,12.766 C187.806,11.039 200.060,5.721 202.595,3.945 C204.223,2.810 206.356,2.819 207.967,3.936 C209.577,5.062 210.319,7.075 209.816,8.977 C208.644,13.398 205.999,18.303 202.695,22.696 C205.313,21.918 207.509,21.131 208.680,20.528 C210.566,19.566 212.844,19.970 214.290,21.525 C215.719,23.089 215.920,25.404 214.795,27.199 C209.276,35.911 200.371,44.028 194.412,48.419 C196.802,77.668 184.968,109.862 162.419,135.129 C138.368,162.062 106.182,176.896 71.781,176.896 C71.781,176.896 71.763,176.896 71.763,176.896 Z" id="path-1" class="cls-3" fill-rule="evenodd"/>
    <path d="M170.704,15.662 C173.466,15.048 176.797,13.969 180.057,12.766 C167.895,2.404 154.188,-1.217 142.032,0.526 C150.869,1.861 162.907,8.831 170.704,15.662 Z" id="path-2" class="cls-4" fill-rule="evenodd"/>
    <path d="M101.024,53.157 C100.988,52.521 100.971,51.851 100.958,51.175 C68.957,50.599 36.776,27.699 23.003,9.317 C22.073,8.077 20.513,7.404 19.013,7.569 C17.485,7.679 16.093,8.530 15.316,9.857 C14.635,11.004 14.036,12.170 13.458,13.340 C34.231,48.951 64.631,49.642 101.024,53.157 Z" id="path-3" class="cls-4" fill-rule="evenodd"/>
    <path d="M214.291,21.525 C212.844,19.970 210.566,19.566 208.680,20.528 C207.509,21.131 205.313,21.918 202.695,22.696 C205.999,18.303 208.644,13.398 209.816,8.977 C210.319,7.074 209.577,5.062 207.967,3.936 C206.356,2.819 204.223,2.810 202.595,3.945 C201.703,4.569 199.570,5.643 196.888,6.834 C197.034,7.534 197.074,8.257 196.883,8.977 C195.712,13.398 193.067,18.303 189.763,22.696 C192.380,21.918 194.577,21.131 195.748,20.528 C197.634,19.566 199.912,19.970 201.358,21.525 C202.786,23.089 202.988,25.404 201.862,27.200 C196.343,35.911 187.438,44.028 181.481,48.419 C183.869,77.668 172.036,109.862 149.487,135.129 C127.057,160.246 97.550,174.829 65.771,176.683 C67.770,176.781 69.770,176.896 71.763,176.896 C71.763,176.896 71.781,176.896 71.781,176.896 C106.182,176.896 138.368,162.062 162.419,135.129 C184.968,109.862 196.802,77.668 194.413,48.419 C200.371,44.028 209.276,35.911 214.795,27.200 C215.920,25.404 215.719,23.089 214.291,21.525 Z" id="path-4" class="cls-4" fill-rule="evenodd"/>
  </g>
</svg>
