<svg xmlns="http://www.w3.org/2000/svg" xmlns:xlink="http://www.w3.org/1999/xlink" preserveAspectRatio="xMidYMid" width="216" height="189" viewBox="0 0 216 189">
  <defs>
    <style>

      .cls-3 {
        fill: #142a3b;
      }

      .cls-4 {
        fill: #000000;
        opacity: 0.35;
      }

      .cls-5 {
        fill: #ff3a2f;
      }

      .cls-6 {
        fill: #2476ff;
      }
    </style>
  </defs>
  <g id="group-122svg">
    <path d="M17.949,53.878 C17.949,53.878 8.969,53.878 8.969,53.878 C8.969,53.878 8.969,188.585 8.969,188.585 C8.969,188.585 206.547,188.585 206.547,188.585 C206.547,188.585 206.547,53.878 206.547,53.878 C206.547,53.878 197.566,53.878 197.566,53.878 C197.566,53.878 17.949,53.878 17.949,53.878 Z" id="path-1" class="cls-3" fill-rule="evenodd"/>
    <path d="M17.949,57.246 C17.949,57.246 8.969,57.246 8.969,57.246 C8.969,57.246 8.969,70.948 8.969,70.948 C8.969,70.948 206.547,81.051 206.547,81.051 C206.547,81.051 206.547,57.246 206.547,57.246 C206.547,57.246 197.566,57.246 197.566,57.246 C197.566,57.246 17.949,57.246 17.949,57.246 Z" id="path-2" class="cls-4" fill-rule="evenodd"/>
    <path d="M-0.012,-0.005 C-0.012,-0.005 -0.012,62.858 -0.012,62.858 C-0.012,62.858 8.969,62.858 8.969,62.858 C8.969,62.858 17.949,62.858 17.949,62.858 C17.949,62.858 197.566,62.858 197.566,62.858 C197.566,62.858 206.547,62.858 206.547,62.858 C206.547,62.858 215.528,62.858 215.528,62.858 C215.528,62.858 215.528,-0.005 215.528,-0.005 C215.528,-0.005 -0.012,-0.005 -0.012,-0.005 Z" id="path-3" class="cls-5" fill-rule="evenodd"/>
    <path d="M80.815,80.811 C80.815,80.811 134.700,80.811 134.700,80.811 C139.655,80.811 143.681,84.836 143.681,89.791 C143.681,94.745 139.655,98.772 134.700,98.772 C134.700,98.772 80.815,98.772 80.815,98.772 C75.860,98.772 71.834,94.745 71.834,89.791 C71.834,84.836 75.860,80.811 80.815,80.811 Z" id="path-4" class="cls-6" fill-rule="evenodd"/>
    <path d="M134.700,80.811 C134.700,80.811 80.815,80.811 80.815,80.811 C76.639,80.811 73.156,83.681 72.153,87.546 C72.153,87.546 124.597,87.546 124.597,87.546 C129.552,87.546 133.578,91.571 133.578,96.525 C133.578,97.305 133.447,98.049 133.259,98.770 C133.259,98.770 134.700,98.770 134.700,98.770 C139.655,98.770 143.681,94.745 143.681,89.791 C143.681,84.836 139.655,80.811 134.700,80.811 Z" id="path-5" class="cls-4" fill-rule="evenodd"/>
  </g>
</svg>
