<svg xmlns="http://www.w3.org/2000/svg" xmlns:xlink="http://www.w3.org/1999/xlink" preserveAspectRatio="xMidYMid" width="188" height="216" viewBox="0 0 188 216">
  <defs>
    <style>

      .cls-3 {
        fill: #fbb713;
      }

      .cls-4 {
        fill: #000000;
        opacity: 0.25;
      }

      .cls-6 {
        fill: #0cb04a;
      }

      .cls-8 {
        fill: #ededed;
      }
    </style>
  </defs>
  <g id="group-120svg">
    <path d="M83.097,66.991 C83.097,66.991 81.174,46.464 88.996,27.966 C77.916,29.808 68.607,36.613 63.600,45.936 C57.827,42.000 50.803,39.666 43.194,39.666 C23.644,39.666 -0.001,54.957 -0.001,73.828 C-0.001,73.828 0.810,170.026 26.730,204.039 C26.730,204.039 46.008,231.278 69.823,201.837 C77.272,211.596 89.994,212.858 91.624,212.858 C91.624,212.858 95.746,212.870 95.746,212.870 C97.381,212.870 110.098,211.616 117.552,201.850 C141.366,231.298 160.650,204.053 160.650,204.053 C186.571,170.040 187.433,73.828 187.433,73.828 C187.433,54.957 163.792,39.666 144.239,39.666 C137.467,39.666 131.158,41.528 125.781,44.713 C122.846,39.744 118.656,35.574 113.632,32.567 C112.034,34.211 110.669,36.007 109.504,37.891 C101.347,51.078 102.976,68.585 102.976,68.585 C102.976,68.585 102.976,68.585 102.976,68.585 " id="path-1" class="cls-3" fill-rule="evenodd"/>
    <path d="M163.813,44.215 C167.820,49.172 170.316,54.887 170.316,60.990 C170.316,60.990 169.453,157.202 143.534,191.215 C143.534,191.215 132.849,206.289 117.570,201.872 C141.376,231.283 160.650,204.052 160.650,204.052 C186.571,170.040 187.434,73.828 187.434,73.828 C187.434,61.148 176.749,50.108 163.813,44.215 Z" id="path-2" class="cls-4" fill-rule="evenodd"/>
    <path d="M65.963,42.195 C65.534,49.292 65.979,54.152 65.979,54.152 C65.979,54.152 83.054,55.523 83.054,55.523 C83.474,47.953 84.883,37.693 88.996,27.966 C79.465,29.550 71.263,34.823 65.963,42.195 Z" id="path-3" class="cls-4" fill-rule="evenodd"/>
    <path d="M93.960,81.840 C93.823,81.840 93.688,81.832 93.552,81.817 C92.085,81.648 90.869,80.602 90.489,79.176 C87.003,66.151 68.277,67.534 68.090,67.543 C66.102,67.724 64.378,66.232 64.217,64.256 C64.055,62.278 65.527,60.544 67.504,60.383 C68.386,60.310 86.498,59.002 94.546,70.907 C103.280,60.370 115.298,60.370 119.636,60.370 C121.620,60.370 123.229,61.980 123.229,63.964 C123.229,65.947 121.620,67.555 119.636,67.555 C114.872,67.555 103.713,67.555 97.130,79.935 C96.502,81.116 95.276,81.840 93.960,81.840 Z" id="path-4" class="cls-6" fill-rule="evenodd"/>
    <path d="M121.339,0.306 C103.840,4.098 94.236,15.577 88.996,27.966 C82.905,42.372 82.723,58.008 82.941,64.221 C83.008,66.138 83.879,67.922 85.402,69.086 C88.203,71.226 93.280,73.880 99.082,71.184 C101.398,70.107 102.861,67.759 102.844,65.205 C102.802,58.351 103.860,42.621 113.632,32.567 C116.057,30.069 119.015,27.919 122.637,26.342 C145.314,16.472 133.005,-2.636 121.339,0.306 Z" id="path-5" class="cls-6" fill-rule="evenodd"/>
    <path d="M16.844,110.972 C14.860,110.972 13.252,109.364 13.252,107.380 C13.252,107.380 13.252,88.302 13.252,88.302 C10.607,72.496 22.721,63.254 29.542,60.564 C31.387,59.834 33.475,60.743 34.201,62.588 C34.927,64.427 34.027,66.510 32.189,67.242 C32.189,67.242 32.189,67.242 32.189,67.242 C31.603,67.477 17.844,73.201 20.380,87.360 C20.380,87.360 20.437,87.993 20.437,87.993 C20.437,87.993 20.437,107.380 20.437,107.380 C20.437,109.364 18.828,110.972 16.844,110.972 Z" id="path-6" class="cls-8" fill-rule="evenodd"/>
    <path d="M100.434,189.013 C92.981,198.777 80.263,200.033 78.629,200.033 C78.629,200.033 74.507,200.020 74.507,200.020 C72.876,200.020 60.155,198.758 52.705,189.000 C42.339,201.814 32.834,203.887 25.403,202.144 C25.843,202.780 26.274,203.441 26.730,204.039 C26.730,204.039 46.008,231.278 69.823,201.837 C77.272,211.596 89.994,212.858 91.624,212.858 C91.624,212.858 95.746,212.872 95.746,212.872 C97.379,212.872 110.086,211.616 117.539,201.863 C112.295,200.339 106.514,196.531 100.434,189.013 Z" id="path-7" class="cls-4" fill-rule="evenodd"/>
  </g>
</svg>
