<svg xmlns="http://www.w3.org/2000/svg" xmlns:xlink="http://www.w3.org/1999/xlink" preserveAspectRatio="xMidYMid" width="216" height="216" viewBox="0 0 216 216">
  <defs>
    <style>

      .cls-3 {
        fill: #ff3a2f;
      }

      .cls-4 {
        fill: #fbb713;
      }

      .cls-5 {
        fill: #000000;
        opacity: 0.35;
      }

      .cls-15 {
        fill: #142a3b;
      }
    </style>
  </defs>
  <g id="group-144svg">
    <path d="M107.771,-0.013 C48.255,-0.013 0.001,48.239 0.001,107.754 C0.001,167.268 48.255,215.520 107.771,215.520 C167.286,215.520 215.541,167.268 215.541,107.754 C215.541,48.239 167.286,-0.013 107.771,-0.013 C107.771,-0.013 107.771,-0.013 107.771,-0.013 Z" id="path-1" class="cls-3" fill-rule="evenodd"/>
    <path d="M107.771,17.949 C58.166,17.949 17.963,58.150 17.963,107.754 C17.963,157.357 58.166,197.559 107.771,197.559 C157.367,197.559 197.579,157.357 197.579,107.754 C197.579,58.150 157.367,17.949 107.771,17.949 C107.771,17.949 107.771,17.949 107.771,17.949 Z" id="path-2" class="cls-4" fill-rule="evenodd"/>
    <path d="M143.211,25.238 C170.500,40.647 188.958,69.866 188.958,103.443 C188.958,153.046 148.746,193.248 99.149,193.248 C86.557,193.248 74.581,190.636 63.705,185.958 C76.730,193.313 91.744,197.559 107.771,197.559 C157.367,197.559 197.579,157.357 197.579,107.754 C197.579,70.743 175.180,38.986 143.211,25.238 Z" id="path-3" class="cls-5" fill-rule="evenodd"/>
    <circle id="circle-1" class="cls-3" cx="108" cy="45" r="14"/>
    <circle id="circle-2" class="cls-3" cx="108" cy="171" r="14"/>
    <circle id="circle-3" class="cls-3" cx="45" cy="108" r="14"/>
    <circle id="circle-4" class="cls-3" cx="171" cy="108" r="14"/>
    <path d="M63.323,76.779 C59.727,76.779 56.342,75.374 53.798,72.831 C51.250,70.278 49.847,66.893 49.847,63.298 C49.852,59.702 51.255,56.316 53.802,53.781 C58.880,48.696 67.761,48.696 72.847,53.781 C78.101,59.035 78.101,67.578 72.847,72.831 C70.304,75.374 66.919,76.779 63.323,76.779 Z" id="path-4" class="cls-3" fill-rule="evenodd"/>
    <path d="M152.223,165.671 C148.627,165.671 145.242,164.267 142.694,161.724 C137.446,156.488 137.441,147.947 142.690,142.675 C147.803,137.590 156.665,137.590 161.752,142.675 C167.005,147.929 167.005,156.471 161.752,161.724 C159.204,164.267 155.824,165.671 152.223,165.671 Z" id="path-5" class="cls-3" fill-rule="evenodd"/>
    <path d="M63.319,165.671 C59.718,165.671 56.337,164.267 53.793,161.724 C51.255,159.190 49.852,155.805 49.847,152.209 C49.847,148.612 51.250,145.228 53.798,142.675 C58.885,137.590 67.761,137.590 72.847,142.675 C78.101,147.947 78.096,156.488 72.843,161.724 C70.300,164.267 66.919,165.671 63.319,165.671 Z" id="path-6" class="cls-3" fill-rule="evenodd"/>
    <path d="M152.223,76.779 C148.627,76.779 145.246,75.374 142.699,72.831 C137.441,67.578 137.441,59.035 142.694,53.781 C147.799,48.696 156.652,48.696 161.747,53.781 C167.005,59.035 167.005,67.578 161.752,72.831 C159.200,75.374 155.819,76.779 152.223,76.779 Z" id="path-7" class="cls-3" fill-rule="evenodd"/>
    <circle id="circle-5" class="cls-3" cx="108" cy="108" r="14"/>
    <path d="M95.616,78.598 C94.696,78.598 93.777,78.247 93.076,77.545 C93.076,77.545 84.095,68.565 84.095,68.565 C82.692,67.161 82.692,64.888 84.095,63.485 C85.498,62.082 87.771,62.082 89.175,63.485 C89.175,63.485 98.156,72.466 98.156,72.466 C99.559,73.869 99.559,76.142 98.156,77.545 C97.454,78.247 96.535,78.598 95.616,78.598 Z" id="path-8" class="cls-15" fill-rule="evenodd"/>
    <path d="M113.577,72.249 C112.658,72.249 111.739,71.898 111.037,71.196 C109.634,69.792 109.634,67.519 111.037,66.116 C111.037,66.116 120.018,57.135 120.018,57.135 C121.421,55.732 123.695,55.732 125.098,57.135 C126.501,58.538 126.501,60.812 125.098,62.216 C125.098,62.216 116.117,71.196 116.117,71.196 C115.415,71.898 114.496,72.249 113.577,72.249 Z" id="path-9" class="cls-15" fill-rule="evenodd"/>
    <path d="M68.673,105.539 C67.754,105.539 66.835,105.189 66.133,104.486 C66.133,104.486 57.152,95.507 57.152,95.507 C55.749,94.103 55.749,91.830 57.152,90.427 C58.556,89.023 60.829,89.023 62.232,90.427 C62.232,90.427 71.213,99.407 71.213,99.407 C72.616,100.810 72.616,103.083 71.213,104.486 C70.511,105.189 69.592,105.539 68.673,105.539 Z" id="path-10" class="cls-15" fill-rule="evenodd"/>
    <path d="M74.351,129.306 C74.351,129.306 65.370,129.306 65.370,129.306 C63.386,129.306 61.778,127.697 61.778,125.715 C61.778,123.729 63.386,122.121 65.370,122.121 C65.370,122.121 74.351,122.121 74.351,122.121 C76.334,122.121 77.943,123.729 77.943,125.715 C77.943,127.697 76.334,129.306 74.351,129.306 Z" id="path-11" class="cls-15" fill-rule="evenodd"/>
    <path d="M101.294,147.267 C99.310,147.267 97.701,145.658 97.701,143.674 C97.701,143.674 97.701,134.694 97.701,134.694 C97.701,132.712 99.310,131.102 101.294,131.102 C103.277,131.102 104.886,132.712 104.886,134.694 C104.886,134.694 104.886,143.674 104.886,143.674 C104.886,145.658 103.277,147.267 101.294,147.267 Z" id="path-12" class="cls-15" fill-rule="evenodd"/>
    <path d="M146.198,129.306 C146.198,129.306 137.217,129.306 137.217,129.306 C135.233,129.306 133.625,127.697 133.625,125.715 C133.625,123.729 135.233,122.121 137.217,122.121 C137.217,122.121 146.198,122.121 146.198,122.121 C148.181,122.121 149.790,123.729 149.790,125.715 C149.790,127.697 148.181,129.306 146.198,129.306 Z" id="path-13" class="cls-15" fill-rule="evenodd"/>
    <path d="M131.539,108.170 C130.620,108.170 129.701,107.819 128.999,107.118 C127.596,105.715 127.596,103.442 128.999,102.038 C128.999,102.038 137.980,93.057 137.980,93.057 C139.383,91.655 141.656,91.655 143.060,93.057 C144.463,94.461 144.463,96.734 143.060,98.137 C143.060,98.137 134.079,107.118 134.079,107.118 C133.377,107.819 132.458,108.170 131.539,108.170 Z" id="path-14" class="cls-15" fill-rule="evenodd"/>
  </g>
</svg>
