<svg xmlns="http://www.w3.org/2000/svg" xmlns:xlink="http://www.w3.org/1999/xlink" preserveAspectRatio="xMidYMid" width="216" height="216" viewBox="0 0 216 216">
  <defs>
    <style>

      .cls-3 {
        fill: #fbb713;
      }

      .cls-4 {
        fill: #ededed;
      }

      .cls-13 {
        fill: #000000;
        opacity: 0.35;
      }
    </style>
  </defs>
  <g id="group-158svg">
    <path d="M63.503,214.140 C46.669,218.139 28.219,213.573 15.086,200.449 C1.954,187.317 -2.608,168.860 1.391,152.029 C1.391,152.029 152.018,1.412 152.018,1.412 C152.018,1.412 152.018,1.408 152.018,1.408 C168.853,-2.591 187.302,1.975 200.435,15.107 C213.568,28.236 218.130,46.689 214.131,63.517 C214.131,63.517 63.503,214.140 63.503,214.140 Z" id="path-1" class="cls-3" fill-rule="evenodd"/>
    <path d="M46.885,145.906 C45.483,145.906 44.082,145.332 43.077,144.325 C42.070,143.321 41.496,141.955 41.496,140.517 C41.496,139.118 42.070,137.716 43.077,136.712 C45.123,134.700 48.681,134.700 50.693,136.712 C51.698,137.716 52.273,139.118 52.273,140.517 C52.273,141.955 51.698,143.321 50.693,144.325 C49.686,145.332 48.321,145.906 46.885,145.906 Z" id="path-2" class="cls-4" fill-rule="evenodd"/>
    <path d="M75.011,174.033 C73.574,174.033 72.210,173.459 71.205,172.452 C70.198,171.447 69.623,170.046 69.623,168.645 C69.623,167.209 70.198,165.844 71.205,164.836 C73.215,162.826 76.807,162.826 78.819,164.836 C79.826,165.844 80.399,167.209 80.399,168.645 C80.399,170.046 79.826,171.447 78.819,172.452 C77.814,173.459 76.413,174.033 75.011,174.033 Z" id="path-3" class="cls-4" fill-rule="evenodd"/>
    <path d="M28.169,164.658 C26.730,164.658 25.330,164.082 24.324,163.078 C23.319,162.071 22.780,160.671 22.780,159.269 C22.780,157.867 23.319,156.468 24.324,155.460 C26.373,153.448 29.928,153.448 31.975,155.460 C32.982,156.468 33.520,157.833 33.520,159.269 C33.520,160.671 32.982,162.071 31.975,163.078 C30.970,164.082 29.569,164.658 28.169,164.658 Z" id="path-4" class="cls-4" fill-rule="evenodd"/>
    <path d="M56.260,192.784 C54.824,192.784 53.457,192.174 52.452,191.204 C51.447,190.197 50.872,188.798 50.872,187.397 C50.872,185.959 51.447,184.558 52.452,183.553 C54.464,181.576 58.056,181.542 60.068,183.553 C61.073,184.558 61.649,185.959 61.649,187.397 C61.649,188.798 61.073,190.197 60.068,191.204 C59.061,192.174 57.697,192.784 56.260,192.784 Z" id="path-5" class="cls-4" fill-rule="evenodd"/>
    <path d="M159.252,33.541 C157.851,33.541 156.451,32.966 155.444,31.961 C154.439,30.956 153.863,29.590 153.863,28.153 C153.863,26.752 154.439,25.352 155.444,24.346 C157.456,22.333 161.048,22.333 163.060,24.346 C164.065,25.352 164.641,26.752 164.641,28.153 C164.641,29.590 164.065,30.956 163.060,31.961 C162.053,32.966 160.688,33.541 159.252,33.541 Z" id="path-6" class="cls-4" fill-rule="evenodd"/>
    <path d="M187.381,61.669 C185.944,61.669 184.577,61.093 183.572,60.089 C182.568,59.082 181.992,57.682 181.992,56.281 C181.992,54.844 182.568,53.478 183.572,52.473 C185.584,50.461 189.176,50.461 191.188,52.473 C192.193,53.478 192.769,54.844 192.769,56.281 C192.769,57.682 192.193,59.082 191.188,60.089 C190.181,61.093 188.781,61.669 187.381,61.669 Z" id="path-7" class="cls-4" fill-rule="evenodd"/>
    <path d="M140.501,52.294 C139.100,52.294 137.698,51.719 136.693,50.712 C135.723,49.706 135.112,48.342 135.112,46.905 C135.112,45.504 135.723,44.103 136.693,43.098 C138.705,41.084 142.297,41.084 144.344,43.098 C145.314,44.103 145.889,45.504 145.889,46.905 C145.889,48.342 145.314,49.706 144.344,50.712 C143.337,51.719 141.938,52.294 140.501,52.294 Z" id="path-8" class="cls-4" fill-rule="evenodd"/>
    <path d="M168.628,80.419 C167.228,80.419 165.826,79.846 164.819,78.839 C163.814,77.834 163.239,76.431 163.239,75.030 C163.239,73.594 163.814,72.230 164.819,71.225 C166.832,69.213 170.460,69.213 172.436,71.225 C173.442,72.230 174.016,73.594 174.016,75.030 C174.016,76.431 173.442,77.834 172.436,78.839 C171.430,79.846 170.066,80.419 168.628,80.419 Z" id="path-9" class="cls-4" fill-rule="evenodd"/>
    <path d="M90.198,148.096 C90.198,148.096 65.636,123.533 65.636,123.533 C65.636,123.533 123.618,65.554 123.618,65.554 C123.618,65.554 148.180,90.116 148.180,90.116 C148.180,90.116 90.198,148.096 90.198,148.096 Z" id="path-10" class="cls-3" fill-rule="evenodd"/>
    <path d="M90.198,148.096 C90.198,148.096 65.636,123.533 65.636,123.533 C65.636,123.533 123.618,65.554 123.618,65.554 C123.618,65.554 148.180,90.116 148.180,90.116 C148.180,90.116 90.198,148.096 90.198,148.096 Z" id="path-11" class="cls-13" fill-rule="evenodd"/>
  </g>
</svg>
