<svg xmlns="http://www.w3.org/2000/svg" xmlns:xlink="http://www.w3.org/1999/xlink" preserveAspectRatio="xMidYMid" width="129" height="215" viewBox="0 0 129 215">
  <defs>
    <style>

      .cls-3 {
        fill: #142a3b;
      }

      .cls-4 {
        fill: #fbb713;
      }

      .cls-5 {
        fill: #ededed;
      }

      .cls-6 {
        fill: #ff3a2f;
      }

      .cls-9 {
        fill: #000000;
        opacity: 0.35;
      }

      .cls-11 {
        fill: #000000;
        opacity: 0.25;
      }

      .cls-15 {
        fill: #ffffff;
      }
    </style>
  </defs>
  <g id="group-100svg">
    <path d="M128.687,131.754 C128.687,131.754 103.817,131.754 103.817,131.754 C100.840,131.754 98.428,129.230 98.428,126.255 C98.428,123.278 100.840,120.755 103.817,120.755 C103.817,120.755 117.687,120.755 117.687,120.755 C117.687,120.755 117.687,73.757 117.687,73.757 C117.687,73.757 111.001,73.757 111.001,73.757 C108.025,73.757 105.613,71.733 105.613,68.755 C105.613,65.780 108.025,63.756 111.001,63.756 C111.001,63.756 128.687,63.756 128.687,63.756 C128.687,63.756 128.687,131.754 128.687,131.754 Z" id="path-1" class="cls-3" fill-rule="evenodd"/>
    <path d="M99.244,160.753 C99.244,160.753 16.338,160.753 16.338,160.753 C16.338,160.753 3.266,214.751 3.266,214.751 C3.266,214.751 112.315,214.751 112.315,214.751 C112.315,214.751 99.244,160.753 99.244,160.753 ZM58.806,201.760 C51.440,201.760 45.467,195.865 45.467,188.596 C45.467,181.326 51.440,175.431 58.806,175.431 C66.173,175.431 72.145,181.326 72.145,188.596 C72.145,195.865 66.173,201.760 58.806,201.760 Z" id="path-2" class="cls-4" fill-rule="evenodd"/>
    <path d="M112.316,45.757 C112.316,45.757 3.266,45.757 3.266,45.757 C3.266,45.757 16.338,145.753 16.338,145.753 C16.338,145.753 99.244,145.753 99.244,145.753 C99.244,145.753 112.316,45.757 112.316,45.757 Z" id="path-3" class="cls-5" fill-rule="evenodd"/>
    <path d="M103.572,113.512 C98.942,105.241 94.001,97.572 83.611,95.159 C72.741,94.058 59.174,96.641 45.467,99.260 C29.920,98.928 17.492,92.618 7.277,82.926 C7.277,82.926 16.338,145.753 16.338,145.753 C16.338,145.753 99.244,145.753 99.244,145.753 C99.244,145.753 103.572,113.512 103.572,113.512 Z" id="path-4" class="cls-6" fill-rule="evenodd"/>
    <path d="M72.145,188.596 C72.145,195.865 66.173,201.759 58.806,201.759 C51.439,201.759 45.467,195.865 45.467,188.596 C45.467,181.326 51.439,175.433 58.806,175.433 C66.173,175.433 72.145,181.326 72.145,188.596 Z" id="path-5" class="cls-3" fill-rule="evenodd"/>
    <path d="M110.036,19.839 C110.036,19.839 1.979,34.324 1.979,34.324 C1.979,34.324 -0.000,19.944 -0.000,19.944 C-0.000,19.944 108.056,5.460 108.056,5.460 C108.056,5.460 110.036,19.839 110.036,19.839 Z" id="path-6" class="cls-4" fill-rule="evenodd"/>
    <path d="M55.421,175.799 C54.334,175.517 53.213,175.318 52.035,175.318 C44.668,175.318 38.696,181.212 38.696,188.481 C38.696,195.752 44.668,201.646 52.035,201.646 C53.213,201.646 54.334,201.448 55.421,201.166 C49.704,199.678 45.467,194.590 45.467,188.481 C45.467,182.374 49.704,177.285 55.421,175.799 Z" id="path-7" class="cls-9" fill-rule="evenodd"/>
    <path d="M99.244,160.292 C99.244,160.292 92.473,160.292 92.473,160.292 C92.473,160.292 104.755,214.176 104.755,214.176 C104.755,214.176 112.315,214.176 112.315,214.176 C112.315,214.176 99.244,160.292 99.244,160.292 Z" id="path-8" class="cls-9" fill-rule="evenodd"/>
    <path d="M97.466,45.037 C97.466,45.037 89.022,110.404 89.022,110.404 C87.124,125.103 74.564,136.109 59.689,136.109 C59.689,136.109 15.031,136.109 15.031,136.109 C15.031,136.109 16.338,146.228 16.338,146.228 C16.338,146.228 99.244,146.228 99.244,146.228 C99.244,146.228 112.316,45.037 112.316,45.037 C112.316,45.037 97.466,45.037 97.466,45.037 Z" id="path-9" class="cls-11" fill-rule="evenodd"/>
    <path d="M83.611,94.786 C72.741,93.684 59.174,96.397 45.467,99.017 C29.920,98.684 17.492,91.919 7.277,82.227 C7.277,82.227 9.099,94.767 9.099,94.767 C16.724,99.318 25.374,102.177 35.310,102.389 C49.017,99.769 62.584,97.058 73.454,98.158 C83.845,100.571 88.785,107.980 93.416,116.250 C93.416,116.250 88.732,145.924 88.732,145.924 C88.732,145.924 98.428,145.924 98.428,145.924 C98.428,145.924 103.572,112.876 103.572,112.876 C98.942,104.606 94.001,97.198 83.611,94.786 Z" id="path-10" class="cls-9" fill-rule="evenodd"/>
    <path d="M108.056,5.347 C108.056,5.347 101.864,6.176 101.864,6.176 C101.864,6.176 103.265,16.353 103.265,16.353 C103.265,16.353 1.401,30.007 1.401,30.007 C1.401,30.007 1.979,34.211 1.979,34.211 C1.979,34.211 110.036,19.726 110.036,19.726 C110.036,19.726 108.056,5.347 108.056,5.347 Z" id="path-11" class="cls-11" fill-rule="evenodd"/>
    <path d="M37.895,11.133 C36.123,11.133 34.582,9.822 34.340,8.018 C34.076,6.051 35.457,4.242 37.423,3.980 C37.423,3.980 66.786,0.046 66.786,0.046 C68.746,-0.202 70.561,1.161 70.824,3.129 C71.088,5.095 69.707,6.904 67.740,7.167 C67.740,7.167 38.378,11.100 38.378,11.100 C38.216,11.122 38.055,11.133 37.895,11.133 Z" id="path-12" class="cls-3" fill-rule="evenodd"/>
    <path d="M27.925,122.430 C26.227,122.430 24.717,121.223 24.396,119.494 C24.396,119.494 15.085,69.360 15.085,69.360 C14.724,67.411 16.011,65.535 17.962,65.172 C19.900,64.813 21.787,66.097 22.150,68.049 C22.150,68.049 31.461,118.182 31.461,118.182 C31.823,120.132 30.535,122.008 28.584,122.371 C28.363,122.410 28.143,122.430 27.925,122.430 Z" id="path-13" class="cls-15" fill-rule="evenodd"/>
  </g>
</svg>
