<svg xmlns="http://www.w3.org/2000/svg" xmlns:xlink="http://www.w3.org/1999/xlink" preserveAspectRatio="xMidYMid" width="216" height="171" viewBox="0 0 216 171">
  <defs>
    <style>

      .cls-3 {
        fill: #0cb04a;
      }

      .cls-4 {
        fill: #000000;
        opacity: 0.35;
      }
    </style>
  </defs>
  <g id="group-78svg">
    <path d="M72.412,67.135 C72.412,67.135 143.150,67.135 143.150,67.135 C143.150,67.135 203.712,22.773 203.712,22.773 C203.712,22.773 11.850,22.773 11.850,22.773 C11.850,22.773 72.412,67.135 72.412,67.135 Z" id="path-1" class="cls-3" fill-rule="evenodd"/>
    <path d="M11.850,22.773 C11.850,22.773 17.635,27.010 17.635,27.010 C17.635,27.010 140.318,35.950 140.318,35.950 C146.008,36.365 148.099,43.643 143.496,47.013 C143.496,47.013 116.028,67.135 116.028,67.135 C116.028,67.135 143.150,67.135 143.150,67.135 C143.150,67.135 203.712,22.773 203.712,22.773 C203.712,22.773 11.850,22.773 11.850,22.773 Z" id="path-2" class="cls-4" fill-rule="evenodd"/>
    <path d="M83.993,67.042 C83.993,67.042 131.569,67.042 131.569,67.042 C131.569,67.042 131.569,170.536 131.569,170.536 C131.569,170.536 83.993,170.536 83.993,170.536 C83.993,170.536 83.993,67.042 83.993,67.042 Z" id="path-3" class="cls-3" fill-rule="evenodd"/>
    <path d="M83.993,67.042 C83.993,67.042 117.180,72.380 117.180,72.380 C117.180,72.380 117.180,170.536 117.180,170.536 C117.180,170.536 131.569,170.536 131.569,170.536 C131.569,170.536 131.569,67.043 131.569,67.043 C131.569,67.043 83.993,67.042 83.993,67.042 Z" id="path-4" class="cls-4" fill-rule="evenodd"/>
    <path d="M0.011,-0.004 C0.011,-0.004 215.551,-0.004 215.551,-0.004 C215.551,-0.004 215.551,22.773 215.551,22.773 C215.551,22.773 0.011,22.773 0.011,22.773 C0.011,22.773 0.011,-0.004 0.011,-0.004 Z" id="path-5" class="cls-3" fill-rule="evenodd"/>
  </g>
</svg>
