<svg xmlns="http://www.w3.org/2000/svg" xmlns:xlink="http://www.w3.org/1999/xlink" preserveAspectRatio="xMidYMid" width="216" height="215" viewBox="0 0 216 215">
  <defs>
    <style>

      .cls-3 {
        fill: #fbb713;
      }

      .cls-4 {
        fill: #ff3a2f;
      }

      .cls-5 {
        fill: #010101;
        opacity: 0.25;
      }

      .cls-6 {
        fill: #010101;
        opacity: 0.35;
      }

      .cls-7 {
        fill: #ffffff;
      }

      .cls-8 {
        fill: #090909;
        opacity: 0.35;
      }

      .cls-10 {
        fill: #142a3b;
      }

      .cls-13 {
        fill: #000000;
        opacity: 0.35;
      }
    </style>
  </defs>
  <g id="group-94svg">
    <path d="M215.554,170.379 C215.554,176.481 210.682,181.429 204.677,181.429 C204.677,181.429 150.278,181.429 150.278,181.429 C144.266,181.429 139.395,176.481 139.395,170.379 C139.395,170.379 139.395,92.149 139.395,92.149 C139.395,86.046 144.266,81.105 150.278,81.105 C150.278,81.105 204.677,81.105 204.677,81.105 C210.682,81.105 215.554,86.046 215.554,92.149 C215.554,92.149 215.554,170.379 215.554,170.379 Z" id="path-1" class="cls-3" fill-rule="evenodd"/>
    <path d="M177.473,46.099 C158.433,46.099 142.993,61.768 142.993,81.105 C142.993,81.105 211.956,81.105 211.956,81.105 C211.956,61.768 196.519,46.099 177.473,46.099 Z" id="path-2" class="cls-4" fill-rule="evenodd"/>
    <path d="M150.278,181.429 C150.278,181.429 156.351,181.429 156.351,181.429 C156.325,181.117 156.258,180.816 156.258,180.497 C156.258,180.497 156.258,102.266 156.258,102.266 C156.258,96.165 161.130,91.223 167.141,91.223 C167.141,91.223 215.462,91.223 215.462,91.223 C214.991,85.562 210.371,81.106 204.677,81.106 C204.677,81.106 150.278,81.106 150.278,81.106 C144.266,81.106 139.395,86.047 139.395,92.149 C139.395,92.149 139.395,170.379 139.395,170.379 C139.395,176.481 144.266,181.429 150.278,181.429 Z" id="path-3" class="cls-5" fill-rule="evenodd"/>
    <path d="M157.137,81.106 C160.235,64.999 174.196,52.844 190.964,52.844 C193.777,52.844 196.497,53.224 199.114,53.868 C193.196,49.016 185.674,46.099 177.473,46.099 C158.433,46.099 142.993,61.768 142.993,81.106 C142.993,81.106 157.137,81.106 157.137,81.106 Z" id="path-4" class="cls-6" fill-rule="evenodd"/>
    <path d="M204.070,74.716 C202.837,74.716 201.637,74.082 200.968,72.941 C199.273,70.053 196.833,67.630 193.908,65.935 C192.193,64.939 191.609,62.742 192.605,61.025 C193.600,59.309 195.797,58.727 197.515,59.722 C201.505,62.037 204.843,65.351 207.164,69.304 C208.169,71.016 207.595,73.215 205.885,74.220 C205.313,74.555 204.687,74.716 204.070,74.716 Z" id="path-5" class="cls-7" fill-rule="evenodd"/>
    <path d="M164.643,162.841 C163.032,162.841 161.726,161.537 161.726,159.925 C161.726,159.925 161.726,99.292 161.726,99.292 C161.726,97.680 163.032,96.375 164.643,96.375 C166.255,96.375 167.560,97.680 167.560,99.292 C167.560,99.292 167.560,159.925 167.560,159.925 C167.560,161.537 166.255,162.841 164.643,162.841 Z" id="path-6" class="cls-8" fill-rule="evenodd"/>
    <path d="M192.064,162.841 C190.453,162.841 189.148,161.537 189.148,159.925 C189.148,159.925 189.148,99.292 189.148,99.292 C189.148,97.680 190.453,96.375 192.064,96.375 C193.677,96.375 194.982,97.680 194.982,99.292 C194.982,99.292 194.982,159.925 194.982,159.925 C194.982,161.537 193.677,162.841 192.064,162.841 Z" id="path-7" class="cls-8" fill-rule="evenodd"/>
    <path d="M213.614,214.607 C213.614,214.607 0.014,214.607 0.014,214.607 C0.014,214.607 0.014,195.483 0.014,195.483 C0.014,195.483 213.614,195.483 213.614,195.483 C213.614,195.483 213.614,214.607 213.614,214.607 Z" id="path-8" class="cls-10" fill-rule="evenodd"/>
    <path d="M112.998,213.312 C112.998,213.312 100.631,213.312 100.631,213.312 C100.631,213.312 100.631,14.217 100.631,14.217 C100.631,14.217 112.998,14.217 112.998,14.217 C112.998,14.217 112.998,213.312 112.998,213.312 Z" id="path-9" class="cls-10" fill-rule="evenodd"/>
    <path d="M127.899,21.078 C127.899,32.722 118.459,42.162 106.814,42.162 C95.170,42.162 85.730,32.722 85.730,21.078 C85.730,9.433 95.170,-0.006 106.814,-0.006 C118.459,-0.006 127.899,9.433 127.899,21.078 Z" id="path-10" class="cls-10" fill-rule="evenodd"/>
    <path d="M106.814,-0.006 C105.472,-0.006 104.168,0.149 102.896,0.389 C112.663,2.229 120.061,10.775 120.061,21.079 C120.061,31.380 112.663,39.926 102.896,41.766 C104.168,42.006 105.472,42.162 106.814,42.162 C118.459,42.162 127.899,32.722 127.899,21.079 C127.899,9.433 118.459,-0.006 106.814,-0.006 Z" id="path-11" class="cls-13" fill-rule="evenodd"/>
    <path d="M59.525,47.974 C59.525,47.974 59.525,16.856 59.525,16.856 C59.525,16.856 39.290,16.856 39.290,16.856 C39.290,16.856 39.290,47.974 39.290,47.974 C39.290,50.710 38.528,53.390 37.090,55.716 C37.090,55.716 15.776,90.194 15.776,90.194 C14.338,92.521 13.576,95.202 13.576,97.937 C13.576,97.937 13.576,166.703 13.576,166.703 C13.576,174.836 20.169,181.429 28.302,181.429 C28.302,181.429 70.513,181.429 70.513,181.429 C78.646,181.429 85.238,174.836 85.238,166.703 C85.238,166.703 85.238,97.937 85.238,97.937 C85.238,95.202 84.477,92.521 83.039,90.194 C83.039,90.194 61.726,55.716 61.726,55.716 C60.287,53.390 59.525,50.710 59.525,47.974 Z" id="path-12" class="cls-4" fill-rule="evenodd"/>
    <path d="M83.039,90.194 C83.039,90.194 61.726,55.716 61.726,55.716 C60.287,53.390 59.525,50.710 59.525,47.974 C59.525,47.974 59.525,16.856 59.525,16.856 C59.525,16.856 51.688,16.856 51.688,16.856 C51.688,16.856 51.688,44.055 51.688,44.055 C51.688,46.790 52.449,49.471 53.888,51.797 C53.888,51.797 75.202,86.275 75.202,86.275 C76.640,88.601 77.401,91.283 77.401,94.018 C77.401,94.018 77.401,162.786 77.401,162.786 C77.401,170.918 70.808,177.511 62.675,177.511 C62.675,177.511 20.464,177.511 20.464,177.511 C19.646,177.511 18.857,177.398 18.075,177.269 C20.726,179.835 24.322,181.429 28.302,181.429 C28.302,181.429 70.513,181.429 70.513,181.429 C78.646,181.429 85.238,174.836 85.238,166.704 C85.238,166.704 85.238,97.937 85.238,97.937 C85.238,95.203 84.477,92.520 83.039,90.194 Z" id="path-13" class="cls-13" fill-rule="evenodd"/>
    <path d="M65.849,18.542 C65.849,18.542 32.966,18.542 32.966,18.542 C32.966,18.542 32.966,1.124 32.966,1.124 C32.966,1.124 65.849,1.124 65.849,1.124 C65.849,1.124 65.849,18.542 65.849,18.542 Z" id="path-14" class="cls-10" fill-rule="evenodd"/>
    <path d="M53.490,1.124 C53.490,1.124 53.490,18.542 53.490,18.542 C53.490,18.542 65.630,18.542 65.630,18.542 C65.630,18.542 65.630,1.124 65.630,1.124 C65.630,1.124 53.490,1.124 53.490,1.124 Z" id="path-15" class="cls-13" fill-rule="evenodd"/>
    <path d="M85.238,151.201 C85.238,151.201 33.881,151.201 33.881,151.201 C33.881,151.201 33.881,113.764 33.881,113.764 C33.881,113.764 85.238,113.764 85.238,113.764 C85.238,113.764 85.238,151.201 85.238,151.201 Z" id="path-16" class="cls-7" fill-rule="evenodd"/>
  </g>
</svg>
