<svg xmlns="http://www.w3.org/2000/svg" xmlns:xlink="http://www.w3.org/1999/xlink" preserveAspectRatio="xMidYMid" width="216" height="157" viewBox="0 0 216 157">
  <defs>
    <style>

      .cls-3 {
        fill: #ff3a2f;
      }

      .cls-6 {
        fill: #0cb04a;
      }
    </style>
  </defs>
  <g id="group-153svg">
    <circle id="circle-1" class="cls-3" cx="17" cy="17" r="17"/>
    <path d="M16.049,60.091 C7.183,60.091 -0.005,67.277 -0.005,76.144 C-0.005,85.009 7.183,92.197 16.049,92.197 C24.915,92.197 32.103,85.009 32.103,76.144 C32.103,67.277 24.915,60.091 16.049,60.091 Z" id="path-1" class="cls-3" fill-rule="evenodd"/>
    <path d="M16.049,124.302 C7.183,124.302 -0.005,131.489 -0.005,140.356 C-0.005,149.221 7.183,156.409 16.049,156.409 C24.915,156.409 32.103,149.221 32.103,140.356 C32.103,131.489 24.915,124.302 16.049,124.302 Z" id="path-2" class="cls-3" fill-rule="evenodd"/>
    <path d="M204.321,23.235 C204.321,23.235 69.229,23.235 69.229,23.235 C65.262,23.235 62.045,20.020 62.045,16.052 C62.045,12.084 65.262,8.867 69.229,8.867 C69.229,8.867 204.321,8.867 204.321,8.867 C208.289,8.867 211.505,12.084 211.505,16.052 C211.505,20.020 208.289,23.235 204.321,23.235 Z" id="path-3" class="cls-6" fill-rule="evenodd"/>
    <path d="M204.321,83.327 C204.321,83.327 69.229,83.327 69.229,83.327 C65.262,83.327 62.045,80.112 62.045,76.144 C62.045,72.176 65.262,68.959 69.229,68.959 C69.229,68.959 204.321,68.959 204.321,68.959 C208.289,68.959 211.505,72.176 211.505,76.144 C211.505,80.112 208.289,83.327 204.321,83.327 Z" id="path-4" class="cls-6" fill-rule="evenodd"/>
    <path d="M208.350,147.538 C208.350,147.538 73.261,147.538 73.261,147.538 C69.293,147.538 66.076,144.321 66.076,140.355 C66.076,136.387 69.293,133.171 73.261,133.171 C73.261,133.171 208.350,133.171 208.350,133.171 C212.317,133.171 215.534,136.387 215.534,140.355 C215.534,144.321 212.317,147.538 208.350,147.538 Z" id="path-5" class="cls-6" fill-rule="evenodd"/>
  </g>
</svg>
