<svg xmlns="http://www.w3.org/2000/svg" xmlns:xlink="http://www.w3.org/1999/xlink" preserveAspectRatio="xMidYMid" width="110" height="216" viewBox="0 0 110 216">
  <defs>
    <style>

      .cls-3 {
        fill: #142a3b;
      }

      .cls-4 {
        fill: #000000;
        opacity: 0.25;
      }

      .cls-5 {
        fill: #fbb713;
      }

      .cls-7 {
        fill: #ededed;
      }
    </style>
  </defs>
  <g id="group-52svg">
    <path d="M76.976,6.340 C76.976,2.837 74.516,0.000 71.476,0.000 C71.476,0.000 38.481,0.000 38.481,0.000 C35.441,0.000 32.982,2.837 32.982,6.340 C32.982,6.340 32.982,38.037 32.982,38.037 C32.982,38.037 76.976,38.037 76.976,38.037 C76.976,38.037 76.976,6.340 76.976,6.340 Z" id="path-1" class="cls-3" fill-rule="evenodd"/>
    <path d="M71.476,0.000 C71.476,0.000 54.233,0.000 54.233,0.000 C57.273,0.000 59.733,2.837 59.733,6.339 C59.733,6.339 59.733,38.036 59.733,38.036 C59.733,38.036 76.976,38.036 76.976,38.036 C76.976,38.036 76.976,6.339 76.976,6.339 C76.976,2.837 74.516,0.000 71.476,0.000 Z" id="path-2" class="cls-4" fill-rule="evenodd"/>
    <path d="M104.471,38.033 C104.471,38.033 76.976,38.033 76.976,38.033 C76.976,38.033 32.982,38.033 32.982,38.033 C32.982,38.033 5.486,38.033 5.486,38.033 C2.446,38.033 -0.013,40.874 -0.013,44.371 C-0.013,44.371 -0.013,209.194 -0.013,209.194 C-0.013,212.704 2.446,215.534 5.486,215.534 C5.486,215.534 104.471,215.534 104.471,215.534 C107.511,215.534 109.970,212.704 109.970,209.194 C109.970,209.194 109.970,44.371 109.970,44.371 C109.970,40.874 107.511,38.033 104.471,38.033 Z" id="path-3" class="cls-5" fill-rule="evenodd"/>
    <path d="M104.471,38.033 C104.471,38.033 78.607,38.033 78.607,38.033 C81.646,38.033 84.106,40.874 84.106,44.371 C84.106,44.371 84.106,209.194 84.106,209.194 C84.106,212.704 81.646,215.534 78.607,215.534 C78.607,215.534 104.471,215.534 104.471,215.534 C107.511,215.534 109.970,212.704 109.970,209.194 C109.970,209.194 109.970,44.371 109.970,44.371 C109.970,40.874 107.511,38.033 104.471,38.033 Z" id="path-4" class="cls-4" fill-rule="evenodd"/>
    <path d="M22.005,187.497 C20.021,187.497 18.413,185.889 18.413,183.905 C18.413,183.905 18.413,79.516 18.413,79.516 C18.413,77.531 20.021,75.923 22.005,75.923 C23.989,75.923 25.598,77.531 25.598,79.516 C25.598,79.516 25.598,183.905 25.598,183.905 C25.598,185.889 23.989,187.497 22.005,187.497 Z" id="path-5" class="cls-7" fill-rule="evenodd"/>
  </g>
</svg>
