<svg xmlns="http://www.w3.org/2000/svg" xmlns:xlink="http://www.w3.org/1999/xlink" preserveAspectRatio="xMidYMid" width="211" height="216" viewBox="0 0 211 216">
  <defs>
    <style>

      .cls-3 {
        fill: #ff3a2f;
      }

      .cls-5 {
        fill: #142a3b;
      }

      .cls-6 {
        fill: #000000;
        opacity: 0.35;
      }

      .cls-7 {
        fill: #fbb713;
      }

      .cls-8 {
        fill: #ededed;
      }

      .cls-9 {
        fill: #000000;
        opacity: 0.25;
      }

      .cls-12 {
        fill: #ffffff;
      }
    </style>
  </defs>
  <g id="group-79svg">
    <path d="M102.979,193.729 C102.979,193.729 88.399,193.729 88.399,193.729 C85.588,193.729 83.309,195.287 83.309,197.208 C83.309,199.130 85.588,200.687 88.399,200.687 C88.399,200.687 89.078,200.687 89.078,200.687 C91.889,200.687 94.168,202.245 94.168,204.166 C94.168,206.088 91.889,207.646 89.078,207.646 C89.078,207.646 57.736,207.646 57.736,207.646 C54.925,207.646 52.646,209.204 52.646,211.125 C52.646,213.047 54.925,214.604 57.736,214.604 C57.736,214.604 95.401,214.604 95.401,214.604 C95.401,214.604 172.388,214.604 172.388,214.604 C175.198,214.604 177.478,213.047 177.478,211.125 C177.478,209.204 175.198,207.646 172.388,207.646 C172.388,207.646 163.689,207.646 163.689,207.646 C160.878,207.646 158.599,206.088 158.599,204.166 C158.599,202.245 160.878,200.687 163.689,200.687 C163.689,200.687 197.853,200.687 197.853,200.687 C200.664,200.687 202.942,199.130 202.942,197.208 C202.942,195.287 200.664,193.729 197.853,193.729 C197.853,193.729 195.303,193.729 195.303,193.729 C195.303,193.729 102.979,193.729 102.979,193.729 Z" id="path-1" class="cls-3" fill-rule="evenodd"/>
    <path d="M193.402,215.536 C191.045,215.536 189.135,213.867 189.135,211.808 C189.135,209.748 191.045,208.078 193.402,208.078 C193.402,208.078 206.479,208.078 206.479,208.078 C208.835,208.078 210.746,209.748 210.746,211.808 C210.746,213.867 208.835,215.536 206.479,215.536 C206.479,215.536 193.402,215.536 193.402,215.536 Z" id="path-2" class="cls-3" fill-rule="evenodd"/>
    <path d="M173.175,165.643 C173.175,165.643 14.307,165.643 14.307,165.643 C14.307,165.643 14.307,50.222 14.307,50.222 C14.307,50.222 173.175,50.222 173.175,50.222 C173.175,50.222 173.175,165.643 173.175,165.643 Z" id="path-3" class="cls-5" fill-rule="evenodd"/>
    <path d="M14.307,50.222 C14.307,50.222 14.307,62.931 14.307,62.931 C14.307,62.931 144.579,69.285 144.579,69.285 C144.579,69.285 144.579,165.643 144.579,165.643 C144.579,165.643 173.175,165.643 173.175,165.643 C173.175,165.643 173.175,50.222 173.175,50.222 C173.175,50.222 14.307,50.222 14.307,50.222 Z" id="path-4" class="cls-6" fill-rule="evenodd"/>
    <path d="M150.978,0.004 C150.978,0.004 36.504,0.004 36.504,0.004 C16.348,0.004 0.008,24.187 0.008,54.017 C0.008,54.017 187.474,54.017 187.474,54.017 C187.474,24.187 171.134,0.004 150.978,0.004 Z" id="path-5" class="cls-7" fill-rule="evenodd"/>
    <path d="M12.805,37.479 C12.333,37.479 11.853,37.385 11.392,37.186 C9.569,36.406 8.724,34.295 9.506,32.470 C16.209,16.833 28.061,6.051 40.436,4.335 C42.388,4.053 44.214,5.434 44.488,7.400 C44.759,9.364 43.388,11.178 41.421,11.451 C31.526,12.823 21.826,21.961 16.108,35.301 C15.526,36.662 14.198,37.479 12.805,37.479 Z" id="path-6" class="cls-8" fill-rule="evenodd"/>
    <path d="M150.978,0.003 C150.978,0.003 119.204,0.003 119.204,0.003 C139.360,0.003 155.700,24.187 155.700,54.017 C155.700,54.017 187.474,54.017 187.474,54.017 C187.474,24.187 171.134,0.003 150.978,0.003 Z" id="path-7" class="cls-9" fill-rule="evenodd"/>
    <path d="M0.031,163.132 C0.030,163.286 0.008,163.434 0.008,163.588 C0.008,183.744 16.348,200.083 36.504,200.083 C36.504,200.083 150.978,200.083 150.978,200.083 C171.134,200.083 187.474,183.744 187.474,163.588 C187.474,163.434 187.453,163.286 187.450,163.132 C187.450,163.132 0.031,163.132 0.031,163.132 Z" id="path-8" class="cls-7" fill-rule="evenodd"/>
    <path d="M187.450,163.132 C187.450,163.132 158.854,163.132 158.854,163.132 C158.856,163.286 158.877,163.434 158.877,163.588 C158.877,183.744 142.537,200.083 122.381,200.083 C122.381,200.083 150.978,200.083 150.978,200.083 C171.134,200.083 187.474,183.744 187.474,163.588 C187.474,163.434 187.453,163.286 187.450,163.132 Z" id="path-9" class="cls-9" fill-rule="evenodd"/>
    <path d="M79.443,69.904 C79.443,69.904 108.039,69.904 108.039,69.904 C117.691,69.904 125.515,62.080 125.515,52.428 C125.515,52.428 61.967,52.428 61.967,52.428 C61.967,62.080 69.791,69.904 79.443,69.904 Z" id="path-10" class="cls-12" fill-rule="evenodd"/>
    <path d="M112.806,52.428 C112.806,62.080 104.981,69.903 95.330,69.903 C95.330,69.903 108.039,69.903 108.039,69.903 C117.691,69.903 125.515,62.080 125.515,52.428 C125.515,52.428 112.806,52.428 112.806,52.428 Z" id="path-11" class="cls-9" fill-rule="evenodd"/>
    <path d="M129.089,43.866 C129.089,43.866 71.102,43.866 71.102,43.866 C71.102,43.866 71.102,20.656 71.102,20.656 C71.102,20.656 129.089,20.656 129.089,20.656 C129.089,20.656 129.089,43.866 129.089,43.866 Z" id="path-12" class="cls-6" fill-rule="evenodd"/>
    <path d="M122.734,40.689 C122.734,40.689 64.747,40.689 64.747,40.689 C64.747,40.689 64.747,17.479 64.747,17.479 C64.747,17.479 122.734,17.479 122.734,17.479 C122.734,17.479 122.734,40.689 122.734,40.689 Z" id="path-13" class="cls-3" fill-rule="evenodd"/>
    <path d="M117.407,146.014 C125.770,148.155 134.285,143.114 136.427,134.752 C138.569,126.388 133.526,117.873 125.164,115.732 C125.164,115.732 116.433,113.495 116.433,113.495 C116.433,113.495 114.388,121.483 114.388,121.483 C114.388,121.483 123.118,123.718 123.118,123.718 C127.070,124.731 129.452,128.754 128.440,132.705 C127.428,136.656 123.405,139.038 119.453,138.027 C119.453,138.027 110.723,135.791 110.723,135.791 C110.723,135.791 108.677,143.778 108.677,143.778 C108.677,143.778 117.407,146.014 117.407,146.014 Z" id="path-14" class="cls-12" fill-rule="evenodd"/>
    <path d="M53.037,111.708 C53.037,138.306 64.994,159.867 79.743,159.867 C79.743,159.867 96.093,159.867 96.093,159.867 C110.842,159.867 122.798,138.306 122.798,111.708 C122.798,111.708 53.037,111.708 53.037,111.708 Z" id="path-15" class="cls-12" fill-rule="evenodd"/>
    <path d="M103.734,111.708 C103.734,137.480 92.501,158.461 78.386,159.743 C78.839,159.784 79.285,159.867 79.743,159.867 C79.743,159.867 96.093,159.867 96.093,159.867 C110.842,159.867 122.798,138.306 122.798,111.708 C122.798,111.708 103.734,111.708 103.734,111.708 Z" id="path-16" class="cls-9" fill-rule="evenodd"/>
    <path d="M131.988,189.051 C131.988,189.051 55.494,189.051 55.494,189.051 C55.494,189.051 55.494,181.607 55.494,181.607 C55.494,181.607 131.988,181.607 131.988,181.607 C131.988,181.607 131.988,189.051 131.988,189.051 Z" id="path-17" class="cls-5" fill-rule="evenodd"/>
  </g>
</svg>
