<svg xmlns="http://www.w3.org/2000/svg" xmlns:xlink="http://www.w3.org/1999/xlink" preserveAspectRatio="xMidYMid" width="216" height="147" viewBox="0 0 216 147">
  <defs>
    <style>

      .cls-3 {
        fill: #142a3b;
      }

      .cls-4 {
        fill: #000000;
        opacity: 0.35;
      }

      .cls-5 {
        fill: #fbb713;
      }
    </style>
  </defs>
  <g id="group-106svg">
    <path d="M168.462,-0.002 C168.462,-0.002 47.424,-0.002 47.424,-0.002 C47.424,-0.002 0.005,51.725 0.005,51.725 C0.005,51.725 0.005,146.561 0.005,146.561 C0.005,146.561 215.545,146.561 215.545,146.561 C215.545,146.561 215.545,51.725 215.545,51.725 C215.545,51.725 168.462,-0.002 168.462,-0.002 Z" id="path-1" class="cls-3" fill-rule="evenodd"/>
    <path d="M168.463,-0.002 C168.463,-0.002 159.911,-0.002 159.911,-0.002 C159.911,-0.002 188.603,31.519 188.603,31.519 C188.603,31.519 188.603,80.677 188.603,80.677 C188.603,105.904 168.151,126.355 142.924,126.355 C142.924,126.355 0.005,126.355 0.005,126.355 C0.005,126.355 0.005,146.561 0.005,146.561 C0.005,146.561 215.545,146.561 215.545,146.561 C215.545,146.561 215.545,51.725 215.545,51.725 C215.545,51.725 168.463,-0.002 168.463,-0.002 Z" id="path-2" class="cls-4" fill-rule="evenodd"/>
    <path d="M51.212,8.619 C51.212,8.619 164.657,8.619 164.657,8.619 C164.657,8.619 203.883,51.725 203.883,51.725 C203.883,51.725 137.950,51.725 137.950,51.725 C137.950,67.865 123.923,80.916 107.775,80.916 C91.626,80.916 77.599,67.865 77.599,51.725 C77.599,51.725 11.708,51.725 11.708,51.725 C11.708,51.725 51.212,8.619 51.212,8.619 Z" id="path-3" class="cls-5" fill-rule="evenodd"/>
    <path d="M164.657,8.619 C164.657,8.619 157.011,8.619 157.011,8.619 C157.011,8.619 187.044,41.623 187.044,41.623 C187.044,41.623 121.111,41.623 121.111,41.623 C121.111,57.761 107.084,70.813 90.936,70.813 C88.736,70.813 86.583,70.550 84.492,70.092 C90.114,76.692 98.597,80.916 107.775,80.916 C123.923,80.916 137.950,67.865 137.950,51.725 C137.950,51.725 203.883,51.725 203.883,51.725 C203.883,51.725 164.657,8.619 164.657,8.619 Z" id="path-4" class="cls-4" fill-rule="evenodd"/>
    <path d="M60.761,41.623 C60.761,41.623 20.967,41.623 20.967,41.623 C20.967,41.623 11.708,51.725 11.708,51.725 C11.708,51.725 62.712,51.725 62.712,51.725 C61.476,48.574 60.761,45.182 60.761,41.623 Z" id="path-5" class="cls-4" fill-rule="evenodd"/>
  </g>
</svg>
