<svg xmlns="http://www.w3.org/2000/svg" xmlns:xlink="http://www.w3.org/1999/xlink" preserveAspectRatio="xMidYMid" width="180" height="217" viewBox="0 0 180 217">
  <defs>
    <style>

      .cls-3 {
        fill: #fbb713;
      }

      .cls-4 {
        fill: #000000;
        opacity: 0.25;
      }

      .cls-5 {
        fill: #142a3b;
      }

      .cls-11 {
        fill: #ededed;
      }
    </style>
  </defs>
  <g id="group-69svg">
    <path d="M135.654,217.332 C160.073,217.332 179.868,197.537 179.868,173.119 C179.868,173.119 91.441,173.119 91.441,173.119 C91.441,197.537 111.236,217.332 135.654,217.332 Z" id="path-1" class="cls-3" fill-rule="evenodd"/>
    <path d="M164.192,173.119 C164.192,194.857 148.490,212.892 127.817,216.596 C130.364,217.053 132.975,217.332 135.654,217.332 C160.073,217.332 179.868,197.537 179.868,173.119 C179.868,173.119 164.192,173.119 164.192,173.119 Z" id="path-2" class="cls-4" fill-rule="evenodd"/>
    <path d="M102.494,175.330 C102.494,175.330 91.441,175.330 91.441,175.330 C91.441,175.330 91.441,9.535 91.441,9.535 C91.441,9.535 102.494,9.535 102.494,9.535 C102.494,9.535 102.494,175.330 102.494,175.330 Z" id="path-3" class="cls-5" fill-rule="evenodd"/>
    <path d="M84.634,27.648 C84.634,27.648 77.066,20.080 77.066,20.080 C76.350,19.365 76.350,18.204 77.066,17.488 C77.066,17.488 94.014,0.542 94.014,0.542 C94.730,-0.174 95.890,-0.174 96.606,0.542 C96.606,0.542 104.174,8.110 104.174,8.110 C104.890,8.825 104.890,9.986 104.174,10.703 C104.174,10.703 87.227,27.648 87.227,27.648 C86.511,28.364 85.350,28.364 84.634,27.648 Z" id="path-4" class="cls-5" fill-rule="evenodd"/>
    <path d="M35.090,128.477 C35.090,128.477 22.217,128.477 22.217,128.477 C22.217,128.477 22.217,80.263 22.217,80.263 C22.217,80.263 35.090,80.263 35.090,80.263 C35.090,80.263 35.090,128.477 35.090,128.477 Z" id="path-5" class="cls-5" fill-rule="evenodd"/>
    <path d="M19.267,124.885 C19.267,124.885 19.267,204.628 19.267,204.628 C19.267,209.813 23.470,214.015 28.654,214.015 C33.839,214.015 38.041,209.813 38.041,204.628 C38.041,204.628 38.041,124.885 38.041,124.885 C38.041,124.885 19.267,124.885 19.267,124.885 Z" id="path-6" class="cls-5" fill-rule="evenodd"/>
    <path d="M0.006,1.798 C0.006,1.798 0.006,42.615 0.006,42.615 C0.006,70.349 10.956,92.835 24.464,92.835 C24.464,92.835 32.844,92.835 32.844,92.835 C46.353,92.835 57.303,70.349 57.303,42.615 C57.303,42.615 57.303,1.798 57.303,1.798 C57.303,1.798 0.006,1.798 0.006,1.798 Z" id="path-7" class="cls-3" fill-rule="evenodd"/>
    <path d="M49.465,1.798 C49.465,1.798 49.465,38.695 49.465,38.695 C49.465,66.430 38.515,88.916 25.007,88.916 C25.007,88.916 16.627,88.916 16.627,88.916 C16.003,88.916 15.390,88.819 14.778,88.724 C17.749,91.360 21.022,92.835 24.464,92.835 C24.464,92.835 32.844,92.835 32.844,92.835 C46.352,92.835 57.303,70.349 57.303,42.614 C57.303,42.614 57.303,1.798 57.303,1.798 C57.303,1.798 49.465,1.798 49.465,1.798 Z" id="path-8" class="cls-4" fill-rule="evenodd"/>
    <path d="M11.616,54.312 C9.632,54.312 8.023,52.705 8.023,50.720 C8.023,50.720 8.023,14.095 8.023,14.095 C8.023,12.111 9.632,10.503 11.616,10.503 C13.600,10.503 15.208,12.111 15.208,14.095 C15.208,14.095 15.208,50.720 15.208,50.720 C15.208,52.705 13.600,54.312 11.616,54.312 Z" id="path-9" class="cls-11" fill-rule="evenodd"/>
  </g>
</svg>
