<svg xmlns="http://www.w3.org/2000/svg" xmlns:xlink="http://www.w3.org/1999/xlink" preserveAspectRatio="xMidYMid" width="212" height="216" viewBox="0 0 212 216">
  <defs>
    <style>

      .cls-3 {
        fill: #0cb04a;
      }

      .cls-4 {
        fill: #fbb713;
      }

      .cls-5 {
        fill: #000000;
        opacity: 0.2;
      }

      .cls-6 {
        fill: #142a3b;
      }
    </style>
  </defs>
  <g id="group-146svg">
    <path d="M15.929,62.455 C15.929,62.455 211.461,31.104 211.461,31.104 C211.461,31.104 207.542,4.089 207.542,4.089 C207.542,1.831 205.766,-0.002 203.570,-0.002 C203.570,-0.002 3.982,35.267 3.982,35.267 C1.788,35.267 0.009,37.099 0.009,39.359 C0.009,39.359 0.009,101.550 0.009,101.550 C0.009,103.811 1.788,105.642 3.982,105.642 C3.982,105.642 203.570,105.642 203.570,105.642 C205.766,105.642 207.542,103.811 207.542,101.550 C207.542,101.550 207.542,78.252 207.542,78.252 C207.542,78.252 15.929,78.620 15.929,78.620 C15.929,78.620 15.929,78.620 15.929,78.620 " id="path-1" class="cls-3" fill-rule="evenodd"/>
    <path d="M207.711,101.799 C207.711,101.799 207.711,211.698 207.711,211.698 C207.711,213.813 205.962,215.532 203.807,215.532 C203.807,215.532 3.908,215.532 3.908,215.532 C1.754,215.532 0.009,213.813 0.009,211.698 C0.009,211.698 0.009,101.887 0.009,101.887 C0.009,101.887 207.711,101.799 207.711,101.799 Z" id="path-2" class="cls-4" fill-rule="evenodd"/>
    <path d="M181.846,101.810 C181.846,101.810 181.846,198.767 181.846,198.767 C181.846,200.882 180.096,202.599 177.942,202.599 C177.942,202.599 0.009,202.599 0.009,202.599 C0.009,202.599 0.009,211.698 0.009,211.698 C0.009,213.813 1.754,215.532 3.908,215.532 C3.908,215.532 203.807,215.532 203.807,215.532 C205.962,215.532 207.711,213.813 207.711,211.698 C207.711,211.698 207.711,101.799 207.711,101.799 C207.711,101.799 181.846,101.810 181.846,101.810 Z" id="path-3" class="cls-5" fill-rule="evenodd"/>
    <path d="M30.706,105.442 C30.706,105.442 24.451,101.909 24.451,101.909 C24.451,101.909 38.157,77.638 38.157,77.638 C38.157,77.638 44.412,81.170 44.412,81.170 C44.412,81.170 30.706,105.442 30.706,105.442 Z" id="path-4" class="cls-6" fill-rule="evenodd"/>
    <path d="M61.546,105.442 C61.546,105.442 55.290,101.909 55.290,101.909 C55.290,101.909 68.999,77.638 68.999,77.638 C68.999,77.638 75.254,81.170 75.254,81.170 C75.254,81.170 61.546,105.442 61.546,105.442 Z" id="path-5" class="cls-6" fill-rule="evenodd"/>
    <path d="M92.387,105.442 C92.387,105.442 86.133,101.909 86.133,101.909 C86.133,101.909 99.840,77.638 99.840,77.638 C99.840,77.638 106.095,81.170 106.095,81.170 C106.095,81.170 92.387,105.442 92.387,105.442 Z" id="path-6" class="cls-6" fill-rule="evenodd"/>
    <path d="M119.802,105.442 C119.802,105.442 113.547,101.909 113.547,101.909 C113.547,101.909 127.255,77.638 127.255,77.638 C127.255,77.638 133.510,81.170 133.510,81.170 C133.510,81.170 119.802,105.442 119.802,105.442 Z" id="path-7" class="cls-6" fill-rule="evenodd"/>
    <path d="M147.216,105.442 C147.216,105.442 140.961,101.909 140.961,101.909 C140.961,101.909 154.669,77.638 154.669,77.638 C154.669,77.638 160.924,81.170 160.924,81.170 C160.924,81.170 147.216,105.442 147.216,105.442 Z" id="path-8" class="cls-6" fill-rule="evenodd"/>
    <path d="M178.058,105.442 C178.058,105.442 171.803,101.909 171.803,101.909 C171.803,101.909 185.511,77.638 185.511,77.638 C185.511,77.638 191.766,81.170 191.766,81.170 C191.766,81.170 178.058,105.442 178.058,105.442 Z" id="path-9" class="cls-6" fill-rule="evenodd"/>
    <path d="M34.137,58.999 C34.137,58.999 27.376,56.567 27.376,56.567 C27.376,56.567 36.813,30.338 36.813,30.338 C36.813,30.338 43.574,32.770 43.574,32.770 C43.574,32.770 34.137,58.999 34.137,58.999 Z" id="path-10" class="cls-6" fill-rule="evenodd"/>
    <path d="M64.537,53.822 C64.537,53.822 57.776,51.389 57.776,51.389 C57.776,51.389 67.217,25.158 67.217,25.158 C67.217,25.158 73.977,27.593 73.977,27.593 C73.977,27.593 64.537,53.822 64.537,53.822 Z" id="path-11" class="cls-6" fill-rule="evenodd"/>
    <path d="M94.943,48.645 C94.943,48.645 88.183,46.214 88.183,46.214 C88.183,46.214 97.620,19.986 97.620,19.986 C97.620,19.986 104.380,22.416 104.380,22.416 C104.380,22.416 94.943,48.645 94.943,48.645 Z" id="path-12" class="cls-6" fill-rule="evenodd"/>
    <path d="M121.970,44.046 C121.970,44.046 115.209,41.616 115.209,41.616 C115.209,41.616 124.647,15.388 124.647,15.388 C124.647,15.388 131.407,17.819 131.407,17.819 C131.407,17.819 121.970,44.046 121.970,44.046 Z" id="path-13" class="cls-6" fill-rule="evenodd"/>
    <path d="M148.991,39.443 C148.991,39.443 142.231,37.009 142.231,37.009 C142.231,37.009 151.671,10.779 151.671,10.779 C151.671,10.779 158.431,13.214 158.431,13.214 C158.431,13.214 148.991,39.443 148.991,39.443 Z" id="path-14" class="cls-6" fill-rule="evenodd"/>
    <path d="M179.398,34.268 C179.398,34.268 172.638,31.838 172.638,31.838 C172.638,31.838 182.075,5.606 182.075,5.606 C182.075,5.606 188.835,8.037 188.835,8.037 C188.835,8.037 179.398,34.268 179.398,34.268 Z" id="path-15" class="cls-6" fill-rule="evenodd"/>
    <path d="M187.627,144.666 C187.627,144.666 20.094,144.666 20.094,144.666 C20.094,144.666 20.094,137.483 20.094,137.483 C20.094,137.483 187.627,137.483 187.627,137.483 C187.627,137.483 187.627,144.666 187.627,144.666 Z" id="path-16" class="cls-6" fill-rule="evenodd"/>
    <path d="M187.627,183.855 C187.627,183.855 20.094,183.855 20.094,183.855 C20.094,183.855 20.094,176.670 20.094,176.670 C20.094,176.670 187.627,176.670 187.627,176.670 C187.627,176.670 187.627,183.855 187.627,183.855 Z" id="path-17" class="cls-6" fill-rule="evenodd"/>
  </g>
</svg>
