<svg xmlns="http://www.w3.org/2000/svg" xmlns:xlink="http://www.w3.org/1999/xlink" preserveAspectRatio="xMidYMid" width="216" height="210" viewBox="0 0 216 210">
  <defs>
    <style>

      .cls-3 {
        fill: #ff3a2f;
      }

      .cls-8 {
        fill: #000000;
        opacity: 0.35;
      }
    </style>
  </defs>
  <g id="group-151svg">
    <path d="M155.366,172.422 C154.459,172.422 153.538,172.250 152.647,171.886 C152.647,171.886 66.055,136.458 66.055,136.458 C62.382,134.954 60.623,130.761 62.126,127.087 C63.629,123.415 67.827,121.658 71.496,123.158 C71.496,123.158 158.088,158.586 158.088,158.586 C161.761,160.089 163.520,164.283 162.017,167.956 C160.878,170.739 158.194,172.422 155.366,172.422 Z" id="path-1" class="cls-3" fill-rule="evenodd"/>
    <path d="M68.778,87.160 C65.922,87.160 63.222,85.447 62.101,82.632 C60.633,78.945 62.431,74.766 66.118,73.299 C66.118,73.299 142.226,42.995 142.226,42.995 C145.916,41.524 150.091,43.326 151.557,47.012 C153.025,50.698 151.227,54.877 147.541,56.344 C147.541,56.344 71.433,86.648 71.433,86.648 C70.561,86.995 69.662,87.160 68.778,87.160 Z" id="path-2" class="cls-3" fill-rule="evenodd"/>
    <path d="M155.366,199.345 C169.129,213.107 191.441,213.106 205.203,199.345 C218.964,185.584 218.965,163.272 205.203,149.510 C191.441,135.748 169.128,135.748 155.366,149.510 C141.605,163.272 141.604,185.584 155.366,199.345 Z" id="path-3" class="cls-3" fill-rule="evenodd"/>
    <path d="M144.883,60.152 C158.645,73.914 180.957,73.914 194.719,60.152 C208.481,46.391 208.481,24.080 194.719,10.317 C180.957,-3.443 158.644,-3.443 144.883,10.317 C131.121,24.080 131.120,46.391 144.883,60.152 Z" id="path-4" class="cls-3" fill-rule="evenodd"/>
    <path d="M14.370,139.619 C33.551,158.798 64.647,158.798 83.828,139.619 C103.008,120.438 103.009,89.342 83.828,70.161 C64.647,50.983 33.550,50.983 14.370,70.161 C-4.811,89.341 -4.811,120.438 14.370,139.619 Z" id="path-5" class="cls-3" fill-rule="evenodd"/>
    <path d="M205.203,149.510 C204.317,148.624 203.394,147.800 202.442,147.029 C213.662,160.868 212.837,181.227 199.960,194.103 C187.085,206.979 166.725,207.803 152.885,196.584 C153.657,197.537 154.481,198.459 155.366,199.345 C169.128,213.107 191.441,213.106 205.203,199.345 C218.964,185.584 218.964,163.272 205.203,149.510 Z" id="path-6" class="cls-8" fill-rule="evenodd"/>
    <path d="M194.719,10.317 C193.834,9.433 192.910,8.608 191.958,7.837 C203.177,21.677 202.353,42.035 189.477,54.912 C176.601,67.787 156.241,68.611 142.401,57.392 C143.173,58.343 143.997,59.267 144.883,60.152 C158.644,73.914 180.957,73.914 194.719,60.152 C208.481,46.391 208.481,24.080 194.719,10.317 Z" id="path-7" class="cls-8" fill-rule="evenodd"/>
    <path d="M83.828,70.161 C82.943,69.276 82.008,68.477 81.074,67.673 C97.682,86.970 96.882,116.083 78.586,134.376 C60.291,152.672 31.177,153.472 11.882,136.864 C12.684,137.799 13.485,138.733 14.369,139.619 C33.550,158.798 64.647,158.798 83.828,139.619 C103.008,120.438 103.009,89.342 83.828,70.161 Z" id="path-8" class="cls-8" fill-rule="evenodd"/>
  </g>
</svg>
