<svg xmlns="http://www.w3.org/2000/svg" xmlns:xlink="http://www.w3.org/1999/xlink" preserveAspectRatio="xMidYMid" width="216" height="145" viewBox="0 0 216 145">
  <defs>
    <style>

      .cls-3 {
        fill: #142a3b;
      }

      .cls-5 {
        fill: #010101;
        opacity: 0.35;
      }

      .cls-6 {
        fill: #ffffff;
      }
    </style>
  </defs>
  <g id="group-72svg">
    <path d="M133.107,19.365 C133.107,19.365 21.792,19.365 21.792,19.365 C21.792,19.365 0.170,8.669 0.170,8.669 C0.170,8.669 0.170,2.148 0.170,2.148 C0.170,2.148 214.792,2.148 214.792,2.148 C214.792,2.148 214.792,10.756 214.792,10.756 C214.792,10.756 133.107,19.365 133.107,19.365 Z" id="path-1" class="cls-3" fill-rule="evenodd"/>
    <path d="M133.107,18.964 C133.107,18.964 21.792,18.964 21.792,18.964 C21.792,18.964 0.170,29.659 0.170,29.659 C0.170,29.659 0.170,36.181 0.170,36.181 C0.170,36.181 214.792,36.181 214.792,36.181 C214.792,36.181 214.792,27.572 214.792,27.572 C214.792,27.572 133.107,18.964 133.107,18.964 Z" id="path-2" class="cls-3" fill-rule="evenodd"/>
    <path d="M133.107,18.964 C133.107,18.964 21.792,18.964 21.792,18.964 C21.792,18.964 0.170,29.659 0.170,29.659 C0.170,29.659 0.170,36.181 0.170,36.181 C0.170,36.181 214.792,36.181 214.792,36.181 C214.792,36.181 214.792,27.572 214.792,27.572 C214.792,27.572 133.107,18.964 133.107,18.964 Z" id="path-3" class="cls-5" fill-rule="evenodd"/>
    <path d="M58.430,20.666 C58.430,24.480 55.338,27.572 51.522,27.572 C47.708,27.572 44.615,24.480 44.615,20.666 C44.615,16.851 47.708,13.758 51.522,13.758 C55.338,13.758 58.430,16.851 58.430,20.666 Z" id="path-4" class="cls-6" fill-rule="evenodd"/>
    <path d="M124.698,16.962 C120.947,17.657 138.913,10.756 140.014,20.666 C140.435,24.457 136.922,27.572 133.107,27.572 C133.107,27.572 104.001,10.814 95.066,3.229 C94.399,2.664 94.389,1.650 95.022,1.046 C95.022,1.046 95.686,0.414 95.686,0.414 C96.177,-0.055 96.925,-0.127 97.497,0.238 C97.497,0.238 129.504,20.666 129.504,20.666 C129.504,20.666 133.582,23.440 134.409,23.268 C135.878,22.960 136.310,14.809 124.698,16.962 Z" id="path-5" class="cls-6" fill-rule="evenodd"/>
    <path d="M79.252,20.666 C79.252,22.711 77.593,24.368 75.547,24.368 C73.502,24.368 71.843,22.711 71.843,20.666 C71.843,18.620 73.502,16.962 75.547,16.962 C77.593,16.962 79.252,18.620 79.252,20.666 Z" id="path-6" class="cls-6" fill-rule="evenodd"/>
    <path d="M132.432,90.155 C132.432,90.155 25.600,121.429 25.600,121.429 C25.600,121.429 1.844,117.237 1.844,117.237 C1.844,117.237 0.011,110.979 0.011,110.979 C0.011,110.979 205.989,50.683 205.989,50.683 C205.989,50.683 208.407,58.946 208.407,58.946 C208.407,58.946 132.432,90.155 132.432,90.155 Z" id="path-7" class="cls-3" fill-rule="evenodd"/>
    <path d="M132.319,89.771 C132.319,89.771 25.488,121.044 25.488,121.044 C25.488,121.044 7.741,137.383 7.741,137.383 C7.741,137.383 9.574,143.643 9.574,143.643 C9.574,143.643 215.551,83.346 215.551,83.346 C215.551,83.346 213.132,75.084 213.132,75.084 C213.132,75.084 132.319,89.771 132.319,89.771 Z" id="path-8" class="cls-3" fill-rule="evenodd"/>
    <path d="M132.319,89.771 C132.319,89.771 25.488,121.044 25.488,121.044 C25.488,121.044 7.741,137.383 7.741,137.383 C7.741,137.383 9.574,143.643 9.574,143.643 C9.574,143.643 215.551,83.346 215.551,83.346 C215.551,83.346 213.132,75.084 213.132,75.084 C213.132,75.084 132.319,89.771 132.319,89.771 Z" id="path-9" class="cls-5" fill-rule="evenodd"/>
    <path d="M61.128,112.384 C62.199,116.046 60.100,119.882 56.440,120.954 C52.778,122.025 48.942,119.926 47.870,116.265 C46.798,112.604 48.897,108.767 52.558,107.695 C56.219,106.624 60.056,108.724 61.128,112.384 Z" id="path-10" class="cls-6" fill-rule="evenodd"/>
    <path d="M123.687,90.211 C120.282,91.933 135.585,80.262 139.426,89.463 C140.896,92.984 138.399,96.961 134.738,98.032 C134.738,98.032 102.095,90.126 91.390,85.358 C90.591,85.001 90.296,84.032 90.734,83.274 C90.734,83.274 91.194,82.481 91.194,82.481 C91.534,81.893 92.230,81.614 92.883,81.804 C92.883,81.804 129.339,92.417 129.339,92.417 C129.339,92.417 134.034,93.934 134.777,93.536 C136.102,92.829 134.227,84.884 123.687,90.211 Z" id="path-11" class="cls-6" fill-rule="evenodd"/>
    <path d="M81.111,106.534 C81.685,108.497 80.560,110.555 78.597,111.129 C76.634,111.704 74.577,110.578 74.001,108.615 C73.427,106.653 74.553,104.595 76.516,104.021 C78.479,103.446 80.536,104.571 81.111,106.534 Z" id="path-12" class="cls-6" fill-rule="evenodd"/>
  </g>
</svg>
