<svg xmlns="http://www.w3.org/2000/svg" xmlns:xlink="http://www.w3.org/1999/xlink" preserveAspectRatio="xMidYMid" width="216" height="159" viewBox="0 0 216 159">
  <defs>
    <style>

      .cls-3 {
        fill: #142a3b;
      }

      .cls-4 {
        fill: #ededed;
      }

      .cls-5 {
        fill: #000000;
        opacity: 0.35;
      }

      .cls-7 {
        fill: #fbb713;
      }
    </style>
  </defs>
  <g id="group-98svg">
    <path d="M9.384,141.046 C9.384,141.046 9.384,15.122 9.384,15.122 C9.384,6.775 15.681,0.010 23.442,0.010 C23.442,0.010 192.125,0.010 192.125,0.010 C199.886,0.010 206.182,6.775 206.182,15.122 C206.182,15.122 206.182,141.046 206.182,141.046 C206.182,141.046 206.182,141.046 206.182,141.046 " id="path-1" class="cls-3" fill-rule="evenodd"/>
    <path d="M187.439,112.463 C187.439,112.463 107.783,112.463 107.783,112.463 C107.783,112.463 28.127,112.463 28.127,112.463 C28.127,112.463 28.127,18.753 28.127,18.753 C28.127,18.753 187.439,18.753 187.439,18.753 C187.439,18.753 187.439,112.463 187.439,112.463 Z" id="path-2" class="cls-4" fill-rule="evenodd"/>
    <path d="M34.863,25.488 C34.863,25.488 187.439,25.488 187.439,25.488 C187.439,25.488 187.439,18.753 187.439,18.753 C187.439,18.753 28.127,18.753 28.127,18.753 C28.127,18.753 28.127,112.463 28.127,112.463 C28.127,112.463 34.863,112.463 34.863,112.463 C34.863,112.463 34.863,25.488 34.863,25.488 Z" id="path-3" class="cls-5" fill-rule="evenodd"/>
    <path d="M206.182,127.836 C206.182,127.836 127.844,127.836 127.844,127.836 C127.844,127.836 127.844,137.208 127.844,137.208 C127.844,137.208 80.987,137.208 80.987,137.208 C80.987,137.208 80.987,127.836 80.987,127.836 C80.987,127.836 9.384,127.836 9.384,127.836 C9.384,127.836 9.384,141.046 9.384,141.046 C9.384,141.046 206.182,141.046 206.182,141.046 C206.182,141.046 206.182,127.836 206.182,127.836 Z" id="path-4" class="cls-5" fill-rule="evenodd"/>
    <path d="M131.212,131.204 C131.212,131.204 131.212,140.576 131.212,140.576 C131.212,140.576 84.355,140.576 84.355,140.576 C84.355,140.576 84.355,131.204 84.355,131.204 C84.355,131.204 0.013,131.204 0.013,131.204 C0.013,131.204 0.013,149.946 0.013,149.946 C0.013,155.121 4.214,159.317 9.384,159.317 C9.384,159.317 206.182,159.317 206.182,159.317 C211.362,159.317 215.553,155.121 215.553,149.946 C215.553,149.946 215.553,131.204 215.553,131.204 C215.553,131.204 131.212,131.204 131.212,131.204 Z" id="path-5" class="cls-7" fill-rule="evenodd"/>
    <path d="M208.818,131.204 C208.818,131.204 208.818,143.212 208.818,143.212 C208.818,148.386 204.626,152.583 199.446,152.583 C199.446,152.583 2.649,152.583 2.649,152.583 C1.846,152.583 1.080,152.450 0.336,152.260 C1.371,156.308 5.016,159.317 9.384,159.317 C9.384,159.317 206.182,159.317 206.182,159.317 C211.362,159.317 215.553,155.121 215.553,149.947 C215.553,149.947 215.553,131.204 215.553,131.204 C215.553,131.204 208.818,131.204 208.818,131.204 Z" id="path-6" class="cls-5" fill-rule="evenodd"/>
  </g>
</svg>
