<svg xmlns="http://www.w3.org/2000/svg" xmlns:xlink="http://www.w3.org/1999/xlink" preserveAspectRatio="xMidYMid" width="216" height="123" viewBox="0 0 216 123">
  <defs>
    <style>

      .cls-3 {
        fill: #2476ff;
      }

      .cls-5 {
        fill: #000000;
        opacity: 0.35;
      }

      .cls-9 {
        fill: #ededed;
      }
    </style>
  </defs>
  <g id="group-118svg">
    <path d="M107.776,97.661 C158.542,97.661 199.697,56.507 199.697,5.744 C199.697,5.744 15.855,5.744 15.855,5.744 C15.855,56.507 57.010,97.661 107.776,97.661 Z" id="path-1" class="cls-3" fill-rule="evenodd"/>
    <path d="M107.776,97.661 C94.931,97.661 82.706,95.019 71.603,90.260 C71.603,90.260 65.621,109.999 65.621,109.999 C63.727,116.249 68.405,122.556 74.937,122.556 C74.937,122.556 141.360,122.556 141.360,122.556 C147.665,122.556 152.306,116.654 150.820,110.528 C150.820,110.528 145.713,89.462 145.713,89.462 C134.144,94.714 121.309,97.661 107.776,97.661 Z" id="path-2" class="cls-3" fill-rule="evenodd"/>
    <path d="M68.909,99.147 C80.717,104.664 93.882,107.763 107.776,107.763 C122.171,107.763 135.788,104.450 147.918,98.553 C147.918,98.553 145.713,89.462 145.713,89.462 C134.144,94.713 121.309,97.661 107.776,97.661 C94.931,97.661 82.705,95.019 71.602,90.260 C71.602,90.260 68.909,99.147 68.909,99.147 Z" id="path-3" class="cls-5" fill-rule="evenodd"/>
    <path d="M207.676,7.021 C207.676,7.021 7.876,7.021 7.876,7.021 C5.937,7.021 4.365,5.448 4.365,3.509 C4.365,3.509 4.365,3.509 4.365,3.509 C4.365,1.570 5.937,-0.002 7.876,-0.002 C7.876,-0.002 207.676,-0.002 207.676,-0.002 C209.615,-0.002 211.187,1.570 211.187,3.509 C211.187,3.509 211.187,3.509 211.187,3.509 C211.187,5.448 209.615,7.021 207.676,7.021 Z" id="path-4" class="cls-3" fill-rule="evenodd"/>
    <path d="M5.142,24.864 C5.142,24.864 26.568,24.864 26.568,24.864 C29.405,24.864 31.704,22.565 31.704,19.727 C31.704,19.727 31.704,19.727 31.704,19.727 C31.704,16.892 29.405,14.592 26.568,14.592 C26.568,14.592 5.142,14.592 5.142,14.592 C2.306,14.592 0.007,16.892 0.007,19.727 C0.007,19.727 0.007,19.727 0.007,19.727 C0.007,22.565 2.306,24.864 5.142,24.864 Z" id="path-5" class="cls-3" fill-rule="evenodd"/>
    <path d="M188.984,24.864 C188.984,24.864 210.410,24.864 210.410,24.864 C213.247,24.864 215.546,22.565 215.546,19.727 C215.546,19.727 215.546,19.727 215.546,19.727 C215.546,16.892 213.247,14.592 210.410,14.592 C210.410,14.592 188.984,14.592 188.984,14.592 C186.148,14.592 183.848,16.892 183.848,19.727 C183.848,19.727 183.848,19.727 183.848,19.727 C183.848,22.565 186.148,24.864 188.984,24.864 Z" id="path-6" class="cls-3" fill-rule="evenodd"/>
    <path d="M66.313,29.346 C66.313,31.822 64.306,33.829 61.830,33.829 C59.354,33.829 57.348,31.822 57.348,29.346 C57.348,26.871 59.354,24.864 61.830,24.864 C64.306,24.864 66.313,26.871 66.313,29.346 Z" id="path-7" class="cls-9" fill-rule="evenodd"/>
    <path d="M40.779,29.346 C40.779,31.822 38.772,33.829 36.296,33.829 C33.821,33.829 31.814,31.822 31.814,29.346 C31.814,26.871 33.821,24.864 36.296,24.864 C38.772,24.864 40.779,26.871 40.779,29.346 Z" id="path-8" class="cls-9" fill-rule="evenodd"/>
    <path d="M99.506,29.346 C99.506,31.822 97.500,33.829 95.024,33.829 C92.548,33.829 90.541,31.822 90.541,29.346 C90.541,26.871 92.548,24.864 95.024,24.864 C97.500,24.864 99.506,26.871 99.506,29.346 Z" id="path-9" class="cls-9" fill-rule="evenodd"/>
    <path d="M168.447,29.346 C168.447,31.822 166.441,33.829 163.964,33.829 C161.489,33.829 159.482,31.822 159.482,29.346 C159.482,26.871 161.489,24.864 163.964,24.864 C166.441,24.864 168.447,26.871 168.447,29.346 Z" id="path-10" class="cls-9" fill-rule="evenodd"/>
    <path d="M122.487,49.773 C122.487,52.248 120.480,54.255 118.004,54.255 C115.528,54.255 113.521,52.248 113.521,49.773 C113.521,47.297 115.528,45.289 118.004,45.289 C120.480,45.289 122.487,47.297 122.487,49.773 Z" id="path-11" class="cls-9" fill-rule="evenodd"/>
    <path d="M89.293,49.773 C89.293,52.248 87.286,54.255 84.810,54.255 C82.335,54.255 80.328,52.248 80.328,49.773 C80.328,47.297 82.335,45.289 84.810,45.289 C87.286,45.289 89.293,47.297 89.293,49.773 Z" id="path-12" class="cls-9" fill-rule="evenodd"/>
    <path d="M163.341,49.773 C163.341,52.248 161.334,54.255 158.858,54.255 C156.382,54.255 154.374,52.248 154.374,49.773 C154.374,47.297 156.382,45.289 158.858,45.289 C161.334,45.289 163.341,47.297 163.341,49.773 Z" id="path-13" class="cls-9" fill-rule="evenodd"/>
    <path d="M142.914,67.646 C142.914,70.123 140.907,72.128 138.431,72.128 C135.955,72.128 133.948,70.123 133.948,67.646 C133.948,65.170 135.955,63.163 138.431,63.163 C140.907,63.163 142.914,65.170 142.914,67.646 Z" id="path-14" class="cls-9" fill-rule="evenodd"/>
    <path d="M109.720,70.200 C109.720,72.674 107.713,74.682 105.237,74.682 C102.761,74.682 100.754,72.674 100.754,70.200 C100.754,67.724 102.761,65.717 105.237,65.717 C107.713,65.717 109.720,67.724 109.720,70.200 Z" id="path-15" class="cls-9" fill-rule="evenodd"/>
    <path d="M58.653,49.773 C58.653,52.248 56.646,54.255 54.170,54.255 C51.694,54.255 49.687,52.248 49.687,49.773 C49.687,47.297 51.694,45.289 54.170,45.289 C56.646,45.289 58.653,47.297 58.653,49.773 Z" id="path-16" class="cls-9" fill-rule="evenodd"/>
    <path d="M140.360,31.900 C140.360,34.376 138.353,36.383 135.878,36.383 C133.402,36.383 131.395,34.376 131.395,31.900 C131.395,29.423 133.402,27.418 135.878,27.418 C138.353,27.418 140.360,29.423 140.360,31.900 Z" id="path-17" class="cls-9" fill-rule="evenodd"/>
    <path d="M61.830,24.864 C61.233,24.864 60.668,24.991 60.146,25.203 C61.785,25.871 62.945,27.468 62.945,29.346 C62.945,31.225 61.785,32.822 60.146,33.490 C60.668,33.701 61.233,33.829 61.830,33.829 C64.306,33.829 66.313,31.822 66.313,29.346 C66.313,26.871 64.306,24.864 61.830,24.864 Z" id="path-18" class="cls-5" fill-rule="evenodd"/>
    <path d="M36.296,24.864 C35.699,24.864 35.133,24.991 34.612,25.203 C36.252,25.871 37.412,27.468 37.412,29.346 C37.412,31.225 36.252,32.822 34.612,33.490 C35.133,33.701 35.699,33.829 36.296,33.829 C38.772,33.829 40.779,31.822 40.779,29.346 C40.779,26.871 38.772,24.864 36.296,24.864 Z" id="path-19" class="cls-5" fill-rule="evenodd"/>
    <path d="M95.024,24.864 C94.426,24.864 93.861,24.991 93.340,25.203 C94.979,25.871 96.139,27.468 96.139,29.346 C96.139,31.225 94.979,32.822 93.340,33.490 C93.861,33.701 94.426,33.829 95.024,33.829 C97.500,33.829 99.506,31.822 99.506,29.346 C99.506,26.871 97.500,24.864 95.024,24.864 Z" id="path-20" class="cls-5" fill-rule="evenodd"/>
    <path d="M163.964,24.864 C163.367,24.864 162.802,24.991 162.280,25.203 C163.920,25.871 165.080,27.468 165.080,29.346 C165.080,31.225 163.920,32.822 162.280,33.490 C162.802,33.701 163.367,33.829 163.964,33.829 C166.441,33.829 168.447,31.822 168.447,29.346 C168.447,26.871 166.441,24.864 163.964,24.864 Z" id="path-21" class="cls-5" fill-rule="evenodd"/>
    <path d="M118.004,45.289 C117.406,45.289 116.842,45.418 116.320,45.631 C117.959,46.297 119.119,47.894 119.119,49.773 C119.119,51.652 117.959,53.249 116.320,53.916 C116.842,54.128 117.406,54.255 118.004,54.255 C120.480,54.255 122.487,52.248 122.487,49.773 C122.487,47.297 120.480,45.289 118.004,45.289 Z" id="path-22" class="cls-5" fill-rule="evenodd"/>
    <path d="M84.810,45.289 C84.213,45.289 83.648,45.418 83.127,45.631 C84.765,46.297 85.926,47.894 85.926,49.773 C85.926,51.652 84.765,53.249 83.127,53.916 C83.648,54.128 84.213,54.255 84.810,54.255 C87.286,54.255 89.293,52.248 89.293,49.773 C89.293,47.297 87.286,45.289 84.810,45.289 Z" id="path-23" class="cls-5" fill-rule="evenodd"/>
    <path d="M158.858,45.289 C158.260,45.289 157.695,45.418 157.174,45.631 C158.813,46.297 159.973,47.894 159.973,49.773 C159.973,51.652 158.813,53.249 157.174,53.916 C157.695,54.128 158.260,54.255 158.858,54.255 C161.334,54.255 163.341,52.248 163.341,49.773 C163.341,47.297 161.334,45.289 158.858,45.289 Z" id="path-24" class="cls-5" fill-rule="evenodd"/>
    <path d="M138.431,63.163 C137.834,63.163 137.268,63.291 136.747,63.503 C138.386,64.170 139.546,65.768 139.546,67.646 C139.546,69.525 138.386,71.122 136.747,71.789 C137.268,72.000 137.834,72.128 138.431,72.128 C140.907,72.128 142.914,70.123 142.914,67.646 C142.914,65.170 140.907,63.163 138.431,63.163 Z" id="path-25" class="cls-5" fill-rule="evenodd"/>
    <path d="M105.237,65.717 C104.640,65.717 104.074,65.845 103.553,66.057 C105.192,66.723 106.353,68.322 106.353,70.200 C106.353,72.078 105.192,73.675 103.553,74.341 C104.074,74.554 104.640,74.682 105.237,74.682 C107.713,74.682 109.720,72.674 109.720,70.200 C109.720,67.724 107.713,65.717 105.237,65.717 Z" id="path-26" class="cls-5" fill-rule="evenodd"/>
    <path d="M54.170,45.289 C53.573,45.289 53.007,45.418 52.486,45.631 C54.125,46.297 55.285,47.894 55.285,49.773 C55.285,51.652 54.125,53.249 52.486,53.916 C53.007,54.128 53.573,54.255 54.170,54.255 C56.646,54.255 58.653,52.248 58.653,49.773 C58.653,47.297 56.646,45.289 54.170,45.289 Z" id="path-27" class="cls-5" fill-rule="evenodd"/>
    <path d="M135.878,27.418 C135.281,27.418 134.715,27.545 134.193,27.757 C135.833,28.424 136.993,30.021 136.993,31.900 C136.993,33.778 135.833,35.376 134.193,36.043 C134.715,36.255 135.281,36.383 135.878,36.383 C138.353,36.383 140.360,34.376 140.360,31.900 C140.360,29.423 138.353,27.418 135.878,27.418 Z" id="path-28" class="cls-5" fill-rule="evenodd"/>
    <path d="M198.639,19.727 C199.273,15.579 199.606,11.331 199.665,7.021 C199.665,7.021 15.887,7.021 15.887,7.021 C15.946,11.331 15.548,9.224 16.181,13.374 C16.181,13.374 198.639,19.727 198.639,19.727 Z" id="path-29" class="cls-5" fill-rule="evenodd"/>
  </g>
</svg>
