<svg xmlns="http://www.w3.org/2000/svg" xmlns:xlink="http://www.w3.org/1999/xlink" preserveAspectRatio="xMidYMid" width="216" height="92" viewBox="0 0 216 92">
  <defs>
    <style>

      .cls-3 {
        fill: #fbb713;
      }

      .cls-4 {
        fill: #000000;
        opacity: 0.25;
      }

      .cls-5 {
        fill: #142a3b;
      }
    </style>
  </defs>
  <g id="group-89svg">
    <path d="M33.148,61.348 C33.148,61.348 33.148,0.004 33.148,0.004 C33.148,0.004 -0.012,0.004 -0.012,0.004 C-0.012,0.004 -0.012,91.191 -0.012,91.191 C-0.012,91.191 215.528,91.191 215.528,91.191 C215.528,91.191 215.528,61.348 215.528,61.348 C215.528,61.348 33.148,61.348 33.148,61.348 Z" id="path-1" class="cls-3" fill-rule="evenodd"/>
    <path d="M6.620,84.559 C6.620,84.559 6.620,0.004 6.620,0.004 C6.620,0.004 -0.012,0.004 -0.012,0.004 C-0.012,0.004 -0.012,91.191 -0.012,91.191 C-0.012,91.191 215.528,91.191 215.528,91.191 C215.528,91.191 215.528,84.559 215.528,84.559 C215.528,84.559 6.620,84.559 6.620,84.559 Z" id="path-2" class="cls-4" fill-rule="evenodd"/>
    <path d="M51.938,91.191 C51.938,91.191 46.135,91.191 46.135,91.191 C46.135,91.191 46.135,76.822 46.135,76.822 C46.135,76.822 51.938,76.822 51.938,76.822 C51.938,76.822 51.938,91.191 51.938,91.191 Z" id="path-3" class="cls-5" fill-rule="evenodd"/>
    <path d="M85.099,91.191 C85.099,91.191 79.296,91.191 79.296,91.191 C79.296,91.191 79.296,76.822 79.296,76.822 C79.296,76.822 85.099,76.822 85.099,76.822 C85.099,76.822 85.099,91.191 85.099,91.191 Z" id="path-4" class="cls-5" fill-rule="evenodd"/>
    <path d="M118.258,91.191 C118.258,91.191 112.455,91.191 112.455,91.191 C112.455,91.191 112.455,76.822 112.455,76.822 C112.455,76.822 118.258,76.822 118.258,76.822 C118.258,76.822 118.258,91.191 118.258,91.191 Z" id="path-5" class="cls-5" fill-rule="evenodd"/>
    <path d="M-0.012,12.024 C-0.012,12.024 -0.012,6.222 -0.012,6.222 C-0.012,6.222 14.357,6.222 14.357,6.222 C14.357,6.222 14.357,12.024 14.357,12.024 C14.357,12.024 -0.012,12.024 -0.012,12.024 Z" id="path-6" class="cls-5" fill-rule="evenodd"/>
    <path d="M-0.012,45.183 C-0.012,45.183 -0.012,39.381 -0.012,39.381 C-0.012,39.381 14.357,39.381 14.357,39.381 C14.357,39.381 14.357,45.183 14.357,45.183 C14.357,45.183 -0.012,45.183 -0.012,45.183 Z" id="path-7" class="cls-5" fill-rule="evenodd"/>
    <path d="M-0.012,78.343 C-0.012,78.343 -0.012,72.539 -0.012,72.539 C-0.012,72.539 14.357,72.539 14.357,72.539 C14.357,72.539 14.357,78.343 14.357,78.343 C14.357,78.343 -0.012,78.343 -0.012,78.343 Z" id="path-8" class="cls-5" fill-rule="evenodd"/>
    <path d="M151.418,91.191 C151.418,91.191 145.615,91.191 145.615,91.191 C145.615,91.191 145.615,76.822 145.615,76.822 C145.615,76.822 151.418,76.822 151.418,76.822 C151.418,76.822 151.418,91.191 151.418,91.191 Z" id="path-9" class="cls-5" fill-rule="evenodd"/>
    <path d="M184.579,91.191 C184.579,91.191 178.775,91.191 178.775,91.191 C178.775,91.191 178.775,76.822 178.775,76.822 C178.775,76.822 184.579,76.822 184.579,76.822 C184.579,76.822 184.579,91.191 184.579,91.191 Z" id="path-10" class="cls-5" fill-rule="evenodd"/>
  </g>
</svg>
