<svg xmlns="http://www.w3.org/2000/svg" xmlns:xlink="http://www.w3.org/1999/xlink" preserveAspectRatio="xMidYMid" width="216" height="177" viewBox="0 0 216 177">
  <defs>
    <style>

      .cls-3 {
        fill: #2476ff;
      }

      .cls-4 {
        fill: #ff3a2f;
      }

      .cls-5 {
        fill: #060606;
        opacity: 0.35;
      }
    </style>
  </defs>
  <g id="group-25svg">
    <path d="M215.541,175.754 C215.541,175.754 82.279,87.884 82.279,87.884 C82.279,87.884 215.541,0.014 215.541,0.014 C215.541,0.014 215.541,175.754 215.541,175.754 Z" id="path-1" class="cls-3" fill-rule="evenodd"/>
    <path d="M133.262,175.754 C133.262,175.754 0.001,87.884 0.001,87.884 C0.001,87.884 133.262,0.014 133.262,0.014 C133.262,0.014 133.262,175.754 133.262,175.754 Z" id="path-2" class="cls-4" fill-rule="evenodd"/>
    <path d="M133.262,121.501 C133.262,121.501 136.860,123.873 136.860,123.873 C136.860,123.873 146.754,45.371 146.754,45.371 C146.754,45.371 133.262,54.267 133.262,54.267 C133.262,54.267 133.262,121.501 133.262,121.501 Z" id="path-3" class="cls-5" fill-rule="evenodd"/>
  </g>
</svg>
