<svg xmlns="http://www.w3.org/2000/svg" xmlns:xlink="http://www.w3.org/1999/xlink" preserveAspectRatio="xMidYMid" width="216" height="162" viewBox="0 0 216 162">
  <defs>
    <style>

      .cls-3 {
        fill: #2476ff;
      }

      .cls-4 {
        fill: #000000;
        opacity: 0.35;
      }

      .cls-8 {
        fill: #ffffff;
      }

      .cls-9 {
        fill: #142a3b;
      }
    </style>
  </defs>
  <g id="group-81svg">
    <path d="M215.531,158.734 C215.531,158.734 -0.008,158.734 -0.008,158.734 C-0.008,158.734 -0.008,-0.011 -0.008,-0.011 C-0.008,-0.011 215.531,-0.011 215.531,-0.011 C215.531,-0.011 215.531,158.734 215.531,158.734 Z" id="path-1" class="cls-3" fill-rule="evenodd"/>
    <path d="M187.457,155.061 C187.457,155.061 35.311,155.061 35.311,155.061 C35.311,155.061 57.046,136.682 57.046,136.682 C57.046,136.682 169.344,136.682 169.344,136.682 C169.344,136.682 187.457,155.061 187.457,155.061 Z" id="path-2" class="cls-4" fill-rule="evenodd"/>
    <path d="M183.834,162.305 C183.834,162.305 31.689,162.305 31.689,162.305 C31.689,162.305 53.424,141.459 53.424,141.459 C53.424,141.459 165.722,141.459 165.722,141.459 C165.722,141.459 183.834,162.305 183.834,162.305 Z" id="path-3" class="cls-3" fill-rule="evenodd"/>
    <path d="M204.664,-0.011 C204.664,-0.011 204.664,158.734 204.664,158.734 C204.664,158.734 215.531,158.734 215.531,158.734 C215.531,158.734 215.531,-0.011 215.531,-0.011 C215.531,-0.011 204.664,-0.011 204.664,-0.011 Z" id="path-4" class="cls-4" fill-rule="evenodd"/>
    <path d="M187.457,114.275 C187.457,114.275 35.311,114.275 35.311,114.275 C35.311,114.275 35.311,28.873 35.311,28.873 C35.311,28.873 187.457,28.873 187.457,28.873 C187.457,28.873 187.457,114.275 187.457,114.275 Z" id="path-5" class="cls-4" fill-rule="evenodd"/>
    <path d="M183.834,110.652 C183.834,110.652 31.689,110.652 31.689,110.652 C31.689,110.652 31.689,25.250 31.689,25.250 C31.689,25.250 183.834,25.250 183.834,25.250 C183.834,25.250 183.834,110.652 183.834,110.652 Z" id="path-6" class="cls-8" fill-rule="evenodd"/>
    <path d="M169.797,72.117 C169.797,80.619 162.904,87.512 154.402,87.512 C145.898,87.512 139.005,80.619 139.005,72.117 C139.005,63.614 145.898,56.721 154.402,56.721 C162.904,56.721 169.797,63.614 169.797,72.117 Z" id="path-7" class="cls-9" fill-rule="evenodd"/>
    <path d="M163.303,59.593 C165.096,62.110 166.174,65.169 166.174,68.494 C166.174,76.998 159.282,83.889 150.779,83.889 C147.454,83.889 144.394,82.810 141.877,81.017 C144.668,84.936 149.224,87.512 154.402,87.512 C162.904,87.512 169.797,80.619 169.797,72.116 C169.797,66.939 167.221,62.384 163.303,59.593 Z" id="path-8" class="cls-4" fill-rule="evenodd"/>
    <path d="M75.612,72.117 C75.612,80.619 68.719,87.512 60.216,87.512 C51.713,87.512 44.820,80.619 44.820,72.117 C44.820,63.614 51.713,56.721 60.216,56.721 C68.719,56.721 75.612,63.614 75.612,72.117 Z" id="path-9" class="cls-9" fill-rule="evenodd"/>
    <path d="M60.216,56.721 C59.595,56.721 59.006,56.833 58.405,56.904 C66.044,57.811 71.990,64.234 71.990,72.116 C71.990,79.998 66.044,86.423 58.405,87.330 C59.006,87.401 59.595,87.512 60.216,87.512 C68.719,87.512 75.612,80.619 75.612,72.116 C75.612,63.614 68.719,56.721 60.216,56.721 Z" id="path-10" class="cls-4" fill-rule="evenodd"/>
    <path d="M154.402,149.999 C154.402,152.499 152.374,154.526 149.873,154.526 C147.373,154.526 145.345,152.499 145.345,149.999 C145.345,147.498 147.373,145.470 149.873,145.470 C152.374,145.470 154.402,147.498 154.402,149.999 Z" id="path-11" class="cls-8" fill-rule="evenodd"/>
    <path d="M78.329,149.999 C78.329,152.499 76.301,154.526 73.800,154.526 C71.299,154.526 69.272,152.499 69.272,149.999 C69.272,147.498 71.299,145.470 73.800,145.470 C76.301,145.470 78.329,147.498 78.329,149.999 Z" id="path-12" class="cls-8" fill-rule="evenodd"/>
    <path d="M135.836,82.824 C135.836,82.824 79.687,82.824 79.687,82.824 C79.687,82.824 79.687,61.941 79.687,61.941 C79.687,61.941 135.836,61.941 135.836,61.941 C135.836,61.941 135.836,82.824 135.836,82.824 Z" id="path-13" class="cls-9" fill-rule="evenodd"/>
    <path d="M184.741,44.104 C184.741,44.104 30.783,44.104 30.783,44.104 C30.783,44.104 30.783,36.919 30.783,36.919 C30.783,36.919 184.741,36.919 184.741,36.919 C184.741,36.919 184.741,44.104 184.741,44.104 Z" id="path-14" class="cls-9" fill-rule="evenodd"/>
  </g>
</svg>
