<svg xmlns="http://www.w3.org/2000/svg" xmlns:xlink="http://www.w3.org/1999/xlink" preserveAspectRatio="xMidYMid" width="185" height="216" viewBox="0 0 185 216">
  <defs>
    <style>

      .cls-3 {
        fill: #fbb713;
      }

      .cls-4 {
        fill: #000000;
        opacity: 0.35;
      }

      .cls-6 {
        fill: #000000;
        opacity: 0.25;
      }

      .cls-7 {
        fill: #142a3b;
      }

      .cls-11 {
        fill: #ededed;
      }

      .cls-13 {
        fill: #ff3a2f;
      }
    </style>
  </defs>
  <g id="group-60svg">
    <path d="M45.966,28.367 C45.966,28.367 150.734,28.367 150.734,28.367 C150.734,28.367 150.734,-0.007 150.734,-0.007 C150.734,-0.007 45.966,-0.007 45.966,-0.007 C45.966,-0.007 45.966,28.367 45.966,28.367 Z" id="path-1" class="cls-3" fill-rule="evenodd"/>
    <path d="M133.628,-0.007 C133.628,-0.007 133.628,28.367 133.628,28.367 C133.628,28.367 150.734,28.367 150.734,28.367 C150.734,28.367 150.734,-0.007 150.734,-0.007 C150.734,-0.007 133.628,-0.007 133.628,-0.007 Z" id="path-2" class="cls-4" fill-rule="evenodd"/>
    <path d="M150.734,194.246 C150.734,194.246 45.966,194.246 45.966,194.246 C45.966,194.246 45.966,28.367 45.966,28.367 C45.966,28.367 150.734,28.367 150.734,28.367 C150.734,28.367 150.734,194.246 150.734,194.246 Z" id="path-3" class="cls-3" fill-rule="evenodd"/>
    <path d="M49.103,28.367 C49.103,28.367 121.857,33.446 121.857,33.446 C130.414,34.043 137.049,41.157 137.049,49.735 C137.049,49.735 137.049,153.661 137.049,153.661 C137.049,160.958 131.133,166.876 123.834,166.876 C123.834,166.876 45.966,166.876 45.966,166.876 C45.966,166.876 45.966,180.561 45.966,180.561 C45.966,180.561 150.734,180.561 150.734,180.561 C150.734,180.561 150.734,28.367 150.734,28.367 C150.734,28.367 49.103,28.367 49.103,28.367 Z" id="path-4" class="cls-6" fill-rule="evenodd"/>
    <path d="M159.464,215.526 C159.464,215.526 37.235,215.526 37.235,215.526 C37.235,215.526 37.235,179.512 37.235,179.512 C37.235,179.512 159.464,179.512 159.464,179.512 C159.464,179.512 159.464,215.526 159.464,215.526 Z" id="path-5" class="cls-7" fill-rule="evenodd"/>
    <path d="M176.200,44.617 C176.200,44.617 149.506,44.617 149.506,44.617 C149.506,44.617 149.506,59.414 149.506,59.414 C149.506,59.414 159.139,59.414 159.139,59.414 C163.961,59.414 167.870,62.358 167.870,65.991 C167.870,65.991 167.870,125.176 167.870,125.176 C167.870,128.809 163.961,131.753 159.139,131.753 C159.139,131.753 149.506,131.753 149.506,131.753 C149.506,131.753 149.506,146.549 149.506,146.549 C149.506,146.549 176.200,146.549 176.200,146.549 C181.023,146.549 184.931,143.605 184.931,139.973 C184.931,139.973 184.931,51.194 184.931,51.194 C184.931,47.561 181.023,44.617 176.200,44.617 Z" id="path-6" class="cls-7" fill-rule="evenodd"/>
    <path d="M49.103,28.367 C49.103,28.367 -0.007,28.367 -0.007,28.367 C-0.007,28.367 10.906,64.380 48.012,91.663 C48.012,91.663 49.103,28.367 49.103,28.367 Z" id="path-7" class="cls-3" fill-rule="evenodd"/>
    <path d="M38.544,28.367 C38.544,28.367 37.748,74.557 37.748,74.557 C23.437,64.034 13.035,52.219 5.640,41.666 C12.174,54.635 25.091,74.810 48.012,91.663 C48.012,91.663 49.103,28.367 49.103,28.367 C49.103,28.367 38.544,28.367 38.544,28.367 Z" id="path-8" class="cls-4" fill-rule="evenodd"/>
    <path d="M105.372,157.141 C105.372,157.141 91.327,157.141 91.327,157.141 C90.083,157.141 89.073,156.131 89.073,154.887 C89.073,154.887 89.073,67.726 89.073,67.726 C89.073,66.481 90.083,65.471 91.327,65.471 C91.327,65.471 105.372,65.471 105.372,65.471 C106.617,65.471 107.626,66.481 107.626,67.726 C107.626,67.726 107.626,154.887 107.626,154.887 C107.626,156.131 106.617,157.141 105.372,157.141 Z" id="path-9" class="cls-11" fill-rule="evenodd"/>
    <path d="M98.497,65.471 C98.497,65.471 98.202,65.471 98.202,65.471 C97.667,65.471 97.149,65.541 96.639,65.630 C100.932,66.374 104.205,70.095 104.205,74.601 C104.205,74.601 104.205,148.012 104.205,148.012 C104.205,152.518 100.932,156.239 96.639,156.983 C97.149,157.072 97.667,157.141 98.202,157.141 C98.202,157.141 98.497,157.141 98.497,157.141 C103.539,157.141 107.626,153.054 107.626,148.012 C107.626,148.012 107.626,74.601 107.626,74.601 C107.626,69.560 103.539,65.471 98.497,65.471 Z" id="path-10" class="cls-4" fill-rule="evenodd"/>
    <path d="M98.287,151.339 C97.294,151.339 96.491,150.536 96.491,149.543 C96.491,149.543 96.491,77.270 96.491,77.270 C96.491,76.278 97.294,75.475 98.287,75.475 C99.280,75.475 100.084,76.278 100.084,77.270 C100.084,77.270 100.084,149.543 100.084,149.543 C100.084,150.536 99.280,151.339 98.287,151.339 Z" id="path-11" class="cls-13" fill-rule="evenodd"/>
    <path d="M57.818,153.852 C55.834,153.852 54.225,152.244 54.225,150.260 C54.225,150.260 54.225,113.407 54.225,113.407 C54.225,111.424 55.834,109.815 57.818,109.815 C59.801,109.815 61.410,111.424 61.410,113.407 C61.410,113.407 61.410,150.260 61.410,150.260 C61.410,152.244 59.801,153.852 57.818,153.852 Z" id="path-12" class="cls-11" fill-rule="evenodd"/>
  </g>
</svg>
