<svg xmlns="http://www.w3.org/2000/svg" xmlns:xlink="http://www.w3.org/1999/xlink" preserveAspectRatio="xMidYMid" width="216" height="216" viewBox="0 0 216 216">
  <defs>
    <style>

      .cls-3 {
        fill: #fbb713;
      }

      .cls-4 {
        fill: #000000;
        opacity: 0.25;
      }
    </style>
  </defs>
  <g id="group-82svg">
    <path d="M191.809,47.386 C191.809,47.386 53.743,185.448 53.743,185.448 C53.743,185.448 30.074,161.780 30.074,161.780 C30.074,161.780 168.141,23.718 168.141,23.718 C168.141,23.718 191.809,47.386 191.809,47.386 Z" id="path-1" class="cls-3" fill-rule="evenodd"/>
    <path d="M168.141,23.718 C168.141,23.718 162.437,29.422 162.437,29.422 C162.437,29.422 180.402,47.385 180.402,47.385 C180.402,47.385 48.039,179.744 48.039,179.744 C48.039,179.744 53.743,185.448 53.743,185.448 C53.743,185.448 191.809,47.385 191.809,47.385 C191.809,47.385 168.141,23.718 168.141,23.718 Z" id="path-2" class="cls-4" fill-rule="evenodd"/>
    <path d="M64.123,174.419 C59.503,169.800 53.451,167.486 47.397,167.477 C47.387,161.423 45.074,155.371 40.454,150.751 C31.195,141.492 16.183,141.492 6.923,150.751 C-2.335,160.010 -2.335,175.022 6.923,184.281 C11.544,188.900 17.595,191.213 23.649,191.223 C23.660,197.277 25.973,203.329 30.592,207.948 C39.852,217.207 54.864,217.207 64.123,207.948 C73.382,198.689 73.382,183.678 64.123,174.419 Z" id="path-3" class="cls-3" fill-rule="evenodd"/>
    <path d="M64.123,196.540 C54.864,205.798 39.852,205.798 30.592,196.540 C25.973,191.921 23.660,185.869 23.649,179.815 C17.595,179.806 11.544,177.492 6.923,172.873 C3.758,169.707 1.701,165.863 0.701,161.812 C-1.226,169.608 0.830,178.188 6.923,184.281 C11.544,188.900 17.595,191.213 23.649,191.223 C23.660,197.277 25.973,203.329 30.592,207.948 C39.852,217.207 54.864,217.207 64.123,207.948 C70.216,201.855 72.273,193.276 70.346,185.479 C69.345,189.531 67.289,193.375 64.123,196.540 Z" id="path-4" class="cls-4" fill-rule="evenodd"/>
    <path d="M208.575,30.620 C203.955,26.001 197.904,23.689 191.849,23.679 C191.839,17.624 189.526,11.572 184.906,6.953 C175.647,-2.306 160.636,-2.306 151.376,6.953 C142.117,16.212 142.117,31.224 151.376,40.482 C155.996,45.102 162.047,47.414 168.102,47.424 C168.112,53.479 170.425,59.531 175.044,64.150 C184.304,73.409 199.315,73.409 208.575,64.150 C217.834,54.891 217.834,39.879 208.575,30.620 Z" id="path-5" class="cls-3" fill-rule="evenodd"/>
    <path d="M208.575,56.545 C199.315,65.804 184.304,65.804 175.044,56.545 C170.425,51.926 168.112,45.874 168.102,39.820 C162.047,39.810 155.996,37.497 151.376,32.877 C147.717,29.220 145.528,24.660 144.761,19.915 C143.586,27.179 145.775,34.882 151.376,40.482 C155.996,45.102 162.047,47.414 168.102,47.424 C168.112,53.479 170.425,59.531 175.044,64.150 C184.304,73.409 199.315,73.409 208.575,64.150 C214.176,58.549 216.365,50.846 215.190,43.583 C214.422,48.327 212.234,52.887 208.575,56.545 Z" id="path-6" class="cls-4" fill-rule="evenodd"/>
  </g>
</svg>
