<svg xmlns="http://www.w3.org/2000/svg" xmlns:xlink="http://www.w3.org/1999/xlink" preserveAspectRatio="xMidYMid" width="169" height="214" viewBox="0 0 169 214">
  <defs>
    <style>

      .cls-3 {
        fill: #142a3b;
      }

      .cls-4 {
        fill: #ff3a2f;
      }

      .cls-5 {
        fill: #000000;
        opacity: 0.35;
      }

      .cls-6 {
        fill: #2476ff;
      }
    </style>
  </defs>
  <g id="group-96svg">
    <path d="M94.750,195.721 C94.750,195.721 87.750,195.721 87.750,195.721 C87.750,195.721 87.750,113.723 87.750,113.723 C87.750,113.723 94.750,113.723 94.750,113.723 C94.750,113.723 94.750,195.721 94.750,195.721 Z" id="path-1" class="cls-3" fill-rule="evenodd"/>
    <path d="M107.565,100.836 C107.565,109.213 100.773,116.006 92.395,116.006 C84.017,116.006 77.225,109.213 77.225,100.836 C77.225,92.459 84.017,85.666 92.395,85.666 C100.773,85.666 107.565,92.459 107.565,100.836 Z" id="path-2" class="cls-4" fill-rule="evenodd"/>
    <path d="M101.290,88.486 C103.113,90.989 104.221,94.045 104.221,97.379 C104.221,105.758 97.429,112.549 89.050,112.549 C85.716,112.549 82.660,111.440 80.156,109.616 C82.914,113.404 87.351,115.892 92.395,115.892 C100.773,115.892 107.565,109.101 107.565,100.723 C107.565,95.679 105.077,91.244 101.290,88.486 Z" id="path-3" class="cls-5" fill-rule="evenodd"/>
    <path d="M77.817,105.841 C77.817,105.841 -0.012,140.727 -0.012,140.727 C-0.012,140.727 93.795,162.720 77.817,105.841 Z" id="path-4" class="cls-6" fill-rule="evenodd"/>
    <path d="M77.817,105.727 C77.817,105.727 71.759,108.444 71.759,108.444 C78.241,136.864 55.637,144.166 33.008,144.743 C58.260,145.427 87.276,139.399 77.817,105.727 Z" id="path-5" class="cls-5" fill-rule="evenodd"/>
    <path d="M108.229,108.944 C108.229,108.944 168.538,169.252 168.538,169.252 C168.538,169.252 155.694,73.765 108.229,108.944 Z" id="path-6" class="cls-6" fill-rule="evenodd"/>
    <path d="M112.221,106.136 C110.918,106.934 109.589,107.823 108.229,108.830 C108.229,108.830 168.539,169.137 168.539,169.137 C168.539,169.137 168.112,165.986 167.137,161.049 C167.137,161.049 112.221,106.136 112.221,106.136 Z" id="path-7" class="cls-5" fill-rule="evenodd"/>
    <path d="M90.749,85.284 C90.749,85.284 90.749,-0.003 90.749,-0.003 C90.749,-0.003 29.750,76.598 90.749,85.284 Z" id="path-8" class="cls-6" fill-rule="evenodd"/>
    <path d="M64.173,55.745 C62.927,69.892 68.870,82.015 90.731,85.171 C90.731,85.171 90.731,78.484 90.731,78.484 C72.415,75.840 65.283,66.893 64.173,55.745 Z" id="path-9" class="cls-5" fill-rule="evenodd"/>
    <path d="M115.750,213.720 C115.750,213.720 65.750,213.720 65.750,213.720 C65.750,213.720 65.750,192.721 65.750,192.721 C65.750,192.721 115.750,192.721 115.750,192.721 C115.750,192.721 115.750,213.720 115.750,213.720 Z" id="path-10" class="cls-4" fill-rule="evenodd"/>
    <path d="M102.864,192.183 C102.864,192.183 102.864,213.737 102.864,213.737 C102.864,213.737 116.240,213.737 116.240,213.737 C116.240,213.737 116.240,192.183 116.240,192.183 C116.240,192.183 102.864,192.183 102.864,192.183 Z" id="path-11" class="cls-5" fill-rule="evenodd"/>
  </g>
</svg>
