<svg xmlns="http://www.w3.org/2000/svg" xmlns:xlink="http://www.w3.org/1999/xlink" preserveAspectRatio="xMidYMid" width="172" height="216" viewBox="0 0 172 216">
  <defs>
    <style>

      .cls-3 {
        fill: #fbb713;
      }

      .cls-5 {
        fill: #000000;
        opacity: 0.25;
      }

      .cls-10 {
        fill: #000000;
        opacity: 0.35;
      }

      .cls-12 {
        fill: #ff3a2f;
      }

      .cls-25 {
        fill: #0cb04a;
      }

      .cls-26 {
        fill: #142a3b;
      }
    </style>
  </defs>
  <g id="group-142svg">
    <path d="M125.961,-0.011 C114.975,-0.011 104.743,5.392 98.520,14.436 C121.527,19.216 138.595,36.003 138.595,55.983 C138.595,58.889 138.225,61.728 137.537,64.476 C150.544,59.661 159.262,47.223 159.262,33.291 C159.262,14.924 144.323,-0.011 125.961,-0.011 Z" id="path-1" class="cls-3" fill-rule="evenodd"/>
    <path d="M31.796,55.983 C31.796,35.603 49.547,18.528 73.256,14.149 C67.005,5.286 56.895,-0.011 46.041,-0.011 C27.678,-0.011 12.738,14.924 12.738,33.291 C12.738,46.577 20.698,58.447 32.707,63.703 C32.137,61.195 31.796,58.621 31.796,55.983 Z" id="path-2" class="cls-3" fill-rule="evenodd"/>
    <path d="M125.961,-0.011 C125.304,-0.011 124.661,0.071 124.009,0.110 C141.271,1.327 154.952,15.720 154.952,33.291 C154.952,45.458 148.298,56.485 137.948,62.290 C137.813,63.019 137.717,63.759 137.537,64.476 C150.544,59.661 159.262,47.223 159.262,33.291 C159.262,14.924 144.323,-0.011 125.961,-0.011 Z" id="path-3" class="cls-5" fill-rule="evenodd"/>
    <path d="M17.048,33.291 C17.048,15.717 30.735,1.323 48.000,0.109 C47.347,0.071 46.700,-0.011 46.041,-0.011 C27.678,-0.011 12.738,14.924 12.738,33.291 C12.738,46.577 20.698,58.447 32.707,63.703 C32.512,62.845 32.385,61.970 32.249,61.095 C22.961,55.071 17.048,44.718 17.048,33.291 Z" id="path-4" class="cls-5" fill-rule="evenodd"/>
    <path d="M170.131,109.150 C168.198,102.083 163.859,96.332 157.924,92.947 C151.418,89.247 143.453,88.510 134.928,90.858 C132.698,91.455 130.495,92.329 128.314,93.326 C136.995,108.128 142.193,126.471 142.193,144.024 C142.193,144.053 142.189,144.079 142.189,144.107 C144.573,143.851 146.925,143.480 149.182,142.865 C157.579,140.556 163.993,135.982 167.724,129.634 C171.253,123.625 172.109,116.346 170.131,109.150 Z" id="path-5" class="cls-3" fill-rule="evenodd"/>
    <path d="M170.131,109.150 C168.567,103.430 165.367,98.647 161.080,95.209 C163.210,97.988 164.835,101.235 165.820,104.839 C167.798,112.035 166.942,119.314 163.413,125.322 C159.682,131.671 153.268,136.245 144.871,138.555 C143.937,138.809 142.979,138.999 142.017,139.180 C142.103,140.797 142.193,142.416 142.193,144.024 C142.193,144.053 142.189,144.079 142.189,144.107 C144.573,143.851 146.925,143.480 149.182,142.865 C157.579,140.556 163.993,135.982 167.724,129.634 C171.253,123.625 172.109,116.346 170.131,109.150 Z" id="path-6" class="cls-5" fill-rule="evenodd"/>
    <path d="M42.146,92.984 C40.196,92.133 38.231,91.391 36.254,90.858 C27.724,88.510 19.760,89.238 13.240,92.947 C7.305,96.332 2.966,102.083 1.037,109.141 C-0.945,116.346 -0.090,123.625 3.440,129.634 C7.171,135.982 13.585,140.556 21.987,142.865 C23.550,143.292 25.935,143.652 28.073,143.922 C28.093,126.261 33.356,107.814 42.146,92.984 Z" id="path-7" class="cls-3" fill-rule="evenodd"/>
    <path d="M36.584,90.962 C28.572,105.385 23.781,122.833 23.763,139.612 C21.624,139.341 19.239,138.982 17.676,138.555 C12.896,137.240 8.787,135.170 5.422,132.480 C9.263,137.349 14.908,140.920 21.987,142.865 C23.550,143.292 25.935,143.652 28.073,143.922 C28.093,126.261 33.356,107.814 42.146,92.984 C40.305,92.181 38.449,91.488 36.584,90.962 Z" id="path-8" class="cls-10" fill-rule="evenodd"/>
    <path d="M123.474,85.867 C113.764,93.912 100.205,98.936 85.196,98.936 C70.147,98.936 56.560,93.885 46.845,85.803 C35.216,101.573 28.069,123.362 28.069,144.024 C28.069,148.804 28.530,153.421 29.282,157.872 C32.762,153.498 37.090,150.692 41.973,149.831 C57.511,147.043 72.027,165.033 74.971,181.706 C76.526,190.528 74.833,198.466 70.658,204.447 C75.297,205.563 80.143,206.155 85.132,206.155 C90.279,206.155 95.272,205.525 100.049,204.330 C99.996,204.256 99.925,204.198 99.872,204.121 C95.732,198.029 94.342,190.273 95.861,181.706 C98.797,165.033 113.325,147.052 128.859,149.831 C133.760,150.697 137.862,153.370 141.092,157.165 C141.770,152.957 142.193,148.580 142.193,144.024 C142.193,123.397 135.065,101.632 123.474,85.867 Z" id="path-9" class="cls-3" fill-rule="evenodd"/>
    <path d="M123.853,149.674 C120.299,126.841 104.922,104.273 85.132,104.273 C64.763,104.273 49.880,126.935 46.393,149.637 C60.179,150.530 72.309,166.628 74.971,181.706 C76.526,190.528 74.833,198.466 70.658,204.447 C75.297,205.563 80.143,206.155 85.132,206.155 C90.279,206.155 95.272,205.525 100.049,204.330 C99.996,204.256 99.925,204.198 99.872,204.121 C95.732,198.029 94.342,190.273 95.861,181.706 C98.478,166.842 110.311,150.984 123.853,149.674 Z" id="path-10" class="cls-12" fill-rule="evenodd"/>
    <path d="M85.132,108.583 C103.711,108.583 118.398,128.476 123.067,149.802 C123.330,149.766 123.589,149.700 123.853,149.674 C120.299,126.841 104.922,104.273 85.132,104.273 C64.763,104.273 49.880,126.935 46.393,149.637 C46.655,149.655 46.910,149.713 47.171,149.742 C51.744,128.530 66.022,108.583 85.132,108.583 Z" id="path-11" class="cls-5" fill-rule="evenodd"/>
    <path d="M95.356,190.538 C95.055,195.728 95.893,200.530 97.832,204.742 C98.566,204.588 99.326,204.512 100.049,204.330 C99.996,204.256 99.925,204.198 99.872,204.121 C97.212,200.207 95.704,195.601 95.356,190.538 Z" id="path-12" class="cls-10" fill-rule="evenodd"/>
    <path d="M75.441,190.158 C75.094,195.576 73.445,200.453 70.658,204.447 C71.380,204.620 72.137,204.695 72.868,204.842 C74.860,200.557 75.783,195.575 75.441,190.158 Z" id="path-13" class="cls-10" fill-rule="evenodd"/>
    <path d="M37.663,141.210 C34.169,141.826 30.975,143.476 28.157,145.946 C28.263,150.035 28.632,154.028 29.282,157.872 C32.762,153.498 37.090,150.692 41.973,149.831 C52.289,147.980 62.132,155.305 68.459,165.304 C63.150,151.327 50.785,138.856 37.663,141.210 Z" id="path-14" class="cls-10" fill-rule="evenodd"/>
    <path d="M129.071,94.695 C134.642,107.365 137.882,121.619 137.882,135.403 C137.882,139.959 137.459,144.336 136.781,148.544 C133.552,144.750 129.450,142.075 124.549,141.210 C109.015,138.430 94.485,156.412 91.549,173.085 C90.032,181.653 91.422,189.408 95.562,195.500 C95.614,195.576 95.686,195.634 95.738,195.709 C90.961,196.904 85.967,197.533 80.821,197.533 C78.579,197.533 76.376,197.375 74.198,197.142 C73.372,199.802 72.186,202.258 70.658,204.447 C75.297,205.563 80.143,206.155 85.132,206.155 C90.279,206.155 95.272,205.525 100.049,204.330 C99.996,204.256 99.925,204.198 99.872,204.121 C95.732,198.029 94.342,190.273 95.861,181.706 C98.797,165.033 113.325,147.052 128.859,149.831 C133.760,150.697 137.862,153.370 141.092,157.165 C141.770,152.957 142.193,148.580 142.193,144.024 C142.193,127.001 137.282,109.257 129.071,94.695 Z" id="path-15" class="cls-10" fill-rule="evenodd"/>
    <path d="M21.565,55.716 C24.648,59.059 28.403,61.820 32.707,63.703 C32.137,61.195 31.796,58.621 31.796,55.983 C31.796,35.603 49.547,18.528 73.256,14.149 C71.327,11.414 68.997,9.067 66.426,7.062 C40.565,13.495 21.712,32.857 21.565,55.716 Z" id="path-16" class="cls-5" fill-rule="evenodd"/>
    <path d="M48.383,215.523 C48.383,215.523 48.383,215.523 48.383,215.523 C34.892,215.523 24.480,205.925 21.866,191.072 C20.366,182.589 21.425,173.268 24.756,165.511 C28.548,156.687 34.662,151.121 41.973,149.831 C57.511,147.043 72.027,165.032 74.971,181.706 C77.948,198.600 69.106,212.321 53.476,215.072 C51.760,215.375 50.057,215.523 48.383,215.523 Z" id="path-17" class="cls-3" fill-rule="evenodd"/>
    <path d="M122.450,215.523 C122.450,215.523 122.450,215.523 122.450,215.523 C120.776,215.523 119.073,215.375 117.357,215.072 C109.999,213.775 103.792,209.891 99.872,204.121 C95.732,198.029 94.342,190.273 95.860,181.706 C98.797,165.032 113.325,147.052 128.859,149.831 C144.507,152.592 152.016,173.783 148.966,191.072 C146.352,205.925 135.940,215.523 122.450,215.523 Z" id="path-18" class="cls-3" fill-rule="evenodd"/>
    <path d="M74.971,181.706 C72.027,165.033 57.511,147.043 41.973,149.831 C41.615,149.895 41.273,150.015 40.920,150.099 C53.367,153.003 63.892,167.789 66.350,181.706 C69.327,198.600 60.484,212.321 44.854,215.072 C44.603,215.117 44.360,215.100 44.110,215.138 C45.500,215.360 46.914,215.523 48.383,215.523 C50.057,215.523 51.760,215.375 53.476,215.072 C69.106,212.321 77.948,198.600 74.971,181.706 Z" id="path-19" class="cls-5" fill-rule="evenodd"/>
    <path d="M128.859,149.831 C126.291,149.372 123.757,149.526 121.291,150.102 C136.206,153.621 143.324,174.185 140.345,191.072 C138.015,204.308 129.475,213.322 118.101,215.138 C119.563,215.358 121.020,215.523 122.450,215.523 C135.940,215.523 146.352,205.925 148.966,191.072 C152.016,173.783 144.507,152.592 128.859,149.831 Z" id="path-20" class="cls-5" fill-rule="evenodd"/>
    <path d="M85.196,98.936 C55.749,98.936 31.796,79.668 31.796,55.983 C31.796,32.298 55.749,13.028 85.196,13.028 C114.642,13.028 138.595,32.298 138.595,55.983 C138.595,79.668 114.642,98.936 85.196,98.936 Z" id="path-21" class="cls-3" fill-rule="evenodd"/>
    <path d="M108.841,17.526 C121.653,25.380 129.973,37.743 129.973,51.672 C129.973,75.357 106.020,94.626 76.574,94.626 C68.077,94.626 60.067,92.980 52.929,90.129 C61.904,95.630 73.066,98.936 85.196,98.936 C114.642,98.936 138.595,79.667 138.595,55.983 C138.595,39.132 126.442,24.558 108.841,17.526 Z" id="path-22" class="cls-5" fill-rule="evenodd"/>
    <path d="M66.939,61.577 C59.144,61.577 52.804,55.238 52.804,47.442 C52.804,39.649 59.144,33.309 66.939,33.309 C74.732,33.309 81.073,39.649 81.073,47.442 C81.073,55.238 74.732,61.577 66.939,61.577 Z" id="path-23" class="cls-25" fill-rule="evenodd"/>
    <path d="M85.196,75.710 C81.708,75.710 78.871,72.874 78.871,69.388 C78.871,65.900 81.708,63.064 85.196,63.064 C88.682,63.064 91.519,65.900 91.519,69.388 C91.519,72.874 88.682,75.710 85.196,75.710 Z" id="path-24" class="cls-26" fill-rule="evenodd"/>
    <path d="M89.506,63.064 C88.746,63.064 88.026,63.220 87.351,63.467 C89.775,64.354 91.519,66.661 91.519,69.388 C91.519,72.113 89.775,74.421 87.351,75.307 C88.026,75.554 88.746,75.710 89.506,75.710 C92.993,75.710 95.830,72.874 95.830,69.388 C95.830,65.900 92.993,63.064 89.506,63.064 Z" id="path-25" class="cls-10" fill-rule="evenodd"/>
    <circle id="circle-1" class="cls-25" cx="105" cy="48" r="15"/>
    <path d="M66.939,33.309 C66.200,33.309 65.491,33.417 64.783,33.526 C71.550,34.574 76.762,40.387 76.762,47.442 C76.762,54.499 71.550,60.311 64.783,61.358 C65.491,61.469 66.200,61.577 66.939,61.577 C74.732,61.577 81.073,55.238 81.073,47.442 C81.073,39.649 74.732,33.309 66.939,33.309 Z" id="path-26" class="cls-10" fill-rule="evenodd"/>
    <path d="M104.630,33.309 C103.892,33.309 103.183,33.417 102.475,33.526 C109.242,34.574 114.453,40.387 114.453,47.442 C114.453,54.499 109.242,60.311 102.475,61.358 C103.183,61.469 103.892,61.577 104.630,61.577 C112.424,61.577 118.764,55.238 118.764,47.442 C118.764,39.649 112.424,33.309 104.630,33.309 Z" id="path-27" class="cls-10" fill-rule="evenodd"/>
  </g>
</svg>
