<svg xmlns="http://www.w3.org/2000/svg" xmlns:xlink="http://www.w3.org/1999/xlink" preserveAspectRatio="xMidYMid" width="216" height="131" viewBox="0 0 216 131">
  <defs>
    <style>

      .cls-3 {
        fill: #2476ff;
      }

      .cls-4 {
        fill: #060606;
        opacity: 0.35;
      }

      .cls-19 {
        fill: #ededed;
      }
    </style>
  </defs>
  <g id="group-34svg">
    <path d="M70.536,33.318 C66.909,28.984 62.174,26.785 56.470,26.785 C50.052,26.785 43.877,29.692 41.243,30.934 C25.402,38.396 17.858,50.634 18.189,68.344 C18.438,81.689 30.902,130.687 51.061,130.693 C51.120,130.693 51.723,130.675 51.781,130.669 C59.336,130.245 65.256,126.671 68.441,120.619 C72.868,112.206 71.569,100.293 65.046,89.523 C56.151,74.843 61.066,69.759 65.818,64.839 C76.559,53.710 78.242,42.516 70.536,33.318 Z" id="path-1" class="cls-3" fill-rule="evenodd"/>
    <path d="M65.818,64.839 C76.559,53.710 78.242,42.516 70.536,33.319 C66.909,28.984 62.174,26.785 56.470,26.785 C55.087,26.785 53.723,26.940 52.395,27.163 C56.439,27.940 59.905,29.980 62.698,33.319 C70.404,42.516 68.721,53.710 57.980,64.839 C53.228,69.759 48.313,74.843 57.208,89.523 C63.731,100.292 65.030,112.206 60.603,120.619 C57.943,125.671 53.361,128.965 47.530,130.173 C48.680,130.506 49.855,130.692 51.061,130.693 C51.120,130.693 51.723,130.675 51.781,130.669 C59.337,130.246 65.256,126.671 68.441,120.619 C72.868,112.206 71.569,100.292 65.046,89.523 C56.151,74.843 61.066,69.759 65.818,64.839 Z" id="path-2" class="cls-4" fill-rule="evenodd"/>
    <circle id="circle-1" class="cls-3" cx="10" cy="45" r="10"/>
    <path d="M19.639,35.663 C24.555,35.663 28.552,31.665 28.552,26.750 C28.552,21.836 24.555,17.837 19.639,17.837 C14.724,17.837 10.726,21.836 10.726,26.750 C10.726,31.665 14.724,35.663 19.639,35.663 Z" id="path-3" class="cls-3" fill-rule="evenodd"/>
    <path d="M36.787,23.780 C41.696,23.780 45.700,19.781 45.700,14.866 C45.700,9.952 41.696,5.954 36.787,5.954 C31.866,5.954 27.874,9.952 27.874,14.866 C27.874,19.781 31.866,23.780 36.787,23.780 Z" id="path-4" class="cls-3" fill-rule="evenodd"/>
    <path d="M57.096,17.837 C62.011,17.837 66.009,13.840 66.009,8.925 C66.009,4.010 62.011,0.012 57.096,0.012 C52.181,0.012 48.183,4.010 48.183,8.925 C48.183,13.840 52.181,17.837 57.096,17.837 Z" id="path-5" class="cls-3" fill-rule="evenodd"/>
    <path d="M84.242,0.012 C76.049,0.012 69.387,6.673 69.387,14.866 C69.387,23.060 76.049,29.721 84.242,29.721 C92.435,29.721 99.097,23.060 99.097,14.866 C99.097,6.673 92.435,0.012 84.242,0.012 Z" id="path-6" class="cls-3" fill-rule="evenodd"/>
    <path d="M149.693,64.839 C154.445,69.759 159.360,74.843 150.465,89.523 C143.942,100.293 142.642,112.206 147.070,120.619 C150.255,126.671 156.174,130.245 163.730,130.669 C163.788,130.675 164.391,130.693 164.449,130.693 C184.608,130.687 197.072,81.689 197.322,68.344 C197.653,50.634 190.108,38.396 174.267,30.934 C171.633,29.692 165.459,26.785 159.041,26.785 C153.337,26.785 148.602,28.984 144.975,33.318 C137.269,42.516 138.952,53.710 149.693,64.839 Z" id="path-7" class="cls-3" fill-rule="evenodd"/>
    <path d="M174.267,30.934 C171.633,29.693 165.459,26.785 159.041,26.785 C157.730,26.785 156.484,26.931 155.278,27.163 C160.110,27.980 164.363,29.960 166.430,30.934 C182.271,38.396 189.815,50.634 189.484,68.344 C189.249,80.891 178.216,124.942 160.143,130.173 C161.297,130.412 162.481,130.599 163.729,130.669 C163.788,130.675 164.391,130.693 164.449,130.693 C184.608,130.686 197.072,81.690 197.322,68.344 C197.653,50.634 190.108,38.396 174.267,30.934 Z" id="path-8" class="cls-4" fill-rule="evenodd"/>
    <path d="M197.699,44.576 C197.699,49.491 201.692,53.489 206.612,53.489 C211.521,53.489 215.525,49.491 215.525,44.576 C215.525,39.661 211.521,35.663 206.612,35.663 C201.692,35.663 197.699,39.661 197.699,44.576 Z" id="path-9" class="cls-3" fill-rule="evenodd"/>
    <path d="M204.784,26.750 C204.784,21.836 200.786,17.837 195.871,17.837 C190.956,17.837 186.958,21.836 186.958,26.750 C186.958,31.665 190.956,35.663 195.871,35.663 C200.786,35.663 204.784,31.665 204.784,26.750 Z" id="path-10" class="cls-3" fill-rule="evenodd"/>
    <path d="M187.636,14.866 C187.636,9.952 183.645,5.954 178.724,5.954 C173.815,5.954 169.811,9.952 169.811,14.866 C169.811,19.781 173.815,23.780 178.724,23.780 C183.645,23.780 187.636,19.781 187.636,14.866 Z" id="path-11" class="cls-3" fill-rule="evenodd"/>
    <path d="M167.328,8.925 C167.328,4.010 163.329,0.012 158.415,0.012 C153.499,0.012 149.501,4.010 149.501,8.925 C149.501,13.840 153.499,17.837 158.415,17.837 C163.329,17.837 167.328,13.840 167.328,8.925 Z" id="path-12" class="cls-3" fill-rule="evenodd"/>
    <path d="M116.414,14.866 C116.414,23.060 123.075,29.721 131.268,29.721 C139.462,29.721 146.124,23.060 146.124,14.866 C146.124,6.673 139.462,0.012 131.268,0.012 C123.075,0.012 116.414,6.673 116.414,14.866 Z" id="path-13" class="cls-3" fill-rule="evenodd"/>
    <path d="M92.595,2.595 C94.221,4.977 95.178,7.851 95.178,10.948 C95.178,19.142 88.517,25.802 80.323,25.802 C77.226,25.802 74.352,24.845 71.970,23.219 C74.646,27.139 79.145,29.721 84.242,29.721 C92.435,29.721 99.097,23.060 99.097,14.867 C99.097,9.771 96.515,5.271 92.595,2.595 Z" id="path-14" class="cls-4" fill-rule="evenodd"/>
    <path d="M139.622,2.595 C141.248,4.977 142.205,7.851 142.205,10.948 C142.205,19.142 135.543,25.802 127.350,25.802 C124.252,25.802 121.378,24.845 118.996,23.219 C121.672,27.139 126.172,29.721 131.268,29.721 C139.462,29.721 146.124,23.060 146.124,14.867 C146.124,9.771 143.542,5.271 139.622,2.595 Z" id="path-15" class="cls-4" fill-rule="evenodd"/>
    <path d="M153.397,54.725 C152.141,54.725 150.927,54.064 150.277,52.885 C150.001,52.388 147.642,47.886 149.452,42.985 C150.715,39.568 153.569,37.009 157.936,35.374 C159.796,34.676 161.866,35.617 162.560,37.478 C163.257,39.337 162.313,41.407 160.455,42.101 C158.154,42.963 156.724,44.086 156.207,45.436 C155.488,47.311 156.572,49.423 156.582,49.444 C157.492,51.188 156.842,53.361 155.109,54.290 C154.563,54.585 153.976,54.725 153.397,54.725 Z" id="path-16" class="cls-19" fill-rule="evenodd"/>
    <path d="M27.877,63.277 C27.700,63.277 27.523,63.265 27.343,63.239 C25.387,62.947 24.033,61.131 24.320,59.173 C24.408,58.570 26.622,44.326 38.940,39.716 C40.796,39.020 42.870,39.960 43.564,41.821 C44.261,43.681 43.317,45.750 41.459,46.444 C33.155,49.552 31.443,60.119 31.426,60.225 C31.154,62.001 29.623,63.277 27.877,63.277 Z" id="path-17" class="cls-19" fill-rule="evenodd"/>
  </g>
</svg>
