<svg xmlns="http://www.w3.org/2000/svg" xmlns:xlink="http://www.w3.org/1999/xlink" preserveAspectRatio="xMidYMid" width="216" height="173" viewBox="0 0 216 173">
  <defs>
    <style>

      .cls-3 {
        fill: #142a3b;
      }

      .cls-4 {
        fill: #132737;
      }

      .cls-5 {
        fill: #fbb713;
      }

      .cls-6 {
        fill: #2476ff;
      }

      .cls-7 {
        fill: #000000;
        opacity: 0.35;
      }
    </style>
  </defs>
  <g id="group-46svg">
    <path d="M-0.007,55.015 C-0.007,55.015 -0.007,167.271 -0.007,167.271 C-0.007,169.754 2.001,171.761 4.484,171.761 C4.484,171.761 211.043,171.761 211.043,171.761 C213.525,171.761 215.533,169.754 215.533,167.271 C215.533,167.271 215.533,55.015 215.533,55.015 C215.533,55.015 -0.007,55.015 -0.007,55.015 Z" id="path-1" class="cls-3" fill-rule="evenodd"/>
    <path d="M147.606,80.813 C147.606,80.813 75.759,80.813 75.759,80.813 C65.848,80.813 57.796,88.873 57.796,98.775 C57.796,108.675 65.848,116.735 75.759,116.735 C75.759,116.735 147.606,116.735 147.606,116.735 C157.508,116.735 165.567,108.675 165.567,98.775 C165.567,88.873 157.508,80.813 147.606,80.813 ZM147.606,107.755 C147.606,107.755 75.759,107.755 75.759,107.755 C70.808,107.755 66.778,103.729 66.778,98.775 C66.778,93.819 70.808,89.793 75.759,89.793 C75.759,89.793 147.606,89.793 147.606,89.793 C152.556,89.793 156.586,93.819 156.586,98.775 C156.586,103.729 152.556,107.755 147.606,107.755 Z" id="path-2" class="cls-4" fill-rule="evenodd"/>
    <path d="M143.686,72.976 C143.686,72.976 71.839,72.976 71.839,72.976 C61.929,72.976 53.878,81.035 53.878,90.937 C53.878,100.837 61.929,108.897 71.839,108.897 C71.839,108.897 143.686,108.897 143.686,108.897 C153.589,108.897 161.647,100.837 161.647,90.937 C161.647,81.035 153.589,72.976 143.686,72.976 ZM143.686,99.917 C143.686,99.917 71.839,99.917 71.839,99.917 C66.889,99.917 62.859,95.892 62.859,90.937 C62.859,85.981 66.889,81.956 71.839,81.956 C71.839,81.956 143.686,81.956 143.686,81.956 C148.638,81.956 152.667,85.981 152.667,90.937 C152.667,95.892 148.638,99.917 143.686,99.917 Z" id="path-3" class="cls-5" fill-rule="evenodd"/>
    <path d="M214.176,55.015 C214.176,55.015 188.698,-0.012 188.698,-0.012 C188.698,-0.012 27.043,-0.012 27.043,-0.012 C27.043,-0.012 1.351,55.015 1.351,55.015 C1.351,55.015 214.176,55.015 214.176,55.015 Z" id="path-4" class="cls-6" fill-rule="evenodd"/>
    <path d="M188.698,-0.012 C188.698,-0.012 170.338,-0.012 170.338,-0.012 C170.338,-0.012 170.338,-0.012 170.338,-0.012 C177.993,16.523 165.918,35.421 147.696,35.421 C147.696,35.421 5.378,46.388 5.378,46.388 C5.378,46.388 1.351,55.015 1.351,55.015 C1.351,55.015 214.176,55.015 214.176,55.015 C214.176,55.015 188.698,-0.012 188.698,-0.012 Z" id="path-5" class="cls-7" fill-rule="evenodd"/>
    <path d="M179.610,55.015 C179.610,55.015 179.610,5.266 179.610,5.266 C179.610,5.266 35.916,5.266 35.916,5.266 C35.916,5.266 35.916,55.015 35.916,55.015 C35.916,55.015 179.610,55.015 179.610,55.015 Z" id="path-6" class="cls-5" fill-rule="evenodd"/>
    <path d="M35.916,55.015 C35.916,55.015 179.610,55.015 179.610,55.015 C179.610,55.015 179.610,43.259 179.610,43.259 C179.610,43.259 35.916,43.259 35.916,43.259 C35.916,43.259 35.916,55.015 35.916,55.015 Z" id="path-7" class="cls-7" fill-rule="evenodd"/>
  </g>
</svg>
