<svg xmlns="http://www.w3.org/2000/svg" xmlns:xlink="http://www.w3.org/1999/xlink" preserveAspectRatio="xMidYMid" width="216" height="216" viewBox="0 0 216 216">
  <defs>
    <style>

      .cls-3 {
        fill: #142a3b;
      }

      .cls-4 {
        fill: #ff3a2f;
      }

      .cls-6 {
        fill: #000000;
        opacity: 0.35;
      }

      .cls-14 {
        fill: #ededed;
      }
    </style>
  </defs>
  <g id="group-47svg">
    <path d="M147.629,67.917 C147.629,67.917 48.263,167.280 48.263,167.280 C48.263,167.280 48.263,167.280 48.263,167.280 " id="path-1" class="cls-3" fill-rule="evenodd"/>
    <path d="M50.803,169.821 C50.803,169.821 45.724,164.741 45.724,164.741 C45.724,164.741 145.089,65.377 145.089,65.377 C145.089,65.377 150.168,70.457 150.168,70.457 C150.168,70.457 50.803,169.821 50.803,169.821 Z" id="path-2" class="cls-4" fill-rule="evenodd"/>
    <path d="M114.223,23.506 C114.223,23.506 200.434,0.406 200.434,0.406 C209.364,-1.986 217.534,6.183 215.142,15.113 C215.142,15.113 192.042,101.322 192.042,101.322 C189.649,110.250 178.488,113.240 171.951,106.704 C161.097,76.846 140.399,55.515 108.840,43.596 C102.304,37.059 105.294,25.898 114.223,23.506 Z" id="path-3" class="cls-4" fill-rule="evenodd"/>
    <path d="M162.981,87.694 C152.240,61.732 133.499,42.705 106.046,31.223 C104.645,35.314 105.347,40.102 108.840,43.595 C133.223,52.804 151.095,67.656 162.981,87.694 Z" id="path-4" class="cls-6" fill-rule="evenodd"/>
    <path d="M208.095,1.019 C208.095,1.019 184.994,87.227 184.994,87.227 C182.754,95.589 172.870,98.632 166.249,93.634 C168.372,97.798 170.292,102.139 171.951,106.704 C178.488,113.240 189.649,110.251 192.041,101.321 C192.041,101.321 215.142,15.113 215.142,15.113 C216.802,8.919 213.334,3.176 208.099,0.986 C208.096,0.997 208.098,1.008 208.095,1.019 Z" id="path-5" class="cls-6" fill-rule="evenodd"/>
    <path d="M4.649,170.486 C4.649,170.486 49.414,158.492 49.414,158.492 C54.050,157.249 58.293,161.491 57.051,166.128 C57.051,166.128 45.056,210.892 45.056,210.892 C43.814,215.528 38.019,217.081 34.625,213.687 C28.988,198.183 18.241,187.108 1.854,180.918 C-1.540,177.524 0.013,171.729 4.649,170.486 Z" id="path-6" class="cls-4" fill-rule="evenodd"/>
    <path d="M0.066,176.150 C-0.038,177.829 0.499,179.563 1.854,180.918 C8.178,183.306 13.641,186.440 18.316,190.257 C13.522,184.438 7.468,179.709 0.066,176.150 Z" id="path-7" class="cls-6" fill-rule="evenodd"/>
    <path d="M50.091,158.406 C50.055,158.632 50.065,158.853 50.004,159.081 C50.004,159.081 38.009,203.845 38.009,203.845 C37.269,206.605 34.911,208.237 32.411,208.418 C33.215,210.116 33.962,211.865 34.625,213.687 C38.018,217.081 43.814,215.528 45.057,210.893 C45.057,210.893 57.051,166.128 57.051,166.128 C58.232,161.721 54.449,157.727 50.091,158.406 Z" id="path-8" class="cls-6" fill-rule="evenodd"/>
    <path d="M142.356,127.838 C140.372,127.838 138.763,126.229 138.763,124.246 C138.763,98.074 117.470,76.782 91.298,76.782 C89.314,76.782 87.706,75.174 87.706,73.190 C87.706,71.206 89.314,69.597 91.298,69.597 C121.431,69.597 145.948,94.114 145.948,124.246 C145.948,126.229 144.339,127.838 142.356,127.838 Z" id="path-9" class="cls-4" fill-rule="evenodd"/>
    <path d="M119.063,151.130 C117.079,151.130 115.471,149.522 115.471,147.537 C115.471,121.366 94.178,100.074 68.006,100.074 C66.022,100.074 64.414,98.465 64.414,96.482 C64.414,94.498 66.022,92.889 68.006,92.889 C98.140,92.889 122.656,117.405 122.656,147.537 C122.656,149.522 121.047,151.130 119.063,151.130 Z" id="path-10" class="cls-4" fill-rule="evenodd"/>
    <path d="M95.771,174.422 C93.787,174.422 92.179,172.812 92.179,170.828 C92.179,144.657 70.886,123.365 44.713,123.365 C42.730,123.365 41.121,121.757 41.121,119.773 C41.121,117.789 42.730,116.181 44.713,116.181 C74.847,116.181 99.363,140.697 99.363,170.828 C99.363,172.812 97.755,174.422 95.771,174.422 Z" id="path-11" class="cls-4" fill-rule="evenodd"/>
    <path d="M194.226,34.520 C190.581,38.164 184.672,38.164 181.027,34.520 C177.383,30.875 177.383,24.967 181.027,21.322 C184.672,17.677 190.581,17.677 194.226,21.322 C197.871,24.967 197.871,30.875 194.226,34.520 Z" id="path-12" class="cls-14" fill-rule="evenodd"/>
  </g>
</svg>
