<svg xmlns="http://www.w3.org/2000/svg" xmlns:xlink="http://www.w3.org/1999/xlink" preserveAspectRatio="xMidYMid" width="180" height="216" viewBox="0 0 180 216">
  <defs>
    <style>

      .cls-3 {
        fill: #0cb04a;
      }

      .cls-4 {
        fill: #000000;
        opacity: 0.35;
      }

      .cls-5 {
        fill: #fbb713;
      }

      .cls-6 {
        fill: #010101;
        opacity: 0.25;
      }

      .cls-7 {
        fill: #142a3b;
      }
    </style>
  </defs>
  <g id="group-92svg">
    <path d="M156.320,215.521 C156.320,215.521 88.815,129.071 88.815,129.071 C88.815,129.071 -0.006,59.201 -0.006,59.201 C-0.006,59.201 18.943,40.254 18.943,40.254 C18.943,40.254 180.006,201.311 180.006,201.311 C180.006,201.311 156.320,215.521 156.320,215.521 Z" id="path-1" class="cls-3" fill-rule="evenodd"/>
    <path d="M174.084,195.388 C174.084,195.388 156.320,206.048 156.320,206.048 C156.320,206.048 88.815,119.597 88.815,119.597 C88.815,119.597 5.297,53.899 5.297,53.899 C5.297,53.899 -0.005,59.200 -0.005,59.200 C-0.005,59.200 88.815,129.071 88.815,129.071 C88.815,129.071 156.320,215.521 156.320,215.521 C156.320,215.521 180.006,201.311 180.006,201.311 C180.006,201.311 174.084,195.388 174.084,195.388 Z" id="path-2" class="cls-4" fill-rule="evenodd"/>
    <path d="M95.921,117.229 C95.921,117.229 26.049,47.358 26.049,47.358 C26.049,47.358 40.260,-0.011 40.260,-0.011 C40.260,-0.011 140.924,100.650 140.924,100.650 C140.924,100.650 95.921,117.229 95.921,117.229 Z" id="path-3" class="cls-5" fill-rule="evenodd"/>
    <path d="M125.802,85.527 C125.802,85.527 102.607,94.072 102.607,94.072 C95.644,96.638 87.824,94.921 82.576,89.674 C82.576,89.674 27.386,42.901 27.386,42.901 C27.386,42.901 26.049,47.358 26.049,47.358 C26.049,47.358 95.922,117.229 95.922,117.229 C95.922,117.229 140.924,100.650 140.924,100.650 C140.924,100.650 125.802,85.527 125.802,85.527 Z" id="path-4" class="cls-6" fill-rule="evenodd"/>
    <path d="M87.763,97.960 C86.358,97.960 85.025,97.131 84.449,95.756 C83.682,93.926 84.543,91.822 86.373,91.053 C86.373,91.053 115.720,78.750 115.720,78.750 C117.555,77.984 119.656,78.844 120.422,80.673 C121.189,82.503 120.328,84.608 118.498,85.377 C118.498,85.377 89.151,97.680 89.151,97.680 C88.696,97.870 88.226,97.960 87.763,97.960 Z" id="path-5" class="cls-7" fill-rule="evenodd"/>
    <path d="M48.909,59.113 C48.446,59.113 47.976,59.022 47.522,58.833 C45.692,58.065 44.831,55.959 45.597,54.130 C45.597,54.130 57.902,24.783 57.902,24.783 C58.669,22.956 60.768,22.093 62.605,22.858 C64.434,23.627 65.296,25.732 64.529,27.562 C64.529,27.562 52.224,56.908 52.224,56.908 C51.647,58.283 50.314,59.113 48.909,59.113 Z" id="path-6" class="cls-7" fill-rule="evenodd"/>
    <path d="M72.324,74.724 C71.417,74.724 70.509,74.382 69.809,73.698 C68.393,72.309 68.370,70.034 69.758,68.616 C69.758,68.616 87.344,50.676 87.344,50.676 C88.737,49.263 91.009,49.241 92.426,50.625 C93.841,52.014 93.864,54.289 92.477,55.708 C92.477,55.708 74.890,73.647 74.890,73.647 C74.186,74.364 73.256,74.724 72.324,74.724 Z" id="path-7" class="cls-7" fill-rule="evenodd"/>
  </g>
</svg>
