<svg xmlns="http://www.w3.org/2000/svg" xmlns:xlink="http://www.w3.org/1999/xlink" preserveAspectRatio="xMidYMid" width="216" height="102" viewBox="0 0 216 102">
  <defs>
    <style>

      .cls-3 {
        fill: #ff3a2f;
      }

      .cls-5 {
        fill: #000000;
        opacity: 0.35;
      }

      .cls-6 {
        fill: #fbb713;
      }
    </style>
  </defs>
  <g id="group-109svg">
    <path d="M1.291,29.215 C1.291,29.215 -18.946,79.019 101.359,78.651 C221.665,78.291 220.932,36.485 212.094,29.215 C203.270,21.944 199.225,18.307 159.123,19.033 C125.620,17.756 109.623,5.337 85.695,1.656 C57.326,-2.713 13.055,0.053 1.291,29.215 Z" id="path-1" class="cls-3" fill-rule="evenodd"/>
    <path d="M0.015,39.723 C0.015,39.723 0.015,60.347 0.015,60.347 C0.058,74.398 11.533,102.093 101.363,101.823 C197.462,101.533 216.317,74.801 215.521,60.347 C215.521,60.347 215.521,39.723 215.521,39.723 C215.521,39.723 215.521,39.723 215.521,39.723 " id="path-2" class="cls-3" fill-rule="evenodd"/>
    <path d="M215.521,39.723 C215.521,39.723 215.521,60.347 215.521,60.347 C216.317,74.801 197.462,101.533 101.363,101.823 C11.533,102.093 0.058,74.398 0.015,60.347 C0.015,60.347 0.015,39.723 0.015,39.723 C0.015,39.723 5.471,91.065 149.215,70.774 C149.215,70.774 211.335,65.592 215.521,39.723 Z" id="path-3" class="cls-5" fill-rule="evenodd"/>
    <path d="M68.368,34.140 C68.368,40.362 59.801,45.414 49.240,45.414 C38.673,45.414 30.108,40.362 30.108,34.140 C30.108,27.918 38.673,22.872 49.240,22.872 C59.801,22.872 68.368,27.918 68.368,34.140 Z" id="path-4" class="cls-6" fill-rule="evenodd"/>
  </g>
</svg>
