<svg xmlns="http://www.w3.org/2000/svg" xmlns:xlink="http://www.w3.org/1999/xlink" preserveAspectRatio="xMidYMid" width="150" height="216" viewBox="0 0 150 216">
  <defs>
    <style>

      .cls-3 {
        fill: #142a3b;
      }

      .cls-5 {
        fill: #000000;
        opacity: 0.35;
      }

      .cls-6 {
        fill: #fbb713;
      }

      .cls-8 {
        fill: #ff3a2f;
      }

      .cls-10 {
        fill: #2476ff;
      }

      .cls-11 {
        fill: #221e1f;
      }
    </style>
  </defs>
  <g id="group-108svg">
    <path d="M149.926,178.807 C149.926,178.807 116.180,178.807 116.180,178.807 C116.180,178.807 116.180,105.842 116.180,105.842 C116.180,105.842 149.926,105.842 149.926,105.842 C149.926,105.842 149.926,178.807 149.926,178.807 ZM123.365,171.623 C123.365,171.623 142.742,171.623 142.742,171.623 C142.742,171.623 142.742,113.027 142.742,113.027 C142.742,113.027 123.365,113.027 123.365,113.027 C123.365,113.027 123.365,171.623 123.365,171.623 Z" id="path-1" class="cls-3" fill-rule="evenodd"/>
    <path d="M123.139,196.749 C123.139,207.125 114.656,215.543 104.194,215.543 C104.194,215.543 18.943,215.543 18.943,215.543 C8.481,215.543 -0.001,207.125 -0.001,196.749 C-0.001,196.749 -0.001,93.381 -0.001,93.381 C-0.001,93.381 123.139,93.381 123.139,93.381 C123.139,93.381 123.139,196.749 123.139,196.749 Z" id="path-2" class="cls-3" fill-rule="evenodd"/>
    <path d="M102.937,93.381 C102.937,93.381 102.937,183.279 102.937,183.279 C102.937,193.655 94.455,202.072 83.992,202.072 C83.992,202.072 0.783,202.072 0.783,202.072 C3.098,209.855 10.347,215.543 18.943,215.543 C18.943,215.543 104.194,215.543 104.194,215.543 C114.656,215.543 123.139,207.125 123.139,196.749 C123.139,196.749 123.139,93.381 123.139,93.381 C123.139,93.381 102.937,93.381 102.937,93.381 Z" id="path-3" class="cls-5" fill-rule="evenodd"/>
    <path d="M103.070,0.010 C112.847,14.800 98.362,22.912 94.990,30.850 C91.417,39.255 94.894,47.312 103.372,50.852 C130.845,62.344 139.021,8.641 103.070,0.010 Z" id="path-4" class="cls-6" fill-rule="evenodd"/>
    <path d="M94.722,93.381 C94.722,93.381 110.262,52.561 110.262,52.561 C110.262,52.561 100.494,49.332 100.494,49.332 C100.494,49.332 75.777,93.381 75.777,93.381 C75.777,93.381 94.722,93.381 94.722,93.381 Z" id="path-5" class="cls-3" fill-rule="evenodd"/>
    <path d="M47.361,93.381 C47.361,93.381 18.943,93.381 18.943,93.381 C18.943,93.381 4.735,65.189 4.735,65.189 C4.735,65.189 -0.001,36.998 -0.001,36.998 C-0.001,36.998 23.680,51.093 23.680,51.093 C23.680,51.093 47.361,93.381 47.361,93.381 Z" id="path-6" class="cls-8" fill-rule="evenodd"/>
    <path d="M8.350,66.095 C7.252,66.095 6.170,65.595 5.465,64.648 C4.281,63.055 4.610,60.805 6.202,59.620 C6.202,59.620 17.473,51.232 17.473,51.232 C19.069,50.050 21.316,50.376 22.501,51.969 C23.685,53.562 23.355,55.812 21.764,56.997 C21.764,56.997 10.492,65.383 10.492,65.383 C9.846,65.863 9.096,66.095 8.350,66.095 Z" id="path-7" class="cls-3" fill-rule="evenodd"/>
    <path d="M73.844,93.380 C73.844,93.380 73.844,53.242 73.844,53.242 C73.844,53.242 61.311,28.828 61.311,28.828 C61.311,28.828 50.247,55.216 50.247,55.216 C50.247,55.216 50.247,93.381 50.247,93.381 C50.247,93.381 73.844,93.380 73.844,93.380 Z" id="path-8" class="cls-10" fill-rule="evenodd"/>
    <path d="M70.815,60.854 C70.815,60.854 54.237,60.854 54.237,60.854 C52.253,60.854 50.644,59.243 50.644,57.260 C50.644,55.276 52.253,53.667 54.237,53.667 C54.237,53.667 70.815,53.667 70.815,53.667 C72.798,53.667 74.407,55.276 74.407,57.260 C74.407,59.243 72.798,60.854 70.815,60.854 Z" id="path-9" class="cls-11" fill-rule="evenodd"/>
  </g>
</svg>
