<svg xmlns="http://www.w3.org/2000/svg" xmlns:xlink="http://www.w3.org/1999/xlink" preserveAspectRatio="xMidYMid" width="217" height="202" viewBox="0 0 217 202">
  <defs>
    <style>

      .cls-3 {
        fill: #142a3b;
      }

      .cls-5 {
        fill: #ff3a2f;
      }

      .cls-6 {
        fill: #060606;
        opacity: 0.35;
      }

      .cls-9 {
        fill: #0cb04a;
      }

      .cls-12 {
        fill: #ededed;
      }

      .cls-13 {
        fill: #060606;
        opacity: 0.25;
      }
    </style>
  </defs>
  <g id="group-41svg">
    <path d="M175.543,194.025 C175.543,194.025 168.837,200.730 168.837,200.730 C168.339,201.228 167.523,201.228 167.025,200.730 C167.025,200.730 144.115,177.822 144.115,177.822 C143.617,177.323 143.617,176.508 144.115,176.010 C144.115,176.010 150.821,169.304 150.821,169.304 C151.319,168.806 152.135,168.806 152.633,169.304 C152.633,169.304 175.543,192.214 175.543,192.214 C176.041,192.711 176.041,193.527 175.543,194.025 Z" id="path-1" class="cls-3" fill-rule="evenodd"/>
    <path d="M40.699,194.025 C40.699,194.025 47.404,200.730 47.404,200.730 C47.903,201.228 48.718,201.228 49.217,200.730 C49.217,200.730 72.126,177.822 72.126,177.822 C72.625,177.323 72.625,176.508 72.126,176.010 C72.126,176.010 65.421,169.304 65.421,169.304 C64.922,168.806 64.107,168.806 63.609,169.304 C63.609,169.304 40.699,192.214 40.699,192.214 C40.201,192.711 40.201,193.527 40.699,194.025 Z" id="path-2" class="cls-3" fill-rule="evenodd"/>
    <path d="M204.909,10.934 C191.901,-2.073 170.318,-3.440 155.405,6.698 C155.405,6.698 155.311,6.668 155.311,6.668 C154.225,7.536 152.878,8.584 151.376,9.940 C150.993,10.302 150.527,10.561 150.144,10.934 C149.968,11.111 149.896,11.347 149.750,11.535 C148.362,12.932 146.893,14.765 145.401,16.827 C168.775,28.963 186.972,49.624 195.960,74.664 C201.097,70.491 205.841,65.894 208.191,61.926 C208.306,61.740 208.358,61.543 208.450,61.347 C213.432,54.708 216.238,46.745 216.238,38.294 C216.238,27.959 212.219,18.245 204.909,10.934 Z" id="path-3" class="cls-5" fill-rule="evenodd"/>
    <path d="M156.522,6.011 C156.151,6.244 155.768,6.452 155.405,6.698 C155.405,6.698 155.312,6.667 155.312,6.667 C154.225,7.535 152.878,8.583 151.376,9.939 C150.994,10.302 150.527,10.561 150.144,10.934 C149.968,11.110 149.896,11.348 149.751,11.535 C148.362,12.932 146.892,14.766 145.401,16.826 C168.775,28.963 186.972,49.623 195.960,74.664 C200.691,70.822 204.999,66.640 207.501,62.900 C198.110,38.242 179.797,17.967 156.522,6.011 Z" id="path-4" class="cls-6" fill-rule="evenodd"/>
    <path d="M70.085,15.728 C68.863,14.123 67.642,12.694 66.502,11.535 C66.357,11.347 66.275,11.111 66.099,10.934 C65.715,10.561 65.260,10.302 64.865,9.940 C63.374,8.584 62.029,7.536 60.931,6.668 C60.931,6.668 60.847,6.698 60.847,6.698 C45.924,-3.440 24.351,-2.073 11.344,10.934 C4.033,18.245 0.004,27.959 0.004,38.294 C0.004,46.745 2.811,54.708 7.792,61.347 C7.886,61.543 7.948,61.740 8.050,61.926 C10.039,65.283 13.768,69.093 17.973,72.707 C27.500,47.749 46.265,27.379 70.085,15.728 Z" id="path-5" class="cls-5" fill-rule="evenodd"/>
    <path d="M8.736,62.915 C10.825,66.024 14.168,69.438 17.973,72.706 C27.500,47.748 46.265,27.378 70.085,15.729 C68.863,14.123 67.642,12.694 66.501,11.535 C66.358,11.348 66.275,11.110 66.099,10.934 C65.715,10.561 65.260,10.302 64.865,9.939 C63.374,8.583 62.029,7.535 60.931,6.667 C60.931,6.667 60.847,6.698 60.847,6.698 C60.483,6.451 60.098,6.243 59.727,6.010 C36.446,17.967 18.128,38.249 8.736,62.915 Z" id="path-6" class="cls-6" fill-rule="evenodd"/>
    <path d="M108.120,6.214 C56.069,6.214 13.712,48.570 13.712,100.618 C13.712,133.116 30.220,161.823 55.283,178.807 C55.283,178.807 62.860,183.419 64.438,184.222 C77.507,191.089 92.358,195.023 108.120,195.023 C123.893,195.023 138.734,191.089 151.824,184.222 C151.824,184.222 159.117,180.098 160.969,178.807 C186.031,161.823 202.529,133.116 202.529,100.618 C202.529,48.570 160.182,6.214 108.120,6.214 ZM148.392,160.200 C146.981,161.184 141.424,164.327 141.424,164.327 C131.449,169.560 120.140,172.558 108.120,172.558 C96.109,172.558 84.792,169.560 74.833,164.327 C73.631,163.714 67.856,160.200 67.856,160.200 C48.758,147.257 36.179,125.383 36.179,100.618 C36.179,60.955 68.456,28.680 108.120,28.680 C147.793,28.680 180.063,60.955 180.063,100.618 C180.063,125.383 167.491,147.257 148.392,160.200 Z" id="path-7" class="cls-9" fill-rule="evenodd"/>
    <path d="M103.420,28.919 C101.859,28.816 100.306,28.680 98.719,28.680 C59.055,28.680 26.777,60.955 26.777,100.618 C26.777,125.383 39.356,147.257 58.455,160.200 C58.455,160.200 64.228,163.714 65.431,164.327 C75.391,169.560 86.707,172.557 98.719,172.557 C100.300,172.557 101.866,172.499 103.420,172.396 C93.158,171.724 83.482,168.871 74.832,164.327 C73.630,163.714 67.856,160.200 67.856,160.200 C48.758,147.257 36.179,125.383 36.179,100.618 C36.179,62.542 65.948,31.358 103.420,28.919 Z" id="path-8" class="cls-6" fill-rule="evenodd"/>
    <path d="M108.120,6.214 C106.533,6.214 104.988,6.374 103.420,6.453 C153.291,8.927 193.127,50.156 193.127,100.618 C193.127,133.116 176.630,161.822 151.567,178.807 C149.716,180.097 142.423,184.222 142.423,184.222 C130.643,190.401 117.439,194.177 103.420,194.877 C104.980,194.956 106.542,195.022 108.120,195.022 C123.893,195.022 138.734,191.089 151.824,184.222 C151.824,184.222 159.117,180.097 160.969,178.807 C186.031,161.822 202.529,133.116 202.529,100.618 C202.529,48.569 160.182,6.214 108.120,6.214 Z" id="path-9" class="cls-6" fill-rule="evenodd"/>
    <path d="M74.833,164.327 C84.792,169.560 96.110,172.558 108.120,172.558 C120.140,172.558 131.449,169.560 141.424,164.327 C141.424,164.327 146.982,161.184 148.392,160.200 C167.491,147.258 180.063,125.383 180.063,100.618 C180.063,60.955 147.793,28.680 108.120,28.680 C68.456,28.680 36.179,60.955 36.179,100.618 C36.179,125.383 48.759,147.258 67.856,160.200 C67.856,160.200 73.631,163.714 74.833,164.327 Z" id="path-10" class="cls-12" fill-rule="evenodd"/>
    <path d="M40.879,110.020 C40.879,70.357 73.156,38.081 112.821,38.081 C139.186,38.081 162.216,52.377 174.744,73.583 C164.031,47.285 138.226,28.680 108.121,28.680 C68.456,28.680 36.179,60.955 36.179,100.618 C36.179,113.990 39.872,126.504 46.254,137.241 C42.803,128.838 40.879,119.652 40.879,110.020 Z" id="path-11" class="cls-13" fill-rule="evenodd"/>
    <path d="M149.645,70.704 C147.574,68.632 144.219,68.632 142.147,70.704 C142.147,70.704 141.004,71.847 141.004,71.847 C142.172,73.874 141.977,76.468 140.244,78.201 C140.244,78.201 114.188,104.268 114.188,104.268 C115.202,106.411 115.824,108.772 115.824,111.299 C115.824,118.726 110.850,124.940 104.081,126.978 C105.580,127.429 107.135,127.744 108.779,127.744 C117.852,127.744 125.225,120.371 125.225,111.299 C125.225,108.772 124.604,106.411 123.589,104.268 C123.589,104.268 149.645,78.201 149.645,78.201 C151.716,76.131 151.716,72.776 149.645,70.704 Z" id="path-12" class="cls-13" fill-rule="evenodd"/>
    <path d="M104.680,42.639 C104.680,42.639 104.680,95.662 104.680,95.662 C104.680,95.662 104.660,95.755 104.660,95.807 C105.384,96.055 106.088,103.529 106.773,103.871 C106.773,103.871 114.082,96.559 114.082,96.559 C114.082,96.559 114.082,42.639 114.082,42.639 C114.082,39.708 111.721,37.337 108.779,37.337 C106.708,37.337 104.952,38.560 104.081,40.299 C104.436,41.012 104.680,41.786 104.680,42.639 Z" id="path-13" class="cls-13" fill-rule="evenodd"/>
    <path d="M144.944,78.202 C144.944,78.202 118.888,104.267 118.888,104.267 C119.903,106.411 120.524,108.772 120.524,111.299 C120.524,120.372 113.151,127.744 104.078,127.744 C95.017,127.744 87.643,120.372 87.643,111.299 C87.643,104.091 92.335,98.013 98.817,95.807 C98.817,95.807 98.776,95.714 98.776,95.714 C98.776,95.714 98.776,42.639 98.776,42.639 C98.776,39.708 101.157,37.337 104.078,37.337 C107.020,37.337 109.381,39.708 109.381,42.639 C109.381,42.639 109.381,95.662 109.381,95.662 C109.381,95.662 109.361,95.755 109.361,95.807 C110.085,96.054 110.789,96.344 111.473,96.687 C111.473,96.687 137.447,70.704 137.447,70.704 C139.518,68.633 142.873,68.633 144.944,70.704 C147.015,72.775 147.015,76.130 144.944,78.202 Z" id="path-14" class="cls-3" fill-rule="evenodd"/>
  </g>
</svg>
