<svg xmlns="http://www.w3.org/2000/svg" xmlns:xlink="http://www.w3.org/1999/xlink" preserveAspectRatio="xMidYMid" width="216" height="153" viewBox="0 0 216 153">
  <defs>
    <style>

      .cls-3 {
        fill: #142a3b;
      }

      .cls-4 {
        fill: #000000;
        opacity: 0.35;
      }

      .cls-5 {
        fill: #ff3a2f;
      }

      .cls-9 {
        fill: #fbb713;
      }

      .cls-10 {
        fill: #000000;
        opacity: 0.25;
      }

      .cls-11 {
        fill: #ededed;
      }
    </style>
  </defs>
  <g id="group-137svg">
    <path d="M41.895,136.904 C41.895,136.904 27.868,136.904 27.868,136.904 C23.581,136.904 19.870,133.926 18.940,129.742 C18.940,129.742 0.084,44.894 0.084,44.894 C-0.232,43.445 0.113,41.929 1.051,40.761 C1.978,39.607 3.385,38.934 4.868,38.934 C4.868,38.934 210.611,38.934 210.611,38.934 C212.095,38.934 213.501,39.607 214.430,40.761 C215.367,41.929 215.711,43.445 215.395,44.894 C215.395,44.894 196.539,129.743 196.539,129.743 C195.610,133.927 191.899,136.904 187.613,136.904 C187.613,136.904 179.058,136.904 179.058,136.904 C179.058,136.904 179.058,136.904 179.058,136.904 " id="path-1" class="cls-3" fill-rule="evenodd"/>
    <path d="M214.430,40.761 C213.501,39.609 212.095,38.934 210.611,38.934 C210.611,38.934 190.559,38.934 190.559,38.934 C188.290,38.934 186.325,40.510 185.833,42.724 C185.833,42.724 169.603,115.755 169.603,115.755 C168.612,120.213 164.659,123.384 160.093,123.384 C160.093,123.384 152.017,123.384 152.017,123.384 C152.017,123.384 23.562,123.384 23.562,123.384 C20.464,123.384 18.164,126.252 18.836,129.276 C18.836,129.276 18.836,129.276 18.836,129.276 C19.826,133.731 23.780,136.904 28.346,136.904 C28.346,136.904 41.895,136.904 41.895,136.904 C41.895,136.904 179.058,136.904 179.058,136.904 C179.058,136.904 187.133,136.904 187.133,136.904 C191.700,136.904 195.653,133.731 196.643,129.276 C196.643,129.276 215.395,44.894 215.395,44.894 C215.711,43.445 215.367,41.930 214.430,40.761 Z" id="path-2" class="cls-4" fill-rule="evenodd"/>
    <circle id="circle-1" class="cls-5" cx="59" cy="132" r="20"/>
    <circle id="circle-2" class="cls-5" cx="157" cy="132" r="20"/>
    <path d="M62.553,112.796 C66.673,116.390 69.334,121.614 69.334,127.498 C69.334,138.299 60.541,147.091 49.740,147.091 C48.440,147.091 47.173,146.952 45.942,146.708 C49.387,149.714 53.835,151.600 58.753,151.600 C69.555,151.600 78.347,142.807 78.347,132.006 C78.347,122.501 71.541,114.571 62.553,112.796 Z" id="path-3" class="cls-4" fill-rule="evenodd"/>
    <path d="M160.526,112.796 C164.646,116.390 167.307,121.614 167.307,127.498 C167.307,138.299 158.514,147.091 147.713,147.091 C146.413,147.091 145.146,146.952 143.916,146.708 C147.361,149.714 151.808,151.600 156.726,151.600 C167.528,151.600 176.321,142.807 176.321,132.006 C176.321,122.501 169.515,114.571 160.526,112.796 Z" id="path-4" class="cls-4" fill-rule="evenodd"/>
    <path d="M28.774,32.720 C28.774,32.720 105.106,0.509 105.106,0.509 C106.743,-0.182 108.737,-0.182 110.373,0.509 C110.373,0.509 186.705,32.720 186.705,32.720 C191.553,34.764 189.627,40.333 184.072,40.333 C184.072,40.333 31.408,40.333 31.408,40.333 C25.853,40.333 23.927,34.764 28.774,32.720 Z" id="path-5" class="cls-9" fill-rule="evenodd"/>
    <path d="M186.705,32.720 C186.705,32.720 110.373,0.509 110.373,0.509 C108.737,-0.182 106.743,-0.182 105.107,0.509 C105.107,0.509 98.726,3.201 98.726,3.201 C98.726,3.201 168.678,32.720 168.678,32.720 C173.525,34.764 171.599,40.333 166.045,40.333 C166.045,40.333 184.072,40.333 184.072,40.333 C189.627,40.333 191.552,34.764 186.705,32.720 Z" id="path-6" class="cls-10" fill-rule="evenodd"/>
    <path d="M54.177,34.754 C52.770,34.754 51.433,33.921 50.860,32.542 C50.097,30.710 50.961,28.608 52.793,27.844 C52.793,27.844 97.344,9.284 97.344,9.284 C99.186,8.516 101.280,9.388 102.042,11.217 C102.805,13.048 101.940,15.151 100.109,15.914 C100.109,15.914 55.557,34.474 55.557,34.474 C55.104,34.665 54.636,34.754 54.177,34.754 Z" id="path-7" class="cls-11" fill-rule="evenodd"/>
  </g>
</svg>
