<svg xmlns="http://www.w3.org/2000/svg" xmlns:xlink="http://www.w3.org/1999/xlink" preserveAspectRatio="xMidYMid" width="216" height="135" viewBox="0 0 216 135">
  <defs>
    <style>

      .cls-3 {
        fill: #142a3b;
      }

      .cls-4 {
        fill: #fbb713;
      }

      .cls-6 {
        fill: #060606;
        opacity: 0.25;
      }

      .cls-7 {
        fill: #060606;
        opacity: 0.35;
      }
    </style>
  </defs>
  <g id="group-11svg">
    <path d="M167.625,40.416 C167.625,40.416 182.935,40.416 182.935,40.416 C182.935,40.416 144.096,1.578 144.096,1.578 C141.982,-0.537 138.556,-0.537 136.441,1.578 C134.326,3.693 134.326,7.118 136.441,9.233 C136.441,9.233 167.625,40.416 167.625,40.416 Z" id="path-1" class="cls-3" fill-rule="evenodd"/>
    <path d="M13.527,51.243 C13.527,51.243 41.520,126.002 41.520,126.002 C44.074,131.263 49.408,134.602 55.256,134.602 C55.256,134.602 158.788,134.602 158.788,134.602 C165.059,134.602 170.693,130.767 172.993,124.933 C172.993,124.933 202.042,51.243 202.042,51.243 C202.042,51.243 13.527,51.243 13.527,51.243 Z" id="path-2" class="cls-4" fill-rule="evenodd"/>
    <path d="M5.428,40.416 C2.446,40.416 0.014,42.836 0.014,45.829 C0.014,48.822 2.446,51.243 5.428,51.243 C5.428,51.243 210.140,51.243 210.140,51.243 C213.144,51.243 215.554,48.822 215.554,45.829 C215.554,42.836 213.144,40.416 210.140,40.416 C210.140,40.416 5.428,40.416 5.428,40.416 Z" id="path-3" class="cls-3" fill-rule="evenodd"/>
    <path d="M13.527,51.244 C13.527,51.244 16.164,58.287 16.164,58.287 C16.164,58.287 154.644,67.285 154.644,67.285 C165.200,67.971 182.935,70.405 174.921,89.246 C174.921,89.246 156.380,134.603 156.380,134.603 C156.380,134.603 158.787,134.603 158.787,134.603 C165.059,134.603 170.693,130.767 172.993,124.932 C172.993,124.932 202.042,51.244 202.042,51.244 C202.042,51.244 13.527,51.244 13.527,51.244 Z" id="path-4" class="cls-6" fill-rule="evenodd"/>
    <path d="M157.112,79.501 C157.112,79.501 58.456,79.501 58.456,79.501 C56.473,79.501 54.864,77.893 54.864,75.909 C54.864,73.926 56.473,72.318 58.456,72.318 C58.456,72.318 157.112,72.318 157.112,72.318 C159.096,72.318 160.705,73.926 160.705,75.909 C160.705,77.893 159.096,79.501 157.112,79.501 Z" id="path-5" class="cls-7" fill-rule="evenodd"/>
    <path d="M157.112,104.405 C157.112,104.405 58.456,104.405 58.456,104.405 C56.473,104.405 54.864,102.797 54.864,100.814 C54.864,98.829 56.473,97.221 58.456,97.221 C58.456,97.221 157.112,97.221 157.112,97.221 C159.096,97.221 160.705,98.829 160.705,100.814 C160.705,102.797 159.096,104.405 157.112,104.405 Z" id="path-6" class="cls-7" fill-rule="evenodd"/>
    <path d="M5.428,51.244 C5.428,51.244 210.140,51.244 210.140,51.244 C213.144,51.244 215.554,48.822 215.554,45.829 C215.554,45.829 0.014,45.829 0.014,45.829 C0.014,48.822 2.446,51.244 5.428,51.244 Z" id="path-7" class="cls-7" fill-rule="evenodd"/>
    <path d="M47.944,40.416 C47.944,40.416 79.127,9.233 79.127,9.233 C81.242,7.118 81.242,3.693 79.127,1.578 C77.012,-0.537 73.587,-0.537 71.472,1.578 C71.472,1.578 32.633,40.416 32.633,40.416 C32.633,40.416 47.944,40.416 47.944,40.416 Z" id="path-8" class="cls-3" fill-rule="evenodd"/>
    <path d="M38.859,34.189 C38.859,34.189 32.633,40.416 32.633,40.416 C32.633,40.416 47.944,40.416 47.944,40.416 C47.944,40.416 55.540,32.820 55.540,32.820 C55.540,32.820 38.859,34.189 38.859,34.189 Z" id="path-9" class="cls-7" fill-rule="evenodd"/>
    <path d="M179.204,36.684 C179.204,36.684 182.935,40.416 182.935,40.416 C182.935,40.416 167.624,40.416 167.624,40.416 C167.624,40.416 161.047,33.839 161.047,33.839 C161.047,33.839 179.204,36.684 179.204,36.684 Z" id="path-10" class="cls-7" fill-rule="evenodd"/>
  </g>
</svg>
