<svg xmlns="http://www.w3.org/2000/svg" xmlns:xlink="http://www.w3.org/1999/xlink" preserveAspectRatio="xMidYMid" width="217" height="193" viewBox="0 0 217 193">
  <defs>
    <style>

      .cls-3 {
        fill: #142a3b;
      }

      .cls-4 {
        fill: #000000;
        opacity: 0.35;
      }

      .cls-5 {
        fill: #0cb04a;
      }

      .cls-9 {
        fill: #ff3a2f;
      }

      .cls-13 {
        fill: #ededed;
      }
    </style>
  </defs>
  <g id="group-126svg">
    <path d="M177.139,9.772 C177.139,9.772 109.863,193.468 109.863,193.468 C109.863,193.468 42.587,9.772 42.587,9.772 C42.587,9.772 177.139,9.772 177.139,9.772 Z" id="path-1" class="cls-3" fill-rule="evenodd"/>
    <path d="M54.607,14.887 C54.607,14.887 79.745,52.900 79.745,52.900 C79.745,52.900 111.153,24.880 111.153,24.880 C111.153,24.880 142.560,52.900 142.560,52.900 C142.560,52.900 171.853,15.771 171.853,15.771 C171.853,15.771 110.723,18.264 110.723,18.264 C110.723,18.264 54.607,14.887 54.607,14.887 Z" id="path-2" class="cls-4" fill-rule="evenodd"/>
    <path d="M0.015,35.624 C0.015,35.624 96.813,187.706 96.813,187.706 C96.813,187.706 104.789,167.056 104.789,167.056 C104.789,167.056 49.129,-0.000 49.129,-0.000 C49.129,-0.000 49.129,-0.000 49.129,-0.000 " id="path-3" class="cls-5" fill-rule="evenodd"/>
    <path d="M49.129,-0.000 C49.129,-0.000 42.800,4.590 42.800,4.590 C42.800,4.590 94.686,160.321 94.686,160.321 C94.686,160.321 88.906,175.284 88.906,175.284 C88.906,175.284 96.813,187.706 96.813,187.706 C96.813,187.706 104.789,167.056 104.789,167.056 C104.789,167.056 49.129,-0.000 49.129,-0.000 Z" id="path-4" class="cls-4" fill-rule="evenodd"/>
    <path d="M169.298,0.049 C169.298,0.049 94.852,192.780 94.852,192.780 C94.852,192.780 117.022,192.780 117.022,192.780 C121.136,173.955 215.554,31.969 215.554,31.969 C215.554,31.969 215.554,31.969 215.554,31.969 " id="path-5" class="cls-5" fill-rule="evenodd"/>
    <path d="M169.298,0.049 C169.298,0.049 165.435,10.047 165.435,10.047 C165.435,10.047 188.998,26.308 188.998,26.308 C196.256,31.316 198.186,41.207 193.336,48.574 C171.174,82.242 113.915,170.083 104.681,192.780 C104.681,192.780 117.022,192.780 117.022,192.780 C121.136,173.955 215.554,31.969 215.554,31.969 C215.554,31.969 169.298,0.049 169.298,0.049 Z" id="path-6" class="cls-4" fill-rule="evenodd"/>
    <path d="M129.698,30.811 C129.698,30.811 119.485,45.371 119.485,45.371 C119.485,45.371 99.779,45.371 99.779,45.371 C99.779,45.371 88.497,30.811 88.497,30.811 C88.497,30.811 109.098,12.116 109.098,12.116 C109.098,12.116 129.698,30.811 129.698,30.811 Z" id="path-7" class="cls-9" fill-rule="evenodd"/>
    <path d="M99.779,45.371 C99.779,45.371 74.002,74.748 83.134,102.320 C83.134,102.320 102.977,171.747 102.977,171.747 C102.977,171.747 129.750,102.320 129.750,102.320 C139.968,75.831 119.485,45.371 119.485,45.371 C119.485,45.371 119.485,45.371 119.485,45.371 " id="path-8" class="cls-9" fill-rule="evenodd"/>
    <path d="M109.098,12.116 C109.098,12.116 104.046,16.700 104.046,16.700 C104.046,16.700 119.595,34.177 119.595,34.177 C119.595,34.177 109.382,45.371 109.382,45.371 C109.382,45.371 119.485,45.371 119.485,45.371 C119.485,45.371 129.698,30.811 129.698,30.811 C129.698,30.811 109.098,12.116 109.098,12.116 Z" id="path-9" class="cls-4" fill-rule="evenodd"/>
    <path d="M119.485,45.371 C119.485,45.371 109.382,45.371 109.382,45.371 C109.382,45.371 129.865,75.831 119.647,102.320 C119.647,102.320 98.676,156.700 98.676,156.700 C98.676,156.700 102.977,171.747 102.977,171.747 C102.977,171.747 129.750,102.320 129.750,102.320 C139.968,75.831 119.485,45.371 119.485,45.371 Z" id="path-10" class="cls-4" fill-rule="evenodd"/>
    <path d="M51.240,4.784 C51.240,4.784 76.378,42.796 76.378,42.796 C76.378,42.796 107.784,14.776 107.784,14.776 C107.784,14.776 139.192,42.796 139.192,42.796 C139.192,42.796 168.485,5.668 168.485,5.668 C168.485,5.668 107.355,8.160 107.355,8.160 C107.355,8.160 51.240,4.784 51.240,4.784 Z" id="path-11" class="cls-13" fill-rule="evenodd"/>
    <path d="M101.049,11.408 C101.049,11.408 72.478,36.899 72.478,36.899 C72.478,36.899 76.378,42.796 76.378,42.796 C76.378,42.796 106.305,16.097 106.305,16.097 C106.305,16.097 101.049,11.408 101.049,11.408 Z" id="path-12" class="cls-4" fill-rule="evenodd"/>
    <path d="M158.781,6.062 C158.781,6.062 133.679,37.878 133.679,37.878 C133.679,37.878 139.192,42.796 139.192,42.796 C139.192,42.796 168.485,5.668 168.485,5.668 C168.485,5.668 158.781,6.062 158.781,6.062 Z" id="path-13" class="cls-4" fill-rule="evenodd"/>
  </g>
</svg>
