<svg xmlns="http://www.w3.org/2000/svg" xmlns:xlink="http://www.w3.org/1999/xlink" preserveAspectRatio="xMidYMid" width="216" height="214" viewBox="0 0 216 214">
  <defs>
    <style>

      .cls-3 {
        fill: #0cb04a;
      }

      .cls-4 {
        fill: #000000;
        opacity: 0.35;
      }

      .cls-5 {
        fill: #ff3a2f;
      }

      .cls-7 {
        fill: #142a3b;
      }

      .cls-16 {
        fill: #000000;
      }

      .cls-17 {
        fill: #fbb713;
      }

      .cls-18 {
        fill: #000000;
        opacity: 0.2;
      }
    </style>
  </defs>
  <g id="group-104svg">
    <path d="M101.378,-0.003 C101.378,-0.003 27.657,-0.003 27.657,-0.003 C27.657,-0.003 27.657,72.151 27.657,72.151 C27.657,72.151 92.163,72.151 92.163,72.151 C92.163,72.151 92.163,185.328 92.163,185.328 C92.163,185.328 0.012,185.328 0.012,185.328 C0.012,185.328 0.012,213.127 0.012,213.127 C0.012,213.127 101.378,213.127 101.378,213.127 C101.378,213.127 211.960,213.127 211.960,213.127 C211.960,213.127 211.960,13.897 211.960,13.897 C211.960,6.225 205.758,-0.003 198.136,-0.003 C198.136,-0.003 101.378,-0.003 101.378,-0.003 Z" id="path-1" class="cls-3" fill-rule="evenodd"/>
    <path d="M92.163,65.315 C92.163,65.315 27.657,65.315 27.657,65.315 C27.657,65.315 27.657,72.151 27.657,72.151 C27.657,72.151 92.163,72.151 92.163,72.151 C92.163,72.151 92.163,65.315 92.163,65.315 Z" id="path-2" class="cls-4" fill-rule="evenodd"/>
    <path d="M211.960,111.195 C211.960,111.195 165.884,111.195 165.884,111.195 C165.884,111.195 165.884,213.127 165.884,213.127 C165.884,213.127 211.960,213.127 211.960,213.127 C211.960,213.127 211.960,111.195 211.960,111.195 Z" id="path-3" class="cls-5" fill-rule="evenodd"/>
    <path d="M198.137,-0.003 C198.137,-0.003 189.467,-0.003 189.467,-0.003 C190.695,2.074 191.448,4.471 191.448,7.060 C191.448,7.060 191.448,189.187 191.448,189.187 C191.448,198.633 183.791,206.290 174.344,206.290 C174.344,206.290 80.867,206.290 80.867,206.290 C80.867,206.290 0.012,206.290 0.012,206.290 C0.012,206.290 0.012,213.127 0.012,213.127 C0.012,213.127 101.377,213.127 101.377,213.127 C101.377,213.127 211.960,213.127 211.960,213.127 C211.960,213.127 211.960,13.897 211.960,13.897 C211.960,6.225 205.759,-0.003 198.137,-0.003 Z" id="path-4" class="cls-4" fill-rule="evenodd"/>
    <path d="M211.960,49.923 C211.960,49.923 156.668,49.923 156.668,49.923 C154.684,49.923 153.076,48.315 153.076,46.330 C153.076,44.347 154.684,42.739 156.668,42.739 C156.668,42.739 211.960,42.739 211.960,42.739 C213.944,42.739 215.552,44.347 215.552,46.330 C215.552,48.315 213.944,49.923 211.960,49.923 Z" id="path-5" class="cls-7" fill-rule="evenodd"/>
    <path d="M211.960,68.455 C211.960,68.455 156.668,68.455 156.668,68.455 C154.684,68.455 153.076,66.847 153.076,64.864 C153.076,62.880 154.684,61.271 156.668,61.271 C156.668,61.271 211.960,61.271 211.960,61.271 C213.944,61.271 215.552,62.880 215.552,64.864 C215.552,66.847 213.944,68.455 211.960,68.455 Z" id="path-6" class="cls-7" fill-rule="evenodd"/>
    <path d="M211.960,86.989 C211.960,86.989 156.668,86.989 156.668,86.989 C154.684,86.989 153.076,85.379 153.076,83.397 C153.076,81.412 154.684,79.805 156.668,79.805 C156.668,79.805 211.960,79.805 211.960,79.805 C213.944,79.805 215.552,81.412 215.552,83.397 C215.552,85.379 213.944,86.989 211.960,86.989 Z" id="path-7" class="cls-7" fill-rule="evenodd"/>
    <path d="M36.872,103.769 C36.872,103.769 24.168,103.769 24.168,103.769 C22.184,103.769 20.575,102.161 20.575,100.177 C20.575,98.193 22.184,96.585 24.168,96.585 C24.168,96.585 36.872,96.585 36.872,96.585 C38.856,96.585 40.464,98.193 40.464,100.177 C40.464,102.161 38.856,103.769 36.872,103.769 Z" id="path-8" class="cls-7" fill-rule="evenodd"/>
    <path d="M64.518,94.502 C62.534,94.502 60.926,92.894 60.926,90.911 C60.926,90.911 60.926,72.151 60.926,72.151 C60.926,70.167 62.534,68.559 64.518,68.559 C66.502,68.559 68.110,70.167 68.110,72.151 C68.110,72.151 68.110,90.911 68.110,90.911 C68.110,92.894 66.502,94.502 64.518,94.502 Z" id="path-9" class="cls-7" fill-rule="evenodd"/>
    <path d="M46.086,94.502 C44.103,94.502 42.494,92.894 42.494,90.911 C42.494,90.911 42.494,72.151 42.494,72.151 C42.494,70.167 44.103,68.559 46.086,68.559 C48.071,68.559 49.678,70.167 49.678,72.151 C49.678,72.151 49.678,90.911 49.678,90.911 C49.678,92.894 48.071,94.502 46.086,94.502 Z" id="path-10" class="cls-7" fill-rule="evenodd"/>
    <path d="M55.303,122.305 C53.318,122.305 51.710,120.696 51.710,118.712 C51.710,118.712 51.710,109.446 51.710,109.446 C51.710,107.461 53.318,105.853 55.303,105.853 C57.286,105.853 58.895,107.461 58.895,109.446 C58.895,109.446 58.895,118.712 58.895,118.712 C58.895,120.696 57.286,122.305 55.303,122.305 Z" id="path-11" class="cls-7" fill-rule="evenodd"/>
    <path d="M73.733,109.445 C73.733,109.445 36.872,109.445 36.872,109.445 C36.872,109.445 36.872,90.911 36.872,90.911 C36.872,90.911 73.733,90.911 73.733,90.911 C73.733,90.911 73.733,109.445 73.733,109.445 Z" id="path-12" class="cls-5" fill-rule="evenodd"/>
    <path d="M73.733,32.430 C73.733,40.104 67.532,46.330 59.910,46.330 C52.266,46.330 46.087,40.104 46.087,32.430 C46.087,24.757 52.266,18.531 59.910,18.531 C67.532,18.531 73.733,24.757 73.733,32.430 Z" id="path-13" class="cls-5" fill-rule="evenodd"/>
    <path d="M71.180,24.430 C72.775,26.696 73.733,29.446 73.733,32.430 C73.733,40.104 67.532,46.329 59.910,46.329 C56.988,46.329 54.290,45.410 52.060,43.859 C54.561,47.412 58.661,49.748 63.329,49.748 C70.951,49.748 77.151,43.523 77.151,35.848 C77.151,31.113 74.780,26.940 71.180,24.430 Z" id="path-14" class="cls-16" fill-rule="evenodd"/>
    <path d="M46.696,184.381 C67.465,184.381 84.300,167.546 84.300,146.778 C84.300,146.778 9.094,146.778 9.094,146.778 C9.094,167.546 25.929,184.381 46.696,184.381 Z" id="path-15" class="cls-17" fill-rule="evenodd"/>
    <path d="M67.208,146.778 C67.208,164.601 54.794,179.493 38.150,183.368 C40.900,184.007 43.752,184.382 46.697,184.382 C67.465,184.382 84.300,167.546 84.300,146.778 C84.300,146.778 67.208,146.778 67.208,146.778 Z" id="path-16" class="cls-18" fill-rule="evenodd"/>
  </g>
</svg>
