<svg xmlns="http://www.w3.org/2000/svg" xmlns:xlink="http://www.w3.org/1999/xlink" preserveAspectRatio="xMidYMid" width="216" height="216" viewBox="0 0 216 216">
  <defs>
    <style>

      .cls-3 {
        fill: #fbb713;
      }

      .cls-4 {
        fill: #2476ff;
      }

      .cls-5 {
        fill: #ff3a2f;
      }

      .cls-6 {
        fill: #000000;
        opacity: 0.35;
      }
    </style>
  </defs>
  <g id="group-150svg">
    <path d="M93.719,14.060 C93.719,6.299 100.015,0.003 107.776,0.003 C115.536,0.003 121.833,6.299 121.833,14.060 C121.833,14.060 121.833,215.536 121.833,215.536 C121.833,215.536 93.719,215.536 93.719,215.536 C93.719,215.536 93.719,14.060 93.719,14.060 Z" id="path-1" class="cls-3" fill-rule="evenodd"/>
    <path d="M180.403,74.972 C180.403,74.972 18.749,74.972 18.749,74.972 C18.749,74.972 28.120,51.543 28.120,51.543 C28.120,51.543 18.749,28.115 18.749,28.115 C18.749,28.115 180.403,28.115 180.403,28.115 C180.403,28.115 215.546,51.543 215.546,51.543 C215.546,51.543 180.403,74.972 180.403,74.972 Z" id="path-2" class="cls-4" fill-rule="evenodd"/>
    <path d="M35.149,93.713 C35.149,93.713 196.803,93.713 196.803,93.713 C196.803,93.713 187.432,117.140 187.432,117.140 C187.432,117.140 196.803,140.568 196.803,140.568 C196.803,140.568 35.149,140.568 35.149,140.568 C35.149,140.568 0.007,117.140 0.007,117.140 C0.007,117.140 35.149,93.713 35.149,93.713 Z" id="path-3" class="cls-5" fill-rule="evenodd"/>
    <path d="M180.403,28.115 C180.403,28.115 18.749,28.115 18.749,28.115 C18.749,28.115 20.473,32.427 20.473,32.427 C20.473,32.427 171.782,32.427 171.782,32.427 C171.782,32.427 206.924,55.853 206.924,55.853 C206.924,55.853 178.248,74.972 178.248,74.972 C178.248,74.972 180.403,74.972 180.403,74.972 C180.403,74.972 215.546,51.543 215.546,51.543 C215.546,51.543 180.403,28.115 180.403,28.115 Z" id="path-4" class="cls-6" fill-rule="evenodd"/>
    <path d="M196.803,93.713 C196.803,93.713 35.148,93.713 35.148,93.713 C35.148,93.713 28.683,98.024 28.683,98.024 C28.683,98.024 188.181,98.024 188.181,98.024 C188.181,98.024 178.811,121.452 178.811,121.452 C178.811,121.452 186.458,140.568 186.458,140.568 C186.458,140.568 196.803,140.568 196.803,140.568 C196.803,140.568 187.432,117.141 187.432,117.141 C187.432,117.141 196.803,93.713 196.803,93.713 Z" id="path-5" class="cls-6" fill-rule="evenodd"/>
  </g>
</svg>
