<svg xmlns="http://www.w3.org/2000/svg" xmlns:xlink="http://www.w3.org/1999/xlink" preserveAspectRatio="xMidYMid" width="140" height="216" viewBox="0 0 140 216">
  <defs>
    <style>

      .cls-3 {
        fill: #142a3b;
      }

      .cls-4 {
        fill: #ff3a2f;
      }

      .cls-5 {
        fill: #ededed;
      }

      .cls-6 {
        fill: #060606;
        opacity: 0.35;
      }
    </style>
  </defs>
  <g id="group-32svg">
    <path d="M135.492,207.934 C135.492,207.934 128.491,207.934 128.491,207.934 C128.676,207.486 128.784,206.999 128.784,206.483 C128.784,204.382 127.080,202.677 124.978,202.677 C124.978,202.677 14.306,202.677 14.306,202.677 C12.204,202.677 10.500,204.382 10.500,206.483 C10.500,206.999 10.608,207.486 10.793,207.934 C10.793,207.934 3.792,207.934 3.792,207.934 C1.690,207.934 -0.014,209.639 -0.014,211.740 C-0.014,213.844 1.690,215.546 3.792,215.546 C3.792,215.546 135.492,215.546 135.492,215.546 C137.594,215.546 139.298,213.844 139.298,211.740 C139.298,209.639 137.594,207.934 135.492,207.934 Z" id="path-1" class="cls-3" fill-rule="evenodd"/>
    <path d="M106.075,36.445 C106.075,56.567 89.763,72.878 69.642,72.878 C49.521,72.878 33.209,56.567 33.209,36.445 C33.209,16.325 49.521,0.014 69.642,0.014 C89.763,0.014 106.075,16.325 106.075,36.445 Z" id="path-2" class="cls-4" fill-rule="evenodd"/>
    <path d="M44.475,40.039 C42.492,40.039 40.883,38.430 40.883,36.446 C40.883,20.588 53.784,7.687 69.643,7.687 C71.627,7.687 73.235,9.296 73.235,11.279 C73.235,13.263 71.627,14.872 69.643,14.872 C57.747,14.872 48.067,24.550 48.067,36.446 C48.067,38.430 46.459,40.039 44.475,40.039 Z" id="path-3" class="cls-5" fill-rule="evenodd"/>
    <path d="M95.462,10.748 C97.243,15.044 98.238,19.749 98.238,24.689 C98.238,44.811 81.926,61.121 61.804,61.121 C51.713,61.121 42.582,57.015 35.984,50.387 C41.459,63.587 54.461,72.877 69.642,72.877 C89.763,72.877 106.075,56.567 106.075,36.445 C106.075,26.417 102.020,17.336 95.462,10.748 Z" id="path-4" class="cls-6" fill-rule="evenodd"/>
    <path d="M107.048,103.399 C107.048,103.399 32.236,103.399 32.236,103.399 C31.099,103.399 30.177,102.478 30.177,101.341 C30.177,101.341 30.177,69.679 30.177,69.679 C30.177,68.542 31.099,67.621 32.236,67.621 C32.236,67.621 107.048,67.621 107.048,67.621 C108.185,67.621 109.107,68.542 109.107,69.679 C109.107,69.679 109.107,101.341 109.107,101.341 C109.107,102.478 108.185,103.399 107.048,103.399 Z" id="path-5" class="cls-3" fill-rule="evenodd"/>
    <path d="M101.039,67.621 C101.039,67.621 100.088,67.621 100.088,67.621 C100.822,68.836 101.269,70.246 101.269,71.770 C101.269,71.770 101.269,91.414 101.269,91.414 C101.269,95.869 97.657,99.481 93.201,99.481 C93.201,99.481 31.359,99.481 31.359,99.481 C32.771,101.820 35.313,103.399 38.245,103.399 C38.245,103.399 101.039,103.399 101.039,103.399 C105.495,103.399 109.107,99.789 109.107,95.332 C109.107,95.332 109.107,75.688 109.107,75.688 C109.107,71.233 105.495,67.621 101.039,67.621 Z" id="path-6" class="cls-6" fill-rule="evenodd"/>
    <path d="M113.451,202.678 C113.451,202.678 25.833,202.678 25.833,202.678 C25.833,202.678 46.862,103.399 46.862,103.399 C46.862,103.399 92.423,103.399 92.423,103.399 C92.423,103.399 113.451,202.678 113.451,202.678 Z" id="path-7" class="cls-3" fill-rule="evenodd"/>
    <path d="M92.423,103.399 C92.423,103.399 46.862,103.399 46.862,103.399 C46.862,103.399 46.501,105.098 46.501,105.098 C46.501,105.098 78.488,112.062 78.488,112.062 C78.488,112.062 96.503,189.687 96.503,189.687 C97.016,191.899 95.336,194.014 93.065,194.014 C93.065,194.014 26.524,199.416 26.524,199.416 C26.524,199.416 25.833,202.678 25.833,202.678 C25.833,202.678 113.451,202.678 113.451,202.678 C113.451,202.678 92.423,103.399 92.423,103.399 Z" id="path-8" class="cls-6" fill-rule="evenodd"/>
    <path d="M128.491,207.934 C128.676,207.486 128.784,206.999 128.784,206.484 C128.784,206.063 128.671,205.677 128.545,205.298 C128.545,205.298 10.739,205.298 10.739,205.298 C10.613,205.677 10.500,206.063 10.500,206.484 C10.500,206.999 10.608,207.486 10.793,207.934 C10.793,207.934 6.788,207.934 6.788,207.934 C6.788,207.934 6.788,207.967 6.788,207.967 C6.788,207.967 133.693,207.967 133.693,207.967 C133.693,207.967 133.693,207.934 133.693,207.934 C133.693,207.934 128.491,207.934 128.491,207.934 Z" id="path-9" class="cls-6" fill-rule="evenodd"/>
    <path d="M-0.014,211.740 C-0.014,213.844 1.690,215.547 3.792,215.547 C3.792,215.547 135.492,215.547 135.492,215.547 C137.594,215.547 139.298,213.844 139.298,211.740 C139.298,211.585 139.228,211.452 139.209,211.300 C139.209,211.300 0.074,211.300 0.074,211.300 C0.056,211.452 -0.014,211.585 -0.014,211.740 Z" id="path-10" class="cls-6" fill-rule="evenodd"/>
    <path d="M41.299,186.049 C41.079,186.049 40.859,186.030 40.636,185.988 C38.685,185.623 37.400,183.748 37.764,181.797 C37.764,181.797 48.869,122.363 48.869,122.363 C49.234,120.413 51.116,119.130 53.060,119.491 C55.010,119.857 56.296,121.732 55.931,123.681 C55.931,123.681 44.827,183.116 44.827,183.116 C44.503,184.844 42.995,186.049 41.299,186.049 Z" id="path-11" class="cls-5" fill-rule="evenodd"/>
  </g>
</svg>
