<svg xmlns="http://www.w3.org/2000/svg" xmlns:xlink="http://www.w3.org/1999/xlink" preserveAspectRatio="xMidYMid" width="216" height="216" viewBox="0 0 216 216">
  <defs>
    <style>

      .cls-3 {
        fill: #0cb04a;
      }

      .cls-5 {
        fill: #000000;
        opacity: 0.35;
      }
    </style>
  </defs>
  <g id="group-148svg">
    <path d="M74.965,0.015 C74.965,0.015 -0.006,18.758 -0.006,18.758 C-0.006,18.758 -0.006,196.806 -0.006,196.806 C-0.006,196.806 74.965,178.064 74.965,178.064 C74.965,178.064 140.564,215.548 140.564,215.548 C140.564,215.548 215.534,196.806 215.534,196.806 C215.534,196.806 215.534,18.758 215.534,18.758 C215.534,18.758 140.564,37.499 140.564,37.499 C140.564,37.499 74.965,0.015 74.965,0.015 C74.965,0.015 74.965,0.015 74.965,0.015 Z" id="path-1" class="cls-3" fill-rule="evenodd"/>
    <path d="M140.564,215.548 C140.564,215.548 140.564,37.499 140.564,37.499 C140.564,37.499 74.965,0.015 74.965,0.015 C74.965,0.015 74.965,178.064 74.965,178.064 C74.965,178.064 140.564,215.548 140.564,215.548 Z" id="path-2" class="cls-3" fill-rule="evenodd"/>
    <path d="M140.564,215.548 C140.564,215.548 140.564,37.499 140.564,37.499 C140.564,37.499 74.965,0.015 74.965,0.015 C74.965,0.015 74.965,178.064 74.965,178.064 C74.965,178.064 140.564,215.548 140.564,215.548 Z" id="path-3" class="cls-5" fill-rule="evenodd"/>
  </g>
</svg>
