<svg xmlns="http://www.w3.org/2000/svg" xmlns:xlink="http://www.w3.org/1999/xlink" preserveAspectRatio="xMidYMid" width="204" height="215" viewBox="0 0 204 215">
  <defs>
    <style>

      .cls-3 {
        fill: #142a3b;
      }

      .cls-4 {
        fill: #000000;
        opacity: 0.35;
      }

      .cls-5 {
        fill: #ededed;
      }

      .cls-6 {
        fill: #fbb713;
      }
    </style>
  </defs>
  <g id="group-56svg">
    <path d="M114.284,214.292 C114.284,214.292 -0.000,214.292 -0.000,214.292 C-0.000,214.292 -0.000,54.489 -0.000,54.489 C-0.000,54.489 114.284,54.489 114.284,54.489 C114.284,54.489 114.284,214.292 114.284,214.292 Z" id="path-1" class="cls-3" fill-rule="evenodd"/>
    <path d="M98.927,54.489 C98.927,54.489 98.927,214.292 98.927,214.292 C98.927,214.292 114.284,214.292 114.284,214.292 C114.284,214.292 114.284,54.489 114.284,54.489 C114.284,54.489 98.927,54.489 98.927,54.489 Z" id="path-2" class="cls-4" fill-rule="evenodd"/>
    <path d="M91.695,154.768 C91.695,173.828 76.225,189.279 57.142,189.279 C38.059,189.279 22.589,173.828 22.589,154.768 C22.589,135.709 38.059,120.258 57.142,120.258 C76.225,120.258 91.695,135.709 91.695,154.768 Z" id="path-3" class="cls-5" fill-rule="evenodd"/>
    <path d="M74.418,154.768 C74.418,164.298 66.684,172.023 57.142,172.023 C47.600,172.023 39.866,164.298 39.866,154.768 C39.866,145.240 47.600,137.514 57.142,137.514 C66.684,137.514 74.418,145.240 74.418,154.768 Z" id="path-4" class="cls-6" fill-rule="evenodd"/>
    <path d="M71.094,144.668 C73.162,147.513 74.418,150.983 74.418,154.768 C74.418,164.298 66.683,172.023 57.142,172.023 C53.352,172.023 49.878,170.769 47.030,168.702 C50.170,173.021 55.229,175.857 60.981,175.857 C70.522,175.857 78.258,168.132 78.258,158.602 C78.258,152.858 75.417,147.805 71.094,144.668 Z" id="path-5" class="cls-4" fill-rule="evenodd"/>
    <path d="M68.020,78.079 C68.020,84.079 63.150,88.943 57.142,88.943 C51.134,88.943 46.264,84.079 46.264,78.079 C46.264,72.079 51.134,67.215 57.142,67.215 C63.150,67.215 68.020,72.079 68.020,78.079 Z" id="path-6" class="cls-5" fill-rule="evenodd"/>
    <path d="M200.406,150.511 C198.422,150.511 196.906,148.902 196.906,146.919 C196.906,146.919 196.906,100.011 196.906,100.011 C196.906,100.011 164.906,100.011 164.906,100.011 C164.906,100.011 164.906,7.014 164.906,7.014 C164.906,7.014 60.906,7.014 60.906,7.014 C60.906,7.014 60.906,53.521 60.906,53.521 C60.906,55.505 59.389,57.114 57.406,57.114 C55.422,57.114 53.906,55.505 53.906,53.521 C53.906,53.521 53.906,0.014 53.906,0.014 C53.906,0.014 171.906,0.014 171.906,0.014 C171.906,0.014 171.906,93.011 171.906,93.011 C171.906,93.011 203.906,93.011 203.906,93.011 C203.906,93.011 203.906,146.919 203.906,146.919 C203.906,148.902 202.389,150.511 200.406,150.511 Z" id="path-7" class="cls-3" fill-rule="evenodd"/>
    <path d="M143.406,172.064 C141.422,172.064 139.906,170.456 139.906,168.471 C139.906,168.471 139.906,93.011 139.906,93.011 C139.906,93.011 168.428,93.011 168.428,93.011 C170.412,93.011 172.020,94.527 172.020,96.511 C172.020,98.495 170.412,100.011 168.428,100.011 C168.428,100.011 146.906,100.011 146.906,100.011 C146.906,100.011 146.906,168.471 146.906,168.471 C146.906,170.456 145.390,172.064 143.406,172.064 Z" id="path-8" class="cls-3" fill-rule="evenodd"/>
    <path d="M160.906,186.009 C160.906,186.009 139.906,186.009 139.906,186.009 C139.906,186.009 139.906,147.010 139.906,147.010 C139.906,147.010 160.906,147.010 160.906,147.010 C160.906,147.010 160.906,186.009 160.906,186.009 ZM146.906,179.008 C146.906,179.008 153.906,179.008 153.906,179.008 C153.906,179.008 153.906,154.009 153.906,154.009 C153.906,154.009 146.906,154.009 146.906,154.009 C146.906,154.009 146.906,179.008 146.906,179.008 Z" id="path-9" class="cls-3" fill-rule="evenodd"/>
    <path d="M203.906,186.009 C203.906,186.009 182.906,186.009 182.906,186.009 C182.906,186.009 182.906,147.010 182.906,147.010 C182.906,147.010 203.906,147.010 203.906,147.010 C203.906,147.010 203.906,186.009 203.906,186.009 ZM189.906,179.008 C189.906,179.008 196.906,179.008 196.906,179.008 C196.906,179.008 196.906,154.009 196.906,154.009 C196.906,154.009 189.906,154.009 189.906,154.009 C189.906,154.009 189.906,179.008 189.906,179.008 Z" id="path-10" class="cls-3" fill-rule="evenodd"/>
  </g>
</svg>
