<svg xmlns="http://www.w3.org/2000/svg" xmlns:xlink="http://www.w3.org/1999/xlink" preserveAspectRatio="xMidYMid" width="216" height="216" viewBox="0 0 216 216">
  <defs>
    <style>

      .cls-3 {
        fill: #fbb713;
      }

      .cls-4 {
        fill: #ededed;
      }

      .cls-6 {
        fill: #142a3b;
      }

      .cls-8 {
        fill: #060606;
        opacity: 0.35;
      }

      .cls-9 {
        fill: #ff3a2f;
      }
    </style>
  </defs>
  <g id="group-36svg">
    <path d="M134.950,121.274 C133.551,118.584 130.723,115.365 125.242,115.365 C123.132,115.365 120.997,115.828 118.933,116.275 C116.970,116.692 114.942,117.138 113.078,117.138 C110.015,117.138 106.388,116.056 102.642,108.075 C97.834,97.821 100.153,91.768 102.388,85.917 C104.515,80.350 106.925,74.055 101.825,66.587 C97.915,60.851 92.388,57.702 86.279,57.702 C78.452,57.702 70.453,62.860 63.772,72.251 C60.390,76.987 58.426,83.041 56.517,88.894 C54.790,94.203 52.999,99.685 50.599,102.148 C45.409,107.479 38.045,110.202 30.246,113.102 C22.318,116.038 14.137,119.074 8.219,125.147 C-9.208,143.044 4.137,176.544 20.027,192.869 C20.918,193.778 42.145,215.304 63.572,215.304 C63.572,215.304 63.572,215.304 63.572,215.304 C71.589,215.304 78.535,212.350 84.208,206.523 C97.280,193.106 99.915,179.270 101.833,169.162 C102.825,163.980 103.679,159.490 105.625,157.180 C108.570,153.690 113.761,150.271 118.778,146.973 C128.588,140.518 140.796,132.483 134.950,121.274 Z" id="path-1" class="cls-3" fill-rule="evenodd"/>
    <path d="M33.870,188.737 C32.935,188.737 32.001,188.375 31.295,187.650 C17.340,173.309 6.321,144.910 21.925,128.884 C23.309,127.462 25.586,127.433 27.005,128.817 C28.426,130.200 28.456,132.474 27.072,133.897 C15.278,146.008 24.583,170.450 36.446,182.641 C37.830,184.061 37.798,186.336 36.375,187.720 C35.677,188.398 34.774,188.737 33.870,188.737 Z" id="path-2" class="cls-4" fill-rule="evenodd"/>
    <path d="M70.004,86.943 C69.531,86.943 69.048,86.849 68.585,86.649 C66.763,85.865 65.923,83.751 66.707,81.929 C70.795,72.436 77.040,66.351 84.293,64.794 C86.237,64.385 88.143,65.611 88.559,67.551 C88.976,69.491 87.741,71.401 85.801,71.816 C80.886,72.872 76.449,77.473 73.306,84.771 C72.720,86.129 71.395,86.943 70.004,86.943 Z" id="path-3" class="cls-4" fill-rule="evenodd"/>
    <path d="M102.388,85.917 C100.152,91.768 97.833,97.821 102.642,108.075 C105.446,114.047 108.182,116.154 110.666,116.839 C110.666,116.839 162.405,64.115 162.405,64.115 C157.695,62.924 153.277,60.451 149.641,56.715 C145.323,52.280 142.405,47.771 140.696,43.225 C140.696,43.225 104.253,80.261 104.253,80.261 C103.769,82.229 103.077,84.116 102.388,85.917 Z" id="path-4" class="cls-6" fill-rule="evenodd"/>
    <path d="M159.236,65.311 C154.597,65.311 150.259,63.374 146.720,59.743 C140.498,53.354 137.835,47.431 138.571,41.602 C139.679,32.810 148.228,25.939 160.707,18.312 C163.771,16.440 166.648,14.620 169.386,12.873 C180.692,5.675 189.613,-0.006 198.264,-0.006 C202.277,-0.006 206.003,1.253 209.346,3.720 C214.840,7.785 216.880,14.494 214.664,21.227 C212.531,27.671 205.761,35.158 193.524,35.941 C186.885,47.911 173.511,65.311 159.236,65.311 Z" id="path-5" class="cls-6" fill-rule="evenodd"/>
    <path d="M211.407,5.558 C211.826,8.069 211.647,10.743 210.763,13.426 C208.630,19.870 201.861,27.357 189.624,28.139 C182.983,40.110 169.610,57.510 155.335,57.510 C150.697,57.510 146.358,55.573 142.819,51.941 C141.345,50.427 140.086,48.942 139.010,47.475 C140.041,51.431 142.571,55.482 146.720,59.743 C150.259,63.374 154.597,65.311 159.236,65.311 C173.511,65.311 186.885,47.911 193.524,35.941 C205.761,35.158 212.531,27.672 214.664,21.227 C216.574,15.423 215.307,9.647 211.407,5.558 Z" id="path-6" class="cls-8" fill-rule="evenodd"/>
    <path d="M42.881,157.599 C41.082,155.753 41.118,152.803 42.963,151.017 C44.809,149.222 47.754,149.253 49.545,151.091 C49.545,151.091 64.081,165.999 64.081,165.999 C65.870,167.844 65.835,170.802 63.990,172.580 C63.090,173.471 61.917,173.907 60.745,173.907 C59.535,173.907 58.317,173.434 57.408,172.507 C57.408,172.507 42.881,157.599 42.881,157.599 Z" id="path-7" class="cls-9" fill-rule="evenodd"/>
    <path d="M68.007,191.624 C66.008,193.687 62.753,193.687 60.745,191.624 C58.735,189.560 58.735,186.234 60.745,184.160 C62.753,182.106 66.008,182.106 68.007,184.160 C70.017,186.234 70.017,189.560 68.007,191.624 Z" id="path-8" class="cls-9" fill-rule="evenodd"/>
    <path d="M78.516,157.681 C77.617,158.562 76.444,158.999 75.280,158.999 C74.062,158.999 72.852,158.531 71.935,157.590 C71.935,157.590 57.408,142.663 57.408,142.663 C55.617,140.818 55.654,137.873 57.499,136.082 C59.336,134.292 62.281,134.327 64.081,136.174 C64.081,136.174 78.607,151.100 78.607,151.100 C80.408,152.944 80.371,155.880 78.516,157.681 Z" id="path-9" class="cls-9" fill-rule="evenodd"/>
    <path d="M134.950,121.274 C133.820,119.099 131.728,116.610 128.085,115.724 C131.322,125.769 120.116,133.158 110.977,139.171 C105.959,142.471 100.769,145.889 97.824,149.379 C95.878,151.687 95.024,156.179 94.032,161.361 C92.115,171.469 89.478,185.305 76.406,198.722 C70.733,204.549 63.788,207.503 55.770,207.503 C40.054,207.503 24.478,195.941 16.923,189.409 C17.942,190.628 18.978,191.791 20.027,192.868 C20.918,193.778 42.145,215.304 63.572,215.304 C71.589,215.304 78.535,212.350 84.208,206.523 C97.280,193.106 99.915,179.270 101.834,169.162 C102.825,163.980 103.679,159.489 105.625,157.180 C108.570,153.690 113.761,150.272 118.778,146.972 C128.588,140.519 140.796,132.483 134.950,121.274 Z" id="path-10" class="cls-8" fill-rule="evenodd"/>
    <path d="M94.587,78.116 C92.351,83.967 90.032,90.020 94.841,100.274 C97.763,106.501 100.609,108.509 103.176,109.098 C102.998,108.750 102.821,108.456 102.642,108.075 C97.834,97.821 100.152,91.768 102.388,85.917 C104.515,80.350 106.925,74.055 101.825,66.588 C99.816,63.640 97.376,61.389 94.654,59.884 C98.804,66.868 96.607,72.827 94.587,78.116 Z" id="path-11" class="cls-8" fill-rule="evenodd"/>
  </g>
</svg>
