<svg xmlns="http://www.w3.org/2000/svg" xmlns:xlink="http://www.w3.org/1999/xlink" preserveAspectRatio="xMidYMid" width="199" height="216" viewBox="0 0 199 216">
  <defs>
    <style>

      .cls-3 {
        fill: #ff3a2f;
      }

      .cls-5 {
        fill: #060606;
        opacity: 0.35;
      }
    </style>
  </defs>
  <g id="group-16svg">
    <path d="M70.039,22.206 C70.039,22.206 96.628,22.206 96.628,22.206 C151.681,22.206 198.207,66.612 198.207,119.176 C198.207,172.311 154.537,215.535 100.866,215.535 C44.304,215.535 0.006,168.976 0.006,109.543 C0.006,107.003 2.070,104.947 4.602,104.947 C4.602,104.947 31.824,104.947 31.824,104.947 C34.374,104.947 36.421,107.003 36.421,109.543 C36.421,162.171 69.711,180.926 100.866,180.926 C133.322,180.926 161.792,151.289 161.792,117.515 C161.792,85.787 131.949,58.980 96.628,58.980 C96.628,58.980 70.996,58.203 70.996,58.203 C70.996,58.203 70.039,22.206 70.039,22.206 Z" id="path-1" class="cls-3" fill-rule="evenodd"/>
    <path d="M74.060,58.980 C74.060,58.980 74.060,77.569 74.060,77.569 C74.060,79.238 73.163,80.760 71.709,81.577 C70.262,82.394 68.485,82.349 67.067,81.488 C67.067,81.488 6.805,44.507 6.805,44.507 C5.431,43.664 4.605,42.181 4.605,40.567 C4.624,38.959 5.467,37.469 6.850,36.643 C6.850,36.643 67.112,0.660 67.112,0.660 C68.529,-0.193 70.307,-0.221 71.735,0.606 C73.181,1.414 74.060,2.940 74.060,4.602 C74.060,4.602 74.060,22.206 74.060,22.206 C74.060,22.206 74.060,58.980 74.060,58.980 Z" id="path-2" class="cls-3" fill-rule="evenodd"/>
    <path d="M81.718,58.529 C81.718,58.529 91.514,22.206 91.514,22.206 C91.514,22.206 74.060,22.206 74.060,22.206 C74.060,22.206 74.060,58.297 74.060,58.297 C74.060,58.297 81.718,58.529 81.718,58.529 Z" id="path-3" class="cls-5" fill-rule="evenodd"/>
  </g>
</svg>
