<svg xmlns="http://www.w3.org/2000/svg" xmlns:xlink="http://www.w3.org/1999/xlink" preserveAspectRatio="xMidYMid" width="216" height="191" viewBox="0 0 216 191">
  <defs>
    <style>

      .cls-3 {
        fill: #0cb04a;
      }

      .cls-4 {
        fill: #060606;
        opacity: 0.35;
      }

      .cls-6 {
        fill: #142a3b;
      }

      .cls-7 {
        fill: #ededed;
      }
    </style>
  </defs>
  <g id="group-31svg">
    <path d="M211.130,191.059 C211.130,191.059 4.427,191.059 4.427,191.059 C1.987,191.059 0.009,189.081 0.009,186.641 C0.009,186.641 0.009,115.676 0.009,115.676 C0.009,113.236 1.987,111.258 4.427,111.258 C4.427,111.258 211.130,111.258 211.130,111.258 C213.571,111.258 215.548,113.236 215.548,115.676 C215.548,115.676 215.548,186.641 215.548,186.641 C215.548,189.081 213.571,191.059 211.130,191.059 Z" id="path-1" class="cls-3" fill-rule="evenodd"/>
    <path d="M198.899,111.325 C199.483,113.060 199.873,114.885 199.873,116.816 C199.873,116.816 199.873,161.987 199.873,161.987 C199.873,171.551 192.121,179.303 182.557,179.303 C182.557,179.303 1.648,179.303 1.648,179.303 C1.420,179.303 1.208,179.245 0.982,179.235 C3.288,186.089 9.693,191.059 17.324,191.059 C17.324,191.059 198.233,191.059 198.233,191.059 C207.796,191.059 215.548,183.307 215.548,173.744 C215.548,173.744 215.548,128.573 215.548,128.573 C215.548,119.239 208.147,111.683 198.899,111.325 Z" id="path-2" class="cls-4" fill-rule="evenodd"/>
    <path d="M60.512,155.077 C60.512,162.365 54.604,168.274 47.315,168.274 C40.027,168.274 34.119,162.365 34.119,155.077 C34.119,147.789 40.027,141.880 47.315,141.880 C54.604,141.880 60.512,147.789 60.512,155.077 Z" id="path-3" class="cls-4" fill-rule="evenodd"/>
    <path d="M56.593,151.158 C56.593,158.446 50.685,164.355 43.396,164.355 C36.109,164.355 30.200,158.446 30.200,151.158 C30.200,143.870 36.109,137.962 43.396,137.962 C50.685,137.962 56.593,143.870 56.593,151.158 Z" id="path-4" class="cls-6" fill-rule="evenodd"/>
    <path d="M78.696,158.763 C78.696,158.763 72.479,158.763 72.479,158.763 C72.006,158.763 71.622,158.380 71.622,157.906 C71.622,157.906 71.622,143.405 71.622,143.405 C71.622,142.932 72.006,142.548 72.479,142.548 C72.479,142.548 78.696,142.548 78.696,142.548 C79.169,142.548 79.553,142.932 79.553,143.405 C79.553,143.405 79.553,157.906 79.553,157.906 C79.553,158.380 79.169,158.763 78.696,158.763 Z" id="path-5" class="cls-7" fill-rule="evenodd"/>
    <path d="M123.484,158.763 C123.484,158.763 117.267,158.763 117.267,158.763 C116.793,158.763 116.409,158.380 116.409,157.906 C116.409,157.906 116.409,143.405 116.409,143.405 C116.409,142.932 116.793,142.548 117.267,142.548 C117.267,142.548 123.484,142.548 123.484,142.548 C123.957,142.548 124.340,142.932 124.340,143.405 C124.340,143.405 124.340,157.906 124.340,157.906 C124.340,158.380 123.957,158.763 123.484,158.763 Z" id="path-6" class="cls-7" fill-rule="evenodd"/>
    <path d="M101.089,158.763 C101.089,158.763 94.873,158.763 94.873,158.763 C94.400,158.763 94.016,158.380 94.016,157.906 C94.016,157.906 94.016,143.405 94.016,143.405 C94.016,142.932 94.400,142.548 94.873,142.548 C94.873,142.548 101.089,142.548 101.089,142.548 C101.563,142.548 101.947,142.932 101.947,143.405 C101.947,143.405 101.947,157.906 101.947,157.906 C101.947,158.380 101.563,158.763 101.089,158.763 Z" id="path-7" class="cls-7" fill-rule="evenodd"/>
    <path d="M168.195,74.656 C168.195,74.656 159.797,74.656 159.797,74.656 C159.797,74.656 159.797,0.012 159.797,0.012 C159.797,0.012 168.195,0.012 168.195,0.012 C168.195,0.012 168.195,74.656 168.195,74.656 Z" id="path-8" class="cls-3" fill-rule="evenodd"/>
    <path d="M176.126,111.258 C176.126,111.258 151.867,111.258 151.867,111.258 C151.867,111.258 151.867,62.992 151.867,62.992 C151.867,62.992 176.126,62.992 176.126,62.992 C176.126,62.992 176.126,111.258 176.126,111.258 Z" id="path-9" class="cls-6" fill-rule="evenodd"/>
    <path d="M176.126,111.258 C176.126,111.258 151.867,111.258 151.867,111.258 C151.867,111.258 151.867,106.209 151.867,106.209 C151.867,106.209 176.126,98.372 176.126,98.372 C176.126,98.372 176.126,111.258 176.126,111.258 Z" id="path-10" class="cls-4" fill-rule="evenodd"/>
    <path d="M168.195,62.992 C168.195,62.992 159.797,62.992 159.797,62.992 C159.797,62.992 159.797,60.308 159.797,60.308 C159.797,60.308 168.195,57.625 168.195,57.625 C168.195,57.625 168.195,62.992 168.195,62.992 Z" id="path-11" class="cls-4" fill-rule="evenodd"/>
  </g>
</svg>
