<svg xmlns="http://www.w3.org/2000/svg" xmlns:xlink="http://www.w3.org/1999/xlink" preserveAspectRatio="xMidYMid" width="216" height="193" viewBox="0 0 216 193">
  <defs>
    <style>

      .cls-3 {
        fill: #ededed;
      }

      .cls-4 {
        fill: #000000;
        opacity: 0.35;
      }

      .cls-6 {
        fill: #2476ff;
      }
    </style>
  </defs>
  <g id="group-139svg">
    <path d="M178.611,183.171 C178.611,183.171 93.947,183.171 93.947,183.171 C85.497,183.171 73.395,172.438 73.395,164.940 C73.395,164.940 73.395,90.194 73.395,90.194 C73.395,88.538 74.290,87.007 75.742,86.192 C92.630,76.748 101.176,59.988 110.091,34.282 C110.091,34.282 110.091,9.655 110.091,9.655 C110.091,8.821 110.315,8.008 110.745,7.289 C113.531,2.648 118.244,-0.011 123.673,-0.011 C130.357,-0.011 137.130,3.876 142.263,10.659 C151.492,22.861 153.776,42.041 148.758,63.910 C148.758,63.910 187.408,63.910 187.408,63.910 C196.002,63.910 215.541,72.761 215.541,87.328 C215.541,92.139 214.976,99.459 211.921,103.733 C214.331,110.460 214.788,121.354 207.406,129.033 C208.015,141.988 204.745,151.403 197.874,156.553 C197.757,163.407 194.594,171.794 189.855,177.223 C186.459,181.111 182.571,183.171 178.611,183.171 Z" id="path-1" class="cls-3" fill-rule="evenodd"/>
    <path d="M211.921,103.733 C214.976,99.459 215.541,92.139 215.541,87.330 C215.541,79.687 210.156,73.641 203.804,69.597 C203.917,70.363 203.999,71.139 203.999,71.939 C203.999,76.751 203.434,84.071 200.379,88.344 C202.790,95.072 203.246,105.966 195.864,113.644 C196.473,126.598 193.203,136.015 186.332,141.166 C186.215,148.019 183.052,156.404 178.313,161.834 C174.917,165.723 171.029,167.783 167.069,167.783 C167.069,167.783 82.404,167.783 82.404,167.783 C79.610,167.783 76.419,166.593 73.395,164.750 C73.395,164.750 73.395,164.940 73.395,164.940 C73.395,172.438 85.497,183.171 93.947,183.171 C93.947,183.171 178.611,183.171 178.611,183.171 C182.571,183.171 186.459,181.111 189.855,177.223 C194.594,171.794 197.757,163.407 197.874,156.553 C204.745,151.403 208.015,141.988 207.406,129.033 C214.788,121.354 214.331,110.460 211.921,103.733 Z" id="path-2" class="cls-4" fill-rule="evenodd"/>
    <path d="M134.560,63.910 C134.560,63.910 148.453,63.910 148.453,63.910 C150.989,51.593 156.147,35.242 142.263,10.659 C140.642,7.788 138.034,5.849 135.653,4.148 C140.529,15.925 138.496,46.755 134.560,63.910 Z" id="path-3" class="cls-4" fill-rule="evenodd"/>
    <path d="M66.478,192.345 C66.478,192.345 16.091,192.345 16.091,192.345 C7.221,192.345 0.000,185.133 0.000,176.265 C0.000,176.265 0.000,79.991 0.000,79.991 C0.000,71.121 7.221,63.910 16.091,63.910 C16.091,63.910 66.478,63.910 66.478,63.910 C75.348,63.910 82.569,71.121 82.569,79.991 C82.569,79.991 82.569,176.265 82.569,176.265 C82.569,185.133 75.348,192.345 66.478,192.345 Z" id="path-4" class="cls-6" fill-rule="evenodd"/>
    <path d="M68.723,64.137 C70.152,66.538 71.027,69.306 71.027,72.297 C71.027,72.297 71.027,168.569 71.027,168.569 C71.027,177.440 63.806,184.650 54.936,184.650 C54.936,184.650 4.549,184.650 4.549,184.650 C3.780,184.650 3.044,184.528 2.304,184.423 C5.112,189.143 10.212,192.345 16.091,192.345 C16.091,192.345 66.478,192.345 66.478,192.345 C75.347,192.345 82.569,185.133 82.569,176.265 C82.569,176.265 82.569,79.991 82.569,79.991 C82.569,71.891 76.525,65.241 68.723,64.137 Z" id="path-5" class="cls-4" fill-rule="evenodd"/>
  </g>
</svg>
