<svg xmlns="http://www.w3.org/2000/svg" xmlns:xlink="http://www.w3.org/1999/xlink" preserveAspectRatio="xMidYMid" width="126" height="216" viewBox="0 0 126 216">
  <defs>
    <style>

      .cls-3 {
        fill: #ff3a2f;
      }

      .cls-4 {
        fill: #000000;
        opacity: 0.35;
      }

      .cls-5 {
        fill: #142a3b;
      }

      .cls-6 {
        fill: #2476ff;
      }

      .cls-7 {
        fill: #ffffff;
      }
    </style>
  </defs>
  <g id="group-99svg">
    <path d="M68.000,193.565 C68.000,193.565 68.000,168.566 68.000,168.566 C68.000,168.566 32.000,168.566 32.000,168.566 C32.000,168.566 32.000,193.565 32.000,193.565 C32.000,193.565 68.000,193.565 68.000,193.565 Z" id="path-1" class="cls-3" fill-rule="evenodd"/>
    <path d="M32.523,167.675 C32.523,167.675 32.552,171.554 32.552,171.554 C32.552,171.554 60.973,178.635 60.973,178.635 C60.973,178.635 60.944,192.460 60.944,192.460 C60.944,192.460 32.523,196.001 32.523,196.001 C32.523,196.001 32.523,196.001 32.523,196.001 C32.523,196.001 68.050,196.001 68.050,196.001 C68.050,196.001 68.050,167.675 68.050,167.675 C68.050,167.675 32.523,167.675 32.523,167.675 Z" id="path-2" class="cls-4" fill-rule="evenodd"/>
    <path d="M118.540,211.565 C118.540,211.565 104.171,211.565 104.171,211.565 C102.188,211.565 100.579,210.048 100.579,208.064 C100.579,206.081 102.188,204.565 104.171,204.565 C104.171,204.565 118.540,204.565 118.540,204.565 C120.524,204.565 122.133,206.081 122.133,208.064 C122.133,210.048 120.524,211.565 118.540,211.565 Z" id="path-3" class="cls-5" fill-rule="evenodd"/>
    <path d="M63.541,27.152 C63.541,27.152 63.541,-0.010 63.541,-0.010 C63.541,-0.010 38.673,-0.010 38.673,-0.010 C38.673,-0.010 38.673,27.152 38.673,27.152 C38.673,27.152 -8.962,117.381 22.724,162.684 C25.990,167.353 31.505,169.947 37.216,169.947 C37.216,169.947 71.663,169.947 71.663,169.947 C77.834,169.947 83.568,166.795 86.913,161.629 C116.422,116.048 63.541,27.152 63.541,27.152 Z" id="path-4" class="cls-6" fill-rule="evenodd"/>
    <path d="M26.577,149.368 C25.356,149.368 24.165,148.746 23.493,147.624 C8.732,123.008 20.013,86.729 32.076,60.630 C32.909,58.827 35.043,58.045 36.843,58.875 C38.644,59.707 39.430,61.842 38.597,63.644 C29.318,83.722 15.817,120.852 29.653,143.929 C30.674,145.630 30.121,147.837 28.420,148.856 C27.841,149.204 27.204,149.368 26.577,149.368 Z" id="path-5" class="cls-7" fill-rule="evenodd"/>
    <path d="M63.541,27.152 C63.541,27.152 63.541,-0.010 63.541,-0.010 C63.541,-0.010 52.883,-0.010 52.883,-0.010 C52.883,-0.010 52.883,23.612 52.883,23.612 C52.883,23.612 105.763,112.507 76.255,158.087 C72.910,163.255 67.176,166.405 61.005,166.405 C61.005,166.405 26.558,166.405 26.558,166.405 C26.498,166.405 26.439,166.396 26.379,166.395 C29.457,168.688 33.281,169.947 37.216,169.947 C37.216,169.947 71.663,169.947 71.663,169.947 C77.834,169.947 83.568,166.796 86.913,161.629 C116.422,116.048 63.541,27.152 63.541,27.152 Z" id="path-6" class="cls-4" fill-rule="evenodd"/>
    <path d="M108.000,215.564 C108.000,215.564 -0.000,215.564 -0.000,215.564 C-0.000,215.564 -0.000,193.565 -0.000,193.565 C-0.000,193.565 108.000,193.565 108.000,193.565 C108.000,193.565 108.000,215.564 108.000,215.564 Z" id="path-7" class="cls-5" fill-rule="evenodd"/>
    <path d="M86.447,193.434 C86.447,193.434 86.447,214.989 86.447,214.989 C86.447,214.989 107.764,214.989 107.764,214.989 C107.764,214.989 107.764,193.434 107.764,193.434 C107.764,193.434 86.447,193.434 86.447,193.434 Z" id="path-8" class="cls-4" fill-rule="evenodd"/>
    <path d="M65.000,168.566 C65.000,168.566 57.000,168.566 57.000,168.566 C57.000,168.566 57.000,128.567 57.000,128.567 C57.000,128.567 65.000,128.567 65.000,128.567 C65.000,128.567 65.000,168.566 65.000,168.566 Z" id="path-9" class="cls-5" fill-rule="evenodd"/>
    <path d="M50.000,168.566 C50.000,168.566 43.000,168.566 43.000,168.566 C43.000,168.566 43.000,128.567 43.000,128.567 C43.000,128.567 50.000,128.567 50.000,128.567 C50.000,128.567 50.000,168.566 50.000,168.566 Z" id="path-10" class="cls-5" fill-rule="evenodd"/>
    <path d="M122.500,215.101 C120.516,215.101 119.000,213.493 119.000,211.509 C119.000,211.509 119.000,204.325 119.000,204.325 C119.000,202.341 120.516,200.733 122.500,200.733 C124.483,200.733 126.000,202.341 126.000,204.325 C126.000,204.325 126.000,211.509 126.000,211.509 C126.000,213.493 124.483,215.101 122.500,215.101 Z" id="path-11" class="cls-5" fill-rule="evenodd"/>
  </g>
</svg>
