<svg xmlns="http://www.w3.org/2000/svg" xmlns:xlink="http://www.w3.org/1999/xlink" preserveAspectRatio="xMidYMid" width="216" height="204" viewBox="0 0 216 204">
  <defs>
    <style>

      .cls-3 {
        fill: #fbb713;
      }

      .cls-4 {
        fill: #060606;
        opacity: 0.35;
      }
    </style>
  </defs>
  <g id="group-162svg">
    <path d="M107.758,78.505 C61.649,78.505 27.184,126.048 27.184,168.554 C27.184,182.116 30.628,191.437 37.681,197.066 C45.143,203.027 55.576,203.785 63.823,203.785 C69.767,203.785 76.237,203.332 83.097,202.851 C98.908,201.749 116.626,201.749 132.428,202.851 C139.287,203.332 145.767,203.785 151.692,203.785 C169.817,203.785 188.331,199.601 188.331,168.554 C188.331,126.048 153.876,78.505 107.758,78.505 Z" id="path-1" class="cls-3" fill-rule="evenodd"/>
    <path d="M142.217,87.954 C158.695,105.563 168.736,129.946 168.736,152.878 C168.736,183.925 150.222,188.110 132.097,188.110 C126.173,188.110 119.693,187.657 112.833,187.176 C97.032,186.074 79.314,186.074 63.502,187.176 C56.643,187.657 50.173,188.110 44.229,188.110 C39.918,188.110 35.015,187.881 30.247,186.833 C31.981,191.051 34.430,194.470 37.682,197.066 C45.143,203.027 55.575,203.785 63.824,203.785 C69.767,203.785 76.237,203.332 83.097,202.851 C98.908,201.749 116.626,201.749 132.428,202.851 C139.287,203.332 145.767,203.785 151.692,203.785 C169.817,203.785 188.331,199.601 188.331,168.554 C188.331,137.567 170.009,103.926 142.217,87.954 Z" id="path-2" class="cls-4" fill-rule="evenodd"/>
    <path d="M41.764,104.813 C47.235,102.572 51.411,98.129 53.512,92.317 C56.288,84.642 55.307,75.376 50.818,66.897 C43.014,52.161 25.815,43.941 13.299,49.087 C7.819,51.328 3.653,55.780 1.542,61.602 C-1.234,69.266 -0.253,78.533 4.236,87.021 C10.392,98.647 22.066,106.461 33.276,106.461 C36.256,106.461 39.116,105.905 41.764,104.813 Z" id="path-3" class="cls-3" fill-rule="evenodd"/>
    <path d="M86.171,76.996 C87.373,76.996 88.577,76.876 89.780,76.636 C103.897,73.747 112.404,54.826 109.164,33.563 C105.934,12.338 91.826,-2.501 77.672,0.388 C63.546,3.266 55.049,22.179 58.289,43.450 C61.251,62.890 72.970,76.996 86.171,76.996 Z" id="path-4" class="cls-3" fill-rule="evenodd"/>
    <path d="M213.982,61.602 C211.881,55.790 207.697,51.328 202.225,49.087 C189.682,43.922 172.511,52.161 164.707,66.897 C160.217,75.385 159.236,84.652 162.013,92.317 C164.114,98.129 168.290,102.563 173.760,104.813 C176.408,105.896 179.269,106.451 182.258,106.451 C182.258,106.451 182.268,106.451 182.268,106.451 C193.468,106.451 205.123,98.638 211.279,87.021 C215.768,78.543 216.758,69.276 213.982,61.602 Z" id="path-5" class="cls-3" fill-rule="evenodd"/>
    <path d="M135.232,76.636 C136.436,76.876 137.639,76.996 138.833,76.996 C138.833,76.996 138.843,76.996 138.843,76.996 C152.024,76.996 163.753,62.890 166.725,43.450 C169.965,22.179 161.448,3.266 147.341,0.388 C133.169,-2.501 119.070,12.338 115.848,33.563 C112.590,54.826 121.106,73.747 135.232,76.636 Z" id="path-6" class="cls-3" fill-rule="evenodd"/>
    <path d="M50.818,66.898 C45.123,56.142 34.426,48.888 24.195,47.737 C30.190,51.108 35.569,56.383 39.061,62.978 C43.551,71.458 44.532,80.723 41.755,88.398 C39.654,94.211 35.478,98.654 30.008,100.894 C27.360,101.986 24.499,102.542 21.519,102.542 C20.672,102.542 19.822,102.412 18.973,102.325 C23.513,104.928 28.425,106.461 33.276,106.461 C36.256,106.461 39.117,105.905 41.764,104.813 C47.235,102.573 51.411,98.129 53.512,92.317 C56.288,84.643 55.307,75.376 50.818,66.898 Z" id="path-7" class="cls-4" fill-rule="evenodd"/>
    <path d="M109.164,33.563 C106.605,16.750 97.213,3.981 86.387,0.820 C91.769,6.813 95.854,15.515 97.408,25.726 C100.648,46.988 92.141,65.909 78.023,68.798 C76.821,69.039 75.617,69.159 74.414,69.159 C72.638,69.159 70.892,68.884 69.187,68.395 C74.004,73.799 79.914,76.996 86.171,76.996 C87.373,76.996 88.577,76.877 89.780,76.636 C103.897,73.747 112.404,54.826 109.164,33.563 Z" id="path-8" class="cls-4" fill-rule="evenodd"/>
    <path d="M213.982,61.601 C212.191,56.647 208.823,52.770 204.498,50.317 C205.118,51.413 205.702,52.541 206.144,53.764 C208.920,61.439 207.930,70.705 203.441,79.184 C197.286,90.801 185.630,98.614 174.430,98.614 C174.430,98.614 174.421,98.614 174.421,98.614 C171.431,98.614 168.570,98.059 165.922,96.975 C165.115,96.643 164.399,96.169 163.649,95.744 C165.971,99.853 169.436,103.035 173.760,104.813 C176.408,105.896 179.269,106.451 182.258,106.451 C182.258,106.451 182.268,106.451 182.268,106.451 C193.468,106.451 205.123,98.638 211.279,87.022 C215.768,78.543 216.758,69.277 213.982,61.601 Z" id="path-9" class="cls-4" fill-rule="evenodd"/>
    <path d="M156.412,5.043 C159.342,12.522 160.387,21.844 158.887,31.694 C155.915,51.133 144.187,65.240 131.005,65.240 C131.005,65.240 130.995,65.240 130.995,65.240 C129.802,65.240 128.598,65.120 127.394,64.879 C124.013,64.187 120.965,62.556 118.311,60.216 C121.708,68.889 127.649,75.085 135.232,76.636 C136.436,76.877 137.639,76.996 138.833,76.996 C138.833,76.996 138.843,76.996 138.843,76.996 C152.024,76.996 163.753,62.890 166.725,43.451 C169.190,27.268 164.839,12.474 156.412,5.043 Z" id="path-10" class="cls-4" fill-rule="evenodd"/>
  </g>
</svg>
