<svg xmlns="http://www.w3.org/2000/svg" xmlns:xlink="http://www.w3.org/1999/xlink" preserveAspectRatio="xMidYMid" width="151" height="216" viewBox="0 0 151 216">
  <defs>
    <style>

      .cls-3 {
        fill: #142a3b;
      }

      .cls-6 {
        fill: #2476ff;
      }

      .cls-7 {
        fill: #000000;
        opacity: 0.35;
      }
    </style>
  </defs>
  <g id="group-152svg">
    <path d="M75.628,177.231 C34.430,177.231 0.501,144.231 -0.004,103.670 C-0.004,103.670 -0.009,102.667 -0.009,102.667 C-0.009,99.690 2.402,97.278 5.379,97.278 C8.356,97.278 10.768,99.690 10.768,102.667 C10.768,102.667 10.773,103.535 10.773,103.535 C11.204,138.229 40.299,166.453 75.628,166.453 C113.256,166.453 139.923,143.305 140.476,110.157 C140.483,109.501 140.486,96.700 140.486,96.318 C140.486,93.341 142.898,90.930 145.875,90.930 C148.851,90.930 151.263,93.341 151.263,96.318 C151.263,96.709 151.259,109.938 151.253,110.342 C150.606,149.099 118.801,177.231 75.628,177.231 Z" id="path-1" class="cls-3" fill-rule="evenodd"/>
    <path d="M75.628,210.405 C72.651,210.405 70.239,207.992 70.239,205.016 C70.239,205.016 70.239,176.008 70.239,176.008 C70.239,173.031 72.651,170.620 75.628,170.620 C78.604,170.620 81.016,173.031 81.016,176.008 C81.016,176.008 81.016,205.016 81.016,205.016 C81.016,207.992 78.604,210.405 75.628,210.405 Z" id="path-2" class="cls-3" fill-rule="evenodd"/>
    <path d="M91.885,215.535 C91.885,215.535 59.369,215.535 59.369,215.535 C56.393,215.535 53.980,213.123 53.980,210.147 C53.980,207.170 56.393,204.758 59.369,204.758 C59.369,204.758 91.885,204.758 91.885,204.758 C94.861,204.758 97.273,207.170 97.273,210.147 C97.273,213.123 94.861,215.535 91.885,215.535 Z" id="path-3" class="cls-3" fill-rule="evenodd"/>
    <path d="M119.867,107.932 C119.867,131.967 100.060,151.451 75.627,151.451 C75.627,151.451 75.627,151.451 75.627,151.451 C51.194,151.451 31.387,131.967 31.387,107.932 C31.387,107.932 31.387,43.520 31.387,43.520 C31.387,19.486 51.194,0.002 75.627,0.002 C75.627,0.002 75.627,0.002 75.627,0.002 C100.060,0.002 119.867,19.486 119.867,43.520 C119.867,43.520 119.867,107.932 119.867,107.932 Z" id="path-4" class="cls-6" fill-rule="evenodd"/>
    <path d="M116.657,58.374 C116.657,58.374 96.913,58.374 96.913,58.374 C94.929,58.374 93.321,56.766 93.321,54.782 C93.321,52.799 94.929,51.189 96.913,51.189 C96.913,51.189 116.657,51.189 116.657,51.189 C118.641,51.189 120.250,52.799 120.250,54.782 C120.250,56.766 118.641,58.374 116.657,58.374 Z" id="path-5" class="cls-7" fill-rule="evenodd"/>
    <path d="M116.657,79.319 C116.657,79.319 96.913,79.319 96.913,79.319 C94.929,79.319 93.321,77.709 93.321,75.725 C93.321,73.743 94.929,72.134 96.913,72.134 C96.913,72.134 116.657,72.134 116.657,72.134 C118.641,72.134 120.250,73.743 120.250,75.725 C120.250,77.709 118.641,79.319 116.657,79.319 Z" id="path-6" class="cls-7" fill-rule="evenodd"/>
    <path d="M116.657,99.910 C116.657,99.910 96.913,99.910 96.913,99.910 C94.929,99.910 93.321,98.302 93.321,96.318 C93.321,94.336 94.929,92.727 96.913,92.727 C96.913,92.727 116.657,92.727 116.657,92.727 C118.641,92.727 120.250,94.336 120.250,96.318 C120.250,98.302 118.641,99.910 116.657,99.910 Z" id="path-7" class="cls-7" fill-rule="evenodd"/>
    <path d="M57.054,58.550 C57.054,58.550 37.310,58.550 37.310,58.550 C35.326,58.550 33.718,56.940 33.718,54.957 C33.718,52.973 35.326,51.364 37.310,51.364 C37.310,51.364 57.054,51.364 57.054,51.364 C59.038,51.364 60.646,52.973 60.646,54.957 C60.646,56.940 59.038,58.550 57.054,58.550 Z" id="path-8" class="cls-7" fill-rule="evenodd"/>
    <path d="M57.054,79.495 C57.054,79.495 37.310,79.495 37.310,79.495 C35.326,79.495 33.718,77.887 33.718,75.903 C33.718,73.920 35.326,72.311 37.310,72.311 C37.310,72.311 57.054,72.311 57.054,72.311 C59.038,72.311 60.646,73.920 60.646,75.903 C60.646,77.887 59.038,79.495 57.054,79.495 Z" id="path-9" class="cls-7" fill-rule="evenodd"/>
    <path d="M57.054,100.087 C57.054,100.087 37.310,100.087 37.310,100.087 C35.326,100.087 33.718,98.478 33.718,96.495 C33.718,94.512 35.326,92.903 37.310,92.903 C37.310,92.903 57.054,92.903 57.054,92.903 C59.038,92.903 60.646,94.512 60.646,96.495 C60.646,98.478 59.038,100.087 57.054,100.087 Z" id="path-10" class="cls-7" fill-rule="evenodd"/>
  </g>
</svg>
