<svg xmlns="http://www.w3.org/2000/svg" xmlns:xlink="http://www.w3.org/1999/xlink" preserveAspectRatio="xMidYMid" width="216" height="189" viewBox="0 0 216 189">
  <defs>
    <style>

      .cls-3 {
        fill: #fbb713;
      }

      .cls-4 {
        fill: #ededed;
      }

      .cls-5 {
        fill: #060606;
        opacity: 0.25;
      }

      .cls-7 {
        fill: #060606;
        opacity: 0.35;
      }
    </style>
  </defs>
  <g id="group-70svg">
    <path d="M150.384,42.614 C150.384,19.084 131.309,0.009 107.779,0.009 C84.249,0.009 65.174,19.084 65.174,42.614 C65.174,43.775 0.357,75.449 0.357,93.021 C0.357,116.549 48.433,124.443 107.953,124.443 C133.458,124.443 215.549,120.865 215.549,95.440 C215.549,77.869 150.384,43.775 150.384,42.614 Z" id="path-1" class="cls-3" fill-rule="evenodd"/>
    <path d="M77.380,34.256 C76.822,34.256 76.255,34.126 75.727,33.851 C73.966,32.937 73.280,30.767 74.196,29.009 C80.742,16.411 93.624,8.584 107.813,8.584 C109.796,8.584 111.405,10.193 111.405,12.177 C111.405,14.161 109.796,15.769 107.813,15.769 C96.315,15.769 85.876,22.112 80.570,32.320 C79.931,33.551 78.678,34.256 77.380,34.256 Z" id="path-2" class="cls-4" fill-rule="evenodd"/>
    <path d="M150.384,42.614 C150.384,19.083 131.309,0.009 107.779,0.009 C104.247,0.009 100.836,0.486 97.554,1.296 C116.135,5.882 129.934,22.615 129.934,42.614 C129.934,43.775 195.099,77.869 195.099,95.440 C195.099,118.444 127.908,123.561 96.217,124.329 C100.075,124.401 103.983,124.442 107.953,124.442 C133.458,124.442 215.549,120.865 215.549,95.440 C215.549,77.869 150.384,43.775 150.384,42.614 Z" id="path-3" class="cls-5" fill-rule="evenodd"/>
    <path d="M215.549,95.440 C215.549,112.852 167.472,129.173 107.953,129.173 C48.433,129.173 0.009,112.852 0.009,95.440 C0.009,78.029 48.260,63.915 107.779,63.915 C167.299,63.915 215.549,78.029 215.549,95.440 Z" id="path-4" class="cls-3" fill-rule="evenodd"/>
    <path d="M215.549,95.440 C215.549,112.852 167.472,129.173 107.953,129.173 C48.433,129.173 0.009,112.852 0.009,95.440 C0.009,78.029 48.260,63.915 107.779,63.915 C167.299,63.915 215.549,78.029 215.549,95.440 Z" id="path-5" class="cls-7" fill-rule="evenodd"/>
    <path d="M144.611,181.886 C118.902,191.315 93.837,189.510 69.104,181.886 C79.924,155.969 86.145,126.033 84.443,89.172 C97.890,85.433 112.514,84.636 129.273,89.172 C144.084,122.270 149.717,153.293 144.611,181.886 Z" id="path-6" class="cls-3" fill-rule="evenodd"/>
    <path d="M129.273,89.172 C112.514,84.636 97.890,85.433 84.443,89.172 C84.569,91.903 84.564,94.518 84.604,97.174 C95.157,95.596 106.504,96.002 119.048,99.397 C132.609,129.704 138.367,158.245 135.341,184.799 C138.422,183.979 141.511,183.023 144.612,181.886 C149.717,153.294 144.084,122.270 129.273,89.172 Z" id="path-7" class="cls-5" fill-rule="evenodd"/>
  </g>
</svg>
