<svg xmlns="http://www.w3.org/2000/svg" xmlns:xlink="http://www.w3.org/1999/xlink" preserveAspectRatio="xMidYMid" width="95" height="216" viewBox="0 0 95 216">
  <defs>
    <style>

      .cls-3 {
        fill: #142a3b;
      }

      .cls-4 {
        fill: #ff3a2f;
      }

      .cls-5 {
        fill: #000000;
        opacity: 0.35;
      }
    </style>
  </defs>
  <g id="group-91svg">
    <path d="M46.993,215.528 C21.631,215.528 0.998,194.894 0.998,169.533 C0.998,165.565 4.215,162.347 8.183,162.347 C12.151,162.347 15.368,165.565 15.368,169.533 C15.368,186.971 29.554,201.159 46.993,201.159 C64.432,201.159 78.621,186.971 78.621,169.533 C78.621,152.093 64.432,137.908 46.993,137.908 C46.993,137.908 39.809,137.908 39.809,137.908 C39.809,137.908 39.809,100.084 39.809,100.084 C39.809,96.117 43.025,92.899 46.993,92.899 C50.961,92.899 54.178,96.117 54.178,100.084 C54.178,100.084 54.178,124.098 54.178,124.098 C76.141,127.557 92.990,146.615 92.990,169.533 C92.990,194.894 72.355,215.528 46.993,215.528 Z" id="path-1" class="cls-3" fill-rule="evenodd"/>
    <path d="M93.976,106.212 C93.976,106.212 0.012,106.212 0.012,106.212 C0.012,106.212 0.012,-0.006 0.012,-0.006 C0.012,-0.006 93.976,-0.006 93.976,-0.006 C93.976,-0.006 93.976,106.212 93.976,106.212 Z" id="path-2" class="cls-4" fill-rule="evenodd"/>
    <path d="M81.576,-0.006 C81.576,-0.006 81.576,106.212 81.576,106.212 C81.576,106.212 93.976,106.212 93.976,106.212 C93.976,106.212 93.976,-0.006 93.976,-0.006 C93.976,-0.006 81.576,-0.006 81.576,-0.006 Z" id="path-3" class="cls-5" fill-rule="evenodd"/>
    <path d="M61.221,33.582 C61.221,33.582 32.766,33.582 32.766,33.582 C32.766,33.582 18.539,58.223 18.539,58.223 C18.539,58.223 32.766,82.864 32.766,82.864 C32.766,82.864 61.221,82.864 61.221,82.864 C61.221,82.864 75.448,58.223 75.448,58.223 C75.448,58.223 61.221,33.582 61.221,33.582 ZM55.027,73.530 C55.027,73.530 38.961,73.530 38.961,73.530 C38.961,73.530 30.927,58.223 30.927,58.223 C30.927,58.223 38.961,42.916 38.961,42.916 C38.961,42.916 55.027,42.916 55.027,42.916 C55.027,42.916 63.060,58.223 63.060,58.223 C63.060,58.223 55.027,73.530 55.027,73.530 Z" id="path-4" class="cls-3" fill-rule="evenodd"/>
    <path d="M38.961,42.916 C38.961,42.916 30.927,58.223 30.927,58.223 C30.927,58.223 38.961,73.530 38.961,73.530 C38.961,73.530 45.088,73.530 45.088,73.530 C45.088,73.530 37.055,58.223 37.055,58.223 C37.055,58.223 45.088,42.916 45.088,42.916 C45.088,42.916 38.961,42.916 38.961,42.916 Z" id="path-5" class="cls-5" fill-rule="evenodd"/>
    <path d="M67.349,33.581 C67.349,33.581 61.221,33.581 61.221,33.581 C61.221,33.581 75.448,58.223 75.448,58.223 C75.448,58.223 61.221,82.865 61.221,82.865 C61.221,82.865 67.349,82.865 67.349,82.865 C67.349,82.865 81.576,58.223 81.576,58.223 C81.576,58.223 67.349,33.581 67.349,33.581 Z" id="path-6" class="cls-5" fill-rule="evenodd"/>
  </g>
</svg>
