<svg xmlns="http://www.w3.org/2000/svg" xmlns:xlink="http://www.w3.org/1999/xlink" preserveAspectRatio="xMidYMid" width="216" height="170" viewBox="0 0 216 170">
  <defs>
    <style>

      .cls-3 {
        fill: #ff3a2f;
      }

      .cls-4 {
        fill: #000000;
        opacity: 0.35;
      }
    </style>
  </defs>
  <g id="group-166svg">
    <path d="M209.133,85.761 C213.195,77.746 215.535,68.710 215.535,59.109 C215.535,26.471 189.075,0.011 156.435,0.011 C136.237,0.011 118.424,10.158 107.765,25.617 C97.106,10.158 79.293,0.011 59.095,0.011 C26.455,0.011 -0.005,26.471 -0.005,59.109 C-0.005,70.501 3.274,81.104 8.859,90.129 C22.498,116.974 56.036,143.320 108.474,169.194 C144.527,150.387 174.294,128.030 197.222,101.809 C200.694,98.491 209.133,85.761 209.133,85.761 Z" id="path-1" class="cls-3" fill-rule="evenodd"/>
    <path d="M101.029,33.737 C103.033,30.831 105.289,28.115 107.765,25.617 C94.047,6.526 75.497,0.012 59.095,0.012 C56.831,0.012 54.606,0.168 52.409,0.415 C69.774,2.404 91.581,20.035 101.029,33.737 Z" id="path-2" class="cls-4" fill-rule="evenodd"/>
    <path d="M156.435,0.012 C154.138,0.012 151.877,0.160 149.650,0.415 C179.137,3.739 202.063,28.734 202.063,59.110 C202.063,68.710 199.724,77.746 195.661,85.761 C195.661,85.761 187.223,98.491 183.750,101.809 C162.227,126.426 134.601,147.595 101.479,165.657 C103.787,166.838 106.089,168.016 108.474,169.194 C144.527,150.387 174.294,128.030 197.222,101.809 C200.694,98.491 209.133,85.761 209.133,85.761 C213.196,77.746 215.535,68.710 215.535,59.110 C215.535,26.471 189.075,0.012 156.435,0.012 Z" id="path-3" class="cls-4" fill-rule="evenodd"/>
  </g>
</svg>
