<svg xmlns="http://www.w3.org/2000/svg" xmlns:xlink="http://www.w3.org/1999/xlink" preserveAspectRatio="xMidYMid" width="216" height="106" viewBox="0 0 216 106">
  <defs>
    <style>

      .cls-3 {
        fill: #fbb713;
      }

      .cls-5 {
        fill: #ededed;
      }

      .cls-6 {
        fill: #060606;
        opacity: 0.25;
      }
    </style>
  </defs>
  <g id="group-17svg">
    <path d="M213.879,105.507 C213.879,105.507 1.680,105.507 1.680,105.507 C0.758,105.507 0.010,104.759 0.010,103.837 C0.010,103.837 0.010,94.037 0.010,94.037 C0.010,93.114 0.758,92.367 1.680,92.367 C1.680,92.367 213.879,92.367 213.879,92.367 C214.802,92.367 215.550,93.114 215.550,94.037 C215.550,94.037 215.550,103.837 215.550,103.837 C215.550,104.759 214.802,105.507 213.879,105.507 Z" id="path-1" class="cls-3" fill-rule="evenodd"/>
    <path d="M199.067,92.367 C196.051,44.565 156.345,6.721 107.780,6.721 C59.215,6.721 19.509,44.565 16.493,92.367 C16.493,92.367 199.067,92.367 199.067,92.367 Z" id="path-2" class="cls-3" fill-rule="evenodd"/>
    <path d="M34.346,67.257 C33.829,67.257 33.305,67.147 32.809,66.912 C31.016,66.061 30.251,63.920 31.101,62.126 C38.792,45.897 51.983,32.719 68.241,25.025 C70.034,24.179 72.177,24.938 73.025,26.735 C73.873,28.527 73.109,30.668 71.314,31.517 C56.552,38.506 44.575,50.467 37.594,65.204 C36.980,66.500 35.689,67.257 34.346,67.257 Z" id="path-3" class="cls-5" fill-rule="evenodd"/>
    <path d="M136.391,11.375 C158.641,26.859 173.162,45.927 174.973,74.636 C174.973,74.636 17.346,84.460 17.346,84.460 C16.595,88.309 16.746,88.362 16.493,92.367 C16.493,92.367 199.067,92.367 199.067,92.367 C196.672,54.414 171.113,22.817 136.391,11.375 Z" id="path-4" class="cls-6" fill-rule="evenodd"/>
    <path d="M98.871,52.185 C102.823,52.185 106.027,48.981 106.027,45.028 C106.027,45.028 106.027,7.142 106.027,7.142 C106.027,7.027 105.999,6.921 105.993,6.808 C101.130,6.901 96.363,7.370 91.714,8.194 C91.714,8.194 91.714,45.028 91.714,45.028 C91.714,48.981 94.919,52.185 98.871,52.185 Z" id="path-5" class="cls-6" fill-rule="evenodd"/>
    <path d="M134.141,52.185 C138.093,52.185 141.297,48.981 141.297,45.028 C141.297,45.028 141.297,13.096 141.297,13.096 C136.699,11.283 131.912,9.856 126.984,8.802 C126.984,8.802 126.984,45.028 126.984,45.028 C126.984,48.981 130.189,52.185 134.141,52.185 Z" id="path-6" class="cls-6" fill-rule="evenodd"/>
    <path d="M131.640,52.185 C131.640,52.185 120.966,52.185 120.966,52.185 C119.961,52.185 119.146,51.370 119.146,50.366 C119.146,50.366 119.146,1.805 119.146,1.805 C119.146,0.800 119.961,-0.014 120.966,-0.014 C120.966,-0.014 131.640,-0.014 131.640,-0.014 C132.645,-0.014 133.460,0.800 133.460,1.805 C133.460,1.805 133.460,50.366 133.460,50.366 C133.460,51.370 132.645,52.185 131.640,52.185 Z" id="path-7" class="cls-3" fill-rule="evenodd"/>
    <path d="M94.595,52.185 C94.595,52.185 83.920,52.185 83.920,52.185 C82.915,52.185 82.100,51.370 82.100,50.366 C82.100,50.366 82.100,1.805 82.100,1.805 C82.100,0.800 82.915,-0.014 83.920,-0.014 C83.920,-0.014 94.595,-0.014 94.595,-0.014 C95.599,-0.014 96.414,0.800 96.414,1.805 C96.414,1.805 96.414,50.366 96.414,50.366 C96.414,51.370 95.599,52.185 94.595,52.185 Z" id="path-8" class="cls-3" fill-rule="evenodd"/>
    <path d="M6.580,105.507 C6.580,105.507 208.980,105.507 208.980,105.507 C212.609,105.507 215.550,102.565 215.550,98.937 C215.550,98.937 0.010,98.937 0.010,98.937 C0.010,102.565 2.952,105.507 6.580,105.507 Z" id="path-9" class="cls-6" fill-rule="evenodd"/>
  </g>
</svg>
