<svg xmlns="http://www.w3.org/2000/svg" xmlns:xlink="http://www.w3.org/1999/xlink" preserveAspectRatio="xMidYMid" width="216" height="183" viewBox="0 0 216 183">
  <defs>
    <style>

      .cls-3 {
        fill: #142a3b;
      }

      .cls-4 {
        fill: #010101;
        opacity: 0.35;
      }

      .cls-7 {
        fill: #ffffff;
      }

      .cls-8 {
        fill: #010101;
        opacity: 0.25;
      }
    </style>
  </defs>
  <g id="group-73svg">
    <path d="M129.782,179.386 C129.782,179.386 85.776,179.386 85.776,179.386 C85.776,179.386 85.776,152.332 85.776,152.332 C85.776,152.332 129.782,152.332 129.782,152.332 C129.782,152.332 129.782,179.386 129.782,179.386 Z" id="path-1" class="cls-3" fill-rule="evenodd"/>
    <path d="M85.776,152.332 C85.776,152.332 85.776,155.924 85.776,155.924 C85.776,155.924 122.597,163.109 122.597,163.109 C122.597,163.109 122.597,170.852 122.597,170.852 C122.597,170.852 85.776,175.793 85.776,175.793 C85.776,175.793 129.782,175.792 129.782,175.792 C129.782,175.792 129.782,152.332 129.782,152.332 C129.782,152.332 85.776,152.332 85.776,152.332 Z" id="path-2" class="cls-4" fill-rule="evenodd"/>
    <path d="M215.549,156.260 C215.549,156.260 0.009,156.260 0.009,156.260 C0.009,156.260 0.009,-0.001 0.009,-0.001 C0.009,-0.001 215.549,-0.001 215.549,-0.001 C215.549,-0.001 215.549,156.260 215.549,156.260 Z" id="path-3" class="cls-3" fill-rule="evenodd"/>
    <path d="M208.364,-0.002 C208.364,-0.002 208.364,149.075 208.364,149.075 C208.364,149.075 0.009,149.075 0.009,149.075 C0.009,149.075 0.009,156.260 0.009,156.260 C0.009,156.260 215.549,156.260 215.549,156.260 C215.549,156.260 215.549,-0.002 215.549,-0.002 C215.549,-0.002 208.364,-0.002 208.364,-0.002 Z" id="path-4" class="cls-4" fill-rule="evenodd"/>
    <path d="M195.791,137.445 C195.791,137.445 19.767,137.445 19.767,137.445 C19.767,137.445 19.767,18.814 19.767,18.814 C19.767,18.814 195.791,18.814 195.791,18.814 C195.791,18.814 195.791,137.445 195.791,137.445 Z" id="path-5" class="cls-7" fill-rule="evenodd"/>
    <path d="M26.952,25.997 C26.952,25.997 195.791,25.997 195.791,25.997 C195.791,25.997 195.791,18.814 195.791,18.814 C195.791,18.814 19.767,18.814 19.767,18.814 C19.767,18.814 19.767,137.445 19.767,137.445 C19.767,137.445 26.952,137.445 26.952,137.445 C26.952,137.445 26.952,25.997 26.952,25.997 Z" id="path-6" class="cls-8" fill-rule="evenodd"/>
    <path d="M151.336,181.855 C151.336,181.855 64.222,181.855 64.222,181.855 C64.222,181.855 64.222,176.466 64.222,176.466 C64.222,176.466 151.336,176.466 151.336,176.466 C151.336,176.466 151.336,181.855 151.336,181.855 Z" id="path-7" class="cls-3" fill-rule="evenodd"/>
  </g>
</svg>
