<svg xmlns="http://www.w3.org/2000/svg" xmlns:xlink="http://www.w3.org/1999/xlink" preserveAspectRatio="xMidYMid" width="216" height="186" viewBox="0 0 216 186">
  <defs>
    <style>

      .cls-3 {
        fill: #0cb04a;
      }

      .cls-4 {
        fill: #ededed;
      }

      .cls-5 {
        fill: #000000;
        opacity: 0.35;
      }

      .cls-6 {
        fill: #ff3a2f;
      }

      .cls-8 {
        fill: #142a3b;
      }
    </style>
  </defs>
  <g id="group-61svg">
    <path d="M199.390,126.222 C197.723,77.035 157.350,37.668 107.758,37.668 C58.165,37.668 17.793,77.035 16.126,126.222 C16.126,126.222 199.390,126.222 199.390,126.222 Z" id="path-1" class="cls-3" fill-rule="evenodd"/>
    <path d="M45.081,90.960 C44.565,90.960 44.041,90.850 43.544,90.615 C41.751,89.766 40.987,87.624 41.836,85.830 C52.400,63.526 75.163,49.115 99.827,49.115 C101.811,49.115 103.419,50.724 103.419,52.708 C103.419,54.691 101.811,56.300 99.827,56.300 C77.926,56.300 57.712,69.098 48.329,88.907 C47.716,90.202 46.424,90.960 45.081,90.960 Z" id="path-2" class="cls-4" fill-rule="evenodd"/>
    <path d="M118.332,38.296 C129.666,44.934 139.448,53.937 147.000,64.627 C161.747,85.501 146.978,114.327 121.419,114.327 C121.419,114.327 17.329,114.327 17.329,114.327 C16.686,118.217 16.263,122.182 16.126,126.222 C16.126,126.222 199.390,126.222 199.390,126.222 C197.843,80.586 162.968,43.425 118.332,38.296 Z" id="path-3" class="cls-5" fill-rule="evenodd"/>
    <path d="M215.528,184.892 C215.528,184.892 -0.012,184.892 -0.012,184.892 C-0.012,184.892 -0.012,121.430 -0.012,121.430 C-0.012,121.430 215.528,121.430 215.528,121.430 C215.528,121.430 215.528,184.892 215.528,184.892 Z" id="path-4" class="cls-6" fill-rule="evenodd"/>
    <path d="M187.771,121.429 C187.771,121.429 187.771,128.929 187.771,128.929 C187.771,153.268 168.040,172.998 143.701,172.998 C143.701,172.998 -0.012,172.998 -0.012,172.998 C-0.012,172.998 -0.012,184.893 -0.012,184.893 C-0.012,184.893 215.528,184.893 215.528,184.893 C215.528,184.893 215.528,121.429 215.528,121.429 C215.528,121.429 187.771,121.429 187.771,121.429 Z" id="path-5" class="cls-5" fill-rule="evenodd"/>
    <path d="M126.921,19.163 C126.921,29.745 118.341,38.325 107.758,38.325 C97.175,38.325 88.595,29.745 88.595,19.163 C88.595,8.580 97.175,0.000 107.758,0.000 C118.341,0.000 126.921,8.580 126.921,19.163 Z" id="path-6" class="cls-8" fill-rule="evenodd"/>
    <path d="M104.685,15.198 C104.685,17.879 102.511,20.055 99.827,20.055 C97.145,20.055 94.970,17.879 94.970,15.198 C94.970,12.515 97.145,10.341 99.827,10.341 C102.511,10.341 104.685,12.515 104.685,15.198 Z" id="path-7" class="cls-4" fill-rule="evenodd"/>
    <path d="M111.994,0.506 C116.233,4.021 118.990,9.261 118.990,15.197 C118.990,25.781 110.411,34.360 99.827,34.360 C98.367,34.360 96.959,34.164 95.592,33.854 C98.909,36.606 103.112,38.325 107.758,38.325 C118.341,38.325 126.921,29.745 126.921,19.163 C126.921,10.040 120.532,2.439 111.994,0.506 Z" id="path-8" class="cls-5" fill-rule="evenodd"/>
  </g>
</svg>
