<svg xmlns="http://www.w3.org/2000/svg" xmlns:xlink="http://www.w3.org/1999/xlink" preserveAspectRatio="xMidYMid" width="216" height="175" viewBox="0 0 216 175">
  <defs>
    <style>

      .cls-3 {
        fill: #2476ff;
      }

      .cls-4 {
        fill: #000000;
        opacity: 0.35;
      }

      .cls-5 {
        fill: #fbb713;
      }

      .cls-6 {
        fill: #142a3b;
      }

      .cls-7 {
        fill: #ededed;
      }
    </style>
  </defs>
  <g id="group-76svg">
    <path d="M211.556,72.821 C206.216,67.480 197.557,67.480 192.217,72.821 C192.217,72.821 183.672,81.365 183.672,81.365 C183.672,81.365 183.672,43.616 183.672,43.616 C183.672,19.520 162.097,-0.013 135.483,-0.013 C108.869,-0.013 87.294,19.520 87.294,43.616 C87.294,43.616 87.294,152.362 87.294,152.362 C87.294,152.362 183.672,152.362 183.672,152.362 C183.672,152.362 211.556,92.160 211.556,92.160 C216.897,86.819 216.897,78.161 211.556,72.821 Z" id="path-1" class="cls-3" fill-rule="evenodd"/>
    <path d="M186.928,145.334 C186.928,145.334 183.672,152.362 183.672,152.362 C183.672,152.362 87.294,152.362 87.294,152.362 C87.294,152.362 87.294,153.341 87.294,153.341 C87.294,153.341 186.928,145.334 186.928,145.334 Z" id="path-2" class="cls-4" fill-rule="evenodd"/>
    <path d="M190.184,167.990 C190.184,167.990 80.131,167.990 80.131,167.990 C80.131,167.990 80.131,152.362 80.131,152.362 C80.131,152.362 190.184,152.362 190.184,152.362 C190.184,152.362 190.184,167.990 190.184,167.990 Z" id="path-3" class="cls-5" fill-rule="evenodd"/>
    <path d="M12.848,122.443 C12.848,114.890 18.971,108.768 26.523,108.767 C26.523,108.767 38.607,108.768 38.607,108.768 C38.607,108.768 11.914,82.075 11.914,82.075 C-5.125,65.037 -3.682,35.969 15.137,17.150 C33.956,-1.667 63.024,-3.110 80.063,13.929 C80.063,13.929 156.961,90.823 156.961,90.823 C156.961,90.823 88.812,158.970 88.812,158.970 C88.812,158.970 26.523,136.116 26.523,136.116 C18.971,136.116 12.848,129.995 12.848,122.443 Z" id="path-4" class="cls-6" fill-rule="evenodd"/>
    <path d="M22.620,32.184 C21.701,32.184 20.781,31.833 20.080,31.131 C18.677,29.729 18.677,27.456 20.080,26.052 C36.964,9.162 63.256,7.966 78.681,23.397 C80.085,24.800 80.085,27.073 78.681,28.477 C77.278,29.880 75.005,29.880 73.601,28.477 C60.981,15.857 39.248,17.045 25.159,31.131 C24.458,31.833 23.539,32.184 22.620,32.184 Z" id="path-5" class="cls-7" fill-rule="evenodd"/>
    <path d="M171.291,52.758 C169.307,52.758 167.698,51.150 167.698,49.167 C167.698,31.316 151.489,16.793 131.565,16.793 C129.581,16.793 127.973,15.184 127.973,13.201 C127.973,11.217 129.581,9.609 131.565,9.609 C155.450,9.609 174.883,27.355 174.883,49.167 C174.883,51.150 173.275,52.758 171.291,52.758 Z" id="path-6" class="cls-7" fill-rule="evenodd"/>
    <path d="M150.210,84.073 C150.210,84.073 156.961,90.823 156.961,90.823 C156.961,90.823 88.812,158.970 88.812,158.970 C88.812,158.970 88.812,158.970 88.812,158.970 C88.812,158.970 150.210,84.073 150.210,84.073 Z" id="path-7" class="cls-4" fill-rule="evenodd"/>
    <path d="M34.361,136.116 C26.809,136.116 20.686,129.995 20.686,122.442 C20.686,114.891 26.808,108.769 34.360,108.767 C34.360,108.767 26.523,108.767 26.523,108.767 C18.971,108.767 12.848,114.890 12.848,122.442 C12.848,129.995 18.971,136.116 26.523,136.116 C26.523,136.116 88.812,158.970 88.812,158.970 C88.812,158.970 90.916,156.867 90.916,156.867 C90.916,156.867 34.361,136.116 34.361,136.116 Z" id="path-8" class="cls-4" fill-rule="evenodd"/>
    <path d="M46.445,108.767 C46.445,108.767 19.751,82.075 19.751,82.075 C2.713,65.037 4.156,35.969 22.975,17.150 C31.940,8.186 43.231,3.213 54.441,2.254 C40.813,1.076 26.206,6.082 15.137,17.150 C-3.682,35.969 -5.125,65.037 11.914,82.075 C11.914,82.075 38.607,108.767 38.607,108.767 C38.607,108.767 46.445,108.767 46.445,108.767 Z" id="path-9" class="cls-4" fill-rule="evenodd"/>
    <path d="M95.258,174.626 C95.258,174.626 173.078,96.809 173.078,96.809 C173.078,96.809 162.026,85.759 162.026,85.759 C162.026,85.759 84.207,163.575 84.207,163.575 C84.207,163.575 95.258,174.626 95.258,174.626 Z" id="path-10" class="cls-5" fill-rule="evenodd"/>
    <path d="M173.078,96.962 C173.078,96.962 102.148,167.892 102.148,167.892 C102.148,167.892 108.108,167.990 108.108,167.990 C108.108,167.990 178.062,97.617 178.062,97.617 C178.062,97.617 162.026,85.759 162.026,85.759 C162.026,85.759 173.078,96.962 173.078,96.962 Z" id="path-11" class="cls-4" fill-rule="evenodd"/>
    <path d="M160.684,87.119 C160.684,87.119 156.988,90.815 156.988,90.815 C156.988,90.815 91.731,25.560 91.731,25.560 C91.731,25.560 93.051,22.927 93.051,22.927 C93.051,22.927 160.684,87.119 160.684,87.119 Z" id="path-12" class="cls-4" fill-rule="evenodd"/>
  </g>
</svg>
