<svg xmlns="http://www.w3.org/2000/svg" xmlns:xlink="http://www.w3.org/1999/xlink" preserveAspectRatio="xMidYMid" width="216" height="192" viewBox="0 0 216 192">
  <defs>
    <style>

      .cls-3 {
        fill: #142a3b;
      }

      .cls-4 {
        fill: #fbb713;
      }

      .cls-7 {
        fill: #000000;
        opacity: 0.35;
      }

      .cls-8 {
        fill: #ededed;
      }

      .cls-9 {
        fill: #000000;
        opacity: 0.25;
      }
    </style>
  </defs>
  <g id="group-111svg">
    <path d="M107.785,192.095 C105.800,192.095 104.192,190.485 104.192,188.502 C104.192,188.502 104.192,169.652 104.192,169.652 C104.192,167.668 105.800,166.060 107.785,166.060 C109.768,166.060 111.376,167.668 111.376,169.652 C111.376,169.652 111.376,188.502 111.376,188.502 C111.376,190.485 109.768,192.095 107.785,192.095 Z" id="path-1" class="cls-3" fill-rule="evenodd"/>
    <path d="M215.553,132.782 C215.553,132.782 215.553,154.680 215.553,154.680 C215.553,162.948 209.262,169.652 201.496,169.652 C201.496,169.652 14.071,169.652 14.071,169.652 C6.305,169.652 0.013,162.948 0.013,154.680 C0.013,154.680 0.013,132.782 0.013,132.782 C0.013,132.782 215.553,132.782 215.553,132.782 Z" id="path-2" class="cls-4" fill-rule="evenodd"/>
    <path d="M173.383,192.095 C173.383,192.095 42.183,192.095 42.183,192.095 C40.200,192.095 38.592,190.485 38.592,188.502 C38.592,186.518 40.200,184.911 42.183,184.911 C42.183,184.911 173.383,184.911 173.383,184.911 C175.367,184.911 176.975,186.518 176.975,188.502 C176.975,190.485 175.367,192.095 173.383,192.095 Z" id="path-3" class="cls-3" fill-rule="evenodd"/>
    <path d="M114.226,150.801 C114.226,154.376 111.341,157.279 107.783,157.279 C104.222,157.279 101.340,154.376 101.340,150.801 C101.340,147.219 104.222,144.320 107.783,144.320 C111.341,144.320 114.226,147.219 114.226,150.801 Z" id="path-4" class="cls-3" fill-rule="evenodd"/>
    <path d="M113.682,148.205 C114.028,149.000 114.226,149.875 114.226,150.801 C114.226,154.376 111.341,157.279 107.783,157.279 C106.885,157.279 106.031,157.093 105.255,156.759 C106.250,159.042 108.511,160.644 111.152,160.644 C114.709,160.644 117.594,157.739 117.594,154.164 C117.594,151.487 115.981,149.194 113.682,148.205 Z" id="path-5" class="cls-7" fill-rule="evenodd"/>
    <path d="M215.553,135.828 C215.553,135.828 215.553,14.961 215.553,14.961 C215.553,6.692 209.262,-0.010 201.496,-0.010 C201.496,-0.010 14.071,-0.010 14.071,-0.010 C6.305,-0.010 0.013,6.692 0.013,14.961 C0.013,14.961 0.013,135.828 0.013,135.828 C0.013,135.828 215.553,135.828 215.553,135.828 Z" id="path-6" class="cls-8" fill-rule="evenodd"/>
    <path d="M198.715,135.828 C198.715,135.828 198.715,155.916 198.715,155.916 C198.715,163.501 192.422,169.652 184.657,169.652 C184.657,169.652 201.496,169.652 201.496,169.652 C209.262,169.652 215.553,163.501 215.553,155.916 C215.553,155.916 215.553,135.828 215.553,135.828 C215.553,135.828 198.715,135.828 198.715,135.828 Z" id="path-7" class="cls-9" fill-rule="evenodd"/>
    <path d="M201.496,-0.010 C201.496,-0.010 196.379,-0.010 196.379,-0.010 C197.848,2.356 198.715,5.185 198.715,8.233 C198.715,8.233 198.715,129.100 198.715,129.100 C198.715,129.100 0.013,129.100 0.013,129.100 C0.013,129.100 0.013,135.828 0.013,135.828 C0.013,135.828 215.553,135.828 215.553,135.828 C215.553,135.828 215.553,14.961 215.553,14.961 C215.553,6.692 209.262,-0.010 201.496,-0.010 Z" id="path-8" class="cls-9" fill-rule="evenodd"/>
  </g>
</svg>
