<svg xmlns="http://www.w3.org/2000/svg" xmlns:xlink="http://www.w3.org/1999/xlink" preserveAspectRatio="xMidYMid" width="216" height="220" viewBox="0 0 216 220">
  <defs>
    <style>

      .cls-3 {
        fill: #142a3b;
      }

      .cls-4 {
        fill: #fbb713;
      }

      .cls-5 {
        fill: #000000;
        opacity: 0.25;
      }
    </style>
  </defs>
  <g id="group-124svg">
    <path d="M211.958,219.054 C211.028,219.054 210.100,218.698 209.397,217.981 C209.397,217.981 83.218,89.687 83.218,89.687 C81.827,88.273 81.846,85.998 83.260,84.607 C84.674,83.214 86.948,83.233 88.340,84.649 C88.340,84.649 214.519,212.945 214.519,212.945 C215.910,214.359 215.890,216.635 214.477,218.023 C213.777,218.711 212.867,219.054 211.958,219.054 Z" id="path-1" class="cls-3" fill-rule="evenodd"/>
    <path d="M17.220,17.511 C17.220,17.511 68.851,35.009 68.851,35.009 C68.851,35.009 103.271,0.014 103.271,0.014 C103.271,0.014 97.534,52.508 97.534,52.508 C97.534,52.508 149.165,81.671 149.165,81.671 C149.165,81.671 93.223,94.787 93.223,94.787 C93.223,94.787 80.324,151.663 80.324,151.663 C80.324,151.663 51.641,99.169 51.641,99.169 C51.641,99.169 0.010,105.002 0.010,105.002 C0.010,105.002 34.430,70.005 34.430,70.005 C34.430,70.005 17.220,17.511 17.220,17.511 Z" id="path-2" class="cls-4" fill-rule="evenodd"/>
    <path d="M90.461,45.388 C90.461,45.388 97.856,49.565 97.856,49.565 C97.856,49.565 103.271,0.014 103.271,0.014 C103.271,0.014 94.437,8.994 94.437,8.994 C94.437,8.994 90.461,45.388 90.461,45.388 Z" id="path-3" class="cls-5" fill-rule="evenodd"/>
    <path d="M138.182,75.468 C138.182,75.468 86.149,87.666 86.149,87.666 C86.149,87.666 74.184,140.427 74.184,140.427 C74.184,140.427 80.324,151.663 80.324,151.663 C80.324,151.663 93.223,94.787 93.223,94.787 C93.223,94.787 149.165,81.671 149.165,81.671 C149.165,81.671 138.182,75.468 138.182,75.468 Z" id="path-4" class="cls-5" fill-rule="evenodd"/>
    <path d="M44.567,92.049 C44.567,92.049 8.772,96.094 8.772,96.094 C8.772,96.094 0.010,105.002 0.010,105.002 C0.010,105.002 48.643,99.507 48.643,99.507 C48.643,99.507 44.567,92.049 44.567,92.049 Z" id="path-5" class="cls-5" fill-rule="evenodd"/>
  </g>
</svg>
