<svg xmlns="http://www.w3.org/2000/svg" xmlns:xlink="http://www.w3.org/1999/xlink" preserveAspectRatio="xMidYMid" width="200" height="216" viewBox="0 0 200 216">
  <defs>
    <style>

      .cls-3 {
        fill: #0cb04a;
      }

      .cls-4 {
        fill: #000000;
        opacity: 0.35;
      }

      .cls-5 {
        fill: #fbb713;
      }

      .cls-6 {
        fill: #000000;
        opacity: 0.25;
      }

      .cls-7 {
        fill: #142a3b;
      }
    </style>
  </defs>
  <g id="group-102svg">
    <path d="M199.417,170.803 C199.417,170.803 146.112,170.803 146.112,170.803 C146.112,170.803 146.112,112.470 146.112,112.470 C146.112,112.470 199.417,112.470 199.417,112.470 C199.417,112.470 199.417,170.803 199.417,170.803 Z" id="path-1" class="cls-3" fill-rule="evenodd"/>
    <path d="M191.628,112.470 C191.628,112.470 191.628,163.024 191.628,163.024 C191.628,163.024 146.112,163.024 146.112,163.024 C146.112,163.024 146.112,170.803 146.112,170.803 C146.112,170.803 199.417,170.803 199.417,170.803 C199.417,170.803 199.417,112.470 199.417,112.470 C199.417,112.470 191.628,112.470 191.628,112.470 Z" id="path-2" class="cls-4" fill-rule="evenodd"/>
    <path d="M77.541,66.865 C77.541,66.865 28.786,66.865 28.786,66.865 C28.786,66.865 0.007,95.605 0.007,95.605 C0.007,95.605 0.007,215.524 0.007,215.524 C0.007,215.524 107.731,215.524 107.731,215.524 C107.731,215.524 107.731,97.011 107.731,97.011 C107.731,97.011 77.541,66.865 77.541,66.865 Z" id="path-3" class="cls-5" fill-rule="evenodd"/>
    <path d="M77.541,66.865 C77.541,66.865 28.786,66.865 28.786,66.865 C28.786,66.865 20.997,74.643 20.997,74.643 C20.997,74.643 61.964,74.643 61.964,74.643 C61.964,74.643 92.153,104.789 92.153,104.789 C92.153,104.789 92.153,215.524 92.153,215.524 C92.153,215.524 107.731,215.524 107.731,215.524 C107.731,215.524 107.731,97.011 107.731,97.011 C107.731,97.011 77.541,66.865 77.541,66.865 Z" id="path-4" class="cls-6" fill-rule="evenodd"/>
    <path d="M170.331,119.952 C168.347,119.952 166.739,118.344 166.739,116.359 C166.739,116.359 166.739,49.763 166.739,49.763 C166.739,26.281 147.604,7.176 124.084,7.176 C124.084,7.176 79.785,7.176 79.785,7.176 C66.466,7.176 55.629,17.993 55.629,31.290 C55.629,31.290 55.629,66.865 55.629,66.865 C55.629,68.848 54.021,70.457 52.037,70.457 C50.053,70.457 48.445,68.848 48.445,66.865 C48.445,66.865 48.445,31.290 48.445,31.290 C48.445,14.033 62.504,-0.008 79.785,-0.008 C79.785,-0.008 124.084,-0.008 124.084,-0.008 C151.566,-0.008 173.923,22.318 173.923,49.763 C173.923,49.763 173.923,116.359 173.923,116.359 C173.923,118.344 172.315,119.952 170.331,119.952 Z" id="path-5" class="cls-7" fill-rule="evenodd"/>
  </g>
</svg>
