<svg xmlns="http://www.w3.org/2000/svg" xmlns:xlink="http://www.w3.org/1999/xlink" preserveAspectRatio="xMidYMid" width="216" height="198" viewBox="0 0 216 198">
  <defs>
    <style>

      .cls-3 {
        fill: #2476ff;
      }

      .cls-4 {
        fill: #ff3a2f;
      }

      .cls-5 {
        fill: #000000;
        opacity: 0.35;
      }
    </style>
  </defs>
  <g id="group-135svg">
    <path d="M79.636,196.697 C79.636,196.697 40.631,196.697 40.631,196.697 C39.122,196.697 37.689,196.084 36.636,195.003 C36.636,195.003 1.584,158.781 1.584,158.781 C-0.522,156.599 -0.500,153.134 1.650,150.986 C1.650,150.986 151.018,1.610 151.018,1.610 C153.189,-0.560 156.708,-0.560 158.879,1.610 C158.879,1.610 213.932,56.651 213.932,56.651 C214.973,57.692 215.560,59.104 215.560,60.580 C215.560,62.058 214.973,63.468 213.932,64.511 C213.932,64.511 83.576,195.057 83.576,195.057 C82.534,196.106 81.112,196.697 79.636,196.697 Z" id="path-1" class="cls-3" fill-rule="evenodd"/>
    <path d="M125.945,152.506 C125.945,152.506 83.576,195.057 83.576,195.057 C82.534,196.106 81.112,196.697 79.636,196.697 C79.636,196.697 40.631,196.697 40.631,196.697 C39.122,196.697 37.689,196.084 36.636,195.003 C36.636,195.003 1.584,158.781 1.584,158.781 C-0.522,156.599 -0.500,153.134 1.650,150.986 C1.650,150.986 63.031,89.606 63.031,89.606 C63.031,89.606 125.945,152.506 125.945,152.506 Z" id="path-2" class="cls-4" fill-rule="evenodd"/>
    <path d="M213.932,56.651 C213.932,56.651 207.087,49.807 207.087,49.807 C207.087,49.807 79.265,177.815 79.265,177.815 C78.223,178.863 76.800,179.454 75.324,179.454 C75.324,179.454 36.320,179.454 36.320,179.454 C34.812,179.454 33.378,178.841 32.325,177.763 C32.325,177.763 4.072,148.564 4.072,148.564 C4.072,148.564 1.650,150.986 1.650,150.986 C-0.501,153.134 -0.522,156.599 1.584,158.781 C1.584,158.781 36.636,195.003 36.636,195.003 C37.689,196.084 39.122,196.697 40.631,196.697 C40.631,196.697 79.635,196.697 79.635,196.697 C81.111,196.697 82.534,196.106 83.576,195.057 C83.576,195.057 213.932,64.511 213.932,64.511 C214.973,63.468 215.561,62.058 215.561,60.580 C215.561,59.104 214.973,57.692 213.932,56.651 Z" id="path-3" class="cls-5" fill-rule="evenodd"/>
  </g>
</svg>
