<svg xmlns="http://www.w3.org/2000/svg" xmlns:xlink="http://www.w3.org/1999/xlink" preserveAspectRatio="xMidYMid" width="216" height="184" viewBox="0 0 216 184">
  <defs>
    <style>

      .cls-3 {
        fill: #ff3a2f;
      }

      .cls-4 {
        fill: #142a3b;
      }

      .cls-5 {
        fill: #060606;
        opacity: 0.35;
      }
    </style>
  </defs>
  <g id="group-28svg">
    <path d="M6.737,0.576 C5.351,-0.231 3.632,-0.231 2.246,0.576 C0.861,1.375 0.001,2.857 0.001,4.463 C0.001,4.463 0.001,178.328 0.001,178.328 C0.001,179.933 0.861,181.415 2.246,182.222 C2.948,182.616 3.720,182.819 4.491,182.819 C5.272,182.819 6.052,182.616 6.737,182.222 C6.737,182.222 157.324,95.276 157.324,95.276 C158.718,94.469 159.569,92.987 159.569,91.382 C159.569,89.778 158.718,88.299 157.324,87.489 C157.324,87.489 6.737,0.576 6.737,0.576 Z" id="path-1" class="cls-3" fill-rule="evenodd"/>
    <path d="M211.051,1.156 C211.051,1.156 166.146,1.156 166.146,1.156 C163.673,1.156 161.656,3.164 161.656,5.647 C161.656,5.647 161.656,176.276 161.656,176.276 C161.656,178.762 163.673,180.767 166.146,180.767 C166.146,180.767 211.051,180.767 211.051,180.767 C213.542,180.767 215.541,178.762 215.541,176.276 C215.541,176.276 215.541,5.647 215.541,5.647 C215.541,3.164 213.542,1.156 211.051,1.156 Z" id="path-2" class="cls-4" fill-rule="evenodd"/>
    <path d="M157.324,87.489 C157.324,87.489 148.557,82.429 148.557,82.429 C148.557,82.429 0.001,168.201 0.001,168.201 C0.001,168.201 0.001,178.329 0.001,178.329 C0.001,179.934 0.861,181.416 2.246,182.222 C2.947,182.615 3.720,182.818 4.491,182.818 C5.272,182.818 6.052,182.615 6.737,182.222 C6.737,182.222 157.324,95.277 157.324,95.277 C158.718,94.469 159.569,92.987 159.569,91.383 C159.569,89.777 158.718,88.299 157.324,87.489 Z" id="path-3" class="cls-5" fill-rule="evenodd"/>
    <path d="M211.051,1.156 C211.051,1.156 206.920,1.156 206.920,1.156 C206.920,1.156 206.920,163.345 206.920,163.345 C206.920,165.831 204.920,167.834 202.429,167.834 C202.429,167.834 161.656,167.834 161.656,167.834 C161.656,167.834 161.656,176.276 161.656,176.276 C161.656,178.763 163.673,180.766 166.146,180.766 C166.146,180.766 211.051,180.766 211.051,180.766 C213.542,180.766 215.541,178.763 215.541,176.276 C215.541,176.276 215.541,5.646 215.541,5.646 C215.541,3.164 213.542,1.156 211.051,1.156 Z" id="path-4" class="cls-5" fill-rule="evenodd"/>
  </g>
</svg>
