<svg xmlns="http://www.w3.org/2000/svg" xmlns:xlink="http://www.w3.org/1999/xlink" preserveAspectRatio="xMidYMid" width="216" height="136" viewBox="0 0 216 136">
  <defs>
    <style>

      .cls-3 {
        fill: #142a3b;
      }

      .cls-4 {
        fill: #060606;
        opacity: 0.35;
      }

      .cls-7 {
        fill: #ff3a2f;
      }

      .cls-8 {
        fill: #ededed;
      }

      .cls-9 {
        fill: #060606;
        opacity: 0.25;
      }
    </style>
  </defs>
  <g id="group-18svg">
    <path d="M214.613,128.026 C182.493,87.864 187.893,38.932 187.951,38.447 C188.091,37.253 187.712,36.047 186.922,35.146 C186.115,34.248 184.971,33.726 183.761,33.726 C183.761,33.726 177.603,33.726 177.603,33.726 C177.603,33.726 145.565,33.726 145.565,33.726 C147.936,57.079 155.954,91.453 180.995,122.767 C183.728,126.186 184.353,130.792 182.904,134.875 C182.904,134.875 211.321,134.875 211.321,134.875 C212.934,134.875 214.416,133.944 215.116,132.492 C215.815,131.028 215.618,129.294 214.613,128.026 Z" id="path-1" class="cls-3" fill-rule="evenodd"/>
    <path d="M197.080,128.026 C164.960,87.864 170.360,38.933 170.418,38.448 C170.558,37.252 170.179,36.047 169.389,35.146 C168.582,34.248 167.437,33.726 166.228,33.726 C166.228,33.726 160.070,33.726 160.070,33.726 C160.070,33.726 144.311,33.726 144.311,33.726 C145.521,33.726 146.666,34.248 147.472,35.146 C148.262,36.047 148.642,37.252 148.502,38.448 C148.443,38.933 143.044,87.864 175.164,128.026 C176.168,129.294 176.366,131.027 175.666,132.491 C174.967,133.945 173.485,134.874 171.871,134.874 C171.871,134.874 193.787,134.874 193.787,134.874 C195.401,134.874 196.883,133.945 197.582,132.491 C198.282,131.027 198.085,129.294 197.080,128.026 Z" id="path-2" class="cls-4" fill-rule="evenodd"/>
    <path d="M69.546,33.726 C69.546,33.726 54.342,33.726 54.342,33.726 C54.342,33.726 31.754,33.726 31.754,33.726 C30.552,33.726 29.408,34.248 28.609,35.146 C27.803,36.047 27.432,37.253 27.572,38.447 C27.630,38.932 33.030,87.864 0.917,128.026 C-0.103,129.294 -0.292,131.028 0.407,132.492 C1.116,133.944 2.580,134.875 4.210,134.875 C4.210,134.875 32.190,134.875 32.190,134.875 C30.750,130.776 31.375,126.175 34.108,122.763 C59.166,91.416 67.183,57.066 69.546,33.726 Z" id="path-3" class="cls-3" fill-rule="evenodd"/>
    <path d="M39.857,132.491 C39.157,131.027 39.346,129.294 40.367,128.026 C72.479,87.864 67.079,38.933 67.021,38.448 C66.881,37.252 67.252,36.047 68.059,35.146 C68.857,34.248 70.001,33.726 71.204,33.726 C71.204,33.726 53.670,33.726 53.670,33.726 C52.468,33.726 51.324,34.248 50.526,35.146 C49.719,36.047 49.348,37.252 49.489,38.448 C49.546,38.933 54.946,87.864 22.834,128.026 C21.813,129.294 21.624,131.027 22.323,132.491 C23.032,133.945 24.497,134.874 26.126,134.874 C26.126,134.874 43.659,134.874 43.659,134.874 C42.030,134.874 40.565,133.945 39.857,132.491 Z" id="path-4" class="cls-4" fill-rule="evenodd"/>
    <path d="M152.974,4.751 C153.123,3.553 152.744,2.343 151.954,1.437 C151.148,0.532 149.994,0.009 148.794,0.009 C148.794,0.009 70.377,0.009 70.377,0.009 C69.159,0.009 68.006,0.532 67.215,1.437 C66.409,2.346 66.039,3.557 66.195,4.754 C66.277,5.409 74.015,71.080 28.494,128.026 C27.473,129.294 27.283,131.028 27.983,132.492 C28.691,133.944 30.156,134.875 31.786,134.875 C31.786,134.875 187.384,134.875 187.384,134.875 C188.997,134.875 190.479,133.944 191.179,132.492 C191.878,131.028 191.680,129.294 190.676,128.026 C145.237,71.191 152.893,5.409 152.974,4.751 Z" id="path-5" class="cls-7" fill-rule="evenodd"/>
    <path d="M62.388,97.145 C61.862,97.145 61.327,97.029 60.822,96.786 C59.036,95.919 58.292,93.770 59.157,91.985 C72.248,65.001 73.972,38.794 73.114,21.558 C73.014,19.576 74.540,17.890 76.522,17.792 C78.482,17.682 80.192,19.218 80.288,21.199 C81.190,39.274 79.376,66.770 65.623,95.121 C65.002,96.402 63.721,97.145 62.388,97.145 Z" id="path-6" class="cls-8" fill-rule="evenodd"/>
    <path d="M190.676,128.026 C145.237,71.191 152.893,5.409 152.974,4.751 C153.123,3.554 152.744,2.342 151.955,1.436 C151.148,0.532 149.994,0.009 148.794,0.009 C148.794,0.009 131.260,0.009 131.260,0.009 C132.462,0.009 133.615,0.532 134.422,1.436 C135.211,2.342 135.590,3.554 135.441,4.751 C135.359,5.409 127.704,71.191 173.143,128.026 C174.147,129.294 174.345,131.027 173.646,132.491 C172.946,133.945 171.464,134.874 169.851,134.874 C169.851,134.874 187.384,134.874 187.384,134.874 C188.997,134.874 190.479,133.945 191.179,132.491 C191.879,131.027 191.680,129.294 190.676,128.026 Z" id="path-7" class="cls-9" fill-rule="evenodd"/>
  </g>
</svg>
