<svg xmlns="http://www.w3.org/2000/svg" xmlns:xlink="http://www.w3.org/1999/xlink" preserveAspectRatio="xMidYMid" width="216" height="185" viewBox="0 0 216 185">
  <defs>
    <style>

      .cls-3 {
        fill: #142a3b;
      }

      .cls-5 {
        fill: #fbb713;
      }

      .cls-10 {
        fill: #000000;
        opacity: 0.35;
      }

      .cls-12 {
        fill: #ff3a2f;
      }
    </style>
  </defs>
  <g id="group-128svg">
    <path d="M85.412,23.761 C85.412,23.761 24.902,23.761 24.902,23.761 C22.918,23.761 21.310,22.153 21.310,20.169 C21.310,18.185 22.918,16.577 24.902,16.577 C24.902,16.577 85.412,16.577 85.412,16.577 C87.396,16.577 89.005,18.185 89.005,20.169 C89.005,22.153 87.396,23.761 85.412,23.761 Z" id="path-1" class="cls-3" fill-rule="evenodd"/>
    <path d="M196.348,23.761 C196.348,23.761 135.838,23.761 135.838,23.761 C133.855,23.761 132.246,22.153 132.246,20.169 C132.246,18.185 133.855,16.577 135.838,16.577 C135.838,16.577 196.348,16.577 196.348,16.577 C198.332,16.577 199.941,18.185 199.941,20.169 C199.941,22.153 198.332,23.761 196.348,23.761 Z" id="path-2" class="cls-3" fill-rule="evenodd"/>
    <path d="M198.791,36.093 C190.449,36.093 183.663,29.312 183.663,20.976 C183.663,12.639 190.449,5.857 198.791,5.857 C207.133,5.857 213.919,12.639 213.919,20.976 C213.919,29.312 207.133,36.093 198.791,36.093 Z" id="path-3" class="cls-5" fill-rule="evenodd"/>
    <path d="M17.260,36.093 C8.918,36.093 2.132,29.312 2.132,20.976 C2.132,12.639 8.918,5.857 17.260,5.857 C25.601,5.857 32.388,12.639 32.388,20.976 C32.388,29.312 25.601,36.093 17.260,36.093 Z" id="path-4" class="cls-5" fill-rule="evenodd"/>
    <path d="M212.048,116.361 C210.063,116.361 208.455,114.753 208.455,112.769 C208.455,68.719 176.992,31.241 133.642,23.647 C131.688,23.305 130.381,21.445 130.723,19.490 C131.066,17.536 132.941,16.241 134.880,16.572 C181.676,24.766 215.640,65.222 215.640,112.769 C215.640,114.753 214.031,116.361 212.048,116.361 Z" id="path-5" class="cls-3" fill-rule="evenodd"/>
    <path d="M3.590,116.361 C1.606,116.361 -0.002,114.753 -0.002,112.769 C-0.002,65.224 33.953,24.768 80.736,16.572 C82.685,16.239 84.551,17.536 84.893,19.490 C85.236,21.445 83.930,23.305 81.974,23.647 C38.636,31.242 7.182,68.721 7.182,112.769 C7.182,114.753 5.574,116.361 3.590,116.361 Z" id="path-6" class="cls-3" fill-rule="evenodd"/>
    <path d="M70.148,180.781 C70.148,180.781 57.541,131.015 57.541,131.015 C57.187,129.648 57.433,128.200 58.211,127.021 C58.211,127.021 103.594,57.729 103.594,57.729 C105.445,54.884 110.173,54.884 112.025,57.729 C112.025,57.729 157.407,127.021 157.407,127.021 C158.185,128.200 158.431,129.648 158.077,131.015 C158.077,131.015 145.471,180.781 145.471,180.781 C145.471,180.781 145.471,180.781 145.471,180.781 " id="path-7" class="cls-5" fill-rule="evenodd"/>
    <path d="M157.407,127.021 C157.407,127.021 112.025,57.729 112.025,57.729 C110.173,54.884 105.445,54.884 103.593,57.729 C103.593,57.729 100.724,62.110 100.724,62.110 C100.724,62.110 140.465,122.788 140.465,122.788 C141.242,123.967 141.488,125.414 141.134,126.783 C141.134,126.783 128.528,176.547 128.528,176.547 C128.528,176.547 69.075,176.547 69.075,176.547 C69.075,176.547 70.147,180.781 70.147,180.781 C70.147,180.781 145.471,180.781 145.471,180.781 C145.471,180.781 158.077,131.015 158.077,131.015 C158.431,129.648 158.185,128.200 157.407,127.021 Z" id="path-8" class="cls-10" fill-rule="evenodd"/>
    <path d="M107.808,144.732 C105.824,144.732 104.216,143.124 104.216,141.139 C104.216,141.139 104.216,60.510 104.216,60.510 C104.216,58.526 105.824,56.917 107.808,56.917 C109.792,56.917 111.400,58.526 111.400,60.510 C111.400,60.510 111.400,141.139 111.400,141.139 C111.400,143.124 109.792,144.732 107.808,144.732 Z" id="path-9" class="cls-3" fill-rule="evenodd"/>
    <circle id="circle-1" class="cls-12" cx="108" cy="146" r="16"/>
    <path d="M116.166,132.939 C117.762,135.335 118.701,138.203 118.701,141.291 C118.701,149.627 111.916,156.409 103.573,156.409 C100.484,156.409 97.614,155.469 95.216,153.875 C97.930,157.948 102.557,160.642 107.809,160.642 C116.151,160.642 122.937,153.860 122.937,145.525 C122.937,140.275 120.241,135.651 116.166,132.939 Z" id="path-10" class="cls-10" fill-rule="evenodd"/>
    <path d="M151.772,185.023 C151.772,185.023 61.008,185.023 61.008,185.023 C59.024,185.023 57.416,183.415 57.416,181.431 C57.416,179.447 59.024,177.839 61.008,177.839 C61.008,177.839 151.772,177.839 151.772,177.839 C153.756,177.839 155.365,179.447 155.365,181.431 C155.365,183.415 153.756,185.023 151.772,185.023 Z" id="path-11" class="cls-3" fill-rule="evenodd"/>
    <path d="M130.796,50.406 C130.796,50.406 90.456,50.406 90.456,50.406 C87.668,50.406 85.413,48.151 85.413,45.367 C85.413,45.367 85.413,5.052 85.413,5.052 C85.413,2.266 87.668,0.012 90.456,0.012 C90.456,0.012 130.796,0.012 130.796,0.012 C133.583,0.012 135.838,2.266 135.838,5.052 C135.838,5.052 135.838,45.367 135.838,45.367 C135.838,48.151 133.583,50.406 130.796,50.406 Z" id="path-12" class="cls-12" fill-rule="evenodd"/>
  </g>
</svg>
