<svg xmlns="http://www.w3.org/2000/svg" xmlns:xlink="http://www.w3.org/1999/xlink" preserveAspectRatio="xMidYMid" width="216" height="64" viewBox="0 0 216 64">
  <defs>
    <style>

      .cls-3 {
        fill: #0cb04a;
      }

      .cls-6 {
        fill: #ededed;
      }

      .cls-7 {
        fill: #000000;
        opacity: 0.35;
      }
    </style>
  </defs>
  <g id="group-65svg">
    <path d="M211.106,38.970 C211.106,38.970 147.322,38.970 147.322,38.970 C144.868,38.970 142.878,36.980 142.878,34.526 C142.878,34.526 142.878,33.820 142.878,33.820 C142.878,31.366 144.868,29.376 147.322,29.376 C147.322,29.376 211.106,29.376 211.106,29.376 C213.561,29.376 215.551,31.366 215.551,33.820 C215.551,33.820 215.551,34.526 215.551,34.526 C215.551,36.980 213.561,38.970 211.106,38.970 Z" id="path-1" class="cls-3" fill-rule="evenodd"/>
    <path d="M129.363,63.573 C129.363,63.573 36.620,63.573 36.620,63.573 C36.620,63.573 0.011,30.016 0.011,30.016 C0.011,30.016 165.972,30.016 165.972,30.016 C165.972,30.016 129.363,63.573 129.363,63.573 Z" id="path-2" class="cls-3" fill-rule="evenodd"/>
    <path d="M47.761,10.704 C47.761,10.704 118.222,10.704 118.222,10.704 C121.162,10.704 124.068,11.338 126.741,12.563 C126.741,12.563 154.021,25.066 154.021,25.066 C154.021,25.066 11.963,25.066 11.963,25.066 C11.963,25.066 39.243,12.563 39.243,12.563 C41.915,11.338 44.821,10.704 47.761,10.704 Z" id="path-3" class="cls-3" fill-rule="evenodd"/>
    <path d="M29.850,50.011 C29.036,50.011 28.221,49.738 27.547,49.174 C27.547,49.174 20.642,43.401 20.642,43.401 C19.121,42.128 18.917,39.862 20.191,38.340 C21.464,36.821 23.729,36.617 25.251,37.889 C25.251,37.889 32.157,43.664 32.157,43.664 C33.678,44.935 33.882,47.200 32.608,48.724 C31.897,49.573 30.878,50.011 29.850,50.011 Z" id="path-4" class="cls-6" fill-rule="evenodd"/>
    <path d="M144.916,30.015 C144.916,30.015 125.722,47.610 125.722,47.610 C120.223,52.650 113.035,55.447 105.576,55.447 C105.576,55.447 27.755,55.447 27.755,55.447 C27.755,55.447 36.621,63.573 36.621,63.573 C36.621,63.573 129.363,63.573 129.363,63.573 C129.363,63.573 165.972,30.015 165.972,30.015 C165.972,30.015 144.916,30.015 144.916,30.015 Z" id="path-5" class="cls-7" fill-rule="evenodd"/>
    <path d="M126.739,12.562 C124.067,11.338 121.162,10.704 118.222,10.704 C118.222,10.704 111.233,10.704 111.233,10.704 C111.233,10.704 117.892,13.756 117.892,13.756 C121.597,15.454 120.386,21.003 116.310,21.003 C116.310,21.003 20.828,21.003 20.828,21.003 C20.828,21.003 11.963,25.065 11.963,25.065 C11.963,25.065 154.021,25.065 154.021,25.065 C154.021,25.065 126.739,12.562 126.739,12.562 Z" id="path-6" class="cls-7" fill-rule="evenodd"/>
    <path d="M97.070,5.308 C97.070,5.308 68.913,5.308 68.913,5.308 C68.553,5.308 68.262,5.016 68.262,4.657 C68.262,4.657 68.262,0.665 68.262,0.665 C68.262,0.306 68.553,0.014 68.913,0.014 C68.913,0.014 97.070,0.014 97.070,0.014 C97.431,0.014 97.722,0.306 97.722,0.665 C97.722,0.665 97.722,4.657 97.722,4.657 C97.722,5.016 97.431,5.308 97.070,5.308 Z" id="path-7" class="cls-3" fill-rule="evenodd"/>
  </g>
</svg>
