<svg xmlns="http://www.w3.org/2000/svg" xmlns:xlink="http://www.w3.org/1999/xlink" preserveAspectRatio="xMidYMid" width="216" height="174" viewBox="0 0 216 174">
  <defs>
    <style>

      .cls-3 {
        fill: #0cb04a;
      }

      .cls-6 {
        fill: #fbb713;
      }

      .cls-9 {
        fill: #ff3a2f;
      }

      .cls-10 {
        fill: #ededed;
      }

      .cls-11 {
        fill: #000000;
        opacity: 0.35;
      }

      .cls-12 {
        fill: #142a3b;
      }
    </style>
  </defs>
  <g id="group-95svg">
    <path d="M107.797,83.373 C107.797,83.373 102.009,83.373 102.009,83.373 C102.009,83.373 102.009,25.641 102.009,25.641 C102.009,25.641 107.797,25.641 107.797,25.641 C107.797,25.641 107.797,83.373 107.797,83.373 Z" id="path-1" class="cls-3" fill-rule="evenodd"/>
    <path d="M64.497,83.373 C64.497,83.373 58.708,83.373 58.708,83.373 C58.708,83.373 58.708,25.641 58.708,25.641 C58.708,25.641 64.497,25.641 64.497,25.641 C64.497,25.641 64.497,83.373 64.497,83.373 Z" id="path-2" class="cls-3" fill-rule="evenodd"/>
    <path d="M151.097,83.373 C151.097,83.373 145.309,83.373 145.309,83.373 C145.309,83.373 145.309,25.641 145.309,25.641 C145.309,25.641 151.097,25.641 151.097,25.641 C151.097,25.641 151.097,83.373 151.097,83.373 Z" id="path-3" class="cls-3" fill-rule="evenodd"/>
    <path d="M72.934,21.187 C72.934,27.444 67.861,32.518 61.603,32.518 C55.344,32.518 50.271,27.444 50.271,21.187 C50.271,14.928 61.603,0.001 61.603,0.001 C61.603,0.001 72.934,14.928 72.934,21.187 Z" id="path-4" class="cls-6" fill-rule="evenodd"/>
    <path d="M159.535,21.187 C159.535,27.444 154.462,32.518 148.203,32.518 C141.945,32.518 136.872,27.444 136.872,21.187 C136.872,14.928 148.203,0.001 148.203,0.001 C148.203,0.001 159.535,14.928 159.535,21.187 Z" id="path-5" class="cls-6" fill-rule="evenodd"/>
    <path d="M116.234,21.187 C116.234,27.444 111.161,32.518 104.903,32.518 C98.645,32.518 93.571,27.444 93.571,21.187 C93.571,14.928 104.903,0.001 104.903,0.001 C104.903,0.001 116.234,14.928 116.234,21.187 Z" id="path-6" class="cls-6" fill-rule="evenodd"/>
    <path d="M196.285,166.122 C196.285,166.122 196.285,122.154 196.285,122.154 C196.285,96.484 180.345,75.676 160.682,75.676 C160.682,75.676 54.837,75.676 54.837,75.676 C35.174,75.676 19.234,96.484 19.234,122.154 C19.234,122.154 19.234,166.122 19.234,166.122 C19.234,166.122 196.285,166.122 196.285,166.122 Z" id="path-7" class="cls-9" fill-rule="evenodd"/>
    <path d="M31.135,125.429 C29.152,125.429 27.543,123.821 27.543,121.837 C27.543,100.691 41.098,83.488 57.760,83.488 C59.744,83.488 61.353,85.097 61.353,87.080 C61.353,89.063 59.744,90.672 57.760,90.672 C45.061,90.672 34.728,104.653 34.728,121.837 C34.728,123.821 33.119,125.429 31.135,125.429 Z" id="path-8" class="cls-10" fill-rule="evenodd"/>
    <path d="M160.683,75.676 C160.683,75.676 143.363,75.676 143.363,75.676 C163.025,75.676 178.965,96.484 178.965,122.154 C178.965,122.154 178.965,141.901 178.965,141.901 C178.965,141.901 19.234,152.650 19.234,152.650 C19.234,152.650 196.285,166.122 196.285,166.122 C196.285,166.122 196.285,122.154 196.285,122.154 C196.285,96.484 180.345,75.676 160.683,75.676 Z" id="path-9" class="cls-11" fill-rule="evenodd"/>
    <path d="M215.529,173.820 C215.529,173.820 -0.010,173.820 -0.010,173.820 C-0.010,173.820 -0.010,152.650 -0.010,152.650 C-0.010,152.650 215.529,152.650 215.529,152.650 C215.529,152.650 215.529,173.820 215.529,173.820 Z" id="path-10" class="cls-12" fill-rule="evenodd"/>
    <path d="M198.209,152.650 C198.209,152.650 198.209,173.820 198.209,173.820 C198.209,173.820 215.529,173.820 215.529,173.820 C215.529,173.820 215.529,152.650 215.529,152.650 C215.529,152.650 198.209,152.650 198.209,152.650 Z" id="path-11" class="cls-11" fill-rule="evenodd"/>
  </g>
</svg>
