<svg xmlns="http://www.w3.org/2000/svg" xmlns:xlink="http://www.w3.org/1999/xlink" preserveAspectRatio="xMidYMid" width="176" height="216" viewBox="0 0 176 216">
  <defs>
    <style>

      .cls-3 {
        fill: #ff3a2f;
      }

      .cls-4 {
        fill: #000000;
        opacity: 0.35;
      }

      .cls-5 {
        fill: #fbb713;
      }

      .cls-6 {
        fill: #ededed;
      }

      .cls-8 {
        fill: #000000;
        opacity: 0.25;
      }
    </style>
  </defs>
  <g id="group-74svg">
    <path d="M93.731,104.684 C93.731,104.684 82.023,104.684 82.023,104.684 C82.023,104.684 82.023,0.002 82.023,0.002 C82.023,0.002 93.731,0.002 93.731,0.002 C93.731,0.002 93.731,104.684 93.731,104.684 Z" id="path-1" class="cls-3" fill-rule="evenodd"/>
    <path d="M93.731,104.684 C93.731,104.684 82.023,104.684 82.023,104.684 C82.023,104.684 82.023,100.408 82.023,100.408 C82.023,100.408 93.731,93.149 93.731,93.149 C93.731,93.149 93.731,104.684 93.731,104.684 Z" id="path-2" class="cls-4" fill-rule="evenodd"/>
    <path d="M87.877,104.036 C39.343,104.036 -0.001,143.379 -0.001,191.912 C-0.001,191.912 175.756,191.912 175.756,191.912 C175.756,143.379 136.412,104.036 87.877,104.036 Z" id="path-3" class="cls-5" fill-rule="evenodd"/>
    <path d="M21.602,167.782 C21.290,167.782 20.971,167.740 20.655,167.655 C18.741,167.132 17.612,165.157 18.134,163.242 C24.596,139.572 43.191,120.396 66.660,113.201 C68.559,112.622 70.566,113.683 71.147,115.584 C71.730,117.480 70.663,119.489 68.766,120.071 C47.631,126.550 30.885,143.818 25.066,165.134 C24.629,166.731 23.182,167.782 21.602,167.782 Z" id="path-4" class="cls-6" fill-rule="evenodd"/>
    <path d="M87.877,215.535 C101.240,215.535 112.071,204.703 112.071,191.342 C112.071,191.342 63.683,191.342 63.683,191.342 C63.683,204.703 74.515,215.535 87.877,215.535 Z" id="path-5" class="cls-3" fill-rule="evenodd"/>
    <path d="M87.877,104.036 C85.431,104.036 83.015,104.163 80.619,104.359 C125.754,108.053 161.239,145.825 161.239,191.912 C161.239,191.912 175.756,191.912 175.756,191.912 C175.756,143.379 136.412,104.036 87.877,104.036 Z" id="path-6" class="cls-8" fill-rule="evenodd"/>
    <path d="M63.683,191.342 C63.683,193.871 63.934,191.342 63.683,193.871 C63.683,193.871 97.555,198.600 97.555,198.600 C97.555,205.103 94.975,210.994 90.800,215.342 C102.782,213.895 112.071,203.711 112.071,191.342 C112.071,191.342 63.683,191.342 63.683,191.342 Z" id="path-7" class="cls-4" fill-rule="evenodd"/>
  </g>
</svg>
