<svg xmlns="http://www.w3.org/2000/svg" xmlns:xlink="http://www.w3.org/1999/xlink" preserveAspectRatio="xMidYMid" width="180" height="216" viewBox="0 0 180 216">
  <defs>
    <style>

      .cls-3 {
        fill: #0cb04a;
      }

      .cls-4 {
        fill: #060606;
        opacity: 0.25;
      }
    </style>
  </defs>
  <g id="group-22svg">
    <path d="M4.501,215.528 C3.746,215.528 2.984,215.334 2.300,214.950 C0.888,214.151 0.010,212.651 0.010,211.038 C0.010,211.038 0.010,4.484 0.010,4.484 C0.010,2.870 0.888,1.370 2.300,0.573 C3.711,-0.217 5.448,-0.200 6.825,0.643 C6.825,0.643 177.944,103.907 177.944,103.907 C179.295,104.709 180.119,106.170 180.119,107.744 C180.119,109.322 179.295,110.781 177.944,111.585 C177.944,111.585 6.825,214.893 6.825,214.893 C6.114,215.317 5.308,215.528 4.501,215.528 Z" id="path-1" class="cls-3" fill-rule="evenodd"/>
    <path d="M177.944,103.907 C177.944,103.907 6.825,0.643 6.825,0.643 C6.068,0.179 5.202,-0.010 4.341,0.022 C4.341,0.022 150.512,88.231 150.512,88.231 C151.862,89.034 152.687,90.493 152.687,92.068 C152.687,93.647 151.862,95.107 150.512,95.910 C150.512,95.910 0.010,186.770 0.010,186.770 C0.010,186.770 0.010,211.039 0.010,211.039 C0.010,212.651 0.888,214.151 2.300,214.950 C2.984,215.334 3.746,215.528 4.501,215.528 C5.308,215.528 6.114,215.317 6.825,214.893 C6.825,214.893 177.944,111.585 177.944,111.585 C179.295,110.782 180.119,109.322 180.119,107.744 C180.119,106.169 179.295,104.709 177.944,103.907 Z" id="path-2" class="cls-4" fill-rule="evenodd"/>
  </g>
</svg>
