<svg xmlns="http://www.w3.org/2000/svg" xmlns:xlink="http://www.w3.org/1999/xlink" preserveAspectRatio="xMidYMid" width="216" height="216" viewBox="0 0 216 216">
  <defs>
    <style>

      .cls-3 {
        fill: #fbb713;
      }

      .cls-4 {
        fill: #060606;
        opacity: 0.25;
      }

      .cls-5 {
        fill: #be8b10;
      }

      .cls-6 {
        fill: #142a3b;
      }

      .cls-7 {
        fill: #ededed;
      }
    </style>
  </defs>
  <g id="group-40svg">
    <path d="M151.881,-0.012 C151.881,-0.012 141.343,10.526 141.343,10.526 C141.343,10.526 132.435,1.618 132.435,1.618 C132.435,1.618 1.634,132.415 1.634,132.415 C1.634,132.415 10.542,141.324 10.542,141.324 C10.542,141.324 0.004,151.861 0.004,151.861 C0.004,151.861 63.667,215.522 63.667,215.522 C63.667,215.522 74.205,204.984 74.205,204.984 C74.205,204.984 83.113,213.891 83.113,213.891 C83.113,213.891 213.914,83.095 213.914,83.095 C213.914,83.095 205.006,74.186 205.006,74.186 C205.006,74.186 215.544,63.649 215.544,63.649 C215.544,63.649 151.881,-0.012 151.881,-0.012 Z" id="path-1" class="cls-3" fill-rule="evenodd"/>
    <path d="M146.667,5.203 C146.667,5.203 202.507,61.041 202.507,61.041 C202.507,61.041 191.969,71.578 191.969,71.578 C191.969,71.578 200.877,80.487 200.877,80.487 C200.877,80.487 75.290,206.069 75.290,206.069 C75.290,206.069 83.112,213.891 83.112,213.891 C83.112,213.891 213.914,83.095 213.914,83.095 C213.914,83.095 205.005,74.186 205.005,74.186 C205.005,74.186 215.544,63.649 215.544,63.649 C215.544,63.649 151.882,-0.011 151.882,-0.011 C151.882,-0.011 146.667,5.203 146.667,5.203 Z" id="path-2" class="cls-4" fill-rule="evenodd"/>
    <path d="M148.213,48.785 C146.484,50.514 146.484,53.318 148.213,55.047 C148.213,55.047 156.171,63.005 156.171,63.005 C156.171,63.005 148.708,70.467 148.708,70.467 C144.573,68.918 139.739,69.782 136.413,73.108 C133.087,76.434 132.223,81.267 133.772,85.402 C133.772,85.402 127.558,91.616 127.558,91.616 C127.558,91.616 119.600,83.659 119.600,83.659 C117.871,81.930 115.068,81.930 113.338,83.659 C111.609,85.389 111.609,88.191 113.338,89.920 C113.338,89.920 121.296,97.879 121.296,97.879 C121.296,97.879 116.950,102.225 116.950,102.225 C111.369,99.481 104.456,100.367 99.814,105.010 C95.172,109.652 94.285,116.564 97.029,122.145 C97.029,122.145 92.682,126.491 92.682,126.491 C92.682,126.491 84.725,118.534 84.725,118.534 C82.995,116.804 80.192,116.805 78.463,118.534 C76.734,120.262 76.733,123.066 78.463,124.795 C78.463,124.795 86.421,132.753 86.421,132.753 C86.421,132.753 79.828,139.346 79.828,139.346 C75.692,137.797 70.859,138.661 67.533,141.987 C64.206,145.313 63.343,150.146 64.891,154.281 C64.891,154.281 57.808,161.365 57.808,161.365 C57.808,161.365 49.850,153.408 49.850,153.408 C48.120,151.678 45.317,151.678 43.588,153.408 C41.858,155.137 41.858,157.940 43.588,159.669 C43.588,159.669 66.287,182.368 66.287,182.368 C68.016,184.096 70.820,184.096 72.549,182.368 C74.278,180.640 74.278,177.835 72.549,176.106 C72.549,176.106 64.591,168.148 64.591,168.148 C64.591,168.148 71.675,161.065 71.675,161.065 C75.810,162.612 80.644,161.749 83.970,158.424 C87.296,155.098 88.159,150.264 86.611,146.129 C86.611,146.129 93.204,139.536 93.204,139.536 C93.204,139.536 101.162,147.494 101.162,147.494 C102.891,149.223 105.695,149.223 107.424,147.494 C109.153,145.764 109.153,142.961 107.424,141.232 C107.424,141.232 99.466,133.275 99.466,133.275 C99.466,133.275 103.812,128.929 103.812,128.929 C109.393,131.671 116.306,130.785 120.948,126.144 C125.591,121.501 126.477,114.588 123.733,109.008 C123.733,109.008 128.080,104.662 128.080,104.662 C128.080,104.662 136.038,112.620 136.038,112.620 C137.767,114.349 140.570,114.349 142.299,112.620 C144.028,110.890 144.028,108.087 142.299,106.357 C142.299,106.357 134.342,98.400 134.342,98.400 C134.342,98.400 140.556,92.186 140.556,92.186 C144.691,93.733 149.525,92.871 152.850,89.545 C156.177,86.220 157.040,81.386 155.492,77.250 C155.492,77.250 162.955,69.788 162.955,69.788 C162.955,69.788 170.913,77.746 170.913,77.746 C172.642,79.474 175.446,79.474 177.175,77.746 C178.903,76.017 178.903,73.213 177.175,71.483 C177.175,71.483 154.475,48.785 154.475,48.785 C152.746,47.055 149.942,47.056 148.213,48.785 ZM79.776,154.230 C77.553,156.452 73.949,156.452 71.727,154.230 C69.503,152.006 69.503,148.403 71.726,146.180 C73.949,143.957 77.553,143.957 79.776,146.180 C81.999,148.403 81.999,152.007 79.776,154.230 ZM114.928,120.123 C112.416,122.634 108.345,122.634 105.834,120.123 C103.323,117.612 103.323,113.541 105.834,111.029 C108.345,108.518 112.416,108.519 114.928,111.030 C117.438,113.541 117.439,117.612 114.928,120.123 ZM148.657,85.352 C146.434,87.574 142.830,87.574 140.608,85.352 C138.384,83.128 138.384,79.524 140.606,77.302 C142.829,75.079 146.433,75.079 148.657,77.302 C150.880,79.525 150.880,83.129 148.657,85.352 Z" id="path-3" class="cls-5" fill-rule="evenodd"/>
    <path d="M145.606,40.963 C143.877,42.692 143.877,45.496 145.606,47.225 C145.606,47.225 153.564,55.182 153.564,55.182 C153.564,55.182 146.101,62.646 146.101,62.646 C141.966,61.097 137.132,61.961 133.806,65.287 C130.480,68.612 129.616,73.446 131.165,77.581 C131.165,77.581 124.951,83.795 124.951,83.795 C124.951,83.795 116.993,75.837 116.993,75.837 C115.263,74.108 112.460,74.108 110.731,75.837 C109.002,77.567 109.002,80.370 110.731,82.099 C110.731,82.099 118.688,90.057 118.688,90.057 C118.688,90.057 114.342,94.403 114.342,94.403 C108.761,91.660 101.849,92.545 97.207,97.188 C92.564,101.830 91.678,108.742 94.421,114.323 C94.421,114.323 90.075,118.670 90.075,118.670 C90.075,118.670 82.117,110.712 82.117,110.712 C80.388,108.983 77.585,108.983 75.855,110.712 C74.126,112.441 74.126,115.244 75.855,116.974 C75.855,116.974 83.813,124.931 83.813,124.931 C83.813,124.931 77.220,131.524 77.220,131.524 C73.085,129.975 68.251,130.839 64.925,134.165 C61.599,137.491 60.735,142.324 62.284,146.460 C62.284,146.460 55.200,153.544 55.200,153.544 C55.200,153.544 47.242,145.585 47.242,145.585 C45.512,143.857 42.710,143.857 40.981,145.585 C39.251,147.315 39.251,150.118 40.981,151.848 C40.981,151.848 63.680,174.546 63.680,174.546 C65.409,176.274 68.212,176.274 69.941,174.546 C71.671,172.818 71.671,170.014 69.941,168.284 C69.941,168.284 61.984,160.327 61.984,160.327 C61.984,160.327 69.067,153.243 69.067,153.243 C73.203,154.791 78.037,153.928 81.362,150.602 C84.689,147.276 85.552,142.442 84.004,138.307 C84.004,138.307 90.597,131.714 90.597,131.714 C90.597,131.714 98.554,139.672 98.554,139.672 C100.283,141.402 103.088,141.402 104.817,139.672 C106.546,137.942 106.546,135.139 104.817,133.411 C104.817,133.411 96.859,125.453 96.859,125.453 C96.859,125.453 101.205,121.106 101.205,121.106 C106.786,123.850 113.698,122.964 118.341,118.322 C122.983,113.679 123.869,106.767 121.126,101.186 C121.126,101.186 125.472,96.840 125.472,96.840 C125.472,96.840 133.431,104.798 133.431,104.798 C135.160,106.527 137.963,106.527 139.693,104.798 C141.421,103.068 141.421,100.266 139.693,98.536 C139.693,98.536 131.735,90.578 131.735,90.578 C131.735,90.578 137.948,84.364 137.948,84.364 C142.083,85.912 146.918,85.050 150.243,81.723 C153.569,78.398 154.433,73.564 152.885,69.428 C152.885,69.428 160.347,61.967 160.347,61.967 C160.347,61.967 168.306,69.924 168.306,69.924 C170.035,71.652 172.838,71.652 174.567,69.924 C176.296,68.195 176.296,65.391 174.567,63.662 C174.567,63.662 151.867,40.963 151.867,40.963 C150.138,39.234 147.335,39.235 145.606,40.963 ZM77.168,146.408 C74.946,148.630 71.342,148.630 69.119,146.408 C66.896,144.185 66.896,140.581 69.118,138.358 C71.341,136.135 74.945,136.135 77.169,138.359 C79.392,140.581 79.392,144.185 77.168,146.408 ZM112.320,112.301 C109.809,114.813 105.738,114.812 103.227,112.301 C100.716,109.790 100.715,105.719 103.227,103.208 C105.738,100.697 109.809,100.697 112.320,103.208 C114.831,105.719 114.831,109.790 112.320,112.301 ZM146.049,77.530 C143.827,79.753 140.223,79.753 138.000,77.530 C135.776,75.307 135.776,71.702 137.999,69.480 C140.222,67.257 143.826,67.257 146.049,69.480 C148.272,71.702 148.272,75.307 146.049,77.530 Z" id="path-4" class="cls-6" fill-rule="evenodd"/>
    <path d="M30.526,124.933 C29.607,124.933 28.688,124.581 27.986,123.880 C26.583,122.477 26.583,120.204 27.986,118.800 C27.986,118.800 121.852,24.939 121.852,24.939 C123.255,23.536 125.528,23.536 126.931,24.939 C128.335,26.343 128.335,28.616 126.931,30.019 C126.931,30.019 33.066,123.880 33.066,123.880 C32.364,124.581 31.445,124.933 30.526,124.933 Z" id="path-5" class="cls-7" fill-rule="evenodd"/>
  </g>
</svg>
