<svg xmlns="http://www.w3.org/2000/svg" xmlns:xlink="http://www.w3.org/1999/xlink" preserveAspectRatio="xMidYMid" width="216" height="216" viewBox="0 0 216 216">
  <defs>
    <style>

      .cls-3 {
        fill: #0cb04a;
      }

      .cls-4 {
        fill: #ff3a2f;
      }

      .cls-5 {
        fill: #000000;
        opacity: 0.35;
      }
    </style>
  </defs>
  <g id="group-147svg">
    <path d="M168.682,131.190 C168.682,177.770 130.922,215.529 84.340,215.529 C37.758,215.529 -0.002,177.770 -0.002,131.190 C-0.002,84.609 37.758,46.851 84.340,46.851 C84.340,46.851 84.340,131.190 84.340,131.190 C84.340,131.190 168.682,131.190 168.682,131.190 Z" id="path-1" class="cls-3" fill-rule="evenodd"/>
    <path d="M215.538,112.447 C215.538,50.337 165.195,-0.005 103.083,-0.005 C103.083,-0.005 103.083,112.447 103.083,112.447 C103.083,112.447 215.538,112.447 215.538,112.447 Z" id="path-2" class="cls-4" fill-rule="evenodd"/>
    <path d="M75.718,131.190 C75.718,131.190 84.340,131.190 84.340,131.190 C84.340,131.190 84.340,46.851 84.340,46.851 C81.430,46.851 78.553,47.015 75.718,47.336 C75.718,47.336 75.718,131.190 75.718,131.190 Z" id="path-3" class="cls-5" fill-rule="evenodd"/>
    <path d="M159.624,131.190 C155.307,173.719 119.390,206.907 75.718,206.907 C54.623,206.907 35.385,199.110 20.596,186.309 C36.062,204.176 58.854,215.529 84.340,215.529 C130.922,215.529 168.682,177.770 168.682,131.190 C168.682,131.190 159.624,131.190 159.624,131.190 Z" id="path-4" class="cls-5" fill-rule="evenodd"/>
    <path d="M178.165,28.746 C196.035,48.655 206.916,74.965 206.916,103.826 C206.916,103.826 103.083,103.826 103.083,103.826 C103.083,103.826 103.083,112.447 103.083,112.447 C103.083,112.447 215.538,112.447 215.538,112.447 C215.538,79.199 201.101,49.333 178.165,28.746 Z" id="path-5" class="cls-5" fill-rule="evenodd"/>
  </g>
</svg>
