<svg xmlns="http://www.w3.org/2000/svg" xmlns:xlink="http://www.w3.org/1999/xlink" preserveAspectRatio="xMidYMid" width="216" height="171" viewBox="0 0 216 171">
  <defs>
    <style>

      .cls-3 {
        fill: #4c4c4c;
      }

      .cls-4 {
        fill: #142a3b;
      }

      .cls-6 {
        fill: #2476ff;
      }

      .cls-7 {
        fill: #000000;
        opacity: 0.35;
      }

      .cls-9 {
        fill: #ededed;
      }

      .cls-11 {
        fill: #ff3a2f;
      }
    </style>
  </defs>
  <g id="group-48svg">
    <path d="M179.398,81.331 C179.398,81.331 188.433,81.331 188.433,81.331 C188.433,81.331 188.433,54.225 188.433,54.225 C188.433,54.225 179.398,54.225 179.398,54.225 C179.398,54.225 179.398,81.331 179.398,81.331 Z" id="path-1" class="cls-3" fill-rule="evenodd"/>
    <path d="M143.308,170.406 C143.308,170.406 135.540,170.406 135.540,170.406 C134.811,170.406 134.219,169.816 134.219,169.087 C134.219,169.087 134.219,138.014 134.219,138.014 C134.219,137.285 134.811,136.694 135.540,136.694 C135.540,136.694 143.308,136.694 143.308,136.694 C144.037,136.694 144.628,137.285 144.628,138.014 C144.628,138.014 144.628,169.087 144.628,169.087 C144.628,169.816 144.037,170.406 143.308,170.406 Z" id="path-2" class="cls-4" fill-rule="evenodd"/>
    <path d="M64.453,170.406 C64.453,170.406 56.684,170.406 56.684,170.406 C55.955,170.406 55.363,169.816 55.363,169.087 C55.363,169.087 55.363,138.014 55.363,138.014 C55.363,137.285 55.955,136.694 56.684,136.694 C56.684,136.694 64.453,136.694 64.453,136.694 C65.181,136.694 65.772,137.285 65.772,138.014 C65.772,138.014 65.772,169.087 65.772,169.087 C65.772,169.816 65.181,170.406 64.453,170.406 Z" id="path-3" class="cls-4" fill-rule="evenodd"/>
    <path d="M85.622,144.219 C85.622,144.219 95.135,144.219 95.135,144.219 C95.135,144.219 104.648,144.219 104.648,144.219 C104.648,144.219 104.648,49.089 104.648,49.089 C109.413,11.714 78.801,0.904 52.574,0.904 C52.574,0.904 34.828,1.529 34.828,1.529 C15.476,1.529 0.000,29.245 0.000,49.089 C0.000,49.089 0.000,139.463 0.000,139.463 C0.000,142.094 2.127,144.219 4.757,144.219 C4.757,144.219 31.135,144.219 31.135,144.219 C31.135,144.219 85.622,144.219 85.622,144.219 Z" id="path-4" class="cls-6" fill-rule="evenodd"/>
    <path d="M52.575,0.904 C52.575,0.904 38.407,1.402 38.407,1.402 C61.934,3.869 85.188,16.165 80.992,49.089 C80.992,49.089 80.992,144.219 80.992,144.219 C80.992,144.219 85.622,144.219 85.622,144.219 C85.622,144.219 95.135,144.219 95.135,144.219 C95.135,144.219 104.648,144.219 104.648,144.219 C104.648,144.219 104.648,49.089 104.648,49.089 C109.412,11.714 78.801,0.904 52.575,0.904 Z" id="path-5" class="cls-7" fill-rule="evenodd"/>
    <path d="M159.067,0.015 C159.067,0.015 46.341,0.746 46.341,0.746 C76.237,0.746 103.916,10.928 103.916,40.824 C103.916,40.824 102.842,144.219 102.842,144.219 C102.842,144.219 125.184,144.578 125.184,144.578 C125.184,144.578 134.219,144.578 134.219,144.578 C134.219,144.578 189.970,144.578 189.970,144.578 C189.970,144.578 211.022,144.578 211.022,144.578 C213.519,144.578 215.540,142.559 215.540,140.060 C215.540,140.060 215.540,54.226 215.540,54.226 C215.540,24.843 189.677,0.015 159.067,0.015 Z" id="path-6" class="cls-4" fill-rule="evenodd"/>
    <path d="M85.622,125.193 C85.622,125.193 28.540,125.193 28.540,125.193 C25.911,125.193 23.783,123.067 23.783,120.437 C23.783,117.809 25.911,115.680 28.540,115.680 C28.540,115.680 85.622,115.680 85.622,115.680 C88.251,115.680 90.378,117.809 90.378,120.437 C90.378,123.067 88.251,125.193 85.622,125.193 Z" id="path-7" class="cls-9" fill-rule="evenodd"/>
    <path d="M205.354,93.735 C205.354,96.231 203.334,98.252 200.837,98.252 C200.837,98.252 182.765,98.252 182.765,98.252 C180.268,98.252 178.247,96.231 178.247,93.735 C178.247,93.735 178.247,62.111 178.247,62.111 C178.247,62.111 133.070,62.111 133.070,62.111 C130.572,62.111 128.551,60.090 128.551,57.593 C128.551,55.097 130.572,53.075 133.070,53.075 C133.070,53.075 182.765,53.075 182.765,53.075 C182.765,53.075 187.283,53.075 187.283,53.075 C187.283,53.075 200.837,53.075 200.837,53.075 C203.334,53.075 205.354,55.097 205.354,57.593 C205.354,57.593 205.354,93.735 205.354,93.735 Z" id="path-8" class="cls-7" fill-rule="evenodd"/>
    <path d="M197.469,85.850 C197.469,88.346 195.448,90.367 192.951,90.367 C192.951,90.367 174.879,90.367 174.879,90.367 C172.382,90.367 170.361,88.346 170.361,85.850 C170.361,85.850 170.361,54.225 170.361,54.225 C170.361,54.225 125.184,54.225 125.184,54.225 C122.686,54.225 120.666,52.205 120.666,49.707 C120.666,47.211 122.686,45.190 125.184,45.190 C125.184,45.190 174.879,45.190 174.879,45.190 C174.879,45.190 179.398,45.190 179.398,45.190 C179.398,45.190 192.951,45.190 192.951,45.190 C195.448,45.190 197.469,47.211 197.469,49.707 C197.469,49.707 197.469,85.850 197.469,85.850 Z" id="path-9" class="cls-11" fill-rule="evenodd"/>
  </g>
</svg>
