<svg xmlns="http://www.w3.org/2000/svg" xmlns:xlink="http://www.w3.org/1999/xlink" preserveAspectRatio="xMidYMid" width="216" height="139" viewBox="0 0 216 139">
  <defs>
    <style>

      .cls-3 {
        fill: #142a3b;
      }

      .cls-4 {
        fill: #000000;
        opacity: 0.35;
      }

      .cls-5 {
        fill: #fbb713;
      }

      .cls-6 {
        fill: #ffffff;
      }

      .cls-7 {
        fill: #010101;
        opacity: 0.25;
      }
    </style>
  </defs>
  <g id="group-93svg">
    <path d="M178.998,137.831 C178.998,137.831 35.789,137.831 35.789,137.831 C35.789,137.831 -0.013,90.682 -0.013,90.682 C-0.013,90.682 214.799,90.682 214.799,90.682 C214.799,90.682 178.998,137.831 178.998,137.831 Z" id="path-1" class="cls-3" fill-rule="evenodd"/>
    <path d="M189.253,90.682 C189.253,90.682 175.082,109.345 175.082,109.345 C165.204,122.354 149.810,129.995 133.476,129.995 C133.476,129.995 29.838,129.995 29.838,129.995 C29.838,129.995 35.789,137.831 35.789,137.831 C35.789,137.831 178.997,137.831 178.997,137.831 C178.997,137.831 214.799,90.682 214.799,90.682 C214.799,90.682 189.253,90.682 189.253,90.682 Z" id="path-2" class="cls-4" fill-rule="evenodd"/>
    <path d="M169.416,90.682 C172.206,83.310 173.803,75.352 173.803,67.002 C173.803,29.997 143.803,-0.001 106.797,-0.001 C69.790,-0.001 39.791,29.997 39.791,67.002 C39.791,75.352 41.388,83.310 44.178,90.682 C44.178,90.682 169.416,90.682 169.416,90.682 Z" id="path-3" class="cls-5" fill-rule="evenodd"/>
    <path d="M60.678,63.843 C58.694,63.843 57.085,62.234 57.085,60.252 C57.085,32.840 79.385,10.539 106.796,10.539 C108.780,10.539 110.389,12.147 110.389,14.132 C110.389,16.114 108.780,17.723 106.796,17.723 C83.348,17.723 64.270,36.801 64.270,60.252 C64.270,62.234 62.662,63.843 60.678,63.843 Z" id="path-4" class="cls-6" fill-rule="evenodd"/>
    <path d="M138.671,8.055 C150.692,20.166 158.127,36.835 158.127,55.246 C158.127,55.330 158.127,55.413 158.127,55.497 C158.077,68.562 146.999,78.926 133.933,78.926 C133.933,78.926 40.898,78.926 40.898,78.926 C41.647,82.980 42.750,86.911 44.178,90.682 C44.178,90.682 169.416,90.682 169.416,90.682 C172.206,83.311 173.803,75.352 173.803,67.002 C173.803,41.537 159.594,19.390 138.671,8.055 Z" id="path-5" class="cls-7" fill-rule="evenodd"/>
    <path d="M180.331,31.071 C180.331,31.071 190.734,58.343 180.331,68.746 C169.926,79.150 153.059,79.150 142.655,68.746 C132.251,58.343 132.251,41.475 142.655,31.071 C153.059,20.668 180.331,31.071 180.331,31.071 Z" id="path-6" class="cls-5" fill-rule="evenodd"/>
    <path d="M184.250,60.908 C173.845,71.313 156.977,71.313 146.573,60.908 C139.376,53.711 137.166,43.423 139.927,34.317 C132.380,44.732 133.270,59.361 142.654,68.746 C153.059,79.150 169.926,79.150 180.331,68.746 C182.404,66.674 183.625,63.917 184.293,60.854 C184.277,60.870 184.266,60.891 184.250,60.908 Z" id="path-7" class="cls-7" fill-rule="evenodd"/>
    <path d="M178.114,41.085 C178.114,41.085 172.746,34.684 172.746,34.684 C172.746,34.684 196.384,16.593 196.384,16.593 C196.384,16.593 201.752,22.993 201.752,22.993 C201.752,22.993 178.114,41.085 178.114,41.085 Z" id="path-8" class="cls-3" fill-rule="evenodd"/>
    <path d="M208.367,10.770 C208.367,16.194 203.970,20.592 198.545,20.592 C193.121,20.592 188.723,16.194 188.723,10.770 C188.723,5.345 193.121,0.948 198.545,0.948 C203.970,0.948 208.367,5.345 208.367,10.770 Z" id="path-9" class="cls-3" fill-rule="evenodd"/>
    <path d="M215.527,21.511 C215.527,26.935 211.130,31.332 205.705,31.332 C200.281,31.332 195.883,26.935 195.883,21.511 C195.883,16.086 200.281,11.689 205.705,11.689 C211.130,11.689 215.527,16.086 215.527,21.511 Z" id="path-10" class="cls-3" fill-rule="evenodd"/>
  </g>
</svg>
