<svg xmlns="http://www.w3.org/2000/svg" xmlns:xlink="http://www.w3.org/1999/xlink" preserveAspectRatio="xMidYMid" width="182" height="216" viewBox="0 0 182 216">
  <defs>
    <style>

      .cls-3 {
        fill: #ff3a2f;
      }

      .cls-4 {
        fill: #0cb04a;
      }

      .cls-5 {
        fill: #060606;
        opacity: 0.35;
      }
    </style>
  </defs>
  <g id="group-29svg">
    <path d="M169.383,142.913 C169.321,142.913 169.267,142.913 169.196,142.913 C169.196,142.913 14.453,142.913 14.453,142.913 C12.822,142.913 11.334,142.044 10.518,140.644 C9.703,139.244 9.703,137.507 10.518,136.107 C10.518,136.107 87.880,2.089 87.880,2.089 C89.502,-0.720 94.120,-0.720 95.742,2.089 C95.742,2.089 172.581,135.163 172.581,135.163 C173.414,135.982 173.920,137.117 173.920,138.376 C173.920,140.888 171.890,142.913 169.383,142.913 Z" id="path-1" class="cls-3" fill-rule="evenodd"/>
    <path d="M176.977,215.514 C176.977,215.514 4.545,215.514 4.545,215.514 C2.045,215.514 0.007,213.489 0.007,210.977 C0.007,210.977 0.007,165.601 0.007,165.601 C0.007,163.092 2.045,161.063 4.545,161.063 C4.545,161.063 176.977,161.063 176.977,161.063 C179.495,161.063 181.515,163.092 181.515,165.601 C181.515,165.601 181.515,210.977 181.515,210.977 C181.515,213.489 179.495,215.514 176.977,215.514 Z" id="path-2" class="cls-4" fill-rule="evenodd"/>
    <path d="M172.582,135.163 C172.582,135.163 95.742,2.090 95.742,2.090 C94.120,-0.720 89.502,-0.720 87.880,2.090 C87.880,2.090 87.834,2.169 87.834,2.169 C87.834,2.169 159.649,126.541 159.649,126.541 C160.481,127.361 160.988,128.496 160.988,129.754 C160.988,132.268 158.959,134.293 156.450,134.293 C156.388,134.293 156.335,134.293 156.263,134.293 C156.263,134.293 11.566,134.293 11.566,134.293 C11.566,134.293 10.518,136.107 10.518,136.107 C9.703,137.508 9.703,139.244 10.518,140.644 C11.334,142.044 12.823,142.914 14.453,142.914 C14.453,142.914 169.196,142.914 169.196,142.914 C169.267,142.914 169.320,142.914 169.383,142.914 C171.891,142.914 173.920,140.888 173.920,138.376 C173.920,137.117 173.413,135.982 172.582,135.163 Z" id="path-3" class="cls-5" fill-rule="evenodd"/>
    <path d="M176.978,161.063 C176.978,161.063 168.583,161.063 168.583,161.063 C168.583,161.063 168.583,202.356 168.583,202.356 C168.583,204.869 166.563,206.893 164.045,206.893 C164.045,206.893 0.008,206.893 0.008,206.893 C0.008,206.893 0.008,210.977 0.008,210.977 C0.008,213.490 2.045,215.514 4.545,215.514 C4.545,215.514 176.978,215.514 176.978,215.514 C179.495,215.514 181.515,213.490 181.515,210.977 C181.515,210.977 181.515,165.602 181.515,165.602 C181.515,163.092 179.495,161.063 176.978,161.063 Z" id="path-4" class="cls-5" fill-rule="evenodd"/>
  </g>
</svg>
