<svg xmlns="http://www.w3.org/2000/svg" xmlns:xlink="http://www.w3.org/1999/xlink" preserveAspectRatio="xMidYMid" width="162" height="216" viewBox="0 0 162 216">
  <defs>
    <style>

      .cls-3 {
        fill: #2476ff;
      }

      .cls-5 {
        fill: #000000;
        opacity: 0.35;
      }
    </style>
  </defs>
  <g id="group-133svg">
    <path d="M157.167,215.542 C157.167,215.542 4.493,215.542 4.493,215.542 C2.011,215.542 0.003,213.534 0.003,211.051 C0.003,211.051 0.003,54.628 0.003,54.628 C0.003,53.567 0.380,52.541 1.064,51.730 C1.064,51.730 43.465,1.600 43.465,1.600 C44.319,0.591 45.573,0.009 46.893,0.009 C46.893,0.009 157.167,0.009 157.167,0.009 C159.649,0.009 161.658,2.017 161.658,4.499 C161.658,4.499 161.658,211.051 161.658,211.051 C161.658,213.534 159.649,215.542 157.167,215.542 Z" id="path-1" class="cls-3" fill-rule="evenodd"/>
    <path d="M44.907,0.009 C44.907,0.009 44.907,49.402 44.907,49.402 C44.907,51.885 42.899,53.892 40.416,53.892 C40.416,53.892 0.003,53.892 0.003,53.892 C0.003,53.892 44.907,0.009 44.907,0.009 Z" id="path-2" class="cls-3" fill-rule="evenodd"/>
    <path d="M44.907,0.009 C44.907,0.009 44.907,49.402 44.907,49.402 C44.907,51.885 42.899,53.892 40.416,53.892 C40.416,53.892 0.003,53.892 0.003,53.892 C0.003,53.892 44.907,0.009 44.907,0.009 Z" id="path-3" class="cls-5" fill-rule="evenodd"/>
  </g>
</svg>
