<svg xmlns="http://www.w3.org/2000/svg" xmlns:xlink="http://www.w3.org/1999/xlink" preserveAspectRatio="xMidYMid" width="216" height="167" viewBox="0 0 216 167">
  <defs>
    <style>

      .cls-3 {
        fill: #142a3b;
      }

      .cls-4 {
        fill: #000000;
        opacity: 0.35;
      }

      .cls-5 {
        fill: #ededed;
        opacity: 0.35;
      }

      .cls-14 {
        fill: #ff3a2f;
      }
    </style>
  </defs>
  <g id="group-160svg">
    <path d="M193.092,22.441 C193.092,22.441 22.456,22.441 22.456,22.441 C10.077,22.441 0.004,32.513 0.004,44.892 C0.004,44.892 0.004,143.678 0.004,143.678 C0.004,156.056 10.077,166.130 22.456,166.130 C22.456,166.130 193.092,166.130 193.092,166.130 C205.473,166.130 215.544,156.056 215.544,143.678 C215.544,143.678 215.544,44.892 215.544,44.892 C215.544,32.513 205.473,22.441 193.092,22.441 Z" id="path-1" class="cls-3" fill-rule="evenodd"/>
    <path d="M197.269,22.845 C198.839,25.909 199.743,29.370 199.743,33.042 C199.743,33.042 199.743,131.829 199.743,131.829 C199.743,144.206 189.672,154.280 177.291,154.280 C177.291,154.280 6.656,154.280 6.656,154.280 C5.228,154.280 3.834,154.131 2.480,153.875 C6.202,161.137 13.750,166.130 22.456,166.130 C22.456,166.130 193.092,166.130 193.092,166.130 C205.473,166.130 215.544,156.056 215.544,143.678 C215.544,143.678 215.544,44.892 215.544,44.892 C215.544,33.942 207.658,24.810 197.269,22.845 Z" id="path-2" class="cls-4" fill-rule="evenodd"/>
    <path d="M62.870,130.207 C62.870,130.207 35.927,130.207 35.927,130.207 C33.451,130.207 31.437,128.199 31.437,125.717 C31.437,123.234 33.451,121.226 35.927,121.226 C35.927,121.226 62.870,121.226 62.870,121.226 C65.348,121.226 67.360,123.234 67.360,125.717 C67.360,128.199 65.348,130.207 62.870,130.207 Z" id="path-3" class="cls-5" fill-rule="evenodd"/>
    <path d="M62.870,103.265 C62.870,103.265 35.927,103.265 35.927,103.265 C33.451,103.265 31.437,101.258 31.437,98.774 C31.437,96.293 33.451,94.285 35.927,94.285 C35.927,94.285 62.870,94.285 62.870,94.285 C65.348,94.285 67.360,96.293 67.360,98.774 C67.360,101.258 65.348,103.265 62.870,103.265 Z" id="path-4" class="cls-5" fill-rule="evenodd"/>
    <path d="M125.736,130.207 C125.736,130.207 89.812,130.207 89.812,130.207 C87.335,130.207 85.322,128.199 85.322,125.717 C85.322,123.234 87.335,121.226 89.812,121.226 C89.812,121.226 125.736,121.226 125.736,121.226 C128.214,121.226 130.227,123.234 130.227,125.717 C130.227,128.199 128.214,130.207 125.736,130.207 Z" id="path-5" class="cls-5" fill-rule="evenodd"/>
    <path d="M125.736,103.265 C125.736,103.265 89.812,103.265 89.812,103.265 C87.335,103.265 85.322,101.258 85.322,98.774 C85.322,96.293 87.335,94.285 89.812,94.285 C89.812,94.285 125.736,94.285 125.736,94.285 C128.214,94.285 130.227,96.293 130.227,98.774 C130.227,101.258 128.214,103.265 125.736,103.265 Z" id="path-6" class="cls-5" fill-rule="evenodd"/>
    <path d="M179.621,130.207 C179.621,130.207 152.679,130.207 152.679,130.207 C150.201,130.207 148.188,128.199 148.188,125.717 C148.188,123.234 150.201,121.226 152.679,121.226 C152.679,121.226 179.621,121.226 179.621,121.226 C182.099,121.226 184.111,123.234 184.111,125.717 C184.111,128.199 182.099,130.207 179.621,130.207 Z" id="path-7" class="cls-5" fill-rule="evenodd"/>
    <path d="M179.621,103.265 C179.621,103.265 152.679,103.265 152.679,103.265 C150.201,103.265 148.188,101.258 148.188,98.774 C148.188,96.293 150.201,94.285 152.679,94.285 C152.679,94.285 179.621,94.285 179.621,94.285 C182.099,94.285 184.111,96.293 184.111,98.774 C184.111,101.258 182.099,103.265 179.621,103.265 Z" id="path-8" class="cls-5" fill-rule="evenodd"/>
    <path d="M179.621,76.324 C179.621,76.324 35.927,76.324 35.927,76.324 C33.451,76.324 31.437,74.316 31.437,71.833 C31.437,69.351 33.451,67.343 35.927,67.343 C35.927,67.343 179.621,67.343 179.621,67.343 C182.099,67.343 184.111,69.351 184.111,71.833 C184.111,74.316 182.099,76.324 179.621,76.324 Z" id="path-9" class="cls-5" fill-rule="evenodd"/>
    <path d="M169.559,22.441 C169.559,22.441 169.559,42.563 169.559,42.563 C169.559,45.046 167.547,47.053 165.069,47.053 C162.592,47.053 160.579,45.046 160.579,42.563 C160.579,42.563 160.579,22.441 160.579,22.441 C160.579,22.441 169.559,22.441 169.559,22.441 Z" id="path-10" class="cls-4" fill-rule="evenodd"/>
    <path d="M70.807,22.441 C70.807,22.441 70.807,42.563 70.807,42.563 C70.807,45.046 68.794,47.053 66.316,47.053 C63.839,47.053 61.826,45.046 61.826,42.563 C61.826,42.563 61.826,22.441 61.826,22.441 C61.826,22.441 70.807,22.441 70.807,22.441 Z" id="path-11" class="cls-4" fill-rule="evenodd"/>
    <path d="M58.379,44.892 C60.858,44.892 62.870,42.884 62.870,40.402 C62.870,40.402 62.870,4.480 62.870,4.480 C62.870,1.997 60.858,-0.011 58.379,-0.011 C55.903,-0.011 53.889,1.997 53.889,4.480 C53.889,4.480 53.889,40.402 53.889,40.402 C53.889,42.884 55.903,44.892 58.379,44.892 Z" id="path-12" class="cls-14" fill-rule="evenodd"/>
    <path d="M157.169,44.892 C159.647,44.892 161.659,42.884 161.659,40.402 C161.659,40.402 161.659,4.480 161.659,4.480 C161.659,1.997 159.647,-0.011 157.169,-0.011 C154.692,-0.011 152.679,1.997 152.679,4.480 C152.679,4.480 152.679,40.402 152.679,40.402 C152.679,42.884 154.692,44.892 157.169,44.892 Z" id="path-13" class="cls-14" fill-rule="evenodd"/>
  </g>
</svg>
