<svg xmlns="http://www.w3.org/2000/svg" xmlns:xlink="http://www.w3.org/1999/xlink" preserveAspectRatio="xMidYMid" width="216" height="216" viewBox="0 0 216 216">
  <defs>
    <style>

      .cls-3 {
        fill: #2476ff;
      }

      .cls-4 {
        fill: #ffffff;
        opacity: 0.5;
      }

      .cls-6 {
        fill: #ededed;
      }
    </style>
  </defs>
  <g id="group-13svg">
    <path d="M107.773,-0.010 C48.254,-0.010 0.004,48.239 0.004,107.756 C0.004,167.274 48.254,215.522 107.773,215.522 C167.293,215.522 215.544,167.274 215.544,107.756 C215.544,48.239 167.293,-0.010 107.773,-0.010 ZM107.773,144.419 C87.524,144.419 71.110,128.005 71.110,107.756 C71.110,87.508 87.524,71.094 107.773,71.094 C128.022,71.094 144.437,87.508 144.437,107.756 C144.437,128.005 128.022,144.419 107.773,144.419 Z" id="path-1" class="cls-3" fill-rule="evenodd"/>
    <path d="M98.293,72.376 C98.293,72.376 79.879,3.655 79.879,3.655 C42.784,13.570 13.585,42.770 3.669,79.862 C3.669,79.862 72.392,98.276 72.392,98.276 C75.767,85.659 85.676,75.750 98.293,72.376 Z" id="path-2" class="cls-4" fill-rule="evenodd"/>
    <path d="M143.155,117.237 C139.780,129.853 129.870,139.762 117.254,143.137 C117.254,143.137 135.668,211.858 135.668,211.858 C172.762,201.943 201.963,172.743 211.878,135.650 C211.878,135.650 143.155,117.237 143.155,117.237 Z" id="path-3" class="cls-4" fill-rule="evenodd"/>
    <path d="M107.676,193.675 C62.836,193.675 26.357,157.196 26.357,112.359 C26.357,110.375 27.965,108.767 29.949,108.767 C31.933,108.767 33.542,110.375 33.542,112.359 C33.542,153.235 66.799,186.490 107.676,186.490 C109.659,186.490 111.268,188.098 111.268,190.082 C111.268,192.067 109.659,193.675 107.676,193.675 Z" id="path-4" class="cls-6" fill-rule="evenodd"/>
  </g>
</svg>
