<svg xmlns="http://www.w3.org/2000/svg" xmlns:xlink="http://www.w3.org/1999/xlink" preserveAspectRatio="xMidYMid" width="216" height="124" viewBox="0 0 216 124">
  <defs>
    <style>

      .cls-3 {
        fill: #fbb713;
      }

      .cls-4 {
        fill: #142a3b;
      }

      .cls-5 {
        fill: #000000;
        opacity: 0.45;
      }

      .cls-7 {
        fill: #000000;
        opacity: 0.1;
      }

      .cls-9 {
        fill: #000000;
        opacity: 0.35;
      }
    </style>
  </defs>
  <g id="group-90svg">
    <path d="M107.771,63.232 C48.256,63.232 0.009,72.914 0.009,84.859 C0.009,84.859 0.009,104.419 0.009,104.419 C2.043,129.454 217.709,130.102 215.533,104.419 C215.533,104.419 215.533,84.859 215.533,84.859 C215.533,72.914 167.286,63.232 107.771,63.232 ZM107.771,105.452 C51.102,105.452 5.162,96.232 5.162,84.859 C5.162,73.485 51.102,64.266 107.771,64.266 C164.440,64.266 210.380,73.485 210.380,84.859 C210.380,96.232 164.440,105.452 107.771,105.452 Z" id="path-1" class="cls-3" fill-rule="evenodd"/>
    <path d="M215.541,84.342 C215.541,96.001 167.294,105.452 107.779,105.452 C48.264,105.452 0.017,96.001 0.017,84.342 C0.017,72.682 48.264,63.232 107.779,63.232 C167.294,63.232 215.541,72.682 215.541,84.342 Z" id="path-2" class="cls-4" fill-rule="evenodd"/>
    <path d="M176.136,91.147 C176.136,98.543 145.531,104.538 107.779,104.538 C70.027,104.538 39.422,98.543 39.422,91.147 C39.422,83.752 70.027,77.756 107.779,77.756 C145.531,77.756 176.136,83.752 176.136,91.147 Z" id="path-3" class="cls-5" fill-rule="evenodd"/>
    <path d="M95.162,-0.003 C128.351,-0.003 166.280,23.471 166.280,56.660 C166.280,56.660 49.278,52.393 49.278,52.393 C49.278,52.393 95.162,-0.003 95.162,-0.003 Z" id="path-4" class="cls-3" fill-rule="evenodd"/>
    <path d="M152.651,56.163 C152.651,56.163 166.280,56.660 166.280,56.660 C166.280,23.471 128.352,-0.003 95.162,-0.003 C95.162,-0.003 94.210,1.084 94.210,1.084 C123.509,6.026 152.319,27.399 152.651,56.163 Z" id="path-5" class="cls-7" fill-rule="evenodd"/>
    <path d="M166.280,93.336 C166.280,93.336 49.278,93.336 49.278,93.336 C49.278,93.336 49.278,52.393 49.278,52.393 C49.278,52.393 166.280,52.393 166.280,52.393 C166.280,52.393 166.280,93.336 166.280,93.336 Z" id="path-6" class="cls-3" fill-rule="evenodd"/>
    <path d="M166.280,93.336 C166.280,93.336 49.278,93.336 49.278,93.336 C49.278,93.336 49.278,52.393 49.278,52.393 C49.278,52.393 166.280,52.393 166.280,52.393 C166.280,52.393 166.280,93.336 166.280,93.336 Z" id="path-7" class="cls-9" fill-rule="evenodd"/>
  </g>
</svg>
