<svg xmlns="http://www.w3.org/2000/svg" xmlns:xlink="http://www.w3.org/1999/xlink" preserveAspectRatio="xMidYMid" width="216" height="212" viewBox="0 0 216 212">
  <defs>
    <style>

      .cls-3 {
        fill: #142a3b;
      }

      .cls-6 {
        fill: #0cb04a;
      }

      .cls-7 {
        fill: #000000;
        opacity: 0.35;
      }

      .cls-10 {
        fill: #fbb713;
      }
    </style>
  </defs>
  <g id="group-55svg">
    <path d="M163.195,7.310 C163.195,7.310 15.040,58.529 15.040,58.529 C14.387,58.755 14.041,59.466 14.267,60.119 C14.267,60.119 17.362,69.073 17.362,69.073 C17.588,69.725 18.299,70.071 18.952,69.846 C18.952,69.846 167.108,18.627 167.108,18.627 C167.761,18.401 168.106,17.689 167.881,17.037 C167.881,17.037 164.785,8.082 164.785,8.082 C164.559,7.430 163.847,7.084 163.195,7.310 Z" id="path-1" class="cls-3" fill-rule="evenodd"/>
    <path d="M174.767,211.829 C174.767,211.829 165.292,211.829 165.292,211.829 C164.602,211.829 164.043,211.270 164.043,210.579 C164.043,210.579 164.043,184.342 164.043,184.342 C164.043,183.651 164.602,183.091 165.292,183.091 C165.292,183.091 174.767,183.091 174.767,183.091 C175.457,183.091 176.017,183.651 176.017,184.342 C176.017,184.342 176.017,210.579 176.017,210.579 C176.017,211.270 175.457,211.829 174.767,211.829 Z" id="path-2" class="cls-3" fill-rule="evenodd"/>
    <path d="M50.233,211.829 C50.233,211.829 40.759,211.829 40.759,211.829 C40.068,211.829 39.509,211.270 39.509,210.579 C39.509,210.579 39.509,184.342 39.509,184.342 C39.509,183.651 40.068,183.091 40.759,183.091 C40.759,183.091 50.233,183.091 50.233,183.091 C50.923,183.091 51.482,183.651 51.482,184.342 C51.482,184.342 51.482,210.579 51.482,210.579 C51.482,211.270 50.923,211.829 50.233,211.829 Z" id="path-3" class="cls-3" fill-rule="evenodd"/>
    <path d="M206.283,191.473 C206.283,191.473 9.243,191.473 9.243,191.473 C4.134,191.473 -0.007,187.333 -0.007,182.223 C-0.007,182.223 -0.007,59.430 -0.007,59.430 C-0.007,54.321 4.134,50.179 9.243,50.179 C9.243,50.179 206.283,50.179 206.283,50.179 C211.391,50.179 215.533,54.321 215.533,59.430 C215.533,59.430 215.533,182.223 215.533,182.223 C215.533,187.333 211.391,191.473 206.283,191.473 Z" id="path-4" class="cls-6" fill-rule="evenodd"/>
    <path d="M192.182,51.450 C198.802,58.427 201.163,69.140 201.163,79.516 C201.163,79.516 201.163,142.978 201.163,142.978 C201.163,164.471 183.739,181.894 162.247,181.894 C162.247,181.894 24.540,185.872 24.540,185.872 C19.658,185.872 13.694,183.573 9.388,181.932 C16.480,189.406 22.880,191.473 38.910,191.473 C38.910,191.473 180.594,191.473 180.594,191.473 C202.087,191.473 215.533,178.028 215.533,156.536 C215.533,156.536 215.533,85.117 215.533,85.117 C215.533,68.506 206.832,57.035 192.182,51.450 Z" id="path-5" class="cls-7" fill-rule="evenodd"/>
    <path d="M177.565,12.236 C177.565,19.000 172.081,24.484 165.315,24.484 C158.550,24.484 153.066,19.000 153.066,12.236 C153.066,5.470 158.550,-0.014 165.315,-0.014 C172.081,-0.014 177.565,5.470 177.565,12.236 Z" id="path-6" class="cls-3" fill-rule="evenodd"/>
    <path d="M192.182,120.826 C192.182,144.633 172.882,163.933 149.074,163.933 C125.267,163.933 105.967,144.633 105.967,120.826 C105.967,97.020 125.267,77.720 149.074,77.720 C172.882,77.720 192.182,97.020 192.182,120.826 Z" id="path-7" class="cls-3" fill-rule="evenodd"/>
    <path d="M170.629,120.826 C170.629,132.729 160.978,142.380 149.074,142.380 C137.171,142.380 127.520,132.729 127.520,120.826 C127.520,108.923 137.171,99.273 149.074,99.273 C160.978,99.273 170.629,108.923 170.629,120.826 Z" id="path-8" class="cls-10" fill-rule="evenodd"/>
    <path d="M166.481,108.210 C169.061,111.764 170.629,116.099 170.629,120.826 C170.629,132.729 160.979,142.379 149.074,142.379 C144.346,142.379 140.012,140.813 136.458,138.231 C140.376,143.625 146.687,147.169 153.864,147.169 C165.768,147.169 175.418,137.520 175.418,125.616 C175.418,118.439 171.874,112.128 166.481,108.210 Z" id="path-9" class="cls-7" fill-rule="evenodd"/>
    <path d="M95.262,110.050 C95.262,110.050 24.468,110.050 24.468,110.050 C23.846,110.050 23.343,109.546 23.343,108.925 C23.343,108.925 23.343,100.398 23.343,100.398 C23.343,99.778 23.846,99.273 24.468,99.273 C24.468,99.273 95.262,99.273 95.262,99.273 C95.883,99.273 96.387,99.778 96.387,100.398 C96.387,100.398 96.387,108.925 96.387,108.925 C96.387,109.546 95.883,110.050 95.262,110.050 Z" id="path-10" class="cls-3" fill-rule="evenodd"/>
    <path d="M95.262,157.946 C95.262,157.946 24.468,157.946 24.468,157.946 C23.846,157.946 23.343,157.442 23.343,156.821 C23.343,156.821 23.343,148.293 23.343,148.293 C23.343,147.673 23.846,147.169 24.468,147.169 C24.468,147.169 95.262,147.169 95.262,147.169 C95.883,147.169 96.387,147.673 96.387,148.293 C96.387,148.293 96.387,156.821 96.387,156.821 C96.387,157.442 95.883,157.946 95.262,157.946 Z" id="path-11" class="cls-3" fill-rule="evenodd"/>
    <path d="M95.262,133.998 C95.262,133.998 24.468,133.998 24.468,133.998 C23.846,133.998 23.343,133.495 23.343,132.872 C23.343,132.872 23.343,124.347 23.343,124.347 C23.343,123.725 23.846,123.222 24.468,123.222 C24.468,123.222 95.262,123.222 95.262,123.222 C95.883,123.222 96.387,123.725 96.387,124.347 C96.387,124.347 96.387,132.872 96.387,132.872 C96.387,133.495 95.883,133.998 95.262,133.998 Z" id="path-12" class="cls-3" fill-rule="evenodd"/>
  </g>
</svg>
