<svg xmlns="http://www.w3.org/2000/svg" xmlns:xlink="http://www.w3.org/1999/xlink" preserveAspectRatio="xMidYMid" width="216" height="191" viewBox="0 0 216 191">
  <defs>
    <style>

      .cls-3 {
        fill: #ededed;
      }

      .cls-4 {
        fill: #000000;
        opacity: 0.35;
      }

      .cls-7 {
        fill: #2476ff;
      }
    </style>
  </defs>
  <g id="group-138svg">
    <path d="M124.390,190.012 C124.382,190.012 124.382,190.012 124.382,190.012 C118.639,190.012 113.666,187.216 110.746,182.352 C110.316,181.635 110.092,180.820 110.092,179.986 C110.092,179.986 110.092,155.359 110.092,155.359 C101.177,129.656 92.631,112.902 75.742,103.452 C74.291,102.634 73.394,101.103 73.394,99.445 C73.394,99.445 73.394,24.701 73.394,24.701 C73.394,16.434 86.207,9.176 93.947,9.176 C93.947,9.176 178.611,9.176 178.611,9.176 C182.760,9.176 186.809,11.308 190.321,15.331 C194.899,20.572 197.784,28.097 197.882,34.592 C204.772,39.646 207.971,48.497 207.406,60.959 C214.591,68.511 214.404,79.665 211.895,86.643 C214.977,91.052 215.541,98.658 215.541,103.665 C215.541,117.973 195.805,128.437 187.410,128.437 C187.410,128.437 148.768,128.437 148.768,128.437 C155.452,157.123 148.078,172.720 142.837,179.654 C137.857,186.231 131.137,190.012 124.390,190.012 Z" id="path-1" class="cls-3" fill-rule="evenodd"/>
    <path d="M196.980,28.306 C195.788,23.619 193.469,18.935 190.321,15.331 C189.881,14.826 189.409,14.441 188.953,13.997 C189.122,15.132 189.244,16.258 189.261,17.350 C192.843,19.976 195.403,23.653 196.980,28.306 Z" id="path-2" class="cls-4" fill-rule="evenodd"/>
    <path d="M73.394,90.371 C73.394,90.371 73.394,99.445 73.394,99.445 C73.394,101.103 74.291,102.634 75.742,103.452 C84.132,108.145 90.457,114.651 95.798,123.153 C89.788,108.688 83.141,97.874 73.394,90.371 Z" id="path-3" class="cls-4" fill-rule="evenodd"/>
    <path d="M211.895,86.643 C214.404,79.665 214.591,68.511 207.406,60.959 C207.952,48.901 204.943,40.259 198.510,35.132 C198.830,37.771 198.924,40.631 198.785,43.716 C205.970,51.267 205.782,62.422 203.274,69.400 C206.356,73.809 206.920,81.414 206.920,86.423 C206.920,100.731 187.183,111.193 178.788,111.193 C178.788,111.193 140.147,111.193 140.147,111.193 C146.830,139.880 139.457,155.478 134.216,162.412 C129.235,168.987 122.515,172.769 115.769,172.769 C115.760,172.769 115.760,172.769 115.760,172.769 C113.756,172.769 111.854,172.408 110.092,171.758 C110.092,171.758 110.092,179.986 110.092,179.986 C110.092,180.820 110.316,181.635 110.746,182.352 C113.666,187.216 118.639,190.012 124.382,190.012 C124.382,190.012 124.382,190.012 124.390,190.012 C131.137,190.012 137.856,186.231 142.837,179.654 C148.078,172.720 155.452,157.123 148.768,128.437 C148.768,128.437 187.409,128.437 187.409,128.437 C195.804,128.437 215.542,117.973 215.542,103.667 C215.542,98.658 214.977,91.052 211.895,86.643 Z" id="path-4" class="cls-4" fill-rule="evenodd"/>
    <path d="M66.479,128.437 C66.479,128.437 16.092,128.437 16.092,128.437 C7.222,128.437 0.001,121.225 0.001,112.355 C0.001,112.355 0.001,16.083 0.001,16.083 C0.001,7.214 7.222,0.003 16.092,0.003 C16.092,0.003 66.479,0.003 66.479,0.003 C75.348,0.003 82.569,7.214 82.569,16.083 C82.569,16.083 82.569,112.355 82.569,112.355 C82.569,121.225 75.348,128.437 66.479,128.437 Z" id="path-5" class="cls-7" fill-rule="evenodd"/>
    <path d="M72.696,1.255 C73.499,3.166 73.948,5.262 73.948,7.462 C73.948,7.462 73.948,103.734 73.948,103.734 C73.948,112.604 66.726,119.816 57.857,119.816 C57.857,119.816 7.470,119.816 7.470,119.816 C5.267,119.816 3.168,119.366 1.253,118.561 C3.689,124.357 9.422,128.437 16.092,128.437 C16.092,128.437 66.479,128.437 66.479,128.437 C75.348,128.437 82.570,121.225 82.570,112.355 C82.570,112.355 82.570,16.083 82.570,16.083 C82.570,9.418 78.488,3.690 72.696,1.255 Z" id="path-6" class="cls-4" fill-rule="evenodd"/>
  </g>
</svg>
