<svg xmlns="http://www.w3.org/2000/svg" xmlns:xlink="http://www.w3.org/1999/xlink" preserveAspectRatio="xMidYMid" width="216" height="185" viewBox="0 0 216 185">
  <defs>
    <style>

      .cls-3 {
        fill: #ff3a2f;
      }

      .cls-4 {
        fill: #000000;
        opacity: 0.35;
      }

      .cls-5 {
        fill: #142a3b;
      }

      .cls-7 {
        fill: #ffffff;
      }

      .cls-8 {
        fill: #fbb713;
      }
    </style>
  </defs>
  <g id="group-164svg">
    <path d="M33.632,140.955 C33.632,131.668 16.816,105.746 16.816,105.746 C16.816,105.746 -0.001,131.668 -0.001,140.955 C-0.001,150.242 7.528,157.771 16.816,157.771 C26.104,157.771 33.632,150.242 33.632,140.955 Z" id="path-1" class="cls-3" fill-rule="evenodd"/>
    <path d="M16.816,105.632 C16.816,105.632 15.709,107.343 14.071,110.021 C19.022,118.436 25.795,131.025 25.795,136.922 C25.795,146.210 18.266,153.739 8.978,153.739 C7.873,153.739 6.796,153.618 5.751,153.414 C8.713,156.023 12.558,157.658 16.816,157.658 C26.104,157.658 33.632,150.129 33.632,140.841 C33.632,131.554 16.816,105.632 16.816,105.632 Z" id="path-2" class="cls-4" fill-rule="evenodd"/>
    <path d="M174.423,124.426 C174.423,124.426 215.540,165.542 215.540,165.542 C215.540,165.542 196.434,184.646 196.434,184.646 C196.434,184.646 155.318,143.531 155.318,143.531 C155.318,143.531 174.423,124.426 174.423,124.426 Z" id="path-3" class="cls-5" fill-rule="evenodd"/>
    <path d="M174.423,124.426 C174.423,124.426 184.841,134.845 184.841,134.845 C184.841,134.845 165.736,153.949 165.736,153.949 C165.736,153.949 155.318,143.531 155.318,143.531 C155.318,143.531 174.423,124.426 174.423,124.426 Z" id="path-4" class="cls-4" fill-rule="evenodd"/>
    <path d="M198.510,171.210 C197.591,171.210 196.672,170.860 195.970,170.158 C195.970,170.158 186.004,160.192 186.004,160.192 C184.601,158.788 184.601,156.516 186.004,155.112 C187.407,153.708 189.680,153.708 191.084,155.112 C191.084,155.112 201.050,165.079 201.050,165.079 C202.453,166.482 202.453,168.754 201.050,170.158 C200.348,170.860 199.429,171.210 198.510,171.210 Z" id="path-5" class="cls-7" fill-rule="evenodd"/>
    <path d="M186.051,79.339 C186.051,79.339 106.309,159.078 106.309,159.078 C106.309,159.078 43.545,96.316 43.545,96.316 C43.545,96.316 122.923,17.042 122.923,17.042 C122.923,17.042 186.051,79.339 186.051,79.339 Z" id="path-6" class="cls-8" fill-rule="evenodd"/>
    <path d="M90.423,49.427 C90.423,49.427 43.596,96.253 43.596,96.253 C43.596,96.253 47.515,100.171 47.515,100.171 C47.515,100.171 94.342,53.346 94.342,53.346 C94.342,53.346 90.423,49.427 90.423,49.427 Z" id="path-7" class="cls-4" fill-rule="evenodd"/>
    <path d="M110.709,36.532 C110.709,36.532 126.841,20.849 126.841,20.849 C126.841,20.849 109.813,3.820 109.813,3.820 C109.813,3.820 105.894,7.739 105.894,7.739 C105.894,7.739 119.004,20.849 119.004,20.849 C119.004,20.849 101.145,38.707 101.145,38.707 C101.145,38.707 114.902,52.463 114.902,52.463 C118.928,56.489 118.019,61.842 113.993,65.868 C112.992,66.869 110.391,65.415 109.150,65.917 C113.993,70.134 119.715,70.128 122.740,67.103 C126.766,63.077 129.324,58.214 124.467,50.289 C124.467,50.289 110.709,36.532 110.709,36.532 Z" id="path-8" class="cls-4" fill-rule="evenodd"/>
    <path d="M105.894,0.015 C105.894,0.015 26.568,79.339 26.568,79.339 C26.568,79.339 43.596,96.367 43.596,96.367 C43.596,96.367 90.423,49.541 90.423,49.541 C90.423,49.541 104.181,63.298 104.181,63.298 C108.207,67.324 114.795,67.324 118.821,63.298 C122.847,59.272 122.847,52.685 118.821,48.658 C118.821,48.658 105.064,34.901 105.064,34.901 C105.064,34.901 122.923,17.042 122.923,17.042 C122.923,17.042 105.894,0.015 105.894,0.015 Z" id="path-9" class="cls-3" fill-rule="evenodd"/>
    <path d="M204.326,97.612 C204.326,97.612 124.584,177.352 124.584,177.352 C124.584,177.352 105.479,158.248 105.479,158.248 C105.479,158.248 185.220,78.508 185.220,78.508 C185.220,78.508 204.326,97.612 204.326,97.612 Z" id="path-10" class="cls-5" fill-rule="evenodd"/>
    <path d="M185.309,78.596 C185.309,78.596 105.568,158.337 105.568,158.337 C105.568,158.337 103.445,156.215 103.445,156.215 C103.445,156.215 180.574,73.862 180.574,73.862 C180.574,73.862 185.309,78.596 185.309,78.596 Z" id="path-11" class="cls-4" fill-rule="evenodd"/>
  </g>
</svg>
