<svg xmlns="http://www.w3.org/2000/svg" xmlns:xlink="http://www.w3.org/1999/xlink" preserveAspectRatio="xMidYMid" width="216" height="145" viewBox="0 0 216 145">
  <defs>
    <style>

      .cls-3 {
        fill: #142a3b;
      }

      .cls-4 {
        fill: #ededed;
      }

      .cls-5 {
        fill: #000000;
        opacity: 0.35;
      }

      .cls-6 {
        fill: #ff3a2f;
      }
    </style>
  </defs>
  <g id="group-57svg">
    <path d="M215.554,144.284 C215.554,144.284 0.014,144.284 0.014,144.284 C0.014,144.284 0.014,-0.004 0.014,-0.004 C0.014,-0.004 215.554,-0.004 215.554,-0.004 C215.554,-0.004 215.554,144.284 215.554,144.284 Z" id="path-1" class="cls-3" fill-rule="evenodd"/>
    <path d="M157.342,125.267 C157.342,125.267 22.725,125.267 22.725,125.267 C22.725,125.267 22.725,19.014 22.725,19.014 C22.725,19.014 157.342,19.014 157.342,19.014 C157.342,19.014 157.342,125.267 157.342,125.267 Z" id="path-2" class="cls-4" fill-rule="evenodd"/>
    <path d="M30.332,26.621 C30.332,26.621 157.342,26.621 157.342,26.621 C157.342,26.621 157.342,19.014 157.342,19.014 C157.342,19.014 22.725,19.014 22.725,19.014 C22.725,19.014 22.725,125.267 22.725,125.267 C22.725,125.267 30.332,125.267 30.332,125.267 C30.332,125.267 30.332,26.621 30.332,26.621 Z" id="path-3" class="cls-5" fill-rule="evenodd"/>
    <path d="M205.411,41.202 C205.411,41.202 171.178,41.202 171.178,41.202 C171.178,41.202 171.178,19.014 171.178,19.014 C171.178,19.014 205.411,19.014 205.411,19.014 C205.411,19.014 205.411,41.202 205.411,41.202 Z" id="path-4" class="cls-6" fill-rule="evenodd"/>
    <path d="M205.411,84.942 C205.411,84.942 171.178,84.942 171.178,84.942 C171.178,84.942 171.178,79.236 171.178,79.236 C171.178,79.236 205.411,79.236 205.411,79.236 C205.411,79.236 205.411,84.942 205.411,84.942 Z" id="path-5" class="cls-4" fill-rule="evenodd"/>
    <path d="M205.411,122.977 C205.411,122.977 171.178,122.977 171.178,122.977 C171.178,122.977 171.178,117.272 171.178,117.272 C171.178,117.272 205.411,117.272 205.411,117.272 C205.411,117.272 205.411,122.977 205.411,122.977 Z" id="path-6" class="cls-4" fill-rule="evenodd"/>
    <path d="M205.411,103.959 C205.411,103.959 171.178,103.959 171.178,103.959 C171.178,103.959 171.178,98.254 171.178,98.254 C171.178,98.254 205.411,98.254 205.411,98.254 C205.411,98.254 205.411,103.959 205.411,103.959 Z" id="path-7" class="cls-4" fill-rule="evenodd"/>
    <path d="M161.145,101.107 C161.145,101.107 140.749,101.107 140.749,101.107 C140.749,101.107 140.749,41.202 140.749,41.202 C140.749,41.202 161.145,41.202 161.145,41.202 C161.145,41.202 161.145,101.107 161.145,101.107 Z" id="path-8" class="cls-3" fill-rule="evenodd"/>
    <path d="M140.749,101.107 C140.749,101.107 140.749,48.809 140.749,48.809 C140.749,48.809 133.141,48.809 133.141,48.809 C133.141,48.809 133.141,108.714 133.141,108.714 C133.141,108.714 153.538,108.714 153.538,108.714 C153.538,108.714 153.538,101.107 153.538,101.107 C153.538,101.107 140.749,101.107 140.749,101.107 Z" id="path-9" class="cls-5" fill-rule="evenodd"/>
  </g>
</svg>
