<svg xmlns="http://www.w3.org/2000/svg" xmlns:xlink="http://www.w3.org/1999/xlink" preserveAspectRatio="xMidYMid" width="216" height="196" viewBox="0 0 216 196">
  <defs>
    <style>

      .cls-3 {
        fill: #142a3b;
      }

      .cls-4 {
        fill: #060606;
        opacity: 0.35;
      }

      .cls-5 {
        fill: #fbb713;
      }

      .cls-6 {
        fill: #060606;
        opacity: 0.25;
      }
    </style>
  </defs>
  <g id="group-43svg">
    <path d="M107.780,32.724 C128.767,32.724 150.400,20.745 154.701,0.477 C154.701,0.477 154.773,0.511 154.773,0.511 C154.773,0.511 154.773,0.003 154.773,0.003 C154.773,0.003 60.876,0.003 60.876,0.003 C65.252,20.535 87.249,32.724 107.780,32.724 Z" id="path-1" class="cls-3" fill-rule="evenodd"/>
    <path d="M138.090,0.003 C132.198,18.173 111.871,28.806 92.104,28.806 C90.355,28.806 88.595,28.685 86.836,28.510 C93.476,31.246 100.708,32.725 107.780,32.725 C128.767,32.725 150.400,20.745 154.701,0.477 C154.701,0.477 154.773,0.511 154.773,0.511 C154.773,0.511 154.773,0.003 154.773,0.003 C154.773,0.003 138.090,0.003 138.090,0.003 Z" id="path-2" class="cls-4" fill-rule="evenodd"/>
    <path d="M201.245,78.522 C201.245,78.522 172.882,78.522 172.882,78.522 C170.146,78.522 170.479,79.017 170.479,81.749 C170.479,81.749 170.479,195.268 170.479,195.268 C170.479,195.268 53.728,195.268 53.728,195.268 C53.728,195.268 53.728,81.749 53.728,81.749 C53.728,79.017 47.059,78.522 44.327,78.522 C44.327,78.522 14.323,78.522 14.323,78.522 C14.323,78.522 0.005,30.041 0.005,30.041 C0.005,30.041 60.876,0.003 60.876,0.003 C65.252,20.534 87.249,32.725 107.780,32.725 C128.767,32.725 150.400,20.745 154.701,0.477 C154.701,0.477 215.546,30.137 215.546,30.137 C215.546,30.137 201.245,78.522 201.245,78.522 Z" id="path-3" class="cls-5" fill-rule="evenodd"/>
    <path d="M154.701,0.477 C154.333,2.212 153.796,3.860 153.186,5.470 C153.186,5.470 203.789,30.138 203.789,30.138 C203.789,30.138 189.488,78.522 189.488,78.522 C189.488,78.522 201.245,78.522 201.245,78.522 C201.245,78.522 215.545,30.138 215.545,30.138 C215.545,30.138 154.701,0.477 154.701,0.477 Z" id="path-4" class="cls-6" fill-rule="evenodd"/>
    <path d="M96.024,32.725 C98.010,32.725 100.000,32.583 101.983,32.371 C83.279,30.331 64.842,18.609 60.876,0.003 C60.876,0.003 50.655,5.047 50.655,5.047 C57.279,22.501 77.243,32.725 96.024,32.725 Z" id="path-5" class="cls-6" fill-rule="evenodd"/>
    <path d="M158.722,81.749 C158.722,81.749 158.722,195.268 158.722,195.268 C158.722,195.268 170.479,195.268 170.479,195.268 C170.479,195.268 170.479,81.749 170.479,81.749 C170.479,79.017 170.145,78.522 172.882,78.522 C172.882,78.522 161.126,78.522 161.126,78.522 C158.389,78.522 158.722,79.017 158.722,81.749 Z" id="path-6" class="cls-6" fill-rule="evenodd"/>
  </g>
</svg>
