<?xml version="1.0" encoding="utf-8"?>
<!-- Generator: Adobe Illustrator 15.0.0, SVG Export Plug-In . SVG Version: 6.00 Build 0)  -->
<!DOCTYPE svg PUBLIC "-//W3C//DTD SVG 1.1//EN" "http://www.w3.org/Graphics/SVG/1.1/DTD/svg11.dtd">
<svg version="1.1" id="Layer_1" xmlns="http://www.w3.org/2000/svg" xmlns:xlink="http://www.w3.org/1999/xlink" x="0px" y="0px"
	 width="101.901px" height="156.396px" viewBox="0 0 101.901 156.396" enable-background="new 0 0 101.901 156.396"
	 xml:space="preserve">
<g>
	<g>
		<path fill="#769A9B" d="M32.437,65.211c0.024-0.798,0.108-1.593,0.338-2.382c0.35-1.196,2.899-6.575,0.492-7.132
			c-0.729-0.17-2.294,1.764-2.715,2.18c-2.169,2.133-3.955,4.606-5.96,6.903c-2.77,3.173-5.646,6.466-7.281,10.396
			c-1.506,3.629-1.183,7.783-0.484,11.6c0.203,1.093,0.518,3.445,2.159,2.497c0.953-0.548,1.235-3.004,1.447-3.933
			c0.713-3.17,1.805-6.09,4.477-8.183c1.868-1.465,4.324-2.255,5.941-4.05C32.992,70.727,32.353,67.969,32.437,65.211z"/>
		<path fill="#99B9BA" d="M17.436,77.629c1.107-4.07,2.088-5.398,3.409-8.34c-1.398,1.833-2.649,3.762-3.534,5.887
			c-1.506,3.629-1.183,7.783-0.484,11.6c0.133,0.725,0.326,1.979,0.909,2.484C17.621,86.111,16.713,80.275,17.436,77.629z"/>
		<path fill="#688887" d="M32.774,62.829c0.35-1.196,2.899-6.575,0.492-7.132c-0.729-0.17-2.294,1.764-2.715,2.18
			c-2.169,2.133-3.955,4.606-5.96,6.903c-0.713,0.816-1.433,1.643-2.136,2.482c0.021-0.024,0.615,1.776,0.667,2.011
			c0.252,1.113,0.394,2.125,0.33,3.273c-0.043,0.778-0.278,1.658-0.521,2.4c-0.598,1.841-1.565,3.547-2.165,5.383
			c-0.659,2.013-0.984,4.107-1.334,6.19c-0.176,1.028-0.45,1.983-0.789,2.904c0.107-0.036,0.22-0.083,0.341-0.152
			c0.953-0.548,1.235-3.004,1.447-3.933c0.713-3.17,1.805-6.09,4.477-8.183c1.868-1.465,4.324-2.255,5.941-4.05
			c2.142-2.381,1.502-5.139,1.586-7.896C32.461,64.413,32.545,63.618,32.774,62.829z"/>
		<path fill="#4F6967" d="M17.852,87.574c-0.025-0.184-0.047-0.369-0.059-0.543c-0.023-0.254-0.037-0.511-0.052-0.769
			c-0.024-0.337-0.015-0.737-0.115-1.054c-0.19,0.449-0.188,0.961-0.19,1.436c0,0.475-0.025,1.063,0.168,1.509
			c0.077,0.177,0.169,0.323,0.234,0.511c0.066,0.199,0.135,0.436,0.294,0.585c0.053-0.188-0.049-0.485-0.098-0.681
			C17.962,88.258,17.898,87.914,17.852,87.574z"/>
		<path fill="#4F6967" d="M18.863,87.509c0.016-0.187,0.038-0.368,0.062-0.542c0.034-0.254,0.081-0.507,0.122-0.762
			c0.055-0.334,0.152-0.723,0.122-1.053c-0.285,0.396-0.396,0.893-0.502,1.357c-0.106,0.465-0.268,1.031-0.176,1.51
			c0.035,0.186,0.093,0.352,0.114,0.549c0.022,0.209,0.036,0.453,0.155,0.634c0.095-0.173,0.062-0.483,0.06-0.683
			C18.818,88.2,18.833,87.849,18.863,87.509z"/>
	</g>
	<g>
		<path fill="#F2EDDF" d="M101.017,149.483c-3.47-7.789-10.69-11.224-15.019-18.061c-4.898-7.735-7.314-15.776-9.723-24.417
			c-1.024-3.684-4.566-13.923-9.874-12.606c-1.832,0.454-1.515,10.526-1.663,12.052c-0.381,3.908-2.44,7.957-2.294,11.863
			c0.009,0.16-0.001,0.322,0.009,0.484c0.39,6.613,2.521,13.113,5.335,19.07c2.908,6.155,8.169,14.255,14.896,16.774
			c2.904,1.089,5.547,1.312,8.575,1.524C96.903,156.568,104.512,157.335,101.017,149.483z"/>
		<path opacity="0.44" fill="#D9D4C5" d="M101.017,149.483c-3.47-7.789-10.69-11.224-15.019-18.061
			c-4.898-7.735-7.314-15.776-9.723-24.417c-1.024-3.684-4.566-13.923-9.874-12.606c-1.851,0.46-2.347,7.288-1.868,8.653
			c0.863,2.459,4.396,3.068,6.221,4.836c4.561,4.43,4.914,11.506,6.843,17.223c2.475,7.33,9.325,10.805,13.184,17.083
			c2.204,3.59,3.051,9.089-2.929,7.412c-3.987-1.119-7.81-5.428-10.325-8.499c-7.072-8.645-9.063-19.912-11.521-30.385
			c-3.067-0.203-3.634,5.552-3.561,7.592c0.009,0.16-0.001,0.322,0.009,0.484c0.39,6.613,2.521,13.113,5.335,19.07
			c2.908,6.155,8.169,14.255,14.896,16.774c2.904,1.089,5.547,1.312,8.575,1.524C96.903,156.568,104.512,157.335,101.017,149.483z"
			/>
		<path fill="#D9D4C5" d="M101.017,149.483c-3.47-7.789-10.69-11.224-15.019-18.061c-4.898-7.735-7.314-15.776-9.723-24.417
			c-1.024-3.684-4.566-13.923-9.874-12.606c-0.876,0.219-1.444,1.862-1.755,3.679c8.14,1.716,11.752,12.707,14.304,19.533
			c1.816,4.865,3.132,11.156,6.344,15.324c3.2,4.152,8.048,7.422,10.116,12.396c1.176,2.828,1.455,6.95-2.001,8.416
			c-3.181,1.349-6.443-0.176-9.106-2.168c-6.475-3.022-11.165-9.285-14.236-15.875c-3.092-6.629-6.724-14.201-7.088-21.752
			c-0.451,1.602-0.57,3.395-0.534,4.361c0.009,0.16-0.001,0.322,0.009,0.484c0.39,6.613,2.521,13.113,5.335,19.07
			c2.908,6.155,8.169,14.255,14.896,16.774c2.904,1.089,5.547,1.312,8.575,1.524C96.903,156.568,104.512,157.335,101.017,149.483z"
			/>
		<path fill="#586161" d="M97.457,143.915c-3.197-0.119-6.043,1.595-6.954,5.42c-0.636,2.666-0.071,4.878,1.116,6.858
			c5.604,0.402,12.819,0.977,9.397-6.71C100.068,147.353,98.832,145.553,97.457,143.915z"/>
		<path fill="#4C5252" d="M101.017,149.483c-0.948-2.131-2.185-3.931-3.56-5.568c-0.694-0.024-1.364,0.052-2.005,0.2
			c1.594,1.466,2.948,4.229,2.311,6.357c-0.94,3.115-3.771,2.637-6.362,2.647c-0.451,0-0.802-0.152-1.063-0.395
			c0.188,1.247,0.639,2.395,1.282,3.468C97.223,156.596,104.438,157.17,101.017,149.483z"/>
		<path fill="#586161" d="M71.053,124.484c2.979-2.396,6.053-4.084,9.331-4.531c-0.363-0.966-0.716-1.936-1.051-2.914
			c-5.709,1.027-11.6,5.619-15.276,10.953c0.336,1.191,0.723,2.371,1.133,3.541C66.217,128.748,68.574,126.479,71.053,124.484z"/>
		<path fill="#586161" d="M63.961,122.975c3.06-5.771,7.195-12.341,12.973-13.731c-0.215-0.751-0.445-1.478-0.658-2.237
			c-1.024-3.684-4.566-13.923-9.874-12.606c-1.832,0.454-1.515,10.526-1.663,12.052c-0.381,3.908-2.44,7.957-2.294,11.863
			c0.009,0.16-0.001,0.322,0.009,0.484c0.1,1.725,0.325,3.439,0.646,5.143C63.376,123.609,63.673,123.295,63.961,122.975z"/>
		<path fill="#4C5252" d="M70.179,108.135c0.234-1.277,0.531-3.127,1.563-4.05c2.734-2.452,4.121,2.908,4.455,5.38
			c0.243-0.082,0.485-0.161,0.736-0.222c-0.215-0.751-0.445-1.478-0.658-2.237c-1.024-3.684-4.566-13.923-9.874-12.606
			c-1.832,0.454-1.515,10.526-1.663,12.052c-0.381,3.908-2.44,7.957-2.294,11.863c0.009,0.16-0.001,0.322,0.009,0.484
			c0.1,1.725,0.325,3.439,0.646,5.143c0.276-0.332,0.573-0.646,0.861-0.967c0.404-0.761,0.828-1.535,1.271-2.311
			c1.195-2.677,2.684-5.213,3.591-8.016c0.451-1.397,0.792-2.906,1.324-4.314C70.156,108.269,70.166,108.199,70.179,108.135z"/>
		<path fill="#586161" d="M82.505,125.008c-0.21,0.031-0.429,0.061-0.635,0.098c-5.102,1.742-9.644,4.117-12.417,9.222
			c-0.635,1.167-1.168,2.355-1.658,3.558c0.521,1.101,1.118,2.264,1.783,3.443c2.588-6.894,7.854-13.025,14.016-14.14
			C83.215,126.463,82.847,125.738,82.505,125.008z"/>
		<path fill="#586161" d="M74.372,148.27c0.772,0.904,1.582,1.767,2.432,2.555c0.169-2.838,0.734-5.645,1.156-6.923
			c1.075-3.248,5.487-9.514,9.714-10.181c-0.455-0.566-0.892-1.152-1.309-1.766C79.111,133.174,75.693,141.204,74.372,148.27z"/>
		<path fill="#586161" d="M85.354,147.633c1.067-3.633,4.317-6.99,8.03-7.959c-0.77-0.744-1.545-1.484-2.308-2.24
			c-7.371,2.531-9.532,10.029-8.479,17.173c0.029,0.01,0.057,0.026,0.087,0.037c0.698,0.262,1.382,0.463,2.058,0.635
			C84.358,152.854,84.57,150.302,85.354,147.633z"/>
		<path fill="#4C5252" d="M76.037,121.332c1.415-0.675,2.855-1.176,4.347-1.379c-0.363-0.966-0.716-1.936-1.051-2.914
			c-1.352,0.246-2.706,0.72-4.041,1.334C75.625,119.339,75.896,120.316,76.037,121.332z"/>
		<path fill="#4C5252" d="M67.154,124.245c-1.139,1.181-2.193,2.435-3.098,3.747c0.336,1.191,0.723,2.371,1.133,3.541
			c0.541-1.458,1.459-2.761,2.553-3.967C67.469,126.477,67.274,125.369,67.154,124.245z"/>
		<path fill="#4C5252" d="M79.111,128.964c1.417-0.864,2.917-1.492,4.482-1.775c-0.379-0.726-0.747-1.45-1.089-2.181
			c-0.21,0.031-0.429,0.061-0.635,0.098c-1.403,0.479-2.757,1.02-4.047,1.644C78.272,127.477,78.716,128.207,79.111,128.964z"/>
		<path fill="#4C5252" d="M70.063,133.33c-0.212,0.318-0.418,0.645-0.609,0.997c-0.635,1.167-1.168,2.355-1.658,3.558
			c0.521,1.101,1.118,2.264,1.783,3.443c0.558-1.484,1.255-2.923,2.049-4.289C70.973,135.801,70.441,134.547,70.063,133.33z"/>
		<path fill="#4C5252" d="M84.021,135.529c1.175-0.936,2.423-1.614,3.652-1.809c-0.455-0.566-0.892-1.152-1.309-1.766
			c-1.406,0.236-2.65,0.758-3.781,1.453C83.065,134.119,83.563,134.813,84.021,135.529z"/>
		<path fill="#4C5252" d="M75.845,142.822c-0.646,1.791-1.137,3.646-1.473,5.447c0.772,0.904,1.582,1.767,2.432,2.555
			c0.146-2.45,0.588-4.868,0.978-6.309C77.108,144.006,76.462,143.44,75.845,142.822z"/>
		<path fill="#4C5252" d="M89.855,141.412c1.079-0.796,2.274-1.41,3.528-1.738c-0.77-0.744-1.545-1.484-2.308-2.24
			c-1.277,0.439-2.383,1.035-3.356,1.745C88.543,139.861,89.281,140.572,89.855,141.412z"/>
		<path fill="#4C5252" d="M84.803,150.201c-0.806-0.374-1.569-0.837-2.286-1.395c-0.232,1.889-0.206,3.853,0.081,5.8
			c0.029,0.01,0.057,0.026,0.087,0.037c0.698,0.262,1.382,0.463,2.058,0.635C84.484,153.645,84.524,151.946,84.803,150.201z"/>
	</g>
	<g>
		<path fill="#769A9B" d="M28.1,102.666c-0.941,7.178,1.251,11.992,3.13,18.604c0.999,3.52,4.563,8.734,2.691,12.26
			c-1.454,2.734-8.352,4.553-8.251,8.23c0.148,5.422,13.011-0.229,15.382-2.135c2.628-2.117,2.458-4.838,2.262-7.973
			c-0.345-5.42,0.22-8.545,3.26-13.16c6.102-9.255,18.847-26.853,5.302-36.272C39.18,73.387,29.824,89.494,28.1,102.666z"/>
		<path fill="#688887" d="M51.875,82.22C39.18,73.387,29.824,89.494,28.1,102.666c-0.49,3.723-0.127,6.806,0.589,9.838
			c8.262,0.935,13.538,12.194,11.681,19.935c-1.407,5.859-5.369,8.76-11.125,10.055c-1.215,0.271-2.345,0.276-3.416,0.097
			c1.458,3.938,12.989-1.167,15.224-2.965c2.628-2.117,2.458-4.838,2.262-7.973c-0.345-5.42,0.22-8.545,3.26-13.16
			C52.675,109.237,65.42,91.64,51.875,82.22z"/>
	</g>
	<path fill="#8BB0B3" d="M24.955,78.244c0.702,6.753,2.324,13.328,3.731,20.153c2.016,9.766,4.927,15.522,14.097,20.252
		c8.283,4.272,14.951,1.11,21.134-5.401c12.223-12.87,7.739-32.452-3.573-44.242c-3.675-3.83-7.685-8.264-9.295-13.439
		c-1.283-4.139-2.494-7.19-6.766-8.752c-5.849-2.133-14.229-4.17-17.105,2.889c-2.117,5.189-1.781,11.375-2.322,16.865
		C24.459,70.566,24.562,74.436,24.955,78.244z"/>
	<path opacity="0.58" fill="#99B9BA" d="M28.014,78.641c0.063,0.979,0.164,1.957,0.316,2.928c0.874,5.535,2.444,10.818,4.324,16.031
		c0.949,2.626,6.657,13.461,10.219,7.882c0.993-1.552,1.368-3.567,2.232-5.218c0.949-1.811,2.307-3.463,3.456-5.152
		c2.632-3.863,3.91-9.5,1.13-13.629c-1.332-1.979-2.783-2.277-4.771-3.199c-2.36-1.093-3.746-3.197-5.069-5.342
		c-1.289-2.088-2.089-4.492-2.99-6.771c-0.95-2.402-3.054-6.557-6.223-4.355c-2.317,1.608-2.521,5.522-2.591,8.067
		C27.969,72.792,27.825,75.728,28.014,78.641z"/>
	<path opacity="0.45" fill="#728D8C" d="M60.344,69.006c-3.675-3.83-7.685-8.264-9.295-13.439c-1.283-4.139-2.494-7.19-6.766-8.752
		c-5.849-2.133-14.229-4.17-17.105,2.889c-2.117,5.189-1.781,11.375-2.322,16.865c-0.396,3.998-0.294,7.867,0.1,11.676
		c0.702,6.753,2.324,13.328,3.731,20.153c2.016,9.766,4.927,15.522,14.097,20.252c8.283,4.272,14.951,1.11,21.134-5.401
		C76.14,100.378,71.656,80.796,60.344,69.006z M54.322,112.239c-6.265,2.753-13.554,0.714-17.748-4.169
		c-7.572-8.814-9.021-22.549-10.106-28.381c-0.558-3-1.133-19.881,0.918-21.482c1.896-1.479,4.006,0.762,8.941-0.061
		c3.254-0.543,6.374-1.842,9.501,0.021c0.194,0.116,0.36,0.253,0.548,0.372c1.989,0.855,3.497,2.66,4.815,4.373
		c2.573,3.343,5.542,6.242,8.178,9.514c4.809,5.966,6.657,15.382,5.938,22.881C64.613,102.563,61.254,109.194,54.322,112.239z"/>
	<g>
		<g>
			<path fill="#769A9B" d="M9.253,17.648c4.285,4.166,13.673-2.137,13.938-7.176c0.336-6.389-6.693-8.576-11.744-9.996
				c-4.57-1.289-6.599-0.037-6.059,4.68C5.807,8.831,6.375,14.846,9.253,17.648z"/>
			<path fill="#8BB0B3" d="M11.447,0.477c-4.291-1.21-6.343-0.18-6.131,3.861C5.827,3.08,6.148,1.547,7.829,1.139
				c2.839-0.682,7.382,1.834,9.052,4.064c4.066,5.431,1.011,10.322-3.355,13.748c4.391-0.439,9.471-4.791,9.666-8.479
				C23.527,4.084,16.498,1.896,11.447,0.477z"/>
			<path fill="#CFBFAF" d="M16.73,16.287c1.022-3.553,0.313-8.76-2.719-11.248C9.726,1.527,6.313,5.215,6.243,9.594
				c-0.009,0.521,0.014,1.038,0.036,1.555c0.545,2.52,1.418,4.98,2.974,6.5c2.213,2.15,5.047,1.285,7.432-0.809
				C16.661,16.672,16.672,16.488,16.73,16.287z"/>
			<path fill="#9B8C81" d="M14.012,5.039c-2.967-2.43-5.509-1.408-6.82,0.9c1.718-1.674,5.473-1.396,6.844,0.695
				c0.503,0.766,2.016,3.465,0.841,4.305c-0.366,0.264-0.844-0.137-1.188-0.281c-0.018,0.336-0.006,0.688-0.022,1.024
				c-0.29,0.018-0.596,0.007-0.887,0.022c-0.061,0.52,0.56,0.604,0.443,1.128c-0.121,0.552-0.636,0.368-0.761,0.987
				c-0.123,0.604,0.094,0.66-0.361,1.23c-0.313,0.393-0.763,0.758-1.022,1.182c-0.447,0.735-0.406,1.881,0.55,2.222
				c0.74,0.267,2.063,0.452,2.802,0.135c0.314-0.135,2.281-1.575,2.256-1.749c-0.023-0.168-0.013-0.352,0.046-0.553
				C17.753,12.734,17.044,7.527,14.012,5.039z"/>
		</g>
		<g>
			<path fill="#769A9B" d="M62.408,17.648c-4.282,4.166-13.671-2.137-13.937-7.176c-0.336-6.389,6.692-8.576,11.743-9.996
				c4.572-1.289,6.601-0.037,6.061,4.68C65.855,8.831,65.283,14.846,62.408,17.648z"/>
			<path fill="#8BB0B3" d="M60.215,0.477c4.291-1.21,6.344-0.18,6.129,3.861c-0.508-1.258-0.83-2.791-2.514-3.199
				c-2.836-0.682-7.38,1.834-9.048,4.064c-4.067,5.431-1.011,10.322,3.354,13.748c-4.391-0.439-9.471-4.791-9.665-8.479
				C48.136,4.084,55.164,1.896,60.215,0.477z"/>
			<path fill="#CFBFAF" d="M54.933,16.287c-1.026-3.553-0.315-8.76,2.719-11.248c4.282-3.512,7.699,0.176,7.765,4.555
				c0.011,0.521-0.011,1.038-0.033,1.555c-0.547,2.52-1.417,4.98-2.975,6.5c-2.212,2.15-5.045,1.285-7.431-0.809
				C55,16.672,54.989,16.488,54.933,16.287z"/>
			<path fill="#9B8C81" d="M57.651,5.039c2.966-2.43,5.508-1.408,6.82,0.9c-1.718-1.674-5.473-1.396-6.846,0.695
				c-0.502,0.766-2.014,3.465-0.842,4.305c0.369,0.264,0.847-0.137,1.19-0.281c0.016,0.336,0.007,0.688,0.023,1.024
				c0.29,0.018,0.596,0.007,0.887,0.022c0.061,0.52-0.564,0.604-0.445,1.128c0.123,0.552,0.638,0.368,0.762,0.987
				c0.123,0.604-0.093,0.66,0.361,1.23c0.313,0.393,0.764,0.758,1.021,1.182c0.448,0.735,0.407,1.881-0.548,2.222
				c-0.739,0.267-2.063,0.452-2.805,0.135c-0.314-0.135-2.278-1.575-2.254-1.749c0.022-0.168,0.012-0.352-0.045-0.553
				C53.906,12.734,54.617,7.527,57.651,5.039z"/>
		</g>
		<path fill="#8BB0B3" d="M67.307,37.994c-0.177-2.069-1.028-4.237-1.628-6.409c-1.871-6.769-4.498-13.769-8.895-19.071
			c-3.646-4.396-8.311-5.418-13.408-6.235c-3.716-0.595-11.852-0.495-15.166,0c-5.109,0.763-9.762,1.839-13.409,6.235
			c-4.398,5.303-7.021,12.303-8.893,19.071c-0.602,2.172-1.449,4.34-1.627,6.409c-0.155,1.782,0.193,3.492,1.632,5.069
			c4.044,4.45,9.06,6.399,14.245,7.239c3.976,0.643,11.085,4.367,15.635,4.104c4.551,0.264,11.659-3.461,15.635-4.104
			c5.188-0.84,10.199-2.789,14.246-7.239C67.112,41.486,67.46,39.776,67.307,37.994z"/>
		<path fill="#99B9BA" d="M18.301,15.404c-1.05,1.453-1.616,3.138-1.271,4.996c0.81,4.377,4.578,3.864,8.021,4.256
			c5.737,0.651,35.563,7.803,29.708-7.327c-2.465-6.368-9.904-8.646-15.924-8.935c-5.025-0.24-9.261,0.354-13.998,2.251
			C22.554,11.561,19.881,13.217,18.301,15.404z"/>
		<path fill="#728D8C" d="M67.307,37.994c-0.177-2.069-1.028-4.237-1.628-6.409c-1.871-6.769-4.498-13.769-8.895-19.071
			c-0.258-0.314-0.534-0.573-0.804-0.853c2.221,3.871,4.375,9.813,2.999,14.306c-3.066,9.984-15.565,10.13-23.935,8.404
			c-4.919-1.016-9.558-2.726-14.349-4.158c-2.646-0.789-8.294-1.842-9.116-5.152c-0.896-3.597,0.543-8.268,2.429-11.504
			c-3.913,5.161-6.348,11.688-8.101,18.028c-0.602,2.172-1.449,4.34-1.627,6.409c-0.155,1.782,0.193,3.492,1.632,5.069
			c4.044,4.45,9.06,6.399,14.245,7.239c3.976,0.643,11.085,4.367,15.635,4.104c4.551,0.264,11.659-3.461,15.635-4.104
			c5.188-0.84,10.199-2.789,14.246-7.239C67.112,41.486,67.46,39.776,67.307,37.994z"/>
		<path fill="#F2EDDF" d="M68.031,37.93c0.727-0.401,1.656-0.736,2.144-1.464c-0.248-0.4-0.579-0.538-0.909-0.841
			c-1.041-0.947-2.918-1.506-4.088-2.388c-1.462-1.097-2.822-2.465-3.951-3.877c-1.806-2.252-2.954-5.312-5.158-7.24
			c-3.318-2.901-7.738-6.262-12.425-4.797c-2.663,0.835-4.008,3.546-6.812,4.056c-2.157,0.389-5.032-0.254-6.95-1.303
			c-1.665-0.908-2.696-2.162-4.736-2.428c-3.923-0.515-7.837,1.781-10.358,4.627c-3.146,3.553-6.311,7.073-9.707,10.419
			C3.713,34.045,1.813,36.412,0,37.045c0.839,0.593,1.676,1.713,2.802,1.957c-0.491,0.633-1.153,1.269-1.203,2.061
			c0.747-0.055,1.547,0.088,2.263,0.231c-0.23,0.81-1.737,1.458-1.895,2.325c-0.291,1.654,1.05,0.159,1.893,1.059
			c0.285,0.309-0.284,1.032-0.163,1.208c0.392,0.569,0.543,0.464,1.078,0.89c2.25,1.783,5.773,2.381,8.466,2.933
			c4.653,0.957,8.622,3.478,13.031,5.233c2.661,1.063,5.468,2.178,8.346,2.315c3.365,0.159,5.169-0.461,7.998-1.957
			c2.651-1.398,5.862-3.064,8.879-3.731c2.355-0.524,4.46-1.368,6.853-1.86c1.029-0.21,2.417-0.118,3.377-0.6
			c1.396-0.7,1.595-1.875,3.171-2.426c1.349-0.474,2.65-0.392,3.134-2.039c0.164-0.562-0.452-0.734-0.058-1.47
			c0.186-0.344,1.199-0.686,1.497-1.023c-0.282-0.188-0.511-0.706-0.76-0.887c2.212-1.146-0.162-2.211-0.893-3.208
			C67.885,38.014,67.956,37.971,68.031,37.93z"/>
		<path fill="#FCF9F0" d="M56.164,22.215c-0.033-0.031-0.062-0.065-0.096-0.095c-3.318-2.901-7.738-6.262-12.425-4.797
			c-2.663,0.835-4.008,3.546-6.812,4.056c-2.157,0.389-5.032-0.254-6.95-1.303c-1.665-0.908-2.696-2.162-4.736-2.428
			c-3.923-0.515-7.837,1.781-10.358,4.627c-0.398,0.449-0.799,0.896-1.197,1.345c-0.099,0.513-0.073,1.048,0.194,1.616
			c0.595,1.262,2.651,1.439,3.854,1.264c1.252-0.184,2.261-1.118,3.399-1.625c2.87-1.29,5.044-1.67,7.649,0.457
			c3.039,2.479,6.544,5.507,10.618,3.145c1.118-0.649,2.263-1.666,3.031-2.707c0.583-0.788,0.908-1.615,2.012-1.803
			c1.83-0.309,3.417,1.661,5.156,1.984C52.403,26.491,57.338,25.738,56.164,22.215z"/>
		<path fill="#FCF9F0" d="M44.271,41.051c-0.601-0.669-1.429-1.236-2.489-1.666c-1.903-0.764-4.041-0.77-6.062-0.857
			c-4.5-0.197-11.452,1.523-9.674,7.605c1.182,4.04,6.845,5.372,10.493,5.372c2.607,0,5.095-0.425,6.913-2.458
			C45.827,46.396,46.227,43.211,44.271,41.051z"/>
		<path opacity="0.44" fill="#D9D4C5" d="M70.175,36.466c-0.248-0.4-0.579-0.538-0.909-0.841c-1.041-0.947-2.918-1.506-4.088-2.388
			c-0.974-0.729-1.896-1.587-2.743-2.492c0.247,1.005,0.425,1.999,0.493,2.929c0.021,0.301-0.234,0.619-0.522,0.684
			c-0.151,0.025-0.297,0.064-0.438,0.101c0.17-0.032,0.67,1.88,0.717,2.052c0.274,0.979,0.35,1.95,1.381,2.439
			c0.014,0.144,0,0.285,0.002,0.426c-0.462,0.234-0.986,0.178-1.364-0.172c0.336,0.309,0.39,1.549,0.093,1.859
			c-0.484,0.508-1.702,0.139-2.315,0.336c-0.112,0.668,0.323,1.115,0.225,1.624c0.079-0.402-0.616,0.663-0.564,0.579
			c-0.023,0.037,0.091,0.776,0.073,0.916c-2.245,0.285-4.539,0.157-6.771,0.494c-2.313,0.346-4.616,1.033-6.533,2.417
			c-2.785,2.012-5.197,4.806-8.806,5.224c-4.107,0.477-7.974-1.199-11.624-2.836c-1.971-0.883-3.932-1.799-5.838-2.859
			c-1.813-1.005-3.45-2.265-5.582-2.105c-2.157,0.16-4.396,0.092-6.434-0.808c0.142-0.659,0.768-0.928,0.554-1.673
			c-0.199-0.7-1.051-0.668-1.341-1.191c-0.194-0.353,0.647-3.223,0.285-3.166c-0.338,0.055-0.736-0.113-1.02-0.129
			c0.226-0.321,0.241-0.696,0.32-1.039c-0.409-0.012-0.839-0.025-1.249-0.037c0.16-1.109,2.045-1.564,1.714-2.891
			c-0.435,0.16-0.891,0.25-1.365,0.205c-0.055-1.154,0.574-2.787,0.959-3.861c-0.789,0.818-1.589,1.631-2.403,2.433
			C3.713,34.045,1.813,36.412,0,37.045c0.839,0.593,1.676,1.713,2.802,1.957c-0.491,0.633-1.153,1.269-1.203,2.061
			c0.747-0.055,1.547,0.088,2.263,0.231c-0.23,0.81-1.737,1.458-1.895,2.325c-0.291,1.654,1.05,0.159,1.893,1.059
			c0.285,0.309-0.284,1.032-0.163,1.208c0.392,0.569,0.543,0.464,1.078,0.89c2.25,1.783,5.773,2.381,8.466,2.933
			c4.653,0.957,8.622,3.478,13.031,5.233c2.661,1.063,5.468,2.178,8.346,2.315c3.365,0.159,5.169-0.461,7.998-1.957
			c2.651-1.398,5.862-3.064,8.879-3.731c2.355-0.524,4.46-1.368,6.853-1.86c1.029-0.21,2.417-0.118,3.377-0.6
			c1.396-0.7,1.595-1.875,3.171-2.426c1.349-0.474,2.65-0.392,3.134-2.039c0.164-0.562-0.452-0.734-0.058-1.47
			c0.186-0.344,1.199-0.686,1.497-1.023c-0.282-0.188-0.511-0.706-0.76-0.887c2.212-1.146-0.162-2.211-0.893-3.208
			c0.069-0.042,0.141-0.085,0.216-0.126C68.758,37.528,69.688,37.193,70.175,36.466z"/>
		<path fill="#D9D4C5" d="M70.175,36.466c-0.248-0.4-0.579-0.538-0.909-0.841c-1.041-0.947-2.918-1.506-4.088-2.388
			c-0.329-0.247-0.652-0.513-0.973-0.785c0.441,1.145,1.061,2.239,2.08,3.226c0.676,0.653,0.386,1.957-0.572,2.164
			c-1.813,0.395-2.094-0.014-0.508,1.135c0.932,0.676,0.791,1.967-0.309,2.369c-0.55,0.201-0.884,0.324-1.159,0.404
			c0.06,0.127,0.122,0.252,0.181,0.377c0.306,0.443,0.22,1.225-0.202,1.572c-1.95,1.604-3.808,2.324-6.324,2.766
			c-3.587,0.627-6.088,1.975-9.059,4.012c-4.376,2.996-9.711,4.366-15.022,3.422c-6.567-1.167-11.625-5.598-18.053-6.845
			c-3.119-0.604-7.472-1.14-8.68-4.558c-0.118-0.337-0.038-0.692,0.137-0.99c-0.252-0.172-0.49-0.359-0.742-0.523
			c-0.679-0.461-0.895-1.424-0.263-2.035c0.7-0.684-0.538-0.783-1.257-1.118c-0.648-0.304-0.786-1.204-0.464-1.772
			c1.011-1.793,2.06-3.614,3.136-5.432c-0.674,0.693-1.353,1.389-2.045,2.069C3.713,34.045,1.813,36.412,0,37.045
			c0.839,0.593,1.676,1.713,2.802,1.957c-0.491,0.633-1.153,1.269-1.203,2.061c0.747-0.055,1.547,0.088,2.263,0.231
			c-0.23,0.81-1.737,1.458-1.895,2.325c-0.291,1.654,1.05,0.159,1.893,1.059c0.285,0.309-0.284,1.032-0.163,1.208
			c0.392,0.569,0.543,0.464,1.078,0.89c2.25,1.783,5.773,2.381,8.466,2.933c4.653,0.957,8.622,3.478,13.031,5.233
			c2.661,1.063,5.468,2.178,8.346,2.315c3.365,0.159,5.169-0.461,7.998-1.957c2.651-1.398,5.862-3.064,8.879-3.731
			c2.355-0.524,4.46-1.368,6.853-1.86c1.029-0.21,2.417-0.118,3.377-0.6c1.396-0.7,1.595-1.875,3.171-2.426
			c1.349-0.474,2.65-0.392,3.134-2.039c0.164-0.562-0.452-0.734-0.058-1.47c0.186-0.344,1.199-0.686,1.497-1.023
			c-0.282-0.188-0.511-0.706-0.76-0.887c2.212-1.146-0.162-2.211-0.893-3.208c0.069-0.042,0.141-0.085,0.216-0.126
			C68.758,37.528,69.688,37.193,70.175,36.466z"/>
		<g>
			<path fill="#773C26" d="M34.617,38.236c-0.599,0.076-1.194,0.246-1.653,0.604c-1.028,0.788-1.109,1.932-0.386,2.945
				c0.644,0.9,1.432,1.933,2.422,2.484c1.041,0.582,2.118-0.373,2.763-1.102c0.618-0.705,1.319-1.5,1.632-2.398
				c0.648-1.858-2.348-2.537-3.641-2.576C35.393,38.182,35.001,38.189,34.617,38.236z"/>
			<path fill="#522121" d="M38.675,39.016c0.012,0.463-0.061,0.938-0.24,1.379c-0.727,1.783-2.852,2.488-4.596,1.805
				c-0.813-0.321-1.429-0.94-1.729-1.666c0.021,0.416,0.178,0.843,0.468,1.252c0.644,0.9,1.432,1.933,2.422,2.484
				c1.041,0.582,2.118-0.373,2.763-1.102c0.618-0.705,1.319-1.5,1.632-2.398C39.665,39.989,39.29,39.42,38.675,39.016z"/>
			<path fill="#FFFFFF" d="M34.97,40.174c0.352-0.066,0.695-0.135,1.003-0.148c0.299-0.01,1.558,0.048,1.751-0.285
				c0.544-0.92-2.216-1.064-2.63-0.979c-0.46,0.093-1.005,0.269-1.434,0.458c-0.394,0.18-0.734,0.863-0.103,1.021
				C33.979,40.35,34.48,40.268,34.97,40.174z"/>
		</g>
		<path fill="#586161" d="M33.309,31.357c-0.32,1.438-1.231,2.608-3.021,3.037c-1.607,0.38-3.164,0.271-4.766,0.893
			c-2.075,0.807-3.946,2.228-5.805,3.429c-2.379,1.538-7.358,6.702-9.541,2.188C7.649,35.678,12.465,30,15.851,26.488
			c4.229-4.387,10.689-8.034,15.479-2.318C32.744,25.855,33.839,28.973,33.309,31.357z"/>
		<path fill="#586161" d="M36.608,31.357c0.319,1.438,1.231,2.608,3.024,3.037c1.605,0.38,3.162,0.271,4.764,0.893
			c2.075,0.807,3.946,2.228,5.805,3.429c2.378,1.538,7.358,6.702,9.539,2.188c2.527-5.227-2.286-10.904-5.671-14.416
			c-4.231-4.387-10.692-8.034-15.481-2.318C37.174,25.855,36.08,28.973,36.608,31.357z"/>
		<g>
			<g>
				<path fill="#010101" d="M22.469,25.756c-1.266,0.461-1.982,2.209-1.607,3.91c0.379,1.699,1.711,2.702,2.971,2.244
					c1.264-0.461,1.982-2.21,1.604-3.909C25.061,26.299,23.729,25.297,22.469,25.756z"/>
				<path fill="#FFFFFF" d="M21.846,27.82c-0.237,0.085-0.35,0.51-0.256,0.939c0.096,0.436,0.368,0.715,0.604,0.629
					c0.233-0.083,0.349-0.506,0.255-0.941C22.355,28.018,22.082,27.734,21.846,27.82z"/>
			</g>
		</g>
		<g>
			<g>
				<path fill="#010101" d="M46.313,25.756c-1.26,0.461-1.978,2.209-1.602,3.91c0.375,1.699,1.707,2.702,2.968,2.244
					c1.264-0.461,1.981-2.21,1.605-3.909C48.907,26.299,47.576,25.297,46.313,25.756z"/>
				<path fill="#FFFFFF" d="M45.692,27.82c-0.238,0.085-0.351,0.51-0.255,0.939c0.098,0.436,0.369,0.715,0.602,0.629
					c0.238-0.083,0.352-0.506,0.257-0.941C46.198,28.018,45.93,27.734,45.692,27.82z"/>
			</g>
		</g>
		<path fill="#93261E" d="M39.26,45.449c0.098-0.211,0.178-0.428,0.239-0.645c0,0.458,0.026,0.913,0.049,1.359
			c0.06,1.226-0.153,2.816-1.092,3.67c-1.266,1.15-3.174,0.925-4.535,0.082c-0.546-0.338-1.94-1.576-1.856-2.277
			c0.47,0.16,0.938,0.412,1.459,0.495c0.859,0.135,2.094,0.164,2.923-0.099C37.635,47.656,38.716,46.631,39.26,45.449z"/>
	</g>
	<g>
		<path fill="#8BB0B3" d="M44.205,111.273c-0.259,5.636,1.096,11.41,3.537,16.711c1.53,3.323,5.856,7.926,4.548,11.699
			c-1.016,2.925-7.552,5.782-6.885,9.401c0.98,5.335,12.818-2.228,14.87-4.479c2.271-2.495,1.684-5.154,1.008-8.227
			c-1.175-5.3-1.099-8.476,1.192-13.503c4.233-9.288,9.957-19.391,7.113-29.973c-3.085-11.479-16.166-1.758-20.364,3.935
			C45.984,101.23,44.438,106.193,44.205,111.273z"/>
		<path fill="#ABC9C9" d="M52.29,139.684c-0.989,2.848-7.192,5.633-6.903,9.12c0.518-0.85,1.141-2.104,1.948-2.873
			c2.603-2.485,7.864-5.029,6.465-9.483c-2.372-7.547-8.825-13.434-7.886-21.896c0.698-6.305,2.656-14.783,6.587-21.269
			c-1.33,1.219-2.469,2.461-3.276,3.557c-3.24,4.392-4.786,9.354-5.02,14.435c-0.259,5.636,1.096,11.41,3.537,16.711
			C49.272,131.308,53.599,135.91,52.29,139.684z"/>
		<path opacity="0.45" fill="#728D8C" d="M69.589,92.904c-0.844-3.139-2.436-4.682-4.392-5.168
			c0.985,14.52-12.696,26.814-8.943,41.594c1.17,4.613,4.086,10.56,0.379,14.714c-2.02,2.264-5.293,5.357-7.53,5.9
			c-1.382,0.339-3.237,0.209-3.691-0.844c0.752,3.974,7.584,0.725,11.817-2.098c0.107-0.069,0.198-0.138,0.3-0.208
			c0.24-0.163,0.482-0.325,0.7-0.482c0.504-0.366,0.928-0.699,1.289-1.006c0.308-0.263,0.582-0.505,0.758-0.7
			c2.271-2.495,1.684-5.154,1.008-8.227c-1.175-5.3-1.099-8.476,1.192-13.503C66.709,113.589,72.433,103.486,69.589,92.904z"/>
	</g>
	<g>
		<path fill="#99B9BA" d="M42.758,57.876c0.082-0.129,0.169-0.258,0.257-0.386c6.298-8.962,9.478,3.01,10.862,8.393
			c2.708,10.473-4.105,16.021-14.066,17.841c-3.405,0.624-6.289,0.688-9.289,2.569c-2.748,1.721-4.292,6.236-7.284,7.134
			c-6.181,1.858,0.424-8.286,1.502-9.88c3.7-5.457,11.286-6.63,14.528-11.914C41.741,67.604,40.204,61.994,42.758,57.876z"/>
		<path fill="#ABC9C9" d="M30.809,79.362c3.057-1.606,8.146-2.68,9.6-6.075c1.198-2.805,1.226-5.635,1.372-8.61
			c0.126-2.533,0.405-4.875,1.197-7.134c-0.075,0.109-0.148,0.22-0.22,0.333c-2.554,4.118-1.017,9.729-3.49,13.757
			c-3.242,5.284-10.828,6.457-14.528,11.914c-0.224,0.327-0.682,1.023-1.211,1.896C25.562,82.908,28.104,80.783,30.809,79.362z"/>
		<path opacity="0.45" fill="#728D8C" d="M53.877,65.883c-1.26-4.893-4.002-15.223-9.22-10.334
			c3.165,2.153,5.108,4.645,3.805,14.126c-0.714,5.192-5.403,10.349-10.907,11.694c-6.32,1.542-11.271,2.84-13.64,9.59
			c-0.337,0.957-1.086,2.041-1.696,2.682c0.293-0.027,0.63-0.096,1.019-0.214c2.992-0.897,4.536-5.413,7.284-7.134
			c3-1.881,5.884-1.945,9.289-2.569C49.771,81.904,56.585,76.355,53.877,65.883z"/>
		<path fill="#688887" d="M53.877,65.883c-1.207-4.688-3.775-14.352-8.58-10.854c5.588,1.395,6.195,8.266,5.379,13.468
			c-0.677,4.295-2.4,7.746-5.496,10.857c-4.862,4.891-11.842,2.704-17.139,6.742c-1.086,1.344-2.041,2.953-3.008,4.889
			c-0.564,1.128-1.425,1.984-2.414,2.572c0.199-0.037,0.385-0.059,0.618-0.13c2.992-0.897,4.536-5.413,7.284-7.134
			c3-1.881,5.884-1.945,9.289-2.569C49.771,81.904,56.585,76.355,53.877,65.883z"/>
		<path fill="#688887" d="M21.591,91.637c0.058-0.188,0.118-0.373,0.181-0.545c0.09-0.254,0.19-0.507,0.289-0.76
			c0.126-0.332,0.31-0.712,0.35-1.059c-0.376,0.346-0.6,0.838-0.809,1.293c-0.21,0.453-0.492,1.005-0.502,1.515
			c-0.003,0.204,0.021,0.384,0,0.593c-0.021,0.221-0.06,0.475,0.027,0.686c0.133-0.157,0.167-0.485,0.206-0.691
			C21.396,92.338,21.487,91.98,21.591,91.637z"/>
		<path fill="#688887" d="M22.588,92.018c0.098-0.173,0.198-0.338,0.297-0.493c0.146-0.226,0.301-0.45,0.452-0.675
			c0.197-0.296,0.461-0.623,0.578-0.953c-0.444,0.253-0.771,0.681-1.076,1.078c-0.308,0.395-0.706,0.87-0.83,1.365
			c-0.049,0.197-0.065,0.377-0.132,0.578c-0.07,0.21-0.165,0.449-0.126,0.675c0.164-0.124,0.268-0.437,0.354-0.628
			C22.243,92.658,22.41,92.328,22.588,92.018z"/>
	</g>
</g>
</svg>
