<?xml version="1.0" encoding="utf-8"?>
<!-- Generator: Adobe Illustrator 15.0.0, SVG Export Plug-In . SVG Version: 6.00 Build 0)  -->
<!DOCTYPE svg PUBLIC "-//W3C//DTD SVG 1.1//EN" "http://www.w3.org/Graphics/SVG/1.1/DTD/svg11.dtd">
<svg version="1.1" id="Layer_1" xmlns="http://www.w3.org/2000/svg" xmlns:xlink="http://www.w3.org/1999/xlink" x="0px" y="0px"
	 width="143.296px" height="145.882px" viewBox="0 0 143.296 145.882" enable-background="new 0 0 143.296 145.882"
	 xml:space="preserve">
<g>
	<g>
		<path fill="#84654F" d="M35.938,114.89l4.098,30.992h3.074c0,0-0.127-26.51,2.049-33.811L35.938,114.89z"/>
		<path fill="#84654F" d="M24.154,114.89l3.941,30.992h2.955c0,0-0.119-26.51,1.973-33.811L24.154,114.89z"/>
		<path fill="#84654F" d="M81.836,114.89l4.098,30.992h3.072c0,0-0.125-26.51,2.053-33.811L81.836,114.89z"/>
		<path fill="#84654F" d="M70.115,114.89l4.096,30.992h3.076c0,0-0.127-26.51,2.049-33.811L70.115,114.89z"/>
		<path fill="#F9E1B7" d="M113.508,25.875c9.627-2.411,2.289-25.734,5.43-25.874c2.678-0.119,4.789,21.586,1.752,28.768
			L113.508,25.875z"/>
		<path fill="#E5C695" d="M118.533,26.499c5.992-2.551-1.02-25.602,0.998-25.792c1.721-0.162,5.193,21.366,3.928,28.549
			L118.533,26.499z"/>
		<path fill="#F9E1B7" d="M102.871,26.873C92.689,25.24,98.357,1.402,95.09,1.515c-2.785,0.096-3.17,21.9,0.576,28.815
			L102.871,26.873z"/>
		<path fill="#E5C695" d="M102.744,26.789c-6.359-1.042-5.133-25.098-7.111-24.799c-1.691,0.255,0.113,21.983,3.043,28.654
			L102.744,26.789z"/>
		<path fill="#614432" d="M35.938,114.89l1.852,14.01h5.631c0.273-6.732,0.785-13.627,1.738-16.828L35.938,114.89z"/>
		<path fill="#614432" d="M24.154,114.89l1.781,14.01h5.416c0.262-6.732,0.754-13.627,1.672-16.828L24.154,114.89z"/>
		<path fill="#614432" d="M81.836,114.89l1.852,14.01h5.631c0.273-6.732,0.785-13.627,1.74-16.828L81.836,114.89z"/>
		<path fill="#614432" d="M70.115,114.89l1.852,14.01h5.631c0.273-6.732,0.783-13.627,1.738-16.828L70.115,114.89z"/>
		<path fill="#E0CCA4" d="M24.51,58.789c-2.82-0.687-5.783,0.366-7.537,2.679c-5.326,7.021-9.176,18.598-6.217,19.866
			c3.588,1.538,4.867-3.585,4.867-3.585s-2.049,35.858,4.1,38.676c6.146,2.818,3.84-4.865,3.84-4.865s0.514,11.012,4.867,11.012
			c4.355,0,5.379-10.758,5.379-10.758s-0.768,10.758,6.148,10.246c6.916-0.512,6.402-6.914,6.402-6.914s2.082,8.754,12.082,8.42
			c6.398-0.213,10.201-7.396,10.201-7.396s0,4.1,4.867,3.842c4.869-0.256,5.381-3.33,5.381-3.33s0.473,5.637,7.939,5.637
			c5.891,0,6.658-4.867,6.658-4.867s2.527,2.482,5.891,2.305c4.867-0.258,7.43-20.748,7.43-22.541c0,0,8.354,12.701,5.123-30.992
			c-0.512-6.915,5.635-25.871,5.635-25.871L96.05,32.926c0,0,4.254,19.277-9.99,28.943C74.16,69.944,36.863,61.796,24.51,58.789z"/>
		<g>
			<path fill="#C0A77C" d="M31.477,108.481c0,0-1.025,10.758-5.379,10.758c-0.428,0-0.816-0.109-1.174-0.301
				c0.729,2.004,1.832,3.633,3.506,3.633c2.408,0,3.797-3.289,4.559-6.229C31.135,113.31,31.477,108.481,31.477,108.481z"/>
			<path fill="#C0A77C" d="M21.617,111.683c-0.18,1.57-1.119,2.801-4.148,1.443c0.59,1.689,1.326,2.873,2.254,3.299
				c1.672,0.766,2.715,0.752,3.354,0.33C22.338,115.257,21.889,113.329,21.617,111.683z"/>
			<path fill="#C0A77C" d="M44.025,111.812c0,0,0.514,6.404-6.402,6.916c-1.264,0.094-2.268-0.193-3.07-0.717
				c0.781,2.285,2.336,4.275,5.404,4.049c5.18-0.383,6.191-4.07,6.373-5.898C44.549,114.011,44.025,111.812,44.025,111.812z"/>
			<path fill="#C0A77C" d="M13.289,74.416c0,0-0.961,3.824-3.539,3.865c-0.1,1.585,0.197,2.706,1.006,3.053
				c0.898,0.385,1.65,0.353,2.275,0.088C13.127,77.266,13.289,74.416,13.289,74.416z"/>
			<path fill="#C0A77C" d="M117.566,40.351l-3.045-1.051c-1.604,5.245-5.326,18.146-4.924,23.589
				c3.232,43.692-5.121,30.993-5.121,30.993c0,1.791-2.563,22.283-7.43,22.539c-3.363,0.178-5.891-2.305-5.891-2.305
				s-0.77,4.867-6.66,4.867c-2.545,0-4.266-0.66-5.443-1.523c0.439,1.543,2.045,4.857,7.777,4.857c5.891,0,6.658-4.867,6.658-4.867
				s2.527,2.482,5.891,2.305c4.867-0.258,7.43-20.748,7.43-22.541c0,0,8.354,12.701,5.123-30.992
				C111.42,59.307,117.566,40.351,117.566,40.351z"/>
			<path fill="#C0A77C" d="M76.557,113.349c0,0-0.512,3.072-5.379,3.33c-1.061,0.055-1.879-0.104-2.527-0.373
				c0.049,0.693,0.51,3.936,4.859,3.705c3.596-0.189,4.813-1.912,5.205-2.803C76.744,115.556,76.557,113.349,76.557,113.349z"/>
			<path fill="#C0A77C" d="M66.311,112.837c0,0-3.803,7.184-10.203,7.396c-4.369,0.145-7.227-1.445-9.061-3.281
				c1.215,2.543,4.316,6.85,11.395,6.613c5.951-0.197,9.65-6.416,10.141-7.287C66.32,115.288,66.311,112.837,66.311,112.837z"/>
			<path fill="#C0A77C" d="M96.357,41.732c0.5,8.375,2.791,14.917,14.791,23.417l1.375-11.125L96.357,41.732z"/>
		</g>
		<path fill="#EAD7B2" d="M86.061,61.868c-11.9,8.076-49.197-0.071-61.551-3.079c-2.82-0.687-5.783,0.366-7.537,2.679
			c-5.326,7.021-9.176,18.598-6.217,19.866c3.588,1.538,4.867-3.585,4.867-3.585s-0.711,12.474-0.035,23.286
			c7.377,2.68,15.701,4.197,24.52,4.197c30.191,0,54.666-17.684,54.666-39.5c0-3.745-0.736-7.364-2.084-10.797
			C91.127,57.484,88.99,59.88,86.061,61.868z"/>
		<path fill="#C0A77C" d="M91.092,57.127c3.018,4.896,10.523,14.195,21.289,17.887l-0.16,2.561c0,0-16.219-5.157-22.348-18.666
			L91.092,57.127z"/>
		<path fill="#CC4127" d="M91.592,55.877c3.018,4.896,10.523,14.195,21.289,17.887l-0.16,2.561c0,0-16.219-5.157-22.348-18.666
			L91.592,55.877z"/>
		<path fill="#E94624" d="M100.273,66.127c-4.08-3.648-7.045-7.596-8.682-10.25l-1.219,1.781c2.326,5.127,6.105,9.049,9.9,11.944
			L100.273,66.127L100.273,66.127z"/>
		<path fill="#F7E2C1" d="M25.357,61.355C20.49,55.719,12.809,48.548,0,51.623l5.123,3.073L0,57.257c0,0,4.484,0.615,4.865,1.281
			c1.025,1.792-1.791,5.891-1.791,5.891s15.367-6.403,20.49-1.794L25.357,61.355z"/>
		<path fill="#E0CCA4" d="M4.865,58.539c1.025,1.792-1.791,5.891-1.791,5.891s15.367-6.403,20.49-1.794l1.246-0.89
			c-2.369-2.781-7.645-4.722-13.787-4.722c-2.631,0-5.102,0.356-7.258,0.981C4.326,58.17,4.76,58.352,4.865,58.539z"/>
		<path fill="#9DAD3B" d="M120.641,65.582c-9.223,1.409-13.191,7.684-14.408,6.915c-1.26-0.794,2.113-3.905,4.418-6.019
			c0,0-7.43,3.587-7.557,2.434c-0.094-0.85,3.367-2.531,7.045-4.226c0,0-13.127,3.394-6.789,0.319
			c6.34-3.074,23.244-2.882,23.244-2.882L120.641,65.582z"/>
		<path fill="#9DAD3B" d="M129.072,67.053c10.137,3.778,12.617,10.511,13.979,10.055c1.408-0.471-3.639-4.976-5.379-7.557
			c0,0,5.113,3.646,5.508,2.563c0.291-0.798-2.463-2.493-5.635-4.995c0,0,8.889,4.717,3.457,0.256
			c-5.43-4.464-16.898-5.063-16.898-5.063L129.072,67.053z"/>
		<path fill="#D1B88D" d="M117.438,65.198c0,2.56,0.768,6.787,6.02,7.299c5.25,0.512,7.555-2.305,7.299-5.634L117.438,65.198z"/>
		<path fill="#D1B88D" d="M119.486,26.407c3.713-4.95,5.275-10.044,17.049-8.331c0,0-2.945,12.742-15.973,10.21L119.486,26.407z"/>
		<path fill="#E0CCA4" d="M120.387,26.163c2.916-4.3,4.473-8.769,14.414-7.804C137.047,18.576,126.096,27.671,120.387,26.163z"/>
		<path fill="#EE8054" d="M122.773,27.493c4.109-0.438,7.574,0.414,10.604-6.943c0,0-8.326-2.679-11.316,5.68L122.773,27.493z"/>
		<path fill="#D8673F" d="M131.158,20.17c-2.684-0.187-7.092,0.451-9.098,6.06l0.713,1.263c1.111-0.119,2.174-0.146,3.195-0.264
			C126.305,23.125,129.055,21.116,131.158,20.17z"/>
		<path fill="#E0CCA4" d="M92.879,32.828c-0.189-3.457,1.127-7.484,3.461-8.164c4.609-1.345,9.23,1.451,10.852,1.249
			c1.537-0.192,7.301-4.227,12.682-2.209c8.053,3.02,10.279,28.989,13.832,34.066c1.791,2.562,2.072,10.878-6.916,10.502
			c-12.295-0.514-10.139-5.451-15.115-9.733C93.232,42.657,93.137,37.436,92.879,32.828z"/>
		<path fill="#F2DDB8" d="M118.273,24.399c7.25,0.875,17.5,37.625,8.25,39.375C118.863,65.223,100.527,22.257,118.273,24.399z"/>
		<path fill="#F2DDB8" d="M96.023,26.149c4.875-5.024,20.273,6.1,24.25,9.625c5.5,4.875,9.293,25.875,5.668,27.875
			S83.773,38.774,96.023,26.149z"/>
		<path fill="#F8E6C9" d="M122.523,58.649c-2.875-5.375-9.125-14.625-4.125-14.75s14.336,13.225,14.336,13.225L122.523,58.649z"/>
		<path fill="#E0CCA4" d="M93.84,28.505c-4.996-3.65-7.973-8.069-18.732-2.978c0,0,6.531,11.334,18.25,5.091L93.84,28.505z"/>
		<path fill="#F2DDB8" d="M92.275,28.149c-4.996-3.65-6.168-7.167-17.168-2.622C80.75,29.443,83.523,29.524,92.275,28.149z"/>
		<path fill="#EE8054" d="M91.885,28.417c-3.338-2.44-5.328-5.396-12.52-1.99c0,0,4.367,7.582,12.199,3.404L91.885,28.417z"/>
		<path fill="#F1BD36" d="M114.494,86.33c-2.563-3.843-3.586-9.605-1.537-10.375c2.049-0.768,7.939,4.1,7.939,4.1
			S118.527,84.504,114.494,86.33z"/>
		<path fill="#D19B2A" d="M114.494,86.33c-0.002-1.922,1.664-5.827,6.402-6.275C120.063,85.752,114.494,86.33,114.494,86.33z"/>
		<path fill="#F1BD36" d="M116.797,83.351c0.961,0.672,3.65,0.192,1.73-1.825L116.797,83.351z"/>
		<path fill="#C6AC7F" d="M125.154,68.271c1.152-0.192,2.305-2.112,1.729-6.724l1.537-0.192c0,0-1.393,6.724,0.432,6.916H125.154z"
			/>
		<path fill="#EE8054" d="M127.135,63.073c2.27,0.498,6.596-4.279,5.6-5.949c-0.996-1.669-9.547-1.788-10.275-0.277
			C121.732,58.358,125.037,62.612,127.135,63.073z"/>
		<path fill="#6E5C42" d="M102.293,39.167l1.248-2.689c0,0,2.691,3.842,8.166,0.673l0.383,0.864
			C108.971,39.877,105.967,41.119,102.293,39.167z"/>
		<path fill="#6E5C42" d="M124.65,37.452l-1.105-2.43c0,0-2.381,3.472-7.23,0.608l-0.34,0.779
			C118.736,38.095,121.396,39.216,124.65,37.452z"/>
		<path fill="#F7E2C1" d="M83.617,63.163c-13.902,5.808-47.504-1.549-59.107-4.374c-2.82-0.687-5.783,0.366-7.537,2.679
			c-0.756,0.996-1.479,2.085-2.16,3.222C23.828,83.287,46.389,98.642,83.617,63.163z"/>
		<path fill="#CA5F38" d="M126.531,61.749c-1.508-1.475-3.883-3.975-2.508-4.225s3.625,3.563,3.625,3.563L126.531,61.749z"/>
		<path fill="#CA5F38" d="M128.049,60.991c1.314-1.649,3.563-4.265,3.949-2.925c0.387,1.342-3.178,3.967-3.178,3.967L128.049,60.991
			z"/>
		<path fill="#E0CCA4" d="M120.648,68.149c-0.98-0.196-1.438,2.938,1.438,3.313S129.711,69.961,120.648,68.149z"/>
		<path fill="#FEDB45" d="M114.023,84.586c0.375-1.438,1.688-3.125,2.875-3.875c-1.375-1.625-4.32-4.647-4.563-3.75
			C111.648,79.524,114.023,84.586,114.023,84.586z"/>
		<path fill="#D8673F" d="M82.291,29.53c3.576-2.508,6.15-2.567,8.6-1.876c-2.807-2.219-5.076-4.282-11.525-1.227
			C79.365,26.427,80.377,28.175,82.291,29.53z"/>
	</g>
	<g>
		<g>
			<defs>
				<polygon id="SVGID_2_" points="1,1 2,1 1,2 				"/>
			</defs>
			<defs>
				<polygon id="SVGID_3_" points="-1,-1 -2,-1 -1,-2 				"/>
			</defs>
			<clipPath id="SVGID_4_">
				<use xlink:href="#SVGID_2_"  overflow="visible"/>
			</clipPath>
			<clipPath id="SVGID_5_" clip-path="url(#SVGID_4_)">
				<use xlink:href="#SVGID_3_"  overflow="visible"/>
			</clipPath>
			
				<linearGradient id="SVGID_6_" gradientUnits="userSpaceOnUse" x1="63.2793" y1="778.6987" x2="63.2793" y2="670.6665" gradientTransform="matrix(1 0 0 -1 8.3701 816.9307)">
				<stop  offset="0.0215" style="stop-color:#999999"/>
				<stop  offset="1" style="stop-color:#FFFFFF"/>
			</linearGradient>
			<path clip-path="url(#SVGID_5_)" fill="url(#SVGID_6_)" d="M137.672,69.551c0,0,5.113,3.646,5.508,2.563
				c0.291-0.798-2.463-2.493-5.635-4.995c0,0,8.889,4.717,3.457,0.256c-1.789-1.471-4.234-2.521-6.709-3.269
				c0.822-2.349,0.305-5.059-0.588-6.337c-2.768-3.955-4.73-20.584-9.27-29.171c9.75-0.395,12.1-10.522,12.1-10.522
				c-7.195-1.047-10.574,0.45-12.963,2.901c-0.531-7.927-2.295-17.742-3.566-19.85C119.668,0.4,119.309-0.016,118.938,0
				c-2.621,0.117,2.049,16.374-1.928,23.153c-4.422-0.154-8.553,2.601-9.818,2.759c-1.182,0.147-3.955-1.29-7.156-1.565
				C96.813,18.194,97.234,2.638,95.76,2.02c-0.166-0.33-0.383-0.514-0.67-0.504c-2.379,0.082-3.004,15.981-0.805,24.935
				c-0.32,0.523-0.594,1.125-0.809,1.78c-4.781-3.591-7.877-7.668-18.369-2.704c0,0,6.375,11.044,17.822,5.302
				c-0.068,0.669-0.086,1.344-0.051,1.999c0.145,2.59,0.24,5.375,3.568,10.137c0.006,0.058,0.01,0.116,0.016,0.174
				c-0.371,3.707-1.402,7.928-3.773,11.797l0,0c-0.27,0.439-0.563,0.872-0.867,1.302c-0.076-0.118-0.162-0.246-0.23-0.359
				l-1.219,1.781c0.041,0.09,0.086,0.175,0.127,0.265c-0.121,0.141-0.246,0.28-0.373,0.42c-0.111,0.121-0.219,0.243-0.334,0.363
				c-0.162,0.172-0.334,0.341-0.504,0.509c-0.166,0.163-0.334,0.325-0.508,0.484c-0.152,0.142-0.307,0.282-0.465,0.422
				c-0.221,0.192-0.451,0.382-0.682,0.569c-0.133,0.106-0.262,0.215-0.396,0.319c-0.379,0.293-0.768,0.58-1.178,0.857
				c-0.723,0.491-1.543,0.92-2.443,1.295l0,0c-0.316,0.133-0.654,0.251-0.992,0.37c-0.139,0.048-0.268,0.103-0.408,0.148
				c-0.316,0.104-0.65,0.196-0.982,0.289c-0.178,0.051-0.352,0.105-0.535,0.152c-0.326,0.084-0.666,0.158-1.006,0.232
				c-0.205,0.045-0.406,0.093-0.617,0.135c-0.34,0.067-0.693,0.126-1.045,0.186c-0.225,0.037-0.443,0.075-0.672,0.109
				c-0.355,0.053-0.721,0.099-1.088,0.144c-0.238,0.029-0.477,0.059-0.719,0.085c-0.371,0.039-0.748,0.073-1.127,0.104
				c-0.252,0.021-0.504,0.042-0.758,0.06c-0.387,0.026-0.777,0.049-1.17,0.068c-0.26,0.014-0.521,0.025-0.785,0.035
				c-0.398,0.015-0.801,0.027-1.209,0.035c-0.268,0.006-0.539,0.01-0.811,0.012c-0.41,0.004-0.824,0.006-1.242,0.004
				c-0.273-0.001-0.551-0.005-0.828-0.01c-0.424-0.006-0.85-0.014-1.279-0.026c-0.273-0.008-0.551-0.019-0.826-0.028
				c-0.439-0.017-0.879-0.033-1.322-0.055c-0.271-0.014-0.547-0.03-0.82-0.046c-0.453-0.025-0.904-0.051-1.361-0.082
				c-0.264-0.018-0.527-0.039-0.791-0.059c-0.473-0.035-0.945-0.069-1.42-0.109c-0.23-0.02-0.461-0.043-0.691-0.063
				c-0.512-0.046-1.025-0.092-1.539-0.144c-0.117-0.012-0.234-0.025-0.352-0.037c-1.914-0.196-3.838-0.429-5.746-0.688
				c-0.158-0.021-0.316-0.041-0.475-0.063c-0.479-0.066-0.955-0.137-1.434-0.206c-0.264-0.038-0.529-0.075-0.795-0.115
				c-0.436-0.064-0.867-0.133-1.301-0.2c-0.301-0.047-0.605-0.093-0.906-0.141c-0.414-0.066-0.822-0.134-1.232-0.202
				c-0.313-0.051-0.625-0.102-0.934-0.154c-0.396-0.066-0.789-0.135-1.182-0.203c-0.318-0.056-0.637-0.111-0.953-0.167
				c-0.379-0.067-0.756-0.136-1.131-0.204c-0.318-0.059-0.635-0.116-0.949-0.175c-0.361-0.067-0.719-0.135-1.074-0.202
				c-0.322-0.062-0.645-0.123-0.961-0.185c-0.34-0.065-0.676-0.132-1.01-0.198c-0.32-0.063-0.639-0.126-0.953-0.189
				c-0.322-0.064-0.641-0.129-0.957-0.194c-0.316-0.064-0.629-0.129-0.938-0.193c-0.297-0.062-0.594-0.123-0.883-0.185
				c-0.32-0.067-0.635-0.135-0.945-0.201c-0.268-0.058-0.537-0.115-0.799-0.172c-0.313-0.068-0.617-0.135-0.92-0.202
				c-0.246-0.054-0.496-0.108-0.736-0.162c-0.309-0.069-0.605-0.137-0.902-0.204c-0.217-0.049-0.436-0.098-0.645-0.146
				c-0.313-0.071-0.609-0.141-0.906-0.209c-0.176-0.041-0.359-0.083-0.531-0.123c-0.326-0.076-0.635-0.149-0.941-0.223
				c-0.125-0.029-0.258-0.061-0.379-0.089c-0.42-0.101-0.818-0.197-1.193-0.288c-0.564-0.137-1.131-0.187-1.695-0.188
				C17.92,53.7,10.773,49.037,0,51.623l5.123,3.073L0,57.257c0,0,2.322,0.32,3.768,0.748H3.766c0.133,0.039,0.258,0.079,0.373,0.12
				c0.01,0.004,0.021,0.007,0.031,0.011c0.098,0.035,0.186,0.071,0.266,0.107c0.021,0.01,0.045,0.019,0.064,0.028
				c0.068,0.032,0.125,0.065,0.176,0.099c0.02,0.012,0.041,0.023,0.059,0.035c0.059,0.044,0.105,0.088,0.131,0.133
				c1.025,1.792-1.791,5.891-1.791,5.891s7.963-3.317,14.336-3.457c-0.148,0.162-0.303,0.317-0.438,0.495
				c-0.371,0.489-0.734,1.004-1.09,1.532c-0.014,0.022-0.029,0.045-0.045,0.067c-0.35,0.525-0.691,1.066-1.023,1.62
				c0,0-0.002,0.001-0.002,0.002l0,0c-2.807,4.687-4.85,10.204-5.063,13.592l0,0c0,0.006,0,0.011-0.002,0.017
				c-0.01,0.184-0.016,0.361-0.016,0.532c0,0.021,0,0.041,0,0.062c0,0.154,0.006,0.304,0.018,0.447
				c0.002,0.028,0.004,0.057,0.006,0.085c0.012,0.13,0.027,0.254,0.047,0.372c0.006,0.034,0.014,0.068,0.02,0.103
				c0.02,0.106,0.045,0.207,0.072,0.304c0.012,0.036,0.021,0.073,0.033,0.109c0.029,0.086,0.063,0.167,0.098,0.244
				c0.016,0.036,0.031,0.073,0.049,0.106c0.037,0.071,0.078,0.135,0.123,0.196c0.02,0.03,0.039,0.063,0.063,0.092
				c0.049,0.059,0.102,0.109,0.158,0.158c0.023,0.021,0.045,0.047,0.07,0.066c0.082,0.063,0.17,0.117,0.268,0.159
				c0.449,0.192,0.861,0.28,1.24,0.287c0.006,0.001,0.01-0.001,0.016-0.001c2.635,0.033,3.611-3.871,3.611-3.871
				s-0.002,0.027-0.004,0.067c-0.002,0.018-0.002,0.021-0.004,0.05c-0.002,0.06-0.006,0.141-0.012,0.244
				c-0.002,0.031-0.004,0.061-0.006,0.095c-0.004,0.103-0.01,0.218-0.018,0.352c-0.002,0.064-0.006,0.133-0.01,0.205
				c-0.004,0.104-0.01,0.218-0.016,0.339c-0.004,0.124-0.01,0.252-0.016,0.392c-0.008,0.138-0.014,0.28-0.02,0.432
				c-0.006,0.129-0.01,0.262-0.016,0.4c-0.006,0.111-0.01,0.229-0.014,0.348c-0.01,0.248-0.02,0.506-0.029,0.779
				c-0.004,0.093-0.006,0.188-0.01,0.283c-0.012,0.325-0.021,0.666-0.033,1.021c-0.002,0.091-0.006,0.18-0.008,0.272
				c-0.008,0.226-0.014,0.454-0.02,0.691c-0.002,0.032-0.002,0.066-0.002,0.1c-0.014,0.443-0.023,0.904-0.033,1.381
				c-0.004,0.108-0.006,0.217-0.008,0.327c-0.008,0.427-0.016,0.865-0.023,1.315c-0.002,0.107-0.002,0.214-0.004,0.322
				c-0.012,0.836-0.02,1.702-0.023,2.597c0,0.113,0,0.229,0,0.344c0,0.479,0,0.965,0.002,1.457c0,0.144,0.002,0.287,0.002,0.431
				c0.004,0.447,0.008,0.896,0.014,1.352c0.002,0.184,0.006,0.369,0.008,0.555c0.004,0.273,0.01,0.547,0.016,0.822
				c0.004,0.211,0.01,0.42,0.014,0.631c0.01,0.41,0.021,0.82,0.033,1.232c0.008,0.217,0.014,0.434,0.021,0.652
				c0.012,0.334,0.025,0.666,0.039,1c0.012,0.303,0.025,0.605,0.039,0.908c0.012,0.238,0.023,0.475,0.037,0.713
				c0.02,0.393,0.043,0.785,0.066,1.176l0,0c0.299,4.756,0.867,9.182,1.881,12.092l0,0c0.078,0.223,0.158,0.434,0.24,0.639
				c0.057,0.137,0.113,0.266,0.172,0.393c0.072,0.16,0.146,0.311,0.221,0.457c0.063,0.117,0.123,0.23,0.188,0.338
				c0.096,0.164,0.195,0.314,0.297,0.457c0.041,0.057,0.082,0.115,0.125,0.168c0.133,0.168,0.273,0.316,0.418,0.443
				c0.033,0.031,0.068,0.057,0.102,0.084c0.158,0.129,0.32,0.242,0.492,0.32c0.201,0.092,0.393,0.172,0.576,0.242
				c0.055,0.021,0.104,0.035,0.154,0.055c0.129,0.045,0.256,0.09,0.375,0.125c0.053,0.016,0.104,0.027,0.154,0.041
				c0.111,0.029,0.223,0.059,0.326,0.08c0.047,0.008,0.092,0.014,0.137,0.021c0.104,0.018,0.203,0.031,0.297,0.041
				c0.039,0.002,0.076,0.004,0.113,0.006c0.098,0.004,0.191,0.006,0.279,0.002c0.029-0.002,0.057-0.004,0.086-0.006
				c0.092-0.008,0.182-0.021,0.266-0.039c0.02-0.004,0.037-0.008,0.057-0.012c0.09-0.021,0.176-0.049,0.256-0.082
				c0.01-0.004,0.02-0.008,0.029-0.012c0.717-0.309,1.027-1.041,1.123-1.871c0.133,0.813,0.311,1.695,0.545,2.561l3.6,28.305h2.955
				c0,0-0.037-8.359,0.301-16.982l0,0c0.008-0.236,0.02-0.471,0.029-0.707c0.008-0.213,0.016-0.424,0.025-0.635
				c0.01-0.199,0.02-0.398,0.027-0.598c0.012-0.26,0.023-0.521,0.037-0.781c0.01-0.184,0.02-0.369,0.027-0.553
				c0.016-0.275,0.029-0.549,0.045-0.822c0.008-0.172,0.018-0.342,0.027-0.512c0.018-0.289,0.035-0.576,0.053-0.861
				c0.008-0.156,0.018-0.311,0.029-0.467c0.02-0.305,0.039-0.607,0.061-0.908c0.008-0.129,0.018-0.26,0.027-0.387
				c0.025-0.361,0.053-0.715,0.08-1.066c0.006-0.064,0.01-0.133,0.016-0.197c0.025-0.324,0.053-0.641,0.082-0.957
				c0.053-0.113,0.104-0.227,0.154-0.344c0.01-0.025,0.02-0.049,0.029-0.074c0.063-0.146,0.123-0.297,0.18-0.447
				c0.014-0.033,0.025-0.064,0.037-0.098c0.055-0.145,0.107-0.289,0.158-0.438c0.012-0.035,0.023-0.07,0.037-0.107
				c0.049-0.146,0.098-0.293,0.143-0.441c0.012-0.031,0.021-0.064,0.031-0.096c0.049-0.156,0.094-0.313,0.139-0.469
				c0.006-0.023,0.014-0.045,0.02-0.066c0.047-0.168,0.092-0.336,0.137-0.504c0.002-0.008,0.004-0.014,0.006-0.021l0,0
				c0.615-2.379,0.82-4.529,0.82-4.529s-0.281,3.996,1.063,7.002c0.008,0.02,0.016,0.039,0.025,0.059
				c0.115,0.254,0.244,0.5,0.383,0.734c0.014,0.021,0.027,0.043,0.041,0.064c0.145,0.236,0.299,0.465,0.473,0.676
				c0.006,0.008,0.012,0.014,0.018,0.021c0.176,0.213,0.365,0.412,0.572,0.592c0.008,0.006,0.014,0.014,0.021,0.02
				c0.119,0.104,0.246,0.201,0.377,0.293l1.008,7.625l0,0l2.246,16.982h3.074c0,0-0.041-8.359,0.311-16.982l0,0
				c0.01-0.238,0.02-0.479,0.029-0.717c0.01-0.203,0.018-0.406,0.027-0.609c0.01-0.234,0.021-0.467,0.033-0.699
				c0.01-0.219,0.021-0.438,0.031-0.656c0.012-0.225,0.023-0.449,0.037-0.674c0.012-0.229,0.023-0.457,0.037-0.684
				c0.012-0.215,0.025-0.428,0.037-0.641c0.014-0.232,0.027-0.463,0.043-0.693c0.014-0.211,0.027-0.424,0.041-0.635
				c0.016-0.229,0.031-0.455,0.047-0.68c0.016-0.203,0.029-0.404,0.045-0.604c0.018-0.248,0.037-0.492,0.057-0.734
				c0.004-0.043,0.008-0.086,0.012-0.129c0.029-0.021,0.055-0.049,0.084-0.07c0.152-0.117,0.295-0.238,0.428-0.363
				c0.051-0.047,0.102-0.092,0.148-0.141c0.168-0.17,0.326-0.342,0.463-0.521c0.004-0.006,0.008-0.01,0.01-0.016
				c0.135-0.176,0.254-0.357,0.363-0.539c0.033-0.057,0.064-0.113,0.098-0.17c0.076-0.139,0.146-0.275,0.209-0.414
				c0.027-0.055,0.053-0.111,0.078-0.166c0.078-0.184,0.15-0.367,0.209-0.545c0.006-0.02,0.01-0.039,0.016-0.057
				c0.053-0.164,0.098-0.324,0.137-0.48c0.016-0.061,0.027-0.121,0.041-0.182c0.025-0.113,0.047-0.223,0.066-0.33
				c0.01-0.059,0.021-0.117,0.029-0.172c0.02-0.125,0.035-0.242,0.047-0.355c0.068-0.645,0.037-1.078,0.037-1.078
				s0.188,0.758,0.689,1.809l-0.002-0.002c0.002,0.006,0.006,0.01,0.008,0.014c0.063,0.131,0.129,0.262,0.201,0.398
				c0.041,0.08,0.088,0.162,0.133,0.246c0.066,0.121,0.131,0.238,0.205,0.365c0.119,0.197,0.248,0.398,0.387,0.604
				c0.059,0.086,0.121,0.172,0.184,0.26c0.115,0.16,0.238,0.322,0.367,0.484c0.063,0.078,0.121,0.154,0.188,0.232
				c0.197,0.234,0.404,0.469,0.633,0.697c0.033,0.035,0.07,0.066,0.104,0.1c0.207,0.205,0.43,0.404,0.662,0.6
				c0.068,0.057,0.139,0.113,0.211,0.17c0.262,0.209,0.537,0.412,0.832,0.604c0.02,0.014,0.039,0.027,0.059,0.041
				c0.318,0.203,0.662,0.393,1.02,0.57c0.082,0.041,0.168,0.078,0.25,0.117c0.305,0.141,0.621,0.27,0.953,0.389
				c0.086,0.031,0.166,0.063,0.254,0.092c0.406,0.135,0.836,0.252,1.287,0.348c0.084,0.018,0.174,0.029,0.26,0.045
				c0.379,0.072,0.775,0.127,1.188,0.166c0.137,0.014,0.271,0.027,0.412,0.037c0.512,0.035,1.039,0.055,1.6,0.035
				c0.387-0.012,0.764-0.053,1.131-0.113c0.121-0.021,0.236-0.055,0.355-0.08c0.242-0.049,0.486-0.1,0.721-0.17
				c0.133-0.039,0.26-0.09,0.391-0.135c0.211-0.072,0.422-0.143,0.625-0.229c0.133-0.055,0.258-0.119,0.387-0.18
				c0.191-0.09,0.385-0.182,0.57-0.281c0.123-0.068,0.242-0.141,0.363-0.213c0.18-0.105,0.357-0.215,0.529-0.328
				c0.113-0.076,0.225-0.154,0.336-0.234c0.168-0.119,0.334-0.242,0.494-0.367c0.104-0.082,0.203-0.164,0.303-0.246
				c0.158-0.131,0.311-0.264,0.461-0.398c0.09-0.082,0.18-0.164,0.268-0.246c0.148-0.141,0.289-0.279,0.428-0.422
				c0.08-0.08,0.158-0.158,0.234-0.238c0.137-0.145,0.266-0.287,0.391-0.432c0.068-0.074,0.135-0.15,0.199-0.225
				c0.127-0.146,0.242-0.289,0.357-0.432c0.055-0.066,0.109-0.135,0.16-0.199c0.115-0.148,0.221-0.289,0.324-0.428
				c0.039-0.053,0.082-0.109,0.121-0.162c0.104-0.145,0.197-0.277,0.287-0.41c0.025-0.039,0.057-0.08,0.082-0.119
				c0.088-0.129,0.162-0.246,0.234-0.357c0.293-0.459,0.449-0.752,0.449-0.752s0.002,0.055,0.008,0.137l0,0c0,0.002,0,0.006,0,0.006
				c0.002,0.025,0.006,0.053,0.008,0.086c0.004,0.033,0.008,0.068,0.012,0.111c0.004,0.025,0.008,0.049,0.012,0.078
				c0.008,0.053,0.018,0.111,0.029,0.174c0.006,0.025,0.01,0.049,0.016,0.076c0.016,0.072,0.033,0.15,0.055,0.23
				c0.006,0.021,0.01,0.043,0.016,0.064c0.027,0.094,0.059,0.191,0.094,0.291c0.004,0.014,0.008,0.025,0.012,0.037
				c0.127,0.35,0.316,0.727,0.6,1.086c0.012,0.014,0.025,0.027,0.037,0.043c0.082,0.1,0.17,0.197,0.266,0.291
				c0.029,0.029,0.063,0.055,0.092,0.082c0.086,0.08,0.178,0.156,0.275,0.229c0.043,0.033,0.09,0.063,0.135,0.094
				c0.096,0.064,0.197,0.125,0.303,0.184c0.041,0.021,0.078,0.045,0.119,0.064l3.482,26.35h3.076c0,0-0.041-8.359,0.311-16.982l0,0
				c0.012-0.318,0.025-0.637,0.041-0.953c0.004-0.115,0.01-0.229,0.014-0.346c0.014-0.283,0.027-0.566,0.041-0.848
				c0.008-0.164,0.016-0.328,0.023-0.492c0.014-0.266,0.027-0.527,0.043-0.791c0.01-0.188,0.02-0.375,0.029-0.563
				c0.016-0.248,0.029-0.496,0.045-0.742c0.012-0.197,0.023-0.395,0.035-0.59c0.016-0.236,0.031-0.471,0.047-0.703
				c0.014-0.211,0.029-0.42,0.043-0.629c0.016-0.217,0.031-0.434,0.047-0.646c0.018-0.234,0.037-0.467,0.055-0.697
				c0.016-0.184,0.029-0.369,0.045-0.549c0.029-0.359,0.061-0.711,0.094-1.059c0.014-0.137,0.025-0.27,0.039-0.404
				c0.029-0.303,0.061-0.604,0.092-0.896c0.004-0.049,0.01-0.094,0.016-0.141c0.061-0.086,0.115-0.168,0.164-0.25
				c0.014-0.023,0.025-0.047,0.039-0.07c0.063-0.109,0.117-0.215,0.158-0.309c0.002-0.004,0.006-0.01,0.008-0.014l0,0
				c0.137-0.314,0.176-0.527,0.176-0.527s0.039,0.418,0.238,1.02c0.016,0.047,0.031,0.094,0.049,0.143
				c0.025,0.072,0.051,0.143,0.082,0.219c0.037,0.092,0.078,0.188,0.123,0.283c0.02,0.047,0.037,0.088,0.059,0.135
				c0.07,0.145,0.152,0.295,0.24,0.445c0.027,0.045,0.055,0.09,0.084,0.133c0.074,0.121,0.154,0.24,0.24,0.361
				c0.033,0.045,0.064,0.09,0.1,0.135c0.109,0.143,0.227,0.283,0.355,0.424c0.018,0.02,0.031,0.039,0.051,0.057
				c0.152,0.164,0.32,0.324,0.504,0.48c0.027,0.021,0.059,0.045,0.086,0.066c0.156,0.129,0.322,0.252,0.5,0.371
				c0.055,0.037,0.109,0.072,0.166,0.107c0.178,0.111,0.365,0.217,0.566,0.318c0.051,0.025,0.098,0.051,0.148,0.076
				c0.076,0.035,0.156,0.07,0.234,0.104l0.971,7.342l0,0l2.246,16.982h3.072c0,0-0.039-8.365,0.313-16.994
				c0.004-0.113,0.01-0.229,0.016-0.344c0.014-0.336,0.027-0.672,0.043-1.008c0.008-0.193,0.018-0.385,0.027-0.578
				c0.012-0.25,0.023-0.5,0.037-0.748c0.012-0.223,0.023-0.445,0.035-0.666c0.012-0.225,0.023-0.447,0.037-0.67
				c0.012-0.229,0.025-0.457,0.039-0.686c0.014-0.209,0.025-0.418,0.039-0.625c0.016-0.232,0.029-0.463,0.045-0.691
				c0.014-0.209,0.029-0.414,0.043-0.619c0.01-0.141,0.021-0.279,0.031-0.42c3.273-1.227,3.777-4.383,3.777-4.383
				s2.527,2.482,5.891,2.305c4.867-0.258,7.43-20.748,7.43-22.541c0,0,5.984,9.096,5.863-14.61c0.449,1.29,1.066,2.592,1.822,3.726
				c0,0,5.568-0.577,6.402-6.275c0,0-5.891-4.867-7.939-4.1c-0.08,0.03-0.148,0.082-0.221,0.128l0.145-2.318
				c-0.164-0.057-0.322-0.126-0.484-0.186c-0.078-1.521-0.174-3.134-0.289-4.834c1.475-0.908,3.248-1.8,5.383-2.447
				c0.232,2.521,1.414,5.756,5.967,6.199c4.779,0.466,7.109-1.829,7.299-4.756c8.732,3.85,11.012,9.797,12.295,9.367
				C144.459,76.637,139.412,72.132,137.672,69.551z M112.572,59.394c1.021,1.076,1.695,2.171,2.346,3.209
				c-0.955,0.087-1.916,0.188-2.867,0.309C112.168,61.826,112.348,60.64,112.572,59.394z"/>
		</g>
	</g>
</g>
</svg>
