<?xml version="1.0" encoding="utf-8"?>
<!-- Generator: Adobe Illustrator 15.0.0, SVG Export Plug-In . SVG Version: 6.00 Build 0)  -->
<!DOCTYPE svg PUBLIC "-//W3C//DTD SVG 1.1//EN" "http://www.w3.org/Graphics/SVG/1.1/DTD/svg11.dtd">
<svg version="1.1"
	 id="svg2" inkscape:version="0.48.3.1 r9886" inkscape:export-ydpi="119.05568" inkscape:export-xdpi="119.05568" sodipodi:version="0.32" sodipodi:docname="moskito_2.svg" sodipodi:modified="true" xmlns:dc="http://purl.org/dc/elements/1.1/" xmlns:svg="http://www.w3.org/2000/svg" xmlns:ns1="http://sozi.baierouge.fr" xmlns:inkscape="http://www.inkscape.org/namespaces/inkscape" xmlns:rdf="http://www.w3.org/1999/02/22-rdf-syntax-ns#" xmlns:sodipodi="http://sodipodi.sourceforge.net/DTD/sodipodi-0.dtd" xmlns:cc="http://creativecommons.org/ns#" inkscape:output_extension="org.inkscape.output.svg.inkscape" inkscape:export-filename="/home/guillaume-louise/640*480.png"
	 xmlns="http://www.w3.org/2000/svg" xmlns:xlink="http://www.w3.org/1999/xlink" x="0px" y="0px" width="612px" height="438.443px"
	 viewBox="0 176.051 612 438.443" enable-background="new 0 176.051 612 438.443" xml:space="preserve">
<sodipodi:namedview  id="base" height="1052.3622px" width="744.09449px" inkscape:window-height="744" inkscape:pageshadow="2" inkscape:pageopacity="0" inkscape:window-width="1317" fit-margin-bottom="0" inkscape:window-y="24" inkscape:window-x="49" inkscape:document-units="px" fit-margin-right="0" inkscape:current-layer="layer1" fit-margin-top="0" showborder="true" pagecolor="#ffffff" inkscape:zoom="1" showgrid="false" fit-margin-left="0" borderlayer="false" inkscape:cy="165.19209" inkscape:cx="285.09155" bordercolor="#666666" borderopacity="1.0" inkscape:window-maximized="1">
	</sodipodi:namedview>
<g id="layer1" transform="translate(-205.78 -282.62)" inkscape:label="Calque 1" inkscape:groupmode="layer">
	<g id="g2806" transform="translate(2,2)">
		<g id="g2808">
			
				<path id="path2810" sodipodi:start="6.2668569" sodipodi:end="12.545032" sodipodi:cx="436" sodipodi:cy="645.36218" sodipodi:open="true" sodipodi:type="arc" sodipodi:ry="111" sodipodi:rx="35" fill="#B3B3B3" d="
				M649.351,536.999c-83.122,47.624-143.739,100.501-135.384,118.1c8.354,17.599,82.512-6.741,165.632-54.363
				c83.122-47.624,143.739-100.501,135.383-118.101c-8.325-17.536-82.011,6.566-164.885,53.937"/>
			<path id="path2812" sodipodi:nodetypes="ccccc" inkscape:connector-curvature="0" fill="#B3B3B3" d="M678.667,574.563
				c-41.871,29.818-152.639,64.249-141.455,79.264c11.184,15.016,163.589-62.079,205.975-98.032
				c43.411-32.387,76.876-59.797,65.693-74.81c-1.942-2.181-82.179,66.84-130.211,93.58L678.667,574.563z"/>
		</g>
		<g id="g2814">
			
				<path id="path2816" sodipodi:start="0" sodipodi:end="6.2768341" sodipodi:cx="436" sodipodi:cy="645.36218" sodipodi:open="true" sodipodi:type="arc" sodipodi:ry="111" sodipodi:rx="35" fill="#B3B3B3" d="
				M375.769,538.413c82.976,47.906,142.369,100.376,132.658,117.195c-9.711,16.818-84.847-8.382-167.823-56.287
				c-82.976-47.906-142.368-100.376-132.658-117.195c9.667-16.743,84.206,8.153,166.875,55.741"/>
			<path id="path2818" sodipodi:nodetypes="ccccc" inkscape:connector-curvature="0" fill="#B3B3B3" d="M353.584,562.122
				c-41.872-29.818-152.639-64.249-141.455-79.265c11.183-15.015,163.588,62.08,205.974,98.033
				c43.411,32.387,76.876,59.797,65.693,74.81c-1.942,2.181-82.179-66.84-130.211-93.58L353.584,562.122z"/>
		</g>
		<g id="g2820" transform="translate(-2)">
			<g id="g2822">
				
					<path id="path2824" sodipodi:start="0" sodipodi:end="6.2768341" sodipodi:cx="159" sodipodi:cy="166.36218" sodipodi:open="true" sodipodi:type="arc" sodipodi:ry="25" sodipodi:rx="25" fill="#B3B3B3" d="
					M510.235,511.027c0,21.155-17.15,38.306-38.306,38.306s-38.307-17.15-38.307-38.306c0-21.156,17.151-38.307,38.307-38.307
					c21.061,0,38.171,17.002,38.306,38.063"/>
				
					<path id="path2826" sodipodi:start="0" sodipodi:end="6.2752337" sodipodi:cx="159" sodipodi:cy="166.36218" sodipodi:open="true" sodipodi:type="arc" sodipodi:ry="22.003622" sodipodi:rx="26.797827" fill="#B3B3B3" d="
					M476.296,499.151c-4.751,12.327-17.135,22.449-27.658,22.607c-10.523,0.159-15.202-9.707-10.45-22.034
					c4.752-12.328,17.135-22.45,27.658-22.608c10.464-0.157,15.16,9.601,10.518,21.857"/>
				<g id="g2828" transform="matrix(.031238 0 0 .031238 377.45 315.43)" inkscape:label="Layer 1">
					<g id="g2830">
						
							<path id="path2832" inkscape:label="#path1310" sodipodi:cx="147.89955" sodipodi:cy="259.77228" sodipodi:type="arc" sodipodi:ry="227.53777" sodipodi:rx="227.53777" fill="#B3B3B3" d="
							M4101.603,6337.021c0,235.653-191.027,426.664-426.679,426.664c-235.653,0-426.679-191.011-426.679-426.664
							c0-235.653,191.026-426.664,426.679-426.664C3910.576,5910.357,4101.603,6101.368,4101.603,6337.021z"/>
						
							<path id="path2834" inkscape:rounded="0" inkscape:randomized="0" inkscape:flatsided="false" sodipodi:sides="24" sodipodi:arg2="0.094218906" sodipodi:arg1="-0.036680788" sodipodi:r1="206.81926" sodipodi:r2="73.729027" sodipodi:cx="-235.12236" sodipodi:cy="409.56799" sodipodi:type="star" fill="#B3B3B3" d="
							M3988.043,6368.033l-203.906-5.471l185.196,85.439l-195.544-58.054l156.779,130.488l-173.833-106.697l117.655,166.626
							l-140.304-148.057l70.527,191.386l-97.209-179.319l18.585,203.141l-47.471-198.389l-34.623,201.015l5.471-203.891
							l-85.455,185.196l58.069-195.544l-130.503,156.779l106.697-173.848l-166.611,117.67l148.057-140.304l-191.402,70.527
							l179.319-97.225l-203.125,18.601l198.373-47.487l-201.015-34.607l203.906,5.471l-185.212-85.47l195.544,58.085
							l-156.779-130.519l173.848,106.697l-117.655-166.595l140.304,148.057l-70.527-191.417l97.209,179.319l-18.585-203.109
							l47.471,198.357l34.623-201.015l-5.486,203.922l85.47-185.196l-58.069,195.513l130.503-156.779l-106.697,173.848
							l166.611-117.639l-148.057,140.304l191.402-70.527l-179.319,97.194l203.125-18.57l-198.373,47.456L3988.043,6368.033z"/>
						
							<path id="path2836" inkscape:rounded="0" inkscape:randomized="0" inkscape:flatsided="false" sodipodi:sides="24" sodipodi:arg2="0.094218906" sodipodi:arg1="-0.036680788" sodipodi:r1="206.81926" sodipodi:r2="73.729027" sodipodi:cx="-235.12236" sodipodi:cy="409.56799" sodipodi:type="star" fill="#B3B3B3" d="
							M4042.705,6323.516l-237.169,25.854l228.135,69.808l-235.794-36.42l202.296,126.455l-218.302-96.193l162.656,174.504
							l-185.978-149.432l111.949,210.706l-140.96-192.48l53.599,232.464l-86.33-222.398l-8.394,238.404l-25.838-237.154
							l-69.808,228.119l36.42-235.778l-126.47,202.296l96.193-218.302l-174.52,162.656l149.432-185.978l-210.675,111.949
							l192.48-140.96l-232.48,53.615l222.398-86.346l-238.42-8.41l237.185-25.822l-228.135-69.808l235.778,36.42l-202.296-126.486
							l218.318,96.225l-162.672-174.536l185.978,149.433l-111.949-210.675l140.976,192.48l-53.615-232.496l86.346,222.398
							l8.378-238.404l25.854,237.185l69.808-228.15l-36.436,235.778l126.486-202.296l-96.209,218.333l174.52-162.656
							l-149.432,185.947l210.675-111.949l-192.465,140.991l232.48-53.614l-222.414,86.346L4042.705,6323.516z"/>
						
							<path id="path2838" sodipodi:cx="147.89955" sodipodi:cy="259.77228" sodipodi:type="arc" sodipodi:ry="227.53777" sodipodi:rx="227.53777" fill="#B3B3B3" d="
							M3842.034,6337.021c0,92.286-74.825,167.127-167.111,167.127c-92.301,0-167.111-74.841-167.111-167.127
							c0-92.285,74.81-167.126,167.111-167.126C3767.208,6169.894,3842.034,6244.735,3842.034,6337.021z"/>
						
							<path id="path2840" sodipodi:cx="-209.52437" sodipodi:cy="340.35858" sodipodi:type="arc" sodipodi:ry="63.520962" sodipodi:rx="103.34007" fill="#B3B3B3" d="
							M3672.344,5986.855c59.366,59.367,29.199,185.79-67.385,282.358c-96.584,96.6-223.023,126.768-282.39,67.401
							c-59.367-59.367-29.199-185.79,67.385-282.39C3486.538,5957.656,3612.962,5927.488,3672.344,5986.855z"/>
						
							<path id="path2842" sodipodi:cx="-209.52437" sodipodi:cy="340.35858" sodipodi:type="arc" sodipodi:ry="63.520962" sodipodi:rx="103.34007" fill="#B3B3B3" d="
							M3986.793,6568.047c13.443,50.207-41.86,108.636-123.516,130.519c-81.672,21.883-158.78-1.063-172.222-51.27
							c-13.458-50.207,41.844-108.635,123.5-130.519C3896.227,6494.894,3973.334,6517.84,3986.793,6568.047z"/>
					</g>
				</g>
			</g>
			<g id="g2844">
				
					<path id="path2846" sodipodi:start="0" sodipodi:end="6.2768341" sodipodi:cx="159" sodipodi:cy="166.36218" sodipodi:open="true" sodipodi:type="arc" sodipodi:ry="25" sodipodi:rx="25" fill="#B3B3B3" d="
					M615.485,511.807c0,27.926-22.638,50.563-50.563,50.563s-50.563-22.638-50.563-50.563c0-27.925,22.638-50.563,50.563-50.563
					c27.8,0,50.386,22.442,50.563,50.242"/>
				
					<path id="path2848" sodipodi:start="0" sodipodi:end="6.2752337" sodipodi:cx="159" sodipodi:cy="166.36218" sodipodi:open="true" sodipodi:type="arc" sodipodi:ry="22.003622" sodipodi:rx="26.797827" fill="#B3B3B3" d="
					M577.653,499.523c-9.424,16.075-28.968,27.342-43.651,25.164c-14.683-2.179-18.946-16.977-9.522-33.053
					c9.424-16.075,28.968-27.342,43.651-25.164c14.601,2.167,18.912,16.818,9.657,32.821"/>
				<g id="g2850" transform="matrix(.031238 0 0 .031238 403.45 315.43)" inkscape:label="Layer 1">
					<g id="g2852">
						
							<path id="path2854" inkscape:label="#path1310" sodipodi:cx="147.89955" sodipodi:cy="259.77228" sodipodi:type="arc" sodipodi:ry="227.53777" sodipodi:rx="227.53777" fill="#B3B3B3" d="
							M4570.095,6337.021c0,235.653-191.011,426.664-426.664,426.664s-426.664-191.011-426.664-426.664
							c0-235.653,191.011-426.664,426.664-426.664S4570.095,6101.368,4570.095,6337.021z"/>
						
							<path id="path2856" inkscape:rounded="0" inkscape:randomized="0" inkscape:flatsided="false" sodipodi:sides="24" sodipodi:arg2="0.094218906" sodipodi:arg1="-0.036680788" sodipodi:r1="206.81926" sodipodi:r2="73.729027" sodipodi:cx="-235.12236" sodipodi:cy="409.56799" sodipodi:type="star" fill="#B3B3B3" d="
							M4456.551,6368.033l-203.922-5.471l185.228,85.439l-195.544-58.054l156.779,130.488l-173.848-106.697l117.67,166.626
							l-140.304-148.057l70.527,191.386l-97.225-179.319l18.601,203.141l-47.487-198.389l-34.607,201.015l5.471-203.891
							l-85.47,185.196l58.053-195.544l-130.488,156.779l106.697-173.848l-166.626,117.67l148.057-140.304l-191.386,70.527
							l179.319-97.225l-203.109,18.601l198.357-47.487l-201.015-34.607l203.922,5.471l-185.228-85.47l195.544,58.085
							l-156.779-130.519l173.848,106.697l-117.67-166.595l140.304,148.057l-70.527-191.417l97.225,179.319l-18.601-203.109
							l47.487,198.357l34.639-201.015l-5.502,203.922l85.47-185.196l-58.053,195.513l130.487-156.779l-106.697,173.848
							l166.626-117.639l-148.057,140.304l191.386-70.527l-179.319,97.194l203.14-18.57l-198.389,47.456L4456.551,6368.033z"/>
						
							<path id="path2858" inkscape:rounded="0" inkscape:randomized="0" inkscape:flatsided="false" sodipodi:sides="24" sodipodi:arg2="0.094218906" sodipodi:arg1="-0.036680788" sodipodi:r1="206.81926" sodipodi:r2="73.729027" sodipodi:cx="-235.12236" sodipodi:cy="409.56799" sodipodi:type="star" fill="#B3B3B3" d="
							M4511.228,6323.516l-237.185,25.854l228.15,69.808l-235.809-36.42l202.296,126.455l-218.303-96.193l162.656,174.504
							l-185.978-149.432l111.949,210.706l-140.96-192.48l53.614,232.464l-86.346-222.398l-8.378,238.404l-25.854-237.154
							l-69.808,228.119l36.42-235.778l-126.486,202.296l96.224-218.302l-174.536,162.656l149.432-185.978l-210.675,111.949
							l192.48-140.96l-232.464,53.615l222.398-86.346l-238.435-8.41l237.185-25.822l-228.15-69.808l235.809,36.42l-202.296-126.486
							l218.302,96.225l-162.656-174.536l185.978,149.433l-111.949-210.675l140.96,192.48l-53.615-232.496l86.346,222.398
							l8.378-238.404l25.854,237.185l69.808-228.15l-36.42,235.778l126.486-202.296l-96.225,218.333l174.536-162.656
							l-149.432,185.947l210.674-111.949l-192.48,140.991l232.464-53.614l-222.398,86.346L4511.228,6323.516z"/>
						
							<path id="path2860" sodipodi:cx="147.89955" sodipodi:cy="259.77228" sodipodi:type="arc" sodipodi:ry="227.53777" sodipodi:rx="227.53777" fill="#B3B3B3" d="
							M4310.558,6337.021c0,92.286-74.841,167.127-167.127,167.127c-92.285,0-167.126-74.841-167.126-167.127
							c0-92.285,74.841-167.126,167.126-167.126C4235.716,6169.894,4310.558,6244.735,4310.558,6337.021z"/>
						
							<path id="path2862" sodipodi:cx="-209.52437" sodipodi:cy="340.35858" sodipodi:type="arc" sodipodi:ry="63.520962" sodipodi:rx="103.34007" fill="#B3B3B3" d="
							M4140.836,5986.855c59.398,59.367,29.199,185.79-67.37,282.358c-96.6,96.6-223.023,126.768-282.39,67.401
							c-59.366-59.367-29.199-185.79,67.401-282.39C3955.046,5957.656,4081.469,5927.488,4140.836,5986.855z"/>
						
							<path id="path2864" sodipodi:cx="-209.52437" sodipodi:cy="340.35858" sodipodi:type="arc" sodipodi:ry="63.520962" sodipodi:rx="103.34007" fill="#B3B3B3" d="
							M4455.3,6568.047c13.443,50.207-41.859,108.636-123.516,130.519c-81.656,21.883-158.78-1.063-172.222-51.27
							c-13.443-50.207,41.86-108.635,123.516-130.519S4441.858,6517.84,4455.3,6568.047z"/>
					</g>
				</g>
			</g>
		</g>
		<g id="g2866">
			
				<path id="path2868" sodipodi:start="0" sodipodi:end="6.2664169" sodipodi:cx="436" sodipodi:cy="645.36218" sodipodi:open="true" sodipodi:type="arc" sodipodi:ry="111" sodipodi:rx="35" fill="#B3B3B3" d="
				M637.002,643.987c67.875,5.938,121.922,21.906,120.718,35.664c-1.203,13.759-57.202,20.098-125.077,14.159
				s-121.922-21.905-120.719-35.663c1.189-13.596,55.935-19.976,123.018-14.337"/>
			<path id="path2870" sodipodi:nodetypes="ccsscscsc" inkscape:connector-curvature="0" fill="#B3B3B3" d="M657.459,692.687
				c44.591,1.558,93.439,1.632,94.09-16.975c0.243-6.989-6.622-0.388-21.456,3.004c-13.895,3.177-51.08,4.527-63.246,4.482
				c-61.048-0.252-11.499-1.314-36.152-0.082c-19.896,1.331-52.332-5.98-65.856-10.866c-20.807-7.516-25.555-17.331-29.399-6.497
				c-0.254,7.258,0.788,4.36,16.917,11.202C576.119,687.036,630.262,691.736,657.459,692.687L657.459,692.687z"/>
		</g>
		<g id="g2872">
			
				<path id="path2874" sodipodi:start="6.2447139" sodipodi:end="12.498967" sodipodi:cx="436" sodipodi:cy="645.36218" sodipodi:open="true" sodipodi:type="arc" sodipodi:ry="111" sodipodi:rx="35" fill="#B3B3B3" d="
				M385.32,694.188c67.871-5.404,124.033-21.116,125.443-35.093c1.408-13.978-52.471-20.926-120.343-15.521
				c-67.871,5.404-124.033,21.116-125.443,35.093c-1.379,13.691,50.369,20.689,116.786,15.794"/>
			<path id="path2876" sodipodi:nodetypes="ccsscscsc" inkscape:connector-curvature="0" fill="#B3B3B3" d="M390.609,645.691
				c44.449-3.889,93.227-6.52,94.849,12.026c0.609,6.967-6.592,0.733-21.583-1.877c-14.042-2.445-51.248-1.848-63.393-1.167
				c-60.951,3.447-11.415,1.915-36.1,1.975c-19.938-0.288-51.946,8.711-65.198,14.298c-20.385,8.595-24.613,18.646-29.019,8.027
				c-0.633-7.234,0.559-4.396,16.307-12.072C309.676,655.59,363.499,648.063,390.609,645.691L390.609,645.691z"/>
		</g>
		<g id="g2878">
			<path id="path2880" sodipodi:nodetypes="ccccc" inkscape:connector-curvature="0" fill="#B3B3B3" d="M558.355,725.694
				c0,64.129-20.848,169.419-49.054,169.419c-28.205,0-44.966-106.907-44.966-171.028c0-64.129,18.803-77.449,47.011-77.449
				c28.205,0,47.01,14.935,47.01,79.063L558.355,725.694z"/>
			<path id="path2882" sodipodi:nodetypes="ccccc" inkscape:connector-curvature="0" fill="#B3B3B3" d="M557.558,617.573
				c0,19.153-18.551,47.55-44.056,47.55s-48.353-28.396-48.353-47.55s20.618-72.816,46.122-72.816
				C536.778,544.757,557.559,598.42,557.558,617.573L557.558,617.573z"/>
			<path id="path2884" sodipodi:nodetypes="cscccc" inkscape:connector-curvature="0" fill="#B3B3B3" d="M502.684,741.762
				c0,22.843,1.06,63.882,4.515,95.733c3.294,30.364,9.225,52.12,0.139,52.12c-18.617,0-44.477-124.694-37.966-172.279
				c0-44.618,9.452-58.622,28.068-58.622c18.618,0,5.244,38.424,5.244,83.043L502.684,741.762z"/>
			<path id="path2886" sodipodi:nodetypes="cscccc" inkscape:connector-curvature="0" fill="#B3B3B3" d="M501.747,596.615
				c0,6.59-1.594,21.005,0.634,31.953c2.629,12.924,9.104,22.323-1.253,22.323c-19.133,0-31.54-21.895-31.54-36.263
				s19.611-64.098,38.744-64.098S501.747,582.246,501.747,596.615L501.747,596.615z"/>
		</g>
	</g>
	<g id="g2702">
		
			<linearGradient id="path2798_1_" gradientUnits="userSpaceOnUse" x1="319.8513" y1="417.089" x2="712.4257" y2="417.089" gradientTransform="matrix(-0.5024 -0.8701 1.3535 -0.7814 413.0825 1438.0042)">
			<stop  offset="0" style="stop-color:#000000"/>
			<stop  offset="1" style="stop-color:#FFFFFF"/>
		</linearGradient>
		
			<path id="path2798" sodipodi:start="6.2668569" sodipodi:end="12.545032" sodipodi:cx="436" sodipodi:cy="645.36218" sodipodi:open="true" sodipodi:type="arc" sodipodi:ry="111" sodipodi:rx="35" fill="url(#path2798_1_)" d="
			M648.225,535.873c-83.122,47.624-143.739,100.501-135.383,118.1c8.354,17.6,82.511-6.74,165.631-54.363
			c83.122-47.624,143.739-100.501,135.384-118.101c-8.325-17.536-82.012,6.566-164.886,53.937"/>
		<path id="path88550" sodipodi:nodetypes="ccccc" inkscape:connector-curvature="0" fill="#D7D7D7" d="M677.541,573.437
			c-41.871,29.818-152.639,64.249-141.454,79.265c11.183,15.015,163.588-62.08,205.974-98.033
			c43.411-32.387,76.876-59.797,65.693-74.81c-1.941-2.181-82.179,66.84-130.211,93.58L677.541,573.437z"/>
	</g>
	<g id="g2694">
		
			<linearGradient id="path2777_1_" gradientUnits="userSpaceOnUse" x1="311.0182" y1="426.797" x2="703.5982" y2="426.797" gradientTransform="matrix(0.5024 -0.8701 -1.3535 -0.7814 624.8461 1438.0042)">
			<stop  offset="0" style="stop-color:#000000"/>
			<stop  offset="1" style="stop-color:#FFFFFF"/>
		</linearGradient>
		
			<path id="path2777" sodipodi:start="0" sodipodi:end="6.2768341" sodipodi:cx="436" sodipodi:cy="645.36218" sodipodi:open="true" sodipodi:type="arc" sodipodi:ry="111" sodipodi:rx="35" fill="url(#path2777_1_)" d="
			M374.643,537.287c82.976,47.906,142.369,100.376,132.658,117.195c-9.71,16.819-84.847-8.381-167.823-56.287
			C256.502,550.289,197.109,497.819,206.82,481c9.667-16.743,84.206,8.153,166.875,55.741"/>
		<path id="path88548" sodipodi:nodetypes="ccccc" inkscape:connector-curvature="0" fill="#D7D7D7" d="M352.458,560.996
			c-41.872-29.818-152.639-64.249-141.455-79.264c11.183-15.016,163.589,62.079,205.975,98.032
			c43.411,32.387,76.876,59.797,65.693,74.81c-1.942,2.181-82.179-66.84-130.211-93.58L352.458,560.996z"/>
	</g>
	<g id="g2706">
		
			<linearGradient id="path2802_1_" gradientUnits="userSpaceOnUse" x1="301.3454" y1="435.6925" x2="693.9254" y2="435.6925" gradientTransform="matrix(0.0623 -0.7118 -1.1072 -0.0969 1078.2806 1142.1215)">
			<stop  offset="0" style="stop-color:#000000"/>
			<stop  offset="1" style="stop-color:#FFFFFF"/>
		</linearGradient>
		
			<path id="path2802" sodipodi:start="0" sodipodi:end="6.2664169" sodipodi:cx="436" sodipodi:cy="645.36218" sodipodi:open="true" sodipodi:type="arc" sodipodi:ry="111" sodipodi:rx="35" fill="url(#path2802_1_)" d="
			M635.876,642.861c67.875,5.938,121.922,21.906,120.718,35.664c-1.203,13.759-57.202,20.098-125.077,14.159
			c-67.875-5.938-121.922-21.905-120.719-35.663c1.189-13.596,55.935-19.976,123.019-14.336"/>
		<path id="path88554" sodipodi:nodetypes="ccsscscsc" inkscape:connector-curvature="0" fill="#D7D7D7" d="M656.333,691.561
			c44.591,1.558,93.439,1.632,94.09-16.975c0.244-6.989-6.622-0.388-21.456,3.004c-13.894,3.177-51.08,4.527-63.246,4.483
			c-61.048-0.253-11.499-1.314-36.152-0.083c-19.896,1.332-52.332-5.98-65.856-10.866c-20.807-7.516-25.555-17.331-29.399-6.497
			c-0.253,7.258,0.789,4.36,16.917,11.202C574.993,685.91,629.136,690.61,656.333,691.561L656.333,691.561z"/>
	</g>
	<g id="g2698">
		
			<linearGradient id="path2804_1_" gradientUnits="userSpaceOnUse" x1="369.4704" y1="439.5236" x2="762.0504" y2="439.5236" gradientTransform="matrix(0.0623 0.7118 -1.1072 0.0969 831.3294 144.5493)">
			<stop  offset="0" style="stop-color:#000000"/>
			<stop  offset="1" style="stop-color:#FFFFFF"/>
		</linearGradient>
		
			<path id="path2804" sodipodi:start="6.2447139" sodipodi:end="12.498967" sodipodi:cx="436" sodipodi:cy="645.36218" sodipodi:open="true" sodipodi:type="arc" sodipodi:ry="111" sodipodi:rx="35" fill="url(#path2804_1_)" d="
			M384.195,693.062c67.87-5.404,124.032-21.116,125.442-35.093c1.408-13.978-52.47-20.926-120.343-15.521
			c-67.87,5.404-124.033,21.116-125.443,35.093c-1.379,13.692,50.37,20.689,116.786,15.794"/>
		<path id="path88552" sodipodi:nodetypes="ccsscscsc" inkscape:connector-curvature="0" fill="#D7D7D7" d="M389.483,644.565
			c44.449-3.889,93.227-6.52,94.849,12.026c0.61,6.967-6.592,0.733-21.583-1.877c-14.042-2.445-51.248-1.848-63.393-1.167
			c-60.952,3.448-11.415,1.915-36.1,1.975c-19.938-0.288-51.946,8.711-65.198,14.298c-20.385,8.595-24.613,18.646-29.019,8.027
			c-0.633-7.234,0.56-4.396,16.308-12.072C308.55,654.464,362.373,646.937,389.483,644.565L389.483,644.565z"/>
	</g>
	<g id="g2710">
		
			<linearGradient id="path920_1_" gradientUnits="userSpaceOnUse" x1="570.1638" y1="562.8712" x2="632.0438" y2="562.8712" gradientTransform="matrix(1.5629 0 0 -1.5629 -429.358 1649.46)">
			<stop  offset="0" style="stop-color:#CACACA"/>
			<stop  offset="1" style="stop-color:#000000"/>
		</linearGradient>
		<path id="path920" sodipodi:nodetypes="ccccc" inkscape:connector-curvature="0" fill="url(#path920_1_)" d="M557.229,724.569
			c0,64.129-20.848,169.418-49.054,169.418c-28.205,0-44.966-106.907-44.966-171.028c0-64.129,18.803-77.449,47.011-77.449
			c28.205,0,47.011,14.936,47.011,79.063L557.229,724.569z"/>
		
			<linearGradient id="path922_1_" gradientUnits="userSpaceOnUse" x1="570.1647" y1="669.0421" x2="632.0437" y2="669.0421" gradientTransform="matrix(1.5629 0 0 -1.5629 -429.358 1649.46)">
			<stop  offset="0" style="stop-color:#CACACA"/>
			<stop  offset="1" style="stop-color:#000000"/>
		</linearGradient>
		<path id="path922" sodipodi:nodetypes="ccccc" inkscape:connector-curvature="0" fill="url(#path922_1_)" d="M556.432,616.447
			c0,19.153-18.55,47.55-44.056,47.55c-25.504,0-48.353-28.396-48.353-47.55s20.618-72.816,46.123-72.816
			C535.652,543.631,556.433,597.294,556.432,616.447L556.432,616.447z"/>
		<path id="path78790" sodipodi:nodetypes="cscccc" inkscape:connector-curvature="0" fill="#B3B3B3" d="M501.559,740.636
			c0,22.843,1.059,63.882,4.514,95.733c3.294,30.364,9.226,52.12,0.139,52.12c-18.617,0-44.477-124.694-37.966-172.278
			c0-44.619,9.452-58.623,28.068-58.623c18.617,0,5.244,38.424,5.244,83.043L501.559,740.636z"/>
		<path id="path79763" sodipodi:nodetypes="cscccc" inkscape:connector-curvature="0" fill="#B3B3B3" d="M500.621,595.489
			c0,6.59-1.593,21.005,0.634,31.953c2.629,12.924,9.105,22.323-1.253,22.323c-19.133,0-31.54-21.895-31.54-36.263
			s19.611-64.098,38.744-64.098C526.34,549.405,500.621,581.12,500.621,595.489L500.621,595.489z"/>
	</g>
	<g id="g3893" transform="translate(-136.55 40.761)">
		
			<path id="path3895" inkscape:connector-curvature="0" fill="none" stroke="#B3B3B3" stroke-width="8" stroke-linecap="round" stroke-linejoin="round" d="
			M649.33,496.621c-107.512,119.813-96.024,206.85-96.024,206.85"/>
		
			<path id="path3897" inkscape:connector-curvature="0" fill="none" stroke="#B3B3B3" stroke-width="2" stroke-linecap="round" stroke-linejoin="round" d="
			M647.658,495.137c-107.515,119.804-96.032,206.834-96.032,206.834"/>
	</g>
	
		<path id="path73770" sodipodi:start="0" sodipodi:end="6.2768341" sodipodi:cx="159" sodipodi:cy="166.36218" sodipodi:open="true" sodipodi:type="arc" sodipodi:ry="25" sodipodi:rx="25" fill="#DEE8E8" d="
		M507.11,509.901c0,21.155-17.151,38.307-38.307,38.307s-38.306-17.151-38.306-38.307c0-21.156,17.15-38.307,38.306-38.307
		c21.061,0,38.172,17.002,38.307,38.063"/>
	
		<path id="path81705" sodipodi:start="0" sodipodi:end="6.2752337" sodipodi:cx="159" sodipodi:cy="166.36218" sodipodi:open="true" sodipodi:type="arc" sodipodi:ry="22.003622" sodipodi:rx="26.797827" fill="#F8F8F8" fill-opacity="0.75" d="
		M473.171,498.025c-4.752,12.327-17.135,22.45-27.658,22.608c-10.523,0.158-15.202-9.707-10.45-22.035
		c4.752-12.327,17.135-22.45,27.658-22.608c10.464-0.157,15.16,9.601,10.518,21.857"/>
	<g id="g28009" transform="matrix(.031238 0 0 .031238 374.99 322.42)" inkscape:label="Layer 1">
		<g id="g2059">
			
				<radialGradient id="eyecol_1_" cx="-914.4313" cy="15096.4531" r="227.531" gradientTransform="matrix(1.1438 0 0 -1.1438 3947.915 33066.1875)" gradientUnits="userSpaceOnUse">
				<stop  offset="0" style="stop-color:#24424C"/>
				<stop  offset="1" style="stop-color:#79DFEE"/>
			</radialGradient>
			
				<path id="eyecol" inkscape:label="#path1310" sodipodi:cx="147.89955" sodipodi:cy="259.77228" sodipodi:type="arc" sodipodi:ry="227.53777" sodipodi:rx="227.53777" fill="url(#eyecol_1_)" d="
				M4057.259,6426.937c0,235.653-191.026,426.664-426.664,426.664c-235.653,0-426.679-191.011-426.679-426.664
				c0-235.653,191.027-426.664,426.679-426.664C3866.232,6000.273,4057.259,6191.284,4057.259,6426.937z"/>
			
				<radialGradient id="path2067_1_" cx="-13113.9746" cy="10470.8799" r="206.6789" gradientTransform="matrix(1.5228 0 0 -1.5228 22872.25 31744.7383)" gradientUnits="userSpaceOnUse">
				<stop  offset="0" style="stop-color:#000000;stop-opacity:0.251"/>
				<stop  offset="1" style="stop-color:#000000;stop-opacity:0"/>
			</radialGradient>
			
				<path id="path2067" inkscape:rounded="0" inkscape:randomized="0" inkscape:flatsided="false" sodipodi:sides="24" sodipodi:arg2="0.094218906" sodipodi:arg1="-0.036680788" sodipodi:r1="206.81926" sodipodi:r2="73.729027" sodipodi:cx="-235.12236" sodipodi:cy="409.56799" sodipodi:type="star" fill="url(#path2067_1_)" d="
				M3943.7,6457.949l-203.891-5.471l185.196,85.47l-195.544-58.085l156.779,130.488l-173.832-106.697l117.655,166.626
				l-140.304-148.057l70.527,191.386l-97.209-179.319l18.585,203.141l-47.471-198.389l-34.623,201.015l5.471-203.891l-85.47,185.196
				l58.069-195.544l-130.488,156.779l106.697-173.848l-166.611,117.67l148.041-140.304l-191.386,70.527l179.319-97.194
				l-203.125,18.57l198.373-47.487l-201.015-34.607l203.906,5.471l-185.212-85.471l195.544,58.085l-156.779-130.487l173.848,106.697
				l-117.67-166.626l140.32,148.057l-70.527-191.417l97.194,179.319l-18.57-203.109l47.471,198.357l34.623-200.983l-5.487,203.891
				l85.47-185.196l-58.069,195.544l130.488-156.779l-106.697,173.816l166.626-117.639l-148.057,140.304l191.402-70.527
				l-179.319,97.193l203.125-18.569l-198.373,47.456L3943.7,6457.949z"/>
			
				<radialGradient id="path2065_1_" cx="-13087.0889" cy="10545.3311" r="206.6642" gradientTransform="matrix(1.7795 0 0 -1.7795 26190.6465 34563.9375)" gradientUnits="userSpaceOnUse">
				<stop  offset="0" style="stop-color:#FFFFFF;stop-opacity:0.3726"/>
				<stop  offset="1" style="stop-color:#FFFFFF;stop-opacity:0.0941"/>
			</radialGradient>
			
				<path id="path2065" inkscape:rounded="0" inkscape:randomized="0" inkscape:flatsided="false" sodipodi:sides="24" sodipodi:arg2="0.094218906" sodipodi:arg1="-0.036680788" sodipodi:r1="206.81926" sodipodi:r2="73.729027" sodipodi:cx="-235.12236" sodipodi:cy="409.56799" sodipodi:type="star" fill="url(#path2065_1_)" d="
				M3998.377,6413.432l-237.169,25.854l228.134,69.808l-235.794-36.42l202.297,126.455l-218.303-96.193l162.656,174.536
				l-185.978-149.464l111.949,210.706l-140.96-192.48l53.599,232.464l-86.346-222.398l-8.378,238.404l-25.838-237.154
				l-69.808,228.119l36.42-235.778l-126.486,202.296l96.209-218.302l-174.52,162.656l149.432-185.978l-210.675,111.949
				l192.464-140.96l-232.464,53.614l222.398-86.346l-238.42-8.41l237.169-25.822l-228.119-69.808l235.778,36.42l-202.296-126.486
				l218.318,96.225l-162.672-174.536l185.978,149.432l-111.949-210.674l140.96,192.48l-53.599-232.496l86.346,222.429l8.378-238.435
				l25.838,237.185l69.823-228.15l-36.436,235.778l126.486-202.296l-96.209,218.334l174.52-162.656l-149.432,185.978
				l210.675-111.949l-192.464,140.96l232.48-53.614l-222.413,86.346L3998.377,6413.432z"/>
			
				<path id="path1306" sodipodi:cx="147.89955" sodipodi:cy="259.77228" sodipodi:type="arc" sodipodi:ry="227.53777" sodipodi:rx="227.53777" d="
				M3797.706,6426.937c0,92.285-74.826,167.126-167.111,167.126c-92.301,0-167.111-74.841-167.111-167.126
				c0-92.286,74.81-167.127,167.111-167.127C3722.88,6259.81,3797.706,6334.651,3797.706,6426.937z"/>
			
				<radialGradient id="path2809_1_" cx="-12403.0928" cy="12960.3516" r="103.3395" fx="-12401.0029" fy="12922.8213" gradientTransform="matrix(1.8062 -1.8062 -1.0395 -1.0395 33095.9922 1257.9874)" gradientUnits="userSpaceOnUse">
				<stop  offset="0" style="stop-color:#FFFFFF"/>
				<stop  offset="1" style="stop-color:#FFFFFF;stop-opacity:0"/>
			</radialGradient>
			
				<path id="path2809" sodipodi:cx="-209.52437" sodipodi:cy="340.35858" sodipodi:type="arc" sodipodi:ry="63.520962" sodipodi:rx="103.34007" fill="url(#path2809_1_)" d="
				M3628.016,6076.771c59.366,59.367,29.199,185.79-67.401,282.358c-96.584,96.6-223.008,126.768-282.374,67.401
				c-59.366-59.366-29.199-185.79,67.385-282.39C3442.21,6047.572,3568.634,6017.405,3628.016,6076.771z"/>
			
				<radialGradient id="path3559_1_" cx="-12503.7715" cy="12438.0264" r="103.3537" fx="-12498.7305" fy="12467.9707" gradientTransform="matrix(1.072 -0.6189 -0.4291 -0.7432 27113.457 26029.5762)" gradientUnits="userSpaceOnUse">
				<stop  offset="0" style="stop-color:#FFFFFF"/>
				<stop  offset="1" style="stop-color:#FFFFFF;stop-opacity:0"/>
			</radialGradient>
			
				<path id="path3559" sodipodi:cx="-209.52437" sodipodi:cy="340.35858" sodipodi:type="arc" sodipodi:ry="63.520962" sodipodi:rx="103.34007" fill="url(#path3559_1_)" d="
				M3942.449,6657.963c13.458,50.207-41.844,108.636-123.501,130.519c-81.672,21.883-158.78-1.063-172.222-51.27
				c-13.458-50.207,41.844-108.636,123.501-130.519C3851.899,6584.81,3929.006,6607.756,3942.449,6657.963z"/>
		</g>
	</g>
	
		<path id="path67747" sodipodi:start="0" sodipodi:end="6.2768341" sodipodi:cx="159" sodipodi:cy="166.36218" sodipodi:open="true" sodipodi:type="arc" sodipodi:ry="25" sodipodi:rx="25" fill="#DEE8E8" d="
		M612.359,510.681c0,27.926-22.638,50.563-50.563,50.563c-27.925,0-50.563-22.638-50.563-50.563
		c0-27.925,22.639-50.563,50.563-50.563c27.8,0,50.386,22.442,50.563,50.242"/>
	<g id="g87539" transform="translate(-138.55 38.761)">
		
			<path id="path1320" inkscape:connector-curvature="0" fill="none" stroke="#000000" stroke-width="8" stroke-linecap="round" stroke-linejoin="round" d="
			M648.204,495.496c-107.511,119.812-96.024,206.85-96.024,206.85"/>
		
			<path id="path84630" inkscape:connector-curvature="0" fill="none" stroke="#4D4D4D" stroke-width="2" stroke-linecap="round" stroke-linejoin="round" d="
			M646.532,494.011C539.017,613.815,550.5,700.845,550.5,700.845"/>
	</g>
	
		<path id="path3712" sodipodi:start="0" sodipodi:end="6.2664169" sodipodi:cx="376.16434" sodipodi:cy="387.66537" sodipodi:open="true" sodipodi:type="arc" sodipodi:ry="155.68634" sodipodi:rx="155.68634" fill="none" d="
		M501.167,921.713c-134.255-5.861-238.345-119.449-232.483-253.71c5.862-134.255,119.449-238.345,253.71-232.483
		c134.256,5.862,238.346,119.449,232.483,253.711c-5.792,132.665-116.882,236.188-249.633,232.613"/>
	
		<path id="path5575" sodipodi:start="0" sodipodi:end="6.2664169" sodipodi:cx="387.58444" sodipodi:cy="410.27252" sodipodi:open="true" sodipodi:type="arc" sodipodi:ry="155.45329" sodipodi:rx="155.45329" fill="none" d="
		M365.302,515.633c88.285-80.897,225.432-74.906,306.327,13.375c80.897,88.284,74.906,225.432-13.375,306.326
		c-88.284,80.898-225.432,74.907-306.327-13.374c-79.94-87.24-75.174-222.463,10.72-303.856"/>
	
		<path id="path83653" sodipodi:start="0" sodipodi:end="6.2752337" sodipodi:cx="159" sodipodi:cy="166.36218" sodipodi:open="true" sodipodi:type="arc" sodipodi:ry="14.289757" sodipodi:rx="27.892845" fill="#F8F8F8" fill-opacity="0.75" d="
		M570.245,479.736c-0.861,11.128-12.688,23.635-26.414,27.935c-13.728,4.3-24.157-1.236-23.296-12.365
		c0.861-11.128,12.688-23.635,26.414-27.935c13.649-4.275,24.055,1.173,23.307,12.204"/>
	<g id="g67749" transform="matrix(.031238 0 0 .031238 401.45 322.42)" inkscape:label="Layer 1">
		<g id="g67751">
			
				<radialGradient id="path67753_1_" cx="-1761.4781" cy="15096.4531" r="227.5314" gradientTransform="matrix(1.1438 0 0 -1.1438 4069.5203 33066.1875)" gradientUnits="userSpaceOnUse">
				<stop  offset="0" style="stop-color:#24424C"/>
				<stop  offset="1" style="stop-color:#79DFEE"/>
			</radialGradient>
			
				<path id="path67753" inkscape:label="#path1310" sodipodi:cx="147.89955" sodipodi:cy="259.77228" sodipodi:type="arc" sodipodi:ry="227.53777" sodipodi:rx="227.53777" fill="url(#path67753_1_)" d="
				M4534.08,6426.937c0,235.653-191.042,426.664-426.695,426.664c-235.653,0-426.664-191.011-426.664-426.664
				c0-235.653,191.011-426.664,426.664-426.664C4343.038,6000.273,4534.08,6191.284,4534.08,6426.937z"/>
			
				<radialGradient id="path67755_1_" cx="-13961.0527" cy="10470.3486" r="206.6954" gradientTransform="matrix(1.5228 0 0 -1.5228 23314.8887 31744.8066)" gradientUnits="userSpaceOnUse">
				<stop  offset="0" style="stop-color:#000000;stop-opacity:0.251"/>
				<stop  offset="1" style="stop-color:#000000;stop-opacity:0"/>
			</radialGradient>
			
				<path id="path67755" inkscape:rounded="0" inkscape:randomized="0" inkscape:flatsided="false" sodipodi:sides="24" sodipodi:arg2="0.094218906" sodipodi:arg1="-0.036680788" sodipodi:r1="206.81926" sodipodi:r2="73.729027" sodipodi:cx="-235.12236" sodipodi:cy="409.56799" sodipodi:type="star" fill="url(#path67755_1_)" d="
				M4420.505,6457.949l-203.891-5.471l185.196,85.47l-195.544-58.085l156.779,130.488l-173.848-106.697l117.67,166.626
				l-140.304-148.057l70.527,191.386l-97.225-179.319l18.601,203.141l-47.487-198.389l-34.607,201.015l5.471-203.891l-85.47,185.196
				l58.085-195.544l-130.519,156.779l106.697-173.848l-166.595,117.67l148.057-140.304l-191.417,70.527L4000,6459.449
				l-203.109,18.57l198.357-47.487l-201.015-34.607l203.922,5.471l-185.227-85.471l195.544,58.085l-156.779-130.487l173.848,106.697
				l-117.639-166.626l140.304,148.057l-70.527-191.417l97.194,179.319l-18.57-203.109l47.456,198.357l34.638-200.983l-5.471,203.891
				l85.439-185.196l-58.054,195.544l130.488-156.779l-106.697,173.816l166.626-117.639l-148.057,140.304l191.386-70.527
				l-179.319,97.193l203.141-18.569l-198.389,47.456L4420.505,6457.949z"/>
			
				<radialGradient id="path67757_1_" cx="-13934.1045" cy="10545.3311" r="206.6646" gradientTransform="matrix(1.7795 0 0 -1.7795 26850.6406 34563.9375)" gradientUnits="userSpaceOnUse">
				<stop  offset="0" style="stop-color:#FFFFFF;stop-opacity:0.3726"/>
				<stop  offset="1" style="stop-color:#FFFFFF;stop-opacity:0.0941"/>
			</radialGradient>
			
				<path id="path67757" inkscape:rounded="0" inkscape:randomized="0" inkscape:flatsided="false" sodipodi:sides="24" sodipodi:arg2="0.094218906" sodipodi:arg1="-0.036680788" sodipodi:r1="206.81926" sodipodi:r2="73.729027" sodipodi:cx="-235.12236" sodipodi:cy="409.56799" sodipodi:type="star" fill="url(#path67757_1_)" d="
				M4475.182,6413.432l-237.185,25.854l228.15,69.808l-235.81-36.42l202.296,126.455l-218.302-96.193l162.656,174.536
				l-185.978-149.464l111.949,210.706l-140.96-192.48l53.615,232.464l-86.346-222.398l-8.378,238.404l-25.854-237.154
				l-69.808,228.119l36.42-235.778l-126.455,202.296l96.193-218.302l-174.536,162.656l149.432-185.978l-210.675,111.949
				l192.48-140.96l-232.464,53.614l222.398-86.346l-238.435-8.41l237.185-25.822l-228.119-69.808l235.778,36.42l-202.296-126.486
				l218.302,96.225l-162.656-174.536l185.978,149.432l-111.949-210.674l140.96,192.48l-53.614-232.496l86.346,222.429l8.409-238.435
				l25.822,237.185l69.808-228.15l-36.42,235.778l126.486-202.296l-96.225,218.334l174.536-162.656l-149.433,185.978
				l210.675-111.949l-192.48,140.96l232.496-53.614l-222.429,86.346L4475.182,6413.432z"/>
			
				<path id="path67759" sodipodi:cx="147.89955" sodipodi:cy="259.77228" sodipodi:type="arc" sodipodi:ry="227.53777" sodipodi:rx="227.53777" d="
				M4274.511,6426.937c0,92.285-74.81,167.126-167.126,167.126c-92.286,0-167.096-74.841-167.096-167.126
				c0-92.286,74.81-167.127,167.096-167.127C4199.701,6259.81,4274.511,6334.651,4274.511,6426.937z"/>
			
				<radialGradient id="path67761_1_" cx="-13250.1709" cy="12960.1953" r="103.3382" fx="-13248.0811" fy="12922.666" gradientTransform="matrix(1.8062 -1.8062 -1.0395 -1.0395 33778.6328 -271.9164)" gradientUnits="userSpaceOnUse">
				<stop  offset="0" style="stop-color:#FFFFFF"/>
				<stop  offset="1" style="stop-color:#FFFFFF;stop-opacity:0"/>
			</radialGradient>
			
				<path id="path67761" sodipodi:cx="-209.52437" sodipodi:cy="340.35858" sodipodi:type="arc" sodipodi:ry="63.520962" sodipodi:rx="103.34007" fill="url(#path67761_1_)" d="
				M4104.821,6076.771c59.367,59.367,29.199,185.79-67.401,282.358c-96.568,96.6-222.992,126.768-282.39,67.401
				c-59.366-59.366-29.199-185.79,67.401-282.39C3919,6047.572,4045.455,6017.405,4104.821,6076.771z"/>
			
				<radialGradient id="path67763_1_" cx="-13350.8652" cy="12438.1201" r="103.3535" fx="-13345.8242" fy="12468.0645" gradientTransform="matrix(1.072 -0.6189 -0.4291 -0.7432 27174.123 25505.2754)" gradientUnits="userSpaceOnUse">
				<stop  offset="0" style="stop-color:#FFFFFF"/>
				<stop  offset="1" style="stop-color:#FFFFFF;stop-opacity:0"/>
			</radialGradient>
			
				<path id="path67763" sodipodi:cx="-209.52437" sodipodi:cy="340.35858" sodipodi:type="arc" sodipodi:ry="63.520962" sodipodi:rx="103.34007" fill="url(#path67763_1_)" d="
				M4419.254,6657.963c13.442,50.207-41.86,108.636-123.516,130.519c-81.657,21.883-158.78-1.063-172.223-51.27
				c-13.442-50.207,41.86-108.636,123.516-130.519C4328.688,6584.81,4405.812,6607.756,4419.254,6657.963z"/>
		</g>
	</g>
</g>
</svg>
