<?xml version="1.0" encoding="utf-8"?>
<!-- Generator: Adobe Illustrator 15.0.0, SVG Export Plug-In . SVG Version: 6.00 Build 0)  -->
<!DOCTYPE svg PUBLIC "-//W3C//DTD SVG 1.1//EN" "http://www.w3.org/Graphics/SVG/1.1/DTD/svg11.dtd">
<svg version="1.1" id="Layer_1" xmlns="http://www.w3.org/2000/svg" xmlns:xlink="http://www.w3.org/1999/xlink" x="0px" y="0px"
	 width="298.183px" height="256.76px" viewBox="0 0 298.183 256.76" enable-background="new 0 0 298.183 256.76"
	 xml:space="preserve">
<g>
	<g>
		<linearGradient id="SVGID_1_" gradientUnits="userSpaceOnUse" x1="259.8135" y1="195.6758" x2="259.8135" y2="263.8951">
			<stop  offset="0" style="stop-color:#B19D84"/>
			<stop  offset="1" style="stop-color:#DACDBE"/>
		</linearGradient>
		<path fill="url(#SVGID_1_)" d="M281.905,200.104c0,0,6.657,15.69,5.706,20.445c-0.951,4.756-6.182,20.446-6.182,20.446
			l-24.249-4.279c0,0,7.133-13.314,7.133-19.971c0-5.705-13.789-19.97-15.216-26.627c-20.922-26.627-20.772-36.759-9.985-47.549
			c12.079-12.08,36.834,3.599,39.465,18.068C281.43,176.33,281.905,200.104,281.905,200.104z"/>
		<g>
			<linearGradient id="SVGID_2_" gradientUnits="userSpaceOnUse" x1="267.8926" y1="241.3682" x2="268.2975" y2="219.5138">
				<stop  offset="0" style="stop-color:#B19D84"/>
				<stop  offset="1" style="stop-color:#DACDBE"/>
			</linearGradient>
			<path fill="url(#SVGID_2_)" d="M281.155,239.73c0,4.256-5.896,4.475-13.165,4.475c-7.271,0-13.2-1.077-13.306-2.452
				c-0.327-4.241,3.351-13.772,13.306-13.575C277.484,228.368,281.155,235.478,281.155,239.73z"/>
			<path fill="#F5F5F5" d="M257.374,239.108c-2.123-0.49-2.644,2.433-2.433,2.962c0.212,0.529,0.741,0.635,2.222,0.952
				c0.604,0.129,2.221,0.423,3.49,0.423C260.653,242.493,260.124,239.743,257.374,239.108z"/>
			<path fill="#F5F5F5" d="M261.394,243.486c0,0,2.433,0.17,3.914,0.17c1.48,0,4.548,0,4.548,0s-1.27-3.913-4.442-3.913
				S261.394,243.486,261.394,243.486z"/>
			<path fill="#F5F5F5" d="M270.913,243.656c0,0,0.951-2.75,3.279-3.278c3.92-0.891,5.076,2.327,5.076,2.327
				s-1.375,0.634-3.49,0.846S270.913,243.656,270.913,243.656z"/>
		</g>
	</g>
	<g>
		<linearGradient id="SVGID_3_" gradientUnits="userSpaceOnUse" x1="158.3516" y1="156.3135" x2="116.6293" y2="269.7123">
			<stop  offset="0" style="stop-color:#B19D84"/>
			<stop  offset="1" style="stop-color:#DACDBE"/>
		</linearGradient>
		<path fill="url(#SVGID_3_)" d="M158.874,217.756c-1.065,4.959-11.947,29.778-11.947,29.778l-21.645-4.37
			c0,0,4.167-30.659,3.777-34.159c-0.388-3.501-5.056-22.173-0.388-35.399s28.743-11.519,32.676-1.167
			C168.739,191.889,160.039,212.309,158.874,217.756z"/>
		<g>
			<linearGradient id="SVGID_4_" gradientUnits="userSpaceOnUse" x1="134.6382" y1="250.4014" x2="135.0431" y2="228.5484">
				<stop  offset="0" style="stop-color:#B19D84"/>
				<stop  offset="1" style="stop-color:#DACDBE"/>
			</linearGradient>
			<path fill="url(#SVGID_4_)" d="M147.9,248.767c0,4.255-5.895,4.473-13.165,4.473c-7.27,0-13.2-1.076-13.306-2.451
				c-0.327-4.241,3.352-13.772,13.306-13.575C144.23,237.402,147.9,244.513,147.9,248.767z"/>
			<path fill="#F5F5F5" d="M124.12,248.144c-2.123-0.49-2.644,2.433-2.433,2.962c0.211,0.528,0.74,0.634,2.221,0.951
				c0.603,0.129,2.221,0.424,3.49,0.424C127.398,251.527,126.87,248.778,124.12,248.144z"/>
			<path fill="#F5F5F5" d="M128.139,252.521c0,0,2.433,0.171,3.913,0.171c1.481,0,4.548,0,4.548,0s-1.27-3.913-4.442-3.913
				S128.139,252.521,128.139,252.521z"/>
			<path fill="#F5F5F5" d="M137.658,252.691c0,0,0.952-2.75,3.279-3.278c3.921-0.891,5.077,2.326,5.077,2.326
				s-1.375,0.635-3.49,0.846C140.408,252.797,137.658,252.691,137.658,252.691z"/>
		</g>
	</g>
	<path fill="#DACDBE" d="M267.94,104.065c0.452,7.22,3.125,10.183,5.952,13.318c2.887,3.198,8.342,8.763,8.481,16.12
		c0.248,13.021-14.166,20.407-14.343,20.483l2.532,6.394c0.81-0.356,17.505-10.115,16.337-26.065
		c-0.751-10.282-7.88-15.605-10.841-18.885c-2.797-3.102-4.82-5.342-5.208-11.545c-0.279-4.477,4.991-11.424,7.103-13.136
		l-1.695-0.745C275.9,90.292,267.51,97.168,267.94,104.065z"/>
	<path fill="#BDA596" d="M274.843,92.304c0,0,0.389-6.614,7.78-9.337c7.391-2.724,15.56-7.003,15.56-7.003
		s-2.334,8.948-9.337,12.838C281.845,92.692,274.843,92.304,274.843,92.304z"/>
	<linearGradient id="SVGID_5_" gradientUnits="userSpaceOnUse" x1="196.4248" y1="212.2607" x2="202.9909" y2="167.028">
		<stop  offset="0" style="stop-color:#B19D84"/>
		<stop  offset="1" style="stop-color:#DACDBE"/>
	</linearGradient>
	<path fill="url(#SVGID_5_)" d="M279.528,174.903c-8.587,28.682-55.243,33.047-90.818,28.529
		c-38.295-4.861-61.69-18.17-61.69-48.111c0-29.938,7.781-59.517,85.193-52.516C251.025,106.317,297.808,113.854,279.528,174.903z"
		/>
	<g>
		<linearGradient id="SVGID_6_" gradientUnits="userSpaceOnUse" x1="26.8193" y1="75.04" x2="87.6713" y2="80.1584">
			<stop  offset="0" style="stop-color:#DACDBE"/>
			<stop  offset="1" style="stop-color:#BEAF9C"/>
		</linearGradient>
		<path fill="url(#SVGID_6_)" d="M125.528,21.303c2.943,47.091-21.397,151.205-49.926,136.94
			c-9.985-4.993-21.912-6.659-29.242-22.11C21.5,116.421,0,94.766,0,71.229C21.397,14.884,42.693,10.375,64.904,2.046
			C76.315-2.233,124.102-1.52,125.528,21.303z"/>
		
			<linearGradient id="SVGID_7_" gradientUnits="userSpaceOnUse" x1="-7967.6924" y1="75.04" x2="-7906.8403" y2="80.1584" gradientTransform="matrix(-1 0 0 1 -7718.4941 0)">
			<stop  offset="0" style="stop-color:#DACDBE"/>
			<stop  offset="1" style="stop-color:#BEAF9C"/>
		</linearGradient>
		<path fill="url(#SVGID_7_)" d="M150.491,21.303c-2.943,47.091,21.397,151.205,49.926,136.94
			c9.985-4.993,21.912-6.659,29.242-22.11c24.86-19.711,46.36-41.367,46.36-64.904c-21.397-56.345-42.693-60.854-64.903-69.183
			C199.704-2.233,151.918-1.52,150.491,21.303z"/>
		<path fill="#FFFFFF" d="M96.316,106.836c-3.622,0.256-6.359,3.409-6.129,7.033c0.132,2.076,0.346,18.627-20.731,23.445
			c-15.305,3.492-9.136,11.162,2.963,10.597c27.575-1.284,31.814-23.751,30.948-35.014
			C103.086,109.277,99.94,106.582,96.316,106.836z"/>
		<path fill="#FFFFFF" d="M169.021,106.836c3.625,0.256,6.361,3.409,6.133,7.033c-0.133,2.076-0.345,18.627,20.73,23.445
			c15.305,3.492,9.134,11.162-2.965,10.597c-27.573-1.284-31.814-23.751-30.947-35.014
			C162.252,109.277,165.4,106.582,169.021,106.836z"/>
		<path fill="#978371" d="M163.765,126.602c0,0,11.165-6.092,14.211-6.092c1.105-4.087,5.217-11.653,2.255-16.807
			c8.532-9.939,10.298-20.5,10.298-34.63c0-31.392-4.432-59.192-59.242-59.192c-52.778,0-59.175,26.087-59.175,57.479
			c0,13.66,2.836,25.671,10.869,35.465c-2.86,8.01,1.842,13.334,3.65,15.656c4.059-1.016,9.133,0,13.194,4.061
			c4.284,10.367,1.473,19.02-2.031,36.537c-7.936,39.684-57.407,37.574-69.993,21.214c-6.919-12.586-23.888-4.882-10.19,5.175
			c-12.939,1.438-13.723,12.445-1.135,11.186c8.609,8.087,22.358,20.97,34.63,22.311c36.107,3.941,57.511-9.049,79.166-28.42
			C146.313,176.188,158.69,152.987,163.765,126.602z"/>
		<path fill="#E4DACF" d="M163.765,126.602c0,0,5.595-8.9,14.211-6.092c1.105-4.087,1.213-11.653-1.749-16.807
			c8.532-9.939,14.302-23.932,14.302-38.063c0-31.389-4.432-55.76-59.242-55.76c-52.778,0-59.748,24.371-59.748,55.76
			c0,13.661,6.269,27.266,14.301,37.065c-1.717,3.554-1.017,13.452,0.791,15.774c2.071-1.925,10.652-4.784,13.194,4.061
			c4.284,10.367,1.473,19.02-2.031,36.537c-7.936,39.684-57.407,37.574-69.993,21.214c-6.919-12.586-23.888-4.882-10.19,5.175
			c-12.939,1.438-13.723,12.445-1.135,11.186c8.609,8.087,22.358,20.97,34.63,22.311c36.107,3.941,57.511-9.049,79.166-28.42
			C146.313,176.188,158.69,152.987,163.765,126.602z"/>
		<path fill="#DACDBE" d="M159.064,125.137c0,0,7.403-10.246,16.019-7.435c1.105-4.086,1.814-9.722-1.146-14.878
			c8.535-9.938,16.592-23.053,16.592-37.184c0-31.389-4.432-55.76-59.242-55.76c-52.778,0-59.748,24.371-59.748,55.76
			c0,13.661,6.269,27.266,14.301,37.065c-1.717,3.554-1.017,13.452,0.791,15.774c2.071-1.925,10.652-4.784,13.194,4.061
			c4.284,10.367,1.473,19.02-2.031,36.537c-7.936,39.684-57.407,37.574-69.993,21.214c-6.919-12.586-23.888-4.882-10.19,5.175
			c-12.939,1.438-9.573,10.152,3.015,8.892c8.609,8.087,20.908,15.821,33.178,17.162c36.109,3.943,50.713-8.409,72.655-27.461
			C148.194,165.184,155.06,137.148,159.064,125.137z"/>
		<radialGradient id="SVGID_8_" cx="131.0317" cy="53.3428" r="40.9165" gradientUnits="userSpaceOnUse">
			<stop  offset="0" style="stop-color:#F1F1ED"/>
			<stop  offset="1" style="stop-color:#DACDBE"/>
		</radialGradient>
		<path fill="url(#SVGID_8_)" d="M191.099,54.773c0,48.051-28.471,41.762-60.066,41.762c-31.594,0-60.067-2.863-60.067-41.762
			c0-34.896,28.728-44.893,60.321-44.893C162.881,9.88,191.099,19.877,191.099,54.773z"/>
		<g>
			<circle fill="#FFFFFF" cx="88.189" cy="84.641" r="5.075"/>
			<circle fill="#7F4F44" cx="88.189" cy="84.641" r="3.299"/>
			<circle fill="#231F20" cx="88.189" cy="84.641" r="1.69"/>
			<path fill="#FFFFFF" d="M87.887,83.718c0,0.544-0.446,0.986-0.993,0.986c-0.545,0-0.989-0.442-0.989-0.986
				c0-0.548,0.443-0.992,0.989-0.992C87.441,82.726,87.887,83.17,87.887,83.718z"/>
		</g>
		<g>
			<path fill="#FFFFFF" d="M181.017,84.641c0,2.8-2.275,5.075-5.076,5.075c-2.802,0-5.077-2.274-5.077-5.075
				c0-2.803,2.275-5.075,5.077-5.075C178.741,79.566,181.017,81.838,181.017,84.641z"/>
			<circle fill="#7F4F44" cx="175.939" cy="84.641" r="3.3"/>
			<circle fill="#231F20" cx="175.942" cy="84.641" r="1.689"/>
			<path fill="#FFFFFF" d="M175.639,83.718c0,0.544-0.446,0.986-0.993,0.986c-0.545,0-0.986-0.442-0.986-0.986
				c0-0.548,0.441-0.992,0.986-0.992C175.192,82.726,175.639,83.17,175.639,83.718z"/>
		</g>
		<path fill="#ECE5DD" d="M107.298,114.048c0,0,18.689-20.955,47.009,0H107.298z"/>
		<path fill="#ECE5DD" d="M106.916,130.846c0,0,15.139-16.973,38.077,0H106.916z"/>
		<path fill="#ECE5DD" d="M103.478,146.168c0,0,17.918-14.005,37.467,6.779L103.478,146.168z"/>
		<path fill="#ECE5DD" d="M99.747,160.195c0,0,17.599-10.454,32.673,10.337L99.747,160.195z"/>
		<path fill="#ECE5DD" d="M93.221,174.078c0,0,15.276-6.448,25.079,11.901L93.221,174.078z"/>
		<path fill="#ECE5DD" d="M81.791,183.921c0,0,14.825-1.705,18.647,16.624L81.791,183.921z"/>
		<path fill="#ECE5DD" d="M72.146,188.912c0,0,11.431,3.93,7.825,18.659L72.146,188.912z"/>
		<path fill="#ECE5DD" d="M60.97,191.526c0,0,9.659,5.654,3.699,18.367L60.97,191.526z"/>
		<path fill="#ECE5DD" d="M49.822,191.43c0,0,8.41,6.108,1.736,17.314L49.822,191.43z"/>
		<path fill="#ECE5DD" d="M42.29,189.611c0,0,5.932,7.986-3.366,16.313L42.29,189.611z"/>
		<path fill="none" stroke="#231F20" stroke-width="0.8582" stroke-linecap="round" d="M77.217,68.599
			c0-4.47,3.624-8.089,8.092-8.089s8.09,3.619,8.09,8.089"/>
		<path fill="none" stroke="#231F20" stroke-width="0.8582" stroke-linecap="round" d="M169.197,68.599
			c0-4.47,3.622-8.089,8.092-8.089c4.468,0,8.088,3.619,8.088,8.089"/>
	</g>
	<g>
		<linearGradient id="SVGID_9_" gradientUnits="userSpaceOnUse" x1="169.7734" y1="246.8945" x2="182.5369" y2="184.6244">
			<stop  offset="0" style="stop-color:#B19D84"/>
			<stop  offset="1" style="stop-color:#DACDBE"/>
		</linearGradient>
		<path fill="url(#SVGID_9_)" d="M194.179,222.036c-1.065,4.958-11.947,29.777-11.947,29.777l-21.644-4.37
			c0,0,4.166-30.659,3.775-34.159c-0.388-3.501-5.055-22.173-0.388-35.399s28.743-11.518,32.676-1.167
			C204.044,196.168,195.344,216.588,194.179,222.036z"/>
		<g>
			<linearGradient id="SVGID_10_" gradientUnits="userSpaceOnUse" x1="169.9434" y1="254.6816" x2="170.3483" y2="232.8271">
				<stop  offset="0" style="stop-color:#B19D84"/>
				<stop  offset="1" style="stop-color:#DACDBE"/>
			</linearGradient>
			<path fill="url(#SVGID_10_)" d="M183.205,253.046c0,4.255-5.895,4.474-13.165,4.474c-7.27,0-13.2-1.078-13.306-2.453
				c-0.327-4.24,3.352-13.771,13.306-13.574C179.535,241.682,183.205,248.792,183.205,253.046z"/>
			<path fill="#F5F5F5" d="M159.425,252.423c-2.124-0.49-2.645,2.433-2.433,2.962c0.211,0.528,0.74,0.635,2.221,0.951
				c0.604,0.13,2.222,0.424,3.49,0.424C162.703,255.808,162.175,253.058,159.425,252.423z"/>
			<path fill="#F5F5F5" d="M163.443,256.8c0,0,2.433,0.171,3.914,0.171c1.48,0,4.548,0,4.548,0s-1.27-3.913-4.442-3.913
				S163.443,256.8,163.443,256.8z"/>
			<path fill="#F5F5F5" d="M172.963,256.971c0,0,0.952-2.75,3.279-3.279c3.921-0.891,5.076,2.328,5.076,2.328
				s-1.375,0.634-3.49,0.846C175.713,257.076,172.963,256.971,172.963,256.971z"/>
		</g>
	</g>
	<linearGradient id="SVGID_11_" gradientUnits="userSpaceOnUse" x1="254.7891" y1="258.8018" x2="252.9029" y2="196.5658">
		<stop  offset="0" style="stop-color:#B19D84"/>
		<stop  offset="1" style="stop-color:#DACDBE"/>
	</linearGradient>
	<path fill="url(#SVGID_11_)" d="M260.509,209.613c-0.475,22.349-11.887,37.088-11.887,37.088l-23.299-0.475
		c0,0,5.043-14.464,6.656-20.921c1.901-7.608,3.805-10.938,4.755-17.118c-19.97-27.578-7.459-52.926,3.329-63.715
		c12.079-12.08,40.629,3.363,40.892,18.068C281.218,177.244,272.396,197.251,260.509,209.613z"/>
	<g>
		<linearGradient id="SVGID_12_" gradientUnits="userSpaceOnUse" x1="236.5107" y1="248.501" x2="236.9156" y2="226.6458">
			<stop  offset="0" style="stop-color:#B19D84"/>
			<stop  offset="1" style="stop-color:#DACDBE"/>
		</linearGradient>
		<path fill="url(#SVGID_12_)" d="M249.772,246.864c0,4.255-5.895,4.474-13.164,4.474c-7.271,0-13.201-1.077-13.307-2.452
			c-0.326-4.241,3.352-13.772,13.307-13.575C246.103,235.501,249.772,242.61,249.772,246.864z"/>
		<path fill="#F5F5F5" d="M225.992,246.241c-2.123-0.49-2.645,2.433-2.433,2.962c0.212,0.528,0.74,0.635,2.221,0.952
			c0.604,0.129,2.222,0.423,3.491,0.423C229.271,249.626,228.742,246.876,225.992,246.241z"/>
		<path fill="#F5F5F5" d="M230.012,250.618c0,0,2.433,0.171,3.914,0.171c1.479,0,4.547,0,4.547,0s-1.269-3.913-4.442-3.913
			C230.858,246.876,230.012,250.618,230.012,250.618z"/>
		<path fill="#F5F5F5" d="M239.53,250.789c0,0,0.953-2.75,3.279-3.278c3.921-0.891,5.077,2.327,5.077,2.327s-1.376,0.634-3.49,0.846
			C242.28,250.896,239.53,250.789,239.53,250.789z"/>
	</g>
</g>
</svg>
