<?xml version="1.0" encoding="utf-8"?>
<!-- Generator: Adobe Illustrator 15.0.0, SVG Export Plug-In . SVG Version: 6.00 Build 0)  -->
<!DOCTYPE svg PUBLIC "-//W3C//DTD SVG 1.1//EN" "http://www.w3.org/Graphics/SVG/1.1/DTD/svg11.dtd">
<svg version="1.1" id="Layer_1" xmlns="http://www.w3.org/2000/svg" xmlns:xlink="http://www.w3.org/1999/xlink" x="0px" y="0px"
	 width="50.555px" height="66.374px" viewBox="0 0 50.555 66.374" enable-background="new 0 0 50.555 66.374" xml:space="preserve">
<g>
	<path fill="#F37321" d="M18.557,59.099c2.774-0.528,3.979-3.73,3.979-6.332c0.001-3.274,0.398-6.408,1.574-9.539
		c1.092-2.91,2.314-5.68,3.064-8.676c1.252-4.994,0.986-12.979-2.342-17.041c0.081,0.572-0.021,1.635-0.852,1.515
		c-0.813-3.686-4.719-4.266-6.787-6.821c0.02,0.6,0.226,1.152,0.369,1.691c-1.918-1.881-6.291-2.137-8.779-1.258
		c-1.523,0.537-3.021,1.32-4.591,1.848c-0.682,0.23-1.552,0.543-2.298,0.354c-0.598-0.15-1.056-0.74-1.638-0.876
		c-0.746-0.171,0.335,6.251,0.614,6.895c0.496,1.142,2.633,3.399,0.15,3.563c0.173,1.132,6.271,5.356,3.828,6.384
		c0.644,1.192,1.604,1.761,1.767,3.162c0.563,4.957-2.486,9.467-2.179,14.373c0.263,4.209,3.09,7.117,6.77,8.932
		c2.098,1.035,4.681,2.168,7.08,1.869C18.379,59.128,18.468,59.116,18.557,59.099z"/>
	<path fill="#EE6C23" d="M22.505,53.462c-0.008,0.106-0.017,0.213-0.029,0.318c-0.004,0.037-0.012,0.074-0.016,0.109
		c-0.307,2.361-1.575,4.677-3.913,5.178c-0.119,0.025-0.243,0.053-0.365,0.078c-2.368,0.252-4.906-0.855-6.974-1.875
		c-0.029-0.016-0.055-0.029-0.084-0.042c-0.013-0.019-0.027-0.037-0.041-0.056c-1.503-1.98-2.455-4.664-2.553-7.166
		c-0.096-2.367,0.152-4.766,0.479-7.02c0.184-1.244,0.267-2.539,0.286-3.818c0.017-1.258-0.957-3.629-0.638-4.69
		c0.041-0.139-0.048-0.246-0.08-0.368c0.682,0.188,1.036,1.039,1.583,1.506c0.119-2.053-0.678-3.686-1.356-5.458
		c0.781,0.3,1.809,1.184,2.412,1.853c0.221-2.578-1.646-4.574-3.313-6.183c1.42-0.194,2.571,1.118,3.895,1.321
		c0.319-2.785-2.035-5.078-4.123-6.676c1.467,0.11,3.23,0.376,4.532,1.236c-0.263-0.771-1.006-1.314-1.374-2.008
		c0.891,0.078,1.654,0.882,2.425,1.338c0.098-1.938-2.128-3.547-3.571-4.262c1.439-0.016,3.157,1.582,3.942,2.668
		c0.589-1.111-0.406-2.115-0.984-2.948c-0.178-0.26-1.608-2.51-1.42-2.535c1.263-0.163,3.525,1.436,4.573,2.124
		c1.145,0.755,1.746,1.9,2.78,2.689c0.224-1.029-0.46-2.516-0.854-3.417c0.102,0.231,1.834,0.757,2.172,0.941
		c0.87,0.478,1.712,1.05,2.443,1.724c0.807,0.744,1.07,1.646,1.388,2.658c0.188,0.602,1.358-1.136,1.413-1.261
		c0.147-0.327,0.233-0.7,0.295-1.082c0.779,1.201,1.345,2.649,1.738,4.208c0.171,1.185,0.462,2.306,0.58,3.525
		c0.019,0.198,0.037,0.396,0.05,0.596c0.006,0.096,0.012,0.193,0.02,0.289c0.149,2.719-0.105,5.436-0.647,7.594
		c-0.75,2.996-1.973,5.766-3.064,8.676c-1.176,3.131-1.573,6.265-1.574,9.539c0,0.164-0.006,0.332-0.014,0.501
		C22.516,53.33,22.511,53.396,22.505,53.462z"/>
	<path opacity="0.7" fill="#D25C27" d="M10.296,52.054c-0.675-1.658-0.802-3.742-0.497-5.599c0.139-0.874,0.533-1.731,0.671-2.643
		c0.151-1.007-0.114-1.966-0.13-2.951c0.617,0.455,1.186,1.05,1.606,1.731c0.081-1.238-0.034-2.447-0.472-3.611
		c1.329,1.026,1.273,2.497,1.936,3.871c0.498-1.702,0.984-3.608,0.769-5.383c-0.103-0.838-0.496-3.026-1.327-3.459
		c0.921,0.479,1.83,1.161,2.338,2.109c1.254-1.594-0.546-4.25-1.033-5.717c0.566,0.291,1.184,0.789,1.747,0.995
		c0.162-2.773-1.262-3.773-2.389-6.062c1.102,0.432,1.924,0.907,2.673,1.828c-0.026-0.445-0.238-0.881-0.503-1.216
		c1.079,0.319,1.611,1.089,2.383,1.755c0.184-0.816-0.338-1.736-0.727-2.393c0.938,0.262,2.459,3.186,2.752,1.072
		c0.257-1.817-1.685-5.277-2.712-6.721c0.728,1.024,1.789,1.834,2.591,2.794c0.562,0.67,1.203,1.944,2.181,2.051
		c0.112-2.224-0.669-3.891-1.263-5.929c2.504,2.081,3.013,5.561,3.222,8.586c1.299-1.818,0.739-4.076,0.734-6.163
		c0.804,1.21,1.288,2.53,1.629,3.937c0.286,1.176-0.036,2.975,0.419,3.944c0.52-0.737,0.775-1.493,0.902-2.293
		c0.197,2.841-0.055,5.704-0.621,7.962c-0.75,2.996-1.973,5.766-3.064,8.676c-1.176,3.131-1.573,6.265-1.574,9.539
		c0,2.602-1.205,5.804-3.979,6.332c-0.089,0.018-0.178,0.029-0.269,0.041c-2.207,0.273-4.561-0.661-6.561-1.618
		c-0.094-0.247-0.187-0.493-0.298-0.729c-0.999-2.146-2.101-3.612-2.142-6.075C9.482,51.255,9.91,51.751,10.296,52.054z"/>
	<g>
		<path fill="#F37321" d="M40.855,62.108c-2.212-0.8-4.548-1.201-6.785-2.018c-1.409-0.516-4.53-1.733-1.302-2.365
			c2.286-0.448,5.161,0.784,7.331,1.357c1.213,0.316,2.652,0.516,3.904,0.398c1.104-0.105,1.861-0.445,2.986-0.035
			c0.905,0.332,2.03,0.924,2.436,1.844c0.282,0.65,0.337,1.607-0.635,1.354c0.224,0.06-0.023,0.507-0.118,0.57
			c-0.191,0.129-0.577-0.022-0.766-0.065c-0.037,0.146-0.054,0.313-0.112,0.458c-0.469,0.135-0.961,0.02-1.373-0.188
			c0.197,1.089-2.447-0.286-2.728-0.37C42.736,62.769,41.792,62.45,40.855,62.108z"/>
		<path fill="#EE6C23" d="M32.768,57.726c2.286-0.448,5.161,0.784,7.331,1.357c1.213,0.316,2.652,0.516,3.904,0.398
			c0.849-0.082,1.494-0.297,2.255-0.209c-0.261,0.02-0.509,0.049-0.707,0.127c-0.857,0.344-1.642,0.876-2.229,1.592
			c-0.443,0.544-0.6,1.105-0.604,1.753c-0.624-0.2-1.246-0.411-1.862-0.636c-1.873-0.679-3.834-1.082-5.75-1.683
			c-0.451-0.286-0.915-0.56-1.374-0.755c-0.567-0.24-1.156-0.372-1.694-0.688c-0.387-0.227-0.589-0.435-0.65-0.62
			C31.475,58.122,31.871,57.901,32.768,57.726z"/>
		<path fill="#D25C27" d="M40.099,59.083c1.132,0.297,2.46,0.479,3.649,0.408c-0.468,0.219-0.895,0.488-1.315,0.785
			c-0.645,0.455-1.175,1.338-0.865,2.076c-0.237-0.082-0.476-0.156-0.713-0.244c-1.873-0.679-3.834-1.082-5.75-1.683
			c-0.451-0.286-0.915-0.56-1.374-0.755c-0.479-0.201-0.972-0.334-1.44-0.561c-0.398-0.59-0.224-1.09,0.37-1.361
			c0.038-0.008,0.068-0.016,0.107-0.023C35.054,57.277,37.929,58.51,40.099,59.083z"/>
		<path fill="#BB4F26" d="M45.836,59.979c0.721-0.119,1.534,0.38,2.074,0.809c0.557,0.444,0.921,1.158,1.013,1.846
			c-0.172-0.213-0.267-0.467-0.421-0.683c-0.272-0.376-0.695-0.849-1.047-1.146C47.224,60.612,46.138,59.931,45.836,59.979z"/>
		<path fill="#BB4F26" d="M44.595,60.714c0.704-0.189,1.563,0.23,2.143,0.605c0.598,0.39,1.029,1.063,1.186,1.739
			c-0.191-0.194-0.312-0.44-0.484-0.638c-0.307-0.351-0.775-0.777-1.154-1.039C46.038,61.21,44.889,60.636,44.595,60.714z"/>
		<path fill="#BB4F26" d="M43.308,61.521c0.587-0.224,1.359,0.067,1.887,0.342c0.544,0.285,0.971,0.83,1.163,1.4
			c-0.179-0.15-0.301-0.353-0.469-0.508c-0.294-0.278-0.729-0.607-1.076-0.799C44.583,61.827,43.552,61.429,43.308,61.521z"/>
	</g>
	<path fill="#BB4F26" d="M40.634,43.793c0.571,1.247,3.221,2.409,4.512,1.946c1.991-0.71,0.643-3.418,0.063-4.654
		c-0.418-0.9-0.572-2.426-1.771-2.514C41.425,38.421,39.907,42.21,40.634,43.793z"/>
	<path fill="#F37321" d="M42.678,31.933c-0.567-0.637-1.274-1.182-2.138-1.627c-2.337-1.197-5.332-2.998-8.223-2.143
		c-2.087,0.617-1.994,2.848-3.238,4.201c-0.809,0.877-1.787,1.113-2.925,1.648c-2.417,1.137-5.144,2.338-7.009,4.029
		c-3.348,3.04-4.502,7.341-4.912,11.367c-0.422,4.109-0.184,8.445,3.337,11.287c3.732,3.009,9.707,2.067,14.193,2.217
		c3.745,0.125,7.765-0.656,9.686-3.652c2.565-4.002-0.521-8.54,1.03-12.731c1.354-3.66,2.729-7.874,1.716-11.717
		C43.914,33.737,43.417,32.761,42.678,31.933z"/>
	<path opacity="0.53" fill="#EE6C23" d="M14.234,49.409c0.41-4.026,1.564-8.327,4.912-11.367c1.865-1.691,4.592-2.893,7.009-4.029
		c1.138-0.535,2.116-0.771,2.925-1.648c0.919-1.001,1.11-2.477,1.989-3.43c0.56,5.227-7.251,6.854-9.983,10.197
		c-2.231,2.729-3.732,6.311-4.038,9.821c-0.371,4.282,0,9.106,2.623,12.674c0.112,0.153,0.245,0.286,0.367,0.431
		c-0.892-0.326-1.726-0.764-2.467-1.361C14.05,57.854,13.812,53.519,14.234,49.409z"/>
	<path fill="#FEC866" d="M25.96,62.934c-1.178-2.099-1.758-4.708-1.873-6.85c-0.155-2.877-0.15-6.171,0.867-8.899
		c1.161-3.123,3.426-5.262,5.744-7.539c2.731-2.679,4.817-5.277,5.286-9.152c0.079-0.652,0.146-1.433,0.113-2.203
		c1.601,0.475,3.126,1.341,4.442,2.016c0.863,0.445,1.57,0.99,2.138,1.627c0.738,0.828,1.235,1.805,1.518,2.88
		c1.013,3.843-0.255,7.793-1.487,11.495c-0.948,2.853,2.485,8.775,0.127,12.902c-2.13,3.731-7.326,3.828-11.071,3.703
		C29.988,62.854,27.972,62.964,25.96,62.934z"/>
	<path fill="#FCB248" d="M40.946,48.203c-0.473-0.726-1.559-1.491-2.346-1.761c-3.064-1.049-4.759,2.432-5.006,4.842
		c-0.087,0.844,0.157,2.007-0.124,2.807c-1.027-0.221-1.419-1.791-1.698-2.633c-0.324-0.971-1.49-2.348-0.964-3.398
		c0.406-0.813,1.497-1.218,2.243-1.624c1.097-0.597,2.169-1.24,3.308-1.761c2.234-1.026,3.655-1.201,5.666,0.299
		c0.331,0.244,0.626,0.434,0.938,0.565c-0.083,0.257-0.168,0.515-0.254,0.769c-0.183,0.55-0.201,1.215-0.132,1.956
		C42.274,49.16,41.743,49.423,40.946,48.203z"/>
	<path fill="#FCB248" d="M24.955,47.185c1.161-3.123,3.426-5.262,5.744-7.539c2.731-2.679,4.817-5.277,5.286-9.152
		c0.079-0.652,0.146-1.433,0.113-2.203c1.601,0.475,3.126,1.341,4.442,2.016c0.863,0.445,1.57,0.99,2.138,1.627
		c0.738,0.828,1.235,1.805,1.518,2.88c0.673,2.55,0.338,5.15-0.32,7.69c-0.374-1.363-0.973-2.72-2.854-2.358
		c-1.6,0.304-3.831,0.304-6.718-0.226c-1.876-0.343-2.922,3.078-3.129,4.727c-0.354,2.81,1.041,3.856,2.102,6.238
		c1.47,3.293-0.504,10.397,5.39,9.654c2.188-0.277,3.751-1.428,4.809-2.989c-0.133,0.575-0.339,1.134-0.64,1.661
		c-2.13,3.731-7.326,3.828-11.071,3.703c-1.776-0.059-3.792,0.051-5.804,0.021c-1.178-2.099-1.758-4.708-1.873-6.85
		C23.932,53.207,23.937,49.913,24.955,47.185z"/>
	<g>
		<path fill="#974F23" d="M36.857,38.579c0.933,1.083,3.608,1.223,4.602-0.093c0.077-0.104,0.553-0.063,0.476,0.04
			c-1.148,1.521-4.497,1.338-5.561,0.102C36.304,38.548,36.773,38.483,36.857,38.579z"/>
	</g>
	<path opacity="0.58" fill="#FAA74E" d="M37.298,38.048c-0.341-0.713-0.421-1.582-0.841-2.247c-0.184-0.285-0.398-0.568-0.624-0.823
		c-0.093-0.107-0.555-0.773-0.645-0.787c0.477,0.071,0.998,0.219,1.48,0.327c0.536,0.12,1.001,0.134,1.557,0.161
		c0.742,0.035,1.483,0.131,2.243,0.131c0.367,0,0.729,0.008,1.087-0.04c0.32-0.04,0.663-0.207,0.978-0.212
		c-0.671,0.777-1.087,1.511-1.479,2.456c-0.211,0.507-0.314,1.203-0.683,1.622c-0.38,0.436-1.075,0.648-1.636,0.584
		C37.992,39.138,37.585,38.645,37.298,38.048z"/>
	<path fill="#FEC263" d="M38.431,38.843c-0.587-0.158-0.742-0.55-0.152-0.846c0.433-0.217,1.479-0.02,1.57,0.47
		C39.945,38.995,38.797,38.94,38.431,38.843z"/>
	<g>
		<g>
			<path fill="#EE6C23" d="M46.14,3.301c0.527,0.826,1.548,1.559,2.106,1.657c1.149,0.205,2.072-1.563,2.216-2.625
				c0.05-0.391,0.094-1.721-0.39-1.876c-0.556-0.18-0.675,1.097-0.956,1.346c-0.089-0.603-0.939-2.394-1.633-1.432
				c-0.275,0.386-0.135,1.113-0.077,1.563c-0.461-0.209-0.716-0.748-1.235-0.403C45.582,1.92,45.807,2.786,46.14,3.301z"/>
			<path fill="#D25C27" d="M45.847,1.996c0.08,0.417,0.296,0.817,0.607,1.017c0.998,0.643,2.357,0.52,3.152-0.404
				c0.542-0.628,0.744-1.379,0.57-2.078c0.368,0.305,0.331,1.443,0.285,1.803c-0.144,1.063-1.066,2.83-2.216,2.625
				c-0.559-0.099-1.579-0.831-2.106-1.657C45.91,2.942,45.736,2.415,45.847,1.996z"/>
			<path fill="#F37321" d="M47.237,5.019c0.197-0.313,0.428-0.583,0.703-0.757c2.563-1.612,2.516,5.311,2.563,6.276
				c0.112,2.252,0.102,4.453-0.67,6.607c-0.191,0.534-0.643,1.309-1.209,1.514c-0.789,0.281-1.33-0.607-2.024-0.864
				c-1.641-0.606-4.983,0.05-5.175-2.547c-0.099-1.32,0.896-2.558,1.618-3.571c1.007-1.411,2.068-2.773,2.996-4.239
				C46.444,6.798,46.757,5.772,47.237,5.019z"/>
			<path fill="#EE6C23" d="M43.719,17.315c-0.031-0.006-0.063-0.01-0.094-0.018c-0.703-0.145-1.256-0.427-1.749-0.857
				c-0.25-0.295-0.413-0.679-0.451-1.192c-0.09-1.227,0.758-2.376,1.457-3.347c0.4,0.273,4.456,2.508,5.637-0.656
				c0.801-2.148,1.026-5.074,0.146-7.209c1.726,0.029,1.791,5.045,1.831,6.316c0.001,0.072,0.005,0.138,0.007,0.186
				c0.112,2.252,0.102,4.453-0.67,6.607c-0.191,0.534-0.643,1.309-1.209,1.514c-0.789,0.281-1.33-0.607-2.024-0.864
				c-0.159-0.059-0.339-0.104-0.528-0.142C45.304,17.476,44.491,17.462,43.719,17.315z"/>
			<path fill="#D25C27" d="M43.724,17.317c-0.036-0.008-0.074-0.014-0.113-0.021c-0.323-0.07-0.76-0.209-1.181-0.404
				c-0.552-0.311-0.943-0.807-1.005-1.644c-0.08-1.063,0.55-2.071,1.176-2.954c0.664,0.67,1.818,0.785,2.681,1.068
				c1.329,0.44,2.351,1.139,3.579,0.32c1.279-0.854,1.395-5.877,1.398-6.689c0.221,1.51,0.223,3.115,0.244,3.545
				c0.112,2.252,0.102,4.453-0.67,6.607c-0.191,0.534-0.643,1.309-1.209,1.514c-0.375,0.133-0.693,0-0.998-0.201
				c-0.257-0.181-0.505-0.386-0.761-0.534c-0.086-0.052-0.175-0.097-0.266-0.129c-0.156-0.059-0.331-0.103-0.515-0.142
				C45.315,17.476,44.498,17.462,43.724,17.317z"/>
			<path opacity="0.39" fill="#FAA74E" d="M45.708,10.19c0.355-0.497,0.76-0.965,1.106-1.452c0.476-0.667,0.94-1.474,1.061-2.298
				c0.049-0.341-0.207-1.765,0.33-1.826c0.655-0.076,0.616,3.314,0.549,3.787c-0.175,1.201-0.619,2.443-1.48,3.326
				c-0.812,0.827-2.911,1.287-2.202-0.426C45.233,10.903,45.458,10.54,45.708,10.19z"/>
		</g>
		<g>
			<path fill="#EE6C23" d="M32.404,3.301c-0.529,0.826-1.548,1.559-2.107,1.657c-1.15,0.205-2.072-1.563-2.215-2.625
				c-0.053-0.391-0.095-1.721,0.386-1.876c0.558-0.18,0.677,1.097,0.958,1.346c0.09-0.603,0.938-2.394,1.633-1.432
				c0.275,0.386,0.135,1.113,0.077,1.563c0.462-0.209,0.715-0.748,1.236-0.403C32.959,1.92,32.734,2.786,32.404,3.301z"/>
			<path fill="#D25C27" d="M32.694,1.996c-0.078,0.417-0.295,0.817-0.604,1.017c-1,0.643-2.359,0.52-3.153-0.404
				c-0.543-0.628-0.743-1.379-0.569-2.078c-0.37,0.305-0.334,1.443-0.285,1.803c0.143,1.063,1.064,2.83,2.215,2.625
				c0.56-0.099,1.578-0.831,2.107-1.657C32.633,2.942,32.807,2.415,32.694,1.996z"/>
			<path fill="#F37321" d="M31.308,5.019c-0.201-0.313-0.43-0.583-0.708-0.757c-2.563-1.612-2.514,5.311-2.562,6.276
				c-0.114,2.252-0.102,4.453,0.671,6.607c0.19,0.534,0.642,1.309,1.209,1.514c0.788,0.281,1.33-0.607,2.021-0.864
				c1.646-0.606,4.987,0.05,5.177-2.547c0.099-1.32-0.896-2.558-1.619-3.571c-1.005-1.411-2.066-2.773-2.994-4.239
				C32.099,6.798,31.786,5.772,31.308,5.019z"/>
			<path fill="#EE6C23" d="M34.825,17.315c0.03-0.006,0.063-0.01,0.092-0.018c0.704-0.145,1.258-0.427,1.753-0.857
				c0.245-0.295,0.41-0.679,0.446-1.192c0.092-1.227-0.757-2.376-1.457-3.347c-0.399,0.273-4.452,2.508-5.633-0.656
				c-0.803-2.148-1.028-5.074-0.148-7.209c-1.726,0.029-1.795,5.045-1.832,6.316c-0.001,0.072-0.003,0.138-0.007,0.186
				c-0.114,2.252-0.102,4.453,0.671,6.607c0.19,0.534,0.642,1.309,1.209,1.514c0.788,0.281,1.33-0.607,2.021-0.864
				c0.163-0.059,0.342-0.104,0.529-0.142C33.238,17.476,34.052,17.462,34.825,17.315z"/>
			<path fill="#D25C27" d="M34.816,17.317c0.039-0.008,0.077-0.014,0.114-0.021c0.322-0.07,0.759-0.209,1.181-0.404
				c0.553-0.311,0.944-0.807,1.005-1.644c0.082-1.063-0.55-2.071-1.176-2.954c-0.662,0.67-1.815,0.785-2.679,1.068
				c-1.33,0.44-2.354,1.139-3.577,0.32c-1.283-0.854-1.398-5.877-1.4-6.689c-0.218,1.51-0.224,3.115-0.245,3.545
				c-0.114,2.252-0.102,4.453,0.671,6.607c0.19,0.534,0.642,1.309,1.209,1.514c0.375,0.133,0.692,0,0.998-0.201
				c0.255-0.181,0.507-0.386,0.761-0.534c0.084-0.052,0.173-0.097,0.262-0.129c0.158-0.059,0.334-0.103,0.52-0.142
				C33.229,17.476,34.045,17.462,34.816,17.317z"/>
			<path opacity="0.39" fill="#FAA74E" d="M32.833,10.19c-0.355-0.497-0.759-0.965-1.108-1.452
				c-0.476-0.667-0.938-1.474-1.059-2.298c-0.048-0.341,0.205-1.765-0.333-1.826c-0.649-0.076-0.611,3.314-0.545,3.787
				c0.175,1.201,0.619,2.443,1.481,3.326c0.809,0.827,2.91,1.287,2.2-0.426C33.308,10.903,33.083,10.54,32.833,10.19z"/>
		</g>
		<path fill="#F37321" d="M30.331,15.894c1.314-1.342,2.913-2.2,4.647-2.615c2.389-0.571,6.04-0.585,8.353,0
			c1.729,0.438,3.332,1.273,4.646,2.615c2.49,2.536,2.017,8.133,1.501,11.313c-0.392,2.444-0.789,4.729-1.912,6.966
			c-0.68,1.352-1.368,2.357-2.489,3.373c-1.667,1.504-3.609,2.277-5.874,2.274c-2.099-0.002-4.308-0.771-5.97-2.274
			c-1.124-1.016-1.81-2.021-2.489-3.373c-1.127-2.236-1.521-4.521-1.916-6.966C28.315,24.026,27.839,18.43,30.331,15.894z"/>
		<path fill="#EE6C23" d="M28.828,27.207c0.395,2.444,0.789,4.729,1.916,6.966c0.68,1.352,1.365,2.357,2.489,3.373
			c1.662,1.504,3.871,2.272,5.97,2.274c2.265,0.003,4.207-0.771,5.874-2.274c1.121-1.016,1.81-2.021,2.489-3.373
			c1.123-2.236,1.521-4.521,1.912-6.966c0.516-3.181,0.989-8.777-1.501-11.313c-1.314-1.342-2.918-2.178-4.646-2.615
			c-2.313-0.585-5.964-0.571-8.353,0c-1.734,0.415-3.333,1.273-4.647,2.615C27.839,18.43,28.315,24.026,28.828,27.207z
			 M32.247,16.444c2.109-2.398,4.695-2.295,7.603-2.295c1.544,0,2.91,0.213,4.357,0.754c1.447,0.543,2.622,1.26,3.333,2.657
			c0.709,1.394,0.987,2.974,1.069,4.518c0.184,3.552-0.543,7.102-2.003,10.329c-1.229,2.717-3.578,5.802-6.836,6.063
			c-3.373,0.271-5.769-1.614-7.43-4.399C29.515,29.339,28.321,20.903,32.247,16.444z"/>
		<path opacity="0.58" fill="#FAA74E" d="M46.828,20.341c0.39,1.025,0.55,2.137,0.436,3.23c-0.211,1.971-2.732,2.598-3.665,4.275
			c-0.794,1.432-0.467,3.004-1.021,4.381c-0.688,1.695-3.857,1.418-5.302,1.047c-1.967-0.508-2.226-2.976-2.816-4.69
			c-0.457-1.327-1.677-2.079-2.434-3.202c-0.784-1.166-0.436-2.57-0.104-3.875c0.692-2.738,2.717-4.93,5.524-5.516
			c1.623-0.338,3.637-0.209,5.213,0.271C44.614,16.856,46.109,18.446,46.828,20.341z"/>
		<path opacity="0.58" fill="#FAA74E" d="M41.226,31.179c0.251-0.508,0.358-1.129,0.4-1.689c0.143-1.797,0.038-5.924-2.058-6.664
			c-2.566-0.904-2.616,6.494-2.229,7.826c0.285,0.983,1.51,1.662,2.498,1.556C40.53,32.132,40.96,31.72,41.226,31.179z"/>
		<path fill="#FEC866" d="M48.809,25.899c-0.044,0.558-0.17,1.119-0.614,1.408c-1.109,0.721-2.362-0.803-3.604-0.082
			c-2.345,1.371-1.611-1.498-1.178-2.928c0.425-1.41,2.338-5.219,4.322-3.671c1.026,0.802,1.176,3.128,1.11,4.326
			C48.832,25.228,48.836,25.562,48.809,25.899z"/>
		<path fill="#FEC866" d="M29.571,25.899c0.045,0.558,0.172,1.119,0.615,1.408c1.109,0.721,2.364-0.803,3.605-0.082
			c2.344,1.371,1.61-1.498,1.18-2.928c-0.429-1.41-2.343-5.219-4.322-3.671c-1.027,0.802-1.178,3.128-1.112,4.326
			C29.551,25.228,29.546,25.562,29.571,25.899z"/>
		<g>
			<path fill="#010101" d="M47.046,22.376c0.813,0.295,1.272,1.42,1.032,2.51c-0.243,1.093-1.099,1.736-1.907,1.441
				c-0.812-0.295-1.272-1.418-1.031-2.509C45.382,22.724,46.239,22.08,47.046,22.376z"/>
			<path fill="#FFFFFF" d="M47.449,23.701c0.151,0.056,0.225,0.325,0.162,0.603c-0.063,0.279-0.234,0.46-0.387,0.406
				c-0.15-0.056-0.224-0.328-0.162-0.605C47.122,23.827,47.297,23.646,47.449,23.701z"/>
		</g>
		<g>
			<path fill="#010101" d="M31.833,22.376c0.811,0.295,1.271,1.42,1.028,2.51c-0.241,1.093-1.097,1.736-1.906,1.441
				c-0.811-0.295-1.272-1.418-1.029-2.509C30.166,22.724,31.021,22.08,31.833,22.376z"/>
			<path fill="#FFFFFF" d="M32.231,23.701c0.152,0.056,0.228,0.325,0.165,0.603c-0.063,0.279-0.236,0.46-0.386,0.406
				c-0.153-0.056-0.227-0.328-0.166-0.605S32.079,23.646,32.231,23.701z"/>
		</g>
		<path fill="#93261E" d="M37.913,34.202c0.167-0.104,0.328-0.215,0.489-0.326c0.232-0.16,0.249-0.281,0.424-0.488
			c0.536-0.643,1.249,0.876,1.573,1.156c0.444,0.383,1.356,0.32,1.875,0.107c-0.703,0.574-1.05,1.133-1.447,1.941
			c-0.223,0.452-0.425,0.842-0.913,1.037c-0.631,0.248-1.505,0.205-1.997-0.279c-0.557-0.547-0.825-1.273-1.321-1.861
			c-0.414-0.49-0.969-0.846-1.343-1.357c0.206,0.281,0.944,0.53,1.272,0.56c0.445,0.042,0.819-0.157,1.189-0.37
			C37.781,34.283,37.847,34.243,37.913,34.202z"/>
		<path fill="#FFFFFF" d="M40.564,36.235c-0.013,0.033-0.027,0.064-0.042,0.098c-0.117,0.245-0.612,0.473-0.892,0.316
			c-0.25-0.139-0.282-0.551-0.398-0.834c-0.062,0.205-0.098,0.412-0.155,0.619c-0.068,0.252-0.046,0.273-0.345,0.271
			c-0.184,0-0.436,0.033-0.596-0.051c-0.168-0.086-0.216-0.264-0.303-0.445c-0.201-0.416-0.341-0.807-0.467-1.244
			c-0.044-0.151-0.196-0.432-0.175-0.594c0.026-0.2,0.331-0.32,0.474-0.473c0.46-0.488,0.842-1.245,1.605-1.193
			c0.374,0.027,0.67,0.126,0.906,0.441c0.25,0.328,0.301,0.769,0.585,1.076c0.137,0.145,0.317,0.119,0.354,0.349
			c0.033,0.204-0.136,0.462-0.205,0.645C40.791,35.542,40.698,35.92,40.564,36.235z"/>
		<path fill="#D7D2CA" d="M40.189,34.913c-0.25-0.164-0.468-0.31-0.76-0.386c-0.697-0.181-0.896,0.528-2.035,0.515
			c-0.011-0.025-0.02-0.051-0.027-0.076c-0.044-0.151-0.196-0.432-0.175-0.594c0.026-0.2,0.331-0.32,0.474-0.473
			c0.46-0.488,0.842-1.245,1.605-1.193c0.374,0.027,0.67,0.126,0.906,0.441c0.25,0.328,0.301,0.769,0.585,1.076
			c0.137,0.145,0.317,0.119,0.354,0.349c0.024,0.149-0.06,0.327-0.134,0.483C40.688,35.042,40.385,35.04,40.189,34.913z"/>
		<path fill="#FEC263" d="M39.165,30.849h0.084c2.719-0.917,4.469,0.913,4.469,2.38c0,0.304-0.656,1.368-1.687,1.575
			c-1.238,0.186-2.386-0.679-2.824-1.733c-0.44,1.055-1.588,1.919-2.824,1.733c-0.573-0.082-1.695-1.037-1.694-1.575
			C34.694,31.754,36.423,29.925,39.165,30.849z"/>
		<path fill="#FCB44D" d="M34.874,32.368c0.043,0.195,0.12,0.385,0.252,0.566c0.512,0.713,1.778,1.067,2.523,0.492
			c0.424-0.328,0.646-0.758,0.729-1.227c0.053,0.021,0.104,0.055,0.17,0.055c0.013,0.002,0.023,0,0.037,0
			c0.402,0.203,0.855,0.336,1.291,0.324c0.04,0.201,0.125,0.396,0.28,0.56c0.611,0.659,1.852,0.784,2.632,0.368
			c0.348-0.186,0.663-0.466,0.861-0.779c0.042,0.169,0.067,0.338,0.067,0.501c0,0.304-0.656,1.368-1.687,1.575
			c-1.238,0.186-2.386-0.679-2.824-1.733c-0.44,1.055-1.588,1.919-2.824,1.733c-0.573-0.082-1.695-1.037-1.694-1.575
			C34.69,32.946,34.754,32.654,34.874,32.368z"/>
		<path fill="#974F23" d="M34.704,33.298c0.637,1.319,3.077,1.988,3.842,0.556c0.172-0.321,0.296-0.655,0.413-1
			c0.004-0.015,0.02-0.026,0.037-0.036c0.035-0.033,0.119-0.049,0.207-0.046c0.087-0.003,0.17,0.013,0.205,0.046
			c0.02,0.01,0.031,0.021,0.038,0.036c0.117,0.345,0.241,0.679,0.414,1c0.763,1.433,3.204,0.764,3.843-0.556
			c0.048-0.104-0.031,0.18-0.081,0.281c-0.605,1.256-1.498,1.449-2.806,1.308c-0.749-0.083-1.201-0.619-1.511-1.239
			c-0.037-0.076-0.069-0.156-0.103-0.232c-0.036,0.076-0.068,0.156-0.104,0.232c-0.31,0.62-0.761,1.156-1.511,1.239
			c-1.305,0.142-2.185-0.019-2.79-1.271C34.749,33.513,34.653,33.193,34.704,33.298z"/>
		<g>
			<path fill="#773C26" d="M39.982,29.278c0.387,0.049,0.768,0.158,1.065,0.389c0.658,0.505,0.711,1.24,0.245,1.891
				c-0.412,0.578-0.918,1.24-1.553,1.595c-0.67,0.376-1.361-0.238-1.776-0.708c-0.396-0.453-0.848-0.96-1.046-1.539
				c-0.418-1.193,1.507-1.627,2.335-1.654C39.485,29.244,39.736,29.249,39.982,29.278z"/>
			<path fill="#522121" d="M37.377,29.779c-0.006,0.297,0.04,0.602,0.155,0.886c0.468,1.145,1.831,1.598,2.95,1.158
				c0.522-0.204,0.919-0.603,1.11-1.07c-0.013,0.268-0.114,0.543-0.301,0.805c-0.412,0.578-0.918,1.24-1.553,1.595
				c-0.67,0.376-1.361-0.238-1.776-0.708c-0.396-0.453-0.848-0.96-1.046-1.539C36.741,30.405,36.982,30.038,37.377,29.779z"/>
			<path fill="#FFFFFF" d="M39.755,30.522c-0.224-0.041-0.444-0.086-0.645-0.096c-0.189-0.006-0.997,0.031-1.123-0.181
				c-0.348-0.593,1.422-0.685,1.689-0.63c0.297,0.061,0.646,0.172,0.918,0.293c0.257,0.114,0.475,0.556,0.069,0.656
				C40.392,30.635,40.073,30.583,39.755,30.522z"/>
		</g>
	</g>
	<g>
		<path fill="#FFF0C3" d="M44.198,44.075c0.472-0.153,1.267-0.542,0.76-1.068c-0.296-0.309-0.817-0.367-1.089-0.689
			c-0.428-0.51-0.938-0.832-1.617-0.693c-0.287,0.061-0.476,0.064-0.747-0.049c-0.307-0.129-0.743-0.378-0.926,0.068
			c-0.101,0.237,0.108,0.471,0.255,0.656c0.362,0.461,0.939,0.73,1.409,1.064C42.927,43.855,43.342,44.356,44.198,44.075z"/>
		<path fill="#F7D589" d="M41.995,41.704c0.152,0.039,0.434,0.199,0.58,0.269c0.24,0.119,0.641,0.161,0.857,0.131
			c0.316,0.296,0.509,0.635,0.89,0.797c0.132,0.056,0.287,0.007,0.4-0.071c0.085,0.053,0.167,0.105,0.235,0.178
			c0.507,0.526-0.288,0.915-0.76,1.068c-0.855,0.281-1.271-0.22-1.955-0.711c-0.47-0.334-1.047-0.604-1.409-1.064
			c-0.051-0.062-0.09-0.125-0.128-0.191C41.209,42.119,41.577,41.917,41.995,41.704z"/>
		<path opacity="0.51" fill="#F6AD55" d="M42.195,41.831c0.398,0.405,0.869,0.699,1.33,0.495c0.033,0.031,0.067,0.063,0.101,0.093
			c0.363,0.488,0.958,0.986,1.413,0.705c0.291,0.464-0.405,0.81-0.841,0.951c-0.855,0.281-1.271-0.22-1.955-0.711
			c-0.47-0.334-1.047-0.604-1.409-1.064c-0.051-0.062-0.09-0.125-0.128-0.191C41.194,42.119,41.911,41.661,42.195,41.831z"/>
		<g>
			<path fill="#FEE8A9" d="M39.41,42.114c0.333-0.373,0.864-0.607,1.464-0.725c0.063,0.101,0.161,0.203,0.312,0.303
				c0.174,0.119,0.367,0.221,0.584,0.227c0.09-0.006,0.178-0.016,0.264-0.027c0.037-0.004,0.066-0.008,0.091-0.016
				c0.132,0.275,0.333,0.465,0.621,0.513c0.225,0.207,0.501,0.186,0.83,0.052c0.036,0.103,0.083,0.194,0.146,0.284
				c0.135,0.192,0.289,0.354,0.493,0.478c0.319,0.194,0.618,0.179,0.884,0.049c0.14,0.631,0.036,1.322-0.158,1.92
				c-0.454,1.405-1.22,1.505-2.265,2.28c-0.437,0.321-0.603,0.86-0.851,1.322c-0.104-1.376-2.029-1.839-2.559-3.058
				C38.893,44.863,38.728,42.873,39.41,42.114z"/>
			<path fill="#FFD985" d="M41.233,41.718c0.16,0.107,0.341,0.195,0.536,0.201c0.09-0.006,0.178-0.016,0.264-0.027
				c0.037-0.004,0.066-0.008,0.091-0.016c0.029,0.061,0.063,0.111,0.096,0.164c-0.76,0.252-1.437,0.84-1.805,1.533
				c-0.097,0.182-0.223,0.395-0.35,0.621c-0.104-0.818-0.136-1.637,0.609-2.199C40.832,41.876,41.022,41.788,41.233,41.718z"/>
			<path fill="#FFD985" d="M44.55,45.544c0.213-0.496,0.52-1.52,0.395-2.239c0.052-0.014,0.104-0.028,0.152-0.054
				c0.14,0.631,0.036,1.322-0.158,1.92c-0.454,1.405-1.22,1.505-2.265,2.28c-0.437,0.321-0.603,0.86-0.851,1.322
				c-0.008-0.099-0.024-0.19-0.05-0.28c0.143-0.227,0.281-0.457,0.413-0.691c0.183-0.191,0.35-0.391,0.479-0.537
				C43.5,46.762,44.21,46.337,44.55,45.544z"/>
			<path fill="#FFEEB7" d="M43.72,42.725c0.135,0.192,0.289,0.354,0.493,0.478c0.139,0.084,0.274,0.121,0.405,0.134
				c0.148,0.424,0.177,0.839,0.025,1.284c-0.025,0.079-0.056,0.158-0.087,0.234c-0.157,0.384-0.39,0.76-0.695,1.023
				c-0.214,0.18-0.628,0.059-0.536-0.266c0.061-0.211,0.225-0.395,0.313-0.598c0.23-0.521,0.31-1.115,0.093-1.654
				c-0.081-0.201-0.27-0.574-0.059-0.731C43.689,42.66,43.701,42.693,43.72,42.725z"/>
			<path fill="#FFF0C3" d="M40.982,43.138c0.288-0.303,0.643-0.496,1.029-0.641c0.121-0.043,0.279-0.139,0.442-0.219
				c0.083,0.056,0.183,0.09,0.291,0.11c0.121,0.112,0.257,0.156,0.409,0.153c-0.026,0.205-0.117,0.439-0.146,0.582
				c-0.005,0.023-0.012,0.049-0.016,0.072c-0.165,0.764-0.405,1.573-0.392,2.352c0.008,0.471,0.078,0.979-0.086,1.438
				c-0.127,0.346-0.315,0.703-0.497,1.025c-0.117-0.094-0.059-0.273-0.062-0.416c-0.004-0.211-0.03-0.379-0.099-0.586
				c-0.209-0.624-0.879-1.102-1.206-1.683C40.237,44.593,40.411,43.733,40.982,43.138z"/>
			<path fill="#FEF6E4" d="M43.154,42.542c-0.026,0.203-0.117,0.439-0.146,0.582c-0.005,0.023-0.012,0.049-0.016,0.072
				c-0.165,0.764-0.405,1.573-0.392,2.352c0.008,0.471,0.078,0.979-0.086,1.438c-0.005,0.008-0.01,0.017-0.01,0.025
				c0.021-0.362-0.026-0.726-0.149-1.09c-0.267-0.774-0.823-1.094-0.238-2.034c0.287-0.461,0.604-0.901,0.901-1.356
				C43.063,42.54,43.106,42.543,43.154,42.542z"/>
			<path fill="#FFD985" d="M43.289,42.527c-0.286,0.791-0.179,1.604-0.297,2.45c-0.064,0.457-0.279,0.838-0.283,1.33
				c-0.001,0.261-0.021,0.736,0.109,1.045c-0.05,0.033-0.097,0.063-0.144,0.099c-0.437,0.321-0.603,0.86-0.851,1.322
				c-0.003-0.067-0.017-0.13-0.031-0.192c0.094-0.346,0.231-0.673,0.396-1.031c0.164-0.359,0.286-0.746,0.327-1.141
				c0.063-0.563,0.043-1.129,0.109-1.689c0.052-0.42,0.065-0.835,0.187-1.242c0.092-0.311,0.173-0.625,0.233-0.942
				C43.124,42.545,43.203,42.543,43.289,42.527z"/>
			<g>
				<path fill="#AA5726" d="M39.41,42.114c0.335-0.371,0.864-0.607,1.464-0.725c0.063,0.101,0.161,0.203,0.312,0.303
					c0.174,0.119,0.367,0.221,0.584,0.227c0.031-0.002,0.063-0.006,0.094-0.012c-0.498,0.17-0.922,0.477-1.17,0.99
					c-0.411,0.855-0.456,1.807,0.041,2.653c0.635,1.083,1.058,1.815,1.024,2.897c-0.353-1.131-2.009-1.615-2.493-2.732
					C38.893,44.863,38.728,42.873,39.41,42.114z"/>
				<path fill="#C26928" d="M39.41,42.114c0.335-0.371,0.864-0.607,1.464-0.725c0.063,0.101,0.161,0.203,0.312,0.303
					c0.174,0.119,0.367,0.221,0.584,0.227c0.038-0.002,0.075-0.008,0.112-0.012c-0.33,0.109-0.629,0.275-0.863,0.527
					c-0.067,0.046-0.136,0.098-0.195,0.158c-0.461,0.467-0.666,1.231-0.61,1.883c0.031,0.343,0.236,0.721,0.226,1.063
					c-0.092-0.104-0.115-0.258-0.162-0.388c-0.051-0.138-0.13-0.272-0.167-0.419c-0.061-0.242-0.043-0.521-0.059-0.771
					c-0.016-0.267,0.026-0.492,0.085-0.749c0.051-0.221,0.172-0.453,0.178-0.682c-0.152,0.036-0.184,0.436-0.218,0.568
					c-0.037,0.139-0.081,0.27-0.114,0.408c-0.261,1.092,0.153,2.133,0.78,3.015c0.172,0.246,0.534,0.577,0.586,0.871
					c-0.297-0.339-0.577-0.706-0.864-1.048c-0.143-0.166-0.296-0.381-0.396-0.574c-0.112-0.22-0.154-0.465-0.226-0.697
					c-0.066-0.203-0.181-0.332-0.194-0.547c-0.016-0.24,0.018-0.486,0.049-0.726c0.027-0.227,0.01-0.505,0.066-0.722
					c-0.208,0.786-0.321,1.566-0.235,2.37c-0.087-0.159-0.087-0.431-0.119-0.618c-0.04-0.225-0.056-0.602-0.047-0.83
					c0.012-0.294-0.091-1.004,0.148-1.521c-0.167,0.292-0.383,0.862-0.416,1.071c-0.052,0.355,0.067,1.049,0.052,1.405
					c-0.006,0.21,0.02,0.426,0.056,0.634C38.885,44.687,38.755,42.842,39.41,42.114z"/>
				<path fill="#89471F" d="M39.395,45.499c0.104,0.293,0.404,0.755,0.691,0.885c-0.044-0.18-0.131-0.354-0.188-0.533
					c-0.08-0.246-0.084-0.473-0.116-0.721c0.059,0.171,0.067,0.352,0.144,0.537c0.113,0.268,0.292,0.508,0.454,0.739
					c0.149,0.216,0.317,0.418,0.493,0.616c0.146,0.168,0.364,0.458,0.571,0.55c0.133-0.257-0.396-0.728-0.521-0.924
					c-0.2-0.309-0.428-0.7-0.483-1.067c0.104,0.194,0.176,0.41,0.292,0.604c0.123,0.202,0.29,0.592,0.506,0.702
					c-0.007-0.133-0.089-0.238-0.142-0.357c-0.062-0.142-0.094-0.296-0.146-0.441c-0.062-0.162-0.165-0.374-0.242-0.589
					c0.009,0.018,0.015,0.033,0.025,0.052c0.635,1.083,1.058,1.815,1.024,2.897c-0.321-1.021-1.693-1.521-2.317-2.43
					c-0.031-0.084-0.061-0.168-0.083-0.262c-0.068-0.264-0.251-0.828-0.095-1.08C39.29,44.947,39.308,45.251,39.395,45.499z"/>
			</g>
			<g>
				<path fill="#F29C50" d="M42.56,46.022c-0.012-0.033,0.57-0.529,0.628-0.604c0.203-0.268,0.284-0.524,0.294-0.86
					c0.013-0.59-0.24-1.219-0.498-1.75c-0.211,0.467-0.662,1.01-0.83,1.516C41.986,44.827,42.411,45.544,42.56,46.022z"/>
				<path fill="#F6AD55" d="M43.056,42.97c0.231,0.494,0.437,1.055,0.426,1.588c-0.01,0.336-0.091,0.593-0.294,0.86
					c-0.058,0.075-0.64,0.571-0.628,0.604c-0.012-0.029-0.023-0.064-0.034-0.097C43.359,45.342,43.448,43.846,43.056,42.97z"/>
				<path fill="#EA8735" d="M43.258,43.464c-0.541,0.354-0.873,1.057-0.994,1.791c-0.119-0.326-0.201-0.66-0.11-0.932
					c0.168-0.506,0.619-1.049,0.83-1.516C43.083,43.015,43.177,43.237,43.258,43.464z"/>
			</g>
		</g>
	</g>
	<g>
		<path fill="#F37321" d="M45.643,45.663c-0.179,0.42-0.473,0.761-0.894,0.948c-0.364,0.161-0.99,0.37-1.336,0.064
			c-0.292-0.259,0.062-0.37,0.252-0.514c-0.331-0.396-0.028-0.577,0.336-0.713c-0.146-0.089-0.317-0.256-0.268-0.451
			c0.063-0.22,0.377-0.169,0.453-0.345c0.077-0.193-0.206-0.307-0.114-0.533c0.084-0.2,0.297-0.233,0.478-0.256
			c0.355-0.047,0.461-0.463,0.572-0.485c0.352-0.069,0.623,0.606,0.662,0.874C45.857,44.71,45.83,45.233,45.643,45.663z"/>
		<path opacity="0.5" fill="#D25C27" d="M45.643,45.663c-0.179,0.42-0.473,0.761-0.894,0.948c-0.364,0.161-0.99,0.37-1.336,0.064
			c-0.292-0.259,0.062-0.37,0.252-0.514c-0.331-0.396-0.028-0.577,0.336-0.713c-0.146-0.089-0.317-0.256-0.268-0.451
			c0.063-0.22,0.377-0.169,0.453-0.345c0.077-0.193-0.206-0.307-0.114-0.533c0.084-0.2,0.297-0.233,0.478-0.256
			c0.355-0.047,0.461-0.463,0.572-0.485c0.352-0.069,0.623,0.606,0.662,0.874C45.857,44.71,45.83,45.233,45.643,45.663z"/>
		<path fill="#BB4F26" d="M45.051,44.354c0.224-0.158,0.413-0.352,0.527-0.595c0,0.196-0.02,0.294-0.083,0.428
			c-0.063,0.132-0.176,0.263-0.302,0.337c-0.169,0.094-0.396,0.142-0.589,0.131c-0.098-0.006-0.314-0.021-0.359-0.125
			c0.3-0.021,0.529,0.014,0.781-0.158C45.036,44.364,45.043,44.36,45.051,44.354z"/>
		<path fill="#BB4F26" d="M44.424,46.226c0.285,0,0.565-0.051,0.813-0.189c-0.074,0.137-0.201,0.24-0.338,0.316
			s-0.313,0.119-0.467,0.104c-0.199-0.021-0.417-0.119-0.57-0.244c-0.081-0.063-0.251-0.211-0.224-0.328
			c0.266,0.166,0.437,0.336,0.759,0.342C44.405,46.226,44.414,46.226,44.424,46.226z"/>
		<path fill="#BB4F26" d="M44.923,45.376c0.313-0.063,0.601-0.175,0.808-0.362c-0.085,0.131-0.106,0.269-0.224,0.369
			c-0.111,0.103-0.285,0.184-0.462,0.204c-0.23,0.025-0.52-0.014-0.751-0.094c-0.115-0.041-0.374-0.133-0.402-0.248
			c0.372,0.09,0.642,0.207,0.998,0.138C44.901,45.38,44.913,45.378,44.923,45.376z"/>
	</g>
	<g>
		<path fill="#F37321" d="M34.829,41.241c1.131-0.29,2.333-0.496,3.5-0.389c0.483,0.044,1.038,0.14,1.452,0.397
			c0.477,0.294,0.884,0.681,1.299,1.055c0.364,0.328,0.807,0.714,0.975,1.191c0.087,0.248-0.081,0.275-0.168,0.472
			c-0.07,0.154,0.01,0.229,0.01,0.391c0,0.152-0.074,0.168-0.161,0.26c-0.036,0.037-0.101,0.043-0.132,0.09
			c-0.052,0.074-0.01,0.136-0.041,0.198c-0.12,0.228-0.334,0.329-0.604,0.298c-0.1,0.166-0.072,0.328-0.317,0.311
			c-0.4-0.033-0.727-0.469-1.038-0.669c-0.271-0.175-0.597-0.298-0.913-0.349c-0.178-0.031-0.353-0.018-0.53,0.01
			c-0.295,0.047-0.658,0.253-0.93,0.383c-0.366,0.171-0.695,0.411-1.005,0.668c-0.617,0.51-1.15,1.109-1.781,1.604
			c-0.725,0.565-1.556,1.484-2.387,1.844c-1.13,0.485-2.506-0.258-3.468-0.89c-1.194-0.786-2.246-1.968-3.168-3.05
			c-0.907-1.072-2.026-1.896-2.726-3.154c-0.634-1.145-0.669-2.59-0.071-3.766c1.049-2.064,3.55-3.336,5.817-2.647
			c0.952,0.29,1.627,1.583,2.164,2.388c0.689,1.03,0.723,2.092,1.231,3.155c0.299,0.626,0.393,0.763,1.107,0.665
			c0.469-0.063,0.964-0.203,1.431-0.34C34.518,41.323,34.672,41.281,34.829,41.241z"/>
		<path opacity="0.44" fill="#FAA74E" d="M28.441,35.498c0.952,0.29,1.627,1.583,2.164,2.388c0.689,1.03,0.723,2.092,1.231,3.155
			c0.299,0.626,0.393,0.763,1.107,0.665c0.469-0.063,0.964-0.203,1.431-0.34c0.144-0.043,0.298-0.085,0.454-0.125
			c1.131-0.29,2.333-0.496,3.5-0.389l0,0c-0.878,0.159-1.7,0.214-2.55,0.486c-0.864,0.277-1.797,0.637-2.698,0.768
			c-0.314,0.045-0.637,0.053-0.963-0.003c-1.148-0.187-1.531-1.79-1.808-2.711c-0.252-0.845-0.554-1.687-1.014-2.444
			c-0.195-0.326-0.423-0.615-0.672-0.9c-0.066-0.078-0.292-0.386-0.492-0.625C28.234,35.445,28.338,35.469,28.441,35.498z"/>
		<path fill="#EE6C23" d="M22.624,38.146c0.139-0.271,0.304-0.529,0.486-0.77c-0.121,1.212-0.022,2.444,0.256,3.512
			c0.757,2.898,4.368,6.297,7.571,6.045c1.883-0.148,7.615-3.74,7.692-6.043c0.402,0.055,0.823,0.155,1.151,0.36
			c0.477,0.294,0.884,0.681,1.299,1.055c0.364,0.328,0.807,0.714,0.975,1.191c0.087,0.248-0.081,0.275-0.168,0.472
			c-0.07,0.154,0.01,0.229,0.01,0.391c0,0.152-0.074,0.168-0.161,0.26c-0.036,0.037-0.101,0.043-0.132,0.09
			c-0.052,0.074-0.01,0.136-0.041,0.198c-0.12,0.228-0.334,0.329-0.604,0.298c-0.1,0.166-0.072,0.328-0.317,0.311
			c-0.4-0.033-0.727-0.469-1.038-0.669c-0.271-0.175-0.597-0.298-0.913-0.349c-0.178-0.031-0.353-0.018-0.53,0.01
			c-0.295,0.047-0.658,0.253-0.93,0.383c-0.366,0.171-0.695,0.411-1.005,0.668c-0.617,0.51-1.15,1.109-1.781,1.604
			c-0.725,0.565-1.556,1.484-2.387,1.844c-1.13,0.485-2.506-0.258-3.468-0.89c-1.194-0.786-2.246-1.968-3.168-3.05
			c-0.907-1.072-2.026-1.896-2.726-3.154C22.061,40.767,22.026,39.321,22.624,38.146z"/>
		<path opacity="0.5" fill="#D25C27" d="M39.332,43.491c0.619-0.637,0.471-1.652,0.059-2.344c-0.012-0.027-0.02-0.055-0.032-0.08
			c0.147,0.051,0.295,0.104,0.423,0.183c0.477,0.294,0.884,0.681,1.299,1.055c0.364,0.328,0.807,0.714,0.975,1.191
			c0.087,0.248-0.081,0.275-0.168,0.472c-0.07,0.154,0.01,0.229,0.01,0.391c0,0.152-0.074,0.168-0.161,0.26
			c-0.036,0.037-0.101,0.043-0.132,0.09c-0.052,0.074-0.01,0.136-0.041,0.198c-0.12,0.228-0.334,0.329-0.604,0.298
			c-0.1,0.166-0.072,0.328-0.317,0.311c-0.4-0.033-0.727-0.469-1.038-0.669c-0.271-0.175-0.597-0.298-0.913-0.349
			c-0.178-0.031-0.353-0.018-0.527,0.01C38.548,44.186,38.958,43.878,39.332,43.491z"/>
		<path fill="#BB4F26" d="M39.981,41.976c0.432-0.098,1.077,0.494,1.309,0.806c0.253,0.339,0.531,0.748,0.594,1.175
			c-0.197-0.423-0.495-0.736-0.833-1.043C40.923,42.798,40.098,41.95,39.981,41.976z"/>
		<path fill="#BB4F26" d="M40.661,43.525c-0.188-0.14-0.387-0.249-0.586-0.376c-0.121-0.076-0.201-0.186-0.301-0.292
			c0.215-0.017,0.444,0.153,0.623,0.251c0.243,0.136,0.483,0.302,0.668,0.514c0.233,0.268,0.516,0.695,0.552,1.057
			c-0.076-0.051-0.13-0.244-0.191-0.334C41.216,44.035,40.958,43.757,40.661,43.525z"/>
		<path fill="#BB4F26" d="M40.075,44.191c-0.15-0.108-0.289-0.224-0.46-0.3c-0.105-0.046-0.22-0.091-0.322-0.145
			c0.329-0.283,0.908,0.205,1.112,0.434c0.243,0.266,0.563,0.65,0.54,1.032c0.006-0.05-0.17-0.224-0.201-0.273
			c-0.051-0.071-0.088-0.154-0.138-0.228C40.473,44.521,40.263,44.325,40.075,44.191z"/>
	</g>
	<g>
		<path fill="#F37321" d="M30.468,64.648c-2.213-0.802-4.548-1.202-6.787-2.021c-1.409-0.514-4.527-1.732-1.3-2.363
			c2.287-0.447,5.16,0.783,7.331,1.356c1.212,0.319,2.65,0.517,3.904,0.399c1.104-0.105,1.862-0.445,2.988-0.035
			c0.903,0.332,2.029,0.923,2.433,1.844c0.284,0.651,0.339,1.607-0.634,1.354c0.226,0.059-0.023,0.505-0.119,0.569
			c-0.19,0.127-0.577-0.022-0.766-0.066c-0.038,0.146-0.053,0.314-0.109,0.458c-0.472,0.136-0.963,0.019-1.375-0.187
			c0.197,1.086-2.448-0.287-2.729-0.371C32.348,65.307,31.406,64.987,30.468,64.648z"/>
		<path fill="#EE6C23" d="M22.381,60.265c2.287-0.447,5.16,0.783,7.331,1.356c1.212,0.319,2.65,0.517,3.904,0.399
			c0.846-0.08,1.493-0.297,2.255-0.209c-0.262,0.018-0.509,0.049-0.707,0.129c-0.855,0.344-1.641,0.873-2.229,1.59
			c-0.444,0.545-0.597,1.105-0.605,1.752c-0.621-0.199-1.244-0.408-1.861-0.634c-1.875-0.68-3.834-1.083-5.752-1.685
			c-0.449-0.285-0.914-0.559-1.371-0.754c-0.568-0.24-1.155-0.371-1.695-0.689c-0.388-0.227-0.589-0.434-0.652-0.621
			C21.087,60.662,21.483,60.439,22.381,60.265z"/>
		<path fill="#D25C27" d="M29.712,61.621c1.133,0.298,2.458,0.479,3.652,0.407c-0.469,0.217-0.899,0.491-1.319,0.788
			C31.4,63.27,30.87,64.153,31.18,64.89c-0.238-0.08-0.476-0.156-0.712-0.241c-1.875-0.68-3.834-1.083-5.752-1.685
			c-0.449-0.285-0.914-0.559-1.371-0.754c-0.479-0.203-0.973-0.333-1.443-0.561c-0.397-0.59-0.224-1.091,0.37-1.36
			c0.037-0.009,0.07-0.018,0.109-0.024C24.668,59.817,27.542,61.048,29.712,61.621z"/>
		<path fill="#BB4F26" d="M35.449,62.52c0.721-0.122,1.535,0.378,2.075,0.808c0.557,0.445,0.921,1.157,1.013,1.844
			c-0.172-0.211-0.269-0.467-0.421-0.68c-0.272-0.378-0.697-0.852-1.049-1.146C36.838,63.151,35.75,62.47,35.449,62.52z"/>
		<path fill="#BB4F26" d="M34.208,63.255c0.707-0.189,1.564,0.227,2.144,0.602c0.598,0.391,1.029,1.064,1.185,1.739
			c-0.189-0.192-0.31-0.439-0.482-0.636c-0.31-0.35-0.774-0.778-1.156-1.041C35.651,63.749,34.501,63.175,34.208,63.255z"/>
		<path fill="#BB4F26" d="M32.921,64.06c0.586-0.223,1.358,0.064,1.886,0.342c0.547,0.285,0.972,0.83,1.165,1.399
			c-0.18-0.149-0.305-0.353-0.468-0.509c-0.295-0.275-0.731-0.607-1.079-0.799C34.199,64.366,33.165,63.966,32.921,64.06z"/>
	</g>
	<g>
		<path fill="#F37321" d="M26.721,46.551c3.102,1.812,4.996,5.323,5.909,8.743c0.453,1.691,0.94,4.072,0.216,5.74
			c-1.317,3.033-7.271,2.281-9.81,1.869c-3.58-0.584-6.312-3.34-6.684-6.855c-0.362-3.393-0.923-7.402,2.176-9.822
			C20.978,44.31,24.253,45.105,26.721,46.551z"/>
		<path opacity="0.53" fill="#EE6C23" d="M17.234,47.629c-1.233,4.036,1.318,9.467,4.624,11.546
			c2.257,1.422,9.684,3.986,11.297,0.672c-0.054,0.42-0.15,0.822-0.309,1.188c-1.317,3.033-7.271,2.281-9.81,1.869
			c-3.58-0.584-6.312-3.34-6.684-6.855C16.054,53.247,15.628,50.026,17.234,47.629z"/>
		<path opacity="0.44" fill="#FAA74E" d="M29.381,52.032c-1.979-2.328-4.017-4.795-7.039-5.709c-0.886-0.268-1.97-0.604-2.992-0.619
			c2.327-1.209,5.168-0.442,7.371,0.847c3.102,1.812,4.996,5.323,5.909,8.743c0.322,1.199,0.652,2.742,0.563,4.135
			C32.802,56.706,30.876,53.792,29.381,52.032z"/>
	</g>
	<path fill="#EE6C23" d="M14.234,49.409c0.234-2.283,0.708-4.656,1.686-6.835c-0.359,3.36-1.195,7.959,0.636,12.745
		c2.313,6.047,7.126,7.309,13.399,7.705c-2.307,0.529-5.302,0.141-6.918-0.121c-0.565-0.093-1.107-0.246-1.624-0.439
		c-1.414-0.328-2.729-0.87-3.842-1.768C14.05,57.854,13.812,53.519,14.234,49.409z"/>
	<path fill="#FFCF70" d="M43.066,55.026c-0.131,0.996-0.518,1.936-1.195,2.664c-0.594,0.639-1.3,0.96-2.071,1.328
		c-1.5,0.713-3.212,0.58-3.989-1.068c-0.532-1.136-0.664-2.369-1.043-3.568c-0.389-1.229-0.586-2.448-0.123-3.692
		c0.625-1.682,2.112-2.264,3.756-2.233C41.574,48.515,43.46,52.039,43.066,55.026z"/>
</g>
</svg>
