<?xml version="1.0" encoding="utf-8"?>
<!-- Generator: Adobe Illustrator 15.0.0, SVG Export Plug-In . SVG Version: 6.00 Build 0)  -->
<!DOCTYPE svg PUBLIC "-//W3C//DTD SVG 1.1//EN" "http://www.w3.org/Graphics/SVG/1.1/DTD/svg11.dtd">
<svg version="1.1" id="Layer_1" xmlns="http://www.w3.org/2000/svg" xmlns:xlink="http://www.w3.org/1999/xlink" x="0px" y="0px"
	 width="211.333px" height="228.607px" viewBox="0 0 211.333 228.607" enable-background="new 0 0 211.333 228.607"
	 xml:space="preserve">
<g>
	<path fill="#484D57" d="M119.499,191.295c5.84,1.503,14.547,6.783,3.326,8.163c-5.399,0.661-11.147,0.253-16.603,0.054
		c-7.753-0.285-16.981,0.449-24.161-2.321c-12.692-4.899-4.726-17.91,0.993-24.338c6.115-6.88,8.921-15.246,14.542-22.434
		c4.49-5.741,12.905-7.272,17.53-0.248c3.619,5.51,5.097,11.068,5.097,17.257c0,5.657-3.333,10.299-6.392,15.23
		c-0.81,1.319-3.971,4.811-3.269,6.32C111.535,191.097,117.292,190.728,119.499,191.295z"/>
	<g>
		<path fill="#484D57" d="M158.483,189.228c1.799,1.237,4.063,1.99,5.433,3.683c1.11,1.373,1.129,3.729-0.146,5.042
			c-0.674,0.693-1.655,1.135-2.736,1.226c-0.515,0.042-0.982-0.105-1.432-0.087c-0.473,0.022-0.587,0.276-0.909,0.581
			c-0.996,0.932-2.847,0.729-4.296,0.735c-2.314,0.001-4.146-0.579-6.137-1.421c-1.914-0.808-3.144-2.217-3.797-3.78
			c-2.745-6.499-1.358-13.68-0.527-20.325c1.31-10.459,2.04-21.129,6.214-31.217c1.606-3.892,3.338-8.036,5.307-11.823
			c0.989-1.907,2.818-3.513,4.702-4.944c0.456-0.346,7.326-3.593,7.159-2.98c-0.885,3.28-2.254,6.743-3.399,10.055
			c-0.626,1.805-1.375,3.547-2.085,5.339c-0.813,2.06-1.515,4.137-2.124,6.235c-2.286,7.881-5.544,34.022-4.163,38.806
			C156.096,186.257,156.66,187.978,158.483,189.228z"/>
		<path fill="#333943" d="M159.356,193.745c0.347,0.446,0.546,0.954,0.768,1.453c0.282,0.615,0.56,1.206,1.124,1.715
			c0.335,0.308,0.55,0.482,1.094,0.432c1.088-0.104,1.91-0.928,2.369-1.626c-0.066,0.831-0.368,1.64-0.94,2.233
			c-0.674,0.693-1.655,1.135-2.736,1.226c-0.515,0.042-0.982-0.105-1.432-0.087c-0.473,0.022-0.587,0.276-0.909,0.581
			c-0.996,0.932-2.847,0.729-4.296,0.735c-2.314,0.001-4.146-0.579-6.137-1.421c-0.32-0.132-0.608-0.29-0.882-0.45
			c-0.874-2.11-0.874-4.33-0.751-6.572c0.091-1.67,0.19-3.34,0.314-5.006c0.082-1.061,0.357-2.286,1.067-3.218
			c1.028-1.353,1.028-0.103,1.155,0.699c0.145,0.828,0.318,1.658,0.478,2.486c0.326,1.699,0.636,3.344,1.459,4.957
			c0.308,0.594,0.686,1.194,1.104,1.749c0.586,0.776,1.178,1.498,2.08,2.088c1.011,0.667,2.871,1.914,3.771,0.448
			c0.556-0.913,0.47-2.935-0.632-3.624C158.156,192.901,158.893,193.138,159.356,193.745z"/>
	</g>
	<path fill="#6E7076" d="M92.625,87.444c4.118-5.002,6.806-10.609,10.292-15.881c8.134-12.281,18.767-7.661,33.369-6.017
		c9.05,1.022,17.506,3.398,24.729,7.761c7.247,4.379,11.173,11.146,13.309,17.846c1.103,3.427,1.314,6.74,1.615,10.157
		c0.327,3.676,2.709,6.84,3.182,10.479c-0.022-0.194-2.854,0.183-3.122,0.247c0.059,12.918-20.63,26.164-33.435,32.399
		c-1.823,0.887-3.685,1.716-5.575,2.518c-5.886,2.494-12.532,3.872-18.199,6.705c-8.053,4.027-4.295,6.563-3.762,12.78
		c0.332,3.86-0.488,7.245-2.104,10.719c-2.778,6.003-9.828,10.095-16.067,14.37c8.786,1.635,22.861-1.165,28.235,5.505
		c10.879,13.524-36.855,7.416-42.373,7.227c-18.798-0.658-56.589,7.37-63.463-12.648c-3.328-9.684-1.4-18.52,0.84-28.08
		c0.557-2.384,1.794-4.619,1.872-6.952c-1.369,0.439-2.318,1.065-2.843,2.427c-0.064-4.26,2.04-9.678,4.402-13.501
		c1.229-1.983,8.798-11.88,11.529-12.162c-1.599,0.165-2.391-0.093-3.855,0.525c2.492-7.294,10.601-11.739,18.25-15.854
		c2.421-1.3,18.076-12.694,19.925-12.087c-0.946-0.312-1.575-1.104-2.322-1.389C79.86,103.232,86.421,94.986,92.625,87.444z"/>
	<path opacity="0.66" fill="#868789" d="M104.595,97.052c-1.251-1.001-2.546-2.293-4.038-3.151
		c0.018,2.992-1.085,9.146-3.813,11.297c-0.32-3.331-0.301-6.733-2.071-9.84c1.959,3.44-9.317,7.871-11.253,10.595
		c-3.031,4.268-3.165,9.272-5.131,13.802c-2.687-2.276-3.087-8.442-3.021-11.578c-4.247,0.229-9.057,6.219-10.91,8.912
		c-1.677,2.443-2.613,5.669-4.952,7.622c-0.37-1.478-1.053-2.949-1.705-4.318c-5.538,3.606-4.151,7.319-5.475,11.946
		c-1.386-0.698-2.666-1.573-3.905-2.442c-1.126-0.791-3.108-0.733-3.878,0.382c-3.42,4.927-6.146,10.151-7.306,15.604
		c-0.786-0.771-1.705-1.444-2.868-2.12c-1.135-0.665-2.673-0.075-3.377,0.676c-6.49,6.952-6.833,16.721-8.725,24.872
		c-1.539,6.63-2.21,13.3-2.573,19.998c-0.254-0.492-0.521-0.978-0.822-1.452c-0.239-0.382-0.506-0.743-0.764-1.106
		c-1.405-7.838,0.231-15.284,2.088-23.219c0.557-2.384,1.794-4.619,1.872-6.952c-1.369,0.439-2.318,1.065-2.843,2.427
		c-0.064-4.26,2.04-9.678,4.402-13.501c1.229-1.983,8.798-11.88,11.529-12.162c-1.599,0.165-2.391-0.093-3.855,0.525
		c2.492-7.294,10.601-11.739,18.25-15.854c2.421-1.3,18.076-12.694,19.925-12.087c-0.946-0.312-1.575-1.104-2.322-1.389
		c12.807-1.306,19.368-9.552,25.572-17.094c3.186-3.872,5.521-8.109,8.034-12.27c-2.133,3.533,0.669,7.671,2.042,10.902
		C104.116,89.415,105.239,93.529,104.595,97.052z"/>
	<path opacity="0.61" fill="#5C5F67" d="M82.718,204.259c-18.798-0.658-56.589,7.37-63.463-12.648
		c-2.925-8.52-1.787-16.386,0.051-24.663c1.058,3.413,2.456,6.744,4.443,9.903c1.238,1.957,2.668,3.78,4.264,5.477
		c4.163,5.846,10.313,10.483,18.928,12.969c0.99,0.433,2.023,0.834,3.112,1.2c5.462,1.832,11.439,1.698,17.27,1.982
		c7.297,0.35,14.516,1.528,21.81,2.023c3.808,0.259,29.632,2.032,36.362-2.923C134.67,210.392,88.167,204.447,82.718,204.259z"/>
	<path fill="#484D57" d="M118.117,198.669c-0.964-0.95-2.318-1.689-3.337-2.512c0.698,0,2.733,0.256,3.393,0.526
		c1.053,0.433,1.886,1.11,2.54,1.861c0.444,0.511,0.854,1.323,1.093,2.185c0.334,1.182,0.357,2.457-0.229,3.211
		c0.24-0.305-1.086-2.07-1.275-2.483C119.81,200.375,119.034,199.569,118.117,198.669z"/>
	<path fill="#484D57" d="M108.991,199.301c-0.964-0.948-2.319-1.684-3.341-2.515c0.593,0,2.738,0.261,3.399,0.529
		c1.047,0.435,1.875,1.112,2.536,1.865c0.45,0.51,0.854,1.32,1.095,2.183c0.332,1.181,0.355,2.457-0.222,3.211
		c0.227-0.305-1.099-2.07-1.284-2.485C110.683,201.01,109.906,200.205,108.991,199.301z"/>
	<path opacity="0.54" fill="#5C5F67" d="M161.015,73.308c7.247,4.379,11.173,11.146,13.309,17.846
		c1.103,3.427,1.314,6.74,1.615,10.157c0.327,3.676,2.709,6.84,3.182,10.479c-0.022-0.194-2.854,0.183-3.122,0.247
		c0.059,12.918-20.63,26.164-33.435,32.399c-1.823,0.887-3.685,1.716-5.575,2.518c-5.886,2.494-12.532,3.872-18.199,6.705
		c-8.053,4.027-4.295,6.563-3.762,12.78c0.332,3.86-0.488,7.245-2.104,10.719c-1.373,2.976-3.8,5.479-6.657,7.77
		c-1.724,0.42-3.449,0.814-5.19,1.158c6.88-6.864,6.065-16.498,4.01-25.533c-0.731-3.239-2.572-7.015-3.309-10.65
		c2.344-4.132,6.411-7.975,10.064-10.345c4.847-3.138,9.91-6.192,14.245-9.752c4.394-3.599,7.804-7.586,11.352-11.675
		c6.427-7.422,13.449-15.371,14.139-24.539c0.089-1.159,0.133-2.361,0.129-3.575c0.892-7.912-1.4-15.407-5.282-22.642
		C151.651,68.695,156.57,70.624,161.015,73.308z"/>
	<path fill="#5C5F67" d="M155.773,70.581c1.815,0.809,3.561,1.714,5.242,2.727c7.247,4.379,11.173,11.146,13.309,17.846
		c1.103,3.427,1.314,6.74,1.615,10.157c0.327,3.676,2.709,6.84,3.182,10.479c-0.022-0.194-2.854,0.183-3.122,0.247
		c0.059,12.918-20.63,26.164-33.435,32.399c-1.823,0.887-3.685,1.716-5.575,2.518c-5.886,2.494-12.532,3.872-18.199,6.705
		c-8.053,4.027-4.295,6.563-3.762,12.78c0.151,1.78,0.047,3.461-0.255,5.1c-0.688-0.903-1.483-1.831-2.299-2.775
		c-0.48-0.782-1.018-1.548-1.625-2.289c-0.236-0.287-0.53-0.481-0.847-0.622c-2.097-2.583-3.882-5.28-4.052-8
		c-0.035-0.564,0.023-1.09,0.126-1.601c1.275-1.902,2.722-3.736,4.367-5.415c0.509-0.022,1.029-0.166,1.504-0.491
		c9.938-6.801,19.377-14.122,27.571-22.178c7.145-7.028,14.482-14.641,18.109-23.198c3.469-8.165,3.005-16.078,1.127-24.425
		C158.006,77.183,157.101,73.819,155.773,70.581z"/>
	<path fill="#6E7076" d="M109.935,84.953c3.454-5.896,8.576-6.812,15.96-4.326c9.887,3.325,17.651,7.713,25.137,13.735
		c10.36,8.325,17.721,22.878,12.07,33.898c-3.141,6.123-6.124,12.323-7.597,18.82c-2.148,9.514-5.801,18.284-5.801,27.986
		c0,5.553-0.78,11.588,0,17.063c0.501,3.539,2.037,2.793,4.951,5.082c5.173,4.057,3.351,9.116-3.547,8.013
		c-0.735-0.12-1.521-0.307-2.373-0.571c-3.448,4.472-19.229,0.078-21.893-3.389c-4.112-5.335-0.244-13.047,0.135-18.74
		c1.158-17.246,5.862-40.986-1.831-57.521C119.212,112.234,101.751,98.908,109.935,84.953z"/>
	<path opacity="0.66" fill="#868789" d="M154.656,197.213c2.19,1.719,3.118,3.616,2.941,5.151c-2.11-2.019-5.215-3.778-7.743-5.623
		c-10.029-7.349-3.24-22.737-1.363-31.656c1.291-6.109,2.061-12.386,3.845-18.424c1.465-4.965,4.066-9.577,6.766-14.214
		c2.338-4.018,4.556-8.04,5.946-12.158c-0.051,2.769-0.66,5.458-1.945,7.972c-3.141,6.123-6.124,12.323-7.597,18.82
		c-2.148,9.514-5.801,18.284-5.801,27.986c0,5.553-0.78,11.588,0,17.063C150.206,195.67,151.742,194.924,154.656,197.213z"/>
	<path fill="#5C5F67" d="M148.667,201.733c2.976-0.352,6.234-0.026,8.83-0.693c0.716,2.762-1.615,4.946-6.389,4.186
		c-0.735-0.12-1.521-0.307-2.373-0.571c-3.448,4.472-19.229,0.078-21.893-3.389c-4.112-5.335-0.244-13.047,0.135-18.74
		c1.096-16.326,4.927-36.028-1.19-52.11c-0.174-1.798-0.379-3.602-0.641-5.411c2.482,3.636,5.71,9.905,6.836,14.075
		c2.649,9.845,1.677,19.954,1.377,29.989c-0.122,0.222-0.199,0.477-0.205,0.769c-0.016,0.78-0.032,1.557-0.05,2.331
		c-0.487,3.354-0.829,6.73-0.924,10.034C131.946,190.474,134.189,203.433,148.667,201.733z"/>
	<path fill="#3B2F2E" d="M195.737,12.863c2.475-1.159,4.822-0.244,6.174,1.531c1.337,1.741,0.895,3.778,0.64,5.696
		c-0.204,1.534-0.325,3.07-0.532,4.598c-0.443,3.413-0.99,7.164-5.645,8.726c-1.786,0.595-3.424,1.09-5.119,1.877
		c-2.295,1.071-5.017,2.144-7.781,1.493c-3.856-0.916-2.196-6.527-1.627-8.485C183.659,22.054,188.559,16.225,195.737,12.863z"/>
	<path fill="#1B1212" d="M183.473,36.785c-3.856-0.916-2.196-6.527-1.627-8.485c1.813-6.246,6.713-12.075,13.891-15.437
		c2.475-1.159,4.822-0.244,6.174,1.531c1.337,1.741,0.895,3.778,0.64,5.696c-0.055,0.375-0.085,0.752-0.127,1.126
		c-3.115-0.529-6.292,1.37-8.45,3.382c-3.608,3.375-6.018,7.328-5.042,11.655C187.208,36.863,185.352,37.229,183.473,36.785z"/>
	<path fill="#6E7076" d="M104.095,65.834c5.784-11.058,10.739-24.332,22.665-32.441c3.633-2.471,15.557-10.716,18.677-12.554
		c3.118-1.829,7.887-3.198,11.947-3.33c3.844-0.122,6.94,0.771,10.7-0.406c3.877-1.21,10.056-5.747,15.94-8.88
		c3.646-1.938,6.68-3.438,11.285-3.305c2.403,0.07,4.136,1.563,5.26,3.104c1.136,1.575,1.949,3.534,2.399,5.29
		c0.209,0.792,0.944,4.534-0.275,4.788c-1.793,0.365-2.054-3.954-3.525-3.521c-0.895,0.27-0.882,2.376-1.34,3.021
		c-0.781,1.07-2.164,1.845-3.241,2.73c-1.65,1.355-3.097,2.875-4.594,4.356c-1.553,1.527-2.53,2.966-2.786,4.886
		c-0.108,0.847-0.53,1.875,0.729,2.127c0.973,0.191,2.088-0.493,2.923-0.772c1.613-0.536,3.092-1.167,4.604-1.817
		c3.096-1.319,6.706-2.579,10.291-2.723c4.221-0.158,4.502,3.373,4.152,5.761c-0.199,1.389-0.313,2.826-1.209,4.043
		c-1.365,1.863-3.613,3.36-5.36,5.006c-1.363,1.286-2.972,2.448-4.268,3.785c-7.478,7.713-5.921,14.981-5.068,24.077
		c-1.256-0.402-2.147-0.936-3.593-1.047c-0.118,1.726,0.92,5.523-2.678,4.244c-2.135,4.722-0.804,9.434-1.146,14.669
		c-0.789-0.428-3.268-1.975-4.426-1.345c-1.216,0.657,0.008,3.493-1.084,4.524c-3.332-2.401-2.418,2.588-2.886,3.933
		c-1.213,3.468-5.913,5.686-6.357,9.802c-1.804-0.884-5.789-6.753-7.553-5.524c-1.714,1.194,1.776,6.323,1.764,7.752
		c-6.688-1.661-16.688-7.274-18.355-12.854c-4.564,1.2-0.414,9.833-0.96,12.823c-5.869,0.576-10.54-3.963-13.101-7.325
		c-0.919-1.206-2.26-4.343-4.223-4.45c-3.66-0.2-4.695,4.978-7.284,5.895c-1.63-2.063-2.759-4.903-2.95-7.3
		c-5.527-0.754-8.157,4.893-13.393,3.95c-0.099-2.651,3.416-4.227,2.751-6.904c-6.062,0.237-12.985-1.59-18.722-2.71
		c-0.034-0.189,0.016-0.371,0.156-0.526c2.323-0.075,7.048-5.013,7.453-7.096c-2.017-0.509-4.093-1.017-5.698-1.799
		C96.842,75.468,101.963,69.904,104.095,65.834z"/>
	<path fill="#91949B" d="M154.05,41.747c2.675-3.473,6.405-6.31,9.525-9.533c3.93-4.075,6.186-8.262,7.247-13.269
		c0.227-1.091,0.394-2.19,0.543-3.293c3.651-1.931,8.232-5.073,12.659-7.428c3.646-1.938,6.68-3.438,11.285-3.305
		c2.403,0.07,4.136,1.563,5.26,3.104c1.136,1.575,1.949,3.534,2.399,5.29c0.209,0.792,0.944,4.534-0.275,4.788
		c-1.793,0.365-2.054-3.954-3.525-3.521c-0.895,0.27-0.882,2.376-1.34,3.021c-0.781,1.07-2.164,1.845-3.241,2.73
		c-1.65,1.355-3.097,2.875-4.594,4.356c-1.553,1.527-2.53,2.966-2.786,4.886c-0.108,0.847-0.53,1.875,0.729,2.127
		c0.973,0.191,2.088-0.493,2.923-0.772c1.613-0.536,3.092-1.167,4.604-1.817c3.096-1.319,6.706-2.579,10.291-2.723
		c4.221-0.158,4.502,3.373,4.152,5.761c-0.199,1.389-0.313,2.826-1.209,4.043c-1.365,1.863-3.613,3.36-5.36,5.006
		c-1.363,1.286-2.972,2.448-4.268,3.785c-7.478,7.713-5.921,14.981-5.068,24.077c-1.256-0.402-2.147-0.936-3.593-1.047
		c-0.118,1.726,0.92,5.523-2.678,4.244c-2.135,4.722-0.804,9.434-1.146,14.669c-0.789-0.428-3.268-1.975-4.426-1.345
		c-1.216,0.657,0.008,3.493-1.084,4.524c-3.332-2.401-2.418,2.588-2.886,3.933c-1.213,3.468-5.913,5.686-6.357,9.802
		c-1.407-0.688-4.117-4.373-6.084-5.412c0.959-4.079,1.432-8.224,1.326-12.4c-0.29-10.717-7.473-18.549-12.396-28.174
		C152.024,52.66,150.105,46.886,154.05,41.747z"/>
	<path fill="#A5A8AD" d="M158.525,42.634c-0.019,0.005-0.032,0.007-0.054,0.015c-0.174-4.805,7.64-9.742,11.459-12.758
		c5.45-4.311,7.825-9.487,10.559-14.978c0.073-0.151,0.125-0.295,0.146-0.439c3.196-4.221,6.87-7.938,12.969-8.728
		c0.805-0.103,1.307-0.42,1.568-0.827c0.05,0,0.091-0.001,0.138,0c2.403,0.07,4.136,1.563,5.26,3.104
		c1.136,1.575,1.949,3.534,2.399,5.29c0.209,0.792,0.944,4.534-0.275,4.788c-1.793,0.365-2.054-3.954-3.525-3.521
		c-0.895,0.27-0.882,2.376-1.34,3.021c-0.781,1.07-2.164,1.845-3.241,2.73c-1.65,1.355-3.097,2.875-4.594,4.356
		c-1.553,1.527-2.53,2.966-2.786,4.886c-0.108,0.847-0.53,1.875,0.729,2.127c0.973,0.191,2.088-0.493,2.923-0.772
		c1.613-0.536,3.092-1.167,4.604-1.817c3.096-1.319,6.706-2.579,10.291-2.723c3.556-0.134,4.315,2.355,4.256,4.564
		c-5.055,5.729-14.396,6.806-21.475,11.724c-4.569,3.176-7.77,7.296-8.913,11.972c-0.454,1.871-0.827,3.725-0.796,5.632
		c0.026,2.036,0.881,4.062-2.664,3.321c-1.297-0.269-2.684,0.326-3.031,1.315c-1.333,3.761-1.333,7.558-1.242,11.378
		c-0.547-0.646-1.096-1.285-1.675-1.909c-0.84-0.915-2.274-1.18-3.466-0.611c-0.046-0.032-0.097-0.069-0.155-0.109
		c-0.29-0.36-0.56-0.734-0.791-1.123c-0.591-1.037-1.068-2.121-1.469-3.208c-0.732-1.98-1.357-3.979-1.903-5.997
		c-1.68-6.188-1.87-12.63-0.783-18.884C161.85,43.296,159.907,42.215,158.525,42.634z"/>
	<path opacity="0.46" fill="#C8CACB" d="M191.881,9.075c1.211,2.327-0.167,6.88-2.494,8.659c-2.146,1.642-4.216,1.949-5.848,1.465
		c-3.151-0.928-4.726-4.791-2.346-7.698C182.978,9.326,189.713,4.946,191.881,9.075z"/>
	<path opacity="0.37" fill="#A5A8AD" d="M195.31,4.919c1.083,0.032,2.018,0.362,2.832,0.839c-0.878-0.516-4.601,0.531-5.541,0.784
		c-1.757,0.475-3.396,1.151-4.93,1.951c-3.208,1.672-5.881,3.876-8.313,6.167c-2.811,2.664-6.552,5.624-10.527,7.292
		c-3.086,1.294-5.359,0.285-8.355-0.598c-4.119-1.21-7.479-0.474-11.274,1.24c-1.592,0.725-20.509,9.607-24.497,12.311
		c0.663-0.518,1.34-1.031,2.057-1.513c3.633-2.471,15.557-10.716,18.677-12.554c3.118-1.829,7.887-3.198,11.947-3.33
		c3.844-0.122,6.94,0.771,10.7-0.406c3.877-1.21,10.056-5.747,15.94-8.88C187.671,6.286,190.705,4.785,195.31,4.919z"/>
	<path fill="#5C5F67" d="M187.936,31.699c0.973,0.191,2.088-0.493,2.923-0.772c0.051-0.013,0.092-0.035,0.142-0.052
		c-1.192,1.192-3.368,4.063-5.592,3.088c-3.765-1.645-2.214-5.515-0.469-8.676c3.988-4.326,9.33-7.542,8.974-13.465
		c-0.155-2.47-1.419-4.647-3.381-6.387c1.445-0.37,2.991-0.572,4.777-0.517c2.403,0.07,4.136,1.563,5.26,3.104
		c1.136,1.575,1.949,3.534,2.399,5.29c0.209,0.792,0.944,4.534-0.275,4.788c-1.793,0.365-2.054-3.954-3.525-3.521
		c-0.895,0.27-0.882,2.376-1.34,3.021c-0.781,1.07-2.164,1.845-3.241,2.73c-1.65,1.355-3.097,2.875-4.594,4.356
		c-1.553,1.527-2.53,2.966-2.786,4.886C187.099,30.419,186.677,31.447,187.936,31.699z"/>
	<path opacity="0.58" fill="#5C5F67" d="M122.956,86.88c3.143-1.798,5.291-4.017,7.14-6.465c2.021,4.327,4.412,8.531,7.289,12.589
		c0.993,1.402,4.053,1.138,4.515-0.447c1.069-3.703,2.152-7.385,3.629-10.984c0.845,1.006,1.89,1.925,3.205,2.781
		c3.023,1.966,6.427,3.217,8.69,5.822c1.048,1.202,4.17,1.301,4.511-0.453c0.035-0.197,0.099-0.381,0.154-0.563
		c1.867,2.101,3.806,4.127,6.61,5.657c1.417,0.77,3.091-0.099,3.626-1.128c1.246-2.407,2.251-5.603,1.997-8.206
		c-0.241-2.456-0.979-4.646-0.776-7.194c2.217,0.595,3.525,1.752,3.863-0.521c0.408-2.798-1.67-6.247,0.211-8.834
		c1.006,0.538,1.934,1.696,3.013,0.615c1.077-1.08,1.145-3.271,1.725-4.553c1.415-0.236,2.143,0.541,3.416,0.575
		c-0.177-2.31-0.546-4.603-0.9-6.889c0.428-0.214,0.78-0.533,0.989-0.979c3.393-7.307,4.447-14.653,13.848-19.09
		c4.196-1.984,8.142-3.974,10.247-6.935c-0.013,0.158-0.032,0.315-0.05,0.469c-0.199,1.389-0.313,2.826-1.209,4.043
		c-1.365,1.863-3.613,3.36-5.36,5.006c-1.363,1.286-2.972,2.448-4.268,3.785c-7.478,7.713-5.921,14.981-5.068,24.077
		c-1.256-0.402-2.147-0.936-3.593-1.047c-0.118,1.726,0.92,5.523-2.678,4.244c-2.135,4.722-0.804,9.434-1.146,14.669
		c-0.789-0.428-3.268-1.975-4.426-1.345c-1.216,0.657,0.008,3.493-1.084,4.524c-3.332-2.401-2.418,2.588-2.886,3.933
		c-1.213,3.468-5.913,5.686-6.357,9.802c-1.804-0.884-5.789-6.753-7.553-5.524c-1.714,1.194,1.776,6.323,1.764,7.752
		c-6.688-1.661-16.688-7.274-18.355-12.854c-4.564,1.2-0.414,9.833-0.96,12.823c-5.869,0.576-10.54-3.963-13.101-7.325
		c-0.919-1.206-2.26-4.343-4.223-4.45c-3.66-0.2-4.695,4.978-7.284,5.895c-1.63-2.063-2.759-4.903-2.95-7.3
		c-5.527-0.754-8.157,4.893-13.393,3.95c-0.099-2.651,3.416-4.227,2.751-6.904c-6.062,0.237-12.985-1.59-18.722-2.71
		c-0.034-0.189,0.016-0.371,0.156-0.526c2.323-0.075,7.048-5.013,7.453-7.096c-2.017-0.509-4.093-1.017-5.698-1.799
		c3.172-1.428,6.353-4.108,8.815-6.906c1.727-0.269,3.444-0.659,5.147-1.197c-0.388,3.261-1.554,6.752-5.257,8.291
		c-2.266,0.938-1.096,3.418,1.247,3.512c7.099,0.287,13.221-1.512,18.577-4.674c0.358,2.628-0.385,5.272-0.924,7.954
		C119.041,86.154,120.994,88.007,122.956,86.88z"/>
	<path opacity="0.48" fill="#5C5F67" d="M114.942,91.604c2.135-0.313,4.176-0.83,6.226-1.343c0.122,0.596,0.233,1.193,0.299,1.797
		c0.152,1.472,2.691,2.701,4.215,1.333c1.229-1.114,2.488-2.201,3.735-3.298c1.617,3.792,4.366,7.358,8.353,10.66
		c1.025,0.846,3.207,0.7,3.882-0.376c2.789-4.471,3.027-9.501,4.937-14.163c2.444,5.808,5.826,11.594,12.465,14.269
		c1.676,0.679,3.645-0.165,3.708-1.627c0.079-1.655,0.382-3.198,0.886-4.72c1.562,1.413,2.912,2.958,4.55,4.358
		c1.103,0.928,3.076,0.595,3.88-0.389c4.76-5.791,6.095-12.029,6.381-18.444c0.501,0.68,1.023,1.353,1.597,2.006
		c1.41,1.606,4.41,0.936,4.606-0.947c0.331-3.282-0.133-6.539-0.469-9.803c1.745,0.799,4.505-0.24,3.718-2.035
		c-0.26-0.584-0.427-1.173-0.545-1.772c1.286,0.338,2.853,0.045,3.14-1.185c0.841-3.59,0.561-7.126,0.789-10.741
		c0.286-4.707,2.131-7.731,6.441-11.119c4.695-3.687,9.115-7.202,11.728-11.781c0.164-0.2,0.346-0.394,0.495-0.604
		c-0.013,0.158-0.032,0.315-0.05,0.469c-0.199,1.389-0.313,2.826-1.209,4.043c-1.365,1.863-3.613,3.36-5.36,5.006
		c-1.363,1.286-2.972,2.448-4.268,3.785c-7.478,7.713-5.921,14.981-5.068,24.077c-1.256-0.402-2.147-0.936-3.593-1.047
		c-0.118,1.726,0.92,5.523-2.678,4.244c-2.135,4.722-0.804,9.434-1.146,14.669c-0.789-0.428-3.268-1.975-4.426-1.345
		c-1.216,0.657,0.008,3.493-1.084,4.524c-3.332-2.401-2.418,2.588-2.886,3.933c-1.213,3.468-5.913,5.686-6.357,9.802
		c-1.804-0.884-5.789-6.753-7.553-5.524c-1.714,1.194,1.776,6.323,1.764,7.752c-6.688-1.661-16.688-7.274-18.355-12.854
		c-4.564,1.2-0.414,9.833-0.96,12.823c-5.869,0.576-10.54-3.963-13.101-7.325c-0.919-1.206-2.26-4.343-4.223-4.45
		c-3.66-0.2-4.695,4.978-7.284,5.895c-1.63-2.063-2.759-4.903-2.95-7.3c-5.527-0.754-8.157,4.893-13.393,3.95
		c-0.099-2.651,3.416-4.227,2.751-6.904c-6.062,0.237-12.985-1.59-18.722-2.71c-0.034-0.189,0.016-0.371,0.156-0.526
		c2.323-0.075,7.048-5.013,7.453-7.096c-2.017-0.509-4.093-1.017-5.698-1.799c1.336-0.601,2.666-1.428,3.945-2.386
		c0.337,0.697,1.199,1.237,2.295,1.271c0.723,0.016,1.358,0.016,1.957-0.009c-0.599,2.292-1.789,4.419-3.349,6.521
		c-0.692,0.94-0.238,1.999,0.892,2.577c5.066,2.62,10.433,0.688,15.776,0.93c-0.484,0.846-0.919,1.719-1.327,2.612
		C111.233,90.749,113.24,91.854,114.942,91.604z"/>
	<path fill="#2B1010" d="M155.838,30.045c1.282,0.457,2.909,0.294,4.213-0.238c1.318-0.538,2.391-1.41,3.045-2.454
		c0.647-1.027,0.906-2.317,0.273-3.485c-0.299-0.574-0.868-1.057-1.505-1.368c-0.654-0.3-1.366-0.447-2.067-0.436
		c1.109,0.658,1.796,1.415,1.899,2.196c0.137,0.781-0.139,1.596-0.612,2.364c-0.478,0.768-1.159,1.486-2.015,2.081
		C158.22,29.309,157.183,29.777,155.838,30.045z"/>
	<g>
		<path fill="#B65755" d="M127.021,57.323c-3.055,2.703-7.489,4.679-12.735,5.536c-6.552,1.066-18.45,3.595-24.858,1.438
			c-7.669-2.578,5.386-8.204,8.531-9.711c6.856-3.285,13.66-7.044,18.932-11.836c2.474-2.246,6.347-4.798,9.51-3.903
			c1.401,3.256-1.934,8.906-1.518,12.068C125.175,53.11,125.983,55.24,127.021,57.323z"/>
		<path fill="#A63838" d="M89.427,64.298c-7.669-2.578,5.386-8.204,8.531-9.711c6.856-3.285,13.66-7.044,18.932-11.836
			c2.474-2.246,6.347-4.798,9.51-3.903c1.324,3.07-1.57,8.266-1.552,11.495c-7.236-0.704-18.153,6.105-22.182,9.308
			c-2.104,1.674-2.665,3.559-2.144,5.263C96.367,65.287,92.33,65.278,89.427,64.298z"/>
		<path fill="#868789" d="M111.668,60.8c7.046-0.806,12.894-2.409,15.262-3.657c0.033,0.055,0.059,0.112,0.081,0.166
			c-3.054,2.707-7.472,4.689-12.726,5.551c-6.552,1.066-18.45,3.595-24.858,1.438c-7.669-2.578,5.386-8.204,8.531-9.711
			c6.856-3.285,13.66-7.044,18.932-11.836c2.417-2.196,6.168-4.685,9.291-3.962c-0.67-0.157-0.059,4.083-13.628,12.143
			c-6.374,3.786-17.959,6.672-17.348,9.328C95.916,63.318,107.66,61.26,111.668,60.8z"/>
	</g>
	<g>
		<path fill="#2B1010" d="M200.097,6.915c-0.096,4.943-4.134,5.489-7.289,3.598c-1.313-0.784-2.48-1.996-3.145-3.496
			C185.968-1.333,200.269-2.656,200.097,6.915z"/>
		<path fill="#FFFFFF" d="M194.865,3.838c-1.261-0.169-3.11-1.215-1.897-2.312C194.555,0.09,198.991,4.388,194.865,3.838z"/>
	</g>
	<g>
		<path fill="#797C80" d="M108.458,214.912c-0.736,8.697-14.085,8.501-22.041,10.8c1.505,1.058,0.724,1.577,1.493,2.64
			c-9.756,0.456-19.879,0.326-29.444-0.581c-9.611-0.914-21.344-2.24-31.603-5.31c-7.072-2.116-13.446-5.067-17.928-9.289
			c-7.333-6.899-12.69-11.815-5.622-20.361c2.52-3.051,9.174-8.605,14.573-8.309c3.906,0.22,9.367,5.337,12.641,6.941
			c4.716,2.319,9.599,4.848,14.765,6.69c6.023,2.144,12.361,3.679,18.781,4.954c5.233,1.04,11.638,0.511,16.482,2.257
			c0.962,0.352,2.68,0.166,3.609,0.747c1.057,0.653-0.028,1.756,1.019,2.417c4.043,2.56,6.998,2.044,12.576,2.211
			c-0.46,0.552-0.344,1.499-1.139,2.223C95.448,214.009,107.757,214.779,108.458,214.912z"/>
		<path fill="#6E7076" d="M108.458,214.912c-0.736,8.697-14.085,8.501-22.041,10.8c1.505,1.058,0.724,1.577,1.493,2.64
			c-9.756,0.456-19.879,0.326-29.444-0.581c-9.611-0.914-21.344-2.24-31.603-5.31c-7.072-2.116-13.446-5.067-17.928-9.289
			c-5.91-5.563-10.539-9.839-8.402-15.763c0.707,2.468,2.256,4.895,4.535,7.17c7.711,7.666,21.569,11.596,33.082,14.713
			c6.539,1.773,13.544,4.018,20.398,4.938c4.066,0.552,7.313,0.428,10.58-1.234c8.22,0.968,16.976,0.626,23.848-3.094
			c2.245-1.219,3.674-3.018,2.235-4.997c-0.613-0.836-1.811-1.328-3.203-1.641c1.112-0.782,2.073-1.646,2.819-2.592
			c0.901,0.008,1.868,0.019,2.932,0.047c-0.46,0.552-0.344,1.499-1.139,2.223C95.448,214.009,107.757,214.779,108.458,214.912z"/>
		<path fill="#868789" d="M15.443,200.374c-2.071-2.068-3.813-4.418-4.582-6.976c-0.173-0.571-1.7-5.755-1.59-5.828
			c2.718-1.813,5.832-3.22,8.616-3.068c3.906,0.22,9.367,5.337,12.641,6.941c4.716,2.319,9.599,4.848,14.765,6.69
			c6.023,2.144,12.361,3.679,18.781,4.954c5.233,1.04,11.638,0.511,16.482,2.257c0.962,0.352,2.68,0.166,3.609,0.747
			c1.057,0.653-0.028,1.756,1.019,2.417c1.193,0.755,2.29,1.236,3.39,1.557c-4.321,1.091-9.244,2.544-13.773,2.661
			c-2.538,0.069-11.346-0.607-12.535-2.804c0.946,1.748,2.416,4.122,3.831,5.689c-5.184-0.604-10.926-2.585-15.822-4.122
			c-7.731-2.423-15.416-4.413-19.489-10.335c1.101,2.284,0.951,5.59,1.26,8.037C25.489,207.979,19.484,204.406,15.443,200.374z"/>
	</g>
	<path fill="#484D57" d="M153.191,205.323c-1.454,0.185-3.871-0.756-4.092-1.931c-0.207-1.104,0.21-1.635-0.725-2.682
		c-0.264-0.294-2.578-2.425-2.87-2.358c2.72-0.611,4.633,1.036,5.229,2.937c0.245,0.797-0.313,1.784,0.04,2.54
		C151.067,204.463,152.509,205.063,153.191,205.323z"/>
	<path fill="#484D57" d="M139.369,198.621c0.192,0.378,1.901,1.046,2.34,1.476c0.677,0.666,1.174,1.455,1.396,2.282
		c0.354,1.268-0.086,3.043-2.105,3.382c0.642-0.105,0.179-2.986,0.083-3.382C140.768,201.052,140.01,199.877,139.369,198.621z"/>
	<path opacity="0.47" fill="#868789" d="M124.316,196.209c-5.813-2.399-18.716-2.99-28.77-2.82
		c-10.757,0.179-24.867,3.25-30.424,2.43c-5.559-0.824-3.296-3.623-0.263-5.681c10.365-7.024,22.843-14.11,21.349-26.026
		c-1.259-10.079-13.86-14.336-23.897-18.97c-0.94-1-1.79-1.472-0.581-1.666c2.523-0.399,5.15-0.409,7.716-0.418
		c7.239-0.021,14.19,0.454,20.75,3.028c8.932,3.512,16.202,8.785,23.558,13.94c0.222,1.731,1.046,3.727,1.274,6.412
		c0.332,3.86-0.488,7.245-2.104,10.719c-2.778,6.003-9.828,10.095-16.067,14.37C105.251,193.091,118.471,190.607,124.316,196.209z"
		/>
	<path fill="#868789" d="M73.154,146.17c-4.253-0.577-19.756,0.155-10.03-4.688c6.358-3.176,16.594-1.341,23.346,0.001
		c10.616,2.111,15.895,5.768,23.084,11.529c0.515,0.414,1.01,0.82,1.498,1.226c0.405,0.536,0.79,1.075,1.128,1.626
		c0.599,1.372,1.158,2.752,1.565,4.163c0.224,1.731,1.055,3.729,1.283,6.412c0.332,3.86-0.488,7.245-2.104,10.719
		c-2.611,5.646-9.011,9.604-14.951,13.61c-0.788,0.138-1.595,0.246-2.423,0.321c-5.943,0.551-11.876,0.626-17.639,1.735
		c9.23-2.147,19.714-8.621,23.135-15.614c0.569-1.151,0.971-2.307,1.233-3.451C105.217,160.725,89.377,148.384,73.154,146.17z"/>
	<path fill="#868789" d="M159.607,106.832c0.396,0.272,1.085,0.864,1.89,1.496c1.541,1.199,3.5,2.508,4.619,1.896
		c0.408-0.227,0.76-1.965,0.918-2.371c0.415-0.968,0.597-2.008,0.9-2.982c-0.013,2.59,0.969,4.908,2.396,7.233
		c0.658,1.067,1.469,2.071,2.431,2.992c0.582,0.562,2.544,2.643,3.506,2.68c-4.713-0.193-9.556-3.052-12.522-5.568
		c0.392,2.921,0.56,6.249,0.273,9.349c-1.075-0.752-2.033-1.906-2.993-2.715c-2.192,4.148-3.827,8.354-7.087,12.136
		c-2.081-3.396-1.396-8.91-4.438-12.032c-1.172,2.604-6.108,7.943-9.976,7.771c-0.278-4.08,0.149-7.759-1.51-11.689
		c-3.662,0.274-3.584,5.4-8.973,4.772c-1.591-3.804-0.842-14.116-6.124-15.018c-1.699-0.291-6.706,1.108-8.939,1.134
		c-3.266,0.024-6.064-0.735-9.164-0.773c4.514-1.808,7.105-5.853,9.444-9.235c0.242,2.487,0.015,4.777,1.09,7.166
		c2.382,0.088,5.487,0.375,7.708-0.291c3.002-0.897,2.467-2.7,5.349-1.053c3.054,1.744,4.923,8.103,6.501,10.683
		c0.579-1.473,0.54-3.027,1.817-4.098c2.604,1.676,4.057,4.589,6.882,5.935c1.337-7.391,5.282,0.341,8.637,2.845
		c3.164-1.683,2.847-7.894,1.893-10.448c0.263,0.697,2.255,1.938,2.896,2.595c1.017,1.022,2.149,1.981,2.935,3.121
		C160.146,110.501,159.489,108.649,159.607,106.832z"/>
</g>
</svg>
