<?xml version="1.0" encoding="utf-8"?>
<!-- Generator: Adobe Illustrator 15.0.0, SVG Export Plug-In . SVG Version: 6.00 Build 0)  -->
<!DOCTYPE svg PUBLIC "-//W3C//DTD SVG 1.1//EN" "http://www.w3.org/Graphics/SVG/1.1/DTD/svg11.dtd">
<svg version="1.1" id="Layer_1" xmlns="http://www.w3.org/2000/svg" xmlns:xlink="http://www.w3.org/1999/xlink" x="0px" y="0px"
	 width="115.931px" height="91.786px" viewBox="0 0 115.931 91.786" enable-background="new 0 0 115.931 91.786"
	 xml:space="preserve">
<g>
	<path fill="#838989" d="M37.97,67.368c-1.641,2.079-3.274,11.655-1.813,15.852c1.082,3.104,9.522,4.479,9.124-0.831
		c-0.18-2.393-3.668-1.683-2.774-5.633c0.588-2.37,2.723-6.105,5.209-7.025c6.418-2.378,10.738-5.562,15.099-10.49
		c2.881-3.131,3.79-5.854,6.792-6.589c-0.892-1.457-1.923-2.763-3.352-3.638c-3.66-2.24-7.831-3.598-12.1-2.345
		c-1.765,0.517-5.266,1.459-4.513,3.769c0.506,1.553,0.07,2.799-0.81,3.625c0.085,0.66,0.092,1.543-0.001,2.711
		C48.384,64.183,41.253,63.21,37.97,67.368z"/>
	<path fill="#838989" d="M85.276,52.97c0.074,0.025-0.323,6.884-0.323,6.884C83.8,64.55,83.91,75.451,85.031,80.456
		c0.779,3.489,0.676,6.657,3.525,7.631c3.059,1.044,7.51,1.363,7.866-0.561c0.447-2.407-3.202-4.497-3.202-4.497
		c-2.627-9.676-0.873-24.377,2.233-31.064C91.188,50.107,86.498,50.677,85.276,52.97z"/>
	<path fill="#838989" d="M87.73,18.061c4.641-0.406,4.506-5.528,1.25-5.943c-3.25-1.207-7.989-0.16-10.603,1.762
		C79.757,16.782,84.664,18.489,87.73,18.061z"/>
	<path fill="#B6B7B7" d="M81.284,27.58c-0.017-0.021-0.039-0.04-0.057-0.06c-6.995,4.842-17.98,4.505-26.06,4.045
		c-12.452-0.515-19.098,2.648-25.829,13.163c-3.29,5.136-9.469,10.166-15.371,12.084C10.329,57.997,4.166,57.983,0,56.702
		c0.733,1.932,3.334,7.99,9.386,7.17c-0.044,0.527-0.649,0.917-0.959,1.424c1.606-0.132,3.137-0.238,4.567-1.447
		c-0.33,0.771,1.009,2.007,0.438,2.49c1.648-1.298,2.045-0.518,3.994-2.967c0,0-0.698,1.466,0.246,2.874
		c0.308-0.504,4.42-2.935,4.971-3.155c0.22,0.551-0.477,1.744-0.89,3.325c1.912-0.973,4.371-3.367,4.966-4.113
		c0.206,1.018-0.909,2.445-0.667,2.731c2.421-1.396,6.501-3.724,8.416-9.925c0,0-0.201,2.602-0.64,5.768
		c-0.886,7.367-7.946,5.978-11.468,9.936c-1.763,1.978-2.561,11.482-2.519,14.144c0.084,5.324,9.014,6.606,8.93,1.282
		c-0.063-2.397-3.562-1.896-2.438-5.788c0.727-2.332,3.08-5.934,5.615-6.707c6.547-1.994,11.046-4.919,15.691-9.579
		c4.051-3.914,4.603-7.321,10.871-5.998c4.442,0.906,8.248,3.086,12.711,3.727c5.501,0.995,7.375,1.72,7.375,1.72
		c-1.156,4.694-2.775,16.45-2.987,19.776c-0.229,3.566-0.115,6.591,2.735,7.563c3.057,1.043,7.51,1.365,7.867-0.562
		c0.446-2.405-3.204-4.495-3.204-4.495c1.194-7.875,3.325-20.34,8.654-26.805c1.41-1.721,3.002-3.279,4.582-4.859
		c0.02,0.139,0.037,0.234,0.037,0.234c0.231-0.294,0.481-0.669,0.765-1.039c0.313-0.318,0.62-0.643,0.929-0.967
		c0.077-0.062,0.142-0.134,0.223-0.188c-0.143,0.708,0.067,1.488-0.076,2.196c0.921-0.919,2.199-1.767,3.121-2.686
		c-0.142,0.707-0.286,1.414-0.074,2.195c0.711-1.697,2.059-2.899,2.701-4.242c0.209,0.779,1.409,2.127,1.269,2.834
		c0.356-1.77,0.786-3.892,0.719-5.381c0.99,0.57,1.98,1.139,2.617,1.635c0.43-2.124,0.221-4.745,0.651-6.867
		c-0.144,0.708,0.914,1.256,1.196,1.681c0.433-3.963-1.527-12.797,2.154-12.789c-4.445-7.16-2.738-10.208,0.319-15.336
		c1.49-2.502,4.011-5.299,2.83-6.865c-0.448-0.593-2.498,1.843-2.733,0.442c-0.076-0.453,0.664-1.677,1.287-4.137
		c0.321-1.254-0.232-3.433-1.287-4.884c-4.463,0.202-8.007,6.407-11.761,6.752c-5.415,0.164-11.247,0.813-14.109,7.829
		c-0.044,0.158-0.08,0.296-0.117,0.443c-4.105,0.438-8.63,3.73-10.575,7.004c2.126,1.885,6.019,2.187,9.246,1.479
		C84.549,25.244,82.896,26.354,81.284,27.58z"/>
	<path fill="#A0A7A8" d="M18.938,60.958c-1.915,0.617-2.334,2.331-4.226,2.521c-1.159,0.118-0.236-1.678-1.458-1.919
		c-1.206-0.238-1.637,0.94-5.752,0.57c-2.853-0.258-5.158-2.812-7.18-4.636c1.041,2.413,3.689,7.106,9.063,6.377
		c-0.044,0.527-0.649,0.917-0.959,1.424c1.606-0.132,3.137-0.238,4.567-1.447c-0.33,0.771,1.009,2.007,0.438,2.49
		c1.648-1.298,2.045-0.518,3.994-2.967c0,0-0.698,1.466,0.246,2.874c0.308-0.504,4.42-2.935,4.971-3.155
		c0.22,0.551-0.477,1.744-0.89,3.325c1.912-0.973,4.371-3.367,4.966-4.113c0.206,1.018-0.909,2.445-0.667,2.731
		c2.218-1.278,5.984-3.093,8.278-9.497c0.239-1.229,0.369-4.998,0.575-6.236c-0.436,0.457-1.875,9.383-6.874,12.544
		c-1.433,0.904,0.688-2.339-0.669-1.314c-0.899,0.678-2.165,2.532-3.255,2.363c-0.672,0.464,1.212-2.813,0.535-2.295
		c-0.904,0.689-4.28,3.067-5.261,2.939C18.512,63.423,19.593,61.51,18.938,60.958z"/>
	<path fill="#A0A7A8" d="M28.773,86.236c-0.001-0.074-0.015-0.135-0.024-0.203c-0.347,0.27-0.712,0.524-1.134,0.757
		c-1.034,0.572-2.109,0.543-3.048,0.152c-0.765-0.104-1.545-0.377-2.372-0.871c-0.922-0.551-1.71-1.304-2.336-2.177
		c-0.014,0.413-0.021,0.78-0.016,1.059C19.927,90.277,28.857,91.559,28.773,86.236z"/>
	<path fill="#A0A7A8" d="M108.185,40.942c-0.222,0.669-0.504,4.362-0.815,4.989c-0.39,0.784-1.095,0.022-2.39-0.229
		c-0.859,1.274-3.879,4.966-5.129,5.916c-0.997,0.757-2.043-1.427-2.043-1.427c-2.648,2.847-4.929,5.89-6.595,9.499
		c0.151-0.204,0.297-0.41,0.453-0.6c1.41-1.721,3.002-3.279,4.582-4.859c0.02,0.139,0.037,0.234,0.037,0.234
		c0.231-0.294,0.481-0.669,0.765-1.039c0.313-0.318,0.62-0.643,0.929-0.967c0.077-0.062,0.142-0.134,0.223-0.188
		c-0.143,0.708,0.067,1.488-0.076,2.196c0.921-0.919,2.199-1.767,3.121-2.686c-0.142,0.707-0.286,1.414-0.074,2.195
		c0.711-1.697,2.059-2.899,2.701-4.242c0.209,0.779,1.41,2.127,1.269,2.834c0.356-1.77,0.787-3.892,0.719-5.381
		c0.99,0.57,1.98,1.139,2.617,1.635c0.43-2.124,0.222-4.745,0.651-6.867c-0.144,0.708,0.914,1.256,1.196,1.681
		c0.433-3.963-1.527-12.797,2.154-12.789c-4.444-7.16-2.737-10.208,0.319-15.336c0.104-0.18,0.218-0.359,0.332-0.54
		c-1.425,1.234-2.887,2.371-4.13,3.438c-3.794,3.26-0.005,6.767,0.336,10.771c0.329,3.848-0.958,7.114,0.49,11.103
		C110.168,41.229,108.804,40.526,108.185,40.942z"/>
	<g>
		<path fill="#121313" d="M98.394,16.161c-0.288,0.088-0.052,0.293,0.164,0.229c1.362-0.411,1.605-2.399,0.652-3.338
			c-0.121-0.121-0.544,0.02-0.416,0.146C99.557,13.947,99.598,15.799,98.394,16.161z"/>
	</g>
	<path fill="#121313" d="M112.965,2.351c0.492,0.11,0.419,0.877,1.208,0.764c0.174-0.024,0.032-0.983-0.076-1.354
		c-0.734-2.489-1.998-1.87-3.699-0.983C110.326,2.918,112.153,2.171,112.965,2.351z"/>
	<path fill="#B1B4B5" d="M89.989,15.338c-0.706-0.414-1.585-0.562-2.54-0.291c-4.242,0.19-9.088,3.637-11.117,7.054
		c0.739,0.655,1.691,1.12,2.757,1.417c-0.142-0.943,0.043-1.938,0.66-2.796C81.921,17.694,86.058,15.927,89.989,15.338z"/>
	<path fill="#A0A7A8" d="M89.539,16.379c0.008,0.001,0.012,0.006,0.019,0.007c0.058,0.004,0.121,0.004,0.179,0.009L89.539,16.379z"
		/>
	<path fill="#A0A7A8" d="M89.558,16.385c-2.977-0.174-7.542,1.408-9.129,4.012c1.568,0.331,3.168,0.266,4.57,0.185
		c-0.033,0.396-0.05,0.596-0.083,0.99C87.582,22.988,92.431,17.253,89.558,16.385z"/>
	<path fill="#A0A7A8" d="M80.862,29.019l2.29-0.556c0.173-0.4,0.344-0.807,0.506-1.07C82.799,28.118,81.699,28.557,80.862,29.019z"
		/>
	<path fill="#A0A7A8" d="M76.44,31.04c1.563,0.397,3.167,0.268,4.773,0.137c-1.121,0.703-2.025,1.956-2.906,2.945
		c2.751-1.099,5.699-1.382,8.648-1.667c-2.047,2.222-4.404,4.946-5.198,8.069c1.673-0.922,3.367-2.108,5.282-2.745
		c-0.926,1.518-1.85,3.034-3.04,4.53c1.673-0.924,3.038-1.34,4.709-2.263c-0.199,2.375-0.685,4.992-0.884,7.368
		c1.805-2.506,3.854-4.727,6.669-6.616c-0.351,1.032-0.199,2.375-0.574,3.673c1.719-1.451,2.489-4.312,4.646-4.66
		c-0.375,1.296-0.222,2.639-0.575,3.673c1.52-2.265,2.314-5.388,2.535-8.028c-0.968,2.044-3.236,3.716-5.415,4.329
		c0.044-0.526,0.11-1.318,0.42-1.825c-1.914,0.637-3.39,2.375-5.325,3.273c-0.109-1.87,0.595-3.938,0.466-5.543
		c-1.343,0.153-2.729,0.834-4.116,1.516c-0.107-1.87,1.103-3.629,2.292-5.125c-0.86,0.726-1.718,1.451-2.598,2.44
		c1.211-1.759,2.181-3.804,2.864-5.608c-1.915,0.637-3.586,1.561-5.435,1.405c0.309-0.506,0.64-1.275,1.212-1.759
		c-0.551,0.22-1.628,0.394-2.202,0.878c0.136-0.222,0.278-0.545,0.424-0.881C81.163,29.924,78.762,30.978,76.44,31.04z"/>
	<path fill="#A0A7A8" d="M83.112,28.558c0.064-0.044,0.131-0.085,0.194-0.131l-0.153,0.037
		C83.141,28.496,83.126,28.527,83.112,28.558z"/>
	<path fill="#A0A7A8" d="M94.834,32.588c-0.066,0.792,0.395,1.628,0.329,2.42c1.386-0.683,2.839-2.155,4.249-3.101
		c1.142,2.224,2.283,4.446,2.875,6.889c1.808-2.506,1.876-6.489,1.878-9.679c0.011-0.132,0.017-0.197,0.017-0.197
		s-0.006,0.064-0.017,0.197c0.175,1.079,0.637,1.915,0.813,2.993c0.484-2.617-0.105-5.061-2.063-7.085
		c-0.487,2.618-1.237,5.212-1.962,7.544c0,0,0,0-0.266-0.021c-0.68-1.387-1.361-2.772-2.351-3.653
		c-0.375,1.297-1.255,2.286-2.136,3.276c0.089-1.056-0.636-1.915-0.834-2.729c-0.596,0.748-1.98,1.429-2.575,2.178
		c0.11-1.32-0.33-2.42-0.503-3.5c-0.333,0.771-0.684,1.805-0.75,2.597l0.308-0.506c-0.133,1.584-0.508,2.882-0.905,4.443
		C92.084,33.684,93.492,32.739,94.834,32.588z"/>
	<path fill="#A0A7A8" d="M33.105,49.648c-1.783,2.243-3.038,4.531-4.581,7.059c0.09-1.055-0.394-1.628-0.327-2.42
		c-1.739,1.717-2.493,3.921-4.958,4.778c-0.456-0.173-0.391-1.24-0.391-1.24c-0.329,0.771-0.66,1.54-0.991,2.31
		c1.915-0.636,3.873-1.802,5.833-2.966c-0.332,0.771-0.111,1.319-0.442,2.09C31.166,56.929,32.024,53.013,33.105,49.648z"/>
	<path fill="#B1B4B5" d="M99.035,9.605c4.907,0.61,8.487-1.866,9.901-6.903c-2.052,0.818-3.039,3.116-4.911,4.148
		c-1.657,0.852-3.413,0.506-5.218,0.751c-3.399,0.309-7.404,0.767-9.261,3.98l0.607-0.146C92.175,8.632,96.099,9.158,99.035,9.605z"
		/>
	<g>
		<path fill="#A0A7A8" d="M47.245,54.754l-0.248,0.577c-0.134,0.313-0.268,0.643-0.395,0.979c-2.794,3.707-4.705,8.468-8.584,11.193
			c-3.046,2.138-5.955,3.222-9.063,5.271c-3.699,2.44-4.359,7.306-4.148,9.938c0,0,0.797,0.184,1.994,0.938
			c0.024,0.009,0.048,0.017,0.073,0.024c-0.621-0.635-1.039-1.494-0.538-3.229c0.727-2.332,3.08-5.934,5.615-6.707
			c6.547-1.994,11.046-4.919,15.691-9.579c4.051-3.914,4.603-7.321,10.871-5.998c4.442,0.906,8.248,3.085,12.711,3.727
			c4.266,0.771,6.343,1.38,7.065,1.614c0.075,0.165,0.146,0.331,0.217,0.499c-1.146,4.925-2.686,16.146-2.893,19.383
			c-0.229,3.566-0.115,6.591,2.735,7.563c2.946,1.006,7.176,1.334,7.8-0.368c-3.956-0.224-7.624-1.817-7.934-6.605
			c-0.147-2.275,0.096-4.611,0.542-6.945c0.204-1.303,0.471-2.605,0.789-3.9c-0.085-0.562-0.056-1.17,0.136-1.819
			c0.812-2.721,2.033-6.091,1.552-8.968c-0.009-0.05-0.029-0.09-0.039-0.14c0.201-2.068,0.24-4.438,1-5.796
			c-0.427,0.361-1.609,0.263-2.216,0.41c0.443-0.559,0.525-1.543,0.97-2.101c-0.986-0.083-1.969-0.166-2.97-0.051
			c0.559-1.938,2.103-3.792,3.039-5.497c-0.788-0.065-1.721-0.739-2.509-0.807c0.476-0.951,1.132-1.689,1.774-2.229L79.46,46.46
			c-0.049,0.587-2.567,2.72-3.682,4.019c0.084,0.017,0.332,0.46,0.332,0.46c0.41-0.164,1.001-0.114,1.411-0.279
			c-1.51,1.462-2.875,3.528-4.008,5.219c1.198-0.099,2.363,0.198,3.315,0.676c-0.428,0.359-0.707,1.329-1.134,1.688
			c1.283,0.17,1.474,0.686,1.382,1.204c-1.692-0.272-3.384-0.557-5.044-1.004c0.514-0.102,1.029-0.243,1.51-0.479
			c-1.175-0.299-2.545-0.614-3.72-0.912c0.034-0.396,0.43-0.364,0.25-0.579c-1.355-0.514-3.156-0.464-4.743-0.598
			c0.215-0.183,0.644-0.545,0.86-0.727c-0.943-0.679-2.348-0.598-3.553-0.499c0.694-1.14,1.77-2.048,2.646-2.972
			c-2.809,0.162-5.487,1.135-8.281,1.1c0.017-0.198,0.249-0.578,0.265-0.776c-1.603,0.064-3.224,0.328-4.827,0.395
			c0.431-0.363,0.894-1.124,1.324-1.487C51.479,51.913,49.016,52.704,47.245,54.754z"/>
		<path fill="#A0A7A8" d="M75.747,50.512c0.01-0.01,0.019-0.023,0.03-0.033C75.761,50.475,75.75,50.483,75.747,50.512z"/>
	</g>
</g>
</svg>
