<svg xmlns="http://www.w3.org/2000/svg" xmlns:xlink="http://www.w3.org/1999/xlink" preserveAspectRatio="xMidYMid" width="58" height="61" viewBox="0 0 58 61">
  <defs>
    <style>

      .cls-3 {
        fill: #ff3a2f;
      }

      .cls-4 {
        fill: #020403;
        opacity: 0.25;
      }

      .cls-5 {
        fill: #142a3b;
      }

      .cls-7 {
        fill: #000000;
        opacity: 0.35;
      }

      .cls-10 {
        fill: #0cb04a;
      }
    </style>
  </defs>
  <g id="group-134svg">
    <path d="M41.062,52.750 C41.062,52.750 8.062,52.750 8.062,52.750 C8.062,52.750 8.062,11.750 8.062,11.750 C8.062,11.750 41.062,11.750 41.062,11.750 C41.062,11.750 41.062,52.750 41.062,52.750 Z" id="path-1" class="cls-3" fill-rule="evenodd"/>
    <path d="M35.271,11.251 C35.271,11.251 35.271,40.133 35.271,40.133 C35.271,43.544 32.562,46.308 29.218,46.308 C29.218,46.308 8.062,46.308 8.062,46.308 C8.062,46.308 8.062,52.683 8.062,52.683 C8.062,52.683 41.062,52.683 41.062,52.683 C41.062,52.683 41.062,11.251 41.062,11.251 C41.062,11.251 35.271,11.251 35.271,11.251 Z" id="path-2" class="cls-4" fill-rule="evenodd"/>
    <path d="M18.062,47.750 C17.510,47.750 17.062,47.302 17.062,46.750 C17.062,46.750 17.062,22.750 17.062,22.750 C17.062,22.198 17.510,21.750 18.062,21.750 C18.615,21.750 19.062,22.198 19.062,22.750 C19.062,22.750 19.062,46.750 19.062,46.750 C19.062,47.302 18.615,47.750 18.062,47.750 Z" id="path-3" class="cls-5" fill-rule="evenodd"/>
    <path d="M31.062,47.750 C30.510,47.750 30.062,47.302 30.062,46.750 C30.062,46.750 30.062,22.750 30.062,22.750 C30.062,22.198 30.510,21.750 31.062,21.750 C31.615,21.750 32.062,22.198 32.062,22.750 C32.062,22.750 32.062,46.750 32.062,46.750 C32.062,47.302 31.615,47.750 31.062,47.750 Z" id="path-4" class="cls-5" fill-rule="evenodd"/>
    <path d="M41.126,16.780 C41.126,16.780 41.126,11.750 41.126,11.750 C41.126,11.750 8.193,11.750 8.193,11.750 C8.193,11.750 41.126,16.780 41.126,16.780 Z" id="path-5" class="cls-7" fill-rule="evenodd"/>
    <path d="M35.945,10.175 C35.945,10.175 22.455,5.910 22.455,5.910 C22.455,5.910 24.321,0.008 24.321,0.008 C24.321,0.008 37.812,4.274 37.812,4.274 C37.812,4.274 35.945,10.175 35.945,10.175 Z" id="path-6" class="cls-3" fill-rule="evenodd"/>
    <path d="M48.592,15.675 C48.442,15.675 48.290,15.653 48.140,15.605 C48.140,15.605 9.356,3.341 9.356,3.341 C8.566,3.091 8.129,2.248 8.378,1.458 C8.629,0.669 9.470,0.229 10.261,0.481 C10.261,0.481 49.044,12.745 49.044,12.745 C49.834,12.995 50.271,13.837 50.022,14.627 C49.819,15.267 49.228,15.675 48.592,15.675 Z" id="path-7" class="cls-3" fill-rule="evenodd"/>
    <path d="M22.634,55.047 C22.634,55.047 27.244,55.047 27.244,55.047 C28.133,55.047 28.854,55.370 28.854,55.770 C28.854,56.169 28.133,56.492 27.244,56.492 C27.244,56.492 27.029,56.492 27.029,56.492 C26.141,56.492 25.420,56.816 25.420,57.215 C25.420,57.614 26.141,57.938 27.029,57.938 C27.029,57.938 36.939,57.938 36.939,57.938 C37.828,57.938 38.549,58.261 38.549,58.660 C38.549,59.059 37.828,59.383 36.939,59.383 C36.939,59.383 25.030,59.383 25.030,59.383 C25.030,59.383 11.940,59.383 11.940,59.383 C11.052,59.383 10.331,59.059 10.331,58.660 C10.331,58.261 11.052,57.938 11.940,57.938 C11.940,57.938 14.690,57.938 14.690,57.938 C15.580,57.938 16.301,57.614 16.301,57.215 C16.301,56.816 15.580,56.492 14.690,56.492 C14.690,56.492 1.602,56.492 1.602,56.492 C0.713,56.492 -0.008,56.169 -0.008,55.770 C-0.008,55.370 0.713,55.047 1.602,55.047 C1.602,55.047 4.695,55.047 4.695,55.047 C4.695,55.047 22.634,55.047 22.634,55.047 Z" id="path-8" class="cls-10" fill-rule="evenodd"/>
    <path d="M51.166,60.008 C52.182,60.008 53.004,59.639 53.004,59.183 C53.004,58.727 52.182,58.358 51.166,58.358 C51.166,58.358 45.535,58.358 45.535,58.358 C44.520,58.358 43.697,58.727 43.697,59.183 C43.697,59.639 44.520,60.008 45.535,60.008 C45.535,60.008 51.166,60.008 51.166,60.008 Z" id="path-9" class="cls-10" fill-rule="evenodd"/>
    <path d="M50.474,50.605 C50.474,50.605 52.591,50.605 52.591,50.605 C52.999,50.605 53.330,50.789 53.330,51.015 C53.330,51.242 52.999,51.426 52.591,51.426 C52.591,51.426 52.492,51.426 52.492,51.426 C52.084,51.426 51.753,51.609 51.753,51.836 C51.753,52.062 52.084,52.246 52.492,52.246 C52.492,52.246 57.043,52.246 57.043,52.246 C57.451,52.246 57.781,52.428 57.781,52.655 C57.781,52.882 57.451,53.065 57.043,53.065 C57.043,53.065 51.574,53.065 51.574,53.065 C51.574,53.065 40.396,53.065 40.396,53.065 C39.988,53.065 39.658,52.882 39.658,52.655 C39.658,52.428 39.988,52.246 40.396,52.246 C40.396,52.246 41.659,52.246 41.659,52.246 C42.067,52.246 42.398,52.062 42.398,51.836 C42.398,51.609 42.067,51.426 41.659,51.426 C41.659,51.426 35.649,51.426 35.649,51.426 C35.241,51.426 34.910,51.242 34.910,51.015 C34.910,50.789 35.241,50.605 35.649,50.605 C35.649,50.605 37.069,50.605 37.069,50.605 C37.069,50.605 50.474,50.605 50.474,50.605 Z" id="path-10" class="cls-10" fill-rule="evenodd"/>
  </g>
</svg>
