<svg xmlns="http://www.w3.org/2000/svg" xmlns:xlink="http://www.w3.org/1999/xlink" preserveAspectRatio="xMidYMid" width="60" height="51" viewBox="0 0 60 51">
  <defs>
    <style>

      .cls-3 {
        fill: #ff3a2f;
      }

      .cls-5 {
        fill: #fbb713;
      }

      .cls-6 {
        fill: #000000;
        opacity: 0.25;
      }

      .cls-9 {
        fill: #000000;
        opacity: 0.35;
      }

      .cls-10 {
        fill: #142a3b;
      }

      .cls-11 {
        fill: #ededed;
      }
    </style>
  </defs>
  <g id="group-317svg">
    <path d="M17.545,41.861 C17.545,41.861 12.460,41.861 12.460,41.861 C11.479,41.861 10.685,42.463 10.685,43.204 C10.685,43.946 11.479,44.548 12.460,44.548 C12.460,44.548 12.696,44.548 12.696,44.548 C13.677,44.548 14.472,45.150 14.472,45.892 C14.472,46.634 13.677,47.236 12.696,47.236 C12.696,47.236 1.765,47.236 1.765,47.236 C0.784,47.236 -0.011,47.837 -0.011,48.579 C-0.011,49.322 0.784,49.923 1.765,49.923 C1.765,49.923 14.902,49.923 14.902,49.923 C14.902,49.923 41.754,49.923 41.754,49.923 C42.734,49.923 43.529,49.322 43.529,48.579 C43.529,47.837 42.734,47.236 41.754,47.236 C41.754,47.236 38.721,47.236 38.721,47.236 C37.740,47.236 36.945,46.634 36.945,45.892 C36.945,45.150 37.740,44.548 38.721,44.548 C38.721,44.548 50.637,44.548 50.637,44.548 C51.617,44.548 52.412,43.946 52.412,43.204 C52.412,42.463 51.617,41.861 50.637,41.861 C50.637,41.861 49.747,41.861 49.747,41.861 C49.747,41.861 17.545,41.861 17.545,41.861 Z" id="path-1" class="cls-3" fill-rule="evenodd"/>
    <path d="M49.084,50.283 C48.262,50.283 47.596,49.638 47.596,48.843 C47.596,48.048 48.262,47.403 49.084,47.403 C49.084,47.403 53.644,47.403 53.644,47.403 C54.467,47.403 55.134,48.048 55.134,48.843 C55.134,49.638 54.467,50.283 53.644,50.283 C53.644,50.283 49.084,50.283 49.084,50.283 Z" id="path-2" class="cls-3" fill-rule="evenodd"/>
    <path d="M59.858,42.855 C59.858,42.855 15.615,42.855 15.615,42.855 C15.615,42.855 15.615,9.928 15.615,9.928 C15.615,9.928 59.858,9.928 59.858,9.928 C59.858,9.928 59.858,42.855 59.858,42.855 Z" id="path-3" class="cls-5" fill-rule="evenodd"/>
    <path d="M59.858,42.855 C59.858,42.855 15.615,42.855 15.615,42.855 C15.615,42.855 15.615,9.928 15.615,9.928 C15.615,9.928 59.858,9.928 59.858,9.928 C59.858,9.928 59.858,42.855 59.858,42.855 Z" id="path-4" class="cls-6" fill-rule="evenodd"/>
    <path d="M51.984,0.015 C51.984,0.015 23.490,0.015 23.490,0.015 C23.490,0.015 15.485,9.849 15.485,9.849 C15.485,9.849 59.989,9.849 59.989,9.849 C59.989,9.849 51.984,0.015 51.984,0.015 Z" id="path-5" class="cls-5" fill-rule="evenodd"/>
    <path d="M59.858,19.606 C59.858,19.606 15.615,19.606 15.615,19.606 C15.615,19.606 15.615,9.928 15.615,9.928 C15.615,9.928 59.858,9.928 59.858,9.928 C59.858,9.928 59.858,19.606 59.858,19.606 Z" id="path-6" class="cls-3" fill-rule="evenodd"/>
    <path d="M59.858,19.606 C59.858,19.606 15.615,19.606 15.615,19.606 C15.615,19.606 15.615,9.928 15.615,9.928 C15.615,9.928 59.858,9.928 59.858,9.928 C59.858,9.928 59.858,19.606 59.858,19.606 Z" id="path-7" class="cls-9" fill-rule="evenodd"/>
    <path d="M59.858,42.731 C59.858,42.731 15.615,42.731 15.615,42.731 C15.615,42.731 15.615,31.719 15.615,31.719 C15.615,31.719 59.858,31.719 59.858,31.719 C59.858,31.719 59.858,42.731 59.858,42.731 Z" id="path-8" class="cls-10" fill-rule="evenodd"/>
    <path d="M23.646,39.754 C22.132,39.754 20.899,38.521 20.899,37.006 C20.899,35.492 22.132,34.258 23.646,34.258 C25.162,34.258 26.394,35.492 26.394,37.006 C26.394,38.521 25.162,39.754 23.646,39.754 Z" id="path-9" class="cls-11" fill-rule="evenodd"/>
    <path d="M23.646,28.764 C22.132,28.764 20.899,27.531 20.899,26.016 C20.899,24.502 22.132,23.269 23.646,23.269 C25.162,23.269 26.394,24.502 26.394,26.016 C26.394,27.531 25.162,28.764 23.646,28.764 Z" id="path-10" class="cls-11" fill-rule="evenodd"/>
    <path d="M23.646,17.774 C22.132,17.774 20.899,16.541 20.899,15.027 C20.899,13.511 22.132,12.279 23.646,12.279 C25.162,12.279 26.394,13.511 26.394,15.027 C26.394,16.541 25.162,17.774 23.646,17.774 Z" id="path-11" class="cls-11" fill-rule="evenodd"/>
    <path d="M54.328,15.611 C54.328,15.611 51.395,15.611 51.395,15.611 C50.567,15.611 49.895,14.939 49.895,14.110 C49.895,13.282 50.567,12.610 51.395,12.610 C51.395,12.610 54.328,12.610 54.328,12.610 C55.156,12.610 55.828,13.282 55.828,14.110 C55.828,14.939 55.156,15.611 54.328,15.611 Z" id="path-12" class="cls-11" fill-rule="evenodd"/>
    <path d="M45.952,15.611 C45.952,15.611 43.020,15.611 43.020,15.611 C42.192,15.611 41.520,14.939 41.520,14.110 C41.520,13.282 42.192,12.610 43.020,12.610 C43.020,12.610 45.952,12.610 45.952,12.610 C46.780,12.610 47.452,13.282 47.452,14.110 C47.452,14.939 46.780,15.611 45.952,15.611 Z" id="path-13" class="cls-11" fill-rule="evenodd"/>
    <path d="M54.328,27.516 C54.328,27.516 51.395,27.516 51.395,27.516 C50.567,27.516 49.895,26.845 49.895,26.016 C49.895,25.188 50.567,24.516 51.395,24.516 C51.395,24.516 54.328,24.516 54.328,24.516 C55.156,24.516 55.828,25.188 55.828,26.016 C55.828,26.845 55.156,27.516 54.328,27.516 Z" id="path-14" class="cls-11" fill-rule="evenodd"/>
    <path d="M45.952,27.516 C45.952,27.516 43.020,27.516 43.020,27.516 C42.192,27.516 41.520,26.845 41.520,26.016 C41.520,25.188 42.192,24.516 43.020,24.516 C43.020,24.516 45.952,24.516 45.952,24.516 C46.780,24.516 47.452,25.188 47.452,26.016 C47.452,26.845 46.780,27.516 45.952,27.516 Z" id="path-15" class="cls-11" fill-rule="evenodd"/>
    <path d="M54.328,38.204 C54.328,38.204 51.395,38.204 51.395,38.204 C50.567,38.204 49.895,37.532 49.895,36.703 C49.895,35.875 50.567,35.203 51.395,35.203 C51.395,35.203 54.328,35.203 54.328,35.203 C55.156,35.203 55.828,35.875 55.828,36.703 C55.828,37.532 55.156,38.204 54.328,38.204 Z" id="path-16" class="cls-11" fill-rule="evenodd"/>
    <path d="M45.952,38.204 C45.952,38.204 43.020,38.204 43.020,38.204 C42.192,38.204 41.520,37.532 41.520,36.703 C41.520,35.875 42.192,35.203 43.020,35.203 C43.020,35.203 45.952,35.203 45.952,35.203 C46.780,35.203 47.452,35.875 47.452,36.703 C47.452,37.532 46.780,38.204 45.952,38.204 Z" id="path-17" class="cls-11" fill-rule="evenodd"/>
  </g>
</svg>
