<svg xmlns="http://www.w3.org/2000/svg" xmlns:xlink="http://www.w3.org/1999/xlink" preserveAspectRatio="xMidYMid" width="60" height="55" viewBox="0 0 60 55">
  <defs>
    <style>

      .cls-3 {
        fill: #fbb713;
      }

      .cls-6 {
        fill: #0cb04a;
      }

      .cls-8 {
        fill: #ff3a2f;
      }

      .cls-9 {
        fill: #020403;
        opacity: 0.25;
      }

      .cls-10 {
        fill: #142a3b;
      }

      .cls-11 {
        fill: #020403;
        opacity: 0.35;
      }

      .cls-12 {
        fill: #ffffff;
      }
    </style>
  </defs>
  <g id="group-6svg">
    <path d="M20.950,46.441 C20.950,46.441 25.213,46.441 25.213,46.441 C26.035,46.441 26.701,46.864 26.701,47.385 C26.701,47.905 26.035,48.328 25.213,48.328 C25.213,48.328 25.015,48.328 25.015,48.328 C24.192,48.328 23.526,48.749 23.526,49.270 C23.526,49.791 24.192,50.213 25.015,50.213 C25.015,50.213 34.179,50.213 34.179,50.213 C35.001,50.213 35.667,50.636 35.667,51.156 C35.667,51.677 35.001,52.099 34.179,52.099 C34.179,52.099 23.166,52.099 23.166,52.099 C23.166,52.099 11.061,52.099 11.061,52.099 C10.239,52.099 9.573,51.677 9.573,51.156 C9.573,50.636 10.239,50.213 11.061,50.213 C11.061,50.213 13.604,50.213 13.604,50.213 C14.427,50.213 15.093,49.791 15.093,49.270 C15.093,48.749 14.427,48.328 13.604,48.328 C13.604,48.328 1.500,48.328 1.500,48.328 C0.678,48.328 0.012,47.905 0.012,47.385 C0.012,46.864 0.678,46.441 1.500,46.441 C1.500,46.441 4.361,46.441 4.361,46.441 C4.361,46.441 20.950,46.441 20.950,46.441 Z" id="path-1" class="cls-3" fill-rule="evenodd"/>
    <path d="M46.443,37.765 C46.443,37.765 48.605,37.765 48.605,37.765 C49.022,37.765 49.360,38.187 49.360,38.708 C49.360,39.228 49.022,39.651 48.605,39.651 C48.605,39.651 48.505,39.651 48.505,39.651 C48.088,39.651 47.750,40.073 47.750,40.593 C47.750,41.114 48.088,41.536 48.505,41.536 C48.505,41.536 53.152,41.536 53.152,41.536 C53.569,41.536 53.907,41.959 53.907,42.479 C53.907,43.000 53.569,43.422 53.152,43.422 C53.152,43.422 47.567,43.422 47.567,43.422 C47.567,43.422 41.429,43.422 41.429,43.422 C41.012,43.422 40.674,43.000 40.674,42.479 C40.674,41.959 41.012,41.536 41.429,41.536 C41.429,41.536 42.719,41.536 42.719,41.536 C43.136,41.536 43.474,41.114 43.474,40.593 C43.474,40.073 43.136,39.651 42.719,39.651 C42.719,39.651 36.580,39.651 36.580,39.651 C36.163,39.651 35.825,39.228 35.825,38.708 C35.825,38.187 36.163,37.765 36.580,37.765 C36.580,37.765 38.031,37.765 38.031,37.765 C38.031,37.765 46.443,37.765 46.443,37.765 Z" id="path-2" class="cls-3" fill-rule="evenodd"/>
    <path d="M54.722,54.857 C55.955,54.857 56.954,54.224 56.954,53.443 C56.954,52.661 55.955,52.028 54.722,52.028 C54.722,52.028 47.881,52.028 47.881,52.028 C46.648,52.028 45.648,52.661 45.648,53.443 C45.648,54.224 46.648,54.857 47.881,54.857 C47.881,54.857 54.722,54.857 54.722,54.857 Z" id="path-3" class="cls-3" fill-rule="evenodd"/>
    <path d="M43.150,4.008 C43.150,4.008 43.150,-0.014 43.150,-0.014 C43.150,-0.014 14.105,-0.014 14.105,-0.014 C14.105,-0.014 14.105,4.008 14.105,4.008 C14.105,4.008 43.150,4.008 43.150,4.008 Z" id="path-4" class="cls-6" fill-rule="evenodd"/>
    <path d="M43.146,7.767 C46.870,11.530 49.367,16.798 49.367,22.633 C49.367,34.066 40.018,43.334 28.585,43.334 C17.151,43.334 7.855,34.066 7.855,22.633 C7.855,16.798 10.379,11.530 14.102,7.767 C14.102,7.767 43.146,7.767 43.146,7.767 Z" id="path-5" class="cls-6" fill-rule="evenodd"/>
    <path d="M49.367,22.633 C49.367,34.066 40.018,43.334 28.585,43.334 C17.151,43.334 7.855,34.066 7.855,22.633 C7.855,22.633 49.367,22.633 49.367,22.633 Z" id="path-6" class="cls-8" fill-rule="evenodd"/>
    <path d="M43.146,7.767 C43.146,7.767 39.722,7.767 39.722,7.767 C42.424,11.288 44.152,15.716 44.152,20.547 C44.152,31.980 34.802,41.248 23.369,41.248 C21.628,41.248 19.946,41.009 18.330,40.605 C21.357,42.333 24.852,43.334 28.585,43.334 C40.018,43.334 49.367,34.066 49.367,22.633 C49.367,16.798 46.870,11.530 43.146,7.767 Z" id="path-7" class="cls-9" fill-rule="evenodd"/>
    <path d="M47.618,3.439 C47.618,3.439 9.637,3.337 9.637,3.337 C9.637,3.337 9.637,8.178 9.637,8.178 C9.637,8.178 46.855,8.260 46.855,8.260 C51.448,8.260 55.171,12.065 55.171,16.658 C55.171,16.658 55.144,30.808 55.144,30.808 C55.144,32.110 56.200,33.166 57.503,33.166 C58.806,33.166 59.861,32.110 59.861,30.808 C59.861,30.808 60.012,16.285 60.012,16.285 C60.012,9.357 54.496,3.650 47.618,3.439 Z" id="path-8" class="cls-10" fill-rule="evenodd"/>
    <path d="M12.102,10.051 C12.102,10.051 46.877,12.841 46.877,12.841 C45.960,11.126 44.820,9.563 43.520,8.181 C43.520,8.181 13.728,8.181 13.728,8.181 C12.883,9.080 12.796,9.005 12.102,10.051 Z" id="path-9" class="cls-11" fill-rule="evenodd"/>
    <path d="M17.985,37.010 C17.701,37.010 17.420,36.890 17.222,36.657 C13.900,32.745 12.071,27.765 12.071,22.633 C12.071,19.102 12.976,15.552 14.686,12.367 C14.947,11.881 15.552,11.697 16.039,11.959 C16.526,12.221 16.709,12.827 16.447,13.313 C14.893,16.208 14.071,19.431 14.071,22.633 C14.071,27.291 15.731,31.811 18.747,35.363 C19.104,35.783 19.053,36.414 18.632,36.772 C18.443,36.932 18.214,37.010 17.985,37.010 Z" id="path-10" class="cls-12" fill-rule="evenodd"/>
  </g>
</svg>
