<svg xmlns="http://www.w3.org/2000/svg" xmlns:xlink="http://www.w3.org/1999/xlink" preserveAspectRatio="xMidYMid" width="61" height="54" viewBox="0 0 61 54">
  <defs>
    <style>

      .cls-3 {
        fill: #0cb04a;
      }

      .cls-6 {
        fill: #fbb713;
      }

      .cls-7 {
        fill: #060606;
        opacity: 0.35;
      }
    </style>
  </defs>
  <g id="group-212svg">
    <path d="M27.568,46.442 C27.568,46.442 22.840,46.442 22.840,46.442 C21.929,46.442 21.189,46.854 21.189,47.363 C21.189,47.871 21.929,48.283 22.840,48.283 C22.840,48.283 23.060,48.283 23.060,48.283 C23.972,48.283 24.711,48.694 24.711,49.203 C24.711,49.711 23.972,50.123 23.060,50.123 C23.060,50.123 12.896,50.123 12.896,50.123 C11.984,50.123 11.245,50.535 11.245,51.043 C11.245,51.552 11.984,51.964 12.896,51.964 C12.896,51.964 25.111,51.964 25.111,51.964 C25.111,51.964 50.078,51.964 50.078,51.964 C50.990,51.964 51.728,51.552 51.728,51.043 C51.728,50.535 50.990,50.123 50.078,50.123 C50.078,50.123 47.257,50.123 47.257,50.123 C46.346,50.123 45.606,49.711 45.606,49.203 C45.606,48.694 46.346,48.283 47.257,48.283 C47.257,48.283 58.337,48.283 58.337,48.283 C59.248,48.283 59.987,47.871 59.987,47.363 C59.987,46.854 59.248,46.442 58.337,46.442 C58.337,46.442 57.510,46.442 57.510,46.442 C57.510,46.442 27.568,46.442 27.568,46.442 Z" id="path-1" class="cls-3" fill-rule="evenodd"/>
    <path d="M49.936,39.132 C49.936,39.132 50.774,39.132 50.774,39.132 C50.936,39.132 51.068,39.360 51.068,39.641 C51.068,39.922 50.936,40.149 50.774,40.149 C50.774,40.149 50.735,40.149 50.735,40.149 C50.574,40.149 50.442,40.377 50.442,40.659 C50.442,40.939 50.574,41.167 50.735,41.167 C50.735,41.167 52.541,41.167 52.541,41.167 C52.703,41.167 52.834,41.395 52.834,41.676 C52.834,41.957 52.703,42.185 52.541,42.185 C52.541,42.185 50.371,42.185 50.371,42.185 C50.371,42.185 45.937,42.185 45.937,42.185 C45.775,42.185 45.644,41.957 45.644,41.676 C45.644,41.395 45.775,41.167 45.937,41.167 C45.937,41.167 46.438,41.167 46.438,41.167 C46.601,41.167 46.731,40.939 46.731,40.659 C46.731,40.377 46.601,40.149 46.438,40.149 C46.438,40.149 44.055,40.149 44.055,40.149 C43.893,40.149 43.762,39.922 43.762,39.641 C43.762,39.360 43.893,39.132 44.055,39.132 C44.055,39.132 44.618,39.132 44.618,39.132 C44.618,39.132 49.936,39.132 49.936,39.132 Z" id="path-2" class="cls-3" fill-rule="evenodd"/>
    <path d="M3.241,53.063 C2.575,53.063 2.035,52.668 2.035,52.181 C2.035,51.693 2.575,51.297 3.241,51.297 C3.241,51.297 6.937,51.297 6.937,51.297 C7.604,51.297 8.145,51.693 8.145,52.181 C8.145,52.668 7.604,53.063 6.937,53.063 C6.937,53.063 3.241,53.063 3.241,53.063 Z" id="path-3" class="cls-3" fill-rule="evenodd"/>
    <path d="M33.658,16.153 C33.658,16.153 51.396,18.897 51.396,18.897 C51.396,18.897 38.429,31.306 38.429,31.306 C38.429,31.306 41.300,49.024 41.300,49.024 C41.300,49.024 25.490,40.526 25.490,40.526 C25.490,40.526 9.527,48.732 9.527,48.732 C9.527,48.732 12.725,31.070 12.725,31.070 C12.725,31.070 -0.013,18.424 -0.013,18.424 C-0.013,18.424 17.772,16.007 17.772,16.007 C17.772,16.007 25.863,-0.015 25.863,-0.015 C25.863,-0.015 33.658,16.153 33.658,16.153 Z" id="path-4" class="cls-6" fill-rule="evenodd"/>
    <path d="M30.453,15.352 C30.453,15.352 33.500,15.823 33.500,15.823 C33.500,15.823 25.863,-0.015 25.863,-0.015 C25.863,-0.015 24.422,2.841 24.422,2.841 C24.422,2.841 30.453,15.352 30.453,15.352 Z" id="path-5" class="cls-7" fill-rule="evenodd"/>
    <path d="M22.285,39.725 C22.285,39.725 10.017,46.032 10.017,46.032 C10.017,46.032 9.527,48.732 9.527,48.732 C9.527,48.732 24.614,40.976 24.614,40.976 C24.614,40.976 22.285,39.725 22.285,39.725 Z" id="path-6" class="cls-7" fill-rule="evenodd"/>
    <path d="M51.396,18.897 C51.396,18.897 47.916,18.358 47.916,18.358 C47.916,18.358 35.224,30.505 35.224,30.505 C35.224,30.505 37.932,47.213 37.932,47.213 C37.932,47.213 41.300,49.024 41.300,49.024 C41.300,49.024 38.429,31.306 38.429,31.306 C38.429,31.306 51.396,18.897 51.396,18.897 Z" id="path-7" class="cls-7" fill-rule="evenodd"/>
  </g>
</svg>
