<svg xmlns="http://www.w3.org/2000/svg" xmlns:xlink="http://www.w3.org/1999/xlink" preserveAspectRatio="xMidYMid" width="60" height="52" viewBox="0 0 60 52">
  <defs>
    <style>

      .cls-3 {
        fill: #fbb713;
      }

      .cls-6 {
        fill: #142a3b;
      }

      .cls-7 {
        fill: #020403;
        opacity: 0.3;
      }

      .cls-13 {
        fill: #ededed;
      }
    </style>
  </defs>
  <g id="group-188svg">
    <path d="M25.636,45.508 C25.636,45.508 20.947,45.508 20.947,45.508 C20.043,45.508 19.310,45.927 19.310,46.445 C19.310,46.963 20.043,47.383 20.947,47.383 C20.947,47.383 21.165,47.383 21.165,47.383 C22.069,47.383 22.803,47.802 22.803,48.320 C22.803,48.837 22.069,49.258 21.165,49.258 C21.165,49.258 11.085,49.258 11.085,49.258 C10.181,49.258 9.448,49.677 9.448,50.195 C9.448,50.712 10.181,51.133 11.085,51.133 C11.085,51.133 23.199,51.133 23.199,51.133 C23.199,51.133 47.960,51.133 47.960,51.133 C48.865,51.133 49.598,50.712 49.598,50.195 C49.598,49.677 48.865,49.258 47.960,49.258 C47.960,49.258 45.163,49.258 45.163,49.258 C44.259,49.258 43.526,48.837 43.526,48.320 C43.526,47.802 44.259,47.383 45.163,47.383 C45.163,47.383 56.151,47.383 56.151,47.383 C57.055,47.383 57.788,46.963 57.788,46.445 C57.788,45.927 57.055,45.508 56.151,45.508 C56.151,45.508 55.331,45.508 55.331,45.508 C55.331,45.508 25.636,45.508 25.636,45.508 Z" id="path-1" class="cls-3" fill-rule="evenodd"/>
    <path d="M54.437,51.384 C53.679,51.384 53.064,50.934 53.064,50.379 C53.064,49.824 53.679,49.374 54.437,49.374 C54.437,49.374 58.643,49.374 58.643,49.374 C59.401,49.374 60.016,49.824 60.016,50.379 C60.016,50.934 59.401,51.384 58.643,51.384 C58.643,51.384 54.437,51.384 54.437,51.384 Z" id="path-2" class="cls-3" fill-rule="evenodd"/>
    <path d="M1.388,51.384 C0.630,51.384 0.016,50.934 0.016,50.379 C0.016,49.824 0.630,49.374 1.388,49.374 C1.388,49.374 5.594,49.374 5.594,49.374 C6.352,49.374 6.966,49.824 6.966,50.379 C6.966,50.934 6.352,51.384 5.594,51.384 C5.594,51.384 1.388,51.384 1.388,51.384 Z" id="path-3" class="cls-3" fill-rule="evenodd"/>
    <path d="M39.830,-0.007 C39.830,-0.007 28.985,-0.007 28.985,-0.007 C27.377,-0.007 26.142,1.312 26.112,2.920 C26.083,4.481 24.808,5.739 23.240,5.739 C23.240,5.739 16.148,5.739 16.148,5.739 C14.972,5.739 13.844,6.206 13.012,7.038 C13.012,7.038 6.224,13.826 6.224,13.826 C5.392,14.658 4.925,15.786 4.925,16.962 C4.925,16.962 4.925,44.522 4.925,44.522 C4.925,46.109 6.211,47.395 7.798,47.395 C7.798,47.395 39.830,47.395 39.830,47.395 C41.417,47.395 42.704,46.109 42.704,44.522 C42.704,44.522 42.704,6.600 42.704,6.600 C42.704,6.600 42.704,5.739 42.704,5.739 C42.704,5.739 42.704,2.866 42.704,2.866 C42.704,1.279 41.417,-0.007 39.830,-0.007 ZM37.963,5.739 C37.963,5.739 31.643,5.739 31.643,5.739 C31.008,5.739 30.494,5.224 30.494,4.590 C30.494,3.955 31.008,3.440 31.643,3.440 C31.643,3.440 37.963,3.440 37.963,3.440 C38.598,3.440 39.112,3.955 39.112,4.590 C39.112,5.224 38.598,5.739 37.963,5.739 Z" id="path-4" class="cls-6" fill-rule="evenodd"/>
    <path d="M13.562,7.463 C13.562,7.463 20.654,7.463 20.654,7.463 C21.834,7.463 22.847,6.751 23.289,5.733 C23.272,5.734 23.256,5.739 23.240,5.739 C23.240,5.739 16.148,5.739 16.148,5.739 C14.972,5.739 13.844,6.206 13.012,7.038 C13.012,7.038 12.418,7.632 12.418,7.632 C12.790,7.532 13.171,7.463 13.562,7.463 Z" id="path-5" class="cls-7" fill-rule="evenodd"/>
    <path d="M39.830,-0.007 C39.830,-0.007 28.985,-0.007 28.985,-0.007 C27.806,-0.007 26.832,0.705 26.382,1.718 C26.388,1.718 26.394,1.717 26.400,1.717 C26.400,1.717 37.245,1.717 37.245,1.717 C38.832,1.717 40.118,3.003 40.118,4.590 C40.118,4.590 40.118,7.463 40.118,7.463 C40.118,7.463 40.118,8.324 40.118,8.324 C40.118,8.324 40.118,46.246 40.118,46.246 C40.118,46.654 40.031,47.040 39.878,47.390 C41.442,47.365 42.704,46.093 42.704,44.522 C42.704,44.522 42.704,6.600 42.704,6.600 C42.704,6.600 42.704,5.739 42.704,5.739 C42.704,5.739 42.704,2.865 42.704,2.865 C42.704,1.279 41.417,-0.007 39.830,-0.007 Z" id="path-6" class="cls-7" fill-rule="evenodd"/>
    <path d="M13.715,7.446 C13.715,7.446 7.167,13.795 7.167,13.795 C6.622,14.324 5.752,14.310 5.223,13.765 C5.223,13.765 4.077,12.583 4.077,12.583 C3.548,12.038 3.562,11.167 4.107,10.639 C4.107,10.639 10.655,4.290 10.655,4.290 C11.200,3.762 12.070,3.775 12.599,4.320 C12.599,4.320 13.745,5.502 13.745,5.502 C14.273,6.047 14.260,6.918 13.715,7.446 Z" id="path-7" class="cls-3" fill-rule="evenodd"/>
    <path d="M13.877,5.638 C13.877,5.638 12.467,4.184 12.467,4.184 C12.011,3.713 11.261,3.702 10.791,4.158 C10.791,4.158 10.753,4.194 10.753,4.194 C10.753,4.194 12.153,5.638 12.153,5.638 C12.609,6.108 12.598,6.858 12.128,7.314 C12.128,7.314 5.345,13.890 5.345,13.890 C5.345,13.890 5.355,13.901 5.355,13.901 C5.811,14.371 6.561,14.383 7.031,13.927 C7.031,13.927 13.852,7.314 13.852,7.314 C14.321,6.858 14.333,6.108 13.877,5.638 Z" id="path-8" class="cls-7" fill-rule="evenodd"/>
    <path d="M16.549,36.921 C16.549,36.921 16.549,36.921 16.549,36.921 C16.324,36.696 16.324,36.333 16.549,36.108 C16.549,36.108 33.714,18.942 33.714,18.942 C33.939,18.718 34.303,18.718 34.527,18.942 C34.527,18.942 34.527,18.942 34.527,18.942 C34.751,19.167 34.751,19.531 34.527,19.755 C34.527,19.755 17.361,36.921 17.361,36.921 C17.137,37.145 16.773,37.145 16.549,36.921 Z" id="path-9" class="cls-7" fill-rule="evenodd"/>
    <path d="M34.527,36.921 C34.527,36.921 34.527,36.921 34.527,36.921 C34.751,36.696 34.751,36.333 34.527,36.108 C34.527,36.108 17.361,18.942 17.361,18.942 C17.137,18.718 16.773,18.718 16.549,18.942 C16.549,18.942 16.549,18.942 16.549,18.942 C16.324,19.167 16.324,19.531 16.549,19.755 C16.549,19.755 33.714,36.921 33.714,36.921 C33.939,37.145 34.303,37.145 34.527,36.921 Z" id="path-10" class="cls-7" fill-rule="evenodd"/>
    <path d="M14.825,36.921 C14.825,36.921 14.825,36.921 14.825,36.921 C14.601,36.696 14.601,36.333 14.825,36.108 C14.825,36.108 31.991,18.942 31.991,18.942 C32.215,18.718 32.579,18.718 32.803,18.942 C32.803,18.942 32.803,18.942 32.803,18.942 C33.028,19.167 33.028,19.531 32.803,19.755 C32.803,19.755 15.638,36.921 15.638,36.921 C15.413,37.145 15.049,37.145 14.825,36.921 Z" id="path-11" class="cls-13" fill-rule="evenodd"/>
    <path d="M32.803,36.921 C32.803,36.921 32.803,36.921 32.803,36.921 C33.028,36.696 33.028,36.333 32.803,36.108 C32.803,36.108 15.638,18.942 15.638,18.942 C15.413,18.718 15.049,18.718 14.825,18.942 C14.825,18.942 14.825,18.942 14.825,18.942 C14.601,19.167 14.601,19.531 14.825,19.755 C14.825,19.755 31.991,36.921 31.991,36.921 C32.215,37.145 32.579,37.145 32.803,36.921 Z" id="path-12" class="cls-13" fill-rule="evenodd"/>
  </g>
</svg>
