<svg xmlns="http://www.w3.org/2000/svg" xmlns:xlink="http://www.w3.org/1999/xlink" preserveAspectRatio="xMidYMid" width="60" height="53" viewBox="0 0 60 53">
  <defs>
    <style>

      .cls-3 {
        fill: #ff3a2f;
      }

      .cls-5 {
        fill: #2476ff;
      }

      .cls-6 {
        fill: #1953b1;
      }

      .cls-7 {
        fill: #ededed;
      }
    </style>
  </defs>
  <g id="group-176svg">
    <path d="M18.167,45.668 C18.167,45.668 12.902,45.668 12.902,45.668 C11.887,45.668 11.064,46.139 11.064,46.721 C11.064,47.302 11.887,47.773 12.902,47.773 C12.902,47.773 13.147,47.773 13.147,47.773 C14.163,47.773 14.985,48.244 14.985,48.825 C14.985,49.407 14.163,49.878 13.147,49.878 C13.147,49.878 1.828,49.878 1.828,49.878 C0.813,49.878 -0.010,50.349 -0.010,50.930 C-0.010,51.512 0.813,51.983 1.828,51.983 C1.828,51.983 15.431,51.983 15.431,51.983 C15.431,51.983 43.234,51.983 43.234,51.983 C44.249,51.983 45.072,51.512 45.072,50.930 C45.072,50.349 44.249,49.878 43.234,49.878 C43.234,49.878 40.093,49.878 40.093,49.878 C39.077,49.878 38.255,49.407 38.255,48.825 C38.255,48.244 39.077,47.773 40.093,47.773 C40.093,47.773 52.431,47.773 52.431,47.773 C53.446,47.773 54.269,47.302 54.269,46.721 C54.269,46.139 53.446,45.668 52.431,45.668 C52.431,45.668 51.510,45.668 51.510,45.668 C51.510,45.668 18.167,45.668 18.167,45.668 Z" id="path-1" class="cls-3" fill-rule="evenodd"/>
    <path d="M53.727,52.265 C52.875,52.265 52.185,51.760 52.185,51.137 C52.185,50.514 52.875,50.009 53.727,50.009 C53.727,50.009 58.449,50.009 58.449,50.009 C59.300,50.009 59.990,50.514 59.990,51.137 C59.990,51.760 59.300,52.265 58.449,52.265 C58.449,52.265 53.727,52.265 53.727,52.265 Z" id="path-2" class="cls-3" fill-rule="evenodd"/>
    <path d="M12.306,34.208 C12.306,34.208 12.306,34.209 12.306,34.209 C12.306,34.209 12.640,34.562 12.640,34.562 C12.723,34.651 12.803,34.740 12.890,34.827 C12.890,34.827 12.893,34.827 12.893,34.827 C12.893,34.827 27.327,50.030 27.327,50.030 C27.327,50.030 41.754,34.827 41.754,34.827 C41.754,34.827 41.754,34.827 41.754,34.827 C41.771,34.811 41.789,34.791 41.807,34.773 C41.807,34.773 42.063,34.500 42.063,34.500 C42.063,34.500 42.339,34.209 42.339,34.209 C42.339,34.209 42.339,34.208 42.339,34.208 C42.339,34.208 42.350,34.195 42.350,34.195 C45.820,30.413 47.731,25.516 47.731,20.408 C47.731,9.154 38.575,-0.002 27.324,-0.002 C16.069,-0.002 6.913,9.154 6.913,20.408 C6.913,25.512 8.824,30.409 12.295,34.195 C12.295,34.195 12.306,34.208 12.306,34.208 Z" id="path-3" class="cls-5" fill-rule="evenodd"/>
    <path d="M30.282,33.014 C36.158,33.014 40.924,28.249 40.924,22.371 C40.924,16.494 36.158,11.728 30.282,11.728 C24.401,11.728 19.636,16.494 19.636,22.371 C19.636,28.249 24.401,33.014 30.282,33.014 Z" id="path-4" class="cls-6" fill-rule="evenodd"/>
    <path d="M27.324,31.041 C33.200,31.041 37.966,26.277 37.966,20.399 C37.966,14.522 33.200,9.756 27.324,9.756 C21.443,9.756 16.678,14.522 16.678,20.399 C16.678,26.277 21.443,31.041 27.324,31.041 Z" id="path-5" class="cls-7" fill-rule="evenodd"/>
  </g>
</svg>
