<svg xmlns="http://www.w3.org/2000/svg" xmlns:xlink="http://www.w3.org/1999/xlink" preserveAspectRatio="xMidYMid" width="58" height="61" viewBox="0 0 58 61">
  <defs>
    <style>

      .cls-3 {
        fill: #2476ff;
      }

      .cls-6 {
        fill: #ededed;
      }

      .cls-7 {
        fill: #020403;
        opacity: 0.25;
      }

      .cls-8 {
        fill: #142a3b;
      }

      .cls-10 {
        fill: #f4faff;
      }

      .cls-11 {
        fill: #020403;
        opacity: 0.35;
      }

      .cls-14 {
        fill: #ff3a2f;
      }
    </style>
  </defs>
  <g id="group-88svg">
    <path d="M44.210,51.022 C44.210,51.022 48.037,51.022 48.037,51.022 C48.775,51.022 49.373,51.694 49.373,52.524 C49.373,53.354 48.775,54.027 48.037,54.027 C48.037,54.027 47.859,54.027 47.859,54.027 C47.121,54.027 46.523,54.699 46.523,55.529 C46.523,56.359 47.121,57.032 47.859,57.032 C47.859,57.032 56.085,57.032 56.085,57.032 C56.823,57.032 57.421,57.703 57.421,58.533 C57.421,59.363 56.823,60.036 56.085,60.036 C56.085,60.036 46.200,60.036 46.200,60.036 C46.200,60.036 25.993,60.036 25.993,60.036 C25.255,60.036 24.657,59.363 24.657,58.533 C24.657,57.703 25.255,57.032 25.993,57.032 C25.993,57.032 28.276,57.032 28.276,57.032 C29.014,57.032 29.612,56.359 29.612,55.529 C29.612,54.699 29.014,54.027 28.276,54.027 C28.276,54.027 17.411,54.027 17.411,54.027 C16.673,54.027 16.075,53.354 16.075,52.524 C16.075,51.694 16.673,51.022 17.411,51.022 C17.411,51.022 19.979,51.022 19.979,51.022 C19.979,51.022 44.210,51.022 44.210,51.022 Z" id="path-1" class="cls-3" fill-rule="evenodd"/>
    <path d="M51.101,35.323 C51.101,35.323 52.332,35.323 52.332,35.323 C52.570,35.323 52.763,35.531 52.763,35.788 C52.763,36.045 52.570,36.254 52.332,36.254 C52.332,36.254 52.275,36.254 52.275,36.254 C52.038,36.254 51.845,36.462 51.845,36.718 C51.845,36.975 52.038,37.183 52.275,37.183 C52.275,37.183 54.924,37.183 54.924,37.183 C55.161,37.183 55.354,37.391 55.354,37.648 C55.354,37.905 55.161,38.113 54.924,38.113 C54.924,38.113 51.741,38.113 51.741,38.113 C51.741,38.113 48.243,38.113 48.243,38.113 C48.005,38.113 47.812,37.905 47.812,37.648 C47.812,37.391 48.005,37.183 48.243,37.183 C48.243,37.183 48.978,37.183 48.978,37.183 C49.215,37.183 49.408,36.975 49.408,36.718 C49.408,36.462 49.215,36.254 48.978,36.254 C48.978,36.254 45.479,36.254 45.479,36.254 C45.242,36.254 45.049,36.045 45.049,35.788 C45.049,35.531 45.242,35.323 45.479,35.323 C45.479,35.323 46.306,35.323 46.306,35.323 C46.306,35.323 51.101,35.323 51.101,35.323 Z" id="path-2" class="cls-3" fill-rule="evenodd"/>
    <path d="M17.371,60.116 C18.284,60.116 19.024,59.648 19.024,59.070 C19.024,58.491 18.284,58.022 17.371,58.022 C17.371,58.022 12.306,58.022 12.306,58.022 C11.393,58.022 10.652,58.491 10.652,59.070 C10.652,59.648 11.393,60.116 12.306,60.116 C12.306,60.116 17.371,60.116 17.371,60.116 Z" id="path-3" class="cls-3" fill-rule="evenodd"/>
    <path d="M-0.000,48.754 C-0.000,48.754 -0.000,51.150 -0.000,51.150 C-0.000,51.608 0.784,51.000 1.242,51.000 C1.242,51.000 42.674,51.000 42.674,51.000 C43.132,51.000 43.000,51.608 43.000,51.150 C43.000,51.150 43.000,1.432 43.000,1.432 C43.000,0.974 43.132,-0.000 42.674,-0.000 C42.674,-0.000 1.242,-0.000 1.242,-0.000 C0.784,-0.000 -0.000,0.974 -0.000,1.432 C-0.000,1.432 -0.000,48.754 -0.000,48.754 Z" id="path-4" class="cls-6" fill-rule="evenodd"/>
    <path d="M42.272,0.418 C42.272,0.418 36.748,0.418 36.748,0.418 C36.748,0.418 36.748,39.650 36.748,39.650 C36.748,43.261 33.820,46.188 30.209,46.188 C30.209,46.188 0.318,46.188 0.318,46.188 C0.318,46.188 0.318,48.754 0.318,48.754 C0.318,48.754 0.318,51.150 0.318,51.150 C0.318,51.505 0.606,51.793 0.961,51.793 C0.961,51.793 42.644,51.793 42.644,51.793 C42.999,51.793 43.287,51.505 43.287,51.150 C43.287,51.150 43.287,1.432 43.287,1.432 C43.287,0.874 42.830,0.418 42.272,0.418 Z" id="path-5" class="cls-7" fill-rule="evenodd"/>
    <path d="M40.000,13.000 C40.000,13.000 4.000,13.000 4.000,13.000 C3.448,13.000 3.000,12.552 3.000,12.000 C3.000,11.448 3.448,11.000 4.000,11.000 C4.000,11.000 40.000,11.000 40.000,11.000 C40.552,11.000 41.000,11.448 41.000,12.000 C41.000,12.552 40.552,13.000 40.000,13.000 Z" id="path-6" class="cls-8" fill-rule="evenodd"/>
    <path d="M33.041,23.369 C34.918,25.808 36.108,28.823 36.108,32.139 C36.108,39.909 29.809,46.209 22.038,46.209 C14.268,46.209 7.968,39.909 7.968,32.139 C7.968,24.369 14.268,18.069 22.038,18.069 C23.836,18.069 25.556,18.407 27.136,19.022 C27.136,19.022 30.203,19.681 33.041,23.369 Z" id="path-7" class="cls-3" fill-rule="evenodd"/>
    <path d="M25.483,43.214 C25.113,43.214 24.757,43.007 24.583,42.652 C24.341,42.156 24.548,41.557 25.044,41.315 C27.573,40.082 29.471,37.938 30.388,35.278 C31.304,32.618 31.130,29.760 29.897,27.231 C29.655,26.735 29.861,26.136 30.358,25.894 C30.852,25.653 31.452,25.857 31.695,26.355 C33.162,29.364 33.369,32.764 32.278,35.929 C31.188,39.094 28.930,41.646 25.920,43.112 C25.779,43.182 25.630,43.214 25.483,43.214 Z" id="path-8" class="cls-10" fill-rule="evenodd"/>
    <path d="M11.705,32.139 C11.705,25.004 17.021,19.123 23.908,18.207 C23.294,18.125 22.674,18.069 22.038,18.069 C14.268,18.069 7.968,24.369 7.968,32.139 C7.968,39.909 14.268,46.209 22.038,46.209 C22.673,46.209 23.294,46.152 23.907,46.071 C17.021,45.154 11.705,39.274 11.705,32.139 Z" id="path-9" class="cls-11" fill-rule="evenodd"/>
    <path d="M28.753,33.073 C28.753,35.618 31.020,37.753 34.713,38.373 C35.606,36.736 36.108,34.949 36.108,33.073 C36.108,31.193 35.581,29.415 34.679,27.779 C31.006,28.406 28.753,30.535 28.753,33.073 Z" id="path-10" class="cls-11" fill-rule="evenodd"/>
    <path d="M31.556,32.139 C31.556,34.684 33.246,36.819 36.001,37.439 C36.668,35.802 37.042,34.015 37.042,32.139 C37.042,30.259 36.649,28.481 35.976,26.845 C33.236,27.472 31.556,29.601 31.556,32.139 Z" id="path-11" class="cls-6" fill-rule="evenodd"/>
    <path d="M7.000,9.000 C7.000,9.000 4.000,9.000 4.000,9.000 C4.000,9.000 4.000,7.000 4.000,7.000 C4.000,7.000 7.000,7.000 7.000,7.000 C7.000,7.000 7.000,9.000 7.000,9.000 Z" id="path-12" class="cls-14" fill-rule="evenodd"/>
    <path d="M12.000,9.000 C12.000,9.000 9.000,9.000 9.000,9.000 C9.000,9.000 9.000,7.000 9.000,7.000 C9.000,7.000 12.000,7.000 12.000,7.000 C12.000,7.000 12.000,9.000 12.000,9.000 Z" id="path-13" class="cls-14" fill-rule="evenodd"/>
  </g>
</svg>
