<svg xmlns="http://www.w3.org/2000/svg" xmlns:xlink="http://www.w3.org/1999/xlink" preserveAspectRatio="xMidYMid" width="61" height="33" viewBox="0 0 61 33">
  <defs>
    <style>

      .cls-3 {
        fill: #0cb04a;
      }

      .cls-5 {
        fill: #142a3b;
      }

      .cls-6 {
        fill: #ff3a2f;
      }

      .cls-7 {
        fill: #000000;
        opacity: 0.35;
      }
    </style>
  </defs>
  <g id="group-227svg">
    <path d="M26.423,25.498 C26.423,25.498 21.527,25.498 21.527,25.498 C20.584,25.498 19.818,25.925 19.818,26.451 C19.818,26.977 20.584,27.403 21.527,27.403 C21.527,27.403 21.756,27.403 21.756,27.403 C22.699,27.403 23.465,27.830 23.465,28.356 C23.465,28.883 22.699,29.309 21.756,29.309 C21.756,29.309 11.232,29.309 11.232,29.309 C10.288,29.309 9.523,29.736 9.523,30.261 C9.523,30.788 10.288,31.214 11.232,31.214 C11.232,31.214 23.879,31.214 23.879,31.214 C23.879,31.214 49.728,31.214 49.728,31.214 C50.672,31.214 51.437,30.788 51.437,30.261 C51.437,29.736 50.672,29.309 49.728,29.309 C49.728,29.309 46.808,29.309 46.808,29.309 C45.863,29.309 45.099,28.883 45.099,28.356 C45.099,27.830 45.863,27.403 46.808,27.403 C46.808,27.403 58.278,27.403 58.278,27.403 C59.222,27.403 59.987,26.977 59.987,26.451 C59.987,25.925 59.222,25.498 58.278,25.498 C58.278,25.498 57.422,25.498 57.422,25.498 C57.422,25.498 26.423,25.498 26.423,25.498 Z" id="path-1" class="cls-3" fill-rule="evenodd"/>
    <path d="M1.236,32.353 C0.547,32.353 -0.013,31.944 -0.013,31.439 C-0.013,30.934 0.547,30.525 1.236,30.525 C1.236,30.525 5.063,30.525 5.063,30.525 C5.753,30.525 6.312,30.934 6.312,31.439 C6.312,31.944 5.753,32.353 5.063,32.353 C5.063,32.353 1.236,32.353 1.236,32.353 Z" id="path-2" class="cls-3" fill-rule="evenodd"/>
    <path d="M55.098,7.198 C55.098,7.198 51.560,7.198 51.560,7.198 C51.560,7.198 51.560,19.178 51.560,19.178 C51.560,19.178 55.098,19.178 55.098,19.178 C57.054,19.178 58.636,18.642 58.636,17.980 C58.636,17.980 58.636,8.396 58.636,8.396 C58.636,7.734 57.054,7.198 55.098,7.198 Z" id="path-3" class="cls-5" fill-rule="evenodd"/>
    <path d="M53.844,19.178 C53.844,19.178 53.844,7.198 53.844,7.198 C53.844,7.198 53.844,5.027 53.844,5.027 C53.844,2.262 51.593,0.010 48.827,0.010 C48.827,0.010 8.545,0.010 8.545,0.010 C5.779,0.010 3.528,2.262 3.528,5.027 C3.528,5.027 3.528,21.349 3.528,21.349 C3.528,24.115 5.779,26.366 8.545,26.366 C8.545,26.366 48.827,26.366 48.827,26.366 C51.593,26.366 53.844,24.115 53.844,21.349 C53.844,21.349 53.844,19.178 53.844,19.178 Z" id="path-4" class="cls-6" fill-rule="evenodd"/>
    <path d="M49.723,0.101 C50.233,0.887 50.537,1.819 50.537,2.823 C50.537,2.823 50.537,4.994 50.537,4.994 C50.537,4.994 50.537,16.973 50.537,16.973 C50.537,16.973 50.537,19.145 50.537,19.145 C50.537,21.910 48.286,24.162 45.520,24.162 C45.520,24.162 5.239,24.162 5.239,24.162 C4.932,24.162 4.635,24.124 4.343,24.071 C5.238,25.449 6.784,26.366 8.545,26.366 C8.545,26.366 48.827,26.366 48.827,26.366 C51.593,26.366 53.844,24.115 53.844,21.349 C53.844,21.349 53.844,19.178 53.844,19.178 C53.844,19.178 53.844,7.199 53.844,7.199 C53.844,7.199 53.844,5.027 53.844,5.027 C53.844,2.568 52.061,0.526 49.723,0.101 Z" id="path-5" class="cls-7" fill-rule="evenodd"/>
    <path d="M17.904,20.376 C17.904,21.038 17.368,21.574 16.706,21.574 C16.706,21.574 11.914,21.574 11.914,21.574 C11.252,21.574 10.717,21.038 10.717,20.376 C10.717,20.376 10.717,6.000 10.717,6.000 C10.717,5.338 11.252,4.802 11.914,4.802 C11.914,4.802 16.706,4.802 16.706,4.802 C17.368,4.802 17.904,5.338 17.904,6.000 C17.904,6.000 17.904,20.376 17.904,20.376 Z" id="path-6" class="cls-5" fill-rule="evenodd"/>
    <path d="M27.488,20.376 C27.488,21.038 26.952,21.574 26.290,21.574 C26.290,21.574 21.498,21.574 21.498,21.574 C20.836,21.574 20.301,21.038 20.301,20.376 C20.301,20.376 20.301,6.000 20.301,6.000 C20.301,5.338 20.836,4.802 21.498,4.802 C21.498,4.802 26.290,4.802 26.290,4.802 C26.952,4.802 27.488,5.338 27.488,6.000 C27.488,6.000 27.488,20.376 27.488,20.376 Z" id="path-7" class="cls-5" fill-rule="evenodd"/>
  </g>
</svg>
