<svg xmlns="http://www.w3.org/2000/svg" xmlns:xlink="http://www.w3.org/1999/xlink" preserveAspectRatio="xMidYMid" width="60" height="57" viewBox="0 0 60 57">
  <defs>
    <style>

      .cls-3 {
        fill: #2476ff;
      }

      .cls-6 {
        fill: #142a3b;
      }

      .cls-7 {
        fill: #ff3a2f;
      }

      .cls-9 {
        fill: #000000;
        opacity: 0.35;
      }

      .cls-17 {
        fill: #ededed;
      }
    </style>
  </defs>
  <g id="group-234svg">
    <path d="M24.183,55.289 C24.183,55.289 26.863,55.289 26.863,55.289 C27.380,55.289 27.799,54.794 27.799,54.184 C27.799,53.574 27.380,53.080 26.863,53.080 C26.863,53.080 26.738,53.080 26.738,53.080 C26.222,53.080 25.803,52.585 25.803,51.976 C25.803,51.365 26.222,50.871 26.738,50.871 C26.738,50.871 32.500,50.871 32.500,50.871 C33.017,50.871 33.436,50.376 33.436,49.766 C33.436,49.156 33.017,48.662 32.500,48.662 C32.500,48.662 25.576,48.662 25.576,48.662 C25.576,48.662 11.422,48.662 11.422,48.662 C10.906,48.662 10.487,49.156 10.487,49.766 C10.487,50.376 10.906,50.871 11.422,50.871 C11.422,50.871 13.021,50.871 13.021,50.871 C13.539,50.871 13.957,51.365 13.957,51.976 C13.957,52.585 13.539,53.080 13.021,53.080 C13.021,53.080 5.411,53.080 5.411,53.080 C4.894,53.080 4.475,53.574 4.475,54.184 C4.475,54.794 4.894,55.289 5.411,55.289 C5.411,55.289 7.209,55.289 7.209,55.289 C7.209,55.289 24.183,55.289 24.183,55.289 Z" id="path-1" class="cls-3" fill-rule="evenodd"/>
    <path d="M10.431,37.552 C10.431,37.552 11.848,37.552 11.848,37.552 C12.121,37.552 12.342,37.310 12.342,37.010 C12.342,36.711 12.121,36.467 11.848,36.467 C11.848,36.467 11.782,36.467 11.782,36.467 C11.509,36.467 11.287,36.225 11.287,35.926 C11.287,35.626 11.509,35.383 11.782,35.383 C11.782,35.383 14.827,35.383 14.827,35.383 C15.100,35.383 15.322,35.140 15.322,34.841 C15.322,34.541 15.100,34.299 14.827,34.299 C14.827,34.299 11.167,34.299 11.167,34.299 C11.167,34.299 3.687,34.299 3.687,34.299 C3.414,34.299 3.192,34.541 3.192,34.841 C3.192,35.140 3.414,35.383 3.687,35.383 C3.687,35.383 4.532,35.383 4.532,35.383 C4.805,35.383 5.027,35.626 5.027,35.926 C5.027,36.225 4.805,36.467 4.532,36.467 C4.532,36.467 0.510,36.467 0.510,36.467 C0.237,36.467 0.016,36.711 0.016,37.010 C0.016,37.310 0.237,37.552 0.510,37.552 C0.510,37.552 1.460,37.552 1.460,37.552 C1.460,37.552 10.431,37.552 10.431,37.552 Z" id="path-2" class="cls-3" fill-rule="evenodd"/>
    <path d="M36.912,54.071 C37.494,54.071 37.966,54.617 37.966,55.289 C37.966,55.961 37.494,56.506 36.912,56.506 C36.912,56.506 33.683,56.506 33.683,56.506 C33.101,56.506 32.629,55.961 32.629,55.289 C32.629,54.617 33.101,54.071 33.683,54.071 C33.683,54.071 36.912,54.071 36.912,54.071 Z" id="path-3" class="cls-3" fill-rule="evenodd"/>
    <path d="M43.213,16.785 C43.213,16.785 18.636,41.362 18.636,41.362 C18.636,41.362 18.636,41.362 18.636,41.362 " id="path-4" class="cls-6" fill-rule="evenodd"/>
    <path d="M19.343,42.069 C19.343,42.069 17.929,40.655 17.929,40.655 C17.929,40.655 42.506,16.078 42.506,16.078 C42.506,16.078 43.920,17.493 43.920,17.493 C43.920,17.493 19.343,42.069 19.343,42.069 Z" id="path-5" class="cls-7" fill-rule="evenodd"/>
    <path d="M34.950,5.801 C34.950,5.801 56.273,0.087 56.273,0.087 C58.482,-0.505 60.503,1.516 59.911,3.725 C59.911,3.725 54.198,25.048 54.198,25.048 C53.606,27.256 50.845,27.996 49.228,26.379 C46.544,18.994 41.425,13.717 33.619,10.769 C32.002,9.153 32.742,6.392 34.950,5.801 Z" id="path-6" class="cls-7" fill-rule="evenodd"/>
    <path d="M47.010,21.676 C44.353,15.256 39.718,10.549 32.928,7.710 C32.581,8.721 32.755,9.905 33.619,10.769 C39.650,13.047 44.070,16.720 47.010,21.676 Z" id="path-7" class="cls-9" fill-rule="evenodd"/>
    <path d="M58.168,0.238 C58.168,0.238 52.455,21.561 52.455,21.561 C51.900,23.629 49.455,24.383 47.818,23.146 C48.343,24.176 48.818,25.250 49.228,26.379 C50.845,27.996 53.606,27.256 54.197,25.048 C54.197,25.048 59.911,3.725 59.911,3.725 C60.322,2.192 59.464,0.772 58.169,0.230 C58.168,0.233 58.169,0.235 58.168,0.238 Z" id="path-8" class="cls-9" fill-rule="evenodd"/>
    <path d="M7.849,42.155 C7.849,42.155 18.921,39.188 18.921,39.188 C20.068,38.880 21.117,39.930 20.810,41.077 C20.810,41.077 17.843,52.149 17.843,52.149 C17.536,53.296 16.102,53.679 15.263,52.840 C13.869,49.006 11.211,46.266 7.158,44.735 C6.318,43.895 6.703,42.462 7.849,42.155 Z" id="path-9" class="cls-7" fill-rule="evenodd"/>
    <path d="M6.716,43.555 C6.690,43.970 6.823,44.400 7.158,44.735 C8.722,45.326 10.073,46.100 11.229,47.045 C10.044,45.606 8.546,44.436 6.716,43.555 Z" id="path-10" class="cls-9" fill-rule="evenodd"/>
    <path d="M19.088,39.167 C19.080,39.223 19.082,39.277 19.067,39.334 C19.067,39.334 16.100,50.406 16.100,50.406 C15.917,51.089 15.334,51.492 14.716,51.537 C14.915,51.957 15.099,52.389 15.263,52.840 C16.102,53.679 17.536,53.296 17.843,52.149 C17.843,52.149 20.810,41.077 20.810,41.077 C21.102,39.987 20.166,38.999 19.088,39.167 Z" id="path-11" class="cls-9" fill-rule="evenodd"/>
    <path d="M41.908,31.717 C41.356,31.717 40.908,31.270 40.908,30.717 C40.908,24.306 35.692,19.090 29.280,19.090 C28.728,19.090 28.280,18.642 28.280,18.089 C28.280,17.537 28.728,17.089 29.280,17.089 C36.795,17.089 42.908,23.203 42.908,30.717 C42.908,31.270 42.460,31.717 41.908,31.717 Z" id="path-12" class="cls-7" fill-rule="evenodd"/>
    <path d="M36.147,37.478 C35.595,37.478 35.147,37.031 35.147,36.478 C35.147,30.067 29.931,24.850 23.519,24.850 C22.967,24.850 22.519,24.403 22.519,23.850 C22.519,23.298 22.967,22.850 23.519,22.850 C31.034,22.850 37.147,28.964 37.147,36.478 C37.147,37.031 36.700,37.478 36.147,37.478 Z" id="path-13" class="cls-7" fill-rule="evenodd"/>
    <path d="M30.387,43.239 C29.834,43.239 29.387,42.792 29.387,42.239 C29.387,35.828 24.170,30.611 17.759,30.611 C17.206,30.611 16.759,30.164 16.759,29.611 C16.759,29.059 17.206,28.612 17.759,28.612 C25.273,28.612 31.387,34.725 31.387,42.239 C31.387,42.792 30.939,43.239 30.387,43.239 Z" id="path-14" class="cls-7" fill-rule="evenodd"/>
    <path d="M54.738,8.525 C53.836,9.426 52.375,9.426 51.473,8.525 C50.572,7.624 50.572,6.162 51.473,5.260 C52.375,4.359 53.836,4.359 54.738,5.260 C55.639,6.162 55.639,7.624 54.738,8.525 Z" id="path-15" class="cls-17" fill-rule="evenodd"/>
  </g>
</svg>
