<svg xmlns="http://www.w3.org/2000/svg" xmlns:xlink="http://www.w3.org/1999/xlink" preserveAspectRatio="xMidYMid" width="58" height="60" viewBox="0 0 58 60">
  <defs>
    <style>

      .cls-3 {
        fill: #fbb713;
      }

      .cls-5 {
        fill: #142a3b;
      }

      .cls-8 {
        fill: #ff3a2f;
      }

      .cls-10 {
        fill: #ffffff;
      }

      .cls-11 {
        fill: #020403;
        opacity: 0.25;
      }
    </style>
  </defs>
  <g id="group-23svg">
    <path d="M21.229,51.465 C21.229,51.465 25.550,51.465 25.550,51.465 C26.383,51.465 27.058,51.893 27.058,52.421 C27.058,52.948 26.383,53.377 25.550,53.377 C25.550,53.377 25.349,53.377 25.349,53.377 C24.516,53.377 23.840,53.805 23.840,54.332 C23.840,54.860 24.516,55.288 25.349,55.288 C25.349,55.288 34.637,55.288 34.637,55.288 C35.470,55.288 36.145,55.715 36.145,56.244 C36.145,56.772 35.470,57.200 34.637,57.200 C34.637,57.200 23.475,57.200 23.475,57.200 C23.475,57.200 11.206,57.200 11.206,57.200 C10.373,57.200 9.697,56.772 9.697,56.244 C9.697,55.715 10.373,55.288 11.206,55.288 C11.206,55.288 13.783,55.288 13.783,55.288 C14.617,55.288 15.292,54.860 15.292,54.332 C15.292,53.805 14.617,53.377 13.783,53.377 C13.783,53.377 1.515,53.377 1.515,53.377 C0.682,53.377 0.007,52.948 0.007,52.421 C0.007,51.893 0.682,51.465 1.515,51.465 C1.515,51.465 4.414,51.465 4.414,51.465 C4.414,51.465 21.229,51.465 21.229,51.465 Z" id="path-1" class="cls-3" fill-rule="evenodd"/>
    <path d="M55.459,59.995 C56.709,59.995 57.722,59.353 57.722,58.561 C57.722,57.770 56.709,57.128 55.459,57.128 C55.459,57.128 48.525,57.128 48.525,57.128 C47.275,57.128 46.263,57.770 46.263,58.561 C46.263,59.353 47.275,59.995 48.525,59.995 C48.525,59.995 55.459,59.995 55.459,59.995 Z" id="path-2" class="cls-3" fill-rule="evenodd"/>
    <path d="M46.311,38.950 C46.311,40.877 44.749,42.440 42.821,42.440 C40.894,42.440 39.332,40.877 39.332,38.950 C39.332,37.023 40.894,35.460 42.821,35.460 C44.749,35.460 46.311,37.023 46.311,38.950 Z" id="path-3" class="cls-5" fill-rule="evenodd"/>
    <path d="M34.996,43.285 C34.996,43.285 16.840,43.285 16.840,43.285 C16.840,43.285 16.840,24.886 16.840,24.886 C16.840,24.886 34.996,24.886 34.996,24.886 C34.996,24.886 34.996,43.285 34.996,43.285 Z" id="path-4" class="cls-5" fill-rule="evenodd"/>
    <path d="M29.366,35.086 C29.366,35.086 22.018,35.086 22.018,35.086 C21.465,35.086 21.018,34.638 21.018,34.086 C21.018,33.534 21.465,33.086 22.018,33.086 C22.018,33.086 29.366,33.086 29.366,33.086 C29.919,33.086 30.366,33.534 30.366,34.086 C30.366,34.638 29.919,35.086 29.366,35.086 Z" id="path-5" class="cls-5" fill-rule="evenodd"/>
    <path d="M46.311,38.950 C46.311,40.877 44.749,42.440 42.821,42.440 C40.894,42.440 39.332,40.877 39.332,38.950 C39.332,37.023 40.894,35.460 42.821,35.460 C44.749,35.460 46.311,37.023 46.311,38.950 Z" id="path-6" class="cls-8" fill-rule="evenodd"/>
    <path d="M25.797,11.611 C25.244,11.611 24.797,11.162 24.797,10.611 C24.797,10.611 24.797,2.053 24.797,2.053 C24.797,1.500 25.244,1.052 25.797,1.052 C26.350,1.052 26.797,1.500 26.797,2.053 C26.797,2.053 26.797,10.611 26.797,10.611 C26.797,11.162 26.350,11.611 25.797,11.611 Z" id="path-7" class="cls-5" fill-rule="evenodd"/>
    <path d="M42.860,37.893 C42.860,38.498 42.369,38.989 41.765,38.989 C41.159,38.989 40.668,38.498 40.668,37.893 C40.668,37.287 41.159,36.797 41.765,36.797 C42.369,36.797 42.860,37.287 42.860,37.893 Z" id="path-8" class="cls-10" fill-rule="evenodd"/>
    <path d="M44.698,36.016 C45.046,36.559 45.254,37.200 45.254,37.893 C45.254,39.820 43.691,41.382 41.765,41.382 C41.071,41.382 40.431,41.175 39.888,40.827 C40.508,41.794 41.587,42.439 42.821,42.439 C44.749,42.439 46.311,40.877 46.311,38.949 C46.311,37.715 45.666,36.636 44.698,36.016 Z" id="path-9" class="cls-11" fill-rule="evenodd"/>
    <path d="M16.598,52.802 C16.598,52.802 34.996,52.802 34.996,52.802 C34.996,52.802 34.996,18.542 34.996,18.542 C34.996,13.461 30.878,9.342 25.797,9.342 C20.716,9.342 16.598,13.461 16.598,18.542 C16.598,18.542 16.598,52.802 16.598,52.802 Z" id="path-10" class="cls-5" fill-rule="evenodd"/>
    <path d="M25.797,10.553 C25.244,10.553 24.797,10.106 24.797,9.553 C24.797,9.553 24.797,0.995 24.797,0.995 C24.797,0.443 25.244,-0.005 25.797,-0.005 C26.350,-0.005 26.797,0.443 26.797,0.995 C26.797,0.995 26.797,9.553 26.797,9.553 C26.797,10.106 26.350,10.553 25.797,10.553 Z" id="path-11" class="cls-5" fill-rule="evenodd"/>
    <path d="M42.770,36.461 C42.218,36.461 41.770,36.013 41.770,35.461 C41.770,35.461 41.770,17.247 41.770,17.247 C41.770,10.906 36.610,5.745 30.269,5.745 C30.269,5.745 21.384,5.745 21.384,5.745 C20.831,5.745 20.384,5.298 20.384,4.745 C20.384,4.193 20.831,3.746 21.384,3.746 C21.384,3.746 30.269,3.746 30.269,3.746 C37.714,3.746 43.770,9.803 43.770,17.247 C43.770,17.247 43.770,35.461 43.770,35.461 C43.770,36.013 43.323,36.461 42.770,36.461 Z" id="path-12" class="cls-5" fill-rule="evenodd"/>
    <path d="M16.598,52.802 C16.598,52.802 34.996,52.802 34.996,52.802 C34.996,52.802 34.996,18.542 34.996,18.542 C34.996,13.461 30.878,9.342 25.797,9.342 C20.716,9.342 16.598,13.461 16.598,18.542 C16.598,18.542 16.598,52.802 16.598,52.802 Z" id="path-13" class="cls-8" fill-rule="evenodd"/>
    <path d="M25.797,9.342 C25.068,9.342 24.362,9.436 23.683,9.596 C27.742,10.553 30.768,14.190 30.768,18.542 C30.768,18.542 30.768,52.802 30.768,52.802 C30.768,52.802 34.996,52.802 34.996,52.802 C34.996,52.802 34.996,18.542 34.996,18.542 C34.996,13.461 30.878,9.342 25.797,9.342 Z" id="path-14" class="cls-11" fill-rule="evenodd"/>
    <path d="M28.685,4.830 C28.685,6.351 27.451,7.584 25.931,7.584 C24.410,7.584 23.178,6.351 23.178,4.830 C23.178,3.309 24.410,2.076 25.931,2.076 C27.451,2.076 28.685,3.309 28.685,4.830 Z" id="path-15" class="cls-8" fill-rule="evenodd"/>
    <path d="M25.974,2.081 C26.342,2.549 26.570,3.131 26.570,3.773 C26.570,5.294 25.337,6.526 23.816,6.526 C23.802,6.526 23.788,6.522 23.773,6.522 C24.277,7.164 25.052,7.584 25.931,7.584 C27.451,7.584 28.685,6.351 28.685,4.830 C28.685,3.324 27.475,2.104 25.974,2.081 Z" id="path-16" class="cls-11" fill-rule="evenodd"/>
    <path d="M25.824,4.059 C25.824,4.598 25.387,5.036 24.848,5.036 C24.309,5.036 23.871,4.598 23.871,4.059 C23.871,3.520 24.309,3.083 24.848,3.083 C25.387,3.083 25.824,3.520 25.824,4.059 Z" id="path-17" class="cls-10" fill-rule="evenodd"/>
    <path d="M34.996,43.285 C34.996,43.285 16.598,43.285 16.598,43.285 C16.598,43.285 16.598,24.886 16.598,24.886 C16.598,24.886 34.996,24.886 34.996,24.886 C34.996,24.886 34.996,43.285 34.996,43.285 Z" id="path-18" class="cls-3" fill-rule="evenodd"/>
    <path d="M30.768,24.886 C30.768,24.886 30.768,43.285 30.768,43.285 C30.768,43.285 34.996,43.285 34.996,43.285 C34.996,43.285 34.996,24.886 34.996,24.886 C34.996,24.886 30.768,24.886 30.768,24.886 Z" id="path-19" class="cls-11" fill-rule="evenodd"/>
    <path d="M29.366,35.086 C29.366,35.086 22.018,35.086 22.018,35.086 C21.465,35.086 21.018,34.638 21.018,34.086 C21.018,33.534 21.465,33.086 22.018,33.086 C22.018,33.086 29.366,33.086 29.366,33.086 C29.919,33.086 30.366,33.534 30.366,34.086 C30.366,34.638 29.919,35.086 29.366,35.086 Z" id="path-20" class="cls-5" fill-rule="evenodd"/>
    <path d="M18.444,38.292 C17.892,38.292 17.444,37.845 17.444,37.292 C17.444,37.292 17.444,20.373 17.444,20.373 C17.444,16.920 19.172,13.728 22.064,11.834 C22.527,11.531 23.146,11.661 23.449,12.122 C23.752,12.585 23.622,13.204 23.160,13.507 C20.833,15.031 19.444,17.597 19.444,20.373 C19.444,20.373 19.444,37.292 19.444,37.292 C19.444,37.845 18.997,38.292 18.444,38.292 Z" id="path-21" class="cls-10" fill-rule="evenodd"/>
  </g>
</svg>
