<svg xmlns="http://www.w3.org/2000/svg" xmlns:xlink="http://www.w3.org/1999/xlink" preserveAspectRatio="xMidYMid" width="61" height="56" viewBox="0 0 61 56">
  <defs>
    <style>

      .cls-3 {
        fill: #fbb713;
      }

      .cls-4 {
        fill: #ffffff;
      }

      .cls-5 {
        fill: #020403;
        opacity: 0.25;
      }

      .cls-7 {
        fill: #ff3a2f;
      }

      .cls-8 {
        fill: #020403;
        opacity: 0.35;
      }

      .cls-10 {
        fill: #142a3b;
      }

      .cls-11 {
        fill: #020403;
      }
    </style>
  </defs>
  <g id="group-65svg">
    <path d="M19.955,40.314 C19.955,40.314 17.600,40.314 17.600,40.314 C13.421,40.314 10.270,36.921 10.270,32.422 C10.270,32.422 10.270,25.198 10.270,25.198 C10.270,24.641 10.721,24.191 11.277,24.191 C11.277,24.191 27.401,24.191 27.401,24.191 C27.958,24.191 28.409,24.641 28.409,25.198 C28.409,25.198 28.409,32.422 28.409,32.422 C28.409,36.626 24.459,40.314 19.955,40.314 Z" id="path-1" class="cls-3" fill-rule="evenodd"/>
    <path d="M13.172,35.356 C12.619,35.356 12.172,34.908 12.172,34.356 C12.172,34.356 12.172,27.133 12.172,27.133 C12.172,26.026 13.072,25.125 14.180,25.125 C14.732,25.125 15.180,25.573 15.180,26.125 C15.180,26.677 14.732,27.125 14.180,27.125 C14.180,27.125 14.172,34.356 14.172,34.356 C14.172,34.908 13.725,35.356 13.172,35.356 Z" id="path-2" class="cls-4" fill-rule="evenodd"/>
    <path d="M27.401,24.191 C27.401,24.191 23.572,24.191 23.572,24.191 C23.572,24.191 23.572,30.487 23.572,30.487 C23.572,34.690 19.621,38.379 15.117,38.379 C15.117,38.379 12.764,38.379 12.764,38.379 C12.741,38.379 12.720,38.376 12.697,38.376 C13.978,39.590 15.678,40.314 17.600,40.314 C17.600,40.314 19.955,40.314 19.955,40.314 C24.459,40.314 28.409,36.625 28.409,32.422 C28.409,32.422 28.409,25.198 28.409,25.198 C28.409,24.641 27.958,24.191 27.401,24.191 Z" id="path-3" class="cls-5" fill-rule="evenodd"/>
    <path d="M11.559,35.268 C11.559,35.268 8.659,35.268 8.659,35.268 C7.082,35.268 5.239,34.225 5.239,31.286 C5.239,31.286 5.239,29.188 5.239,29.188 C5.239,26.249 7.082,25.206 8.659,25.206 C8.659,25.206 11.238,25.206 11.238,25.206 C11.238,25.206 11.559,35.268 11.559,35.268 ZM8.659,27.206 C7.717,27.206 7.239,27.873 7.239,29.188 C7.239,29.188 7.239,31.286 7.239,31.286 C7.239,32.601 7.717,33.268 8.659,33.268 C8.659,33.268 9.494,33.268 9.494,33.268 C9.494,33.268 9.301,27.206 9.301,27.206 C9.301,27.206 8.659,27.206 8.659,27.206 Z" id="path-4" class="cls-3" fill-rule="evenodd"/>
    <path d="M53.601,48.375 C53.601,48.375 7.247,48.375 7.247,48.375 C6.689,48.375 6.239,47.925 6.239,47.368 C6.239,47.368 6.239,39.307 6.239,39.307 C6.239,38.749 6.689,38.298 7.247,38.298 C7.247,38.298 30.083,38.298 30.083,38.298 C30.083,38.298 35.625,16.129 35.625,16.129 C35.625,16.129 7.247,16.129 7.247,16.129 C6.689,16.129 6.239,15.678 6.239,15.121 C6.239,15.121 6.239,1.013 6.239,1.013 C6.239,0.456 6.689,0.005 7.247,0.005 C7.247,0.005 53.601,0.005 53.601,0.005 C54.159,0.005 54.609,0.456 54.609,1.013 C54.609,1.013 54.609,47.368 54.609,47.368 C54.609,47.925 54.159,48.375 53.601,48.375 Z" id="path-5" class="cls-7" fill-rule="evenodd"/>
    <path d="M7.623,16.129 C7.623,16.129 37.629,16.129 37.629,16.129 C37.629,16.129 38.626,13.226 38.626,13.226 C38.626,13.226 6.239,13.226 6.239,13.226 C6.239,13.226 6.239,15.121 6.239,15.121 C6.239,15.678 6.858,16.129 7.623,16.129 Z" id="path-6" class="cls-8" fill-rule="evenodd"/>
    <path d="M53.601,0.005 C53.601,0.005 48.805,0.005 48.805,0.005 C48.805,0.005 48.805,44.466 48.805,44.466 C48.805,45.023 48.354,45.473 47.797,45.473 C47.797,45.473 6.239,45.473 6.239,45.473 C6.239,45.473 6.239,47.368 6.239,47.368 C6.239,47.925 6.689,48.376 7.247,48.376 C7.247,48.376 53.601,48.376 53.601,48.376 C54.159,48.376 54.609,47.925 54.609,47.368 C54.609,47.368 54.609,1.013 54.609,1.013 C54.609,0.456 54.159,0.005 53.601,0.005 Z" id="path-7" class="cls-5" fill-rule="evenodd"/>
    <path d="M20.348,20.160 C20.348,20.160 18.332,20.160 18.332,20.160 C18.332,20.160 18.332,16.129 18.332,16.129 C18.332,16.129 20.348,16.129 20.348,16.129 C20.348,16.129 20.348,20.160 20.348,20.160 Z" id="path-8" class="cls-10" fill-rule="evenodd"/>
    <path d="M50.538,46.279 C50.538,46.279 42.477,46.279 42.477,46.279 C41.920,46.279 41.469,45.829 41.469,45.272 C41.469,45.272 41.469,41.241 41.469,41.241 C41.469,40.684 41.920,40.233 42.477,40.233 C42.477,40.233 50.538,40.233 50.538,40.233 C51.096,40.233 51.546,40.684 51.546,41.241 C51.546,41.241 51.546,45.272 51.546,45.272 C51.546,45.829 51.096,46.279 50.538,46.279 Z" id="path-9" class="cls-11" fill-rule="evenodd"/>
    <path d="M49.571,44.345 C49.571,44.345 41.509,44.345 41.509,44.345 C40.952,44.345 40.502,43.894 40.502,43.337 C40.502,43.337 40.502,39.307 40.502,39.307 C40.502,38.749 40.952,38.298 41.509,38.298 C41.509,38.298 49.571,38.298 49.571,38.298 C50.128,38.298 50.578,38.749 50.578,39.307 C50.578,39.307 50.578,43.337 50.578,43.337 C50.578,43.894 50.128,44.345 49.571,44.345 Z" id="path-10" class="cls-10" fill-rule="evenodd"/>
    <path d="M20.605,51.459 C20.605,51.459 24.803,51.459 24.803,51.459 C25.612,51.459 26.268,51.762 26.268,52.137 C26.268,52.511 25.612,52.814 24.803,52.814 C24.803,52.814 24.607,52.814 24.607,52.814 C23.799,52.814 23.142,53.118 23.142,53.492 C23.142,53.866 23.799,54.170 24.607,54.170 C24.607,54.170 33.632,54.170 33.632,54.170 C34.441,54.170 35.098,54.474 35.098,54.848 C35.098,55.222 34.441,55.526 33.632,55.526 C33.632,55.526 22.787,55.526 22.787,55.526 C22.787,55.526 10.867,55.526 10.867,55.526 C10.059,55.526 9.402,55.222 9.402,54.848 C9.402,54.474 10.059,54.170 10.867,54.170 C10.867,54.170 13.372,54.170 13.372,54.170 C14.182,54.170 14.838,53.866 14.838,53.492 C14.838,53.118 14.182,52.814 13.372,52.814 C13.372,52.814 1.453,52.814 1.453,52.814 C0.644,52.814 -0.013,52.511 -0.013,52.137 C-0.013,51.762 0.644,51.459 1.453,51.459 C1.453,51.459 4.269,51.459 4.269,51.459 C4.269,51.459 20.605,51.459 20.605,51.459 Z" id="path-11" class="cls-3" fill-rule="evenodd"/>
    <path d="M7.226,19.779 C7.226,19.779 8.577,19.779 8.577,19.779 C8.838,19.779 9.049,20.008 9.049,20.289 C9.049,20.571 8.838,20.799 8.577,20.799 C8.577,20.799 8.514,20.799 8.514,20.799 C8.253,20.799 8.042,21.027 8.042,21.310 C8.042,21.591 8.253,21.820 8.514,21.820 C8.514,21.820 11.419,21.820 11.419,21.820 C11.680,21.820 11.891,22.048 11.891,22.329 C11.891,22.611 11.680,22.840 11.419,22.840 C11.419,22.840 7.928,22.840 7.928,22.840 C7.928,22.840 4.090,22.840 4.090,22.840 C3.830,22.840 3.618,22.611 3.618,22.329 C3.618,22.048 3.830,21.820 4.090,21.820 C4.090,21.820 4.896,21.820 4.896,21.820 C5.157,21.820 5.368,21.591 5.368,21.310 C5.368,21.027 5.157,20.799 4.896,20.799 C4.896,20.799 1.059,20.799 1.059,20.799 C0.798,20.799 0.587,20.571 0.587,20.289 C0.587,20.008 0.798,19.779 1.059,19.779 C1.059,19.779 1.966,19.779 1.966,19.779 C1.966,19.779 7.226,19.779 7.226,19.779 Z" id="path-12" class="cls-10" fill-rule="evenodd"/>
    <path d="M55.321,32.738 C55.321,32.738 56.673,32.738 56.673,32.738 C56.934,32.738 57.145,32.966 57.145,33.247 C57.145,33.529 56.934,33.758 56.673,33.758 C56.673,33.758 56.610,33.758 56.610,33.758 C56.350,33.758 56.139,33.986 56.139,34.268 C56.139,34.550 56.350,34.778 56.610,34.778 C56.610,34.778 59.516,34.778 59.516,34.778 C59.776,34.778 59.987,35.006 59.987,35.288 C59.987,35.569 59.776,35.797 59.516,35.797 C59.516,35.797 56.023,35.797 56.023,35.797 C56.023,35.797 52.187,35.797 52.187,35.797 C51.926,35.797 51.715,35.569 51.715,35.288 C51.715,35.006 51.926,34.778 52.187,34.778 C52.187,34.778 52.992,34.778 52.992,34.778 C53.253,34.778 53.465,34.550 53.465,34.268 C53.465,33.986 53.253,33.758 52.992,33.758 C52.992,33.758 49.155,33.758 49.155,33.758 C48.894,33.758 48.684,33.529 48.684,33.247 C48.684,32.966 48.894,32.738 49.155,32.738 C49.155,32.738 50.062,32.738 50.062,32.738 C50.062,32.738 55.321,32.738 55.321,32.738 Z" id="path-13" class="cls-3" fill-rule="evenodd"/>
  </g>
</svg>
