<svg xmlns="http://www.w3.org/2000/svg" xmlns:xlink="http://www.w3.org/1999/xlink" preserveAspectRatio="xMidYMid" width="60" height="57" viewBox="0 0 60 57">
  <defs>
    <style>

      .cls-3 {
        fill: #142a3b;
      }

      .cls-9 {
        fill: #ffffff;
      }

      .cls-13 {
        fill: #ff3a2f;
      }

      .cls-15 {
        fill: #fbb713;
      }

      .cls-16 {
        fill: #020403;
        opacity: 0.25;
      }

      .cls-19 {
        fill: #242925;
        opacity: 0.35;
      }
    </style>
  </defs>
  <g id="group-160svg">
    <path d="M45.088,50.717 C45.088,50.717 46.168,50.717 46.168,50.717 C46.168,50.717 46.168,1.804 46.168,1.804 C46.168,1.804 45.088,1.804 45.088,1.804 C45.088,1.804 44.547,1.804 44.547,1.804 C44.547,1.804 44.547,50.717 44.547,50.717 C44.547,50.717 45.088,50.717 45.088,50.717 Z" id="path-1" class="cls-3" fill-rule="evenodd"/>
    <path d="M17.446,50.717 C17.446,50.717 18.527,50.717 18.527,50.717 C18.527,50.717 18.527,1.804 18.527,1.804 C18.527,1.804 17.446,1.804 17.446,1.804 C17.446,1.804 16.906,1.804 16.906,1.804 C16.906,1.804 16.906,50.717 16.906,50.717 C16.906,50.717 17.446,50.717 17.446,50.717 Z" id="path-2" class="cls-3" fill-rule="evenodd"/>
    <path d="M35.679,22.048 C36.070,21.680 36.513,21.331 36.999,21.004 C36.483,21.327 36.046,21.681 35.679,22.048 Z" id="path-3" class="cls-3" fill-rule="evenodd"/>
    <path d="M36.999,31.514 C36.513,31.188 36.070,30.839 35.679,30.470 C36.046,30.838 36.483,31.191 36.999,31.514 Z" id="path-4" class="cls-3" fill-rule="evenodd"/>
    <path d="M27.480,30.472 C27.090,30.839 26.648,31.186 26.164,31.512 C26.679,31.190 27.114,30.838 27.480,30.472 Z" id="path-5" class="cls-3" fill-rule="evenodd"/>
    <path d="M26.164,21.007 C26.648,21.332 27.090,21.680 27.480,22.048 C27.114,21.681 26.679,21.329 26.164,21.007 Z" id="path-6" class="cls-3" fill-rule="evenodd"/>
    <path d="M37.779,20.572 C38.223,20.356 38.640,20.128 39.037,19.887 C38.294,20.220 37.612,20.594 36.999,21.004 C37.241,20.853 37.499,20.707 37.779,20.572 Z" id="path-7" class="cls-9" fill-rule="evenodd"/>
    <path d="M36.999,31.514 C37.612,31.926 38.294,32.300 39.037,32.631 C38.640,32.391 38.223,32.163 37.779,31.947 C37.499,31.811 37.241,31.666 36.999,31.514 Z" id="path-8" class="cls-9" fill-rule="evenodd"/>
    <path d="M25.380,31.947 C24.937,32.163 24.520,32.391 24.122,32.631 C24.867,32.300 25.550,31.923 26.164,31.512 C25.921,31.664 25.662,31.810 25.380,31.947 Z" id="path-9" class="cls-9" fill-rule="evenodd"/>
    <path d="M26.164,21.007 C25.550,20.595 24.867,20.220 24.122,19.887 C24.520,20.128 24.937,20.356 25.380,20.572 C25.662,20.708 25.921,20.854 26.164,21.007 Z" id="path-10" class="cls-9" fill-rule="evenodd"/>
    <path d="M15.859,51.709 C15.866,51.763 15.870,51.817 15.885,51.868 C15.886,51.865 15.889,51.862 15.890,51.859 C15.998,52.230 16.329,52.507 16.735,52.507 C16.735,52.507 46.424,52.507 46.424,52.507 C46.835,52.507 47.167,52.225 47.272,51.848 C47.275,51.855 47.280,51.860 47.282,51.868 C47.307,51.787 47.324,51.702 47.324,51.611 C47.324,51.117 46.923,50.716 46.429,50.716 C46.429,50.716 46.424,50.716 46.424,50.716 C46.424,50.716 16.739,50.716 16.739,50.716 C16.739,50.716 16.735,50.716 16.735,50.716 C16.241,50.716 15.840,51.117 15.840,51.611 C15.840,51.646 15.855,51.675 15.859,51.709 Z" id="path-11" class="cls-13" fill-rule="evenodd"/>
    <path d="M16.735,1.803 C16.735,1.803 46.424,1.803 46.424,1.803 C46.919,1.803 47.320,1.402 47.320,0.907 C47.320,0.412 46.919,0.011 46.424,0.011 C46.424,0.011 16.735,0.011 16.735,0.011 C16.241,0.011 15.840,0.412 15.840,0.907 C15.840,1.402 16.241,1.803 16.735,1.803 Z" id="path-12" class="cls-13" fill-rule="evenodd"/>
    <path d="M26.164,31.512 C25.550,31.923 24.867,32.299 24.122,32.631 C20.948,34.549 19.238,37.333 19.238,42.185 C19.238,47.644 19.238,50.716 19.238,50.716 C19.238,50.716 19.242,50.716 19.242,50.716 C19.242,50.716 19.242,50.717 19.242,50.717 C19.242,50.717 23.508,50.717 23.508,50.717 C23.508,50.717 29.565,50.717 29.565,50.717 C29.565,50.717 29.565,50.716 29.565,50.716 C29.565,50.716 31.182,50.716 31.182,50.716 C31.182,50.716 31.978,50.716 31.978,50.716 C31.978,50.716 33.602,50.716 33.602,50.716 C33.602,50.716 33.602,50.717 33.602,50.717 C33.602,50.717 39.660,50.717 39.660,50.717 C39.660,50.717 39.660,50.716 39.660,50.716 C39.660,50.716 43.922,50.716 43.922,50.716 C43.922,50.716 43.922,47.644 43.922,42.185 C43.922,37.333 42.211,34.549 39.037,32.631 C38.294,32.299 37.612,31.926 36.999,31.514 C36.483,31.192 36.046,30.838 35.679,30.470 C34.379,29.247 33.627,27.805 33.627,26.260 C33.627,24.715 34.379,23.272 35.679,22.048 C36.046,21.681 36.483,21.327 36.999,21.004 C37.612,20.594 38.294,20.220 39.037,19.887 C42.211,17.971 43.922,15.186 43.922,10.334 C43.922,4.874 43.922,1.803 43.922,1.803 C43.922,1.803 31.978,1.803 31.978,1.803 C31.978,1.803 31.182,1.803 31.182,1.803 C31.182,1.803 19.238,1.803 19.238,1.803 C19.238,1.803 19.238,4.874 19.238,10.334 C19.238,15.186 20.948,17.970 24.122,19.887 C24.867,20.220 25.550,20.595 26.164,21.007 C26.679,21.329 27.114,21.681 27.480,22.048 C28.781,23.271 29.532,24.713 29.532,26.260 C29.532,27.805 28.781,29.247 27.480,30.472 C27.114,30.838 26.679,31.190 26.164,31.512 Z" id="path-13" class="cls-15" fill-rule="evenodd"/>
    <path d="M39.660,1.804 C39.660,1.804 39.660,4.877 39.660,10.336 C39.660,15.188 38.541,17.971 36.464,19.889 C35.977,20.220 35.531,20.595 35.130,21.007 C34.792,21.329 34.506,21.683 34.266,22.051 C33.416,23.274 32.923,24.716 32.923,26.260 C32.923,27.806 33.416,29.248 34.266,30.472 C34.506,30.840 34.792,31.193 35.130,31.515 C35.531,31.926 35.977,32.301 36.464,32.633 C38.541,34.550 39.660,37.334 39.660,42.186 C39.660,47.636 39.660,50.704 39.660,50.717 C39.660,50.717 43.926,50.717 43.926,50.717 C43.926,50.717 43.926,47.645 43.926,42.185 C43.926,37.332 42.215,34.549 39.041,32.631 C38.298,32.300 37.616,31.926 37.003,31.514 C36.487,31.192 36.049,30.839 35.682,30.472 C34.383,29.247 33.631,27.805 33.631,26.260 C33.631,24.715 34.383,23.273 35.682,22.048 C36.049,21.681 36.487,21.328 37.003,21.005 C37.616,20.594 38.298,20.220 39.041,19.888 C42.215,17.971 43.926,15.187 43.926,10.335 C43.926,4.875 43.926,1.804 43.926,1.804 C43.926,1.804 33.602,1.804 33.602,1.804 C33.602,1.804 33.602,1.804 33.602,1.804 C33.602,1.804 39.660,1.804 39.660,1.804 Z" id="path-14" class="cls-16" fill-rule="evenodd"/>
    <path d="M27.308,18.979 C27.132,18.979 26.954,18.933 26.792,18.835 C23.080,16.593 21.424,13.383 21.424,8.426 C21.424,8.426 22.421,6.061 22.421,6.061 C22.421,6.061 23.424,8.426 23.424,8.426 C23.424,12.659 24.741,15.259 27.826,17.123 C28.299,17.409 28.451,18.024 28.165,18.496 C27.977,18.808 27.647,18.979 27.308,18.979 ZM23.117,4.409 C23.117,4.409 23.424,3.678 23.424,3.678 C23.424,3.962 23.306,4.223 23.117,4.409 Z" id="path-15" class="cls-9" fill-rule="evenodd"/>
    <path d="M23.424,48.842 C23.424,48.842 23.105,48.084 23.105,48.084 C23.302,48.262 23.424,48.518 23.424,48.807 C23.424,48.807 23.424,48.842 23.424,48.842 ZM22.424,46.467 C22.424,46.467 21.424,44.094 21.424,44.094 C21.424,39.137 23.080,35.927 26.792,33.684 C26.792,33.684 26.902,33.626 26.902,33.626 C27.590,33.320 28.225,32.973 28.790,32.593 C29.247,32.286 29.870,32.407 30.177,32.865 C30.485,33.324 30.363,33.945 29.905,34.253 C29.261,34.685 28.545,35.080 27.775,35.427 C24.726,37.289 23.424,39.885 23.424,44.094 C23.424,44.094 22.424,46.467 22.424,46.467 Z" id="path-16" class="cls-9" fill-rule="evenodd"/>
    <path d="M43.922,50.759 C43.922,50.759 37.751,50.780 31.580,50.802 C25.409,50.780 19.238,50.759 19.238,50.759 C19.238,50.759 19.238,50.672 19.238,50.672 C19.238,50.672 19.623,50.607 20.299,50.529 C20.974,50.470 21.938,50.323 23.095,50.259 C24.252,50.194 25.602,50.068 27.048,50.024 C28.495,49.962 30.037,49.952 31.580,49.936 C33.122,49.952 34.666,49.964 36.112,50.026 C37.558,50.072 38.908,50.195 40.065,50.260 C41.222,50.327 42.186,50.471 42.861,50.530 C43.536,50.608 43.922,50.672 43.922,50.672 C43.922,50.672 43.922,50.759 43.922,50.759 Z" id="path-17" class="cls-19" fill-rule="evenodd"/>
    <path d="M43.922,1.803 C43.922,1.803 19.238,1.803 19.238,1.803 C19.238,1.803 19.238,3.331 19.238,3.331 C19.238,3.331 43.922,5.240 43.922,5.240 C43.922,5.240 43.922,1.803 43.922,1.803 Z" id="path-18" class="cls-19" fill-rule="evenodd"/>
    <path d="M20.357,51.988 C20.357,51.988 24.499,51.988 24.499,51.988 C25.298,51.988 25.945,52.288 25.945,52.657 C25.945,53.027 25.298,53.326 24.499,53.326 C24.499,53.326 24.306,53.326 24.306,53.326 C23.508,53.326 22.860,53.625 22.860,53.995 C22.860,54.364 23.508,54.664 24.306,54.664 C24.306,54.664 33.209,54.664 33.209,54.664 C34.008,54.664 34.656,54.963 34.656,55.332 C34.656,55.702 34.008,56.001 33.209,56.001 C33.209,56.001 22.510,56.001 22.510,56.001 C22.510,56.001 10.750,56.001 10.750,56.001 C9.952,56.001 9.304,55.702 9.304,55.332 C9.304,54.963 9.952,54.664 10.750,54.664 C10.750,54.664 13.221,54.664 13.221,54.664 C14.020,54.664 14.667,54.364 14.667,53.995 C14.667,53.625 14.020,53.326 13.221,53.326 C13.221,53.326 1.461,53.326 1.461,53.326 C0.663,53.326 0.016,53.027 0.016,52.657 C0.016,52.288 0.663,51.988 1.461,51.988 C1.461,51.988 4.241,51.988 4.241,51.988 C4.241,51.988 20.357,51.988 20.357,51.988 Z" id="path-19" class="cls-3" fill-rule="evenodd"/>
    <path d="M9.869,18.726 C9.869,18.726 11.202,18.726 11.202,18.726 C11.459,18.726 11.667,18.952 11.667,19.230 C11.667,19.508 11.459,19.733 11.202,19.733 C11.202,19.733 11.140,19.733 11.140,19.733 C10.883,19.733 10.675,19.959 10.675,20.236 C10.675,20.514 10.883,20.739 11.140,20.739 C11.140,20.739 14.007,20.739 14.007,20.739 C14.264,20.739 14.472,20.965 14.472,21.243 C14.472,21.521 14.264,21.746 14.007,21.746 C14.007,21.746 10.562,21.746 10.562,21.746 C10.562,21.746 6.775,21.746 6.775,21.746 C6.519,21.746 6.310,21.521 6.310,21.243 C6.310,20.965 6.519,20.739 6.775,20.739 C6.775,20.739 7.571,20.739 7.571,20.739 C7.828,20.739 8.037,20.514 8.037,20.236 C8.037,19.959 7.828,19.733 7.571,19.733 C7.571,19.733 3.785,19.733 3.785,19.733 C3.528,19.733 3.319,19.508 3.319,19.230 C3.319,18.952 3.528,18.726 3.785,18.726 C3.785,18.726 4.680,18.726 4.680,18.726 C4.680,18.726 9.869,18.726 9.869,18.726 Z" id="path-20" class="cls-3" fill-rule="evenodd"/>
    <path d="M55.412,31.511 C55.412,31.511 56.746,31.511 56.746,31.511 C57.002,31.511 57.211,31.736 57.211,32.014 C57.211,32.292 57.002,32.518 56.746,32.518 C56.746,32.518 56.683,32.518 56.683,32.518 C56.426,32.518 56.218,32.743 56.218,33.021 C56.218,33.299 56.426,33.524 56.683,33.524 C56.683,33.524 59.550,33.524 59.550,33.524 C59.807,33.524 60.016,33.750 60.016,34.027 C60.016,34.305 59.807,34.531 59.550,34.531 C59.550,34.531 56.105,34.531 56.105,34.531 C56.105,34.531 52.319,34.531 52.319,34.531 C52.062,34.531 51.853,34.305 51.853,34.027 C51.853,33.750 52.062,33.524 52.319,33.524 C52.319,33.524 53.114,33.524 53.114,33.524 C53.372,33.524 53.580,33.299 53.580,33.021 C53.580,32.743 53.372,32.518 53.114,32.518 C53.114,32.518 49.328,32.518 49.328,32.518 C49.071,32.518 48.863,32.292 48.863,32.014 C48.863,31.736 49.071,31.511 49.328,31.511 C49.328,31.511 50.223,31.511 50.223,31.511 C50.223,31.511 55.412,31.511 55.412,31.511 Z" id="path-21" class="cls-3" fill-rule="evenodd"/>
  </g>
</svg>
