<svg xmlns="http://www.w3.org/2000/svg" xmlns:xlink="http://www.w3.org/1999/xlink" preserveAspectRatio="xMidYMid" width="55" height="61" viewBox="0 0 55 61">
  <defs>
    <style>

      .cls-3 {
        fill: #ff3a2f;
      }

      .cls-6 {
        fill: #142a3b;
      }

      .cls-7 {
        fill: #020403;
        opacity: 0.35;
      }

      .cls-10 {
        fill: #ffffff;
      }
    </style>
  </defs>
  <g id="group-120svg">
    <path d="M21.664,55.241 C21.664,55.241 26.072,55.241 26.072,55.241 C26.922,55.241 27.611,55.551 27.611,55.932 C27.611,56.314 26.922,56.623 26.072,56.623 C26.072,56.623 25.867,56.623 25.867,56.623 C25.017,56.623 24.328,56.932 24.328,57.314 C24.328,57.696 25.017,58.005 25.867,58.005 C25.867,58.005 35.344,58.005 35.344,58.005 C36.194,58.005 36.883,58.315 36.883,58.696 C36.883,59.078 36.194,59.387 35.344,59.387 C35.344,59.387 23.955,59.387 23.955,59.387 C23.955,59.387 11.437,59.387 11.437,59.387 C10.588,59.387 9.898,59.078 9.898,58.696 C9.898,58.315 10.588,58.005 11.437,58.005 C11.437,58.005 14.067,58.005 14.067,58.005 C14.918,58.005 15.606,57.696 15.606,57.314 C15.606,56.932 14.918,56.623 14.067,56.623 C14.067,56.623 1.550,56.623 1.550,56.623 C0.700,56.623 0.011,56.314 0.011,55.932 C0.011,55.551 0.700,55.241 1.550,55.241 C1.550,55.241 4.509,55.241 4.509,55.241 C4.509,55.241 21.664,55.241 21.664,55.241 Z" id="path-1" class="cls-3" fill-rule="evenodd"/>
    <path d="M48.949,59.985 C49.920,59.985 50.707,59.632 50.707,59.196 C50.707,58.760 49.920,58.407 48.949,58.407 C48.949,58.407 43.564,58.407 43.564,58.407 C42.594,58.407 41.808,58.760 41.808,59.196 C41.808,59.632 42.594,59.985 43.564,59.985 C43.564,59.985 48.949,59.985 48.949,59.985 Z" id="path-2" class="cls-3" fill-rule="evenodd"/>
    <path d="M48.287,50.994 C48.287,50.994 50.311,50.994 50.311,50.994 C50.702,50.994 51.019,51.169 51.019,51.386 C51.019,51.602 50.702,51.778 50.311,51.778 C50.311,51.778 50.218,51.778 50.218,51.778 C49.827,51.778 49.511,51.953 49.511,52.170 C49.511,52.386 49.827,52.562 50.218,52.562 C50.218,52.562 54.569,52.562 54.569,52.562 C54.959,52.562 55.275,52.737 55.275,52.954 C55.275,53.170 54.959,53.346 54.569,53.346 C54.569,53.346 49.340,53.346 49.340,53.346 C49.340,53.346 38.650,53.346 38.650,53.346 C38.260,53.346 37.943,53.170 37.943,52.954 C37.943,52.737 38.260,52.562 38.650,52.562 C38.650,52.562 39.858,52.562 39.858,52.562 C40.248,52.562 40.564,52.386 40.564,52.170 C40.564,51.953 40.248,51.778 39.858,51.778 C39.858,51.778 34.110,51.778 34.110,51.778 C33.720,51.778 33.404,51.602 33.404,51.386 C33.404,51.169 33.720,50.994 34.110,50.994 C34.110,50.994 35.469,50.994 35.469,50.994 C35.469,50.994 48.287,50.994 48.287,50.994 Z" id="path-3" class="cls-3" fill-rule="evenodd"/>
    <path d="M20.751,38.134 C20.751,38.134 39.941,2.478 39.941,2.478 C39.958,2.445 39.956,2.409 39.974,2.376 C40.023,2.264 40.050,2.153 40.076,2.036 C40.100,1.933 40.125,1.836 40.128,1.731 C40.131,1.623 40.114,1.521 40.098,1.414 C40.080,1.304 40.066,1.198 40.025,1.093 C39.992,0.997 39.937,0.915 39.887,0.827 C39.827,0.722 39.767,0.620 39.683,0.529 C39.656,0.504 39.647,0.469 39.621,0.443 C39.566,0.390 39.494,0.368 39.432,0.323 C39.366,0.276 39.322,0.210 39.250,0.172 C39.214,0.153 39.177,0.154 39.141,0.138 C39.039,0.091 38.934,0.068 38.824,0.042 C38.715,0.017 38.609,-0.011 38.500,-0.014 C38.396,-0.018 38.300,0.000 38.196,0.016 C38.082,0.032 37.973,0.048 37.864,0.087 C37.770,0.120 37.689,0.173 37.602,0.224 C37.496,0.286 37.395,0.346 37.303,0.432 C37.275,0.456 37.242,0.465 37.215,0.493 C37.215,0.493 9.810,29.055 9.810,29.055 C5.852,30.845 -0.359,36.193 2.419,44.823 C4.217,50.401 4.002,51.553 3.917,51.744 C3.849,51.810 3.568,51.939 3.363,52.033 C2.959,52.221 2.523,52.428 2.086,52.731 C2.086,52.731 0.879,53.684 0.879,53.684 C0.879,53.684 1.228,54.871 1.228,54.871 C1.344,55.269 1.777,56.198 3.279,56.239 C6.980,56.342 18.378,52.066 20.751,38.134 Z" id="path-4" class="cls-6" fill-rule="evenodd"/>
    <path d="M18.720,35.087 C18.720,35.087 37.410,0.357 37.410,0.357 C37.474,0.311 37.534,0.263 37.602,0.224 C37.689,0.173 37.770,0.120 37.864,0.087 C37.973,0.048 38.082,0.032 38.196,0.016 C38.300,0.000 38.396,-0.018 38.500,-0.014 C38.609,-0.011 38.715,0.017 38.824,0.042 C38.934,0.068 39.039,0.091 39.141,0.139 C39.177,0.154 39.214,0.153 39.250,0.172 C39.322,0.210 39.366,0.276 39.432,0.323 C39.494,0.368 39.566,0.390 39.621,0.443 C39.647,0.469 39.656,0.504 39.683,0.529 C39.767,0.620 39.827,0.722 39.887,0.827 C39.937,0.915 39.992,0.997 40.026,1.093 C40.066,1.198 40.080,1.304 40.098,1.414 C40.114,1.521 40.131,1.623 40.128,1.731 C40.125,1.836 40.100,1.933 40.076,2.036 C40.050,2.153 40.023,2.264 39.974,2.376 C39.956,2.409 39.958,2.445 39.941,2.478 C39.941,2.478 20.751,38.134 20.751,38.134 C18.378,52.066 6.980,56.342 3.279,56.239 C1.777,56.198 1.344,55.269 1.228,54.872 C1.228,54.872 0.879,53.684 0.879,53.684 C0.879,53.684 1.518,53.180 1.518,53.180 C5.455,53.093 16.397,48.717 18.720,35.087 Z" id="path-5" class="cls-7" fill-rule="evenodd"/>
    <path d="M21.157,37.381 C21.157,37.381 20.751,38.134 20.751,38.134 C18.378,52.066 6.980,56.342 3.279,56.239 C1.777,56.198 1.344,55.269 1.228,54.871 C1.228,54.871 0.879,53.685 0.879,53.685 C0.879,53.685 2.086,52.731 2.086,52.731 C2.523,52.428 2.959,52.222 3.363,52.033 C3.568,51.939 3.849,51.810 3.917,51.744 C4.002,51.553 4.217,50.401 2.419,44.824 C-0.170,36.781 5.046,31.592 8.973,29.474 C8.973,29.474 21.157,37.381 21.157,37.381 Z" id="path-6" class="cls-3" fill-rule="evenodd"/>
    <path d="M15.250,39.214 C15.546,37.946 15.141,36.609 14.202,35.706 C14.202,35.706 8.190,29.928 8.190,29.928 C8.455,29.764 8.717,29.612 8.973,29.474 C8.973,29.474 21.157,37.381 21.157,37.381 C21.157,37.381 20.751,38.134 20.751,38.134 C18.378,52.066 6.980,56.342 3.279,56.239 C2.055,56.205 1.546,55.585 1.335,55.140 C5.548,54.561 12.635,50.393 15.250,39.214 Z" id="path-7" class="cls-7" fill-rule="evenodd"/>
    <path d="M3.121,39.929 C3.121,41.099 4.069,42.046 5.238,42.046 C6.407,42.046 7.354,41.099 7.354,39.929 C7.354,38.761 6.407,37.813 5.238,37.813 C4.069,37.813 3.121,38.761 3.121,39.929 Z" id="path-8" class="cls-10" fill-rule="evenodd"/>
  </g>
</svg>
