<svg xmlns="http://www.w3.org/2000/svg" xmlns:xlink="http://www.w3.org/1999/xlink" preserveAspectRatio="xMidYMid" width="61" height="52" viewBox="0 0 61 52">
  <defs>
    <style>

      .cls-3 {
        fill: #2476ff;
      }

      .cls-6 {
        fill: #ededed;
      }

      .cls-7 {
        fill: #000000;
        opacity: 0.25;
      }

      .cls-10 {
        fill: #ff3a2f;
      }
    </style>
  </defs>
  <g id="group-29svg">
    <path d="M17.107,39.487 C17.107,39.487 20.592,39.487 20.592,39.487 C21.264,39.487 21.809,39.832 21.809,40.257 C21.809,40.683 21.264,41.028 20.592,41.028 C20.592,41.028 20.430,41.028 20.430,41.028 C19.758,41.028 19.214,41.373 19.214,41.799 C19.214,42.224 19.758,42.570 20.430,42.570 C20.430,42.570 27.921,42.570 27.921,42.570 C28.593,42.570 29.138,42.915 29.138,43.340 C29.138,43.766 28.593,44.111 27.921,44.111 C27.921,44.111 18.919,44.111 18.919,44.111 C18.919,44.111 9.024,44.111 9.024,44.111 C8.352,44.111 7.808,43.766 7.808,43.340 C7.808,42.915 8.352,42.570 9.024,42.570 C9.024,42.570 11.103,42.570 11.103,42.570 C11.775,42.570 12.320,42.224 12.320,41.799 C12.320,41.373 11.775,41.028 11.103,41.028 C11.103,41.028 1.209,41.028 1.209,41.028 C0.537,41.028 -0.008,40.683 -0.008,40.257 C-0.008,39.832 0.537,39.487 1.209,39.487 C1.209,39.487 3.547,39.487 3.547,39.487 C3.547,39.487 17.107,39.487 17.107,39.487 Z" id="path-1" class="cls-3" fill-rule="evenodd"/>
    <path d="M58.168,40.060 C59.176,40.060 59.992,39.542 59.992,38.903 C59.992,38.265 59.176,37.748 58.168,37.748 C58.168,37.748 52.576,37.748 52.576,37.748 C51.568,37.748 50.751,38.265 50.751,38.903 C50.751,39.542 51.568,40.060 52.576,40.060 C52.576,40.060 58.168,40.060 58.168,40.060 Z" id="path-2" class="cls-3" fill-rule="evenodd"/>
    <path d="M46.181,51.366 C47.188,51.366 48.006,50.848 48.006,50.209 C48.006,49.571 47.188,49.053 46.181,49.053 C46.181,49.053 40.589,49.053 40.589,49.053 C39.581,49.053 38.764,49.571 38.764,50.209 C38.764,50.848 39.581,51.366 40.589,51.366 C40.589,51.366 46.181,51.366 46.181,51.366 Z" id="path-3" class="cls-3" fill-rule="evenodd"/>
    <path d="M34.921,1.565 C23.148,1.565 13.604,11.109 13.604,22.882 C13.604,34.655 23.148,44.198 34.921,44.198 C46.694,44.198 56.238,34.655 56.238,22.882 C56.238,11.109 46.694,1.565 34.921,1.565 ZM34.921,34.535 C28.485,34.535 23.268,29.318 23.268,22.882 C23.268,16.446 28.485,11.229 34.921,11.229 C41.357,11.229 46.574,16.446 46.574,22.882 C46.574,29.318 41.357,34.535 34.921,34.535 Z" id="path-4" class="cls-6" fill-rule="evenodd"/>
    <path d="M54.735,15.055 C54.735,15.055 44.192,15.842 44.192,15.842 C45.186,17.148 45.911,18.665 46.283,20.320 C46.283,20.320 55.959,19.598 55.959,19.598 C55.715,18.020 55.307,16.499 54.735,15.055 Z" id="path-5" class="cls-7" fill-rule="evenodd"/>
    <path d="M38.205,11.705 C40.052,12.247 41.707,13.232 43.050,14.541 C43.050,14.541 42.178,2.859 42.178,2.859 C40.675,2.314 39.100,1.925 37.460,1.730 C37.460,1.730 38.205,11.705 38.205,11.705 Z" id="path-6" class="cls-7" fill-rule="evenodd"/>
    <path d="M41.939,32.169 C40.678,33.124 39.220,33.826 37.633,34.205 C37.633,34.205 39.515,43.689 39.515,43.689 C41.057,43.350 42.529,42.836 43.927,42.182 C43.927,42.182 41.939,32.169 41.939,32.169 Z" id="path-7" class="cls-7" fill-rule="evenodd"/>
    <path d="M36.974,13.287 C36.974,13.287 33.733,13.287 33.733,13.287 C32.416,13.287 31.305,12.308 31.137,11.002 C31.137,11.002 30.103,2.943 30.103,2.943 C29.902,1.378 31.122,-0.008 32.700,-0.008 C32.700,-0.008 38.008,-0.008 38.008,-0.008 C39.586,-0.008 40.805,1.378 40.604,2.943 C40.604,2.943 39.570,11.002 39.570,11.002 C39.403,12.308 38.291,13.287 36.974,13.287 Z" id="path-8" class="cls-10" fill-rule="evenodd"/>
    <path d="M33.733,32.394 C33.733,32.394 36.974,32.394 36.974,32.394 C38.291,32.394 39.403,33.372 39.570,34.679 C39.570,34.679 40.604,42.737 40.604,42.737 C40.805,44.303 39.586,45.688 38.008,45.688 C38.008,45.688 32.700,45.688 32.700,45.688 C31.122,45.688 29.902,44.303 30.103,42.737 C30.103,42.737 31.137,34.679 31.137,34.679 C31.305,33.372 32.416,32.394 33.733,32.394 Z" id="path-9" class="cls-10" fill-rule="evenodd"/>
    <path d="M44.907,24.461 C44.907,24.461 44.907,21.220 44.907,21.220 C44.907,19.903 45.886,18.791 47.192,18.623 C47.192,18.623 55.251,17.590 55.251,17.590 C56.816,17.389 58.202,18.608 58.202,20.186 C58.202,20.186 58.202,25.494 58.202,25.494 C58.202,27.072 56.816,28.292 55.251,28.091 C55.251,28.091 47.192,27.057 47.192,27.057 C45.886,26.890 44.907,25.778 44.907,24.461 Z" id="path-10" class="cls-10" fill-rule="evenodd"/>
    <path d="M25.801,21.220 C25.801,21.220 25.801,24.461 25.801,24.461 C25.801,25.778 24.822,26.890 23.516,27.057 C23.516,27.057 15.457,28.091 15.457,28.091 C13.892,28.292 12.506,27.072 12.506,25.494 C12.506,25.494 12.506,20.186 12.506,20.186 C12.506,18.608 13.892,17.389 15.457,17.590 C15.457,17.590 23.516,18.623 23.516,18.623 C24.822,18.791 25.801,19.903 25.801,21.220 Z" id="path-11" class="cls-10" fill-rule="evenodd"/>
  </g>
</svg>
