<svg xmlns="http://www.w3.org/2000/svg" xmlns:xlink="http://www.w3.org/1999/xlink" preserveAspectRatio="xMidYMid" width="55" height="61" viewBox="0 0 55 61">
  <defs>
    <style>

      .cls-3 {
        fill: #2476ff;
      }

      .cls-7 {
        fill: #ffffff;
      }

      .cls-10 {
        fill: #ff3a2f;
      }

      .cls-12 {
        fill: #142a3b;
      }

      .cls-13 {
        fill: #0cb04a;
      }

      .cls-14 {
        fill: #020403;
        opacity: 0.35;
      }
    </style>
  </defs>
  <g id="group-140svg">
    <path d="M23.701,52.017 C23.701,52.017 27.213,52.017 27.213,52.017 C27.891,52.017 28.439,52.365 28.439,52.794 C28.439,53.224 27.891,53.571 27.213,53.571 C27.213,53.571 27.050,53.571 27.050,53.571 C26.372,53.571 25.823,53.919 25.823,54.348 C25.823,54.777 26.372,55.125 27.050,55.125 C27.050,55.125 34.600,55.125 34.600,55.125 C35.276,55.125 35.825,55.473 35.825,55.901 C35.825,56.330 35.276,56.678 34.600,56.678 C34.600,56.678 25.526,56.678 25.526,56.678 C25.526,56.678 15.554,56.678 15.554,56.678 C14.877,56.678 14.328,56.330 14.328,55.901 C14.328,55.473 14.877,55.125 15.554,55.125 C15.554,55.125 17.649,55.125 17.649,55.125 C18.326,55.125 18.876,54.777 18.876,54.348 C18.876,53.919 18.326,53.571 17.649,53.571 C17.649,53.571 7.677,53.571 7.677,53.571 C7.000,53.571 6.451,53.224 6.451,52.794 C6.451,52.365 7.000,52.017 7.677,52.017 C7.677,52.017 10.034,52.017 10.034,52.017 C10.034,52.017 23.701,52.017 23.701,52.017 Z" id="path-1" class="cls-3" fill-rule="evenodd"/>
    <path d="M45.206,57.257 C46.021,57.257 46.683,56.735 46.683,56.092 C46.683,55.448 46.021,54.926 45.206,54.926 C45.206,54.926 40.684,54.926 40.684,54.926 C39.868,54.926 39.207,55.448 39.207,56.092 C39.207,56.735 39.868,57.257 40.684,57.257 C40.684,57.257 45.206,57.257 45.206,57.257 Z" id="path-2" class="cls-3" fill-rule="evenodd"/>
    <path d="M9.748,60.367 C10.764,60.367 11.587,59.846 11.587,59.202 C11.587,58.559 10.764,58.037 9.748,58.037 C9.748,58.037 4.111,58.037 4.111,58.037 C3.096,58.037 2.272,58.559 2.272,59.202 C2.272,59.846 3.096,60.367 4.111,60.367 C4.111,60.367 9.748,60.367 9.748,60.367 Z" id="path-3" class="cls-3" fill-rule="evenodd"/>
    <path d="M6.145,31.641 C6.145,33.337 4.770,34.712 3.075,34.712 C1.379,34.712 0.004,33.337 0.004,31.641 C0.004,29.946 1.379,28.571 3.075,28.571 C4.770,28.571 6.145,29.946 6.145,31.641 Z" id="path-4" class="cls-3" fill-rule="evenodd"/>
    <path d="M4.463,30.606 C4.463,31.372 3.841,31.994 3.075,31.994 C2.308,31.994 1.687,31.372 1.687,30.606 C1.687,29.840 2.308,29.218 3.075,29.218 C3.841,29.218 4.463,29.840 4.463,30.606 Z" id="path-5" class="cls-7" fill-rule="evenodd"/>
    <path d="M5.061,10.081 C5.061,11.178 4.172,12.067 3.075,12.067 C1.978,12.067 1.088,11.178 1.088,10.081 C1.088,8.984 1.978,8.094 3.075,8.094 C4.172,8.094 5.061,8.984 5.061,10.081 Z" id="path-6" class="cls-3" fill-rule="evenodd"/>
    <path d="M16.931,1.796 C16.931,2.586 16.291,3.226 15.502,3.226 C14.712,3.226 14.072,2.586 14.072,1.796 C14.072,1.007 14.712,0.367 15.502,0.367 C16.291,0.367 16.931,1.007 16.931,1.796 Z" id="path-7" class="cls-3" fill-rule="evenodd"/>
    <path d="M9.487,22.762 C9.487,22.762 6.889,22.762 6.889,22.762 C6.889,22.762 6.889,14.936 6.889,14.936 C6.889,14.936 9.487,14.936 9.487,14.936 C9.487,14.936 9.487,22.762 9.487,22.762 Z" id="path-8" class="cls-10" fill-rule="evenodd"/>
    <path d="M53.552,22.762 C53.552,22.762 49.842,22.762 49.842,22.762 C49.842,22.762 49.842,14.936 49.842,14.936 C49.842,14.936 53.552,14.936 53.552,14.936 C53.552,14.936 53.552,22.762 53.552,22.762 Z" id="path-9" class="cls-10" fill-rule="evenodd"/>
    <path d="M9.487,14.636 C9.487,14.636 9.487,23.063 9.487,23.063 C9.487,25.390 11.374,27.276 13.701,27.276 C13.701,27.276 22.600,27.276 22.600,27.276 C24.104,27.276 25.496,26.474 26.249,25.170 C26.249,25.170 26.249,25.170 26.249,25.170 C27.870,22.360 31.925,22.360 33.547,25.170 C33.547,25.170 33.547,25.170 33.547,25.170 C34.300,26.474 35.690,27.276 37.196,27.276 C37.196,27.276 46.095,27.276 46.095,27.276 C48.422,27.276 50.309,25.390 50.309,23.063 C50.309,23.063 50.309,14.636 50.309,14.636 C50.309,12.308 48.422,10.422 46.095,10.422 C46.095,10.422 13.701,10.422 13.701,10.422 C11.374,10.422 9.487,12.308 9.487,14.636 Z" id="path-10" class="cls-12" fill-rule="evenodd"/>
    <path d="M13.088,16.448 C13.088,16.448 13.088,21.251 13.088,21.251 C13.088,22.577 14.163,23.652 15.489,23.652 C15.489,23.652 22.632,23.652 22.632,23.652 C23.490,23.652 24.282,23.195 24.711,22.452 C24.711,22.452 26.782,22.452 26.782,22.452 C27.707,20.850 32.089,20.850 33.014,22.452 C33.014,22.452 35.084,22.452 35.084,22.452 C35.514,23.195 38.377,23.652 39.235,23.652 C39.235,23.652 44.307,23.652 44.307,23.652 C45.633,23.652 46.708,22.577 46.708,21.251 C46.708,21.251 46.708,16.448 46.708,16.448 C46.708,15.121 45.633,14.047 44.307,14.047 C44.307,14.047 15.489,14.047 15.489,14.047 C14.163,14.047 13.088,15.121 13.088,16.448 Z" id="path-11" class="cls-13" fill-rule="evenodd"/>
    <path d="M44.307,14.047 C44.307,14.047 15.489,14.047 15.489,14.047 C14.671,14.047 13.950,14.457 13.517,15.082 C13.517,15.082 42.235,15.082 42.235,15.082 C43.561,15.082 44.637,16.157 44.637,17.483 C44.637,17.483 44.637,22.286 44.637,22.286 C44.637,22.795 44.478,23.264 44.208,23.652 C44.208,23.652 44.307,23.652 44.307,23.652 C45.633,23.652 46.708,22.577 46.708,21.251 C46.708,21.251 46.708,16.448 46.708,16.448 C46.708,15.122 45.633,14.047 44.307,14.047 Z" id="path-12" class="cls-14" fill-rule="evenodd"/>
    <path d="M41.661,53.765 C34.489,53.765 28.655,47.929 28.655,40.757 C28.655,40.205 29.103,39.757 29.655,39.757 C30.208,39.757 30.655,40.205 30.655,40.757 C30.655,46.827 35.593,51.764 41.661,51.764 C47.730,51.764 52.668,46.827 52.668,40.757 C52.668,40.757 52.668,0.986 52.668,0.986 C52.668,0.434 53.115,-0.014 53.668,-0.014 C54.221,-0.014 54.668,0.434 54.668,0.986 C54.668,0.986 54.668,40.757 54.668,40.757 C54.668,47.929 48.833,53.765 41.661,53.765 Z" id="path-13" class="cls-12" fill-rule="evenodd"/>
    <path d="M30.165,41.109 C34.369,41.109 37.777,37.701 37.777,33.497 C37.777,33.497 22.553,33.497 22.553,33.497 C22.553,37.701 25.961,41.109 30.165,41.109 Z" id="path-14" class="cls-10" fill-rule="evenodd"/>
    <path d="M34.592,33.497 C34.085,37.210 30.910,40.073 27.058,40.073 C26.795,40.073 26.535,40.060 26.279,40.034 C27.418,40.712 28.743,41.109 30.165,41.109 C34.369,41.109 37.777,37.701 37.777,33.497 C37.777,33.497 34.592,33.497 34.592,33.497 Z" id="path-15" class="cls-14" fill-rule="evenodd"/>
    <path d="M26.029,35.576 C26.029,36.101 25.604,36.525 25.080,36.525 C24.556,36.525 24.131,36.101 24.131,35.576 C24.131,35.051 24.556,34.627 25.080,34.627 C25.604,34.627 26.029,35.051 26.029,35.576 Z" id="path-16" class="cls-7" fill-rule="evenodd"/>
    <path d="M28.510,37.647 C28.510,38.397 27.901,39.005 27.151,39.005 C26.401,39.005 25.793,38.397 25.793,37.647 C25.793,36.897 26.401,36.289 27.151,36.289 C27.901,36.289 28.510,36.897 28.510,37.647 Z" id="path-17" class="cls-7" fill-rule="evenodd"/>
    <path d="M16.364,23.263 C16.205,23.263 16.049,23.186 15.951,23.044 C15.796,22.816 15.854,22.505 16.082,22.350 C16.082,22.350 25.747,15.738 25.747,15.738 C25.974,15.583 26.285,15.640 26.442,15.868 C26.598,16.096 26.539,16.407 26.311,16.563 C26.311,16.563 16.646,23.175 16.646,23.175 C16.561,23.233 16.462,23.263 16.364,23.263 Z" id="path-18" class="cls-7" fill-rule="evenodd"/>
    <path d="M17.464,19.349 C17.305,19.349 17.148,19.273 17.051,19.132 C16.895,18.904 16.954,18.593 17.182,18.437 C17.182,18.437 21.127,15.738 21.127,15.738 C21.353,15.583 21.665,15.640 21.822,15.868 C21.977,16.096 21.919,16.407 21.691,16.563 C21.691,16.563 17.746,19.262 17.746,19.262 C17.660,19.321 17.561,19.349 17.464,19.349 Z" id="path-19" class="cls-7" fill-rule="evenodd"/>
  </g>
</svg>
