<svg xmlns="http://www.w3.org/2000/svg" xmlns:xlink="http://www.w3.org/1999/xlink" preserveAspectRatio="xMidYMid" width="60" height="61" viewBox="0 0 60 61">
  <defs>
    <style>

      .cls-3 {
        fill: #142a3b;
      }

      .cls-5 {
        fill: #0cb04a;
      }

      .cls-6 {
        fill: #000000;
        opacity: 0.35;
      }

      .cls-11 {
        fill: #ededed;
      }
    </style>
  </defs>
  <g id="group-328svg">
    <path d="M21.629,51.575 C21.629,51.575 16.546,51.575 16.546,51.575 C15.566,51.575 14.772,52.177 14.772,52.918 C14.772,53.660 15.566,54.261 16.546,54.261 C16.546,54.261 16.783,54.261 16.783,54.261 C17.763,54.261 18.557,54.863 18.557,55.604 C18.557,56.346 17.763,56.947 16.783,56.947 C16.783,56.947 5.857,56.947 5.857,56.947 C4.878,56.947 4.083,57.548 4.083,58.290 C4.083,59.031 4.878,59.633 5.857,59.633 C5.857,59.633 18.987,59.633 18.987,59.633 C18.987,59.633 45.824,59.633 45.824,59.633 C46.804,59.633 47.598,59.031 47.598,58.290 C47.598,57.548 46.804,56.947 45.824,56.947 C45.824,56.947 42.791,56.947 42.791,56.947 C41.811,56.947 41.017,56.346 41.017,55.604 C41.017,54.863 41.811,54.261 42.791,54.261 C42.791,54.261 54.700,54.261 54.700,54.261 C55.680,54.261 56.475,53.660 56.475,52.918 C56.475,52.177 55.680,51.575 54.700,51.575 C54.700,51.575 53.811,51.575 53.811,51.575 C53.811,51.575 21.629,51.575 21.629,51.575 Z" id="path-1" class="cls-3" fill-rule="evenodd"/>
    <path d="M53.149,59.993 C52.327,59.993 51.661,59.348 51.661,58.553 C51.661,57.759 52.327,57.114 53.149,57.114 C53.149,57.114 57.707,57.114 57.707,57.114 C58.529,57.114 59.195,57.759 59.195,58.553 C59.195,59.348 58.529,59.993 57.707,59.993 C57.707,59.993 53.149,59.993 53.149,59.993 Z" id="path-2" class="cls-3" fill-rule="evenodd"/>
    <path d="M38.264,52.450 C38.264,52.450 1.106,52.450 1.106,52.450 C0.502,52.450 0.014,51.962 0.014,51.358 C0.014,51.358 0.014,1.085 0.014,1.085 C0.014,0.481 0.502,-0.007 1.106,-0.007 C1.106,-0.007 27.635,-0.007 27.635,-0.007 C27.948,-0.007 28.246,0.127 28.454,0.361 C28.454,0.361 39.082,12.383 39.082,12.383 C39.260,12.582 39.357,12.840 39.357,13.107 C39.357,13.107 39.357,51.358 39.357,51.358 C39.357,51.962 38.868,52.450 38.264,52.450 Z" id="path-3" class="cls-5" fill-rule="evenodd"/>
    <path d="M39.082,12.383 C39.082,12.383 28.454,0.361 28.454,0.361 C28.246,0.127 27.948,-0.007 27.635,-0.007 C27.635,-0.007 1.106,-0.007 1.106,-0.007 C0.518,-0.007 0.046,0.459 0.022,1.042 C0.022,1.042 25.537,1.042 25.537,1.042 C25.850,1.042 26.148,1.176 26.355,1.411 C26.355,1.411 36.984,13.433 36.984,13.433 C37.162,13.631 37.259,13.890 37.259,14.156 C37.259,14.156 37.259,52.407 37.259,52.407 C37.259,52.422 37.250,52.435 37.250,52.450 C37.250,52.450 38.264,52.450 38.264,52.450 C38.868,52.450 39.357,51.962 39.357,51.358 C39.357,51.358 39.357,13.107 39.357,13.107 C39.357,12.840 39.260,12.582 39.082,12.383 Z" id="path-4" class="cls-6" fill-rule="evenodd"/>
    <path d="M7.571,8.686 C7.571,8.686 5.571,8.686 5.571,8.686 C5.571,8.686 5.571,0.129 5.571,0.129 C5.571,0.129 7.571,0.129 7.571,0.129 C7.571,0.129 7.571,8.686 7.571,8.686 Z" id="path-5" class="cls-3" fill-rule="evenodd"/>
    <path d="M14.128,8.686 C14.128,8.686 12.128,8.686 12.128,8.686 C12.128,8.686 12.128,0.129 12.128,0.129 C12.128,0.129 14.128,0.129 14.128,0.129 C14.128,0.129 14.128,8.686 14.128,8.686 Z" id="path-6" class="cls-3" fill-rule="evenodd"/>
    <path d="M20.685,8.686 C20.685,8.686 18.685,8.686 18.685,8.686 C18.685,8.686 18.685,0.129 18.685,0.129 C18.685,0.129 20.685,0.129 20.685,0.129 C20.685,0.129 20.685,8.686 20.685,8.686 Z" id="path-7" class="cls-3" fill-rule="evenodd"/>
    <path d="M27.243,8.686 C27.243,8.686 25.243,8.686 25.243,8.686 C25.243,8.686 25.243,0.129 25.243,0.129 C25.243,0.129 27.243,0.129 27.243,0.129 C27.243,0.129 27.243,8.686 27.243,8.686 Z" id="path-8" class="cls-3" fill-rule="evenodd"/>
    <path d="M31.707,52.450 C31.707,52.450 7.664,52.450 7.664,52.450 C7.059,52.450 6.571,51.962 6.571,51.358 C6.571,51.358 6.571,33.872 6.571,33.872 C6.571,30.655 8.567,28.407 11.426,28.407 C11.426,28.407 26.726,28.407 26.726,28.407 C29.593,28.407 32.800,30.744 32.800,33.872 C32.800,33.872 32.800,51.358 32.800,51.358 C32.800,51.962 32.311,52.450 31.707,52.450 Z" id="path-9" class="cls-11" fill-rule="evenodd"/>
    <path d="M26.726,28.407 C26.726,28.407 11.426,28.407 11.426,28.407 C10.206,28.407 9.159,28.836 8.341,29.555 C8.657,29.492 8.985,29.456 9.327,29.456 C9.327,29.456 24.627,29.456 24.627,29.456 C27.494,29.456 30.701,31.794 30.701,34.920 C30.701,34.920 30.701,52.407 30.701,52.407 C30.701,52.422 30.693,52.435 30.693,52.450 C30.693,52.450 31.707,52.450 31.707,52.450 C32.311,52.450 32.800,51.962 32.800,51.358 C32.800,51.358 32.800,33.872 32.800,33.872 C32.800,30.744 29.593,28.407 26.726,28.407 Z" id="path-10" class="cls-6" fill-rule="evenodd"/>
  </g>
</svg>
