<svg xmlns="http://www.w3.org/2000/svg" xmlns:xlink="http://www.w3.org/1999/xlink" preserveAspectRatio="xMidYMid" width="60" height="59" viewBox="0 0 60 59">
  <defs>
    <style>

      .cls-3 {
        fill: #fbb713;
      }

      .cls-4 {
        fill: #ffffff;
      }

      .cls-5 {
        fill: #ff3a2f;
      }

      .cls-7 {
        fill: #020403;
        opacity: 0.25;
      }

      .cls-8 {
        fill: #020403;
        opacity: 0.35;
      }

      .cls-9 {
        fill: #142a3b;
      }

      .cls-12 {
        fill: #2476ff;
      }
    </style>
  </defs>
  <g id="group-101svg">
    <path d="M40.608,55.892 C40.608,55.892 20.534,55.892 20.534,55.892 C17.884,55.892 15.736,53.745 15.736,51.095 C15.736,51.095 15.736,22.745 15.736,22.745 C15.736,20.096 17.884,17.947 20.534,17.947 C20.534,17.947 40.608,17.947 40.608,17.947 C43.258,17.947 45.406,20.096 45.406,22.745 C45.406,22.745 45.406,51.095 45.406,51.095 C45.406,53.745 43.258,55.892 40.608,55.892 Z" id="path-1" class="cls-3" fill-rule="evenodd"/>
    <path d="M18.627,44.084 C18.075,44.084 17.627,43.636 17.627,43.084 C17.627,43.084 17.627,24.972 17.627,24.972 C17.627,22.706 19.471,20.862 21.737,20.862 C22.290,20.862 22.737,21.310 22.737,21.862 C22.737,22.415 22.290,22.862 21.737,22.862 C20.574,22.862 19.627,23.809 19.627,24.972 C19.627,24.972 19.627,43.084 19.627,43.084 C19.627,43.636 19.180,44.084 18.627,44.084 Z" id="path-2" class="cls-4" fill-rule="evenodd"/>
    <path d="M33.599,8.124 C34.577,7.273 35.208,6.032 35.208,4.634 C35.208,2.074 33.132,-0.004 30.571,-0.004 C28.010,-0.004 25.934,2.072 25.934,4.633 C25.934,6.030 26.564,7.274 27.543,8.124 C23.336,9.417 20.277,12.968 20.277,17.969 C20.277,17.969 40.864,17.969 40.864,17.969 C40.864,12.968 37.806,9.417 33.599,8.124 Z" id="path-3" class="cls-5" fill-rule="evenodd"/>
    <path d="M27.807,5.968 C27.256,5.968 26.809,5.733 26.807,5.181 C26.803,3.950 27.330,2.885 28.253,2.078 C28.667,1.715 29.299,1.808 29.664,2.224 C30.027,2.640 29.985,3.298 29.569,3.662 C29.083,4.088 28.805,4.509 28.807,5.162 C28.809,5.715 28.362,5.968 27.810,5.968 C27.809,5.968 27.808,5.968 27.807,5.968 Z" id="path-4" class="cls-4" fill-rule="evenodd"/>
    <path d="M40.557,17.947 C40.557,17.947 40.352,17.947 40.352,17.947 C40.352,17.947 40.352,45.989 40.352,45.989 C40.352,48.667 38.181,50.839 35.502,50.839 C35.502,50.839 15.736,50.839 15.736,50.839 C15.736,50.839 15.736,51.043 15.736,51.043 C15.736,53.721 17.907,55.892 20.586,55.892 C20.586,55.892 40.557,55.892 40.557,55.892 C43.234,55.892 45.406,53.721 45.406,51.043 C45.406,51.043 45.406,22.796 45.406,22.796 C45.406,20.119 43.234,17.947 40.557,17.947 Z" id="path-5" class="cls-7" fill-rule="evenodd"/>
    <path d="M33.599,8.142 C34.577,7.292 35.208,6.036 35.208,4.638 C35.208,2.078 33.132,-0.008 30.571,-0.008 C29.842,-0.008 29.161,0.175 28.547,0.475 C30.092,1.230 31.165,2.804 31.165,4.638 C31.165,6.036 30.534,7.292 29.556,8.142 C33.763,9.435 36.821,12.962 36.821,18.016 C36.821,18.016 40.864,18.016 40.864,18.016 C40.864,12.962 37.806,9.435 33.599,8.142 Z" id="path-6" class="cls-8" fill-rule="evenodd"/>
    <path d="M44.406,28.968 C44.406,28.968 35.406,28.968 35.406,28.968 C34.854,28.968 34.406,28.521 34.406,27.969 C34.406,27.416 34.854,26.969 35.406,26.969 C35.406,26.969 44.406,26.969 44.406,26.969 C44.959,26.969 45.406,27.416 45.406,27.969 C45.406,28.521 44.959,28.968 44.406,28.968 Z" id="path-7" class="cls-9" fill-rule="evenodd"/>
    <path d="M44.406,33.969 C44.406,33.969 35.406,33.969 35.406,33.969 C34.854,33.969 34.406,33.521 34.406,32.969 C34.406,32.416 34.854,31.968 35.406,31.968 C35.406,31.968 44.406,31.968 44.406,31.968 C44.959,31.968 45.406,32.416 45.406,32.969 C45.406,33.521 44.959,33.969 44.406,33.969 Z" id="path-8" class="cls-9" fill-rule="evenodd"/>
    <path d="M44.406,38.968 C44.406,38.968 35.406,38.968 35.406,38.968 C34.854,38.968 34.406,38.521 34.406,37.968 C34.406,37.416 34.854,36.968 35.406,36.968 C35.406,36.968 44.406,36.968 44.406,36.968 C44.959,36.968 45.406,37.416 45.406,37.968 C45.406,38.521 44.959,38.968 44.406,38.968 Z" id="path-9" class="cls-9" fill-rule="evenodd"/>
    <path d="M21.612,58.360 C22.373,58.360 22.990,58.095 22.990,57.768 C22.990,57.441 22.373,57.176 21.612,57.176 C21.612,57.176 17.390,57.176 17.390,57.176 C16.629,57.176 16.012,57.441 16.012,57.768 C16.012,58.095 16.629,58.360 17.390,58.360 C17.390,58.360 21.612,58.360 21.612,58.360 Z" id="path-10" class="cls-12" fill-rule="evenodd"/>
    <path d="M10.077,48.535 C10.077,48.535 11.228,48.535 11.228,48.535 C11.449,48.535 11.629,48.770 11.629,49.059 C11.629,49.349 11.449,49.584 11.228,49.584 C11.228,49.584 11.174,49.584 11.174,49.584 C10.952,49.584 10.772,49.819 10.772,50.109 C10.772,50.399 10.952,50.634 11.174,50.634 C11.174,50.634 13.646,50.634 13.646,50.634 C13.869,50.634 14.048,50.869 14.048,51.159 C14.048,51.449 13.869,51.683 13.646,51.683 C13.646,51.683 10.675,51.683 10.675,51.683 C10.675,51.683 4.602,51.683 4.602,51.683 C4.379,51.683 4.200,51.449 4.200,51.159 C4.200,50.869 4.379,50.634 4.602,50.634 C4.602,50.634 5.288,50.634 5.288,50.634 C5.509,50.634 5.689,50.399 5.689,50.109 C5.689,49.819 5.509,49.584 5.288,49.584 C5.288,49.584 2.021,49.584 2.021,49.584 C1.800,49.584 1.620,49.349 1.620,49.059 C1.620,48.770 1.800,48.535 2.021,48.535 C2.021,48.535 2.793,48.535 2.793,48.535 C2.793,48.535 10.077,48.535 10.077,48.535 Z" id="path-11" class="cls-12" fill-rule="evenodd"/>
    <path d="M54.781,38.951 C54.781,38.951 55.445,38.951 55.445,38.951 C55.574,38.951 55.678,39.087 55.678,39.254 C55.678,39.422 55.574,39.558 55.445,39.558 C55.445,39.558 55.415,39.558 55.415,39.558 C55.287,39.558 55.183,39.693 55.183,39.860 C55.183,40.028 55.287,40.164 55.415,40.164 C55.415,40.164 56.843,40.164 56.843,40.164 C56.971,40.164 57.074,40.299 57.074,40.467 C57.074,40.635 56.971,40.770 56.843,40.770 C56.843,40.770 55.127,40.770 55.127,40.770 C55.127,40.770 51.619,40.770 51.619,40.770 C51.491,40.770 51.387,40.635 51.387,40.467 C51.387,40.299 51.491,40.164 51.619,40.164 C51.619,40.164 52.016,40.164 52.016,40.164 C52.144,40.164 52.247,40.028 52.247,39.860 C52.247,39.693 52.144,39.558 52.016,39.558 C52.016,39.558 50.129,39.558 50.129,39.558 C50.001,39.558 49.897,39.422 49.897,39.254 C49.897,39.087 50.001,38.951 50.129,38.951 C50.129,38.951 50.575,38.951 50.575,38.951 C50.575,38.951 54.781,38.951 54.781,38.951 Z" id="path-12" class="cls-12" fill-rule="evenodd"/>
    <path d="M2.010,51.712 C2.284,51.712 2.506,51.548 2.506,51.346 C2.506,51.144 2.284,50.980 2.010,50.980 C2.010,50.980 0.487,50.980 0.487,50.980 C0.213,50.980 -0.010,51.144 -0.010,51.346 C-0.010,51.548 0.213,51.712 0.487,51.712 C0.487,51.712 2.010,51.712 2.010,51.712 Z" id="path-13" class="cls-12" fill-rule="evenodd"/>
    <path d="M48.979,53.219 C48.979,53.219 52.169,53.219 52.169,53.219 C52.783,53.219 53.282,53.599 53.282,54.069 C53.282,54.538 52.783,54.917 52.169,54.917 C52.169,54.917 52.020,54.917 52.020,54.917 C51.405,54.917 50.906,55.298 50.906,55.767 C50.906,56.236 51.405,56.616 52.020,56.616 C52.020,56.616 58.877,56.616 58.877,56.616 C59.491,56.616 59.990,56.996 59.990,57.465 C59.990,57.934 59.491,58.314 58.877,58.314 C58.877,58.314 50.637,58.314 50.637,58.314 C50.637,58.314 33.795,58.314 33.795,58.314 C33.180,58.314 32.682,57.934 32.682,57.465 C32.682,56.996 33.180,56.616 33.795,56.616 C33.795,56.616 35.697,56.616 35.697,56.616 C36.312,56.616 36.811,56.236 36.811,55.767 C36.811,55.298 36.312,54.917 35.697,54.917 C35.697,54.917 26.642,54.917 26.642,54.917 C26.026,54.917 25.527,54.538 25.527,54.069 C25.527,53.599 26.026,53.219 26.642,53.219 C26.642,53.219 28.781,53.219 28.781,53.219 C28.781,53.219 48.979,53.219 48.979,53.219 Z" id="path-14" class="cls-12" fill-rule="evenodd"/>
  </g>
</svg>
