<svg xmlns="http://www.w3.org/2000/svg" xmlns:xlink="http://www.w3.org/1999/xlink" preserveAspectRatio="xMidYMid" width="57" height="60" viewBox="0 0 57 60">
  <defs>
    <style>

      .cls-3 {
        fill: #2476ff;
      }

      .cls-6 {
        fill: #fbb713;
      }

      .cls-7 {
        fill: #000000;
        opacity: 0.25;
      }

      .cls-10 {
        fill: #ff3a2f;
      }
    </style>
  </defs>
  <g id="group-311svg">
    <path d="M18.856,51.798 C18.856,51.798 13.894,51.798 13.894,51.798 C12.937,51.798 12.162,52.385 12.162,53.109 C12.162,53.833 12.937,54.420 13.894,54.420 C13.894,54.420 14.125,54.420 14.125,54.420 C15.082,54.420 15.857,55.007 15.857,55.731 C15.857,56.455 15.082,57.042 14.125,57.042 C14.125,57.042 3.459,57.042 3.459,57.042 C2.502,57.042 1.727,57.630 1.727,58.353 C1.727,59.078 2.502,59.665 3.459,59.665 C3.459,59.665 16.277,59.665 16.277,59.665 C16.277,59.665 42.478,59.665 42.478,59.665 C43.435,59.665 44.211,59.078 44.211,58.353 C44.211,57.630 43.435,57.042 42.478,57.042 C42.478,57.042 39.518,57.042 39.518,57.042 C38.561,57.042 37.785,56.455 37.785,55.731 C37.785,55.007 38.561,54.420 39.518,54.420 C39.518,54.420 51.144,54.420 51.144,54.420 C52.102,54.420 52.877,53.833 52.877,53.109 C52.877,52.385 52.102,51.798 51.144,51.798 C51.144,51.798 50.277,51.798 50.277,51.798 C50.277,51.798 18.856,51.798 18.856,51.798 Z" id="path-1" class="cls-3" fill-rule="evenodd"/>
    <path d="M49.630,60.016 C48.828,60.016 48.178,59.386 48.178,58.610 C48.178,57.835 48.828,57.205 49.630,57.205 C49.630,57.205 54.080,57.205 54.080,57.205 C54.883,57.205 55.533,57.835 55.533,58.610 C55.533,59.386 54.883,60.016 54.080,60.016 C54.080,60.016 49.630,60.016 49.630,60.016 Z" id="path-2" class="cls-3" fill-rule="evenodd"/>
    <path d="M1.465,54.464 C0.663,54.464 0.013,53.835 0.013,53.059 C0.013,52.283 0.663,51.654 1.465,51.654 C1.465,51.654 5.915,51.654 5.915,51.654 C6.718,51.654 7.367,52.283 7.367,53.059 C7.367,53.835 6.718,54.464 5.915,54.464 C5.915,54.464 1.465,54.464 1.465,54.464 Z" id="path-3" class="cls-3" fill-rule="evenodd"/>
    <path d="M29.439,55.536 C26.094,55.536 23.932,54.299 23.932,52.385 C23.932,48.072 20.613,43.490 14.465,43.490 C13.812,43.490 13.284,42.962 13.284,42.309 C13.284,42.309 13.284,19.504 13.284,19.504 C13.284,19.504 9.473,19.798 9.473,19.798 C9.115,19.819 8.769,19.691 8.525,19.436 C8.525,19.436 3.160,13.781 3.160,13.781 C2.757,13.358 2.725,12.706 3.084,12.243 C3.395,11.841 10.861,2.351 20.786,0.047 C21.418,-0.099 22.043,0.289 22.200,0.913 C22.859,3.547 25.559,11.069 29.179,11.069 C32.951,11.069 36.022,3.511 36.809,0.862 C36.988,0.265 37.595,-0.095 38.208,0.047 C48.127,2.348 55.700,11.749 56.018,12.146 C56.378,12.603 56.357,13.253 55.963,13.681 C55.963,13.681 50.741,19.378 50.741,19.378 C50.497,19.644 50.109,19.780 49.784,19.757 C49.784,19.757 46.338,19.498 46.338,19.498 C46.338,19.498 46.338,42.309 46.338,42.309 C46.338,42.962 45.809,43.490 45.157,43.490 C41.127,43.490 34.947,48.263 34.947,52.385 C34.947,54.299 32.785,55.536 29.439,55.536 Z" id="path-4" class="cls-6" fill-rule="evenodd"/>
    <path d="M19.979,0.913 C20.639,3.547 23.338,11.069 26.958,11.069 C27.346,11.069 27.723,10.972 28.094,10.826 C25.027,9.555 22.791,3.275 22.200,0.913 C22.043,0.289 21.418,-0.099 20.786,0.047 C20.398,0.136 20.021,0.256 19.642,0.367 C19.795,0.515 19.924,0.692 19.979,0.913 Z" id="path-5" class="cls-7" fill-rule="evenodd"/>
    <path d="M56.018,12.146 C55.700,11.749 48.127,2.348 38.208,0.047 C37.801,-0.048 37.408,0.094 37.129,0.365 C46.478,3.086 53.492,11.764 53.798,12.146 C54.157,12.603 54.137,13.253 53.742,13.680 C53.742,13.680 48.520,19.378 48.520,19.378 C48.416,19.492 48.277,19.569 48.137,19.634 C48.137,19.634 49.784,19.757 49.784,19.757 C50.109,19.780 50.497,19.644 50.741,19.378 C50.741,19.378 55.963,13.680 55.963,13.680 C56.357,13.253 56.378,12.603 56.018,12.146 Z" id="path-6" class="cls-7" fill-rule="evenodd"/>
    <path d="M44.116,19.498 C44.116,19.498 44.116,42.310 44.116,42.310 C44.116,42.962 43.589,43.490 42.936,43.490 C38.906,43.490 32.727,48.263 32.727,52.385 C32.727,54.077 31.033,55.236 28.329,55.483 C28.683,55.516 29.052,55.536 29.439,55.536 C32.785,55.536 34.947,54.299 34.947,52.385 C34.947,48.263 41.127,43.490 45.157,43.490 C45.809,43.490 46.338,42.962 46.338,42.310 C46.338,42.310 46.338,19.665 46.338,19.665 C46.338,19.665 44.116,19.498 44.116,19.498 Z" id="path-7" class="cls-7" fill-rule="evenodd"/>
    <path d="M29.350,34.865 C29.202,34.865 29.053,34.837 28.911,34.781 C23.510,32.627 19.473,26.134 20.916,21.916 C21.562,20.028 23.136,18.856 25.026,18.856 C26.634,18.856 28.167,19.676 29.350,21.118 C30.532,19.676 32.065,18.856 33.675,18.856 C35.565,18.856 37.141,20.028 37.786,21.918 C39.227,26.134 35.189,32.627 29.787,34.781 C29.647,34.837 29.497,34.865 29.350,34.865 Z" id="path-8" class="cls-10" fill-rule="evenodd"/>
    <path d="M28.239,21.118 C28.416,20.903 28.602,20.706 28.794,20.519 C27.704,19.454 26.394,18.856 25.026,18.856 C24.854,18.856 24.688,18.876 24.521,18.895 C25.905,19.073 27.206,19.859 28.239,21.118 Z" id="path-9" class="cls-7" fill-rule="evenodd"/>
    <path d="M37.786,21.918 C37.141,20.028 35.565,18.856 33.675,18.856 C33.472,18.856 33.269,18.869 33.069,18.895 C34.730,19.086 36.089,20.200 36.676,21.918 C38.105,26.103 34.137,32.527 28.794,34.728 C28.834,34.745 28.872,34.766 28.911,34.781 C29.052,34.837 29.202,34.865 29.350,34.865 C29.497,34.865 29.647,34.837 29.787,34.781 C35.189,32.627 39.227,26.134 37.786,21.918 Z" id="path-10" class="cls-7" fill-rule="evenodd"/>
  </g>
</svg>
