<svg xmlns="http://www.w3.org/2000/svg" xmlns:xlink="http://www.w3.org/1999/xlink" preserveAspectRatio="xMidYMid" width="52" height="61" viewBox="0 0 52 61">
  <defs>
    <style>

      .cls-3 {
        fill: #2476ff;
      }

      .cls-6 {
        fill: #142a3b;
      }

      .cls-7 {
        fill: #000000;
        opacity: 0.35;
      }

      .cls-8 {
        fill: #0cb04a;
      }

      .cls-14 {
        fill: #fbb713;
      }

      .cls-20 {
        fill: #fbfbfb;
        opacity: 0.35;
      }
    </style>
  </defs>
  <g id="group-235svg">
    <path d="M30.806,58.711 C30.806,58.711 33.649,58.711 33.649,58.711 C34.198,58.711 34.642,58.186 34.642,57.538 C34.642,56.891 34.198,56.367 33.649,56.367 C33.649,56.367 33.517,56.367 33.517,56.367 C32.969,56.367 32.524,55.842 32.524,55.195 C32.524,54.547 32.969,54.023 33.517,54.023 C33.517,54.023 39.630,54.023 39.630,54.023 C40.178,54.023 40.623,53.498 40.623,52.851 C40.623,52.204 40.178,51.680 39.630,51.680 C39.630,51.680 32.284,51.680 32.284,51.680 C32.284,51.680 17.268,51.680 17.268,51.680 C16.720,51.680 16.275,52.204 16.275,52.851 C16.275,53.498 16.720,54.023 17.268,54.023 C17.268,54.023 18.965,54.023 18.965,54.023 C19.513,54.023 19.957,54.547 19.957,55.195 C19.957,55.842 19.513,56.367 18.965,56.367 C18.965,56.367 10.890,56.367 10.890,56.367 C10.342,56.367 9.897,56.891 9.897,57.538 C9.897,58.186 10.342,58.711 10.890,58.711 C10.890,58.711 12.799,58.711 12.799,58.711 C12.799,58.711 30.806,58.711 30.806,58.711 Z" id="path-1" class="cls-3" fill-rule="evenodd"/>
    <path d="M16.216,39.893 C16.216,39.893 17.719,39.893 17.719,39.893 C18.009,39.893 18.244,39.635 18.244,39.318 C18.244,39.000 18.009,38.743 17.719,38.743 C17.719,38.743 17.649,38.743 17.649,38.743 C17.359,38.743 17.124,38.485 17.124,38.167 C17.124,37.849 17.359,37.592 17.649,37.592 C17.649,37.592 20.880,37.592 20.880,37.592 C21.170,37.592 21.405,37.334 21.405,37.016 C21.405,36.699 21.170,36.441 20.880,36.441 C20.880,36.441 16.997,36.441 16.997,36.441 C16.997,36.441 9.061,36.441 9.061,36.441 C8.772,36.441 8.537,36.699 8.537,37.016 C8.537,37.334 8.772,37.592 9.061,37.592 C9.061,37.592 9.958,37.592 9.958,37.592 C10.248,37.592 10.483,37.849 10.483,38.167 C10.483,38.485 10.248,38.743 9.958,38.743 C9.958,38.743 5.691,38.743 5.691,38.743 C5.401,38.743 5.166,39.000 5.166,39.318 C5.166,39.635 5.401,39.893 5.691,39.893 C5.691,39.893 6.699,39.893 6.699,39.893 C6.699,39.893 16.216,39.893 16.216,39.893 Z" id="path-2" class="cls-3" fill-rule="evenodd"/>
    <path d="M44.310,57.419 C44.928,57.419 45.429,57.997 45.429,58.711 C45.429,59.423 44.928,60.002 44.310,60.002 C44.310,60.002 40.885,60.002 40.885,60.002 C40.268,60.002 39.767,59.423 39.767,58.711 C39.767,57.997 40.268,57.419 40.885,57.419 C40.885,57.419 44.310,57.419 44.310,57.419 Z" id="path-3" class="cls-3" fill-rule="evenodd"/>
    <path d="M26.395,56.471 C26.395,56.471 26.173,56.471 26.173,56.471 C24.834,56.471 23.749,55.385 23.749,54.046 C23.749,54.046 23.749,18.845 23.749,18.845 C23.749,17.507 24.834,16.421 26.173,16.421 C26.173,16.421 26.395,16.421 26.395,16.421 C27.733,16.421 28.818,17.507 28.818,18.845 C28.818,18.845 28.818,54.046 28.818,54.046 C28.818,55.385 27.733,56.471 26.395,56.471 Z" id="path-4" class="cls-6" fill-rule="evenodd"/>
    <path d="M27.467,16.727 C27.656,17.082 27.773,17.480 27.773,17.910 C27.773,17.910 27.773,52.889 27.773,52.889 C27.773,54.290 26.638,55.425 25.238,55.425 C24.808,55.425 24.410,55.308 24.055,55.119 C24.481,55.919 25.314,56.471 26.284,56.471 C27.684,56.471 28.818,55.336 28.818,53.936 C28.818,53.936 28.818,18.956 28.818,18.956 C28.818,17.986 28.268,17.153 27.467,16.727 Z" id="path-5" class="cls-7" fill-rule="evenodd"/>
    <path d="M29.755,22.124 C29.755,22.124 22.813,22.124 22.813,22.124 C21.202,22.124 19.896,20.819 19.896,19.208 C19.896,19.208 19.896,18.197 19.896,18.197 C19.896,16.586 21.202,15.281 22.813,15.281 C22.813,15.281 29.755,15.281 29.755,15.281 C31.366,15.281 32.671,16.586 32.671,18.197 C32.671,18.197 32.671,19.208 32.671,19.208 C32.671,20.819 31.366,22.124 29.755,22.124 Z" id="path-6" class="cls-8" fill-rule="evenodd"/>
    <path d="M29.829,15.302 C30.291,15.836 30.580,16.523 30.580,17.285 C30.580,17.285 30.580,18.028 30.580,18.028 C30.580,19.713 29.214,21.079 27.530,21.079 C27.530,21.079 20.855,21.079 20.855,21.079 C20.783,21.079 20.717,21.062 20.646,21.058 C21.206,21.705 22.023,22.124 22.946,22.124 C22.946,22.124 29.622,22.124 29.622,22.124 C31.306,22.124 32.671,20.759 32.671,19.075 C32.671,19.075 32.671,18.331 32.671,18.331 C32.671,16.718 31.415,15.410 29.829,15.302 Z" id="path-7" class="cls-7" fill-rule="evenodd"/>
    <path d="M30.464,16.421 C30.464,16.421 22.103,16.421 22.103,16.421 C20.492,16.421 19.186,15.115 19.186,13.505 C19.186,13.505 19.186,11.734 19.186,11.734 C19.186,10.123 20.492,8.817 22.103,8.817 C22.103,8.817 30.464,8.817 30.464,8.817 C32.075,8.817 33.381,10.123 33.381,11.734 C33.381,11.734 33.381,13.505 33.381,13.505 C33.381,15.115 32.075,16.421 30.464,16.421 Z" id="path-8" class="cls-8" fill-rule="evenodd"/>
    <path d="M30.539,8.838 C31.000,9.372 31.289,10.060 31.289,10.821 C31.289,10.821 31.289,12.325 31.289,12.325 C31.289,14.010 29.924,15.375 28.240,15.375 C28.240,15.375 20.145,15.375 20.145,15.375 C20.074,15.375 20.007,15.359 19.936,15.354 C20.496,16.002 21.313,16.421 22.236,16.421 C22.236,16.421 30.331,16.421 30.331,16.421 C32.016,16.421 33.381,15.056 33.381,13.371 C33.381,13.371 33.381,11.867 33.381,11.867 C33.381,10.253 32.124,8.946 30.539,8.838 Z" id="path-9" class="cls-7" fill-rule="evenodd"/>
    <path d="M28.130,9.323 C28.130,9.323 24.437,9.323 24.437,9.323 C23.367,9.323 22.499,8.456 22.499,7.384 C22.499,7.384 22.499,7.207 22.499,7.207 C22.499,6.137 23.367,5.268 24.437,5.268 C24.437,5.268 28.130,5.268 28.130,5.268 C29.201,5.268 30.069,6.137 30.069,7.207 C30.069,7.207 30.069,7.384 30.069,7.384 C30.069,8.456 29.201,9.323 28.130,9.323 Z" id="path-10" class="cls-8" fill-rule="evenodd"/>
    <path d="M28.041,5.268 C28.041,5.268 27.713,5.268 27.713,5.268 C27.876,5.560 27.977,5.892 27.977,6.250 C27.977,7.370 27.070,8.278 25.950,8.278 C25.950,8.278 22.763,8.278 22.763,8.278 C23.109,8.899 23.765,9.323 24.526,9.323 C24.526,9.323 28.041,9.323 28.041,9.323 C29.161,9.323 30.069,8.416 30.069,7.296 C30.069,6.176 29.161,5.268 28.041,5.268 Z" id="path-11" class="cls-7" fill-rule="evenodd"/>
    <path d="M52.467,29.377 C52.193,30.856 46.311,31.009 39.329,29.719 C32.346,28.429 26.907,26.183 27.181,24.703 C27.455,23.223 33.336,23.070 40.319,24.360 C47.302,25.651 52.740,27.896 52.467,29.377 Z" id="path-12" class="cls-14" fill-rule="evenodd"/>
    <path d="M27.509,24.237 C28.789,25.441 33.678,26.338 39.528,26.338 C42.112,26.338 44.509,26.163 46.493,25.864 C44.692,25.302 42.590,24.779 40.319,24.360 C34.158,23.221 28.859,23.208 27.509,24.237 Z" id="path-13" class="cls-7" fill-rule="evenodd"/>
    <path d="M0.001,29.377 C0.275,30.856 6.157,31.009 13.140,29.719 C20.122,28.429 25.561,26.183 25.288,24.703 C25.014,23.223 19.132,23.070 12.149,24.360 C5.166,25.651 -0.272,27.896 0.001,29.377 Z" id="path-14" class="cls-14" fill-rule="evenodd"/>
    <path d="M5.976,25.864 C7.959,26.163 10.356,26.338 12.940,26.338 C18.790,26.338 23.679,25.441 24.959,24.238 C23.609,23.208 18.311,23.221 12.149,24.360 C9.878,24.779 7.776,25.302 5.976,25.864 Z" id="path-15" class="cls-7" fill-rule="evenodd"/>
    <path d="M0.583,22.568 C0.583,24.073 6.116,25.293 12.940,25.293 C19.765,25.293 25.297,24.073 25.297,22.568 C25.297,21.063 19.765,19.843 12.940,19.843 C6.116,19.843 0.583,21.063 0.583,22.568 Z" id="path-16" class="cls-14" fill-rule="evenodd"/>
    <path d="M51.885,22.568 C51.885,24.073 46.352,25.293 39.528,25.293 C32.703,25.293 27.171,24.073 27.171,22.568 C27.171,21.063 32.703,19.843 39.528,19.843 C46.352,19.843 51.885,21.063 51.885,22.568 Z" id="path-17" class="cls-14" fill-rule="evenodd"/>
    <path d="M0.583,22.568 C0.583,24.073 6.116,25.293 12.940,25.293 C19.765,25.293 25.297,24.073 25.297,22.568 C25.297,21.063 19.765,19.843 12.940,19.843 C6.116,19.843 0.583,21.063 0.583,22.568 Z" id="path-18" class="cls-20" fill-rule="evenodd"/>
    <path d="M51.885,22.568 C51.885,24.073 46.352,25.293 39.528,25.293 C32.703,25.293 27.171,24.073 27.171,22.568 C27.171,21.063 32.703,19.843 39.528,19.843 C46.352,19.843 51.885,21.063 51.885,22.568 Z" id="path-19" class="cls-20" fill-rule="evenodd"/>
    <path d="M31.417,3.779 C31.417,5.865 30.083,7.557 28.439,7.557 C26.794,7.557 25.460,5.865 25.460,3.779 C25.460,1.693 26.794,0.002 28.439,0.002 C30.083,0.002 31.417,1.693 31.417,3.779 Z" id="path-20" class="cls-6" fill-rule="evenodd"/>
    <path d="M26.601,3.779 C26.601,5.865 25.267,7.557 23.622,7.557 C21.977,7.557 20.644,5.865 20.644,3.779 C20.644,1.693 21.977,0.002 23.622,0.002 C25.267,0.002 26.601,1.693 26.601,3.779 Z" id="path-21" class="cls-6" fill-rule="evenodd"/>
    <path d="M29.697,0.367 C30.112,1.016 30.371,1.832 30.371,2.733 C30.371,4.819 29.038,6.510 27.393,6.510 C26.941,6.510 26.518,6.374 26.135,6.146 C26.681,6.999 27.504,7.557 28.439,7.557 C30.083,7.557 31.417,5.866 31.417,3.779 C31.417,2.265 30.710,0.969 29.697,0.367 Z" id="path-22" class="cls-7" fill-rule="evenodd"/>
    <path d="M24.881,0.367 C25.296,1.016 25.555,1.832 25.555,2.733 C25.555,4.819 24.222,6.510 22.577,6.510 C22.125,6.510 21.702,6.374 21.318,6.146 C21.865,6.999 22.688,7.557 23.622,7.557 C25.267,7.557 26.601,5.866 26.601,3.779 C26.601,2.265 25.894,0.969 24.881,0.367 Z" id="path-23" class="cls-7" fill-rule="evenodd"/>
  </g>
</svg>
