<svg xmlns="http://www.w3.org/2000/svg" xmlns:xlink="http://www.w3.org/1999/xlink" preserveAspectRatio="xMidYMid" width="60" height="44" viewBox="0 0 60 44">
  <defs>
    <style>

      .cls-3 {
        fill: #0cb04a;
      }

      .cls-9 {
        fill: #ff3a2f;
      }
    </style>
  </defs>
  <g id="group-320svg">
    <path d="M28.779,0.890 C28.779,0.890 24.554,0.890 24.554,0.890 C23.739,0.890 23.079,1.391 23.079,2.007 C23.079,2.624 23.739,3.123 24.554,3.123 C24.554,3.123 24.751,3.123 24.751,3.123 C25.565,3.123 26.226,3.623 26.226,4.240 C26.226,4.857 25.565,5.357 24.751,5.357 C24.751,5.357 15.667,5.357 15.667,5.357 C14.852,5.357 14.192,5.856 14.192,6.473 C14.192,7.090 14.852,7.590 15.667,7.590 C15.667,7.590 26.583,7.590 26.583,7.590 C26.583,7.590 48.895,7.590 48.895,7.590 C49.710,7.590 50.370,7.090 50.370,6.473 C50.370,5.856 49.710,5.357 48.895,5.357 C48.895,5.357 46.374,5.357 46.374,5.357 C45.560,5.357 44.899,4.857 44.899,4.240 C44.899,3.623 45.560,3.123 46.374,3.123 C46.374,3.123 56.275,3.123 56.275,3.123 C57.090,3.123 57.750,2.624 57.750,2.007 C57.750,1.391 57.090,0.890 56.275,0.890 C56.275,0.890 55.536,0.890 55.536,0.890 C55.536,0.890 28.779,0.890 28.779,0.890 Z" id="path-1" class="cls-3" fill-rule="evenodd"/>
    <path d="M54.985,7.888 C54.303,7.888 53.749,7.353 53.749,6.692 C53.749,6.031 54.303,5.495 54.985,5.495 C54.985,5.495 58.775,5.495 58.775,5.495 C59.458,5.495 60.012,6.031 60.012,6.692 C60.012,7.353 59.458,7.888 58.775,7.888 C58.775,7.888 54.985,7.888 54.985,7.888 Z" id="path-2" class="cls-3" fill-rule="evenodd"/>
    <path d="M28.779,16.911 C28.779,16.911 24.554,16.911 24.554,16.911 C23.739,16.911 23.079,17.411 23.079,18.027 C23.079,18.644 23.739,19.144 24.554,19.144 C24.554,19.144 24.751,19.144 24.751,19.144 C25.565,19.144 26.226,19.643 26.226,20.260 C26.226,20.877 25.565,21.377 24.751,21.377 C24.751,21.377 15.667,21.377 15.667,21.377 C14.852,21.377 14.192,21.876 14.192,22.493 C14.192,23.110 14.852,23.609 15.667,23.609 C15.667,23.609 26.583,23.609 26.583,23.609 C26.583,23.609 48.895,23.609 48.895,23.609 C49.710,23.609 50.370,23.110 50.370,22.493 C50.370,21.876 49.710,21.377 48.895,21.377 C48.895,21.377 46.374,21.377 46.374,21.377 C45.560,21.377 44.899,20.877 44.899,20.260 C44.899,19.643 45.560,19.144 46.374,19.144 C46.374,19.144 56.275,19.144 56.275,19.144 C57.090,19.144 57.750,18.644 57.750,18.027 C57.750,17.411 57.090,16.911 56.275,16.911 C56.275,16.911 55.536,16.911 55.536,16.911 C55.536,16.911 28.779,16.911 28.779,16.911 Z" id="path-3" class="cls-3" fill-rule="evenodd"/>
    <path d="M54.985,23.908 C54.303,23.908 53.749,23.373 53.749,22.712 C53.749,22.051 54.303,21.515 54.985,21.515 C54.985,21.515 58.775,21.515 58.775,21.515 C59.458,21.515 60.012,22.051 60.012,22.712 C60.012,23.373 59.458,23.908 58.775,23.908 C58.775,23.908 54.985,23.908 54.985,23.908 Z" id="path-4" class="cls-3" fill-rule="evenodd"/>
    <path d="M28.779,34.933 C28.779,34.933 24.554,34.933 24.554,34.933 C23.739,34.933 23.079,35.433 23.079,36.050 C23.079,36.666 23.739,37.166 24.554,37.166 C24.554,37.166 24.751,37.166 24.751,37.166 C25.565,37.166 26.226,37.666 26.226,38.283 C26.226,38.900 25.565,39.399 24.751,39.399 C24.751,39.399 15.667,39.399 15.667,39.399 C14.852,39.399 14.192,39.899 14.192,40.516 C14.192,41.133 14.852,41.633 15.667,41.633 C15.667,41.633 26.583,41.633 26.583,41.633 C26.583,41.633 48.895,41.633 48.895,41.633 C49.710,41.633 50.370,41.133 50.370,40.516 C50.370,39.899 49.710,39.399 48.895,39.399 C48.895,39.399 46.374,39.399 46.374,39.399 C45.560,39.399 44.899,38.900 44.899,38.283 C44.899,37.666 45.560,37.166 46.374,37.166 C46.374,37.166 56.275,37.166 56.275,37.166 C57.090,37.166 57.750,36.666 57.750,36.050 C57.750,35.433 57.090,34.933 56.275,34.933 C56.275,34.933 55.536,34.933 55.536,34.933 C55.536,34.933 28.779,34.933 28.779,34.933 Z" id="path-5" class="cls-3" fill-rule="evenodd"/>
    <path d="M54.985,41.931 C54.303,41.931 53.749,41.396 53.749,40.735 C53.749,40.074 54.303,39.539 54.985,39.539 C54.985,39.539 58.775,39.539 58.775,39.539 C59.458,39.539 60.012,40.074 60.012,40.735 C60.012,41.396 59.458,41.931 58.775,41.931 C58.775,41.931 54.985,41.931 54.985,41.931 Z" id="path-6" class="cls-3" fill-rule="evenodd"/>
    <path d="M4.387,0.014 C1.971,0.014 0.012,1.973 0.012,4.389 C0.012,6.805 1.971,8.765 4.387,8.765 C6.803,8.765 8.762,6.805 8.762,4.389 C8.762,1.973 6.803,0.014 4.387,0.014 Z" id="path-7" class="cls-9" fill-rule="evenodd"/>
    <circle id="circle-1" class="cls-9" cx="5" cy="22" r="5"/>
    <path d="M4.387,35.014 C1.971,35.014 0.012,36.972 0.012,39.389 C0.012,41.805 1.971,43.763 4.387,43.763 C6.803,43.763 8.762,41.805 8.762,39.389 C8.762,36.972 6.803,35.014 4.387,35.014 Z" id="path-8" class="cls-9" fill-rule="evenodd"/>
  </g>
</svg>
