<svg xmlns="http://www.w3.org/2000/svg" xmlns:xlink="http://www.w3.org/1999/xlink" preserveAspectRatio="xMidYMid" width="60" height="60" viewBox="0 0 60 60">
  <defs>
    <style>

      .cls-3 {
        fill: #ff3a2f;
      }

      .cls-5 {
        fill: #142a3b;
      }

      .cls-6 {
        fill: #000000;
        opacity: 0.35;
      }

      .cls-7 {
        fill: #fbb713;
      }

      .cls-8 {
        fill: #ededed;
      }

      .cls-9 {
        fill: #000000;
        opacity: 0.25;
      }

      .cls-12 {
        fill: #ffffff;
      }
    </style>
  </defs>
  <g id="group-250svg">
    <path d="M28.660,53.936 C28.660,53.936 24.602,53.936 24.602,53.936 C23.819,53.936 23.185,54.370 23.185,54.905 C23.185,55.440 23.819,55.874 24.602,55.874 C24.602,55.874 24.790,55.874 24.790,55.874 C25.573,55.874 26.207,56.307 26.207,56.842 C26.207,57.377 25.573,57.811 24.790,57.811 C24.790,57.811 16.066,57.811 16.066,57.811 C15.283,57.811 14.649,58.245 14.649,58.779 C14.649,59.314 15.283,59.748 16.066,59.748 C16.066,59.748 26.551,59.748 26.551,59.748 C26.551,59.748 47.981,59.748 47.981,59.748 C48.764,59.748 49.398,59.314 49.398,58.779 C49.398,58.245 48.764,57.811 47.981,57.811 C47.981,57.811 45.560,57.811 45.560,57.811 C44.778,57.811 44.144,57.377 44.144,56.842 C44.144,56.307 44.778,55.874 45.560,55.874 C45.560,55.874 55.070,55.874 55.070,55.874 C55.853,55.874 56.487,55.440 56.487,54.905 C56.487,54.370 55.853,53.936 55.070,53.936 C55.070,53.936 54.361,53.936 54.361,53.936 C54.361,53.936 28.660,53.936 28.660,53.936 Z" id="path-1" class="cls-3" fill-rule="evenodd"/>
    <path d="M53.831,60.007 C53.175,60.007 52.644,59.543 52.644,58.970 C52.644,58.396 53.175,57.932 53.831,57.932 C53.831,57.932 57.472,57.932 57.472,57.932 C58.127,57.932 58.660,58.396 58.660,58.970 C58.660,59.543 58.127,60.007 57.472,60.007 C57.472,60.007 53.831,60.007 53.831,60.007 Z" id="path-2" class="cls-3" fill-rule="evenodd"/>
    <path d="M48.201,46.118 C48.201,46.118 3.977,46.118 3.977,46.118 C3.977,46.118 3.977,13.987 3.977,13.987 C3.977,13.987 48.201,13.987 48.201,13.987 C48.201,13.987 48.201,46.118 48.201,46.118 Z" id="path-3" class="cls-5" fill-rule="evenodd"/>
    <path d="M3.977,13.987 C3.977,13.987 3.977,17.525 3.977,17.525 C3.977,17.525 40.241,19.294 40.241,19.294 C40.241,19.294 40.241,46.118 40.241,46.118 C40.241,46.118 48.201,46.118 48.201,46.118 C48.201,46.118 48.201,13.987 48.201,13.987 C48.201,13.987 3.977,13.987 3.977,13.987 Z" id="path-4" class="cls-6" fill-rule="evenodd"/>
    <path d="M42.021,0.008 C42.021,0.008 10.156,0.008 10.156,0.008 C4.545,0.008 -0.004,6.739 -0.004,15.044 C-0.004,15.044 52.181,15.044 52.181,15.044 C52.181,6.739 47.633,0.008 42.021,0.008 Z" id="path-5" class="cls-7" fill-rule="evenodd"/>
    <path d="M3.559,10.440 C3.427,10.440 3.293,10.413 3.165,10.358 C2.658,10.141 2.422,9.553 2.640,9.045 C4.506,4.692 7.805,1.691 11.250,1.213 C11.792,1.134 12.301,1.519 12.378,2.066 C12.454,2.613 12.072,3.118 11.524,3.194 C8.770,3.576 6.070,6.120 4.478,9.833 C4.316,10.212 3.946,10.440 3.559,10.440 Z" id="path-6" class="cls-8" fill-rule="evenodd"/>
    <path d="M42.021,0.007 C42.021,0.007 33.177,0.007 33.177,0.007 C38.788,0.007 43.336,6.739 43.336,15.044 C43.336,15.044 52.181,15.044 52.181,15.044 C52.181,6.739 47.633,0.007 42.021,0.007 Z" id="path-7" class="cls-9" fill-rule="evenodd"/>
    <path d="M0.003,45.419 C0.002,45.462 -0.004,45.503 -0.004,45.546 C-0.004,51.157 4.545,55.705 10.156,55.705 C10.156,55.705 42.021,55.705 42.021,55.705 C47.633,55.705 52.181,51.157 52.181,45.546 C52.181,45.503 52.175,45.462 52.175,45.419 C52.175,45.419 0.003,45.419 0.003,45.419 Z" id="path-8" class="cls-7" fill-rule="evenodd"/>
    <path d="M52.175,45.419 C52.175,45.419 44.214,45.419 44.214,45.419 C44.215,45.462 44.221,45.503 44.221,45.546 C44.221,51.157 39.672,55.705 34.062,55.705 C34.062,55.705 42.021,55.705 42.021,55.705 C47.633,55.705 52.181,51.157 52.181,45.546 C52.181,45.503 52.175,45.462 52.175,45.419 Z" id="path-9" class="cls-9" fill-rule="evenodd"/>
    <path d="M22.108,19.466 C22.108,19.466 30.069,19.466 30.069,19.466 C32.755,19.466 34.934,17.288 34.934,14.601 C34.934,14.601 17.244,14.601 17.244,14.601 C17.244,17.288 19.422,19.466 22.108,19.466 Z" id="path-10" class="cls-12" fill-rule="evenodd"/>
    <path d="M31.395,14.601 C31.395,17.288 29.218,19.466 26.531,19.466 C26.531,19.466 30.069,19.466 30.069,19.466 C32.755,19.466 34.934,17.288 34.934,14.601 C34.934,14.601 31.395,14.601 31.395,14.601 Z" id="path-11" class="cls-9" fill-rule="evenodd"/>
    <path d="M35.929,12.218 C35.929,12.218 19.787,12.218 19.787,12.218 C19.787,12.218 19.787,5.757 19.787,5.757 C19.787,5.757 35.929,5.757 35.929,5.757 C35.929,5.757 35.929,12.218 35.929,12.218 Z" id="path-12" class="cls-6" fill-rule="evenodd"/>
    <path d="M34.160,11.333 C34.160,11.333 18.018,11.333 18.018,11.333 C18.018,11.333 18.018,4.872 18.018,4.872 C18.018,4.872 34.160,4.872 34.160,4.872 C34.160,4.872 34.160,11.333 34.160,11.333 Z" id="path-13" class="cls-3" fill-rule="evenodd"/>
    <path d="M32.677,40.654 C35.005,41.250 37.375,39.846 37.971,37.518 C38.567,35.190 37.164,32.820 34.836,32.224 C34.836,32.224 32.406,31.601 32.406,31.601 C32.406,31.601 31.836,33.824 31.836,33.824 C31.836,33.824 34.267,34.447 34.267,34.447 C35.366,34.729 36.030,35.849 35.748,36.949 C35.466,38.049 34.346,38.712 33.246,38.430 C33.246,38.430 30.816,37.808 30.816,37.808 C30.816,37.808 30.247,40.031 30.247,40.031 C30.247,40.031 32.677,40.654 32.677,40.654 Z" id="path-14" class="cls-12" fill-rule="evenodd"/>
    <path d="M14.758,31.104 C14.758,38.508 18.086,44.510 22.192,44.510 C22.192,44.510 26.744,44.510 26.744,44.510 C30.849,44.510 34.178,38.508 34.178,31.104 C34.178,31.104 14.758,31.104 14.758,31.104 Z" id="path-15" class="cls-12" fill-rule="evenodd"/>
    <path d="M28.871,31.104 C28.871,38.278 25.743,44.119 21.814,44.475 C21.940,44.487 22.064,44.510 22.192,44.510 C22.192,44.510 26.744,44.510 26.744,44.510 C30.849,44.510 34.178,38.508 34.178,31.104 C34.178,31.104 28.871,31.104 28.871,31.104 Z" id="path-16" class="cls-9" fill-rule="evenodd"/>
    <path d="M36.736,52.635 C36.736,52.635 15.442,52.635 15.442,52.635 C15.442,52.635 15.442,50.562 15.442,50.562 C15.442,50.562 36.736,50.562 36.736,50.562 C36.736,50.562 36.736,52.635 36.736,52.635 Z" id="path-17" class="cls-5" fill-rule="evenodd"/>
  </g>
</svg>
