<svg xmlns="http://www.w3.org/2000/svg" xmlns:xlink="http://www.w3.org/1999/xlink" preserveAspectRatio="xMidYMid" width="61" height="54" viewBox="0 0 61 54">
  <defs>
    <style>

      .cls-3 {
        fill: #fbb713;
      }

      .cls-5 {
        fill: #142a3b;
      }

      .cls-6 {
        fill: #000000;
        opacity: 0.35;
      }

      .cls-7 {
        fill: #000000;
      }

      .cls-9 {
        fill: #000000;
        opacity: 0.2;
      }

      .cls-13 {
        fill: #ffffff;
      }

      .cls-21 {
        fill: #ff3a2f;
      }
    </style>
  </defs>
  <g id="group-258svg">
    <path d="M26.369,46.980 C26.369,46.980 21.664,46.980 21.664,46.980 C20.758,46.980 20.022,47.515 20.022,48.177 C20.022,48.838 20.758,49.374 21.664,49.374 C21.664,49.374 21.884,49.374 21.884,49.374 C22.791,49.374 23.525,49.910 23.525,50.571 C23.525,51.232 22.791,51.768 21.884,51.768 C21.884,51.768 11.771,51.768 11.771,51.768 C10.864,51.768 10.129,52.305 10.129,52.966 C10.129,53.627 10.864,54.163 11.771,54.163 C11.771,54.163 23.924,54.163 23.924,54.163 C23.924,54.163 48.764,54.163 48.764,54.163 C49.670,54.163 50.405,53.627 50.405,52.966 C50.405,52.305 49.670,51.768 48.764,51.768 C48.764,51.768 45.957,51.768 45.957,51.768 C45.050,51.768 44.314,51.232 44.314,50.571 C44.314,49.910 45.050,49.374 45.957,49.374 C45.957,49.374 56.979,49.374 56.979,49.374 C57.887,49.374 58.622,48.838 58.622,48.177 C58.622,47.515 57.887,46.980 56.979,46.980 C56.979,46.980 56.157,46.980 56.157,46.980 C56.157,46.980 26.369,46.980 26.369,46.980 Z" id="path-1" class="cls-3" fill-rule="evenodd"/>
    <path d="M55.285,54.270 C54.646,54.270 54.129,53.891 54.129,53.424 C54.129,52.956 54.646,52.577 55.285,52.577 C55.285,52.577 58.830,52.577 58.830,52.577 C59.469,52.577 59.987,52.956 59.987,53.424 C59.987,53.891 59.469,54.270 58.830,54.270 C58.830,54.270 55.285,54.270 55.285,54.270 Z" id="path-2" class="cls-3" fill-rule="evenodd"/>
    <path d="M-0.013,0.008 C-0.013,0.008 -0.013,11.311 -0.013,11.311 C-0.013,11.311 30.968,11.311 30.968,11.311 C30.968,11.311 31.702,19.593 31.702,19.593 C31.702,19.593 24.067,38.831 24.067,38.831 C24.067,38.831 -0.013,38.831 -0.013,38.831 C-0.013,38.831 -0.013,47.186 -0.013,47.186 C-0.013,47.186 46.674,47.186 46.674,47.186 C46.674,47.186 46.674,0.008 46.674,0.008 C46.674,0.008 -0.013,0.008 -0.013,0.008 Z" id="path-3" class="cls-5" fill-rule="evenodd"/>
    <path d="M-0.013,0.008 C-0.013,0.008 -0.013,1.616 -0.013,1.616 C-0.013,1.616 45.065,1.616 45.065,1.616 C45.065,1.616 45.065,47.186 45.065,47.186 C45.065,47.186 46.674,47.186 46.674,47.186 C46.674,47.186 46.674,0.008 46.674,0.008 C46.674,0.008 -0.013,0.008 -0.013,0.008 Z" id="path-4" class="cls-6" fill-rule="evenodd"/>
    <path d="M22.459,40.440 C22.459,40.440 23.098,38.831 23.098,38.831 C23.098,38.831 -0.013,38.831 -0.013,38.831 C-0.013,38.831 -0.013,40.440 -0.013,40.440 C-0.013,40.440 22.459,40.440 22.459,40.440 Z" id="path-5" class="cls-7" fill-rule="evenodd"/>
    <path d="M13.144,38.686 C19.855,38.686 25.296,33.246 25.296,26.534 C25.296,26.534 0.993,26.534 0.993,26.534 C0.993,33.246 6.434,38.686 13.144,38.686 Z" id="path-6" class="cls-3" fill-rule="evenodd"/>
    <path d="M22.884,26.534 C22.884,32.839 18.083,38.020 11.938,38.625 C12.335,38.664 12.737,38.686 13.144,38.686 C19.855,38.686 25.296,33.246 25.296,26.534 C25.296,26.534 22.884,26.534 22.884,26.534 Z" id="path-7" class="cls-9" fill-rule="evenodd"/>
    <path d="M20.382,16.359 C20.382,16.359 4.835,16.359 4.835,16.359 C4.835,16.359 4.835,11.311 4.835,11.311 C4.835,11.311 20.382,11.311 20.382,11.311 C20.382,11.311 20.382,16.359 20.382,16.359 Z" id="path-8" class="cls-5" fill-rule="evenodd"/>
    <path d="M4.835,11.311 C4.835,11.311 4.835,12.115 4.835,12.115 C4.835,12.115 20.382,12.919 20.382,12.919 C20.382,12.919 20.382,11.311 20.382,11.311 C20.382,11.311 4.835,11.311 4.835,11.311 Z" id="path-9" class="cls-6" fill-rule="evenodd"/>
    <path d="M13.681,23.061 C13.681,23.061 11.536,23.061 11.536,23.061 C11.536,23.061 11.536,16.359 11.536,16.359 C11.536,16.359 13.681,16.359 13.681,16.359 C13.681,16.359 13.681,23.061 13.681,23.061 Z" id="path-10" class="cls-5" fill-rule="evenodd"/>
    <path d="M43.703,15.019 C43.703,15.019 35.371,15.019 35.371,15.019 C35.371,15.019 35.371,8.854 35.371,8.854 C35.371,8.854 43.703,8.854 43.703,8.854 C43.703,8.854 43.703,15.019 43.703,15.019 Z" id="path-11" class="cls-13" fill-rule="evenodd"/>
    <path d="M36.175,9.658 C36.175,9.658 43.703,9.658 43.703,9.658 C43.703,9.658 43.703,8.854 43.703,8.854 C43.703,8.854 35.371,8.854 35.371,8.854 C35.371,8.854 35.371,15.019 35.371,15.019 C35.371,15.019 36.175,15.019 36.175,15.019 C36.175,15.019 36.175,9.658 36.175,9.658 Z" id="path-12" class="cls-6" fill-rule="evenodd"/>
    <path d="M38.934,31.834 C37.524,31.834 36.376,32.894 36.209,34.258 C36.209,34.258 34.857,34.258 34.857,34.258 C34.857,34.258 34.857,34.928 34.857,34.928 C34.857,34.928 36.209,34.928 36.209,34.928 C36.376,36.291 37.524,37.351 38.934,37.351 C40.457,37.351 41.692,36.116 41.692,34.593 C41.692,33.069 40.457,31.834 38.934,31.834 Z" id="path-13" class="cls-6" fill-rule="evenodd"/>
    <path d="M38.130,31.030 C36.721,31.030 35.571,32.090 35.404,33.454 C35.404,33.454 34.053,33.454 34.053,33.454 C34.053,33.454 34.053,34.124 34.053,34.124 C34.053,34.124 35.404,34.124 35.404,34.124 C35.571,35.487 36.721,36.547 38.130,36.547 C39.653,36.547 40.889,35.312 40.889,33.788 C40.889,32.265 39.653,31.030 38.130,31.030 Z" id="path-14" class="cls-13" fill-rule="evenodd"/>
    <path d="M36.979,18.638 C36.979,18.638 35.371,18.638 35.371,18.638 C35.371,18.638 35.371,16.895 35.371,16.895 C35.371,16.895 36.979,16.895 36.979,16.895 C36.979,16.895 36.979,18.638 36.979,18.638 Z" id="path-15" class="cls-13" fill-rule="evenodd"/>
    <path d="M43.703,18.638 C43.703,18.638 42.095,18.638 42.095,18.638 C42.095,18.638 42.095,16.895 42.095,16.895 C42.095,16.895 43.703,16.895 43.703,16.895 C43.703,16.895 43.703,18.638 43.703,18.638 Z" id="path-16" class="cls-13" fill-rule="evenodd"/>
    <path d="M43.703,24.267 C43.703,24.267 42.095,24.267 42.095,24.267 C42.095,24.267 42.095,22.525 42.095,22.525 C42.095,22.525 43.703,22.525 43.703,22.525 C43.703,22.525 43.703,24.267 43.703,24.267 Z" id="path-17" class="cls-13" fill-rule="evenodd"/>
    <path d="M36.979,24.267 C36.979,24.267 35.371,24.267 35.371,24.267 C35.371,24.267 35.371,22.525 35.371,22.525 C35.371,22.525 36.979,22.525 36.979,22.525 C36.979,22.525 36.979,24.267 36.979,24.267 Z" id="path-18" class="cls-13" fill-rule="evenodd"/>
    <path d="M13.144,49.331 C13.144,49.331 4.299,49.331 4.299,49.331 C4.299,49.331 4.299,47.186 4.299,47.186 C4.299,47.186 13.144,47.186 13.144,47.186 C13.144,47.186 13.144,49.331 13.144,49.331 Z" id="path-19" class="cls-21" fill-rule="evenodd"/>
    <path d="M45.311,49.331 C45.311,49.331 36.465,49.331 36.465,49.331 C36.465,49.331 36.465,47.186 36.465,47.186 C36.465,47.186 45.311,47.186 45.311,47.186 C45.311,47.186 45.311,49.331 45.311,49.331 Z" id="path-20" class="cls-21" fill-rule="evenodd"/>
    <path d="M13.144,47.186 C13.144,47.186 4.299,47.186 4.299,47.186 C4.299,47.186 4.299,48.258 4.299,48.258 C4.299,48.258 13.144,48.258 13.144,48.258 C13.144,48.258 13.144,47.186 13.144,47.186 Z" id="path-21" class="cls-6" fill-rule="evenodd"/>
    <path d="M36.465,47.186 C36.465,47.186 36.465,48.258 36.465,48.258 C36.465,48.258 45.310,48.258 45.310,48.258 C45.310,48.258 45.310,47.186 45.310,47.186 C45.310,47.186 36.465,47.186 36.465,47.186 Z" id="path-22" class="cls-6" fill-rule="evenodd"/>
  </g>
</svg>
