<svg xmlns="http://www.w3.org/2000/svg" xmlns:xlink="http://www.w3.org/1999/xlink" preserveAspectRatio="xMidYMid" width="60" height="44" viewBox="0 0 60 44">
  <defs>
    <style>

      .cls-3 {
        fill: #142a3b;
      }

      .cls-5 {
        fill: #ff3a2f;
      }

      .cls-6 {
        fill: #0cb04a;
      }

      .cls-7 {
        fill: #fbb713;
      }

      .cls-8 {
        fill: #000000;
        opacity: 0.35;
      }
    </style>
  </defs>
  <g id="group-278svg">
    <path d="M19.532,35.076 C19.532,35.076 13.871,35.076 13.871,35.076 C12.780,35.076 11.894,35.720 11.894,36.516 C11.894,37.312 12.780,37.957 13.871,37.957 C13.871,37.957 14.135,37.957 14.135,37.957 C15.227,37.957 16.111,38.602 16.111,39.397 C16.111,40.193 15.227,40.838 14.135,40.838 C14.135,40.838 1.966,40.838 1.966,40.838 C0.874,40.838 -0.011,41.483 -0.011,42.279 C-0.011,43.075 0.874,43.719 1.966,43.719 C1.966,43.719 16.590,43.719 16.590,43.719 C16.590,43.719 46.482,43.719 46.482,43.719 C47.573,43.719 48.458,43.075 48.458,42.279 C48.458,41.483 47.573,40.838 46.482,40.838 C46.482,40.838 43.104,40.838 43.104,40.838 C42.014,40.838 41.129,40.193 41.129,39.397 C41.129,38.602 42.014,37.957 43.104,37.957 C43.104,37.957 56.369,37.957 56.369,37.957 C57.461,37.957 58.346,37.312 58.346,36.516 C58.346,35.720 57.461,35.076 56.369,35.076 C56.369,35.076 55.380,35.076 55.380,35.076 C55.380,35.076 19.532,35.076 19.532,35.076 Z" id="path-1" class="cls-3" fill-rule="evenodd"/>
    <path d="M54.331,43.849 C53.562,43.849 52.938,43.393 52.938,42.830 C52.938,42.267 53.562,41.811 54.331,41.811 C54.331,41.811 58.597,41.811 58.597,41.811 C59.366,41.811 59.989,42.267 59.989,42.830 C59.989,43.393 59.366,43.849 58.597,43.849 C58.597,43.849 54.331,43.849 54.331,43.849 Z" id="path-2" class="cls-3" fill-rule="evenodd"/>
    <path d="M48.376,23.228 C48.376,23.228 48.376,30.002 48.376,30.002 C48.376,34.277 40.142,37.744 29.988,37.744 C19.835,37.744 11.601,34.277 11.601,30.002 C11.601,30.002 11.601,23.228 11.601,23.228 C11.601,23.228 28.802,37.099 48.376,23.228 Z" id="path-3" class="cls-5" fill-rule="evenodd"/>
    <path d="M48.376,15.486 C48.376,15.486 48.376,22.260 48.376,22.260 C48.376,26.535 40.142,30.002 29.988,30.002 C19.835,30.002 11.601,26.535 11.601,22.260 C11.601,22.260 11.601,15.486 11.601,15.486 C11.601,15.486 28.802,29.357 48.376,15.486 Z" id="path-4" class="cls-6" fill-rule="evenodd"/>
    <path d="M48.376,8.712 C48.376,8.712 48.376,15.486 48.376,15.486 C48.376,19.761 40.142,23.228 29.988,23.228 C19.835,23.228 11.601,19.761 11.601,15.486 C11.601,15.486 11.601,8.712 11.601,8.712 C11.601,8.712 28.802,22.582 48.376,8.712 Z" id="path-5" class="cls-7" fill-rule="evenodd"/>
    <path d="M43.537,27.764 C43.537,27.764 43.537,30.969 43.537,30.969 C43.537,33.653 40.292,36.016 35.367,37.405 C42.896,36.436 48.376,33.489 48.376,30.002 C48.376,30.002 48.376,23.228 48.376,23.228 C46.518,25.950 45.129,26.969 43.537,27.764 Z" id="path-6" class="cls-8" fill-rule="evenodd"/>
    <path d="M43.537,20.719 C43.537,20.719 43.537,23.228 43.537,23.228 C43.537,25.911 40.292,28.274 35.367,29.663 C42.896,28.695 48.376,25.747 48.376,22.260 C48.376,22.260 48.376,16.453 48.376,16.453 C47.244,18.933 45.129,19.924 43.537,20.719 Z" id="path-7" class="cls-8" fill-rule="evenodd"/>
    <path d="M33.348,14.686 C20.777,16.097 11.601,8.712 11.601,8.712 C11.601,8.712 11.601,12.593 11.601,12.593 C16.360,14.902 24.224,17.324 33.348,14.686 Z" id="path-8" class="cls-8" fill-rule="evenodd"/>
    <path d="M43.537,11.613 C43.537,11.613 43.537,16.453 43.537,16.453 C43.537,19.137 40.292,21.500 35.367,22.890 C42.896,21.920 48.376,18.973 48.376,15.486 C48.376,15.486 48.376,8.712 48.376,8.712 C46.743,9.869 45.129,10.817 43.537,11.613 Z" id="path-9" class="cls-8" fill-rule="evenodd"/>
    <path d="M48.376,7.744 C48.376,12.019 40.143,15.486 29.989,15.486 C19.836,15.486 11.601,12.019 11.601,7.744 C11.601,3.468 19.836,0.002 29.989,0.002 C40.143,0.002 48.376,3.468 48.376,7.744 Z" id="path-10" class="cls-5" fill-rule="evenodd"/>
  </g>
</svg>
