<svg xmlns="http://www.w3.org/2000/svg" xmlns:xlink="http://www.w3.org/1999/xlink" preserveAspectRatio="xMidYMid" width="60" height="48" viewBox="0 0 60 48">
  <defs>
    <style>

      .cls-3 {
        fill: #ff3a2f;
      }

      .cls-6 {
        fill: #fbb713;
      }

      .cls-9 {
        fill: #000000;
        opacity: 0.2;
      }

      .cls-12 {
        fill: #000000;
        opacity: 0.35;
      }

      .cls-14 {
        fill: #000000;
        opacity: 0.1;
      }
    </style>
  </defs>
  <g id="group-222svg">
    <path d="M42.029,48.252 C42.029,48.252 46.022,48.252 46.022,48.252 C46.793,48.252 47.417,47.889 47.417,47.442 C47.417,46.995 46.793,46.633 46.022,46.633 C46.022,46.633 45.837,46.633 45.837,46.633 C45.066,46.633 44.442,46.271 44.442,45.824 C44.442,45.377 45.066,45.014 45.837,45.014 C45.837,45.014 54.421,45.014 54.421,45.014 C55.191,45.014 55.815,44.652 55.815,44.205 C55.815,43.758 55.191,43.395 54.421,43.395 C54.421,43.395 44.104,43.395 44.104,43.395 C44.104,43.395 23.019,43.395 23.019,43.395 C22.249,43.395 21.625,43.758 21.625,44.205 C21.625,44.652 22.249,45.014 23.019,45.014 C23.019,45.014 25.401,45.014 25.401,45.014 C26.172,45.014 26.796,45.377 26.796,45.824 C26.796,46.271 26.172,46.633 25.401,46.633 C25.401,46.633 14.063,46.633 14.063,46.633 C13.293,46.633 12.669,46.995 12.669,47.442 C12.669,47.889 13.293,48.252 14.063,48.252 C14.063,48.252 16.743,48.252 16.743,48.252 C16.743,48.252 42.029,48.252 42.029,48.252 Z" id="path-1" class="cls-3" fill-rule="evenodd"/>
    <path d="M15.507,40.410 C15.507,40.410 17.618,40.410 17.618,40.410 C18.025,40.410 18.355,40.121 18.355,39.764 C18.355,39.409 18.025,39.120 17.618,39.120 C17.618,39.120 17.520,39.120 17.520,39.120 C17.113,39.120 16.783,38.831 16.783,38.475 C16.783,38.119 17.113,37.830 17.520,37.830 C17.520,37.830 22.057,37.830 22.057,37.830 C22.464,37.830 22.793,37.542 22.793,37.185 C22.793,36.829 22.464,36.541 22.057,36.541 C22.057,36.541 16.604,36.541 16.604,36.541 C16.604,36.541 5.460,36.541 5.460,36.541 C5.053,36.541 4.724,36.829 4.724,37.185 C4.724,37.542 5.053,37.830 5.460,37.830 C5.460,37.830 6.719,37.830 6.719,37.830 C7.126,37.830 7.456,38.119 7.456,38.475 C7.456,38.831 7.126,39.120 6.719,39.120 C6.719,39.120 0.727,39.120 0.727,39.120 C0.320,39.120 -0.010,39.409 -0.010,39.764 C-0.010,40.121 0.320,40.410 0.727,40.410 C0.727,40.410 2.143,40.410 2.143,40.410 C2.143,40.410 15.507,40.410 15.507,40.410 Z" id="path-2" class="cls-3" fill-rule="evenodd"/>
    <path d="M15.874,43.340 C16.742,43.340 17.444,43.739 17.444,44.231 C17.444,44.724 16.742,45.124 15.874,45.124 C15.874,45.124 11.064,45.124 11.064,45.124 C10.197,45.124 9.494,44.724 9.494,44.231 C9.494,43.739 10.197,43.340 11.064,43.340 C11.064,43.340 15.874,43.340 15.874,43.340 Z" id="path-3" class="cls-3" fill-rule="evenodd"/>
    <path d="M20.181,-0.001 C20.181,-0.001 22.803,9.549 22.803,9.549 C22.803,9.549 7.084,8.467 7.084,8.467 C7.039,8.467 7.002,8.351 6.956,8.355 C6.956,8.355 20.181,-0.001 20.181,-0.001 Z" id="path-4" class="cls-6" fill-rule="evenodd"/>
    <path d="M59.990,8.690 C59.990,8.690 44.236,8.690 44.236,8.690 C44.236,8.690 46.799,-0.001 46.799,-0.001 C46.799,-0.001 59.990,8.690 59.990,8.690 Z" id="path-5" class="cls-6" fill-rule="evenodd"/>
    <path d="M44.177,9.549 C44.177,9.549 22.803,9.549 22.803,9.549 C22.803,9.549 20.181,-0.001 20.181,-0.001 C20.181,-0.001 46.799,-0.001 46.799,-0.001 C46.799,-0.001 44.177,9.549 44.177,9.549 Z" id="path-6" class="cls-6" fill-rule="evenodd"/>
    <path d="M44.177,9.549 C44.177,9.549 22.803,9.549 22.803,9.549 C22.803,9.549 20.181,-0.001 20.181,-0.001 C20.181,-0.001 46.799,-0.001 46.799,-0.001 C46.799,-0.001 44.177,9.549 44.177,9.549 Z" id="path-7" class="cls-9" fill-rule="evenodd"/>
    <path d="M44.236,8.690 C44.236,8.690 33.685,44.558 33.685,44.558 C33.685,44.558 22.840,8.467 22.840,8.467 C22.840,8.467 44.236,8.690 44.236,8.690 Z" id="path-8" class="cls-6" fill-rule="evenodd"/>
    <path d="M22.840,8.467 C22.840,8.467 33.685,44.558 33.685,44.558 C33.685,44.558 7.084,8.467 7.084,8.467 C7.084,8.467 22.840,8.467 22.840,8.467 Z" id="path-9" class="cls-6" fill-rule="evenodd"/>
    <path d="M22.840,8.467 C22.840,8.467 33.685,44.558 33.685,44.558 C33.685,44.558 7.084,8.467 7.084,8.467 C7.084,8.467 22.840,8.467 22.840,8.467 Z" id="path-10" class="cls-12" fill-rule="evenodd"/>
    <path d="M44.236,8.690 C44.236,8.690 59.990,8.690 59.990,8.690 C59.990,8.690 33.685,44.558 33.685,44.558 C33.685,44.558 44.236,8.690 44.236,8.690 Z" id="path-11" class="cls-6" fill-rule="evenodd"/>
    <path d="M44.236,8.690 C44.236,8.690 59.990,8.690 59.990,8.690 C59.990,8.690 33.685,44.558 33.685,44.558 C33.685,44.558 44.236,8.690 44.236,8.690 Z" id="path-12" class="cls-14" fill-rule="evenodd"/>
  </g>
</svg>
