<svg xmlns="http://www.w3.org/2000/svg" xmlns:xlink="http://www.w3.org/1999/xlink" preserveAspectRatio="xMidYMid" width="60" height="61" viewBox="0 0 60 61">
  <defs>
    <style>

      .cls-3 {
        fill: #2476ff;
      }

      .cls-5 {
        fill: #142a3b;
      }

      .cls-6 {
        fill: #000000;
        opacity: 0.35;
      }

      .cls-7 {
        fill: #fbb713;
      }

      .cls-9 {
        fill: #ededed;
      }
    </style>
  </defs>
  <g id="group-229svg">
    <path d="M19.367,51.299 C19.367,51.299 13.756,51.299 13.756,51.299 C12.675,51.299 11.798,51.938 11.798,52.727 C11.798,53.515 12.675,54.155 13.756,54.155 C13.756,54.155 14.018,54.155 14.018,54.155 C15.100,54.155 15.977,54.794 15.977,55.583 C15.977,56.371 15.100,57.010 14.018,57.010 C14.018,57.010 1.956,57.010 1.956,57.010 C0.875,57.010 -0.002,57.650 -0.002,58.438 C-0.002,59.227 0.875,59.866 1.956,59.866 C1.956,59.866 16.451,59.866 16.451,59.866 C16.451,59.866 46.077,59.866 46.077,59.866 C47.158,59.866 48.035,59.227 48.035,58.438 C48.035,57.650 47.158,57.010 46.077,57.010 C46.077,57.010 42.729,57.010 42.729,57.010 C41.647,57.010 40.770,56.371 40.770,55.583 C40.770,54.794 41.647,54.155 42.729,54.155 C42.729,54.155 55.876,54.155 55.876,54.155 C56.958,54.155 57.835,53.515 57.835,52.727 C57.835,51.938 56.958,51.299 55.876,51.299 C55.876,51.299 54.895,51.299 54.895,51.299 C54.895,51.299 19.367,51.299 19.367,51.299 Z" id="path-1" class="cls-3" fill-rule="evenodd"/>
    <path d="M53.855,59.994 C53.094,59.994 52.476,59.542 52.476,58.984 C52.476,58.426 53.094,57.974 53.855,57.974 C53.855,57.974 58.084,57.974 58.084,57.974 C58.846,57.974 59.464,58.426 59.464,58.984 C59.464,59.542 58.846,59.994 58.084,59.994 C58.084,59.994 53.855,59.994 53.855,59.994 Z" id="path-2" class="cls-3" fill-rule="evenodd"/>
    <path d="M33.617,1.546 C33.617,0.689 33.016,-0.006 32.271,-0.006 C32.271,-0.006 24.195,-0.006 24.195,-0.006 C23.452,-0.006 22.850,0.689 22.850,1.546 C22.850,1.546 22.850,9.303 22.850,9.303 C22.850,9.303 33.617,9.303 33.617,9.303 C33.617,9.303 33.617,1.546 33.617,1.546 Z" id="path-3" class="cls-5" fill-rule="evenodd"/>
    <path d="M32.271,-0.006 C32.271,-0.006 28.051,-0.006 28.051,-0.006 C28.795,-0.006 29.396,0.689 29.396,1.546 C29.396,1.546 29.396,9.303 29.396,9.303 C29.396,9.303 33.617,9.303 33.617,9.303 C33.617,9.303 33.617,1.546 33.617,1.546 C33.617,0.689 33.016,-0.006 32.271,-0.006 Z" id="path-4" class="cls-6" fill-rule="evenodd"/>
    <path d="M40.347,9.303 C40.347,9.303 33.617,9.303 33.617,9.303 C33.617,9.303 22.850,9.303 22.850,9.303 C22.850,9.303 16.120,9.303 16.120,9.303 C15.376,9.303 14.774,9.998 14.774,10.854 C14.774,10.854 14.774,51.195 14.774,51.195 C14.774,52.055 15.376,52.747 16.120,52.747 C16.120,52.747 40.347,52.747 40.347,52.747 C41.091,52.747 41.692,52.055 41.692,51.195 C41.692,51.195 41.692,10.854 41.692,10.854 C41.692,9.998 41.091,9.303 40.347,9.303 Z" id="path-5" class="cls-7" fill-rule="evenodd"/>
    <path d="M40.347,9.303 C40.347,9.303 34.017,9.303 34.017,9.303 C34.760,9.303 35.362,9.998 35.362,10.854 C35.362,10.854 35.362,51.195 35.362,51.195 C35.362,52.054 34.760,52.747 34.017,52.747 C34.017,52.747 40.347,52.747 40.347,52.747 C41.091,52.747 41.692,52.054 41.692,51.195 C41.692,51.195 41.692,10.854 41.692,10.854 C41.692,9.998 41.091,9.303 40.347,9.303 Z" id="path-6" class="cls-6" fill-rule="evenodd"/>
    <path d="M20.163,46.006 C19.610,46.006 19.163,45.558 19.163,45.006 C19.163,45.006 19.163,19.455 19.163,19.455 C19.163,18.903 19.610,18.456 20.163,18.456 C20.716,18.456 21.163,18.903 21.163,19.455 C21.163,19.455 21.163,45.006 21.163,45.006 C21.163,45.558 20.716,46.006 20.163,46.006 Z" id="path-7" class="cls-9" fill-rule="evenodd"/>
  </g>
</svg>
