<svg xmlns="http://www.w3.org/2000/svg" xmlns:xlink="http://www.w3.org/1999/xlink" preserveAspectRatio="xMidYMid" width="60" height="53" viewBox="0 0 60 53">
  <defs>
    <style>

      .cls-3 {
        fill: #2476ff;
      }

      .cls-6 {
        fill: #142a3b;
      }

      .cls-7 {
        fill: #010101;
        opacity: 0.35;
      }

      .cls-8 {
        fill: #ff3a2f;
      }

      .cls-15 {
        fill: #000000;
        opacity: 0.25;
      }

      .cls-16 {
        fill: #fbb713;
      }
    </style>
  </defs>
  <g id="group-10svg">
    <path d="M51.063,48.598 C51.063,48.598 54.299,48.598 54.299,48.598 C54.923,48.598 55.428,48.879 55.428,49.225 C55.428,49.572 54.923,49.853 54.299,49.853 C54.299,49.853 54.148,49.853 54.148,49.853 C53.524,49.853 53.018,50.134 53.018,50.480 C53.018,50.827 53.524,51.108 54.148,51.108 C54.148,51.108 58.859,51.108 58.859,51.108 C59.483,51.108 59.989,51.389 59.989,51.735 C59.989,52.081 59.483,52.362 58.859,52.362 C58.859,52.362 52.745,52.362 52.745,52.362 C52.745,52.362 43.560,52.362 43.560,52.362 C42.935,52.362 42.431,52.081 42.431,51.735 C42.431,51.389 42.935,51.108 43.560,51.108 C43.560,51.108 45.490,51.108 45.490,51.108 C46.113,51.108 46.619,50.827 46.619,50.480 C46.619,50.134 46.113,49.853 45.490,49.853 C45.490,49.853 36.305,49.853 36.305,49.853 C35.681,49.853 35.175,49.572 35.175,49.225 C35.175,48.879 35.681,48.598 36.305,48.598 C36.305,48.598 38.476,48.598 38.476,48.598 C38.476,48.598 51.063,48.598 51.063,48.598 Z" id="path-1" class="cls-3" fill-rule="evenodd"/>
    <path d="M13.365,29.874 C13.365,29.874 16.089,29.874 16.089,29.874 C16.614,29.874 17.040,30.155 17.040,30.501 C17.040,30.847 16.614,31.129 16.089,31.129 C16.089,31.129 15.962,31.129 15.962,31.129 C15.437,31.129 15.012,31.409 15.012,31.756 C15.012,32.102 15.437,32.383 15.962,32.383 C15.962,32.383 19.929,32.383 19.929,32.383 C20.454,32.383 20.880,32.664 20.880,33.011 C20.880,33.357 20.454,33.638 19.929,33.638 C19.929,33.638 14.781,33.638 14.781,33.638 C14.781,33.638 7.048,33.638 7.048,33.638 C6.523,33.638 6.098,33.357 6.098,33.011 C6.098,32.664 6.523,32.383 7.048,32.383 C7.048,32.383 8.673,32.383 8.673,32.383 C9.198,32.383 9.624,32.102 9.624,31.756 C9.624,31.409 9.198,31.129 8.673,31.129 C8.673,31.129 0.939,31.129 0.939,31.129 C0.415,31.129 -0.011,30.847 -0.011,30.501 C-0.011,30.155 0.415,29.874 0.939,29.874 C0.939,29.874 2.768,29.874 2.768,29.874 C2.768,29.874 13.365,29.874 13.365,29.874 Z" id="path-2" class="cls-3" fill-rule="evenodd"/>
    <path d="M37.355,52.900 C37.979,52.900 38.485,52.618 38.485,52.272 C38.485,51.925 37.979,51.645 37.355,51.645 C37.355,51.645 33.894,51.645 33.894,51.645 C33.271,51.645 32.766,51.925 32.766,52.272 C32.766,52.618 33.271,52.900 33.894,52.900 C33.894,52.900 37.355,52.900 37.355,52.900 Z" id="path-3" class="cls-3" fill-rule="evenodd"/>
    <path d="M34.042,11.544 C33.396,7.817 30.146,4.982 26.234,4.982 C21.858,4.982 18.310,8.530 18.310,12.906 C18.310,12.906 18.475,49.148 18.475,49.148 C18.475,49.148 14.098,49.148 14.098,49.148 C14.098,49.148 14.297,11.929 14.297,11.929 C14.297,5.336 19.642,-0.009 26.234,-0.009 C32.828,-0.009 38.173,5.336 38.173,11.929 C38.173,11.929 38.173,11.929 38.173,11.929 " id="path-4" class="cls-6" fill-rule="evenodd"/>
    <path d="M38.130,11.087 C38.060,10.093 37.876,9.133 37.578,8.221 C37.217,8.107 36.839,8.028 36.439,8.028 C36.439,8.028 35.346,8.028 35.346,8.028 C34.470,8.028 33.672,8.337 33.030,8.837 C33.436,9.513 33.741,10.252 33.932,11.039 C34.566,10.911 35.220,10.832 35.892,10.832 C36.663,10.832 37.411,10.921 38.130,11.087 Z" id="path-5" class="cls-7" fill-rule="evenodd"/>
    <path d="M47.037,26.936 C47.037,26.936 24.748,26.936 24.748,26.936 C24.748,26.936 24.748,24.884 24.748,24.884 C24.748,24.884 47.037,24.884 47.037,24.884 C47.037,24.884 47.037,26.936 47.037,26.936 Z" id="path-6" class="cls-8" fill-rule="evenodd"/>
    <path d="M41.190,35.377 C41.190,34.266 43.200,31.756 43.200,31.756 C43.200,31.756 45.211,34.266 45.211,35.377 C45.211,36.487 44.311,37.387 43.200,37.387 C42.090,37.387 41.190,36.487 41.190,35.377 Z" id="path-7" class="cls-3" fill-rule="evenodd"/>
    <path d="M34.034,35.377 C34.034,34.266 36.045,31.756 36.045,31.756 C36.045,31.756 38.056,34.266 38.056,35.377 C38.056,36.487 37.155,37.387 36.045,37.387 C34.934,37.387 34.034,36.487 34.034,35.377 Z" id="path-8" class="cls-3" fill-rule="evenodd"/>
    <path d="M26.879,35.377 C26.879,34.266 28.889,31.756 28.889,31.756 C28.889,31.756 30.899,34.266 30.899,35.377 C30.899,36.487 30.000,37.387 28.889,37.387 C27.778,37.387 26.879,36.487 26.879,35.377 Z" id="path-9" class="cls-3" fill-rule="evenodd"/>
    <path d="M37.463,44.033 C37.463,43.188 38.994,41.276 38.994,41.276 C38.994,41.276 40.525,43.188 40.525,44.033 C40.525,44.879 39.840,45.564 38.994,45.564 C38.148,45.564 37.463,44.879 37.463,44.033 Z" id="path-10" class="cls-3" fill-rule="evenodd"/>
    <path d="M29.598,48.949 C29.598,48.104 31.129,46.191 31.129,46.191 C31.129,46.191 32.660,48.104 32.660,48.949 C32.660,49.794 31.975,50.480 31.129,50.480 C30.283,50.480 29.598,49.794 29.598,48.949 Z" id="path-11" class="cls-3" fill-rule="evenodd"/>
    <path d="M35.892,12.799 C37.445,12.799 38.911,13.158 40.227,13.781 C40.227,13.781 40.227,13.781 40.227,13.781 C40.227,11.690 38.531,9.994 36.439,9.994 C36.439,9.994 35.346,9.994 35.346,9.994 C33.254,9.994 31.559,11.690 31.559,13.781 C31.559,13.781 31.559,13.781 31.559,13.781 C32.874,13.157 34.340,12.799 35.892,12.799 Z" id="path-12" class="cls-8" fill-rule="evenodd"/>
    <path d="M31.559,13.781 C32.874,13.157 34.340,12.799 35.892,12.799 C37.445,12.799 38.911,13.158 40.227,13.781 C40.227,13.088 40.026,12.447 39.701,11.887 C39.701,11.887 32.084,11.887 32.084,11.887 C31.759,12.447 31.559,13.088 31.559,13.781 Z" id="path-13" class="cls-15" fill-rule="evenodd"/>
    <path d="M45.850,24.884 C45.971,24.256 46.039,23.609 46.039,22.946 C46.039,17.342 41.497,12.799 35.892,12.799 C30.289,12.799 25.746,17.342 25.746,22.946 C25.746,23.609 25.814,24.256 25.936,24.884 C25.936,24.884 45.850,24.884 45.850,24.884 Z" id="path-14" class="cls-16" fill-rule="evenodd"/>
    <path d="M25.753,24.061 C25.761,24.678 25.822,24.298 25.936,24.884 C25.936,24.884 45.850,24.884 45.850,24.884 C45.963,24.298 46.024,23.694 46.033,23.078 C46.033,23.078 25.753,24.061 25.753,24.061 Z" id="path-15" class="cls-15" fill-rule="evenodd"/>
  </g>
</svg>
