<svg xmlns="http://www.w3.org/2000/svg" xmlns:xlink="http://www.w3.org/1999/xlink" preserveAspectRatio="xMidYMid" width="60" height="53" viewBox="0 0 60 53">
  <defs>
    <style>

      .cls-3 {
        fill: #142a3b;
      }

      .cls-5 {
        fill: #ff3a2f;
      }

      .cls-7 {
        fill: #0cb04a;
      }

      .cls-8 {
        fill: #000000;
        opacity: 0.35;
      }
    </style>
  </defs>
  <g id="group-288svg">
    <path d="M22.848,44.277 C22.848,44.277 17.820,44.277 17.820,44.277 C16.851,44.277 16.064,44.871 16.064,45.603 C16.064,46.336 16.851,46.930 17.820,46.930 C17.820,46.930 18.054,46.930 18.054,46.930 C19.023,46.930 19.809,47.523 19.809,48.255 C19.809,48.988 19.023,49.581 18.054,49.581 C18.054,49.581 7.245,49.581 7.245,49.581 C6.275,49.581 5.489,50.174 5.489,50.907 C5.489,51.639 6.275,52.233 7.245,52.233 C7.245,52.233 20.235,52.233 20.235,52.233 C20.235,52.233 46.786,52.233 46.786,52.233 C47.756,52.233 48.541,51.639 48.541,50.907 C48.541,50.174 47.756,49.581 46.786,49.581 C46.786,49.581 43.786,49.581 43.786,49.581 C42.817,49.581 42.031,48.988 42.031,48.255 C42.031,47.523 42.817,46.930 43.786,46.930 C43.786,46.930 55.569,46.930 55.569,46.930 C56.538,46.930 57.324,46.336 57.324,45.603 C57.324,44.871 56.538,44.277 55.569,44.277 C55.569,44.277 54.689,44.277 54.689,44.277 C54.689,44.277 22.848,44.277 22.848,44.277 Z" id="path-1" class="cls-3" fill-rule="evenodd"/>
    <path d="M54.034,52.588 C53.221,52.588 52.562,51.952 52.562,51.167 C52.562,50.382 53.221,49.746 54.034,49.746 C54.034,49.746 58.544,49.746 58.544,49.746 C59.356,49.746 60.016,50.382 60.016,51.167 C60.016,51.952 59.356,52.588 58.544,52.588 C58.544,52.588 54.034,52.588 54.034,52.588 Z" id="path-2" class="cls-3" fill-rule="evenodd"/>
    <path d="M37.280,42.066 C37.280,44.104 38.925,45.756 40.954,45.756 C42.982,45.756 44.627,44.104 44.627,42.066 C44.627,40.028 42.982,38.376 40.954,38.376 C38.925,38.376 37.280,40.028 37.280,42.066 Z" id="path-3" class="cls-5" fill-rule="evenodd"/>
    <path d="M18.390,42.066 C18.390,44.104 20.035,45.756 22.063,45.756 C24.092,45.756 25.736,44.104 25.736,42.066 C25.736,40.028 24.092,38.376 22.063,38.376 C20.035,38.376 18.390,40.028 18.390,42.066 Z" id="path-4" class="cls-5" fill-rule="evenodd"/>
    <path d="M17.334,30.779 C17.334,30.779 49.097,30.779 49.097,30.779 C49.097,30.779 56.443,8.637 56.443,8.637 C56.443,8.637 12.365,8.637 12.365,8.637 C12.365,8.637 12.365,8.637 12.365,8.637 " id="path-5" class="cls-7" fill-rule="evenodd"/>
    <path d="M49.895,8.637 C49.895,8.637 47.469,15.951 47.469,15.951 C45.239,22.672 38.942,27.211 31.848,27.211 C31.848,27.211 16.534,27.211 16.534,27.211 C16.534,27.211 17.334,30.779 17.334,30.779 C17.334,30.779 49.097,30.779 49.097,30.779 C49.097,30.779 56.443,8.637 56.443,8.637 C56.443,8.637 49.895,8.637 49.895,8.637 Z" id="path-6" class="cls-8" fill-rule="evenodd"/>
    <path d="M45.424,36.699 C45.424,36.699 17.711,36.699 17.711,36.699 C17.711,36.699 8.810,2.013 8.810,2.013 C8.810,2.013 1.016,2.013 1.016,2.013 C0.463,2.013 0.016,1.565 0.016,1.013 C0.016,0.461 0.463,0.013 1.016,0.013 C1.016,0.013 10.362,0.013 10.362,0.013 C10.362,0.013 19.263,34.700 19.263,34.700 C19.263,34.700 45.424,34.700 45.424,34.700 C45.976,34.700 46.424,35.147 46.424,35.699 C46.424,36.252 45.976,36.699 45.424,36.699 Z" id="path-7" class="cls-3" fill-rule="evenodd"/>
  </g>
</svg>
