<svg xmlns="http://www.w3.org/2000/svg" xmlns:xlink="http://www.w3.org/1999/xlink" preserveAspectRatio="xMidYMid" width="60" height="39" viewBox="0 0 60 39">
  <defs>
    <style>

      .cls-3 {
        fill: #020403;
      }

      .cls-4 {
        fill: #142a3b;
      }

      .cls-7 {
        fill: #2476ff;
      }

      .cls-8 {
        fill: #ffffff;
      }

      .cls-9 {
        fill: #020403;
        opacity: 0.35;
      }
    </style>
  </defs>
  <g id="group-66svg">
    <path d="M9.603,32.242 C8.159,32.275 4.790,33.720 2.283,35.372 C2.183,35.758 2.096,36.141 2.039,36.515 C1.973,36.948 2.172,37.380 2.545,37.611 C2.918,37.845 3.392,37.830 3.752,37.578 C6.287,35.807 9.988,34.190 11.517,34.156 C12.608,34.532 13.325,34.883 14.059,35.471 C12.299,33.494 11.537,32.908 9.603,32.242 Z" id="path-1" class="cls-3" fill-rule="evenodd"/>
    <path d="M37.714,29.874 C37.714,29.874 41.867,29.874 41.867,29.874 C42.668,29.874 43.317,30.285 43.317,30.793 C43.317,31.300 42.668,31.711 41.867,31.711 C41.867,31.711 41.674,31.711 41.674,31.711 C40.873,31.711 40.224,32.123 40.224,32.630 C40.224,33.138 40.873,33.549 41.674,33.549 C41.674,33.549 50.602,33.549 50.602,33.549 C51.403,33.549 52.053,33.960 52.053,34.468 C52.053,34.975 51.403,35.386 50.602,35.386 C50.602,35.386 39.873,35.386 39.873,35.386 C39.873,35.386 28.079,35.386 28.079,35.386 C27.278,35.386 26.629,34.975 26.629,34.468 C26.629,33.960 27.278,33.549 28.079,33.549 C28.079,33.549 30.558,33.549 30.558,33.549 C31.358,33.549 32.007,33.138 32.007,32.630 C32.007,32.123 31.358,31.711 30.558,31.711 C30.558,31.711 18.764,31.711 18.764,31.711 C17.963,31.711 17.313,31.300 17.313,30.793 C17.313,30.285 17.963,29.874 18.764,29.874 C18.764,29.874 21.551,29.874 21.551,29.874 C21.551,29.874 37.714,29.874 37.714,29.874 Z" id="path-2" class="cls-4" fill-rule="evenodd"/>
    <path d="M6.557,14.511 C6.557,14.511 7.894,14.511 7.894,14.511 C8.152,14.511 8.361,14.736 8.361,15.015 C8.361,15.294 8.152,15.520 7.894,15.520 C7.894,15.520 7.832,15.520 7.832,15.520 C7.574,15.520 7.365,15.746 7.365,16.024 C7.365,16.304 7.574,16.529 7.832,16.529 C7.832,16.529 10.707,16.529 10.707,16.529 C10.965,16.529 11.174,16.755 11.174,17.034 C11.174,17.313 10.965,17.538 10.707,17.538 C10.707,17.538 7.252,17.538 7.252,17.538 C7.252,17.538 3.455,17.538 3.455,17.538 C3.197,17.538 2.988,17.313 2.988,17.034 C2.988,16.755 3.197,16.529 3.455,16.529 C3.455,16.529 4.253,16.529 4.253,16.529 C4.511,16.529 4.720,16.304 4.720,16.024 C4.720,15.746 4.511,15.520 4.253,15.520 C4.253,15.520 0.456,15.520 0.456,15.520 C0.198,15.520 -0.011,15.294 -0.011,15.015 C-0.011,14.736 0.198,14.511 0.456,14.511 C0.456,14.511 1.354,14.511 1.354,14.511 C1.354,14.511 6.557,14.511 6.557,14.511 Z" id="path-3" class="cls-4" fill-rule="evenodd"/>
    <path d="M55.373,23.396 C55.373,23.396 56.710,23.396 56.710,23.396 C56.968,23.396 57.177,23.622 57.177,23.901 C57.177,24.180 56.968,24.406 56.710,24.406 C56.710,24.406 56.647,24.406 56.647,24.406 C56.390,24.406 56.181,24.631 56.181,24.910 C56.181,25.189 56.390,25.415 56.647,25.415 C56.647,25.415 59.522,25.415 59.522,25.415 C59.780,25.415 59.989,25.640 59.989,25.919 C59.989,26.198 59.780,26.424 59.522,26.424 C59.522,26.424 56.067,26.424 56.067,26.424 C56.067,26.424 52.270,26.424 52.270,26.424 C52.013,26.424 51.804,26.198 51.804,25.919 C51.804,25.640 52.013,25.415 52.270,25.415 C52.270,25.415 53.068,25.415 53.068,25.415 C53.326,25.415 53.535,25.189 53.535,24.910 C53.535,24.631 53.326,24.406 53.068,24.406 C53.068,24.406 49.271,24.406 49.271,24.406 C49.014,24.406 48.805,24.180 48.805,23.901 C48.805,23.622 49.014,23.396 49.271,23.396 C49.271,23.396 50.169,23.396 50.169,23.396 C50.169,23.396 55.373,23.396 55.373,23.396 Z" id="path-4" class="cls-4" fill-rule="evenodd"/>
    <path d="M17.916,39.036 C17.604,39.036 17.301,38.903 17.087,38.658 C14.453,35.618 13.816,34.948 11.517,34.156 C9.988,34.190 6.287,35.807 3.752,37.578 C3.392,37.830 2.918,37.845 2.545,37.612 C2.172,37.380 1.973,36.948 2.039,36.515 C2.645,32.532 5.766,27.629 11.209,26.019 C16.577,15.730 24.141,9.060 27.868,6.189 C26.185,3.741 23.189,3.182 21.455,3.074 C20.926,3.040 20.496,2.633 20.433,2.107 C20.372,1.581 20.695,1.086 21.201,0.930 C24.852,-0.189 29.560,0.434 33.615,2.471 C34.268,2.138 34.864,1.870 35.391,1.674 C38.419,0.529 40.732,-0.005 42.668,-0.005 C45.913,-0.005 48.233,1.532 49.927,4.818 C52.804,5.108 54.255,5.815 54.602,7.078 C54.905,8.182 54.148,9.182 53.339,9.752 C53.129,9.898 52.870,9.967 52.622,9.946 C49.485,9.693 46.154,10.199 42.522,11.413 C42.740,15.262 41.301,21.607 40.431,22.913 C40.162,23.312 39.662,23.492 39.200,23.352 C38.737,23.211 38.422,22.785 38.422,22.302 C38.422,20.759 37.528,19.196 35.838,17.784 C35.012,17.093 34.468,16.162 34.261,15.198 C26.555,19.588 20.172,25.454 17.304,28.283 C18.017,30.901 18.929,35.151 19.008,37.614 C19.039,37.717 19.057,37.826 19.057,37.939 C19.057,38.551 18.562,38.990 17.939,39.036 C17.932,39.036 17.924,39.036 17.916,39.036 Z" id="path-5" class="cls-7" fill-rule="evenodd"/>
    <path d="M37.541,3.492 C37.339,3.492 37.148,3.369 37.073,3.169 C36.975,2.910 37.106,2.622 37.364,2.524 C40.222,1.445 42.412,0.943 44.261,0.943 C44.537,0.943 44.761,1.166 44.761,1.443 C44.761,1.718 44.537,1.943 44.261,1.943 C42.537,1.943 40.458,2.424 37.718,3.460 C37.659,3.482 37.600,3.492 37.541,3.492 Z" id="path-6" class="cls-8" fill-rule="evenodd"/>
    <path d="M48.013,2.904 C48.281,2.931 48.526,2.966 48.771,3.000 C48.228,2.292 47.635,1.705 46.979,1.252 C47.345,1.749 47.693,2.285 48.013,2.904 Z" id="path-7" class="cls-9" fill-rule="evenodd"/>
    <path d="M20.686,1.293 C20.502,1.518 20.398,1.803 20.433,2.107 C20.496,2.633 20.926,3.040 21.455,3.074 C22.617,3.147 24.341,3.437 25.861,4.347 C25.891,4.325 25.925,4.297 25.953,4.275 C24.598,2.303 22.399,1.565 20.686,1.293 Z" id="path-8" class="cls-9" fill-rule="evenodd"/>
    <path d="M17.304,28.283 C20.092,25.533 26.206,19.917 33.624,15.572 C32.973,14.921 32.525,14.120 32.347,13.284 C24.641,17.674 18.257,23.540 15.389,26.369 C16.102,28.986 17.015,33.237 17.093,35.699 C17.125,35.802 17.142,35.911 17.142,36.024 C17.142,36.638 16.648,37.075 16.025,37.121 C16.017,37.121 16.009,37.121 16.002,37.121 C15.888,37.121 15.780,37.085 15.673,37.051 C16.081,37.501 16.539,38.025 17.087,38.658 C17.301,38.903 17.604,39.036 17.916,39.036 C17.924,39.036 17.932,39.036 17.939,39.036 C18.562,38.990 19.057,38.551 19.057,37.939 C19.057,37.826 19.039,37.717 19.008,37.614 C18.929,35.151 18.017,30.901 17.304,28.283 Z" id="path-9" class="cls-9" fill-rule="evenodd"/>
    <path d="M54.602,7.078 C54.394,6.325 53.784,5.774 52.725,5.387 C52.876,6.401 52.179,7.307 51.425,7.838 C51.215,7.984 50.955,8.052 50.708,8.032 C47.571,7.779 44.240,8.284 40.608,9.499 C40.825,13.349 39.387,19.693 38.517,20.998 C38.450,21.097 38.369,21.181 38.279,21.252 C38.369,21.602 38.422,21.952 38.422,22.302 C38.422,22.785 38.737,23.212 39.200,23.352 C39.662,23.492 40.162,23.312 40.431,22.913 C41.301,21.607 42.740,15.262 42.522,11.413 C46.154,10.199 49.485,9.693 52.622,9.946 C52.870,9.966 53.129,9.898 53.339,9.752 C54.148,9.182 54.905,8.182 54.602,7.078 Z" id="path-10" class="cls-9" fill-rule="evenodd"/>
    <path d="M15.016,22.517 C14.927,22.517 14.837,22.493 14.755,22.444 C14.519,22.300 14.445,21.993 14.589,21.757 C14.878,21.282 21.741,10.108 26.819,9.162 C27.086,9.111 27.351,9.289 27.402,9.561 C27.453,9.833 27.274,10.094 27.003,10.144 C22.360,11.010 15.511,22.164 15.442,22.277 C15.349,22.432 15.183,22.517 15.016,22.517 Z" id="path-11" class="cls-8" fill-rule="evenodd"/>
  </g>
</svg>
