<svg xmlns="http://www.w3.org/2000/svg" xmlns:xlink="http://www.w3.org/1999/xlink" preserveAspectRatio="xMidYMid" width="60" height="51" viewBox="0 0 60 51">
  <defs>
    <style>

      .cls-3 {
        fill: #2476ff;
      }

      .cls-7 {
        fill: #020403;
      }

      .cls-9 {
        fill: #ff3a2f;
      }

      .cls-10 {
        fill: #020403;
        opacity: 0.35;
      }

      .cls-20 {
        fill: #ffffff;
      }
    </style>
  </defs>
  <g id="group-155svg">
    <path d="M27.764,43.884 C27.764,43.884 33.414,43.884 33.414,43.884 C34.504,43.884 35.387,44.286 35.387,44.782 C35.387,45.279 34.504,45.681 33.414,45.681 C33.414,45.681 33.151,45.681 33.151,45.681 C32.061,45.681 31.179,46.084 31.179,46.580 C31.179,47.076 32.061,47.479 33.151,47.479 C33.151,47.479 45.298,47.479 45.298,47.479 C46.388,47.479 47.270,47.882 47.270,48.378 C47.270,48.874 46.388,49.276 45.298,49.276 C45.298,49.276 30.701,49.276 30.701,49.276 C30.701,49.276 14.657,49.276 14.657,49.276 C13.567,49.276 12.685,48.874 12.685,48.378 C12.685,47.882 13.567,47.479 14.657,47.479 C14.657,47.479 18.028,47.479 18.028,47.479 C19.117,47.479 20.001,47.076 20.001,46.580 C20.001,46.084 19.117,45.681 18.028,45.681 C18.028,45.681 1.984,45.681 1.984,45.681 C0.895,45.681 0.012,45.279 0.012,44.782 C0.012,44.286 0.895,43.884 1.984,43.884 C1.984,43.884 5.776,43.884 5.776,43.884 C5.776,43.884 27.764,43.884 27.764,43.884 Z" id="path-1" class="cls-3" fill-rule="evenodd"/>
    <path d="M10.253,36.609 C10.253,36.609 11.561,36.609 11.561,36.609 C11.813,36.609 12.017,36.831 12.017,37.103 C12.017,37.376 11.813,37.598 11.561,37.598 C11.561,37.598 11.500,37.598 11.500,37.598 C11.248,37.598 11.044,37.818 11.044,38.091 C11.044,38.364 11.248,38.584 11.500,38.584 C11.500,38.584 14.312,38.584 14.312,38.584 C14.564,38.584 14.769,38.806 14.769,39.078 C14.769,39.351 14.564,39.572 14.312,39.572 C14.312,39.572 10.933,39.572 10.933,39.572 C10.933,39.572 7.219,39.572 7.219,39.572 C6.966,39.572 6.762,39.351 6.762,39.078 C6.762,38.806 6.966,38.584 7.219,38.584 C7.219,38.584 7.999,38.584 7.999,38.584 C8.251,38.584 8.455,38.364 8.455,38.091 C8.455,37.818 8.251,37.598 7.999,37.598 C7.999,37.598 4.284,37.598 4.284,37.598 C4.032,37.598 3.827,37.376 3.827,37.103 C3.827,36.831 4.032,36.609 4.284,36.609 C4.284,36.609 5.162,36.609 5.162,36.609 C5.162,36.609 10.253,36.609 10.253,36.609 Z" id="path-2" class="cls-3" fill-rule="evenodd"/>
    <path d="M54.264,36.609 C54.264,36.609 55.572,36.609 55.572,36.609 C55.824,36.609 56.029,36.831 56.029,37.103 C56.029,37.376 55.824,37.598 55.572,37.598 C55.572,37.598 55.512,37.598 55.512,37.598 C55.259,37.598 55.055,37.818 55.055,38.091 C55.055,38.364 55.259,38.584 55.512,38.584 C55.512,38.584 58.324,38.584 58.324,38.584 C58.576,38.584 58.780,38.806 58.780,39.078 C58.780,39.351 58.576,39.572 58.324,39.572 C58.324,39.572 54.944,39.572 54.944,39.572 C54.944,39.572 51.229,39.572 51.229,39.572 C50.978,39.572 50.772,39.351 50.772,39.078 C50.772,38.806 50.978,38.584 51.229,38.584 C51.229,38.584 52.010,38.584 52.010,38.584 C52.262,38.584 52.467,38.364 52.467,38.091 C52.467,37.818 52.262,37.598 52.010,37.598 C52.010,37.598 48.295,37.598 48.295,37.598 C48.043,37.598 47.839,37.376 47.839,37.103 C47.839,36.831 48.043,36.609 48.295,36.609 C48.295,36.609 49.173,36.609 49.173,36.609 C49.173,36.609 54.264,36.609 54.264,36.609 Z" id="path-3" class="cls-3" fill-rule="evenodd"/>
    <path d="M58.393,50.991 C59.287,50.991 60.012,50.531 60.012,49.964 C60.012,49.397 59.287,48.938 58.393,48.938 C58.393,48.938 53.429,48.938 53.429,48.938 C52.534,48.938 51.809,49.397 51.809,49.964 C51.809,50.531 52.534,50.991 53.429,50.991 C53.429,50.991 58.393,50.991 58.393,50.991 Z" id="path-4" class="cls-3" fill-rule="evenodd"/>
    <path d="M55.841,23.571 C56.062,24.143 56.047,24.771 55.798,25.338 C55.787,25.361 55.769,25.395 55.756,25.424 C55.907,25.618 56.041,25.879 56.148,26.094 C56.354,26.495 56.548,26.875 56.973,26.875 C57.405,26.875 57.591,26.454 57.670,26.274 C57.920,25.708 57.934,25.080 57.713,24.507 C57.491,23.932 57.058,23.478 56.494,23.227 C56.494,23.227 55.153,22.632 55.153,22.632 C55.455,22.881 55.696,23.197 55.841,23.571 Z" id="path-5" class="cls-7" fill-rule="evenodd"/>
    <path d="M58.844,33.635 C58.620,33.057 58.188,32.603 57.628,32.355 C57.628,32.355 56.286,31.760 56.286,31.760 C56.586,32.008 56.826,32.324 56.971,32.699 C57.192,33.274 57.178,33.903 56.926,34.468 C56.916,34.491 56.898,34.525 56.885,34.553 C57.042,34.751 57.177,35.017 57.276,35.214 C57.480,35.622 57.673,36.004 58.102,36.004 C58.536,36.004 58.719,35.586 58.798,35.405 C59.051,34.840 59.065,34.211 58.844,33.635 Z" id="path-6" class="cls-7" fill-rule="evenodd"/>
    <path d="M58.844,33.635 C58.620,33.058 58.188,32.603 57.628,32.355 C57.628,32.355 53.426,30.490 53.426,30.490 C52.792,30.210 52.033,30.238 51.422,30.563 C50.861,30.294 50.209,30.223 49.598,30.373 C49.598,30.373 44.719,31.592 44.719,31.592 C44.719,31.592 43.941,28.009 43.941,28.009 C44.090,27.994 44.242,27.965 44.418,27.916 C44.418,27.916 49.599,25.776 49.599,25.776 C49.801,25.724 50.035,25.661 50.268,25.583 C50.313,25.607 50.360,25.627 50.405,25.646 C50.405,25.646 50.519,25.695 50.519,25.695 C50.519,25.695 55.579,25.242 55.579,25.242 C55.806,25.413 56.001,25.799 56.148,26.094 C56.354,26.495 56.548,26.875 56.973,26.875 C57.405,26.875 57.591,26.454 57.670,26.274 C57.920,25.708 57.934,25.080 57.713,24.508 C57.491,23.932 57.058,23.478 56.494,23.227 C56.494,23.227 52.289,21.361 52.289,21.361 C51.654,21.087 50.900,21.111 50.289,21.435 C49.727,21.162 49.065,21.092 48.467,21.244 C48.467,21.244 43.016,22.604 43.016,22.604 C42.960,22.619 42.904,22.634 42.846,22.654 C42.846,22.654 44.262,21.652 44.262,21.652 C44.598,21.414 44.866,21.092 45.043,20.721 C45.605,20.346 45.992,19.780 46.137,19.124 C46.137,19.124 46.630,16.902 46.630,16.902 C48.863,12.566 49.044,8.801 47.169,5.715 C45.041,2.213 40.708,0.707 39.622,0.707 C39.103,0.707 38.996,1.055 38.976,1.161 C38.875,1.680 39.475,1.919 39.915,2.094 C40.956,2.513 41.663,3.151 42.017,3.989 C42.649,5.504 41.956,7.254 41.956,7.254 C41.732,7.643 41.539,7.643 41.475,7.643 C40.777,7.643 39.618,6.185 39.018,5.149 C39.018,5.149 38.577,4.393 38.577,4.393 C38.577,4.393 38.145,5.152 38.145,5.152 C37.252,6.715 37.050,8.334 37.542,9.962 C38.328,12.565 40.650,14.442 41.721,15.193 C41.645,15.361 41.585,15.533 41.547,15.710 C41.547,15.710 41.039,17.999 41.039,17.999 C41.032,18.030 41.027,18.060 41.022,18.091 C41.022,18.091 39.093,19.461 39.093,19.461 C39.079,19.471 39.065,19.455 39.051,19.466 C38.717,19.400 38.400,19.343 38.085,19.343 C38.085,19.343 26.481,19.343 26.481,19.343 C26.349,19.343 26.218,19.374 26.084,19.387 C25.918,19.128 25.711,18.924 25.465,18.751 C25.465,18.751 23.529,17.386 23.529,17.386 C23.526,17.356 23.519,17.327 23.514,17.292 C23.514,17.292 23.005,15.007 23.005,15.007 C22.966,14.829 22.906,14.657 22.831,14.491 C24.154,13.550 29.274,9.459 26.407,4.450 C26.407,4.450 25.977,3.691 25.977,3.691 C25.977,3.691 25.536,4.447 25.536,4.447 C24.935,5.482 23.772,6.940 23.075,6.940 C23.011,6.940 22.820,6.940 22.624,6.608 C22.550,6.422 21.927,4.748 22.536,3.289 C22.889,2.448 23.597,1.810 24.637,1.392 C25.075,1.217 25.675,0.977 25.576,0.458 C25.555,0.351 25.446,0.005 24.929,0.005 C23.844,0.005 19.514,1.512 17.384,5.013 C15.507,8.101 15.688,11.864 17.925,16.200 C17.925,16.200 18.415,18.422 18.415,18.422 C18.562,19.077 18.951,19.644 19.510,20.019 C19.684,20.389 19.952,20.710 20.292,20.952 C20.292,20.952 21.995,22.160 21.995,22.160 C21.980,22.189 21.965,22.219 21.951,22.249 C21.707,22.091 21.437,21.972 21.144,21.897 C21.144,21.897 15.694,20.541 15.694,20.541 C15.093,20.389 14.437,20.457 13.870,20.726 C13.257,20.402 12.495,20.378 11.866,20.656 C11.866,20.656 7.668,22.519 7.668,22.519 C7.107,22.766 6.679,23.218 6.459,23.789 C6.231,24.378 6.253,25.030 6.517,25.622 C6.674,25.984 6.899,26.167 7.188,26.167 C7.615,26.167 7.807,25.790 8.017,25.377 C8.159,25.092 8.353,24.705 8.584,24.533 C8.584,24.533 13.609,24.986 13.609,24.986 C13.609,24.986 13.647,24.989 13.647,24.989 C13.647,24.989 13.767,24.935 13.767,24.935 C13.809,24.916 13.851,24.896 13.890,24.874 C14.088,24.943 14.301,25.005 14.495,25.046 C14.495,25.046 19.812,27.233 19.812,27.233 C20.089,27.304 20.379,27.328 20.678,27.302 C20.678,27.302 19.770,30.965 19.770,30.965 C19.770,30.965 14.562,29.670 14.562,29.670 C13.958,29.514 13.301,29.585 12.735,29.853 C12.121,29.534 11.362,29.509 10.735,29.781 C10.735,29.781 6.535,31.649 6.535,31.649 C5.967,31.900 5.535,32.358 5.318,32.938 C5.100,33.523 5.124,34.167 5.382,34.754 C5.539,35.116 5.765,35.299 6.054,35.299 C6.483,35.299 6.677,34.914 6.881,34.505 C7.017,34.237 7.217,33.838 7.450,33.662 C7.450,33.662 12.480,34.115 12.480,34.115 C12.480,34.115 12.518,34.117 12.518,34.117 C12.518,34.117 12.641,34.062 12.641,34.062 C12.680,34.043 12.718,34.023 12.758,34.003 C13.014,34.091 13.256,34.151 13.362,34.175 C13.362,34.175 18.676,36.361 18.676,36.361 C18.821,36.397 18.973,36.420 19.133,36.431 C19.369,37.019 19.734,37.715 20.200,38.456 C20.200,38.456 17.009,40.373 17.009,40.373 C16.463,40.704 16.064,41.196 15.853,41.795 C15.185,42.006 14.640,42.512 14.386,43.163 C14.386,43.163 12.737,47.449 12.737,47.449 C12.512,48.026 12.528,48.653 12.776,49.216 C13.031,49.791 13.495,50.222 14.119,50.463 C14.258,50.515 14.390,50.541 14.513,50.541 C14.837,50.541 14.998,50.354 15.039,50.298 C15.258,49.996 15.145,49.657 15.002,49.227 C14.906,48.940 14.765,48.514 14.809,48.227 C14.809,48.227 18.686,44.987 18.686,44.987 C18.686,44.987 18.717,44.962 18.717,44.962 C18.717,44.962 18.764,44.832 18.764,44.832 C18.776,44.794 18.788,44.754 18.801,44.715 C18.986,44.625 19.174,44.519 19.350,44.411 C19.350,44.411 23.566,42.312 23.566,42.312 C25.175,43.890 26.536,44.343 27.616,44.343 C27.616,44.343 37.706,44.343 37.706,44.343 C38.600,44.343 39.598,44.138 40.677,43.056 C40.677,43.056 44.739,44.916 44.739,44.916 C44.975,45.057 45.173,45.253 45.354,45.340 C45.367,45.383 45.380,45.469 45.396,45.511 C45.396,45.511 45.430,45.620 45.430,45.620 C45.430,45.620 49.345,48.925 49.345,48.925 C49.388,49.213 49.247,49.645 49.150,49.932 C49.011,50.361 48.899,50.703 49.116,51.003 C49.184,51.098 49.343,51.257 49.630,51.257 C49.759,51.257 49.892,51.226 50.095,51.149 C51.284,50.686 51.878,49.345 51.418,48.159 C51.418,48.159 49.768,43.872 49.768,43.872 C49.517,43.223 48.973,42.716 48.301,42.504 C48.094,41.907 47.687,41.405 47.147,41.082 C47.147,41.082 43.774,39.055 43.774,39.055 C44.139,38.384 44.449,37.744 44.701,37.143 C44.975,37.159 45.228,37.135 45.547,37.048 C45.547,37.048 50.730,34.908 50.730,34.908 C50.945,34.852 51.176,34.790 51.398,34.713 C51.437,34.733 51.478,34.754 51.518,34.771 C51.518,34.771 51.639,34.825 51.639,34.825 C51.639,34.825 56.705,34.372 56.705,34.372 C56.939,34.544 57.141,34.944 57.276,35.214 C57.480,35.622 57.673,36.004 58.102,36.004 C58.536,36.004 58.719,35.586 58.798,35.405 C59.051,34.840 59.065,34.211 58.844,33.635 Z" id="path-7" class="cls-9" fill-rule="evenodd"/>
    <path d="M39.602,6.706 C39.653,6.706 39.791,6.695 39.959,6.491 C39.599,6.057 39.262,5.570 39.018,5.149 C39.018,5.149 38.577,4.393 38.577,4.393 C38.577,4.393 38.145,5.152 38.145,5.152 C38.089,5.250 38.044,5.348 37.993,5.445 C38.543,6.131 39.163,6.706 39.602,6.706 Z" id="path-8" class="cls-10" fill-rule="evenodd"/>
    <path d="M45.296,4.779 C47.172,7.865 46.990,11.630 44.757,15.966 C44.757,15.966 44.264,18.187 44.264,18.187 C44.120,18.843 43.732,19.410 43.170,19.785 C42.994,20.155 42.725,20.478 42.389,20.716 C42.389,20.716 40.973,21.718 40.973,21.718 C41.031,21.698 41.087,21.683 41.143,21.668 C41.143,21.668 45.090,20.683 45.090,20.683 C45.625,20.308 45.997,19.760 46.137,19.124 C46.137,19.124 46.630,16.902 46.630,16.902 C48.863,12.566 49.044,8.801 47.169,5.715 C45.755,3.388 43.371,1.947 41.609,1.239 C42.954,2.050 44.345,3.214 45.296,4.779 Z" id="path-9" class="cls-10" fill-rule="evenodd"/>
    <path d="M17.940,26.297 C17.940,26.297 12.622,24.109 12.622,24.109 C12.429,24.068 12.215,24.007 12.017,23.938 C11.978,23.960 11.935,23.980 11.894,23.998 C11.894,23.998 11.774,24.052 11.774,24.052 C11.774,24.052 11.736,24.049 11.736,24.049 C11.736,24.049 6.711,23.597 6.711,23.597 C6.604,23.677 6.507,23.804 6.417,23.944 C6.247,24.491 6.275,25.080 6.517,25.622 C6.674,25.984 6.899,26.167 7.188,26.167 C7.615,26.167 7.807,25.790 8.017,25.377 C8.159,25.092 8.353,24.705 8.584,24.533 C8.584,24.533 13.609,24.986 13.609,24.986 C13.609,24.986 13.647,24.989 13.647,24.989 C13.647,24.989 13.767,24.935 13.767,24.935 C13.809,24.916 13.851,24.896 13.890,24.874 C14.088,24.943 14.301,25.005 14.495,25.046 C14.495,25.046 18.703,26.777 18.703,26.777 C18.703,26.777 18.805,26.365 18.805,26.365 C18.506,26.391 18.216,26.367 17.940,26.297 Z" id="path-10" class="cls-10" fill-rule="evenodd"/>
    <path d="M42.069,27.072 C42.069,27.072 42.846,30.655 42.846,30.655 C42.846,30.655 44.430,30.259 44.430,30.259 C44.430,30.259 43.941,28.009 43.941,28.009 C44.090,27.994 44.242,27.965 44.418,27.916 C44.418,27.916 49.599,25.776 49.599,25.776 C49.801,25.724 50.035,25.661 50.268,25.583 C50.313,25.607 50.360,25.627 50.405,25.646 C50.405,25.646 50.519,25.695 50.519,25.695 C50.519,25.695 54.379,25.349 54.379,25.349 C54.345,25.286 54.310,25.223 54.275,25.157 C54.128,24.862 53.933,24.477 53.706,24.305 C53.706,24.305 48.646,24.759 48.646,24.759 C48.646,24.759 48.532,24.710 48.532,24.710 C48.487,24.690 48.441,24.671 48.395,24.646 C48.162,24.725 47.928,24.788 47.726,24.839 C47.726,24.839 42.545,26.979 42.545,26.979 C42.370,27.028 42.217,27.057 42.069,27.072 Z" id="path-11" class="cls-10" fill-rule="evenodd"/>
    <path d="M25.160,5.037 C26.369,9.342 22.144,12.732 20.958,13.577 C21.034,13.743 21.093,13.938 21.132,14.116 C21.132,14.116 21.641,16.446 21.641,16.446 C21.646,16.480 21.653,16.600 21.657,16.630 C21.657,16.630 23.592,18.176 23.592,18.176 C23.838,18.348 24.045,18.914 24.211,19.173 C24.345,19.159 24.476,19.850 24.608,19.850 C24.608,19.850 25.942,19.850 25.942,19.850 C25.805,19.577 25.645,19.239 25.465,19.112 C25.465,19.112 23.529,17.566 23.529,17.566 C23.526,17.536 23.519,17.416 23.514,17.382 C23.514,17.382 23.004,15.052 23.004,15.052 C22.966,14.874 22.907,14.680 22.831,14.514 C24.154,13.572 29.274,9.470 26.407,4.461 C26.407,4.461 25.977,3.697 25.977,3.697 C25.977,3.697 25.536,4.450 25.536,4.450 C25.428,4.636 25.298,4.835 25.160,5.037 Z" id="path-12" class="cls-10" fill-rule="evenodd"/>
    <path d="M45.547,37.048 C45.547,37.048 50.730,34.908 50.730,34.908 C50.945,34.852 51.176,34.790 51.398,34.713 C51.437,34.733 51.478,34.754 51.518,34.771 C51.518,34.771 51.639,34.825 51.639,34.825 C51.639,34.825 55.509,34.479 55.509,34.479 C55.474,34.413 55.438,34.348 55.403,34.278 C55.268,34.009 55.066,33.608 54.832,33.436 C54.832,33.436 49.766,33.889 49.766,33.889 C49.766,33.889 49.646,33.835 49.646,33.835 C49.605,33.817 49.565,33.797 49.526,33.776 C49.304,33.854 49.072,33.916 48.857,33.972 C48.857,33.972 43.674,36.112 43.674,36.112 C43.355,36.199 43.102,36.222 42.828,36.207 C42.576,36.807 42.266,37.447 41.901,38.119 C41.901,38.119 45.274,40.145 45.274,40.145 C45.813,40.468 46.221,40.970 46.429,41.568 C47.100,41.779 47.644,42.286 47.896,42.936 C47.896,42.936 49.545,47.223 49.545,47.223 C49.822,47.938 49.711,48.707 49.323,49.308 C49.283,49.528 49.211,49.759 49.150,49.938 C49.011,50.367 48.899,50.706 49.116,51.006 C49.184,51.102 49.343,51.258 49.630,51.258 C49.759,51.258 49.892,51.227 50.095,51.150 C51.284,50.687 51.878,49.345 51.418,48.159 C51.418,48.159 49.768,43.872 49.768,43.872 C49.517,43.223 48.973,42.716 48.301,42.504 C48.094,41.907 47.687,41.405 47.147,41.082 C47.147,41.082 43.774,39.055 43.774,39.055 C44.139,38.384 44.449,37.744 44.701,37.143 C44.975,37.159 45.228,37.135 45.547,37.048 Z" id="path-13" class="cls-10" fill-rule="evenodd"/>
    <path d="M43.169,43.760 C42.988,43.672 38.491,41.771 38.491,41.771 C37.413,42.854 36.415,43.454 35.521,43.454 C35.521,43.454 25.432,43.454 25.432,43.454 C25.264,43.454 25.088,43.427 24.907,43.387 C25.814,44.043 26.616,44.390 27.305,44.390 C27.305,44.390 37.394,44.390 37.394,44.390 C38.287,44.390 39.598,44.175 40.677,43.091 C40.677,43.091 42.961,44.128 42.961,44.128 C42.945,44.089 43.181,43.799 43.169,43.760 Z" id="path-14" class="cls-10" fill-rule="evenodd"/>
    <path d="M20.663,2.353 C20.054,3.812 20.677,5.486 20.751,5.673 C20.947,6.005 21.139,6.006 21.202,6.006 C21.511,6.006 21.911,5.712 22.312,5.306 C22.239,4.702 22.250,3.975 22.536,3.289 C22.889,2.448 23.597,1.810 24.637,1.392 C25.075,1.217 25.675,0.977 25.576,0.457 C25.555,0.351 25.446,0.005 24.929,0.005 C24.374,0.005 22.971,0.401 21.448,1.254 C21.102,1.569 20.838,1.936 20.663,2.353 Z" id="path-15" class="cls-10" fill-rule="evenodd"/>
    <path d="M21.693,41.771 C21.693,41.771 17.477,43.475 17.477,43.475 C17.301,43.583 17.113,43.688 16.928,43.779 C16.916,43.817 16.903,43.857 16.891,43.896 C16.891,43.896 16.844,44.025 16.844,44.025 C16.844,44.025 16.814,44.051 16.814,44.051 C16.814,44.051 12.936,47.291 12.936,47.291 C12.892,47.578 13.034,48.003 13.129,48.291 C13.272,48.721 13.385,49.059 13.166,49.361 C13.142,49.395 13.070,49.471 12.954,49.529 C13.224,49.946 13.615,50.268 14.119,50.463 C14.258,50.515 14.390,50.541 14.513,50.541 C14.837,50.541 14.998,50.354 15.039,50.298 C15.258,49.996 15.145,49.657 15.002,49.227 C14.906,48.940 14.765,48.514 14.809,48.227 C14.809,48.227 18.686,44.987 18.686,44.987 C18.686,44.987 18.717,44.962 18.717,44.962 C18.717,44.962 18.764,44.832 18.764,44.832 C18.776,44.794 18.788,44.753 18.801,44.715 C18.985,44.625 19.174,44.519 19.350,44.411 C19.350,44.411 23.566,42.348 23.566,42.348 C23.148,42.020 22.152,42.222 21.693,41.771 Z" id="path-16" class="cls-10" fill-rule="evenodd"/>
    <path d="M12.518,34.117 C12.518,34.117 12.641,34.062 12.641,34.062 C12.680,34.043 12.718,34.023 12.758,34.003 C13.014,34.091 13.256,34.151 13.362,34.175 C13.362,34.175 17.426,35.846 17.426,35.846 C17.373,35.731 17.304,35.602 17.260,35.494 C17.100,35.483 16.948,35.461 16.803,35.425 C16.803,35.425 11.489,33.238 11.489,33.238 C11.383,33.215 11.141,33.154 10.885,33.066 C10.845,33.087 10.807,33.107 10.767,33.125 C10.767,33.125 10.645,33.181 10.645,33.181 C10.645,33.181 10.607,33.178 10.607,33.178 C10.607,33.178 5.577,32.726 5.577,32.726 C5.471,32.805 5.372,32.935 5.282,33.074 C5.114,33.623 5.143,34.212 5.382,34.754 C5.539,35.116 5.765,35.299 6.054,35.299 C6.483,35.299 6.677,34.914 6.881,34.505 C7.017,34.237 7.217,33.838 7.450,33.662 C7.450,33.662 12.480,34.115 12.480,34.115 C12.480,34.115 12.518,34.117 12.518,34.117 Z" id="path-17" class="cls-10" fill-rule="evenodd"/>
    <circle id="circle-1" class="cls-20" cx="28" cy="24" r="2"/>
    <path d="M27.270,35.775 C28.847,35.775 30.126,37.054 30.126,38.632 C30.126,40.209 28.847,41.488 27.270,41.488 C25.691,41.488 24.413,40.209 24.413,38.632 C24.413,37.054 25.691,35.775 27.270,35.775 Z" id="path-18" class="cls-20" fill-rule="evenodd"/>
    <circle id="circle-2" class="cls-20" cx="24" cy="34" r="2"/>
    <circle id="circle-3" class="cls-20" cx="38" cy="24" r="2"/>
  </g>
</svg>
