<svg xmlns="http://www.w3.org/2000/svg" xmlns:xlink="http://www.w3.org/1999/xlink" preserveAspectRatio="xMidYMid" width="55" height="60" viewBox="0 0 55 60">
  <defs>
    <style>

      .cls-3 {
        fill: #142a3b;
      }

      .cls-5 {
        fill: #0cb04a;
      }

      .cls-6 {
        fill: #000000;
        opacity: 0.25;
      }

      .cls-7 {
        fill: #000000;
        opacity: 0.35;
      }

      .cls-12 {
        fill: #ededed;
      }
    </style>
  </defs>
  <g id="group-302svg">
    <path d="M17.625,51.559 C17.625,51.559 12.520,51.559 12.520,51.559 C11.536,51.559 10.738,52.163 10.738,52.909 C10.738,53.653 11.536,54.257 12.520,54.257 C12.520,54.257 12.758,54.257 12.758,54.257 C13.742,54.257 14.540,54.861 14.540,55.606 C14.540,56.351 13.742,56.955 12.758,56.955 C12.758,56.955 1.784,56.955 1.784,56.955 C0.801,56.955 0.002,57.559 0.002,58.303 C0.002,59.049 0.801,59.653 1.784,59.653 C1.784,59.653 14.972,59.653 14.972,59.653 C14.972,59.653 41.927,59.653 41.927,59.653 C42.911,59.653 43.709,59.049 43.709,58.303 C43.709,57.559 42.911,56.955 41.927,56.955 C41.927,56.955 38.882,56.955 38.882,56.955 C37.897,56.955 37.100,56.351 37.100,55.606 C37.100,54.861 37.897,54.257 38.882,54.257 C38.882,54.257 50.843,54.257 50.843,54.257 C51.827,54.257 52.625,53.653 52.625,52.909 C52.625,52.163 51.827,51.559 50.843,51.559 C50.843,51.559 49.950,51.559 49.950,51.559 C49.950,51.559 17.625,51.559 17.625,51.559 Z" id="path-1" class="cls-3" fill-rule="evenodd"/>
    <path d="M49.285,60.014 C48.460,60.014 47.791,59.367 47.791,58.568 C47.791,57.770 48.460,57.123 49.285,57.123 C49.285,57.123 53.863,57.123 53.863,57.123 C54.688,57.123 55.357,57.770 55.357,58.568 C55.357,59.367 54.688,60.014 53.863,60.014 C53.863,60.014 49.285,60.014 49.285,60.014 Z" id="path-2" class="cls-3" fill-rule="evenodd"/>
    <path d="M6.806,5.456 C6.806,5.456 6.806,48.529 6.806,48.529 C6.806,51.534 14.527,53.971 24.050,53.971 C33.572,53.971 41.294,51.534 41.294,48.529 C41.294,48.529 41.294,5.456 41.294,5.456 C41.294,5.456 41.294,5.456 41.294,5.456 " id="path-3" class="cls-5" fill-rule="evenodd"/>
    <path d="M6.806,5.456 C6.806,5.456 6.806,48.529 6.806,48.529 C6.806,51.534 14.527,53.971 24.050,53.971 C33.572,53.971 41.294,51.534 41.294,48.529 C41.294,48.529 41.294,5.456 41.294,5.456 C41.294,5.456 41.294,5.456 41.294,5.456 " id="path-4" class="cls-6" fill-rule="evenodd"/>
    <path d="M41.294,5.456 C41.294,5.456 37.998,8.654 37.998,8.654 C34.925,9.677 27.887,11.703 19.066,10.369 C14.264,9.643 10.028,8.358 7.082,6.881 C8.258,9.584 14.871,12.488 23.146,13.740 C28.531,14.554 33.444,14.489 36.756,13.732 C36.756,13.732 36.756,45.807 36.756,45.807 C36.756,48.812 29.034,51.249 19.512,51.249 C14.654,51.249 10.274,50.612 7.140,49.592 C8.707,52.089 15.681,53.971 24.050,53.971 C33.572,53.971 41.294,51.534 41.294,48.529 C41.294,48.529 41.294,9.064 41.294,9.064 C41.294,9.064 41.294,5.456 41.294,5.456 Z" id="path-5" class="cls-7" fill-rule="evenodd"/>
    <path d="M41.294,5.456 C41.294,8.461 33.572,10.898 24.050,10.898 C14.527,10.898 6.806,8.461 6.806,5.456 C6.806,2.450 14.527,0.014 24.050,0.014 C33.572,0.014 41.294,2.450 41.294,5.456 Z" id="path-6" class="cls-5" fill-rule="evenodd"/>
    <path d="M24.050,0.014 C23.437,0.014 22.831,0.025 22.234,0.044 C30.903,0.331 37.663,2.644 37.663,5.456 C37.663,8.267 30.903,10.581 22.234,10.868 C22.831,10.887 23.437,10.898 24.050,10.898 C33.572,10.898 41.294,8.461 41.294,5.456 C41.294,2.450 33.572,0.014 24.050,0.014 Z" id="path-7" class="cls-6" fill-rule="evenodd"/>
    <path d="M17.839,5.456 C17.839,5.955 16.556,6.360 14.974,6.360 C13.392,6.360 12.109,5.955 12.109,5.456 C12.109,4.956 13.392,4.552 14.974,4.552 C16.556,4.552 17.839,4.956 17.839,5.456 Z" id="path-8" class="cls-3" fill-rule="evenodd"/>
    <path d="M17.739,5.680 C17.421,6.070 16.309,6.360 14.974,6.360 C14.261,6.360 13.617,6.275 13.116,6.139 C13.058,6.211 13.017,6.285 13.017,6.363 C13.017,6.863 14.300,7.268 15.882,7.268 C17.463,7.268 18.746,6.863 18.746,6.363 C18.746,6.089 18.351,5.846 17.739,5.680 Z" id="path-9" class="cls-7" fill-rule="evenodd"/>
    <path d="M36.530,34.372 C36.530,41.265 30.942,46.852 24.050,46.852 C17.157,46.852 11.569,41.265 11.569,34.372 C11.569,27.479 17.157,21.891 24.050,21.891 C30.942,21.891 36.530,27.479 36.530,34.372 Z" id="path-10" class="cls-12" fill-rule="evenodd"/>
    <path d="M30.483,23.692 C34.102,25.877 36.530,29.836 36.530,34.372 C36.530,41.265 30.942,46.852 24.050,46.852 C22.417,46.852 20.861,46.529 19.432,45.959 C21.312,47.094 23.508,47.760 25.865,47.760 C32.758,47.760 38.345,42.172 38.345,35.279 C38.345,30.020 35.087,25.529 30.483,23.692 Z" id="path-11" class="cls-7" fill-rule="evenodd"/>
    <path d="M29.101,35.781 C29.101,38.571 26.840,40.833 24.050,40.833 C21.260,40.833 18.998,38.571 18.998,35.781 C18.998,32.991 24.050,27.344 24.050,27.344 C24.050,27.344 29.101,32.991 29.101,35.781 Z" id="path-12" class="cls-3" fill-rule="evenodd"/>
    <path d="M24.050,27.344 C24.050,27.344 23.678,27.762 23.143,28.415 C24.595,30.187 27.286,33.742 27.286,35.781 C27.286,38.261 25.498,40.319 23.143,40.747 C23.437,40.800 23.739,40.833 24.050,40.833 C26.840,40.833 29.101,38.571 29.101,35.781 C29.101,32.991 24.050,27.344 24.050,27.344 Z" id="path-13" class="cls-7" fill-rule="evenodd"/>
  </g>
</svg>
