<svg xmlns="http://www.w3.org/2000/svg" xmlns:xlink="http://www.w3.org/1999/xlink" preserveAspectRatio="xMidYMid" width="60" height="58" viewBox="0 0 60 58">
  <defs>
    <style>

      .cls-3 {
        fill: #fbb713;
      }

      .cls-4 {
        fill: #ff3a2f;
      }

      .cls-5 {
        fill: #142a3b;
      }

      .cls-6 {
        fill: #0cb04a;
      }

      .cls-7 {
        fill: #ffffff;
      }

      .cls-8 {
        fill: #010101;
        opacity: 0.25;
      }

      .cls-9 {
        fill: #2476ff;
      }
    </style>
  </defs>
  <g id="group-139svg">
    <path d="M7.050,26.318 C7.050,40.856 18.835,52.642 33.375,52.642 C47.913,52.642 59.699,40.856 59.699,26.318 C59.699,11.778 47.913,-0.007 33.375,-0.007 C18.835,-0.007 7.050,11.778 7.050,26.318 C7.050,26.318 7.050,26.318 7.050,26.318 Z" id="path-1" class="cls-3" fill-rule="evenodd"/>
    <path d="M32.457,11.400 C32.457,11.400 57.103,21.454 58.775,33.259 C58.775,33.259 55.368,49.091 37.616,52.303 C37.616,52.303 29.542,39.540 28.248,14.701 C28.248,14.701 29.288,11.109 32.457,11.400 C32.457,11.400 32.457,11.400 32.457,11.400 Z" id="path-2" class="cls-4" fill-rule="evenodd"/>
    <path d="M23.399,13.795 C23.399,13.795 8.011,24.014 9.997,38.431 C9.997,38.431 5.331,31.750 7.734,19.633 C7.734,19.633 9.793,8.000 21.208,9.396 C21.208,9.396 24.648,10.257 23.399,13.795 C23.399,13.795 23.399,13.795 23.399,13.795 Z" id="path-3" class="cls-5" fill-rule="evenodd"/>
    <path d="M27.373,5.738 C27.373,5.738 27.477,-1.286 37.923,0.281 C37.923,0.281 44.087,1.351 49.936,5.738 C49.936,5.738 35.103,2.605 31.656,7.880 C31.656,7.880 27.477,9.708 27.373,5.738 C27.373,5.738 27.373,5.738 27.373,5.738 Z" id="path-4" class="cls-6" fill-rule="evenodd"/>
    <path d="M22.062,13.037 C23.454,15.296 26.772,15.778 29.475,14.113 C32.178,12.448 33.239,9.267 31.846,7.007 C30.454,4.748 27.136,4.266 24.434,5.931 C21.732,7.596 20.670,10.777 22.062,13.037 C22.062,13.037 22.062,13.037 22.062,13.037 Z" id="path-5" class="cls-7" fill-rule="evenodd"/>
    <path d="M45.126,2.762 C49.983,7.538 52.998,14.182 52.998,21.532 C52.998,36.070 41.213,47.856 26.674,47.856 C22.449,47.856 18.461,46.855 14.923,45.087 C19.673,49.758 26.186,52.642 33.375,52.642 C47.913,52.642 59.699,40.856 59.699,26.318 C59.699,16.003 53.765,7.080 45.126,2.762 Z" id="path-6" class="cls-8" fill-rule="evenodd"/>
    <path d="M44.261,50.583 C44.261,50.583 48.823,50.583 48.823,50.583 C49.703,50.583 50.416,51.098 50.416,51.733 C50.416,52.369 49.703,52.883 48.823,52.883 C48.823,52.883 48.611,52.883 48.611,52.883 C47.731,52.883 47.018,53.399 47.018,54.034 C47.018,54.670 47.731,55.185 48.611,55.185 C48.611,55.185 58.419,55.185 58.419,55.185 C59.299,55.185 60.012,55.700 60.012,56.335 C60.012,56.970 59.299,57.486 58.419,57.486 C58.419,57.486 46.632,57.486 46.632,57.486 C46.632,57.486 25.435,57.486 25.435,57.486 C24.556,57.486 23.843,56.970 23.843,56.335 C23.843,55.700 24.556,55.185 25.435,55.185 C25.435,55.185 28.157,55.185 28.157,55.185 C29.037,55.185 29.750,54.670 29.750,54.034 C29.750,53.399 29.037,52.883 28.157,52.883 C28.157,52.883 15.202,52.883 15.202,52.883 C14.322,52.883 13.609,52.369 13.609,51.733 C13.609,51.098 14.322,50.583 15.202,50.583 C15.202,50.583 26.506,50.583 26.506,50.583 C26.506,50.583 44.261,50.583 44.261,50.583 Z" id="path-7" class="cls-9" fill-rule="evenodd"/>
    <path d="M10.283,40.538 C10.283,40.538 11.811,40.538 11.811,40.538 C12.106,40.538 12.346,40.741 12.346,40.991 C12.346,41.241 12.106,41.443 11.811,41.443 C11.811,41.443 11.740,41.443 11.740,41.443 C11.446,41.443 11.207,41.646 11.207,41.896 C11.207,42.147 11.446,42.350 11.740,42.350 C11.740,42.350 15.027,42.350 15.027,42.350 C15.322,42.350 15.561,42.552 15.561,42.803 C15.561,43.052 15.322,43.256 15.027,43.256 C15.027,43.256 11.077,43.256 11.077,43.256 C11.077,43.256 3.975,43.256 3.975,43.256 C3.680,43.256 3.440,43.052 3.440,42.803 C3.440,42.552 3.680,42.350 3.975,42.350 C3.975,42.350 4.887,42.350 4.887,42.350 C5.182,42.350 5.421,42.147 5.421,41.896 C5.421,41.646 5.182,41.443 4.887,41.443 C4.887,41.443 0.546,41.443 0.546,41.443 C0.251,41.443 0.012,41.241 0.012,40.991 C0.012,40.741 0.251,40.538 0.546,40.538 C0.546,40.538 4.334,40.538 4.334,40.538 C4.334,40.538 10.283,40.538 10.283,40.538 Z" id="path-8" class="cls-9" fill-rule="evenodd"/>
    <path d="M8.111,52.505 C8.952,52.505 9.634,52.073 9.634,51.540 C9.634,51.008 8.952,50.575 8.111,50.575 C8.111,50.575 3.446,50.575 3.446,50.575 C2.605,50.575 1.924,51.008 1.924,51.540 C1.924,52.073 2.605,52.505 3.446,52.505 C3.446,52.505 8.111,52.505 8.111,52.505 Z" id="path-9" class="cls-9" fill-rule="evenodd"/>
  </g>
</svg>
