<svg xmlns="http://www.w3.org/2000/svg" xmlns:xlink="http://www.w3.org/1999/xlink" preserveAspectRatio="xMidYMid" width="53" height="60" viewBox="0 0 53 60">
  <defs>
    <style>

      .cls-3 {
        fill: #ff3a2f;
      }

      .cls-12 {
        fill: #2476ff;
      }

      .cls-13 {
        fill: #060606;
        opacity: 0.35;
      }
    </style>
  </defs>
  <g id="group-226svg">
    <path d="M32.020,59.363 C32.020,59.363 36.365,59.363 36.365,59.363 C37.203,59.363 37.882,58.897 37.882,58.323 C37.882,57.749 37.203,57.283 36.365,57.283 C36.365,57.283 36.163,57.283 36.163,57.283 C35.325,57.283 34.646,56.818 34.646,56.244 C34.646,55.669 35.325,55.203 36.163,55.203 C36.163,55.203 45.503,55.203 45.503,55.203 C46.341,55.203 47.019,54.738 47.019,54.164 C47.019,53.589 46.341,53.123 45.503,53.123 C45.503,53.123 34.279,53.123 34.279,53.123 C34.279,53.123 11.337,53.123 11.337,53.123 C10.499,53.123 9.820,53.589 9.820,54.164 C9.820,54.738 10.499,55.203 11.337,55.203 C11.337,55.203 13.929,55.203 13.929,55.203 C14.767,55.203 15.445,55.669 15.445,56.244 C15.445,56.818 14.767,57.283 13.929,57.283 C13.929,57.283 1.592,57.283 1.592,57.283 C0.754,57.283 0.075,57.749 0.075,58.323 C0.075,58.897 0.754,59.363 1.592,59.363 C1.592,59.363 4.508,59.363 4.508,59.363 C4.508,59.363 32.020,59.363 32.020,59.363 Z" id="path-1" class="cls-3" fill-rule="evenodd"/>
    <path d="M50.325,57.616 C51.307,57.616 52.102,58.149 52.102,58.808 C52.102,59.467 51.307,60.000 50.325,60.000 C50.325,60.000 44.880,60.000 44.880,60.000 C43.898,60.000 43.103,59.467 43.103,58.808 C43.103,58.149 43.898,57.616 44.880,57.616 C44.880,57.616 50.325,57.616 50.325,57.616 Z" id="path-2" class="cls-3" fill-rule="evenodd"/>
    <path d="M17.430,16.153 C19.354,16.153 20.916,14.589 20.916,12.666 C20.916,10.743 19.354,9.180 17.430,9.180 C15.510,9.180 13.943,10.743 13.943,12.666 C13.943,14.589 15.510,16.153 17.430,16.153 ZM17.430,11.504 C18.072,11.504 18.592,12.026 18.592,12.666 C18.592,13.306 18.072,13.829 17.430,13.829 C16.790,13.829 16.268,13.306 16.268,12.666 C16.268,12.026 16.790,11.504 17.430,11.504 Z" id="path-3" class="cls-3" fill-rule="evenodd"/>
    <path d="M11.678,18.418 C11.905,18.645 12.205,18.759 12.500,18.759 C12.799,18.759 13.095,18.645 13.321,18.418 C13.775,17.964 13.775,17.229 13.321,16.775 C12.223,15.676 11.619,14.218 11.619,12.666 C11.619,11.114 12.223,9.656 13.321,8.558 C13.775,8.104 13.775,7.368 13.321,6.914 C12.867,6.461 12.132,6.461 11.678,6.914 C10.142,8.451 9.295,10.494 9.295,12.666 C9.295,14.839 10.144,16.882 11.678,18.418 Z" id="path-4" class="cls-3" fill-rule="evenodd"/>
    <path d="M21.538,18.418 C21.766,18.645 22.065,18.759 22.360,18.759 C22.660,18.759 22.955,18.645 23.182,18.418 C24.721,16.882 25.567,14.839 25.567,12.666 C25.565,10.494 24.721,8.451 23.182,6.914 C22.727,6.461 21.992,6.461 21.538,6.914 C21.084,7.368 21.084,8.104 21.538,8.558 C22.637,9.656 23.243,11.114 23.243,12.666 C23.243,14.218 22.637,15.676 21.538,16.775 C21.084,17.229 21.084,17.964 21.538,18.418 Z" id="path-5" class="cls-3" fill-rule="evenodd"/>
    <path d="M8.391,21.705 C8.618,21.932 8.918,22.046 9.213,22.046 C9.513,22.046 9.808,21.932 10.035,21.705 C10.488,21.251 10.488,20.515 10.035,20.061 C8.060,18.087 6.971,15.460 6.971,12.666 C6.971,9.874 8.058,7.248 10.035,5.271 C10.488,4.817 10.488,4.081 10.035,3.628 C9.581,3.174 8.846,3.174 8.391,3.628 C5.976,6.043 4.645,9.252 4.645,12.666 C4.645,16.080 5.976,19.290 8.391,21.705 Z" id="path-6" class="cls-3" fill-rule="evenodd"/>
    <path d="M27.892,12.666 C27.892,15.460 26.805,18.087 24.825,20.061 C24.371,20.515 24.371,21.251 24.825,21.705 C25.052,21.932 25.351,22.046 25.647,22.046 C25.946,22.046 26.241,21.932 26.469,21.705 C28.886,19.290 30.216,16.080 30.216,12.666 C30.214,9.252 28.884,6.043 26.469,3.628 C26.015,3.174 25.279,3.174 24.825,3.628 C24.371,4.081 24.371,4.817 24.825,5.271 C26.802,7.248 27.892,9.872 27.892,12.666 Z" id="path-7" class="cls-3" fill-rule="evenodd"/>
    <path d="M5.926,25.332 C6.221,25.332 6.521,25.219 6.748,24.991 C7.202,24.538 7.202,23.803 6.748,23.348 C3.893,20.495 2.321,16.702 2.321,12.669 C2.321,8.634 3.893,4.840 6.748,1.984 C7.202,1.530 7.202,0.795 6.748,0.341 C6.294,-0.113 5.559,-0.113 5.104,0.341 C1.809,3.635 -0.005,8.013 -0.003,12.669 C-0.003,17.324 1.810,21.700 5.104,24.991 C5.331,25.219 5.627,25.332 5.926,25.332 Z" id="path-8" class="cls-3" fill-rule="evenodd"/>
    <path d="M32.543,12.664 C32.543,16.700 30.970,20.493 28.116,23.348 C27.663,23.803 27.663,24.538 28.116,24.991 C28.344,25.219 28.639,25.332 28.938,25.332 C29.233,25.332 29.533,25.219 29.760,24.991 C33.051,21.698 34.867,17.319 34.867,12.664 C34.865,8.008 33.051,3.632 29.760,0.341 C29.306,-0.113 28.570,-0.113 28.116,0.341 C27.663,0.795 27.663,1.530 28.116,1.984 C30.968,4.837 32.543,8.631 32.543,12.664 Z" id="path-9" class="cls-3" fill-rule="evenodd"/>
    <path d="M18.447,17.833 C18.014,17.184 16.894,17.188 16.463,17.833 C16.336,18.027 16.269,18.250 16.268,18.473 C1.804,53.211 1.845,53.270 2.321,53.987 C2.539,54.309 2.902,54.505 3.293,54.505 C3.293,54.505 31.762,54.505 31.762,54.505 C32.150,54.505 32.516,54.309 32.731,53.985 C33.210,53.265 33.251,53.206 18.667,18.418 C18.643,18.213 18.564,18.009 18.447,17.833 Z" id="path-10" class="cls-12" fill-rule="evenodd"/>
    <path d="M18.667,18.418 C18.643,18.213 18.564,18.009 18.447,17.833 C18.014,17.184 16.894,17.188 16.463,17.833 C16.336,18.028 16.269,18.250 16.268,18.473 C15.653,19.948 15.075,21.338 14.512,22.691 C27.291,53.190 27.244,53.296 26.785,53.985 C26.569,54.309 26.204,54.505 25.816,54.505 C25.816,54.505 31.762,54.505 31.762,54.505 C32.150,54.505 32.516,54.309 32.731,53.985 C33.210,53.265 33.251,53.207 18.667,18.418 Z" id="path-11" class="cls-13" fill-rule="evenodd"/>
  </g>
</svg>
