<svg xmlns="http://www.w3.org/2000/svg" xmlns:xlink="http://www.w3.org/1999/xlink" preserveAspectRatio="xMidYMid" width="61" height="40" viewBox="0 0 61 40">
  <defs>
    <style>

      .cls-3 {
        fill: #ff3a2f;
      }

      .cls-6 {
        fill: #2476ff;
      }

      .cls-7 {
        fill: #090908;
        opacity: 0.35;
      }

      .cls-22 {
        fill: #ededed;
      }
    </style>
  </defs>
  <g id="group-208svg">
    <path d="M38.468,23.445 C38.468,23.445 40.077,23.445 40.077,23.445 C40.388,23.445 40.639,23.634 40.639,23.868 C40.639,24.101 40.388,24.291 40.077,24.291 C40.077,24.291 40.002,24.291 40.002,24.291 C39.692,24.291 39.440,24.480 39.440,24.714 C39.440,24.948 39.692,25.137 40.002,25.137 C40.002,25.137 43.462,25.137 43.462,25.137 C43.772,25.137 44.023,25.326 44.023,25.560 C44.023,25.794 43.772,25.983 43.462,25.983 C43.462,25.983 39.305,25.983 39.305,25.983 C39.305,25.983 30.807,25.983 30.807,25.983 C30.496,25.983 30.245,25.794 30.245,25.560 C30.245,25.326 30.496,25.137 30.807,25.137 C30.807,25.137 31.767,25.137 31.767,25.137 C32.077,25.137 32.328,24.948 32.328,24.714 C32.328,24.480 32.077,24.291 31.767,24.291 C31.767,24.291 27.197,24.291 27.197,24.291 C26.887,24.291 26.636,24.101 26.636,23.868 C26.636,23.634 26.887,23.445 27.197,23.445 C27.197,23.445 28.277,23.445 28.277,23.445 C28.277,23.445 38.468,23.445 38.468,23.445 Z" id="path-1" class="cls-3" fill-rule="evenodd"/>
    <path d="M13.025,31.905 C13.025,31.905 9.250,31.905 9.250,31.905 C8.522,31.905 7.932,32.467 7.932,33.160 C7.932,33.853 8.522,34.415 9.250,34.415 C9.250,34.415 9.426,34.415 9.426,34.415 C10.153,34.415 10.744,34.976 10.744,35.670 C10.744,36.362 10.153,36.924 9.426,36.924 C9.426,36.924 1.311,36.924 1.311,36.924 C0.582,36.924 -0.008,37.486 -0.008,38.179 C-0.008,38.872 0.582,39.434 1.311,39.434 C1.311,39.434 11.063,39.434 11.063,39.434 C11.063,39.434 30.997,39.434 30.997,39.434 C31.725,39.434 32.315,38.872 32.315,38.179 C32.315,37.486 31.725,36.924 30.997,36.924 C30.997,36.924 28.745,36.924 28.745,36.924 C28.017,36.924 27.427,36.362 27.427,35.670 C27.427,34.976 28.017,34.415 28.745,34.415 C28.745,34.415 37.591,34.415 37.591,34.415 C38.318,34.415 38.908,33.853 38.908,33.160 C38.908,32.467 38.318,31.905 37.591,31.905 C37.591,31.905 36.931,31.905 36.931,31.905 C36.931,31.905 13.025,31.905 13.025,31.905 Z" id="path-2" class="cls-3" fill-rule="evenodd"/>
    <path d="M40.624,39.546 C39.955,39.546 39.412,39.149 39.412,38.659 C39.412,38.169 39.955,37.771 40.624,37.771 C40.624,37.771 44.340,37.771 44.340,37.771 C45.010,37.771 45.553,38.169 45.553,38.659 C45.553,39.149 45.010,39.546 44.340,39.546 C44.340,39.546 40.624,39.546 40.624,39.546 Z" id="path-3" class="cls-3" fill-rule="evenodd"/>
    <path d="M22.876,8.513 C21.948,7.403 20.735,6.840 19.275,6.840 C17.633,6.840 16.052,7.584 15.378,7.902 C11.322,9.812 9.392,12.945 9.476,17.478 C9.540,20.895 12.730,33.438 17.891,33.440 C17.906,33.440 18.061,33.435 18.075,33.434 C20.010,33.326 21.524,32.411 22.340,30.861 C23.474,28.707 23.141,25.657 21.471,22.900 C19.194,19.143 20.452,17.841 21.669,16.581 C24.418,13.732 24.849,10.867 22.876,8.513 Z" id="path-4" class="cls-6" fill-rule="evenodd"/>
    <path d="M21.669,16.581 C24.418,13.732 24.849,10.867 22.876,8.513 C21.948,7.402 20.735,6.840 19.275,6.840 C18.922,6.840 18.572,6.879 18.232,6.937 C19.267,7.135 20.155,7.657 20.870,8.513 C22.843,10.867 22.412,13.732 19.662,16.581 C18.445,17.841 17.187,19.143 19.465,22.900 C21.135,25.657 21.467,28.707 20.334,30.861 C19.653,32.154 18.479,32.998 16.987,33.307 C17.281,33.392 17.582,33.440 17.891,33.440 C17.906,33.440 18.061,33.435 18.075,33.434 C20.010,33.326 21.524,32.411 22.340,30.861 C23.474,28.707 23.141,25.657 21.471,22.900 C19.194,19.143 20.452,17.841 21.669,16.581 Z" id="path-5" class="cls-7" fill-rule="evenodd"/>
    <path d="M7.098,9.112 C5.841,9.112 4.816,10.136 4.816,11.394 C4.816,12.652 5.841,13.676 7.098,13.676 C8.357,13.676 9.379,12.652 9.379,11.394 C9.379,10.136 8.357,9.112 7.098,9.112 Z" id="path-6" class="cls-6" fill-rule="evenodd"/>
    <circle id="circle-1" class="cls-6" cx="10" cy="7" r="3"/>
    <path d="M14.237,6.070 C15.493,6.070 16.519,5.047 16.519,3.789 C16.519,2.530 15.493,1.507 14.237,1.507 C12.977,1.507 11.955,2.530 11.955,3.789 C11.955,5.047 12.977,6.070 14.237,6.070 Z" id="path-7" class="cls-6" fill-rule="evenodd"/>
    <circle id="circle-2" class="cls-6" cx="20" cy="3" r="3"/>
    <circle id="circle-3" class="cls-6" cx="27" cy="5" r="5"/>
    <path d="M43.140,16.581 C44.356,17.841 45.614,19.143 43.338,22.900 C41.668,25.657 41.335,28.707 42.469,30.861 C43.284,32.411 44.799,33.326 46.733,33.434 C46.748,33.435 46.902,33.440 46.917,33.440 C52.078,33.438 55.268,20.895 55.332,17.478 C55.417,12.945 53.486,9.812 49.431,7.902 C48.757,7.584 47.176,6.840 45.533,6.840 C44.073,6.840 42.860,7.403 41.932,8.513 C39.959,10.867 40.391,13.732 43.140,16.581 Z" id="path-8" class="cls-6" fill-rule="evenodd"/>
    <path d="M49.431,7.902 C48.757,7.584 47.176,6.840 45.533,6.840 C45.197,6.840 44.879,6.877 44.569,6.937 C45.807,7.145 46.895,7.652 47.425,7.902 C51.479,9.812 53.411,12.945 53.326,17.478 C53.266,20.691 50.441,31.968 45.815,33.307 C46.110,33.368 46.414,33.416 46.733,33.434 C46.748,33.435 46.902,33.440 46.917,33.440 C52.078,33.438 55.268,20.895 55.332,17.478 C55.417,12.945 53.486,9.812 49.431,7.902 Z" id="path-9" class="cls-7" fill-rule="evenodd"/>
    <path d="M55.429,11.394 C55.429,12.652 56.451,13.676 57.711,13.676 C58.968,13.676 59.992,12.652 59.992,11.394 C59.992,10.136 58.968,9.112 57.711,9.112 C56.451,9.112 55.429,10.136 55.429,11.394 Z" id="path-10" class="cls-6" fill-rule="evenodd"/>
    <path d="M57.243,6.831 C57.243,5.572 56.220,4.549 54.961,4.549 C53.703,4.549 52.680,5.572 52.680,6.831 C52.680,8.089 53.703,9.112 54.961,9.112 C56.220,9.112 57.243,8.089 57.243,6.831 Z" id="path-11" class="cls-6" fill-rule="evenodd"/>
    <path d="M52.853,3.789 C52.853,2.530 51.831,1.507 50.571,1.507 C49.315,1.507 48.290,2.530 48.290,3.789 C48.290,5.047 49.315,6.070 50.571,6.070 C51.831,6.070 52.853,5.047 52.853,3.789 Z" id="path-12" class="cls-6" fill-rule="evenodd"/>
    <path d="M47.654,2.267 C47.654,1.010 46.631,-0.014 45.373,-0.014 C44.114,-0.014 43.091,1.010 43.091,2.267 C43.091,3.525 44.114,4.549 45.373,4.549 C46.631,4.549 47.654,3.525 47.654,2.267 Z" id="path-13" class="cls-6" fill-rule="evenodd"/>
    <path d="M34.621,3.789 C34.621,5.886 36.326,7.592 38.424,7.592 C40.521,7.592 42.226,5.886 42.226,3.789 C42.226,1.691 40.521,-0.014 38.424,-0.014 C36.326,-0.014 34.621,1.691 34.621,3.789 Z" id="path-14" class="cls-6" fill-rule="evenodd"/>
    <path d="M28.523,0.647 C28.939,1.256 29.184,1.993 29.184,2.785 C29.184,4.883 27.479,6.588 25.382,6.588 C24.589,6.588 23.853,6.343 23.243,5.927 C23.929,6.931 25.080,7.591 26.385,7.591 C28.482,7.591 30.187,5.886 30.187,3.789 C30.187,2.484 29.527,1.332 28.523,0.647 Z" id="path-15" class="cls-7" fill-rule="evenodd"/>
    <path d="M40.561,0.647 C40.978,1.256 41.223,1.993 41.223,2.785 C41.223,4.883 39.518,6.588 37.420,6.588 C36.627,6.588 35.892,6.343 35.282,5.927 C35.967,6.931 37.119,7.591 38.424,7.591 C40.520,7.591 42.226,5.886 42.226,3.789 C42.226,2.484 41.565,1.332 40.561,0.647 Z" id="path-16" class="cls-7" fill-rule="evenodd"/>
    <path d="M44.087,14.071 C43.737,14.071 43.400,13.888 43.219,13.560 C43.146,13.430 42.527,12.247 43.003,10.959 C43.334,10.062 44.081,9.390 45.223,8.963 C45.741,8.768 46.316,9.031 46.510,9.549 C46.703,10.066 46.441,10.643 45.924,10.836 C45.534,10.982 45.037,11.239 44.883,11.642 C44.714,12.080 44.972,12.598 44.975,12.603 C45.226,13.089 45.045,13.693 44.562,13.951 C44.411,14.033 44.247,14.071 44.087,14.071 Z" id="path-17" class="cls-22" fill-rule="evenodd"/>
    <path d="M11.956,16.264 C11.908,16.264 11.859,16.261 11.811,16.254 C11.264,16.174 10.886,15.666 10.966,15.119 C10.988,14.963 11.562,11.271 14.760,10.075 C15.277,9.879 15.853,10.143 16.047,10.660 C16.240,11.178 15.978,11.754 15.461,11.947 C13.358,12.734 12.948,15.381 12.944,15.408 C12.872,15.906 12.444,16.264 11.956,16.264 Z" id="path-18" class="cls-22" fill-rule="evenodd"/>
  </g>
</svg>
