<svg xmlns="http://www.w3.org/2000/svg" xmlns:xlink="http://www.w3.org/1999/xlink" preserveAspectRatio="xMidYMid" width="63" height="60" viewBox="0 0 63 60">
  <defs>
    <style>

      .cls-3 {
        fill: #2476ff;
      }

      .cls-4 {
        fill: #fbb713;
      }

      .cls-9 {
        fill: #020403;
        opacity: 0.25;
      }

      .cls-10 {
        fill: #9fa869;
      }

      .cls-12 {
        fill: #000000;
        opacity: 0.35;
      }

      .cls-13 {
        fill: #142a3b;
      }

      .cls-14 {
        fill: #ffffff;
      }

      .cls-17 {
        fill: #020403;
        opacity: 0.35;
      }
    </style>
  </defs>
  <g id="group-49svg">
    <path d="M50.937,49.951 C50.937,49.951 54.240,49.951 54.240,49.951 C54.877,49.951 55.394,50.278 55.394,50.682 C55.394,51.085 54.877,51.412 54.240,51.412 C54.240,51.412 54.087,51.412 54.087,51.412 C53.450,51.412 52.934,51.739 52.934,52.143 C52.934,52.546 53.450,52.873 54.087,52.873 C54.087,52.873 61.187,52.873 61.187,52.873 C61.824,52.873 62.341,53.201 62.341,53.604 C62.341,54.008 61.824,54.335 61.187,54.335 C61.187,54.335 52.654,54.335 52.654,54.335 C52.654,54.335 43.275,54.335 43.275,54.335 C42.639,54.335 42.122,54.008 42.122,53.604 C42.122,53.201 42.639,52.873 43.275,52.873 C43.275,52.873 45.246,52.873 45.246,52.873 C45.883,52.873 46.399,52.546 46.399,52.143 C46.399,51.739 45.883,51.412 45.246,51.412 C45.246,51.412 35.867,51.412 35.867,51.412 C35.230,51.412 34.714,51.085 34.714,50.682 C34.714,50.278 35.230,49.951 35.867,49.951 C35.867,49.951 38.084,49.951 38.084,49.951 C38.084,49.951 50.937,49.951 50.937,49.951 Z" id="path-1" class="cls-3" fill-rule="evenodd"/>
    <path d="M59.193,47.258 C60.148,47.258 60.923,46.767 60.923,46.162 C60.923,45.557 60.148,45.066 59.193,45.066 C59.193,45.066 53.892,45.066 53.892,45.066 C52.937,45.066 52.163,45.557 52.163,46.162 C52.163,46.767 52.937,47.258 53.892,47.258 C53.892,47.258 59.193,47.258 59.193,47.258 Z" id="path-2" class="cls-4" fill-rule="evenodd"/>
    <path d="M12.968,37.142 C12.968,37.142 14.355,37.142 14.355,37.142 C14.622,37.142 14.839,37.360 14.839,37.630 C14.839,37.899 14.622,38.117 14.355,38.117 C14.355,38.117 14.291,38.117 14.291,38.117 C14.023,38.117 13.807,38.335 13.807,38.605 C13.807,38.874 14.023,39.092 14.291,39.092 C14.291,39.092 17.272,39.092 17.272,39.092 C17.540,39.092 17.757,39.311 17.757,39.580 C17.757,39.849 17.540,40.067 17.272,40.067 C17.272,40.067 13.688,40.067 13.688,40.067 C13.688,40.067 9.750,40.067 9.750,40.067 C9.482,40.067 9.266,39.849 9.266,39.580 C9.266,39.311 9.482,39.092 9.750,39.092 C9.750,39.092 10.577,39.092 10.577,39.092 C10.845,39.092 11.062,38.874 11.062,38.605 C11.062,38.335 10.845,38.117 10.577,38.117 C10.577,38.117 6.639,38.117 6.639,38.117 C6.371,38.117 6.154,37.899 6.154,37.630 C6.154,37.360 6.371,37.142 6.639,37.142 C6.639,37.142 7.569,37.142 7.569,37.142 C7.569,37.142 12.968,37.142 12.968,37.142 Z" id="path-3" class="cls-3" fill-rule="evenodd"/>
    <path d="M50.110,33.334 C50.110,33.334 51.010,33.334 51.010,33.334 C51.184,33.334 51.324,33.451 51.324,33.598 C51.324,33.743 51.184,33.861 51.010,33.861 C51.010,33.861 50.968,33.861 50.968,33.861 C50.795,33.861 50.654,33.979 50.654,34.125 C50.654,34.271 50.795,34.389 50.968,34.389 C50.968,34.389 52.901,34.389 52.901,34.389 C53.075,34.389 53.216,34.507 53.216,34.653 C53.216,34.799 53.075,34.917 52.901,34.917 C52.901,34.917 50.578,34.917 50.578,34.917 C50.578,34.917 48.023,34.917 48.023,34.917 C47.851,34.917 47.710,34.799 47.710,34.653 C47.710,34.507 47.851,34.389 48.023,34.389 C48.023,34.389 48.560,34.389 48.560,34.389 C48.733,34.389 48.874,34.271 48.874,34.125 C48.874,33.979 48.733,33.861 48.560,33.861 C48.560,33.861 46.006,33.861 46.006,33.861 C45.832,33.861 45.692,33.743 45.692,33.598 C45.692,33.451 45.832,33.334 46.006,33.334 C46.006,33.334 46.609,33.334 46.609,33.334 C46.609,33.334 50.110,33.334 50.110,33.334 Z" id="path-4" class="cls-4" fill-rule="evenodd"/>
    <path d="M47.588,55.079 C47.588,55.079 26.663,43.319 26.663,43.319 C25.375,42.595 23.532,42.595 22.244,43.319 C22.244,43.319 1.316,55.079 1.316,55.079 C-1.253,56.523 0.219,59.405 3.526,59.405 C3.526,59.405 29.043,59.405 29.043,59.405 C29.043,59.405 45.379,59.405 45.379,59.405 C48.686,59.405 50.158,56.523 47.588,55.079 Z" id="path-5" class="cls-4" fill-rule="evenodd"/>
    <path d="M53.297,8.536 C53.155,8.848 52.787,8.986 52.475,8.844 C52.475,8.844 39.604,3.003 39.604,3.003 C39.292,2.861 39.153,2.494 39.295,2.181 C39.295,2.181 40.129,0.344 40.129,0.344 C40.270,0.032 40.639,-0.106 40.951,0.036 C40.951,0.036 53.821,5.876 53.821,5.876 C54.134,6.018 54.272,6.386 54.131,6.698 C54.131,6.698 53.297,8.536 53.297,8.536 Z" id="path-6" class="cls-4" fill-rule="evenodd"/>
    <path d="M39.295,2.181 C39.153,2.494 39.292,2.861 39.604,3.003 C39.604,3.003 52.475,8.844 52.475,8.844 C52.787,8.986 53.155,8.848 53.297,8.536 C53.297,8.536 53.497,8.094 53.497,8.094 C53.497,8.094 39.495,1.740 39.495,1.740 C39.495,1.740 39.295,2.181 39.295,2.181 Z" id="path-7" class="cls-9" fill-rule="evenodd"/>
    <path d="M47.387,5.618 C47.387,5.618 45.382,4.709 45.382,4.709 C45.059,4.562 44.677,4.706 44.530,5.029 C44.530,5.029 44.451,5.203 44.451,5.203 C44.451,5.203 47.628,6.644 47.628,6.644 C47.628,6.644 47.706,6.471 47.706,6.471 C47.853,6.147 47.710,5.766 47.387,5.618 Z" id="path-8" class="cls-10" fill-rule="evenodd"/>
    <path d="M21.900,51.788 C21.900,51.788 21.988,51.828 21.988,51.828 C21.988,51.828 31.786,51.828 31.786,51.828 C31.786,51.828 34.539,42.966 34.539,42.966 C34.997,41.492 34.286,39.909 32.881,39.271 C32.881,39.271 29.607,37.785 29.607,37.785 C28.202,37.148 26.542,37.655 25.734,38.970 C25.734,38.970 20.557,47.399 20.557,47.399 C19.593,48.968 20.223,51.027 21.900,51.788 Z" id="path-9" class="cls-3" fill-rule="evenodd"/>
    <path d="M32.866,39.264 C31.473,42.335 29.617,44.494 28.721,44.088 C27.824,43.681 28.227,40.863 29.621,37.791 C29.621,37.791 29.621,37.791 29.621,37.791 " id="path-10" class="cls-12" fill-rule="evenodd"/>
    <path d="M42.627,16.762 C42.770,16.449 42.630,16.081 42.318,15.939 C42.318,15.939 40.951,15.319 40.951,15.319 C40.639,15.178 40.271,15.316 40.130,15.628 C40.130,15.628 29.140,39.846 29.140,39.846 C29.140,39.848 29.140,39.849 29.139,39.851 C29.136,39.858 29.132,39.863 29.129,39.869 C28.515,41.223 28.576,42.574 29.266,42.887 C29.956,43.200 31.013,42.356 31.627,41.003 C31.630,40.996 31.632,40.990 31.635,40.984 C31.636,40.982 31.637,40.981 31.638,40.979 C31.638,40.979 42.627,16.762 42.627,16.762 Z" id="path-11" class="cls-13" fill-rule="evenodd"/>
    <path d="M30.661,39.812 C30.661,39.812 41.207,16.571 41.207,16.571 C41.207,16.571 40.469,16.237 40.469,16.237 C40.469,16.237 29.923,39.477 29.923,39.477 C29.923,39.477 29.922,39.477 29.922,39.477 C29.543,40.311 29.401,41.062 29.606,41.155 C29.811,41.248 30.284,40.647 30.662,39.813 C30.662,39.813 30.661,39.812 30.661,39.812 Z" id="path-12" class="cls-14" fill-rule="evenodd"/>
    <path d="M42.995,16.701 C42.853,17.013 42.485,17.152 42.173,17.010 C42.173,17.010 40.241,16.134 40.241,16.134 C39.930,15.992 39.791,15.624 39.933,15.312 C39.933,15.312 44.541,5.158 44.541,5.158 C44.683,4.846 45.051,4.708 45.362,4.849 C45.362,4.849 47.294,5.726 47.294,5.726 C47.606,5.868 47.744,6.236 47.602,6.548 C47.602,6.548 42.995,16.701 42.995,16.701 Z" id="path-13" class="cls-4" fill-rule="evenodd"/>
    <path d="M41.207,16.571 C41.207,16.571 40.469,16.237 40.469,16.237 C40.469,16.237 45.590,4.953 45.590,4.953 C45.590,4.953 46.328,5.287 46.328,5.287 C46.328,5.287 41.207,16.571 41.207,16.571 Z" id="path-14" class="cls-14" fill-rule="evenodd"/>
    <path d="M31.786,51.828 C31.786,51.828 34.539,42.966 34.539,42.966 C34.970,41.580 34.358,40.108 33.117,39.406 C33.299,39.983 33.322,40.613 33.131,41.228 C33.131,41.228 30.197,50.676 30.197,50.676 C30.059,51.120 29.829,51.508 29.537,51.828 C29.537,51.828 31.786,51.828 31.786,51.828 Z" id="path-15" class="cls-17" fill-rule="evenodd"/>
    <path d="M21.900,51.788 C21.900,51.788 21.988,51.828 21.988,51.828 C21.988,51.828 24.408,51.828 24.408,51.828 C24.408,51.828 20.492,50.051 20.492,50.051 C20.400,50.010 20.325,49.951 20.240,49.902 C20.488,50.705 21.063,51.408 21.900,51.788 Z" id="path-16" class="cls-17" fill-rule="evenodd"/>
  </g>
</svg>
