<svg xmlns="http://www.w3.org/2000/svg" xmlns:xlink="http://www.w3.org/1999/xlink" preserveAspectRatio="xMidYMid" width="61" height="59" viewBox="0 0 61 59">
  <defs>
    <style>

      .cls-3 {
        fill: #142a3b;
      }

      .cls-5 {
        fill: #ff3a2f;
      }

      .cls-6 {
        fill: #020403;
        opacity: 0.35;
      }

      .cls-8 {
        fill: #0cb04a;
      }

      .cls-11 {
        fill: #fbb713;
      }
    </style>
  </defs>
  <g id="group-97svg">
    <path d="M6.444,40.744 C6.444,40.744 21.239,3.003 21.239,3.003 C21.239,3.003 9.275,41.735 9.275,41.735 C9.031,42.527 8.190,42.970 7.398,42.726 C6.606,42.481 6.163,41.640 6.407,40.848 C6.418,40.814 6.432,40.776 6.444,40.744 Z" id="path-1" class="cls-3" fill-rule="evenodd"/>
    <path d="M22.717,52.106 C22.464,52.106 22.210,52.011 22.016,51.819 C21.622,51.432 21.616,50.799 22.004,50.405 C22.004,50.405 43.776,28.276 43.776,28.276 C44.162,27.883 44.797,27.876 45.190,28.264 C45.584,28.652 45.590,29.285 45.202,29.679 C45.202,29.679 23.430,51.808 23.430,51.808 C23.234,52.007 22.976,52.106 22.717,52.106 Z" id="path-2" class="cls-3" fill-rule="evenodd"/>
    <path d="M15.925,34.458 C11.722,34.458 8.079,36.856 6.291,40.360 C5.539,41.832 5.115,43.500 5.115,45.266 C5.115,51.236 9.955,56.075 15.925,56.075 C21.894,56.075 26.733,51.236 26.733,45.266 C26.733,39.297 21.894,34.458 15.925,34.458 ZM15.925,49.647 C13.506,49.647 11.544,47.686 11.544,45.266 C11.544,44.550 11.716,43.875 12.020,43.278 C12.745,41.859 14.222,40.887 15.925,40.887 C18.344,40.887 20.305,42.847 20.305,45.266 C20.305,47.686 18.344,49.647 15.925,49.647 Z" id="path-3" class="cls-5" fill-rule="evenodd"/>
    <path d="M12.244,47.628 C11.806,46.945 11.544,46.138 11.544,45.266 C11.544,44.550 11.716,43.875 12.020,43.278 C12.745,41.859 14.222,40.887 15.925,40.887 C16.796,40.887 17.603,41.148 18.285,41.587 C17.507,40.375 16.153,39.567 14.605,39.567 C12.902,39.567 11.427,40.540 10.702,41.959 C10.397,42.556 10.226,43.232 10.226,43.948 C10.226,45.495 11.033,46.849 12.244,47.628 Z" id="path-4" class="cls-6" fill-rule="evenodd"/>
    <path d="M22.877,36.996 C24.458,38.875 25.415,41.299 25.415,43.948 C25.415,49.917 20.575,54.757 14.605,54.757 C11.957,54.757 9.533,53.801 7.653,52.219 C9.636,54.575 12.604,56.075 15.925,56.075 C21.894,56.075 26.733,51.236 26.733,45.266 C26.733,41.946 25.233,38.979 22.877,36.996 Z" id="path-5" class="cls-6" fill-rule="evenodd"/>
    <path d="M42.980,0.001 C35.767,0.376 26.483,8.086 26.858,15.300 C27.051,19.012 33.449,17.719 36.951,20.506 C40.256,23.136 40.570,29.959 44.072,29.777 C51.287,29.402 57.096,19.599 56.721,12.384 C56.346,5.171 50.194,-0.374 42.980,0.001 ZM43.928,18.233 C41.072,18.382 38.637,16.187 38.488,13.332 C38.340,10.476 40.535,8.041 43.391,7.893 C46.246,7.744 48.681,9.939 48.829,12.794 C48.978,15.650 46.783,18.085 43.928,18.233 Z" id="path-6" class="cls-8" fill-rule="evenodd"/>
    <path d="M42.302,8.071 C41.806,7.943 41.291,7.865 40.753,7.893 C37.897,8.041 35.703,10.476 35.852,13.332 C36.000,16.187 38.435,18.382 41.290,18.233 C41.667,18.214 42.029,18.150 42.379,18.055 C40.244,17.507 38.609,15.649 38.488,13.332 C38.359,10.853 39.999,8.695 42.302,8.071 Z" id="path-7" class="cls-6" fill-rule="evenodd"/>
    <path d="M42.980,0.001 C42.783,0.011 42.578,0.048 42.379,0.068 C48.678,0.720 53.744,5.862 54.084,12.384 C54.432,19.091 49.434,28.025 42.934,29.551 C43.274,29.714 43.649,29.799 44.072,29.777 C51.287,29.402 57.096,19.599 56.721,12.384 C56.346,5.171 50.194,-0.374 42.980,0.001 Z" id="path-8" class="cls-6" fill-rule="evenodd"/>
    <path d="M48.935,51.055 C48.935,51.055 52.137,51.055 52.137,51.055 C52.754,51.055 53.254,51.573 53.254,52.210 C53.254,52.848 52.754,53.366 52.137,53.366 C52.137,53.366 51.988,53.366 51.988,53.366 C51.371,53.366 50.870,53.883 50.870,54.521 C50.870,55.159 51.371,55.676 51.988,55.676 C51.988,55.676 58.869,55.676 58.869,55.676 C59.486,55.676 59.987,56.194 59.987,56.831 C59.987,57.470 59.486,57.987 58.869,57.987 C58.869,57.987 50.600,57.987 50.600,57.987 C50.600,57.987 33.695,57.987 33.695,57.987 C33.078,57.987 32.578,57.470 32.578,56.831 C32.578,56.194 33.078,55.676 33.695,55.676 C33.695,55.676 35.605,55.676 35.605,55.676 C36.223,55.676 36.723,55.159 36.723,54.521 C36.723,53.883 36.223,53.366 35.605,53.366 C35.605,53.366 26.516,53.366 26.516,53.366 C25.898,53.366 25.397,52.848 25.397,52.210 C25.397,51.573 25.898,51.055 26.516,51.055 C26.516,51.055 28.664,51.055 28.664,51.055 C28.664,51.055 48.935,51.055 48.935,51.055 Z" id="path-9" class="cls-11" fill-rule="evenodd"/>
    <path d="M21.383,58.091 C22.146,58.091 22.766,57.824 22.766,57.496 C22.766,57.168 22.146,56.902 21.383,56.902 C21.383,56.902 17.145,56.902 17.145,56.902 C16.382,56.902 15.763,57.168 15.763,57.496 C15.763,57.824 16.382,58.091 17.145,58.091 C17.145,58.091 21.383,58.091 21.383,58.091 Z" id="path-10" class="cls-11" fill-rule="evenodd"/>
    <path d="M53.747,39.499 C53.747,39.499 55.006,39.499 55.006,39.499 C55.249,39.499 55.445,39.757 55.445,40.074 C55.445,40.391 55.249,40.648 55.006,40.648 C55.006,40.648 54.947,40.648 54.947,40.648 C54.705,40.648 54.508,40.905 54.508,41.223 C54.508,41.540 54.705,41.797 54.947,41.797 C54.947,41.797 57.654,41.797 57.654,41.797 C57.896,41.797 58.094,42.055 58.094,42.372 C58.094,42.689 57.896,42.946 57.654,42.946 C57.654,42.946 54.401,42.946 54.401,42.946 C54.401,42.946 47.753,42.946 47.753,42.946 C47.510,42.946 47.312,42.689 47.312,42.372 C47.312,42.055 47.510,41.797 47.753,41.797 C47.753,41.797 48.504,41.797 48.504,41.797 C48.746,41.797 48.943,41.540 48.943,41.223 C48.943,40.905 48.746,40.648 48.504,40.648 C48.504,40.648 44.929,40.648 44.929,40.648 C44.686,40.648 44.489,40.391 44.489,40.074 C44.489,39.757 44.686,39.499 44.929,39.499 C44.929,39.499 45.773,39.499 45.773,39.499 C45.773,39.499 53.747,39.499 53.747,39.499 Z" id="path-11" class="cls-11" fill-rule="evenodd"/>
    <path d="M7.496,23.183 C7.496,23.183 8.517,23.183 8.517,23.183 C8.714,23.183 8.873,23.391 8.873,23.648 C8.873,23.905 8.714,24.114 8.517,24.114 C8.517,24.114 8.470,24.114 8.470,24.114 C8.272,24.114 8.113,24.323 8.113,24.580 C8.113,24.837 8.272,25.046 8.470,25.046 C8.470,25.046 10.665,25.046 10.665,25.046 C10.861,25.046 11.021,25.254 11.021,25.512 C11.021,25.769 10.861,25.978 10.665,25.978 C10.665,25.978 8.026,25.978 8.026,25.978 C8.026,25.978 2.634,25.978 2.634,25.978 C2.437,25.978 2.277,25.769 2.277,25.512 C2.277,25.254 2.437,25.046 2.634,25.046 C2.634,25.046 3.243,25.046 3.243,25.046 C3.440,25.046 3.600,24.837 3.600,24.580 C3.600,24.323 3.440,24.114 3.243,24.114 C3.243,24.114 0.344,24.114 0.344,24.114 C0.146,24.114 -0.013,23.905 -0.013,23.648 C-0.013,23.391 0.146,23.183 0.344,23.183 C0.344,23.183 1.029,23.183 1.029,23.183 C1.029,23.183 7.496,23.183 7.496,23.183 Z" id="path-12" class="cls-11" fill-rule="evenodd"/>
  </g>
</svg>
