<svg xmlns="http://www.w3.org/2000/svg" xmlns:xlink="http://www.w3.org/1999/xlink" preserveAspectRatio="xMidYMid" width="61" height="59" viewBox="0 0 61 59">
  <defs>
    <style>

      .cls-3 {
        fill: #2476ff;
      }

      .cls-11 {
        fill: #142a3b;
      }

      .cls-13 {
        fill: #0cb04a;
      }

      .cls-14 {
        fill: #ff3a2f;
      }

      .cls-15 {
        fill: #fbb713;
      }

      .cls-17 {
        fill: #020403;
        opacity: 0.3;
      }

      .cls-23 {
        fill: #ffffff;
      }
    </style>
  </defs>
  <g id="group-162svg">
    <path d="M45.801,53.877 C45.801,53.877 49.908,53.877 49.908,53.877 C50.700,53.877 51.341,54.165 51.341,54.521 C51.341,54.877 50.700,55.165 49.908,55.165 C49.908,55.165 49.716,55.165 49.716,55.165 C48.925,55.165 48.283,55.453 48.283,55.809 C48.283,56.164 48.925,56.452 49.716,56.452 C49.716,56.452 58.545,56.452 58.545,56.452 C59.337,56.452 59.979,56.741 59.979,57.096 C59.979,57.452 59.337,57.740 58.545,57.740 C58.545,57.740 47.936,57.740 47.936,57.740 C47.936,57.740 36.274,57.740 36.274,57.740 C35.482,57.740 34.840,57.452 34.840,57.096 C34.840,56.741 35.482,56.452 36.274,56.452 C36.274,56.452 38.724,56.452 38.724,56.452 C39.516,56.452 40.158,56.164 40.158,55.809 C40.158,55.453 39.516,55.165 38.724,55.165 C38.724,55.165 27.063,55.165 27.063,55.165 C26.271,55.165 25.629,54.877 25.629,54.521 C25.629,54.165 26.271,53.877 27.063,53.877 C27.063,53.877 29.819,53.877 29.819,53.877 C29.819,53.877 45.801,53.877 45.801,53.877 Z" id="path-1" class="cls-3" fill-rule="evenodd"/>
    <path d="M23.897,58.297 C24.801,58.297 25.534,57.968 25.534,57.562 C25.534,57.156 24.801,56.827 23.897,56.827 C23.897,56.827 18.880,56.827 18.880,56.827 C17.977,56.827 17.244,57.156 17.244,57.562 C17.244,57.968 17.977,58.297 18.880,58.297 C18.880,58.297 23.897,58.297 23.897,58.297 Z" id="path-2" class="cls-3" fill-rule="evenodd"/>
    <path d="M18.196,46.552 C18.196,46.552 20.082,46.552 20.082,46.552 C20.445,46.552 20.740,46.715 20.740,46.917 C20.740,47.119 20.445,47.282 20.082,47.282 C20.082,47.282 19.994,47.282 19.994,47.282 C19.630,47.282 19.336,47.446 19.336,47.648 C19.336,47.850 19.630,48.013 19.994,48.013 C19.994,48.013 24.048,48.013 24.048,48.013 C24.412,48.013 24.707,48.177 24.707,48.378 C24.707,48.580 24.412,48.743 24.048,48.743 C24.048,48.743 19.176,48.743 19.176,48.743 C19.176,48.743 9.218,48.743 9.218,48.743 C8.854,48.743 8.560,48.580 8.560,48.378 C8.560,48.177 8.854,48.013 9.218,48.013 C9.218,48.013 10.343,48.013 10.343,48.013 C10.707,48.013 11.001,47.850 11.001,47.648 C11.001,47.446 10.707,47.282 10.343,47.282 C10.343,47.282 4.989,47.282 4.989,47.282 C4.625,47.282 4.330,47.119 4.330,46.917 C4.330,46.715 4.625,46.552 4.989,46.552 C4.989,46.552 6.254,46.552 6.254,46.552 C6.254,46.552 18.196,46.552 18.196,46.552 Z" id="path-3" class="cls-3" fill-rule="evenodd"/>
    <path d="M8.079,7.218 C8.079,7.218 9.601,8.740 9.601,8.740 C9.894,9.033 9.928,9.475 9.677,9.726 C9.425,9.978 8.983,9.943 8.690,9.650 C8.690,9.650 8.619,9.579 8.619,9.579 C8.326,9.286 7.884,9.252 7.633,9.503 C7.381,9.754 7.415,10.196 7.709,10.490 C7.709,10.490 10.981,13.762 10.981,13.762 C11.274,14.055 11.308,14.497 11.057,14.748 C10.806,15.000 10.364,14.966 10.070,14.672 C10.070,14.672 6.138,10.740 6.138,10.740 C6.138,10.740 1.816,6.418 1.816,6.418 C1.523,6.125 1.489,5.683 1.740,5.431 C1.992,5.180 2.434,5.215 2.727,5.507 C2.727,5.507 3.635,6.416 3.635,6.416 C3.928,6.710 4.370,6.744 4.622,6.492 C4.873,6.240 4.839,5.799 4.545,5.506 C4.545,5.506 0.224,1.184 0.224,1.184 C-0.070,0.890 -0.104,0.449 0.147,0.197 C0.399,-0.055 0.840,-0.020 1.134,0.273 C1.134,0.273 2.155,1.295 2.155,1.295 C2.155,1.295 8.079,7.218 8.079,7.218 Z" id="path-4" class="cls-3" fill-rule="evenodd"/>
    <path d="M14.374,19.764 C14.709,20.098 15.213,20.138 15.500,19.850 C15.788,19.563 15.749,19.059 15.414,18.724 C15.414,18.724 13.554,16.865 13.554,16.865 C13.219,16.530 12.715,16.491 12.428,16.778 C12.141,17.065 12.180,17.569 12.515,17.904 C12.515,17.904 14.374,19.764 14.374,19.764 Z" id="path-5" class="cls-3" fill-rule="evenodd"/>
    <path d="M20.068,13.612 C20.068,13.612 20.768,14.311 20.768,14.311 C20.902,14.446 20.895,14.671 20.753,14.813 C20.610,14.955 20.386,14.962 20.251,14.827 C20.251,14.827 20.218,14.795 20.218,14.795 C20.083,14.660 19.859,14.666 19.716,14.809 C19.574,14.952 19.567,15.177 19.702,15.311 C19.702,15.311 21.204,16.813 21.204,16.813 C21.339,16.949 21.332,17.173 21.190,17.315 C21.047,17.459 20.823,17.465 20.688,17.330 C20.688,17.330 18.882,15.524 18.882,15.524 C18.882,15.524 15.192,11.834 15.192,11.834 C15.057,11.699 15.063,11.474 15.206,11.332 C15.349,11.189 15.574,11.182 15.708,11.317 C15.708,11.317 16.125,11.734 16.125,11.734 C16.260,11.869 16.485,11.863 16.627,11.720 C16.770,11.577 16.776,11.353 16.642,11.218 C16.642,11.218 14.657,9.233 14.657,9.233 C14.522,9.099 14.529,8.874 14.671,8.731 C14.814,8.589 15.039,8.582 15.174,8.717 C15.174,8.717 15.643,9.186 15.643,9.186 C15.643,9.186 20.068,13.612 20.068,13.612 Z" id="path-6" class="cls-3" fill-rule="evenodd"/>
    <path d="M21.888,5.308 C21.888,5.308 22.586,6.007 22.586,6.007 C22.721,6.142 22.715,6.367 22.572,6.510 C22.430,6.652 22.205,6.658 22.070,6.523 C22.070,6.523 22.037,6.491 22.037,6.491 C21.903,6.356 21.678,6.363 21.535,6.506 C21.393,6.648 21.386,6.873 21.521,7.008 C21.521,7.008 23.023,8.510 23.023,8.510 C23.158,8.645 23.152,8.869 23.009,9.012 C22.866,9.155 22.642,9.161 22.507,9.026 C22.507,9.026 20.701,7.221 20.701,7.221 C20.701,7.221 17.011,3.530 17.011,3.530 C16.876,3.395 16.882,3.171 17.025,3.028 C17.167,2.886 17.393,2.879 17.527,3.014 C17.527,3.014 17.944,3.431 17.944,3.431 C18.079,3.565 18.304,3.559 18.446,3.416 C18.589,3.274 18.595,3.049 18.461,2.914 C18.461,2.914 16.476,0.930 16.476,0.930 C16.341,0.795 16.348,0.570 16.490,0.427 C16.633,0.285 16.858,0.279 16.993,0.413 C16.993,0.413 17.462,0.883 17.462,0.883 C17.462,0.883 21.888,5.308 21.888,5.308 Z" id="path-7" class="cls-3" fill-rule="evenodd"/>
    <path d="M7.740,26.475 C7.740,26.475 8.439,27.175 8.439,27.175 C8.574,27.309 8.567,27.534 8.424,27.676 C8.282,27.819 8.057,27.826 7.922,27.691 C7.922,27.691 7.890,27.658 7.890,27.658 C7.755,27.524 7.530,27.530 7.388,27.673 C7.245,27.815 7.239,28.040 7.374,28.175 C7.374,28.175 8.876,29.677 8.876,29.677 C9.011,29.812 9.004,30.037 8.861,30.180 C8.719,30.323 8.494,30.329 8.359,30.194 C8.359,30.194 6.554,28.389 6.554,28.389 C6.554,28.389 2.863,24.698 2.863,24.698 C2.729,24.563 2.735,24.338 2.877,24.195 C3.020,24.053 3.245,24.047 3.380,24.181 C3.380,24.181 3.797,24.599 3.797,24.599 C3.932,24.733 4.156,24.727 4.299,24.584 C4.441,24.441 4.448,24.217 4.313,24.082 C4.313,24.082 2.329,22.098 2.329,22.098 C2.194,21.963 2.200,21.738 2.343,21.595 C2.485,21.452 2.710,21.446 2.845,21.581 C2.845,21.581 3.314,22.050 3.314,22.050 C3.314,22.050 7.740,26.475 7.740,26.475 Z" id="path-8" class="cls-3" fill-rule="evenodd"/>
    <path d="M25.508,16.978 C25.119,16.978 24.749,16.749 24.587,16.368 C24.587,16.368 23.313,13.364 23.313,13.364 C23.097,12.855 23.334,12.268 23.843,12.053 C24.350,11.837 24.938,12.074 25.154,12.583 C25.154,12.583 26.428,15.588 26.428,15.588 C26.644,16.096 26.407,16.684 25.898,16.898 C25.771,16.953 25.639,16.978 25.508,16.978 Z" id="path-9" class="cls-11" fill-rule="evenodd"/>
    <path d="M38.895,48.524 C38.505,48.524 38.135,48.295 37.974,47.914 C37.974,47.914 31.599,32.893 31.599,32.893 C31.383,32.385 31.621,31.797 32.129,31.582 C32.637,31.366 33.224,31.603 33.440,32.112 C33.440,32.112 39.814,47.133 39.814,47.133 C40.030,47.642 39.793,48.228 39.285,48.444 C39.157,48.498 39.025,48.524 38.895,48.524 Z" id="path-10" class="cls-11" fill-rule="evenodd"/>
    <path d="M46.039,26.766 C49.773,25.181 53.513,25.578 54.392,27.652 C49.640,16.453 36.708,11.226 25.508,15.978 C14.308,20.730 9.081,33.663 13.834,44.863 C12.954,42.789 15.267,39.823 19.000,38.239 C22.733,36.655 26.473,37.051 27.353,39.126 C26.473,37.051 28.786,34.086 32.519,32.502 C36.253,30.918 39.993,31.315 40.873,33.389 C39.993,31.315 42.306,28.349 46.039,26.766 Z" id="path-11" class="cls-13" fill-rule="evenodd"/>
    <path d="M46.039,26.766 C49.773,25.181 53.513,25.578 54.392,27.652 C49.640,16.453 36.708,11.226 25.508,15.978 C25.162,16.125 25.593,15.939 25.314,16.095 C24.527,16.534 35.878,24.011 40.873,33.389 C39.814,31.400 42.306,28.349 46.039,26.766 Z" id="path-12" class="cls-14" fill-rule="evenodd"/>
    <path d="M40.873,33.389 C36.121,22.189 29.241,14.394 25.508,15.978 C21.774,17.562 22.601,27.926 27.353,39.126 C27.353,39.126 27.313,39.031 27.313,39.031 C26.433,36.957 29.065,34.742 32.798,33.158 C36.532,31.574 39.953,31.220 40.833,33.294 C40.833,33.294 40.873,33.389 40.873,33.389 Z" id="path-13" class="cls-15" fill-rule="evenodd"/>
    <path d="M39.304,52.668 C40.360,55.157 43.234,56.318 45.723,55.262 C48.212,54.206 49.373,51.332 48.317,48.844 C47.965,48.014 47.007,47.627 46.178,47.978 C45.348,48.330 44.961,49.289 45.313,50.118 C45.665,50.948 45.278,51.906 44.448,52.258 C43.619,52.610 42.661,52.223 42.309,51.393 C42.309,51.393 40.396,46.887 40.396,46.887 C40.396,46.887 37.392,48.161 37.392,48.161 C37.392,48.161 39.304,52.668 39.304,52.668 Z" id="path-14" class="cls-11" fill-rule="evenodd"/>
    <path d="M39.645,47.205 C39.645,47.205 41.239,50.961 41.239,50.961 C41.498,51.570 42.083,51.937 42.705,51.951 C42.540,51.800 42.402,51.613 42.309,51.393 C42.309,51.393 40.396,46.887 40.396,46.887 C40.396,46.887 39.645,47.205 39.645,47.205 Z" id="path-15" class="cls-17" fill-rule="evenodd"/>
    <path d="M46.851,47.853 C47.016,48.005 47.154,48.190 47.248,48.411 C48.304,50.900 47.142,53.773 44.653,54.830 C43.600,55.276 42.479,55.322 41.455,55.043 C42.725,55.739 44.287,55.871 45.723,55.262 C48.212,54.206 49.373,51.332 48.317,48.844 C48.059,48.234 47.473,47.866 46.851,47.853 Z" id="path-16" class="cls-17" fill-rule="evenodd"/>
    <path d="M13.464,39.814 C13.114,39.963 12.782,40.127 12.458,40.297 C12.746,41.834 13.198,43.364 13.834,44.863 C13.057,43.032 14.718,39.509 20.627,37.672 C19.316,37.692 14.955,39.181 13.464,39.814 Z" id="path-17" class="cls-17" fill-rule="evenodd"/>
    <path d="M26.984,34.077 C24.943,34.517 23.522,36.074 22.595,37.311 C24.889,37.104 26.764,37.737 27.353,39.126 C26.577,37.295 28.262,35.546 31.244,33.889 C29.934,33.909 28.491,33.752 26.984,34.077 Z" id="path-18" class="cls-17" fill-rule="evenodd"/>
    <path d="M25.508,15.978 C25.469,15.995 25.431,16.014 25.392,16.031 C34.011,14.765 42.718,18.748 47.344,26.293 C50.608,25.300 53.616,25.821 54.393,27.652 C49.640,16.452 36.708,11.226 25.508,15.978 Z" id="path-19" class="cls-17" fill-rule="evenodd"/>
    <path d="M40.503,28.340 C38.582,29.155 34.592,31.625 33.665,32.863 C38.671,30.858 40.284,32.000 40.873,33.389 C40.096,31.557 41.811,29.033 44.792,27.376 C43.482,27.396 41.994,27.708 40.503,28.340 Z" id="path-20" class="cls-17" fill-rule="evenodd"/>
    <path d="M14.556,36.850 C14.093,36.850 13.679,36.529 13.580,36.059 C13.524,35.796 12.297,29.521 18.792,21.996 C19.153,21.578 19.784,21.531 20.202,21.892 C20.620,22.253 20.666,22.884 20.306,23.302 C14.501,30.029 15.493,35.426 15.538,35.652 C15.645,36.192 15.297,36.720 14.758,36.830 C14.690,36.843 14.622,36.850 14.556,36.850 Z" id="path-21" class="cls-23" fill-rule="evenodd"/>
  </g>
</svg>
