<svg xmlns="http://www.w3.org/2000/svg" xmlns:xlink="http://www.w3.org/1999/xlink" preserveAspectRatio="xMidYMid" width="60" height="59" viewBox="0 0 60 59">
  <defs>
    <style>

      .cls-3 {
        fill: #ff3a2f;
      }

      .cls-4 {
        fill: #0cb04a;
      }

      .cls-5 {
        fill: #010101;
        opacity: 0.35;
      }

      .cls-8 {
        fill: #010101;
        opacity: 0.25;
      }

      .cls-10 {
        fill: #020403;
        opacity: 0.25;
      }

      .cls-11 {
        fill: #ffffff;
      }

      .cls-12 {
        fill: #142a3b;
      }
    </style>
  </defs>
  <g id="group-82svg">
    <path d="M44.265,9.746 C41.277,8.346 36.794,7.192 32.112,9.430 C27.431,7.192 22.947,8.346 19.960,9.746 C12.286,13.629 7.092,21.072 7.092,29.621 C7.092,42.177 18.294,52.357 32.112,52.357 C45.931,52.357 57.133,42.177 57.133,29.621 C57.133,21.072 51.938,13.629 44.265,9.746 Z" id="path-1" class="cls-3" fill-rule="evenodd"/>
    <path d="M44.265,9.746 C41.277,8.346 36.794,7.192 32.112,9.430 C27.431,7.192 22.947,8.346 19.960,9.746 C16.218,11.639 13.072,14.385 10.824,17.687 C10.981,17.612 17.089,14.721 21.315,15.041 C21.315,15.041 26.027,14.850 24.696,19.820 C24.680,19.879 24.745,19.905 24.795,19.858 C27.402,17.326 30.236,15.629 32.112,15.629 C33.988,15.629 36.822,17.326 39.432,19.858 C39.480,19.905 39.545,19.879 39.528,19.820 C38.198,14.850 42.909,15.041 42.909,15.041 C47.136,14.721 53.243,17.612 53.401,17.687 C51.153,14.385 48.007,11.639 44.265,9.746 Z" id="path-2" class="cls-4" fill-rule="evenodd"/>
    <path d="M21.315,15.041 C19.258,14.885 16.759,15.491 14.713,16.161 C14.001,16.950 13.342,17.778 12.749,18.650 C12.907,18.574 19.015,15.682 23.241,16.004 C23.241,16.004 23.643,15.992 24.175,16.091 C23.114,14.972 21.315,15.041 21.315,15.041 Z" id="path-3" class="cls-5" fill-rule="evenodd"/>
    <path d="M53.401,17.687 C53.243,17.612 47.136,14.721 42.909,15.041 C42.909,15.041 38.686,14.878 39.377,19.092 C40.039,19.607 40.705,20.188 41.356,20.820 C41.405,20.868 41.471,20.842 41.453,20.782 C40.123,15.813 44.835,16.004 44.835,16.004 C47.679,15.788 51.664,17.321 53.773,18.237 C53.773,18.237 53.401,17.687 53.401,17.687 C53.401,17.687 53.401,17.687 53.401,17.687 Z" id="path-4" class="cls-5" fill-rule="evenodd"/>
    <path d="M32.112,15.629 C30.692,15.629 28.723,16.604 26.718,18.176 C26.904,18.830 26.919,19.672 26.622,20.782 C26.605,20.842 26.670,20.868 26.720,20.820 C29.328,18.288 32.162,16.592 34.038,16.592 C34.547,16.592 35.131,16.726 35.757,16.959 C34.391,16.124 33.113,15.629 32.112,15.629 Z" id="path-5" class="cls-5" fill-rule="evenodd"/>
    <path d="M44.265,9.746 C42.656,8.992 40.611,8.315 38.338,8.195 C43.931,12.364 47.506,18.684 47.506,25.770 C47.506,38.327 36.304,48.507 22.486,48.507 C20.766,48.507 19.086,48.348 17.464,48.048 C21.582,50.756 26.641,52.357 32.112,52.357 C45.931,52.357 57.133,42.177 57.133,29.621 C57.133,21.072 51.938,13.629 44.265,9.746 Z" id="path-6" class="cls-8" fill-rule="evenodd"/>
    <path d="M32.119,11.585 C31.802,4.428 37.716,-0.006 37.716,-0.006 C37.716,-0.006 37.705,-0.006 37.705,-0.006 C37.705,-0.006 26.510,-0.006 26.510,-0.006 C26.510,-0.006 32.426,4.428 32.107,11.585 C32.107,11.585 32.107,11.585 32.107,11.585 " id="path-7" class="cls-4" fill-rule="evenodd"/>
    <path d="M37.705,-0.006 C37.705,-0.006 26.510,-0.006 26.510,-0.006 C26.510,-0.006 27.409,0.675 28.487,1.919 C28.487,1.919 34.817,1.919 34.817,1.919 C34.817,1.919 34.827,1.919 34.827,1.919 C34.827,1.919 32.770,3.474 31.147,6.212 C31.780,7.762 32.197,9.560 32.107,11.585 C32.107,11.585 32.119,11.585 32.119,11.585 C31.802,4.428 37.716,-0.006 37.716,-0.006 C37.716,-0.006 37.705,-0.006 37.705,-0.006 Z" id="path-8" class="cls-10" fill-rule="evenodd"/>
    <path d="M15.348,40.681 C14.951,40.681 14.556,40.524 14.261,40.214 C13.977,39.915 7.344,32.776 11.416,22.733 C11.727,21.966 12.602,21.595 13.369,21.906 C14.137,22.218 14.507,23.093 14.195,23.860 C10.843,32.130 16.378,38.088 16.435,38.147 C17.006,38.748 16.981,39.697 16.381,40.267 C16.091,40.544 15.719,40.681 15.348,40.681 Z" id="path-9" class="cls-11" fill-rule="evenodd"/>
    <path d="M20.083,50.579 C20.083,50.579 14.263,50.579 14.263,50.579 C13.140,50.579 12.230,51.119 12.230,51.785 C12.230,52.451 13.140,52.990 14.263,52.990 C14.263,52.990 14.533,52.990 14.533,52.990 C15.655,52.990 16.565,53.530 16.565,54.195 C16.565,54.861 15.655,55.401 14.533,55.401 C14.533,55.401 2.021,55.401 2.021,55.401 C0.898,55.401 -0.011,55.941 -0.011,56.606 C-0.011,57.272 0.898,57.812 2.021,57.812 C2.021,57.812 17.058,57.812 17.058,57.812 C17.058,57.812 47.791,57.812 47.791,57.812 C48.913,57.812 49.823,57.272 49.823,56.606 C49.823,55.941 48.913,55.401 47.791,55.401 C47.791,55.401 44.318,55.401 44.318,55.401 C43.196,55.401 42.287,54.861 42.287,54.195 C42.287,53.530 43.196,52.990 44.318,52.990 C44.318,52.990 57.957,52.990 57.957,52.990 C59.079,52.990 59.989,52.451 59.989,51.785 C59.989,51.119 59.079,50.579 57.957,50.579 C57.957,50.579 56.939,50.579 56.939,50.579 C56.939,50.579 20.083,50.579 20.083,50.579 Z" id="path-10" class="cls-12" fill-rule="evenodd"/>
    <path d="M2.297,44.970 C1.355,44.970 0.593,44.594 0.593,44.130 C0.593,43.665 1.355,43.289 2.297,43.289 C2.297,43.289 7.517,43.289 7.517,43.289 C8.458,43.289 9.221,43.665 9.221,44.130 C9.221,44.594 8.458,44.970 7.517,44.970 C7.517,44.970 2.297,44.970 2.297,44.970 Z" id="path-11" class="cls-12" fill-rule="evenodd"/>
  </g>
</svg>
