<svg xmlns="http://www.w3.org/2000/svg" xmlns:xlink="http://www.w3.org/1999/xlink" preserveAspectRatio="xMidYMid" width="60" height="39" viewBox="0 0 60 39">
  <defs>
    <style>

      .cls-3 {
        fill: #2476ff;
      }

      .cls-6 {
        fill: #ff3a2f;
      }

      .cls-7 {
        fill: #142a3b;
      }

      .cls-8 {
        fill: #090908;
        opacity: 0.35;
      }
    </style>
  </defs>
  <g id="group-197svg">
    <path d="M41.395,26.455 C41.395,26.455 42.738,26.455 42.738,26.455 C42.997,26.455 43.207,26.613 43.207,26.807 C43.207,27.003 42.997,27.161 42.738,27.161 C42.738,27.161 42.676,27.161 42.676,27.161 C42.417,27.161 42.207,27.319 42.207,27.513 C42.207,27.709 42.417,27.867 42.676,27.867 C42.676,27.867 45.562,27.867 45.562,27.867 C45.821,27.867 46.031,28.025 46.031,28.220 C46.031,28.415 45.821,28.573 45.562,28.573 C45.562,28.573 42.094,28.573 42.094,28.573 C42.094,28.573 35.002,28.573 35.002,28.573 C34.743,28.573 34.533,28.415 34.533,28.220 C34.533,28.025 34.743,27.867 35.002,27.867 C35.002,27.867 35.804,27.867 35.804,27.867 C36.062,27.867 36.272,27.709 36.272,27.513 C36.272,27.319 36.062,27.161 35.804,27.161 C35.804,27.161 31.990,27.161 31.990,27.161 C31.731,27.161 31.521,27.003 31.521,26.807 C31.521,26.613 31.731,26.455 31.990,26.455 C31.990,26.455 32.892,26.455 32.892,26.455 C32.892,26.455 41.395,26.455 41.395,26.455 Z" id="path-1" class="cls-3" fill-rule="evenodd"/>
    <path d="M14.192,32.029 C14.192,32.029 10.078,32.029 10.078,32.029 C9.285,32.029 8.642,32.498 8.642,33.076 C8.642,33.655 9.285,34.124 10.078,34.124 C10.078,34.124 10.269,34.124 10.269,34.124 C11.062,34.124 11.706,34.593 11.706,35.171 C11.706,35.749 11.062,36.217 10.269,36.217 C10.269,36.217 1.426,36.217 1.426,36.217 C0.632,36.217 -0.011,36.686 -0.011,37.264 C-0.011,37.843 0.632,38.311 1.426,38.311 C1.426,38.311 12.054,38.311 12.054,38.311 C12.054,38.311 33.777,38.311 33.777,38.311 C34.571,38.311 35.214,37.843 35.214,37.264 C35.214,36.686 34.571,36.217 33.777,36.217 C33.777,36.217 31.323,36.217 31.323,36.217 C30.530,36.217 29.887,35.749 29.887,35.171 C29.887,34.593 30.530,34.124 31.323,34.124 C31.323,34.124 40.963,34.124 40.963,34.124 C41.757,34.124 42.399,33.655 42.399,33.076 C42.399,32.498 41.757,32.029 40.963,32.029 C40.963,32.029 40.244,32.029 40.244,32.029 C40.244,32.029 14.192,32.029 14.192,32.029 Z" id="path-2" class="cls-3" fill-rule="evenodd"/>
    <path d="M39.481,38.405 C38.923,38.405 38.470,38.074 38.470,37.665 C38.470,37.256 38.923,36.925 39.481,36.925 C39.481,36.925 42.582,36.925 42.582,36.925 C43.141,36.925 43.594,37.256 43.594,37.665 C43.594,38.074 43.141,38.405 42.582,38.405 C42.582,38.405 39.481,38.405 39.481,38.405 Z" id="path-3" class="cls-3" fill-rule="evenodd"/>
    <path d="M20.422,0.103 C20.159,-0.050 19.833,-0.050 19.570,0.103 C19.308,0.255 19.146,0.535 19.146,0.839 C19.146,0.839 19.146,33.788 19.146,33.788 C19.146,34.091 19.308,34.373 19.570,34.526 C19.703,34.600 19.850,34.638 19.996,34.638 C20.144,34.638 20.292,34.600 20.422,34.526 C20.422,34.526 48.957,18.049 48.957,18.049 C49.222,17.896 49.383,17.615 49.383,17.311 C49.383,17.007 49.222,16.727 48.957,16.573 C48.957,16.573 20.422,0.103 20.422,0.103 Z" id="path-4" class="cls-6" fill-rule="evenodd"/>
    <path d="M59.139,0.213 C59.139,0.213 50.629,0.213 50.629,0.213 C50.160,0.213 49.778,0.593 49.778,1.064 C49.778,1.064 49.778,33.399 49.778,33.399 C49.778,33.870 50.160,34.250 50.629,34.250 C50.629,34.250 59.139,34.250 59.139,34.250 C59.610,34.250 59.989,33.870 59.989,33.399 C59.989,33.399 59.989,1.064 59.989,1.064 C59.989,0.593 59.610,0.213 59.139,0.213 Z" id="path-5" class="cls-7" fill-rule="evenodd"/>
    <path d="M48.957,16.573 C48.957,16.573 47.296,15.614 47.296,15.614 C47.296,15.614 19.146,31.868 19.146,31.868 C19.146,31.868 19.146,33.788 19.146,33.788 C19.146,34.091 19.308,34.373 19.570,34.526 C19.703,34.600 19.850,34.638 19.996,34.638 C20.144,34.638 20.292,34.600 20.422,34.526 C20.422,34.526 48.957,18.050 48.957,18.050 C49.222,17.896 49.383,17.615 49.383,17.311 C49.383,17.007 49.222,16.727 48.957,16.573 Z" id="path-6" class="cls-8" fill-rule="evenodd"/>
    <path d="M59.139,0.213 C59.139,0.213 58.355,0.213 58.355,0.213 C58.355,0.213 58.355,30.948 58.355,30.948 C58.355,31.420 57.976,31.799 57.505,31.799 C57.505,31.799 49.778,31.799 49.778,31.799 C49.778,31.799 49.778,33.399 49.778,33.399 C49.778,33.870 50.160,34.250 50.629,34.250 C50.629,34.250 59.139,34.250 59.139,34.250 C59.610,34.250 59.989,33.870 59.989,33.399 C59.989,33.399 59.989,1.064 59.989,1.064 C59.989,0.593 59.610,0.213 59.139,0.213 Z" id="path-7" class="cls-8" fill-rule="evenodd"/>
  </g>
</svg>
