<svg xmlns="http://www.w3.org/2000/svg" xmlns:xlink="http://www.w3.org/1999/xlink" preserveAspectRatio="xMidYMid" width="61" height="57" viewBox="0 0 61 57">
  <defs>
    <style>

      .cls-3 {
        fill: #ff3a2f;
      }

      .cls-7 {
        fill: #0cb04a;
      }

      .cls-8 {
        fill: #000000;
        opacity: 0.35;
      }

      .cls-9 {
        fill: #fbb713;
      }

      .cls-10 {
        fill: #ededed;
      }

      .cls-15 {
        fill: #065926;
      }
    </style>
  </defs>
  <g id="group-245svg">
    <path d="M13.792,29.905 C13.792,29.905 15.724,29.905 15.724,29.905 C16.096,29.905 16.397,30.271 16.397,30.723 C16.397,31.175 16.096,31.541 15.724,31.541 C15.724,31.541 15.634,31.541 15.634,31.541 C15.261,31.541 14.959,31.907 14.959,32.359 C14.959,32.812 15.261,33.178 15.634,33.178 C15.634,33.178 19.784,33.178 19.784,33.178 C20.157,33.178 20.459,33.545 20.459,33.996 C20.459,34.448 20.157,34.815 19.784,34.815 C19.784,34.815 14.796,34.815 14.796,34.815 C14.796,34.815 4.600,34.815 4.600,34.815 C4.227,34.815 3.926,34.448 3.926,33.996 C3.926,33.545 4.227,33.178 4.600,33.178 C4.600,33.178 5.752,33.178 5.752,33.178 C6.124,33.178 6.426,32.812 6.426,32.359 C6.426,31.907 6.124,31.541 5.752,31.541 C5.752,31.541 1.228,31.541 1.228,31.541 C0.854,31.541 0.553,31.175 0.553,30.723 C0.553,30.271 0.854,29.905 1.228,29.905 C1.228,29.905 1.564,29.905 1.564,29.905 C1.564,29.905 13.792,29.905 13.792,29.905 Z" id="path-1" class="cls-3" fill-rule="evenodd"/>
    <path d="M1.923,34.889 C2.185,34.889 2.397,34.629 2.397,34.309 C2.397,33.990 2.185,33.731 1.923,33.731 C1.923,33.731 0.467,33.731 0.467,33.731 C0.205,33.731 -0.008,33.990 -0.008,34.309 C-0.008,34.629 0.205,34.889 0.467,34.889 C0.467,34.889 1.923,34.889 1.923,34.889 Z" id="path-2" class="cls-3" fill-rule="evenodd"/>
    <path d="M25.835,46.047 C25.835,46.047 21.313,46.047 21.313,46.047 C20.441,46.047 19.734,46.769 19.734,47.660 C19.734,48.551 20.441,49.273 21.313,49.273 C21.313,49.273 21.523,49.273 21.523,49.273 C22.395,49.273 23.103,49.995 23.103,50.886 C23.103,51.777 22.395,52.499 21.523,52.499 C21.523,52.499 11.804,52.499 11.804,52.499 C10.933,52.499 10.226,53.221 10.226,54.112 C10.226,55.003 10.933,55.725 11.804,55.725 C11.804,55.725 23.484,55.725 23.484,55.725 C23.484,55.725 47.359,55.725 47.359,55.725 C48.231,55.725 48.937,55.003 48.937,54.112 C48.937,53.221 48.231,52.499 47.359,52.499 C47.359,52.499 44.662,52.499 44.662,52.499 C43.790,52.499 43.083,51.777 43.083,50.886 C43.083,49.995 43.790,49.273 44.662,49.273 C44.662,49.273 55.257,49.273 55.257,49.273 C56.128,49.273 56.835,48.551 56.835,47.660 C56.835,46.769 56.128,46.047 55.257,46.047 C55.257,46.047 54.466,46.047 54.466,46.047 C54.466,46.047 25.835,46.047 25.835,46.047 Z" id="path-3" class="cls-3" fill-rule="evenodd"/>
    <path d="M53.628,55.870 C53.014,55.870 52.517,55.359 52.517,54.729 C52.517,54.098 53.014,53.588 53.628,53.588 C53.628,53.588 57.035,53.588 57.035,53.588 C57.649,53.588 58.147,54.098 58.147,54.729 C58.147,55.359 57.649,55.870 57.035,55.870 C57.035,55.870 53.628,55.870 53.628,55.870 Z" id="path-4" class="cls-3" fill-rule="evenodd"/>
    <path d="M54.820,18.691 C54.820,18.691 34.439,29.860 34.439,29.860 C27.804,33.496 19.698,28.695 19.698,21.129 C19.698,21.129 19.698,21.129 19.698,21.129 C19.698,17.492 21.681,14.144 24.869,12.397 C24.869,12.397 45.251,1.229 45.251,1.229 C51.886,-2.408 59.992,2.393 59.992,9.960 C59.992,9.960 59.992,9.960 59.992,9.960 C59.992,13.596 58.010,16.944 54.820,18.691 Z" id="path-5" class="cls-7" fill-rule="evenodd"/>
    <path d="M53.890,0.784 C55.673,2.546 56.819,4.999 56.819,7.845 C56.819,7.845 56.819,7.845 56.819,7.845 C56.819,11.481 54.837,14.829 51.648,16.576 C51.648,16.576 31.267,27.745 31.267,27.745 C28.404,29.314 25.270,29.306 22.628,28.189 C25.587,31.112 30.299,32.128 34.439,29.860 C34.439,29.860 54.820,18.691 54.820,18.691 C58.010,16.944 59.992,13.596 59.992,9.960 C59.992,9.960 59.992,9.960 59.992,9.960 C59.992,5.658 57.370,2.257 53.890,0.784 Z" id="path-6" class="cls-8" fill-rule="evenodd"/>
    <path d="M38.488,21.535 C38.488,26.724 34.282,30.930 29.093,30.930 C23.904,30.930 19.698,26.724 19.698,21.535 C19.698,16.346 23.904,12.139 29.093,12.139 C34.282,12.139 38.488,16.346 38.488,21.535 Z" id="path-7" class="cls-9" fill-rule="evenodd"/>
    <path d="M34.683,21.535 C34.683,24.622 32.180,27.124 29.093,27.124 C26.006,27.124 23.504,24.622 23.504,21.535 C23.504,18.448 26.006,15.946 29.093,15.946 C32.180,15.946 34.683,18.448 34.683,21.535 Z" id="path-8" class="cls-10" fill-rule="evenodd"/>
    <path d="M31.208,15.946 C30.846,15.946 30.494,15.987 30.150,16.052 C32.730,16.547 34.683,18.811 34.683,21.535 C34.683,24.260 32.730,26.522 30.150,27.018 C30.494,27.084 30.846,27.124 31.208,27.124 C34.295,27.124 36.798,24.622 36.798,21.535 C36.798,18.448 34.295,15.946 31.208,15.946 Z" id="path-9" class="cls-8" fill-rule="evenodd"/>
    <path d="M45.354,39.982 C45.354,42.623 40.020,44.764 33.439,44.764 C26.859,44.764 21.525,42.623 21.525,39.982 C21.525,37.341 26.859,35.200 33.439,35.200 C40.020,35.200 45.354,37.341 45.354,39.982 Z" id="path-10" class="cls-9" fill-rule="evenodd"/>
    <path d="M42.345,39.982 C42.345,41.956 38.358,43.556 33.439,43.556 C28.521,43.556 24.535,41.956 24.535,39.982 C24.535,38.008 28.521,36.408 33.439,36.408 C38.358,36.408 42.345,38.008 42.345,39.982 Z" id="path-11" class="cls-10" fill-rule="evenodd"/>
    <path d="M33.439,34.960 C26.529,34.960 20.927,37.208 20.927,39.982 C20.927,39.982 20.927,44.525 20.927,44.525 C21.163,50.339 46.205,50.489 45.953,44.525 C45.953,44.525 45.953,39.982 45.953,39.982 C45.953,37.208 40.351,34.960 33.439,34.960 ZM33.439,44.764 C26.859,44.764 21.525,42.623 21.525,39.982 C21.525,37.341 26.859,35.200 33.439,35.200 C40.020,35.200 45.354,37.341 45.354,39.982 C45.354,42.623 40.020,44.764 33.439,44.764 Z" id="path-12" class="cls-7" fill-rule="evenodd"/>
    <path d="M33.439,34.960 C26.529,34.960 20.927,37.208 20.927,39.982 C20.927,39.982 20.927,44.525 20.927,44.525 C21.163,50.339 46.205,50.489 45.953,44.525 C45.953,44.525 45.953,39.982 45.953,39.982 C45.953,37.208 40.351,34.960 33.439,34.960 ZM33.439,44.764 C26.859,44.764 21.525,42.623 21.525,39.982 C21.525,37.341 26.859,35.200 33.439,35.200 C40.020,35.200 45.354,37.341 45.354,39.982 C45.354,42.623 40.020,44.764 33.439,44.764 Z" id="path-13" class="cls-15" fill-rule="evenodd"/>
    <path d="M18.423,24.187 C18.423,25.880 15.006,27.252 10.790,27.252 C6.573,27.252 3.156,25.880 3.156,24.187 C3.156,22.495 6.573,21.123 10.790,21.123 C15.006,21.123 18.423,22.495 18.423,24.187 Z" id="path-14" class="cls-9" fill-rule="evenodd"/>
    <path d="M16.495,24.187 C16.495,25.452 13.940,26.477 10.790,26.477 C7.639,26.477 5.084,25.452 5.084,24.187 C5.084,22.923 7.639,21.897 10.790,21.897 C13.940,21.897 16.495,22.923 16.495,24.187 Z" id="path-15" class="cls-10" fill-rule="evenodd"/>
    <path d="M10.790,20.969 C6.362,20.969 2.772,22.410 2.772,24.187 C2.772,24.187 2.772,27.098 2.772,27.098 C2.924,30.823 18.969,30.920 18.807,27.098 C18.807,27.098 18.807,24.187 18.807,24.187 C18.807,22.410 15.217,20.969 10.790,20.969 ZM10.790,27.252 C6.573,27.252 3.156,25.880 3.156,24.187 C3.156,22.495 6.573,21.123 10.790,21.123 C15.006,21.123 18.423,22.495 18.423,24.187 C18.423,25.880 15.006,27.252 10.790,27.252 Z" id="path-16" class="cls-7" fill-rule="evenodd"/>
    <path d="M10.790,20.969 C6.362,20.969 2.772,22.410 2.772,24.187 C2.772,24.187 2.772,27.098 2.772,27.098 C2.924,30.823 18.969,30.920 18.807,27.098 C18.807,27.098 18.807,24.187 18.807,24.187 C18.807,22.410 15.217,20.969 10.790,20.969 ZM10.790,27.252 C6.573,27.252 3.156,25.880 3.156,24.187 C3.156,22.495 6.573,21.123 10.790,21.123 C15.006,21.123 18.423,22.495 18.423,24.187 C18.423,25.880 15.006,27.252 10.790,27.252 Z" id="path-17" class="cls-15" fill-rule="evenodd"/>
  </g>
</svg>
