<svg xmlns="http://www.w3.org/2000/svg" xmlns:xlink="http://www.w3.org/1999/xlink" preserveAspectRatio="xMidYMid" width="60" height="45" viewBox="0 0 60 45">
  <defs>
    <style>

      .cls-3 {
        fill: #ff3a2f;
      }

      .cls-5 {
        fill: #fbb713;
      }

      .cls-6 {
        fill: #ffffff;
      }

      .cls-7 {
        fill: #020403;
        opacity: 0.25;
      }

      .cls-8 {
        fill: #020403;
        opacity: 0.35;
      }

      .cls-10 {
        fill: #142a3b;
      }

      .cls-11 {
        fill: #2476ff;
      }
    </style>
  </defs>
  <g id="group-142svg">
    <path d="M7.725,43.253 C8.773,43.253 9.622,42.715 9.622,42.051 C9.622,41.387 8.773,40.849 7.725,40.849 C7.725,40.849 1.909,40.849 1.909,40.849 C0.860,40.849 0.011,41.387 0.011,42.051 C0.011,42.715 0.860,43.253 1.909,43.253 C1.909,43.253 7.725,43.253 7.725,43.253 Z" id="path-1" class="cls-3" fill-rule="evenodd"/>
    <path d="M38.962,35.000 C38.962,35.000 44.765,35.000 44.765,35.000 C44.765,35.000 51.218,35.000 51.218,35.000 C51.861,35.000 52.383,35.358 52.383,36.000 C52.383,36.641 51.861,37.000 51.218,37.000 C51.218,37.000 44.414,37.000 44.414,37.000 C43.770,37.000 43.249,37.858 43.249,38.500 C43.249,39.141 43.770,40.000 44.414,40.000 C44.414,40.000 47.271,40.000 47.271,40.000 C47.271,40.000 52.393,40.000 52.393,40.000 C52.393,40.000 58.847,40.000 58.847,40.000 C59.490,40.000 60.011,40.358 60.011,41.000 C60.011,41.642 59.490,42.000 58.847,42.000 C58.847,42.000 52.042,42.000 52.042,42.000 C51.593,42.000 51.204,42.967 51.010,43.381 C50.862,43.694 50.496,44.206 50.076,44.205 C44.639,44.204 30.285,45.235 29.903,43.749 C29.618,42.637 19.448,42.000 18.855,42.000 C18.855,42.000 12.050,42.000 12.050,42.000 C11.407,42.000 10.886,41.642 10.886,41.000 C10.886,40.358 11.407,40.000 12.050,40.000 C12.050,40.000 18.503,40.000 18.503,40.000 C18.503,40.000 23.625,40.000 23.625,40.000 C23.625,40.000 26.483,40.000 26.483,40.000 C27.126,40.000 27.647,39.141 27.647,38.500 C27.647,37.858 27.126,37.000 26.483,37.000 C26.483,37.000 19.678,37.000 19.678,37.000 C19.035,37.000 18.514,36.641 18.514,36.000 C18.514,35.358 19.035,35.000 19.678,35.000 C19.678,35.000 26.132,35.000 26.132,35.000 C26.132,35.000 28.331,35.000 28.331,35.000 C28.331,35.000 38.962,35.000 38.962,35.000 Z" id="path-2" class="cls-3" fill-rule="evenodd"/>
    <path d="M10.959,9.000 C8.744,12.000 7.453,15.600 7.453,19.915 C7.453,26.220 10.207,33.000 14.577,35.000 C14.577,35.000 42.698,35.000 42.698,35.000 C47.068,33.000 49.822,26.220 49.822,19.915 C49.822,15.600 48.531,12.000 46.316,9.000 C46.316,9.000 10.959,9.000 10.959,9.000 Z" id="path-3" class="cls-5" fill-rule="evenodd"/>
    <path d="M14.074,32.314 C13.730,32.314 13.395,32.136 13.209,31.818 C11.317,28.569 10.275,24.584 10.275,20.597 C10.275,18.575 10.542,16.590 11.069,14.700 C11.218,14.168 11.770,13.858 12.301,14.006 C12.833,14.154 13.144,14.705 12.996,15.237 C12.518,16.952 12.275,18.756 12.275,20.597 C12.275,24.236 13.221,27.863 14.937,30.810 C15.215,31.288 15.054,31.901 14.577,32.179 C14.418,32.270 14.245,32.314 14.074,32.314 Z" id="path-4" class="cls-6" fill-rule="evenodd"/>
    <path d="M46.294,9.000 C46.294,9.000 42.742,9.000 42.742,9.000 C44.194,11.605 45.044,14.967 45.044,18.340 C45.044,24.531 42.290,30.712 37.920,33.527 C37.920,33.527 12.337,33.527 12.337,33.527 C13.025,34.252 13.773,34.482 14.577,35.000 C14.577,35.000 42.698,35.000 42.698,35.000 C47.250,32.542 49.822,26.408 49.822,20.218 C49.822,15.979 48.510,11.815 46.294,9.000 Z" id="path-5" class="cls-7" fill-rule="evenodd"/>
    <path d="M21.940,25.790 C21.940,25.790 18.060,25.790 18.060,25.790 C18.060,25.790 18.060,27.701 18.060,27.701 C18.060,27.701 23.167,27.701 23.167,27.701 C22.684,27.176 22.266,26.548 21.940,25.790 Z" id="path-6" class="cls-8" fill-rule="evenodd"/>
    <path d="M40.166,21.012 C40.166,21.012 40.166,25.790 40.166,25.790 C40.166,25.790 35.207,25.790 35.207,25.790 C33.973,28.657 31.495,29.780 28.638,29.780 C27.100,29.780 25.680,29.440 24.497,28.692 C25.837,30.831 28.047,31.691 30.549,31.691 C33.406,31.691 35.884,30.568 37.119,27.701 C37.119,27.701 42.078,27.701 42.078,27.701 C42.078,27.701 42.078,21.012 42.078,21.012 C42.078,21.012 40.166,21.012 40.166,21.012 Z" id="path-7" class="cls-8" fill-rule="evenodd"/>
    <path d="M40.375,19.000 C40.375,19.000 35.207,19.000 35.207,19.000 C33.973,18.000 31.495,15.009 28.638,15.009 C25.780,15.009 23.302,18.000 22.068,19.000 C22.068,19.000 15.375,19.000 15.375,19.000 C15.375,19.000 15.375,26.000 15.375,26.000 C15.375,26.000 22.068,26.000 22.068,26.000 C23.302,29.000 25.780,29.990 28.638,29.990 C31.495,29.990 33.973,29.000 35.207,26.000 C35.207,26.000 40.375,26.000 40.375,26.000 C40.375,26.000 40.375,19.000 40.375,19.000 Z" id="path-8" class="cls-10" fill-rule="evenodd"/>
    <path d="M46.294,4.959 C46.294,4.959 44.175,5.000 46.294,9.000 C46.294,9.000 10.886,9.000 10.886,9.000 C13.005,5.000 10.886,4.864 10.886,4.864 C10.886,4.864 46.294,4.959 46.294,4.959 Z" id="path-9" class="cls-11" fill-rule="evenodd"/>
    <path d="M45.978,4.936 C45.978,4.936 11.275,4.936 11.275,4.936 C11.275,4.936 11.905,5.556 11.871,6.849 C11.871,6.849 43.475,6.866 43.475,6.866 C43.475,6.866 42.310,7.451 42.576,9.000 C42.576,9.000 46.342,9.000 46.342,9.000 C44.223,6.133 45.978,4.936 45.978,4.936 Z" id="path-10" class="cls-8" fill-rule="evenodd"/>
    <path d="M49.375,5.000 C49.375,5.000 7.375,5.000 7.375,5.000 C7.375,5.000 7.375,-0.000 7.375,-0.000 C7.375,-0.000 49.375,-0.000 49.375,-0.000 C49.375,-0.000 49.375,5.000 49.375,5.000 Z" id="path-11" class="cls-10" fill-rule="evenodd"/>
    <path d="M41.872,-0.000 C41.872,-0.000 41.872,5.000 41.872,5.000 C41.872,5.000 49.375,5.000 49.375,5.000 C49.375,5.000 49.375,-0.000 49.375,-0.000 C49.375,-0.000 41.872,-0.000 41.872,-0.000 Z" id="path-12" class="cls-8" fill-rule="evenodd"/>
  </g>
</svg>
