<svg xmlns="http://www.w3.org/2000/svg" xmlns:xlink="http://www.w3.org/1999/xlink" preserveAspectRatio="xMidYMid" width="51" height="60" viewBox="0 0 51 60">
  <defs>
    <style>

      .cls-3 {
        fill: #ff3a2f;
      }

      .cls-5 {
        fill: #142a3b;
      }

      .cls-6 {
        fill: #000000;
        opacity: 0.35;
      }

      .cls-7 {
        fill: #ededed;
      }

      .cls-8 {
        fill: #fbb713;
      }
    </style>
  </defs>
  <g id="group-241svg">
    <path d="M22.114,51.116 C22.114,51.116 18.927,51.116 18.927,51.116 C18.312,51.116 17.814,51.768 17.814,52.572 C17.814,53.376 18.312,54.028 18.927,54.028 C18.927,54.028 19.075,54.028 19.075,54.028 C19.690,54.028 20.188,54.680 20.188,55.484 C20.188,56.288 19.690,56.940 19.075,56.940 C19.075,56.940 12.224,56.940 12.224,56.940 C11.609,56.940 11.111,57.592 11.111,58.396 C11.111,59.200 11.609,59.852 12.224,59.852 C12.224,59.852 20.458,59.852 20.458,59.852 C20.458,59.852 37.288,59.852 37.288,59.852 C37.902,59.852 38.401,59.200 38.401,58.396 C38.401,57.592 37.902,56.940 37.288,56.940 C37.288,56.940 35.387,56.940 35.387,56.940 C34.772,56.940 34.273,56.288 34.273,55.484 C34.273,54.680 34.772,54.028 35.387,54.028 C35.387,54.028 42.855,54.028 42.855,54.028 C43.470,54.028 43.968,53.376 43.968,52.572 C43.968,51.768 43.470,51.116 42.855,51.116 C42.855,51.116 42.298,51.116 42.298,51.116 C42.298,51.116 22.114,51.116 22.114,51.116 Z" id="path-1" class="cls-3" fill-rule="evenodd"/>
    <path d="M41.707,59.983 C41.274,59.983 40.924,59.522 40.924,58.954 C40.924,58.384 41.274,57.924 41.707,57.924 C41.707,57.924 44.109,57.924 44.109,57.924 C44.542,57.924 44.894,58.384 44.894,58.954 C44.894,59.522 44.542,59.983 44.109,59.983 C44.109,59.983 41.707,59.983 41.707,59.983 Z" id="path-2" class="cls-3" fill-rule="evenodd"/>
    <path d="M28.429,53.797 C28.429,53.797 0.011,53.797 0.011,53.797 C0.011,53.797 0.011,13.975 0.011,13.975 C0.011,13.975 28.429,13.975 28.429,13.975 C28.429,13.975 28.429,53.797 28.429,53.797 Z" id="path-3" class="cls-5" fill-rule="evenodd"/>
    <path d="M24.609,13.975 C24.609,13.975 24.609,53.797 24.609,53.797 C24.609,53.797 28.429,53.797 28.429,53.797 C28.429,53.797 28.429,13.975 28.429,13.975 C28.429,13.975 24.609,13.975 24.609,13.975 Z" id="path-4" class="cls-6" fill-rule="evenodd"/>
    <path d="M22.811,38.964 C22.811,43.714 18.965,47.563 14.220,47.563 C9.475,47.563 5.628,43.714 5.628,38.964 C5.628,34.214 9.475,30.365 14.220,30.365 C18.965,30.365 22.811,34.214 22.811,38.964 Z" id="path-5" class="cls-7" fill-rule="evenodd"/>
    <path d="M18.516,38.964 C18.516,41.339 16.592,43.264 14.220,43.264 C11.847,43.264 9.924,41.339 9.924,38.964 C9.924,36.589 11.847,34.664 14.220,34.664 C16.592,34.664 18.516,36.589 18.516,38.964 Z" id="path-6" class="cls-8" fill-rule="evenodd"/>
    <path d="M17.688,36.447 C18.203,37.156 18.516,38.021 18.516,38.964 C18.516,41.339 16.592,43.264 14.220,43.264 C13.277,43.264 12.413,42.951 11.705,42.436 C12.485,43.513 13.744,44.220 15.174,44.220 C17.547,44.220 19.470,42.294 19.470,39.920 C19.470,38.488 18.764,37.228 17.688,36.447 Z" id="path-7" class="cls-6" fill-rule="evenodd"/>
    <path d="M16.924,19.854 C16.924,21.349 15.713,22.561 14.220,22.561 C12.726,22.561 11.515,21.349 11.515,19.854 C11.515,18.359 12.726,17.146 14.220,17.146 C15.713,17.146 16.924,18.359 16.924,19.854 Z" id="path-8" class="cls-7" fill-rule="evenodd"/>
    <path d="M49.906,38.000 C49.353,38.000 48.906,37.552 48.906,37.000 C48.906,37.000 48.906,25.000 48.906,25.000 C48.906,25.000 40.906,25.000 40.906,25.000 C40.906,25.000 40.906,2.000 40.906,2.000 C40.906,2.000 14.906,2.000 14.906,2.000 C14.906,2.000 14.906,14.000 14.906,14.000 C14.906,14.552 14.459,15.000 13.906,15.000 C13.353,15.000 12.906,14.552 12.906,14.000 C12.906,14.000 12.906,-0.000 12.906,-0.000 C12.906,-0.000 42.906,-0.000 42.906,-0.000 C42.906,-0.000 42.906,23.000 42.906,23.000 C42.906,23.000 50.906,23.000 50.906,23.000 C50.906,23.000 50.906,37.000 50.906,37.000 C50.906,37.552 50.459,38.000 49.906,38.000 Z" id="path-9" class="cls-5" fill-rule="evenodd"/>
    <path d="M35.906,44.000 C35.353,44.000 34.906,43.552 34.906,43.000 C34.906,43.000 34.906,23.000 34.906,23.000 C34.906,23.000 41.906,23.000 41.906,23.000 C42.459,23.000 42.906,23.447 42.906,24.000 C42.906,24.552 42.459,25.000 41.906,25.000 C41.906,25.000 36.906,25.000 36.906,25.000 C36.906,25.000 36.906,43.000 36.906,43.000 C36.906,43.552 36.459,44.000 35.906,44.000 Z" id="path-10" class="cls-5" fill-rule="evenodd"/>
    <path d="M40.906,47.000 C40.906,47.000 34.906,47.000 34.906,47.000 C34.906,47.000 34.906,37.000 34.906,37.000 C34.906,37.000 40.906,37.000 40.906,37.000 C40.906,37.000 40.906,47.000 40.906,47.000 ZM36.906,45.000 C36.906,45.000 38.906,45.000 38.906,45.000 C38.906,45.000 38.906,39.000 38.906,39.000 C38.906,39.000 36.906,39.000 36.906,39.000 C36.906,39.000 36.906,45.000 36.906,45.000 Z" id="path-11" class="cls-5" fill-rule="evenodd"/>
    <path d="M50.906,47.000 C50.906,47.000 44.906,47.000 44.906,47.000 C44.906,47.000 44.906,37.000 44.906,37.000 C44.906,37.000 50.906,37.000 50.906,37.000 C50.906,37.000 50.906,47.000 50.906,47.000 ZM46.906,45.000 C46.906,45.000 48.906,45.000 48.906,45.000 C48.906,45.000 48.906,39.000 48.906,39.000 C48.906,39.000 46.906,39.000 46.906,39.000 C46.906,39.000 46.906,45.000 46.906,45.000 Z" id="path-12" class="cls-5" fill-rule="evenodd"/>
  </g>
</svg>
