<svg xmlns="http://www.w3.org/2000/svg" xmlns:xlink="http://www.w3.org/1999/xlink" preserveAspectRatio="xMidYMid" width="60" height="58" viewBox="0 0 60 58">
  <defs>
    <style>

      .cls-3 {
        fill: #020403;
      }

      .cls-4 {
        fill: #ff3a2f;
      }

      .cls-5 {
        fill: #ffffff;
      }

      .cls-6 {
        fill: #020403;
        opacity: 0.25;
      }

      .cls-7 {
        fill: #fbb713;
      }
    </style>
  </defs>
  <g id="group-62svg">
    <path d="M27.146,10.808 C27.145,10.823 27.143,10.837 27.142,10.851 C27.165,10.866 27.190,10.877 27.214,10.892 C27.190,10.865 27.169,10.835 27.146,10.808 Z" id="path-1" class="cls-3" fill-rule="evenodd"/>
    <path d="M45.783,22.867 C45.584,22.769 45.378,22.702 45.170,22.658 C45.370,22.318 45.562,21.967 45.745,21.600 C46.379,20.320 45.855,18.768 44.575,18.134 C44.497,18.095 44.418,18.061 44.338,18.031 C44.423,17.885 44.513,17.745 44.594,17.595 C45.275,16.339 44.810,14.768 43.555,14.087 C43.385,13.994 43.208,13.924 43.028,13.873 C43.118,13.747 43.208,13.629 43.296,13.497 C44.086,12.307 43.760,10.701 42.570,9.912 C42.277,9.718 41.960,9.592 41.635,9.528 C41.740,9.314 41.842,9.092 41.940,8.859 C42.493,7.545 41.878,6.030 40.566,5.474 C40.216,5.118 39.767,4.852 39.245,4.729 C39.245,4.729 37.906,4.412 37.906,4.412 C37.906,4.412 37.867,4.403 37.803,4.392 C37.739,4.381 37.647,4.365 37.530,4.345 C37.418,4.325 37.287,4.301 37.147,4.273 C37.009,4.245 36.859,4.212 36.717,4.172 C36.575,4.133 36.198,3.871 36.134,3.591 C36.121,3.508 36.114,3.425 36.113,3.338 C36.110,2.998 36.201,2.640 36.361,2.350 C36.520,2.055 36.736,1.823 36.952,1.650 C37.167,1.477 37.383,1.363 37.564,1.293 C37.746,1.221 37.895,1.191 37.995,1.180 C38.096,1.167 38.145,1.174 38.140,1.173 C38.319,1.192 38.480,1.063 38.501,0.883 C38.520,0.704 37.740,0.437 37.519,0.384 C37.299,0.333 37.025,0.266 36.687,0.192 C36.355,0.121 35.963,0.048 35.486,-0.001 C35.477,-0.002 35.469,-0.003 35.460,-0.004 C34.975,-0.046 34.392,-0.063 33.744,0.061 C33.584,0.092 33.418,0.131 33.251,0.180 C33.082,0.227 32.917,0.290 32.747,0.358 C32.582,0.431 32.413,0.510 32.251,0.603 C32.171,0.649 32.089,0.697 32.011,0.749 C31.931,0.802 31.853,0.857 31.778,0.914 C31.162,1.369 30.674,1.997 30.357,2.661 C30.357,2.661 30.299,2.787 30.299,2.787 C30.299,2.787 30.295,2.795 30.295,2.795 C30.298,2.785 30.258,2.908 30.273,2.858 C30.273,2.858 30.270,2.868 30.270,2.868 C30.270,2.868 30.260,2.888 30.260,2.888 C30.260,2.888 30.241,2.926 30.241,2.926 C30.241,2.926 30.203,3.004 30.203,3.004 C30.203,3.004 30.140,3.178 30.140,3.178 C30.140,3.178 30.081,3.353 30.081,3.353 C30.081,3.353 30.031,3.505 30.031,3.505 C29.998,3.606 29.970,3.714 29.943,3.823 C29.835,4.255 29.762,4.743 29.766,5.272 C29.763,5.799 29.847,6.375 30.022,6.937 C30.201,7.499 30.477,8.047 30.819,8.516 C30.924,8.660 31.035,8.795 31.148,8.925 C30.738,8.657 30.253,8.496 29.727,8.496 C28.285,8.496 27.115,9.666 27.115,11.109 C27.115,11.929 27.496,12.658 28.088,13.137 C26.832,13.327 25.869,14.407 25.869,15.716 C25.869,16.571 26.281,17.329 26.916,17.805 C25.611,17.950 24.597,19.055 24.597,20.400 C24.597,21.134 24.904,21.792 25.392,22.266 C24.108,22.430 23.114,23.525 23.114,24.854 C23.114,25.831 23.652,26.680 24.445,27.128 C24.146,28.086 24.740,28.878 25.761,29.522 C25.761,29.522 35.486,29.522 35.486,29.522 C35.486,29.522 45.212,29.522 45.212,29.522 C45.212,29.542 45.211,29.561 45.211,29.580 C45.865,28.853 46.450,27.993 46.960,26.965 C47.595,25.684 47.064,23.503 45.783,22.867 Z" id="path-2" class="cls-4" fill-rule="evenodd"/>
    <path d="M27.395,28.128 C27.229,28.128 27.061,28.086 26.905,27.999 C25.770,27.358 25.065,26.153 25.065,24.854 C25.065,23.556 25.761,22.399 26.815,21.761 C26.640,21.334 26.548,20.874 26.548,20.400 C26.548,19.129 27.204,18.001 28.211,17.356 C27.957,16.857 27.820,16.299 27.820,15.716 C27.820,14.459 28.450,13.348 29.437,12.701 C29.195,12.212 29.066,11.670 29.066,11.109 C29.066,10.557 29.514,10.109 30.066,10.109 C30.619,10.109 31.066,10.557 31.066,11.109 C31.066,11.594 31.286,12.050 31.668,12.359 C31.668,12.359 33.431,13.785 33.431,13.785 C33.431,13.785 31.189,14.125 31.189,14.125 C30.409,14.243 29.820,14.927 29.820,15.716 C29.820,16.227 30.056,16.696 30.467,17.005 C30.467,17.005 32.487,18.520 32.487,18.520 C32.487,18.520 29.978,18.799 29.978,18.799 C29.162,18.889 28.548,19.578 28.548,20.400 C28.548,20.831 28.723,21.240 29.040,21.550 C29.040,21.550 30.524,22.995 30.524,22.995 C30.524,22.995 28.470,23.258 28.470,23.258 C27.669,23.360 27.065,24.047 27.065,24.854 C27.065,25.433 27.381,25.970 27.888,26.257 C28.369,26.528 28.539,27.139 28.267,27.619 C28.083,27.945 27.744,28.128 27.395,28.128 Z" id="path-3" class="cls-5" fill-rule="evenodd"/>
    <path d="M45.783,22.867 C45.584,22.769 45.378,22.702 45.170,22.658 C45.370,22.317 45.562,21.967 45.745,21.600 C46.379,20.320 45.855,18.768 44.575,18.134 C44.497,18.095 44.418,18.061 44.338,18.031 C44.423,17.885 44.513,17.745 44.594,17.595 C45.275,16.339 44.810,14.768 43.555,14.087 C43.385,13.994 43.208,13.924 43.028,13.873 C43.118,13.747 43.208,13.629 43.296,13.497 C44.086,12.307 43.760,10.701 42.570,9.912 C42.277,9.718 41.960,9.592 41.635,9.528 C41.740,9.314 41.842,9.092 41.940,8.859 C42.493,7.545 41.878,6.030 40.566,5.474 C40.216,5.118 39.767,4.852 39.245,4.729 C39.245,4.729 37.906,4.412 37.906,4.412 C37.906,4.412 37.867,4.403 37.803,4.392 C37.739,4.381 37.647,4.365 37.530,4.345 C37.418,4.325 37.287,4.301 37.147,4.273 C37.009,4.245 36.859,4.212 36.717,4.172 C36.575,4.133 36.198,3.871 36.134,3.591 C36.121,3.508 36.114,3.424 36.113,3.338 C36.110,2.998 36.201,2.640 36.361,2.350 C36.520,2.055 36.736,1.823 36.952,1.650 C37.167,1.477 37.383,1.363 37.564,1.293 C37.746,1.221 37.895,1.191 37.995,1.180 C38.096,1.167 38.145,1.174 38.140,1.173 C38.319,1.192 38.480,1.063 38.501,0.883 C38.520,0.704 37.740,0.436 37.519,0.384 C37.299,0.333 37.025,0.266 36.687,0.192 C36.355,0.121 35.963,0.047 35.486,-0.001 C35.477,-0.002 35.469,-0.003 35.460,-0.004 C34.975,-0.046 34.392,-0.063 33.744,0.061 C33.584,0.092 33.418,0.131 33.251,0.180 C33.082,0.227 32.917,0.290 32.747,0.358 C32.582,0.431 32.413,0.510 32.251,0.603 C32.171,0.649 32.089,0.697 32.011,0.749 C31.931,0.802 31.853,0.857 31.778,0.914 C31.394,1.197 31.068,1.551 30.794,1.935 C31.055,1.933 31.303,1.943 31.525,1.963 C31.535,1.964 31.543,1.966 31.553,1.967 C32.028,2.015 32.421,2.089 32.752,2.160 C33.091,2.233 33.364,2.300 33.585,2.351 C33.806,2.403 34.586,2.671 34.566,2.851 C34.546,3.030 34.385,3.160 34.205,3.140 C34.210,3.140 34.161,3.134 34.061,3.146 C33.961,3.158 33.812,3.188 33.630,3.260 C33.448,3.330 33.232,3.444 33.017,3.618 C32.802,3.789 32.586,4.022 32.428,4.317 C32.267,4.608 32.176,4.966 32.179,5.305 C32.181,5.392 32.186,5.475 32.199,5.559 C32.265,5.837 32.641,6.100 32.782,6.138 C32.925,6.179 33.074,6.212 33.213,6.240 C33.352,6.268 33.483,6.292 33.596,6.312 C33.713,6.332 33.805,6.348 33.868,6.359 C33.934,6.371 33.972,6.379 33.972,6.379 C33.972,6.379 35.311,6.696 35.311,6.696 C35.832,6.819 36.281,7.086 36.632,7.441 C37.943,7.998 38.559,9.511 38.006,10.826 C37.907,11.059 37.806,11.281 37.700,11.495 C38.025,11.559 38.343,11.685 38.636,11.879 C39.826,12.669 40.151,14.274 39.361,15.464 C39.273,15.596 39.184,15.714 39.095,15.840 C39.273,15.891 39.450,15.961 39.620,16.053 C40.876,16.735 41.341,18.306 40.659,19.562 C40.578,19.712 40.488,19.852 40.403,19.998 C40.483,20.029 40.562,20.063 40.641,20.102 C41.921,20.735 42.444,22.287 41.810,23.568 C41.629,23.934 41.436,24.284 41.236,24.625 C41.444,24.669 41.649,24.737 41.849,24.835 C43.130,25.470 43.660,27.651 43.025,28.932 C42.924,29.137 42.816,29.330 42.709,29.522 C42.709,29.522 45.212,29.522 45.212,29.522 C45.212,29.542 45.211,29.561 45.211,29.580 C45.865,28.853 46.450,27.993 46.960,26.965 C47.595,25.684 47.064,23.503 45.783,22.867 Z" id="path-4" class="cls-6" fill-rule="evenodd"/>
    <path d="M35.486,29.522 C35.486,29.522 25.761,29.522 25.761,29.522 C25.761,32.682 26.535,35.435 29.571,36.869 C29.571,36.869 31.046,50.908 31.046,50.908 C31.046,50.908 31.089,50.908 31.089,50.908 C31.089,52.650 33.058,54.063 35.486,54.063 C37.915,54.063 39.885,52.650 39.885,50.908 C39.885,50.908 39.928,50.908 39.928,50.908 C39.928,50.908 41.416,36.731 41.416,36.731 C44.208,35.271 45.198,32.617 45.211,29.580 C45.211,29.561 45.212,29.542 45.212,29.522 C45.212,29.522 35.486,29.522 35.486,29.522 Z" id="path-5" class="cls-7" fill-rule="evenodd"/>
    <path d="M34.040,51.908 C34.040,51.908 33.156,51.908 33.156,51.908 C33.156,51.908 33.005,51.031 33.005,51.031 C33.005,51.031 31.177,36.259 31.177,36.259 C28.644,35.507 27.552,33.795 27.552,30.662 C27.552,30.110 27.999,29.662 28.552,29.662 C29.104,29.662 29.552,30.110 29.552,30.662 C29.552,33.401 30.475,34.096 32.291,34.478 C32.291,34.478 32.989,34.625 32.989,34.625 C32.989,34.625 34.966,50.592 34.966,50.592 C35.000,50.692 35.019,50.798 35.019,50.908 C35.019,51.460 34.593,51.908 34.040,51.908 Z" id="path-6" class="cls-5" fill-rule="evenodd"/>
    <path d="M42.261,29.522 C42.261,29.542 42.260,29.561 42.260,29.580 C42.248,32.617 41.258,35.271 38.466,36.731 C38.466,36.731 36.977,50.908 36.977,50.908 C36.977,50.908 36.934,50.908 36.934,50.908 C36.934,52.277 35.711,53.431 34.011,53.868 C34.475,53.986 34.967,54.063 35.486,54.063 C37.915,54.063 39.885,52.650 39.885,50.908 C39.885,50.908 39.928,50.908 39.928,50.908 C39.928,50.908 41.416,36.731 41.416,36.731 C44.208,35.271 45.198,32.617 45.211,29.580 C45.211,29.561 45.212,29.542 45.212,29.522 C45.212,29.522 42.261,29.522 42.261,29.522 Z" id="path-7" class="cls-6" fill-rule="evenodd"/>
    <path d="M31.894,50.994 C31.894,50.994 36.161,50.994 36.161,50.994 C36.984,50.994 37.651,51.417 37.651,51.939 C37.651,52.460 36.984,52.882 36.161,52.882 C36.161,52.882 35.963,52.882 35.963,52.882 C35.140,52.882 34.473,53.306 34.473,53.827 C34.473,54.348 35.140,54.771 35.963,54.771 C35.963,54.771 45.139,54.771 45.139,54.771 C45.961,54.771 46.628,55.193 46.628,55.715 C46.628,56.237 45.961,56.659 45.139,56.659 C45.139,56.659 34.111,56.659 34.111,56.659 C34.111,56.659 21.992,56.659 21.992,56.659 C21.170,56.659 20.503,56.237 20.503,55.715 C20.503,55.193 21.170,54.771 21.992,54.771 C21.992,54.771 24.539,54.771 24.539,54.771 C25.362,54.771 26.029,54.348 26.029,53.827 C26.029,53.306 25.362,52.882 24.539,52.882 C24.539,52.882 12.420,52.882 12.420,52.882 C11.598,52.882 10.930,52.460 10.930,51.939 C10.930,51.417 11.598,50.994 12.420,50.994 C12.420,50.994 15.284,50.994 15.284,50.994 C15.284,50.994 31.894,50.994 31.894,50.994 Z" id="path-8" class="cls-4" fill-rule="evenodd"/>
    <path d="M6.762,42.092 C6.762,42.092 8.136,42.092 8.136,42.092 C8.400,42.092 8.615,42.324 8.615,42.611 C8.615,42.897 8.400,43.129 8.136,43.129 C8.136,43.129 8.071,43.129 8.071,43.129 C7.807,43.129 7.592,43.361 7.592,43.647 C7.592,43.934 7.807,44.166 8.071,44.166 C8.071,44.166 11.025,44.166 11.025,44.166 C11.291,44.166 11.505,44.399 11.505,44.685 C11.505,44.971 11.291,45.204 11.025,45.204 C11.025,45.204 7.476,45.204 7.476,45.204 C7.476,45.204 3.573,45.204 3.573,45.204 C3.309,45.204 3.094,44.971 3.094,44.685 C3.094,44.399 3.309,44.166 3.573,44.166 C3.573,44.166 4.394,44.166 4.394,44.166 C4.658,44.166 4.873,43.934 4.873,43.647 C4.873,43.361 4.658,43.129 4.394,43.129 C4.394,43.129 0.491,43.129 0.491,43.129 C0.227,43.129 0.012,42.897 0.012,42.611 C0.012,42.324 0.227,42.092 0.491,42.092 C0.491,42.092 1.414,42.092 1.414,42.092 C1.414,42.092 6.762,42.092 6.762,42.092 Z" id="path-9" class="cls-4" fill-rule="evenodd"/>
    <path d="M58.310,57.476 C59.250,57.476 60.012,56.993 60.012,56.398 C60.012,55.802 59.250,55.320 58.310,55.320 C58.310,55.320 53.097,55.320 53.097,55.320 C52.157,55.320 51.395,55.802 51.395,56.398 C51.395,56.993 52.157,57.476 53.097,57.476 C53.097,57.476 58.310,57.476 58.310,57.476 Z" id="path-10" class="cls-4" fill-rule="evenodd"/>
  </g>
</svg>
