<svg xmlns="http://www.w3.org/2000/svg" xmlns:xlink="http://www.w3.org/1999/xlink" preserveAspectRatio="xMidYMid" width="61" height="56" viewBox="0 0 61 56">
  <defs>
    <style>

      .cls-3 {
        fill: #2476ff;
      }

      .cls-5 {
        fill: #fbb713;
      }

      .cls-8 {
        fill: #020403;
        opacity: 0.25;
      }

      .cls-9 {
        fill: #142a3b;
      }

      .cls-10 {
        fill: #020403;
        opacity: 0.35;
      }

      .cls-11 {
        fill: #ff3a2f;
      }

      .cls-14 {
        fill: #ffffff;
      }
    </style>
  </defs>
  <g id="group-137svg">
    <path d="M20.539,10.321 C20.539,10.321 23.926,10.321 23.926,10.321 C24.579,10.321 25.109,10.779 25.109,11.346 C25.109,11.912 24.579,12.371 23.926,12.371 C23.926,12.371 23.769,12.371 23.769,12.371 C23.115,12.371 22.586,12.830 22.586,13.396 C22.586,13.962 23.115,14.421 23.769,14.421 C23.769,14.421 31.051,14.421 31.051,14.421 C31.704,14.421 32.233,14.880 32.233,15.446 C32.233,16.012 31.704,16.471 31.051,16.471 C31.051,16.471 22.299,16.471 22.299,16.471 C22.299,16.471 12.681,16.471 12.681,16.471 C12.027,16.471 11.498,16.012 11.498,15.446 C11.498,14.880 12.027,14.421 12.681,14.421 C12.681,14.421 14.702,14.421 14.702,14.421 C15.355,14.421 15.885,13.962 15.885,13.396 C15.885,12.830 15.355,12.371 14.702,12.371 C14.702,12.371 5.083,12.371 5.083,12.371 C4.431,12.371 3.900,11.912 3.900,11.346 C3.900,10.779 4.431,10.321 5.083,10.321 C5.083,10.321 7.356,10.321 7.356,10.321 C7.356,10.321 20.539,10.321 20.539,10.321 Z" id="path-1" class="cls-3" fill-rule="evenodd"/>
    <path d="M48.293,30.659 C48.293,30.659 51.680,30.659 51.680,30.659 C52.333,30.659 52.863,31.118 52.863,31.684 C52.863,32.251 52.333,32.710 51.680,32.710 C51.680,32.710 51.522,32.710 51.522,32.710 C50.869,32.710 50.340,33.169 50.340,33.734 C50.340,34.301 50.869,34.760 51.522,34.760 C51.522,34.760 58.805,34.760 58.805,34.760 C59.458,34.760 59.987,35.219 59.987,35.785 C59.987,36.351 59.458,36.810 58.805,36.810 C58.805,36.810 50.054,36.810 50.054,36.810 C50.054,36.810 40.435,36.810 40.435,36.810 C39.781,36.810 39.252,36.351 39.252,35.785 C39.252,35.219 39.781,34.760 40.435,34.760 C40.435,34.760 42.456,34.760 42.456,34.760 C43.109,34.760 43.639,34.301 43.639,33.734 C43.639,33.169 43.109,32.710 42.456,32.710 C42.456,32.710 32.838,32.710 32.838,32.710 C32.184,32.710 31.654,32.251 31.654,31.684 C31.654,31.118 32.184,30.659 32.838,30.659 C32.838,30.659 35.110,30.659 35.110,30.659 C35.110,30.659 48.293,30.659 48.293,30.659 Z" id="path-2" class="cls-3" fill-rule="evenodd"/>
    <path d="M49.705,14.316 C49.705,14.316 51.304,14.316 51.304,14.316 C51.611,14.316 51.861,14.775 51.861,15.341 C51.861,15.907 51.611,16.366 51.304,16.366 C51.304,16.366 51.229,16.366 51.229,16.366 C50.921,16.366 50.671,16.825 50.671,17.392 C50.671,17.958 50.921,18.417 51.229,18.417 C51.229,18.417 54.664,18.417 54.664,18.417 C54.973,18.417 55.223,18.876 55.223,19.442 C55.223,20.007 54.973,20.466 54.664,20.466 C54.664,20.466 50.536,20.466 50.536,20.466 C50.536,20.466 45.998,20.466 45.998,20.466 C45.689,20.466 45.440,20.007 45.440,19.442 C45.440,18.876 45.689,18.417 45.998,18.417 C45.998,18.417 46.951,18.417 46.951,18.417 C47.260,18.417 47.510,17.958 47.510,17.392 C47.510,16.825 47.260,16.366 46.951,16.366 C46.951,16.366 42.414,16.366 42.414,16.366 C42.105,16.366 41.855,15.907 41.855,15.341 C41.855,14.775 42.105,14.316 42.414,14.316 C42.414,14.316 43.486,14.316 43.486,14.316 C43.486,14.316 49.705,14.316 49.705,14.316 Z" id="path-3" class="cls-5" fill-rule="evenodd"/>
    <path d="M7.197,23.379 C8.177,23.379 8.971,22.889 8.971,22.286 C8.971,21.681 8.177,21.192 7.197,21.192 C7.197,21.192 1.762,21.192 1.762,21.192 C0.781,21.192 -0.013,21.681 -0.013,22.286 C-0.013,22.889 0.781,23.379 1.762,23.379 C1.762,23.379 7.197,23.379 7.197,23.379 Z" id="path-4" class="cls-3" fill-rule="evenodd"/>
    <path d="M9.610,55.926 C9.610,55.926 29.785,8.624 29.785,8.624 C29.785,8.624 49.961,55.926 49.961,55.926 C49.961,55.926 9.610,55.926 9.610,55.926 Z" id="path-5" class="cls-5" fill-rule="evenodd"/>
    <path d="M29.785,8.624 C29.785,8.624 27.502,13.979 27.502,13.979 C27.502,13.979 41.856,47.636 41.856,47.636 C43.330,51.090 40.795,54.927 37.039,54.927 C37.039,54.927 10.036,54.927 10.036,54.927 C10.036,54.927 9.610,55.926 9.610,55.926 C9.610,55.926 49.961,55.926 49.961,55.926 C49.961,55.926 29.785,8.624 29.785,8.624 Z" id="path-6" class="cls-8" fill-rule="evenodd"/>
    <path d="M21.765,55.893 C21.765,55.893 29.785,37.087 29.785,37.087 C29.785,37.087 37.807,55.893 37.807,55.893 C37.807,55.893 21.765,55.893 21.765,55.893 Z" id="path-7" class="cls-9" fill-rule="evenodd"/>
    <path d="M29.785,37.087 C29.785,37.087 27.788,41.770 27.788,41.770 C27.788,41.770 33.812,55.892 33.812,55.892 C33.812,55.892 37.807,55.892 37.807,55.892 C37.807,55.892 29.785,37.087 29.785,37.087 Z" id="path-8" class="cls-10" fill-rule="evenodd"/>
    <path d="M26.008,23.270 C24.733,23.270 23.784,22.553 23.413,22.107 C23.059,21.683 23.116,21.052 23.540,20.698 C23.962,20.347 24.586,20.402 24.940,20.817 C25.168,21.070 26.006,21.799 27.395,20.686 C28.154,19.992 30.204,19.042 32.192,20.698 C32.192,20.698 32.288,20.790 32.288,20.790 C32.443,20.948 33.347,21.739 34.819,20.714 C35.272,20.398 35.894,20.510 36.211,20.963 C36.527,21.416 36.415,22.040 35.962,22.355 C33.631,23.977 31.648,22.995 30.871,22.202 C29.792,21.341 28.861,22.059 28.684,22.214 C27.707,22.996 26.795,23.270 26.008,23.270 Z" id="path-9" class="cls-11" fill-rule="evenodd"/>
    <path d="M35.129,28.371 C35.096,28.371 35.062,28.371 35.028,28.370 C33.490,28.325 32.402,27.235 32.100,26.894 C30.251,25.414 28.621,26.761 28.438,26.921 C25.198,29.516 22.510,27.984 21.537,26.816 C21.184,26.391 21.241,25.761 21.666,25.407 C22.087,25.056 22.714,25.110 23.068,25.529 C23.340,25.839 24.795,27.277 27.146,25.395 C28.152,24.477 30.835,23.237 33.439,25.407 C33.439,25.407 33.574,25.544 33.574,25.544 C33.761,25.764 34.405,26.355 35.096,26.371 C35.105,26.372 35.114,26.372 35.123,26.372 C35.583,26.372 36.057,26.111 36.529,25.596 C36.904,25.189 37.536,25.165 37.942,25.536 C38.349,25.910 38.376,26.543 38.002,26.949 C37.134,27.893 36.168,28.371 35.129,28.371 Z" id="path-10" class="cls-11" fill-rule="evenodd"/>
    <path d="M29.783,10.624 C29.783,10.624 24.529,1.489 24.529,1.489 C24.254,1.010 24.419,0.399 24.898,0.123 C25.375,-0.152 25.988,0.014 26.264,0.492 C26.264,0.492 29.789,6.623 29.789,6.623 C29.789,6.623 33.315,0.536 33.315,0.536 C33.592,0.058 34.204,-0.105 34.682,0.172 C35.160,0.449 35.323,1.061 35.046,1.538 C35.046,1.538 29.783,10.624 29.783,10.624 Z" id="path-11" class="cls-9" fill-rule="evenodd"/>
    <path d="M16.178,51.016 C16.027,51.016 15.875,50.982 15.731,50.910 C15.237,50.663 15.037,50.062 15.284,49.568 C15.284,49.568 23.286,33.587 23.286,33.587 C23.534,33.094 24.135,32.892 24.628,33.141 C25.122,33.388 25.322,33.989 25.075,34.483 C25.075,34.483 17.073,50.464 17.073,50.464 C16.897,50.813 16.545,51.016 16.178,51.016 Z" id="path-12" class="cls-14" fill-rule="evenodd"/>
  </g>
</svg>
