<svg xmlns="http://www.w3.org/2000/svg" xmlns:xlink="http://www.w3.org/1999/xlink" preserveAspectRatio="xMidYMid" width="63" height="47" viewBox="0 0 63 47">
  <defs>
    <style>

      .cls-3 {
        fill: #fbb713;
      }

      .cls-7 {
        fill: #ff3a2f;
      }

      .cls-8 {
        fill: #142a3b;
      }

      .cls-9 {
        fill: #020403;
        opacity: 0.35;
      }

      .cls-11 {
        fill: #ffffff;
      }
    </style>
  </defs>
  <g id="group-87svg">
    <path d="M50.264,30.984 C50.264,30.984 53.666,30.984 53.666,30.984 C54.322,30.984 54.854,31.321 54.854,31.737 C54.854,32.152 54.322,32.489 53.666,32.489 C53.666,32.489 53.508,32.489 53.508,32.489 C52.852,32.489 52.320,32.826 52.320,33.242 C52.320,33.658 52.852,33.995 53.508,33.995 C53.508,33.995 60.822,33.995 60.822,33.995 C61.478,33.995 62.010,34.332 62.010,34.747 C62.010,35.163 61.478,35.500 60.822,35.500 C60.822,35.500 52.032,35.500 52.032,35.500 C52.032,35.500 42.371,35.500 42.371,35.500 C41.715,35.500 41.183,35.163 41.183,34.747 C41.183,34.332 41.715,33.995 42.371,33.995 C42.371,33.995 44.401,33.995 44.401,33.995 C45.057,33.995 45.589,33.658 45.589,33.242 C45.589,32.826 45.057,32.489 44.401,32.489 C44.401,32.489 34.739,32.489 34.739,32.489 C34.083,32.489 33.552,32.152 33.552,31.737 C33.552,31.321 34.083,30.984 34.739,30.984 C34.739,30.984 37.023,30.984 37.023,30.984 C37.023,30.984 50.264,30.984 50.264,30.984 Z" id="path-1" class="cls-3" fill-rule="evenodd"/>
    <path d="M56.708,25.120 C57.692,25.120 58.490,24.614 58.490,23.991 C58.490,23.368 57.692,22.862 56.708,22.862 C56.708,22.862 51.247,22.862 51.247,22.862 C50.264,22.862 49.466,23.368 49.466,23.991 C49.466,24.614 50.264,25.120 51.247,25.120 C51.247,25.120 56.708,25.120 56.708,25.120 Z" id="path-2" class="cls-3" fill-rule="evenodd"/>
    <path d="M7.029,15.729 C7.029,15.729 8.458,15.729 8.458,15.729 C8.734,15.729 8.957,15.954 8.957,16.231 C8.957,16.509 8.734,16.733 8.458,16.733 C8.458,16.733 8.392,16.733 8.392,16.733 C8.116,16.733 7.893,16.958 7.893,17.236 C7.893,17.513 8.116,17.738 8.392,17.738 C8.392,17.738 11.464,17.738 11.464,17.738 C11.739,17.738 11.962,17.963 11.962,18.240 C11.962,18.518 11.739,18.742 11.464,18.742 C11.464,18.742 7.772,18.742 7.772,18.742 C7.772,18.742 3.714,18.742 3.714,18.742 C3.439,18.742 3.215,18.518 3.215,18.240 C3.215,17.963 3.439,17.738 3.714,17.738 C3.714,17.738 4.567,17.738 4.567,17.738 C4.842,17.738 5.066,17.513 5.066,17.236 C5.066,16.958 4.842,16.733 4.567,16.733 C4.567,16.733 0.509,16.733 0.509,16.733 C0.234,16.733 0.010,16.509 0.010,16.231 C0.010,15.954 0.234,15.729 0.509,15.729 C0.509,15.729 1.468,15.729 1.468,15.729 C1.468,15.729 7.029,15.729 7.029,15.729 Z" id="path-3" class="cls-3" fill-rule="evenodd"/>
    <path d="M45.291,11.806 C45.291,11.806 46.218,11.806 46.218,11.806 C46.396,11.806 46.541,11.928 46.541,12.078 C46.541,12.228 46.396,12.350 46.218,12.350 C46.218,12.350 46.175,12.350 46.175,12.350 C45.996,12.350 45.851,12.470 45.851,12.621 C45.851,12.771 45.996,12.893 46.175,12.893 C46.175,12.893 48.166,12.893 48.166,12.893 C48.345,12.893 48.490,13.014 48.490,13.165 C48.490,13.315 48.345,13.436 48.166,13.436 C48.166,13.436 45.772,13.436 45.772,13.436 C45.772,13.436 43.142,13.436 43.142,13.436 C42.963,13.436 42.818,13.315 42.818,13.165 C42.818,13.014 42.963,12.893 43.142,12.893 C43.142,12.893 43.694,12.893 43.694,12.893 C43.873,12.893 44.018,12.771 44.018,12.621 C44.018,12.470 43.873,12.350 43.694,12.350 C43.694,12.350 41.063,12.350 41.063,12.350 C40.884,12.350 40.740,12.228 40.740,12.078 C40.740,11.928 40.884,11.806 41.063,11.806 C41.063,11.806 41.685,11.806 41.685,11.806 C41.685,11.806 45.291,11.806 45.291,11.806 Z" id="path-4" class="cls-3" fill-rule="evenodd"/>
    <path d="M59.718,19.981 C58.284,18.898 56.243,19.180 55.158,20.615 C55.158,20.615 42.679,37.115 42.679,37.115 C42.679,37.115 6.978,37.115 6.978,37.115 C5.180,37.115 3.723,38.573 3.723,40.369 C3.723,42.165 5.180,43.627 6.978,43.627 C6.978,43.627 11.101,43.627 11.101,43.627 C11.101,43.627 11.101,47.312 11.101,47.312 C11.101,47.312 15.006,47.312 15.006,47.312 C15.006,47.312 15.006,43.627 15.006,43.627 C15.006,43.627 39.745,43.627 39.745,43.627 C39.745,43.627 39.745,47.312 39.745,47.312 C39.745,47.312 43.651,47.312 43.651,47.312 C43.651,47.312 43.651,43.627 43.651,43.627 C43.651,43.627 45.921,43.627 45.921,43.627 C45.921,43.627 60.350,24.537 60.350,24.537 C61.436,23.103 61.152,21.064 59.718,19.981 Z" id="path-5" class="cls-7" fill-rule="evenodd"/>
    <path d="M52.223,20.736 C52.223,20.736 26.618,-0.007 26.618,-0.007 C26.618,-0.007 1.010,20.736 1.010,20.736 C1.010,20.736 22.807,20.736 22.807,20.736 C22.807,20.736 22.807,37.318 22.807,37.318 C22.807,37.318 30.429,37.318 30.429,37.318 C30.429,37.318 30.429,20.736 30.429,20.736 C30.429,20.736 52.223,20.736 52.223,20.736 Z" id="path-6" class="cls-8" fill-rule="evenodd"/>
    <path d="M26.618,-0.007 C26.618,-0.007 22.406,3.405 22.406,3.405 C22.406,3.405 43.801,20.736 43.801,20.736 C43.801,20.736 52.223,20.736 52.223,20.736 C52.223,20.736 26.618,-0.007 26.618,-0.007 Z" id="path-7" class="cls-9" fill-rule="evenodd"/>
    <path d="M30.429,26.326 C30.429,26.326 22.807,23.733 22.807,23.733 C22.807,23.733 22.807,20.736 22.807,20.736 C22.807,20.736 30.429,20.736 30.429,20.736 C30.429,20.736 30.429,26.326 30.429,26.326 Z" id="path-8" class="cls-9" fill-rule="evenodd"/>
    <path d="M10.490,17.592 C10.192,17.592 9.897,17.460 9.700,17.206 C9.361,16.770 9.439,16.142 9.875,15.802 C9.875,15.802 20.143,7.819 20.143,7.819 C20.578,7.480 21.206,7.559 21.546,7.995 C21.885,8.431 21.807,9.059 21.371,9.398 C21.371,9.398 11.103,17.382 11.103,17.382 C10.920,17.524 10.705,17.592 10.490,17.592 Z" id="path-9" class="cls-11" fill-rule="evenodd"/>
  </g>
</svg>
