<svg xmlns="http://www.w3.org/2000/svg" xmlns:xlink="http://www.w3.org/1999/xlink" preserveAspectRatio="xMidYMid" width="58" height="61" viewBox="0 0 58 61">
  <defs>
    <style>

      .cls-3 {
        fill: #2476ff;
      }

      .cls-7 {
        fill: #000000;
        opacity: 0.35;
      }

      .cls-8 {
        fill: #fbb713;
      }

      .cls-9 {
        fill: #000000;
        opacity: 0.2;
      }

      .cls-10 {
        fill: #142a3b;
      }

      .cls-11 {
        fill: #ff3a2f;
      }
    </style>
  </defs>
  <g id="group-7svg">
    <path d="M24.440,54.268 C24.440,54.268 28.770,54.268 28.770,54.268 C29.605,54.268 30.282,54.696 30.282,55.226 C30.282,55.755 29.605,56.184 28.770,56.184 C28.770,56.184 28.569,56.184 28.569,56.184 C27.734,56.184 27.058,56.612 27.058,57.141 C27.058,57.671 27.734,58.099 28.569,58.099 C28.569,58.099 37.879,58.099 37.879,58.099 C38.714,58.099 39.391,58.528 39.391,59.057 C39.391,59.586 38.714,60.015 37.879,60.015 C37.879,60.015 26.691,60.015 26.691,60.015 C26.691,60.015 14.394,60.015 14.394,60.015 C13.560,60.015 12.883,59.586 12.883,59.057 C12.883,58.528 13.560,58.099 14.394,58.099 C14.394,58.099 16.978,58.099 16.978,58.099 C17.813,58.099 18.490,57.671 18.490,57.141 C18.490,56.612 17.813,56.184 16.978,56.184 C16.978,56.184 4.682,56.184 4.682,56.184 C3.848,56.184 3.170,55.755 3.170,55.226 C3.170,54.696 3.848,54.268 4.682,54.268 C4.682,54.268 7.588,54.268 7.588,54.268 C7.588,54.268 24.440,54.268 24.440,54.268 Z" id="path-1" class="cls-3" fill-rule="evenodd"/>
    <path d="M54.535,59.677 C55.787,59.677 56.803,59.034 56.803,58.240 C56.803,57.446 55.787,56.803 54.535,56.803 C54.535,56.803 47.585,56.803 47.585,56.803 C46.333,56.803 45.317,57.446 45.317,58.240 C45.317,59.034 46.333,59.677 47.585,59.677 C47.585,59.677 54.535,59.677 54.535,59.677 Z" id="path-2" class="cls-3" fill-rule="evenodd"/>
    <path d="M9.205,51.108 C10.458,51.108 11.474,50.465 11.474,49.671 C11.474,48.878 10.458,48.235 9.205,48.235 C9.205,48.235 2.256,48.235 2.256,48.235 C1.004,48.235 -0.012,48.878 -0.012,49.671 C-0.012,50.465 1.004,51.108 2.256,51.108 C2.256,51.108 9.205,51.108 9.205,51.108 Z" id="path-3" class="cls-3" fill-rule="evenodd"/>
    <path d="M43.429,32.396 C43.429,32.396 50.620,32.396 50.620,32.396 C51.887,32.396 52.914,33.218 52.914,34.232 C52.914,35.246 51.887,36.068 50.620,36.068 C50.620,36.068 50.304,36.068 50.304,36.068 C50.304,36.068 47.385,36.068 47.385,36.068 C46.118,36.068 45.091,36.890 45.091,37.904 C45.091,38.918 46.118,39.740 47.385,39.740 C47.385,39.740 54.329,39.740 54.329,39.740 C55.596,39.740 56.623,40.562 56.623,41.576 C56.623,42.590 55.596,43.412 54.329,43.412 C54.329,43.412 46.437,43.412 46.437,43.412 C46.437,43.412 45.112,43.345 45.112,43.345 C43.846,43.345 42.818,44.167 42.818,45.181 C42.818,46.195 43.846,47.017 45.112,47.017 C45.112,47.017 52.057,47.017 52.057,47.017 C53.323,47.017 54.351,47.839 54.351,48.853 C54.351,49.867 53.323,50.689 52.057,50.689 C52.057,50.689 26.807,50.756 26.807,50.756 C25.540,50.756 24.513,49.934 24.513,48.920 C24.513,47.907 25.540,47.084 26.807,47.084 C26.807,47.084 33.751,47.084 33.751,47.084 C35.018,47.084 36.045,46.263 36.045,45.248 C36.045,44.234 35.018,43.412 33.751,43.412 C33.751,43.412 16.495,43.412 16.495,43.412 C16.495,43.412 8.603,43.412 8.603,43.412 C7.335,43.412 6.309,42.590 6.309,41.576 C6.309,40.562 7.335,39.740 8.603,39.740 C8.603,39.740 15.546,39.740 15.546,39.740 C16.813,39.740 17.840,38.918 17.840,37.904 C17.840,36.890 16.813,36.068 15.546,36.068 C15.546,36.068 12.628,36.068 12.628,36.068 C12.628,36.068 4.734,36.068 4.734,36.068 C3.468,36.068 2.440,35.246 2.440,34.232 C2.440,33.218 3.468,32.396 4.734,32.396 C4.734,32.396 19.503,32.396 19.503,32.396 C19.503,32.396 43.429,32.396 43.429,32.396 Z" id="path-4" class="cls-3" fill-rule="evenodd"/>
    <path d="M16.839,39.420 C19.882,40.550 30.558,43.686 46.860,39.687 C45.848,39.496 45.091,38.773 45.091,37.904 C45.091,36.890 46.118,36.068 47.385,36.068 C47.385,36.068 49.505,36.068 49.505,36.068 C49.751,36.008 50.007,35.967 50.276,35.967 C50.276,35.967 51.339,35.967 51.339,35.967 C51.595,35.899 51.828,35.798 52.035,35.667 C52.334,35.213 52.629,34.726 52.911,34.206 C52.892,33.204 51.876,32.396 50.620,32.396 C50.620,32.396 43.429,32.396 43.429,32.396 C43.429,32.396 19.503,32.396 19.503,32.396 C19.503,32.396 6.678,32.396 6.678,32.396 C7.607,33.712 8.671,34.930 9.918,35.967 C9.918,35.967 13.111,35.967 13.111,35.967 C13.381,35.967 13.637,36.008 13.882,36.068 C13.882,36.068 15.546,36.068 15.546,36.068 C16.813,36.068 17.840,36.890 17.840,37.904 C17.840,38.534 17.443,39.089 16.839,39.420 Z" id="path-5" class="cls-7" fill-rule="evenodd"/>
    <path d="M43.374,13.801 C47.325,15.434 52.989,10.967 52.989,10.967 C56.933,7.024 52.989,5.954 52.989,5.954 C49.295,7.232 46.423,7.275 44.430,6.979 C43.472,2.987 39.887,0.015 35.601,0.015 C30.580,0.015 26.510,4.085 26.510,9.105 C26.510,12.757 28.668,15.896 31.773,17.342 C31.134,18.894 29.607,19.988 27.824,19.988 C27.526,19.988 1.759,13.377 1.759,13.377 C1.759,13.377 1.978,33.309 14.792,36.595 C14.792,36.595 25.415,41.633 43.376,36.595 C43.376,36.595 53.671,26.738 43.376,19.729 C43.376,19.729 41.468,17.530 41.325,16.162 C42.139,15.502 42.829,14.699 43.374,13.801 Z" id="path-6" class="cls-8" fill-rule="evenodd"/>
    <path d="M43.527,19.840 C47.638,26.285 40.197,33.416 40.197,33.416 C22.236,38.454 11.612,33.416 11.612,33.416 C9.907,32.979 8.432,32.240 7.143,31.299 C8.989,33.759 11.462,35.741 14.792,36.595 C14.792,36.595 25.415,41.633 43.376,36.595 C43.376,36.595 53.556,26.841 43.527,19.840 Z" id="path-7" class="cls-9" fill-rule="evenodd"/>
    <path d="M38.119,7.134 C38.119,7.920 37.481,8.558 36.695,8.558 C35.909,8.558 35.271,7.920 35.271,7.134 C35.271,6.348 35.909,5.710 36.695,5.710 C37.481,5.710 38.119,6.348 38.119,7.134 Z" id="path-8" class="cls-10" fill-rule="evenodd"/>
    <path d="M25.665,31.462 C25.577,31.462 25.490,31.459 25.401,31.452 C24.342,31.376 23.363,30.849 22.646,29.967 C22.278,29.514 21.794,29.246 21.285,29.215 C20.800,29.184 20.312,29.374 19.919,29.751 C19.919,29.751 19.374,30.272 19.374,30.272 C18.560,31.051 17.519,31.435 16.458,31.356 C15.364,31.275 14.365,30.719 13.645,29.788 C13.645,29.788 11.887,27.518 11.887,27.518 C11.549,27.081 11.629,26.453 12.065,26.115 C12.504,25.777 13.130,25.857 13.469,26.293 C13.469,26.293 15.228,28.564 15.228,28.564 C15.596,29.040 16.085,29.323 16.606,29.362 C17.100,29.399 17.593,29.208 17.991,28.827 C17.991,28.827 18.536,28.305 18.536,28.305 C19.339,27.538 20.361,27.151 21.410,27.219 C22.482,27.286 23.474,27.813 24.198,28.705 C24.563,29.155 25.041,29.421 25.545,29.457 C26.023,29.491 26.505,29.312 26.897,28.950 C26.897,28.950 27.797,28.119 27.797,28.119 C28.576,27.401 29.546,27.031 30.567,27.081 C31.590,27.132 32.552,27.607 33.275,28.421 C33.275,28.421 33.530,28.707 33.530,28.707 C33.912,29.135 34.400,29.374 34.906,29.380 C35.411,29.389 35.897,29.159 36.283,28.744 C36.283,28.744 38.623,26.225 38.623,26.225 C38.997,25.820 39.632,25.797 40.036,26.173 C40.440,26.549 40.464,27.181 40.088,27.586 C40.088,27.586 37.748,30.105 37.748,30.105 C36.974,30.939 35.962,31.387 34.885,31.380 C33.810,31.368 32.798,30.891 32.036,30.037 C32.036,30.037 31.781,29.750 31.781,29.750 C31.417,29.341 30.951,29.103 30.469,29.079 C29.996,29.056 29.540,29.232 29.153,29.589 C29.153,29.589 28.254,30.420 28.254,30.420 C27.519,31.097 26.608,31.462 25.665,31.462 Z" id="path-9" class="cls-11" fill-rule="evenodd"/>
  </g>
</svg>
