<svg xmlns="http://www.w3.org/2000/svg" xmlns:xlink="http://www.w3.org/1999/xlink" preserveAspectRatio="xMidYMid" width="61" height="54" viewBox="0 0 61 54">
  <defs>
    <style>

      .cls-3 {
        fill: #ff3a2f;
      }

      .cls-6 {
        fill: #142a3b;
      }

      .cls-7 {
        fill: #090908;
        opacity: 0.35;
      }

      .cls-10 {
        fill: #fbb713;
      }

      .cls-11 {
        fill: #ededed;
      }
    </style>
  </defs>
  <g id="group-199svg">
    <path d="M42.229,54.041 C42.229,54.041 46.622,54.041 46.622,54.041 C47.470,54.041 48.156,53.642 48.156,53.151 C48.156,52.659 47.470,52.261 46.622,52.261 C46.622,52.261 46.418,52.261 46.418,52.261 C45.571,52.261 44.885,51.862 44.885,51.370 C44.885,50.879 45.571,50.480 46.418,50.480 C46.418,50.480 55.860,50.480 55.860,50.480 C56.708,50.480 57.394,50.082 57.394,49.590 C57.394,49.098 56.708,48.699 55.860,48.699 C55.860,48.699 44.513,48.699 44.513,48.699 C44.513,48.699 21.318,48.699 21.318,48.699 C20.472,48.699 19.785,49.098 19.785,49.590 C19.785,50.082 20.472,50.480 21.318,50.480 C21.318,50.480 23.939,50.480 23.939,50.480 C24.786,50.480 25.473,50.879 25.473,51.370 C25.473,51.862 24.786,52.261 23.939,52.261 C23.939,52.261 11.467,52.261 11.467,52.261 C10.620,52.261 9.934,52.659 9.934,53.151 C9.934,53.642 10.620,54.041 11.467,54.041 C11.467,54.041 14.415,54.041 14.415,54.041 C14.415,54.041 42.229,54.041 42.229,54.041 Z" id="path-1" class="cls-3" fill-rule="evenodd"/>
    <path d="M17.061,42.189 C17.061,42.189 19.383,42.189 19.383,42.189 C19.831,42.189 20.193,41.872 20.193,41.480 C20.193,41.089 19.831,40.771 19.383,40.771 C19.383,40.771 19.275,40.771 19.275,40.771 C18.827,40.771 18.465,40.453 18.465,40.061 C18.465,39.670 18.827,39.353 19.275,39.353 C19.275,39.353 24.266,39.353 24.266,39.353 C24.713,39.353 25.076,39.035 25.076,38.643 C25.076,38.252 24.713,37.934 24.266,37.934 C24.266,37.934 18.269,37.934 18.269,37.934 C18.269,37.934 6.010,37.934 6.010,37.934 C5.562,37.934 5.199,38.252 5.199,38.643 C5.199,39.035 5.562,39.353 6.010,39.353 C6.010,39.353 7.394,39.353 7.394,39.353 C7.842,39.353 8.205,39.670 8.205,40.061 C8.205,40.453 7.842,40.771 7.394,40.771 C7.394,40.771 0.803,40.771 0.803,40.771 C0.355,40.771 -0.008,41.089 -0.008,41.480 C-0.008,41.872 0.355,42.189 0.803,42.189 C0.803,42.189 2.360,42.189 2.360,42.189 C2.360,42.189 17.061,42.189 17.061,42.189 Z" id="path-2" class="cls-3" fill-rule="evenodd"/>
    <path d="M13.459,48.637 C14.413,48.637 15.186,49.077 15.186,49.619 C15.186,50.161 14.413,50.600 13.459,50.600 C13.459,50.600 8.167,50.600 8.167,50.600 C7.214,50.600 6.440,50.161 6.440,49.619 C6.440,49.077 7.214,48.637 8.167,48.637 C8.167,48.637 13.459,48.637 13.459,48.637 Z" id="path-3" class="cls-3" fill-rule="evenodd"/>
    <path d="M48.404,4.315 C43.667,4.315 39.528,2.772 37.290,0.473 C36.647,-0.187 35.575,-0.187 34.933,0.473 C32.694,2.772 28.556,4.315 23.818,4.315 C20.310,4.315 17.135,3.466 14.814,2.091 C13.673,1.416 12.230,2.186 12.230,3.512 C12.230,3.512 12.230,24.122 12.230,24.122 C12.230,38.704 22.922,50.525 36.111,50.525 C49.301,50.525 59.992,38.704 59.992,24.122 C59.992,24.122 59.970,10.217 59.932,3.542 C59.925,2.224 58.495,1.457 57.358,2.123 C55.043,3.479 51.888,4.315 48.404,4.315 Z" id="path-4" class="cls-6" fill-rule="evenodd"/>
    <path d="M33.070,2.161 C35.309,4.460 39.448,6.003 44.185,6.003 C47.668,6.003 50.823,5.167 53.139,3.811 C53.214,3.767 53.292,3.745 53.369,3.714 C51.842,4.100 50.166,4.315 48.404,4.315 C43.667,4.315 39.528,2.772 37.290,0.473 C36.647,-0.187 35.575,-0.187 34.934,0.473 C34.375,1.046 33.698,1.572 32.925,2.039 C32.974,2.079 33.025,2.114 33.070,2.161 Z" id="path-5" class="cls-7" fill-rule="evenodd"/>
    <path d="M19.600,6.003 C23.150,6.003 26.364,5.136 28.694,3.733 C27.189,4.105 25.546,4.315 23.818,4.315 C20.310,4.315 17.135,3.467 14.814,2.091 C13.673,1.416 12.230,2.186 12.230,3.512 C12.230,3.512 12.230,4.592 12.230,4.592 C14.317,5.477 16.852,6.003 19.600,6.003 Z" id="path-6" class="cls-7" fill-rule="evenodd"/>
    <path d="M59.932,3.542 C59.925,2.224 58.495,1.457 57.358,2.123 C56.317,2.732 55.101,3.229 53.767,3.600 C54.741,3.451 55.707,4.147 55.713,5.229 C55.750,11.905 55.773,25.810 55.773,25.810 C55.773,36.366 50.169,45.471 42.072,49.696 C52.377,46.768 59.992,36.428 59.992,24.122 C59.992,24.122 59.970,10.217 59.932,3.542 Z" id="path-7" class="cls-7" fill-rule="evenodd"/>
    <path d="M36.111,5.885 C35.783,5.885 35.454,6.011 35.209,6.265 C33.493,8.026 30.321,9.208 26.691,9.208 C24.003,9.208 21.569,8.558 19.792,7.505 C18.917,6.986 17.811,7.577 17.811,8.593 C17.811,8.593 17.811,24.386 17.811,24.386 C17.811,24.455 17.816,24.523 17.816,24.593 C17.816,24.593 36.111,24.593 36.111,24.593 C36.111,24.593 36.111,5.885 36.111,5.885 Z" id="path-8" class="cls-10" fill-rule="evenodd"/>
    <path d="M36.111,24.593 C36.111,24.593 36.111,44.618 36.111,44.618 C46.155,44.618 54.306,35.671 54.406,24.593 C54.406,24.593 36.111,24.593 36.111,24.593 Z" id="path-9" class="cls-11" fill-rule="evenodd"/>
    <path d="M26.155,40.884 C25.956,40.884 25.755,40.824 25.579,40.701 C22.738,38.694 20.490,36.050 19.078,33.055 C18.843,32.555 19.057,31.960 19.556,31.724 C20.055,31.489 20.652,31.703 20.887,32.202 C22.151,34.886 24.174,37.259 26.733,39.067 C27.185,39.386 27.292,40.010 26.973,40.461 C26.778,40.736 26.469,40.884 26.155,40.884 Z" id="path-10" class="cls-11" fill-rule="evenodd"/>
  </g>
</svg>
