<svg xmlns="http://www.w3.org/2000/svg" xmlns:xlink="http://www.w3.org/1999/xlink" preserveAspectRatio="xMidYMid" width="60" height="45" viewBox="0 0 60 45">
  <defs>
    <style>

      .cls-3 {
        fill: #2476ff;
      }

      .cls-5 {
        fill: #142a3b;
      }

      .cls-8 {
        fill: #0cb04a;
      }

      .cls-9 {
        fill: #000000;
        opacity: 0.35;
      }

      .cls-10 {
        fill: #fbb713;
      }

      .cls-11 {
        fill: #000000;
        opacity: 0.2;
      }
    </style>
  </defs>
  <g id="group-228svg">
    <path d="M19.532,37.858 C19.532,37.858 13.871,37.858 13.871,37.858 C12.780,37.858 11.894,38.332 11.894,38.917 C11.894,39.502 12.780,39.976 13.871,39.976 C13.871,39.976 14.135,39.976 14.135,39.976 C15.227,39.976 16.111,40.451 16.111,41.035 C16.111,41.620 15.227,42.095 14.135,42.095 C14.135,42.095 1.966,42.095 1.966,42.095 C0.874,42.095 -0.011,42.569 -0.011,43.154 C-0.011,43.739 0.874,44.213 1.966,44.213 C1.966,44.213 16.590,44.213 16.590,44.213 C16.590,44.213 46.482,44.213 46.482,44.213 C47.573,44.213 48.458,43.739 48.458,43.154 C48.458,42.569 47.573,42.095 46.482,42.095 C46.482,42.095 43.104,42.095 43.104,42.095 C42.014,42.095 41.129,41.620 41.129,41.035 C41.129,40.451 42.014,39.976 43.104,39.976 C43.104,39.976 56.369,39.976 56.369,39.976 C57.461,39.976 58.346,39.502 58.346,38.917 C58.346,38.332 57.461,37.858 56.369,37.858 C56.369,37.858 55.380,37.858 55.380,37.858 C55.380,37.858 19.532,37.858 19.532,37.858 Z" id="path-1" class="cls-3" fill-rule="evenodd"/>
    <path d="M54.331,44.308 C53.562,44.308 52.938,43.973 52.938,43.559 C52.938,43.145 53.562,42.809 54.331,42.809 C54.331,42.809 58.597,42.809 58.597,42.809 C59.366,42.809 59.989,43.145 59.989,43.559 C59.989,43.973 59.366,44.308 58.597,44.308 C58.597,44.308 54.331,44.308 54.331,44.308 Z" id="path-2" class="cls-3" fill-rule="evenodd"/>
    <path d="M47.519,39.124 C47.519,39.124 47.519,39.124 47.519,39.124 C47.269,39.124 47.068,38.922 47.068,38.673 C47.068,38.673 47.068,35.620 47.068,35.620 C47.068,35.371 47.269,35.169 47.519,35.169 C47.519,35.169 47.519,35.169 47.519,35.169 C47.767,35.169 47.970,35.371 47.970,35.620 C47.970,35.620 47.970,38.673 47.970,38.673 C47.970,38.922 47.767,39.124 47.519,39.124 Z" id="path-3" class="cls-5" fill-rule="evenodd"/>
    <path d="M17.010,39.124 C17.010,39.124 17.010,39.124 17.010,39.124 C16.761,39.124 16.559,38.922 16.559,38.673 C16.559,38.673 16.559,35.620 16.559,35.620 C16.559,35.371 16.761,35.169 17.010,35.169 C17.010,35.169 17.010,35.169 17.010,35.169 C17.259,35.169 17.461,35.371 17.461,35.620 C17.461,35.620 17.461,38.673 17.461,38.673 C17.461,38.922 17.259,39.124 17.010,39.124 Z" id="path-4" class="cls-5" fill-rule="evenodd"/>
    <path d="M32.265,39.124 C32.265,39.124 32.265,39.124 32.265,39.124 C32.016,39.124 31.813,38.922 31.813,38.673 C31.813,38.673 31.813,35.620 31.813,35.620 C31.813,35.371 32.016,35.169 32.265,35.169 C32.265,35.169 32.265,35.169 32.265,35.169 C32.514,35.169 32.715,35.371 32.715,35.620 C32.715,35.620 32.715,38.673 32.715,38.673 C32.715,38.922 32.514,39.124 32.265,39.124 Z" id="path-5" class="cls-5" fill-rule="evenodd"/>
    <path d="M31.741,9.117 C31.741,9.117 31.741,36.016 31.741,36.016 C31.741,36.016 51.576,36.016 51.576,36.016 C51.576,36.016 51.576,35.263 51.576,35.263 C51.576,35.263 51.576,34.361 51.576,34.361 C51.576,34.361 51.576,9.117 51.576,9.117 C51.576,3.254 46.415,-0.007 40.307,-0.007 C40.307,-0.007 21.694,0.158 21.694,0.158 C27.660,0.158 31.741,3.152 31.741,9.117 Z" id="path-6" class="cls-8" fill-rule="evenodd"/>
    <path d="M31.741,9.117 C31.741,9.117 31.741,36.016 31.741,36.016 C31.741,36.016 51.576,36.016 51.576,36.016 C51.576,36.016 51.576,35.263 51.576,35.263 C51.576,35.263 51.576,34.361 51.576,34.361 C51.576,34.361 51.576,9.117 51.576,9.117 C51.576,9.117 31.741,9.117 31.741,9.117 Z" id="path-7" class="cls-9" fill-rule="evenodd"/>
    <path d="M32.480,36.016 C32.480,36.016 32.480,9.117 32.480,9.117 C32.480,4.146 28.435,0.102 23.465,0.102 C23.465,0.102 17.498,0.102 17.498,0.102 C14.577,2.042 12.646,5.356 12.646,9.117 C12.646,9.117 12.646,34.361 12.646,34.361 C12.646,34.361 12.646,35.263 12.646,35.263 C12.646,35.263 12.646,36.016 12.646,36.016 C12.646,36.016 32.480,36.016 32.480,36.016 Z" id="path-8" class="cls-10" fill-rule="evenodd"/>
    <path d="M23.465,0.102 C23.465,0.102 19.228,0.102 19.228,0.102 C24.199,0.102 28.243,4.146 28.243,9.117 C28.243,9.117 28.243,36.016 28.243,36.016 C28.243,36.016 32.480,36.016 32.480,36.016 C32.480,36.016 32.480,9.117 32.480,9.117 C32.480,4.146 28.435,0.102 23.465,0.102 Z" id="path-9" class="cls-11" fill-rule="evenodd"/>
    <path d="M27.339,10.921 C27.339,10.921 19.592,10.921 19.592,10.921 C19.592,10.921 23.465,14.241 23.465,14.241 C23.465,14.241 27.339,10.921 27.339,10.921 Z" id="path-10" class="cls-5" fill-rule="evenodd"/>
    <path d="M24.052,16.113 C23.883,16.258 23.674,16.330 23.465,16.330 C23.257,16.330 23.047,16.258 22.879,16.113 C22.879,16.113 18.056,11.980 18.056,11.980 C18.056,11.980 18.056,19.936 18.056,19.936 C18.056,19.936 28.875,19.936 28.875,19.936 C28.875,19.936 28.875,11.980 28.875,11.980 C28.875,11.980 24.052,16.113 24.052,16.113 Z" id="path-11" class="cls-5" fill-rule="evenodd"/>
    <path d="M29.830,20.838 C29.830,21.336 29.427,21.739 28.929,21.739 C28.929,21.739 16.307,21.739 16.307,21.739 C15.809,21.739 15.405,21.336 15.405,20.838 C15.405,20.838 15.405,10.019 15.405,10.019 C15.405,9.975 15.425,9.938 15.430,9.896 C15.438,9.833 15.445,9.769 15.468,9.709 C15.491,9.646 15.527,9.593 15.563,9.537 C15.587,9.503 15.596,9.464 15.623,9.432 C15.630,9.423 15.641,9.420 15.648,9.413 C15.694,9.362 15.752,9.325 15.809,9.286 C15.850,9.259 15.886,9.226 15.931,9.206 C15.981,9.181 16.037,9.174 16.092,9.161 C16.152,9.146 16.210,9.128 16.271,9.124 C16.284,9.124 16.295,9.117 16.307,9.117 C16.307,9.117 28.929,9.117 28.929,9.117 C28.941,9.117 28.951,9.124 28.964,9.124 C29.027,9.128 29.085,9.146 29.147,9.161 C29.200,9.176 29.255,9.181 29.305,9.206 C29.350,9.226 29.387,9.260 29.429,9.290 C29.485,9.327 29.541,9.364 29.587,9.413 C29.595,9.420 29.605,9.423 29.612,9.432 C29.640,9.464 29.648,9.503 29.672,9.537 C29.708,9.593 29.744,9.646 29.767,9.709 C29.790,9.769 29.797,9.833 29.806,9.896 C29.811,9.938 29.830,9.975 29.830,10.019 C29.830,10.019 29.830,20.838 29.830,20.838 Z" id="path-12" class="cls-5" fill-rule="evenodd"/>
    <path d="M35.348,9.117 C35.348,9.117 46.166,9.117 46.166,9.117 C46.665,9.117 47.068,9.521 47.068,10.019 C47.068,10.517 46.665,10.921 46.166,10.921 C46.166,10.921 35.348,10.921 35.348,10.921 C34.850,10.921 34.446,10.517 34.446,10.019 C34.446,9.521 34.850,9.117 35.348,9.117 Z" id="path-13" class="cls-5" fill-rule="evenodd"/>
    <path d="M47.068,14.527 C47.068,14.527 34.446,14.527 34.446,14.527 C33.948,14.527 33.545,14.930 33.545,15.428 C33.545,15.428 33.545,26.247 33.545,26.247 C33.545,26.745 33.948,27.149 34.446,27.149 C34.446,27.149 47.068,27.149 47.068,27.149 C47.566,27.149 47.970,26.745 47.970,26.247 C47.970,26.247 47.970,15.428 47.970,15.428 C47.970,14.930 47.566,14.527 47.068,14.527 ZM46.166,25.346 C46.166,25.346 35.348,25.346 35.348,25.346 C35.348,25.346 35.348,16.330 35.348,16.330 C35.348,16.330 46.166,16.330 46.166,16.330 C46.166,16.330 46.166,25.346 46.166,25.346 Z" id="path-14" class="cls-5" fill-rule="evenodd"/>
  </g>
</svg>
