<svg xmlns="http://www.w3.org/2000/svg" xmlns:xlink="http://www.w3.org/1999/xlink" preserveAspectRatio="xMidYMid" width="60" height="52" viewBox="0 0 60 52">
  <defs>
    <style>

      .cls-3 {
        fill: #0cb04a;
      }

      .cls-5 {
        fill: #fbb713;
      }

      .cls-6 {
        fill: #ededed;
      }

      .cls-7 {
        fill: #000000;
        opacity: 0.2;
      }

      .cls-9 {
        fill: #000000;
        opacity: 0.35;
      }
    </style>
  </defs>
  <g id="group-243svg">
    <path d="M19.532,42.836 C19.532,42.836 13.871,42.836 13.871,42.836 C12.780,42.836 11.894,43.481 11.894,44.277 C11.894,45.073 12.780,45.717 13.871,45.717 C13.871,45.717 14.135,45.717 14.135,45.717 C15.227,45.717 16.111,46.363 16.111,47.158 C16.111,47.954 15.227,48.599 14.135,48.599 C14.135,48.599 1.966,48.599 1.966,48.599 C0.874,48.599 -0.011,49.244 -0.011,50.040 C-0.011,50.835 0.874,51.480 1.966,51.480 C1.966,51.480 16.590,51.480 16.590,51.480 C16.590,51.480 46.482,51.480 46.482,51.480 C47.573,51.480 48.458,50.835 48.458,50.040 C48.458,49.244 47.573,48.599 46.482,48.599 C46.482,48.599 43.104,48.599 43.104,48.599 C42.014,48.599 41.129,47.954 41.129,47.158 C41.129,46.363 42.014,45.717 43.104,45.717 C43.104,45.717 56.369,45.717 56.369,45.717 C57.461,45.717 58.346,45.073 58.346,44.277 C58.346,43.481 57.461,42.836 56.369,42.836 C56.369,42.836 55.380,42.836 55.380,42.836 C55.380,42.836 19.532,42.836 19.532,42.836 Z" id="path-1" class="cls-3" fill-rule="evenodd"/>
    <path d="M54.331,51.610 C53.562,51.610 52.938,51.154 52.938,50.591 C52.938,50.028 53.562,49.572 54.331,49.572 C54.331,49.572 58.597,49.572 58.597,49.572 C59.366,49.572 59.989,50.028 59.989,50.591 C59.989,51.154 59.366,51.610 58.597,51.610 C58.597,51.610 54.331,51.610 54.331,51.610 Z" id="path-2" class="cls-3" fill-rule="evenodd"/>
    <path d="M40.670,10.680 C40.670,4.781 35.888,-0.001 29.989,-0.001 C24.090,-0.001 19.309,4.781 19.309,10.680 C19.309,10.970 3.060,18.912 3.060,23.316 C3.060,29.215 15.112,31.194 30.032,31.194 C36.427,31.194 57.006,30.297 57.006,23.923 C57.006,19.518 40.670,10.970 40.670,10.680 Z" id="path-3" class="cls-5" fill-rule="evenodd"/>
    <path d="M22.368,8.684 C22.213,8.684 22.056,8.648 21.908,8.571 C21.418,8.316 21.227,7.713 21.481,7.223 C23.141,4.032 26.404,2.049 29.998,2.049 C30.551,2.049 30.998,2.497 30.998,3.049 C30.998,3.601 30.551,4.049 29.998,4.049 C27.153,4.049 24.570,5.618 23.257,8.145 C23.078,8.487 22.729,8.684 22.368,8.684 Z" id="path-4" class="cls-6" fill-rule="evenodd"/>
    <path d="M40.670,10.680 C40.670,4.781 35.888,-0.001 29.989,-0.001 C29.103,-0.001 28.248,0.118 27.426,0.322 C32.084,1.471 35.543,5.666 35.543,10.680 C35.543,10.970 51.879,19.518 51.879,23.923 C51.879,29.690 35.035,30.973 27.091,31.165 C28.058,31.183 29.037,31.194 30.033,31.194 C36.427,31.194 57.006,30.297 57.006,23.923 C57.006,19.518 40.670,10.970 40.670,10.680 Z" id="path-5" class="cls-7" fill-rule="evenodd"/>
    <path d="M57.006,23.923 C57.006,28.288 44.953,32.380 30.032,32.380 C15.111,32.380 2.973,28.288 2.973,23.923 C2.973,19.558 15.068,16.020 29.989,16.020 C44.910,16.020 57.006,19.558 57.006,23.923 Z" id="path-6" class="cls-5" fill-rule="evenodd"/>
    <path d="M57.006,23.923 C57.006,28.288 44.953,32.380 30.032,32.380 C15.111,32.380 2.973,28.288 2.973,23.923 C2.973,19.558 15.068,16.020 29.989,16.020 C44.910,16.020 57.006,19.558 57.006,23.923 Z" id="path-7" class="cls-9" fill-rule="evenodd"/>
    <path d="M39.223,45.594 C32.777,47.958 26.494,47.506 20.294,45.594 C23.006,39.097 24.565,31.592 24.139,22.352 C27.510,21.414 31.176,21.215 35.377,22.352 C39.090,30.649 40.502,38.427 39.223,45.594 Z" id="path-8" class="cls-5" fill-rule="evenodd"/>
    <path d="M35.377,22.352 C31.176,21.215 27.510,21.414 24.139,22.352 C24.171,23.036 24.169,23.692 24.180,24.358 C26.825,23.962 29.670,24.064 32.814,24.915 C36.214,32.513 37.657,39.668 36.898,46.325 C37.671,46.120 38.445,45.880 39.223,45.594 C40.502,38.427 39.090,30.649 35.377,22.352 Z" id="path-9" class="cls-7" fill-rule="evenodd"/>
  </g>
</svg>
