<svg xmlns="http://www.w3.org/2000/svg" xmlns:xlink="http://www.w3.org/1999/xlink" preserveAspectRatio="xMidYMid" width="60" height="54" viewBox="0 0 60 54">
  <defs>
    <style>

      .cls-3 {
        fill: #142a3b;
      }

      .cls-4 {
        fill: #020403;
        opacity: 0.35;
      }

      .cls-6 {
        fill: #fbb713;
      }

      .cls-7 {
        fill: #2476ff;
      }

      .cls-11 {
        fill: #ff3a2f;
      }
    </style>
  </defs>
  <g id="group-108svg">
    <path d="M14.452,35.298 C14.452,35.298 4.523,35.298 4.523,35.298 C4.523,35.298 -0.010,43.911 -0.010,43.911 C-0.010,43.911 4.523,52.523 4.523,52.523 C4.523,52.523 14.452,52.523 14.452,52.523 C14.452,52.523 18.985,43.911 18.985,43.911 C18.985,43.911 14.452,35.298 14.452,35.298 ZM9.512,48.658 C6.872,48.658 4.731,46.529 4.731,43.901 C4.731,41.276 6.872,39.143 9.512,39.143 C12.151,39.143 14.292,41.276 14.292,43.901 C14.292,46.526 12.152,48.658 9.512,48.658 Z" id="path-1" class="cls-3" fill-rule="evenodd"/>
    <path d="M8.083,48.418 C6.146,47.811 4.731,46.029 4.731,43.901 C4.731,41.774 6.146,39.992 8.083,39.383 C7.630,39.242 7.156,39.143 6.655,39.143 C4.016,39.143 1.874,41.276 1.874,43.901 C1.874,46.529 4.016,48.658 6.655,48.658 C7.156,48.658 7.630,48.560 8.083,48.418 Z" id="path-2" class="cls-4" fill-rule="evenodd"/>
    <path d="M14.452,35.298 C14.452,35.298 11.596,35.298 11.596,35.298 C11.596,35.298 16.128,43.911 16.128,43.911 C16.128,43.911 11.596,52.523 11.596,52.523 C11.596,52.523 14.452,52.523 14.452,52.523 C14.452,52.523 18.985,43.911 18.985,43.911 C18.985,43.911 14.452,35.298 14.452,35.298 Z" id="path-3" class="cls-4" fill-rule="evenodd"/>
    <path d="M47.556,0.704 C48.219,0.042 52.261,-1.026 55.778,2.493 C55.778,2.493 57.281,3.994 57.281,3.994 C61.461,8.173 59.730,11.555 59.068,12.217 C59.068,12.217 35.252,31.993 35.252,31.993 C38.142,38.280 39.893,43.375 34.760,48.508 C30.312,52.955 23.984,54.371 18.282,52.795 C18.282,52.795 27.946,43.132 27.946,43.132 C28.572,42.506 28.478,41.400 27.740,40.661 C27.740,40.661 18.375,31.298 18.375,31.298 C17.638,30.561 16.533,30.466 15.908,31.091 C15.908,31.091 14.533,32.466 14.533,32.466 C14.533,32.466 6.101,32.466 6.101,32.466 C6.776,29.479 8.262,26.647 10.580,24.328 C15.713,19.196 20.819,20.958 27.104,23.847 C27.104,23.847 47.556,0.704 47.556,0.704 Z" id="path-4" class="cls-6" fill-rule="evenodd"/>
    <path d="M52.450,7.324 C53.756,8.630 54.513,9.989 52.479,12.024 C50.445,14.057 48.411,13.973 47.106,12.668 C45.802,11.362 45.717,9.329 47.752,7.295 C49.786,5.261 51.144,6.018 52.450,7.324 Z" id="path-5" class="cls-7" fill-rule="evenodd"/>
    <path d="M52.450,7.325 C52.287,7.161 52.123,7.006 51.957,6.865 C52.949,8.027 53.307,9.291 51.527,11.072 C49.747,12.851 47.968,13.008 46.677,12.146 C46.800,12.331 46.943,12.505 47.106,12.668 C48.411,13.973 50.445,14.057 52.479,12.024 C54.513,9.989 53.756,8.630 52.450,7.325 Z" id="path-6" class="cls-4" fill-rule="evenodd"/>
    <path d="M58.742,5.763 C59.516,8.139 58.568,9.861 58.116,10.312 C58.116,10.312 34.300,30.089 34.300,30.089 C37.189,36.375 38.940,41.472 33.808,46.604 C29.972,50.439 24.737,52.014 19.712,51.366 C19.712,51.366 18.282,52.795 18.282,52.795 C23.984,54.371 30.312,52.955 34.760,48.508 C39.893,43.375 38.142,38.280 35.252,31.993 C35.252,31.993 59.068,12.217 59.068,12.217 C59.634,11.651 60.966,9.099 58.742,5.763 Z" id="path-7" class="cls-4" fill-rule="evenodd"/>
    <path d="M27.399,40.321 C27.443,39.791 27.236,39.206 26.788,38.757 C26.788,38.757 17.423,29.394 17.423,29.394 C16.685,28.657 15.581,28.562 14.956,29.187 C14.956,29.187 13.581,30.562 13.581,30.562 C13.581,30.562 6.658,30.562 6.658,30.562 C6.436,31.188 6.246,31.822 6.101,32.466 C6.101,32.466 14.533,32.466 14.533,32.466 C14.533,32.466 15.908,31.091 15.908,31.091 C16.533,30.466 17.638,30.561 18.375,31.298 C18.375,31.298 27.399,40.321 27.399,40.321 Z" id="path-8" class="cls-4" fill-rule="evenodd"/>
    <path d="M36.766,51.605 C37.215,51.605 37.579,51.356 37.579,51.050 C37.579,50.744 37.215,50.495 36.766,50.495 C36.766,50.495 34.273,50.495 34.273,50.495 C33.824,50.495 33.460,50.744 33.460,51.050 C33.460,51.356 33.824,51.605 34.273,51.605 C34.273,51.605 36.766,51.605 36.766,51.605 Z" id="path-9" class="cls-11" fill-rule="evenodd"/>
    <path d="M14.622,11.708 C14.622,11.708 15.300,11.708 15.300,11.708 C15.431,11.708 15.538,11.847 15.538,12.018 C15.538,12.189 15.431,12.327 15.300,12.327 C15.300,12.327 15.269,12.327 15.269,12.327 C15.138,12.327 15.032,12.467 15.032,12.637 C15.032,12.809 15.138,12.947 15.269,12.947 C15.269,12.947 16.728,12.947 16.728,12.947 C16.859,12.947 16.965,13.086 16.965,13.257 C16.965,13.428 16.859,13.567 16.728,13.567 C16.728,13.567 14.975,13.567 14.975,13.567 C14.975,13.567 11.390,13.567 11.390,13.567 C11.259,13.567 11.153,13.428 11.153,13.257 C11.153,13.086 11.259,12.947 11.390,12.947 C11.390,12.947 11.795,12.947 11.795,12.947 C11.926,12.947 12.032,12.809 12.032,12.637 C12.032,12.467 11.926,12.327 11.795,12.327 C11.795,12.327 9.868,12.327 9.868,12.327 C9.737,12.327 9.631,12.189 9.631,12.018 C9.631,11.847 9.737,11.708 9.868,11.708 C9.868,11.708 10.323,11.708 10.323,11.708 C10.323,11.708 14.622,11.708 14.622,11.708 Z" id="path-10" class="cls-11" fill-rule="evenodd"/>
    <path d="M49.886,31.502 C49.886,31.502 50.810,31.502 50.810,31.502 C50.987,31.502 51.132,31.691 51.132,31.924 C51.132,32.156 50.987,32.345 50.810,32.345 C50.810,32.345 50.767,32.345 50.767,32.345 C50.588,32.345 50.443,32.534 50.443,32.767 C50.443,32.999 50.588,33.188 50.767,33.188 C50.767,33.188 52.752,33.188 52.752,33.188 C52.931,33.188 53.075,33.377 53.075,33.609 C53.075,33.843 52.931,34.031 52.752,34.031 C52.752,34.031 50.365,34.031 50.365,34.031 C50.365,34.031 45.487,34.031 45.487,34.031 C45.309,34.031 45.164,33.843 45.164,33.609 C45.164,33.377 45.309,33.188 45.487,33.188 C45.487,33.188 46.038,33.188 46.038,33.188 C46.216,33.188 46.360,32.999 46.360,32.767 C46.360,32.534 46.216,32.345 46.038,32.345 C46.038,32.345 43.415,32.345 43.415,32.345 C43.236,32.345 43.092,32.156 43.092,31.924 C43.092,31.691 43.236,31.502 43.415,31.502 C43.415,31.502 44.035,31.502 44.035,31.502 C44.035,31.502 49.886,31.502 49.886,31.502 Z" id="path-11" class="cls-11" fill-rule="evenodd"/>
    <path d="M7.346,14.275 C7.626,14.275 7.853,14.108 7.853,13.902 C7.853,13.695 7.626,13.528 7.346,13.528 C7.346,13.528 5.790,13.528 5.790,13.528 C5.510,13.528 5.282,13.695 5.282,13.902 C5.282,14.108 5.510,14.275 5.790,14.275 C5.790,14.275 7.346,14.275 7.346,14.275 Z" id="path-12" class="cls-11" fill-rule="evenodd"/>
    <path d="M52.375,46.788 C52.375,46.788 54.258,46.788 54.258,46.788 C54.621,46.788 54.916,47.144 54.916,47.584 C54.916,48.023 54.621,48.379 54.258,48.379 C54.258,48.379 54.171,48.379 54.171,48.379 C53.808,48.379 53.513,48.736 53.513,49.175 C53.513,49.615 53.808,49.971 54.171,49.971 C54.171,49.971 58.219,49.971 58.219,49.971 C58.582,49.971 58.876,50.326 58.876,50.766 C58.876,51.206 58.582,51.562 58.219,51.562 C58.219,51.562 53.353,51.562 53.353,51.562 C53.353,51.562 43.409,51.562 43.409,51.562 C43.046,51.562 42.752,51.206 42.752,50.766 C42.752,50.326 43.046,49.971 43.409,49.971 C43.409,49.971 44.533,49.971 44.533,49.971 C44.895,49.971 45.190,49.615 45.190,49.175 C45.190,48.736 44.895,48.379 44.533,48.379 C44.533,48.379 39.185,48.379 39.185,48.379 C38.822,48.379 38.528,48.023 38.528,47.584 C38.528,47.144 38.822,46.788 39.185,46.788 C39.185,46.788 40.449,46.788 40.449,46.788 C40.449,46.788 52.375,46.788 52.375,46.788 Z" id="path-13" class="cls-11" fill-rule="evenodd"/>
  </g>
</svg>
