<svg xmlns="http://www.w3.org/2000/svg" xmlns:xlink="http://www.w3.org/1999/xlink" preserveAspectRatio="xMidYMid" width="61" height="35" viewBox="0 0 61 35">
  <defs>
    <style>

      .cls-3 {
        fill: #ff3a2f;
      }

      .cls-7 {
        fill: #142a3b;
      }

      .cls-9 {
        fill: #090908;
        opacity: 0.35;
      }

      .cls-11 {
        fill: #fbb713;
      }

      .cls-12 {
        fill: #090908;
        opacity: 0.25;
      }
    </style>
  </defs>
  <g id="group-202svg">
    <path d="M44.865,34.247 C44.865,34.247 48.142,34.247 48.142,34.247 C48.773,34.247 49.286,33.828 49.286,33.310 C49.286,32.792 48.773,32.372 48.142,32.372 C48.142,32.372 47.989,32.372 47.989,32.372 C47.357,32.372 46.845,31.953 46.845,31.435 C46.845,30.918 47.357,30.498 47.989,30.498 C47.989,30.498 55.033,30.498 55.033,30.498 C55.665,30.498 56.177,30.078 56.177,29.560 C56.177,29.043 55.665,28.623 55.033,28.623 C55.033,28.623 46.568,28.623 46.568,28.623 C46.568,28.623 29.266,28.623 29.266,28.623 C28.634,28.623 28.122,29.043 28.122,29.560 C28.122,30.078 28.634,30.498 29.266,30.498 C29.266,30.498 31.220,30.498 31.220,30.498 C31.852,30.498 32.364,30.918 32.364,31.435 C32.364,31.953 31.852,32.372 31.220,32.372 C31.220,32.372 21.917,32.372 21.917,32.372 C21.285,32.372 20.772,32.792 20.772,33.310 C20.772,33.828 21.285,34.247 21.917,34.247 C21.917,34.247 24.115,34.247 24.115,34.247 C24.115,34.247 44.865,34.247 44.865,34.247 Z" id="path-1" class="cls-3" fill-rule="evenodd"/>
    <path d="M26.089,23.318 C26.089,23.318 27.821,23.318 27.821,23.318 C28.155,23.318 28.425,23.112 28.425,22.858 C28.425,22.603 28.155,22.397 27.821,22.397 C27.821,22.397 27.740,22.397 27.740,22.397 C27.406,22.397 27.136,22.191 27.136,21.937 C27.136,21.683 27.406,21.477 27.740,21.477 C27.740,21.477 31.463,21.477 31.463,21.477 C31.797,21.477 32.068,21.271 32.068,21.016 C32.068,20.763 31.797,20.556 31.463,20.556 C31.463,20.556 26.989,20.556 26.989,20.556 C26.989,20.556 17.845,20.556 17.845,20.556 C17.511,20.556 17.240,20.763 17.240,21.016 C17.240,21.271 17.511,21.477 17.845,21.477 C17.845,21.477 18.878,21.477 18.878,21.477 C19.211,21.477 19.482,21.683 19.482,21.937 C19.482,22.191 19.211,22.397 18.878,22.397 C18.878,22.397 13.960,22.397 13.960,22.397 C13.626,22.397 13.356,22.603 13.356,22.858 C13.356,23.112 13.626,23.318 13.960,23.318 C13.960,23.318 15.122,23.318 15.122,23.318 C15.122,23.318 26.089,23.318 26.089,23.318 Z" id="path-2" class="cls-3" fill-rule="evenodd"/>
    <path d="M23.403,28.558 C24.114,28.558 24.691,29.020 24.691,29.591 C24.691,30.161 24.114,30.624 23.403,30.624 C23.403,30.624 19.455,30.624 19.455,30.624 C18.743,30.624 18.166,30.161 18.166,29.591 C18.166,29.020 18.743,28.558 19.455,28.558 C19.455,28.558 23.403,28.558 23.403,28.558 Z" id="path-3" class="cls-3" fill-rule="evenodd"/>
    <path d="M58.670,32.672 C59.410,32.672 60.010,33.153 60.010,33.747 C60.010,34.341 59.410,34.822 58.670,34.822 C58.670,34.822 54.563,34.822 54.563,34.822 C53.823,34.822 53.223,34.341 53.223,33.747 C53.223,33.153 53.823,32.672 54.563,32.672 C54.563,32.672 58.670,32.672 58.670,32.672 Z" id="path-4" class="cls-3" fill-rule="evenodd"/>
    <path d="M42.054,32.446 C42.054,32.446 39.539,32.446 39.539,32.446 C39.539,32.446 39.539,13.336 39.539,13.336 C39.539,13.336 42.054,13.336 42.054,13.336 C42.054,13.336 42.054,32.446 42.054,32.446 Z" id="path-5" class="cls-7" fill-rule="evenodd"/>
    <path d="M11.690,32.446 C11.690,32.446 9.176,32.446 9.176,32.446 C9.176,32.446 9.176,13.336 9.176,13.336 C9.176,13.336 11.690,13.336 11.690,13.336 C11.690,13.336 11.690,32.446 11.690,32.446 Z" id="path-6" class="cls-7" fill-rule="evenodd"/>
    <path d="M39.539,17.939 C39.539,17.939 42.054,17.939 42.054,17.939 C42.054,17.939 42.054,14.946 42.054,14.946 C42.054,14.946 39.539,14.946 39.539,14.946 C39.539,14.946 39.539,17.939 39.539,17.939 Z" id="path-7" class="cls-9" fill-rule="evenodd"/>
    <path d="M9.176,17.939 C9.176,17.939 11.690,17.939 11.690,17.939 C11.690,17.939 11.690,14.946 11.690,14.946 C11.690,14.946 9.176,14.946 9.176,14.946 C9.176,14.946 9.176,17.939 9.176,17.939 Z" id="path-8" class="cls-9" fill-rule="evenodd"/>
    <path d="M49.522,14.946 C49.522,14.946 0.010,14.946 0.010,14.946 C0.010,14.946 0.010,0.010 0.010,0.010 C0.010,0.010 49.522,0.010 49.522,0.010 C49.522,0.010 49.522,14.946 49.522,14.946 Z" id="path-9" class="cls-11" fill-rule="evenodd"/>
    <path d="M44.121,0.010 C44.121,0.010 44.121,5.471 44.121,5.471 C44.121,8.715 41.491,11.345 38.248,11.345 C38.248,11.345 0.010,11.345 0.010,11.345 C0.010,11.345 0.010,14.946 0.010,14.946 C0.010,14.946 49.522,14.946 49.522,14.946 C49.522,14.946 49.522,0.010 49.522,0.010 C49.522,0.010 44.121,0.010 44.121,0.010 Z" id="path-10" class="cls-12" fill-rule="evenodd"/>
    <path d="M45.952,32.446 C45.952,32.446 35.642,32.446 35.642,32.446 C35.642,32.446 35.642,30.937 35.642,30.937 C35.642,30.937 45.952,30.937 45.952,30.937 C45.952,30.937 45.952,32.446 45.952,32.446 Z" id="path-11" class="cls-7" fill-rule="evenodd"/>
    <path d="M15.777,32.446 C15.777,32.446 5.467,32.446 5.467,32.446 C5.467,32.446 5.467,30.937 5.467,30.937 C5.467,30.937 15.777,30.937 15.777,30.937 C15.777,30.937 15.777,32.446 15.777,32.446 Z" id="path-12" class="cls-7" fill-rule="evenodd"/>
    <path d="M0.010,13.484 C0.010,13.484 0.010,14.946 0.010,14.946 C0.010,14.946 3.656,14.946 3.656,14.946 C3.656,14.946 17.699,0.010 17.699,0.010 C17.699,0.010 12.679,0.010 12.679,0.010 C12.679,0.010 0.010,13.484 0.010,13.484 Z" id="path-13" class="cls-7" fill-rule="evenodd"/>
    <path d="M13.267,14.946 C13.267,14.946 18.606,14.946 18.606,14.946 C18.606,14.946 32.355,0.010 32.355,0.010 C32.355,0.010 28.202,0.010 28.202,0.010 C28.202,0.010 13.267,14.946 13.267,14.946 Z" id="path-14" class="cls-7" fill-rule="evenodd"/>
    <path d="M29.527,14.946 C29.527,14.946 34.867,14.946 34.867,14.946 C34.867,14.946 48.616,0.010 48.616,0.010 C48.616,0.010 44.463,0.010 44.463,0.010 C44.463,0.010 29.527,14.946 29.527,14.946 Z" id="path-15" class="cls-7" fill-rule="evenodd"/>
  </g>
</svg>
