<svg xmlns="http://www.w3.org/2000/svg" xmlns:xlink="http://www.w3.org/1999/xlink" preserveAspectRatio="xMidYMid" width="60" height="55" viewBox="0 0 60 55">
  <defs>
    <style>

      .cls-3 {
        fill: #fbb713;
      }

      .cls-10 {
        fill: #ff3a2f;
      }

      .cls-11 {
        fill: #020403;
        opacity: 0.35;
      }

      .cls-12 {
        fill: #142a3b;
      }

      .cls-14 {
        fill: #2476ff;
      }

      .cls-15 {
        fill: #ededed;
      }

      .cls-16 {
        fill: #020403;
        opacity: 0.25;
      }
    </style>
  </defs>
  <g id="group-99svg">
    <path d="M19.724,9.071 C20.518,9.071 21.160,8.795 21.160,8.454 C21.160,8.113 20.518,7.837 19.724,7.837 C19.724,7.837 15.320,7.837 15.320,7.837 C14.527,7.837 13.884,8.113 13.884,8.454 C13.884,8.795 14.527,9.071 15.320,9.071 C15.320,9.071 19.724,9.071 19.724,9.071 Z" id="path-1" class="cls-3" fill-rule="evenodd"/>
    <path d="M9.621,0.490 C9.621,0.490 10.314,0.490 10.314,0.490 C10.447,0.490 10.556,0.632 10.556,0.807 C10.556,0.981 10.447,1.122 10.314,1.122 C10.314,1.122 10.281,1.122 10.281,1.122 C10.148,1.122 10.040,1.264 10.040,1.438 C10.040,1.613 10.148,1.754 10.281,1.754 C10.281,1.754 11.771,1.754 11.771,1.754 C11.904,1.754 12.013,1.896 12.013,2.071 C12.013,2.245 11.904,2.387 11.771,2.387 C11.771,2.387 9.981,2.387 9.981,2.387 C9.981,2.387 6.323,2.387 6.323,2.387 C6.189,2.387 6.081,2.245 6.081,2.071 C6.081,1.896 6.189,1.754 6.323,1.754 C6.323,1.754 6.736,1.754 6.736,1.754 C6.870,1.754 6.978,1.613 6.978,1.438 C6.978,1.264 6.870,1.122 6.736,1.122 C6.736,1.122 4.769,1.122 4.769,1.122 C4.636,1.122 4.527,0.981 4.527,0.807 C4.527,0.632 4.636,0.490 4.769,0.490 C4.769,0.490 5.234,0.490 5.234,0.490 C5.234,0.490 9.621,0.490 9.621,0.490 Z" id="path-2" class="cls-3" fill-rule="evenodd"/>
    <path d="M51.019,51.665 C51.019,51.665 51.786,51.665 51.786,51.665 C51.935,51.665 52.055,51.822 52.055,52.015 C52.055,52.208 51.935,52.365 51.786,52.365 C51.786,52.365 51.751,52.365 51.751,52.365 C51.602,52.365 51.483,52.521 51.483,52.714 C51.483,52.908 51.602,53.065 51.751,53.065 C51.751,53.065 53.399,53.065 53.399,53.065 C53.548,53.065 53.667,53.221 53.667,53.415 C53.667,53.608 53.548,53.765 53.399,53.765 C53.399,53.765 51.418,53.765 51.418,53.765 C51.418,53.765 47.368,53.765 47.368,53.765 C47.221,53.765 47.101,53.608 47.101,53.415 C47.101,53.221 47.221,53.065 47.368,53.065 C47.368,53.065 47.826,53.065 47.826,53.065 C47.974,53.065 48.094,52.908 48.094,52.714 C48.094,52.521 47.974,52.365 47.826,52.365 C47.826,52.365 45.648,52.365 45.648,52.365 C45.500,52.365 45.381,52.208 45.381,52.015 C45.381,51.822 45.500,51.665 45.648,51.665 C45.648,51.665 46.163,51.665 46.163,51.665 C46.163,51.665 51.019,51.665 51.019,51.665 Z" id="path-3" class="cls-3" fill-rule="evenodd"/>
    <path d="M2.196,3.110 C2.482,3.110 2.715,2.939 2.715,2.728 C2.715,2.517 2.482,2.346 2.196,2.346 C2.196,2.346 0.608,2.346 0.608,2.346 C0.322,2.346 0.090,2.517 0.090,2.728 C0.090,2.939 0.322,3.110 0.608,3.110 C0.608,3.110 2.196,3.110 2.196,3.110 Z" id="path-4" class="cls-3" fill-rule="evenodd"/>
    <path d="M4.724,27.349 C4.724,27.349 3.359,27.349 3.359,27.349 C3.096,27.349 2.883,27.686 2.883,28.102 C2.883,28.518 3.096,28.855 3.359,28.855 C3.359,28.855 3.423,28.855 3.423,28.855 C3.685,28.855 3.899,29.191 3.899,29.608 C3.899,30.023 3.685,30.361 3.423,30.361 C3.423,30.361 0.488,30.361 0.488,30.361 C0.226,30.361 0.012,30.698 0.012,31.113 C0.012,31.529 0.226,31.866 0.488,31.866 C0.488,31.866 4.015,31.866 4.015,31.866 C4.015,31.866 11.222,31.866 11.222,31.866 C11.485,31.866 11.698,31.529 11.698,31.113 C11.698,30.698 11.485,30.361 11.222,30.361 C11.222,30.361 10.407,30.361 10.407,30.361 C10.145,30.361 9.932,30.023 9.932,29.608 C9.932,29.191 10.145,28.855 10.407,28.855 C10.407,28.855 14.283,28.855 14.283,28.855 C14.547,28.855 14.760,28.518 14.760,28.102 C14.760,27.686 14.547,27.349 14.283,27.349 C14.283,27.349 13.367,27.349 13.367,27.349 C13.367,27.349 4.724,27.349 4.724,27.349 Z" id="path-5" class="cls-3" fill-rule="evenodd"/>
    <path d="M14.298,31.906 C13.972,31.906 13.708,31.672 13.708,31.382 C13.708,31.092 13.972,30.857 14.298,30.857 C14.298,30.857 16.104,30.857 16.104,30.857 C16.430,30.857 16.694,31.092 16.694,31.382 C16.694,31.672 16.430,31.906 16.104,31.906 C16.104,31.906 14.298,31.906 14.298,31.906 Z" id="path-6" class="cls-3" fill-rule="evenodd"/>
    <path d="M50.764,15.494 C50.764,15.494 53.442,15.494 53.442,15.494 C53.959,15.494 54.378,15.891 54.378,16.380 C54.378,16.869 53.959,17.266 53.442,17.266 C53.442,17.266 53.318,17.266 53.318,17.266 C52.802,17.266 52.383,17.662 52.383,18.151 C52.383,18.641 52.802,19.037 53.318,19.037 C53.318,19.037 59.076,19.037 59.076,19.037 C59.593,19.037 60.012,19.434 60.012,19.922 C60.012,20.411 59.593,20.808 59.076,20.808 C59.076,20.808 52.156,20.808 52.156,20.808 C52.156,20.808 38.011,20.808 38.011,20.808 C37.495,20.808 37.076,20.411 37.076,19.922 C37.076,19.434 37.495,19.037 38.011,19.037 C38.011,19.037 39.609,19.037 39.609,19.037 C40.126,19.037 40.545,18.641 40.545,18.151 C40.545,17.662 40.126,17.266 39.609,17.266 C39.609,17.266 32.003,17.266 32.003,17.266 C31.486,17.266 31.068,16.869 31.068,16.380 C31.068,15.891 31.486,15.494 32.003,15.494 C32.003,15.494 33.801,15.494 33.801,15.494 C33.801,15.494 50.764,15.494 50.764,15.494 Z" id="path-7" class="cls-3" fill-rule="evenodd"/>
    <path d="M40.976,12.120 C40.976,12.120 38.985,3.842 38.985,3.842 C38.985,3.842 38.849,2.288 38.849,2.288 C37.990,0.460 36.142,-0.003 34.145,-0.003 C32.146,-0.003 30.353,0.478 29.438,2.288 C29.438,2.288 29.172,3.774 29.172,3.774 C29.172,3.774 27.182,12.186 27.182,12.186 C27.182,12.186 40.976,12.120 40.976,12.120 Z" id="path-8" class="cls-10" fill-rule="evenodd"/>
    <path d="M38.986,3.842 C38.986,3.842 38.849,2.288 38.849,2.288 C38.276,1.068 37.258,0.464 36.054,0.192 C36.054,0.192 36.123,0.979 36.123,0.979 C36.123,0.979 37.068,4.912 37.068,4.912 C37.601,7.131 35.927,9.268 33.644,9.278 C33.644,9.278 27.598,10.428 27.598,10.428 C27.598,10.428 27.182,12.186 27.182,12.186 C27.182,12.186 40.976,12.120 40.976,12.120 C40.976,12.120 38.986,3.842 38.986,3.842 Z" id="path-9" class="cls-11" fill-rule="evenodd"/>
    <path d="M34.223,23.643 C40.318,23.643 45.239,26.267 48.025,32.374 C48.025,32.374 44.260,16.593 44.260,16.593 C44.260,16.593 44.216,15.783 44.216,15.783 C42.372,11.555 38.402,10.487 34.112,10.487 C29.822,10.487 25.974,11.600 24.010,15.783 C24.010,15.783 24.010,16.593 24.010,16.593 C24.010,16.593 19.728,34.071 19.728,34.071 C21.765,28.012 27.478,23.643 34.223,23.643 Z" id="path-10" class="cls-12" fill-rule="evenodd"/>
    <path d="M44.260,16.593 C44.260,16.593 44.216,15.783 44.216,15.783 C43.447,14.022 42.307,12.815 40.932,11.999 C40.932,11.999 42.993,20.636 42.993,20.636 C43.241,21.677 42.124,22.532 41.200,21.990 C36.100,18.996 26.009,21.653 21.879,25.291 C21.879,25.291 19.728,34.071 19.728,34.071 C21.765,28.012 27.478,23.643 34.223,23.643 C40.318,23.643 45.239,26.267 48.025,32.374 C48.025,32.374 44.260,16.593 44.260,16.593 Z" id="path-11" class="cls-11" fill-rule="evenodd"/>
    <path d="M49.523,38.133 C49.523,46.584 42.674,53.434 34.223,53.434 C25.772,53.434 18.922,46.584 18.922,38.133 C18.922,29.683 25.772,22.833 34.223,22.833 C42.674,22.833 49.523,29.683 49.523,38.133 Z" id="path-12" class="cls-14" fill-rule="evenodd"/>
    <path d="M44.053,38.133 C44.053,43.562 39.652,47.964 34.223,47.964 C28.794,47.964 24.393,43.562 24.393,38.133 C24.393,32.705 28.794,28.303 34.223,28.303 C39.652,28.303 44.053,32.705 44.053,38.133 Z" id="path-13" class="cls-15" fill-rule="evenodd"/>
    <path d="M25.203,39.753 C25.203,34.324 29.603,29.923 35.033,29.923 C38.561,29.923 41.646,31.789 43.381,34.581 C41.955,30.910 38.397,28.303 34.223,28.303 C28.794,28.303 24.393,32.705 24.393,38.133 C24.393,40.034 24.941,41.802 25.875,43.306 C25.447,42.203 25.203,41.008 25.203,39.753 Z" id="path-14" class="cls-16" fill-rule="evenodd"/>
  </g>
</svg>
