<svg xmlns="http://www.w3.org/2000/svg" xmlns:xlink="http://www.w3.org/1999/xlink" preserveAspectRatio="xMidYMid" width="61" height="43" viewBox="0 0 61 43">
  <defs>
    <style>

      .cls-3 {
        fill: #142a3b;
      }

      .cls-7 {
        fill: #ff3a2f;
      }

      .cls-10 {
        fill: #000000;
        opacity: 0.35;
      }
    </style>
  </defs>
  <g id="group-248svg">
    <path d="M19.777,33.267 C19.777,33.267 14.334,33.267 14.334,33.267 C13.285,33.267 12.434,33.911 12.434,34.706 C12.434,35.500 13.285,36.143 14.334,36.143 C14.334,36.143 14.587,36.143 14.587,36.143 C15.637,36.143 16.488,36.787 16.488,37.582 C16.488,38.376 15.637,39.020 14.587,39.020 C14.587,39.020 2.886,39.020 2.886,39.020 C1.837,39.020 0.986,39.664 0.986,40.458 C0.986,41.253 1.837,41.896 2.886,41.896 C2.886,41.896 16.948,41.896 16.948,41.896 C16.948,41.896 45.690,41.896 45.690,41.896 C46.739,41.896 47.590,41.253 47.590,40.458 C47.590,39.664 46.739,39.020 45.690,39.020 C45.690,39.020 42.442,39.020 42.442,39.020 C41.393,39.020 40.542,38.376 40.542,37.582 C40.542,36.787 41.393,36.143 42.442,36.143 C42.442,36.143 55.197,36.143 55.197,36.143 C56.246,36.143 57.097,35.500 57.097,34.706 C57.097,33.911 56.246,33.267 55.197,33.267 C55.197,33.267 54.245,33.267 54.245,33.267 C54.245,33.267 19.777,33.267 19.777,33.267 Z" id="path-1" class="cls-3" fill-rule="evenodd"/>
    <path d="M53.535,42.282 C52.655,42.282 51.942,41.591 51.942,40.740 C51.942,39.889 52.655,39.199 53.535,39.199 C53.535,39.199 58.417,39.199 58.417,39.199 C59.297,39.199 60.010,39.889 60.010,40.740 C60.010,41.591 59.297,42.282 58.417,42.282 C58.417,42.282 53.535,42.282 53.535,42.282 Z" id="path-2" class="cls-3" fill-rule="evenodd"/>
    <path d="M21.310,27.036 C20.512,27.036 19.865,26.595 19.865,26.051 C19.865,25.508 20.512,25.068 21.310,25.068 C21.310,25.068 25.738,25.068 25.738,25.068 C26.537,25.068 27.184,25.508 27.184,26.051 C27.184,26.595 26.537,27.036 25.738,27.036 C25.738,27.036 21.310,27.036 21.310,27.036 Z" id="path-3" class="cls-3" fill-rule="evenodd"/>
    <path d="M11.754,28.809 C11.754,28.809 13.307,28.809 13.307,28.809 C13.606,28.809 13.849,28.543 13.849,28.215 C13.849,27.886 13.606,27.620 13.307,27.620 C13.307,27.620 13.234,27.620 13.234,27.620 C12.935,27.620 12.692,27.354 12.692,27.026 C12.692,26.697 12.935,26.431 13.234,26.431 C13.234,26.431 16.572,26.431 16.572,26.431 C16.871,26.431 17.114,26.165 17.114,25.837 C17.114,25.509 16.871,25.243 16.572,25.243 C16.572,25.243 12.561,25.243 12.561,25.243 C12.561,25.243 4.364,25.243 4.364,25.243 C4.064,25.243 3.822,25.509 3.822,25.837 C3.822,26.165 4.064,26.431 4.364,26.431 C4.364,26.431 5.290,26.431 5.290,26.431 C5.589,26.431 5.832,26.697 5.832,27.026 C5.832,27.354 5.589,27.620 5.290,27.620 C5.290,27.620 0.882,27.620 0.882,27.620 C0.583,27.620 0.340,27.886 0.340,28.215 C0.340,28.543 0.583,28.809 0.882,28.809 C0.882,28.809 1.924,28.809 1.924,28.809 C1.924,28.809 11.754,28.809 11.754,28.809 Z" id="path-4" class="cls-3" fill-rule="evenodd"/>
    <path d="M52.225,34.746 C52.225,34.746 50.529,35.343 50.529,35.343 C50.529,35.343 39.700,4.587 39.700,4.587 C39.700,4.587 41.396,3.990 41.396,3.990 C41.396,3.990 52.225,34.746 52.225,34.746 Z" id="path-5" class="cls-7" fill-rule="evenodd"/>
    <path d="M3.736,34.746 C3.736,34.746 5.432,35.343 5.432,35.343 C5.432,35.343 16.261,4.587 16.261,4.587 C16.261,4.587 14.565,3.990 14.565,3.990 C14.565,3.990 3.736,34.746 3.736,34.746 Z" id="path-6" class="cls-7" fill-rule="evenodd"/>
    <path d="M54.988,5.079 C54.988,5.079 0.010,5.079 0.010,5.079 C0.010,5.079 0.010,0.015 0.010,0.015 C0.010,0.015 54.988,0.015 54.988,0.015 C54.988,0.015 54.988,5.079 54.988,5.079 Z" id="path-7" class="cls-7" fill-rule="evenodd"/>
    <path d="M54.988,5.079 C54.988,5.079 0.010,5.079 0.010,5.079 C0.010,5.079 0.010,2.471 0.010,2.471 C0.010,2.471 54.988,2.471 54.988,2.471 C54.988,2.471 54.988,5.079 54.988,5.079 Z" id="path-8" class="cls-10" fill-rule="evenodd"/>
  </g>
</svg>
