<svg xmlns="http://www.w3.org/2000/svg" xmlns:xlink="http://www.w3.org/1999/xlink" preserveAspectRatio="xMidYMid" width="60" height="59" viewBox="0 0 60 59">
  <defs>
    <style>

      .cls-3 {
        fill: #2476ff;
      }

      .cls-5 {
        fill: #0cb04a;
      }

      .cls-7 {
        fill: #ff3a2f;
      }

      .cls-8 {
        fill: #000000;
        opacity: 0.35;
      }

      .cls-13 {
        fill: #fbb713;
      }

      .cls-15 {
        fill: #142a3b;
      }

      .cls-17 {
        fill: #ededed;
      }
    </style>
  </defs>
  <g id="group-265svg">
    <path d="M19.117,49.538 C19.117,49.538 13.584,49.538 13.584,49.538 C12.517,49.538 11.652,50.193 11.652,51.000 C11.652,51.808 12.517,52.462 13.584,52.462 C13.584,52.462 13.841,52.462 13.841,52.462 C14.908,52.462 15.773,53.116 15.773,53.924 C15.773,54.731 14.908,55.386 13.841,55.386 C13.841,55.386 1.947,55.386 1.947,55.386 C0.880,55.386 0.016,56.041 0.016,56.848 C0.016,57.655 0.880,58.310 1.947,58.310 C1.947,58.310 16.241,58.310 16.241,58.310 C16.241,58.310 45.458,58.310 45.458,58.310 C46.525,58.310 47.390,57.655 47.390,56.848 C47.390,56.041 46.525,55.386 45.458,55.386 C45.458,55.386 42.157,55.386 42.157,55.386 C41.090,55.386 40.225,54.731 40.225,53.924 C40.225,53.116 41.090,52.462 42.157,52.462 C42.157,52.462 55.122,52.462 55.122,52.462 C56.189,52.462 57.054,51.808 57.054,51.000 C57.054,50.193 56.189,49.538 55.122,49.538 C55.122,49.538 54.155,49.538 54.155,49.538 C54.155,49.538 19.117,49.538 19.117,49.538 Z" id="path-1" class="cls-3" fill-rule="evenodd"/>
    <path d="M53.433,58.702 C52.539,58.702 51.813,58.000 51.813,57.135 C51.813,56.269 52.539,55.568 53.433,55.568 C53.433,55.568 58.396,55.568 58.396,55.568 C59.290,55.568 60.016,56.269 60.016,57.135 C60.016,58.000 59.290,58.702 58.396,58.702 C58.396,58.702 53.433,58.702 53.433,58.702 Z" id="path-2" class="cls-3" fill-rule="evenodd"/>
    <path d="M30.389,31.517 C30.389,31.517 28.776,31.517 28.776,31.517 C28.776,31.517 28.776,22.896 28.776,22.896 C28.776,22.896 30.389,22.896 30.389,22.896 C30.389,22.896 30.389,31.517 30.389,31.517 Z" id="path-3" class="cls-5" fill-rule="evenodd"/>
    <path d="M34.890,26.289 C34.890,26.289 30.754,30.425 30.754,30.425 C30.486,30.693 30.051,30.693 29.783,30.425 C29.783,30.425 29.783,30.425 29.783,30.425 C29.516,30.157 29.516,29.722 29.783,29.454 C29.783,29.454 33.919,25.318 33.919,25.318 C34.187,25.050 34.622,25.050 34.890,25.319 C34.890,25.319 34.890,25.319 34.890,25.319 C35.158,25.587 35.158,26.021 34.890,26.289 Z" id="path-4" class="cls-5" fill-rule="evenodd"/>
    <path d="M42.455,12.773 C42.455,10.744 40.810,9.100 38.781,9.100 C38.697,9.100 38.616,9.107 38.533,9.112 C38.595,9.058 38.658,9.005 38.717,8.945 C40.152,7.511 40.152,5.185 38.717,3.751 C37.283,2.316 34.957,2.316 33.523,3.751 C33.463,3.810 33.411,3.873 33.356,3.935 C33.362,3.853 33.369,3.771 33.369,3.687 C33.369,1.659 31.724,0.014 29.695,0.014 C27.667,0.014 26.022,1.659 26.022,3.687 C26.022,3.771 26.029,3.853 26.035,3.935 C25.980,3.873 25.928,3.810 25.868,3.751 C24.434,2.316 22.108,2.316 20.674,3.751 C19.239,5.185 19.239,7.511 20.674,8.945 C20.733,9.005 20.796,9.058 20.858,9.112 C20.775,9.107 20.693,9.100 20.610,9.100 C18.581,9.100 16.936,10.744 16.936,12.773 C16.936,14.801 18.581,16.446 20.610,16.446 C20.693,16.446 20.775,16.439 20.858,16.433 C20.796,16.488 20.733,16.541 20.674,16.600 C19.239,18.034 19.239,20.360 20.674,21.795 C22.108,23.229 24.434,23.229 25.868,21.795 C25.928,21.736 25.980,21.673 26.035,21.610 C26.029,21.692 26.022,21.775 26.022,21.859 C26.022,23.887 27.667,25.532 29.695,25.532 C31.724,25.532 33.369,23.887 33.369,21.859 C33.369,21.775 33.362,21.692 33.356,21.610 C33.411,21.673 33.463,21.736 33.523,21.795 C34.957,23.229 37.283,23.229 38.717,21.795 C40.152,20.360 40.152,18.034 38.717,16.600 C38.658,16.541 38.595,16.488 38.533,16.433 C38.616,16.439 38.697,16.446 38.781,16.446 C40.810,16.446 42.455,14.801 42.455,12.773 Z" id="path-5" class="cls-7" fill-rule="evenodd"/>
    <path d="M31.401,2.703 C31.401,2.787 31.394,2.869 31.389,2.952 C31.443,2.890 31.496,2.826 31.555,2.767 C31.948,2.375 32.409,2.100 32.898,1.922 C32.364,0.955 31.417,0.257 30.286,0.073 C30.972,0.741 31.401,1.670 31.401,2.703 Z" id="path-6" class="cls-8" fill-rule="evenodd"/>
    <path d="M36.750,2.767 C38.184,4.201 38.184,6.527 36.750,7.962 C36.691,8.021 36.628,8.074 36.565,8.129 C36.648,8.123 36.730,8.116 36.814,8.116 C37.579,8.116 38.288,8.351 38.876,8.751 C40.134,7.308 40.091,5.125 38.717,3.751 C38.150,3.183 37.442,2.850 36.706,2.731 C36.720,2.745 36.736,2.753 36.750,2.767 Z" id="path-7" class="cls-8" fill-rule="evenodd"/>
    <path d="M42.455,12.773 C42.455,10.946 41.118,9.443 39.372,9.159 C40.058,9.826 40.487,10.757 40.487,11.789 C40.487,13.818 38.842,15.462 36.814,15.462 C36.730,15.462 36.648,15.455 36.565,15.450 C36.628,15.504 36.691,15.557 36.750,15.617 C38.184,17.051 38.184,19.377 36.750,20.811 C35.883,21.678 34.691,22.011 33.567,21.831 C35.004,23.225 37.297,23.216 38.717,21.795 C40.152,20.360 40.152,18.034 38.717,16.600 C38.658,16.541 38.595,16.488 38.533,16.433 C38.616,16.439 38.697,16.446 38.781,16.446 C40.810,16.446 42.455,14.801 42.455,12.773 Z" id="path-8" class="cls-8" fill-rule="evenodd"/>
    <path d="M24.055,20.875 C24.055,20.791 24.062,20.709 24.067,20.627 C24.013,20.689 23.960,20.752 23.901,20.811 C23.034,21.678 21.842,22.011 20.717,21.831 C21.758,22.840 23.243,23.105 24.525,22.640 C24.235,22.113 24.055,21.518 24.055,20.875 Z" id="path-9" class="cls-8" fill-rule="evenodd"/>
    <path d="M31.555,20.811 C31.496,20.752 31.443,20.689 31.389,20.627 C31.394,20.709 31.401,20.791 31.401,20.875 C31.401,22.903 29.757,24.548 27.728,24.548 C27.526,24.548 27.331,24.520 27.138,24.489 C27.799,25.132 28.700,25.532 29.695,25.532 C31.724,25.532 33.369,23.887 33.369,21.859 C33.369,21.837 33.366,21.816 33.366,21.794 C32.703,21.649 32.071,21.327 31.555,20.811 Z" id="path-10" class="cls-8" fill-rule="evenodd"/>
    <path d="M36.359,12.773 C36.359,16.453 33.375,19.436 29.695,19.436 C26.016,19.436 23.032,16.453 23.032,12.773 C23.032,9.093 26.016,6.110 29.695,6.110 C33.375,6.110 36.359,9.093 36.359,12.773 Z" id="path-11" class="cls-13" fill-rule="evenodd"/>
    <path d="M33.888,7.597 C34.817,8.742 35.375,10.200 35.375,11.789 C35.375,15.470 32.392,18.452 28.712,18.452 C27.122,18.452 25.664,17.894 24.519,16.965 C25.741,18.472 27.605,19.436 29.695,19.436 C33.375,19.436 36.359,16.453 36.359,12.773 C36.359,10.682 35.394,8.818 33.888,7.597 Z" id="path-12" class="cls-8" fill-rule="evenodd"/>
    <path d="M36.169,54.120 C36.169,54.120 24.315,54.120 24.315,54.120 C24.315,54.120 16.767,31.474 16.767,31.474 C16.767,31.474 43.717,31.474 43.717,31.474 C43.717,31.474 36.169,54.120 36.169,54.120 Z" id="path-13" class="cls-15" fill-rule="evenodd"/>
    <path d="M16.767,31.474 C16.767,31.474 17.750,34.425 17.750,34.425 C17.750,34.425 30.278,34.425 30.278,34.425 C33.986,34.425 36.604,38.058 35.431,41.576 C35.431,41.576 31.250,54.120 31.250,54.120 C31.250,54.120 36.169,54.120 36.169,54.120 C36.169,54.120 43.717,31.474 43.717,31.474 C43.717,31.474 16.767,31.474 16.767,31.474 Z" id="path-14" class="cls-8" fill-rule="evenodd"/>
    <path d="M25.769,49.457 C25.338,49.457 24.939,49.174 24.811,48.739 C24.811,48.739 21.663,38.082 21.663,38.082 C21.506,37.552 21.809,36.996 22.338,36.840 C22.866,36.685 23.424,36.986 23.581,37.515 C23.581,37.515 26.729,48.172 26.729,48.172 C26.886,48.702 26.583,49.258 26.053,49.415 C25.959,49.443 25.863,49.457 25.769,49.457 Z" id="path-15" class="cls-17" fill-rule="evenodd"/>
  </g>
</svg>
