<svg xmlns="http://www.w3.org/2000/svg" xmlns:xlink="http://www.w3.org/1999/xlink" preserveAspectRatio="xMidYMid" width="53" height="61" viewBox="0 0 53 61">
  <defs>
    <style>

      .cls-3 {
        fill: #098136;
      }

      .cls-5 {
        fill: #142a3b;
      }

      .cls-6 {
        fill: #0cb04a;
      }

      .cls-7 {
        fill: #ffe56d;
      }

      .cls-9 {
        fill: #ff3a2f;
      }
    </style>
  </defs>
  <g id="group-14svg">
    <path d="M45.813,13.007 C45.813,13.007 45.813,43.634 45.813,43.634 C45.813,46.881 43.181,49.514 39.934,49.514 C39.934,49.514 43.163,49.514 43.163,49.514 C46.410,49.514 49.042,46.881 49.042,43.634 C49.042,43.634 49.042,13.007 49.042,13.007 C49.042,13.007 45.813,13.007 45.813,13.007 Z" id="path-1" class="cls-3" fill-rule="evenodd"/>
    <path d="M49.042,11.752 C49.042,11.752 49.042,10.479 49.042,10.479 C49.042,7.232 46.410,4.600 43.163,4.600 C43.163,4.600 39.934,4.600 39.934,4.600 C43.181,4.600 45.813,7.232 45.813,10.479 C45.813,10.479 45.813,11.886 45.813,11.886 C45.813,11.886 45.813,11.886 45.813,11.886 " id="path-2" class="cls-3" fill-rule="evenodd"/>
    <path d="M51.657,13.148 C51.657,13.148 5.217,13.148 5.217,13.148 C4.664,13.148 4.217,12.700 4.217,12.148 C4.217,12.148 4.217,0.008 4.217,0.008 C4.217,0.008 6.217,0.008 6.217,0.008 C6.217,0.008 6.217,11.148 6.217,11.148 C6.217,11.148 50.657,11.148 50.657,11.148 C50.657,11.148 50.657,0.008 50.657,0.008 C50.657,0.008 52.657,0.008 52.657,0.008 C52.657,0.008 52.657,12.148 52.657,12.148 C52.657,12.700 52.209,13.148 51.657,13.148 Z" id="path-3" class="cls-5" fill-rule="evenodd"/>
    <path d="M40.351,49.514 C40.351,49.514 16.523,49.514 16.523,49.514 C13.506,49.514 11.061,47.068 11.061,44.050 C11.061,44.050 11.061,10.062 11.061,10.062 C11.061,7.045 13.506,4.600 16.523,4.600 C16.523,4.600 40.351,4.600 40.351,4.600 C43.368,4.600 45.813,7.045 45.813,10.062 C45.813,10.062 45.813,44.050 45.813,44.050 C45.813,47.068 43.368,49.514 40.351,49.514 Z" id="path-4" class="cls-6" fill-rule="evenodd"/>
    <path d="M44.298,35.662 C44.298,35.662 12.576,35.662 12.576,35.662 C12.023,35.662 11.576,35.214 11.576,34.662 C11.576,34.110 12.023,33.662 12.576,33.662 C12.576,33.662 44.298,33.662 44.298,33.662 C44.851,33.662 45.298,34.110 45.298,34.662 C45.298,35.214 44.851,35.662 44.298,35.662 Z" id="path-5" class="cls-7" fill-rule="evenodd"/>
    <path d="M44.298,43.196 C44.298,43.196 12.576,43.196 12.576,43.196 C12.023,43.196 11.576,42.748 11.576,42.195 C11.576,41.643 12.023,41.195 12.576,41.195 C12.576,41.195 44.298,41.195 44.298,41.195 C44.851,41.195 45.298,41.643 45.298,42.195 C45.298,42.748 44.851,43.196 44.298,43.196 Z" id="path-6" class="cls-7" fill-rule="evenodd"/>
    <path d="M15.138,54.170 C15.138,54.170 18.222,54.170 18.222,54.170 C18.816,54.170 19.298,54.606 19.298,55.143 C19.298,55.681 18.816,56.116 18.222,56.116 C18.222,56.116 18.078,56.116 18.078,56.116 C17.483,56.116 17.001,56.552 17.001,57.089 C17.001,57.626 17.483,58.062 18.078,58.062 C18.078,58.062 24.708,58.062 24.708,58.062 C25.303,58.062 25.785,58.498 25.785,59.035 C25.785,59.572 25.303,60.008 24.708,60.008 C24.708,60.008 16.741,60.008 16.741,60.008 C16.741,60.008 7.983,60.008 7.983,60.008 C7.389,60.008 6.907,59.572 6.907,59.035 C6.907,58.498 7.389,58.062 7.983,58.062 C7.983,58.062 9.823,58.062 9.823,58.062 C10.418,58.062 10.900,57.626 10.900,57.089 C10.900,56.552 10.418,56.116 9.823,56.116 C9.823,56.116 1.066,56.116 1.066,56.116 C0.472,56.116 -0.011,55.681 -0.011,55.143 C-0.011,54.606 0.472,54.170 1.066,54.170 C1.066,54.170 3.136,54.170 3.136,54.170 C3.136,54.170 15.138,54.170 15.138,54.170 Z" id="path-7" class="cls-9" fill-rule="evenodd"/>
    <path d="M44.183,56.070 C45.455,56.070 46.486,55.417 46.486,54.611 C46.486,53.805 45.455,53.152 44.183,53.152 C44.183,53.152 37.125,53.152 37.125,53.152 C35.853,53.152 34.822,53.805 34.822,54.611 C34.822,55.417 35.853,56.070 37.125,56.070 C37.125,56.070 44.183,56.070 44.183,56.070 Z" id="path-8" class="cls-9" fill-rule="evenodd"/>
  </g>
</svg>
