<svg xmlns="http://www.w3.org/2000/svg" xmlns:xlink="http://www.w3.org/1999/xlink" preserveAspectRatio="xMidYMid" width="60" height="38" viewBox="0 0 60 38">
  <defs>
    <style>

      .cls-3 {
        fill: #ff3a2f;
      }

      .cls-5 {
        fill: #0cb04a;
      }

      .cls-6 {
        fill: #000000;
        opacity: 0.35;
      }

      .cls-8 {
        fill: #142a3b;
      }

      .cls-9 {
        fill: #ededed;
      }
    </style>
  </defs>
  <g id="group-232svg">
    <path d="M27.839,37.046 C27.839,37.046 31.623,37.046 31.623,37.046 C32.354,37.046 32.945,36.702 32.945,36.279 C32.945,35.855 32.354,35.511 31.623,35.511 C31.623,35.511 31.447,35.511 31.447,35.511 C30.718,35.511 30.126,35.168 30.126,34.745 C30.126,34.321 30.718,33.977 31.447,33.977 C31.447,33.977 39.583,33.977 39.583,33.977 C40.313,33.977 40.905,33.634 40.905,33.210 C40.905,32.787 40.313,32.443 39.583,32.443 C39.583,32.443 29.806,32.443 29.806,32.443 C29.806,32.443 9.821,32.443 9.821,32.443 C9.091,32.443 8.499,32.787 8.499,33.210 C8.499,33.634 9.091,33.977 9.821,33.977 C9.821,33.977 12.079,33.977 12.079,33.977 C12.809,33.977 13.400,34.321 13.400,34.745 C13.400,35.168 12.809,35.511 12.079,35.511 C12.079,35.511 1.332,35.511 1.332,35.511 C0.602,35.511 0.011,35.855 0.011,36.279 C0.011,36.702 0.602,37.046 1.332,37.046 C1.332,37.046 3.872,37.046 3.872,37.046 C3.872,37.046 27.839,37.046 27.839,37.046 Z" id="path-1" class="cls-3" fill-rule="evenodd"/>
    <path d="M43.184,35.659 C44.007,35.659 44.673,36.037 44.673,36.504 C44.673,36.972 44.007,37.350 43.184,37.350 C43.184,37.350 38.625,37.350 38.625,37.350 C37.803,37.350 37.137,36.972 37.137,36.504 C37.137,36.037 37.803,35.659 38.625,35.659 C38.625,35.659 43.184,35.659 43.184,35.659 Z" id="path-2" class="cls-3" fill-rule="evenodd"/>
    <path d="M54.840,0.015 C54.840,0.015 15.543,0.015 15.543,0.015 C12.692,0.015 10.372,2.333 10.372,5.185 C10.372,5.185 10.372,27.936 10.372,27.936 C10.372,30.788 12.692,33.107 15.543,33.107 C15.543,33.107 54.840,33.107 54.840,33.107 C57.691,33.107 60.011,30.788 60.011,27.936 C60.011,27.936 60.011,5.185 60.011,5.185 C60.011,2.333 57.691,0.015 54.840,0.015 Z" id="path-3" class="cls-5" fill-rule="evenodd"/>
    <path d="M57.476,0.744 C57.937,1.517 58.206,2.417 58.206,3.380 C58.206,3.380 58.206,26.131 58.206,26.131 C58.206,28.983 55.886,31.301 53.035,31.301 C53.035,31.301 13.738,31.301 13.738,31.301 C12.774,31.301 11.875,31.032 11.102,30.572 C12.005,32.087 13.655,33.107 15.543,33.107 C15.543,33.107 54.840,33.107 54.840,33.107 C57.691,33.107 60.011,30.788 60.011,27.936 C60.011,27.936 60.011,5.185 60.011,5.185 C60.011,3.297 58.991,1.647 57.476,0.744 Z" id="path-4" class="cls-6" fill-rule="evenodd"/>
    <path d="M18.645,20.697 C18.645,20.697 26.918,20.697 26.918,20.697 C27.490,20.697 27.953,21.160 27.953,21.731 C27.953,22.303 27.490,22.766 26.918,22.766 C26.918,22.766 18.645,22.766 18.645,22.766 C18.074,22.766 17.611,22.303 17.611,21.731 C17.611,21.160 18.074,20.697 18.645,20.697 Z" id="path-5" class="cls-3" fill-rule="evenodd"/>
    <path d="M31.055,26.902 C31.055,26.902 18.645,26.902 18.645,26.902 C18.074,26.902 17.611,26.439 17.611,25.868 C17.611,25.296 18.074,24.834 18.645,24.834 C18.645,24.834 31.055,24.834 31.055,24.834 C31.626,24.834 32.089,25.296 32.089,25.868 C32.089,26.439 31.626,26.902 31.055,26.902 Z" id="path-6" class="cls-8" fill-rule="evenodd"/>
    <path d="M53.806,15.526 C53.806,16.098 53.344,16.560 52.772,16.560 C52.772,16.560 44.499,16.560 44.499,16.560 C43.927,16.560 43.465,16.098 43.465,15.526 C43.465,15.526 43.465,7.253 43.465,7.253 C43.465,6.681 43.927,6.219 44.499,6.219 C44.499,6.219 52.772,6.219 52.772,6.219 C53.344,6.219 53.806,6.681 53.806,7.253 C53.806,7.253 53.806,15.526 53.806,15.526 Z" id="path-7" class="cls-9" fill-rule="evenodd"/>
    <path d="M54.577,8.024 C54.577,8.024 53.806,8.024 53.806,8.024 C53.806,8.024 53.806,15.526 53.806,15.526 C53.806,16.098 53.344,16.560 52.772,16.560 C52.772,16.560 45.270,16.560 45.270,16.560 C45.270,16.560 45.270,17.331 45.270,17.331 C45.270,17.903 45.732,18.366 46.304,18.366 C46.304,18.366 54.577,18.366 54.577,18.366 C55.148,18.366 55.611,17.903 55.611,17.331 C55.611,17.331 55.611,9.058 55.611,9.058 C55.611,8.487 55.148,8.024 54.577,8.024 Z" id="path-8" class="cls-6" fill-rule="evenodd"/>
  </g>
</svg>
