<svg xmlns="http://www.w3.org/2000/svg" xmlns:xlink="http://www.w3.org/1999/xlink" preserveAspectRatio="xMidYMid" width="60" height="45" viewBox="0 0 60 45">
  <defs>
    <style>

      .cls-3 {
        fill: #ff3a2f;
      }

      .cls-6 {
        fill: #0cb04a;
      }

      .cls-7 {
        fill: #010101;
        opacity: 0.35;
      }

      .cls-12 {
        fill: #142a3b;
      }
    </style>
  </defs>
  <g id="group-122svg">
    <path d="M26.148,39.450 C26.148,39.450 30.303,39.450 30.303,39.450 C31.104,39.450 31.752,39.741 31.752,40.100 C31.752,40.459 31.104,40.750 30.303,40.750 C30.303,40.750 30.109,40.750 30.109,40.750 C29.309,40.750 28.659,41.042 28.659,41.401 C28.659,41.760 29.309,42.052 30.109,42.052 C30.109,42.052 39.038,42.052 39.038,42.052 C39.839,42.052 40.487,42.343 40.487,42.702 C40.487,43.061 39.839,43.352 39.038,43.352 C39.038,43.352 28.308,43.352 28.308,43.352 C28.308,43.352 16.514,43.352 16.514,43.352 C15.713,43.352 15.064,43.061 15.064,42.702 C15.064,42.343 15.713,42.052 16.514,42.052 C16.514,42.052 18.992,42.052 18.992,42.052 C19.793,42.052 20.442,41.760 20.442,41.401 C20.442,41.042 19.793,40.750 18.992,40.750 C18.992,40.750 7.199,40.750 7.199,40.750 C6.398,40.750 5.749,40.459 5.749,40.100 C5.749,39.741 6.398,39.450 7.199,39.450 C7.199,39.450 9.986,39.450 9.986,39.450 C9.986,39.450 26.148,39.450 26.148,39.450 Z" id="path-1" class="cls-3" fill-rule="evenodd"/>
    <path d="M51.856,43.915 C52.770,43.915 53.512,43.582 53.512,43.172 C53.512,42.762 52.770,42.430 51.856,42.430 C51.856,42.430 46.783,42.430 46.783,42.430 C45.868,42.430 45.127,42.762 45.127,43.172 C45.127,43.582 45.868,43.915 46.783,43.915 C46.783,43.915 51.856,43.915 51.856,43.915 Z" id="path-2" class="cls-3" fill-rule="evenodd"/>
    <path d="M51.232,35.452 C51.232,35.452 53.140,35.452 53.140,35.452 C53.508,35.452 53.806,35.617 53.806,35.821 C53.806,36.025 53.508,36.190 53.140,36.190 C53.140,36.190 53.051,36.190 53.051,36.190 C52.684,36.190 52.385,36.355 52.385,36.559 C52.385,36.763 52.684,36.928 53.051,36.928 C53.051,36.928 57.150,36.928 57.150,36.928 C57.518,36.928 57.816,37.093 57.816,37.297 C57.816,37.501 57.518,37.666 57.150,37.666 C57.150,37.666 52.224,37.666 52.224,37.666 C52.224,37.666 42.153,37.666 42.153,37.666 C41.785,37.666 41.487,37.501 41.487,37.297 C41.487,37.093 41.785,36.928 42.153,36.928 C42.153,36.928 43.291,36.928 43.291,36.928 C43.658,36.928 43.957,36.763 43.957,36.559 C43.957,36.355 43.658,36.190 43.291,36.190 C43.291,36.190 37.875,36.190 37.875,36.190 C37.508,36.190 37.210,36.025 37.210,35.821 C37.210,35.617 37.508,35.452 37.875,35.452 C37.875,35.452 39.155,35.452 39.155,35.452 C39.155,35.452 51.232,35.452 51.232,35.452 Z" id="path-3" class="cls-3" fill-rule="evenodd"/>
    <path d="M49.133,14.707 C43.137,14.707 38.276,19.563 38.276,25.552 C38.276,31.542 43.137,36.398 49.133,36.398 C55.129,36.398 59.989,31.542 59.989,25.552 C59.989,19.563 55.129,14.707 49.133,14.707 ZM49.133,32.462 C45.312,32.462 42.217,29.369 42.217,25.552 C42.217,21.737 45.312,18.643 49.133,18.643 C52.953,18.643 56.049,21.737 56.049,25.552 C56.049,29.369 52.953,32.462 49.133,32.462 Z" id="path-4" class="cls-6" fill-rule="evenodd"/>
    <path d="M48.176,18.716 C47.862,18.673 47.544,18.643 47.219,18.643 C43.398,18.643 40.302,21.737 40.302,25.552 C40.302,29.369 43.398,32.462 47.219,32.462 C47.544,32.462 47.862,32.432 48.176,32.388 C44.810,31.922 42.217,29.043 42.217,25.552 C42.217,22.062 44.810,19.184 48.176,18.716 Z" id="path-5" class="cls-7" fill-rule="evenodd"/>
    <path d="M49.133,14.707 C48.810,14.707 48.491,14.728 48.176,14.755 C53.723,15.241 58.074,19.886 58.074,25.552 C58.074,31.220 53.723,35.865 48.176,36.350 C48.491,36.377 48.810,36.398 49.133,36.398 C55.129,36.398 59.989,31.542 59.989,25.552 C59.989,19.563 55.129,14.707 49.133,14.707 Z" id="path-6" class="cls-7" fill-rule="evenodd"/>
    <path d="M10.846,14.707 C4.850,14.707 -0.011,19.563 -0.011,25.552 C-0.011,31.542 4.850,36.398 10.846,36.398 C16.842,36.398 21.702,31.542 21.702,25.552 C21.702,19.563 16.842,14.707 10.846,14.707 ZM10.846,32.462 C7.025,32.462 3.929,29.369 3.929,25.552 C3.929,21.737 7.025,18.643 10.846,18.643 C14.665,18.643 17.762,21.737 17.762,25.552 C17.762,29.369 14.665,32.462 10.846,32.462 Z" id="path-7" class="cls-6" fill-rule="evenodd"/>
    <path d="M9.889,18.716 C9.574,18.673 9.257,18.643 8.932,18.643 C5.111,18.643 2.015,21.737 2.015,25.552 C2.015,29.369 5.111,32.462 8.932,32.462 C9.257,32.462 9.574,32.432 9.889,32.388 C6.522,31.922 3.929,29.043 3.929,25.552 C3.929,22.062 6.522,19.184 9.889,18.716 Z" id="path-8" class="cls-7" fill-rule="evenodd"/>
    <path d="M10.846,14.707 C10.522,14.707 10.204,14.728 9.889,14.755 C15.435,15.241 19.787,19.886 19.787,25.552 C19.787,31.220 15.435,35.865 9.889,36.350 C10.204,36.377 10.522,36.398 10.846,36.398 C16.842,36.398 21.702,31.542 21.702,25.552 C21.702,19.563 16.842,14.707 10.846,14.707 Z" id="path-9" class="cls-7" fill-rule="evenodd"/>
    <path d="M51.850,25.552 C51.850,27.052 50.633,28.267 49.133,28.267 C47.633,28.267 46.416,27.052 46.416,25.552 C46.416,24.054 47.633,22.839 49.133,22.839 C50.633,22.839 51.850,24.054 51.850,25.552 Z" id="path-10" class="cls-12" fill-rule="evenodd"/>
    <path d="M13.260,26.102 C13.260,27.600 12.044,28.815 10.543,28.815 C9.043,28.815 7.826,27.600 7.826,26.102 C7.826,24.602 9.043,23.387 10.543,23.387 C12.044,23.387 13.260,24.602 13.260,26.102 Z" id="path-11" class="cls-12" fill-rule="evenodd"/>
    <path d="M34.567,26.102 C34.567,27.600 33.351,28.815 31.851,28.815 C30.350,28.815 29.134,27.600 29.134,26.102 C29.134,24.602 30.350,23.387 31.851,23.387 C33.351,23.387 34.567,24.602 34.567,26.102 Z" id="path-12" class="cls-12" fill-rule="evenodd"/>
    <path d="M32.436,26.552 C32.436,26.552 8.780,26.552 8.780,26.552 C8.780,26.552 20.877,7.054 20.877,7.054 C20.877,7.054 43.551,7.054 43.551,7.054 C44.103,7.054 44.551,7.502 44.551,8.054 C44.551,8.607 44.103,9.055 43.551,9.055 C43.551,9.055 40.120,9.055 40.120,9.055 C40.120,9.055 32.436,26.552 32.436,26.552 ZM12.374,24.552 C12.374,24.552 31.129,24.552 31.129,24.552 C31.129,24.552 37.935,9.055 37.935,9.055 C37.935,9.055 21.990,9.055 21.990,9.055 C21.990,9.055 12.374,24.552 12.374,24.552 Z" id="path-13" class="cls-12" fill-rule="evenodd"/>
    <path d="M49.133,26.553 C48.709,26.553 48.315,26.282 48.180,25.857 C48.180,25.857 40.469,1.686 40.469,1.686 C40.302,1.160 40.592,0.597 41.118,0.429 C41.642,0.260 42.207,0.552 42.375,1.078 C42.375,1.078 50.086,25.249 50.086,25.249 C50.253,25.775 49.963,26.338 49.436,26.505 C49.336,26.538 49.233,26.553 49.133,26.553 Z" id="path-14" class="cls-12" fill-rule="evenodd"/>
    <path d="M31.783,26.553 C31.441,26.553 31.108,26.377 30.922,26.061 C30.922,26.061 21.069,9.394 21.069,9.394 C20.788,8.919 20.945,8.306 21.421,8.025 C21.895,7.744 22.509,7.901 22.791,8.377 C22.791,8.377 32.644,25.044 32.644,25.044 C32.924,25.520 32.767,26.133 32.291,26.413 C32.132,26.508 31.956,26.553 31.783,26.553 Z" id="path-15" class="cls-12" fill-rule="evenodd"/>
    <path d="M34.568,31.968 C34.229,31.968 33.898,31.796 33.711,31.484 C33.711,31.484 30.994,26.978 30.994,26.978 C30.709,26.505 30.861,25.890 31.334,25.605 C31.808,25.320 32.422,25.471 32.707,25.945 C32.707,25.945 35.424,30.451 35.424,30.451 C35.709,30.925 35.557,31.539 35.084,31.824 C34.922,31.922 34.744,31.968 34.568,31.968 Z" id="path-16" class="cls-12" fill-rule="evenodd"/>
    <path d="M36.919,32.319 C36.919,32.319 31.851,32.319 31.851,32.319 C31.298,32.319 30.851,31.871 30.851,31.319 C30.851,30.767 31.298,30.319 31.851,30.319 C31.851,30.319 36.919,30.319 36.919,30.319 C37.472,30.319 37.919,30.767 37.919,31.319 C37.919,31.871 37.472,32.319 36.919,32.319 Z" id="path-17" class="cls-12" fill-rule="evenodd"/>
    <path d="M21.930,9.055 C21.377,9.055 20.930,8.607 20.930,8.054 C20.930,8.054 20.930,4.785 20.930,4.785 C20.930,4.233 21.377,3.785 21.930,3.785 C22.482,3.785 22.930,4.233 22.930,4.785 C22.930,4.785 22.930,8.054 22.930,8.054 C22.930,8.607 22.482,9.055 21.930,9.055 Z" id="path-18" class="cls-12" fill-rule="evenodd"/>
    <path d="M25.143,5.074 C25.143,5.074 18.288,5.074 18.288,5.074 C17.735,5.074 17.288,4.626 17.288,4.074 C17.288,3.522 17.735,3.074 18.288,3.074 C18.288,3.074 25.143,3.074 25.143,3.074 C25.695,3.074 26.143,3.522 26.143,4.074 C26.143,4.626 25.695,5.074 25.143,5.074 Z" id="path-19" class="cls-12" fill-rule="evenodd"/>
    <path d="M37.068,4.681 C36.516,4.681 36.068,4.233 36.068,3.681 C36.068,0.044 39.551,0.044 41.422,0.044 C41.821,0.044 42.232,0.025 42.640,0.008 C44.220,-0.061 45.863,-0.133 46.862,0.825 C47.373,1.314 47.632,1.987 47.632,2.825 C47.632,3.377 47.184,3.825 46.632,3.825 C46.079,3.825 45.632,3.377 45.632,2.825 C45.632,2.553 45.580,2.366 45.478,2.269 C45.098,1.903 43.782,1.960 42.726,2.006 C42.290,2.025 41.850,2.044 41.422,2.044 C38.399,2.044 38.068,2.568 38.068,3.681 C38.068,4.233 37.621,4.681 37.068,4.681 Z" id="path-20" class="cls-12" fill-rule="evenodd"/>
  </g>
</svg>
