<svg xmlns="http://www.w3.org/2000/svg" xmlns:xlink="http://www.w3.org/1999/xlink" preserveAspectRatio="xMidYMid" width="60" height="59" viewBox="0 0 60 59">
  <defs>
    <style>

      .cls-3 {
        fill: #ff3a2f;
      }

      .cls-5 {
        fill: #010101;
        opacity: 0.35;
      }

      .cls-7 {
        fill: #fbb713;
      }

      .cls-8 {
        fill: #010101;
        opacity: 0.25;
      }

      .cls-9 {
        fill: #ededed;
      }
    </style>
  </defs>
  <g id="group-123svg">
    <path d="M27.948,29.481 C27.948,29.481 11.986,53.862 11.986,53.862 C11.986,53.862 19.521,52.722 19.521,52.722 C19.521,52.722 22.899,59.075 22.899,59.075 C22.899,59.075 30.880,30.735 30.880,30.735 C30.880,30.735 27.948,29.481 27.948,29.481 Z" id="path-1" class="cls-3" fill-rule="evenodd"/>
    <path d="M33.486,29.481 C33.486,29.481 49.448,53.862 49.448,53.862 C49.448,53.862 41.913,52.722 41.913,52.722 C41.913,52.722 38.535,59.075 38.535,59.075 C38.535,59.075 30.555,30.735 30.555,30.735 C30.555,30.735 33.486,29.481 33.486,29.481 Z" id="path-2" class="cls-3" fill-rule="evenodd"/>
    <path d="M24.623,34.560 C24.623,34.560 28.504,39.174 28.504,39.174 C28.504,39.174 30.501,32.082 30.501,32.082 C30.501,32.082 26.246,32.082 26.246,32.082 C26.246,32.082 24.623,34.560 24.623,34.560 Z" id="path-3" class="cls-5" fill-rule="evenodd"/>
    <path d="M32.096,36.209 C32.096,36.209 39.832,39.174 39.832,39.174 C39.832,39.174 35.189,32.082 35.189,32.082 C35.189,32.082 30.934,32.082 30.934,32.082 C30.934,32.082 32.096,36.209 32.096,36.209 Z" id="path-4" class="cls-5" fill-rule="evenodd"/>
    <path d="M47.533,16.733 C47.533,25.975 40.041,33.466 30.800,33.466 C21.558,33.466 14.066,25.975 14.066,16.733 C14.066,7.491 21.558,-0.001 30.800,-0.001 C40.041,-0.001 47.533,7.491 47.533,16.733 Z" id="path-5" class="cls-7" fill-rule="evenodd"/>
    <path d="M35.305,0.631 C40.275,3.532 43.624,8.908 43.624,15.079 C43.624,24.320 36.132,31.812 26.891,31.812 C25.327,31.812 23.820,31.581 22.386,31.181 C24.859,32.625 27.728,33.466 30.800,33.466 C40.041,33.466 47.533,25.975 47.533,16.733 C47.533,9.054 42.354,2.600 35.305,0.631 Z" id="path-6" class="cls-8" fill-rule="evenodd"/>
    <path d="M34.465,25.465 C34.465,25.465 31.863,24.132 31.863,24.132 C31.254,23.821 30.531,23.828 29.930,24.153 C29.930,24.153 27.356,25.540 27.356,25.540 C25.841,26.358 24.045,25.083 24.318,23.382 C24.318,23.382 24.781,20.496 24.781,20.496 C24.890,19.821 24.659,19.136 24.164,18.663 C24.164,18.663 22.050,16.646 22.050,16.646 C20.804,15.457 21.462,13.355 23.164,13.089 C23.164,13.089 26.052,12.638 26.052,12.638 C26.727,12.532 27.308,12.101 27.603,11.484 C27.603,11.484 28.869,8.850 28.869,8.850 C29.615,7.297 31.817,7.274 32.597,8.810 C32.597,8.810 33.918,11.417 33.918,11.417 C34.227,12.027 34.816,12.446 35.494,12.537 C35.494,12.537 38.392,12.926 38.392,12.926 C40.099,13.156 40.801,15.243 39.581,16.459 C39.581,16.459 37.510,18.521 37.510,18.521 C37.025,19.004 36.809,19.694 36.932,20.367 C36.932,20.367 37.456,23.242 37.456,23.242 C37.766,24.937 35.998,26.250 34.465,25.465 Z" id="path-7" class="cls-9" fill-rule="evenodd"/>
    <path d="M11.581,36.062 C11.581,36.062 12.788,36.062 12.788,36.062 C13.020,36.062 13.209,36.309 13.209,36.613 C13.209,36.917 13.020,37.163 12.788,37.163 C12.788,37.163 12.731,37.163 12.731,37.163 C12.499,37.163 12.310,37.410 12.310,37.714 C12.310,38.018 12.499,38.264 12.731,38.264 C12.731,38.264 15.325,38.264 15.325,38.264 C15.558,38.264 15.746,38.511 15.746,38.815 C15.746,39.119 15.558,39.365 15.325,39.365 C15.325,39.365 12.208,39.365 12.208,39.365 C12.208,39.365 5.837,39.365 5.837,39.365 C5.604,39.365 5.416,39.119 5.416,38.815 C5.416,38.511 5.604,38.264 5.837,38.264 C5.837,38.264 6.558,38.264 6.558,38.264 C6.790,38.264 6.978,38.018 6.978,37.714 C6.978,37.410 6.790,37.163 6.558,37.163 C6.558,37.163 3.132,37.163 3.132,37.163 C2.898,37.163 2.710,36.917 2.710,36.613 C2.710,36.309 2.898,36.062 3.132,36.062 C3.132,36.062 3.941,36.062 3.941,36.062 C3.941,36.062 11.581,36.062 11.581,36.062 Z" id="path-8" class="cls-3" fill-rule="evenodd"/>
    <path d="M55.034,19.309 C55.968,19.309 56.725,18.969 56.725,18.549 C56.725,18.130 55.968,17.791 55.034,17.791 C55.034,17.791 49.854,17.791 49.854,17.791 C48.921,17.791 48.164,18.130 48.164,18.549 C48.164,18.969 48.921,19.309 49.854,19.309 C49.854,19.309 55.034,19.309 55.034,19.309 Z" id="path-9" class="cls-3" fill-rule="evenodd"/>
    <path d="M53.290,3.263 C53.290,3.263 55.237,3.263 55.237,3.263 C55.612,3.263 55.917,3.531 55.917,3.862 C55.917,4.194 55.612,4.462 55.237,4.462 C55.237,4.462 55.146,4.462 55.146,4.462 C54.770,4.462 54.467,4.730 54.467,5.061 C54.467,5.393 54.770,5.661 55.146,5.661 C55.146,5.661 59.332,5.661 59.332,5.661 C59.708,5.661 60.012,5.930 60.012,6.260 C60.012,6.591 59.708,6.860 59.332,6.860 C59.332,6.860 54.302,6.860 54.302,6.860 C54.302,6.860 44.019,6.860 44.019,6.860 C43.644,6.860 43.340,6.591 43.340,6.260 C43.340,5.930 43.644,5.661 44.019,5.661 C44.019,5.661 45.182,5.661 45.182,5.661 C45.557,5.661 45.861,5.393 45.861,5.061 C45.861,4.730 45.557,4.462 45.182,4.462 C45.182,4.462 39.652,4.462 39.652,4.462 C39.277,4.462 38.973,4.194 38.973,3.862 C38.973,3.531 39.277,3.263 39.652,3.263 C39.652,3.263 40.959,3.263 40.959,3.263 C40.959,3.263 53.290,3.263 53.290,3.263 Z" id="path-10" class="cls-3" fill-rule="evenodd"/>
    <path d="M20.840,7.930 C20.840,7.930 25.080,7.930 25.080,7.930 C25.897,7.930 26.561,8.228 26.561,8.595 C26.561,8.962 25.897,9.260 25.080,9.260 C25.080,9.260 24.883,9.260 24.883,9.260 C24.065,9.260 23.402,9.557 23.402,9.925 C23.402,10.292 24.065,10.589 24.883,10.589 C24.883,10.589 33.999,10.589 33.999,10.589 C34.816,10.589 35.479,10.887 35.479,11.254 C35.479,11.622 34.816,11.919 33.999,11.919 C33.999,11.919 23.044,11.919 23.044,11.919 C23.044,11.919 11.003,11.919 11.003,11.919 C10.185,11.919 9.522,11.622 9.522,11.254 C9.522,10.887 10.185,10.589 11.003,10.589 C11.003,10.589 13.533,10.589 13.533,10.589 C14.350,10.589 15.014,10.292 15.014,9.925 C15.014,9.557 14.350,9.260 13.533,9.260 C13.533,9.260 1.492,9.260 1.492,9.260 C0.675,9.260 0.012,8.962 0.012,8.595 C0.012,8.228 0.675,7.930 1.492,7.930 C1.492,7.930 4.338,7.930 4.338,7.930 C4.338,7.930 20.840,7.930 20.840,7.930 Z" id="path-11" class="cls-3" fill-rule="evenodd"/>
  </g>
</svg>
