<svg xmlns="http://www.w3.org/2000/svg" xmlns:xlink="http://www.w3.org/1999/xlink" preserveAspectRatio="xMidYMid" width="58" height="60" viewBox="0 0 58 60">
  <defs>
    <style>

      .cls-3 {
        fill: #142a3b;
      }

      .cls-6 {
        fill: #ff3a2f;
      }

      .cls-8 {
        fill: #000000;
        opacity: 0.35;
      }
    </style>
  </defs>
  <g id="group-296svg">
    <path d="M16.920,51.900 C16.920,51.900 12.020,51.900 12.020,51.900 C11.076,51.900 10.310,52.480 10.310,53.195 C10.310,53.910 11.076,54.489 12.020,54.489 C12.020,54.489 12.249,54.489 12.249,54.489 C13.193,54.489 13.959,55.069 13.959,55.784 C13.959,56.499 13.193,57.079 12.249,57.079 C12.249,57.079 1.716,57.079 1.716,57.079 C0.771,57.079 0.006,57.658 0.006,58.374 C0.006,59.088 0.771,59.668 1.716,59.668 C1.716,59.668 14.373,59.668 14.373,59.668 C14.373,59.668 40.246,59.668 40.246,59.668 C41.190,59.668 41.956,59.088 41.956,58.374 C41.956,57.658 41.190,57.079 40.246,57.079 C40.246,57.079 37.322,57.079 37.322,57.079 C36.377,57.079 35.612,56.499 35.612,55.784 C35.612,55.069 36.377,54.489 37.322,54.489 C37.322,54.489 48.803,54.489 48.803,54.489 C49.748,54.489 50.514,53.910 50.514,53.195 C50.514,52.480 49.748,51.900 48.803,51.900 C48.803,51.900 47.946,51.900 47.946,51.900 C47.946,51.900 16.920,51.900 16.920,51.900 Z" id="path-1" class="cls-3" fill-rule="evenodd"/>
    <path d="M47.307,60.015 C46.515,60.015 45.873,59.393 45.873,58.627 C45.873,57.861 46.515,57.240 47.307,57.240 C47.307,57.240 51.702,57.240 51.702,57.240 C52.494,57.240 53.136,57.861 53.136,58.627 C53.136,59.393 52.494,60.015 51.702,60.015 C51.702,60.015 47.307,60.015 47.307,60.015 Z" id="path-2" class="cls-3" fill-rule="evenodd"/>
    <path d="M30.058,44.857 C29.506,44.857 29.058,44.409 29.058,43.857 C29.058,43.857 29.058,11.723 29.058,11.723 C29.058,11.723 57.680,0.014 57.680,0.014 C57.680,0.014 57.680,36.597 57.680,36.597 C57.680,37.149 57.232,37.597 56.680,37.597 C56.128,37.597 55.680,37.149 55.680,36.597 C55.680,36.597 55.680,2.994 55.680,2.994 C55.680,2.994 31.058,13.066 31.058,13.066 C31.058,13.066 31.058,43.857 31.058,43.857 C31.058,44.409 30.610,44.857 30.058,44.857 Z" id="path-3" class="cls-3" fill-rule="evenodd"/>
    <path d="M31.269,48.697 C31.269,52.328 28.019,55.958 24.008,55.958 C19.999,55.958 16.748,52.707 16.748,48.697 C16.748,44.687 19.999,41.436 24.008,41.436 C25.331,41.436 30.058,41.436 31.269,41.436 C31.269,43.857 31.269,46.011 31.269,48.697 Z" id="path-4" class="cls-6" fill-rule="evenodd"/>
    <path d="M57.890,39.016 C57.890,42.647 54.640,46.277 50.629,46.277 C46.621,46.277 43.369,43.026 43.369,39.016 C43.369,35.007 46.621,31.756 50.629,31.756 C51.953,31.756 56.680,31.756 57.890,31.756 C57.890,34.176 57.890,36.597 57.890,39.016 Z" id="path-5" class="cls-6" fill-rule="evenodd"/>
    <path d="M28.655,41.436 C28.655,43.202 28.655,44.927 28.655,46.955 C28.655,50.585 25.405,54.215 21.394,54.215 C20.469,54.215 19.587,54.036 18.773,53.720 C20.095,55.097 21.950,55.958 24.008,55.958 C28.019,55.958 31.269,52.328 31.269,48.697 C31.269,46.011 31.269,43.857 31.269,41.436 C30.796,41.436 29.787,41.436 28.655,41.436 Z" id="path-6" class="cls-8" fill-rule="evenodd"/>
    <path d="M55.277,31.756 C55.277,33.596 55.277,35.435 55.277,37.274 C55.277,40.905 52.026,44.535 48.016,44.535 C47.091,44.535 46.209,44.355 45.395,44.039 C46.716,45.416 48.571,46.277 50.629,46.277 C54.640,46.277 57.890,42.647 57.890,39.016 C57.890,36.597 57.890,34.176 57.890,31.756 C57.418,31.756 56.409,31.756 55.277,31.756 Z" id="path-7" class="cls-8" fill-rule="evenodd"/>
    <path d="M30.059,21.866 C29.665,21.866 29.291,21.632 29.132,21.244 C28.923,20.733 29.168,20.149 29.680,19.940 C29.680,19.940 56.302,9.049 56.302,9.049 C56.812,8.843 57.396,9.085 57.606,9.596 C57.815,10.107 57.570,10.691 57.059,10.901 C57.059,10.901 30.436,21.791 30.436,21.791 C30.313,21.842 30.185,21.866 30.059,21.866 Z" id="path-8" class="cls-3" fill-rule="evenodd"/>
  </g>
</svg>
