<svg xmlns="http://www.w3.org/2000/svg" xmlns:xlink="http://www.w3.org/1999/xlink" preserveAspectRatio="xMidYMid" width="55" height="61" viewBox="0 0 55 61">
  <defs>
    <style>

      .cls-3 {
        fill: #0cb04a;
      }

      .cls-5 {
        fill: #fbb713;
      }

      .cls-6 {
        fill: #2476ff;
      }

      .cls-7 {
        fill: #ff3a2f;
      }

      .cls-8 {
        fill: #000000;
        opacity: 0.35;
      }
    </style>
  </defs>
  <g id="group-315svg">
    <path d="M19.188,52.494 C19.188,52.494 14.649,52.494 14.649,52.494 C13.773,52.494 13.064,53.031 13.064,53.694 C13.064,54.356 13.773,54.893 14.649,54.893 C14.649,54.893 14.860,54.893 14.860,54.893 C15.735,54.893 16.445,55.430 16.445,56.093 C16.445,56.755 15.735,57.292 14.860,57.292 C14.860,57.292 5.103,57.292 5.103,57.292 C4.227,57.292 3.518,57.829 3.518,58.492 C3.518,59.154 4.227,59.691 5.103,59.691 C5.103,59.691 16.829,59.691 16.829,59.691 C16.829,59.691 40.798,59.691 40.798,59.691 C41.673,59.691 42.383,59.154 42.383,58.492 C42.383,57.829 41.673,57.292 40.798,57.292 C40.798,57.292 38.090,57.292 38.090,57.292 C37.215,57.292 36.505,56.755 36.505,56.093 C36.505,55.430 37.215,54.893 38.090,54.893 C38.090,54.893 48.726,54.893 48.726,54.893 C49.601,54.893 50.311,54.356 50.311,53.694 C50.311,53.031 49.601,52.494 48.726,52.494 C48.726,52.494 47.933,52.494 47.933,52.494 C47.933,52.494 19.188,52.494 19.188,52.494 Z" id="path-1" class="cls-3" fill-rule="evenodd"/>
    <path d="M47.340,60.012 C46.606,60.012 46.012,59.437 46.012,58.727 C46.012,58.017 46.606,57.441 47.340,57.441 C47.340,57.441 51.412,57.441 51.412,57.441 C52.145,57.441 52.740,58.017 52.740,58.727 C52.740,59.437 52.145,60.012 51.412,60.012 C51.412,60.012 47.340,60.012 47.340,60.012 Z" id="path-2" class="cls-3" fill-rule="evenodd"/>
    <path d="M23.956,3.606 C23.956,1.622 25.565,0.012 27.550,0.012 C29.534,0.012 31.144,1.622 31.144,3.606 C31.144,3.606 31.144,55.121 31.144,55.121 C31.144,55.121 23.956,55.121 23.956,55.121 C23.956,55.121 23.956,3.606 23.956,3.606 Z" id="path-3" class="cls-5" fill-rule="evenodd"/>
    <path d="M46.119,19.180 C46.119,19.180 4.787,19.180 4.787,19.180 C4.787,19.180 7.183,13.190 7.183,13.190 C7.183,13.190 4.787,7.200 4.787,7.200 C4.787,7.200 46.119,7.200 46.119,7.200 C46.119,7.200 55.104,13.190 55.104,13.190 C55.104,13.190 46.119,19.180 46.119,19.180 Z" id="path-4" class="cls-6" fill-rule="evenodd"/>
    <path d="M8.980,23.973 C8.980,23.973 50.311,23.973 50.311,23.973 C50.311,23.973 47.916,29.962 47.916,29.962 C47.916,29.962 50.311,35.952 50.311,35.952 C50.311,35.952 8.980,35.952 8.980,35.952 C8.980,35.952 -0.005,29.962 -0.005,29.962 C-0.005,29.962 8.980,23.973 8.980,23.973 Z" id="path-5" class="cls-7" fill-rule="evenodd"/>
    <path d="M46.119,7.200 C46.119,7.200 4.788,7.200 4.788,7.200 C4.788,7.200 5.228,8.302 5.228,8.302 C5.228,8.302 43.914,8.302 43.914,8.302 C43.914,8.302 52.899,14.292 52.899,14.292 C52.899,14.292 45.567,19.180 45.567,19.180 C45.567,19.180 46.119,19.180 46.119,19.180 C46.119,19.180 55.104,13.190 55.104,13.190 C55.104,13.190 46.119,7.200 46.119,7.200 Z" id="path-6" class="cls-8" fill-rule="evenodd"/>
    <path d="M50.311,23.973 C50.311,23.973 8.980,23.973 8.980,23.973 C8.980,23.973 7.327,25.074 7.327,25.074 C7.327,25.074 48.107,25.074 48.107,25.074 C48.107,25.074 45.712,31.065 45.712,31.065 C45.712,31.065 47.667,35.952 47.667,35.952 C47.667,35.952 50.311,35.952 50.311,35.952 C50.311,35.952 47.916,29.963 47.916,29.963 C47.916,29.963 50.311,23.973 50.311,23.973 Z" id="path-7" class="cls-8" fill-rule="evenodd"/>
  </g>
</svg>
