<svg xmlns="http://www.w3.org/2000/svg" xmlns:xlink="http://www.w3.org/1999/xlink" preserveAspectRatio="xMidYMid" width="54" height="60" viewBox="0 0 54 60">
  <defs>
    <style>

      .cls-3 {
        fill: #fbb713;
      }

      .cls-9 {
        fill: #ff3a2f;
      }

      .cls-10 {
        fill: #000000;
        opacity: 0.35;
      }

      .cls-12 {
        fill: #ededed;
      }

      .cls-14 {
        fill: #000000;
        opacity: 0.25;
      }
    </style>
  </defs>
  <g id="group-255svg">
    <path d="M46.805,40.531 C46.805,40.531 45.711,39.436 45.711,39.436 C45.500,39.225 45.144,39.238 44.918,39.466 C44.690,39.693 44.678,40.048 44.889,40.259 C44.889,40.259 44.939,40.309 44.939,40.309 C45.150,40.520 45.138,40.875 44.910,41.102 C44.684,41.330 44.328,41.343 44.117,41.132 C44.117,41.132 41.766,38.779 41.766,38.779 C41.555,38.568 41.199,38.582 40.972,38.808 C40.745,39.036 40.732,39.391 40.943,39.602 C40.943,39.602 43.769,42.429 43.769,42.429 C43.769,42.429 49.547,48.206 49.547,48.206 C49.758,48.417 50.113,48.404 50.340,48.177 C50.567,47.949 50.580,47.595 50.369,47.384 C50.369,47.384 49.717,46.731 49.717,46.731 C49.506,46.520 49.518,46.165 49.745,45.938 C49.973,45.711 50.328,45.697 50.538,45.908 C50.538,45.908 53.102,48.473 53.102,48.473 C53.313,48.683 53.668,48.670 53.895,48.443 C54.122,48.216 54.136,47.861 53.925,47.650 C53.925,47.650 53.733,47.459 53.733,47.459 C53.733,47.459 46.805,40.531 46.805,40.531 Z" id="path-1" class="cls-3" fill-rule="evenodd"/>
    <path d="M51.027,49.760 C50.879,49.611 50.888,49.360 51.049,49.200 C51.209,49.039 51.460,49.030 51.608,49.178 C51.608,49.178 52.434,50.003 52.434,50.003 C52.582,50.151 52.572,50.402 52.411,50.562 C52.251,50.723 52.000,50.733 51.851,50.584 C51.851,50.584 51.027,49.760 51.027,49.760 Z" id="path-2" class="cls-3" fill-rule="evenodd"/>
    <path d="M28.860,48.949 C28.860,48.949 28.860,47.402 28.860,47.402 C28.860,47.103 28.600,46.861 28.278,46.861 C27.957,46.861 27.697,47.103 27.697,47.402 C27.697,47.402 27.697,47.473 27.697,47.473 C27.697,47.772 27.436,48.014 27.116,48.014 C26.795,48.014 26.534,47.772 26.534,47.473 C26.534,47.473 26.534,44.147 26.534,44.147 C26.534,43.849 26.274,43.607 25.953,43.607 C25.632,43.607 25.372,43.849 25.372,44.147 C25.372,44.147 25.372,48.145 25.372,48.145 C25.372,48.145 25.372,56.315 25.372,56.315 C25.372,56.613 25.632,56.855 25.953,56.855 C26.274,56.855 26.534,56.613 26.534,56.315 C26.534,56.315 26.534,55.392 26.534,55.392 C26.534,55.094 26.795,54.852 27.116,54.852 C27.436,54.852 27.697,55.094 27.697,55.392 C27.697,55.392 27.697,59.018 27.697,59.018 C27.697,59.316 27.957,59.558 28.278,59.558 C28.600,59.558 28.860,59.316 28.860,59.018 C28.860,59.018 28.860,58.747 28.860,58.747 C28.860,58.747 28.860,48.949 28.860,48.949 Z" id="path-3" class="cls-3" fill-rule="evenodd"/>
    <path d="M25.319,58.461 C25.319,58.251 25.504,58.080 25.730,58.080 C25.958,58.080 26.142,58.251 26.142,58.461 C26.142,58.461 26.142,59.627 26.142,59.627 C26.142,59.837 25.958,60.007 25.730,60.007 C25.504,60.007 25.319,59.837 25.319,59.627 C25.319,59.627 25.319,58.461 25.319,58.461 Z" id="path-4" class="cls-3" fill-rule="evenodd"/>
    <path d="M7.281,40.531 C7.281,40.531 8.376,39.436 8.376,39.436 C8.587,39.225 8.941,39.238 9.169,39.466 C9.395,39.693 9.409,40.048 9.198,40.259 C9.198,40.259 9.146,40.309 9.146,40.309 C8.936,40.520 8.949,40.875 9.176,41.102 C9.403,41.330 9.758,41.343 9.969,41.132 C9.969,41.132 12.321,38.779 12.321,38.779 C12.532,38.568 12.887,38.582 13.114,38.808 C13.341,39.036 13.354,39.391 13.143,39.602 C13.143,39.602 10.316,42.429 10.316,42.429 C10.316,42.429 4.539,48.206 4.539,48.206 C4.328,48.417 3.974,48.404 3.746,48.177 C3.519,47.949 3.506,47.595 3.717,47.384 C3.717,47.384 4.370,46.731 4.370,46.731 C4.581,46.520 4.567,46.165 4.341,45.938 C4.113,45.711 3.759,45.697 3.548,45.908 C3.548,45.908 0.984,48.473 0.984,48.473 C0.773,48.683 0.418,48.670 0.191,48.443 C-0.036,48.216 -0.049,47.861 0.162,47.650 C0.162,47.650 0.353,47.459 0.353,47.459 C0.353,47.459 7.281,40.531 7.281,40.531 Z" id="path-5" class="cls-3" fill-rule="evenodd"/>
    <path d="M3.060,49.760 C3.208,49.611 3.198,49.360 3.038,49.200 C2.877,49.039 2.626,49.030 2.477,49.178 C2.477,49.178 1.653,50.003 1.653,50.003 C1.505,50.151 1.515,50.402 1.675,50.562 C1.836,50.723 2.086,50.733 2.234,50.584 C2.234,50.584 3.060,49.760 3.060,49.760 Z" id="path-6" class="cls-3" fill-rule="evenodd"/>
    <path d="M26.955,19.613 C26.955,19.613 24.763,19.613 24.763,19.613 C24.763,19.613 24.763,0.007 24.763,0.007 C24.763,0.007 26.955,0.007 26.955,0.007 C26.955,0.007 26.955,19.613 26.955,19.613 Z" id="path-7" class="cls-9" fill-rule="evenodd"/>
    <path d="M26.955,19.613 C26.955,19.613 24.763,19.613 24.763,19.613 C24.763,19.613 24.763,18.812 24.763,18.812 C24.763,18.812 26.955,17.453 26.955,17.453 C26.955,17.453 26.955,19.613 26.955,19.613 Z" id="path-8" class="cls-10" fill-rule="evenodd"/>
    <path d="M25.858,19.492 C16.769,19.492 9.400,26.860 9.400,35.950 C9.400,35.950 42.316,35.950 42.316,35.950 C42.316,26.860 34.948,19.492 25.858,19.492 Z" id="path-9" class="cls-3" fill-rule="evenodd"/>
    <path d="M13.447,31.758 C13.359,31.758 13.271,31.746 13.183,31.722 C12.650,31.577 12.336,31.027 12.481,30.494 C13.721,25.953 17.287,22.275 21.789,20.895 C22.319,20.734 22.876,21.030 23.038,21.558 C23.200,22.086 22.903,22.646 22.375,22.807 C18.522,23.988 15.472,27.135 14.411,31.021 C14.290,31.466 13.887,31.758 13.447,31.758 Z" id="path-10" class="cls-12" fill-rule="evenodd"/>
    <path d="M25.858,40.374 C28.361,40.374 30.390,38.346 30.390,35.843 C30.390,35.843 21.327,35.843 21.327,35.843 C21.327,38.346 23.356,40.374 25.858,40.374 Z" id="path-11" class="cls-9" fill-rule="evenodd"/>
    <path d="M25.858,19.492 C25.400,19.492 24.948,19.515 24.499,19.552 C32.952,20.244 39.598,27.318 39.598,35.950 C39.598,35.950 42.317,35.950 42.317,35.950 C42.317,26.860 34.948,19.492 25.858,19.492 Z" id="path-12" class="cls-14" fill-rule="evenodd"/>
    <path d="M21.327,35.843 C21.327,36.317 21.375,35.843 21.327,36.317 C21.327,36.317 27.671,37.202 27.671,37.202 C27.671,38.420 27.188,39.524 26.406,40.338 C28.650,40.067 30.390,38.160 30.390,35.843 C30.390,35.843 21.327,35.843 21.327,35.843 Z" id="path-13" class="cls-10" fill-rule="evenodd"/>
  </g>
</svg>
