<svg xmlns="http://www.w3.org/2000/svg" xmlns:xlink="http://www.w3.org/1999/xlink" preserveAspectRatio="xMidYMid" width="60" height="60" viewBox="0 0 60 60">
  <defs>
    <style>

      .cls-3 {
        fill: #fbb713;
      }

      .cls-6 {
        fill: #ff3a2f;
      }

      .cls-8 {
        fill: #2476ff;
      }

      .cls-9 {
        fill: #020403;
        opacity: 0.25;
      }

      .cls-11 {
        fill: #020403;
        opacity: 0.35;
      }

      .cls-13 {
        fill: #142a3b;
      }
    </style>
  </defs>
  <g id="group-47svg">
    <path d="M16.728,53.933 C16.728,53.933 20.133,53.933 20.133,53.933 C20.789,53.933 21.321,54.271 21.321,54.686 C21.321,55.102 20.789,55.439 20.133,55.439 C20.133,55.439 19.975,55.439 19.975,55.439 C19.318,55.439 18.786,55.777 18.786,56.192 C18.786,56.608 19.318,56.945 19.975,56.945 C19.975,56.945 27.292,56.945 27.292,56.945 C27.948,56.945 28.480,57.282 28.480,57.698 C28.480,58.113 27.948,58.451 27.292,58.451 C27.292,58.451 18.498,58.451 18.498,58.451 C18.498,58.451 8.832,58.451 8.832,58.451 C8.176,58.451 7.643,58.113 7.643,57.698 C7.643,57.282 8.176,56.945 8.832,56.945 C8.832,56.945 10.863,56.945 10.863,56.945 C11.519,56.945 12.052,56.608 12.052,56.192 C12.052,55.777 11.519,55.439 10.863,55.439 C10.863,55.439 1.197,55.439 1.197,55.439 C0.541,55.439 0.009,55.102 0.009,54.686 C0.009,54.271 0.541,53.933 1.197,53.933 C1.197,53.933 3.481,53.933 3.481,53.933 C3.481,53.933 16.728,53.933 16.728,53.933 Z" id="path-1" class="cls-3" fill-rule="evenodd"/>
    <path d="M9.562,42.525 C9.562,42.525 11.003,42.525 11.003,42.525 C11.280,42.525 11.505,42.768 11.505,43.069 C11.505,43.369 11.280,43.612 11.003,43.612 C11.003,43.612 10.935,43.612 10.935,43.612 C10.658,43.612 10.433,43.856 10.433,44.155 C10.433,44.456 10.658,44.699 10.935,44.699 C10.935,44.699 14.031,44.699 14.031,44.699 C14.309,44.699 14.533,44.942 14.533,45.243 C14.533,45.543 14.309,45.786 14.031,45.786 C14.031,45.786 10.312,45.786 10.312,45.786 C10.312,45.786 6.223,45.786 6.223,45.786 C5.945,45.786 5.720,45.543 5.720,45.243 C5.720,44.942 5.945,44.699 6.223,44.699 C6.223,44.699 7.082,44.699 7.082,44.699 C7.359,44.699 7.585,44.456 7.585,44.155 C7.585,43.856 7.359,43.612 7.082,43.612 C7.082,43.612 2.993,43.612 2.993,43.612 C2.716,43.612 2.491,43.369 2.491,43.069 C2.491,42.768 2.716,42.525 2.993,42.525 C2.993,42.525 3.960,42.525 3.960,42.525 C3.960,42.525 9.562,42.525 9.562,42.525 Z" id="path-2" class="cls-3" fill-rule="evenodd"/>
    <path d="M39.004,60.015 C39.988,60.015 40.786,59.510 40.786,58.886 C40.786,58.262 39.988,57.756 39.004,57.756 C39.004,57.756 33.541,57.756 33.541,57.756 C32.557,57.756 31.758,58.262 31.758,58.886 C31.758,59.510 32.557,60.015 33.541,60.015 C33.541,60.015 39.004,60.015 39.004,60.015 Z" id="path-3" class="cls-3" fill-rule="evenodd"/>
    <path d="M39.959,0.016 C39.959,0.016 37.646,6.270 37.646,6.270 C37.646,6.270 43.053,8.271 43.053,8.271 C43.053,8.271 39.968,16.611 39.968,16.611 C39.968,16.611 42.053,17.382 42.053,17.382 C42.053,17.382 45.139,9.042 45.139,9.042 C45.139,9.042 50.546,11.042 50.546,11.042 C50.546,11.042 52.860,4.788 52.860,4.788 C52.860,4.788 39.959,0.016 39.959,0.016 ZM49.207,8.967 C49.207,8.967 39.940,5.539 39.940,5.539 C39.940,5.539 41.226,2.064 41.226,2.064 C41.226,2.064 50.492,5.492 50.492,5.492 C50.492,5.492 49.207,8.967 49.207,8.967 Z" id="path-4" class="cls-6" fill-rule="evenodd"/>
    <path d="M48.492,16.892 C47.438,16.892 46.474,17.241 45.727,17.820 C44.782,16.100 42.847,14.918 40.606,14.918 C37.707,14.918 35.316,16.894 34.931,19.459 C34.382,18.481 33.283,17.806 32.003,17.806 C31.356,17.806 30.759,17.982 30.250,18.276 C29.461,17.430 28.292,16.892 26.983,16.892 C24.608,16.892 22.682,18.660 22.682,20.842 C22.682,20.842 52.794,20.842 52.794,20.842 C52.794,18.660 50.868,16.892 48.492,16.892 Z" id="path-5" class="cls-3" fill-rule="evenodd"/>
    <path d="M52.251,54.214 C52.251,54.214 24.476,54.214 24.476,54.214 C24.476,54.214 24.476,27.008 24.476,27.008 C24.476,27.008 52.251,27.008 52.251,27.008 C52.251,27.008 52.251,54.214 52.251,54.214 Z" id="path-6" class="cls-8" fill-rule="evenodd"/>
    <path d="M24.476,27.008 C24.476,27.008 24.476,29.015 24.476,29.015 C24.476,29.015 46.228,31.023 46.228,31.023 C46.228,31.023 46.228,54.214 46.228,54.214 C46.228,54.214 52.251,54.214 52.251,54.214 C52.251,54.214 52.251,27.008 52.251,27.008 C52.251,27.008 24.476,27.008 24.476,27.008 Z" id="path-7" class="cls-9" fill-rule="evenodd"/>
    <path d="M54.841,27.008 C54.841,27.008 21.886,27.008 21.886,27.008 C21.886,27.008 21.886,20.143 21.886,20.143 C21.886,20.143 54.841,20.143 54.841,20.143 C54.841,20.143 54.841,27.008 54.841,27.008 Z" id="path-8" class="cls-8" fill-rule="evenodd"/>
    <path d="M39.638,52.873 C33.104,52.873 27.031,48.112 24.723,46.064 C24.310,45.698 24.272,45.066 24.639,44.653 C25.005,44.239 25.638,44.202 26.051,44.568 C27.718,46.047 33.625,50.873 39.638,50.873 C44.077,50.873 47.596,49.832 50.712,47.597 C51.163,47.274 51.785,47.378 52.107,47.827 C52.430,48.276 52.326,48.900 51.878,49.222 C48.453,51.678 44.449,52.873 39.638,52.873 Z" id="path-9" class="cls-11" fill-rule="evenodd"/>
    <path d="M48.818,20.143 C48.818,20.143 48.818,25.001 48.818,25.001 C48.818,25.001 21.886,25.001 21.886,25.001 C21.886,25.001 21.886,27.008 21.886,27.008 C21.886,27.008 54.841,27.008 54.841,27.008 C54.841,27.008 54.841,20.143 54.841,20.143 C54.841,20.143 48.818,20.143 48.818,20.143 Z" id="path-10" class="cls-9" fill-rule="evenodd"/>
    <path d="M54.561,35.314 C54.561,35.314 52.251,35.314 52.251,35.314 C52.251,35.314 52.251,29.211 52.251,29.211 C52.251,29.211 54.561,29.211 54.561,29.211 C54.561,29.211 54.561,35.314 54.561,35.314 Z" id="path-11" class="cls-13" fill-rule="evenodd"/>
    <path d="M24.647,35.410 C24.647,35.410 22.338,35.410 22.338,35.410 C22.338,35.410 22.338,29.308 22.338,29.308 C22.338,29.308 24.647,29.308 24.647,29.308 C24.647,29.308 24.647,35.410 24.647,35.410 Z" id="path-12" class="cls-13" fill-rule="evenodd"/>
    <path d="M38.634,49.862 C27.594,49.862 18.611,42.011 18.611,32.359 C18.611,32.359 18.611,31.333 18.611,31.333 C18.611,31.333 23.518,31.456 23.518,31.456 C23.518,31.456 23.469,33.455 23.469,33.455 C23.469,33.455 20.650,33.385 20.650,33.385 C21.267,41.456 29.097,47.862 38.634,47.862 C48.182,47.862 56.019,41.443 56.620,33.359 C56.620,33.359 52.945,33.359 52.945,33.359 C52.945,33.359 52.945,31.359 52.945,31.359 C52.945,31.359 58.657,31.359 58.657,31.359 C58.657,31.359 58.657,32.359 58.657,32.359 C58.657,42.011 49.675,49.862 38.634,49.862 Z" id="path-13" class="cls-13" fill-rule="evenodd"/>
  </g>
</svg>
