<svg xmlns="http://www.w3.org/2000/svg" xmlns:xlink="http://www.w3.org/1999/xlink" preserveAspectRatio="xMidYMid" width="61" height="49" viewBox="0 0 61 49">
  <defs>
    <style>

      .cls-3 {
        fill: #ff3a2f;
      }

      .cls-4 {
        fill: #020403;
        opacity: 0.25;
      }

      .cls-5 {
        fill: #ffffff;
      }

      .cls-6 {
        fill: #142a3b;
      }

      .cls-7 {
        fill: #2476ff;
      }
    </style>
  </defs>
  <g id="group-48svg">
    <path d="M42.742,25.033 C42.742,32.434 36.742,38.434 29.340,38.434 C21.938,38.434 15.938,32.434 15.938,25.033 C15.938,17.630 21.938,11.630 29.340,11.630 C36.742,11.630 42.742,17.630 42.742,25.033 Z" id="path-1" class="cls-3" fill-rule="evenodd"/>
    <path d="M31.656,11.844 C35.232,14.250 37.586,18.335 37.586,22.969 C37.586,30.371 31.585,36.372 24.184,36.372 C23.393,36.372 22.621,36.290 21.868,36.158 C24.003,37.595 26.573,38.434 29.340,38.434 C36.742,38.434 42.742,32.434 42.742,25.032 C42.742,18.422 37.952,12.942 31.656,11.844 Z" id="path-2" class="cls-4" fill-rule="evenodd"/>
    <path d="M21.271,35.372 C21.016,35.372 20.760,35.275 20.564,35.079 C20.174,34.689 20.174,34.056 20.564,33.665 C22.907,31.322 24.197,28.208 24.197,24.895 C24.197,21.583 22.907,18.468 20.564,16.126 C20.174,15.735 20.174,15.102 20.564,14.712 C20.955,14.321 21.588,14.321 21.978,14.712 C24.699,17.432 26.197,21.049 26.197,24.895 C26.197,28.742 24.699,32.359 21.978,35.079 C21.783,35.275 21.527,35.372 21.271,35.372 Z" id="path-3" class="cls-5" fill-rule="evenodd"/>
    <path d="M49.568,25.032 C49.568,20.223 52.715,16.152 57.061,14.755 C56.017,14.420 54.908,14.235 53.755,14.235 C47.792,14.235 42.958,19.069 42.958,25.032 C42.958,30.995 47.792,35.829 53.755,35.829 C54.908,35.829 56.017,35.644 57.061,35.309 C52.715,33.913 49.568,29.842 49.568,25.032 Z" id="path-4" class="cls-6" fill-rule="evenodd"/>
    <path d="M15.467,9.995 C15.467,12.052 13.800,13.720 11.742,13.720 C9.685,13.720 8.018,12.052 8.018,9.995 C8.018,7.938 9.685,6.270 11.742,6.270 C13.800,6.270 15.467,7.938 15.467,9.995 Z" id="path-5" class="cls-7" fill-rule="evenodd"/>
    <path d="M7.416,2.001 C7.416,3.102 6.522,3.994 5.422,3.994 C4.320,3.994 3.428,3.102 3.428,2.001 C3.428,0.900 4.320,0.007 5.422,0.007 C6.522,0.007 7.416,0.900 7.416,2.001 Z" id="path-6" class="cls-7" fill-rule="evenodd"/>
    <path d="M21.765,24.619 C21.765,25.551 21.009,26.308 20.076,26.308 C19.143,26.308 18.388,25.551 18.388,24.619 C18.388,23.686 19.143,22.930 20.076,22.930 C21.009,22.930 21.765,23.686 21.765,24.619 Z" id="path-7" class="cls-5" fill-rule="evenodd"/>
    <path d="M7.254,18.921 C7.254,18.921 8.733,18.921 8.733,18.921 C9.019,18.921 9.250,19.171 9.250,19.480 C9.250,19.788 9.019,20.038 8.733,20.038 C8.733,20.038 8.664,20.038 8.664,20.038 C8.379,20.038 8.148,20.288 8.148,20.596 C8.148,20.905 8.379,21.155 8.664,21.155 C8.664,21.155 11.845,21.155 11.845,21.155 C12.131,21.155 12.361,21.405 12.361,21.713 C12.361,22.021 12.131,22.271 11.845,22.271 C11.845,22.271 8.023,22.271 8.023,22.271 C8.023,22.271 3.822,22.271 3.822,22.271 C3.537,22.271 3.306,22.021 3.306,21.713 C3.306,21.405 3.537,21.155 3.822,21.155 C3.822,21.155 4.705,21.155 4.705,21.155 C4.990,21.155 5.221,20.905 5.221,20.596 C5.221,20.288 4.990,20.038 4.705,20.038 C4.705,20.038 0.504,20.038 0.504,20.038 C0.219,20.038 -0.013,19.788 -0.013,19.480 C-0.013,19.171 0.219,18.921 0.504,18.921 C0.504,18.921 1.496,18.921 1.496,18.921 C1.496,18.921 7.254,18.921 7.254,18.921 Z" id="path-8" class="cls-7" fill-rule="evenodd"/>
    <path d="M44.830,43.930 C44.830,43.930 49.177,43.930 49.177,43.930 C50.015,43.930 50.694,44.264 50.694,44.675 C50.694,45.087 50.015,45.420 49.177,45.420 C49.177,45.420 48.975,45.420 48.975,45.420 C48.137,45.420 47.457,45.754 47.457,46.165 C47.457,46.576 48.137,46.909 48.975,46.909 C48.975,46.909 58.319,46.909 58.319,46.909 C59.157,46.909 59.837,47.243 59.837,47.654 C59.837,48.066 59.157,48.399 58.319,48.399 C58.319,48.399 47.089,48.399 47.089,48.399 C47.089,48.399 34.746,48.399 34.746,48.399 C33.908,48.399 33.229,48.066 33.229,47.654 C33.229,47.243 33.908,46.909 34.746,46.909 C34.746,46.909 37.340,46.909 37.340,46.909 C38.178,46.909 38.857,46.576 38.857,46.165 C38.857,45.754 38.178,45.420 37.340,45.420 C37.340,45.420 24.997,45.420 24.997,45.420 C24.159,45.420 23.479,45.087 23.479,44.675 C23.479,44.264 24.159,43.930 24.997,43.930 C24.997,43.930 27.914,43.930 27.914,43.930 C27.914,43.930 44.830,43.930 44.830,43.930 Z" id="path-9" class="cls-7" fill-rule="evenodd"/>
    <path d="M55.048,26.583 C55.048,26.583 56.478,26.583 56.478,26.583 C56.755,26.583 56.978,26.809 56.978,27.086 C56.978,27.364 56.755,27.589 56.478,27.589 C56.478,27.589 56.412,27.589 56.412,27.589 C56.137,27.589 55.912,27.814 55.912,28.092 C55.912,28.369 56.137,28.595 56.412,28.595 C56.412,28.595 59.488,28.595 59.488,28.595 C59.764,28.595 59.987,28.820 59.987,29.097 C59.987,29.375 59.764,29.600 59.488,29.600 C59.488,29.600 55.791,29.600 55.791,29.600 C55.791,29.600 51.728,29.600 51.728,29.600 C51.453,29.600 51.229,29.375 51.229,29.097 C51.229,28.820 51.453,28.595 51.728,28.595 C51.728,28.595 52.582,28.595 52.582,28.595 C52.858,28.595 53.082,28.369 53.082,28.092 C53.082,27.814 52.858,27.589 52.582,27.589 C52.582,27.589 48.519,27.589 48.519,27.589 C48.244,27.589 48.020,27.364 48.020,27.086 C48.020,26.809 48.244,26.583 48.519,26.583 C48.519,26.583 49.480,26.583 49.480,26.583 C49.480,26.583 55.048,26.583 55.048,26.583 Z" id="path-10" class="cls-7" fill-rule="evenodd"/>
  </g>
</svg>
