<svg xmlns="http://www.w3.org/2000/svg" xmlns:xlink="http://www.w3.org/1999/xlink" preserveAspectRatio="xMidYMid" width="60" height="61" viewBox="0 0 60 61">
  <defs>
    <style>

      .cls-3 {
        fill: #2476ff;
      }

      .cls-6 {
        fill: #142a3b;
      }

      .cls-7 {
        fill: #010101;
        opacity: 0.3;
      }

      .cls-8 {
        fill: #ff3a2f;
      }

      .cls-9 {
        fill: #ededed;
      }

      .cls-11 {
        fill: #010101;
        opacity: 0.2;
      }
    </style>
  </defs>
  <g id="group-174svg">
    <path d="M21.675,55.260 C21.675,55.260 26.086,55.260 26.086,55.260 C26.937,55.260 27.625,55.570 27.625,55.952 C27.625,56.333 26.937,56.643 26.086,56.643 C26.086,56.643 25.881,56.643 25.881,56.643 C25.030,56.643 24.341,56.952 24.341,57.334 C24.341,57.716 25.030,58.026 25.881,58.026 C25.881,58.026 35.362,58.026 35.362,58.026 C36.213,58.026 36.901,58.335 36.901,58.717 C36.901,59.099 36.213,59.409 35.362,59.409 C35.362,59.409 23.968,59.409 23.968,59.409 C23.968,59.409 11.444,59.409 11.444,59.409 C10.594,59.409 9.904,59.099 9.904,58.717 C9.904,58.335 10.594,58.026 11.444,58.026 C11.444,58.026 14.075,58.026 14.075,58.026 C14.926,58.026 15.615,57.716 15.615,57.334 C15.615,56.952 14.926,56.643 14.075,56.643 C14.075,56.643 1.552,56.643 1.552,56.643 C0.701,56.643 0.012,56.333 0.012,55.952 C0.012,55.570 0.701,55.260 1.552,55.260 C1.552,55.260 4.512,55.260 4.512,55.260 C4.512,55.260 21.675,55.260 21.675,55.260 Z" id="path-1" class="cls-3" fill-rule="evenodd"/>
    <path d="M48.975,60.006 C49.945,60.006 50.732,59.653 50.732,59.218 C50.732,58.781 49.945,58.427 48.975,58.427 C48.975,58.427 43.587,58.427 43.587,58.427 C42.615,58.427 41.828,58.781 41.828,59.218 C41.828,59.653 42.615,60.006 43.587,60.006 C43.587,60.006 48.975,60.006 48.975,60.006 Z" id="path-2" class="cls-3" fill-rule="evenodd"/>
    <path d="M53.145,49.049 C53.145,49.049 55.170,49.049 55.170,49.049 C55.560,49.049 55.877,49.225 55.877,49.442 C55.877,49.658 55.560,49.834 55.170,49.834 C55.170,49.834 55.076,49.834 55.076,49.834 C54.685,49.834 54.369,50.010 54.369,50.226 C54.369,50.443 54.685,50.618 55.076,50.618 C55.076,50.618 59.430,50.618 59.430,50.618 C59.820,50.618 60.137,50.794 60.137,51.011 C60.137,51.227 59.820,51.403 59.430,51.403 C59.430,51.403 54.197,51.403 54.197,51.403 C54.197,51.403 43.503,51.403 43.503,51.403 C43.113,51.403 42.797,51.227 42.797,51.011 C42.797,50.794 43.113,50.618 43.503,50.618 C43.503,50.618 44.712,50.618 44.712,50.618 C45.103,50.618 45.419,50.443 45.419,50.226 C45.419,50.010 45.103,49.834 44.712,49.834 C44.712,49.834 38.961,49.834 38.961,49.834 C38.570,49.834 38.254,49.658 38.254,49.442 C38.254,49.225 38.570,49.049 38.961,49.049 C38.961,49.049 40.320,49.049 40.320,49.049 C40.320,49.049 53.145,49.049 53.145,49.049 Z" id="path-3" class="cls-3" fill-rule="evenodd"/>
    <path d="M20.429,50.832 C16.806,50.832 13.858,47.884 13.858,44.259 C13.858,44.259 13.858,32.134 13.858,32.134 C13.858,32.134 26.999,32.134 26.999,32.134 C26.999,32.134 26.999,44.259 26.999,44.259 C26.999,47.884 24.051,50.832 20.429,50.832 Z" id="path-4" class="cls-6" fill-rule="evenodd"/>
    <path d="M23.950,32.134 C23.950,32.134 23.950,42.226 23.950,42.226 C23.950,45.850 21.002,48.799 17.380,48.799 C16.695,48.799 16.036,48.693 15.416,48.498 C16.622,49.923 18.421,50.832 20.429,50.832 C24.052,50.832 26.999,47.884 26.999,44.260 C26.999,44.260 26.999,32.134 26.999,32.134 C26.999,32.134 23.950,32.134 23.950,32.134 Z" id="path-5" class="cls-7" fill-rule="evenodd"/>
    <path d="M28.176,35.754 C28.176,35.754 14.271,35.754 14.271,35.754 C7.150,35.754 1.354,29.957 1.354,22.834 C1.354,19.365 2.707,16.124 5.164,13.704 C7.563,11.267 10.805,9.915 14.271,9.915 C14.271,9.915 28.176,9.915 28.176,9.915 C28.176,9.915 28.176,9.915 28.176,9.915 " id="path-6" class="cls-8" fill-rule="evenodd"/>
    <path d="M41.886,35.754 C41.886,35.754 25.571,35.754 25.571,35.754 C25.571,35.754 25.571,9.915 25.571,9.915 C25.571,9.915 41.886,9.915 41.886,9.915 C41.886,9.915 41.886,35.754 41.886,35.754 Z" id="path-7" class="cls-9" fill-rule="evenodd"/>
    <path d="M23.144,9.915 C23.144,9.915 20.680,25.866 20.680,25.866 C20.343,28.047 18.467,29.655 16.261,29.655 C16.261,29.655 7.607,29.655 7.607,29.655 C5.822,29.655 4.137,29.190 2.625,28.384 C4.494,32.734 8.474,35.754 13.084,35.754 C13.084,35.754 25.571,35.754 25.571,35.754 C25.571,35.754 25.571,9.915 25.571,9.915 C25.571,9.915 23.144,9.915 23.144,9.915 Z" id="path-8" class="cls-7" fill-rule="evenodd"/>
    <path d="M36.804,9.915 C36.804,9.915 36.015,26.814 36.015,26.814 C35.888,29.542 33.639,31.688 30.908,31.688 C30.908,31.688 25.571,31.688 25.571,31.688 C25.571,31.688 25.571,35.754 25.571,35.754 C25.571,35.754 41.886,35.754 41.886,35.754 C41.886,35.754 41.886,9.915 41.886,9.915 C41.886,9.915 36.804,9.915 36.804,9.915 Z" id="path-9" class="cls-11" fill-rule="evenodd"/>
    <path d="M53.395,45.682 C53.395,45.682 38.267,34.876 38.267,34.876 C38.267,34.876 38.267,9.915 38.267,9.915 C38.267,9.915 53.395,0.007 53.395,0.007 C53.395,0.007 53.395,45.682 53.395,45.682 Z" id="path-10" class="cls-9" fill-rule="evenodd"/>
    <path d="M49.328,2.906 C49.328,2.906 49.328,29.213 49.328,29.213 C49.328,32.703 45.384,34.732 42.545,32.704 C42.545,32.704 38.267,29.648 38.267,29.648 C38.267,29.648 38.267,34.875 38.267,34.875 C38.267,34.875 53.395,45.682 53.395,45.682 C53.395,45.682 53.395,0.007 53.395,0.007 C53.395,0.007 49.328,2.906 49.328,2.906 Z" id="path-11" class="cls-11" fill-rule="evenodd"/>
  </g>
</svg>
