<svg xmlns="http://www.w3.org/2000/svg" xmlns:xlink="http://www.w3.org/1999/xlink" preserveAspectRatio="xMidYMid" width="60" height="56" viewBox="0 0 60 56">
  <defs>
    <style>

      .cls-3 {
        fill: #142a3b;
      }

      .cls-5 {
        fill: #fbb713;
      }

      .cls-6 {
        fill: #060606;
        opacity: 0.35;
      }
    </style>
  </defs>
  <g id="group-225svg">
    <path d="M26.670,48.488 C26.670,48.488 21.810,48.488 21.810,48.488 C20.874,48.488 20.114,48.912 20.114,49.434 C20.114,49.956 20.874,50.380 21.810,50.380 C21.810,50.380 22.037,50.380 22.037,50.380 C22.974,50.380 23.733,50.804 23.733,51.325 C23.733,51.847 22.974,52.271 22.037,52.271 C22.037,52.271 11.590,52.271 11.590,52.271 C10.653,52.271 9.894,52.694 9.894,53.217 C9.894,53.739 10.653,54.163 11.590,54.163 C11.590,54.163 24.144,54.163 24.144,54.163 C24.144,54.163 49.805,54.163 49.805,54.163 C50.742,54.163 51.501,53.739 51.501,53.217 C51.501,52.694 50.742,52.271 49.805,52.271 C49.805,52.271 46.905,52.271 46.905,52.271 C45.969,52.271 45.209,51.847 45.209,51.325 C45.209,50.804 45.969,50.380 46.905,50.380 C46.905,50.380 58.293,50.380 58.293,50.380 C59.229,50.380 59.989,49.956 59.989,49.434 C59.989,48.912 59.229,48.488 58.293,48.488 C58.293,48.488 57.442,48.488 57.442,48.488 C57.442,48.488 26.670,48.488 26.670,48.488 Z" id="path-1" class="cls-3" fill-rule="evenodd"/>
    <path d="M1.668,55.293 C0.982,55.293 0.428,54.887 0.428,54.385 C0.428,53.884 0.982,53.478 1.668,53.478 C1.668,53.478 5.467,53.478 5.467,53.478 C6.151,53.478 6.707,53.884 6.707,54.385 C6.707,54.887 6.151,55.293 5.467,55.293 C5.467,55.293 1.668,55.293 1.668,55.293 Z" id="path-2" class="cls-3" fill-rule="evenodd"/>
    <path d="M26.406,19.258 C15.103,19.258 6.655,30.913 6.655,41.333 C6.655,44.657 7.499,46.942 9.229,48.322 C11.058,49.784 13.615,49.970 15.637,49.970 C17.094,49.970 18.680,49.858 20.361,49.740 C24.237,49.471 28.581,49.471 32.454,49.740 C34.136,49.858 35.725,49.970 37.177,49.970 C41.620,49.970 46.158,48.944 46.158,41.333 C46.158,30.913 37.712,19.258 26.406,19.258 Z" id="path-3" class="cls-5" fill-rule="evenodd"/>
    <path d="M34.854,21.574 C38.894,25.890 41.354,31.868 41.354,37.490 C41.354,45.101 36.816,46.127 32.373,46.127 C30.921,46.127 29.332,46.016 27.651,45.898 C23.777,45.628 19.434,45.628 15.558,45.898 C13.877,46.016 12.290,46.127 10.834,46.127 C9.776,46.127 8.575,46.071 7.406,45.813 C7.831,46.847 8.432,47.686 9.229,48.322 C11.058,49.784 13.615,49.970 15.637,49.970 C17.094,49.970 18.680,49.858 20.361,49.740 C24.237,49.471 28.581,49.471 32.454,49.740 C34.136,49.858 35.725,49.970 37.177,49.970 C41.619,49.970 46.158,48.944 46.158,41.333 C46.158,33.736 41.667,25.489 34.854,21.574 Z" id="path-4" class="cls-6" fill-rule="evenodd"/>
    <path d="M10.229,25.707 C11.570,25.158 12.594,24.069 13.109,22.643 C13.790,20.762 13.549,18.491 12.449,16.412 C10.535,12.800 6.319,10.784 3.252,12.046 C1.908,12.595 0.887,13.687 0.369,15.114 C-0.312,16.993 -0.070,19.264 1.030,21.346 C2.539,24.195 5.400,26.111 8.148,26.111 C8.879,26.111 9.580,25.974 10.229,25.707 Z" id="path-5" class="cls-5" fill-rule="evenodd"/>
    <path d="M21.115,18.888 C21.410,18.888 21.705,18.858 22.000,18.799 C25.461,18.091 27.546,13.453 26.752,8.240 C25.960,3.037 22.501,-0.601 19.031,0.107 C15.568,0.813 13.486,5.449 14.280,10.664 C15.006,15.429 17.879,18.888 21.115,18.888 Z" id="path-6" class="cls-5" fill-rule="evenodd"/>
    <path d="M52.446,15.114 C51.932,13.689 50.905,12.595 49.564,12.046 C46.489,10.780 42.280,12.800 40.367,16.412 C39.267,18.493 39.026,20.764 39.707,22.643 C40.222,24.069 41.245,25.155 42.586,25.707 C43.235,25.972 43.937,26.108 44.670,26.108 C44.670,26.108 44.672,26.108 44.672,26.108 C47.418,26.108 50.274,24.193 51.783,21.346 C52.884,19.267 53.127,16.995 52.446,15.114 Z" id="path-7" class="cls-5" fill-rule="evenodd"/>
    <path d="M33.142,18.799 C33.437,18.858 33.732,18.888 34.024,18.888 C34.024,18.888 34.027,18.888 34.027,18.888 C37.258,18.888 40.133,15.429 40.861,10.664 C41.656,5.449 39.568,0.813 36.110,0.107 C32.636,-0.601 29.180,3.037 28.390,8.240 C27.592,13.453 29.679,18.091 33.142,18.799 Z" id="path-8" class="cls-5" fill-rule="evenodd"/>
    <path d="M12.449,16.412 C11.053,13.776 8.431,11.997 5.923,11.716 C7.392,12.542 8.711,13.835 9.566,15.451 C10.667,17.530 10.908,19.802 10.227,21.683 C9.712,23.108 8.688,24.197 7.348,24.746 C6.698,25.014 5.997,25.150 5.267,25.150 C5.059,25.150 4.851,25.118 4.643,25.097 C5.755,25.735 6.959,26.111 8.148,26.111 C8.879,26.111 9.580,25.974 10.229,25.707 C11.570,25.158 12.594,24.069 13.109,22.643 C13.790,20.762 13.549,18.491 12.449,16.412 Z" id="path-9" class="cls-6" fill-rule="evenodd"/>
    <path d="M26.752,8.240 C26.124,4.118 23.822,0.988 21.168,0.213 C22.487,1.682 23.488,3.816 23.869,6.319 C24.664,11.532 22.578,16.170 19.118,16.878 C18.823,16.937 18.527,16.967 18.232,16.967 C17.798,16.967 17.369,16.899 16.952,16.779 C18.133,18.104 19.581,18.887 21.115,18.887 C21.410,18.887 21.705,18.858 22.000,18.799 C25.461,18.091 27.546,13.453 26.752,8.240 Z" id="path-10" class="cls-6" fill-rule="evenodd"/>
    <path d="M52.446,15.114 C52.007,13.899 51.182,12.949 50.121,12.347 C50.273,12.616 50.416,12.892 50.525,13.193 C51.205,15.074 50.963,17.345 49.862,19.425 C48.353,22.272 45.496,24.187 42.751,24.187 C42.751,24.187 42.748,24.187 42.748,24.187 C42.016,24.187 41.314,24.052 40.665,23.786 C40.467,23.704 40.291,23.588 40.107,23.484 C40.677,24.491 41.526,25.271 42.586,25.707 C43.235,25.972 43.937,26.108 44.670,26.108 C44.670,26.108 44.672,26.108 44.672,26.108 C47.418,26.108 50.274,24.193 51.783,21.346 C52.884,19.267 53.127,16.995 52.446,15.114 Z" id="path-11" class="cls-6" fill-rule="evenodd"/>
    <path d="M38.334,1.249 C39.052,3.083 39.309,5.367 38.940,7.782 C38.212,12.548 35.337,16.005 32.105,16.005 C32.105,16.005 32.103,16.005 32.103,16.005 C31.810,16.005 31.516,15.976 31.221,15.918 C30.392,15.748 29.645,15.348 28.994,14.774 C29.826,16.900 31.283,18.419 33.142,18.799 C33.437,18.858 33.732,18.887 34.024,18.887 C34.024,18.887 34.027,18.887 34.027,18.887 C37.258,18.887 40.133,15.429 40.861,10.664 C41.466,6.697 40.399,3.071 38.334,1.249 Z" id="path-12" class="cls-6" fill-rule="evenodd"/>
  </g>
</svg>
