<svg xmlns="http://www.w3.org/2000/svg" xmlns:xlink="http://www.w3.org/1999/xlink" preserveAspectRatio="xMidYMid" width="60" height="44" viewBox="0 0 60 44">
  <defs>
    <style>

      .cls-3 {
        fill: #0cb04a;
      }

      .cls-6 {
        fill: #ff3a2f;
      }

      .cls-7 {
        fill: #000000;
        opacity: 0.35;
      }
    </style>
  </defs>
  <g id="group-221svg">
    <path d="M41.873,44.007 C41.873,44.007 45.850,44.007 45.850,44.007 C46.616,44.007 47.238,43.646 47.238,43.201 C47.238,42.756 46.616,42.395 45.850,42.395 C45.850,42.395 45.664,42.395 45.664,42.395 C44.897,42.395 44.276,42.034 44.276,41.589 C44.276,41.144 44.897,40.783 45.664,40.783 C45.664,40.783 54.212,40.783 54.212,40.783 C54.979,40.783 55.601,40.423 55.601,39.977 C55.601,39.532 54.979,39.172 54.212,39.172 C54.212,39.172 43.940,39.172 43.940,39.172 C43.940,39.172 22.943,39.172 22.943,39.172 C22.176,39.172 21.555,39.532 21.555,39.977 C21.555,40.423 22.176,40.783 22.943,40.783 C22.943,40.783 25.315,40.783 25.315,40.783 C26.082,40.783 26.704,41.144 26.704,41.589 C26.704,42.034 26.082,42.395 25.315,42.395 C25.315,42.395 14.025,42.395 14.025,42.395 C13.258,42.395 12.637,42.756 12.637,43.201 C12.637,43.646 13.258,44.007 14.025,44.007 C14.025,44.007 16.693,44.007 16.693,44.007 C16.693,44.007 41.873,44.007 41.873,44.007 Z" id="path-1" class="cls-3" fill-rule="evenodd"/>
    <path d="M15.463,36.198 C15.463,36.198 17.564,36.198 17.564,36.198 C17.970,36.198 18.298,35.910 18.298,35.556 C18.298,35.201 17.970,34.914 17.564,34.914 C17.564,34.914 17.467,34.914 17.467,34.914 C17.061,34.914 16.733,34.626 16.733,34.271 C16.733,33.917 17.061,33.630 17.467,33.630 C17.467,33.630 21.984,33.630 21.984,33.630 C22.390,33.630 22.718,33.342 22.718,32.987 C22.718,32.633 22.390,32.346 21.984,32.346 C21.984,32.346 16.555,32.346 16.555,32.346 C16.555,32.346 5.458,32.346 5.458,32.346 C5.053,32.346 4.724,32.633 4.724,32.987 C4.724,33.342 5.053,33.630 5.458,33.630 C5.458,33.630 6.712,33.630 6.712,33.630 C7.117,33.630 7.445,33.917 7.445,34.271 C7.445,34.626 7.117,34.914 6.712,34.914 C6.712,34.914 0.745,34.914 0.745,34.914 C0.339,34.914 0.011,35.201 0.011,35.556 C0.011,35.910 0.339,36.198 0.745,36.198 C0.745,36.198 2.155,36.198 2.155,36.198 C2.155,36.198 15.463,36.198 15.463,36.198 Z" id="path-2" class="cls-3" fill-rule="evenodd"/>
    <path d="M15.828,39.115 C16.692,39.115 17.392,39.513 17.392,40.004 C17.392,40.494 16.692,40.892 15.828,40.892 C15.828,40.892 11.038,40.892 11.038,40.892 C10.174,40.892 9.475,40.494 9.475,40.004 C9.475,39.513 10.174,39.115 11.038,39.115 C11.038,39.115 15.828,39.115 15.828,39.115 Z" id="path-3" class="cls-3" fill-rule="evenodd"/>
    <path d="M58.442,21.004 C59.437,19.040 60.011,16.826 60.011,14.473 C60.011,6.476 53.528,-0.007 45.531,-0.007 C40.581,-0.007 36.217,2.479 33.605,6.267 C30.994,2.479 26.629,-0.007 21.681,-0.007 C13.684,-0.007 7.200,6.476 7.200,14.473 C7.200,17.265 8.004,19.863 9.372,22.074 C12.714,28.652 20.931,35.107 33.779,41.447 C42.613,36.839 49.906,31.361 55.524,24.936 C56.375,24.123 58.442,21.004 58.442,21.004 Z" id="path-4" class="cls-6" fill-rule="evenodd"/>
    <path d="M31.955,8.256 C32.446,7.545 32.999,6.879 33.605,6.267 C30.245,1.590 25.700,-0.007 21.681,-0.007 C21.126,-0.007 20.581,0.031 20.042,0.092 C24.297,0.579 29.641,4.899 31.955,8.256 Z" id="path-5" class="cls-7" fill-rule="evenodd"/>
    <path d="M45.531,-0.007 C44.968,-0.007 44.414,0.029 43.868,0.092 C51.093,0.907 56.710,7.031 56.710,14.473 C56.710,16.826 56.137,19.040 55.142,21.004 C55.142,21.004 53.074,24.123 52.223,24.936 C46.950,30.968 40.181,36.155 32.065,40.581 C32.631,40.870 33.195,41.158 33.779,41.447 C42.613,36.839 49.906,31.361 55.524,24.936 C56.375,24.123 58.442,21.004 58.442,21.004 C59.437,19.040 60.011,16.826 60.011,14.473 C60.011,6.476 53.528,-0.007 45.531,-0.007 Z" id="path-6" class="cls-7" fill-rule="evenodd"/>
  </g>
</svg>
