<svg xmlns="http://www.w3.org/2000/svg" xmlns:xlink="http://www.w3.org/1999/xlink" preserveAspectRatio="xMidYMid" width="61" height="42" viewBox="0 0 61 42">
  <defs>
    <style>

      .cls-3 {
        fill: #0cb04a;
      }

      .cls-5 {
        fill: #fbb713;
      }

      .cls-6 {
        fill: #000000;
        opacity: 0.35;
      }

      .cls-14 {
        fill: #ededed;
      }
    </style>
  </defs>
  <g id="group-304svg">
    <path d="M31.874,41.905 C31.874,41.905 36.186,41.905 36.186,41.905 C37.019,41.905 37.692,41.395 37.692,40.765 C37.692,40.136 37.019,39.626 36.186,39.626 C36.186,39.626 35.986,39.626 35.986,39.626 C35.154,39.626 34.480,39.115 34.480,38.486 C34.480,37.857 35.154,37.347 35.986,37.347 C35.986,37.347 45.258,37.347 45.258,37.347 C46.090,37.347 46.764,36.836 46.764,36.207 C46.764,35.578 46.090,35.067 45.258,35.067 C45.258,35.067 34.115,35.067 34.115,35.067 C34.115,35.067 11.340,35.067 11.340,35.067 C10.509,35.067 9.834,35.578 9.834,36.207 C9.834,36.836 10.509,37.347 11.340,37.347 C11.340,37.347 13.913,37.347 13.913,37.347 C14.745,37.347 15.419,37.857 15.419,38.486 C15.419,39.115 14.745,39.626 13.913,39.626 C13.913,39.626 3.807,39.626 3.807,39.626 C2.975,39.626 2.301,40.136 2.301,40.765 C2.301,41.395 2.975,41.905 3.807,41.905 C3.807,41.905 4.561,41.905 4.561,41.905 C4.561,41.905 31.874,41.905 31.874,41.905 Z" id="path-1" class="cls-3" fill-rule="evenodd"/>
    <path d="M5.123,34.762 C5.820,34.762 6.386,35.309 6.386,35.983 C6.386,36.658 5.820,37.205 5.123,37.205 C5.123,37.205 1.255,37.205 1.255,37.205 C0.558,37.205 -0.008,36.658 -0.008,35.983 C-0.008,35.309 0.558,34.762 1.255,34.762 C1.255,34.762 5.123,34.762 5.123,34.762 Z" id="path-2" class="cls-3" fill-rule="evenodd"/>
    <path d="M59.984,25.236 C59.891,20.857 48.517,19.684 41.781,19.684 C35.046,19.684 23.672,20.857 23.578,25.236 C23.578,25.236 23.570,25.236 23.570,25.236 C23.570,25.236 23.570,30.892 23.570,30.892 C23.570,35.305 35.017,36.482 41.781,36.482 C48.545,36.482 59.992,35.298 59.992,30.866 C59.992,30.866 59.992,25.236 59.992,25.236 C59.992,25.236 59.984,25.236 59.984,25.236 Z" id="path-3" class="cls-5" fill-rule="evenodd"/>
    <path d="M59.984,25.236 C59.891,20.857 48.517,19.684 41.781,19.684 C35.046,19.684 23.672,20.857 23.578,25.236 C23.578,25.236 23.570,25.236 23.570,25.236 C23.570,25.236 23.570,30.892 23.570,30.892 C23.570,35.305 35.017,36.482 41.781,36.482 C48.545,36.482 59.992,35.298 59.992,30.866 C59.992,30.866 59.992,25.236 59.992,25.236 C59.992,25.236 59.984,25.236 59.984,25.236 Z" id="path-4" class="cls-6" fill-rule="evenodd"/>
    <path d="M41.781,30.890 C35.017,30.890 23.570,29.711 23.570,25.288 C23.570,20.864 35.017,19.684 41.781,19.684 C48.545,19.684 59.992,20.864 59.992,25.288 C59.992,29.711 48.545,30.890 41.781,30.890 Z" id="path-5" class="cls-5" fill-rule="evenodd"/>
    <path d="M53.024,15.015 C52.931,10.635 41.558,9.462 34.821,9.462 C28.086,9.462 16.713,10.635 16.619,15.015 C16.619,15.015 16.610,15.015 16.610,15.015 C16.610,15.015 16.610,20.670 16.610,20.670 C16.610,25.083 28.059,26.259 34.821,26.259 C41.585,26.259 53.033,25.077 53.033,20.644 C53.033,20.644 53.033,15.015 53.033,15.015 C53.033,15.015 53.024,15.015 53.024,15.015 Z" id="path-6" class="cls-5" fill-rule="evenodd"/>
    <path d="M53.024,15.015 C52.931,10.635 41.558,9.462 34.821,9.462 C28.086,9.462 16.713,10.635 16.619,15.015 C16.619,15.015 16.610,15.015 16.610,15.015 C16.610,15.015 16.610,20.670 16.610,20.670 C16.610,25.083 28.059,26.259 34.821,26.259 C41.585,26.259 53.033,25.077 53.033,20.644 C53.033,20.644 53.033,15.015 53.033,15.015 C53.033,15.015 53.024,15.015 53.024,15.015 Z" id="path-7" class="cls-6" fill-rule="evenodd"/>
    <path d="M34.821,20.669 C28.059,20.669 16.610,19.490 16.610,15.067 C16.610,10.642 28.059,9.462 34.821,9.462 C41.585,9.462 53.033,10.642 53.033,15.067 C53.033,19.490 41.585,20.669 34.821,20.669 Z" id="path-8" class="cls-5" fill-rule="evenodd"/>
    <path d="M45.304,5.554 C45.210,1.174 33.837,0.001 27.101,0.001 C20.365,0.001 8.992,1.174 8.898,5.554 C8.898,5.554 8.890,5.554 8.890,5.554 C8.890,5.554 8.890,11.210 8.890,11.210 C8.890,15.622 20.338,16.799 27.101,16.799 C33.864,16.799 45.312,15.616 45.312,11.183 C45.312,11.183 45.312,5.554 45.312,5.554 C45.312,5.554 45.304,5.554 45.304,5.554 Z" id="path-9" class="cls-5" fill-rule="evenodd"/>
    <path d="M45.304,5.554 C45.210,1.174 33.837,0.001 27.101,0.001 C20.365,0.001 8.992,1.174 8.898,5.554 C8.898,5.554 8.890,5.554 8.890,5.554 C8.890,5.554 8.890,11.210 8.890,11.210 C8.890,15.622 20.338,16.799 27.101,16.799 C33.864,16.799 45.312,15.616 45.312,11.183 C45.312,11.183 45.312,5.554 45.312,5.554 C45.312,5.554 45.304,5.554 45.304,5.554 Z" id="path-10" class="cls-6" fill-rule="evenodd"/>
    <path d="M27.101,11.208 C20.338,11.208 8.890,10.029 8.890,5.606 C8.890,1.182 20.338,0.001 27.101,0.001 C33.864,0.001 45.312,1.182 45.312,5.606 C45.312,10.029 33.864,11.208 27.101,11.208 Z" id="path-11" class="cls-5" fill-rule="evenodd"/>
    <path d="M13.438,7.881 C12.886,7.881 12.438,7.434 12.438,6.881 C12.438,2.021 23.745,1.643 27.210,1.643 C27.763,1.643 28.210,2.091 28.210,2.643 C28.210,3.195 27.763,3.643 27.210,3.643 C20.168,3.643 14.438,5.096 14.438,6.881 C14.438,7.434 13.991,7.881 13.438,7.881 Z" id="path-12" class="cls-14" fill-rule="evenodd"/>
  </g>
</svg>
