<svg xmlns="http://www.w3.org/2000/svg" xmlns:xlink="http://www.w3.org/1999/xlink" preserveAspectRatio="xMidYMid" width="60" height="52" viewBox="0 0 60 52">
  <defs>
    <style>

      .cls-3 {
        fill: #2476ff;
      }

      .cls-4 {
        fill: #fbb713;
      }

      .cls-6 {
        fill: #142a3b;
      }

      .cls-7 {
        fill: #040404;
        opacity: 0.35;
      }

      .cls-8 {
        fill: #ff3a2f;
      }

      .cls-9 {
        fill: #ffffff;
        opacity: 0.5;
      }

      .cls-11 {
        fill: #ffe56d;
      }

      .cls-13 {
        fill: #0cb04a;
      }

      .cls-15 {
        fill: #ffffff;
      }
    </style>
  </defs>
  <g id="group-69svg">
    <path d="M19.896,39.703 C19.896,39.703 23.949,39.703 23.949,39.703 C24.730,39.703 25.364,40.105 25.364,40.600 C25.364,41.095 24.730,41.496 23.949,41.496 C23.949,41.496 23.761,41.496 23.761,41.496 C22.979,41.496 22.346,41.898 22.346,42.392 C22.346,42.888 22.979,43.289 23.761,43.289 C23.761,43.289 32.474,43.289 32.474,43.289 C33.255,43.289 33.888,43.691 33.888,44.186 C33.888,44.680 33.255,45.082 32.474,45.082 C32.474,45.082 22.003,45.082 22.003,45.082 C22.003,45.082 10.495,45.082 10.495,45.082 C9.713,45.082 9.080,44.680 9.080,44.186 C9.080,43.691 9.713,43.289 10.495,43.289 C10.495,43.289 12.913,43.289 12.913,43.289 C13.694,43.289 14.328,42.888 14.328,42.392 C14.328,41.898 13.694,41.496 12.913,41.496 C12.913,41.496 1.405,41.496 1.405,41.496 C0.624,41.496 -0.010,41.095 -0.010,40.600 C-0.010,40.105 0.624,39.703 1.405,39.703 C1.405,39.703 4.125,39.703 4.125,39.703 C4.125,39.703 19.896,39.703 19.896,39.703 Z" id="path-1" class="cls-3" fill-rule="evenodd"/>
    <path d="M49.518,38.743 C50.410,38.743 51.133,38.285 51.133,37.720 C51.133,37.154 50.410,36.696 49.518,36.696 C49.518,36.696 44.567,36.696 44.567,36.696 C43.675,36.696 42.951,37.154 42.951,37.720 C42.951,38.285 43.675,38.743 44.567,38.743 C44.567,38.743 49.518,38.743 49.518,38.743 Z" id="path-2" class="cls-4" fill-rule="evenodd"/>
    <path d="M45.998,8.183 C45.998,8.183 50.052,8.183 50.052,8.183 C50.833,8.183 51.466,8.584 51.466,9.079 C51.466,9.574 50.833,9.976 50.052,9.976 C50.052,9.976 49.862,9.976 49.862,9.976 C49.081,9.976 48.448,10.377 48.448,10.872 C48.448,11.367 49.081,11.769 49.862,11.769 C49.862,11.769 58.575,11.769 58.575,11.769 C59.356,11.769 59.990,12.170 59.990,12.665 C59.990,13.160 59.356,13.562 58.575,13.562 C58.575,13.562 48.104,13.562 48.104,13.562 C48.104,13.562 36.597,13.562 36.597,13.562 C35.815,13.562 35.182,13.160 35.182,12.665 C35.182,12.170 35.815,11.769 36.597,11.769 C36.597,11.769 39.016,11.769 39.016,11.769 C39.797,11.769 40.430,11.367 40.430,10.872 C40.430,10.377 39.797,9.976 39.016,9.976 C39.016,9.976 27.507,9.976 27.507,9.976 C26.726,9.976 26.092,9.574 26.092,9.079 C26.092,8.584 26.726,8.183 27.507,8.183 C27.507,8.183 30.226,8.183 30.226,8.183 C30.226,8.183 45.998,8.183 45.998,8.183 Z" id="path-3" class="cls-4" fill-rule="evenodd"/>
    <path d="M32.200,1.509 C32.200,1.509 24.347,9.361 24.347,9.361 C24.347,9.361 30.580,15.595 30.580,15.595 C30.580,15.595 40.634,5.542 40.634,5.542 C40.634,5.542 46.187,-0.012 46.187,-0.012 C46.187,-0.012 32.200,1.509 32.200,1.509 Z" id="path-4" class="cls-6" fill-rule="evenodd"/>
    <path d="M32.200,1.509 C32.200,1.509 30.580,15.595 30.580,15.595 C30.580,15.595 24.347,9.361 24.347,9.361 C24.347,9.361 32.200,1.509 32.200,1.509 Z" id="path-5" class="cls-7" fill-rule="evenodd"/>
    <path d="M44.667,17.214 C44.667,17.214 36.814,9.361 36.814,9.361 C36.814,9.361 30.580,15.595 30.580,15.595 C30.580,15.595 40.634,25.648 40.634,25.648 C40.634,25.648 46.188,31.202 46.188,31.202 C46.188,31.202 44.667,17.214 44.667,17.214 Z" id="path-6" class="cls-8" fill-rule="evenodd"/>
    <path d="M44.667,17.214 C44.667,17.214 30.580,15.595 30.580,15.595 C30.580,15.595 36.814,9.361 36.814,9.361 C36.814,9.361 44.667,17.214 44.667,17.214 Z" id="path-7" class="cls-9" fill-rule="evenodd"/>
    <path d="M30.580,51.357 C30.054,51.357 29.626,50.930 29.626,50.402 C29.626,50.402 29.626,15.049 29.626,15.049 C29.626,14.523 30.054,14.095 30.580,14.095 C31.107,14.095 31.535,14.523 31.535,15.049 C31.535,15.049 31.535,50.402 31.535,50.402 C31.535,50.930 31.107,51.357 30.580,51.357 Z" id="path-8" class="cls-6" fill-rule="evenodd"/>
    <path d="M30.580,15.595 C30.580,15.595 20.527,25.648 20.527,25.648 C20.527,25.648 14.973,31.202 14.973,31.202 C14.973,31.202 28.962,29.681 28.962,29.681 C28.962,29.681 36.814,21.828 36.814,21.828 C36.814,21.828 30.580,15.595 30.580,15.595 Z" id="path-9" class="cls-11" fill-rule="evenodd"/>
    <path d="M28.962,29.681 C28.962,29.681 30.580,15.595 30.580,15.595 C30.580,15.595 36.814,21.828 36.814,21.828 C36.814,21.828 28.962,29.681 28.962,29.681 Z" id="path-10" class="cls-9" fill-rule="evenodd"/>
    <path d="M20.527,5.542 C20.527,5.542 14.973,-0.013 14.973,-0.013 C14.973,-0.013 16.494,13.976 16.494,13.976 C16.494,13.976 24.347,21.828 24.347,21.828 C24.347,21.828 30.580,15.595 30.580,15.595 C30.580,15.595 20.527,5.542 20.527,5.542 Z" id="path-11" class="cls-13" fill-rule="evenodd"/>
    <path d="M16.494,13.976 C16.494,13.976 30.580,15.595 30.580,15.595 C30.580,15.595 24.347,21.828 24.347,21.828 C24.347,21.828 16.494,13.976 16.494,13.976 Z" id="path-12" class="cls-9" fill-rule="evenodd"/>
    <path d="M31.475,16.490 C30.981,16.985 30.180,16.985 29.685,16.490 C29.190,15.995 29.190,15.194 29.685,14.699 C30.180,14.205 30.981,14.205 31.475,14.699 C31.970,15.194 31.970,15.995 31.475,16.490 Z" id="path-13" class="cls-15" fill-rule="evenodd"/>
  </g>
</svg>
