<svg xmlns="http://www.w3.org/2000/svg" xmlns:xlink="http://www.w3.org/1999/xlink" preserveAspectRatio="xMidYMid" width="60" height="53" viewBox="0 0 60 53">
  <defs>
    <style>

      .cls-3 {
        fill: #ff3a2f;
      }

      .cls-6 {
        fill: #142a3b;
      }

      .cls-7 {
        fill: #060606;
        opacity: 0.35;
      }

      .cls-8 {
        fill: #fbb713;
      }

      .cls-9 {
        fill: #060606;
        opacity: 0.25;
      }
    </style>
  </defs>
  <g id="group-216svg">
    <path d="M45.194,52.129 C45.194,52.129 49.486,52.129 49.486,52.129 C50.313,52.129 50.984,51.740 50.984,51.259 C50.984,50.778 50.313,50.389 49.486,50.389 C49.486,50.389 49.286,50.389 49.286,50.389 C48.459,50.389 47.788,50.000 47.788,49.519 C47.788,49.039 48.459,48.649 49.286,48.649 C49.286,48.649 58.513,48.649 58.513,48.649 C59.340,48.649 60.011,48.260 60.011,47.779 C60.011,47.299 59.340,46.910 58.513,46.910 C58.513,46.910 47.425,46.910 47.425,46.910 C47.425,46.910 24.762,46.910 24.762,46.910 C23.934,46.910 23.264,47.299 23.264,47.779 C23.264,48.260 23.934,48.649 24.762,48.649 C24.762,48.649 27.323,48.649 27.323,48.649 C28.150,48.649 28.821,49.039 28.821,49.519 C28.821,50.000 28.150,50.389 27.323,50.389 C27.323,50.389 15.137,50.389 15.137,50.389 C14.309,50.389 13.638,50.778 13.638,51.259 C13.638,51.740 14.309,52.129 15.137,52.129 C15.137,52.129 18.017,52.129 18.017,52.129 C18.017,52.129 45.194,52.129 45.194,52.129 Z" id="path-1" class="cls-3" fill-rule="evenodd"/>
    <path d="M16.689,43.700 C16.689,43.700 18.957,43.700 18.957,43.700 C19.394,43.700 19.749,43.390 19.749,43.007 C19.749,42.624 19.394,42.314 18.957,42.314 C18.957,42.314 18.852,42.314 18.852,42.314 C18.414,42.314 18.060,42.004 18.060,41.621 C18.060,41.239 18.414,40.929 18.852,40.929 C18.852,40.929 23.727,40.929 23.727,40.929 C24.165,40.929 24.519,40.618 24.519,40.235 C24.519,39.853 24.165,39.542 23.727,39.542 C23.727,39.542 17.868,39.542 17.868,39.542 C17.868,39.542 5.890,39.542 5.890,39.542 C5.453,39.542 5.098,39.853 5.098,40.235 C5.098,40.618 5.453,40.929 5.890,40.929 C5.890,40.929 7.244,40.929 7.244,40.929 C7.681,40.929 8.035,41.239 8.035,41.621 C8.035,42.004 7.681,42.314 7.244,42.314 C7.244,42.314 0.803,42.314 0.803,42.314 C0.365,42.314 0.011,42.624 0.011,43.007 C0.011,43.390 0.365,43.700 0.803,43.700 C0.803,43.700 2.325,43.700 2.325,43.700 C2.325,43.700 16.689,43.700 16.689,43.700 Z" id="path-2" class="cls-3" fill-rule="evenodd"/>
    <path d="M9.816,50.556 C10.748,50.556 11.503,50.985 11.503,51.515 C11.503,52.044 10.748,52.474 9.816,52.474 C9.816,52.474 4.645,52.474 4.645,52.474 C3.713,52.474 2.957,52.044 2.957,51.515 C2.957,50.985 3.713,50.556 4.645,50.556 C4.645,50.556 9.816,50.556 9.816,50.556 Z" id="path-3" class="cls-3" fill-rule="evenodd"/>
    <path d="M29.572,8.093 C34.754,8.093 40.096,5.135 41.159,0.130 C41.159,0.130 41.176,0.138 41.176,0.138 C41.176,0.138 41.176,0.012 41.176,0.012 C41.176,0.012 17.989,0.012 17.989,0.012 C19.070,5.083 24.502,8.093 29.572,8.093 Z" id="path-4" class="cls-6" fill-rule="evenodd"/>
    <path d="M37.057,0.012 C35.601,4.500 30.582,7.126 25.701,7.126 C25.269,7.126 24.834,7.095 24.400,7.052 C26.040,7.728 27.825,8.093 29.572,8.093 C34.754,8.093 40.096,5.135 41.159,0.130 C41.159,0.130 41.176,0.138 41.176,0.138 C41.176,0.138 41.176,0.012 41.176,0.012 C41.176,0.012 37.057,0.012 37.057,0.012 Z" id="path-5" class="cls-7" fill-rule="evenodd"/>
    <path d="M52.652,19.403 C52.652,19.403 45.648,19.403 45.648,19.403 C44.972,19.403 45.055,19.525 45.055,20.200 C45.055,20.200 45.055,48.233 45.055,48.233 C45.055,48.233 16.224,48.233 16.224,48.233 C16.224,48.233 16.224,20.200 16.224,20.200 C16.224,19.525 14.577,19.403 13.902,19.403 C13.902,19.403 6.493,19.403 6.493,19.403 C6.493,19.403 2.957,7.430 2.957,7.430 C2.957,7.430 17.989,0.012 17.989,0.012 C19.070,5.083 24.502,8.093 29.572,8.093 C34.754,8.093 40.096,5.135 41.159,0.130 C41.159,0.130 56.184,7.454 56.184,7.454 C56.184,7.454 52.652,19.403 52.652,19.403 Z" id="path-6" class="cls-8" fill-rule="evenodd"/>
    <path d="M41.159,0.130 C41.068,0.558 40.935,0.965 40.784,1.362 C40.784,1.362 53.280,7.454 53.280,7.454 C53.280,7.454 49.749,19.403 49.749,19.403 C49.749,19.403 52.652,19.403 52.652,19.403 C52.652,19.403 56.184,7.454 56.184,7.454 C56.184,7.454 41.159,0.130 41.159,0.130 Z" id="path-7" class="cls-9" fill-rule="evenodd"/>
    <path d="M26.668,8.093 C27.159,8.093 27.650,8.058 28.140,8.006 C23.521,7.502 18.968,4.607 17.989,0.012 C17.989,0.012 15.465,1.259 15.465,1.259 C17.101,5.569 22.031,8.093 26.668,8.093 Z" id="path-8" class="cls-9" fill-rule="evenodd"/>
    <path d="M42.151,20.200 C42.151,20.200 42.151,48.233 42.151,48.233 C42.151,48.233 45.055,48.233 45.055,48.233 C45.055,48.233 45.055,20.200 45.055,20.200 C45.055,19.525 44.972,19.403 45.648,19.403 C45.648,19.403 42.745,19.403 42.745,19.403 C42.069,19.403 42.151,19.525 42.151,20.200 Z" id="path-9" class="cls-9" fill-rule="evenodd"/>
  </g>
</svg>
