<svg xmlns="http://www.w3.org/2000/svg" xmlns:xlink="http://www.w3.org/1999/xlink" preserveAspectRatio="xMidYMid" width="60" height="60" viewBox="0 0 60 60">
  <defs>
    <style>

      .cls-3 {
        fill: #2476ff;
      }

      .cls-6 {
        fill: #ff3a2f;
      }

      .cls-7 {
        fill: #020403;
        opacity: 0.25;
      }

      .cls-8 {
        fill: #142a3b;
      }

      .cls-9 {
        fill: #020403;
        opacity: 0.35;
      }

      .cls-10 {
        fill: #fbb713;
      }

      .cls-13 {
        fill: #ededed;
      }

      .cls-16 {
        fill: #ffffff;
      }
    </style>
  </defs>
  <g id="group-40svg">
    <path d="M43.461,52.997 C43.461,52.997 48.256,52.997 48.256,52.997 C49.181,52.997 49.930,53.442 49.930,53.991 C49.930,54.540 49.181,54.984 48.256,54.984 C48.256,54.984 48.033,54.984 48.033,54.984 C47.108,54.984 46.359,55.430 46.359,55.978 C46.359,56.526 47.108,56.971 48.033,56.971 C48.033,56.971 58.341,56.971 58.341,56.971 C59.266,56.971 60.016,57.416 60.016,57.965 C60.016,58.513 59.266,58.958 58.341,58.958 C58.341,58.958 45.953,58.958 45.953,58.958 C45.953,58.958 32.337,58.958 32.337,58.958 C31.413,58.958 30.663,58.513 30.663,57.965 C30.663,57.416 31.413,56.971 32.337,56.971 C32.337,56.971 35.198,56.971 35.198,56.971 C36.123,56.971 36.873,56.526 36.873,55.978 C36.873,55.430 36.123,54.984 35.198,54.984 C35.198,54.984 21.582,54.984 21.582,54.984 C20.658,54.984 19.909,54.540 19.909,53.991 C19.909,53.442 20.658,52.997 21.582,52.997 C21.582,52.997 24.800,52.997 24.800,52.997 C24.800,52.997 43.461,52.997 43.461,52.997 Z" id="path-1" class="cls-3" fill-rule="evenodd"/>
    <path d="M7.622,50.710 C7.622,50.710 9.171,50.710 9.171,50.710 C9.470,50.710 9.711,51.155 9.711,51.703 C9.711,52.252 9.470,52.697 9.171,52.697 C9.171,52.697 9.099,52.697 9.099,52.697 C8.800,52.697 8.558,53.142 8.558,53.690 C8.558,54.239 8.800,54.684 9.099,54.684 C9.099,54.684 12.428,54.684 12.428,54.684 C12.726,54.684 12.969,55.129 12.969,55.678 C12.969,56.226 12.726,56.671 12.428,56.671 C12.428,56.671 8.427,56.671 8.427,56.671 C8.427,56.671 4.030,56.671 4.030,56.671 C3.731,56.671 3.489,56.226 3.489,55.678 C3.489,55.129 3.731,54.684 4.030,54.684 C4.030,54.684 4.954,54.684 4.954,54.684 C5.252,54.684 5.494,54.239 5.494,53.690 C5.494,53.142 5.252,52.697 4.954,52.697 C4.954,52.697 0.556,52.697 0.556,52.697 C0.257,52.697 0.016,52.252 0.016,51.703 C0.016,51.155 0.257,50.710 0.556,50.710 C0.556,50.710 1.595,50.710 1.595,50.710 C1.595,50.710 7.622,50.710 7.622,50.710 Z" id="path-2" class="cls-3" fill-rule="evenodd"/>
    <path d="M22.361,59.562 C23.310,59.562 24.080,59.087 24.080,58.502 C24.080,57.916 23.310,57.442 22.361,57.442 C22.361,57.442 17.093,57.442 17.093,57.442 C16.144,57.442 15.374,57.916 15.374,58.502 C15.374,59.087 16.144,59.562 17.093,59.562 C17.093,59.562 22.361,59.562 22.361,59.562 Z" id="path-3" class="cls-3" fill-rule="evenodd"/>
    <path d="M38.623,46.033 C38.623,46.033 23.751,46.033 23.751,46.033 C23.751,46.033 26.453,6.409 26.453,6.409 C26.453,6.409 35.921,6.409 35.921,6.409 C35.921,6.409 38.623,46.033 38.623,46.033 Z" id="path-4" class="cls-6" fill-rule="evenodd"/>
    <path d="M32.050,8.345 C32.050,8.345 34.620,46.033 34.620,46.033 C34.620,46.033 38.623,46.033 38.623,46.033 C38.623,46.033 35.921,6.409 35.921,6.409 C35.921,6.409 26.453,6.409 26.453,6.409 C26.453,6.409 26.321,8.345 26.321,8.345 C26.321,8.345 32.050,8.345 32.050,8.345 Z" id="path-5" class="cls-7" fill-rule="evenodd"/>
    <path d="M43.193,53.238 C43.193,53.238 19.182,53.238 19.182,53.238 C19.182,53.238 19.182,46.033 19.182,46.033 C19.182,46.033 43.193,46.033 43.193,46.033 C43.193,46.033 43.193,53.238 43.193,53.238 Z" id="path-6" class="cls-8" fill-rule="evenodd"/>
    <path d="M34.965,46.033 C34.965,46.033 34.965,53.238 34.965,53.238 C34.965,53.238 43.193,53.238 43.193,53.238 C43.193,53.238 43.193,46.033 43.193,46.033 C43.193,46.033 34.965,46.033 34.965,46.033 Z" id="path-7" class="cls-9" fill-rule="evenodd"/>
    <path d="M37.121,6.409 C37.132,6.259 37.144,6.109 37.144,5.957 C37.144,2.667 34.477,0.000 31.187,0.000 C27.897,0.000 25.231,2.667 25.231,5.957 C25.231,6.109 25.242,6.259 25.254,6.409 C25.254,6.409 37.121,6.409 37.121,6.409 Z" id="path-8" class="cls-10" fill-rule="evenodd"/>
    <path d="M31.187,0.000 C30.509,0.000 29.859,0.119 29.251,0.328 C31.590,1.132 33.272,3.346 33.272,5.957 C33.272,6.109 33.261,6.259 33.249,6.409 C33.249,6.409 37.121,6.409 37.121,6.409 C37.132,6.259 37.144,6.109 37.144,5.957 C37.144,2.667 34.477,0.000 31.187,0.000 Z" id="path-9" class="cls-7" fill-rule="evenodd"/>
    <path d="M40.643,19.116 C40.643,19.116 21.731,19.116 21.731,19.116 C21.731,19.116 21.731,17.116 21.731,17.116 C21.731,17.116 40.643,17.116 40.643,17.116 C40.643,17.116 40.643,19.116 40.643,19.116 Z" id="path-10" class="cls-8" fill-rule="evenodd"/>
    <path d="M33.954,18.116 C33.954,18.116 28.421,18.116 28.421,18.116 C28.421,18.116 29.015,14.553 29.015,14.553 C29.192,13.491 30.111,12.713 31.187,12.713 C31.187,12.713 31.187,12.713 31.187,12.713 C32.264,12.713 33.183,13.491 33.360,14.553 C33.360,14.553 33.954,18.116 33.954,18.116 Z" id="path-11" class="cls-13" fill-rule="evenodd"/>
    <path d="M37.143,31.972 C36.978,31.972 36.811,31.932 36.658,31.846 C36.658,31.846 24.745,25.213 24.745,25.213 C24.262,24.944 24.088,24.335 24.357,23.852 C24.626,23.370 25.236,23.196 25.717,23.465 C25.717,23.465 37.630,30.099 37.630,30.099 C38.113,30.368 38.287,30.976 38.018,31.459 C37.835,31.787 37.494,31.972 37.143,31.972 Z" id="path-12" class="cls-13" fill-rule="evenodd"/>
    <path d="M37.143,41.652 C36.978,41.652 36.811,41.611 36.658,41.525 C36.658,41.525 24.745,34.892 24.745,34.892 C24.262,34.623 24.088,34.014 24.357,33.532 C24.626,33.050 25.236,32.876 25.717,33.145 C25.717,33.145 37.630,39.778 37.630,39.778 C38.113,40.047 38.287,40.655 38.018,41.138 C37.835,41.467 37.494,41.652 37.143,41.652 Z" id="path-13" class="cls-13" fill-rule="evenodd"/>
    <path d="M30.096,2.475 C30.096,2.832 29.807,3.121 29.451,3.121 C29.094,3.121 28.806,2.832 28.806,2.475 C28.806,2.119 29.094,1.830 29.451,1.830 C29.807,1.830 30.096,2.119 30.096,2.475 Z" id="path-14" class="cls-16" fill-rule="evenodd"/>
    <path d="M28.681,4.411 C28.681,5.055 28.159,5.578 27.515,5.578 C26.871,5.578 26.349,5.055 26.349,4.411 C26.349,3.768 26.871,3.245 27.515,3.245 C28.159,3.245 28.681,3.768 28.681,4.411 Z" id="path-15" class="cls-16" fill-rule="evenodd"/>
  </g>
</svg>
