<svg xmlns="http://www.w3.org/2000/svg" xmlns:xlink="http://www.w3.org/1999/xlink" preserveAspectRatio="xMidYMid" width="56" height="60" viewBox="0 0 56 60">
  <defs>
    <style>

      .cls-3 {
        fill: #0cb04a;
      }

      .cls-5 {
        fill: #142a3b;
      }

      .cls-6 {
        fill: #000000;
        opacity: 0.35;
      }

      .cls-14 {
        fill: #ff3a2f;
      }
    </style>
  </defs>
  <g id="group-260svg">
    <path d="M22.481,49.985 C22.481,49.985 17.865,49.985 17.865,49.985 C16.976,49.985 16.254,50.723 16.254,51.632 C16.254,52.542 16.976,53.279 17.865,53.279 C17.865,53.279 18.080,53.279 18.080,53.279 C18.971,53.279 19.691,54.016 19.691,54.926 C19.691,55.835 18.971,56.573 18.080,56.573 C18.080,56.573 8.156,56.573 8.156,56.573 C7.267,56.573 6.545,57.310 6.545,58.219 C6.545,59.129 7.267,59.866 8.156,59.866 C8.156,59.866 20.082,59.866 20.082,59.866 C20.082,59.866 44.458,59.866 44.458,59.866 C45.348,59.866 46.069,59.129 46.069,58.219 C46.069,57.310 45.348,56.573 44.458,56.573 C44.458,56.573 41.704,56.573 41.704,56.573 C40.813,56.573 40.093,55.835 40.093,54.926 C40.093,54.016 40.813,53.279 41.704,53.279 C41.704,53.279 52.520,53.279 52.520,53.279 C53.411,53.279 54.133,52.542 54.133,51.632 C54.133,50.723 53.411,49.985 52.520,49.985 C52.520,49.985 51.714,49.985 51.714,49.985 C51.714,49.985 22.481,49.985 22.481,49.985 Z" id="path-1" class="cls-3" fill-rule="evenodd"/>
    <path d="M50.858,60.014 C50.231,60.014 49.723,59.492 49.723,58.849 C49.723,58.206 50.231,57.684 50.858,57.684 C50.858,57.684 54.337,57.684 54.337,57.684 C54.964,57.684 55.473,58.206 55.473,58.849 C55.473,59.492 54.964,60.014 54.337,60.014 C54.337,60.014 50.858,60.014 50.858,60.014 Z" id="path-2" class="cls-3" fill-rule="evenodd"/>
    <path d="M35.413,20.273 C35.413,20.273 35.413,15.179 35.413,15.179 C35.413,15.179 30.079,15.179 30.079,15.179 C29.720,13.602 29.070,12.136 28.185,10.843 C28.185,10.843 32.025,7.003 32.025,7.003 C32.025,7.003 28.424,3.401 28.424,3.401 C28.424,3.401 24.524,7.301 24.524,7.301 C23.237,6.479 21.795,5.880 20.248,5.565 C20.248,5.565 20.248,0.014 20.248,0.014 C20.248,0.014 15.154,0.014 15.154,0.014 C15.154,0.014 15.154,5.565 15.154,5.565 C13.607,5.880 12.164,6.479 10.878,7.301 C10.878,7.301 6.978,3.401 6.978,3.401 C6.978,3.401 3.376,7.003 3.376,7.003 C3.376,7.003 7.217,10.843 7.217,10.843 C6.332,12.136 5.682,13.602 5.322,15.179 C5.322,15.179 -0.011,15.179 -0.011,15.179 C-0.011,15.179 -0.011,20.273 -0.011,20.273 C-0.011,20.273 5.208,20.273 5.208,20.273 C5.506,21.926 6.123,23.467 6.994,24.831 C6.994,24.831 3.376,28.449 3.376,28.449 C3.376,28.449 6.978,32.051 6.978,32.051 C6.978,32.051 10.537,28.492 10.537,28.492 C11.907,29.429 13.470,30.107 15.154,30.450 C15.154,30.450 15.154,35.438 15.154,35.438 C15.154,35.438 20.248,35.438 20.248,35.438 C20.248,35.438 20.248,30.450 20.248,30.450 C21.933,30.107 23.495,29.429 24.865,28.492 C24.865,28.492 28.424,32.051 28.424,32.051 C28.424,32.051 32.025,28.449 32.025,28.449 C32.025,28.449 28.408,24.831 28.408,24.831 C29.279,23.467 29.895,21.926 30.193,20.273 C30.193,20.273 35.413,20.273 35.413,20.273 ZM21.382,24.101 C21.382,24.101 14.019,24.101 14.019,24.101 C14.019,24.101 10.339,17.726 10.339,17.726 C10.339,17.726 14.019,11.350 14.019,11.350 C14.019,11.350 21.382,11.350 21.382,11.350 C21.382,11.350 25.062,17.726 25.062,17.726 C25.062,17.726 21.382,24.101 21.382,24.101 Z" id="path-3" class="cls-5" fill-rule="evenodd"/>
    <path d="M8.901,7.301 C9.310,7.041 9.737,6.812 10.175,6.598 C10.175,6.598 6.978,3.401 6.978,3.401 C6.978,3.401 5.989,4.389 5.989,4.389 C5.989,4.389 8.901,7.301 8.901,7.301 Z" id="path-4" class="cls-6" fill-rule="evenodd"/>
    <path d="M22.548,7.301 C22.548,7.301 23.251,6.598 23.251,6.598 C22.308,6.137 21.305,5.780 20.248,5.565 C20.248,5.565 20.248,0.014 20.248,0.014 C20.248,0.014 18.271,0.014 18.271,0.014 C18.271,0.014 18.271,5.565 18.271,5.565 C19.818,5.880 21.262,6.479 22.548,7.301 Z" id="path-5" class="cls-6" fill-rule="evenodd"/>
    <path d="M14.019,11.350 C14.019,11.350 12.044,11.350 12.044,11.350 C12.044,11.350 8.362,17.726 8.362,17.726 C8.362,17.726 12.044,24.101 12.044,24.101 C12.044,24.101 14.019,24.101 14.019,24.101 C14.019,24.101 10.339,17.726 10.339,17.726 C10.339,17.726 14.019,11.350 14.019,11.350 Z" id="path-6" class="cls-6" fill-rule="evenodd"/>
    <path d="M30.050,7.003 C30.050,7.003 26.209,10.843 26.209,10.843 C27.094,12.136 27.744,13.602 28.102,15.179 C28.102,15.179 30.079,15.179 30.079,15.179 C29.720,13.602 29.070,12.136 28.185,10.843 C28.185,10.843 32.026,7.003 32.026,7.003 C32.026,7.003 28.424,3.401 28.424,3.401 C28.424,3.401 27.435,4.389 27.435,4.389 C27.435,4.389 30.050,7.003 30.050,7.003 Z" id="path-7" class="cls-6" fill-rule="evenodd"/>
    <path d="M33.437,15.179 C33.437,15.179 33.437,20.273 33.437,20.273 C33.437,20.273 35.413,20.273 35.413,20.273 C35.413,20.273 35.413,15.179 35.413,15.179 C35.413,15.179 33.437,15.179 33.437,15.179 Z" id="path-8" class="cls-6" fill-rule="evenodd"/>
    <path d="M8.560,28.492 C8.560,28.492 5.989,31.063 5.989,31.063 C5.989,31.063 6.978,32.051 6.978,32.051 C6.978,32.051 9.798,29.230 9.798,29.230 C9.372,29.004 8.956,28.762 8.560,28.492 Z" id="path-9" class="cls-6" fill-rule="evenodd"/>
    <path d="M30.193,20.273 C30.193,20.273 28.218,20.273 28.218,20.273 C27.920,21.926 27.303,23.467 26.432,24.831 C26.432,24.831 30.050,28.449 30.050,28.449 C30.050,28.449 27.435,31.063 27.435,31.063 C27.435,31.063 28.424,32.051 28.424,32.051 C28.424,32.051 32.026,28.449 32.026,28.449 C32.026,28.449 28.408,24.831 28.408,24.831 C29.279,23.467 29.895,21.926 30.193,20.273 Z" id="path-10" class="cls-6" fill-rule="evenodd"/>
    <path d="M22.889,28.492 C21.518,29.429 19.956,30.107 18.271,30.450 C18.271,30.450 18.271,35.438 18.271,35.438 C18.271,35.438 20.248,35.438 20.248,35.438 C20.248,35.438 20.248,30.450 20.248,30.450 C21.446,30.207 22.578,29.786 23.627,29.230 C23.627,29.230 22.889,28.492 22.889,28.492 Z" id="path-11" class="cls-6" fill-rule="evenodd"/>
    <path d="M42.220,45.047 C42.220,45.047 42.220,41.920 42.220,41.920 C42.220,41.920 38.944,41.920 38.944,41.920 C38.725,40.951 38.325,40.052 37.782,39.258 C37.782,39.258 40.140,36.900 40.140,36.900 C40.140,36.900 37.929,34.689 37.929,34.689 C37.929,34.689 35.534,37.083 35.534,37.083 C34.744,36.578 33.858,36.211 32.909,36.017 C32.909,36.017 32.909,32.610 32.909,32.610 C32.909,32.610 29.782,32.610 29.782,32.610 C29.782,32.610 29.782,36.017 29.782,36.017 C28.832,36.211 27.946,36.578 27.156,37.083 C27.156,37.083 24.763,34.689 24.763,34.689 C24.763,34.689 22.551,36.900 22.551,36.900 C22.551,36.900 24.909,39.258 24.909,39.258 C24.366,40.052 23.967,40.951 23.746,41.920 C23.746,41.920 20.472,41.920 20.472,41.920 C20.472,41.920 20.472,45.047 20.472,45.047 C20.472,45.047 23.676,45.047 23.676,45.047 C23.858,46.061 24.237,47.008 24.772,47.845 C24.772,47.845 22.551,50.066 22.551,50.066 C22.551,50.066 24.763,52.278 24.763,52.278 C24.763,52.278 26.947,50.093 26.947,50.093 C27.789,50.668 28.748,51.084 29.782,51.295 C29.782,51.295 29.782,54.357 29.782,54.357 C29.782,54.357 32.909,54.357 32.909,54.357 C32.909,54.357 32.909,51.295 32.909,51.295 C33.943,51.084 34.902,50.668 35.744,50.093 C35.744,50.093 37.929,52.278 37.929,52.278 C37.929,52.278 40.140,50.066 40.140,50.066 C40.140,50.066 37.919,47.845 37.919,47.845 C38.453,47.008 38.832,46.061 39.016,45.047 C39.016,45.047 42.220,45.047 42.220,45.047 ZM33.605,47.397 C33.605,47.397 29.086,47.397 29.086,47.397 C29.086,47.397 26.826,43.483 26.826,43.483 C26.826,43.483 29.086,39.569 29.086,39.569 C29.086,39.569 33.605,39.569 33.605,39.569 C33.605,39.569 35.865,43.483 35.865,43.483 C35.865,43.483 33.605,47.397 33.605,47.397 Z" id="path-12" class="cls-14" fill-rule="evenodd"/>
    <path d="M25.181,37.083 C25.592,36.820 26.029,36.598 26.488,36.414 C26.488,36.414 24.763,34.689 24.763,34.689 C24.763,34.689 23.774,35.676 23.774,35.676 C23.774,35.676 25.181,37.083 25.181,37.083 Z" id="path-13" class="cls-6" fill-rule="evenodd"/>
    <path d="M33.559,37.083 C33.559,37.083 34.228,36.414 34.228,36.414 C33.805,36.245 33.365,36.110 32.909,36.017 C32.909,36.017 32.909,32.610 32.909,32.610 C32.909,32.610 30.933,32.610 30.933,32.610 C30.933,32.610 30.933,36.017 30.933,36.017 C31.883,36.211 32.769,36.578 33.559,37.083 Z" id="path-14" class="cls-6" fill-rule="evenodd"/>
    <path d="M38.164,36.900 C38.164,36.900 35.806,39.258 35.806,39.258 C36.350,40.052 36.748,40.951 36.969,41.920 C36.969,41.920 38.944,41.920 38.944,41.920 C38.725,40.951 38.325,40.052 37.781,39.258 C37.781,39.258 40.140,36.900 40.140,36.900 C40.140,36.900 37.929,34.689 37.929,34.689 C37.929,34.689 36.940,35.676 36.940,35.676 C36.940,35.676 38.164,36.900 38.164,36.900 Z" id="path-15" class="cls-6" fill-rule="evenodd"/>
    <path d="M29.086,39.569 C29.086,39.569 27.109,39.569 27.109,39.569 C27.109,39.569 24.850,43.483 24.850,43.483 C24.850,43.483 27.109,47.397 27.109,47.397 C27.109,47.397 29.086,47.397 29.086,47.397 C29.086,47.397 26.826,43.483 26.826,43.483 C26.826,43.483 29.086,39.569 29.086,39.569 Z" id="path-16" class="cls-6" fill-rule="evenodd"/>
    <path d="M39.016,45.047 C39.016,45.047 37.039,45.047 37.039,45.047 C36.856,46.061 36.477,47.008 35.942,47.845 C35.942,47.845 38.164,50.066 38.164,50.066 C38.164,50.066 36.940,51.289 36.940,51.289 C36.940,51.289 37.929,52.277 37.929,52.277 C37.929,52.277 40.140,50.066 40.140,50.066 C40.140,50.066 37.919,47.845 37.919,47.845 C38.453,47.008 38.832,46.061 39.016,45.047 Z" id="path-17" class="cls-6" fill-rule="evenodd"/>
    <path d="M40.243,41.920 C40.243,41.920 40.243,45.047 40.243,45.047 C40.243,45.047 42.219,45.047 42.219,45.047 C42.219,45.047 42.219,41.920 42.219,41.920 C42.219,41.920 40.243,41.920 40.243,41.920 Z" id="path-18" class="cls-6" fill-rule="evenodd"/>
    <path d="M24.972,50.093 C24.972,50.093 23.774,51.289 23.774,51.289 C23.774,51.289 24.763,52.277 24.763,52.277 C24.763,52.277 26.244,50.796 26.244,50.796 C25.797,50.600 25.370,50.365 24.972,50.093 Z" id="path-19" class="cls-6" fill-rule="evenodd"/>
    <path d="M33.767,50.093 C32.927,50.668 31.968,51.084 30.933,51.295 C30.933,51.295 30.933,54.357 30.933,54.357 C30.933,54.357 32.909,54.357 32.909,54.357 C32.909,54.357 32.909,51.295 32.909,51.295 C33.453,51.184 33.975,51.013 34.471,50.796 C34.471,50.796 33.767,50.093 33.767,50.093 Z" id="path-20" class="cls-6" fill-rule="evenodd"/>
  </g>
</svg>
