<svg xmlns="http://www.w3.org/2000/svg" xmlns:xlink="http://www.w3.org/1999/xlink" preserveAspectRatio="xMidYMid" width="42" height="60" viewBox="0 0 42 60">
  <defs>
    <style>

      .cls-3 {
        fill: #ff3a2f;
      }

      .cls-7 {
        fill: #142a3b;
      }

      .cls-8 {
        fill: #000000;
      }

      .cls-9 {
        fill: #000000;
        opacity: 0.35;
      }

      .cls-14 {
        fill: #ededed;
      }

      .cls-19 {
        fill: #fbb713;
      }

      .cls-20 {
        fill: #2476ff;
      }

      .cls-21 {
        fill: #000000;
        opacity: 0.25;
      }
    </style>
  </defs>
  <g id="group-308svg">
    <path d="M21.552,55.755 C21.552,55.755 19.734,55.755 19.734,55.755 C19.385,55.755 19.101,56.059 19.101,56.435 C19.101,56.810 19.385,57.114 19.734,57.114 C19.734,57.114 19.819,57.114 19.819,57.114 C20.170,57.114 20.453,57.418 20.453,57.794 C20.453,58.169 20.170,58.473 19.819,58.473 C19.819,58.473 15.914,58.473 15.914,58.473 C15.563,58.473 15.279,58.777 15.279,59.152 C15.279,59.528 15.563,59.832 15.914,59.832 C15.914,59.832 20.607,59.832 20.607,59.832 C20.607,59.832 30.200,59.832 30.200,59.832 C30.551,59.832 30.835,59.528 30.835,59.152 C30.835,58.777 30.551,58.473 30.200,58.473 C30.200,58.473 29.116,58.473 29.116,58.473 C28.767,58.473 28.482,58.169 28.482,57.794 C28.482,57.418 28.767,57.114 29.116,57.114 C29.116,57.114 33.374,57.114 33.374,57.114 C33.724,57.114 34.008,56.810 34.008,56.435 C34.008,56.059 33.724,55.755 33.374,55.755 C33.374,55.755 33.056,55.755 33.056,55.755 C33.056,55.755 21.552,55.755 21.552,55.755 Z" id="path-1" class="cls-3" fill-rule="evenodd"/>
    <path d="M32.819,60.014 C32.525,60.014 32.287,59.688 32.287,59.286 C32.287,58.884 32.525,58.557 32.819,58.557 C32.819,58.557 34.448,58.557 34.448,58.557 C34.742,58.557 34.980,58.884 34.980,59.286 C34.980,59.688 34.742,60.014 34.448,60.014 C34.448,60.014 32.819,60.014 32.819,60.014 Z" id="path-2" class="cls-3" fill-rule="evenodd"/>
    <path d="M29.878,48.388 C29.878,48.388 29.155,48.388 29.155,48.388 C29.016,48.388 28.902,48.510 28.902,48.659 C28.902,48.808 29.016,48.929 29.155,48.929 C29.155,48.929 29.188,48.929 29.188,48.929 C29.328,48.929 29.441,49.051 29.441,49.200 C29.441,49.349 29.328,49.470 29.188,49.470 C29.188,49.470 27.634,49.470 27.634,49.470 C27.495,49.470 27.382,49.592 27.382,49.741 C27.382,49.890 27.495,50.011 27.634,50.011 C27.634,50.011 29.502,50.011 29.502,50.011 C29.502,50.011 33.321,50.011 33.321,50.011 C33.461,50.011 33.573,49.890 33.573,49.741 C33.573,49.592 33.461,49.470 33.321,49.470 C33.321,49.470 32.890,49.470 32.890,49.470 C32.750,49.470 32.638,49.349 32.638,49.200 C32.638,49.051 32.750,48.929 32.890,48.929 C32.890,48.929 34.584,48.929 34.584,48.929 C34.724,48.929 34.837,48.808 34.837,48.659 C34.837,48.510 34.724,48.388 34.584,48.388 C34.584,48.388 34.458,48.388 34.458,48.388 C34.458,48.388 29.878,48.388 29.878,48.388 Z" id="path-3" class="cls-3" fill-rule="evenodd"/>
    <path d="M29.433,31.109 C29.433,31.109 28.277,31.109 28.277,31.109 C28.055,31.109 27.874,31.261 27.874,31.448 C27.874,31.636 28.055,31.788 28.277,31.788 C28.277,31.788 28.331,31.788 28.331,31.788 C28.554,31.788 28.734,31.940 28.734,32.128 C28.734,32.316 28.554,32.468 28.331,32.468 C28.331,32.468 25.848,32.468 25.848,32.468 C25.625,32.468 25.444,32.620 25.444,32.807 C25.444,32.995 25.625,33.147 25.848,33.147 C25.848,33.147 28.832,33.147 28.832,33.147 C28.832,33.147 34.932,33.147 34.932,33.147 C35.154,33.147 35.335,32.995 35.335,32.807 C35.335,32.620 35.154,32.468 34.932,32.468 C34.932,32.468 34.243,32.468 34.243,32.468 C34.020,32.468 33.840,32.316 33.840,32.128 C33.840,31.940 34.020,31.788 34.243,31.788 C34.243,31.788 36.949,31.788 36.949,31.788 C37.172,31.788 37.352,31.636 37.352,31.448 C37.352,31.261 37.172,31.109 36.949,31.109 C36.949,31.109 36.748,31.109 36.748,31.109 C36.748,31.109 29.433,31.109 29.433,31.109 Z" id="path-4" class="cls-3" fill-rule="evenodd"/>
    <path d="M11.197,49.200 C11.197,49.200 19.433,49.200 19.433,49.200 C14.534,46.997 10.994,40.665 10.994,33.194 C10.994,29.623 11.804,26.314 13.183,23.590 C13.183,23.590 10.090,23.590 10.090,23.590 C7.659,26.666 6.136,31.077 6.136,35.977 C6.136,41.586 8.131,46.550 11.197,49.611 C11.197,49.611 11.197,49.200 11.197,49.200 Z" id="path-5" class="cls-7" fill-rule="evenodd"/>
    <path d="M11.197,49.611 C11.197,49.611 11.197,49.200 11.197,49.200 C11.197,49.200 10.831,49.200 10.831,49.200 C10.955,49.334 11.069,49.484 11.197,49.611 Z" id="path-6" class="cls-8" fill-rule="evenodd"/>
    <path d="M10.994,33.194 C10.994,29.623 11.804,26.314 13.183,23.590 C13.183,23.590 10.553,23.590 10.553,23.590 C9.173,26.314 8.364,29.623 8.364,33.194 C8.364,40.665 11.904,46.997 16.803,49.200 C16.803,49.200 19.433,49.200 19.433,49.200 C14.534,46.997 10.994,40.665 10.994,33.194 Z" id="path-7" class="cls-9" fill-rule="evenodd"/>
    <path d="M27.965,36.601 C27.965,36.601 27.965,43.083 27.965,43.083 C27.965,43.083 19.386,43.083 19.386,43.083 C19.386,43.083 19.386,44.745 19.386,44.745 C19.386,44.745 32.287,44.745 32.287,44.745 C32.287,44.745 32.287,44.413 32.287,44.413 C32.287,44.413 32.287,43.083 32.287,43.083 C32.287,43.083 32.287,36.601 32.287,36.601 C32.287,36.601 27.965,36.601 27.965,36.601 Z" id="path-8" class="cls-7" fill-rule="evenodd"/>
    <path d="M24.253,53.056 C24.253,53.056 10.291,53.056 10.291,53.056 C10.291,53.056 12.149,43.766 12.149,43.766 C12.615,41.436 14.661,39.758 17.037,39.758 C17.037,39.758 17.037,39.758 17.037,39.758 C19.324,39.758 21.318,41.315 21.873,43.534 C21.873,43.534 24.253,53.056 24.253,53.056 Z" id="path-9" class="cls-7" fill-rule="evenodd"/>
    <path d="M21.873,43.534 C21.540,42.203 20.683,41.118 19.561,40.457 C19.803,40.864 20.000,41.303 20.119,41.780 C20.119,41.780 22.499,51.303 22.499,51.303 C22.499,51.303 10.642,51.303 10.642,51.303 C10.642,51.303 10.291,53.056 10.291,53.056 C10.291,53.056 24.253,53.056 24.253,53.056 C24.253,53.056 21.873,43.534 21.873,43.534 Z" id="path-10" class="cls-9" fill-rule="evenodd"/>
    <path d="M20.078,21.641 C20.078,25.027 17.334,27.772 13.947,27.772 C10.562,27.772 7.817,25.027 7.817,21.641 C7.817,18.256 10.562,15.511 13.947,15.511 C17.334,15.511 20.078,18.256 20.078,21.641 Z" id="path-11" class="cls-7" fill-rule="evenodd"/>
    <path d="M20.098,47.571 C20.098,49.132 18.833,50.396 17.272,50.396 C15.712,50.396 14.446,49.132 14.446,47.571 C14.446,46.011 15.712,44.745 17.272,44.745 C18.833,44.745 20.098,46.011 20.098,47.571 Z" id="path-12" class="cls-14" fill-rule="evenodd"/>
    <path d="M16.986,21.641 C16.986,23.320 15.626,24.680 13.947,24.680 C12.269,24.680 10.909,23.320 10.909,21.641 C10.909,19.963 12.269,18.603 13.947,18.603 C15.626,18.603 16.986,19.963 16.986,21.641 Z" id="path-13" class="cls-14" fill-rule="evenodd"/>
    <path d="M40.930,35.105 C40.930,35.105 19.433,35.105 19.433,35.105 C19.433,35.105 19.433,32.778 19.433,32.778 C19.433,32.778 40.930,32.778 40.930,32.778 C40.930,32.778 40.930,35.105 40.930,35.105 Z" id="path-14" class="cls-7" fill-rule="evenodd"/>
    <path d="M36.940,37.040 C36.940,37.040 24.114,37.040 24.114,37.040 C24.114,37.040 24.114,34.832 24.114,34.832 C24.114,34.832 36.940,34.832 36.940,34.832 C36.940,34.832 36.940,37.040 36.940,37.040 Z" id="path-15" class="cls-7" fill-rule="evenodd"/>
    <path d="M36.940,36.185 C36.940,36.185 24.114,35.308 24.114,35.308 C24.114,35.308 24.114,34.832 24.114,34.832 C24.114,34.832 36.940,34.832 36.940,34.832 C36.940,34.832 36.940,36.185 36.940,36.185 Z" id="path-16" class="cls-9" fill-rule="evenodd"/>
    <path d="M32.483,23.408 C32.483,23.408 24.883,31.009 24.883,31.009 C24.883,31.009 3.478,9.604 3.478,9.604 C3.478,9.604 11.079,2.004 11.079,2.004 C11.079,2.004 32.483,23.408 32.483,23.408 Z" id="path-17" class="cls-19" fill-rule="evenodd"/>
    <path d="M9.531,3.551 C9.531,3.551 5.026,8.057 5.026,8.057 C5.026,8.057 1.488,4.519 1.488,4.519 C1.488,4.519 5.994,0.014 5.994,0.014 C5.994,0.014 9.531,3.551 9.531,3.551 Z" id="path-18" class="cls-20" fill-rule="evenodd"/>
    <path d="M20.833,24.327 C20.833,24.327 4.794,8.289 4.794,8.289 C4.794,8.289 3.478,9.604 3.478,9.604 C3.478,9.604 24.883,31.009 24.883,31.009 C24.883,31.009 32.483,23.408 32.483,23.408 C32.483,23.408 31.168,22.093 31.168,22.093 C31.168,22.093 28.934,24.327 28.934,24.327 C26.697,26.564 23.069,26.564 20.833,24.327 Z" id="path-19" class="cls-21" fill-rule="evenodd"/>
    <path d="M3.464,4.740 C3.464,4.740 2.365,3.643 2.365,3.643 C2.365,3.643 1.488,4.519 1.488,4.519 C1.488,4.519 5.026,8.057 5.026,8.057 C5.026,8.057 9.531,3.551 9.531,3.551 C9.531,3.551 8.654,2.675 8.654,2.675 C8.654,2.675 6.589,4.740 6.589,4.740 C5.726,5.603 4.327,5.603 3.464,4.740 Z" id="path-20" class="cls-9" fill-rule="evenodd"/>
    <path d="M32.327,26.347 C32.327,26.347 27.821,30.852 27.821,30.852 C27.821,30.852 26.405,29.436 26.405,29.436 C26.405,29.436 30.911,24.931 30.911,24.931 C30.911,24.931 32.327,26.347 32.327,26.347 Z" id="path-21" class="cls-20" fill-rule="evenodd"/>
    <path d="M31.899,52.308 C31.899,52.308 2.645,52.308 2.645,52.308 C1.177,52.308 -0.014,54.019 -0.014,56.131 C-0.014,56.131 34.559,56.131 34.559,56.131 C34.559,54.019 33.367,52.308 31.899,52.308 Z" id="path-22" class="cls-7" fill-rule="evenodd"/>
    <path d="M-0.014,56.131 C-0.014,56.131 34.559,56.131 34.559,56.131 C34.559,55.431 34.418,54.784 34.189,54.219 C34.189,54.219 0.354,54.219 0.354,54.219 C0.126,54.784 -0.014,55.431 -0.014,56.131 Z" id="path-23" class="cls-9" fill-rule="evenodd"/>
    <path d="M8.856,18.227 C8.856,18.227 18.560,25.750 18.560,25.750 C18.998,25.113 18.560,25.750 18.998,25.113 C18.998,25.113 10.476,16.592 10.476,16.592 C9.839,17.030 9.288,17.585 8.856,18.227 Z" id="path-24" class="cls-9" fill-rule="evenodd"/>
    <path d="M32.287,39.056 C32.287,39.056 28.023,38.179 28.023,38.179 C28.023,38.179 28.023,37.040 28.023,37.040 C28.023,37.040 32.287,37.040 32.287,37.040 C32.287,37.040 32.287,39.056 32.287,39.056 Z" id="path-25" class="cls-9" fill-rule="evenodd"/>
    <path d="M31.109,25.116 C31.109,25.116 27.201,30.232 27.201,30.232 C27.201,30.232 26.392,29.391 26.392,29.391 C26.392,29.391 30.888,24.895 30.888,24.895 C30.888,24.895 31.109,25.116 31.109,25.116 Z" id="path-26" class="cls-9" fill-rule="evenodd"/>
    <path d="M25.837,20.649 C25.581,20.649 25.326,20.552 25.131,20.357 C25.131,20.357 13.740,8.997 13.740,8.997 C13.349,8.607 13.349,7.974 13.738,7.583 C14.129,7.193 14.762,7.191 15.152,7.581 C15.152,7.581 26.543,18.941 26.543,18.941 C26.935,19.331 26.935,19.964 26.545,20.355 C26.350,20.550 26.094,20.649 25.837,20.649 Z" id="path-27" class="cls-14" fill-rule="evenodd"/>
  </g>
</svg>
