<svg xmlns="http://www.w3.org/2000/svg" xmlns:xlink="http://www.w3.org/1999/xlink" preserveAspectRatio="xMidYMid" width="60" height="54" viewBox="0 0 60 54">
  <defs>
    <style>

      .cls-3 {
        fill: #0cb04a;
      }

      .cls-4 {
        fill: #020403;
        opacity: 0.35;
      }

      .cls-5 {
        fill: #142a3b;
      }

      .cls-8 {
        fill: #ff3a2f;
      }
    </style>
  </defs>
  <g id="group-119svg">
    <path d="M43.872,39.132 C43.872,39.132 43.268,39.132 43.268,39.132 C43.422,38.702 43.514,38.221 43.514,37.697 C43.514,35.880 42.505,34.509 41.165,34.509 C41.165,34.509 32.242,34.509 32.242,34.509 C30.927,34.509 29.894,35.908 29.894,37.697 C29.894,38.217 29.991,38.701 30.150,39.132 C30.150,39.132 29.534,39.132 29.534,39.132 C28.329,39.132 27.419,40.433 27.419,42.159 C27.419,43.886 28.329,45.186 29.534,45.186 C29.534,45.186 43.872,45.186 43.872,45.186 C45.078,45.186 45.988,43.886 45.988,42.159 C45.988,40.433 45.078,39.132 43.872,39.132 Z" id="path-1" class="cls-3" fill-rule="evenodd"/>
    <path d="M43.872,39.132 C43.872,39.132 43.268,39.132 43.268,39.132 C43.422,38.702 43.514,38.221 43.514,37.697 C43.514,35.880 42.505,34.510 41.165,34.510 C41.165,34.510 32.242,34.510 32.242,34.510 C31.633,34.510 31.090,34.819 30.677,35.319 C30.677,35.319 38.735,35.319 38.735,35.319 C40.074,35.319 41.084,36.690 41.084,38.507 C41.084,39.032 40.992,39.512 40.838,39.942 C40.838,39.942 41.442,39.942 41.442,39.942 C42.648,39.942 43.559,41.243 43.559,42.969 C43.559,43.866 43.310,44.642 42.904,45.186 C42.904,45.186 43.872,45.186 43.872,45.186 C45.078,45.186 45.988,43.886 45.988,42.159 C45.988,40.433 45.078,39.132 43.872,39.132 Z" id="path-2" class="cls-4" fill-rule="evenodd"/>
    <path d="M29.220,27.073 C29.220,27.073 31.993,29.749 31.993,29.749 C31.990,29.803 31.979,29.856 31.979,29.911 C31.979,30.726 32.299,31.497 32.881,32.077 C33.464,32.660 34.234,32.981 35.050,32.981 C35.843,32.981 36.585,32.674 37.142,32.119 C37.142,32.119 43.235,26.025 43.235,26.025 C43.793,25.470 44.100,24.725 44.100,23.933 C44.100,23.117 43.779,22.347 43.195,21.763 C42.612,21.178 41.812,20.890 41.018,20.892 C41.018,20.892 37.413,17.412 37.413,17.412 C37.369,17.331 37.327,17.247 37.257,17.176 C37.257,17.176 26.726,6.645 26.726,6.645 C26.702,6.621 26.671,6.613 26.646,6.592 C26.646,6.592 23.391,3.448 23.391,3.448 C23.344,3.401 23.281,3.376 23.227,3.340 C23.242,3.212 23.266,3.085 23.266,2.952 C23.266,2.159 22.956,1.413 22.401,0.859 C21.270,-0.274 19.276,-0.251 18.124,0.907 C18.124,0.907 11.800,7.233 11.800,7.233 C11.211,7.819 10.887,8.594 10.887,9.414 C10.887,10.209 11.192,10.953 11.749,11.511 C12.304,12.065 13.047,12.372 13.843,12.372 C14.016,12.372 14.184,12.350 14.350,12.322 C14.400,12.426 14.460,12.524 14.547,12.608 C14.547,12.608 17.857,15.807 17.857,15.807 C17.901,15.848 17.957,15.869 18.006,15.902 C18.006,15.902 21.391,19.288 21.391,19.288 C21.391,19.288 0.282,40.394 0.282,40.394 C0.095,40.582 -0.011,40.835 -0.011,41.103 C-0.011,41.367 0.095,41.620 0.282,41.809 C0.282,41.809 3.368,44.894 3.368,44.894 C3.563,45.089 3.818,45.186 4.074,45.186 C4.331,45.186 4.587,45.089 4.783,44.894 C4.783,44.894 25.891,23.788 25.891,23.788 C25.891,23.788 29.098,26.990 29.098,26.990 C29.134,27.027 29.180,27.044 29.220,27.073 Z" id="path-3" class="cls-5" fill-rule="evenodd"/>
    <path d="M13.843,12.372 C14.016,12.372 14.184,12.350 14.350,12.322 C14.400,12.426 14.460,12.524 14.547,12.607 C14.547,12.607 17.857,15.807 17.857,15.807 C17.901,15.848 17.957,15.869 18.006,15.902 C18.006,15.902 21.391,19.288 21.391,19.288 C21.391,19.288 23.415,17.263 23.415,17.263 C23.415,17.263 18.006,11.852 18.006,11.852 C17.957,11.820 17.901,11.798 17.857,11.757 C17.857,11.757 14.547,8.558 14.547,8.558 C14.460,8.474 14.400,8.376 14.350,8.272 C14.184,8.300 14.016,8.322 13.843,8.322 C13.047,8.322 12.304,8.015 11.749,7.461 C11.723,7.436 11.705,7.404 11.680,7.377 C11.174,7.944 10.887,8.657 10.887,9.414 C10.887,10.209 11.192,10.953 11.749,11.511 C12.304,12.065 13.047,12.372 13.843,12.372 Z" id="path-4" class="cls-4" fill-rule="evenodd"/>
    <path d="M43.235,21.976 C43.235,21.976 37.142,28.069 37.142,28.069 C36.585,28.624 35.843,28.931 35.050,28.931 C34.234,28.931 33.464,28.611 32.881,28.027 C32.299,27.446 31.979,26.676 31.979,25.861 C31.979,25.806 31.990,25.754 31.993,25.699 C31.993,25.699 29.220,23.023 29.220,23.023 C29.180,22.994 29.134,22.978 29.098,22.941 C29.098,22.941 25.891,19.738 25.891,19.738 C25.891,19.738 4.783,40.844 4.783,40.844 C4.587,41.039 4.331,41.137 4.074,41.137 C3.818,41.137 3.563,41.039 3.368,40.844 C3.368,40.844 1.600,39.076 1.600,39.076 C1.600,39.076 0.282,40.394 0.282,40.394 C0.095,40.582 -0.011,40.835 -0.011,41.103 C-0.011,41.367 0.095,41.620 0.282,41.808 C0.282,41.808 3.368,44.894 3.368,44.894 C3.563,45.089 3.818,45.186 4.074,45.186 C4.331,45.186 4.587,45.089 4.783,44.894 C4.783,44.894 25.891,23.788 25.891,23.788 C25.891,23.788 29.098,26.990 29.098,26.990 C29.134,27.027 29.180,27.044 29.220,27.073 C29.220,27.073 31.993,29.749 31.993,29.749 C31.990,29.803 31.979,29.856 31.979,29.911 C31.979,30.726 32.299,31.497 32.881,32.077 C33.464,32.660 34.234,32.980 35.050,32.980 C35.843,32.980 36.585,32.674 37.142,32.119 C37.142,32.119 43.235,26.025 43.235,26.025 C43.793,25.470 44.100,24.725 44.100,23.933 C44.100,23.173 43.811,22.460 43.303,21.893 C43.278,21.920 43.261,21.950 43.235,21.976 Z" id="path-5" class="cls-4" fill-rule="evenodd"/>
    <path d="M48.422,24.798 C48.422,24.798 48.203,25.349 48.203,25.349 C48.161,25.455 48.258,25.594 48.419,25.658 C48.579,25.721 48.744,25.687 48.786,25.581 C48.786,25.581 48.797,25.556 48.797,25.556 C48.839,25.449 49.004,25.414 49.165,25.478 C49.326,25.542 49.422,25.680 49.380,25.787 C49.380,25.787 48.909,26.972 48.909,26.972 C48.867,27.078 48.963,27.217 49.124,27.281 C49.285,27.344 49.450,27.310 49.492,27.203 C49.492,27.203 50.058,25.779 50.058,25.779 C50.058,25.779 51.214,22.868 51.214,22.868 C51.256,22.762 51.160,22.623 50.999,22.559 C50.838,22.495 50.673,22.530 50.631,22.636 C50.631,22.636 50.500,22.965 50.500,22.965 C50.458,23.072 50.293,23.106 50.133,23.042 C49.972,22.978 49.875,22.840 49.917,22.733 C49.917,22.733 50.539,21.168 50.539,21.168 C50.581,21.062 50.484,20.923 50.324,20.860 C50.163,20.796 49.998,20.830 49.956,20.936 C49.956,20.936 49.809,21.306 49.809,21.306 C49.809,21.306 48.422,24.798 48.422,24.798 Z" id="path-6" class="cls-8" fill-rule="evenodd"/>
    <path d="M47.011,31.060 C46.815,31.553 46.399,31.851 46.083,31.725 C45.766,31.599 45.668,31.098 45.863,30.605 C45.863,30.605 46.950,27.870 46.950,27.870 C47.145,27.377 47.560,27.080 47.878,27.206 C48.194,27.331 48.293,27.832 48.097,28.326 C48.097,28.326 47.011,31.060 47.011,31.060 Z" id="path-7" class="cls-8" fill-rule="evenodd"/>
    <path d="M55.823,30.810 C55.823,30.810 55.278,31.045 55.278,31.045 C55.173,31.090 55.143,31.256 55.212,31.415 C55.281,31.574 55.422,31.666 55.527,31.621 C55.527,31.621 55.553,31.610 55.553,31.610 C55.657,31.565 55.798,31.657 55.866,31.816 C55.935,31.975 55.906,32.141 55.801,32.186 C55.801,32.186 54.630,32.692 54.630,32.692 C54.524,32.737 54.495,32.903 54.564,33.062 C54.633,33.221 54.773,33.313 54.879,33.267 C54.879,33.267 56.285,32.661 56.285,32.661 C56.285,32.661 59.162,31.419 59.162,31.419 C59.267,31.374 59.296,31.208 59.227,31.049 C59.159,30.890 59.019,30.798 58.913,30.843 C58.913,30.843 58.588,30.984 58.588,30.984 C58.483,31.029 58.343,30.936 58.273,30.777 C58.205,30.619 58.234,30.453 58.340,30.408 C58.340,30.408 59.887,29.740 59.887,29.740 C59.991,29.694 60.020,29.529 59.952,29.370 C59.884,29.211 59.742,29.119 59.638,29.164 C59.638,29.164 59.272,29.321 59.272,29.321 C59.272,29.321 55.823,30.810 55.823,30.810 Z" id="path-8" class="cls-8" fill-rule="evenodd"/>
    <path d="M50.396,34.240 C49.909,34.451 49.405,34.367 49.270,34.054 C49.135,33.741 49.420,33.317 49.907,33.107 C49.907,33.107 52.609,31.941 52.609,31.941 C53.097,31.731 53.600,31.814 53.735,32.127 C53.871,32.440 53.585,32.864 53.099,33.074 C53.099,33.074 50.396,34.240 50.396,34.240 Z" id="path-9" class="cls-8" fill-rule="evenodd"/>
    <path d="M25.976,48.812 C25.976,48.812 30.109,48.812 30.109,48.812 C30.906,48.812 31.552,49.102 31.552,49.460 C31.552,49.818 30.906,50.107 30.109,50.107 C30.109,50.107 29.917,50.107 29.917,50.107 C29.120,50.107 28.475,50.397 28.475,50.755 C28.475,51.113 29.120,51.403 29.917,51.403 C29.917,51.403 38.801,51.403 38.801,51.403 C39.598,51.403 40.244,51.693 40.244,52.051 C40.244,52.409 39.598,52.699 38.801,52.699 C38.801,52.699 28.125,52.699 28.125,52.699 C28.125,52.699 16.391,52.699 16.391,52.699 C15.594,52.699 14.947,52.409 14.947,52.051 C14.947,51.693 15.594,51.403 16.391,51.403 C16.391,51.403 18.855,51.403 18.855,51.403 C19.652,51.403 20.299,51.113 20.299,50.755 C20.299,50.397 19.652,50.107 18.855,50.107 C18.855,50.107 7.121,50.107 7.121,50.107 C6.324,50.107 5.679,49.818 5.679,49.460 C5.679,49.102 6.324,48.812 7.121,48.812 C7.121,48.812 9.895,48.812 9.895,48.812 C9.895,48.812 25.976,48.812 25.976,48.812 Z" id="path-10" class="cls-8" fill-rule="evenodd"/>
    <path d="M51.555,53.259 C52.465,53.259 53.202,52.928 53.202,52.520 C53.202,52.111 52.465,51.780 51.555,51.780 C51.555,51.780 46.507,51.780 46.507,51.780 C45.598,51.780 44.859,52.111 44.859,52.520 C44.859,52.928 45.598,53.259 46.507,53.259 C46.507,53.259 51.555,53.259 51.555,53.259 Z" id="path-11" class="cls-8" fill-rule="evenodd"/>
    <path d="M50.935,44.830 C50.935,44.830 52.832,44.830 52.832,44.830 C53.198,44.830 53.494,44.995 53.494,45.198 C53.494,45.401 53.198,45.565 52.832,45.565 C52.832,45.565 52.744,45.565 52.744,45.565 C52.378,45.565 52.081,45.730 52.081,45.933 C52.081,46.136 52.378,46.300 52.744,46.300 C52.744,46.300 56.823,46.300 56.823,46.300 C57.188,46.300 57.485,46.465 57.485,46.668 C57.485,46.871 57.188,47.035 56.823,47.035 C56.823,47.035 51.921,47.035 51.921,47.035 C51.921,47.035 41.900,47.035 41.900,47.035 C41.534,47.035 41.238,46.871 41.238,46.668 C41.238,46.465 41.534,46.300 41.900,46.300 C41.900,46.300 43.032,46.300 43.032,46.300 C43.398,46.300 43.695,46.136 43.695,45.933 C43.695,45.730 43.398,45.565 43.032,45.565 C43.032,45.565 37.644,45.565 37.644,45.565 C37.278,45.565 36.982,45.401 36.982,45.198 C36.982,44.995 37.278,44.830 37.644,44.830 C37.644,44.830 38.918,44.830 38.918,44.830 C38.918,44.830 50.935,44.830 50.935,44.830 Z" id="path-12" class="cls-8" fill-rule="evenodd"/>
  </g>
</svg>
