<svg xmlns="http://www.w3.org/2000/svg" xmlns:xlink="http://www.w3.org/1999/xlink" preserveAspectRatio="xMidYMid" width="60" height="58" viewBox="0 0 60 58">
  <defs>
    <style>

      .cls-3 {
        fill: #2476ff;
      }

      .cls-7 {
        fill: #ff3a2f;
      }

      .cls-9 {
        fill: #090908;
        opacity: 0.35;
      }
    </style>
  </defs>
  <g id="group-193svg">
    <path d="M53.971,41.192 C53.971,41.192 55.721,41.192 55.721,41.192 C56.058,41.192 56.331,41.398 56.331,41.652 C56.331,41.906 56.058,42.112 55.721,42.112 C55.721,42.112 55.639,42.112 55.639,42.112 C55.302,42.112 55.028,42.318 55.028,42.572 C55.028,42.826 55.302,43.032 55.639,43.032 C55.639,43.032 59.401,43.032 59.401,43.032 C59.738,43.032 60.012,43.238 60.012,43.492 C60.012,43.746 59.738,43.952 59.401,43.952 C59.401,43.952 54.880,43.952 54.880,43.952 C54.880,43.952 45.639,43.952 45.639,43.952 C45.302,43.952 45.028,43.746 45.028,43.492 C45.028,43.238 45.302,43.032 45.639,43.032 C45.639,43.032 46.684,43.032 46.684,43.032 C47.020,43.032 47.294,42.826 47.294,42.572 C47.294,42.318 47.020,42.112 46.684,42.112 C46.684,42.112 41.714,42.112 41.714,42.112 C41.377,42.112 41.103,41.906 41.103,41.652 C41.103,41.398 41.377,41.192 41.714,41.192 C41.714,41.192 42.889,41.192 42.889,41.192 C42.889,41.192 53.971,41.192 53.971,41.192 Z" id="path-1" class="cls-3" fill-rule="evenodd"/>
    <path d="M18.520,48.457 C18.520,48.457 13.159,48.457 13.159,48.457 C12.126,48.457 11.287,49.067 11.287,49.821 C11.287,50.574 12.126,51.186 13.159,51.186 C13.159,51.186 13.408,51.186 13.408,51.186 C14.442,51.186 15.280,51.796 15.280,52.550 C15.280,53.303 14.442,53.914 13.408,53.914 C13.408,53.914 1.884,53.914 1.884,53.914 C0.850,53.914 0.012,54.525 0.012,55.278 C0.012,56.032 0.850,56.643 1.884,56.643 C1.884,56.643 15.733,56.643 15.733,56.643 C15.733,56.643 44.043,56.643 44.043,56.643 C45.077,56.643 45.915,56.032 45.915,55.278 C45.915,54.525 45.077,53.914 44.043,53.914 C44.043,53.914 40.845,53.914 40.845,53.914 C39.812,53.914 38.974,53.303 38.974,52.550 C38.974,51.796 39.812,51.186 40.845,51.186 C40.845,51.186 53.407,51.186 53.407,51.186 C54.441,51.186 55.279,50.574 55.279,49.821 C55.279,49.067 54.441,48.457 53.407,48.457 C53.407,48.457 52.470,48.457 52.470,48.457 C52.470,48.457 18.520,48.457 18.520,48.457 Z" id="path-2" class="cls-3" fill-rule="evenodd"/>
    <path d="M51.477,56.765 C50.748,56.765 50.158,56.334 50.158,55.801 C50.158,55.267 50.748,54.835 51.477,54.835 C51.477,54.835 55.517,54.835 55.517,54.835 C56.245,54.835 56.835,55.267 56.835,55.801 C56.835,56.334 56.245,56.765 55.517,56.765 C55.517,56.765 51.477,56.765 51.477,56.765 Z" id="path-3" class="cls-3" fill-rule="evenodd"/>
    <path d="M4.141,51.540 C3.413,51.540 2.822,51.108 2.822,50.575 C2.822,50.042 3.413,49.610 4.141,49.610 C4.141,49.610 8.182,49.610 8.182,49.610 C8.909,49.610 9.500,50.042 9.500,50.575 C9.500,51.108 8.909,51.540 8.182,51.540 C8.182,51.540 4.141,51.540 4.141,51.540 Z" id="path-4" class="cls-3" fill-rule="evenodd"/>
    <path d="M22.352,5.294 C22.352,5.294 28.709,5.294 28.709,5.294 C41.870,5.294 52.992,15.910 52.992,28.476 C52.992,41.179 42.553,51.512 29.723,51.512 C16.201,51.512 5.611,40.382 5.611,26.173 C5.611,25.565 6.104,25.074 6.710,25.074 C6.710,25.074 13.217,25.074 13.217,25.074 C13.827,25.074 14.316,25.565 14.316,26.173 C14.316,38.754 22.274,43.238 29.723,43.238 C37.481,43.238 44.287,36.153 44.287,28.079 C44.287,20.494 37.152,14.085 28.709,14.085 C28.709,14.085 22.582,13.900 22.582,13.900 C22.582,13.900 22.352,5.294 22.352,5.294 Z" id="path-5" class="cls-7" fill-rule="evenodd"/>
    <path d="M23.314,14.085 C23.314,14.085 23.314,18.529 23.314,18.529 C23.314,18.928 23.100,19.292 22.752,19.487 C22.406,19.683 21.981,19.671 21.642,19.466 C21.642,19.466 7.236,10.626 7.236,10.626 C6.908,10.424 6.711,10.069 6.711,9.683 C6.715,9.299 6.917,8.943 7.247,8.745 C7.247,8.745 21.653,0.143 21.653,0.143 C21.992,-0.061 22.417,-0.068 22.759,0.130 C23.103,0.323 23.314,0.688 23.314,1.085 C23.314,1.085 23.314,5.294 23.314,5.294 C23.314,5.294 23.314,14.085 23.314,14.085 Z" id="path-6" class="cls-7" fill-rule="evenodd"/>
    <path d="M25.144,13.977 C25.144,13.977 27.486,5.294 27.486,5.294 C27.486,5.294 23.314,5.294 23.314,5.294 C23.314,5.294 23.314,13.922 23.314,13.922 C23.314,13.922 25.144,13.977 25.144,13.977 Z" id="path-7" class="cls-9" fill-rule="evenodd"/>
  </g>
</svg>
