<svg xmlns="http://www.w3.org/2000/svg" xmlns:xlink="http://www.w3.org/1999/xlink" preserveAspectRatio="xMidYMid" width="60" height="60" viewBox="0 0 60 60">
  <defs>
    <style>

      .cls-3 {
        fill: #fbb713;
      }

      .cls-5 {
        fill: #2476ff;
      }

      .cls-7 {
        fill: #142a3b;
      }

      .cls-9 {
        fill: #020403;
        opacity: 0.35;
      }

      .cls-10 {
        fill: #ffffff;
      }
    </style>
  </defs>
  <g id="group-148svg">
    <path d="M46.420,49.836 C46.420,49.836 50.351,49.836 50.351,49.836 C51.108,49.836 51.723,50.527 51.723,51.380 C51.723,52.232 51.108,52.923 50.351,52.923 C50.351,52.923 50.168,52.923 50.168,52.923 C49.410,52.923 48.796,53.613 48.796,54.466 C48.796,55.318 49.410,56.009 50.168,56.009 C50.168,56.009 58.618,56.009 58.618,56.009 C59.376,56.009 59.990,56.700 59.990,57.553 C59.990,58.404 59.376,59.095 58.618,59.095 C58.618,59.095 48.463,59.095 48.463,59.095 C48.463,59.095 27.707,59.095 27.707,59.095 C26.949,59.095 26.334,58.404 26.334,57.553 C26.334,56.700 26.949,56.009 27.707,56.009 C27.707,56.009 30.052,56.009 30.052,56.009 C30.809,56.009 31.424,55.318 31.424,54.466 C31.424,53.613 30.809,52.923 30.052,52.923 C30.052,52.923 18.891,52.923 18.891,52.923 C18.133,52.923 17.519,52.232 17.519,51.380 C17.519,50.527 18.133,49.836 18.891,49.836 C18.891,49.836 21.528,49.836 21.528,49.836 C21.528,49.836 46.420,49.836 46.420,49.836 Z" id="path-1" class="cls-3" fill-rule="evenodd"/>
    <path d="M18.850,59.178 C19.788,59.178 20.548,58.697 20.548,58.102 C20.548,57.509 19.788,57.027 18.850,57.027 C18.850,57.027 13.646,57.027 13.646,57.027 C12.709,57.027 11.949,57.509 11.949,58.102 C11.949,58.697 12.709,59.178 13.646,59.178 C13.646,59.178 18.850,59.178 18.850,59.178 Z" id="path-2" class="cls-3" fill-rule="evenodd"/>
    <path d="M13.406,38.687 C13.406,38.687 -0.010,38.687 -0.010,38.687 C-0.010,38.687 5.350,25.664 5.350,25.664 C5.350,25.664 -0.010,12.687 -0.010,12.687 C-0.010,12.687 13.406,12.687 13.406,12.687 C13.406,12.687 13.406,38.687 13.406,38.687 Z" id="path-3" class="cls-5" fill-rule="evenodd"/>
    <path d="M38.406,40.687 C38.406,40.687 13.406,40.687 13.406,40.687 C13.406,40.687 13.406,9.687 13.406,9.687 C13.406,9.687 38.406,9.687 38.406,9.687 C38.406,9.687 38.406,40.687 38.406,40.687 Z" id="path-4" class="cls-5" fill-rule="evenodd"/>
    <path d="M37.406,54.687 C36.853,54.687 36.406,54.239 36.406,53.687 C36.406,53.687 36.406,7.687 36.406,7.687 C36.406,7.135 36.853,6.687 37.406,6.687 C37.959,6.687 38.406,7.135 38.406,7.687 C38.406,7.687 38.406,53.687 38.406,53.687 C38.406,54.239 37.959,54.687 37.406,54.687 Z" id="path-5" class="cls-7" fill-rule="evenodd"/>
    <path d="M35.870,8.144 C36.131,8.258 36.406,8.345 36.690,8.404 C36.695,8.405 39.269,8.300 39.269,8.300 C40.768,7.639 41.814,6.059 41.817,4.314 C41.812,1.957 39.910,0.009 37.553,0.005 C35.198,0.009 33.294,1.893 33.291,4.250 C33.292,6.007 34.353,7.491 35.870,8.144 Z" id="path-6" class="cls-5" fill-rule="evenodd"/>
    <path d="M36.695,0.330 C35.794,1.105 35.212,2.239 35.210,3.529 C35.211,5.285 36.272,6.769 37.789,7.423 C38.051,7.536 38.325,7.624 38.609,7.683 C38.612,7.683 39.814,7.635 40.576,7.603 C40.201,7.994 39.764,8.319 39.269,8.537 C39.269,8.537 36.695,8.644 36.690,8.642 C36.406,8.583 36.131,8.495 35.870,8.382 C34.353,7.729 33.292,6.245 33.291,4.488 C33.293,2.425 34.753,0.724 36.695,0.330 Z" id="path-7" class="cls-9" fill-rule="evenodd"/>
    <path d="M37.443,4.037 C38.043,4.636 39.014,4.636 39.613,4.037 C40.212,3.438 40.212,2.466 39.613,1.868 C39.014,1.268 38.043,1.268 37.443,1.868 C36.845,2.466 36.845,3.438 37.443,4.037 Z" id="path-8" class="cls-10" fill-rule="evenodd"/>
    <path d="M9.103,38.491 C9.103,38.491 13.259,38.491 13.259,38.491 C13.259,38.491 13.259,12.584 13.259,12.584 C13.259,12.584 11.022,12.584 11.022,12.584 C11.022,12.584 9.103,38.491 9.103,38.491 Z" id="path-9" class="cls-9" fill-rule="evenodd"/>
  </g>
</svg>
