<svg xmlns="http://www.w3.org/2000/svg" xmlns:xlink="http://www.w3.org/1999/xlink" preserveAspectRatio="xMidYMid" width="56" height="61" viewBox="0 0 56 61">
  <defs>
    <style>

      .cls-3 {
        fill: #ff3a2f;
      }

      .cls-7 {
        fill: #142a3b;
      }

      .cls-8 {
        fill: #000000;
        opacity: 0.35;
      }

      .cls-9 {
        fill: #ededed;
      }
    </style>
  </defs>
  <g id="group-231svg">
    <path d="M41.460,59.994 C41.460,59.994 45.706,59.994 45.706,59.994 C46.524,59.994 47.188,59.609 47.188,59.134 C47.188,58.659 46.524,58.273 45.706,58.273 C45.706,58.273 45.508,58.273 45.508,58.273 C44.689,58.273 44.026,57.888 44.026,57.413 C44.026,56.938 44.689,56.552 45.508,56.552 C45.508,56.552 54.635,56.552 54.635,56.552 C55.453,56.552 56.117,56.167 56.117,55.692 C56.117,55.217 55.453,54.831 54.635,54.831 C54.635,54.831 43.667,54.831 43.667,54.831 C43.667,54.831 21.249,54.831 21.249,54.831 C20.431,54.831 19.767,55.217 19.767,55.692 C19.767,56.167 20.431,56.552 21.249,56.552 C21.249,56.552 23.782,56.552 23.782,56.552 C24.601,56.552 25.264,56.938 25.264,57.413 C25.264,57.888 24.601,58.273 23.782,58.273 C23.782,58.273 11.727,58.273 11.727,58.273 C10.909,58.273 10.245,58.659 10.245,59.134 C10.245,59.609 10.909,59.994 11.727,59.994 C11.727,59.994 14.576,59.994 14.576,59.994 C14.576,59.994 41.460,59.994 41.460,59.994 Z" id="path-1" class="cls-3" fill-rule="evenodd"/>
    <path d="M16.486,46.282 C16.486,46.282 18.730,46.282 18.730,46.282 C19.163,46.282 19.514,45.975 19.514,45.597 C19.514,45.219 19.163,44.911 18.730,44.911 C18.730,44.911 18.626,44.911 18.626,44.911 C18.193,44.911 17.842,44.604 17.842,44.226 C17.842,43.848 18.193,43.541 18.626,43.541 C18.626,43.541 23.449,43.541 23.449,43.541 C23.882,43.541 24.232,43.233 24.232,42.855 C24.232,42.476 23.882,42.170 23.449,42.170 C23.449,42.170 17.652,42.170 17.652,42.170 C17.652,42.170 5.804,42.170 5.804,42.170 C5.372,42.170 5.021,42.476 5.021,42.855 C5.021,43.233 5.372,43.541 5.804,43.541 C5.804,43.541 7.143,43.541 7.143,43.541 C7.576,43.541 7.926,43.848 7.926,44.226 C7.926,44.604 7.576,44.911 7.143,44.911 C7.143,44.911 0.772,44.911 0.772,44.911 C0.339,44.911 -0.012,45.219 -0.012,45.597 C-0.012,45.975 0.339,46.282 0.772,46.282 C0.772,46.282 2.277,46.282 2.277,46.282 C2.277,46.282 16.486,46.282 16.486,46.282 Z" id="path-2" class="cls-3" fill-rule="evenodd"/>
    <path d="M13.653,54.772 C14.575,54.772 15.322,55.196 15.322,55.721 C15.322,56.244 14.575,56.669 13.653,56.669 C13.653,56.669 8.538,56.669 8.538,56.669 C7.616,56.669 6.869,56.244 6.869,55.721 C6.869,55.196 7.616,54.772 8.538,54.772 C8.538,54.772 13.653,54.772 13.653,54.772 Z" id="path-3" class="cls-3" fill-rule="evenodd"/>
    <path d="M53.260,45.334 C54.182,45.334 54.929,45.758 54.929,46.282 C54.929,46.806 54.182,47.231 53.260,47.231 C53.260,47.231 48.145,47.231 48.145,47.231 C47.224,47.231 46.476,46.806 46.476,46.282 C46.476,45.758 47.224,45.334 48.145,45.334 C48.145,45.334 53.260,45.334 53.260,45.334 Z" id="path-4" class="cls-3" fill-rule="evenodd"/>
    <path d="M36.128,5.993 C36.128,5.993 33.516,5.993 33.516,5.993 C33.380,3.751 31.353,2.844 29.982,2.249 C29.252,1.929 28.345,1.534 28.345,1.194 C28.345,0.531 27.808,-0.006 27.144,-0.006 C26.481,-0.006 25.945,0.531 25.945,1.194 C25.945,3.106 27.724,3.882 29.022,4.446 C30.306,5.007 30.952,5.381 31.086,5.993 C31.086,5.993 28.556,5.993 28.556,5.993 C20.722,5.993 14.347,12.366 14.347,20.202 C14.347,20.202 14.347,20.389 14.347,20.389 C14.347,20.389 14.347,38.422 14.347,38.422 C14.347,48.323 22.402,56.379 32.305,56.379 C32.305,56.379 32.379,56.379 32.379,56.379 C42.281,56.379 50.337,48.323 50.337,38.422 C50.337,38.422 50.337,20.389 50.337,20.389 C50.337,20.389 50.337,20.202 50.337,20.202 C50.337,12.366 43.963,5.993 36.128,5.993 Z" id="path-5" class="cls-7" fill-rule="evenodd"/>
    <path d="M44.504,8.750 C46.229,11.101 47.262,13.992 47.262,17.126 C47.262,17.126 47.262,17.313 47.262,17.313 C47.262,17.313 47.262,35.346 47.262,35.346 C47.262,45.248 39.206,53.304 29.304,53.304 C29.304,53.304 29.228,53.304 29.228,53.304 C25.060,53.304 21.229,51.863 18.179,49.472 C21.469,53.668 26.570,56.379 32.305,56.379 C32.305,56.379 32.379,56.379 32.379,56.379 C42.281,56.379 50.337,48.323 50.337,38.422 C50.337,38.422 50.337,20.389 50.337,20.389 C50.337,20.389 50.337,20.202 50.337,20.202 C50.337,15.500 48.032,11.338 44.504,8.750 Z" id="path-6" class="cls-8" fill-rule="evenodd"/>
    <path d="M36.341,26.386 C36.341,26.386 28.343,26.386 28.343,26.386 C27.791,26.386 27.343,25.939 27.343,25.386 C27.343,25.386 27.343,16.389 27.343,16.389 C27.343,15.838 27.791,15.390 28.343,15.390 C28.343,15.390 36.341,15.390 36.341,15.390 C36.893,15.390 37.341,15.838 37.341,16.389 C37.341,16.389 37.341,25.386 37.341,25.386 C37.341,25.939 36.893,26.386 36.341,26.386 Z" id="path-7" class="cls-9" fill-rule="evenodd"/>
    <path d="M31.142,24.487 C31.142,24.487 33.541,24.487 33.541,24.487 C33.541,24.487 33.541,17.289 33.541,17.289 C33.541,17.289 31.142,17.289 31.142,17.289 C31.142,17.289 31.142,24.487 31.142,24.487 Z" id="path-8" class="cls-7" fill-rule="evenodd"/>
  </g>
</svg>
