<svg xmlns="http://www.w3.org/2000/svg" xmlns:xlink="http://www.w3.org/1999/xlink" preserveAspectRatio="xMidYMid" width="60" height="55" viewBox="0 0 60 55">
  <defs>
    <style>

      .cls-3 {
        fill: #142a3b;
      }

      .cls-11 {
        fill: #fbb713;
      }

      .cls-12 {
        fill: #020403;
        opacity: 0.35;
      }

      .cls-13 {
        fill: #2476ff;
      }
    </style>
  </defs>
  <g id="group-126svg">
    <path d="M50.736,2.928 C50.736,2.928 50.024,3.235 50.024,3.235 C49.887,3.294 49.848,3.510 49.938,3.718 C50.027,3.926 50.211,4.047 50.349,3.987 C50.349,3.987 50.382,3.973 50.382,3.973 C50.519,3.914 50.703,4.034 50.793,4.242 C50.882,4.450 50.844,4.667 50.707,4.726 C50.707,4.726 49.177,5.386 49.177,5.386 C49.039,5.445 49.001,5.662 49.091,5.870 C49.180,6.077 49.364,6.198 49.501,6.139 C49.501,6.139 51.340,5.345 51.340,5.345 C51.340,5.345 55.099,3.724 55.099,3.724 C55.236,3.664 55.274,3.448 55.185,3.240 C55.095,3.032 54.911,2.911 54.774,2.971 C54.774,2.971 54.349,3.154 54.349,3.154 C54.212,3.213 54.028,3.092 53.938,2.885 C53.849,2.677 53.887,2.460 54.024,2.401 C54.024,2.401 56.045,1.529 56.045,1.529 C56.183,1.470 56.221,1.253 56.131,1.045 C56.041,0.838 55.858,0.717 55.721,0.776 C55.721,0.776 55.243,0.982 55.243,0.982 C55.243,0.982 50.736,2.928 50.736,2.928 Z" id="path-1" class="cls-3" fill-rule="evenodd"/>
    <path d="M43.645,7.410 C43.008,7.684 42.350,7.576 42.173,7.167 C41.997,6.757 42.369,6.203 43.006,5.929 C43.006,5.929 46.537,4.405 46.537,4.405 C47.173,4.131 47.831,4.239 48.008,4.649 C48.185,5.058 47.812,5.611 47.175,5.886 C47.175,5.886 43.645,7.410 43.645,7.410 Z" id="path-2" class="cls-3" fill-rule="evenodd"/>
    <path d="M52.108,22.655 C52.108,22.655 51.337,22.739 51.337,22.739 C51.189,22.755 51.088,22.951 51.113,23.176 C51.138,23.401 51.278,23.570 51.427,23.554 C51.427,23.554 51.462,23.550 51.462,23.550 C51.611,23.534 51.751,23.703 51.776,23.928 C51.801,24.154 51.700,24.349 51.551,24.366 C51.551,24.366 49.895,24.546 49.895,24.546 C49.746,24.562 49.646,24.758 49.670,24.983 C49.695,25.208 49.835,25.378 49.984,25.361 C49.984,25.361 51.975,25.144 51.975,25.144 C51.975,25.144 56.044,24.699 56.044,24.699 C56.192,24.683 56.293,24.488 56.269,24.263 C56.244,24.037 56.103,23.868 55.955,23.884 C55.955,23.884 55.495,23.934 55.495,23.934 C55.347,23.951 55.206,23.781 55.182,23.556 C55.157,23.331 55.257,23.135 55.406,23.119 C55.406,23.119 57.594,22.880 57.594,22.880 C57.743,22.864 57.843,22.669 57.819,22.444 C57.794,22.218 57.654,22.049 57.505,22.065 C57.505,22.065 56.988,22.122 56.988,22.122 C56.988,22.122 52.108,22.655 52.108,22.655 Z" id="path-3" class="cls-3" fill-rule="evenodd"/>
    <path d="M44.012,24.853 C43.323,24.928 42.726,24.631 42.677,24.188 C42.629,23.745 43.148,23.325 43.837,23.250 C43.837,23.250 47.660,22.832 47.660,22.832 C48.349,22.757 48.947,23.055 48.995,23.498 C49.043,23.940 48.524,24.360 47.835,24.436 C47.835,24.436 44.012,24.853 44.012,24.853 Z" id="path-4" class="cls-3" fill-rule="evenodd"/>
    <path d="M53.246,43.835 C53.246,43.835 52.307,43.462 52.307,43.462 C52.125,43.390 51.890,43.554 51.781,43.828 C51.672,44.103 51.731,44.383 51.912,44.455 C51.912,44.455 51.956,44.473 51.956,44.473 C52.137,44.545 52.195,44.825 52.086,45.100 C51.978,45.374 51.742,45.538 51.561,45.466 C51.561,45.466 49.541,44.664 49.541,44.664 C49.360,44.592 49.125,44.756 49.016,45.031 C48.907,45.305 48.966,45.586 49.147,45.658 C49.147,45.658 51.574,46.622 51.574,46.622 C51.574,46.622 56.535,48.591 56.535,48.591 C56.716,48.664 56.951,48.499 57.060,48.225 C57.169,47.951 57.110,47.670 56.929,47.598 C56.929,47.598 56.369,47.375 56.369,47.375 C56.187,47.304 56.129,47.023 56.238,46.748 C56.347,46.474 56.582,46.310 56.763,46.382 C56.763,46.382 59.431,47.441 59.431,47.441 C59.612,47.513 59.847,47.349 59.956,47.075 C60.065,46.800 60.006,46.519 59.825,46.447 C59.825,46.447 59.195,46.197 59.195,46.197 C59.195,46.197 53.246,43.835 53.246,43.835 Z" id="path-5" class="cls-3" fill-rule="evenodd"/>
    <path d="M42.575,41.430 C41.735,41.096 41.228,40.388 41.442,39.848 C41.657,39.309 42.511,39.141 43.351,39.475 C43.351,39.475 48.012,41.326 48.012,41.326 C48.852,41.659 49.358,42.367 49.144,42.907 C48.930,43.446 48.075,43.614 47.235,43.280 C47.235,43.280 42.575,41.430 42.575,41.430 Z" id="path-6" class="cls-3" fill-rule="evenodd"/>
    <path d="M10.533,48.510 C10.533,48.510 7.485,48.510 7.485,48.510 C6.897,48.510 6.421,48.948 6.421,49.489 C6.421,50.030 6.897,50.468 7.485,50.468 C7.485,50.468 7.627,50.468 7.627,50.468 C8.215,50.468 8.691,50.906 8.691,51.447 C8.691,51.987 8.215,52.426 7.627,52.426 C7.627,52.426 1.075,52.426 1.075,52.426 C0.487,52.426 0.011,52.864 0.011,53.405 C0.011,53.946 0.487,54.384 1.075,54.384 C1.075,54.384 8.949,54.384 8.949,54.384 C8.949,54.384 25.044,54.384 25.044,54.384 C25.631,54.384 26.108,53.946 26.108,53.405 C26.108,52.864 25.631,52.426 25.044,52.426 C25.044,52.426 23.226,52.426 23.226,52.426 C22.638,52.426 22.161,51.987 22.161,51.447 C22.161,50.906 22.638,50.468 23.226,50.468 C23.226,50.468 30.368,50.468 30.368,50.468 C30.955,50.468 31.432,50.030 31.432,49.489 C31.432,48.948 30.955,48.510 30.368,48.510 C30.368,48.510 29.834,48.510 29.834,48.510 C29.834,48.510 10.533,48.510 10.533,48.510 Z" id="path-7" class="cls-3" fill-rule="evenodd"/>
    <path d="M31.118,54.646 C30.625,54.646 30.226,54.176 30.226,53.597 C30.226,53.018 30.625,52.548 31.118,52.548 C31.118,52.548 33.851,52.548 33.851,52.548 C34.344,52.548 34.744,53.018 34.744,53.597 C34.744,54.176 34.344,54.646 33.851,54.646 C33.851,54.646 31.118,54.646 31.118,54.646 Z" id="path-8" class="cls-3" fill-rule="evenodd"/>
    <path d="M21.440,35.347 C21.440,35.347 11.137,35.347 11.137,35.347 C11.137,35.347 11.137,13.237 11.137,13.237 C11.137,13.237 21.440,13.237 21.440,13.237 C21.440,13.237 21.440,35.347 21.440,35.347 Z" id="path-9" class="cls-11" fill-rule="evenodd"/>
    <path d="M12.309,13.237 C12.309,13.237 11.137,13.237 11.137,13.237 C11.137,13.237 11.137,35.347 11.137,35.347 C11.137,35.347 21.440,35.347 21.440,35.347 C21.440,35.347 21.440,13.237 21.440,13.237 C21.440,13.237 19.646,29.710 19.646,29.710 C19.347,31.842 16.685,32.672 15.247,31.070 C14.402,30.129 12.309,13.237 12.309,13.237 Z" id="path-10" class="cls-12" fill-rule="evenodd"/>
    <path d="M21.858,13.237 C21.858,13.237 21.440,13.237 21.440,13.237 C21.440,13.237 21.440,35.415 21.440,35.415 C21.440,35.415 38.631,49.981 38.631,49.981 C38.631,49.981 38.631,-0.009 38.631,-0.009 C38.631,-0.009 21.858,13.237 21.858,13.237 Z" id="path-11" class="cls-13" fill-rule="evenodd"/>
    <path d="M34.963,2.888 C34.963,2.888 34.963,33.942 34.963,33.942 C34.963,36.581 31.875,38.012 29.862,36.306 C29.862,36.306 21.440,29.171 21.440,29.171 C21.440,29.171 21.440,35.415 21.440,35.415 C21.440,35.415 38.631,49.981 38.631,49.981 C38.631,49.981 38.631,-0.009 38.631,-0.009 C38.631,-0.009 34.963,2.888 34.963,2.888 Z" id="path-12" class="cls-12" fill-rule="evenodd"/>
  </g>
</svg>
