<svg xmlns="http://www.w3.org/2000/svg" xmlns:xlink="http://www.w3.org/1999/xlink" preserveAspectRatio="xMidYMid" width="57" height="61" viewBox="0 0 57 61">
  <defs>
    <style>

      .cls-3 {
        fill: #2476ff;
      }

      .cls-6 {
        fill: #0cb04a;
      }

      .cls-7 {
        fill: #ffffff;
      }

      .cls-8 {
        fill: #142a3b;
      }

      .cls-9 {
        fill: #000000;
        opacity: 0.4;
      }

      .cls-10 {
        fill: #000000;
      }

      .cls-11 {
        fill: #010101;
        opacity: 0.35;
      }

      .cls-12 {
        fill: #ff3a2f;
      }
    </style>
  </defs>
  <g id="group-4svg">
    <path d="M51.285,49.174 C51.285,49.174 52.751,49.174 52.751,49.174 C53.033,49.174 53.262,49.472 53.262,49.838 C53.262,50.204 53.033,50.502 52.751,50.502 C52.751,50.502 52.683,50.502 52.683,50.502 C52.399,50.502 52.171,50.799 52.171,51.165 C52.171,51.531 52.399,51.828 52.683,51.828 C52.683,51.828 55.832,51.828 55.832,51.828 C56.114,51.828 56.344,52.125 56.344,52.491 C56.344,52.858 56.114,53.155 55.832,53.155 C55.832,53.155 52.047,53.155 52.047,53.155 C52.047,53.155 47.887,53.155 47.887,53.155 C47.604,53.155 47.375,52.858 47.375,52.491 C47.375,52.125 47.604,51.828 47.887,51.828 C47.887,51.828 48.761,51.828 48.761,51.828 C49.043,51.828 49.272,51.531 49.272,51.165 C49.272,50.799 49.043,50.502 48.761,50.502 C48.761,50.502 44.601,50.502 44.601,50.502 C44.318,50.502 44.089,50.204 44.089,49.838 C44.089,49.472 44.318,49.174 44.601,49.174 C44.601,49.174 45.584,49.174 45.584,49.174 C45.584,49.174 51.285,49.174 51.285,49.174 Z" id="path-1" class="cls-3" fill-rule="evenodd"/>
    <path d="M40.171,53.447 C40.828,53.447 41.360,53.110 41.360,52.694 C41.360,52.277 40.828,51.940 40.171,51.940 C40.171,51.940 36.524,51.940 36.524,51.940 C35.868,51.940 35.335,52.277 35.335,52.694 C35.335,53.110 35.868,53.447 36.524,53.447 C36.524,53.447 40.171,53.447 40.171,53.447 Z" id="path-2" class="cls-3" fill-rule="evenodd"/>
    <path d="M12.316,55.783 C12.316,55.783 14.769,55.783 14.769,55.783 C15.242,55.783 15.625,56.099 15.625,56.489 C15.625,56.878 15.242,57.194 14.769,57.194 C14.769,57.194 14.655,57.194 14.655,57.194 C14.182,57.194 13.799,57.510 13.799,57.899 C13.799,58.289 14.182,58.604 14.655,58.604 C14.655,58.604 19.929,58.604 19.929,58.604 C20.401,58.604 20.785,58.920 20.785,59.310 C20.785,59.700 20.401,60.015 19.929,60.015 C19.929,60.015 13.591,60.015 13.591,60.015 C13.591,60.015 6.626,60.015 6.626,60.015 C6.153,60.015 5.769,59.700 5.769,59.310 C5.769,58.920 6.153,58.604 6.626,58.604 C6.626,58.604 8.089,58.604 8.089,58.604 C8.562,58.604 8.946,58.289 8.946,57.899 C8.946,57.510 8.562,57.194 8.089,57.194 C8.089,57.194 1.124,57.194 1.124,57.194 C0.651,57.194 0.268,56.878 0.268,56.489 C0.268,56.099 0.651,55.783 1.124,55.783 C1.124,55.783 2.770,55.783 2.770,55.783 C2.770,55.783 12.316,55.783 12.316,55.783 Z" id="path-3" class="cls-3" fill-rule="evenodd"/>
    <path d="M34.401,32.182 C34.401,30.882 33.348,29.828 32.048,29.828 C32.048,29.828 29.694,29.828 29.694,29.828 C29.694,29.828 16.714,29.828 16.714,29.828 C16.714,29.828 12.124,29.828 12.124,29.828 C9.386,29.828 6.774,30.978 4.927,32.999 C4.927,32.999 2.567,35.579 2.567,35.579 C0.923,37.376 0.012,39.724 0.012,42.160 C0.012,42.160 0.012,49.616 0.012,49.616 C0.012,50.916 1.065,51.970 2.366,51.970 C2.366,51.970 27.341,51.970 27.341,51.970 C28.641,51.970 29.694,50.916 29.694,49.616 C29.694,49.616 29.694,38.214 29.694,38.214 C29.694,36.914 30.748,35.860 32.048,35.860 C32.048,35.860 32.048,35.860 32.048,35.860 C33.348,35.860 34.401,34.806 34.401,33.506 C34.401,33.506 34.401,32.182 34.401,32.182 Z" id="path-4" class="cls-6" fill-rule="evenodd"/>
    <path d="M2.155,45.303 C1.603,45.303 1.155,44.855 1.155,44.303 C1.155,41.611 2.155,39.034 3.972,37.047 C3.972,37.047 6.331,34.467 6.331,34.467 C8.363,32.245 11.255,30.971 14.266,30.971 C14.818,30.971 15.266,31.418 15.266,31.971 C15.266,32.523 14.818,32.970 14.266,32.970 C11.815,32.970 9.461,34.008 7.807,35.816 C7.807,35.816 5.448,38.396 5.448,38.396 C3.969,40.014 3.155,42.112 3.155,44.303 C3.155,44.855 2.707,45.303 2.155,45.303 Z" id="path-5" class="cls-7" fill-rule="evenodd"/>
    <path d="M22.463,26.291 C22.463,26.291 22.463,9.554 22.463,9.554 C22.463,6.010 25.336,3.137 28.880,3.137 C32.424,3.137 35.297,6.010 35.297,9.554 C35.297,9.554 42.727,47.422 42.727,47.422 C42.727,47.422 45.742,47.422 45.742,47.422 C45.742,47.422 38.419,9.554 38.419,9.554 C38.419,4.286 34.148,0.015 28.880,0.015 C23.612,0.015 19.341,4.286 19.341,9.554 C19.341,9.554 19.341,26.291 19.341,26.291 C19.341,26.291 22.463,26.291 22.463,26.291 Z" id="path-6" class="cls-8" fill-rule="evenodd"/>
    <path d="M19.341,26.291 C19.341,26.291 22.463,26.291 22.463,26.291 C22.463,26.291 22.463,23.817 22.463,23.817 C22.463,23.817 19.341,23.817 19.341,23.817 C19.341,23.817 19.341,26.291 19.341,26.291 Z" id="path-7" class="cls-9" fill-rule="evenodd"/>
    <path d="M42.577,46.360 C42.577,46.360 42.727,47.422 42.727,47.422 C42.727,47.422 45.742,47.422 45.742,47.422 C45.742,47.422 45.601,46.360 45.601,46.360 C45.601,46.360 42.577,46.360 42.577,46.360 Z" id="path-8" class="cls-10" fill-rule="evenodd"/>
    <path d="M21.111,42.351 C17.121,42.351 13.888,45.585 13.888,49.575 C13.888,50.416 14.039,51.219 14.303,51.970 C14.303,51.970 27.341,51.970 27.341,51.970 C27.554,51.970 27.756,51.932 27.953,51.879 C28.197,51.155 28.335,50.382 28.335,49.575 C28.335,45.585 25.101,42.351 21.111,42.351 Z" id="path-9" class="cls-11" fill-rule="evenodd"/>
    <path d="M26.927,29.828 C26.927,29.828 14.661,29.828 14.661,29.828 C14.661,29.828 14.661,26.057 14.661,26.057 C14.661,26.057 26.927,26.057 26.927,26.057 C26.927,26.057 26.927,29.828 26.927,29.828 Z" id="path-10" class="cls-12" fill-rule="evenodd"/>
    <path d="M27.264,51.718 C27.264,55.707 24.029,58.941 20.040,58.941 C16.050,58.941 12.816,55.707 12.816,51.718 C12.816,47.728 16.050,44.494 20.040,44.494 C24.029,44.494 27.264,47.728 27.264,51.718 Z" id="path-11" class="cls-8" fill-rule="evenodd"/>
    <path d="M22.593,51.718 C22.593,53.128 21.450,54.271 20.040,54.271 C18.630,54.271 17.486,53.128 17.486,51.718 C17.486,50.307 18.630,49.164 20.040,49.164 C21.450,49.164 22.593,50.307 22.593,51.718 Z" id="path-12" class="cls-12" fill-rule="evenodd"/>
    <path d="M29.417,39.129 C29.417,39.129 21.671,39.129 21.671,39.129 C21.394,39.129 21.171,38.907 21.171,38.630 C21.171,38.354 21.394,38.130 21.671,38.130 C21.671,38.130 29.417,38.130 29.417,38.130 C29.693,38.130 29.917,38.354 29.917,38.630 C29.917,38.907 29.693,39.129 29.417,39.129 Z" id="path-13" class="cls-8" fill-rule="evenodd"/>
    <path d="M53.130,49.753 C53.130,49.753 34.401,49.753 34.401,49.753 C34.401,49.753 34.401,47.422 34.401,47.422 C34.401,47.422 53.130,47.422 53.130,47.422 C53.130,47.422 53.130,49.753 53.130,49.753 Z" id="path-14" class="cls-12" fill-rule="evenodd"/>
  </g>
</svg>
