<svg xmlns="http://www.w3.org/2000/svg" xmlns:xlink="http://www.w3.org/1999/xlink" preserveAspectRatio="xMidYMid" width="56" height="61" viewBox="0 0 56 61">
  <defs>
    <style>

      .cls-3 {
        fill: #fbb713;
      }

      .cls-4 {
        fill: #010101;
        opacity: 0.25;
      }

      .cls-5 {
        fill: #142a3b;
        opacity: 0.35;
      }

      .cls-6 {
        fill: #010101;
        opacity: 0.35;
      }

      .cls-8 {
        fill: #ff3a2f;
      }
    </style>
  </defs>
  <g id="group-98svg">
    <path d="M23.904,0.006 C30.749,2.101 37.563,5.991 43.444,11.555 C49.322,17.116 53.432,23.563 55.648,30.038 C55.648,30.038 0.525,52.164 0.525,52.164 C0.525,52.164 23.904,0.006 23.904,0.006 Z" id="path-1" class="cls-3" fill-rule="evenodd"/>
    <path d="M43.443,11.555 C41.419,9.639 39.277,7.936 37.067,6.422 C37.181,6.527 37.299,6.623 37.411,6.729 C43.290,12.290 51.019,22.356 53.235,28.831 C53.235,28.831 3.294,45.987 3.294,45.987 C3.294,45.987 0.525,52.164 0.525,52.164 C0.525,52.164 55.648,30.038 55.648,30.038 C53.432,23.563 49.322,17.116 43.443,11.555 Z" id="path-2" class="cls-4" fill-rule="evenodd"/>
    <path d="M46.899,30.226 C46.517,30.226 46.152,30.006 45.986,29.635 C44.061,25.351 41.015,21.166 37.175,17.533 C33.332,13.899 28.904,11.013 24.372,9.189 C23.859,8.982 23.611,8.400 23.817,7.887 C24.024,7.374 24.611,7.128 25.118,7.333 C29.882,9.250 34.526,12.275 38.550,16.081 C42.577,19.891 45.780,24.295 47.811,28.816 C48.037,29.320 47.811,29.912 47.309,30.137 C47.175,30.197 47.036,30.226 46.899,30.226 Z" id="path-3" class="cls-5" fill-rule="evenodd"/>
    <path d="M29.876,21.319 C29.876,23.486 28.119,25.244 25.951,25.244 C23.784,25.244 22.027,23.486 22.027,21.319 C22.027,19.152 23.784,17.394 25.951,17.394 C28.119,17.394 29.876,19.152 29.876,21.319 Z" id="path-4" class="cls-6" fill-rule="evenodd"/>
    <path d="M21.602,36.512 C21.602,38.679 19.845,40.436 17.678,40.436 C15.510,40.436 13.753,38.679 13.753,36.512 C13.753,34.344 15.510,32.587 17.678,32.587 C19.845,32.587 21.602,34.344 21.602,36.512 Z" id="path-5" class="cls-6" fill-rule="evenodd"/>
    <path d="M28.670,22.526 C28.670,24.693 26.912,26.450 24.745,26.450 C22.578,26.450 20.820,24.693 20.820,22.526 C20.820,20.358 22.578,18.601 24.745,18.601 C26.912,18.601 28.670,20.358 28.670,22.526 Z" id="path-6" class="cls-8" fill-rule="evenodd"/>
    <path d="M20.395,36.512 C20.395,38.679 18.639,40.436 16.471,40.436 C14.304,40.436 12.547,38.679 12.547,36.512 C12.547,34.344 14.304,32.587 16.471,32.587 C18.639,32.587 20.395,34.344 20.395,36.512 Z" id="path-7" class="cls-8" fill-rule="evenodd"/>
    <path d="M35.380,34.681 C33.512,35.350 32.480,37.289 32.878,39.178 C32.878,39.178 40.033,36.306 40.033,36.306 C39.079,34.768 37.153,34.046 35.380,34.681 Z" id="path-8" class="cls-8" fill-rule="evenodd"/>
    <path d="M20.215,55.577 C20.215,55.577 24.330,55.577 24.330,55.577 C25.124,55.577 25.767,55.866 25.767,56.222 C25.767,56.578 25.124,56.867 24.330,56.867 C24.330,56.867 24.139,56.867 24.139,56.867 C23.346,56.867 22.702,57.156 22.702,57.513 C22.702,57.869 23.346,58.157 24.139,58.157 C24.139,58.157 32.985,58.157 32.985,58.157 C33.778,58.157 34.422,58.446 34.422,58.802 C34.422,59.159 33.778,59.447 32.985,59.447 C32.985,59.447 22.354,59.447 22.354,59.447 C22.354,59.447 10.670,59.447 10.670,59.447 C9.876,59.447 9.232,59.159 9.232,58.802 C9.232,58.446 9.876,58.157 10.670,58.157 C10.670,58.157 13.125,58.157 13.125,58.157 C13.918,58.157 14.561,57.869 14.561,57.513 C14.561,57.156 13.918,56.867 13.125,56.867 C13.125,56.867 1.440,56.867 1.440,56.867 C0.646,56.867 0.004,56.578 0.004,56.222 C0.004,55.866 0.646,55.577 1.440,55.577 C1.440,55.577 4.202,55.577 4.202,55.577 C4.202,55.577 20.215,55.577 20.215,55.577 Z" id="path-9" class="cls-8" fill-rule="evenodd"/>
    <path d="M45.685,60.006 C46.591,60.006 47.325,59.676 47.325,59.269 C47.325,58.862 46.591,58.533 45.685,58.533 C45.685,58.533 40.658,58.533 40.658,58.533 C39.752,58.533 39.017,58.862 39.017,59.269 C39.017,59.676 39.752,60.006 40.658,60.006 C40.658,60.006 45.685,60.006 45.685,60.006 Z" id="path-10" class="cls-8" fill-rule="evenodd"/>
    <path d="M49.576,49.782 C49.576,49.782 51.466,49.782 51.466,49.782 C51.830,49.782 52.126,49.946 52.126,50.149 C52.126,50.351 51.830,50.514 51.466,50.514 C51.466,50.514 51.378,50.514 51.378,50.514 C51.014,50.514 50.719,50.678 50.719,50.881 C50.719,51.083 51.014,51.246 51.378,51.246 C51.378,51.246 55.440,51.246 55.440,51.246 C55.805,51.246 56.100,51.411 56.100,51.612 C56.100,51.815 55.805,51.978 55.440,51.978 C55.440,51.978 50.559,51.978 50.559,51.978 C50.559,51.978 40.581,51.978 40.581,51.978 C40.217,51.978 39.921,51.815 39.921,51.612 C39.921,51.411 40.217,51.246 40.581,51.246 C40.581,51.246 41.708,51.246 41.708,51.246 C42.072,51.246 42.368,51.083 42.368,50.881 C42.368,50.678 42.072,50.514 41.708,50.514 C41.708,50.514 36.343,50.514 36.343,50.514 C35.979,50.514 35.684,50.351 35.684,50.149 C35.684,49.946 35.979,49.782 36.343,49.782 C36.343,49.782 37.611,49.782 37.611,49.782 C37.611,49.782 49.576,49.782 49.576,49.782 Z" id="path-11" class="cls-8" fill-rule="evenodd"/>
    <path d="M35.246,52.374 C35.926,52.374 36.477,52.239 36.477,52.071 C36.477,51.904 35.926,51.768 35.246,51.768 C35.246,51.768 31.475,51.768 31.475,51.768 C30.795,51.768 30.243,51.904 30.243,52.071 C30.243,52.239 30.795,52.374 31.475,52.374 C31.475,52.374 35.246,52.374 35.246,52.374 Z" id="path-12" class="cls-8" fill-rule="evenodd"/>
    <path d="M22.484,45.674 C22.484,45.674 22.484,46.624 22.484,46.624 C22.484,46.807 22.291,46.955 22.052,46.955 C21.812,46.955 21.618,46.807 21.618,46.624 C21.618,46.624 21.618,46.579 21.618,46.579 C21.618,46.396 21.424,46.248 21.185,46.248 C20.945,46.248 20.752,46.396 20.752,46.579 C20.752,46.579 20.752,48.621 20.752,48.621 C20.752,48.804 20.558,48.952 20.318,48.952 C20.079,48.952 19.885,48.804 19.885,48.621 C19.885,48.621 19.885,46.168 19.885,46.168 C19.885,46.168 19.885,41.153 19.885,41.153 C19.885,40.970 20.079,40.822 20.318,40.822 C20.558,40.822 20.752,40.970 20.752,41.153 C20.752,41.153 20.752,41.720 20.752,41.720 C20.752,41.903 20.945,42.051 21.185,42.051 C21.424,42.051 21.618,41.903 21.618,41.720 C21.618,41.720 21.618,39.024 21.618,39.024 C21.618,38.841 21.812,38.692 22.052,38.692 C22.291,38.692 22.484,38.841 22.484,39.024 C22.484,39.024 22.484,39.661 22.484,39.661 C22.484,39.661 22.484,45.674 22.484,45.674 Z" id="path-13" class="cls-8" fill-rule="evenodd"/>
  </g>
</svg>
