<svg xmlns="http://www.w3.org/2000/svg" xmlns:xlink="http://www.w3.org/1999/xlink" preserveAspectRatio="xMidYMid" width="61" height="55" viewBox="0 0 61 55">
  <defs>
    <style>

      .cls-3 {
        fill: #ff3a2f;
      }

      .cls-6 {
        fill: #0cb04a;
      }

      .cls-7 {
        fill: #000000;
        opacity: 0.35;
      }

      .cls-8 {
        fill: #fbb713;
      }

      .cls-9 {
        fill: #000000;
        opacity: 0.25;
      }

      .cls-10 {
        fill: #142a3b;
      }
    </style>
  </defs>
  <g id="group-275svg">
    <path d="M17.900,46.395 C17.900,46.395 12.885,46.395 12.885,46.395 C11.918,46.395 11.134,46.987 11.134,47.718 C11.134,48.448 11.918,49.040 12.885,49.040 C12.885,49.040 13.118,49.040 13.118,49.040 C14.085,49.040 14.869,49.633 14.869,50.363 C14.869,51.093 14.085,51.686 13.118,51.686 C13.118,51.686 2.336,51.686 2.336,51.686 C1.368,51.686 0.584,52.278 0.584,53.009 C0.584,53.739 1.368,54.331 2.336,54.331 C2.336,54.331 15.294,54.331 15.294,54.331 C15.294,54.331 41.779,54.331 41.779,54.331 C42.747,54.331 43.530,53.739 43.530,53.009 C43.530,52.278 42.747,51.686 41.779,51.686 C41.779,51.686 38.787,51.686 38.787,51.686 C37.820,51.686 37.036,51.093 37.036,50.363 C37.036,49.633 37.820,49.040 38.787,49.040 C38.787,49.040 50.540,49.040 50.540,49.040 C51.508,49.040 52.291,48.448 52.291,47.718 C52.291,46.987 51.508,46.395 50.540,46.395 C50.540,46.395 49.663,46.395 49.663,46.395 C49.663,46.395 17.900,46.395 17.900,46.395 Z" id="path-1" class="cls-3" fill-rule="evenodd"/>
    <path d="M49.009,54.685 C48.198,54.685 47.541,54.051 47.541,53.268 C47.541,52.485 48.198,51.851 49.009,51.851 C49.009,51.851 53.508,51.851 53.508,51.851 C54.318,51.851 54.976,52.485 54.976,53.268 C54.976,54.051 54.318,54.685 53.508,54.685 C53.508,54.685 49.009,54.685 49.009,54.685 Z" id="path-2" class="cls-3" fill-rule="evenodd"/>
    <path d="M10.508,42.295 C10.508,42.295 11.937,42.295 11.937,42.295 C12.214,42.295 12.437,42.050 12.437,41.748 C12.437,41.446 12.214,41.201 11.937,41.201 C11.937,41.201 11.871,41.201 11.871,41.201 C11.596,41.201 11.372,40.957 11.372,40.655 C11.372,40.353 11.596,40.108 11.871,40.108 C11.871,40.108 14.946,40.108 14.946,40.108 C15.223,40.108 15.446,39.864 15.446,39.562 C15.446,39.260 15.223,39.016 14.946,39.016 C14.946,39.016 11.251,39.016 11.251,39.016 C11.251,39.016 3.697,39.016 3.697,39.016 C3.421,39.016 3.197,39.260 3.197,39.562 C3.197,39.864 3.421,40.108 3.697,40.108 C3.697,40.108 4.551,40.108 4.551,40.108 C4.826,40.108 5.050,40.353 5.050,40.655 C5.050,40.957 4.826,41.201 4.551,41.201 C4.551,41.201 0.488,41.201 0.488,41.201 C0.213,41.201 -0.011,41.446 -0.011,41.748 C-0.011,42.050 0.213,42.295 0.488,42.295 C0.488,42.295 1.448,42.295 1.448,42.295 C1.448,42.295 10.508,42.295 10.508,42.295 Z" id="path-3" class="cls-3" fill-rule="evenodd"/>
    <path d="M60.989,39.285 C60.989,39.285 48.783,39.285 48.783,39.285 C48.783,39.285 48.783,25.935 48.783,25.935 C48.783,25.935 60.989,25.935 60.989,25.935 C60.989,25.935 60.989,39.285 60.989,39.285 Z" id="path-4" class="cls-6" fill-rule="evenodd"/>
    <path d="M59.205,25.935 C59.205,25.935 59.205,37.505 59.205,37.505 C59.205,37.505 48.783,37.505 48.783,37.505 C48.783,37.505 48.783,39.285 48.783,39.285 C48.783,39.285 60.989,39.285 60.989,39.285 C60.989,39.285 60.989,25.935 60.989,25.935 C60.989,25.935 59.205,25.935 59.205,25.935 Z" id="path-5" class="cls-7" fill-rule="evenodd"/>
    <path d="M32.903,15.498 C32.903,15.498 21.739,15.498 21.739,15.498 C21.739,15.498 15.148,22.075 15.148,22.075 C15.148,22.075 15.148,49.520 15.148,49.520 C15.148,49.520 39.816,49.520 39.816,49.520 C39.816,49.520 39.816,22.398 39.816,22.398 C39.816,22.398 32.903,15.498 32.903,15.498 Z" id="path-6" class="cls-8" fill-rule="evenodd"/>
    <path d="M32.903,15.498 C32.903,15.498 21.739,15.498 21.739,15.498 C21.739,15.498 19.955,17.279 19.955,17.279 C19.955,17.279 29.336,17.279 29.336,17.279 C29.336,17.279 36.249,24.177 36.249,24.177 C36.249,24.177 36.249,49.520 36.249,49.520 C36.249,49.520 39.816,49.520 39.816,49.520 C39.816,49.520 39.816,22.398 39.816,22.398 C39.816,22.398 32.903,15.498 32.903,15.498 Z" id="path-7" class="cls-9" fill-rule="evenodd"/>
    <path d="M54.328,27.825 C53.775,27.825 53.328,27.378 53.328,26.825 C53.328,26.825 53.328,11.584 53.328,11.584 C53.328,6.308 49.026,2.015 43.738,2.015 C43.738,2.015 33.595,2.015 33.595,2.015 C30.642,2.015 28.240,4.411 28.240,7.357 C28.240,7.357 28.240,15.498 28.240,15.498 C28.240,16.051 27.793,16.498 27.240,16.498 C26.687,16.498 26.240,16.051 26.240,15.498 C26.240,15.498 26.240,7.357 26.240,7.357 C26.240,3.309 29.539,0.015 33.595,0.015 C33.595,0.015 43.738,0.015 43.738,0.015 C50.129,0.015 55.328,5.206 55.328,11.584 C55.328,11.584 55.328,26.825 55.328,26.825 C55.328,27.378 54.881,27.825 54.328,27.825 Z" id="path-8" class="cls-10" fill-rule="evenodd"/>
  </g>
</svg>
