<svg xmlns="http://www.w3.org/2000/svg" xmlns:xlink="http://www.w3.org/1999/xlink" preserveAspectRatio="xMidYMid" width="60" height="58" viewBox="0 0 60 58">
  <defs>
    <style>

      .cls-3 {
        fill: #142a3b;
      }

      .cls-5 {
        fill: #fbb713;
      }

      .cls-6 {
        fill: #060606;
        opacity: 0.35;
      }

      .cls-7 {
        fill: #a3770c;
      }

      .cls-9 {
        fill: #ededed;
      }
    </style>
  </defs>
  <g id="group-214svg">
    <path d="M17.100,51.307 C17.100,51.307 12.146,51.307 12.146,51.307 C11.191,51.307 10.417,51.739 10.417,52.271 C10.417,52.804 11.191,53.235 12.146,53.235 C12.146,53.235 12.377,53.235 12.377,53.235 C13.332,53.235 14.106,53.667 14.106,54.199 C14.106,54.731 13.332,55.163 12.377,55.163 C12.377,55.163 1.728,55.163 1.728,55.163 C0.772,55.163 -0.001,55.595 -0.001,56.127 C-0.001,56.660 0.772,57.092 1.728,57.092 C1.728,57.092 14.525,57.092 14.525,57.092 C14.525,57.092 40.683,57.092 40.683,57.092 C41.638,57.092 42.412,56.660 42.412,56.127 C42.412,55.595 41.638,55.163 40.683,55.163 C40.683,55.163 37.727,55.163 37.727,55.163 C36.772,55.163 35.998,54.731 35.998,54.199 C35.998,53.667 36.772,53.235 37.727,53.235 C37.727,53.235 49.335,53.235 49.335,53.235 C50.290,53.235 51.064,52.804 51.064,52.271 C51.064,51.739 50.290,51.307 49.335,51.307 C49.335,51.307 48.469,51.307 48.469,51.307 C48.469,51.307 17.100,51.307 17.100,51.307 Z" id="path-1" class="cls-3" fill-rule="evenodd"/>
    <path d="M48.146,57.039 C47.449,57.039 46.883,56.625 46.883,56.114 C46.883,55.603 47.449,55.189 48.146,55.189 C48.146,55.189 52.019,55.189 52.019,55.189 C52.718,55.189 53.283,55.603 53.283,56.114 C53.283,56.625 52.718,57.039 52.019,57.039 C52.019,57.039 48.146,57.039 48.146,57.039 Z" id="path-2" class="cls-3" fill-rule="evenodd"/>
    <path d="M44.091,-0.003 C44.091,-0.003 41.457,2.630 41.457,2.630 C41.457,2.630 39.231,0.404 39.231,0.404 C39.231,0.404 6.546,33.089 6.546,33.089 C6.546,33.089 8.772,35.315 8.772,35.315 C8.772,35.315 6.139,37.948 6.139,37.948 C6.139,37.948 22.047,53.857 22.047,53.857 C22.047,53.857 24.681,51.223 24.681,51.223 C24.681,51.223 26.906,53.449 26.906,53.449 C26.906,53.449 59.592,20.764 59.592,20.764 C59.592,20.764 57.365,18.538 57.365,18.538 C57.365,18.538 59.999,15.905 59.999,15.905 C59.999,15.905 44.091,-0.003 44.091,-0.003 Z" id="path-3" class="cls-5" fill-rule="evenodd"/>
    <path d="M42.787,1.300 C42.787,1.300 56.741,15.254 56.741,15.254 C56.741,15.254 54.107,17.886 54.107,17.886 C54.107,17.886 56.334,20.113 56.334,20.113 C56.334,20.113 24.951,51.495 24.951,51.495 C24.951,51.495 26.906,53.449 26.906,53.449 C26.906,53.449 59.591,20.764 59.591,20.764 C59.591,20.764 57.365,18.538 57.365,18.538 C57.365,18.538 59.999,15.905 59.999,15.905 C59.999,15.905 44.091,-0.003 44.091,-0.003 C44.091,-0.003 42.787,1.300 42.787,1.300 Z" id="path-4" class="cls-6" fill-rule="evenodd"/>
    <path d="M43.174,12.191 C42.742,12.623 42.741,13.323 43.174,13.755 C43.174,13.755 45.162,15.744 45.162,15.744 C45.162,15.744 43.298,17.609 43.298,17.609 C42.264,17.222 41.057,17.438 40.226,18.269 C39.395,19.100 39.179,20.307 39.565,21.341 C39.565,21.341 38.013,22.894 38.013,22.894 C38.013,22.894 36.023,20.906 36.023,20.906 C35.592,20.474 34.892,20.474 34.459,20.906 C34.027,21.338 34.027,22.038 34.459,22.471 C34.459,22.471 36.447,24.459 36.447,24.459 C36.447,24.459 35.361,25.545 35.361,25.545 C33.967,24.859 32.239,25.081 31.080,26.241 C29.920,27.401 29.698,29.128 30.384,30.523 C30.384,30.523 29.298,31.609 29.298,31.609 C29.298,31.609 27.309,29.620 27.309,29.620 C26.877,29.188 26.177,29.188 25.744,29.620 C25.312,30.053 25.312,30.753 25.744,31.185 C25.744,31.185 27.732,33.174 27.732,33.174 C27.732,33.174 26.085,34.821 26.085,34.821 C25.052,34.435 23.844,34.650 23.013,35.481 C22.182,36.312 21.966,37.520 22.353,38.553 C22.353,38.553 20.583,40.323 20.583,40.323 C20.583,40.323 18.595,38.335 18.595,38.335 C18.162,37.903 17.462,37.903 17.029,38.335 C16.598,38.767 16.598,39.468 17.029,39.900 C17.029,39.900 22.702,45.572 22.702,45.572 C23.134,46.003 23.834,46.003 24.267,45.572 C24.698,45.140 24.698,44.439 24.267,44.007 C24.267,44.007 22.278,42.018 22.278,42.018 C22.278,42.018 24.048,40.249 24.048,40.249 C25.081,40.636 26.289,40.420 27.120,39.589 C27.951,38.757 28.167,37.549 27.780,36.516 C27.780,36.516 29.428,34.869 29.428,34.869 C29.428,34.869 31.416,36.857 31.416,36.857 C31.849,37.290 32.549,37.290 32.981,36.857 C33.413,36.425 33.413,35.725 32.981,35.293 C32.981,35.293 30.992,33.304 30.992,33.304 C30.992,33.304 32.079,32.218 32.079,32.218 C33.474,32.903 35.200,32.682 36.360,31.522 C37.520,30.362 37.742,28.634 37.057,27.240 C37.057,27.240 38.143,26.154 38.143,26.154 C38.143,26.154 40.131,28.142 40.131,28.142 C40.563,28.574 41.264,28.574 41.696,28.142 C42.128,27.710 42.128,27.010 41.696,26.578 C41.696,26.578 39.707,24.589 39.707,24.589 C39.707,24.589 41.260,23.036 41.260,23.036 C42.294,23.423 43.502,23.207 44.333,22.376 C45.164,21.545 45.380,20.337 44.992,19.304 C44.992,19.304 46.857,17.439 46.857,17.439 C46.857,17.439 48.846,19.427 48.846,19.427 C49.278,19.860 49.978,19.860 50.411,19.427 C50.843,18.996 50.843,18.295 50.411,17.863 C50.411,17.863 44.738,12.191 44.738,12.191 C44.307,11.759 43.605,11.759 43.174,12.191 ZM26.072,38.541 C25.517,39.096 24.616,39.096 24.060,38.541 C23.506,37.985 23.506,37.084 24.060,36.529 C24.616,35.974 25.517,35.974 26.072,36.529 C26.628,37.085 26.628,37.985 26.072,38.541 ZM34.856,30.017 C34.228,30.645 33.212,30.645 32.584,30.017 C31.956,29.390 31.956,28.373 32.584,27.745 C33.212,27.117 34.228,27.118 34.856,27.745 C35.483,28.373 35.483,29.390 34.856,30.017 ZM43.284,21.328 C42.729,21.884 41.828,21.884 41.273,21.328 C40.718,20.773 40.718,19.872 41.273,19.317 C41.828,18.762 42.729,18.762 43.285,19.317 C43.840,19.872 43.840,20.773 43.284,21.328 Z" id="path-5" class="cls-7" fill-rule="evenodd"/>
    <path d="M42.522,10.236 C42.090,10.668 42.090,11.369 42.522,11.801 C42.522,11.801 44.511,13.789 44.511,13.789 C44.511,13.789 42.646,15.654 42.646,15.654 C41.612,15.267 40.404,15.483 39.573,16.314 C38.742,17.145 38.526,18.353 38.914,19.386 C38.914,19.386 37.361,20.939 37.361,20.939 C37.361,20.939 35.372,18.951 35.372,18.951 C34.940,18.518 34.239,18.519 33.808,18.951 C33.375,19.383 33.375,20.083 33.808,20.515 C33.808,20.515 35.796,22.504 35.796,22.504 C35.796,22.504 34.710,23.590 34.710,23.590 C33.315,22.905 31.588,23.126 30.428,24.286 C29.268,25.446 29.047,27.174 29.732,28.568 C29.732,28.568 28.646,29.654 28.646,29.654 C28.646,29.654 26.657,27.666 26.657,27.666 C26.226,27.233 25.525,27.233 25.093,27.666 C24.661,28.097 24.660,28.798 25.093,29.230 C25.093,29.230 27.081,31.219 27.081,31.219 C27.081,31.219 25.434,32.866 25.434,32.866 C24.400,32.479 23.192,32.695 22.361,33.526 C21.530,34.357 21.314,35.565 21.701,36.598 C21.701,36.598 19.932,38.369 19.932,38.369 C19.932,38.369 17.942,36.380 17.942,36.380 C17.511,35.948 16.810,35.948 16.378,36.380 C15.946,36.812 15.946,37.513 16.378,37.945 C16.378,37.945 22.051,43.617 22.051,43.617 C22.482,44.049 23.183,44.049 23.615,43.617 C24.047,43.185 24.047,42.485 23.615,42.052 C23.615,42.052 21.627,40.064 21.627,40.064 C21.627,40.064 23.396,38.294 23.396,38.294 C24.430,38.680 25.638,38.465 26.469,37.634 C27.300,36.802 27.516,35.594 27.129,34.561 C27.129,34.561 28.776,32.914 28.776,32.914 C28.776,32.914 30.765,34.903 30.765,34.903 C31.197,35.335 31.897,35.335 32.330,34.903 C32.762,34.470 32.762,33.770 32.330,33.338 C32.330,33.338 30.341,31.349 30.341,31.349 C30.341,31.349 31.428,30.264 31.428,30.264 C32.821,30.949 34.549,30.727 35.709,29.567 C36.869,28.407 37.091,26.680 36.405,25.285 C36.405,25.285 37.491,24.199 37.491,24.199 C37.491,24.199 39.479,26.188 39.479,26.188 C39.912,26.620 40.612,26.620 41.045,26.188 C41.476,25.756 41.476,25.055 41.045,24.623 C41.045,24.623 39.056,22.635 39.056,22.635 C39.056,22.635 40.608,21.082 40.608,21.082 C41.643,21.468 42.850,21.253 43.681,20.421 C44.512,19.591 44.727,18.382 44.341,17.350 C44.341,17.350 46.206,15.485 46.206,15.485 C46.206,15.485 48.194,17.473 48.194,17.473 C48.627,17.905 49.327,17.905 49.759,17.473 C50.191,17.041 50.191,16.340 49.759,15.908 C49.759,15.908 44.087,10.236 44.087,10.236 C43.655,9.804 42.954,9.804 42.522,10.236 ZM25.421,36.586 C24.865,37.141 23.965,37.141 23.409,36.586 C22.853,36.030 22.853,35.130 23.409,34.574 C23.965,34.019 24.865,34.019 25.421,34.574 C25.977,35.130 25.977,36.031 25.421,36.586 ZM34.205,28.063 C33.577,28.690 32.560,28.690 31.933,28.063 C31.305,27.435 31.305,26.418 31.933,25.791 C32.560,25.163 33.577,25.163 34.205,25.791 C34.832,26.418 34.832,27.435 34.205,28.063 ZM42.633,19.374 C42.077,19.930 41.177,19.930 40.621,19.374 C40.066,18.818 40.066,17.918 40.621,17.362 C41.177,16.806 42.077,16.806 42.633,17.362 C43.188,17.918 43.188,18.818 42.633,19.374 Z" id="path-6" class="cls-3" fill-rule="evenodd"/>
    <path d="M13.766,31.322 C13.510,31.322 13.254,31.224 13.059,31.029 C12.668,30.638 12.668,30.005 13.059,29.615 C13.059,29.615 36.514,6.159 36.514,6.159 C36.904,5.769 37.537,5.769 37.928,6.159 C38.318,6.550 38.318,7.183 37.928,7.574 C37.928,7.574 14.473,31.029 14.473,31.029 C14.277,31.224 14.021,31.322 13.766,31.322 Z" id="path-7" class="cls-9" fill-rule="evenodd"/>
  </g>
</svg>
