<svg xmlns="http://www.w3.org/2000/svg" xmlns:xlink="http://www.w3.org/1999/xlink" preserveAspectRatio="xMidYMid" width="60" height="32" viewBox="0 0 60 32">
  <defs>
    <style>

      .cls-3 {
        fill: #2476ff;
      }

      .cls-4 {
        fill: #020403;
        opacity: 0.25;
      }

      .cls-5 {
        fill: #ffffff;
      }

      .cls-6 {
        fill: #142a3b;
      }
    </style>
  </defs>
  <g id="group-89svg">
    <path d="M47.522,17.892 C47.702,16.093 47.580,14.197 47.080,12.254 C45.368,5.612 39.555,0.645 32.721,0.063 C25.765,-0.530 19.640,3.254 16.751,8.956 C14.653,7.300 11.905,6.426 8.945,6.817 C4.540,7.396 0.929,10.852 0.150,15.225 C-0.002,16.079 -0.046,16.930 0.004,17.741 C0.146,20.001 2.063,21.756 4.327,21.756 C4.327,21.756 43.216,21.756 43.216,21.756 C45.421,21.756 47.304,20.087 47.522,17.892 Z" id="path-1" class="cls-3" fill-rule="evenodd"/>
    <path d="M47.080,12.254 C45.652,6.712 41.365,2.348 36.016,0.712 C37.534,2.533 38.676,4.686 39.288,7.059 C39.789,9.003 39.910,10.899 39.730,12.698 C39.512,14.892 37.629,16.561 35.424,16.561 C35.424,16.561 0.001,16.561 0.001,16.561 C-0.019,16.961 -0.020,17.356 0.004,17.741 C0.146,20.000 2.063,21.756 4.327,21.756 C4.327,21.756 43.216,21.756 43.216,21.756 C45.421,21.756 47.304,20.087 47.522,17.892 C47.702,16.093 47.580,14.197 47.080,12.254 Z" id="path-2" class="cls-4" fill-rule="evenodd"/>
    <path d="M21.138,10.334 C21.021,10.334 20.903,10.314 20.788,10.270 C20.270,10.077 20.008,9.501 20.202,8.984 C21.808,4.688 26.110,1.927 30.691,2.266 C31.242,2.307 31.655,2.787 31.614,3.337 C31.573,3.888 31.098,4.294 30.543,4.260 C26.856,3.985 23.372,6.217 22.075,9.684 C21.924,10.086 21.543,10.334 21.138,10.334 Z" id="path-3" class="cls-5" fill-rule="evenodd"/>
    <path d="M52.034,12.842 C52.034,12.842 54.764,12.842 54.764,12.842 C55.474,12.842 56.049,13.313 56.049,13.895 C56.049,14.478 55.474,14.950 54.764,14.950 C54.764,14.950 54.592,14.950 54.592,14.950 C53.882,14.950 54.259,15.422 54.259,16.004 C54.259,16.587 54.835,17.058 55.544,17.058 C55.544,17.058 58.699,17.058 58.699,17.058 C59.409,17.058 59.984,17.531 59.984,18.113 C59.984,18.695 59.409,19.167 58.699,19.167 C58.699,19.167 53.948,19.167 53.948,19.167 C53.948,19.167 34.504,19.167 34.504,19.167 C33.794,19.167 33.219,18.695 33.219,18.113 C33.219,17.531 33.794,17.058 34.504,17.058 C34.504,17.058 36.701,17.058 36.701,17.058 C37.411,17.058 37.986,16.587 37.986,16.004 C37.986,15.422 37.411,14.950 36.701,14.950 C36.701,14.950 26.246,14.950 26.246,14.950 C25.536,14.950 24.960,14.478 24.960,13.895 C24.960,13.313 25.536,12.842 26.246,12.842 C26.246,12.842 28.717,12.842 28.717,12.842 C28.717,12.842 52.034,12.842 52.034,12.842 Z" id="path-4" class="cls-6" fill-rule="evenodd"/>
    <path d="M53.328,6.727 C54.480,6.727 55.414,6.248 55.414,5.659 C55.414,5.069 54.480,4.591 53.328,4.591 C53.328,4.591 46.938,4.591 46.938,4.591 C45.787,4.591 44.853,5.069 44.853,5.659 C44.853,6.248 45.787,6.727 46.938,6.727 C46.938,6.727 53.328,6.727 53.328,6.727 Z" id="path-5" class="cls-6" fill-rule="evenodd"/>
    <path d="M17.115,29.147 C17.115,29.147 18.270,29.147 18.270,29.147 C18.492,29.147 18.673,29.373 18.673,29.651 C18.673,29.930 18.492,30.156 18.270,30.156 C18.270,30.156 18.216,30.156 18.216,30.156 C17.993,30.156 17.812,30.382 17.812,30.660 C17.812,30.939 17.993,31.165 18.216,31.165 C18.216,31.165 20.699,31.165 20.699,31.165 C20.921,31.165 21.102,31.391 21.102,31.669 C21.102,31.948 20.921,32.174 20.699,32.174 C20.699,32.174 17.715,32.174 17.715,32.174 C17.715,32.174 11.616,32.174 11.616,32.174 C11.394,32.174 11.213,31.948 11.213,31.669 C11.213,31.391 11.394,31.165 11.616,31.165 C11.616,31.165 12.305,31.165 12.305,31.165 C12.528,31.165 12.708,30.939 12.708,30.660 C12.708,30.382 12.528,30.156 12.305,30.156 C12.305,30.156 9.026,30.156 9.026,30.156 C8.803,30.156 8.623,29.930 8.623,29.651 C8.623,29.373 8.803,29.147 9.026,29.147 C9.026,29.147 9.801,29.147 9.801,29.147 C9.801,29.147 17.115,29.147 17.115,29.147 Z" id="path-6" class="cls-6" fill-rule="evenodd"/>
    <path d="M38.960,29.633 C40.111,29.633 41.045,29.155 41.045,28.565 C41.045,27.975 40.111,27.497 38.960,27.497 C38.960,27.497 32.570,27.497 32.570,27.497 C31.418,27.497 30.484,27.975 30.484,28.565 C30.484,29.155 31.418,29.633 32.570,29.633 C32.570,29.633 38.960,29.633 38.960,29.633 Z" id="path-7" class="cls-6" fill-rule="evenodd"/>
  </g>
</svg>
