<svg xmlns="http://www.w3.org/2000/svg" xmlns:xlink="http://www.w3.org/1999/xlink" preserveAspectRatio="xMidYMid" width="56" height="60" viewBox="0 0 56 60">
  <defs>
    <style>

      .cls-3 {
        fill: #fbb713;
      }

      .cls-4 {
        fill: #3e66a5;
        opacity: 0.3;
      }

      .cls-5 {
        fill: #3e66a5;
      }

      .cls-8 {
        fill: #ff3a2f;
      }

      .cls-12 {
        fill: #142a3b;
      }
    </style>
  </defs>
  <g id="group-180svg">
    <path d="M47.981,13.564 C47.981,21.064 41.903,27.143 34.405,27.143 C26.907,27.143 20.829,21.064 20.829,13.564 C20.829,6.067 26.907,-0.011 34.405,-0.011 C41.903,-0.011 47.981,6.067 47.981,13.564 Z" id="path-1" class="cls-3" fill-rule="evenodd"/>
    <path d="M34.405,25.662 C27.146,25.662 21.235,19.960 20.865,12.791 C20.852,13.026 20.829,13.258 20.829,13.497 C20.829,20.997 26.907,27.075 34.405,27.075 C41.903,27.075 47.981,20.997 47.981,13.497 C47.981,13.258 47.957,13.026 47.945,12.791 C47.575,19.960 41.664,25.662 34.405,25.662 Z" id="path-2" class="cls-4" fill-rule="evenodd"/>
    <path d="M53.107,29.357 C53.107,29.357 43.009,34.639 43.009,34.639 C40.292,36.046 36.948,34.985 35.540,32.267 C35.450,32.093 35.372,31.916 35.301,31.738 C35.030,31.785 34.752,31.814 34.469,31.814 C34.183,31.814 33.907,31.785 33.635,31.737 C33.564,31.916 33.485,32.093 33.395,32.267 C31.987,34.985 28.642,36.046 25.926,34.639 C25.926,34.639 15.829,29.357 15.829,29.357 C14.155,28.491 13.114,26.889 12.886,25.154 C12.602,27.393 13.707,29.671 15.829,30.770 C15.829,30.770 25.926,36.052 25.926,36.052 C28.642,37.459 31.987,36.398 33.395,33.680 C33.485,33.506 33.564,33.329 33.635,33.150 C33.907,33.198 34.183,33.227 34.469,33.227 C34.752,33.227 35.030,33.198 35.301,33.150 C35.372,33.329 35.450,33.506 35.540,33.680 C36.948,36.398 40.292,37.459 43.009,36.052 C43.009,36.052 53.107,30.770 53.107,30.770 C55.228,29.671 56.332,27.392 56.049,25.153 C55.822,26.889 54.779,28.491 53.107,29.357 Z" id="path-3" class="cls-5" fill-rule="evenodd"/>
    <path d="M43.772,35.684 C43.772,35.684 53.107,30.802 53.107,30.802 C55.824,29.393 56.885,26.049 55.477,23.332 C54.070,20.615 50.725,19.553 48.007,20.962 C48.007,20.962 38.450,25.961 38.450,25.961 C37.606,24.653 36.140,23.785 34.469,23.785 C32.796,23.785 31.329,24.653 30.487,25.962 C30.487,25.962 20.929,20.962 20.929,20.962 C18.210,19.553 14.866,20.615 13.459,23.332 C12.050,26.049 13.110,29.393 15.829,30.802 C15.829,30.802 25.163,35.684 25.163,35.684 C25.163,35.684 15.416,46.547 15.416,46.547 C13.260,48.935 13.448,52.621 15.838,54.778 C18.227,56.934 21.912,56.747 24.068,54.357 C24.068,54.357 31.240,45.441 34.469,45.441 C37.697,45.441 44.869,54.357 44.869,54.357 C47.025,56.747 50.709,56.934 53.099,54.778 C55.489,52.621 55.676,48.935 53.520,46.547 C53.520,46.547 43.772,35.684 43.772,35.684 Z" id="path-4" class="cls-3" fill-rule="evenodd"/>
    <path d="M53.099,53.334 C50.709,55.490 47.025,55.302 44.869,52.913 C44.869,52.913 37.697,43.997 34.469,43.997 C31.240,43.997 24.068,52.913 24.068,52.913 C21.912,55.302 18.227,55.490 15.838,53.334 C14.750,52.352 14.124,51.055 13.962,49.707 C13.739,51.527 14.373,53.423 15.838,54.746 C18.227,56.903 21.912,56.715 24.068,54.325 C24.068,54.325 31.240,45.409 34.469,45.409 C37.697,45.409 44.869,54.325 44.869,54.325 C47.025,56.715 50.709,56.903 53.099,54.746 C54.563,53.423 55.197,51.527 54.974,49.707 C54.812,51.055 54.186,52.352 53.099,53.334 Z" id="path-5" class="cls-4" fill-rule="evenodd"/>
    <path d="M25.844,52.241 C26.191,51.850 26.578,51.424 26.989,50.983 C24.269,46.100 20.030,44.695 17.391,44.315 C17.391,44.315 16.073,45.782 16.073,45.782 C18.097,45.851 23.000,46.625 25.844,52.241 Z" id="path-6" class="cls-8" fill-rule="evenodd"/>
    <path d="M43.093,52.242 C45.937,46.627 50.838,45.849 52.862,45.781 C52.862,45.781 51.546,44.315 51.546,44.315 C48.907,44.695 44.668,46.100 41.948,50.983 C42.358,51.424 42.746,51.850 43.093,52.242 Z" id="path-7" class="cls-8" fill-rule="evenodd"/>
    <path d="M22.874,21.947 C22.728,24.105 21.777,28.518 16.698,31.224 C16.698,31.224 18.375,32.101 18.375,32.101 C22.808,29.316 24.055,25.236 24.382,22.736 C24.382,22.736 22.874,21.947 22.874,21.947 Z" id="path-8" class="cls-8" fill-rule="evenodd"/>
    <path d="M46.063,21.946 C46.063,21.946 44.555,22.735 44.555,22.735 C44.882,25.236 46.128,29.315 50.561,32.101 C50.561,32.101 52.239,31.224 52.239,31.224 C47.159,28.517 46.208,24.104 46.063,21.946 Z" id="path-9" class="cls-8" fill-rule="evenodd"/>
    <path d="M30.406,13.186 C30.406,14.071 29.687,14.790 28.802,14.790 C27.916,14.790 27.198,14.071 27.198,13.186 C27.198,12.298 27.916,11.582 28.802,11.582 C29.687,11.582 30.406,12.298 30.406,13.186 Z" id="path-10" class="cls-12" fill-rule="evenodd"/>
    <path d="M41.107,13.186 C41.107,14.071 40.389,14.790 39.503,14.790 C38.618,14.790 37.899,14.071 37.899,13.186 C37.899,12.298 38.618,11.582 39.503,11.582 C40.389,11.582 41.107,12.298 41.107,13.186 Z" id="path-11" class="cls-12" fill-rule="evenodd"/>
    <path d="M35.877,32.051 C35.877,32.856 35.224,33.509 34.419,33.509 C33.614,33.509 32.962,32.856 32.962,32.051 C32.962,31.245 33.614,30.591 34.419,30.591 C35.224,30.591 35.877,31.245 35.877,32.051 Z" id="path-12" class="cls-12" fill-rule="evenodd"/>
    <path d="M35.877,37.401 C35.877,38.207 35.224,38.859 34.419,38.859 C33.614,38.859 32.962,38.207 32.962,37.401 C32.962,36.596 33.614,35.943 34.419,35.943 C35.224,35.943 35.877,36.596 35.877,37.401 Z" id="path-13" class="cls-12" fill-rule="evenodd"/>
    <path d="M34.405,20.049 C32.118,20.049 30.455,18.416 30.386,18.346 C30.072,18.033 30.072,17.524 30.386,17.211 C30.699,16.897 31.206,16.897 31.520,17.209 C31.549,17.237 32.806,18.446 34.405,18.446 C36.015,18.446 37.278,17.221 37.290,17.209 C37.606,16.899 38.113,16.899 38.424,17.214 C38.736,17.527 38.736,18.033 38.423,18.346 C38.354,18.416 36.691,20.049 34.405,20.049 Z" id="path-14" class="cls-12" fill-rule="evenodd"/>
    <path d="M35.686,55.316 C35.686,55.316 40.654,55.316 40.654,55.316 C41.612,55.316 42.389,55.665 42.389,56.094 C42.389,56.525 41.612,56.874 40.654,56.874 C40.654,56.874 40.423,56.874 40.423,56.874 C39.465,56.874 38.688,57.223 38.688,57.652 C38.688,58.082 39.465,58.431 40.423,58.431 C40.423,58.431 51.103,58.431 51.103,58.431 C52.060,58.431 52.837,58.780 52.837,59.210 C52.837,59.640 52.060,59.988 51.103,59.988 C51.103,59.988 38.268,59.988 38.268,59.988 C38.268,59.988 24.162,59.988 24.162,59.988 C23.204,59.988 22.428,59.640 22.428,59.210 C22.428,58.780 23.204,58.431 24.162,58.431 C24.162,58.431 27.126,58.431 27.126,58.431 C28.084,58.431 28.860,58.082 28.860,57.652 C28.860,57.223 28.084,56.874 27.126,56.874 C27.126,56.874 13.019,56.874 13.019,56.874 C12.062,56.874 11.285,56.525 11.285,56.094 C11.285,55.665 12.062,55.316 13.019,55.316 C13.019,55.316 16.354,55.316 16.354,55.316 C16.354,55.316 35.686,55.316 35.686,55.316 Z" id="path-15" class="cls-8" fill-rule="evenodd"/>
    <path d="M10.369,43.688 C11.347,43.688 12.140,43.333 12.140,42.894 C12.140,42.455 11.347,42.099 10.369,42.099 C10.369,42.099 4.944,42.099 4.944,42.099 C3.967,42.099 3.174,42.455 3.174,42.894 C3.174,43.333 3.967,43.688 4.944,43.688 C4.944,43.688 10.369,43.688 10.369,43.688 Z" id="path-16" class="cls-8" fill-rule="evenodd"/>
    <path d="M11.391,34.631 C11.391,34.631 12.941,34.631 12.941,34.631 C13.240,34.631 13.482,34.807 13.482,35.025 C13.482,35.243 13.240,35.420 12.941,35.420 C12.941,35.420 12.869,35.420 12.869,35.420 C12.570,35.420 12.328,35.597 12.328,35.815 C12.328,36.033 12.570,36.210 12.869,36.210 C12.869,36.210 16.201,36.210 16.201,36.210 C16.500,36.210 16.742,36.386 16.742,36.605 C16.742,36.823 16.500,37.000 16.201,37.000 C16.201,37.000 12.197,37.000 12.197,37.000 C12.197,37.000 4.011,37.000 4.011,37.000 C3.713,37.000 3.470,36.823 3.470,36.605 C3.470,36.386 3.713,36.210 4.011,36.210 C4.011,36.210 4.936,36.210 4.936,36.210 C5.235,36.210 5.477,36.033 5.477,35.815 C5.477,35.597 5.235,35.420 4.936,35.420 C4.936,35.420 0.535,35.420 0.535,35.420 C0.236,35.420 -0.006,35.243 -0.006,35.025 C-0.006,34.807 0.236,34.631 0.535,34.631 C0.535,34.631 1.575,34.631 1.575,34.631 C1.575,34.631 11.391,34.631 11.391,34.631 Z" id="path-17" class="cls-8" fill-rule="evenodd"/>
    <path d="M9.190,59.639 C10.284,59.639 11.170,59.241 11.170,58.750 C11.170,58.259 10.284,57.861 9.190,57.861 C9.190,57.861 3.122,57.861 3.122,57.861 C2.028,57.861 1.141,58.259 1.141,58.750 C1.141,59.241 2.028,59.639 3.122,59.639 C3.122,59.639 9.190,59.639 9.190,59.639 Z" id="path-18" class="cls-8" fill-rule="evenodd"/>
  </g>
</svg>
