<svg xmlns="http://www.w3.org/2000/svg" xmlns:xlink="http://www.w3.org/1999/xlink" preserveAspectRatio="xMidYMid" width="60" height="53" viewBox="0 0 60 53">
  <defs>
    <style>

      .cls-3 {
        fill: #2476ff;
      }

      .cls-4 {
        fill: #020403;
        opacity: 0.25;
      }

      .cls-5 {
        fill: #020403;
        opacity: 0.35;
      }

      .cls-6 {
        fill: #fbb713;
      }

      .cls-8 {
        fill: #ff3a2f;
      }
    </style>
  </defs>
  <g id="group-44svg">
    <path d="M48.099,7.789 C58.234,17.926 58.234,34.418 48.099,44.555 C37.962,54.691 21.470,54.691 11.333,44.555 C10.567,43.789 9.812,42.911 9.024,41.869 C8.771,41.534 8.723,41.089 8.895,40.708 C9.070,40.329 9.438,40.074 9.854,40.045 C15.586,39.656 20.966,37.218 25.004,33.179 C33.340,24.843 34.246,11.474 27.108,2.081 C26.853,1.748 26.805,1.303 26.978,0.922 C27.150,0.538 27.519,0.284 27.937,0.255 C35.452,-0.253 42.802,2.493 48.099,7.789 Z" id="path-1" class="cls-3" fill-rule="evenodd"/>
    <path d="M48.099,7.789 C47.270,6.962 46.389,6.205 45.468,5.505 C54.242,15.707 53.803,31.152 44.135,40.820 C37.068,47.887 26.329,51.851 17.391,49.065 C20.873,51.124 25.561,51.826 27.082,52.021 C34.587,52.779 42.360,50.292 48.099,44.555 C58.234,34.418 58.234,17.926 48.099,7.789 Z" id="path-2" class="cls-4" fill-rule="evenodd"/>
    <path d="M54.835,32.823 C55.085,31.872 55.286,30.911 55.427,29.943 C55.427,29.943 46.791,29.943 46.791,29.943 C45.408,29.943 44.287,29.298 44.287,28.503 C44.287,27.707 45.408,27.062 46.791,27.062 C46.791,27.062 47.125,27.062 47.125,27.062 C48.508,27.062 49.630,26.418 49.630,25.622 C49.630,24.827 48.508,24.182 47.125,24.182 C47.125,24.182 39.951,24.182 39.951,24.182 C39.951,24.182 30.617,24.182 30.617,24.182 C30.236,25.289 29.755,26.364 29.209,27.412 C29.747,27.676 30.095,28.064 30.095,28.503 C30.095,29.275 29.033,29.901 27.704,29.936 C27.003,30.950 26.204,31.911 25.329,32.823 C25.329,32.823 43.680,32.823 43.680,32.823 C43.680,32.823 54.835,32.823 54.835,32.823 Z" id="path-3" class="cls-5" fill-rule="evenodd"/>
    <path d="M25.260,36.899 C27.417,36.899 29.167,36.524 29.167,36.060 C29.167,35.596 27.417,35.221 25.260,35.221 C25.260,35.221 13.285,35.221 13.285,35.221 C11.126,35.221 9.377,35.596 9.377,36.060 C9.377,36.524 11.126,36.899 13.285,36.899 C13.285,36.899 25.260,36.899 25.260,36.899 Z" id="path-4" class="cls-6" fill-rule="evenodd"/>
    <path d="M15.756,4.596 C16.659,4.596 17.391,4.381 17.391,4.115 C17.391,3.849 16.659,3.634 15.756,3.634 C15.756,3.634 10.745,3.634 10.745,3.634 C9.842,3.634 9.110,3.849 9.110,4.115 C9.110,4.381 9.842,4.596 10.745,4.596 C10.745,4.596 15.756,4.596 15.756,4.596 Z" id="path-5" class="cls-3" fill-rule="evenodd"/>
    <path d="M33.772,12.713 C33.772,12.713 37.424,12.713 37.424,12.713 C38.128,12.713 38.699,12.993 38.699,13.338 C38.699,13.684 38.128,13.964 37.424,13.964 C37.424,13.964 37.254,13.964 37.254,13.964 C36.550,13.964 35.979,14.244 35.979,14.590 C35.979,14.935 36.550,15.215 37.254,15.215 C37.254,15.215 45.104,15.215 45.104,15.215 C45.809,15.215 46.379,15.495 46.379,15.841 C46.379,16.186 45.809,16.466 45.104,16.466 C45.104,16.466 35.670,16.466 35.670,16.466 C35.670,16.466 25.302,16.466 25.302,16.466 C24.598,16.466 24.026,16.186 24.026,15.841 C24.026,15.495 24.598,15.215 25.302,15.215 C25.302,15.215 27.480,15.215 27.480,15.215 C28.184,15.215 28.755,14.935 28.755,14.590 C28.755,14.244 28.184,13.964 27.480,13.964 C27.480,13.964 17.112,13.964 17.112,13.964 C16.408,13.964 15.837,13.684 15.837,13.338 C15.837,12.993 16.408,12.713 17.112,12.713 C17.112,12.713 19.562,12.713 19.562,12.713 C19.562,12.713 33.772,12.713 33.772,12.713 Z" id="path-6" class="cls-8" fill-rule="evenodd"/>
    <path d="M53.909,-0.001 C53.909,-0.001 55.221,-0.001 55.221,-0.001 C55.474,-0.001 55.679,0.206 55.679,0.460 C55.679,0.715 55.474,0.921 55.221,0.921 C55.221,0.921 55.159,0.921 55.159,0.921 C54.906,0.921 54.702,1.127 54.702,1.382 C54.702,1.636 54.906,1.843 55.159,1.843 C55.159,1.843 57.978,1.843 57.978,1.843 C58.231,1.843 58.436,2.049 58.436,2.303 C58.436,2.558 58.231,2.765 57.978,2.765 C57.978,2.765 54.591,2.765 54.591,2.765 C54.591,2.765 50.867,2.765 50.867,2.765 C50.614,2.765 50.409,2.558 50.409,2.303 C50.409,2.049 50.614,1.843 50.867,1.843 C50.867,1.843 51.649,1.843 51.649,1.843 C51.902,1.843 52.107,1.636 52.107,1.382 C52.107,1.127 51.902,0.921 51.649,0.921 C51.649,0.921 47.926,0.921 47.926,0.921 C47.673,0.921 47.469,0.715 47.469,0.460 C47.469,0.206 47.673,-0.001 47.926,-0.001 C47.926,-0.001 48.806,-0.001 48.806,-0.001 C48.806,-0.001 53.909,-0.001 53.909,-0.001 Z" id="path-7" class="cls-8" fill-rule="evenodd"/>
    <path d="M35.225,21.346 C35.225,21.346 42.398,21.346 42.398,21.346 C43.781,21.346 44.902,21.991 44.902,22.787 C44.902,23.582 43.781,24.226 42.398,24.226 C42.398,24.226 42.064,24.226 42.064,24.226 C40.682,24.226 39.559,24.871 39.559,25.666 C39.559,26.462 40.682,27.107 42.064,27.107 C42.064,27.107 57.485,27.107 57.485,27.107 C58.869,27.107 59.990,27.751 59.990,28.546 C59.990,29.342 58.869,29.987 57.485,29.987 C57.485,29.987 38.953,29.987 38.953,29.987 C38.953,29.987 18.584,29.987 18.584,29.987 C17.201,29.987 16.080,29.342 16.080,28.546 C16.080,27.751 17.201,27.107 18.584,27.107 C18.584,27.107 22.864,27.107 22.864,27.107 C24.247,27.107 25.368,26.462 25.368,25.666 C25.368,24.871 24.247,24.226 22.864,24.226 C22.864,24.226 2.495,24.226 2.495,24.226 C1.111,24.226 -0.010,23.582 -0.010,22.787 C-0.010,21.991 1.111,21.346 2.495,21.346 C2.495,21.346 7.309,21.346 7.309,21.346 C7.309,21.346 35.225,21.346 35.225,21.346 Z" id="path-8" class="cls-6" fill-rule="evenodd"/>
  </g>
</svg>
