<svg xmlns="http://www.w3.org/2000/svg" xmlns:xlink="http://www.w3.org/1999/xlink" preserveAspectRatio="xMidYMid" width="61" height="55" viewBox="0 0 61 55">
  <defs>
    <style>

      .cls-3 {
        fill: #fbb713;
      }

      .cls-4 {
        fill: #142a3b;
      }

      .cls-5 {
        fill: #ff3a2f;
      }

      .cls-6 {
        fill: #010101;
        opacity: 0.35;
      }

      .cls-12 {
        fill: #010101;
        opacity: 0.25;
      }
    </style>
  </defs>
  <g id="group-121svg">
    <path d="M5.029,16.113 C5.029,16.113 5.029,45.475 5.029,45.475 C5.029,47.337 6.677,48.849 8.711,48.849 C8.711,48.849 47.361,48.849 47.361,48.849 C49.395,48.849 51.044,47.337 51.044,45.475 C51.044,45.475 51.044,16.113 51.044,16.113 C51.044,16.113 5.029,16.113 5.029,16.113 Z" id="path-1" class="cls-3" fill-rule="evenodd"/>
    <path d="M35.651,29.396 C35.651,29.396 20.421,29.396 20.421,29.396 C20.421,29.396 20.421,48.849 20.421,48.849 C20.421,48.849 35.651,48.849 35.651,48.849 C35.651,48.849 35.651,29.396 35.651,29.396 Z" id="path-2" class="cls-4" fill-rule="evenodd"/>
    <path d="M6.377,0.004 C6.377,0.004 -0.013,12.255 -0.013,12.255 C-0.013,14.385 1.098,16.113 2.464,16.113 C2.464,16.113 53.661,16.113 53.661,16.113 C55.028,16.113 56.137,14.385 56.137,12.255 C56.137,12.255 49.747,0.004 49.747,0.004 C49.747,0.004 6.377,0.004 6.377,0.004 Z" id="path-3" class="cls-5" fill-rule="evenodd"/>
    <path d="M20.421,29.396 C20.421,29.396 20.421,31.865 20.421,31.865 C20.421,31.865 30.714,31.865 30.714,31.865 C30.714,31.865 30.714,48.849 30.714,48.849 C30.714,48.849 35.651,48.849 35.651,48.849 C35.651,48.849 35.651,29.396 35.651,29.396 C35.651,29.396 20.421,29.396 20.421,29.396 Z" id="path-4" class="cls-6" fill-rule="evenodd"/>
    <path d="M5.412,15.760 C5.286,15.760 5.158,15.737 5.035,15.686 C4.523,15.478 4.277,14.895 4.486,14.383 C4.486,14.383 9.895,1.107 9.895,1.107 C10.101,0.595 10.687,0.350 11.197,0.559 C11.709,0.766 11.955,1.350 11.746,1.862 C11.746,1.862 6.338,15.137 6.338,15.137 C6.181,15.526 5.807,15.760 5.412,15.760 Z" id="path-5" class="cls-4" fill-rule="evenodd"/>
    <path d="M16.962,15.760 C16.890,15.760 16.815,15.753 16.741,15.736 C16.203,15.615 15.864,15.080 15.985,14.541 C15.985,14.541 18.970,1.265 18.970,1.265 C19.091,0.726 19.620,0.386 20.165,0.509 C20.703,0.630 21.042,1.165 20.921,1.703 C20.921,1.703 17.936,14.980 17.936,14.980 C17.832,15.444 17.419,15.760 16.962,15.760 Z" id="path-6" class="cls-4" fill-rule="evenodd"/>
    <path d="M50.548,15.760 C50.168,15.760 49.806,15.544 49.638,15.177 C49.638,15.177 43.557,1.901 43.557,1.901 C43.326,1.399 43.547,0.805 44.050,0.575 C44.553,0.343 45.144,0.566 45.375,1.067 C45.375,1.067 51.456,14.344 51.456,14.344 C51.686,14.846 51.466,15.440 50.963,15.670 C50.828,15.731 50.686,15.760 50.548,15.760 Z" id="path-7" class="cls-4" fill-rule="evenodd"/>
    <path d="M39.144,15.760 C38.692,15.760 38.282,15.453 38.172,14.994 C38.172,14.994 34.980,1.718 34.980,1.718 C34.852,1.181 35.183,0.641 35.720,0.512 C36.255,0.384 36.797,0.714 36.926,1.251 C36.926,1.251 40.117,14.527 40.117,14.527 C40.246,15.064 39.915,15.604 39.378,15.733 C39.300,15.752 39.221,15.760 39.144,15.760 Z" id="path-8" class="cls-4" fill-rule="evenodd"/>
    <path d="M28.063,15.760 C27.511,15.760 27.063,15.313 27.063,14.760 C27.063,14.760 27.063,1.484 27.063,1.484 C27.063,0.932 27.511,0.484 28.063,0.484 C28.616,0.484 29.063,0.932 29.063,1.484 C29.063,1.484 29.063,14.760 29.063,14.760 C29.063,15.313 28.616,15.760 28.063,15.760 Z" id="path-9" class="cls-4" fill-rule="evenodd"/>
    <path d="M2.464,16.113 C2.464,16.113 53.661,16.113 53.661,16.113 C55.029,16.113 56.137,14.385 56.137,12.255 C56.137,12.255 -0.013,12.255 -0.013,12.255 C-0.013,14.385 1.098,16.113 2.464,16.113 Z" id="path-10" class="cls-12" fill-rule="evenodd"/>
    <path d="M51.044,22.553 C51.044,22.553 5.029,20.084 5.029,20.084 C5.029,20.084 5.029,16.113 5.029,16.113 C5.029,16.113 51.044,16.113 51.044,16.113 C51.044,16.113 51.044,22.553 51.044,22.553 Z" id="path-11" class="cls-6" fill-rule="evenodd"/>
    <path d="M55.936,43.790 C56.831,43.790 57.556,43.465 57.556,43.063 C57.556,42.662 56.831,42.337 55.936,42.337 C55.936,42.337 50.976,42.337 50.976,42.337 C50.082,42.337 49.357,42.662 49.357,43.063 C49.357,43.465 50.082,43.790 50.976,43.790 C50.976,43.790 55.936,43.790 55.936,43.790 Z" id="path-12" class="cls-4" fill-rule="evenodd"/>
    <path d="M58.368,54.413 C59.263,54.413 59.987,54.087 59.987,53.686 C59.987,53.284 59.263,52.959 58.368,52.959 C58.368,52.959 53.408,52.959 53.408,52.959 C52.514,52.959 51.789,53.284 51.789,53.686 C51.789,54.087 52.514,54.413 53.408,54.413 C53.408,54.413 58.368,54.413 58.368,54.413 Z" id="path-13" class="cls-4" fill-rule="evenodd"/>
    <path d="M24.893,48.889 C24.893,48.889 19.895,48.889 19.895,48.889 C18.932,48.889 18.151,49.336 18.151,49.888 C18.151,50.439 18.932,50.887 19.895,50.887 C19.895,50.887 20.128,50.887 20.128,50.887 C21.092,50.887 21.873,51.334 21.873,51.886 C21.873,52.438 21.092,52.885 20.128,52.885 C20.128,52.885 9.385,52.885 9.385,52.885 C8.422,52.885 7.641,53.332 7.641,53.884 C7.641,54.436 8.422,54.883 9.385,54.883 C9.385,54.883 22.296,54.883 22.296,54.883 C22.296,54.883 48.685,54.883 48.685,54.883 C49.648,54.883 50.430,54.436 50.430,53.884 C50.430,53.332 49.648,52.885 48.685,52.885 C48.685,52.885 45.703,52.885 45.703,52.885 C44.739,52.885 43.958,52.438 43.958,51.886 C43.958,51.334 44.739,50.887 45.703,50.887 C45.703,50.887 57.413,50.887 57.413,50.887 C58.377,50.887 59.158,50.439 59.158,49.888 C59.158,49.336 58.377,48.889 57.413,48.889 C57.413,48.889 56.539,48.889 56.539,48.889 C56.539,48.889 24.893,48.889 24.893,48.889 Z" id="path-14" class="cls-4" fill-rule="evenodd"/>
  </g>
</svg>
