<svg xmlns="http://www.w3.org/2000/svg" xmlns:xlink="http://www.w3.org/1999/xlink" preserveAspectRatio="xMidYMid" width="51" height="51" viewBox="0 0 51 51">
  <defs>
    <style>

      .cls-3 {
        fill: #2476ff;
      }

      .cls-5 {
        fill: #ededed;
      }

      .cls-6 {
        fill: #000000;
        opacity: 0.35;
      }
    </style>
  </defs>
  <g id="group-323svg">
    <path d="M33.305,50.726 C33.305,50.726 37.524,50.726 37.524,50.726 C38.338,50.726 38.998,50.226 38.998,49.611 C38.998,48.995 38.338,48.496 37.524,48.496 C37.524,48.496 37.328,48.496 37.328,48.496 C36.515,48.496 35.855,47.996 35.855,47.381 C35.855,46.765 36.515,46.265 37.328,46.265 C37.328,46.265 46.400,46.265 46.400,46.265 C47.214,46.265 47.873,45.766 47.873,45.150 C47.873,44.534 47.214,44.036 46.400,44.036 C46.400,44.036 35.498,44.036 35.498,44.036 C35.498,44.036 13.214,44.036 13.214,44.036 C12.400,44.036 11.741,44.534 11.741,45.150 C11.741,45.766 12.400,46.265 13.214,46.265 C13.214,46.265 15.732,46.265 15.732,46.265 C16.546,46.265 17.205,46.765 17.205,47.381 C17.205,47.996 16.546,48.496 15.732,48.496 C15.732,48.496 5.844,48.496 5.844,48.496 C5.029,48.496 4.370,48.995 4.370,49.611 C4.370,50.226 5.029,50.726 5.844,50.726 C5.844,50.726 6.581,50.726 6.581,50.726 C6.581,50.726 33.305,50.726 33.305,50.726 Z" id="path-1" class="cls-3" fill-rule="evenodd"/>
    <path d="M7.132,43.737 C7.813,43.737 8.367,44.272 8.367,44.931 C8.367,45.592 7.813,46.127 7.132,46.127 C7.132,46.127 3.347,46.127 3.347,46.127 C2.664,46.127 2.111,45.592 2.111,44.931 C2.111,44.272 2.664,43.737 3.347,43.737 C3.347,43.737 7.132,43.737 7.132,43.737 Z" id="path-2" class="cls-3" fill-rule="evenodd"/>
    <path d="M28.848,44.094 C28.846,44.094 28.846,44.094 28.846,44.094 C27.514,44.094 26.359,43.446 25.683,42.318 C25.583,42.151 25.531,41.962 25.531,41.769 C25.531,41.769 25.531,36.056 25.531,36.056 C23.463,30.093 21.480,26.206 17.562,24.014 C17.226,23.824 17.018,23.469 17.018,23.085 C17.018,23.085 17.018,5.745 17.018,5.745 C17.018,3.827 19.990,2.144 21.785,2.144 C21.785,2.144 41.426,2.144 41.426,2.144 C42.388,2.144 43.327,2.638 44.142,3.571 C45.204,4.788 45.873,6.533 45.896,8.040 C47.494,9.212 48.236,11.265 48.105,14.156 C49.772,15.909 49.729,18.496 49.146,20.115 C49.861,21.138 49.992,22.902 49.992,24.064 C49.992,27.383 45.414,29.810 43.467,29.810 C43.467,29.810 34.503,29.810 34.503,29.810 C36.053,36.465 34.343,40.083 33.127,41.692 C31.972,43.217 30.412,44.094 28.848,44.094 Z" id="path-3" class="cls-5" fill-rule="evenodd"/>
    <path d="M45.686,6.581 C45.410,5.494 44.872,4.408 44.143,3.571 C44.040,3.454 43.931,3.365 43.824,3.262 C43.863,3.525 43.893,3.786 43.896,4.040 C44.727,4.649 45.321,5.502 45.686,6.581 Z" id="path-4" class="cls-6" fill-rule="evenodd"/>
    <path d="M17.018,20.980 C17.018,20.980 17.018,23.085 17.018,23.085 C17.018,23.469 17.226,23.824 17.562,24.014 C19.509,25.103 20.976,26.612 22.215,28.584 C20.820,25.229 19.279,22.720 17.018,20.980 Z" id="path-5" class="cls-6" fill-rule="evenodd"/>
    <path d="M49.146,20.115 C49.729,18.496 49.772,15.909 48.105,14.156 C48.232,11.359 47.534,9.354 46.042,8.165 C46.116,8.777 46.138,9.441 46.105,10.156 C47.772,11.908 47.728,14.496 47.146,16.115 C47.861,17.137 47.992,18.901 47.992,20.064 C47.992,23.382 43.414,25.810 41.467,25.810 C41.467,25.810 32.503,25.810 32.503,25.810 C34.053,32.465 32.343,36.083 31.127,37.691 C29.972,39.218 28.412,40.095 26.848,40.095 C26.846,40.095 26.846,40.095 26.846,40.095 C26.381,40.095 25.939,40.011 25.531,39.860 C25.531,39.860 25.531,41.769 25.531,41.769 C25.531,41.962 25.583,42.151 25.683,42.318 C26.359,43.446 27.514,44.094 28.846,44.094 C28.846,44.094 28.846,44.094 28.848,44.094 C30.412,44.094 31.972,43.217 33.127,41.692 C34.343,40.083 36.053,36.465 34.503,29.810 C34.503,29.810 43.467,29.810 43.467,29.810 C45.414,29.810 49.992,27.383 49.992,24.064 C49.992,22.902 49.861,21.138 49.146,20.115 Z" id="path-6" class="cls-6" fill-rule="evenodd"/>
    <path d="M15.414,29.810 C15.414,29.810 3.725,29.810 3.725,29.810 C1.668,29.810 -0.008,28.138 -0.008,26.080 C-0.008,26.080 -0.008,3.746 -0.008,3.746 C-0.008,1.688 1.668,0.015 3.725,0.015 C3.725,0.015 15.414,0.015 15.414,0.015 C17.471,0.015 19.146,1.688 19.146,3.746 C19.146,3.746 19.146,26.080 19.146,26.080 C19.146,28.138 17.471,29.810 15.414,29.810 Z" id="path-7" class="cls-3" fill-rule="evenodd"/>
    <path d="M16.855,0.307 C17.042,0.750 17.146,1.236 17.146,1.746 C17.146,1.746 17.146,24.080 17.146,24.080 C17.146,26.138 15.471,27.811 13.413,27.811 C13.413,27.811 1.725,27.811 1.725,27.811 C1.214,27.811 0.727,27.706 0.283,27.519 C0.848,28.864 2.178,29.810 3.725,29.810 C3.725,29.810 15.413,29.810 15.413,29.810 C17.471,29.810 19.146,28.138 19.146,26.080 C19.146,26.080 19.146,3.746 19.146,3.746 C19.146,2.199 18.199,0.871 16.855,0.307 Z" id="path-8" class="cls-6" fill-rule="evenodd"/>
  </g>
</svg>
