<svg xmlns="http://www.w3.org/2000/svg" xmlns:xlink="http://www.w3.org/1999/xlink" preserveAspectRatio="xMidYMid" width="60" height="60" viewBox="0 0 60 60">
  <defs>
    <style>

      .cls-3 {
        fill: #142a3b;
      }

      .cls-7 {
        fill: #fbb713;
      }

      .cls-21 {
        fill: #ff3a2f;
      }

      .cls-22 {
        fill: #ffffff;
      }

      .cls-23 {
        fill: #2476ff;
      }

      .cls-26 {
        fill: #020403;
        opacity: 0.35;
      }
    </style>
  </defs>
  <g id="group-118svg">
    <path d="M49.630,47.681 C50.533,47.681 51.266,47.353 51.266,46.948 C51.266,46.542 50.533,46.213 49.630,46.213 C49.630,46.213 44.619,46.213 44.619,46.213 C43.717,46.213 42.984,46.542 42.984,46.948 C42.984,47.353 43.717,47.681 44.619,47.681 C44.619,47.681 49.630,47.681 49.630,47.681 Z" id="path-1" class="cls-3" fill-rule="evenodd"/>
    <path d="M53.510,37.491 C53.510,37.491 55.392,37.491 55.392,37.491 C55.756,37.491 56.051,37.655 56.051,37.856 C56.051,38.057 55.756,38.220 55.392,38.220 C55.392,38.220 55.305,38.220 55.305,38.220 C54.942,38.220 54.647,38.384 54.647,38.585 C54.647,38.787 54.942,38.951 55.305,38.951 C55.305,38.951 59.354,38.951 59.354,38.951 C59.718,38.951 60.012,39.113 60.012,39.315 C60.012,39.516 59.718,39.680 59.354,39.680 C59.354,39.680 54.488,39.680 54.488,39.680 C54.488,39.680 44.542,39.680 44.542,39.680 C44.179,39.680 43.885,39.516 43.885,39.315 C43.885,39.113 44.179,38.951 44.542,38.951 C44.542,38.951 45.666,38.951 45.666,38.951 C46.029,38.951 46.323,38.787 46.323,38.585 C46.323,38.384 46.029,38.220 45.666,38.220 C45.666,38.220 40.317,38.220 40.317,38.220 C39.954,38.220 39.660,38.057 39.660,37.856 C39.660,37.655 39.954,37.491 40.317,37.491 C40.317,37.491 41.582,37.491 41.582,37.491 C41.582,37.491 53.510,37.491 53.510,37.491 Z" id="path-2" class="cls-3" fill-rule="evenodd"/>
    <path d="M52.306,59.025 C51.491,58.979 50.858,58.457 50.893,57.861 C50.927,57.265 51.615,56.819 52.430,56.866 C52.430,56.866 56.950,57.126 56.950,57.126 C57.765,57.173 58.397,57.694 58.363,58.290 C58.329,58.887 57.641,59.332 56.826,59.286 C56.826,59.286 52.306,59.025 52.306,59.025 Z" id="path-3" class="cls-3" fill-rule="evenodd"/>
    <path d="M21.107,52.832 C21.107,52.832 16.059,52.832 16.059,52.832 C15.086,52.832 14.297,53.284 14.297,53.841 C14.297,54.399 15.086,54.850 16.059,54.850 C16.059,54.850 16.294,54.850 16.294,54.850 C17.267,54.850 18.057,55.302 18.057,55.859 C18.057,56.417 17.267,56.869 16.294,56.869 C16.294,56.869 5.441,56.869 5.441,56.869 C4.469,56.869 3.680,57.320 3.680,57.878 C3.680,58.435 4.469,58.887 5.441,58.887 C5.441,58.887 18.483,58.887 18.483,58.887 C18.483,58.887 45.141,58.887 45.141,58.887 C46.113,58.887 46.902,58.435 46.902,57.878 C46.902,57.320 46.113,56.869 45.141,56.869 C45.141,56.869 42.128,56.869 42.128,56.869 C41.155,56.869 40.366,56.417 40.366,55.859 C40.366,55.302 41.155,54.850 42.128,54.850 C42.128,54.850 53.958,54.850 53.958,54.850 C54.931,54.850 55.720,54.399 55.720,53.841 C55.720,53.284 54.931,52.832 53.958,52.832 C53.958,52.832 53.074,52.832 53.074,52.832 C53.074,52.832 21.107,52.832 21.107,52.832 Z" id="path-4" class="cls-3" fill-rule="evenodd"/>
    <path d="M59.567,11.392 C59.567,11.392 12.710,58.250 12.710,58.250 C12.710,58.250 4.417,49.957 4.417,49.957 C4.417,49.957 51.275,3.100 51.275,3.100 C51.275,3.100 59.567,11.392 59.567,11.392 Z" id="path-5" class="cls-7" fill-rule="evenodd"/>
    <path d="M21.853,42.596 C21.598,42.596 21.342,42.498 21.146,42.303 C21.146,42.303 17.626,38.782 17.626,38.782 C17.235,38.391 17.235,37.758 17.626,37.368 C18.017,36.977 18.649,36.977 19.040,37.368 C19.040,37.368 22.561,40.889 22.561,40.889 C22.951,41.280 22.951,41.912 22.561,42.303 C22.365,42.498 22.109,42.596 21.853,42.596 Z" id="path-6" class="cls-3" fill-rule="evenodd"/>
    <path d="M15.799,48.584 C15.543,48.584 15.287,48.487 15.092,48.291 C15.092,48.291 11.538,44.737 11.538,44.737 C11.147,44.348 11.147,43.714 11.538,43.324 C11.929,42.933 12.562,42.933 12.952,43.324 C12.952,43.324 16.506,46.878 16.506,46.878 C16.896,47.268 16.896,47.901 16.506,48.291 C16.310,48.487 16.055,48.584 15.799,48.584 Z" id="path-7" class="cls-3" fill-rule="evenodd"/>
    <path d="M11.459,49.700 C11.203,49.700 10.947,49.602 10.752,49.407 C10.752,49.407 8.909,47.564 8.909,47.564 C8.518,47.174 8.518,46.540 8.909,46.150 C9.300,45.760 9.933,45.760 10.323,46.150 C10.323,46.150 12.166,47.993 12.166,47.993 C12.557,48.383 12.557,49.017 12.166,49.407 C11.971,49.602 11.715,49.700 11.459,49.700 Z" id="path-8" class="cls-3" fill-rule="evenodd"/>
    <path d="M16.991,44.300 C16.735,44.300 16.479,44.202 16.284,44.006 C16.284,44.006 14.441,42.164 14.441,42.164 C14.051,41.774 14.051,41.140 14.441,40.750 C14.832,40.359 15.465,40.359 15.855,40.750 C15.855,40.750 17.698,42.593 17.698,42.593 C18.089,42.983 18.089,43.617 17.698,44.006 C17.503,44.202 17.247,44.300 16.991,44.300 Z" id="path-9" class="cls-3" fill-rule="evenodd"/>
    <path d="M22.849,38.443 C22.593,38.443 22.337,38.345 22.142,38.150 C22.142,38.150 20.299,36.307 20.299,36.307 C19.908,35.916 19.908,35.283 20.299,34.893 C20.689,34.502 21.322,34.502 21.713,34.893 C21.713,34.893 23.556,36.736 23.556,36.736 C23.946,37.126 23.946,37.759 23.556,38.150 C23.360,38.345 23.104,38.443 22.849,38.443 Z" id="path-10" class="cls-3" fill-rule="evenodd"/>
    <path d="M27.579,36.739 C27.323,36.739 27.067,36.641 26.872,36.445 C26.872,36.445 23.352,32.925 23.352,32.925 C22.961,32.534 22.961,31.901 23.352,31.510 C23.742,31.120 24.375,31.120 24.766,31.510 C24.766,31.510 28.286,35.032 28.286,35.032 C28.677,35.422 28.677,36.055 28.286,36.445 C28.091,36.641 27.835,36.739 27.579,36.739 Z" id="path-11" class="cls-3" fill-rule="evenodd"/>
    <path d="M28.837,32.322 C28.581,32.322 28.325,32.224 28.130,32.029 C28.130,32.029 26.287,30.186 26.287,30.186 C25.896,29.796 25.896,29.163 26.287,28.772 C26.678,28.382 27.310,28.382 27.701,28.772 C27.701,28.772 29.544,30.615 29.544,30.615 C29.935,31.005 29.935,31.639 29.544,32.029 C29.349,32.224 29.093,32.322 28.837,32.322 Z" id="path-12" class="cls-3" fill-rule="evenodd"/>
    <path d="M33.788,30.486 C33.532,30.486 33.276,30.389 33.081,30.194 C33.081,30.194 29.612,26.729 29.612,26.729 C29.222,26.338 29.222,25.705 29.612,25.314 C30.003,24.923 30.636,24.923 31.026,25.313 C31.026,25.313 34.495,28.778 34.495,28.778 C34.886,29.169 34.886,29.802 34.495,30.193 C34.300,30.388 34.044,30.486 33.788,30.486 Z" id="path-13" class="cls-3" fill-rule="evenodd"/>
    <path d="M34.946,26.191 C34.690,26.191 34.435,26.093 34.239,25.897 C34.239,25.897 32.397,24.055 32.397,24.055 C32.007,23.664 32.007,23.031 32.397,22.641 C32.788,22.250 33.421,22.250 33.811,22.641 C33.811,22.641 35.653,24.484 35.653,24.484 C36.044,24.874 36.044,25.508 35.653,25.898 C35.458,26.093 35.202,26.191 34.946,26.191 Z" id="path-14" class="cls-3" fill-rule="evenodd"/>
    <path d="M39.902,24.448 C39.646,24.448 39.391,24.350 39.195,24.155 C39.195,24.155 35.763,20.722 35.763,20.722 C35.372,20.331 35.372,19.699 35.763,19.308 C36.153,18.917 36.786,18.917 37.177,19.308 C37.177,19.308 40.609,22.741 40.609,22.741 C41.000,23.132 41.000,23.765 40.609,24.156 C40.414,24.350 40.158,24.448 39.902,24.448 Z" id="path-15" class="cls-3" fill-rule="evenodd"/>
    <path d="M41.045,20.179 C40.789,20.179 40.533,20.082 40.338,19.886 C40.338,19.886 38.495,18.044 38.495,18.044 C38.104,17.654 38.104,17.020 38.495,16.630 C38.886,16.239 39.519,16.239 39.909,16.630 C39.909,16.630 41.752,18.473 41.752,18.473 C42.143,18.863 42.143,19.496 41.752,19.886 C41.557,20.082 41.301,20.179 41.045,20.179 Z" id="path-16" class="cls-3" fill-rule="evenodd"/>
    <path d="M48.149,13.207 C47.893,13.207 47.638,13.110 47.442,12.914 C47.442,12.914 45.600,11.072 45.600,11.072 C45.209,10.681 45.209,10.048 45.600,9.658 C45.990,9.267 46.623,9.267 47.014,9.658 C47.014,9.658 48.856,11.500 48.856,11.500 C49.247,11.890 49.247,12.524 48.856,12.914 C48.661,13.110 48.405,13.207 48.149,13.207 Z" id="path-17" class="cls-3" fill-rule="evenodd"/>
    <path d="M46.089,18.262 C45.833,18.262 45.577,18.164 45.382,17.969 C45.382,17.969 41.949,14.536 41.949,14.536 C41.559,14.145 41.559,13.512 41.949,13.121 C42.340,12.731 42.973,12.731 43.363,13.122 C43.363,13.122 46.796,16.555 46.796,16.555 C47.187,16.946 47.187,17.578 46.796,17.969 C46.601,18.164 46.345,18.262 46.089,18.262 Z" id="path-18" class="cls-3" fill-rule="evenodd"/>
    <path d="M37.053,9.169 C37.053,9.169 34.156,12.064 34.156,12.064 C34.156,12.064 26.841,4.749 26.841,4.749 C26.841,4.749 29.737,1.854 29.737,1.854 C32.021,-0.431 35.504,-0.635 37.518,1.379 C38.529,2.390 38.983,3.772 38.893,5.177 C38.814,6.594 38.189,8.031 37.053,9.169 Z" id="path-19" class="cls-21" fill-rule="evenodd"/>
    <path d="M30.353,4.738 C30.207,4.738 30.058,4.706 29.916,4.637 C29.420,4.395 29.214,3.796 29.456,3.300 C30.466,1.228 32.822,0.289 34.720,1.213 C35.216,1.456 35.422,2.054 35.180,2.550 C34.938,3.046 34.344,3.253 33.843,3.011 C32.944,2.572 31.781,3.094 31.253,4.176 C31.080,4.532 30.724,4.738 30.353,4.738 Z" id="path-20" class="cls-22" fill-rule="evenodd"/>
    <path d="M3.478,28.040 C3.478,28.040 27.559,4.059 27.559,4.059 C27.559,4.059 34.893,11.393 34.893,11.393 C34.893,11.393 10.500,35.655 10.500,35.655 C10.500,35.655 10.500,35.655 10.500,35.655 " id="path-21" class="cls-23" fill-rule="evenodd"/>
    <path d="M4.256,37.238 C4.256,37.238 0.012,38.894 0.012,38.894 C0.012,38.894 1.496,34.479 1.496,34.479 C1.496,34.479 4.256,37.238 4.256,37.238 Z" id="path-22" class="cls-3" fill-rule="evenodd"/>
    <path d="M7.711,28.067 C7.711,28.067 4.996,28.066 4.996,28.066 C4.996,28.066 3.478,28.040 3.478,28.040 C3.478,28.040 1.496,34.479 1.496,34.479 C1.496,34.479 4.256,37.238 4.256,37.238 C4.256,37.238 10.500,35.655 10.500,35.655 C10.500,35.655 10.713,33.692 10.713,33.692 C10.713,33.692 10.714,31.072 10.714,31.072 C10.714,31.072 7.650,31.494 7.650,31.494 C7.650,31.494 7.711,28.067 7.711,28.067 Z" id="path-23" class="cls-7" fill-rule="evenodd"/>
    <path d="M34.661,0.032 C34.980,0.224 35.281,0.452 35.554,0.724 C36.565,1.735 37.019,3.118 36.930,4.522 C36.852,5.939 36.226,7.377 35.089,8.514 C35.089,8.514 33.502,10.101 33.502,10.101 C33.502,10.101 34.811,11.410 34.811,11.410 C34.811,11.410 37.053,9.169 37.053,9.169 C38.189,8.031 38.814,6.594 38.893,5.177 C38.983,3.772 38.529,2.390 37.518,1.379 C36.734,0.596 35.730,0.153 34.661,0.032 Z" id="path-24" class="cls-26" fill-rule="evenodd"/>
    <path d="M27.072,4.446 C27.072,4.446 31.043,9.539 31.043,9.539 C31.750,10.447 31.672,11.738 30.860,12.553 C30.860,12.553 10.718,32.789 10.718,32.789 C10.718,32.789 10.500,35.655 10.500,35.655 C10.500,35.655 34.893,11.393 34.893,11.393 C34.893,11.393 27.559,4.059 27.559,4.059 C27.559,4.059 27.072,4.446 27.072,4.446 Z" id="path-25" class="cls-26" fill-rule="evenodd"/>
    <path d="M7.075,28.067 C7.075,28.067 7.357,31.396 7.357,31.396 C7.357,31.396 7.650,31.494 7.650,31.494 C7.650,31.494 7.711,28.067 7.711,28.067 C7.711,28.067 7.075,28.067 7.075,28.067 Z" id="path-26" class="cls-26" fill-rule="evenodd"/>
    <path d="M8.943,34.815 C8.943,34.815 3.326,36.308 3.326,36.308 C3.326,36.308 4.256,37.238 4.256,37.238 C4.256,37.238 10.500,35.655 10.500,35.655 C10.500,35.655 10.713,33.692 10.713,33.692 C10.713,33.692 10.714,31.072 10.714,31.072 C10.714,31.072 10.053,31.162 10.053,31.162 C10.053,31.162 8.943,34.815 8.943,34.815 Z" id="path-27" class="cls-26" fill-rule="evenodd"/>
    <path d="M11.064,24.628 C10.809,24.628 10.553,24.531 10.357,24.335 C9.967,23.945 9.967,23.312 10.357,22.921 C10.357,22.921 24.867,8.412 24.867,8.412 C25.258,8.021 25.891,8.021 26.281,8.412 C26.672,8.803 26.672,9.436 26.281,9.827 C26.281,9.827 11.771,24.335 11.771,24.335 C11.576,24.531 11.320,24.628 11.064,24.628 Z" id="path-28" class="cls-22" fill-rule="evenodd"/>
  </g>
</svg>
