<svg xmlns="http://www.w3.org/2000/svg" xmlns:xlink="http://www.w3.org/1999/xlink" preserveAspectRatio="xMidYMid" width="58" height="61" viewBox="0 0 58 61">
  <defs>
    <style>

      .cls-3 {
        fill: #142a3b;
      }

      .cls-4 {
        fill: #ffffff;
      }

      .cls-6 {
        fill: #020403;
        opacity: 0.45;
      }

      .cls-7 {
        fill: #fbb713;
      }

      .cls-8 {
        fill: #bb860e;
      }

      .cls-13 {
        fill: #2476ff;
      }
    </style>
  </defs>
  <g id="group-100svg">
    <path d="M24.943,41.652 C24.943,41.652 24.943,36.600 24.943,36.600 C24.943,36.600 27.470,36.600 27.470,36.600 C27.470,36.600 27.470,31.548 27.470,31.548 C27.470,31.548 14.839,31.548 14.839,31.548 C14.839,31.548 14.839,36.600 14.839,36.600 C14.839,36.600 17.365,36.600 17.365,36.600 C17.365,36.600 17.365,41.652 17.365,41.652 C9.650,42.663 5.327,46.442 4.734,54.283 C4.734,54.283 37.763,54.283 37.763,54.283 C37.170,46.442 32.659,42.663 24.943,41.652 Z" id="path-1" class="cls-3" fill-rule="evenodd"/>
    <path d="M8.350,52.931 C8.279,52.931 8.208,52.924 8.137,52.909 C7.597,52.791 7.254,52.259 7.371,51.719 C8.446,46.765 11.204,45.028 15.016,43.944 C15.542,43.793 16.100,44.100 16.251,44.631 C16.402,45.163 16.094,45.716 15.562,45.868 C12.192,46.826 10.201,48.110 9.326,52.143 C9.225,52.611 8.809,52.931 8.350,52.931 Z" id="path-2" class="cls-4" fill-rule="evenodd"/>
    <path d="M16.670,35.205 C16.393,35.205 16.170,34.981 16.170,34.705 C16.170,34.705 16.170,33.442 16.170,33.442 C16.170,33.166 16.393,32.942 16.670,32.942 C16.946,32.942 17.170,33.166 17.170,33.442 C17.170,33.442 17.170,34.705 17.170,34.705 C17.170,34.981 16.946,35.205 16.670,35.205 Z" id="path-3" class="cls-4" fill-rule="evenodd"/>
    <path d="M24.943,41.652 C24.943,41.652 24.943,36.599 24.943,36.599 C24.943,36.599 27.470,36.599 27.470,36.599 C27.470,36.599 27.470,31.548 27.470,31.548 C27.470,31.548 22.417,31.548 22.417,31.548 C22.417,31.548 22.417,36.599 22.417,36.599 C22.417,36.599 17.365,36.599 17.365,36.599 C17.365,36.599 17.365,39.126 17.365,39.126 C25.080,40.136 32.117,46.442 32.711,54.283 C32.711,54.283 37.763,54.283 37.763,54.283 C37.170,46.442 32.659,42.662 24.943,41.652 Z" id="path-4" class="cls-6" fill-rule="evenodd"/>
    <path d="M43.890,9.628 C43.890,9.628 43.890,0.287 43.890,0.287 C41.363,1.537 37.201,4.291 33.395,8.096 C25.997,15.495 22.380,24.187 25.832,27.640 C25.832,27.640 43.890,9.628 43.890,9.628 Z" id="path-5" class="cls-7" fill-rule="evenodd"/>
    <path d="M30.496,23.022 C30.496,23.022 43.890,23.022 43.890,23.022 C36.815,29.454 29.050,30.876 25.811,27.640 C25.811,27.640 30.496,23.022 30.496,23.022 Z" id="path-6" class="cls-8" fill-rule="evenodd"/>
    <path d="M21.850,32.647 C21.594,32.647 21.338,32.550 21.143,32.354 C20.752,31.964 20.752,31.330 21.143,30.940 C21.143,30.940 51.807,0.290 51.807,0.290 C52.197,-0.100 52.830,-0.100 53.221,0.290 C53.611,0.681 53.611,1.314 53.221,1.704 C53.221,1.704 22.557,32.354 22.557,32.354 C22.361,32.550 22.105,32.647 21.850,32.647 Z" id="path-7" class="cls-3" fill-rule="evenodd"/>
    <path d="M47.679,18.970 C47.679,18.970 35.548,18.970 35.548,18.970 C34.995,18.970 34.548,18.522 34.548,17.970 C34.548,17.417 34.995,16.969 35.548,16.969 C35.548,16.969 47.679,16.969 47.679,16.969 C48.231,16.969 48.679,17.417 48.679,17.970 C48.679,18.522 48.231,18.970 47.679,18.970 Z" id="path-8" class="cls-3" fill-rule="evenodd"/>
    <path d="M51.353,13.917 C51.353,13.917 40.574,13.917 40.574,13.917 C40.021,13.917 39.574,13.469 39.574,12.917 C39.574,12.365 40.021,11.917 40.574,11.917 C40.574,11.917 51.353,11.917 51.353,11.917 C51.905,11.917 52.353,12.365 52.353,12.917 C52.353,13.469 51.905,13.917 51.353,13.917 Z" id="path-9" class="cls-3" fill-rule="evenodd"/>
    <path d="M55.303,9.355 C55.303,9.355 45.787,9.355 45.787,9.355 C45.234,9.355 44.787,8.908 44.787,8.355 C44.787,7.803 45.234,7.355 45.787,7.355 C45.787,7.355 55.303,7.355 55.303,7.355 C55.855,7.355 56.303,7.803 56.303,8.355 C56.303,8.908 55.855,9.355 55.303,9.355 Z" id="path-10" class="cls-3" fill-rule="evenodd"/>
    <path d="M8.607,37.098 C8.607,37.098 9.777,37.098 9.777,37.098 C10.003,37.098 10.185,37.337 10.185,37.632 C10.185,37.927 10.003,38.165 9.777,38.165 C9.777,38.165 9.723,38.165 9.723,38.165 C9.497,38.165 9.314,38.404 9.314,38.699 C9.314,38.993 9.497,39.233 9.723,39.233 C9.723,39.233 12.237,39.233 12.237,39.233 C12.463,39.233 12.645,39.472 12.645,39.767 C12.645,40.061 12.463,40.300 12.237,40.300 C12.237,40.300 9.216,40.300 9.216,40.300 C9.216,40.300 3.040,40.300 3.040,40.300 C2.814,40.300 2.632,40.061 2.632,39.767 C2.632,39.472 2.814,39.233 3.040,39.233 C3.040,39.233 3.737,39.233 3.737,39.233 C3.963,39.233 4.146,38.993 4.146,38.699 C4.146,38.404 3.963,38.165 3.737,38.165 C3.737,38.165 0.417,38.165 0.417,38.165 C0.191,38.165 0.009,37.927 0.009,37.632 C0.009,37.337 0.191,37.098 0.417,37.098 C0.417,37.098 1.202,37.098 1.202,37.098 C1.202,37.098 8.607,37.098 8.607,37.098 Z" id="path-11" class="cls-13" fill-rule="evenodd"/>
    <path d="M47.273,53.599 C47.273,53.599 50.247,53.599 50.247,53.599 C50.820,53.599 51.285,54.079 51.285,54.672 C51.285,55.264 50.820,55.745 50.247,55.745 C50.247,55.745 50.108,55.745 50.108,55.745 C49.535,55.745 49.070,56.226 49.070,56.818 C49.070,57.411 49.535,57.891 50.108,57.891 C50.108,57.891 56.501,57.891 56.501,57.891 C57.074,57.891 57.539,58.371 57.539,58.964 C57.539,59.556 57.074,60.037 56.501,60.037 C56.501,60.037 48.818,60.037 48.818,60.037 C48.818,60.037 33.117,60.037 33.117,60.037 C32.544,60.037 32.079,59.556 32.079,58.964 C32.079,58.371 32.544,57.891 33.117,57.891 C33.117,57.891 34.892,57.891 34.892,57.891 C35.465,57.891 35.930,57.411 35.930,56.818 C35.930,56.226 35.465,55.745 34.892,55.745 C34.892,55.745 26.448,55.745 26.448,55.745 C25.875,55.745 25.410,55.264 25.410,54.672 C25.410,54.079 25.875,53.599 26.448,53.599 C26.448,53.599 28.444,53.599 28.444,53.599 C28.444,53.599 47.273,53.599 47.273,53.599 Z" id="path-12" class="cls-13" fill-rule="evenodd"/>
    <path d="M21.682,58.238 C22.391,58.238 22.966,57.992 22.966,57.686 C22.966,57.381 22.391,57.135 21.682,57.135 C21.682,57.135 17.745,57.135 17.745,57.135 C17.036,57.135 16.461,57.381 16.461,57.686 C16.461,57.992 17.036,58.238 17.745,58.238 C17.745,58.238 21.682,58.238 21.682,58.238 Z" id="path-13" class="cls-13" fill-rule="evenodd"/>
    <path d="M47.273,53.599 C47.273,53.599 50.247,53.599 50.247,53.599 C50.820,53.599 51.285,54.079 51.285,54.672 C51.285,55.264 50.820,55.745 50.247,55.745 C50.247,55.745 50.108,55.745 50.108,55.745 C49.535,55.745 49.070,56.226 49.070,56.818 C49.070,57.411 49.535,57.891 50.108,57.891 C50.108,57.891 56.501,57.891 56.501,57.891 C57.074,57.891 57.539,58.371 57.539,58.964 C57.539,59.556 57.074,60.037 56.501,60.037 C56.501,60.037 48.818,60.037 48.818,60.037 C48.818,60.037 33.117,60.037 33.117,60.037 C32.544,60.037 32.079,59.556 32.079,58.964 C32.079,58.371 32.544,57.891 33.117,57.891 C33.117,57.891 34.892,57.891 34.892,57.891 C35.465,57.891 35.930,57.411 35.930,56.818 C35.930,56.226 35.465,55.745 34.892,55.745 C34.892,55.745 26.448,55.745 26.448,55.745 C25.875,55.745 25.410,55.264 25.410,54.672 C25.410,54.079 25.875,53.599 26.448,53.599 C26.448,53.599 28.444,53.599 28.444,53.599 C28.444,53.599 47.273,53.599 47.273,53.599 Z" id="path-14" class="cls-13" fill-rule="evenodd"/>
    <path d="M21.682,58.238 C22.391,58.238 22.966,57.992 22.966,57.686 C22.966,57.381 22.391,57.135 21.682,57.135 C21.682,57.135 17.745,57.135 17.745,57.135 C17.036,57.135 16.461,57.381 16.461,57.686 C16.461,57.992 17.036,58.238 17.745,58.238 C17.745,58.238 21.682,58.238 21.682,58.238 Z" id="path-15" class="cls-13" fill-rule="evenodd"/>
    <path d="M8.607,37.098 C8.607,37.098 9.777,37.098 9.777,37.098 C10.003,37.098 10.185,37.337 10.185,37.632 C10.185,37.927 10.003,38.165 9.777,38.165 C9.777,38.165 9.723,38.165 9.723,38.165 C9.497,38.165 9.314,38.404 9.314,38.699 C9.314,38.993 9.497,39.233 9.723,39.233 C9.723,39.233 12.237,39.233 12.237,39.233 C12.463,39.233 12.645,39.472 12.645,39.767 C12.645,40.061 12.463,40.300 12.237,40.300 C12.237,40.300 9.216,40.300 9.216,40.300 C9.216,40.300 3.040,40.300 3.040,40.300 C2.814,40.300 2.632,40.061 2.632,39.767 C2.632,39.472 2.814,39.233 3.040,39.233 C3.040,39.233 3.737,39.233 3.737,39.233 C3.963,39.233 4.146,38.993 4.146,38.699 C4.146,38.404 3.963,38.165 3.737,38.165 C3.737,38.165 0.417,38.165 0.417,38.165 C0.191,38.165 0.009,37.927 0.009,37.632 C0.009,37.337 0.191,37.098 0.417,37.098 C0.417,37.098 1.202,37.098 1.202,37.098 C1.202,37.098 8.607,37.098 8.607,37.098 Z" id="path-16" class="cls-13" fill-rule="evenodd"/>
  </g>
</svg>
