<svg xmlns="http://www.w3.org/2000/svg" xmlns:xlink="http://www.w3.org/1999/xlink" preserveAspectRatio="xMidYMid" width="60" height="54" viewBox="0 0 60 54">
  <defs>
    <style>

      .cls-3 {
        fill: #ff3a2f;
      }

      .cls-5 {
        fill: #0cb04a;
      }

      .cls-6 {
        fill: #000000;
        opacity: 0.35;
      }

      .cls-7 {
        fill: #fbb713;
      }

      .cls-8 {
        fill: #010101;
        opacity: 0.35;
      }

      .cls-9 {
        fill: #142a3b;
      }
    </style>
  </defs>
  <g id="group-269svg">
    <path d="M27.293,45.583 C27.293,45.583 22.870,45.583 22.870,45.583 C22.017,45.583 21.325,46.105 21.325,46.751 C21.325,47.396 22.017,47.920 22.870,47.920 C22.870,47.920 23.075,47.920 23.075,47.920 C23.929,47.920 24.620,48.443 24.620,49.089 C24.620,49.734 23.929,50.257 23.075,50.257 C23.075,50.257 13.566,50.257 13.566,50.257 C12.713,50.257 12.022,50.781 12.022,51.427 C12.022,52.072 12.713,52.595 13.566,52.595 C13.566,52.595 24.994,52.595 24.994,52.595 C24.994,52.595 48.353,52.595 48.353,52.595 C49.205,52.595 49.896,52.072 49.896,51.427 C49.896,50.781 49.205,50.257 48.353,50.257 C48.353,50.257 45.713,50.257 45.713,50.257 C44.860,50.257 44.169,49.734 44.169,49.089 C44.169,48.443 44.860,47.920 45.713,47.920 C45.713,47.920 56.078,47.920 56.078,47.920 C56.932,47.920 57.623,47.396 57.623,46.751 C57.623,46.105 56.932,45.583 56.078,45.583 C56.078,45.583 55.305,45.583 55.305,45.583 C55.305,45.583 27.293,45.583 27.293,45.583 Z" id="path-1" class="cls-3" fill-rule="evenodd"/>
    <path d="M54.727,52.908 C54.013,52.908 53.434,52.348 53.434,51.655 C53.434,50.964 54.013,50.403 54.727,50.403 C54.727,50.403 58.695,50.403 58.695,50.403 C59.410,50.403 59.990,50.964 59.990,51.655 C59.990,52.348 59.410,52.908 58.695,52.908 C58.695,52.908 54.727,52.908 54.727,52.908 Z" id="path-2" class="cls-3" fill-rule="evenodd"/>
    <path d="M36.694,50.621 C36.694,50.621 20.845,30.323 20.845,30.323 C20.845,30.323 -0.010,13.917 -0.010,13.917 C-0.010,13.917 4.439,9.468 4.439,9.468 C4.439,9.468 42.255,47.285 42.255,47.285 C42.255,47.285 36.694,50.621 36.694,50.621 Z" id="path-3" class="cls-5" fill-rule="evenodd"/>
    <path d="M40.865,45.894 C40.865,45.894 36.694,48.397 36.694,48.397 C36.694,48.397 20.845,28.098 20.845,28.098 C20.845,28.098 1.235,12.672 1.235,12.672 C1.235,12.672 -0.010,13.917 -0.010,13.917 C-0.010,13.917 20.845,30.323 20.845,30.323 C20.845,30.323 36.694,50.621 36.694,50.621 C36.694,50.621 42.255,47.285 42.255,47.285 C42.255,47.285 40.865,45.894 40.865,45.894 Z" id="path-4" class="cls-6" fill-rule="evenodd"/>
    <path d="M22.513,27.542 C22.513,27.542 6.107,11.137 6.107,11.137 C6.107,11.137 9.444,0.014 9.444,0.014 C9.444,0.014 33.079,23.649 33.079,23.649 C33.079,23.649 22.513,27.542 22.513,27.542 Z" id="path-5" class="cls-7" fill-rule="evenodd"/>
    <path d="M29.528,20.098 C29.528,20.098 24.083,22.105 24.083,22.105 C22.448,22.707 20.612,22.304 19.380,21.072 C19.380,21.072 6.421,10.090 6.421,10.090 C6.421,10.090 6.107,11.137 6.107,11.137 C6.107,11.137 22.513,27.542 22.513,27.542 C22.513,27.542 33.079,23.649 33.079,23.649 C33.079,23.649 29.528,20.098 29.528,20.098 Z" id="path-6" class="cls-8" fill-rule="evenodd"/>
    <path d="M20.598,23.174 C20.207,23.174 19.836,22.943 19.675,22.561 C19.462,22.051 19.702,21.466 20.211,21.252 C20.211,21.252 27.100,18.363 27.100,18.363 C27.609,18.150 28.196,18.390 28.409,18.899 C28.623,19.408 28.383,19.994 27.874,20.208 C27.874,20.208 20.984,23.096 20.984,23.096 C20.858,23.149 20.727,23.174 20.598,23.174 Z" id="path-7" class="cls-9" fill-rule="evenodd"/>
    <path d="M11.475,14.053 C11.346,14.053 11.215,14.028 11.089,13.975 C10.580,13.761 10.340,13.175 10.553,12.666 C10.553,12.666 13.442,5.776 13.442,5.776 C13.655,5.267 14.240,5.027 14.751,5.240 C15.260,5.454 15.500,6.040 15.287,6.549 C15.287,6.549 12.398,13.439 12.398,13.439 C12.237,13.822 11.866,14.053 11.475,14.053 Z" id="path-8" class="cls-9" fill-rule="evenodd"/>
    <path d="M16.973,17.719 C16.720,17.719 16.467,17.623 16.272,17.433 C15.878,17.046 15.872,16.413 16.258,16.018 C16.258,16.018 20.387,11.806 20.387,11.806 C20.774,11.410 21.406,11.406 21.802,11.792 C22.196,12.179 22.202,12.812 21.815,13.206 C21.815,13.206 17.687,17.419 17.687,17.419 C17.491,17.619 17.232,17.719 16.973,17.719 Z" id="path-9" class="cls-9" fill-rule="evenodd"/>
  </g>
</svg>
