<svg xmlns="http://www.w3.org/2000/svg" xmlns:xlink="http://www.w3.org/1999/xlink" preserveAspectRatio="xMidYMid" width="61" height="60" viewBox="0 0 61 60">
  <defs>
    <style>

      .cls-3 {
        fill: #2476ff;
      }

      .cls-8 {
        fill: #142a3b;
      }

      .cls-9 {
        fill: #000000;
        opacity: 0.35;
      }
    </style>
  </defs>
  <g id="group-336svg">
    <path d="M28.701,53.798 C28.701,53.798 27.013,53.798 27.013,53.798 C26.687,53.798 26.423,53.998 26.423,54.244 C26.423,54.491 26.687,54.690 27.013,54.690 C27.013,54.690 27.091,54.690 27.091,54.690 C27.417,54.690 27.681,54.889 27.681,55.135 C27.681,55.382 27.417,55.581 27.091,55.581 C27.091,55.581 23.462,55.581 23.462,55.581 C23.137,55.581 22.873,55.781 22.873,56.027 C22.873,56.273 23.137,56.472 23.462,56.472 C23.462,56.472 27.824,56.472 27.824,56.472 C27.824,56.472 36.738,56.472 36.738,56.472 C37.063,56.472 37.328,56.273 37.328,56.027 C37.328,55.781 37.063,55.581 36.738,55.581 C36.738,55.581 35.731,55.581 35.731,55.581 C35.405,55.581 35.142,55.382 35.142,55.135 C35.142,54.889 35.405,54.690 35.731,54.690 C35.731,54.690 39.686,54.690 39.686,54.690 C40.012,54.690 40.276,54.491 40.276,54.244 C40.276,53.998 40.012,53.798 39.686,53.798 C39.686,53.798 39.392,53.798 39.392,53.798 C39.392,53.798 28.701,53.798 28.701,53.798 Z" id="path-1" class="cls-3" fill-rule="evenodd"/>
    <path d="M39.171,56.591 C38.898,56.591 38.677,56.378 38.677,56.114 C38.677,55.850 38.898,55.637 39.171,55.637 C39.171,55.637 40.686,55.637 40.686,55.637 C40.958,55.637 41.180,55.850 41.180,56.114 C41.180,56.378 40.958,56.591 40.686,56.591 C40.686,56.591 39.171,56.591 39.171,56.591 Z" id="path-2" class="cls-3" fill-rule="evenodd"/>
    <path d="M7.486,53.766 C7.486,53.766 5.321,53.766 5.321,53.766 C4.903,53.766 4.565,54.170 4.565,54.668 C4.565,55.166 4.903,55.570 5.321,55.570 C5.321,55.570 5.421,55.570 5.421,55.570 C5.839,55.570 6.178,55.973 6.178,56.471 C6.178,56.969 5.839,57.372 5.421,57.372 C5.421,57.372 0.767,57.372 0.767,57.372 C0.349,57.372 0.010,57.776 0.010,58.274 C0.010,58.772 0.349,59.176 0.767,59.176 C0.767,59.176 6.361,59.176 6.361,59.176 C6.361,59.176 17.796,59.176 17.796,59.176 C18.213,59.176 18.552,58.772 18.552,58.274 C18.552,57.776 18.213,57.372 17.796,57.372 C17.796,57.372 16.504,57.372 16.504,57.372 C16.086,57.372 15.748,56.969 15.748,56.471 C15.748,55.973 16.086,55.570 16.504,55.570 C16.504,55.570 21.578,55.570 21.578,55.570 C21.996,55.570 22.334,55.166 22.334,54.668 C22.334,54.170 21.996,53.766 21.578,53.766 C21.578,53.766 21.199,53.766 21.199,53.766 C21.199,53.766 7.486,53.766 7.486,53.766 Z" id="path-3" class="cls-3" fill-rule="evenodd"/>
    <path d="M20.917,59.417 C20.567,59.417 20.283,58.985 20.283,58.451 C20.283,57.917 20.567,57.485 20.917,57.485 C20.917,57.485 22.859,57.485 22.859,57.485 C23.209,57.485 23.493,57.917 23.493,58.451 C23.493,58.985 23.209,59.417 22.859,59.417 C22.859,59.417 20.917,59.417 20.917,59.417 Z" id="path-4" class="cls-3" fill-rule="evenodd"/>
    <path d="M44.286,23.190 C44.286,23.190 25.457,41.893 25.457,41.893 C24.607,42.737 22.205,41.725 20.093,39.628 C17.982,37.531 16.962,35.144 17.813,34.300 C17.813,34.300 36.654,15.611 36.654,15.611 C36.654,15.611 36.654,15.611 36.654,15.611 " id="path-5" class="cls-3" fill-rule="evenodd"/>
    <path d="M8.846,51.814 C8.588,51.814 8.330,51.715 8.135,51.517 C7.746,51.125 7.749,50.492 8.142,50.103 C8.142,50.103 16.286,42.038 16.286,42.038 C16.678,41.650 17.312,41.652 17.700,42.045 C18.089,42.438 18.086,43.071 17.693,43.459 C17.693,43.459 9.549,51.524 9.549,51.524 C9.354,51.718 9.100,51.814 8.846,51.814 Z" id="path-6" class="cls-8" fill-rule="evenodd"/>
    <path d="M42.104,21.024 C42.104,21.024 24.367,38.643 24.367,38.643 C23.517,39.488 21.114,38.475 19.002,36.379 C18.445,35.824 17.970,35.252 17.579,34.691 C17.239,35.744 18.249,37.796 20.093,39.628 C22.205,41.725 24.607,42.737 25.457,41.893 C25.457,41.893 44.286,23.190 44.286,23.190 C44.286,23.190 42.104,21.024 42.104,21.024 Z" id="path-7" class="cls-9" fill-rule="evenodd"/>
    <path d="M18.682,37.937 C18.682,37.937 15.389,41.115 15.389,41.115 C15.389,41.115 18.515,44.314 18.515,44.314 C18.515,44.314 21.854,41.090 21.854,41.090 C21.854,41.090 21.854,41.090 21.854,41.090 " id="path-8" class="cls-3" fill-rule="evenodd"/>
    <path d="M48.105,27.983 C47.850,27.983 47.595,27.886 47.400,27.692 C47.400,27.692 32.133,12.527 32.133,12.527 C31.741,12.138 31.739,11.505 32.128,11.113 C32.518,10.721 33.151,10.719 33.542,11.108 C33.542,11.108 48.810,26.273 48.810,26.273 C49.202,26.663 49.204,27.296 48.814,27.687 C48.619,27.884 48.362,27.983 48.105,27.983 Z" id="path-9" class="cls-8" fill-rule="evenodd"/>
    <path d="M38.861,18.801 C38.602,18.801 38.345,18.702 38.149,18.503 C37.761,18.110 37.766,17.477 38.159,17.089 C38.159,17.089 51.986,3.449 51.986,3.449 C52.380,3.060 53.013,3.065 53.400,3.458 C53.788,3.851 53.784,4.485 53.391,4.872 C53.391,4.872 39.563,18.513 39.563,18.513 C39.368,18.705 39.114,18.801 38.861,18.801 Z" id="path-10" class="cls-8" fill-rule="evenodd"/>
    <path d="M59.010,10.651 C58.755,10.651 58.500,10.555 58.306,10.361 C58.306,10.361 49.581,1.695 49.581,1.695 C49.189,1.306 49.187,0.673 49.577,0.281 C49.966,-0.110 50.600,-0.113 50.991,0.276 C50.991,0.276 59.715,8.942 59.715,8.942 C60.107,9.331 60.109,9.965 59.720,10.356 C59.524,10.553 59.267,10.651 59.010,10.651 Z" id="path-11" class="cls-8" fill-rule="evenodd"/>
    <path d="M35.019,25.816 C34.764,25.816 34.509,25.720 34.314,25.526 C34.314,25.526 31.042,22.276 31.042,22.276 C30.650,21.887 30.648,21.254 31.038,20.862 C31.427,20.470 32.061,20.468 32.452,20.857 C32.452,20.857 35.723,24.107 35.723,24.107 C36.115,24.496 36.117,25.129 35.728,25.521 C35.533,25.718 35.275,25.816 35.019,25.816 Z" id="path-12" class="cls-8" fill-rule="evenodd"/>
    <path d="M30.657,30.149 C30.402,30.149 30.147,30.053 29.952,29.859 C29.952,29.859 26.680,26.609 26.680,26.609 C26.288,26.220 26.286,25.587 26.675,25.195 C27.065,24.803 27.699,24.802 28.089,25.190 C28.089,25.190 31.361,28.440 31.361,28.440 C31.753,28.829 31.755,29.462 31.366,29.854 C31.171,30.050 30.914,30.149 30.657,30.149 Z" id="path-13" class="cls-8" fill-rule="evenodd"/>
    <path d="M26.294,34.482 C26.039,34.482 25.785,34.385 25.590,34.192 C25.590,34.192 22.318,30.942 22.318,30.942 C21.926,30.553 21.924,29.920 22.313,29.528 C22.703,29.137 23.336,29.134 23.727,29.523 C23.727,29.523 26.999,32.773 26.999,32.773 C27.391,33.162 27.393,33.795 27.004,34.187 C26.809,34.384 26.551,34.482 26.294,34.482 Z" id="path-14" class="cls-8" fill-rule="evenodd"/>
    <path d="M42.035,21.953 C41.776,21.953 41.519,21.854 41.323,21.655 C40.935,21.263 40.939,20.630 41.332,20.242 C41.332,20.242 55.159,6.600 55.159,6.600 C55.552,6.212 56.185,6.216 56.573,6.610 C56.961,7.003 56.957,7.635 56.563,8.024 C56.563,8.024 42.737,21.665 42.737,21.665 C42.542,21.858 42.289,21.953 42.035,21.953 Z" id="path-15" class="cls-8" fill-rule="evenodd"/>
  </g>
</svg>
