<svg xmlns="http://www.w3.org/2000/svg" xmlns:xlink="http://www.w3.org/1999/xlink" preserveAspectRatio="xMidYMid" width="61" height="55" viewBox="0 0 61 55">
  <defs>
    <style>

      .cls-3 {
        fill: #ff3a2f;
      }

      .cls-5 {
        fill: #fbb713;
      }

      .cls-6 {
        fill: #0cb04a;
      }

      .cls-8 {
        fill: #020403;
        opacity: 0.25;
      }

      .cls-9 {
        fill: #142a3b;
      }

      .cls-14 {
        fill: #020403;
        opacity: 0.35;
      }

      .cls-19 {
        fill: #ffffff;
      }
    </style>
  </defs>
  <g id="group-159svg">
    <path d="M19.535,50.474 C19.535,50.474 23.510,50.474 23.510,50.474 C24.276,50.474 24.897,50.762 24.897,51.117 C24.897,51.471 24.276,51.758 23.510,51.758 C23.510,51.758 23.325,51.758 23.325,51.758 C22.559,51.758 21.937,52.046 21.937,52.400 C21.937,52.755 22.559,53.042 23.325,53.042 C23.325,53.042 31.870,53.042 31.870,53.042 C32.637,53.042 33.258,53.330 33.258,53.684 C33.258,54.039 32.637,54.326 31.870,54.326 C31.870,54.326 21.601,54.326 21.601,54.326 C21.601,54.326 10.313,54.326 10.313,54.326 C9.547,54.326 8.926,54.039 8.926,53.684 C8.926,53.330 9.547,53.042 10.313,53.042 C10.313,53.042 12.685,53.042 12.685,53.042 C13.452,53.042 14.073,52.755 14.073,52.400 C14.073,52.046 13.452,51.758 12.685,51.758 C12.685,51.758 1.398,51.758 1.398,51.758 C0.632,51.758 0.010,51.471 0.010,51.117 C0.010,50.762 0.632,50.474 1.398,50.474 C1.398,50.474 4.066,50.474 4.066,50.474 C4.066,50.474 19.535,50.474 19.535,50.474 Z" id="path-1" class="cls-3" fill-rule="evenodd"/>
    <path d="M11.879,18.644 C11.879,18.644 13.159,18.644 13.159,18.644 C13.406,18.644 13.606,18.860 13.606,19.127 C13.606,19.393 13.406,19.609 13.159,19.609 C13.159,19.609 13.100,19.609 13.100,19.609 C12.853,19.609 12.653,19.826 12.653,20.092 C12.653,20.359 12.853,20.576 13.100,20.576 C13.100,20.576 15.851,20.576 15.851,20.576 C16.098,20.576 16.298,20.792 16.298,21.058 C16.298,21.326 16.098,21.542 15.851,21.542 C15.851,21.542 12.545,21.542 12.545,21.542 C12.545,21.542 8.911,21.542 8.911,21.542 C8.664,21.542 8.464,21.326 8.464,21.058 C8.464,20.792 8.664,20.576 8.911,20.576 C8.911,20.576 9.674,20.576 9.674,20.576 C9.921,20.576 10.121,20.359 10.121,20.092 C10.121,19.826 9.921,19.609 9.674,19.609 C9.674,19.609 6.040,19.609 6.040,19.609 C5.793,19.609 5.593,19.393 5.593,19.127 C5.593,18.860 5.793,18.644 6.040,18.644 C6.040,18.644 6.899,18.644 6.899,18.644 C6.899,18.644 11.879,18.644 11.879,18.644 Z" id="path-2" class="cls-3" fill-rule="evenodd"/>
    <path d="M55.592,30.915 C55.592,30.915 56.872,30.915 56.872,30.915 C57.119,30.915 57.318,31.131 57.318,31.397 C57.318,31.664 57.119,31.881 56.872,31.881 C56.872,31.881 56.812,31.881 56.812,31.881 C56.565,31.881 56.366,32.096 56.366,32.364 C56.366,32.630 56.565,32.847 56.812,32.847 C56.812,32.847 59.563,32.847 59.563,32.847 C59.810,32.847 60.010,33.063 60.010,33.330 C60.010,33.597 59.810,33.812 59.563,33.812 C59.563,33.812 56.257,33.812 56.257,33.812 C56.257,33.812 52.623,33.812 52.623,33.812 C52.376,33.812 52.176,33.597 52.176,33.330 C52.176,33.063 52.376,32.847 52.623,32.847 C52.623,32.847 53.387,32.847 53.387,32.847 C53.633,32.847 53.833,32.630 53.833,32.364 C53.833,32.096 53.633,31.881 53.387,31.881 C53.387,31.881 49.753,31.881 49.753,31.881 C49.506,31.881 49.306,31.664 49.306,31.397 C49.306,31.131 49.506,30.915 49.753,30.915 C49.753,30.915 50.612,30.915 50.612,30.915 C50.612,30.915 55.592,30.915 55.592,30.915 Z" id="path-3" class="cls-5" fill-rule="evenodd"/>
    <path d="M16.041,-0.001 C16.041,-0.001 16.041,2.794 16.041,2.794 C16.041,2.794 18.141,2.794 18.141,2.794 C18.141,2.794 18.141,25.678 18.141,25.678 C18.141,25.678 8.188,49.628 8.188,49.628 C8.054,49.951 8.090,50.320 8.285,50.611 C8.479,50.904 8.807,51.079 9.158,51.079 C9.158,51.079 38.549,51.079 38.549,51.079 C38.893,51.079 39.213,50.911 39.410,50.630 C39.606,50.348 39.653,49.990 39.534,49.668 C39.534,49.668 30.737,25.700 30.737,25.700 C30.737,25.700 30.737,2.794 30.737,2.794 C30.737,2.794 32.836,2.794 32.836,2.794 C32.836,2.794 32.836,-0.001 32.836,-0.001 C32.836,-0.001 16.041,-0.001 16.041,-0.001 Z" id="path-4" class="cls-6" fill-rule="evenodd"/>
    <path d="M39.534,49.669 C39.534,49.669 30.737,25.700 30.737,25.700 C30.737,25.700 30.737,25.539 30.737,25.539 C30.737,25.539 18.141,25.539 18.141,25.539 C18.141,25.539 18.141,25.678 18.141,25.678 C18.141,25.678 8.188,49.628 8.188,49.628 C8.054,49.951 8.090,50.320 8.285,50.611 C8.479,50.904 8.808,51.079 9.158,51.079 C9.158,51.079 38.549,51.079 38.549,51.079 C38.893,51.079 39.213,50.911 39.410,50.630 C39.606,50.348 39.653,49.990 39.534,49.669 Z" id="path-5" class="cls-5" fill-rule="evenodd"/>
    <path d="M39.534,49.669 C39.534,49.669 30.737,25.700 30.737,25.700 C30.737,25.700 30.737,2.794 30.737,2.794 C30.737,2.794 32.836,2.794 32.836,2.794 C32.836,2.794 32.836,-0.001 32.836,-0.001 C32.836,-0.001 25.240,-0.001 25.240,-0.001 C25.240,-0.001 25.240,21.119 25.240,21.119 C25.240,21.119 34.038,45.088 34.038,45.088 C34.157,45.410 34.109,45.768 33.913,46.050 C33.717,46.330 33.396,46.498 33.053,46.498 C33.053,46.498 9.488,46.498 9.488,46.498 C9.488,46.498 8.188,49.628 8.188,49.628 C8.054,49.951 8.090,50.320 8.285,50.611 C8.479,50.904 8.808,51.079 9.158,51.079 C9.158,51.079 38.549,51.079 38.549,51.079 C38.893,51.079 39.213,50.911 39.410,50.630 C39.606,50.348 39.653,49.990 39.534,49.669 Z" id="path-6" class="cls-8" fill-rule="evenodd"/>
    <path d="M29.554,14.290 C29.554,14.290 19.324,14.290 19.324,14.290 C18.771,14.290 18.324,13.843 18.324,13.290 C18.324,12.738 18.771,12.290 19.324,12.290 C19.324,12.290 29.554,12.290 29.554,12.290 C30.106,12.290 30.554,12.738 30.554,13.290 C30.554,13.843 30.106,14.290 29.554,14.290 Z" id="path-7" class="cls-9" fill-rule="evenodd"/>
    <path d="M26.538,33.184 C26.538,33.184 22.339,33.184 22.339,33.184 C21.787,33.184 21.339,32.737 21.339,32.184 C21.339,31.632 21.787,31.184 22.339,31.184 C22.339,31.184 26.538,31.184 26.538,31.184 C27.090,31.184 27.538,31.632 27.538,32.184 C27.538,32.737 27.090,33.184 26.538,33.184 Z" id="path-8" class="cls-9" fill-rule="evenodd"/>
    <path d="M26.538,37.383 C26.538,37.383 22.339,37.383 22.339,37.383 C21.787,37.383 21.339,36.935 21.339,36.383 C21.339,35.831 21.787,35.383 22.339,35.383 C22.339,35.383 26.538,35.383 26.538,35.383 C27.090,35.383 27.538,35.831 27.538,36.383 C27.538,36.935 27.090,37.383 26.538,37.383 Z" id="path-9" class="cls-9" fill-rule="evenodd"/>
    <path d="M26.538,41.582 C26.538,41.582 22.339,41.582 22.339,41.582 C21.787,41.582 21.339,41.134 21.339,40.582 C21.339,40.029 21.787,39.582 22.339,39.582 C22.339,39.582 26.538,39.582 26.538,39.582 C27.090,39.582 27.538,40.029 27.538,40.582 C27.538,41.134 27.090,41.582 26.538,41.582 Z" id="path-10" class="cls-9" fill-rule="evenodd"/>
    <path d="M55.948,13.336 C53.658,13.336 51.794,15.199 51.794,17.489 C51.794,17.489 51.730,21.153 51.730,21.153 C51.730,21.153 51.730,44.781 51.730,44.781 C51.730,47.675 49.376,50.029 46.482,50.029 C43.588,50.029 41.234,47.675 41.234,44.781 C41.234,44.781 41.234,21.153 41.234,21.153 C41.234,21.153 40.915,17.489 40.915,17.489 C40.915,15.199 39.052,13.336 36.762,13.336 C36.762,13.336 55.948,13.336 55.948,13.336 Z" id="path-11" class="cls-3" fill-rule="evenodd"/>
    <path d="M50.630,13.336 C49.672,14.097 49.046,15.258 49.046,16.573 C49.046,16.573 48.982,20.237 48.982,20.237 C48.982,20.237 48.982,43.864 48.982,43.864 C48.982,46.759 46.627,49.113 43.734,49.113 C43.658,49.113 43.584,49.105 43.510,49.101 C44.355,49.685 45.379,50.029 46.482,50.029 C49.376,50.029 51.730,47.675 51.730,44.781 C51.730,44.781 51.730,21.153 51.730,21.153 C51.730,21.153 51.794,17.489 51.794,17.489 C51.794,15.199 53.658,13.336 55.948,13.336 C55.948,13.336 50.630,13.336 50.630,13.336 Z" id="path-12" class="cls-14" fill-rule="evenodd"/>
    <path d="M45.433,22.687 C45.433,22.687 43.333,22.687 43.333,22.687 C42.781,22.687 42.333,22.240 42.333,21.687 C42.333,21.136 42.781,20.687 43.333,20.687 C43.333,20.687 45.433,20.687 45.433,20.687 C45.985,20.687 46.433,21.136 46.433,21.687 C46.433,22.240 45.985,22.687 45.433,22.687 Z" id="path-13" class="cls-9" fill-rule="evenodd"/>
    <path d="M45.433,26.887 C45.433,26.887 43.333,26.887 43.333,26.887 C42.781,26.887 42.333,26.438 42.333,25.886 C42.333,25.334 42.781,24.886 43.333,24.886 C43.333,24.886 45.433,24.886 45.433,24.886 C45.985,24.886 46.433,25.334 46.433,25.886 C46.433,26.438 45.985,26.887 45.433,26.887 Z" id="path-14" class="cls-9" fill-rule="evenodd"/>
    <path d="M45.433,31.085 C45.433,31.085 43.333,31.085 43.333,31.085 C42.781,31.085 42.333,30.637 42.333,30.085 C42.333,29.533 42.781,29.085 43.333,29.085 C43.333,29.085 45.433,29.085 45.433,29.085 C45.985,29.085 46.433,29.533 46.433,30.085 C46.433,30.637 45.985,31.085 45.433,31.085 Z" id="path-15" class="cls-9" fill-rule="evenodd"/>
    <path d="M53.245,0.694 C50.929,0.694 49.046,2.578 49.046,4.893 C49.046,7.207 50.929,9.091 53.245,9.091 C55.560,9.091 57.443,7.207 57.443,4.893 C57.443,2.578 55.560,0.694 53.245,0.694 C53.245,0.694 53.245,0.694 53.245,0.694 Z" id="path-16" class="cls-9" fill-rule="evenodd"/>
    <path d="M54.161,2.336 C53.256,2.336 52.520,3.072 52.520,3.976 C52.520,4.881 53.256,5.617 54.161,5.617 C55.065,5.617 55.801,4.881 55.801,3.976 C55.801,3.072 55.065,2.336 54.161,2.336 C54.161,2.336 54.161,2.336 54.161,2.336 Z" id="path-17" class="cls-19" fill-rule="evenodd"/>
    <path d="M44.847,9.091 C43.687,9.091 42.747,10.030 42.747,11.191 C42.747,12.351 43.687,13.290 44.847,13.290 C46.007,13.290 46.946,12.351 46.946,11.191 C46.946,10.030 46.007,9.091 44.847,9.091 C44.847,9.091 44.847,9.091 44.847,9.091 Z" id="path-18" class="cls-9" fill-rule="evenodd"/>
    <path d="M46.356,49.405 C46.304,49.405 46.250,49.401 46.197,49.392 C42.931,48.869 41.861,46.200 41.751,44.863 C41.751,44.863 41.748,38.300 41.748,38.300 C41.748,37.748 42.195,37.300 42.747,37.300 C43.300,37.300 43.747,37.748 43.747,38.300 C43.747,38.300 43.747,44.781 43.747,44.781 C43.767,44.928 44.045,47.022 46.513,47.418 C47.059,47.505 47.430,48.018 47.342,48.563 C47.264,49.055 46.839,49.405 46.356,49.405 Z" id="path-19" class="cls-19" fill-rule="evenodd"/>
    <path d="M15.385,39.145 C15.256,39.145 15.125,39.119 14.999,39.066 C14.489,38.852 14.250,38.266 14.464,37.757 C14.464,37.757 19.394,26.023 19.394,26.023 C19.394,26.023 19.394,16.458 19.394,16.458 C19.394,15.906 19.842,15.458 20.394,15.458 C20.946,15.458 21.394,15.906 21.394,16.458 C21.394,16.458 21.394,26.427 21.394,26.427 C21.394,26.427 16.308,38.531 16.308,38.531 C16.147,38.915 15.776,39.145 15.385,39.145 Z" id="path-20" class="cls-19" fill-rule="evenodd"/>
  </g>
</svg>
