<svg xmlns="http://www.w3.org/2000/svg" xmlns:xlink="http://www.w3.org/1999/xlink" preserveAspectRatio="xMidYMid" width="61" height="45" viewBox="0 0 61 45">
  <defs>
    <style>

      .cls-3 {
        fill: #fbb713;
      }

      .cls-5 {
        fill: #ff3a2f;
      }

      .cls-10 {
        fill: #000000;
        opacity: 0.35;
      }
    </style>
  </defs>
  <g id="group-316svg">
    <path d="M14.462,37.230 C14.462,37.230 10.270,37.230 10.270,37.230 C9.461,37.230 8.806,37.726 8.806,38.338 C8.806,38.949 9.461,39.445 10.270,39.445 C10.270,39.445 10.465,39.445 10.465,39.445 C11.272,39.445 11.928,39.942 11.928,40.554 C11.928,41.165 11.272,41.661 10.465,41.661 C10.465,41.661 1.451,41.661 1.451,41.661 C0.643,41.661 -0.013,42.157 -0.013,42.769 C-0.013,43.381 0.643,43.877 1.451,43.877 C1.451,43.877 12.283,43.877 12.283,43.877 C12.283,43.877 34.423,43.877 34.423,43.877 C35.231,43.877 35.887,43.381 35.887,42.769 C35.887,42.157 35.231,41.661 34.423,41.661 C34.423,41.661 31.921,41.661 31.921,41.661 C31.113,41.661 30.457,41.165 30.457,40.554 C30.457,39.942 31.113,39.445 31.921,39.445 C31.921,39.445 41.746,39.445 41.746,39.445 C42.555,39.445 43.210,38.949 43.210,38.338 C43.210,37.726 42.555,37.230 41.746,37.230 C41.746,37.230 41.013,37.230 41.013,37.230 C41.013,37.230 14.462,37.230 14.462,37.230 Z" id="path-1" class="cls-3" fill-rule="evenodd"/>
    <path d="M40.466,44.174 C39.788,44.174 39.239,43.643 39.239,42.987 C39.239,42.331 39.788,41.799 40.466,41.799 C40.466,41.799 44.227,41.799 44.227,41.799 C44.904,41.799 45.454,42.331 45.454,42.987 C45.454,43.643 44.904,44.174 44.227,44.174 C44.227,44.174 40.466,44.174 40.466,44.174 Z" id="path-2" class="cls-3" fill-rule="evenodd"/>
    <path d="M48.303,34.072 C48.051,34.072 47.794,34.025 47.546,33.923 C47.546,33.923 30.728,27.042 30.728,27.042 C29.707,26.624 29.217,25.456 29.636,24.434 C30.054,23.412 31.220,22.921 32.244,23.340 C32.244,23.340 49.061,30.221 49.061,30.221 C50.083,30.639 50.573,31.807 50.154,32.829 C49.838,33.604 49.091,34.072 48.303,34.072 Z" id="path-3" class="cls-5" fill-rule="evenodd"/>
    <path d="M31.487,17.513 C30.692,17.513 29.940,17.036 29.628,16.252 C29.220,15.226 29.721,14.063 30.746,13.655 C30.746,13.655 45.527,7.769 45.527,7.769 C46.556,7.360 47.716,7.861 48.126,8.887 C48.534,9.913 48.033,11.076 47.008,11.485 C47.008,11.485 32.227,17.370 32.227,17.370 C31.983,17.467 31.733,17.513 31.487,17.513 Z" id="path-4" class="cls-5" fill-rule="evenodd"/>
    <path d="M48.304,38.697 C50.976,41.370 55.310,41.370 57.982,38.697 C60.655,36.024 60.655,31.691 57.982,29.018 C55.310,26.345 50.976,26.345 48.304,29.018 C45.631,31.691 45.631,36.024 48.304,38.697 Z" id="path-5" class="cls-5" fill-rule="evenodd"/>
    <path d="M46.268,11.663 C48.940,14.336 53.273,14.336 55.946,11.663 C58.619,8.990 58.619,4.656 55.946,1.984 C53.273,-0.689 48.940,-0.689 46.268,1.984 C43.595,4.656 43.595,8.990 46.268,11.663 Z" id="path-6" class="cls-5" fill-rule="evenodd"/>
    <path d="M20.920,27.097 C24.644,30.822 30.685,30.822 34.409,27.097 C38.135,23.372 38.135,17.332 34.409,13.607 C30.685,9.882 24.644,9.882 20.920,13.607 C17.194,17.332 17.194,23.371 20.920,27.097 Z" id="path-7" class="cls-5" fill-rule="evenodd"/>
    <path d="M57.982,29.018 C57.811,28.846 57.631,28.686 57.446,28.536 C59.625,31.224 59.465,35.178 56.965,37.679 C54.464,40.180 50.510,40.340 47.821,38.161 C47.972,38.346 48.132,38.525 48.304,38.697 C50.976,41.370 55.310,41.370 57.982,38.697 C60.655,36.024 60.655,31.691 57.982,29.018 Z" id="path-8" class="cls-10" fill-rule="evenodd"/>
    <path d="M55.946,1.984 C55.774,1.812 55.596,1.651 55.410,1.502 C57.589,4.190 57.430,8.144 54.929,10.645 C52.428,13.145 48.474,13.305 45.785,11.127 C45.936,11.311 46.096,11.491 46.268,11.663 C48.940,14.336 53.273,14.336 55.946,11.663 C58.619,8.990 58.619,4.656 55.946,1.984 Z" id="path-9" class="cls-10" fill-rule="evenodd"/>
    <path d="M34.410,13.607 C34.237,13.435 34.056,13.280 33.875,13.123 C37.101,16.871 36.945,22.526 33.392,26.079 C29.838,29.632 24.184,29.787 20.436,26.562 C20.592,26.743 20.748,26.925 20.920,27.097 C24.644,30.822 30.685,30.822 34.410,27.097 C38.135,23.372 38.135,17.332 34.410,13.607 Z" id="path-10" class="cls-10" fill-rule="evenodd"/>
  </g>
</svg>
