<svg xmlns="http://www.w3.org/2000/svg" xmlns:xlink="http://www.w3.org/1999/xlink" preserveAspectRatio="xMidYMid" width="60" height="56" viewBox="0 0 60 56">
  <defs>
    <style>

      .cls-3 {
        fill: #2476ff;
      }

      .cls-6 {
        fill: #142a3b;
      }

      .cls-8 {
        fill: #020403;
        opacity: 0.35;
      }

      .cls-10 {
        fill: #ff3a2f;
      }

      .cls-11 {
        fill: #020403;
        opacity: 0.25;
      }
    </style>
  </defs>
  <g id="group-22svg">
    <path d="M34.653,44.798 C34.653,44.798 38.242,44.798 38.242,44.798 C38.934,44.798 39.494,45.154 39.494,45.593 C39.494,46.030 38.934,46.386 38.242,46.386 C38.242,46.386 38.074,46.386 38.074,46.386 C37.383,46.386 36.822,46.741 36.822,47.180 C36.822,47.618 37.383,47.973 38.074,47.973 C38.074,47.973 45.788,47.973 45.788,47.973 C46.480,47.973 47.041,48.329 47.041,48.767 C47.041,49.205 46.480,49.561 45.788,49.561 C45.788,49.561 36.518,49.561 36.518,49.561 C36.518,49.561 26.330,49.561 26.330,49.561 C25.639,49.561 25.077,49.205 25.077,48.767 C25.077,48.329 25.639,47.973 26.330,47.973 C26.330,47.973 28.471,47.973 28.471,47.973 C29.163,47.973 29.724,47.618 29.724,47.180 C29.724,46.741 29.163,46.386 28.471,46.386 C28.471,46.386 18.282,46.386 18.282,46.386 C17.591,46.386 17.029,46.030 17.029,45.593 C17.029,45.154 17.591,44.798 18.282,44.798 C18.282,44.798 20.690,44.798 20.690,44.798 C20.690,44.798 34.653,44.798 34.653,44.798 Z" id="path-1" class="cls-3" fill-rule="evenodd"/>
    <path d="M58.133,51.210 C59.171,51.210 60.012,50.677 60.012,50.019 C60.012,49.361 59.171,48.829 58.133,48.829 C58.133,48.829 52.375,48.829 52.375,48.829 C51.337,48.829 50.496,49.361 50.496,50.019 C50.496,50.677 51.337,51.210 52.375,51.210 C52.375,51.210 58.133,51.210 58.133,51.210 Z" id="path-2" class="cls-3" fill-rule="evenodd"/>
    <path d="M23.571,56.504 C24.609,56.504 25.451,55.971 25.451,55.313 C25.451,54.655 24.609,54.123 23.571,54.123 C23.571,54.123 17.813,54.123 17.813,54.123 C16.775,54.123 15.935,54.655 15.935,55.313 C15.935,55.971 16.775,56.504 17.813,56.504 C17.813,56.504 23.571,56.504 23.571,56.504 Z" id="path-3" class="cls-3" fill-rule="evenodd"/>
    <path d="M15.997,39.745 C15.997,39.745 23.519,3.321 23.519,3.321 C23.519,3.321 0.012,3.321 0.012,3.321 C0.012,3.321 7.534,39.745 7.534,39.745 C7.534,39.745 15.997,39.745 15.997,39.745 Z" id="path-4" class="cls-6" fill-rule="evenodd"/>
    <path d="M48.795,39.745 C48.795,39.745 56.317,3.321 56.317,3.321 C56.317,3.321 32.810,3.321 32.810,3.321 C32.810,3.321 40.332,39.745 40.332,39.745 C40.332,39.745 48.795,39.745 48.795,39.745 Z" id="path-5" class="cls-6" fill-rule="evenodd"/>
    <path d="M40.332,39.745 C40.332,39.745 48.795,39.745 48.795,39.745 C48.795,39.745 50.037,33.731 50.037,33.731 C50.037,33.731 50.037,32.982 50.037,32.982 C50.037,30.472 47.983,28.419 45.474,28.419 C45.474,28.419 43.653,28.419 43.653,28.419 C41.144,28.419 39.090,30.472 39.090,32.982 C39.090,32.982 39.090,33.731 39.090,33.731 C39.090,33.731 40.332,39.745 40.332,39.745 Z" id="path-6" class="cls-8" fill-rule="evenodd"/>
    <path d="M7.534,39.745 C7.534,39.745 15.997,39.745 15.997,39.745 C15.997,39.745 17.239,33.731 17.239,33.731 C17.239,33.731 17.239,32.982 17.239,32.982 C17.239,30.472 15.186,28.419 12.676,28.419 C12.676,28.419 10.855,28.419 10.855,28.419 C8.346,28.419 6.292,30.472 6.292,32.982 C6.292,32.982 6.292,33.731 6.292,33.731 C6.292,33.731 7.534,39.745 7.534,39.745 Z" id="path-7" class="cls-8" fill-rule="evenodd"/>
    <path d="M44.813,50.019 C44.813,50.019 44.313,50.019 44.313,50.019 C41.941,50.019 40.000,48.078 40.000,45.706 C40.000,45.706 40.000,35.653 40.000,35.653 C40.000,33.281 41.941,31.340 44.313,31.340 C44.313,31.340 44.813,31.340 44.813,31.340 C47.186,31.340 49.127,33.281 49.127,35.653 C49.127,35.653 49.127,45.706 49.127,45.706 C49.127,48.078 47.186,50.019 44.813,50.019 Z" id="path-8" class="cls-10" fill-rule="evenodd"/>
    <path d="M45.082,46.196 C45.082,46.196 44.046,46.196 44.046,46.196 C42.849,46.196 41.868,45.216 41.868,44.019 C41.868,44.019 41.868,37.341 41.868,37.341 C41.868,36.143 42.849,35.164 44.046,35.164 C44.046,35.164 45.082,35.164 45.082,35.164 C46.279,35.164 47.259,36.143 47.259,37.341 C47.259,37.341 47.259,44.019 47.259,44.019 C47.259,45.216 46.279,46.196 45.082,46.196 Z" id="path-9" class="cls-11" fill-rule="evenodd"/>
    <path d="M46.014,45.138 C46.014,45.138 45.230,45.138 45.230,45.138 C43.963,45.138 42.927,44.102 42.927,42.835 C42.927,42.835 42.927,36.409 42.927,36.409 C42.927,36.048 43.019,35.710 43.168,35.405 C42.403,35.781 41.868,36.561 41.868,37.467 C41.868,37.467 41.868,43.892 41.868,43.892 C41.868,45.159 42.905,46.196 44.172,46.196 C44.172,46.196 44.955,46.196 44.955,46.196 C45.861,46.196 46.642,45.661 47.018,44.897 C46.712,45.046 46.374,45.138 46.014,45.138 Z" id="path-10" class="cls-8" fill-rule="evenodd"/>
    <path d="M12.016,50.019 C12.016,50.019 11.516,50.019 11.516,50.019 C9.144,50.019 7.202,48.078 7.202,45.706 C7.202,45.706 7.202,35.653 7.202,35.653 C7.202,33.281 9.144,31.340 11.516,31.340 C11.516,31.340 12.016,31.340 12.016,31.340 C14.388,31.340 16.329,33.281 16.329,35.653 C16.329,35.653 16.329,45.706 16.329,45.706 C16.329,48.078 14.388,50.019 12.016,50.019 Z" id="path-11" class="cls-10" fill-rule="evenodd"/>
    <path d="M13.215,45.138 C13.215,45.138 12.432,45.138 12.432,45.138 C11.165,45.138 10.129,44.102 10.129,42.835 C10.129,42.835 10.129,36.409 10.129,36.409 C10.129,36.048 10.220,35.710 10.370,35.405 C9.604,35.781 9.070,36.561 9.070,37.467 C9.070,37.467 9.070,43.892 9.070,43.892 C9.070,45.159 10.107,46.196 11.374,46.196 C11.374,46.196 12.157,46.196 12.157,46.196 C13.063,46.196 13.844,45.661 14.220,44.897 C13.914,45.046 13.576,45.138 13.215,45.138 Z" id="path-12" class="cls-8" fill-rule="evenodd"/>
    <path d="M12.283,46.196 C12.283,46.196 11.248,46.196 11.248,46.196 C10.050,46.196 9.070,45.216 9.070,44.019 C9.070,44.019 9.070,37.341 9.070,37.341 C9.070,36.143 10.050,35.164 11.248,35.164 C11.248,35.164 12.283,35.164 12.283,35.164 C13.480,35.164 14.461,36.143 14.461,37.341 C14.461,37.341 14.461,44.019 14.461,44.019 C14.461,45.216 13.480,46.196 12.283,46.196 Z" id="path-13" class="cls-11" fill-rule="evenodd"/>
    <path d="M49.471,12.042 C49.420,12.042 49.369,12.040 49.317,12.035 C48.493,11.950 47.893,11.215 47.977,10.391 C47.977,10.391 48.545,4.783 48.545,4.783 C48.628,3.958 49.359,3.359 50.188,3.442 C51.013,3.525 51.613,4.261 51.529,5.085 C51.529,5.085 50.961,10.694 50.961,10.694 C50.883,11.466 50.231,12.042 49.471,12.042 Z" id="path-14" class="cls-8" fill-rule="evenodd"/>
    <path d="M42.150,12.042 C41.390,12.042 40.738,11.466 40.660,10.694 C40.660,10.694 40.092,5.085 40.092,5.085 C40.008,4.261 40.608,3.525 41.433,3.442 C42.260,3.359 42.993,3.958 43.076,4.783 C43.076,4.783 43.644,10.391 43.644,10.391 C43.728,11.215 43.128,11.950 42.304,12.035 C42.252,12.040 42.201,12.042 42.150,12.042 Z" id="path-15" class="cls-8" fill-rule="evenodd"/>
    <path d="M16.673,12.042 C16.622,12.042 16.571,12.040 16.519,12.035 C15.695,11.950 15.095,11.215 15.179,10.391 C15.179,10.391 15.747,4.783 15.747,4.783 C15.831,3.958 16.563,3.359 17.391,3.442 C18.215,3.525 18.815,4.261 18.731,5.085 C18.731,5.085 18.163,10.694 18.163,10.694 C18.085,11.466 17.434,12.042 16.673,12.042 Z" id="path-16" class="cls-8" fill-rule="evenodd"/>
    <path d="M9.353,12.042 C8.592,12.042 7.940,11.466 7.862,10.694 C7.862,10.694 7.294,5.085 7.294,5.085 C7.210,4.261 7.811,3.525 8.635,3.442 C9.463,3.359 10.195,3.958 10.278,4.783 C10.278,4.783 10.847,10.391 10.847,10.391 C10.931,11.215 10.330,11.950 9.506,12.035 C9.454,12.040 9.403,12.042 9.353,12.042 Z" id="path-17" class="cls-8" fill-rule="evenodd"/>
    <path d="M41.039,12.600 C40.532,12.600 40.099,12.217 40.045,11.702 C40.045,11.702 38.952,1.089 38.952,1.089 C38.895,0.540 39.296,0.048 39.845,-0.008 C40.399,-0.064 40.885,0.334 40.942,0.884 C40.942,0.884 42.035,11.498 42.035,11.498 C42.092,12.047 41.691,12.538 41.143,12.594 C41.107,12.599 41.073,12.600 41.039,12.600 Z" id="path-18" class="cls-10" fill-rule="evenodd"/>
    <path d="M48.412,12.600 C48.388,12.600 48.363,12.599 48.339,12.597 C47.788,12.557 47.374,12.079 47.414,11.528 C47.414,11.528 48.183,0.914 48.183,0.914 C48.223,0.364 48.707,-0.048 49.252,-0.011 C49.803,0.029 50.217,0.508 50.177,1.058 C50.177,1.058 49.408,11.672 49.408,11.672 C49.370,12.199 48.932,12.600 48.412,12.600 Z" id="path-19" class="cls-10" fill-rule="evenodd"/>
    <path d="M15.613,12.600 C15.589,12.600 15.564,12.599 15.540,12.597 C14.989,12.557 14.575,12.079 14.615,11.528 C14.615,11.528 15.385,0.914 15.385,0.914 C15.425,0.364 15.907,-0.048 16.454,-0.011 C17.005,0.029 17.419,0.508 17.379,1.058 C17.379,1.058 16.609,11.672 16.609,11.672 C16.571,12.199 16.133,12.600 15.613,12.600 Z" id="path-20" class="cls-10" fill-rule="evenodd"/>
    <path d="M8.241,12.600 C7.734,12.600 7.301,12.217 7.247,11.702 C7.247,11.702 6.154,1.089 6.154,1.089 C6.098,0.540 6.498,0.048 7.047,-0.008 C7.598,-0.064 8.087,0.334 8.144,0.884 C8.144,0.884 9.237,11.498 9.237,11.498 C9.294,12.047 8.894,12.538 8.345,12.594 C8.310,12.599 8.275,12.600 8.241,12.600 Z" id="path-21" class="cls-10" fill-rule="evenodd"/>
  </g>
</svg>
