<svg xmlns="http://www.w3.org/2000/svg" xmlns:xlink="http://www.w3.org/1999/xlink" preserveAspectRatio="xMidYMid" width="61" height="30" viewBox="0 0 61 30">
  <defs>
    <style>

      .cls-3 {
        fill: #fbb713;
      }

      .cls-6 {
        fill: #ff3a2f;
      }

      .cls-8 {
        fill: #000000;
        opacity: 0.35;
      }
    </style>
  </defs>
  <g id="group-289svg">
    <path d="M28.046,22.139 C28.046,22.139 23.722,22.139 23.722,22.139 C22.888,22.139 22.212,22.650 22.212,23.281 C22.212,23.912 22.888,24.424 23.722,24.424 C23.722,24.424 23.923,24.424 23.923,24.424 C24.757,24.424 25.433,24.935 25.433,25.566 C25.433,26.198 24.757,26.709 23.923,26.709 C23.923,26.709 14.626,26.709 14.626,26.709 C13.793,26.709 13.117,27.220 13.117,27.852 C13.117,28.483 13.793,28.995 14.626,28.995 C14.626,28.995 25.798,28.995 25.798,28.995 C25.798,28.995 48.633,28.995 48.633,28.995 C49.467,28.995 50.142,28.483 50.142,27.852 C50.142,27.220 49.467,26.709 48.633,26.709 C48.633,26.709 46.053,26.709 46.053,26.709 C45.219,26.709 44.543,26.198 44.543,25.566 C44.543,24.935 45.219,24.424 46.053,24.424 C46.053,24.424 56.186,24.424 56.186,24.424 C57.020,24.424 57.696,23.912 57.696,23.281 C57.696,22.650 57.020,22.139 56.186,22.139 C56.186,22.139 55.430,22.139 55.430,22.139 C55.430,22.139 28.046,22.139 28.046,22.139 Z" id="path-1" class="cls-3" fill-rule="evenodd"/>
    <path d="M54.866,29.300 C54.167,29.300 53.600,28.752 53.600,28.076 C53.600,27.399 54.167,26.851 54.866,26.851 C54.866,26.851 58.745,26.851 58.745,26.851 C59.444,26.851 60.010,27.399 60.010,28.076 C60.010,28.752 59.444,29.300 58.745,29.300 C58.745,29.300 54.866,29.300 54.866,29.300 Z" id="path-2" class="cls-3" fill-rule="evenodd"/>
    <path d="M1.276,29.300 C0.577,29.300 0.010,28.752 0.010,28.076 C0.010,27.399 0.577,26.851 1.276,26.851 C1.276,26.851 5.155,26.851 5.155,26.851 C5.854,26.851 6.420,27.399 6.420,28.076 C6.420,28.752 5.854,29.300 5.155,29.300 C5.155,29.300 1.276,29.300 1.276,29.300 Z" id="path-3" class="cls-3" fill-rule="evenodd"/>
    <path d="M9.210,6.656 C9.210,6.656 4.590,18.026 32.055,17.943 C59.520,17.860 59.353,8.316 57.335,6.656 C55.320,4.996 54.397,4.166 45.242,4.332 C37.593,4.040 33.941,1.205 28.478,0.364 C22.002,-0.633 11.896,-0.001 9.210,6.656 Z" id="path-4" class="cls-6" fill-rule="evenodd"/>
    <path d="M8.918,9.055 C8.918,9.055 8.918,13.763 8.918,13.763 C8.928,16.971 11.548,23.295 32.056,23.232 C53.994,23.166 58.299,17.064 58.117,13.763 C58.117,13.763 58.117,9.055 58.117,9.055 C58.117,9.055 58.117,9.055 58.117,9.055 " id="path-5" class="cls-6" fill-rule="evenodd"/>
    <path d="M58.117,9.055 C58.117,9.055 58.117,13.763 58.117,13.763 C58.299,17.064 53.994,23.166 32.056,23.232 C11.548,23.295 8.928,16.971 8.918,13.763 C8.918,13.763 8.918,9.055 8.918,9.055 C8.918,9.055 10.164,20.777 42.980,16.144 C42.980,16.144 57.162,14.961 58.117,9.055 Z" id="path-6" class="cls-8" fill-rule="evenodd"/>
    <path d="M24.523,7.780 C24.523,9.201 22.567,10.354 20.156,10.354 C17.744,10.354 15.789,9.201 15.789,7.780 C15.789,6.360 17.744,5.208 20.156,5.208 C22.567,5.208 24.523,6.360 24.523,7.780 Z" id="path-7" class="cls-3" fill-rule="evenodd"/>
  </g>
</svg>
