<svg xmlns="http://www.w3.org/2000/svg" xmlns:xlink="http://www.w3.org/1999/xlink" preserveAspectRatio="xMidYMid" width="61" height="53" viewBox="0 0 61 53">
  <defs>
    <style>

      .cls-3 {
        fill: #ff3a2f;
      }

      .cls-8 {
        fill: #fbb713;
      }

      .cls-9 {
        fill: #010101;
        opacity: 0.25;
      }

      .cls-10 {
        fill: #142a3b;
      }

      .cls-14 {
        fill: #010101;
        opacity: 0.35;
      }

      .cls-15 {
        fill: #ffffff;
      }
    </style>
  </defs>
  <g id="group-153svg">
    <path d="M20.887,42.982 C20.887,42.982 15.184,42.982 15.184,42.982 C14.084,42.982 13.192,43.670 13.192,44.518 C13.192,45.367 14.084,46.056 15.184,46.056 C15.184,46.056 15.449,46.056 15.449,46.056 C16.549,46.056 17.439,46.743 17.439,47.592 C17.439,48.440 16.549,49.129 15.449,49.129 C15.449,49.129 3.189,49.129 3.189,49.129 C2.090,49.129 1.198,49.817 1.198,50.665 C1.198,51.514 2.090,52.202 3.189,52.202 C3.189,52.202 17.922,52.202 17.922,52.202 C17.922,52.202 48.035,52.202 48.035,52.202 C49.135,52.202 50.026,51.514 50.026,50.665 C50.026,49.817 49.135,49.129 48.035,49.129 C48.035,49.129 44.633,49.129 44.633,49.129 C43.533,49.129 42.643,48.440 42.643,47.592 C42.643,46.743 43.533,46.056 44.633,46.056 C44.633,46.056 57.996,46.056 57.996,46.056 C59.096,46.056 59.987,45.367 59.987,44.518 C59.987,43.670 59.096,42.982 57.996,42.982 C57.996,42.982 56.999,42.982 56.999,42.982 C56.999,42.982 20.887,42.982 20.887,42.982 Z" id="path-1" class="cls-3" fill-rule="evenodd"/>
    <path d="M1.656,44.731 C0.734,44.731 -0.013,44.363 -0.013,43.908 C-0.013,43.453 0.734,43.085 1.656,43.085 C1.656,43.085 6.771,43.085 6.771,43.085 C7.693,43.085 8.440,43.453 8.440,43.908 C8.440,44.363 7.693,44.731 6.771,44.731 C6.771,44.731 1.656,44.731 1.656,44.731 Z" id="path-2" class="cls-3" fill-rule="evenodd"/>
    <path d="M56.426,29.986 C56.426,29.986 57.437,29.986 57.437,29.986 C57.633,29.986 57.792,30.260 57.792,30.599 C57.792,30.938 57.633,31.213 57.437,31.213 C57.437,31.213 57.391,31.213 57.391,31.213 C57.195,31.213 57.037,31.488 57.037,31.827 C57.037,32.166 57.195,32.440 57.391,32.440 C57.391,32.440 59.568,32.440 59.568,32.440 C59.764,32.440 59.922,32.715 59.922,33.055 C59.922,33.393 59.764,33.668 59.568,33.668 C59.568,33.668 56.951,33.668 56.951,33.668 C56.951,33.668 51.604,33.668 51.604,33.668 C51.408,33.668 51.250,33.393 51.250,33.055 C51.250,32.715 51.408,32.440 51.604,32.440 C51.604,32.440 52.208,32.440 52.208,32.440 C52.403,32.440 52.561,32.166 52.561,31.827 C52.561,31.488 52.403,31.213 52.208,31.213 C52.208,31.213 49.332,31.213 49.332,31.213 C49.138,31.213 48.979,30.938 48.979,30.599 C48.979,30.260 49.138,29.986 49.332,29.986 C49.332,29.986 50.012,29.986 50.012,29.986 C50.012,29.986 56.426,29.986 56.426,29.986 Z" id="path-3" class="cls-3" fill-rule="evenodd"/>
    <path d="M48.744,34.332 C49.108,34.332 49.404,34.105 49.404,33.824 C49.404,33.543 49.108,33.316 48.744,33.316 C48.744,33.316 46.723,33.316 46.723,33.316 C46.359,33.316 46.063,33.543 46.063,33.824 C46.063,34.105 46.359,34.332 46.723,34.332 C46.723,34.332 48.744,34.332 48.744,34.332 Z" id="path-4" class="cls-3" fill-rule="evenodd"/>
    <path d="M11.016,34.332 C11.380,34.332 11.675,34.105 11.675,33.824 C11.675,33.543 11.380,33.316 11.016,33.316 C11.016,33.316 8.994,33.316 8.994,33.316 C8.630,33.316 8.334,33.543 8.334,33.824 C8.334,34.105 8.630,34.332 8.994,34.332 C8.994,34.332 11.016,34.332 11.016,34.332 Z" id="path-5" class="cls-3" fill-rule="evenodd"/>
    <path d="M35.994,4.309 C35.994,4.309 23.732,4.309 23.732,4.309 C23.732,4.309 16.186,10.912 16.186,10.912 C16.186,10.912 16.186,21.071 16.186,21.071 C16.186,21.071 16.186,40.421 16.186,40.421 C16.186,43.398 18.600,45.811 21.577,45.811 C21.577,45.811 38.149,45.811 38.149,45.811 C41.127,45.811 43.540,43.398 43.540,40.421 C43.540,40.421 43.540,10.912 43.540,10.912 C43.540,10.912 35.994,4.309 35.994,4.309 Z" id="path-6" class="cls-8" fill-rule="evenodd"/>
    <path d="M35.994,4.309 C35.994,4.309 23.193,4.309 23.193,4.309 C23.193,4.309 33.028,8.558 33.028,8.558 C35.322,9.549 36.924,11.768 36.937,14.267 C36.937,14.284 36.937,14.299 36.937,14.316 C36.937,14.316 36.937,37.591 36.937,37.591 C36.937,40.569 34.523,42.982 31.547,42.982 C31.547,42.982 16.833,42.982 16.833,42.982 C17.744,44.667 19.526,45.811 21.577,45.811 C21.577,45.811 38.149,45.811 38.149,45.811 C41.127,45.811 43.540,43.398 43.540,40.421 C43.540,40.421 43.540,10.912 43.540,10.912 C43.540,10.912 35.994,4.309 35.994,4.309 Z" id="path-7" class="cls-9" fill-rule="evenodd"/>
    <path d="M24.812,21.812 C24.812,21.812 17.812,21.812 17.812,21.812 C17.260,21.812 16.812,21.364 16.812,20.812 C16.812,20.261 17.260,19.812 17.812,19.812 C17.812,19.812 24.812,19.812 24.812,19.812 C25.365,19.812 25.812,20.261 25.812,20.812 C25.812,21.364 25.365,21.812 24.812,21.812 Z" id="path-8" class="cls-10" fill-rule="evenodd"/>
    <path d="M24.812,33.812 C24.812,33.812 17.812,33.812 17.812,33.812 C17.260,33.812 16.812,33.365 16.812,32.812 C16.812,32.261 17.260,31.812 17.812,31.812 C17.812,31.812 24.812,31.812 24.812,31.812 C25.365,31.812 25.812,32.261 25.812,32.812 C25.812,33.365 25.365,33.812 24.812,33.812 Z" id="path-9" class="cls-10" fill-rule="evenodd"/>
    <path d="M24.812,27.812 C24.812,27.812 17.812,27.812 17.812,27.812 C17.260,27.812 16.812,27.365 16.812,26.812 C16.812,26.260 17.260,25.812 17.812,25.812 C17.812,25.812 24.812,25.812 24.812,25.812 C25.365,25.812 25.812,26.260 25.812,26.812 C25.812,27.365 25.365,27.812 24.812,27.812 Z" id="path-10" class="cls-10" fill-rule="evenodd"/>
    <path d="M37.584,4.932 C37.584,4.932 22.143,4.932 22.143,4.932 C20.780,4.932 19.676,3.828 19.676,2.465 C19.676,2.465 19.676,2.465 19.676,2.465 C19.676,1.103 20.780,-0.001 22.143,-0.001 C22.143,-0.001 37.584,-0.001 37.584,-0.001 C38.946,-0.001 40.051,1.103 40.051,2.465 C40.051,2.465 40.051,2.465 40.051,2.465 C40.051,3.828 38.946,4.932 37.584,4.932 Z" id="path-11" class="cls-3" fill-rule="evenodd"/>
    <path d="M37.628,0.003 C37.959,0.423 38.164,0.946 38.164,1.522 C38.164,2.884 37.060,3.989 35.697,3.989 C35.697,3.989 20.256,3.989 20.256,3.989 C20.241,3.989 20.226,3.985 20.213,3.984 C20.664,4.557 21.356,4.932 22.143,4.932 C22.143,4.932 37.584,4.932 37.584,4.932 C38.946,4.932 40.051,3.828 40.051,2.465 C40.051,1.118 38.970,0.027 37.628,0.003 Z" id="path-12" class="cls-14" fill-rule="evenodd"/>
    <path d="M20.876,18.222 C20.048,18.222 19.376,17.550 19.376,16.721 C19.376,16.721 19.376,11.495 19.376,11.495 C19.376,11.495 23.349,7.288 23.349,7.288 C23.918,6.686 24.867,6.659 25.470,7.228 C26.071,7.797 26.099,8.746 25.530,9.348 C25.530,9.348 22.376,12.687 22.376,12.687 C22.376,12.687 22.376,16.721 22.376,16.721 C22.376,17.550 21.704,18.222 20.876,18.222 Z" id="path-13" class="cls-15" fill-rule="evenodd"/>
  </g>
</svg>
