<svg xmlns="http://www.w3.org/2000/svg" xmlns:xlink="http://www.w3.org/1999/xlink" preserveAspectRatio="xMidYMid" width="61" height="53" viewBox="0 0 61 53">
  <defs>
    <style>

      .cls-3 {
        fill: #0cb04a;
      }

      .cls-7 {
        fill: #020403;
        opacity: 0.25;
      }

      .cls-8 {
        fill: #ff3a2f;
      }

      .cls-9 {
        fill: #ffffff;
      }

      .cls-15 {
        fill: #020403;
        opacity: 0.35;
      }
    </style>
  </defs>
  <g id="group-45svg">
    <path d="M57.970,17.928 C57.970,19.291 56.864,20.397 55.501,20.397 C54.139,20.397 53.033,19.291 53.033,17.928 C53.033,16.565 54.139,15.460 55.501,15.460 C56.864,15.460 57.970,16.565 57.970,17.928 Z" id="path-1" class="cls-3" fill-rule="evenodd"/>
    <path d="M18.497,2.464 C18.497,3.827 17.392,4.931 16.028,4.931 C14.665,4.931 13.561,3.827 13.561,2.464 C13.561,1.100 14.665,-0.005 16.028,-0.005 C17.392,-0.005 18.497,1.100 18.497,2.464 Z" id="path-2" class="cls-3" fill-rule="evenodd"/>
    <path d="M43.932,40.081 C43.932,40.081 49.416,40.081 49.416,40.081 C49.416,40.081 49.416,26.122 49.416,26.122 C49.416,26.122 43.932,26.122 43.932,26.122 C43.932,26.122 41.886,26.122 41.886,26.122 C41.886,26.122 41.886,29.449 41.886,29.449 C41.886,29.449 46.477,29.449 46.477,29.449 C46.477,29.449 46.477,37.093 46.477,37.093 C46.477,37.093 41.886,37.093 41.886,37.093 C41.886,37.093 41.886,40.081 41.886,40.081 C41.886,40.081 43.932,40.081 43.932,40.081 Z" id="path-3" class="cls-3" fill-rule="evenodd"/>
    <path d="M42.436,19.641 C42.436,19.641 42.436,44.198 42.436,44.198 C42.436,46.769 40.711,49.055 38.140,49.055 C38.140,49.055 21.845,49.055 21.845,49.055 C19.273,49.055 17.509,46.769 17.509,44.198 C17.509,44.198 17.509,19.641 17.509,19.641 C17.509,19.641 42.436,19.641 42.436,19.641 Z" id="path-4" class="cls-3" fill-rule="evenodd"/>
    <path d="M42.436,19.641 C42.436,19.641 37.451,19.641 37.451,19.641 C37.451,19.641 37.451,21.941 37.451,21.941 C36.993,21.616 36.571,21.245 36.200,20.827 C34.870,22.328 32.933,23.280 30.769,23.280 C28.134,23.280 25.833,21.872 24.561,19.772 C23.288,21.872 20.988,23.280 18.354,23.280 C18.066,23.280 17.786,23.259 17.509,23.226 C17.509,23.226 17.509,27.259 17.509,27.259 C20.079,27.204 22.316,25.819 23.563,23.760 C24.836,25.861 27.137,27.269 29.771,27.269 C31.935,27.269 33.873,26.317 35.203,24.815 C35.830,25.523 36.595,26.101 37.451,26.523 C37.451,26.523 37.451,44.197 37.451,44.197 C37.451,46.769 35.726,49.055 33.154,49.055 C33.154,49.055 38.140,49.055 38.140,49.055 C40.711,49.055 42.436,46.769 42.436,44.197 C42.436,44.197 42.436,27.034 42.436,27.034 C42.436,27.034 42.436,23.226 42.436,23.226 C42.436,23.226 42.436,19.641 42.436,19.641 Z" id="path-5" class="cls-7" fill-rule="evenodd"/>
    <path d="M41.632,9.755 C39.468,9.755 36.734,11.165 36.604,11.039 C38.197,10.220 38.514,9.341 38.514,7.427 C38.514,4.703 36.305,2.493 33.580,2.493 C30.855,2.493 28.646,4.703 28.646,7.427 C28.646,7.753 26.403,6.373 24.776,6.373 C22.520,6.373 20.621,7.890 20.034,9.959 C19.494,9.831 18.933,9.755 18.354,9.755 C14.343,9.755 11.092,13.006 11.092,17.016 C11.092,21.027 14.343,24.277 18.354,24.277 C20.988,24.277 23.288,22.869 24.561,20.769 C25.833,22.869 28.134,24.277 30.769,24.277 C32.933,24.277 34.870,23.326 36.200,21.823 C37.530,23.326 39.468,24.277 41.632,24.277 C45.643,24.277 48.893,21.027 48.893,17.016 C48.893,13.006 45.643,9.755 41.632,9.755 Z" id="path-6" class="cls-8" fill-rule="evenodd"/>
    <path d="M13.746,19.461 C13.710,19.461 13.673,19.459 13.636,19.455 C13.086,19.394 12.690,18.900 12.751,18.351 C13.006,16.046 14.231,13.940 16.112,12.573 C16.561,12.248 17.185,12.349 17.510,12.795 C17.834,13.241 17.734,13.867 17.288,14.191 C15.861,15.228 14.932,16.824 14.739,18.571 C14.683,19.083 14.249,19.461 13.746,19.461 Z" id="path-7" class="cls-9" fill-rule="evenodd"/>
    <path d="M22.030,11.092 C21.800,11.092 21.568,11.013 21.380,10.852 C20.960,10.493 20.911,9.862 21.270,9.442 C22.398,8.124 24.040,7.368 25.773,7.368 C26.326,7.368 26.773,7.815 26.773,8.368 C26.773,8.920 26.326,9.368 25.773,9.368 C24.625,9.368 23.538,9.869 22.790,10.743 C22.592,10.973 22.311,11.092 22.030,11.092 Z" id="path-8" class="cls-9" fill-rule="evenodd"/>
    <path d="M22.566,19.772 C21.294,21.872 18.994,23.280 16.359,23.280 C15.594,23.280 14.857,23.160 14.164,22.941 C15.349,23.780 16.791,24.277 18.354,24.277 C20.666,24.277 22.721,23.192 24.049,21.506 C23.472,21.007 22.964,20.428 22.566,19.772 Z" id="path-9" class="cls-7" fill-rule="evenodd"/>
    <path d="M36.519,6.430 C36.519,8.344 36.203,9.223 34.610,10.041 C34.716,10.144 36.550,9.227 38.396,8.885 C38.478,8.471 38.514,8.000 38.514,7.427 C38.514,5.089 36.883,3.141 34.700,2.632 C35.802,3.538 36.519,4.893 36.519,6.430 Z" id="path-10" class="cls-7" fill-rule="evenodd"/>
    <path d="M34.206,20.827 C32.876,22.328 30.938,23.280 28.774,23.280 C28.005,23.280 27.269,23.148 26.575,22.926 C27.760,23.771 29.201,24.277 30.769,24.277 C32.745,24.277 34.527,23.477 35.836,22.195 C35.228,21.819 34.678,21.359 34.206,20.827 Z" id="path-11" class="cls-7" fill-rule="evenodd"/>
    <path d="M43.826,10.094 C45.684,11.410 46.899,13.571 46.899,16.019 C46.899,20.030 43.647,23.280 39.638,23.280 C38.873,23.280 38.140,23.157 37.448,22.936 C38.631,23.777 40.070,24.277 41.632,24.277 C45.643,24.277 48.894,21.027 48.894,17.016 C48.894,13.771 46.764,11.025 43.826,10.094 Z" id="path-12" class="cls-7" fill-rule="evenodd"/>
    <path d="M26.482,45.568 C25.930,45.568 25.482,45.121 25.482,44.568 C25.482,44.568 25.482,28.615 25.482,28.615 C25.482,28.062 25.930,27.615 26.482,27.615 C27.035,27.615 27.482,28.062 27.482,28.615 C27.482,28.615 27.482,44.568 27.482,44.568 C27.482,45.121 27.035,45.568 26.482,45.568 Z" id="path-13" class="cls-15" fill-rule="evenodd"/>
    <path d="M33.462,45.568 C32.909,45.568 32.462,45.121 32.462,44.568 C32.462,44.568 32.462,28.615 32.462,28.615 C32.462,28.062 32.909,27.615 33.462,27.615 C34.015,27.615 34.462,28.062 34.462,28.615 C34.462,28.615 34.462,44.568 34.462,44.568 C34.462,45.121 34.015,45.568 33.462,45.568 Z" id="path-14" class="cls-15" fill-rule="evenodd"/>
    <path d="M7.017,30.520 C7.017,30.520 8.448,30.520 8.448,30.520 C8.724,30.520 8.947,30.762 8.947,31.060 C8.947,31.358 8.724,31.600 8.448,31.600 C8.448,31.600 8.382,31.600 8.382,31.600 C8.105,31.600 7.882,31.842 7.882,32.140 C7.882,32.438 8.105,32.679 8.382,32.679 C8.382,32.679 11.456,32.679 11.456,32.679 C11.732,32.679 11.955,32.921 11.955,33.219 C11.955,33.518 11.732,33.759 11.456,33.759 C11.456,33.759 7.761,33.759 7.761,33.759 C7.761,33.759 3.700,33.759 3.700,33.759 C3.424,33.759 3.200,33.518 3.200,33.219 C3.200,32.921 3.424,32.679 3.700,32.679 C3.700,32.679 4.553,32.679 4.553,32.679 C4.829,32.679 5.053,32.438 5.053,32.140 C5.053,31.842 4.829,31.600 4.553,31.600 C4.553,31.600 0.492,31.600 0.492,31.600 C0.216,31.600 -0.008,31.358 -0.008,31.060 C-0.008,30.762 0.216,30.520 0.492,30.520 C0.492,30.520 1.451,30.520 1.451,30.520 C1.451,30.520 7.017,30.520 7.017,30.520 Z" id="path-15" class="cls-8" fill-rule="evenodd"/>
    <path d="M44.342,48.716 C44.342,48.716 48.544,48.716 48.544,48.716 C49.354,48.716 50.011,49.038 50.011,49.436 C50.011,49.833 49.354,50.155 48.544,50.155 C48.544,50.155 48.349,50.155 48.349,50.155 C47.538,50.155 46.881,50.478 46.881,50.876 C46.881,51.273 47.538,51.595 48.349,51.595 C48.349,51.595 57.383,51.595 57.383,51.595 C58.192,51.595 58.850,51.918 58.850,52.316 C58.850,52.713 58.192,53.036 57.383,53.036 C57.383,53.036 46.525,53.036 46.525,53.036 C46.525,53.036 34.594,53.036 34.594,53.036 C33.783,53.036 33.126,52.713 33.126,52.316 C33.126,51.918 33.783,51.595 34.594,51.595 C34.594,51.595 37.101,51.595 37.101,51.595 C37.911,51.595 38.567,51.273 38.567,50.876 C38.567,50.478 37.911,50.155 37.101,50.155 C37.101,50.155 25.168,50.155 25.168,50.155 C24.357,50.155 23.701,49.833 23.701,49.436 C23.701,49.038 24.357,48.716 25.168,48.716 C25.168,48.716 27.988,48.716 27.988,48.716 C27.988,48.716 44.342,48.716 44.342,48.716 Z" id="path-16" class="cls-8" fill-rule="evenodd"/>
    <path d="M55.217,35.879 C55.217,35.879 56.600,35.879 56.600,35.879 C56.867,35.879 57.083,36.097 57.083,36.365 C57.083,36.633 56.867,36.851 56.600,36.851 C56.600,36.851 56.536,36.851 56.536,36.851 C56.270,36.851 56.053,37.069 56.053,37.337 C56.053,37.606 56.270,37.823 56.536,37.823 C56.536,37.823 59.510,37.823 59.510,37.823 C59.776,37.823 59.992,38.041 59.992,38.310 C59.992,38.578 59.776,38.796 59.510,38.796 C59.510,38.796 55.936,38.796 55.936,38.796 C55.936,38.796 52.009,38.796 52.009,38.796 C51.742,38.796 51.525,38.578 51.525,38.310 C51.525,38.041 51.742,37.823 52.009,37.823 C52.009,37.823 52.834,37.823 52.834,37.823 C53.100,37.823 53.316,37.606 53.316,37.337 C53.316,37.069 53.100,36.851 52.834,36.851 C52.834,36.851 48.906,36.851 48.906,36.851 C48.640,36.851 48.424,36.633 48.424,36.365 C48.424,36.097 48.640,35.879 48.906,35.879 C48.906,35.879 49.835,35.879 49.835,35.879 C49.835,35.879 55.217,35.879 55.217,35.879 Z" id="path-17" class="cls-8" fill-rule="evenodd"/>
  </g>
</svg>
