<svg xmlns="http://www.w3.org/2000/svg" xmlns:xlink="http://www.w3.org/1999/xlink" preserveAspectRatio="xMidYMid" width="60" height="61" viewBox="0 0 60 61">
  <defs>
    <style>

      .cls-3 {
        fill: #142a3b;
      }

      .cls-5 {
        fill: #020403;
        opacity: 0.35;
      }

      .cls-6 {
        fill: #ff3a2f;
      }

      .cls-11 {
        fill: #ffe56d;
      }

      .cls-13 {
        fill: #ffffff;
      }

      .cls-16 {
        fill: #ddc100;
      }
    </style>
  </defs>
  <g id="group-46svg">
    <path d="M41.191,50.280 C41.191,50.280 30.875,36.324 30.875,36.324 C30.875,36.324 30.064,36.924 30.064,36.924 C30.064,36.924 34.699,43.194 34.699,43.194 C34.699,43.194 18.507,43.194 18.507,43.194 C18.507,43.194 23.142,36.924 23.142,36.924 C23.142,36.924 22.330,36.324 22.330,36.324 C22.330,36.324 7.564,56.300 7.564,56.300 C7.564,56.300 8.375,56.899 8.375,56.899 C8.375,56.899 17.663,44.336 17.663,44.336 C17.663,44.336 17.663,44.336 17.663,44.336 C17.663,44.336 35.543,44.336 35.543,44.336 C35.543,44.336 40.381,50.879 40.381,50.879 C40.381,50.879 41.191,50.280 41.191,50.280 Z" id="path-1" class="cls-3" fill-rule="evenodd"/>
    <path d="M26.868,39.652 C18.398,39.652 11.532,32.785 11.532,24.315 C11.532,24.315 42.205,24.315 42.205,24.315 C42.205,32.785 35.339,39.652 26.868,39.652 Z" id="path-2" class="cls-3" fill-rule="evenodd"/>
    <path d="M11.532,24.315 C11.532,25.343 11.637,25.344 11.829,26.315 C11.829,26.315 35.205,28.315 35.205,28.315 C35.205,33.262 32.853,36.649 29.218,39.453 C36.570,38.320 42.205,31.985 42.205,24.315 C42.205,24.315 11.532,24.315 11.532,24.315 Z" id="path-3" class="cls-5" fill-rule="evenodd"/>
    <path d="M44.829,25.020 C44.829,25.020 8.908,25.020 8.908,25.020 C8.355,25.020 7.908,24.572 7.908,24.020 C7.908,23.468 8.355,23.020 8.908,23.020 C8.908,23.020 44.829,23.020 44.829,23.020 C45.382,23.020 45.829,23.468 45.829,24.020 C45.829,24.572 45.382,25.020 44.829,25.020 Z" id="path-4" class="cls-6" fill-rule="evenodd"/>
    <path d="M38.934,55.370 C40.011,57.655 42.736,58.635 45.021,57.558 C47.307,56.481 48.286,53.756 47.209,51.470 C46.132,49.185 43.406,48.206 41.121,49.282 C38.836,50.360 37.856,53.085 38.934,55.370 ZM42.108,51.378 C43.236,50.847 44.582,51.330 45.113,52.458 C45.645,53.586 45.162,54.931 44.034,55.463 C42.906,55.995 41.560,55.511 41.029,54.383 C40.497,53.255 40.980,51.909 42.108,51.378 Z" id="path-5" class="cls-6" fill-rule="evenodd"/>
    <path d="M3.845,57.996 C3.845,57.996 12.683,57.996 12.683,57.996 C12.683,57.996 12.683,56.077 12.683,56.077 C12.683,56.077 3.845,56.077 3.845,56.077 C3.845,56.077 3.845,57.996 3.845,57.996 Z" id="path-6" class="cls-6" fill-rule="evenodd"/>
    <path d="M36.645,6.681 C36.200,6.356 35.734,6.056 35.250,5.777 C35.501,4.383 34.903,3.067 33.811,2.742 C33.811,2.742 31.020,1.913 31.020,1.913 C29.910,1.583 28.667,2.389 28.131,3.732 C27.572,3.712 27.018,3.720 26.467,3.761 C26.467,3.761 26.928,2.209 26.928,2.209 C27.383,0.677 28.734,-0.286 29.930,0.069 C29.930,0.069 35.730,1.792 35.730,1.792 C36.927,2.147 37.533,3.692 37.078,5.223 C37.078,5.223 36.645,6.681 36.645,6.681 Z" id="path-7" class="cls-6" fill-rule="evenodd"/>
    <path d="M24.175,29.985 C24.597,30.112 25.028,30.215 25.468,30.297 C25.649,31.416 26.451,32.251 27.362,32.205 C27.362,32.205 29.690,32.088 29.690,32.088 C30.616,32.041 31.340,31.102 31.388,29.946 C31.813,29.813 32.230,29.658 32.636,29.481 C32.636,29.481 32.701,30.776 32.701,30.776 C32.765,32.053 32.001,33.139 31.004,33.190 C31.004,33.190 26.166,33.433 26.166,33.433 C25.169,33.483 24.300,32.479 24.235,31.201 C24.235,31.201 24.175,29.985 24.175,29.985 Z" id="path-8" class="cls-5" fill-rule="evenodd"/>
    <path d="M23.175,27.985 C23.597,28.112 24.028,28.215 24.468,28.297 C24.649,29.416 25.451,30.251 26.362,30.205 C26.362,30.205 28.690,30.088 28.690,30.088 C29.616,30.041 30.340,29.102 30.388,27.946 C30.813,27.813 31.230,27.658 31.636,27.481 C31.636,27.481 31.701,28.776 31.701,28.776 C31.765,30.053 31.001,31.139 30.004,31.190 C30.004,31.190 25.166,31.433 25.166,31.433 C24.169,31.483 23.300,30.479 23.235,29.202 C23.235,29.202 23.175,27.985 23.175,27.985 Z" id="path-9" class="cls-11" fill-rule="evenodd"/>
    <path d="M32.544,4.547 C40.559,7.287 44.835,16.005 42.096,24.020 C42.096,24.020 13.071,14.100 13.071,14.100 C15.810,6.085 24.529,1.808 32.544,4.547 Z" id="path-10" class="cls-3" fill-rule="evenodd"/>
    <path d="M16.759,11.700 C16.643,11.700 16.526,11.660 16.433,11.579 C16.223,11.398 16.200,11.082 16.380,10.873 C18.518,8.397 21.441,6.603 24.612,5.825 C24.884,5.758 25.151,5.923 25.217,6.191 C25.283,6.459 25.119,6.730 24.851,6.796 C21.880,7.526 19.140,9.206 17.138,11.526 C17.038,11.641 16.898,11.700 16.759,11.700 Z" id="path-11" class="cls-13" fill-rule="evenodd"/>
    <path d="M32.544,4.547 C31.483,4.185 30.412,3.953 29.343,3.829 C35.496,7.429 38.480,14.965 36.109,21.974 C36.109,21.974 42.096,24.020 42.096,24.020 C44.835,16.005 40.559,7.287 32.544,4.547 Z" id="path-12" class="cls-5" fill-rule="evenodd"/>
    <path d="M21.745,27.824 C21.745,27.824 21.745,28.667 21.745,28.667 C21.745,28.830 21.503,28.961 21.203,28.961 C20.904,28.961 20.662,28.830 20.662,28.667 C20.662,28.667 20.662,28.628 20.662,28.628 C20.662,28.465 20.420,28.334 20.121,28.334 C19.821,28.334 19.579,28.465 19.579,28.628 C19.579,28.628 19.579,30.440 19.579,30.440 C19.579,30.602 19.337,30.734 19.038,30.734 C18.739,30.734 18.496,30.602 18.496,30.440 C18.496,30.440 18.496,28.262 18.496,28.262 C18.496,28.262 18.496,25.869 18.496,25.869 C18.496,25.707 18.739,25.575 19.038,25.575 C19.337,25.575 19.579,25.707 19.579,25.869 C19.579,25.869 19.579,26.372 19.579,26.372 C19.579,26.535 19.821,26.666 20.121,26.666 C20.420,26.666 20.662,26.535 20.662,26.372 C20.662,26.372 20.662,23.979 20.662,23.979 C20.662,23.817 20.904,23.686 21.203,23.686 C21.503,23.686 21.745,23.817 21.745,23.979 C21.745,23.979 21.745,24.545 21.745,24.545 C21.745,24.545 21.745,27.824 21.745,27.824 Z" id="path-13" class="cls-5" fill-rule="evenodd"/>
    <path d="M7.033,37.829 C7.033,37.829 8.468,37.829 8.468,37.829 C8.744,37.829 8.968,38.072 8.968,38.371 C8.968,38.670 8.744,38.912 8.468,38.912 C8.468,38.912 8.400,38.912 8.400,38.912 C8.124,38.912 7.900,39.155 7.900,39.453 C7.900,39.753 8.124,39.995 8.400,39.995 C8.400,39.995 11.484,39.995 11.484,39.995 C11.761,39.995 11.985,40.238 11.985,40.536 C11.985,40.835 11.761,41.078 11.484,41.078 C11.484,41.078 7.778,41.078 7.778,41.078 C7.778,41.078 3.705,41.078 3.705,41.078 C3.429,41.078 3.205,40.835 3.205,40.536 C3.205,40.238 3.429,39.995 3.705,39.995 C3.705,39.995 4.562,39.995 4.562,39.995 C4.838,39.995 5.062,39.753 5.062,39.453 C5.062,39.155 4.838,38.912 4.562,38.912 C4.562,38.912 0.488,38.912 0.488,38.912 C0.212,38.912 -0.013,38.670 -0.013,38.371 C-0.013,38.072 0.212,37.829 0.488,37.829 C0.488,37.829 1.451,37.829 1.451,37.829 C1.451,37.829 7.033,37.829 7.033,37.829 Z" id="path-14" class="cls-16" fill-rule="evenodd"/>
    <path d="M44.465,56.078 C44.465,56.078 48.680,56.078 48.680,56.078 C49.492,56.078 50.151,56.401 50.151,56.800 C50.151,57.198 49.492,57.522 48.680,57.522 C48.680,57.522 48.483,57.522 48.483,57.522 C47.671,57.522 47.013,57.846 47.013,58.244 C47.013,58.643 47.671,58.966 48.483,58.966 C48.483,58.966 57.544,58.966 57.544,58.966 C58.356,58.966 59.016,59.289 59.016,59.688 C59.016,60.087 58.356,60.410 57.544,60.410 C57.544,60.410 46.656,60.410 46.656,60.410 C46.656,60.410 34.688,60.410 34.688,60.410 C33.876,60.410 33.217,60.087 33.217,59.688 C33.217,59.289 33.876,58.966 34.688,58.966 C34.688,58.966 37.203,58.966 37.203,58.966 C38.016,58.966 38.675,58.643 38.675,58.244 C38.675,57.846 38.016,57.522 37.203,57.522 C37.203,57.522 25.236,57.522 25.236,57.522 C24.424,57.522 23.765,57.198 23.765,56.800 C23.765,56.401 24.424,56.078 25.236,56.078 C25.236,56.078 28.064,56.078 28.064,56.078 C28.064,56.078 44.465,56.078 44.465,56.078 Z" id="path-15" class="cls-16" fill-rule="evenodd"/>
    <path d="M55.372,43.204 C55.372,43.204 56.760,43.204 56.760,43.204 C57.027,43.204 57.244,43.422 57.244,43.691 C57.244,43.961 57.027,44.179 56.760,44.179 C56.760,44.179 56.695,44.179 56.695,44.179 C56.428,44.179 56.211,44.397 56.211,44.666 C56.211,44.936 56.428,45.154 56.695,45.154 C56.695,45.154 59.677,45.154 59.677,45.154 C59.944,45.154 60.161,45.372 60.161,45.642 C60.161,45.911 59.944,46.129 59.677,46.129 C59.677,46.129 56.094,46.129 56.094,46.129 C56.094,46.129 52.154,46.129 52.154,46.129 C51.887,46.129 51.670,45.911 51.670,45.642 C51.670,45.372 51.887,45.154 52.154,45.154 C52.154,45.154 52.982,45.154 52.982,45.154 C53.250,45.154 53.467,44.936 53.467,44.666 C53.467,44.397 53.250,44.179 52.982,44.179 C52.982,44.179 49.043,44.179 49.043,44.179 C48.775,44.179 48.559,43.961 48.559,43.691 C48.559,43.422 48.775,43.204 49.043,43.204 C49.043,43.204 49.975,43.204 49.975,43.204 C49.975,43.204 55.372,43.204 55.372,43.204 Z" id="path-16" class="cls-6" fill-rule="evenodd"/>
    <path d="M20.745,27.824 C20.745,27.824 20.745,28.667 20.745,28.667 C20.745,28.830 20.503,28.961 20.203,28.961 C19.904,28.961 19.662,28.830 19.662,28.667 C19.662,28.667 19.662,28.628 19.662,28.628 C19.662,28.465 19.420,28.334 19.121,28.334 C18.821,28.334 18.579,28.465 18.579,28.628 C18.579,28.628 18.579,30.440 18.579,30.440 C18.579,30.602 18.337,30.734 18.038,30.734 C17.739,30.734 17.496,30.602 17.496,30.440 C17.496,30.440 17.496,28.262 17.496,28.262 C17.496,28.262 17.496,25.869 17.496,25.869 C17.496,25.707 17.739,25.575 18.038,25.575 C18.337,25.575 18.579,25.707 18.579,25.869 C18.579,25.869 18.579,26.372 18.579,26.372 C18.579,26.535 18.821,26.666 19.121,26.666 C19.420,26.666 19.662,26.535 19.662,26.372 C19.662,26.372 19.662,23.979 19.662,23.979 C19.662,23.817 19.904,23.686 20.203,23.686 C20.503,23.686 20.745,23.817 20.745,23.979 C20.745,23.979 20.745,24.545 20.745,24.545 C20.745,24.545 20.745,27.824 20.745,27.824 Z" id="path-17" class="cls-16" fill-rule="evenodd"/>
  </g>
</svg>
