<svg xmlns="http://www.w3.org/2000/svg" xmlns:xlink="http://www.w3.org/1999/xlink" preserveAspectRatio="xMidYMid" width="61" height="58" viewBox="0 0 61 58">
  <defs>
    <style>

      .cls-3 {
        fill: #ff3a2f;
      }

      .cls-5 {
        fill: #142a3b;
      }

      .cls-7 {
        fill: #fbb713;
      }

      .cls-12 {
        fill: #000000;
        opacity: 0.35;
      }
    </style>
  </defs>
  <g id="group-299svg">
    <path d="M16.697,50.614 C16.697,50.614 11.997,50.614 11.997,50.614 C11.091,50.614 10.356,51.171 10.356,51.857 C10.356,52.543 11.091,53.098 11.997,53.098 C11.997,53.098 12.216,53.098 12.216,53.098 C13.122,53.098 13.857,53.655 13.857,54.341 C13.857,55.027 13.122,55.582 12.216,55.582 C12.216,55.582 2.112,55.582 2.112,55.582 C1.206,55.582 0.471,56.139 0.471,56.824 C0.471,57.511 1.206,58.066 2.112,58.066 C2.112,58.066 14.254,58.066 14.254,58.066 C14.254,58.066 39.073,58.066 39.073,58.066 C39.979,58.066 40.714,57.511 40.714,56.824 C40.714,56.139 39.979,55.582 39.073,55.582 C39.073,55.582 36.269,55.582 36.269,55.582 C35.363,55.582 34.628,55.027 34.628,54.341 C34.628,53.655 35.363,53.098 36.269,53.098 C36.269,53.098 47.283,53.098 47.283,53.098 C48.188,53.098 48.923,52.543 48.923,51.857 C48.923,51.171 48.188,50.614 47.283,50.614 C47.283,50.614 46.460,50.614 46.460,50.614 C46.460,50.614 16.697,50.614 16.697,50.614 Z" id="path-1" class="cls-3" fill-rule="evenodd"/>
    <path d="M45.848,58.399 C45.088,58.399 44.472,57.803 44.472,57.068 C44.472,56.333 45.088,55.737 45.848,55.737 C45.848,55.737 50.063,55.737 50.063,55.737 C50.823,55.737 51.439,56.333 51.439,57.068 C51.439,57.803 50.823,58.399 50.063,58.399 C50.063,58.399 45.848,58.399 45.848,58.399 Z" id="path-2" class="cls-3" fill-rule="evenodd"/>
    <path d="M23.773,6.622 C23.773,6.622 6.928,6.622 6.928,6.622 C6.375,6.622 5.928,6.174 5.928,5.622 C5.928,5.070 6.375,4.622 6.928,4.622 C6.928,4.622 23.773,4.622 23.773,4.622 C24.325,4.622 24.773,5.070 24.773,5.622 C24.773,6.174 24.325,6.622 23.773,6.622 Z" id="path-3" class="cls-5" fill-rule="evenodd"/>
    <path d="M54.656,6.622 C54.656,6.622 37.810,6.622 37.810,6.622 C37.258,6.622 36.810,6.174 36.810,5.622 C36.810,5.070 37.258,4.622 37.810,4.622 C37.810,4.622 54.656,4.622 54.656,4.622 C55.208,4.622 55.656,5.070 55.656,5.622 C55.656,6.174 55.208,6.622 54.656,6.622 Z" id="path-4" class="cls-5" fill-rule="evenodd"/>
    <path d="M55.336,10.059 C53.014,10.059 51.124,8.169 51.124,5.847 C51.124,3.525 53.014,1.636 55.336,1.636 C57.658,1.636 59.547,3.525 59.547,5.847 C59.547,8.169 57.658,10.059 55.336,10.059 Z" id="path-5" class="cls-7" fill-rule="evenodd"/>
    <circle id="circle-1" class="cls-7" cx="6" cy="6" r="5"/>
    <path d="M59.026,32.417 C58.474,32.417 58.026,31.969 58.026,31.417 C58.026,19.147 49.267,8.706 37.199,6.591 C36.655,6.496 36.292,5.977 36.387,5.433 C36.482,4.889 36.996,4.527 37.545,4.621 C50.571,6.904 60.026,18.173 60.026,31.417 C60.026,31.969 59.579,32.417 59.026,32.417 Z" id="path-6" class="cls-5" fill-rule="evenodd"/>
    <path d="M0.994,32.417 C0.442,32.417 -0.006,31.969 -0.006,31.417 C-0.006,18.174 9.447,6.904 22.471,4.621 C23.019,4.526 23.533,4.889 23.628,5.433 C23.724,5.977 23.360,6.496 22.816,6.591 C10.751,8.706 1.994,19.147 1.994,31.417 C1.994,31.969 1.546,32.417 0.994,32.417 Z" id="path-7" class="cls-5" fill-rule="evenodd"/>
    <path d="M19.523,50.363 C19.523,50.363 16.014,36.500 16.014,36.500 C15.915,36.119 15.983,35.716 16.200,35.387 C16.200,35.387 28.834,16.085 28.834,16.085 C29.350,15.293 30.666,15.293 31.181,16.085 C31.181,16.085 43.815,35.387 43.815,35.387 C44.032,35.716 44.100,36.119 44.001,36.500 C44.001,36.500 40.492,50.363 40.492,50.363 C40.492,50.363 40.492,50.363 40.492,50.363 " id="path-8" class="cls-7" fill-rule="evenodd"/>
    <path d="M43.815,35.387 C43.815,35.387 31.181,16.085 31.181,16.085 C30.666,15.293 29.350,15.293 28.834,16.085 C28.834,16.085 28.035,17.305 28.035,17.305 C28.035,17.305 39.099,34.208 39.099,34.208 C39.315,34.537 39.383,34.940 39.285,35.321 C39.285,35.321 35.775,49.184 35.775,49.184 C35.775,49.184 19.225,49.184 19.225,49.184 C19.225,49.184 19.523,50.363 19.523,50.363 C19.523,50.363 40.492,50.363 40.492,50.363 C40.492,50.363 44.001,36.500 44.001,36.500 C44.100,36.119 44.032,35.716 43.815,35.387 Z" id="path-9" class="cls-12" fill-rule="evenodd"/>
    <path d="M30.008,40.320 C29.456,40.320 29.008,39.872 29.008,39.320 C29.008,39.320 29.008,16.859 29.008,16.859 C29.008,16.307 29.456,15.860 30.008,15.860 C30.560,15.860 31.008,16.307 31.008,16.859 C31.008,16.859 31.008,39.320 31.008,39.320 C31.008,39.872 30.560,40.320 30.008,40.320 Z" id="path-10" class="cls-5" fill-rule="evenodd"/>
    <path d="M30.008,44.753 C27.685,44.753 25.796,42.863 25.796,40.541 C25.796,38.220 27.685,36.330 30.008,36.330 C32.330,36.330 34.219,38.220 34.219,40.541 C34.219,42.863 32.330,44.753 30.008,44.753 Z" id="path-11" class="cls-3" fill-rule="evenodd"/>
    <path d="M32.334,37.036 C32.778,37.703 33.040,38.502 33.040,39.362 C33.040,41.684 31.151,43.574 28.829,43.574 C27.969,43.574 27.169,43.312 26.502,42.868 C27.257,44.002 28.545,44.753 30.008,44.753 C32.330,44.753 34.219,42.863 34.219,40.541 C34.219,39.079 33.469,37.791 32.334,37.036 Z" id="path-12" class="cls-12" fill-rule="evenodd"/>
    <path d="M42.247,51.544 C42.247,51.544 16.978,51.544 16.978,51.544 C16.426,51.544 15.979,51.096 15.979,50.544 C15.979,49.991 16.426,49.544 16.978,49.544 C16.978,49.544 42.247,49.544 42.247,49.544 C42.799,49.544 43.246,49.991 43.246,50.544 C43.246,51.096 42.799,51.544 42.247,51.544 Z" id="path-13" class="cls-5" fill-rule="evenodd"/>
    <path d="M36.407,14.045 C36.407,14.045 25.177,14.045 25.177,14.045 C24.401,14.045 23.773,13.417 23.773,12.642 C23.773,12.642 23.773,1.411 23.773,1.411 C23.773,0.635 24.401,0.008 25.177,0.008 C25.177,0.008 36.407,0.008 36.407,0.008 C37.183,0.008 37.810,0.635 37.810,1.411 C37.810,1.411 37.810,12.642 37.810,12.642 C37.810,13.417 37.183,14.045 36.407,14.045 Z" id="path-14" class="cls-3" fill-rule="evenodd"/>
  </g>
</svg>
