<svg xmlns="http://www.w3.org/2000/svg" xmlns:xlink="http://www.w3.org/1999/xlink" preserveAspectRatio="xMidYMid" width="61" height="45" viewBox="0 0 61 45">
  <defs>
    <style>

      .cls-3 {
        fill: #fbb713;
      }

      .cls-6 {
        fill: #2476ff;
      }

      .cls-7 {
        fill: #000000;
        opacity: 0.35;
      }

      .cls-11 {
        fill: #ffffff;
      }

      .cls-12 {
        fill: #142a3b;
      }
    </style>
  </defs>
  <g id="group-264svg">
    <path d="M16.494,37.405 C16.494,37.405 11.878,37.405 11.878,37.405 C10.988,37.405 10.266,37.951 10.266,38.625 C10.266,39.298 10.988,39.844 11.878,39.844 C11.878,39.844 12.093,39.844 12.093,39.844 C12.982,39.844 13.704,40.390 13.704,41.064 C13.704,41.737 12.982,42.284 12.093,42.284 C12.093,42.284 2.170,42.284 2.170,42.284 C1.280,42.284 0.558,42.830 0.558,43.503 C0.558,44.177 1.280,44.723 2.170,44.723 C2.170,44.723 14.095,44.723 14.095,44.723 C14.095,44.723 38.469,44.723 38.469,44.723 C39.359,44.723 40.080,44.177 40.080,43.503 C40.080,42.830 39.359,42.284 38.469,42.284 C38.469,42.284 35.715,42.284 35.715,42.284 C34.825,42.284 34.103,41.737 34.103,41.064 C34.103,40.390 34.825,39.844 35.715,39.844 C35.715,39.844 46.531,39.844 46.531,39.844 C47.421,39.844 48.143,39.298 48.143,38.625 C48.143,37.951 47.421,37.405 46.531,37.405 C46.531,37.405 45.724,37.405 45.724,37.405 C45.724,37.405 16.494,37.405 16.494,37.405 Z" id="path-1" class="cls-3" fill-rule="evenodd"/>
    <path d="M17.794,32.120 C17.117,32.120 16.568,31.747 16.568,31.286 C16.568,30.825 17.117,30.452 17.794,30.452 C17.794,30.452 21.549,30.452 21.549,30.452 C22.226,30.452 22.774,30.825 22.774,31.286 C22.774,31.747 22.226,32.120 21.549,32.120 C21.549,32.120 17.794,32.120 17.794,32.120 Z" id="path-2" class="cls-3" fill-rule="evenodd"/>
    <path d="M9.690,33.624 C9.690,33.624 11.006,33.624 11.006,33.624 C11.260,33.624 11.466,33.398 11.466,33.120 C11.466,32.842 11.260,32.616 11.006,32.616 C11.006,32.616 10.945,32.616 10.945,32.616 C10.691,32.616 10.486,32.390 10.486,32.112 C10.486,31.834 10.691,31.608 10.945,31.608 C10.945,31.608 13.775,31.608 13.775,31.608 C14.029,31.608 14.235,31.382 14.235,31.104 C14.235,30.826 14.029,30.600 13.775,30.600 C13.775,30.600 10.374,30.600 10.374,30.600 C10.374,30.600 3.422,30.600 3.422,30.600 C3.169,30.600 2.963,30.826 2.963,31.104 C2.963,31.382 3.169,31.608 3.422,31.608 C3.422,31.608 4.208,31.608 4.208,31.608 C4.462,31.608 4.667,31.834 4.667,32.112 C4.667,32.390 4.462,32.616 4.208,32.616 C4.208,32.616 0.470,32.616 0.470,32.616 C0.216,32.616 0.010,32.842 0.010,33.120 C0.010,33.398 0.216,33.624 0.470,33.624 C0.470,33.624 1.353,33.624 1.353,33.624 C1.353,33.624 9.690,33.624 9.690,33.624 Z" id="path-3" class="cls-3" fill-rule="evenodd"/>
    <path d="M60.010,35.958 C60.010,35.958 11.180,35.958 11.180,35.958 C11.180,35.958 11.180,-0.008 11.180,-0.008 C11.180,-0.008 60.010,-0.008 60.010,-0.008 C60.010,-0.008 60.010,35.958 60.010,35.958 Z" id="path-4" class="cls-6" fill-rule="evenodd"/>
    <path d="M53.650,35.125 C53.650,35.125 19.181,35.125 19.181,35.125 C19.181,35.125 24.105,30.962 24.105,30.962 C24.105,30.962 49.546,30.962 49.546,30.962 C49.546,30.962 53.650,35.125 53.650,35.125 Z" id="path-5" class="cls-7" fill-rule="evenodd"/>
    <path d="M52.830,36.766 C52.830,36.766 18.361,36.766 18.361,36.766 C18.361,36.766 23.285,32.044 23.285,32.044 C23.285,32.044 48.726,32.044 48.726,32.044 C48.726,32.044 52.830,36.766 52.830,36.766 Z" id="path-6" class="cls-6" fill-rule="evenodd"/>
    <path d="M57.548,-0.008 C57.548,-0.008 57.548,35.958 57.548,35.958 C57.548,35.958 60.010,35.958 60.010,35.958 C60.010,35.958 60.010,-0.008 60.010,-0.008 C60.010,-0.008 57.548,-0.008 57.548,-0.008 Z" id="path-7" class="cls-7" fill-rule="evenodd"/>
    <path d="M53.650,25.885 C53.650,25.885 19.181,25.885 19.181,25.885 C19.181,25.885 19.181,6.537 19.181,6.537 C19.181,6.537 53.650,6.537 53.650,6.537 C53.650,6.537 53.650,25.885 53.650,25.885 Z" id="path-8" class="cls-7" fill-rule="evenodd"/>
    <path d="M52.830,25.064 C52.830,25.064 18.361,25.064 18.361,25.064 C18.361,25.064 18.361,5.715 18.361,5.715 C18.361,5.715 52.830,5.715 52.830,5.715 C52.830,5.715 52.830,25.064 52.830,25.064 Z" id="path-9" class="cls-11" fill-rule="evenodd"/>
    <path d="M49.649,16.334 C49.649,18.260 48.087,19.822 46.161,19.822 C44.235,19.822 42.673,18.260 42.673,16.334 C42.673,14.408 44.235,12.846 46.161,12.846 C48.087,12.846 49.649,14.408 49.649,16.334 Z" id="path-10" class="cls-12" fill-rule="evenodd"/>
    <path d="M48.178,13.496 C48.584,14.066 48.829,14.760 48.829,15.513 C48.829,17.439 47.267,19.001 45.341,19.001 C44.587,19.001 43.894,18.757 43.324,18.350 C43.956,19.238 44.988,19.822 46.161,19.822 C48.087,19.822 49.649,18.260 49.649,16.334 C49.649,15.161 49.065,14.129 48.178,13.496 Z" id="path-11" class="cls-7" fill-rule="evenodd"/>
    <path d="M28.311,16.334 C28.311,18.260 26.750,19.822 24.824,19.822 C22.897,19.822 21.335,18.260 21.335,16.334 C21.335,14.408 22.897,12.846 24.824,12.846 C26.750,12.846 28.311,14.408 28.311,16.334 Z" id="path-12" class="cls-12" fill-rule="evenodd"/>
    <path d="M24.824,12.846 C24.683,12.846 24.549,12.871 24.413,12.887 C26.143,13.092 27.491,14.548 27.491,16.334 C27.491,18.120 26.143,19.575 24.413,19.780 C24.549,19.796 24.683,19.822 24.824,19.822 C26.750,19.822 28.311,18.260 28.311,16.334 C28.311,14.408 26.750,12.846 24.824,12.846 Z" id="path-13" class="cls-7" fill-rule="evenodd"/>
    <path d="M46.161,33.978 C46.161,34.545 45.702,35.004 45.136,35.004 C44.569,35.004 44.109,34.545 44.109,33.978 C44.109,33.412 44.569,32.953 45.136,32.953 C45.702,32.953 46.161,33.412 46.161,33.978 Z" id="path-14" class="cls-11" fill-rule="evenodd"/>
    <path d="M28.927,33.978 C28.927,34.545 28.468,35.004 27.901,35.004 C27.334,35.004 26.875,34.545 26.875,33.978 C26.875,33.412 27.334,32.953 27.901,32.953 C28.468,32.953 28.927,33.412 28.927,33.978 Z" id="path-15" class="cls-11" fill-rule="evenodd"/>
    <path d="M41.955,18.760 C41.955,18.760 29.235,18.760 29.235,18.760 C29.235,18.760 29.235,14.028 29.235,14.028 C29.235,14.028 41.955,14.028 41.955,14.028 C41.955,14.028 41.955,18.760 41.955,18.760 Z" id="path-16" class="cls-12" fill-rule="evenodd"/>
    <path d="M53.035,10.173 C53.035,10.173 18.155,10.173 18.155,10.173 C18.155,10.173 18.155,8.173 18.155,8.173 C18.155,8.173 53.035,8.173 53.035,8.173 C53.035,8.173 53.035,10.173 53.035,10.173 Z" id="path-17" class="cls-12" fill-rule="evenodd"/>
  </g>
</svg>
