<svg xmlns="http://www.w3.org/2000/svg" xmlns:xlink="http://www.w3.org/1999/xlink" preserveAspectRatio="xMidYMid" width="62" height="39" viewBox="0 0 62 39">
  <defs>
    <style>

      .cls-3 {
        fill: #2476ff;
      }

      .cls-7 {
        fill: #142a3b;
      }

      .cls-8 {
        fill: #fbb713;
      }

      .cls-10 {
        fill: #ff3a2f;
      }

      .cls-11 {
        fill: #020403;
        opacity: 0.25;
      }

      .cls-12 {
        fill: #ffffff;
      }
    </style>
  </defs>
  <g id="group-41svg">
    <path d="M48.636,35.239 C48.636,35.239 52.511,35.239 52.511,35.239 C53.259,35.239 53.864,35.490 53.864,35.798 C53.864,36.106 53.259,36.356 52.511,36.356 C52.511,36.356 52.331,36.356 52.331,36.356 C51.583,36.356 50.978,36.606 50.978,36.914 C50.978,37.222 51.583,37.472 52.331,37.472 C52.331,37.472 60.663,37.472 60.663,37.472 C61.410,37.472 62.016,37.722 62.016,38.030 C62.016,38.339 61.410,38.588 60.663,38.588 C60.663,38.588 50.650,38.588 50.650,38.588 C50.650,38.588 39.646,38.588 39.646,38.588 C38.898,38.588 38.292,38.339 38.292,38.030 C38.292,37.722 38.898,37.472 39.646,37.472 C39.646,37.472 41.958,37.472 41.958,37.472 C42.705,37.472 43.311,37.222 43.311,36.914 C43.311,36.606 42.705,36.356 41.958,36.356 C41.958,36.356 30.954,36.356 30.954,36.356 C30.206,36.356 29.601,36.106 29.601,35.798 C29.601,35.490 30.206,35.239 30.954,35.239 C30.954,35.239 33.554,35.239 33.554,35.239 C33.554,35.239 48.636,35.239 48.636,35.239 Z" id="path-1" class="cls-3" fill-rule="evenodd"/>
    <path d="M53.756,11.200 C53.756,11.200 55.344,11.200 55.344,11.200 C55.650,11.200 55.898,11.450 55.898,11.758 C55.898,12.066 55.650,12.316 55.344,12.316 C55.344,12.316 55.270,12.316 55.270,12.316 C54.964,12.316 54.715,12.566 54.715,12.874 C54.715,13.182 54.964,13.433 55.270,13.433 C55.270,13.433 58.684,13.433 58.684,13.433 C58.990,13.433 59.238,13.682 59.238,13.991 C59.238,14.299 58.990,14.549 58.684,14.549 C58.684,14.549 54.581,14.549 54.581,14.549 C54.581,14.549 50.072,14.549 50.072,14.549 C49.766,14.549 49.517,14.299 49.517,13.991 C49.517,13.682 49.766,13.433 50.072,13.433 C50.072,13.433 51.020,13.433 51.020,13.433 C51.326,13.433 51.574,13.182 51.574,12.874 C51.574,12.566 51.326,12.316 51.020,12.316 C51.020,12.316 46.510,12.316 46.510,12.316 C46.204,12.316 45.956,12.066 45.956,11.758 C45.956,11.450 46.204,11.200 46.510,11.200 C46.510,11.200 47.576,11.200 47.576,11.200 C47.576,11.200 53.756,11.200 53.756,11.200 Z" id="path-2" class="cls-3" fill-rule="evenodd"/>
    <path d="M14.623,14.549 C14.623,14.549 16.211,14.549 16.211,14.549 C16.518,14.549 16.766,14.799 16.766,15.107 C16.766,15.415 16.518,15.665 16.211,15.665 C16.211,15.665 16.137,15.665 16.137,15.665 C15.831,15.665 15.583,15.915 15.583,16.224 C15.583,16.531 15.831,16.782 16.137,16.782 C16.137,16.782 19.551,16.782 19.551,16.782 C19.857,16.782 20.106,17.031 20.106,17.340 C20.106,17.648 19.857,17.898 19.551,17.898 C19.551,17.898 15.449,17.898 15.449,17.898 C15.449,17.898 10.939,17.898 10.939,17.898 C10.633,17.898 10.385,17.648 10.385,17.340 C10.385,17.031 10.633,16.782 10.939,16.782 C10.939,16.782 11.887,16.782 11.887,16.782 C12.193,16.782 12.441,16.531 12.441,16.224 C12.441,15.915 12.193,15.665 11.887,15.665 C11.887,15.665 7.377,15.665 7.377,15.665 C7.071,15.665 6.823,15.415 6.823,15.107 C6.823,14.799 7.071,14.549 7.377,14.549 C7.377,14.549 8.443,14.549 8.443,14.549 C8.443,14.549 14.623,14.549 14.623,14.549 Z" id="path-3" class="cls-3" fill-rule="evenodd"/>
    <path d="M11.621,0.004 C11.621,0.004 12.598,0.004 12.598,0.004 C12.786,0.004 12.939,0.159 12.939,0.348 C12.939,0.538 12.786,0.692 12.598,0.692 C12.598,0.692 12.552,0.692 12.552,0.692 C12.364,0.692 12.211,0.846 12.211,1.035 C12.211,1.224 12.364,1.378 12.552,1.378 C12.552,1.378 14.652,1.378 14.652,1.378 C14.841,1.378 14.994,1.532 14.994,1.721 C14.994,1.911 14.841,2.065 14.652,2.065 C14.652,2.065 12.129,2.065 12.129,2.065 C12.129,2.065 9.355,2.065 9.355,2.065 C9.166,2.065 9.014,1.911 9.014,1.721 C9.014,1.532 9.166,1.378 9.355,1.378 C9.355,1.378 9.938,1.378 9.938,1.378 C10.126,1.378 10.279,1.224 10.279,1.035 C10.279,0.846 10.126,0.692 9.938,0.692 C9.938,0.692 7.164,0.692 7.164,0.692 C6.976,0.692 6.823,0.538 6.823,0.348 C6.823,0.159 6.976,0.004 7.164,0.004 C7.164,0.004 7.819,0.004 7.819,0.004 C7.819,0.004 11.621,0.004 11.621,0.004 Z" id="path-4" class="cls-3" fill-rule="evenodd"/>
    <path d="M18.102,28.464 C18.102,28.464 0.016,28.464 0.016,28.464 C0.016,28.464 0.016,26.145 0.016,26.145 C0.016,26.145 18.102,26.145 18.102,26.145 C18.102,26.145 18.102,28.464 18.102,28.464 Z" id="path-5" class="cls-7" fill-rule="evenodd"/>
    <path d="M25.631,13.951 C25.631,13.951 25.631,6.845 25.631,6.845 C25.631,6.845 28.111,6.845 28.111,6.845 C28.111,6.845 28.111,13.951 28.111,13.951 C28.111,13.951 25.631,13.951 25.631,13.951 Z" id="path-6" class="cls-8" fill-rule="evenodd"/>
    <path d="M54.401,28.464 C54.401,28.464 36.315,28.464 36.315,28.464 C36.315,28.464 36.315,26.145 36.315,26.145 C36.315,26.145 54.401,26.145 54.401,26.145 C54.401,26.145 54.401,28.464 54.401,28.464 Z" id="path-7" class="cls-7" fill-rule="evenodd"/>
    <path d="M38.490,23.363 C38.490,29.766 33.300,34.957 26.896,34.957 C20.493,34.957 15.303,29.766 15.303,23.363 C15.303,16.959 26.896,10.681 26.896,10.681 C26.896,10.681 38.490,16.959 38.490,23.363 Z" id="path-8" class="cls-10" fill-rule="evenodd"/>
    <path d="M38.433,22.615 C38.424,22.545 38.411,22.475 38.399,22.405 C38.365,22.210 38.322,22.015 38.270,21.822 C38.254,21.764 38.241,21.705 38.224,21.646 C38.151,21.403 38.065,21.161 37.965,20.920 C37.943,20.866 37.917,20.813 37.894,20.760 C37.809,20.566 37.716,20.372 37.616,20.181 C37.579,20.110 37.542,20.040 37.503,19.970 C37.385,19.757 37.260,19.545 37.125,19.335 C37.108,19.309 37.094,19.283 37.077,19.257 C36.925,19.024 36.761,18.793 36.591,18.565 C36.541,18.498 36.490,18.432 36.438,18.367 C36.304,18.192 36.165,18.019 36.022,17.848 C35.972,17.787 35.922,17.727 35.871,17.667 C35.682,17.448 35.488,17.231 35.288,17.017 C35.249,16.976 35.209,16.937 35.170,16.896 C34.999,16.718 34.826,16.541 34.649,16.368 C34.587,16.307 34.526,16.247 34.463,16.188 C34.278,16.010 34.091,15.834 33.902,15.662 C33.870,15.633 33.838,15.603 33.806,15.574 C33.582,15.373 33.356,15.177 33.129,14.985 C33.079,14.942 33.028,14.900 32.977,14.858 C32.789,14.700 32.601,14.547 32.413,14.396 C32.364,14.357 32.315,14.317 32.267,14.278 C31.802,13.911 31.342,13.565 30.896,13.243 C30.857,13.215 30.817,13.187 30.778,13.158 C30.564,13.006 30.354,12.857 30.150,12.716 C30.145,12.713 30.140,12.709 30.134,12.705 C29.909,12.550 29.690,12.403 29.479,12.263 C28.758,11.784 28.132,11.399 27.678,11.130 C27.678,11.130 27.678,11.130 27.678,11.130 C27.559,11.059 27.452,10.997 27.357,10.942 C27.346,10.935 27.336,10.929 27.324,10.923 C27.245,10.877 27.174,10.836 27.116,10.804 C27.105,10.797 27.094,10.791 27.084,10.786 C27.035,10.758 26.995,10.735 26.965,10.719 C26.957,10.715 26.947,10.709 26.940,10.705 C26.916,10.692 26.896,10.681 26.896,10.681 C26.896,10.681 26.859,10.701 26.803,10.733 C26.755,10.760 26.695,10.793 26.610,10.842 C26.608,10.842 26.606,10.844 26.604,10.844 C26.544,10.879 26.476,10.918 26.399,10.963 C26.474,11.017 26.552,11.075 26.628,11.130 C26.628,11.130 26.115,11.130 26.115,11.130 C25.487,11.502 24.532,12.096 23.445,12.854 C23.445,12.854 28.828,12.854 28.828,12.854 C31.556,15.173 34.140,18.164 34.140,21.187 C34.140,27.590 28.949,32.781 22.545,32.781 C21.541,32.781 20.572,32.640 19.643,32.400 C20.092,32.761 20.571,33.083 21.070,33.375 C21.129,33.409 21.186,33.449 21.247,33.482 C21.428,33.584 21.617,33.674 21.804,33.766 C21.934,33.830 22.062,33.895 22.194,33.955 C22.365,34.030 22.539,34.098 22.713,34.166 C22.874,34.228 23.035,34.289 23.198,34.344 C23.361,34.399 23.525,34.449 23.690,34.497 C23.879,34.552 24.071,34.600 24.264,34.645 C24.414,34.680 24.566,34.716 24.719,34.745 C24.948,34.789 25.180,34.821 25.413,34.851 C25.539,34.868 25.662,34.888 25.789,34.901 C26.154,34.935 26.522,34.957 26.896,34.957 C30.498,34.957 33.716,33.314 35.843,30.738 C36.079,30.451 36.302,30.154 36.510,29.845 C37.760,27.994 38.490,25.764 38.490,23.363 C38.490,23.114 38.467,22.864 38.433,22.615 Z" id="path-9" class="cls-11" fill-rule="evenodd"/>
    <path d="M18.082,28.068 C17.665,28.068 17.275,27.804 17.135,27.387 C16.699,26.093 16.478,24.739 16.478,23.363 C16.478,21.784 17.076,20.117 18.256,18.409 C18.569,17.954 19.190,17.840 19.647,18.154 C20.101,18.467 20.215,19.090 19.901,19.545 C18.957,20.913 18.478,22.197 18.478,23.363 C18.478,24.522 18.663,25.661 19.030,26.748 C19.207,27.272 18.925,27.839 18.402,28.015 C18.296,28.051 18.188,28.068 18.082,28.068 Z" id="path-10" class="cls-12" fill-rule="evenodd"/>
    <path d="M36.171,12.089 C36.171,12.089 18.085,12.089 18.085,12.089 C18.085,12.089 18.085,9.770 18.085,9.770 C18.085,9.770 36.171,9.770 36.171,9.770 C36.171,9.770 36.171,12.089 36.171,12.089 Z" id="path-11" class="cls-7" fill-rule="evenodd"/>
    <path d="M13.464,32.638 C13.464,34.943 11.596,36.812 9.291,36.812 C6.985,36.812 5.117,34.943 5.117,32.638 C5.117,30.333 6.985,28.464 9.291,28.464 C11.596,28.464 13.464,30.333 13.464,32.638 Z" id="path-12" class="cls-8" fill-rule="evenodd"/>
    <path d="M9.291,28.464 C7.860,28.464 6.600,29.185 5.848,30.282 C6.518,29.822 7.328,29.552 8.203,29.552 C10.508,29.552 12.376,31.420 12.376,33.725 C12.376,34.600 12.105,35.410 11.645,36.081 C12.743,35.329 13.464,34.068 13.464,32.638 C13.464,30.333 11.596,28.464 9.291,28.464 Z" id="path-13" class="cls-11" fill-rule="evenodd"/>
    <path d="M49.764,32.638 C49.764,34.943 47.895,36.812 45.590,36.812 C43.285,36.812 41.416,34.943 41.416,32.638 C41.416,30.333 43.285,28.464 45.590,28.464 C47.895,28.464 49.764,30.333 49.764,32.638 Z" id="path-14" class="cls-8" fill-rule="evenodd"/>
    <path d="M45.590,28.464 C44.160,28.464 42.899,29.185 42.147,30.282 C42.818,29.822 43.628,29.552 44.502,29.552 C46.808,29.552 48.676,31.420 48.676,33.725 C48.676,34.600 48.405,35.410 47.945,36.081 C49.042,35.329 49.764,34.068 49.764,32.638 C49.764,30.333 47.895,28.464 45.590,28.464 Z" id="path-15" class="cls-11" fill-rule="evenodd"/>
    <path d="M32.680,23.435 C32.680,23.435 20.968,23.435 20.968,23.435 C20.968,23.435 20.968,21.435 20.968,21.435 C20.968,21.435 32.680,21.435 32.680,21.435 C32.680,21.435 32.680,23.435 32.680,23.435 Z" id="path-16" class="cls-7" fill-rule="evenodd"/>
  </g>
</svg>
