<svg xmlns="http://www.w3.org/2000/svg" xmlns:xlink="http://www.w3.org/1999/xlink" preserveAspectRatio="xMidYMid" width="60" height="58" viewBox="0 0 60 58">
  <defs>
    <style>

      .cls-3 {
        fill: #fbb713;
      }

      .cls-10 {
        fill: #000000;
        opacity: 0.35;
      }

      .cls-11 {
        fill: #142a3b;
      }

      .cls-17 {
        fill: #ededed;
      }
    </style>
  </defs>
  <g id="group-279svg">
    <path d="M43.095,52.922 C43.095,52.922 40.963,52.922 40.963,52.922 C40.552,52.922 40.219,53.279 40.219,53.719 C40.219,54.160 40.552,54.516 40.963,54.516 C40.963,54.516 41.061,54.516 41.061,54.516 C41.473,54.516 41.806,54.873 41.806,55.314 C41.806,55.754 41.473,56.111 41.061,56.111 C41.061,56.111 36.478,56.111 36.478,56.111 C36.067,56.111 35.734,56.468 35.734,56.909 C35.734,57.348 36.067,57.706 36.478,57.706 C36.478,57.706 41.986,57.706 41.986,57.706 C41.986,57.706 53.244,57.706 53.244,57.706 C53.655,57.706 53.988,57.348 53.988,56.909 C53.988,56.468 53.655,56.111 53.244,56.111 C53.244,56.111 51.973,56.111 51.973,56.111 C51.561,56.111 51.228,55.754 51.228,55.314 C51.228,54.873 51.561,54.516 51.973,54.516 C51.973,54.516 56.968,54.516 56.968,54.516 C57.379,54.516 57.712,54.160 57.712,53.719 C57.712,53.279 57.379,52.922 56.968,52.922 C56.968,52.922 56.595,52.922 56.595,52.922 C56.595,52.922 43.095,52.922 43.095,52.922 Z" id="path-1" class="cls-3" fill-rule="evenodd"/>
    <path d="M56.317,57.919 C55.973,57.919 55.693,57.536 55.693,57.065 C55.693,56.593 55.973,56.210 56.317,56.210 C56.317,56.210 58.229,56.210 58.229,56.210 C58.574,56.210 58.853,56.593 58.853,57.065 C58.853,57.536 58.574,57.919 58.229,57.919 C58.229,57.919 56.317,57.919 56.317,57.919 Z" id="path-2" class="cls-3" fill-rule="evenodd"/>
    <path d="M53.322,19.172 C53.322,19.172 53.322,20.723 53.322,20.723 C53.322,21.022 53.710,21.265 54.189,21.265 C54.669,21.265 55.057,21.022 55.057,20.723 C55.057,20.723 55.057,20.651 55.057,20.651 C55.057,20.352 55.445,20.109 55.924,20.109 C56.403,20.109 56.792,20.352 56.792,20.651 C56.792,20.651 56.792,23.985 56.792,23.985 C56.792,24.284 57.180,24.526 57.659,24.526 C58.138,24.526 58.526,24.284 58.526,23.985 C58.526,23.985 58.526,19.978 58.526,19.978 C58.526,19.978 58.526,11.788 58.526,11.788 C58.526,11.489 58.138,11.247 57.659,11.247 C57.180,11.247 56.792,11.489 56.792,11.788 C56.792,11.788 56.792,12.714 56.792,12.714 C56.792,13.013 56.403,13.255 55.924,13.255 C55.445,13.255 55.057,13.013 55.057,12.714 C55.057,12.714 55.057,9.079 55.057,9.079 C55.057,8.780 54.669,8.538 54.189,8.538 C53.710,8.538 53.322,8.780 53.322,9.079 C53.322,9.079 53.322,9.350 53.322,9.350 C53.322,9.350 53.322,19.172 53.322,19.172 Z" id="path-3" class="cls-3" fill-rule="evenodd"/>
    <path d="M58.759,8.351 C58.759,8.882 58.343,9.312 57.829,9.312 C57.315,9.312 56.899,8.882 56.899,8.351 C56.899,8.351 56.899,5.407 56.899,5.407 C56.899,4.876 57.315,4.446 57.829,4.446 C58.343,4.446 58.759,4.876 58.759,5.407 C58.759,5.407 58.759,8.351 58.759,8.351 Z" id="path-4" class="cls-3" fill-rule="evenodd"/>
    <path d="M55.168,28.993 C55.168,29.523 54.752,29.954 54.238,29.954 C53.725,29.954 53.309,29.523 53.309,28.993 C53.309,28.993 53.309,26.049 53.309,26.049 C53.309,25.518 53.725,25.088 54.238,25.088 C54.752,25.088 55.168,25.518 55.168,26.049 C55.168,26.049 55.168,28.993 55.168,28.993 Z" id="path-5" class="cls-3" fill-rule="evenodd"/>
    <path d="M59.887,42.747 C59.887,43.278 59.471,43.708 58.957,43.708 C58.444,43.708 58.027,43.278 58.027,42.747 C58.027,42.747 58.027,39.803 58.027,39.803 C58.027,39.272 58.444,38.843 58.957,38.843 C59.471,38.843 59.887,39.272 59.887,39.803 C59.887,39.803 59.887,42.747 59.887,42.747 Z" id="path-6" class="cls-3" fill-rule="evenodd"/>
    <path d="M14.804,53.303 C14.804,53.303 1.885,40.384 1.885,40.384 C-0.653,37.846 -0.653,33.730 1.885,31.192 C1.885,31.192 20.084,12.993 20.084,12.993 C22.623,10.454 26.738,10.454 29.276,12.993 C29.276,12.993 42.195,25.912 42.195,25.912 C44.734,28.450 44.734,32.566 42.195,35.104 C42.195,35.104 23.996,53.303 23.996,53.303 C21.458,55.842 17.342,55.842 14.804,53.303 Z" id="path-7" class="cls-3" fill-rule="evenodd"/>
    <path d="M43.268,27.422 C43.142,28.945 42.500,30.434 41.335,31.599 C41.335,31.599 23.401,49.532 23.401,49.532 C20.790,52.144 16.555,52.144 13.943,49.532 C13.943,49.532 1.291,36.880 1.291,36.880 C0.794,36.383 0.394,35.828 0.086,35.236 C-0.070,37.127 0.571,39.071 2.018,40.517 C2.018,40.517 14.671,53.170 14.671,53.170 C17.282,55.782 21.517,55.782 24.129,53.170 C24.129,53.170 42.062,35.237 42.062,35.237 C44.178,33.121 44.579,29.942 43.268,27.422 Z" id="path-8" class="cls-10" fill-rule="evenodd"/>
    <path d="M40.140,24.450 C40.140,24.450 30.737,15.048 30.737,15.048 C30.737,15.048 34.875,10.911 34.875,10.911 C34.875,10.911 44.277,20.313 44.277,20.313 C44.277,20.313 40.140,24.450 40.140,24.450 Z" id="path-9" class="cls-11" fill-rule="evenodd"/>
    <path d="M44.549,20.585 C44.549,20.585 34.603,10.639 34.603,10.639 C34.217,10.254 34.300,9.607 34.770,9.331 C34.770,9.331 44.191,3.809 44.191,3.809 C44.519,3.617 44.935,3.670 45.202,3.938 C45.202,3.938 51.250,9.986 51.250,9.986 C51.518,10.254 51.571,10.669 51.380,10.996 C51.380,10.996 45.856,20.417 45.856,20.417 C45.581,20.888 44.935,20.971 44.549,20.585 Z" id="path-10" class="cls-11" fill-rule="evenodd"/>
    <path d="M46.367,5.066 C46.367,5.066 53.721,0.161 53.721,0.161 C54.578,-0.412 55.600,0.610 55.028,1.468 C55.028,1.468 50.122,8.822 50.122,8.822 C50.122,8.822 46.367,5.066 46.367,5.066 Z" id="path-11" class="cls-11" fill-rule="evenodd"/>
    <path d="M34.875,10.911 C34.875,10.911 41.725,19.955 41.725,19.955 C41.725,19.955 40.140,21.540 40.140,21.540 C40.140,21.540 32.192,13.593 32.192,13.593 C32.192,13.593 30.737,15.048 30.737,15.048 C30.737,15.048 40.140,24.450 40.140,24.450 C40.140,24.450 44.277,20.313 44.277,20.313 C44.277,20.313 34.875,10.911 34.875,10.911 Z" id="path-12" class="cls-10" fill-rule="evenodd"/>
    <path d="M45.856,20.417 C45.856,20.417 51.380,10.996 51.380,10.996 C51.571,10.669 51.518,10.254 51.250,9.986 C51.250,9.986 49.795,8.531 49.795,8.531 C50.062,8.798 50.116,9.214 49.925,9.541 C49.925,9.541 44.401,18.962 44.401,18.962 C44.126,19.433 43.479,19.516 43.094,19.130 C43.094,19.130 44.549,20.585 44.549,20.585 C44.935,20.971 45.581,20.888 45.856,20.417 Z" id="path-13" class="cls-10" fill-rule="evenodd"/>
    <path d="M55.028,1.468 C55.600,0.610 54.578,-0.412 53.721,0.161 C53.721,0.161 53.276,0.457 53.276,0.457 C53.276,0.457 48.667,7.366 48.667,7.366 C48.667,7.366 50.122,8.822 50.122,8.822 C50.122,8.822 55.028,1.468 55.028,1.468 Z" id="path-14" class="cls-10" fill-rule="evenodd"/>
    <path d="M23.826,46.405 C23.826,46.405 8.782,31.362 8.782,31.362 C8.782,31.362 20.254,19.890 20.254,19.890 C20.254,19.890 35.298,34.934 35.298,34.934 C35.298,34.934 23.826,46.405 23.826,46.405 Z" id="path-15" class="cls-17" fill-rule="evenodd"/>
    <path d="M34.570,35.662 C34.570,35.662 23.827,46.405 23.827,46.405 C23.827,46.405 9.511,32.089 9.511,32.089 C9.511,32.089 8.783,32.817 8.783,32.817 C8.783,32.817 23.827,47.861 23.827,47.861 C23.827,47.861 35.298,36.390 35.298,36.390 C35.298,36.390 34.570,35.662 34.570,35.662 Z" id="path-16" class="cls-10" fill-rule="evenodd"/>
  </g>
</svg>
