<svg xmlns="http://www.w3.org/2000/svg" xmlns:xlink="http://www.w3.org/1999/xlink" preserveAspectRatio="xMidYMid" width="60" height="47" viewBox="0 0 60 47">
  <defs>
    <style>

      .cls-3 {
        fill: #ff3a2f;
      }

      .cls-5 {
        fill: #ededed;
      }

      .cls-6 {
        fill: #000000;
        opacity: 0.35;
      }

      .cls-8 {
        fill: #2476ff;
      }
    </style>
  </defs>
  <g id="group-326svg">
    <path d="M12.192,41.202 C12.192,41.202 8.658,41.202 8.658,41.202 C7.977,41.202 7.424,41.620 7.424,42.136 C7.424,42.651 7.977,43.070 8.658,43.070 C8.658,43.070 8.823,43.070 8.823,43.070 C9.504,43.070 10.057,43.488 10.057,44.004 C10.057,44.520 9.504,44.938 8.823,44.938 C8.823,44.938 1.224,44.938 1.224,44.938 C0.542,44.938 -0.010,45.356 -0.010,45.872 C-0.010,46.387 0.542,46.806 1.224,46.806 C1.224,46.806 10.355,46.806 10.355,46.806 C10.355,46.806 29.020,46.806 29.020,46.806 C29.701,46.806 30.254,46.387 30.254,45.872 C30.254,45.356 29.701,44.938 29.020,44.938 C29.020,44.938 26.911,44.938 26.911,44.938 C26.229,44.938 25.677,44.520 25.677,44.004 C25.677,43.488 26.229,43.070 26.911,43.070 C26.911,43.070 35.193,43.070 35.193,43.070 C35.875,43.070 36.428,42.651 36.428,42.136 C36.428,41.620 35.875,41.202 35.193,41.202 C35.193,41.202 34.575,41.202 34.575,41.202 C34.575,41.202 12.192,41.202 12.192,41.202 Z" id="path-1" class="cls-3" fill-rule="evenodd"/>
    <path d="M34.114,47.056 C33.543,47.056 33.080,46.608 33.080,46.055 C33.080,45.502 33.543,45.054 34.114,45.054 C34.114,45.054 37.284,45.054 37.284,45.054 C37.855,45.054 38.319,45.502 38.319,46.055 C38.319,46.608 37.855,47.056 37.284,47.056 C37.284,47.056 34.114,47.056 34.114,47.056 Z" id="path-2" class="cls-3" fill-rule="evenodd"/>
    <path d="M51.950,39.873 C51.950,39.873 33.518,39.873 33.518,39.873 C31.680,39.873 29.044,37.536 29.044,35.903 C29.044,35.903 29.044,19.631 29.044,19.631 C29.044,19.270 29.239,18.936 29.556,18.759 C33.232,16.703 35.093,13.054 37.033,7.458 C37.033,7.458 37.033,2.096 37.033,2.096 C37.033,1.915 37.082,1.737 37.176,1.581 C37.782,0.571 38.809,-0.008 39.990,-0.008 C41.445,-0.008 42.920,0.838 44.037,2.314 C46.047,4.971 46.544,9.147 45.451,13.908 C45.451,13.908 53.866,13.908 53.866,13.908 C55.736,13.908 59.990,15.835 59.990,19.007 C59.990,20.054 59.867,21.647 59.202,22.578 C59.727,24.043 59.826,26.414 58.220,28.086 C58.352,30.907 57.640,32.956 56.145,34.078 C56.119,35.570 55.430,37.396 54.398,38.577 C53.659,39.424 52.812,39.873 51.950,39.873 Z" id="path-3" class="cls-5" fill-rule="evenodd"/>
    <path d="M59.202,22.578 C59.867,21.647 59.990,20.054 59.990,19.007 C59.990,17.343 58.818,16.027 57.435,15.146 C57.460,15.313 57.477,15.482 57.477,15.656 C57.477,16.703 57.354,18.297 56.689,19.228 C57.214,20.692 57.313,23.064 55.706,24.735 C55.839,27.556 55.127,29.606 53.631,30.727 C53.605,32.220 52.917,34.045 51.886,35.227 C51.146,36.074 50.300,36.522 49.437,36.522 C49.437,36.522 31.006,36.522 31.006,36.522 C30.397,36.522 29.703,36.263 29.044,35.862 C29.044,35.862 29.044,35.903 29.044,35.903 C29.044,37.536 31.680,39.873 33.518,39.873 C33.518,39.873 51.950,39.873 51.950,39.873 C52.812,39.873 53.659,39.424 54.398,38.577 C55.430,37.396 56.119,35.570 56.145,34.078 C57.640,32.956 58.352,30.906 58.220,28.086 C59.826,26.414 59.727,24.043 59.202,22.578 Z" id="path-4" class="cls-6" fill-rule="evenodd"/>
    <path d="M42.360,13.908 C42.360,13.908 45.385,13.908 45.385,13.908 C45.937,11.226 47.060,7.667 44.037,2.314 C43.685,1.690 43.116,1.268 42.598,0.897 C43.660,3.461 43.217,10.174 42.360,13.908 Z" id="path-5" class="cls-6" fill-rule="evenodd"/>
    <path d="M27.538,41.870 C27.538,41.870 16.569,41.870 16.569,41.870 C14.638,41.870 13.066,40.299 13.066,38.369 C13.066,38.369 13.066,17.409 13.066,17.409 C13.066,15.478 14.638,13.908 16.569,13.908 C16.569,13.908 27.538,13.908 27.538,13.908 C29.470,13.908 31.042,15.478 31.042,17.409 C31.042,17.409 31.042,38.369 31.042,38.369 C31.042,40.299 29.470,41.870 27.538,41.870 Z" id="path-6" class="cls-8" fill-rule="evenodd"/>
    <path d="M28.027,13.957 C28.338,14.480 28.529,15.083 28.529,15.734 C28.529,15.734 28.529,36.694 28.529,36.694 C28.529,38.625 26.957,40.194 25.025,40.194 C25.025,40.194 14.056,40.194 14.056,40.194 C13.889,40.194 13.728,40.168 13.567,40.145 C14.179,41.173 15.289,41.870 16.569,41.870 C16.569,41.870 27.538,41.870 27.538,41.870 C29.470,41.870 31.042,40.299 31.042,38.369 C31.042,38.369 31.042,17.409 31.042,17.409 C31.042,15.645 29.725,14.197 28.027,13.957 Z" id="path-7" class="cls-6" fill-rule="evenodd"/>
  </g>
</svg>
