<svg xmlns="http://www.w3.org/2000/svg" xmlns:xlink="http://www.w3.org/1999/xlink" preserveAspectRatio="xMidYMid" width="60" height="46" viewBox="0 0 60 46">
  <defs>
    <style>

      .cls-3 {
        fill: #fbb713;
      }

      .cls-4 {
        fill: #ff3a2f;
      }

      .cls-9 {
        fill: #020403;
        opacity: 0.25;
      }
    </style>
  </defs>
  <g id="group-53svg">
    <path d="M40.462,43.157 C40.462,43.157 44.864,43.157 44.864,43.157 C45.713,43.157 46.401,43.385 46.401,43.666 C46.401,43.947 45.713,44.175 44.864,44.175 C44.864,44.175 44.659,44.175 44.659,44.175 C43.810,44.175 43.122,44.403 43.122,44.684 C43.122,44.965 43.810,45.193 44.659,45.193 C44.659,45.193 54.123,45.193 54.123,45.193 C54.972,45.193 55.659,45.421 55.659,45.703 C55.659,45.984 54.972,46.212 54.123,46.212 C54.123,46.212 42.750,46.212 42.750,46.212 C42.750,46.212 30.250,46.212 30.250,46.212 C29.401,46.212 28.713,45.984 28.713,45.703 C28.713,45.421 29.401,45.193 30.250,45.193 C30.250,45.193 32.877,45.193 32.877,45.193 C33.726,45.193 34.413,44.965 34.413,44.684 C34.413,44.403 33.726,44.175 32.877,44.175 C32.877,44.175 20.376,44.175 20.376,44.175 C19.528,44.175 18.840,43.947 18.840,43.666 C18.840,43.385 19.528,43.157 20.376,43.157 C20.376,43.157 23.331,43.157 23.331,43.157 C23.331,43.157 40.462,43.157 40.462,43.157 Z" id="path-1" class="cls-3" fill-rule="evenodd"/>
    <path d="M12.735,43.708 C13.708,43.708 14.498,43.321 14.498,42.844 C14.498,42.367 13.708,41.980 12.735,41.980 C12.735,41.980 7.334,41.980 7.334,41.980 C6.361,41.980 5.572,42.367 5.572,42.844 C5.572,43.321 6.361,43.708 7.334,43.708 C7.334,43.708 12.735,43.708 12.735,43.708 Z" id="path-2" class="cls-4" fill-rule="evenodd"/>
    <path d="M54.988,35.162 C54.988,35.162 56.437,35.162 56.437,35.162 C56.716,35.162 56.942,35.390 56.942,35.671 C56.942,35.953 56.716,36.181 56.437,36.181 C56.437,36.181 56.369,36.181 56.369,36.181 C56.090,36.181 55.863,36.409 55.863,36.690 C55.863,36.971 56.090,37.199 56.369,37.199 C56.369,37.199 59.484,37.199 59.484,37.199 C59.764,37.199 59.990,37.427 59.990,37.709 C59.990,37.989 59.764,38.217 59.484,38.217 C59.484,38.217 55.741,38.217 55.741,38.217 C55.741,38.217 51.627,38.217 51.627,38.217 C51.348,38.217 51.121,37.989 51.121,37.709 C51.121,37.427 51.348,37.199 51.627,37.199 C51.627,37.199 52.491,37.199 52.491,37.199 C52.770,37.199 52.997,36.971 52.997,36.690 C52.997,36.409 52.770,36.181 52.491,36.181 C52.491,36.181 48.377,36.181 48.377,36.181 C48.098,36.181 47.871,35.953 47.871,35.671 C47.871,35.390 48.098,35.162 48.377,35.162 C48.377,35.162 49.350,35.162 49.350,35.162 C49.350,35.162 54.988,35.162 54.988,35.162 Z" id="path-3" class="cls-4" fill-rule="evenodd"/>
    <path d="M52.667,17.786 C48.574,7.341 38.429,-0.014 26.555,-0.014 C14.680,-0.014 4.535,7.341 0.441,17.786 C0.441,17.786 52.667,17.786 52.667,17.786 Z" id="path-4" class="cls-3" fill-rule="evenodd"/>
    <path d="M49.716,25.098 C49.716,25.098 2.490,25.098 2.490,25.098 C1.109,25.098 -0.010,23.979 -0.010,22.598 C-0.010,22.598 -0.010,22.376 -0.010,22.376 C-0.010,20.995 1.109,19.876 2.490,19.876 C2.490,19.876 49.716,19.876 49.716,19.876 C51.097,19.876 52.216,20.995 52.216,22.376 C52.216,22.376 52.216,22.598 52.216,22.598 C52.216,23.979 51.097,25.098 49.716,25.098 Z" id="path-5" class="cls-4" fill-rule="evenodd"/>
    <path d="M44.728,38.677 C44.728,38.677 8.380,38.677 8.380,38.677 C5.104,38.677 2.265,36.339 1.540,33.145 C1.540,33.145 0.441,28.232 0.441,28.232 C0.441,28.232 52.667,28.232 52.667,28.232 C52.667,28.232 51.568,33.145 51.568,33.145 C50.844,36.339 48.004,38.677 44.728,38.677 Z" id="path-6" class="cls-3" fill-rule="evenodd"/>
    <path d="M21.332,1.031 C32.803,1.031 42.643,7.904 46.989,17.786 C46.989,17.786 52.667,17.786 52.667,17.786 C48.574,7.341 38.429,-0.014 26.555,-0.014 C23.714,-0.014 20.976,0.417 18.393,1.201 C19.361,1.100 20.337,1.031 21.332,1.031 Z" id="path-7" class="cls-9" fill-rule="evenodd"/>
    <path d="M45.355,28.232 C45.355,28.232 44.257,33.145 44.257,33.145 C43.532,36.339 40.692,38.677 37.417,38.677 C37.417,38.677 44.728,38.677 44.728,38.677 C48.004,38.677 50.844,36.339 51.568,33.145 C51.568,33.145 52.667,28.232 52.667,28.232 C52.667,28.232 45.355,28.232 45.355,28.232 Z" id="path-8" class="cls-9" fill-rule="evenodd"/>
    <path d="M14.091,12.519 C14.091,12.519 13.047,12.519 13.047,12.519 C12.495,12.519 12.047,12.072 12.047,11.519 C12.047,10.967 12.495,10.519 13.047,10.519 C13.047,10.519 14.091,10.519 14.091,10.519 C14.643,10.519 15.091,10.967 15.091,11.519 C15.091,12.072 14.643,12.519 14.091,12.519 Z" id="path-9" class="cls-4" fill-rule="evenodd"/>
    <path d="M27.670,12.519 C27.670,12.519 26.625,12.519 26.625,12.519 C26.072,12.519 25.625,12.072 25.625,11.519 C25.625,10.967 26.072,10.519 26.625,10.519 C26.625,10.519 27.670,10.519 27.670,10.519 C28.223,10.519 28.670,10.967 28.670,11.519 C28.670,12.072 28.223,12.519 27.670,12.519 Z" id="path-10" class="cls-4" fill-rule="evenodd"/>
    <path d="M40.204,12.519 C40.204,12.519 39.159,12.519 39.159,12.519 C38.606,12.519 38.159,12.072 38.159,11.519 C38.159,10.967 38.606,10.519 39.159,10.519 C39.159,10.519 40.204,10.519 40.204,10.519 C40.757,10.519 41.204,10.967 41.204,11.519 C41.204,12.072 40.757,12.519 40.204,12.519 Z" id="path-11" class="cls-4" fill-rule="evenodd"/>
    <path d="M33.936,8.341 C33.936,8.341 32.893,8.341 32.893,8.341 C32.340,8.341 31.893,7.894 31.893,7.342 C31.893,6.789 32.340,6.342 32.893,6.342 C32.893,6.342 33.936,6.342 33.936,6.342 C34.489,6.342 34.937,6.789 34.937,7.342 C34.937,7.894 34.489,8.341 33.936,8.341 Z" id="path-12" class="cls-4" fill-rule="evenodd"/>
    <path d="M21.402,7.296 C21.402,7.296 20.358,7.296 20.358,7.296 C19.806,7.296 19.358,6.849 19.358,6.297 C19.358,5.744 19.806,5.297 20.358,5.297 C20.358,5.297 21.402,5.297 21.402,5.297 C21.955,5.297 22.402,5.744 22.402,6.297 C22.402,6.849 21.955,7.296 21.402,7.296 Z" id="path-13" class="cls-4" fill-rule="evenodd"/>
  </g>
</svg>
