<svg xmlns="http://www.w3.org/2000/svg" xmlns:xlink="http://www.w3.org/1999/xlink" preserveAspectRatio="xMidYMid" width="49" height="60" viewBox="0 0 49 60">
  <defs>
    <style>

      .cls-3 {
        fill: #ff3a2f;
      }

      .cls-5 {
        fill: #142a3b;
      }

      .cls-12 {
        fill: #fbb713;
      }
    </style>
  </defs>
  <g id="group-312svg">
    <path d="M26.525,54.641 C26.525,54.641 23.558,54.641 23.558,54.641 C22.985,54.641 22.521,55.025 22.521,55.499 C22.521,55.972 22.985,56.356 23.558,56.356 C23.558,56.356 23.695,56.356 23.695,56.356 C24.268,56.356 24.732,56.740 24.732,57.213 C24.732,57.687 24.268,58.071 23.695,58.071 C23.695,58.071 17.315,58.071 17.315,58.071 C16.743,58.071 16.279,58.454 16.279,58.927 C16.279,59.401 16.743,59.785 17.315,59.785 C17.315,59.785 24.982,59.785 24.982,59.785 C24.982,59.785 40.654,59.785 40.654,59.785 C41.226,59.785 41.690,59.401 41.690,58.927 C41.690,58.454 41.226,58.071 40.654,58.071 C40.654,58.071 38.884,58.071 38.884,58.071 C38.311,58.071 37.848,57.687 37.848,57.213 C37.848,56.740 38.311,56.356 38.884,56.356 C38.884,56.356 45.838,56.356 45.838,56.356 C46.410,56.356 46.875,55.972 46.875,55.499 C46.875,55.025 46.410,54.641 45.838,54.641 C45.838,54.641 45.319,54.641 45.319,54.641 C45.319,54.641 26.525,54.641 26.525,54.641 Z" id="path-1" class="cls-3" fill-rule="evenodd"/>
    <path d="M44.933,60.015 C44.452,60.015 44.063,59.603 44.063,59.096 C44.063,58.589 44.452,58.177 44.933,58.177 C44.933,58.177 47.595,58.177 47.595,58.177 C48.074,58.177 48.463,58.589 48.463,59.096 C48.463,59.603 48.074,60.015 47.595,60.015 C47.595,60.015 44.933,60.015 44.933,60.015 Z" id="path-2" class="cls-3" fill-rule="evenodd"/>
    <path d="M5.475,50.257 C4.922,50.257 4.475,49.809 4.475,49.257 C4.475,49.257 4.475,33.724 4.475,33.724 C4.475,33.172 4.922,32.724 5.475,32.724 C6.027,32.724 6.475,33.172 6.475,33.724 C6.475,33.724 6.475,49.257 6.475,49.257 C6.475,49.809 6.027,50.257 5.475,50.257 Z" id="path-3" class="cls-5" fill-rule="evenodd"/>
    <path d="M5.475,21.781 C4.922,21.781 4.475,21.333 4.475,20.781 C4.475,20.781 4.475,5.248 4.475,5.248 C4.475,4.696 4.922,4.248 5.475,4.248 C6.027,4.248 6.475,4.696 6.475,5.248 C6.475,5.248 6.475,20.781 6.475,20.781 C6.475,21.333 6.027,21.781 5.475,21.781 Z" id="path-4" class="cls-5" fill-rule="evenodd"/>
    <circle id="circle-1" class="cls-5" cx="6" cy="4" r="4"/>
    <circle id="circle-2" class="cls-5" cx="6" cy="51" r="5"/>
    <path d="M6.133,22.747 C6.048,22.747 5.962,22.735 5.877,22.713 C5.343,22.572 5.024,22.026 5.165,21.492 C7.769,11.614 16.730,4.716 26.956,4.716 C27.509,4.716 27.956,5.163 27.956,5.716 C27.956,6.268 27.509,6.715 26.956,6.715 C17.638,6.715 9.472,13.001 7.099,22.001 C6.980,22.450 6.575,22.747 6.133,22.747 Z" id="path-5" class="cls-5" fill-rule="evenodd"/>
    <path d="M26.956,49.789 C16.726,49.789 7.764,42.886 5.160,33.003 C5.020,32.469 5.338,31.922 5.872,31.782 C6.407,31.642 6.953,31.959 7.094,32.493 C9.466,41.499 17.634,47.789 26.956,47.789 C27.509,47.789 27.956,48.237 27.956,48.789 C27.956,49.341 27.509,49.789 26.956,49.789 Z" id="path-6" class="cls-5" fill-rule="evenodd"/>
    <path d="M11.661,33.724 C11.661,33.724 1.306,33.724 1.306,33.724 C0.590,33.724 0.012,33.146 0.012,32.430 C0.012,32.430 0.012,22.075 0.012,22.075 C0.012,21.360 0.590,20.781 1.306,20.781 C1.306,20.781 11.661,20.781 11.661,20.781 C12.377,20.781 12.955,21.360 12.955,22.075 C12.955,22.075 12.955,32.430 12.955,32.430 C12.955,33.146 12.377,33.724 11.661,33.724 Z" id="path-7" class="cls-3" fill-rule="evenodd"/>
    <path d="M37.549,13.015 C37.549,13.015 27.193,13.015 27.193,13.015 C26.478,13.015 25.899,12.435 25.899,11.720 C25.899,11.720 25.899,1.365 25.899,1.365 C25.899,0.649 26.478,0.070 27.193,0.070 C27.193,0.070 37.549,0.070 37.549,0.070 C38.265,0.070 38.843,0.649 38.843,1.365 C38.843,1.365 38.843,11.720 38.843,11.720 C38.843,12.435 38.265,13.015 37.549,13.015 Z" id="path-8" class="cls-12" fill-rule="evenodd"/>
    <path d="M37.549,54.435 C37.549,54.435 27.193,54.435 27.193,54.435 C26.478,54.435 25.899,53.856 25.899,53.141 C25.899,53.141 25.899,42.786 25.899,42.786 C25.899,42.070 26.478,41.491 27.193,41.491 C27.193,41.491 37.549,41.491 37.549,41.491 C38.265,41.491 38.843,42.070 38.843,42.786 C38.843,42.786 38.843,53.141 38.843,53.141 C38.843,53.856 38.265,54.435 37.549,54.435 Z" id="path-9" class="cls-12" fill-rule="evenodd"/>
  </g>
</svg>
