<svg xmlns="http://www.w3.org/2000/svg" xmlns:xlink="http://www.w3.org/1999/xlink" preserveAspectRatio="xMidYMid" width="60" height="56" viewBox="0 0 60 56">
  <defs>
    <style>

      .cls-3 {
        fill: #ff3a2f;
      }

      .cls-5 {
        fill: #2476ff;
      }

      .cls-7 {
        fill: #000000;
        opacity: 0.35;
      }
    </style>
  </defs>
  <g id="group-310svg">
    <path d="M19.091,47.002 C19.091,47.002 13.558,47.002 13.558,47.002 C12.491,47.002 11.626,47.657 11.626,48.465 C11.626,49.272 12.491,49.927 13.558,49.927 C13.558,49.927 13.815,49.927 13.815,49.927 C14.882,49.927 15.747,50.581 15.747,51.388 C15.747,52.196 14.882,52.850 13.815,52.850 C13.815,52.850 1.921,52.850 1.921,52.850 C0.853,52.850 -0.011,53.505 -0.011,54.312 C-0.011,55.120 0.853,55.775 1.921,55.775 C1.921,55.775 16.215,55.775 16.215,55.775 C16.215,55.775 45.432,55.775 45.432,55.775 C46.499,55.775 47.363,55.120 47.363,54.312 C47.363,53.505 46.499,52.850 45.432,52.850 C45.432,52.850 42.131,52.850 42.131,52.850 C41.063,52.850 40.199,52.196 40.199,51.388 C40.199,50.581 41.063,49.927 42.131,49.927 C42.131,49.927 55.096,49.927 55.096,49.927 C56.163,49.927 57.027,49.272 57.027,48.465 C57.027,47.657 56.163,47.002 55.096,47.002 C55.096,47.002 54.128,47.002 54.128,47.002 C54.128,47.002 19.091,47.002 19.091,47.002 Z" id="path-1" class="cls-3" fill-rule="evenodd"/>
    <path d="M53.407,56.166 C52.513,56.166 51.787,55.465 51.787,54.599 C51.787,53.734 52.513,53.032 53.407,53.032 C53.407,53.032 58.369,53.032 58.369,53.032 C59.264,53.032 59.989,53.734 59.989,54.599 C59.989,55.465 59.264,56.166 58.369,56.166 C58.369,56.166 53.407,56.166 53.407,56.166 Z" id="path-2" class="cls-3" fill-rule="evenodd"/>
    <path d="M36.819,48.377 C36.819,48.377 2.545,48.377 2.545,48.377 C1.987,48.377 1.537,47.927 1.537,47.369 C1.537,47.369 1.537,12.252 1.537,12.252 C1.537,12.014 1.621,11.784 1.775,11.602 C1.775,11.602 11.294,0.347 11.294,0.347 C11.485,0.121 11.767,-0.009 12.063,-0.009 C12.063,-0.009 36.819,-0.009 36.819,-0.009 C37.376,-0.009 37.827,0.441 37.827,0.998 C37.827,0.998 37.827,47.369 37.827,47.369 C37.827,47.927 37.376,48.377 36.819,48.377 Z" id="path-3" class="cls-5" fill-rule="evenodd"/>
    <path d="M11.617,-0.009 C11.617,-0.009 11.617,11.079 11.617,11.079 C11.617,11.636 11.166,12.087 10.609,12.087 C10.609,12.087 1.537,12.087 1.537,12.087 C1.537,12.087 11.617,-0.009 11.617,-0.009 Z" id="path-4" class="cls-5" fill-rule="evenodd"/>
    <path d="M11.617,-0.009 C11.617,-0.009 11.617,11.079 11.617,11.079 C11.617,11.636 11.166,12.087 10.609,12.087 C10.609,12.087 1.537,12.087 1.537,12.087 C1.537,12.087 11.617,-0.009 11.617,-0.009 Z" id="path-5" class="cls-7" fill-rule="evenodd"/>
  </g>
</svg>
