<svg xmlns="http://www.w3.org/2000/svg" xmlns:xlink="http://www.w3.org/1999/xlink" preserveAspectRatio="xMidYMid" width="60" height="60" viewBox="0 0 60 60">
  <defs>
    <style>

      .cls-3 {
        fill: #142a3b;
      }

      .cls-5 {
        fill: #020403;
        opacity: 0.45;
      }

      .cls-7 {
        fill: #ff3a2f;
      }

      .cls-8 {
        fill: #020403;
        opacity: 0.25;
      }

      .cls-9 {
        fill: #0cb04a;
      }

      .cls-10 {
        fill: #ffffff;
      }

      .cls-16 {
        fill: #2476ff;
      }
    </style>
  </defs>
  <g id="group-54svg">
    <path d="M39.358,46.806 C41.131,47.826 42.951,49.188 44.799,50.977 C44.799,50.977 43.376,51.793 40.903,52.622 C49.139,53.912 55.065,50.500 55.065,50.500 C48.953,44.585 43.273,45.103 39.358,46.806 Z" id="path-1" class="cls-3" fill-rule="evenodd"/>
    <path d="M15.471,50.977 C15.471,50.977 17.244,49.008 20.244,47.198 C11.001,42.388 3.688,50.500 3.688,50.500 C9.766,53.349 15.244,53.213 19.087,52.439 C17.901,52.029 16.696,51.550 15.471,50.977 Z" id="path-2" class="cls-3" fill-rule="evenodd"/>
    <path d="M46.909,52.622 C49.382,51.793 50.805,50.977 50.805,50.977 C48.957,49.188 47.137,47.826 45.364,46.806 C46.056,46.505 46.806,46.245 47.601,46.047 C44.439,45.249 41.607,45.828 39.358,46.806 C41.131,47.826 42.951,49.188 44.799,50.977 C44.799,50.977 43.376,51.793 40.903,52.622 C43.413,53.015 45.704,52.969 47.682,52.719 C47.424,52.687 47.171,52.663 46.909,52.622 Z" id="path-3" class="cls-5" fill-rule="evenodd"/>
    <path d="M15.471,50.977 C15.471,50.977 17.244,49.008 20.244,47.198 C18.737,46.414 17.283,45.978 15.902,45.789 C15.453,45.850 14.999,45.929 14.535,46.047 C15.330,46.245 16.079,46.505 16.771,46.806 C14.998,47.826 13.179,49.188 11.331,50.977 C11.331,50.977 12.753,51.793 15.226,52.622 C14.964,52.663 14.711,52.687 14.454,52.719 C14.934,52.780 15.434,52.827 15.949,52.860 C17.084,52.782 18.136,52.630 19.087,52.439 C17.901,52.029 16.696,51.550 15.471,50.977 Z" id="path-4" class="cls-5" fill-rule="evenodd"/>
    <path d="M15.471,50.977 C15.471,50.977 29.124,35.807 44.799,50.977 C44.799,50.977 31.652,58.561 15.471,50.977 Z" id="path-5" class="cls-7" fill-rule="evenodd"/>
    <path d="M27.204,44.512 C30.796,45.158 34.725,47.040 38.792,50.977 C38.792,50.977 34.272,53.579 27.276,54.209 C37.587,55.130 44.799,50.977 44.799,50.977 C38.311,44.699 32.174,43.623 27.204,44.512 Z" id="path-6" class="cls-8" fill-rule="evenodd"/>
    <path d="M40.476,17.977 C40.476,24.260 29.099,29.354 29.099,29.354 C29.099,29.354 17.722,24.260 17.722,17.977 C17.722,11.694 29.099,0.013 29.099,0.013 C29.099,0.013 40.476,11.694 40.476,17.977 Z" id="path-7" class="cls-9" fill-rule="evenodd"/>
    <path d="M19.860,20.185 C19.308,20.185 18.860,19.737 18.860,19.185 C18.860,13.902 27.286,5.101 28.247,4.114 C28.632,3.719 29.266,3.710 29.661,4.095 C30.056,4.481 30.064,5.114 29.679,5.510 C27.226,8.029 20.860,15.397 20.860,19.185 C20.860,19.737 20.413,20.185 19.860,20.185 Z" id="path-8" class="cls-10" fill-rule="evenodd"/>
    <path d="M29.099,0.013 C29.099,0.013 28.482,0.648 27.541,1.692 C30.884,5.518 36.472,12.571 36.472,16.976 C36.472,22.058 29.031,26.361 26.185,27.821 C27.852,28.794 29.099,29.354 29.099,29.354 C29.099,29.354 40.476,24.260 40.476,17.977 C40.476,11.694 29.099,0.013 29.099,0.013 Z" id="path-9" class="cls-8" fill-rule="evenodd"/>
    <path d="M29.392,45.044 C28.839,45.044 28.392,44.597 28.392,44.044 C28.392,44.044 28.406,31.982 28.406,31.982 C30.431,19.985 28.154,10.933 28.131,10.842 C27.993,10.307 28.314,9.762 28.849,9.624 C29.382,9.486 29.928,9.806 30.067,10.341 C30.166,10.723 32.468,19.831 30.392,32.232 C30.392,32.232 30.392,44.044 30.392,44.044 C30.392,44.597 29.944,45.044 29.392,45.044 Z" id="path-10" class="cls-3" fill-rule="evenodd"/>
    <path d="M8.025,42.266 C12.364,44.690 20.270,38.799 20.270,38.799 C20.270,38.799 21.142,28.979 16.803,26.555 C12.464,24.131 0.011,27.481 0.011,27.481 C0.011,27.481 3.687,39.842 8.025,42.266 Z" id="path-11" class="cls-9" fill-rule="evenodd"/>
    <path d="M16.803,30.559 C19.290,31.948 20.063,35.765 20.272,38.772 C20.317,38.216 21.011,28.906 16.803,26.555 C12.464,24.131 0.011,27.481 0.011,27.481 C0.011,27.481 0.478,29.048 1.272,31.172 C4.544,30.401 13.307,28.606 16.803,30.559 Z" id="path-12" class="cls-8" fill-rule="evenodd"/>
    <path d="M29.252,45.083 C29.087,45.083 28.919,45.042 28.765,44.956 C28.765,44.956 21.671,40.993 21.671,40.993 C12.277,37.628 6.851,32.501 6.623,32.284 C6.225,31.903 6.211,31.270 6.592,30.871 C6.974,30.472 7.607,30.458 8.006,30.839 C8.059,30.889 13.405,35.924 22.422,39.137 C22.422,39.137 22.574,39.206 22.574,39.206 C22.574,39.206 29.741,43.210 29.741,43.210 C30.223,43.479 30.395,44.088 30.126,44.571 C29.943,44.898 29.602,45.083 29.252,45.083 Z" id="path-13" class="cls-3" fill-rule="evenodd"/>
    <path d="M46.769,56.210 C46.769,56.210 50.604,56.210 50.604,56.210 C51.344,56.210 51.944,56.408 51.944,56.654 C51.944,56.899 51.344,57.097 50.604,57.097 C50.604,57.097 50.426,57.097 50.426,57.097 C49.686,57.097 49.087,57.296 49.087,57.541 C49.087,57.786 49.686,57.985 50.426,57.985 C50.426,57.985 58.672,57.985 58.672,57.985 C59.412,57.985 60.011,58.184 60.011,58.429 C60.011,58.674 59.412,58.872 58.672,58.872 C58.672,58.872 48.763,58.872 48.763,58.872 C48.763,58.872 37.871,58.872 37.871,58.872 C37.132,58.872 36.532,58.674 36.532,58.429 C36.532,58.184 37.132,57.985 37.871,57.985 C37.871,57.985 40.160,57.985 40.160,57.985 C40.899,57.985 41.499,57.786 41.499,57.541 C41.499,57.296 40.899,57.097 40.160,57.097 C40.160,57.097 29.268,57.097 29.268,57.097 C28.529,57.097 27.929,56.899 27.929,56.654 C27.929,56.408 28.529,56.210 29.268,56.210 C29.268,56.210 31.843,56.210 31.843,56.210 C31.843,56.210 46.769,56.210 46.769,56.210 Z" id="path-14" class="cls-16" fill-rule="evenodd"/>
    <path d="M22.610,56.690 C23.458,56.690 24.146,56.353 24.146,55.938 C24.146,55.522 23.458,55.185 22.610,55.185 C22.610,55.185 17.904,55.185 17.904,55.185 C17.056,55.185 16.369,55.522 16.369,55.938 C16.369,56.353 17.056,56.690 17.904,56.690 C17.904,56.690 22.610,56.690 22.610,56.690 Z" id="path-15" class="cls-16" fill-rule="evenodd"/>
    <path d="M39.164,37.919 C39.164,38.767 39.501,39.455 39.917,39.455 C40.333,39.455 40.669,38.767 40.669,37.919 C40.669,37.919 40.669,33.213 40.669,33.213 C40.669,32.365 40.333,31.677 39.917,31.677 C39.501,31.677 39.164,32.365 39.164,33.213 C39.164,33.213 39.164,37.919 39.164,37.919 Z" id="path-16" class="cls-16" fill-rule="evenodd"/>
    <path d="M53.728,40.926 C53.728,40.926 54.990,40.926 54.990,40.926 C55.233,40.926 55.431,41.124 55.431,41.369 C55.431,41.614 55.233,41.813 54.990,41.813 C54.990,41.813 54.932,41.813 54.932,41.813 C54.688,41.813 54.491,42.011 54.491,42.257 C54.491,42.502 54.688,42.701 54.932,42.701 C54.932,42.701 57.645,42.701 57.645,42.701 C57.889,42.701 58.086,42.899 58.086,43.144 C58.086,43.389 57.889,43.588 57.645,43.588 C57.645,43.588 54.384,43.588 54.384,43.588 C54.384,43.588 50.799,43.588 50.799,43.588 C50.556,43.588 50.358,43.389 50.358,43.144 C50.358,42.899 50.556,42.701 50.799,42.701 C50.799,42.701 51.552,42.701 51.552,42.701 C51.796,42.701 51.993,42.502 51.993,42.257 C51.993,42.011 51.796,41.813 51.552,41.813 C51.552,41.813 47.967,41.813 47.967,41.813 C47.724,41.813 47.527,41.614 47.527,41.369 C47.527,41.124 47.724,40.926 47.967,40.926 C47.967,40.926 48.815,40.926 48.815,40.926 C48.815,40.926 53.728,40.926 53.728,40.926 Z" id="path-17" class="cls-16" fill-rule="evenodd"/>
  </g>
</svg>
