<svg xmlns="http://www.w3.org/2000/svg" xmlns:xlink="http://www.w3.org/1999/xlink" preserveAspectRatio="xMidYMid" width="60" height="44" viewBox="0 0 60 44">
  <defs>
    <style>

      .cls-3 {
        fill: #ff3a2f;
      }

      .cls-6 {
        fill: #0cb04a;
      }

      .cls-9 {
        fill: #fbb713;
      }

      .cls-13 {
        fill: #ededed;
      }

      .cls-14 {
        fill: #010101;
        opacity: 0.35;
      }

      .cls-15 {
        fill: #142a3b;
      }
    </style>
  </defs>
  <g id="group-266svg">
    <path d="M33.121,37.886 C33.121,37.886 29.482,37.886 29.482,37.886 C28.781,37.886 28.212,38.316 28.212,38.848 C28.212,39.379 28.781,39.809 29.482,39.809 C29.482,39.809 29.651,39.809 29.651,39.809 C30.353,39.809 30.922,40.240 30.922,40.770 C30.922,41.302 30.353,41.732 29.651,41.732 C29.651,41.732 21.830,41.732 21.830,41.732 C21.128,41.732 20.560,42.162 20.560,42.693 C20.560,43.224 21.128,43.654 21.830,43.654 C21.830,43.654 31.229,43.654 31.229,43.654 C31.229,43.654 50.442,43.654 50.442,43.654 C51.144,43.654 51.713,43.224 51.713,42.693 C51.713,42.162 51.144,41.732 50.442,41.732 C50.442,41.732 48.272,41.732 48.272,41.732 C47.570,41.732 47.001,41.302 47.001,40.770 C47.001,40.240 47.570,39.809 48.272,39.809 C48.272,39.809 56.798,39.809 56.798,39.809 C57.499,39.809 58.068,39.379 58.068,38.848 C58.068,38.316 57.499,37.886 56.798,37.886 C56.798,37.886 56.162,37.886 56.162,37.886 C56.162,37.886 33.121,37.886 33.121,37.886 Z" id="path-1" class="cls-3" fill-rule="evenodd"/>
    <path d="M55.687,43.912 C55.099,43.912 54.622,43.451 54.622,42.882 C54.622,42.313 55.099,41.852 55.687,41.852 C55.687,41.852 58.950,41.852 58.950,41.852 C59.539,41.852 60.016,42.313 60.016,42.882 C60.016,43.451 59.539,43.912 58.950,43.912 C58.950,43.912 55.687,43.912 55.687,43.912 Z" id="path-2" class="cls-3" fill-rule="evenodd"/>
    <path d="M10.597,43.912 C10.008,43.912 9.532,43.451 9.532,42.882 C9.532,42.313 10.008,41.852 10.597,41.852 C10.597,41.852 13.860,41.852 13.860,41.852 C14.448,41.852 14.925,42.313 14.925,42.882 C14.925,43.451 14.448,43.912 13.860,43.912 C13.860,43.912 10.597,43.912 10.597,43.912 Z" id="path-3" class="cls-3" fill-rule="evenodd"/>
    <path d="M24.175,18.695 C24.175,18.695 22.878,18.695 22.878,18.695 C22.878,18.695 22.878,5.757 22.878,5.757 C22.878,5.757 24.175,5.757 24.175,5.757 C24.175,5.757 24.175,18.695 24.175,18.695 Z" id="path-4" class="cls-6" fill-rule="evenodd"/>
    <path d="M14.471,18.695 C14.471,18.695 13.174,18.695 13.174,18.695 C13.174,18.695 13.174,5.757 13.174,5.757 C13.174,5.757 14.471,5.757 14.471,5.757 C14.471,5.757 14.471,18.695 14.471,18.695 Z" id="path-5" class="cls-6" fill-rule="evenodd"/>
    <path d="M33.878,18.695 C33.878,18.695 32.581,18.695 32.581,18.695 C32.581,18.695 32.581,5.757 32.581,5.757 C32.581,5.757 33.878,5.757 33.878,5.757 C33.878,5.757 33.878,18.695 33.878,18.695 Z" id="path-6" class="cls-6" fill-rule="evenodd"/>
    <path d="M16.362,4.758 C16.362,6.161 15.225,7.298 13.823,7.298 C12.420,7.298 11.283,6.161 11.283,4.758 C11.283,3.355 13.823,0.010 13.823,0.010 C13.823,0.010 16.362,3.355 16.362,4.758 Z" id="path-7" class="cls-9" fill-rule="evenodd"/>
    <path d="M35.769,4.758 C35.769,6.161 34.632,7.298 33.230,7.298 C31.828,7.298 30.690,6.161 30.690,4.758 C30.690,3.355 33.230,0.010 33.230,0.010 C33.230,0.010 35.769,3.355 35.769,4.758 Z" id="path-8" class="cls-9" fill-rule="evenodd"/>
    <path d="M26.066,4.758 C26.066,6.161 24.929,7.298 23.526,7.298 C22.124,7.298 20.987,6.161 20.987,4.758 C20.987,3.355 23.526,0.010 23.526,0.010 C23.526,0.010 26.066,3.355 26.066,4.758 Z" id="path-9" class="cls-9" fill-rule="evenodd"/>
    <path d="M44.005,37.239 C44.005,37.239 44.005,27.385 44.005,27.385 C44.005,21.633 40.433,16.969 36.026,16.969 C36.026,16.969 12.307,16.969 12.307,16.969 C7.900,16.969 4.328,21.633 4.328,27.385 C4.328,27.385 4.328,37.239 4.328,37.239 C4.328,37.239 44.005,37.239 44.005,37.239 Z" id="path-10" class="cls-3" fill-rule="evenodd"/>
    <path d="M6.995,28.315 C6.443,28.315 5.995,27.867 5.995,27.315 C5.995,22.468 9.121,18.525 12.962,18.525 C13.514,18.525 13.962,18.973 13.962,19.525 C13.962,20.078 13.514,20.525 12.962,20.525 C10.223,20.525 7.995,23.571 7.995,27.315 C7.995,27.867 7.547,28.315 6.995,28.315 Z" id="path-11" class="cls-13" fill-rule="evenodd"/>
    <path d="M36.026,16.969 C36.026,16.969 32.145,16.969 32.145,16.969 C36.551,16.969 40.123,21.633 40.123,27.385 C40.123,27.385 40.123,31.811 40.123,31.811 C40.123,31.811 4.328,34.221 4.328,34.221 C4.328,34.221 44.005,37.239 44.005,37.239 C44.005,37.239 44.005,27.385 44.005,27.385 C44.005,21.633 40.433,16.969 36.026,16.969 Z" id="path-12" class="cls-14" fill-rule="evenodd"/>
    <path d="M48.318,38.964 C48.318,38.964 0.016,38.964 0.016,38.964 C0.016,38.964 0.016,34.221 0.016,34.221 C0.016,34.221 48.318,34.221 48.318,34.221 C48.318,34.221 48.318,38.964 48.318,38.964 Z" id="path-13" class="cls-15" fill-rule="evenodd"/>
    <path d="M44.436,34.221 C44.436,34.221 44.436,38.964 44.436,38.964 C44.436,38.964 48.318,38.964 48.318,38.964 C48.318,38.964 48.318,34.221 48.318,34.221 C48.318,34.221 44.436,34.221 44.436,34.221 Z" id="path-14" class="cls-14" fill-rule="evenodd"/>
  </g>
</svg>
