<svg xmlns="http://www.w3.org/2000/svg" xmlns:xlink="http://www.w3.org/1999/xlink" preserveAspectRatio="xMidYMid" width="54" height="60" viewBox="0 0 54 60">
  <defs>
    <style>

      .cls-3 {
        fill: #142a3b;
      }

      .cls-8 {
        fill: #090908;
        opacity: 0.35;
      }

      .cls-11 {
        fill: #ff3a2f;
      }

      .cls-12 {
        fill: #ededed;
      }

      .cls-13 {
        fill: #090908;
        opacity: 0.25;
      }
    </style>
  </defs>
  <g id="group-191svg">
    <path d="M30.162,5.272 C30.162,5.272 30.162,3.745 30.162,3.745 C30.162,3.451 29.711,3.212 29.154,3.212 C28.598,3.212 28.146,3.451 28.146,3.745 C28.146,3.745 28.146,3.816 28.146,3.816 C28.146,4.111 27.695,4.349 27.139,4.349 C26.582,4.349 26.131,4.111 26.131,3.816 C26.131,3.816 26.131,0.534 26.131,0.534 C26.131,0.239 25.680,0.001 25.123,0.001 C24.566,0.001 24.115,0.239 24.115,0.534 C24.115,0.534 24.115,4.478 24.115,4.478 C24.115,4.478 24.115,12.541 24.115,12.541 C24.115,12.835 24.566,13.074 25.123,13.074 C25.680,13.074 26.131,12.835 26.131,12.541 C26.131,12.541 26.131,11.629 26.131,11.629 C26.131,11.336 26.582,11.097 27.139,11.097 C27.695,11.097 28.146,11.336 28.146,11.629 C28.146,11.629 28.146,15.965 28.146,15.965 C28.146,16.260 28.598,16.498 29.154,16.498 C29.711,16.498 30.162,16.260 30.162,15.965 C30.162,15.965 30.162,14.940 30.162,14.940 C30.162,14.940 30.162,5.272 30.162,5.272 Z" id="path-1" class="cls-3" fill-rule="evenodd"/>
    <path d="M20.130,5.919 C20.130,5.919 20.130,5.170 20.130,5.170 C20.130,5.025 19.908,4.908 19.635,4.908 C19.362,4.908 19.141,5.025 19.141,5.170 C19.141,5.170 19.141,5.204 19.141,5.204 C19.141,5.349 18.919,5.466 18.645,5.466 C18.372,5.466 18.150,5.349 18.150,5.204 C18.150,5.204 18.150,3.593 18.150,3.593 C18.150,3.448 17.929,3.331 17.656,3.331 C17.383,3.331 17.161,3.448 17.161,3.593 C17.161,3.593 17.161,5.530 17.161,5.530 C17.161,5.530 17.161,9.488 17.161,9.488 C17.161,9.633 17.383,9.750 17.656,9.750 C17.929,9.750 18.150,9.633 18.150,9.488 C18.150,9.488 18.150,9.041 18.150,9.041 C18.150,8.896 18.372,8.779 18.645,8.779 C18.919,8.779 19.141,8.896 19.141,9.041 C19.141,9.041 19.141,11.170 19.141,11.170 C19.141,11.314 19.362,11.431 19.635,11.431 C19.908,11.431 20.130,11.314 20.130,11.170 C20.130,11.170 20.130,10.667 20.130,10.667 C20.130,10.667 20.130,5.919 20.130,5.919 Z" id="path-2" class="cls-3" fill-rule="evenodd"/>
    <path d="M24.181,18.383 C24.181,17.618 24.678,16.998 25.291,16.998 C25.904,16.998 26.402,17.618 26.402,18.383 C26.402,18.383 26.402,22.627 26.402,22.627 C26.402,23.391 25.904,24.011 25.291,24.011 C24.678,24.011 24.181,23.391 24.181,22.627 C24.181,22.627 24.181,18.383 24.181,18.383 Z" id="path-3" class="cls-3" fill-rule="evenodd"/>
    <path d="M35.216,6.042 C35.216,5.246 35.733,4.601 36.371,4.601 C37.010,4.601 37.527,5.246 37.527,6.042 C37.527,6.042 37.527,10.457 37.527,10.457 C37.527,11.253 37.010,11.898 36.371,11.898 C35.733,11.898 35.216,11.253 35.216,10.457 C35.216,10.457 35.216,6.042 35.216,6.042 Z" id="path-4" class="cls-3" fill-rule="evenodd"/>
    <path d="M53.807,58.284 C45.755,48.215 47.108,35.949 47.123,35.828 C47.158,35.528 47.063,35.226 46.865,35.000 C46.663,34.775 46.376,34.644 46.073,34.644 C46.073,34.644 44.529,34.644 44.529,34.644 C44.529,34.644 36.498,34.644 36.498,34.644 C37.093,40.498 39.102,49.116 45.380,56.966 C46.064,57.822 46.222,58.977 45.858,60.001 C45.858,60.001 52.981,60.001 52.981,60.001 C53.386,60.001 53.758,59.767 53.933,59.403 C54.108,59.036 54.059,58.601 53.807,58.284 Z" id="path-5" class="cls-3" fill-rule="evenodd"/>
    <path d="M49.412,58.284 C41.360,48.215 42.714,35.950 42.728,35.828 C42.764,35.528 42.668,35.226 42.470,35.000 C42.268,34.775 41.981,34.644 41.678,34.644 C41.678,34.644 40.135,34.644 40.135,34.644 C40.135,34.644 36.183,34.644 36.183,34.644 C36.487,34.644 36.774,34.775 36.976,35.000 C37.174,35.226 37.269,35.528 37.234,35.828 C37.220,35.950 35.866,48.215 43.918,58.284 C44.170,58.601 44.219,59.036 44.044,59.403 C43.868,59.767 43.497,60.001 43.093,60.001 C43.093,60.001 48.587,60.001 48.587,60.001 C48.991,60.001 49.362,59.767 49.538,59.403 C49.713,59.036 49.664,58.601 49.412,58.284 Z" id="path-6" class="cls-8" fill-rule="evenodd"/>
    <path d="M17.441,34.644 C17.441,34.644 13.630,34.644 13.630,34.644 C13.630,34.644 7.968,34.644 7.968,34.644 C7.667,34.644 7.380,34.775 7.180,35.000 C6.978,35.226 6.885,35.528 6.920,35.828 C6.935,35.949 8.288,48.215 0.238,58.284 C-0.018,58.601 -0.065,59.036 0.110,59.403 C0.288,59.767 0.655,60.001 1.063,60.001 C1.063,60.001 8.078,60.001 8.078,60.001 C7.717,58.974 7.873,57.819 8.559,56.964 C14.840,49.106 16.850,40.495 17.441,34.644 Z" id="path-7" class="cls-3" fill-rule="evenodd"/>
    <path d="M10.000,59.403 C9.824,59.036 9.872,58.601 10.127,58.284 C18.178,48.215 16.824,35.950 16.809,35.828 C16.774,35.528 16.867,35.226 17.069,35.000 C17.269,34.775 17.556,34.644 17.857,34.644 C17.857,34.644 13.462,34.644 13.462,34.644 C13.161,34.644 12.874,34.775 12.674,35.000 C12.472,35.226 12.379,35.528 12.414,35.828 C12.429,35.950 13.782,48.215 5.732,58.284 C5.476,58.601 5.429,59.036 5.604,59.403 C5.782,59.767 6.149,60.001 6.558,60.001 C6.558,60.001 10.953,60.001 10.953,60.001 C10.544,60.001 10.177,59.767 10.000,59.403 Z" id="path-8" class="cls-8" fill-rule="evenodd"/>
    <path d="M38.355,27.380 C38.393,27.080 38.298,26.777 38.100,26.550 C37.897,26.323 37.608,26.192 37.308,26.192 C37.308,26.192 17.650,26.192 17.650,26.192 C17.345,26.192 17.056,26.323 16.858,26.550 C16.655,26.778 16.563,27.081 16.602,27.382 C16.623,27.546 18.562,44.009 7.151,58.284 C6.895,58.601 6.848,59.036 7.023,59.403 C7.201,59.767 7.568,60.001 7.976,60.001 C7.976,60.001 46.981,60.001 46.981,60.001 C47.386,60.001 47.757,59.767 47.933,59.403 C48.107,59.036 48.059,58.601 47.807,58.284 C36.416,44.036 38.335,27.546 38.355,27.380 Z" id="path-9" class="cls-11" fill-rule="evenodd"/>
    <path d="M15.648,50.642 C15.501,50.642 15.353,50.610 15.212,50.542 C14.715,50.301 14.508,49.702 14.749,49.205 C18.021,42.459 18.452,35.907 18.236,31.598 C18.209,31.047 18.634,30.577 19.185,30.550 C19.727,30.507 20.206,30.947 20.234,31.499 C20.461,36.041 20.006,42.951 16.548,50.079 C16.375,50.435 16.019,50.642 15.648,50.642 Z" id="path-10" class="cls-12" fill-rule="evenodd"/>
    <path d="M47.807,58.284 C36.416,44.036 38.335,27.546 38.355,27.380 C38.393,27.080 38.298,26.777 38.100,26.550 C37.897,26.323 37.608,26.192 37.308,26.192 C37.308,26.192 32.912,26.192 32.912,26.192 C33.213,26.192 33.503,26.323 33.705,26.550 C33.902,26.777 33.998,27.080 33.960,27.380 C33.939,27.546 32.020,44.036 43.411,58.284 C43.663,58.601 43.713,59.036 43.537,59.403 C43.362,59.767 42.990,60.001 42.586,60.001 C42.586,60.001 46.981,60.001 46.981,60.001 C47.386,60.001 47.757,59.767 47.933,59.403 C48.107,59.036 48.059,58.601 47.807,58.284 Z" id="path-11" class="cls-13" fill-rule="evenodd"/>
  </g>
</svg>
