<svg xmlns="http://www.w3.org/2000/svg" xmlns:xlink="http://www.w3.org/1999/xlink" preserveAspectRatio="xMidYMid" width="61" height="37" viewBox="0 0 61 37">
  <defs>
    <style>

      .cls-3 {
        fill: #2476ff;
      }

      .cls-6 {
        fill: #ff3a2f;
      }

      .cls-7 {
        fill: #142a3b;
      }

      .cls-9 {
        fill: #fbb713;
      }

      .cls-10 {
        fill: #020403;
        opacity: 0.35;
      }

      .cls-11 {
        fill: #020403;
        opacity: 0.2;
      }
    </style>
  </defs>
  <g id="group-32svg">
    <path d="M6.967,30.881 C6.967,30.881 8.388,30.881 8.388,30.881 C8.661,30.881 8.884,31.289 8.884,31.792 C8.884,32.296 8.661,32.703 8.388,32.703 C8.388,32.703 8.321,32.703 8.321,32.703 C8.047,32.703 7.825,33.111 7.825,33.615 C7.825,34.118 8.047,34.527 8.321,34.527 C8.321,34.527 11.376,34.527 11.376,34.527 C11.650,34.527 11.872,34.934 11.872,35.438 C11.872,35.941 11.650,36.349 11.376,36.349 C11.376,36.349 7.705,36.349 7.705,36.349 C7.705,36.349 3.670,36.349 3.670,36.349 C3.396,36.349 3.174,35.941 3.174,35.438 C3.174,34.934 3.396,34.527 3.670,34.527 C3.670,34.527 4.518,34.527 4.518,34.527 C4.792,34.527 5.014,34.118 5.014,33.615 C5.014,33.111 4.792,32.703 4.518,32.703 C4.518,32.703 0.483,32.703 0.483,32.703 C0.209,32.703 -0.013,32.296 -0.013,31.792 C-0.013,31.289 0.209,30.881 0.483,30.881 C0.483,30.881 1.436,30.881 1.436,30.881 C1.436,30.881 6.967,30.881 6.967,30.881 Z" id="path-1" class="cls-3" fill-rule="evenodd"/>
    <path d="M44.799,22.003 C44.799,22.003 49.198,22.003 49.198,22.003 C50.047,22.003 50.734,22.411 50.734,22.915 C50.734,23.418 50.047,23.826 49.198,23.826 C49.198,23.826 48.993,23.826 48.993,23.826 C48.144,23.826 47.457,24.234 47.457,24.737 C47.457,25.241 48.144,25.649 48.993,25.649 C48.993,25.649 58.451,25.649 58.451,25.649 C59.300,25.649 59.987,26.057 59.987,26.560 C59.987,27.064 59.300,27.472 58.451,27.472 C58.451,27.472 47.085,27.472 47.085,27.472 C47.085,27.472 34.593,27.472 34.593,27.472 C33.744,27.472 33.057,27.064 33.057,26.560 C33.057,26.057 33.744,25.649 34.593,25.649 C34.593,25.649 37.218,25.649 37.218,25.649 C38.066,25.649 38.754,25.241 38.754,24.737 C38.754,24.234 38.066,23.826 37.218,23.826 C37.218,23.826 24.726,23.826 24.726,23.826 C23.877,23.826 23.189,23.418 23.189,22.915 C23.189,22.411 23.877,22.003 24.726,22.003 C24.726,22.003 27.678,22.003 27.678,22.003 C27.678,22.003 44.799,22.003 44.799,22.003 Z" id="path-2" class="cls-3" fill-rule="evenodd"/>
    <path d="M19.965,27.397 C20.836,27.397 21.542,26.962 21.542,26.425 C21.542,25.887 20.836,25.452 19.965,25.452 C19.965,25.452 15.131,25.452 15.131,25.452 C14.260,25.452 13.554,25.887 13.554,26.425 C13.554,26.962 14.260,27.397 15.131,27.397 C15.131,27.397 19.965,27.397 19.965,27.397 Z" id="path-3" class="cls-3" fill-rule="evenodd"/>
    <path d="M41.635,17.920 C41.635,17.920 6.060,17.920 6.060,17.920 C3.622,17.920 1.644,19.897 1.644,22.335 C1.644,22.335 46.050,22.335 46.050,22.335 C46.050,19.897 44.072,17.920 41.635,17.920 Z" id="path-4" class="cls-6" fill-rule="evenodd"/>
    <path d="M24.848,18.472 C24.848,18.472 22.848,18.472 22.848,18.472 C22.848,18.472 22.848,2.492 22.848,2.492 C22.848,2.492 24.848,2.492 24.848,2.492 C24.848,2.492 24.848,18.472 24.848,18.472 Z" id="path-5" class="cls-7" fill-rule="evenodd"/>
    <path d="M30.073,3.320 C30.073,3.320 17.621,3.320 17.621,3.320 C16.707,3.320 15.966,2.578 15.966,1.664 C15.966,1.664 15.966,1.664 15.966,1.664 C15.966,0.750 16.707,0.009 17.621,0.009 C17.621,0.009 30.073,0.009 30.073,0.009 C30.987,0.009 31.728,0.750 31.728,1.664 C31.728,1.664 31.728,1.664 31.728,1.664 C31.728,2.578 30.987,3.320 30.073,3.320 Z" id="path-6" class="cls-7" fill-rule="evenodd"/>
    <path d="M41.765,15.764 C41.765,15.764 41.765,11.514 41.765,11.514 C41.765,8.008 38.896,5.139 35.390,5.139 C35.390,5.139 12.305,5.139 12.305,5.139 C8.799,5.139 5.930,8.008 5.930,11.514 C5.930,11.514 5.930,15.764 5.930,15.764 C5.930,15.764 41.765,15.764 41.765,15.764 Z" id="path-7" class="cls-9" fill-rule="evenodd"/>
    <path d="M2.508,20.584 C2.508,20.584 38.082,20.584 38.082,20.584 C39.515,20.584 40.775,21.278 41.582,22.335 C41.582,22.335 46.050,22.335 46.050,22.335 C46.050,19.897 44.072,17.920 41.635,17.920 C41.635,17.920 6.060,17.920 6.060,17.920 C4.224,17.920 2.651,19.042 1.985,20.637 C2.159,20.616 2.329,20.584 2.508,20.584 Z" id="path-8" class="cls-10" fill-rule="evenodd"/>
    <path d="M35.390,5.139 C35.390,5.139 35.346,5.139 35.346,5.139 C36.560,6.302 37.324,7.934 37.324,9.738 C37.324,9.738 37.324,9.738 37.324,9.738 C37.324,12.085 35.422,13.988 33.074,13.988 C33.074,13.988 5.930,13.988 5.930,13.988 C5.930,13.988 5.930,15.764 5.930,15.764 C5.930,15.764 41.765,15.764 41.765,15.764 C41.765,15.764 41.765,11.514 41.765,11.514 C41.765,8.008 38.896,5.139 35.390,5.139 Z" id="path-9" class="cls-11" fill-rule="evenodd"/>
  </g>
</svg>
