<svg xmlns="http://www.w3.org/2000/svg" xmlns:xlink="http://www.w3.org/1999/xlink" preserveAspectRatio="xMidYMid" width="60" height="58" viewBox="0 0 60 58">
  <defs>
    <style>

      .cls-3 {
        fill: #142a3b;
      }

      .cls-5 {
        fill: #ff3a2f;
      }

      .cls-6 {
        fill: #020403;
        opacity: 0.35;
      }

      .cls-7 {
        fill: #fbb713;
      }

      .cls-9 {
        fill: #020403;
        opacity: 0.25;
      }

      .cls-16 {
        fill: #a72720;
      }
    </style>
  </defs>
  <g id="group-141svg">
    <path d="M44.882,45.325 C44.882,45.325 47.620,45.325 47.620,45.325 C48.148,45.325 48.576,45.720 48.576,46.207 C48.576,46.694 48.148,47.089 47.620,47.089 C47.620,47.089 47.492,47.089 47.492,47.089 C46.965,47.089 46.536,47.484 46.536,47.971 C46.536,48.458 46.965,48.853 47.492,48.853 C47.492,48.853 53.380,48.853 53.380,48.853 C53.907,48.853 54.336,49.248 54.336,49.735 C54.336,50.222 53.907,50.617 53.380,50.617 C53.380,50.617 46.305,50.617 46.305,50.617 C46.305,50.617 38.529,50.617 38.529,50.617 C38.001,50.617 37.573,50.222 37.573,49.735 C37.573,49.248 38.001,48.853 38.529,48.853 C38.529,48.853 40.163,48.853 40.163,48.853 C40.690,48.853 41.119,48.458 41.119,47.971 C41.119,47.484 40.690,47.089 40.163,47.089 C40.163,47.089 32.387,47.089 32.387,47.089 C31.859,47.089 31.431,46.694 31.431,46.207 C31.431,45.720 31.859,45.325 32.387,45.325 C32.387,45.325 34.225,45.325 34.225,45.325 C34.225,45.325 44.882,45.325 44.882,45.325 Z" id="path-1" class="cls-3" fill-rule="evenodd"/>
    <path d="M57.902,56.539 C59.056,56.539 59.990,55.947 59.990,55.217 C59.990,54.486 59.056,53.893 57.902,53.893 C57.902,53.893 51.504,53.893 51.504,53.893 C50.351,53.893 49.416,54.486 49.416,55.217 C49.416,55.947 50.351,56.539 51.504,56.539 C51.504,56.539 57.902,56.539 57.902,56.539 Z" id="path-2" class="cls-3" fill-rule="evenodd"/>
    <path d="M35.175,52.881 C35.175,52.881 5.906,52.881 5.906,52.881 C5.906,52.881 5.906,33.265 5.906,33.265 C5.906,33.265 35.175,33.265 35.175,33.265 C35.175,33.265 35.175,52.881 35.175,52.881 Z" id="path-3" class="cls-5" fill-rule="evenodd"/>
    <path d="M28.865,40.509 C28.865,40.509 28.865,46.301 28.865,46.301 C28.865,46.301 12.528,46.301 12.528,46.301 C12.528,46.301 12.528,49.228 12.528,49.228 C12.528,49.228 32.768,49.228 32.768,49.228 C32.768,49.228 32.768,40.509 32.768,40.509 C32.768,40.509 28.865,40.509 28.865,40.509 Z" id="path-4" class="cls-6" fill-rule="evenodd"/>
    <path d="M30.816,47.276 C30.816,47.276 10.577,47.276 10.577,47.276 C10.577,47.276 10.577,38.558 10.577,38.558 C10.577,38.558 30.816,38.558 30.816,38.558 C30.816,38.558 30.816,47.276 30.816,47.276 Z" id="path-5" class="cls-7" fill-rule="evenodd"/>
    <path d="M31.084,29.210 C31.084,23.341 26.326,18.584 20.457,18.584 C14.588,18.584 9.830,23.341 9.830,29.210 C9.830,29.210 31.084,29.210 31.084,29.210 Z" id="path-6" class="cls-5" fill-rule="evenodd"/>
    <path d="M21.836,18.683 C24.480,20.616 26.206,23.732 26.206,27.259 C26.206,27.259 10.017,27.259 10.017,27.259 C9.899,27.892 9.830,28.543 9.830,29.210 C9.830,29.210 31.084,29.210 31.084,29.210 C31.084,23.809 27.052,19.360 21.836,18.683 Z" id="path-7" class="cls-9" fill-rule="evenodd"/>
    <path d="M41.402,33.265 C41.402,33.265 -0.010,33.265 -0.010,33.265 C-0.010,33.265 -0.010,28.594 -0.010,28.594 C-0.010,28.594 41.402,28.594 41.402,28.594 C41.402,28.594 41.402,33.265 41.402,33.265 Z" id="path-8" class="cls-3" fill-rule="evenodd"/>
    <path d="M5.906,35.495 C5.906,35.495 35.175,36.874 35.175,36.874 C35.175,36.874 35.175,33.265 35.175,33.265 C35.175,33.265 5.906,33.265 5.906,33.265 C5.906,33.265 5.906,35.495 5.906,35.495 Z" id="path-9" class="cls-6" fill-rule="evenodd"/>
    <path d="M41.402,57.552 C41.402,57.552 -0.010,57.552 -0.010,57.552 C-0.010,57.552 -0.010,52.881 -0.010,52.881 C-0.010,52.881 41.402,52.881 41.402,52.881 C41.402,52.881 41.402,57.552 41.402,57.552 Z" id="path-10" class="cls-3" fill-rule="evenodd"/>
    <path d="M5.906,50.930 C5.906,50.930 5.906,52.881 5.906,52.881 C5.906,52.881 35.175,52.881 35.175,52.881 C35.175,52.881 35.175,50.930 35.175,50.930 C35.175,50.930 5.906,50.930 5.906,50.930 Z" id="path-11" class="cls-6" fill-rule="evenodd"/>
    <path d="M23.257,17.492 C23.257,17.492 18.672,17.492 18.672,17.492 C18.672,17.492 18.672,15.492 18.672,15.492 C18.672,15.492 22.464,15.492 22.464,15.492 C22.464,15.492 26.101,12.067 26.101,12.067 C26.101,12.067 38.223,12.067 38.223,12.067 C38.223,12.067 38.223,9.642 38.223,9.642 C38.223,9.642 40.223,9.642 40.223,9.642 C40.223,9.642 40.223,14.067 40.223,14.067 C40.223,14.067 26.893,14.067 26.893,14.067 C26.893,14.067 23.257,17.492 23.257,17.492 Z" id="path-12" class="cls-3" fill-rule="evenodd"/>
    <path d="M42.498,9.642 C42.498,9.642 36.067,9.642 36.067,9.642 C36.067,9.642 36.067,-0.010 36.067,-0.010 C36.067,-0.010 42.498,-0.010 42.498,-0.010 C42.498,-0.010 42.498,9.642 42.498,9.642 Z" id="path-13" class="cls-5" fill-rule="evenodd"/>
    <path d="M40.547,-0.010 C40.547,-0.010 40.547,9.642 40.547,9.642 C40.547,9.642 42.498,9.642 42.498,9.642 C42.498,9.642 42.498,-0.010 42.498,-0.010 C42.498,-0.010 40.547,-0.010 40.547,-0.010 Z" id="path-14" class="cls-16" fill-rule="evenodd"/>
    <path d="M22.195,12.538 C22.195,13.498 21.417,14.276 20.457,14.276 C19.497,14.276 18.719,13.498 18.719,12.538 C18.719,11.577 19.497,10.799 20.457,10.799 C21.417,10.799 22.195,11.577 22.195,12.538 Z" id="path-15" class="cls-3" fill-rule="evenodd"/>
    <path d="M22.195,42.699 C22.195,43.659 21.417,44.438 20.457,44.438 C19.497,44.438 18.719,43.659 18.719,42.699 C18.719,41.739 19.497,40.961 20.457,40.961 C21.417,40.961 22.195,41.739 22.195,42.699 Z" id="path-16" class="cls-5" fill-rule="evenodd"/>
    <path d="M21.433,40.961 C21.262,40.961 21.101,40.993 20.945,41.039 C21.666,41.251 22.195,41.910 22.195,42.699 C22.195,43.489 21.666,44.148 20.945,44.360 C21.101,44.406 21.262,44.438 21.433,44.438 C22.393,44.438 23.171,43.659 23.171,42.699 C23.171,41.739 22.393,40.961 21.433,40.961 Z" id="path-17" class="cls-6" fill-rule="evenodd"/>
    <path d="M43.703,21.349 C43.703,22.158 43.047,22.814 42.238,22.814 C41.430,22.814 40.773,22.158 40.773,21.349 C40.773,20.541 41.430,19.884 42.238,19.884 C43.047,19.884 43.703,20.541 43.703,21.349 Z" id="path-18" class="cls-5" fill-rule="evenodd"/>
    <path d="M54.098,25.964 C54.098,27.076 53.196,27.977 52.084,27.977 C50.972,27.977 50.070,27.076 50.070,25.964 C50.070,24.851 50.972,23.950 52.084,23.950 C53.196,23.950 54.098,24.851 54.098,25.964 Z" id="path-19" class="cls-5" fill-rule="evenodd"/>
  </g>
</svg>
