<svg xmlns="http://www.w3.org/2000/svg" xmlns:xlink="http://www.w3.org/1999/xlink" preserveAspectRatio="xMidYMid" width="61" height="44" viewBox="0 0 61 44">
  <defs>
    <style>

      .cls-3 {
        fill: #fbb713;
      }

      .cls-6 {
        fill: #142a3b;
      }

      .cls-7 {
        fill: #060606;
        opacity: 0.35;
      }

      .cls-8 {
        fill: #ededed;
        opacity: 0.5;
      }

      .cls-17 {
        fill: #ff3a2f;
      }
    </style>
  </defs>
  <g id="group-223svg">
    <path d="M42.323,42.562 C42.323,42.562 46.146,42.562 46.146,42.562 C46.883,42.562 47.480,42.153 47.480,41.647 C47.480,41.142 46.883,40.732 46.146,40.732 C46.146,40.732 45.968,40.732 45.968,40.732 C45.231,40.732 44.634,40.322 44.634,39.817 C44.634,39.312 45.231,38.902 45.968,38.902 C45.968,38.902 54.186,38.902 54.186,38.902 C54.923,38.902 55.520,38.493 55.520,37.987 C55.520,37.482 54.923,37.072 54.186,37.072 C54.186,37.072 44.311,37.072 44.311,37.072 C44.311,37.072 24.124,37.072 24.124,37.072 C23.388,37.072 22.790,37.482 22.790,37.987 C22.790,38.493 23.388,38.902 24.124,38.902 C24.124,38.902 26.405,38.902 26.405,38.902 C27.142,38.902 27.739,39.312 27.739,39.817 C27.739,40.322 27.142,40.732 26.405,40.732 C26.405,40.732 15.551,40.732 15.551,40.732 C14.813,40.732 14.216,41.142 14.216,41.647 C14.216,42.153 14.813,42.562 15.551,42.562 C15.551,42.562 18.116,42.562 18.116,42.562 C18.116,42.562 42.323,42.562 42.323,42.562 Z" id="path-1" class="cls-3" fill-rule="evenodd"/>
    <path d="M58.429,41.024 C59.292,41.024 59.992,41.494 59.992,42.074 C59.992,42.653 59.292,43.123 58.429,43.123 C58.429,43.123 53.638,43.123 53.638,43.123 C52.773,43.123 52.074,42.653 52.074,42.074 C52.074,41.494 52.773,41.024 53.638,41.024 C53.638,41.024 58.429,41.024 58.429,41.024 Z" id="path-2" class="cls-3" fill-rule="evenodd"/>
    <path d="M8.328,41.024 C9.191,41.024 9.892,41.494 9.892,42.074 C9.892,42.653 9.191,43.123 8.328,43.123 C8.328,43.123 3.537,43.123 3.537,43.123 C2.673,43.123 1.974,42.653 1.974,42.074 C1.974,41.494 2.673,41.024 3.537,41.024 C3.537,41.024 8.328,41.024 8.328,41.024 Z" id="path-3" class="cls-3" fill-rule="evenodd"/>
    <path d="M42.953,4.998 C42.953,4.998 4.988,4.998 4.988,4.998 C2.233,4.998 -0.008,7.239 -0.008,9.993 C-0.008,9.993 -0.008,31.974 -0.008,31.974 C-0.008,34.728 2.233,36.969 4.988,36.969 C4.988,36.969 42.953,36.969 42.953,36.969 C45.708,36.969 47.949,34.728 47.949,31.974 C47.949,31.974 47.949,9.993 47.949,9.993 C47.949,7.239 45.708,4.998 42.953,4.998 Z" id="path-4" class="cls-6" fill-rule="evenodd"/>
    <path d="M43.883,5.088 C44.232,5.770 44.434,6.540 44.434,7.357 C44.434,7.357 44.434,29.337 44.434,29.337 C44.434,32.091 42.192,34.332 39.437,34.332 C39.437,34.332 1.473,34.332 1.473,34.332 C1.154,34.332 0.845,34.299 0.543,34.242 C1.371,35.858 3.051,36.969 4.988,36.969 C4.988,36.969 42.953,36.969 42.953,36.969 C45.708,36.969 47.949,34.728 47.949,31.974 C47.949,31.974 47.949,9.993 47.949,9.993 C47.949,7.557 46.194,5.525 43.883,5.088 Z" id="path-5" class="cls-7" fill-rule="evenodd"/>
    <path d="M13.979,28.976 C13.979,28.976 7.985,28.976 7.985,28.976 C7.434,28.976 6.986,28.530 6.986,27.977 C6.986,27.425 7.434,26.978 7.985,26.978 C7.985,26.978 13.979,26.978 13.979,26.978 C14.531,26.978 14.978,27.425 14.978,27.977 C14.978,28.530 14.531,28.976 13.979,28.976 Z" id="path-6" class="cls-8" fill-rule="evenodd"/>
    <path d="M13.979,22.982 C13.979,22.982 7.985,22.982 7.985,22.982 C7.434,22.982 6.986,22.535 6.986,21.983 C6.986,21.430 7.434,20.983 7.985,20.983 C7.985,20.983 13.979,20.983 13.979,20.983 C14.531,20.983 14.978,21.430 14.978,21.983 C14.978,22.535 14.531,22.982 13.979,22.982 Z" id="path-7" class="cls-8" fill-rule="evenodd"/>
    <path d="M27.967,28.976 C27.967,28.976 19.975,28.976 19.975,28.976 C19.423,28.976 18.976,28.530 18.976,27.977 C18.976,27.425 19.423,26.978 19.975,26.978 C19.975,26.978 27.967,26.978 27.967,26.978 C28.518,26.978 28.966,27.425 28.966,27.977 C28.966,28.530 28.518,28.976 27.967,28.976 Z" id="path-8" class="cls-8" fill-rule="evenodd"/>
    <path d="M27.967,22.982 C27.967,22.982 19.975,22.982 19.975,22.982 C19.423,22.982 18.976,22.535 18.976,21.983 C18.976,21.430 19.423,20.983 19.975,20.983 C19.975,20.983 27.967,20.983 27.967,20.983 C28.518,20.983 28.966,21.430 28.966,21.983 C28.966,22.535 28.518,22.982 27.967,22.982 Z" id="path-9" class="cls-8" fill-rule="evenodd"/>
    <path d="M39.956,28.976 C39.956,28.976 33.962,28.976 33.962,28.976 C33.410,28.976 32.963,28.530 32.963,27.977 C32.963,27.425 33.410,26.978 33.962,26.978 C33.962,26.978 39.956,26.978 39.956,26.978 C40.508,26.978 40.955,27.425 40.955,27.977 C40.955,28.530 40.508,28.976 39.956,28.976 Z" id="path-10" class="cls-8" fill-rule="evenodd"/>
    <path d="M39.956,22.982 C39.956,22.982 33.962,22.982 33.962,22.982 C33.410,22.982 32.963,22.535 32.963,21.983 C32.963,21.430 33.410,20.983 33.962,20.983 C33.962,20.983 39.956,20.983 39.956,20.983 C40.508,20.983 40.955,21.430 40.955,21.983 C40.955,22.535 40.508,22.982 39.956,22.982 Z" id="path-11" class="cls-8" fill-rule="evenodd"/>
    <path d="M39.956,16.987 C39.956,16.987 7.985,16.987 7.985,16.987 C7.434,16.987 6.986,16.540 6.986,15.988 C6.986,15.436 7.434,14.989 7.985,14.989 C7.985,14.989 39.956,14.989 39.956,14.989 C40.508,14.989 40.955,15.436 40.955,15.988 C40.955,16.540 40.508,16.987 39.956,16.987 Z" id="path-12" class="cls-8" fill-rule="evenodd"/>
    <path d="M37.718,4.998 C37.718,4.998 37.718,9.475 37.718,9.475 C37.718,10.027 37.269,10.475 36.719,10.475 C36.167,10.475 35.720,10.027 35.720,9.475 C35.720,9.475 35.720,4.998 35.720,4.998 C35.720,4.998 37.718,4.998 37.718,4.998 Z" id="path-13" class="cls-7" fill-rule="evenodd"/>
    <path d="M15.745,4.998 C15.745,4.998 15.745,9.475 15.745,9.475 C15.745,10.027 15.298,10.475 14.746,10.475 C14.195,10.475 13.747,10.027 13.747,9.475 C13.747,9.475 13.747,4.998 13.747,4.998 C13.747,4.998 15.745,4.998 15.745,4.998 Z" id="path-14" class="cls-7" fill-rule="evenodd"/>
    <path d="M12.980,9.993 C13.532,9.993 13.979,9.547 13.979,8.995 C13.979,8.995 13.979,1.002 13.979,1.002 C13.979,0.450 13.532,0.003 12.980,0.003 C12.430,0.003 11.981,0.450 11.981,1.002 C11.981,1.002 11.981,8.995 11.981,8.995 C11.981,9.547 12.430,9.993 12.980,9.993 Z" id="path-15" class="cls-17" fill-rule="evenodd"/>
    <path d="M34.961,9.993 C35.512,9.993 35.960,9.547 35.960,8.995 C35.960,8.995 35.960,1.002 35.960,1.002 C35.960,0.450 35.512,0.003 34.961,0.003 C34.409,0.003 33.962,0.450 33.962,1.002 C33.962,1.002 33.962,8.995 33.962,8.995 C33.962,9.547 34.409,9.993 34.961,9.993 Z" id="path-16" class="cls-17" fill-rule="evenodd"/>
  </g>
</svg>
