<svg xmlns="http://www.w3.org/2000/svg" xmlns:xlink="http://www.w3.org/1999/xlink" preserveAspectRatio="xMidYMid" width="60" height="50" viewBox="0 0 60 50">
  <defs>
    <style>

      .cls-3 {
        fill: #2476ff;
      }

      .cls-5 {
        fill: #142a3b;
      }

      .cls-6 {
        fill: #ededed;
      }

      .cls-7 {
        fill: #fbb713;
      }

      .cls-16 {
        fill: #000000;
        opacity: 0.25;
      }
    </style>
  </defs>
  <g id="group-28svg">
    <path d="M45.373,43.856 C45.373,43.856 49.606,43.856 49.606,43.856 C50.423,43.856 51.085,44.275 51.085,44.792 C51.085,45.309 50.423,45.729 49.606,45.729 C49.606,45.729 49.410,45.729 49.410,45.729 C48.594,45.729 47.932,46.148 47.932,46.665 C47.932,47.183 48.594,47.602 49.410,47.602 C49.410,47.602 58.512,47.602 58.512,47.602 C59.328,47.602 59.990,48.021 59.990,48.538 C59.990,49.056 59.328,49.476 58.512,49.476 C58.512,49.476 47.573,49.476 47.573,49.476 C47.573,49.476 35.551,49.476 35.551,49.476 C34.734,49.476 34.072,49.056 34.072,48.538 C34.072,48.021 34.734,47.602 35.551,47.602 C35.551,47.602 38.077,47.602 38.077,47.602 C38.893,47.602 39.555,47.183 39.555,46.665 C39.555,46.148 38.893,45.729 38.077,45.729 C38.077,45.729 26.055,45.729 26.055,45.729 C25.238,45.729 24.576,45.309 24.576,44.792 C24.576,44.275 25.238,43.856 26.055,43.856 C26.055,43.856 28.895,43.856 28.895,43.856 C28.895,43.856 45.373,43.856 45.373,43.856 Z" id="path-1" class="cls-3" fill-rule="evenodd"/>
    <path d="M9.272,44.512 C10.376,44.512 11.272,43.945 11.272,43.245 C11.272,42.545 10.376,41.977 9.272,41.977 C9.272,41.977 3.142,41.977 3.142,41.977 C2.037,41.977 1.141,42.545 1.141,43.245 C1.141,43.945 2.037,44.512 3.142,44.512 C3.142,44.512 9.272,44.512 9.272,44.512 Z" id="path-2" class="cls-3" fill-rule="evenodd"/>
    <path d="M46.728,23.377 C46.728,36.283 36.266,46.746 23.359,46.746 C10.453,46.746 -0.010,36.283 -0.010,23.377 C-0.010,10.470 10.453,0.007 23.359,0.007 C36.266,0.007 46.728,10.470 46.728,23.377 Z" id="path-3" class="cls-5" fill-rule="evenodd"/>
    <path d="M39.341,23.377 C39.341,32.203 32.185,39.358 23.359,39.358 C14.533,39.358 7.378,32.203 7.378,23.377 C7.378,14.551 14.533,7.395 23.359,7.395 C32.185,7.395 39.341,14.551 39.341,23.377 Z" id="path-4" class="cls-6" fill-rule="evenodd"/>
    <path d="M23.664,3.799 C23.664,4.520 23.080,5.104 22.359,5.104 C21.639,5.104 21.054,4.520 21.054,3.799 C21.054,3.078 21.639,2.494 22.359,2.494 C23.080,2.494 23.664,3.078 23.664,3.799 Z" id="path-5" class="cls-7" fill-rule="evenodd"/>
    <path d="M23.664,43.514 C23.664,44.235 23.080,44.819 22.359,44.819 C21.639,44.819 21.054,44.235 21.054,43.514 C21.054,42.793 21.639,42.209 22.359,42.209 C23.080,42.209 23.664,42.793 23.664,43.514 Z" id="path-6" class="cls-7" fill-rule="evenodd"/>
    <path d="M44.644,25.134 C43.845,25.134 43.197,24.485 43.197,23.687 C43.197,22.888 43.845,22.240 44.644,22.240 C45.442,22.240 46.090,22.888 46.090,23.687 C46.090,24.485 45.442,25.134 44.644,25.134 Z" id="path-7" class="cls-7" fill-rule="evenodd"/>
    <path d="M2.502,24.962 C1.781,24.962 1.196,24.377 1.196,23.656 C1.196,22.936 1.781,22.352 2.502,22.352 C3.223,22.352 3.807,22.936 3.807,23.656 C3.807,24.377 3.223,24.962 2.502,24.962 Z" id="path-8" class="cls-7" fill-rule="evenodd"/>
    <path d="M37.174,40.273 C36.609,39.708 36.609,38.792 37.174,38.227 C37.739,37.662 38.655,37.662 39.220,38.227 C39.785,38.792 39.785,39.708 39.220,40.273 C38.655,40.838 37.739,40.838 37.174,40.273 Z" id="path-9" class="cls-7" fill-rule="evenodd"/>
    <path d="M7.395,10.538 C6.885,10.028 6.885,9.202 7.395,8.692 C7.905,8.183 8.731,8.183 9.241,8.692 C9.750,9.202 9.750,10.028 9.241,10.538 C8.731,11.047 7.905,11.047 7.395,10.538 Z" id="path-10" class="cls-7" fill-rule="evenodd"/>
    <path d="M39.220,9.146 C38.655,9.711 37.739,9.711 37.174,9.146 C36.609,8.581 36.609,7.665 37.174,7.101 C37.739,6.536 38.655,6.536 39.220,7.101 C39.785,7.665 39.785,8.581 39.220,9.146 Z" id="path-11" class="cls-7" fill-rule="evenodd"/>
    <path d="M9.241,38.621 C8.731,39.131 7.905,39.131 7.395,38.621 C6.885,38.111 6.885,37.284 7.395,36.775 C7.905,36.266 8.731,36.266 9.241,36.775 C9.750,37.284 9.750,38.111 9.241,38.621 Z" id="path-12" class="cls-7" fill-rule="evenodd"/>
    <path d="M8.475,22.036 C8.475,22.036 11.823,18.833 11.823,18.833 C12.449,18.233 13.433,18.221 14.074,18.805 C14.074,18.805 16.826,21.311 16.826,21.311 C17.449,21.879 18.400,21.885 19.031,21.325 C19.031,21.325 21.909,18.771 21.909,18.771 C22.549,18.204 23.517,18.219 24.138,18.807 C24.138,18.807 26.806,21.331 26.806,21.331 C27.399,21.893 28.315,21.934 28.959,21.429 C28.959,21.429 32.535,18.615 32.535,18.615 C33.159,18.124 34.044,18.147 34.642,18.670 C34.642,18.670 38.486,22.036 38.486,22.036 C38.486,22.036 39.341,23.377 39.341,23.377 C39.341,32.203 32.185,39.358 23.359,39.358 C14.533,39.358 7.378,32.203 7.378,23.377 C7.378,23.377 8.475,22.036 8.475,22.036 Z" id="path-13" class="cls-3" fill-rule="evenodd"/>
    <path d="M15.913,37.427 C13.154,34.555 11.449,30.662 11.449,26.365 C11.449,17.539 18.604,10.383 27.431,10.383 C30.092,10.383 32.596,11.043 34.804,12.195 C31.895,9.168 27.815,7.275 23.286,7.275 C14.460,7.275 7.305,14.431 7.305,23.256 C7.305,29.421 10.801,34.762 15.913,37.427 Z" id="path-14" class="cls-16" fill-rule="evenodd"/>
  </g>
</svg>
