<svg xmlns="http://www.w3.org/2000/svg" xmlns:xlink="http://www.w3.org/1999/xlink" preserveAspectRatio="xMidYMid" width="50" height="61" viewBox="0 0 50 61">
  <defs>
    <style>

      .cls-3 {
        fill: #ff3a2f;
      }

      .cls-5 {
        fill: #142a3b;
      }

      .cls-7 {
        fill: #ededed;
      }

      .cls-8 {
        fill: #090908;
        opacity: 0.35;
      }
    </style>
  </defs>
  <g id="group-206svg">
    <path d="M33.305,59.393 C33.305,59.393 36.680,59.393 36.680,59.393 C37.330,59.393 37.858,58.961 37.858,58.428 C37.858,57.894 37.330,57.463 36.680,57.463 C36.680,57.463 36.522,57.463 36.522,57.463 C35.872,57.463 35.345,57.030 35.345,56.497 C35.345,55.964 35.872,55.532 36.522,55.532 C36.522,55.532 43.777,55.532 43.777,55.532 C44.428,55.532 44.955,55.100 44.955,54.566 C44.955,54.033 44.428,53.600 43.777,53.600 C43.777,53.600 35.059,53.600 35.059,53.600 C35.059,53.600 17.240,53.600 17.240,53.600 C16.589,53.600 16.062,54.033 16.062,54.566 C16.062,55.100 16.589,55.532 17.240,55.532 C17.240,55.532 19.253,55.532 19.253,55.532 C19.904,55.532 20.431,55.964 20.431,56.497 C20.431,57.030 19.904,57.463 19.253,57.463 C19.253,57.463 9.671,57.463 9.671,57.463 C9.020,57.463 8.493,57.894 8.493,58.428 C8.493,58.961 9.020,59.393 9.671,59.393 C9.671,59.393 11.936,59.393 11.936,59.393 C11.936,59.393 33.305,59.393 33.305,59.393 Z" id="path-1" class="cls-3" fill-rule="evenodd"/>
    <path d="M47.522,57.771 C48.285,57.771 48.902,58.266 48.902,58.878 C48.902,59.489 48.285,59.985 47.522,59.985 C47.522,59.985 43.292,59.985 43.292,59.985 C42.530,59.985 41.913,59.489 41.913,58.878 C41.913,58.266 42.530,57.771 43.292,57.771 C43.292,57.771 47.522,57.771 47.522,57.771 Z" id="path-2" class="cls-3" fill-rule="evenodd"/>
    <path d="M34.455,52.863 C34.455,52.863 32.675,52.863 32.675,52.863 C32.722,52.750 32.749,52.626 32.749,52.495 C32.749,51.960 32.316,51.526 31.781,51.526 C31.781,51.526 3.636,51.526 3.636,51.526 C3.101,51.526 2.668,51.960 2.668,52.495 C2.668,52.626 2.696,52.750 2.743,52.863 C2.743,52.863 0.962,52.863 0.962,52.863 C0.428,52.863 -0.006,53.297 -0.006,53.831 C-0.006,54.366 0.428,54.799 0.962,54.799 C0.962,54.799 34.455,54.799 34.455,54.799 C34.990,54.799 35.423,54.366 35.423,53.831 C35.423,53.297 34.990,52.863 34.455,52.863 Z" id="path-3" class="cls-5" fill-rule="evenodd"/>
    <path d="M26.974,9.250 C26.974,14.367 22.826,18.515 17.709,18.515 C12.592,18.515 8.443,14.367 8.443,9.250 C8.443,4.133 12.592,-0.015 17.709,-0.015 C22.826,-0.015 26.974,4.133 26.974,9.250 Z" id="path-4" class="cls-3" fill-rule="evenodd"/>
    <path d="M11.309,10.250 C10.756,10.250 10.309,9.803 10.309,9.250 C10.309,5.170 13.628,1.850 17.709,1.850 C18.261,1.850 18.709,2.298 18.709,2.850 C18.709,3.402 18.261,3.850 17.709,3.850 C14.731,3.850 12.309,6.272 12.309,9.250 C12.309,9.803 11.861,10.250 11.309,10.250 Z" id="path-5" class="cls-7" fill-rule="evenodd"/>
    <path d="M24.275,2.715 C24.728,3.807 24.981,5.004 24.981,6.261 C24.981,11.378 20.832,15.526 15.716,15.526 C13.149,15.526 10.827,14.481 9.149,12.796 C10.541,16.153 13.848,18.515 17.709,18.515 C22.826,18.515 26.974,14.367 26.974,9.250 C26.974,6.700 25.943,4.390 24.275,2.715 Z" id="path-6" class="cls-8" fill-rule="evenodd"/>
    <path d="M25.686,26.278 C25.686,26.278 9.731,26.278 9.731,26.278 C8.594,26.278 7.672,25.356 7.672,24.220 C7.672,24.220 7.672,19.237 7.672,19.237 C7.672,18.100 8.594,17.178 9.731,17.178 C9.731,17.178 25.686,17.178 25.686,17.178 C26.824,17.178 27.745,18.100 27.745,19.237 C27.745,19.237 27.745,24.220 27.745,24.220 C27.745,25.356 26.824,26.278 25.686,26.278 Z" id="path-7" class="cls-5" fill-rule="evenodd"/>
    <path d="M25.693,17.178 C25.693,17.178 25.452,17.178 25.452,17.178 C25.638,17.487 25.752,17.847 25.752,18.234 C25.752,18.234 25.752,23.230 25.752,23.230 C25.752,24.363 24.833,25.281 23.700,25.281 C23.700,25.281 7.973,25.281 7.973,25.281 C8.332,25.876 8.978,26.278 9.724,26.278 C9.724,26.278 25.693,26.278 25.693,26.278 C26.827,26.278 27.745,25.359 27.745,24.227 C27.745,24.227 27.745,19.230 27.745,19.230 C27.745,18.097 26.827,17.178 25.693,17.178 Z" id="path-8" class="cls-8" fill-rule="evenodd"/>
    <path d="M28.850,51.527 C28.850,51.527 6.567,51.527 6.567,51.527 C6.567,51.527 11.916,26.278 11.916,26.278 C11.916,26.278 23.502,26.278 23.502,26.278 C23.502,26.278 28.850,51.527 28.850,51.527 Z" id="path-9" class="cls-5" fill-rule="evenodd"/>
    <path d="M23.502,26.278 C23.502,26.278 11.916,26.278 11.916,26.278 C11.916,26.278 11.824,26.710 11.824,26.710 C11.824,26.710 19.958,28.481 19.958,28.481 C19.958,28.481 24.540,48.223 24.540,48.223 C24.670,48.785 24.243,49.323 23.666,49.323 C23.666,49.323 6.743,50.697 6.743,50.697 C6.743,50.697 6.567,51.527 6.567,51.527 C6.567,51.527 28.850,51.527 28.850,51.527 C28.850,51.527 23.502,26.278 23.502,26.278 Z" id="path-10" class="cls-8" fill-rule="evenodd"/>
    <path d="M32.675,52.863 C32.722,52.750 32.749,52.626 32.749,52.495 C32.749,52.388 32.721,52.289 32.688,52.193 C32.688,52.193 2.729,52.193 2.729,52.193 C2.697,52.289 2.668,52.388 2.668,52.495 C2.668,52.626 2.696,52.750 2.743,52.863 C2.743,52.863 1.724,52.863 1.724,52.863 C1.724,52.863 1.724,52.872 1.724,52.872 C1.724,52.872 33.998,52.872 33.998,52.872 C33.998,52.872 33.998,52.863 33.998,52.863 C33.998,52.863 32.675,52.863 32.675,52.863 Z" id="path-11" class="cls-8" fill-rule="evenodd"/>
    <path d="M-0.006,53.831 C-0.006,54.366 0.428,54.799 0.962,54.799 C0.962,54.799 34.455,54.799 34.455,54.799 C34.990,54.799 35.423,54.366 35.423,53.831 C35.423,53.792 35.405,53.758 35.401,53.719 C35.401,53.719 0.017,53.719 0.017,53.719 C0.012,53.758 -0.006,53.792 -0.006,53.831 Z" id="path-12" class="cls-8" fill-rule="evenodd"/>
    <path d="M10.501,47.384 C10.440,47.384 10.378,47.378 10.316,47.366 C9.773,47.265 9.415,46.743 9.517,46.200 C9.517,46.200 12.341,31.085 12.341,31.085 C12.442,30.542 12.962,30.184 13.507,30.285 C14.050,30.387 14.408,30.909 14.307,31.452 C14.307,31.452 11.483,46.567 11.483,46.567 C11.393,47.048 10.973,47.384 10.501,47.384 Z" id="path-13" class="cls-7" fill-rule="evenodd"/>
  </g>
</svg>
