<svg xmlns="http://www.w3.org/2000/svg" xmlns:xlink="http://www.w3.org/1999/xlink" preserveAspectRatio="xMidYMid" width="60" height="54" viewBox="0 0 60 54">
  <defs>
    <style>

      .cls-3 {
        fill: #ff3a2f;
      }

      .cls-4 {
        fill: #fbb713;
      }

      .cls-11 {
        fill: #a72720;
      }

      .cls-12 {
        fill: #000000;
        opacity: 0.25;
      }

      .cls-13 {
        fill: #ffffff;
      }
    </style>
  </defs>
  <g id="group-144svg">
    <path d="M25.961,0.007 C13.601,0.007 3.582,10.026 3.582,22.387 C3.582,34.746 13.601,44.766 25.961,44.766 C27.486,44.766 28.976,44.613 30.414,44.322 C30.448,41.394 32.805,39.028 35.729,38.977 C35.728,38.925 35.721,38.874 35.721,38.822 C35.721,35.833 38.144,33.410 41.133,33.410 C41.228,33.410 41.320,33.420 41.414,33.425 C41.330,33.046 41.284,32.652 41.284,32.248 C41.284,29.259 43.707,26.836 46.695,26.836 C47.100,26.836 47.492,26.883 47.871,26.968 C48.179,25.489 48.341,23.957 48.341,22.387 C48.341,10.026 38.321,0.007 25.961,0.007 ZM25.961,28.915 C22.356,28.915 19.433,25.992 19.433,22.387 C19.433,18.781 22.356,15.858 25.961,15.858 C29.567,15.858 32.490,18.781 32.490,22.387 C32.490,25.992 29.567,28.915 25.961,28.915 Z" id="path-1" class="cls-3" fill-rule="evenodd"/>
    <path d="M14.616,27.306 C14.616,27.306 16.719,27.306 16.719,27.306 C17.124,27.306 17.453,27.717 17.453,28.223 C17.453,28.729 17.124,29.141 16.719,29.141 C16.719,29.141 16.621,29.141 16.621,29.141 C16.216,29.141 15.887,29.551 15.887,30.057 C15.887,30.564 16.216,30.975 16.621,30.975 C16.621,30.975 21.141,30.975 21.141,30.975 C21.547,30.975 21.875,31.385 21.875,31.891 C21.875,32.398 21.547,32.809 21.141,32.809 C21.141,32.809 15.709,32.809 15.709,32.809 C15.709,32.809 9.738,32.809 9.738,32.809 C9.333,32.809 9.004,32.398 9.004,31.891 C9.004,31.385 9.333,30.975 9.738,30.975 C9.738,30.975 10.993,30.975 10.993,30.975 C11.398,30.975 11.727,30.564 11.727,30.057 C11.727,29.551 11.398,29.141 10.993,29.141 C10.993,29.141 5.022,29.141 5.022,29.141 C4.617,29.141 4.288,28.729 4.288,28.223 C4.288,27.717 4.617,27.306 5.022,27.306 C5.022,27.306 6.434,27.306 6.434,27.306 C6.434,27.306 14.616,27.306 14.616,27.306 Z" id="path-2" class="cls-4" fill-rule="evenodd"/>
    <path d="M19.511,7.015 C19.511,7.015 21.614,7.015 21.614,7.015 C22.019,7.015 22.348,7.426 22.348,7.932 C22.348,8.438 22.019,8.849 21.614,8.849 C21.614,8.849 21.516,8.849 21.516,8.849 C21.110,8.849 20.782,9.260 20.782,9.766 C20.782,10.273 21.110,10.683 21.516,10.683 C21.516,10.683 26.036,10.683 26.036,10.683 C26.441,10.683 26.770,11.094 26.770,11.600 C26.770,12.107 26.441,12.518 26.036,12.518 C26.036,12.518 20.604,12.518 20.604,12.518 C20.604,12.518 14.633,12.518 14.633,12.518 C14.228,12.518 13.899,12.107 13.899,11.600 C13.899,11.094 14.228,10.683 14.633,10.683 C14.633,10.683 15.888,10.683 15.888,10.683 C16.293,10.683 16.622,10.273 16.622,9.766 C16.622,9.260 16.293,8.849 15.888,8.849 C15.888,8.849 9.917,8.849 9.917,8.849 C9.512,8.849 9.183,8.438 9.183,7.932 C9.183,7.426 9.512,7.015 9.917,7.015 C9.917,7.015 11.328,7.015 11.328,7.015 C11.328,7.015 19.511,7.015 19.511,7.015 Z" id="path-3" class="cls-4" fill-rule="evenodd"/>
    <path d="M40.817,17.161 C40.817,17.161 42.920,17.161 42.920,17.161 C43.326,17.161 43.654,17.572 43.654,18.078 C43.654,18.585 43.326,18.995 42.920,18.995 C42.920,18.995 42.822,18.995 42.822,18.995 C42.417,18.995 42.088,19.406 42.088,19.913 C42.088,20.419 42.417,20.829 42.822,20.829 C42.822,20.829 47.342,20.829 47.342,20.829 C47.748,20.829 48.077,21.240 48.077,21.747 C48.077,22.253 47.748,22.664 47.342,22.664 C47.342,22.664 41.910,22.664 41.910,22.664 C41.910,22.664 35.940,22.664 35.940,22.664 C35.534,22.664 35.206,22.253 35.206,21.747 C35.206,21.240 35.534,20.829 35.940,20.829 C35.940,20.829 37.194,20.829 37.194,20.829 C37.600,20.829 37.928,20.419 37.928,19.913 C37.928,19.406 37.600,18.995 37.194,18.995 C37.194,18.995 31.224,18.995 31.224,18.995 C30.818,18.995 30.490,18.585 30.490,18.078 C30.490,17.572 30.818,17.161 31.224,17.161 C31.224,17.161 32.635,17.161 32.635,17.161 C32.635,17.161 40.817,17.161 40.817,17.161 Z" id="path-4" class="cls-4" fill-rule="evenodd"/>
    <path d="M13.448,48.282 C13.448,48.282 16.183,48.282 16.183,48.282 C16.710,48.282 17.138,48.692 17.138,49.199 C17.138,49.705 16.710,50.116 16.183,50.116 C16.183,50.116 16.056,50.116 16.056,50.116 C15.529,50.116 15.101,50.526 15.101,51.033 C15.101,51.540 15.529,51.950 16.056,51.950 C16.056,51.950 21.935,51.950 21.935,51.950 C22.462,51.950 22.890,52.361 22.890,52.867 C22.890,53.374 22.462,53.784 21.935,53.784 C21.935,53.784 14.870,53.784 14.870,53.784 C14.870,53.784 7.104,53.784 7.104,53.784 C6.577,53.784 6.149,53.374 6.149,52.867 C6.149,52.361 6.577,51.950 7.104,51.950 C7.104,51.950 8.736,51.950 8.736,51.950 C9.263,51.950 9.690,51.540 9.690,51.033 C9.690,50.526 9.263,50.116 8.736,50.116 C8.736,50.116 0.970,50.116 0.970,50.116 C0.443,50.116 0.016,49.705 0.016,49.199 C0.016,48.692 0.443,48.282 0.970,48.282 C0.970,48.282 2.806,48.282 2.806,48.282 C2.806,48.282 13.448,48.282 13.448,48.282 Z" id="path-5" class="cls-4" fill-rule="evenodd"/>
    <path d="M51.605,47.975 C51.605,49.776 50.145,51.237 48.344,51.237 C46.542,51.237 45.082,49.776 45.082,47.975 C45.082,46.174 46.542,44.714 48.344,44.714 C50.145,44.714 51.605,46.174 51.605,47.975 Z" id="path-6" class="cls-3" fill-rule="evenodd"/>
    <path d="M32.198,52.338 C32.198,53.059 31.614,53.642 30.893,53.642 C30.173,53.642 29.589,53.059 29.589,52.338 C29.589,51.617 30.173,51.033 30.893,51.033 C31.614,51.033 32.198,51.617 32.198,52.338 Z" id="path-7" class="cls-4" fill-rule="evenodd"/>
    <path d="M60.016,40.123 C60.016,41.400 58.979,42.435 57.702,42.435 C56.424,42.435 55.389,41.400 55.389,40.123 C55.389,38.845 56.424,37.809 57.702,37.809 C58.979,37.809 60.016,38.845 60.016,40.123 Z" id="path-8" class="cls-3" fill-rule="evenodd"/>
    <path d="M25.764,11.902 C19.974,11.902 15.280,16.596 15.280,22.386 C15.280,28.176 19.974,32.870 25.764,32.870 C31.555,32.870 36.248,28.176 36.248,22.386 C36.248,16.596 31.555,11.902 25.764,11.902 ZM25.764,28.945 C22.142,28.945 19.205,26.008 19.205,22.386 C19.205,18.764 22.142,15.827 25.764,15.827 C29.387,15.827 32.323,18.764 32.323,22.386 C32.323,26.008 29.387,28.945 25.764,28.945 Z" id="path-9" class="cls-11" fill-rule="evenodd"/>
    <path d="M25.764,0.115 C21.201,0.115 16.959,1.490 13.427,3.844 C7.487,7.868 3.582,14.671 3.582,22.387 C3.582,30.101 7.487,36.904 13.427,40.928 C16.959,43.283 21.201,44.658 25.764,44.658 C27.366,44.658 28.926,44.485 30.432,44.164 C30.472,43.191 30.767,42.289 31.254,41.515 C29.508,42.015 27.671,42.300 25.764,42.300 C14.767,42.300 5.851,33.384 5.851,22.387 C5.851,11.389 14.767,2.473 25.764,2.473 C36.762,2.473 45.677,11.389 45.677,22.387 C45.677,24.015 45.460,25.590 45.091,27.105 C45.601,26.946 46.133,26.836 46.695,26.836 C46.996,26.836 47.287,26.870 47.574,26.918 C47.876,25.455 48.036,23.939 48.036,22.387 C48.036,10.086 38.064,0.115 25.764,0.115 Z" id="path-10" class="cls-12" fill-rule="evenodd"/>
    <path d="M8.866,23.386 C8.313,23.386 7.866,22.938 7.866,22.386 C7.866,18.603 9.031,14.987 11.236,11.930 C11.560,11.482 12.185,11.382 12.632,11.704 C13.080,12.027 13.182,12.652 12.858,13.100 C10.900,15.815 9.866,19.026 9.866,22.386 C9.866,22.938 9.418,23.386 8.866,23.386 Z" id="path-11" class="cls-13" fill-rule="evenodd"/>
  </g>
</svg>
