<svg xmlns="http://www.w3.org/2000/svg" xmlns:xlink="http://www.w3.org/1999/xlink" preserveAspectRatio="xMidYMid" width="60" height="47" viewBox="0 0 60 47">
  <defs>
    <style>

      .cls-3 {
        fill: #0cb04a;
      }

      .cls-5 {
        fill: #2476ff;
      }

      .cls-6 {
        fill: #ededed;
      }

      .cls-7 {
        fill: #ff3a2f;
      }

      .cls-8 {
        fill: #000000;
        opacity: 0.35;
      }

      .cls-9 {
        fill: #142a3b;
      }
    </style>
  </defs>
  <g id="group-238svg">
    <path d="M20.058,38.611 C20.058,38.611 14.656,38.611 14.656,38.611 C13.614,38.611 12.770,39.212 12.770,39.952 C12.770,40.692 13.614,41.293 14.656,41.293 C14.656,41.293 14.907,41.293 14.907,41.293 C15.949,41.293 16.793,41.893 16.793,42.633 C16.793,43.374 15.949,43.974 14.907,43.974 C14.907,43.974 3.293,43.974 3.293,43.974 C2.252,43.974 1.408,44.575 1.408,45.315 C1.408,46.055 2.252,46.655 3.293,46.655 C3.293,46.655 17.250,46.655 17.250,46.655 C17.250,46.655 45.776,46.655 45.776,46.655 C46.818,46.655 47.663,46.055 47.663,45.315 C47.663,44.575 46.818,43.974 45.776,43.974 C45.776,43.974 42.554,43.974 42.554,43.974 C41.512,43.974 40.668,43.374 40.668,42.633 C40.668,41.893 41.512,41.293 42.554,41.293 C42.554,41.293 55.213,41.293 55.213,41.293 C56.254,41.293 57.099,40.692 57.099,39.952 C57.099,39.212 56.254,38.611 55.213,38.611 C55.213,38.611 54.268,38.611 54.268,38.611 C54.268,38.611 20.058,38.611 20.058,38.611 Z" id="path-1" class="cls-3" fill-rule="evenodd"/>
    <path d="M53.563,47.015 C52.690,47.015 51.982,46.371 51.982,45.578 C51.982,44.784 52.690,44.141 53.563,44.141 C53.563,44.141 58.409,44.141 58.409,44.141 C59.282,44.141 59.990,44.784 59.990,45.578 C59.990,46.371 59.282,47.015 58.409,47.015 C58.409,47.015 53.563,47.015 53.563,47.015 Z" id="path-2" class="cls-3" fill-rule="evenodd"/>
    <path d="M11.727,17.723 C11.727,17.723 11.727,17.697 11.727,17.697 C11.727,17.697 28.722,17.697 28.722,17.697 C28.722,17.697 28.722,3.236 28.722,3.236 C28.722,3.236 49.469,3.236 49.469,3.236 C49.469,3.236 49.469,34.773 49.469,34.773 C49.469,34.773 44.647,34.773 44.647,34.773 C44.647,34.773 28.722,34.773 28.722,34.773 C28.722,34.773 21.211,34.773 21.211,34.773 C21.211,34.773 11.727,34.773 11.727,34.773 C11.727,34.773 3.234,34.773 3.234,34.773 C2.143,33.041 1.503,30.978 1.503,28.758 C1.503,22.822 6.039,17.992 11.727,17.723 Z" id="path-3" class="cls-5" fill-rule="evenodd"/>
    <path d="M4.037,29.080 C3.485,29.080 3.037,28.632 3.037,28.080 C3.037,23.235 6.690,19.258 11.379,18.960 C11.960,18.841 12.570,19.313 12.570,19.932 C12.570,19.932 12.570,20.885 12.570,20.885 C12.570,20.885 11.618,20.950 11.618,20.950 C7.928,21.123 5.037,24.256 5.037,28.080 C5.037,28.632 4.589,29.080 4.037,29.080 Z" id="path-4" class="cls-6" fill-rule="evenodd"/>
    <path d="M38.144,34.773 C38.219,28.961 42.947,24.271 48.777,24.271 C49.011,24.271 49.239,24.291 49.469,24.305 C49.469,24.305 49.469,34.773 49.469,34.773 C49.469,34.773 44.647,34.773 44.647,34.773 C44.647,34.773 38.144,34.773 38.144,34.773 Z" id="path-5" class="cls-7" fill-rule="evenodd"/>
    <path d="M7.948,30.049 C7.948,30.049 17.431,30.049 17.431,30.049 C17.431,30.049 24.942,30.049 24.942,30.049 C24.942,30.049 42.758,30.049 42.758,30.049 C42.758,30.049 42.758,30.049 42.758,30.049 C45.421,30.049 45.689,29.780 45.689,27.116 C45.689,27.116 45.689,8.653 45.689,8.653 C45.689,8.653 28.722,5.726 28.722,5.726 C28.722,5.726 49.469,5.726 49.469,5.726 C49.469,5.726 49.469,34.773 49.469,34.773 C49.469,34.773 44.647,34.773 44.647,34.773 C44.647,34.773 28.722,34.773 28.722,34.773 C28.722,34.773 21.211,34.773 21.211,34.773 C21.211,34.773 11.727,34.773 11.727,34.773 C11.727,34.773 3.234,34.773 3.234,34.773 C2.358,33.382 1.780,31.776 1.583,30.049 C1.583,30.049 7.948,30.049 7.948,30.049 Z" id="path-6" class="cls-8" fill-rule="evenodd"/>
    <path d="M51.959,33.390 C51.959,33.390 51.959,40.582 51.959,40.582 C51.959,40.582 46.149,40.582 46.149,40.582 C46.149,40.582 46.149,38.646 46.149,38.646 C46.149,38.646 43.383,38.646 43.383,38.646 C43.383,38.646 43.383,40.582 43.383,40.582 C43.383,40.582 38.403,40.582 38.403,40.582 C38.403,40.582 38.403,38.646 38.403,38.646 C38.403,38.646 35.638,38.646 35.638,38.646 C35.638,38.646 35.638,40.582 35.638,40.582 C35.638,40.582 30.658,40.582 30.658,40.582 C30.658,40.582 30.658,38.646 30.658,38.646 C30.658,38.646 27.892,38.646 27.892,38.646 C27.892,38.646 27.892,40.582 27.892,40.582 C27.892,40.582 22.912,40.582 22.912,40.582 C22.912,40.582 22.912,38.646 22.912,38.646 C22.912,38.646 20.145,38.646 20.145,38.646 C20.145,38.646 20.145,40.582 20.145,40.582 C20.145,40.582 15.166,40.582 15.166,40.582 C15.166,40.582 15.166,38.646 15.166,38.646 C15.166,38.646 12.400,38.646 12.400,38.646 C12.400,38.646 12.400,40.582 12.400,40.582 C12.400,40.582 7.421,40.582 7.421,40.582 C7.421,40.582 7.421,38.646 7.421,38.646 C7.421,38.646 4.654,38.646 4.654,38.646 C4.654,38.646 4.654,40.582 4.654,40.582 C4.654,40.582 -0.010,40.582 -0.010,40.582 C-0.010,40.582 -0.010,33.390 -0.010,33.390 C-0.010,33.390 51.959,33.390 51.959,33.390 Z" id="path-7" class="cls-9" fill-rule="evenodd"/>
    <path d="M48.039,40.582 C48.039,40.582 46.149,40.582 46.149,40.582 C46.149,40.582 46.149,38.646 46.149,38.646 C46.149,38.646 48.039,38.646 48.039,38.646 C48.039,38.646 48.039,40.582 48.039,40.582 Z" id="path-8" class="cls-8" fill-rule="evenodd"/>
    <path d="M32.548,40.582 C32.548,40.582 30.658,40.582 30.658,40.582 C30.658,40.582 30.658,38.646 30.658,38.646 C30.658,38.646 32.548,38.646 32.548,38.646 C32.548,38.646 32.548,40.582 32.548,40.582 Z" id="path-9" class="cls-8" fill-rule="evenodd"/>
    <path d="M24.802,40.582 C24.802,40.582 22.912,40.582 22.912,40.582 C22.912,40.582 22.912,38.646 22.912,38.646 C22.912,38.646 24.802,38.646 24.802,38.646 C24.802,38.646 24.802,40.582 24.802,40.582 Z" id="path-10" class="cls-8" fill-rule="evenodd"/>
    <path d="M40.293,40.582 C40.293,40.582 38.403,40.582 38.403,40.582 C38.403,40.582 38.403,38.646 38.403,38.646 C38.403,38.646 40.293,38.646 40.293,38.646 C40.293,38.646 40.293,40.582 40.293,40.582 Z" id="path-11" class="cls-8" fill-rule="evenodd"/>
    <path d="M17.056,40.582 C17.056,40.582 15.166,40.582 15.166,40.582 C15.166,40.582 15.166,38.646 15.166,38.646 C15.166,38.646 17.056,38.646 17.056,38.646 C17.056,38.646 17.056,40.582 17.056,40.582 Z" id="path-12" class="cls-8" fill-rule="evenodd"/>
    <path d="M9.310,40.582 C9.310,40.582 7.421,40.582 7.421,40.582 C7.421,40.582 7.421,38.646 7.421,38.646 C7.421,38.646 9.310,38.646 9.310,38.646 C9.310,38.646 9.310,40.582 9.310,40.582 Z" id="path-13" class="cls-8" fill-rule="evenodd"/>
    <path d="M25.975,5.726 C25.975,5.726 51.959,5.726 51.959,5.726 C51.959,5.726 51.959,-0.011 51.959,-0.011 C51.959,-0.011 25.975,-0.011 25.975,-0.011 C25.975,-0.011 25.975,5.726 25.975,5.726 Z" id="path-14" class="cls-9" fill-rule="evenodd"/>
    <path d="M45.607,5.726 C45.607,5.726 51.959,5.726 51.959,5.726 C51.959,5.726 51.959,-0.011 51.959,-0.011 C51.959,-0.011 45.607,-0.011 45.607,-0.011 C45.607,-0.011 45.607,5.726 45.607,5.726 Z" id="path-15" class="cls-8" fill-rule="evenodd"/>
  </g>
</svg>
