<svg xmlns="http://www.w3.org/2000/svg" xmlns:xlink="http://www.w3.org/1999/xlink" preserveAspectRatio="xMidYMid" width="61" height="30" viewBox="0 0 61 30">
  <defs>
    <style>

      .cls-3 {
        fill: #0cb04a;
      }

      .cls-5 {
        fill: #fbb713;
      }

      .cls-6 {
        fill: #000000;
        opacity: 0.25;
      }

      .cls-7 {
        fill: #142a3b;
      }

      .cls-8 {
        fill: #000000;
        opacity: 0.35;
      }

      .cls-12 {
        fill: #ffffff;
      }
    </style>
  </defs>
  <g id="group-274svg">
    <path d="M24.576,22.575 C24.576,22.575 19.621,22.575 19.621,22.575 C18.666,22.575 17.891,23.139 17.891,23.836 C17.891,24.532 18.666,25.097 19.621,25.097 C19.621,25.097 19.851,25.097 19.851,25.097 C20.807,25.097 21.581,25.661 21.581,26.358 C21.581,27.054 20.807,27.619 19.851,27.619 C19.851,27.619 9.200,27.619 9.200,27.619 C8.244,27.619 7.470,28.183 7.470,28.880 C7.470,29.576 8.244,30.141 9.200,30.141 C9.200,30.141 22.001,30.141 22.001,30.141 C22.001,30.141 48.165,30.141 48.165,30.141 C49.120,30.141 49.894,29.576 49.894,28.880 C49.894,28.183 49.120,27.619 48.165,27.619 C48.165,27.619 45.209,27.619 45.209,27.619 C44.253,27.619 43.478,27.054 43.478,26.358 C43.478,25.661 44.253,25.097 45.209,25.097 C45.209,25.097 56.819,25.097 56.819,25.097 C57.774,25.097 58.549,24.532 58.549,23.836 C58.549,23.139 57.774,22.575 56.819,22.575 C56.819,22.575 55.952,22.575 55.952,22.575 C55.952,22.575 24.576,22.575 24.576,22.575 Z" id="path-1" class="cls-3" fill-rule="evenodd"/>
    <path d="M55.034,30.254 C54.361,30.254 53.816,29.855 53.816,29.362 C53.816,28.870 54.361,28.471 55.034,28.471 C55.034,28.471 58.769,28.471 58.769,28.471 C59.441,28.471 59.987,28.870 59.987,29.362 C59.987,29.855 59.441,30.254 58.769,30.254 C58.769,30.254 55.034,30.254 55.034,30.254 Z" id="path-2" class="cls-3" fill-rule="evenodd"/>
    <path d="M48.951,12.234 C48.951,5.482 38.786,0.009 26.246,0.009 C13.706,0.009 3.540,5.482 3.540,12.234 C3.540,12.234 48.951,12.234 48.951,12.234 Z" id="path-3" class="cls-5" fill-rule="evenodd"/>
    <path d="M39.504,2.312 C40.167,2.876 40.747,3.470 41.235,4.090 C42.752,6.018 41.388,8.846 38.935,8.846 C38.935,8.846 4.431,8.846 4.431,8.846 C3.854,9.922 3.540,11.058 3.540,12.234 C3.540,12.234 48.952,12.234 48.952,12.234 C48.952,8.148 45.225,4.532 39.504,2.312 Z" id="path-4" class="cls-6" fill-rule="evenodd"/>
    <path d="M42.470,23.612 C42.470,23.612 10.022,23.612 10.022,23.612 C10.022,23.612 -0.013,11.753 -0.013,11.753 C-0.013,11.753 52.505,11.753 52.505,11.753 C52.505,11.753 42.470,23.612 42.470,23.612 Z" id="path-5" class="cls-7" fill-rule="evenodd"/>
    <path d="M44.881,11.753 C44.881,11.753 34.846,23.612 34.846,23.612 C34.846,23.612 42.470,23.612 42.470,23.612 C42.470,23.612 52.505,11.753 52.505,11.753 C52.505,11.753 44.881,11.753 44.881,11.753 Z" id="path-6" class="cls-8" fill-rule="evenodd"/>
    <path d="M25.306,9.534 C24.753,9.534 24.306,9.086 24.306,8.534 C24.306,8.534 24.306,4.637 24.306,4.637 C24.306,4.085 24.753,3.637 25.306,3.637 C25.858,3.637 26.306,4.085 26.306,4.637 C26.306,4.637 26.306,8.534 26.306,8.534 C26.306,9.086 25.858,9.534 25.306,9.534 Z" id="path-7" class="cls-7" fill-rule="evenodd"/>
    <path d="M36.701,8.963 C36.443,8.963 36.185,8.864 35.989,8.666 C35.989,8.666 33.268,5.911 33.268,5.911 C32.881,5.517 32.885,4.884 33.278,4.496 C33.671,4.109 34.303,4.112 34.692,4.505 C34.692,4.505 37.413,7.260 37.413,7.260 C37.801,7.654 37.797,8.287 37.403,8.675 C37.209,8.867 36.955,8.963 36.701,8.963 Z" id="path-8" class="cls-7" fill-rule="evenodd"/>
    <path d="M13.910,8.963 C13.656,8.963 13.402,8.867 13.208,8.675 C12.814,8.287 12.811,7.654 13.198,7.260 C13.198,7.260 15.919,4.505 15.919,4.505 C16.309,4.112 16.941,4.109 17.333,4.496 C17.727,4.884 17.730,5.517 17.343,5.911 C17.343,5.911 14.622,8.666 14.622,8.666 C14.426,8.864 14.168,8.963 13.910,8.963 Z" id="path-9" class="cls-7" fill-rule="evenodd"/>
    <path d="M11.113,6.668 C10.843,6.668 10.572,6.559 10.376,6.344 C10.003,5.937 10.029,5.306 10.435,4.932 C10.547,4.830 13.206,2.416 17.282,1.345 C17.816,1.204 18.363,1.524 18.503,2.059 C18.644,2.593 18.324,3.139 17.790,3.279 C14.213,4.219 11.811,6.385 11.788,6.406 C11.596,6.581 11.354,6.668 11.113,6.668 Z" id="path-10" class="cls-12" fill-rule="evenodd"/>
  </g>
</svg>
