<svg xmlns="http://www.w3.org/2000/svg" xmlns:xlink="http://www.w3.org/1999/xlink" preserveAspectRatio="xMidYMid" width="60" height="46" viewBox="0 0 60 46">
  <defs>
    <style>

      .cls-3 {
        fill: #ff3a2f;
      }

      .cls-5 {
        fill: #2476ff;
      }

      .cls-6 {
        fill: #000000;
        opacity: 0.35;
      }
    </style>
  </defs>
  <g id="group-300svg">
    <path d="M12.360,40.301 C12.360,40.301 8.783,40.301 8.783,40.301 C8.093,40.301 7.534,40.725 7.534,41.246 C7.534,41.768 8.093,42.192 8.783,42.192 C8.783,42.192 8.949,42.192 8.949,42.192 C9.639,42.192 10.198,42.615 10.198,43.136 C10.198,43.659 9.639,44.082 8.949,44.082 C8.949,44.082 1.260,44.082 1.260,44.082 C0.570,44.082 0.011,44.505 0.011,45.027 C0.011,45.549 0.570,45.973 1.260,45.973 C1.260,45.973 10.500,45.973 10.500,45.973 C10.500,45.973 29.389,45.973 29.389,45.973 C30.079,45.973 30.638,45.549 30.638,45.027 C30.638,44.505 30.079,44.082 29.389,44.082 C29.389,44.082 27.254,44.082 27.254,44.082 C26.565,44.082 26.006,43.659 26.006,43.136 C26.006,42.615 26.565,42.192 27.254,42.192 C27.254,42.192 35.636,42.192 35.636,42.192 C36.326,42.192 36.885,41.768 36.885,41.246 C36.885,40.725 36.326,40.301 35.636,40.301 C35.636,40.301 35.011,40.301 35.011,40.301 C35.011,40.301 12.360,40.301 12.360,40.301 Z" id="path-1" class="cls-3" fill-rule="evenodd"/>
    <path d="M34.544,46.225 C33.966,46.225 33.498,45.772 33.498,45.212 C33.498,44.653 33.966,44.200 34.544,44.200 C34.544,44.200 37.753,44.200 37.753,44.200 C38.331,44.200 38.800,44.653 38.800,45.212 C38.800,45.772 38.331,46.225 37.753,46.225 C37.753,46.225 34.544,46.225 34.544,46.225 Z" id="path-2" class="cls-3" fill-rule="evenodd"/>
    <path d="M48.793,41.124 C48.793,41.124 56.684,41.124 56.684,41.124 C58.191,41.124 60.011,39.874 60.011,38.320 C60.011,38.320 60.011,2.798 60.011,2.798 C60.011,1.244 58.191,-0.006 56.684,-0.006 C56.684,-0.006 21.162,-0.006 21.162,-0.006 C19.477,-0.006 18.880,1.504 18.880,2.798 C18.880,2.798 18.880,38.320 18.880,38.320 C18.880,39.614 19.477,41.124 21.162,41.124 C21.162,41.124 41.315,41.124 41.315,41.124 C41.315,41.124 41.315,26.168 41.315,26.168 C41.315,26.168 34.771,26.168 34.771,26.168 C34.255,26.168 33.837,25.750 33.837,25.233 C33.837,25.233 33.837,19.624 33.837,19.624 C33.837,19.108 34.255,18.689 34.771,18.689 C34.771,18.689 41.315,18.689 41.315,18.689 C41.315,18.689 41.315,12.146 41.315,12.146 C41.315,7.585 45.357,3.732 50.141,3.732 C50.141,3.732 55.337,3.732 55.337,3.732 C55.853,3.732 56.271,4.151 56.271,4.668 C56.271,4.668 56.271,10.276 56.271,10.276 C56.271,10.793 55.853,11.211 55.337,11.211 C55.337,11.211 52.010,11.211 52.010,11.211 C50.429,11.211 48.793,12.086 48.793,13.548 C48.793,13.548 48.793,18.689 48.793,18.689 C48.793,18.689 54.814,18.689 54.814,18.689 C55.116,18.689 55.397,18.834 55.572,19.078 C55.749,19.321 55.797,19.636 55.702,19.920 C55.702,19.920 53.832,25.529 53.832,25.529 C53.705,25.910 53.347,26.168 52.945,26.168 C52.945,26.168 48.793,26.168 48.793,26.168 C48.793,26.168 48.793,41.124 48.793,41.124 Z" id="path-3" class="cls-5" fill-rule="evenodd"/>
    <path d="M53.020,17.792 C53.020,17.792 48.793,17.792 48.793,17.792 C48.793,17.792 48.793,18.689 48.793,18.689 C48.793,18.689 53.948,18.689 53.948,18.689 C53.940,18.509 53.887,18.331 53.778,18.181 C53.602,17.936 53.321,17.792 53.020,17.792 Z" id="path-4" class="cls-6" fill-rule="evenodd"/>
    <path d="M39.520,40.227 C39.520,40.227 19.405,40.227 19.405,40.227 C19.766,40.755 20.330,41.124 21.162,41.124 C21.162,41.124 41.315,41.124 41.315,41.124 C41.315,41.124 41.315,26.168 41.315,26.168 C41.315,26.168 39.520,26.168 39.520,26.168 C39.520,26.168 39.520,40.227 39.520,40.227 Z" id="path-5" class="cls-6" fill-rule="evenodd"/>
    <path d="M54.469,3.732 C54.449,3.234 54.045,2.835 53.542,2.835 C53.542,2.835 48.346,2.835 48.346,2.835 C43.562,2.835 39.520,6.688 39.520,11.248 C39.520,11.248 39.520,17.792 39.520,17.792 C39.520,17.792 32.976,17.792 32.976,17.792 C32.460,17.792 32.042,18.210 32.042,18.727 C32.042,18.727 32.042,24.336 32.042,24.336 C32.042,24.852 32.460,25.270 32.976,25.270 C32.976,25.270 33.844,25.270 33.844,25.270 C33.844,25.257 33.836,25.246 33.836,25.233 C33.836,25.233 33.836,19.624 33.836,19.624 C33.836,19.108 34.255,18.689 34.771,18.689 C34.771,18.689 41.315,18.689 41.315,18.689 C41.315,18.689 41.315,12.146 41.315,12.146 C41.315,7.585 45.357,3.732 50.141,3.732 C50.141,3.732 54.469,3.732 54.469,3.732 Z" id="path-6" class="cls-6" fill-rule="evenodd"/>
    <path d="M57.262,0.051 C57.823,0.545 58.216,1.187 58.216,1.901 C58.216,1.901 58.216,37.423 58.216,37.423 C58.216,38.976 56.396,40.227 54.890,40.227 C54.890,40.227 48.793,40.227 48.793,40.227 C48.793,40.227 48.793,41.124 48.793,41.124 C48.793,41.124 56.684,41.124 56.684,41.124 C58.191,41.124 60.011,39.874 60.011,38.320 C60.011,38.320 60.011,2.798 60.011,2.798 C60.011,1.439 58.619,0.313 57.262,0.051 Z" id="path-7" class="cls-6" fill-rule="evenodd"/>
  </g>
</svg>
