<svg xmlns="http://www.w3.org/2000/svg" xmlns:xlink="http://www.w3.org/1999/xlink" preserveAspectRatio="xMidYMid" width="60" height="59" viewBox="0 0 60 59">
  <defs>
    <style>

      .cls-3 {
        fill: #ff3a2f;
      }

      .cls-5 {
        fill: #142a3b;
      }

      .cls-6 {
        fill: #fbb713;
      }

      .cls-7 {
        fill: #000000;
        opacity: 0.35;
      }

      .cls-8 {
        fill: #000000;
        opacity: 0.25;
      }

      .cls-9 {
        fill: #ffffff;
      }

      .cls-21 {
        fill: #ededed;
      }
    </style>
  </defs>
  <g id="group-252svg">
    <path d="M23.029,52.473 C23.029,52.473 18.772,52.473 18.772,52.473 C17.951,52.473 17.286,52.927 17.286,53.488 C17.286,54.049 17.951,54.505 18.772,54.505 C18.772,54.505 18.970,54.505 18.970,54.505 C19.791,54.505 20.456,54.959 20.456,55.520 C20.456,56.082 19.791,56.536 18.970,56.536 C18.970,56.536 9.818,56.536 9.818,56.536 C8.997,56.536 8.332,56.992 8.332,57.553 C8.332,58.114 8.997,58.568 9.818,58.568 C9.818,58.568 20.816,58.568 20.816,58.568 C20.816,58.568 43.297,58.568 43.297,58.568 C44.119,58.568 44.784,58.114 44.784,57.553 C44.784,56.992 44.119,56.536 43.297,56.536 C43.297,56.536 40.757,56.536 40.757,56.536 C39.937,56.536 39.271,56.082 39.271,55.520 C39.271,54.959 39.937,54.505 40.757,54.505 C40.757,54.505 50.734,54.505 50.734,54.505 C51.555,54.505 52.220,54.049 52.220,53.488 C52.220,52.927 51.555,52.473 50.734,52.473 C50.734,52.473 49.989,52.473 49.989,52.473 C49.989,52.473 23.029,52.473 23.029,52.473 Z" id="path-1" class="cls-3" fill-rule="evenodd"/>
    <path d="M49.434,58.840 C48.746,58.840 48.188,58.353 48.188,57.752 C48.188,57.150 48.746,56.663 49.434,56.663 C49.434,56.663 53.252,56.663 53.252,56.663 C53.941,56.663 54.499,57.150 54.499,57.752 C54.499,58.353 53.941,58.840 53.252,58.840 C53.252,58.840 49.434,58.840 49.434,58.840 Z" id="path-2" class="cls-3" fill-rule="evenodd"/>
    <path d="M23.207,16.223 C23.207,16.223 12.073,16.223 12.073,16.223 C12.073,16.223 12.073,4.111 12.073,4.111 C12.073,1.833 13.919,-0.014 16.198,-0.014 C16.198,-0.014 19.082,-0.014 19.082,-0.014 C21.360,-0.014 23.207,1.833 23.207,4.111 C23.207,4.111 23.207,16.223 23.207,16.223 Z" id="path-3" class="cls-5" fill-rule="evenodd"/>
    <path d="M31.143,54.729 C31.143,54.729 4.136,54.729 4.136,54.729 C1.858,54.729 0.011,52.882 0.011,50.604 C0.011,50.604 0.011,18.957 0.011,18.957 C0.011,16.679 1.858,14.832 4.136,14.832 C4.136,14.832 31.143,14.832 31.143,14.832 C33.422,14.832 35.269,16.679 35.269,18.957 C35.269,18.957 35.269,50.604 35.269,50.604 C35.269,52.882 33.422,54.729 31.143,54.729 Z" id="path-4" class="cls-6" fill-rule="evenodd"/>
    <path d="M20.987,0.351 C21.215,0.841 21.351,1.381 21.351,1.958 C21.351,1.958 21.351,13.093 21.351,13.093 C21.351,13.093 12.073,14.021 12.073,14.021 C12.073,14.021 12.073,14.949 12.073,14.949 C12.073,14.949 23.207,14.949 23.207,14.949 C23.207,14.949 23.207,3.814 23.207,3.814 C23.207,2.276 22.294,0.959 20.987,0.351 Z" id="path-5" class="cls-7" fill-rule="evenodd"/>
    <path d="M33.048,15.196 C33.276,15.686 33.413,16.227 33.413,16.804 C33.413,16.804 33.413,49.046 33.413,49.046 C33.413,51.159 31.699,52.873 29.585,52.873 C29.585,52.873 1.982,52.873 1.982,52.873 C1.406,52.873 0.866,52.736 0.375,52.508 C0.984,53.816 2.301,54.729 3.838,54.729 C3.838,54.729 31.441,54.729 31.441,54.729 C33.555,54.729 35.269,53.015 35.269,50.901 C35.269,50.901 35.269,18.659 35.269,18.659 C35.269,17.121 34.356,15.805 33.048,15.196 Z" id="path-6" class="cls-8" fill-rule="evenodd"/>
    <path d="M19.959,6.017 C19.959,7.299 18.921,8.337 17.640,8.337 C16.359,8.337 15.320,7.299 15.320,6.017 C15.320,4.736 16.359,3.698 17.640,3.698 C18.921,3.698 19.959,4.736 19.959,6.017 Z" id="path-7" class="cls-9" fill-rule="evenodd"/>
    <path d="M19.669,4.916 C19.848,5.245 19.959,5.616 19.959,6.017 C19.959,7.299 18.921,8.337 17.640,8.337 C17.239,8.337 16.867,8.226 16.538,8.047 C16.931,8.769 17.687,9.265 18.567,9.265 C19.849,9.265 20.887,8.226 20.887,6.945 C20.887,6.065 20.391,5.309 19.669,4.916 Z" id="path-8" class="cls-7" fill-rule="evenodd"/>
    <path d="M47.485,49.161 C47.485,49.161 41.454,49.161 41.454,49.161 C41.454,49.161 41.454,29.677 41.454,29.677 C41.454,29.677 47.485,29.677 47.485,29.677 C47.485,29.677 47.485,49.161 47.485,49.161 Z" id="path-9" class="cls-5" fill-rule="evenodd"/>
    <path d="M47.485,32.084 C47.485,32.084 41.454,34.635 41.454,34.635 C41.454,34.635 41.454,29.677 41.454,29.677 C41.454,29.677 47.485,29.677 47.485,29.677 C47.485,29.677 47.485,32.084 47.485,32.084 Z" id="path-10" class="cls-7" fill-rule="evenodd"/>
    <path d="M60.011,29.677 C60.011,29.677 41.454,29.677 41.454,29.677 C41.454,29.677 41.454,10.986 41.454,10.986 C41.454,4.912 46.379,-0.014 52.454,-0.014 C52.454,-0.014 60.011,-0.014 60.011,-0.014 C60.011,-0.014 60.011,29.677 60.011,29.677 Z" id="path-11" class="cls-6" fill-rule="evenodd"/>
    <path d="M53.516,-0.014 C53.516,-0.014 51.660,-0.014 51.660,-0.014 C46.023,-0.014 41.454,4.556 41.454,10.193 C41.454,10.193 41.454,29.677 41.454,29.677 C41.454,29.677 43.310,29.677 43.310,29.677 C43.310,29.677 43.310,10.193 43.310,10.193 C43.310,4.556 47.879,-0.014 53.516,-0.014 Z" id="path-12" class="cls-8" fill-rule="evenodd"/>
    <path d="M49.805,8.105 C49.805,9.386 48.766,10.425 47.485,10.425 C46.204,10.425 45.165,9.386 45.165,8.105 C45.165,6.824 46.204,5.786 47.485,5.786 C48.766,5.786 49.805,6.824 49.805,8.105 Z" id="path-13" class="cls-9" fill-rule="evenodd"/>
    <path d="M46.093,9.033 C46.093,7.752 47.132,6.713 48.413,6.713 C48.814,6.713 49.186,6.824 49.515,7.003 C49.122,6.281 48.365,5.786 47.485,5.786 C46.204,5.786 45.165,6.824 45.165,8.105 C45.165,8.985 45.662,9.741 46.384,10.135 C46.205,9.805 46.093,9.434 46.093,9.033 Z" id="path-14" class="cls-7" fill-rule="evenodd"/>
    <path d="M17.883,26.451 C17.883,26.451 17.883,24.986 17.883,24.986 C17.883,24.704 17.451,24.475 16.917,24.475 C16.383,24.475 15.951,24.704 15.951,24.986 C15.951,24.986 15.951,25.054 15.951,25.054 C15.951,25.337 15.518,25.566 14.984,25.566 C14.451,25.566 14.018,25.337 14.018,25.054 C14.018,25.054 14.018,21.908 14.018,21.908 C14.018,21.626 13.586,21.397 13.052,21.397 C12.519,21.397 12.086,21.626 12.086,21.908 C12.086,21.908 12.086,25.690 12.086,25.690 C12.086,25.690 12.086,33.420 12.086,33.420 C12.086,33.702 12.519,33.931 13.052,33.931 C13.586,33.931 14.018,33.702 14.018,33.420 C14.018,33.420 14.018,32.546 14.018,32.546 C14.018,32.264 14.451,32.035 14.984,32.035 C15.518,32.035 15.951,32.264 15.951,32.546 C15.951,32.546 15.951,36.703 15.951,36.703 C15.951,36.985 16.383,37.214 16.917,37.214 C17.451,37.214 17.883,36.985 17.883,36.703 C17.883,36.703 17.883,35.721 17.883,35.721 C17.883,35.721 17.883,26.451 17.883,26.451 Z" id="path-15" class="cls-3" fill-rule="evenodd"/>
    <path d="M8.265,27.071 C8.265,27.071 8.265,26.352 8.265,26.352 C8.265,26.214 8.052,26.101 7.790,26.101 C7.528,26.101 7.316,26.214 7.316,26.352 C7.316,26.352 7.316,26.386 7.316,26.386 C7.316,26.524 7.103,26.636 6.841,26.636 C6.579,26.636 6.367,26.524 6.367,26.386 C6.367,26.386 6.367,24.840 6.367,24.840 C6.367,24.702 6.154,24.590 5.893,24.590 C5.630,24.590 5.418,24.702 5.418,24.840 C5.418,24.840 5.418,26.697 5.418,26.697 C5.418,26.697 5.418,30.493 5.418,30.493 C5.418,30.631 5.630,30.744 5.893,30.744 C6.154,30.744 6.367,30.631 6.367,30.493 C6.367,30.493 6.367,30.064 6.367,30.064 C6.367,29.926 6.579,29.813 6.841,29.813 C7.103,29.813 7.316,29.926 7.316,30.064 C7.316,30.064 7.316,32.105 7.316,32.105 C7.316,32.243 7.528,32.356 7.790,32.356 C8.052,32.356 8.265,32.243 8.265,32.105 C8.265,32.105 8.265,31.623 8.265,31.623 C8.265,31.623 8.265,27.071 8.265,27.071 Z" id="path-16" class="cls-3" fill-rule="evenodd"/>
    <path d="M12.148,39.021 C12.148,38.287 12.625,37.693 13.213,37.693 C13.801,37.693 14.278,38.287 14.278,39.021 C14.278,39.021 14.278,43.089 14.278,43.089 C14.278,43.823 13.801,44.417 13.213,44.417 C12.625,44.417 12.148,43.823 12.148,43.089 C12.148,43.089 12.148,39.021 12.148,39.021 Z" id="path-17" class="cls-3" fill-rule="evenodd"/>
    <path d="M22.729,27.189 C22.729,26.426 23.225,25.808 23.836,25.808 C24.448,25.808 24.944,26.426 24.944,27.189 C24.944,27.189 24.944,31.421 24.944,31.421 C24.944,32.185 24.448,32.804 23.836,32.804 C23.225,32.804 22.729,32.185 22.729,31.421 C22.729,31.421 22.729,27.189 22.729,27.189 Z" id="path-18" class="cls-3" fill-rule="evenodd"/>
    <path d="M57.477,22.339 C56.925,22.339 56.478,21.892 56.478,21.340 C56.478,21.340 56.478,6.481 56.478,6.481 C56.478,5.929 56.925,5.481 57.477,5.481 C58.030,5.481 58.477,5.929 58.477,6.481 C58.477,6.481 58.477,21.340 58.477,21.340 C58.477,21.892 58.030,22.339 57.477,22.339 Z" id="path-19" class="cls-21" fill-rule="evenodd"/>
  </g>
</svg>
