<svg xmlns="http://www.w3.org/2000/svg" xmlns:xlink="http://www.w3.org/1999/xlink" preserveAspectRatio="xMidYMid" width="60" height="31" viewBox="0 0 60 31">
  <defs>
    <style>

      .cls-3 {
        fill: #0cb04a;
      }

      .cls-5 {
        fill: #fbb713;
      }

      .cls-6 {
        fill: #000000;
        opacity: 0.2;
      }

      .cls-7 {
        fill: #142a3b;
      }
    </style>
  </defs>
  <g id="group-272svg">
    <path d="M32.088,21.818 C32.088,21.818 28.185,21.818 28.185,21.818 C27.432,21.818 26.821,22.441 26.821,23.211 C26.821,23.980 27.432,24.603 28.185,24.603 C28.185,24.603 28.366,24.603 28.366,24.603 C29.119,24.603 29.728,25.227 29.728,25.996 C29.728,26.765 29.119,27.389 28.366,27.389 C28.366,27.389 19.974,27.389 19.974,27.389 C19.221,27.389 18.610,28.013 18.610,28.782 C18.610,29.551 19.221,30.174 19.974,30.174 C19.974,30.174 30.059,30.174 30.059,30.174 C30.059,30.174 50.674,30.174 50.674,30.174 C51.427,30.174 52.037,29.551 52.037,28.782 C52.037,28.013 51.427,27.389 50.674,27.389 C50.674,27.389 48.345,27.389 48.345,27.389 C47.592,27.389 46.982,26.765 46.982,25.996 C46.982,25.227 47.592,24.603 48.345,24.603 C48.345,24.603 57.493,24.603 57.493,24.603 C58.246,24.603 58.855,23.980 58.855,23.211 C58.855,22.441 58.246,21.818 57.493,21.818 C57.493,21.818 56.810,21.818 56.810,21.818 C56.810,21.818 32.088,21.818 32.088,21.818 Z" id="path-1" class="cls-3" fill-rule="evenodd"/>
    <path d="M56.087,30.300 C55.557,30.300 55.127,29.858 55.127,29.314 C55.127,28.770 55.557,28.329 56.087,28.329 C56.087,28.329 59.029,28.329 59.029,28.329 C59.560,28.329 59.989,28.770 59.989,29.314 C59.989,29.858 59.560,30.300 59.029,30.300 C59.029,30.300 56.087,30.300 56.087,30.300 Z" id="path-2" class="cls-3" fill-rule="evenodd"/>
    <path d="M8.346,15.457 C8.346,15.457 8.346,-0.002 8.346,-0.002 C8.346,-0.002 -0.011,-0.002 -0.011,-0.002 C-0.011,-0.002 -0.011,22.977 -0.011,22.977 C-0.011,22.977 54.304,22.977 54.304,22.977 C54.304,22.977 54.304,15.457 54.304,15.457 C54.304,15.457 8.346,15.457 8.346,15.457 Z" id="path-3" class="cls-5" fill-rule="evenodd"/>
    <path d="M1.660,21.306 C1.660,21.306 1.660,-0.002 1.660,-0.002 C1.660,-0.002 -0.011,-0.002 -0.011,-0.002 C-0.011,-0.002 -0.011,22.977 -0.011,22.977 C-0.011,22.977 54.304,22.977 54.304,22.977 C54.304,22.977 54.304,21.306 54.304,21.306 C54.304,21.306 1.660,21.306 1.660,21.306 Z" id="path-4" class="cls-6" fill-rule="evenodd"/>
    <path d="M13.080,22.977 C13.080,22.977 11.618,22.977 11.618,22.977 C11.618,22.977 11.618,19.356 11.618,19.356 C11.618,19.356 13.080,19.356 13.080,19.356 C13.080,19.356 13.080,22.977 13.080,22.977 Z" id="path-5" class="cls-7" fill-rule="evenodd"/>
    <path d="M21.436,22.977 C21.436,22.977 19.974,22.977 19.974,22.977 C19.974,22.977 19.974,19.356 19.974,19.356 C19.974,19.356 21.436,19.356 21.436,19.356 C21.436,19.356 21.436,22.977 21.436,22.977 Z" id="path-6" class="cls-7" fill-rule="evenodd"/>
    <path d="M29.792,22.977 C29.792,22.977 28.330,22.977 28.330,22.977 C28.330,22.977 28.330,19.356 28.330,19.356 C28.330,19.356 29.792,19.356 29.792,19.356 C29.792,19.356 29.792,22.977 29.792,22.977 Z" id="path-7" class="cls-7" fill-rule="evenodd"/>
    <path d="M-0.011,3.027 C-0.011,3.027 -0.011,1.565 -0.011,1.565 C-0.011,1.565 3.610,1.565 3.610,1.565 C3.610,1.565 3.610,3.027 3.610,3.027 C3.610,3.027 -0.011,3.027 -0.011,3.027 Z" id="path-8" class="cls-7" fill-rule="evenodd"/>
    <path d="M-0.011,11.383 C-0.011,11.383 -0.011,9.921 -0.011,9.921 C-0.011,9.921 3.610,9.921 3.610,9.921 C3.610,9.921 3.610,11.383 3.610,11.383 C3.610,11.383 -0.011,11.383 -0.011,11.383 Z" id="path-9" class="cls-7" fill-rule="evenodd"/>
    <path d="M-0.011,19.739 C-0.011,19.739 -0.011,18.277 -0.011,18.277 C-0.011,18.277 3.610,18.277 3.610,18.277 C3.610,18.277 3.610,19.739 3.610,19.739 C3.610,19.739 -0.011,19.739 -0.011,19.739 Z" id="path-10" class="cls-7" fill-rule="evenodd"/>
    <path d="M38.148,22.977 C38.148,22.977 36.686,22.977 36.686,22.977 C36.686,22.977 36.686,19.356 36.686,19.356 C36.686,19.356 38.148,19.356 38.148,19.356 C38.148,19.356 38.148,22.977 38.148,22.977 Z" id="path-11" class="cls-7" fill-rule="evenodd"/>
    <path d="M46.505,22.977 C46.505,22.977 45.042,22.977 45.042,22.977 C45.042,22.977 45.042,19.356 45.042,19.356 C45.042,19.356 46.505,19.356 46.505,19.356 C46.505,19.356 46.505,22.977 46.505,22.977 Z" id="path-12" class="cls-7" fill-rule="evenodd"/>
  </g>
</svg>
