<svg xmlns="http://www.w3.org/2000/svg" xmlns:xlink="http://www.w3.org/1999/xlink" preserveAspectRatio="xMidYMid" width="60" height="53" viewBox="0 0 60 53">
  <defs>
    <style>

      .cls-3 {
        fill: #2476ff;
      }

      .cls-8 {
        fill: #fbb713;
      }

      .cls-10 {
        fill: #010101;
        opacity: 0.25;
      }

      .cls-12 {
        fill: #b17d0a;
      }
    </style>
  </defs>
  <g id="group-105svg">
    <path d="M49.483,46.399 C49.483,46.399 52.534,46.399 52.534,46.399 C53.122,46.399 53.599,46.892 53.599,47.500 C53.599,48.108 53.122,48.601 52.534,48.601 C52.534,48.601 52.392,48.601 52.392,48.601 C51.803,48.601 51.327,49.093 51.327,49.702 C51.327,50.310 51.803,50.802 52.392,50.802 C52.392,50.802 58.950,50.802 58.950,50.802 C59.539,50.802 60.016,51.296 60.016,51.904 C60.016,52.512 59.539,53.005 58.950,53.005 C58.950,53.005 51.068,53.005 51.068,53.005 C51.068,53.005 34.958,53.005 34.958,53.005 C34.370,53.005 33.893,52.512 33.893,51.904 C33.893,51.296 34.370,50.802 34.958,50.802 C34.958,50.802 36.778,50.802 36.778,50.802 C37.367,50.802 37.844,50.310 37.844,49.702 C37.844,49.093 37.367,48.601 36.778,48.601 C36.778,48.601 28.116,48.601 28.116,48.601 C27.527,48.601 27.050,48.108 27.050,47.500 C27.050,46.892 27.527,46.399 28.116,46.399 C28.116,46.399 30.163,46.399 30.163,46.399 C30.163,46.399 49.483,46.399 49.483,46.399 Z" id="path-1" class="cls-3" fill-rule="evenodd"/>
    <path d="M23.225,51.159 C23.952,51.159 24.542,50.906 24.542,50.593 C24.542,50.281 23.952,50.027 23.225,50.027 C23.225,50.027 19.186,50.027 19.186,50.027 C18.458,50.027 17.868,50.281 17.868,50.593 C17.868,50.906 18.458,51.159 19.186,51.159 C19.186,51.159 23.225,51.159 23.225,51.159 Z" id="path-2" class="cls-3" fill-rule="evenodd"/>
    <path d="M8.838,29.469 C8.838,29.469 10.038,29.469 10.038,29.469 C10.269,29.469 10.457,29.714 10.457,30.016 C10.457,30.319 10.269,30.564 10.038,30.564 C10.038,30.564 9.982,30.564 9.982,30.564 C9.751,30.564 9.563,30.809 9.563,31.110 C9.563,31.413 9.751,31.658 9.982,31.658 C9.982,31.658 12.562,31.658 12.562,31.658 C12.793,31.658 12.981,31.904 12.981,32.206 C12.981,32.509 12.793,32.754 12.562,32.754 C12.562,32.754 9.462,32.754 9.462,32.754 C9.462,32.754 3.125,32.754 3.125,32.754 C2.894,32.754 2.706,32.509 2.706,32.206 C2.706,31.904 2.894,31.658 3.125,31.658 C3.125,31.658 3.842,31.658 3.842,31.658 C4.073,31.658 4.261,31.413 4.261,31.110 C4.261,30.809 4.073,30.564 3.842,30.564 C3.842,30.564 0.434,30.564 0.434,30.564 C0.203,30.564 0.016,30.319 0.016,30.016 C0.016,29.714 0.203,29.469 0.434,29.469 C0.434,29.469 1.240,29.469 1.240,29.469 C1.240,29.469 8.838,29.469 8.838,29.469 Z" id="path-3" class="cls-3" fill-rule="evenodd"/>
    <path d="M54.541,33.753 C54.541,33.753 55.742,33.753 55.742,33.753 C55.973,33.753 56.161,33.999 56.161,34.301 C56.161,34.603 55.973,34.849 55.742,34.849 C55.742,34.849 55.685,34.849 55.685,34.849 C55.454,34.849 55.267,35.094 55.267,35.396 C55.267,35.699 55.454,35.944 55.685,35.944 C55.685,35.944 58.265,35.944 58.265,35.944 C58.497,35.944 58.684,36.189 58.684,36.491 C58.684,36.793 58.497,37.038 58.265,37.038 C58.265,37.038 55.166,37.038 55.166,37.038 C55.166,37.038 48.829,37.038 48.829,37.038 C48.598,37.038 48.410,36.793 48.410,36.491 C48.410,36.189 48.598,35.944 48.829,35.944 C48.829,35.944 49.545,35.944 49.545,35.944 C49.776,35.944 49.964,35.699 49.964,35.396 C49.964,35.094 49.776,34.849 49.545,34.849 C49.545,34.849 46.138,34.849 46.138,34.849 C45.906,34.849 45.719,34.603 45.719,34.301 C45.719,33.999 45.906,33.753 46.138,33.753 C46.138,33.753 46.943,33.753 46.943,33.753 C46.943,33.753 54.541,33.753 54.541,33.753 Z" id="path-4" class="cls-3" fill-rule="evenodd"/>
    <path d="M9.085,42.070 C9.085,42.070 9.779,42.070 9.779,42.070 C9.912,42.070 10.020,42.212 10.020,42.386 C10.020,42.561 9.912,42.702 9.779,42.702 C9.779,42.702 9.746,42.702 9.746,42.702 C9.613,42.702 9.504,42.844 9.504,43.018 C9.504,43.193 9.613,43.335 9.746,43.335 C9.746,43.335 11.236,43.335 11.236,43.335 C11.370,43.335 11.478,43.476 11.478,43.651 C11.478,43.825 11.370,43.966 11.236,43.966 C11.236,43.966 9.446,43.966 9.446,43.966 C9.446,43.966 5.787,43.966 5.787,43.966 C5.653,43.966 5.544,43.825 5.544,43.651 C5.544,43.476 5.653,43.335 5.787,43.335 C5.787,43.335 6.200,43.335 6.200,43.335 C6.333,43.335 6.442,43.193 6.442,43.018 C6.442,42.844 6.333,42.702 6.200,42.702 C6.200,42.702 4.232,42.702 4.232,42.702 C4.099,42.702 3.990,42.561 3.990,42.386 C3.990,42.212 4.099,42.070 4.232,42.070 C4.232,42.070 4.697,42.070 4.697,42.070 C4.697,42.070 9.085,42.070 9.085,42.070 Z" id="path-5" class="cls-3" fill-rule="evenodd"/>
    <path d="M42.726,22.385 C42.726,22.385 55.250,23.498 55.250,23.498 C55.250,23.498 55.250,9.012 55.250,9.012 C55.250,5.424 52.342,2.516 48.755,2.516 C48.755,2.516 41.518,2.516 41.518,2.516 C41.518,2.516 42.726,22.385 42.726,22.385 Z" id="path-6" class="cls-8" fill-rule="evenodd"/>
    <path d="M19.647,22.385 C19.647,22.385 6.652,23.498 6.652,23.498 C6.652,23.498 6.652,9.012 6.652,9.012 C6.652,5.424 9.561,2.516 13.147,2.516 C13.147,2.516 20.251,2.516 20.251,2.516 C20.251,2.516 19.647,22.385 19.647,22.385 Z" id="path-7" class="cls-8" fill-rule="evenodd"/>
    <path d="M47.158,2.516 C47.158,2.516 41.518,2.516 41.518,2.516 C41.518,2.516 42.726,22.385 42.726,22.385 C42.726,22.385 44.931,22.779 44.931,22.779 C44.931,22.779 47.158,2.516 47.158,2.516 Z" id="path-8" class="cls-10" fill-rule="evenodd"/>
    <path d="M18.136,22.705 C18.136,22.705 19.647,22.385 19.647,22.385 C19.647,22.385 20.251,2.516 20.251,2.516 C20.251,2.516 14.796,2.516 14.796,2.516 C14.796,2.516 18.136,22.705 18.136,22.705 Z" id="path-9" class="cls-10" fill-rule="evenodd"/>
    <path d="M42.629,42.929 C42.629,42.929 55.250,23.498 55.250,23.498 C55.250,23.498 41.291,20.034 41.291,20.034 C41.291,20.034 42.629,42.929 42.629,42.929 Z" id="path-10" class="cls-12" fill-rule="evenodd"/>
    <path d="M19.619,43.591 C19.619,43.591 6.652,23.498 6.652,23.498 C6.652,23.498 22.316,20.034 22.316,20.034 C22.316,20.034 19.619,43.591 19.619,43.591 Z" id="path-11" class="cls-12" fill-rule="evenodd"/>
    <path d="M38.040,46.309 C38.040,46.309 23.863,46.309 23.863,46.309 C21.068,46.309 18.802,44.043 18.802,41.247 C18.802,41.247 18.802,5.054 18.802,5.054 C18.802,2.259 21.068,-0.007 23.863,-0.007 C23.863,-0.007 38.040,-0.007 38.040,-0.007 C40.834,-0.007 43.101,2.259 43.101,5.054 C43.101,5.054 43.101,41.247 43.101,41.247 C43.101,44.043 40.834,46.309 38.040,46.309 Z" id="path-12" class="cls-8" fill-rule="evenodd"/>
    <path d="M36.827,14.310 C36.827,17.471 34.264,20.034 31.102,20.034 C27.941,20.034 25.378,17.471 25.378,14.310 C25.378,11.148 27.941,8.585 31.102,8.585 C34.264,8.585 36.827,11.148 36.827,14.310 Z" id="path-13" class="cls-3" fill-rule="evenodd"/>
  </g>
</svg>
