<svg xmlns="http://www.w3.org/2000/svg" xmlns:xlink="http://www.w3.org/1999/xlink" preserveAspectRatio="xMidYMid" width="60" height="51" viewBox="0 0 60 51">
  <defs>
    <style>

      .cls-3 {
        fill: #ededed;
      }

      .cls-4 {
        fill: #020403;
        opacity: 0.25;
      }

      .cls-6 {
        fill: #fbb713;
      }

      .cls-7 {
        fill: #ffffff;
      }
    </style>
  </defs>
  <g id="group-83svg">
    <path d="M20.672,10.777 C20.672,10.777 36.039,-13.466 52.707,10.777 C52.707,10.777 65.693,17.828 57.036,28.805 C57.036,28.805 55.953,60.561 21.970,43.678 C21.970,43.678 -9.199,27.877 20.672,10.777 Z" id="path-1" class="cls-3" fill-rule="evenodd"/>
    <path d="M52.707,10.777 C47.526,3.243 42.473,0.393 37.967,0.042 C41.327,1.474 44.894,4.453 48.523,9.731 C48.523,9.731 61.511,16.782 52.852,27.759 C52.852,27.759 52.055,51.118 30.386,47.114 C56.136,55.084 57.036,28.805 57.036,28.805 C65.693,17.828 52.707,10.777 52.707,10.777 Z" id="path-2" class="cls-4" fill-rule="evenodd"/>
    <path d="M46.293,24.909 C46.293,30.811 41.509,35.595 35.606,35.595 C29.705,35.595 24.920,30.811 24.920,24.909 C24.920,19.007 29.705,14.222 35.606,14.222 C41.509,14.222 46.293,19.007 46.293,24.909 Z" id="path-3" class="cls-4" fill-rule="evenodd"/>
    <path d="M44.023,24.909 C44.023,29.558 40.255,33.326 35.606,33.326 C30.958,33.326 27.190,29.558 27.190,24.909 C27.190,20.260 30.958,16.492 35.606,16.492 C40.255,16.492 44.023,20.260 44.023,24.909 Z" id="path-4" class="cls-6" fill-rule="evenodd"/>
    <path d="M30.665,25.571 C30.112,25.571 29.665,25.124 29.665,24.571 C29.665,20.904 32.648,17.921 36.314,17.921 C36.867,17.921 37.314,18.369 37.314,18.921 C37.314,19.473 36.867,19.921 36.314,19.921 C33.751,19.921 31.665,22.007 31.665,24.571 C31.665,25.124 31.218,25.571 30.665,25.571 Z" id="path-5" class="cls-7" fill-rule="evenodd"/>
    <path d="M11.147,43.572 C11.147,43.572 7.922,43.572 7.922,43.572 C7.300,43.572 6.796,44.158 6.796,44.881 C6.796,45.604 7.300,46.190 7.922,46.190 C7.922,46.190 8.072,46.190 8.072,46.190 C8.694,46.190 9.198,46.777 9.198,47.500 C9.198,48.223 8.694,48.809 8.072,48.809 C8.072,48.809 1.138,48.809 1.138,48.809 C0.516,48.809 0.012,49.396 0.012,50.119 C0.012,50.842 0.516,51.428 1.138,51.428 C1.138,51.428 9.471,51.428 9.471,51.428 C9.471,51.428 26.503,51.428 26.503,51.428 C27.125,51.428 27.629,50.842 27.629,50.119 C27.629,49.396 27.125,48.809 26.503,48.809 C26.503,48.809 24.579,48.809 24.579,48.809 C23.957,48.809 23.453,48.223 23.453,47.500 C23.453,46.777 23.957,46.190 24.579,46.190 C24.579,46.190 33.737,46.190 33.737,46.190 C34.359,46.190 34.863,45.604 34.863,44.881 C34.863,44.158 34.359,43.572 33.737,43.572 C33.737,43.572 31.573,43.572 31.573,43.572 C31.573,43.572 11.147,43.572 11.147,43.572 Z" id="path-6" class="cls-6" fill-rule="evenodd"/>
    <path d="M38.771,51.296 C37.749,51.296 36.921,50.887 36.921,50.383 C36.921,49.878 37.749,49.469 38.771,49.469 C38.771,49.469 44.442,49.469 44.442,49.469 C45.465,49.469 46.293,49.878 46.293,50.383 C46.293,50.887 45.465,51.296 44.442,51.296 C44.442,51.296 38.771,51.296 38.771,51.296 Z" id="path-7" class="cls-6" fill-rule="evenodd"/>
    <path d="M14.935,2.357 C14.935,2.357 13.612,2.357 13.612,2.357 C13.357,2.357 13.150,2.598 13.150,2.894 C13.150,3.191 13.357,3.432 13.612,3.432 C13.612,3.432 13.674,3.432 13.674,3.432 C13.929,3.432 14.136,3.672 14.136,3.969 C14.136,4.265 13.929,4.505 13.674,4.505 C13.674,4.505 10.829,4.505 10.829,4.505 C10.574,4.505 10.367,4.746 10.367,5.043 C10.367,5.339 10.574,5.580 10.829,5.580 C10.829,5.580 14.248,5.580 14.248,5.580 C14.248,5.580 21.234,5.580 21.234,5.580 C21.490,5.580 21.697,5.339 21.697,5.043 C21.697,4.746 21.490,4.505 21.234,4.505 C21.234,4.505 20.445,4.505 20.445,4.505 C20.190,4.505 19.983,4.265 19.983,3.969 C19.983,3.672 20.190,3.432 20.445,3.432 C20.445,3.432 24.202,3.432 24.202,3.432 C24.458,3.432 24.664,3.191 24.664,2.894 C24.664,2.598 24.458,2.357 24.202,2.357 C24.202,2.357 23.314,2.357 23.314,2.357 C23.314,2.357 14.935,2.357 14.935,2.357 Z" id="path-8" class="cls-6" fill-rule="evenodd"/>
    <path d="M30.891,6.348 C30.250,6.348 29.730,6.091 29.730,5.776 C29.730,5.460 30.250,5.203 30.891,5.203 C30.891,5.203 34.446,5.203 34.446,5.203 C35.087,5.203 35.606,5.460 35.606,5.776 C35.606,6.091 35.087,6.348 34.446,6.348 C34.446,6.348 30.891,6.348 30.891,6.348 Z" id="path-9" class="cls-6" fill-rule="evenodd"/>
  </g>
</svg>
