<svg xmlns="http://www.w3.org/2000/svg" xmlns:xlink="http://www.w3.org/1999/xlink" preserveAspectRatio="xMidYMid" width="61" height="49" viewBox="0 0 61 49">
  <defs>
    <style>

      .cls-3 {
        fill: #fbb713;
      }

      .cls-5 {
        fill: #142a3b;
      }

      .cls-7 {
        fill: #000000;
        opacity: 0.35;
      }

      .cls-8 {
        fill: #ededed;
      }
    </style>
  </defs>
  <g id="group-338svg">
    <path d="M31.687,48.716 C31.687,48.716 36.000,48.716 36.000,48.716 C36.831,48.716 37.505,48.255 37.505,47.685 C37.505,47.115 36.831,46.653 36.000,46.653 C36.000,46.653 35.799,46.653 35.799,46.653 C34.968,46.653 34.294,46.191 34.294,45.621 C34.294,45.051 34.968,44.589 35.799,44.589 C35.799,44.589 45.067,44.589 45.067,44.589 C45.898,44.589 46.572,44.127 46.572,43.557 C46.572,42.987 45.898,42.525 45.067,42.525 C45.067,42.525 33.929,42.525 33.929,42.525 C33.929,42.525 11.162,42.525 11.162,42.525 C10.331,42.525 9.657,42.987 9.657,43.557 C9.657,44.127 10.331,44.589 11.162,44.589 C11.162,44.589 13.734,44.589 13.734,44.589 C14.566,44.589 15.240,45.051 15.240,45.621 C15.240,46.191 14.566,46.653 13.734,46.653 C13.734,46.653 1.492,46.653 1.492,46.653 C0.661,46.653 -0.013,47.115 -0.013,47.685 C-0.013,48.255 0.661,48.716 1.492,48.716 C1.492,48.716 4.386,48.716 4.386,48.716 C4.386,48.716 31.687,48.716 31.687,48.716 Z" id="path-1" class="cls-3" fill-rule="evenodd"/>
    <path d="M49.853,46.982 C50.826,46.982 51.616,47.513 51.616,48.166 C51.616,48.819 50.826,49.349 49.853,49.349 C49.853,49.349 44.448,49.349 44.448,49.349 C43.475,49.349 42.685,48.819 42.685,48.166 C42.685,47.513 43.475,46.982 44.448,46.982 C44.448,46.982 49.853,46.982 49.853,46.982 Z" id="path-2" class="cls-3" fill-rule="evenodd"/>
    <path d="M59.987,18.118 C59.987,18.118 4.099,18.118 4.099,18.118 C4.099,18.118 4.099,0.009 4.099,0.009 C4.099,0.009 59.987,0.009 59.987,0.009 C59.987,0.009 59.987,18.118 59.987,18.118 Z" id="path-3" class="cls-5" fill-rule="evenodd"/>
    <path d="M59.987,35.593 C59.987,35.593 4.099,35.593 4.099,35.593 C4.099,35.593 4.099,17.484 4.099,17.484 C4.099,17.484 59.987,17.484 59.987,17.484 C59.987,17.484 59.987,35.593 59.987,35.593 Z" id="path-4" class="cls-5" fill-rule="evenodd"/>
    <path d="M59.987,20.520 C59.987,20.520 4.099,18.487 4.099,18.487 C4.099,18.487 4.099,17.484 4.099,17.484 C4.099,17.484 59.987,17.484 59.987,17.484 C59.987,17.484 59.987,20.520 59.987,20.520 Z" id="path-5" class="cls-7" fill-rule="evenodd"/>
    <path d="M53.385,9.064 C53.385,10.209 52.457,11.137 51.312,11.137 C50.168,11.137 49.239,10.209 49.239,9.064 C49.239,7.919 50.168,6.991 51.312,6.991 C52.457,6.991 53.385,7.919 53.385,9.064 Z" id="path-6" class="cls-8" fill-rule="evenodd"/>
    <path d="M16.535,9.064 C16.535,10.209 15.607,11.137 14.463,11.137 C13.318,11.137 12.390,10.209 12.390,9.064 C12.390,7.919 13.318,6.991 14.463,6.991 C15.607,6.991 16.535,7.919 16.535,9.064 Z" id="path-7" class="cls-8" fill-rule="evenodd"/>
    <path d="M16.342,8.201 C16.464,8.465 16.535,8.755 16.535,9.064 C16.535,10.209 15.607,11.137 14.463,11.137 C14.153,11.137 13.863,11.065 13.600,10.944 C13.928,11.656 14.644,12.153 15.478,12.153 C16.624,12.153 17.552,11.225 17.552,10.080 C17.552,9.244 17.055,8.529 16.342,8.201 Z" id="path-8" class="cls-7" fill-rule="evenodd"/>
    <path d="M53.385,26.538 C53.385,27.683 52.457,28.611 51.312,28.611 C50.168,28.611 49.239,27.683 49.239,26.538 C49.239,25.393 50.168,24.466 51.312,24.466 C52.457,24.466 53.385,25.393 53.385,26.538 Z" id="path-9" class="cls-8" fill-rule="evenodd"/>
    <path d="M53.191,25.675 C53.312,25.938 53.385,26.229 53.385,26.538 C53.385,27.683 52.457,28.611 51.312,28.611 C51.003,28.611 50.713,28.539 50.449,28.418 C50.777,29.130 51.493,29.627 52.328,29.627 C53.473,29.627 54.401,28.699 54.401,27.554 C54.401,26.719 53.904,26.003 53.191,25.675 Z" id="path-10" class="cls-7" fill-rule="evenodd"/>
    <path d="M53.191,8.269 C53.312,8.532 53.385,8.822 53.385,9.132 C53.385,10.276 52.457,11.204 51.312,11.204 C51.003,11.204 50.713,11.132 50.449,11.010 C50.777,11.723 51.493,12.220 52.328,12.220 C53.473,12.220 54.401,11.292 54.401,10.147 C54.401,9.312 53.904,8.596 53.191,8.269 Z" id="path-11" class="cls-7" fill-rule="evenodd"/>
    <path d="M16.103,25.675 C16.224,25.938 16.296,26.229 16.296,26.538 C16.296,27.683 15.367,28.611 14.223,28.611 C13.914,28.611 13.623,28.539 13.359,28.418 C13.687,29.130 14.403,29.627 15.239,29.627 C16.384,29.627 17.311,28.699 17.311,27.554 C17.311,26.719 16.814,26.003 16.103,25.675 Z" id="path-12" class="cls-7" fill-rule="evenodd"/>
    <path d="M16.535,26.538 C16.535,27.683 15.607,28.611 14.463,28.611 C13.318,28.611 12.390,27.683 12.390,26.538 C12.390,25.393 13.318,24.466 14.463,24.466 C15.607,24.466 16.535,25.393 16.535,26.538 Z" id="path-13" class="cls-8" fill-rule="evenodd"/>
    <path d="M47.704,45.937 C47.704,45.937 45.889,45.937 45.889,45.937 C45.889,45.937 45.889,33.864 45.889,33.864 C45.889,33.864 47.704,33.864 47.704,33.864 C47.704,33.864 47.704,45.937 47.704,45.937 Z" id="path-14" class="cls-5" fill-rule="evenodd"/>
    <path d="M20.067,45.937 C20.067,45.937 18.251,45.937 18.251,45.937 C18.251,45.937 18.251,33.864 18.251,33.864 C18.251,33.864 20.067,33.864 20.067,33.864 C20.067,33.864 20.067,45.937 20.067,45.937 Z" id="path-15" class="cls-5" fill-rule="evenodd"/>
  </g>
</svg>
