<svg xmlns="http://www.w3.org/2000/svg" xmlns:xlink="http://www.w3.org/1999/xlink" preserveAspectRatio="xMidYMid" width="60" height="61" viewBox="0 0 60 61">
  <defs>
    <style>

      .cls-3 {
        fill: #2476ff;
      }

      .cls-8 {
        fill: #0cb04a;
      }

      .cls-9 {
        fill: #020403;
        opacity: 0.25;
      }

      .cls-10 {
        fill: #ff3a2f;
      }

      .cls-11 {
        fill: #142a3b;
      }

      .cls-15 {
        fill: #020403;
        opacity: 0.35;
      }

      .cls-18 {
        fill: #ffffff;
      }
    </style>
  </defs>
  <g id="group-85svg">
    <path d="M31.872,54.010 C31.872,54.010 36.140,54.010 36.140,54.010 C36.963,54.010 37.630,54.432 37.630,54.953 C37.630,55.475 36.963,55.897 36.140,55.897 C36.140,55.897 35.941,55.897 35.941,55.897 C35.118,55.897 34.451,56.320 34.451,56.841 C34.451,57.363 35.118,57.786 35.941,57.786 C35.941,57.786 45.116,57.786 45.116,57.786 C45.939,57.786 46.606,58.208 46.606,58.730 C46.606,59.251 45.939,59.674 45.116,59.674 C45.116,59.674 34.090,59.674 34.090,59.674 C34.090,59.674 21.971,59.674 21.971,59.674 C21.148,59.674 20.480,59.251 20.480,58.730 C20.480,58.208 21.148,57.786 21.971,57.786 C21.971,57.786 24.518,57.786 24.518,57.786 C25.340,57.786 26.008,57.363 26.008,56.841 C26.008,56.320 25.340,55.897 24.518,55.897 C24.518,55.897 12.398,55.897 12.398,55.897 C11.575,55.897 10.908,55.475 10.908,54.953 C10.908,54.432 11.575,54.010 12.398,54.010 C12.398,54.010 15.263,54.010 15.263,54.010 C15.263,54.010 31.872,54.010 31.872,54.010 Z" id="path-1" class="cls-3" fill-rule="evenodd"/>
    <path d="M6.740,45.107 C6.740,45.107 8.114,45.107 8.114,45.107 C8.379,45.107 8.593,45.339 8.593,45.625 C8.593,45.912 8.379,46.144 8.114,46.144 C8.114,46.144 8.050,46.144 8.050,46.144 C7.785,46.144 7.570,46.376 7.570,46.663 C7.570,46.949 7.785,47.181 8.050,47.181 C8.050,47.181 11.004,47.181 11.004,47.181 C11.269,47.181 11.483,47.413 11.483,47.700 C11.483,47.986 11.269,48.219 11.004,48.219 C11.004,48.219 7.454,48.219 7.454,48.219 C7.454,48.219 3.552,48.219 3.552,48.219 C3.287,48.219 3.072,47.986 3.072,47.700 C3.072,47.413 3.287,47.181 3.552,47.181 C3.552,47.181 4.372,47.181 4.372,47.181 C4.637,47.181 4.851,46.949 4.851,46.663 C4.851,46.376 4.637,46.144 4.372,46.144 C4.372,46.144 0.470,46.144 0.470,46.144 C0.205,46.144 -0.010,45.912 -0.010,45.625 C-0.010,45.339 0.205,45.107 0.470,45.107 C0.470,45.107 1.392,45.107 1.392,45.107 C1.392,45.107 6.740,45.107 6.740,45.107 Z" id="path-2" class="cls-3" fill-rule="evenodd"/>
    <path d="M53.953,47.352 C53.953,47.352 55.327,47.352 55.327,47.352 C55.592,47.352 55.807,47.585 55.807,47.871 C55.807,48.157 55.592,48.389 55.327,48.389 C55.327,48.389 55.263,48.389 55.263,48.389 C54.998,48.389 54.783,48.622 54.783,48.908 C54.783,49.195 54.998,49.427 55.263,49.427 C55.263,49.427 58.217,49.427 58.217,49.427 C58.482,49.427 58.696,49.659 58.696,49.946 C58.696,50.232 58.482,50.464 58.217,50.464 C58.217,50.464 54.667,50.464 54.667,50.464 C54.667,50.464 50.765,50.464 50.765,50.464 C50.500,50.464 50.285,50.232 50.285,49.946 C50.285,49.659 50.500,49.427 50.765,49.427 C50.765,49.427 51.585,49.427 51.585,49.427 C51.850,49.427 52.064,49.195 52.064,48.908 C52.064,48.622 51.850,48.389 51.585,48.389 C51.585,48.389 47.683,48.389 47.683,48.389 C47.418,48.389 47.203,48.157 47.203,47.871 C47.203,47.585 47.418,47.352 47.683,47.352 C47.683,47.352 48.605,47.352 48.605,47.352 C48.605,47.352 53.953,47.352 53.953,47.352 Z" id="path-3" class="cls-3" fill-rule="evenodd"/>
    <path d="M58.289,60.491 C59.228,60.491 59.990,60.008 59.990,59.413 C59.990,58.818 59.228,58.335 58.289,58.335 C58.289,58.335 53.075,58.335 53.075,58.335 C52.136,58.335 51.374,58.818 51.374,59.413 C51.374,60.008 52.136,60.491 53.075,60.491 C53.075,60.491 58.289,60.491 58.289,60.491 Z" id="path-4" class="cls-3" fill-rule="evenodd"/>
    <path d="M51.835,41.716 C53.633,41.684 55.082,41.177 55.071,40.581 C55.061,39.987 53.596,39.529 51.798,39.561 C51.798,39.561 41.824,39.733 41.824,39.733 C40.027,39.765 38.578,40.272 38.589,40.868 C38.599,41.463 40.064,41.920 41.862,41.889 C41.862,41.889 51.835,41.716 51.835,41.716 Z" id="path-5" class="cls-3" fill-rule="evenodd"/>
    <path d="M14.168,20.291 C14.168,20.291 14.237,11.136 14.237,11.136 C14.237,10.135 15.094,9.324 16.153,9.324 C16.153,9.324 43.337,9.324 43.337,9.324 C44.395,9.324 45.253,10.135 45.253,11.136 C45.253,11.136 45.135,19.731 45.135,19.731 C45.135,19.731 45.135,19.731 45.135,19.731 " id="path-6" class="cls-8" fill-rule="evenodd"/>
    <path d="M43.337,9.324 C43.337,9.324 40.319,9.324 40.319,9.324 C40.319,9.324 40.217,16.781 40.217,16.781 C40.217,16.781 29.564,14.022 29.564,14.022 C29.564,14.022 14.191,17.251 14.191,17.251 C14.191,17.251 14.168,20.291 14.168,20.291 C14.168,20.291 45.135,19.731 45.135,19.731 C45.135,19.731 45.253,11.136 45.253,11.136 C45.253,10.135 44.395,9.324 43.337,9.324 Z" id="path-7" class="cls-9" fill-rule="evenodd"/>
    <path d="M29.742,15.897 C29.742,15.897 18.018,18.838 8.037,21.625 C6.707,21.997 6.276,23.457 7.085,24.780 C10.531,30.401 20.512,45.819 24.788,51.506 C26.602,53.911 29.792,53.781 29.792,53.781 C29.792,53.781 32.803,53.849 34.700,51.348 C39.702,44.754 48.676,30.493 52.220,24.216 C52.897,23.014 52.007,21.698 50.584,21.311 C40.766,18.644 29.742,15.897 29.742,15.897 Z" id="path-8" class="cls-10" fill-rule="evenodd"/>
    <path d="M29.692,32.991 C29.140,32.991 28.692,32.543 28.692,31.991 C28.692,31.991 28.692,16.215 28.692,16.215 C28.692,15.663 29.140,15.215 29.692,15.215 C30.245,15.215 30.692,15.663 30.692,16.215 C30.692,16.215 30.692,31.991 30.692,31.991 C30.692,32.543 30.245,32.991 29.692,32.991 Z" id="path-9" class="cls-11" fill-rule="evenodd"/>
    <path d="M21.269,29.432 C21.269,31.435 20.254,33.057 19.001,33.057 C17.743,33.057 16.721,31.435 16.721,29.432 C16.721,27.430 17.743,25.808 19.001,25.808 C20.254,25.808 21.269,27.430 21.269,29.432 Z" id="path-10" class="cls-11" fill-rule="evenodd"/>
    <path d="M42.303,29.150 C42.303,31.148 41.287,32.775 40.030,32.775 C38.776,32.775 37.759,31.148 37.759,29.150 C37.759,27.146 38.776,25.525 40.030,25.525 C41.287,25.525 42.303,27.146 42.303,29.150 Z" id="path-11" class="cls-11" fill-rule="evenodd"/>
    <path d="M25.563,9.784 C25.563,9.784 25.563,1.465 25.563,1.465 C25.563,0.659 25.788,0.002 26.060,0.002 C26.060,0.002 33.114,0.002 33.114,0.002 C33.392,0.002 33.614,0.659 33.614,1.465 C33.614,1.465 33.614,9.257 33.614,9.257 C33.614,9.257 33.614,9.257 33.614,9.257 " id="path-12" class="cls-10" fill-rule="evenodd"/>
    <path d="M33.114,0.002 C33.114,0.002 30.663,0.002 30.663,0.002 C30.663,0.002 30.511,8.311 30.511,8.311 C30.511,8.311 25.563,8.474 25.563,8.474 C25.563,8.474 25.563,9.784 25.563,9.784 C25.563,9.784 33.614,9.257 33.614,9.257 C33.614,9.257 33.614,1.465 33.614,1.465 C33.614,0.659 33.392,0.002 33.114,0.002 Z" id="path-13" class="cls-15" fill-rule="evenodd"/>
    <path d="M32.944,3.155 C32.944,3.155 26.370,3.155 26.370,3.155 C25.817,3.155 25.370,2.707 25.370,2.155 C25.370,1.603 25.817,1.155 26.370,1.155 C26.370,1.155 32.944,1.155 32.944,1.155 C33.497,1.155 33.944,1.603 33.944,2.155 C33.944,2.707 33.497,3.155 32.944,3.155 Z" id="path-14" class="cls-11" fill-rule="evenodd"/>
    <path d="M50.584,21.311 C40.766,18.644 29.742,15.896 29.742,15.896 C29.742,15.896 29.677,15.913 29.563,15.942 C29.563,15.942 29.563,53.779 29.563,53.779 C29.705,53.783 29.792,53.781 29.792,53.781 C29.792,53.781 32.803,53.849 34.700,51.348 C39.702,44.754 48.676,30.493 52.220,24.216 C52.897,23.014 52.007,21.698 50.584,21.311 Z" id="path-15" class="cls-15" fill-rule="evenodd"/>
    <path d="M22.996,46.195 C22.668,46.195 22.346,46.034 22.155,45.737 C22.155,45.737 14.752,34.263 14.752,34.263 C14.453,33.798 14.586,33.179 15.051,32.880 C15.516,32.581 16.134,32.715 16.433,33.178 C16.433,33.178 23.835,44.653 23.835,44.653 C24.135,45.116 24.001,45.735 23.537,46.035 C23.369,46.143 23.182,46.195 22.996,46.195 Z" id="path-16" class="cls-18" fill-rule="evenodd"/>
  </g>
</svg>
