<svg xmlns="http://www.w3.org/2000/svg" xmlns:xlink="http://www.w3.org/1999/xlink" preserveAspectRatio="xMidYMid" width="61" height="48" viewBox="0 0 61 48">
  <defs>
    <style>

      .cls-3 {
        fill: #0cb04a;
      }

      .cls-6 {
        fill: #ff3a2f;
      }

      .cls-7 {
        fill: #010101;
        opacity: 0.35;
      }

      .cls-8 {
        fill: #ffffff;
      }
    </style>
  </defs>
  <g id="group-124svg">
    <path d="M25.187,42.959 C25.187,42.959 29.527,42.959 29.527,42.959 C30.363,42.959 31.042,43.264 31.042,43.639 C31.042,44.015 30.363,44.319 29.527,44.319 C29.527,44.319 29.325,44.319 29.325,44.319 C28.488,44.319 27.810,44.624 27.810,45.000 C27.810,45.375 28.488,45.680 29.325,45.680 C29.325,45.680 38.653,45.680 38.653,45.680 C39.490,45.680 40.168,45.984 40.168,46.360 C40.168,46.736 39.490,47.040 38.653,47.040 C38.653,47.040 27.443,47.040 27.443,47.040 C27.443,47.040 15.122,47.040 15.122,47.040 C14.285,47.040 13.607,46.736 13.607,46.360 C13.607,45.984 14.285,45.680 15.122,45.680 C15.122,45.680 17.711,45.680 17.711,45.680 C18.548,45.680 19.226,45.375 19.226,45.000 C19.226,44.624 18.548,44.319 17.711,44.319 C17.711,44.319 5.390,44.319 5.390,44.319 C4.554,44.319 3.875,44.015 3.875,43.639 C3.875,43.264 4.554,42.959 5.390,42.959 C5.390,42.959 8.302,42.959 8.302,42.959 C8.302,42.959 25.187,42.959 25.187,42.959 Z" id="path-1" class="cls-3" fill-rule="evenodd"/>
    <path d="M52.045,47.629 C53.000,47.629 53.775,47.281 53.775,46.852 C53.775,46.423 53.000,46.076 52.045,46.076 C52.045,46.076 46.745,46.076 46.745,46.076 C45.789,46.076 45.015,46.423 45.015,46.852 C45.015,47.281 45.789,47.629 46.745,47.629 C46.745,47.629 52.045,47.629 52.045,47.629 Z" id="path-2" class="cls-3" fill-rule="evenodd"/>
    <path d="M51.394,38.779 C51.394,38.779 53.386,38.779 53.386,38.779 C53.770,38.779 54.082,38.951 54.082,39.164 C54.082,39.377 53.770,39.550 53.386,39.550 C53.386,39.550 53.293,39.550 53.293,39.550 C52.909,39.550 52.598,39.723 52.598,39.936 C52.598,40.149 52.909,40.322 53.293,40.322 C53.293,40.322 57.576,40.322 57.576,40.322 C57.961,40.322 58.272,40.495 58.272,40.708 C58.272,40.921 57.961,41.093 57.576,41.093 C57.576,41.093 52.430,41.093 52.430,41.093 C52.430,41.093 41.908,41.093 41.908,41.093 C41.523,41.093 41.212,40.921 41.212,40.708 C41.212,40.495 41.523,40.322 41.908,40.322 C41.908,40.322 43.097,40.322 43.097,40.322 C43.480,40.322 43.792,40.149 43.792,39.936 C43.792,39.723 43.480,39.550 43.097,39.550 C43.097,39.550 37.439,39.550 37.439,39.550 C37.055,39.550 36.743,39.377 36.743,39.164 C36.743,38.951 37.055,38.779 37.439,38.779 C37.439,38.779 38.776,38.779 38.776,38.779 C38.776,38.779 51.394,38.779 51.394,38.779 Z" id="path-3" class="cls-3" fill-rule="evenodd"/>
    <path d="M8.037,21.620 C8.433,25.272 10.813,34.045 44.528,39.179 C44.528,39.179 57.409,40.921 59.693,37.237 C61.976,33.553 50.503,31.625 48.275,30.794 C34.852,25.782 25.234,10.433 19.855,8.634 C16.561,7.533 9.910,7.587 9.910,7.587 C9.910,7.587 3.993,0.008 3.993,0.008 C3.993,0.008 -0.008,4.909 -0.008,4.909 C-0.008,4.909 7.813,10.567 7.813,10.567 C7.813,10.567 7.797,19.396 8.037,21.620 Z" id="path-4" class="cls-6" fill-rule="evenodd"/>
    <path d="M59.693,37.236 C59.770,37.113 59.829,36.993 59.875,36.874 C59.883,36.852 59.887,36.831 59.894,36.809 C59.928,36.710 59.956,36.611 59.971,36.513 C59.973,36.500 59.972,36.486 59.974,36.471 C59.986,36.366 59.990,36.261 59.980,36.159 C59.980,36.159 59.979,36.150 59.979,36.145 C59.967,36.035 59.943,35.925 59.908,35.819 C59.908,35.819 59.908,35.818 59.908,35.818 C56.174,38.241 45.705,36.826 45.705,36.826 C18.988,32.758 14.053,24.111 12.178,20.696 C11.851,20.100 12.049,19.363 12.621,18.996 C15.303,17.276 19.626,10.128 19.025,8.400 C16.627,7.807 13.194,7.645 11.299,7.603 C10.598,7.762 9.992,7.923 9.580,8.040 C9.199,8.147 8.795,8.072 8.474,7.840 C8.474,7.840 2.629,3.612 2.629,3.612 C2.072,3.209 1.298,3.310 0.863,3.842 C0.863,3.842 0.862,3.843 0.862,3.843 C0.391,4.421 0.503,5.278 1.107,5.715 C1.107,5.715 6.775,9.816 6.775,9.816 C6.775,9.816 7.813,10.567 7.813,10.567 C7.813,10.567 7.813,10.841 7.813,11.284 C7.813,11.360 7.813,11.447 7.813,11.533 C7.814,11.615 7.814,11.703 7.814,11.794 C7.814,11.896 7.814,12.002 7.815,12.114 C7.815,12.224 7.815,12.340 7.816,12.458 C7.816,12.548 7.816,12.635 7.817,12.730 C7.818,12.941 7.819,13.164 7.820,13.396 C7.820,13.457 7.821,13.519 7.821,13.582 C7.823,13.803 7.824,14.029 7.826,14.261 C7.827,14.357 7.828,14.455 7.829,14.551 C7.830,14.737 7.832,14.924 7.834,15.113 C7.835,15.222 7.836,15.332 7.837,15.442 C7.839,15.618 7.842,15.797 7.844,15.975 C7.846,16.100 7.847,16.225 7.849,16.351 C7.852,16.545 7.854,16.738 7.857,16.930 C7.859,17.020 7.860,17.109 7.861,17.198 C7.866,17.470 7.871,17.740 7.877,18.005 C7.878,18.052 7.879,18.099 7.881,18.146 C7.886,18.395 7.892,18.638 7.898,18.874 C7.901,18.971 7.904,19.061 7.907,19.155 C7.912,19.322 7.917,19.486 7.923,19.644 C7.926,19.738 7.930,19.829 7.934,19.919 C7.939,20.069 7.945,20.213 7.952,20.352 C7.956,20.434 7.959,20.515 7.964,20.593 C7.971,20.733 7.978,20.861 7.986,20.985 C7.990,21.045 7.994,21.109 7.998,21.164 C8.010,21.333 8.023,21.487 8.037,21.615 C8.037,21.615 8.037,21.619 8.037,21.619 C8.247,23.560 9.018,26.946 14.749,30.463 C15.086,30.670 15.440,30.877 15.812,31.085 C18.047,32.330 20.931,33.582 24.658,34.783 C25.280,34.983 25.925,35.182 26.594,35.379 C31.277,36.759 37.153,38.056 44.528,39.179 C44.528,39.179 57.409,40.921 59.693,37.236 Z" id="path-5" class="cls-7" fill-rule="evenodd"/>
    <path d="M27.271,20.457 C26.879,20.457 26.507,20.224 26.348,19.839 C26.348,19.839 26.348,19.839 26.348,19.839 C26.330,19.798 24.621,15.789 20.694,14.662 C20.163,14.510 19.856,13.956 20.009,13.425 C20.161,12.895 20.713,12.587 21.245,12.740 C26.120,14.138 28.114,18.876 28.196,19.077 C28.406,19.588 28.162,20.172 27.651,20.382 C27.527,20.433 27.398,20.457 27.271,20.457 Z" id="path-6" class="cls-8" fill-rule="evenodd"/>
    <path d="M17.101,8.036 C13.798,7.557 9.910,7.587 9.910,7.587 C9.910,7.587 3.993,0.008 3.993,0.008 C3.993,0.008 -0.008,4.909 -0.008,4.909 C-0.008,4.909 7.813,10.567 7.813,10.567 C7.813,10.567 7.806,14.752 7.879,18.085 C12.674,15.850 15.807,12.539 17.101,8.036 Z" id="path-7" class="cls-3" fill-rule="evenodd"/>
    <path d="M9.056,15.732 C8.982,12.399 8.990,8.214 8.990,8.214 C8.990,8.214 1.637,2.895 1.637,2.895 C1.637,2.895 -0.008,4.909 -0.008,4.909 C-0.008,4.909 7.813,10.567 7.813,10.567 C7.813,10.567 7.806,14.752 7.879,18.085 C12.198,16.072 15.155,13.176 16.647,9.332 C14.981,12.025 12.442,14.153 9.056,15.732 Z" id="path-8" class="cls-7" fill-rule="evenodd"/>
  </g>
</svg>
