<svg xmlns="http://www.w3.org/2000/svg" xmlns:xlink="http://www.w3.org/1999/xlink" preserveAspectRatio="xMidYMid" width="52" height="60" viewBox="0 0 52 60">
  <defs>
    <style>

      .cls-3 {
        fill: #fbb713;
      }

      .cls-5 {
        fill: #142a3b;
      }

      .cls-6 {
        fill: #ff3a2f;
      }

      .cls-7 {
        fill: #000000;
        opacity: 0.35;
      }

      .cls-9 {
        fill: #2476ff;
      }

      .cls-10 {
        fill: #ffffff;
      }

      .cls-11 {
        fill: #000000;
        opacity: 0.25;
      }
    </style>
  </defs>
  <g id="group-282svg">
    <path d="M17.526,52.230 C17.526,52.230 12.621,52.230 12.621,52.230 C11.675,52.230 10.909,52.810 10.909,53.526 C10.909,54.242 11.675,54.822 12.621,54.822 C12.621,54.822 12.849,54.822 12.849,54.822 C13.795,54.822 14.562,55.403 14.562,56.118 C14.562,56.834 13.795,57.414 12.849,57.414 C12.849,57.414 2.305,57.414 2.305,57.414 C1.359,57.414 0.592,57.995 0.592,58.711 C0.592,59.426 1.359,60.007 2.305,60.007 C2.305,60.007 14.977,60.007 14.977,60.007 C14.977,60.007 40.878,60.007 40.878,60.007 C41.823,60.007 42.591,59.426 42.591,58.711 C42.591,57.995 41.823,57.414 40.878,57.414 C40.878,57.414 37.951,57.414 37.951,57.414 C37.006,57.414 36.239,56.834 36.239,56.118 C36.239,55.403 37.006,54.822 37.951,54.822 C37.951,54.822 49.445,54.822 49.445,54.822 C50.392,54.822 51.158,54.242 51.158,53.526 C51.158,52.810 50.392,52.230 49.445,52.230 C49.445,52.230 48.588,52.230 48.588,52.230 C48.588,52.230 17.526,52.230 17.526,52.230 Z" id="path-1" class="cls-3" fill-rule="evenodd"/>
    <path d="M10.296,47.340 C10.296,47.340 11.695,47.340 11.695,47.340 C11.965,47.340 12.183,47.100 12.183,46.804 C12.183,46.509 11.965,46.269 11.695,46.269 C11.695,46.269 11.630,46.269 11.630,46.269 C11.360,46.269 11.142,46.029 11.142,45.733 C11.142,45.438 11.360,45.198 11.630,45.198 C11.630,45.198 14.637,45.198 14.637,45.198 C14.907,45.198 15.126,44.958 15.126,44.663 C15.126,44.367 14.907,44.127 14.637,44.127 C14.637,44.127 11.023,44.127 11.023,44.127 C11.023,44.127 3.636,44.127 3.636,44.127 C3.366,44.127 3.147,44.367 3.147,44.663 C3.147,44.958 3.366,45.198 3.636,45.198 C3.636,45.198 4.471,45.198 4.471,45.198 C4.740,45.198 4.959,45.438 4.959,45.733 C4.959,46.029 4.740,46.269 4.471,46.269 C4.471,46.269 0.499,46.269 0.499,46.269 C0.228,46.269 0.010,46.509 0.010,46.804 C0.010,47.100 0.228,47.340 0.499,47.340 C0.499,47.340 1.437,47.340 1.437,47.340 C1.437,47.340 10.296,47.340 10.296,47.340 Z" id="path-2" class="cls-3" fill-rule="evenodd"/>
    <path d="M44.000,53.344 C43.447,53.344 43.000,52.896 43.000,52.344 C43.000,52.344 43.000,50.343 43.000,50.343 C43.000,49.791 43.447,49.343 44.000,49.343 C44.553,49.343 45.000,49.791 45.000,50.343 C45.000,50.343 45.000,52.344 45.000,52.344 C45.000,52.896 44.553,53.344 44.000,53.344 Z" id="path-3" class="cls-5" fill-rule="evenodd"/>
    <path d="M31.000,48.343 C31.000,48.343 31.000,41.343 31.000,41.343 C31.000,41.343 22.000,41.343 22.000,41.343 C22.000,41.343 22.000,48.343 22.000,48.343 C22.000,48.343 31.000,48.343 31.000,48.343 Z" id="path-4" class="cls-6" fill-rule="evenodd"/>
    <path d="M22.257,41.308 C22.257,41.308 22.264,42.264 22.264,42.264 C22.264,42.264 29.240,44.008 29.240,44.008 C29.240,44.008 29.233,47.413 29.233,47.413 C29.233,47.413 22.257,48.285 22.257,48.285 C22.257,48.285 22.257,48.285 22.257,48.285 C22.257,48.285 30.977,48.285 30.977,48.285 C30.977,48.285 30.977,41.308 30.977,41.308 C30.977,41.308 22.257,41.308 22.257,41.308 Z" id="path-5" class="cls-7" fill-rule="evenodd"/>
    <path d="M43.000,52.344 C43.000,52.344 40.000,52.344 40.000,52.344 C39.447,52.344 39.000,51.896 39.000,51.344 C39.000,50.791 39.447,50.343 40.000,50.343 C40.000,50.343 43.000,50.343 43.000,50.343 C43.553,50.343 44.000,50.791 44.000,51.344 C44.000,51.896 43.553,52.344 43.000,52.344 Z" id="path-6" class="cls-5" fill-rule="evenodd"/>
    <path d="M29.553,6.697 C29.553,6.697 29.553,0.007 29.553,0.007 C29.553,0.007 23.447,0.007 23.447,0.007 C23.447,0.007 23.447,6.697 23.447,6.697 C23.447,6.697 11.754,28.921 19.532,40.079 C20.334,41.229 21.688,41.868 23.090,41.868 C23.090,41.868 31.546,41.868 31.546,41.868 C33.061,41.868 34.469,41.092 35.290,39.819 C42.533,28.593 29.553,6.697 29.553,6.697 Z" id="path-7" class="cls-9" fill-rule="evenodd"/>
    <path d="M20.478,36.915 C20.138,36.915 19.807,36.741 19.619,36.428 C15.971,30.322 18.748,21.348 21.721,14.895 C21.951,14.394 22.546,14.174 23.047,14.406 C23.549,14.637 23.768,15.230 23.537,15.732 C21.269,20.657 17.966,29.762 21.336,35.402 C21.619,35.876 21.465,36.490 20.990,36.773 C20.830,36.869 20.653,36.915 20.478,36.915 Z" id="path-8" class="cls-10" fill-rule="evenodd"/>
    <path d="M29.553,6.697 C29.553,6.697 29.553,0.007 29.553,0.007 C29.553,0.007 26.937,0.007 26.937,0.007 C26.937,0.007 26.937,5.825 26.937,5.825 C26.937,5.825 39.917,27.721 32.673,38.947 C31.851,40.220 30.444,40.995 28.930,40.995 C28.930,40.995 20.474,40.995 20.474,40.995 C20.459,40.995 20.444,40.993 20.430,40.993 C21.186,41.558 22.124,41.868 23.090,41.868 C23.090,41.868 31.546,41.868 31.546,41.868 C33.061,41.868 34.469,41.092 35.289,39.819 C42.533,28.593 29.553,6.697 29.553,6.697 Z" id="path-9" class="cls-11" fill-rule="evenodd"/>
    <path d="M41.000,53.344 C41.000,53.344 14.000,53.344 14.000,53.344 C14.000,53.344 14.000,48.343 14.000,48.343 C14.000,48.343 41.000,48.343 41.000,48.343 C41.000,48.343 41.000,53.344 41.000,53.344 Z" id="path-10" class="cls-5" fill-rule="evenodd"/>
    <path d="M35.657,48.285 C35.657,48.285 35.657,53.093 35.657,53.093 C35.657,53.093 40.890,53.093 40.890,53.093 C40.890,53.093 40.890,48.285 40.890,48.285 C40.890,48.285 35.657,48.285 35.657,48.285 Z" id="path-11" class="cls-7" fill-rule="evenodd"/>
    <path d="M30.000,41.343 C30.000,41.343 28.000,41.343 28.000,41.343 C28.000,41.343 28.000,31.343 28.000,31.343 C28.000,31.343 30.000,31.343 30.000,31.343 C30.000,31.343 30.000,41.343 30.000,41.343 Z" id="path-12" class="cls-5" fill-rule="evenodd"/>
    <path d="M26.000,41.343 C26.000,41.343 24.000,41.343 24.000,41.343 C24.000,41.343 24.000,31.343 24.000,31.343 C24.000,31.343 26.000,31.343 26.000,31.343 C26.000,31.343 26.000,41.343 26.000,41.343 Z" id="path-13" class="cls-5" fill-rule="evenodd"/>
  </g>
</svg>
