<svg xmlns="http://www.w3.org/2000/svg" xmlns:xlink="http://www.w3.org/1999/xlink" preserveAspectRatio="xMidYMid" width="60" height="61" viewBox="0 0 60 61">
  <defs>
    <style>

      .cls-3 {
        fill: #142a3b;
      }

      .cls-4 {
        fill: #020403;
        opacity: 0.35;
      }

      .cls-5 {
        fill: #0cb04a;
      }

      .cls-6 {
        fill: #ffffff;
      }

      .cls-8 {
        fill: #ff3a2f;
      }
    </style>
  </defs>
  <g id="group-113svg">
    <path d="M51.939,55.000 C50.687,55.269 41.538,50.545 40.186,50.545 C31.530,50.545 24.514,44.674 24.514,37.432 C24.514,30.189 31.530,24.317 40.186,24.317 C48.840,24.317 55.858,30.189 55.858,37.432 C55.858,41.573 53.563,45.266 49.981,47.669 C49.590,47.930 49.596,48.434 49.813,49.060 C49.813,49.060 51.939,55.000 51.939,55.000 Z" id="path-1" class="cls-3" fill-rule="evenodd"/>
    <path d="M40.186,24.317 C31.530,24.317 24.514,30.189 24.514,37.432 C24.514,40.938 26.168,44.115 28.847,46.468 C29.044,46.423 29.211,46.396 29.334,46.396 C40.977,46.396 50.777,39.819 53.738,30.866 C51.025,26.955 45.978,24.317 40.186,24.317 Z" id="path-2" class="cls-4" fill-rule="evenodd"/>
    <path d="M6.339,49.594 C8.363,50.029 23.148,42.396 25.334,42.396 C39.322,42.396 50.659,32.907 50.659,21.203 C50.659,9.499 39.322,0.011 25.334,0.011 C11.349,0.011 0.007,9.499 0.007,21.203 C0.007,27.896 3.715,33.864 9.504,37.748 C10.137,38.170 10.127,38.985 9.776,39.995 C9.776,39.995 6.339,49.594 6.339,49.594 Z" id="path-3" class="cls-5" fill-rule="evenodd"/>
    <path d="M6.788,21.704 C5.959,21.704 5.288,21.032 5.288,20.204 C5.288,12.102 13.033,5.511 22.554,5.511 C23.382,5.511 24.054,6.182 24.054,7.011 C24.054,7.839 23.382,8.510 22.554,8.510 C14.687,8.510 8.288,13.757 8.288,20.204 C8.288,21.032 7.616,21.704 6.788,21.704 Z" id="path-4" class="cls-6" fill-rule="evenodd"/>
    <path d="M43.169,6.159 C45.998,9.580 47.659,13.729 47.659,18.203 C47.659,29.907 36.321,39.396 22.334,39.396 C20.801,39.396 13.077,43.147 7.898,45.239 C7.898,45.239 6.339,49.594 6.339,49.594 C8.363,50.029 23.148,42.396 25.334,42.396 C39.321,42.396 50.659,32.907 50.659,21.203 C50.659,15.321 47.794,10.000 43.169,6.159 Z" id="path-5" class="cls-4" fill-rule="evenodd"/>
    <path d="M22.171,60.835 C22.920,60.835 23.527,60.574 23.527,60.252 C23.527,59.931 22.920,59.670 22.171,59.670 C22.171,59.670 18.016,59.670 18.016,59.670 C17.267,59.670 16.660,59.931 16.660,60.252 C16.660,60.574 17.267,60.835 18.016,60.835 C18.016,60.835 22.171,60.835 22.171,60.835 Z" id="path-6" class="cls-8" fill-rule="evenodd"/>
    <path d="M11.370,51.518 C11.370,51.518 12.604,51.518 12.604,51.518 C12.842,51.518 13.036,51.770 13.036,52.081 C13.036,52.392 12.842,52.645 12.604,52.645 C12.604,52.645 12.547,52.645 12.547,52.645 C12.309,52.645 12.116,52.897 12.116,53.208 C12.116,53.519 12.309,53.771 12.547,53.771 C12.547,53.771 15.201,53.771 15.201,53.771 C15.439,53.771 15.632,54.024 15.632,54.335 C15.632,54.646 15.439,54.898 15.201,54.898 C15.201,54.898 12.012,54.898 12.012,54.898 C12.012,54.898 5.492,54.898 5.492,54.898 C5.254,54.898 5.061,54.646 5.061,54.335 C5.061,54.024 5.254,53.771 5.492,53.771 C5.492,53.771 6.229,53.771 6.229,53.771 C6.467,53.771 6.660,53.519 6.660,53.208 C6.660,52.897 6.467,52.645 6.229,52.645 C6.229,52.645 2.724,52.645 2.724,52.645 C2.485,52.645 2.292,52.392 2.292,52.081 C2.292,51.770 2.485,51.518 2.724,51.518 C2.724,51.518 3.552,51.518 3.552,51.518 C3.552,51.518 11.370,51.518 11.370,51.518 Z" id="path-7" class="cls-8" fill-rule="evenodd"/>
    <path d="M2.710,54.929 C3.005,54.929 3.244,54.752 3.244,54.535 C3.244,54.318 3.005,54.143 2.710,54.143 C2.710,54.143 1.076,54.143 1.076,54.143 C0.782,54.143 0.543,54.318 0.543,54.535 C0.543,54.752 0.782,54.929 1.076,54.929 C1.076,54.929 2.710,54.929 2.710,54.929 Z" id="path-8" class="cls-8" fill-rule="evenodd"/>
    <path d="M48.187,55.775 C48.187,55.775 51.326,55.775 51.326,55.775 C51.931,55.775 52.422,56.149 52.422,56.611 C52.422,57.073 51.931,57.447 51.326,57.447 C51.326,57.447 51.180,57.447 51.180,57.447 C50.575,57.447 50.084,57.821 50.084,58.282 C50.084,58.744 50.575,59.118 51.180,59.118 C51.180,59.118 57.928,59.118 57.928,59.118 C58.533,59.118 59.023,59.493 59.023,59.954 C59.023,60.416 58.533,60.790 57.928,60.790 C57.928,60.790 49.818,60.790 49.818,60.790 C49.818,60.790 33.244,60.790 33.244,60.790 C32.638,60.790 32.147,60.416 32.147,59.954 C32.147,59.493 32.638,59.118 33.244,59.118 C33.244,59.118 35.116,59.118 35.116,59.118 C35.722,59.118 36.212,58.744 36.212,58.282 C36.212,57.821 35.722,57.447 35.116,57.447 C35.116,57.447 26.204,57.447 26.204,57.447 C25.598,57.447 25.108,57.073 25.108,56.611 C25.108,56.149 25.598,55.775 26.204,55.775 C26.204,55.775 28.310,55.775 28.310,55.775 C28.310,55.775 48.187,55.775 48.187,55.775 Z" id="path-9" class="cls-8" fill-rule="evenodd"/>
  </g>
</svg>
