<svg xmlns="http://www.w3.org/2000/svg" xmlns:xlink="http://www.w3.org/1999/xlink" preserveAspectRatio="xMidYMid" width="46" height="60" viewBox="0 0 46 60">
  <defs>
    <style>

      .cls-3 {
        fill: #0cb04a;
      }

      .cls-5 {
        fill: #ff3a2f;
      }

      .cls-6 {
        fill: #010101;
        opacity: 0.35;
      }

      .cls-7 {
        fill: #142a3b;
      }

      .cls-8 {
        fill: #2476ff;
      }
    </style>
  </defs>
  <g id="group-287svg">
    <path d="M16.016,51.227 C16.016,51.227 11.975,51.227 11.975,51.227 C11.195,51.227 10.564,51.873 10.564,52.669 C10.564,53.465 11.195,54.111 11.975,54.111 C11.975,54.111 12.163,54.111 12.163,54.111 C12.942,54.111 13.574,54.756 13.574,55.553 C13.574,56.348 12.942,56.994 12.163,56.994 C12.163,56.994 3.476,56.994 3.476,56.994 C2.696,56.994 2.065,57.639 2.065,58.435 C2.065,59.232 2.696,59.877 3.476,59.877 C3.476,59.877 13.915,59.877 13.915,59.877 C13.915,59.877 35.254,59.877 35.254,59.877 C36.033,59.877 36.665,59.232 36.665,58.435 C36.665,57.639 36.033,56.994 35.254,56.994 C35.254,56.994 32.843,56.994 32.843,56.994 C32.064,56.994 31.433,56.348 31.433,55.553 C31.433,54.756 32.064,54.111 32.843,54.111 C32.843,54.111 42.312,54.111 42.312,54.111 C43.092,54.111 43.724,53.465 43.724,52.669 C43.724,51.873 43.092,51.227 42.312,51.227 C42.312,51.227 41.606,51.227 41.606,51.227 C41.606,51.227 16.016,51.227 16.016,51.227 Z" id="path-1" class="cls-3" fill-rule="evenodd"/>
    <path d="M40.857,60.007 C40.308,60.007 39.863,59.550 39.863,58.987 C39.863,58.424 40.308,57.968 40.857,57.968 C40.857,57.968 43.902,57.968 43.902,57.968 C44.451,57.968 44.896,58.424 44.896,58.987 C44.896,59.550 44.451,60.007 43.902,60.007 C43.902,60.007 40.857,60.007 40.857,60.007 Z" id="path-2" class="cls-3" fill-rule="evenodd"/>
    <path d="M27.834,26.090 C27.834,28.257 26.078,30.014 23.911,30.014 C21.744,30.014 19.987,28.257 19.987,26.090 C19.987,23.923 21.744,22.166 23.911,22.166 C26.078,22.166 27.834,23.923 27.834,26.090 Z" id="path-3" class="cls-5" fill-rule="evenodd"/>
    <path d="M26.212,22.924 C26.683,23.573 26.970,24.363 26.970,25.225 C26.970,27.392 25.213,29.149 23.046,29.149 C22.184,29.149 21.393,28.862 20.745,28.391 C21.458,29.371 22.606,30.014 23.911,30.014 C26.078,30.014 27.834,28.258 27.834,26.090 C27.834,24.786 27.191,23.638 26.212,22.924 Z" id="path-4" class="cls-6" fill-rule="evenodd"/>
    <path d="M24.687,50.343 C24.687,50.343 22.687,50.343 22.687,50.343 C22.687,50.343 22.687,29.344 22.687,29.344 C22.687,29.344 24.687,29.344 24.687,29.344 C24.687,29.344 24.687,50.343 24.687,50.343 Z" id="path-5" class="cls-7" fill-rule="evenodd"/>
    <path d="M20.140,27.385 C20.140,27.385 0.009,36.409 0.009,36.409 C0.009,36.409 24.273,42.098 20.140,27.385 Z" id="path-6" class="cls-8" fill-rule="evenodd"/>
    <path d="M20.140,27.385 C20.140,27.385 18.573,28.087 18.573,28.087 C20.250,35.439 14.403,37.328 8.550,37.477 C15.082,37.654 22.587,36.095 20.140,27.385 Z" id="path-7" class="cls-6" fill-rule="evenodd"/>
    <path d="M28.006,28.187 C28.006,28.187 43.606,43.787 43.606,43.787 C43.606,43.787 40.284,19.088 28.006,28.187 Z" id="path-8" class="cls-8" fill-rule="evenodd"/>
    <path d="M29.039,27.490 C28.702,27.697 28.358,27.926 28.006,28.187 C28.006,28.187 43.606,43.787 43.606,43.787 C43.606,43.787 43.496,42.972 43.243,41.694 C43.243,41.694 29.039,27.490 29.039,27.490 Z" id="path-9" class="cls-6" fill-rule="evenodd"/>
    <path d="M23.687,22.067 C23.687,22.067 23.687,0.007 23.687,0.007 C23.687,0.007 7.687,19.821 23.687,22.067 Z" id="path-10" class="cls-8" fill-rule="evenodd"/>
    <path d="M16.611,14.456 C16.289,18.116 17.826,21.252 23.480,22.067 C23.480,22.067 23.480,20.338 23.480,20.338 C18.743,19.654 16.898,17.340 16.611,14.456 Z" id="path-11" class="cls-6" fill-rule="evenodd"/>
    <path d="M30.687,55.343 C30.687,55.343 16.687,55.343 16.687,55.343 C16.687,55.343 16.687,49.343 16.687,49.343 C16.687,49.343 30.687,49.343 30.687,49.343 C30.687,49.343 30.687,55.343 30.687,55.343 Z" id="path-12" class="cls-5" fill-rule="evenodd"/>
    <path d="M27.227,49.440 C27.227,49.440 27.227,55.247 27.227,55.247 C27.227,55.247 30.687,55.247 30.687,55.247 C30.687,55.247 30.687,49.440 30.687,49.440 C30.687,49.440 27.227,49.440 27.227,49.440 Z" id="path-13" class="cls-6" fill-rule="evenodd"/>
  </g>
</svg>
