<svg xmlns="http://www.w3.org/2000/svg" xmlns:xlink="http://www.w3.org/1999/xlink" preserveAspectRatio="xMidYMid" width="57" height="61" viewBox="0 0 57 61">
  <defs>
    <style>

      .cls-3 {
        fill: #ff3a2f;
      }

      .cls-4 {
        fill: #ffffff;
      }

      .cls-5 {
        fill: #142a3b;
      }

      .cls-7 {
        fill: #fbb713;
      }

      .cls-8 {
        fill: #020403;
        opacity: 0.35;
      }
    </style>
  </defs>
  <g id="group-136svg">
    <path d="M41.105,9.983 C41.105,9.983 37.956,13.132 37.956,13.132 C37.956,13.132 30.000,5.175 30.000,5.175 C30.000,5.175 33.149,2.026 33.149,2.026 C35.635,-0.459 39.422,-0.681 41.611,1.509 C42.712,2.610 43.206,4.113 43.107,5.641 C43.022,7.182 42.343,8.745 41.105,9.983 Z" id="path-1" class="cls-3" fill-rule="evenodd"/>
    <path d="M33.820,5.076 C33.674,5.076 33.524,5.043 33.383,4.975 C32.887,4.733 32.681,4.134 32.923,3.638 C33.435,2.585 34.287,1.771 35.320,1.344 C36.395,0.900 37.534,0.923 38.530,1.408 C39.026,1.650 39.232,2.249 38.990,2.746 C38.750,3.241 38.154,3.449 37.653,3.205 C37.181,2.975 36.623,2.970 36.084,3.192 C35.503,3.432 35.019,3.902 34.720,4.514 C34.547,4.870 34.191,5.076 33.820,5.076 Z" id="path-2" class="cls-4" fill-rule="evenodd"/>
    <path d="M4.589,30.508 C4.589,30.508 30.780,4.424 30.780,4.424 C30.780,4.424 38.758,12.402 38.758,12.402 C38.758,12.402 12.226,38.790 12.226,38.790 C12.226,38.790 12.226,38.790 12.226,38.790 " id="path-3" class="cls-5" fill-rule="evenodd"/>
    <path d="M5.434,40.511 C5.434,40.511 0.819,42.312 0.819,42.312 C0.819,42.312 2.435,37.510 2.435,37.510 C2.435,37.510 5.434,40.511 5.434,40.511 Z" id="path-4" class="cls-5" fill-rule="evenodd"/>
    <path d="M9.193,30.536 C9.193,30.536 6.240,30.537 6.240,30.537 C6.240,30.537 4.589,30.508 4.589,30.508 C4.589,30.508 2.435,37.510 2.435,37.510 C2.435,37.510 5.434,40.511 5.434,40.511 C5.434,40.511 12.226,38.790 12.226,38.790 C12.226,38.790 12.458,36.655 12.458,36.655 C12.458,36.655 12.459,33.804 12.459,33.804 C12.459,33.804 9.127,34.264 9.127,34.264 C9.127,34.264 9.193,30.536 9.193,30.536 Z" id="path-5" class="cls-7" fill-rule="evenodd"/>
    <path d="M38.505,0.045 C38.853,0.253 39.180,0.501 39.476,0.798 C40.576,1.898 41.070,3.401 40.972,4.929 C40.887,6.470 40.207,8.034 38.970,9.271 C38.970,9.271 37.244,10.996 37.244,10.996 C37.244,10.996 38.668,12.420 38.668,12.420 C38.668,12.420 41.105,9.982 41.105,9.982 C42.343,8.745 43.022,7.182 43.107,5.641 C43.206,4.113 42.712,2.610 41.611,1.509 C40.761,0.658 39.668,0.176 38.505,0.045 Z" id="path-6" class="cls-8" fill-rule="evenodd"/>
    <path d="M30.252,4.846 C30.252,4.846 34.570,10.385 34.570,10.385 C35.339,11.372 35.254,12.777 34.371,13.663 C34.371,13.663 12.464,35.673 12.464,35.673 C12.464,35.673 12.226,38.790 12.226,38.790 C12.226,38.790 38.758,12.402 38.758,12.402 C38.758,12.402 30.780,4.424 30.780,4.424 C30.780,4.424 30.252,4.846 30.252,4.846 Z" id="path-7" class="cls-8" fill-rule="evenodd"/>
    <path d="M10.534,37.876 C10.534,37.876 4.424,39.500 4.424,39.500 C4.424,39.500 5.434,40.511 5.434,40.511 C5.434,40.511 12.226,38.790 12.226,38.790 C12.226,38.790 12.458,36.655 12.458,36.655 C12.458,36.655 12.459,33.804 12.459,33.804 C12.459,33.804 11.740,33.903 11.740,33.903 C11.740,33.903 10.534,37.876 10.534,37.876 Z" id="path-8" class="cls-8" fill-rule="evenodd"/>
    <path d="M12.841,26.709 C12.585,26.709 12.329,26.611 12.134,26.416 C11.743,26.026 11.743,25.392 12.134,25.002 C12.134,25.002 27.914,9.221 27.914,9.221 C28.305,8.830 28.937,8.830 29.328,9.221 C29.719,9.611 29.719,10.245 29.328,10.635 C29.328,10.635 13.548,26.416 13.548,26.416 C13.353,26.611 13.097,26.709 12.841,26.709 Z" id="path-9" class="cls-4" fill-rule="evenodd"/>
    <path d="M49.332,43.283 C50.294,43.283 51.074,42.933 51.074,42.502 C51.074,42.070 50.294,41.719 49.332,41.719 C49.332,41.719 43.996,41.719 43.996,41.719 C43.034,41.719 42.254,42.070 42.254,42.502 C42.254,42.933 43.034,43.283 43.996,43.283 C43.996,43.283 49.332,43.283 49.332,43.283 Z" id="path-10" class="cls-3" fill-rule="evenodd"/>
    <path d="M48.676,34.373 C48.676,34.373 50.683,34.373 50.683,34.373 C51.069,34.373 51.383,34.547 51.383,34.761 C51.383,34.976 51.069,35.149 50.683,35.149 C50.683,35.149 50.589,35.149 50.589,35.149 C50.202,35.149 49.889,35.324 49.889,35.538 C49.889,35.753 50.202,35.927 50.589,35.927 C50.589,35.927 54.901,35.927 54.901,35.927 C55.288,35.927 55.601,36.100 55.601,36.315 C55.601,36.530 55.288,36.704 54.901,36.704 C54.901,36.704 49.719,36.704 49.719,36.704 C49.719,36.704 39.126,36.704 39.126,36.704 C38.739,36.704 38.426,36.530 38.426,36.315 C38.426,36.100 38.739,35.927 39.126,35.927 C39.126,35.927 40.322,35.927 40.322,35.927 C40.710,35.927 41.023,35.753 41.023,35.538 C41.023,35.324 40.710,35.149 40.322,35.149 C40.322,35.149 34.627,35.149 34.627,35.149 C34.240,35.149 33.927,34.976 33.927,34.761 C33.927,34.547 34.240,34.373 34.627,34.373 C34.627,34.373 35.973,34.373 35.973,34.373 C35.973,34.373 48.676,34.373 48.676,34.373 Z" id="path-11" class="cls-3" fill-rule="evenodd"/>
    <path d="M49.332,43.283 C50.294,43.283 51.074,42.933 51.074,42.502 C51.074,42.070 50.294,41.719 49.332,41.719 C49.332,41.719 43.996,41.719 43.996,41.719 C43.034,41.719 42.254,42.070 42.254,42.502 C42.254,42.933 43.034,43.283 43.996,43.283 C43.996,43.283 49.332,43.283 49.332,43.283 Z" id="path-12" class="cls-3" fill-rule="evenodd"/>
    <path d="M48.676,34.373 C48.676,34.373 50.683,34.373 50.683,34.373 C51.069,34.373 51.383,34.547 51.383,34.761 C51.383,34.976 51.069,35.149 50.683,35.149 C50.683,35.149 50.589,35.149 50.589,35.149 C50.202,35.149 49.889,35.324 49.889,35.538 C49.889,35.753 50.202,35.927 50.589,35.927 C50.589,35.927 54.901,35.927 54.901,35.927 C55.288,35.927 55.601,36.100 55.601,36.315 C55.601,36.530 55.288,36.704 54.901,36.704 C54.901,36.704 49.719,36.704 49.719,36.704 C49.719,36.704 39.126,36.704 39.126,36.704 C38.739,36.704 38.426,36.530 38.426,36.315 C38.426,36.100 38.739,35.927 39.126,35.927 C39.126,35.927 40.322,35.927 40.322,35.927 C40.710,35.927 41.023,35.753 41.023,35.538 C41.023,35.324 40.710,35.149 40.322,35.149 C40.322,35.149 34.627,35.149 34.627,35.149 C34.240,35.149 33.927,34.976 33.927,34.761 C33.927,34.547 34.240,34.373 34.627,34.373 C34.627,34.373 35.973,34.373 35.973,34.373 C35.973,34.373 48.676,34.373 48.676,34.373 Z" id="path-13" class="cls-3" fill-rule="evenodd"/>
    <path d="M8.502,30.536 C8.502,30.536 8.809,34.158 8.809,34.158 C8.809,34.158 9.127,34.264 9.127,34.264 C9.127,34.264 9.193,30.536 9.193,30.536 C9.193,30.536 8.502,30.536 8.502,30.536 Z" id="path-14" class="cls-8" fill-rule="evenodd"/>
    <path d="M49.332,43.283 C50.294,43.283 51.074,42.933 51.074,42.502 C51.074,42.070 50.294,41.719 49.332,41.719 C49.332,41.719 43.996,41.719 43.996,41.719 C43.034,41.719 42.254,42.070 42.254,42.502 C42.254,42.933 43.034,43.283 43.996,43.283 C43.996,43.283 49.332,43.283 49.332,43.283 Z" id="path-15" class="cls-3" fill-rule="evenodd"/>
    <path d="M48.676,34.373 C48.676,34.373 50.683,34.373 50.683,34.373 C51.069,34.373 51.383,34.547 51.383,34.761 C51.383,34.976 51.069,35.149 50.683,35.149 C50.683,35.149 50.589,35.149 50.589,35.149 C50.202,35.149 49.889,35.324 49.889,35.538 C49.889,35.753 50.202,35.927 50.589,35.927 C50.589,35.927 54.901,35.927 54.901,35.927 C55.288,35.927 55.601,36.100 55.601,36.315 C55.601,36.530 55.288,36.704 54.901,36.704 C54.901,36.704 49.719,36.704 49.719,36.704 C49.719,36.704 39.126,36.704 39.126,36.704 C38.739,36.704 38.426,36.530 38.426,36.315 C38.426,36.100 38.739,35.927 39.126,35.927 C39.126,35.927 40.322,35.927 40.322,35.927 C40.710,35.927 41.023,35.753 41.023,35.538 C41.023,35.324 40.710,35.149 40.322,35.149 C40.322,35.149 34.627,35.149 34.627,35.149 C34.240,35.149 33.927,34.976 33.927,34.761 C33.927,34.547 34.240,34.373 34.627,34.373 C34.627,34.373 35.973,34.373 35.973,34.373 C35.973,34.373 48.676,34.373 48.676,34.373 Z" id="path-16" class="cls-3" fill-rule="evenodd"/>
    <path d="M49.332,43.283 C50.294,43.283 51.074,42.933 51.074,42.502 C51.074,42.070 50.294,41.719 49.332,41.719 C49.332,41.719 43.996,41.719 43.996,41.719 C43.034,41.719 42.254,42.070 42.254,42.502 C42.254,42.933 43.034,43.283 43.996,43.283 C43.996,43.283 49.332,43.283 49.332,43.283 Z" id="path-17" class="cls-3" fill-rule="evenodd"/>
    <path d="M48.676,34.373 C48.676,34.373 50.683,34.373 50.683,34.373 C51.069,34.373 51.383,34.547 51.383,34.761 C51.383,34.976 51.069,35.149 50.683,35.149 C50.683,35.149 50.589,35.149 50.589,35.149 C50.202,35.149 49.889,35.324 49.889,35.538 C49.889,35.753 50.202,35.927 50.589,35.927 C50.589,35.927 54.901,35.927 54.901,35.927 C55.288,35.927 55.601,36.100 55.601,36.315 C55.601,36.530 55.288,36.704 54.901,36.704 C54.901,36.704 49.719,36.704 49.719,36.704 C49.719,36.704 39.126,36.704 39.126,36.704 C38.739,36.704 38.426,36.530 38.426,36.315 C38.426,36.100 38.739,35.927 39.126,35.927 C39.126,35.927 40.322,35.927 40.322,35.927 C40.710,35.927 41.023,35.753 41.023,35.538 C41.023,35.324 40.710,35.149 40.322,35.149 C40.322,35.149 34.627,35.149 34.627,35.149 C34.240,35.149 33.927,34.976 33.927,34.761 C33.927,34.547 34.240,34.373 34.627,34.373 C34.627,34.373 35.973,34.373 35.973,34.373 C35.973,34.373 48.676,34.373 48.676,34.373 Z" id="path-18" class="cls-3" fill-rule="evenodd"/>
    <path d="M38.988,54.744 C38.988,54.744 43.875,54.744 43.875,54.744 C44.817,54.744 45.581,55.087 45.581,55.510 C45.581,55.933 44.817,56.276 43.875,56.276 C43.875,56.276 43.647,56.276 43.647,56.276 C42.705,56.276 41.941,56.619 41.941,57.043 C41.941,57.466 42.705,57.809 43.647,57.809 C43.647,57.809 54.153,57.809 54.153,57.809 C55.096,57.809 55.859,58.152 55.859,58.575 C55.859,58.998 55.096,59.341 54.153,59.341 C54.153,59.341 41.528,59.341 41.528,59.341 C41.528,59.341 27.651,59.341 27.651,59.341 C26.709,59.341 25.945,58.998 25.945,58.575 C25.945,58.152 26.709,57.809 27.651,57.809 C27.651,57.809 30.567,57.809 30.567,57.809 C31.510,57.809 32.273,57.466 32.273,57.043 C32.273,56.619 31.510,56.276 30.567,56.276 C30.567,56.276 16.690,56.276 16.690,56.276 C15.748,56.276 14.984,55.933 14.984,55.510 C14.984,55.087 15.748,54.744 16.690,54.744 C16.690,54.744 19.970,54.744 19.970,54.744 C19.970,54.744 38.988,54.744 38.988,54.744 Z" id="path-19" class="cls-3" fill-rule="evenodd"/>
    <path d="M12.924,60.004 C13.999,60.004 14.871,59.612 14.871,59.129 C14.871,58.646 13.999,58.254 12.924,58.254 C12.924,58.254 6.953,58.254 6.953,58.254 C5.878,58.254 5.006,58.646 5.006,59.129 C5.006,59.612 5.878,60.004 6.953,60.004 C6.953,60.004 12.924,60.004 12.924,60.004 Z" id="path-20" class="cls-3" fill-rule="evenodd"/>
    <path d="M14.739,42.656 C14.739,42.656 16.746,42.656 16.746,42.656 C17.133,42.656 17.446,42.831 17.446,43.045 C17.446,43.259 17.133,43.433 16.746,43.433 C16.746,43.433 16.652,43.433 16.652,43.433 C16.266,43.433 15.952,43.607 15.952,43.822 C15.952,44.036 16.266,44.210 16.652,44.210 C16.652,44.210 20.965,44.210 20.965,44.210 C21.352,44.210 21.665,44.384 21.665,44.599 C21.665,44.813 21.352,44.987 20.965,44.987 C20.965,44.987 15.782,44.987 15.782,44.987 C15.782,44.987 5.189,44.987 5.189,44.987 C4.803,44.987 4.489,44.813 4.489,44.599 C4.489,44.384 4.803,44.210 5.189,44.210 C5.189,44.210 6.387,44.210 6.387,44.210 C6.773,44.210 7.087,44.036 7.087,43.822 C7.087,43.607 6.773,43.433 6.387,43.433 C6.387,43.433 0.690,43.433 0.690,43.433 C0.303,43.433 -0.011,43.259 -0.011,43.045 C-0.011,42.831 0.303,42.656 0.690,42.656 C0.690,42.656 2.036,42.656 2.036,42.656 C2.036,42.656 14.739,42.656 14.739,42.656 Z" id="path-21" class="cls-3" fill-rule="evenodd"/>
  </g>
</svg>
