<svg xmlns="http://www.w3.org/2000/svg" xmlns:xlink="http://www.w3.org/1999/xlink" preserveAspectRatio="xMidYMid" width="57" height="60" viewBox="0 0 57 60">
  <defs>
    <style>

      .cls-3 {
        fill: #0cb04a;
      }

      .cls-5 {
        fill: #142a3b;
      }

      .cls-6 {
        fill: #090908;
        opacity: 0.35;
      }

      .cls-7 {
        fill: #fbb713;
      }

      .cls-8 {
        fill: #090908;
        opacity: 0.25;
      }

      .cls-11 {
        fill: #2476ff;
      }

      .cls-13 {
        fill: #ededed;
      }
    </style>
  </defs>
  <g id="group-201svg">
    <path d="M17.988,53.481 C17.988,53.481 12.778,53.481 12.778,53.481 C11.773,53.481 10.959,53.947 10.959,54.523 C10.959,55.098 11.773,55.564 12.778,55.564 C12.778,55.564 13.020,55.564 13.020,55.564 C14.025,55.564 14.839,56.031 14.839,56.606 C14.839,57.182 14.025,57.647 13.020,57.647 C13.020,57.647 1.820,57.647 1.820,57.647 C0.815,57.647 0.001,58.114 0.001,58.689 C0.001,59.265 0.815,59.731 1.820,59.731 C1.820,59.731 15.280,59.731 15.280,59.731 C15.280,59.731 42.792,59.731 42.792,59.731 C43.796,59.731 44.611,59.265 44.611,58.689 C44.611,58.114 43.796,57.647 42.792,57.647 C42.792,57.647 39.684,57.647 39.684,57.647 C38.679,57.647 37.865,57.182 37.865,56.606 C37.865,56.031 38.679,55.564 39.684,55.564 C39.684,55.564 51.892,55.564 51.892,55.564 C52.897,55.564 53.711,55.098 53.711,54.523 C53.711,53.947 52.897,53.481 51.892,53.481 C51.892,53.481 50.981,53.481 50.981,53.481 C50.981,53.481 17.988,53.481 17.988,53.481 Z" id="path-1" class="cls-3" fill-rule="evenodd"/>
    <path d="M50.302,60.010 C49.459,60.010 48.777,59.510 48.777,58.894 C48.777,58.277 49.459,57.777 50.302,57.777 C50.302,57.777 54.975,57.777 54.975,57.777 C55.817,57.777 56.500,58.277 56.500,58.894 C56.500,59.510 55.817,60.010 54.975,60.010 C54.975,60.010 50.302,60.010 50.302,60.010 Z" id="path-2" class="cls-3" fill-rule="evenodd"/>
    <path d="M45.338,15.578 C45.338,15.578 37.884,15.578 37.884,15.578 C37.884,15.578 37.884,5.456 37.884,5.456 C37.884,5.456 45.338,5.456 45.338,5.456 C45.338,5.456 45.338,15.578 45.338,15.578 Z" id="path-3" class="cls-5" fill-rule="evenodd"/>
    <path d="M37.884,15.578 C37.884,15.578 45.338,15.578 45.338,15.578 C45.338,15.578 45.338,10.692 45.338,10.692 C45.338,10.692 37.884,5.805 37.884,5.805 C37.884,5.805 37.884,15.578 37.884,15.578 Z" id="path-4" class="cls-6" fill-rule="evenodd"/>
    <path d="M47.106,53.481 C47.106,53.481 12.557,53.481 12.557,53.481 C12.557,53.481 12.557,19.362 12.557,19.362 C12.557,19.362 47.106,19.362 47.106,19.362 C47.106,19.362 47.106,53.481 47.106,53.481 Z" id="path-5" class="cls-7" fill-rule="evenodd"/>
    <path d="M12.557,19.362 C12.557,19.362 12.557,25.227 12.557,25.227 C12.557,25.227 42.220,28.158 42.220,28.158 C42.220,28.158 44.174,53.481 44.174,53.481 C44.174,53.481 47.106,53.481 47.106,53.481 C47.106,53.481 47.106,19.362 47.106,19.362 C47.106,19.362 12.557,19.362 12.557,19.362 Z" id="path-6" class="cls-8" fill-rule="evenodd"/>
    <path d="M35.423,53.481 C35.423,53.481 24.241,53.481 24.241,53.481 C24.241,53.481 24.241,37.138 24.241,37.138 C24.241,37.138 35.423,37.138 35.423,37.138 C35.423,37.138 35.423,53.481 35.423,53.481 Z" id="path-7" class="cls-5" fill-rule="evenodd"/>
    <path d="M24.241,37.138 C24.241,37.138 24.241,40.071 24.241,40.071 C24.241,40.071 31.513,40.071 31.513,40.071 C31.513,40.071 31.513,53.481 31.513,53.481 C31.513,53.481 35.423,53.481 35.423,53.481 C35.423,53.481 35.423,37.138 35.423,37.138 C35.423,37.138 24.241,37.138 24.241,37.138 Z" id="path-8" class="cls-6" fill-rule="evenodd"/>
    <path d="M2.955,23.286 C2.955,23.286 29.832,0.010 29.832,0.010 C29.832,0.010 56.708,23.286 56.708,23.286 C56.708,23.286 2.955,23.286 2.955,23.286 Z" id="path-9" class="cls-11" fill-rule="evenodd"/>
    <path d="M29.832,0.010 C29.832,0.010 27.953,1.637 27.953,1.637 C27.953,1.637 46.600,17.786 46.600,17.786 C48.402,19.347 47.298,22.308 44.914,22.308 C44.914,22.308 4.083,22.308 4.083,22.308 C4.083,22.308 2.955,23.286 2.955,23.286 C2.955,23.286 56.708,23.286 56.708,23.286 C56.708,23.286 29.832,0.010 29.832,0.010 Z" id="path-10" class="cls-6" fill-rule="evenodd"/>
    <path d="M15.089,48.080 C14.537,48.080 14.089,47.632 14.089,47.079 C14.089,47.079 14.089,29.976 14.089,29.976 C14.089,29.424 14.537,28.976 15.089,28.976 C15.642,28.976 16.089,29.424 16.089,29.976 C16.089,29.976 16.089,47.079 16.089,47.079 C16.089,47.632 15.642,48.080 15.089,48.080 Z" id="path-11" class="cls-13" fill-rule="evenodd"/>
    <path d="M12.125,19.897 C11.845,19.897 11.566,19.780 11.368,19.552 C11.007,19.134 11.053,18.502 11.470,18.141 C11.470,18.141 24.746,6.659 24.746,6.659 C25.165,6.298 25.795,6.343 26.157,6.761 C26.518,7.179 26.472,7.811 26.055,8.172 C26.055,8.172 12.779,19.654 12.779,19.654 C12.589,19.817 12.357,19.897 12.125,19.897 Z" id="path-12" class="cls-13" fill-rule="evenodd"/>
  </g>
</svg>
