<svg xmlns="http://www.w3.org/2000/svg" xmlns:xlink="http://www.w3.org/1999/xlink" preserveAspectRatio="xMidYMid" width="60" height="61" viewBox="0 0 60 61">
  <defs>
    <style>

      .cls-3 {
        fill: #2476ff;
      }

      .cls-5 {
        fill: #ededed;
      }

      .cls-6 {
        fill: #142a3b;
      }

      .cls-7 {
        fill: #000000;
      }

      .cls-9 {
        fill: #000000;
        opacity: 0.25;
      }

      .cls-11 {
        fill: #000000;
        opacity: 0.35;
      }

      .cls-12 {
        fill: #ff3a2f;
      }
    </style>
  </defs>
  <g id="group-249svg">
    <path d="M18.752,53.660 C18.752,53.660 13.319,53.660 13.319,53.660 C12.272,53.660 11.423,54.112 11.423,54.670 C11.423,55.228 12.272,55.680 13.319,55.680 C13.319,55.680 13.572,55.680 13.572,55.680 C14.620,55.680 15.469,56.132 15.469,56.690 C15.469,57.248 14.620,57.700 13.572,57.700 C13.572,57.700 1.894,57.700 1.894,57.700 C0.846,57.700 -0.003,58.153 -0.003,58.711 C-0.003,59.269 0.846,59.721 1.894,59.721 C1.894,59.721 15.929,59.721 15.929,59.721 C15.929,59.721 44.616,59.721 44.616,59.721 C45.663,59.721 46.512,59.269 46.512,58.711 C46.512,58.153 45.663,57.700 44.616,57.700 C44.616,57.700 41.374,57.700 41.374,57.700 C40.327,57.700 39.477,57.248 39.477,56.690 C39.477,56.132 40.327,55.680 41.374,55.680 C41.374,55.680 54.104,55.680 54.104,55.680 C55.152,55.680 56.001,55.228 56.001,54.670 C56.001,54.112 55.152,53.660 54.104,53.660 C54.104,53.660 53.154,53.660 53.154,53.660 C53.154,53.660 18.752,53.660 18.752,53.660 Z" id="path-1" class="cls-3" fill-rule="evenodd"/>
    <path d="M52.446,59.992 C51.568,59.992 50.856,59.507 50.856,58.909 C50.856,58.311 51.568,57.826 52.446,57.826 C52.446,57.826 57.319,57.826 57.319,57.826 C58.197,57.826 58.909,58.311 58.909,58.909 C58.909,59.507 58.197,59.992 57.319,59.992 C57.319,59.992 52.446,59.992 52.446,59.992 Z" id="path-2" class="cls-3" fill-rule="evenodd"/>
    <path d="M44.951,15.430 C44.951,15.430 10.969,15.430 10.969,15.430 C10.969,15.430 10.969,-0.008 10.969,-0.008 C10.969,-0.008 44.951,-0.008 44.951,-0.008 C44.951,-0.008 44.951,15.430 44.951,15.430 Z" id="path-3" class="cls-5" fill-rule="evenodd"/>
    <path d="M40.341,54.865 C40.341,54.865 15.579,54.865 15.579,54.865 C15.579,54.865 15.579,51.808 15.579,51.808 C15.579,51.808 40.341,51.808 40.341,51.808 C40.341,51.808 40.341,54.865 40.341,54.865 Z" id="path-4" class="cls-6" fill-rule="evenodd"/>
    <path d="M40.341,53.897 C40.341,53.897 15.579,52.980 15.579,52.980 C15.579,52.980 15.579,51.808 15.579,51.808 C15.579,51.808 40.341,51.808 40.341,51.808 C40.341,51.808 40.341,53.897 40.341,53.897 Z" id="path-5" class="cls-7" fill-rule="evenodd"/>
    <path d="M10.969,51.808 C10.969,51.808 44.950,51.808 44.950,51.808 C44.950,51.808 44.950,15.583 44.950,15.583 C44.950,15.583 10.969,15.583 10.969,15.583 C10.969,15.583 10.969,51.808 10.969,51.808 Z" id="path-6" class="cls-5" fill-rule="evenodd"/>
    <path d="M41.282,-0.008 C41.282,-0.008 41.282,15.583 41.282,15.583 C41.282,15.583 44.950,15.583 44.950,15.583 C44.950,15.583 44.950,-0.008 44.950,-0.008 C44.950,-0.008 41.282,-0.008 41.282,-0.008 Z" id="path-7" class="cls-9" fill-rule="evenodd"/>
    <path d="M10.969,15.583 C10.969,15.583 10.969,16.500 10.969,16.500 C10.969,16.500 41.282,18.334 41.282,18.334 C41.282,18.334 41.282,51.808 41.282,51.808 C41.282,51.808 44.950,51.808 44.950,51.808 C44.950,51.808 44.950,15.583 44.950,15.583 C44.950,15.583 10.969,15.583 10.969,15.583 Z" id="path-8" class="cls-9" fill-rule="evenodd"/>
    <path d="M38.647,31.632 C38.647,31.632 36.507,31.632 36.507,31.632 C36.507,31.632 36.507,12.067 36.507,12.067 C36.507,12.067 38.647,12.067 38.647,12.067 C38.647,12.067 38.647,31.632 38.647,31.632 Z" id="path-9" class="cls-11" fill-rule="evenodd"/>
    <path d="M37.730,30.715 C37.730,30.715 35.590,30.715 35.590,30.715 C35.590,30.715 35.590,11.150 35.590,11.150 C35.590,11.150 37.730,11.150 37.730,11.150 C37.730,11.150 37.730,30.715 37.730,30.715 Z" id="path-10" class="cls-12" fill-rule="evenodd"/>
    <path d="M40.341,54.865 C40.341,54.865 15.579,54.865 15.579,54.865 C15.579,54.865 15.579,51.808 15.579,51.808 C15.579,51.808 40.341,51.808 40.341,51.808 C40.341,51.808 40.341,54.865 40.341,54.865 Z" id="path-11" class="cls-6" fill-rule="evenodd"/>
  </g>
</svg>
