<svg xmlns="http://www.w3.org/2000/svg" xmlns:xlink="http://www.w3.org/1999/xlink" preserveAspectRatio="xMidYMid" width="60" height="61" viewBox="0 0 60 61">
  <defs>
    <style>

      .cls-3 {
        fill: #ff3a2f;
      }

      .cls-9 {
        fill: #0cb04a;
      }

      .cls-10 {
        fill: #020403;
        opacity: 0.35;
      }

      .cls-11 {
        fill: #ededed;
      }

      .cls-13 {
        fill: #142a3b;
      }
    </style>
  </defs>
  <g id="group-128svg">
    <path d="M6.250,9.679 C6.250,9.679 6.571,10.422 6.571,10.422 C6.633,10.565 6.858,10.605 7.075,10.511 C7.292,10.418 7.417,10.226 7.356,10.083 C7.356,10.083 7.341,10.048 7.341,10.048 C7.279,9.905 7.405,9.713 7.622,9.619 C7.838,9.526 8.064,9.566 8.126,9.709 C8.126,9.709 8.815,11.305 8.815,11.305 C8.876,11.448 9.102,11.489 9.319,11.395 C9.536,11.301 9.662,11.109 9.600,10.966 C9.600,10.966 8.772,9.049 8.772,9.049 C8.772,9.049 7.081,5.129 7.081,5.129 C7.019,4.986 6.793,4.946 6.577,5.039 C6.360,5.133 6.234,5.324 6.296,5.467 C6.296,5.467 6.487,5.911 6.487,5.911 C6.549,6.054 6.423,6.245 6.206,6.339 C5.989,6.433 5.764,6.392 5.702,6.249 C5.702,6.249 4.792,4.142 4.792,4.142 C4.730,3.999 4.504,3.958 4.288,4.051 C4.071,4.145 3.945,4.337 4.007,4.480 C4.007,4.480 4.222,4.979 4.222,4.979 C4.222,4.979 6.250,9.679 6.250,9.679 Z" id="path-1" class="cls-3" fill-rule="evenodd"/>
    <path d="M10.925,17.074 C11.212,17.738 11.098,18.425 10.672,18.609 C10.245,18.794 9.667,18.404 9.381,17.741 C9.381,17.741 7.792,14.059 7.792,14.059 C7.505,13.395 7.619,12.708 8.045,12.524 C8.472,12.340 9.050,12.729 9.336,13.392 C9.336,13.392 10.925,17.074 10.925,17.074 Z" id="path-2" class="cls-3" fill-rule="evenodd"/>
    <path d="M48.914,7.061 C48.914,7.061 48.525,8.041 48.525,8.041 C48.450,8.230 48.621,8.475 48.907,8.589 C49.193,8.702 49.486,8.641 49.561,8.453 C49.561,8.453 49.579,8.407 49.579,8.407 C49.654,8.218 49.947,8.157 50.233,8.270 C50.519,8.384 50.690,8.629 50.615,8.818 C50.615,8.818 49.779,10.925 49.779,10.925 C49.704,11.114 49.875,11.359 50.161,11.472 C50.447,11.586 50.740,11.525 50.815,11.336 C50.815,11.336 51.820,8.805 51.820,8.805 C51.820,8.805 53.875,3.631 53.875,3.631 C53.950,3.442 53.779,3.197 53.493,3.083 C53.207,2.969 52.914,3.030 52.839,3.220 C52.839,3.220 52.606,3.805 52.606,3.805 C52.532,3.993 52.239,4.054 51.953,3.941 C51.666,3.827 51.495,3.582 51.570,3.393 C51.570,3.393 52.675,0.611 52.675,0.611 C52.750,0.421 52.579,0.176 52.292,0.063 C52.006,-0.050 51.714,0.011 51.639,0.199 C51.639,0.199 51.377,0.857 51.377,0.857 C51.377,0.857 48.914,7.061 48.914,7.061 Z" id="path-3" class="cls-3" fill-rule="evenodd"/>
    <path d="M46.405,18.190 C46.058,19.066 45.319,19.595 44.756,19.371 C44.193,19.148 44.019,18.257 44.367,17.380 C44.367,17.380 46.297,12.520 46.297,12.520 C46.645,11.645 47.383,11.115 47.946,11.339 C48.509,11.562 48.684,12.454 48.335,13.330 C48.335,13.330 46.405,18.190 46.405,18.190 Z" id="path-4" class="cls-3" fill-rule="evenodd"/>
    <path d="M25.612,60.006 C26.328,60.006 26.908,59.756 26.908,59.448 C26.908,59.141 26.328,58.891 25.612,58.891 C25.612,58.891 21.638,58.891 21.638,58.891 C20.921,58.891 20.341,59.141 20.341,59.448 C20.341,59.756 20.921,60.006 21.638,60.006 C21.638,60.006 25.612,60.006 25.612,60.006 Z" id="path-5" class="cls-3" fill-rule="evenodd"/>
    <path d="M48.678,53.726 C48.678,53.726 51.680,53.726 51.680,53.726 C52.259,53.726 52.728,54.084 52.728,54.525 C52.728,54.967 52.259,55.324 51.680,55.324 C51.680,55.324 51.540,55.324 51.540,55.324 C50.961,55.324 50.492,55.682 50.492,56.124 C50.492,56.565 50.961,56.923 51.540,56.923 C51.540,56.923 57.994,56.923 57.994,56.923 C58.572,56.923 59.041,57.281 59.041,57.722 C59.041,58.164 58.572,58.521 57.994,58.521 C57.994,58.521 50.238,58.521 50.238,58.521 C50.238,58.521 34.387,58.521 34.387,58.521 C33.808,58.521 33.339,58.164 33.339,57.722 C33.339,57.281 33.808,56.923 34.387,56.923 C34.387,56.923 36.178,56.923 36.178,56.923 C36.756,56.923 37.226,56.565 37.226,56.124 C37.226,55.682 36.756,55.324 36.178,55.324 C36.178,55.324 27.654,55.324 27.654,55.324 C27.075,55.324 26.606,54.967 26.606,54.525 C26.606,54.084 27.075,53.726 27.654,53.726 C27.654,53.726 29.668,53.726 29.668,53.726 C29.668,53.726 48.678,53.726 48.678,53.726 Z" id="path-6" class="cls-3" fill-rule="evenodd"/>
    <path d="M44.329,54.364 C44.329,54.364 1.614,54.364 1.614,54.364 C0.717,54.364 -0.011,53.636 -0.011,52.739 C-0.011,52.739 -0.011,28.554 -0.011,28.554 C-0.011,27.656 0.717,26.928 1.614,26.928 C1.614,26.928 44.329,26.928 44.329,26.928 C45.227,26.928 45.954,27.656 45.954,28.554 C45.954,28.554 45.954,52.739 45.954,52.739 C45.954,53.636 45.227,54.364 44.329,54.364 Z" id="path-7" class="cls-9" fill-rule="evenodd"/>
    <path d="M44.400,26.928 C44.400,26.928 43.085,26.928 43.085,26.928 C43.085,26.928 43.085,50.897 43.085,50.897 C43.085,51.755 42.389,52.451 41.531,52.451 C41.531,52.451 -0.011,52.451 -0.011,52.451 C-0.011,52.451 -0.011,52.810 -0.011,52.810 C-0.011,53.668 0.685,54.364 1.543,54.364 C1.543,54.364 44.400,54.364 44.400,54.364 C45.258,54.364 45.954,53.668 45.954,52.810 C45.954,52.810 45.954,28.483 45.954,28.483 C45.954,27.624 45.258,26.928 44.400,26.928 Z" id="path-8" class="cls-10" fill-rule="evenodd"/>
    <path d="M38.901,40.377 C38.901,34.204 33.897,29.200 27.724,29.200 C21.550,29.200 16.546,34.204 16.546,40.377 C16.546,46.551 21.550,51.555 27.724,51.555 C33.897,51.555 38.901,46.551 38.901,40.377 Z" id="path-9" class="cls-11" fill-rule="evenodd"/>
    <path d="M27.724,29.140 C27.401,29.140 27.083,29.161 26.767,29.188 C32.492,29.674 36.988,34.467 36.988,40.318 C36.988,46.168 32.492,50.960 26.767,51.447 C27.083,51.473 27.401,51.495 27.724,51.495 C33.897,51.495 38.901,46.490 38.901,40.318 C38.901,34.144 33.897,29.140 27.724,29.140 Z" id="path-10" class="cls-10" fill-rule="evenodd"/>
    <path d="M20.073,40.421 C19.520,40.421 19.073,39.973 19.073,39.421 C19.073,35.445 22.307,32.211 26.282,32.211 C26.834,32.211 27.282,32.659 27.282,33.211 C27.282,33.763 26.834,34.211 26.282,34.211 C23.410,34.211 21.073,36.548 21.073,39.421 C21.073,39.973 20.625,40.421 20.073,40.421 Z" id="path-11" class="cls-13" fill-rule="evenodd"/>
    <path d="M13.750,34.875 C13.750,35.427 13.302,35.875 12.750,35.875 C12.750,35.875 7.750,35.875 7.750,35.875 C7.198,35.875 6.750,35.427 6.750,34.875 C6.750,34.875 6.750,32.875 6.750,32.875 C6.750,32.322 7.198,31.875 7.750,31.875 C7.750,31.875 12.750,31.875 12.750,31.875 C13.302,31.875 13.750,32.322 13.750,32.875 C13.750,32.875 13.750,34.875 13.750,34.875 Z" id="path-12" class="cls-10" fill-rule="evenodd"/>
    <path d="M12.750,33.875 C12.750,34.427 12.302,34.875 11.750,34.875 C11.750,34.875 6.750,34.875 6.750,34.875 C6.198,34.875 5.750,34.427 5.750,33.875 C5.750,33.875 5.750,31.875 5.750,31.875 C5.750,31.323 6.198,30.875 6.750,30.875 C6.750,30.875 11.750,30.875 11.750,30.875 C12.302,30.875 12.750,31.323 12.750,31.875 C12.750,31.875 12.750,33.875 12.750,33.875 Z" id="path-13" class="cls-3" fill-rule="evenodd"/>
    <path d="M38.244,26.875 C38.244,26.875 17.204,26.875 17.204,26.875 C17.204,26.875 18.160,20.875 18.160,20.875 C18.160,20.875 37.287,20.875 37.287,20.875 C37.287,20.875 38.244,26.875 38.244,26.875 Z" id="path-14" class="cls-13" fill-rule="evenodd"/>
    <path d="M37.287,20.875 C37.287,20.875 34.737,20.875 34.737,20.875 C34.737,20.875 34.876,22.028 34.876,22.028 C35.137,23.592 33.931,25.015 32.346,25.015 C32.346,25.015 17.330,26.173 17.330,26.173 C17.330,26.173 17.204,26.928 17.204,26.928 C17.204,26.928 38.244,26.928 38.244,26.928 C38.244,26.928 37.287,20.875 37.287,20.875 Z" id="path-15" class="cls-10" fill-rule="evenodd"/>
    <path d="M12.750,26.875 C12.750,26.875 6.750,26.875 6.750,26.875 C6.750,26.875 6.750,24.875 6.750,24.875 C6.750,24.875 12.750,24.875 12.750,24.875 C12.750,24.875 12.750,26.875 12.750,26.875 Z" id="path-16" class="cls-13" fill-rule="evenodd"/>
  </g>
</svg>
