<svg xmlns="http://www.w3.org/2000/svg" xmlns:xlink="http://www.w3.org/1999/xlink" preserveAspectRatio="xMidYMid" width="61" height="46" viewBox="0 0 61 46">
  <defs>
    <style>

      .cls-3 {
        fill: #2476ff;
      }

      .cls-7 {
        fill: #fbb713;
      }

      .cls-8 {
        fill: #ffffff;
      }

      .cls-11 {
        fill: #020403;
        opacity: 0.25;
      }

      .cls-12 {
        fill: #020403;
        opacity: 0.35;
      }

      .cls-14 {
        fill: #020403;
      }

      .cls-15 {
        fill: #ff3a2f;
      }
    </style>
  </defs>
  <g id="group-152svg">
    <path d="M35.589,41.180 C35.589,41.180 38.251,41.180 38.251,41.180 C38.765,41.180 39.181,41.534 39.181,41.971 C39.181,42.406 38.765,42.759 38.251,42.759 C38.251,42.759 38.128,42.759 38.128,42.759 C37.614,42.759 37.198,43.113 37.198,43.550 C37.198,43.986 37.614,44.339 38.128,44.339 C38.128,44.339 43.850,44.339 43.850,44.339 C44.364,44.339 44.780,44.693 44.780,45.129 C44.780,45.565 44.364,45.919 43.850,45.919 C43.850,45.919 36.973,45.919 36.973,45.919 C36.973,45.919 29.413,45.919 29.413,45.919 C28.900,45.919 28.484,45.565 28.484,45.129 C28.484,44.693 28.900,44.339 29.413,44.339 C29.413,44.339 31.002,44.339 31.002,44.339 C31.515,44.339 31.932,43.986 31.932,43.550 C31.932,43.113 31.515,42.759 31.002,42.759 C31.002,42.759 23.442,42.759 23.442,42.759 C22.929,42.759 22.513,42.406 22.513,41.971 C22.513,41.534 22.929,41.180 23.442,41.180 C23.442,41.180 25.228,41.180 25.228,41.180 C25.228,41.180 35.589,41.180 35.589,41.180 Z" id="path-1" class="cls-3" fill-rule="evenodd"/>
    <path d="M49.704,6.351 C49.704,6.351 52.683,6.351 52.683,6.351 C53.257,6.351 53.723,6.787 53.723,7.325 C53.723,7.863 53.257,8.299 52.683,8.299 C52.683,8.299 52.544,8.299 52.544,8.299 C51.970,8.299 51.504,8.734 51.504,9.272 C51.504,9.810 51.970,10.246 52.544,10.246 C52.544,10.246 58.947,10.246 58.947,10.246 C59.521,10.246 59.987,10.681 59.987,11.220 C59.987,11.757 59.521,12.193 58.947,12.193 C58.947,12.193 51.252,12.193 51.252,12.193 C51.252,12.193 42.794,12.193 42.794,12.193 C42.220,12.193 41.755,11.757 41.755,11.220 C41.755,10.681 42.220,10.246 42.794,10.246 C42.794,10.246 44.571,10.246 44.571,10.246 C45.145,10.246 45.611,9.810 45.611,9.272 C45.611,8.734 45.145,8.299 44.571,8.299 C44.571,8.299 36.113,8.299 36.113,8.299 C35.539,8.299 35.074,7.863 35.074,7.325 C35.074,6.787 35.539,6.351 36.113,6.351 C36.113,6.351 38.112,6.351 38.112,6.351 C38.112,6.351 49.704,6.351 49.704,6.351 Z" id="path-2" class="cls-3" fill-rule="evenodd"/>
    <path d="M10.018,0.015 C10.018,0.015 11.581,0.015 11.581,0.015 C11.883,0.015 12.127,0.239 12.127,0.516 C12.127,0.793 11.883,1.017 11.581,1.017 C11.581,1.017 11.509,1.017 11.509,1.017 C11.207,1.017 10.963,1.242 10.963,1.519 C10.963,1.796 11.207,2.020 11.509,2.020 C11.509,2.020 14.868,2.020 14.868,2.020 C15.170,2.020 15.414,2.244 15.414,2.521 C15.414,2.798 15.170,3.022 14.868,3.022 C14.868,3.022 10.830,3.022 10.830,3.022 C10.830,3.022 6.393,3.022 6.393,3.022 C6.091,3.022 5.847,2.798 5.847,2.521 C5.847,2.244 6.091,2.020 6.393,2.020 C6.393,2.020 7.325,2.020 7.325,2.020 C7.627,2.020 7.871,1.796 7.871,1.519 C7.871,1.242 7.627,1.017 7.325,1.017 C7.325,1.017 2.887,1.017 2.887,1.017 C2.586,1.017 2.342,0.793 2.342,0.516 C2.342,0.239 2.586,0.015 2.887,0.015 C2.887,0.015 3.936,0.015 3.936,0.015 C3.936,0.015 10.018,0.015 10.018,0.015 Z" id="path-3" class="cls-3" fill-rule="evenodd"/>
    <path d="M7.039,27.715 C7.997,27.715 8.773,27.235 8.773,26.645 C8.773,26.054 7.997,25.575 7.039,25.575 C7.039,25.575 1.722,25.575 1.722,25.575 C0.764,25.575 -0.013,26.054 -0.013,26.645 C-0.013,27.235 0.764,27.715 1.722,27.715 C1.722,27.715 7.039,27.715 7.039,27.715 Z" id="path-4" class="cls-3" fill-rule="evenodd"/>
    <path d="M30.343,26.806 C30.343,26.806 46.463,25.780 46.463,25.780 C46.788,24.484 46.970,23.130 46.970,21.733 C46.970,12.550 39.525,5.106 30.343,5.106 C21.160,5.106 13.717,12.550 13.717,21.733 C13.717,23.130 13.898,24.484 14.224,25.780 C14.224,25.780 30.343,26.806 30.343,26.806 Z" id="path-5" class="cls-7" fill-rule="evenodd"/>
    <path d="M17.203,20.408 C17.118,20.408 17.031,20.398 16.945,20.375 C16.412,20.233 16.094,19.686 16.235,19.152 C17.673,13.739 21.650,9.293 26.877,7.257 C27.392,7.057 27.971,7.310 28.172,7.825 C28.372,8.340 28.118,8.920 27.603,9.120 C22.970,10.925 19.442,14.868 18.169,19.665 C18.050,20.113 17.645,20.408 17.203,20.408 Z" id="path-6" class="cls-8" fill-rule="evenodd"/>
    <path d="M31.812,39.401 C44.991,38.743 57.206,36.018 57.206,36.018 C55.756,30.169 46.686,25.767 46.686,25.767 C46.686,25.767 30.343,26.806 30.343,26.806 C30.343,26.806 14.000,25.767 14.000,25.767 C14.000,25.767 4.931,30.169 3.479,36.018 C3.479,36.018 15.695,38.743 28.873,39.401 C28.873,39.401 29.853,39.485 30.343,39.467 C30.832,39.485 31.812,39.401 31.812,39.401 Z" id="path-7" class="cls-3" fill-rule="evenodd"/>
    <path d="M8.129,34.592 C7.919,34.592 7.707,34.526 7.526,34.390 C7.086,34.056 6.999,33.428 7.333,32.988 C9.260,30.442 12.126,28.398 14.192,27.132 C14.663,26.842 15.279,26.990 15.567,27.462 C15.856,27.932 15.708,28.548 15.237,28.837 C13.318,30.014 10.666,31.898 8.927,34.195 C8.730,34.455 8.432,34.592 8.129,34.592 Z" id="path-8" class="cls-8" fill-rule="evenodd"/>
    <path d="M30.343,5.106 C29.693,5.106 29.055,5.153 28.425,5.225 C34.692,7.607 39.155,13.653 39.155,20.756 C39.155,22.154 38.973,23.506 38.647,24.804 C38.647,24.804 22.528,25.830 22.528,25.830 C22.528,25.830 14.117,25.294 14.117,25.294 C14.152,25.456 14.184,25.620 14.224,25.780 C14.224,25.780 30.343,26.806 30.343,26.806 C30.343,26.806 46.463,25.780 46.463,25.780 C46.788,24.484 46.970,23.130 46.970,21.733 C46.970,12.550 39.525,5.106 30.343,5.106 Z" id="path-9" class="cls-11" fill-rule="evenodd"/>
    <path d="M46.686,25.767 C46.686,25.767 35.896,26.453 35.896,26.453 C38.685,28.251 42.617,31.358 43.530,35.042 C43.530,35.042 31.315,37.766 18.137,38.425 C18.137,38.425 18.087,38.429 18.013,38.434 C21.376,38.851 25.084,39.212 28.873,39.401 C28.873,39.401 29.853,39.485 30.343,39.467 C30.832,39.485 31.812,39.401 31.812,39.401 C44.991,38.743 57.206,36.018 57.206,36.018 C55.755,30.169 46.686,25.767 46.686,25.767 Z" id="path-10" class="cls-12" fill-rule="evenodd"/>
    <path d="M49.607,27.452 C47.949,26.380 46.686,25.767 46.686,25.767 C46.686,25.767 45.993,25.810 45.993,25.810 C45.993,25.810 45.993,37.991 45.993,37.991 C46.082,37.978 46.170,37.966 46.258,37.953 C46.258,37.953 48.098,32.004 48.098,32.004 C48.098,32.004 49.607,37.407 49.607,37.407 C49.607,37.407 49.607,27.452 49.607,27.452 Z" id="path-11" class="cls-12" fill-rule="evenodd"/>
    <path d="M39.607,25.513 C37.537,25.957 36.219,27.997 36.663,30.068 C37.108,32.138 39.148,33.457 41.219,33.012 C43.290,32.567 45.340,28.204 45.340,28.204 C45.340,28.204 41.679,25.067 39.607,25.513 ZM41.094,30.790 C40.211,30.979 39.341,30.417 39.150,29.533 C38.961,28.650 39.523,27.779 40.407,27.589 C41.291,27.400 42.853,28.738 42.853,28.738 C42.853,28.738 41.978,30.599 41.094,30.790 Z" id="path-12" class="cls-14" fill-rule="evenodd"/>
    <path d="M51.987,21.374 C50.953,19.525 48.615,18.866 46.767,19.901 C44.919,20.935 44.244,25.709 44.244,25.709 C44.244,25.709 48.667,27.629 50.516,26.594 C52.363,25.559 53.022,23.222 51.987,21.374 ZM49.416,25.195 C48.414,25.755 46.019,24.716 46.019,24.716 C46.019,24.716 46.385,22.130 47.386,21.569 C48.387,21.008 49.652,21.365 50.214,22.367 C50.773,23.368 50.417,24.634 49.416,25.195 Z" id="path-13" class="cls-15" fill-rule="evenodd"/>
    <path d="M39.607,22.582 C37.537,23.026 36.219,25.066 36.663,27.137 C37.108,29.208 39.148,30.526 41.219,30.082 C43.290,29.637 45.340,25.273 45.340,25.273 C45.340,25.273 41.679,22.137 39.607,22.582 ZM41.094,27.859 C40.211,28.049 39.341,27.486 39.150,26.603 C38.961,25.720 39.523,24.849 40.407,24.659 C41.291,24.469 42.853,25.808 42.853,25.808 C42.853,25.808 41.978,27.669 41.094,27.859 Z" id="path-14" class="cls-15" fill-rule="evenodd"/>
    <path d="M47.653,25.376 C47.653,25.376 47.653,38.384 47.653,38.384 C47.653,38.384 46.145,32.981 46.145,32.981 C46.145,32.981 44.039,39.785 44.039,39.785 C44.039,39.785 44.039,25.376 44.039,25.376 C44.039,25.376 47.653,25.376 47.653,25.376 Z" id="path-15" class="cls-15" fill-rule="evenodd"/>
  </g>
</svg>
