<svg xmlns="http://www.w3.org/2000/svg" xmlns:xlink="http://www.w3.org/1999/xlink" preserveAspectRatio="xMidYMid" width="61" height="39" viewBox="0 0 61 39">
  <defs>
    <style>

      .cls-3 {
        fill: #fbb713;
      }

      .cls-6 {
        fill: #ff3a2f;
      }

      .cls-7 {
        fill: #090908;
        opacity: 0.35;
      }

      .cls-10 {
        fill: #a72720;
      }

      .cls-11 {
        fill: #142a3b;
      }
    </style>
  </defs>
  <g id="group-211svg">
    <path d="M15.621,30.902 C15.621,30.902 11.092,30.902 11.092,30.902 C10.219,30.902 9.512,31.418 9.512,32.054 C9.512,32.691 10.219,33.207 11.092,33.207 C11.092,33.207 11.303,33.207 11.303,33.207 C12.176,33.207 12.884,33.723 12.884,34.359 C12.884,34.996 12.176,35.512 11.303,35.512 C11.303,35.512 1.568,35.512 1.568,35.512 C0.695,35.512 -0.013,36.028 -0.013,36.664 C-0.013,37.301 0.695,37.817 1.568,37.817 C1.568,37.817 13.267,37.817 13.267,37.817 C13.267,37.817 37.179,37.817 37.179,37.817 C38.052,37.817 38.760,37.301 38.760,36.664 C38.760,36.028 38.052,35.512 37.179,35.512 C37.179,35.512 34.478,35.512 34.478,35.512 C33.604,35.512 32.896,34.996 32.896,34.359 C32.896,33.723 33.604,33.207 34.478,33.207 C34.478,33.207 45.088,33.207 45.088,33.207 C45.962,33.207 46.669,32.691 46.669,32.054 C46.669,31.418 45.962,30.902 45.088,30.902 C45.088,30.902 44.297,30.902 44.297,30.902 C44.297,30.902 15.621,30.902 15.621,30.902 Z" id="path-1" class="cls-3" fill-rule="evenodd"/>
    <path d="M43.457,37.921 C42.842,37.921 42.344,37.556 42.344,37.105 C42.344,36.655 42.842,36.290 43.457,36.290 C43.457,36.290 46.870,36.290 46.870,36.290 C47.485,36.290 47.983,36.655 47.983,37.105 C47.983,37.556 47.485,37.921 46.870,37.921 C46.870,37.921 43.457,37.921 43.457,37.921 Z" id="path-2" class="cls-3" fill-rule="evenodd"/>
    <path d="M3.475,33.507 C2.859,33.507 2.361,33.142 2.361,32.692 C2.361,32.242 2.859,31.877 3.475,31.877 C3.475,31.877 6.888,31.877 6.888,31.877 C7.503,31.877 8.001,32.242 8.001,32.692 C8.001,33.142 7.503,33.507 6.888,33.507 C6.888,33.507 3.475,33.507 3.475,33.507 Z" id="path-3" class="cls-3" fill-rule="evenodd"/>
    <path d="M21.871,-0.013 C18.099,-0.013 15.029,3.055 15.029,6.828 C15.029,9.812 16.933,12.378 19.687,13.295 C19.687,13.295 15.617,26.509 15.617,26.509 C14.510,30.112 16.539,33.949 20.145,35.059 C20.800,35.260 21.477,35.364 22.159,35.364 C25.181,35.364 27.808,33.423 28.697,30.535 C28.697,30.535 31.491,21.459 31.491,21.459 C31.543,21.465 31.591,21.488 31.644,21.488 C31.644,21.488 34.548,21.488 34.548,21.488 C34.966,21.488 35.336,21.223 35.472,20.829 C35.472,20.829 37.932,13.669 37.932,13.669 C37.932,13.669 43.870,13.669 43.870,13.669 C43.870,13.669 43.870,-0.013 43.870,-0.013 C43.870,-0.013 21.871,-0.013 21.871,-0.013 ZM33.851,19.533 C33.851,19.533 32.083,19.533 32.083,19.533 C32.083,19.533 33.490,14.963 33.490,14.963 C33.728,14.189 34.432,13.669 35.242,13.669 C35.242,13.669 35.867,13.669 35.867,13.669 C35.867,13.669 33.851,19.533 33.851,19.533 Z" id="path-4" class="cls-6" fill-rule="evenodd"/>
    <path d="M22.977,33.729 C22.295,33.729 21.617,33.626 20.963,33.425 C17.356,32.314 15.327,28.477 16.434,24.874 C16.434,24.874 20.505,11.660 20.505,11.660 C17.750,10.743 15.847,8.177 15.847,5.193 C15.847,4.415 15.983,3.670 16.225,2.972 C15.472,4.071 15.029,5.398 15.029,6.828 C15.029,9.812 16.933,12.378 19.687,13.295 C19.687,13.295 15.617,26.509 15.617,26.509 C14.510,30.112 16.539,33.949 20.145,35.059 C20.800,35.260 21.477,35.363 22.159,35.363 C25.094,35.363 27.642,33.526 28.601,30.774 C27.352,32.593 25.283,33.729 22.977,33.729 Z" id="path-5" class="cls-7" fill-rule="evenodd"/>
    <path d="M34.668,17.899 C34.668,17.899 36.685,12.035 36.685,12.035 C36.685,12.035 36.060,12.035 36.060,12.035 C35.249,12.035 34.546,12.554 34.308,13.329 C34.308,13.329 34.071,14.096 34.071,14.096 C34.392,13.829 34.799,13.669 35.242,13.669 C35.242,13.669 35.867,13.669 35.867,13.669 C35.867,13.669 34.413,17.899 34.413,17.899 C34.413,17.899 34.668,17.899 34.668,17.899 Z" id="path-6" class="cls-7" fill-rule="evenodd"/>
    <path d="M35.365,19.853 C35.365,19.853 32.462,19.853 32.462,19.853 C32.408,19.853 32.360,19.831 32.309,19.824 C32.309,19.824 31.797,21.488 31.797,21.488 C31.797,21.488 34.548,21.488 34.548,21.488 C34.966,21.488 35.336,21.223 35.472,20.829 C35.472,20.829 35.855,19.710 35.855,19.710 C35.709,19.797 35.544,19.853 35.365,19.853 Z" id="path-7" class="cls-7" fill-rule="evenodd"/>
    <path d="M38.750,12.035 C38.750,12.035 38.187,13.669 38.187,13.669 C38.187,13.669 43.870,13.669 43.870,13.669 C43.870,13.669 43.870,12.035 43.870,12.035 C43.870,12.035 38.750,12.035 38.750,12.035 Z" id="path-8" class="cls-10" fill-rule="evenodd"/>
    <path d="M59.010,5.850 C59.010,5.850 50.114,5.850 50.114,5.850 C49.638,2.545 46.812,-0.013 43.372,-0.013 C43.372,-0.013 43.372,13.669 43.372,13.669 C46.812,13.669 49.638,11.111 50.114,7.806 C50.114,7.806 59.010,7.806 59.010,7.806 C59.552,7.806 59.987,7.369 59.987,6.828 C59.987,6.288 59.552,5.850 59.010,5.850 Z" id="path-9" class="cls-11" fill-rule="evenodd"/>
    <path d="M59.515,6.010 C59.365,6.104 59.199,6.171 59.010,6.171 C59.010,6.171 50.114,6.171 50.114,6.171 C49.638,9.476 46.812,12.035 43.372,12.035 C43.372,12.035 43.372,13.670 43.372,13.670 C46.812,13.670 49.638,11.111 50.114,7.806 C50.114,7.806 59.010,7.806 59.010,7.806 C59.552,7.806 59.987,7.369 59.987,6.828 C59.987,6.476 59.793,6.183 59.515,6.010 Z" id="path-10" class="cls-7" fill-rule="evenodd"/>
    <path d="M25.780,9.760 C25.780,9.760 23.825,9.760 23.825,9.760 C23.287,9.760 22.848,9.324 22.848,8.783 C22.848,8.242 23.287,7.806 23.825,7.806 C23.825,7.806 25.780,7.806 25.780,7.806 C26.322,7.806 26.758,8.242 26.758,8.783 C26.758,9.324 26.322,9.760 25.780,9.760 Z" id="path-11" class="cls-11" fill-rule="evenodd"/>
    <path d="M25.780,5.850 C25.780,5.850 23.825,5.850 23.825,5.850 C23.287,5.850 22.848,5.415 22.848,4.873 C22.848,4.333 23.287,3.896 23.825,3.896 C23.825,3.896 25.780,3.896 25.780,3.896 C26.322,3.896 26.758,4.333 26.758,4.873 C26.758,5.415 26.322,5.850 25.780,5.850 Z" id="path-12" class="cls-11" fill-rule="evenodd"/>
  </g>
</svg>
