<svg xmlns="http://www.w3.org/2000/svg" xmlns:xlink="http://www.w3.org/1999/xlink" preserveAspectRatio="xMidYMid" width="60" height="61" viewBox="0 0 60 61">
  <defs>
    <style>

      .cls-3 {
        fill: #2476ff;
      }

      .cls-4 {
        fill: #ff3a2f;
      }

      .cls-5 {
        fill: #fccb56;
      }

      .cls-6 {
        fill: #fbb713;
      }

      .cls-7 {
        fill: #ffffff;
      }

      .cls-8 {
        fill: #000000;
        opacity: 0.35;
      }

      .cls-9 {
        fill: #000000;
        opacity: 0.25;
      }

      .cls-18 {
        fill: #060606;
        opacity: 0.35;
      }
    </style>
  </defs>
  <g id="group-1svg">
    <path d="M51.007,46.761 C51.007,46.761 53.617,46.761 53.617,46.761 C54.120,46.761 54.527,47.242 54.527,47.835 C54.527,48.428 54.120,48.908 53.617,48.908 C53.617,48.908 53.495,48.908 53.495,48.908 C52.992,48.908 52.584,49.388 52.584,49.981 C52.584,50.574 52.992,51.055 53.495,51.055 C53.495,51.055 59.104,51.055 59.104,51.055 C59.607,51.055 60.016,51.535 60.016,52.127 C60.016,52.719 59.607,53.201 59.104,53.201 C59.104,53.201 52.363,53.201 52.363,53.201 C52.363,53.201 44.955,53.201 44.955,53.201 C44.451,53.201 44.043,52.719 44.043,52.127 C44.043,51.535 44.451,51.055 44.955,51.055 C44.955,51.055 46.511,51.055 46.511,51.055 C47.014,51.055 47.422,50.574 47.422,49.981 C47.422,49.388 47.014,48.908 46.511,48.908 C46.511,48.908 39.102,48.908 39.102,48.908 C38.599,48.908 38.191,48.428 38.191,47.835 C38.191,47.242 38.599,46.761 39.102,46.761 C39.102,46.761 40.853,46.761 40.853,46.761 C40.853,46.761 51.007,46.761 51.007,46.761 Z" id="path-1" class="cls-3" fill-rule="evenodd"/>
    <path d="M31.844,60.046 C33.247,60.046 34.385,59.326 34.385,58.436 C34.385,57.547 33.247,56.826 31.844,56.826 C31.844,56.826 24.058,56.826 24.058,56.826 C22.655,56.826 21.517,57.547 21.517,58.436 C21.517,59.326 22.655,60.046 24.058,60.046 C24.058,60.046 31.844,60.046 31.844,60.046 Z" id="path-2" class="cls-4" fill-rule="evenodd"/>
    <path d="M52.970,32.003 C52.970,41.221 45.497,48.693 36.280,48.693 C27.062,48.693 19.590,41.221 19.590,32.003 C19.590,22.785 27.062,15.313 36.280,15.313 C45.497,15.313 52.970,22.785 52.970,32.003 Z" id="path-3" class="cls-5" fill-rule="evenodd"/>
    <path d="M48.440,32.003 C48.440,38.719 42.996,44.163 36.280,44.163 C29.564,44.163 24.121,38.719 24.121,32.003 C24.121,25.288 29.564,19.844 36.280,19.844 C42.996,19.844 48.440,25.288 48.440,32.003 Z" id="path-4" class="cls-6" fill-rule="evenodd"/>
    <path d="M36.280,41.884 C35.728,41.884 35.280,41.436 35.280,40.884 C35.280,40.332 35.728,39.884 36.280,39.884 C40.625,39.884 44.161,36.348 44.161,32.003 C44.161,31.451 44.609,31.003 45.161,31.003 C45.713,31.003 46.161,31.451 46.161,32.003 C46.161,37.451 41.728,41.884 36.280,41.884 Z" id="path-5" class="cls-7" fill-rule="evenodd"/>
    <path d="M28.222,41.092 C26.318,38.946 25.152,36.130 25.152,33.035 C25.152,26.319 30.596,20.875 37.311,20.875 C40.407,20.875 43.223,22.041 45.370,23.945 C43.142,21.435 39.900,19.844 36.280,19.844 C29.564,19.844 24.121,25.288 24.121,32.003 C24.121,35.624 25.711,38.865 28.222,41.092 Z" id="path-6" class="cls-8" fill-rule="evenodd"/>
    <path d="M27.820,46.372 C29.172,47.170 30.644,47.778 32.206,48.171 C32.206,48.171 32.206,15.835 32.206,15.835 C30.644,16.228 29.172,16.836 27.820,17.634 C27.820,17.634 27.820,46.372 27.820,46.372 Z" id="path-7" class="cls-9" fill-rule="evenodd"/>
    <path d="M14.881,11.151 C14.881,11.151 13.136,11.151 13.136,11.151 C12.405,11.151 11.813,10.559 11.813,9.828 C11.813,9.828 11.813,3.693 11.813,3.693 C11.813,2.963 12.405,2.371 13.136,2.371 C13.136,2.371 14.881,2.371 14.881,2.371 C15.611,2.371 16.204,2.963 16.204,3.693 C16.204,3.693 16.204,9.828 16.204,9.828 C16.204,10.559 15.611,11.151 14.881,11.151 Z" id="path-8" class="cls-3" fill-rule="evenodd"/>
    <path d="M19.134,16.823 C19.134,16.823 8.883,16.823 8.883,16.823 C8.153,16.823 7.560,16.231 7.560,15.501 C7.560,15.501 7.560,11.286 7.560,11.286 C7.560,10.555 8.153,9.964 8.883,9.964 C8.883,9.964 19.134,9.964 19.134,9.964 C19.864,9.964 20.456,10.555 20.456,11.286 C20.456,11.286 20.456,15.501 20.456,15.501 C20.456,16.231 19.864,16.823 19.134,16.823 Z" id="path-9" class="cls-4" fill-rule="evenodd"/>
    <path d="M26.679,53.409 C26.679,53.409 1.337,53.409 1.337,53.409 C0.607,53.409 0.016,52.817 0.016,52.087 C0.016,52.087 0.016,15.771 0.016,15.771 C0.016,15.040 0.607,14.448 1.337,14.448 C1.337,14.448 26.679,14.448 26.679,14.448 C27.409,14.448 28.001,15.040 28.001,15.771 C28.001,15.771 28.001,52.087 28.001,52.087 C28.001,52.817 27.409,53.409 26.679,53.409 Z" id="path-10" class="cls-3" fill-rule="evenodd"/>
    <path d="M25.315,4.746 C25.315,4.746 9.286,4.746 9.286,4.746 C8.485,4.746 7.835,4.096 7.835,3.294 C7.835,3.294 7.835,1.436 7.835,1.436 C7.835,0.568 8.591,-0.106 9.453,-0.006 C9.453,-0.006 25.483,1.853 25.483,1.853 C26.215,1.938 26.767,2.558 26.767,3.294 C26.767,3.294 26.767,3.294 26.767,3.294 C26.767,4.096 26.117,4.746 25.315,4.746 Z" id="path-11" class="cls-3" fill-rule="evenodd"/>
    <path d="M25.951,25.100 C25.951,25.100 19.915,25.100 19.915,25.100 C19.639,25.100 19.415,24.876 19.415,24.600 C19.415,24.324 19.639,24.100 19.915,24.100 C19.915,24.100 25.951,24.100 25.951,24.100 C26.227,24.100 26.451,24.324 26.451,24.600 C26.451,24.876 26.227,25.100 25.951,25.100 Z" id="path-12" class="cls-7" fill-rule="evenodd"/>
    <path d="M25.951,36.075 C25.951,36.075 19.915,36.075 19.915,36.075 C19.639,36.075 19.415,35.851 19.415,35.575 C19.415,35.299 19.639,35.075 19.915,35.075 C19.915,35.075 25.951,35.075 25.951,35.075 C26.227,35.075 26.451,35.299 26.451,35.575 C26.451,35.851 26.227,36.075 25.951,36.075 Z" id="path-13" class="cls-7" fill-rule="evenodd"/>
    <path d="M25.951,47.050 C25.951,47.050 19.915,47.050 19.915,47.050 C19.639,47.050 19.415,46.826 19.415,46.550 C19.415,46.274 19.639,46.050 19.915,46.050 C19.915,46.050 25.951,46.050 25.951,46.050 C26.227,46.050 26.451,46.274 26.451,46.550 C26.451,46.826 26.227,47.050 25.951,47.050 Z" id="path-14" class="cls-7" fill-rule="evenodd"/>
    <path d="M5.125,48.506 C4.573,48.506 4.125,48.058 4.125,47.506 C4.125,47.506 4.125,25.093 4.125,25.093 C4.125,24.541 4.573,24.093 5.125,24.093 C5.677,24.093 6.125,24.541 6.125,25.093 C6.125,25.093 6.125,47.506 6.125,47.506 C6.125,48.058 5.677,48.506 5.125,48.506 Z" id="path-15" class="cls-7" fill-rule="evenodd"/>
    <path d="M16.204,7.432 C16.204,7.432 16.204,4.903 16.204,4.903 C16.204,4.903 11.813,4.903 11.813,4.903 C11.813,4.903 11.813,6.245 11.813,6.245 C11.813,6.245 16.204,7.432 16.204,7.432 Z" id="path-16" class="cls-18" fill-rule="evenodd"/>
  </g>
</svg>
