<svg xmlns="http://www.w3.org/2000/svg" xmlns:xlink="http://www.w3.org/1999/xlink" preserveAspectRatio="xMidYMid" width="62" height="56" viewBox="0 0 62 56">
  <defs>
    <style>

      .cls-3 {
        fill: #ff3a2f;
      }

      .cls-4 {
        fill: #020403;
        opacity: 0.35;
      }

      .cls-5 {
        fill: #142a3b;
      }

      .cls-6 {
        fill: #ffe56d;
      }

      .cls-11 {
        fill: #2476ff;
      }
    </style>
  </defs>
  <g id="group-79svg">
    <path d="M56.657,48.485 C56.657,48.485 5.741,48.485 5.741,48.485 C5.741,48.485 5.741,15.883 5.741,15.883 C5.741,15.883 56.657,15.883 56.657,15.883 C56.657,15.883 56.657,48.485 56.657,48.485 Z" id="path-1" class="cls-3" fill-rule="evenodd"/>
    <path d="M56.657,45.485 C56.657,45.485 5.741,45.485 5.741,45.485 C5.741,45.485 5.741,48.485 5.741,48.485 C5.741,48.485 56.657,48.485 56.657,48.485 C56.657,48.485 56.657,45.485 56.657,45.485 Z" id="path-2" class="cls-4" fill-rule="evenodd"/>
    <path d="M46.985,42.292 C46.985,42.292 15.414,42.292 15.414,42.292 C15.414,42.292 15.414,22.077 15.414,22.077 C15.414,22.077 46.985,22.077 46.985,22.077 C46.985,22.077 46.985,42.292 46.985,42.292 Z" id="path-3" class="cls-5" fill-rule="evenodd"/>
    <path d="M27.675,36.685 C27.675,36.685 23.939,35.049 27.675,28.952 C27.675,28.952 28.028,31.331 28.753,31.926 C28.753,31.926 29.850,28.952 31.225,28.952 C31.225,28.952 32.185,29.250 31.352,26.573 C31.352,26.573 32.459,27.168 32.900,29.399 C32.900,29.399 33.202,30.142 32.900,31.629 C32.900,31.629 34.877,30.737 34.853,28.209 C34.853,28.209 38.297,32.670 34.853,36.685 C32.611,38.153 30.221,38.176 27.675,36.685 Z" id="path-4" class="cls-6" fill-rule="evenodd"/>
    <path d="M29.080,37.891 C29.080,37.891 26.833,36.907 29.080,33.240 C29.080,33.240 29.292,34.671 29.728,35.029 C29.728,35.029 30.388,33.240 31.215,33.240 C31.215,33.240 31.793,33.420 31.291,31.810 C31.291,31.810 31.957,32.167 32.223,33.509 C32.223,33.509 32.403,33.956 32.223,34.851 C32.223,34.851 33.411,34.314 33.397,32.793 C33.397,32.793 35.468,35.476 33.397,37.891 C32.049,38.775 30.610,38.788 29.080,37.891 Z" id="path-5" class="cls-3" fill-rule="evenodd"/>
    <path d="M56.657,9.818 C56.657,9.818 15.414,9.818 15.414,9.818 C15.414,9.818 15.414,7.751 15.414,7.751 C15.414,7.751 56.657,7.751 56.657,7.751 C56.657,7.751 56.657,9.818 56.657,9.818 Z" id="path-6" class="cls-5" fill-rule="evenodd"/>
    <path d="M16.055,7.025 C13.630,6.204 10.865,5.405 9.286,5.405 C6.040,5.405 3.408,6.918 3.408,8.784 C3.408,10.651 6.040,12.164 9.286,12.164 C10.865,12.164 13.630,11.365 16.055,10.544 C16.055,10.544 16.055,7.025 16.055,7.025 Z" id="path-7" class="cls-3" fill-rule="evenodd"/>
    <path d="M3.670,7.784 C3.500,8.100 3.408,8.436 3.408,8.784 C3.408,10.651 6.040,12.164 9.286,12.164 C10.865,12.164 13.630,11.365 16.055,10.544 C16.055,10.544 16.055,8.544 16.055,8.544 C13.630,9.365 10.865,10.164 9.286,10.164 C6.645,10.164 4.412,9.162 3.670,7.784 Z" id="path-8" class="cls-4" fill-rule="evenodd"/>
    <path d="M50.225,-0.002 C50.225,-0.002 52.641,-0.002 52.641,-0.002 C53.106,-0.002 53.483,0.207 53.483,0.466 C53.483,0.725 53.106,0.935 52.641,0.935 C52.641,0.935 52.527,0.935 52.527,0.935 C52.062,0.935 51.685,1.145 51.685,1.403 C51.685,1.662 52.062,1.872 52.527,1.872 C52.527,1.872 56.047,1.872 56.047,1.872 C56.513,1.872 56.890,2.082 56.890,2.341 C56.890,2.599 56.513,2.809 56.047,2.809 C56.047,2.809 51.480,2.809 51.480,2.809 C51.480,2.809 44.620,2.809 44.620,2.809 C44.154,2.809 43.776,2.599 43.776,2.341 C43.776,2.082 44.154,1.872 44.620,1.872 C44.620,1.872 46.062,1.872 46.062,1.872 C46.527,1.872 46.905,1.662 46.905,1.403 C46.905,1.145 46.527,0.935 46.062,0.935 C46.062,0.935 39.201,0.935 39.201,0.935 C38.735,0.935 38.358,0.725 38.358,0.466 C38.358,0.207 38.735,-0.002 39.201,-0.002 C39.201,-0.002 40.822,-0.002 40.822,-0.002 C40.822,-0.002 50.225,-0.002 50.225,-0.002 Z" id="path-9" class="cls-11" fill-rule="evenodd"/>
    <path d="M58.021,52.343 C58.021,52.343 59.072,52.343 59.072,52.343 C59.275,52.343 59.439,52.553 59.439,52.812 C59.439,53.071 59.275,53.281 59.072,53.281 C59.072,53.281 59.023,53.281 59.023,53.281 C58.821,53.281 58.657,53.490 58.657,53.749 C58.657,54.008 58.821,54.218 59.023,54.218 C59.023,54.218 60.555,54.218 60.555,54.218 C60.758,54.218 60.922,54.428 60.922,54.686 C60.922,54.945 60.758,55.155 60.555,55.155 C60.555,55.155 58.568,55.155 58.568,55.155 C58.568,55.155 55.583,55.155 55.583,55.155 C55.380,55.155 55.216,54.945 55.216,54.686 C55.216,54.428 55.380,54.218 55.583,54.218 C55.583,54.218 56.210,54.218 56.210,54.218 C56.413,54.218 56.577,54.008 56.577,53.749 C56.577,53.490 56.413,53.281 56.210,53.281 C56.210,53.281 53.225,53.281 53.225,53.281 C53.022,53.281 52.858,53.071 52.858,52.812 C52.858,52.553 53.022,52.343 53.225,52.343 C53.225,52.343 53.931,52.343 53.931,52.343 C53.931,52.343 58.021,52.343 58.021,52.343 Z" id="path-10" class="cls-11" fill-rule="evenodd"/>
    <path d="M16.787,51.866 C16.787,51.866 20.207,51.866 20.207,51.866 C20.866,51.866 21.400,52.147 21.400,52.494 C21.400,52.840 20.866,53.121 20.207,53.121 C20.207,53.121 20.048,53.121 20.048,53.121 C19.389,53.121 18.854,53.401 18.854,53.749 C18.854,54.095 19.389,54.376 20.048,54.376 C20.048,54.376 25.027,54.376 25.027,54.376 C25.686,54.376 26.222,54.657 26.222,55.004 C26.222,55.350 25.686,55.631 25.027,55.631 C25.027,55.631 18.564,55.631 18.564,55.631 C18.564,55.631 8.856,55.631 8.856,55.631 C8.197,55.631 7.662,55.350 7.662,55.004 C7.662,54.657 8.197,54.376 8.856,54.376 C8.856,54.376 10.896,54.376 10.896,54.376 C11.556,54.376 12.090,54.095 12.090,53.749 C12.090,53.401 11.556,53.121 10.896,53.121 C10.896,53.121 1.187,53.121 1.187,53.121 C0.528,53.121 -0.006,52.840 -0.006,52.494 C-0.006,52.147 0.528,51.866 1.187,51.866 C1.187,51.866 3.482,51.866 3.482,51.866 C3.482,51.866 16.787,51.866 16.787,51.866 Z" id="path-11" class="cls-11" fill-rule="evenodd"/>
    <path d="M39.935,3.144 C40.322,3.144 40.637,2.969 40.637,2.754 C40.637,2.538 40.322,2.364 39.935,2.364 C39.935,2.364 37.782,2.364 37.782,2.364 C37.395,2.364 37.080,2.538 37.080,2.754 C37.080,2.969 37.395,3.144 37.782,3.144 C37.782,3.144 39.935,3.144 39.935,3.144 Z" id="path-12" class="cls-11" fill-rule="evenodd"/>
  </g>
</svg>
