<svg xmlns="http://www.w3.org/2000/svg" xmlns:xlink="http://www.w3.org/1999/xlink" preserveAspectRatio="xMidYMid" width="61" height="59" viewBox="0 0 61 59">
  <defs>
    <style>

      .cls-3 {
        fill: #ff3a2f;
      }

      .cls-4 {
        fill: #020403;
        opacity: 0.35;
      }

      .cls-5 {
        fill: #fbb713;
      }

      .cls-6 {
        fill: #ffffff;
      }

      .cls-7 {
        fill: #020403;
        opacity: 0.25;
      }
    </style>
  </defs>
  <g id="group-149svg">
    <path d="M33.778,41.658 C33.823,41.819 33.815,52.548 33.815,52.548 C33.815,54.268 32.488,55.716 30.769,55.716 C30.769,55.716 29.883,55.716 29.883,55.716 C28.163,55.716 26.995,54.268 26.995,52.548 C26.995,52.548 26.892,41.819 26.936,41.658 C26.936,41.658 33.778,41.658 33.778,41.658 Z" id="path-1" class="cls-3" fill-rule="evenodd"/>
    <path d="M33.815,46.865 C33.815,46.865 33.823,41.819 33.778,41.658 C33.778,41.658 26.936,41.658 26.936,41.658 C26.892,41.819 26.995,46.865 26.995,46.865 C26.995,46.865 33.815,46.865 33.815,46.865 Z" id="path-2" class="cls-4" fill-rule="evenodd"/>
    <path d="M43.055,43.210 C43.218,42.073 42.910,11.325 42.910,11.325 C42.910,5.046 38.223,0.010 31.943,0.010 C31.943,0.010 28.707,0.010 28.707,0.010 C22.429,0.010 17.900,5.046 17.900,11.325 C17.900,11.325 17.433,42.073 17.597,43.210 C17.597,43.210 43.055,43.210 43.055,43.210 Z" id="path-3" class="cls-5" fill-rule="evenodd"/>
    <path d="M20.723,21.671 C20.716,21.671 20.709,21.671 20.702,21.671 C20.149,21.659 19.712,21.202 19.723,20.650 C19.797,17.056 19.869,14.042 19.869,14.042 C19.869,9.593 22.214,5.702 25.988,3.912 C26.488,3.677 27.084,3.890 27.320,4.388 C27.558,4.887 27.345,5.483 26.846,5.720 C23.776,7.175 21.869,10.373 21.869,14.066 C21.869,14.090 21.797,17.101 21.723,20.691 C21.711,21.237 21.266,21.671 20.723,21.671 Z" id="path-4" class="cls-6" fill-rule="evenodd"/>
    <path d="M42.910,11.325 C42.910,5.046 38.223,0.010 31.943,0.010 C31.943,0.010 28.707,0.010 28.707,0.010 C25.981,0.010 23.586,0.962 21.747,2.551 C22.517,2.380 23.321,2.284 24.160,2.284 C24.160,2.284 27.396,2.284 27.396,2.284 C33.675,2.284 38.363,7.320 38.363,13.598 C38.363,13.598 38.586,35.893 38.551,43.210 C38.551,43.210 43.055,43.210 43.055,43.210 C43.218,42.073 42.910,11.325 42.910,11.325 Z" id="path-5" class="cls-7" fill-rule="evenodd"/>
    <path d="M33.815,34.547 C33.263,34.547 32.815,34.100 32.815,33.547 C32.815,33.547 32.815,11.947 32.815,11.947 C32.815,11.394 33.263,10.947 33.815,10.947 C34.368,10.947 34.815,11.394 34.815,11.947 C34.815,11.947 34.815,33.547 34.815,33.547 C34.815,34.100 34.368,34.547 33.815,34.547 Z" id="path-6" class="cls-4" fill-rule="evenodd"/>
    <path d="M25.857,34.547 C25.305,34.547 24.857,34.100 24.857,33.547 C24.857,33.547 24.857,11.947 24.857,11.947 C24.857,11.394 25.305,10.947 25.857,10.947 C26.410,10.947 26.857,11.394 26.857,11.947 C26.857,11.947 26.857,33.547 26.857,33.547 C26.857,34.100 26.410,34.547 25.857,34.547 Z" id="path-7" class="cls-4" fill-rule="evenodd"/>
    <path d="M4.651,41.237 C4.651,41.237 5.600,41.237 5.600,41.237 C5.783,41.237 5.932,41.427 5.932,41.660 C5.932,41.893 5.783,42.083 5.600,42.083 C5.600,42.083 5.556,42.083 5.556,42.083 C5.373,42.083 5.225,42.271 5.225,42.505 C5.225,42.738 5.373,42.928 5.556,42.928 C5.556,42.928 7.595,42.928 7.595,42.928 C7.778,42.928 7.926,43.117 7.926,43.350 C7.926,43.584 7.778,43.773 7.595,43.773 C7.595,43.773 5.144,43.773 5.144,43.773 C5.144,43.773 2.451,43.773 2.451,43.773 C2.268,43.773 2.120,43.584 2.120,43.350 C2.120,43.117 2.268,42.928 2.451,42.928 C2.451,42.928 3.017,42.928 3.017,42.928 C3.200,42.928 3.349,42.738 3.349,42.505 C3.349,42.271 3.200,42.083 3.017,42.083 C3.017,42.083 0.323,42.083 0.323,42.083 C0.141,42.083 -0.008,41.893 -0.008,41.660 C-0.008,41.427 0.141,41.237 0.323,41.237 C0.323,41.237 0.960,41.237 0.960,41.237 C0.960,41.237 4.651,41.237 4.651,41.237 Z" id="path-8" class="cls-3" fill-rule="evenodd"/>
    <path d="M54.548,45.387 C54.548,45.387 56.125,45.387 56.125,45.387 C56.430,45.387 56.676,45.635 56.676,45.941 C56.676,46.247 56.430,46.495 56.125,46.495 C56.125,46.495 56.052,46.495 56.052,46.495 C55.748,46.495 55.501,46.743 55.501,47.049 C55.501,47.355 55.748,47.604 56.052,47.604 C56.052,47.604 59.441,47.604 59.441,47.604 C59.746,47.604 59.992,47.852 59.992,48.158 C59.992,48.464 59.746,48.712 59.441,48.712 C59.441,48.712 55.367,48.712 55.367,48.712 C55.367,48.712 50.890,48.712 50.890,48.712 C50.586,48.712 50.339,48.464 50.339,48.158 C50.339,47.852 50.586,47.604 50.890,47.604 C50.890,47.604 51.831,47.604 51.831,47.604 C52.135,47.604 52.381,47.355 52.381,47.049 C52.381,46.743 52.135,46.495 51.831,46.495 C51.831,46.495 47.352,46.495 47.352,46.495 C47.049,46.495 46.802,46.247 46.802,45.941 C46.802,45.635 47.049,45.387 47.352,45.387 C47.352,45.387 48.411,45.387 48.411,45.387 C48.411,45.387 54.548,45.387 54.548,45.387 Z" id="path-9" class="cls-3" fill-rule="evenodd"/>
    <path d="M35.838,53.873 C35.838,53.873 40.629,53.873 40.629,53.873 C41.553,53.873 42.302,54.240 42.302,54.694 C42.302,55.147 41.553,55.514 40.629,55.514 C40.629,55.514 40.406,55.514 40.406,55.514 C39.482,55.514 38.733,55.882 38.733,56.336 C38.733,56.789 39.482,57.156 40.406,57.156 C40.406,57.156 50.706,57.156 50.706,57.156 C51.630,57.156 52.379,57.524 52.379,57.977 C52.379,58.430 51.630,58.799 50.706,58.799 C50.706,58.799 38.328,58.799 38.328,58.799 C38.328,58.799 24.724,58.799 24.724,58.799 C23.800,58.799 23.051,58.430 23.051,57.977 C23.051,57.524 23.800,57.156 24.724,57.156 C24.724,57.156 27.582,57.156 27.582,57.156 C28.506,57.156 29.255,56.789 29.255,56.336 C29.255,55.882 28.506,55.514 27.582,55.514 C27.582,55.514 13.977,55.514 13.977,55.514 C13.053,55.514 12.305,55.147 12.305,54.694 C12.305,54.240 13.053,53.873 13.977,53.873 C13.977,53.873 17.192,53.873 17.192,53.873 C17.192,53.873 35.838,53.873 35.838,53.873 Z" id="path-10" class="cls-5" fill-rule="evenodd"/>
    <path d="M20.053,44.361 C20.053,44.361 20.053,45.938 20.053,45.938 C20.053,46.242 19.685,46.489 19.233,46.489 C18.781,46.489 18.415,46.242 18.415,45.938 C18.415,45.938 18.415,45.864 18.415,45.864 C18.415,45.560 18.049,45.314 17.597,45.314 C17.144,45.314 16.778,45.560 16.778,45.864 C16.778,45.864 16.778,49.254 16.778,49.254 C16.778,49.559 16.411,49.805 15.959,49.805 C15.508,49.805 15.141,49.559 15.141,49.254 C15.141,49.254 15.141,45.180 15.141,45.180 C15.141,45.180 15.141,40.703 15.141,40.703 C15.141,40.398 15.508,40.152 15.959,40.152 C16.411,40.152 16.778,40.398 16.778,40.703 C16.778,40.703 16.778,41.644 16.778,41.644 C16.778,41.948 17.144,42.194 17.597,42.194 C18.049,42.194 18.415,41.948 18.415,41.644 C18.415,41.644 18.415,37.166 18.415,37.166 C18.415,36.861 18.781,36.615 19.233,36.615 C19.685,36.615 20.053,36.861 20.053,37.166 C20.053,37.166 20.053,38.224 20.053,38.224 C20.053,38.224 20.053,44.361 20.053,44.361 Z" id="path-11" class="cls-5" fill-rule="evenodd"/>
  </g>
</svg>
