<svg xmlns="http://www.w3.org/2000/svg" xmlns:xlink="http://www.w3.org/1999/xlink" preserveAspectRatio="xMidYMid" width="48" height="61" viewBox="0 0 48 61">
  <defs>
    <style>

      .cls-3 {
        fill: #ff3a2f;
      }

      .cls-5 {
        fill: #142a3b;
      }

      .cls-8 {
        fill: #2476ff;
      }

      .cls-9 {
        fill: #000000;
        opacity: 0.35;
      }
    </style>
  </defs>
  <g id="group-319svg">
    <path d="M15.055,52.790 C15.055,52.790 10.693,52.790 10.693,52.790 C9.852,52.790 9.170,53.306 9.170,53.943 C9.170,54.579 9.852,55.096 10.693,55.096 C10.693,55.096 10.896,55.096 10.896,55.096 C11.737,55.096 12.419,55.611 12.419,56.248 C12.419,56.884 11.737,57.400 10.896,57.400 C10.896,57.400 1.520,57.400 1.520,57.400 C0.679,57.400 -0.003,57.916 -0.003,58.553 C-0.003,59.189 0.679,59.705 1.520,59.705 C1.520,59.705 12.787,59.705 12.787,59.705 C12.787,59.705 35.818,59.705 35.818,59.705 C36.659,59.705 37.341,59.189 37.341,58.553 C37.341,57.916 36.659,57.400 35.818,57.400 C35.818,57.400 33.216,57.400 33.216,57.400 C32.375,57.400 31.693,56.884 31.693,56.248 C31.693,55.611 32.375,55.096 33.216,55.096 C33.216,55.096 43.437,55.096 43.437,55.096 C44.277,55.096 44.959,54.579 44.959,53.943 C44.959,53.306 44.277,52.790 43.437,52.790 C43.437,52.790 42.674,52.790 42.674,52.790 C42.674,52.790 15.055,52.790 15.055,52.790 Z" id="path-1" class="cls-3" fill-rule="evenodd"/>
    <path d="M42.105,60.014 C41.400,60.014 40.828,59.461 40.828,58.779 C40.828,58.097 41.400,57.544 42.105,57.544 C42.105,57.544 46.017,57.544 46.017,57.544 C46.722,57.544 47.294,58.097 47.294,58.779 C47.294,59.461 46.722,60.014 46.017,60.014 C46.017,60.014 42.105,60.014 42.105,60.014 Z" id="path-2" class="cls-3" fill-rule="evenodd"/>
    <path d="M21.617,44.514 C11.282,44.514 2.771,36.189 2.644,25.956 C2.644,25.956 2.643,25.704 2.643,25.704 C2.643,24.875 3.315,24.204 4.144,24.204 C4.972,24.204 5.643,24.875 5.643,25.704 C5.643,25.704 5.644,25.917 5.644,25.917 C5.751,34.518 12.916,41.513 21.617,41.513 C30.885,41.513 37.453,35.782 37.590,27.575 C37.591,27.443 37.592,24.211 37.592,24.115 C37.592,23.287 38.264,22.615 39.092,22.615 C39.920,22.615 40.592,23.287 40.592,24.115 C40.592,24.213 40.591,27.514 40.590,27.615 C40.426,37.411 32.447,44.514 21.617,44.514 Z" id="path-3" class="cls-5" fill-rule="evenodd"/>
    <path d="M21.617,52.814 C20.789,52.814 20.117,52.143 20.117,51.314 C20.117,51.314 20.117,44.056 20.117,44.056 C20.117,43.227 20.789,42.556 21.617,42.556 C22.445,42.556 23.117,43.227 23.117,44.056 C23.117,44.056 23.117,51.314 23.117,51.314 C23.117,52.143 22.445,52.814 21.617,52.814 Z" id="path-4" class="cls-5" fill-rule="evenodd"/>
    <path d="M25.662,54.098 C25.662,54.098 17.573,54.098 17.573,54.098 C16.745,54.098 16.073,53.426 16.073,52.598 C16.073,51.769 16.745,51.098 17.573,51.098 C17.573,51.098 25.662,51.098 25.662,51.098 C26.490,51.098 27.162,51.769 27.162,52.598 C27.162,53.426 26.490,54.098 25.662,54.098 Z" id="path-5" class="cls-5" fill-rule="evenodd"/>
    <path d="M32.622,27.021 C32.622,33.036 27.695,37.911 21.617,37.911 C21.617,37.911 21.617,37.911 21.617,37.911 C15.540,37.911 10.613,33.036 10.613,27.021 C10.613,27.021 10.613,10.904 10.613,10.904 C10.613,4.889 15.540,0.014 21.617,0.014 C21.617,0.014 21.617,0.014 21.617,0.014 C27.695,0.014 32.622,4.889 32.622,10.904 C32.622,10.904 32.622,27.021 32.622,27.021 Z" id="path-6" class="cls-8" fill-rule="evenodd"/>
    <path d="M31.824,14.721 C31.824,14.721 26.913,14.721 26.913,14.721 C26.360,14.721 25.913,14.273 25.913,13.721 C25.913,13.169 26.360,12.721 26.913,12.721 C26.913,12.721 31.824,12.721 31.824,12.721 C32.377,12.721 32.824,13.169 32.824,13.721 C32.824,14.273 32.377,14.721 31.824,14.721 Z" id="path-7" class="cls-9" fill-rule="evenodd"/>
    <path d="M31.824,19.962 C31.824,19.962 26.913,19.962 26.913,19.962 C26.360,19.962 25.913,19.514 25.913,18.962 C25.913,18.410 26.360,17.962 26.913,17.962 C26.913,17.962 31.824,17.962 31.824,17.962 C32.377,17.962 32.824,18.410 32.824,18.962 C32.824,19.514 32.377,19.962 31.824,19.962 Z" id="path-8" class="cls-9" fill-rule="evenodd"/>
    <path d="M31.824,25.115 C31.824,25.115 26.913,25.115 26.913,25.115 C26.360,25.115 25.913,24.667 25.913,24.115 C25.913,23.563 26.360,23.115 26.913,23.115 C26.913,23.115 31.824,23.115 31.824,23.115 C32.377,23.115 32.824,23.563 32.824,24.115 C32.824,24.667 32.377,25.115 31.824,25.115 Z" id="path-9" class="cls-9" fill-rule="evenodd"/>
    <path d="M16.998,14.766 C16.998,14.766 12.086,14.766 12.086,14.766 C11.533,14.766 11.086,14.318 11.086,13.766 C11.086,13.213 11.533,12.765 12.086,12.765 C12.086,12.765 16.998,12.765 16.998,12.765 C17.551,12.765 17.998,13.213 17.998,13.766 C17.998,14.318 17.551,14.766 16.998,14.766 Z" id="path-10" class="cls-9" fill-rule="evenodd"/>
    <path d="M16.998,20.007 C16.998,20.007 12.086,20.007 12.086,20.007 C11.533,20.007 11.086,19.559 11.086,19.007 C11.086,18.455 11.533,18.007 12.086,18.007 C12.086,18.007 16.998,18.007 16.998,18.007 C17.551,18.007 17.998,18.455 17.998,19.007 C17.998,19.559 17.551,20.007 16.998,20.007 Z" id="path-11" class="cls-9" fill-rule="evenodd"/>
    <path d="M16.998,25.159 C16.998,25.159 12.086,25.159 12.086,25.159 C11.533,25.159 11.086,24.712 11.086,24.159 C11.086,23.607 11.533,23.159 12.086,23.159 C12.086,23.159 16.998,23.159 16.998,23.159 C17.551,23.159 17.998,23.607 17.998,24.159 C17.998,24.712 17.551,25.159 16.998,25.159 Z" id="path-12" class="cls-9" fill-rule="evenodd"/>
  </g>
</svg>
