<svg xmlns="http://www.w3.org/2000/svg" xmlns:xlink="http://www.w3.org/1999/xlink" preserveAspectRatio="xMidYMid" width="35" height="61" viewBox="0 0 35 61">
  <defs>
    <style>

      .cls-3 {
        fill: #ff3a2f;
      }

      .cls-5 {
        fill: #fbb713;
      }

      .cls-6 {
        fill: #000000;
        opacity: 0.35;
      }

      .cls-7 {
        fill: #fbfbfb;
        opacity: 0.2;
      }

      .cls-9 {
        fill: #0cb04a;
      }

      .cls-10 {
        fill: #000000;
        opacity: 0.45;
      }
    </style>
  </defs>
  <g id="group-239svg">
    <path d="M11.329,50.865 C11.329,50.865 8.043,50.865 8.043,50.865 C7.409,50.865 6.895,51.537 6.895,52.365 C6.895,53.194 7.409,53.866 8.043,53.866 C8.043,53.866 8.196,53.866 8.196,53.866 C8.829,53.866 9.343,54.537 9.343,55.366 C9.343,56.194 8.829,56.867 8.196,56.867 C8.196,56.867 1.132,56.867 1.132,56.867 C0.499,56.867 -0.015,57.538 -0.015,58.367 C-0.015,59.195 0.499,59.867 1.132,59.867 C1.132,59.867 9.621,59.867 9.621,59.867 C9.621,59.867 26.972,59.867 26.972,59.867 C27.605,59.867 28.119,59.195 28.119,58.367 C28.119,57.538 27.605,56.867 26.972,56.867 C26.972,56.867 25.012,56.867 25.012,56.867 C24.378,56.867 23.864,56.194 23.864,55.366 C23.864,54.537 24.378,53.866 25.012,53.866 C25.012,53.866 32.711,53.866 32.711,53.866 C33.345,53.866 33.858,53.194 33.858,52.365 C33.858,51.537 33.345,50.865 32.711,50.865 C32.711,50.865 32.137,50.865 32.137,50.865 C32.137,50.865 11.329,50.865 11.329,50.865 Z" id="path-1" class="cls-3" fill-rule="evenodd"/>
    <path d="M31.528,60.002 C31.082,60.002 30.720,59.527 30.720,58.941 C30.720,58.354 31.082,57.880 31.528,57.880 C31.528,57.880 34.004,57.880 34.004,57.880 C34.450,57.880 34.812,58.354 34.812,58.941 C34.812,59.527 34.450,60.002 34.004,60.002 C34.004,60.002 31.528,60.002 31.528,60.002 Z" id="path-2" class="cls-3" fill-rule="evenodd"/>
    <path d="M31.289,17.125 C31.289,17.125 21.761,52.767 21.761,52.767 C20.811,56.322 15.766,56.322 14.815,52.767 C14.815,52.767 5.287,17.125 5.287,17.125 C4.677,14.843 6.396,12.602 8.759,12.602 C8.759,12.602 27.817,12.602 27.817,12.602 C30.180,12.602 31.899,14.843 31.289,17.125 Z" id="path-3" class="cls-5" fill-rule="evenodd"/>
    <path d="M27.817,12.602 C27.817,12.602 25.690,12.602 25.690,12.602 C28.054,12.602 29.773,14.843 29.163,17.125 C29.163,17.125 19.635,52.767 19.635,52.767 C19.273,54.119 18.319,54.953 17.225,55.277 C19.010,55.805 21.171,54.971 21.761,52.767 C21.761,52.767 31.289,17.125 31.289,17.125 C31.899,14.843 30.180,12.602 27.817,12.602 Z" id="path-4" class="cls-6" fill-rule="evenodd"/>
    <path d="M27.817,12.602 C27.817,12.602 9.405,12.602 9.405,12.602 C8.552,12.735 7.759,12.884 7.033,13.047 C5.644,13.810 4.840,15.454 5.287,17.125 C5.287,17.125 5.456,17.761 5.456,17.761 C8.604,18.705 13.765,19.321 19.601,19.321 C23.938,19.321 27.900,18.981 30.943,18.419 C30.943,18.419 31.289,17.125 31.289,17.125 C31.899,14.843 30.180,12.602 27.817,12.602 Z" id="path-5" class="cls-7" fill-rule="evenodd"/>
    <path d="M22.009,12.675 C22.009,12.675 22.009,15.366 22.009,15.366 C22.009,16.746 20.977,17.864 19.705,17.864 C19.705,17.864 19.705,17.864 19.705,17.864 C18.433,17.864 17.402,16.746 17.402,15.366 C17.402,15.366 17.402,12.675 17.402,12.675 C17.402,12.675 22.009,12.675 22.009,12.675 Z" id="path-6" class="cls-6" fill-rule="evenodd"/>
    <path d="M18.306,16.447 C18.306,16.447 18.269,16.447 18.269,16.447 C17.008,16.447 15.984,15.424 15.984,14.162 C15.984,14.162 15.984,7.393 15.984,7.393 C15.984,6.131 17.008,5.108 18.269,5.108 C18.269,5.108 18.306,5.108 18.306,5.108 C19.568,5.108 20.592,6.131 20.592,7.393 C20.592,7.393 20.592,14.162 20.592,14.162 C20.592,15.424 19.568,16.447 18.306,16.447 Z" id="path-7" class="cls-9" fill-rule="evenodd"/>
    <path d="M18.288,5.108 C17.016,5.108 15.984,6.139 15.984,7.411 C15.984,7.411 15.984,11.512 15.984,11.512 C16.684,11.832 17.464,12.011 18.288,12.011 C19.112,12.011 19.892,11.832 20.592,11.512 C20.592,11.512 20.592,7.411 20.592,7.411 C20.592,6.139 19.561,5.108 18.288,5.108 Z" id="path-8" class="cls-10" fill-rule="evenodd"/>
    <path d="M23.867,1.599 C23.360,1.599 22.877,1.697 22.434,1.873 C21.436,0.729 19.950,0.002 18.288,0.002 C16.626,0.002 15.140,0.729 14.142,1.873 C13.699,1.697 13.216,1.599 12.709,1.599 C10.609,1.599 8.908,3.255 8.908,5.298 C8.908,7.341 10.609,8.997 12.709,8.997 C13.216,8.997 13.699,8.898 14.142,8.724 C15.140,9.867 16.626,10.594 18.288,10.594 C19.950,10.594 21.436,9.867 22.434,8.724 C22.877,8.898 23.360,8.997 23.867,8.997 C25.967,8.997 27.668,7.341 27.668,5.298 C27.668,3.255 25.967,1.599 23.867,1.599 Z" id="path-9" class="cls-9" fill-rule="evenodd"/>
    <path d="M25.769,2.113 C26.066,2.640 26.251,3.236 26.251,3.881 C26.251,5.924 24.549,7.580 22.449,7.580 C21.942,7.580 21.460,7.481 21.018,7.305 C20.019,8.449 18.533,9.177 16.870,9.177 C15.208,9.177 13.722,8.449 12.724,7.305 C12.281,7.481 11.799,7.580 11.292,7.580 C10.595,7.580 9.951,7.384 9.390,7.066 C10.035,8.212 11.271,8.997 12.709,8.997 C13.216,8.997 13.699,8.899 14.142,8.724 C15.140,9.867 16.626,10.594 18.288,10.594 C19.950,10.594 21.436,9.867 22.434,8.724 C22.877,8.899 23.360,8.997 23.867,8.997 C25.967,8.997 27.668,7.341 27.668,5.298 C27.668,3.933 26.899,2.754 25.769,2.113 Z" id="path-10" class="cls-6" fill-rule="evenodd"/>
    <path d="M21.014,27.099 C21.014,27.099 9.916,27.099 9.916,27.099 C9.363,27.099 8.916,26.652 8.916,26.100 C8.916,25.548 9.363,25.101 9.916,25.101 C9.916,25.101 21.014,25.101 21.014,25.101 C21.566,25.101 22.014,25.548 22.014,26.100 C22.014,26.652 21.566,27.099 21.014,27.099 Z" id="path-11" class="cls-6" fill-rule="evenodd"/>
    <path d="M21.333,37.902 C21.333,37.902 15.716,37.902 15.716,37.902 C15.163,37.902 14.716,37.454 14.716,36.903 C14.716,36.351 15.163,35.903 15.716,35.903 C15.716,35.903 21.333,35.903 21.333,35.903 C21.886,35.903 22.332,36.351 22.332,36.903 C22.332,37.454 21.886,37.902 21.333,37.902 Z" id="path-12" class="cls-6" fill-rule="evenodd"/>
    <path d="M19.146,48.705 C19.146,48.705 15.660,48.705 15.660,48.705 C15.107,48.705 14.660,48.258 14.660,47.706 C14.660,47.154 15.107,46.706 15.660,46.706 C15.660,46.706 19.146,46.706 19.146,46.706 C19.699,46.706 20.146,47.154 20.146,47.706 C20.146,48.258 19.699,48.705 19.146,48.705 Z" id="path-13" class="cls-6" fill-rule="evenodd"/>
  </g>
</svg>
