<svg xmlns="http://www.w3.org/2000/svg" xmlns:xlink="http://www.w3.org/1999/xlink" preserveAspectRatio="xMidYMid" width="60" height="32" viewBox="0 0 60 32">
  <defs>
    <style>

      .cls-3 {
        fill: #142a3b;
      }

      .cls-4 {
        fill: #fbb713;
      }

      .cls-5 {
        fill: #020403;
        opacity: 0.35;
      }

      .cls-6 {
        fill: #020403;
        opacity: 0.25;
      }

      .cls-9 {
        fill: #ff3a2f;
      }

      .cls-10 {
        fill: #ffffff;
      }
    </style>
  </defs>
  <g id="group-67svg">
    <path d="M6.982,19.694 C6.982,15.241 10.605,11.617 15.059,11.617 C19.512,11.617 23.136,15.241 23.136,19.694 C23.136,24.147 19.512,27.771 15.059,27.771 C10.605,27.771 6.982,24.147 6.982,19.694 Z" id="path-1" class="cls-3" fill-rule="evenodd"/>
    <path d="M11.598,19.694 C11.598,17.785 13.150,16.232 15.059,16.232 C16.968,16.232 18.520,17.785 18.520,19.694 C18.520,21.602 16.968,23.155 15.059,23.155 C13.150,23.155 11.598,21.602 11.598,19.694 Z" id="path-2" class="cls-4" fill-rule="evenodd"/>
    <path d="M16.180,11.704 C18.657,13.085 20.339,15.729 20.339,18.761 C20.339,23.214 16.715,26.838 12.262,26.838 C11.881,26.838 11.509,26.802 11.142,26.751 C12.303,27.399 13.638,27.771 15.059,27.771 C19.512,27.771 23.136,24.147 23.136,19.694 C23.136,15.622 20.102,12.252 16.180,11.704 Z" id="path-3" class="cls-5" fill-rule="evenodd"/>
    <path d="M16.995,16.825 C17.369,17.378 17.588,18.044 17.588,18.761 C17.588,20.670 16.035,22.223 14.127,22.223 C13.410,22.223 12.744,22.004 12.190,21.630 C12.813,22.550 13.867,23.155 15.059,23.155 C16.968,23.155 18.520,21.602 18.520,19.694 C18.520,18.501 17.915,17.448 16.995,16.825 Z" id="path-4" class="cls-6" fill-rule="evenodd"/>
    <path d="M49.895,23.223 C49.722,23.223 49.545,23.201 49.370,23.159 C49.370,23.159 37.657,20.120 37.657,20.120 C37.657,20.120 46.699,5.493 46.699,5.493 C46.699,5.493 51.928,20.354 51.928,20.354 C52.191,21.106 52.021,21.937 51.483,22.525 C51.075,22.969 50.497,23.223 49.895,23.223 ZM40.784,18.865 C40.784,18.865 49.895,21.223 49.895,21.223 C49.939,21.223 49.981,21.205 50.010,21.173 C50.048,21.132 50.060,21.073 50.041,21.017 C50.041,21.017 46.201,10.102 46.201,10.102 C46.201,10.102 40.784,18.865 40.784,18.865 Z" id="path-5" class="cls-3" fill-rule="evenodd"/>
    <path d="M58.199,2.011 C58.199,2.011 51.362,2.011 51.362,2.011 C50.810,2.011 50.362,1.563 50.362,1.011 C50.362,0.458 50.810,0.011 51.362,0.011 C51.362,0.011 58.199,0.011 58.199,0.011 C58.752,0.011 59.199,0.458 59.199,1.011 C59.199,1.563 58.752,2.011 58.199,2.011 Z" id="path-6" class="cls-3" fill-rule="evenodd"/>
    <path d="M39.290,20.847 C39.678,20.847 40.038,20.653 40.252,20.331 C40.252,20.331 53.661,0.078 53.661,0.078 C53.661,0.078 50.184,0.078 50.184,0.078 C50.184,0.078 16.722,0.078 16.722,0.078 C16.084,0.078 15.568,0.594 15.568,1.232 C15.568,1.232 15.568,4.694 15.568,4.694 C15.568,4.928 15.639,5.153 15.771,5.347 C15.771,5.347 26.048,20.347 26.048,20.347 C26.270,20.671 26.631,20.847 26.998,20.847 C26.998,20.847 39.290,20.847 39.290,20.847 Z" id="path-7" class="cls-9" fill-rule="evenodd"/>
    <path d="M25.934,15.736 C25.614,15.736 25.302,15.584 25.107,15.301 C25.107,15.301 18.675,5.912 18.675,5.912 C18.429,5.552 18.298,5.131 18.298,4.694 C18.298,4.694 18.298,2.164 18.298,2.164 C18.298,1.612 18.745,1.164 19.298,1.164 C19.851,1.164 20.298,1.612 20.298,2.164 C20.298,2.164 20.298,4.694 20.298,4.694 C20.298,4.694 26.758,14.171 26.758,14.171 C27.069,14.626 26.953,15.248 26.498,15.561 C26.325,15.680 26.128,15.736 25.934,15.736 Z" id="path-8" class="cls-10" fill-rule="evenodd"/>
    <path d="M33.695,18.983 C34.083,18.983 34.444,18.789 34.658,18.467 C34.658,18.467 46.832,0.078 46.832,0.078 C46.832,0.078 50.184,0.078 50.184,0.078 C50.184,0.078 53.661,0.078 53.661,0.078 C53.661,0.078 40.252,20.331 40.252,20.331 C40.038,20.653 39.678,20.847 39.290,20.847 C39.290,20.847 26.998,20.847 26.998,20.847 C26.631,20.847 26.270,20.672 26.048,20.347 C26.048,20.347 25.113,18.983 25.113,18.983 C25.113,18.983 33.695,18.983 33.695,18.983 Z" id="path-9" class="cls-6" fill-rule="evenodd"/>
    <path d="M18.782,25.989 C18.782,25.989 22.381,25.989 22.381,25.989 C23.074,25.989 23.637,26.345 23.637,26.785 C23.637,27.224 23.074,27.581 22.381,27.581 C22.381,27.581 22.213,27.581 22.213,27.581 C21.520,27.581 20.957,27.937 20.957,28.376 C20.957,28.816 21.520,29.173 22.213,29.173 C22.213,29.173 29.947,29.173 29.947,29.173 C30.642,29.173 31.204,29.529 31.204,29.969 C31.204,30.408 30.642,30.765 29.947,30.765 C29.947,30.765 20.652,30.765 20.652,30.765 C20.652,30.765 10.437,30.765 10.437,30.765 C9.742,30.765 9.180,30.408 9.180,29.969 C9.180,29.529 9.742,29.173 10.437,29.173 C10.437,29.173 12.583,29.173 12.583,29.173 C13.276,29.173 13.839,28.816 13.839,28.376 C13.839,27.937 13.276,27.581 12.583,27.581 C12.583,27.581 2.366,27.581 2.366,27.581 C1.673,27.581 1.110,27.224 1.110,26.785 C1.110,26.345 1.673,25.989 2.366,25.989 C2.366,25.989 4.781,25.989 4.781,25.989 C4.781,25.989 18.782,25.989 18.782,25.989 Z" id="path-10" class="cls-4" fill-rule="evenodd"/>
    <path d="M9.586,5.317 C9.586,5.317 11.535,5.317 11.535,5.317 C11.911,5.317 12.216,5.673 12.216,6.113 C12.216,6.552 11.911,6.908 11.535,6.908 C11.535,6.908 11.444,6.908 11.444,6.908 C11.068,6.908 10.764,7.265 10.764,7.704 C10.764,8.143 11.068,8.500 11.444,8.500 C11.444,8.500 15.635,8.500 15.635,8.500 C16.010,8.500 16.314,8.856 16.314,9.296 C16.314,9.736 16.010,10.091 15.635,10.091 C15.635,10.091 10.599,10.091 10.599,10.091 C10.599,10.091 5.064,10.091 5.064,10.091 C4.688,10.091 4.384,9.736 4.384,9.296 C4.384,8.856 4.688,8.500 5.064,8.500 C5.064,8.500 6.227,8.500 6.227,8.500 C6.602,8.500 6.907,8.143 6.907,7.704 C6.907,7.265 6.602,6.908 6.227,6.908 C6.227,6.908 0.692,6.908 0.692,6.908 C0.316,6.908 0.012,6.552 0.012,6.113 C0.012,5.673 0.316,5.317 0.692,5.317 C0.692,5.317 2.001,5.317 2.001,5.317 C2.001,5.317 9.586,5.317 9.586,5.317 Z" id="path-11" class="cls-4" fill-rule="evenodd"/>
    <path d="M53.282,21.697 C53.282,21.697 55.231,21.697 55.231,21.697 C55.607,21.697 55.912,22.054 55.912,22.493 C55.912,22.933 55.607,23.289 55.231,23.289 C55.231,23.289 55.142,23.289 55.142,23.289 C54.766,23.289 54.461,23.645 54.461,24.085 C54.461,24.525 54.766,24.881 55.142,24.881 C55.142,24.881 59.331,24.881 59.331,24.881 C59.707,24.881 60.012,25.237 60.012,25.676 C60.012,26.117 59.707,26.472 59.331,26.472 C59.331,26.472 54.296,26.472 54.296,26.472 C54.296,26.472 48.761,26.472 48.761,26.472 C48.385,26.472 48.080,26.117 48.080,25.676 C48.080,25.237 48.385,24.881 48.761,24.881 C48.761,24.881 49.924,24.881 49.924,24.881 C50.300,24.881 50.604,24.525 50.604,24.085 C50.604,23.645 50.300,23.289 49.924,23.289 C49.924,23.289 44.390,23.289 44.390,23.289 C44.014,23.289 43.709,22.933 43.709,22.493 C43.709,22.054 44.014,21.697 44.390,21.697 C44.390,21.697 45.697,21.697 45.697,21.697 C45.697,21.697 53.282,21.697 53.282,21.697 Z" id="path-12" class="cls-4" fill-rule="evenodd"/>
    <path d="M41.053,31.453 C41.845,31.453 42.486,31.046 42.486,30.544 C42.486,30.042 41.845,29.636 41.053,29.636 C41.053,29.636 36.657,29.636 36.657,29.636 C35.865,29.636 35.223,30.042 35.223,30.544 C35.223,31.046 35.865,31.453 36.657,31.453 C36.657,31.453 41.053,31.453 41.053,31.453 Z" id="path-13" class="cls-4" fill-rule="evenodd"/>
  </g>
</svg>
