<svg xmlns="http://www.w3.org/2000/svg" xmlns:xlink="http://www.w3.org/1999/xlink" preserveAspectRatio="xMidYMid" width="61" height="58" viewBox="0 0 61 58">
  <defs>
    <style>

      .cls-3 {
        fill: #2476ff;
      }

      .cls-6 {
        fill: #020403;
      }

      .cls-7 {
        fill: #142a3b;
      }

      .cls-8 {
        fill: #ff3a2f;
      }

      .cls-9 {
        fill: #ffffff;
      }

      .cls-10 {
        fill: #fbb713;
      }
    </style>
  </defs>
  <g id="group-39svg">
    <path d="M27.333,6.743 C27.333,6.743 30.294,6.743 30.294,6.743 C30.865,6.743 31.328,6.960 31.328,7.228 C31.328,7.494 30.865,7.711 30.294,7.711 C30.294,7.711 30.156,7.711 30.156,7.711 C29.585,7.711 29.123,7.927 29.123,8.194 C29.123,8.461 29.585,8.678 30.156,8.678 C30.156,8.678 36.521,8.678 36.521,8.678 C37.092,8.678 37.555,8.894 37.555,9.161 C37.555,9.428 37.092,9.644 36.521,9.644 C36.521,9.644 28.872,9.644 28.872,9.644 C28.872,9.644 20.465,9.644 20.465,9.644 C19.894,9.644 19.431,9.428 19.431,9.161 C19.431,8.894 19.894,8.678 20.465,8.678 C20.465,8.678 22.231,8.678 22.231,8.678 C22.802,8.678 23.265,8.461 23.265,8.194 C23.265,7.927 22.802,7.711 22.231,7.711 C22.231,7.711 13.824,7.711 13.824,7.711 C13.253,7.711 12.790,7.494 12.790,7.228 C12.790,6.960 13.253,6.743 13.824,6.743 C13.824,6.743 15.811,6.743 15.811,6.743 C15.811,6.743 27.333,6.743 27.333,6.743 Z" id="path-1" class="cls-3" fill-rule="evenodd"/>
    <path d="M55.260,17.247 C55.260,17.247 56.636,17.247 56.636,17.247 C56.901,17.247 57.117,17.464 57.117,17.731 C57.117,17.998 56.901,18.214 56.636,18.214 C56.636,18.214 56.572,18.214 56.572,18.214 C56.307,18.214 56.092,18.430 56.092,18.697 C56.092,18.965 56.307,19.181 56.572,19.181 C56.572,19.181 59.530,19.181 59.530,19.181 C59.795,19.181 60.010,19.397 60.010,19.665 C60.010,19.931 59.795,20.148 59.530,20.148 C59.530,20.148 55.975,20.148 55.975,20.148 C55.975,20.148 52.068,20.148 52.068,20.148 C51.803,20.148 51.588,19.931 51.588,19.665 C51.588,19.397 51.803,19.181 52.068,19.181 C52.068,19.181 52.889,19.181 52.889,19.181 C53.155,19.181 53.370,18.965 53.370,18.697 C53.370,18.430 53.155,18.214 52.889,18.214 C52.889,18.214 48.982,18.214 48.982,18.214 C48.717,18.214 48.502,17.998 48.502,17.731 C48.502,17.464 48.717,17.247 48.982,17.247 C48.982,17.247 49.906,17.247 49.906,17.247 C49.906,17.247 55.260,17.247 55.260,17.247 Z" id="path-2" class="cls-3" fill-rule="evenodd"/>
    <path d="M51.104,6.500 C51.104,6.500 51.951,6.500 51.951,6.500 C52.114,6.500 52.246,6.633 52.246,6.797 C52.246,6.961 52.114,7.094 51.951,7.094 C51.951,7.094 51.911,7.094 51.911,7.094 C51.748,7.094 51.616,7.228 51.616,7.392 C51.616,7.556 51.748,7.690 51.911,7.690 C51.911,7.690 53.730,7.690 53.730,7.690 C53.894,7.690 54.026,7.822 54.026,7.987 C54.026,8.151 53.894,8.284 53.730,8.284 C53.730,8.284 51.544,8.284 51.544,8.284 C51.544,8.284 49.141,8.284 49.141,8.284 C48.977,8.284 48.845,8.151 48.845,7.987 C48.845,7.822 48.977,7.690 49.141,7.690 C49.141,7.690 49.646,7.690 49.646,7.690 C49.809,7.690 49.941,7.556 49.941,7.392 C49.941,7.228 49.809,7.094 49.646,7.094 C49.646,7.094 47.243,7.094 47.243,7.094 C47.080,7.094 46.947,6.961 46.947,6.797 C46.947,6.633 47.080,6.500 47.243,6.500 C47.243,6.500 47.810,6.500 47.810,6.500 C47.810,6.500 51.104,6.500 51.104,6.500 Z" id="path-3" class="cls-3" fill-rule="evenodd"/>
    <path d="M42.717,15.426 C41.276,15.041 39.829,14.885 38.410,14.919 C45.539,17.549 49.673,25.104 47.953,32.593 C47.953,32.593 53.491,34.076 53.491,34.076 C55.667,25.951 50.843,17.602 42.717,15.426 Z" id="path-4" class="cls-6" fill-rule="evenodd"/>
    <path d="M31.900,51.916 C31.900,51.916 34.412,52.589 34.412,52.589 C34.412,52.589 40.306,30.585 40.306,30.585 C40.306,30.585 37.793,29.913 37.793,29.913 C37.793,29.913 31.900,51.916 31.900,51.916 Z" id="path-5" class="cls-7" fill-rule="evenodd"/>
    <path d="M42.717,15.426 C50.843,17.602 55.667,25.951 53.491,34.076 C53.491,34.076 24.061,26.198 24.061,26.198 C26.238,18.074 34.590,13.251 42.717,15.426 Z" id="path-6" class="cls-8" fill-rule="evenodd"/>
    <path d="M28.549,26.093 C28.464,26.093 28.377,26.082 28.290,26.059 C27.757,25.916 27.440,25.368 27.583,24.834 C29.072,19.273 34.808,15.961 40.373,17.450 C40.906,17.592 41.223,18.141 41.080,18.674 C40.937,19.207 40.390,19.524 39.855,19.381 C35.360,18.179 30.719,20.856 29.515,25.352 C29.395,25.799 28.991,26.093 28.549,26.093 Z" id="path-7" class="cls-9" fill-rule="evenodd"/>
    <path d="M4.239,53.517 C8.932,51.544 14.983,50.356 21.587,50.356 C31.584,50.356 40.312,53.078 44.985,57.124 C44.985,57.124 4.239,53.517 4.239,53.517 Z" id="path-8" class="cls-10" fill-rule="evenodd"/>
    <path d="M10.230,6.304 C9.678,6.304 9.230,5.857 9.230,5.304 C9.230,5.304 9.230,1.001 9.230,1.001 C9.230,0.448 9.678,0.001 10.230,0.001 C10.783,0.001 11.230,0.448 11.230,1.001 C11.230,1.001 11.230,5.304 11.230,5.304 C11.230,5.857 10.783,6.304 10.230,6.304 Z" id="path-9" class="cls-10" fill-rule="evenodd"/>
    <path d="M10.230,20.436 C9.678,20.436 9.230,19.988 9.230,19.436 C9.230,19.436 9.230,15.133 9.230,15.133 C9.230,14.580 9.678,14.133 10.230,14.133 C10.783,14.133 11.230,14.580 11.230,15.133 C11.230,15.133 11.230,19.436 11.230,19.436 C11.230,19.988 10.783,20.436 10.230,20.436 Z" id="path-10" class="cls-10" fill-rule="evenodd"/>
    <path d="M19.451,11.218 C19.451,11.218 15.146,11.218 15.146,11.218 C14.594,11.218 14.146,10.770 14.146,10.219 C14.146,9.666 14.594,9.219 15.146,9.219 C15.146,9.219 19.451,9.219 19.451,9.219 C20.003,9.219 20.451,9.666 20.451,10.219 C20.451,10.770 20.003,11.218 19.451,11.218 Z" id="path-11" class="cls-10" fill-rule="evenodd"/>
    <path d="M5.315,11.218 C5.315,11.218 1.010,11.218 1.010,11.218 C0.458,11.218 0.010,10.770 0.010,10.219 C0.010,9.666 0.458,9.219 1.010,9.219 C1.010,9.219 5.315,9.219 5.315,9.219 C5.867,9.219 6.315,9.666 6.315,10.219 C6.315,10.770 5.867,11.218 5.315,11.218 Z" id="path-12" class="cls-10" fill-rule="evenodd"/>
    <path d="M16.750,17.736 C16.495,17.736 16.239,17.638 16.043,17.444 C16.043,17.444 12.999,14.401 12.999,14.401 C12.609,14.010 12.609,13.377 12.999,12.986 C13.389,12.595 14.023,12.595 14.414,12.986 C14.414,12.986 17.457,16.029 17.457,16.029 C17.848,16.420 17.848,17.052 17.457,17.443 C17.263,17.638 17.006,17.736 16.750,17.736 Z" id="path-13" class="cls-10" fill-rule="evenodd"/>
    <path d="M6.755,7.743 C6.499,7.743 6.243,7.646 6.048,7.451 C6.048,7.451 3.004,4.408 3.004,4.408 C2.613,4.017 2.613,3.384 3.004,2.993 C3.393,2.603 4.027,2.603 4.418,2.993 C4.418,2.993 7.462,6.037 7.462,6.037 C7.852,6.426 7.852,7.060 7.462,7.450 C7.267,7.646 7.011,7.743 6.755,7.743 Z" id="path-14" class="cls-10" fill-rule="evenodd"/>
    <path d="M13.706,7.743 C13.451,7.743 13.195,7.646 12.999,7.450 C12.609,7.060 12.609,6.426 12.999,6.037 C12.999,6.037 16.043,2.993 16.043,2.993 C16.434,2.603 17.067,2.603 17.457,2.993 C17.848,3.384 17.848,4.017 17.457,4.408 C17.457,4.408 14.414,7.451 14.414,7.451 C14.218,7.646 13.962,7.743 13.706,7.743 Z" id="path-15" class="cls-10" fill-rule="evenodd"/>
    <path d="M3.711,17.736 C3.455,17.736 3.199,17.638 3.004,17.443 C2.613,17.052 2.613,16.420 3.004,16.029 C3.004,16.029 6.048,12.986 6.048,12.986 C6.438,12.596 7.071,12.595 7.462,12.986 C7.852,13.377 7.852,14.010 7.462,14.401 C7.462,14.401 4.418,17.444 4.418,17.444 C4.223,17.638 3.967,17.736 3.711,17.736 Z" id="path-16" class="cls-10" fill-rule="evenodd"/>
    <path d="M15.024,10.489 C15.024,13.136 12.878,15.281 10.230,15.281 C7.583,15.281 5.437,13.136 5.437,10.489 C5.437,7.843 7.583,5.698 10.230,5.698 C12.878,5.698 15.024,7.843 15.024,10.489 Z" id="path-17" class="cls-10" fill-rule="evenodd"/>
  </g>
</svg>
