<svg xmlns="http://www.w3.org/2000/svg" xmlns:xlink="http://www.w3.org/1999/xlink" preserveAspectRatio="xMidYMid" width="61" height="48" viewBox="0 0 61 48">
  <defs>
    <style>

      .cls-3 {
        fill: #ff3a2f;
      }

      .cls-6 {
        fill: #000000;
        opacity: 0.35;
      }

      .cls-7 {
        fill: #142a3b;
      }

      .cls-9 {
        fill: #ffffff;
      }

      .cls-10 {
        fill: #fbb713;
      }
    </style>
  </defs>
  <g id="group-220svg">
    <path d="M46.000,46.348 C46.000,46.348 50.058,46.348 50.058,46.348 C50.841,46.348 51.475,45.979 51.475,45.525 C51.475,45.071 50.841,44.702 50.058,44.702 C50.058,44.702 49.870,44.702 49.870,44.702 C49.087,44.702 48.453,44.334 48.453,43.880 C48.453,43.426 49.087,43.058 49.870,43.058 C49.870,43.058 58.594,43.058 58.594,43.058 C59.376,43.058 60.010,42.689 60.010,42.235 C60.010,41.780 59.376,41.412 58.594,41.412 C58.594,41.412 48.109,41.412 48.109,41.412 C48.109,41.412 26.680,41.412 26.680,41.412 C25.897,41.412 25.263,41.780 25.263,42.235 C25.263,42.689 25.897,43.058 26.680,43.058 C26.680,43.058 29.101,43.058 29.101,43.058 C29.884,43.058 30.518,43.426 30.518,43.880 C30.518,44.334 29.884,44.702 29.101,44.702 C29.101,44.702 17.578,44.702 17.578,44.702 C16.795,44.702 16.161,45.071 16.161,45.525 C16.161,45.979 16.795,46.348 17.578,46.348 C17.578,46.348 20.301,46.348 20.301,46.348 C20.301,46.348 46.000,46.348 46.000,46.348 Z" id="path-1" class="cls-3" fill-rule="evenodd"/>
    <path d="M12.547,44.860 C13.428,44.860 14.142,45.266 14.142,45.767 C14.142,46.267 13.428,46.673 12.547,46.673 C12.547,46.673 7.658,46.673 7.658,46.673 C6.776,46.673 6.062,46.267 6.062,45.767 C6.062,45.266 6.776,44.860 7.658,44.860 C7.658,44.860 12.547,44.860 12.547,44.860 Z" id="path-2" class="cls-3" fill-rule="evenodd"/>
    <path d="M7.864,32.926 C7.864,30.757 3.937,24.704 3.937,24.704 C3.937,24.704 0.010,30.757 0.010,32.926 C0.010,35.094 1.769,36.852 3.937,36.852 C6.106,36.852 7.864,35.094 7.864,32.926 Z" id="path-3" class="cls-3" fill-rule="evenodd"/>
    <path d="M3.937,24.704 C3.937,24.704 3.679,25.103 3.296,25.728 C4.452,27.694 6.034,30.634 6.034,32.010 C6.034,34.180 4.276,35.937 2.107,35.937 C1.849,35.937 1.598,35.909 1.353,35.861 C2.045,36.471 2.943,36.852 3.937,36.852 C6.106,36.852 7.864,35.095 7.864,32.925 C7.864,30.757 3.937,24.704 3.937,24.704 Z" id="path-4" class="cls-6" fill-rule="evenodd"/>
    <path d="M40.739,29.066 C40.739,29.066 50.340,38.667 50.340,38.667 C50.340,38.667 45.878,43.128 45.878,43.128 C45.878,43.128 36.278,33.527 36.278,33.527 C36.278,33.527 40.739,29.066 40.739,29.066 Z" id="path-5" class="cls-7" fill-rule="evenodd"/>
    <path d="M40.739,29.066 C40.739,29.066 43.171,31.499 43.171,31.499 C43.171,31.499 38.710,35.960 38.710,35.960 C38.710,35.960 36.278,33.527 36.278,33.527 C36.278,33.527 40.739,29.066 40.739,29.066 Z" id="path-6" class="cls-6" fill-rule="evenodd"/>
    <path d="M46.363,40.152 C46.107,40.152 45.852,40.054 45.656,39.859 C45.656,39.859 43.329,37.531 43.329,37.531 C42.938,37.141 42.938,36.507 43.329,36.117 C43.720,35.726 44.353,35.726 44.743,36.117 C44.743,36.117 47.070,38.445 47.070,38.445 C47.461,38.835 47.461,39.469 47.070,39.859 C46.875,40.054 46.619,40.152 46.363,40.152 Z" id="path-7" class="cls-9" fill-rule="evenodd"/>
    <path d="M43.454,18.537 C43.454,18.537 24.834,37.158 24.834,37.158 C24.834,37.158 10.178,22.502 10.178,22.502 C10.178,22.502 28.713,3.991 28.713,3.991 C28.713,3.991 43.454,18.537 43.454,18.537 Z" id="path-8" class="cls-10" fill-rule="evenodd"/>
    <path d="M21.124,11.579 C21.124,11.579 10.190,22.513 10.190,22.513 C10.190,22.513 11.105,23.428 11.105,23.428 C11.105,23.428 22.039,12.494 22.039,12.494 C22.039,12.494 21.124,11.579 21.124,11.579 Z" id="path-9" class="cls-6" fill-rule="evenodd"/>
    <path d="M25.862,8.568 C25.862,8.568 29.628,4.906 29.628,4.906 C29.628,4.906 25.652,0.929 25.652,0.929 C25.652,0.929 24.737,1.844 24.737,1.844 C24.737,1.844 27.798,4.906 27.798,4.906 C27.798,4.906 23.628,9.076 23.628,9.076 C23.628,9.076 26.840,12.288 26.840,12.288 C27.781,13.229 27.568,14.478 26.628,15.418 C26.395,15.652 25.787,15.312 25.498,15.430 C26.628,16.414 27.964,16.413 28.671,15.707 C29.611,14.767 30.208,13.631 29.074,11.780 C29.074,11.780 25.862,8.568 25.862,8.568 Z" id="path-10" class="cls-6" fill-rule="evenodd"/>
    <path d="M24.737,0.014 C24.737,0.014 6.214,18.537 6.214,18.537 C6.214,18.537 10.190,22.513 10.190,22.513 C10.190,22.513 21.124,11.579 21.124,11.579 C21.124,11.579 24.337,14.792 24.337,14.792 C25.277,15.732 26.815,15.732 27.755,14.792 C28.696,13.852 28.696,12.313 27.755,11.373 C27.755,11.373 24.543,8.161 24.543,8.161 C24.543,8.161 28.713,3.991 28.713,3.991 C28.713,3.991 24.737,0.014 24.737,0.014 Z" id="path-11" class="cls-3" fill-rule="evenodd"/>
    <path d="M47.721,22.805 C47.721,22.805 29.101,41.425 29.101,41.425 C29.101,41.425 24.640,36.964 24.640,36.964 C24.640,36.964 43.260,18.344 43.260,18.344 C43.260,18.344 47.721,22.805 47.721,22.805 Z" id="path-12" class="cls-7" fill-rule="evenodd"/>
    <path d="M43.281,18.364 C43.281,18.364 24.661,36.984 24.661,36.984 C24.661,36.984 24.165,36.488 24.165,36.488 C24.165,36.488 42.175,17.259 42.175,17.259 C42.175,17.259 43.281,18.364 43.281,18.364 Z" id="path-13" class="cls-6" fill-rule="evenodd"/>
  </g>
</svg>
