<svg xmlns="http://www.w3.org/2000/svg" xmlns:xlink="http://www.w3.org/1999/xlink" preserveAspectRatio="xMidYMid" width="57" height="61" viewBox="0 0 57 61">
  <defs>
    <style>

      .cls-3 {
        fill: #0cb04a;
      }

      .cls-8 {
        fill: #020403;
        opacity: 0.35;
      }

      .cls-10 {
        fill: #142a3b;
      }

      .cls-12 {
        fill: #fbb713;
      }
    </style>
  </defs>
  <g id="group-157svg">
    <path d="M21.462,51.640 C21.462,51.640 24.981,51.640 24.981,51.640 C25.659,51.640 26.210,51.988 26.210,52.418 C26.210,52.848 25.659,53.196 24.981,53.196 C24.981,53.196 24.817,53.196 24.817,53.196 C24.139,53.196 23.589,53.545 23.589,53.974 C23.589,54.404 24.139,54.753 24.817,54.753 C24.817,54.753 32.383,54.753 32.383,54.753 C33.061,54.753 33.611,55.101 33.611,55.531 C33.611,55.962 33.061,56.310 32.383,56.310 C32.383,56.310 23.291,56.310 23.291,56.310 C23.291,56.310 13.298,56.310 13.298,56.310 C12.620,56.310 12.069,55.962 12.069,55.531 C12.069,55.101 12.620,54.753 13.298,54.753 C13.298,54.753 15.398,54.753 15.398,54.753 C16.076,54.753 16.626,54.404 16.626,53.974 C16.626,53.545 16.076,53.196 15.398,53.196 C15.398,53.196 5.405,53.196 5.405,53.196 C4.726,53.196 4.176,52.848 4.176,52.418 C4.176,51.988 4.726,51.640 5.405,51.640 C5.405,51.640 7.767,51.640 7.767,51.640 C7.767,51.640 21.462,51.640 21.462,51.640 Z" id="path-1" class="cls-3" fill-rule="evenodd"/>
    <path d="M43.012,56.889 C43.828,56.889 44.490,56.367 44.490,55.723 C44.490,55.077 43.828,54.554 43.012,54.554 C43.012,54.554 38.478,54.554 38.478,54.554 C37.662,54.554 37.000,55.077 37.000,55.723 C37.000,56.367 37.662,56.889 38.478,56.889 C38.478,56.889 43.012,56.889 43.012,56.889 Z" id="path-2" class="cls-3" fill-rule="evenodd"/>
    <path d="M7.479,60.007 C8.498,60.007 9.323,59.484 9.323,58.839 C9.323,58.194 8.498,57.671 7.479,57.671 C7.479,57.671 1.832,57.671 1.832,57.671 C0.814,57.671 -0.011,58.194 -0.011,58.839 C-0.011,59.484 0.814,60.007 1.832,60.007 C1.832,60.007 7.479,60.007 7.479,60.007 Z" id="path-3" class="cls-3" fill-rule="evenodd"/>
    <path d="M16.972,32.492 C16.972,32.492 19.697,32.492 19.697,32.492 C19.697,32.492 19.697,46.733 19.697,46.733 C19.697,46.733 16.972,46.733 16.972,46.733 C15.406,46.733 14.124,44.838 14.124,42.520 C14.124,42.520 14.124,36.705 14.124,36.705 C14.124,34.388 15.406,32.492 16.972,32.492 Z" id="path-4" class="cls-3" fill-rule="evenodd"/>
    <path d="M53.642,32.492 C53.642,32.492 50.917,32.492 50.917,32.492 C50.917,32.492 50.917,46.733 50.917,46.733 C50.917,46.733 53.642,46.733 53.642,46.733 C55.209,46.733 56.491,44.838 56.491,42.520 C56.491,42.520 56.491,36.705 56.491,36.705 C56.491,34.388 55.209,32.492 53.642,32.492 Z" id="path-5" class="cls-3" fill-rule="evenodd"/>
    <path d="M55.718,44.658 C55.718,44.658 54.030,44.658 54.030,44.658 C54.030,44.658 54.030,32.492 54.030,32.492 C54.030,32.492 50.917,32.492 50.917,32.492 C50.917,32.492 50.917,46.733 50.917,46.733 C50.917,46.733 53.642,46.733 53.642,46.733 C54.696,46.733 55.610,45.866 56.102,44.600 C55.975,44.626 55.850,44.658 55.718,44.658 Z" id="path-6" class="cls-8" fill-rule="evenodd"/>
    <path d="M14.983,44.658 C14.983,44.658 16.671,44.658 16.671,44.658 C16.671,44.658 16.671,32.492 16.671,32.492 C16.671,32.492 19.784,32.492 19.784,32.492 C19.784,32.492 19.784,46.733 19.784,46.733 C19.784,46.733 17.059,46.733 17.059,46.733 C16.005,46.733 15.091,45.866 14.599,44.600 C14.726,44.626 14.851,44.658 14.983,44.658 Z" id="path-7" class="cls-8" fill-rule="evenodd"/>
    <path d="M52.415,51.853 C52.415,51.853 17.998,51.853 17.998,51.853 C17.998,51.853 17.998,7.425 17.998,7.425 C17.998,7.425 52.415,7.425 52.415,7.425 C52.415,7.425 52.415,51.853 52.415,51.853 Z" id="path-8" class="cls-10" fill-rule="evenodd"/>
    <path d="M44.784,31.943 C45.603,32.976 46.097,34.275 46.097,35.687 C46.097,35.687 46.097,40.685 46.097,40.685 C46.097,44.012 43.375,46.733 40.049,46.733 C40.049,46.733 28.288,46.733 28.288,46.733 C27.726,46.733 27.183,46.650 26.665,46.505 C27.775,47.904 29.486,48.809 31.401,48.809 C31.401,48.809 43.161,48.809 43.161,48.809 C46.488,48.809 49.210,46.087 49.210,42.760 C49.210,42.760 49.210,37.762 49.210,37.762 C49.210,34.998 47.328,32.657 44.784,31.943 Z" id="path-9" class="cls-8" fill-rule="evenodd"/>
    <path d="M41.306,46.733 C41.306,46.733 29.106,46.733 29.106,46.733 C25.900,46.733 23.277,44.110 23.277,40.905 C23.277,40.905 23.277,35.468 23.277,35.468 C23.277,32.262 25.900,29.638 29.106,29.638 C29.106,29.638 41.306,29.638 41.306,29.638 C44.512,29.638 47.135,32.262 47.135,35.468 C47.135,35.468 47.135,40.905 47.135,40.905 C47.135,44.110 44.512,46.733 41.306,46.733 Z" id="path-10" class="cls-12" fill-rule="evenodd"/>
    <path d="M43.498,42.397 C43.498,42.397 26.735,42.397 26.735,42.397 C26.735,42.397 26.735,39.613 26.735,39.613 C26.735,39.613 43.498,39.613 43.498,39.613 C43.498,39.613 43.498,42.397 43.498,42.397 Z" id="path-11" class="cls-10" fill-rule="evenodd"/>
    <path d="M44.561,9.437 C44.561,9.437 25.674,9.437 25.674,9.437 C25.674,9.437 25.799,8.325 25.799,8.325 C26.335,3.583 30.341,0.007 35.117,0.007 C39.894,0.007 43.899,3.583 44.435,8.325 C44.435,8.325 44.561,9.437 44.561,9.437 ZM27.999,7.437 C27.999,7.437 42.235,7.437 42.235,7.437 C41.376,4.274 38.490,2.007 35.117,2.007 C31.744,2.007 28.858,4.274 27.999,7.437 Z" id="path-12" class="cls-10" fill-rule="evenodd"/>
    <path d="M44.733,22.978 C44.733,22.978 42.155,22.978 42.155,22.978 C42.155,22.978 42.155,14.953 42.155,14.953 C42.155,14.953 44.733,14.953 44.733,14.953 C44.733,14.953 44.733,22.978 44.733,22.978 Z" id="path-13" class="cls-8" fill-rule="evenodd"/>
    <path d="M30.206,22.978 C30.206,22.978 27.628,22.978 27.628,22.978 C27.628,22.978 27.628,14.953 27.628,14.953 C27.628,14.953 30.206,14.953 30.206,14.953 C30.206,14.953 30.206,22.978 30.206,22.978 Z" id="path-14" class="cls-8" fill-rule="evenodd"/>
    <path d="M17.998,12.430 C17.998,16.347 21.202,19.551 25.118,19.551 C25.118,19.551 45.294,19.551 45.294,19.551 C49.210,19.551 52.415,16.347 52.415,12.430 C52.415,12.430 52.415,7.425 52.415,7.425 C52.415,7.425 17.998,7.425 17.998,7.425 C17.998,7.425 17.998,12.430 17.998,12.430 Z" id="path-15" class="cls-3" fill-rule="evenodd"/>
    <path d="M52.415,12.430 C52.415,16.347 49.210,19.551 45.294,19.551 C45.294,19.551 25.118,19.551 25.118,19.551 C23.688,19.551 22.355,19.120 21.237,18.388 C22.512,20.332 24.707,21.626 27.193,21.626 C27.193,21.626 47.369,21.626 47.369,21.626 C49.336,21.626 51.123,20.817 52.415,19.516 C52.415,19.516 52.415,12.430 52.415,12.430 Z" id="path-16" class="cls-8" fill-rule="evenodd"/>
    <path d="M28.663,24.016 C28.663,24.016 26.735,24.016 26.735,24.016 C26.735,24.016 26.735,15.990 26.735,15.990 C26.735,15.990 28.663,15.990 28.663,15.990 C28.663,15.990 28.663,24.016 28.663,24.016 Z" id="path-17" class="cls-12" fill-rule="evenodd"/>
    <path d="M42.905,24.016 C42.905,24.016 40.977,24.016 40.977,24.016 C40.977,24.016 40.977,15.990 40.977,15.990 C40.977,15.990 42.905,15.990 42.905,15.990 C42.905,15.990 42.905,24.016 42.905,24.016 Z" id="path-18" class="cls-12" fill-rule="evenodd"/>
  </g>
</svg>
