<svg xmlns="http://www.w3.org/2000/svg" xmlns:xlink="http://www.w3.org/1999/xlink" preserveAspectRatio="xMidYMid" width="60" height="63" viewBox="0 0 60 63">
  <defs>
    <style>

      .cls-3 {
        fill: #2476ff;
      }

      .cls-5 {
        fill: #fbb713;
      }

      .cls-7 {
        fill: #000000;
        opacity: 0.2;
      }

      .cls-12 {
        fill: #000000;
        opacity: 0.35;
      }

      .cls-14 {
        fill: #ff3a2f;
      }

      .cls-20 {
        fill: #000000;
        opacity: 0.25;
      }

      .cls-27 {
        fill: #0cb04a;
      }

      .cls-28 {
        fill: #142a3b;
      }
    </style>
  </defs>
  <g id="group-329svg">
    <path d="M19.117,53.684 C19.117,53.684 13.584,53.684 13.584,53.684 C12.517,53.684 11.652,54.339 11.652,55.146 C11.652,55.953 12.517,56.608 13.584,56.608 C13.584,56.608 13.841,56.608 13.841,56.608 C14.908,56.608 15.773,57.263 15.773,58.070 C15.773,58.878 14.908,59.532 13.841,59.532 C13.841,59.532 1.947,59.532 1.947,59.532 C0.880,59.532 0.016,60.187 0.016,60.994 C0.016,61.802 0.880,62.456 1.947,62.456 C1.947,62.456 16.241,62.456 16.241,62.456 C16.241,62.456 45.458,62.456 45.458,62.456 C46.525,62.456 47.390,61.802 47.390,60.994 C47.390,60.187 46.525,59.532 45.458,59.532 C45.458,59.532 42.157,59.532 42.157,59.532 C41.090,59.532 40.225,58.878 40.225,58.070 C40.225,57.263 41.090,56.608 42.157,56.608 C42.157,56.608 55.122,56.608 55.122,56.608 C56.189,56.608 57.054,55.953 57.054,55.146 C57.054,54.339 56.189,53.684 55.122,53.684 C55.122,53.684 54.155,53.684 54.155,53.684 C54.155,53.684 19.117,53.684 19.117,53.684 Z" id="path-1" class="cls-3" fill-rule="evenodd"/>
    <path d="M53.433,62.847 C52.539,62.847 51.813,62.146 51.813,61.281 C51.813,60.415 52.539,59.714 53.433,59.714 C53.433,59.714 58.396,59.714 58.396,59.714 C59.290,59.714 60.016,60.415 60.016,61.281 C60.016,62.146 59.290,62.847 58.396,62.847 C58.396,62.847 53.433,62.847 53.433,62.847 Z" id="path-2" class="cls-3" fill-rule="evenodd"/>
    <path d="M36.517,0.012 C33.606,0.012 30.895,1.444 29.246,3.840 C35.342,5.107 39.865,9.555 39.865,14.849 C39.865,15.620 39.767,16.372 39.584,17.100 C43.031,15.824 45.341,12.528 45.341,8.836 C45.341,3.969 41.382,0.012 36.517,0.012 Z" id="path-3" class="cls-5" fill-rule="evenodd"/>
    <path d="M11.566,14.849 C11.566,9.449 16.270,4.925 22.552,3.764 C20.895,1.416 18.217,0.012 15.340,0.012 C10.475,0.012 6.517,3.969 6.517,8.836 C6.517,12.357 8.625,15.502 11.808,16.895 C11.657,16.230 11.566,15.549 11.566,14.849 Z" id="path-4" class="cls-5" fill-rule="evenodd"/>
    <path d="M36.517,0.012 C36.343,0.012 36.172,0.034 36.000,0.044 C40.574,0.367 44.199,4.181 44.199,8.836 C44.199,12.061 42.436,14.982 39.693,16.520 C39.658,16.713 39.632,16.909 39.584,17.100 C43.031,15.824 45.341,12.528 45.341,8.836 C45.341,3.969 41.382,0.012 36.517,0.012 Z" id="path-5" class="cls-7" fill-rule="evenodd"/>
    <path d="M7.659,8.836 C7.659,4.180 11.285,0.366 15.860,0.044 C15.687,0.033 15.516,0.012 15.340,0.012 C10.475,0.012 6.517,3.969 6.517,8.836 C6.517,12.357 8.625,15.502 11.808,16.895 C11.756,16.668 11.722,16.436 11.686,16.204 C9.225,14.607 7.659,11.864 7.659,8.836 Z" id="path-6" class="cls-7" fill-rule="evenodd"/>
    <path d="M48.221,28.937 C47.708,27.065 46.559,25.541 44.986,24.644 C43.262,23.663 41.152,23.468 38.893,24.090 C38.302,24.248 37.718,24.480 37.141,24.744 C39.440,28.667 40.818,33.526 40.818,38.178 C40.818,38.186 40.817,38.193 40.817,38.201 C41.449,38.132 42.072,38.034 42.670,37.871 C44.894,37.259 46.594,36.047 47.583,34.365 C48.518,32.773 48.745,30.844 48.221,28.937 Z" id="path-7" class="cls-5" fill-rule="evenodd"/>
    <path d="M48.221,28.937 C47.806,27.422 46.958,26.155 45.822,25.243 C46.387,25.980 46.817,26.840 47.079,27.795 C47.602,29.702 47.375,31.631 46.441,33.223 C45.452,34.905 43.752,36.117 41.527,36.729 C41.280,36.796 41.026,36.847 40.771,36.894 C40.794,37.323 40.818,37.752 40.818,38.178 C40.818,38.186 40.817,38.193 40.817,38.201 C41.449,38.132 42.072,38.034 42.670,37.871 C44.894,37.259 46.594,36.047 47.583,34.365 C48.518,32.773 48.745,30.844 48.221,28.937 Z" id="path-8" class="cls-7" fill-rule="evenodd"/>
    <path d="M14.309,24.654 C13.792,24.428 13.271,24.231 12.748,24.090 C10.487,23.468 8.377,23.661 6.649,24.644 C5.077,25.541 3.927,27.065 3.416,28.935 C2.891,30.844 3.118,32.773 4.053,34.365 C5.041,36.047 6.741,37.259 8.967,37.871 C9.381,37.984 10.013,38.080 10.580,38.151 C10.585,33.471 11.979,28.583 14.309,24.654 Z" id="path-9" class="cls-5" fill-rule="evenodd"/>
    <path d="M12.834,24.118 C10.712,27.940 9.442,32.563 9.437,37.009 C8.871,36.937 8.239,36.842 7.825,36.729 C6.559,36.381 5.470,35.832 4.578,35.119 C5.596,36.410 7.091,37.356 8.967,37.871 C9.381,37.984 10.013,38.080 10.580,38.151 C10.585,33.471 11.979,28.583 14.309,24.654 C13.821,24.441 13.329,24.257 12.834,24.118 Z" id="path-10" class="cls-12" fill-rule="evenodd"/>
    <path d="M35.858,22.768 C33.285,24.900 29.692,26.231 25.715,26.231 C21.728,26.231 18.128,24.892 15.554,22.751 C12.472,26.930 10.579,32.703 10.579,38.178 C10.579,39.445 10.701,40.668 10.900,41.848 C11.822,40.689 12.969,39.945 14.263,39.717 C18.380,38.978 22.226,43.745 23.006,48.163 C23.418,50.501 22.970,52.604 21.863,54.189 C23.093,54.484 24.376,54.641 25.699,54.641 C27.062,54.641 28.386,54.475 29.651,54.158 C29.637,54.138 29.618,54.123 29.604,54.103 C28.507,52.489 28.139,50.433 28.541,48.163 C29.319,43.745 33.169,38.980 37.285,39.717 C38.583,39.946 39.670,40.655 40.526,41.661 C40.706,40.545 40.818,39.385 40.818,38.178 C40.818,32.712 38.929,26.945 35.858,22.768 Z" id="path-11" class="cls-5" fill-rule="evenodd"/>
    <path d="M35.958,39.675 C35.017,33.625 30.942,27.645 25.699,27.645 C20.301,27.645 16.358,33.650 15.434,39.665 C19.087,39.902 22.301,44.168 23.006,48.163 C23.418,50.501 22.970,52.604 21.863,54.189 C23.093,54.484 24.376,54.641 25.699,54.641 C27.062,54.641 28.386,54.475 29.651,54.158 C29.637,54.138 29.618,54.123 29.604,54.103 C28.507,52.489 28.139,50.433 28.541,48.163 C29.235,44.224 32.371,40.022 35.958,39.675 Z" id="path-12" class="cls-14" fill-rule="evenodd"/>
    <path d="M25.699,28.788 C30.622,28.788 34.513,34.058 35.750,39.709 C35.820,39.700 35.888,39.682 35.958,39.675 C35.017,33.625 30.942,27.645 25.699,27.645 C20.301,27.645 16.358,33.650 15.434,39.665 C15.503,39.670 15.571,39.686 15.640,39.693 C16.852,34.073 20.635,28.788 25.699,28.788 Z" id="path-13" class="cls-12" fill-rule="evenodd"/>
    <path d="M28.408,50.504 C28.328,51.879 28.550,53.150 29.064,54.268 C29.258,54.227 29.459,54.206 29.651,54.158 C29.637,54.138 29.618,54.123 29.604,54.103 C28.899,53.066 28.500,51.845 28.408,50.504 Z" id="path-14" class="cls-12" fill-rule="evenodd"/>
    <path d="M23.131,50.403 C23.039,51.838 22.602,53.131 21.863,54.189 C22.055,54.235 22.255,54.255 22.449,54.294 C22.977,53.158 23.222,51.838 23.131,50.403 Z" id="path-15" class="cls-12" fill-rule="evenodd"/>
    <path d="M13.121,37.432 C12.195,37.596 11.349,38.033 10.602,38.687 C10.630,39.771 10.728,40.829 10.900,41.848 C11.822,40.689 12.969,39.945 14.263,39.717 C16.996,39.226 19.604,41.167 21.281,43.817 C19.874,40.114 16.598,36.809 13.121,37.432 Z" id="path-16" class="cls-12" fill-rule="evenodd"/>
    <path d="M37.341,25.107 C38.817,28.465 39.676,32.241 39.676,35.894 C39.676,37.101 39.563,38.261 39.384,39.376 C38.528,38.370 37.441,37.661 36.142,37.432 C32.027,36.696 28.177,41.460 27.399,45.879 C26.996,48.149 27.365,50.205 28.462,51.818 C28.476,51.839 28.495,51.854 28.509,51.874 C27.243,52.190 25.920,52.357 24.556,52.357 C23.962,52.357 23.379,52.315 22.801,52.253 C22.582,52.958 22.268,53.609 21.863,54.189 C23.093,54.484 24.376,54.641 25.699,54.641 C27.062,54.641 28.386,54.475 29.651,54.158 C29.637,54.138 29.618,54.123 29.604,54.103 C28.507,52.489 28.139,50.433 28.541,48.163 C29.319,43.745 33.169,38.980 37.285,39.717 C38.583,39.946 39.670,40.655 40.526,41.661 C40.706,40.545 40.818,39.385 40.818,38.178 C40.818,33.667 39.517,28.966 37.341,25.107 Z" id="path-17" class="cls-12" fill-rule="evenodd"/>
    <path d="M8.855,14.779 C9.672,15.665 10.667,16.396 11.808,16.895 C11.657,16.230 11.566,15.549 11.566,14.849 C11.566,9.449 16.270,4.925 22.552,3.764 C22.040,3.040 21.423,2.418 20.742,1.887 C13.890,3.591 8.894,8.722 8.855,14.779 Z" id="path-18" class="cls-20" fill-rule="evenodd"/>
    <path d="M15.961,57.123 C15.961,57.123 15.961,57.123 15.961,57.123 C12.387,57.123 9.627,54.581 8.935,50.645 C8.538,48.397 8.818,45.927 9.701,43.872 C10.706,41.533 12.326,40.058 14.263,39.717 C18.380,38.978 22.226,43.745 23.006,48.163 C23.795,52.639 21.452,56.275 17.310,57.004 C16.856,57.085 16.405,57.123 15.961,57.123 Z" id="path-19" class="cls-5" fill-rule="evenodd"/>
    <path d="M35.586,57.123 C35.586,57.123 35.586,57.123 35.586,57.123 C35.143,57.123 34.692,57.085 34.237,57.004 C32.288,56.660 30.643,55.632 29.604,54.103 C28.507,52.489 28.139,50.433 28.541,48.163 C29.319,43.745 33.169,38.980 37.285,39.717 C41.431,40.449 43.421,46.064 42.613,50.645 C41.920,54.581 39.161,57.123 35.586,57.123 Z" id="path-20" class="cls-5" fill-rule="evenodd"/>
    <path d="M23.006,48.163 C22.226,43.745 18.380,38.978 14.263,39.717 C14.168,39.733 14.078,39.766 13.984,39.788 C17.282,40.558 20.071,44.475 20.722,48.163 C21.511,52.639 19.167,56.275 15.026,57.004 C14.960,57.016 14.895,57.011 14.829,57.022 C15.197,57.080 15.572,57.123 15.961,57.123 C16.405,57.123 16.856,57.085 17.310,57.004 C21.452,56.275 23.795,52.639 23.006,48.163 Z" id="path-21" class="cls-12" fill-rule="evenodd"/>
    <path d="M37.285,39.717 C36.604,39.596 35.933,39.636 35.280,39.789 C39.231,40.722 41.118,46.170 40.328,50.645 C39.711,54.152 37.448,56.541 34.435,57.022 C34.822,57.080 35.208,57.123 35.587,57.123 C39.161,57.123 41.920,54.581 42.613,50.645 C43.421,46.064 41.431,40.449 37.285,39.717 Z" id="path-22" class="cls-12" fill-rule="evenodd"/>
    <path d="M25.715,26.231 C17.913,26.231 11.566,21.125 11.566,14.849 C11.566,8.573 17.913,3.468 25.715,3.468 C33.517,3.468 39.865,8.573 39.865,14.849 C39.865,21.125 33.517,26.231 25.715,26.231 Z" id="path-23" class="cls-5" fill-rule="evenodd"/>
    <path d="M31.981,4.660 C35.375,6.740 37.580,10.016 37.580,13.707 C37.580,19.983 31.233,25.089 23.431,25.089 C21.180,25.089 19.057,24.652 17.166,23.897 C19.544,25.355 22.501,26.231 25.715,26.231 C33.517,26.231 39.865,21.125 39.865,14.849 C39.865,10.384 36.644,6.522 31.981,4.660 Z" id="path-24" class="cls-7" fill-rule="evenodd"/>
    <circle id="circle-1" class="cls-27" cx="21" cy="13" r="5"/>
    <path d="M25.715,20.077 C24.791,20.077 24.040,19.325 24.040,18.401 C24.040,17.477 24.791,16.725 25.715,16.725 C26.639,16.725 27.391,17.477 27.391,18.401 C27.391,19.325 26.639,20.077 25.715,20.077 Z" id="path-25" class="cls-28" fill-rule="evenodd"/>
    <path d="M26.857,16.725 C26.656,16.725 26.465,16.767 26.287,16.832 C26.929,17.067 27.391,17.679 27.391,18.401 C27.391,19.124 26.929,19.735 26.287,19.970 C26.465,20.036 26.656,20.077 26.857,20.077 C27.782,20.077 28.533,19.325 28.533,18.401 C28.533,17.477 27.782,16.725 26.857,16.725 Z" id="path-26" class="cls-12" fill-rule="evenodd"/>
    <circle id="circle-2" class="cls-27" cx="31" cy="13" r="5"/>
    <path d="M20.878,8.841 C20.682,8.841 20.495,8.870 20.307,8.899 C22.100,9.176 23.481,10.717 23.481,12.586 C23.481,14.456 22.100,15.997 20.307,16.274 C20.495,16.303 20.682,16.331 20.878,16.331 C22.943,16.331 24.623,14.651 24.623,12.586 C24.623,10.521 22.943,8.841 20.878,8.841 Z" id="path-27" class="cls-12" fill-rule="evenodd"/>
    <path d="M30.865,8.841 C30.669,8.841 30.481,8.870 30.294,8.899 C32.087,9.176 33.468,10.717 33.468,12.586 C33.468,14.456 32.087,15.997 30.294,16.274 C30.481,16.303 30.669,16.331 30.865,16.331 C32.930,16.331 34.610,14.651 34.610,12.586 C34.610,10.521 32.930,8.841 30.865,8.841 Z" id="path-28" class="cls-12" fill-rule="evenodd"/>
  </g>
</svg>
