<svg xmlns="http://www.w3.org/2000/svg" xmlns:xlink="http://www.w3.org/1999/xlink" preserveAspectRatio="xMidYMid" width="57" height="61" viewBox="0 0 57 61">
  <defs>
    <style>

      .cls-3 {
        fill: #ededed;
      }

      .cls-4 {
        fill: #010101;
        opacity: 0.25;
      }

      .cls-5 {
        fill: #ff3a2f;
      }

      .cls-6 {
        fill: #ffffff;
      }

      .cls-7 {
        fill: #010101;
        opacity: 0.35;
      }

      .cls-8 {
        fill: #090909;
        opacity: 0.35;
      }

      .cls-10 {
        fill: #a72720;
      }

      .cls-12 {
        fill: #fbb713;
      }
    </style>
  </defs>
  <g id="group-156svg">
    <path d="M25.769,46.292 C25.769,48.010 24.397,49.402 22.706,49.402 C22.706,49.402 7.385,49.402 7.385,49.402 C5.691,49.402 4.320,48.010 4.320,46.292 C4.320,46.292 4.320,24.257 4.320,24.257 C4.320,22.538 5.691,21.146 7.385,21.146 C7.385,21.146 22.706,21.146 22.706,21.146 C24.397,21.146 25.769,22.538 25.769,24.257 C25.769,24.257 25.769,46.292 25.769,46.292 Z" id="path-1" class="cls-3" fill-rule="evenodd"/>
    <path d="M22.706,21.146 C22.706,21.146 7.385,21.146 7.385,21.146 C5.779,21.146 4.478,22.402 4.346,23.996 C4.346,23.996 18.906,23.996 18.906,23.996 C20.598,23.996 21.970,25.388 21.970,27.107 C21.970,27.107 21.970,49.142 21.970,49.142 C21.970,49.231 21.951,49.315 21.944,49.402 C21.944,49.402 22.706,49.402 22.706,49.402 C24.397,49.402 25.769,48.010 25.769,46.292 C25.769,46.292 25.769,24.257 25.769,24.257 C25.769,22.538 24.397,21.146 22.706,21.146 Z" id="path-2" class="cls-4" fill-rule="evenodd"/>
    <path d="M15.044,12.236 C9.681,12.236 5.332,16.650 5.332,22.097 C5.332,22.097 24.756,22.097 24.756,22.097 C24.756,16.650 20.408,12.236 15.044,12.236 Z" id="path-3" class="cls-5" fill-rule="evenodd"/>
    <path d="M7.774,19.343 C7.604,19.343 7.432,19.300 7.273,19.208 C6.796,18.930 6.633,18.318 6.910,17.842 C7.561,16.719 8.494,15.780 9.605,15.127 C10.083,14.848 10.694,15.007 10.975,15.483 C11.254,15.959 11.095,16.572 10.619,16.852 C9.803,17.331 9.119,18.020 8.641,18.845 C8.455,19.165 8.119,19.343 7.774,19.343 Z" id="path-4" class="cls-6" fill-rule="evenodd"/>
    <path d="M15.060,12.237 C16.128,13.029 17.031,14.034 17.708,15.191 C19.003,17.407 17.347,20.196 14.779,20.196 C14.779,20.196 5.517,20.196 5.517,20.196 C5.398,20.812 5.332,21.446 5.332,22.097 C5.332,22.097 24.757,22.097 24.757,22.097 C24.757,16.656 20.418,12.246 15.060,12.237 Z" id="path-5" class="cls-7" fill-rule="evenodd"/>
    <path d="M11.430,44.159 C10.981,44.159 10.617,43.796 10.617,43.347 C10.617,43.347 10.617,26.269 10.617,26.269 C10.617,25.821 10.981,25.457 11.430,25.457 C11.878,25.457 12.242,25.821 12.242,26.269 C12.242,26.269 12.242,43.347 12.242,43.347 C12.242,43.796 11.878,44.159 11.430,44.159 Z" id="path-6" class="cls-8" fill-rule="evenodd"/>
    <path d="M19.153,44.159 C18.705,44.159 18.341,43.796 18.341,43.347 C18.341,43.347 18.341,26.269 18.341,26.269 C18.341,25.821 18.705,25.457 19.153,25.457 C19.601,25.457 19.966,25.821 19.966,26.269 C19.966,26.269 19.966,43.347 19.966,43.347 C19.966,43.796 19.601,44.159 19.153,44.159 Z" id="path-7" class="cls-8" fill-rule="evenodd"/>
    <path d="M12.796,16.770 C12.063,16.770 11.467,16.171 11.467,15.433 C11.467,14.696 12.063,14.097 12.796,14.097 C13.528,14.097 14.124,14.696 14.124,15.433 C14.124,16.171 13.528,16.770 12.796,16.770 ZM12.796,15.146 C12.633,15.146 12.499,15.275 12.499,15.433 C12.499,15.592 12.633,15.721 12.796,15.721 C12.959,15.721 13.092,15.592 13.092,15.433 C13.092,15.275 12.959,15.146 12.796,15.146 Z" id="path-8" class="cls-10" fill-rule="evenodd"/>
    <path d="M17.269,16.770 C16.537,16.770 15.941,16.171 15.941,15.433 C15.941,14.696 16.537,14.097 17.269,14.097 C18.002,14.097 18.599,14.696 18.599,15.433 C18.599,16.171 18.002,16.770 17.269,16.770 ZM17.269,15.146 C17.106,15.146 16.974,15.275 16.974,15.433 C16.974,15.592 17.106,15.721 17.269,15.721 C17.433,15.721 17.566,15.592 17.566,15.433 C17.566,15.275 17.433,15.146 17.269,15.146 Z" id="path-9" class="cls-10" fill-rule="evenodd"/>
    <path d="M34.165,3.119 C34.165,1.400 35.537,0.007 37.228,0.007 C37.228,0.007 52.551,0.007 52.551,0.007 C54.244,0.007 55.616,1.400 55.616,3.119 C55.616,3.119 55.616,25.154 55.616,25.154 C55.616,26.872 54.244,28.264 52.551,28.264 C52.551,28.264 37.228,28.264 37.228,28.264 C35.537,28.264 34.165,26.872 34.165,25.154 C34.165,25.154 34.165,3.119 34.165,3.119 Z" id="path-10" class="cls-12" fill-rule="evenodd"/>
    <path d="M44.891,38.124 C50.254,38.124 54.602,33.711 54.602,28.264 C54.602,28.264 35.179,28.264 35.179,28.264 C35.179,33.711 39.526,38.124 44.891,38.124 Z" id="path-11" class="cls-5" fill-rule="evenodd"/>
    <path d="M52.551,0.007 C52.551,0.007 50.840,0.007 50.840,0.007 C50.848,0.095 50.866,0.180 50.866,0.269 C50.866,0.269 50.866,22.303 50.866,22.303 C50.866,24.022 49.494,25.415 47.801,25.415 C47.801,25.415 34.191,25.415 34.191,25.415 C34.324,27.009 35.625,28.264 37.228,28.264 C37.228,28.264 52.551,28.264 52.551,28.264 C54.244,28.264 55.616,26.872 55.616,25.153 C55.616,25.153 55.616,3.119 55.616,3.119 C55.616,1.400 54.244,0.007 52.551,0.007 Z" id="path-12" class="cls-4" fill-rule="evenodd"/>
    <path d="M50.619,28.264 C49.746,32.800 45.813,36.224 41.092,36.224 C40.299,36.224 39.533,36.118 38.796,35.936 C40.463,37.302 42.581,38.124 44.891,38.124 C50.254,38.124 54.602,33.711 54.602,28.264 C54.602,28.264 50.619,28.264 50.619,28.264 Z" id="path-13" class="cls-7" fill-rule="evenodd"/>
    <path d="M39.753,34.412 C39.582,34.412 39.410,34.369 39.252,34.277 C38.129,33.625 37.190,32.693 36.538,31.582 C36.259,31.106 36.418,30.493 36.894,30.214 C37.371,29.934 37.982,30.093 38.263,30.570 C38.741,31.384 39.431,32.068 40.256,32.548 C40.733,32.825 40.896,33.437 40.619,33.915 C40.433,34.234 40.098,34.412 39.753,34.412 Z" id="path-14" class="cls-6" fill-rule="evenodd"/>
    <path d="M48.505,23.954 C48.057,23.954 47.692,23.590 47.692,23.142 C47.692,23.142 47.692,6.064 47.692,6.064 C47.692,5.615 48.057,5.252 48.505,5.252 C48.953,5.252 49.317,5.615 49.317,6.064 C49.317,6.064 49.317,23.142 49.317,23.142 C49.317,23.590 48.953,23.954 48.505,23.954 Z" id="path-15" class="cls-8" fill-rule="evenodd"/>
    <path d="M40.781,23.954 C40.333,23.954 39.969,23.590 39.969,23.142 C39.969,23.142 39.969,6.064 39.969,6.064 C39.969,5.615 40.333,5.252 40.781,5.252 C41.229,5.252 41.594,5.615 41.594,6.064 C41.594,6.064 41.594,23.142 41.594,23.142 C41.594,23.590 41.229,23.954 40.781,23.954 Z" id="path-16" class="cls-8" fill-rule="evenodd"/>
    <path d="M25.983,54.084 C25.983,54.084 28.107,54.084 28.107,54.084 C28.517,54.084 28.849,53.652 28.849,53.118 C28.849,52.585 28.517,52.152 28.107,52.152 C28.107,52.152 28.008,52.152 28.008,52.152 C27.599,52.152 27.267,51.720 27.267,51.186 C27.267,50.653 27.599,50.221 28.008,50.221 C28.008,50.221 32.573,50.221 32.573,50.221 C32.982,50.221 33.314,49.789 33.314,49.255 C33.314,48.721 32.982,48.289 32.573,48.289 C32.573,48.289 27.087,48.289 27.087,48.289 C27.087,48.289 15.875,48.289 15.875,48.289 C15.465,48.289 15.134,48.721 15.134,49.255 C15.134,49.789 15.465,50.221 15.875,50.221 C15.875,50.221 17.142,50.221 17.142,50.221 C17.551,50.221 17.883,50.653 17.883,51.186 C17.883,51.720 17.551,52.152 17.142,52.152 C17.142,52.152 11.112,52.152 11.112,52.152 C10.703,52.152 10.371,52.585 10.371,53.118 C10.371,53.652 10.703,54.084 11.112,54.084 C11.112,54.084 12.537,54.084 12.537,54.084 C12.537,54.084 25.983,54.084 25.983,54.084 Z" id="path-17" class="cls-12" fill-rule="evenodd"/>
    <path d="M48.011,43.781 C48.011,43.781 48.011,42.414 48.011,42.414 C48.011,42.150 47.687,41.936 47.287,41.936 C46.888,41.936 46.563,42.150 46.563,42.414 C46.563,42.414 46.563,42.478 46.563,42.478 C46.563,42.742 46.240,42.955 45.841,42.955 C45.441,42.955 45.117,42.742 45.117,42.478 C45.117,42.478 45.117,39.538 45.117,39.538 C45.117,39.274 44.794,39.060 44.394,39.060 C43.995,39.060 43.671,39.274 43.671,39.538 C43.671,39.538 43.671,43.071 43.671,43.071 C43.671,43.071 43.671,50.292 43.671,50.292 C43.671,50.555 43.995,50.769 44.394,50.769 C44.794,50.769 45.117,50.555 45.117,50.292 C45.117,50.292 45.117,49.476 45.117,49.476 C45.117,49.212 45.441,48.999 45.841,48.999 C46.240,48.999 46.563,49.212 46.563,49.476 C46.563,49.476 46.563,53.359 46.563,53.359 C46.563,53.623 46.888,53.837 47.287,53.837 C47.687,53.837 48.011,53.623 48.011,53.359 C48.011,53.359 48.011,52.441 48.011,52.441 C48.011,52.441 48.011,43.781 48.011,43.781 Z" id="path-18" class="cls-12" fill-rule="evenodd"/>
    <path d="M40.810,44.361 C40.810,44.361 40.810,43.690 40.810,43.690 C40.810,43.560 40.651,43.456 40.456,43.456 C40.260,43.456 40.101,43.560 40.101,43.690 C40.101,43.690 40.101,43.722 40.101,43.722 C40.101,43.851 39.941,43.955 39.745,43.955 C39.550,43.955 39.391,43.851 39.391,43.722 C39.391,43.722 39.391,42.277 39.391,42.277 C39.391,42.148 39.231,42.043 39.035,42.043 C38.839,42.043 38.680,42.148 38.680,42.277 C38.680,42.277 38.680,44.012 38.680,44.012 C38.680,44.012 38.680,47.558 38.680,47.558 C38.680,47.687 38.839,47.793 39.035,47.793 C39.231,47.793 39.391,47.687 39.391,47.558 C39.391,47.558 39.391,47.157 39.391,47.157 C39.391,47.028 39.550,46.922 39.745,46.922 C39.941,46.922 40.101,47.028 40.101,47.157 C40.101,47.157 40.101,49.064 40.101,49.064 C40.101,49.193 40.260,49.299 40.456,49.299 C40.651,49.299 40.810,49.193 40.810,49.064 C40.810,49.064 40.810,48.613 40.810,48.613 C40.810,48.613 40.810,44.361 40.810,44.361 Z" id="path-19" class="cls-12" fill-rule="evenodd"/>
    <path d="M43.671,54.761 C43.671,54.049 44.042,53.471 44.500,53.471 C44.958,53.471 45.329,54.049 45.329,54.761 C45.329,54.761 45.329,58.716 45.329,58.716 C45.329,59.429 44.958,60.007 44.500,60.007 C44.042,60.007 43.671,59.429 43.671,58.716 C43.671,58.716 43.671,54.761 43.671,54.761 Z" id="path-20" class="cls-12" fill-rule="evenodd"/>
    <path d="M6.478,52.364 C7.360,52.364 8.074,52.859 8.074,53.471 C8.074,54.083 7.360,54.579 6.478,54.579 C6.478,54.579 1.590,54.579 1.590,54.579 C0.708,54.579 -0.006,54.083 -0.006,53.471 C-0.006,52.859 0.708,52.364 1.590,52.364 C1.590,52.364 6.478,52.364 6.478,52.364 Z" id="path-21" class="cls-12" fill-rule="evenodd"/>
    <path d="M51.637,44.471 C51.637,43.759 52.008,43.181 52.466,43.181 C52.924,43.181 53.295,43.759 53.295,44.471 C53.295,44.471 53.295,48.426 53.295,48.426 C53.295,49.139 52.924,49.717 52.466,49.717 C52.008,49.717 51.637,49.139 51.637,48.426 C51.637,48.426 51.637,44.471 51.637,44.471 Z" id="path-22" class="cls-12" fill-rule="evenodd"/>
  </g>
</svg>
