<svg xmlns="http://www.w3.org/2000/svg" xmlns:xlink="http://www.w3.org/1999/xlink" preserveAspectRatio="xMidYMid" width="60" height="60" viewBox="0 0 60 60">
  <defs>
    <style>

      .cls-3 {
        fill: #2476ff;
      }

      .cls-7 {
        fill: #fbb713;
      }

      .cls-8 {
        fill: #020403;
        opacity: 0.25;
      }

      .cls-11 {
        fill: #0cb04a;
      }
    </style>
  </defs>
  <g id="group-95svg">
    <path d="M53.301,49.623 C53.301,49.623 55.237,49.623 55.237,49.623 C55.611,49.623 55.914,49.790 55.914,49.997 C55.914,50.205 55.611,50.373 55.237,50.373 C55.237,50.373 55.147,50.373 55.147,50.373 C54.774,50.373 54.471,50.541 54.471,50.748 C54.471,50.955 54.774,51.123 55.147,51.123 C55.147,51.123 59.312,51.123 59.312,51.123 C59.687,51.123 59.989,51.291 59.989,51.498 C59.989,51.705 59.687,51.873 59.312,51.873 C59.312,51.873 54.308,51.873 54.308,51.873 C54.308,51.873 44.076,51.873 44.076,51.873 C43.703,51.873 43.399,51.705 43.399,51.498 C43.399,51.291 43.703,51.123 44.076,51.123 C44.076,51.123 45.232,51.123 45.232,51.123 C45.605,51.123 45.908,50.955 45.908,50.748 C45.908,50.541 45.605,50.373 45.232,50.373 C45.232,50.373 39.730,50.373 39.730,50.373 C39.357,50.373 39.055,50.205 39.055,49.997 C39.055,49.790 39.357,49.623 39.730,49.623 C39.730,49.623 41.031,49.623 41.031,49.623 C41.031,49.623 53.301,49.623 53.301,49.623 Z" id="path-1" class="cls-3" fill-rule="evenodd"/>
    <path d="M23.193,55.564 C23.193,55.564 27.413,55.564 27.413,55.564 C28.226,55.564 28.887,55.860 28.887,56.225 C28.887,56.590 28.226,56.886 27.413,56.886 C27.413,56.886 27.217,56.886 27.217,56.886 C26.403,56.886 25.744,57.182 25.744,57.548 C25.744,57.913 26.403,58.209 27.217,58.209 C27.217,58.209 36.287,58.209 36.287,58.209 C37.102,58.209 37.761,58.506 37.761,58.871 C37.761,59.236 37.102,59.532 36.287,59.532 C36.287,59.532 25.387,59.532 25.387,59.532 C25.387,59.532 13.405,59.532 13.405,59.532 C12.592,59.532 11.933,59.236 11.933,58.871 C11.933,58.506 12.592,58.209 13.405,58.209 C13.405,58.209 15.923,58.209 15.923,58.209 C16.736,58.209 17.396,57.913 17.396,57.548 C17.396,57.182 16.736,56.886 15.923,56.886 C15.923,56.886 3.942,56.886 3.942,56.886 C3.129,56.886 2.469,56.590 2.469,56.225 C2.469,55.860 3.129,55.564 3.942,55.564 C3.942,55.564 6.773,55.564 6.773,55.564 C6.773,55.564 23.193,55.564 23.193,55.564 Z" id="path-2" class="cls-3" fill-rule="evenodd"/>
    <path d="M49.310,60.104 C50.239,60.104 50.992,59.766 50.992,59.349 C50.992,58.933 50.239,58.594 49.310,58.594 C49.310,58.594 44.155,58.594 44.155,58.594 C43.227,58.594 42.474,58.933 42.474,59.349 C42.474,59.766 43.227,60.104 44.155,60.104 C44.155,60.104 49.310,60.104 49.310,60.104 Z" id="path-3" class="cls-3" fill-rule="evenodd"/>
    <path d="M38.605,52.279 C39.303,52.279 39.868,52.140 39.868,51.969 C39.868,51.797 39.303,51.658 38.605,51.658 C38.605,51.658 34.738,51.658 34.738,51.658 C34.042,51.658 33.476,51.797 33.476,51.969 C33.476,52.140 34.042,52.279 34.738,52.279 C34.738,52.279 38.605,52.279 38.605,52.279 Z" id="path-4" class="cls-3" fill-rule="evenodd"/>
    <path d="M42.775,44.891 C42.775,44.891 42.775,21.894 42.775,21.894 C42.775,21.894 53.472,21.894 53.472,21.894 C53.472,21.894 53.472,7.988 53.472,7.988 C53.472,7.988 39.302,0.210 39.302,0.210 C38.545,-0.206 37.593,0.076 37.193,0.842 C35.633,3.840 31.595,7.364 26.852,7.364 C22.104,7.364 18.063,3.826 16.506,0.833 C16.109,0.070 15.163,-0.213 14.406,0.196 C14.406,0.196 -0.011,7.988 -0.011,7.988 C-0.011,7.988 -0.011,21.894 -0.011,21.894 C-0.011,21.894 10.686,21.894 10.686,21.894 C10.686,21.894 10.686,44.891 10.686,44.891 C16.889,44.891 21.917,47.780 21.917,53.983 C21.917,53.983 31.544,53.983 31.544,53.983 C31.544,47.780 36.572,44.891 42.775,44.891 Z" id="path-5" class="cls-7" fill-rule="evenodd"/>
    <path d="M23.287,7.364 C23.895,7.364 24.489,7.304 25.070,7.198 C21.112,6.467 17.865,3.444 16.506,0.833 C16.109,0.070 15.163,-0.213 14.406,0.196 C14.406,0.196 13.008,0.952 13.008,0.952 C14.609,3.919 18.601,7.364 23.287,7.364 Z" id="path-6" class="cls-8" fill-rule="evenodd"/>
    <path d="M39.210,44.891 C33.007,44.891 27.978,47.780 27.978,53.983 C27.978,53.983 31.544,53.983 31.544,53.983 C31.544,47.780 36.572,44.891 42.775,44.891 C42.775,44.891 42.775,21.894 42.775,21.894 C42.775,21.894 39.210,21.894 39.210,21.894 C39.210,21.894 39.210,44.891 39.210,44.891 Z" id="path-7" class="cls-8" fill-rule="evenodd"/>
    <path d="M39.302,0.210 C38.545,-0.206 37.593,0.076 37.193,0.842 C37.172,0.884 37.145,0.927 37.121,0.970 C37.121,0.970 49.906,7.988 49.906,7.988 C49.906,7.988 49.906,21.894 49.906,21.894 C49.906,21.894 53.472,21.894 53.472,21.894 C53.472,21.894 53.472,7.988 53.472,7.988 C53.472,7.988 39.302,0.210 39.302,0.210 Z" id="path-8" class="cls-8" fill-rule="evenodd"/>
    <path d="M32.736,22.729 C32.736,25.848 30.207,28.377 27.089,28.377 C23.970,28.377 21.440,25.848 21.440,22.729 C21.440,19.610 23.970,17.081 27.089,17.081 C30.207,17.081 32.736,19.610 32.736,22.729 Z" id="path-9" class="cls-11" fill-rule="evenodd"/>
  </g>
</svg>
