<svg xmlns="http://www.w3.org/2000/svg" xmlns:xlink="http://www.w3.org/1999/xlink" preserveAspectRatio="xMidYMid" width="60" height="57" viewBox="0 0 60 57">
  <defs>
    <style>

      .cls-3 {
        fill: #2476ff;
      }

      .cls-5 {
        fill: #fbb713;
      }

      .cls-6 {
        fill: #000000;
        opacity: 0.25;
      }

      .cls-11 {
        fill: #142a3b;
      }

      .cls-12 {
        fill: #ededed;
      }
    </style>
  </defs>
  <g id="group-27svg">
    <path d="M46.018,50.838 C46.018,50.838 50.071,50.838 50.071,50.838 C50.852,50.838 51.486,51.239 51.486,51.735 C51.486,52.230 50.852,52.631 50.071,52.631 C50.071,52.631 49.882,52.631 49.882,52.631 C49.101,52.631 48.467,53.033 48.467,53.528 C48.467,54.023 49.101,54.424 49.882,54.424 C49.882,54.424 58.596,54.424 58.596,54.424 C59.377,54.424 60.011,54.826 60.011,55.321 C60.011,55.816 59.377,56.217 58.596,56.217 C58.596,56.217 48.124,56.217 48.124,56.217 C48.124,56.217 36.616,56.217 36.616,56.217 C35.834,56.217 35.201,55.816 35.201,55.321 C35.201,54.826 35.834,54.424 36.616,54.424 C36.616,54.424 39.034,54.424 39.034,54.424 C39.815,54.424 40.449,54.023 40.449,53.528 C40.449,53.033 39.815,52.631 39.034,52.631 C39.034,52.631 27.525,52.631 27.525,52.631 C26.743,52.631 26.110,52.230 26.110,51.735 C26.110,51.239 26.743,50.838 27.525,50.838 C27.525,50.838 30.245,50.838 30.245,50.838 C30.245,50.838 46.018,50.838 46.018,50.838 Z" id="path-1" class="cls-3" fill-rule="evenodd"/>
    <path d="M8.638,48.922 C9.810,48.922 10.761,48.320 10.761,47.577 C10.761,46.834 9.810,46.232 8.638,46.232 C8.638,46.232 2.133,46.232 2.133,46.232 C0.961,46.232 0.011,46.834 0.011,47.577 C0.011,48.320 0.961,48.922 2.133,48.922 C2.133,48.922 8.638,48.922 8.638,48.922 Z" id="path-2" class="cls-3" fill-rule="evenodd"/>
    <path d="M23.165,50.680 C23.165,50.680 26.395,50.680 26.395,50.680 C26.395,50.680 27.733,43.740 27.733,43.740 C27.733,43.740 27.733,51.100 27.733,51.100 C27.733,51.100 33.424,51.100 33.424,51.100 C33.424,51.100 33.424,43.444 33.424,43.444 C33.424,43.444 37.351,50.680 40.461,50.680 C40.461,50.680 43.573,50.680 43.573,50.680 C41.665,45.355 41.910,44.194 43.573,39.598 C43.573,39.598 43.573,28.919 43.573,28.919 C43.573,25.446 40.757,22.629 37.283,22.629 C37.283,22.629 18.183,22.629 18.183,22.629 C14.710,22.629 11.894,25.446 11.894,28.919 C11.894,28.919 11.894,50.566 11.894,50.566 C11.894,50.566 16.655,50.566 16.655,50.566 C16.655,50.566 16.655,42.851 16.655,42.851 C16.655,42.851 17.760,50.353 17.760,50.353 C17.760,50.353 20.074,50.353 20.074,50.353 C20.074,50.353 21.066,44.732 21.066,44.732 C21.066,44.732 23.165,50.680 23.165,50.680 Z" id="path-3" class="cls-5" fill-rule="evenodd"/>
    <path d="M24.133,50.680 C24.133,50.680 24.133,46.141 24.133,46.141 C24.133,46.141 23.258,50.680 23.258,50.680 C23.258,50.680 24.133,50.680 24.133,50.680 Z" id="path-4" class="cls-6" fill-rule="evenodd"/>
    <path d="M17.466,47.132 C17.466,47.132 17.368,47.689 17.368,47.689 C17.368,47.689 17.760,50.353 17.760,50.353 C17.760,50.353 18.602,50.353 18.602,50.353 C18.602,50.353 17.466,47.132 17.466,47.132 Z" id="path-5" class="cls-6" fill-rule="evenodd"/>
    <path d="M13.056,45.251 C13.056,45.251 13.056,50.566 13.056,50.566 C13.056,50.566 13.838,50.566 13.838,50.566 C13.838,50.566 13.056,45.251 13.056,45.251 Z" id="path-6" class="cls-6" fill-rule="evenodd"/>
    <path d="M29.824,45.845 C29.824,45.845 29.824,51.100 29.824,51.100 C29.824,51.100 33.424,51.100 33.424,51.100 C33.424,51.100 33.424,50.955 33.424,50.955 C31.443,48.820 29.824,45.845 29.824,45.845 Z" id="path-7" class="cls-6" fill-rule="evenodd"/>
    <path d="M43.573,28.919 C43.573,25.446 40.757,22.629 37.283,22.629 C37.283,22.629 18.183,22.629 18.183,22.629 C16.099,22.629 14.265,23.655 13.121,25.218 C13.592,25.105 14.078,25.030 14.583,25.030 C14.583,25.030 33.683,25.030 33.683,25.030 C37.157,25.030 39.973,27.845 39.973,31.319 C39.973,31.319 39.973,41.998 39.973,41.998 C38.654,45.644 38.232,47.135 39.064,50.251 C39.538,50.514 40.008,50.680 40.461,50.680 C40.461,50.680 43.573,50.680 43.573,50.680 C41.665,45.355 41.910,44.194 43.573,39.598 C43.573,39.598 43.573,28.919 43.573,28.919 Z" id="path-8" class="cls-6" fill-rule="evenodd"/>
    <path d="M31.112,23.067 C31.112,23.067 33.044,3.749 33.044,3.749 C33.244,1.750 31.674,0.016 29.665,0.016 C29.665,0.016 25.801,0.016 25.801,0.016 C23.792,0.016 22.223,1.750 22.422,3.749 C22.422,3.749 24.354,23.067 24.354,23.067 C24.354,23.067 31.112,23.067 31.112,23.067 Z" id="path-9" class="cls-11" fill-rule="evenodd"/>
    <path d="M28.582,10.468 C28.582,10.468 29.067,5.617 29.067,5.617 C29.117,5.115 28.723,4.679 28.218,4.679 C28.218,4.679 27.248,4.679 27.248,4.679 C26.744,4.679 26.350,5.115 26.399,5.617 C26.399,5.617 26.885,10.468 26.885,10.468 C26.885,10.468 28.582,10.468 28.582,10.468 Z" id="path-10" class="cls-12" fill-rule="evenodd"/>
    <path d="M43.573,34.242 C43.573,34.242 11.894,34.242 11.894,34.242 C11.894,34.242 11.894,32.242 11.894,32.242 C11.894,32.242 43.573,32.242 43.573,32.242 C43.573,32.242 43.573,34.242 43.573,34.242 Z" id="path-11" class="cls-11" fill-rule="evenodd"/>
    <path d="M43.573,30.761 C43.573,30.761 11.894,30.761 11.894,30.761 C11.894,30.761 11.894,28.761 11.894,28.761 C11.894,28.761 43.573,28.761 43.573,28.761 C43.573,28.761 43.573,30.761 43.573,30.761 Z" id="path-12" class="cls-11" fill-rule="evenodd"/>
  </g>
</svg>
