<svg xmlns="http://www.w3.org/2000/svg" xmlns:xlink="http://www.w3.org/1999/xlink" preserveAspectRatio="xMidYMid" width="60" height="45" viewBox="0 0 60 45">
  <defs>
    <style>

      .cls-3 {
        fill: #ff3a2f;
      }

      .cls-5 {
        fill: #0cb04a;
      }

      .cls-6 {
        fill: #000000;
        opacity: 0.35;
      }
    </style>
  </defs>
  <g id="group-327svg">
    <path d="M18.508,35.554 C18.508,35.554 13.648,35.554 13.648,35.554 C12.711,35.554 11.952,36.129 11.952,36.838 C11.952,37.548 12.711,38.122 13.648,38.122 C13.648,38.122 13.875,38.122 13.875,38.122 C14.811,38.122 15.571,38.697 15.571,39.407 C15.571,40.115 14.811,40.691 13.875,40.691 C13.875,40.691 3.427,40.691 3.427,40.691 C2.490,40.691 1.730,41.265 1.730,41.975 C1.730,42.684 2.490,43.259 3.427,43.259 C3.427,43.259 15.982,43.259 15.982,43.259 C15.982,43.259 41.645,43.259 41.645,43.259 C42.582,43.259 43.341,42.684 43.341,41.975 C43.341,41.265 42.582,40.691 41.645,40.691 C41.645,40.691 38.746,40.691 38.746,40.691 C37.808,40.691 37.049,40.115 37.049,39.407 C37.049,38.697 37.808,38.122 38.746,38.122 C38.746,38.122 50.133,38.122 50.133,38.122 C51.070,38.122 51.830,37.548 51.830,36.838 C51.830,36.129 51.070,35.554 50.133,35.554 C50.133,35.554 49.283,35.554 49.283,35.554 C49.283,35.554 18.508,35.554 18.508,35.554 Z" id="path-1" class="cls-3" fill-rule="evenodd"/>
    <path d="M48.650,43.603 C47.864,43.603 47.228,42.987 47.228,42.227 C47.228,41.466 47.864,40.850 48.650,40.850 C48.650,40.850 53.009,40.850 53.009,40.850 C53.794,40.850 54.431,41.466 54.431,42.227 C54.431,42.987 53.794,43.603 53.009,43.603 C53.009,43.603 48.650,43.603 48.650,43.603 Z" id="path-2" class="cls-3" fill-rule="evenodd"/>
    <path d="M37.349,36.698 C37.349,36.698 59.889,36.698 59.889,36.698 C59.939,35.069 60.016,32.530 60.011,32.211 C59.490,16.467 46.561,4.125 30.577,4.125 C30.577,4.125 30.574,4.125 30.574,4.125 C30.571,4.125 30.571,4.125 30.571,4.125 C30.219,4.199 29.836,4.128 29.519,3.921 C29.122,3.662 28.882,3.218 28.882,2.741 C28.882,2.741 28.882,0.007 28.882,0.007 C28.882,0.007 23.237,0.007 23.237,0.007 C23.237,0.007 23.237,3.896 23.237,3.896 C23.237,4.511 22.838,5.056 22.250,5.241 C11.758,8.548 0.852,18.799 0.309,31.992 C0.297,32.279 0.124,34.953 0.011,36.698 C0.011,36.698 28.882,36.698 28.882,36.698 C28.882,36.698 28.882,10.610 28.882,10.610 C28.882,9.830 29.513,9.199 30.293,9.199 C39.634,9.199 51.593,17.487 53.817,29.383 C53.894,29.796 53.784,30.220 53.517,30.543 C53.249,30.866 52.850,31.053 52.431,31.053 C52.431,31.053 44.405,31.053 44.405,31.053 C43.625,31.053 42.994,30.421 42.994,29.642 C42.994,29.642 42.994,24.675 42.994,24.675 C41.078,23.145 39.190,21.886 37.349,20.913 C37.349,20.913 37.349,36.698 37.349,36.698 ZM21.826,31.053 C21.826,31.053 7.996,31.053 7.996,31.053 C7.577,31.053 7.180,30.869 6.913,30.546 C6.645,30.226 6.532,29.801 6.606,29.391 C8.257,20.265 15.501,13.749 21.203,10.941 C21.639,10.721 22.160,10.751 22.570,11.007 C22.986,11.266 23.237,11.718 23.237,12.206 C23.237,12.206 23.237,29.642 23.237,29.642 C23.237,30.421 22.606,31.053 21.826,31.053 Z" id="path-3" class="cls-5" fill-rule="evenodd"/>
    <path d="M27.664,9.199 C26.883,9.199 26.252,9.830 26.252,10.610 C26.252,10.610 26.252,36.698 26.252,36.698 C26.252,36.698 28.882,36.698 28.882,36.698 C28.882,36.698 28.882,10.610 28.882,10.610 C28.882,10.042 29.222,9.559 29.705,9.336 C29.015,9.253 28.331,9.199 27.664,9.199 Z" id="path-4" class="cls-6" fill-rule="evenodd"/>
    <path d="M19.941,11.007 C19.530,10.751 19.009,10.721 18.574,10.941 C12.871,13.749 5.628,20.265 3.976,29.391 C3.902,29.801 4.016,30.226 4.283,30.546 C4.550,30.869 4.947,31.053 5.366,31.053 C5.366,31.053 7.996,31.053 7.996,31.053 C7.577,31.053 7.180,30.869 6.913,30.546 C6.645,30.226 6.532,29.801 6.606,29.391 C8.175,20.719 14.790,14.412 20.338,11.395 C20.231,11.245 20.103,11.108 19.941,11.007 Z" id="path-5" class="cls-6" fill-rule="evenodd"/>
    <path d="M30.577,4.125 C30.577,4.125 30.574,4.125 30.574,4.125 C30.572,4.125 30.572,4.125 30.572,4.125 C30.219,4.199 29.836,4.128 29.519,3.921 C29.122,3.662 28.882,3.218 28.882,2.741 C28.882,2.741 28.882,0.007 28.882,0.007 C28.882,0.007 26.252,0.007 26.252,0.007 C26.252,0.007 26.252,2.741 26.252,2.741 C26.252,3.218 26.492,3.662 26.889,3.921 C27.206,4.128 27.589,4.199 27.942,4.125 C27.942,4.125 27.942,4.125 27.945,4.125 C27.945,4.125 27.947,4.125 27.947,4.125 C43.931,4.125 56.860,16.467 57.381,32.211 C57.386,32.530 57.309,35.069 57.259,36.698 C57.259,36.698 59.889,36.698 59.889,36.698 C59.939,35.069 60.016,32.530 60.011,32.211 C59.490,16.467 46.561,4.125 30.577,4.125 Z" id="path-6" class="cls-6" fill-rule="evenodd"/>
    <path d="M41.775,31.053 C41.775,31.053 44.405,31.053 44.405,31.053 C43.625,31.053 42.994,30.421 42.994,29.642 C42.994,29.642 42.994,24.675 42.994,24.675 C41.078,23.145 39.190,21.886 37.349,20.913 C37.349,20.913 37.349,22.481 37.349,22.481 C38.345,23.136 39.350,23.865 40.364,24.675 C40.364,24.675 40.364,29.642 40.364,29.642 C40.364,30.421 40.995,31.053 41.775,31.053 Z" id="path-7" class="cls-6" fill-rule="evenodd"/>
  </g>
</svg>
