<svg xmlns="http://www.w3.org/2000/svg" xmlns:xlink="http://www.w3.org/1999/xlink" preserveAspectRatio="xMidYMid" width="60" height="60" viewBox="0 0 60 60">
  <defs>
    <style>

      .cls-3 {
        fill: #0cb04a;
      }

      .cls-6 {
        fill: #fbb713;
      }

      .cls-7 {
        fill: #020403;
        opacity: 0.25;
      }

      .cls-8 {
        fill: #142a3b;
      }

      .cls-9 {
        fill: #ff3a2f;
      }

      .cls-10 {
        fill: #020403;
        opacity: 0.35;
      }
    </style>
  </defs>
  <g id="group-138svg">
    <path d="M43.435,53.617 C43.435,53.617 48.229,53.617 48.229,53.617 C49.154,53.617 49.904,54.062 49.904,54.611 C49.904,55.159 49.154,55.604 48.229,55.604 C48.229,55.604 48.007,55.604 48.007,55.604 C47.082,55.604 46.332,56.049 46.332,56.597 C46.332,57.146 47.082,57.591 48.007,57.591 C48.007,57.591 58.315,57.591 58.315,57.591 C59.239,57.591 59.989,58.036 59.989,58.585 C59.989,59.133 59.239,59.578 58.315,59.578 C58.315,59.578 45.927,59.578 45.927,59.578 C45.927,59.578 32.311,59.578 32.311,59.578 C31.387,59.578 30.637,59.133 30.637,58.585 C30.637,58.036 31.387,57.591 32.311,57.591 C32.311,57.591 35.172,57.591 35.172,57.591 C36.097,57.591 36.846,57.146 36.846,56.597 C36.846,56.049 36.097,55.604 35.172,55.604 C35.172,55.604 21.557,55.604 21.557,55.604 C20.632,55.604 19.882,55.159 19.882,54.611 C19.882,54.062 20.632,53.617 21.557,53.617 C21.557,53.617 24.774,53.617 24.774,53.617 C24.774,53.617 43.435,53.617 43.435,53.617 Z" id="path-1" class="cls-3" fill-rule="evenodd"/>
    <path d="M7.596,52.298 C7.596,52.298 9.144,52.298 9.144,52.298 C9.443,52.298 9.686,52.743 9.686,53.291 C9.686,53.839 9.443,54.285 9.144,54.285 C9.144,54.285 9.072,54.285 9.072,54.285 C8.773,54.285 8.532,54.729 8.532,55.278 C8.532,55.827 8.773,56.271 9.072,56.271 C9.072,56.271 12.402,56.271 12.402,56.271 C12.700,56.271 12.942,56.717 12.942,57.265 C12.942,57.814 12.700,58.259 12.402,58.259 C12.402,58.259 8.400,58.259 8.400,58.259 C8.400,58.259 4.003,58.259 4.003,58.259 C3.705,58.259 3.463,57.814 3.463,57.265 C3.463,56.717 3.705,56.271 4.003,56.271 C4.003,56.271 4.928,56.271 4.928,56.271 C5.226,56.271 5.468,55.827 5.468,55.278 C5.468,54.729 5.226,54.285 4.928,54.285 C4.928,54.285 0.530,54.285 0.530,54.285 C0.231,54.285 -0.011,53.839 -0.011,53.291 C-0.011,52.743 0.231,52.298 0.530,52.298 C0.530,52.298 1.569,52.298 1.569,52.298 C1.569,52.298 7.596,52.298 7.596,52.298 Z" id="path-2" class="cls-3" fill-rule="evenodd"/>
    <path d="M22.335,60.181 C23.284,60.181 24.054,59.707 24.054,59.122 C24.054,58.536 23.284,58.062 22.335,58.062 C22.335,58.062 17.067,58.062 17.067,58.062 C16.117,58.062 15.348,58.536 15.348,59.122 C15.348,59.707 16.117,60.181 17.067,60.181 C17.067,60.181 22.335,60.181 22.335,60.181 Z" id="path-3" class="cls-3" fill-rule="evenodd"/>
    <path d="M21.890,42.367 C21.890,42.367 36.545,38.224 36.545,38.224 C36.545,38.224 28.614,4.436 28.614,4.436 C28.614,4.436 21.186,4.553 21.186,4.553 C21.186,4.553 17.044,21.720 21.890,42.367 Z" id="path-4" class="cls-6" fill-rule="evenodd"/>
    <path d="M24.516,33.082 C22.496,20.213 23.702,9.435 24.509,4.516 C24.509,4.516 22.153,4.553 22.153,4.553 C22.153,4.553 18.012,21.720 22.857,42.367 C22.857,42.367 36.545,38.224 36.545,38.224 C36.545,38.224 36.087,36.271 36.087,36.271 C36.087,36.271 31.751,37.611 31.751,37.611 C28.465,38.628 25.049,36.480 24.516,33.082 Z" id="path-5" class="cls-7" fill-rule="evenodd"/>
    <path d="M28.782,36.638 C22.441,36.638 17.798,34.233 17.508,34.079 C17.020,33.821 16.835,33.217 17.093,32.729 C17.352,32.241 17.953,32.055 18.444,32.311 C18.543,32.364 28.427,37.449 38.665,32.302 C39.162,32.055 39.760,32.255 40.008,32.747 C40.256,33.241 40.057,33.841 39.563,34.089 C35.763,36.000 32.047,36.638 28.782,36.638 Z" id="path-6" class="cls-8" fill-rule="evenodd"/>
    <path d="M0.416,39.406 C0.416,39.406 1.749,48.009 28.325,49.920 C28.325,49.920 44.864,49.920 44.864,49.920 C44.864,49.920 44.864,54.222 44.864,54.222 C44.864,54.222 28.325,54.222 28.325,54.222 C1.749,52.310 0.416,43.707 0.416,43.707 C0.416,43.707 0.416,39.406 0.416,39.406 Z" id="path-7" class="cls-9" fill-rule="evenodd"/>
    <path d="M43.896,49.920 C43.896,49.920 43.896,51.318 43.896,51.318 C43.896,51.318 27.357,51.318 27.357,51.318 C8.621,49.970 2.437,45.300 0.416,42.660 C0.416,42.660 0.416,43.707 0.416,43.707 C0.416,43.707 1.749,52.310 28.325,54.222 C28.325,54.222 44.864,54.222 44.864,54.222 C44.864,54.222 44.864,49.920 44.864,49.920 C44.864,49.920 43.896,49.920 43.896,49.920 Z" id="path-8" class="cls-10" fill-rule="evenodd"/>
    <path d="M22.640,47.813 C22.169,47.813 21.749,47.480 21.658,47.000 C21.388,45.579 15.118,12.060 21.773,0.486 C22.049,0.007 22.662,-0.159 23.139,0.118 C23.618,0.393 23.783,1.004 23.508,1.483 C17.217,12.421 23.559,46.287 23.623,46.627 C23.727,47.170 23.370,47.693 22.827,47.796 C22.765,47.808 22.701,47.813 22.640,47.813 Z" id="path-9" class="cls-8" fill-rule="evenodd"/>
  </g>
</svg>
