<svg xmlns="http://www.w3.org/2000/svg" xmlns:xlink="http://www.w3.org/1999/xlink" preserveAspectRatio="xMidYMid" width="61" height="60" viewBox="0 0 61 60">
  <defs>
    <style>

      .cls-3 {
        fill: #142a3b;
      }

      .cls-4 {
        fill: #020403;
        opacity: 0.35;
      }

      .cls-12 {
        fill: #fbb713;
      }

      .cls-13 {
        fill: #2476ff;
      }
    </style>
  </defs>
  <g id="group-61svg">
    <path d="M42.387,47.879 C45.790,43.601 44.894,30.068 40.037,20.741 C40.037,20.741 49.972,21.759 49.465,34.496 C49.465,34.496 58.126,17.174 43.604,13.862 C43.604,13.862 48.190,2.907 59.399,7.238 C59.399,7.238 50.379,-2.887 37.447,9.008 C36.100,5.284 36.979,-0.001 36.979,-0.001 C31.640,2.603 30.687,7.427 30.734,10.727 C26.022,9.842 17.776,11.686 15.385,20.227 C15.385,20.227 24.383,13.955 31.473,17.772 C31.473,17.772 18.893,21.251 18.382,33.224 C18.382,33.224 23.626,26.778 29.033,25.199 C28.595,25.617 28.318,26.202 28.318,26.856 C28.318,28.122 29.346,29.148 30.610,29.148 C31.070,29.148 31.497,29.011 31.855,28.776 C31.558,29.163 31.374,29.639 31.374,30.168 C31.374,31.434 32.401,32.461 33.666,32.461 C34.769,32.461 35.687,31.681 35.908,30.647 C36.575,35.385 36.647,42.934 32.197,48.971 C32.197,48.971 40.455,50.307 42.387,47.879 Z" id="path-1" class="cls-3" fill-rule="evenodd"/>
    <path d="M29.182,16.889 C29.390,16.821 29.505,16.789 29.505,16.789 C24.978,14.351 19.676,16.028 16.432,17.558 C16.018,18.367 15.659,19.247 15.385,20.227 C15.385,20.227 22.588,15.212 29.182,16.889 Z" id="path-2" class="cls-4" fill-rule="evenodd"/>
    <path d="M33.666,32.461 C33.856,32.461 34.037,32.431 34.213,32.388 C34.153,31.410 34.058,30.492 33.940,29.663 C33.726,30.671 32.848,31.432 31.783,31.470 C32.197,32.068 32.886,32.461 33.666,32.461 Z" id="path-3" class="cls-4" fill-rule="evenodd"/>
    <path d="M34.772,1.391 C34.668,3.261 34.710,5.896 35.480,8.024 C35.961,7.582 36.435,7.179 36.904,6.797 C36.398,3.490 36.979,-0.001 36.979,-0.001 C36.135,0.411 35.411,0.883 34.772,1.391 Z" id="path-4" class="cls-4" fill-rule="evenodd"/>
    <path d="M26.351,25.872 C26.351,25.218 26.627,24.634 27.065,24.215 C24.016,25.106 21.019,27.544 18.984,29.501 C18.656,30.641 18.439,31.876 18.382,33.224 C18.382,33.224 22.042,28.736 26.397,26.334 C26.367,26.185 26.351,26.030 26.351,25.872 Z" id="path-5" class="cls-4" fill-rule="evenodd"/>
    <path d="M54.783,4.173 C56.488,5.201 57.432,6.254 57.432,6.254 C46.223,1.923 41.637,12.879 41.637,12.879 C42.413,13.055 43.109,13.280 43.758,13.532 C44.631,11.747 49.353,3.356 59.399,7.238 C59.399,7.238 57.722,5.361 54.783,4.173 Z" id="path-6" class="cls-4" fill-rule="evenodd"/>
    <path d="M29.888,27.793 C29.551,28.013 29.150,28.138 28.723,28.153 C28.909,28.424 29.156,28.646 29.438,28.816 C29.502,28.434 29.661,28.087 29.888,27.793 Z" id="path-7" class="cls-4" fill-rule="evenodd"/>
    <path d="M45.737,14.520 C51.298,18.038 50.374,25.015 49.041,29.465 C49.375,30.898 49.542,32.560 49.465,34.496 C49.465,34.496 57.207,18.993 45.737,14.520 Z" id="path-8" class="cls-4" fill-rule="evenodd"/>
    <path d="M42.181,21.310 C40.040,19.962 38.070,19.757 38.070,19.757 C42.927,29.084 43.823,42.618 40.420,46.895 C39.170,48.467 35.277,48.460 32.681,48.261 C32.522,48.498 32.369,48.738 32.197,48.971 C32.197,48.971 40.455,50.307 42.387,47.879 C45.790,43.601 44.894,30.068 40.037,20.741 C40.037,20.741 40.938,20.835 42.181,21.310 Z" id="path-9" class="cls-4" fill-rule="evenodd"/>
    <path d="M26.700,47.069 C18.842,47.648 13.372,48.928 13.372,50.417 C13.372,52.448 23.567,54.098 36.143,54.098 C48.717,54.098 58.912,52.448 58.912,50.417 C58.910,48.668 51.395,47.213 41.320,46.830 C41.320,46.830 41.320,46.830 41.320,46.830 " id="path-10" class="cls-12" fill-rule="evenodd"/>
    <path d="M31.874,52.209 C31.874,52.209 36.143,52.209 36.143,52.209 C36.965,52.209 37.632,52.633 37.632,53.153 C37.632,53.675 36.965,54.098 36.143,54.098 C36.143,54.098 35.943,54.098 35.943,54.098 C35.120,54.098 34.453,54.520 34.453,55.042 C34.453,55.563 35.120,55.986 35.943,55.986 C35.943,55.986 45.119,55.986 45.119,55.986 C45.941,55.986 46.608,56.409 46.608,56.930 C46.608,57.451 45.941,57.874 45.119,57.874 C45.119,57.874 34.092,57.874 34.092,57.874 C34.092,57.874 21.974,57.874 21.974,57.874 C21.150,57.874 20.483,57.451 20.483,56.930 C20.483,56.409 21.150,55.986 21.974,55.986 C21.974,55.986 24.519,55.986 24.519,55.986 C25.343,55.986 26.010,55.563 26.010,55.042 C26.010,54.520 25.343,54.098 24.519,54.098 C24.519,54.098 12.400,54.098 12.400,54.098 C11.578,54.098 10.910,53.675 10.910,53.153 C10.910,52.633 11.578,52.209 12.400,52.209 C12.400,52.209 15.265,52.209 15.265,52.209 C15.265,52.209 31.874,52.209 31.874,52.209 Z" id="path-11" class="cls-13" fill-rule="evenodd"/>
    <path d="M6.742,43.307 C6.742,43.307 8.116,43.307 8.116,43.307 C8.381,43.307 8.596,43.539 8.596,43.826 C8.596,44.112 8.381,44.344 8.116,44.344 C8.116,44.344 8.052,44.344 8.052,44.344 C7.787,44.344 7.572,44.577 7.572,44.863 C7.572,45.149 7.787,45.381 8.052,45.381 C8.052,45.381 11.006,45.381 11.006,45.381 C11.271,45.381 11.486,45.613 11.486,45.900 C11.486,46.186 11.271,46.418 11.006,46.418 C11.006,46.418 7.456,46.418 7.456,46.418 C7.456,46.418 3.555,46.418 3.555,46.418 C3.289,46.418 3.074,46.186 3.074,45.900 C3.074,45.613 3.289,45.381 3.555,45.381 C3.555,45.381 4.374,45.381 4.374,45.381 C4.639,45.381 4.853,45.149 4.853,44.863 C4.853,44.577 4.639,44.344 4.374,44.344 C4.374,44.344 0.473,44.344 0.473,44.344 C0.207,44.344 -0.008,44.112 -0.008,43.826 C-0.008,43.539 0.207,43.307 0.473,43.307 C0.473,43.307 1.394,43.307 1.394,43.307 C1.394,43.307 6.742,43.307 6.742,43.307 Z" id="path-12" class="cls-13" fill-rule="evenodd"/>
    <path d="M53.955,45.552 C53.955,45.552 55.329,45.552 55.329,45.552 C55.594,45.552 55.809,45.785 55.809,46.071 C55.809,46.358 55.594,46.590 55.329,46.590 C55.329,46.590 55.266,46.590 55.266,46.590 C55.000,46.590 54.785,46.822 54.785,47.108 C54.785,47.395 55.000,47.627 55.266,47.627 C55.266,47.627 58.219,47.627 58.219,47.627 C58.484,47.627 58.699,47.859 58.699,48.146 C58.699,48.432 58.484,48.664 58.219,48.664 C58.219,48.664 54.669,48.664 54.669,48.664 C54.669,48.664 50.767,48.664 50.767,48.664 C50.502,48.664 50.287,48.432 50.287,48.146 C50.287,47.859 50.502,47.627 50.767,47.627 C50.767,47.627 51.587,47.627 51.587,47.627 C51.852,47.627 52.066,47.395 52.066,47.108 C52.066,46.822 51.852,46.590 51.587,46.590 C51.587,46.590 47.685,46.590 47.685,46.590 C47.420,46.590 47.205,46.358 47.205,46.071 C47.205,45.785 47.420,45.552 47.685,45.552 C47.685,45.552 48.607,45.552 48.607,45.552 C48.607,45.552 53.955,45.552 53.955,45.552 Z" id="path-13" class="cls-13" fill-rule="evenodd"/>
    <path d="M58.291,58.691 C59.230,58.691 59.992,58.208 59.992,57.613 C59.992,57.018 59.230,56.535 58.291,56.535 C58.291,56.535 53.077,56.535 53.077,56.535 C52.138,56.535 51.376,57.018 51.376,57.613 C51.376,58.208 52.138,58.691 53.077,58.691 C53.077,58.691 58.291,58.691 58.291,58.691 Z" id="path-14" class="cls-13" fill-rule="evenodd"/>
  </g>
</svg>
