<svg xmlns="http://www.w3.org/2000/svg" xmlns:xlink="http://www.w3.org/1999/xlink" preserveAspectRatio="xMidYMid" width="60" height="47" viewBox="0 0 60 47">
  <defs>
    <style>

      .cls-3 {
        fill: #2476ff;
      }

      .cls-6 {
        fill: #fbb713;
      }

      .cls-7 {
        fill: #000000;
        opacity: 0.35;
      }
    </style>
  </defs>
  <g id="group-263svg">
    <path d="M16.106,39.266 C16.106,39.266 11.599,39.266 11.599,39.266 C10.730,39.266 10.025,39.800 10.025,40.457 C10.025,41.115 10.730,41.648 11.599,41.648 C11.599,41.648 11.809,41.648 11.809,41.648 C12.678,41.648 13.382,42.181 13.382,42.839 C13.382,43.497 12.678,44.030 11.809,44.030 C11.809,44.030 2.120,44.030 2.120,44.030 C1.250,44.030 0.546,44.563 0.546,45.221 C0.546,45.878 1.250,46.412 2.120,46.412 C2.120,46.412 13.764,46.412 13.764,46.412 C13.764,46.412 37.564,46.412 37.564,46.412 C38.434,46.412 39.138,45.878 39.138,45.221 C39.138,44.563 38.434,44.030 37.564,44.030 C37.564,44.030 34.875,44.030 34.875,44.030 C34.006,44.030 33.302,43.497 33.302,42.839 C33.302,42.181 34.006,41.648 34.875,41.648 C34.875,41.648 45.437,41.648 45.437,41.648 C46.306,41.648 47.011,41.115 47.011,40.457 C47.011,39.800 46.306,39.266 45.437,39.266 C45.437,39.266 44.649,39.266 44.649,39.266 C44.649,39.266 16.106,39.266 16.106,39.266 Z" id="path-1" class="cls-3" fill-rule="evenodd"/>
    <path d="M44.061,46.731 C43.332,46.731 42.742,46.159 42.742,45.455 C42.742,44.750 43.332,44.179 44.061,44.179 C44.061,44.179 48.104,44.179 48.104,44.179 C48.832,44.179 49.423,44.750 49.423,45.455 C49.423,46.159 48.832,46.731 48.104,46.731 C48.104,46.731 44.061,46.731 44.061,46.731 Z" id="path-2" class="cls-3" fill-rule="evenodd"/>
    <path d="M9.463,35.574 C9.463,35.574 10.748,35.574 10.748,35.574 C10.996,35.574 11.197,35.354 11.197,35.082 C11.197,34.810 10.996,34.590 10.748,34.590 C10.748,34.590 10.688,34.590 10.688,34.590 C10.440,34.590 10.240,34.369 10.240,34.097 C10.240,33.826 10.440,33.605 10.688,33.605 C10.688,33.605 13.452,33.605 13.452,33.605 C13.700,33.605 13.901,33.385 13.901,33.114 C13.901,32.842 13.700,32.621 13.452,32.621 C13.452,32.621 10.131,32.621 10.131,32.621 C10.131,32.621 3.343,32.621 3.343,32.621 C3.095,32.621 2.894,32.842 2.894,33.114 C2.894,33.385 3.095,33.605 3.343,33.605 C3.343,33.605 4.110,33.605 4.110,33.605 C4.358,33.605 4.559,33.826 4.559,34.097 C4.559,34.369 4.358,34.590 4.110,34.590 C4.110,34.590 0.459,34.590 0.459,34.590 C0.212,34.590 0.011,34.810 0.011,35.082 C0.011,35.354 0.212,35.574 0.459,35.574 C0.459,35.574 1.322,35.574 1.322,35.574 C1.322,35.574 9.463,35.574 9.463,35.574 Z" id="path-3" class="cls-3" fill-rule="evenodd"/>
    <path d="M55.015,9.968 C55.015,9.968 25.919,39.064 25.919,39.064 C25.919,39.064 20.932,34.076 20.932,34.076 C20.932,34.076 50.027,4.981 50.027,4.981 C50.027,4.981 55.015,9.968 55.015,9.968 Z" id="path-4" class="cls-6" fill-rule="evenodd"/>
    <path d="M50.027,4.981 C50.027,4.981 48.825,6.183 48.825,6.183 C48.825,6.183 52.610,9.968 52.610,9.968 C52.610,9.968 24.717,37.862 24.717,37.862 C24.717,37.862 25.919,39.064 25.919,39.064 C25.919,39.064 55.015,9.968 55.015,9.968 C55.015,9.968 50.027,4.981 50.027,4.981 Z" id="path-5" class="cls-7" fill-rule="evenodd"/>
    <path d="M28.106,36.740 C27.133,35.767 25.858,35.279 24.582,35.277 C24.580,34.001 24.092,32.725 23.119,31.752 C21.167,29.800 18.004,29.800 16.053,31.752 C14.101,33.703 14.101,36.867 16.053,38.818 C17.026,39.792 18.302,40.279 19.578,40.281 C19.580,41.557 20.067,42.832 21.040,43.805 C22.992,45.757 26.155,45.757 28.106,43.805 C30.058,41.855 30.058,38.691 28.106,36.740 Z" id="path-6" class="cls-6" fill-rule="evenodd"/>
    <path d="M28.106,41.402 C26.155,43.353 22.992,43.353 21.040,41.402 C20.067,40.428 19.580,39.153 19.578,37.877 C18.302,37.875 17.026,37.387 16.053,36.414 C15.386,35.747 14.952,34.937 14.741,34.083 C14.335,35.726 14.768,37.534 16.053,38.818 C17.026,39.792 18.302,40.279 19.578,40.281 C19.580,41.557 20.067,42.832 21.040,43.805 C22.992,45.757 26.155,45.757 28.106,43.805 C29.391,42.522 29.824,40.714 29.418,39.071 C29.207,39.925 28.774,40.735 28.106,41.402 Z" id="path-7" class="cls-7" fill-rule="evenodd"/>
    <path d="M58.547,6.436 C57.574,5.462 56.299,4.975 55.022,4.972 C55.020,3.697 54.533,2.421 53.560,1.448 C51.608,-0.503 48.445,-0.503 46.494,1.448 C44.542,3.399 44.542,6.563 46.494,8.514 C47.467,9.488 48.743,9.975 50.019,9.977 C50.020,11.253 50.508,12.528 51.481,13.502 C53.433,15.453 56.596,15.453 58.547,13.502 C60.498,11.550 60.498,8.387 58.547,6.436 Z" id="path-8" class="cls-6" fill-rule="evenodd"/>
    <path d="M58.547,11.899 C56.596,13.850 53.433,13.850 51.481,11.899 C50.508,10.926 50.020,9.650 50.019,8.374 C48.743,8.372 47.467,7.885 46.494,6.911 C45.723,6.140 45.261,5.180 45.100,4.179 C44.852,5.710 45.313,7.334 46.494,8.514 C47.467,9.488 48.743,9.975 50.019,9.977 C50.020,11.253 50.508,12.528 51.481,13.502 C53.433,15.453 56.596,15.453 58.547,13.502 C59.727,12.321 60.189,10.698 59.941,9.167 C59.780,10.167 59.318,11.128 58.547,11.899 Z" id="path-9" class="cls-7" fill-rule="evenodd"/>
  </g>
</svg>
