<svg xmlns="http://www.w3.org/2000/svg" xmlns:xlink="http://www.w3.org/1999/xlink" preserveAspectRatio="xMidYMid" width="58" height="60" viewBox="0 0 58 60">
  <defs>
    <style>

      .cls-3 {
        fill: #0cb04a;
      }

      .cls-6 {
        fill: #142a3b;
      }

      .cls-8 {
        fill: #020403;
        opacity: 0.35;
      }

      .cls-9 {
        fill: #ff3a2f;
      }

      .cls-10 {
        fill: #ffffff;
      }

      .cls-12 {
        fill: #020403;
        opacity: 0.25;
      }

      .cls-13 {
        fill: #fbb713;
      }

      .cls-16 {
        fill: #020403;
        opacity: 0.2;
      }
    </style>
  </defs>
  <g id="group-34svg">
    <path d="M18.468,40.658 C18.468,40.658 22.229,40.658 22.229,40.658 C22.955,40.658 23.543,41.153 23.543,41.764 C23.543,42.374 22.955,42.870 22.229,42.870 C22.229,42.870 22.055,42.870 22.055,42.870 C21.329,42.870 20.741,43.365 20.741,43.975 C20.741,44.586 21.329,45.081 22.055,45.081 C22.055,45.081 30.143,45.081 30.143,45.081 C30.868,45.081 31.457,45.576 31.457,46.187 C31.457,46.797 30.868,47.292 30.143,47.292 C30.143,47.292 20.423,47.292 20.423,47.292 C20.423,47.292 9.739,47.292 9.739,47.292 C9.014,47.292 8.426,46.797 8.426,46.187 C8.426,45.576 9.014,45.081 9.739,45.081 C9.739,45.081 11.984,45.081 11.984,45.081 C12.710,45.081 13.298,44.586 13.298,43.975 C13.298,43.365 12.710,42.870 11.984,42.870 C11.984,42.870 1.301,42.870 1.301,42.870 C0.575,42.870 -0.013,42.374 -0.013,41.764 C-0.013,41.153 0.575,40.658 1.301,40.658 C1.301,40.658 3.826,40.658 3.826,40.658 C3.826,40.658 18.468,40.658 18.468,40.658 Z" id="path-1" class="cls-3" fill-rule="evenodd"/>
    <path d="M50.862,44.869 C50.862,44.869 52.638,44.869 52.638,44.869 C52.980,44.869 53.258,45.379 53.258,46.007 C53.258,46.636 52.980,47.146 52.638,47.146 C52.638,47.146 52.556,47.146 52.556,47.146 C52.213,47.146 51.935,47.656 51.935,48.285 C51.935,48.913 52.213,49.423 52.556,49.423 C52.556,49.423 56.371,49.423 56.371,49.423 C56.713,49.423 56.991,49.933 56.991,50.562 C56.991,51.191 56.713,51.701 56.371,51.701 C56.371,51.701 51.785,51.701 51.785,51.701 C51.785,51.701 46.745,51.701 46.745,51.701 C46.403,51.701 46.126,51.191 46.126,50.562 C46.126,49.933 46.403,49.423 46.745,49.423 C46.745,49.423 47.805,49.423 47.805,49.423 C48.146,49.423 48.424,48.913 48.424,48.285 C48.424,47.656 48.146,47.146 47.805,47.146 C47.805,47.146 42.764,47.146 42.764,47.146 C42.422,47.146 42.145,46.636 42.145,46.007 C42.145,45.379 42.422,44.869 42.764,44.869 C42.764,44.869 43.955,44.869 43.955,44.869 C43.955,44.869 50.862,44.869 50.862,44.869 Z" id="path-2" class="cls-3" fill-rule="evenodd"/>
    <path d="M13.633,54.935 C14.722,54.935 15.604,54.392 15.604,53.720 C15.604,53.049 14.722,52.505 13.633,52.505 C13.633,52.505 7.596,52.505 7.596,52.505 C6.508,52.505 5.625,53.049 5.625,53.720 C5.625,54.392 6.508,54.935 7.596,54.935 C7.596,54.935 13.633,54.935 13.633,54.935 Z" id="path-3" class="cls-3" fill-rule="evenodd"/>
    <path d="M43.084,8.366 C43.084,12.985 39.338,16.731 34.718,16.731 C30.098,16.731 26.352,12.985 26.352,8.366 C26.352,3.745 30.098,-0.000 34.718,-0.000 C39.338,-0.000 43.084,3.745 43.084,8.366 Z" id="path-4" class="cls-6" fill-rule="evenodd"/>
    <path d="M36.645,17.006 C36.645,21.626 32.899,25.372 28.279,25.372 C23.659,25.372 19.914,21.626 19.914,17.006 C19.914,12.386 23.659,8.640 28.279,8.640 C32.899,8.640 36.645,12.386 36.645,17.006 Z" id="path-5" class="cls-3" fill-rule="evenodd"/>
    <path d="M34.805,10.057 C31.263,11.029 28.658,14.265 28.658,18.116 C28.658,21.966 31.263,25.201 34.805,26.174 C38.347,25.201 40.951,21.966 40.951,18.116 C40.951,14.265 38.347,11.029 34.805,10.057 Z" id="path-6" class="cls-8" fill-rule="evenodd"/>
    <path d="M48.718,17.006 C48.718,21.626 44.972,25.372 40.351,25.372 C35.731,25.372 31.986,21.626 31.986,17.006 C31.986,12.386 35.731,8.640 40.351,8.640 C44.972,8.640 48.718,12.386 48.718,17.006 Z" id="path-7" class="cls-9" fill-rule="evenodd"/>
    <path d="M33.818,19.502 C33.266,19.502 32.818,19.055 32.818,18.502 C32.818,14.135 36.371,10.582 40.738,10.582 C41.291,10.582 41.738,11.029 41.738,11.582 C41.738,12.134 41.291,12.582 40.738,12.582 C37.474,12.582 34.818,15.238 34.818,18.502 C34.818,19.055 34.371,19.502 33.818,19.502 Z" id="path-8" class="cls-10" fill-rule="evenodd"/>
    <path d="M22.725,19.502 C22.172,19.502 21.725,19.055 21.725,18.502 C21.725,15.931 22.980,13.509 25.085,12.026 C25.535,11.708 26.159,11.816 26.478,12.267 C26.797,12.718 26.688,13.342 26.237,13.660 C24.664,14.770 23.725,16.580 23.725,18.502 C23.725,19.055 23.277,19.502 22.725,19.502 Z" id="path-9" class="cls-10" fill-rule="evenodd"/>
    <path d="M41.260,8.691 C43.727,10.146 45.390,12.825 45.390,15.897 C45.390,20.517 41.644,24.262 37.023,24.262 C36.717,24.262 36.414,24.244 36.115,24.211 C37.359,24.944 38.804,25.372 40.351,25.372 C44.972,25.372 48.718,21.626 48.718,17.006 C48.718,12.693 45.452,9.145 41.260,8.691 Z" id="path-10" class="cls-12" fill-rule="evenodd"/>
    <path d="M38.521,60.000 C38.521,60.000 49.038,21.375 49.038,21.375 C49.038,21.375 19.804,21.375 19.804,21.375 C19.804,21.375 30.321,60.000 30.321,60.000 C30.321,60.000 38.521,60.000 38.521,60.000 Z" id="path-11" class="cls-13" fill-rule="evenodd"/>
    <path d="M26.669,27.065 C26.669,27.065 26.669,28.151 26.669,28.151 C26.669,28.361 27.075,28.529 27.575,28.529 C28.076,28.529 28.482,28.361 28.482,28.151 C28.482,28.151 28.482,28.100 28.482,28.100 C28.482,27.891 28.889,27.722 29.389,27.722 C29.890,27.722 30.296,27.891 30.296,28.100 C30.296,28.100 30.296,30.435 30.296,30.435 C30.296,30.644 30.702,30.814 31.202,30.814 C31.703,30.814 32.109,30.644 32.109,30.435 C32.109,30.435 32.109,27.630 32.109,27.630 C32.109,27.630 32.109,24.546 32.109,24.546 C32.109,24.337 31.703,24.167 31.202,24.167 C30.702,24.167 30.296,24.337 30.296,24.546 C30.296,24.546 30.296,25.194 30.296,25.194 C30.296,25.403 29.890,25.573 29.389,25.573 C28.889,25.573 28.482,25.403 28.482,25.194 C28.482,25.194 28.482,22.111 28.482,22.111 C28.482,21.901 28.076,21.731 27.575,21.731 C27.075,21.731 26.669,21.901 26.669,22.111 C26.669,22.111 26.669,22.839 26.669,22.839 C26.669,22.839 26.669,27.065 26.669,27.065 Z" id="path-12" class="cls-12" fill-rule="evenodd"/>
    <path d="M25.559,24.846 C25.559,24.846 25.559,25.932 25.559,25.932 C25.559,26.142 25.966,26.311 26.467,26.311 C26.967,26.311 27.373,26.142 27.373,25.932 C27.373,25.932 27.373,25.882 27.373,25.882 C27.373,25.672 27.779,25.503 28.279,25.503 C28.780,25.503 29.186,25.672 29.186,25.882 C29.186,25.882 29.186,28.216 29.186,28.216 C29.186,28.426 29.593,28.596 30.093,28.596 C30.594,28.596 31.000,28.426 31.000,28.216 C31.000,28.216 31.000,25.411 31.000,25.411 C31.000,25.411 31.000,22.327 31.000,22.327 C31.000,22.118 30.594,21.948 30.093,21.948 C29.593,21.948 29.186,22.118 29.186,22.327 C29.186,22.327 29.186,22.975 29.186,22.975 C29.186,23.185 28.780,23.354 28.279,23.354 C27.779,23.354 27.373,23.185 27.373,22.975 C27.373,22.975 27.373,19.891 27.373,19.891 C27.373,19.682 26.967,19.512 26.467,19.512 C25.966,19.512 25.559,19.682 25.559,19.891 C25.559,19.891 25.559,20.620 25.559,20.620 C25.559,20.620 25.559,24.846 25.559,24.846 Z" id="path-13" class="cls-3" fill-rule="evenodd"/>
    <path d="M43.694,21.375 C43.694,21.375 34.084,56.672 34.084,56.672 C34.084,56.672 29.415,56.672 29.415,56.672 C29.415,56.672 30.321,60.000 30.321,60.000 C30.321,60.000 38.521,60.000 38.521,60.000 C38.521,60.000 49.038,21.375 49.038,21.375 C49.038,21.375 43.694,21.375 43.694,21.375 Z" id="path-14" class="cls-16" fill-rule="evenodd"/>
    <path d="M31.190,50.113 C30.752,50.113 30.350,49.823 30.227,49.379 C30.227,49.379 24.699,29.337 24.699,29.337 C24.552,28.804 24.865,28.254 25.397,28.107 C25.926,27.962 26.480,28.271 26.627,28.805 C26.627,28.805 32.155,48.847 32.155,48.847 C32.303,49.380 31.989,49.931 31.457,50.078 C31.368,50.102 31.279,50.113 31.190,50.113 Z" id="path-15" class="cls-10" fill-rule="evenodd"/>
  </g>
</svg>
