<svg xmlns="http://www.w3.org/2000/svg" xmlns:xlink="http://www.w3.org/1999/xlink" preserveAspectRatio="xMidYMid" width="60" height="59" viewBox="0 0 60 59">
  <defs>
    <style>

      .cls-3 {
        fill: #142a3b;
      }

      .cls-5 {
        fill: #2476ff;
      }

      .cls-6 {
        fill: #000000;
        opacity: 0.35;
      }

      .cls-7 {
        fill: #fbb713;
      }

      .cls-8 {
        fill: #ededed;
      }
    </style>
  </defs>
  <g id="group-318svg">
    <path d="M19.091,49.226 C19.091,49.226 13.558,49.226 13.558,49.226 C12.491,49.226 11.626,49.880 11.626,50.688 C11.626,51.495 12.491,52.150 13.558,52.150 C13.558,52.150 13.815,52.150 13.815,52.150 C14.882,52.150 15.747,52.804 15.747,53.612 C15.747,54.419 14.882,55.073 13.815,55.073 C13.815,55.073 1.921,55.073 1.921,55.073 C0.853,55.073 -0.011,55.728 -0.011,56.536 C-0.011,57.343 0.853,57.998 1.921,57.998 C1.921,57.998 16.215,57.998 16.215,57.998 C16.215,57.998 45.432,57.998 45.432,57.998 C46.499,57.998 47.363,57.343 47.363,56.536 C47.363,55.728 46.499,55.073 45.432,55.073 C45.432,55.073 42.131,55.073 42.131,55.073 C41.063,55.073 40.199,54.419 40.199,53.612 C40.199,52.804 41.063,52.150 42.131,52.150 C42.131,52.150 55.096,52.150 55.096,52.150 C56.163,52.150 57.027,51.495 57.027,50.688 C57.027,49.880 56.163,49.226 55.096,49.226 C55.096,49.226 54.128,49.226 54.128,49.226 C54.128,49.226 19.091,49.226 19.091,49.226 Z" id="path-1" class="cls-3" fill-rule="evenodd"/>
    <path d="M53.407,58.389 C52.513,58.389 51.787,57.688 51.787,56.822 C51.787,55.957 52.513,55.256 53.407,55.256 C53.407,55.256 58.369,55.256 58.369,55.256 C59.264,55.256 59.989,55.957 59.989,56.822 C59.989,57.688 59.264,58.389 58.369,58.389 C58.369,58.389 53.407,58.389 53.407,58.389 Z" id="path-2" class="cls-3" fill-rule="evenodd"/>
    <path d="M34.059,42.267 C34.059,42.267 41.743,49.951 41.743,49.951 C41.743,49.951 41.715,50.097 41.715,50.097 C41.715,51.510 35.987,52.658 28.921,52.658 C21.857,52.658 16.129,51.510 16.129,50.097 C16.129,50.097 16.129,49.951 16.129,49.951 C16.129,49.951 23.813,42.267 23.813,42.267 C23.813,42.267 23.813,42.267 23.813,42.267 " id="path-3" class="cls-5" fill-rule="evenodd"/>
    <path d="M34.059,42.267 C34.059,42.267 23.813,42.267 23.813,42.267 C23.813,42.267 16.129,49.951 16.129,49.951 C16.129,49.951 16.129,50.097 16.129,50.097 C16.129,50.294 16.251,50.486 16.463,50.670 C16.463,50.670 21.707,45.426 21.707,45.426 C21.707,45.426 31.953,45.426 31.953,45.426 C31.953,45.426 38.351,51.823 38.351,51.823 C40.434,51.367 41.715,50.762 41.715,50.097 C41.715,50.097 41.743,49.951 41.743,49.951 C41.743,49.951 34.059,42.267 34.059,42.267 Z" id="path-4" class="cls-6" fill-rule="evenodd"/>
    <path d="M50.709,21.783 C50.709,33.807 40.961,43.555 28.936,43.555 C16.912,43.555 7.164,33.807 7.164,21.783 C7.164,9.758 16.912,0.010 28.936,0.010 C40.961,0.010 50.709,9.758 50.709,21.783 Z" id="path-5" class="cls-7" fill-rule="evenodd"/>
    <path d="M37.901,21.783 C37.901,26.733 33.888,30.748 28.936,30.748 C23.985,30.748 19.971,26.733 19.971,21.783 C19.971,16.832 23.985,12.818 28.936,12.818 C33.888,12.818 37.901,16.832 37.901,21.783 Z" id="path-6" class="cls-8" fill-rule="evenodd"/>
    <path d="M37.514,1.771 C44.129,5.507 48.603,12.590 48.603,20.730 C48.603,32.754 38.854,42.502 26.830,42.502 C23.783,42.502 20.886,41.872 18.252,40.741 C21.410,42.525 25.051,43.555 28.936,43.555 C40.961,43.555 50.709,33.807 50.709,21.783 C50.709,12.805 45.272,5.101 37.514,1.771 Z" id="path-7" class="cls-6" fill-rule="evenodd"/>
    <path d="M31.877,13.321 C34.242,14.935 35.795,17.650 35.795,20.730 C35.795,25.680 31.782,29.695 26.830,29.695 C25.799,29.695 24.812,29.512 23.891,29.191 C25.328,30.172 27.064,30.748 28.936,30.748 C33.888,30.748 37.901,26.733 37.901,21.783 C37.901,17.864 35.382,14.539 31.877,13.321 Z" id="path-8" class="cls-6" fill-rule="evenodd"/>
  </g>
</svg>
