<svg xmlns="http://www.w3.org/2000/svg" xmlns:xlink="http://www.w3.org/1999/xlink" preserveAspectRatio="xMidYMid" width="50" height="60" viewBox="0 0 50 60">
  <defs>
    <style>

      .cls-3 {
        fill: #142a3b;
      }

      .cls-4 {
        fill: #fbb713;
      }

      .cls-5 {
        fill: #2476ff;
      }

      .cls-6 {
        fill: #020403;
        opacity: 0.35;
      }

      .cls-7 {
        fill: #ffffff;
      }
    </style>
  </defs>
  <g id="group-57svg">
    <path d="M48.391,11.256 C48.391,17.014 43.722,21.683 37.963,21.683 C32.205,21.683 27.536,17.014 27.536,11.256 C27.536,5.497 32.205,0.828 37.963,0.828 C43.722,0.828 48.391,5.497 48.391,11.256 Z" id="path-1" class="cls-3" fill-rule="evenodd"/>
    <path d="M29.424,19.091 C31.643,21.487 34.873,22.914 38.384,22.721 C44.652,22.383 49.474,17.003 49.131,10.735 C48.789,4.467 43.414,-0.355 37.142,-0.013 C31.643,0.287 27.259,4.463 26.494,9.712 C26.494,9.712 28.217,9.712 28.217,9.712 C28.966,5.356 32.639,1.926 37.234,1.675 C42.571,1.383 47.151,5.490 47.439,10.827 C47.736,16.165 43.629,20.741 38.291,21.033 C35.376,21.191 32.692,20.033 30.805,18.084 C30.805,18.084 29.424,19.091 29.424,19.091 Z" id="path-2" class="cls-4" fill-rule="evenodd"/>
    <path d="M34.842,15.527 C38.891,13.119 38.722,10.666 38.687,10.393 C38.687,10.393 38.603,9.712 38.603,9.712 C38.603,9.712 0.088,9.712 0.088,9.712 C0.088,9.712 0.007,10.389 0.007,10.389 C-0.024,10.662 -0.197,13.119 3.853,15.522 C6.209,16.926 13.381,21.187 13.319,24.221 C13.319,24.221 13.319,27.693 13.319,27.693 C13.319,30.520 15.308,32.903 17.957,33.561 C17.957,33.561 17.957,51.788 17.957,51.788 C17.088,52.230 13.989,53.180 10.670,53.503 C7.975,54.046 8.670,54.418 8.670,54.418 C8.670,54.418 17.346,54.418 17.346,54.418 C17.346,54.418 18.788,54.418 18.788,54.418 C18.788,54.418 30.131,54.418 30.131,54.418 C30.131,54.418 30.828,54.046 28.132,53.503 C24.809,53.180 21.714,52.230 20.845,51.788 C20.845,51.788 20.845,33.538 20.845,33.538 C23.436,32.846 25.375,30.481 25.375,27.693 C25.375,27.693 25.375,24.205 25.375,24.205 C25.348,22.834 26.815,21.205 28.644,19.707 C28.644,19.707 34.113,15.958 34.842,15.527 Z" id="path-3" class="cls-5" fill-rule="evenodd"/>
    <path d="M38.687,10.393 C38.687,10.393 38.603,9.712 38.603,9.712 C38.603,9.712 36.028,9.712 36.028,9.712 C36.028,9.712 36.113,10.393 36.113,10.393 C36.147,10.666 36.317,13.119 32.268,15.527 C31.538,15.958 26.070,19.706 26.070,19.706 C24.241,21.205 22.773,22.834 22.800,24.205 C22.800,24.205 22.800,27.693 22.800,27.693 C22.800,30.481 20.862,32.846 18.270,33.538 C18.270,33.538 18.270,51.788 18.270,51.788 C19.140,52.230 22.235,53.180 25.557,53.503 C28.253,54.046 27.557,54.418 27.557,54.418 C27.557,54.418 30.131,54.418 30.131,54.418 C30.131,54.418 30.828,54.046 28.132,53.503 C24.809,53.180 21.714,52.230 20.845,51.788 C20.845,51.788 20.845,33.538 20.845,33.538 C23.436,32.846 25.375,30.481 25.375,27.693 C25.375,27.693 25.375,24.205 25.375,24.205 C25.348,22.834 26.815,21.205 28.644,19.706 C28.644,19.706 34.112,15.958 34.842,15.527 C38.891,13.119 38.722,10.666 38.687,10.393 Z" id="path-4" class="cls-6" fill-rule="evenodd"/>
    <path d="M20.359,32.853 C20.279,32.853 20.198,32.844 20.117,32.823 C16.939,32.034 14.720,29.223 14.720,25.985 C14.720,25.985 14.720,22.513 14.720,22.513 C14.739,21.580 13.600,19.352 5.762,14.686 C5.762,14.686 6.765,12.955 6.765,12.955 C6.765,12.955 6.253,13.814 6.253,13.814 C6.253,13.814 6.786,12.968 6.786,12.968 C11.445,15.741 16.785,19.336 16.720,22.533 C16.720,22.533 16.720,25.985 16.720,25.985 C16.720,28.302 18.315,30.315 20.599,30.882 C21.135,31.016 21.461,31.557 21.329,32.093 C21.215,32.549 20.808,32.853 20.359,32.853 Z" id="path-5" class="cls-7" fill-rule="evenodd"/>
    <path d="M38.168,3.222 C38.168,3.222 38.437,8.155 38.437,8.155 C38.437,8.155 40.668,3.752 40.668,3.752 C39.883,3.452 39.041,3.263 38.168,3.222 Z" id="path-6" class="cls-4" fill-rule="evenodd"/>
    <path d="M44.075,6.224 C43.533,5.560 42.894,4.986 42.175,4.521 C42.175,4.521 39.945,8.920 39.945,8.920 C39.945,8.920 44.075,6.224 44.075,6.224 Z" id="path-7" class="cls-4" fill-rule="evenodd"/>
    <path d="M34.050,4.114 C34.050,4.114 36.746,8.248 36.746,8.248 C36.746,8.248 36.476,3.313 36.476,3.313 C35.611,3.452 34.800,3.729 34.050,4.114 Z" id="path-8" class="cls-4" fill-rule="evenodd"/>
    <path d="M30.932,6.943 C30.932,6.943 35.331,9.174 35.331,9.174 C35.331,9.174 32.635,5.040 32.635,5.040 C31.970,5.582 31.397,6.224 30.932,6.943 Z" id="path-9" class="cls-4" fill-rule="evenodd"/>
    <path d="M34.857,18.957 C35.642,19.257 36.484,19.445 37.357,19.487 C37.357,19.487 37.088,14.554 37.088,14.554 C37.088,14.554 34.857,18.957 34.857,18.957 Z" id="path-10" class="cls-4" fill-rule="evenodd"/>
    <path d="M45.801,10.070 C45.663,9.205 45.386,8.389 45.001,7.643 C45.001,7.643 40.872,10.339 40.872,10.339 C40.872,10.339 45.801,10.070 45.801,10.070 Z" id="path-11" class="cls-4" fill-rule="evenodd"/>
    <path d="M42.891,17.664 C43.556,17.122 44.128,16.484 44.594,15.765 C44.594,15.765 40.195,13.534 40.195,13.534 C40.195,13.534 42.891,17.664 42.891,17.664 Z" id="path-12" class="cls-4" fill-rule="evenodd"/>
    <path d="M45.363,14.258 C45.663,13.473 45.852,12.631 45.894,11.758 C45.894,11.758 40.960,12.027 40.960,12.027 C40.960,12.027 45.363,14.258 45.363,14.258 Z" id="path-13" class="cls-4" fill-rule="evenodd"/>
    <path d="M39.049,19.391 C39.914,19.252 40.729,18.976 41.476,18.591 C41.476,18.591 38.780,14.457 38.780,14.457 C38.780,14.457 39.049,19.391 39.049,19.391 Z" id="path-14" class="cls-4" fill-rule="evenodd"/>
    <path d="M40.596,38.464 C40.596,38.464 43.012,38.464 43.012,38.464 C43.478,38.464 43.855,38.674 43.855,38.932 C43.855,39.191 43.478,39.401 43.012,39.401 C43.012,39.401 42.899,39.401 42.899,39.401 C42.434,39.401 42.056,39.611 42.056,39.870 C42.056,40.128 42.434,40.338 42.899,40.338 C42.899,40.338 46.418,40.338 46.418,40.338 C46.884,40.338 47.262,40.548 47.262,40.806 C47.262,41.066 46.884,41.275 46.418,41.275 C46.418,41.275 41.852,41.275 41.852,41.275 C41.852,41.275 34.992,41.275 34.992,41.275 C34.526,41.275 34.148,41.066 34.148,40.806 C34.148,40.548 34.526,40.338 34.992,40.338 C34.992,40.338 36.433,40.338 36.433,40.338 C36.899,40.338 37.277,40.128 37.277,39.870 C37.277,39.611 36.899,39.401 36.433,39.401 C36.433,39.401 29.573,39.401 29.573,39.401 C29.107,39.401 28.730,39.191 28.730,38.932 C28.730,38.674 29.107,38.464 29.573,38.464 C29.573,38.464 31.194,38.464 31.194,38.464 C31.194,38.464 40.596,38.464 40.596,38.464 Z" id="path-15" class="cls-4" fill-rule="evenodd"/>
    <path d="M11.190,45.167 C11.190,45.167 12.633,45.167 12.633,45.167 C12.911,45.167 13.136,45.313 13.136,45.492 C13.136,45.671 12.911,45.817 12.633,45.817 C12.633,45.817 12.565,45.817 12.565,45.817 C12.287,45.817 12.062,45.962 12.062,46.141 C12.062,46.320 12.287,46.466 12.565,46.466 C12.565,46.466 14.667,46.466 14.667,46.466 C14.945,46.466 15.171,46.612 15.171,46.791 C15.171,46.970 14.945,47.115 14.667,47.115 C14.667,47.115 11.940,47.115 11.940,47.115 C11.940,47.115 7.843,47.115 7.843,47.115 C7.564,47.115 7.339,46.970 7.339,46.791 C7.339,46.612 7.564,46.466 7.843,46.466 C7.843,46.466 8.704,46.466 8.704,46.466 C8.982,46.466 9.208,46.320 9.208,46.141 C9.208,45.962 8.982,45.817 8.704,45.817 C8.704,45.817 4.606,45.817 4.606,45.817 C4.329,45.817 4.103,45.671 4.103,45.492 C4.103,45.313 4.329,45.167 4.606,45.167 C4.606,45.167 5.575,45.167 5.575,45.167 C5.575,45.167 11.190,45.167 11.190,45.167 Z" id="path-16" class="cls-4" fill-rule="evenodd"/>
    <path d="M39.787,56.205 C39.787,56.205 43.206,56.205 43.206,56.205 C43.866,56.205 44.400,56.487 44.400,56.833 C44.400,57.180 43.866,57.460 43.206,57.460 C43.206,57.460 43.047,57.460 43.047,57.460 C42.388,57.460 41.853,57.742 41.853,58.088 C41.853,58.434 42.388,58.716 43.047,58.716 C43.047,58.716 48.027,58.716 48.027,58.716 C48.687,58.716 49.221,58.997 49.221,59.342 C49.221,59.689 48.687,59.971 48.027,59.971 C48.027,59.971 41.564,59.971 41.564,59.971 C41.564,59.971 31.856,59.971 31.856,59.971 C31.197,59.971 30.662,59.689 30.662,59.342 C30.662,58.997 31.197,58.716 31.856,58.716 C31.856,58.716 33.895,58.716 33.895,58.716 C34.555,58.716 35.089,58.434 35.089,58.088 C35.089,57.742 34.555,57.460 33.895,57.460 C33.895,57.460 24.187,57.460 24.187,57.460 C23.528,57.460 22.994,57.180 22.994,56.833 C22.994,56.487 23.528,56.205 24.187,56.205 C24.187,56.205 26.482,56.205 26.482,56.205 C26.482,56.205 39.787,56.205 39.787,56.205 Z" id="path-17" class="cls-4" fill-rule="evenodd"/>
    <path d="M30.306,41.610 C30.694,41.610 31.008,41.436 31.008,41.221 C31.008,41.005 30.694,40.830 30.306,40.830 C30.306,40.830 28.154,40.830 28.154,40.830 C27.767,40.830 27.452,41.005 27.452,41.221 C27.452,41.436 27.767,41.610 28.154,41.610 C28.154,41.610 30.306,41.610 30.306,41.610 Z" id="path-18" class="cls-4" fill-rule="evenodd"/>
  </g>
</svg>
