<svg xmlns="http://www.w3.org/2000/svg" xmlns:xlink="http://www.w3.org/1999/xlink" preserveAspectRatio="xMidYMid" width="60" height="61" viewBox="0 0 60 61">
  <defs>
    <style>

      .cls-3 {
        fill: #ff3a2f;
      }

      .cls-6 {
        fill: #fbb713;
      }

      .cls-7 {
        fill: #ffffff;
      }

      .cls-8 {
        fill: #020403;
        opacity: 0.25;
      }

      .cls-9 {
        fill: #142a3b;
      }

      .cls-10 {
        fill: #020403;
        opacity: 0.35;
      }
    </style>
  </defs>
  <g id="group-11svg">
    <path d="M19.347,52.133 C19.347,52.133 23.283,52.133 23.283,52.133 C24.042,52.133 24.657,52.523 24.657,53.004 C24.657,53.485 24.042,53.874 23.283,53.874 C23.283,53.874 23.100,53.874 23.100,53.874 C22.341,53.874 21.726,54.264 21.726,54.746 C21.726,55.226 22.341,55.616 23.100,55.616 C23.100,55.616 31.562,55.616 31.562,55.616 C32.321,55.616 32.936,56.006 32.936,56.487 C32.936,56.968 32.321,57.357 31.562,57.357 C31.562,57.357 21.393,57.357 21.393,57.357 C21.393,57.357 10.215,57.357 10.215,57.357 C9.456,57.357 8.841,56.968 8.841,56.487 C8.841,56.006 9.456,55.616 10.215,55.616 C10.215,55.616 12.563,55.616 12.563,55.616 C13.322,55.616 13.938,55.226 13.938,54.746 C13.938,54.264 13.322,53.874 12.563,53.874 C12.563,53.874 1.386,53.874 1.386,53.874 C0.627,53.874 0.012,53.485 0.012,53.004 C0.012,52.523 0.627,52.133 1.386,52.133 C1.386,52.133 4.028,52.133 4.028,52.133 C4.028,52.133 19.347,52.133 19.347,52.133 Z" id="path-1" class="cls-3" fill-rule="evenodd"/>
    <path d="M50.533,59.905 C51.672,59.905 52.595,59.320 52.595,58.598 C52.595,57.877 51.672,57.292 50.533,57.292 C50.533,57.292 44.216,57.292 44.216,57.292 C43.077,57.292 42.154,57.877 42.154,58.598 C42.154,59.320 43.077,59.905 44.216,59.905 C44.216,59.905 50.533,59.905 50.533,59.905 Z" id="path-2" class="cls-3" fill-rule="evenodd"/>
    <path d="M44.666,44.668 C44.666,44.668 47.722,44.668 47.722,44.668 C47.722,44.668 55.768,44.668 55.768,44.668 C55.768,44.668 58.737,44.668 58.737,44.668 C59.376,44.668 59.945,45.134 60.006,45.770 C60.076,46.499 59.504,47.113 58.789,47.113 C58.789,47.113 54.143,47.113 54.143,47.113 C53.505,47.113 52.935,47.579 52.874,48.214 C52.805,48.944 53.376,49.557 54.091,49.557 C54.091,49.557 54.817,49.557 54.817,49.557 C55.476,49.557 56.060,50.055 56.092,50.713 C56.125,51.418 55.622,52.002 54.925,52.002 C54.925,52.002 51.083,52.002 51.083,52.002 C51.083,52.002 43.443,52.002 43.443,52.002 C41.587,52.002 40.082,50.497 40.082,48.641 C40.082,48.641 40.082,48.641 40.082,48.641 C40.082,48.641 44.666,44.668 44.666,44.668 Z" id="path-3" class="cls-3" fill-rule="evenodd"/>
    <path d="M48.781,27.593 C48.806,26.594 48.823,27.229 48.823,26.831 C48.823,16.701 40.611,8.700 30.481,8.700 C20.352,8.700 12.140,16.597 12.140,26.727 C12.140,27.124 12.157,26.594 12.182,27.593 C12.182,27.593 48.781,27.593 48.781,27.593 Z" id="path-4" class="cls-6" fill-rule="evenodd"/>
    <path d="M15.980,24.495 C15.428,24.495 14.980,24.047 14.980,23.495 C14.980,17.047 20.211,11.802 26.641,11.802 C27.193,11.802 27.641,12.250 27.641,12.802 C27.641,13.354 27.193,13.802 26.641,13.802 C21.314,13.802 16.980,18.150 16.980,23.495 C16.980,24.047 16.533,24.495 15.980,24.495 Z" id="path-5" class="cls-7" fill-rule="evenodd"/>
    <path d="M35.885,9.461 C39.652,12.831 42.038,17.718 42.038,23.163 C42.038,23.560 42.021,23.459 41.996,24.423 C41.996,24.423 12.305,24.423 12.305,24.423 C12.183,25.279 12.098,26.146 12.098,27.035 C12.098,27.433 12.290,27.312 12.314,28.276 C12.314,28.276 48.739,28.276 48.739,28.276 C48.764,27.312 48.781,27.414 48.781,27.016 C48.781,18.782 43.355,11.791 35.885,9.461 Z" id="path-6" class="cls-8" fill-rule="evenodd"/>
    <path d="M43.850,47.594 C43.850,47.594 17.113,47.594 17.113,47.594 C17.113,47.594 12.140,27.593 12.140,27.593 C12.140,27.593 48.823,27.593 48.823,27.593 C48.823,27.593 43.850,47.594 43.850,47.594 Z" id="path-7" class="cls-9" fill-rule="evenodd"/>
    <path d="M41.911,27.572 C41.911,27.572 37.648,44.911 37.648,44.911 C37.648,44.911 16.475,44.668 16.475,44.668 C16.475,44.668 17.184,47.557 17.184,47.557 C17.184,47.557 43.850,47.573 43.850,47.573 C43.850,47.573 48.781,27.572 48.781,27.572 C48.781,27.572 41.911,27.572 41.911,27.572 Z" id="path-8" class="cls-10" fill-rule="evenodd"/>
    <path d="M34.836,4.362 C34.836,6.767 32.887,8.717 30.481,8.717 C28.076,8.717 26.127,6.767 26.127,4.362 C26.127,1.957 28.076,0.007 30.481,0.007 C32.887,0.007 34.836,1.957 34.836,4.362 Z" id="path-9" class="cls-3" fill-rule="evenodd"/>
    <path d="M31.814,3.398 C31.814,4.667 30.786,5.695 29.518,5.695 C28.250,5.695 27.222,4.667 27.222,3.398 C27.222,2.130 28.250,1.103 29.518,1.103 C30.786,1.103 31.814,2.130 31.814,3.398 Z" id="path-10" class="cls-7" fill-rule="evenodd"/>
  </g>
</svg>
