<svg xmlns="http://www.w3.org/2000/svg" xmlns:xlink="http://www.w3.org/1999/xlink" preserveAspectRatio="xMidYMid" width="60" height="61" viewBox="0 0 60 61">
  <defs>
    <style>

      .cls-3 {
        fill: #0cb04a;
      }

      .cls-7 {
        fill: #ddc100;
      }

      .cls-15 {
        fill: #ededed;
      }

      .cls-17 {
        fill: #ff3a2f;
      }

      .cls-18 {
        fill: #020403;
        opacity: 0.25;
      }

      .cls-20 {
        fill: #020403;
        opacity: 0.35;
      }
    </style>
  </defs>
  <g id="group-104svg">
    <path d="M30.593,55.272 C30.593,55.272 27.656,55.272 27.656,55.272 C27.089,55.272 26.630,55.622 26.630,56.053 C26.630,56.486 27.089,56.836 27.656,56.836 C27.656,56.836 27.792,56.836 27.792,56.836 C28.358,56.836 28.818,57.186 28.818,57.618 C28.818,58.049 28.358,58.400 27.792,58.400 C27.792,58.400 21.479,58.400 21.479,58.400 C20.912,58.400 20.453,58.750 20.453,59.181 C20.453,59.613 20.912,59.964 21.479,59.964 C21.479,59.964 29.066,59.964 29.066,59.964 C29.066,59.964 44.575,59.964 44.575,59.964 C45.141,59.964 45.600,59.613 45.600,59.181 C45.600,58.750 45.141,58.400 44.575,58.400 C44.575,58.400 42.823,58.400 42.823,58.400 C42.256,58.400 41.797,58.049 41.797,57.618 C41.797,57.186 42.256,56.836 42.823,56.836 C42.823,56.836 51.162,56.836 51.162,56.836 C51.729,56.836 52.187,56.486 52.187,56.053 C52.187,55.622 51.729,55.272 51.162,55.272 C51.162,55.272 49.191,55.272 49.191,55.272 C49.191,55.272 30.593,55.272 30.593,55.272 Z" id="path-1" class="cls-3" fill-rule="evenodd"/>
    <path d="M15.540,38.714 C15.540,38.714 13.896,38.714 13.896,38.714 C13.578,38.714 13.321,39.064 13.321,39.496 C13.321,39.928 13.578,40.278 13.896,40.278 C13.896,40.278 13.972,40.278 13.972,40.278 C14.289,40.278 14.546,40.628 14.546,41.060 C14.546,41.492 14.289,41.842 13.972,41.842 C13.972,41.842 10.435,41.842 10.435,41.842 C10.119,41.842 9.861,42.192 9.861,42.624 C9.861,43.056 10.119,43.406 10.435,43.406 C10.435,43.406 14.685,43.406 14.685,43.406 C14.685,43.406 23.372,43.406 23.372,43.406 C23.688,43.406 23.946,43.056 23.946,42.624 C23.946,42.192 23.688,41.842 23.372,41.842 C23.372,41.842 22.390,41.842 22.390,41.842 C22.073,41.842 21.816,41.492 21.816,41.060 C21.816,40.628 22.073,40.278 22.390,40.278 C22.390,40.278 27.060,40.278 27.060,40.278 C27.378,40.278 27.635,39.928 27.635,39.496 C27.635,39.064 27.378,38.714 27.060,38.714 C27.060,38.714 25.957,38.714 25.957,38.714 C25.957,38.714 15.540,38.714 15.540,38.714 Z" id="path-2" class="cls-3" fill-rule="evenodd"/>
    <path d="M51.192,60.006 C50.492,60.006 49.924,59.762 49.924,59.460 C49.924,59.159 50.492,58.915 51.192,58.915 C51.192,58.915 55.080,58.915 55.080,58.915 C55.781,58.915 56.349,59.159 56.349,59.460 C56.349,59.762 55.781,60.006 55.080,60.006 C55.080,60.006 51.192,60.006 51.192,60.006 Z" id="path-3" class="cls-3" fill-rule="evenodd"/>
    <path d="M6.280,60.006 C5.580,60.006 5.011,59.762 5.011,59.460 C5.011,59.159 5.580,58.915 6.280,58.915 C6.280,58.915 10.168,58.915 10.168,58.915 C10.869,58.915 11.436,59.159 11.436,59.460 C11.436,59.762 10.869,60.006 10.168,60.006 C10.168,60.006 6.280,60.006 6.280,60.006 Z" id="path-4" class="cls-3" fill-rule="evenodd"/>
    <path d="M47.833,22.068 C47.833,22.068 47.622,22.598 47.622,22.598 C47.581,22.701 47.674,22.834 47.829,22.895 C47.984,22.957 48.143,22.924 48.183,22.821 C48.183,22.821 48.193,22.797 48.193,22.797 C48.233,22.694 48.392,22.661 48.547,22.723 C48.702,22.784 48.794,22.917 48.754,23.019 C48.754,23.019 48.301,24.159 48.301,24.159 C48.260,24.261 48.353,24.394 48.508,24.456 C48.663,24.517 48.821,24.484 48.862,24.382 C48.862,24.382 49.406,23.012 49.406,23.012 C49.406,23.012 50.518,20.212 50.518,20.212 C50.559,20.110 50.466,19.977 50.311,19.915 C50.156,19.854 49.997,19.887 49.957,19.989 C49.957,19.989 49.831,20.306 49.831,20.306 C49.791,20.408 49.632,20.441 49.478,20.379 C49.323,20.318 49.230,20.185 49.270,20.083 C49.270,20.083 49.869,18.577 49.869,18.577 C49.909,18.475 49.816,18.342 49.662,18.281 C49.507,18.219 49.348,18.252 49.308,18.354 C49.308,18.354 49.166,18.710 49.166,18.710 C49.166,18.710 47.833,22.068 47.833,22.068 Z" id="path-5" class="cls-7" fill-rule="evenodd"/>
    <path d="M46.475,28.092 C46.287,28.566 45.887,28.852 45.582,28.731 C45.278,28.610 45.184,28.128 45.372,27.654 C45.372,27.654 46.416,25.023 46.416,25.023 C46.605,24.549 47.004,24.262 47.309,24.384 C47.614,24.505 47.708,24.987 47.519,25.461 C47.519,25.461 46.475,28.092 46.475,28.092 Z" id="path-6" class="cls-7" fill-rule="evenodd"/>
    <path d="M54.951,27.851 C54.951,27.851 54.427,28.077 54.427,28.077 C54.326,28.120 54.297,28.280 54.364,28.433 C54.430,28.586 54.565,28.675 54.666,28.631 C54.666,28.631 54.690,28.620 54.690,28.620 C54.791,28.577 54.927,28.665 54.993,28.818 C55.059,28.971 55.030,29.131 54.930,29.175 C54.930,29.175 53.803,29.661 53.803,29.661 C53.702,29.704 53.674,29.863 53.740,30.016 C53.806,30.169 53.941,30.258 54.042,30.215 C54.042,30.215 55.395,29.631 55.395,29.631 C55.395,29.631 58.162,28.437 58.162,28.437 C58.263,28.393 58.291,28.234 58.226,28.081 C58.160,27.928 58.024,27.839 57.923,27.882 C57.923,27.882 57.610,28.017 57.610,28.017 C57.509,28.061 57.374,27.973 57.308,27.819 C57.242,27.666 57.271,27.507 57.372,27.464 C57.372,27.464 58.859,26.822 58.859,26.822 C58.960,26.778 58.988,26.619 58.922,26.466 C58.856,26.313 58.721,26.224 58.620,26.267 C58.620,26.267 58.268,26.419 58.268,26.419 C58.268,26.419 54.951,27.851 54.951,27.851 Z" id="path-7" class="cls-7" fill-rule="evenodd"/>
    <path d="M49.731,31.150 C49.263,31.352 48.778,31.272 48.648,30.971 C48.519,30.670 48.793,30.262 49.261,30.060 C49.261,30.060 51.860,28.939 51.860,28.939 C52.328,28.736 52.813,28.817 52.943,29.117 C53.073,29.419 52.799,29.827 52.330,30.029 C52.330,30.029 49.731,31.150 49.731,31.150 Z" id="path-8" class="cls-7" fill-rule="evenodd"/>
    <path d="M27.851,3.824 C27.851,3.824 27.641,4.354 27.641,4.354 C27.600,4.457 27.692,4.590 27.848,4.651 C28.002,4.713 28.161,4.679 28.202,4.577 C28.202,4.577 28.211,4.552 28.211,4.552 C28.252,4.450 28.410,4.417 28.565,4.479 C28.720,4.540 28.812,4.673 28.772,4.775 C28.772,4.775 28.319,5.915 28.319,5.915 C28.279,6.018 28.372,6.150 28.526,6.212 C28.681,6.273 28.840,6.240 28.880,6.138 C28.880,6.138 29.424,4.769 29.424,4.769 C29.424,4.769 30.536,1.968 30.536,1.968 C30.577,1.866 30.484,1.732 30.330,1.671 C30.174,1.610 30.016,1.643 29.975,1.745 C29.975,1.745 29.850,2.061 29.850,2.061 C29.809,2.164 29.651,2.197 29.496,2.136 C29.341,2.074 29.249,1.941 29.289,1.839 C29.289,1.839 29.887,0.333 29.887,0.333 C29.927,0.231 29.835,0.098 29.680,0.036 C29.525,-0.025 29.367,0.008 29.326,0.110 C29.326,0.110 29.184,0.466 29.184,0.466 C29.184,0.466 27.851,3.824 27.851,3.824 Z" id="path-9" class="cls-7" fill-rule="evenodd"/>
    <path d="M26.494,9.848 C26.305,10.322 25.906,10.608 25.601,10.487 C25.296,10.366 25.202,9.884 25.390,9.410 C25.390,9.410 26.435,6.779 26.435,6.779 C26.623,6.305 27.023,6.019 27.327,6.140 C27.632,6.260 27.726,6.743 27.538,7.217 C27.538,7.217 26.494,9.848 26.494,9.848 Z" id="path-10" class="cls-7" fill-rule="evenodd"/>
    <path d="M34.969,9.607 C34.969,9.607 34.445,9.833 34.445,9.833 C34.344,9.876 34.316,10.036 34.382,10.189 C34.448,10.341 34.583,10.430 34.685,10.387 C34.685,10.387 34.709,10.376 34.709,10.376 C34.810,10.333 34.945,10.421 35.011,10.574 C35.077,10.727 35.049,10.887 34.948,10.930 C34.948,10.930 33.822,11.416 33.822,11.416 C33.721,11.460 33.692,11.619 33.758,11.772 C33.824,11.925 33.960,12.014 34.060,11.970 C34.060,11.970 35.414,11.387 35.414,11.387 C35.414,11.387 38.181,10.193 38.181,10.193 C38.282,10.149 38.310,9.990 38.244,9.837 C38.178,9.684 38.042,9.595 37.941,9.639 C37.941,9.639 37.629,9.774 37.629,9.774 C37.528,9.817 37.393,9.728 37.327,9.575 C37.260,9.422 37.289,9.263 37.390,9.219 C37.390,9.219 38.877,8.577 38.877,8.577 C38.978,8.534 39.007,8.374 38.940,8.221 C38.874,8.068 38.739,7.980 38.638,8.023 C38.638,8.023 38.287,8.175 38.287,8.175 C38.287,8.175 34.969,9.607 34.969,9.607 Z" id="path-11" class="cls-7" fill-rule="evenodd"/>
    <path d="M29.750,12.906 C29.281,13.108 28.796,13.028 28.666,12.727 C28.537,12.426 28.811,12.018 29.280,11.816 C29.280,11.816 31.878,10.695 31.878,10.695 C32.347,10.493 32.832,10.572 32.961,10.874 C33.091,11.174 32.817,11.582 32.349,11.784 C32.349,11.784 29.750,12.906 29.750,12.906 Z" id="path-12" class="cls-7" fill-rule="evenodd"/>
    <path d="M22.311,22.290 C22.311,22.290 16.343,16.321 16.343,16.321 C16.343,16.321 22.425,10.239 22.425,10.239 C22.425,10.239 28.394,16.208 28.394,16.208 C28.394,16.208 22.311,22.290 22.311,22.290 Z" id="path-13" class="cls-15" fill-rule="evenodd"/>
    <path d="M41.710,41.689 C41.710,41.689 35.742,35.720 35.742,35.720 C35.742,35.720 41.824,29.638 41.824,29.638 C41.824,29.638 47.792,35.607 47.792,35.607 C47.792,35.607 41.710,41.689 41.710,41.689 Z" id="path-14" class="cls-15" fill-rule="evenodd"/>
    <path d="M35.742,35.720 C35.742,35.720 26.155,45.307 26.155,45.307 C22.446,49.016 16.433,49.015 12.725,45.307 C9.016,41.598 9.016,35.586 12.725,31.876 C12.725,31.876 22.311,22.290 22.311,22.290 C22.311,22.290 16.343,16.321 16.343,16.321 C16.343,16.321 5.263,27.399 5.263,27.399 C-1.741,34.405 -1.740,45.763 5.263,52.768 C12.269,59.773 23.628,59.773 30.631,52.768 C30.631,52.768 41.711,41.689 41.711,41.689 C41.711,41.689 35.742,35.720 35.742,35.720 Z" id="path-15" class="cls-17" fill-rule="evenodd"/>
    <path d="M25.756,13.570 C25.756,13.570 21.256,18.069 21.256,18.069 C21.256,18.069 16.343,16.321 16.343,16.321 C16.343,16.321 22.311,22.290 22.311,22.290 C22.311,22.290 28.394,16.208 28.394,16.208 C28.394,16.208 25.756,13.570 25.756,13.570 Z" id="path-16" class="cls-18" fill-rule="evenodd"/>
    <path d="M45.155,32.969 C45.155,32.969 40.656,37.468 40.656,37.468 C40.656,37.468 35.742,35.720 35.742,35.720 C35.742,35.720 41.710,41.689 41.710,41.689 C41.710,41.689 47.792,35.607 47.792,35.607 C47.792,35.607 45.155,32.969 45.155,32.969 Z" id="path-17" class="cls-18" fill-rule="evenodd"/>
    <path d="M11.669,27.656 C8.671,30.655 8.099,35.160 9.950,38.735 C9.913,36.257 10.834,33.767 12.725,31.876 C12.725,31.876 22.311,22.290 22.311,22.290 C22.311,22.290 19.674,19.652 19.674,19.652 C19.674,19.652 11.669,27.656 11.669,27.656 Z" id="path-18" class="cls-20" fill-rule="evenodd"/>
    <path d="M39.073,39.052 C39.073,39.052 29.576,48.547 29.576,48.547 C22.573,55.553 11.215,55.553 4.208,48.547 C2.380,46.719 1.041,44.592 0.168,42.326 C0.646,46.143 2.333,49.837 5.263,52.768 C12.270,59.773 23.628,59.773 30.631,52.768 C30.631,52.768 41.711,41.689 41.711,41.689 C41.711,41.689 39.073,39.052 39.073,39.052 Z" id="path-19" class="cls-20" fill-rule="evenodd"/>
  </g>
</svg>
