<svg xmlns="http://www.w3.org/2000/svg" xmlns:xlink="http://www.w3.org/1999/xlink" preserveAspectRatio="xMidYMid" width="53" height="60" viewBox="0 0 53 60">
  <defs>
    <style>

      .cls-3 {
        fill: #ff3a2f;
      }

      .cls-5 {
        fill: #142a3b;
      }

      .cls-7 {
        fill: #000000;
        opacity: 0.35;
      }

      .cls-8 {
        fill: #fbb713;
      }

      .cls-12 {
        fill: #2476ff;
      }

      .cls-13 {
        fill: #221e1f;
      }
    </style>
  </defs>
  <g id="group-285svg">
    <path d="M16.433,52.669 C16.433,52.669 11.832,52.669 11.832,52.669 C10.946,52.669 10.227,53.215 10.227,53.889 C10.227,54.563 10.946,55.109 11.832,55.109 C11.832,55.109 12.047,55.109 12.047,55.109 C12.934,55.109 13.653,55.655 13.653,56.328 C13.653,57.002 12.934,57.549 12.047,57.549 C12.047,57.549 2.158,57.549 2.158,57.549 C1.270,57.549 0.552,58.094 0.552,58.768 C0.552,59.442 1.270,59.988 2.158,59.988 C2.158,59.988 14.042,59.988 14.042,59.988 C14.042,59.988 38.333,59.988 38.333,59.988 C39.220,59.988 39.939,59.442 39.939,58.768 C39.939,58.094 39.220,57.549 38.333,57.549 C38.333,57.549 35.589,57.549 35.589,57.549 C34.702,57.549 33.983,57.002 33.983,56.328 C33.983,55.655 34.702,55.109 35.589,55.109 C35.589,55.109 46.368,55.109 46.368,55.109 C47.255,55.109 47.974,54.563 47.974,53.889 C47.974,53.215 47.255,52.669 46.368,52.669 C46.368,52.669 45.564,52.669 45.564,52.669 C45.564,52.669 16.433,52.669 16.433,52.669 Z" id="path-1" class="cls-3" fill-rule="evenodd"/>
    <path d="M9.652,48.067 C9.652,48.067 10.964,48.067 10.964,48.067 C11.217,48.067 11.422,47.842 11.422,47.563 C11.422,47.285 11.217,47.059 10.964,47.059 C10.964,47.059 10.903,47.059 10.903,47.059 C10.650,47.059 10.445,46.834 10.445,46.555 C10.445,46.277 10.650,46.051 10.903,46.051 C10.903,46.051 13.724,46.051 13.724,46.051 C13.977,46.051 14.182,45.826 14.182,45.547 C14.182,45.269 13.977,45.043 13.724,45.043 C13.724,45.043 10.334,45.043 10.334,45.043 C10.334,45.043 3.406,45.043 3.406,45.043 C3.153,45.043 2.948,45.269 2.948,45.547 C2.948,45.826 3.153,46.051 3.406,46.051 C3.406,46.051 4.189,46.051 4.189,46.051 C4.442,46.051 4.647,46.277 4.647,46.555 C4.647,46.834 4.442,47.059 4.189,47.059 C4.189,47.059 0.464,47.059 0.464,47.059 C0.211,47.059 0.005,47.285 0.005,47.563 C0.005,47.842 0.211,48.067 0.464,48.067 C0.464,48.067 1.344,48.067 1.344,48.067 C1.344,48.067 9.652,48.067 9.652,48.067 Z" id="path-2" class="cls-3" fill-rule="evenodd"/>
    <path d="M52.516,43.687 C52.516,43.687 44.063,43.687 44.063,43.687 C44.063,43.687 44.063,25.656 44.063,25.656 C44.063,25.656 52.516,25.656 52.516,25.656 C52.516,25.656 52.516,43.687 52.516,43.687 ZM46.063,41.687 C46.063,41.687 50.516,41.687 50.516,41.687 C50.516,41.687 50.516,27.656 50.516,27.656 C50.516,27.656 46.063,27.656 46.063,27.656 C46.063,27.656 46.063,41.687 46.063,41.687 Z" id="path-3" class="cls-5" fill-rule="evenodd"/>
    <path d="M45.882,47.935 C45.882,50.464 43.821,52.516 41.280,52.516 C41.280,52.516 20.571,52.516 20.571,52.516 C18.029,52.516 15.969,50.464 15.969,47.935 C15.969,47.935 15.969,22.743 15.969,22.743 C15.969,22.743 45.882,22.743 45.882,22.743 C45.882,22.743 45.882,47.935 45.882,47.935 Z" id="path-4" class="cls-5" fill-rule="evenodd"/>
    <path d="M40.974,22.743 C40.974,22.743 40.974,44.652 40.974,44.652 C40.974,47.181 38.914,49.233 36.372,49.233 C36.372,49.233 16.159,49.233 16.159,49.233 C16.722,51.129 18.482,52.516 20.571,52.516 C20.571,52.516 41.280,52.516 41.280,52.516 C43.821,52.516 45.882,50.464 45.882,47.935 C45.882,47.935 45.882,22.743 45.882,22.743 C45.882,22.743 40.974,22.743 40.974,22.743 Z" id="path-5" class="cls-7" fill-rule="evenodd"/>
    <path d="M41.007,-0.012 C43.382,3.592 39.863,5.569 39.044,7.504 C38.176,9.553 39.020,11.516 41.080,12.379 C47.754,15.179 49.740,2.092 41.007,-0.012 Z" id="path-6" class="cls-8" fill-rule="evenodd"/>
    <path d="M38.978,22.743 C38.978,22.743 42.754,12.795 42.754,12.795 C42.754,12.795 40.381,12.008 40.381,12.008 C40.381,12.008 34.376,22.743 34.376,22.743 C34.376,22.743 38.978,22.743 38.978,22.743 Z" id="path-7" class="cls-5" fill-rule="evenodd"/>
    <path d="M27.474,22.743 C27.474,22.743 20.571,22.743 20.571,22.743 C20.571,22.743 17.119,15.873 17.119,15.873 C17.119,15.873 15.969,9.002 15.969,9.002 C15.969,9.002 21.721,12.437 21.721,12.437 C21.721,12.437 27.474,22.743 27.474,22.743 Z" id="path-8" class="cls-3" fill-rule="evenodd"/>
    <path d="M17.998,16.218 C17.692,16.218 17.392,16.079 17.195,15.816 C16.865,15.374 16.955,14.747 17.398,14.417 C17.398,14.417 20.137,12.372 20.137,12.372 C20.580,12.041 21.207,12.133 21.536,12.575 C21.867,13.018 21.776,13.644 21.333,13.975 C21.333,13.975 18.595,16.019 18.595,16.019 C18.415,16.154 18.206,16.218 17.998,16.218 Z" id="path-9" class="cls-5" fill-rule="evenodd"/>
    <path d="M33.907,22.743 C33.907,22.743 33.907,12.961 33.907,12.961 C33.907,12.961 30.863,7.011 30.863,7.011 C30.863,7.011 28.175,13.442 28.175,13.442 C28.175,13.442 28.175,22.743 28.175,22.743 C28.175,22.743 33.907,22.743 33.907,22.743 Z" id="path-10" class="cls-12" fill-rule="evenodd"/>
    <path d="M33.171,14.940 C33.171,14.940 29.144,14.940 29.144,14.940 C28.592,14.940 28.144,14.493 28.144,13.940 C28.144,13.388 28.592,12.940 29.144,12.940 C29.144,12.940 33.171,12.940 33.171,12.940 C33.723,12.940 34.171,13.388 34.171,13.940 C34.171,14.493 33.723,14.940 33.171,14.940 Z" id="path-11" class="cls-13" fill-rule="evenodd"/>
  </g>
</svg>
