<svg xmlns="http://www.w3.org/2000/svg" xmlns:xlink="http://www.w3.org/1999/xlink" preserveAspectRatio="xMidYMid" width="62" height="23" viewBox="0 0 62 23">
  <defs>
    <style>

      .cls-3 {
        fill: #ff3a2f;
      }

      .cls-5 {
        fill: #0cb04a;
      }

      .cls-8 {
        fill: #ededed;
      }

      .cls-9 {
        fill: #000000;
        opacity: 0.35;
      }
    </style>
  </defs>
  <g id="group-247svg">
    <path d="M15.852,16.133 C15.852,16.133 11.263,16.133 11.263,16.133 C10.378,16.133 9.662,16.624 9.662,17.229 C9.662,17.834 10.378,18.323 11.263,18.323 C11.263,18.323 11.477,18.323 11.477,18.323 C12.362,18.323 13.079,18.814 13.079,19.419 C13.079,20.024 12.362,20.514 11.477,20.514 C11.477,20.514 1.613,20.514 1.613,20.514 C0.728,20.514 0.011,21.004 0.011,21.609 C0.011,22.214 0.728,22.704 1.613,22.704 C1.613,22.704 13.467,22.704 13.467,22.704 C13.467,22.704 37.697,22.704 37.697,22.704 C38.582,22.704 39.299,22.214 39.299,21.609 C39.299,21.004 38.582,20.514 37.697,20.514 C37.697,20.514 34.959,20.514 34.959,20.514 C34.074,20.514 33.357,20.024 33.357,19.419 C33.357,18.814 34.074,18.323 34.959,18.323 C34.959,18.323 45.711,18.323 45.711,18.323 C46.596,18.323 47.313,17.834 47.313,17.229 C47.313,16.624 46.596,16.133 45.711,16.133 C45.711,16.133 44.909,16.133 44.909,16.133 C44.909,16.133 15.852,16.133 15.852,16.133 Z" id="path-1" class="cls-3" fill-rule="evenodd"/>
    <path d="M44.310,22.998 C43.568,22.998 42.967,22.472 42.967,21.824 C42.967,21.175 43.568,20.650 44.310,20.650 C44.310,20.650 48.426,20.650 48.426,20.650 C49.167,20.650 49.769,21.175 49.769,21.824 C49.769,22.472 49.167,22.998 48.426,22.998 C48.426,22.998 44.310,22.998 44.310,22.998 Z" id="path-2" class="cls-3" fill-rule="evenodd"/>
    <path d="M60.823,10.397 C60.823,10.397 43.778,10.397 43.778,10.397 C43.122,10.397 42.590,9.865 42.590,9.209 C42.590,9.209 42.590,9.021 42.590,9.021 C42.590,8.365 43.122,7.833 43.778,7.833 C43.778,7.833 60.823,7.833 60.823,7.833 C61.479,7.833 62.011,8.365 62.011,9.021 C62.011,9.021 62.011,9.209 62.011,9.209 C62.011,9.865 61.479,10.397 60.823,10.397 Z" id="path-3" class="cls-5" fill-rule="evenodd"/>
    <path d="M38.978,16.972 C38.978,16.972 14.194,16.972 14.194,16.972 C14.194,16.972 4.411,8.004 4.411,8.004 C4.411,8.004 48.762,8.004 48.762,8.004 C48.762,8.004 38.978,16.972 38.978,16.972 Z" id="path-4" class="cls-5" fill-rule="evenodd"/>
    <path d="M17.171,2.843 C17.171,2.843 36.001,2.843 36.001,2.843 C36.787,2.843 37.563,3.012 38.277,3.340 C38.277,3.340 45.568,6.682 45.568,6.682 C45.568,6.682 7.604,6.682 7.604,6.682 C7.604,6.682 14.894,3.340 14.894,3.340 C15.609,3.012 16.385,2.843 17.171,2.843 Z" id="path-5" class="cls-5" fill-rule="evenodd"/>
    <path d="M12.385,13.388 C12.159,13.388 11.931,13.312 11.744,13.155 C11.744,13.155 9.898,11.612 9.898,11.612 C9.475,11.258 9.418,10.627 9.772,10.204 C10.126,9.780 10.756,9.722 11.181,10.078 C11.181,10.078 13.027,11.621 13.027,11.621 C13.450,11.975 13.507,12.606 13.152,13.029 C12.955,13.266 12.671,13.388 12.385,13.388 Z" id="path-6" class="cls-8" fill-rule="evenodd"/>
    <path d="M43.135,8.004 C43.135,8.004 38.005,12.706 38.005,12.706 C36.536,14.053 34.615,14.801 32.622,14.801 C32.622,14.801 11.825,14.801 11.825,14.801 C11.825,14.801 14.194,16.972 14.194,16.972 C14.194,16.972 38.978,16.972 38.978,16.972 C38.978,16.972 48.762,8.004 48.762,8.004 C48.762,8.004 43.135,8.004 43.135,8.004 Z" id="path-7" class="cls-9" fill-rule="evenodd"/>
    <path d="M38.277,3.340 C37.563,3.012 36.787,2.843 36.001,2.843 C36.001,2.843 34.133,2.843 34.133,2.843 C34.133,2.843 35.913,3.659 35.913,3.659 C36.903,4.113 36.579,5.596 35.490,5.596 C35.490,5.596 9.974,5.596 9.974,5.596 C9.974,5.596 7.604,6.682 7.604,6.682 C7.604,6.682 45.568,6.682 45.568,6.682 C45.568,6.682 38.277,3.340 38.277,3.340 Z" id="path-8" class="cls-9" fill-rule="evenodd"/>
    <path d="M29.871,1.401 C29.871,1.401 23.301,1.401 23.301,1.401 C22.941,1.401 22.650,1.110 22.650,0.750 C22.650,0.750 22.650,0.638 22.650,0.638 C22.650,0.278 22.941,-0.014 23.301,-0.014 C23.301,-0.014 29.871,-0.014 29.871,-0.014 C30.231,-0.014 30.522,0.278 30.522,0.638 C30.522,0.638 30.522,0.750 30.522,0.750 C30.522,1.110 30.231,1.401 29.871,1.401 Z" id="path-9" class="cls-5" fill-rule="evenodd"/>
  </g>
</svg>
