<svg xmlns="http://www.w3.org/2000/svg" xmlns:xlink="http://www.w3.org/1999/xlink" preserveAspectRatio="xMidYMid" width="61" height="56" viewBox="0 0 61 56">
  <defs>
    <style>

      .cls-3 {
        fill: #2476ff;
      }

      .cls-8 {
        fill: #142a3b;
      }

      .cls-9 {
        fill: #ff3a2f;
      }

      .cls-10 {
        fill: #010101;
        opacity: 0.45;
      }

      .cls-11 {
        fill: #010101;
        opacity: 0.35;
      }

      .cls-13 {
        fill: #ffffff;
      }
    </style>
  </defs>
  <g id="group-96svg">
    <path d="M21.605,50.329 C21.605,50.329 26.007,50.329 26.007,50.329 C26.855,50.329 27.544,50.638 27.544,51.019 C27.544,51.400 26.855,51.709 26.007,51.709 C26.007,51.709 25.802,51.709 25.802,51.709 C24.953,51.709 24.266,52.017 24.266,52.399 C24.266,52.779 24.953,53.089 25.802,53.089 C25.802,53.089 35.264,53.089 35.264,53.089 C36.112,53.089 36.801,53.397 36.801,53.779 C36.801,54.160 36.112,54.469 35.264,54.469 C35.264,54.469 23.893,54.469 23.893,54.469 C23.893,54.469 11.395,54.469 11.395,54.469 C10.547,54.469 9.859,54.160 9.859,53.779 C9.859,53.397 10.547,53.089 11.395,53.089 C11.395,53.089 14.021,53.089 14.021,53.089 C14.870,53.089 15.559,52.779 15.559,52.399 C15.559,52.017 14.870,51.709 14.021,51.709 C14.021,51.709 1.523,51.709 1.523,51.709 C0.675,51.709 -0.013,51.400 -0.013,51.019 C-0.013,50.638 0.675,50.329 1.523,50.329 C1.523,50.329 4.477,50.329 4.477,50.329 C4.477,50.329 21.605,50.329 21.605,50.329 Z" id="path-1" class="cls-3" fill-rule="evenodd"/>
    <path d="M48.848,55.065 C49.816,55.065 50.602,54.713 50.602,54.278 C50.602,53.843 49.816,53.490 48.848,53.490 C48.848,53.490 43.472,53.490 43.472,53.490 C42.502,53.490 41.717,53.843 41.717,54.278 C41.717,54.713 42.502,55.065 43.472,55.065 C43.472,55.065 48.848,55.065 48.848,55.065 Z" id="path-2" class="cls-3" fill-rule="evenodd"/>
    <path d="M53.010,44.131 C53.010,44.131 55.031,44.131 55.031,44.131 C55.421,44.131 55.736,44.306 55.736,44.523 C55.736,44.738 55.421,44.914 55.031,44.914 C55.031,44.914 54.937,44.914 54.937,44.914 C54.547,44.914 54.231,45.089 54.231,45.306 C54.231,45.522 54.547,45.697 54.937,45.697 C54.937,45.697 59.281,45.697 59.281,45.697 C59.672,45.697 59.987,45.872 59.987,46.088 C59.987,46.304 59.672,46.480 59.281,46.480 C59.281,46.480 54.060,46.480 54.060,46.480 C54.060,46.480 43.389,46.480 43.389,46.480 C42.999,46.480 42.683,46.304 42.683,46.088 C42.683,45.872 42.999,45.697 43.389,45.697 C43.389,45.697 44.594,45.697 44.594,45.697 C44.983,45.697 45.300,45.522 45.300,45.306 C45.300,45.089 44.983,44.914 44.594,44.914 C44.594,44.914 38.855,44.914 38.855,44.914 C38.466,44.914 38.150,44.738 38.150,44.523 C38.150,44.306 38.466,44.131 38.855,44.131 C38.855,44.131 40.212,44.131 40.212,44.131 C40.212,44.131 53.010,44.131 53.010,44.131 Z" id="path-3" class="cls-3" fill-rule="evenodd"/>
    <path d="M46.212,26.681 C46.212,26.681 46.212,28.702 46.212,28.702 C46.212,29.092 45.943,29.408 45.612,29.408 C45.280,29.408 45.012,29.092 45.012,28.702 C45.012,28.702 45.012,28.608 45.012,28.608 C45.012,28.218 44.743,27.902 44.412,27.902 C44.081,27.902 43.812,28.218 43.812,28.608 C43.812,28.608 43.812,32.953 43.812,32.953 C43.812,33.342 43.544,33.658 43.212,33.658 C42.881,33.658 42.612,33.342 42.612,32.953 C42.612,32.953 42.612,27.731 42.612,27.731 C42.612,27.731 42.612,17.059 42.612,17.059 C42.612,16.669 42.881,16.354 43.212,16.354 C43.544,16.354 43.812,16.669 43.812,17.059 C43.812,17.059 43.812,18.265 43.812,18.265 C43.812,18.655 44.081,18.971 44.412,18.971 C44.743,18.971 45.012,18.655 45.012,18.265 C45.012,18.265 45.012,12.526 45.012,12.526 C45.012,12.136 45.280,11.820 45.612,11.820 C45.943,11.820 46.212,12.136 46.212,12.526 C46.212,12.526 46.212,13.882 46.212,13.882 C46.212,13.882 46.212,26.681 46.212,26.681 Z" id="path-4" class="cls-3" fill-rule="evenodd"/>
    <path d="M37.682,46.903 C38.409,46.903 38.998,46.758 38.998,46.579 C38.998,46.400 38.409,46.255 37.682,46.255 C37.682,46.255 33.648,46.255 33.648,46.255 C32.921,46.255 32.332,46.400 32.332,46.579 C32.332,46.758 32.921,46.903 33.648,46.903 C33.648,46.903 37.682,46.903 37.682,46.903 Z" id="path-5" class="cls-3" fill-rule="evenodd"/>
    <path d="M14.101,44.775 C11.437,44.775 8.772,43.761 6.745,41.733 C4.776,39.765 3.684,37.144 3.668,34.354 C3.652,31.552 4.726,28.928 6.690,26.963 C8.835,24.818 11.179,23.772 13.683,23.845 C13.683,23.845 16.104,21.424 16.104,21.424 C16.495,21.034 17.128,21.034 17.518,21.424 C17.909,21.814 17.909,22.447 17.518,22.838 C17.518,22.838 14.451,25.906 14.451,25.906 C14.451,25.906 13.987,25.866 13.987,25.866 C11.900,25.685 9.974,26.507 8.104,28.377 C6.520,29.961 5.655,32.079 5.668,34.343 C5.681,36.603 6.565,38.725 8.159,40.319 C11.437,43.597 16.771,43.595 20.053,40.314 C21.849,38.518 22.700,36.391 22.515,34.163 C22.515,34.163 22.476,33.701 22.476,33.701 C22.476,33.701 25.429,30.748 25.429,30.748 C25.819,30.358 26.452,30.358 26.843,30.748 C27.233,31.138 27.233,31.772 26.843,32.162 C26.843,32.162 24.535,34.471 24.535,34.471 C24.622,37.127 23.567,39.627 21.467,41.728 C19.435,43.758 16.768,44.775 14.101,44.775 Z" id="path-6" class="cls-8" fill-rule="evenodd"/>
    <path d="M37.484,30.661 C37.484,30.661 17.154,10.331 17.154,10.331 C16.060,9.239 14.116,9.412 13.023,10.505 C11.931,11.598 11.758,13.542 12.851,14.635 C12.851,14.635 17.354,19.139 17.354,19.139 C17.354,19.139 15.203,21.291 15.203,21.291 C15.203,21.291 26.679,32.766 26.679,32.766 C26.679,32.766 28.830,30.615 28.830,30.615 C28.830,30.615 33.181,34.965 33.181,34.965 C34.273,36.058 36.218,35.884 37.311,34.792 C38.403,33.699 38.576,31.754 37.484,30.661 Z" id="path-7" class="cls-9" fill-rule="evenodd"/>
    <path d="M17.524,19.175 C17.524,19.175 17.139,19.560 17.139,19.560 C17.139,19.560 27.505,31.954 27.505,31.954 C27.505,31.954 28.904,30.555 28.904,30.555 C28.904,30.555 17.524,19.175 17.524,19.175 Z" id="path-8" class="cls-10" fill-rule="evenodd"/>
    <path d="M37.484,30.675 C37.484,30.675 17.154,10.345 17.154,10.345 C16.462,9.654 15.430,9.472 14.486,9.707 C14.486,9.707 33.427,28.647 33.427,28.647 C34.519,29.739 34.347,31.684 33.254,32.777 C32.852,33.178 32.336,33.452 31.790,33.588 C31.790,33.588 33.181,34.979 33.181,34.979 C34.273,36.071 36.218,35.898 37.311,34.805 C38.403,33.713 38.576,31.768 37.484,30.675 Z" id="path-9" class="cls-11" fill-rule="evenodd"/>
    <path d="M45.343,14.436 C48.885,10.894 48.524,4.888 44.477,1.708 C42.066,-0.186 38.733,-0.513 35.918,0.700 C32.103,2.343 30.633,6.075 31.011,9.442 C31.224,11.341 30.459,13.221 29.108,14.572 C29.108,14.572 25.244,18.435 25.244,18.435 C25.244,18.435 29.548,22.739 29.548,22.739 C29.548,22.739 33.505,18.782 33.505,18.782 C34.871,17.416 36.775,16.825 38.702,16.952 C41.046,17.107 43.502,16.277 45.343,14.436 Z" id="path-10" class="cls-3" fill-rule="evenodd"/>
    <path d="M34.691,7.610 C34.506,7.610 34.318,7.576 34.137,7.503 C33.367,7.196 32.991,6.324 33.298,5.555 C34.214,3.253 36.262,1.646 38.643,1.360 C39.473,1.261 40.212,1.849 40.311,2.671 C40.409,3.494 39.822,4.241 39.000,4.339 C37.730,4.491 36.587,5.404 36.085,6.664 C35.851,7.252 35.287,7.610 34.691,7.610 Z" id="path-11" class="cls-13" fill-rule="evenodd"/>
    <path d="M44.477,1.708 C43.313,0.794 41.935,0.254 40.504,0.067 C40.826,0.252 41.137,0.461 41.434,0.694 C45.481,3.874 45.842,9.880 42.300,13.422 C40.459,15.263 38.003,16.093 35.659,15.937 C33.732,15.810 31.828,16.402 30.462,17.767 C30.462,17.767 27.518,20.710 27.518,20.710 C27.518,20.710 29.548,22.739 29.548,22.739 C29.548,22.739 33.505,18.782 33.505,18.782 C34.871,17.416 36.775,16.825 38.702,16.952 C41.046,17.107 43.502,16.277 45.343,14.436 C48.885,10.894 48.524,4.888 44.477,1.708 Z" id="path-12" class="cls-11" fill-rule="evenodd"/>
  </g>
</svg>
