<svg xmlns="http://www.w3.org/2000/svg" xmlns:xlink="http://www.w3.org/1999/xlink" preserveAspectRatio="xMidYMid" width="60" height="52" viewBox="0 0 60 52">
  <defs>
    <style>

      .cls-3 {
        fill: #0cb04a;
      }

      .cls-6 {
        fill: #142a3b;
      }

      .cls-9 {
        fill: #ededed;
      }

      .cls-10 {
        fill: #090908;
        opacity: 0.35;
      }

      .cls-13 {
        fill: #fbb713;
      }

      .cls-14 {
        fill: #ff3a2f;
      }

      .cls-16 {
        fill: #2476ff;
      }
    </style>
  </defs>
  <g id="group-190svg">
    <path d="M22.207,45.355 C22.207,45.355 17.093,45.355 17.093,45.355 C16.107,45.355 15.308,45.813 15.308,46.378 C15.308,46.942 16.107,47.400 17.093,47.400 C17.093,47.400 17.331,47.400 17.331,47.400 C18.317,47.400 19.117,47.858 19.117,48.422 C19.117,48.987 18.317,49.445 17.331,49.445 C17.331,49.445 6.337,49.445 6.337,49.445 C5.350,49.445 4.551,49.902 4.551,50.467 C4.551,51.032 5.350,51.490 6.337,51.490 C6.337,51.490 19.549,51.490 19.549,51.490 C19.549,51.490 46.555,51.490 46.555,51.490 C47.541,51.490 48.341,51.032 48.341,50.467 C48.341,49.902 47.541,49.445 46.555,49.445 C46.555,49.445 43.504,49.445 43.504,49.445 C42.518,49.445 41.718,48.987 41.718,48.422 C41.718,47.858 42.518,47.400 43.504,47.400 C43.504,47.400 55.488,47.400 55.488,47.400 C56.474,47.400 57.273,46.942 57.273,46.378 C57.273,45.813 56.474,45.355 55.488,45.355 C55.488,45.355 54.594,45.355 54.594,45.355 C54.594,45.355 22.207,45.355 22.207,45.355 Z" id="path-1" class="cls-3" fill-rule="evenodd"/>
    <path d="M53.927,51.763 C53.100,51.763 52.430,51.273 52.430,50.668 C52.430,50.062 53.100,49.572 53.927,49.572 C53.927,49.572 58.514,49.572 58.514,49.572 C59.341,49.572 60.011,50.062 60.011,50.668 C60.011,51.273 59.341,51.763 58.514,51.763 C58.514,51.763 53.927,51.763 53.927,51.763 Z" id="path-2" class="cls-3" fill-rule="evenodd"/>
    <path d="M2.438,46.404 C1.604,46.404 0.928,45.910 0.928,45.299 C0.928,44.689 1.604,44.194 2.438,44.194 C2.438,44.194 7.065,44.194 7.065,44.194 C7.899,44.194 8.576,44.689 8.576,45.299 C8.576,45.910 7.899,46.404 7.065,46.404 C7.065,46.404 2.438,46.404 2.438,46.404 Z" id="path-3" class="cls-3" fill-rule="evenodd"/>
    <path d="M33.958,43.775 C33.958,43.775 17.102,43.775 17.102,43.775 C17.102,43.775 17.102,42.628 17.102,42.628 C17.102,42.628 33.958,42.628 33.958,42.628 C33.958,42.628 33.958,43.775 33.958,43.775 Z" id="path-4" class="cls-6" fill-rule="evenodd"/>
    <path d="M27.625,48.531 C27.625,48.531 23.525,48.531 23.525,48.531 C23.525,48.531 23.525,-0.012 23.525,-0.012 C23.525,-0.012 27.625,-0.012 27.625,-0.012 C27.625,-0.012 27.625,48.531 27.625,48.531 Z" id="path-5" class="cls-6" fill-rule="evenodd"/>
    <path d="M47.324,35.084 C47.324,35.084 4.849,35.084 4.849,35.084 C4.849,35.084 4.849,3.596 4.849,3.596 C4.849,3.596 47.324,3.596 47.324,3.596 C47.324,3.596 47.324,35.084 47.324,35.084 Z" id="path-6" class="cls-6" fill-rule="evenodd"/>
    <path d="M44.161,32.298 C44.161,32.298 8.012,32.298 8.012,32.298 C8.012,32.298 8.012,6.381 8.012,6.381 C8.012,6.381 44.161,6.381 44.161,6.381 C44.161,6.381 44.161,32.298 44.161,32.298 Z" id="path-7" class="cls-9" fill-rule="evenodd"/>
    <path d="M44.161,9.698 C44.161,9.698 8.012,7.802 8.012,7.802 C8.012,7.802 8.012,6.381 8.012,6.381 C8.012,6.381 44.161,6.381 44.161,6.381 C44.161,6.381 44.161,9.698 44.161,9.698 Z" id="path-8" class="cls-10" fill-rule="evenodd"/>
    <path d="M52.162,5.318 C52.162,5.318 0.011,5.318 0.011,5.318 C0.011,5.318 0.011,2.612 0.011,2.612 C0.011,2.612 52.162,2.612 52.162,2.612 C52.162,2.612 52.162,5.318 52.162,5.318 Z" id="path-9" class="cls-6" fill-rule="evenodd"/>
    <path d="M15.672,26.408 C15.476,26.408 15.278,26.350 15.104,26.230 C14.650,25.916 14.536,25.293 14.850,24.839 C14.850,24.839 20.472,16.705 20.472,16.705 C20.472,16.705 31.525,22.996 31.525,22.996 C31.525,22.996 36.093,14.441 36.093,14.441 C36.353,13.954 36.956,13.769 37.446,14.029 C37.933,14.290 38.117,14.896 37.857,15.384 C37.857,15.384 32.322,25.751 32.322,25.751 C32.322,25.751 21.076,19.350 21.076,19.350 C21.076,19.350 16.496,25.976 16.496,25.976 C16.301,26.257 15.989,26.408 15.672,26.408 Z" id="path-10" class="cls-6" fill-rule="evenodd"/>
    <path d="M18.197,25.309 C18.197,26.702 17.067,27.832 15.673,27.832 C14.278,27.832 13.148,26.702 13.148,25.309 C13.148,23.914 14.278,22.784 15.673,22.784 C17.067,22.784 18.197,23.914 18.197,25.309 Z" id="path-11" class="cls-13" fill-rule="evenodd"/>
    <path d="M23.480,17.208 C23.480,18.929 22.085,20.324 20.364,20.324 C18.643,20.324 17.248,18.929 17.248,17.208 C17.248,15.487 18.643,14.091 20.364,14.091 C22.085,14.091 23.480,15.487 23.480,17.208 Z" id="path-12" class="cls-14" fill-rule="evenodd"/>
    <path d="M34.825,24.374 C34.825,25.976 33.526,27.276 31.923,27.276 C30.320,27.276 29.021,25.976 29.021,24.374 C29.021,22.771 30.320,21.471 31.923,21.471 C33.526,21.471 34.825,22.771 34.825,24.374 Z" id="path-13" class="cls-3" fill-rule="evenodd"/>
    <path d="M39.025,14.173 C39.025,15.306 38.107,16.224 36.975,16.224 C35.843,16.224 34.925,15.306 34.925,14.173 C34.925,13.041 35.843,12.124 36.975,12.124 C38.107,12.124 39.025,13.041 39.025,14.173 Z" id="path-14" class="cls-16" fill-rule="evenodd"/>
    <path d="M38.435,48.520 C38.435,48.520 44.244,48.531 44.244,48.531 C44.244,48.531 28.540,32.827 28.540,32.827 C28.540,32.827 25.641,35.726 25.641,35.726 C25.641,35.726 38.435,48.520 38.435,48.520 Z" id="path-15" class="cls-6" fill-rule="evenodd"/>
    <path d="M13.738,48.520 C13.738,48.520 7.929,48.531 7.929,48.531 C7.929,48.531 23.633,32.827 23.633,32.827 C23.633,32.827 26.533,35.726 26.533,35.726 C26.533,35.726 13.738,48.520 13.738,48.520 Z" id="path-16" class="cls-6" fill-rule="evenodd"/>
    <path d="M34.367,38.654 C34.367,38.654 30.796,35.084 30.796,35.084 C30.796,35.084 21.377,35.084 21.377,35.084 C21.377,35.084 19.591,36.869 19.591,36.869 C19.591,36.869 27.625,37.706 27.625,37.706 C27.625,37.706 27.625,37.711 27.625,37.711 C27.625,37.711 34.367,38.654 34.367,38.654 Z" id="path-17" class="cls-10" fill-rule="evenodd"/>
  </g>
</svg>
