<svg xmlns="http://www.w3.org/2000/svg" xmlns:xlink="http://www.w3.org/1999/xlink" preserveAspectRatio="xMidYMid" width="62" height="54" viewBox="0 0 62 54">
  <defs>
    <style>

      .cls-3 {
        fill: #0cb04a;
      }

      .cls-4 {
        fill: #020403;
        opacity: 0.35;
      }

      .cls-9 {
        fill: #fbb713;
      }
    </style>
  </defs>
  <g id="group-50svg">
    <path d="M32.409,12.807 C31.050,13.217 29.436,13.349 27.563,12.783 C14.233,8.034 -0.010,11.224 -0.010,11.224 C-0.010,11.224 0.117,12.469 0.418,14.475 C3.086,14.816 3.079,18.075 3.079,18.075 C3.079,18.075 3.622,22.768 4.761,25.277 C6.548,29.219 13.514,29.954 13.514,29.954 C18.021,30.607 21.750,28.956 23.402,27.287 C25.292,25.376 25.385,24.341 26.287,20.748 C27.010,17.875 27.675,17.882 29.047,17.882 C30.901,17.882 31.993,17.921 32.681,20.785 C33.545,24.386 34.314,25.631 36.185,27.561 C37.819,29.248 41.644,30.832 46.161,30.227 C46.161,30.227 53.189,29.513 55.020,25.590 C56.184,23.092 56.807,18.380 56.807,18.380 C56.807,18.380 56.850,15.105 59.520,14.792 C59.843,12.789 59.990,11.545 59.990,11.545 C59.990,11.545 45.788,8.198 32.409,12.807 ZM23.532,17.487 C22.993,17.600 23.292,18.008 22.917,19.499 C22.270,22.077 22.203,22.819 20.847,24.190 C19.662,25.388 16.987,26.572 13.754,26.103 C13.754,26.103 8.756,25.576 7.474,22.748 C6.657,20.948 6.267,17.582 6.267,17.582 C6.267,17.582 6.180,17.247 6.180,17.247 C5.911,15.454 5.798,14.343 5.798,14.343 C5.798,14.343 13.811,12.405 23.532,14.111 C23.532,14.111 23.532,17.487 23.532,17.487 ZM53.202,18.008 C53.202,18.008 53.114,18.343 53.114,18.343 C53.114,18.343 52.725,21.709 51.908,23.510 C50.626,26.337 45.628,26.864 45.628,26.864 C42.395,27.333 39.720,26.149 38.535,24.951 C37.179,23.581 37.112,22.838 36.465,20.261 C36.090,18.769 36.389,18.361 35.850,18.249 C35.850,18.249 35.850,14.872 35.850,14.872 C45.570,13.167 53.584,15.104 53.584,15.104 C53.584,15.104 53.471,16.216 53.202,18.008 Z" id="path-1" class="cls-3" fill-rule="evenodd"/>
    <path d="M24.290,12.783 C25.837,13.251 27.204,13.238 28.400,12.990 C28.126,12.934 27.849,12.869 27.563,12.783 C21.215,10.521 14.663,10.062 9.537,10.199 C14.034,10.322 19.227,10.979 24.290,12.783 Z" id="path-2" class="cls-4" fill-rule="evenodd"/>
    <path d="M38.535,24.951 C37.179,23.581 37.112,22.838 36.465,20.261 C36.090,18.769 36.389,18.361 35.850,18.249 C35.850,18.249 35.850,14.872 35.850,14.872 C38.200,14.460 40.447,14.263 42.509,14.198 C39.666,14.104 36.244,14.229 32.576,14.872 C32.576,14.872 32.576,18.249 32.576,18.249 C33.116,18.361 32.817,18.769 33.192,20.261 C33.840,22.838 33.906,23.581 35.262,24.951 C36.447,26.149 39.122,27.333 42.355,26.864 C42.355,26.864 42.453,26.853 42.616,26.829 C40.781,26.527 39.324,25.748 38.535,24.951 Z" id="path-3" class="cls-4" fill-rule="evenodd"/>
    <path d="M3.199,18.967 C3.393,20.105 3.723,21.693 4.201,22.748 C5.483,25.576 10.480,26.103 10.480,26.103 C11.561,26.259 12.571,26.220 13.493,26.068 C12.459,25.916 8.582,25.192 7.474,22.748 C6.657,20.948 6.267,17.582 6.267,17.582 C6.267,17.582 6.180,17.247 6.180,17.247 C5.911,15.454 5.798,14.342 5.798,14.342 C5.798,14.342 8.907,13.592 13.601,13.437 C7.136,13.232 2.525,14.342 2.525,14.342 C2.525,14.342 2.610,15.183 2.810,16.579 C3.077,17.368 3.079,18.075 3.079,18.075 C3.079,18.075 3.120,18.421 3.199,18.967 Z" id="path-4" class="cls-4" fill-rule="evenodd"/>
    <path d="M25.774,17.882 C24.402,17.882 23.737,17.874 23.015,20.748 C22.112,24.341 22.019,25.376 20.129,27.287 C18.950,28.477 16.704,29.643 13.884,29.986 C18.222,30.496 21.796,28.909 23.402,27.287 C25.292,25.376 25.385,24.341 26.287,20.748 C26.712,19.059 27.118,18.369 27.658,18.083 C27.137,17.892 26.518,17.882 25.774,17.882 Z" id="path-5" class="cls-4" fill-rule="evenodd"/>
    <path d="M46.551,10.396 C52.523,10.559 56.718,11.545 56.718,11.545 C56.718,11.545 56.570,12.788 56.247,14.792 C53.576,15.105 53.533,18.380 53.533,18.380 C53.533,18.380 52.911,23.092 51.748,25.590 C49.917,29.513 42.889,30.227 42.889,30.227 C42.778,30.241 42.674,30.240 42.564,30.252 C43.690,30.380 44.893,30.396 46.161,30.227 C46.161,30.227 53.189,29.513 55.020,25.590 C56.184,23.092 56.807,18.380 56.807,18.380 C56.807,18.380 56.850,15.105 59.520,14.792 C59.843,12.788 59.990,11.545 59.990,11.545 C59.990,11.545 54.208,10.186 46.551,10.396 Z" id="path-6" class="cls-4" fill-rule="evenodd"/>
    <path d="M47.371,36.820 C47.371,36.820 51.207,36.820 51.207,36.820 C51.946,36.820 52.546,37.019 52.546,37.264 C52.546,37.510 51.946,37.708 51.207,37.708 C51.207,37.708 51.028,37.708 51.028,37.708 C50.288,37.708 49.688,37.907 49.688,38.152 C49.688,38.397 50.288,38.595 51.028,38.595 C51.028,38.595 59.273,38.595 59.273,38.595 C60.014,38.595 60.613,38.794 60.613,39.040 C60.613,39.285 60.014,39.483 59.273,39.483 C59.273,39.483 49.364,39.483 49.364,39.483 C49.364,39.483 38.474,39.483 38.474,39.483 C37.733,39.483 37.134,39.285 37.134,39.040 C37.134,38.794 37.733,38.595 38.474,38.595 C38.474,38.595 40.762,38.595 40.762,38.595 C41.501,38.595 42.101,38.397 42.101,38.152 C42.101,37.907 41.501,37.708 40.762,37.708 C40.762,37.708 29.870,37.708 29.870,37.708 C29.131,37.708 28.531,37.510 28.531,37.264 C28.531,37.019 29.131,36.820 29.870,36.820 C29.870,36.820 32.444,36.820 32.444,36.820 C32.444,36.820 47.371,36.820 47.371,36.820 Z" id="path-7" class="cls-9" fill-rule="evenodd"/>
    <path d="M21.436,48.768 C21.436,48.768 24.126,48.768 24.126,48.768 C24.644,48.768 25.065,49.067 25.065,49.435 C25.065,49.804 24.644,50.102 24.126,50.102 C24.126,50.102 24.001,50.102 24.001,50.102 C23.482,50.102 23.062,50.400 23.062,50.768 C23.062,51.137 23.482,51.435 24.001,51.435 C24.001,51.435 29.783,51.435 29.783,51.435 C30.302,51.435 30.722,51.734 30.722,52.101 C30.722,52.470 30.302,52.768 29.783,52.768 C29.783,52.768 22.834,52.768 22.834,52.768 C22.834,52.768 15.197,52.768 15.197,52.768 C14.679,52.768 14.258,52.470 14.258,52.101 C14.258,51.734 14.679,51.435 15.197,51.435 C15.197,51.435 16.802,51.435 16.802,51.435 C17.320,51.435 17.741,51.137 17.741,50.768 C17.741,50.400 17.320,50.102 16.802,50.102 C16.802,50.102 9.164,50.102 9.164,50.102 C8.645,50.102 8.226,49.804 8.226,49.435 C8.226,49.067 8.645,48.768 9.164,48.768 C9.164,48.768 10.970,48.768 10.970,48.768 C10.970,48.768 21.436,48.768 21.436,48.768 Z" id="path-8" class="cls-9" fill-rule="evenodd"/>
    <path d="M23.213,37.301 C24.060,37.301 24.748,36.964 24.748,36.549 C24.748,36.133 24.060,35.796 23.213,35.796 C23.213,35.796 18.507,35.796 18.507,35.796 C17.658,35.796 16.971,36.133 16.971,36.549 C16.971,36.964 17.658,37.301 18.507,37.301 C18.507,37.301 23.213,37.301 23.213,37.301 Z" id="path-9" class="cls-9" fill-rule="evenodd"/>
    <path d="M23.734,-0.008 C23.734,-0.008 24.996,-0.008 24.996,-0.008 C25.240,-0.008 25.437,0.191 25.437,0.435 C25.437,0.681 25.240,0.879 24.996,0.879 C24.996,0.879 24.937,0.879 24.937,0.879 C24.694,0.879 24.497,1.078 24.497,1.323 C24.497,1.568 24.694,1.767 24.937,1.767 C24.937,1.767 27.651,1.767 27.651,1.767 C27.895,1.767 28.093,1.965 28.093,2.211 C28.093,2.455 27.895,2.654 27.651,2.654 C27.651,2.654 24.391,2.654 24.391,2.654 C24.391,2.654 20.806,2.654 20.806,2.654 C20.561,2.654 20.364,2.455 20.364,2.211 C20.364,1.965 20.561,1.767 20.806,1.767 C20.806,1.767 21.559,1.767 21.559,1.767 C21.802,1.767 21.999,1.568 21.999,1.323 C21.999,1.078 21.802,0.879 21.559,0.879 C21.559,0.879 17.974,0.879 17.974,0.879 C17.730,0.879 17.533,0.681 17.533,0.435 C17.533,0.191 17.730,-0.008 17.974,-0.008 C17.974,-0.008 18.821,-0.008 18.821,-0.008 C18.821,-0.008 23.734,-0.008 23.734,-0.008 Z" id="path-10" class="cls-9" fill-rule="evenodd"/>
  </g>
</svg>
