<svg xmlns="http://www.w3.org/2000/svg" xmlns:xlink="http://www.w3.org/1999/xlink" preserveAspectRatio="xMidYMid" width="60" height="54" viewBox="0 0 60 54">
  <defs>
    <style>

      .cls-3 {
        fill: #142a3b;
      }

      .cls-4 {
        fill: #fbb713;
      }

      .cls-7 {
        fill: #000000;
        opacity: 0.35;
      }

      .cls-8 {
        fill: #ededed;
      }

      .cls-10 {
        fill: #000000;
        opacity: 0.25;
      }

      .cls-11 {
        fill: #ff3a2f;
      }
    </style>
  </defs>
  <g id="group-290svg">
    <path d="M30.016,53.471 C29.463,53.471 29.016,53.024 29.016,52.472 C29.016,52.472 29.016,47.224 29.016,47.224 C29.016,46.672 29.463,46.224 30.016,46.224 C30.568,46.224 31.016,46.672 31.016,47.224 C31.016,47.224 31.016,52.472 31.016,52.472 C31.016,53.024 30.568,53.471 30.016,53.471 Z" id="path-1" class="cls-3" fill-rule="evenodd"/>
    <path d="M60.016,36.960 C60.016,36.960 60.016,43.056 60.016,43.056 C60.016,45.358 58.264,47.224 56.102,47.224 C56.102,47.224 3.928,47.224 3.928,47.224 C1.767,47.224 0.016,45.358 0.016,43.056 C0.016,43.056 0.016,36.960 0.016,36.960 C0.016,36.960 60.016,36.960 60.016,36.960 Z" id="path-2" class="cls-4" fill-rule="evenodd"/>
    <path d="M48.276,53.471 C48.276,53.471 11.754,53.471 11.754,53.471 C11.202,53.471 10.754,53.024 10.754,52.472 C10.754,51.919 11.202,51.472 11.754,51.472 C11.754,51.472 48.276,51.472 48.276,51.472 C48.829,51.472 49.276,51.919 49.276,52.472 C49.276,53.024 48.829,53.471 48.276,53.471 Z" id="path-3" class="cls-3" fill-rule="evenodd"/>
    <path d="M31.809,41.976 C31.809,42.972 31.006,43.780 30.016,43.780 C29.024,43.780 28.222,42.972 28.222,41.976 C28.222,40.979 29.024,40.172 30.016,40.172 C31.006,40.172 31.809,40.979 31.809,41.976 Z" id="path-4" class="cls-3" fill-rule="evenodd"/>
    <path d="M31.657,41.253 C31.753,41.475 31.809,41.719 31.809,41.976 C31.809,42.972 31.006,43.780 30.016,43.780 C29.766,43.780 29.528,43.728 29.312,43.635 C29.589,44.271 30.218,44.716 30.953,44.716 C31.943,44.716 32.746,43.908 32.746,42.912 C32.746,42.167 32.297,41.529 31.657,41.253 Z" id="path-5" class="cls-7" fill-rule="evenodd"/>
    <path d="M60.016,37.808 C60.016,37.808 60.016,4.161 60.016,4.161 C60.016,1.859 58.264,-0.007 56.102,-0.007 C56.102,-0.007 3.928,-0.007 3.928,-0.007 C1.767,-0.007 0.016,1.859 0.016,4.161 C0.016,4.161 0.016,37.808 0.016,37.808 C0.016,37.808 60.016,37.808 60.016,37.808 Z" id="path-6" class="cls-8" fill-rule="evenodd"/>
    <path d="M55.328,37.808 C55.328,37.808 55.328,43.400 55.328,43.400 C55.328,45.512 53.576,47.224 51.415,47.224 C51.415,47.224 56.102,47.224 56.102,47.224 C58.264,47.224 60.016,45.512 60.016,43.400 C60.016,43.400 60.016,37.808 60.016,37.808 C60.016,37.808 55.328,37.808 55.328,37.808 Z" id="path-7" class="cls-7" fill-rule="evenodd"/>
    <path d="M56.102,-0.007 C56.102,-0.007 54.678,-0.007 54.678,-0.007 C55.087,0.652 55.328,1.439 55.328,2.288 C55.328,2.288 55.328,35.935 55.328,35.935 C55.328,35.935 0.016,35.935 0.016,35.935 C0.016,35.935 0.016,37.808 0.016,37.808 C0.016,37.808 60.016,37.808 60.016,37.808 C60.016,37.808 60.016,4.161 60.016,4.161 C60.016,1.859 58.264,-0.007 56.102,-0.007 Z" id="path-8" class="cls-10" fill-rule="evenodd"/>
    <path d="M28.056,16.284 C28.056,16.284 25.396,16.284 25.396,16.284 C24.883,16.284 24.468,16.907 24.468,17.676 C24.468,18.445 24.883,19.068 25.396,19.068 C25.396,19.068 25.520,19.068 25.520,19.068 C26.033,19.068 26.448,19.691 26.448,20.459 C26.448,21.228 26.033,21.851 25.520,21.851 C25.520,21.851 19.803,21.851 19.803,21.851 C19.290,21.851 18.874,22.474 18.874,23.243 C18.874,24.012 19.290,24.634 19.803,24.634 C19.803,24.634 26.673,24.634 26.673,24.634 C26.673,24.634 40.716,24.634 40.716,24.634 C41.229,24.634 41.645,24.012 41.645,23.243 C41.645,22.474 41.229,21.851 40.716,21.851 C40.716,21.851 39.130,21.851 39.130,21.851 C38.617,21.851 38.201,21.228 38.201,20.459 C38.201,19.691 38.617,19.068 39.130,19.068 C39.130,19.068 45.361,19.068 45.361,19.068 C45.874,19.068 46.290,18.445 46.290,17.676 C46.290,16.907 45.874,16.284 45.361,16.284 C45.361,16.284 44.896,16.284 44.896,16.284 C44.896,16.284 28.056,16.284 28.056,16.284 Z" id="path-9" class="cls-11" fill-rule="evenodd"/>
    <path d="M44.549,25.007 C44.120,25.007 43.771,24.339 43.771,23.515 C43.771,22.692 44.120,22.024 44.549,22.024 C44.549,22.024 46.935,22.024 46.935,22.024 C47.365,22.024 47.713,22.692 47.713,23.515 C47.713,24.339 47.365,25.007 46.935,25.007 C46.935,25.007 44.549,25.007 44.549,25.007 Z" id="path-10" class="cls-11" fill-rule="evenodd"/>
    <path d="M11.592,25.007 C11.163,25.007 10.814,24.339 10.814,23.515 C10.814,22.692 11.163,22.024 11.592,22.024 C11.592,22.024 13.977,22.024 13.977,22.024 C14.408,22.024 14.756,22.692 14.756,23.515 C14.756,24.339 14.408,25.007 13.977,25.007 C13.977,25.007 11.592,25.007 11.592,25.007 Z" id="path-11" class="cls-11" fill-rule="evenodd"/>
  </g>
</svg>
