<svg xmlns="http://www.w3.org/2000/svg" xmlns:xlink="http://www.w3.org/1999/xlink" preserveAspectRatio="xMidYMid" width="62" height="63" viewBox="0 0 62 63">
  <defs>
    <style>

      .cls-3 {
        fill: #142a3b;
      }

      .cls-5 {
        fill: #ededed;
      }

      .cls-6 {
        fill: #fbb713;
      }

      .cls-7 {
        fill: #000000;
        opacity: 0.35;
      }

      .cls-10 {
        fill: #000000;
        opacity: 0.2;
      }
    </style>
  </defs>
  <g id="group-305svg">
    <path d="M19.750,53.077 C19.750,53.077 14.033,53.077 14.033,53.077 C12.931,53.077 12.037,53.753 12.037,54.587 C12.037,55.422 12.931,56.098 14.033,56.098 C14.033,56.098 14.299,56.098 14.299,56.098 C15.401,56.098 16.295,56.774 16.295,57.609 C16.295,58.443 15.401,59.119 14.299,59.119 C14.299,59.119 2.008,59.119 2.008,59.119 C0.905,59.119 0.012,59.796 0.012,60.630 C0.012,61.465 0.905,62.141 2.008,62.141 C2.008,62.141 16.778,62.141 16.778,62.141 C16.778,62.141 46.970,62.141 46.970,62.141 C48.072,62.141 48.966,61.465 48.966,60.630 C48.966,59.796 48.072,59.119 46.970,59.119 C46.970,59.119 43.559,59.119 43.559,59.119 C42.456,59.119 41.562,58.443 41.562,57.609 C41.562,56.774 42.456,56.098 43.559,56.098 C43.559,56.098 56.956,56.098 56.956,56.098 C58.059,56.098 58.951,55.422 58.951,54.587 C58.951,53.753 58.059,53.077 56.956,53.077 C56.956,53.077 55.956,53.077 55.956,53.077 C55.956,53.077 19.750,53.077 19.750,53.077 Z" id="path-1" class="cls-3" fill-rule="evenodd"/>
    <path d="M55.210,62.546 C54.286,62.546 53.537,61.820 53.537,60.927 C53.537,60.032 54.286,59.308 55.210,59.308 C55.210,59.308 60.339,59.308 60.339,59.308 C61.263,59.308 62.012,60.032 62.012,60.927 C62.012,61.820 61.263,62.546 60.339,62.546 C60.339,62.546 55.210,62.546 55.210,62.546 Z" id="path-2" class="cls-3" fill-rule="evenodd"/>
    <path d="M11.292,7.922 C0.710,18.504 0.710,35.662 11.292,46.244 C21.873,56.826 39.032,56.826 49.613,46.244 C60.195,35.662 60.195,18.504 49.613,7.922 C39.032,-2.659 21.873,-2.659 11.292,7.922 C11.292,7.922 11.292,7.922 11.292,7.922 Z" id="path-3" class="cls-5" fill-rule="evenodd"/>
    <path d="M11.292,7.922 C5.244,13.969 2.669,22.165 3.532,30.052 C11.419,30.916 19.615,28.340 25.662,22.293 C31.710,16.246 34.285,8.050 33.422,0.163 C25.535,-0.701 17.339,1.875 11.292,7.922 C11.292,7.922 11.292,7.922 11.292,7.922 Z" id="path-4" class="cls-6" fill-rule="evenodd"/>
    <path d="M33.422,0.163 C32.070,0.015 30.711,-0.025 29.353,0.029 C29.988,0.055 30.622,0.094 31.254,0.163 C32.117,8.050 29.542,16.246 23.494,22.293 C18.483,27.304 11.996,29.923 5.433,30.185 C12.719,30.473 20.100,27.856 25.662,22.293 C31.709,16.246 34.285,8.050 33.422,0.163 Z" id="path-5" class="cls-7" fill-rule="evenodd"/>
    <path d="M35.243,31.873 C29.196,37.921 26.620,46.116 27.483,54.004 C35.371,54.867 43.566,52.291 49.613,46.244 C55.661,40.197 58.236,32.001 57.373,24.114 C49.486,23.250 41.290,25.826 35.243,31.873 C35.243,31.873 35.243,31.873 35.243,31.873 Z" id="path-6" class="cls-6" fill-rule="evenodd"/>
    <path d="M29.651,54.004 C28.787,46.116 31.363,37.921 37.411,31.873 C42.422,26.862 48.909,24.242 55.473,23.981 C48.187,23.694 40.806,26.311 35.243,31.873 C29.195,37.921 26.620,46.116 27.483,54.004 C28.835,54.152 30.194,54.191 31.552,54.136 C30.917,54.112 30.283,54.072 29.651,54.004 Z" id="path-7" class="cls-7" fill-rule="evenodd"/>
    <path d="M49.613,7.922 C47.218,5.525 44.481,3.678 41.563,2.367 C42.476,3.071 43.357,3.834 44.194,4.670 C54.775,15.252 54.775,32.411 44.194,42.992 C36.009,51.178 23.890,53.026 13.922,48.548 C24.549,56.752 39.868,55.990 49.613,46.244 C60.195,35.662 60.195,18.504 49.613,7.922 Z" id="path-8" class="cls-10" fill-rule="evenodd"/>
  </g>
</svg>
