<svg xmlns="http://www.w3.org/2000/svg" xmlns:xlink="http://www.w3.org/1999/xlink" preserveAspectRatio="xMidYMid" width="60" height="38" viewBox="0 0 60 38">
  <defs>
    <style>

      .cls-3 {
        fill: #ff3a2f;
      }

      .cls-7 {
        fill: #0cb04a;
      }

      .cls-9 {
        fill: #020403;
        opacity: 0.25;
      }

      .cls-10 {
        fill: #142a3b;
      }
    </style>
  </defs>
  <g id="group-43svg">
    <path d="M38.993,34.038 C38.993,34.038 43.591,34.038 43.591,34.038 C44.477,34.038 45.196,34.276 45.196,34.570 C45.196,34.864 44.477,35.102 43.591,35.102 C43.591,35.102 43.377,35.102 43.377,35.102 C42.490,35.102 41.771,35.340 41.771,35.634 C41.771,35.927 42.490,36.166 43.377,36.166 C43.377,36.166 53.261,36.166 53.261,36.166 C54.147,36.166 54.866,36.404 54.866,36.697 C54.866,36.991 54.147,37.230 53.261,37.230 C53.261,37.230 41.383,37.230 41.383,37.230 C41.383,37.230 28.328,37.230 28.328,37.230 C27.441,37.230 26.723,36.991 26.723,36.697 C26.723,36.404 27.441,36.166 28.328,36.166 C28.328,36.166 31.071,36.166 31.071,36.166 C31.958,36.166 32.676,35.927 32.676,35.634 C32.676,35.340 31.958,35.102 31.071,35.102 C31.071,35.102 18.016,35.102 18.016,35.102 C17.129,35.102 16.411,34.864 16.411,34.570 C16.411,34.276 17.129,34.038 18.016,34.038 C18.016,34.038 21.101,34.038 21.101,34.038 C21.101,34.038 38.993,34.038 38.993,34.038 Z" id="path-1" class="cls-3" fill-rule="evenodd"/>
    <path d="M10.035,34.614 C11.051,34.614 11.875,34.210 11.875,33.712 C11.875,33.214 11.051,32.810 10.035,32.810 C10.035,32.810 4.394,32.810 4.394,32.810 C3.377,32.810 2.553,33.214 2.553,33.712 C2.553,34.210 3.377,34.614 4.394,34.614 C4.394,34.614 10.035,34.614 10.035,34.614 Z" id="path-2" class="cls-3" fill-rule="evenodd"/>
    <path d="M54.164,25.689 C54.164,25.689 55.678,25.689 55.678,25.689 C55.969,25.689 56.206,25.927 56.206,26.221 C56.206,26.514 55.969,26.752 55.678,26.752 C55.678,26.752 55.607,26.752 55.607,26.752 C55.315,26.752 55.079,26.991 55.079,27.284 C55.079,27.578 55.315,27.817 55.607,27.817 C55.607,27.817 58.860,27.817 58.860,27.817 C59.152,27.817 59.389,28.055 59.389,28.348 C59.389,28.642 59.152,28.880 58.860,28.880 C58.860,28.880 54.951,28.880 54.951,28.880 C54.951,28.880 50.654,28.880 50.654,28.880 C50.362,28.880 50.125,28.642 50.125,28.348 C50.125,28.055 50.362,27.817 50.654,27.817 C50.654,27.817 51.557,27.817 51.557,27.817 C51.849,27.817 52.085,27.578 52.085,27.284 C52.085,26.991 51.849,26.752 51.557,26.752 C51.557,26.752 47.260,26.752 47.260,26.752 C46.968,26.752 46.731,26.514 46.731,26.221 C46.731,25.927 46.968,25.689 47.260,25.689 C47.260,25.689 48.275,25.689 48.275,25.689 C48.275,25.689 54.164,25.689 54.164,25.689 Z" id="path-3" class="cls-3" fill-rule="evenodd"/>
    <path d="M4.583,19.047 C4.583,19.047 5.514,19.047 5.514,19.047 C5.693,19.047 5.839,19.194 5.839,19.375 C5.839,19.555 5.693,19.702 5.514,19.702 C5.514,19.702 5.471,19.702 5.471,19.702 C5.291,19.702 5.145,19.848 5.145,20.029 C5.145,20.210 5.291,20.356 5.471,20.356 C5.471,20.356 7.472,20.356 7.472,20.356 C7.651,20.356 7.797,20.503 7.797,20.684 C7.797,20.864 7.651,21.010 7.472,21.010 C7.472,21.010 5.067,21.010 5.067,21.010 C5.067,21.010 2.424,21.010 2.424,21.010 C2.244,21.010 2.099,20.864 2.099,20.684 C2.099,20.503 2.244,20.356 2.424,20.356 C2.424,20.356 2.979,20.356 2.979,20.356 C3.159,20.356 3.304,20.210 3.304,20.029 C3.304,19.848 3.159,19.702 2.979,19.702 C2.979,19.702 0.336,19.702 0.336,19.702 C0.156,19.702 0.011,19.555 0.011,19.375 C0.011,19.194 0.156,19.047 0.336,19.047 C0.336,19.047 0.960,19.047 0.960,19.047 C0.960,19.047 4.583,19.047 4.583,19.047 Z" id="path-4" class="cls-3" fill-rule="evenodd"/>
    <path d="M31.507,28.492 C47.249,28.492 60.011,15.731 60.011,-0.011 C60.011,-0.011 3.004,-0.011 3.004,-0.011 C3.004,15.731 15.766,28.492 31.507,28.492 Z" id="path-5" class="cls-7" fill-rule="evenodd"/>
    <path d="M31.507,24.562 C44.912,24.562 55.778,13.696 55.778,0.291 C55.778,0.291 7.237,0.291 7.237,0.291 C7.237,13.696 18.103,24.562 31.507,24.562 Z" id="path-6" class="cls-3" fill-rule="evenodd"/>
    <path d="M50.391,0.291 C48.863,12.226 38.675,21.453 26.325,21.453 C22.846,21.453 19.540,20.715 16.548,19.396 C20.671,22.629 25.862,24.561 31.507,24.561 C44.912,24.561 55.778,13.696 55.778,0.291 C55.778,0.291 50.391,0.291 50.391,0.291 Z" id="path-7" class="cls-9" fill-rule="evenodd"/>
    <path d="M39.207,9.520 C39.207,8.557 40.554,7.030 40.554,7.030 C40.554,7.030 41.900,8.557 41.900,9.520 C41.900,10.483 41.297,11.264 40.554,11.264 C39.810,11.264 39.207,10.483 39.207,9.520 Z" id="path-8" class="cls-10" fill-rule="evenodd"/>
    <path d="M47.499,9.520 C47.499,8.557 48.846,7.030 48.846,7.030 C48.846,7.030 50.192,8.557 50.192,9.520 C50.192,10.483 49.589,11.264 48.846,11.264 C48.102,11.264 47.499,10.483 47.499,9.520 Z" id="path-9" class="cls-10" fill-rule="evenodd"/>
    <path d="M14.331,9.520 C14.331,8.557 15.678,7.030 15.678,7.030 C15.678,7.030 17.024,8.557 17.024,9.520 C17.024,10.483 16.421,11.264 15.678,11.264 C14.934,11.264 14.331,10.483 14.331,9.520 Z" id="path-10" class="cls-10" fill-rule="evenodd"/>
    <path d="M21.066,9.520 C21.066,8.557 22.413,7.030 22.413,7.030 C22.413,7.030 23.759,8.557 23.759,9.520 C23.759,10.483 23.156,11.264 22.413,11.264 C21.669,11.264 21.066,10.483 21.066,9.520 Z" id="path-11" class="cls-10" fill-rule="evenodd"/>
    <path d="M30.137,9.520 C30.137,8.557 31.483,7.030 31.483,7.030 C31.483,7.030 32.830,8.557 32.830,9.520 C32.830,10.483 32.227,11.264 31.483,11.264 C30.740,11.264 30.137,10.483 30.137,9.520 Z" id="path-12" class="cls-10" fill-rule="evenodd"/>
    <path d="M26.509,15.870 C26.509,14.907 27.855,13.379 27.855,13.379 C27.855,13.379 29.202,14.907 29.202,15.870 C29.202,16.833 28.599,17.613 27.855,17.613 C27.111,17.613 26.509,16.833 26.509,15.870 Z" id="path-13" class="cls-10" fill-rule="evenodd"/>
    <path d="M35.579,15.870 C35.579,14.907 36.925,13.379 36.925,13.379 C36.925,13.379 38.272,14.907 38.272,15.870 C38.272,16.833 37.669,17.613 36.925,17.613 C36.182,17.613 35.579,16.833 35.579,15.870 Z" id="path-14" class="cls-10" fill-rule="evenodd"/>
  </g>
</svg>
