<svg xmlns="http://www.w3.org/2000/svg" xmlns:xlink="http://www.w3.org/1999/xlink" preserveAspectRatio="xMidYMid" width="60" height="31" viewBox="0 0 60 31">
  <defs>
    <style>

      .cls-3 {
        fill: #ff3a2f;
      }

      .cls-5 {
        fill: #ededed;
      }

      .cls-7 {
        fill: #fbb713;
      }

      .cls-8 {
        fill: #000000;
        opacity: 0.25;
      }

      .cls-9 {
        fill: #142a3b;
      }

      .cls-14 {
        fill: #000000;
        opacity: 0.35;
      }
    </style>
  </defs>
  <g id="group-335svg">
    <path d="M41.185,29.952 C41.185,29.952 47.613,29.952 47.613,29.952 C48.853,29.952 49.858,28.946 49.858,27.707 C49.858,26.467 48.853,25.461 47.613,25.461 C47.613,25.461 47.314,25.461 47.314,25.461 C46.075,25.461 45.070,24.456 45.070,23.216 C45.070,21.976 46.075,20.971 47.314,20.971 C47.314,20.971 57.767,20.971 57.767,20.971 C59.006,20.971 60.011,19.966 60.011,18.726 C60.011,17.485 59.006,16.481 57.767,16.481 C57.767,16.481 44.526,16.481 44.526,16.481 C44.526,16.481 10.579,16.481 10.579,16.481 C9.339,16.481 8.334,17.485 8.334,18.726 C8.334,19.966 9.339,20.971 10.579,20.971 C10.579,20.971 14.414,20.971 14.414,20.971 C15.653,20.971 16.658,21.976 16.658,23.216 C16.658,24.456 15.653,25.461 14.414,25.461 C14.414,25.461 2.717,25.461 2.717,25.461 C1.478,25.461 0.473,26.467 0.473,27.707 C0.473,28.946 1.478,29.952 2.717,29.952 C2.717,29.952 3.842,29.952 3.842,29.952 C3.842,29.952 41.185,29.952 41.185,29.952 Z" id="path-1" class="cls-3" fill-rule="evenodd"/>
    <path d="M4.640,17.703 C5.268,17.703 5.778,18.312 5.778,19.062 C5.778,19.813 5.268,20.421 4.640,20.421 C4.640,20.421 1.150,20.421 1.150,20.421 C0.521,20.421 0.011,19.813 0.011,19.062 C0.011,18.312 0.521,17.703 1.150,17.703 C1.150,17.703 4.640,17.703 4.640,17.703 Z" id="path-2" class="cls-3" fill-rule="evenodd"/>
    <path d="M48.915,4.131 C48.915,4.983 48.225,5.674 47.372,5.674 C46.519,5.674 45.828,4.983 45.828,4.131 C45.828,3.278 46.519,2.587 47.372,2.587 C48.225,2.587 48.915,3.278 48.915,4.131 Z" id="path-3" class="cls-5" fill-rule="evenodd"/>
    <path d="M48.640,0.014 C48.640,0.014 16.644,0.014 16.644,0.014 C14.791,0.014 13.276,1.529 13.276,3.382 C13.276,3.382 13.276,6.749 13.276,6.749 C13.276,6.749 13.276,18.537 13.276,18.537 C13.276,18.537 21.696,18.537 21.696,18.537 C21.696,18.537 43.588,18.537 43.588,18.537 C43.588,18.537 52.008,18.537 52.008,18.537 C52.008,18.537 52.008,3.382 52.008,3.382 C52.008,1.529 50.493,0.014 48.640,0.014 Z" id="path-4" class="cls-5" fill-rule="evenodd"/>
    <path d="M43.588,13.486 C43.588,13.486 43.588,26.957 43.588,26.957 C43.588,26.957 21.696,26.957 21.696,26.957 C21.696,26.957 21.696,13.486 21.696,13.486 C21.696,13.486 43.588,13.486 43.588,13.486 Z" id="path-5" class="cls-7" fill-rule="evenodd"/>
    <path d="M21.696,13.486 C21.696,13.486 21.696,15.169 21.696,15.169 C21.696,15.169 41.062,15.169 41.062,15.169 C41.062,15.169 41.062,26.957 41.062,26.957 C41.062,26.957 43.588,26.957 43.588,26.957 C43.588,26.957 43.588,13.486 43.588,13.486 C43.588,13.486 21.696,13.486 21.696,13.486 Z" id="path-6" class="cls-8" fill-rule="evenodd"/>
    <path d="M40.220,19.537 C40.220,19.537 25.064,19.537 25.064,19.537 C24.512,19.537 24.064,19.090 24.064,18.537 C24.064,17.985 24.512,17.538 25.064,17.538 C25.064,17.538 40.220,17.538 40.220,17.538 C40.772,17.538 41.220,17.985 41.220,18.537 C41.220,19.090 40.772,19.537 40.220,19.537 Z" id="path-7" class="cls-9" fill-rule="evenodd"/>
    <path d="M51.166,9.433 C51.166,9.433 14.118,9.433 14.118,9.433 C13.566,9.433 13.118,8.985 13.118,8.433 C13.118,7.881 13.566,7.433 14.118,7.433 C14.118,7.433 51.166,7.433 51.166,7.433 C51.718,7.433 52.166,7.881 52.166,8.433 C52.166,8.985 51.718,9.433 51.166,9.433 Z" id="path-8" class="cls-9" fill-rule="evenodd"/>
    <path d="M40.220,22.905 C40.220,22.905 25.064,22.905 25.064,22.905 C24.512,22.905 24.064,22.458 24.064,21.905 C24.064,21.353 24.512,20.905 25.064,20.905 C25.064,20.905 40.220,20.905 40.220,20.905 C40.772,20.905 41.220,21.353 41.220,21.905 C41.220,22.458 40.772,22.905 40.220,22.905 Z" id="path-9" class="cls-9" fill-rule="evenodd"/>
    <path d="M52.008,9.276 C52.008,9.276 52.008,3.382 52.008,3.382 C52.008,1.529 50.493,0.014 48.640,0.014 C48.640,0.014 16.644,0.014 16.644,0.014 C14.791,0.014 13.276,1.529 13.276,3.382 C13.276,3.382 13.276,6.749 13.276,6.749 C13.276,6.749 13.276,9.276 13.276,9.276 C13.276,9.276 52.008,9.276 52.008,9.276 Z" id="path-10" class="cls-9" fill-rule="evenodd"/>
    <path d="M43.021,4.131 C43.021,4.983 42.331,5.674 41.478,5.674 C40.625,5.674 39.934,4.983 39.934,4.131 C39.934,3.278 40.625,2.587 41.478,2.587 C42.331,2.587 43.021,3.278 43.021,4.131 Z" id="path-11" class="cls-5" fill-rule="evenodd"/>
    <path d="M48.640,0.014 C48.640,0.014 16.644,0.014 16.644,0.014 C15.801,0.014 15.037,0.339 14.444,0.855 C14.444,0.855 44.430,0.855 44.430,0.855 C46.283,0.855 47.798,2.372 47.798,4.223 C47.798,4.223 47.798,18.537 47.798,18.537 C47.798,18.537 52.008,18.537 52.008,18.537 C52.008,18.537 52.008,3.382 52.008,3.382 C52.008,1.529 50.493,0.014 48.640,0.014 Z" id="path-12" class="cls-14" fill-rule="evenodd"/>
  </g>
</svg>
