<svg xmlns="http://www.w3.org/2000/svg" xmlns:xlink="http://www.w3.org/1999/xlink" preserveAspectRatio="xMidYMid" width="61" height="57" viewBox="0 0 61 57">
  <defs>
    <style>

      .cls-3 {
        fill: #d99a02;
      }

      .cls-4 {
        fill: #fbb713;
      }

      .cls-5 {
        fill: #fccb56;
      }

      .cls-7 {
        fill: #bba300;
      }

      .cls-8 {
        fill: #2476ff;
      }
    </style>
  </defs>
  <g id="group-71svg">
    <path d="M10.006,24.515 C10.006,24.515 50.015,24.515 50.015,24.515 C50.015,24.515 50.015,41.784 50.015,41.784 C50.015,41.784 10.006,41.784 10.006,41.784 C10.006,41.784 10.006,24.515 10.006,24.515 Z" id="path-1" class="cls-3" fill-rule="evenodd"/>
    <path d="M20.743,23.585 C20.743,23.585 20.941,53.443 20.941,53.443 C20.941,53.443 23.598,49.126 30.572,51.451 C38.100,54.993 45.628,54.993 53.156,51.451 C53.156,51.451 53.156,11.539 53.156,11.539 C53.156,5.673 48.454,0.110 42.588,0.009 C42.588,0.009 10.645,0.151 10.645,0.151 C10.645,0.151 20.743,23.585 20.743,23.585 Z" id="path-2" class="cls-4" fill-rule="evenodd"/>
    <path d="M20.830,20.985 C20.830,32.491 16.271,41.820 10.645,41.820 C5.020,41.820 0.460,32.491 0.460,20.985 C0.460,9.479 5.020,0.151 10.645,0.151 C16.271,0.151 20.830,9.479 20.830,20.985 Z" id="path-3" class="cls-5" fill-rule="evenodd"/>
    <path d="M13.795,20.985 C13.795,24.544 12.385,27.430 10.645,27.430 C8.905,27.430 7.495,24.544 7.495,20.985 C7.495,17.426 8.905,14.541 10.645,14.541 C12.385,14.541 13.795,17.426 13.795,20.985 Z" id="path-4" class="cls-3" fill-rule="evenodd"/>
    <path d="M52.378,35.454 C52.378,35.454 51.050,35.454 51.050,35.454 C51.050,35.454 51.050,34.901 51.050,34.901 C51.050,34.901 52.378,34.901 52.378,34.901 C52.378,34.901 52.378,35.454 52.378,35.454 ZM49.721,35.454 C49.721,35.454 48.393,35.454 48.393,35.454 C48.393,35.454 48.393,34.901 48.393,34.901 C48.393,34.901 49.721,34.901 49.721,34.901 C49.721,34.901 49.721,35.454 49.721,35.454 ZM47.064,35.454 C47.064,35.454 45.736,35.454 45.736,35.454 C45.736,35.454 45.736,34.901 45.736,34.901 C45.736,34.901 47.064,34.901 47.064,34.901 C47.064,34.901 47.064,35.454 47.064,35.454 ZM44.408,35.454 C44.408,35.454 43.080,35.454 43.080,35.454 C43.080,35.454 43.080,34.901 43.080,34.901 C43.080,34.901 44.408,34.901 44.408,34.901 C44.408,34.901 44.408,35.454 44.408,35.454 ZM41.751,35.454 C41.751,35.454 40.423,35.454 40.423,35.454 C40.423,35.454 40.423,34.901 40.423,34.901 C40.423,34.901 41.751,34.901 41.751,34.901 C41.751,34.901 41.751,35.454 41.751,35.454 ZM39.095,35.454 C39.095,35.454 37.767,35.454 37.767,35.454 C37.767,35.454 37.767,34.901 37.767,34.901 C37.767,34.901 39.095,34.901 39.095,34.901 C39.095,34.901 39.095,35.454 39.095,35.454 ZM36.438,35.454 C36.438,35.454 35.110,35.454 35.110,35.454 C35.110,35.454 35.110,34.901 35.110,34.901 C35.110,34.901 36.438,34.901 36.438,34.901 C36.438,34.901 36.438,35.454 36.438,35.454 ZM33.782,35.454 C33.782,35.454 32.453,35.454 32.453,35.454 C32.453,35.454 32.453,34.901 32.453,34.901 C32.453,34.901 33.782,34.901 33.782,34.901 C33.782,34.901 33.782,35.454 33.782,35.454 ZM31.125,35.454 C31.125,35.454 29.797,35.454 29.797,35.454 C29.797,35.454 29.797,34.901 29.797,34.901 C29.797,34.901 31.125,34.901 31.125,34.901 C31.125,34.901 31.125,35.454 31.125,35.454 ZM28.468,35.454 C28.468,35.454 27.140,35.454 27.140,35.454 C27.140,35.454 27.140,34.901 27.140,34.901 C27.140,34.901 28.468,34.901 28.468,34.901 C28.468,34.901 28.468,35.454 28.468,35.454 ZM25.811,35.454 C25.811,35.454 24.483,35.454 24.483,35.454 C24.483,35.454 24.483,34.901 24.483,34.901 C24.483,34.901 25.811,34.901 25.811,34.901 C25.811,34.901 25.811,35.454 25.811,35.454 ZM23.155,35.454 C23.155,35.454 21.827,35.454 21.827,35.454 C21.827,35.454 21.827,34.901 21.827,34.901 C21.827,34.901 23.155,34.901 23.155,34.901 C23.155,34.901 23.155,35.454 23.155,35.454 Z" id="path-5" class="cls-7" fill-rule="evenodd"/>
    <path d="M31.892,49.916 C31.892,49.916 36.160,49.916 36.160,49.916 C36.983,49.916 37.650,50.338 37.650,50.860 C37.650,51.381 36.983,51.804 36.160,51.804 C36.160,51.804 35.961,51.804 35.961,51.804 C35.138,51.804 34.471,52.226 34.471,52.748 C34.471,53.269 35.138,53.691 35.961,53.691 C35.961,53.691 45.137,53.691 45.137,53.691 C45.959,53.691 46.626,54.115 46.626,54.636 C46.626,55.157 45.959,55.580 45.137,55.580 C45.137,55.580 34.110,55.580 34.110,55.580 C34.110,55.580 21.991,55.580 21.991,55.580 C21.168,55.580 20.501,55.157 20.501,54.636 C20.501,54.115 21.168,53.691 21.991,53.691 C21.991,53.691 24.538,53.691 24.538,53.691 C25.360,53.691 26.028,53.269 26.028,52.748 C26.028,52.226 25.360,51.804 24.538,51.804 C24.538,51.804 12.418,51.804 12.418,51.804 C11.596,51.804 10.929,51.381 10.929,50.860 C10.929,50.338 11.596,49.916 12.418,49.916 C12.418,49.916 15.283,49.916 15.283,49.916 C15.283,49.916 31.892,49.916 31.892,49.916 Z" id="path-6" class="cls-8" fill-rule="evenodd"/>
    <path d="M6.760,41.013 C6.760,41.013 8.134,41.013 8.134,41.013 C8.399,41.013 8.614,41.245 8.614,41.532 C8.614,41.818 8.399,42.050 8.134,42.050 C8.134,42.050 8.070,42.050 8.070,42.050 C7.805,42.050 7.590,42.283 7.590,42.569 C7.590,42.855 7.805,43.087 8.070,43.087 C8.070,43.087 11.024,43.087 11.024,43.087 C11.289,43.087 11.504,43.319 11.504,43.606 C11.504,43.893 11.289,44.125 11.024,44.125 C11.024,44.125 7.474,44.125 7.474,44.125 C7.474,44.125 3.572,44.125 3.572,44.125 C3.307,44.125 3.092,43.893 3.092,43.606 C3.092,43.319 3.307,43.087 3.572,43.087 C3.572,43.087 4.392,43.087 4.392,43.087 C4.657,43.087 4.872,42.855 4.872,42.569 C4.872,42.283 4.657,42.050 4.392,42.050 C4.392,42.050 0.490,42.050 0.490,42.050 C0.225,42.050 0.010,41.818 0.010,41.532 C0.010,41.245 0.225,41.013 0.490,41.013 C0.490,41.013 1.412,41.013 1.412,41.013 C1.412,41.013 6.760,41.013 6.760,41.013 Z" id="path-7" class="cls-8" fill-rule="evenodd"/>
    <path d="M53.973,43.258 C53.973,43.258 55.347,43.258 55.347,43.258 C55.612,43.258 55.827,43.491 55.827,43.777 C55.827,44.063 55.612,44.296 55.347,44.296 C55.347,44.296 55.283,44.296 55.283,44.296 C55.018,44.296 54.803,44.528 54.803,44.814 C54.803,45.101 55.018,45.333 55.283,45.333 C55.283,45.333 58.237,45.333 58.237,45.333 C58.502,45.333 58.717,45.565 58.717,45.851 C58.717,46.138 58.502,46.370 58.237,46.370 C58.237,46.370 54.687,46.370 54.687,46.370 C54.687,46.370 50.785,46.370 50.785,46.370 C50.520,46.370 50.306,46.138 50.306,45.851 C50.306,45.565 50.520,45.333 50.785,45.333 C50.785,45.333 51.605,45.333 51.605,45.333 C51.870,45.333 52.085,45.101 52.085,44.814 C52.085,44.528 51.870,44.296 51.605,44.296 C51.605,44.296 47.703,44.296 47.703,44.296 C47.438,44.296 47.224,44.063 47.224,43.777 C47.224,43.491 47.438,43.258 47.703,43.258 C47.703,43.258 48.625,43.258 48.625,43.258 C48.625,43.258 53.973,43.258 53.973,43.258 Z" id="path-8" class="cls-8" fill-rule="evenodd"/>
    <path d="M58.309,56.397 C59.249,56.397 60.010,55.914 60.010,55.319 C60.010,54.724 59.249,54.241 58.309,54.241 C58.309,54.241 53.095,54.241 53.095,54.241 C52.156,54.241 51.394,54.724 51.394,55.319 C51.394,55.914 52.156,56.397 53.095,56.397 C53.095,56.397 58.309,56.397 58.309,56.397 Z" id="path-9" class="cls-8" fill-rule="evenodd"/>
  </g>
</svg>
