<svg xmlns="http://www.w3.org/2000/svg" xmlns:xlink="http://www.w3.org/1999/xlink" preserveAspectRatio="xMidYMid" width="60" height="61" viewBox="0 0 60 61">
  <defs>
    <style>

      .cls-3 {
        fill: #0cb04a;
      }

      .cls-4 {
        fill: #142a3b;
      }

      .cls-7 {
        fill: #ededed;
      }

      .cls-8 {
        fill: #020403;
        opacity: 0.35;
      }

      .cls-11 {
        fill: #020403;
        opacity: 0.25;
      }

      .cls-12 {
        fill: #ff3a2f;
      }
    </style>
  </defs>
  <g id="group-102svg">
    <path d="M41.721,6.170 C40.241,6.170 38.850,6.542 37.633,7.197 C36.462,3.042 32.652,-0.010 28.124,-0.010 C23.594,-0.010 19.784,3.042 18.610,7.197 C17.394,6.542 16.002,6.170 14.527,6.170 C9.746,6.170 5.871,10.046 5.871,14.823 C5.871,19.604 9.576,23.476 14.521,23.476 C14.521,23.476 14.521,56.700 14.521,56.700 C14.521,56.700 41.715,56.700 41.715,56.700 C41.715,56.700 41.715,23.476 41.715,23.476 C46.660,23.476 50.371,19.604 50.371,14.823 C50.371,10.046 46.498,6.170 41.721,6.170 Z" id="path-1" class="cls-3" fill-rule="evenodd"/>
    <path d="M21.937,47.811 C21.385,47.811 20.937,47.364 20.937,46.811 C20.937,46.811 20.937,36.923 20.937,36.923 C20.937,36.370 21.385,35.923 21.937,35.923 C22.490,35.923 22.937,36.370 22.937,36.923 C22.937,36.923 22.937,46.811 22.937,46.811 C22.937,47.364 22.490,47.811 21.937,47.811 Z" id="path-2" class="cls-4" fill-rule="evenodd"/>
    <path d="M28.118,47.811 C27.566,47.811 27.118,47.364 27.118,46.811 C27.118,46.811 27.118,34.450 27.118,34.450 C27.118,33.898 27.566,33.450 28.118,33.450 C28.670,33.450 29.118,33.898 29.118,34.450 C29.118,34.450 29.118,46.811 29.118,46.811 C29.118,47.364 28.670,47.811 28.118,47.811 Z" id="path-3" class="cls-4" fill-rule="evenodd"/>
    <path d="M34.299,47.811 C33.746,47.811 33.299,47.364 33.299,46.811 C33.299,46.811 33.299,36.923 33.299,36.923 C33.299,36.370 33.746,35.923 34.299,35.923 C34.851,35.923 35.299,36.370 35.299,36.923 C35.299,36.923 35.299,46.811 35.299,46.811 C35.299,47.364 34.851,47.811 34.299,47.811 Z" id="path-4" class="cls-4" fill-rule="evenodd"/>
    <path d="M41.715,56.700 C41.715,56.700 14.521,56.700 14.521,56.700 C14.521,56.700 14.521,45.746 14.521,45.746 C14.521,45.746 41.715,45.746 41.715,45.746 C41.715,45.746 41.715,56.700 41.715,56.700 Z" id="path-5" class="cls-7" fill-rule="evenodd"/>
    <path d="M10.818,8.643 C12.293,8.643 15.815,9.903 17.032,10.557 C17.370,9.363 17.930,8.265 18.657,7.300 C18.077,6.672 15.216,6.170 14.527,6.170 C11.941,6.170 9.627,7.310 8.041,9.106 C8.914,8.810 9.846,8.643 10.818,8.643 Z" id="path-6" class="cls-8" fill-rule="evenodd"/>
    <path d="M41.721,6.170 C40.241,6.170 38.850,6.542 37.633,7.197 C36.462,3.042 32.652,-0.010 28.124,-0.010 C25.287,-0.010 22.732,1.188 20.931,3.103 C22.015,2.693 23.187,2.462 24.415,2.462 C28.944,2.462 32.753,5.514 33.924,9.669 C35.141,9.015 36.533,8.643 38.013,8.643 C42.789,8.643 46.662,12.518 46.662,17.296 C46.662,19.492 45.872,21.492 44.545,23.017 C48.008,21.863 50.371,18.635 50.371,14.823 C50.371,10.046 46.498,6.170 41.721,6.170 Z" id="path-7" class="cls-8" fill-rule="evenodd"/>
    <path d="M38.007,24.205 C38.007,24.205 38.007,45.575 38.007,45.575 C38.007,45.575 41.715,45.575 41.715,45.575 C41.715,45.575 41.715,23.396 41.715,23.396 C40.602,23.910 39.353,24.205 38.007,24.205 Z" id="path-8" class="cls-8" fill-rule="evenodd"/>
    <path d="M38.007,45.746 C38.007,45.746 38.007,49.493 38.007,49.493 C38.007,51.426 36.440,52.992 34.508,52.992 C34.508,52.992 14.521,52.992 14.521,52.992 C14.521,52.992 14.521,56.700 14.521,56.700 C14.521,56.700 41.715,56.700 41.715,56.700 C41.715,56.700 41.715,45.746 41.715,45.746 C41.715,45.746 38.007,45.746 38.007,45.746 Z" id="path-9" class="cls-11" fill-rule="evenodd"/>
    <path d="M25.179,59.771 C25.887,59.771 26.460,59.525 26.460,59.220 C26.460,58.916 25.887,58.670 25.179,58.670 C25.179,58.670 21.251,58.670 21.251,58.670 C20.544,58.670 19.970,58.916 19.970,59.220 C19.970,59.525 20.544,59.771 21.251,59.771 C21.251,59.771 25.179,59.771 25.179,59.771 Z" id="path-10" class="cls-12" fill-rule="evenodd"/>
    <path d="M10.244,50.965 C10.244,50.965 11.411,50.965 11.411,50.965 C11.636,50.965 11.818,51.204 11.818,51.498 C11.818,51.792 11.636,52.030 11.411,52.030 C11.411,52.030 11.356,52.030 11.356,52.030 C11.132,52.030 10.949,52.268 10.949,52.562 C10.949,52.857 11.132,53.095 11.356,53.095 C11.356,53.095 13.865,53.095 13.865,53.095 C14.090,53.095 14.272,53.333 14.272,53.627 C14.272,53.921 14.090,54.160 13.865,54.160 C13.865,54.160 10.851,54.160 10.851,54.160 C10.851,54.160 4.689,54.160 4.689,54.160 C4.464,54.160 4.281,53.921 4.281,53.627 C4.281,53.333 4.464,53.095 4.689,53.095 C4.689,53.095 5.385,53.095 5.385,53.095 C5.610,53.095 5.792,52.857 5.792,52.562 C5.792,52.268 5.610,52.030 5.385,52.030 C5.385,52.030 2.072,52.030 2.072,52.030 C1.847,52.030 1.664,51.792 1.664,51.498 C1.664,51.204 1.847,50.965 2.072,50.965 C2.072,50.965 2.855,50.965 2.855,50.965 C2.855,50.965 10.244,50.965 10.244,50.965 Z" id="path-11" class="cls-12" fill-rule="evenodd"/>
    <path d="M2.059,54.188 C2.338,54.188 2.563,54.022 2.563,53.817 C2.563,53.612 2.338,53.446 2.059,53.446 C2.059,53.446 0.515,53.446 0.515,53.446 C0.237,53.446 0.011,53.612 0.011,53.817 C0.011,54.022 0.237,54.188 0.515,54.188 C0.515,54.188 2.059,54.188 2.059,54.188 Z" id="path-12" class="cls-12" fill-rule="evenodd"/>
    <path d="M49.769,54.989 C49.769,54.989 52.735,54.989 52.735,54.989 C53.308,54.989 53.771,55.343 53.771,55.779 C53.771,56.215 53.308,56.569 52.735,56.569 C52.735,56.569 52.597,56.569 52.597,56.569 C52.025,56.569 51.561,56.922 51.561,57.358 C51.561,57.795 52.025,58.149 52.597,58.149 C52.597,58.149 58.975,58.149 58.975,58.149 C59.547,58.149 60.011,58.502 60.011,58.939 C60.011,59.375 59.547,59.729 58.975,59.729 C58.975,59.729 51.311,59.729 51.311,59.729 C51.311,59.729 35.645,59.729 35.645,59.729 C35.072,59.729 34.608,59.375 34.608,58.939 C34.608,58.502 35.072,58.149 35.645,58.149 C35.645,58.149 37.415,58.149 37.415,58.149 C37.986,58.149 38.450,57.795 38.450,57.358 C38.450,56.922 37.986,56.569 37.415,56.569 C37.415,56.569 28.990,56.569 28.990,56.569 C28.418,56.569 27.955,56.215 27.955,55.779 C27.955,55.343 28.418,54.989 28.990,54.989 C28.990,54.989 30.981,54.989 30.981,54.989 C30.981,54.989 49.769,54.989 49.769,54.989 Z" id="path-13" class="cls-12" fill-rule="evenodd"/>
  </g>
</svg>
