<svg xmlns="http://www.w3.org/2000/svg" xmlns:xlink="http://www.w3.org/1999/xlink" preserveAspectRatio="xMidYMid" width="56" height="61" viewBox="0 0 56 61">
  <defs>
    <style>

      .cls-3 {
        fill: #2476ff;
      }

      .cls-8 {
        fill: #ededed;
      }

      .cls-9 {
        fill: #000000;
        opacity: 0.35;
      }

      .cls-10 {
        fill: #142a3b;
      }
    </style>
  </defs>
  <g id="group-332svg">
    <path d="M38.755,53.221 C38.755,53.221 36.494,53.221 36.494,53.221 C36.058,53.221 35.704,53.489 35.704,53.819 C35.704,54.149 36.058,54.416 36.494,54.416 C36.494,54.416 36.599,54.416 36.599,54.416 C37.035,54.416 37.389,54.684 37.389,55.014 C37.389,55.344 37.035,55.611 36.599,55.611 C36.599,55.611 31.737,55.611 31.737,55.611 C31.301,55.611 30.947,55.879 30.947,56.209 C30.947,56.539 31.301,56.807 31.737,56.807 C31.737,56.807 37.580,56.807 37.580,56.807 C37.580,56.807 49.523,56.807 49.523,56.807 C49.959,56.807 50.313,56.539 50.313,56.209 C50.313,55.879 49.959,55.611 49.523,55.611 C49.523,55.611 48.174,55.611 48.174,55.611 C47.738,55.611 47.384,55.344 47.384,55.014 C47.384,54.684 47.738,54.416 48.174,54.416 C48.174,54.416 53.474,54.416 53.474,54.416 C53.910,54.416 54.263,54.149 54.263,53.819 C54.263,53.489 53.910,53.221 53.474,53.221 C53.474,53.221 53.078,53.221 53.078,53.221 C53.078,53.221 38.755,53.221 38.755,53.221 Z" id="path-1" class="cls-3" fill-rule="evenodd"/>
    <path d="M52.783,56.966 C52.417,56.966 52.121,56.679 52.121,56.326 C52.121,55.973 52.417,55.686 52.783,55.686 C52.783,55.686 54.812,55.686 54.812,55.686 C55.178,55.686 55.474,55.973 55.474,56.326 C55.474,56.679 55.178,56.966 54.812,56.966 C54.812,56.966 52.783,56.966 52.783,56.966 Z" id="path-2" class="cls-3" fill-rule="evenodd"/>
    <path d="M19.228,60.012 C19.228,60.012 21.491,60.012 21.491,60.012 C21.927,60.012 22.280,59.745 22.280,59.415 C22.280,59.085 21.927,58.817 21.491,58.817 C21.491,58.817 21.385,58.817 21.385,58.817 C20.949,58.817 20.596,58.550 20.596,58.220 C20.596,57.890 20.949,57.622 21.385,57.622 C21.385,57.622 26.248,57.622 26.248,57.622 C26.684,57.622 27.037,57.355 27.037,57.025 C27.037,56.695 26.684,56.427 26.248,56.427 C26.248,56.427 20.404,56.427 20.404,56.427 C20.404,56.427 8.461,56.427 8.461,56.427 C8.025,56.427 7.671,56.695 7.671,57.025 C7.671,57.355 8.025,57.622 8.461,57.622 C8.461,57.622 9.810,57.622 9.810,57.622 C10.247,57.622 10.600,57.890 10.600,58.220 C10.600,58.550 10.247,58.817 9.810,58.817 C9.810,58.817 4.510,58.817 4.510,58.817 C4.074,58.817 3.721,59.085 3.721,59.415 C3.721,59.745 4.074,60.012 4.510,60.012 C4.510,60.012 4.906,60.012 4.906,60.012 C4.906,60.012 19.228,60.012 19.228,60.012 Z" id="path-3" class="cls-3" fill-rule="evenodd"/>
    <path d="M5.201,56.267 C5.566,56.267 5.863,56.554 5.863,56.907 C5.863,57.261 5.566,57.548 5.201,57.548 C5.201,57.548 3.172,57.548 3.172,57.548 C2.807,57.548 2.510,57.261 2.510,56.907 C2.510,56.554 2.807,56.267 3.172,56.267 C3.172,56.267 5.201,56.267 5.201,56.267 Z" id="path-4" class="cls-3" fill-rule="evenodd"/>
    <path d="M44.702,45.870 C44.702,45.870 7.771,45.870 7.771,45.870 C7.133,45.870 6.617,45.355 6.617,44.717 C6.617,44.717 6.617,7.796 6.617,7.796 C6.617,7.158 7.133,6.643 7.771,6.643 C7.771,6.643 44.702,6.643 44.702,6.643 C45.340,6.643 45.856,7.158 45.856,7.796 C45.856,7.796 45.856,44.717 45.856,44.717 C45.856,45.355 45.340,45.870 44.702,45.870 Z" id="path-5" class="cls-3" fill-rule="evenodd"/>
    <path d="M37.778,38.948 C37.778,38.948 14.696,38.948 14.696,38.948 C14.058,38.948 13.542,38.432 13.542,37.794 C13.542,37.794 13.542,14.719 13.542,14.719 C13.542,14.081 14.058,13.565 14.696,13.565 C14.696,13.565 37.778,13.565 37.778,13.565 C38.415,13.565 38.932,14.081 38.932,14.719 C38.932,14.719 38.932,37.794 38.932,37.794 C38.932,38.432 38.415,38.948 37.778,38.948 Z" id="path-6" class="cls-8" fill-rule="evenodd"/>
    <path d="M14.696,38.948 C14.696,38.948 16.589,38.948 16.589,38.948 C16.589,38.948 16.589,16.749 16.589,16.749 C16.589,16.111 17.105,15.596 17.743,15.596 C17.743,15.596 38.932,15.596 38.932,15.596 C38.932,15.596 38.932,14.719 38.932,14.719 C38.932,14.081 38.415,13.565 37.778,13.565 C37.778,13.565 14.696,13.565 14.696,13.565 C14.058,13.565 13.542,14.081 13.542,14.719 C13.542,14.719 13.542,37.794 13.542,37.794 C13.542,38.432 14.058,38.948 14.696,38.948 Z" id="path-7" class="cls-9" fill-rule="evenodd"/>
    <path d="M10.941,6.627 C10.941,6.627 8.941,6.627 8.941,6.627 C8.941,6.627 8.941,0.012 8.941,0.012 C8.941,0.012 10.941,0.012 10.941,0.012 C10.941,0.012 10.941,6.627 10.941,6.627 Z" id="path-8" class="cls-10" fill-rule="evenodd"/>
    <path d="M15.558,6.627 C15.558,6.627 13.558,6.627 13.558,6.627 C13.558,6.627 13.558,0.012 13.558,0.012 C13.558,0.012 15.558,0.012 15.558,0.012 C15.558,0.012 15.558,6.627 15.558,6.627 Z" id="path-9" class="cls-10" fill-rule="evenodd"/>
    <path d="M20.174,6.627 C20.174,6.627 18.174,6.627 18.174,6.627 C18.174,6.627 18.174,0.012 18.174,0.012 C18.174,0.012 20.174,0.012 20.174,0.012 C20.174,0.012 20.174,6.627 20.174,6.627 Z" id="path-10" class="cls-10" fill-rule="evenodd"/>
    <path d="M24.790,6.627 C24.790,6.627 22.790,6.627 22.790,6.627 C22.790,6.627 22.790,0.012 22.790,0.012 C22.790,0.012 24.790,0.012 24.790,0.012 C24.790,0.012 24.790,6.627 24.790,6.627 Z" id="path-11" class="cls-10" fill-rule="evenodd"/>
    <path d="M29.406,6.627 C29.406,6.627 27.406,6.627 27.406,6.627 C27.406,6.627 27.406,0.012 27.406,0.012 C27.406,0.012 29.406,0.012 29.406,0.012 C29.406,0.012 29.406,6.627 29.406,6.627 Z" id="path-12" class="cls-10" fill-rule="evenodd"/>
    <path d="M34.023,6.627 C34.023,6.627 32.023,6.627 32.023,6.627 C32.023,6.627 32.023,0.012 32.023,0.012 C32.023,0.012 34.023,0.012 34.023,0.012 C34.023,0.012 34.023,6.627 34.023,6.627 Z" id="path-13" class="cls-10" fill-rule="evenodd"/>
    <path d="M38.639,6.627 C38.639,6.627 36.639,6.627 36.639,6.627 C36.639,6.627 36.639,0.012 36.639,0.012 C36.639,0.012 38.639,0.012 38.639,0.012 C38.639,0.012 38.639,6.627 38.639,6.627 Z" id="path-14" class="cls-10" fill-rule="evenodd"/>
    <path d="M43.255,6.627 C43.255,6.627 41.255,6.627 41.255,6.627 C41.255,6.627 41.255,0.012 41.255,0.012 C41.255,0.012 43.255,0.012 43.255,0.012 C43.255,0.012 43.255,6.627 43.255,6.627 Z" id="path-15" class="cls-10" fill-rule="evenodd"/>
    <path d="M10.941,52.501 C10.941,52.501 8.941,52.501 8.941,52.501 C8.941,52.501 8.941,45.886 8.941,45.886 C8.941,45.886 10.941,45.886 10.941,45.886 C10.941,45.886 10.941,52.501 10.941,52.501 Z" id="path-16" class="cls-10" fill-rule="evenodd"/>
    <path d="M15.558,52.501 C15.558,52.501 13.558,52.501 13.558,52.501 C13.558,52.501 13.558,45.886 13.558,45.886 C13.558,45.886 15.558,45.886 15.558,45.886 C15.558,45.886 15.558,52.501 15.558,52.501 Z" id="path-17" class="cls-10" fill-rule="evenodd"/>
    <path d="M20.174,52.501 C20.174,52.501 18.174,52.501 18.174,52.501 C18.174,52.501 18.174,45.886 18.174,45.886 C18.174,45.886 20.174,45.886 20.174,45.886 C20.174,45.886 20.174,52.501 20.174,52.501 Z" id="path-18" class="cls-10" fill-rule="evenodd"/>
    <path d="M24.790,52.501 C24.790,52.501 22.790,52.501 22.790,52.501 C22.790,52.501 22.790,45.886 22.790,45.886 C22.790,45.886 24.790,45.886 24.790,45.886 C24.790,45.886 24.790,52.501 24.790,52.501 Z" id="path-19" class="cls-10" fill-rule="evenodd"/>
    <path d="M29.406,52.501 C29.406,52.501 27.406,52.501 27.406,52.501 C27.406,52.501 27.406,45.886 27.406,45.886 C27.406,45.886 29.406,45.886 29.406,45.886 C29.406,45.886 29.406,52.501 29.406,52.501 Z" id="path-20" class="cls-10" fill-rule="evenodd"/>
    <path d="M34.023,52.501 C34.023,52.501 32.023,52.501 32.023,52.501 C32.023,52.501 32.023,45.886 32.023,45.886 C32.023,45.886 34.023,45.886 34.023,45.886 C34.023,45.886 34.023,52.501 34.023,52.501 Z" id="path-21" class="cls-10" fill-rule="evenodd"/>
    <path d="M38.639,52.501 C38.639,52.501 36.639,52.501 36.639,52.501 C36.639,52.501 36.639,45.886 36.639,45.886 C36.639,45.886 38.639,45.886 38.639,45.886 C38.639,45.886 38.639,52.501 38.639,52.501 Z" id="path-22" class="cls-10" fill-rule="evenodd"/>
    <path d="M43.255,52.501 C43.255,52.501 41.255,52.501 41.255,52.501 C41.255,52.501 41.255,45.886 41.255,45.886 C41.255,45.886 43.255,45.886 43.255,45.886 C43.255,45.886 43.255,52.501 43.255,52.501 Z" id="path-23" class="cls-10" fill-rule="evenodd"/>
    <path d="M6.602,43.271 C6.602,43.271 -0.015,43.271 -0.015,43.271 C-0.015,43.271 -0.015,41.271 -0.015,41.271 C-0.015,41.271 6.602,41.271 6.602,41.271 C6.602,41.271 6.602,43.271 6.602,43.271 Z" id="path-24" class="cls-10" fill-rule="evenodd"/>
    <path d="M6.602,38.656 C6.602,38.656 -0.015,38.656 -0.015,38.656 C-0.015,38.656 -0.015,36.656 -0.015,36.656 C-0.015,36.656 6.602,36.656 6.602,36.656 C6.602,36.656 6.602,38.656 6.602,38.656 Z" id="path-25" class="cls-10" fill-rule="evenodd"/>
    <path d="M6.602,34.041 C6.602,34.041 -0.015,34.041 -0.015,34.041 C-0.015,34.041 -0.015,32.041 -0.015,32.041 C-0.015,32.041 6.602,32.041 6.602,32.041 C6.602,32.041 6.602,34.041 6.602,34.041 Z" id="path-26" class="cls-10" fill-rule="evenodd"/>
    <path d="M6.602,29.426 C6.602,29.426 -0.015,29.426 -0.015,29.426 C-0.015,29.426 -0.015,27.425 -0.015,27.425 C-0.015,27.425 6.602,27.425 6.602,27.425 C6.602,27.425 6.602,29.426 6.602,29.426 Z" id="path-27" class="cls-10" fill-rule="evenodd"/>
    <path d="M6.602,24.810 C6.602,24.810 -0.015,24.810 -0.015,24.810 C-0.015,24.810 -0.015,22.810 -0.015,22.810 C-0.015,22.810 6.602,22.810 6.602,22.810 C6.602,22.810 6.602,24.810 6.602,24.810 Z" id="path-28" class="cls-10" fill-rule="evenodd"/>
    <path d="M6.602,20.196 C6.602,20.196 -0.015,20.196 -0.015,20.196 C-0.015,20.196 -0.015,18.196 -0.015,18.196 C-0.015,18.196 6.602,18.196 6.602,18.196 C6.602,18.196 6.602,20.196 6.602,20.196 Z" id="path-29" class="cls-10" fill-rule="evenodd"/>
    <path d="M6.602,15.580 C6.602,15.580 -0.015,15.580 -0.015,15.580 C-0.015,15.580 -0.015,13.580 -0.015,13.580 C-0.015,13.580 6.602,13.580 6.602,13.580 C6.602,13.580 6.602,15.580 6.602,15.580 Z" id="path-30" class="cls-10" fill-rule="evenodd"/>
    <path d="M6.602,10.966 C6.602,10.966 -0.015,10.966 -0.015,10.966 C-0.015,10.966 -0.015,8.965 -0.015,8.965 C-0.015,8.965 6.602,8.965 6.602,8.965 C6.602,8.965 6.602,10.966 6.602,10.966 Z" id="path-31" class="cls-10" fill-rule="evenodd"/>
    <path d="M52.488,43.271 C52.488,43.271 45.872,43.271 45.872,43.271 C45.872,43.271 45.872,41.271 45.872,41.271 C45.872,41.271 52.488,41.271 52.488,41.271 C52.488,41.271 52.488,43.271 52.488,43.271 Z" id="path-32" class="cls-10" fill-rule="evenodd"/>
    <path d="M52.488,38.656 C52.488,38.656 45.872,38.656 45.872,38.656 C45.872,38.656 45.872,36.656 45.872,36.656 C45.872,36.656 52.488,36.656 52.488,36.656 C52.488,36.656 52.488,38.656 52.488,38.656 Z" id="path-33" class="cls-10" fill-rule="evenodd"/>
    <path d="M52.488,34.041 C52.488,34.041 45.872,34.041 45.872,34.041 C45.872,34.041 45.872,32.041 45.872,32.041 C45.872,32.041 52.488,32.041 52.488,32.041 C52.488,32.041 52.488,34.041 52.488,34.041 Z" id="path-34" class="cls-10" fill-rule="evenodd"/>
    <path d="M52.488,29.426 C52.488,29.426 45.872,29.426 45.872,29.426 C45.872,29.426 45.872,27.425 45.872,27.425 C45.872,27.425 52.488,27.425 52.488,27.425 C52.488,27.425 52.488,29.426 52.488,29.426 Z" id="path-35" class="cls-10" fill-rule="evenodd"/>
    <path d="M52.488,24.810 C52.488,24.810 45.872,24.810 45.872,24.810 C45.872,24.810 45.872,22.810 45.872,22.810 C45.872,22.810 52.488,22.810 52.488,22.810 C52.488,22.810 52.488,24.810 52.488,24.810 Z" id="path-36" class="cls-10" fill-rule="evenodd"/>
    <path d="M52.488,20.196 C52.488,20.196 45.872,20.196 45.872,20.196 C45.872,20.196 45.872,18.196 45.872,18.196 C45.872,18.196 52.488,18.196 52.488,18.196 C52.488,18.196 52.488,20.196 52.488,20.196 Z" id="path-37" class="cls-10" fill-rule="evenodd"/>
    <path d="M52.488,15.580 C52.488,15.580 45.872,15.580 45.872,15.580 C45.872,15.580 45.872,13.580 45.872,13.580 C45.872,13.580 52.488,13.580 52.488,13.580 C52.488,13.580 52.488,15.580 52.488,15.580 Z" id="path-38" class="cls-10" fill-rule="evenodd"/>
    <path d="M52.488,10.966 C52.488,10.966 45.872,10.966 45.872,10.966 C45.872,10.966 45.872,8.965 45.872,8.965 C45.872,8.965 52.488,8.965 52.488,8.965 C52.488,8.965 52.488,10.966 52.488,10.966 Z" id="path-39" class="cls-10" fill-rule="evenodd"/>
  </g>
</svg>
