<svg xmlns="http://www.w3.org/2000/svg" xmlns:xlink="http://www.w3.org/1999/xlink" preserveAspectRatio="xMidYMid" width="61" height="61" viewBox="0 0 61 61">
  <defs>
    <style>

      .cls-3 {
        fill: #fbb713;
      }

      .cls-5 {
        fill: #0cb04a;
      }

      .cls-6 {
        fill: #ff3a2f;
      }

      .cls-7 {
        fill: #000000;
        opacity: 0.35;
      }
    </style>
  </defs>
  <g id="group-324svg">
    <path d="M34.629,60.517 C34.629,60.517 39.315,60.517 39.315,60.517 C40.219,60.517 40.951,59.963 40.951,59.279 C40.951,58.595 40.219,58.041 39.315,58.041 C39.315,58.041 39.097,58.041 39.097,58.041 C38.193,58.041 37.461,57.487 37.461,56.803 C37.461,56.119 38.193,55.565 39.097,55.565 C39.097,55.565 49.171,55.565 49.171,55.565 C50.074,55.565 50.807,55.010 50.807,54.326 C50.807,53.643 50.074,53.088 49.171,53.088 C49.171,53.088 37.064,53.088 37.064,53.088 C37.064,53.088 12.321,53.088 12.321,53.088 C11.418,53.088 10.686,53.643 10.686,54.326 C10.686,55.010 11.418,55.565 12.321,55.565 C12.321,55.565 15.117,55.565 15.117,55.565 C16.020,55.565 16.753,56.119 16.753,56.803 C16.753,57.487 16.020,58.041 15.117,58.041 C15.117,58.041 4.137,58.041 4.137,58.041 C3.232,58.041 2.500,58.595 2.500,59.279 C2.500,59.963 3.232,60.517 4.137,60.517 C4.137,60.517 4.956,60.517 4.956,60.517 C4.956,60.517 34.629,60.517 34.629,60.517 Z" id="path-1" class="cls-3" fill-rule="evenodd"/>
    <path d="M5.567,52.757 C6.324,52.757 6.938,53.351 6.938,54.084 C6.938,54.816 6.324,55.410 5.567,55.410 C5.567,55.410 1.364,55.410 1.364,55.410 C0.606,55.410 -0.008,54.816 -0.008,54.084 C-0.008,53.351 0.606,52.757 1.364,52.757 C1.364,52.757 5.567,52.757 5.567,52.757 Z" id="path-2" class="cls-3" fill-rule="evenodd"/>
    <path d="M47.923,33.802 C47.923,45.801 38.196,55.527 26.198,55.527 C14.199,55.527 4.473,45.801 4.473,33.802 C4.473,21.803 14.199,12.076 26.198,12.076 C26.198,12.076 26.198,33.802 26.198,33.802 C26.198,33.802 47.923,33.802 47.923,33.802 Z" id="path-3" class="cls-5" fill-rule="evenodd"/>
    <path d="M59.992,28.974 C59.992,12.974 47.024,0.007 31.025,0.007 C31.025,0.007 31.025,28.974 31.025,28.974 C31.025,28.974 59.992,28.974 59.992,28.974 Z" id="path-4" class="cls-6" fill-rule="evenodd"/>
    <path d="M23.977,33.802 C23.977,33.802 26.198,33.802 26.198,33.802 C26.198,33.802 26.198,12.076 26.198,12.076 C25.448,12.076 24.707,12.119 23.977,12.202 C23.977,12.202 23.977,33.802 23.977,33.802 Z" id="path-5" class="cls-7" fill-rule="evenodd"/>
    <path d="M45.590,33.802 C44.477,44.757 35.226,53.306 23.977,53.306 C18.543,53.306 13.588,51.298 9.778,48.000 C13.762,52.603 19.633,55.527 26.198,55.527 C38.196,55.527 47.923,45.800 47.923,33.802 C47.923,33.802 45.590,33.802 45.590,33.802 Z" id="path-6" class="cls-7" fill-rule="evenodd"/>
    <path d="M50.365,7.413 C54.969,12.541 57.771,19.318 57.771,26.753 C57.771,26.753 31.025,26.753 31.025,26.753 C31.025,26.753 31.025,28.974 31.025,28.974 C31.025,28.974 59.992,28.974 59.992,28.974 C59.992,20.409 56.273,12.716 50.365,7.413 Z" id="path-7" class="cls-7" fill-rule="evenodd"/>
  </g>
</svg>
