<svg xmlns="http://www.w3.org/2000/svg" xmlns:xlink="http://www.w3.org/1999/xlink" preserveAspectRatio="xMidYMid" width="61" height="60" viewBox="0 0 61 60">
  <defs>
    <style>

      .cls-3 {
        fill: #142a3b;
      }

      .cls-4 {
        fill: #020403;
        opacity: 0.35;
      }

      .cls-5 {
        fill: #fbb713;
      }

      .cls-6 {
        fill: #ffffff;
      }
    </style>
  </defs>
  <g id="group-117svg">
    <path d="M46.562,32.062 C46.562,32.062 14.562,32.062 14.562,32.062 C14.562,32.062 14.562,0.062 14.562,0.062 C14.562,0.062 46.562,0.062 46.562,0.062 C46.562,0.062 46.562,32.062 46.562,32.062 Z" id="path-1" class="cls-3" fill-rule="evenodd"/>
    <path d="M41.673,0.062 C41.673,0.062 41.673,19.278 41.673,19.278 C41.673,23.340 38.381,26.633 34.319,26.633 C34.319,26.633 14.562,28.530 14.562,28.530 C14.562,28.530 14.562,32.326 14.562,32.326 C14.562,32.326 46.562,32.249 46.562,32.249 C46.562,32.249 46.562,-0.015 46.562,-0.015 C46.562,-0.015 41.673,0.062 41.673,0.062 Z" id="path-2" class="cls-4" fill-rule="evenodd"/>
    <path d="M38.566,16.117 C38.566,11.638 34.935,8.007 30.457,8.007 C25.978,8.007 22.348,11.638 22.348,16.117 C22.348,20.597 25.978,24.227 30.457,24.227 C34.935,24.227 38.566,20.597 38.566,16.117 Z" id="path-3" class="cls-5" fill-rule="evenodd"/>
    <path d="M31.286,22.500 C30.733,22.500 30.286,22.052 30.286,21.500 C30.286,20.947 30.733,20.500 31.286,20.500 C33.246,20.500 34.840,18.905 34.840,16.946 C34.840,16.394 35.287,15.946 35.840,15.946 C36.392,15.946 36.840,16.394 36.840,16.946 C36.840,20.008 34.349,22.500 31.286,22.500 Z" id="path-4" class="cls-6" fill-rule="evenodd"/>
    <path d="M23.296,17.879 C23.296,13.400 26.928,9.770 31.406,9.770 C34.192,9.770 36.649,11.176 38.109,13.317 C37.006,10.149 34.001,7.872 30.457,7.872 C25.978,7.872 22.348,11.502 22.348,15.982 C22.348,17.674 22.867,19.244 23.754,20.544 C23.463,19.708 23.296,18.814 23.296,17.879 Z" id="path-5" class="cls-4" fill-rule="evenodd"/>
    <path d="M58.562,34.062 C58.562,34.062 2.562,34.062 2.562,34.062 C1.734,34.062 1.062,33.391 1.062,32.562 C1.062,31.734 1.734,31.062 2.562,31.062 C2.562,31.062 58.562,31.062 58.562,31.062 C59.391,31.062 60.062,31.734 60.062,32.562 C60.062,33.391 59.391,34.062 58.562,34.062 Z" id="path-6" class="cls-3" fill-rule="evenodd"/>
    <path d="M30.562,59.062 C30.010,59.062 29.562,58.614 29.562,58.062 C29.562,58.062 29.562,33.062 29.562,33.062 C29.562,32.510 30.010,32.062 30.562,32.062 C31.115,32.062 31.562,32.510 31.562,33.062 C31.562,33.062 31.562,58.062 31.562,58.062 C31.562,58.614 31.115,59.062 30.562,59.062 Z" id="path-7" class="cls-3" fill-rule="evenodd"/>
    <path d="M16.444,48.062 C16.444,48.062 9.562,48.062 9.562,48.062 C9.010,48.062 8.562,47.615 8.562,47.062 C8.562,46.510 9.010,46.062 9.562,46.062 C9.562,46.062 15.274,46.062 15.274,46.062 C15.274,46.062 23.192,31.975 23.192,31.975 C23.463,31.493 24.072,31.323 24.555,31.593 C25.036,31.864 25.207,32.473 24.936,32.955 C24.936,32.955 16.444,48.062 16.444,48.062 Z" id="path-8" class="cls-3" fill-rule="evenodd"/>
    <path d="M51.562,48.062 C51.562,48.062 44.466,48.062 44.466,48.062 C44.466,48.062 36.081,32.950 36.081,32.950 C35.812,32.467 35.987,31.859 36.470,31.591 C36.954,31.323 37.560,31.497 37.829,31.980 C37.829,31.980 45.643,46.062 45.643,46.062 C45.643,46.062 51.562,46.062 51.562,46.062 C52.115,46.062 52.562,46.510 52.562,47.062 C52.562,47.615 52.115,48.062 51.562,48.062 Z" id="path-9" class="cls-3" fill-rule="evenodd"/>
    <path d="M20.556,54.616 C20.556,54.616 24.742,54.616 24.742,54.616 C25.549,54.616 26.203,54.909 26.203,55.272 C26.203,55.635 25.549,55.928 24.742,55.928 C24.742,55.928 24.547,55.928 24.547,55.928 C23.739,55.928 23.085,56.222 23.085,56.585 C23.085,56.947 23.739,57.241 24.547,57.241 C24.547,57.241 33.546,57.241 33.546,57.241 C34.353,57.241 35.008,57.534 35.008,57.897 C35.008,58.260 34.353,58.553 33.546,58.553 C33.546,58.553 22.731,58.553 22.731,58.553 C22.731,58.553 10.845,58.553 10.845,58.553 C10.037,58.553 9.383,58.260 9.383,57.897 C9.383,57.534 10.037,57.241 10.845,57.241 C10.845,57.241 13.342,57.241 13.342,57.241 C14.149,57.241 14.804,56.947 14.804,56.585 C14.804,56.222 14.149,55.928 13.342,55.928 C13.342,55.928 1.455,55.928 1.455,55.928 C0.648,55.928 -0.006,55.635 -0.006,55.272 C-0.006,54.909 0.648,54.616 1.455,54.616 C1.455,54.616 4.265,54.616 4.265,54.616 C4.265,54.616 20.556,54.616 20.556,54.616 Z" id="path-10" class="cls-5" fill-rule="evenodd"/>
    <path d="M46.466,59.121 C47.388,59.121 48.135,58.786 48.135,58.372 C48.135,57.958 47.388,57.622 46.466,57.622 C46.466,57.622 41.352,57.622 41.352,57.622 C40.431,57.622 39.684,57.958 39.684,58.372 C39.684,58.786 40.431,59.121 41.352,59.121 C41.352,59.121 46.466,59.121 46.466,59.121 Z" id="path-11" class="cls-5" fill-rule="evenodd"/>
    <path d="M50.425,48.721 C50.425,48.721 52.348,48.721 52.348,48.721 C52.718,48.721 53.018,48.888 53.018,49.093 C53.018,49.299 52.718,49.466 52.348,49.466 C52.348,49.466 52.258,49.466 52.258,49.466 C51.887,49.466 51.587,49.633 51.587,49.838 C51.587,50.044 51.887,50.210 52.258,50.210 C52.258,50.210 56.390,50.210 56.390,50.210 C56.761,50.210 57.062,50.377 57.062,50.583 C57.062,50.788 56.761,50.955 56.390,50.955 C56.390,50.955 51.424,50.955 51.424,50.955 C51.424,50.955 41.273,50.955 41.273,50.955 C40.903,50.955 40.602,50.788 40.602,50.583 C40.602,50.377 40.903,50.210 41.273,50.210 C41.273,50.210 42.421,50.210 42.421,50.210 C42.791,50.210 43.092,50.044 43.092,49.838 C43.092,49.633 42.791,49.466 42.421,49.466 C42.421,49.466 36.962,49.466 36.962,49.466 C36.592,49.466 36.291,49.299 36.291,49.093 C36.291,48.888 36.592,48.721 36.962,48.721 C36.962,48.721 38.252,48.721 38.252,48.721 C38.252,48.721 50.425,48.721 50.425,48.721 Z" id="path-12" class="cls-5" fill-rule="evenodd"/>
    <path d="M35.846,51.358 C36.537,51.358 37.099,51.219 37.099,51.050 C37.099,50.879 36.537,50.742 35.846,50.742 C35.846,50.742 32.010,50.742 32.010,50.742 C31.318,50.742 30.758,50.879 30.758,51.050 C30.758,51.219 31.318,51.358 32.010,51.358 C32.010,51.358 35.846,51.358 35.846,51.358 Z" id="path-13" class="cls-5" fill-rule="evenodd"/>
  </g>
</svg>
