<svg xmlns="http://www.w3.org/2000/svg" xmlns:xlink="http://www.w3.org/1999/xlink" preserveAspectRatio="xMidYMid" width="60" height="55" viewBox="0 0 60 55">
  <defs>
    <style>

      .cls-3 {
        fill: #142a3b;
      }

      .cls-6 {
        fill: #ff3a2f;
      }

      .cls-7 {
        fill: #090908;
        opacity: 0.35;
      }

      .cls-8 {
        fill: #0cb04a;
      }
    </style>
  </defs>
  <g id="group-204svg">
    <path d="M29.354,48.279 C29.354,48.279 25.171,48.279 25.171,48.279 C24.365,48.279 23.711,48.747 23.711,49.325 C23.711,49.902 24.365,50.370 25.171,50.370 C25.171,50.370 25.366,50.370 25.366,50.370 C26.173,50.370 26.826,50.838 26.826,51.416 C26.826,51.993 26.173,52.461 25.366,52.461 C25.366,52.461 16.375,52.461 16.375,52.461 C15.569,52.461 14.916,52.930 14.916,53.507 C14.916,54.084 15.569,54.553 16.375,54.553 C16.375,54.553 27.180,54.553 27.180,54.553 C27.180,54.553 49.264,54.553 49.264,54.553 C50.070,54.553 50.724,54.084 50.724,53.507 C50.724,52.930 50.070,52.461 49.264,52.461 C49.264,52.461 46.769,52.461 46.769,52.461 C45.962,52.461 45.309,51.993 45.309,51.416 C45.309,50.838 45.962,50.370 46.769,50.370 C46.769,50.370 56.569,50.370 56.569,50.370 C57.375,50.370 58.029,49.902 58.029,49.325 C58.029,48.747 57.375,48.279 56.569,48.279 C56.569,48.279 55.837,48.279 55.837,48.279 C55.837,48.279 29.354,48.279 29.354,48.279 Z" id="path-1" class="cls-3" fill-rule="evenodd"/>
    <path d="M55.040,54.832 C54.364,54.832 53.816,54.331 53.816,53.712 C53.816,53.093 54.364,52.592 55.040,52.592 C55.040,52.592 58.791,52.592 58.791,52.592 C59.467,52.592 60.016,53.093 60.016,53.712 C60.016,54.331 59.467,54.832 58.791,54.832 C58.791,54.832 55.040,54.832 55.040,54.832 Z" id="path-2" class="cls-3" fill-rule="evenodd"/>
    <path d="M7.728,54.832 C7.051,54.832 6.503,54.331 6.503,53.712 C6.503,53.093 7.051,52.592 7.728,52.592 C7.728,52.592 11.478,52.592 11.478,52.592 C12.155,52.592 12.703,53.093 12.703,53.712 C12.703,54.331 12.155,54.832 11.478,54.832 C11.478,54.832 7.728,54.832 7.728,54.832 Z" id="path-3" class="cls-3" fill-rule="evenodd"/>
    <path d="M39.633,48.780 C39.633,48.780 4.417,48.780 4.417,48.780 C4.417,48.780 4.417,17.076 4.417,17.076 C4.417,17.076 39.633,17.076 39.633,17.076 C39.633,17.076 39.633,48.780 39.633,48.780 Z" id="path-4" class="cls-6" fill-rule="evenodd"/>
    <path d="M22.449,18.248 C22.449,18.248 19.593,18.248 19.593,18.248 C19.593,18.248 19.593,48.780 19.593,48.780 C19.593,48.780 22.449,48.780 22.449,48.780 C22.449,48.780 22.449,18.248 22.449,18.248 Z" id="path-5" class="cls-7" fill-rule="evenodd"/>
    <path d="M23.453,18.248 C23.453,18.248 20.597,18.248 20.597,18.248 C20.597,18.248 20.597,48.780 20.597,48.780 C20.597,48.780 23.453,48.780 23.453,48.780 C23.453,48.780 23.453,18.248 23.453,18.248 Z" id="path-6" class="cls-8" fill-rule="evenodd"/>
    <path d="M33.346,1.031 C31.428,-0.887 27.450,-0.018 24.460,2.971 C23.338,4.094 22.515,5.355 22.025,6.595 C21.536,5.355 20.712,4.094 19.590,2.971 C16.600,-0.018 12.622,-0.887 10.705,1.031 C8.787,2.949 9.655,6.928 12.645,9.917 C15.635,12.907 19.613,13.775 21.531,11.857 C21.727,11.662 21.887,11.439 22.025,11.203 C22.164,11.439 22.323,11.662 22.519,11.857 C24.437,13.775 28.416,12.907 31.405,9.917 C34.395,6.928 35.264,2.949 33.346,1.031 ZM21.500,11.827 C20.471,12.857 18.066,12.120 16.128,10.182 C14.190,8.245 13.454,5.840 14.483,4.810 C15.513,3.780 17.918,4.516 19.856,6.455 C20.599,7.197 21.160,8.007 21.518,8.782 C21.467,9.598 21.590,10.354 21.906,10.994 C21.841,11.318 21.719,11.609 21.500,11.827 ZM27.922,10.182 C25.985,12.120 23.579,12.857 22.550,11.827 C22.331,11.609 22.209,11.318 22.144,10.994 C22.460,10.354 22.583,9.598 22.532,8.782 C22.890,8.007 23.452,7.197 24.194,6.455 C26.132,4.516 28.537,3.780 29.567,4.810 C30.596,5.840 29.860,8.245 27.922,10.182 Z" id="path-7" class="cls-8" fill-rule="evenodd"/>
    <path d="M29.573,7.884 C29.253,8.568 28.761,9.274 28.141,9.939 C28.141,9.939 31.381,9.939 31.381,9.939 C31.389,9.932 31.397,9.925 31.405,9.917 C32.047,9.275 32.584,8.587 33.024,7.884 C33.024,7.884 29.573,7.884 29.573,7.884 Z" id="path-8" class="cls-7" fill-rule="evenodd"/>
    <path d="M22.532,8.782 C22.669,8.486 22.845,8.186 23.039,7.884 C23.039,7.884 21.011,7.884 21.011,7.884 C21.206,8.186 21.381,8.486 21.518,8.782 C21.493,9.185 21.511,9.572 21.573,9.939 C21.573,9.939 22.478,9.939 22.478,9.939 C22.539,9.572 22.558,9.185 22.532,8.782 Z" id="path-9" class="cls-7" fill-rule="evenodd"/>
    <path d="M14.797,8.568 C14.797,8.568 11.593,8.705 11.593,8.705 C12.033,9.408 12.003,9.275 12.645,9.917 C12.653,9.925 12.661,9.932 12.669,9.939 C12.669,9.939 15.909,9.939 15.909,9.939 C15.290,9.274 15.117,9.252 14.797,8.568 Z" id="path-10" class="cls-7" fill-rule="evenodd"/>
    <path d="M44.035,21.758 C44.035,21.758 0.016,21.758 0.016,21.758 C0.016,21.758 0.016,9.939 0.016,9.939 C0.016,9.939 44.035,9.939 44.035,9.939 C44.035,9.939 44.035,21.758 44.035,21.758 Z" id="path-11" class="cls-6" fill-rule="evenodd"/>
    <path d="M39.579,27.550 C39.579,27.550 4.417,23.532 4.417,23.532 C4.417,23.532 4.417,21.758 4.417,21.758 C4.417,21.758 39.579,21.758 39.579,21.758 C39.579,21.758 39.579,27.550 39.579,27.550 Z" id="path-12" class="cls-7" fill-rule="evenodd"/>
  </g>
</svg>
