<svg xmlns="http://www.w3.org/2000/svg" xmlns:xlink="http://www.w3.org/1999/xlink" preserveAspectRatio="xMidYMid" width="61" height="45" viewBox="0 0 61 45">
  <defs>
    <style>

      .cls-3 {
        fill: #ff3a2f;
      }

      .cls-7 {
        fill: #0cb04a;
      }

      .cls-8 {
        fill: #090908;
        opacity: 0.35;
      }

      .cls-10 {
        fill: #142a3b;
      }

      .cls-11 {
        fill: #ededed;
      }
    </style>
  </defs>
  <g id="group-205svg">
    <path d="M22.624,43.781 C22.624,43.781 25.400,43.781 25.400,43.781 C25.935,43.781 26.369,43.426 26.369,42.987 C26.369,42.549 25.935,42.193 25.400,42.193 C25.400,42.193 25.271,42.193 25.271,42.193 C24.736,42.193 24.302,41.838 24.302,41.399 C24.302,40.961 24.736,40.605 25.271,40.605 C25.271,40.605 31.237,40.605 31.237,40.605 C31.772,40.605 32.207,40.250 32.207,39.811 C32.207,39.373 31.772,39.017 31.237,39.017 C31.237,39.017 24.067,39.017 24.067,39.017 C24.067,39.017 9.412,39.017 9.412,39.017 C8.876,39.017 8.442,39.373 8.442,39.811 C8.442,40.250 8.876,40.605 9.412,40.605 C9.412,40.605 11.067,40.605 11.067,40.605 C11.603,40.605 12.036,40.961 12.036,41.399 C12.036,41.838 11.603,42.193 11.067,42.193 C11.067,42.193 3.186,42.193 3.186,42.193 C2.651,42.193 2.217,42.549 2.217,42.987 C2.217,43.426 2.651,43.781 3.186,43.781 C3.186,43.781 5.049,43.781 5.049,43.781 C5.049,43.781 22.624,43.781 22.624,43.781 Z" id="path-1" class="cls-3" fill-rule="evenodd"/>
    <path d="M52.010,44.507 C52.010,44.507 53.477,44.507 53.477,44.507 C53.760,44.507 53.989,44.332 53.989,44.117 C53.989,43.901 53.760,43.726 53.477,43.726 C53.477,43.726 53.409,43.726 53.409,43.726 C53.125,43.726 52.896,43.552 52.896,43.337 C52.896,43.121 53.125,42.947 53.409,42.947 C53.409,42.947 56.562,42.947 56.562,42.947 C56.845,42.947 57.074,42.772 57.074,42.557 C57.074,42.341 56.845,42.167 56.562,42.167 C56.562,42.167 52.772,42.167 52.772,42.167 C52.772,42.167 45.026,42.167 45.026,42.167 C44.744,42.167 44.514,42.341 44.514,42.557 C44.514,42.772 44.744,42.947 45.026,42.947 C45.026,42.947 45.902,42.947 45.902,42.947 C46.185,42.947 46.414,43.121 46.414,43.337 C46.414,43.552 46.185,43.726 45.902,43.726 C45.902,43.726 41.737,43.726 41.737,43.726 C41.454,43.726 41.225,43.901 41.225,44.117 C41.225,44.332 41.454,44.507 41.737,44.507 C41.737,44.507 42.721,44.507 42.721,44.507 C42.721,44.507 52.010,44.507 52.010,44.507 Z" id="path-2" class="cls-3" fill-rule="evenodd"/>
    <path d="M4.445,38.962 C5.048,38.962 5.537,39.354 5.537,39.837 C5.537,40.320 5.048,40.712 4.445,40.712 C4.445,40.712 1.102,40.712 1.102,40.712 C0.499,40.712 0.010,40.320 0.010,39.837 C0.010,39.354 0.499,38.962 1.102,38.962 C1.102,38.962 4.445,38.962 4.445,38.962 Z" id="path-3" class="cls-3" fill-rule="evenodd"/>
    <path d="M35.806,42.906 C36.409,42.906 36.897,43.298 36.897,43.781 C36.897,44.264 36.409,44.657 35.806,44.657 C35.806,44.657 32.462,44.657 32.462,44.657 C31.859,44.657 31.371,44.264 31.371,43.781 C31.371,43.298 31.859,42.906 32.462,42.906 C32.462,42.906 35.806,42.906 35.806,42.906 Z" id="path-4" class="cls-3" fill-rule="evenodd"/>
    <path d="M55.592,39.963 C55.592,39.963 19.345,39.963 19.345,39.963 C16.905,39.963 14.927,37.984 14.927,35.544 C14.927,35.544 14.927,27.688 14.927,27.688 C14.927,25.248 16.905,23.270 19.345,23.270 C19.345,23.270 55.592,23.270 55.592,23.270 C58.032,23.270 60.010,25.248 60.010,27.688 C60.010,27.688 60.010,35.544 60.010,35.544 C60.010,37.984 58.032,39.963 55.592,39.963 Z" id="path-5" class="cls-7" fill-rule="evenodd"/>
    <path d="M56.528,23.284 C56.650,23.647 56.731,24.029 56.731,24.432 C56.731,24.432 56.731,33.882 56.731,33.882 C56.731,35.882 55.110,37.503 53.110,37.503 C53.110,37.503 15.269,37.503 15.269,37.503 C15.222,37.503 15.178,37.491 15.130,37.489 C15.612,38.923 16.952,39.963 18.548,39.963 C18.548,39.963 56.389,39.963 56.389,39.963 C58.389,39.963 60.010,38.341 60.010,36.341 C60.010,36.341 60.010,26.892 60.010,26.892 C60.010,24.939 58.462,23.359 56.528,23.284 Z" id="path-6" class="cls-8" fill-rule="evenodd"/>
    <path d="M27.582,32.436 C27.582,33.960 26.346,35.196 24.822,35.196 C23.297,35.196 22.061,33.960 22.061,32.436 C22.061,30.911 23.297,29.676 24.822,29.676 C26.346,29.676 27.582,30.911 27.582,32.436 Z" id="path-7" class="cls-8" fill-rule="evenodd"/>
    <path d="M26.762,31.616 C26.762,33.140 25.526,34.377 24.002,34.377 C22.478,34.377 21.242,33.140 21.242,31.616 C21.242,30.091 22.478,28.856 24.002,28.856 C25.526,28.856 26.762,30.091 26.762,31.616 Z" id="path-8" class="cls-10" fill-rule="evenodd"/>
    <path d="M30.735,33.207 C30.735,33.207 30.735,33.207 30.735,33.207 C30.277,33.207 29.906,32.836 29.906,32.377 C29.906,32.377 29.906,30.644 29.906,30.644 C29.906,30.186 30.277,29.815 30.735,29.815 C30.735,29.815 30.735,29.815 30.735,29.815 C31.193,29.815 31.564,30.186 31.564,30.644 C31.564,30.644 31.564,32.377 31.564,32.377 C31.564,32.836 31.193,33.207 30.735,33.207 Z" id="path-9" class="cls-11" fill-rule="evenodd"/>
    <path d="M40.103,33.207 C40.103,33.207 40.103,33.207 40.103,33.207 C39.645,33.207 39.274,32.836 39.274,32.377 C39.274,32.377 39.274,30.644 39.274,30.644 C39.274,30.186 39.645,29.815 40.103,29.815 C40.103,29.815 40.103,29.815 40.103,29.815 C40.561,29.815 40.933,30.186 40.933,30.644 C40.933,30.644 40.933,32.377 40.933,32.377 C40.933,32.836 40.561,33.207 40.103,33.207 Z" id="path-10" class="cls-11" fill-rule="evenodd"/>
    <path d="M35.419,33.207 C35.419,33.207 35.419,33.207 35.419,33.207 C34.961,33.207 34.590,32.836 34.590,32.377 C34.590,32.377 34.590,30.644 34.590,30.644 C34.590,30.186 34.961,29.815 35.419,29.815 C35.419,29.815 35.419,29.815 35.419,29.815 C35.877,29.815 36.248,30.186 36.248,30.644 C36.248,30.644 36.248,32.377 36.248,32.377 C36.248,32.836 35.877,33.207 35.419,33.207 Z" id="path-11" class="cls-11" fill-rule="evenodd"/>
    <path d="M50.105,15.614 C50.105,15.614 48.349,15.614 48.349,15.614 C48.349,15.614 48.349,0.001 48.349,0.001 C48.349,0.001 50.105,0.001 50.105,0.001 C50.105,0.001 50.105,15.614 50.105,15.614 Z" id="path-12" class="cls-7" fill-rule="evenodd"/>
    <path d="M51.765,23.270 C51.765,23.270 46.690,23.270 46.690,23.270 C46.690,23.270 46.690,13.174 46.690,13.174 C46.690,13.174 51.765,13.174 51.765,13.174 C51.765,13.174 51.765,23.270 51.765,23.270 Z" id="path-13" class="cls-10" fill-rule="evenodd"/>
    <path d="M51.765,23.270 C51.765,23.270 46.690,23.270 46.690,23.270 C46.690,23.270 46.690,22.214 46.690,22.214 C46.690,22.214 51.765,20.574 51.765,20.574 C51.765,20.574 51.765,23.270 51.765,23.270 Z" id="path-14" class="cls-8" fill-rule="evenodd"/>
    <path d="M50.105,13.174 C50.105,13.174 48.349,13.174 48.349,13.174 C48.349,13.174 48.349,12.613 48.349,12.613 C48.349,12.613 50.105,12.052 50.105,12.052 C50.105,12.052 50.105,13.174 50.105,13.174 Z" id="path-15" class="cls-8" fill-rule="evenodd"/>
  </g>
</svg>
