<svg xmlns="http://www.w3.org/2000/svg" xmlns:xlink="http://www.w3.org/1999/xlink" preserveAspectRatio="xMidYMid" width="61" height="53" viewBox="0 0 61 53">
  <defs>
    <style>

      .cls-3 {
        fill: #142a3b;
      }

      .cls-6 {
        fill: #0cb04a;
      }

      .cls-7 {
        fill: #020403;
        opacity: 0.3;
      }
    </style>
  </defs>
  <g id="group-203svg">
    <path d="M15.109,46.807 C15.109,46.807 10.731,46.807 10.731,46.807 C9.887,46.807 9.203,47.199 9.203,47.682 C9.203,48.165 9.887,48.557 10.731,48.557 C10.731,48.557 10.935,48.557 10.935,48.557 C11.779,48.557 12.463,48.949 12.463,49.432 C12.463,49.916 11.779,50.308 10.935,50.308 C10.935,50.308 1.523,50.308 1.523,50.308 C0.679,50.308 -0.006,50.700 -0.006,51.183 C-0.006,51.667 0.679,52.058 1.523,52.058 C1.523,52.058 12.834,52.058 12.834,52.058 C12.834,52.058 35.954,52.058 35.954,52.058 C36.798,52.058 37.482,51.667 37.482,51.183 C37.482,50.700 36.798,50.308 35.954,50.308 C35.954,50.308 33.341,50.308 33.341,50.308 C32.497,50.308 31.813,49.916 31.813,49.432 C31.813,48.949 32.497,48.557 33.341,48.557 C33.341,48.557 43.601,48.557 43.601,48.557 C44.445,48.557 45.129,48.165 45.129,47.682 C45.129,47.199 44.445,46.807 43.601,46.807 C43.601,46.807 42.835,46.807 42.835,46.807 C42.835,46.807 15.109,46.807 15.109,46.807 Z" id="path-1" class="cls-3" fill-rule="evenodd"/>
    <path d="M42.000,52.293 C41.292,52.293 40.719,51.873 40.719,51.355 C40.719,50.837 41.292,50.417 42.000,50.417 C42.000,50.417 45.928,50.417 45.928,50.417 C46.635,50.417 47.209,50.837 47.209,51.355 C47.209,51.873 46.635,52.293 45.928,52.293 C45.928,52.293 42.000,52.293 42.000,52.293 Z" id="path-2" class="cls-3" fill-rule="evenodd"/>
    <path d="M12.753,27.276 C12.045,27.276 11.472,26.856 11.472,26.339 C11.472,25.820 12.045,25.400 12.753,25.400 C12.753,25.400 16.680,25.400 16.680,25.400 C17.388,25.400 17.961,25.820 17.961,26.339 C17.961,26.856 17.388,27.276 16.680,27.276 C16.680,27.276 12.753,27.276 12.753,27.276 Z" id="path-3" class="cls-3" fill-rule="evenodd"/>
    <path d="M19.993,49.081 C19.821,49.081 19.647,49.037 19.492,48.949 C19.170,48.767 18.970,48.426 18.970,48.057 C18.970,48.057 18.970,1.009 18.970,1.009 C18.970,0.641 19.170,0.299 19.492,0.118 C19.813,-0.062 20.209,-0.058 20.522,0.134 C20.522,0.134 59.499,23.655 59.499,23.655 C59.807,23.838 59.994,24.171 59.994,24.529 C59.994,24.889 59.807,25.221 59.499,25.404 C59.499,25.404 20.522,48.936 20.522,48.936 C20.361,49.033 20.177,49.081 19.993,49.081 Z" id="path-4" class="cls-6" fill-rule="evenodd"/>
    <path d="M59.499,23.655 C59.499,23.655 20.522,0.134 20.522,0.134 C20.350,0.028 20.153,-0.015 19.956,-0.007 C19.956,-0.007 53.250,20.085 53.250,20.085 C53.558,20.268 53.746,20.600 53.746,20.959 C53.746,21.318 53.558,21.651 53.250,21.834 C53.250,21.834 18.970,42.530 18.970,42.530 C18.970,42.530 18.970,48.057 18.970,48.057 C18.970,48.426 19.170,48.767 19.492,48.949 C19.647,49.037 19.821,49.081 19.993,49.081 C20.177,49.081 20.361,49.033 20.522,48.935 C20.522,48.935 59.499,25.404 59.499,25.404 C59.807,25.221 59.994,24.889 59.994,24.529 C59.994,24.171 59.807,23.838 59.499,23.655 Z" id="path-5" class="cls-7" fill-rule="evenodd"/>
  </g>
</svg>
