<svg xmlns="http://www.w3.org/2000/svg" xmlns:xlink="http://www.w3.org/1999/xlink" preserveAspectRatio="xMidYMid" width="60" height="53" viewBox="0 0 60 53">
  <defs>
    <style>

      .cls-3 {
        fill: #0cb04a;
      }

      .cls-6 {
        fill: #ff3a2f;
      }

      .cls-7 {
        fill: #000000;
        opacity: 0.25;
      }

      .cls-8 {
        fill: #ffffff;
      }

      .cls-9 {
        fill: #fbb713;
      }
    </style>
  </defs>
  <g id="group-20svg">
    <path d="M57.802,52.675 C59.011,52.675 59.990,52.055 59.990,51.289 C59.990,50.523 59.011,49.903 57.802,49.903 C57.802,49.903 51.097,49.903 51.097,49.903 C49.889,49.903 48.909,50.523 48.909,51.289 C48.909,52.055 49.889,52.675 51.097,52.675 C51.097,52.675 57.802,52.675 57.802,52.675 Z" id="path-1" class="cls-3" fill-rule="evenodd"/>
    <path d="M28.332,44.649 C28.332,45.376 27.743,45.964 27.017,45.964 C26.291,45.964 25.702,45.376 25.702,44.649 C25.702,43.924 26.291,43.335 27.017,43.335 C27.743,43.335 28.332,43.924 28.332,44.649 Z" id="path-2" class="cls-3" fill-rule="evenodd"/>
    <path d="M13.527,40.562 C13.527,40.562 16.283,40.562 16.283,40.562 C16.814,40.562 17.245,40.976 17.245,41.487 C17.245,41.997 16.814,42.410 16.283,42.410 C16.283,42.410 16.154,42.410 16.154,42.410 C15.623,42.410 15.192,42.825 15.192,43.335 C15.192,43.845 15.623,44.260 16.154,44.260 C16.154,44.260 22.079,44.260 22.079,44.260 C22.610,44.260 23.041,44.673 23.041,45.183 C23.041,45.694 22.610,46.108 22.079,46.108 C22.079,46.108 14.959,46.108 14.959,46.108 C14.959,46.108 7.134,46.108 7.134,46.108 C6.602,46.108 6.171,45.694 6.171,45.183 C6.171,44.673 6.602,44.260 7.134,44.260 C7.134,44.260 8.778,44.260 8.778,44.260 C9.309,44.260 9.740,43.845 9.740,43.335 C9.740,42.825 9.309,42.410 8.778,42.410 C8.778,42.410 0.952,42.410 0.952,42.410 C0.421,42.410 -0.010,41.997 -0.010,41.487 C-0.010,40.976 0.421,40.562 0.952,40.562 C0.952,40.562 2.802,40.562 2.802,40.562 C2.802,40.562 13.527,40.562 13.527,40.562 Z" id="path-3" class="cls-3" fill-rule="evenodd"/>
    <path d="M27.645,25.400 C20.038,33.008 9.858,35.162 4.908,30.213 C-0.042,25.264 2.113,15.083 9.721,7.476 C17.329,-0.132 27.509,-2.286 32.458,2.664 C37.408,7.613 35.253,17.793 27.645,25.400 Z" id="path-4" class="cls-6" fill-rule="evenodd"/>
    <path d="M32.458,2.664 C27.509,-2.286 17.329,-0.132 9.721,7.476 C2.113,15.083 -0.042,25.264 4.908,30.213 C4.908,30.213 13.282,29.390 17.353,17.423 C17.353,17.423 19.378,4.264 30.454,4.776 C30.454,4.776 32.458,2.664 32.458,2.664 Z" id="path-5" class="cls-7" fill-rule="evenodd"/>
    <path d="M7.469,17.828 C7.320,17.828 7.168,17.794 7.025,17.723 C6.531,17.477 6.329,16.877 6.575,16.382 C7.927,13.662 9.780,11.115 12.082,8.813 C14.449,6.446 17.184,4.485 19.989,3.142 C20.487,2.903 21.084,3.114 21.323,3.613 C21.561,4.111 21.351,4.708 20.853,4.946 C18.249,6.192 15.705,8.019 13.496,10.228 C11.378,12.346 9.604,14.782 8.366,17.273 C8.191,17.624 7.837,17.828 7.469,17.828 Z" id="path-6" class="cls-8" fill-rule="evenodd"/>
    <path d="M48.680,43.368 C44.046,48.000 37.846,49.313 34.832,46.299 C31.817,43.284 33.129,37.084 37.763,32.451 C42.396,27.817 48.597,26.505 51.611,29.519 C54.625,32.534 53.313,38.734 48.680,43.368 Z" id="path-7" class="cls-9" fill-rule="evenodd"/>
    <path d="M51.611,29.519 C48.597,26.505 42.396,27.817 37.763,32.451 C33.129,37.084 31.817,43.284 34.832,46.299 C34.832,46.299 39.932,45.797 42.411,38.509 C42.411,38.509 43.644,30.495 50.391,30.806 C50.391,30.806 51.611,29.519 51.611,29.519 Z" id="path-8" class="cls-7" fill-rule="evenodd"/>
    <path d="M50.856,8.803 C53.865,11.813 54.718,15.840 52.760,17.798 C50.802,19.756 46.775,18.903 43.766,15.894 C40.756,12.884 39.903,8.857 41.861,6.900 C43.819,4.942 47.847,5.793 50.856,8.803 Z" id="path-9" class="cls-6" fill-rule="evenodd"/>
    <path d="M41.861,6.900 C39.903,8.857 40.756,12.884 43.766,15.894 C46.775,18.903 50.802,19.756 52.760,17.798 C52.760,17.798 52.434,14.485 47.700,12.874 C47.700,12.874 42.495,12.074 42.697,7.692 C42.697,7.692 41.861,6.900 41.861,6.900 Z" id="path-10" class="cls-7" fill-rule="evenodd"/>
  </g>
</svg>
