<svg xmlns="http://www.w3.org/2000/svg" xmlns:xlink="http://www.w3.org/1999/xlink" preserveAspectRatio="xMidYMid" width="61" height="39" viewBox="0 0 61 39">
  <defs>
    <style>

      .cls-3 {
        fill: #142a3b;
      }

      .cls-5 {
        fill: #2476ff;
      }

      .cls-7 {
        fill: #000000;
        opacity: 0.35;
      }

      .cls-11 {
        fill: #ededed;
      }
    </style>
  </defs>
  <g id="group-313svg">
    <path d="M37.816,38.653 C37.816,38.653 42.715,38.653 42.715,38.653 C43.659,38.653 44.425,38.232 44.425,37.713 C44.425,37.193 43.659,36.771 42.715,36.771 C42.715,36.771 42.487,36.771 42.487,36.771 C41.543,36.771 40.777,36.350 40.777,35.830 C40.777,35.310 41.543,34.889 42.487,34.889 C42.487,34.889 53.018,34.889 53.018,34.889 C53.962,34.889 54.728,34.467 54.728,33.948 C54.728,33.428 53.962,33.007 53.018,33.007 C53.018,33.007 40.363,33.007 40.363,33.007 C40.363,33.007 14.498,33.007 14.498,33.007 C13.553,33.007 12.787,33.428 12.787,33.948 C12.787,34.467 13.553,34.889 14.498,34.889 C14.498,34.889 17.420,34.889 17.420,34.889 C18.364,34.889 19.130,35.310 19.130,35.830 C19.130,36.350 18.364,36.771 17.420,36.771 C17.420,36.771 5.942,36.771 5.942,36.771 C4.998,36.771 4.232,37.193 4.232,37.713 C4.232,38.232 4.998,38.653 5.942,38.653 C5.942,38.653 6.799,38.653 6.799,38.653 C6.799,38.653 37.816,38.653 37.816,38.653 Z" id="path-1" class="cls-3" fill-rule="evenodd"/>
    <path d="M7.706,32.922 C8.372,32.922 8.911,33.220 8.911,33.588 C8.911,33.955 8.372,34.253 7.706,34.253 C7.706,34.253 4.015,34.253 4.015,34.253 C3.350,34.253 2.810,33.955 2.810,33.588 C2.810,33.220 3.350,32.922 4.015,32.922 C4.015,32.922 7.706,32.922 7.706,32.922 Z" id="path-2" class="cls-3" fill-rule="evenodd"/>
    <path d="M29.987,27.186 C44.119,27.186 55.575,15.730 55.575,1.598 C55.575,1.598 4.399,1.598 4.399,1.598 C4.399,15.730 15.855,27.186 29.987,27.186 Z" id="path-3" class="cls-5" fill-rule="evenodd"/>
    <path d="M29.987,27.186 C26.412,27.186 23.009,26.450 19.918,25.126 C19.918,25.126 18.252,30.621 18.252,30.621 C17.726,32.361 19.027,34.116 20.846,34.116 C20.846,34.116 39.336,34.116 39.336,34.116 C41.091,34.116 42.383,32.473 41.970,30.768 C41.970,30.768 40.548,24.904 40.548,24.904 C37.327,26.365 33.754,27.186 29.987,27.186 Z" id="path-4" class="cls-5" fill-rule="evenodd"/>
    <path d="M19.168,27.599 C22.455,29.135 26.119,29.999 29.987,29.999 C33.994,29.999 37.785,29.076 41.161,27.434 C41.161,27.434 40.548,24.904 40.548,24.904 C37.327,26.365 33.754,27.186 29.987,27.186 C26.412,27.186 23.008,26.450 19.918,25.126 C19.918,25.126 19.168,27.599 19.168,27.599 Z" id="path-5" class="cls-7" fill-rule="evenodd"/>
    <path d="M57.797,1.953 C57.797,1.953 2.178,1.953 2.178,1.953 C1.639,1.953 1.200,1.516 1.200,0.976 C1.200,0.976 1.200,0.976 1.200,0.976 C1.200,0.436 1.639,-0.001 2.178,-0.001 C2.178,-0.001 57.797,-0.001 57.797,-0.001 C58.336,-0.001 58.773,0.436 58.773,0.976 C58.773,0.976 58.773,0.976 58.773,0.976 C58.773,1.516 58.336,1.953 57.797,1.953 Z" id="path-6" class="cls-5" fill-rule="evenodd"/>
    <path d="M1.417,6.921 C1.417,6.921 7.381,6.921 7.381,6.921 C8.171,6.921 8.811,6.281 8.811,5.491 C8.811,5.491 8.811,5.491 8.811,5.491 C8.811,4.702 8.171,4.061 7.381,4.061 C7.381,4.061 1.417,4.061 1.417,4.061 C0.627,4.061 -0.013,4.702 -0.013,5.491 C-0.013,5.491 -0.013,5.491 -0.013,5.491 C-0.013,6.281 0.627,6.921 1.417,6.921 Z" id="path-7" class="cls-5" fill-rule="evenodd"/>
    <path d="M52.593,6.921 C52.593,6.921 58.558,6.921 58.558,6.921 C59.348,6.921 59.987,6.281 59.987,5.491 C59.987,5.491 59.987,5.491 59.987,5.491 C59.987,4.702 59.348,4.061 58.558,4.061 C58.558,4.061 52.593,4.061 52.593,4.061 C51.804,4.061 51.164,4.702 51.164,5.491 C51.164,5.491 51.164,5.491 51.164,5.491 C51.164,6.281 51.804,6.921 52.593,6.921 Z" id="path-8" class="cls-5" fill-rule="evenodd"/>
    <path d="M18.445,8.169 C18.445,8.858 17.887,9.417 17.197,9.417 C16.508,9.417 15.949,8.858 15.949,8.169 C15.949,7.479 16.508,6.921 17.197,6.921 C17.887,6.921 18.445,7.479 18.445,8.169 Z" id="path-9" class="cls-11" fill-rule="evenodd"/>
    <path d="M11.337,8.169 C11.337,8.858 10.778,9.417 10.090,9.417 C9.400,9.417 8.842,8.858 8.842,8.169 C8.842,7.479 9.400,6.921 10.090,6.921 C10.778,6.921 11.337,7.479 11.337,8.169 Z" id="path-10" class="cls-11" fill-rule="evenodd"/>
    <path d="M27.686,8.169 C27.686,8.858 27.127,9.417 26.437,9.417 C25.748,9.417 25.189,8.858 25.189,8.169 C25.189,7.479 25.748,6.921 26.437,6.921 C27.127,6.921 27.686,7.479 27.686,8.169 Z" id="path-11" class="cls-11" fill-rule="evenodd"/>
    <path d="M46.876,8.169 C46.876,8.858 46.317,9.417 45.629,9.417 C44.939,9.417 44.381,8.858 44.381,8.169 C44.381,7.479 44.939,6.921 45.629,6.921 C46.317,6.921 46.876,7.479 46.876,8.169 Z" id="path-12" class="cls-11" fill-rule="evenodd"/>
    <path d="M34.082,13.855 C34.082,14.544 33.523,15.103 32.834,15.103 C32.145,15.103 31.587,14.544 31.587,13.855 C31.587,13.166 32.145,12.607 32.834,12.607 C33.523,12.607 34.082,13.166 34.082,13.855 Z" id="path-13" class="cls-11" fill-rule="evenodd"/>
    <path d="M24.842,13.855 C24.842,14.544 24.283,15.103 23.594,15.103 C22.905,15.103 22.347,14.544 22.347,13.855 C22.347,13.166 22.905,12.607 23.594,12.607 C24.283,12.607 24.842,13.166 24.842,13.855 Z" id="path-14" class="cls-11" fill-rule="evenodd"/>
    <path d="M45.455,13.855 C45.455,14.544 44.896,15.103 44.207,15.103 C43.518,15.103 42.959,14.544 42.959,13.855 C42.959,13.166 43.518,12.607 44.207,12.607 C44.896,12.607 45.455,13.166 45.455,13.855 Z" id="path-15" class="cls-11" fill-rule="evenodd"/>
    <path d="M39.768,18.830 C39.768,19.519 39.210,20.079 38.520,20.079 C37.832,20.079 37.272,19.519 37.272,18.830 C37.272,18.141 37.832,17.582 38.520,17.582 C39.210,17.582 39.768,18.141 39.768,18.830 Z" id="path-16" class="cls-11" fill-rule="evenodd"/>
    <path d="M30.528,19.541 C30.528,20.230 29.970,20.789 29.280,20.789 C28.592,20.789 28.032,20.230 28.032,19.541 C28.032,18.852 28.592,18.293 29.280,18.293 C29.970,18.293 30.528,18.852 30.528,19.541 Z" id="path-17" class="cls-11" fill-rule="evenodd"/>
    <path d="M16.312,13.855 C16.312,14.544 15.754,15.103 15.064,15.103 C14.376,15.103 13.817,14.544 13.817,13.855 C13.817,13.166 14.376,12.607 15.064,12.607 C15.754,12.607 16.312,13.166 16.312,13.855 Z" id="path-18" class="cls-11" fill-rule="evenodd"/>
    <path d="M39.058,8.879 C39.058,9.569 38.499,10.127 37.810,10.127 C37.121,10.127 36.562,9.569 36.562,8.879 C36.562,8.190 37.121,7.632 37.810,7.632 C38.499,7.632 39.058,8.190 39.058,8.879 Z" id="path-19" class="cls-11" fill-rule="evenodd"/>
    <path d="M17.197,6.921 C17.031,6.921 16.873,6.956 16.728,7.016 C17.185,7.201 17.508,7.646 17.508,8.169 C17.508,8.692 17.185,9.137 16.728,9.322 C16.873,9.381 17.031,9.417 17.197,9.417 C17.887,9.417 18.445,8.858 18.445,8.169 C18.445,7.479 17.887,6.921 17.197,6.921 Z" id="path-20" class="cls-7" fill-rule="evenodd"/>
    <path d="M10.089,6.921 C9.923,6.921 9.766,6.956 9.621,7.016 C10.077,7.201 10.399,7.646 10.399,8.169 C10.399,8.692 10.077,9.137 9.621,9.322 C9.766,9.381 9.923,9.417 10.089,9.417 C10.778,9.417 11.337,8.858 11.337,8.169 C11.337,7.479 10.778,6.921 10.089,6.921 Z" id="path-21" class="cls-7" fill-rule="evenodd"/>
    <path d="M26.437,6.921 C26.271,6.921 26.113,6.956 25.969,7.016 C26.425,7.201 26.748,7.646 26.748,8.169 C26.748,8.692 26.425,9.137 25.969,9.322 C26.113,9.381 26.271,9.417 26.437,9.417 C27.127,9.417 27.686,8.858 27.686,8.169 C27.686,7.479 27.127,6.921 26.437,6.921 Z" id="path-22" class="cls-7" fill-rule="evenodd"/>
    <path d="M45.629,6.921 C45.462,6.921 45.305,6.956 45.160,7.016 C45.616,7.201 45.938,7.646 45.938,8.169 C45.938,8.692 45.616,9.137 45.160,9.322 C45.305,9.381 45.462,9.417 45.629,9.417 C46.317,9.417 46.876,8.858 46.876,8.169 C46.876,7.479 46.317,6.921 45.629,6.921 Z" id="path-23" class="cls-7" fill-rule="evenodd"/>
    <path d="M32.835,12.607 C32.668,12.607 32.511,12.642 32.365,12.702 C32.822,12.887 33.144,13.332 33.144,13.855 C33.144,14.378 32.822,14.823 32.365,15.008 C32.511,15.067 32.668,15.103 32.835,15.103 C33.523,15.103 34.082,14.544 34.082,13.855 C34.082,13.166 33.523,12.607 32.835,12.607 Z" id="path-24" class="cls-7" fill-rule="evenodd"/>
    <path d="M23.594,12.607 C23.428,12.607 23.270,12.642 23.126,12.702 C23.582,12.887 23.904,13.332 23.904,13.855 C23.904,14.378 23.582,14.823 23.126,15.008 C23.270,15.067 23.428,15.103 23.594,15.103 C24.283,15.103 24.842,14.544 24.842,13.855 C24.842,13.166 24.283,12.607 23.594,12.607 Z" id="path-25" class="cls-7" fill-rule="evenodd"/>
    <path d="M44.207,12.607 C44.041,12.607 43.883,12.642 43.738,12.702 C44.194,12.887 44.518,13.332 44.518,13.855 C44.518,14.378 44.194,14.823 43.738,15.008 C43.883,15.067 44.041,15.103 44.207,15.103 C44.896,15.103 45.455,14.544 45.455,13.855 C45.455,13.166 44.896,12.607 44.207,12.607 Z" id="path-26" class="cls-7" fill-rule="evenodd"/>
    <path d="M38.520,17.582 C38.354,17.582 38.197,17.618 38.052,17.677 C38.508,17.862 38.831,18.307 38.831,18.830 C38.831,19.353 38.508,19.798 38.052,19.984 C38.197,20.043 38.354,20.079 38.520,20.079 C39.210,20.079 39.768,19.519 39.768,18.830 C39.768,18.141 39.210,17.582 38.520,17.582 Z" id="path-27" class="cls-7" fill-rule="evenodd"/>
    <path d="M29.280,18.293 C29.114,18.293 28.957,18.329 28.811,18.388 C29.267,18.573 29.591,19.018 29.591,19.541 C29.591,20.064 29.267,20.509 28.811,20.695 C28.957,20.754 29.114,20.789 29.280,20.789 C29.970,20.789 30.528,20.230 30.528,19.541 C30.528,18.852 29.970,18.293 29.280,18.293 Z" id="path-28" class="cls-7" fill-rule="evenodd"/>
    <path d="M15.064,12.607 C14.898,12.607 14.741,12.642 14.596,12.702 C15.053,12.887 15.375,13.332 15.375,13.855 C15.375,14.378 15.053,14.823 14.596,15.008 C14.741,15.067 14.898,15.103 15.064,15.103 C15.754,15.103 16.312,14.544 16.312,13.855 C16.312,13.166 15.754,12.607 15.064,12.607 Z" id="path-29" class="cls-7" fill-rule="evenodd"/>
    <path d="M37.810,7.632 C37.643,7.632 37.486,7.667 37.341,7.727 C37.797,7.912 38.120,8.356 38.120,8.879 C38.120,9.402 37.797,9.847 37.341,10.032 C37.486,10.092 37.643,10.127 37.810,10.127 C38.499,10.127 39.058,9.569 39.058,8.879 C39.058,8.190 38.499,7.632 37.810,7.632 Z" id="path-30" class="cls-7" fill-rule="evenodd"/>
    <path d="M55.281,5.491 C55.457,4.336 55.550,3.154 55.566,1.953 C55.566,1.953 4.408,1.953 4.408,1.953 C4.425,3.154 4.313,2.567 4.490,3.722 C4.490,3.722 55.281,5.491 55.281,5.491 Z" id="path-31" class="cls-7" fill-rule="evenodd"/>
  </g>
</svg>
