<svg xmlns="http://www.w3.org/2000/svg" xmlns:xlink="http://www.w3.org/1999/xlink" preserveAspectRatio="xMidYMid" width="60" height="46" viewBox="0 0 60 46">
  <defs>
    <style>

      .cls-3 {
        fill: #0cb04a;
      }

      .cls-6 {
        fill: #142a3b;
      }

      .cls-7 {
        fill: #020403;
        opacity: 0.35;
      }

      .cls-8 {
        fill: #fbb713;
      }

      .cls-11 {
        fill: #ff3a2f;
      }

      .cls-12 {
        fill: #020403;
        opacity: 0.25;
      }
    </style>
  </defs>
  <g id="group-63svg">
    <path d="M28.815,39.507 C28.815,39.507 32.675,39.507 32.675,39.507 C33.419,39.507 34.022,39.889 34.022,40.361 C34.022,40.832 33.419,41.214 32.675,41.214 C32.675,41.214 32.495,41.214 32.495,41.214 C31.751,41.214 31.148,41.596 31.148,42.067 C31.148,42.539 31.751,42.921 32.495,42.921 C32.495,42.921 40.791,42.921 40.791,42.921 C41.535,42.921 42.139,43.304 42.139,43.775 C42.139,44.246 41.535,44.629 40.791,44.629 C40.791,44.629 30.821,44.629 30.821,44.629 C30.821,44.629 19.864,44.629 19.864,44.629 C19.120,44.629 18.517,44.246 18.517,43.775 C18.517,43.304 19.120,42.921 19.864,42.921 C19.864,42.921 22.166,42.921 22.166,42.921 C22.910,42.921 23.514,42.539 23.514,42.067 C23.514,41.596 22.910,41.214 22.166,41.214 C22.166,41.214 11.208,41.214 11.208,41.214 C10.465,41.214 9.861,40.832 9.861,40.361 C9.861,39.889 10.465,39.507 11.208,39.507 C11.208,39.507 13.798,39.507 13.798,39.507 C13.798,39.507 28.815,39.507 28.815,39.507 Z" id="path-1" class="cls-3" fill-rule="evenodd"/>
    <path d="M6.092,31.457 C6.092,31.457 7.334,31.457 7.334,31.457 C7.574,31.457 7.769,31.667 7.769,31.926 C7.769,32.185 7.574,32.395 7.334,32.395 C7.334,32.395 7.276,32.395 7.276,32.395 C7.037,32.395 6.843,32.605 6.843,32.864 C6.843,33.123 7.037,33.333 7.276,33.333 C7.276,33.333 9.947,33.333 9.947,33.333 C10.187,33.333 10.381,33.543 10.381,33.802 C10.381,34.061 10.187,34.271 9.947,34.271 C9.947,34.271 6.737,34.271 6.737,34.271 C6.737,34.271 3.210,34.271 3.210,34.271 C2.970,34.271 2.775,34.061 2.775,33.802 C2.775,33.543 2.970,33.333 3.210,33.333 C3.210,33.333 3.951,33.333 3.951,33.333 C4.190,33.333 4.385,33.123 4.385,32.864 C4.385,32.605 4.190,32.395 3.951,32.395 C3.951,32.395 0.423,32.395 0.423,32.395 C0.184,32.395 -0.011,32.185 -0.011,31.926 C-0.011,31.667 0.184,31.457 0.423,31.457 C0.423,31.457 1.257,31.457 1.257,31.457 C1.257,31.457 6.092,31.457 6.092,31.457 Z" id="path-2" class="cls-3" fill-rule="evenodd"/>
    <path d="M52.702,45.367 C53.552,45.367 54.240,44.931 54.240,44.393 C54.240,43.854 53.552,43.418 52.702,43.418 C52.702,43.418 47.987,43.418 47.987,43.418 C47.139,43.418 46.449,43.854 46.449,44.393 C46.449,44.931 47.139,45.367 47.987,45.367 C47.987,45.367 52.702,45.367 52.702,45.367 Z" id="path-3" class="cls-3" fill-rule="evenodd"/>
    <path d="M48.094,9.516 C48.159,7.485 48.315,6.450 48.126,4.249 C47.852,1.039 47.526,0.310 43.813,0.089 C39.498,-0.168 33.460,0.212 32.326,1.193 C30.538,2.743 28.301,5.265 24.117,9.587 C24.117,9.587 24.117,9.587 24.117,9.587 " id="path-4" class="cls-6" fill-rule="evenodd"/>
    <path d="M24.153,9.550 C24.153,9.550 36.813,9.550 36.813,9.550 C36.813,9.550 48.094,9.516 48.094,9.516 C48.143,8.003 48.241,7.041 48.211,5.739 C48.211,5.739 27.797,5.739 27.797,5.739 C26.766,6.826 25.578,8.077 24.153,9.550 Z" id="path-5" class="cls-7" fill-rule="evenodd"/>
    <path d="M43.852,7.058 C43.852,8.494 42.724,9.657 41.331,9.657 C39.945,9.657 38.819,8.494 38.819,7.058 C38.819,5.622 39.945,4.457 41.331,4.457 C42.724,4.457 43.852,5.622 43.852,7.058 Z" id="path-6" class="cls-8" fill-rule="evenodd"/>
    <path d="M20.076,33.379 C20.820,34.295 20.754,34.166 21.330,34.839 C23.257,37.092 24.058,36.916 27.481,33.524 C27.481,33.524 27.481,33.524 27.481,33.524 " id="path-7" class="cls-6" fill-rule="evenodd"/>
    <path d="M14.555,19.600 C13.859,20.298 15.400,18.650 14.138,19.923 C12.203,21.874 11.072,22.772 12.855,25.178 C13.428,25.946 14.008,26.570 14.830,27.635 C14.830,27.635 14.830,27.635 14.830,27.635 " id="path-8" class="cls-6" fill-rule="evenodd"/>
    <path d="M18.087,8.667 C15.419,8.678 14.006,8.473 13.945,12.081 C13.871,16.431 13.932,25.320 14.115,29.928 C14.258,33.531 14.863,34.057 17.380,34.117 C21.619,34.214 45.539,34.763 50.315,34.030 C52.618,33.676 55.442,29.197 58.648,24.697 C60.519,22.068 60.436,20.905 58.373,18.398 C55.470,14.876 50.259,8.872 48.404,8.842 C43.667,8.774 28.944,8.627 18.087,8.667 Z" id="path-9" class="cls-11" fill-rule="evenodd"/>
    <path d="M58.373,18.398 C55.470,14.876 50.259,8.872 48.404,8.842 C48.185,8.839 47.936,8.836 47.673,8.832 C49.973,10.887 52.896,14.291 54.815,16.620 C56.879,19.127 56.962,20.289 55.091,22.918 C51.885,27.418 49.060,31.898 46.758,32.251 C42.162,32.956 19.855,32.475 14.395,32.351 C14.775,33.792 15.597,34.074 17.380,34.117 C21.619,34.214 45.539,34.763 50.315,34.030 C52.618,33.676 55.442,29.197 58.648,24.697 C60.519,22.068 60.436,20.905 58.373,18.398 Z" id="path-10" class="cls-12" fill-rule="evenodd"/>
    <path d="M55.320,21.945 C55.320,23.421 54.167,24.613 52.739,24.613 C51.315,24.613 50.162,23.421 50.162,21.945 C50.162,20.472 51.315,19.281 52.739,19.281 C54.167,19.281 55.320,20.472 55.320,21.945 Z" id="path-11" class="cls-8" fill-rule="evenodd"/>
  </g>
</svg>
