<svg xmlns="http://www.w3.org/2000/svg" xmlns:xlink="http://www.w3.org/1999/xlink" preserveAspectRatio="xMidYMid" width="60" height="49" viewBox="0 0 60 49">
  <defs>
    <style>

      .cls-3 {
        fill: #0cb04a;
      }

      .cls-5 {
        fill: #090908;
        opacity: 0.35;
      }

      .cls-7 {
        fill: #ff3a2f;
      }
    </style>
  </defs>
  <g id="group-198svg">
    <path d="M32.923,41.101 C32.923,41.101 19.846,41.101 19.846,41.101 C19.331,41.101 18.912,40.684 18.912,40.167 C18.912,40.167 18.912,0.936 18.912,0.936 C18.912,0.419 19.331,0.001 19.846,0.001 C19.846,0.001 32.923,0.001 32.923,0.001 C33.441,0.001 33.857,0.419 33.857,0.936 C33.857,0.936 33.857,40.167 33.857,40.167 C33.857,40.684 33.441,41.101 32.923,41.101 Z" id="path-1" class="cls-3" fill-rule="evenodd"/>
    <path d="M59.078,41.101 C59.078,41.101 46.001,41.101 46.001,41.101 C45.486,41.101 45.066,40.684 45.066,40.167 C45.066,40.167 45.066,0.936 45.066,0.936 C45.066,0.419 45.486,0.001 46.001,0.001 C46.001,0.001 59.078,0.001 59.078,0.001 C59.596,0.001 60.012,0.419 60.012,0.936 C60.012,0.936 60.012,40.167 60.012,40.167 C60.012,40.684 59.596,41.101 59.078,41.101 Z" id="path-2" class="cls-3" fill-rule="evenodd"/>
    <path d="M32.923,0.001 C32.923,0.001 30.569,0.001 30.569,0.001 C30.569,0.001 30.569,38.523 30.569,38.523 C30.569,39.041 30.153,39.457 29.635,39.457 C29.635,39.457 18.912,39.457 18.912,39.457 C18.912,39.457 18.912,40.167 18.912,40.167 C18.912,40.684 19.331,41.101 19.846,41.101 C19.846,41.101 32.923,41.101 32.923,41.101 C33.441,41.101 33.857,40.684 33.857,40.167 C33.857,40.167 33.857,0.936 33.857,0.936 C33.857,0.419 33.441,0.001 32.923,0.001 Z" id="path-3" class="cls-5" fill-rule="evenodd"/>
    <path d="M59.078,0.001 C59.078,0.001 56.724,0.001 56.724,0.001 C56.724,0.001 56.724,38.523 56.724,38.523 C56.724,39.041 56.308,39.457 55.790,39.457 C55.790,39.457 45.066,39.457 45.066,39.457 C45.066,39.457 45.066,40.167 45.066,40.167 C45.066,40.684 45.486,41.101 46.000,41.101 C46.000,41.101 59.078,41.101 59.078,41.101 C59.596,41.101 60.012,40.684 60.012,40.167 C60.012,40.167 60.012,0.936 60.012,0.936 C60.012,0.419 59.596,0.001 59.078,0.001 Z" id="path-4" class="cls-5" fill-rule="evenodd"/>
    <path d="M19.146,39.506 C19.146,39.506 13.603,39.506 13.603,39.506 C12.535,39.506 11.669,40.150 11.669,40.944 C11.669,41.739 12.535,42.383 13.603,42.383 C13.603,42.383 13.861,42.383 13.861,42.383 C14.931,42.383 15.797,43.028 15.797,43.822 C15.797,44.617 14.931,45.261 13.861,45.261 C13.861,45.261 1.947,45.261 1.947,45.261 C0.878,45.261 0.012,45.905 0.012,46.700 C0.012,47.495 0.878,48.139 1.947,48.139 C1.947,48.139 16.266,48.139 16.266,48.139 C16.266,48.139 45.532,48.139 45.532,48.139 C46.601,48.139 47.467,47.495 47.467,46.700 C47.467,45.905 46.601,45.261 45.532,45.261 C45.532,45.261 42.226,45.261 42.226,45.261 C41.157,45.261 40.291,44.617 40.291,43.822 C40.291,43.028 41.157,42.383 42.226,42.383 C42.226,42.383 55.213,42.383 55.213,42.383 C56.281,42.383 57.147,41.739 57.147,40.944 C57.147,40.150 56.281,39.506 55.213,39.506 C55.213,39.506 54.243,39.506 54.243,39.506 C54.243,39.506 19.146,39.506 19.146,39.506 Z" id="path-5" class="cls-7" fill-rule="evenodd"/>
    <path d="M53.217,48.268 C52.464,48.268 51.853,47.813 51.853,47.251 C51.853,46.688 52.464,46.233 53.217,46.233 C53.217,46.233 57.394,46.233 57.394,46.233 C58.146,46.233 58.757,46.688 58.757,47.251 C58.757,47.813 58.146,48.268 57.394,48.268 C57.394,48.268 53.217,48.268 53.217,48.268 Z" id="path-6" class="cls-7" fill-rule="evenodd"/>
    <path d="M45.845,33.335 C45.845,33.335 47.331,33.335 47.331,33.335 C47.617,33.335 47.850,33.509 47.850,33.726 C47.850,33.941 47.617,34.117 47.331,34.117 C47.331,34.117 47.262,34.117 47.262,34.117 C46.976,34.117 46.743,34.292 46.743,34.508 C46.743,34.723 46.976,34.898 47.262,34.898 C47.262,34.898 50.457,34.898 50.457,34.898 C50.744,34.898 50.977,35.073 50.977,35.289 C50.977,35.505 50.744,35.679 50.457,35.679 C50.457,35.679 46.617,35.679 46.617,35.679 C46.617,35.679 38.767,35.679 38.767,35.679 C38.481,35.679 38.249,35.505 38.249,35.289 C38.249,35.073 38.481,34.898 38.767,34.898 C38.767,34.898 39.654,34.898 39.654,34.898 C39.941,34.898 40.174,34.723 40.174,34.508 C40.174,34.292 39.941,34.117 39.654,34.117 C39.654,34.117 35.434,34.117 35.434,34.117 C35.147,34.117 34.915,33.941 34.915,33.726 C34.915,33.509 35.147,33.335 35.434,33.335 C35.434,33.335 36.432,33.335 36.432,33.335 C36.432,33.335 45.845,33.335 45.845,33.335 Z" id="path-7" class="cls-7" fill-rule="evenodd"/>
  </g>
</svg>
