<svg xmlns="http://www.w3.org/2000/svg" xmlns:xlink="http://www.w3.org/1999/xlink" preserveAspectRatio="xMidYMid" width="61" height="52" viewBox="0 0 61 52">
  <defs>
    <style>

      .cls-3 {
        fill: #ff3a2f;
      }

      .cls-6 {
        fill: #fbb713;
      }

      .cls-8 {
        fill: #010101;
        opacity: 0.25;
      }

      .cls-9 {
        fill: #010101;
        opacity: 0.35;
      }

      .cls-10 {
        fill: #ffffff;
      }

      .cls-13 {
        fill: #142a3b;
      }
    </style>
  </defs>
  <g id="group-267svg">
    <path d="M16.424,43.173 C16.424,43.173 11.828,43.173 11.828,43.173 C10.941,43.173 10.223,43.716 10.223,44.387 C10.223,45.058 10.941,45.601 11.828,45.601 C11.828,45.601 12.041,45.601 12.041,45.601 C12.928,45.601 13.646,46.145 13.646,46.816 C13.646,47.486 12.928,48.030 12.041,48.030 C12.041,48.030 2.161,48.030 2.161,48.030 C1.274,48.030 0.556,48.574 0.556,49.245 C0.556,49.916 1.274,50.460 2.161,50.460 C2.161,50.460 14.035,50.460 14.035,50.460 C14.035,50.460 38.306,50.460 38.306,50.460 C39.192,50.460 39.910,49.916 39.910,49.245 C39.910,48.574 39.192,48.030 38.306,48.030 C38.306,48.030 35.563,48.030 35.563,48.030 C34.677,48.030 33.958,47.486 33.958,46.816 C33.958,46.145 34.677,45.601 35.563,45.601 C35.563,45.601 46.333,45.601 46.333,45.601 C47.220,45.601 47.938,45.058 47.938,44.387 C47.938,43.716 47.220,43.173 46.333,43.173 C46.333,43.173 45.530,43.173 45.530,43.173 C45.530,43.173 16.424,43.173 16.424,43.173 Z" id="path-1" class="cls-3" fill-rule="evenodd"/>
    <path d="M44.931,50.785 C44.187,50.785 43.585,50.202 43.585,49.483 C43.585,48.764 44.187,48.182 44.931,48.182 C44.931,48.182 49.053,48.182 49.053,48.182 C49.796,48.182 50.398,48.764 50.398,49.483 C50.398,50.202 49.796,50.785 49.053,50.785 C49.053,50.785 44.931,50.785 44.931,50.785 Z" id="path-2" class="cls-3" fill-rule="evenodd"/>
    <path d="M9.649,39.407 C9.649,39.407 10.960,39.407 10.960,39.407 C11.212,39.407 11.417,39.183 11.417,38.906 C11.417,38.629 11.212,38.404 10.960,38.404 C10.960,38.404 10.899,38.404 10.899,38.404 C10.646,38.404 10.441,38.179 10.441,37.902 C10.441,37.625 10.646,37.400 10.899,37.400 C10.899,37.400 13.717,37.400 13.717,37.400 C13.970,37.400 14.174,37.175 14.174,36.898 C14.174,36.621 13.970,36.396 13.717,36.396 C13.717,36.396 10.330,36.396 10.330,36.396 C10.330,36.396 3.408,36.396 3.408,36.396 C3.155,36.396 2.951,36.621 2.951,36.898 C2.951,37.175 3.155,37.400 3.408,37.400 C3.408,37.400 4.190,37.400 4.190,37.400 C4.443,37.400 4.648,37.625 4.648,37.902 C4.648,38.179 4.443,38.404 4.190,38.404 C4.190,38.404 0.468,38.404 0.468,38.404 C0.215,38.404 0.010,38.629 0.010,38.906 C0.010,39.183 0.215,39.407 0.468,39.407 C0.468,39.407 1.348,39.407 1.348,39.407 C1.348,39.407 9.649,39.407 9.649,39.407 Z" id="path-3" class="cls-3" fill-rule="evenodd"/>
    <path d="M60.010,35.544 C60.010,36.817 58.995,37.848 57.742,37.848 C57.742,37.848 46.398,37.848 46.398,37.848 C45.145,37.848 44.129,36.817 44.129,35.544 C44.129,35.544 44.129,19.230 44.129,19.230 C44.129,17.958 45.145,16.928 46.398,16.928 C46.398,16.928 57.742,16.928 57.742,16.928 C58.995,16.928 60.010,17.958 60.010,19.230 C60.010,19.230 60.010,35.544 60.010,35.544 Z" id="path-4" class="cls-6" fill-rule="evenodd"/>
    <path d="M52.069,9.627 C48.099,9.627 44.879,12.895 44.879,16.928 C44.879,16.928 59.260,16.928 59.260,16.928 C59.260,12.895 56.041,9.627 52.069,9.627 Z" id="path-5" class="cls-3" fill-rule="evenodd"/>
    <path d="M46.398,37.848 C46.398,37.848 47.665,37.848 47.665,37.848 C47.659,37.784 47.645,37.720 47.645,37.654 C47.645,37.654 47.645,21.341 47.645,21.341 C47.645,20.068 48.662,19.037 49.915,19.037 C49.915,19.037 59.991,19.037 59.991,19.037 C59.893,17.857 58.929,16.928 57.742,16.928 C57.742,16.928 46.398,16.928 46.398,16.928 C45.145,16.928 44.129,17.958 44.129,19.230 C44.129,19.230 44.129,35.544 44.129,35.544 C44.129,36.817 45.145,37.848 46.398,37.848 Z" id="path-6" class="cls-8" fill-rule="evenodd"/>
    <path d="M47.829,16.928 C48.475,13.569 51.386,11.034 54.883,11.034 C55.469,11.034 56.037,11.113 56.582,11.248 C55.348,10.236 53.779,9.627 52.069,9.627 C48.099,9.627 44.879,12.895 44.879,16.928 C44.879,16.928 47.829,16.928 47.829,16.928 Z" id="path-7" class="cls-9" fill-rule="evenodd"/>
    <path d="M57.616,15.846 C57.273,15.846 56.939,15.669 56.752,15.352 C56.420,14.787 55.943,14.313 55.371,13.981 C54.893,13.704 54.730,13.091 55.008,12.614 C55.286,12.137 55.897,11.974 56.374,12.251 C57.244,12.756 57.971,13.477 58.477,14.339 C58.757,14.815 58.598,15.428 58.121,15.708 C57.962,15.801 57.788,15.846 57.616,15.846 Z" id="path-8" class="cls-10" fill-rule="evenodd"/>
    <path d="M49.394,34.176 C48.945,34.176 48.582,33.813 48.582,33.364 C48.582,33.364 48.582,20.720 48.582,20.720 C48.582,20.271 48.945,19.908 49.394,19.908 C49.843,19.908 50.206,20.271 50.206,20.720 C50.206,20.720 50.206,33.364 50.206,33.364 C50.206,33.813 49.843,34.176 49.394,34.176 Z" id="path-9" class="cls-9" fill-rule="evenodd"/>
    <path d="M55.112,34.176 C54.664,34.176 54.300,33.813 54.300,33.364 C54.300,33.364 54.300,20.720 54.300,20.720 C54.300,20.271 54.664,19.908 55.112,19.908 C55.561,19.908 55.924,20.271 55.924,20.720 C55.924,20.720 55.924,33.364 55.924,33.364 C55.924,33.813 55.561,34.176 55.112,34.176 Z" id="path-10" class="cls-9" fill-rule="evenodd"/>
    <path d="M59.606,44.767 C59.606,44.767 15.064,44.767 15.064,44.767 C15.064,44.767 15.064,40.779 15.064,40.779 C15.064,40.779 59.606,40.779 59.606,40.779 C59.606,40.779 59.606,44.767 59.606,44.767 Z" id="path-11" class="cls-13" fill-rule="evenodd"/>
    <path d="M38.624,44.497 C38.624,44.497 36.046,44.497 36.046,44.497 C36.046,44.497 36.046,2.979 36.046,2.979 C36.046,2.979 38.624,2.979 38.624,2.979 C38.624,2.979 38.624,44.497 38.624,44.497 Z" id="path-12" class="cls-13" fill-rule="evenodd"/>
    <path d="M41.732,4.409 C41.732,6.838 39.763,8.806 37.335,8.806 C34.907,8.806 32.938,6.838 32.938,4.409 C32.938,1.981 34.907,0.013 37.335,0.013 C39.763,0.013 41.732,1.981 41.732,4.409 Z" id="path-13" class="cls-13" fill-rule="evenodd"/>
    <path d="M37.335,0.013 C37.055,0.013 36.783,0.045 36.518,0.095 C38.555,0.479 40.097,2.262 40.097,4.409 C40.097,6.558 38.555,8.340 36.518,8.724 C36.783,8.774 37.055,8.806 37.335,8.806 C39.763,8.806 41.732,6.838 41.732,4.409 C41.732,1.981 39.763,0.013 37.335,0.013 Z" id="path-14" class="cls-9" fill-rule="evenodd"/>
    <path d="M27.474,10.018 C27.474,10.018 27.474,3.529 27.474,3.529 C27.474,3.529 23.254,3.529 23.254,3.529 C23.254,3.529 23.254,10.018 23.254,10.018 C23.254,10.589 23.095,11.148 22.795,11.633 C22.795,11.633 18.351,18.823 18.351,18.823 C18.051,19.308 17.892,19.867 17.892,20.437 C17.892,20.437 17.892,34.777 17.892,34.777 C17.892,36.473 19.267,37.848 20.963,37.848 C20.963,37.848 29.765,37.848 29.765,37.848 C31.461,37.848 32.836,36.473 32.836,34.777 C32.836,34.777 32.836,20.437 32.836,20.437 C32.836,19.867 32.677,19.308 32.377,18.823 C32.377,18.823 27.933,11.633 27.933,11.633 C27.633,11.148 27.474,10.589 27.474,10.018 Z" id="path-15" class="cls-3" fill-rule="evenodd"/>
    <path d="M32.377,18.823 C32.377,18.823 27.933,11.633 27.933,11.633 C27.633,11.148 27.474,10.589 27.474,10.018 C27.474,10.018 27.474,3.529 27.474,3.529 C27.474,3.529 25.840,3.529 25.840,3.529 C25.840,3.529 25.840,9.201 25.840,9.201 C25.840,9.771 25.999,10.331 26.298,10.816 C26.298,10.816 30.743,18.006 30.743,18.006 C31.043,18.490 31.202,19.049 31.202,19.620 C31.202,19.620 31.202,33.961 31.202,33.961 C31.202,35.657 29.827,37.031 28.131,37.031 C28.131,37.031 19.329,37.031 19.329,37.031 C19.158,37.031 18.994,37.008 18.830,36.981 C19.383,37.516 20.133,37.848 20.963,37.848 C20.963,37.848 29.765,37.848 29.765,37.848 C31.461,37.848 32.836,36.473 32.836,34.778 C32.836,34.778 32.836,20.437 32.836,20.437 C32.836,19.867 32.677,19.308 32.377,18.823 Z" id="path-16" class="cls-9" fill-rule="evenodd"/>
    <path d="M28.792,3.881 C28.792,3.881 21.935,3.881 21.935,3.881 C21.935,3.881 21.935,0.248 21.935,0.248 C21.935,0.248 28.792,0.248 28.792,0.248 C28.792,0.248 28.792,3.881 28.792,3.881 Z" id="path-17" class="cls-13" fill-rule="evenodd"/>
    <path d="M25.812,0.248 C25.812,0.248 25.812,3.881 25.812,3.881 C25.812,3.881 28.344,3.881 28.344,3.881 C28.344,3.881 28.344,0.248 28.344,0.248 C28.344,0.248 25.812,0.248 25.812,0.248 Z" id="path-18" class="cls-9" fill-rule="evenodd"/>
    <path d="M32.836,31.545 C32.836,31.545 22.126,31.545 22.126,31.545 C22.126,31.545 22.126,23.738 22.126,23.738 C22.126,23.738 32.836,23.738 32.836,23.738 C32.836,23.738 32.836,31.545 32.836,31.545 Z" id="path-19" class="cls-10" fill-rule="evenodd"/>
  </g>
</svg>
