<svg xmlns="http://www.w3.org/2000/svg" xmlns:xlink="http://www.w3.org/1999/xlink" preserveAspectRatio="xMidYMid" width="61" height="58" viewBox="0 0 61 58">
  <defs>
    <style>

      .cls-3 {
        fill: #142a3b;
      }

      .cls-4 {
        fill: #fbb713;
      }

      .cls-5 {
        fill: #020403;
        opacity: 0.3;
      }

      .cls-8 {
        fill: #ededed;
      }

      .cls-22 {
        fill: #2476ff;
      }
    </style>
  </defs>
  <g id="group-181svg">
    <path d="M39.246,50.880 C39.246,50.880 7.653,50.880 7.653,50.880 C7.653,50.880 17.832,8.367 17.832,8.367 C19.014,6.468 21.113,5.245 23.449,5.245 C23.449,5.245 23.452,5.245 23.452,5.245 C25.801,5.245 27.910,6.482 29.088,8.400 C29.088,8.400 39.246,50.880 39.246,50.880 Z" id="path-1" class="cls-3" fill-rule="evenodd"/>
    <path d="M39.246,50.880 C39.246,50.880 7.653,50.880 7.653,50.880 C7.653,50.880 9.508,43.133 9.508,43.133 C9.508,43.133 37.362,43.133 37.362,43.133 C37.362,43.133 39.246,50.880 39.246,50.880 Z" id="path-2" class="cls-4" fill-rule="evenodd"/>
    <path d="M29.088,8.400 C27.910,6.482 25.801,5.245 23.452,5.245 C23.452,5.245 23.449,5.245 23.449,5.245 C23.449,5.245 30.968,36.682 30.968,36.682 C32.057,41.238 28.604,45.614 23.921,45.614 C23.921,45.614 8.914,45.614 8.914,45.614 C8.914,45.614 7.653,50.880 7.653,50.880 C7.653,50.880 39.247,50.880 39.247,50.880 C39.247,50.880 29.088,8.400 29.088,8.400 Z" id="path-3" class="cls-5" fill-rule="evenodd"/>
    <path d="M29.086,22.584 C27.932,21.640 26.248,21.723 25.193,22.778 C25.193,22.778 25.187,22.784 25.187,22.784 C24.132,23.840 24.048,25.522 24.993,26.677 C24.993,26.677 32.466,35.810 32.466,35.810 C33.554,37.141 35.553,37.241 36.768,36.025 C36.768,36.025 38.434,34.359 38.434,34.359 C39.649,33.145 39.550,31.145 38.220,30.057 C38.220,30.057 29.086,22.584 29.086,22.584 Z" id="path-4" class="cls-5" fill-rule="evenodd"/>
    <path d="M21.754,22.778 C20.699,21.723 19.016,21.640 17.861,22.584 C17.861,22.584 8.728,30.057 8.728,30.057 C7.398,31.145 7.298,33.145 8.513,34.359 C8.513,34.359 10.179,36.025 10.179,36.025 C11.395,37.241 13.393,37.141 14.481,35.810 C14.481,35.810 21.954,26.677 21.954,26.677 C22.899,25.522 22.815,23.840 21.760,22.784 C21.760,22.784 21.754,22.778 21.754,22.778 Z" id="path-5" class="cls-5" fill-rule="evenodd"/>
    <path d="M21.589,17.548 C21.333,17.548 21.078,17.450 20.882,17.255 C20.882,17.255 18.417,14.790 18.417,14.790 C18.027,14.399 18.027,13.766 18.417,13.376 C18.808,12.985 19.441,12.985 19.831,13.376 C19.831,13.376 22.296,15.840 22.296,15.840 C22.687,16.231 22.687,16.864 22.296,17.255 C22.101,17.450 21.845,17.548 21.589,17.548 Z" id="path-6" class="cls-8" fill-rule="evenodd"/>
    <path d="M27.823,23.781 C27.567,23.781 27.311,23.683 27.116,23.488 C27.116,23.488 24.604,20.977 24.604,20.977 C24.213,20.586 24.213,19.953 24.604,19.562 C24.995,19.172 25.627,19.172 26.018,19.562 C26.018,19.562 28.530,22.074 28.530,22.074 C28.921,22.465 28.921,23.097 28.530,23.488 C28.335,23.683 28.079,23.781 27.823,23.781 Z" id="path-7" class="cls-8" fill-rule="evenodd"/>
    <path d="M25.311,17.548 C25.055,17.548 24.799,17.450 24.603,17.255 C24.213,16.864 24.213,16.232 24.603,15.841 C24.603,15.841 27.094,13.351 27.094,13.351 C27.485,12.960 28.118,12.960 28.508,13.351 C28.899,13.741 28.899,14.374 28.508,14.764 C28.508,14.764 26.017,17.255 26.017,17.255 C25.822,17.450 25.566,17.548 25.311,17.548 Z" id="path-8" class="cls-8" fill-rule="evenodd"/>
    <path d="M19.096,23.763 C18.840,23.763 18.584,23.665 18.389,23.470 C17.998,23.080 17.998,22.447 18.389,22.056 C18.389,22.056 20.882,19.561 20.882,19.561 C21.273,19.171 21.906,19.171 22.296,19.561 C22.687,19.952 22.687,20.585 22.296,20.976 C22.296,20.976 19.803,23.470 19.803,23.470 C19.607,23.665 19.352,23.763 19.096,23.763 Z" id="path-9" class="cls-8" fill-rule="evenodd"/>
    <path d="M26.083,18.408 C26.083,19.862 24.904,21.041 23.450,21.041 C21.996,21.041 20.817,19.862 20.817,18.408 C20.817,16.955 21.996,15.776 23.450,15.776 C24.904,15.776 26.083,16.955 26.083,18.408 Z" id="path-10" class="cls-4" fill-rule="evenodd"/>
    <path d="M11.849,1.054 C10.761,-0.277 8.762,-0.376 7.546,0.839 C7.546,0.839 5.880,2.505 5.880,2.505 C4.665,3.721 4.765,5.719 6.095,6.808 C6.095,6.808 15.228,14.280 15.228,14.280 C16.383,15.224 18.066,15.141 19.121,14.086 C19.121,14.086 19.127,14.080 19.127,14.080 C20.183,13.025 20.267,11.341 19.321,10.186 C19.321,10.186 11.849,1.054 11.849,1.054 Z" id="path-11" class="cls-4" fill-rule="evenodd"/>
    <path d="M5.880,4.260 C5.880,4.260 7.546,2.594 7.546,2.594 C8.762,1.379 10.761,1.478 11.849,2.808 C11.849,2.808 19.321,11.942 19.321,11.942 C19.557,12.229 19.728,12.550 19.837,12.886 C20.117,11.980 19.958,10.964 19.321,10.186 C19.321,10.186 11.849,1.054 11.849,1.054 C10.761,-0.277 8.762,-0.376 7.546,0.839 C7.546,0.839 5.880,2.505 5.880,2.505 C5.081,3.304 4.862,4.440 5.177,5.435 C5.312,5.008 5.539,4.601 5.880,4.260 Z" id="path-12" class="cls-5" fill-rule="evenodd"/>
    <path d="M27.826,14.086 C28.881,15.141 30.564,15.224 31.719,14.280 C31.719,14.280 40.853,6.808 40.853,6.808 C42.183,5.719 42.282,3.721 41.067,2.505 C41.067,2.505 39.401,0.839 39.401,0.839 C38.186,-0.376 36.187,-0.277 35.099,1.054 C35.099,1.054 27.626,10.186 27.626,10.186 C26.681,11.341 26.765,13.025 27.820,14.080 C27.820,14.080 27.826,14.086 27.826,14.086 Z" id="path-13" class="cls-4" fill-rule="evenodd"/>
    <path d="M41.067,2.505 C41.067,2.505 39.401,0.839 39.401,0.839 C38.727,0.165 37.814,-0.090 36.947,0.030 C37.522,0.126 38.076,0.391 38.523,0.839 C38.523,0.839 40.189,2.505 40.189,2.505 C41.405,3.721 41.305,5.719 39.975,6.808 C39.975,6.808 30.842,14.280 30.842,14.280 C30.431,14.616 29.952,14.816 29.459,14.894 C30.243,15.009 31.065,14.815 31.719,14.280 C31.719,14.280 40.853,6.808 40.853,6.808 C42.183,5.719 42.282,3.721 41.067,2.505 Z" id="path-14" class="cls-5" fill-rule="evenodd"/>
    <path d="M19.121,22.778 C18.066,21.723 16.383,21.640 15.228,22.584 C15.228,22.584 6.095,30.057 6.095,30.057 C4.765,31.145 4.665,33.145 5.880,34.359 C5.880,34.359 7.546,36.025 7.546,36.025 C8.762,37.241 10.761,37.141 11.849,35.810 C11.849,35.810 19.321,26.677 19.321,26.677 C20.267,25.522 20.183,23.840 19.127,22.784 C19.127,22.784 19.121,22.778 19.121,22.778 Z" id="path-15" class="cls-4" fill-rule="evenodd"/>
    <path d="M19.127,22.784 C19.127,22.784 19.121,22.778 19.121,22.778 C18.329,21.986 17.183,21.742 16.171,22.069 C16.609,22.205 17.022,22.434 17.367,22.778 C17.367,22.778 17.372,22.784 17.372,22.784 C18.427,23.840 18.511,25.522 17.566,26.677 C17.566,26.677 10.094,35.811 10.094,35.811 C9.721,36.266 9.239,36.565 8.722,36.729 C9.816,37.076 11.066,36.767 11.849,35.811 C11.849,35.811 19.321,26.677 19.321,26.677 C20.267,25.522 20.183,23.840 19.127,22.784 Z" id="path-16" class="cls-5" fill-rule="evenodd"/>
    <path d="M31.719,22.584 C30.564,21.640 28.881,21.723 27.826,22.778 C27.826,22.778 27.820,22.784 27.820,22.784 C26.765,23.840 26.681,25.522 27.626,26.677 C27.626,26.677 35.099,35.810 35.099,35.810 C36.187,37.141 38.186,37.241 39.401,36.025 C39.401,36.025 41.067,34.359 41.067,34.359 C42.282,33.145 42.183,31.145 40.853,30.057 C40.853,30.057 31.719,22.584 31.719,22.584 Z" id="path-17" class="cls-4" fill-rule="evenodd"/>
    <path d="M40.853,30.056 C40.853,30.056 31.719,22.585 31.719,22.585 C30.564,21.640 28.881,21.723 27.826,22.778 C27.826,22.778 27.820,22.784 27.820,22.784 C27.670,22.934 27.545,23.099 27.435,23.271 C28.474,22.603 29.851,22.651 30.842,23.462 C30.842,23.462 39.975,30.934 39.975,30.934 C41.305,32.023 41.405,34.021 40.189,35.237 C40.189,35.237 41.067,34.359 41.067,34.359 C42.282,33.143 42.183,31.145 40.853,30.056 Z" id="path-18" class="cls-5" fill-rule="evenodd"/>
    <path d="M45.390,52.379 C45.390,52.379 1.510,52.379 1.510,52.379 C0.682,52.379 0.010,51.708 0.010,50.879 C0.010,50.051 0.682,49.379 1.510,49.379 C1.510,49.379 45.390,49.379 45.390,49.379 C46.219,49.379 46.890,50.051 46.890,50.879 C46.890,51.708 46.219,52.379 45.390,52.379 Z" id="path-19" class="cls-3" fill-rule="evenodd"/>
    <path d="M49.588,28.102 C50.472,28.102 51.189,27.781 51.189,27.384 C51.189,26.987 50.472,26.666 49.588,26.666 C49.588,26.666 44.684,26.666 44.684,26.666 C43.800,26.666 43.083,26.987 43.083,27.384 C43.083,27.781 43.800,28.102 44.684,28.102 C44.684,28.102 49.588,28.102 49.588,28.102 Z" id="path-20" class="cls-22" fill-rule="evenodd"/>
    <path d="M48.985,19.913 C48.985,19.913 50.829,19.913 50.829,19.913 C51.185,19.913 51.473,20.073 51.473,20.270 C51.473,20.468 51.185,20.627 50.829,20.627 C50.829,20.627 50.743,20.627 50.743,20.627 C50.388,20.627 50.100,20.787 50.100,20.984 C50.100,21.181 50.388,21.342 50.743,21.342 C50.743,21.342 54.706,21.342 54.706,21.342 C55.062,21.342 55.350,21.501 55.350,21.699 C55.350,21.896 55.062,22.056 54.706,22.056 C54.706,22.056 49.944,22.056 49.944,22.056 C49.944,22.056 40.208,22.056 40.208,22.056 C39.853,22.056 39.564,21.896 39.564,21.699 C39.564,21.501 39.853,21.342 40.208,21.342 C40.208,21.342 41.308,21.342 41.308,21.342 C41.664,21.342 41.952,21.181 41.952,20.984 C41.952,20.787 41.664,20.627 41.308,20.627 C41.308,20.627 36.073,20.627 36.073,20.627 C35.718,20.627 35.430,20.468 35.430,20.270 C35.430,20.073 35.718,19.913 36.073,19.913 C36.073,19.913 37.310,19.913 37.310,19.913 C37.310,19.913 48.985,19.913 48.985,19.913 Z" id="path-21" class="cls-22" fill-rule="evenodd"/>
    <path d="M24.083,51.517 C24.083,51.517 19.560,51.517 19.560,51.517 C18.688,51.517 17.981,51.975 17.981,52.540 C17.981,53.104 18.688,53.562 19.560,53.562 C19.560,53.562 19.770,53.562 19.770,53.562 C20.643,53.562 21.350,54.020 21.350,54.585 C21.350,55.149 20.643,55.608 19.770,55.608 C19.770,55.608 12.501,55.608 12.501,55.608 C11.629,55.608 10.922,56.065 10.922,56.631 C10.922,57.195 11.629,57.653 12.501,57.653 C12.501,57.653 21.732,57.653 21.732,57.653 C21.732,57.653 45.616,57.653 45.616,57.653 C46.488,57.653 47.195,57.195 47.195,56.631 C47.195,56.065 46.488,55.608 45.616,55.608 C45.616,55.608 42.917,55.608 42.917,55.608 C42.045,55.608 41.338,55.149 41.338,54.585 C41.338,54.020 42.045,53.562 42.917,53.562 C42.917,53.562 53.517,53.562 53.517,53.562 C54.389,53.562 55.096,53.104 55.096,52.540 C55.096,51.975 54.389,51.517 53.517,51.517 C53.517,51.517 52.726,51.517 52.726,51.517 C52.726,51.517 24.083,51.517 24.083,51.517 Z" id="path-22" class="cls-22" fill-rule="evenodd"/>
    <path d="M54.629,57.927 C53.898,57.927 53.306,57.436 53.306,56.831 C53.306,56.226 53.898,55.735 54.629,55.735 C54.629,55.735 58.686,55.735 58.686,55.735 C59.417,55.735 60.010,56.226 60.010,56.831 C60.010,57.436 59.417,57.927 58.686,57.927 C58.686,57.927 54.629,57.927 54.629,57.927 Z" id="path-23" class="cls-22" fill-rule="evenodd"/>
  </g>
</svg>
