<svg xmlns="http://www.w3.org/2000/svg" xmlns:xlink="http://www.w3.org/1999/xlink" preserveAspectRatio="xMidYMid" width="56" height="61" viewBox="0 0 56 61">
  <defs>
    <style>

      .cls-3 {
        fill: #0cb04a;
      }

      .cls-4 {
        fill: #010101;
        opacity: 0.35;
      }

      .cls-6 {
        fill: #010101;
        opacity: 0.25;
      }

      .cls-7 {
        fill: #142a3b;
      }

      .cls-8 {
        fill: #fbb713;
      }

      .cls-9 {
        fill: #ffffff;
      }

      .cls-10 {
        fill: #010101;
        opacity: 0.15;
      }

      .cls-11 {
        fill: #ff3a2f;
      }
    </style>
  </defs>
  <g id="group-78svg">
    <path d="M24.103,20.227 C26.829,21.750 31.796,18.049 31.796,18.049 C31.796,18.049 32.344,11.878 29.618,10.355 C26.892,8.833 19.066,10.937 19.066,10.937 C19.066,10.937 21.377,18.704 24.103,20.227 Z" id="path-1" class="cls-3" fill-rule="evenodd"/>
    <path d="M29.618,10.355 C28.206,9.567 25.430,9.752 23.077,10.114 C22.765,10.883 22.564,11.614 22.564,12.252 C22.564,16.007 29.018,19.080 29.650,19.371 C30.894,18.719 31.796,18.049 31.796,18.049 C31.796,18.049 32.344,11.879 29.618,10.355 Z" id="path-2" class="cls-4" fill-rule="evenodd"/>
    <path d="M39.750,11.289 C39.750,15.237 32.601,18.437 32.601,18.437 C32.601,18.437 25.453,15.237 25.453,11.289 C25.453,7.341 32.601,0.002 32.601,0.002 C32.601,0.002 39.750,7.341 39.750,11.289 Z" id="path-3" class="cls-3" fill-rule="evenodd"/>
    <path d="M32.601,0.002 C32.601,0.002 32.192,0.423 31.579,1.105 C33.697,3.573 36.861,7.697 36.861,10.327 C36.861,13.586 31.997,16.330 30.298,17.191 C31.573,17.976 32.601,18.437 32.601,18.437 C32.601,18.437 39.750,15.237 39.750,11.289 C39.750,7.341 32.601,0.002 32.601,0.002 Z" id="path-4" class="cls-6" fill-rule="evenodd"/>
    <path d="M32.786,21.194 C32.731,21.194 32.675,21.189 32.619,21.179 C32.074,21.088 31.707,20.571 31.799,20.027 C33.057,12.577 31.647,6.955 31.634,6.899 C31.496,6.364 31.817,5.819 32.352,5.681 C32.884,5.544 33.432,5.863 33.569,6.398 C33.633,6.642 35.104,12.465 33.771,20.360 C33.688,20.849 33.266,21.194 32.786,21.194 Z" id="path-5" class="cls-7" fill-rule="evenodd"/>
    <path d="M49.119,35.172 C49.119,44.995 41.156,52.958 31.334,52.958 C21.512,52.958 13.549,44.995 13.549,35.172 C13.549,25.350 21.512,17.387 31.334,17.387 C41.156,17.387 49.119,25.350 49.119,35.172 Z" id="path-6" class="cls-8" fill-rule="evenodd"/>
    <path d="M17.079,36.173 C16.526,36.173 16.079,35.725 16.079,35.172 C16.079,26.761 22.923,19.917 31.334,19.917 C31.887,19.917 32.334,20.366 32.334,20.917 C32.334,21.470 31.887,21.917 31.334,21.917 C24.025,21.917 18.079,27.863 18.079,35.172 C18.079,35.725 17.632,36.173 17.079,36.173 Z" id="path-7" class="cls-9" fill-rule="evenodd"/>
    <path d="M34.798,17.730 C39.378,20.948 42.380,26.262 42.380,32.284 C42.380,42.107 34.417,50.069 24.594,50.069 C23.408,50.069 22.252,49.948 21.131,49.726 C24.021,51.757 27.534,52.958 31.334,52.958 C41.156,52.958 49.119,44.995 49.119,35.172 C49.119,26.536 42.961,19.342 34.798,17.730 Z" id="path-8" class="cls-10" fill-rule="evenodd"/>
    <path d="M36.507,50.484 C36.507,50.484 41.837,50.484 41.837,50.484 C42.865,50.484 43.698,51.192 43.698,52.064 C43.698,52.936 42.865,53.643 41.837,53.643 C41.837,53.643 41.589,53.643 41.589,53.643 C40.561,53.643 39.728,54.350 39.728,55.223 C39.728,56.095 40.561,56.802 41.589,56.802 C41.589,56.802 53.048,56.802 53.048,56.802 C54.075,56.802 54.908,57.508 54.908,58.381 C54.908,59.253 54.075,59.960 53.048,59.960 C53.048,59.960 39.277,59.960 39.277,59.960 C39.277,59.960 14.515,59.960 14.515,59.960 C13.487,59.960 12.654,59.253 12.654,58.381 C12.654,57.508 13.487,56.802 14.515,56.802 C14.515,56.802 17.694,56.802 17.694,56.802 C18.723,56.802 19.556,56.095 19.556,55.223 C19.556,54.350 18.723,53.643 17.694,53.643 C17.694,53.643 2.560,53.643 2.560,53.643 C1.532,53.643 0.699,52.936 0.699,52.064 C0.699,51.192 1.532,50.484 2.560,50.484 C2.560,50.484 15.766,50.484 15.766,50.484 C15.766,50.484 36.507,50.484 36.507,50.484 Z" id="path-9" class="cls-11" fill-rule="evenodd"/>
    <path d="M6.760,60.002 C7.680,60.002 8.425,59.529 8.425,58.946 C8.425,58.364 7.680,57.891 6.760,57.891 C6.760,57.891 1.656,57.891 1.656,57.891 C0.736,57.891 -0.010,58.364 -0.010,58.946 C-0.010,59.529 0.736,60.002 1.656,60.002 C1.656,60.002 6.760,60.002 6.760,60.002 Z" id="path-10" class="cls-11" fill-rule="evenodd"/>
  </g>
</svg>
