<svg xmlns="http://www.w3.org/2000/svg" xmlns:xlink="http://www.w3.org/1999/xlink" preserveAspectRatio="xMidYMid" width="61" height="60" viewBox="0 0 61 60">
  <defs>
    <style>

      .cls-3 {
        fill: #142a3b;
      }

      .cls-6 {
        fill: #020403;
        opacity: 0.35;
      }

      .cls-7 {
        fill: #fccb56;
      }

      .cls-8 {
        fill: #ffffff;
      }

      .cls-11 {
        fill: #fbb713;
      }
    </style>
  </defs>
  <g id="group-130svg">
    <path d="M17.214,52.966 C17.214,52.966 12.230,52.966 12.230,52.966 C11.270,52.966 10.491,53.412 10.491,53.963 C10.491,54.513 11.270,54.959 12.230,54.959 C12.230,54.959 12.463,54.959 12.463,54.959 C13.423,54.959 14.203,55.405 14.203,55.955 C14.203,56.505 13.423,56.951 12.463,56.951 C12.463,56.951 1.750,56.951 1.750,56.951 C0.789,56.951 0.010,57.397 0.010,57.948 C0.010,58.498 0.789,58.943 1.750,58.943 C1.750,58.943 14.624,58.943 14.624,58.943 C14.624,58.943 40.937,58.943 40.937,58.943 C41.898,58.943 42.677,58.498 42.677,57.948 C42.677,57.397 41.898,56.951 40.937,56.951 C40.937,56.951 37.965,56.951 37.965,56.951 C37.004,56.951 36.225,56.505 36.225,55.955 C36.225,55.405 37.004,54.959 37.965,54.959 C37.965,54.959 49.642,54.959 49.642,54.959 C50.603,54.959 51.381,54.513 51.381,53.963 C51.381,53.412 50.603,52.966 49.642,52.966 C49.642,52.966 48.770,52.966 48.770,52.966 C48.770,52.966 17.214,52.966 17.214,52.966 Z" id="path-1" class="cls-3" fill-rule="evenodd"/>
    <path d="M50.868,59.210 C50.062,59.210 49.410,58.733 49.410,58.143 C49.410,57.553 50.062,57.075 50.868,57.075 C50.868,57.075 55.338,57.075 55.338,57.075 C56.143,57.075 56.796,57.553 56.796,58.143 C56.796,58.733 56.143,59.210 55.338,59.210 C55.338,59.210 50.868,59.210 50.868,59.210 Z" id="path-2" class="cls-3" fill-rule="evenodd"/>
    <path d="M56.001,15.431 C56.001,15.431 44.655,4.076 44.655,4.076 C44.655,4.076 48.857,0.664 48.857,0.664 C50.066,-0.318 51.821,-0.227 52.922,0.876 C52.922,0.876 59.120,7.077 59.120,7.077 C60.204,8.162 60.312,9.885 59.370,11.096 C59.370,11.096 56.001,15.431 56.001,15.431 Z" id="path-3" class="cls-3" fill-rule="evenodd"/>
    <path d="M59.366,11.102 C60.308,9.890 60.203,8.166 59.120,7.077 C59.120,7.077 59.057,7.015 59.057,7.015 C58.958,7.241 58.841,7.460 58.683,7.663 C58.683,7.663 57.038,9.779 57.038,9.779 C56.124,10.957 54.383,11.065 53.329,10.010 C53.329,10.010 46.170,2.846 46.170,2.846 C46.170,2.846 44.655,4.076 44.655,4.076 C44.655,4.076 56.001,15.431 56.001,15.431 C56.001,15.431 59.366,11.102 59.366,11.102 Z" id="path-4" class="cls-6" fill-rule="evenodd"/>
    <path d="M25.186,56.307 C25.186,56.307 3.687,34.793 3.687,34.793 C3.687,34.793 8.704,28.339 8.704,28.339 C8.704,28.339 31.636,51.287 31.636,51.287 C31.636,51.287 25.186,56.307 25.186,56.307 Z" id="path-5" class="cls-7" fill-rule="evenodd"/>
    <path d="M50.955,10.007 C50.699,10.007 50.443,9.909 50.248,9.714 C49.857,9.324 49.857,8.691 50.247,8.300 C50.247,8.300 52.427,6.118 52.427,6.118 C52.818,5.727 53.452,5.727 53.841,6.117 C54.232,6.508 54.232,7.141 53.842,7.532 C53.842,7.532 51.663,9.714 51.663,9.714 C51.467,9.909 51.211,10.007 50.955,10.007 Z" id="path-6" class="cls-8" fill-rule="evenodd"/>
    <path d="M48.089,7.138 C47.813,7.138 47.539,7.025 47.342,6.804 C46.974,6.391 47.011,5.759 47.423,5.392 C47.423,5.392 49.730,3.336 49.730,3.336 C50.142,2.969 50.773,3.005 51.142,3.418 C51.509,3.830 51.473,4.462 51.060,4.830 C51.060,4.830 48.753,6.885 48.753,6.885 C48.563,7.055 48.325,7.138 48.089,7.138 Z" id="path-7" class="cls-8" fill-rule="evenodd"/>
    <path d="M53.821,12.875 C53.584,12.875 53.347,12.792 53.157,12.623 C52.744,12.256 52.707,11.623 53.074,11.210 C53.074,11.210 55.128,8.902 55.128,8.902 C55.495,8.490 56.126,8.452 56.540,8.820 C56.952,9.187 56.989,9.819 56.622,10.232 C56.622,10.232 54.568,12.540 54.568,12.540 C54.371,12.762 54.097,12.875 53.821,12.875 Z" id="path-8" class="cls-8" fill-rule="evenodd"/>
    <path d="M30.203,49.853 C30.203,49.853 10.137,29.773 10.137,29.773 C10.137,29.773 33.066,9.528 33.066,9.528 C33.992,8.710 35.184,8.259 36.418,8.259 C36.418,8.259 41.843,8.259 41.843,8.259 C42.649,8.259 43.422,7.939 43.993,7.368 C43.993,7.368 45.969,5.391 45.969,5.391 C45.969,5.391 54.568,13.996 54.568,13.996 C54.568,13.996 52.592,15.974 52.592,15.974 C52.022,16.544 51.702,17.318 51.702,18.125 C51.702,18.125 51.702,23.553 51.702,23.553 C51.702,24.788 51.251,25.981 50.434,26.908 C50.434,26.908 30.203,49.853 30.203,49.853 Z" id="path-9" class="cls-11" fill-rule="evenodd"/>
    <path d="M10.138,29.773 C10.138,29.773 30.210,49.845 30.210,49.845 C30.210,49.845 31.929,47.896 31.929,47.896 C31.929,47.896 10.576,29.466 10.576,29.466 C10.576,29.466 10.138,29.773 10.138,29.773 Z" id="path-10" class="cls-6" fill-rule="evenodd"/>
    <path d="M45.029,6.331 C44.821,6.539 52.085,16.676 52.085,16.676 C52.223,16.422 52.384,16.182 52.592,15.974 C52.592,15.974 54.567,13.997 54.567,13.997 C54.567,13.997 45.965,5.394 45.965,5.394 C45.965,5.394 45.029,6.331 45.029,6.331 Z" id="path-11" class="cls-6" fill-rule="evenodd"/>
  </g>
</svg>
