<svg xmlns="http://www.w3.org/2000/svg" xmlns:xlink="http://www.w3.org/1999/xlink" preserveAspectRatio="xMidYMid" width="56" height="60" viewBox="0 0 56 60">
  <defs>
    <style>

      .cls-3 {
        fill: #fbb713;
      }

      .cls-5 {
        fill: #0cb04a;
      }

      .cls-7 {
        fill: #000000;
        opacity: 0.25;
      }

      .cls-8 {
        fill: #ff3a2f;
      }

      .cls-9 {
        fill: #142a3b;
      }

      .cls-12 {
        fill: #000000;
        opacity: 0.35;
      }

      .cls-13 {
        fill: #ffffff;
      }
    </style>
  </defs>
  <g id="group-17svg">
    <path d="M20.075,52.313 C20.075,52.313 24.162,52.313 24.162,52.313 C24.950,52.313 25.588,52.717 25.588,53.216 C25.588,53.716 24.950,54.120 24.162,54.120 C24.162,54.120 23.972,54.120 23.972,54.120 C23.184,54.120 22.545,54.525 22.545,55.024 C22.545,55.524 23.184,55.929 23.972,55.929 C23.972,55.929 32.757,55.929 32.757,55.929 C33.545,55.929 34.184,56.333 34.184,56.833 C34.184,57.331 33.545,57.736 32.757,57.736 C32.757,57.736 22.199,57.736 22.199,57.736 C22.199,57.736 10.595,57.736 10.595,57.736 C9.807,57.736 9.168,57.331 9.168,56.833 C9.168,56.333 9.807,55.929 10.595,55.929 C10.595,55.929 13.033,55.929 13.033,55.929 C13.821,55.929 14.460,55.524 14.460,55.024 C14.460,54.525 13.821,54.120 13.033,54.120 C13.033,54.120 1.429,54.120 1.429,54.120 C0.642,54.120 0.002,53.716 0.002,53.216 C0.002,52.717 0.642,52.313 1.429,52.313 C1.429,52.313 4.172,52.313 4.172,52.313 C4.172,52.313 20.075,52.313 20.075,52.313 Z" id="path-1" class="cls-3" fill-rule="evenodd"/>
    <path d="M52.451,60.380 C53.632,60.380 54.591,59.773 54.591,59.024 C54.591,58.276 53.632,57.668 52.451,57.668 C52.451,57.668 45.893,57.668 45.893,57.668 C44.710,57.668 43.752,58.276 43.752,59.024 C43.752,59.773 44.710,60.380 45.893,60.380 C45.893,60.380 52.451,60.380 52.451,60.380 Z" id="path-2" class="cls-3" fill-rule="evenodd"/>
    <path d="M16.040,9.707 C16.040,9.707 12.337,24.985 22.522,41.652 C22.522,41.652 38.726,41.652 38.726,41.652 C38.726,41.652 48.448,28.457 44.744,9.707 C44.744,9.707 16.040,9.707 16.040,9.707 Z" id="path-3" class="cls-5" fill-rule="evenodd"/>
    <path d="M17.683,31.163 C18.765,34.500 20.317,38.043 22.522,41.652 C22.522,41.652 38.726,41.652 38.726,41.652 C38.726,41.652 41.601,37.741 43.628,31.163 C43.628,31.163 17.683,31.163 17.683,31.163 Z" id="path-4" class="cls-3" fill-rule="evenodd"/>
    <path d="M44.744,9.707 C44.744,9.707 40.225,9.707 40.225,9.707 C42.414,26.848 33.726,38.652 33.726,38.652 C33.726,38.652 20.828,38.652 20.828,38.652 C21.345,39.645 21.907,40.645 22.522,41.652 C22.522,41.652 38.726,41.652 38.726,41.652 C38.726,41.652 48.448,28.457 44.744,9.707 Z" id="path-5" class="cls-7" fill-rule="evenodd"/>
    <path d="M25.297,27.758 C25.297,24.892 30.485,18.413 30.485,18.413 C30.485,18.413 35.673,24.892 35.673,27.758 C35.673,30.623 33.350,32.946 30.485,32.946 C27.620,32.946 25.297,30.623 25.297,27.758 Z" id="path-6" class="cls-8" fill-rule="evenodd"/>
    <path d="M34.313,49.985 C34.313,49.985 26.657,49.985 26.657,49.985 C24.424,49.985 22.615,48.175 22.615,45.943 C22.615,45.943 22.615,41.652 22.615,41.652 C22.615,41.652 38.355,41.652 38.355,41.652 C38.355,41.652 38.355,45.943 38.355,45.943 C38.355,48.175 36.545,49.985 34.313,49.985 Z" id="path-7" class="cls-9" fill-rule="evenodd"/>
    <path d="M45.165,9.707 C45.165,9.707 15.805,9.707 15.805,9.707 C15.805,9.707 15.805,3.393 15.805,3.393 C15.805,1.511 17.331,-0.015 19.212,-0.015 C19.212,-0.015 41.757,-0.015 41.757,-0.015 C43.639,-0.015 45.165,1.511 45.165,3.393 C45.165,3.393 45.165,9.707 45.165,9.707 Z" id="path-8" class="cls-9" fill-rule="evenodd"/>
    <path d="M32.800,49.985 C32.800,49.985 32.800,48.133 32.800,48.133 C32.800,46.860 31.758,45.818 30.485,45.818 C29.212,45.818 28.170,46.860 28.170,48.133 C28.170,48.133 28.170,49.985 28.170,49.985 C28.170,49.985 32.800,49.985 32.800,49.985 Z" id="path-9" class="cls-3" fill-rule="evenodd"/>
    <path d="M45.362,13.923 C45.226,12.551 45.029,11.148 44.744,9.707 C44.744,9.707 16.040,9.707 16.040,9.707 C16.040,9.707 15.909,10.252 15.763,11.246 C15.763,11.246 45.362,13.923 45.362,13.923 Z" id="path-10" class="cls-12" fill-rule="evenodd"/>
    <path d="M22.611,34.772 C22.211,34.772 21.833,34.530 21.679,34.134 C18.820,26.787 18.313,20.205 18.392,15.977 C18.402,15.425 18.855,14.987 19.410,14.996 C19.962,15.006 20.402,15.462 20.392,16.014 C20.316,20.062 20.802,26.366 23.543,33.409 C23.743,33.924 23.488,34.503 22.974,34.704 C22.854,34.750 22.731,34.772 22.611,34.772 Z" id="path-11" class="cls-13" fill-rule="evenodd"/>
  </g>
</svg>
