<svg xmlns="http://www.w3.org/2000/svg" xmlns:xlink="http://www.w3.org/1999/xlink" preserveAspectRatio="xMidYMid" width="61" height="58" viewBox="0 0 61 58">
  <defs>
    <style>

      .cls-3 {
        fill: #ff3a2f;
      }

      .cls-9 {
        fill: #fbb713;
      }

      .cls-10 {
        fill: #010101;
        opacity: 0.35;
      }

      .cls-12 {
        fill: #020403;
        opacity: 0.35;
      }

      .cls-13 {
        fill: #ffffff;
      }
    </style>
  </defs>
  <g id="group-114svg">
    <path d="M38.146,56.119 C38.590,56.119 38.951,55.873 38.951,55.570 C38.951,55.267 38.590,55.022 38.146,55.022 C38.146,55.022 35.681,55.022 35.681,55.022 C35.236,55.022 34.876,55.267 34.876,55.570 C34.876,55.873 35.236,56.119 35.681,56.119 C35.681,56.119 38.146,56.119 38.146,56.119 Z" id="path-1" class="cls-3" fill-rule="evenodd"/>
    <path d="M11.540,26.081 C11.540,26.081 12.212,26.081 12.212,26.081 C12.341,26.081 12.446,26.218 12.446,26.387 C12.446,26.557 12.341,26.693 12.212,26.693 C12.212,26.693 12.181,26.693 12.181,26.693 C12.051,26.693 11.946,26.830 11.946,27.000 C11.946,27.169 12.051,27.306 12.181,27.306 C12.181,27.306 13.624,27.306 13.624,27.306 C13.753,27.306 13.858,27.443 13.858,27.612 C13.858,27.782 13.753,27.918 13.624,27.918 C13.624,27.918 11.890,27.918 11.890,27.918 C11.890,27.918 8.345,27.918 8.345,27.918 C8.216,27.918 8.111,27.782 8.111,27.612 C8.111,27.443 8.216,27.306 8.345,27.306 C8.345,27.306 8.746,27.306 8.746,27.306 C8.875,27.306 8.980,27.169 8.980,27.000 C8.980,26.830 8.875,26.693 8.746,26.693 C8.746,26.693 6.839,26.693 6.839,26.693 C6.710,26.693 6.605,26.557 6.605,26.387 C6.605,26.218 6.710,26.081 6.839,26.081 C6.839,26.081 7.290,26.081 7.290,26.081 C7.290,26.081 11.540,26.081 11.540,26.081 Z" id="path-2" class="cls-3" fill-rule="evenodd"/>
    <path d="M51.119,36.239 C51.119,36.239 52.033,36.239 52.033,36.239 C52.209,36.239 52.352,36.426 52.352,36.657 C52.352,36.887 52.209,37.073 52.033,37.073 C52.033,37.073 51.990,37.073 51.990,37.073 C51.814,37.073 51.671,37.260 51.671,37.490 C51.671,37.721 51.814,37.907 51.990,37.907 C51.990,37.907 53.955,37.907 53.955,37.907 C54.130,37.907 54.273,38.093 54.273,38.324 C54.273,38.554 54.130,38.740 53.955,38.740 C53.955,38.740 51.594,38.740 51.594,38.740 C51.594,38.740 46.770,38.740 46.770,38.740 C46.594,38.740 46.451,38.554 46.451,38.324 C46.451,38.093 46.594,37.907 46.770,37.907 C46.770,37.907 47.315,37.907 47.315,37.907 C47.491,37.907 47.634,37.721 47.634,37.490 C47.634,37.260 47.491,37.073 47.315,37.073 C47.315,37.073 44.721,37.073 44.721,37.073 C44.544,37.073 44.402,36.887 44.402,36.657 C44.402,36.426 44.544,36.239 44.721,36.239 C44.721,36.239 45.334,36.239 45.334,36.239 C45.334,36.239 51.119,36.239 51.119,36.239 Z" id="path-3" class="cls-3" fill-rule="evenodd"/>
    <path d="M6.728,45.667 C6.728,45.667 7.642,45.667 7.642,45.667 C7.817,45.667 7.960,45.853 7.960,46.083 C7.960,46.314 7.817,46.500 7.642,46.500 C7.642,46.500 7.599,46.500 7.599,46.500 C7.423,46.500 7.280,46.687 7.280,46.917 C7.280,47.147 7.423,47.334 7.599,47.334 C7.599,47.334 9.563,47.334 9.563,47.334 C9.739,47.334 9.882,47.521 9.882,47.751 C9.882,47.981 9.739,48.168 9.563,48.168 C9.563,48.168 7.203,48.168 7.203,48.168 C7.203,48.168 2.378,48.168 2.378,48.168 C2.202,48.168 2.060,47.981 2.060,47.751 C2.060,47.521 2.202,47.334 2.378,47.334 C2.378,47.334 2.923,47.334 2.923,47.334 C3.100,47.334 3.242,47.147 3.242,46.917 C3.242,46.687 3.100,46.500 2.923,46.500 C2.923,46.500 0.329,46.500 0.329,46.500 C0.153,46.500 0.010,46.314 0.010,46.083 C0.010,45.853 0.153,45.667 0.329,45.667 C0.329,45.667 0.942,45.667 0.942,45.667 C0.942,45.667 6.728,45.667 6.728,45.667 Z" id="path-4" class="cls-3" fill-rule="evenodd"/>
    <path d="M4.346,28.619 C4.623,28.619 4.848,28.454 4.848,28.249 C4.848,28.045 4.623,27.880 4.346,27.880 C4.346,27.880 2.808,27.880 2.808,27.880 C2.530,27.880 2.305,28.045 2.305,28.249 C2.305,28.454 2.530,28.619 2.808,28.619 C2.808,28.619 4.346,28.619 4.346,28.619 Z" id="path-5" class="cls-3" fill-rule="evenodd"/>
    <path d="M53.581,51.356 C53.581,51.356 55.443,51.356 55.443,51.356 C55.803,51.356 56.094,51.708 56.094,52.142 C56.094,52.577 55.803,52.929 55.443,52.929 C55.443,52.929 55.357,52.929 55.357,52.929 C54.997,52.929 54.706,53.282 54.706,53.716 C54.706,54.151 54.997,54.503 55.357,54.503 C55.357,54.503 59.360,54.503 59.360,54.503 C59.719,54.503 60.010,54.855 60.010,55.289 C60.010,55.724 59.719,56.076 59.360,56.076 C59.360,56.076 54.549,56.076 54.549,56.076 C54.549,56.076 44.715,56.076 44.715,56.076 C44.356,56.076 44.065,55.724 44.065,55.289 C44.065,54.855 44.356,54.503 44.715,54.503 C44.715,54.503 45.826,54.503 45.826,54.503 C46.185,54.503 46.477,54.151 46.477,53.716 C46.477,53.282 46.185,52.929 45.826,52.929 C45.826,52.929 40.539,52.929 40.539,52.929 C40.179,52.929 39.888,52.577 39.888,52.142 C39.888,51.708 40.179,51.356 40.539,51.356 C40.539,51.356 41.788,51.356 41.788,51.356 C41.788,51.356 53.581,51.356 53.581,51.356 Z" id="path-6" class="cls-3" fill-rule="evenodd"/>
    <path d="M18.695,12.699 C18.695,12.699 18.695,34.795 18.695,34.795 C15.202,36.955 13.045,40.792 13.045,45.180 C13.045,51.939 18.534,57.418 25.343,57.418 C32.150,57.418 37.522,51.939 37.522,45.180 C37.522,40.849 35.252,37.053 31.833,34.878 C31.833,34.878 31.833,6.669 31.833,6.669 C31.833,2.980 28.892,-0.011 25.264,-0.011 C21.636,-0.011 18.695,2.980 18.695,6.669 C18.695,6.669 18.695,7.678 18.695,7.678 C18.695,7.678 18.695,12.699 18.695,12.699 Z" id="path-7" class="cls-9" fill-rule="evenodd"/>
    <path d="M31.833,34.878 C31.833,34.878 31.833,6.669 31.833,6.669 C31.833,2.981 28.892,-0.011 25.264,-0.011 C24.778,-0.011 24.307,0.047 23.852,0.148 C26.800,0.806 29.009,3.474 29.009,6.669 C29.009,6.669 29.009,34.878 29.009,34.878 C32.428,37.053 34.698,40.849 34.698,45.180 C34.698,51.463 30.052,56.635 23.930,57.332 C24.393,57.384 24.864,57.418 25.343,57.418 C32.150,57.418 37.523,51.939 37.523,45.180 C37.523,40.849 35.252,37.053 31.833,34.878 Z" id="path-8" class="cls-10" fill-rule="evenodd"/>
    <path d="M27.966,37.451 C27.966,37.451 27.966,26.978 27.966,26.978 C27.966,25.444 26.784,25.095 25.332,25.095 C23.880,25.095 22.602,25.542 22.602,27.076 C22.602,27.076 22.602,37.451 22.602,37.451 C19.789,38.531 17.789,41.250 17.789,44.443 C17.789,48.582 21.145,51.938 25.284,51.938 C29.423,51.938 32.779,48.582 32.779,44.443 C32.779,41.250 30.779,38.531 27.966,37.451 Z" id="path-9" class="cls-3" fill-rule="evenodd"/>
    <path d="M27.966,37.451 C27.966,37.451 27.966,26.978 27.966,26.978 C27.966,25.444 26.784,25.095 25.332,25.095 C25.020,25.095 24.720,25.121 24.435,25.169 C25.399,25.333 26.083,25.813 26.083,26.978 C26.083,26.978 26.083,37.451 26.083,37.451 C28.895,38.531 30.896,41.250 30.896,44.443 C30.896,48.263 28.036,51.409 24.342,51.873 C24.651,51.911 24.964,51.938 25.284,51.938 C29.423,51.938 32.779,48.582 32.779,44.443 C32.779,41.250 30.779,38.531 27.966,37.451 Z" id="path-10" class="cls-12" fill-rule="evenodd"/>
    <path d="M24.067,46.447 C24.067,47.356 23.330,48.094 22.419,48.094 C21.510,48.094 20.772,47.356 20.772,46.447 C20.772,45.537 21.510,44.799 22.419,44.799 C23.330,44.799 24.067,45.537 24.067,46.447 Z" id="path-11" class="cls-13" fill-rule="evenodd"/>
    <path d="M25.257,36.266 C24.705,36.266 24.257,35.819 24.257,35.266 C24.257,35.266 24.257,7.376 24.257,7.376 C24.257,6.824 24.705,6.376 25.257,6.376 C25.809,6.376 26.257,6.824 26.257,7.376 C26.257,7.376 26.257,35.266 26.257,35.266 C26.257,35.819 25.809,36.266 25.257,36.266 Z" id="path-12" class="cls-13" fill-rule="evenodd"/>
  </g>
</svg>
