<svg xmlns="http://www.w3.org/2000/svg" xmlns:xlink="http://www.w3.org/1999/xlink" preserveAspectRatio="xMidYMid" width="61" height="56" viewBox="0 0 61 56">
  <defs>
    <style>

      .cls-3 {
        fill: #fbb713;
      }

      .cls-5 {
        fill: #ff3a2f;
      }

      .cls-8 {
        fill: #0cb04a;
      }

      .cls-9 {
        fill: #010101;
        opacity: 0.25;
      }

      .cls-10 {
        fill: #010101;
        opacity: 0.35;
      }

      .cls-16 {
        fill: #090909;
        opacity: 0.35;
      }
    </style>
  </defs>
  <g id="group-58svg">
    <path d="M15.135,51.021 C15.135,51.021 10.754,51.021 10.754,51.021 C9.909,51.021 9.225,51.422 9.225,51.916 C9.225,52.411 9.909,52.811 10.754,52.811 C10.754,52.811 10.958,52.811 10.958,52.811 C11.803,52.811 12.487,53.212 12.487,53.706 C12.487,54.201 11.803,54.602 10.958,54.602 C10.958,54.602 1.540,54.602 1.540,54.602 C0.695,54.602 0.010,55.002 0.010,55.497 C0.010,55.991 0.695,56.392 1.540,56.392 C1.540,56.392 12.858,56.392 12.858,56.392 C12.858,56.392 35.992,56.392 35.992,56.392 C36.837,56.392 37.522,55.991 37.522,55.497 C37.522,55.002 36.837,54.602 35.992,54.602 C35.992,54.602 33.378,54.602 33.378,54.602 C32.534,54.602 31.849,54.201 31.849,53.706 C31.849,53.212 32.534,52.811 33.378,52.811 C33.378,52.811 43.644,52.811 43.644,52.811 C44.489,52.811 45.174,52.411 45.174,51.916 C45.174,51.422 44.489,51.021 43.644,51.021 C43.644,51.021 42.878,51.021 42.878,51.021 C42.878,51.021 15.135,51.021 15.135,51.021 Z" id="path-1" class="cls-3" fill-rule="evenodd"/>
    <path d="M50.915,56.240 C49.679,56.240 48.677,55.904 48.677,55.488 C48.677,55.072 49.679,54.735 50.915,54.735 C50.915,54.735 57.772,54.735 57.772,54.735 C59.008,54.735 60.010,55.072 60.010,55.488 C60.010,55.904 59.008,56.240 57.772,56.240 C57.772,56.240 50.915,56.240 50.915,56.240 Z" id="path-2" class="cls-3" fill-rule="evenodd"/>
    <path d="M57.234,24.683 C57.234,24.683 53.896,24.683 53.896,24.683 C53.344,24.683 52.896,24.235 52.896,23.683 C52.896,23.131 53.344,22.683 53.896,22.683 C53.896,22.683 57.234,22.683 57.234,22.683 C57.787,22.683 58.234,23.131 58.234,23.683 C58.234,24.235 57.787,24.683 57.234,24.683 Z" id="path-3" class="cls-5" fill-rule="evenodd"/>
    <path d="M22.079,52.159 C21.527,52.159 21.079,51.711 21.079,51.159 C21.079,51.159 21.079,46.709 21.079,46.709 C21.079,46.157 21.527,45.709 22.079,45.709 C22.631,45.709 23.079,46.157 23.079,46.709 C23.079,46.709 23.079,51.159 23.079,51.159 C23.079,51.711 22.631,52.159 22.079,52.159 Z" id="path-4" class="cls-5" fill-rule="evenodd"/>
    <path d="M44.331,52.159 C43.778,52.159 43.330,51.711 43.330,51.159 C43.330,51.159 43.330,46.709 43.330,46.709 C43.330,46.157 43.778,45.709 44.331,45.709 C44.883,45.709 45.331,46.157 45.331,46.709 C45.331,46.709 45.331,51.159 45.331,51.159 C45.331,51.711 44.883,52.159 44.331,52.159 Z" id="path-5" class="cls-5" fill-rule="evenodd"/>
    <path d="M54.344,48.159 C54.344,48.159 54.344,20.987 54.344,20.987 C54.344,16.903 50.192,13.670 46.107,13.670 C46.107,13.670 21.424,13.670 21.424,13.670 C17.339,13.670 14.291,16.903 14.291,20.987 C14.291,20.987 14.291,48.159 14.291,48.159 C14.291,48.159 54.344,48.159 54.344,48.159 Z" id="path-6" class="cls-8" fill-rule="evenodd"/>
    <path d="M46.358,13.682 C46.959,14.669 47.320,15.783 47.320,16.974 C47.320,16.974 47.320,34.515 47.320,34.515 C47.320,39.834 43.008,44.146 37.689,44.146 C37.689,44.146 14.291,44.146 14.291,44.146 C14.291,44.146 14.291,48.159 14.291,48.159 C14.291,48.159 54.344,48.159 54.344,48.159 C54.344,48.159 54.344,20.987 54.344,20.987 C54.344,16.986 50.360,13.811 46.358,13.682 Z" id="path-7" class="cls-9" fill-rule="evenodd"/>
    <path d="M47.338,27.551 C47.338,30.392 45.034,32.696 42.192,32.696 C39.350,32.696 37.047,30.392 37.047,27.551 C37.047,24.709 39.350,22.405 42.192,22.405 C45.034,22.405 47.338,24.709 47.338,27.551 Z" id="path-8" class="cls-10" fill-rule="evenodd"/>
    <path d="M46.334,25.544 C46.334,28.385 44.031,30.689 41.189,30.689 C38.347,30.689 36.043,28.385 36.043,25.544 C36.043,22.702 38.347,20.398 41.189,20.398 C44.031,20.398 46.334,22.702 46.334,25.544 Z" id="path-9" class="cls-5" fill-rule="evenodd"/>
    <path d="M42.404,20.558 C43.568,21.501 44.328,22.925 44.328,24.540 C44.328,27.382 42.024,29.686 39.182,29.686 C38.762,29.686 38.358,29.621 37.967,29.526 C38.851,30.242 39.962,30.689 41.189,30.689 C44.031,30.689 46.334,28.385 46.334,25.544 C46.334,23.122 44.656,21.106 42.404,20.558 Z" id="path-10" class="cls-10" fill-rule="evenodd"/>
    <path d="M47.668,14.008 C47.668,14.008 47.668,4.161 47.668,4.161 C47.668,1.835 45.925,-0.014 43.598,-0.014 C41.271,-0.014 39.528,0.101 39.528,2.326 C39.528,2.326 28.847,2.326 28.847,2.326 C28.847,0.101 27.233,-0.014 24.907,-0.014 C22.580,-0.014 20.967,1.835 20.967,4.161 C20.967,4.161 20.967,14.008 20.967,14.008 C20.967,14.008 47.668,14.008 47.668,14.008 Z" id="path-11" class="cls-3" fill-rule="evenodd"/>
    <path d="M22.900,1.993 C25.227,1.993 26.840,2.107 26.840,4.333 C26.840,4.333 37.521,4.333 37.521,4.333 C37.521,3.216 37.961,2.632 38.692,2.326 C38.692,2.326 28.846,2.326 28.846,2.326 C28.846,0.101 27.233,-0.014 24.907,-0.014 C23.256,-0.014 21.977,0.926 21.367,2.298 C21.830,2.105 22.343,1.993 22.900,1.993 Z" id="path-12" class="cls-9" fill-rule="evenodd"/>
    <path d="M43.598,-0.014 C41.357,-0.014 39.674,0.112 39.552,2.107 C40.146,2.013 40.832,1.993 41.591,1.993 C43.918,1.993 45.662,3.841 45.662,6.168 C45.662,6.168 45.662,14.008 45.662,14.008 C45.662,14.008 47.668,14.008 47.668,14.008 C47.668,14.008 47.668,4.161 47.668,4.161 C47.668,1.834 45.925,-0.014 43.598,-0.014 Z" id="path-13" class="cls-9" fill-rule="evenodd"/>
    <path d="M35.146,8.515 C35.146,8.820 34.902,9.069 34.601,9.069 C34.300,9.069 34.055,8.820 34.055,8.515 C34.055,8.208 34.300,7.961 34.601,7.961 C34.902,7.961 35.146,8.208 35.146,8.515 Z" id="path-14" class="cls-16" fill-rule="evenodd"/>
    <path d="M25.112,7.512 C25.112,7.816 24.868,8.066 24.567,8.066 C24.267,8.066 24.021,7.816 24.021,7.512 C24.021,7.205 24.267,6.957 24.567,6.957 C24.868,6.957 25.112,7.205 25.112,7.512 Z" id="path-15" class="cls-16" fill-rule="evenodd"/>
    <path d="M26.115,12.528 C26.115,12.833 25.871,13.082 25.571,13.082 C25.270,13.082 25.025,12.833 25.025,12.528 C25.025,12.222 25.270,11.974 25.571,11.974 C25.871,11.974 26.115,12.222 26.115,12.528 Z" id="path-16" class="cls-16" fill-rule="evenodd"/>
    <path d="M42.169,12.528 C42.169,12.833 41.925,13.082 41.625,13.082 C41.324,13.082 41.079,12.833 41.079,12.528 C41.079,12.222 41.324,11.974 41.625,11.974 C41.925,11.974 42.169,12.222 42.169,12.528 Z" id="path-17" class="cls-16" fill-rule="evenodd"/>
    <path d="M33.139,13.532 C33.139,13.837 32.895,14.086 32.594,14.086 C32.294,14.086 32.049,13.837 32.049,13.532 C32.049,13.225 32.294,12.978 32.594,12.978 C32.895,12.978 33.139,13.225 33.139,13.532 Z" id="path-18" class="cls-16" fill-rule="evenodd"/>
    <path d="M41.879,6.508 C41.879,6.813 41.635,7.062 41.333,7.062 C41.033,7.062 40.789,6.813 40.789,6.508 C40.789,6.202 41.033,5.954 41.333,5.954 C41.635,5.954 41.879,6.202 41.879,6.508 Z" id="path-19" class="cls-16" fill-rule="evenodd"/>
  </g>
</svg>
