<svg xmlns="http://www.w3.org/2000/svg" xmlns:xlink="http://www.w3.org/1999/xlink" preserveAspectRatio="xMidYMid" width="61" height="51" viewBox="0 0 61 51">
  <defs>
    <style>

      .cls-3 {
        fill: #ff3a2f;
      }

      .cls-7 {
        fill: #2476ff;
      }

      .cls-8 {
        fill: #020403;
        opacity: 0.35;
      }

      .cls-9 {
        fill: #fbb713;
      }

      .cls-16 {
        fill: #ffffff;
      }

      .cls-17 {
        fill: #142a3b;
      }
    </style>
  </defs>
  <g id="group-109svg">
    <path d="M18.181,44.523 C18.181,44.523 12.917,44.523 12.917,44.523 C11.902,44.523 11.079,44.994 11.079,45.576 C11.079,46.157 11.902,46.627 12.917,46.627 C12.917,46.627 13.162,46.627 13.162,46.627 C14.177,46.627 15.000,47.099 15.000,47.680 C15.000,48.261 14.177,48.732 13.162,48.732 C13.162,48.732 1.846,48.732 1.846,48.732 C0.831,48.732 0.008,49.203 0.008,49.785 C0.008,50.366 0.831,50.837 1.846,50.837 C1.846,50.837 15.445,50.837 15.445,50.837 C15.445,50.837 43.241,50.837 43.241,50.837 C44.256,50.837 45.078,50.366 45.078,49.785 C45.078,49.203 44.256,48.732 43.241,48.732 C43.241,48.732 40.101,48.732 40.101,48.732 C39.085,48.732 38.263,48.261 38.263,47.680 C38.263,47.099 39.085,46.627 40.101,46.627 C40.101,46.627 52.434,46.627 52.434,46.627 C53.450,46.627 54.272,46.157 54.272,45.576 C54.272,44.994 53.450,44.523 52.434,44.523 C52.434,44.523 51.515,44.523 51.515,44.523 C51.515,44.523 18.181,44.523 18.181,44.523 Z" id="path-1" class="cls-3" fill-rule="evenodd"/>
    <path d="M53.730,51.119 C52.880,51.119 52.189,50.614 52.189,49.991 C52.189,49.368 52.880,48.863 53.730,48.863 C53.730,48.863 58.452,48.863 58.452,48.863 C59.303,48.863 59.992,49.368 59.992,49.991 C59.992,50.614 59.303,51.119 58.452,51.119 C58.452,51.119 53.730,51.119 53.730,51.119 Z" id="path-2" class="cls-3" fill-rule="evenodd"/>
    <path d="M48.437,30.925 C48.727,30.925 48.963,30.751 48.963,30.538 C48.963,30.324 48.727,30.151 48.437,30.151 C48.437,30.151 46.826,30.151 46.826,30.151 C46.536,30.151 46.301,30.324 46.301,30.538 C46.301,30.751 46.536,30.925 46.826,30.925 C46.826,30.925 48.437,30.925 48.437,30.925 Z" id="path-3" class="cls-3" fill-rule="evenodd"/>
    <path d="M55.971,28.267 C55.971,28.267 56.674,28.267 56.674,28.267 C56.809,28.267 56.919,28.411 56.919,28.588 C56.919,28.765 56.809,28.909 56.674,28.909 C56.674,28.909 56.641,28.909 56.641,28.909 C56.505,28.909 56.395,29.052 56.395,29.229 C56.395,29.407 56.505,29.550 56.641,29.550 C56.641,29.550 58.151,29.550 58.151,29.550 C58.287,29.550 58.397,29.693 58.397,29.870 C58.397,30.047 58.287,30.191 58.151,30.191 C58.151,30.191 56.336,30.191 56.336,30.191 C56.336,30.191 52.625,30.191 52.625,30.191 C52.489,30.191 52.379,30.047 52.379,29.870 C52.379,29.693 52.489,29.550 52.625,29.550 C52.625,29.550 53.044,29.550 53.044,29.550 C53.180,29.550 53.289,29.407 53.289,29.229 C53.289,29.052 53.180,28.909 53.044,28.909 C53.044,28.909 51.049,28.909 51.049,28.909 C50.913,28.909 50.803,28.765 50.803,28.588 C50.803,28.411 50.913,28.267 51.049,28.267 C51.049,28.267 51.520,28.267 51.520,28.267 C51.520,28.267 55.971,28.267 55.971,28.267 Z" id="path-4" class="cls-3" fill-rule="evenodd"/>
    <path d="M32.429,45.740 C32.429,45.740 4.311,45.740 4.311,45.740 C1.926,45.740 -0.008,43.806 -0.008,41.421 C-0.008,41.421 -0.008,17.771 -0.008,17.771 C-0.008,15.386 1.926,13.452 4.311,13.452 C4.311,13.452 32.429,13.452 32.429,13.452 C34.813,13.452 36.747,15.386 36.747,17.771 C36.747,17.771 36.747,41.421 36.747,41.421 C36.747,43.806 34.813,45.740 32.429,45.740 Z" id="path-5" class="cls-7" fill-rule="evenodd"/>
    <path d="M27.701,42.140 C27.701,42.140 10.016,42.140 10.016,42.140 C8.394,42.140 7.080,40.826 7.080,39.205 C7.080,39.205 7.080,33.703 7.080,33.703 C7.080,32.082 8.394,30.768 10.016,30.768 C10.016,30.768 27.701,30.768 27.701,30.768 C29.322,30.768 30.637,32.082 30.637,33.703 C30.637,33.703 30.637,39.205 30.637,39.205 C30.637,40.826 29.322,42.140 27.701,42.140 Z" id="path-6" class="cls-8" fill-rule="evenodd"/>
    <path d="M27.213,40.968 C27.213,40.968 9.526,40.968 9.526,40.968 C7.906,40.968 6.592,39.654 6.592,38.033 C6.592,38.033 6.592,32.530 6.592,32.530 C6.592,30.910 7.906,29.596 9.526,29.596 C9.526,29.596 27.213,29.596 27.213,29.596 C28.834,29.596 30.147,30.910 30.147,32.530 C30.147,32.530 30.147,38.033 30.147,38.033 C30.147,39.654 28.834,40.968 27.213,40.968 Z" id="path-7" class="cls-9" fill-rule="evenodd"/>
    <path d="M31.061,13.581 C31.061,13.581 5.679,13.581 5.679,13.581 C5.679,13.581 5.679,5.865 5.679,5.865 C5.679,5.865 31.061,5.865 31.061,5.865 C31.061,5.865 31.061,13.581 31.061,13.581 Z" id="path-8" class="cls-3" fill-rule="evenodd"/>
    <path d="M25.821,16.969 C28.618,16.969 30.886,20.409 30.886,23.206 C30.886,23.206 30.886,45.365 30.886,45.365 C30.886,45.494 30.857,45.614 30.848,45.740 C30.848,45.740 31.684,45.740 31.684,45.740 C34.480,45.740 36.747,44.458 36.747,41.661 C36.747,41.661 36.747,18.517 36.747,18.517 C36.747,15.720 35.466,13.452 32.669,13.452 C32.669,13.452 5.057,13.452 5.057,13.452 C5.057,13.452 5.057,13.452 5.057,13.452 " id="path-9" class="cls-8" fill-rule="evenodd"/>
    <path d="M27.544,5.865 C27.544,5.865 27.544,6.934 27.544,6.934 C27.544,9.310 25.618,11.236 23.242,11.236 C23.242,11.236 5.679,11.236 5.679,11.236 C5.679,11.236 5.679,13.581 5.679,13.581 C5.679,13.581 31.061,13.581 31.061,13.581 C31.061,13.581 31.061,5.865 31.061,5.865 C31.061,5.865 27.544,5.865 27.544,5.865 Z" id="path-10" class="cls-8" fill-rule="evenodd"/>
    <path d="M54.620,9.548 C54.620,4.277 51.335,0.004 47.410,0.004 C43.484,0.004 40.488,4.277 40.488,9.548 C40.488,13.871 41.750,17.518 45.750,18.691 C45.750,18.691 45.750,45.468 45.750,45.468 C45.750,45.468 49.750,45.468 49.750,45.468 C49.750,45.468 49.750,18.692 49.750,18.692 C52.750,17.517 54.620,13.871 54.620,9.548 Z" id="path-11" class="cls-9" fill-rule="evenodd"/>
    <path d="M48.377,19.304 C48.377,19.304 48.377,45.304 48.377,45.304 C48.377,45.304 49.550,45.304 49.550,45.304 C49.550,45.304 49.550,18.780 49.550,18.780 C49.182,18.986 48.794,19.165 48.377,19.304 Z" id="path-12" class="cls-8" fill-rule="evenodd"/>
    <path d="M47.581,0.004 C45.750,0.004 44.112,0.942 42.879,2.468 C43.909,1.651 45.110,1.176 46.408,1.176 C50.334,1.176 53.412,5.450 53.412,10.721 C53.412,13.394 52.732,15.805 51.386,17.536 C53.507,15.836 54.585,12.904 54.585,9.548 C54.585,4.277 51.506,0.004 47.581,0.004 Z" id="path-13" class="cls-8" fill-rule="evenodd"/>
    <path d="M3.640,32.693 C3.087,32.693 2.640,32.245 2.640,31.693 C2.640,31.693 2.640,19.822 2.640,19.822 C2.640,19.269 3.087,18.822 3.640,18.822 C4.192,18.822 4.640,19.269 4.640,19.822 C4.640,19.822 4.640,31.693 4.640,31.693 C4.640,32.245 4.192,32.693 3.640,32.693 Z" id="path-14" class="cls-16" fill-rule="evenodd"/>
    <path d="M23.912,34.060 C23.912,34.060 12.481,34.060 12.481,34.060 C11.929,34.060 11.481,33.612 11.481,33.060 C11.481,32.508 11.929,32.060 12.481,32.060 C12.481,32.060 23.912,32.060 23.912,32.060 C24.465,32.060 24.912,32.508 24.912,33.060 C24.912,33.612 24.465,34.060 23.912,34.060 Z" id="path-15" class="cls-17" fill-rule="evenodd"/>
    <path d="M23.912,38.750 C23.912,38.750 12.481,38.750 12.481,38.750 C11.929,38.750 11.481,38.302 11.481,37.750 C11.481,37.198 11.929,36.750 12.481,36.750 C12.481,36.750 23.912,36.750 23.912,36.750 C24.465,36.750 24.912,37.198 24.912,37.750 C24.912,38.302 24.465,38.750 23.912,38.750 Z" id="path-16" class="cls-17" fill-rule="evenodd"/>
    <path d="M45.321,5.865 C45.321,6.643 44.690,7.275 43.911,7.275 C43.133,7.275 42.502,6.643 42.502,5.865 C42.502,5.086 43.133,4.455 43.911,4.455 C44.690,4.455 45.321,5.086 45.321,5.865 Z" id="path-17" class="cls-16" fill-rule="evenodd"/>
  </g>
</svg>
