<svg xmlns="http://www.w3.org/2000/svg" xmlns:xlink="http://www.w3.org/1999/xlink" preserveAspectRatio="xMidYMid" width="59" height="60" viewBox="0 0 59 60">
  <defs>
    <style>

      .cls-3 {
        fill: #fbb713;
      }

      .cls-4 {
        fill: #020403;
        opacity: 0.25;
      }

      .cls-7 {
        fill: #ffffff;
      }

      .cls-9 {
        fill: #ff3a2f;
      }

      .cls-15 {
        fill: #142a3b;
      }

      .cls-16 {
        fill: #000000;
        opacity: 0.35;
      }

      .cls-19 {
        fill: #db2c3f;
      }
    </style>
  </defs>
  <g id="group-35svg">
    <path d="M20.467,40.650 C20.467,40.650 7.215,34.847 20.467,13.217 C20.467,13.217 21.720,21.658 24.290,23.768 C24.290,23.768 28.185,13.217 33.062,13.217 C33.062,13.217 36.471,14.272 33.512,4.777 C33.512,4.777 37.439,6.887 39.008,14.800 C39.008,14.800 40.077,17.438 39.008,22.713 C39.008,22.713 46.020,19.548 45.937,10.579 C45.937,10.579 58.155,26.406 45.937,40.650 C37.980,45.864 29.498,45.941 20.467,40.650 Z" id="path-1" class="cls-3" fill-rule="evenodd"/>
    <path d="M33.814,13.148 C34.341,14.390 34.821,15.875 35.178,17.673 C35.178,17.673 36.247,20.310 35.178,25.586 C35.178,25.586 37.201,24.659 39.061,22.422 C40.031,17.345 39.008,14.800 39.008,14.800 C37.439,6.887 33.512,4.777 33.512,4.777 C35.503,11.166 34.611,12.777 33.814,13.148 Z" id="path-2" class="cls-4" fill-rule="evenodd"/>
    <path d="M20.460,26.641 C20.460,26.641 21.357,24.214 22.828,21.688 C21.246,18.432 20.467,13.217 20.467,13.217 C19.140,15.383 18.090,17.382 17.254,19.240 C17.863,21.869 18.925,25.381 20.460,26.641 Z" id="path-3" class="cls-4" fill-rule="evenodd"/>
    <path d="M45.937,10.579 C45.962,13.329 45.317,15.527 44.416,17.262 C47.121,22.580 50.370,32.660 43.116,42.265 C44.063,41.795 45.004,41.261 45.937,40.650 C58.155,26.406 45.937,10.579 45.937,10.579 Z" id="path-4" class="cls-4" fill-rule="evenodd"/>
    <path d="M21.077,39.381 C20.854,39.381 20.630,39.306 20.443,39.154 C17.656,36.865 16.398,28.880 16.265,27.977 C16.184,27.430 16.561,26.922 17.106,26.841 C17.657,26.759 18.162,27.137 18.243,27.683 C18.707,30.800 20.060,36.251 21.713,37.608 C22.140,37.958 22.201,38.588 21.851,39.015 C21.653,39.256 21.366,39.381 21.077,39.381 Z" id="path-5" class="cls-7" fill-rule="evenodd"/>
    <path d="M25.863,43.341 C25.863,43.341 18.375,40.062 25.863,27.840 C25.863,27.840 26.571,32.609 28.023,33.802 C28.023,33.802 30.225,27.840 32.980,27.840 C32.980,27.840 34.906,28.436 33.234,23.071 C33.234,23.071 35.454,24.263 36.340,28.735 C36.340,28.735 36.944,30.225 36.340,33.206 C36.340,33.206 40.303,31.417 40.255,26.350 C40.255,26.350 47.159,35.292 40.255,43.341 C35.760,46.287 30.967,46.331 25.863,43.341 Z" id="path-6" class="cls-4" fill-rule="evenodd"/>
    <path d="M26.705,42.959 C26.705,42.959 21.123,40.515 26.705,31.404 C26.705,31.404 27.232,34.960 28.315,35.849 C28.315,35.849 29.956,31.404 32.010,31.404 C32.010,31.404 33.445,31.849 32.199,27.849 C32.199,27.849 33.853,28.738 34.515,32.071 C34.515,32.071 34.965,33.183 34.515,35.404 C34.515,35.404 37.468,34.071 37.433,30.294 C37.433,30.294 42.579,36.960 37.433,42.959 C34.082,45.155 30.509,45.188 26.705,42.959 Z" id="path-7" class="cls-9" fill-rule="evenodd"/>
    <path d="M32.146,31.418 C32.320,31.878 32.477,32.411 32.600,33.029 C32.600,33.029 33.050,34.140 32.600,36.362 C32.600,36.362 33.799,35.816 34.659,34.443 C34.827,32.869 34.515,32.071 34.515,32.071 C33.853,28.737 32.199,27.849 32.199,27.849 C33.200,31.062 32.472,31.407 32.146,31.418 Z" id="path-8" class="cls-4" fill-rule="evenodd"/>
    <path d="M37.433,30.294 C37.444,31.545 37.125,32.524 36.697,33.279 C37.828,35.712 38.913,39.959 35.518,43.917 C35.469,43.949 35.418,43.970 35.368,44.002 C36.064,43.735 36.755,43.404 37.433,42.959 C42.579,36.960 37.433,30.294 37.433,30.294 Z" id="path-9" class="cls-4" fill-rule="evenodd"/>
    <path d="M26.400,36.806 C26.400,36.806 26.823,35.663 27.508,34.536 C26.970,33.180 26.705,31.404 26.705,31.404 C26.061,32.454 25.572,33.412 25.200,34.291 C25.468,35.280 25.866,36.368 26.400,36.806 Z" id="path-10" class="cls-4" fill-rule="evenodd"/>
    <path d="M27.662,42.946 C27.595,42.946 27.526,42.932 27.462,42.904 C27.423,42.887 23.573,41.130 25.001,35.595 C25.070,35.327 25.340,35.165 25.610,35.235 C25.878,35.304 26.038,35.576 25.970,35.844 C24.752,40.565 27.831,41.974 27.862,41.988 C28.115,42.098 28.230,42.394 28.120,42.646 C28.038,42.834 27.854,42.946 27.662,42.946 Z" id="path-11" class="cls-7" fill-rule="evenodd"/>
    <path d="M29.272,37.751 C29.215,37.751 29.156,37.740 29.100,37.719 C28.840,37.624 28.708,37.336 28.804,37.077 C28.983,36.589 30.632,32.306 32.968,32.306 C33.244,32.306 33.468,32.530 33.468,32.806 C33.468,33.083 33.244,33.306 32.968,33.306 C31.728,33.306 30.330,35.832 29.741,37.424 C29.667,37.626 29.476,37.751 29.272,37.751 Z" id="path-12" class="cls-7" fill-rule="evenodd"/>
    <path d="M7.147,56.176 C7.147,56.176 58.468,43.957 58.468,43.957 C58.468,43.957 57.124,38.312 57.124,38.312 C57.124,38.312 5.804,50.531 5.804,50.531 C5.804,50.531 7.147,56.176 7.147,56.176 Z" id="path-13" class="cls-15" fill-rule="evenodd"/>
    <path d="M40.742,48.451 C40.742,48.451 44.857,47.471 44.857,47.471 C44.857,47.471 45.333,46.011 45.333,46.011 C45.333,46.011 37.138,43.344 37.138,43.344 C37.138,43.344 30.155,45.007 30.155,45.007 C30.155,45.007 40.742,48.451 40.742,48.451 Z" id="path-14" class="cls-16" fill-rule="evenodd"/>
    <path d="M27.839,51.067 C27.839,51.067 34.534,49.473 34.534,49.473 C34.534,49.473 34.704,48.951 34.704,48.951 C34.704,48.951 25.297,45.890 25.297,45.890 C25.297,45.890 17.576,47.728 17.576,47.728 C17.576,47.728 27.839,51.067 27.839,51.067 Z" id="path-15" class="cls-16" fill-rule="evenodd"/>
    <path d="M57.124,56.176 C57.124,56.176 5.804,43.957 5.804,43.957 C5.804,43.957 7.147,38.312 7.147,38.312 C7.147,38.312 58.468,50.531 58.468,50.531 C58.468,50.531 57.124,56.176 57.124,56.176 Z" id="path-16" class="cls-15" fill-rule="evenodd"/>
    <path d="M48.417,5.404 C48.417,5.404 48.417,6.264 48.417,6.264 C48.417,6.430 48.282,6.564 48.115,6.564 C47.948,6.564 47.812,6.430 47.812,6.264 C47.812,6.264 47.812,6.224 47.812,6.224 C47.812,6.058 47.678,5.924 47.511,5.924 C47.344,5.924 47.208,6.058 47.208,6.224 C47.208,6.224 47.208,8.072 47.208,8.072 C47.208,8.238 47.073,8.373 46.906,8.373 C46.739,8.373 46.604,8.238 46.604,8.072 C46.604,8.072 46.604,5.851 46.604,5.851 C46.604,5.851 46.604,3.409 46.604,3.409 C46.604,3.243 46.739,3.109 46.906,3.109 C47.073,3.109 47.208,3.243 47.208,3.409 C47.208,3.409 47.208,3.922 47.208,3.922 C47.208,4.088 47.344,4.222 47.511,4.222 C47.678,4.222 47.812,4.088 47.812,3.922 C47.812,3.922 47.812,1.480 47.812,1.480 C47.812,1.315 47.948,1.180 48.115,1.180 C48.282,1.180 48.417,1.315 48.417,1.480 C48.417,1.480 48.417,2.058 48.417,2.058 C48.417,2.058 48.417,5.404 48.417,5.404 Z" id="path-17" class="cls-19" fill-rule="evenodd"/>
    <path d="M27.773,9.352 C27.773,9.352 27.773,11.256 27.773,11.256 C27.773,11.623 27.499,11.921 27.160,11.921 C26.821,11.921 26.547,11.623 26.547,11.256 C26.547,11.256 26.547,11.167 26.547,11.167 C26.547,10.800 26.272,10.503 25.934,10.503 C25.596,10.503 25.321,10.800 25.321,11.167 C25.321,11.167 25.321,15.261 25.321,15.261 C25.321,15.628 25.047,15.925 24.708,15.925 C24.369,15.925 24.095,15.628 24.095,15.261 C24.095,15.261 24.095,10.341 24.095,10.341 C24.095,10.341 24.095,4.935 24.095,4.935 C24.095,4.567 24.369,4.270 24.708,4.270 C25.047,4.270 25.321,4.567 25.321,4.935 C25.321,4.935 25.321,6.071 25.321,6.071 C25.321,6.438 25.596,6.736 25.934,6.736 C26.272,6.736 26.547,6.438 26.547,6.071 C26.547,6.071 26.547,0.664 26.547,0.664 C26.547,0.297 26.821,-0.000 27.160,-0.000 C27.499,-0.000 27.773,0.297 27.773,0.664 C27.773,0.664 27.773,1.942 27.773,1.942 C27.773,1.942 27.773,9.352 27.773,9.352 Z" id="path-18" class="cls-19" fill-rule="evenodd"/>
    <path d="M11.050,21.451 C11.050,22.391 11.343,23.152 11.704,23.152 C12.065,23.152 12.358,22.391 12.358,21.451 C12.358,21.451 12.358,16.241 12.358,16.241 C12.358,15.301 12.065,14.540 11.704,14.540 C11.343,14.540 11.050,15.301 11.050,16.241 C11.050,16.241 11.050,21.451 11.050,21.451 Z" id="path-19" class="cls-3" fill-rule="evenodd"/>
    <path d="M41.563,9.203 C41.563,9.957 41.806,10.568 42.105,10.568 C42.405,10.568 42.648,9.957 42.648,9.203 C42.648,9.203 42.648,5.021 42.648,5.021 C42.648,4.267 42.405,3.657 42.105,3.657 C41.806,3.657 41.563,4.267 41.563,5.021 C41.563,5.021 41.563,9.203 41.563,9.203 Z" id="path-20" class="cls-3" fill-rule="evenodd"/>
    <path d="M38.862,54.103 C38.862,54.103 40.395,54.103 40.395,54.103 C40.689,54.103 40.929,54.543 40.929,55.086 C40.929,55.629 40.689,56.068 40.395,56.068 C40.395,56.068 40.323,56.068 40.323,56.068 C40.027,56.068 39.788,56.509 39.788,57.051 C39.788,57.595 40.027,58.034 40.323,58.034 C40.323,58.034 43.616,58.034 43.616,58.034 C43.912,58.034 44.151,58.474 44.151,59.017 C44.151,59.560 43.912,60.000 43.616,60.000 C43.616,60.000 39.658,60.000 39.658,60.000 C39.658,60.000 35.309,60.000 35.309,60.000 C35.013,60.000 34.773,59.560 34.773,59.017 C34.773,58.474 35.013,58.034 35.309,58.034 C35.309,58.034 36.223,58.034 36.223,58.034 C36.517,58.034 36.757,57.595 36.757,57.051 C36.757,56.509 36.517,56.068 36.223,56.068 C36.223,56.068 31.872,56.068 31.872,56.068 C31.576,56.068 31.337,55.629 31.337,55.086 C31.337,54.543 31.576,54.103 31.872,54.103 C31.872,54.103 32.900,54.103 32.900,54.103 C32.900,54.103 38.862,54.103 38.862,54.103 Z" id="path-21" class="cls-3" fill-rule="evenodd"/>
    <path d="M6.905,35.077 C7.845,35.077 8.605,34.608 8.605,34.028 C8.605,33.449 7.845,32.980 6.905,32.980 C6.905,32.980 1.693,32.980 1.693,32.980 C0.755,32.980 -0.007,33.449 -0.007,34.028 C-0.007,34.608 0.755,35.077 1.693,35.077 C1.693,35.077 6.905,35.077 6.905,35.077 Z" id="path-22" class="cls-3" fill-rule="evenodd"/>
  </g>
</svg>
