<svg xmlns="http://www.w3.org/2000/svg" xmlns:xlink="http://www.w3.org/1999/xlink" preserveAspectRatio="xMidYMid" width="58" height="61" viewBox="0 0 58 61">
  <defs>
    <style>

      .cls-3 {
        fill: #ff3a2f;
      }

      .cls-5 {
        fill: #fbb713;
      }

      .cls-6 {
        fill: #000000;
        opacity: 0.35;
      }

      .cls-7 {
        fill: #142a3b;
      }

      .cls-13 {
        fill: #ededed;
      }
    </style>
  </defs>
  <g id="group-244svg">
    <path d="M31.532,59.363 C31.532,59.363 35.821,59.363 35.821,59.363 C36.648,59.363 37.319,58.903 37.319,58.337 C37.319,57.769 36.648,57.310 35.821,57.310 C35.821,57.310 35.622,57.310 35.622,57.310 C34.795,57.310 34.125,56.851 34.125,56.284 C34.125,55.716 34.795,55.257 35.622,55.257 C35.622,55.257 44.842,55.257 44.842,55.257 C45.669,55.257 46.339,54.797 46.339,54.230 C46.339,53.663 45.669,53.204 44.842,53.204 C44.842,53.204 33.762,53.204 33.762,53.204 C33.762,53.204 11.114,53.204 11.114,53.204 C10.288,53.204 9.617,53.663 9.617,54.230 C9.617,54.797 10.288,55.257 11.114,55.257 C11.114,55.257 13.674,55.257 13.674,55.257 C14.500,55.257 15.171,55.716 15.171,56.284 C15.171,56.851 14.500,57.310 13.674,57.310 C13.674,57.310 1.496,57.310 1.496,57.310 C0.669,57.310 -0.002,57.769 -0.002,58.337 C-0.002,58.903 0.669,59.363 1.496,59.363 C1.496,59.363 4.374,59.363 4.374,59.363 C4.374,59.363 31.532,59.363 31.532,59.363 Z" id="path-1" class="cls-3" fill-rule="evenodd"/>
    <path d="M49.602,57.638 C50.570,57.638 51.356,58.165 51.356,58.815 C51.356,59.465 50.570,59.992 49.602,59.992 C49.602,59.992 44.226,59.992 44.226,59.992 C43.258,59.992 42.472,59.465 42.472,58.815 C42.472,58.165 43.258,57.638 44.226,57.638 C44.226,57.638 49.602,57.638 49.602,57.638 Z" id="path-2" class="cls-3" fill-rule="evenodd"/>
    <path d="M45.496,55.587 C51.795,55.587 56.900,50.481 56.900,44.183 C56.900,44.183 34.092,44.183 34.092,44.183 C34.092,50.481 39.198,55.587 45.496,55.587 Z" id="path-3" class="cls-5" fill-rule="evenodd"/>
    <path d="M52.857,44.183 C52.857,49.790 48.807,54.442 43.475,55.397 C44.132,55.515 44.806,55.587 45.496,55.587 C51.795,55.587 56.900,50.481 56.900,44.183 C56.900,44.183 52.857,44.183 52.857,44.183 Z" id="path-4" class="cls-6" fill-rule="evenodd"/>
    <path d="M36.943,44.753 C36.943,44.753 34.092,44.753 34.092,44.753 C34.092,44.753 34.092,1.988 34.092,1.988 C34.092,1.988 36.943,1.988 36.943,1.988 C36.943,1.988 36.943,44.753 36.943,44.753 Z" id="path-5" class="cls-7" fill-rule="evenodd"/>
    <path d="M31.375,5.698 C31.375,5.698 31.347,5.670 31.347,5.670 C30.631,4.953 30.631,3.793 31.347,3.077 C31.347,3.077 33.794,0.629 33.794,0.629 C34.510,-0.086 35.671,-0.086 36.387,0.629 C36.387,0.629 36.414,0.658 36.414,0.658 C37.131,1.374 37.131,2.534 36.414,3.250 C36.414,3.250 33.967,5.698 33.967,5.698 C33.251,6.414 32.091,6.414 31.375,5.698 Z" id="path-6" class="cls-7" fill-rule="evenodd"/>
    <path d="M19.631,32.741 C19.631,32.741 16.164,32.741 16.164,32.741 C16.164,32.741 16.164,20.158 16.164,20.158 C16.164,20.158 19.631,20.158 19.631,20.158 C19.631,20.158 19.631,32.741 19.631,32.741 Z" id="path-7" class="cls-7" fill-rule="evenodd"/>
    <path d="M15.477,31.741 C15.477,31.741 15.477,52.310 15.477,52.310 C15.477,53.647 16.561,54.732 17.897,54.732 C19.234,54.732 20.318,53.647 20.318,52.310 C20.318,52.310 20.318,31.741 20.318,31.741 C20.318,31.741 15.477,31.741 15.477,31.741 Z" id="path-8" class="cls-7" fill-rule="evenodd"/>
    <path d="M10.508,-0.008 C10.508,-0.008 10.508,10.520 10.508,10.520 C10.508,17.674 13.332,23.474 16.816,23.474 C16.816,23.474 18.978,23.474 18.978,23.474 C22.463,23.474 25.287,17.674 25.287,10.520 C25.287,10.520 25.287,-0.008 25.287,-0.008 C25.287,-0.008 10.508,-0.008 10.508,-0.008 Z" id="path-9" class="cls-5" fill-rule="evenodd"/>
    <path d="M23.266,-0.008 C23.266,-0.008 23.266,9.509 23.266,9.509 C23.266,16.663 20.440,22.463 16.956,22.463 C16.956,22.463 14.795,22.463 14.795,22.463 C14.634,22.463 14.477,22.438 14.318,22.414 C15.085,23.093 15.929,23.474 16.816,23.474 C16.816,23.474 18.978,23.474 18.978,23.474 C22.463,23.474 25.287,17.674 25.287,10.520 C25.287,10.520 25.287,-0.008 25.287,-0.008 C25.287,-0.008 23.266,-0.008 23.266,-0.008 Z" id="path-10" class="cls-6" fill-rule="evenodd"/>
    <path d="M13.503,13.611 C12.950,13.611 12.503,13.163 12.503,12.611 C12.503,12.611 12.503,3.163 12.503,3.163 C12.503,2.611 12.950,2.163 13.503,2.163 C14.056,2.163 14.503,2.611 14.503,3.163 C14.503,3.163 14.503,12.611 14.503,12.611 C14.503,13.163 14.056,13.611 13.503,13.611 Z" id="path-11" class="cls-13" fill-rule="evenodd"/>
  </g>
</svg>
