<svg xmlns="http://www.w3.org/2000/svg" xmlns:xlink="http://www.w3.org/1999/xlink" preserveAspectRatio="xMidYMid" width="61" height="49" viewBox="0 0 61 49">
  <defs>
    <style>

      .cls-3 {
        fill: #fbb713;
      }

      .cls-4 {
        fill: #ffffff;
      }

      .cls-5 {
        fill: #ff3a2f;
      }

      .cls-6 {
        fill: #020403;
        opacity: 0.25;
      }

      .cls-7 {
        fill: #020403;
        opacity: 0.35;
      }

      .cls-9 {
        fill: #142a3b;
      }

      .cls-10 {
        fill: #0cb04a;
      }
    </style>
  </defs>
  <g id="group-84svg">
    <path d="M30.512,11.941 C16.574,11.941 5.276,23.335 5.276,37.177 C5.276,37.177 55.747,37.177 55.747,37.177 C55.747,23.335 44.448,11.941 30.512,11.941 Z" id="path-1" class="cls-3" fill-rule="evenodd"/>
    <path d="M11.146,33.229 C10.594,33.229 10.146,32.781 10.146,32.229 C10.146,23.219 17.477,15.889 26.487,15.889 C27.040,15.889 27.487,16.336 27.487,16.889 C27.487,17.441 27.040,17.888 26.487,17.888 C18.580,17.888 12.146,24.321 12.146,32.229 C12.146,32.781 11.699,33.229 11.146,33.229 Z" id="path-2" class="cls-4" fill-rule="evenodd"/>
    <path d="M35.788,5.269 C35.788,8.183 33.426,10.545 30.512,10.545 C27.598,10.545 25.235,8.183 25.235,5.269 C25.235,2.355 27.598,-0.008 30.512,-0.008 C33.426,-0.008 35.788,2.355 35.788,5.269 Z" id="path-3" class="cls-5" fill-rule="evenodd"/>
    <path d="M41.545,14.494 C42.655,15.465 43.681,16.531 44.607,17.679 C49.729,24.022 45.128,33.485 36.975,33.485 C36.975,33.485 5.551,33.485 5.551,33.485 C5.372,34.692 5.276,35.924 5.276,37.177 C5.276,37.177 55.747,37.177 55.747,37.177 C55.747,27.265 49.952,18.611 41.545,14.494 Z" id="path-4" class="cls-6" fill-rule="evenodd"/>
    <path d="M33.200,0.734 C33.669,1.523 33.942,2.440 33.942,3.423 C33.942,6.338 31.580,8.700 28.666,8.700 C27.683,8.700 26.766,8.426 25.977,7.958 C26.897,9.505 28.581,10.545 30.512,10.545 C33.426,10.545 35.788,8.183 35.788,5.269 C35.788,3.338 34.748,1.655 33.200,0.734 Z" id="path-5" class="cls-7" fill-rule="evenodd"/>
    <path d="M29.783,4.663 C29.207,5.239 28.273,5.239 27.697,4.663 C27.121,4.087 27.121,3.152 27.697,2.577 C28.273,2.001 29.207,2.001 29.783,2.577 C30.359,3.152 30.359,4.087 29.783,4.663 Z" id="path-6" class="cls-4" fill-rule="evenodd"/>
    <path d="M59.992,40.703 C59.992,40.703 1.378,40.703 1.378,40.703 C1.378,40.703 1.378,37.202 1.378,37.202 C1.378,37.202 59.992,37.202 59.992,37.202 C59.992,37.202 59.992,40.703 59.992,40.703 Z" id="path-7" class="cls-9" fill-rule="evenodd"/>
    <path d="M11.341,39.994 C11.341,39.994 8.054,39.994 8.054,39.994 C7.420,39.994 6.906,40.591 6.906,41.328 C6.906,42.065 7.420,42.663 8.054,42.663 C8.054,42.663 8.206,42.663 8.206,42.663 C8.840,42.663 9.353,43.260 9.353,43.997 C9.353,44.734 8.840,45.332 8.206,45.332 C8.206,45.332 1.140,45.332 1.140,45.332 C0.506,45.332 -0.008,45.929 -0.008,46.666 C-0.008,47.403 0.506,48.000 1.140,48.000 C1.140,48.000 9.632,48.000 9.632,48.000 C9.632,48.000 26.989,48.000 26.989,48.000 C27.623,48.000 28.137,47.403 28.137,46.666 C28.137,45.929 27.623,45.332 26.989,45.332 C26.989,45.332 25.028,45.332 25.028,45.332 C24.395,45.332 23.881,44.734 23.881,43.997 C23.881,43.260 24.395,42.663 25.028,42.663 C25.028,42.663 34.362,42.663 34.362,42.663 C34.996,42.663 35.510,42.065 35.510,41.328 C35.510,40.591 34.996,39.994 34.362,39.994 C34.362,39.994 32.156,39.994 32.156,39.994 C32.156,39.994 11.341,39.994 11.341,39.994 Z" id="path-8" class="cls-10" fill-rule="evenodd"/>
    <path d="M39.492,47.865 C38.450,47.865 37.606,47.448 37.606,46.935 C37.606,46.421 38.450,46.004 39.492,46.004 C39.492,46.004 45.271,46.004 45.271,46.004 C46.312,46.004 47.157,46.421 47.157,46.935 C47.157,47.448 46.312,47.865 45.271,47.865 C45.271,47.865 39.492,47.865 39.492,47.865 Z" id="path-9" class="cls-10" fill-rule="evenodd"/>
    <path d="M51.135,7.360 C51.135,7.360 49.958,7.360 49.958,7.360 C49.730,7.360 49.547,7.499 49.547,7.671 C49.547,7.842 49.730,7.981 49.958,7.981 C49.958,7.981 50.013,7.981 50.013,7.981 C50.239,7.981 50.424,8.120 50.424,8.292 C50.424,8.463 50.239,8.602 50.013,8.602 C50.013,8.602 47.481,8.602 47.481,8.602 C47.254,8.602 47.070,8.741 47.070,8.913 C47.070,9.084 47.254,9.223 47.481,9.223 C47.481,9.223 50.523,9.223 50.523,9.223 C50.523,9.223 56.740,9.223 56.740,9.223 C56.968,9.223 57.151,9.084 57.151,8.913 C57.151,8.741 56.968,8.602 56.740,8.602 C56.740,8.602 56.038,8.602 56.038,8.602 C55.811,8.602 55.627,8.463 55.627,8.292 C55.627,8.120 55.811,7.981 56.038,7.981 C56.038,7.981 59.381,7.981 59.381,7.981 C59.608,7.981 59.792,7.842 59.792,7.671 C59.792,7.499 59.608,7.360 59.381,7.360 C59.381,7.360 58.591,7.360 58.591,7.360 C58.591,7.360 51.135,7.360 51.135,7.360 Z" id="path-10" class="cls-10" fill-rule="evenodd"/>
  </g>
</svg>
