<svg xmlns="http://www.w3.org/2000/svg" xmlns:xlink="http://www.w3.org/1999/xlink" preserveAspectRatio="xMidYMid" width="60" height="54" viewBox="0 0 60 54">
  <defs>
    <style>

      .cls-3 {
        fill: #ff3a2f;
      }

      .cls-5 {
        fill: #0cb04a;
      }

      .cls-7 {
        fill: #000000;
        opacity: 0.35;
      }
    </style>
  </defs>
  <g id="group-321svg">
    <path d="M44.496,53.523 C44.496,53.523 48.991,53.523 48.991,53.523 C49.857,53.523 50.560,52.992 50.560,52.336 C50.560,51.680 49.857,51.148 48.991,51.148 C48.991,51.148 48.781,51.148 48.781,51.148 C47.915,51.148 47.213,50.617 47.213,49.961 C47.213,49.305 47.915,48.773 48.781,48.773 C48.781,48.773 58.443,48.773 58.443,48.773 C59.310,48.773 60.012,48.242 60.012,47.586 C60.012,46.930 59.310,46.398 58.443,46.398 C58.443,46.398 46.832,46.398 46.832,46.398 C46.832,46.398 23.101,46.398 23.101,46.398 C22.234,46.398 21.532,46.930 21.532,47.586 C21.532,48.242 22.234,48.773 23.101,48.773 C23.101,48.773 25.782,48.773 25.782,48.773 C26.648,48.773 27.352,49.305 27.352,49.961 C27.352,50.617 26.648,51.148 25.782,51.148 C25.782,51.148 15.251,51.148 15.251,51.148 C14.385,51.148 13.683,51.680 13.683,52.336 C13.683,52.992 14.385,53.523 15.251,53.523 C15.251,53.523 16.037,53.523 16.037,53.523 C16.037,53.523 44.496,53.523 44.496,53.523 Z" id="path-1" class="cls-3" fill-rule="evenodd"/>
    <path d="M16.623,46.081 C17.350,46.081 17.938,46.650 17.938,47.353 C17.938,48.055 17.350,48.625 16.623,48.625 C16.623,48.625 12.593,48.625 12.593,48.625 C11.866,48.625 11.277,48.055 11.277,47.353 C11.277,46.650 11.866,46.081 12.593,46.081 C12.593,46.081 16.623,46.081 16.623,46.081 Z" id="path-2" class="cls-3" fill-rule="evenodd"/>
    <path d="M17.051,0.001 C17.051,0.001 0.012,4.261 0.012,4.261 C0.012,4.261 0.012,44.729 0.012,44.729 C0.012,44.729 17.051,40.470 17.051,40.470 C17.051,40.470 31.961,48.989 31.961,48.989 C31.961,48.989 49.000,44.729 49.000,44.729 C49.000,44.729 49.000,4.261 49.000,4.261 C49.000,4.261 31.961,8.521 31.961,8.521 C31.961,8.521 17.051,0.001 17.051,0.001 C17.051,0.001 17.051,0.001 17.051,0.001 Z" id="path-3" class="cls-5" fill-rule="evenodd"/>
    <path d="M31.961,48.989 C31.961,48.989 31.961,8.521 31.961,8.521 C31.961,8.521 17.051,0.001 17.051,0.001 C17.051,0.001 17.051,40.470 17.051,40.470 C17.051,40.470 31.961,48.989 31.961,48.989 Z" id="path-4" class="cls-5" fill-rule="evenodd"/>
    <path d="M31.961,48.989 C31.961,48.989 31.961,8.521 31.961,8.521 C31.961,8.521 17.051,0.001 17.051,0.001 C17.051,0.001 17.051,40.470 17.051,40.470 C17.051,40.470 31.961,48.989 31.961,48.989 Z" id="path-5" class="cls-7" fill-rule="evenodd"/>
  </g>
</svg>
