<svg xmlns="http://www.w3.org/2000/svg" xmlns:xlink="http://www.w3.org/1999/xlink" preserveAspectRatio="xMidYMid" width="60" height="30" viewBox="0 0 60 30">
  <defs>
    <style>

      .cls-3 {
        fill: #2476ff;
      }

      .cls-4 {
        fill: #000000;
        opacity: 0.35;
      }

      .cls-7 {
        fill: #142a3b;
      }
    </style>
  </defs>
  <g id="group-276svg">
    <path d="M12.794,20.848 C12.794,14.845 16.012,11.014 20.007,11.014 C21.770,11.014 23.375,11.903 24.631,13.480 C26.059,5.756 30.765,0.002 36.360,0.002 C41.957,0.002 46.665,5.528 48.094,13.252 C50.508,10.220 54.350,8.468 57.751,14.293 C59.259,16.876 60.012,20.265 60.012,23.701 C60.012,23.701 60.012,23.701 60.012,23.701 C60.012,25.578 59.000,27.100 57.751,27.100 C57.751,27.100 15.060,27.100 15.060,27.100 C13.814,27.100 12.804,25.585 12.800,23.713 C12.800,23.713 12.794,20.848 12.794,20.848 Z" id="path-1" class="cls-3" fill-rule="evenodd"/>
    <path d="M42.191,14.728 C43.678,12.861 45.704,11.483 47.836,12.054 C46.162,4.965 41.662,0.002 36.360,0.002 C34.632,0.002 32.988,0.555 31.499,1.542 C36.631,2.179 40.853,7.487 42.191,14.728 Z" id="path-2" class="cls-4" fill-rule="evenodd"/>
    <path d="M19.799,11.026 C18.277,11.078 16.880,11.688 15.737,12.764 C16.855,13.137 17.874,13.882 18.728,14.955 C18.983,13.574 19.348,12.259 19.799,11.026 Z" id="path-3" class="cls-4" fill-rule="evenodd"/>
    <path d="M57.751,14.293 C54.664,9.006 51.216,9.961 48.799,12.449 C49.822,13.014 50.853,14.065 51.849,15.768 C53.356,18.352 54.109,21.741 54.109,25.177 C54.109,25.892 53.962,26.553 53.711,27.100 C53.711,27.100 57.751,27.100 57.751,27.100 C59.000,27.100 60.012,25.578 60.012,23.701 C60.012,20.265 59.259,16.876 57.751,14.293 Z" id="path-4" class="cls-4" fill-rule="evenodd"/>
    <path d="M14.911,23.573 C14.911,23.573 10.596,23.573 10.596,23.573 C9.764,23.573 9.089,24.064 9.089,24.671 C9.089,25.278 9.764,25.769 10.596,25.769 C10.596,25.769 10.796,25.769 10.796,25.769 C11.628,25.769 12.303,26.261 12.303,26.868 C12.303,27.474 11.628,27.966 10.796,27.966 C10.796,27.966 1.518,27.966 1.518,27.966 C0.686,27.966 0.012,28.458 0.012,29.064 C0.012,29.671 0.686,30.163 1.518,30.163 C1.518,30.163 12.668,30.163 12.668,30.163 C12.668,30.163 35.457,30.163 35.457,30.163 C36.289,30.163 36.964,29.671 36.964,29.064 C36.964,28.458 36.289,27.966 35.457,27.966 C35.457,27.966 32.883,27.966 32.883,27.966 C32.051,27.966 31.376,27.474 31.376,26.868 C31.376,26.261 32.051,25.769 32.883,25.769 C32.883,25.769 42.995,25.769 42.995,25.769 C43.827,25.769 44.502,25.278 44.502,24.671 C44.502,24.064 43.827,23.573 42.995,23.573 C42.995,23.573 42.240,23.573 42.240,23.573 C42.240,23.573 14.911,23.573 14.911,23.573 Z" id="path-5" class="cls-7" fill-rule="evenodd"/>
    <path d="M41.440,30.262 C40.854,30.262 40.380,29.914 40.380,29.485 C40.380,29.055 40.854,28.708 41.440,28.708 C41.440,28.708 44.693,28.708 44.693,28.708 C45.279,28.708 45.755,29.055 45.755,29.485 C45.755,29.914 45.279,30.262 44.693,30.262 C44.693,30.262 41.440,30.262 41.440,30.262 Z" id="path-6" class="cls-7" fill-rule="evenodd"/>
  </g>
</svg>
