<svg xmlns="http://www.w3.org/2000/svg" xmlns:xlink="http://www.w3.org/1999/xlink" preserveAspectRatio="xMidYMid" width="60" height="60" viewBox="0 0 60 60">
  <defs>
    <style>

      .cls-3 {
        fill: #fbb713;
      }

      .cls-6 {
        fill: #142a3b;
      }

      .cls-7 {
        fill: #090908;
        opacity: 0.35;
      }

      .cls-9 {
        fill: #ff3a2f;
      }

      .cls-10 {
        fill: #ededed;
      }
    </style>
  </defs>
  <g id="group-194svg">
    <path d="M19.353,51.312 C19.353,51.312 13.746,51.312 13.746,51.312 C12.666,51.312 11.789,51.951 11.789,52.739 C11.789,53.527 12.666,54.166 13.746,54.166 C13.746,54.166 14.008,54.166 14.008,54.166 C15.088,54.166 15.965,54.805 15.965,55.592 C15.965,56.381 15.088,57.020 14.008,57.020 C14.008,57.020 1.956,57.020 1.956,57.020 C0.875,57.020 -0.001,57.658 -0.001,58.446 C-0.001,59.234 0.875,59.872 1.956,59.872 C1.956,59.872 16.438,59.872 16.438,59.872 C16.438,59.872 46.041,59.872 46.041,59.872 C47.122,59.872 47.998,59.234 47.998,58.446 C47.998,57.658 47.122,57.020 46.041,57.020 C46.041,57.020 42.696,57.020 42.696,57.020 C41.615,57.020 40.739,56.381 40.739,55.592 C40.739,54.805 41.615,54.166 42.696,54.166 C42.696,54.166 55.832,54.166 55.832,54.166 C56.913,54.166 57.789,53.527 57.789,52.739 C57.789,51.951 56.913,51.312 55.832,51.312 C55.832,51.312 54.852,51.312 54.852,51.312 C54.852,51.312 19.353,51.312 19.353,51.312 Z" id="path-1" class="cls-3" fill-rule="evenodd"/>
    <path d="M53.813,60.001 C53.052,60.001 52.434,59.549 52.434,58.991 C52.434,58.434 53.052,57.982 53.813,57.982 C53.813,57.982 58.038,57.982 58.038,57.982 C58.800,57.982 59.417,58.434 59.417,58.991 C59.417,59.549 58.800,60.001 58.038,60.001 C58.038,60.001 53.813,60.001 53.813,60.001 Z" id="path-2" class="cls-3" fill-rule="evenodd"/>
    <path d="M4.316,54.537 C3.555,54.537 2.937,54.085 2.937,53.528 C2.937,52.971 3.555,52.519 4.316,52.519 C4.316,52.519 8.541,52.519 8.541,52.519 C9.303,52.519 9.920,52.971 9.920,53.528 C9.920,54.085 9.303,54.537 8.541,54.537 C8.541,54.537 4.316,54.537 4.316,54.537 Z" id="path-3" class="cls-3" fill-rule="evenodd"/>
    <path d="M27.577,0.001 C27.577,0.001 31.839,0.001 31.839,0.001 C33.701,0.001 35.046,1.784 34.534,3.574 C34.534,3.574 33.508,7.165 33.508,7.165 C33.474,7.277 33.481,7.392 33.481,7.507 C33.481,7.507 33.459,7.507 33.459,7.507 C33.459,7.507 25.953,7.507 25.953,7.507 C25.953,7.507 25.934,7.507 25.934,7.507 C25.934,7.392 25.938,7.277 25.906,7.165 C25.906,7.165 24.881,3.574 24.881,3.574 C24.370,1.783 25.715,0.001 27.577,0.001 Z" id="path-4" class="cls-6" fill-rule="evenodd"/>
    <path d="M32.517,0.084 C32.639,0.546 32.654,1.046 32.511,1.550 C32.511,1.550 32.047,3.561 31.728,4.707 C31.601,5.165 31.186,5.483 30.711,5.483 C30.711,5.483 25.427,5.483 25.427,5.483 C25.427,5.483 25.906,7.165 25.906,7.165 C25.938,7.277 25.934,7.392 25.934,7.507 C25.934,7.507 25.953,7.507 25.953,7.507 C25.953,7.507 33.459,7.507 33.459,7.507 C33.459,7.507 33.481,7.507 33.481,7.507 C33.481,7.392 33.474,7.277 33.508,7.165 C33.508,7.165 34.534,3.574 34.534,3.574 C34.981,2.011 34.012,0.453 32.517,0.084 Z" id="path-5" class="cls-7" fill-rule="evenodd"/>
    <path d="M41.448,23.343 C39.405,21.560 36.974,20.202 34.263,19.451 C34.263,19.451 34.263,10.009 34.263,10.009 C34.263,10.009 36.765,10.009 36.765,10.009 C37.459,10.009 38.016,9.450 38.016,8.757 C38.016,8.066 37.459,7.507 36.765,7.507 C36.765,7.507 21.752,7.507 21.752,7.507 C21.062,7.507 20.501,8.066 20.501,8.757 C20.501,9.450 21.062,10.009 21.752,10.009 C21.752,10.009 24.254,10.009 24.254,10.009 C24.254,10.009 24.254,19.451 24.254,19.451 C19.582,20.745 13.900,27.736 14.203,27.688 C12.446,30.497 11.415,33.807 11.415,37.363 C11.415,47.467 19.604,55.657 29.708,55.657 C39.810,55.657 48.001,47.467 48.001,37.363 C48.001,31.731 45.451,26.698 41.448,23.343 Z" id="path-6" class="cls-3" fill-rule="evenodd"/>
    <path d="M47.158,31.885 C45.026,32.467 42.900,32.719 40.786,32.719 C36.960,32.719 33.180,31.980 29.469,31.253 C23.686,30.120 18.192,29.088 12.710,30.654 C11.883,32.731 11.415,34.990 11.415,37.363 C11.415,47.467 19.604,55.657 29.708,55.657 C39.810,55.657 48.001,47.467 48.001,37.363 C48.001,35.453 47.701,33.615 47.158,31.885 Z" id="path-7" class="cls-9" fill-rule="evenodd"/>
    <path d="M23.951,51.689 C23.843,51.689 23.731,51.671 23.623,51.634 C18.503,49.857 14.651,45.662 13.320,40.414 C13.185,39.879 13.509,39.335 14.044,39.200 C14.576,39.064 15.123,39.387 15.260,39.923 C16.424,44.517 19.796,48.188 24.279,49.744 C24.801,49.925 25.077,50.495 24.896,51.016 C24.753,51.430 24.365,51.689 23.951,51.689 Z" id="path-8" class="cls-10" fill-rule="evenodd"/>
    <path d="M41.448,23.343 C39.405,21.560 36.974,20.202 34.263,19.451 C34.263,19.451 34.263,10.009 34.263,10.009 C34.263,10.009 36.765,10.009 36.765,10.009 C37.459,10.009 38.016,9.450 38.016,8.758 C38.016,8.066 37.459,7.507 36.765,7.507 C36.765,7.507 32.717,7.507 32.717,7.507 C33.411,7.507 33.968,8.066 33.968,8.758 C33.968,9.450 33.411,10.009 32.717,10.009 C32.717,10.009 30.215,10.009 30.215,10.009 C30.215,10.009 30.215,19.451 30.215,19.451 C32.926,20.202 35.357,21.560 37.401,23.343 C41.404,26.698 43.953,31.731 43.953,37.363 C43.953,46.782 36.834,54.530 27.684,55.539 C28.350,55.612 29.023,55.656 29.708,55.656 C39.810,55.656 48.001,47.467 48.001,37.363 C48.001,31.731 45.451,26.698 41.448,23.343 Z" id="path-9" class="cls-7" fill-rule="evenodd"/>
    <path d="M47.158,31.885 C45.026,32.467 42.900,32.719 40.786,32.719 C36.960,32.719 33.180,31.980 29.469,31.253 C23.686,30.120 18.192,29.088 12.710,30.654 C12.671,30.753 12.643,30.857 12.605,30.957 C16.791,30.603 21.023,31.403 25.421,32.265 C29.132,32.993 32.912,33.730 36.738,33.730 C38.852,33.730 40.979,33.478 43.110,32.896 C43.654,34.627 43.953,36.465 43.953,38.375 C43.953,46.213 39.016,52.880 32.089,55.484 C41.064,54.315 48.001,46.658 48.001,37.363 C48.001,35.453 47.701,33.615 47.158,31.885 Z" id="path-10" class="cls-7" fill-rule="evenodd"/>
    <path d="M19.116,28.448 C18.651,28.448 18.231,28.122 18.130,27.655 C17.856,26.391 22.578,21.830 25.772,20.471 C25.772,20.471 25.772,13.982 25.772,13.982 C25.772,13.430 26.220,12.982 26.772,12.982 C27.325,12.982 27.772,13.430 27.772,13.982 C27.772,13.982 27.772,21.934 27.772,21.934 C27.772,21.934 27.040,22.138 27.040,22.138 C24.196,22.926 20.620,27.000 20.052,27.801 C19.929,28.127 19.640,28.379 19.271,28.436 C19.220,28.445 19.168,28.448 19.116,28.448 Z" id="path-11" class="cls-10" fill-rule="evenodd"/>
    <path d="M47.391,26.489 C47.391,26.489 49.107,26.489 49.107,26.489 C49.438,26.489 49.706,26.700 49.706,26.960 C49.706,27.220 49.438,27.431 49.107,27.431 C49.107,27.431 49.027,27.431 49.027,27.431 C48.696,27.431 48.428,27.642 48.428,27.903 C48.428,28.163 48.696,28.374 49.027,28.374 C49.027,28.374 52.718,28.374 52.718,28.374 C53.049,28.374 53.316,28.585 53.316,28.845 C53.316,29.105 53.049,29.316 52.718,29.316 C52.718,29.316 48.282,29.316 48.282,29.316 C48.282,29.316 39.218,29.316 39.218,29.316 C38.887,29.316 38.619,29.105 38.619,28.845 C38.619,28.585 38.887,28.374 39.218,28.374 C39.218,28.374 40.242,28.374 40.242,28.374 C40.573,28.374 40.842,28.163 40.842,27.903 C40.842,27.642 40.573,27.431 40.242,27.431 C40.242,27.431 35.368,27.431 35.368,27.431 C35.037,27.431 34.768,27.220 34.768,26.960 C34.768,26.700 35.037,26.489 35.368,26.489 C35.368,26.489 36.519,26.489 36.519,26.489 C36.519,26.489 47.391,26.489 47.391,26.489 Z" id="path-12" class="cls-9" fill-rule="evenodd"/>
  </g>
</svg>
