<svg xmlns="http://www.w3.org/2000/svg" xmlns:xlink="http://www.w3.org/1999/xlink" preserveAspectRatio="xMidYMid" width="59" height="60" viewBox="0 0 59 60">
  <defs>
    <style>

      .cls-3 {
        fill: #2476ff;
      }

      .cls-4 {
        fill: #fbb713;
      }

      .cls-5 {
        fill: #000000;
        opacity: 0.35;
      }

      .cls-6 {
        fill: #142a3b;
      }

      .cls-7 {
        fill: #ff3a2f;
      }

      .cls-9 {
        fill: #efefef;
      }

      .cls-13 {
        fill: #ffffff;
      }

      .cls-17 {
        fill: #010101;
        opacity: 0.35;
      }
    </style>
  </defs>
  <g id="group-143svg">
    <path d="M40.941,41.644 C40.941,41.644 48.127,41.644 48.127,41.644 C49.393,41.644 50.419,42.465 50.419,43.479 C50.419,44.492 49.393,45.313 48.127,45.313 C48.127,45.313 47.810,45.313 47.810,45.313 C47.810,45.313 44.894,45.313 44.894,45.313 C43.629,45.313 42.603,46.135 42.603,47.148 C42.603,48.161 43.629,48.982 44.894,48.982 C44.894,48.982 51.833,48.982 51.833,48.982 C53.099,48.982 54.125,49.804 54.125,50.817 C54.125,51.830 53.099,52.651 51.833,52.651 C51.833,52.651 43.946,52.651 43.946,52.651 C43.946,52.651 42.623,52.584 42.623,52.584 C41.358,52.584 40.332,53.405 40.332,54.419 C40.332,55.432 41.358,56.253 42.623,56.253 C42.623,56.253 49.561,56.253 49.561,56.253 C50.828,56.253 51.854,57.075 51.854,58.088 C51.854,59.100 50.828,59.922 49.561,59.922 C49.561,59.922 24.333,59.989 24.333,59.989 C23.067,59.989 22.041,59.168 22.041,58.155 C22.041,57.141 23.067,56.320 24.333,56.320 C24.333,56.320 31.271,56.320 31.271,56.320 C32.537,56.320 33.563,55.499 33.563,54.486 C33.563,53.472 32.537,52.651 31.271,52.651 C31.271,52.651 14.030,52.651 14.030,52.651 C14.030,52.651 6.144,52.651 6.144,52.651 C4.878,52.651 3.852,51.830 3.852,50.817 C3.852,49.804 4.878,48.982 6.144,48.982 C6.144,48.982 13.082,48.982 13.082,48.982 C14.348,48.982 15.374,48.161 15.374,47.148 C15.374,46.135 14.348,45.313 13.082,45.313 C13.082,45.313 10.166,45.313 10.166,45.313 C10.166,45.313 2.280,45.313 2.280,45.313 C1.014,45.313 -0.012,44.492 -0.012,43.479 C-0.012,42.465 1.014,41.644 2.280,41.644 C2.280,41.644 17.036,41.644 17.036,41.644 C17.036,41.644 40.941,41.644 40.941,41.644 Z" id="path-1" class="cls-3" fill-rule="evenodd"/>
    <path d="M39.421,47.973 C39.421,47.973 18.225,47.973 18.225,47.973 C18.225,47.973 10.654,11.762 10.654,11.762 C10.654,11.762 46.991,11.762 46.991,11.762 C46.991,11.762 39.421,47.973 39.421,47.973 Z" id="path-2" class="cls-4" fill-rule="evenodd"/>
    <path d="M43.598,28.308 C41.637,30.670 39.513,32.563 36.664,33.806 C36.664,33.806 36.664,32.981 36.664,32.981 C36.664,32.981 23.100,32.981 23.100,32.981 C23.100,32.981 23.100,34.590 23.100,34.590 C19.372,33.456 16.686,31.668 14.250,28.746 C14.250,28.746 14.473,29.811 14.473,29.811 C16.760,32.964 19.381,34.992 23.100,36.355 C23.100,36.355 23.100,37.649 23.100,37.649 C23.100,37.649 36.664,37.649 36.664,37.649 C36.664,37.649 36.664,36.337 36.664,36.337 C39.062,35.451 40.872,34.126 42.734,32.442 C42.734,32.442 43.598,28.308 43.598,28.308 Z" id="path-3" class="cls-5" fill-rule="evenodd"/>
    <path d="M28.823,33.264 C17.384,33.264 8.077,23.958 8.077,12.519 C8.077,12.163 8.086,11.810 8.104,11.458 C8.104,11.458 8.153,10.509 8.153,10.509 C8.153,10.509 13.208,10.509 13.208,10.509 C13.208,10.509 13.208,12.510 13.208,12.510 C13.208,12.510 10.077,12.510 10.077,12.510 C10.077,12.513 10.077,12.516 10.077,12.519 C10.077,22.855 18.486,31.265 28.823,31.265 C39.159,31.265 47.568,22.855 47.568,12.519 C47.568,12.516 47.568,12.513 47.568,12.510 C47.568,12.510 45.951,12.510 45.951,12.510 C45.951,12.510 45.951,10.509 45.951,10.509 C45.951,10.509 49.495,10.509 49.495,10.509 C49.495,10.509 49.541,11.460 49.541,11.460 C49.559,11.811 49.568,12.164 49.568,12.519 C49.568,23.958 40.262,33.264 28.823,33.264 Z" id="path-4" class="cls-6" fill-rule="evenodd"/>
    <path d="M35.604,33.414 C35.604,33.414 22.041,33.414 22.041,33.414 C22.041,33.414 22.041,28.746 22.041,28.746 C22.041,28.746 35.604,28.746 35.604,28.746 C35.604,28.746 35.604,33.414 35.604,33.414 Z" id="path-5" class="cls-7" fill-rule="evenodd"/>
    <path d="M42.028,7.266 C40.812,7.266 39.700,7.731 38.837,8.499 C37.748,6.212 35.515,4.640 32.930,4.640 C29.585,4.640 26.827,7.269 26.383,10.679 C25.749,9.380 24.482,8.481 23.004,8.481 C22.259,8.481 21.570,8.716 20.982,9.106 C20.072,7.982 18.723,7.266 17.214,7.266 C14.473,7.266 12.251,9.618 12.251,12.519 C12.251,12.519 46.991,12.519 46.991,12.519 C46.991,9.618 44.769,7.266 42.028,7.266 Z" id="path-6" class="cls-3" fill-rule="evenodd"/>
    <path d="M28.823,11.039 C28.802,11.039 28.780,11.037 28.758,11.034 C28.484,10.999 28.291,10.748 28.327,10.474 C28.693,7.665 31.000,5.546 33.693,5.546 C35.755,5.546 37.612,6.755 38.539,8.702 C38.658,8.951 38.552,9.249 38.302,9.369 C38.052,9.487 37.754,9.381 37.636,9.132 C36.876,7.537 35.366,6.546 33.693,6.546 C31.501,6.546 29.621,8.290 29.318,10.604 C29.286,10.855 29.071,11.039 28.823,11.039 Z" id="path-7" class="cls-9" fill-rule="evenodd"/>
    <path d="M13.642,12.521 C13.390,12.521 13.174,12.331 13.146,12.075 C12.970,10.445 13.984,8.938 15.504,8.571 C15.773,8.506 16.043,8.671 16.107,8.939 C16.172,9.208 16.007,9.478 15.739,9.543 C14.705,9.793 14.018,10.835 14.140,11.966 C14.170,12.242 13.971,12.488 13.697,12.518 C13.678,12.520 13.660,12.521 13.642,12.521 Z" id="path-8" class="cls-9" fill-rule="evenodd"/>
    <path d="M58.220,11.510 C58.220,13.287 56.780,14.727 55.003,14.727 C53.226,14.727 51.786,13.287 51.786,11.510 C51.786,9.733 53.226,8.292 55.003,8.292 C56.780,8.292 58.220,9.733 58.220,11.510 Z" id="path-9" class="cls-3" fill-rule="evenodd"/>
    <path d="M6.965,7.305 C6.965,8.606 5.910,9.661 4.609,9.661 C3.308,9.661 2.253,8.606 2.253,7.305 C2.253,6.004 3.308,4.949 4.609,4.949 C5.910,4.949 6.965,6.004 6.965,7.305 Z" id="path-10" class="cls-3" fill-rule="evenodd"/>
    <path d="M5.196,6.707 C5.196,7.325 4.695,7.827 4.076,7.827 C3.458,7.827 2.956,7.325 2.956,6.707 C2.956,6.089 3.458,5.587 4.076,5.587 C4.695,5.587 5.196,6.089 5.196,6.707 Z" id="path-11" class="cls-13" fill-rule="evenodd"/>
    <path d="M57.243,10.539 C57.243,11.158 56.741,11.659 56.123,11.659 C55.504,11.659 55.003,11.158 55.003,10.539 C55.003,9.921 55.504,9.419 56.123,9.419 C56.741,9.419 57.243,9.921 57.243,10.539 Z" id="path-12" class="cls-13" fill-rule="evenodd"/>
    <path d="M18.446,1.996 C18.446,3.105 17.547,4.003 16.439,4.003 C15.331,4.003 14.432,3.105 14.432,1.996 C14.432,0.888 15.331,-0.011 16.439,-0.011 C17.547,-0.011 18.446,0.888 18.446,1.996 Z" id="path-13" class="cls-3" fill-rule="evenodd"/>
    <path d="M48.032,3.056 C48.032,3.631 47.566,4.098 46.991,4.098 C46.416,4.098 45.951,3.631 45.951,3.056 C45.951,2.482 46.416,2.016 46.991,2.016 C47.566,2.016 48.032,2.482 48.032,3.056 Z" id="path-14" class="cls-3" fill-rule="evenodd"/>
    <path d="M40.744,41.644 C40.744,41.644 39.421,47.973 39.421,47.973 C39.421,47.973 18.225,47.973 18.225,47.973 C18.225,47.973 18.225,49.331 18.225,49.331 C18.225,49.331 38.999,50.048 38.999,50.048 C39.833,50.076 40.579,49.453 40.810,48.532 C40.810,48.532 43.598,41.644 43.598,41.644 C43.598,41.644 40.744,41.644 40.744,41.644 Z" id="path-15" class="cls-17" fill-rule="evenodd"/>
  </g>
</svg>
