<svg xmlns="http://www.w3.org/2000/svg" xmlns:xlink="http://www.w3.org/1999/xlink" preserveAspectRatio="xMidYMid" width="39" height="60" viewBox="0 0 39 60">
  <defs>
    <style>

      .cls-3 {
        fill: #0cb04a;
      }

      .cls-7 {
        fill: #142a3b;
      }

      .cls-8 {
        fill: #000000;
        opacity: 0.35;
      }

      .cls-9 {
        fill: #ff3a2f;
      }

      .cls-15 {
        fill: #fbb713;
      }

      .cls-16 {
        fill: #ededed;
      }

      .cls-17 {
        fill: #000000;
        opacity: 0.25;
      }

      .cls-18 {
        fill: #ffffff;
      }
    </style>
  </defs>
  <g id="group-254svg">
    <path d="M12.963,54.183 C12.963,54.183 9.336,54.183 9.336,54.183 C8.637,54.183 8.069,54.612 8.069,55.142 C8.069,55.671 8.637,56.099 9.336,56.099 C9.336,56.099 9.505,56.099 9.505,56.099 C10.204,56.099 10.770,56.528 10.770,57.058 C10.770,57.587 10.204,58.017 9.505,58.017 C9.505,58.017 1.708,58.017 1.708,58.017 C1.009,58.017 0.442,58.445 0.442,58.974 C0.442,59.504 1.009,59.933 1.708,59.933 C1.708,59.933 11.078,59.933 11.078,59.933 C11.078,59.933 30.228,59.933 30.228,59.933 C30.928,59.933 31.494,59.504 31.494,58.974 C31.494,58.445 30.928,58.017 30.228,58.017 C30.228,58.017 28.064,58.017 28.064,58.017 C27.365,58.017 26.799,57.587 26.799,57.058 C26.799,56.528 27.365,56.099 28.064,56.099 C28.064,56.099 36.562,56.099 36.562,56.099 C37.263,56.099 37.829,55.671 37.829,55.142 C37.829,54.612 37.263,54.183 36.562,54.183 C36.562,54.183 35.929,54.183 35.929,54.183 C35.929,54.183 12.963,54.183 12.963,54.183 Z" id="path-1" class="cls-3" fill-rule="evenodd"/>
    <path d="M34.111,60.007 C33.579,60.007 33.148,59.713 33.148,59.351 C33.148,58.990 33.579,58.696 34.111,58.696 C34.111,58.696 37.061,58.696 37.061,58.696 C37.594,58.696 38.024,58.990 38.024,59.351 C38.024,59.713 37.594,60.007 37.061,60.007 C37.061,60.007 34.111,60.007 34.111,60.007 Z" id="path-2" class="cls-3" fill-rule="evenodd"/>
    <path d="M7.617,51.212 C7.617,51.212 8.651,51.212 8.651,51.212 C8.851,51.212 9.013,51.035 9.013,50.816 C9.013,50.597 8.851,50.420 8.651,50.420 C8.651,50.420 8.604,50.420 8.604,50.420 C8.403,50.420 8.242,50.243 8.242,50.024 C8.242,49.806 8.403,49.628 8.604,49.628 C8.604,49.628 10.827,49.628 10.827,49.628 C11.026,49.628 11.187,49.451 11.187,49.232 C11.187,49.014 11.026,48.836 10.827,48.836 C10.827,48.836 8.154,48.836 8.154,48.836 C8.154,48.836 2.692,48.836 2.692,48.836 C2.493,48.836 2.332,49.014 2.332,49.232 C2.332,49.451 2.493,49.628 2.692,49.628 C2.692,49.628 3.310,49.628 3.310,49.628 C3.510,49.628 3.671,49.806 3.671,50.024 C3.671,50.243 3.510,50.420 3.310,50.420 C3.310,50.420 0.373,50.420 0.373,50.420 C0.174,50.420 0.012,50.597 0.012,50.816 C0.012,51.035 0.174,51.212 0.373,51.212 C0.373,51.212 1.067,51.212 1.067,51.212 C1.067,51.212 7.617,51.212 7.617,51.212 Z" id="path-3" class="cls-3" fill-rule="evenodd"/>
    <path d="M18.046,53.741 C17.460,53.741 16.984,53.281 16.984,52.715 C16.984,52.147 17.460,51.687 18.046,51.687 C18.046,51.687 21.299,51.687 21.299,51.687 C21.885,51.687 22.360,52.147 22.360,52.715 C22.360,53.281 21.885,53.741 21.299,53.741 C21.299,53.741 18.046,53.741 18.046,53.741 Z" id="path-4" class="cls-3" fill-rule="evenodd"/>
    <path d="M20.652,58.337 C20.652,58.337 20.652,58.337 20.652,58.337 C17.014,58.337 14.157,55.217 14.477,51.592 C14.477,51.592 17.751,29.150 17.751,29.150 C17.751,29.150 23.554,29.150 23.554,29.150 C23.554,29.150 26.827,51.592 26.827,51.592 C27.147,55.217 24.291,58.337 20.652,58.337 Z" id="path-5" class="cls-7" fill-rule="evenodd"/>
    <path d="M23.554,29.150 C23.554,29.150 17.751,29.150 17.751,29.150 C17.751,29.150 16.602,37.022 16.602,37.022 C17.545,38.223 19.007,38.998 20.652,38.998 C22.298,38.998 23.760,38.223 24.702,37.022 C24.702,37.022 23.554,29.150 23.554,29.150 Z" id="path-6" class="cls-8" fill-rule="evenodd"/>
    <path d="M38.536,17.891 C38.536,15.047 36.230,12.743 33.388,12.743 C33.269,12.743 33.154,12.752 33.039,12.760 C33.126,12.684 33.215,12.609 33.298,12.526 C35.309,10.516 35.309,7.256 33.298,5.245 C31.287,3.234 28.027,3.234 26.017,5.245 C25.934,5.329 25.859,5.417 25.783,5.504 C25.791,5.388 25.801,5.273 25.801,5.156 C25.801,2.312 23.496,0.007 20.652,0.007 C17.809,0.007 15.504,2.312 15.504,5.156 C15.504,5.273 15.514,5.388 15.521,5.504 C15.445,5.417 15.371,5.329 15.288,5.245 C13.277,3.234 10.018,3.234 8.007,5.245 C5.996,7.256 5.996,10.516 8.007,12.526 C8.090,12.609 8.178,12.684 8.266,12.760 C8.149,12.752 8.035,12.743 7.917,12.743 C5.074,12.743 2.769,15.047 2.769,17.891 C2.769,20.734 5.074,23.039 7.917,23.039 C8.035,23.039 8.149,23.029 8.266,23.021 C8.178,23.098 8.090,23.172 8.007,23.255 C5.996,25.266 5.996,28.526 8.007,30.536 C10.018,32.547 13.277,32.547 15.288,30.536 C15.371,30.453 15.445,30.365 15.521,30.278 C15.514,30.393 15.504,30.509 15.504,30.626 C15.504,33.469 17.809,35.774 20.652,35.774 C23.496,35.774 25.801,33.469 25.801,30.626 C25.801,30.509 25.791,30.393 25.783,30.278 C25.859,30.365 25.934,30.453 26.017,30.536 C28.027,32.547 31.287,32.547 33.298,30.536 C35.309,28.526 35.309,25.266 33.298,23.255 C33.215,23.172 33.126,23.098 33.039,23.021 C33.154,23.029 33.269,23.039 33.388,23.039 C36.230,23.039 38.536,20.734 38.536,17.891 Z" id="path-7" class="cls-9" fill-rule="evenodd"/>
    <path d="M31.363,11.237 C31.280,11.319 31.192,11.394 31.104,11.471 C31.221,11.462 31.335,11.453 31.453,11.453 C32.280,11.453 33.059,11.652 33.751,11.999 C35.289,9.981 35.142,7.089 33.298,5.245 C32.761,4.708 32.134,4.319 31.466,4.069 C33.368,6.087 33.338,9.263 31.363,11.237 Z" id="path-8" class="cls-8" fill-rule="evenodd"/>
    <path d="M23.866,3.866 C23.866,3.984 23.856,4.098 23.849,4.214 C23.925,4.127 23.999,4.039 24.082,3.955 C24.462,3.576 24.887,3.268 25.339,3.032 C24.777,1.795 23.742,0.823 22.464,0.341 C23.331,1.263 23.866,2.501 23.866,3.866 Z" id="path-9" class="cls-8" fill-rule="evenodd"/>
    <path d="M38.536,17.891 C38.536,15.686 37.146,13.810 35.198,13.077 C36.066,13.998 36.602,15.236 36.602,16.602 C36.602,19.445 34.296,21.750 31.453,21.750 C31.335,21.750 31.221,21.740 31.104,21.732 C31.192,21.808 31.280,21.883 31.363,21.966 C33.374,23.976 33.374,27.236 31.363,29.247 C29.890,30.721 27.746,31.109 25.914,30.422 C25.948,30.461 25.980,30.500 26.017,30.536 C28.027,32.547 31.287,32.547 33.298,30.536 C35.309,28.526 35.309,25.266 33.298,23.255 C33.215,23.172 33.126,23.098 33.039,23.021 C33.154,23.029 33.269,23.039 33.388,23.039 C36.230,23.039 38.536,20.734 38.536,17.891 Z" id="path-10" class="cls-8" fill-rule="evenodd"/>
    <path d="M13.569,29.336 C13.569,29.219 13.579,29.103 13.587,28.988 C13.511,29.075 13.436,29.164 13.353,29.247 C11.880,30.721 9.736,31.109 7.903,30.422 C7.939,30.460 7.970,30.500 8.007,30.536 C9.638,32.167 12.090,32.474 14.031,31.460 C13.737,30.812 13.569,30.094 13.569,29.336 Z" id="path-11" class="cls-8" fill-rule="evenodd"/>
    <path d="M24.082,29.247 C23.999,29.164 23.925,29.075 23.849,28.988 C23.856,29.103 23.866,29.219 23.866,29.336 C23.866,32.180 21.561,34.485 18.718,34.485 C18.079,34.485 17.471,34.363 16.906,34.151 C17.846,35.148 19.174,35.774 20.652,35.774 C23.496,35.774 25.801,33.469 25.801,30.626 C25.801,30.542 25.794,30.461 25.788,30.378 C25.167,30.127 24.586,29.750 24.082,29.247 Z" id="path-12" class="cls-8" fill-rule="evenodd"/>
    <path d="M29.992,17.891 C29.992,23.048 25.811,27.230 20.652,27.230 C15.494,27.230 11.312,23.048 11.312,17.891 C11.312,12.733 15.494,8.551 20.652,8.551 C25.811,8.551 29.992,12.733 29.992,17.891 Z" id="path-13" class="cls-15" fill-rule="evenodd"/>
    <path d="M13.981,18.891 C13.429,18.891 12.981,18.443 12.981,17.891 C12.981,13.661 16.423,10.219 20.652,10.219 C21.205,10.219 21.652,10.667 21.652,11.220 C21.652,11.772 21.205,12.220 20.652,12.220 C17.525,12.220 14.981,14.764 14.981,17.891 C14.981,18.443 14.534,18.891 13.981,18.891 Z" id="path-14" class="cls-16" fill-rule="evenodd"/>
    <path d="M23.466,8.984 C25.851,10.676 27.413,13.454 27.413,16.602 C27.413,21.759 23.231,25.941 18.073,25.941 C17.093,25.941 16.147,25.788 15.260,25.508 C16.784,26.589 18.642,27.230 20.652,27.230 C25.811,27.230 29.992,23.049 29.992,17.891 C29.992,13.713 27.248,10.178 23.466,8.984 Z" id="path-15" class="cls-17" fill-rule="evenodd"/>
    <path d="M22.587,51.807 C22.587,52.876 21.721,53.741 20.652,53.741 C19.584,53.741 18.718,52.876 18.718,51.807 C18.718,50.739 19.584,49.873 20.652,49.873 C21.721,49.873 22.587,50.739 22.587,51.807 Z" id="path-16" class="cls-18" fill-rule="evenodd"/>
    <path d="M20.808,49.888 C21.108,50.229 21.297,50.672 21.297,51.162 C21.297,52.231 20.431,53.097 19.362,53.097 C19.310,53.097 19.259,53.085 19.207,53.081 C19.561,53.483 20.074,53.741 20.652,53.741 C21.721,53.741 22.587,52.876 22.587,51.807 C22.587,50.792 21.803,49.969 20.808,49.888 Z" id="path-17" class="cls-8" fill-rule="evenodd"/>
  </g>
</svg>
