<svg xmlns="http://www.w3.org/2000/svg" xmlns:xlink="http://www.w3.org/1999/xlink" preserveAspectRatio="xMidYMid" width="61" height="54" viewBox="0 0 61 54">
  <defs>
    <style>

      .cls-3 {
        fill: #2476ff;
      }

      .cls-7 {
        fill: #fbb713;
      }

      .cls-8 {
        fill: #ff3a2f;
      }

      .cls-9 {
        fill: #020403;
        opacity: 0.25;
      }

      .cls-10 {
        fill: #0cb04a;
      }

      .cls-11 {
        fill: #ffffff;
      }

      .cls-12 {
        fill: #142a3b;
      }
    </style>
  </defs>
  <g id="group-36svg">
    <path d="M7.764,21.634 C7.764,21.634 9.226,21.634 9.226,21.634 C9.508,21.634 9.736,21.864 9.736,22.147 C9.736,22.431 9.508,22.661 9.226,22.661 C9.226,22.661 9.158,22.661 9.158,22.661 C8.876,22.661 8.647,22.892 8.647,23.175 C8.647,23.460 8.876,23.690 9.158,23.690 C9.158,23.690 12.303,23.690 12.303,23.690 C12.584,23.690 12.813,23.920 12.813,24.204 C12.813,24.488 12.584,24.718 12.303,24.718 C12.303,24.718 8.523,24.718 8.523,24.718 C8.523,24.718 4.370,24.718 4.370,24.718 C4.088,24.718 3.859,24.488 3.859,24.204 C3.859,23.920 4.088,23.690 4.370,23.690 C4.370,23.690 5.243,23.690 5.243,23.690 C5.524,23.690 5.754,23.460 5.754,23.175 C5.754,22.892 5.524,22.661 5.243,22.661 C5.243,22.661 1.090,22.661 1.090,22.661 C0.808,22.661 0.579,22.431 0.579,22.147 C0.579,21.864 0.808,21.634 1.090,21.634 C1.090,21.634 2.071,21.634 2.071,21.634 C2.071,21.634 7.764,21.634 7.764,21.634 Z" id="path-1" class="cls-3" fill-rule="evenodd"/>
    <path d="M4.412,0.759 C4.412,0.759 5.311,0.759 5.311,0.759 C5.485,0.759 5.626,0.901 5.626,1.075 C5.626,1.250 5.485,1.391 5.311,1.391 C5.311,1.391 5.269,1.391 5.269,1.391 C5.096,1.391 4.955,1.533 4.955,1.708 C4.955,1.882 5.096,2.024 5.269,2.024 C5.269,2.024 7.204,2.024 7.204,2.024 C7.377,2.024 7.518,2.165 7.518,2.340 C7.518,2.514 7.377,2.657 7.204,2.657 C7.204,2.657 4.879,2.657 4.879,2.657 C4.879,2.657 2.324,2.657 2.324,2.657 C2.151,2.657 2.011,2.514 2.011,2.340 C2.011,2.165 2.151,2.024 2.324,2.024 C2.324,2.024 2.861,2.024 2.861,2.024 C3.035,2.024 3.176,1.882 3.176,1.708 C3.176,1.533 3.035,1.391 2.861,1.391 C2.861,1.391 0.307,1.391 0.307,1.391 C0.133,1.391 -0.008,1.250 -0.008,1.075 C-0.008,0.901 0.133,0.759 0.307,0.759 C0.307,0.759 0.910,0.759 0.910,0.759 C0.910,0.759 4.412,0.759 4.412,0.759 Z" id="path-2" class="cls-3" fill-rule="evenodd"/>
    <path d="M53.115,8.132 C53.115,8.132 55.107,8.132 55.107,8.132 C55.491,8.132 55.803,8.419 55.803,8.773 C55.803,9.128 55.491,9.414 55.107,9.414 C55.107,9.414 55.015,9.414 55.015,9.414 C54.630,9.414 54.319,9.702 54.319,10.056 C54.319,10.411 54.630,10.697 55.015,10.697 C55.015,10.697 59.297,10.697 59.297,10.697 C59.681,10.697 59.992,10.984 59.992,11.339 C59.992,11.693 59.681,11.980 59.297,11.980 C59.297,11.980 54.150,11.980 54.150,11.980 C54.150,11.980 48.494,11.980 48.494,11.980 C48.109,11.980 47.798,11.693 47.798,11.339 C47.798,10.984 48.109,10.697 48.494,10.697 C48.494,10.697 49.683,10.697 49.683,10.697 C50.066,10.697 50.378,10.411 50.378,10.056 C50.378,9.702 50.066,9.414 49.683,9.414 C49.683,9.414 44.025,9.414 44.025,9.414 C43.642,9.414 43.330,9.128 43.330,8.773 C43.330,8.419 43.642,8.132 44.025,8.132 C44.025,8.132 45.362,8.132 45.362,8.132 C45.362,8.132 53.115,8.132 53.115,8.132 Z" id="path-3" class="cls-3" fill-rule="evenodd"/>
    <path d="M43.945,3.119 C44.928,3.119 45.725,2.813 45.725,2.435 C45.725,2.057 44.928,1.750 43.945,1.750 C43.945,1.750 38.493,1.750 38.493,1.750 C37.511,1.750 36.714,2.057 36.714,2.435 C36.714,2.813 37.511,3.119 38.493,3.119 C38.493,3.119 43.945,3.119 43.945,3.119 Z" id="path-4" class="cls-3" fill-rule="evenodd"/>
    <path d="M45.629,15.470 C45.629,24.006 30.173,37.103 30.173,37.103 C30.173,37.103 14.716,24.006 14.716,15.470 C14.716,6.934 21.636,0.013 30.173,0.013 C38.709,0.013 45.629,6.934 45.629,15.470 Z" id="path-5" class="cls-7" fill-rule="evenodd"/>
    <path d="M30.173,37.103 C30.173,37.103 45.629,24.006 45.629,15.470 C45.629,6.934 38.709,0.013 30.173,0.013 C30.173,0.013 29.556,0.461 29.556,0.461 C34.863,2.121 38.801,8.211 38.801,15.470 C38.801,21.158 33.401,32.261 29.798,36.775 C29.798,36.775 30.173,37.103 30.173,37.103 Z" id="path-6" class="cls-8" fill-rule="evenodd"/>
    <path d="M37.184,1.708 C40.509,4.543 42.623,8.754 42.623,13.467 C42.623,21.181 30.004,32.615 27.572,34.747 C29.121,36.210 30.173,37.103 30.173,37.103 C30.173,37.103 45.629,24.006 45.629,15.470 C45.629,9.460 42.192,4.265 37.184,1.708 Z" id="path-7" class="cls-9" fill-rule="evenodd"/>
    <path d="M29.984,37.103 C29.984,37.103 14.527,24.006 14.527,15.470 C14.527,6.934 21.448,0.013 29.984,0.013 C29.984,0.013 30.602,0.461 30.602,0.461 C25.293,2.121 21.355,8.211 21.355,15.470 C21.355,21.158 26.755,32.261 30.358,36.775 C30.358,36.775 29.984,37.103 29.984,37.103 Z" id="path-8" class="cls-10" fill-rule="evenodd"/>
    <path d="M18.545,17.558 C18.127,17.558 17.737,17.294 17.597,16.876 C17.264,15.886 17.095,14.949 17.095,14.091 C17.095,10.149 18.826,6.430 21.845,3.888 C22.270,3.532 22.899,3.587 23.254,4.009 C23.610,4.432 23.556,5.063 23.134,5.419 C20.566,7.579 19.095,10.741 19.095,14.091 C19.095,14.732 19.229,15.454 19.493,16.238 C19.669,16.762 19.388,17.329 18.864,17.505 C18.758,17.541 18.650,17.558 18.545,17.558 Z" id="path-9" class="cls-11" fill-rule="evenodd"/>
    <path d="M29.984,39.940 C29.432,39.940 28.984,39.492 28.984,38.940 C28.984,38.940 28.984,37.102 28.984,37.102 C28.984,36.551 29.432,36.102 29.984,36.102 C30.537,36.102 30.984,36.551 30.984,37.102 C30.984,37.102 30.984,38.940 30.984,38.940 C30.984,39.492 30.537,39.940 29.984,39.940 Z" id="path-10" class="cls-12" fill-rule="evenodd"/>
    <path d="M37.258,53.110 C37.258,53.110 23.087,53.110 23.087,53.110 C23.087,53.110 23.087,38.940 23.087,38.940 C23.087,38.940 37.258,38.940 37.258,38.940 C37.258,38.940 37.258,53.110 37.258,53.110 Z" id="path-11" class="cls-12" fill-rule="evenodd"/>
    <path d="M33.250,38.940 C33.250,38.940 33.250,53.110 33.250,53.110 C33.250,53.110 37.258,53.110 37.258,53.110 C37.258,53.110 37.258,38.940 37.258,38.940 C37.258,38.940 33.250,38.940 33.250,38.940 Z" id="path-12" class="cls-9" fill-rule="evenodd"/>
  </g>
</svg>
