<svg xmlns="http://www.w3.org/2000/svg" xmlns:xlink="http://www.w3.org/1999/xlink" preserveAspectRatio="xMidYMid" width="60" height="53" viewBox="0 0 60 53">
  <defs>
    <style>

      .cls-3 {
        fill: #2476ff;
      }

      .cls-6 {
        fill: #ff3a2f;
      }

      .cls-14 {
        fill: #090908;
        opacity: 0.35;
      }

      .cls-15 {
        fill: #fbb713;
      }

      .cls-16 {
        fill: #ededed;
      }

      .cls-17 {
        fill: #090908;
        opacity: 0.25;
      }
    </style>
  </defs>
  <g id="group-207svg">
    <path d="M45.174,52.349 C45.174,52.349 49.466,52.349 49.466,52.349 C50.293,52.349 50.964,51.960 50.964,51.480 C50.964,50.999 50.293,50.610 49.466,50.610 C49.466,50.610 49.266,50.610 49.266,50.610 C48.438,50.610 47.768,50.220 47.768,49.740 C47.768,49.260 48.438,48.870 49.266,48.870 C49.266,48.870 58.492,48.870 58.492,48.870 C59.319,48.870 59.990,48.480 59.990,48.000 C59.990,47.519 59.319,47.130 58.492,47.130 C58.492,47.130 47.404,47.130 47.404,47.130 C47.404,47.130 24.741,47.130 24.741,47.130 C23.914,47.130 23.243,47.519 23.243,48.000 C23.243,48.480 23.914,48.870 24.741,48.870 C24.741,48.870 27.302,48.870 27.302,48.870 C28.130,48.870 28.801,49.260 28.801,49.740 C28.801,50.220 28.130,50.610 27.302,50.610 C27.302,50.610 15.116,50.610 15.116,50.610 C14.288,50.610 13.617,50.999 13.617,51.480 C13.617,51.960 14.288,52.349 15.116,52.349 C15.116,52.349 17.996,52.349 17.996,52.349 C17.996,52.349 45.174,52.349 45.174,52.349 Z" id="path-1" class="cls-3" fill-rule="evenodd"/>
    <path d="M16.668,43.921 C16.668,43.921 18.936,43.921 18.936,43.921 C19.374,43.921 19.728,43.610 19.728,43.227 C19.728,42.845 19.374,42.535 18.936,42.535 C18.936,42.535 18.831,42.535 18.831,42.535 C18.394,42.535 18.039,42.224 18.039,41.842 C18.039,41.459 18.394,41.149 18.831,41.149 C18.831,41.149 23.707,41.149 23.707,41.149 C24.145,41.149 24.499,40.839 24.499,40.456 C24.499,40.073 24.145,39.763 23.707,39.763 C23.707,39.763 17.847,39.763 17.847,39.763 C17.847,39.763 5.870,39.763 5.870,39.763 C5.432,39.763 5.078,40.073 5.078,40.456 C5.078,40.839 5.432,41.149 5.870,41.149 C5.870,41.149 7.223,41.149 7.223,41.149 C7.660,41.149 8.015,41.459 8.015,41.842 C8.015,42.224 7.660,42.535 7.223,42.535 C7.223,42.535 0.782,42.535 0.782,42.535 C0.345,42.535 -0.010,42.845 -0.010,43.227 C-0.010,43.610 0.345,43.921 0.782,43.921 C0.782,43.921 2.304,43.921 2.304,43.921 C2.304,43.921 16.668,43.921 16.668,43.921 Z" id="path-2" class="cls-3" fill-rule="evenodd"/>
    <path d="M17.062,47.070 C17.994,47.070 18.750,47.499 18.750,48.029 C18.750,48.559 17.994,48.987 17.062,48.987 C17.062,48.987 11.892,48.987 11.892,48.987 C10.960,48.987 10.205,48.559 10.205,48.029 C10.205,47.499 10.960,47.070 11.892,47.070 C11.892,47.070 17.062,47.070 17.062,47.070 Z" id="path-3" class="cls-3" fill-rule="evenodd"/>
    <path d="M34.889,8.704 C34.889,8.704 34.889,7.461 34.889,7.461 C34.889,7.220 34.595,7.026 34.231,7.026 C33.868,7.026 33.573,7.220 33.573,7.461 C33.573,7.461 33.573,7.518 33.573,7.518 C33.573,7.759 33.279,7.953 32.916,7.953 C32.553,7.953 32.259,7.759 32.259,7.518 C32.259,7.518 32.259,4.845 32.259,4.845 C32.259,4.606 31.964,4.411 31.601,4.411 C31.238,4.411 30.943,4.606 30.943,4.845 C30.943,4.845 30.943,8.057 30.943,8.057 C30.943,8.057 30.943,14.623 30.943,14.623 C30.943,14.863 31.238,15.057 31.601,15.057 C31.964,15.057 32.259,14.863 32.259,14.623 C32.259,14.623 32.259,13.882 32.259,13.882 C32.259,13.641 32.553,13.447 32.916,13.447 C33.279,13.447 33.573,13.641 33.573,13.882 C33.573,13.882 33.573,17.412 33.573,17.412 C33.573,17.652 33.868,17.846 34.231,17.846 C34.595,17.846 34.889,17.652 34.889,17.412 C34.889,17.412 34.889,16.578 34.889,16.578 C34.889,16.578 34.889,8.704 34.889,8.704 Z" id="path-4" class="cls-6" fill-rule="evenodd"/>
    <path d="M26.481,20.045 C26.481,20.045 26.481,19.312 26.481,19.312 C26.481,19.171 26.308,19.057 26.094,19.057 C25.879,19.057 25.705,19.171 25.705,19.312 C25.705,19.312 25.705,19.346 25.705,19.346 C25.705,19.488 25.531,19.602 25.317,19.602 C25.103,19.602 24.930,19.488 24.930,19.346 C24.930,19.346 24.930,17.770 24.930,17.770 C24.930,17.629 24.756,17.513 24.542,17.513 C24.327,17.513 24.154,17.629 24.154,17.770 C24.154,17.770 24.154,19.665 24.154,19.665 C24.154,19.665 24.154,23.538 24.154,23.538 C24.154,23.679 24.327,23.794 24.542,23.794 C24.756,23.794 24.930,23.679 24.930,23.538 C24.930,23.538 24.930,23.100 24.930,23.100 C24.930,22.959 25.103,22.844 25.317,22.844 C25.531,22.844 25.705,22.959 25.705,23.100 C25.705,23.100 25.705,25.182 25.705,25.182 C25.705,25.324 25.879,25.438 26.094,25.438 C26.308,25.438 26.481,25.324 26.481,25.182 C26.481,25.182 26.481,24.690 26.481,24.690 C26.481,24.690 26.481,20.045 26.481,20.045 Z" id="path-5" class="cls-6" fill-rule="evenodd"/>
    <path d="M36.258,0.839 C36.258,0.839 36.258,0.594 36.258,0.594 C36.258,0.547 36.200,0.509 36.129,0.509 C36.057,0.509 35.999,0.547 35.999,0.594 C35.999,0.594 35.999,0.606 35.999,0.606 C35.999,0.653 35.941,0.691 35.870,0.691 C35.799,0.691 35.740,0.653 35.740,0.606 C35.740,0.606 35.740,0.080 35.740,0.080 C35.740,0.033 35.683,-0.005 35.611,-0.005 C35.540,-0.005 35.482,0.033 35.482,0.080 C35.482,0.080 35.482,0.712 35.482,0.712 C35.482,0.712 35.482,2.003 35.482,2.003 C35.482,2.050 35.540,2.088 35.611,2.088 C35.683,2.088 35.740,2.050 35.740,2.003 C35.740,2.003 35.740,1.857 35.740,1.857 C35.740,1.810 35.799,1.772 35.870,1.772 C35.941,1.772 35.999,1.810 35.999,1.857 C35.999,1.857 35.999,2.551 35.999,2.551 C35.999,2.598 36.057,2.636 36.129,2.636 C36.200,2.636 36.258,2.598 36.258,2.551 C36.258,2.551 36.258,2.387 36.258,2.387 C36.258,2.387 36.258,0.839 36.258,0.839 Z" id="path-6" class="cls-6" fill-rule="evenodd"/>
    <path d="M28.343,9.231 C28.343,9.231 28.343,8.621 28.343,8.621 C28.343,8.503 28.198,8.407 28.020,8.407 C27.842,8.407 27.697,8.503 27.697,8.621 C27.697,8.621 27.697,8.649 27.697,8.649 C27.697,8.767 27.553,8.862 27.374,8.862 C27.196,8.862 27.052,8.767 27.052,8.649 C27.052,8.649 27.052,7.337 27.052,7.337 C27.052,7.219 26.907,7.124 26.728,7.124 C26.551,7.124 26.406,7.219 26.406,7.337 C26.406,7.337 26.406,8.914 26.406,8.914 C26.406,8.914 26.406,12.137 26.406,12.137 C26.406,12.255 26.551,12.350 26.728,12.350 C26.907,12.350 27.052,12.255 27.052,12.137 C27.052,12.137 27.052,11.773 27.052,11.773 C27.052,11.656 27.196,11.560 27.374,11.560 C27.553,11.560 27.697,11.656 27.697,11.773 C27.697,11.773 27.697,13.507 27.697,13.507 C27.697,13.625 27.842,13.719 28.020,13.719 C28.198,13.719 28.343,13.625 28.343,13.507 C28.343,13.507 28.343,13.097 28.343,13.097 C28.343,13.097 28.343,9.231 28.343,9.231 Z" id="path-7" class="cls-6" fill-rule="evenodd"/>
    <path d="M30.943,18.687 C30.943,18.039 31.281,17.513 31.697,17.513 C32.113,17.513 32.451,18.039 32.451,18.687 C32.451,18.687 32.451,22.283 32.451,22.283 C32.451,22.930 32.113,23.456 31.697,23.456 C31.281,23.456 30.943,22.930 30.943,22.283 C30.943,22.283 30.943,18.687 30.943,18.687 Z" id="path-8" class="cls-6" fill-rule="evenodd"/>
    <path d="M38.186,9.331 C38.186,8.683 38.523,8.158 38.940,8.158 C39.356,8.158 39.694,8.683 39.694,9.331 C39.694,9.331 39.694,12.926 39.694,12.926 C39.694,13.575 39.356,14.099 38.940,14.099 C38.523,14.099 38.186,13.575 38.186,12.926 C38.186,12.926 38.186,9.331 38.186,9.331 Z" id="path-9" class="cls-6" fill-rule="evenodd"/>
    <path d="M38.186,18.640 C38.186,17.992 38.523,17.466 38.940,17.466 C39.356,17.466 39.694,17.992 39.694,18.640 C39.694,18.640 39.694,22.235 39.694,22.235 C39.694,22.883 39.356,23.409 38.940,23.409 C38.523,23.409 38.186,22.883 38.186,22.235 C38.186,22.235 38.186,18.640 38.186,18.640 Z" id="path-10" class="cls-6" fill-rule="evenodd"/>
    <path d="M41.324,32.952 C41.324,32.952 38.204,29.831 38.204,29.831 C38.204,29.831 51.287,16.748 51.287,16.748 C51.287,16.748 52.546,18.007 52.546,18.007 C52.546,18.007 41.324,32.952 41.324,32.952 Z" id="path-11" class="cls-3" fill-rule="evenodd"/>
    <path d="M51.287,16.748 C51.287,16.748 50.389,17.646 50.389,17.646 C50.389,17.646 50.750,18.007 50.750,18.007 C50.750,18.007 40.299,31.927 40.299,31.927 C40.299,31.927 41.324,32.952 41.324,32.952 C41.324,32.952 52.546,18.007 52.546,18.007 C52.546,18.007 51.287,16.748 51.287,16.748 Z" id="path-12" class="cls-14" fill-rule="evenodd"/>
    <path d="M35.870,47.545 C46.748,47.545 55.566,38.726 55.566,27.848 C55.566,27.848 16.173,27.848 16.173,27.848 C16.173,38.726 24.992,47.545 35.870,47.545 Z" id="path-13" class="cls-15" fill-rule="evenodd"/>
    <path d="M27.444,43.148 C27.288,43.148 27.129,43.112 26.980,43.033 C23.045,40.965 20.096,37.511 18.675,33.310 C18.499,32.787 18.779,32.219 19.302,32.042 C19.827,31.864 20.392,32.146 20.570,32.669 C21.825,36.383 24.432,39.434 27.910,41.263 C28.399,41.520 28.588,42.125 28.330,42.614 C28.151,42.954 27.804,43.148 27.444,43.148 Z" id="path-14" class="cls-16" fill-rule="evenodd"/>
    <path d="M50.094,27.848 C49.185,37.884 40.754,45.749 30.482,45.749 C29.296,45.749 28.137,45.637 27.008,45.437 C29.672,46.782 32.682,47.545 35.870,47.545 C46.748,47.545 55.566,38.726 55.566,27.848 C55.566,27.848 50.094,27.848 50.094,27.848 Z" id="path-15" class="cls-17" fill-rule="evenodd"/>
    <path d="M43.483,49.383 C43.483,49.383 28.256,49.383 28.256,49.383 C27.234,49.383 26.406,48.555 26.406,47.533 C26.406,47.533 26.406,47.533 26.406,47.533 C26.406,46.511 27.234,45.683 28.256,45.683 C28.256,45.683 43.483,45.683 43.483,45.683 C44.506,45.683 45.334,46.511 45.334,47.533 C45.334,47.533 45.334,47.533 45.334,47.533 C45.334,48.555 44.506,49.383 43.483,49.383 Z" id="path-16" class="cls-15" fill-rule="evenodd"/>
    <path d="M28.084,49.263 C28.084,49.263 43.442,49.263 43.442,49.263 C44.428,49.263 45.227,48.465 45.227,47.478 C45.227,47.478 26.299,47.478 26.299,47.478 C26.299,48.465 27.098,49.263 28.084,49.263 Z" id="path-17" class="cls-17" fill-rule="evenodd"/>
  </g>
</svg>
