<svg xmlns="http://www.w3.org/2000/svg" xmlns:xlink="http://www.w3.org/1999/xlink" preserveAspectRatio="xMidYMid" width="60" height="52" viewBox="0 0 60 52">
  <defs>
    <style>

      .cls-3 {
        fill: #ff3a2f;
      }

      .cls-4 {
        fill: #020403;
        opacity: 0.35;
      }

      .cls-5 {
        fill: #142a3b;
      }

      .cls-8 {
        fill: #ffffff;
      }
    </style>
  </defs>
  <g id="group-110svg">
    <path d="M35.554,39.444 C35.554,39.444 35.554,45.360 35.554,45.360 C35.554,45.360 5.975,45.360 5.975,45.360 C5.975,45.360 5.975,39.444 5.975,39.444 C5.975,39.444 35.554,39.444 35.554,39.444 Z" id="path-1" class="cls-3" fill-rule="evenodd"/>
    <path d="M5.975,39.444 C5.975,39.444 5.975,40.430 5.975,40.430 C5.975,40.430 29.848,41.349 29.848,41.349 C30.832,41.386 31.609,42.196 31.609,43.180 C31.609,43.180 31.609,45.360 31.609,45.360 C31.609,45.360 35.554,45.360 35.554,45.360 C35.554,45.360 35.554,39.444 35.554,39.444 C35.554,39.444 5.975,39.444 5.975,39.444 Z" id="path-2" class="cls-4" fill-rule="evenodd"/>
    <path d="M37.525,39.444 C37.525,39.444 4.002,39.444 4.002,39.444 C4.002,39.444 4.002,36.486 4.002,36.486 C4.002,35.399 4.885,34.515 5.975,34.515 C10.330,34.515 17.806,30.984 17.806,26.627 C17.806,26.627 17.806,21.680 17.806,20.711 C17.806,18.743 17.679,18.295 15.068,15.685 C13.126,14.057 11.890,11.612 11.890,8.879 C11.890,3.978 15.863,0.005 20.764,0.005 C25.665,0.005 29.638,3.978 29.638,8.879 C29.638,11.611 28.403,14.054 26.462,15.683 C23.865,18.279 23.731,18.716 23.731,20.432 C23.731,21.335 23.722,26.628 23.722,26.628 C23.722,30.984 31.196,34.516 35.554,34.515 C36.643,34.515 37.525,35.399 37.525,36.486 C37.525,36.486 37.525,39.444 37.525,39.444 Z" id="path-3" class="cls-5" fill-rule="evenodd"/>
    <path d="M14.863,31.297 C12.293,33.246 8.580,34.515 5.975,34.515 C4.885,34.515 4.002,35.399 4.002,36.486 C7.409,36.486 12.708,34.323 14.863,31.297 Z" id="path-4" class="cls-4" fill-rule="evenodd"/>
    <path d="M35.554,34.515 C31.196,34.516 23.722,30.984 23.722,26.628 C23.722,26.628 23.731,21.335 23.731,20.432 C23.731,18.716 23.865,18.279 26.462,15.683 C28.403,14.054 29.638,11.611 29.638,8.879 C29.638,3.978 25.665,0.005 20.764,0.005 C17.810,0.005 15.200,1.454 13.588,3.675 C15.051,2.612 16.845,1.977 18.792,1.977 C23.693,1.977 27.666,5.950 27.666,10.851 C27.666,13.583 26.432,16.027 24.490,17.655 C21.894,20.251 21.760,20.688 21.760,22.403 C21.760,23.307 21.750,28.600 21.750,28.600 C21.750,32.956 29.225,36.487 33.582,36.486 C34.671,36.486 35.554,37.370 35.554,38.459 C35.554,38.459 35.554,39.444 35.554,39.444 C35.554,39.444 37.525,39.444 37.525,39.444 C37.525,39.444 37.525,36.486 37.525,36.486 C37.525,35.399 36.643,34.515 35.554,34.515 Z" id="path-5" class="cls-4" fill-rule="evenodd"/>
    <path d="M16.812,12.826 C16.508,12.826 16.207,12.687 16.011,12.424 C15.241,11.393 14.834,10.167 14.834,8.879 C14.834,6.075 16.826,3.633 19.571,3.070 C20.117,2.961 20.642,3.308 20.752,3.849 C20.863,4.390 20.515,4.918 19.974,5.029 C18.154,5.402 16.834,7.021 16.834,8.879 C16.834,9.733 17.103,10.545 17.612,11.227 C17.943,11.670 17.852,12.296 17.410,12.627 C17.230,12.761 17.020,12.826 16.812,12.826 Z" id="path-6" class="cls-8" fill-rule="evenodd"/>
    <path d="M18.189,45.020 C18.189,45.020 12.924,45.020 12.924,45.020 C11.909,45.020 11.086,45.491 11.086,46.072 C11.086,46.654 11.909,47.125 12.924,47.125 C12.924,47.125 13.169,47.125 13.169,47.125 C14.185,47.125 15.007,47.596 15.007,48.178 C15.007,48.759 14.185,49.230 13.169,49.230 C13.169,49.230 1.850,49.230 1.850,49.230 C0.835,49.230 0.012,49.702 0.012,50.283 C0.012,50.864 0.835,51.335 1.850,51.335 C1.850,51.335 15.452,51.335 15.452,51.335 C15.452,51.335 43.256,51.335 43.256,51.335 C44.271,51.335 45.094,50.864 45.094,50.283 C45.094,49.702 44.271,49.230 43.256,49.230 C43.256,49.230 40.114,49.230 40.114,49.230 C39.100,49.230 38.276,48.759 38.276,48.178 C38.276,47.596 39.100,47.125 40.114,47.125 C40.114,47.125 52.452,47.125 52.452,47.125 C53.468,47.125 54.291,46.654 54.291,46.072 C54.291,45.491 53.468,45.020 52.452,45.020 C52.452,45.020 51.531,45.020 51.531,45.020 C51.531,45.020 18.189,45.020 18.189,45.020 Z" id="path-7" class="cls-5" fill-rule="evenodd"/>
    <path d="M53.748,51.618 C52.896,51.618 52.207,51.112 52.207,50.489 C52.207,49.866 52.896,49.361 53.748,49.361 C53.748,49.361 58.471,49.361 58.471,49.361 C59.322,49.361 60.012,49.866 60.012,50.489 C60.012,51.112 59.322,51.618 58.471,51.618 C58.471,51.618 53.748,51.618 53.748,51.618 Z" id="path-8" class="cls-5" fill-rule="evenodd"/>
  </g>
</svg>
