<svg xmlns="http://www.w3.org/2000/svg" xmlns:xlink="http://www.w3.org/1999/xlink" preserveAspectRatio="xMidYMid" width="60" height="55" viewBox="0 0 60 55">
  <defs>
    <style>

      .cls-3 {
        fill: #0cb04a;
      }

      .cls-5 {
        fill: #020403;
        opacity: 0.35;
      }

      .cls-13 {
        fill: #142a3b;
      }

      .cls-19 {
        fill: #fbb713;
      }
    </style>
  </defs>
  <g id="group-151svg">
    <path d="M59.989,9.971 C59.989,4.460 55.045,-0.008 48.945,-0.008 C42.847,-0.008 37.902,4.460 37.902,9.971 C37.902,12.434 40.004,19.168 40.030,19.253 C40.032,19.255 40.032,19.255 40.034,19.258 C41.493,21.423 42.459,24.633 42.459,28.890 C42.459,33.142 42.025,35.820 40.570,37.983 C40.565,37.989 40.563,37.997 40.563,38.004 C40.563,38.004 40.563,41.066 40.563,41.066 C40.563,45.268 43.733,48.956 47.929,49.208 C52.483,49.482 56.264,45.869 56.264,41.372 C56.264,41.372 56.264,36.483 56.264,36.483 C56.264,36.483 56.263,36.472 56.260,36.467 C55.278,34.269 55.199,32.272 55.199,28.890 C55.199,25.502 55.811,22.973 56.796,20.771 C56.796,20.771 59.989,12.943 59.989,9.971 Z" id="path-1" class="cls-3" fill-rule="evenodd"/>
    <path d="M12.473,9.971 C12.473,4.460 17.417,-0.008 23.516,-0.008 C29.615,-0.008 34.560,4.460 34.560,9.971 C34.560,12.434 32.457,19.168 32.431,19.253 C32.430,19.255 32.430,19.255 32.428,19.258 C30.968,21.423 30.002,24.633 30.002,28.890 C30.002,33.142 30.436,35.820 31.892,37.983 C31.895,37.989 31.898,37.997 31.898,38.004 C31.898,38.004 31.898,41.066 31.898,41.066 C31.898,45.268 28.728,48.956 24.533,49.208 C19.977,49.482 16.198,45.869 16.198,41.372 C16.198,41.372 16.198,36.483 16.198,36.483 C16.198,36.483 16.199,36.472 16.201,36.467 C17.184,34.269 17.263,32.272 17.263,28.890 C17.263,25.502 16.650,22.973 15.666,20.771 C15.666,20.771 12.473,12.943 12.473,9.971 Z" id="path-2" class="cls-3" fill-rule="evenodd"/>
    <path d="M23.516,-0.008 C23.031,-0.008 22.559,0.030 22.091,0.085 C27.515,0.719 31.708,4.898 31.708,9.971 C31.708,12.434 29.606,19.168 29.580,19.253 C29.578,19.255 29.578,19.255 29.576,19.258 C28.117,21.423 27.151,24.633 27.151,28.890 C27.151,33.142 27.585,35.820 29.040,37.983 C29.045,37.989 29.047,37.997 29.047,38.004 C29.047,38.004 29.047,41.066 29.047,41.066 C29.047,44.947 26.342,48.382 22.623,49.085 C23.239,49.198 23.876,49.248 24.533,49.208 C28.728,48.956 31.898,45.268 31.898,41.066 C31.898,41.066 31.895,37.989 31.892,37.983 C30.436,35.820 30.002,33.142 30.002,28.890 C30.002,24.633 30.968,21.423 32.428,19.258 C32.430,19.255 32.430,19.255 32.431,19.253 C32.457,19.168 34.560,12.434 34.560,9.971 C34.560,4.460 29.615,-0.008 23.516,-0.008 Z" id="path-3" class="cls-5" fill-rule="evenodd"/>
    <path d="M59.989,9.971 C59.989,4.460 55.045,-0.008 48.945,-0.008 C48.461,-0.008 47.988,0.030 47.520,0.085 C52.944,0.719 57.138,4.898 57.138,9.971 C57.138,12.943 53.944,20.771 53.944,20.771 C52.960,22.973 52.348,25.502 52.348,28.890 C52.348,32.272 52.428,34.269 53.409,36.467 C53.411,36.472 53.412,36.478 53.412,36.478 C53.412,36.478 53.412,41.372 53.412,41.372 C53.412,45.220 50.641,48.413 46.986,49.085 C47.295,49.143 47.607,49.189 47.929,49.208 C52.483,49.482 56.264,45.869 56.264,41.372 C56.264,41.372 56.264,36.483 56.264,36.483 C56.264,36.483 56.263,36.472 56.260,36.467 C55.278,34.269 55.199,32.272 55.199,28.890 C55.199,25.502 55.811,22.973 56.796,20.771 C56.796,20.771 59.989,12.943 59.989,9.971 Z" id="path-4" class="cls-5" fill-rule="evenodd"/>
    <path d="M49.827,14.250 C49.823,14.250 49.819,14.250 49.815,14.250 C49.264,14.244 48.821,13.791 48.827,13.238 C48.827,13.238 48.896,7.184 48.896,7.184 C48.903,6.631 49.381,6.206 49.908,6.195 C50.460,6.201 50.902,6.654 50.896,7.206 C50.896,7.206 50.827,13.261 50.827,13.261 C50.821,13.809 50.374,14.250 49.827,14.250 Z" id="path-5" class="cls-5" fill-rule="evenodd"/>
    <path d="M55.235,23.059 C55.163,23.059 55.090,23.052 55.017,23.035 C54.477,22.915 54.138,22.380 54.259,21.841 C55.630,15.703 54.116,12.490 49.351,11.425 C48.812,11.305 48.472,10.770 48.593,10.231 C48.713,9.693 49.249,9.357 49.786,9.474 C55.654,10.785 57.816,15.093 56.210,22.278 C56.106,22.743 55.693,23.059 55.235,23.059 Z" id="path-6" class="cls-5" fill-rule="evenodd"/>
    <path d="M42.483,23.059 C42.025,23.059 41.612,22.743 41.509,22.278 C40.065,15.819 43.169,10.913 49.609,9.474 C50.147,9.356 50.683,9.693 50.803,10.231 C50.924,10.770 50.584,11.305 50.045,11.425 C44.650,12.631 42.250,16.427 43.460,21.841 C43.581,22.380 43.241,22.915 42.702,23.035 C42.629,23.052 42.556,23.059 42.483,23.059 Z" id="path-7" class="cls-5" fill-rule="evenodd"/>
    <path d="M24.066,14.250 C24.062,14.250 24.059,14.250 24.055,14.250 C23.503,14.244 23.060,13.791 23.066,13.238 C23.066,13.238 23.135,7.184 23.135,7.184 C23.141,6.631 23.632,6.206 24.146,6.195 C24.698,6.201 25.141,6.654 25.135,7.206 C25.135,7.206 25.066,13.261 25.066,13.261 C25.061,13.809 24.613,14.250 24.066,14.250 Z" id="path-8" class="cls-5" fill-rule="evenodd"/>
    <path d="M29.475,23.059 C29.402,23.059 29.329,23.052 29.256,23.035 C28.717,22.915 28.377,22.380 28.498,21.841 C29.869,15.704 28.355,12.491 23.590,11.425 C23.051,11.305 22.711,10.770 22.832,10.231 C22.952,9.693 23.491,9.357 24.025,9.474 C29.893,10.785 32.056,15.093 30.449,22.278 C30.346,22.743 29.933,23.059 29.475,23.059 Z" id="path-9" class="cls-5" fill-rule="evenodd"/>
    <path d="M16.723,23.059 C16.265,23.059 15.852,22.743 15.748,22.278 C14.305,15.819 17.408,10.913 23.849,9.474 C24.387,9.356 24.922,9.693 25.042,10.231 C25.163,10.770 24.823,11.305 24.284,11.425 C18.890,12.631 16.489,16.427 17.699,21.841 C17.820,22.380 17.480,22.915 16.941,23.035 C16.868,23.052 16.795,23.059 16.723,23.059 Z" id="path-10" class="cls-5" fill-rule="evenodd"/>
    <path d="M48.945,12.352 C48.393,12.352 47.945,11.904 47.945,11.352 C47.945,11.352 47.945,3.393 47.945,3.393 C47.945,2.841 48.393,2.393 48.945,2.393 C49.498,2.393 49.945,2.841 49.945,3.393 C49.945,3.393 49.945,11.352 49.945,11.352 C49.945,11.904 49.498,12.352 48.945,12.352 Z" id="path-11" class="cls-13" fill-rule="evenodd"/>
    <path d="M56.283,23.059 C56.211,23.059 56.138,23.052 56.064,23.035 C55.525,22.915 55.185,22.380 55.307,21.841 C56.527,16.374 53.719,8.813 48.400,7.624 C47.861,7.504 47.521,6.969 47.643,6.430 C47.763,5.891 48.300,5.555 48.836,5.673 C55.343,7.127 58.706,15.793 57.258,22.277 C57.154,22.743 56.741,23.059 56.283,23.059 Z" id="path-12" class="cls-13" fill-rule="evenodd"/>
    <path d="M41.415,23.059 C40.957,23.059 40.544,22.743 40.440,22.278 C38.986,15.773 42.260,7.102 48.659,5.673 C49.198,5.555 49.732,5.891 49.853,6.430 C49.974,6.969 49.634,7.504 49.095,7.624 C43.882,8.790 41.166,16.354 42.392,21.841 C42.513,22.380 42.173,22.915 41.634,23.035 C41.560,23.052 41.487,23.059 41.415,23.059 Z" id="path-13" class="cls-13" fill-rule="evenodd"/>
    <path d="M23.516,12.352 C22.963,12.352 22.516,11.904 22.516,11.352 C22.516,11.352 22.516,3.393 22.516,3.393 C22.516,2.841 22.963,2.393 23.516,2.393 C24.068,2.393 24.516,2.841 24.516,3.393 C24.516,3.393 24.516,11.352 24.516,11.352 C24.516,11.904 24.068,12.352 23.516,12.352 Z" id="path-14" class="cls-13" fill-rule="evenodd"/>
    <path d="M31.047,23.059 C30.975,23.059 30.901,23.052 30.828,23.035 C30.289,22.915 29.949,22.380 30.070,21.841 C31.280,16.427 28.241,8.803 22.970,7.624 C22.431,7.504 22.091,6.969 22.212,6.430 C22.332,5.891 22.868,5.555 23.405,5.673 C29.909,7.126 33.437,15.945 32.021,22.278 C31.918,22.743 31.505,23.059 31.047,23.059 Z" id="path-15" class="cls-13" fill-rule="evenodd"/>
    <path d="M16.181,23.059 C15.723,23.059 15.310,22.743 15.206,22.278 C13.709,15.579 16.528,7.112 22.970,5.673 C23.509,5.555 24.043,5.891 24.163,6.430 C24.284,6.969 23.944,7.504 23.405,7.624 C18.268,8.773 15.869,16.077 17.157,21.841 C17.278,22.380 16.938,22.915 16.399,23.035 C16.326,23.052 16.253,23.059 16.181,23.059 Z" id="path-16" class="cls-13" fill-rule="evenodd"/>
    <path d="M7.457,24.162 C7.457,24.162 8.978,24.162 8.978,24.162 C9.271,24.162 9.509,24.380 9.509,24.649 C9.509,24.919 9.271,25.137 8.978,25.137 C8.978,25.137 8.907,25.137 8.907,25.137 C8.614,25.137 8.376,25.355 8.376,25.625 C8.376,25.894 8.614,26.113 8.907,26.113 C8.907,26.113 12.176,26.113 12.176,26.113 C12.470,26.113 12.707,26.331 12.707,26.600 C12.707,26.869 12.470,27.088 12.176,27.088 C12.176,27.088 8.248,27.088 8.248,27.088 C8.248,27.088 3.931,27.088 3.931,27.088 C3.637,27.088 3.399,26.869 3.399,26.600 C3.399,26.331 3.637,26.113 3.931,26.113 C3.931,26.113 4.838,26.113 4.838,26.113 C5.131,26.113 5.368,25.894 5.368,25.625 C5.368,25.355 5.131,25.137 4.838,25.137 C4.838,25.137 0.519,25.137 0.519,25.137 C0.226,25.137 -0.011,24.919 -0.011,24.649 C-0.011,24.380 0.226,24.162 0.519,24.162 C0.519,24.162 1.540,24.162 1.540,24.162 C1.540,24.162 7.457,24.162 7.457,24.162 Z" id="path-17" class="cls-19" fill-rule="evenodd"/>
    <path d="M18.747,47.967 C18.747,47.967 21.971,47.967 21.971,47.967 C22.592,47.967 23.096,48.391 23.096,48.914 C23.096,49.437 22.592,49.861 21.971,49.861 C21.971,49.861 21.820,49.861 21.820,49.861 C21.199,49.861 20.695,50.285 20.695,50.808 C20.695,51.332 21.199,51.756 21.820,51.756 C21.820,51.756 28.749,51.756 28.749,51.756 C29.371,51.756 29.874,52.179 29.874,52.703 C29.874,53.226 29.371,53.650 28.749,53.650 C28.749,53.650 20.423,53.650 20.423,53.650 C20.423,53.650 11.271,53.650 11.271,53.650 C10.649,53.650 10.146,53.226 10.146,52.703 C10.146,52.179 10.649,51.756 11.271,51.756 C11.271,51.756 13.194,51.756 13.194,51.756 C13.815,51.756 14.319,51.332 14.319,50.808 C14.319,50.285 13.815,49.861 13.194,49.861 C13.194,49.861 4.043,49.861 4.043,49.861 C3.421,49.861 2.917,49.437 2.917,48.914 C2.917,48.391 3.421,47.967 4.043,47.967 C4.043,47.967 6.205,47.967 6.205,47.967 C6.205,47.967 18.747,47.967 18.747,47.967 Z" id="path-18" class="cls-19" fill-rule="evenodd"/>
    <path d="M43.684,54.691 C44.615,54.691 45.371,54.225 45.371,53.650 C45.371,53.075 44.615,52.609 43.684,52.609 C43.684,52.609 38.511,52.609 38.511,52.609 C37.579,52.609 36.823,53.075 36.823,53.650 C36.823,54.225 37.579,54.691 38.511,54.691 C38.511,54.691 43.684,54.691 43.684,54.691 Z" id="path-19" class="cls-19" fill-rule="evenodd"/>
  </g>
</svg>
