<svg xmlns="http://www.w3.org/2000/svg" xmlns:xlink="http://www.w3.org/1999/xlink" preserveAspectRatio="xMidYMid" width="57" height="61" viewBox="0 0 57 61">
  <defs>
    <style>

      .cls-3 {
        fill: #ff3a2f;
      }

      .cls-4 {
        fill: #020403;
        opacity: 0.35;
      }

      .cls-5 {
        fill: #2476ff;
      }

      .cls-6 {
        fill: #020403;
        opacity: 0.25;
      }

      .cls-7 {
        fill: #ffffff;
      }
    </style>
  </defs>
  <g id="group-80svg">
    <path d="M35.808,45.587 C35.844,45.587 35.883,45.585 35.919,45.581 C40.222,45.152 43.696,43.295 45.963,40.214 C48.676,36.524 49.493,31.212 48.264,25.257 C46.875,18.499 41.893,11.044 37.078,3.833 C36.320,2.695 35.569,1.570 34.844,0.466 C34.435,-0.155 33.410,-0.150 33.007,0.466 C32.266,1.596 31.498,2.744 30.723,3.906 C29.176,6.223 27.592,8.595 26.119,10.966 C26.119,10.966 35.808,45.587 35.808,45.587 Z" id="path-1" class="cls-3" fill-rule="evenodd"/>
    <path d="M30.939,8.822 C30.350,7.937 29.772,7.068 29.200,6.200 C28.153,7.780 27.110,9.370 26.119,10.966 C26.119,10.966 35.808,45.587 35.808,45.587 C35.844,45.587 35.883,45.585 35.919,45.581 C37.478,45.425 38.924,45.077 40.247,44.556 C42.610,40.901 43.291,35.894 42.128,30.248 C40.734,23.494 35.756,16.035 30.939,8.822 Z" id="path-2" class="cls-4" fill-rule="evenodd"/>
    <path d="M24.035,51.614 C19.061,51.614 15.035,49.897 12.389,46.649 C9.363,42.935 8.405,37.445 9.697,31.189 C11.086,24.435 16.062,16.982 20.877,9.773 C21.639,8.634 22.390,7.505 23.117,6.397 C23.520,5.779 24.551,5.779 24.954,6.397 C25.678,7.502 26.429,8.625 27.187,9.760 C32.002,16.973 36.981,24.433 38.374,31.187 C39.664,37.447 38.707,42.939 35.679,46.652 C33.034,49.899 29.008,51.614 24.035,51.614 Z" id="path-3" class="cls-5" fill-rule="evenodd"/>
    <path d="M38.374,31.187 C36.981,24.433 32.002,16.973 27.187,9.760 C26.429,8.625 25.678,7.502 24.954,6.397 C24.551,5.779 23.520,5.779 23.117,6.397 C22.704,7.027 22.270,7.674 21.844,8.316 C26.568,15.394 31.379,22.691 32.744,29.311 C34.033,35.570 33.076,41.062 30.048,44.775 C27.404,48.022 23.378,49.736 18.405,49.736 C17.488,49.736 16.616,49.659 15.767,49.543 C18.060,50.902 20.851,51.614 24.035,51.614 C29.008,51.614 33.034,49.899 35.679,46.652 C38.707,42.939 39.664,37.447 38.374,31.187 Z" id="path-4" class="cls-6" fill-rule="evenodd"/>
    <path d="M17.842,44.808 C17.054,44.808 16.318,44.457 15.823,43.845 C13.659,41.188 13.024,37.009 14.041,32.083 C14.209,31.272 15.008,30.750 15.812,30.917 C16.624,31.085 17.146,31.878 16.979,32.690 C16.167,36.625 16.547,39.859 18.049,41.823 C18.779,41.923 19.342,42.550 19.342,43.308 C19.342,44.137 18.670,44.808 17.842,44.808 Z" id="path-5" class="cls-7" fill-rule="evenodd"/>
    <path d="M30.407,53.818 C30.407,53.818 34.479,53.818 34.479,53.818 C35.265,53.818 35.900,54.221 35.900,54.719 C35.900,55.217 35.265,55.620 34.479,55.620 C34.479,55.620 34.290,55.620 34.290,55.620 C33.505,55.620 32.868,56.023 32.868,56.520 C32.868,57.018 33.505,57.421 34.290,57.421 C34.290,57.421 43.043,57.421 43.043,57.421 C43.828,57.421 44.465,57.824 44.465,58.322 C44.465,58.819 43.828,59.222 43.043,59.222 C43.043,59.222 32.523,59.222 32.523,59.222 C32.523,59.222 20.962,59.222 20.962,59.222 C20.177,59.222 19.540,58.819 19.540,58.322 C19.540,57.824 20.177,57.421 20.962,57.421 C20.962,57.421 23.391,57.421 23.391,57.421 C24.176,57.421 24.812,57.018 24.812,56.520 C24.812,56.023 24.176,55.620 23.391,55.620 C23.391,55.620 11.829,55.620 11.829,55.620 C11.044,55.620 10.407,55.217 10.407,54.719 C10.407,54.221 11.044,53.818 11.829,53.818 C11.829,53.818 14.561,53.818 14.561,53.818 C14.561,53.818 30.407,53.818 30.407,53.818 Z" id="path-6" class="cls-5" fill-rule="evenodd"/>
    <path d="M6.431,45.325 C6.431,45.325 7.741,45.325 7.741,45.325 C7.994,45.325 8.199,45.546 8.199,45.819 C8.199,46.093 7.994,46.314 7.741,46.314 C7.741,46.314 7.681,46.314 7.681,46.314 C7.428,46.314 7.223,46.536 7.223,46.809 C7.223,47.082 7.428,47.304 7.681,47.304 C7.681,47.304 10.498,47.304 10.498,47.304 C10.751,47.304 10.956,47.526 10.956,47.799 C10.956,48.072 10.751,48.294 10.498,48.294 C10.498,48.294 7.111,48.294 7.111,48.294 C7.111,48.294 3.389,48.294 3.389,48.294 C3.137,48.294 2.932,48.072 2.932,47.799 C2.932,47.526 3.137,47.304 3.389,47.304 C3.389,47.304 4.172,47.304 4.172,47.304 C4.424,47.304 4.629,47.082 4.629,46.809 C4.629,46.536 4.424,46.314 4.172,46.314 C4.172,46.314 0.449,46.314 0.449,46.314 C0.196,46.314 -0.009,46.093 -0.009,45.819 C-0.009,45.546 0.196,45.325 0.449,45.325 C0.449,45.325 1.328,45.325 1.328,45.325 C1.328,45.325 6.431,45.325 6.431,45.325 Z" id="path-7" class="cls-3" fill-rule="evenodd"/>
    <path d="M49.597,47.201 C49.597,47.201 50.907,47.201 50.907,47.201 C51.160,47.201 51.365,47.423 51.365,47.697 C51.365,47.969 51.160,48.191 50.907,48.191 C50.907,48.191 50.847,48.191 50.847,48.191 C50.594,48.191 50.389,48.413 50.389,48.686 C50.389,48.959 50.594,49.181 50.847,49.181 C50.847,49.181 53.665,49.181 53.665,49.181 C53.918,49.181 54.123,49.402 54.123,49.675 C54.123,49.949 53.918,50.170 53.665,50.170 C53.665,50.170 50.278,50.170 50.278,50.170 C50.278,50.170 46.556,50.170 46.556,50.170 C46.303,50.170 46.098,49.949 46.098,49.675 C46.098,49.402 46.303,49.181 46.556,49.181 C46.556,49.181 47.338,49.181 47.338,49.181 C47.590,49.181 47.795,48.959 47.795,48.686 C47.795,48.413 47.590,48.191 47.338,48.191 C47.338,48.191 43.615,48.191 43.615,48.191 C43.362,48.191 43.157,47.969 43.157,47.697 C43.157,47.423 43.362,47.201 43.615,47.201 C43.615,47.201 44.495,47.201 44.495,47.201 C44.495,47.201 49.597,47.201 49.597,47.201 Z" id="path-8" class="cls-5" fill-rule="evenodd"/>
    <path d="M55.610,60.002 C56.507,60.002 57.233,59.541 57.233,58.973 C57.233,58.406 56.507,57.945 55.610,57.945 C55.610,57.945 50.637,57.945 50.637,57.945 C49.740,57.945 49.013,58.406 49.013,58.973 C49.013,59.541 49.740,60.002 50.637,60.002 C50.637,60.002 55.610,60.002 55.610,60.002 Z" id="path-9" class="cls-3" fill-rule="evenodd"/>
  </g>
</svg>
