<svg xmlns="http://www.w3.org/2000/svg" xmlns:xlink="http://www.w3.org/1999/xlink" preserveAspectRatio="xMidYMid" width="57" height="61" viewBox="0 0 57 61">
  <defs>
    <style>

      .cls-3 {
        fill: #fbb713;
      }

      .cls-6 {
        fill: #ff3a2f;
      }

      .cls-7 {
        fill: #000000;
        opacity: 0.25;
      }

      .cls-8 {
        fill: #142a3b;
      }

      .cls-9 {
        fill: #000000;
        opacity: 0.35;
      }

      .cls-15 {
        fill: #ffffff;
      }
    </style>
  </defs>
  <g id="group-2svg">
    <path d="M37.387,60.016 C38.608,60.016 39.598,59.389 39.598,58.615 C39.598,57.841 38.608,57.213 37.387,57.213 C37.387,57.213 30.609,57.213 30.609,57.213 C29.387,57.213 28.397,57.841 28.397,58.615 C28.397,59.389 29.387,60.016 30.609,60.016 C30.609,60.016 37.387,60.016 37.387,60.016 Z" id="path-1" class="cls-3" fill-rule="evenodd"/>
    <path d="M48.274,58.615 C48.274,59.349 47.679,59.944 46.945,59.944 C46.211,59.944 45.616,59.349 45.616,58.615 C45.616,57.881 46.211,57.286 46.945,57.286 C47.679,57.286 48.274,57.881 48.274,58.615 Z" id="path-2" class="cls-3" fill-rule="evenodd"/>
    <path d="M13.672,54.484 C13.672,54.484 16.458,54.484 16.458,54.484 C16.995,54.484 17.431,54.902 17.431,55.418 C17.431,55.934 16.995,56.351 16.458,56.351 C16.458,56.351 16.329,56.351 16.329,56.351 C15.791,56.351 15.356,56.770 15.356,57.286 C15.356,57.802 15.791,58.220 16.329,58.220 C16.329,58.220 22.317,58.220 22.317,58.220 C22.854,58.220 23.290,58.639 23.290,59.155 C23.290,59.671 22.854,60.089 22.317,60.089 C22.317,60.089 15.120,60.089 15.120,60.089 C15.120,60.089 7.210,60.089 7.210,60.089 C6.673,60.089 6.237,59.671 6.237,59.155 C6.237,58.639 6.673,58.220 7.210,58.220 C7.210,58.220 8.872,58.220 8.872,58.220 C9.409,58.220 9.845,57.802 9.845,57.286 C9.845,56.770 9.409,56.351 8.872,56.351 C8.872,56.351 0.961,56.351 0.961,56.351 C0.424,56.351 -0.011,55.934 -0.011,55.418 C-0.011,54.902 0.424,54.484 0.961,54.484 C0.961,54.484 2.831,54.484 2.831,54.484 C2.831,54.484 13.672,54.484 13.672,54.484 Z" id="path-3" class="cls-3" fill-rule="evenodd"/>
    <path d="M9.156,-0.000 C9.156,-0.000 9.156,44.034 9.156,44.034 C9.156,47.968 12.793,52.000 15.507,52.000 C15.507,52.000 39.663,52.000 39.663,52.000 C42.377,52.000 45.156,47.968 45.156,44.034 C45.156,44.034 45.156,-0.000 45.156,-0.000 C45.156,-0.000 9.156,-0.000 9.156,-0.000 Z" id="path-4" class="cls-6" fill-rule="evenodd"/>
    <path d="M40.087,0.129 C40.087,0.129 40.087,41.889 40.087,41.889 C40.087,45.824 36.993,49.737 34.279,49.737 C34.279,49.737 11.675,49.827 11.675,49.827 C12.572,50.784 14.140,51.995 15.374,51.995 C15.374,51.995 39.663,51.995 39.663,51.995 C42.377,51.995 45.254,47.891 45.254,43.956 C45.254,43.956 45.254,0.129 45.254,0.129 C45.254,0.129 40.087,0.129 40.087,0.129 Z" id="path-5" class="cls-7" fill-rule="evenodd"/>
    <path d="M34.156,17.000 C34.156,17.000 32.156,17.000 32.156,17.000 C32.156,17.000 32.156,-0.000 32.156,-0.000 C32.156,-0.000 34.156,-0.000 34.156,-0.000 C34.156,-0.000 34.156,17.000 34.156,17.000 Z" id="path-6" class="cls-8" fill-rule="evenodd"/>
    <path d="M37.156,22.000 C37.156,22.000 35.156,22.000 35.156,22.000 C35.156,22.000 35.156,-0.000 35.156,-0.000 C35.156,-0.000 37.156,-0.000 37.156,-0.000 C37.156,-0.000 37.156,22.000 37.156,22.000 Z" id="path-7" class="cls-9" fill-rule="evenodd"/>
    <path d="M39.156,30.000 C39.156,30.000 27.156,30.000 27.156,30.000 C27.156,30.000 27.156,17.000 27.156,17.000 C27.156,17.000 39.156,17.000 39.156,17.000 C39.156,17.000 39.156,30.000 39.156,30.000 Z" id="path-8" class="cls-3" fill-rule="evenodd"/>
    <path d="M39.307,19.903 C39.307,19.903 39.307,30.060 39.307,30.060 C39.307,30.060 30.005,30.060 30.005,30.060 C30.005,30.060 30.005,33.338 30.005,33.338 C30.005,33.338 42.407,33.338 42.407,33.338 C42.407,33.338 42.407,19.903 42.407,19.903 C42.407,19.903 39.307,19.903 39.307,19.903 Z" id="path-9" class="cls-9" fill-rule="evenodd"/>
    <path d="M45.156,39.000 C45.156,39.000 48.311,39.000 48.311,39.000 C48.311,39.000 54.080,39.000 54.080,39.000 C56.266,39.000 57.156,37.196 57.156,35.010 C57.156,35.010 57.156,10.150 57.156,10.150 C57.156,7.965 56.266,6.000 54.080,6.000 C54.080,6.000 48.311,6.000 48.311,6.000 C48.311,6.000 45.156,6.000 45.156,6.000 C45.156,6.000 45.156,11.000 45.156,11.000 C45.156,11.000 48.221,11.000 48.221,11.000 C48.221,11.000 48.875,11.000 48.875,11.000 C51.060,11.000 52.156,13.803 52.156,15.989 C52.156,15.989 52.156,29.171 52.156,29.171 C52.156,31.356 51.060,33.000 48.875,33.000 C48.875,33.000 48.221,33.000 48.221,33.000 C48.221,33.000 45.156,33.000 45.156,33.000 C45.156,33.000 45.156,39.000 45.156,39.000 Z" id="path-10" class="cls-6" fill-rule="evenodd"/>
    <path d="M47.858,33.083 C47.858,33.083 45.254,33.052 45.254,33.052 C45.254,33.052 45.254,39.034 45.254,39.034 C45.254,39.034 47.949,39.034 47.949,39.034 C47.949,39.034 49.932,39.034 49.932,39.034 C49.932,39.034 50.135,32.835 50.135,32.835 C49.699,33.022 49.021,33.083 48.513,33.083 C48.513,33.083 47.858,33.083 47.858,33.083 Z" id="path-11" class="cls-9" fill-rule="evenodd"/>
    <path d="M45.254,6.131 C45.254,6.131 45.254,11.116 45.254,11.116 C45.254,11.116 47.210,11.116 47.210,11.116 C47.210,11.116 47.865,11.116 47.865,11.116 C48.373,11.116 48.875,11.116 49.284,11.150 C49.284,11.150 49.284,6.131 49.284,6.131 C49.284,6.131 47.301,6.131 47.301,6.131 C47.301,6.131 45.254,6.131 45.254,6.131 Z" id="path-12" class="cls-9" fill-rule="evenodd"/>
    <path d="M14.180,42.268 C13.627,42.268 13.180,41.820 13.180,41.268 C13.180,41.268 13.180,9.068 13.180,9.068 C13.180,8.516 13.627,8.068 14.180,8.068 C14.732,8.068 15.180,8.516 15.180,9.068 C15.180,9.068 15.180,41.268 15.180,41.268 C15.180,41.820 14.732,42.268 14.180,42.268 Z" id="path-13" class="cls-15" fill-rule="evenodd"/>
  </g>
</svg>
