<svg xmlns="http://www.w3.org/2000/svg" xmlns:xlink="http://www.w3.org/1999/xlink" preserveAspectRatio="xMidYMid" width="60" height="38" viewBox="0 0 60 38">
  <defs>
    <style>

      .cls-3 {
        fill: #fbb713;
      }

      .cls-6 {
        fill: #142a3b;
      }

      .cls-7 {
        fill: #000000;
        opacity: 0.35;
      }

      .cls-9 {
        fill: #ffffff;
      }

      .cls-10 {
        fill: #010101;
        opacity: 0.35;
      }
    </style>
  </defs>
  <g id="group-268svg">
    <path d="M17.470,29.463 C17.470,29.463 12.581,29.463 12.581,29.463 C11.638,29.463 10.874,30.042 10.874,30.755 C10.874,31.469 11.638,32.047 12.581,32.047 C12.581,32.047 12.808,32.047 12.808,32.047 C13.750,32.047 14.515,32.625 14.515,33.339 C14.515,34.052 13.750,34.631 12.808,34.631 C12.808,34.631 2.298,34.631 2.298,34.631 C1.355,34.631 0.591,35.209 0.591,35.923 C0.591,36.636 1.355,37.214 2.298,37.214 C2.298,37.214 14.928,37.214 14.928,37.214 C14.928,37.214 40.745,37.214 40.745,37.214 C41.687,37.214 42.451,36.636 42.451,35.923 C42.451,35.209 41.687,34.631 40.745,34.631 C40.745,34.631 37.828,34.631 37.828,34.631 C36.885,34.631 36.121,34.052 36.121,33.339 C36.121,32.625 36.885,32.047 37.828,32.047 C37.828,32.047 49.284,32.047 49.284,32.047 C50.227,32.047 50.991,31.469 50.991,30.755 C50.991,30.042 50.227,29.463 49.284,29.463 C49.284,29.463 48.429,29.463 48.429,29.463 C48.429,29.463 17.470,29.463 17.470,29.463 Z" id="path-1" class="cls-3" fill-rule="evenodd"/>
    <path d="M47.791,37.560 C47.001,37.560 46.360,36.940 46.360,36.175 C46.360,35.411 47.001,34.791 47.791,34.791 C47.791,34.791 52.176,34.791 52.176,34.791 C52.967,34.791 53.607,35.411 53.607,36.175 C53.607,36.940 52.967,37.560 52.176,37.560 C52.176,37.560 47.791,37.560 47.791,37.560 Z" id="path-2" class="cls-3" fill-rule="evenodd"/>
    <path d="M10.263,25.459 C10.263,25.459 11.658,25.459 11.658,25.459 C11.926,25.459 12.144,25.220 12.144,24.925 C12.144,24.630 11.926,24.391 11.658,24.391 C11.658,24.391 11.593,24.391 11.593,24.391 C11.324,24.391 11.106,24.152 11.106,23.857 C11.106,23.562 11.324,23.323 11.593,23.323 C11.593,23.323 14.590,23.323 14.590,23.323 C14.859,23.323 15.077,23.084 15.077,22.789 C15.077,22.495 14.859,22.255 14.590,22.255 C14.590,22.255 10.988,22.255 10.988,22.255 C10.988,22.255 3.625,22.255 3.625,22.255 C3.356,22.255 3.138,22.495 3.138,22.789 C3.138,23.084 3.356,23.323 3.625,23.323 C3.625,23.323 4.457,23.323 4.457,23.323 C4.726,23.323 4.944,23.562 4.944,23.857 C4.944,24.152 4.726,24.391 4.457,24.391 C4.457,24.391 0.497,24.391 0.497,24.391 C0.229,24.391 0.011,24.630 0.011,24.925 C0.011,25.220 0.229,25.459 0.497,25.459 C0.497,25.459 1.434,25.459 1.434,25.459 C1.434,25.459 10.263,25.459 10.263,25.459 Z" id="path-3" class="cls-3" fill-rule="evenodd"/>
    <path d="M51.908,30.560 C51.908,30.560 20.144,30.560 20.144,30.560 C20.144,30.560 12.203,20.102 12.203,20.102 C12.203,20.102 59.850,20.102 59.850,20.102 C59.850,20.102 51.908,30.560 51.908,30.560 Z" id="path-4" class="cls-6" fill-rule="evenodd"/>
    <path d="M54.183,20.102 C54.183,20.102 51.040,24.242 51.040,24.242 C48.849,27.128 45.435,28.822 41.811,28.822 C41.811,28.822 18.824,28.822 18.824,28.822 C18.824,28.822 20.144,30.560 20.144,30.560 C20.144,30.560 51.908,30.560 51.908,30.560 C51.908,30.560 59.850,20.102 59.850,20.102 C59.850,20.102 54.183,20.102 54.183,20.102 Z" id="path-5" class="cls-7" fill-rule="evenodd"/>
    <path d="M49.783,20.102 C50.402,18.467 50.756,16.702 50.756,14.850 C50.756,6.641 44.102,-0.013 35.893,-0.013 C27.686,-0.013 21.031,6.641 21.031,14.850 C21.031,16.702 21.386,18.467 22.004,20.102 C22.004,20.102 49.783,20.102 49.783,20.102 Z" id="path-6" class="cls-3" fill-rule="evenodd"/>
    <path d="M25.664,14.352 C25.112,14.352 24.664,13.904 24.664,13.352 C24.664,7.160 29.702,2.122 35.894,2.122 C36.446,2.122 36.894,2.570 36.894,3.123 C36.894,3.675 36.446,4.123 35.894,4.123 C30.805,4.123 26.664,8.262 26.664,13.352 C26.664,13.904 26.216,14.352 25.664,14.352 Z" id="path-7" class="cls-9" fill-rule="evenodd"/>
    <path d="M42.964,1.774 C45.630,4.461 47.279,8.158 47.279,12.242 C47.279,12.260 47.279,12.279 47.279,12.298 C47.268,15.196 44.811,17.494 41.913,17.494 C41.913,17.494 21.277,17.494 21.277,17.494 C21.443,18.394 21.688,19.266 22.004,20.102 C22.004,20.102 49.783,20.102 49.783,20.102 C50.402,18.467 50.756,16.702 50.756,14.849 C50.756,9.201 47.604,4.289 42.964,1.774 Z" id="path-8" class="cls-10" fill-rule="evenodd"/>
    <path d="M52.204,6.880 C52.204,6.880 54.512,12.928 52.204,15.237 C49.896,17.544 46.155,17.544 43.847,15.237 C41.539,12.928 41.539,9.187 43.847,6.880 C46.155,4.572 52.204,6.880 52.204,6.880 Z" id="path-9" class="cls-3" fill-rule="evenodd"/>
    <path d="M53.073,13.498 C50.766,15.805 47.024,15.805 44.716,13.498 C43.120,11.902 42.630,9.619 43.242,7.599 C41.568,9.910 41.766,13.155 43.847,15.237 C46.155,17.544 49.896,17.544 52.204,15.237 C52.664,14.777 52.935,14.165 53.083,13.486 C53.079,13.489 53.077,13.495 53.073,13.498 Z" id="path-10" class="cls-10" fill-rule="evenodd"/>
    <path d="M51.712,9.100 C51.712,9.100 50.522,7.681 50.522,7.681 C50.522,7.681 55.765,3.668 55.765,3.668 C55.765,3.668 56.956,5.088 56.956,5.088 C56.956,5.088 51.712,9.100 51.712,9.100 Z" id="path-11" class="cls-6" fill-rule="evenodd"/>
    <path d="M58.423,2.377 C58.423,3.580 57.447,4.556 56.244,4.556 C55.041,4.556 54.065,3.580 54.065,2.377 C54.065,1.174 55.041,0.198 56.244,0.198 C57.447,0.198 58.423,1.174 58.423,2.377 Z" id="path-12" class="cls-6" fill-rule="evenodd"/>
    <path d="M60.011,4.759 C60.011,5.962 59.036,6.937 57.833,6.937 C56.629,6.937 55.654,5.962 55.654,4.759 C55.654,3.556 56.629,2.580 57.833,2.580 C59.036,2.580 60.011,3.556 60.011,4.759 Z" id="path-13" class="cls-6" fill-rule="evenodd"/>
  </g>
</svg>
