<svg xmlns="http://www.w3.org/2000/svg" xmlns:xlink="http://www.w3.org/1999/xlink" preserveAspectRatio="xMidYMid" width="61" height="57" viewBox="0 0 61 57">
  <defs>
    <style>

      .cls-3 {
        fill: #2476ff;
      }

      .cls-5 {
        fill: #142a3b;
      }
    </style>
  </defs>
  <g id="group-15svg">
    <path d="M32.417,50.796 C32.417,50.796 36.675,50.796 36.675,50.796 C37.496,50.796 38.162,51.217 38.162,51.738 C38.162,52.258 37.496,52.679 36.675,52.679 C36.675,52.679 36.477,52.679 36.477,52.679 C35.656,52.679 34.991,53.101 34.991,53.621 C34.991,54.141 35.656,54.563 36.477,54.563 C36.477,54.563 45.630,54.563 45.630,54.563 C46.451,54.563 47.116,54.984 47.116,55.505 C47.116,56.025 46.451,56.446 45.630,56.446 C45.630,56.446 34.630,56.446 34.630,56.446 C34.630,56.446 22.541,56.446 22.541,56.446 C21.720,56.446 21.055,56.025 21.055,55.505 C21.055,54.984 21.720,54.563 22.541,54.563 C22.541,54.563 25.081,54.563 25.081,54.563 C25.902,54.563 26.568,54.141 26.568,53.621 C26.568,53.101 25.902,52.679 25.081,52.679 C25.081,52.679 12.992,52.679 12.992,52.679 C12.171,52.679 11.506,52.258 11.506,51.738 C11.506,51.217 12.171,50.796 12.992,50.796 C12.992,50.796 15.849,50.796 15.849,50.796 C15.849,50.796 32.417,50.796 32.417,50.796 Z" id="path-1" class="cls-3" fill-rule="evenodd"/>
    <path d="M9.072,45.957 C10.304,45.957 11.302,45.325 11.302,44.545 C11.302,43.765 10.304,43.132 9.072,43.132 C9.072,43.132 2.240,43.132 2.240,43.132 C1.009,43.132 0.010,43.765 0.010,44.545 C0.010,45.325 1.009,45.957 2.240,45.957 C2.240,45.957 9.072,45.957 9.072,45.957 Z" id="path-2" class="cls-3" fill-rule="evenodd"/>
    <path d="M58.589,26.053 C58.589,26.053 49.923,32.696 49.923,32.696 C49.923,32.696 53.704,34.067 53.704,34.067 C50.139,40.250 43.716,44.576 36.239,45.242 C36.239,45.242 36.239,22.565 36.239,22.565 C36.239,22.565 41.394,22.565 41.394,22.565 C41.394,22.565 41.394,18.658 41.394,18.658 C41.394,18.658 36.239,18.658 36.239,18.658 C36.239,18.658 36.239,13.844 36.239,13.844 C39.158,12.975 41.287,10.275 41.287,7.073 C41.287,3.171 38.123,0.006 34.220,0.006 C30.317,0.006 27.153,3.171 27.153,7.073 C27.153,10.275 29.283,12.975 32.201,13.844 C32.201,13.844 32.201,18.658 32.201,18.658 C32.201,18.658 27.046,18.658 27.046,18.658 C27.046,18.658 27.046,22.565 27.046,22.565 C27.046,22.565 32.201,22.565 32.201,22.565 C32.201,22.565 32.201,45.242 32.201,45.242 C24.167,44.527 17.538,39.003 14.176,32.073 C14.176,32.073 18.128,30.610 18.128,30.610 C18.128,30.610 10.162,23.529 10.162,23.529 C10.162,23.529 7.414,34.383 7.414,34.383 C7.414,34.383 11.944,32.913 11.944,32.913 C13.413,43.905 22.826,52.098 34.220,52.098 C44.776,52.098 53.633,44.821 56.046,35.009 C56.046,35.009 60.010,36.879 60.010,36.879 C60.010,36.879 58.589,26.053 58.589,26.053 ZM34.220,9.749 C32.743,9.749 31.545,8.551 31.545,7.073 C31.545,5.596 32.743,4.398 34.220,4.398 C35.698,4.398 36.895,5.596 36.895,7.073 C36.895,8.551 35.698,9.749 34.220,9.749 Z" id="path-3" class="cls-5" fill-rule="evenodd"/>
  </g>
</svg>
