<svg xmlns="http://www.w3.org/2000/svg" xmlns:xlink="http://www.w3.org/1999/xlink" preserveAspectRatio="xMidYMid" width="60" height="56" viewBox="0 0 60 56">
  <defs>
    <style>

      .cls-3 {
        fill: #ff3a2f;
      }

      .cls-7 {
        fill: #fbb713;
      }

      .cls-8 {
        fill: #010101;
        opacity: 0.25;
      }

      .cls-9 {
        fill: #142a3b;
      }

      .cls-10 {
        fill: #010101;
        opacity: 0.35;
      }

      .cls-11 {
        fill: #020200;
        opacity: 0.35;
      }
    </style>
  </defs>
  <g id="group-59svg">
    <path d="M19.206,45.252 C19.206,45.252 21.868,45.252 21.868,45.252 C22.381,45.252 22.797,45.605 22.797,46.041 C22.797,46.476 22.381,46.829 21.868,46.829 C21.868,46.829 21.744,46.829 21.744,46.829 C21.230,46.829 20.814,47.183 20.814,47.618 C20.814,48.054 21.230,48.407 21.744,48.407 C21.744,48.407 27.466,48.407 27.466,48.407 C27.979,48.407 28.395,48.760 28.395,49.195 C28.395,49.631 27.979,49.984 27.466,49.984 C27.466,49.984 20.589,49.984 20.589,49.984 C20.589,49.984 8.221,49.984 8.221,49.984 C7.708,49.984 7.292,49.631 7.292,49.195 C7.292,48.760 7.708,48.407 8.221,48.407 C8.221,48.407 9.810,48.407 9.810,48.407 C10.323,48.407 10.739,48.054 10.739,47.618 C10.739,47.183 10.323,46.829 9.810,46.829 C9.810,46.829 2.251,46.829 2.251,46.829 C1.738,46.829 1.321,46.476 1.321,46.041 C1.321,45.605 1.738,45.252 2.251,45.252 C2.251,45.252 8.846,45.252 8.846,45.252 C8.846,45.252 19.206,45.252 19.206,45.252 Z" id="path-1" class="cls-3" fill-rule="evenodd"/>
    <path d="M51.692,52.840 C51.692,52.840 53.220,52.840 53.220,52.840 C53.515,52.840 53.753,53.043 53.753,53.293 C53.753,53.543 53.515,53.746 53.220,53.746 C53.220,53.746 53.149,53.746 53.149,53.746 C52.854,53.746 52.616,53.949 52.616,54.199 C52.616,54.449 52.854,54.652 53.149,54.652 C53.149,54.652 56.434,54.652 56.434,54.652 C56.728,54.652 56.967,54.854 56.967,55.104 C56.967,55.354 56.728,55.557 56.434,55.557 C56.434,55.557 52.486,55.557 52.486,55.557 C52.486,55.557 45.388,55.557 45.388,55.557 C45.093,55.557 44.854,55.354 44.854,55.104 C44.854,54.854 45.093,54.652 45.388,54.652 C45.388,54.652 46.300,54.652 46.300,54.652 C46.594,54.652 46.833,54.449 46.833,54.199 C46.833,53.949 46.594,53.746 46.300,53.746 C46.300,53.746 41.961,53.746 41.961,53.746 C41.666,53.746 41.428,53.543 41.428,53.293 C41.428,53.043 41.666,52.840 41.961,52.840 C41.961,52.840 45.747,52.840 45.747,52.840 C45.747,52.840 51.692,52.840 51.692,52.840 Z" id="path-2" class="cls-3" fill-rule="evenodd"/>
    <path d="M13.399,30.244 C13.399,30.244 14.145,30.244 14.145,30.244 C14.289,30.244 14.406,30.343 14.406,30.465 C14.406,30.587 14.289,30.686 14.145,30.686 C14.145,30.686 14.111,30.686 14.111,30.686 C13.967,30.686 13.850,30.785 13.850,30.907 C13.850,31.030 13.967,31.129 14.111,31.129 C14.111,31.129 15.716,31.129 15.716,31.129 C15.860,31.129 15.977,31.228 15.977,31.350 C15.977,31.472 15.860,31.571 15.716,31.571 C15.716,31.571 13.787,31.571 13.787,31.571 C13.787,31.571 10.317,31.571 10.317,31.571 C10.173,31.571 10.057,31.472 10.057,31.350 C10.057,31.228 10.173,31.129 10.317,31.129 C10.317,31.129 10.763,31.129 10.763,31.129 C10.907,31.129 11.023,31.030 11.023,30.907 C11.023,30.785 10.907,30.686 10.763,30.686 C10.763,30.686 8.642,30.686 8.642,30.686 C8.498,30.686 8.382,30.587 8.382,30.465 C8.382,30.343 8.498,30.244 8.642,30.244 C8.642,30.244 10.493,30.244 10.493,30.244 C10.493,30.244 13.399,30.244 13.399,30.244 Z" id="path-3" class="cls-3" fill-rule="evenodd"/>
    <path d="M3.392,50.005 C3.851,50.005 4.223,49.769 4.223,49.478 C4.223,49.187 3.851,48.952 3.392,48.952 C3.392,48.952 0.843,48.952 0.843,48.952 C0.383,48.952 0.011,49.187 0.011,49.478 C0.011,49.769 0.383,50.005 0.843,50.005 C0.843,50.005 3.392,50.005 3.392,50.005 Z" id="path-4" class="cls-3" fill-rule="evenodd"/>
    <path d="M54.517,40.730 C54.517,40.730 17.674,40.730 17.674,40.730 C17.674,40.730 24.137,0.008 24.137,0.008 C24.137,0.008 48.053,0.008 48.053,0.008 C48.053,0.008 54.517,40.730 54.517,40.730 Z" id="path-5" class="cls-7" fill-rule="evenodd"/>
    <path d="M48.053,0.008 C48.053,0.008 43.387,0.008 43.387,0.008 C43.387,0.008 48.022,29.212 48.022,29.212 C48.692,33.432 45.432,37.251 41.159,37.251 C41.159,37.251 18.226,37.251 18.226,37.251 C18.226,37.251 17.673,40.730 17.673,40.730 C17.673,40.730 54.517,40.730 54.517,40.730 C54.517,40.730 48.053,0.008 48.053,0.008 Z" id="path-6" class="cls-8" fill-rule="evenodd"/>
    <path d="M60.011,47.840 C60.011,47.840 12.179,47.840 12.179,47.840 C12.179,47.840 12.179,40.730 12.179,40.730 C12.179,40.730 60.011,40.730 60.011,40.730 C60.011,40.730 60.011,47.840 60.011,47.840 Z" id="path-7" class="cls-9" fill-rule="evenodd"/>
    <path d="M56.532,40.730 C56.532,40.730 56.532,42.186 56.532,42.186 C56.532,44.348 54.779,46.101 52.617,46.101 C52.617,46.101 12.179,46.101 12.179,46.101 C12.179,46.101 12.179,47.840 12.179,47.840 C12.179,47.840 60.011,47.840 60.011,47.840 C60.011,47.840 60.011,40.730 60.011,40.730 C60.011,40.730 56.532,40.730 56.532,40.730 Z" id="path-8" class="cls-10" fill-rule="evenodd"/>
    <path d="M44.357,13.320 C43.805,13.320 43.357,12.872 43.357,12.320 C43.357,12.320 43.357,9.960 43.357,9.960 C43.357,9.407 43.805,8.960 44.357,8.960 C44.909,8.960 45.357,9.407 45.357,9.960 C45.357,9.960 45.357,12.320 45.357,12.320 C45.357,12.872 44.909,13.320 44.357,13.320 Z" id="path-9" class="cls-11" fill-rule="evenodd"/>
    <path d="M35.660,13.320 C35.108,13.320 34.660,12.872 34.660,12.320 C34.660,12.320 34.660,9.960 34.660,9.960 C34.660,9.407 35.108,8.960 35.660,8.960 C36.212,8.960 36.660,9.407 36.660,9.960 C36.660,9.960 36.660,12.320 36.660,12.320 C36.660,12.872 36.212,13.320 35.660,13.320 Z" id="path-10" class="cls-11" fill-rule="evenodd"/>
    <path d="M26.964,13.320 C26.412,13.320 25.964,12.872 25.964,12.320 C25.964,12.320 25.964,9.960 25.964,9.960 C25.964,9.407 26.412,8.960 26.964,8.960 C27.516,8.960 27.964,9.407 27.964,9.960 C27.964,9.960 27.964,12.320 27.964,12.320 C27.964,12.872 27.516,13.320 26.964,13.320 Z" id="path-11" class="cls-11" fill-rule="evenodd"/>
    <path d="M26.964,24.625 C26.412,24.625 25.964,24.178 25.964,23.625 C25.964,23.625 25.964,21.265 25.964,21.265 C25.964,20.713 26.412,20.265 26.964,20.265 C27.516,20.265 27.964,20.713 27.964,21.265 C27.964,21.265 27.964,23.625 27.964,23.625 C27.964,24.178 27.516,24.625 26.964,24.625 Z" id="path-12" class="cls-11" fill-rule="evenodd"/>
    <path d="M40.878,30.713 C40.326,30.713 39.878,30.265 39.878,29.713 C39.878,29.713 39.878,27.353 39.878,27.353 C39.878,26.801 40.326,26.353 40.878,26.353 C41.431,26.353 41.878,26.801 41.878,27.353 C41.878,27.353 41.878,29.713 41.878,29.713 C41.878,30.265 41.431,30.713 40.878,30.713 Z" id="path-13" class="cls-11" fill-rule="evenodd"/>
    <path d="M31.312,35.931 C30.760,35.931 30.312,35.483 30.312,34.931 C30.312,34.931 30.312,32.571 30.312,32.571 C30.312,32.019 30.760,31.571 31.312,31.571 C31.864,31.571 32.312,32.019 32.312,32.571 C32.312,32.571 32.312,34.931 32.312,34.931 C32.312,35.483 31.864,35.931 31.312,35.931 Z" id="path-14" class="cls-11" fill-rule="evenodd"/>
    <path d="M45.226,22.886 C44.674,22.886 44.227,22.438 44.227,21.886 C44.227,21.886 44.227,19.526 44.227,19.526 C44.227,18.974 44.674,18.526 45.226,18.526 C45.779,18.526 46.227,18.974 46.227,19.526 C46.227,19.526 46.227,21.886 46.227,21.886 C46.227,22.438 45.779,22.886 45.226,22.886 Z" id="path-15" class="cls-11" fill-rule="evenodd"/>
    <path d="M45.226,37.670 C44.674,37.670 44.227,37.223 44.227,36.670 C44.227,36.670 44.227,34.310 44.227,34.310 C44.227,33.758 44.674,33.310 45.226,33.310 C45.779,33.310 46.227,33.758 46.227,34.310 C46.227,34.310 46.227,36.670 46.227,36.670 C46.227,37.223 45.779,37.670 45.226,37.670 Z" id="path-16" class="cls-11" fill-rule="evenodd"/>
    <path d="M23.485,35.931 C22.933,35.931 22.485,35.483 22.485,34.931 C22.485,34.931 22.485,32.571 22.485,32.571 C22.485,32.019 22.933,31.571 23.485,31.571 C24.037,31.571 24.485,32.019 24.485,32.571 C24.485,32.571 24.485,34.931 24.485,34.931 C24.485,35.483 24.037,35.931 23.485,35.931 Z" id="path-17" class="cls-11" fill-rule="evenodd"/>
    <path d="M36.530,22.016 C35.977,22.016 35.530,21.569 35.530,21.016 C35.530,21.016 35.530,18.656 35.530,18.656 C35.530,18.104 35.977,17.657 36.530,17.657 C37.082,17.657 37.530,18.104 37.530,18.656 C37.530,18.656 37.530,21.016 37.530,21.016 C37.530,21.569 37.082,22.016 36.530,22.016 Z" id="path-18" class="cls-11" fill-rule="evenodd"/>
  </g>
</svg>
