<svg xmlns="http://www.w3.org/2000/svg" xmlns:xlink="http://www.w3.org/1999/xlink" preserveAspectRatio="xMidYMid" width="57" height="60" viewBox="0 0 57 60">
  <defs>
    <style>

      .cls-3 {
        fill: #ff3a2f;
      }

      .cls-6 {
        fill: #2476ff;
      }

      .cls-7 {
        fill: #ffffff;
        opacity: 0.35;
      }

      .cls-9 {
        fill: #ededed;
      }
    </style>
  </defs>
  <g id="group-187svg">
    <path d="M24.199,56.059 C24.199,56.059 27.851,56.059 27.851,56.059 C28.555,56.059 29.125,56.315 29.125,56.631 C29.125,56.947 28.555,57.204 27.851,57.204 C27.851,57.204 27.681,57.204 27.681,57.204 C26.977,57.204 26.406,57.460 26.406,57.776 C26.406,58.092 26.977,58.348 27.681,58.348 C27.681,58.348 35.531,58.348 35.531,58.348 C36.234,58.348 36.806,58.605 36.806,58.921 C36.806,59.237 36.234,59.493 35.531,59.493 C35.531,59.493 26.097,59.493 26.097,59.493 C26.097,59.493 15.728,59.493 15.728,59.493 C15.024,59.493 14.453,59.237 14.453,58.921 C14.453,58.605 15.024,58.348 15.728,58.348 C15.728,58.348 17.907,58.348 17.907,58.348 C18.611,58.348 19.182,58.092 19.182,57.776 C19.182,57.460 18.611,57.204 17.907,57.204 C17.907,57.204 7.538,57.204 7.538,57.204 C6.834,57.204 6.264,56.947 6.264,56.631 C6.264,56.315 6.834,56.059 7.538,56.059 C7.538,56.059 9.988,56.059 9.988,56.059 C9.988,56.059 24.199,56.059 24.199,56.059 Z" id="path-1" class="cls-3" fill-rule="evenodd"/>
    <path d="M46.801,59.988 C47.604,59.988 48.257,59.696 48.257,59.335 C48.257,58.974 47.604,58.681 46.801,58.681 C46.801,58.681 42.340,58.681 42.340,58.681 C41.536,58.681 40.885,58.974 40.885,59.335 C40.885,59.696 41.536,59.988 42.340,59.988 C42.340,59.988 46.801,59.988 46.801,59.988 Z" id="path-2" class="cls-3" fill-rule="evenodd"/>
    <path d="M50.254,50.917 C50.254,50.917 51.931,50.917 51.931,50.917 C52.254,50.917 52.517,51.062 52.517,51.242 C52.517,51.421 52.254,51.566 51.931,51.566 C51.931,51.566 51.853,51.566 51.853,51.566 C51.529,51.566 51.268,51.712 51.268,51.891 C51.268,52.070 51.529,52.216 51.853,52.216 C51.853,52.216 55.457,52.216 55.457,52.216 C55.781,52.216 56.043,52.361 56.043,52.541 C56.043,52.720 55.781,52.865 55.457,52.865 C55.457,52.865 51.126,52.865 51.126,52.865 C51.126,52.865 42.271,52.865 42.271,52.865 C41.948,52.865 41.685,52.720 41.685,52.541 C41.685,52.361 41.948,52.216 42.271,52.216 C42.271,52.216 43.271,52.216 43.271,52.216 C43.595,52.216 43.857,52.070 43.857,51.891 C43.857,51.712 43.595,51.566 43.271,51.566 C43.271,51.566 38.511,51.566 38.511,51.566 C38.187,51.566 37.925,51.421 37.925,51.242 C37.925,51.062 38.187,50.917 38.511,50.917 C38.511,50.917 39.636,50.917 39.636,50.917 C39.636,50.917 50.254,50.917 50.254,50.917 Z" id="path-3" class="cls-3" fill-rule="evenodd"/>
    <path d="M27.176,-0.011 C12.164,-0.011 -0.006,12.158 -0.006,27.171 C-0.006,42.183 12.164,54.352 27.176,54.352 C42.187,54.352 54.357,42.183 54.357,27.171 C54.357,12.158 42.187,-0.011 27.176,-0.011 ZM27.176,36.418 C22.068,36.418 17.929,32.278 17.929,27.171 C17.929,22.063 22.068,17.923 27.176,17.923 C32.283,17.923 36.424,22.063 36.424,27.171 C36.424,32.278 32.283,36.418 27.176,36.418 Z" id="path-4" class="cls-6" fill-rule="evenodd"/>
    <path d="M24.785,18.247 C24.785,18.247 20.141,0.913 20.141,0.913 C10.784,3.414 3.420,10.779 0.919,20.134 C0.919,20.134 18.252,24.779 18.252,24.779 C19.104,21.597 21.602,19.097 24.785,18.247 Z" id="path-5" class="cls-7" fill-rule="evenodd"/>
    <path d="M36.100,29.562 C35.249,32.744 32.749,35.243 29.567,36.094 C29.567,36.094 34.211,53.427 34.211,53.427 C43.567,50.926 50.933,43.562 53.434,34.206 C53.434,34.206 36.100,29.562 36.100,29.562 Z" id="path-6" class="cls-7" fill-rule="evenodd"/>
    <path d="M27.151,48.935 C15.790,48.935 6.547,39.693 6.547,28.331 C6.547,27.779 6.994,27.331 7.547,27.331 C8.100,27.331 8.547,27.779 8.547,28.331 C8.547,38.590 16.892,46.935 27.151,46.935 C27.704,46.935 28.151,47.384 28.151,47.935 C28.151,48.488 27.704,48.935 27.151,48.935 Z" id="path-7" class="cls-9" fill-rule="evenodd"/>
  </g>
</svg>
