<svg xmlns="http://www.w3.org/2000/svg" xmlns:xlink="http://www.w3.org/1999/xlink" preserveAspectRatio="xMidYMid" width="61" height="57" viewBox="0 0 61 57">
  <defs>
    <style>

      .cls-3 {
        fill: #fbb713;
      }

      .cls-5 {
        fill: #0cb04a;
      }

      .cls-6 {
        fill: #020403;
        opacity: 0.25;
      }

      .cls-7 {
        fill: #000000;
        opacity: 0.35;
      }

      .cls-9 {
        fill: #020403;
        opacity: 0.45;
      }

      .cls-11 {
        fill: #ffffff;
      }

      .cls-12 {
        fill: #ff3a2f;
      }

      .cls-15 {
        fill: #020403;
        opacity: 0.35;
      }
    </style>
  </defs>
  <g id="group-8svg">
    <path d="M53.489,56.696 C54.695,56.696 55.672,56.077 55.672,55.313 C55.672,54.549 54.695,53.930 53.489,53.930 C53.489,53.930 46.799,53.930 46.799,53.930 C45.594,53.930 44.616,54.549 44.616,55.313 C44.616,56.077 45.594,56.696 46.799,56.696 C46.799,56.696 53.489,56.696 53.489,56.696 Z" id="path-1" class="cls-3" fill-rule="evenodd"/>
    <path d="M20.463,48.466 C20.463,48.466 24.632,48.466 24.632,48.466 C25.436,48.466 26.087,48.879 26.087,49.388 C26.087,49.898 25.436,50.310 24.632,50.310 C24.632,50.310 24.437,50.310 24.437,50.310 C23.634,50.310 22.982,50.723 22.982,51.233 C22.982,51.742 23.634,52.155 24.437,52.155 C24.437,52.155 33.399,52.155 33.399,52.155 C34.203,52.155 34.855,52.568 34.855,53.077 C34.855,53.586 34.203,53.998 33.399,53.998 C33.399,53.998 22.630,53.998 22.630,53.998 C22.630,53.998 10.793,53.998 10.793,53.998 C9.988,53.998 9.337,53.586 9.337,53.077 C9.337,52.568 9.988,52.155 10.793,52.155 C10.793,52.155 13.279,52.155 13.279,52.155 C14.084,52.155 14.735,51.742 14.735,51.233 C14.735,50.723 14.084,50.310 13.279,50.310 C13.279,50.310 1.442,50.310 1.442,50.310 C0.639,50.310 -0.013,49.898 -0.013,49.388 C-0.013,48.879 0.639,48.466 1.442,48.466 C1.442,48.466 4.240,48.466 4.240,48.466 C4.240,48.466 20.463,48.466 20.463,48.466 Z" id="path-2" class="cls-3" fill-rule="evenodd"/>
    <path d="M29.111,2.089 C37.238,-0.581 45.627,-0.730 54.326,2.089 C54.326,2.089 50.981,12.907 50.981,12.907 C50.981,12.907 59.987,42.250 59.987,42.250 C59.987,46.250 23.193,46.250 23.193,42.250 C23.193,42.250 32.456,12.539 32.456,12.539 C32.456,12.539 29.111,2.089 29.111,2.089 Z" id="path-3" class="cls-5" fill-rule="evenodd"/>
    <path d="M50.981,12.898 C50.981,12.898 54.326,2.080 54.326,2.080 C52.870,1.608 51.423,1.226 49.983,0.919 C49.983,0.919 46.901,11.210 46.901,11.210 C46.901,11.210 55.907,40.905 55.907,40.905 C55.907,44.142 32.782,44.041 23.204,42.145 C23.204,42.145 23.193,42.179 23.193,42.179 C23.193,46.259 59.987,46.322 59.987,42.242 C59.987,42.242 50.981,12.898 50.981,12.898 Z" id="path-4" class="cls-6" fill-rule="evenodd"/>
    <path d="M50.008,13.761 C49.936,13.761 49.864,13.753 49.791,13.737 C47.949,13.330 44.719,13.118 42.582,12.977 C42.582,12.977 41.692,12.918 41.692,12.918 C41.142,12.880 40.726,12.401 40.764,11.850 C40.803,11.300 41.279,10.883 41.831,10.923 C41.831,10.923 42.713,10.982 42.713,10.982 C44.911,11.126 48.232,11.345 50.223,11.784 C50.762,11.903 51.103,12.437 50.983,12.975 C50.880,13.442 50.467,13.761 50.008,13.761 Z" id="path-5" class="cls-7" fill-rule="evenodd"/>
    <path d="M33.295,13.761 C32.845,13.761 32.436,13.454 32.324,12.996 C32.193,12.460 32.523,11.919 33.059,11.789 C35.956,11.085 37.669,11.001 38.919,10.941 C38.919,10.941 39.296,10.922 39.296,10.922 C39.839,10.890 40.318,11.314 40.349,11.866 C40.378,12.418 39.955,12.889 39.403,12.919 C39.403,12.919 39.016,12.938 39.016,12.938 C37.781,12.998 36.244,13.073 33.532,13.732 C33.453,13.751 33.373,13.761 33.295,13.761 Z" id="path-6" class="cls-7" fill-rule="evenodd"/>
    <path d="M41.762,10.187 C41.762,10.187 41.762,16.180 41.762,16.180 C41.762,16.777 42.034,17.261 42.781,17.261 C43.529,17.261 43.802,16.777 43.802,16.180 C43.802,16.180 43.802,9.861 43.802,9.861 C43.802,9.264 44.822,8.780 45.842,8.780 C45.842,8.780 45.842,0.253 45.842,0.253 C42.394,-0.118 38.995,-0.027 35.641,0.501 C35.641,0.501 35.641,3.104 35.641,3.104 C35.641,3.104 35.641,9.096 35.641,9.096 C35.641,9.693 36.423,10.178 37.171,10.178 C37.919,10.178 38.701,9.693 38.701,9.096 C38.701,9.096 38.701,2.777 38.701,2.777 C38.701,2.180 39.483,1.696 40.231,1.696 C40.979,1.696 41.762,2.180 41.762,2.777 C41.762,2.777 41.762,5.431 41.762,5.431 C41.762,5.431 41.762,10.187 41.762,10.187 Z" id="path-7" class="cls-9" fill-rule="evenodd"/>
    <path d="M41.762,9.861 C41.762,9.264 42.781,8.780 43.802,8.780 C43.802,8.780 43.802,0.088 43.802,0.088 C40.354,-0.101 36.955,0.166 33.601,0.872 C33.601,0.872 33.601,3.104 33.601,3.104 C33.601,3.104 33.601,9.096 33.601,9.096 C33.601,9.693 34.383,10.178 35.131,10.178 C35.879,10.178 36.661,9.693 36.661,9.096 C36.661,9.096 36.661,2.777 36.661,2.777 C36.661,2.180 37.443,1.696 38.191,1.696 C38.939,1.696 39.722,2.180 39.722,2.777 C39.722,2.777 39.722,5.431 39.722,5.431 C39.722,5.431 39.722,10.187 39.722,10.187 C39.722,10.187 39.722,16.180 39.722,16.180 C39.722,16.777 39.993,17.261 40.741,17.261 C41.489,17.261 41.762,16.777 41.762,16.180 C41.762,16.180 41.762,9.861 41.762,9.861 Z" id="path-8" class="cls-3" fill-rule="evenodd"/>
    <path d="M29.351,36.341 C29.248,36.341 29.145,36.325 29.042,36.291 C28.517,36.120 28.228,35.557 28.399,35.032 C28.399,35.032 33.904,18.080 33.904,18.080 C34.075,17.555 34.640,17.267 35.164,17.438 C35.689,17.608 35.977,18.172 35.807,18.698 C35.807,18.698 30.302,35.649 30.302,35.649 C30.164,36.072 29.772,36.341 29.351,36.341 Z" id="path-9" class="cls-11" fill-rule="evenodd"/>
    <path d="M22.181,15.164 C22.181,15.164 7.347,10.028 7.347,10.028 C6.472,9.725 5.429,10.550 5.044,11.852 C5.044,11.852 5.044,11.852 5.044,11.852 C4.659,13.153 5.084,14.413 5.983,14.635 C5.983,14.635 21.224,18.397 21.224,18.397 C21.224,18.397 22.181,15.164 22.181,15.164 Z" id="path-10" class="cls-12" fill-rule="evenodd"/>
    <path d="M17.896,17.551 C17.896,17.551 18.072,17.611 18.072,17.611 C18.072,17.611 21.224,18.389 21.224,18.389 C21.224,18.389 22.181,15.155 22.181,15.155 C22.181,15.155 20.597,14.606 20.597,14.606 C20.597,14.606 17.896,17.551 17.896,17.551 Z" id="path-11" class="cls-7" fill-rule="evenodd"/>
    <path d="M31.138,17.730 C31.138,17.730 23.190,14.466 23.190,14.466 C22.486,14.177 21.620,14.838 21.305,15.905 C21.305,15.905 20.710,17.914 20.710,17.914 C20.401,18.959 20.746,19.969 21.471,20.139 C21.471,20.139 29.844,22.105 29.844,22.105 C29.844,22.105 31.138,17.730 31.138,17.730 Z" id="path-12" class="cls-5" fill-rule="evenodd"/>
    <path d="M29.844,22.097 C29.844,22.097 31.138,17.722 31.138,17.722 C31.138,17.722 29.364,16.993 29.364,16.993 C29.364,16.993 27.069,21.445 27.069,21.445 C27.069,21.445 29.844,22.097 29.844,22.097 Z" id="path-13" class="cls-15" fill-rule="evenodd"/>
  </g>
</svg>
