<svg xmlns="http://www.w3.org/2000/svg" xmlns:xlink="http://www.w3.org/1999/xlink" preserveAspectRatio="xMidYMid" width="60" height="57" viewBox="0 0 60 57">
  <defs>
    <style>

      .cls-3 {
        fill: #2476ff;
      }

      .cls-6 {
        fill: #fbb713;
      }

      .cls-7 {
        fill: #020403;
        opacity: 0.25;
      }

      .cls-8 {
        fill: #000000;
        opacity: 0.35;
      }

      .cls-9 {
        fill: #142a3b;
      }

      .cls-12 {
        fill: #ffffff;
      }
    </style>
  </defs>
  <g id="group-135svg">
    <path d="M42.795,50.726 C42.795,50.726 47.775,50.726 47.775,50.726 C48.735,50.726 49.514,51.076 49.514,51.507 C49.514,51.938 48.735,52.288 47.775,52.288 C47.775,52.288 47.543,52.288 47.543,52.288 C46.583,52.288 45.805,52.638 45.805,53.070 C45.805,53.501 46.583,53.851 47.543,53.851 C47.543,53.851 58.250,53.851 58.250,53.851 C59.211,53.851 59.989,54.200 59.989,54.632 C59.989,55.063 59.211,55.413 58.250,55.413 C58.250,55.413 45.383,55.413 45.383,55.413 C45.383,55.413 31.241,55.413 31.241,55.413 C30.280,55.413 29.502,55.063 29.502,54.632 C29.502,54.200 30.280,53.851 31.241,53.851 C31.241,53.851 34.213,53.851 34.213,53.851 C35.173,53.851 35.951,53.501 35.951,53.070 C35.951,52.638 35.173,52.288 34.213,52.288 C34.213,52.288 20.070,52.288 20.070,52.288 C19.110,52.288 18.332,51.938 18.332,51.507 C18.332,51.076 19.110,50.726 20.070,50.726 C20.070,50.726 23.413,50.726 23.413,50.726 C23.413,50.726 42.795,50.726 42.795,50.726 Z" id="path-1" class="cls-3" fill-rule="evenodd"/>
    <path d="M16.231,56.088 C17.328,56.088 18.217,55.689 18.217,55.196 C18.217,54.704 17.328,54.305 16.231,54.305 C16.231,54.305 10.147,54.305 10.147,54.305 C9.051,54.305 8.162,54.704 8.162,55.196 C8.162,55.689 9.051,56.088 10.147,56.088 C10.147,56.088 16.231,56.088 16.231,56.088 Z" id="path-2" class="cls-3" fill-rule="evenodd"/>
    <path d="M15.021,38.959 C15.021,38.959 17.065,38.959 17.065,38.959 C17.460,38.959 17.779,39.136 17.779,39.355 C17.779,39.574 17.460,39.751 17.065,39.751 C17.065,39.751 16.971,39.751 16.971,39.751 C16.576,39.751 16.257,39.928 16.257,40.147 C16.257,40.366 16.576,40.543 16.971,40.543 C16.971,40.543 21.365,40.543 21.365,40.543 C21.760,40.543 22.079,40.721 22.079,40.940 C22.079,41.158 21.760,41.335 21.365,41.335 C21.365,41.335 16.084,41.335 16.084,41.335 C16.084,41.335 5.288,41.335 5.288,41.335 C4.894,41.335 4.574,41.158 4.574,40.940 C4.574,40.721 4.894,40.543 5.288,40.543 C5.288,40.543 6.508,40.543 6.508,40.543 C6.902,40.543 7.222,40.366 7.222,40.147 C7.222,39.928 6.902,39.751 6.508,39.751 C6.508,39.751 0.703,39.751 0.703,39.751 C0.309,39.751 -0.011,39.574 -0.011,39.355 C-0.011,39.136 0.309,38.959 0.703,38.959 C0.703,38.959 2.075,38.959 2.075,38.959 C2.075,38.959 15.021,38.959 15.021,38.959 Z" id="path-3" class="cls-3" fill-rule="evenodd"/>
    <path d="M52.417,38.580 C54.760,32.971 55.314,26.661 55.420,23.255 C55.468,21.681 54.206,20.000 52.632,20.000 C52.632,20.000 26.633,20.000 26.633,20.000 C25.060,20.000 23.797,21.541 23.846,23.115 C24.051,29.755 25.965,46.000 39.507,51.000 C39.507,51.000 39.759,51.000 39.759,51.000 C49.685,47.000 52.417,38.580 52.417,38.580 Z" id="path-4" class="cls-6" fill-rule="evenodd"/>
    <path d="M53.320,20.157 C53.133,23.690 52.476,29.198 50.365,34.252 C50.365,34.252 47.633,43.143 37.707,46.736 C37.707,46.736 37.454,46.736 37.454,46.736 C32.518,45.239 29.133,42.022 26.807,38.219 C29.023,43.702 32.864,48.829 39.507,50.842 C39.507,50.842 39.759,50.842 39.759,50.842 C49.685,47.249 52.417,38.358 52.417,38.358 C54.760,32.749 55.314,26.572 55.420,23.167 C55.461,21.832 54.556,20.526 53.320,20.157 Z" id="path-5" class="cls-7" fill-rule="evenodd"/>
    <path d="M23.846,23.454 C23.881,24.574 23.775,23.615 23.955,25.193 C23.955,25.193 55.134,27.570 55.134,27.570 C55.299,26.078 55.387,24.730 55.420,23.657 C55.438,23.055 55.263,22.488 54.954,22.016 C54.954,22.016 24.229,22.016 24.229,22.016 C23.977,22.427 23.829,22.912 23.846,23.454 Z" id="path-6" class="cls-8" fill-rule="evenodd"/>
    <path d="M23.845,22.985 C21.755,23.043 21.677,21.457 21.677,21.457 C20.527,13.488 31.923,8.928 31.923,8.928 C34.259,8.069 36.873,7.589 39.633,7.589 C49.549,7.589 57.588,13.798 57.588,21.457 C57.588,21.457 57.526,22.637 55.726,22.985 C55.726,22.985 55.726,22.985 55.726,22.985 " id="path-7" class="cls-9" fill-rule="evenodd"/>
    <path d="M43.564,7.932 C48.312,10.428 51.432,14.634 51.432,19.404 C51.432,19.404 51.369,20.583 49.569,20.932 C49.569,20.932 21.626,20.932 21.626,20.932 C21.640,21.106 21.651,21.280 21.677,21.457 C21.677,21.457 21.755,23.043 23.845,22.985 C23.845,22.985 55.726,22.985 55.726,22.985 C57.526,22.637 57.588,21.457 57.588,21.457 C57.588,14.842 51.588,9.319 43.564,7.932 Z" id="path-8" class="cls-8" fill-rule="evenodd"/>
    <path d="M39.281,9.000 C38.728,9.000 38.281,8.552 38.281,8.000 C38.281,8.000 38.281,1.000 38.281,1.000 C38.281,0.448 38.728,-0.000 39.281,-0.000 C39.834,-0.000 40.281,0.448 40.281,1.000 C40.281,1.000 40.281,8.000 40.281,8.000 C40.281,8.552 39.834,9.000 39.281,9.000 Z" id="path-9" class="cls-9" fill-rule="evenodd"/>
    <path d="M25.999,18.892 C25.888,18.892 25.774,18.873 25.664,18.833 C25.144,18.649 24.873,18.081 25.056,17.560 C25.081,17.489 27.688,10.359 35.729,10.221 C36.307,10.201 36.737,10.651 36.747,11.204 C36.757,11.756 36.316,12.211 35.765,12.220 C29.138,12.334 27.027,17.988 26.941,18.229 C26.794,18.637 26.409,18.892 25.999,18.892 Z" id="path-10" class="cls-12" fill-rule="evenodd"/>
  </g>
</svg>
