<svg xmlns="http://www.w3.org/2000/svg" xmlns:xlink="http://www.w3.org/1999/xlink" preserveAspectRatio="xMidYMid" width="60" height="59" viewBox="0 0 60 59">
  <defs>
    <style>

      .cls-3 {
        fill: #ff3a2f;
      }

      .cls-5 {
        fill: #2476ff;
      }

      .cls-6 {
        fill: #ffffff;
      }

      .cls-7 {
        fill: #020403;
        opacity: 0.2;
      }

      .cls-8 {
        fill: #142a3b;
      }

      .cls-9 {
        fill: #020403;
        opacity: 0.3;
      }
    </style>
  </defs>
  <g id="group-161svg">
    <path d="M16.101,52.283 C16.101,52.283 10.573,52.283 10.573,52.283 C9.507,52.283 8.643,52.777 8.643,53.388 C8.643,53.998 9.507,54.493 10.573,54.493 C10.573,54.493 10.831,54.493 10.831,54.493 C11.896,54.493 12.761,54.988 12.761,55.598 C12.761,56.209 11.896,56.703 10.831,56.703 C10.831,56.703 1.945,56.703 1.945,56.703 C0.879,56.703 0.016,57.199 0.016,57.809 C0.016,58.419 0.879,58.914 1.945,58.914 C1.945,58.914 13.228,58.914 13.228,58.914 C13.228,58.914 42.421,58.914 42.421,58.914 C43.487,58.914 44.352,58.419 44.352,57.809 C44.352,57.199 43.487,56.703 42.421,56.703 C42.421,56.703 39.123,56.703 39.123,56.703 C38.057,56.703 37.193,56.209 37.193,55.598 C37.193,54.988 38.057,54.493 39.123,54.493 C39.123,54.493 52.078,54.493 52.078,54.493 C53.144,54.493 54.008,53.998 54.008,53.388 C54.008,52.777 53.144,52.283 52.078,52.283 C52.078,52.283 51.111,52.283 51.111,52.283 C51.111,52.283 16.101,52.283 16.101,52.283 Z" id="path-1" class="cls-3" fill-rule="evenodd"/>
    <path d="M53.438,59.210 C52.545,59.210 51.820,58.680 51.820,58.025 C51.820,57.371 52.545,56.841 53.438,56.841 C53.438,56.841 58.397,56.841 58.397,56.841 C59.291,56.841 60.016,57.371 60.016,58.025 C60.016,58.680 59.291,59.210 58.397,59.210 C58.397,59.210 53.438,59.210 53.438,59.210 Z" id="path-2" class="cls-3" fill-rule="evenodd"/>
    <path d="M57.864,26.991 C57.864,41.902 45.776,53.991 30.864,53.991 C15.953,53.991 3.864,41.902 3.864,26.991 C3.864,12.079 15.953,-0.009 30.864,-0.009 C45.776,-0.009 57.864,12.079 57.864,26.991 Z" id="path-3" class="cls-5" fill-rule="evenodd"/>
    <path d="M10.083,25.272 C9.254,25.272 8.583,24.601 8.583,23.772 C8.583,12.709 17.583,3.709 28.645,3.709 C29.474,3.709 30.145,4.381 30.145,5.209 C30.145,6.038 29.474,6.709 28.645,6.709 C19.237,6.709 11.583,14.363 11.583,23.772 C11.583,24.601 10.912,25.272 10.083,25.272 Z" id="path-4" class="cls-6" fill-rule="evenodd"/>
    <path d="M40.768,1.874 C46.345,6.820 49.864,14.035 49.864,22.076 C49.864,36.988 37.776,49.077 22.864,49.077 C19.367,49.077 16.028,48.404 12.960,47.193 C17.726,51.420 23.993,53.991 30.864,53.991 C45.776,53.991 57.864,41.902 57.864,26.991 C57.864,15.577 50.778,5.824 40.768,1.874 Z" id="path-5" class="cls-7" fill-rule="evenodd"/>
    <path d="M37.864,20.991 C37.864,17.125 34.730,13.991 30.864,13.991 C26.998,13.991 23.864,17.125 23.864,20.991 C23.864,23.823 25.550,26.256 27.970,27.359 C27.970,27.359 25.864,39.991 25.864,39.991 C25.864,39.991 35.864,39.991 35.864,39.991 C35.864,39.991 33.759,27.359 33.759,27.359 C36.179,26.256 37.864,23.823 37.864,20.991 Z" id="path-6" class="cls-8" fill-rule="evenodd"/>
    <path d="M37.864,20.991 C37.864,17.125 34.730,13.991 30.864,13.991 C30.349,13.991 29.848,14.050 29.364,14.156 C32.509,14.843 34.864,17.640 34.864,20.991 C34.864,23.823 33.179,26.257 30.759,27.359 C30.759,27.359 32.864,39.991 32.864,39.991 C32.864,39.991 35.864,39.991 35.864,39.991 C35.864,39.991 33.759,27.359 33.759,27.359 C36.179,26.257 37.864,23.823 37.864,20.991 Z" id="path-7" class="cls-9" fill-rule="evenodd"/>
  </g>
</svg>
