<svg xmlns="http://www.w3.org/2000/svg" xmlns:xlink="http://www.w3.org/1999/xlink" preserveAspectRatio="xMidYMid" width="57" height="59" viewBox="0 0 57 59">
  <defs>
    <style>

      .cls-3 {
        fill: #ff3a2f;
      }

      .cls-9 {
        fill: #142a3b;
      }

      .cls-10 {
        fill: #2476ff;
      }

      .cls-11 {
        fill: #ededed;
      }

      .cls-14 {
        fill: #010101;
        opacity: 0.35;
      }
    </style>
  </defs>
  <g id="group-286svg">
    <path d="M49.076,38.583 C49.076,38.583 47.929,37.436 47.929,37.436 C47.707,37.215 47.335,37.228 47.097,37.467 C46.859,37.705 46.845,38.077 47.066,38.298 C47.066,38.298 47.120,38.352 47.120,38.352 C47.341,38.573 47.328,38.945 47.089,39.183 C46.851,39.421 46.479,39.435 46.258,39.214 C46.258,39.214 43.792,36.747 43.792,36.747 C43.570,36.526 43.198,36.540 42.960,36.778 C42.722,37.016 42.708,37.389 42.930,37.609 C42.930,37.609 45.894,40.574 45.894,40.574 C45.894,40.574 51.952,46.632 51.952,46.632 C52.173,46.853 52.545,46.839 52.783,46.601 C53.021,46.363 53.035,45.991 52.813,45.769 C52.813,45.769 52.129,45.085 52.129,45.085 C51.908,44.864 51.922,44.491 52.160,44.254 C52.398,44.015 52.770,44.002 52.991,44.223 C52.991,44.223 55.680,46.911 55.680,46.911 C55.901,47.132 56.273,47.119 56.511,46.881 C56.749,46.642 56.763,46.270 56.542,46.049 C56.542,46.049 56.341,45.848 56.341,45.848 C56.341,45.848 49.076,38.583 49.076,38.583 Z" id="path-1" class="cls-3" fill-rule="evenodd"/>
    <path d="M53.503,48.261 C53.348,48.105 53.358,47.843 53.526,47.674 C53.694,47.506 53.957,47.495 54.113,47.651 C54.113,47.651 54.978,48.516 54.978,48.516 C55.134,48.672 55.123,48.934 54.955,49.103 C54.787,49.271 54.524,49.282 54.368,49.126 C54.368,49.126 53.503,48.261 53.503,48.261 Z" id="path-2" class="cls-3" fill-rule="evenodd"/>
    <path d="M30.259,47.411 C30.259,47.411 30.259,45.789 30.259,45.789 C30.259,45.476 29.986,45.222 29.649,45.222 C29.313,45.222 29.040,45.476 29.040,45.789 C29.040,45.789 29.040,45.864 29.040,45.864 C29.040,46.177 28.767,46.430 28.430,46.430 C28.094,46.430 27.821,46.177 27.821,45.864 C27.821,45.864 27.821,42.376 27.821,42.376 C27.821,42.063 27.548,41.810 27.211,41.810 C26.875,41.810 26.601,42.063 26.601,42.376 C26.601,42.376 26.601,46.568 26.601,46.568 C26.601,46.568 26.601,55.135 26.601,55.135 C26.601,55.448 26.875,55.702 27.211,55.702 C27.548,55.702 27.821,55.448 27.821,55.135 C27.821,55.135 27.821,54.167 27.821,54.167 C27.821,53.854 28.094,53.601 28.430,53.601 C28.767,53.601 29.040,53.854 29.040,54.167 C29.040,54.167 29.040,57.969 29.040,57.969 C29.040,58.282 29.313,58.536 29.649,58.536 C29.986,58.536 30.259,58.282 30.259,57.969 C30.259,57.969 30.259,57.686 30.259,57.686 C30.259,57.686 30.259,47.411 30.259,47.411 Z" id="path-3" class="cls-3" fill-rule="evenodd"/>
    <path d="M26.547,57.385 C26.547,57.164 26.740,56.986 26.978,56.986 C27.216,56.986 27.409,57.164 27.409,57.385 C27.409,57.385 27.409,58.608 27.409,58.608 C27.409,58.828 27.216,59.007 26.978,59.007 C26.740,59.007 26.547,58.828 26.547,58.608 C26.547,58.608 26.547,57.385 26.547,57.385 Z" id="path-4" class="cls-3" fill-rule="evenodd"/>
    <path d="M7.632,38.583 C7.632,38.583 8.779,37.436 8.779,37.436 C9.001,37.215 9.373,37.228 9.611,37.467 C9.849,37.705 9.863,38.077 9.642,38.298 C9.642,38.298 9.588,38.352 9.588,38.352 C9.367,38.573 9.381,38.945 9.619,39.183 C9.857,39.421 10.229,39.435 10.450,39.214 C10.450,39.214 12.916,36.747 12.916,36.747 C13.138,36.526 13.510,36.540 13.748,36.778 C13.986,37.016 14.000,37.389 13.779,37.609 C13.779,37.609 10.815,40.574 10.815,40.574 C10.815,40.574 4.757,46.632 4.757,46.632 C4.536,46.853 4.163,46.839 3.925,46.601 C3.687,46.363 3.673,45.991 3.894,45.769 C3.894,45.769 4.579,45.085 4.579,45.085 C4.800,44.864 4.787,44.491 4.548,44.254 C4.311,44.015 3.938,44.002 3.717,44.223 C3.717,44.223 1.028,46.911 1.028,46.911 C0.807,47.132 0.435,47.119 0.197,46.881 C-0.041,46.642 -0.055,46.270 0.166,46.049 C0.166,46.049 0.367,45.848 0.367,45.848 C0.367,45.848 7.632,38.583 7.632,38.583 Z" id="path-5" class="cls-3" fill-rule="evenodd"/>
    <path d="M3.205,48.261 C3.360,48.105 3.351,47.843 3.182,47.674 C3.014,47.506 2.751,47.495 2.595,47.651 C2.595,47.651 1.730,48.516 1.730,48.516 C1.575,48.672 1.585,48.934 1.753,49.103 C1.921,49.271 2.185,49.282 2.340,49.126 C2.340,49.126 3.205,48.261 3.205,48.261 Z" id="path-6" class="cls-3" fill-rule="evenodd"/>
    <path d="M28.906,10.344 C28.354,10.344 27.906,9.896 27.906,9.344 C27.906,9.344 27.906,6.343 27.906,6.343 C27.906,5.791 28.354,5.343 28.906,5.343 C29.458,5.343 29.906,5.791 29.906,6.343 C29.906,6.343 29.906,9.344 29.906,9.344 C29.906,9.896 29.458,10.344 28.906,10.344 Z" id="path-7" class="cls-9" fill-rule="evenodd"/>
    <path d="M44.551,24.343 C44.035,15.343 37.094,9.195 28.604,9.195 C20.113,9.195 13.172,15.343 12.657,24.343 C12.657,24.343 44.551,24.343 44.551,24.343 Z" id="path-8" class="cls-10" fill-rule="evenodd"/>
    <path d="M17.494,19.544 C17.381,19.544 17.266,19.524 17.153,19.483 C16.634,19.295 16.366,18.721 16.554,18.202 C17.585,15.360 19.589,12.971 22.196,11.475 C22.675,11.198 23.286,11.366 23.561,11.845 C23.835,12.324 23.670,12.936 23.191,13.210 C20.994,14.471 19.305,16.486 18.434,18.885 C18.287,19.291 17.903,19.544 17.494,19.544 Z" id="path-9" class="cls-11" fill-rule="evenodd"/>
    <path d="M51.161,33.344 C51.161,33.344 5.547,33.344 5.547,33.344 C5.547,33.344 10.625,24.343 10.625,24.343 C10.625,24.343 46.083,24.343 46.083,24.343 C46.083,24.343 51.161,33.344 51.161,33.344 Z" id="path-10" class="cls-9" fill-rule="evenodd"/>
    <path d="M31.601,3.253 C31.601,5.046 30.147,6.499 28.354,6.499 C26.561,6.499 25.108,5.046 25.108,3.253 C25.108,1.460 26.561,0.007 28.354,0.007 C30.147,0.007 31.601,1.460 31.601,3.253 Z" id="path-11" class="cls-3" fill-rule="evenodd"/>
    <path d="M33.368,9.875 C36.432,11.561 38.230,13.902 39.656,17.160 C40.805,19.786 38.805,22.723 35.938,22.723 C35.938,22.723 12.810,22.723 12.810,22.723 C12.742,23.192 12.685,23.861 12.657,24.343 C12.657,24.343 44.551,24.343 44.551,24.343 C44.187,16.946 39.062,11.500 33.368,9.875 Z" id="path-12" class="cls-14" fill-rule="evenodd"/>
    <path d="M46.083,24.343 C46.083,24.343 41.807,24.343 41.807,24.343 C41.807,24.343 46.885,33.414 46.885,33.414 C46.885,33.414 51.161,33.414 51.161,33.414 C51.161,33.414 46.083,24.343 46.083,24.343 Z" id="path-13" class="cls-14" fill-rule="evenodd"/>
    <path d="M30.259,0.635 C30.650,1.171 30.888,1.826 30.888,2.540 C30.888,4.333 29.434,5.787 27.642,5.787 C26.927,5.787 26.272,5.549 25.736,5.158 C26.327,5.968 27.275,6.499 28.354,6.499 C30.147,6.499 31.601,5.046 31.601,3.253 C31.601,2.175 31.068,1.225 30.259,0.635 Z" id="path-14" class="cls-14" fill-rule="evenodd"/>
  </g>
</svg>
