<svg xmlns="http://www.w3.org/2000/svg" xmlns:xlink="http://www.w3.org/1999/xlink" preserveAspectRatio="xMidYMid" width="60" height="61" viewBox="0 0 60 61">
  <defs>
    <style>

      .cls-3 {
        fill: #fbb713;
      }

      .cls-5 {
        fill: #ff3a2f;
      }

      .cls-6 {
        fill: #142a3b;
      }

      .cls-8 {
        fill: #0cb04a;
      }

      .cls-13 {
        fill: #a72425;
      }

      .cls-16 {
        fill: #ffffff;
      }

      .cls-17 {
        fill: #020403;
        opacity: 0.35;
      }
    </style>
  </defs>
  <g id="group-147svg">
    <path d="M45.045,56.158 C45.045,56.158 49.380,56.158 49.380,56.158 C50.216,56.158 50.894,56.491 50.894,56.901 C50.894,57.311 50.216,57.644 49.380,57.644 C49.380,57.644 49.178,57.644 49.178,57.644 C48.342,57.644 47.664,57.976 47.664,58.387 C47.664,58.797 48.342,59.130 49.178,59.130 C49.178,59.130 58.498,59.130 58.498,59.130 C59.333,59.130 60.011,59.462 60.011,59.872 C60.011,60.282 59.333,60.615 58.498,60.615 C58.498,60.615 47.298,60.615 47.298,60.615 C47.298,60.615 34.989,60.615 34.989,60.615 C34.153,60.615 33.475,60.282 33.475,59.872 C33.475,59.462 34.153,59.130 34.989,59.130 C34.989,59.130 37.575,59.130 37.575,59.130 C38.411,59.130 39.088,58.797 39.088,58.387 C39.088,57.976 38.411,57.644 37.575,57.644 C37.575,57.644 25.266,57.644 25.266,57.644 C24.430,57.644 23.752,57.311 23.752,56.901 C23.752,56.491 24.430,56.158 25.266,56.158 C25.266,56.158 28.175,56.158 28.175,56.158 C28.175,56.158 45.045,56.158 45.045,56.158 Z" id="path-1" class="cls-3" fill-rule="evenodd"/>
    <path d="M5.073,44.565 C5.073,44.565 6.104,44.565 6.104,44.565 C6.302,44.565 6.463,44.790 6.463,45.067 C6.463,45.344 6.302,45.568 6.104,45.568 C6.104,45.568 6.056,45.568 6.056,45.568 C5.857,45.568 5.696,45.793 5.696,46.070 C5.696,46.346 5.857,46.571 6.056,46.571 C6.056,46.571 8.271,46.571 8.271,46.571 C8.470,46.571 8.631,46.795 8.631,47.073 C8.631,47.350 8.470,47.574 8.271,47.574 C8.271,47.574 5.608,47.574 5.608,47.574 C5.608,47.574 2.682,47.574 2.682,47.574 C2.483,47.574 2.322,47.350 2.322,47.073 C2.322,46.795 2.483,46.571 2.682,46.571 C2.682,46.571 3.297,46.571 3.297,46.571 C3.496,46.571 3.657,46.346 3.657,46.070 C3.657,45.793 3.496,45.568 3.297,45.568 C3.297,45.568 0.371,45.568 0.371,45.568 C0.172,45.568 0.011,45.344 0.011,45.067 C0.011,44.790 0.172,44.565 0.371,44.565 C0.371,44.565 1.062,44.565 1.062,44.565 C1.062,44.565 5.073,44.565 5.073,44.565 Z" id="path-2" class="cls-3" fill-rule="evenodd"/>
    <path d="M54.897,46.100 C54.897,46.100 56.325,46.100 56.325,46.100 C56.600,46.100 56.823,46.325 56.823,46.602 C56.823,46.879 56.600,47.103 56.325,47.103 C56.325,47.103 56.258,47.103 56.258,47.103 C55.983,47.103 55.760,47.328 55.760,47.605 C55.760,47.882 55.983,48.107 56.258,48.107 C56.258,48.107 59.326,48.107 59.326,48.107 C59.601,48.107 59.824,48.331 59.824,48.608 C59.824,48.884 59.601,49.109 59.326,49.109 C59.326,49.109 55.640,49.109 55.640,49.109 C55.640,49.109 51.588,49.109 51.588,49.109 C51.312,49.109 51.090,48.884 51.090,48.608 C51.090,48.331 51.312,48.107 51.588,48.107 C51.588,48.107 52.439,48.107 52.439,48.107 C52.714,48.107 52.937,47.882 52.937,47.605 C52.937,47.328 52.714,47.103 52.439,47.103 C52.439,47.103 48.388,47.103 48.388,47.103 C48.112,47.103 47.890,46.879 47.890,46.602 C47.890,46.325 48.112,46.100 48.388,46.100 C48.388,46.100 49.345,46.100 49.345,46.100 C49.345,46.100 54.897,46.100 54.897,46.100 Z" id="path-3" class="cls-5" fill-rule="evenodd"/>
    <path d="M38.665,0.431 C38.665,0.431 40.236,0.006 40.236,0.006 C40.236,0.006 41.484,1.051 41.484,1.051 C41.484,1.051 39.683,2.518 39.683,2.518 C39.683,2.518 38.665,0.431 38.665,0.431 Z" id="path-4" class="cls-6" fill-rule="evenodd"/>
    <path d="M39.868,1.681 C39.868,1.681 32.989,32.931 32.989,32.931 C32.989,32.931 41.484,1.051 41.484,1.051 C41.484,1.051 39.868,1.681 39.868,1.681 Z" id="path-5" class="cls-6" fill-rule="evenodd"/>
    <path d="M39.868,1.681 C39.868,1.681 32.989,32.931 32.989,32.931 C32.989,32.931 38.665,0.431 38.665,0.431 C38.665,0.431 39.868,1.681 39.868,1.681 Z" id="path-6" class="cls-8" fill-rule="evenodd"/>
    <path d="M48.854,3.716 C48.854,3.716 50.478,3.823 50.478,3.823 C50.478,3.823 51.322,5.213 51.322,5.213 C51.322,5.213 49.144,6.020 49.144,6.020 C49.144,6.020 48.854,3.716 48.854,3.716 Z" id="path-7" class="cls-6" fill-rule="evenodd"/>
    <path d="M49.589,5.288 C49.589,5.288 32.989,32.644 32.989,32.644 C32.989,32.644 51.322,5.213 51.322,5.213 C51.322,5.213 49.589,5.288 49.589,5.288 Z" id="path-8" class="cls-6" fill-rule="evenodd"/>
    <path d="M49.589,5.288 C49.589,5.288 32.989,32.644 32.989,32.644 C32.989,32.644 48.854,3.716 48.854,3.716 C48.854,3.716 49.589,5.288 49.589,5.288 Z" id="path-9" class="cls-8" fill-rule="evenodd"/>
    <path d="M34.494,49.601 C34.494,49.601 29.213,49.601 29.213,49.601 C29.213,49.601 27.720,49.601 27.720,49.601 C27.720,49.601 22.440,49.601 22.440,49.601 C22.440,49.601 18.772,56.578 18.772,56.578 C18.772,56.578 27.720,56.578 27.720,56.578 C27.720,56.578 29.213,56.578 29.213,56.578 C29.213,56.578 38.161,56.578 38.161,56.578 C38.161,56.578 34.494,49.601 34.494,49.601 Z" id="path-10" class="cls-5" fill-rule="evenodd"/>
    <path d="M22.192,49.150 C22.192,49.150 20.536,52.300 20.536,52.300 C23.266,53.739 26.301,54.548 29.502,54.548 C31.915,54.548 34.232,54.085 36.397,53.245 C36.397,53.245 34.246,49.150 34.246,49.150 C34.246,49.150 28.965,49.150 28.965,49.150 C28.965,49.150 27.472,49.150 27.472,49.150 C27.472,49.150 22.192,49.150 22.192,49.150 Z" id="path-11" class="cls-13" fill-rule="evenodd"/>
    <path d="M40.917,22.614 C40.802,22.614 40.689,22.621 40.575,22.624 C39.323,21.982 37.636,21.586 35.774,21.586 C33.232,21.586 31.014,22.322 29.790,23.420 C28.604,22.917 27.113,22.614 25.488,22.614 C25.373,22.614 25.261,22.621 25.146,22.624 C23.894,21.982 22.207,21.586 20.345,21.586 C17.595,21.586 15.223,22.447 14.082,23.696 C10.756,23.986 8.214,25.541 8.214,27.422 C8.214,29.509 11.343,31.201 15.202,31.201 C17.745,31.201 19.963,30.465 21.185,29.367 C22.372,29.870 23.864,30.172 25.488,30.172 C25.603,30.172 25.716,30.166 25.830,30.163 C27.082,30.804 28.769,31.201 30.631,31.201 C33.173,31.201 35.392,30.465 36.615,29.367 C37.801,29.870 39.292,30.172 40.917,30.172 C44.777,30.172 47.906,28.480 47.906,26.393 C47.906,24.306 44.777,22.614 40.917,22.614 Z" id="path-12" class="cls-3" fill-rule="evenodd"/>
    <path d="M49.960,29.392 C49.960,43.003 40.337,54.036 28.467,54.036 C16.597,54.036 6.974,43.003 6.974,29.392 C6.974,29.392 49.960,29.392 49.960,29.392 Z" id="path-13" class="cls-5" fill-rule="evenodd"/>
    <path d="M22.866,50.171 C22.677,50.171 22.486,50.118 22.316,50.006 C16.576,46.216 12.681,39.755 11.630,32.279 C11.553,31.732 11.934,31.226 12.481,31.149 C13.031,31.071 13.534,31.453 13.610,32.000 C14.581,38.909 18.156,44.863 23.418,48.337 C23.879,48.641 24.006,49.261 23.702,49.722 C23.509,50.013 23.191,50.171 22.866,50.171 Z" id="path-14" class="cls-16" fill-rule="evenodd"/>
    <path d="M10.572,29.392 C10.572,29.392 6.974,29.392 6.974,29.392 C6.974,39.961 12.778,48.973 20.929,52.473 C20.929,52.473 18.772,56.578 18.772,56.578 C18.772,56.578 20.396,56.578 20.396,56.578 C20.396,56.578 22.191,52.473 22.191,52.473 C15.404,48.973 10.572,39.961 10.572,29.392 Z" id="path-15" class="cls-17" fill-rule="evenodd"/>
    <path d="M49.959,29.392 C49.959,29.392 46.361,29.392 46.361,29.392 C46.361,29.566 46.356,29.740 46.354,29.913 C46.354,29.913 11.144,29.913 11.144,29.913 C11.144,29.913 46.272,31.812 46.272,31.812 C45.599,41.320 41.004,49.244 34.742,52.476 C34.742,52.476 36.537,56.578 36.537,56.578 C36.537,56.578 38.161,56.578 38.161,56.578 C38.161,56.578 36.004,52.476 36.004,52.476 C44.156,48.973 49.959,39.961 49.959,29.392 Z" id="path-16" class="cls-17" fill-rule="evenodd"/>
    <path d="M51.322,28.831 C51.322,29.429 50.838,29.913 50.240,29.913 C50.240,29.913 6.693,29.913 6.693,29.913 C6.095,29.913 5.610,29.429 5.610,28.831 C5.610,28.831 5.610,28.831 5.610,28.831 C5.610,28.232 6.095,27.748 6.693,27.748 C6.693,27.748 50.240,27.748 50.240,27.748 C50.838,27.748 51.322,28.232 51.322,28.831 C51.322,28.831 51.322,28.831 51.322,28.831 Z" id="path-17" class="cls-5" fill-rule="evenodd"/>
  </g>
</svg>
