<svg xmlns="http://www.w3.org/2000/svg" xmlns:xlink="http://www.w3.org/1999/xlink" preserveAspectRatio="xMidYMid" width="60" height="44" viewBox="0 0 60 44">
  <defs>
    <style>

      .cls-3 {
        fill: #ff3a2f;
      }

      .cls-4 {
        fill: #020403;
        opacity: 0.25;
      }

      .cls-5 {
        fill: #142a3b;
      }

      .cls-9 {
        fill: #ffffff;
      }

      .cls-10 {
        fill: #020403;
        opacity: 0.35;
      }

      .cls-12 {
        fill: #fbb713;
      }
    </style>
  </defs>
  <g id="group-56svg">
    <path d="M42.300,8.563 C42.300,8.563 42.300,33.130 42.300,33.130 C42.300,36.827 39.342,39.282 35.645,39.282 C35.645,39.282 13.303,39.282 13.303,39.282 C9.606,39.282 6.047,36.827 6.047,33.130 C6.047,33.130 6.047,8.563 6.047,8.563 C6.047,8.563 42.300,8.563 42.300,8.563 Z" id="path-1" class="cls-3" fill-rule="evenodd"/>
    <path d="M6.047,10.578 C6.047,10.578 6.047,12.592 6.047,12.592 C6.047,12.592 38.272,15.613 38.272,15.613 C38.272,15.613 38.272,37.158 38.272,37.158 C38.272,37.780 38.182,38.363 38.025,38.910 C40.532,38.095 42.300,35.986 42.300,33.130 C42.300,33.130 42.300,10.578 42.300,10.578 C42.300,10.578 6.047,10.578 6.047,10.578 Z" id="path-2" class="cls-4" fill-rule="evenodd"/>
    <path d="M45.825,11.573 C45.825,11.573 1.516,11.573 1.516,11.573 C0.687,11.573 0.016,10.902 0.016,10.074 C0.016,9.245 0.687,8.574 1.516,8.574 C1.516,8.574 45.825,8.574 45.825,8.574 C46.654,8.574 47.325,9.245 47.325,10.074 C47.325,10.902 46.654,11.573 45.825,11.573 Z" id="path-3" class="cls-5" fill-rule="evenodd"/>
    <path d="M42.300,8.563 C42.300,8.563 41.410,2.016 38.073,2.016 C38.073,2.016 11.890,2.016 11.890,2.016 C8.553,2.016 6.047,4.376 6.047,7.714 C6.047,7.714 6.047,8.563 6.047,8.563 C6.047,8.563 42.300,8.563 42.300,8.563 Z" id="path-4" class="cls-3" fill-rule="evenodd"/>
    <path d="M33.038,3.023 C35.548,3.023 36.673,6.727 37.077,8.563 C37.077,8.563 42.300,8.563 42.300,8.563 C42.300,8.563 41.410,2.016 38.073,2.016 C38.073,2.016 11.890,2.016 11.890,2.016 C10.583,2.016 9.407,2.382 8.456,3.023 C8.456,3.023 33.038,3.023 33.038,3.023 Z" id="path-5" class="cls-4" fill-rule="evenodd"/>
    <path d="M30.719,2.009 C30.719,2.009 17.628,2.009 17.628,2.009 C17.076,2.009 16.628,1.561 16.628,1.009 C16.628,0.457 17.076,0.009 17.628,0.009 C17.628,0.009 30.719,0.009 30.719,0.009 C31.271,0.009 31.719,0.457 31.719,1.009 C31.719,1.561 31.271,2.009 30.719,2.009 Z" id="path-6" class="cls-5" fill-rule="evenodd"/>
    <path d="M16.324,37.261 C12.266,37.261 8.068,34.585 8.068,30.108 C8.068,30.108 8.068,23.671 8.068,23.671 C8.068,23.118 8.516,22.671 9.068,22.671 C9.621,22.671 10.068,23.118 10.068,23.671 C10.068,23.671 10.068,30.108 10.068,30.108 C10.068,33.291 13.315,35.261 16.324,35.261 C16.876,35.261 17.324,35.709 17.324,36.261 C17.324,36.813 16.876,37.261 16.324,37.261 Z" id="path-7" class="cls-9" fill-rule="evenodd"/>
    <path d="M15.579,17.118 C15.579,17.118 15.579,18.388 15.579,18.388 C15.579,18.633 15.379,18.831 15.132,18.831 C14.886,18.831 14.686,18.633 14.686,18.388 C14.686,18.388 14.686,18.329 14.686,18.329 C14.686,18.084 14.486,17.885 14.240,17.885 C13.993,17.885 13.793,18.084 13.793,18.329 C13.793,18.329 13.793,21.059 13.793,21.059 C13.793,21.304 13.593,21.503 13.347,21.503 C13.100,21.503 12.900,21.304 12.900,21.059 C12.900,21.059 12.900,17.778 12.900,17.778 C12.900,17.778 12.900,14.171 12.900,14.171 C12.900,13.926 13.100,13.727 13.347,13.727 C13.593,13.727 13.793,13.926 13.793,14.171 C13.793,14.171 13.793,14.928 13.793,14.928 C13.793,15.173 13.993,15.372 14.240,15.372 C14.486,15.372 14.686,15.173 14.686,14.928 C14.686,14.928 14.686,11.321 14.686,11.321 C14.686,11.076 14.886,10.878 15.132,10.878 C15.379,10.878 15.579,11.076 15.579,11.321 C15.579,11.321 15.579,12.174 15.579,12.174 C15.579,12.174 15.579,17.118 15.579,17.118 Z" id="path-8" class="cls-10" fill-rule="evenodd"/>
    <path d="M25.649,29.204 C25.649,29.204 25.649,30.474 25.649,30.474 C25.649,30.719 25.449,30.918 25.203,30.918 C24.956,30.918 24.756,30.719 24.756,30.474 C24.756,30.474 24.756,30.416 24.756,30.416 C24.756,30.170 24.557,29.971 24.310,29.971 C24.063,29.971 23.864,30.170 23.864,30.416 C23.864,30.416 23.864,33.146 23.864,33.146 C23.864,33.391 23.664,33.589 23.417,33.589 C23.170,33.589 22.971,33.391 22.971,33.146 C22.971,33.146 22.971,29.864 22.971,29.864 C22.971,29.864 22.971,26.257 22.971,26.257 C22.971,26.012 23.170,25.814 23.417,25.814 C23.664,25.814 23.864,26.012 23.864,26.257 C23.864,26.257 23.864,27.015 23.864,27.015 C23.864,27.260 24.063,27.458 24.310,27.458 C24.557,27.458 24.756,27.260 24.756,27.015 C24.756,27.015 24.756,23.408 24.756,23.408 C24.756,23.163 24.956,22.965 25.203,22.965 C25.449,22.965 25.649,23.163 25.649,23.408 C25.649,23.408 25.649,24.261 25.649,24.261 C25.649,24.261 25.649,29.204 25.649,29.204 Z" id="path-9" class="cls-10" fill-rule="evenodd"/>
    <path d="M42.897,41.448 C42.897,41.448 46.756,41.448 46.756,41.448 C47.500,41.448 48.103,41.647 48.103,41.894 C48.103,42.140 47.500,42.341 46.756,42.341 C46.756,42.341 46.577,42.341 46.577,42.341 C45.833,42.341 45.229,42.540 45.229,42.787 C45.229,43.034 45.833,43.233 46.577,43.233 C46.577,43.233 54.872,43.233 54.872,43.233 C55.616,43.233 56.219,43.433 56.219,43.680 C56.219,43.926 55.616,44.126 54.872,44.126 C54.872,44.126 44.903,44.126 44.903,44.126 C44.903,44.126 33.946,44.126 33.946,44.126 C33.202,44.126 32.599,43.926 32.599,43.680 C32.599,43.433 33.202,43.233 33.946,43.233 C33.946,43.233 36.248,43.233 36.248,43.233 C36.992,43.233 37.595,43.034 37.595,42.787 C37.595,42.540 36.992,42.341 36.248,42.341 C36.248,42.341 25.291,42.341 25.291,42.341 C24.547,42.341 23.944,42.140 23.944,41.894 C23.944,41.647 24.547,41.448 25.291,41.448 C25.291,41.448 27.881,41.448 27.881,41.448 C27.881,41.448 42.897,41.448 42.897,41.448 Z" id="path-10" class="cls-12" fill-rule="evenodd"/>
    <path d="M18.593,41.931 C19.446,41.931 20.138,41.592 20.138,41.174 C20.138,40.755 19.446,40.416 18.593,40.416 C18.593,40.416 13.858,40.416 13.858,40.416 C13.005,40.416 12.313,40.755 12.313,41.174 C12.313,41.592 13.005,41.931 13.858,41.931 C13.858,41.931 18.593,41.931 18.593,41.931 Z" id="path-11" class="cls-12" fill-rule="evenodd"/>
    <path d="M55.630,34.439 C55.630,34.439 56.901,34.439 56.901,34.439 C57.145,34.439 57.344,34.639 57.344,34.885 C57.344,35.132 57.145,35.332 56.901,35.332 C56.901,35.332 56.842,35.332 56.842,35.332 C56.597,35.332 56.398,35.531 56.398,35.777 C56.398,36.025 56.597,36.225 56.842,36.225 C56.842,36.225 59.572,36.225 59.572,36.225 C59.817,36.225 60.016,36.425 60.016,36.671 C60.016,36.918 59.817,37.117 59.572,37.117 C59.572,37.117 56.290,37.117 56.290,37.117 C56.290,37.117 52.684,37.117 52.684,37.117 C52.439,37.117 52.241,36.918 52.241,36.671 C52.241,36.425 52.439,36.225 52.684,36.225 C52.684,36.225 53.442,36.225 53.442,36.225 C53.687,36.225 53.885,36.025 53.885,35.777 C53.885,35.531 53.687,35.332 53.442,35.332 C53.442,35.332 49.835,35.332 49.835,35.332 C49.591,35.332 49.392,35.132 49.392,34.885 C49.392,34.639 49.591,34.439 49.835,34.439 C49.835,34.439 50.688,34.439 50.688,34.439 C50.688,34.439 55.630,34.439 55.630,34.439 Z" id="path-12" class="cls-12" fill-rule="evenodd"/>
    <path d="M14.572,16.110 C14.572,16.110 14.572,17.381 14.572,17.381 C14.572,17.625 14.372,17.824 14.125,17.824 C13.879,17.824 13.679,17.625 13.679,17.381 C13.679,17.381 13.679,17.322 13.679,17.322 C13.679,17.077 13.479,16.878 13.232,16.878 C12.986,16.878 12.786,17.077 12.786,17.322 C12.786,17.322 12.786,20.052 12.786,20.052 C12.786,20.297 12.586,20.496 12.340,20.496 C12.093,20.496 11.894,20.297 11.894,20.052 C11.894,20.052 11.894,16.770 11.894,16.770 C11.894,16.770 11.894,13.164 11.894,13.164 C11.894,12.919 12.093,12.720 12.340,12.720 C12.586,12.720 12.786,12.919 12.786,13.164 C12.786,13.164 12.786,13.921 12.786,13.921 C12.786,14.166 12.986,14.365 13.232,14.365 C13.479,14.365 13.679,14.166 13.679,13.921 C13.679,13.921 13.679,10.314 13.679,10.314 C13.679,10.069 13.879,9.871 14.125,9.871 C14.372,9.871 14.572,10.069 14.572,10.314 C14.572,10.314 14.572,11.167 14.572,11.167 C14.572,11.167 14.572,16.110 14.572,16.110 Z" id="path-13" class="cls-12" fill-rule="evenodd"/>
    <path d="M24.642,27.189 C24.642,27.189 24.642,28.460 24.642,28.460 C24.642,28.705 24.442,28.903 24.196,28.903 C23.949,28.903 23.749,28.705 23.749,28.460 C23.749,28.460 23.749,28.400 23.749,28.400 C23.749,28.155 23.549,27.957 23.303,27.957 C23.057,27.957 22.856,28.155 22.856,28.400 C22.856,28.400 22.856,31.132 22.856,31.132 C22.856,31.376 22.657,31.575 22.410,31.575 C22.164,31.575 21.964,31.376 21.964,31.132 C21.964,31.132 21.964,27.850 21.964,27.850 C21.964,27.850 21.964,24.242 21.964,24.242 C21.964,23.998 22.164,23.799 22.410,23.799 C22.657,23.799 22.856,23.998 22.856,24.242 C22.856,24.242 22.856,25.001 22.856,25.001 C22.856,25.245 23.057,25.444 23.303,25.444 C23.549,25.444 23.749,25.245 23.749,25.001 C23.749,25.001 23.749,21.393 23.749,21.393 C23.749,21.149 23.949,20.950 24.196,20.950 C24.442,20.950 24.642,21.149 24.642,21.393 C24.642,21.393 24.642,22.246 24.642,22.246 C24.642,22.246 24.642,27.189 24.642,27.189 Z" id="path-14" class="cls-12" fill-rule="evenodd"/>
  </g>
</svg>
