<svg xmlns="http://www.w3.org/2000/svg" xmlns:xlink="http://www.w3.org/1999/xlink" preserveAspectRatio="xMidYMid" width="59" height="60" viewBox="0 0 59 60">
  <defs>
    <style>

      .cls-3 {
        fill: #ff3a2f;
      }

      .cls-5 {
        fill: #142a3b;
      }

      .cls-10 {
        fill: #000000;
        opacity: 0.35;
      }
    </style>
  </defs>
  <g id="group-293svg">
    <path d="M15.724,52.463 C15.724,52.463 11.164,52.463 11.164,52.463 C10.286,52.463 9.573,53.003 9.573,53.668 C9.573,54.333 10.286,54.873 11.164,54.873 C11.164,54.873 11.377,54.873 11.377,54.873 C12.256,54.873 12.968,55.412 12.968,56.077 C12.968,56.742 12.256,57.282 11.377,57.282 C11.377,57.282 1.577,57.282 1.577,57.282 C0.698,57.282 -0.015,57.821 -0.015,58.487 C-0.015,59.151 0.698,59.691 1.577,59.691 C1.577,59.691 13.354,59.691 13.354,59.691 C13.354,59.691 37.427,59.691 37.427,59.691 C38.307,59.691 39.019,59.151 39.019,58.487 C39.019,57.821 38.307,57.282 37.427,57.282 C37.427,57.282 34.707,57.282 34.707,57.282 C33.828,57.282 33.115,56.742 33.115,56.077 C33.115,55.412 33.828,54.873 34.707,54.873 C34.707,54.873 45.390,54.873 45.390,54.873 C46.268,54.873 46.981,54.333 46.981,53.668 C46.981,53.003 46.268,52.463 45.390,52.463 C45.390,52.463 44.593,52.463 44.593,52.463 C44.593,52.463 15.724,52.463 15.724,52.463 Z" id="path-1" class="cls-3" fill-rule="evenodd"/>
    <path d="M43.998,60.014 C43.261,60.014 42.664,59.436 42.664,58.723 C42.664,58.010 43.261,57.432 43.998,57.432 C43.998,57.432 48.087,57.432 48.087,57.432 C48.824,57.432 49.422,58.010 49.422,58.723 C49.422,59.436 48.824,60.014 48.087,60.014 C48.087,60.014 43.998,60.014 43.998,60.014 Z" id="path-2" class="cls-3" fill-rule="evenodd"/>
    <path d="M47.236,53.344 C47.236,53.344 30.396,53.344 30.396,53.344 C30.396,53.344 34.729,15.249 34.729,15.249 C34.729,15.249 42.596,19.137 42.596,19.137 C42.596,19.137 47.236,53.344 47.236,53.344 ZM32.636,51.344 C32.636,51.344 44.947,51.344 44.947,51.344 C44.947,51.344 40.756,20.460 40.756,20.460 C40.756,20.460 36.395,18.304 36.395,18.304 C36.395,18.304 32.636,51.344 32.636,51.344 Z" id="path-3" class="cls-5" fill-rule="evenodd"/>
    <path d="M45.461,52.793 C45.255,52.793 45.048,52.730 44.869,52.599 C44.869,52.599 31.862,43.024 31.862,43.024 C31.862,43.024 41.222,31.289 41.222,31.289 C41.222,31.289 34.675,25.465 34.675,25.465 C34.263,25.098 34.226,24.466 34.593,24.053 C34.960,23.639 35.594,23.604 36.005,23.971 C36.005,23.971 43.968,31.055 43.968,31.055 C43.968,31.055 34.722,42.646 34.722,42.646 C34.722,42.646 46.055,50.988 46.055,50.988 C46.500,51.315 46.595,51.941 46.268,52.386 C46.071,52.652 45.769,52.793 45.461,52.793 Z" id="path-4" class="cls-5" fill-rule="evenodd"/>
    <path d="M49.410,23.996 C49.410,23.996 24.589,12.550 24.589,12.550 C24.589,12.550 25.586,10.226 25.586,10.226 C25.586,10.226 50.407,21.673 50.407,21.673 C50.407,21.673 49.410,23.996 49.410,23.996 Z" id="path-5" class="cls-3" fill-rule="evenodd"/>
    <path d="M20.844,54.343 C20.291,54.343 19.844,53.896 19.844,53.344 C19.844,53.344 19.844,21.343 19.844,21.343 C19.844,20.791 20.291,20.344 20.844,20.344 C21.396,20.344 21.844,20.791 21.844,21.343 C21.844,21.343 21.844,53.344 21.844,53.344 C21.844,53.896 21.396,54.343 20.844,54.343 Z" id="path-6" class="cls-5" fill-rule="evenodd"/>
    <path d="M21.641,22.846 C19.266,22.502 16.978,21.416 15.150,19.587 C10.650,15.084 10.650,7.782 15.150,3.279 C16.990,1.438 19.296,0.350 21.687,0.014 C21.687,0.014 26.844,11.429 26.844,11.429 C26.844,11.429 21.641,22.846 21.641,22.846 Z" id="path-7" class="cls-5" fill-rule="evenodd"/>
    <path d="M26.033,9.809 C26.033,9.809 20.830,21.224 20.830,21.224 C18.455,20.880 16.167,19.795 14.340,17.966 C13.647,17.273 13.074,16.507 12.595,15.702 C13.157,17.116 14.007,18.443 15.151,19.587 C16.978,21.416 19.266,22.502 21.641,22.846 C21.641,22.846 26.844,11.429 26.844,11.429 C26.844,11.429 26.033,9.809 26.033,9.809 Z" id="path-8" class="cls-10" fill-rule="evenodd"/>
    <path d="M58.844,54.343 C58.844,54.343 18.844,54.343 18.844,54.343 C18.844,54.343 18.844,51.344 18.844,51.344 C18.844,51.344 58.844,51.344 58.844,51.344 C58.844,51.344 58.844,54.343 58.844,54.343 Z" id="path-9" class="cls-5" fill-rule="evenodd"/>
  </g>
</svg>
