<svg xmlns="http://www.w3.org/2000/svg" xmlns:xlink="http://www.w3.org/1999/xlink" preserveAspectRatio="xMidYMid" width="61" height="50" viewBox="0 0 61 50">
  <defs>
    <style>

      .cls-3 {
        fill: #0cb04a;
      }

      .cls-4 {
        fill: #020403;
        opacity: 0.25;
      }

      .cls-5 {
        fill: #142a3b;
      }

      .cls-6 {
        fill: #2476ff;
      }

      .cls-7 {
        fill: #020403;
        opacity: 0.35;
      }

      .cls-9 {
        fill: #ffffff;
      }

      .cls-13 {
        fill: #020403;
        opacity: 0.45;
      }

      .cls-16 {
        fill: #fbb713;
      }
    </style>
  </defs>
  <g id="group-93svg">
    <path d="M5.752,49.005 C5.752,49.005 -0.008,43.245 -0.008,43.245 C-0.008,43.245 26.007,17.231 26.007,17.231 C26.007,17.231 31.767,22.990 31.767,22.990 C31.767,22.990 5.752,49.005 5.752,49.005 Z" id="path-1" class="cls-3" fill-rule="evenodd"/>
    <path d="M3.937,42.667 C3.937,42.667 2.254,40.984 2.254,40.984 C2.254,40.984 -0.008,43.245 -0.008,43.245 C-0.008,43.245 5.752,49.005 5.752,49.005 C5.752,49.005 31.767,22.990 31.767,22.990 C31.767,22.990 29.505,20.729 29.505,20.729 C29.505,20.729 7.566,42.667 7.566,42.667 C6.564,43.669 4.939,43.669 3.937,42.667 Z" id="path-2" class="cls-4" fill-rule="evenodd"/>
    <path d="M42.188,10.112 C42.188,10.112 39.954,7.879 39.954,7.879 C39.954,7.879 41.494,6.339 41.494,6.339 C41.494,6.339 43.728,8.573 43.728,8.573 C43.728,8.573 42.188,10.112 42.188,10.112 Z" id="path-3" class="cls-5" fill-rule="evenodd"/>
    <path d="M42.836,26.832 C42.836,26.832 42.496,26.492 42.496,26.492 C41.359,25.355 41.359,23.494 42.496,22.358 C42.496,22.358 48.418,16.436 48.418,16.436 C49.555,15.298 51.415,15.298 52.553,16.436 C52.553,16.436 52.892,16.775 52.892,16.775 C54.028,17.912 54.028,19.772 52.892,20.909 C52.892,20.909 46.970,26.832 46.970,26.832 C45.833,27.968 43.973,27.968 42.836,26.832 Z" id="path-4" class="cls-6" fill-rule="evenodd"/>
    <path d="M53.089,17.998 C53.089,17.998 46.772,24.314 46.772,24.314 C45.744,25.343 44.061,25.343 43.032,24.314 C43.032,24.314 42.299,23.581 42.299,23.581 C42.143,23.424 42.018,23.250 41.909,23.067 C41.303,24.083 41.427,25.423 42.299,26.295 C42.299,26.295 43.032,27.028 43.032,27.028 C44.061,28.057 45.744,28.057 46.772,27.028 C46.772,27.028 53.089,20.712 53.089,20.712 C53.961,19.840 54.085,18.500 53.478,17.485 C53.369,17.667 53.245,17.842 53.089,17.998 Z" id="path-5" class="cls-7" fill-rule="evenodd"/>
    <path d="M40.213,19.905 C40.922,19.196 42.071,19.196 42.780,19.905 C43.247,20.371 43.400,21.029 43.251,21.627 C43.251,21.627 48.353,16.525 48.353,16.525 C47.756,16.673 47.099,16.521 46.631,16.053 C46.113,15.535 45.979,14.784 46.217,14.141 C46.217,14.141 34.178,2.102 34.178,2.102 C31.353,-0.722 26.731,-0.722 23.907,2.102 C23.907,2.102 20.698,6.167 20.056,9.805 C19.361,13.738 27.502,6.980 30.326,9.805 C30.326,9.805 40.153,19.977 40.153,19.977 C40.174,19.954 40.189,19.928 40.213,19.905 Z" id="path-6" class="cls-6" fill-rule="evenodd"/>
    <path d="M33.297,4.911 C33.041,4.911 32.785,4.813 32.590,4.618 C30.633,2.661 27.452,2.663 25.495,4.618 C25.104,5.008 24.472,5.008 24.081,4.618 C23.690,4.228 23.690,3.595 24.081,3.204 C26.818,0.468 31.269,0.469 34.004,3.204 C34.395,3.595 34.395,4.228 34.004,4.618 C33.809,4.813 33.553,4.911 33.297,4.911 Z" id="path-7" class="cls-9" fill-rule="evenodd"/>
    <path d="M46.631,16.053 C46.541,15.962 46.477,15.858 46.409,15.755 C46.409,15.755 44.156,18.008 44.156,18.008 C44.305,17.410 44.151,16.754 43.684,16.287 C42.976,15.577 41.826,15.577 41.117,16.287 C41.095,16.308 41.079,16.335 41.058,16.359 C41.058,16.359 31.230,6.186 31.230,6.186 C28.649,3.604 21.631,9.024 20.973,6.971 C20.562,7.892 20.223,8.862 20.056,9.805 C19.361,13.738 27.502,6.980 30.326,9.805 C30.326,9.805 40.153,19.977 40.153,19.977 C40.174,19.954 40.189,19.928 40.213,19.905 C40.922,19.196 42.071,19.196 42.780,19.905 C43.247,20.372 43.400,21.029 43.251,21.627 C43.251,21.627 48.353,16.525 48.353,16.525 C47.756,16.673 47.099,16.521 46.631,16.053 Z" id="path-8" class="cls-7" fill-rule="evenodd"/>
    <path d="M31.485,15.278 C31.485,15.278 27.769,18.994 27.769,18.994 C27.769,18.994 30.003,21.227 30.003,21.227 C30.003,21.227 33.720,17.512 33.720,17.512 C33.720,17.512 31.485,15.278 31.485,15.278 Z" id="path-9" class="cls-5" fill-rule="evenodd"/>
    <path d="M35.482,19.274 C35.482,19.274 29.723,13.515 29.723,13.515 C29.723,13.515 31.742,11.496 31.742,11.496 C31.742,11.496 37.501,17.255 37.501,17.255 C37.501,17.255 35.482,19.274 35.482,19.274 Z" id="path-10" class="cls-5" fill-rule="evenodd"/>
    <path d="M31.742,11.496 C31.742,11.496 30.838,12.400 30.838,12.400 C30.838,12.400 35.692,17.255 35.692,17.255 C35.692,17.255 34.578,18.370 34.578,18.370 C34.578,18.370 35.482,19.274 35.482,19.274 C35.482,19.274 37.501,17.255 37.501,17.255 C37.501,17.255 31.742,11.496 31.742,11.496 Z" id="path-11" class="cls-13" fill-rule="evenodd"/>
    <path d="M51.533,37.286 C51.533,37.286 50.059,46.372 50.059,46.372 C50.059,46.372 48.584,37.286 48.584,37.286 C48.584,37.286 51.533,37.286 51.533,37.286 Z" id="path-12" class="cls-5" fill-rule="evenodd"/>
    <path d="M53.833,36.391 C53.833,36.914 52.143,37.337 50.059,37.337 C47.974,37.337 46.284,36.914 46.284,36.391 C46.284,35.870 47.974,35.446 50.059,35.446 C52.143,35.446 53.833,35.870 53.833,36.391 Z" id="path-13" class="cls-5" fill-rule="evenodd"/>
    <path d="M53.296,45.684 C53.296,45.684 55.235,45.684 55.235,45.684 C55.609,45.684 55.912,45.852 55.912,46.060 C55.912,46.267 55.609,46.435 55.235,46.435 C55.235,46.435 55.145,46.435 55.145,46.435 C54.771,46.435 54.468,46.604 54.468,46.811 C54.468,47.019 54.771,47.187 55.145,47.187 C55.145,47.187 59.315,47.187 59.315,47.187 C59.689,47.187 59.992,47.355 59.992,47.562 C59.992,47.770 59.689,47.938 59.315,47.938 C59.315,47.938 54.304,47.938 54.304,47.938 C54.304,47.938 44.060,47.938 44.060,47.938 C43.686,47.938 43.384,47.770 43.384,47.562 C43.384,47.355 43.686,47.187 44.060,47.187 C44.060,47.187 45.218,47.187 45.218,47.187 C45.592,47.187 45.895,47.019 45.895,46.811 C45.895,46.604 45.592,46.435 45.218,46.435 C45.218,46.435 39.710,46.435 39.710,46.435 C39.336,46.435 39.032,46.267 39.032,46.060 C39.032,45.852 39.336,45.684 39.710,45.684 C39.710,45.684 41.012,45.684 41.012,45.684 C41.012,45.684 53.296,45.684 53.296,45.684 Z" id="path-14" class="cls-16" fill-rule="evenodd"/>
    <path d="M38.584,48.345 C39.281,48.345 39.847,48.205 39.847,48.033 C39.847,47.862 39.281,47.723 38.584,47.723 C38.584,47.723 34.712,47.723 34.712,47.723 C34.014,47.723 33.448,47.862 33.448,48.033 C33.448,48.205 34.014,48.345 34.712,48.345 C34.712,48.345 38.584,48.345 38.584,48.345 Z" id="path-15" class="cls-16" fill-rule="evenodd"/>
    <path d="M55.540,29.850 C55.540,29.850 55.776,29.256 55.776,29.256 C55.821,29.141 55.718,28.992 55.544,28.923 C55.371,28.854 55.193,28.891 55.147,29.005 C55.147,29.005 55.137,29.034 55.137,29.034 C55.091,29.148 54.913,29.185 54.740,29.116 C54.566,29.047 54.463,28.898 54.508,28.784 C54.508,28.784 55.016,27.506 55.016,27.506 C55.060,27.392 54.957,27.243 54.783,27.174 C54.609,27.105 54.433,27.142 54.387,27.256 C54.387,27.256 53.777,28.792 53.777,28.792 C53.777,28.792 52.531,31.930 52.531,31.930 C52.485,32.045 52.589,32.193 52.763,32.262 C52.936,32.331 53.114,32.294 53.159,32.179 C53.159,32.179 53.301,31.825 53.301,31.825 C53.346,31.710 53.523,31.674 53.697,31.743 C53.871,31.811 53.975,31.960 53.929,32.074 C53.929,32.074 53.259,33.762 53.259,33.762 C53.213,33.877 53.317,34.025 53.491,34.095 C53.664,34.163 53.842,34.126 53.888,34.012 C53.888,34.012 54.046,33.612 54.046,33.612 C54.046,33.612 55.540,29.850 55.540,29.850 Z" id="path-16" class="cls-5" fill-rule="evenodd"/>
    <path d="M57.062,23.099 C57.272,22.568 57.721,22.247 58.061,22.383 C58.403,22.518 58.509,23.059 58.298,23.591 C58.298,23.591 57.127,26.538 57.127,26.538 C56.916,27.070 56.469,27.390 56.127,27.255 C55.786,27.119 55.680,26.579 55.891,26.048 C55.891,26.048 57.062,23.099 57.062,23.099 Z" id="path-17" class="cls-5" fill-rule="evenodd"/>
    <path d="M40.913,32.563 C40.913,32.563 40.677,31.969 40.677,31.969 C40.632,31.855 40.735,31.706 40.909,31.637 C41.083,31.568 41.260,31.605 41.306,31.719 C41.306,31.719 41.316,31.747 41.316,31.747 C41.362,31.862 41.540,31.899 41.713,31.830 C41.887,31.761 41.991,31.612 41.945,31.498 C41.945,31.498 41.438,30.220 41.438,30.220 C41.393,30.106 41.496,29.957 41.670,29.888 C41.844,29.818 42.021,29.856 42.066,29.970 C42.066,29.970 42.676,31.506 42.676,31.506 C42.676,31.506 43.922,34.644 43.922,34.644 C43.968,34.758 43.864,34.907 43.690,34.976 C43.517,35.045 43.339,35.008 43.294,34.893 C43.294,34.893 43.153,34.539 43.153,34.539 C43.107,34.424 42.930,34.387 42.756,34.456 C42.583,34.525 42.479,34.674 42.524,34.788 C42.524,34.788 43.194,36.476 43.194,36.476 C43.240,36.591 43.136,36.739 42.963,36.808 C42.789,36.877 42.611,36.840 42.565,36.725 C42.565,36.725 42.407,36.326 42.407,36.326 C42.407,36.326 40.913,32.563 40.913,32.563 Z" id="path-18" class="cls-5" fill-rule="evenodd"/>
    <path d="M39.392,25.813 C39.181,25.282 38.733,24.961 38.392,25.097 C38.050,25.232 37.944,25.773 38.155,26.304 C38.155,26.304 39.326,29.252 39.326,29.252 C39.537,29.783 39.984,30.104 40.326,29.968 C40.668,29.833 40.773,29.292 40.562,28.761 C40.562,28.761 39.392,25.813 39.392,25.813 Z" id="path-19" class="cls-5" fill-rule="evenodd"/>
  </g>
</svg>
