<svg xmlns="http://www.w3.org/2000/svg" xmlns:xlink="http://www.w3.org/1999/xlink" preserveAspectRatio="xMidYMid" width="61" height="53" viewBox="0 0 61 53">
  <defs>
    <style>

      .cls-3 {
        fill: #142a3b;
      }

      .cls-6 {
        fill: #ff3a2f;
      }

      .cls-7 {
        fill: #0cb04a;
      }

      .cls-8 {
        fill: #090908;
        opacity: 0.35;
      }
    </style>
  </defs>
  <g id="group-196svg">
    <path d="M26.423,45.661 C26.423,45.661 21.527,45.661 21.527,45.661 C20.584,45.661 19.818,46.087 19.818,46.613 C19.818,47.139 20.584,47.566 21.527,47.566 C21.527,47.566 21.756,47.566 21.756,47.566 C22.699,47.566 23.465,47.993 23.465,48.519 C23.465,49.045 22.699,49.472 21.756,49.472 C21.756,49.472 11.232,49.472 11.232,49.472 C10.288,49.472 9.523,49.898 9.523,50.424 C9.523,50.950 10.288,51.377 11.232,51.377 C11.232,51.377 23.879,51.377 23.879,51.377 C23.879,51.377 49.728,51.377 49.728,51.377 C50.672,51.377 51.437,50.950 51.437,50.424 C51.437,49.898 50.672,49.472 49.728,49.472 C49.728,49.472 46.808,49.472 46.808,49.472 C45.863,49.472 45.099,49.045 45.099,48.519 C45.099,47.993 45.863,47.566 46.808,47.566 C46.808,47.566 58.278,47.566 58.278,47.566 C59.222,47.566 59.987,47.139 59.987,46.613 C59.987,46.087 59.222,45.661 58.278,45.661 C58.278,45.661 57.422,45.661 57.422,45.661 C57.422,45.661 26.423,45.661 26.423,45.661 Z" id="path-1" class="cls-3" fill-rule="evenodd"/>
    <path d="M49.580,38.091 C49.580,38.091 50.449,38.091 50.449,38.091 C50.617,38.091 50.753,38.328 50.753,38.618 C50.753,38.910 50.617,39.145 50.449,39.145 C50.449,39.145 50.409,39.145 50.409,39.145 C50.241,39.145 50.105,39.381 50.105,39.672 C50.105,39.963 50.241,40.199 50.409,40.199 C50.409,40.199 52.277,40.199 52.277,40.199 C52.445,40.199 52.581,40.435 52.581,40.726 C52.581,41.017 52.445,41.253 52.277,41.253 C52.277,41.253 50.031,41.253 50.031,41.253 C50.031,41.253 45.441,41.253 45.441,41.253 C45.273,41.253 45.138,41.017 45.138,40.726 C45.138,40.435 45.273,40.199 45.441,40.199 C45.441,40.199 45.960,40.199 45.960,40.199 C46.128,40.199 46.264,39.963 46.264,39.672 C46.264,39.381 46.128,39.145 45.960,39.145 C45.960,39.145 43.491,39.145 43.491,39.145 C43.324,39.145 43.187,38.910 43.187,38.618 C43.187,38.328 43.324,38.091 43.491,38.091 C43.491,38.091 44.075,38.091 44.075,38.091 C44.075,38.091 49.580,38.091 49.580,38.091 Z" id="path-2" class="cls-3" fill-rule="evenodd"/>
    <path d="M1.236,52.516 C0.547,52.516 -0.013,52.106 -0.013,51.601 C-0.013,51.097 0.547,50.687 1.236,50.687 C1.236,50.687 5.063,50.687 5.063,50.687 C5.753,50.687 6.312,51.097 6.312,51.601 C6.312,52.106 5.753,52.516 5.063,52.516 C5.063,52.516 1.236,52.516 1.236,52.516 Z" id="path-3" class="cls-3" fill-rule="evenodd"/>
    <path d="M37.253,30.959 C37.240,30.959 37.228,30.959 37.213,30.959 C37.213,30.959 3.700,30.959 3.700,30.959 C3.347,30.959 3.024,30.771 2.848,30.468 C2.672,30.164 2.672,29.788 2.848,29.485 C2.848,29.485 19.603,0.460 19.603,0.460 C19.953,-0.149 20.953,-0.149 21.305,0.460 C21.305,0.460 37.946,29.281 37.946,29.281 C38.127,29.458 38.236,29.704 38.236,29.977 C38.236,30.520 37.797,30.959 37.253,30.959 Z" id="path-4" class="cls-6" fill-rule="evenodd"/>
    <path d="M38.898,46.683 C38.898,46.683 1.555,46.683 1.555,46.683 C1.013,46.683 0.571,46.244 0.571,45.700 C0.571,45.700 0.571,35.873 0.571,35.873 C0.571,35.330 1.013,34.891 1.555,34.891 C1.555,34.891 38.898,34.891 38.898,34.891 C39.443,34.891 39.881,35.330 39.881,35.873 C39.881,35.873 39.881,45.700 39.881,45.700 C39.881,46.244 39.443,46.683 38.898,46.683 Z" id="path-5" class="cls-7" fill-rule="evenodd"/>
    <path d="M37.946,29.281 C37.946,29.281 21.305,0.460 21.305,0.460 C20.953,-0.149 19.953,-0.149 19.603,0.460 C19.603,0.460 19.592,0.477 19.592,0.477 C19.592,0.477 35.145,27.413 35.145,27.413 C35.325,27.590 35.436,27.837 35.436,28.109 C35.436,28.654 34.996,29.092 34.452,29.092 C34.439,29.092 34.428,29.092 34.412,29.092 C34.412,29.092 3.075,29.092 3.075,29.092 C3.075,29.092 2.848,29.485 2.848,29.485 C2.672,29.788 2.672,30.164 2.848,30.468 C3.024,30.771 3.347,30.959 3.700,30.959 C3.700,30.959 37.213,30.959 37.213,30.959 C37.228,30.959 37.240,30.959 37.253,30.959 C37.797,30.959 38.236,30.520 38.236,29.977 C38.236,29.704 38.126,29.458 37.946,29.281 Z" id="path-6" class="cls-8" fill-rule="evenodd"/>
    <path d="M38.898,34.891 C38.898,34.891 37.080,34.891 37.080,34.891 C37.080,34.891 37.080,43.833 37.080,43.833 C37.080,44.377 36.643,44.816 36.098,44.816 C36.098,44.816 0.571,44.816 0.571,44.816 C0.571,44.816 0.571,45.700 0.571,45.700 C0.571,46.244 1.013,46.683 1.555,46.683 C1.555,46.683 38.898,46.683 38.898,46.683 C39.443,46.683 39.881,46.244 39.881,45.700 C39.881,45.700 39.881,35.873 39.881,35.873 C39.881,35.329 39.443,34.891 38.898,34.891 Z" id="path-7" class="cls-8" fill-rule="evenodd"/>
  </g>
</svg>
