<svg xmlns="http://www.w3.org/2000/svg" xmlns:xlink="http://www.w3.org/1999/xlink" preserveAspectRatio="xMidYMid" width="61" height="42" viewBox="0 0 61 42">
  <defs>
    <style>

      .cls-3 {
        fill: #0cb04a;
      }

      .cls-5 {
        fill: #fbb713;
      }

      .cls-6 {
        fill: #010100;
        opacity: 0.15;
      }

      .cls-7 {
        fill: #062635;
      }

      .cls-8 {
        fill: #010101;
        opacity: 0.35;
      }

      .cls-10 {
        fill: #ffffff;
      }

      .cls-13 {
        fill: #010100;
        opacity: 0.4;
      }

      .cls-16 {
        fill: #ededed;
      }

      .cls-17 {
        fill: #2476ff;
      }
    </style>
  </defs>
  <g id="group-183svg">
    <path d="M10.306,36.338 C10.306,36.338 10.757,36.338 10.757,36.338 C9.910,36.338 9.224,36.730 9.224,37.215 C9.224,37.700 9.910,38.093 10.757,38.093 C10.757,38.093 10.961,38.093 10.961,38.093 C11.808,38.093 12.494,38.485 12.494,38.971 C12.494,39.455 11.808,39.848 10.961,39.848 C10.961,39.848 1.523,39.848 1.523,39.848 C0.676,39.848 -0.010,40.241 -0.010,40.726 C-0.010,41.211 0.676,41.603 1.523,41.603 C1.523,41.603 12.865,41.603 12.865,41.603 C12.865,41.603 27.172,41.603 27.172,41.603 C28.019,41.603 28.705,41.211 28.705,40.726 C28.705,40.241 28.019,39.848 27.172,39.848 C27.172,39.848 24.553,39.848 24.553,39.848 C23.706,39.848 27.055,39.455 27.055,38.971 C27.055,38.485 23.706,38.093 24.553,38.093 C24.553,38.093 34.841,38.093 34.841,38.093 C35.687,38.093 36.373,37.700 36.373,37.215 C36.373,36.730 35.687,36.338 34.841,36.338 C34.841,36.338 34.072,36.338 34.072,36.338 C34.072,36.338 10.306,36.338 10.306,36.338 Z" id="path-1" class="cls-3" fill-rule="evenodd"/>
    <path d="M35.921,41.839 C35.211,41.839 34.636,41.418 34.636,40.898 C34.636,40.379 35.211,39.957 35.921,39.957 C35.921,39.957 39.859,39.957 39.859,39.957 C40.568,39.957 41.143,40.379 41.143,40.898 C41.143,41.418 40.568,41.839 39.859,41.839 C39.859,41.839 35.921,41.839 35.921,41.839 Z" id="path-2" class="cls-3" fill-rule="evenodd"/>
    <path d="M55.176,11.227 C55.176,11.227 29.653,3.992 29.653,3.992 C29.653,3.992 29.653,23.745 29.653,23.745 C29.653,23.745 55.176,16.440 55.176,16.440 C55.176,16.440 55.176,11.227 55.176,11.227 Z" id="path-3" class="cls-5" fill-rule="evenodd"/>
    <path d="M32.531,10.794 C32.531,10.794 30.289,4.712 30.289,4.712 C30.289,4.712 29.653,4.527 29.653,4.527 C29.653,4.527 29.653,23.745 29.653,23.745 C29.653,23.745 55.176,16.440 55.176,16.440 C55.176,16.440 55.176,12.960 55.176,12.960 C55.176,12.960 40.932,17.100 40.932,17.100 C36.730,18.322 32.531,15.170 32.531,10.794 Z" id="path-4" class="cls-6" fill-rule="evenodd"/>
    <path d="M20.406,38.953 C20.406,38.953 18.167,38.953 18.167,38.953 C18.167,38.953 18.167,6.650 18.167,6.650 C18.167,6.650 20.406,6.650 20.406,6.650 C20.406,6.650 20.406,38.953 20.406,38.953 Z" id="path-5" class="cls-7" fill-rule="evenodd"/>
    <path d="M20.406,8.498 C20.406,8.498 18.167,11.376 18.167,11.376 C18.167,11.376 18.167,6.650 18.167,6.650 C18.167,6.650 20.406,6.650 20.406,6.650 C20.406,6.650 20.406,8.498 20.406,8.498 Z" id="path-6" class="cls-8" fill-rule="evenodd"/>
    <path d="M22.965,3.692 C22.965,5.723 21.318,7.370 19.287,7.370 C17.255,7.370 15.608,5.723 15.608,3.692 C15.608,1.660 17.255,0.013 19.287,0.013 C21.318,0.013 22.965,1.660 22.965,3.692 Z" id="path-7" class="cls-7" fill-rule="evenodd"/>
    <path d="M21.552,1.533 C21.552,1.990 21.182,2.360 20.726,2.360 C20.269,2.360 19.899,1.990 19.899,1.533 C19.899,1.077 20.269,0.707 20.726,0.707 C21.182,0.707 21.552,1.077 21.552,1.533 Z" id="path-8" class="cls-10" fill-rule="evenodd"/>
    <path d="M20.726,5.931 C18.694,5.931 17.047,4.284 17.047,2.253 C17.047,1.608 17.228,1.012 17.519,0.485 C16.385,1.112 15.608,2.305 15.608,3.692 C15.608,5.723 17.255,7.370 19.287,7.370 C20.674,7.370 21.866,6.593 22.493,5.460 C21.967,5.750 21.370,5.931 20.726,5.931 Z" id="path-9" class="cls-8" fill-rule="evenodd"/>
    <path d="M34.636,13.833 C34.636,19.268 32.405,23.675 29.653,23.675 C26.901,23.675 24.670,19.268 24.670,13.833 C24.670,8.398 26.901,3.992 29.653,3.992 C32.405,3.992 34.636,8.398 34.636,13.833 Z" id="path-10" class="cls-5" fill-rule="evenodd"/>
    <path d="M34.636,13.833 C34.636,19.268 32.405,23.675 29.653,23.675 C26.901,23.675 24.670,19.268 24.670,13.833 C24.670,8.398 26.901,3.992 29.653,3.992 C32.405,3.992 34.636,8.398 34.636,13.833 Z" id="path-11" class="cls-13" fill-rule="evenodd"/>
    <path d="M29.530,4.210 C29.530,4.210 20.054,13.686 20.054,13.686 C19.867,13.873 19.562,13.873 19.375,13.686 C19.375,13.686 19.375,13.686 19.375,13.686 C19.188,13.499 19.188,13.195 19.375,13.008 C19.375,13.008 28.851,3.531 28.851,3.531 C29.039,3.344 29.343,3.344 29.530,3.531 C29.530,3.531 29.530,3.531 29.530,3.531 C29.718,3.718 29.718,4.022 29.530,4.210 Z" id="path-12" class="cls-7" fill-rule="evenodd"/>
    <path d="M18.637,13.357 C18.637,13.357 29.056,23.776 29.056,23.776 C29.241,23.961 29.541,23.961 29.726,23.776 C29.726,23.776 29.726,23.776 29.726,23.776 C29.911,23.591 29.911,23.291 29.726,23.106 C29.726,23.106 19.307,12.687 19.307,12.687 C19.122,12.502 18.822,12.502 18.637,12.687 C18.637,12.687 18.637,12.687 18.637,12.687 C18.452,12.872 18.452,13.172 18.637,13.357 Z" id="path-13" class="cls-7" fill-rule="evenodd"/>
    <path d="M47.205,12.248 C47.117,12.248 47.027,12.236 46.938,12.211 C46.938,12.211 37.359,9.572 37.359,9.572 C36.827,9.425 36.515,8.875 36.661,8.343 C36.808,7.810 37.357,7.494 37.891,7.644 C37.891,7.644 47.470,10.283 47.470,10.283 C48.002,10.429 48.314,10.980 48.168,11.513 C48.046,11.956 47.643,12.248 47.205,12.248 Z" id="path-14" class="cls-16" fill-rule="evenodd"/>
    <path d="M51.954,13.611 C51.954,13.611 50.318,13.611 50.318,13.611 C50.002,13.611 49.747,13.391 49.747,13.121 C49.747,12.851 50.002,12.632 50.318,12.632 C50.318,12.632 50.394,12.632 50.394,12.632 C50.710,12.632 50.965,12.413 50.965,12.142 C50.965,11.873 50.710,11.653 50.394,11.653 C50.394,11.653 46.877,11.653 46.877,11.653 C46.561,11.653 46.306,11.434 46.306,11.164 C46.306,10.894 46.561,10.674 46.877,10.674 C46.877,10.674 51.104,10.674 51.104,10.674 C51.104,10.674 55.749,10.674 55.749,10.674 C56.064,10.674 56.320,10.894 56.320,11.164 C56.320,11.434 56.064,11.653 55.749,11.653 C55.749,11.653 54.773,11.653 54.773,11.653 C54.458,11.653 54.202,11.873 54.202,12.142 C54.202,12.413 54.458,12.632 54.773,12.632 C54.773,12.632 59.419,12.632 59.419,12.632 C59.734,12.632 59.990,12.851 59.990,13.121 C59.990,13.391 59.734,13.611 59.419,13.611 C59.419,13.611 58.321,13.611 58.321,13.611 C58.321,13.611 51.954,13.611 51.954,13.611 Z" id="path-15" class="cls-17" fill-rule="evenodd"/>
    <path d="M41.827,10.251 C41.467,10.251 41.175,10.502 41.175,10.810 C41.175,11.119 41.467,11.369 41.827,11.369 C41.827,11.369 43.826,11.369 43.826,11.369 C44.187,11.369 44.478,11.119 44.478,10.810 C44.478,10.502 44.187,10.251 43.826,10.251 C43.826,10.251 41.827,10.251 41.827,10.251 Z" id="path-16" class="cls-17" fill-rule="evenodd"/>
    <path d="M42.073,16.618 C42.073,16.618 41.321,16.618 41.321,16.618 C41.177,16.618 41.060,16.494 41.060,16.341 C41.060,16.187 41.177,16.063 41.321,16.063 C41.321,16.063 41.356,16.063 41.356,16.063 C41.502,16.063 41.619,15.939 41.619,15.785 C41.619,15.632 41.502,15.508 41.356,15.508 C41.356,15.508 39.741,15.508 39.741,15.508 C39.597,15.508 39.479,15.383 39.479,15.230 C39.479,15.077 39.597,14.953 39.741,14.953 C39.741,14.953 41.683,14.953 41.683,14.953 C41.683,14.953 45.649,14.953 45.649,14.953 C45.795,14.953 45.912,15.077 45.912,15.230 C45.912,15.383 45.795,15.508 45.649,15.508 C45.649,15.508 45.201,15.508 45.201,15.508 C45.057,15.508 44.939,15.632 44.939,15.785 C44.939,15.939 45.057,16.063 45.201,16.063 C45.201,16.063 47.335,16.063 47.335,16.063 C47.479,16.063 47.597,16.187 47.597,16.341 C47.597,16.494 47.479,16.618 47.335,16.618 C47.335,16.618 46.830,16.618 46.830,16.618 C46.830,16.618 42.073,16.618 42.073,16.618 Z" id="path-17" class="cls-17" fill-rule="evenodd"/>
    <path d="M45.559,22.059 C45.559,22.059 44.807,22.059 44.807,22.059 C44.662,22.059 44.545,21.935 44.545,21.781 C44.545,21.628 44.662,21.504 44.807,21.504 C44.807,21.504 44.842,21.504 44.842,21.504 C44.987,21.504 45.104,21.380 45.104,21.226 C45.104,21.073 44.987,20.948 44.842,20.948 C44.842,20.948 43.227,20.948 43.227,20.948 C43.082,20.948 42.965,20.824 42.965,20.671 C42.965,20.517 43.082,20.394 43.227,20.394 C43.227,20.394 45.168,20.394 45.168,20.394 C45.168,20.394 49.135,20.394 49.135,20.394 C49.280,20.394 49.397,20.517 49.397,20.671 C49.397,20.824 49.280,20.948 49.135,20.948 C49.135,20.948 48.686,20.948 48.686,20.948 C48.542,20.948 48.425,21.073 48.425,21.226 C48.425,21.380 48.542,21.504 48.686,21.504 C48.686,21.504 50.820,21.504 50.820,21.504 C50.965,21.504 51.082,21.628 51.082,21.781 C51.082,21.935 50.965,22.059 50.820,22.059 C50.820,22.059 50.315,22.059 50.315,22.059 C50.315,22.059 45.559,22.059 45.559,22.059 Z" id="path-18" class="cls-17" fill-rule="evenodd"/>
    <path d="M45.289,6.945 C45.289,6.945 44.537,6.945 44.537,6.945 C44.393,6.945 44.275,6.821 44.275,6.668 C44.275,6.515 44.393,6.390 44.537,6.390 C44.537,6.390 44.572,6.390 44.572,6.390 C44.717,6.390 44.835,6.266 44.835,6.113 C44.835,5.959 44.717,5.835 44.572,5.835 C44.572,5.835 42.957,5.835 42.957,5.835 C42.812,5.835 42.695,5.711 42.695,5.558 C42.695,5.404 42.812,5.280 42.957,5.280 C42.957,5.280 44.898,5.280 44.898,5.280 C44.898,5.280 48.865,5.280 48.865,5.280 C49.011,5.280 49.128,5.404 49.128,5.558 C49.128,5.711 49.011,5.835 48.865,5.835 C48.865,5.835 48.417,5.835 48.417,5.835 C48.272,5.835 48.155,5.959 48.155,6.113 C48.155,6.266 48.272,6.390 48.417,6.390 C48.417,6.390 50.551,6.390 50.551,6.390 C50.695,6.390 50.812,6.515 50.812,6.668 C50.812,6.821 50.695,6.945 50.551,6.945 C50.551,6.945 50.046,6.945 50.046,6.945 C50.046,6.945 45.289,6.945 45.289,6.945 Z" id="path-19" class="cls-17" fill-rule="evenodd"/>
  </g>
</svg>
