<svg xmlns="http://www.w3.org/2000/svg" xmlns:xlink="http://www.w3.org/1999/xlink" preserveAspectRatio="xMidYMid" width="195" height="218" viewBox="0 0 195 218">
  <defs>
    <style>

      .cls-3 {
        fill: #142a3b;
      }

      .cls-5 {
        fill: #fbb713;
      }

      .cls-6 {
        fill: #000000;
        opacity: 0.35;
      }
    </style>
  </defs>
  <g id="group-66svg">
    <path d="M83.944,183.447 C83.944,183.447 68.191,183.447 68.191,183.447 C65.154,183.447 62.691,185.930 62.691,188.993 C62.691,192.057 65.154,194.540 68.191,194.540 C68.191,194.540 68.924,194.540 68.924,194.540 C71.961,194.540 74.424,197.023 74.424,200.086 C74.424,203.149 71.961,205.632 68.924,205.632 C68.924,205.632 35.060,205.632 35.060,205.632 C32.022,205.632 29.560,208.115 29.560,211.178 C29.560,214.240 32.022,216.724 35.060,216.724 C35.060,216.724 75.756,216.724 75.756,216.724 C75.756,216.724 158.939,216.724 158.939,216.724 C161.976,216.724 164.438,214.240 164.438,211.178 C164.438,208.115 161.976,205.632 158.939,205.632 C158.939,205.632 149.540,205.632 149.540,205.632 C146.503,205.632 144.040,203.149 144.040,200.086 C144.040,197.023 146.503,194.540 149.540,194.540 C149.540,194.540 186.454,194.540 186.454,194.540 C189.491,194.540 191.953,192.057 191.953,188.993 C191.953,185.930 189.491,183.447 186.454,183.447 C186.454,183.447 183.698,183.447 183.698,183.447 C183.698,183.447 83.944,183.447 83.944,183.447 Z" id="path-1" class="cls-3" fill-rule="evenodd"/>
    <path d="M183.337,217.222 C181.687,217.222 180.350,215.467 180.350,213.299 C180.350,211.134 181.687,209.377 183.337,209.377 C183.337,209.377 192.492,209.377 192.492,209.377 C194.141,209.377 195.479,211.134 195.479,213.299 C195.479,215.467 194.141,217.222 192.492,217.222 C192.492,217.222 183.337,217.222 183.337,217.222 Z" id="path-2" class="cls-3" fill-rule="evenodd"/>
    <path d="M90.256,143.549 C90.256,143.549 104.730,129.073 104.730,129.073 C104.730,129.073 30.129,54.475 30.129,54.475 C30.129,54.475 27.924,52.270 27.924,52.270 C20.211,44.558 7.707,44.558 -0.006,52.270 C-0.006,52.270 90.256,143.549 90.256,143.549 Z" id="path-3" class="cls-5" fill-rule="evenodd"/>
    <path d="M90.256,143.549 C90.256,143.549 104.730,129.073 104.730,129.073 C104.730,129.073 30.129,54.475 30.129,54.475 C30.129,54.475 27.924,52.270 27.924,52.270 C20.211,44.558 7.707,44.558 -0.006,52.270 C-0.006,52.270 90.256,143.549 90.256,143.549 Z" id="path-4" class="cls-6" fill-rule="evenodd"/>
    <path d="M90.191,57.867 C90.191,57.867 104.666,72.342 104.666,72.342 C104.666,72.342 30.638,146.366 30.638,146.366 C30.638,146.366 28.434,148.571 28.434,148.571 C20.721,156.283 8.216,156.283 0.504,148.571 C0.504,148.571 90.191,57.867 90.191,57.867 Z" id="path-5" class="cls-5" fill-rule="evenodd"/>
    <path d="M65.300,101.266 C65.300,104.718 62.503,107.515 59.052,107.515 C55.600,107.515 52.803,104.718 52.803,101.266 C52.803,97.815 55.600,95.016 59.052,95.016 C62.503,95.016 65.300,97.815 65.300,101.266 Z" id="path-6" class="cls-3" fill-rule="evenodd"/>
    <path d="M120.108,0.002 C98.952,0.002 81.803,17.151 81.803,38.306 C81.803,59.460 98.952,76.609 120.108,76.609 C141.263,76.609 158.412,59.460 158.412,38.306 C158.412,17.151 141.263,0.002 120.108,0.002 ZM120.108,59.693 C108.296,59.693 98.720,50.117 98.720,38.306 C98.720,26.495 108.296,16.918 120.108,16.918 C131.920,16.918 141.495,26.495 141.495,38.306 C141.495,50.117 131.920,59.693 120.108,59.693 Z" id="path-7" class="cls-5" fill-rule="evenodd"/>
    <path d="M119.506,120.152 C98.351,120.152 81.201,137.301 81.201,158.453 C81.201,179.609 98.351,196.759 119.506,196.759 C140.661,196.759 157.811,179.609 157.811,158.453 C157.811,137.301 140.661,120.152 119.506,120.152 ZM119.506,179.842 C107.693,179.842 98.118,170.266 98.118,158.453 C98.118,146.641 107.693,137.067 119.506,137.067 C131.318,137.067 140.894,146.641 140.894,158.453 C140.894,170.266 131.318,179.842 119.506,179.842 Z" id="path-8" class="cls-5" fill-rule="evenodd"/>
    <path d="M102.807,50.791 C100.262,47.271 98.720,42.981 98.720,38.306 C98.720,26.495 108.296,16.918 120.108,16.918 C124.782,16.918 129.073,18.460 132.592,21.005 C128.706,15.634 122.430,12.105 115.294,12.105 C103.482,12.105 93.907,21.682 93.907,33.493 C93.907,40.629 97.436,46.906 102.807,50.791 Z" id="path-9" class="cls-6" fill-rule="evenodd"/>
    <path d="M144.670,8.927 C150.239,15.579 153.600,24.140 153.600,33.493 C153.600,54.647 136.450,71.795 115.294,71.795 C105.942,71.795 97.380,68.435 90.729,62.867 C97.756,71.261 108.303,76.609 120.108,76.609 C141.263,76.609 158.412,59.460 158.412,38.306 C158.412,26.502 153.065,15.954 144.670,8.927 Z" id="path-10" class="cls-6" fill-rule="evenodd"/>
    <path d="M102.208,170.940 C99.661,167.421 98.118,163.131 98.118,158.453 C98.118,146.641 107.693,137.067 119.506,137.067 C124.182,137.067 128.473,138.609 131.993,141.155 C128.107,135.784 121.829,132.255 114.693,132.255 C102.881,132.255 93.305,141.829 93.305,153.640 C93.305,160.777 96.835,167.056 102.208,170.940 Z" id="path-11" class="cls-6" fill-rule="evenodd"/>
    <path d="M144.072,129.081 C149.638,135.729 152.998,144.289 152.998,153.640 C152.998,174.796 135.848,191.944 114.693,191.944 C105.342,191.944 96.780,188.586 90.130,183.019 C97.157,191.411 107.703,196.759 119.506,196.759 C140.661,196.759 157.811,179.609 157.811,158.453 C157.811,146.652 152.465,136.105 144.072,129.081 Z" id="path-12" class="cls-6" fill-rule="evenodd"/>
  </g>
</svg>
