<svg xmlns="http://www.w3.org/2000/svg" xmlns:xlink="http://www.w3.org/1999/xlink" preserveAspectRatio="xMidYMid" width="218" height="214" viewBox="0 0 218 214">
  <defs>
    <style>

      .cls-3 {
        fill: #ff3a2f;
      }

      .cls-5 {
        fill: #142a3b;
      }

      .cls-6 {
        fill: #fbb713;
      }

      .cls-7 {
        fill: #000000;
        opacity: 0.35;
      }

      .cls-8 {
        fill: #000000;
        opacity: 0.25;
      }

      .cls-9 {
        fill: #ffffff;
      }

      .cls-21 {
        fill: #ededed;
      }
    </style>
  </defs>
  <g id="group-76svg">
    <path d="M83.332,190.027 C83.332,190.027 67.918,190.027 67.918,190.027 C64.946,190.027 62.537,191.673 62.537,193.705 C62.537,195.737 64.946,197.382 67.918,197.382 C67.918,197.382 68.636,197.382 68.636,197.382 C71.608,197.382 74.017,199.030 74.017,201.063 C74.017,203.093 71.608,204.740 68.636,204.740 C68.636,204.740 35.500,204.740 35.500,204.740 C32.528,204.740 30.119,206.388 30.119,208.418 C30.119,210.450 32.528,212.097 35.500,212.097 C35.500,212.097 75.321,212.097 75.321,212.097 C75.321,212.097 156.713,212.097 156.713,212.097 C159.685,212.097 162.094,210.450 162.094,208.418 C162.094,206.388 159.685,204.740 156.713,204.740 C156.713,204.740 147.517,204.740 147.517,204.740 C144.545,204.740 142.136,203.093 142.136,201.063 C142.136,199.030 144.545,197.382 147.517,197.382 C147.517,197.382 183.635,197.382 183.635,197.382 C186.608,197.382 189.017,195.737 189.017,193.705 C189.017,191.673 186.608,190.027 183.635,190.027 C183.635,190.027 180.940,190.027 180.940,190.027 C180.940,190.027 83.332,190.027 83.332,190.027 Z" id="path-1" class="cls-3" fill-rule="evenodd"/>
    <path d="M178.930,213.082 C176.438,213.082 174.419,211.317 174.419,209.140 C174.419,206.963 176.438,205.197 178.930,205.197 C178.930,205.197 192.755,205.197 192.755,205.197 C195.247,205.197 197.267,206.963 197.267,209.140 C197.267,211.317 195.247,213.082 192.755,213.082 C192.755,213.082 178.930,213.082 178.930,213.082 Z" id="path-2" class="cls-3" fill-rule="evenodd"/>
    <path d="M83.975,58.792 C83.975,58.792 43.664,58.792 43.664,58.792 C43.664,58.792 43.664,4.134 43.664,4.134 C43.664,1.855 45.511,0.009 47.789,0.009 C47.789,0.009 79.850,0.009 79.850,0.009 C82.128,0.009 83.975,1.855 83.975,4.134 C83.975,4.134 83.975,58.792 83.975,58.792 Z" id="path-3" class="cls-5" fill-rule="evenodd"/>
    <path d="M111.244,198.195 C111.244,198.195 16.395,198.195 16.395,198.195 C7.337,198.195 -0.005,190.852 -0.005,181.795 C-0.005,181.795 -0.005,70.154 -0.005,70.154 C-0.005,61.096 7.337,53.754 16.395,53.754 C16.395,53.754 111.244,53.754 111.244,53.754 C120.302,53.754 127.645,61.096 127.645,70.154 C127.645,70.154 127.645,181.796 127.645,181.796 C127.645,190.852 120.302,198.195 111.244,198.195 Z" id="path-4" class="cls-6" fill-rule="evenodd"/>
    <path d="M75.937,1.327 C76.762,3.102 77.257,5.060 77.257,7.146 C77.257,7.146 77.257,47.461 77.257,47.461 C77.257,47.461 43.664,50.819 43.664,50.819 C43.664,50.819 43.664,54.178 43.664,54.178 C43.664,54.178 83.975,54.178 83.975,54.178 C83.975,54.178 83.975,13.865 83.975,13.865 C83.975,8.298 80.672,3.531 75.937,1.327 Z" id="path-5" class="cls-7" fill-rule="evenodd"/>
    <path d="M119.607,55.073 C120.432,56.848 120.926,58.807 120.926,60.892 C120.926,60.892 120.926,177.620 120.926,177.620 C120.926,185.274 114.722,191.477 107.070,191.477 C107.070,191.477 7.133,191.477 7.133,191.477 C5.047,191.477 3.088,190.983 1.315,190.158 C3.518,194.892 8.285,198.195 13.852,198.195 C13.852,198.195 113.788,198.195 113.788,198.195 C121.441,198.195 127.645,191.992 127.645,184.339 C127.645,184.339 127.645,67.610 127.645,67.610 C127.645,62.043 124.342,57.277 119.607,55.073 Z" id="path-6" class="cls-8" fill-rule="evenodd"/>
    <path d="M72.217,21.843 C72.217,26.481 68.458,30.241 63.820,30.241 C59.182,30.241 55.422,26.481 55.422,21.843 C55.422,17.204 59.182,13.445 63.820,13.445 C68.458,13.445 72.217,17.204 72.217,21.843 Z" id="path-7" class="cls-9" fill-rule="evenodd"/>
    <path d="M71.167,17.855 C71.816,19.046 72.217,20.391 72.217,21.843 C72.217,26.481 68.458,30.241 63.820,30.241 C62.368,30.241 61.023,29.839 59.832,29.190 C61.255,31.804 63.993,33.599 67.179,33.599 C71.817,33.599 75.577,29.839 75.577,25.202 C75.577,22.015 73.781,19.277 71.167,17.855 Z" id="path-8" class="cls-7" fill-rule="evenodd"/>
    <path d="M171.874,178.040 C171.874,178.040 150.039,178.040 150.039,178.040 C150.039,178.040 150.039,107.500 150.039,107.500 C150.039,107.500 171.874,107.500 171.874,107.500 C171.874,107.500 171.874,178.040 171.874,178.040 Z" id="path-9" class="cls-5" fill-rule="evenodd"/>
    <path d="M171.874,116.213 C171.874,116.213 150.039,125.450 150.039,125.450 C150.039,125.450 150.039,107.500 150.039,107.500 C150.039,107.500 171.874,107.500 171.874,107.500 C171.874,107.500 171.874,116.213 171.874,116.213 Z" id="path-10" class="cls-7" fill-rule="evenodd"/>
    <path d="M217.223,107.500 C217.223,107.500 150.039,107.500 150.039,107.500 C150.039,107.500 150.039,36.345 150.039,36.345 C150.039,16.277 166.308,0.009 186.377,0.009 C186.377,0.009 217.223,0.009 217.223,0.009 C217.223,0.009 217.223,107.500 217.223,107.500 Z" id="path-11" class="cls-6" fill-rule="evenodd"/>
    <path d="M193.708,0.009 C193.708,0.009 186.991,0.009 186.991,0.009 C166.583,0.009 150.039,16.552 150.039,36.958 C150.039,36.958 150.039,107.500 150.039,107.500 C150.039,107.500 156.758,107.500 156.758,107.500 C156.758,107.500 156.758,36.958 156.758,36.958 C156.758,16.552 173.301,0.009 193.708,0.009 Z" id="path-12" class="cls-8" fill-rule="evenodd"/>
    <path d="M180.272,29.400 C180.272,34.038 176.512,37.798 171.874,37.798 C167.236,37.798 163.476,34.038 163.476,29.400 C163.476,24.763 167.236,21.003 171.874,21.003 C176.512,21.003 180.272,24.763 180.272,29.400 Z" id="path-13" class="cls-9" fill-rule="evenodd"/>
    <path d="M166.836,32.760 C166.836,28.122 170.596,24.362 175.234,24.362 C176.685,24.362 178.030,24.764 179.222,25.413 C177.799,22.798 175.060,21.003 171.874,21.003 C167.236,21.003 163.476,24.763 163.476,29.400 C163.476,32.587 165.271,35.325 167.886,36.748 C167.237,35.557 166.836,34.211 166.836,32.760 Z" id="path-14" class="cls-7" fill-rule="evenodd"/>
    <path d="M64.701,95.818 C64.701,95.818 64.701,90.518 64.701,90.518 C64.701,89.497 63.136,88.668 61.203,88.668 C59.271,88.668 57.705,89.497 57.705,90.518 C57.705,90.518 57.705,90.765 57.705,90.765 C57.705,91.787 56.139,92.615 54.207,92.615 C52.275,92.615 50.708,91.787 50.708,90.765 C50.708,90.765 50.708,79.371 50.708,79.371 C50.708,78.350 49.142,77.523 47.210,77.523 C45.277,77.523 43.712,78.350 43.712,79.371 C43.712,79.371 43.712,93.063 43.712,93.063 C43.712,93.063 43.712,121.049 43.712,121.049 C43.712,122.071 45.277,122.899 47.210,122.899 C49.142,122.899 50.708,122.071 50.708,121.049 C50.708,121.049 50.708,117.887 50.708,117.887 C50.708,116.866 52.275,116.038 54.207,116.038 C56.139,116.038 57.705,116.866 57.705,117.887 C57.705,117.887 57.705,132.935 57.705,132.935 C57.705,133.957 59.271,134.786 61.203,134.786 C63.136,134.786 64.701,133.957 64.701,132.935 C64.701,132.935 64.701,129.379 64.701,129.379 C64.701,129.379 64.701,95.818 64.701,95.818 Z" id="path-15" class="cls-3" fill-rule="evenodd"/>
    <path d="M29.877,98.065 C29.877,98.065 29.877,95.463 29.877,95.463 C29.877,94.962 29.108,94.554 28.160,94.554 C27.211,94.554 26.442,94.962 26.442,95.463 C26.442,95.463 26.442,95.584 26.442,95.584 C26.442,96.085 25.673,96.492 24.724,96.492 C23.775,96.492 23.006,96.085 23.006,95.584 C23.006,95.584 23.006,89.990 23.006,89.990 C23.006,89.488 22.237,89.082 21.289,89.082 C20.340,89.082 19.571,89.488 19.571,89.990 C19.571,89.990 19.571,96.713 19.571,96.713 C19.571,96.713 19.571,110.454 19.571,110.454 C19.571,110.956 20.340,111.362 21.289,111.362 C22.237,111.362 23.006,110.956 23.006,110.454 C23.006,110.454 23.006,108.900 23.006,108.900 C23.006,108.399 23.775,107.992 24.724,107.992 C25.673,107.992 26.442,108.399 26.442,108.900 C26.442,108.900 26.442,116.290 26.442,116.290 C26.442,116.791 27.211,117.198 28.160,117.198 C29.108,117.198 29.877,116.791 29.877,116.290 C29.877,116.290 29.877,114.543 29.877,114.543 C29.877,114.543 29.877,98.065 29.877,98.065 Z" id="path-16" class="cls-3" fill-rule="evenodd"/>
    <path d="M43.937,141.326 C43.937,138.672 45.664,136.519 47.793,136.519 C49.922,136.519 51.648,138.672 51.648,141.326 C51.648,141.326 51.648,156.057 51.648,156.057 C51.648,158.712 49.922,160.864 47.793,160.864 C45.664,160.864 43.937,158.712 43.937,156.057 C43.937,156.057 43.937,141.326 43.937,141.326 Z" id="path-17" class="cls-3" fill-rule="evenodd"/>
    <path d="M82.243,98.491 C82.243,95.729 84.039,93.490 86.254,93.490 C88.470,93.490 90.265,95.729 90.265,98.491 C90.265,98.491 90.265,113.816 90.265,113.816 C90.265,116.579 88.470,118.818 86.254,118.818 C84.039,118.818 82.243,116.579 82.243,113.816 C82.243,113.816 82.243,98.491 82.243,98.491 Z" id="path-18" class="cls-3" fill-rule="evenodd"/>
    <path d="M208.051,80.936 C206.052,80.936 204.431,79.315 204.431,77.315 C204.431,77.315 204.431,23.523 204.431,23.523 C204.431,21.523 206.052,19.901 208.051,19.901 C210.051,19.901 211.672,21.523 211.672,23.523 C211.672,23.523 211.672,77.315 211.672,77.315 C211.672,79.315 210.051,80.936 208.051,80.936 Z" id="path-19" class="cls-21" fill-rule="evenodd"/>
  </g>
</svg>
