<svg xmlns="http://www.w3.org/2000/svg" xmlns:xlink="http://www.w3.org/1999/xlink" preserveAspectRatio="xMidYMid" width="217" height="228" viewBox="0 0 217 228">
  <defs>
    <style>

      .cls-3 {
        fill: #2476ff;
      }

      .cls-5 {
        fill: #fbb713;
      }

      .cls-7 {
        fill: #000000;
        opacity: 0.2;
      }

      .cls-12 {
        fill: #000000;
        opacity: 0.35;
      }

      .cls-14 {
        fill: #ff3a2f;
      }

      .cls-20 {
        fill: #000000;
        opacity: 0.25;
      }

      .cls-27 {
        fill: #0cb04a;
      }

      .cls-28 {
        fill: #142a3b;
      }
    </style>
  </defs>
  <g id="group-138svg">
    <path d="M69.154,194.308 C69.154,194.308 49.122,194.308 49.122,194.308 C45.260,194.308 42.129,196.678 42.129,199.601 C42.129,202.524 45.260,204.895 49.122,204.895 C49.122,204.895 50.054,204.895 50.054,204.895 C53.917,204.895 57.048,207.265 57.048,210.187 C57.048,213.112 53.917,215.480 50.054,215.480 C50.054,215.480 6.991,215.480 6.991,215.480 C3.129,215.480 -0.003,217.849 -0.003,220.774 C-0.003,223.696 3.129,226.067 6.991,226.067 C6.991,226.067 58.742,226.067 58.742,226.067 C58.742,226.067 164.522,226.067 164.522,226.067 C168.384,226.067 171.515,223.696 171.515,220.774 C171.515,217.849 168.384,215.480 164.522,215.480 C164.522,215.480 152.570,215.480 152.570,215.480 C148.708,215.480 145.577,213.112 145.577,210.187 C145.577,207.265 148.708,204.895 152.570,204.895 C152.570,204.895 199.510,204.895 199.510,204.895 C203.373,204.895 206.504,202.524 206.504,199.601 C206.504,196.678 203.373,194.308 199.510,194.308 C199.510,194.308 196.007,194.308 196.007,194.308 C196.007,194.308 69.154,194.308 69.154,194.308 Z" id="path-1" class="cls-3" fill-rule="evenodd"/>
    <path d="M193.394,227.485 C190.157,227.485 187.532,224.945 187.532,221.811 C187.532,218.679 190.157,216.139 193.394,216.139 C193.394,216.139 211.363,216.139 211.363,216.139 C214.601,216.139 217.226,218.679 217.226,221.811 C217.226,224.945 214.601,227.485 211.363,227.485 C211.363,227.485 193.394,227.485 193.394,227.485 Z" id="path-2" class="cls-3" fill-rule="evenodd"/>
    <path d="M132.151,-0.002 C121.612,-0.002 111.796,5.182 105.826,13.856 C127.897,18.442 144.271,34.546 144.271,53.713 C144.271,56.502 143.916,59.226 143.256,61.861 C155.733,57.242 164.097,45.309 164.097,31.945 C164.097,14.325 149.766,-0.002 132.151,-0.002 Z" id="path-3" class="cls-5" fill-rule="evenodd"/>
    <path d="M41.817,53.713 C41.817,34.162 58.846,17.783 81.589,13.581 C75.593,5.079 65.895,-0.002 55.482,-0.002 C37.866,-0.002 23.534,14.325 23.534,31.945 C23.534,44.690 31.170,56.077 42.691,61.119 C42.144,58.713 41.817,56.245 41.817,53.713 Z" id="path-4" class="cls-5" fill-rule="evenodd"/>
    <path d="M132.151,-0.002 C131.520,-0.002 130.903,0.076 130.279,0.113 C146.837,1.282 159.961,15.089 159.961,31.945 C159.961,43.618 153.579,54.194 143.650,59.762 C143.521,60.463 143.428,61.173 143.256,61.861 C155.733,57.242 164.097,45.309 164.097,31.945 C164.097,14.325 149.766,-0.002 132.151,-0.002 Z" id="path-5" class="cls-7" fill-rule="evenodd"/>
    <path d="M27.670,31.945 C27.670,15.086 40.798,1.278 57.362,0.112 C56.735,0.075 56.115,-0.002 55.482,-0.002 C37.866,-0.002 23.534,14.325 23.534,31.945 C23.534,44.690 31.170,56.077 42.691,61.119 C42.504,60.296 42.382,59.456 42.251,58.617 C33.341,52.838 27.670,42.905 27.670,31.945 Z" id="path-6" class="cls-7" fill-rule="evenodd"/>
    <path d="M174.523,104.717 C172.669,97.938 168.507,92.421 162.813,89.173 C156.572,85.624 148.931,84.917 140.753,87.169 C138.614,87.743 136.500,88.582 134.407,89.536 C142.736,103.736 147.722,121.333 147.722,138.172 C147.722,138.200 147.718,138.226 147.718,138.252 C150.005,138.005 152.262,137.651 154.426,137.061 C162.482,134.845 168.635,130.457 172.214,124.367 C175.599,118.603 176.420,111.620 174.523,104.717 Z" id="path-7" class="cls-5" fill-rule="evenodd"/>
    <path d="M174.523,104.717 C173.022,99.230 169.953,94.642 165.840,91.343 C167.883,94.009 169.443,97.124 170.388,100.582 C172.285,107.484 171.464,114.467 168.079,120.231 C164.499,126.321 158.346,130.709 150.291,132.925 C149.395,133.169 148.476,133.353 147.553,133.525 C147.636,135.077 147.722,136.630 147.722,138.172 C147.722,138.200 147.718,138.226 147.718,138.252 C150.005,138.005 152.262,137.651 154.426,137.061 C162.482,134.845 168.635,130.457 172.214,124.367 C175.599,118.603 176.420,111.620 174.523,104.717 Z" id="path-8" class="cls-7" fill-rule="evenodd"/>
    <path d="M51.745,89.208 C49.875,88.393 47.990,87.680 46.093,87.169 C37.911,84.917 30.270,85.615 24.016,89.173 C18.322,92.421 14.159,97.938 12.310,104.708 C10.408,111.620 11.228,118.603 14.614,124.367 C18.194,130.457 24.347,134.845 32.406,137.061 C33.907,137.470 36.194,137.816 38.246,138.075 C38.265,121.131 43.313,103.435 51.745,89.208 Z" id="path-9" class="cls-5" fill-rule="evenodd"/>
    <path d="M46.409,87.270 C38.724,101.104 34.128,117.844 34.110,133.939 C32.059,133.680 29.771,133.335 28.271,132.925 C23.686,131.664 19.744,129.679 16.516,127.098 C20.201,131.769 25.616,135.194 32.406,137.061 C33.907,137.470 36.194,137.816 38.246,138.075 C38.265,121.131 43.313,103.435 51.745,89.208 C49.979,88.438 48.199,87.772 46.409,87.270 Z" id="path-10" class="cls-12" fill-rule="evenodd"/>
    <path d="M129.765,82.381 C120.450,90.100 107.442,94.919 93.044,94.919 C78.608,94.919 65.573,90.074 56.254,82.319 C45.097,97.448 38.241,118.351 38.241,138.172 C38.241,142.759 38.684,147.186 39.405,151.456 C42.744,147.262 46.896,144.568 51.580,143.744 C66.485,141.069 80.411,158.326 83.235,174.321 C84.727,182.784 83.103,190.398 79.098,196.135 C83.548,197.208 88.196,197.775 92.982,197.775 C97.919,197.775 102.711,197.171 107.293,196.025 C107.243,195.952 107.173,195.898 107.123,195.824 C103.151,189.981 101.818,182.540 103.274,174.321 C106.091,158.326 120.029,141.076 134.931,143.744 C139.632,144.573 143.567,147.137 146.666,150.778 C147.316,146.741 147.722,142.542 147.722,138.172 C147.722,118.384 140.884,97.505 129.765,82.381 Z" id="path-11" class="cls-5" fill-rule="evenodd"/>
    <path d="M130.129,143.592 C126.718,121.688 111.968,100.039 92.982,100.039 C73.442,100.039 59.166,121.779 55.820,143.557 C69.044,144.414 80.681,159.856 83.235,174.321 C84.727,182.784 83.103,190.398 79.098,196.135 C83.548,197.208 88.196,197.775 92.982,197.775 C97.919,197.775 102.711,197.171 107.293,196.025 C107.243,195.952 107.173,195.898 107.123,195.824 C103.151,189.981 101.818,182.540 103.274,174.321 C105.785,160.062 117.138,144.848 130.129,143.592 Z" id="path-12" class="cls-14" fill-rule="evenodd"/>
    <path d="M92.982,104.174 C110.806,104.174 124.895,123.256 129.374,143.716 C129.627,143.681 129.875,143.617 130.129,143.592 C126.718,121.688 111.968,100.039 92.982,100.039 C73.442,100.039 59.166,121.779 55.820,143.557 C56.071,143.573 56.316,143.630 56.566,143.657 C60.953,123.308 74.651,104.174 92.982,104.174 Z" id="path-13" class="cls-12" fill-rule="evenodd"/>
    <path d="M102.791,182.794 C102.502,187.772 103.306,192.378 105.166,196.420 C105.870,196.271 106.599,196.199 107.293,196.025 C107.243,195.952 107.173,195.898 107.123,195.824 C104.571,192.069 103.124,187.650 102.791,182.794 Z" id="path-14" class="cls-12" fill-rule="evenodd"/>
    <path d="M83.686,182.430 C83.353,187.626 81.771,192.305 79.098,196.135 C79.789,196.302 80.516,196.374 81.217,196.515 C83.129,192.405 84.014,187.626 83.686,182.430 Z" id="path-15" class="cls-12" fill-rule="evenodd"/>
    <path d="M47.445,135.473 C44.094,136.063 41.029,137.645 38.326,140.015 C38.428,143.939 38.782,147.769 39.405,151.456 C42.744,147.262 46.896,144.568 51.580,143.744 C61.476,141.967 70.919,148.993 76.989,158.586 C71.895,145.178 60.033,133.214 47.445,135.473 Z" id="path-16" class="cls-12" fill-rule="evenodd"/>
    <path d="M135.135,90.851 C140.478,103.005 143.587,116.678 143.587,129.901 C143.587,134.271 143.181,138.471 142.531,142.508 C139.432,138.867 135.497,136.302 130.796,135.473 C115.894,132.806 101.956,150.055 99.139,166.049 C97.683,174.269 99.016,181.712 102.988,187.554 C103.038,187.626 103.107,187.682 103.158,187.754 C98.575,188.901 93.784,189.504 88.847,189.504 C86.696,189.504 84.584,189.352 82.493,189.129 C81.701,191.681 80.563,194.037 79.098,196.135 C83.548,197.208 88.196,197.775 92.982,197.775 C97.919,197.775 102.711,197.171 107.293,196.025 C107.243,195.952 107.173,195.898 107.123,195.824 C103.151,189.981 101.818,182.540 103.274,174.321 C106.091,158.326 120.029,141.076 134.931,143.744 C139.632,144.573 143.567,147.137 146.666,150.778 C147.316,146.741 147.722,142.542 147.722,138.172 C147.722,121.841 143.011,104.819 135.135,90.851 Z" id="path-17" class="cls-12" fill-rule="evenodd"/>
    <path d="M32.001,53.458 C34.960,56.665 38.561,59.313 42.691,61.119 C42.144,58.713 41.817,56.245 41.817,53.713 C41.817,34.162 58.846,17.783 81.589,13.581 C79.739,10.958 77.505,8.706 75.037,6.784 C50.229,12.955 32.143,31.529 32.001,53.458 Z" id="path-18" class="cls-20" fill-rule="evenodd"/>
    <path d="M57.729,206.761 C57.729,206.761 57.729,206.761 57.729,206.761 C44.787,206.761 34.798,197.555 32.292,183.308 C30.853,175.168 31.868,166.227 35.063,158.784 C38.700,150.320 44.567,144.979 51.580,143.744 C66.485,141.069 80.411,158.326 83.235,174.321 C86.091,190.528 77.608,203.689 62.614,206.329 C60.969,206.621 59.335,206.761 57.729,206.761 Z" id="path-19" class="cls-5" fill-rule="evenodd"/>
    <path d="M128.782,206.761 C128.782,206.761 128.782,206.761 128.782,206.761 C127.176,206.761 125.542,206.621 123.896,206.329 C116.839,205.084 110.884,201.360 107.123,195.824 C103.151,189.981 101.818,182.540 103.274,174.321 C106.091,158.326 120.029,141.076 134.931,143.744 C149.942,146.391 157.146,166.721 154.219,183.308 C151.712,197.555 141.723,206.761 128.782,206.761 Z" id="path-20" class="cls-5" fill-rule="evenodd"/>
    <path d="M83.235,174.321 C80.411,158.326 66.485,141.069 51.580,143.744 C51.236,143.804 50.908,143.920 50.570,144.000 C62.509,146.785 72.607,160.970 74.964,174.321 C77.821,190.528 69.337,203.689 54.344,206.329 C54.102,206.372 53.870,206.356 53.630,206.392 C54.963,206.605 56.320,206.761 57.729,206.761 C59.335,206.761 60.969,206.621 62.614,206.329 C77.608,203.689 86.091,190.528 83.235,174.321 Z" id="path-21" class="cls-12" fill-rule="evenodd"/>
    <path d="M134.931,143.744 C132.467,143.302 130.036,143.450 127.671,144.002 C141.978,147.379 148.807,167.106 145.948,183.308 C143.714,196.004 135.522,204.650 124.611,206.392 C126.013,206.604 127.411,206.761 128.782,206.761 C141.723,206.761 151.712,197.555 154.219,183.308 C157.146,166.721 149.942,146.391 134.931,143.744 Z" id="path-22" class="cls-12" fill-rule="evenodd"/>
    <path d="M93.044,94.919 C64.795,94.919 41.817,76.436 41.817,53.713 C41.817,30.991 64.795,12.506 93.044,12.506 C121.292,12.506 144.270,30.991 144.270,53.713 C144.270,76.436 121.292,94.919 93.044,94.919 Z" id="path-23" class="cls-5" fill-rule="evenodd"/>
    <path d="M115.727,16.821 C128.019,24.356 135.999,36.216 135.999,49.578 C135.999,72.299 113.021,90.784 84.773,90.784 C76.621,90.784 68.938,89.205 62.090,86.469 C70.700,91.746 81.407,94.919 93.044,94.919 C121.292,94.919 144.270,76.434 144.270,53.713 C144.270,37.547 132.612,23.568 115.727,16.821 Z" id="path-24" class="cls-7" fill-rule="evenodd"/>
    <path d="M75.530,59.080 C68.052,59.080 61.970,52.997 61.970,45.521 C61.970,38.043 68.052,31.961 75.530,31.961 C83.006,31.961 89.088,38.043 89.088,45.521 C89.088,52.997 83.006,59.080 75.530,59.080 Z" id="path-25" class="cls-27" fill-rule="evenodd"/>
    <circle id="circle-1" class="cls-28" cx="93" cy="67" r="7"/>
    <path d="M97.179,60.506 C96.450,60.506 95.760,60.656 95.111,60.892 C97.436,61.744 99.110,63.957 99.110,66.573 C99.110,69.187 97.436,71.401 95.111,72.251 C95.760,72.488 96.450,72.637 97.179,72.637 C100.524,72.637 103.245,69.917 103.245,66.573 C103.245,63.227 100.524,60.506 97.179,60.506 Z" id="path-26" class="cls-12" fill-rule="evenodd"/>
    <path d="M111.688,59.080 C104.210,59.080 98.128,52.997 98.128,45.521 C98.128,38.043 104.210,31.961 111.688,31.961 C119.164,31.961 125.247,38.043 125.247,45.521 C125.247,52.997 119.164,59.080 111.688,59.080 Z" id="path-27" class="cls-27" fill-rule="evenodd"/>
    <path d="M75.530,31.961 C74.821,31.961 74.141,32.065 73.462,32.172 C79.953,33.175 84.954,38.752 84.954,45.521 C84.954,52.290 79.953,57.866 73.462,58.870 C74.141,58.976 74.821,59.080 75.530,59.080 C83.006,59.080 89.089,52.997 89.089,45.521 C89.089,38.043 83.006,31.961 75.530,31.961 Z" id="path-28" class="cls-12" fill-rule="evenodd"/>
    <path d="M111.688,31.961 C110.980,31.961 110.299,32.065 109.620,32.172 C116.112,33.175 121.111,38.752 121.111,45.521 C121.111,52.290 116.112,57.866 109.620,58.870 C110.299,58.976 110.980,59.080 111.688,59.080 C119.164,59.080 125.247,52.997 125.247,45.521 C125.247,38.043 119.164,31.961 111.688,31.961 Z" id="path-29" class="cls-12" fill-rule="evenodd"/>
  </g>
</svg>
