<svg xmlns="http://www.w3.org/2000/svg" xmlns:xlink="http://www.w3.org/1999/xlink" preserveAspectRatio="xMidYMid" width="218" height="163" viewBox="0 0 218 163">
  <defs>
    <style>

      .cls-3 {
        fill: #fbb713;
      }

      .cls-5 {
        fill: #0cb04a;
      }

      .cls-6 {
        fill: #ededed;
      }

      .cls-7 {
        fill: #000000;
        opacity: 0.35;
      }

      .cls-8 {
        fill: #ff3a2f;
      }

      .cls-10 {
        fill: #142a3b;
      }
    </style>
  </defs>
  <g id="group-61svg">
    <path d="M89.315,141.745 C89.315,141.745 72.010,141.745 72.010,141.745 C68.673,141.745 65.969,143.187 65.969,144.963 C65.969,146.740 68.673,148.181 72.010,148.181 C72.010,148.181 72.816,148.181 72.816,148.181 C76.152,148.181 78.856,149.622 78.856,151.399 C78.856,153.177 76.152,154.618 72.816,154.618 C72.816,154.618 35.615,154.618 35.615,154.618 C32.278,154.618 29.574,156.058 29.574,157.835 C29.574,159.612 32.278,161.053 35.615,161.053 C35.615,161.053 80.321,161.053 80.321,161.053 C80.321,161.053 171.698,161.053 171.698,161.053 C175.035,161.053 177.739,159.612 177.739,157.835 C177.739,156.058 175.035,154.618 171.698,154.618 C171.698,154.618 161.374,154.618 161.374,154.618 C158.037,154.618 155.332,153.177 155.332,151.399 C155.332,149.622 158.037,148.181 161.374,148.181 C161.374,148.181 201.923,148.181 201.923,148.181 C205.260,148.181 207.964,146.740 207.964,144.963 C207.964,143.187 205.260,141.745 201.923,141.745 C201.923,141.745 198.897,141.745 198.897,141.745 C198.897,141.745 89.315,141.745 89.315,141.745 Z" id="path-1" class="cls-3" fill-rule="evenodd"/>
    <path d="M196.640,161.915 C193.843,161.915 191.575,160.372 191.575,158.467 C191.575,156.562 193.843,155.018 196.640,155.018 C196.640,155.018 212.162,155.018 212.162,155.018 C214.959,155.018 217.227,156.562 217.227,158.467 C217.227,160.372 214.959,161.915 212.162,161.915 C212.162,161.915 196.640,161.915 196.640,161.915 Z" id="path-2" class="cls-3" fill-rule="evenodd"/>
    <path d="M154.001,97.494 C152.714,59.505 121.533,29.101 83.232,29.101 C44.930,29.101 13.750,59.505 12.462,97.494 C12.462,97.494 154.001,97.494 154.001,97.494 Z" id="path-3" class="cls-5" fill-rule="evenodd"/>
    <path d="M34.825,71.107 C34.306,71.107 33.779,70.995 33.279,70.758 C31.470,69.903 30.699,67.745 31.555,65.938 C39.852,48.416 57.731,37.096 77.106,37.096 C79.106,37.096 80.727,38.716 80.727,40.716 C80.727,42.715 79.106,44.336 77.106,44.336 C60.515,44.336 45.204,54.031 38.099,69.035 C37.481,70.343 36.181,71.107 34.825,71.107 Z" id="path-4" class="cls-6" fill-rule="evenodd"/>
    <path d="M91.398,29.586 C100.152,34.714 107.706,41.666 113.539,49.922 C124.929,66.043 113.522,88.306 93.783,88.306 C93.783,88.306 13.391,88.306 13.391,88.306 C12.895,91.311 12.568,94.374 12.462,97.494 C12.462,97.494 154.001,97.494 154.001,97.494 C152.806,62.248 125.872,33.548 91.398,29.586 Z" id="path-5" class="cls-7" fill-rule="evenodd"/>
    <path d="M166.465,142.806 C166.465,142.806 -0.001,142.806 -0.001,142.806 C-0.001,142.806 -0.001,93.793 -0.001,93.793 C-0.001,93.793 166.465,93.793 166.465,93.793 C166.465,93.793 166.465,142.806 166.465,142.806 Z" id="path-6" class="cls-8" fill-rule="evenodd"/>
    <path d="M145.028,93.793 C145.028,93.793 145.028,99.584 145.028,99.584 C145.028,118.381 129.790,133.619 110.992,133.619 C110.992,133.619 -0.001,133.619 -0.001,133.619 C-0.001,133.619 -0.001,142.806 -0.001,142.806 C-0.001,142.806 166.465,142.806 166.465,142.806 C166.465,142.806 166.465,93.793 166.465,93.793 C166.465,93.793 145.028,93.793 145.028,93.793 Z" id="path-7" class="cls-7" fill-rule="evenodd"/>
    <path d="M98.031,14.809 C98.031,22.983 91.405,29.609 83.232,29.609 C75.058,29.609 68.431,22.983 68.431,14.809 C68.431,6.636 75.058,0.010 83.232,0.010 C91.405,0.010 98.031,6.636 98.031,14.809 Z" id="path-8" class="cls-10" fill-rule="evenodd"/>
    <path d="M80.858,11.747 C80.858,13.818 79.178,15.499 77.107,15.499 C75.035,15.499 73.355,13.818 73.355,11.747 C73.355,9.675 75.035,7.996 77.107,7.996 C79.178,7.996 80.858,9.675 80.858,11.747 Z" id="path-9" class="cls-6" fill-rule="evenodd"/>
    <path d="M86.503,0.400 C89.777,3.114 91.907,7.161 91.907,11.747 C91.907,19.921 85.280,26.546 77.107,26.546 C75.978,26.546 74.891,26.395 73.835,26.156 C76.398,28.281 79.643,29.609 83.232,29.609 C91.405,29.609 98.031,22.983 98.031,14.809 C98.031,7.763 93.097,1.893 86.503,0.400 Z" id="path-10" class="cls-7" fill-rule="evenodd"/>
  </g>
</svg>
