<svg xmlns="http://www.w3.org/2000/svg" xmlns:xlink="http://www.w3.org/1999/xlink" preserveAspectRatio="xMidYMid" width="218" height="193" viewBox="0 0 218 193">
  <defs>
    <style>

      .cls-3 {
        fill: #0cb04a;
      }

      .cls-6 {
        fill: #fbb713;
      }

      .cls-7 {
        fill: #060606;
        opacity: 0.35;
      }
    </style>
  </defs>
  <g id="group-38svg">
    <path d="M99.868,168.179 C99.868,168.179 82.750,168.179 82.750,168.179 C79.449,168.179 76.774,169.671 76.774,171.511 C76.774,173.351 79.449,174.842 82.750,174.842 C82.750,174.842 83.546,174.842 83.546,174.842 C86.847,174.842 89.523,176.333 89.523,178.173 C89.523,180.013 86.847,181.505 83.546,181.505 C83.546,181.505 46.747,181.505 46.747,181.505 C43.446,181.505 40.770,182.996 40.770,184.836 C40.770,186.676 43.446,188.168 46.747,188.168 C46.747,188.168 90.971,188.168 90.971,188.168 C90.971,188.168 181.363,188.168 181.363,188.168 C184.664,188.168 187.339,186.676 187.339,184.836 C187.339,182.996 184.664,181.505 181.363,181.505 C181.363,181.505 171.150,181.505 171.150,181.505 C167.850,181.505 165.174,180.013 165.174,178.173 C165.174,176.333 167.850,174.842 171.150,174.842 C171.150,174.842 211.263,174.842 211.263,174.842 C214.563,174.842 217.239,173.351 217.239,171.511 C217.239,169.671 214.563,168.179 211.263,168.179 C211.263,168.179 208.269,168.179 208.269,168.179 C208.269,168.179 99.868,168.179 99.868,168.179 Z" id="path-1" class="cls-3" fill-rule="evenodd"/>
    <path d="M180.845,141.713 C180.845,141.713 183.885,141.713 183.885,141.713 C184.472,141.713 184.947,142.537 184.947,143.554 C184.947,144.572 184.472,145.397 183.885,145.397 C183.885,145.397 183.744,145.397 183.744,145.397 C183.158,145.397 182.683,146.221 182.683,147.239 C182.683,148.256 183.158,149.081 183.744,149.081 C183.744,149.081 190.280,149.081 190.280,149.081 C190.865,149.081 191.341,149.906 191.341,150.923 C191.341,151.941 190.865,152.766 190.280,152.766 C190.280,152.766 182.426,152.766 182.426,152.766 C182.426,152.766 166.373,152.766 166.373,152.766 C165.787,152.766 165.312,151.941 165.312,150.923 C165.312,149.906 165.787,149.081 166.373,149.081 C166.373,149.081 168.187,149.081 168.187,149.081 C168.773,149.081 169.248,148.256 169.248,147.239 C169.248,146.221 168.773,145.397 168.187,145.397 C168.187,145.397 159.555,145.397 159.555,145.397 C158.968,145.397 158.494,144.572 158.494,143.554 C158.494,142.537 158.968,141.713 159.555,141.713 C159.555,141.713 161.595,141.713 161.595,141.713 C161.595,141.713 180.845,141.713 180.845,141.713 Z" id="path-2" class="cls-3" fill-rule="evenodd"/>
    <path d="M11.792,192.150 C9.380,192.150 7.424,190.719 7.424,188.954 C7.424,187.189 9.380,185.758 11.792,185.758 C11.792,185.758 25.175,185.758 25.175,185.758 C27.588,185.758 29.542,187.189 29.542,188.954 C29.542,190.719 27.588,192.150 25.175,192.150 C25.175,192.150 11.792,192.150 11.792,192.150 Z" id="path-3" class="cls-3" fill-rule="evenodd"/>
    <path d="M121.917,58.520 C121.917,58.520 186.136,68.455 186.136,68.455 C186.136,68.455 139.188,113.382 139.188,113.382 C139.188,113.382 149.583,177.526 149.583,177.526 C149.583,177.526 92.345,146.759 92.345,146.759 C92.345,146.759 34.551,176.468 34.551,176.468 C34.551,176.468 46.125,112.527 46.125,112.527 C46.125,112.527 0.011,66.743 0.011,66.743 C0.011,66.743 64.401,57.991 64.401,57.991 C64.401,57.991 93.695,-0.013 93.695,-0.013 C93.695,-0.013 121.917,58.520 121.917,58.520 Z" id="path-4" class="cls-6" fill-rule="evenodd"/>
    <path d="M110.313,55.618 C110.313,55.618 121.342,57.325 121.342,57.325 C121.342,57.325 93.695,-0.014 93.695,-0.014 C93.695,-0.014 88.474,10.325 88.474,10.325 C88.474,10.325 110.313,55.618 110.313,55.618 Z" id="path-5" class="cls-7" fill-rule="evenodd"/>
    <path d="M80.740,143.859 C80.740,143.859 36.321,166.692 36.321,166.692 C36.321,166.692 34.551,176.468 34.551,176.468 C34.551,176.468 89.172,148.391 89.172,148.391 C89.172,148.391 80.740,143.859 80.740,143.859 Z" id="path-6" class="cls-7" fill-rule="evenodd"/>
    <path d="M186.136,68.455 C186.136,68.455 173.537,66.506 173.537,66.506 C173.537,66.506 127.583,110.481 127.583,110.481 C127.583,110.481 137.386,170.970 137.386,170.970 C137.386,170.970 149.583,177.526 149.583,177.526 C149.583,177.526 139.188,113.382 139.188,113.382 C139.188,113.382 186.136,68.455 186.136,68.455 Z" id="path-7" class="cls-7" fill-rule="evenodd"/>
  </g>
</svg>
