<svg xmlns="http://www.w3.org/2000/svg" xmlns:xlink="http://www.w3.org/1999/xlink" preserveAspectRatio="xMidYMid" width="217" height="205" viewBox="0 0 217 205">
  <defs>
    <style>

      .cls-3 {
        fill: #2476ff;
      }

      .cls-6 {
        fill: #142a3b;
      }

      .cls-7 {
        fill: #ff3a2f;
      }

      .cls-9 {
        fill: #000000;
        opacity: 0.35;
      }

      .cls-17 {
        fill: #ededed;
      }
    </style>
  </defs>
  <g id="group-47svg">
    <path d="M87.494,200.214 C87.494,200.214 97.199,200.214 97.199,200.214 C99.070,200.214 100.586,198.424 100.586,196.214 C100.586,194.006 99.070,192.216 97.199,192.216 C97.199,192.216 96.747,192.216 96.747,192.216 C94.876,192.216 93.359,190.426 93.359,188.217 C93.359,186.009 94.876,184.219 96.747,184.219 C96.747,184.219 117.608,184.219 117.608,184.219 C119.479,184.219 120.996,182.429 120.996,180.219 C120.996,178.011 119.479,176.220 117.608,176.220 C117.608,176.220 92.538,176.220 92.538,176.220 C92.538,176.220 41.296,176.220 41.296,176.220 C39.425,176.220 37.908,178.011 37.908,180.219 C37.908,182.429 39.425,184.219 41.296,184.219 C41.296,184.219 47.086,184.219 47.086,184.219 C48.957,184.219 50.474,186.009 50.474,188.217 C50.474,190.426 48.957,192.216 47.086,192.216 C47.086,192.216 19.532,192.216 19.532,192.216 C17.661,192.216 16.144,194.006 16.144,196.214 C16.144,198.424 17.661,200.214 19.532,200.214 C19.532,200.214 26.044,200.214 26.044,200.214 C26.044,200.214 87.494,200.214 87.494,200.214 Z" id="path-1" class="cls-3" fill-rule="evenodd"/>
    <path d="M37.707,136.001 C37.707,136.001 42.836,136.001 42.836,136.001 C43.825,136.001 44.627,135.123 44.627,134.039 C44.627,132.954 43.825,132.075 42.836,132.075 C42.836,132.075 42.597,132.075 42.597,132.075 C41.609,132.075 40.807,131.196 40.807,130.112 C40.807,129.028 41.609,128.148 42.597,128.148 C42.597,128.148 53.623,128.148 53.623,128.148 C54.611,128.148 55.413,127.269 55.413,126.185 C55.413,125.100 54.611,124.221 53.623,124.221 C53.623,124.221 40.373,124.221 40.373,124.221 C40.373,124.221 13.291,124.221 13.291,124.221 C12.302,124.221 11.500,125.100 11.500,126.185 C11.500,127.269 12.302,128.148 13.291,128.148 C13.291,128.148 16.351,128.148 16.351,128.148 C17.339,128.148 18.141,129.028 18.141,130.112 C18.141,131.196 17.339,132.075 16.351,132.075 C16.351,132.075 1.788,132.075 1.788,132.075 C0.799,132.075 -0.003,132.954 -0.003,134.039 C-0.003,135.123 0.799,136.001 1.788,136.001 C1.788,136.001 5.230,136.001 5.230,136.001 C5.230,136.001 37.707,136.001 37.707,136.001 Z" id="path-2" class="cls-3" fill-rule="evenodd"/>
    <path d="M133.581,195.806 C135.688,195.806 137.396,197.780 137.396,200.214 C137.396,202.648 135.688,204.622 133.581,204.622 C133.581,204.622 121.890,204.622 121.890,204.622 C119.783,204.622 118.075,202.648 118.075,200.214 C118.075,197.780 119.783,195.806 121.890,195.806 C121.890,195.806 133.581,195.806 133.581,195.806 Z" id="path-3" class="cls-3" fill-rule="evenodd"/>
    <path d="M156.392,60.817 C156.392,60.817 67.414,149.792 67.414,149.792 C67.414,149.792 67.414,149.792 67.414,149.792 " id="path-4" class="cls-6" fill-rule="evenodd"/>
    <path d="M69.974,152.352 C69.974,152.352 64.854,147.233 64.854,147.233 C64.854,147.233 153.833,58.258 153.833,58.258 C153.833,58.258 158.952,63.378 158.952,63.378 C158.952,63.378 69.974,152.352 69.974,152.352 Z" id="path-5" class="cls-7" fill-rule="evenodd"/>
    <path d="M126.479,21.049 C126.479,21.049 203.678,0.364 203.678,0.364 C211.674,-1.778 218.990,5.537 216.848,13.533 C216.848,13.533 196.163,90.731 196.163,90.731 C194.020,98.726 184.026,101.403 178.172,95.550 C168.452,68.813 149.919,49.712 121.659,39.039 C115.805,33.184 118.483,23.191 126.479,21.049 Z" id="path-6" class="cls-7" fill-rule="evenodd"/>
    <path d="M170.140,78.526 C160.521,55.280 143.740,38.241 119.156,27.959 C117.902,31.622 118.531,35.910 121.659,39.039 C143.493,47.285 159.497,60.582 170.140,78.526 Z" id="path-7" class="cls-9" fill-rule="evenodd"/>
    <path d="M210.538,0.913 C210.538,0.913 189.852,78.110 189.852,78.110 C187.846,85.596 178.995,88.322 173.067,83.846 C174.968,87.574 176.687,91.462 178.173,95.550 C184.026,101.403 194.020,98.726 196.162,90.730 C196.162,90.730 216.848,13.533 216.848,13.533 C218.335,7.986 215.229,2.844 210.542,0.883 C210.539,0.894 210.540,0.903 210.538,0.913 Z" id="path-8" class="cls-9" fill-rule="evenodd"/>
    <path d="M28.359,152.665 C28.359,152.665 68.445,141.925 68.445,141.925 C72.596,140.811 76.396,144.610 75.283,148.762 C75.283,148.762 64.542,188.846 64.542,188.846 C63.430,192.998 58.241,194.388 55.201,191.349 C50.154,177.465 40.530,167.548 25.856,162.006 C22.817,158.967 24.208,153.777 28.359,152.665 Z" id="path-9" class="cls-7" fill-rule="evenodd"/>
    <path d="M24.256,157.737 C24.163,159.239 24.643,160.792 25.856,162.006 C31.519,164.144 36.411,166.951 40.597,170.369 C36.304,165.157 30.884,160.923 24.256,157.737 Z" id="path-10" class="cls-9" fill-rule="evenodd"/>
    <path d="M69.051,141.848 C69.019,142.050 69.028,142.248 68.972,142.452 C68.972,142.452 58.233,182.537 58.233,182.537 C57.570,185.008 55.458,186.470 53.220,186.631 C53.940,188.153 54.608,189.718 55.201,191.349 C58.241,194.388 63.430,192.998 64.542,188.846 C64.542,188.846 75.283,148.762 75.283,148.762 C76.341,144.817 72.953,141.240 69.051,141.848 Z" id="path-11" class="cls-9" fill-rule="evenodd"/>
    <path d="M151.669,114.878 C149.670,114.878 148.048,113.257 148.048,111.258 C148.048,88.046 129.163,69.160 105.950,69.160 C103.950,69.160 102.330,67.539 102.330,65.539 C102.330,63.541 103.950,61.919 105.950,61.919 C133.157,61.919 155.290,84.052 155.290,111.258 C155.290,113.257 153.668,114.878 151.669,114.878 Z" id="path-12" class="cls-7" fill-rule="evenodd"/>
    <path d="M130.813,135.733 C128.813,135.733 127.192,134.113 127.192,132.114 C127.192,108.902 108.307,90.016 85.093,90.016 C83.094,90.016 81.473,88.395 81.473,86.396 C81.473,84.396 83.094,82.776 85.093,82.776 C112.300,82.776 134.433,104.908 134.433,132.114 C134.433,134.113 132.812,135.733 130.813,135.733 Z" id="path-13" class="cls-7" fill-rule="evenodd"/>
    <path d="M109.956,156.592 C107.957,156.592 106.336,154.971 106.336,152.970 C106.336,129.758 87.450,110.874 64.237,110.874 C62.237,110.874 60.616,109.253 60.616,107.254 C60.616,105.254 62.237,103.633 64.237,103.633 C91.443,103.633 113.576,125.765 113.576,152.970 C113.576,154.971 111.955,156.592 109.956,156.592 Z" id="path-14" class="cls-7" fill-rule="evenodd"/>
    <path d="M198.119,30.911 C194.855,34.175 189.563,34.175 186.299,30.911 C183.035,27.648 183.035,22.357 186.299,19.092 C189.563,15.829 194.855,15.829 198.119,19.092 C201.382,22.357 201.382,27.648 198.119,30.911 Z" id="path-15" class="cls-17" fill-rule="evenodd"/>
  </g>
</svg>
