<svg xmlns="http://www.w3.org/2000/svg" xmlns:xlink="http://www.w3.org/1999/xlink" preserveAspectRatio="xMidYMid" width="218" height="216" viewBox="0 0 218 216">
  <defs>
    <style>

      .cls-3 {
        fill: #2476ff;
      }

      .cls-8 {
        fill: #142a3b;
      }

      .cls-9 {
        fill: #000000;
        opacity: 0.35;
      }
    </style>
  </defs>
  <g id="group-153svg">
    <path d="M103.872,194.813 C103.872,194.813 97.760,194.813 97.760,194.813 C96.582,194.813 95.626,195.534 95.626,196.426 C95.626,197.318 96.582,198.039 97.760,198.039 C97.760,198.039 98.045,198.039 98.045,198.039 C99.223,198.039 100.179,198.762 100.179,199.652 C100.179,200.544 99.223,201.266 98.045,201.266 C98.045,201.266 84.905,201.266 84.905,201.266 C83.727,201.266 82.772,201.988 82.772,202.880 C82.772,203.771 83.727,204.493 84.905,204.493 C84.905,204.493 100.696,204.493 100.696,204.493 C100.696,204.493 132.970,204.493 132.970,204.493 C134.149,204.493 135.104,203.771 135.104,202.880 C135.104,201.988 134.149,201.266 132.970,201.266 C132.970,201.266 129.324,201.266 129.324,201.266 C128.145,201.266 127.190,200.544 127.190,199.652 C127.190,198.762 128.145,198.039 129.324,198.039 C129.324,198.039 143.645,198.039 143.645,198.039 C144.824,198.039 145.780,197.318 145.780,196.426 C145.780,195.534 144.824,194.813 143.645,194.813 C143.645,194.813 142.577,194.813 142.577,194.813 C142.577,194.813 103.872,194.813 103.872,194.813 Z" id="path-1" class="cls-3" fill-rule="evenodd"/>
    <path d="M141.779,204.926 C140.792,204.926 139.991,204.151 139.991,203.196 C139.991,202.241 140.792,201.467 141.779,201.467 C141.779,201.467 147.261,201.467 147.261,201.467 C148.250,201.467 149.051,202.241 149.051,203.196 C149.051,204.151 148.250,204.926 147.261,204.926 C147.261,204.926 141.779,204.926 141.779,204.926 Z" id="path-2" class="cls-3" fill-rule="evenodd"/>
    <path d="M27.065,194.695 C27.065,194.695 19.224,194.695 19.224,194.695 C17.713,194.695 16.487,196.157 16.487,197.960 C16.487,199.763 17.713,201.224 19.224,201.224 C19.224,201.224 19.590,201.224 19.590,201.224 C21.101,201.224 22.327,202.686 22.327,204.488 C22.327,206.291 21.101,207.752 19.590,207.752 C19.590,207.752 2.735,207.752 2.735,207.752 C1.223,207.752 -0.001,209.213 -0.001,211.017 C-0.001,212.818 1.223,214.281 2.735,214.281 C2.735,214.281 22.990,214.281 22.990,214.281 C22.990,214.281 64.390,214.281 64.390,214.281 C65.901,214.281 67.127,212.818 67.127,211.017 C67.127,209.213 65.901,207.752 64.390,207.752 C64.390,207.752 59.712,207.752 59.712,207.752 C58.200,207.752 56.975,206.291 56.975,204.488 C56.975,202.686 58.200,201.224 59.712,201.224 C59.712,201.224 78.083,201.224 78.083,201.224 C79.595,201.224 80.820,199.763 80.820,197.960 C80.820,196.157 79.595,194.695 78.083,194.695 C78.083,194.695 76.712,194.695 76.712,194.695 C76.712,194.695 27.065,194.695 27.065,194.695 Z" id="path-3" class="cls-3" fill-rule="evenodd"/>
    <path d="M75.690,215.155 C74.422,215.155 73.395,213.588 73.395,211.656 C73.395,209.725 74.422,208.159 75.690,208.159 C75.690,208.159 82.722,208.159 82.722,208.159 C83.989,208.159 85.017,209.725 85.017,211.656 C85.017,213.588 83.989,215.155 82.722,215.155 C82.722,215.155 75.690,215.155 75.690,215.155 Z" id="path-4" class="cls-3" fill-rule="evenodd"/>
    <path d="M160.297,83.997 C160.297,83.997 92.128,151.711 92.128,151.711 C89.051,154.767 80.353,151.102 72.707,143.511 C65.065,135.917 61.371,127.277 64.452,124.221 C64.452,124.221 132.667,56.562 132.667,56.562 C132.667,56.562 132.667,56.562 132.667,56.562 " id="path-5" class="cls-3" fill-rule="evenodd"/>
    <path d="M31.986,187.627 C31.055,187.627 30.121,187.271 29.414,186.554 C28.007,185.133 28.018,182.842 29.439,181.435 C29.439,181.435 58.924,152.237 58.924,152.237 C60.344,150.831 62.638,150.838 64.044,152.261 C65.451,153.683 65.440,155.973 64.019,157.382 C64.019,157.382 34.534,186.579 34.534,186.579 C33.829,187.280 32.907,187.627 31.986,187.627 Z" id="path-6" class="cls-8" fill-rule="evenodd"/>
    <path d="M152.399,76.155 C152.399,76.155 88.180,139.945 88.180,139.945 C85.103,143.001 76.404,139.336 68.759,131.746 C66.741,129.741 65.021,127.667 63.606,125.637 C62.373,129.449 66.032,136.877 72.707,143.511 C80.353,151.102 89.051,154.767 92.128,151.711 C92.128,151.711 160.297,83.997 160.297,83.997 C160.297,83.997 152.399,76.155 152.399,76.155 Z" id="path-7" class="cls-9" fill-rule="evenodd"/>
    <path d="M67.598,137.387 C67.598,137.387 55.677,148.896 55.677,148.896 C55.677,148.896 66.993,160.476 66.993,160.476 C66.993,160.476 79.084,148.804 79.084,148.804 C79.084,148.804 79.084,148.804 79.084,148.804 " id="path-8" class="cls-3" fill-rule="evenodd"/>
    <path d="M174.124,101.350 C173.201,101.350 172.278,101.000 171.573,100.299 C171.573,100.299 116.297,45.395 116.297,45.395 C114.877,43.987 114.870,41.694 116.279,40.276 C117.690,38.859 119.985,38.852 121.399,40.258 C121.399,40.258 176.674,95.161 176.674,95.161 C178.095,96.570 178.101,98.864 176.692,100.281 C175.985,100.994 175.053,101.350 174.124,101.350 Z" id="path-9" class="cls-8" fill-rule="evenodd"/>
    <path d="M140.655,68.110 C139.720,68.110 138.787,67.752 138.078,67.032 C136.674,65.608 136.690,63.316 138.113,61.912 C138.113,61.912 188.176,12.529 188.176,12.529 C189.601,11.121 191.892,11.139 193.296,12.564 C194.699,13.987 194.683,16.278 193.260,17.683 C193.260,17.683 143.198,67.066 143.198,67.066 C142.492,67.763 141.573,68.110 140.655,68.110 Z" id="path-10" class="cls-8" fill-rule="evenodd"/>
    <path d="M213.606,38.606 C212.684,38.606 211.760,38.256 211.055,37.554 C211.055,37.554 179.469,6.180 179.469,6.180 C178.050,4.772 178.043,2.479 179.452,1.061 C180.862,-0.357 183.157,-0.364 184.572,1.043 C184.572,1.043 216.156,32.417 216.156,32.417 C217.576,33.825 217.584,36.118 216.174,37.536 C215.467,38.249 214.536,38.606 213.606,38.606 Z" id="path-11" class="cls-8" fill-rule="evenodd"/>
    <path d="M126.745,93.507 C125.822,93.507 124.899,93.157 124.194,92.455 C124.194,92.455 112.349,80.691 112.349,80.691 C110.930,79.281 110.923,76.988 112.332,75.570 C113.742,74.153 116.037,74.147 117.451,75.553 C117.451,75.553 129.295,87.317 129.295,87.317 C130.715,88.727 130.722,91.020 129.313,92.438 C128.606,93.150 127.674,93.507 126.745,93.507 Z" id="path-12" class="cls-8" fill-rule="evenodd"/>
    <path d="M110.952,109.194 C110.030,109.194 109.107,108.843 108.402,108.141 C108.402,108.141 96.556,96.378 96.556,96.378 C95.136,94.969 95.129,92.676 96.538,91.257 C97.949,89.840 100.243,89.833 101.658,91.240 C101.658,91.240 113.503,103.005 113.503,103.005 C114.923,104.413 114.930,106.707 113.521,108.123 C112.814,108.836 111.882,109.194 110.952,109.194 Z" id="path-13" class="cls-8" fill-rule="evenodd"/>
    <path d="M95.159,124.881 C94.236,124.881 93.314,124.531 92.608,123.830 C92.608,123.830 80.764,112.064 80.764,112.064 C79.344,110.655 79.337,108.363 80.746,106.944 C82.155,105.527 84.450,105.520 85.865,106.926 C85.865,106.926 97.710,118.692 97.710,118.692 C99.130,120.101 99.137,122.393 97.728,123.812 C97.021,124.523 96.089,124.881 95.159,124.881 Z" id="path-14" class="cls-8" fill-rule="evenodd"/>
    <path d="M152.146,79.522 C151.211,79.522 150.278,79.164 149.569,78.443 C148.165,77.020 148.180,74.730 149.604,73.325 C149.604,73.325 199.663,23.937 199.663,23.937 C201.086,22.532 203.378,22.545 204.782,23.972 C206.186,25.394 206.172,27.686 204.747,29.092 C204.747,29.092 154.688,78.479 154.688,78.479 C153.983,79.175 153.066,79.522 152.146,79.522 Z" id="path-15" class="cls-8" fill-rule="evenodd"/>
  </g>
</svg>
