<svg xmlns="http://www.w3.org/2000/svg" xmlns:xlink="http://www.w3.org/1999/xlink" preserveAspectRatio="xMidYMid" width="217" height="185" viewBox="0 0 217 185">
  <defs>
    <style>

      .cls-3 {
        fill: #ff3a2f;
      }

      .cls-6 {
        fill: #142a3b;
      }

      .cls-7 {
        fill: #2476ff;
      }

      .cls-9 {
        fill: #060606;
        opacity: 0.35;
      }
    </style>
  </defs>
  <g id="group-34svg">
    <path d="M167.135,184.335 C167.135,184.335 181.644,184.335 181.644,184.335 C184.441,184.335 186.710,183.019 186.710,181.395 C186.710,179.770 184.441,178.454 181.644,178.454 C181.644,178.454 180.969,178.454 180.969,178.454 C178.171,178.454 175.903,177.138 175.903,175.513 C175.903,173.889 178.171,172.572 180.969,172.572 C180.969,172.572 212.160,172.572 212.160,172.572 C214.958,172.572 217.226,171.255 217.226,169.632 C217.226,168.007 214.958,166.691 212.160,166.691 C212.160,166.691 174.676,166.691 174.676,166.691 C174.676,166.691 98.060,166.691 98.060,166.691 C95.262,166.691 92.994,168.007 92.994,169.632 C92.994,171.255 95.262,172.572 98.060,172.572 C98.060,172.572 106.716,172.572 106.716,172.572 C109.514,172.572 111.781,173.889 111.781,175.513 C111.781,177.138 109.514,178.454 106.716,178.454 C106.716,178.454 65.518,178.454 65.518,178.454 C62.720,178.454 60.452,179.770 60.452,181.395 C60.452,183.019 62.720,184.335 65.518,184.335 C65.518,184.335 75.255,184.335 75.255,184.335 C75.255,184.335 167.135,184.335 167.135,184.335 Z" id="path-1" class="cls-3" fill-rule="evenodd"/>
    <path d="M70.765,155.841 C70.765,155.841 78.434,155.841 78.434,155.841 C79.912,155.841 81.111,154.792 81.111,153.498 C81.111,152.204 79.912,151.155 78.434,151.155 C78.434,151.155 78.077,151.155 78.077,151.155 C76.599,151.155 75.400,150.106 75.400,148.812 C75.400,147.519 76.599,146.471 78.077,146.471 C78.077,146.471 94.562,146.471 94.562,146.471 C96.040,146.471 97.239,145.421 97.239,144.127 C97.239,142.834 96.040,141.785 94.562,141.785 C94.562,141.785 74.751,141.785 74.751,141.785 C74.751,141.785 34.258,141.785 34.258,141.785 C32.780,141.785 31.581,142.834 31.581,144.127 C31.581,145.421 32.780,146.471 34.258,146.471 C34.258,146.471 38.833,146.471 38.833,146.471 C40.312,146.471 41.510,147.519 41.510,148.812 C41.510,150.106 40.312,151.155 38.833,151.155 C38.833,151.155 17.059,151.155 17.059,151.155 C15.581,151.155 14.382,152.204 14.382,153.498 C14.382,154.792 15.581,155.841 17.059,155.841 C17.059,155.841 22.205,155.841 22.205,155.841 C22.205,155.841 70.765,155.841 70.765,155.841 Z" id="path-2" class="cls-3" fill-rule="evenodd"/>
    <path d="M72.099,166.488 C75.249,166.488 77.803,167.938 77.803,169.728 C77.803,171.518 75.249,172.970 72.099,172.970 C72.099,172.970 54.618,172.970 54.618,172.970 C51.468,172.970 48.914,171.518 48.914,169.728 C48.914,167.938 51.468,166.488 54.618,166.488 C54.618,166.488 72.099,166.488 72.099,166.488 Z" id="path-3" class="cls-3" fill-rule="evenodd"/>
    <path d="M30.441,116.007 C30.441,116.007 30.441,61.283 30.441,61.283 C30.441,30.479 62.019,7.464 90.240,7.464 C118.476,7.464 150.039,30.479 150.039,61.283 C150.039,61.283 150.039,116.007 150.039,116.007 C150.039,116.007 157.514,116.007 157.514,116.007 C157.514,116.007 157.514,61.283 157.514,61.283 C157.514,28.632 126.081,-0.011 90.240,-0.011 C54.406,-0.011 22.965,28.632 22.965,61.283 C22.965,61.283 22.965,116.007 22.965,116.007 C22.965,116.007 30.441,116.007 30.441,116.007 Z" id="path-4" class="cls-6" fill-rule="evenodd"/>
    <path d="M150.039,112.042 C150.039,112.042 150.039,115.779 150.039,115.779 C150.039,115.779 150.039,164.365 150.039,164.365 C150.039,164.365 150.039,168.101 150.039,168.101 C150.039,170.168 151.718,171.838 153.776,171.838 C153.776,171.838 176.201,171.838 176.201,171.838 C178.275,171.838 179.939,170.168 179.939,168.101 C179.939,168.101 179.939,115.779 179.939,115.779 C179.939,113.720 178.275,112.042 176.201,112.042 C176.201,112.042 150.039,112.042 150.039,112.042 Z" id="path-5" class="cls-7" fill-rule="evenodd"/>
    <path d="M3.735,112.042 C1.661,112.042 -0.003,113.720 -0.003,115.779 C-0.003,115.779 -0.003,168.101 -0.003,168.101 C-0.003,170.168 1.661,171.838 3.735,171.838 C3.735,171.838 26.160,171.838 26.160,171.838 C28.218,171.838 29.897,170.168 29.897,168.101 C29.897,168.101 29.897,164.365 29.897,164.365 C29.897,164.365 29.897,115.779 29.897,115.779 C29.897,115.779 29.897,112.042 29.897,112.042 C29.897,112.042 3.735,112.042 3.735,112.042 Z" id="path-6" class="cls-7" fill-rule="evenodd"/>
    <path d="M176.201,112.042 C176.201,112.042 166.892,112.042 166.892,112.042 C166.892,112.042 166.892,161.578 166.892,161.578 C166.892,163.645 165.228,165.315 163.155,165.315 C163.155,165.315 150.039,165.315 150.039,165.315 C150.039,165.315 150.039,168.101 150.039,168.101 C150.039,170.168 151.718,171.838 153.776,171.838 C153.776,171.838 176.201,171.838 176.201,171.838 C178.275,171.838 179.939,170.168 179.939,168.101 C179.939,168.101 179.939,115.779 179.939,115.779 C179.939,113.720 178.275,112.042 176.201,112.042 Z" id="path-7" class="cls-9" fill-rule="evenodd"/>
    <path d="M16.849,112.042 C16.849,112.042 16.849,157.841 16.849,157.841 C16.849,157.841 16.849,161.578 16.849,161.578 C16.849,163.645 15.171,165.315 13.112,165.315 C13.112,165.315 -0.003,165.315 -0.003,165.315 C-0.003,165.315 -0.003,168.101 -0.003,168.101 C-0.003,170.168 1.662,171.838 3.735,171.838 C3.735,171.838 26.160,171.838 26.160,171.838 C28.218,171.838 29.896,170.168 29.896,168.101 C29.896,168.101 29.896,164.365 29.896,164.365 C29.896,164.365 29.896,115.779 29.896,115.779 C29.896,115.779 29.896,112.042 29.896,112.042 C29.896,112.042 16.849,112.042 16.849,112.042 Z" id="path-8" class="cls-9" fill-rule="evenodd"/>
  </g>
</svg>
