<svg xmlns="http://www.w3.org/2000/svg" xmlns:xlink="http://www.w3.org/1999/xlink" preserveAspectRatio="xMidYMid" width="200" height="217" viewBox="0 0 200 217">
  <defs>
    <style>

      .cls-3 {
        fill: #0cb04a;
      }

      .cls-5 {
        fill: #fbb713;
      }

      .cls-6 {
        fill: #2476ff;
      }

      .cls-7 {
        fill: #ff3a2f;
      }

      .cls-8 {
        fill: #000000;
        opacity: 0.35;
      }
    </style>
  </defs>
  <g id="group-146svg">
    <path d="M69.477,189.998 C69.477,189.998 53.043,189.998 53.043,189.998 C49.874,189.998 47.305,191.942 47.305,194.341 C47.305,196.740 49.874,198.683 53.043,198.683 C53.043,198.683 53.808,198.683 53.808,198.683 C56.977,198.683 59.546,200.628 59.546,203.026 C59.546,205.424 56.977,207.368 53.808,207.368 C53.808,207.368 18.479,207.368 18.479,207.368 C15.311,207.368 12.742,209.312 12.742,211.712 C12.742,214.109 15.311,216.052 18.479,216.052 C18.479,216.052 60.935,216.052 60.935,216.052 C60.935,216.052 147.715,216.052 147.715,216.052 C150.883,216.052 153.452,214.109 153.452,211.712 C153.452,209.312 150.883,207.368 147.715,207.368 C147.715,207.368 137.909,207.368 137.909,207.368 C134.741,207.368 132.172,205.424 132.172,203.026 C132.172,200.628 134.741,198.683 137.909,198.683 C137.909,198.683 176.418,198.683 176.418,198.683 C179.587,198.683 182.156,196.740 182.156,194.341 C182.156,191.942 179.587,189.998 176.418,189.998 C176.418,189.998 173.545,189.998 173.545,189.998 C173.545,189.998 69.477,189.998 69.477,189.998 Z" id="path-1" class="cls-3" fill-rule="evenodd"/>
    <path d="M171.401,217.215 C168.745,217.215 166.591,215.132 166.591,212.562 C166.591,209.992 168.745,207.908 171.401,207.908 C171.401,207.908 186.142,207.908 186.142,207.908 C188.798,207.908 190.952,209.992 190.952,212.562 C190.952,215.132 188.798,217.215 186.142,217.215 C186.142,217.215 171.401,217.215 171.401,217.215 Z" id="path-2" class="cls-3" fill-rule="evenodd"/>
    <path d="M86.737,13.005 C86.737,5.823 92.566,-0.006 99.750,-0.006 C106.933,-0.006 112.762,5.823 112.762,13.005 C112.762,13.005 112.762,199.505 112.762,199.505 C112.762,199.505 86.737,199.505 86.737,199.505 C86.737,199.505 86.737,13.005 86.737,13.005 Z" id="path-3" class="cls-5" fill-rule="evenodd"/>
    <path d="M166.979,69.389 C166.979,69.389 17.340,69.389 17.340,69.389 C17.340,69.389 26.014,47.703 26.014,47.703 C26.014,47.703 17.340,26.017 17.340,26.017 C17.340,26.017 166.979,26.017 166.979,26.017 C166.979,26.017 199.509,47.703 199.509,47.703 C199.509,47.703 166.979,69.389 166.979,69.389 Z" id="path-4" class="cls-6" fill-rule="evenodd"/>
    <path d="M32.521,86.739 C32.521,86.739 182.160,86.739 182.160,86.739 C182.160,86.739 173.485,108.424 173.485,108.424 C173.485,108.424 182.160,130.111 182.160,130.111 C182.160,130.111 32.521,130.111 32.521,130.111 C32.521,130.111 -0.010,108.424 -0.010,108.424 C-0.010,108.424 32.521,86.739 32.521,86.739 Z" id="path-5" class="cls-7" fill-rule="evenodd"/>
    <path d="M166.979,26.017 C166.979,26.017 17.341,26.017 17.341,26.017 C17.341,26.017 18.936,30.008 18.936,30.008 C18.936,30.008 158.998,30.008 158.998,30.008 C158.998,30.008 191.529,51.694 191.529,51.694 C191.529,51.694 164.983,69.389 164.983,69.389 C164.983,69.389 166.979,69.389 166.979,69.389 C166.979,69.389 199.509,47.703 199.509,47.703 C199.509,47.703 166.979,26.017 166.979,26.017 Z" id="path-6" class="cls-8" fill-rule="evenodd"/>
    <path d="M182.160,86.739 C182.160,86.739 32.520,86.739 32.520,86.739 C32.520,86.739 26.535,90.729 26.535,90.729 C26.535,90.729 174.178,90.729 174.178,90.729 C174.178,90.729 165.504,112.415 165.504,112.415 C165.504,112.415 172.583,130.111 172.583,130.111 C172.583,130.111 182.160,130.111 182.160,130.111 C182.160,130.111 173.485,108.425 173.485,108.425 C173.485,108.425 182.160,86.739 182.160,86.739 Z" id="path-7" class="cls-8" fill-rule="evenodd"/>
  </g>
</svg>
