<svg xmlns="http://www.w3.org/2000/svg" xmlns:xlink="http://www.w3.org/1999/xlink" preserveAspectRatio="xMidYMid" width="218" height="168" viewBox="0 0 218 168">
  <defs>
    <style>

      .cls-3 {
        fill: #ff3a2f;
      }

      .cls-5 {
        fill: #2476ff;
      }

      .cls-6 {
        fill: #000000;
        opacity: 0.35;
      }
    </style>
  </defs>
  <g id="group-125svg">
    <path d="M44.704,145.925 C44.704,145.925 31.753,145.925 31.753,145.925 C29.256,145.925 27.232,147.457 27.232,149.347 C27.232,151.237 29.256,152.769 31.753,152.769 C31.753,152.769 32.356,152.769 32.356,152.769 C34.853,152.769 36.877,154.301 36.877,156.191 C36.877,158.081 34.853,159.612 32.356,159.612 C32.356,159.612 4.516,159.612 4.516,159.612 C2.019,159.612 -0.005,161.145 -0.005,163.034 C-0.005,164.925 2.019,166.455 4.516,166.455 C4.516,166.455 37.972,166.455 37.972,166.455 C37.972,166.455 106.357,166.455 106.357,166.455 C108.854,166.455 110.878,164.925 110.878,163.034 C110.878,161.145 108.854,159.612 106.357,159.612 C106.357,159.612 98.630,159.612 98.630,159.612 C96.133,159.612 94.109,158.081 94.109,156.191 C94.109,154.301 96.133,152.769 98.630,152.769 C98.630,152.769 128.976,152.769 128.976,152.769 C131.473,152.769 133.497,151.237 133.497,149.347 C133.497,147.457 131.473,145.925 128.976,145.925 C128.976,145.925 126.711,145.925 126.711,145.925 C126.711,145.925 44.704,145.925 44.704,145.925 Z" id="path-1" class="cls-3" fill-rule="evenodd"/>
    <path d="M125.022,167.372 C122.929,167.372 121.232,165.731 121.232,163.705 C121.232,161.681 122.929,160.039 125.022,160.039 C125.022,160.039 136.638,160.039 136.638,160.039 C138.732,160.039 140.429,161.681 140.429,163.705 C140.429,165.731 138.732,167.372 136.638,167.372 C136.638,167.372 125.022,167.372 125.022,167.372 Z" id="path-2" class="cls-3" fill-rule="evenodd"/>
    <path d="M176.610,148.905 C176.610,148.905 205.179,148.905 205.179,148.905 C210.633,148.905 217.223,144.377 217.223,138.752 C217.223,138.752 217.223,10.149 217.223,10.149 C217.223,4.525 210.633,-0.003 205.179,-0.003 C205.179,-0.003 76.573,-0.003 76.573,-0.003 C70.471,-0.003 68.310,5.464 68.310,10.149 C68.310,10.149 68.310,138.752 68.310,138.752 C68.310,143.438 70.471,148.905 76.573,148.905 C76.573,148.905 149.535,148.905 149.535,148.905 C149.535,148.905 149.535,94.757 149.535,94.757 C149.535,94.757 125.844,94.757 125.844,94.757 C123.974,94.757 122.460,93.243 122.460,91.374 C122.460,91.374 122.460,71.068 122.460,71.068 C122.460,69.196 123.974,67.683 125.844,67.683 C125.844,67.683 149.535,67.683 149.535,67.683 C149.535,67.683 149.535,43.993 149.535,43.993 C149.535,27.481 164.170,13.534 181.489,13.534 C181.489,13.534 200.301,13.534 200.301,13.534 C202.173,13.534 203.686,15.048 203.686,16.919 C203.686,16.919 203.686,37.225 203.686,37.225 C203.686,39.095 202.173,40.608 200.301,40.608 C200.301,40.608 188.258,40.608 188.258,40.608 C182.533,40.608 176.610,43.775 176.610,49.069 C176.610,49.069 176.610,67.683 176.610,67.683 C176.610,67.683 198.411,67.683 198.411,67.683 C199.501,67.683 200.519,68.205 201.154,69.091 C201.795,69.970 201.967,71.108 201.623,72.138 C201.623,72.138 194.855,92.443 194.855,92.443 C194.392,93.826 193.096,94.757 191.642,94.757 C191.642,94.757 176.610,94.757 176.610,94.757 C176.610,94.757 176.610,148.905 176.610,148.905 Z" id="path-3" class="cls-5" fill-rule="evenodd"/>
    <path d="M191.913,64.434 C191.913,64.434 176.610,64.434 176.610,64.434 C176.610,64.434 176.610,67.683 176.610,67.683 C176.610,67.683 195.273,67.683 195.273,67.683 C195.246,67.028 195.052,66.385 194.656,65.842 C194.021,64.957 193.003,64.434 191.913,64.434 Z" id="path-4" class="cls-6" fill-rule="evenodd"/>
    <path d="M143.038,145.656 C143.038,145.656 70.212,145.656 70.212,145.656 C71.517,147.568 73.561,148.905 76.573,148.905 C76.573,148.905 149.535,148.905 149.535,148.905 C149.535,148.905 149.535,94.757 149.535,94.757 C149.535,94.757 143.038,94.757 143.038,94.757 C143.038,94.757 143.038,145.656 143.038,145.656 Z" id="path-5" class="cls-6" fill-rule="evenodd"/>
    <path d="M197.160,13.534 C197.085,11.731 195.626,10.285 193.803,10.285 C193.803,10.285 174.991,10.285 174.991,10.285 C157.672,10.285 143.038,24.232 143.038,40.744 C143.038,40.744 143.038,64.434 143.038,64.434 C143.038,64.434 119.346,64.434 119.346,64.434 C117.476,64.434 115.961,65.947 115.961,67.819 C115.961,67.819 115.961,88.124 115.961,88.124 C115.961,89.994 117.476,91.509 119.346,91.509 C119.346,91.509 122.488,91.509 122.488,91.509 C122.486,91.461 122.460,91.422 122.460,91.374 C122.460,91.374 122.460,71.068 122.460,71.068 C122.460,69.196 123.974,67.683 125.845,67.683 C125.845,67.683 149.535,67.683 149.535,67.683 C149.535,67.683 149.535,43.993 149.535,43.993 C149.535,27.481 164.170,13.534 181.489,13.534 C181.489,13.534 197.160,13.534 197.160,13.534 Z" id="path-6" class="cls-6" fill-rule="evenodd"/>
    <path d="M207.272,0.205 C209.304,1.994 210.725,4.318 210.725,6.900 C210.725,6.900 210.725,135.505 210.725,135.505 C210.725,141.129 204.135,145.656 198.681,145.656 C198.681,145.656 176.610,145.656 176.610,145.656 C176.610,145.656 176.610,148.905 176.610,148.905 C176.610,148.905 205.179,148.905 205.179,148.905 C210.633,148.905 217.223,144.377 217.223,138.752 C217.223,138.752 217.223,10.149 217.223,10.149 C217.223,5.231 212.184,1.151 207.272,0.205 Z" id="path-7" class="cls-6" fill-rule="evenodd"/>
  </g>
</svg>
