<svg xmlns="http://www.w3.org/2000/svg" xmlns:xlink="http://www.w3.org/1999/xlink" preserveAspectRatio="xMidYMid" width="218" height="195" viewBox="0 0 218 195">
  <defs>
    <style>

      .cls-3 {
        fill: #ff3a2f;
      }

      .cls-5 {
        fill: #0cb04a;
      }

      .cls-7 {
        fill: #000000;
        opacity: 0.35;
      }
    </style>
  </defs>
  <g id="group-144svg">
    <path d="M161.064,193.770 C161.064,193.770 177.335,193.770 177.335,193.770 C180.472,193.770 183.016,191.846 183.016,189.472 C183.016,187.096 180.472,185.172 177.335,185.172 C177.335,185.172 176.578,185.172 176.578,185.172 C173.440,185.172 170.897,183.247 170.897,180.872 C170.897,178.498 173.440,176.573 176.578,176.573 C176.578,176.573 211.556,176.573 211.556,176.573 C214.694,176.573 217.237,174.650 217.237,172.274 C217.237,169.900 214.694,167.976 211.556,167.976 C211.556,167.976 169.521,167.976 169.521,167.976 C169.521,167.976 83.602,167.976 83.602,167.976 C80.464,167.976 77.922,169.900 77.922,172.274 C77.922,174.650 80.464,176.573 83.602,176.573 C83.602,176.573 93.309,176.573 93.309,176.573 C96.447,176.573 98.990,178.498 98.990,180.872 C98.990,183.247 96.447,185.172 93.309,185.172 C93.309,185.172 55.182,185.172 55.182,185.172 C52.045,185.172 49.502,187.096 49.502,189.472 C49.502,191.846 52.045,193.770 55.182,193.770 C55.182,193.770 58.028,193.770 58.028,193.770 C58.028,193.770 161.064,193.770 161.064,193.770 Z" id="path-1" class="cls-3" fill-rule="evenodd"/>
    <path d="M60.150,166.824 C62.779,166.824 64.912,168.887 64.912,171.432 C64.912,173.977 62.779,176.038 60.150,176.038 C60.150,176.038 45.555,176.038 45.555,176.038 C42.925,176.038 40.793,173.977 40.793,171.432 C40.793,168.887 42.925,166.824 45.555,166.824 C45.555,166.824 60.150,166.824 60.150,166.824 Z" id="path-2" class="cls-3" fill-rule="evenodd"/>
    <path d="M61.699,0.001 C61.699,0.001 0.008,15.424 0.008,15.424 C0.008,15.424 0.008,161.934 0.008,161.934 C0.008,161.934 61.699,146.511 61.699,146.511 C61.699,146.511 115.678,177.355 115.678,177.355 C115.678,177.355 177.369,161.934 177.369,161.934 C177.369,161.934 177.369,15.424 177.369,15.424 C177.369,15.424 115.678,30.846 115.678,30.846 C115.678,30.846 61.699,0.001 61.699,0.001 C61.699,0.001 61.699,0.001 61.699,0.001 Z" id="path-3" class="cls-5" fill-rule="evenodd"/>
    <path d="M115.678,177.355 C115.678,177.355 115.678,30.846 115.678,30.846 C115.678,30.846 61.699,0.001 61.699,0.001 C61.699,0.001 61.699,146.511 61.699,146.511 C61.699,146.511 115.678,177.355 115.678,177.355 Z" id="path-4" class="cls-5" fill-rule="evenodd"/>
    <path d="M115.678,177.355 C115.678,177.355 115.678,30.846 115.678,30.846 C115.678,30.846 61.699,0.001 61.699,0.001 C61.699,0.001 61.699,146.511 61.699,146.511 C61.699,146.511 115.678,177.355 115.678,177.355 Z" id="path-5" class="cls-7" fill-rule="evenodd"/>
  </g>
</svg>
