<svg xmlns="http://www.w3.org/2000/svg" xmlns:xlink="http://www.w3.org/1999/xlink" preserveAspectRatio="xMidYMid" width="217" height="203" viewBox="0 0 217 203">
  <defs>
    <style>

      .cls-3 {
        fill: #ff3a2f;
      }

      .cls-7 {
        fill: #0cb04a;
      }

      .cls-8 {
        fill: #000000;
        opacity: 0.35;
      }

      .cls-9 {
        fill: #fbb713;
      }

      .cls-10 {
        fill: #ededed;
      }

      .cls-15 {
        fill: #087330;
      }
    </style>
  </defs>
  <g id="group-67svg">
    <path d="M49.954,108.295 C49.954,108.295 56.945,108.295 56.945,108.295 C58.294,108.295 59.386,109.621 59.386,111.259 C59.386,112.894 58.294,114.220 56.945,114.220 C56.945,114.220 56.620,114.220 56.620,114.220 C55.272,114.220 54.179,115.547 54.179,117.183 C54.179,118.819 55.272,120.147 56.620,120.147 C56.620,120.147 71.649,120.147 71.649,120.147 C72.997,120.147 74.089,121.472 74.089,123.109 C74.089,124.745 72.997,126.072 71.649,126.072 C71.649,126.072 53.588,126.072 53.588,126.072 C53.588,126.072 16.672,126.072 16.672,126.072 C15.324,126.072 14.232,124.745 14.232,123.109 C14.232,121.472 15.324,120.147 16.672,120.147 C16.672,120.147 20.843,120.147 20.843,120.147 C22.191,120.147 23.284,118.819 23.284,117.183 C23.284,115.547 22.191,114.220 20.843,114.220 C20.843,114.220 4.462,114.220 4.462,114.220 C3.114,114.220 2.021,112.894 2.021,111.259 C2.021,109.621 3.114,108.295 4.462,108.295 C4.462,108.295 5.684,108.295 5.684,108.295 C5.684,108.295 49.954,108.295 49.954,108.295 Z" id="path-1" class="cls-3" fill-rule="evenodd"/>
    <path d="M6.980,126.338 C7.929,126.338 8.699,125.400 8.699,124.243 C8.699,123.085 7.929,122.146 6.980,122.146 C6.980,122.146 1.711,122.146 1.711,122.146 C0.762,122.146 -0.008,123.085 -0.008,124.243 C-0.008,125.400 0.762,126.338 1.711,126.338 C1.711,126.338 6.980,126.338 6.980,126.338 Z" id="path-2" class="cls-3" fill-rule="evenodd"/>
    <path d="M93.553,166.736 C93.553,166.736 77.183,166.736 77.183,166.736 C74.027,166.736 71.469,169.351 71.469,172.576 C71.469,175.800 74.027,178.416 77.183,178.416 C77.183,178.416 77.945,178.416 77.945,178.416 C81.102,178.416 83.660,181.030 83.660,184.255 C83.660,187.480 81.102,190.094 77.945,190.094 C77.945,190.094 42.755,190.094 42.755,190.094 C39.599,190.094 37.041,192.708 37.041,195.933 C37.041,199.158 39.599,201.774 42.755,201.774 C42.755,201.774 85.045,201.774 85.045,201.774 C85.045,201.774 171.483,201.774 171.483,201.774 C174.639,201.774 177.198,199.158 177.198,195.933 C177.198,192.708 174.639,190.094 171.483,190.094 C171.483,190.094 161.717,190.094 161.717,190.094 C158.560,190.094 156.002,187.480 156.002,184.255 C156.002,181.030 158.560,178.416 161.717,178.416 C161.717,178.416 200.074,178.416 200.074,178.416 C203.231,178.416 205.789,175.800 205.789,172.576 C205.789,169.351 203.231,166.736 200.074,166.736 C200.074,166.736 197.211,166.736 197.211,166.736 C197.211,166.736 93.553,166.736 93.553,166.736 Z" id="path-3" class="cls-3" fill-rule="evenodd"/>
    <path d="M194.179,202.299 C191.956,202.299 190.153,200.448 190.153,198.168 C190.153,195.886 191.956,194.037 194.179,194.037 C194.179,194.037 206.515,194.037 206.515,194.037 C208.738,194.037 210.540,195.886 210.540,198.168 C210.540,200.448 208.738,202.299 206.515,202.299 C206.515,202.299 194.179,202.299 194.179,202.299 Z" id="path-4" class="cls-3" fill-rule="evenodd"/>
    <path d="M198.496,67.699 C198.496,67.699 124.706,108.135 124.706,108.135 C100.683,121.299 71.334,103.916 71.334,76.523 C71.334,76.523 71.334,76.522 71.334,76.522 C71.334,63.356 78.513,51.238 90.059,44.911 C90.059,44.911 163.848,4.476 163.848,4.476 C187.872,-8.688 217.221,8.695 217.221,36.087 C217.221,36.087 217.221,36.087 217.221,36.087 C217.221,49.254 210.042,61.373 198.496,67.699 Z" id="path-5" class="cls-7" fill-rule="evenodd"/>
    <path d="M195.124,2.870 C201.581,9.248 205.734,18.130 205.734,28.430 C205.734,28.430 205.734,28.430 205.734,28.430 C205.734,41.597 198.556,53.715 187.010,60.042 C187.010,60.042 113.220,100.478 113.220,100.478 C102.854,106.157 91.507,106.128 81.944,102.083 C92.657,112.666 109.717,116.348 124.706,108.135 C124.706,108.135 198.496,67.699 198.496,67.699 C210.042,61.373 217.220,49.254 217.220,36.088 C217.220,36.088 217.220,36.088 217.220,36.088 C217.220,20.514 207.725,8.198 195.124,2.870 Z" id="path-6" class="cls-8" fill-rule="evenodd"/>
    <path d="M139.366,77.994 C139.366,96.779 124.136,112.009 105.350,112.009 C86.564,112.009 71.334,96.779 71.334,77.994 C71.334,59.209 86.564,43.980 105.350,43.980 C124.136,43.980 139.366,59.209 139.366,77.994 Z" id="path-7" class="cls-9" fill-rule="evenodd"/>
    <path d="M125.586,77.994 C125.586,89.169 116.526,98.229 105.350,98.229 C94.174,98.229 85.114,89.169 85.114,77.994 C85.114,66.818 94.174,57.758 105.350,57.758 C116.526,57.758 125.586,66.818 125.586,77.994 Z" id="path-8" class="cls-10" fill-rule="evenodd"/>
    <path d="M113.007,57.758 C111.696,57.758 110.421,57.906 109.178,58.144 C118.520,59.936 125.586,68.129 125.586,77.994 C125.586,87.857 118.520,96.051 109.178,97.844 C110.421,98.082 111.696,98.229 113.007,98.229 C124.184,98.229 133.243,89.169 133.243,77.994 C133.243,66.817 124.184,57.758 113.007,57.758 Z" id="path-9" class="cls-8" fill-rule="evenodd"/>
    <path d="M164.224,144.779 C164.224,154.342 144.911,162.092 121.088,162.092 C97.264,162.092 77.952,154.342 77.952,144.779 C77.952,135.216 97.264,127.466 121.088,127.466 C144.911,127.466 164.224,135.216 164.224,144.779 Z" id="path-10" class="cls-9" fill-rule="evenodd"/>
    <path d="M153.328,144.779 C153.328,151.927 138.893,157.720 121.088,157.720 C103.282,157.720 88.848,151.927 88.848,144.779 C88.848,137.632 103.282,131.838 121.088,131.838 C138.893,131.838 153.328,137.632 153.328,144.779 Z" id="path-11" class="cls-10" fill-rule="evenodd"/>
    <path d="M121.088,126.596 C96.068,126.596 75.786,134.737 75.786,144.779 C75.786,144.779 75.786,161.225 75.786,161.225 C76.641,182.274 167.304,182.820 166.390,161.225 C166.390,161.225 166.390,144.779 166.390,144.779 C166.390,134.737 146.107,126.596 121.088,126.596 ZM121.088,162.093 C97.264,162.093 77.952,154.341 77.952,144.779 C77.952,135.216 97.264,127.466 121.088,127.466 C144.911,127.466 164.224,135.216 164.224,144.779 C164.224,154.341 144.911,162.093 121.088,162.093 Z" id="path-12" class="cls-7" fill-rule="evenodd"/>
    <path d="M121.088,126.596 C96.068,126.596 75.786,134.737 75.786,144.779 C75.786,144.779 75.786,161.225 75.786,161.225 C76.641,182.274 167.304,182.820 166.390,161.225 C166.390,161.225 166.390,144.779 166.390,144.779 C166.390,134.737 146.107,126.596 121.088,126.596 ZM121.088,162.093 C97.264,162.093 77.952,154.341 77.952,144.779 C77.952,135.216 97.264,127.466 121.088,127.466 C144.911,127.466 164.224,135.216 164.224,144.779 C164.224,154.341 144.911,162.093 121.088,162.093 Z" id="path-13" class="cls-15" fill-rule="evenodd"/>
    <path d="M66.720,87.596 C66.720,93.723 54.347,98.690 39.083,98.690 C23.819,98.690 11.445,93.723 11.445,87.596 C11.445,81.469 23.819,76.504 39.083,76.504 C54.347,76.504 66.720,81.469 66.720,87.596 Z" id="path-14" class="cls-9" fill-rule="evenodd"/>
    <path d="M59.739,87.596 C59.739,92.175 50.491,95.888 39.083,95.888 C27.674,95.888 18.426,92.175 18.426,87.596 C18.426,83.017 27.674,79.305 39.083,79.305 C50.491,79.305 59.739,83.017 59.739,87.596 Z" id="path-15" class="cls-10" fill-rule="evenodd"/>
    <path d="M39.083,75.945 C23.052,75.945 10.057,81.162 10.057,87.596 C10.057,87.596 10.057,98.133 10.057,98.133 C10.605,111.619 68.695,111.970 68.109,98.133 C68.109,98.133 68.109,87.596 68.109,87.596 C68.109,81.162 55.113,75.945 39.083,75.945 ZM39.083,98.690 C23.819,98.690 11.445,93.723 11.445,87.596 C11.445,81.469 23.819,76.504 39.083,76.504 C54.347,76.504 66.720,81.469 66.720,87.596 C66.720,93.723 54.347,98.690 39.083,98.690 Z" id="path-16" class="cls-7" fill-rule="evenodd"/>
    <path d="M39.083,75.945 C23.052,75.945 10.057,81.162 10.057,87.596 C10.057,87.596 10.057,98.133 10.057,98.133 C10.605,111.619 68.695,111.970 68.109,98.133 C68.109,98.133 68.109,87.596 68.109,87.596 C68.109,81.162 55.113,75.945 39.083,75.945 ZM39.083,98.690 C23.819,98.690 11.445,93.723 11.445,87.596 C11.445,81.469 23.819,76.504 39.083,76.504 C54.347,76.504 66.720,81.469 66.720,87.596 C66.720,93.723 54.347,98.690 39.083,98.690 Z" id="path-17" class="cls-15" fill-rule="evenodd"/>
  </g>
</svg>
