<svg xmlns="http://www.w3.org/2000/svg" xmlns:xlink="http://www.w3.org/1999/xlink" preserveAspectRatio="xMidYMid" width="218" height="170" viewBox="0 0 218 170">
  <defs>
    <style>

      .cls-3 {
        fill: #2476ff;
      }

      .cls-6 {
        fill: #fbb713;
      }

      .cls-7 {
        fill: #000000;
        opacity: 0.35;
      }
    </style>
  </defs>
  <g id="group-80svg">
    <path d="M58.269,142.197 C58.269,142.197 41.949,142.197 41.949,142.197 C38.804,142.197 36.253,144.127 36.253,146.508 C36.253,148.890 38.804,150.820 41.949,150.820 C41.949,150.820 42.709,150.820 42.709,150.820 C45.856,150.820 48.406,152.751 48.406,155.132 C48.406,157.514 45.856,159.444 42.709,159.444 C42.709,159.444 7.629,159.444 7.629,159.444 C4.482,159.444 1.931,161.375 1.931,163.757 C1.931,166.138 4.482,168.067 7.629,168.067 C7.629,168.067 49.787,168.067 49.787,168.067 C49.787,168.067 135.957,168.067 135.957,168.067 C139.103,168.067 141.654,166.138 141.654,163.757 C141.654,161.375 139.103,159.444 135.957,159.444 C135.957,159.444 126.221,159.444 126.221,159.444 C123.075,159.444 120.524,157.514 120.524,155.132 C120.524,152.751 123.075,150.820 126.221,150.820 C126.221,150.820 164.460,150.820 164.460,150.820 C167.606,150.820 170.157,148.890 170.157,146.508 C170.157,144.127 167.606,142.197 164.460,142.197 C164.460,142.197 161.606,142.197 161.606,142.197 C161.606,142.197 58.269,142.197 58.269,142.197 Z" id="path-1" class="cls-3" fill-rule="evenodd"/>
    <path d="M159.478,169.223 C156.840,169.223 154.702,167.154 154.702,164.602 C154.702,162.050 156.840,159.980 159.478,159.980 C159.478,159.980 174.115,159.980 174.115,159.980 C176.753,159.980 178.891,162.050 178.891,164.602 C178.891,167.154 176.753,169.223 174.115,169.223 C174.115,169.223 159.478,169.223 159.478,169.223 Z" id="path-2" class="cls-3" fill-rule="evenodd"/>
    <path d="M34.215,128.831 C34.215,128.831 38.869,128.831 38.869,128.831 C39.767,128.831 40.494,128.033 40.494,127.049 C40.494,126.066 39.767,125.268 38.869,125.268 C38.869,125.268 38.653,125.268 38.653,125.268 C37.755,125.268 37.028,124.469 37.028,123.486 C37.028,122.502 37.755,121.704 38.653,121.704 C38.653,121.704 48.658,121.704 48.658,121.704 C49.555,121.704 50.283,120.906 50.283,119.922 C50.283,118.938 49.555,118.140 48.658,118.140 C48.658,118.140 36.635,118.140 36.635,118.140 C36.635,118.140 12.059,118.140 12.059,118.140 C11.161,118.140 10.433,118.938 10.433,119.922 C10.433,120.906 11.161,121.704 12.059,121.704 C12.059,121.704 14.835,121.704 14.835,121.704 C15.732,121.704 16.460,122.502 16.460,123.486 C16.460,124.469 15.732,125.268 14.835,125.268 C14.835,125.268 1.620,125.268 1.620,125.268 C0.722,125.268 -0.005,126.066 -0.005,127.049 C-0.005,128.033 0.722,128.831 1.620,128.831 C1.620,128.831 4.743,128.831 4.743,128.831 C4.743,128.831 34.215,128.831 34.215,128.831 Z" id="path-3" class="cls-3" fill-rule="evenodd"/>
    <path d="M199.134,36.131 C199.134,36.131 93.795,141.466 93.795,141.466 C93.795,141.466 75.737,123.407 75.737,123.407 C75.737,123.407 181.076,18.073 181.076,18.073 C181.076,18.073 199.134,36.131 199.134,36.131 Z" id="path-4" class="cls-6" fill-rule="evenodd"/>
    <path d="M181.076,18.073 C181.076,18.073 176.724,22.425 176.724,22.425 C176.724,22.425 190.430,36.130 190.430,36.130 C190.430,36.130 89.443,137.113 89.443,137.113 C89.443,137.113 93.795,141.466 93.795,141.466 C93.795,141.466 199.134,36.130 199.134,36.130 C199.134,36.130 181.076,18.073 181.076,18.073 Z" id="path-5" class="cls-7" fill-rule="evenodd"/>
    <path d="M101.715,133.051 C98.190,129.527 93.573,127.762 88.953,127.755 C88.946,123.135 87.181,118.518 83.657,114.993 C76.592,107.929 65.138,107.929 58.074,114.993 C51.010,122.058 51.010,133.512 58.074,140.576 C61.599,144.099 66.216,145.864 70.835,145.872 C70.843,150.491 72.608,155.108 76.132,158.632 C83.196,165.696 94.650,165.696 101.715,158.632 C108.778,151.568 108.778,140.115 101.715,133.051 Z" id="path-6" class="cls-6" fill-rule="evenodd"/>
    <path d="M101.715,149.928 C94.650,156.992 83.196,156.992 76.132,149.928 C72.608,146.404 70.843,141.787 70.835,137.168 C66.216,137.161 61.599,135.396 58.074,131.871 C55.659,129.456 54.090,126.524 53.326,123.432 C51.856,129.380 53.425,135.926 58.074,140.576 C61.599,144.099 66.216,145.864 70.835,145.872 C70.843,150.491 72.608,155.108 76.132,158.632 C83.196,165.696 94.650,165.696 101.715,158.632 C106.363,153.984 107.932,147.438 106.463,141.490 C105.699,144.581 104.130,147.513 101.715,149.928 Z" id="path-7" class="cls-7" fill-rule="evenodd"/>
    <path d="M211.925,23.339 C208.400,19.815 203.783,18.050 199.164,18.043 C199.156,13.423 197.391,8.807 193.867,5.282 C186.802,-1.782 175.349,-1.782 168.285,5.282 C161.220,12.346 161.220,23.799 168.285,30.863 C171.809,34.387 176.426,36.153 181.046,36.160 C181.054,40.780 182.819,45.397 186.343,48.920 C193.407,55.985 204.860,55.985 211.925,48.920 C218.989,41.856 218.989,30.403 211.925,23.339 Z" id="path-8" class="cls-6" fill-rule="evenodd"/>
    <path d="M211.925,43.118 C204.860,50.182 193.407,50.182 186.343,43.118 C182.819,39.594 181.054,34.977 181.046,30.359 C176.426,30.350 171.809,28.585 168.285,25.060 C165.493,22.270 163.823,18.792 163.238,15.171 C162.342,20.713 164.011,26.591 168.285,30.863 C171.809,34.387 176.426,36.153 181.046,36.160 C181.054,40.780 182.819,45.397 186.343,48.920 C193.407,55.985 204.860,55.985 211.925,48.920 C216.198,44.647 217.868,38.771 216.972,33.228 C216.386,36.849 214.716,40.328 211.925,43.118 Z" id="path-9" class="cls-7" fill-rule="evenodd"/>
  </g>
</svg>
