<svg xmlns="http://www.w3.org/2000/svg" xmlns:xlink="http://www.w3.org/1999/xlink" preserveAspectRatio="xMidYMid" width="217" height="171" viewBox="0 0 217 171">
  <defs>
    <style>

      .cls-3 {
        fill: #0cb04a;
      }

      .cls-5 {
        fill: #2476ff;
      }

      .cls-6 {
        fill: #ededed;
      }

      .cls-7 {
        fill: #ff3a2f;
      }

      .cls-8 {
        fill: #000000;
        opacity: 0.35;
      }

      .cls-9 {
        fill: #142a3b;
      }
    </style>
  </defs>
  <g id="group-59svg">
    <path d="M72.652,139.820 C72.652,139.820 53.092,139.820 53.092,139.820 C49.322,139.820 46.265,141.994 46.265,144.674 C46.265,147.354 49.322,149.527 53.092,149.527 C53.092,149.527 54.003,149.527 54.003,149.527 C57.774,149.527 60.831,151.700 60.831,154.381 C60.831,157.063 57.774,159.236 54.003,159.236 C54.003,159.236 11.957,159.236 11.957,159.236 C8.186,159.236 5.129,161.410 5.129,164.090 C5.129,166.770 8.186,168.944 11.957,168.944 C11.957,168.944 62.486,168.944 62.486,168.944 C62.486,168.944 165.766,168.944 165.766,168.944 C169.538,168.944 172.595,166.770 172.595,164.090 C172.595,161.410 169.538,159.236 165.766,159.236 C165.766,159.236 154.097,159.236 154.097,159.236 C150.326,159.236 147.269,157.063 147.269,154.381 C147.269,151.700 150.326,149.527 154.097,149.527 C154.097,149.527 199.928,149.527 199.928,149.527 C203.700,149.527 206.757,147.354 206.757,144.674 C206.757,141.994 203.700,139.820 199.928,139.820 C199.928,139.820 196.508,139.820 196.508,139.820 C196.508,139.820 72.652,139.820 72.652,139.820 Z" id="path-1" class="cls-3" fill-rule="evenodd"/>
    <path d="M193.958,170.244 C190.796,170.244 188.233,167.914 188.233,165.041 C188.233,162.169 190.796,159.840 193.958,159.840 C193.958,159.840 211.501,159.840 211.501,159.840 C214.663,159.840 217.225,162.169 217.225,165.041 C217.225,167.914 214.663,170.244 211.501,170.244 C211.501,170.244 193.958,170.244 193.958,170.244 Z" id="path-2" class="cls-3" fill-rule="evenodd"/>
    <path d="M42.493,64.198 C42.493,64.198 42.493,64.105 42.493,64.105 C42.493,64.105 104.018,64.105 104.018,64.105 C104.018,64.105 104.018,11.752 104.018,11.752 C104.018,11.752 179.133,11.752 179.133,11.752 C179.133,11.752 179.133,125.924 179.133,125.924 C179.133,125.924 161.677,125.924 161.677,125.924 C161.677,125.924 104.018,125.924 104.018,125.924 C104.018,125.924 76.825,125.924 76.825,125.924 C76.825,125.924 42.493,125.924 42.493,125.924 C42.493,125.924 11.742,125.924 11.742,125.924 C7.791,119.653 5.474,112.185 5.474,104.147 C5.474,82.656 21.896,65.170 42.493,64.198 Z" id="path-3" class="cls-5" fill-rule="evenodd"/>
    <path d="M14.649,105.313 C12.650,105.313 11.028,103.691 11.028,101.693 C11.028,84.153 24.253,69.753 41.232,68.675 C43.335,68.247 45.543,69.955 45.543,72.192 C45.543,72.192 45.543,75.647 45.543,75.647 C45.543,75.647 42.094,75.878 42.094,75.878 C28.735,76.507 18.270,87.848 18.270,101.693 C18.270,103.691 16.648,105.313 14.649,105.313 Z" id="path-4" class="cls-6" fill-rule="evenodd"/>
    <path d="M138.131,125.924 C138.401,104.882 155.522,87.902 176.630,87.902 C177.475,87.902 178.302,87.974 179.133,88.028 C179.133,88.028 179.133,125.924 179.133,125.924 C179.133,125.924 161.677,125.924 161.677,125.924 C161.677,125.924 138.131,125.924 138.131,125.924 Z" id="path-5" class="cls-7" fill-rule="evenodd"/>
    <path d="M28.809,108.820 C28.809,108.820 63.142,108.820 63.142,108.820 C63.142,108.820 90.334,108.820 90.334,108.820 C90.334,108.820 154.835,108.820 154.835,108.820 C154.835,108.820 154.835,108.820 154.835,108.820 C164.476,108.820 165.450,107.846 165.450,98.205 C165.450,98.205 165.450,31.363 165.450,31.363 C165.450,31.363 104.018,20.766 104.018,20.766 C104.018,20.766 179.133,20.766 179.133,20.766 C179.133,20.766 179.133,125.924 179.133,125.924 C179.133,125.924 161.677,125.924 161.677,125.924 C161.677,125.924 104.018,125.924 104.018,125.924 C104.018,125.924 76.825,125.924 76.825,125.924 C76.825,125.924 42.493,125.924 42.493,125.924 C42.493,125.924 11.742,125.924 11.742,125.924 C8.570,120.889 6.476,115.074 5.764,108.820 C5.764,108.820 28.809,108.820 28.809,108.820 Z" id="path-6" class="cls-8" fill-rule="evenodd"/>
    <path d="M188.148,120.916 C188.148,120.916 188.148,146.956 188.148,146.956 C188.148,146.956 167.115,146.956 167.115,146.956 C167.115,146.956 167.115,139.946 167.115,139.946 C167.115,139.946 157.100,139.946 157.100,139.946 C157.100,139.946 157.100,146.956 157.100,146.956 C157.100,146.956 139.072,146.956 139.072,146.956 C139.072,146.956 139.072,139.946 139.072,139.946 C139.072,139.946 129.056,139.946 129.056,139.946 C129.056,139.946 129.056,146.956 129.056,146.956 C129.056,146.956 111.028,146.956 111.028,146.956 C111.028,146.956 111.028,139.946 111.028,139.946 C111.028,139.946 101.013,139.946 101.013,139.946 C101.013,139.946 101.013,146.956 101.013,146.956 C101.013,146.956 82.986,146.956 82.986,146.956 C82.986,146.956 82.986,139.946 82.986,139.946 C82.986,139.946 72.970,139.946 72.970,139.946 C72.970,139.946 72.970,146.956 72.970,146.956 C72.970,146.956 54.942,146.956 54.942,146.956 C54.942,146.956 54.942,139.946 54.942,139.946 C54.942,139.946 44.927,139.946 44.927,139.946 C44.927,139.946 44.927,146.956 44.927,146.956 C44.927,146.956 26.899,146.956 26.899,146.956 C26.899,146.956 26.899,139.946 26.899,139.946 C26.899,139.946 16.883,139.946 16.883,139.946 C16.883,139.946 16.883,146.956 16.883,146.956 C16.883,146.956 -0.003,146.956 -0.003,146.956 C-0.003,146.956 -0.003,120.916 -0.003,120.916 C-0.003,120.916 188.148,120.916 188.148,120.916 Z" id="path-7" class="cls-9" fill-rule="evenodd"/>
    <path d="M173.957,146.956 C173.957,146.956 167.115,146.956 167.115,146.956 C167.115,146.956 167.115,139.946 167.115,139.946 C167.115,139.946 173.957,139.946 173.957,139.946 C173.957,139.946 173.957,146.956 173.957,146.956 Z" id="path-8" class="cls-8" fill-rule="evenodd"/>
    <path d="M117.871,146.956 C117.871,146.956 111.028,146.956 111.028,146.956 C111.028,146.956 111.028,139.946 111.028,139.946 C111.028,139.946 117.871,139.946 117.871,139.946 C117.871,139.946 117.871,146.956 117.871,146.956 Z" id="path-9" class="cls-8" fill-rule="evenodd"/>
    <path d="M89.827,146.956 C89.827,146.956 82.986,146.956 82.986,146.956 C82.986,146.956 82.986,139.946 82.986,139.946 C82.986,139.946 89.827,139.946 89.827,139.946 C89.827,139.946 89.827,146.956 89.827,146.956 Z" id="path-10" class="cls-8" fill-rule="evenodd"/>
    <path d="M145.914,146.956 C145.914,146.956 139.072,146.956 139.072,146.956 C139.072,146.956 139.072,139.946 139.072,139.946 C139.072,139.946 145.914,139.946 145.914,139.946 C145.914,139.946 145.914,146.956 145.914,146.956 Z" id="path-11" class="cls-8" fill-rule="evenodd"/>
    <path d="M61.784,146.956 C61.784,146.956 54.942,146.956 54.942,146.956 C54.942,146.956 54.942,139.946 54.942,139.946 C54.942,139.946 61.784,139.946 61.784,139.946 C61.784,139.946 61.784,146.956 61.784,146.956 Z" id="path-12" class="cls-8" fill-rule="evenodd"/>
    <path d="M33.741,146.956 C33.741,146.956 26.899,146.956 26.899,146.956 C26.899,146.956 26.899,139.946 26.899,139.946 C26.899,139.946 33.741,139.946 33.741,139.946 C33.741,139.946 33.741,146.956 33.741,146.956 Z" id="path-13" class="cls-8" fill-rule="evenodd"/>
    <path d="M94.072,20.766 C94.072,20.766 188.148,20.766 188.148,20.766 C188.148,20.766 188.148,-0.006 188.148,-0.006 C188.148,-0.006 94.072,-0.006 94.072,-0.006 C94.072,-0.006 94.072,20.766 94.072,20.766 Z" id="path-14" class="cls-9" fill-rule="evenodd"/>
    <path d="M165.152,20.766 C165.152,20.766 188.148,20.766 188.148,20.766 C188.148,20.766 188.148,-0.006 188.148,-0.006 C188.148,-0.006 165.152,-0.006 165.152,-0.006 C165.152,-0.006 165.152,20.766 165.152,20.766 Z" id="path-15" class="cls-8" fill-rule="evenodd"/>
  </g>
</svg>
