<svg xmlns="http://www.w3.org/2000/svg" xmlns:xlink="http://www.w3.org/1999/xlink" preserveAspectRatio="xMidYMid" width="217" height="190" viewBox="0 0 217 190">
  <defs>
    <style>

      .cls-3 {
        fill: #2476ff;
      }

      .cls-4 {
        fill: #fbb713;
      }

      .cls-5 {
        fill: #000000;
        opacity: 0.25;
      }

      .cls-7 {
        fill: #142a3b;
      }
    </style>
  </defs>
  <g id="group-119svg">
    <path d="M181.021,36.205 C181.021,36.205 181.021,30.173 181.021,30.173 C181.021,23.513 175.617,18.104 168.953,18.104 C168.953,18.104 90.509,18.104 90.509,18.104 C90.509,18.104 90.509,12.070 90.509,12.070 C90.509,5.410 85.105,0.002 78.441,0.002 C78.441,0.002 48.270,0.002 48.270,0.002 C41.606,0.002 36.202,5.410 36.202,12.070 C36.202,12.070 36.202,30.173 36.202,30.173 C36.202,30.173 36.202,36.205 36.202,36.205 C36.202,36.205 181.021,36.205 181.021,36.205 Z" id="path-1" class="cls-3" fill-rule="evenodd"/>
    <path d="M199.123,36.205 C199.123,36.205 81.457,36.205 81.457,36.205 C81.457,36.205 81.457,27.156 81.457,27.156 C81.457,17.166 73.353,9.052 63.355,9.052 C63.355,9.052 18.100,9.052 18.100,9.052 C8.102,9.052 -0.003,17.166 -0.003,27.156 C-0.003,27.156 -0.003,54.308 -0.003,54.308 C-0.003,54.308 -0.003,63.358 -0.003,63.358 C-0.003,63.358 -0.003,76.934 -0.003,76.934 C-0.003,76.934 -0.003,171.969 -0.003,171.969 C-0.003,181.973 8.102,190.071 18.100,190.071 C18.100,190.071 199.123,190.071 199.123,190.071 C209.120,190.071 217.225,181.973 217.225,171.969 C217.225,171.969 217.225,63.358 217.225,63.358 C217.225,63.358 217.225,54.308 217.225,54.308 C217.225,44.318 209.120,36.205 199.123,36.205 Z" id="path-2" class="cls-4" fill-rule="evenodd"/>
    <path d="M67.881,21.633 C67.881,21.633 67.881,36.205 67.881,36.205 C67.881,36.205 81.343,36.205 81.343,36.205 C83.911,16.094 74.431,11.409 66.134,9.333 C67.225,13.083 67.881,17.223 67.881,21.633 Z" id="path-3" class="cls-5" fill-rule="evenodd"/>
    <path d="M201.902,36.486 C202.993,38.815 203.649,41.386 203.649,44.126 C203.649,44.126 203.649,53.176 203.649,53.176 C203.649,53.176 203.649,161.786 203.649,161.786 C203.649,171.791 195.543,179.888 185.546,179.888 C185.546,179.888 4.523,179.888 4.523,179.888 C3.570,179.888 2.654,179.750 1.740,179.608 C4.626,185.774 10.842,190.071 18.099,190.071 C18.099,190.071 199.123,190.071 199.123,190.071 C209.120,190.071 217.226,181.973 217.226,171.969 C217.226,171.969 217.226,63.358 217.226,63.358 C217.226,63.358 217.226,54.308 217.226,54.308 C217.226,45.270 210.570,37.833 201.902,36.486 Z" id="path-4" class="cls-5" fill-rule="evenodd"/>
    <path d="M92.120,107.654 C92.120,107.654 83.294,107.654 83.294,107.654 C81.593,107.654 80.213,109.912 80.213,112.698 C80.213,115.484 81.593,117.742 83.294,117.742 C83.294,117.742 83.705,117.742 83.705,117.742 C85.406,117.742 86.786,119.999 86.786,122.785 C86.786,125.571 85.406,127.830 83.705,127.830 C83.705,127.830 64.733,127.830 64.733,127.830 C63.031,127.830 61.652,130.089 61.652,132.874 C61.652,135.660 63.031,137.919 64.733,137.919 C64.733,137.919 87.532,137.919 87.532,137.919 C87.532,137.919 134.134,137.919 134.134,137.919 C135.835,137.919 137.215,135.660 137.215,132.874 C137.215,130.089 135.835,127.830 134.134,127.830 C134.134,127.830 128.869,127.830 128.869,127.830 C127.167,127.830 125.787,125.571 125.787,122.785 C125.787,119.999 127.167,117.742 128.869,117.742 C128.869,117.742 149.548,117.742 149.548,117.742 C151.250,117.742 152.629,115.484 152.629,112.698 C152.629,109.912 151.250,107.654 149.548,107.654 C149.548,107.654 148.005,107.654 148.005,107.654 C148.005,107.654 92.120,107.654 92.120,107.654 Z" id="path-5" class="cls-7" fill-rule="evenodd"/>
    <path d="M146.854,139.270 C145.427,139.270 144.271,136.850 144.271,133.864 C144.271,130.878 145.427,128.457 146.854,128.457 C146.854,128.457 154.770,128.457 154.770,128.457 C156.197,128.457 157.353,130.878 157.353,133.864 C157.353,136.850 156.197,139.270 154.770,139.270 C154.770,139.270 146.854,139.270 146.854,139.270 Z" id="path-6" class="cls-7" fill-rule="evenodd"/>
  </g>
</svg>
