<svg xmlns="http://www.w3.org/2000/svg" xmlns:xlink="http://www.w3.org/1999/xlink" preserveAspectRatio="xMidYMid" width="218" height="122" viewBox="0 0 218 122">
  <defs>
    <style>

      .cls-3 {
        fill: #0cb04a;
      }

      .cls-5 {
        fill: #142a3b;
      }

      .cls-7 {
        fill: #000000;
        opacity: 0.35;
      }

      .cls-8 {
        fill: #ffffff;
      }
    </style>
  </defs>
  <g id="group-71svg">
    <path d="M53.827,97.550 C53.827,97.550 38.238,97.550 38.238,97.550 C35.232,97.550 32.795,99.326 32.795,101.517 C32.795,103.708 35.232,105.483 38.238,105.483 C38.238,105.483 38.963,105.483 38.963,105.483 C41.969,105.483 44.406,107.260 44.406,109.451 C44.406,111.641 41.969,113.418 38.963,113.418 C38.963,113.418 5.453,113.418 5.453,113.418 C2.447,113.418 0.011,115.194 0.011,117.384 C0.011,119.576 2.447,121.352 5.453,121.352 C5.453,121.352 45.724,121.352 45.724,121.352 C45.724,121.352 128.038,121.352 128.038,121.352 C131.044,121.352 133.480,119.576 133.480,117.384 C133.480,115.194 131.044,113.418 128.038,113.418 C128.038,113.418 118.738,113.418 118.738,113.418 C115.732,113.418 113.296,111.641 113.296,109.451 C113.296,107.260 115.732,105.483 118.738,105.483 C118.738,105.483 155.265,105.483 155.265,105.483 C158.271,105.483 160.707,103.708 160.707,101.517 C160.707,99.326 158.271,97.550 155.265,97.550 C155.265,97.550 152.539,97.550 152.539,97.550 C152.539,97.550 53.827,97.550 53.827,97.550 Z" id="path-1" class="cls-3" fill-rule="evenodd"/>
    <path d="M149.651,121.709 C147.533,121.709 145.817,120.452 145.817,118.902 C145.817,117.352 147.533,116.096 149.651,116.096 C149.651,116.096 161.399,116.096 161.399,116.096 C163.516,116.096 165.232,117.352 165.232,118.902 C165.232,120.452 163.516,121.709 161.399,121.709 C161.399,121.709 149.651,121.709 149.651,121.709 Z" id="path-2" class="cls-3" fill-rule="evenodd"/>
    <path d="M154.042,14.846 C154.042,14.846 68.713,14.846 68.713,14.846 C68.713,14.846 52.139,6.647 52.139,6.647 C52.139,6.647 52.139,1.647 52.139,1.647 C52.139,1.647 216.657,1.647 216.657,1.647 C216.657,1.647 216.657,8.247 216.657,8.247 C216.657,8.247 154.042,14.846 154.042,14.846 Z" id="path-3" class="cls-5" fill-rule="evenodd"/>
    <path d="M154.042,14.539 C154.042,14.539 68.713,14.539 68.713,14.539 C68.713,14.539 52.139,22.737 52.139,22.737 C52.139,22.737 52.139,27.737 52.139,27.737 C52.139,27.737 216.657,27.737 216.657,27.737 C216.657,27.737 216.657,21.138 216.657,21.138 C216.657,21.138 154.042,14.539 154.042,14.539 Z" id="path-4" class="cls-5" fill-rule="evenodd"/>
    <path d="M154.042,14.539 C154.042,14.539 68.713,14.539 68.713,14.539 C68.713,14.539 52.139,22.737 52.139,22.737 C52.139,22.737 52.139,27.737 52.139,27.737 C52.139,27.737 216.657,27.737 216.657,27.737 C216.657,27.737 216.657,21.138 216.657,21.138 C216.657,21.138 154.042,14.539 154.042,14.539 Z" id="path-5" class="cls-7" fill-rule="evenodd"/>
    <path d="M96.798,15.843 C96.798,18.767 94.427,21.138 91.504,21.138 C88.579,21.138 86.209,18.767 86.209,15.843 C86.209,12.919 88.579,10.549 91.504,10.549 C94.427,10.549 96.798,12.919 96.798,15.843 Z" id="path-6" class="cls-8" fill-rule="evenodd"/>
    <path d="M147.597,13.004 C144.721,13.537 158.492,8.247 159.336,15.843 C159.659,18.750 156.966,21.138 154.042,21.138 C154.042,21.138 131.731,8.291 124.882,2.477 C124.370,2.043 124.362,1.267 124.848,0.804 C124.848,0.804 125.357,0.319 125.357,0.319 C125.734,-0.039 126.307,-0.096 126.745,0.185 C126.745,0.185 151.279,15.843 151.279,15.843 C151.279,15.843 154.406,17.970 155.040,17.838 C156.166,17.603 156.497,11.355 147.597,13.004 Z" id="path-7" class="cls-8" fill-rule="evenodd"/>
    <path d="M112.759,15.843 C112.759,17.411 111.488,18.682 109.920,18.682 C108.352,18.682 107.080,17.411 107.080,15.843 C107.080,14.275 108.352,13.004 109.920,13.004 C111.488,13.004 112.759,14.275 112.759,15.843 Z" id="path-8" class="cls-8" fill-rule="evenodd"/>
    <path d="M153.524,69.111 C153.524,69.111 71.632,93.082 71.632,93.082 C71.632,93.082 53.421,89.871 53.421,89.871 C53.421,89.871 52.017,85.073 52.017,85.073 C52.017,85.073 209.909,38.853 209.909,38.853 C209.909,38.853 211.763,45.186 211.763,45.186 C211.763,45.186 153.524,69.111 153.524,69.111 Z" id="path-9" class="cls-5" fill-rule="evenodd"/>
    <path d="M153.438,68.815 C153.438,68.815 71.546,92.788 71.546,92.788 C71.546,92.788 57.943,105.312 57.943,105.312 C57.943,105.312 59.347,110.111 59.347,110.111 C59.347,110.111 217.239,63.890 217.239,63.890 C217.239,63.890 215.385,57.557 215.385,57.557 C215.385,57.557 153.438,68.815 153.438,68.815 Z" id="path-10" class="cls-5" fill-rule="evenodd"/>
    <path d="M153.438,68.815 C153.438,68.815 71.546,92.788 71.546,92.788 C71.546,92.788 57.943,105.312 57.943,105.312 C57.943,105.312 59.347,110.111 59.347,110.111 C59.347,110.111 217.239,63.890 217.239,63.890 C217.239,63.890 215.385,57.557 215.385,57.557 C215.385,57.557 153.438,68.815 153.438,68.815 Z" id="path-11" class="cls-7" fill-rule="evenodd"/>
    <path d="M98.866,86.150 C99.688,88.957 98.079,91.897 95.272,92.718 C92.466,93.540 89.525,91.931 88.703,89.125 C87.882,86.318 89.491,83.378 92.298,82.557 C95.104,81.735 98.045,83.344 98.866,86.150 Z" id="path-12" class="cls-8" fill-rule="evenodd"/>
    <path d="M146.820,69.154 C144.211,70.474 155.941,61.527 158.886,68.581 C160.013,71.279 158.098,74.328 155.292,75.149 C155.292,75.149 130.270,69.088 122.064,65.432 C121.451,65.159 121.225,64.417 121.561,63.835 C121.561,63.835 121.913,63.228 121.913,63.228 C122.174,62.778 122.708,62.564 123.208,62.709 C123.208,62.709 151.153,70.844 151.153,70.844 C151.153,70.844 154.752,72.008 155.322,71.702 C156.337,71.160 154.900,65.071 146.820,69.154 Z" id="path-13" class="cls-8" fill-rule="evenodd"/>
    <path d="M114.184,81.666 C114.625,83.171 113.762,84.748 112.257,85.188 C110.752,85.629 109.175,84.766 108.735,83.261 C108.294,81.757 109.157,80.179 110.662,79.739 C112.166,79.298 113.744,80.161 114.184,81.666 Z" id="path-14" class="cls-8" fill-rule="evenodd"/>
  </g>
</svg>
