<svg xmlns="http://www.w3.org/2000/svg" xmlns:xlink="http://www.w3.org/1999/xlink" preserveAspectRatio="xMidYMid" width="164" height="218" viewBox="0 0 164 218">
  <defs>
    <style>

      .cls-3 {
        fill: #fbb713;
      }

      .cls-7 {
        fill: #142a3b;
      }

      .cls-8 {
        fill: #000000;
        opacity: 0.35;
      }

      .cls-9 {
        fill: #ededed;
      }

      .cls-12 {
        fill: #000000;
      }

      .cls-18 {
        fill: #2476ff;
      }

      .cls-20 {
        fill: #ff3a2f;
      }
    </style>
  </defs>
  <g id="group-111svg">
    <path d="M41.458,26.088 C41.458,26.088 37.434,22.065 37.434,22.065 C36.659,21.288 34.865,21.826 33.427,23.263 C31.989,24.700 31.452,26.496 32.228,27.271 C32.228,27.271 32.415,27.459 32.415,27.459 C33.191,28.234 32.654,30.029 31.216,31.466 C29.779,32.904 27.984,33.441 27.208,32.666 C27.208,32.666 18.559,24.017 18.559,24.017 C17.784,23.241 15.990,23.778 14.551,25.215 C13.113,26.654 12.577,28.449 13.353,29.223 C13.353,29.223 23.746,39.615 23.746,39.615 C23.746,39.615 44.991,60.860 44.991,60.860 C45.767,61.636 47.561,61.100 48.999,59.662 C50.436,58.224 50.973,56.429 50.197,55.653 C50.197,55.653 47.798,53.253 47.798,53.253 C47.022,52.478 47.558,50.684 48.997,49.245 C50.434,47.808 52.229,47.271 53.004,48.047 C53.004,48.047 62.431,57.474 62.431,57.474 C63.207,58.251 65.002,57.713 66.440,56.276 C67.877,54.837 68.414,53.044 67.638,52.267 C67.638,52.267 66.935,51.563 66.935,51.563 C66.935,51.563 41.458,26.088 41.458,26.088 Z" id="path-1" class="cls-3" fill-rule="evenodd"/>
    <path d="M0.235,17.500 C-0.416,16.848 0.306,15.073 1.847,13.532 C3.388,11.992 5.164,11.270 5.815,11.919 C5.815,11.919 9.424,15.529 9.424,15.529 C10.074,16.178 9.352,17.955 7.811,19.496 C6.270,21.037 4.494,21.759 3.843,21.108 C3.843,21.108 0.235,17.500 0.235,17.500 Z" id="path-2" class="cls-3" fill-rule="evenodd"/>
    <path d="M146.791,41.473 C146.791,41.473 150.814,37.451 150.814,37.451 C151.590,36.674 151.053,34.880 149.615,33.442 C148.177,32.005 146.383,31.468 145.607,32.244 C145.607,32.244 145.420,32.432 145.420,32.432 C144.644,33.206 142.850,32.670 141.412,31.233 C139.974,29.794 139.437,28.000 140.213,27.225 C140.213,27.225 148.862,18.577 148.862,18.577 C149.638,17.800 149.101,16.006 147.663,14.568 C146.225,13.130 144.431,12.593 143.655,13.369 C143.655,13.369 133.261,23.763 133.261,23.763 C133.261,23.763 112.017,45.006 112.017,45.006 C111.241,45.782 111.777,47.577 113.216,49.014 C114.654,50.452 116.448,50.988 117.224,50.214 C117.224,50.214 119.624,47.813 119.624,47.813 C120.400,47.037 122.194,47.574 123.632,49.011 C125.070,50.449 125.607,52.244 124.831,53.020 C124.831,53.020 115.403,62.447 115.403,62.447 C114.628,63.223 115.164,65.016 116.602,66.454 C118.040,67.892 119.835,68.429 120.610,67.652 C120.610,67.652 121.314,66.949 121.314,66.949 C121.314,66.949 146.791,41.473 146.791,41.473 Z" id="path-3" class="cls-3" fill-rule="evenodd"/>
    <path d="M155.379,0.253 C156.029,-0.398 157.805,0.323 159.346,1.864 C160.887,3.405 161.609,5.179 160.959,5.831 C160.959,5.831 157.350,9.440 157.350,9.440 C156.700,10.090 154.924,9.368 153.383,7.827 C151.842,6.286 151.120,4.511 151.770,3.861 C151.770,3.861 155.379,0.253 155.379,0.253 Z" id="path-4" class="cls-3" fill-rule="evenodd"/>
    <path d="M163.416,217.233 C163.416,217.233 4.866,217.233 4.866,217.233 C4.866,217.233 4.866,77.241 4.866,77.241 C4.866,77.241 163.416,77.241 163.416,77.241 C163.416,77.241 163.416,217.233 163.416,217.233 Z" id="path-5" class="cls-7" fill-rule="evenodd"/>
    <path d="M153.508,77.241 C153.508,77.241 153.508,209.802 153.508,209.802 C153.508,209.802 4.866,209.802 4.866,209.802 C4.866,209.802 4.866,217.233 4.866,217.233 C4.866,217.233 163.417,217.233 163.417,217.233 C163.417,217.233 163.417,77.241 163.417,77.241 C163.417,77.241 153.508,77.241 153.508,77.241 Z" id="path-6" class="cls-8" fill-rule="evenodd"/>
    <path d="M124.623,147.238 C124.623,175.182 101.968,197.837 74.022,197.837 C46.075,197.837 23.420,175.182 23.420,147.238 C23.420,119.292 46.075,96.638 74.022,96.638 C101.968,96.638 124.623,119.292 124.623,147.238 Z" id="path-7" class="cls-9" fill-rule="evenodd"/>
    <path d="M105.507,107.667 C117.143,116.939 124.623,131.203 124.623,147.238 C124.623,175.182 101.968,197.837 74.021,197.837 C65.315,197.837 57.122,195.635 49.968,191.762 C58.612,198.648 69.542,202.792 81.453,202.792 C109.400,202.792 132.055,180.138 132.055,152.192 C132.055,132.953 121.316,116.226 105.507,107.667 Z" id="path-8" class="cls-8" fill-rule="evenodd"/>
    <path d="M82.666,147.238 C82.666,152.012 78.795,155.881 74.022,155.881 C69.247,155.881 65.377,152.012 65.377,147.238 C65.377,142.463 69.247,138.593 74.022,138.593 C78.795,138.593 82.666,142.463 82.666,147.238 Z" id="path-9" class="cls-7" fill-rule="evenodd"/>
    <path d="M74.021,138.593 C73.597,138.593 73.191,138.659 72.783,138.718 C76.965,139.323 80.188,142.888 80.188,147.238 C80.188,151.588 76.965,155.152 72.783,155.757 C73.191,155.816 73.597,155.881 74.021,155.881 C78.795,155.881 82.666,152.012 82.666,147.238 C82.666,142.463 78.795,138.593 74.021,138.593 Z" id="path-10" class="cls-12" fill-rule="evenodd"/>
    <path d="M152.140,105.072 C152.140,110.954 147.372,115.721 141.490,115.721 C135.608,115.721 130.840,110.954 130.840,105.072 C130.840,99.189 135.608,94.422 141.490,94.422 C147.372,94.422 152.140,99.189 152.140,105.072 Z" id="path-11" class="cls-9" fill-rule="evenodd"/>
    <path d="M148.493,97.105 C150.711,99.056 152.140,101.884 152.140,105.072 C152.140,110.954 147.372,115.721 141.490,115.721 C140.788,115.721 140.105,115.644 139.442,115.515 C141.318,117.165 143.749,118.199 146.445,118.199 C152.327,118.199 157.095,113.430 157.095,107.549 C157.095,102.368 153.393,98.061 148.493,97.105 Z" id="path-12" class="cls-8" fill-rule="evenodd"/>
    <path d="M28.803,197.837 C28.803,200.810 26.393,203.219 23.420,203.219 C20.447,203.219 18.038,200.810 18.038,197.837 C18.038,194.865 20.447,192.455 23.420,192.455 C26.393,192.455 28.803,194.865 28.803,197.837 Z" id="path-13" class="cls-9" fill-rule="evenodd"/>
    <path d="M28.243,195.491 C28.590,196.202 28.803,196.992 28.803,197.837 C28.803,200.810 26.393,203.219 23.420,203.219 C22.575,203.219 21.786,203.007 21.074,202.661 C21.948,204.453 23.770,205.696 25.898,205.696 C28.870,205.696 31.279,203.288 31.279,200.314 C31.279,198.187 30.035,196.365 28.243,195.491 Z" id="path-14" class="cls-8" fill-rule="evenodd"/>
    <path d="M109.897,161.480 C108.964,161.480 108.032,161.120 107.323,160.406 C105.918,158.986 105.928,156.693 107.350,155.285 C107.350,155.285 111.675,151.005 111.675,151.005 C112.325,150.358 112.325,149.283 111.663,148.622 C109.913,146.871 108.960,144.450 109.053,141.976 C109.137,139.611 110.171,137.363 111.900,135.755 C111.900,135.755 138.106,104.747 138.106,104.747 C139.398,103.221 141.679,103.029 143.208,104.320 C144.736,105.611 144.926,107.894 143.636,109.421 C143.636,109.421 116.873,141.021 116.873,141.021 C116.387,141.441 116.297,141.966 116.288,142.242 C116.277,142.516 116.328,143.047 116.783,143.502 C120.267,146.987 120.267,152.654 116.783,156.137 C116.783,156.137 112.444,160.433 112.444,160.433 C111.740,161.131 110.818,161.480 109.897,161.480 Z" id="path-15" class="cls-8" fill-rule="evenodd"/>
    <path d="M99.112,159.925 C98.185,159.925 97.259,159.571 96.552,158.864 C95.137,157.451 95.137,155.157 96.552,153.743 C96.552,153.743 106.708,143.586 106.708,143.586 C107.370,142.924 107.370,141.851 106.708,141.190 C104.958,139.441 104.007,137.019 104.097,134.548 C104.187,132.075 105.312,129.728 107.184,128.111 C107.184,128.111 137.013,102.330 137.013,102.330 C138.525,101.025 140.809,101.189 142.121,102.703 C143.427,104.217 143.261,106.502 141.748,107.810 C141.748,107.810 111.918,133.590 111.918,133.590 C111.432,134.009 111.343,134.533 111.333,134.810 C111.322,135.085 111.373,135.615 111.828,136.071 C115.312,139.554 115.312,145.222 111.828,148.706 C111.828,148.706 101.672,158.864 101.672,158.864 C100.965,159.571 100.037,159.925 99.112,159.925 Z" id="path-16" class="cls-18" fill-rule="evenodd"/>
    <path d="M90.061,177.825 C90.061,177.825 90.061,177.825 90.061,177.825 C88.085,175.848 88.085,172.644 90.061,170.669 C90.061,170.669 100.795,159.933 100.795,159.933 C102.771,157.957 105.975,157.957 107.951,159.933 C107.951,159.933 107.951,159.933 107.951,159.933 C109.927,161.909 109.927,165.113 107.951,167.090 C107.951,167.090 97.217,177.825 97.217,177.825 C95.241,179.801 92.037,179.801 90.061,177.825 Z" id="path-17" class="cls-8" fill-rule="evenodd"/>
    <path d="M85.106,170.393 C85.106,170.393 85.106,170.393 85.106,170.393 C83.130,168.416 83.130,165.212 85.106,163.235 C85.106,163.235 95.840,152.502 95.840,152.502 C97.816,150.527 101.020,150.527 102.996,152.502 C102.996,152.502 102.996,152.502 102.996,152.502 C104.973,154.478 104.973,157.682 102.996,159.658 C102.996,159.658 92.262,170.393 92.262,170.393 C90.286,172.369 87.082,172.369 85.106,170.393 Z" id="path-18" class="cls-20" fill-rule="evenodd"/>
    <path d="M149.713,203.319 C149.713,203.319 136.430,203.319 136.430,203.319 C136.430,203.319 136.430,174.224 136.430,174.224 C136.430,174.224 149.713,174.224 149.713,174.224 C149.713,174.224 149.713,203.319 149.713,203.319 Z" id="path-19" class="cls-3" fill-rule="evenodd"/>
    <path d="M149.713,176.701 C149.713,176.701 149.713,203.319 149.713,203.319 C149.713,203.319 138.907,203.319 138.907,203.319 C138.907,203.319 138.907,205.796 138.907,205.796 C138.907,205.796 152.189,205.796 152.189,205.796 C152.189,205.796 152.189,176.701 152.189,176.701 C152.189,176.701 149.713,176.701 149.713,176.701 Z" id="path-20" class="cls-8" fill-rule="evenodd"/>
  </g>
</svg>
