<svg xmlns="http://www.w3.org/2000/svg" xmlns:xlink="http://www.w3.org/1999/xlink" preserveAspectRatio="xMidYMid" width="218" height="160" viewBox="0 0 218 160">
  <defs>
    <style>

      .cls-3 {
        fill: #0cb04a;
      }

      .cls-9 {
        fill: #ff3a2f;
      }
    </style>
  </defs>
  <g id="group-149svg">
    <path d="M104.159,3.175 C104.159,3.175 88.862,3.175 88.862,3.175 C85.912,3.175 83.521,4.986 83.521,7.218 C83.521,9.450 85.912,11.261 88.862,11.261 C88.862,11.261 89.574,11.261 89.574,11.261 C92.524,11.261 94.915,13.070 94.915,15.303 C94.915,17.535 92.524,19.344 89.574,19.344 C89.574,19.344 56.688,19.344 56.688,19.344 C53.738,19.344 51.347,21.154 51.347,23.387 C51.347,25.619 53.738,27.429 56.688,27.429 C56.688,27.429 96.208,27.429 96.208,27.429 C96.208,27.429 176.988,27.429 176.988,27.429 C179.938,27.429 182.329,25.619 182.329,23.387 C182.329,21.154 179.938,19.344 176.988,19.344 C176.988,19.344 167.861,19.344 167.861,19.344 C164.912,19.344 162.521,17.535 162.521,15.303 C162.521,13.070 164.912,11.261 167.861,11.261 C167.861,11.261 203.708,11.261 203.708,11.261 C206.657,11.261 209.049,9.450 209.049,7.218 C209.049,4.986 206.657,3.175 203.708,3.175 C203.708,3.175 201.033,3.175 201.033,3.175 C201.033,3.175 104.159,3.175 104.159,3.175 Z" id="path-1" class="cls-3" fill-rule="evenodd"/>
    <path d="M199.038,28.511 C196.565,28.511 194.560,26.571 194.560,24.178 C194.560,21.787 196.565,19.847 199.038,19.847 C199.038,19.847 212.759,19.847 212.759,19.847 C215.232,19.847 217.237,21.787 217.237,24.178 C217.237,26.571 215.232,28.511 212.759,28.511 C212.759,28.511 199.038,28.511 199.038,28.511 Z" id="path-2" class="cls-3" fill-rule="evenodd"/>
    <path d="M104.159,61.174 C104.159,61.174 88.862,61.174 88.862,61.174 C85.912,61.174 83.521,62.985 83.521,65.217 C83.521,67.449 85.912,69.259 88.862,69.259 C88.862,69.259 89.574,69.259 89.574,69.259 C92.524,69.259 94.915,71.070 94.915,73.302 C94.915,75.534 92.524,77.343 89.574,77.343 C89.574,77.343 56.688,77.343 56.688,77.343 C53.738,77.343 51.347,79.153 51.347,81.386 C51.347,83.618 53.738,85.426 56.688,85.426 C56.688,85.426 96.208,85.426 96.208,85.426 C96.208,85.426 176.988,85.426 176.988,85.426 C179.938,85.426 182.329,83.618 182.329,81.386 C182.329,79.153 179.938,77.343 176.988,77.343 C176.988,77.343 167.861,77.343 167.861,77.343 C164.912,77.343 162.521,75.534 162.521,73.302 C162.521,71.070 164.912,69.259 167.861,69.259 C167.861,69.259 203.708,69.259 203.708,69.259 C206.657,69.259 209.049,67.449 209.049,65.217 C209.049,62.985 206.657,61.174 203.708,61.174 C203.708,61.174 201.033,61.174 201.033,61.174 C201.033,61.174 104.159,61.174 104.159,61.174 Z" id="path-3" class="cls-3" fill-rule="evenodd"/>
    <path d="M199.038,86.508 C196.565,86.508 194.560,84.570 194.560,82.178 C194.560,79.786 196.565,77.846 199.038,77.846 C199.038,77.846 212.759,77.846 212.759,77.846 C215.232,77.846 217.237,79.786 217.237,82.178 C217.237,84.570 215.232,86.508 212.759,86.508 C212.759,86.508 199.038,86.508 199.038,86.508 Z" id="path-4" class="cls-3" fill-rule="evenodd"/>
    <path d="M104.159,126.423 C104.159,126.423 88.862,126.423 88.862,126.423 C85.912,126.423 83.521,128.234 83.521,130.465 C83.521,132.698 85.912,134.508 88.862,134.508 C88.862,134.508 89.574,134.508 89.574,134.508 C92.524,134.508 94.915,136.316 94.915,138.549 C94.915,140.781 92.524,142.592 89.574,142.592 C89.574,142.592 56.688,142.592 56.688,142.592 C53.738,142.592 51.347,144.402 51.347,146.634 C51.347,148.866 53.738,150.676 56.688,150.676 C56.688,150.676 96.208,150.676 96.208,150.676 C96.208,150.676 176.988,150.676 176.988,150.676 C179.938,150.676 182.329,148.866 182.329,146.634 C182.329,144.402 179.938,142.592 176.988,142.592 C176.988,142.592 167.861,142.592 167.861,142.592 C164.912,142.592 162.521,140.781 162.521,138.549 C162.521,136.316 164.912,134.508 167.861,134.508 C167.861,134.508 203.708,134.508 203.708,134.508 C206.657,134.508 209.049,132.698 209.049,130.465 C209.049,128.234 206.657,126.423 203.708,126.423 C203.708,126.423 201.033,126.423 201.033,126.423 C201.033,126.423 104.159,126.423 104.159,126.423 Z" id="path-5" class="cls-3" fill-rule="evenodd"/>
    <path d="M199.038,151.758 C196.565,151.758 194.560,149.818 194.560,147.426 C194.560,145.034 196.565,143.094 199.038,143.094 C199.038,143.094 212.759,143.094 212.759,143.094 C215.232,143.094 217.237,145.034 217.237,147.426 C217.237,149.818 215.232,151.758 212.759,151.758 C212.759,151.758 199.038,151.758 199.038,151.758 Z" id="path-6" class="cls-3" fill-rule="evenodd"/>
    <circle id="circle-1" class="cls-9" cx="17" cy="16" r="16"/>
    <path d="M15.847,63.359 C7.100,63.359 0.008,70.451 0.008,79.198 C0.008,87.944 7.100,95.036 15.847,95.036 C24.595,95.036 31.686,87.944 31.686,79.198 C31.686,70.451 24.595,63.359 15.847,63.359 Z" id="path-7" class="cls-9" fill-rule="evenodd"/>
    <circle id="circle-2" class="cls-9" cx="17" cy="143" r="17"/>
  </g>
</svg>
