<svg xmlns="http://www.w3.org/2000/svg" xmlns:xlink="http://www.w3.org/1999/xlink" preserveAspectRatio="xMidYMid" width="163" height="217" viewBox="0 0 163 217">
  <defs>
    <style>

      .cls-3 {
        fill: #0cb04a;
      }

      .cls-5 {
        fill: #ff3a2f;
      }

      .cls-6 {
        fill: #010101;
        opacity: 0.35;
      }

      .cls-7 {
        fill: #142a3b;
      }

      .cls-8 {
        fill: #2476ff;
      }
    </style>
  </defs>
  <g id="group-94svg">
    <path d="M57.963,185.431 C57.963,185.431 43.332,185.431 43.332,185.431 C40.511,185.431 38.224,187.768 38.224,190.652 C38.224,193.533 40.511,195.871 43.332,195.871 C43.332,195.871 44.013,195.871 44.013,195.871 C46.834,195.871 49.121,198.207 49.121,201.090 C49.121,203.971 46.834,206.308 44.013,206.308 C44.013,206.308 12.561,206.308 12.561,206.308 C9.740,206.308 7.454,208.644 7.454,211.528 C7.454,214.409 9.740,216.746 12.561,216.746 C12.561,216.746 50.358,216.746 50.358,216.746 C50.358,216.746 127.615,216.746 127.615,216.746 C130.436,216.746 132.723,214.409 132.723,211.528 C132.723,208.644 130.436,206.308 127.615,206.308 C127.615,206.308 118.886,206.308 118.886,206.308 C116.065,206.308 113.778,203.971 113.778,201.090 C113.778,198.207 116.065,195.871 118.886,195.871 C118.886,195.871 153.169,195.871 153.169,195.871 C155.990,195.871 158.277,193.533 158.277,190.652 C158.277,187.768 155.990,185.431 153.169,185.431 C153.169,185.431 150.610,185.431 150.610,185.431 C150.610,185.431 57.963,185.431 57.963,185.431 Z" id="path-1" class="cls-3" fill-rule="evenodd"/>
    <path d="M147.900,217.216 C145.913,217.216 144.302,215.562 144.302,213.524 C144.302,211.485 145.913,209.832 147.900,209.832 C147.900,209.832 158.925,209.832 158.925,209.832 C160.913,209.832 162.524,211.485 162.524,213.524 C162.524,215.562 160.913,217.216 158.925,217.216 C158.925,217.216 147.900,217.216 147.900,217.216 Z" id="path-2" class="cls-3" fill-rule="evenodd"/>
    <path d="M100.752,94.426 C100.752,102.271 94.392,108.631 86.546,108.631 C78.700,108.631 72.341,102.271 72.341,94.426 C72.341,86.581 78.700,80.221 86.546,80.221 C94.392,80.221 100.752,86.581 100.752,94.426 Z" id="path-3" class="cls-5" fill-rule="evenodd"/>
    <path d="M94.877,82.965 C96.583,85.310 97.621,88.172 97.621,91.294 C97.621,99.139 91.261,105.501 83.415,105.501 C80.293,105.501 77.430,104.462 75.086,102.754 C77.668,106.301 81.823,108.631 86.546,108.631 C94.392,108.631 100.752,102.271 100.752,94.426 C100.752,89.703 98.423,85.548 94.877,82.965 Z" id="path-4" class="cls-6" fill-rule="evenodd"/>
    <path d="M90.093,181.158 C90.093,181.158 82.094,181.158 82.094,181.158 C82.094,181.158 82.094,106.160 82.094,106.160 C82.094,106.160 90.093,106.160 90.093,106.160 C90.093,106.160 90.093,181.158 90.093,181.158 Z" id="path-5" class="cls-7" fill-rule="evenodd"/>
    <path d="M72.895,99.112 C72.895,99.112 0.012,131.782 0.012,131.782 C0.012,131.782 87.857,152.377 72.895,99.112 Z" id="path-6" class="cls-8" fill-rule="evenodd"/>
    <path d="M72.895,99.112 C72.895,99.112 67.221,101.656 67.221,101.656 C73.292,128.270 52.125,135.109 30.934,135.649 C54.581,136.289 81.753,130.645 72.895,99.112 Z" id="path-7" class="cls-6" fill-rule="evenodd"/>
    <path d="M101.375,102.018 C101.375,102.018 157.852,158.494 157.852,158.494 C157.852,158.494 145.824,69.075 101.375,102.018 Z" id="path-8" class="cls-8" fill-rule="evenodd"/>
    <path d="M105.114,99.495 C103.893,100.242 102.649,101.074 101.375,102.018 C101.375,102.018 157.852,158.494 157.852,158.494 C157.852,158.494 157.453,155.542 156.540,150.919 C156.540,150.919 105.114,99.495 105.114,99.495 Z" id="path-9" class="cls-6" fill-rule="evenodd"/>
    <path d="M85.093,79.862 C85.093,79.862 85.093,-0.006 85.093,-0.006 C85.093,-0.006 27.094,71.727 85.093,79.862 Z" id="path-10" class="cls-8" fill-rule="evenodd"/>
    <path d="M60.118,52.305 C58.951,65.554 64.517,76.908 84.988,79.862 C84.988,79.862 84.988,73.599 84.988,73.599 C67.836,71.124 61.157,62.746 60.118,52.305 Z" id="path-11" class="cls-6" fill-rule="evenodd"/>
    <path d="M111.093,200.157 C111.093,200.157 60.093,200.157 60.093,200.157 C60.093,200.157 60.093,178.157 60.093,178.157 C60.093,178.157 111.093,178.157 111.093,178.157 C111.093,178.157 111.093,200.157 111.093,200.157 Z" id="path-12" class="cls-5" fill-rule="evenodd"/>
    <path d="M98.555,178.962 C98.555,178.962 98.555,199.983 98.555,199.983 C98.555,199.983 111.081,199.983 111.081,199.983 C111.081,199.983 111.081,178.962 111.081,178.962 C111.081,178.962 98.555,178.962 98.555,178.962 Z" id="path-13" class="cls-6" fill-rule="evenodd"/>
  </g>
</svg>
