<svg xmlns="http://www.w3.org/2000/svg" xmlns:xlink="http://www.w3.org/1999/xlink" preserveAspectRatio="xMidYMid" width="218" height="152" viewBox="0 0 218 152">
  <defs>
    <style>

      .cls-3 {
        fill: #0cb04a;
      }

      .cls-5 {
        fill: #fbb713;
      }

      .cls-6 {
        fill: #010100;
        opacity: 0.15;
      }

      .cls-7 {
        fill: #062635;
      }

      .cls-8 {
        fill: #010101;
        opacity: 0.35;
      }

      .cls-10 {
        fill: #ffffff;
      }

      .cls-13 {
        fill: #010100;
        opacity: 0.4;
      }

      .cls-16 {
        fill: #ededed;
      }

      .cls-17 {
        fill: #2476ff;
      }
    </style>
  </defs>
  <g id="group-4svg">
    <path d="M37.346,131.514 C37.346,131.514 38.979,131.514 38.979,131.514 C35.915,131.514 33.430,132.938 33.430,134.692 C33.430,136.447 35.915,137.870 38.979,137.870 C38.979,137.870 39.719,137.870 39.719,137.870 C42.784,137.870 45.268,139.292 45.268,141.048 C45.268,142.802 42.784,144.225 39.719,144.225 C39.719,144.225 5.549,144.225 5.549,144.225 C2.484,144.225 -0.000,145.648 -0.000,147.402 C-0.000,149.158 2.484,150.580 5.549,150.580 C5.549,150.580 46.613,150.580 46.613,150.580 C46.613,150.580 98.411,150.580 98.411,150.580 C101.476,150.580 103.960,149.158 103.960,147.402 C103.960,145.648 101.476,144.225 98.411,144.225 C98.411,144.225 88.928,144.225 88.928,144.225 C85.863,144.225 97.986,142.802 97.986,141.048 C97.986,139.292 85.863,137.870 88.928,137.870 C88.928,137.870 126.174,137.870 126.174,137.870 C129.239,137.870 131.723,136.447 131.723,134.692 C131.723,132.938 129.239,131.514 126.174,131.514 C126.174,131.514 123.394,131.514 123.394,131.514 C123.394,131.514 37.346,131.514 37.346,131.514 Z" id="path-1" class="cls-3" fill-rule="evenodd"/>
    <path d="M130.086,151.431 C127.517,151.431 125.434,149.906 125.434,148.026 C125.434,146.145 127.517,144.620 130.086,144.620 C130.086,144.620 144.343,144.620 144.343,144.620 C146.913,144.620 148.996,146.145 148.996,148.026 C148.996,149.906 146.913,151.431 144.343,151.431 C144.343,151.431 130.086,151.431 130.086,151.431 Z" id="path-2" class="cls-3" fill-rule="evenodd"/>
    <path d="M199.799,40.605 C199.799,40.605 107.393,14.413 107.393,14.413 C107.393,14.413 107.393,85.925 107.393,85.925 C107.393,85.925 199.799,59.479 199.799,59.479 C199.799,59.479 199.799,40.605 199.799,40.605 Z" id="path-3" class="cls-5" fill-rule="evenodd"/>
    <path d="M117.813,39.038 C117.813,39.038 109.695,17.018 109.695,17.018 C109.695,17.018 107.395,16.349 107.395,16.349 C107.395,16.349 107.393,85.925 107.393,85.925 C107.393,85.925 199.799,59.479 199.799,59.479 C199.799,59.479 199.799,46.880 199.799,46.880 C199.799,46.880 148.229,61.870 148.229,61.870 C133.015,66.293 117.813,54.880 117.813,39.038 Z" id="path-4" class="cls-6" fill-rule="evenodd"/>
    <path d="M73.915,140.985 C73.915,140.985 65.810,140.985 65.810,140.985 C65.810,140.985 65.810,24.037 65.810,24.037 C65.810,24.037 73.915,24.037 73.915,24.037 C73.915,24.037 73.915,140.985 73.915,140.985 Z" id="path-5" class="cls-7" fill-rule="evenodd"/>
    <path d="M73.915,30.727 C73.915,30.727 65.810,41.145 65.810,41.145 C65.810,41.145 65.810,24.037 65.810,24.037 C65.810,24.037 73.915,24.037 73.915,24.037 C73.915,24.037 73.915,30.727 73.915,30.727 Z" id="path-6" class="cls-8" fill-rule="evenodd"/>
    <path d="M83.178,13.326 C83.178,20.680 77.216,26.642 69.862,26.642 C62.508,26.642 56.545,20.680 56.545,13.326 C56.545,5.971 62.508,0.010 69.862,0.010 C77.216,0.010 83.178,5.971 83.178,13.326 Z" id="path-7" class="cls-7" fill-rule="evenodd"/>
    <path d="M78.064,5.513 C78.064,7.166 76.724,8.506 75.071,8.506 C73.418,8.506 72.078,7.166 72.078,5.513 C72.078,3.859 73.418,2.519 75.071,2.519 C76.724,2.519 78.064,3.859 78.064,5.513 Z" id="path-8" class="cls-10" fill-rule="evenodd"/>
    <path d="M75.071,21.433 C67.717,21.433 61.755,15.471 61.755,8.117 C61.755,5.785 62.408,3.624 63.462,1.717 C59.358,3.986 56.545,8.305 56.545,13.326 C56.545,20.680 62.508,26.642 69.862,26.642 C74.884,26.642 79.203,23.830 81.471,19.726 C79.564,20.779 77.404,21.433 75.071,21.433 Z" id="path-9" class="cls-8" fill-rule="evenodd"/>
    <path d="M125.434,50.042 C125.434,69.718 117.357,85.670 107.393,85.670 C97.430,85.670 89.353,69.718 89.353,50.042 C89.353,30.364 97.430,14.413 107.393,14.413 C117.357,14.413 125.434,30.364 125.434,50.042 Z" id="path-10" class="cls-5" fill-rule="evenodd"/>
    <path d="M125.434,50.042 C125.434,69.718 117.357,85.670 107.393,85.670 C97.430,85.670 89.353,69.718 89.353,50.042 C89.353,30.364 97.430,14.413 107.393,14.413 C117.357,14.413 125.434,30.364 125.434,50.042 Z" id="path-11" class="cls-13" fill-rule="evenodd"/>
    <path d="M106.948,15.200 C106.948,15.200 72.639,49.509 72.639,49.509 C71.961,50.186 70.862,50.186 70.183,49.509 C70.183,49.509 70.183,49.509 70.183,49.509 C69.505,48.829 69.505,47.730 70.183,47.052 C70.183,47.052 104.492,12.744 104.492,12.744 C105.170,12.066 106.270,12.066 106.948,12.744 C106.948,12.744 106.948,12.744 106.948,12.744 C107.627,13.423 107.627,14.522 106.948,15.200 Z" id="path-12" class="cls-7" fill-rule="evenodd"/>
    <path d="M67.510,48.318 C67.510,48.318 105.231,86.037 105.231,86.037 C105.901,86.708 106.987,86.708 107.657,86.037 C107.657,86.037 107.657,86.037 107.657,86.037 C108.327,85.368 108.327,84.282 107.657,83.612 C107.657,83.612 69.935,45.892 69.935,45.892 C69.265,45.222 68.179,45.222 67.510,45.892 C67.510,45.892 67.510,45.892 67.510,45.892 C66.840,46.562 66.840,47.647 67.510,48.318 Z" id="path-13" class="cls-7" fill-rule="evenodd"/>
    <path d="M170.940,44.300 C170.621,44.300 170.296,44.258 169.974,44.168 C169.974,44.168 135.293,34.615 135.293,34.615 C133.366,34.085 132.235,32.093 132.766,30.164 C133.296,28.237 135.287,27.093 137.217,27.636 C137.217,27.636 171.898,37.189 171.898,37.189 C173.825,37.719 174.956,39.712 174.426,41.640 C173.984,43.245 172.527,44.300 170.940,44.300 Z" id="path-14" class="cls-16" fill-rule="evenodd"/>
    <path d="M188.133,49.236 C188.133,49.236 182.210,49.236 182.210,49.236 C181.068,49.236 180.142,48.443 180.142,47.465 C180.142,46.487 181.068,45.693 182.210,45.693 C182.210,45.693 182.486,45.693 182.486,45.693 C183.627,45.693 184.554,44.899 184.554,43.921 C184.554,42.943 183.627,42.150 182.486,42.150 C182.486,42.150 169.752,42.150 169.752,42.150 C168.609,42.150 167.683,41.357 167.683,40.378 C167.683,39.400 168.609,38.607 169.752,38.607 C169.752,38.607 185.054,38.607 185.054,38.607 C185.054,38.607 201.874,38.607 201.874,38.607 C203.016,38.607 203.942,39.400 203.942,40.379 C203.942,41.357 203.016,42.150 201.874,42.150 C201.874,42.150 198.340,42.150 198.340,42.150 C197.198,42.150 196.272,42.943 196.272,43.921 C196.272,44.899 197.198,45.693 198.340,45.693 C198.340,45.693 215.160,45.693 215.160,45.693 C216.302,45.693 217.228,46.487 217.228,47.465 C217.228,48.443 216.302,49.236 215.160,49.236 C215.160,49.236 211.184,49.236 211.184,49.236 C211.184,49.236 188.133,49.236 188.133,49.236 Z" id="path-15" class="cls-17" fill-rule="evenodd"/>
    <path d="M151.470,37.074 C150.166,37.074 149.109,37.980 149.109,39.097 C149.109,40.214 150.166,41.120 151.470,41.120 C151.470,41.120 158.706,41.120 158.706,41.120 C160.010,41.120 161.067,40.214 161.067,39.097 C161.067,37.980 160.010,37.074 158.706,37.074 C158.706,37.074 151.470,37.074 151.470,37.074 Z" id="path-16" class="cls-17" fill-rule="evenodd"/>
    <path d="M152.359,60.125 C152.359,60.125 149.640,60.125 149.640,60.125 C149.115,60.125 148.689,59.675 148.689,59.120 C148.689,58.565 149.115,58.115 149.640,58.115 C149.640,58.115 149.766,58.115 149.766,58.115 C150.290,58.115 150.716,57.665 150.716,57.110 C150.716,56.555 150.290,56.105 149.766,56.105 C149.766,56.105 143.919,56.105 143.919,56.105 C143.394,56.105 142.969,55.655 142.969,55.100 C142.969,54.545 143.394,54.095 143.919,54.095 C143.919,54.095 150.945,54.095 150.945,54.095 C150.945,54.095 165.308,54.095 165.308,54.095 C165.833,54.095 166.258,54.545 166.258,55.100 C166.258,55.655 165.833,56.105 165.308,56.105 C165.308,56.105 163.686,56.105 163.686,56.105 C163.161,56.105 162.736,56.555 162.736,57.110 C162.736,57.665 163.161,58.115 163.686,58.115 C163.686,58.115 171.409,58.115 171.409,58.115 C171.933,58.115 172.359,58.565 172.359,59.120 C172.359,59.675 171.933,60.125 171.409,60.125 C171.409,60.125 169.584,60.125 169.584,60.125 C169.584,60.125 152.359,60.125 152.359,60.125 Z" id="path-17" class="cls-17" fill-rule="evenodd"/>
    <path d="M164.978,79.822 C164.978,79.822 162.258,79.822 162.258,79.822 C161.734,79.822 161.308,79.372 161.308,78.816 C161.308,78.261 161.734,77.812 162.258,77.812 C162.258,77.812 162.384,77.812 162.384,77.812 C162.909,77.812 163.334,77.362 163.334,76.807 C163.334,76.252 162.909,75.801 162.384,75.801 C162.384,75.801 156.537,75.801 156.537,75.801 C156.013,75.801 155.587,75.353 155.587,74.797 C155.587,74.242 156.013,73.792 156.537,73.792 C156.537,73.792 163.564,73.792 163.564,73.792 C163.564,73.792 177.927,73.792 177.927,73.792 C178.452,73.792 178.876,74.242 178.876,74.797 C178.876,75.353 178.452,75.801 177.927,75.801 C177.927,75.801 176.304,75.801 176.304,75.801 C175.780,75.801 175.354,76.252 175.354,76.807 C175.354,77.362 175.780,77.812 176.304,77.812 C176.304,77.812 184.028,77.812 184.028,77.812 C184.552,77.812 184.977,78.261 184.977,78.816 C184.977,79.372 184.552,79.822 184.028,79.822 C184.028,79.822 182.202,79.822 182.202,79.822 C182.202,79.822 164.978,79.822 164.978,79.822 Z" id="path-18" class="cls-17" fill-rule="evenodd"/>
    <path d="M164.002,25.105 C164.002,25.105 161.282,25.105 161.282,25.105 C160.757,25.105 160.332,24.655 160.332,24.099 C160.332,23.545 160.757,23.095 161.282,23.095 C161.282,23.095 161.408,23.095 161.408,23.095 C161.933,23.095 162.357,22.645 162.357,22.090 C162.357,21.535 161.933,21.084 161.408,21.084 C161.408,21.084 155.561,21.084 155.561,21.084 C155.036,21.084 154.611,20.636 154.611,20.080 C154.611,19.524 155.036,19.075 155.561,19.075 C155.561,19.075 162.588,19.075 162.588,19.075 C162.588,19.075 176.951,19.075 176.951,19.075 C177.475,19.075 177.900,19.524 177.900,20.080 C177.900,20.636 177.475,21.084 176.951,21.084 C176.951,21.084 175.328,21.084 175.328,21.084 C174.803,21.084 174.379,21.535 174.379,22.090 C174.379,22.645 174.803,23.096 175.328,23.096 C175.328,23.096 183.051,23.096 183.051,23.096 C183.576,23.096 184.001,23.545 184.001,24.100 C184.001,24.655 183.576,25.105 183.051,25.105 C183.051,25.105 181.226,25.105 181.226,25.105 C181.226,25.105 164.002,25.105 164.002,25.105 Z" id="path-19" class="cls-17" fill-rule="evenodd"/>
  </g>
</svg>
