<svg xmlns="http://www.w3.org/2000/svg" xmlns:xlink="http://www.w3.org/1999/xlink" preserveAspectRatio="xMidYMid" width="217" height="128" viewBox="0 0 217 128">
  <defs>
    <style>

      .cls-3 {
        fill: #ff3a2f;
      }

      .cls-5 {
        fill: #0cb04a;
      }

      .cls-6 {
        fill: #000000;
        opacity: 0.35;
      }

      .cls-10 {
        fill: #087330;
      }

      .cls-11 {
        fill: #ededed;
      }
    </style>
  </defs>
  <g id="group-126svg">
    <path d="M52.131,101.668 C52.131,101.668 37.030,101.668 37.030,101.668 C34.118,101.668 31.758,103.454 31.758,105.658 C31.758,107.862 34.118,109.648 37.030,109.648 C37.030,109.648 37.733,109.648 37.733,109.648 C40.645,109.648 43.005,111.435 43.005,113.639 C43.005,115.843 40.645,117.628 37.733,117.628 C37.733,117.628 5.269,117.628 5.269,117.628 C2.358,117.628 -0.003,119.414 -0.003,121.618 C-0.003,123.822 2.358,125.608 5.269,125.608 C5.269,125.608 44.282,125.608 44.282,125.608 C44.282,125.608 124.024,125.608 124.024,125.608 C126.935,125.608 129.296,123.822 129.296,121.618 C129.296,119.414 126.935,117.628 124.024,117.628 C124.024,117.628 115.014,117.628 115.014,117.628 C112.102,117.628 109.742,115.843 109.742,113.639 C109.742,111.435 112.102,109.648 115.014,109.648 C115.014,109.648 150.400,109.648 150.400,109.648 C153.312,109.648 155.672,107.862 155.672,105.658 C155.672,103.454 153.312,101.668 150.400,101.668 C150.400,101.668 147.760,101.668 147.760,101.668 C147.760,101.668 52.131,101.668 52.131,101.668 Z" id="path-1" class="cls-3" fill-rule="evenodd"/>
    <path d="M145.790,126.677 C143.349,126.677 141.370,124.763 141.370,122.401 C141.370,120.040 143.349,118.124 145.790,118.124 C145.790,118.124 159.335,118.124 159.335,118.124 C161.776,118.124 163.755,120.040 163.755,122.401 C163.755,124.763 161.776,126.677 159.335,126.677 C159.335,126.677 145.790,126.677 145.790,126.677 Z" id="path-2" class="cls-3" fill-rule="evenodd"/>
    <path d="M127.764,0.004 C84.739,0.004 38.302,13.237 38.302,34.605 C38.302,34.605 38.302,43.575 38.302,43.575 C38.302,50.710 43.877,51.265 45.583,51.265 C45.583,51.265 67.428,51.265 67.428,51.265 C67.428,51.265 82.794,29.063 82.794,29.063 C85.985,24.099 91.075,21.329 97.085,21.329 C97.085,21.329 155.230,21.329 155.230,21.329 C161.769,21.329 168.179,24.467 171.184,29.133 C171.184,29.133 187.531,51.265 187.531,51.265 C187.531,51.265 206.614,51.265 206.614,51.265 C211.523,51.265 217.226,47.906 217.226,43.575 C217.226,43.575 217.226,34.605 217.226,34.605 C217.226,13.237 170.788,0.004 127.764,0.004 Z" id="path-3" class="cls-5" fill-rule="evenodd"/>
    <path d="M157.690,21.329 C157.690,21.329 155.230,21.329 155.230,21.329 C161.769,21.329 168.179,24.467 171.184,29.133 C171.184,29.133 187.531,51.265 187.531,51.265 C187.531,51.265 189.992,51.265 189.992,51.265 C189.992,51.265 173.644,29.133 173.644,29.133 C170.640,24.467 164.229,21.329 157.690,21.329 Z" id="path-4" class="cls-6" fill-rule="evenodd"/>
    <path d="M171.527,4.536 C192.375,10.488 207.383,20.001 207.383,32.145 C207.383,32.145 207.383,41.115 207.383,41.115 C207.383,45.446 201.681,48.804 196.771,48.804 C196.771,48.804 185.714,48.804 185.714,48.804 C185.714,48.804 187.531,51.265 187.531,51.265 C187.531,51.265 206.614,51.265 206.614,51.265 C211.523,51.265 217.226,47.906 217.226,43.575 C217.226,43.575 217.226,34.605 217.226,34.605 C217.226,20.621 197.333,10.122 171.527,4.536 Z" id="path-5" class="cls-6" fill-rule="evenodd"/>
    <path d="M161.462,22.274 C158.542,20.730 148.880,18.868 145.388,18.868 C145.388,18.868 87.243,18.868 87.243,18.868 C81.233,18.868 76.143,21.639 72.952,26.603 C72.952,26.603 57.586,48.804 57.586,48.804 C57.586,48.804 39.880,48.804 39.880,48.804 C41.661,51.011 44.459,51.265 45.583,51.265 C45.583,51.265 67.428,51.265 67.428,51.265 C67.428,51.265 82.794,29.063 82.794,29.063 C85.985,24.099 91.075,21.329 97.085,21.329 C97.085,21.329 97.085,21.329 97.085,21.329 " id="path-6" class="cls-6" fill-rule="evenodd"/>
    <path d="M183.880,103.344 C183.880,103.344 68.425,103.344 68.425,103.344 C62.482,103.344 58.491,99.224 58.491,93.093 C58.491,93.093 58.491,64.899 58.491,64.899 C58.491,64.426 58.638,63.961 58.920,63.558 C58.920,63.558 82.794,29.063 82.794,29.063 C85.985,24.099 91.075,21.329 97.085,21.329 C97.085,21.329 155.230,21.329 155.230,21.329 C161.769,21.329 168.179,24.467 171.184,29.133 C171.184,29.133 196.564,63.494 196.564,63.494 C196.873,63.911 197.037,64.398 197.037,64.899 C197.037,64.899 197.037,93.093 197.037,93.093 C197.037,98.960 190.092,103.344 183.880,103.344 Z" id="path-7" class="cls-5" fill-rule="evenodd"/>
    <path d="M197.037,64.899 C197.037,64.899 197.037,93.093 197.037,93.093 C197.037,98.960 190.092,103.344 183.880,103.344 C183.880,103.344 68.425,103.344 68.425,103.344 C62.482,103.344 58.491,99.224 58.491,93.093 C58.491,93.093 58.491,64.899 58.491,64.899 C58.491,64.899 197.037,64.899 197.037,64.899 Z" id="path-8" class="cls-10" fill-rule="evenodd"/>
    <path d="M127.764,58.697 C111.619,58.697 98.969,51.470 98.969,42.242 C98.969,33.015 111.619,25.789 127.764,25.789 C143.909,25.789 156.559,33.015 156.559,42.242 C156.559,51.470 143.909,58.697 127.764,58.697 Z" id="path-9" class="cls-11" fill-rule="evenodd"/>
    <path d="M127.764,54.699 C115.543,54.699 105.967,49.229 105.967,42.242 C105.967,35.258 115.543,29.787 127.764,29.787 C139.986,29.787 149.562,35.258 149.562,42.242 C149.562,49.229 139.986,54.699 127.764,54.699 Z" id="path-10" class="cls-10" fill-rule="evenodd"/>
  </g>
</svg>
