<svg xmlns="http://www.w3.org/2000/svg" xmlns:xlink="http://www.w3.org/1999/xlink" preserveAspectRatio="xMidYMid" width="218" height="162" viewBox="0 0 218 162">
  <defs>
    <style>

      .cls-3 {
        fill: #ff3a2f;
      }

      .cls-5 {
        fill: #142a3b;
      }

      .cls-6 {
        fill: #fbb713;
      }

      .cls-7 {
        fill: #000000;
        opacity: 0.35;
      }
    </style>
  </defs>
  <g id="group-120svg">
    <path d="M113.995,138.702 C113.995,138.702 100.029,138.702 100.029,138.702 C97.337,138.702 95.154,140.354 95.154,142.392 C95.154,144.429 97.337,146.081 100.029,146.081 C100.029,146.081 100.680,146.081 100.680,146.081 C103.372,146.081 105.555,147.733 105.555,149.771 C105.555,151.810 103.372,153.462 100.680,153.462 C100.680,153.462 70.657,153.462 70.657,153.462 C67.965,153.462 65.782,155.115 65.782,157.152 C65.782,159.189 67.965,160.841 70.657,160.841 C70.657,160.841 106.736,160.841 106.736,160.841 C106.736,160.841 180.481,160.841 180.481,160.841 C183.173,160.841 185.356,159.189 185.356,157.152 C185.356,155.115 183.173,153.462 180.481,153.462 C180.481,153.462 172.149,153.462 172.149,153.462 C169.456,153.462 167.273,151.810 167.273,149.771 C167.273,147.733 169.456,146.081 172.149,146.081 C172.149,146.081 204.873,146.081 204.873,146.081 C207.565,146.081 209.749,144.429 209.749,142.392 C209.749,140.354 207.565,138.702 204.873,138.702 C204.873,138.702 202.430,138.702 202.430,138.702 C202.430,138.702 113.995,138.702 113.995,138.702 Z" id="path-1" class="cls-3" fill-rule="evenodd"/>
    <path d="M200.610,161.830 C198.352,161.830 196.522,160.059 196.522,157.876 C196.522,155.692 198.352,153.921 200.610,153.921 C200.610,153.921 213.136,153.921 213.136,153.921 C215.393,153.921 217.223,155.692 217.223,157.876 C217.223,160.059 215.393,161.830 213.136,161.830 C213.136,161.830 200.610,161.830 200.610,161.830 Z" id="path-2" class="cls-3" fill-rule="evenodd"/>
    <path d="M148.791,153.886 C147.858,153.886 146.926,153.527 146.219,152.812 C146.219,152.812 57.636,63.330 57.636,63.330 C56.228,61.907 56.239,59.614 57.660,58.210 C59.082,56.801 61.376,56.816 62.780,58.234 C62.780,58.234 151.363,147.717 151.363,147.717 C152.770,149.139 152.760,151.431 151.338,152.837 C150.633,153.537 149.712,153.886 148.791,153.886 Z" id="path-3" class="cls-5" fill-rule="evenodd"/>
    <path d="M12.077,12.197 C12.077,12.197 48.324,24.402 48.324,24.402 C48.324,24.402 72.488,-0.007 72.488,-0.007 C72.488,-0.007 68.461,36.608 68.461,36.608 C68.461,36.608 104.708,56.947 104.708,56.947 C104.708,56.947 65.434,66.095 65.434,66.095 C65.434,66.095 56.379,105.765 56.379,105.765 C56.379,105.765 36.242,69.152 36.242,69.152 C36.242,69.152 -0.005,73.221 -0.005,73.221 C-0.005,73.221 24.159,48.811 24.159,48.811 C24.159,48.811 12.077,12.197 12.077,12.197 Z" id="path-4" class="cls-6" fill-rule="evenodd"/>
    <path d="M63.495,31.640 C63.495,31.640 68.687,34.555 68.687,34.555 C68.687,34.555 72.488,-0.007 72.488,-0.007 C72.488,-0.007 66.287,6.257 66.287,6.257 C66.287,6.257 63.495,31.640 63.495,31.640 Z" id="path-5" class="cls-7" fill-rule="evenodd"/>
    <path d="M96.998,52.620 C96.998,52.620 60.468,61.129 60.468,61.129 C60.468,61.129 52.068,97.929 52.068,97.929 C52.068,97.929 56.379,105.765 56.379,105.765 C56.379,105.765 65.434,66.095 65.434,66.095 C65.434,66.095 104.707,56.947 104.707,56.947 C104.707,56.947 96.998,52.620 96.998,52.620 Z" id="path-6" class="cls-7" fill-rule="evenodd"/>
    <path d="M31.275,64.186 C31.275,64.186 6.146,67.007 6.146,67.007 C6.146,67.007 -0.005,73.221 -0.005,73.221 C-0.005,73.221 34.136,69.388 34.136,69.388 C34.136,69.388 31.275,64.186 31.275,64.186 Z" id="path-7" class="cls-7" fill-rule="evenodd"/>
  </g>
</svg>
