<svg xmlns="http://www.w3.org/2000/svg" xmlns:xlink="http://www.w3.org/1999/xlink" preserveAspectRatio="xMidYMid" width="218" height="197" viewBox="0 0 218 197">
  <defs>
    <style>

      .cls-3 {
        fill: #fbb713;
      }

      .cls-5 {
        fill: #142a3b;
      }

      .cls-6 {
        fill: #000000;
        opacity: 0.35;
      }

      .cls-7 {
        fill: #000000;
      }

      .cls-9 {
        fill: #000000;
        opacity: 0.2;
      }

      .cls-13 {
        fill: #ffffff;
      }

      .cls-21 {
        fill: #ff3a2f;
      }
    </style>
  </defs>
  <g id="group-85svg">
    <path d="M95.524,170.059 C95.524,170.059 78.493,170.059 78.493,170.059 C75.208,170.059 72.547,171.999 72.547,174.393 C72.547,176.786 75.208,178.726 78.493,178.726 C78.493,178.726 79.285,178.726 79.285,178.726 C82.569,178.726 85.231,180.667 85.231,183.061 C85.231,185.455 82.569,187.395 79.285,187.395 C79.285,187.395 42.674,187.395 42.674,187.395 C39.389,187.395 36.728,189.335 36.728,191.729 C36.728,194.123 39.389,196.062 42.674,196.062 C42.674,196.062 86.672,196.062 86.672,196.062 C86.672,196.062 176.603,196.062 176.603,196.062 C179.887,196.062 182.549,194.123 182.549,191.729 C182.549,189.335 179.887,187.395 176.603,187.395 C176.603,187.395 166.442,187.395 166.442,187.395 C163.158,187.395 160.496,185.455 160.496,183.061 C160.496,180.667 163.158,178.726 166.442,178.726 C166.442,178.726 206.350,178.726 206.350,178.726 C209.633,178.726 212.295,176.786 212.295,174.393 C212.295,171.999 209.633,170.059 206.350,170.059 C206.350,170.059 203.371,170.059 203.371,170.059 C203.371,170.059 95.524,170.059 95.524,170.059 Z" id="path-1" class="cls-3" fill-rule="evenodd"/>
    <path d="M200.215,196.453 C197.903,196.453 196.028,195.080 196.028,193.387 C196.028,191.694 197.903,190.321 200.215,190.321 C200.215,190.321 213.050,190.321 213.050,190.321 C215.364,190.321 217.239,191.694 217.239,193.387 C217.239,195.080 215.364,196.453 213.050,196.453 C213.050,196.453 200.215,196.453 200.215,196.453 Z" id="path-2" class="cls-3" fill-rule="evenodd"/>
    <path d="M0.011,0.005 C0.011,0.005 0.011,40.925 0.011,40.925 C0.011,40.925 112.174,40.925 112.174,40.925 C112.174,40.925 114.834,70.909 114.834,70.909 C114.834,70.909 87.193,140.559 87.193,140.559 C87.193,140.559 0.011,140.559 0.011,140.559 C0.011,140.559 0.011,170.805 0.011,170.805 C0.011,170.805 169.038,170.805 169.038,170.805 C169.038,170.805 169.038,0.005 169.038,0.005 C169.038,0.005 0.011,0.005 0.011,0.005 Z" id="path-3" class="cls-5" fill-rule="evenodd"/>
    <path d="M0.011,0.005 C0.011,0.005 0.011,5.827 0.011,5.827 C0.011,5.827 163.216,5.827 163.216,5.827 C163.216,5.827 163.216,170.805 163.216,170.805 C163.216,170.805 169.038,170.805 169.038,170.805 C169.038,170.805 169.038,0.005 169.038,0.005 C169.038,0.005 0.011,0.005 0.011,0.005 Z" id="path-4" class="cls-6" fill-rule="evenodd"/>
    <path d="M81.370,146.382 C81.370,146.382 83.681,140.559 83.681,140.559 C83.681,140.559 0.011,140.559 0.011,140.559 C0.011,140.559 0.011,146.382 0.011,146.382 C0.011,146.382 81.370,146.382 81.370,146.382 Z" id="path-5" class="cls-7" fill-rule="evenodd"/>
    <path d="M47.645,140.032 C71.943,140.032 91.640,120.336 91.640,96.040 C91.640,96.040 3.651,96.040 3.651,96.040 C3.651,120.336 23.348,140.032 47.645,140.032 Z" id="path-6" class="cls-3" fill-rule="evenodd"/>
    <path d="M82.906,96.040 C82.906,118.861 65.525,137.618 43.279,139.812 C44.715,139.953 46.171,140.032 47.645,140.032 C71.943,140.032 91.640,120.336 91.640,96.040 C91.640,96.040 82.906,96.040 82.906,96.040 Z" id="path-7" class="cls-9" fill-rule="evenodd"/>
    <path d="M73.849,59.202 C73.849,59.202 17.561,59.202 17.561,59.202 C17.561,59.202 17.561,40.924 17.561,40.924 C17.561,40.924 73.849,40.924 73.849,40.924 C73.849,40.924 73.849,59.202 73.849,59.202 Z" id="path-8" class="cls-5" fill-rule="evenodd"/>
    <path d="M17.561,40.925 C17.561,40.925 17.561,43.837 17.561,43.837 C17.561,43.837 73.849,46.748 73.849,46.748 C73.849,46.748 73.849,40.925 73.849,40.925 C73.849,40.925 17.561,40.925 17.561,40.925 Z" id="path-9" class="cls-6" fill-rule="evenodd"/>
    <path d="M49.587,83.463 C49.587,83.463 41.823,83.463 41.823,83.463 C41.823,83.463 41.823,59.202 41.823,59.202 C41.823,59.202 49.587,59.202 49.587,59.202 C49.587,59.202 49.587,83.463 49.587,83.463 Z" id="path-10" class="cls-5" fill-rule="evenodd"/>
    <path d="M158.282,54.349 C158.282,54.349 128.115,54.349 128.115,54.349 C128.115,54.349 128.115,32.028 128.115,32.028 C128.115,32.028 158.282,32.028 158.282,32.028 C158.282,32.028 158.282,54.349 158.282,54.349 Z" id="path-11" class="cls-13" fill-rule="evenodd"/>
    <path d="M131.027,34.940 C131.027,34.940 158.282,34.940 158.282,34.940 C158.282,34.940 158.282,32.028 158.282,32.028 C158.282,32.028 128.115,32.028 128.115,32.028 C128.115,32.028 128.115,54.350 128.115,54.350 C128.115,54.350 131.027,54.350 131.027,54.350 C131.027,54.350 131.027,34.940 131.027,34.940 Z" id="path-12" class="cls-6" fill-rule="evenodd"/>
    <path d="M141.015,115.226 C135.914,115.226 131.754,119.063 131.150,124.001 C131.150,124.001 126.256,124.001 126.256,124.001 C126.256,124.001 126.256,126.426 126.256,126.426 C126.256,126.426 131.150,126.426 131.150,126.426 C131.754,131.363 135.914,135.201 141.015,135.201 C146.531,135.201 151.003,130.730 151.003,125.213 C151.003,119.698 146.531,115.226 141.015,115.226 Z" id="path-13" class="cls-6" fill-rule="evenodd"/>
    <path d="M138.104,112.314 C133.003,112.314 128.843,116.151 128.238,121.089 C128.238,121.089 123.344,121.089 123.344,121.089 C123.344,121.089 123.344,123.514 123.344,123.514 C123.344,123.514 128.238,123.514 128.238,123.514 C128.843,128.452 133.003,132.289 138.104,132.289 C143.620,132.289 148.092,127.818 148.092,122.302 C148.092,116.786 143.620,112.314 138.104,112.314 Z" id="path-14" class="cls-13" fill-rule="evenodd"/>
    <path d="M133.939,67.452 C133.939,67.452 128.115,67.452 128.115,67.452 C128.115,67.452 128.115,61.143 128.115,61.143 C128.115,61.143 133.939,61.143 133.939,61.143 C133.939,61.143 133.939,67.452 133.939,67.452 Z" id="path-15" class="cls-13" fill-rule="evenodd"/>
    <path d="M158.282,67.452 C158.282,67.452 152.459,67.452 152.459,67.452 C152.459,67.452 152.459,61.143 152.459,61.143 C152.459,61.143 158.282,61.143 158.282,61.143 C158.282,61.143 158.282,67.452 158.282,67.452 Z" id="path-16" class="cls-13" fill-rule="evenodd"/>
    <path d="M158.282,87.830 C158.282,87.830 152.459,87.830 152.459,87.830 C152.459,87.830 152.459,81.523 152.459,81.523 C152.459,81.523 158.282,81.523 158.282,81.523 C158.282,81.523 158.282,87.830 158.282,87.830 Z" id="path-17" class="cls-13" fill-rule="evenodd"/>
    <path d="M133.939,87.830 C133.939,87.830 128.115,87.830 128.115,87.830 C128.115,87.830 128.115,81.523 128.115,81.523 C128.115,81.523 133.939,81.523 133.939,81.523 C133.939,81.523 133.939,87.830 133.939,87.830 Z" id="path-18" class="cls-13" fill-rule="evenodd"/>
    <path d="M47.645,178.568 C47.645,178.568 15.619,178.568 15.619,178.568 C15.619,178.568 15.619,170.805 15.619,170.805 C15.619,170.805 47.645,170.805 47.645,170.805 C47.645,170.805 47.645,178.568 47.645,178.568 Z" id="path-19" class="cls-21" fill-rule="evenodd"/>
    <path d="M164.105,178.568 C164.105,178.568 132.078,178.568 132.078,178.568 C132.078,178.568 132.078,170.805 132.078,170.805 C132.078,170.805 164.105,170.805 164.105,170.805 C164.105,170.805 164.105,178.568 164.105,178.568 Z" id="path-20" class="cls-21" fill-rule="evenodd"/>
    <path d="M47.645,170.805 C47.645,170.805 15.619,170.805 15.619,170.805 C15.619,170.805 15.619,174.686 15.619,174.686 C15.619,174.686 47.645,174.686 47.645,174.686 C47.645,174.686 47.645,170.805 47.645,170.805 Z" id="path-21" class="cls-6" fill-rule="evenodd"/>
    <path d="M132.078,170.805 C132.078,170.805 132.078,174.686 132.078,174.686 C132.078,174.686 164.104,174.686 164.104,174.686 C164.104,174.686 164.104,170.805 164.104,170.805 C164.104,170.805 132.078,170.805 132.078,170.805 Z" id="path-22" class="cls-6" fill-rule="evenodd"/>
  </g>
</svg>
