<svg xmlns="http://www.w3.org/2000/svg" xmlns:xlink="http://www.w3.org/1999/xlink" preserveAspectRatio="xMidYMid" width="149" height="218" viewBox="0 0 149 218">
  <defs>
    <style>

      .cls-3 {
        fill: #ff3a2f;
      }

      .cls-7 {
        fill: #142a3b;
      }

      .cls-8 {
        fill: #000000;
      }

      .cls-9 {
        fill: #000000;
        opacity: 0.35;
      }

      .cls-14 {
        fill: #ededed;
      }

      .cls-19 {
        fill: #fbb713;
      }

      .cls-20 {
        fill: #2476ff;
      }

      .cls-21 {
        fill: #000000;
        opacity: 0.25;
      }
    </style>
  </defs>
  <g id="group-156svg">
    <path d="M78.074,201.816 C78.074,201.816 71.497,201.816 71.497,201.816 C70.228,201.816 69.200,202.919 69.200,204.276 C69.200,205.636 70.228,206.736 71.497,206.736 C71.497,206.736 71.803,206.736 71.803,206.736 C73.071,206.736 74.099,207.838 74.099,209.196 C74.099,210.555 73.071,211.656 71.803,211.656 C71.803,211.656 57.663,211.656 57.663,211.656 C56.395,211.656 55.367,212.755 55.367,214.115 C55.367,215.473 56.395,216.575 57.663,216.575 C57.663,216.575 74.656,216.575 74.656,216.575 C74.656,216.575 109.388,216.575 109.388,216.575 C110.656,216.575 111.684,215.473 111.684,214.115 C111.684,212.755 110.656,211.656 109.388,211.656 C109.388,211.656 105.463,211.656 105.463,211.656 C104.195,211.656 103.166,210.555 103.166,209.196 C103.166,207.838 104.195,206.736 105.463,206.736 C105.463,206.736 120.875,206.736 120.875,206.736 C122.144,206.736 123.172,205.636 123.172,204.276 C123.172,202.919 122.144,201.816 120.875,201.816 C120.875,201.816 119.725,201.816 119.725,201.816 C119.725,201.816 78.074,201.816 78.074,201.816 Z" id="path-1" class="cls-3" fill-rule="evenodd"/>
    <path d="M118.868,217.233 C117.805,217.233 116.942,216.052 116.942,214.598 C116.942,213.141 117.805,211.962 118.868,211.962 C118.868,211.962 124.767,211.962 124.767,211.962 C125.831,211.962 126.693,213.141 126.693,214.598 C126.693,216.052 125.831,217.233 124.767,217.233 C124.767,217.233 118.868,217.233 118.868,217.233 Z" id="path-2" class="cls-3" fill-rule="evenodd"/>
    <path d="M108.221,175.147 C108.221,175.147 105.603,175.147 105.603,175.147 C105.098,175.147 104.689,175.585 104.689,176.127 C104.689,176.667 105.098,177.106 105.603,177.106 C105.603,177.106 105.724,177.106 105.724,177.106 C106.229,177.106 106.639,177.543 106.639,178.084 C106.639,178.625 106.229,179.064 105.724,179.064 C105.724,179.064 100.096,179.064 100.096,179.064 C99.591,179.064 99.182,179.502 99.182,180.042 C99.182,180.584 99.591,181.022 100.096,181.022 C100.096,181.022 106.860,181.022 106.860,181.022 C106.860,181.022 120.686,181.022 120.686,181.022 C121.191,181.022 121.600,180.584 121.600,180.042 C121.600,179.502 121.191,179.064 120.686,179.064 C120.686,179.064 119.124,179.064 119.124,179.064 C118.619,179.064 118.210,178.625 118.210,178.084 C118.210,177.543 118.619,177.106 119.124,177.106 C119.124,177.106 125.259,177.106 125.259,177.106 C125.764,177.106 126.173,176.667 126.173,176.127 C126.173,175.585 125.764,175.147 125.259,175.147 C125.259,175.147 124.801,175.147 124.801,175.147 C124.801,175.147 108.221,175.147 108.221,175.147 Z" id="path-3" class="cls-3" fill-rule="evenodd"/>
    <path d="M106.607,112.588 C106.607,112.588 102.425,112.588 102.425,112.588 C101.619,112.588 100.965,113.139 100.965,113.818 C100.965,114.497 101.619,115.048 102.425,115.048 C102.425,115.048 102.620,115.048 102.620,115.048 C103.426,115.048 104.080,115.598 104.080,116.278 C104.080,116.956 103.426,117.507 102.620,117.507 C102.620,117.507 93.629,117.507 93.629,117.507 C92.823,117.507 92.169,118.058 92.169,118.738 C92.169,119.416 92.823,119.967 93.629,119.967 C93.629,119.967 104.433,119.967 104.433,119.967 C104.433,119.967 126.518,119.967 126.518,119.967 C127.324,119.967 127.978,119.416 127.978,118.738 C127.978,118.058 127.324,117.507 126.518,117.507 C126.518,117.507 124.023,117.507 124.023,117.507 C123.216,117.507 122.562,116.956 122.562,116.278 C122.562,115.598 123.216,115.048 124.023,115.048 C124.023,115.048 133.822,115.048 133.822,115.048 C134.629,115.048 135.282,114.497 135.282,113.818 C135.282,113.139 134.629,112.588 133.822,112.588 C133.822,112.588 133.091,112.588 133.091,112.588 C133.091,112.588 106.607,112.588 106.607,112.588 Z" id="path-4" class="cls-3" fill-rule="evenodd"/>
    <path d="M40.586,178.084 C40.586,178.084 70.403,178.084 70.403,178.084 C52.669,170.108 39.853,147.186 39.853,120.137 C39.853,107.209 42.782,95.227 47.775,85.368 C47.775,85.368 36.579,85.368 36.579,85.368 C27.778,96.504 22.262,112.469 22.262,130.214 C22.262,150.518 29.486,168.492 40.586,179.574 C40.586,179.574 40.586,178.084 40.586,178.084 Z" id="path-5" class="cls-7" fill-rule="evenodd"/>
    <path d="M40.586,179.574 C40.586,179.574 40.586,178.084 40.586,178.084 C40.586,178.084 39.262,178.084 39.262,178.084 C39.710,178.570 40.124,179.112 40.586,179.574 Z" id="path-6" class="cls-8" fill-rule="evenodd"/>
    <path d="M39.853,120.137 C39.853,107.209 42.782,95.227 47.775,85.368 C47.775,85.368 38.252,85.368 38.252,85.368 C33.259,95.227 30.329,107.209 30.329,120.137 C30.329,147.186 43.145,170.108 60.880,178.084 C60.880,178.084 70.403,178.084 70.403,178.084 C52.669,170.108 39.853,147.186 39.853,120.137 Z" id="path-7" class="cls-9" fill-rule="evenodd"/>
    <path d="M101.295,132.469 C101.295,132.469 101.295,155.939 101.295,155.939 C101.295,155.939 70.235,155.939 70.235,155.939 C70.235,155.939 70.235,161.956 70.235,161.956 C70.235,161.956 116.941,161.956 116.941,161.956 C116.941,161.956 116.941,160.753 116.941,160.753 C116.941,160.753 116.941,155.939 116.941,155.939 C116.941,155.939 116.941,132.469 116.941,132.469 C116.941,132.469 101.295,132.469 101.295,132.469 Z" id="path-8" class="cls-7" fill-rule="evenodd"/>
    <path d="M87.855,192.044 C87.855,192.044 37.306,192.044 37.306,192.044 C37.306,192.044 44.033,158.410 44.033,158.410 C45.720,149.976 53.127,143.903 61.729,143.903 C61.729,143.903 61.729,143.903 61.729,143.903 C70.010,143.903 77.229,149.540 79.237,157.573 C79.237,157.573 87.855,192.044 87.855,192.044 Z" id="path-9" class="cls-7" fill-rule="evenodd"/>
    <path d="M79.237,157.573 C78.032,152.752 74.930,148.827 70.868,146.432 C71.741,147.906 72.456,149.496 72.888,151.224 C72.888,151.224 81.506,185.695 81.506,185.695 C81.506,185.695 38.576,185.695 38.576,185.695 C38.576,185.695 37.306,192.043 37.306,192.043 C37.306,192.043 87.855,192.043 87.855,192.043 C87.855,192.043 79.237,157.573 79.237,157.573 Z" id="path-10" class="cls-9" fill-rule="evenodd"/>
    <path d="M72.739,78.312 C72.739,90.571 62.803,100.506 50.544,100.506 C38.288,100.506 28.350,90.571 28.350,78.312 C28.350,66.055 38.288,56.119 50.544,56.119 C62.803,56.119 72.739,66.055 72.739,78.312 Z" id="path-11" class="cls-7" fill-rule="evenodd"/>
    <path d="M72.811,172.186 C72.811,177.836 68.231,182.417 62.581,182.417 C56.931,182.417 52.350,177.836 52.350,172.186 C52.350,166.536 56.931,161.956 62.581,161.956 C68.231,161.956 72.811,166.536 72.811,172.186 Z" id="path-12" class="cls-14" fill-rule="evenodd"/>
    <path d="M61.545,78.312 C61.545,84.388 56.621,89.312 50.544,89.312 C44.470,89.312 39.545,84.388 39.545,78.312 C39.545,72.237 44.470,67.312 50.544,67.312 C56.621,67.312 61.545,72.237 61.545,78.312 Z" id="path-13" class="cls-14" fill-rule="evenodd"/>
    <path d="M148.233,127.054 C148.233,127.054 70.403,127.054 70.403,127.054 C70.403,127.054 70.403,118.630 70.403,118.630 C70.403,118.630 148.233,118.630 148.233,118.630 C148.233,118.630 148.233,127.054 148.233,127.054 Z" id="path-14" class="cls-7" fill-rule="evenodd"/>
    <path d="M133.791,134.058 C133.791,134.058 87.354,134.058 87.354,134.058 C87.354,134.058 87.354,126.067 87.354,126.067 C87.354,126.067 133.791,126.067 133.791,126.067 C133.791,126.067 133.791,134.058 133.791,134.058 Z" id="path-15" class="cls-7" fill-rule="evenodd"/>
    <path d="M133.791,130.966 C133.791,130.966 87.354,127.791 87.354,127.791 C87.354,127.791 87.354,126.067 87.354,126.067 C87.354,126.067 133.791,126.067 133.791,126.067 C133.791,126.067 133.791,130.966 133.791,130.966 Z" id="path-16" class="cls-9" fill-rule="evenodd"/>
    <path d="M117.654,84.709 C117.654,84.709 90.136,112.225 90.136,112.225 C90.136,112.225 12.642,34.733 12.642,34.733 C12.642,34.733 40.159,7.216 40.159,7.216 C40.159,7.216 117.654,84.709 117.654,84.709 Z" id="path-17" class="cls-19" fill-rule="evenodd"/>
    <path d="M34.556,12.819 C34.556,12.819 18.245,29.130 18.245,29.130 C18.245,29.130 5.437,16.323 5.437,16.323 C5.437,16.323 21.749,0.013 21.749,0.013 C21.749,0.013 34.556,12.819 34.556,12.819 Z" id="path-18" class="cls-20" fill-rule="evenodd"/>
    <path d="M75.471,88.036 C75.471,88.036 17.404,29.971 17.404,29.971 C17.404,29.971 12.642,34.733 12.642,34.733 C12.642,34.733 90.136,112.225 90.136,112.225 C90.136,112.225 117.653,84.709 117.653,84.709 C117.653,84.709 112.892,79.947 112.892,79.947 C112.892,79.947 104.803,88.036 104.803,88.036 C96.703,96.135 83.571,96.135 75.471,88.036 Z" id="path-19" class="cls-21" fill-rule="evenodd"/>
    <path d="M12.589,17.125 C12.589,17.125 8.612,13.149 8.612,13.149 C8.612,13.149 5.437,16.323 5.437,16.323 C5.437,16.323 18.245,29.130 18.245,29.130 C18.245,29.130 34.556,12.819 34.556,12.819 C34.556,12.819 31.381,9.645 31.381,9.645 C31.381,9.645 23.901,17.125 23.901,17.125 C20.777,20.249 15.713,20.249 12.589,17.125 Z" id="path-20" class="cls-9" fill-rule="evenodd"/>
    <path d="M117.086,95.346 C117.086,95.346 100.774,111.657 100.774,111.657 C100.774,111.657 95.647,106.531 95.647,106.531 C95.647,106.531 111.959,90.220 111.959,90.220 C111.959,90.220 117.086,95.346 117.086,95.346 Z" id="path-21" class="cls-20" fill-rule="evenodd"/>
    <path d="M115.537,189.336 C115.537,189.336 9.625,189.336 9.625,189.336 C4.307,189.336 -0.003,195.533 -0.003,203.177 C-0.003,203.177 125.165,203.177 125.165,203.177 C125.165,195.533 120.854,189.336 115.537,189.336 Z" id="path-22" class="cls-7" fill-rule="evenodd"/>
    <path d="M-0.003,203.177 C-0.003,203.177 125.165,203.177 125.165,203.177 C125.165,200.643 124.657,198.299 123.830,196.256 C123.830,196.256 1.332,196.256 1.332,196.256 C0.504,198.299 -0.003,200.643 -0.003,203.177 Z" id="path-23" class="cls-9" fill-rule="evenodd"/>
    <path d="M32.112,65.950 C32.112,65.950 67.240,93.188 67.240,93.188 C68.829,90.884 67.240,93.188 68.829,90.884 C68.829,90.884 37.975,60.029 37.975,60.029 C35.669,61.619 33.675,63.626 32.112,65.950 Z" id="path-24" class="cls-9" fill-rule="evenodd"/>
    <path d="M116.941,141.357 C116.941,141.357 101.506,138.183 101.506,138.183 C101.506,138.183 101.506,134.058 101.506,134.058 C101.506,134.058 116.941,134.058 116.941,134.058 C116.941,134.058 116.941,141.357 116.941,141.357 Z" id="path-25" class="cls-9" fill-rule="evenodd"/>
    <path d="M112.677,90.895 C112.677,90.895 98.530,109.414 98.530,109.414 C98.530,109.414 95.596,106.367 95.596,106.367 C95.596,106.367 111.874,90.090 111.874,90.090 C111.874,90.090 112.677,90.895 112.677,90.895 Z" id="path-26" class="cls-9" fill-rule="evenodd"/>
    <path d="M93.589,74.718 C92.663,74.718 91.740,74.367 91.033,73.661 C91.033,73.661 49.793,32.535 49.793,32.535 C48.376,31.122 48.376,28.831 49.786,27.416 C51.201,26.003 53.492,25.996 54.906,27.409 C54.906,27.409 96.146,68.534 96.146,68.534 C97.563,69.947 97.563,72.238 96.153,73.654 C95.445,74.362 94.519,74.718 93.589,74.718 Z" id="path-27" class="cls-14" fill-rule="evenodd"/>
  </g>
</svg>
