<svg xmlns="http://www.w3.org/2000/svg" xmlns:xlink="http://www.w3.org/1999/xlink" preserveAspectRatio="xMidYMid" width="217" height="176" viewBox="0 0 217 176">
  <defs>
    <style>

      .cls-3 {
        fill: #ff3a2f;
      }

      .cls-6 {
        fill: #142a3b;
      }

      .cls-7 {
        fill: #000000;
        opacity: 0.45;
      }

      .cls-8 {
        fill: #0cb04a;
      }

      .cls-9 {
        fill: #000000;
        opacity: 0.35;
      }

      .cls-16 {
        fill: #ededed;
      }

      .cls-17 {
        fill: #000000;
        opacity: 0.25;
      }
    </style>
  </defs>
  <g id="group-122svg">
    <path d="M101.500,149.208 C101.500,149.208 85.843,149.208 85.843,149.208 C82.825,149.208 80.378,151.061 80.378,153.346 C80.378,155.630 82.825,157.482 85.843,157.482 C85.843,157.482 86.572,157.482 86.572,157.482 C89.591,157.482 92.038,159.335 92.038,161.620 C92.038,163.904 89.591,165.757 86.572,165.757 C86.572,165.757 52.915,165.757 52.915,165.757 C49.897,165.757 47.450,167.608 47.450,169.893 C47.450,172.177 49.897,174.029 52.915,174.029 C52.915,174.029 93.362,174.029 93.362,174.029 C93.362,174.029 176.034,174.029 176.034,174.029 C179.053,174.029 181.500,172.177 181.500,169.893 C181.500,167.608 179.053,165.757 176.034,165.757 C176.034,165.757 166.694,165.757 166.694,165.757 C163.675,165.757 161.228,163.904 161.228,161.620 C161.228,159.335 163.675,157.482 166.694,157.482 C166.694,157.482 203.380,157.482 203.380,157.482 C206.398,157.482 208.847,155.630 208.847,153.346 C208.847,151.061 206.398,149.208 203.380,149.208 C203.380,149.208 200.642,149.208 200.642,149.208 C200.642,149.208 101.500,149.208 101.500,149.208 Z" id="path-1" class="cls-3" fill-rule="evenodd"/>
    <path d="M198.601,175.137 C196.070,175.137 194.018,173.153 194.018,170.704 C194.018,168.256 196.070,166.270 198.601,166.270 C198.601,166.270 212.644,166.270 212.644,166.270 C215.174,166.270 217.226,168.256 217.226,170.704 C217.226,173.153 215.174,175.137 212.644,175.137 C212.644,175.137 198.601,175.137 198.601,175.137 Z" id="path-2" class="cls-3" fill-rule="evenodd"/>
    <path d="M4.580,175.137 C2.049,175.137 -0.003,173.153 -0.003,170.704 C-0.003,168.256 2.049,166.270 4.580,166.270 C4.580,166.270 18.622,166.270 18.622,166.270 C21.154,166.270 23.205,168.256 23.205,170.704 C23.205,173.153 21.154,175.137 18.622,175.137 C18.622,175.137 4.580,175.137 4.580,175.137 Z" id="path-3" class="cls-3" fill-rule="evenodd"/>
    <path d="M181.877,8.075 C181.877,8.075 126.271,159.907 126.271,159.907 C126.271,159.907 70.665,8.075 70.665,8.075 C70.665,8.075 181.877,8.075 181.877,8.075 Z" id="path-4" class="cls-6" fill-rule="evenodd"/>
    <path d="M80.601,12.303 C80.601,12.303 101.378,43.722 101.378,43.722 C101.378,43.722 127.337,20.563 127.337,20.563 C127.337,20.563 153.296,43.722 153.296,43.722 C153.296,43.722 177.508,13.033 177.508,13.033 C177.508,13.033 126.981,15.095 126.981,15.095 C126.981,15.095 80.601,12.303 80.601,12.303 Z" id="path-5" class="cls-7" fill-rule="evenodd"/>
    <path d="M35.478,29.443 C35.478,29.443 115.484,155.144 115.484,155.144 C115.484,155.144 122.077,138.076 122.077,138.076 C122.077,138.076 76.073,-0.003 76.073,-0.003 C76.073,-0.003 76.073,-0.003 76.073,-0.003 " id="path-6" class="cls-8" fill-rule="evenodd"/>
    <path d="M76.073,-0.003 C76.073,-0.003 70.842,3.792 70.842,3.792 C70.842,3.792 113.726,132.509 113.726,132.509 C113.726,132.509 108.949,144.876 108.949,144.876 C108.949,144.876 115.484,155.144 115.484,155.144 C115.484,155.144 122.077,138.076 122.077,138.076 C122.077,138.076 76.073,-0.003 76.073,-0.003 Z" id="path-7" class="cls-9" fill-rule="evenodd"/>
    <path d="M175.396,0.039 C175.396,0.039 113.864,159.338 113.864,159.338 C113.864,159.338 132.188,159.338 132.188,159.338 C135.588,143.777 213.628,26.423 213.628,26.423 C213.628,26.423 213.628,26.423 213.628,26.423 " id="path-8" class="cls-8" fill-rule="evenodd"/>
    <path d="M175.396,0.039 C175.396,0.039 172.203,8.304 172.203,8.304 C172.203,8.304 191.678,21.742 191.678,21.742 C197.677,25.883 199.273,34.058 195.264,40.148 C176.947,67.975 129.620,140.577 121.988,159.338 C121.988,159.338 132.188,159.338 132.188,159.338 C135.589,143.777 213.628,26.423 213.628,26.423 C213.628,26.423 175.396,0.039 175.396,0.039 Z" id="path-9" class="cls-9" fill-rule="evenodd"/>
    <path d="M142.665,25.464 C142.665,25.464 134.224,37.500 134.224,37.500 C134.224,37.500 117.936,37.500 117.936,37.500 C117.936,37.500 108.611,25.464 108.611,25.464 C108.611,25.464 125.638,10.014 125.638,10.014 C125.638,10.014 142.665,25.464 142.665,25.464 Z" id="path-10" class="cls-3" fill-rule="evenodd"/>
    <path d="M117.936,37.500 C117.936,37.500 96.631,61.781 104.179,84.568 C104.179,84.568 120.579,141.952 120.579,141.952 C120.579,141.952 142.708,84.568 142.708,84.568 C151.154,62.676 134.224,37.500 134.224,37.500 C134.224,37.500 134.224,37.500 134.224,37.500 " id="path-11" class="cls-3" fill-rule="evenodd"/>
    <path d="M125.638,10.014 C125.638,10.014 121.463,13.803 121.463,13.803 C121.463,13.803 134.315,28.247 134.315,28.247 C134.315,28.247 125.873,37.500 125.873,37.500 C125.873,37.500 134.224,37.500 134.224,37.500 C134.224,37.500 142.665,25.464 142.665,25.464 C142.665,25.464 125.638,10.014 125.638,10.014 Z" id="path-12" class="cls-9" fill-rule="evenodd"/>
    <path d="M134.224,37.500 C134.224,37.500 125.873,37.500 125.873,37.500 C125.873,37.500 142.803,62.676 134.357,84.568 C134.357,84.568 117.025,129.516 117.025,129.516 C117.025,129.516 120.579,141.952 120.579,141.952 C120.579,141.952 142.708,84.568 142.708,84.568 C151.154,62.676 134.224,37.500 134.224,37.500 Z" id="path-13" class="cls-9" fill-rule="evenodd"/>
    <path d="M77.817,3.952 C77.817,3.952 98.594,35.371 98.594,35.371 C98.594,35.371 124.553,12.212 124.553,12.212 C124.553,12.212 150.512,35.371 150.512,35.371 C150.512,35.371 174.724,4.683 174.724,4.683 C174.724,4.683 124.198,6.743 124.198,6.743 C124.198,6.743 77.817,3.952 77.817,3.952 Z" id="path-14" class="cls-16" fill-rule="evenodd"/>
    <path d="M118.986,9.429 C118.986,9.429 95.371,30.496 95.371,30.496 C95.371,30.496 98.594,35.371 98.594,35.371 C98.594,35.371 123.330,13.304 123.330,13.304 C123.330,13.304 118.986,9.429 118.986,9.429 Z" id="path-15" class="cls-17" fill-rule="evenodd"/>
    <path d="M166.703,5.010 C166.703,5.010 145.956,31.307 145.956,31.307 C145.956,31.307 150.512,35.371 150.512,35.371 C150.512,35.371 174.724,4.683 174.724,4.683 C174.724,4.683 166.703,5.010 166.703,5.010 Z" id="path-16" class="cls-17" fill-rule="evenodd"/>
  </g>
</svg>
