<svg xmlns="http://www.w3.org/2000/svg" xmlns:xlink="http://www.w3.org/1999/xlink" preserveAspectRatio="xMidYMid" width="217" height="184" viewBox="0 0 217 184">
  <defs>
    <style>

      .cls-3 {
        fill: #142a3b;
      }

      .cls-4 {
        fill: #000000;
        opacity: 0.35;
      }

      .cls-7 {
        fill: #ffffff;
      }

      .cls-10 {
        fill: #0cb04a;
      }

      .cls-13 {
        fill: #ff3a2f;
      }
    </style>
  </defs>
  <g id="group-72svg">
    <path d="M130.790,180.792 C130.790,180.792 86.439,180.792 86.439,180.792 C86.439,180.792 86.439,153.526 86.439,153.526 C86.439,153.526 130.790,153.526 130.790,153.526 C130.790,153.526 130.790,180.792 130.790,180.792 Z" id="path-1" class="cls-3" fill-rule="evenodd"/>
    <path d="M86.439,153.526 C86.439,153.526 86.439,157.146 86.439,157.146 C86.439,157.146 123.549,164.387 123.549,164.387 C123.549,164.387 123.549,172.191 123.549,172.191 C123.549,172.191 86.439,177.171 86.439,177.171 C86.439,177.171 130.790,177.170 130.790,177.170 C130.790,177.170 130.790,153.526 130.790,153.526 C130.790,153.526 86.439,153.526 86.439,153.526 Z" id="path-2" class="cls-4" fill-rule="evenodd"/>
    <path d="M217.229,157.484 C217.229,157.484 0.000,157.484 0.000,157.484 C0.000,157.484 0.000,-0.002 0.000,-0.002 C0.000,-0.002 217.229,-0.002 217.229,-0.002 C217.229,-0.002 217.229,157.484 217.229,157.484 Z" id="path-3" class="cls-3" fill-rule="evenodd"/>
    <path d="M209.988,-0.002 C209.988,-0.002 209.988,150.243 209.988,150.243 C209.988,150.243 0.000,150.243 0.000,150.243 C0.000,150.243 0.000,157.484 0.000,157.484 C0.000,157.484 217.229,157.484 217.229,157.484 C217.229,157.484 217.229,-0.002 217.229,-0.002 C217.229,-0.002 209.988,-0.002 209.988,-0.002 Z" id="path-4" class="cls-4" fill-rule="evenodd"/>
    <path d="M197.316,138.522 C197.316,138.522 19.913,138.522 19.913,138.522 C19.913,138.522 19.913,18.960 19.913,18.960 C19.913,18.960 197.316,18.960 197.316,18.960 C197.316,18.960 197.316,138.522 197.316,138.522 Z" id="path-5" class="cls-7" fill-rule="evenodd"/>
    <path d="M27.154,26.202 C27.154,26.202 197.316,26.202 197.316,26.202 C197.316,26.202 197.316,18.960 197.316,18.960 C197.316,18.960 19.913,18.960 19.913,18.960 C19.913,18.960 19.913,138.522 19.913,138.522 C19.913,138.522 27.154,138.522 27.154,138.522 C27.154,138.522 27.154,26.202 27.154,26.202 Z" id="path-6" class="cls-4" fill-rule="evenodd"/>
    <path d="M152.513,183.279 C152.513,183.279 64.716,183.279 64.716,183.279 C64.716,183.279 64.716,177.848 64.716,177.848 C64.716,177.848 152.513,177.848 152.513,177.848 C152.513,177.848 152.513,183.279 152.513,183.279 Z" id="path-7" class="cls-3" fill-rule="evenodd"/>
    <path d="M109.723,73.839 C109.723,73.839 98.948,73.839 98.948,73.839 C96.871,73.839 95.186,76.251 95.186,79.227 C95.186,82.204 96.871,84.617 98.948,84.617 C98.948,84.617 99.449,84.617 99.449,84.617 C101.527,84.617 103.211,87.031 103.211,90.007 C103.211,92.983 101.527,95.396 99.449,95.396 C99.449,95.396 76.286,95.396 76.286,95.396 C74.209,95.396 72.524,97.809 72.524,100.786 C72.524,103.762 74.209,106.175 76.286,106.175 C76.286,106.175 104.123,106.175 104.123,106.175 C104.123,106.175 161.020,106.175 161.020,106.175 C163.098,106.175 164.781,103.762 164.781,100.786 C164.781,97.809 163.098,95.396 161.020,95.396 C161.020,95.396 154.591,95.396 154.591,95.396 C152.514,95.396 150.830,92.983 150.830,90.007 C150.830,87.031 152.514,84.617 154.591,84.617 C154.591,84.617 179.840,84.617 179.840,84.617 C181.918,84.617 183.602,82.204 183.602,79.227 C183.602,76.251 181.918,73.839 179.840,73.839 C179.840,73.839 177.956,73.839 177.956,73.839 C177.956,73.839 109.723,73.839 109.723,73.839 Z" id="path-8" class="cls-10" fill-rule="evenodd"/>
    <path d="M175.959,106.660 C174.496,106.660 173.309,104.953 173.309,102.847 C173.309,100.741 174.496,99.035 175.959,99.035 C175.959,99.035 184.079,99.035 184.079,99.035 C185.543,99.035 186.730,100.741 186.730,102.847 C186.730,104.953 185.543,106.660 184.079,106.660 C184.079,106.660 175.959,106.660 175.959,106.660 Z" id="path-9" class="cls-10" fill-rule="evenodd"/>
    <path d="M50.511,105.535 C49.047,105.535 47.861,103.827 47.861,101.723 C47.861,99.618 49.047,97.911 50.511,97.911 C50.511,97.911 58.632,97.911 58.632,97.911 C60.095,97.911 61.281,99.618 61.281,101.723 C61.281,103.827 60.095,105.535 58.632,105.535 C58.632,105.535 50.511,105.535 50.511,105.535 Z" id="path-10" class="cls-10" fill-rule="evenodd"/>
    <path d="M91.118,44.146 C91.118,44.146 82.933,44.146 82.933,44.146 C81.355,44.146 80.075,45.866 80.075,47.987 C80.075,50.108 81.355,51.827 82.933,51.827 C82.933,51.827 83.314,51.827 83.314,51.827 C84.892,51.827 86.172,53.547 86.172,55.667 C86.172,57.789 84.892,59.508 83.314,59.508 C83.314,59.508 65.719,59.508 65.719,59.508 C64.142,59.508 62.862,61.227 62.862,63.348 C62.862,65.469 64.142,67.189 65.719,67.189 C65.719,67.189 86.863,67.189 86.863,67.189 C86.863,67.189 130.080,67.189 130.080,67.189 C131.659,67.189 132.938,65.469 132.938,63.348 C132.938,61.227 131.659,59.508 130.080,59.508 C130.080,59.508 125.197,59.508 125.197,59.508 C123.620,59.508 122.340,57.789 122.340,55.667 C122.340,53.547 123.620,51.827 125.197,51.827 C125.197,51.827 148.437,51.827 148.437,51.827 C150.015,51.827 151.294,50.108 151.294,47.987 C151.294,45.866 150.015,44.146 148.437,44.146 C148.437,44.146 142.944,44.146 142.944,44.146 C142.944,44.146 91.118,44.146 91.118,44.146 Z" id="path-11" class="cls-13" fill-rule="evenodd"/>
    <path d="M56.636,50.600 C54.787,50.600 53.289,48.630 53.289,46.197 C53.289,43.766 54.787,41.795 56.636,41.795 C56.636,41.795 66.894,41.795 66.894,41.795 C68.743,41.795 70.242,43.766 70.242,46.197 C70.242,48.630 68.743,50.600 66.894,50.600 C66.894,50.600 56.636,50.600 56.636,50.600 Z" id="path-12" class="cls-13" fill-rule="evenodd"/>
  </g>
</svg>
