<svg xmlns="http://www.w3.org/2000/svg" xmlns:xlink="http://www.w3.org/1999/xlink" preserveAspectRatio="xMidYMid" width="217" height="191" viewBox="0 0 217 191">
  <defs>
    <style>

      .cls-3 {
        fill: #ff3a2f;
      }

      .cls-5 {
        fill: #0cb04a;
      }

      .cls-6 {
        fill: #fbb713;
      }

      .cls-7 {
        fill: #000000;
        opacity: 0.35;
      }

      .cls-8 {
        fill: #142a3b;
      }
    </style>
  </defs>
  <g id="group-142svg">
    <path d="M49.487,167.398 C49.487,167.398 35.152,167.398 35.152,167.398 C32.388,167.398 30.147,169.095 30.147,171.186 C30.147,173.278 32.388,174.974 35.152,174.974 C35.152,174.974 35.819,174.974 35.819,174.974 C38.583,174.974 40.823,176.669 40.823,178.761 C40.823,180.854 38.583,182.549 35.819,182.549 C35.819,182.549 5.002,182.549 5.002,182.549 C2.238,182.549 -0.003,184.246 -0.003,186.337 C-0.003,188.430 2.238,190.125 5.002,190.125 C5.002,190.125 42.036,190.125 42.036,190.125 C42.036,190.125 117.734,190.125 117.734,190.125 C120.498,190.125 122.738,188.430 122.738,186.337 C122.738,184.246 120.498,182.549 117.734,182.549 C117.734,182.549 109.181,182.549 109.181,182.549 C106.417,182.549 104.177,180.854 104.177,178.761 C104.177,176.669 106.417,174.974 109.181,174.974 C109.181,174.974 142.773,174.974 142.773,174.974 C145.536,174.974 147.777,173.278 147.777,171.186 C147.777,169.095 145.536,167.398 142.773,167.398 C142.773,167.398 140.266,167.398 140.266,167.398 C140.266,167.398 49.487,167.398 49.487,167.398 Z" id="path-1" class="cls-3" fill-rule="evenodd"/>
    <path d="M138.396,191.140 C136.079,191.140 134.201,189.323 134.201,187.080 C134.201,184.838 136.079,183.021 138.396,183.021 C138.396,183.021 151.254,183.021 151.254,183.021 C153.571,183.021 155.450,184.838 155.450,187.080 C155.450,189.323 153.571,191.140 151.254,191.140 C151.254,191.140 138.396,191.140 138.396,191.140 Z" id="path-2" class="cls-3" fill-rule="evenodd"/>
    <path d="M63.144,49.223 C63.144,49.223 217.226,24.520 217.226,24.520 C217.226,24.520 214.138,3.230 214.138,3.230 C214.138,1.450 212.738,0.007 211.007,0.007 C211.007,0.007 53.729,27.799 53.729,27.799 C52.000,27.799 50.598,29.243 50.598,31.023 C50.598,31.023 50.598,80.032 50.598,80.032 C50.598,81.814 52.000,83.256 53.729,83.256 C53.729,83.256 211.007,83.256 211.007,83.256 C212.738,83.256 214.138,81.814 214.138,80.032 C214.138,80.032 214.138,61.671 214.138,61.671 C214.138,61.671 63.144,61.962 63.144,61.962 C63.144,61.962 63.144,61.962 63.144,61.962 " id="path-3" class="cls-5" fill-rule="evenodd"/>
    <path d="M214.270,80.227 C214.270,80.227 214.270,166.830 214.270,166.830 C214.270,168.496 212.892,169.851 211.194,169.851 C211.194,169.851 53.671,169.851 53.671,169.851 C51.973,169.851 50.598,168.496 50.598,166.830 C50.598,166.830 50.598,80.297 50.598,80.297 C50.598,80.297 214.270,80.227 214.270,80.227 Z" id="path-4" class="cls-6" fill-rule="evenodd"/>
    <path d="M193.888,80.237 C193.888,80.237 193.888,156.638 193.888,156.638 C193.888,158.306 192.510,159.659 190.812,159.659 C190.812,159.659 50.598,159.659 50.598,159.659 C50.598,159.659 50.598,166.830 50.598,166.830 C50.598,168.496 51.973,169.851 53.671,169.851 C53.671,169.851 211.194,169.851 211.194,169.851 C212.892,169.851 214.270,168.496 214.270,166.830 C214.270,166.830 214.270,80.227 214.270,80.227 C214.270,80.227 193.888,80.237 193.888,80.237 Z" id="path-5" class="cls-7" fill-rule="evenodd"/>
    <path d="M75.476,83.487 C75.476,83.487 69.170,79.928 69.170,79.928 C69.170,79.928 79.969,60.799 79.969,60.799 C79.969,60.799 86.277,64.359 86.277,64.359 C86.277,64.359 75.476,83.487 75.476,83.487 Z" id="path-6" class="cls-8" fill-rule="evenodd"/>
    <path d="M99.780,83.487 C99.780,83.487 93.472,79.928 93.472,79.928 C93.472,79.928 104.273,60.799 104.273,60.799 C104.273,60.799 110.581,64.359 110.581,64.359 C110.581,64.359 99.780,83.487 99.780,83.487 Z" id="path-7" class="cls-8" fill-rule="evenodd"/>
    <path d="M124.084,83.487 C124.084,83.487 117.776,79.928 117.776,79.928 C117.776,79.928 128.577,60.799 128.577,60.799 C128.577,60.799 134.885,64.359 134.885,64.359 C134.885,64.359 124.084,83.487 124.084,83.487 Z" id="path-8" class="cls-8" fill-rule="evenodd"/>
    <path d="M145.686,83.487 C145.686,83.487 139.379,79.928 139.379,79.928 C139.379,79.928 150.180,60.799 150.180,60.799 C150.180,60.799 156.487,64.359 156.487,64.359 C156.487,64.359 145.686,83.487 145.686,83.487 Z" id="path-9" class="cls-8" fill-rule="evenodd"/>
    <path d="M167.288,83.487 C167.288,83.487 160.981,79.928 160.981,79.928 C160.981,79.928 171.782,60.799 171.782,60.799 C171.782,60.799 178.090,64.359 178.090,64.359 C178.090,64.359 167.288,83.487 167.288,83.487 Z" id="path-10" class="cls-8" fill-rule="evenodd"/>
    <path d="M191.592,83.487 C191.592,83.487 185.285,79.928 185.285,79.928 C185.285,79.928 196.086,60.799 196.086,60.799 C196.086,60.799 202.394,64.359 202.394,64.359 C202.394,64.359 191.592,83.487 191.592,83.487 Z" id="path-11" class="cls-8" fill-rule="evenodd"/>
    <path d="M78.237,46.767 C78.237,46.767 71.422,44.318 71.422,44.318 C71.422,44.318 78.855,23.649 78.855,23.649 C78.855,23.649 85.672,26.098 85.672,26.098 C85.672,26.098 78.237,46.767 78.237,46.767 Z" id="path-12" class="cls-8" fill-rule="evenodd"/>
    <path d="M102.187,42.689 C102.187,42.689 95.377,40.236 95.377,40.236 C95.377,40.236 102.816,19.567 102.816,19.567 C102.816,19.567 109.626,22.021 109.626,22.021 C109.626,22.021 102.187,42.689 102.187,42.689 Z" id="path-13" class="cls-8" fill-rule="evenodd"/>
    <path d="M126.148,38.610 C126.148,38.610 119.339,36.156 119.339,36.156 C119.339,36.156 126.777,15.489 126.777,15.489 C126.777,15.489 133.587,17.943 133.587,17.943 C133.587,17.943 126.148,38.610 126.148,38.610 Z" id="path-14" class="cls-8" fill-rule="evenodd"/>
    <path d="M147.450,34.984 C147.450,34.984 140.634,32.534 140.634,32.534 C140.634,32.534 148.069,11.866 148.069,11.866 C148.069,11.866 154.886,14.317 154.886,14.317 C154.886,14.317 147.450,34.984 147.450,34.984 Z" id="path-15" class="cls-8" fill-rule="evenodd"/>
    <path d="M168.742,31.358 C168.742,31.358 161.932,28.904 161.932,28.904 C161.932,28.904 169.372,8.236 169.372,8.236 C169.372,8.236 176.181,10.689 176.181,10.689 C176.181,10.689 168.742,31.358 168.742,31.358 Z" id="path-16" class="cls-8" fill-rule="evenodd"/>
    <path d="M192.706,27.278 C192.706,27.278 185.890,24.830 185.890,24.830 C185.890,24.830 193.325,4.159 193.325,4.159 C193.325,4.159 200.141,6.609 200.141,6.609 C200.141,6.609 192.706,27.278 192.706,27.278 Z" id="path-17" class="cls-8" fill-rule="evenodd"/>
    <path d="M198.445,114.797 C198.445,114.797 66.424,114.797 66.424,114.797 C66.424,114.797 66.424,107.557 66.424,107.557 C66.424,107.557 198.445,107.557 198.445,107.557 C198.445,107.557 198.445,114.797 198.445,114.797 Z" id="path-18" class="cls-8" fill-rule="evenodd"/>
    <path d="M198.445,145.678 C198.445,145.678 66.424,145.678 66.424,145.678 C66.424,145.678 66.424,138.438 66.424,138.438 C66.424,138.438 198.445,138.438 198.445,138.438 C198.445,138.438 198.445,145.678 198.445,145.678 Z" id="path-19" class="cls-8" fill-rule="evenodd"/>
  </g>
</svg>
