<svg xmlns="http://www.w3.org/2000/svg" xmlns:xlink="http://www.w3.org/1999/xlink" preserveAspectRatio="xMidYMid" width="217" height="193" viewBox="0 0 217 193">
  <defs>
    <style>

      .cls-3 {
        fill: #ff3a2f;
      }

      .cls-7 {
        fill: #2476ff;
      }

      .cls-8 {
        fill: #000000;
        opacity: 0.35;
      }
    </style>
  </defs>
  <g id="group-139svg">
    <path d="M115.040,169.970 C115.040,169.970 108.271,169.970 108.271,169.970 C106.966,169.970 105.908,170.771 105.908,171.759 C105.908,172.747 106.966,173.548 108.271,173.548 C108.271,173.548 108.586,173.548 108.586,173.548 C109.891,173.548 110.949,174.348 110.949,175.336 C110.949,176.323 109.891,177.124 108.586,177.124 C108.586,177.124 94.034,177.124 94.034,177.124 C92.729,177.124 91.670,177.925 91.670,178.912 C91.670,179.901 92.729,180.701 94.034,180.701 C94.034,180.701 111.522,180.701 111.522,180.701 C111.522,180.701 147.266,180.701 147.266,180.701 C148.571,180.701 149.630,179.901 149.630,178.912 C149.630,177.925 148.571,177.124 147.266,177.124 C147.266,177.124 143.228,177.124 143.228,177.124 C141.923,177.124 140.865,176.323 140.865,175.336 C140.865,174.348 141.923,173.548 143.228,173.548 C143.228,173.548 159.089,173.548 159.089,173.548 C160.395,173.548 161.453,172.747 161.453,171.759 C161.453,170.771 160.395,169.970 159.089,169.970 C159.089,169.970 157.906,169.970 157.906,169.970 C157.906,169.970 115.040,169.970 115.040,169.970 Z" id="path-1" class="cls-3" fill-rule="evenodd"/>
    <path d="M157.023,181.180 C155.929,181.180 155.042,180.322 155.042,179.264 C155.042,178.205 155.929,177.347 157.023,177.347 C157.023,177.347 163.095,177.347 163.095,177.347 C164.188,177.347 165.076,178.205 165.076,179.264 C165.076,180.322 164.188,181.180 163.095,181.180 C163.095,181.180 157.023,181.180 157.023,181.180 Z" id="path-2" class="cls-3" fill-rule="evenodd"/>
    <path d="M29.974,169.841 C29.974,169.841 21.291,169.841 21.291,169.841 C19.617,169.841 18.260,171.461 18.260,173.459 C18.260,175.457 19.617,177.078 21.291,177.078 C21.291,177.078 21.695,177.078 21.695,177.078 C23.369,177.078 24.727,178.697 24.727,180.696 C24.727,182.695 23.369,184.315 21.695,184.315 C21.695,184.315 3.029,184.315 3.029,184.315 C1.355,184.315 -0.003,185.935 -0.003,187.933 C-0.003,189.932 1.355,191.552 3.029,191.552 C3.029,191.552 25.461,191.552 25.461,191.552 C25.461,191.552 71.312,191.552 71.312,191.552 C72.986,191.552 74.344,189.932 74.344,187.933 C74.344,185.935 72.986,184.315 71.312,184.315 C71.312,184.315 66.132,184.315 66.132,184.315 C64.457,184.315 63.100,182.695 63.100,180.696 C63.100,178.697 64.457,177.078 66.132,177.078 C66.132,177.078 86.478,177.078 86.478,177.078 C88.152,177.078 89.509,175.457 89.509,173.459 C89.509,171.461 88.152,169.841 86.478,169.841 C86.478,169.841 84.959,169.841 84.959,169.841 C84.959,169.841 29.974,169.841 29.974,169.841 Z" id="path-3" class="cls-3" fill-rule="evenodd"/>
    <path d="M83.828,192.521 C82.424,192.521 81.286,190.785 81.286,188.643 C81.286,186.501 82.424,184.764 83.828,184.764 C83.828,184.764 91.616,184.764 91.616,184.764 C93.019,184.764 94.158,186.501 94.158,188.643 C94.158,190.785 93.019,192.521 91.616,192.521 C91.616,192.521 83.828,192.521 83.828,192.521 Z" id="path-4" class="cls-3" fill-rule="evenodd"/>
    <path d="M91.387,154.833 C71.294,154.833 50.858,149.082 30.638,137.721 C28.940,136.768 28.147,134.742 28.747,132.884 C29.349,131.034 31.102,129.896 33.121,130.071 C48.319,131.841 64.373,128.229 76.397,121.164 C62.490,117.894 51.251,108.868 45.322,95.753 C44.657,94.288 44.913,92.566 45.979,91.355 C47.029,90.146 48.719,89.664 50.257,90.138 C52.012,90.683 53.798,91.059 55.528,91.266 C44.977,84.972 33.674,72.906 33.674,54.843 C33.674,53.256 34.587,51.814 36.013,51.142 C37.447,50.452 39.138,50.661 40.363,51.663 C41.678,52.736 43.087,53.633 44.537,54.338 C41.517,50.245 38.897,45.164 37.408,39.429 C34.676,28.903 36.254,18.249 41.974,8.611 C42.654,7.449 43.872,6.705 45.211,6.609 C46.524,6.464 47.854,7.081 48.702,8.138 C60.776,23.223 82.228,41.448 116.734,44.780 C116.101,33.862 119.377,15.966 134.454,7.161 C152.872,-3.607 170.936,-2.196 186.174,11.158 C192.968,9.645 203.694,4.990 205.913,3.436 C207.338,2.443 209.206,2.450 210.615,3.428 C212.025,4.415 212.674,6.176 212.233,7.842 C211.208,11.711 208.893,16.005 206.001,19.851 C208.292,19.170 210.215,18.481 211.240,17.952 C212.891,17.111 214.885,17.464 216.151,18.826 C217.401,20.196 217.577,22.222 216.593,23.792 C211.761,31.419 203.966,38.523 198.750,42.370 C200.842,67.972 190.483,96.154 170.744,118.270 C149.691,141.848 121.516,154.833 91.402,154.833 C91.402,154.833 91.387,154.833 91.387,154.833 Z" id="path-5" class="cls-7" fill-rule="evenodd"/>
    <path d="M177.839,13.694 C180.258,13.155 183.173,12.212 186.028,11.158 C174.742,1.294 163.539,-1.082 152.898,0.444 C160.634,1.612 171.015,7.713 177.839,13.694 Z" id="path-6" class="cls-8" fill-rule="evenodd"/>
    <path d="M116.815,46.516 C116.783,45.959 116.767,45.373 116.757,44.780 C93.961,44.286 65.675,30.145 48.702,8.138 C47.874,7.065 46.524,6.464 45.211,6.608 C43.872,6.705 42.654,7.451 41.974,8.611 C41.378,9.616 40.854,10.635 40.348,11.661 C52.439,36.367 84.958,43.439 116.815,46.516 Z" id="path-7" class="cls-8" fill-rule="evenodd"/>
    <path d="M216.151,18.826 C214.885,17.464 212.891,17.111 211.240,17.952 C210.215,18.481 208.292,19.170 206.001,19.851 C208.893,16.005 211.208,11.711 212.233,7.842 C212.674,6.176 212.025,4.415 210.615,3.428 C209.206,2.450 207.338,2.443 205.913,3.436 C205.132,3.983 203.265,4.922 200.917,5.966 C201.045,6.578 201.080,7.212 200.913,7.842 C199.888,11.711 197.573,16.005 194.680,19.851 C196.971,19.170 198.894,18.481 199.920,17.952 C201.570,17.111 203.565,17.464 204.830,18.826 C206.081,20.196 206.257,22.222 205.272,23.793 C200.441,31.419 192.646,38.523 187.430,42.370 C189.521,67.972 179.163,96.154 159.424,118.272 C139.790,140.259 113.959,153.024 86.141,154.646 C87.891,154.732 89.641,154.833 91.387,154.833 C91.387,154.833 91.402,154.833 91.402,154.833 C121.516,154.833 149.691,141.848 170.744,118.272 C190.483,96.154 200.842,67.972 198.750,42.370 C203.966,38.523 211.761,31.419 216.593,23.793 C217.577,22.222 217.401,20.196 216.151,18.826 Z" id="path-8" class="cls-8" fill-rule="evenodd"/>
  </g>
</svg>
