<svg xmlns="http://www.w3.org/2000/svg" xmlns:xlink="http://www.w3.org/1999/xlink" preserveAspectRatio="xMidYMid" width="218" height="137" viewBox="0 0 218 137">
  <defs>
    <style>

      .cls-3 {
        fill: #fbb713;
      }

      .cls-6 {
        fill: #142a3b;
      }

      .cls-7 {
        fill: #000000;
        opacity: 0.35;
      }

      .cls-9 {
        fill: #ffffff;
      }

      .cls-10 {
        fill: #010101;
        opacity: 0.35;
      }
    </style>
  </defs>
  <g id="group-91svg">
    <path d="M63.204,106.705 C63.204,106.705 45.503,106.705 45.503,106.705 C42.089,106.705 39.323,108.798 39.323,111.382 C39.323,113.965 42.089,116.059 45.503,116.059 C45.503,116.059 46.326,116.059 46.326,116.059 C49.739,116.059 52.506,118.153 52.506,120.736 C52.506,123.319 49.739,125.412 46.326,125.412 C46.326,125.412 8.275,125.412 8.275,125.412 C4.863,125.412 2.095,127.507 2.095,130.091 C2.095,132.672 4.863,134.767 8.275,134.767 C8.275,134.767 54.003,134.767 54.003,134.767 C54.003,134.767 147.470,134.767 147.470,134.767 C150.883,134.767 153.650,132.672 153.650,130.091 C153.650,127.507 150.883,125.412 147.470,125.412 C147.470,125.412 136.910,125.412 136.910,125.412 C133.497,125.412 130.730,123.319 130.730,120.736 C130.730,118.153 133.497,116.059 136.910,116.059 C136.910,116.059 178.386,116.059 178.386,116.059 C181.799,116.059 184.566,113.965 184.566,111.382 C184.566,108.798 181.799,106.705 178.386,106.705 C178.386,106.705 175.291,106.705 175.291,106.705 C175.291,106.705 63.204,106.705 63.204,106.705 Z" id="path-1" class="cls-3" fill-rule="evenodd"/>
    <path d="M172.983,136.019 C170.121,136.019 167.802,133.775 167.802,131.007 C167.802,128.239 170.121,125.994 172.983,125.994 C172.983,125.994 188.859,125.994 188.859,125.994 C191.720,125.994 194.040,128.239 194.040,131.007 C194.040,133.775 191.720,136.019 188.859,136.019 C188.859,136.019 172.983,136.019 172.983,136.019 Z" id="path-2" class="cls-3" fill-rule="evenodd"/>
    <path d="M37.113,92.208 C37.113,92.208 42.161,92.208 42.161,92.208 C43.134,92.208 43.923,91.342 43.923,90.274 C43.923,89.207 43.134,88.342 42.161,88.342 C42.161,88.342 41.926,88.342 41.926,88.342 C40.953,88.342 40.164,87.477 40.164,86.409 C40.164,85.342 40.953,84.477 41.926,84.477 C41.926,84.477 52.779,84.477 52.779,84.477 C53.752,84.477 54.541,83.611 54.541,82.544 C54.541,81.477 53.752,80.610 52.779,80.610 C52.779,80.610 39.737,80.610 39.737,80.610 C39.737,80.610 13.080,80.610 13.080,80.610 C12.107,80.610 11.317,81.477 11.317,82.544 C11.317,83.611 12.107,84.477 13.080,84.477 C13.080,84.477 16.091,84.477 16.091,84.477 C17.065,84.477 17.854,85.342 17.854,86.409 C17.854,87.477 17.065,88.342 16.091,88.342 C16.091,88.342 1.757,88.342 1.757,88.342 C0.784,88.342 -0.005,89.207 -0.005,90.274 C-0.005,91.342 0.784,92.208 1.757,92.208 C1.757,92.208 5.145,92.208 5.145,92.208 C5.145,92.208 37.113,92.208 37.113,92.208 Z" id="path-3" class="cls-3" fill-rule="evenodd"/>
    <path d="M187.889,110.678 C187.889,110.678 72.886,110.678 72.886,110.678 C72.886,110.678 44.136,72.816 44.136,72.816 C44.136,72.816 216.639,72.816 216.639,72.816 C216.639,72.816 187.889,110.678 187.889,110.678 Z" id="path-4" class="cls-6" fill-rule="evenodd"/>
    <path d="M196.124,72.815 C196.124,72.815 184.744,87.803 184.744,87.803 C176.812,98.249 164.449,104.384 151.332,104.384 C151.332,104.384 68.107,104.384 68.107,104.384 C68.107,104.384 72.886,110.678 72.886,110.678 C72.886,110.678 187.889,110.678 187.889,110.678 C187.889,110.678 216.639,72.815 216.639,72.815 C216.639,72.815 196.124,72.815 196.124,72.815 Z" id="path-5" class="cls-7" fill-rule="evenodd"/>
    <path d="M180.194,72.815 C182.435,66.896 183.717,60.504 183.717,53.799 C183.717,24.082 159.626,-0.008 129.908,-0.008 C100.191,-0.008 76.099,24.082 76.099,53.799 C76.099,60.504 77.381,66.896 79.622,72.815 C79.622,72.815 180.194,72.815 180.194,72.815 Z" id="path-6" class="cls-3" fill-rule="evenodd"/>
    <path d="M92.872,51.997 C90.872,51.997 89.251,50.375 89.251,48.375 C89.251,25.959 107.489,7.721 129.909,7.721 C131.908,7.721 133.529,9.343 133.529,11.341 C133.529,13.342 131.908,14.961 129.909,14.961 C111.483,14.961 96.492,29.950 96.492,48.375 C96.492,50.375 94.871,51.997 92.872,51.997 Z" id="path-7" class="cls-9" fill-rule="evenodd"/>
    <path d="M155.505,6.461 C165.158,16.187 171.128,29.573 171.128,44.359 C171.128,44.424 171.128,44.491 171.128,44.559 C171.088,55.052 162.192,63.374 151.699,63.374 C151.699,63.374 76.988,63.374 76.988,63.374 C77.589,66.629 78.476,69.786 79.622,72.815 C79.622,72.815 180.194,72.815 180.194,72.815 C182.435,66.896 183.717,60.504 183.717,53.798 C183.717,33.348 172.306,15.564 155.505,6.461 Z" id="path-8" class="cls-10" fill-rule="evenodd"/>
    <path d="M188.959,24.945 C188.959,24.945 197.314,46.845 188.959,55.200 C180.604,63.554 167.058,63.554 158.703,55.200 C150.348,46.845 150.348,33.300 158.703,24.945 C167.058,16.590 188.959,24.945 188.959,24.945 Z" id="path-9" class="cls-3" fill-rule="evenodd"/>
    <path d="M192.106,48.905 C183.751,57.260 170.205,57.260 161.850,48.905 C156.071,43.125 154.296,34.862 156.513,27.551 C150.453,35.916 151.167,47.663 158.703,55.200 C167.058,63.553 180.604,63.553 188.959,55.200 C190.624,53.535 191.604,51.321 192.141,48.861 C192.128,48.875 192.119,48.892 192.106,48.905 Z" id="path-10" class="cls-10" fill-rule="evenodd"/>
    <path d="M187.179,32.985 C187.179,32.985 182.868,27.846 182.868,27.846 C182.868,27.846 201.851,13.318 201.851,13.318 C201.851,13.318 206.161,18.458 206.161,18.458 C206.161,18.458 187.179,32.985 187.179,32.985 Z" id="path-11" class="cls-6" fill-rule="evenodd"/>
    <path d="M211.473,8.641 C211.473,12.998 207.941,16.529 203.586,16.529 C199.230,16.529 195.698,12.998 195.698,8.641 C195.698,4.286 199.230,0.755 203.586,0.755 C207.941,0.755 211.473,4.286 211.473,8.641 Z" id="path-12" class="cls-6" fill-rule="evenodd"/>
    <path d="M217.223,17.267 C217.223,21.622 213.691,25.154 209.336,25.154 C204.980,25.154 201.448,21.622 201.448,17.267 C201.448,12.911 204.980,9.380 209.336,9.380 C213.691,9.380 217.223,12.911 217.223,17.267 Z" id="path-13" class="cls-6" fill-rule="evenodd"/>
  </g>
</svg>
