<svg xmlns="http://www.w3.org/2000/svg" xmlns:xlink="http://www.w3.org/1999/xlink" preserveAspectRatio="xMidYMid" width="218" height="162" viewBox="0 0 218 162">
  <defs>
    <style>

      .cls-3 {
        fill: #fbb713;
      }

      .cls-6 {
        fill: #2476ff;
      }

      .cls-7 {
        fill: #000000;
        opacity: 0.35;
      }

      .cls-11 {
        fill: #ffffff;
      }

      .cls-12 {
        fill: #142a3b;
      }
    </style>
  </defs>
  <g id="group-79svg">
    <path d="M59.676,135.455 C59.676,135.455 42.964,135.455 42.964,135.455 C39.742,135.455 37.130,137.431 37.130,139.870 C37.130,142.309 39.742,144.285 42.964,144.285 C42.964,144.285 43.742,144.285 43.742,144.285 C46.964,144.285 49.576,146.263 49.576,148.701 C49.576,151.141 46.964,153.117 43.742,153.117 C43.742,153.117 7.816,153.117 7.816,153.117 C4.594,153.117 1.982,155.094 1.982,157.533 C1.982,159.971 4.594,161.949 7.816,161.949 C7.816,161.949 50.990,161.949 50.990,161.949 C50.990,161.949 139.235,161.949 139.235,161.949 C142.458,161.949 145.070,159.971 145.070,157.533 C145.070,155.094 142.458,153.117 139.235,153.117 C139.235,153.117 129.265,153.117 129.265,153.117 C126.043,153.117 123.431,151.141 123.431,148.701 C123.431,146.263 126.043,144.285 129.265,144.285 C129.265,144.285 168.425,144.285 168.425,144.285 C171.647,144.285 174.259,142.309 174.259,139.870 C174.259,137.431 171.647,135.455 168.425,135.455 C168.425,135.455 165.502,135.455 165.502,135.455 C165.502,135.455 59.676,135.455 59.676,135.455 Z" id="path-1" class="cls-3" fill-rule="evenodd"/>
    <path d="M64.382,116.323 C61.932,116.323 59.947,114.971 59.947,113.302 C59.947,111.634 61.932,110.280 64.382,110.280 C64.382,110.280 77.979,110.280 77.979,110.280 C80.429,110.280 82.415,111.634 82.415,113.302 C82.415,114.971 80.429,116.323 77.979,116.323 C77.979,116.323 64.382,116.323 64.382,116.323 Z" id="path-2" class="cls-3" fill-rule="evenodd"/>
    <path d="M35.043,121.767 C35.043,121.767 39.810,121.767 39.810,121.767 C40.728,121.767 41.473,120.949 41.473,119.942 C41.473,118.934 40.728,118.117 39.810,118.117 C39.810,118.117 39.587,118.117 39.587,118.117 C38.669,118.117 37.924,117.300 37.924,116.293 C37.924,115.284 38.669,114.468 39.587,114.468 C39.587,114.468 49.834,114.468 49.834,114.468 C50.753,114.468 51.498,113.650 51.498,112.643 C51.498,111.635 50.753,110.819 49.834,110.819 C49.834,110.819 37.520,110.819 37.520,110.819 C37.520,110.819 12.352,110.819 12.352,110.819 C11.433,110.819 10.688,111.635 10.688,112.643 C10.688,113.650 11.433,114.468 12.352,114.468 C12.352,114.468 15.196,114.468 15.196,114.468 C16.115,114.468 16.859,115.284 16.859,116.293 C16.859,117.300 16.115,118.117 15.196,118.117 C15.196,118.117 1.662,118.117 1.662,118.117 C0.743,118.117 -0.001,118.934 -0.001,119.942 C-0.001,120.949 0.743,121.767 1.662,121.767 C1.662,121.767 4.860,121.767 4.860,121.767 C4.860,121.767 35.043,121.767 35.043,121.767 Z" id="path-3" class="cls-3" fill-rule="evenodd"/>
    <path d="M217.227,130.215 C217.227,130.215 40.436,130.215 40.436,130.215 C40.436,130.215 40.436,0.008 40.436,0.008 C40.436,0.008 217.227,0.008 217.227,0.008 C217.227,0.008 217.227,130.215 217.227,130.215 Z" id="path-4" class="cls-6" fill-rule="evenodd"/>
    <path d="M194.199,127.201 C194.199,127.201 69.406,127.201 69.406,127.201 C69.406,127.201 87.234,112.127 87.234,112.127 C87.234,112.127 179.343,112.127 179.343,112.127 C179.343,112.127 194.199,127.201 194.199,127.201 Z" id="path-5" class="cls-7" fill-rule="evenodd"/>
    <path d="M191.228,133.143 C191.228,133.143 66.435,133.143 66.435,133.143 C66.435,133.143 84.262,116.044 84.262,116.044 C84.262,116.044 176.372,116.044 176.372,116.044 C176.372,116.044 191.228,133.143 191.228,133.143 Z" id="path-6" class="cls-6" fill-rule="evenodd"/>
    <path d="M208.313,0.008 C208.313,0.008 208.313,130.215 208.313,130.215 C208.313,130.215 217.227,130.215 217.227,130.215 C217.227,130.215 217.227,0.008 217.227,0.008 C217.227,0.008 208.313,0.008 208.313,0.008 Z" id="path-7" class="cls-7" fill-rule="evenodd"/>
    <path d="M194.199,93.748 C194.199,93.748 69.406,93.748 69.406,93.748 C69.406,93.748 69.406,23.699 69.406,23.699 C69.406,23.699 194.199,23.699 194.199,23.699 C194.199,23.699 194.199,93.748 194.199,93.748 Z" id="path-8" class="cls-7" fill-rule="evenodd"/>
    <path d="M191.228,90.777 C191.228,90.777 66.435,90.777 66.435,90.777 C66.435,90.777 66.435,20.728 66.435,20.728 C66.435,20.728 191.228,20.728 191.228,20.728 C191.228,20.728 191.228,90.777 191.228,90.777 Z" id="path-9" class="cls-11" fill-rule="evenodd"/>
    <path d="M179.714,59.169 C179.714,66.143 174.061,71.797 167.087,71.797 C160.112,71.797 154.458,66.143 154.458,59.169 C154.458,52.194 160.112,46.541 167.087,46.541 C174.061,46.541 179.714,52.194 179.714,59.169 Z" id="path-10" class="cls-12" fill-rule="evenodd"/>
    <path d="M174.388,48.897 C175.858,50.962 176.743,53.470 176.743,56.197 C176.743,63.172 171.090,68.825 164.115,68.825 C161.387,68.825 158.878,67.940 156.814,66.469 C159.103,69.684 162.840,71.797 167.087,71.797 C174.061,71.797 179.714,66.143 179.714,59.169 C179.714,54.922 177.602,51.186 174.388,48.897 Z" id="path-11" class="cls-7" fill-rule="evenodd"/>
    <path d="M102.461,59.169 C102.461,66.143 96.808,71.797 89.834,71.797 C82.859,71.797 77.206,66.143 77.206,59.169 C77.206,52.194 82.859,46.541 89.834,46.541 C96.808,46.541 102.461,52.194 102.461,59.169 Z" id="path-12" class="cls-12" fill-rule="evenodd"/>
    <path d="M89.834,46.541 C89.324,46.541 88.841,46.632 88.348,46.692 C94.614,47.435 99.490,52.704 99.490,59.169 C99.490,65.634 94.614,70.904 88.348,71.647 C88.841,71.705 89.324,71.797 89.834,71.797 C96.808,71.797 102.461,66.143 102.461,59.169 C102.461,52.194 96.808,46.541 89.834,46.541 Z" id="path-13" class="cls-7" fill-rule="evenodd"/>
    <path d="M167.087,123.049 C167.087,125.099 165.423,126.763 163.373,126.763 C161.321,126.763 159.658,125.099 159.658,123.049 C159.658,120.998 161.321,119.335 163.373,119.335 C165.423,119.335 167.087,120.998 167.087,123.049 Z" id="path-14" class="cls-11" fill-rule="evenodd"/>
    <path d="M104.689,123.049 C104.689,125.099 103.027,126.763 100.976,126.763 C98.925,126.763 97.262,125.099 97.262,123.049 C97.262,120.998 98.925,119.335 100.976,119.335 C103.027,119.335 104.689,120.998 104.689,123.049 Z" id="path-15" class="cls-11" fill-rule="evenodd"/>
    <path d="M151.859,67.951 C151.859,67.951 105.804,67.951 105.804,67.951 C105.804,67.951 105.804,50.823 105.804,50.823 C105.804,50.823 151.859,50.823 151.859,50.823 C151.859,50.823 151.859,67.951 151.859,67.951 Z" id="path-16" class="cls-12" fill-rule="evenodd"/>
    <path d="M191.971,36.865 C191.971,36.865 65.692,36.865 65.692,36.865 C65.692,36.865 65.692,29.625 65.692,29.625 C65.692,29.625 191.971,29.625 191.971,29.625 C191.971,29.625 191.971,36.865 191.971,36.865 Z" id="path-17" class="cls-12" fill-rule="evenodd"/>
  </g>
</svg>
