<svg xmlns="http://www.w3.org/2000/svg" xmlns:xlink="http://www.w3.org/1999/xlink" preserveAspectRatio="xMidYMid" width="218" height="179" viewBox="0 0 218 179">
  <defs>
    <style>

      .cls-3 {
        fill: #ff3a2f;
      }

      .cls-5 {
        fill: #fbb713;
      }

      .cls-9 {
        fill: #000000;
        opacity: 0.35;
      }

      .cls-19 {
        fill: #142a3b;
      }
    </style>
  </defs>
  <g id="group-140svg">
    <path d="M22.599,167.928 C22.599,167.928 16.052,167.928 16.052,167.928 C14.791,167.928 13.767,168.702 13.767,169.658 C13.767,170.614 14.791,171.388 16.052,171.388 C16.052,171.388 16.358,171.388 16.358,171.388 C17.620,171.388 18.643,172.162 18.643,173.118 C18.643,174.073 17.620,174.847 16.358,174.847 C16.358,174.847 2.284,174.847 2.284,174.847 C1.021,174.847 -0.001,175.621 -0.001,176.577 C-0.001,177.533 1.021,178.307 2.284,178.307 C2.284,178.307 19.197,178.307 19.197,178.307 C19.197,178.307 53.767,178.307 53.767,178.307 C55.029,178.307 56.052,177.533 56.052,176.577 C56.052,175.621 55.029,174.847 53.767,174.847 C53.767,174.847 49.861,174.847 49.861,174.847 C48.598,174.847 47.575,174.073 47.575,173.118 C47.575,172.162 48.598,171.388 49.861,171.388 C49.861,171.388 65.202,171.388 65.202,171.388 C66.464,171.388 67.487,170.614 67.487,169.658 C67.487,168.702 66.464,167.928 65.202,167.928 C65.202,167.928 64.056,167.928 64.056,167.928 C64.056,167.928 22.599,167.928 22.599,167.928 Z" id="path-1" class="cls-3" fill-rule="evenodd"/>
    <path d="M63.203,178.770 C62.145,178.770 61.287,177.941 61.287,176.916 C61.287,175.892 62.145,175.063 63.203,175.063 C63.203,175.063 69.075,175.063 69.075,175.063 C70.133,175.063 70.991,175.892 70.991,176.916 C70.991,177.941 70.133,178.770 69.075,178.770 C69.075,178.770 63.203,178.770 63.203,178.770 Z" id="path-2" class="cls-3" fill-rule="evenodd"/>
    <path d="M168.835,36.261 C168.835,36.261 162.288,36.261 162.288,36.261 C161.026,36.261 160.002,37.035 160.002,37.991 C160.002,38.946 161.026,39.721 162.288,39.721 C162.288,39.721 162.593,39.721 162.593,39.721 C163.855,39.721 164.879,40.496 164.879,41.452 C164.879,42.406 163.855,43.181 162.593,43.181 C162.593,43.181 148.519,43.181 148.519,43.181 C147.257,43.181 146.233,43.956 146.233,44.910 C146.233,45.867 147.257,46.640 148.519,46.640 C148.519,46.640 165.432,46.640 165.432,46.640 C165.432,46.640 200.002,46.640 200.002,46.640 C201.264,46.640 202.288,45.867 202.288,44.910 C202.288,43.956 201.264,43.181 200.002,43.181 C200.002,43.181 196.096,43.181 196.096,43.181 C194.834,43.181 193.811,42.406 193.811,41.452 C193.811,40.496 194.834,39.721 196.096,39.721 C196.096,39.721 211.437,39.721 211.437,39.721 C212.699,39.721 213.723,38.946 213.723,37.991 C213.723,37.035 212.699,36.261 211.437,36.261 C211.437,36.261 210.292,36.261 210.292,36.261 C210.292,36.261 168.835,36.261 168.835,36.261 Z" id="path-3" class="cls-5" fill-rule="evenodd"/>
    <path d="M209.439,47.103 C208.380,47.103 207.522,46.274 207.522,45.250 C207.522,44.225 208.380,43.397 209.439,43.397 C209.439,43.397 215.311,43.397 215.311,43.397 C216.369,43.397 217.227,44.225 217.227,45.250 C217.227,46.274 216.369,47.103 215.311,47.103 C215.311,47.103 209.439,47.103 209.439,47.103 Z" id="path-4" class="cls-5" fill-rule="evenodd"/>
    <path d="M104.092,0.000 C58.744,0.000 21.977,36.768 21.977,82.114 C21.977,127.460 58.744,164.226 104.092,164.226 C149.439,164.226 186.206,127.460 186.206,82.114 C186.206,36.768 149.439,0.000 104.092,0.000 C104.092,0.000 104.092,0.000 104.092,0.000 Z" id="path-5" class="cls-3" fill-rule="evenodd"/>
    <path d="M104.092,13.687 C66.296,13.687 35.663,44.319 35.663,82.114 C35.663,119.908 66.296,150.540 104.092,150.540 C141.882,150.540 172.521,119.908 172.521,82.114 C172.521,44.319 141.882,13.687 104.092,13.687 C104.092,13.687 104.092,13.687 104.092,13.687 Z" id="path-6" class="cls-5" fill-rule="evenodd"/>
    <path d="M131.095,19.242 C151.888,30.982 165.951,53.246 165.951,78.828 C165.951,116.623 135.312,147.256 97.523,147.256 C87.928,147.256 78.803,145.265 70.515,141.701 C80.440,147.305 91.880,150.540 104.092,150.540 C141.882,150.540 172.521,119.908 172.521,82.114 C172.521,53.912 155.454,29.717 131.095,19.242 Z" id="path-7" class="cls-9" fill-rule="evenodd"/>
    <circle id="circle-1" class="cls-3" cx="104" cy="34" r="11"/>
    <circle id="circle-2" class="cls-3" cx="104" cy="130" r="11"/>
    <circle id="circle-3" class="cls-3" cx="56" cy="82" r="11"/>
    <circle id="circle-4" class="cls-3" cx="152" cy="82" r="11"/>
    <path d="M70.225,58.512 C67.485,58.512 64.906,57.443 62.967,55.504 C61.026,53.559 59.957,50.981 59.957,48.241 C59.961,45.501 61.029,42.923 62.971,40.990 C66.839,37.115 73.606,37.115 77.482,40.990 C81.485,44.994 81.485,51.502 77.482,55.504 C75.544,57.443 72.964,58.512 70.225,58.512 Z" id="path-8" class="cls-3" fill-rule="evenodd"/>
    <path d="M137.962,126.243 C135.222,126.243 132.643,125.175 130.702,123.236 C126.702,119.247 126.699,112.738 130.698,108.722 C134.594,104.847 141.346,104.847 145.222,108.722 C149.225,112.725 149.225,119.233 145.222,123.236 C143.281,125.175 140.705,126.243 137.962,126.243 Z" id="path-9" class="cls-3" fill-rule="evenodd"/>
    <path d="M70.221,126.243 C67.478,126.243 64.902,125.175 62.964,123.236 C61.029,121.305 59.961,118.725 59.957,115.987 C59.957,113.246 61.026,110.667 62.967,108.722 C66.843,104.847 73.606,104.847 77.482,108.722 C81.485,112.738 81.481,119.247 77.478,123.236 C75.540,125.175 72.964,126.243 70.221,126.243 Z" id="path-10" class="cls-3" fill-rule="evenodd"/>
    <path d="M137.962,58.512 C135.222,58.512 132.645,57.443 130.705,55.504 C126.699,51.502 126.699,44.994 130.702,40.990 C134.590,37.115 141.337,37.115 145.219,40.990 C149.225,44.994 149.225,51.502 145.222,55.504 C143.278,57.443 140.702,58.512 137.962,58.512 Z" id="path-11" class="cls-3" fill-rule="evenodd"/>
    <circle id="circle-5" class="cls-3" cx="104" cy="82" r="11"/>
    <path d="M94.830,60.781 C93.904,60.781 92.977,60.427 92.271,59.721 C92.271,59.721 85.427,52.879 85.427,52.879 C84.013,51.468 84.013,49.174 85.427,47.760 C86.842,46.347 89.133,46.347 90.547,47.760 C90.547,47.760 97.390,54.601 97.390,54.601 C98.805,56.012 98.805,58.305 97.390,59.721 C96.683,60.427 95.757,60.781 94.830,60.781 Z" id="path-12" class="cls-19" fill-rule="evenodd"/>
    <path d="M108.515,55.945 C107.589,55.945 106.662,55.591 105.956,54.884 C104.541,53.470 104.541,51.179 105.956,49.764 C105.956,49.764 112.798,42.923 112.798,42.923 C114.212,41.508 116.503,41.508 117.918,42.923 C119.332,44.336 119.332,46.628 117.918,48.042 C117.918,48.042 111.074,54.884 111.074,54.884 C110.367,55.591 109.441,55.945 108.515,55.945 Z" id="path-13" class="cls-19" fill-rule="evenodd"/>
    <path d="M74.300,81.310 C73.374,81.310 72.448,80.956 71.741,80.249 C71.741,80.249 64.897,73.406 64.897,73.406 C63.483,71.992 63.483,69.701 64.897,68.287 C66.312,66.873 68.603,66.873 70.017,68.287 C70.017,68.287 76.860,75.130 76.860,75.130 C78.275,76.545 78.275,78.835 76.860,80.249 C76.153,80.956 75.227,81.310 74.300,81.310 Z" id="path-14" class="cls-19" fill-rule="evenodd"/>
    <path d="M78.628,99.420 C78.628,99.420 71.785,99.420 71.785,99.420 C69.786,99.420 68.165,97.798 68.165,95.799 C68.165,93.798 69.786,92.179 71.785,92.179 C71.785,92.179 78.628,92.179 78.628,92.179 C80.628,92.179 82.249,93.798 82.249,95.799 C82.249,97.798 80.628,99.420 78.628,99.420 Z" id="path-15" class="cls-19" fill-rule="evenodd"/>
    <path d="M99.156,113.105 C97.157,113.105 95.535,111.484 95.535,109.484 C95.535,109.484 95.535,102.642 95.535,102.642 C95.535,100.643 97.157,99.022 99.156,99.022 C101.156,99.022 102.776,100.643 102.776,102.642 C102.776,102.642 102.776,109.484 102.776,109.484 C102.776,111.484 101.156,113.105 99.156,113.105 Z" id="path-16" class="cls-19" fill-rule="evenodd"/>
    <path d="M133.370,99.420 C133.370,99.420 126.529,99.420 126.529,99.420 C124.529,99.420 122.909,97.798 122.909,95.799 C122.909,93.798 124.529,92.179 126.529,92.179 C126.529,92.179 133.370,92.179 133.370,92.179 C135.370,92.179 136.990,93.798 136.990,95.799 C136.990,97.798 135.370,99.420 133.370,99.420 Z" id="path-17" class="cls-19" fill-rule="evenodd"/>
    <path d="M122.201,83.315 C121.275,83.315 120.349,82.961 119.641,82.254 C118.227,80.840 118.227,78.549 119.641,77.135 C119.641,77.135 126.485,70.293 126.485,70.293 C127.899,68.878 130.190,68.878 131.604,70.293 C133.019,71.706 133.019,73.998 131.604,75.411 C131.604,75.411 124.761,82.254 124.761,82.254 C124.054,82.961 123.128,83.315 122.201,83.315 Z" id="path-18" class="cls-19" fill-rule="evenodd"/>
  </g>
</svg>
