<svg xmlns="http://www.w3.org/2000/svg" xmlns:xlink="http://www.w3.org/1999/xlink" preserveAspectRatio="xMidYMid" width="217" height="188" viewBox="0 0 217 188">
  <defs>
    <style>

      .cls-3 {
        fill: #0cb04a;
      }

      .cls-5 {
        fill: #fbb713;
      }

      .cls-6 {
        fill: #ededed;
      }

      .cls-7 {
        fill: #000000;
        opacity: 0.2;
      }

      .cls-9 {
        fill: #000000;
        opacity: 0.35;
      }
    </style>
  </defs>
  <g id="group-69svg">
    <path d="M70.756,155.086 C70.756,155.086 50.261,155.086 50.261,155.086 C46.309,155.086 43.105,157.422 43.105,160.302 C43.105,163.184 46.309,165.519 50.261,165.519 C50.261,165.519 51.214,165.519 51.214,165.519 C55.166,165.519 58.370,167.853 58.370,170.733 C58.370,173.614 55.166,175.949 51.214,175.949 C51.214,175.949 7.155,175.949 7.155,175.949 C3.204,175.949 0.000,178.284 0.000,181.166 C0.000,184.046 3.204,186.380 7.155,186.380 C7.155,186.380 60.103,186.380 60.103,186.380 C60.103,186.380 168.327,186.380 168.327,186.380 C172.279,186.380 175.482,184.046 175.482,181.166 C175.482,178.284 172.279,175.949 168.327,175.949 C168.327,175.949 156.099,175.949 156.099,175.949 C152.148,175.949 148.944,173.614 148.944,170.733 C148.944,167.853 152.148,165.519 156.099,165.519 C156.099,165.519 204.124,165.519 204.124,165.519 C208.076,165.519 211.280,163.184 211.280,160.302 C211.280,157.422 208.076,155.086 204.124,155.086 C204.124,155.086 200.540,155.086 200.540,155.086 C200.540,155.086 70.756,155.086 70.756,155.086 Z" id="path-1" class="cls-3" fill-rule="evenodd"/>
    <path d="M196.743,186.850 C193.959,186.850 191.703,185.198 191.703,183.161 C191.703,181.123 193.959,179.472 196.743,179.472 C196.743,179.472 212.188,179.472 212.188,179.472 C214.972,179.472 217.229,181.123 217.229,183.161 C217.229,185.198 214.972,186.850 212.188,186.850 C212.188,186.850 196.743,186.850 196.743,186.850 Z" id="path-2" class="cls-3" fill-rule="evenodd"/>
    <path d="M147.283,38.668 C147.283,17.313 129.970,0.001 108.614,0.001 C87.258,0.001 69.946,17.313 69.946,38.668 C69.946,39.723 11.117,68.471 11.117,84.418 C11.117,105.773 54.752,112.937 108.772,112.937 C131.921,112.937 206.427,109.689 206.427,86.615 C206.427,70.666 147.283,39.723 147.283,38.668 Z" id="path-3" class="cls-5" fill-rule="evenodd"/>
    <path d="M81.023,31.443 C80.461,31.443 79.892,31.312 79.358,31.035 C77.583,30.112 76.893,27.927 77.813,26.152 C83.820,14.600 95.635,7.423 108.647,7.423 C110.648,7.423 112.267,9.044 112.267,11.044 C112.267,13.042 110.648,14.663 108.647,14.663 C98.347,14.663 88.996,20.345 84.240,29.494 C83.594,30.733 82.330,31.443 81.023,31.443 Z" id="path-4" class="cls-6" fill-rule="evenodd"/>
    <path d="M147.283,38.668 C147.283,17.312 129.970,0.001 108.614,0.001 C105.409,0.001 102.312,0.433 99.334,1.168 C116.199,5.331 128.722,20.518 128.722,38.668 C128.722,39.721 187.866,70.666 187.866,86.615 C187.866,107.493 126.884,112.137 98.122,112.834 C101.622,112.898 105.169,112.937 108.772,112.937 C131.921,112.937 206.427,109.689 206.427,86.615 C206.427,70.666 147.283,39.721 147.283,38.668 Z" id="path-5" class="cls-7" fill-rule="evenodd"/>
    <path d="M206.427,86.615 C206.427,102.417 162.793,117.229 108.772,117.229 C54.752,117.229 10.802,102.417 10.802,86.615 C10.802,70.812 54.594,58.001 108.614,58.001 C162.635,58.001 206.427,70.812 206.427,86.615 Z" id="path-6" class="cls-5" fill-rule="evenodd"/>
    <path d="M206.427,86.615 C206.427,102.417 162.793,117.229 108.772,117.229 C54.752,117.229 10.802,102.417 10.802,86.615 C10.802,70.812 54.594,58.001 108.614,58.001 C162.635,58.001 206.427,70.812 206.427,86.615 Z" id="path-7" class="cls-9" fill-rule="evenodd"/>
    <path d="M142.044,165.073 C118.710,173.631 95.960,171.993 73.514,165.073 C83.333,141.551 88.979,114.380 87.434,80.925 C99.639,77.533 112.912,76.809 128.123,80.925 C141.565,110.965 146.678,139.122 142.044,165.073 Z" id="path-8" class="cls-5" fill-rule="evenodd"/>
    <path d="M128.123,80.924 C112.912,76.809 99.639,77.532 87.434,80.924 C87.549,83.404 87.544,85.778 87.581,88.188 C97.159,86.756 107.458,87.124 118.842,90.205 C131.151,117.712 136.376,143.616 133.630,167.718 C136.426,166.973 139.230,166.106 142.044,165.073 C146.678,139.122 141.565,110.965 128.123,80.924 Z" id="path-9" class="cls-7" fill-rule="evenodd"/>
  </g>
</svg>
