<svg xmlns="http://www.w3.org/2000/svg" xmlns:xlink="http://www.w3.org/1999/xlink" preserveAspectRatio="xMidYMid" width="217" height="197" viewBox="0 0 217 197">
  <defs>
    <style>

      .cls-3 {
        fill: #ff3a2f;
      }

      .cls-6 {
        fill: #142a3b;
      }

      .cls-7 {
        fill: #090908;
        opacity: 0.35;
      }

      .cls-10 {
        fill: #fbb713;
      }

      .cls-11 {
        fill: #ededed;
      }
    </style>
  </defs>
  <g id="group-20svg">
    <path d="M152.912,195.728 C152.912,195.728 168.815,195.728 168.815,195.728 C171.881,195.728 174.367,194.285 174.367,192.504 C174.367,190.725 171.881,189.281 168.815,189.281 C168.815,189.281 168.075,189.281 168.075,189.281 C165.008,189.281 162.522,187.839 162.522,186.059 C162.522,184.279 165.008,182.835 168.075,182.835 C168.075,182.835 202.261,182.835 202.261,182.835 C205.328,182.835 207.813,181.392 207.813,179.612 C207.813,177.832 205.328,176.388 202.261,176.388 C202.261,176.388 161.177,176.388 161.177,176.388 C161.177,176.388 77.202,176.388 77.202,176.388 C74.136,176.388 71.651,177.832 71.651,179.612 C71.651,181.392 74.136,182.835 77.202,182.835 C77.202,182.835 86.691,182.835 86.691,182.835 C89.757,182.835 92.243,184.279 92.243,186.059 C92.243,187.839 89.757,189.281 86.691,189.281 C86.691,189.281 41.535,189.281 41.535,189.281 C38.469,189.281 35.984,190.725 35.984,192.504 C35.984,194.285 38.469,195.728 41.535,195.728 C41.535,195.728 52.208,195.728 52.208,195.728 C52.208,195.728 152.912,195.728 152.912,195.728 Z" id="path-1" class="cls-3" fill-rule="evenodd"/>
    <path d="M61.791,152.821 C61.791,152.821 70.196,152.821 70.196,152.821 C71.816,152.821 73.130,151.671 73.130,150.254 C73.130,148.835 71.816,147.685 70.196,147.685 C70.196,147.685 69.804,147.685 69.804,147.685 C68.184,147.685 66.870,146.536 66.870,145.117 C66.870,143.699 68.184,142.549 69.804,142.549 C69.804,142.549 87.873,142.549 87.873,142.549 C89.493,142.549 90.807,141.400 90.807,139.982 C90.807,138.564 89.493,137.415 87.873,137.415 C87.873,137.415 66.159,137.415 66.159,137.415 C66.159,137.415 21.778,137.415 21.778,137.415 C20.156,137.415 18.843,138.564 18.843,139.982 C18.843,141.400 20.156,142.549 21.778,142.549 C21.778,142.549 26.792,142.549 26.792,142.549 C28.412,142.549 29.726,143.699 29.726,145.117 C29.726,146.536 28.412,147.685 26.792,147.685 C26.792,147.685 2.926,147.685 2.926,147.685 C1.306,147.685 -0.008,148.835 -0.008,150.254 C-0.008,151.671 1.306,152.821 2.926,152.821 C2.926,152.821 8.566,152.821 8.566,152.821 C8.566,152.821 61.791,152.821 61.791,152.821 Z" id="path-2" class="cls-3" fill-rule="evenodd"/>
    <path d="M48.748,176.165 C52.202,176.165 55.000,177.756 55.000,179.717 C55.000,181.680 52.202,183.270 48.748,183.270 C48.748,183.270 29.589,183.270 29.589,183.270 C26.136,183.270 23.337,181.680 23.337,179.717 C23.337,177.756 26.136,176.165 29.589,176.165 C29.589,176.165 48.748,176.165 48.748,176.165 Z" id="path-3" class="cls-3" fill-rule="evenodd"/>
    <path d="M175.266,15.703 C158.116,15.703 143.130,10.114 135.026,1.793 C132.701,-0.596 128.818,-0.596 126.493,1.793 C118.390,10.114 103.404,15.703 86.253,15.703 C73.549,15.703 62.054,12.629 53.656,7.654 C49.522,5.205 44.299,7.994 44.299,12.797 C44.299,12.797 44.299,87.411 44.299,87.411 C44.299,140.203 83.009,183.000 130.760,183.000 C178.511,183.000 217.221,140.203 217.221,87.411 C217.221,87.411 217.137,37.072 217.001,12.902 C216.975,8.132 211.800,5.354 207.684,7.765 C199.300,12.676 187.876,15.703 175.266,15.703 Z" id="path-4" class="cls-6" fill-rule="evenodd"/>
    <path d="M119.751,7.903 C127.855,16.225 142.840,21.812 159.991,21.812 C172.602,21.812 184.024,18.786 192.409,13.874 C192.679,13.717 192.962,13.639 193.241,13.524 C187.711,14.925 181.643,15.703 175.266,15.703 C158.116,15.703 143.130,10.114 135.026,1.793 C132.701,-0.596 128.818,-0.596 126.494,1.793 C124.473,3.867 122.025,5.771 119.222,7.461 C119.400,7.605 119.587,7.734 119.751,7.903 Z" id="path-5" class="cls-7" fill-rule="evenodd"/>
    <path d="M70.978,21.812 C83.834,21.812 95.471,18.672 103.907,13.597 C98.458,14.943 92.506,15.703 86.253,15.703 C73.549,15.703 62.054,12.629 53.656,7.653 C49.522,5.205 44.299,7.994 44.299,12.798 C44.299,12.798 44.299,16.706 44.299,16.706 C51.856,19.910 61.035,21.812 70.978,21.812 Z" id="path-6" class="cls-7" fill-rule="evenodd"/>
    <path d="M217.001,12.902 C216.975,8.132 211.800,5.354 207.684,7.764 C203.915,9.972 199.508,11.772 194.680,13.113 C198.209,12.572 201.704,15.094 201.726,19.012 C201.861,43.182 201.945,93.522 201.945,93.522 C201.945,131.736 181.654,164.699 152.341,179.997 C189.649,169.398 217.220,131.966 217.220,87.411 C217.220,87.411 217.137,37.072 217.001,12.902 Z" id="path-7" class="cls-7" fill-rule="evenodd"/>
    <path d="M130.760,21.386 C129.571,21.386 128.381,21.843 127.491,22.759 C121.281,29.136 109.798,33.418 96.655,33.418 C86.920,33.418 78.112,31.062 71.676,27.249 C68.509,25.374 64.507,27.511 64.507,31.192 C64.507,31.192 64.507,88.367 64.507,88.367 C64.507,88.618 64.522,88.864 64.524,89.114 C64.524,89.114 130.760,89.114 130.760,89.114 C130.760,89.114 130.760,21.386 130.760,21.386 Z" id="path-8" class="cls-10" fill-rule="evenodd"/>
    <path d="M130.760,89.114 C130.760,89.114 130.760,161.615 130.760,161.615 C167.124,161.615 196.632,129.221 196.996,89.114 C196.996,89.114 130.760,89.114 130.760,89.114 Z" id="path-9" class="cls-11" fill-rule="evenodd"/>
    <path d="M94.714,148.095 C93.993,148.095 93.264,147.880 92.628,147.433 C82.343,140.167 74.204,130.595 69.091,119.751 C68.239,117.943 69.013,115.787 70.820,114.934 C72.627,114.081 74.790,114.857 75.639,116.665 C80.218,126.378 87.540,134.972 96.807,141.518 C98.440,142.672 98.829,144.931 97.673,146.564 C96.969,147.561 95.849,148.095 94.714,148.095 Z" id="path-10" class="cls-11" fill-rule="evenodd"/>
  </g>
</svg>
