<svg xmlns="http://www.w3.org/2000/svg" xmlns:xlink="http://www.w3.org/1999/xlink" preserveAspectRatio="xMidYMid" width="218" height="158" viewBox="0 0 218 158">
  <defs>
    <style>

      .cls-3 {
        fill: #ff3a2f;
      }

      .cls-5 {
        fill: #0cb04a;
      }

      .cls-6 {
        fill: #000000;
        opacity: 0.35;
      }
    </style>
  </defs>
  <g id="group-136svg">
    <path d="M66.964,128.705 C66.964,128.705 49.369,128.705 49.369,128.705 C45.976,128.705 43.226,130.787 43.226,133.354 C43.226,135.922 45.976,138.003 49.369,138.003 C49.369,138.003 50.188,138.003 50.188,138.003 C53.580,138.003 56.331,140.085 56.331,142.652 C56.331,145.221 53.580,147.302 50.188,147.302 C50.188,147.302 12.363,147.302 12.363,147.302 C8.970,147.302 6.220,149.384 6.220,151.950 C6.220,154.518 8.970,156.600 12.363,156.600 C12.363,156.600 57.818,156.600 57.818,156.600 C57.818,156.600 150.729,156.600 150.729,156.600 C154.122,156.600 156.872,154.518 156.872,151.950 C156.872,149.384 154.122,147.302 150.729,147.302 C150.729,147.302 140.232,147.302 140.232,147.302 C136.839,147.302 134.090,145.221 134.090,142.652 C134.090,140.085 136.839,138.003 140.232,138.003 C140.232,138.003 181.462,138.003 181.462,138.003 C184.855,138.003 187.605,135.922 187.605,133.354 C187.605,130.787 184.855,128.705 181.462,128.705 C181.462,128.705 178.385,128.705 178.385,128.705 C178.385,128.705 66.964,128.705 66.964,128.705 Z" id="path-1" class="cls-3" fill-rule="evenodd"/>
    <path d="M176.090,157.845 C173.246,157.845 170.941,155.614 170.941,152.862 C170.941,150.111 173.246,147.880 176.090,147.880 C176.090,147.880 191.872,147.880 191.872,147.880 C194.716,147.880 197.022,150.111 197.022,152.862 C197.022,155.614 194.716,157.845 191.872,157.845 C191.872,157.845 176.090,157.845 176.090,157.845 Z" id="path-2" class="cls-3" fill-rule="evenodd"/>
    <path d="M135.177,132.845 C135.177,132.845 216.783,132.845 216.783,132.845 C216.962,126.947 217.242,117.759 217.223,116.600 C215.336,59.603 168.526,14.920 110.659,14.920 C110.659,14.920 110.649,14.920 110.649,14.920 C110.639,14.920 110.639,14.920 110.639,14.920 C109.362,15.190 107.975,14.930 106.827,14.181 C105.391,13.243 104.522,11.637 104.522,9.910 C104.522,9.910 104.522,0.013 104.522,0.013 C104.522,0.013 84.086,0.013 84.086,0.013 C84.086,0.013 84.086,14.092 84.086,14.092 C84.086,16.317 82.639,18.293 80.513,18.961 C42.524,30.936 3.039,68.044 1.073,115.811 C1.033,116.850 0.403,126.527 -0.005,132.845 C-0.005,132.845 104.522,132.845 104.522,132.845 C104.522,132.845 104.522,38.399 104.522,38.399 C104.522,35.575 106.807,33.289 109.632,33.289 C143.449,33.289 186.747,63.295 194.801,106.362 C195.079,107.860 194.680,109.395 193.712,110.563 C192.745,111.730 191.298,112.409 189.780,112.409 C189.780,112.409 160.723,112.409 160.723,112.409 C157.898,112.409 155.613,110.124 155.613,107.300 C155.613,107.300 155.613,89.319 155.613,89.319 C148.678,83.782 141.842,79.221 135.177,75.698 C135.177,75.698 135.177,132.845 135.177,132.845 ZM78.977,112.409 C78.977,112.409 28.903,112.409 28.903,112.409 C27.387,112.409 25.949,111.741 24.982,110.574 C24.014,109.415 23.605,107.879 23.874,106.392 C29.851,73.354 56.076,49.765 76.722,39.596 C78.298,38.798 80.184,38.907 81.672,39.836 C83.177,40.775 84.086,42.410 84.086,44.177 C84.086,44.177 84.086,107.300 84.086,107.300 C84.086,110.124 81.801,112.409 78.977,112.409 Z" id="path-3" class="cls-5" fill-rule="evenodd"/>
    <path d="M100.111,33.290 C97.286,33.290 95.002,35.575 95.002,38.399 C95.002,38.399 95.002,132.845 95.002,132.845 C95.002,132.845 104.522,132.845 104.522,132.845 C104.522,132.845 104.522,38.399 104.522,38.399 C104.522,36.342 105.752,34.596 107.502,33.785 C105.004,33.484 102.529,33.290 100.111,33.290 Z" id="path-4" class="cls-6" fill-rule="evenodd"/>
    <path d="M72.151,39.836 C70.664,38.907 68.778,38.798 67.201,39.596 C46.555,49.765 20.331,73.353 14.353,106.392 C14.084,107.879 14.493,109.415 15.461,110.574 C16.428,111.741 17.866,112.409 19.382,112.409 C19.382,112.409 28.903,112.409 28.903,112.409 C27.386,112.409 25.949,111.741 24.982,110.574 C24.014,109.415 23.605,107.879 23.874,106.392 C29.553,74.999 53.504,52.163 73.589,41.240 C73.202,40.696 72.738,40.202 72.151,39.836 Z" id="path-5" class="cls-6" fill-rule="evenodd"/>
    <path d="M110.659,14.920 C110.659,14.920 110.649,14.920 110.649,14.920 C110.639,14.920 110.639,14.920 110.639,14.920 C109.362,15.190 107.975,14.930 106.827,14.181 C105.391,13.243 104.522,11.637 104.522,9.910 C104.522,9.910 104.522,0.013 104.522,0.013 C104.522,0.013 95.002,0.013 95.002,0.013 C95.002,0.013 95.002,9.910 95.002,9.910 C95.002,11.637 95.870,13.243 97.307,14.181 C98.454,14.930 99.841,15.190 101.118,14.920 C101.118,14.920 101.118,14.920 101.129,14.920 C101.129,14.920 101.139,14.920 101.139,14.920 C159.005,14.920 205.815,59.603 207.702,116.600 C207.721,117.759 207.441,126.948 207.262,132.845 C207.262,132.845 216.783,132.845 216.783,132.845 C216.962,126.948 217.241,117.759 217.223,116.600 C215.336,59.603 168.527,14.920 110.659,14.920 Z" id="path-6" class="cls-6" fill-rule="evenodd"/>
    <path d="M151.202,112.409 C151.202,112.409 160.723,112.409 160.723,112.409 C157.898,112.409 155.614,110.124 155.614,107.300 C155.614,107.300 155.614,89.319 155.614,89.319 C148.678,83.780 141.842,79.221 135.178,75.698 C135.178,75.698 135.178,81.376 135.178,81.376 C138.782,83.750 142.422,86.388 146.093,89.319 C146.093,89.319 146.093,107.300 146.093,107.300 C146.093,110.124 148.378,112.409 151.202,112.409 Z" id="path-7" class="cls-6" fill-rule="evenodd"/>
  </g>
</svg>
