<svg xmlns="http://www.w3.org/2000/svg" xmlns:xlink="http://www.w3.org/1999/xlink" preserveAspectRatio="xMidYMid" width="176" height="218" viewBox="0 0 176 218">
  <defs>
    <style>

      .cls-3 {
        fill: #ff3a2f;
      }

      .cls-5 {
        fill: #142a3b;
      }

      .cls-12 {
        fill: #fbb713;
      }
    </style>
  </defs>
  <g id="group-116svg">
    <path d="M96.003,197.756 C96.003,197.756 85.258,197.756 85.258,197.756 C83.186,197.756 81.506,199.146 81.506,200.859 C81.506,202.574 83.186,203.964 85.258,203.964 C85.258,203.964 85.759,203.964 85.759,203.964 C87.830,203.964 89.509,205.353 89.509,207.068 C89.509,208.781 87.830,210.171 85.759,210.171 C85.759,210.171 62.659,210.171 62.659,210.171 C60.587,210.171 58.908,211.560 58.908,213.275 C58.908,214.990 60.587,216.379 62.659,216.379 C62.659,216.379 90.418,216.379 90.418,216.379 C90.418,216.379 147.157,216.379 147.157,216.379 C149.229,216.379 150.909,214.990 150.909,213.275 C150.909,211.560 149.229,210.171 147.157,210.171 C147.157,210.171 140.747,210.171 140.747,210.171 C138.675,210.171 136.995,208.781 136.995,207.068 C136.995,205.353 138.675,203.964 140.747,203.964 C140.747,203.964 165.925,203.964 165.925,203.964 C167.997,203.964 169.676,202.574 169.676,200.859 C169.676,199.146 167.997,197.756 165.925,197.756 C165.925,197.756 164.046,197.756 164.046,197.756 C164.046,197.756 96.003,197.756 96.003,197.756 Z" id="path-1" class="cls-3" fill-rule="evenodd"/>
    <path d="M162.645,217.210 C160.908,217.210 159.500,215.721 159.500,213.884 C159.500,212.047 160.908,210.557 162.645,210.557 C162.645,210.557 172.283,210.557 172.283,210.557 C174.019,210.557 175.427,212.047 175.427,213.884 C175.427,215.721 174.019,217.210 172.283,217.210 C172.283,217.210 162.645,217.210 162.645,217.210 Z" id="path-2" class="cls-3" fill-rule="evenodd"/>
    <path d="M19.789,181.884 C17.788,181.884 16.169,180.263 16.169,178.264 C16.169,178.264 16.169,122.030 16.169,122.030 C16.169,120.030 17.788,118.409 19.789,118.409 C21.790,118.409 23.409,120.030 23.409,122.030 C23.409,122.030 23.409,178.264 23.409,178.264 C23.409,180.263 21.790,181.884 19.789,181.884 Z" id="path-3" class="cls-5" fill-rule="evenodd"/>
    <path d="M19.789,78.788 C17.788,78.788 16.169,77.167 16.169,75.168 C16.169,75.168 16.169,18.933 16.169,18.933 C16.169,16.935 17.788,15.314 19.789,15.314 C21.790,15.314 23.409,16.935 23.409,18.933 C23.409,18.933 23.409,75.168 23.409,75.168 C23.409,77.167 21.790,78.788 19.789,78.788 Z" id="path-4" class="cls-5" fill-rule="evenodd"/>
    <circle id="circle-1" class="cls-5" cx="21" cy="15" r="15"/>
    <circle id="circle-2" class="cls-5" cx="21" cy="184" r="15"/>
    <path d="M22.172,82.286 C21.865,82.286 21.553,82.247 21.246,82.165 C19.312,81.655 18.159,79.676 18.668,77.742 C28.097,41.982 60.541,17.006 97.562,17.006 C99.563,17.006 101.182,18.627 101.182,20.627 C101.182,22.627 99.563,24.249 97.562,24.249 C63.825,24.249 34.260,47.004 25.669,79.587 C25.241,81.212 23.773,82.286 22.172,82.286 Z" id="path-5" class="cls-5" fill-rule="evenodd"/>
    <path d="M97.562,180.190 C60.527,180.190 28.077,155.200 18.651,119.419 C18.141,117.484 19.294,115.505 21.228,114.995 C23.165,114.488 25.142,115.637 25.651,117.574 C34.239,150.178 63.811,172.950 97.562,172.950 C99.563,172.950 101.182,174.571 101.182,176.570 C101.182,178.569 99.563,180.190 97.562,180.190 Z" id="path-6" class="cls-5" fill-rule="evenodd"/>
    <path d="M42.187,122.030 C42.187,122.030 4.696,122.030 4.696,122.030 C2.105,122.030 0.010,119.935 0.010,117.344 C0.010,117.344 0.010,79.853 0.010,79.853 C0.010,77.263 2.105,75.168 4.696,75.168 C4.696,75.168 42.187,75.168 42.187,75.168 C44.778,75.168 46.873,77.263 46.873,79.853 C46.873,79.853 46.873,117.344 46.873,117.344 C46.873,119.935 44.778,122.030 42.187,122.030 Z" id="path-7" class="cls-3" fill-rule="evenodd"/>
    <path d="M135.913,47.051 C135.913,47.051 98.423,47.051 98.423,47.051 C95.832,47.051 93.736,44.956 93.736,42.365 C93.736,42.365 93.736,4.876 93.736,4.876 C93.736,2.286 95.832,0.189 98.423,0.189 C98.423,0.189 135.913,0.189 135.913,0.189 C138.504,0.189 140.599,2.286 140.599,4.876 C140.599,4.876 140.599,42.365 140.599,42.365 C140.599,44.956 138.504,47.051 135.913,47.051 Z" id="path-8" class="cls-12" fill-rule="evenodd"/>
    <path d="M135.913,197.008 C135.913,197.008 98.423,197.008 98.423,197.008 C95.832,197.008 93.736,194.912 93.736,192.321 C93.736,192.321 93.736,154.833 93.736,154.833 C93.736,152.242 95.832,150.147 98.423,150.147 C98.423,150.147 135.913,150.147 135.913,150.147 C138.504,150.147 140.599,152.242 140.599,154.833 C140.599,154.833 140.599,192.321 140.599,192.321 C140.599,194.912 138.504,197.008 135.913,197.008 Z" id="path-9" class="cls-12" fill-rule="evenodd"/>
  </g>
</svg>
