<svg xmlns="http://www.w3.org/2000/svg" xmlns:xlink="http://www.w3.org/1999/xlink" preserveAspectRatio="xMidYMid" width="214" height="218" viewBox="0 0 214 218">
  <defs>
    <style>

      .cls-3 {
        fill: #142a3b;
      }

      .cls-5 {
        fill: #0cb04a;
      }

      .cls-6 {
        fill: #000000;
        opacity: 0.35;
      }

      .cls-11 {
        fill: #ededed;
      }
    </style>
  </defs>
  <g id="group-137svg">
    <path d="M78.269,186.754 C78.269,186.754 59.869,186.754 59.869,186.754 C56.321,186.754 53.445,188.930 53.445,191.615 C53.445,194.302 56.321,196.478 59.869,196.478 C59.869,196.478 60.725,196.478 60.725,196.478 C64.273,196.478 67.149,198.655 67.149,201.340 C67.149,204.025 64.273,206.201 60.725,206.201 C60.725,206.201 21.170,206.201 21.170,206.201 C17.623,206.201 14.747,208.378 14.747,211.063 C14.747,213.748 17.623,215.924 21.170,215.924 C21.170,215.924 68.705,215.924 68.705,215.924 C68.705,215.924 165.866,215.924 165.866,215.924 C169.414,215.924 172.290,213.748 172.290,211.063 C172.290,208.378 169.414,206.201 165.866,206.201 C165.866,206.201 154.888,206.201 154.888,206.201 C151.341,206.201 148.465,204.025 148.465,201.340 C148.465,198.655 151.341,196.478 154.888,196.478 C154.888,196.478 198.004,196.478 198.004,196.478 C201.552,196.478 204.428,194.302 204.428,191.615 C204.428,188.930 201.552,186.754 198.004,186.754 C198.004,186.754 194.786,186.754 194.786,186.754 C194.786,186.754 78.269,186.754 78.269,186.754 Z" id="path-1" class="cls-3" fill-rule="evenodd"/>
    <path d="M192.387,217.226 C189.412,217.226 187.001,214.894 187.001,212.016 C187.001,209.139 189.412,206.807 192.387,206.807 C192.387,206.807 208.890,206.807 208.890,206.807 C211.865,206.807 214.276,209.139 214.276,212.016 C214.276,214.894 211.865,217.226 208.890,217.226 C208.890,217.226 192.387,217.226 192.387,217.226 Z" id="path-2" class="cls-3" fill-rule="evenodd"/>
    <path d="M138.497,189.922 C138.497,189.922 3.968,189.922 3.968,189.922 C1.781,189.922 0.012,188.152 0.012,185.965 C0.012,185.965 0.012,3.961 0.012,3.961 C0.012,1.776 1.781,0.006 3.968,0.006 C3.968,0.006 100.016,0.006 100.016,0.006 C101.148,0.006 102.230,0.492 102.979,1.342 C102.979,1.342 141.461,44.864 141.461,44.864 C142.103,45.585 142.453,46.519 142.453,47.484 C142.453,47.484 142.453,185.965 142.453,185.965 C142.453,188.152 140.684,189.922 138.497,189.922 Z" id="path-3" class="cls-5" fill-rule="evenodd"/>
    <path d="M141.461,44.864 C141.461,44.864 102.979,1.342 102.979,1.342 C102.230,0.492 101.148,0.006 100.016,0.006 C100.016,0.006 3.968,0.006 3.968,0.006 C1.837,0.006 0.131,1.696 0.043,3.804 C0.043,3.804 92.419,3.804 92.419,3.804 C93.551,3.804 94.633,4.290 95.382,5.140 C95.382,5.140 133.863,48.663 133.863,48.663 C134.505,49.383 134.856,50.316 134.856,51.283 C134.856,51.283 134.856,189.764 134.856,189.764 C134.856,189.821 134.827,189.866 134.825,189.922 C134.825,189.922 138.497,189.922 138.497,189.922 C140.684,189.922 142.453,188.152 142.453,185.965 C142.453,185.965 142.453,47.484 142.453,47.484 C142.453,46.519 142.102,45.585 141.461,44.864 Z" id="path-4" class="cls-6" fill-rule="evenodd"/>
    <path d="M27.373,31.480 C27.373,31.480 20.132,31.480 20.132,31.480 C20.132,31.480 20.132,0.500 20.132,0.500 C20.132,0.500 27.373,0.500 27.373,0.500 C27.373,0.500 27.373,31.480 27.373,31.480 Z" id="path-5" class="cls-3" fill-rule="evenodd"/>
    <path d="M51.112,31.480 C51.112,31.480 43.872,31.480 43.872,31.480 C43.872,31.480 43.872,0.500 43.872,0.500 C43.872,0.500 51.112,0.500 51.112,0.500 C51.112,0.500 51.112,31.480 51.112,31.480 Z" id="path-6" class="cls-3" fill-rule="evenodd"/>
    <path d="M74.853,31.480 C74.853,31.480 67.612,31.480 67.612,31.480 C67.612,31.480 67.612,0.500 67.612,0.500 C67.612,0.500 74.853,0.500 74.853,0.500 C74.853,0.500 74.853,31.480 74.853,31.480 Z" id="path-7" class="cls-3" fill-rule="evenodd"/>
    <path d="M98.594,31.480 C98.594,31.480 91.353,31.480 91.353,31.480 C91.353,31.480 91.353,0.500 91.353,0.500 C91.353,0.500 98.594,0.500 98.594,0.500 C98.594,0.500 98.594,31.480 98.594,31.480 Z" id="path-8" class="cls-3" fill-rule="evenodd"/>
    <path d="M114.757,189.922 C114.757,189.922 27.709,189.922 27.709,189.922 C25.521,189.922 23.752,188.152 23.752,185.965 C23.752,185.965 23.752,122.659 23.752,122.659 C23.752,111.014 30.982,102.877 41.329,102.877 C41.329,102.877 96.723,102.877 96.723,102.877 C107.102,102.877 118.713,111.339 118.713,122.659 C118.713,122.659 118.713,185.965 118.713,185.965 C118.713,188.152 116.944,189.922 114.757,189.922 Z" id="path-9" class="cls-11" fill-rule="evenodd"/>
    <path d="M96.723,102.877 C96.723,102.877 41.329,102.877 41.329,102.877 C36.914,102.877 33.122,104.428 30.161,107.033 C31.304,106.807 32.492,106.676 33.732,106.676 C33.732,106.676 89.127,106.676 89.127,106.676 C99.505,106.676 111.116,115.137 111.116,126.458 C111.116,126.458 111.116,189.764 111.116,189.764 C111.116,189.821 111.087,189.866 111.085,189.922 C111.085,189.922 114.757,189.922 114.757,189.922 C116.944,189.922 118.714,188.152 118.714,185.965 C118.714,185.965 118.714,122.659 118.714,122.659 C118.714,111.339 107.102,102.877 96.723,102.877 Z" id="path-10" class="cls-6" fill-rule="evenodd"/>
  </g>
</svg>
