<svg xmlns="http://www.w3.org/2000/svg" xmlns:xlink="http://www.w3.org/1999/xlink" preserveAspectRatio="xMidYMid" width="217" height="205" viewBox="0 0 217 205">
  <defs>
    <style>

      .cls-3 {
        fill: #ff3a2f;
      }

      .cls-5 {
        fill: #2476ff;
      }

      .cls-6 {
        fill: #000000;
        opacity: 0.35;
      }

      .cls-7 {
        fill: #fbb713;
      }

      .cls-8 {
        fill: #142a3b;
      }

      .cls-9 {
        fill: #ededed;
      }
    </style>
  </defs>
  <g id="group-75svg">
    <path d="M89.964,166.513 C89.964,166.513 72.206,166.513 72.206,166.513 C68.782,166.513 66.007,169.313 66.007,172.766 C66.007,176.218 68.782,179.019 72.206,179.019 C72.206,179.019 73.033,179.019 73.033,179.019 C76.456,179.019 79.232,181.816 79.232,185.271 C79.232,188.723 76.456,191.522 73.033,191.522 C73.033,191.522 34.858,191.522 34.858,191.522 C31.435,191.522 28.658,194.322 28.658,197.774 C28.658,201.228 31.435,204.026 34.858,204.026 C34.858,204.026 80.734,204.026 80.734,204.026 C80.734,204.026 174.504,204.026 174.504,204.026 C177.927,204.026 180.703,201.228 180.703,197.774 C180.703,194.322 177.927,191.522 174.504,191.522 C174.504,191.522 163.909,191.522 163.909,191.522 C160.485,191.522 157.710,188.723 157.710,185.271 C157.710,181.816 160.485,179.019 163.909,179.019 C163.909,179.019 205.520,179.019 205.520,179.019 C208.944,179.019 211.719,176.218 211.719,172.766 C211.719,169.313 208.944,166.513 205.520,166.513 C205.520,166.513 202.414,166.513 202.414,166.513 C202.414,166.513 89.964,166.513 89.964,166.513 Z" id="path-1" class="cls-3" fill-rule="evenodd"/>
    <path d="M202.007,204.588 C200.148,204.588 198.640,202.608 198.640,200.166 C198.640,197.724 200.148,195.743 202.007,195.743 C202.007,195.743 212.327,195.743 212.327,195.743 C214.186,195.743 215.694,197.724 215.694,200.166 C215.694,202.608 214.186,204.588 212.327,204.588 C212.327,204.588 202.007,204.588 202.007,204.588 Z" id="path-2" class="cls-3" fill-rule="evenodd"/>
    <path d="M213.189,73.406 C207.806,68.025 199.080,68.025 193.698,73.406 C193.698,73.406 185.086,82.018 185.086,82.018 C185.086,82.018 185.086,43.973 185.086,43.973 C185.086,19.689 163.342,0.002 136.519,0.002 C109.697,0.002 87.953,19.689 87.953,43.973 C87.953,43.973 87.953,153.571 87.953,153.571 C87.953,153.571 185.086,153.571 185.086,153.571 C185.086,153.571 213.189,92.897 213.189,92.897 C218.571,87.515 218.571,78.788 213.189,73.406 Z" id="path-3" class="cls-5" fill-rule="evenodd"/>
    <path d="M188.368,146.487 C188.368,146.487 185.086,153.571 185.086,153.571 C185.086,153.571 87.953,153.571 87.953,153.571 C87.953,153.571 87.953,154.558 87.953,154.558 C87.953,154.558 188.368,146.487 188.368,146.487 Z" id="path-4" class="cls-6" fill-rule="evenodd"/>
    <path d="M191.649,169.322 C191.649,169.322 80.734,169.322 80.734,169.322 C80.734,169.322 80.734,153.571 80.734,153.571 C80.734,153.571 191.649,153.571 191.649,153.571 C191.649,153.571 191.649,169.322 191.649,169.322 Z" id="path-5" class="cls-7" fill-rule="evenodd"/>
    <path d="M12.924,123.417 C12.924,115.806 19.094,109.635 26.707,109.635 C26.707,109.635 38.885,109.635 38.885,109.635 C38.885,109.635 11.982,82.733 11.982,82.733 C-5.190,65.562 -3.736,36.267 15.231,17.300 C34.197,-1.665 63.493,-3.119 80.666,14.052 C80.666,14.052 158.166,91.550 158.166,91.550 C158.166,91.550 89.483,160.232 89.483,160.232 C89.483,160.232 26.707,137.199 26.707,137.199 C19.094,137.199 12.924,131.029 12.924,123.417 Z" id="path-6" class="cls-8" fill-rule="evenodd"/>
    <path d="M22.772,32.453 C21.846,32.453 20.919,32.099 20.212,31.392 C18.798,29.978 18.798,27.687 20.212,26.273 C28.409,18.074 39.030,13.255 50.116,12.705 C61.331,12.152 71.692,16.016 79.273,23.595 C80.687,25.009 80.687,27.299 79.273,28.713 C77.859,30.128 75.567,30.128 74.153,28.713 C68.037,22.599 59.608,19.496 50.477,19.937 C41.187,20.398 32.258,24.467 25.331,31.392 C24.624,32.099 23.699,32.453 22.772,32.453 Z" id="path-7" class="cls-9" fill-rule="evenodd"/>
    <path d="M172.606,53.187 C170.605,53.187 168.986,51.565 168.986,49.567 C168.986,31.575 152.651,16.939 132.572,16.939 C130.571,16.939 128.952,15.318 128.952,13.319 C128.952,11.319 130.571,9.698 132.572,9.698 C156.643,9.698 176.227,27.582 176.227,49.567 C176.227,51.565 174.608,53.187 172.606,53.187 Z" id="path-8" class="cls-9" fill-rule="evenodd"/>
    <path d="M151.362,84.747 C151.362,84.747 158.166,91.550 158.166,91.550 C158.166,91.550 89.483,160.232 89.483,160.232 C89.483,160.232 89.483,160.232 89.483,160.232 C89.483,160.232 151.362,84.747 151.362,84.747 Z" id="path-9" class="cls-6" fill-rule="evenodd"/>
    <path d="M34.605,137.199 C26.994,137.199 20.823,131.029 20.823,123.417 C20.823,115.806 26.993,109.636 34.604,109.635 C34.604,109.635 26.707,109.635 26.707,109.635 C19.094,109.635 12.924,115.806 12.924,123.417 C12.924,131.029 19.094,137.199 26.707,137.199 C26.707,137.199 89.483,160.232 89.483,160.232 C89.483,160.232 91.603,158.110 91.603,158.110 C91.603,158.110 34.605,137.199 34.605,137.199 Z" id="path-10" class="cls-6" fill-rule="evenodd"/>
    <path d="M46.784,109.635 C46.784,109.635 19.881,82.733 19.881,82.733 C2.709,65.562 4.164,36.267 23.130,17.300 C32.165,8.266 43.545,3.254 54.842,2.288 C41.108,1.099 26.386,6.145 15.231,17.300 C-3.735,36.267 -5.190,65.562 11.982,82.733 C11.982,82.733 38.885,109.635 38.885,109.635 C38.885,109.635 46.784,109.635 46.784,109.635 Z" id="path-11" class="cls-6" fill-rule="evenodd"/>
    <path d="M95.980,176.009 C95.980,176.009 174.409,97.584 174.409,97.584 C174.409,97.584 163.271,86.445 163.271,86.445 C163.271,86.445 84.842,164.872 84.842,164.872 C84.842,164.872 95.980,176.009 95.980,176.009 Z" id="path-12" class="cls-7" fill-rule="evenodd"/>
    <path d="M174.409,97.738 C174.409,97.738 102.924,169.223 102.924,169.223 C102.924,169.223 108.931,169.322 108.931,169.322 C108.931,169.322 179.433,98.396 179.433,98.396 C179.433,98.396 163.271,86.445 163.271,86.445 C163.271,86.445 174.409,97.738 174.409,97.738 Z" id="path-13" class="cls-6" fill-rule="evenodd"/>
    <path d="M161.918,87.817 C161.918,87.817 158.193,91.542 158.193,91.542 C158.193,91.542 92.425,25.776 92.425,25.776 C92.425,25.776 93.755,23.122 93.755,23.122 C93.755,23.122 161.918,87.817 161.918,87.817 Z" id="path-14" class="cls-6" fill-rule="evenodd"/>
  </g>
</svg>
