<svg xmlns="http://www.w3.org/2000/svg" xmlns:xlink="http://www.w3.org/1999/xlink" preserveAspectRatio="xMidYMid" width="217" height="190" viewBox="0 0 217 190">
  <defs>
    <style>

      .cls-3 {
        fill: #142a3b;
      }

      .cls-6 {
        fill: #0cb04a;
      }

      .cls-7 {
        fill: #020403;
        opacity: 0.3;
      }
    </style>
  </defs>
  <g id="group-16svg">
    <path d="M54.715,169.503 C54.715,169.503 38.864,169.503 38.864,169.503 C35.807,169.503 33.329,170.922 33.329,172.672 C33.329,174.422 35.807,175.840 38.864,175.840 C38.864,175.840 39.602,175.840 39.602,175.840 C42.657,175.840 45.135,177.259 45.135,179.009 C45.135,180.759 42.657,182.179 39.602,182.179 C39.602,182.179 5.525,182.179 5.525,182.179 C2.468,182.179 -0.009,183.596 -0.009,185.347 C-0.009,187.097 2.468,188.515 5.525,188.515 C5.525,188.515 46.476,188.515 46.476,188.515 C46.476,188.515 130.180,188.515 130.180,188.515 C133.236,188.515 135.714,187.097 135.714,185.347 C135.714,183.596 133.236,182.179 130.180,182.179 C130.180,182.179 120.723,182.179 120.723,182.179 C117.666,182.179 115.188,180.759 115.188,179.009 C115.188,177.259 117.666,175.840 120.723,175.840 C120.723,175.840 157.867,175.840 157.867,175.840 C160.923,175.840 163.401,174.422 163.401,172.672 C163.401,170.922 160.923,169.503 157.867,169.503 C157.867,169.503 155.095,169.503 155.095,169.503 C155.095,169.503 54.715,169.503 54.715,169.503 Z" id="path-1" class="cls-3" fill-rule="evenodd"/>
    <path d="M152.073,189.364 C149.511,189.364 147.433,187.844 147.433,185.968 C147.433,184.093 149.511,182.572 152.073,182.572 C152.073,182.572 166.291,182.572 166.291,182.572 C168.853,182.572 170.931,184.093 170.931,185.968 C170.931,187.844 168.853,189.364 166.291,189.364 C166.291,189.364 152.073,189.364 152.073,189.364 Z" id="path-2" class="cls-3" fill-rule="evenodd"/>
    <path d="M46.183,98.797 C43.621,98.797 41.544,97.276 41.544,95.400 C41.544,93.525 43.621,92.005 46.183,92.005 C46.183,92.005 60.401,92.005 60.401,92.005 C62.964,92.005 65.040,93.525 65.040,95.400 C65.040,97.276 62.964,98.797 60.401,98.797 C60.401,98.797 46.183,98.797 46.183,98.797 Z" id="path-3" class="cls-3" fill-rule="evenodd"/>
    <path d="M72.395,177.735 C71.774,177.735 71.145,177.576 70.580,177.259 C69.416,176.600 68.693,175.363 68.693,174.032 C68.693,174.032 68.693,3.698 68.693,3.698 C68.693,2.367 69.416,1.130 70.580,0.473 C71.744,-0.178 73.177,-0.165 74.312,0.531 C74.312,0.531 215.425,85.687 215.425,85.687 C216.539,86.348 217.219,87.553 217.219,88.851 C217.219,90.153 216.539,91.357 215.425,92.018 C215.425,92.018 74.312,177.211 74.312,177.211 C73.726,177.562 73.061,177.735 72.395,177.735 Z" id="path-4" class="cls-6" fill-rule="evenodd"/>
    <path d="M215.425,85.687 C215.425,85.687 74.312,0.531 74.312,0.531 C73.688,0.148 72.974,-0.008 72.264,0.019 C72.264,0.019 192.803,72.760 192.803,72.760 C193.918,73.422 194.597,74.626 194.597,75.924 C194.597,77.226 193.918,78.430 192.803,79.092 C192.803,79.092 68.693,154.019 68.693,154.019 C68.693,154.019 68.693,174.032 68.693,174.032 C68.693,175.363 69.416,176.600 70.580,177.258 C71.145,177.575 71.774,177.736 72.395,177.736 C73.061,177.736 73.726,177.562 74.312,177.210 C74.312,177.210 215.425,92.019 215.425,92.019 C216.539,91.357 217.219,90.153 217.219,88.851 C217.219,87.553 216.539,86.348 215.425,85.687 Z" id="path-5" class="cls-7" fill-rule="evenodd"/>
  </g>
</svg>
