<svg xmlns="http://www.w3.org/2000/svg" xmlns:xlink="http://www.w3.org/1999/xlink" preserveAspectRatio="xMidYMid" width="140" height="218" viewBox="0 0 140 218">
  <defs>
    <style>

      .cls-3 {
        fill: #0cb04a;
      }

      .cls-7 {
        fill: #142a3b;
      }

      .cls-8 {
        fill: #000000;
        opacity: 0.35;
      }

      .cls-9 {
        fill: #ff3a2f;
      }

      .cls-15 {
        fill: #fbb713;
      }

      .cls-16 {
        fill: #ededed;
      }

      .cls-17 {
        fill: #000000;
        opacity: 0.25;
      }

      .cls-18 {
        fill: #ffffff;
      }
    </style>
  </defs>
  <g id="group-74svg">
    <path d="M46.882,196.132 C46.882,196.132 33.751,196.132 33.751,196.132 C31.220,196.132 29.168,197.686 29.168,199.601 C29.168,201.518 31.220,203.071 33.751,203.071 C33.751,203.071 34.363,203.071 34.363,203.071 C36.894,203.071 38.947,204.625 38.947,206.540 C38.947,208.457 36.894,210.010 34.363,210.010 C34.363,210.010 6.136,210.010 6.136,210.010 C3.604,210.010 1.552,211.563 1.552,213.479 C1.552,215.397 3.604,216.949 6.136,216.949 C6.136,216.949 40.057,216.949 40.057,216.949 C40.057,216.949 109.393,216.949 109.393,216.949 C111.924,216.949 113.976,215.397 113.976,213.479 C113.976,211.563 111.924,210.010 109.393,210.010 C109.393,210.010 101.558,210.010 101.558,210.010 C99.027,210.010 96.975,208.457 96.975,206.540 C96.975,204.625 99.027,203.071 101.558,203.071 C101.558,203.071 132.326,203.071 132.326,203.071 C134.858,203.071 136.910,201.518 136.910,199.601 C136.910,197.686 134.858,196.132 132.326,196.132 C132.326,196.132 130.030,196.132 130.030,196.132 C130.030,196.132 46.882,196.132 46.882,196.132 Z" id="path-1" class="cls-3" fill-rule="evenodd"/>
    <path d="M123.449,217.219 C121.524,217.219 119.963,216.156 119.963,214.845 C119.963,213.534 121.524,212.471 123.449,212.471 C123.449,212.471 134.131,212.471 134.131,212.471 C136.057,212.471 137.618,213.534 137.618,214.845 C137.618,216.156 136.057,217.219 134.131,217.219 C134.131,217.219 123.449,217.219 123.449,217.219 Z" id="path-2" class="cls-3" fill-rule="evenodd"/>
    <path d="M27.528,185.378 C27.528,185.378 31.273,185.378 31.273,185.378 C31.995,185.378 32.580,184.736 32.580,183.944 C32.580,183.152 31.995,182.510 31.273,182.510 C31.273,182.510 31.099,182.510 31.099,182.510 C30.377,182.510 29.791,181.868 29.791,181.077 C29.791,180.285 30.377,179.643 31.099,179.643 C31.099,179.643 39.150,179.643 39.150,179.643 C39.871,179.643 40.457,179.001 40.457,178.210 C40.457,177.417 39.871,176.775 39.150,176.775 C39.150,176.775 29.474,176.775 29.474,176.775 C29.474,176.775 9.700,176.775 9.700,176.775 C8.978,176.775 8.393,177.417 8.393,178.210 C8.393,179.001 8.978,179.643 9.700,179.643 C9.700,179.643 11.934,179.643 11.934,179.643 C12.656,179.643 13.241,180.285 13.241,181.077 C13.241,181.868 12.656,182.510 11.934,182.510 C11.934,182.510 1.301,182.510 1.301,182.510 C0.579,182.510 -0.007,183.152 -0.007,183.944 C-0.007,184.736 0.579,185.378 1.301,185.378 C1.301,185.378 3.814,185.378 3.814,185.378 C3.814,185.378 27.528,185.378 27.528,185.378 Z" id="path-3" class="cls-3" fill-rule="evenodd"/>
    <path d="M65.286,194.533 C63.163,194.533 61.443,192.869 61.443,190.815 C61.443,188.763 63.163,187.098 65.286,187.098 C65.286,187.098 77.063,187.098 77.063,187.098 C79.185,187.098 80.906,188.763 80.906,190.815 C80.906,192.869 79.185,194.533 77.063,194.533 C77.063,194.533 65.286,194.533 65.286,194.533 Z" id="path-4" class="cls-3" fill-rule="evenodd"/>
    <path d="M74.722,211.169 C74.722,211.169 74.722,211.169 74.722,211.169 C61.548,211.169 51.208,199.876 52.367,186.753 C52.367,186.753 64.217,105.506 64.217,105.506 C64.217,105.506 85.228,105.506 85.228,105.506 C85.228,105.506 97.077,186.753 97.077,186.753 C98.237,199.876 87.896,211.169 74.722,211.169 Z" id="path-5" class="cls-7" fill-rule="evenodd"/>
    <path d="M85.228,105.506 C85.228,105.506 64.217,105.506 64.217,105.506 C64.217,105.506 60.061,134.004 60.061,134.004 C63.473,138.353 68.765,141.159 74.722,141.159 C80.680,141.159 85.972,138.353 89.384,134.004 C89.384,134.004 85.228,105.506 85.228,105.506 Z" id="path-6" class="cls-8" fill-rule="evenodd"/>
    <path d="M139.469,64.742 C139.469,54.447 131.123,46.102 120.829,46.102 C120.404,46.102 119.987,46.138 119.569,46.166 C119.884,45.891 120.204,45.620 120.505,45.320 C127.784,38.041 127.784,26.239 120.505,18.960 C113.225,11.680 101.424,11.680 94.144,18.960 C93.844,19.262 93.574,19.582 93.298,19.896 C93.327,19.477 93.362,19.061 93.362,18.636 C93.362,8.342 85.017,-0.003 74.722,-0.003 C64.428,-0.003 56.082,8.342 56.082,18.636 C56.082,19.061 56.118,19.477 56.146,19.896 C55.870,19.582 55.601,19.262 55.300,18.960 C48.021,11.680 36.219,11.680 28.939,18.960 C21.660,26.239 21.660,38.041 28.939,45.320 C29.240,45.620 29.560,45.891 29.876,46.166 C29.457,46.138 29.041,46.102 28.616,46.102 C18.321,46.102 9.976,54.447 9.976,64.742 C9.976,75.036 18.321,83.381 28.616,83.381 C29.041,83.381 29.457,83.345 29.876,83.317 C29.560,83.593 29.240,83.862 28.939,84.162 C21.660,91.442 21.660,103.244 28.939,110.523 C36.219,117.801 48.021,117.801 55.300,110.523 C55.601,110.222 55.870,109.901 56.146,109.587 C56.118,110.004 56.082,110.421 56.082,110.847 C56.082,121.141 64.428,129.486 74.722,129.486 C85.017,129.486 93.362,121.141 93.362,110.847 C93.362,110.421 93.327,110.004 93.298,109.587 C93.574,109.901 93.844,110.222 94.144,110.523 C101.424,117.801 113.225,117.801 120.505,110.523 C127.784,103.244 127.784,91.442 120.505,84.162 C120.204,83.862 119.884,83.593 119.569,83.317 C119.987,83.345 120.404,83.381 120.829,83.381 C131.123,83.381 139.469,75.036 139.469,64.742 Z" id="path-7" class="cls-9" fill-rule="evenodd"/>
    <path d="M113.501,40.652 C113.201,40.952 112.881,41.221 112.565,41.498 C112.984,41.469 113.400,41.433 113.825,41.433 C116.820,41.433 119.640,42.157 122.147,43.412 C127.715,36.106 127.181,25.636 120.505,18.960 C118.561,17.015 116.290,15.609 113.873,14.703 C120.761,22.008 120.649,33.504 113.501,40.652 Z" id="path-8" class="cls-8" fill-rule="evenodd"/>
    <path d="M86.358,13.967 C86.358,14.392 86.323,14.809 86.295,15.228 C86.571,14.913 86.841,14.592 87.141,14.291 C88.515,12.916 90.052,11.804 91.688,10.948 C89.656,6.470 85.908,2.949 81.279,1.207 C84.421,4.542 86.358,9.025 86.358,13.967 Z" id="path-9" class="cls-8" fill-rule="evenodd"/>
    <path d="M139.469,64.742 C139.469,56.759 134.441,49.967 127.387,47.312 C130.527,50.648 132.465,55.129 132.465,60.073 C132.465,70.367 124.120,78.712 113.825,78.712 C113.400,78.712 112.984,78.676 112.565,78.648 C112.881,78.923 113.201,79.193 113.501,79.493 C120.781,86.774 120.781,98.575 113.501,105.854 C108.166,111.188 100.405,112.596 93.773,110.110 C93.896,110.249 94.012,110.391 94.144,110.523 C101.424,117.801 113.225,117.801 120.505,110.523 C127.784,103.244 127.784,91.442 120.505,84.162 C120.204,83.862 119.884,83.593 119.569,83.317 C119.987,83.345 120.403,83.381 120.829,83.381 C131.123,83.381 139.469,75.036 139.469,64.742 Z" id="path-10" class="cls-8" fill-rule="evenodd"/>
    <path d="M49.079,106.178 C49.079,105.752 49.115,105.335 49.143,104.918 C48.866,105.234 48.598,105.554 48.296,105.854 C42.961,111.188 35.200,112.596 28.567,110.110 C28.694,110.246 28.807,110.390 28.939,110.523 C34.844,116.427 43.724,117.539 50.752,113.866 C49.687,111.520 49.079,108.922 49.079,106.178 Z" id="path-11" class="cls-8" fill-rule="evenodd"/>
    <path d="M87.141,105.854 C86.841,105.554 86.571,105.234 86.295,104.918 C86.323,105.335 86.358,105.752 86.358,106.178 C86.358,116.472 78.013,124.817 67.719,124.817 C65.407,124.817 63.204,124.377 61.161,123.608 C64.561,127.219 69.371,129.486 74.722,129.486 C85.017,129.486 93.362,121.141 93.362,110.847 C93.362,110.545 93.337,110.249 93.317,109.952 C91.069,109.042 88.963,107.677 87.141,105.854 Z" id="path-12" class="cls-8" fill-rule="evenodd"/>
    <path d="M108.536,64.742 C108.536,83.416 93.397,98.555 74.722,98.555 C56.047,98.555 40.908,83.416 40.908,64.742 C40.908,46.067 56.047,30.930 74.722,30.930 C93.397,30.930 108.536,46.067 108.536,64.742 Z" id="path-13" class="cls-15" fill-rule="evenodd"/>
    <path d="M50.571,68.363 C48.569,68.363 46.950,66.742 46.950,64.742 C46.950,49.428 59.410,36.969 74.722,36.969 C76.724,36.969 78.343,38.590 78.343,40.590 C78.343,42.589 76.724,44.210 74.722,44.210 C63.401,44.210 54.191,53.420 54.191,64.742 C54.191,66.742 52.572,68.363 50.571,68.363 Z" id="path-14" class="cls-16" fill-rule="evenodd"/>
    <path d="M84.908,32.496 C93.544,38.622 99.198,48.677 99.198,60.073 C99.198,78.747 84.059,93.886 65.384,93.886 C61.834,93.886 58.414,93.332 55.198,92.319 C60.716,96.231 67.442,98.555 74.722,98.555 C93.397,98.555 108.536,83.416 108.536,64.742 C108.536,49.617 98.604,36.819 84.908,32.496 Z" id="path-15" class="cls-17" fill-rule="evenodd"/>
    <path d="M81.726,187.531 C81.726,191.399 78.590,194.534 74.722,194.534 C70.854,194.534 67.719,191.399 67.719,187.531 C67.719,183.663 70.854,180.528 74.722,180.528 C78.590,180.528 81.726,183.663 81.726,187.531 Z" id="path-16" class="cls-18" fill-rule="evenodd"/>
    <path d="M75.286,180.585 C76.375,181.819 77.056,183.421 77.056,185.197 C77.056,189.065 73.921,192.200 70.053,192.200 C69.860,192.200 69.679,192.159 69.489,192.143 C70.773,193.598 72.630,194.534 74.722,194.534 C78.590,194.534 81.726,191.399 81.726,187.531 C81.726,183.856 78.886,180.877 75.286,180.585 Z" id="path-17" class="cls-8" fill-rule="evenodd"/>
  </g>
</svg>
