<svg xmlns="http://www.w3.org/2000/svg" xmlns:xlink="http://www.w3.org/1999/xlink" preserveAspectRatio="xMidYMid" width="218" height="198" viewBox="0 0 218 198">
  <defs>
    <style>

      .cls-3 {
        fill: #142a3b;
      }

      .cls-7 {
        fill: #0cb04a;
      }

      .cls-8 {
        fill: #000000;
        opacity: 0.35;
      }

      .cls-9 {
        fill: #ff3a2f;
      }

      .cls-10 {
        fill: #000000;
        opacity: 0.25;
      }

      .cls-21 {
        fill: #fbb713;
      }
    </style>
  </defs>
  <g id="group-102svg">
    <path d="M63.430,197.790 C63.430,197.790 72.305,197.790 72.305,197.790 C74.016,197.790 75.403,196.786 75.403,195.544 C75.403,194.304 74.016,193.298 72.305,193.298 C72.305,193.298 71.892,193.298 71.892,193.298 C70.180,193.298 68.793,192.293 68.793,191.053 C68.793,189.813 70.180,188.807 71.892,188.807 C71.892,188.807 90.968,188.807 90.968,188.807 C92.679,188.807 94.066,187.801 94.066,186.561 C94.066,185.320 92.679,184.315 90.968,184.315 C90.968,184.315 68.043,184.315 68.043,184.315 C68.043,184.315 21.184,184.315 21.184,184.315 C19.473,184.315 18.086,185.320 18.086,186.561 C18.086,187.801 19.473,188.807 21.184,188.807 C21.184,188.807 26.478,188.807 26.478,188.807 C28.190,188.807 29.577,189.813 29.577,191.053 C29.577,192.293 28.190,193.298 26.478,193.298 C26.478,193.298 5.684,193.298 5.684,193.298 C3.973,193.298 2.587,194.304 2.587,195.544 C2.587,196.786 3.973,197.790 5.684,197.790 C5.684,197.790 7.236,197.790 7.236,197.790 C7.236,197.790 63.430,197.790 63.430,197.790 Z" id="path-1" class="cls-3" fill-rule="evenodd"/>
    <path d="M8.881,184.113 C10.086,184.113 11.063,184.825 11.063,185.702 C11.063,186.580 10.086,187.290 8.881,187.290 C8.881,187.290 2.193,187.290 2.193,187.290 C0.987,187.290 0.011,186.580 0.011,185.702 C0.011,184.825 0.987,184.113 2.193,184.113 C2.193,184.113 8.881,184.113 8.881,184.113 Z" id="path-2" class="cls-3" fill-rule="evenodd"/>
    <path d="M66.148,121.120 C66.148,121.120 66.148,122.878 66.148,122.878 C66.148,123.217 67.071,123.491 68.209,123.491 C69.347,123.491 70.270,123.217 70.270,122.878 C70.270,122.878 70.270,122.795 70.270,122.795 C70.270,122.457 71.193,122.182 72.332,122.182 C73.470,122.182 74.393,122.457 74.393,122.795 C74.393,122.795 74.393,126.575 74.393,126.575 C74.393,126.913 75.316,127.189 76.454,127.189 C77.592,127.189 78.515,126.913 78.515,126.575 C78.515,126.575 78.515,122.033 78.515,122.033 C78.515,122.033 78.515,112.752 78.515,112.752 C78.515,112.413 77.592,112.138 76.454,112.138 C75.316,112.138 74.393,112.413 74.393,112.752 C74.393,112.752 74.393,113.801 74.393,113.801 C74.393,114.140 73.470,114.415 72.332,114.415 C71.193,114.415 70.270,114.140 70.270,113.801 C70.270,113.801 70.270,109.682 70.270,109.682 C70.270,109.343 69.347,109.068 68.209,109.068 C67.071,109.068 66.148,109.343 66.148,109.682 C66.148,109.682 66.148,109.990 66.148,109.990 C66.148,109.990 66.148,121.120 66.148,121.120 Z" id="path-3" class="cls-3" fill-rule="evenodd"/>
    <path d="M70.534,132.250 C70.534,132.850 69.545,133.339 68.325,133.339 C67.105,133.339 66.116,132.850 66.116,132.250 C66.116,132.250 66.116,128.912 66.116,128.912 C66.116,128.311 67.105,127.823 68.325,127.823 C69.545,127.823 70.534,128.311 70.534,128.912 C70.534,128.912 70.534,132.250 70.534,132.250 Z" id="path-4" class="cls-3" fill-rule="evenodd"/>
    <path d="M117.434,0.001 C117.434,0.001 53.311,0.001 53.311,0.001 C53.311,0.001 53.311,62.761 53.311,62.761 C53.311,62.761 109.418,62.761 109.418,62.761 C109.418,62.761 109.418,161.203 109.418,161.203 C109.418,161.203 29.265,161.203 29.265,161.203 C29.265,161.203 29.265,185.384 29.265,185.384 C29.265,185.384 117.434,185.384 117.434,185.384 C117.434,185.384 213.619,185.384 213.619,185.384 C213.619,185.384 213.619,12.092 213.619,12.092 C213.619,5.418 208.225,0.001 201.595,0.001 C201.595,0.001 117.434,0.001 117.434,0.001 Z" id="path-5" class="cls-7" fill-rule="evenodd"/>
    <path d="M109.418,56.816 C109.418,56.816 53.311,56.816 53.311,56.816 C53.311,56.816 53.311,62.761 53.311,62.761 C53.311,62.761 109.418,62.761 109.418,62.761 C109.418,62.761 109.418,56.816 109.418,56.816 Z" id="path-6" class="cls-8" fill-rule="evenodd"/>
    <path d="M213.619,96.723 C213.619,96.723 173.542,96.723 173.542,96.723 C173.542,96.723 173.542,185.384 173.542,185.384 C173.542,185.384 213.619,185.384 213.619,185.384 C213.619,185.384 213.619,96.723 213.619,96.723 Z" id="path-7" class="cls-9" fill-rule="evenodd"/>
    <path d="M201.595,0.001 C201.595,0.001 194.054,0.001 194.054,0.001 C195.124,1.808 195.778,3.892 195.778,6.145 C195.778,6.145 195.778,164.559 195.778,164.559 C195.778,172.776 189.118,179.437 180.900,179.437 C180.900,179.437 99.594,179.437 99.594,179.437 C99.594,179.437 29.265,179.437 29.265,179.437 C29.265,179.437 29.265,185.383 29.265,185.383 C29.265,185.383 117.434,185.383 117.434,185.383 C117.434,185.383 213.619,185.383 213.619,185.383 C213.619,185.383 213.619,12.092 213.619,12.092 C213.619,5.418 208.226,0.001 201.595,0.001 Z" id="path-8" class="cls-10" fill-rule="evenodd"/>
    <path d="M213.619,43.923 C213.619,43.923 165.527,43.923 165.527,43.923 C163.526,43.923 161.907,42.302 161.907,40.303 C161.907,38.303 163.526,36.682 165.527,36.682 C165.527,36.682 213.619,36.682 213.619,36.682 C215.620,36.682 217.239,38.303 217.239,40.303 C217.239,42.302 215.620,43.923 213.619,43.923 Z" id="path-9" class="cls-3" fill-rule="evenodd"/>
    <path d="M213.619,60.043 C213.619,60.043 165.527,60.043 165.527,60.043 C163.526,60.043 161.907,58.422 161.907,56.424 C161.907,54.423 163.526,52.802 165.527,52.802 C165.527,52.802 213.619,52.802 213.619,52.802 C215.620,52.802 217.239,54.423 217.239,56.424 C217.239,58.422 215.620,60.043 213.619,60.043 Z" id="path-10" class="cls-3" fill-rule="evenodd"/>
    <path d="M213.619,76.163 C213.619,76.163 165.527,76.163 165.527,76.163 C163.526,76.163 161.907,74.541 161.907,72.543 C161.907,70.544 163.526,68.923 165.527,68.923 C165.527,68.923 213.619,68.923 213.619,68.923 C215.620,68.923 217.239,70.544 217.239,72.543 C217.239,74.541 215.620,76.163 213.619,76.163 Z" id="path-11" class="cls-3" fill-rule="evenodd"/>
    <path d="M61.326,90.759 C61.326,90.759 50.277,90.759 50.277,90.759 C48.276,90.759 46.656,89.138 46.656,87.140 C46.656,85.140 48.276,83.519 50.277,83.519 C50.277,83.519 61.326,83.519 61.326,83.519 C63.327,83.519 64.946,85.140 64.946,87.140 C64.946,89.138 63.327,90.759 61.326,90.759 Z" id="path-12" class="cls-3" fill-rule="evenodd"/>
    <path d="M85.371,82.699 C83.370,82.699 81.751,81.077 81.751,79.079 C81.751,79.079 81.751,62.761 81.751,62.761 C81.751,60.762 83.370,59.142 85.371,59.142 C87.372,59.142 88.992,60.762 88.992,62.761 C88.992,62.761 88.992,79.079 88.992,79.079 C88.992,81.077 87.372,82.699 85.371,82.699 Z" id="path-13" class="cls-3" fill-rule="evenodd"/>
    <path d="M69.341,82.699 C67.339,82.699 65.720,81.077 65.720,79.079 C65.720,79.079 65.720,62.761 65.720,62.761 C65.720,60.762 67.339,59.142 69.341,59.142 C71.342,59.142 72.961,60.762 72.961,62.761 C72.961,62.761 72.961,79.079 72.961,79.079 C72.961,81.077 71.342,82.699 69.341,82.699 Z" id="path-14" class="cls-3" fill-rule="evenodd"/>
    <path d="M77.356,106.880 C75.355,106.880 73.736,105.258 73.736,103.260 C73.736,103.260 73.736,95.198 73.736,95.198 C73.736,93.199 75.355,91.578 77.356,91.578 C79.357,91.578 80.976,93.199 80.976,95.198 C80.976,95.198 80.976,103.260 80.976,103.260 C80.976,105.258 79.357,106.880 77.356,106.880 Z" id="path-15" class="cls-3" fill-rule="evenodd"/>
    <path d="M93.388,95.199 C93.388,95.199 61.327,95.199 61.327,95.199 C61.327,95.199 61.327,79.080 61.327,79.080 C61.327,79.080 93.388,79.080 93.388,79.080 C93.388,79.080 93.388,95.199 93.388,95.199 Z" id="path-16" class="cls-9" fill-rule="evenodd"/>
    <path d="M93.388,28.212 C93.388,34.887 87.995,40.301 81.365,40.301 C74.715,40.301 69.342,34.887 69.342,28.212 C69.342,21.537 74.715,16.123 81.365,16.123 C87.995,16.123 93.388,21.537 93.388,28.212 Z" id="path-17" class="cls-9" fill-rule="evenodd"/>
    <path d="M91.168,21.254 C92.556,23.224 93.388,25.615 93.388,28.212 C93.388,34.887 87.995,40.301 81.365,40.301 C78.824,40.301 76.477,39.502 74.537,38.152 C76.712,41.243 80.279,43.275 84.338,43.275 C90.968,43.275 96.362,37.860 96.362,31.184 C96.362,27.067 94.299,23.437 91.168,21.254 Z" id="path-18" class="cls-8" fill-rule="evenodd"/>
    <path d="M69.872,160.379 C87.937,160.379 102.580,145.737 102.580,127.673 C102.580,127.673 37.164,127.673 37.164,127.673 C37.164,145.737 51.808,160.379 69.872,160.379 Z" id="path-19" class="cls-21" fill-rule="evenodd"/>
    <path d="M87.713,127.673 C87.713,143.174 76.916,156.128 62.439,159.499 C64.830,160.056 67.311,160.379 69.872,160.379 C87.936,160.379 102.580,145.737 102.580,127.673 C102.580,127.673 87.713,127.673 87.713,127.673 Z" id="path-20" class="cls-10" fill-rule="evenodd"/>
  </g>
</svg>
