<svg xmlns="http://www.w3.org/2000/svg" xmlns:xlink="http://www.w3.org/1999/xlink" preserveAspectRatio="xMidYMid" width="218" height="199" viewBox="0 0 218 199">
  <defs>
    <style>

      .cls-3 {
        fill: #ff3a2f;
      }

      .cls-5 {
        fill: #fbb713;
      }

      .cls-6 {
        fill: #000000;
        opacity: 0.35;
      }

      .cls-8 {
        fill: #000000;
        opacity: 0.25;
      }

      .cls-9 {
        fill: #142a3b;
      }

      .cls-13 {
        fill: #ededed;
      }
    </style>
  </defs>
  <g id="group-60svg">
    <path d="M76.203,176.680 C76.203,176.680 57.125,176.680 57.125,176.680 C53.446,176.680 50.463,178.269 50.463,180.229 C50.463,182.188 53.446,183.777 57.125,183.777 C57.125,183.777 58.013,183.777 58.013,183.777 C61.691,183.777 64.673,185.364 64.673,187.325 C64.673,189.284 61.691,190.872 58.013,190.872 C58.013,190.872 17.000,190.872 17.000,190.872 C13.321,190.872 10.339,192.460 10.339,194.419 C10.339,196.379 13.321,197.968 17.000,197.968 C17.000,197.968 66.287,197.968 66.287,197.968 C66.287,197.968 167.028,197.968 167.028,197.968 C170.708,197.968 173.689,196.379 173.689,194.419 C173.689,192.460 170.708,190.872 167.028,190.872 C167.028,190.872 155.646,190.872 155.646,190.872 C151.968,190.872 148.986,189.284 148.986,187.325 C148.986,185.364 151.968,183.777 155.646,183.777 C155.646,183.777 200.352,183.777 200.352,183.777 C204.030,183.777 207.012,182.188 207.012,180.229 C207.012,178.269 204.030,176.680 200.352,176.680 C200.352,176.680 197.015,176.680 197.015,176.680 C197.015,176.680 76.203,176.680 76.203,176.680 Z" id="path-1" class="cls-3" fill-rule="evenodd"/>
    <path d="M194.528,198.918 C191.444,198.918 188.943,197.215 188.943,195.115 C188.943,193.015 191.444,191.314 194.528,191.314 C194.528,191.314 211.639,191.314 211.639,191.314 C214.723,191.314 217.223,193.015 217.223,195.115 C217.223,197.215 214.723,198.918 211.639,198.918 C211.639,198.918 194.528,198.918 194.528,198.918 Z" id="path-2" class="cls-3" fill-rule="evenodd"/>
    <path d="M39.139,24.167 C39.139,24.167 128.347,24.167 128.347,24.167 C128.347,24.167 128.347,0.007 128.347,0.007 C128.347,0.007 39.139,0.007 39.139,0.007 C39.139,0.007 39.139,24.167 39.139,24.167 Z" id="path-3" class="cls-5" fill-rule="evenodd"/>
    <path d="M113.782,0.007 C113.782,0.007 113.782,24.167 113.782,24.167 C113.782,24.167 128.347,24.167 128.347,24.167 C128.347,24.167 128.347,0.007 128.347,0.007 C128.347,0.007 113.782,0.007 113.782,0.007 Z" id="path-4" class="cls-6" fill-rule="evenodd"/>
    <path d="M128.347,165.408 C128.347,165.408 39.139,165.408 39.139,165.408 C39.139,165.408 39.139,24.167 39.139,24.167 C39.139,24.167 128.347,24.167 128.347,24.167 C128.347,24.167 128.347,165.408 128.347,165.408 Z" id="path-5" class="cls-5" fill-rule="evenodd"/>
    <path d="M41.811,24.167 C41.811,24.167 103.758,28.491 103.758,28.491 C111.044,29.000 116.694,35.057 116.694,42.362 C116.694,42.362 116.694,130.852 116.694,130.852 C116.694,137.066 111.657,142.104 105.443,142.104 C105.443,142.104 39.139,142.104 39.139,142.104 C39.139,142.104 39.139,153.756 39.139,153.756 C39.139,153.756 128.347,153.756 128.347,153.756 C128.347,153.756 128.347,24.167 128.347,24.167 C128.347,24.167 41.811,24.167 41.811,24.167 Z" id="path-6" class="cls-8" fill-rule="evenodd"/>
    <path d="M135.781,183.527 C135.781,183.527 31.705,183.527 31.705,183.527 C31.705,183.527 31.705,152.864 31.705,152.864 C31.705,152.864 135.781,152.864 135.781,152.864 C135.781,152.864 135.781,183.527 135.781,183.527 Z" id="path-7" class="cls-9" fill-rule="evenodd"/>
    <path d="M150.031,38.004 C150.031,38.004 127.302,38.004 127.302,38.004 C127.302,38.004 127.302,50.603 127.302,50.603 C127.302,50.603 135.503,50.603 135.503,50.603 C139.610,50.603 142.938,53.110 142.938,56.203 C142.938,56.203 142.938,106.597 142.938,106.597 C142.938,109.690 139.610,112.197 135.503,112.197 C135.503,112.197 127.302,112.197 127.302,112.197 C127.302,112.197 127.302,124.796 127.302,124.796 C127.302,124.796 150.031,124.796 150.031,124.796 C154.136,124.796 157.465,122.289 157.465,119.196 C157.465,119.196 157.465,43.603 157.465,43.603 C157.465,40.511 154.136,38.004 150.031,38.004 Z" id="path-8" class="cls-9" fill-rule="evenodd"/>
    <path d="M41.811,24.167 C41.811,24.167 -0.005,24.167 -0.005,24.167 C-0.005,24.167 9.287,54.832 40.881,78.061 C40.881,78.061 41.811,24.167 41.811,24.167 Z" id="path-9" class="cls-5" fill-rule="evenodd"/>
    <path d="M32.820,24.167 C32.820,24.167 32.142,63.496 32.142,63.496 C19.957,54.538 11.100,44.476 4.803,35.490 C10.366,46.533 21.365,63.712 40.881,78.061 C40.881,78.061 41.811,24.167 41.811,24.167 C41.811,24.167 32.820,24.167 32.820,24.167 Z" id="path-10" class="cls-6" fill-rule="evenodd"/>
    <path d="M83.743,133.815 C83.743,133.815 83.743,133.815 83.743,133.815 C79.380,133.815 75.844,130.279 75.844,125.916 C75.844,125.916 75.844,63.659 75.844,63.659 C75.844,59.296 79.380,55.761 83.743,55.761 C83.743,55.761 83.743,55.761 83.743,55.761 C88.105,55.761 91.642,59.296 91.642,63.659 C91.642,63.659 91.642,125.916 91.642,125.916 C91.642,130.279 88.105,133.815 83.743,133.815 Z" id="path-11" class="cls-13" fill-rule="evenodd"/>
    <path d="M83.869,55.761 C83.869,55.761 83.618,55.761 83.618,55.761 C83.161,55.761 82.721,55.819 82.286,55.895 C85.942,56.530 88.728,59.697 88.728,63.533 C88.728,63.533 88.728,126.041 88.728,126.041 C88.728,129.879 85.942,133.046 82.286,133.680 C82.721,133.756 83.161,133.814 83.618,133.814 C83.618,133.814 83.869,133.814 83.869,133.814 C88.161,133.814 91.642,130.334 91.642,126.041 C91.642,126.041 91.642,63.533 91.642,63.533 C91.642,59.240 88.161,55.761 83.869,55.761 Z" id="path-12" class="cls-6" fill-rule="evenodd"/>
    <path d="M83.691,129.155 C82.691,129.155 81.880,128.345 81.880,127.345 C81.880,127.345 81.880,65.808 81.880,65.808 C81.880,64.808 82.691,63.997 83.691,63.997 C84.692,63.997 85.501,64.808 85.501,65.808 C85.501,65.808 85.501,127.345 85.501,127.345 C85.501,128.345 84.692,129.155 83.691,129.155 Z" id="path-13" class="cls-3" fill-rule="evenodd"/>
    <path d="M49.229,131.577 C47.230,131.577 45.609,129.956 45.609,127.957 C45.609,127.957 45.609,96.575 45.609,96.575 C45.609,94.576 47.230,92.955 49.229,92.955 C51.228,92.955 52.850,94.576 52.850,96.575 C52.850,96.575 52.850,127.957 52.850,127.957 C52.850,129.956 51.228,131.577 49.229,131.577 Z" id="path-14" class="cls-13" fill-rule="evenodd"/>
  </g>
</svg>
