<svg xmlns="http://www.w3.org/2000/svg" xmlns:xlink="http://www.w3.org/1999/xlink" preserveAspectRatio="xMidYMid" width="184" height="217" viewBox="0 0 184 217">
  <defs>
    <style>

      .cls-3 {
        fill: #ff3a2f;
      }

      .cls-5 {
        fill: #142a3b;
      }

      .cls-6 {
        fill: #000000;
        opacity: 0.35;
      }

      .cls-7 {
        fill: #ededed;
      }

      .cls-8 {
        fill: #fbb713;
      }
    </style>
  </defs>
  <g id="group-56svg">
    <path d="M80.037,184.545 C80.037,184.545 68.498,184.545 68.498,184.545 C66.273,184.545 64.469,186.905 64.469,189.816 C64.469,192.728 66.273,195.088 68.498,195.088 C68.498,195.088 69.035,195.088 69.035,195.088 C71.260,195.088 73.064,197.448 73.064,200.358 C73.064,203.270 71.260,205.630 69.035,205.630 C69.035,205.630 44.228,205.630 44.228,205.630 C42.003,205.630 40.200,207.990 40.200,210.902 C40.200,213.812 42.003,216.173 44.228,216.173 C44.228,216.173 74.040,216.173 74.040,216.173 C74.040,216.173 134.974,216.173 134.974,216.173 C137.199,216.173 139.003,213.812 139.003,210.902 C139.003,207.990 137.199,205.630 134.974,205.630 C134.974,205.630 128.089,205.630 128.089,205.630 C125.865,205.630 124.061,203.270 124.061,200.358 C124.061,197.448 125.865,195.088 128.089,195.088 C128.089,195.088 155.130,195.088 155.130,195.088 C157.354,195.088 159.158,192.728 159.158,189.816 C159.158,186.905 157.354,184.545 155.130,184.545 C155.130,184.545 153.111,184.545 153.111,184.545 C153.111,184.545 80.037,184.545 80.037,184.545 Z" id="path-1" class="cls-3" fill-rule="evenodd"/>
    <path d="M150.974,216.646 C149.406,216.646 148.136,214.976 148.136,212.918 C148.136,210.858 149.406,209.189 150.974,209.189 C150.974,209.189 159.670,209.189 159.670,209.189 C161.238,209.189 162.508,210.858 162.508,212.918 C162.508,214.976 161.238,216.646 159.670,216.646 C159.670,216.646 150.974,216.646 150.974,216.646 Z" id="path-2" class="cls-3" fill-rule="evenodd"/>
    <path d="M102.898,194.250 C102.898,194.250 0.011,194.250 0.011,194.250 C0.011,194.250 0.011,50.082 0.011,50.082 C0.011,50.082 102.898,50.082 102.898,50.082 C102.898,50.082 102.898,194.250 102.898,194.250 Z" id="path-3" class="cls-5" fill-rule="evenodd"/>
    <path d="M89.072,50.082 C89.072,50.082 89.072,194.250 89.072,194.250 C89.072,194.250 102.898,194.250 102.898,194.250 C102.898,194.250 102.898,50.082 102.898,50.082 C102.898,50.082 89.072,50.082 89.072,50.082 Z" id="path-4" class="cls-6" fill-rule="evenodd"/>
    <path d="M82.561,140.550 C82.561,157.745 68.634,171.683 51.454,171.683 C34.274,171.683 20.347,157.745 20.347,140.550 C20.347,123.355 34.274,109.417 51.454,109.417 C68.634,109.417 82.561,123.355 82.561,140.550 Z" id="path-5" class="cls-7" fill-rule="evenodd"/>
    <path d="M67.007,140.550 C67.007,149.147 60.044,156.116 51.454,156.116 C42.864,156.116 35.901,149.147 35.901,140.550 C35.901,131.953 42.864,124.983 51.454,124.983 C60.044,124.983 67.007,131.953 67.007,140.550 Z" id="path-6" class="cls-8" fill-rule="evenodd"/>
    <path d="M64.014,131.438 C65.877,134.004 67.007,137.135 67.007,140.549 C67.007,149.147 60.044,156.116 51.454,156.116 C48.043,156.116 44.915,154.985 42.350,153.121 C45.177,157.016 49.732,159.576 54.911,159.576 C63.500,159.576 70.464,152.607 70.464,144.008 C70.464,138.827 67.907,134.266 64.014,131.438 Z" id="path-7" class="cls-6" fill-rule="evenodd"/>
    <path d="M61.247,71.364 C61.247,76.777 56.863,81.166 51.454,81.166 C46.046,81.166 41.661,76.777 41.661,71.364 C41.661,65.952 46.046,61.562 51.454,61.562 C56.863,61.562 61.247,65.952 61.247,71.364 Z" id="path-8" class="cls-7" fill-rule="evenodd"/>
    <path d="M180.906,137.059 C178.905,137.059 177.406,135.438 177.406,133.439 C177.406,133.439 177.406,89.010 177.406,89.010 C177.406,89.010 148.406,89.010 148.406,89.010 C148.406,89.010 148.406,6.013 148.406,6.013 C148.406,6.013 54.406,6.013 54.406,6.013 C54.406,6.013 54.406,50.171 54.406,50.171 C54.406,52.170 52.407,53.791 50.406,53.791 C48.405,53.791 46.406,52.170 46.406,50.171 C46.406,50.171 46.406,0.014 46.406,0.014 C46.406,0.014 155.406,0.014 155.406,0.014 C155.406,0.014 155.406,83.010 155.406,83.010 C155.406,83.010 184.406,83.010 184.406,83.010 C184.406,83.010 184.406,133.439 184.406,133.439 C184.406,135.438 182.907,137.059 180.906,137.059 Z" id="path-9" class="cls-5" fill-rule="evenodd"/>
    <path d="M129.906,158.781 C127.905,158.781 126.406,157.160 126.406,155.161 C126.406,155.161 126.406,83.010 126.406,83.010 C126.406,83.010 151.694,83.010 151.694,83.010 C153.695,83.010 155.314,84.012 155.314,86.010 C155.314,88.009 153.695,89.010 151.694,89.010 C151.694,89.010 133.406,89.010 133.406,89.010 C133.406,89.010 133.406,155.161 133.406,155.161 C133.406,157.160 131.907,158.781 129.906,158.781 Z" id="path-10" class="cls-5" fill-rule="evenodd"/>
    <path d="M148.406,169.009 C148.406,169.009 126.406,169.009 126.406,169.009 C126.406,169.009 126.406,133.009 126.406,133.009 C126.406,133.009 148.406,133.009 148.406,133.009 C148.406,133.009 148.406,169.009 148.406,169.009 ZM133.406,162.008 C133.406,162.008 140.406,162.008 140.406,162.008 C140.406,162.008 140.406,141.009 140.406,141.009 C140.406,141.009 133.406,141.009 133.406,141.009 C133.406,141.009 133.406,162.008 133.406,162.008 Z" id="path-11" class="cls-5" fill-rule="evenodd"/>
    <path d="M184.406,169.009 C184.406,169.009 162.406,169.009 162.406,169.009 C162.406,169.009 162.406,133.009 162.406,133.009 C162.406,133.009 184.406,133.009 184.406,133.009 C184.406,133.009 184.406,169.009 184.406,169.009 ZM169.406,162.008 C169.406,162.008 177.406,162.008 177.406,162.008 C177.406,162.008 177.406,141.009 177.406,141.009 C177.406,141.009 169.406,141.009 169.406,141.009 C169.406,141.009 169.406,162.008 169.406,162.008 Z" id="path-12" class="cls-5" fill-rule="evenodd"/>
  </g>
</svg>
