<svg xmlns="http://www.w3.org/2000/svg" xmlns:xlink="http://www.w3.org/1999/xlink" preserveAspectRatio="xMidYMid" width="180" height="217" viewBox="0 0 180 217">
  <defs>
    <style>

      .cls-3 {
        fill: #fbb713;
      }

      .cls-6 {
        fill: #142a3b;
      }

      .cls-7 {
        fill: #ff3a2f;
      }

      .cls-8 {
        fill: #000000;
        opacity: 0.35;
      }
    </style>
  </defs>
  <g id="group-89svg">
    <path d="M160.204,217.210 C157.554,217.210 155.406,215.132 155.406,212.569 C155.406,210.005 157.554,207.927 160.204,207.927 C160.204,207.927 174.906,207.927 174.906,207.927 C177.555,207.927 179.703,210.005 179.703,212.569 C179.703,215.132 177.555,217.210 174.906,217.210 C174.906,217.210 160.204,217.210 160.204,217.210 Z" id="path-1" class="cls-3" fill-rule="evenodd"/>
    <path d="M58.543,190.064 C58.543,190.064 42.152,190.064 42.152,190.064 C38.991,190.064 36.429,192.002 36.429,194.395 C36.429,196.787 38.991,198.726 42.152,198.726 C42.152,198.726 42.914,198.726 42.914,198.726 C46.075,198.726 48.637,200.665 48.637,203.056 C48.637,205.449 46.075,207.387 42.914,207.387 C42.914,207.387 7.677,207.387 7.677,207.387 C4.517,207.387 1.954,209.327 1.954,211.719 C1.954,214.111 4.517,216.050 7.677,216.050 C7.677,216.050 50.023,216.050 50.023,216.050 C50.023,216.050 136.578,216.050 136.578,216.050 C139.738,216.050 142.300,214.111 142.300,211.719 C142.300,209.327 139.738,207.387 136.578,207.387 C136.578,207.387 126.798,207.387 126.798,207.387 C123.638,207.387 121.076,205.449 121.076,203.056 C121.076,200.665 123.638,198.726 126.798,198.726 C126.798,198.726 165.207,198.726 165.207,198.726 C168.368,198.726 170.930,196.787 170.930,194.395 C170.930,192.002 168.368,190.064 165.207,190.064 C165.207,190.064 162.341,190.064 162.341,190.064 C162.341,190.064 58.543,190.064 58.543,190.064 Z" id="path-2" class="cls-3" fill-rule="evenodd"/>
    <path d="M34.382,176.638 C34.382,176.638 39.057,176.638 39.057,176.638 C39.959,176.638 40.689,175.837 40.689,174.848 C40.689,173.860 39.959,173.059 39.057,173.059 C39.057,173.059 38.840,173.059 38.840,173.059 C37.938,173.059 37.207,172.257 37.207,171.269 C37.207,170.281 37.938,169.479 38.840,169.479 C38.840,169.479 48.889,169.479 48.889,169.479 C49.791,169.479 50.522,168.677 50.522,167.690 C50.522,166.701 49.791,165.900 48.889,165.900 C48.889,165.900 36.812,165.900 36.812,165.900 C36.812,165.900 12.126,165.900 12.126,165.900 C11.225,165.900 10.494,166.701 10.494,167.690 C10.494,168.677 11.225,169.479 12.126,169.479 C12.126,169.479 14.915,169.479 14.915,169.479 C15.817,169.479 16.548,170.281 16.548,171.269 C16.548,172.257 15.817,173.059 14.915,173.059 C14.915,173.059 1.641,173.059 1.641,173.059 C0.740,173.059 0.009,173.860 0.009,174.848 C0.009,175.837 0.740,176.638 1.641,176.638 C1.641,176.638 4.779,176.638 4.779,176.638 C4.779,176.638 34.382,176.638 34.382,176.638 Z" id="path-3" class="cls-3" fill-rule="evenodd"/>
    <path d="M89.098,205.396 C64.752,205.396 44.942,185.588 44.942,161.241 C44.942,157.242 48.184,154.000 52.183,154.000 C56.182,154.000 59.424,157.242 59.424,161.241 C59.424,177.603 72.736,190.914 89.098,190.914 C105.461,190.914 118.773,177.603 118.773,161.241 C118.773,144.880 105.461,131.569 89.098,131.569 C89.098,131.569 81.858,131.569 81.858,131.569 C81.858,131.569 81.858,95.185 81.858,95.185 C81.858,91.187 85.100,87.945 89.098,87.945 C93.098,87.945 96.340,91.187 96.340,95.185 C96.340,95.185 96.340,117.682 96.340,117.682 C117.256,121.145 133.255,139.360 133.255,161.241 C133.255,185.588 113.445,205.396 89.098,205.396 Z" id="path-4" class="cls-6" fill-rule="evenodd"/>
    <path d="M133.784,101.014 C133.784,101.014 44.412,101.014 44.412,101.014 C44.412,101.014 44.412,-0.011 44.412,-0.011 C44.412,-0.011 133.784,-0.011 133.784,-0.011 C133.784,-0.011 133.784,101.014 133.784,101.014 Z" id="path-5" class="cls-7" fill-rule="evenodd"/>
    <path d="M121.990,-0.011 C121.990,-0.011 121.990,101.014 121.990,101.014 C121.990,101.014 133.784,101.014 133.784,101.014 C133.784,101.014 133.784,-0.011 133.784,-0.011 C133.784,-0.011 121.990,-0.011 121.990,-0.011 Z" id="path-6" class="cls-8" fill-rule="evenodd"/>
    <path d="M102.630,31.934 C102.630,31.934 75.566,31.934 75.566,31.934 C75.566,31.934 62.034,55.372 62.034,55.372 C62.034,55.372 75.566,78.807 75.566,78.807 C75.566,78.807 102.630,78.807 102.630,78.807 C102.630,78.807 116.161,55.372 116.161,55.372 C116.161,55.372 102.630,31.934 102.630,31.934 ZM96.739,69.931 C96.739,69.931 81.457,69.931 81.457,69.931 C81.457,69.931 73.816,55.372 73.816,55.372 C73.816,55.372 81.457,40.813 81.457,40.813 C81.457,40.813 96.739,40.813 96.739,40.813 C96.739,40.813 104.380,55.372 104.380,55.372 C104.380,55.372 96.739,69.931 96.739,69.931 Z" id="path-7" class="cls-6" fill-rule="evenodd"/>
    <path d="M81.457,40.813 C81.457,40.813 73.816,55.372 73.816,55.372 C73.816,55.372 81.457,69.931 81.457,69.931 C81.457,69.931 87.286,69.931 87.286,69.931 C87.286,69.931 79.645,55.372 79.645,55.372 C79.645,55.372 87.286,40.813 87.286,40.813 C87.286,40.813 81.457,40.813 81.457,40.813 Z" id="path-8" class="cls-8" fill-rule="evenodd"/>
    <path d="M108.458,31.934 C108.458,31.934 102.630,31.934 102.630,31.934 C102.630,31.934 116.161,55.372 116.161,55.372 C116.161,55.372 102.630,78.808 102.630,78.808 C102.630,78.808 108.458,78.808 108.458,78.808 C108.458,78.808 121.990,55.372 121.990,55.372 C121.990,55.372 108.458,31.934 108.458,31.934 Z" id="path-9" class="cls-8" fill-rule="evenodd"/>
  </g>
</svg>
