<svg xmlns="http://www.w3.org/2000/svg" xmlns:xlink="http://www.w3.org/1999/xlink" preserveAspectRatio="xMidYMid" width="217" height="215" viewBox="0 0 217 215">
  <defs>
    <style>

      .cls-3 {
        fill: #fbb713;
      }

      .cls-6 {
        fill: #142a3b;
      }

      .cls-8 {
        fill: #ff3a2f;
      }

      .cls-9 {
        fill: #060606;
        opacity: 0.35;
      }

      .cls-12 {
        fill: #0cb04a;
      }

      .cls-15 {
        fill: #ededed;
      }
    </style>
  </defs>
  <g id="group-35svg">
    <path d="M146.221,212.563 C146.221,212.563 161.582,212.563 161.582,212.563 C164.544,212.563 166.945,210.918 166.945,208.888 C166.945,206.857 164.544,205.211 161.582,205.211 C161.582,205.211 160.867,205.211 160.867,205.211 C157.905,205.211 155.504,203.565 155.504,201.534 C155.504,199.503 157.905,197.858 160.867,197.858 C160.867,197.858 193.889,197.858 193.889,197.858 C196.851,197.858 199.251,196.211 199.251,194.181 C199.251,192.150 196.851,190.505 193.889,190.505 C193.889,190.505 154.205,190.505 154.205,190.505 C154.205,190.505 73.092,190.505 73.092,190.505 C70.130,190.505 67.729,192.150 67.729,194.181 C67.729,196.211 70.130,197.858 73.092,197.858 C73.092,197.858 82.257,197.858 82.257,197.858 C85.218,197.858 87.619,199.503 87.619,201.534 C87.619,203.565 85.218,205.211 82.257,205.211 C82.257,205.211 38.640,205.211 38.640,205.211 C35.678,205.211 33.277,206.857 33.277,208.888 C33.277,210.918 35.678,212.563 38.640,212.563 C38.640,212.563 48.949,212.563 48.949,212.563 C48.949,212.563 146.221,212.563 146.221,212.563 Z" id="path-1" class="cls-3" fill-rule="evenodd"/>
    <path d="M210.938,206.384 C214.408,206.384 217.221,208.272 217.221,210.600 C217.221,212.928 214.408,214.816 210.938,214.816 C210.938,214.816 191.684,214.816 191.684,214.816 C188.214,214.816 185.401,212.928 185.401,210.600 C185.401,208.272 188.214,206.384 191.684,206.384 C191.684,206.384 210.938,206.384 210.938,206.384 Z" id="path-2" class="cls-3" fill-rule="evenodd"/>
    <path d="M25.528,186.288 C28.998,186.288 31.811,188.176 31.811,190.505 C31.811,192.833 28.998,194.720 25.528,194.720 C25.528,194.720 6.275,194.720 6.275,194.720 C2.805,194.720 -0.008,192.833 -0.008,190.505 C-0.008,188.176 2.805,186.288 6.275,186.288 C6.275,186.288 25.528,186.288 25.528,186.288 Z" id="path-3" class="cls-3" fill-rule="evenodd"/>
    <path d="M172.610,189.259 C172.610,189.259 166.115,195.755 166.115,195.755 C165.617,196.253 164.801,196.253 164.303,195.755 C164.303,195.755 142.003,173.455 142.003,173.455 C141.505,172.958 141.505,172.143 142.003,171.643 C142.003,171.643 148.499,165.149 148.499,165.149 C148.997,164.650 149.812,164.650 150.311,165.149 C150.311,165.149 172.610,187.447 172.610,187.447 C173.109,187.946 173.109,188.761 172.610,189.259 Z" id="path-4" class="cls-6" fill-rule="evenodd"/>
    <path d="M41.138,189.259 C41.138,189.259 47.634,195.755 47.634,195.755 C48.132,196.253 48.948,196.253 49.446,195.755 C49.446,195.755 71.746,173.455 71.746,173.455 C72.244,172.958 72.244,172.143 71.746,171.643 C71.746,171.643 65.251,165.149 65.251,165.149 C64.753,164.650 63.937,164.650 63.438,165.149 C63.438,165.149 41.138,187.447 41.138,187.447 C40.640,187.946 40.640,188.761 41.138,189.259 Z" id="path-5" class="cls-6" fill-rule="evenodd"/>
    <path d="M201.274,10.664 C188.587,-2.022 167.537,-3.356 152.992,6.532 C152.992,6.532 152.901,6.502 152.901,6.502 C151.841,7.350 150.527,8.371 149.063,9.694 C148.690,10.048 148.234,10.300 147.861,10.664 C147.689,10.836 147.619,11.067 147.477,11.250 C146.123,12.612 144.689,14.401 143.234,16.411 C166.032,28.248 183.780,48.399 192.547,72.821 C197.557,68.752 202.183,64.267 204.475,60.398 C204.587,60.217 204.638,60.024 204.728,59.833 C209.587,53.359 212.324,45.590 212.324,37.349 C212.324,27.268 208.405,17.795 201.274,10.664 Z" id="path-6" class="cls-8" fill-rule="evenodd"/>
    <path d="M154.081,5.862 C153.720,6.089 153.346,6.293 152.992,6.533 C152.992,6.533 152.901,6.501 152.901,6.501 C151.841,7.350 150.527,8.371 149.063,9.694 C148.690,10.047 148.234,10.300 147.861,10.664 C147.689,10.835 147.619,11.068 147.477,11.250 C146.123,12.612 144.689,14.402 143.234,16.411 C166.032,28.248 183.780,48.399 192.546,72.821 C197.160,69.074 201.362,64.995 203.802,61.347 C194.643,37.298 176.782,17.523 154.081,5.862 Z" id="path-7" class="cls-9" fill-rule="evenodd"/>
    <path d="M69.777,15.339 C68.586,13.774 67.394,12.381 66.282,11.250 C66.142,11.067 66.061,10.836 65.890,10.664 C65.515,10.300 65.071,10.048 64.686,9.694 C63.232,8.371 61.920,7.350 60.849,6.502 C60.849,6.502 60.768,6.532 60.768,6.532 C46.213,-3.356 25.172,-2.022 12.486,10.664 C5.355,17.795 1.425,27.268 1.425,37.349 C1.425,45.590 4.163,53.359 9.021,59.833 C9.112,60.024 9.174,60.217 9.274,60.398 C11.213,63.672 14.850,67.387 18.951,70.912 C28.244,46.570 46.546,26.702 69.777,15.339 Z" id="path-8" class="cls-8" fill-rule="evenodd"/>
    <path d="M9.942,61.363 C11.980,64.394 15.240,67.724 18.951,70.912 C28.244,46.569 46.546,26.702 69.777,15.340 C68.586,13.775 67.394,12.381 66.282,11.250 C66.142,11.068 66.061,10.835 65.890,10.664 C65.515,10.300 65.071,10.047 64.686,9.694 C63.232,8.371 61.920,7.350 60.849,6.501 C60.849,6.501 60.768,6.533 60.768,6.533 C60.413,6.291 60.037,6.089 59.675,5.862 C36.969,17.523 19.102,37.305 9.942,61.363 Z" id="path-9" class="cls-9" fill-rule="evenodd"/>
    <path d="M106.874,6.060 C56.108,6.060 14.796,47.370 14.796,98.136 C14.796,129.832 30.896,157.829 55.340,174.395 C55.340,174.395 62.730,178.892 64.269,179.675 C77.017,186.374 91.501,190.211 106.874,190.211 C122.258,190.211 136.731,186.374 149.499,179.675 C149.499,179.675 156.612,175.653 158.418,174.395 C182.863,157.829 198.953,129.832 198.953,98.136 C198.953,47.370 157.651,6.060 106.874,6.060 ZM146.153,156.247 C144.776,157.206 139.356,160.272 139.356,160.272 C129.626,165.376 118.597,168.300 106.874,168.300 C95.159,168.300 84.122,165.376 74.408,160.272 C73.235,159.674 67.604,156.247 67.604,156.247 C48.976,143.623 36.708,122.289 36.708,98.136 C36.708,59.451 68.188,27.971 106.874,27.971 C145.568,27.971 177.041,59.451 177.041,98.136 C177.041,122.289 164.780,143.623 146.153,156.247 Z" id="path-10" class="cls-12" fill-rule="evenodd"/>
    <path d="M102.290,28.204 C100.766,28.105 99.252,27.971 97.704,27.971 C59.019,27.971 27.538,59.450 27.538,98.136 C27.538,122.288 39.807,143.623 58.434,156.247 C58.434,156.247 64.066,159.674 65.238,160.272 C74.952,165.375 85.989,168.300 97.704,168.300 C99.246,168.300 100.774,168.241 102.290,168.143 C92.281,167.486 82.844,164.703 74.408,160.272 C73.235,159.674 67.604,156.247 67.604,156.247 C48.976,143.623 36.708,122.288 36.708,98.136 C36.708,60.999 65.743,30.584 102.290,28.204 Z" id="path-11" class="cls-9" fill-rule="evenodd"/>
    <path d="M106.874,6.060 C105.326,6.060 103.819,6.217 102.290,6.294 C150.930,8.706 189.784,48.918 189.784,98.136 C189.784,129.832 173.693,157.829 149.249,174.394 C147.443,175.653 140.329,179.675 140.329,179.675 C128.841,185.702 115.962,189.385 102.290,190.068 C103.811,190.144 105.335,190.210 106.874,190.210 C122.258,190.210 136.731,186.374 149.499,179.675 C149.499,179.675 156.612,175.653 158.418,174.394 C182.862,157.829 198.953,129.832 198.953,98.136 C198.953,47.370 157.651,6.060 106.874,6.060 Z" id="path-12" class="cls-9" fill-rule="evenodd"/>
    <path d="M74.408,160.273 C84.122,165.376 95.160,168.300 106.874,168.300 C118.597,168.300 129.627,165.376 139.356,160.273 C139.356,160.273 144.776,157.206 146.153,156.247 C164.780,143.624 177.041,122.289 177.041,98.136 C177.041,59.451 145.568,27.971 106.874,27.971 C68.188,27.971 36.708,59.451 36.708,98.136 C36.708,122.289 48.977,143.624 67.604,156.247 C67.604,156.247 73.235,159.674 74.408,160.273 Z" id="path-13" class="cls-15" fill-rule="evenodd"/>
    <path d="M41.293,107.304 C41.293,68.621 72.773,37.141 111.459,37.141 C137.173,37.141 159.635,51.085 171.854,71.766 C161.405,46.117 136.237,27.971 106.874,27.971 C68.188,27.971 36.708,59.452 36.708,98.136 C36.708,111.178 40.310,123.382 46.533,133.854 C43.169,125.658 41.293,116.700 41.293,107.304 Z" id="path-14" class="cls-9" fill-rule="evenodd"/>
    <path d="M142.789,76.271 C142.789,76.271 117.376,101.694 117.376,101.694 C118.366,103.785 118.972,106.088 118.972,108.553 C118.972,117.401 111.780,124.593 102.932,124.593 C94.094,124.593 86.902,117.401 86.902,108.553 C86.902,101.523 91.478,95.593 97.801,93.442 C97.801,93.442 97.760,93.352 97.760,93.352 C97.760,93.352 97.760,41.587 97.760,41.587 C97.760,38.728 100.083,36.415 102.932,36.415 C105.801,36.415 108.103,38.728 108.103,41.587 C108.103,41.587 108.103,93.300 108.103,93.300 C108.103,93.300 108.084,93.393 108.084,93.442 C108.790,93.685 109.477,93.967 110.144,94.301 C110.144,94.301 135.477,68.959 135.477,68.959 C137.497,66.938 140.769,66.938 142.789,68.959 C144.809,70.979 144.809,74.252 142.789,76.271 Z" id="path-15" class="cls-6" fill-rule="evenodd"/>
    <path d="M103.519,41.587 C103.519,41.587 103.519,93.301 103.519,93.301 C103.519,93.301 103.499,93.392 103.499,93.443 C104.206,93.685 104.892,93.967 105.559,94.301 C105.559,94.301 112.689,87.170 112.689,87.170 C112.689,87.170 112.689,41.587 112.689,41.587 C112.689,38.728 110.386,36.416 107.517,36.416 C105.496,36.416 103.784,37.608 102.934,39.305 C103.281,39.998 103.519,40.754 103.519,41.587 Z" id="path-16" class="cls-9" fill-rule="evenodd"/>
    <path d="M147.374,68.959 C145.354,66.938 142.082,66.938 140.061,68.959 C140.061,68.959 138.946,70.075 138.946,70.075 C140.085,72.052 139.895,74.581 138.205,76.271 C138.205,76.271 112.791,101.694 112.791,101.694 C113.781,103.785 114.388,106.088 114.388,108.553 C114.388,115.795 109.537,121.857 102.934,123.844 C104.396,124.284 105.913,124.593 107.517,124.593 C116.365,124.593 123.557,117.401 123.557,108.553 C123.557,106.088 122.951,103.785 121.961,101.694 C121.961,101.694 147.374,76.271 147.374,76.271 C149.394,74.252 149.394,70.979 147.374,68.959 Z" id="path-17" class="cls-9" fill-rule="evenodd"/>
  </g>
</svg>
