<svg xmlns="http://www.w3.org/2000/svg" xmlns:xlink="http://www.w3.org/1999/xlink" preserveAspectRatio="xMidYMid" width="217" height="204" viewBox="0 0 217 204">
  <defs>
    <style>

      .cls-3 {
        fill: #ff3a2f;
      }

      .cls-5 {
        fill: #2476ff;
      }

      .cls-7 {
        fill: #000000;
        opacity: 0.35;
      }
    </style>
  </defs>
  <g id="group-129svg">
    <path d="M69.158,170.197 C69.158,170.197 49.125,170.197 49.125,170.197 C45.263,170.197 42.132,172.567 42.132,175.490 C42.132,178.415 45.263,180.784 49.125,180.784 C49.125,180.784 50.058,180.784 50.058,180.784 C53.920,180.784 57.051,183.154 57.051,186.076 C57.051,188.999 53.920,191.369 50.058,191.369 C50.058,191.369 6.994,191.369 6.994,191.369 C3.131,191.369 0.000,193.740 0.000,196.663 C0.000,199.586 3.131,201.955 6.994,201.955 C6.994,201.955 58.745,201.955 58.745,201.955 C58.745,201.955 164.525,201.955 164.525,201.955 C168.387,201.955 171.519,199.586 171.519,196.663 C171.519,193.740 168.387,191.369 164.525,191.369 C164.525,191.369 152.573,191.369 152.573,191.369 C148.710,191.369 145.580,188.999 145.580,186.076 C145.580,183.154 148.710,180.784 152.573,180.784 C152.573,180.784 199.513,180.784 199.513,180.784 C203.376,180.784 206.507,178.415 206.507,175.490 C206.507,172.567 203.376,170.197 199.513,170.197 C199.513,170.197 196.010,170.197 196.010,170.197 C196.010,170.197 69.158,170.197 69.158,170.197 Z" id="path-1" class="cls-3" fill-rule="evenodd"/>
    <path d="M193.398,203.374 C190.160,203.374 187.535,200.833 187.535,197.700 C187.535,194.568 190.160,192.027 193.398,192.027 C193.398,192.027 211.366,192.027 211.366,192.027 C214.604,192.027 217.229,194.568 217.229,197.700 C217.229,200.833 214.604,203.374 211.366,203.374 C211.366,203.374 193.398,203.374 193.398,203.374 Z" id="path-2" class="cls-3" fill-rule="evenodd"/>
    <path d="M133.342,175.175 C133.342,175.175 9.253,175.175 9.253,175.175 C7.235,175.175 5.603,173.544 5.603,171.525 C5.603,171.525 5.603,44.389 5.603,44.389 C5.603,43.527 5.910,42.694 6.466,42.034 C6.466,42.034 40.927,1.290 40.927,1.290 C41.622,0.471 42.641,-0.003 43.714,-0.003 C43.714,-0.003 133.342,-0.003 133.342,-0.003 C135.359,-0.003 136.991,1.629 136.991,3.646 C136.991,3.646 136.991,171.525 136.991,171.525 C136.991,173.544 135.359,175.175 133.342,175.175 Z" id="path-3" class="cls-5" fill-rule="evenodd"/>
    <path d="M42.100,-0.003 C42.100,-0.003 42.100,40.142 42.100,40.142 C42.100,42.159 40.468,43.791 38.450,43.791 C38.450,43.791 5.603,43.791 5.603,43.791 C5.603,43.791 42.100,-0.003 42.100,-0.003 Z" id="path-4" class="cls-5" fill-rule="evenodd"/>
    <path d="M42.100,-0.003 C42.100,-0.003 42.100,40.142 42.100,40.142 C42.100,42.159 40.468,43.791 38.450,43.791 C38.450,43.791 5.603,43.791 5.603,43.791 C5.603,43.791 42.100,-0.003 42.100,-0.003 Z" id="path-5" class="cls-7" fill-rule="evenodd"/>
  </g>
</svg>
