<svg xmlns="http://www.w3.org/2000/svg" xmlns:xlink="http://www.w3.org/1999/xlink" preserveAspectRatio="xMidYMid" width="197" height="218" viewBox="0 0 197 218">
  <defs>
    <style>

      .cls-3 {
        fill: #142a3b;
      }

      .cls-8 {
        fill: #090908;
        opacity: 0.35;
      }

      .cls-11 {
        fill: #ff3a2f;
      }

      .cls-12 {
        fill: #ededed;
      }

      .cls-13 {
        fill: #090908;
        opacity: 0.25;
      }
    </style>
  </defs>
  <g id="group-13svg">
    <path d="M109.170,19.068 C109.170,19.068 109.170,13.540 109.170,13.540 C109.170,12.474 107.537,11.611 105.522,11.611 C103.507,11.611 101.873,12.474 101.873,13.540 C101.873,13.540 101.873,13.798 101.873,13.798 C101.873,14.864 100.239,15.727 98.224,15.727 C96.210,15.727 94.576,14.864 94.576,13.798 C94.576,13.798 94.576,1.915 94.576,1.915 C94.576,0.849 92.942,-0.015 90.927,-0.015 C88.911,-0.015 87.278,0.849 87.278,1.915 C87.278,1.915 87.278,16.195 87.278,16.195 C87.278,16.195 87.278,45.385 87.278,45.385 C87.278,46.450 88.911,47.314 90.927,47.314 C92.942,47.314 94.576,46.450 94.576,45.385 C94.576,45.385 94.576,42.086 94.576,42.086 C94.576,41.020 96.210,40.157 98.224,40.157 C100.239,40.157 101.873,41.020 101.873,42.086 C101.873,42.086 101.873,57.782 101.873,57.782 C101.873,58.848 103.507,59.712 105.522,59.712 C107.537,59.712 109.170,58.848 109.170,57.782 C109.170,57.782 109.170,54.073 109.170,54.073 C109.170,54.073 109.170,19.068 109.170,19.068 Z" id="path-1" class="cls-3" fill-rule="evenodd"/>
    <path d="M72.849,21.412 C72.849,21.412 72.849,18.698 72.849,18.698 C72.849,18.174 72.046,17.751 71.057,17.751 C70.068,17.751 69.265,18.174 69.265,18.698 C69.265,18.698 69.265,18.824 69.265,18.824 C69.265,19.347 68.463,19.772 67.474,19.772 C66.485,19.772 65.682,19.347 65.682,18.824 C65.682,18.824 65.682,12.990 65.682,12.990 C65.682,12.466 64.880,12.042 63.891,12.042 C62.902,12.042 62.099,12.466 62.099,12.990 C62.099,12.990 62.099,20.001 62.099,20.001 C62.099,20.001 62.099,34.333 62.099,34.333 C62.099,34.856 62.902,35.281 63.891,35.281 C64.880,35.281 65.682,34.856 65.682,34.333 C65.682,34.333 65.682,32.714 65.682,32.714 C65.682,32.190 66.485,31.766 67.474,31.766 C68.463,31.766 69.265,32.190 69.265,32.714 C69.265,32.714 69.265,40.420 69.265,40.420 C69.265,40.943 70.068,41.368 71.057,41.368 C72.046,41.368 72.849,40.943 72.849,40.420 C72.849,40.420 72.849,38.599 72.849,38.599 C72.849,38.599 72.849,21.412 72.849,21.412 Z" id="path-2" class="cls-3" fill-rule="evenodd"/>
    <path d="M87.513,66.534 C87.513,63.765 89.313,61.521 91.535,61.521 C93.755,61.521 95.556,63.765 95.556,66.534 C95.556,66.534 95.556,81.898 95.556,81.898 C95.556,84.667 93.755,86.912 91.535,86.912 C89.313,86.912 87.513,84.667 87.513,81.898 C87.513,81.898 87.513,66.534 87.513,66.534 Z" id="path-3" class="cls-3" fill-rule="evenodd"/>
    <path d="M127.467,21.856 C127.467,18.976 129.340,16.640 131.650,16.640 C133.961,16.640 135.834,18.976 135.834,21.856 C135.834,21.856 135.834,37.840 135.834,37.840 C135.834,40.721 133.961,43.057 131.650,43.057 C129.340,43.057 127.467,40.721 127.467,37.840 C127.467,37.840 127.467,21.856 127.467,21.856 Z" id="path-4" class="cls-3" fill-rule="evenodd"/>
    <path d="M194.775,210.990 C165.624,174.541 170.525,130.131 170.577,129.691 C170.705,128.608 170.360,127.513 169.643,126.695 C168.911,125.880 167.872,125.406 166.774,125.406 C166.774,125.406 161.186,125.406 161.186,125.406 C161.186,125.406 132.109,125.406 132.109,125.406 C134.261,146.600 141.538,177.798 164.264,206.217 C166.745,209.321 167.312,213.501 165.997,217.207 C165.997,217.207 191.787,217.207 191.787,217.207 C193.251,217.207 194.596,216.362 195.231,215.044 C195.866,213.714 195.687,212.140 194.775,210.990 Z" id="path-5" class="cls-3" fill-rule="evenodd"/>
    <path d="M178.862,210.990 C149.711,174.541 154.612,130.132 154.665,129.692 C154.792,128.607 154.447,127.513 153.731,126.695 C152.999,125.880 151.960,125.406 150.862,125.406 C150.862,125.406 145.274,125.406 145.274,125.406 C145.274,125.406 130.971,125.406 130.971,125.406 C132.069,125.406 133.108,125.880 133.840,126.695 C134.557,127.513 134.901,128.607 134.774,129.692 C134.722,130.132 129.821,174.541 158.972,210.990 C159.884,212.141 160.063,213.714 159.428,215.044 C158.794,216.362 157.448,217.207 155.984,217.207 C155.984,217.207 175.875,217.207 175.875,217.207 C177.339,217.207 178.684,216.362 179.319,215.044 C179.954,213.714 179.775,212.141 178.862,210.990 Z" id="path-6" class="cls-8" fill-rule="evenodd"/>
    <path d="M63.116,125.406 C63.116,125.406 49.318,125.406 49.318,125.406 C49.318,125.406 28.818,125.406 28.818,125.406 C27.727,125.406 26.688,125.880 25.964,126.695 C25.232,127.513 24.895,128.608 25.022,129.691 C25.075,130.131 29.976,174.541 0.831,210.990 C-0.096,212.140 -0.267,213.714 0.369,215.044 C1.011,216.362 2.340,217.207 3.819,217.207 C3.819,217.207 29.214,217.207 29.214,217.207 C27.906,213.486 28.474,209.310 30.954,206.213 C53.696,177.764 60.972,146.589 63.116,125.406 Z" id="path-7" class="cls-3" fill-rule="evenodd"/>
    <path d="M36.172,215.044 C35.537,213.714 35.708,212.141 36.635,210.990 C65.779,174.541 60.878,130.132 60.825,129.692 C60.698,128.607 61.035,127.513 61.767,126.695 C62.491,125.880 63.530,125.406 64.620,125.406 C64.620,125.406 48.708,125.406 48.708,125.406 C47.617,125.406 46.579,125.880 45.854,126.695 C45.122,127.513 44.786,128.607 44.913,129.692 C44.966,130.132 49.866,174.541 20.722,210.990 C19.796,212.141 19.625,213.714 20.259,215.044 C20.902,216.362 22.231,217.207 23.710,217.207 C23.710,217.207 39.623,217.207 39.623,217.207 C38.144,217.207 36.814,216.362 36.172,215.044 Z" id="path-8" class="cls-8" fill-rule="evenodd"/>
    <path d="M138.834,99.110 C138.968,98.022 138.625,96.925 137.908,96.102 C137.176,95.281 136.129,94.806 135.039,94.806 C135.039,94.806 63.871,94.806 63.871,94.806 C62.765,94.806 61.719,95.281 61.002,96.102 C60.269,96.927 59.934,98.026 60.075,99.113 C60.150,99.707 67.173,159.308 25.858,210.990 C24.932,212.140 24.760,213.714 25.395,215.044 C26.038,216.362 27.367,217.207 28.847,217.207 C28.847,217.207 170.063,217.207 170.063,217.207 C171.527,217.207 172.872,216.362 173.507,215.044 C174.142,213.714 173.962,212.140 173.051,210.990 C131.812,159.410 138.760,99.707 138.834,99.110 Z" id="path-9" class="cls-11" fill-rule="evenodd"/>
    <path d="M56.621,183.324 C56.091,183.324 55.552,183.208 55.043,182.961 C53.243,182.088 52.494,179.923 53.365,178.123 C65.215,153.701 66.774,129.979 65.993,114.380 C65.894,112.383 67.431,110.685 69.429,110.584 C71.388,110.431 73.124,112.022 73.226,114.020 C74.047,130.463 72.399,155.482 59.881,181.285 C59.255,182.575 57.965,183.324 56.621,183.324 Z" id="path-10" class="cls-12" fill-rule="evenodd"/>
    <path d="M173.051,210.990 C131.811,159.409 138.760,99.707 138.834,99.110 C138.968,98.022 138.625,96.925 137.908,96.102 C137.176,95.281 136.129,94.806 135.039,94.806 C135.039,94.806 119.127,94.806 119.127,94.806 C120.217,94.806 121.263,95.281 121.995,96.102 C122.712,96.925 123.056,98.022 122.921,99.110 C122.847,99.707 115.899,159.409 157.138,210.990 C158.049,212.141 158.229,213.714 157.594,215.044 C156.959,216.362 155.615,217.207 154.150,217.207 C154.150,217.207 170.063,217.207 170.063,217.207 C171.527,217.207 172.872,216.362 173.507,215.044 C174.142,213.714 173.962,212.141 173.051,210.990 Z" id="path-11" class="cls-13" fill-rule="evenodd"/>
  </g>
</svg>
