<svg xmlns="http://www.w3.org/2000/svg" xmlns:xlink="http://www.w3.org/1999/xlink" preserveAspectRatio="xMidYMid" width="218" height="141" viewBox="0 0 218 141">
  <defs>
    <style>

      .cls-3 {
        fill: #142a3b;
      }

      .cls-6 {
        fill: #ededed;
      }

      .cls-7 {
        fill: #000000;
        opacity: 0.35;
      }

      .cls-9 {
        fill: #fbb713;
      }
    </style>
  </defs>
  <g id="group-96svg">
    <path d="M109.614,116.542 C109.614,116.542 95.056,116.542 95.056,116.542 C92.249,116.542 89.973,118.265 89.973,120.389 C89.973,122.513 92.249,124.236 95.056,124.236 C95.056,124.236 95.733,124.236 95.733,124.236 C98.540,124.236 100.816,125.958 100.816,128.083 C100.816,130.208 98.540,131.929 95.733,131.929 C95.733,131.929 64.437,131.929 64.437,131.929 C61.630,131.929 59.355,133.652 59.355,135.775 C59.355,137.900 61.630,139.622 64.437,139.622 C64.437,139.622 102.048,139.622 102.048,139.622 C102.048,139.622 178.921,139.622 178.921,139.622 C181.728,139.622 184.004,137.900 184.004,135.775 C184.004,133.652 181.728,131.929 178.921,131.929 C178.921,131.929 170.235,131.929 170.235,131.929 C167.428,131.929 165.153,130.208 165.153,128.083 C165.153,125.958 167.428,124.236 170.235,124.236 C170.235,124.236 204.349,124.236 204.349,124.236 C207.156,124.236 209.431,122.513 209.431,120.389 C209.431,118.265 207.156,116.542 204.349,116.542 C204.349,116.542 201.802,116.542 201.802,116.542 C201.802,116.542 109.614,116.542 109.614,116.542 Z" id="path-1" class="cls-3" fill-rule="evenodd"/>
    <path d="M199.904,140.652 C197.551,140.652 195.644,138.807 195.644,136.531 C195.644,134.253 197.551,132.407 199.904,132.407 C199.904,132.407 212.963,132.407 212.963,132.407 C215.315,132.407 217.223,134.253 217.223,136.531 C217.223,138.807 215.315,140.652 212.963,140.652 C212.963,140.652 199.904,140.652 199.904,140.652 Z" id="path-2" class="cls-3" fill-rule="evenodd"/>
    <path d="M7.197,108.390 C7.197,108.390 7.197,11.609 7.197,11.609 C7.197,5.193 12.036,-0.005 18.001,-0.005 C18.001,-0.005 147.644,-0.005 147.644,-0.005 C153.609,-0.005 158.447,5.193 158.447,11.609 C158.447,11.609 158.447,108.390 158.447,108.390 C158.447,108.390 158.447,108.390 158.447,108.390 " id="path-3" class="cls-3" fill-rule="evenodd"/>
    <path d="M144.043,86.420 C144.043,86.420 82.822,86.420 82.822,86.420 C82.822,86.420 21.602,86.420 21.602,86.420 C21.602,86.420 21.602,14.398 21.602,14.398 C21.602,14.398 144.043,14.398 144.043,14.398 C144.043,14.398 144.043,86.420 144.043,86.420 Z" id="path-4" class="cls-6" fill-rule="evenodd"/>
    <path d="M26.779,19.575 C26.779,19.575 144.043,19.575 144.043,19.575 C144.043,19.575 144.043,14.398 144.043,14.398 C144.043,14.398 21.602,14.398 21.602,14.398 C21.602,14.398 21.602,86.420 21.602,86.420 C21.602,86.420 26.779,86.420 26.779,86.420 C26.779,86.420 26.779,19.575 26.779,19.575 Z" id="path-5" class="cls-7" fill-rule="evenodd"/>
    <path d="M158.447,98.237 C158.447,98.237 98.240,98.237 98.240,98.237 C98.240,98.237 98.240,105.439 98.240,105.439 C98.240,105.439 62.228,105.439 62.228,105.439 C62.228,105.439 62.228,98.237 62.228,98.237 C62.228,98.237 7.198,98.237 7.198,98.237 C7.198,98.237 7.198,108.390 7.198,108.390 C7.198,108.390 158.447,108.390 158.447,108.390 C158.447,108.390 158.447,98.237 158.447,98.237 Z" id="path-6" class="cls-7" fill-rule="evenodd"/>
    <path d="M100.828,100.825 C100.828,100.825 100.828,108.026 100.828,108.026 C100.828,108.026 64.816,108.026 64.816,108.026 C64.816,108.026 64.816,100.825 64.816,100.825 C64.816,100.825 -0.005,100.825 -0.005,100.825 C-0.005,100.825 -0.005,115.229 -0.005,115.229 C-0.005,119.207 3.223,122.431 7.197,122.431 C7.197,122.431 158.447,122.431 158.447,122.431 C162.428,122.431 165.650,119.207 165.650,115.229 C165.650,115.229 165.650,100.825 165.650,100.825 C165.650,100.825 100.828,100.825 100.828,100.825 Z" id="path-7" class="cls-9" fill-rule="evenodd"/>
    <path d="M160.473,100.825 C160.473,100.825 160.473,110.053 160.473,110.053 C160.473,114.029 157.252,117.255 153.271,117.255 C153.271,117.255 2.021,117.255 2.021,117.255 C1.404,117.255 0.815,117.153 0.243,117.006 C1.039,120.119 3.840,122.431 7.198,122.431 C7.198,122.431 158.447,122.431 158.447,122.431 C162.429,122.431 165.650,119.207 165.650,115.230 C165.650,115.230 165.650,100.825 165.650,100.825 C165.650,100.825 160.473,100.825 160.473,100.825 Z" id="path-8" class="cls-7" fill-rule="evenodd"/>
  </g>
</svg>
