<svg xmlns="http://www.w3.org/2000/svg" xmlns:xlink="http://www.w3.org/1999/xlink" preserveAspectRatio="xMidYMid" width="218" height="136" viewBox="0 0 218 136">
  <defs>
    <style>

      .cls-3 {
        fill: #ff3a2f;
      }

      .cls-5 {
        fill: #0cb04a;
      }

      .cls-6 {
        fill: #000000;
        opacity: 0.35;
      }

      .cls-8 {
        fill: #142a3b;
      }

      .cls-9 {
        fill: #ededed;
      }
    </style>
  </defs>
  <g id="group-49svg">
    <path d="M100.745,134.069 C100.745,134.069 114.448,134.069 114.448,134.069 C117.090,134.069 119.232,132.826 119.232,131.292 C119.232,129.757 117.090,128.515 114.448,128.515 C114.448,128.515 113.810,128.515 113.810,128.515 C111.168,128.515 109.026,127.271 109.026,125.737 C109.026,124.203 111.168,122.960 113.810,122.960 C113.810,122.960 143.267,122.960 143.267,122.960 C145.909,122.960 148.051,121.717 148.051,120.183 C148.051,118.649 145.909,117.405 143.267,117.405 C143.267,117.405 107.867,117.405 107.867,117.405 C107.867,117.405 35.511,117.405 35.511,117.405 C32.869,117.405 30.727,118.649 30.727,120.183 C30.727,121.717 32.869,122.960 35.511,122.960 C35.511,122.960 43.686,122.960 43.686,122.960 C46.328,122.960 48.470,124.203 48.470,125.737 C48.470,127.271 46.328,128.515 43.686,128.515 C43.686,128.515 4.778,128.515 4.778,128.515 C2.137,128.515 -0.005,129.757 -0.005,131.292 C-0.005,132.826 2.137,134.069 4.778,134.069 C4.778,134.069 13.974,134.069 13.974,134.069 C13.974,134.069 100.745,134.069 100.745,134.069 Z" id="path-1" class="cls-3" fill-rule="evenodd"/>
    <path d="M156.305,129.048 C159.280,129.048 161.692,130.418 161.692,132.108 C161.692,133.799 159.280,135.169 156.305,135.169 C156.305,135.169 139.796,135.169 139.796,135.169 C136.822,135.169 134.409,133.799 134.409,132.108 C134.409,130.418 136.822,129.048 139.796,129.048 C139.796,129.048 156.305,129.048 156.305,129.048 Z" id="path-2" class="cls-3" fill-rule="evenodd"/>
    <path d="M198.503,0.001 C198.503,0.001 56.228,0.001 56.228,0.001 C45.906,0.001 37.508,8.395 37.508,18.721 C37.508,18.721 37.508,101.088 37.508,101.088 C37.508,111.413 45.906,119.808 56.228,119.808 C56.228,119.808 198.503,119.808 198.503,119.808 C208.824,119.808 217.223,111.413 217.223,101.088 C217.223,101.088 217.223,18.721 217.223,18.721 C217.223,8.395 208.824,0.001 198.503,0.001 Z" id="path-3" class="cls-5" fill-rule="evenodd"/>
    <path d="M208.046,2.644 C209.713,5.443 210.688,8.698 210.688,12.186 C210.688,12.186 210.688,94.553 210.688,94.553 C210.688,104.878 202.290,113.272 191.967,113.272 C191.967,113.272 49.692,113.272 49.692,113.272 C46.205,113.272 42.949,112.298 40.151,110.630 C43.418,116.114 49.392,119.808 56.228,119.808 C56.228,119.808 198.503,119.808 198.503,119.808 C208.824,119.808 217.223,111.413 217.223,101.088 C217.223,101.088 217.223,18.721 217.223,18.721 C217.223,11.884 213.530,5.911 208.046,2.644 Z" id="path-4" class="cls-6" fill-rule="evenodd"/>
    <path d="M67.460,74.880 C67.460,74.880 97.412,74.880 97.412,74.880 C99.482,74.880 101.157,76.556 101.157,78.624 C101.157,80.694 99.482,82.368 97.412,82.368 C97.412,82.368 67.460,82.368 67.460,82.368 C65.390,82.368 63.716,80.694 63.716,78.624 C63.716,76.556 65.390,74.880 67.460,74.880 Z" id="path-5" class="cls-3" fill-rule="evenodd"/>
    <path d="M112.389,97.344 C112.389,97.344 67.460,97.344 67.460,97.344 C65.390,97.344 63.716,95.670 63.716,93.600 C63.716,91.530 65.390,89.856 67.460,89.856 C67.460,89.856 112.389,89.856 112.389,89.856 C114.459,89.856 116.133,91.530 116.133,93.600 C116.133,95.670 114.459,97.344 112.389,97.344 Z" id="path-6" class="cls-8" fill-rule="evenodd"/>
    <path d="M194.759,56.160 C194.759,58.230 193.085,59.905 191.015,59.905 C191.015,59.905 161.062,59.905 161.062,59.905 C158.992,59.905 157.317,58.230 157.317,56.160 C157.317,56.160 157.317,26.208 157.317,26.208 C157.317,24.140 158.992,22.465 161.062,22.465 C161.062,22.465 191.015,22.465 191.015,22.465 C193.085,22.465 194.759,24.140 194.759,26.208 C194.759,26.208 194.759,56.160 194.759,56.160 Z" id="path-7" class="cls-9" fill-rule="evenodd"/>
    <path d="M197.550,28.999 C197.550,28.999 194.759,28.999 194.759,28.999 C194.759,28.999 194.759,56.160 194.759,56.160 C194.759,58.230 193.085,59.905 191.015,59.905 C191.015,59.905 163.853,59.905 163.853,59.905 C163.853,59.905 163.853,62.696 163.853,62.696 C163.853,64.765 165.527,66.439 167.597,66.439 C167.597,66.439 197.550,66.439 197.550,66.439 C199.619,66.439 201.294,64.765 201.294,62.696 C201.294,62.696 201.294,32.744 201.294,32.744 C201.294,30.675 199.619,28.999 197.550,28.999 Z" id="path-8" class="cls-6" fill-rule="evenodd"/>
  </g>
</svg>
