<svg xmlns="http://www.w3.org/2000/svg" xmlns:xlink="http://www.w3.org/1999/xlink" preserveAspectRatio="xMidYMid" width="195" height="218" viewBox="0 0 195 218">
  <defs>
    <style>

      .cls-3 {
        fill: #142a3b;
      }

      .cls-6 {
        fill: #0cb04a;
      }

      .cls-7 {
        fill: #000000;
        opacity: 0.35;
      }
    </style>
  </defs>
  <g id="group-77svg">
    <path d="M106.758,17.685 C106.758,17.685 106.758,12.562 106.758,12.562 C106.758,11.574 105.243,10.773 103.376,10.773 C101.508,10.773 99.994,11.574 99.994,12.562 C99.994,12.562 99.994,12.801 99.994,12.801 C99.994,13.788 98.480,14.589 96.612,14.589 C94.744,14.589 93.230,13.788 93.230,12.801 C93.230,12.801 93.230,1.786 93.230,1.786 C93.230,0.798 91.716,-0.003 89.848,-0.003 C87.980,-0.003 86.466,0.798 86.466,1.786 C86.466,1.786 86.466,15.022 86.466,15.022 C86.466,15.022 86.466,42.077 86.466,42.077 C86.466,43.065 87.980,43.866 89.848,43.866 C91.716,43.866 93.230,43.065 93.230,42.077 C93.230,42.077 93.230,39.020 93.230,39.020 C93.230,38.032 94.744,37.232 96.612,37.232 C98.480,37.232 99.994,38.032 99.994,39.020 C99.994,39.020 99.994,53.568 99.994,53.568 C99.994,54.556 101.508,55.357 103.376,55.357 C105.243,55.357 106.758,54.556 106.758,53.568 C106.758,53.568 106.758,50.130 106.758,50.130 C106.758,50.130 106.758,17.685 106.758,17.685 Z" id="path-1" class="cls-3" fill-rule="evenodd"/>
    <path d="M73.091,19.857 C73.091,19.857 73.091,17.342 73.091,17.342 C73.091,16.857 72.348,16.464 71.431,16.464 C70.514,16.464 69.771,16.857 69.771,17.342 C69.771,17.342 69.771,17.459 69.771,17.459 C69.771,17.944 69.027,18.337 68.110,18.337 C67.193,18.337 66.450,17.944 66.450,17.459 C66.450,17.459 66.450,12.051 66.450,12.051 C66.450,11.566 65.706,11.172 64.789,11.172 C63.872,11.172 63.129,11.566 63.129,12.051 C63.129,12.051 63.129,18.549 63.129,18.549 C63.129,18.549 63.129,31.833 63.129,31.833 C63.129,32.318 63.872,32.711 64.789,32.711 C65.706,32.711 66.450,32.318 66.450,31.833 C66.450,31.833 66.450,30.333 66.450,30.333 C66.450,29.848 67.193,29.455 68.110,29.455 C69.027,29.455 69.771,29.848 69.771,30.333 C69.771,30.333 69.771,37.476 69.771,37.476 C69.771,37.961 70.514,38.354 71.431,38.354 C72.348,38.354 73.091,37.961 73.091,37.476 C73.091,37.476 73.091,35.787 73.091,35.787 C73.091,35.787 73.091,19.857 73.091,19.857 Z" id="path-2" class="cls-3" fill-rule="evenodd"/>
    <path d="M123.716,20.269 C123.716,17.599 125.452,15.435 127.594,15.435 C129.735,15.435 131.472,17.599 131.472,20.269 C131.472,20.269 131.472,35.085 131.472,35.085 C131.472,37.755 129.735,39.920 127.594,39.920 C125.452,39.920 123.716,37.755 123.716,35.085 C123.716,35.085 123.716,20.269 123.716,20.269 Z" id="path-3" class="cls-3" fill-rule="evenodd"/>
    <path d="M65.371,123.872 C65.371,123.872 129.229,123.872 129.229,123.872 C129.229,123.872 183.902,83.825 183.902,83.825 C183.902,83.825 10.698,83.825 10.698,83.825 C10.698,83.825 65.371,123.872 65.371,123.872 Z" id="path-4" class="cls-6" fill-rule="evenodd"/>
    <path d="M10.698,83.825 C10.698,83.825 15.920,87.650 15.920,87.650 C15.920,87.650 126.673,95.721 126.673,95.721 C131.809,96.095 133.697,102.665 129.542,105.709 C129.542,105.709 104.745,123.873 104.745,123.873 C104.745,123.873 129.229,123.873 129.229,123.873 C129.229,123.873 183.902,83.825 183.902,83.825 C183.902,83.825 10.698,83.825 10.698,83.825 Z" id="path-5" class="cls-7" fill-rule="evenodd"/>
    <path d="M75.825,123.790 C75.825,123.790 118.775,123.790 118.775,123.790 C118.775,123.790 118.775,217.219 118.775,217.219 C118.775,217.219 75.825,217.219 75.825,217.219 C75.825,217.219 75.825,123.790 75.825,123.790 Z" id="path-6" class="cls-6" fill-rule="evenodd"/>
    <path d="M75.825,123.790 C75.825,123.790 105.785,128.609 105.785,128.609 C105.785,128.609 105.785,217.219 105.785,217.219 C105.785,217.219 118.775,217.219 118.775,217.219 C118.775,217.219 118.775,123.790 118.775,123.790 C118.775,123.790 75.825,123.790 75.825,123.790 Z" id="path-7" class="cls-7" fill-rule="evenodd"/>
    <path d="M0.011,63.263 C0.011,63.263 194.589,63.263 194.589,63.263 C194.589,63.263 194.589,83.825 194.589,83.825 C194.589,83.825 0.011,83.825 0.011,83.825 C0.011,83.825 0.011,63.263 0.011,63.263 Z" id="path-8" class="cls-6" fill-rule="evenodd"/>
  </g>
</svg>
