<svg xmlns="http://www.w3.org/2000/svg" xmlns:xlink="http://www.w3.org/1999/xlink" preserveAspectRatio="xMidYMid" width="218" height="106" viewBox="0 0 218 106">
  <defs>
    <style>

      .cls-3 {
        fill: #fbb713;
      }

      .cls-6 {
        fill: #ff3a2f;
      }

      .cls-8 {
        fill: #000000;
        opacity: 0.35;
      }
    </style>
  </defs>
  <g id="group-108svg">
    <path d="M101.501,80.215 C101.501,80.215 85.844,80.215 85.844,80.215 C82.825,80.215 80.378,82.066 80.378,84.352 C80.378,86.637 82.825,88.488 85.844,88.488 C85.844,88.488 86.573,88.488 86.573,88.488 C89.592,88.488 92.039,90.341 92.039,92.625 C92.039,94.910 89.592,96.763 86.573,96.763 C86.573,96.763 52.916,96.763 52.916,96.763 C49.897,96.763 47.450,98.614 47.450,100.900 C47.450,103.183 49.897,105.036 52.916,105.036 C52.916,105.036 93.363,105.036 93.363,105.036 C93.363,105.036 176.035,105.036 176.035,105.036 C179.054,105.036 181.501,103.183 181.501,100.900 C181.501,98.614 179.054,96.763 176.035,96.763 C176.035,96.763 166.694,96.763 166.694,96.763 C163.676,96.763 161.229,94.910 161.229,92.625 C161.229,90.341 163.676,88.488 166.694,88.488 C166.694,88.488 203.381,88.488 203.381,88.488 C206.400,88.488 208.847,86.637 208.847,84.352 C208.847,82.066 206.400,80.215 203.381,80.215 C203.381,80.215 200.643,80.215 200.643,80.215 C200.643,80.215 101.501,80.215 101.501,80.215 Z" id="path-1" class="cls-3" fill-rule="evenodd"/>
    <path d="M198.602,106.143 C196.070,106.143 194.019,104.158 194.019,101.710 C194.019,99.262 196.070,97.277 198.602,97.277 C198.602,97.277 212.644,97.277 212.644,97.277 C215.175,97.277 217.227,99.262 217.227,101.710 C217.227,104.158 215.175,106.143 212.644,106.143 C212.644,106.143 198.602,106.143 198.602,106.143 Z" id="path-2" class="cls-3" fill-rule="evenodd"/>
    <path d="M4.580,106.143 C2.050,106.143 -0.001,104.158 -0.001,101.710 C-0.001,99.262 2.050,97.277 4.580,97.277 C4.580,97.277 18.623,97.277 18.623,97.277 C21.154,97.277 23.206,99.262 23.206,101.710 C23.206,104.158 21.154,106.143 18.623,106.143 C18.623,106.143 4.580,106.143 4.580,106.143 Z" id="path-3" class="cls-3" fill-rule="evenodd"/>
    <path d="M33.305,24.164 C33.305,24.164 16.579,65.329 116.014,65.026 C215.451,64.727 214.844,30.174 207.540,24.164 C200.246,18.154 196.903,15.147 163.758,15.748 C136.067,14.693 122.845,4.429 103.067,1.385 C79.619,-2.225 43.029,0.061 33.305,24.164 Z" id="path-4" class="cls-6" fill-rule="evenodd"/>
    <path d="M32.250,32.851 C32.250,32.851 32.250,49.895 32.250,49.895 C32.285,61.510 41.770,84.400 116.017,84.177 C195.446,83.937 211.030,61.843 210.372,49.895 C210.372,49.895 210.372,32.851 210.372,32.851 C210.372,32.851 210.372,32.851 210.372,32.851 " id="path-5" class="cls-6" fill-rule="evenodd"/>
    <path d="M210.372,32.851 C210.372,32.851 210.372,49.895 210.372,49.895 C211.030,61.843 195.446,83.937 116.017,84.177 C41.770,84.400 32.285,61.510 32.250,49.895 C32.250,49.895 32.250,32.851 32.250,32.851 C32.250,32.851 36.759,75.285 155.568,58.514 C155.568,58.514 206.913,54.230 210.372,32.851 Z" id="path-6" class="cls-8" fill-rule="evenodd"/>
    <path d="M88.746,28.235 C88.746,33.378 81.665,37.552 72.936,37.552 C64.202,37.552 57.123,33.378 57.123,28.235 C57.123,23.092 64.202,18.921 72.936,18.921 C81.665,18.921 88.746,23.092 88.746,28.235 Z" id="path-7" class="cls-3" fill-rule="evenodd"/>
  </g>
</svg>
