<svg xmlns="http://www.w3.org/2000/svg" xmlns:xlink="http://www.w3.org/1999/xlink" preserveAspectRatio="xMidYMid" width="225" height="84" viewBox="0 0 225 84">
  <defs>
    <style>

      .cls-3 {
        fill: #ff3a2f;
      }

      .cls-5 {
        fill: #0cb04a;
      }

      .cls-8 {
        fill: #ededed;
      }

      .cls-9 {
        fill: #000000;
        opacity: 0.35;
      }
    </style>
  </defs>
  <g id="group-65svg">
    <path d="M57.352,58.448 C57.352,58.448 40.739,58.448 40.739,58.448 C37.535,58.448 34.939,60.223 34.939,62.413 C34.939,64.603 37.535,66.377 40.739,66.377 C40.739,66.377 41.512,66.377 41.512,66.377 C44.715,66.377 47.312,68.152 47.312,70.343 C47.312,72.532 44.715,74.307 41.512,74.307 C41.512,74.307 5.799,74.307 5.799,74.307 C2.596,74.307 -0.001,76.082 -0.001,78.271 C-0.001,80.461 2.596,82.236 5.799,82.236 C5.799,82.236 48.717,82.236 48.717,82.236 C48.717,82.236 136.439,82.236 136.439,82.236 C139.643,82.236 142.239,80.461 142.239,78.271 C142.239,76.082 139.643,74.307 136.439,74.307 C136.439,74.307 126.528,74.307 126.528,74.307 C123.325,74.307 120.728,72.532 120.728,70.343 C120.728,68.152 123.325,66.377 126.528,66.377 C126.528,66.377 165.456,66.377 165.456,66.377 C168.659,66.377 171.256,64.603 171.256,62.413 C171.256,60.223 168.659,58.448 165.456,58.448 C165.456,58.448 162.551,58.448 162.551,58.448 C162.551,58.448 57.352,58.448 57.352,58.448 Z" id="path-1" class="cls-3" fill-rule="evenodd"/>
    <path d="M160.384,83.298 C157.699,83.298 155.522,81.396 155.522,79.049 C155.522,76.702 157.699,74.800 160.384,74.800 C160.384,74.800 175.285,74.800 175.285,74.800 C177.970,74.800 180.147,76.702 180.147,79.049 C180.147,81.396 177.970,83.298 175.285,83.298 C175.285,83.298 160.384,83.298 160.384,83.298 Z" id="path-2" class="cls-3" fill-rule="evenodd"/>
    <path d="M220.169,37.680 C220.169,37.680 158.456,37.680 158.456,37.680 C156.081,37.680 154.155,35.755 154.155,33.381 C154.155,33.381 154.155,32.698 154.155,32.698 C154.155,30.324 156.081,28.398 158.456,28.398 C158.456,28.398 220.169,28.398 220.169,28.398 C222.544,28.398 224.469,30.324 224.469,32.698 C224.469,32.698 224.469,33.381 224.469,33.381 C224.469,35.755 222.544,37.680 220.169,37.680 Z" id="path-3" class="cls-5" fill-rule="evenodd"/>
    <path d="M141.080,61.485 C141.080,61.485 51.349,61.485 51.349,61.485 C51.349,61.485 15.928,29.017 15.928,29.017 C15.928,29.017 176.500,29.017 176.500,29.017 C176.500,29.017 141.080,61.485 141.080,61.485 Z" id="path-4" class="cls-5" fill-rule="evenodd"/>
    <path d="M62.127,10.332 C62.127,10.332 130.300,10.332 130.300,10.332 C133.146,10.332 135.957,10.946 138.542,12.132 C138.542,12.132 164.937,24.228 164.937,24.228 C164.937,24.228 27.491,24.228 27.491,24.228 C27.491,24.228 53.885,12.132 53.885,12.132 C56.472,10.946 59.283,10.332 62.127,10.332 Z" id="path-5" class="cls-5" fill-rule="evenodd"/>
    <path d="M44.799,48.509 C43.980,48.509 43.156,48.233 42.478,47.665 C42.478,47.665 35.795,42.079 35.795,42.079 C34.263,40.798 34.058,38.514 35.341,36.980 C36.623,35.449 38.902,35.238 40.441,36.526 C40.441,36.526 47.124,42.110 47.124,42.110 C48.656,43.392 48.861,45.676 47.577,47.211 C46.861,48.067 45.835,48.509 44.799,48.509 Z" id="path-6" class="cls-8" fill-rule="evenodd"/>
    <path d="M156.128,29.017 C156.128,29.017 137.556,46.040 137.556,46.040 C132.236,50.917 125.282,53.622 118.065,53.622 C118.065,53.622 42.771,53.622 42.771,53.622 C42.771,53.622 51.349,61.485 51.349,61.485 C51.349,61.485 141.080,61.485 141.080,61.485 C141.080,61.485 176.500,29.017 176.500,29.017 C176.500,29.017 156.128,29.017 156.128,29.017 Z" id="path-7" class="cls-9" fill-rule="evenodd"/>
    <path d="M138.541,12.131 C135.955,10.946 133.145,10.332 130.300,10.332 C130.300,10.332 123.538,10.332 123.538,10.332 C123.538,10.332 129.980,13.285 129.980,13.285 C133.566,14.928 132.394,20.297 128.451,20.297 C128.451,20.297 36.070,20.297 36.070,20.297 C36.070,20.297 27.491,24.228 27.491,24.228 C27.491,24.228 164.937,24.228 164.937,24.228 C164.937,24.228 138.541,12.131 138.541,12.131 Z" id="path-8" class="cls-9" fill-rule="evenodd"/>
    <path d="M109.815,5.112 C109.815,5.112 82.614,5.112 82.614,5.112 C82.254,5.112 81.963,4.819 81.963,4.460 C81.963,4.460 81.963,0.641 81.963,0.641 C81.963,0.281 82.254,-0.010 82.614,-0.010 C82.614,-0.010 109.815,-0.010 109.815,-0.010 C110.174,-0.010 110.466,0.281 110.466,0.641 C110.466,0.641 110.466,4.460 110.466,4.460 C110.466,4.819 110.174,5.112 109.815,5.112 Z" id="path-9" class="cls-5" fill-rule="evenodd"/>
  </g>
</svg>
