<svg xmlns="http://www.w3.org/2000/svg" xmlns:xlink="http://www.w3.org/1999/xlink" preserveAspectRatio="xMidYMid" width="217" height="212" viewBox="0 0 217 212">
  <defs>
    <style>

      .cls-3 {
        fill: #142a3b;
      }

      .cls-5 {
        fill: #2476ff;
      }

      .cls-6 {
        fill: #ffffff;
      }

      .cls-8 {
        fill: #000000;
        opacity: 0.35;
      }
    </style>
  </defs>
  <g id="group-84svg">
    <path d="M70.756,179.804 C70.756,179.804 50.261,179.804 50.261,179.804 C46.309,179.804 43.105,182.139 43.105,185.019 C43.105,187.900 46.309,190.235 50.261,190.235 C50.261,190.235 51.214,190.235 51.214,190.235 C55.166,190.235 58.370,192.571 58.370,195.451 C58.370,198.331 55.166,200.666 51.214,200.666 C51.214,200.666 7.155,200.666 7.155,200.666 C3.204,200.666 0.000,203.002 0.000,205.882 C0.000,208.763 3.204,211.097 7.155,211.097 C7.155,211.097 60.103,211.097 60.103,211.097 C60.103,211.097 168.327,211.097 168.327,211.097 C172.279,211.097 175.482,208.763 175.482,205.882 C175.482,203.002 172.279,200.666 168.327,200.666 C168.327,200.666 156.099,200.666 156.099,200.666 C152.148,200.666 148.944,198.331 148.944,195.451 C148.944,192.571 152.148,190.235 156.099,190.235 C156.099,190.235 204.124,190.235 204.124,190.235 C208.076,190.235 211.280,187.900 211.280,185.019 C211.280,182.139 208.076,179.804 204.124,179.804 C204.124,179.804 200.540,179.804 200.540,179.804 C200.540,179.804 70.756,179.804 70.756,179.804 Z" id="path-1" class="cls-3" fill-rule="evenodd"/>
    <path d="M196.743,211.566 C193.959,211.566 191.703,209.915 191.703,207.877 C191.703,205.840 193.959,204.188 196.743,204.188 C196.743,204.188 212.188,204.188 212.188,204.188 C214.972,204.188 217.229,205.840 217.229,207.877 C217.229,209.915 214.972,211.566 212.188,211.566 C212.188,211.566 196.743,211.566 196.743,211.566 Z" id="path-2" class="cls-3" fill-rule="evenodd"/>
    <path d="M215.139,95.031 C215.139,147.508 172.001,190.046 118.787,190.046 C65.574,190.046 22.436,147.508 22.436,95.031 C22.436,42.555 65.574,0.015 118.787,0.015 C172.001,0.015 215.139,42.555 215.139,95.031 Z" id="path-3" class="cls-5" fill-rule="evenodd"/>
    <path d="M176.805,19.178 C174.766,17.659 172.655,16.233 170.495,14.874 C171.470,21.021 174.289,28.431 174.289,28.431 C174.289,28.431 172.069,37.754 172.957,42.195 C173.844,46.636 184.945,37.310 174.289,45.303 C163.633,53.295 157.417,45.748 165.409,53.740 C173.401,61.731 174.289,45.303 172.513,66.615 C170.737,87.927 168.072,91.480 162.744,96.807 C157.417,102.135 153.864,114.567 158.304,123.447 C162.744,132.328 172.513,141.208 172.513,141.208 C172.513,141.208 167.661,172.771 173.413,173.291 C174.689,172.422 175.943,171.525 177.174,170.599 C184.385,161.223 194.490,130.663 199.154,128.331 C200.567,127.624 203.940,128.725 208.099,130.683 C212.624,119.672 215.138,107.644 215.138,95.030 C215.138,89.380 214.609,83.855 213.651,78.475 C213.651,78.475 213.140,79.047 213.140,79.047 C203.740,73.082 191.554,52.748 176.805,19.178 Z" id="path-4" class="cls-6" fill-rule="evenodd"/>
    <path d="M34.855,48.385 C39.608,49.054 44.192,49.188 44.192,49.188 C40.862,49.854 47.522,71.832 47.522,71.832 C41.466,79.060 40.119,86.164 43.527,93.144 C37.088,99.027 51.519,103.468 51.519,103.468 C52.184,104.467 47.522,121.116 47.522,121.116 C44.192,130.773 71.166,162.408 71.166,162.408 C70.500,137.100 83.821,106.797 83.821,106.797 C87.151,105.798 88.483,88.482 88.483,88.482 C88.483,83.820 73.831,86.152 73.831,86.152 C75.496,84.154 73.831,83.487 73.831,83.487 C66.837,76.827 55.515,74.829 55.515,74.829 C49.854,63.174 52.518,54.849 52.518,54.849 C53.516,47.855 61.176,62.174 61.176,62.174 C61.176,71.832 80.491,72.166 80.491,72.166 C71.166,59.178 83.155,46.857 83.155,46.857 C83.487,44.194 91.147,46.191 91.147,46.191 C90.814,38.532 81.156,40.197 81.156,40.197 C79.825,37.533 67.171,46.191 67.171,46.191 C63.840,42.861 80.158,35.202 80.158,35.202 C91.480,17.220 57.846,24.880 57.846,24.880 C56.097,25.153 54.469,25.443 52.897,25.737 C45.783,32.318 39.686,39.950 34.855,48.385 Z" id="path-5" class="cls-6" fill-rule="evenodd"/>
    <path d="M118.787,0.015 C116.427,0.015 114.096,0.128 111.779,0.293 C161.717,3.837 201.124,44.883 201.124,95.030 C201.124,145.180 161.717,186.226 111.779,189.770 C114.096,189.935 116.427,190.046 118.787,190.046 C172.001,190.046 215.138,147.508 215.138,95.030 C215.138,42.555 172.001,0.015 118.787,0.015 Z" id="path-6" class="cls-8" fill-rule="evenodd"/>
  </g>
</svg>
