<svg xmlns="http://www.w3.org/2000/svg" xmlns:xlink="http://www.w3.org/1999/xlink" preserveAspectRatio="xMidYMid" width="217" height="214" viewBox="0 0 217 214">
  <defs>
    <style>

      .cls-3 {
        fill: #ff3a2f;
      }

      .cls-6 {
        fill: #2476ff;
      }

      .cls-7 {
        fill: #090908;
        opacity: 0.35;
      }

      .cls-8 {
        fill: #142a3b;
      }

      .cls-13 {
        fill: #3e66a5;
      }
    </style>
  </defs>
  <g id="group-9svg">
    <path d="M75.096,189.215 C75.096,189.215 54.887,189.215 54.887,189.215 C50.991,189.215 47.832,190.976 47.832,193.147 C47.832,195.320 50.991,197.080 54.887,197.080 C54.887,197.080 55.828,197.080 55.828,197.080 C59.724,197.080 62.883,198.841 62.883,201.013 C62.883,203.185 59.724,204.946 55.828,204.946 C55.828,204.946 12.385,204.946 12.385,204.946 C8.489,204.946 5.330,206.707 5.330,208.879 C5.330,211.050 8.489,212.812 12.385,212.812 C12.385,212.812 64.593,212.812 64.593,212.812 C64.593,212.812 171.304,212.812 171.304,212.812 C175.201,212.812 178.359,211.050 178.359,208.879 C178.359,206.707 175.201,204.946 171.304,204.946 C171.304,204.946 159.247,204.946 159.247,204.946 C155.351,204.946 152.192,203.185 152.192,201.013 C152.192,198.841 155.351,197.080 159.247,197.080 C159.247,197.080 206.601,197.080 206.601,197.080 C210.498,197.080 213.657,195.320 213.657,193.147 C213.657,190.976 210.498,189.215 206.601,189.215 C206.601,189.215 203.067,189.215 203.067,189.215 C203.067,189.215 75.096,189.215 75.096,189.215 Z" id="path-1" class="cls-3" fill-rule="evenodd"/>
    <path d="M204.818,156.867 C204.818,156.867 208.407,156.867 208.407,156.867 C209.099,156.867 209.660,157.841 209.660,159.042 C209.660,160.243 209.099,161.217 208.407,161.217 C208.407,161.217 208.240,161.217 208.240,161.217 C207.548,161.217 206.987,162.190 206.987,163.391 C206.987,164.593 207.548,165.567 208.240,165.567 C208.240,165.567 215.955,165.567 215.955,165.567 C216.647,165.567 217.208,166.540 217.208,167.742 C217.208,168.942 216.647,169.916 215.955,169.916 C215.955,169.916 206.684,169.916 206.684,169.916 C206.684,169.916 187.733,169.916 187.733,169.916 C187.041,169.916 186.480,168.942 186.480,167.742 C186.480,166.540 187.041,165.567 187.733,165.567 C187.733,165.567 189.874,165.567 189.874,165.567 C190.566,165.567 191.127,164.593 191.127,163.391 C191.127,162.190 190.566,161.217 189.874,161.217 C189.874,161.217 179.684,161.217 179.684,161.217 C178.992,161.217 178.431,160.243 178.431,159.042 C178.431,157.841 178.992,156.867 179.684,156.867 C179.684,156.867 182.092,156.867 182.092,156.867 C182.092,156.867 204.818,156.867 204.818,156.867 Z" id="path-2" class="cls-3" fill-rule="evenodd"/>
    <path d="M9.661,192.989 C6.813,192.989 4.505,191.299 4.505,189.215 C4.505,187.131 6.813,185.441 9.661,185.441 C9.661,185.441 25.460,185.441 25.460,185.441 C28.307,185.441 30.616,187.131 30.616,189.215 C30.616,191.299 28.307,192.989 25.460,192.989 C25.460,192.989 9.661,192.989 9.661,192.989 Z" id="path-3" class="cls-3" fill-rule="evenodd"/>
    <path d="M74.881,95.927 C74.881,112.006 87.966,125.090 104.045,125.090 C120.125,125.090 133.210,112.006 133.210,95.927 C133.210,79.847 120.125,66.763 104.045,66.763 C87.966,66.763 74.881,79.847 74.881,95.927 Z" id="path-4" class="cls-6" fill-rule="evenodd"/>
    <path d="M107.333,66.961 C116.002,72.023 121.856,81.402 121.856,92.143 C121.856,108.222 108.772,121.306 92.692,121.306 C91.579,121.306 90.485,121.230 89.404,121.108 C93.713,123.623 98.706,125.090 104.045,125.090 C120.125,125.090 133.210,112.006 133.210,95.927 C133.210,80.961 121.869,68.602 107.333,66.961 Z" id="path-5" class="cls-7" fill-rule="evenodd"/>
    <path d="M145.196,0.348 C143.137,-0.540 140.736,0.348 139.785,2.382 C139.785,2.382 118.513,47.600 118.513,47.600 C118.025,48.650 117.992,49.788 118.416,50.863 C118.847,51.938 119.701,52.669 120.776,53.092 C140.013,60.611 151.844,79.977 149.549,100.500 C149.427,101.646 149.778,102.355 150.526,103.233 C151.275,104.113 152.357,103.746 153.505,103.803 C153.505,103.803 203.452,104.260 203.452,104.260 C203.517,104.260 203.582,104.260 203.647,104.260 C205.803,104.260 207.618,104.356 207.797,102.185 C211.272,57.788 186.119,17.924 145.196,0.348 Z" id="path-6" class="cls-8" fill-rule="evenodd"/>
    <path d="M58.044,106.504 C58.753,105.594 59.045,104.430 58.858,103.291 C55.513,82.907 66.320,62.735 85.134,54.232 C86.191,53.752 86.989,52.864 87.364,51.775 C87.738,50.684 87.640,49.480 87.094,48.471 C87.094,48.471 63.529,4.392 63.529,4.392 C62.471,2.407 60.022,1.625 58.020,2.610 C18.049,22.277 -4.915,65.152 0.863,109.305 C1.139,111.404 2.922,112.933 4.989,112.933 C5.127,112.933 5.257,112.924 5.387,112.917 C5.387,112.917 55.139,108.116 55.139,108.116 C56.295,108.002 57.344,107.417 58.044,106.504 Z" id="path-7" class="cls-8" fill-rule="evenodd"/>
    <path d="M137.881,133.276 C137.245,132.316 136.237,131.665 135.098,131.477 C133.966,131.290 132.794,131.575 131.876,132.283 C116.032,144.441 92.066,144.448 76.215,132.283 C75.304,131.575 74.115,131.290 73.001,131.477 C71.862,131.665 70.852,132.316 70.210,133.276 C70.210,133.276 42.477,174.864 42.477,174.864 C41.240,176.736 41.697,179.250 43.518,180.561 C61.242,193.263 82.171,199.976 104.045,199.976 C125.918,199.976 146.847,193.263 164.571,180.561 C166.394,179.250 166.849,176.736 165.613,174.864 C165.613,174.864 137.881,133.276 137.881,133.276 Z" id="path-8" class="cls-8" fill-rule="evenodd"/>
    <path d="M147.115,1.259 C182.357,20.607 203.425,57.561 200.228,98.400 C200.049,100.572 198.235,100.475 196.078,100.475 C196.013,100.475 195.948,100.475 195.883,100.475 C195.883,100.475 149.580,100.053 149.580,100.053 C149.565,100.202 149.566,100.349 149.549,100.499 C149.427,101.646 149.778,102.355 150.526,103.233 C151.275,104.113 152.357,103.746 153.505,103.803 C153.505,103.803 203.452,104.260 203.452,104.260 C203.516,104.260 203.582,104.260 203.647,104.260 C205.803,104.260 207.618,104.356 207.797,102.185 C211.217,58.499 186.881,19.252 147.115,1.259 Z" id="path-9" class="cls-7" fill-rule="evenodd"/>
    <path d="M87.094,48.471 C87.094,48.471 63.529,4.391 63.529,4.391 C62.471,2.407 60.022,1.625 58.020,2.610 C57.758,2.739 57.515,2.894 57.253,3.026 C57.253,3.026 79.526,44.687 79.526,44.687 C80.072,45.696 80.169,46.899 79.796,47.991 C79.420,49.081 78.623,49.968 77.566,50.448 C58.752,58.950 47.945,79.123 51.290,99.507 C51.476,100.646 51.184,101.811 50.476,102.720 C49.776,103.632 48.726,104.217 47.571,104.332 C47.571,104.332 0.821,108.843 0.821,108.843 C0.841,108.998 0.842,109.150 0.863,109.305 C1.139,111.404 2.922,112.934 4.988,112.934 C5.127,112.934 5.257,112.924 5.387,112.917 C5.387,112.917 55.139,108.117 55.139,108.117 C56.294,108.002 57.344,107.417 58.044,106.504 C58.753,105.594 59.045,104.430 58.858,103.291 C55.513,82.908 66.320,62.735 85.134,54.233 C86.191,53.752 86.988,52.865 87.364,51.775 C87.738,50.684 87.640,49.480 87.094,48.471 Z" id="path-10" class="cls-7" fill-rule="evenodd"/>
    <path d="M79.254,134.405 C78.212,133.744 77.198,133.037 76.215,132.283 C75.355,131.614 74.247,131.358 73.187,131.485 C75.135,132.611 77.159,133.589 79.254,134.405 Z" id="path-11" class="cls-13" fill-rule="evenodd"/>
    <path d="M165.613,174.864 C165.613,174.864 137.880,133.276 137.880,133.276 C137.245,132.316 136.237,131.665 135.098,131.477 C134.049,131.303 132.986,131.577 132.101,132.174 C132.101,132.174 158.045,171.080 158.045,171.080 C159.281,172.952 158.825,175.467 157.003,176.777 C139.279,189.478 118.350,196.192 96.476,196.192 C81.619,196.192 67.226,193.023 53.948,187.055 C69.235,195.493 86.313,199.976 104.045,199.976 C125.918,199.976 146.847,193.263 164.571,180.562 C166.394,179.251 166.850,176.736 165.613,174.864 Z" id="path-12" class="cls-7" fill-rule="evenodd"/>
  </g>
</svg>
