<svg xmlns="http://www.w3.org/2000/svg" xmlns:xlink="http://www.w3.org/1999/xlink" preserveAspectRatio="xMidYMid" width="218" height="159" viewBox="0 0 218 159">
  <defs>
    <style>

      .cls-3 {
        fill: #0cb04a;
      }

      .cls-6 {
        fill: #ff3a2f;
      }

      .cls-7 {
        fill: #000000;
        opacity: 0.35;
      }
    </style>
  </defs>
  <g id="group-44svg">
    <path d="M151.556,159.347 C151.556,159.347 165.952,159.347 165.952,159.347 C168.728,159.347 170.978,158.040 170.978,156.429 C170.978,154.818 168.728,153.510 165.952,153.510 C165.952,153.510 165.282,153.510 165.282,153.510 C162.507,153.510 160.256,152.204 160.256,150.593 C160.256,148.982 162.507,147.676 165.282,147.676 C165.282,147.676 196.230,147.676 196.230,147.676 C199.006,147.676 201.256,146.368 201.256,144.757 C201.256,143.146 199.006,141.840 196.230,141.840 C196.230,141.840 159.038,141.840 159.038,141.840 C159.038,141.840 83.020,141.840 83.020,141.840 C80.244,141.840 77.994,143.146 77.994,144.757 C77.994,146.368 80.244,147.676 83.020,147.676 C83.020,147.676 91.609,147.676 91.609,147.676 C94.385,147.676 96.635,148.982 96.635,150.593 C96.635,152.204 94.385,153.510 91.609,153.510 C91.609,153.510 50.732,153.510 50.732,153.510 C47.956,153.510 45.706,154.818 45.706,156.429 C45.706,158.040 47.956,159.347 50.732,159.347 C50.732,159.347 60.392,159.347 60.392,159.347 C60.392,159.347 151.556,159.347 151.556,159.347 Z" id="path-1" class="cls-3" fill-rule="evenodd"/>
    <path d="M55.939,131.074 C55.939,131.074 63.547,131.074 63.547,131.074 C65.014,131.074 66.203,130.033 66.203,128.750 C66.203,127.466 65.014,126.426 63.547,126.426 C63.547,126.426 63.193,126.426 63.193,126.426 C61.726,126.426 60.537,125.384 60.537,124.101 C60.537,122.817 61.726,121.777 63.193,121.777 C63.193,121.777 79.549,121.777 79.549,121.777 C81.016,121.777 82.206,120.736 82.206,119.452 C82.206,118.168 81.016,117.127 79.549,117.127 C79.549,117.127 59.893,117.127 59.893,117.127 C59.893,117.127 19.716,117.127 19.716,117.127 C18.248,117.127 17.060,118.168 17.060,119.452 C17.060,120.736 18.248,121.777 19.716,121.777 C19.716,121.777 24.256,121.777 24.256,121.777 C25.722,121.777 26.912,122.817 26.912,124.101 C26.912,125.384 25.722,126.426 24.256,126.426 C24.256,126.426 2.651,126.426 2.651,126.426 C1.184,126.426 -0.005,127.466 -0.005,128.750 C-0.005,130.033 1.184,131.074 2.651,131.074 C2.651,131.074 7.757,131.074 7.757,131.074 C7.757,131.074 55.939,131.074 55.939,131.074 Z" id="path-2" class="cls-3" fill-rule="evenodd"/>
    <path d="M57.262,141.638 C60.387,141.638 62.921,143.077 62.921,144.853 C62.921,146.629 60.387,148.069 57.262,148.069 C57.262,148.069 39.917,148.069 39.917,148.069 C36.792,148.069 34.257,146.629 34.257,144.853 C34.257,143.077 36.792,141.638 39.917,141.638 C39.917,141.638 57.262,141.638 57.262,141.638 Z" id="path-3" class="cls-3" fill-rule="evenodd"/>
    <path d="M211.544,76.067 C215.148,68.957 217.223,60.941 217.223,52.425 C217.223,23.471 193.752,0.001 164.798,0.001 C146.880,0.001 131.079,9.002 121.624,22.715 C112.168,9.002 96.367,0.001 78.450,0.001 C49.496,0.001 26.024,23.471 26.024,52.425 C26.024,62.531 28.933,71.936 33.888,79.942 C45.986,103.755 75.736,127.126 122.253,150.078 C154.234,133.395 180.640,113.562 200.978,90.303 C204.059,87.359 211.544,76.067 211.544,76.067 Z" id="path-4" class="cls-6" fill-rule="evenodd"/>
    <path d="M115.648,29.918 C117.425,27.340 119.427,24.930 121.624,22.715 C109.455,5.780 93.000,0.001 78.450,0.001 C76.442,0.001 74.468,0.139 72.519,0.358 C87.924,2.124 107.268,17.764 115.648,29.918 Z" id="path-5" class="cls-7" fill-rule="evenodd"/>
    <path d="M164.798,0.001 C162.760,0.001 160.755,0.133 158.779,0.358 C184.936,3.308 205.273,25.480 205.273,52.425 C205.273,60.942 203.198,68.956 199.594,76.067 C199.594,76.067 192.109,87.359 189.028,90.304 C169.935,112.139 145.429,130.917 116.048,146.941 C118.095,147.987 120.137,149.033 122.253,150.078 C154.234,133.395 180.640,113.562 200.978,90.304 C204.059,87.359 211.544,76.067 211.544,76.067 C215.148,68.956 217.223,60.942 217.223,52.425 C217.223,23.472 193.752,0.001 164.798,0.001 Z" id="path-6" class="cls-7" fill-rule="evenodd"/>
  </g>
</svg>
