<svg xmlns="http://www.w3.org/2000/svg" xmlns:xlink="http://www.w3.org/1999/xlink" preserveAspectRatio="xMidYMid" width="217" height="187" viewBox="0 0 217 187">
  <defs>
    <style>

      .cls-3 {
        fill: #142a3b;
      }

      .cls-6 {
        fill: #fbb713;
      }

      .cls-7 {
        fill: #ededed;
      }

      .cls-11 {
        fill: #090908;
        opacity: 0.35;
      }

      .cls-12 {
        fill: #ff3a2f;
      }
    </style>
  </defs>
  <g id="group-25svg">
    <path d="M85.309,164.470 C85.309,164.470 69.512,164.470 69.512,164.470 C66.465,164.470 63.997,165.846 63.997,167.545 C63.997,169.243 66.465,170.619 69.512,170.619 C69.512,170.619 70.247,170.619 70.247,170.619 C73.293,170.619 75.762,171.994 75.762,173.692 C75.762,175.391 73.293,176.767 70.247,176.767 C70.247,176.767 36.287,176.767 36.287,176.767 C33.241,176.767 30.772,178.143 30.772,179.841 C30.772,181.539 33.241,182.916 36.287,182.916 C36.287,182.916 77.098,182.916 77.098,182.916 C77.098,182.916 160.514,182.916 160.514,182.916 C163.560,182.916 166.029,181.539 166.029,179.841 C166.029,178.143 163.560,176.767 160.514,176.767 C160.514,176.767 151.089,176.767 151.089,176.767 C148.044,176.767 145.575,175.391 145.575,173.692 C145.575,171.994 148.044,170.619 151.089,170.619 C151.089,170.619 188.107,170.619 188.107,170.619 C191.152,170.619 193.621,169.243 193.621,167.545 C193.621,165.846 191.152,164.470 188.107,164.470 C188.107,164.470 185.344,164.470 185.344,164.470 C185.344,164.470 85.309,164.470 85.309,164.470 Z" id="path-1" class="cls-3" fill-rule="evenodd"/>
    <path d="M160.037,140.046 C160.037,140.046 162.842,140.046 162.842,140.046 C163.383,140.046 163.822,140.807 163.822,141.746 C163.822,142.685 163.383,143.446 162.842,143.446 C162.842,143.446 162.712,143.446 162.712,143.446 C162.171,143.446 161.732,144.207 161.732,145.146 C161.732,146.085 162.171,146.846 162.712,146.846 C162.712,146.846 168.742,146.846 168.742,146.846 C169.283,146.846 169.722,147.607 169.722,148.546 C169.722,149.486 169.283,150.246 168.742,150.246 C168.742,150.246 161.495,150.246 161.495,150.246 C161.495,150.246 146.681,150.246 146.681,150.246 C146.140,150.246 145.702,149.486 145.702,148.546 C145.702,147.607 146.140,146.846 146.681,146.846 C146.681,146.846 148.355,146.846 148.355,146.846 C148.896,146.846 149.335,146.085 149.335,145.146 C149.335,144.207 148.896,143.446 148.355,143.446 C148.355,143.446 140.389,143.446 140.389,143.446 C139.848,143.446 139.410,142.685 139.410,141.746 C139.410,140.807 139.848,140.046 140.389,140.046 C140.389,140.046 142.272,140.046 142.272,140.046 C142.272,140.046 160.037,140.046 160.037,140.046 Z" id="path-2" class="cls-3" fill-rule="evenodd"/>
    <path d="M4.031,186.590 C1.805,186.590 0.000,185.271 0.000,183.641 C0.000,182.012 1.805,180.691 4.031,180.691 C4.031,180.691 16.381,180.691 16.381,180.691 C18.607,180.691 20.411,182.012 20.411,183.641 C20.411,185.271 18.607,186.590 16.381,186.590 C16.381,186.590 4.031,186.590 4.031,186.590 Z" id="path-3" class="cls-3" fill-rule="evenodd"/>
    <path d="M153.005,96.656 C151.890,94.512 149.636,91.948 145.269,91.948 C143.587,91.948 141.885,92.317 140.241,92.672 C138.676,93.006 137.061,93.360 135.576,93.360 C133.134,93.360 130.244,92.497 127.260,86.138 C123.427,77.966 125.275,73.143 127.056,68.480 C128.751,64.044 130.672,59.027 126.608,53.077 C123.493,48.507 119.088,45.996 114.220,45.996 C107.983,45.996 101.608,50.107 96.284,57.590 C93.589,61.364 92.023,66.189 90.503,70.853 C89.126,75.084 87.699,79.452 85.787,81.416 C81.650,85.663 75.783,87.833 69.567,90.144 C63.250,92.484 56.730,94.902 52.015,99.741 C38.128,114.005 48.762,140.699 61.424,153.709 C62.134,154.434 79.049,171.586 96.125,171.586 C96.125,171.586 96.125,171.586 96.125,171.586 C102.514,171.586 108.048,169.233 112.569,164.590 C122.985,153.897 125.086,142.872 126.614,134.817 C127.404,130.688 128.086,127.109 129.636,125.270 C131.983,122.488 136.120,119.764 140.118,117.134 C147.935,111.991 157.663,105.588 153.005,96.656 Z" id="path-4" class="cls-6" fill-rule="evenodd"/>
    <path d="M72.456,151.173 C71.512,151.173 70.572,150.807 69.861,150.077 C58.526,138.430 49.623,115.308 62.394,102.191 C63.790,100.759 66.082,100.729 67.513,102.124 C68.949,103.518 68.977,105.809 67.584,107.243 C58.501,116.570 65.813,135.536 75.051,145.029 C76.444,146.461 76.413,148.754 74.981,150.148 C74.277,150.833 73.365,151.173 72.456,151.173 Z" id="path-5" class="cls-7" fill-rule="evenodd"/>
    <path d="M101.250,70.057 C100.769,70.057 100.285,69.961 99.818,69.759 C97.980,68.968 97.135,66.837 97.927,65.002 C101.286,57.209 106.451,52.202 112.476,50.907 C114.427,50.484 116.354,51.730 116.775,53.684 C117.196,55.639 115.951,57.564 113.996,57.984 C110.326,58.775 106.981,62.284 104.574,67.868 C103.987,69.236 102.650,70.057 101.250,70.057 Z" id="path-6" class="cls-7" fill-rule="evenodd"/>
    <path d="M127.056,68.481 C125.274,73.143 123.426,77.966 127.260,86.138 C129.493,90.897 131.673,92.576 133.653,93.121 C133.653,93.121 174.883,51.107 174.883,51.107 C171.130,50.158 167.609,48.187 164.712,45.209 C161.271,41.675 158.945,38.083 157.583,34.460 C157.583,34.460 128.543,63.974 128.543,63.974 C128.157,65.541 127.605,67.045 127.056,68.481 Z" id="path-7" class="cls-3" fill-rule="evenodd"/>
    <path d="M172.358,52.060 C168.662,52.060 165.204,50.516 162.383,47.623 C157.426,42.531 155.304,37.812 155.890,33.167 C156.773,26.161 163.586,20.685 173.530,14.606 C175.972,13.115 178.264,11.665 180.446,10.274 C189.456,4.537 196.565,0.010 203.459,0.010 C206.657,0.010 209.626,1.012 212.290,2.979 C216.668,6.218 218.294,11.564 216.527,16.930 C214.827,22.065 209.433,28.031 199.682,28.655 C194.390,38.194 183.734,52.060 172.358,52.060 Z" id="path-8" class="cls-3" fill-rule="evenodd"/>
    <path d="M213.932,4.443 C214.266,6.445 214.123,8.576 213.419,10.714 C211.719,15.849 206.325,21.814 196.574,22.438 C191.282,31.977 180.625,45.844 169.249,45.844 C165.553,45.844 162.096,44.300 159.276,41.405 C158.101,40.200 157.098,39.015 156.240,37.847 C157.062,40.999 159.078,44.227 162.384,47.623 C165.204,50.516 168.662,52.060 172.358,52.060 C183.734,52.060 194.390,38.194 199.682,28.655 C209.433,28.031 214.827,22.066 216.527,16.930 C218.050,12.305 217.040,7.702 213.932,4.443 Z" id="path-9" class="cls-11" fill-rule="evenodd"/>
    <path d="M79.636,125.603 C78.203,124.133 78.231,121.782 79.702,120.358 C81.172,118.928 83.520,118.952 84.946,120.416 C84.946,120.416 96.530,132.296 96.530,132.296 C97.957,133.766 97.927,136.125 96.458,137.541 C95.740,138.251 94.805,138.599 93.872,138.599 C92.908,138.599 91.937,138.222 91.213,137.483 C91.213,137.483 79.636,125.603 79.636,125.603 Z" id="path-10" class="cls-12" fill-rule="evenodd"/>
    <path d="M99.659,152.716 C98.066,154.361 95.472,154.361 93.872,152.716 C92.270,151.072 92.270,148.421 93.872,146.768 C95.472,145.132 98.066,145.132 99.659,146.768 C101.261,148.421 101.261,151.072 99.659,152.716 Z" id="path-11" class="cls-12" fill-rule="evenodd"/>
    <path d="M108.033,125.668 C107.317,126.370 106.382,126.718 105.455,126.718 C104.484,126.718 103.520,126.345 102.789,125.595 C102.789,125.595 91.213,113.701 91.213,113.701 C89.786,112.231 89.815,109.883 91.285,108.457 C92.749,107.029 95.095,107.058 96.530,108.529 C96.530,108.529 108.106,120.424 108.106,120.424 C109.541,121.894 109.511,124.233 108.033,125.668 Z" id="path-12" class="cls-12" fill-rule="evenodd"/>
    <path d="M153.005,96.656 C152.104,94.924 150.437,92.939 147.534,92.233 C150.113,100.238 141.184,106.126 133.901,110.917 C129.903,113.548 125.766,116.272 123.419,119.053 C121.869,120.892 121.187,124.472 120.397,128.600 C118.870,136.656 116.769,147.682 106.352,158.373 C101.831,163.017 96.297,165.370 89.908,165.370 C77.383,165.370 64.971,156.157 58.951,150.952 C59.763,151.923 60.588,152.850 61.424,153.709 C62.134,154.433 79.049,171.586 96.125,171.586 C102.514,171.586 108.049,169.233 112.569,164.590 C122.985,153.897 125.086,142.871 126.614,134.817 C127.405,130.688 128.086,127.109 129.636,125.270 C131.983,122.488 136.120,119.765 140.118,117.134 C147.935,111.991 157.663,105.588 153.005,96.656 Z" id="path-13" class="cls-11" fill-rule="evenodd"/>
    <path d="M120.839,62.264 C119.058,66.927 117.210,71.750 121.042,79.921 C123.371,84.883 125.639,86.483 127.685,86.953 C127.543,86.675 127.401,86.442 127.260,86.138 C123.427,77.966 125.275,73.144 127.056,68.480 C128.751,64.044 130.672,59.027 126.608,53.078 C125.007,50.728 123.062,48.935 120.893,47.734 C124.200,53.301 122.450,58.049 120.839,62.264 Z" id="path-14" class="cls-11" fill-rule="evenodd"/>
  </g>
</svg>
