<svg xmlns="http://www.w3.org/2000/svg" xmlns:xlink="http://www.w3.org/1999/xlink" preserveAspectRatio="xMidYMid" width="217" height="162" viewBox="0 0 217 162">
  <defs>
    <style>

      .cls-3 {
        fill: #142a3b;
      }

      .cls-7 {
        fill: #2476ff;
      }

      .cls-8 {
        fill: #ff3a2f;
      }

      .cls-9 {
        fill: #090908;
        opacity: 0.35;
      }
    </style>
  </defs>
  <g id="group-19svg">
    <path d="M152.352,159.486 C152.352,159.486 166.387,159.486 166.387,159.486 C169.094,159.486 171.287,157.982 171.287,156.126 C171.287,154.272 169.094,152.767 166.387,152.767 C166.387,152.767 165.734,152.767 165.734,152.767 C163.028,152.767 160.834,151.263 160.834,149.407 C160.834,147.552 163.028,146.049 165.734,146.049 C165.734,146.049 195.907,146.049 195.907,146.049 C198.614,146.049 200.807,144.544 200.807,142.689 C200.807,140.834 198.614,139.330 195.907,139.330 C195.907,139.330 159.647,139.330 159.647,139.330 C159.647,139.330 85.532,139.330 85.532,139.330 C82.826,139.330 80.632,140.834 80.632,142.689 C80.632,144.544 82.826,146.049 85.532,146.049 C85.532,146.049 93.906,146.049 93.906,146.049 C96.612,146.049 98.806,147.552 98.806,149.407 C98.806,151.263 96.612,152.767 93.906,152.767 C93.906,152.767 54.052,152.767 54.052,152.767 C51.347,152.767 49.153,154.272 49.153,156.126 C49.153,157.982 51.347,159.486 54.052,159.486 C54.052,159.486 63.472,159.486 63.472,159.486 C63.472,159.486 152.352,159.486 152.352,159.486 Z" id="path-1" class="cls-3" fill-rule="evenodd"/>
    <path d="M66.891,121.443 C66.891,121.443 72.669,121.443 72.669,121.443 C73.782,121.443 74.685,120.755 74.685,119.907 C74.685,119.059 73.782,118.371 72.669,118.371 C72.669,118.371 72.400,118.371 72.400,118.371 C71.286,118.371 70.382,117.683 70.382,116.836 C70.382,115.988 71.286,115.300 72.400,115.300 C72.400,115.300 84.819,115.300 84.819,115.300 C85.934,115.300 86.836,114.613 86.836,113.765 C86.836,112.916 85.934,112.229 84.819,112.229 C84.819,112.229 69.894,112.229 69.894,112.229 C69.894,112.229 39.386,112.229 39.386,112.229 C38.273,112.229 37.369,112.916 37.369,113.765 C37.369,114.613 38.273,115.300 39.386,115.300 C39.386,115.300 42.834,115.300 42.834,115.300 C43.947,115.300 44.850,115.988 44.850,116.836 C44.850,117.683 43.947,118.371 42.834,118.371 C42.834,118.371 26.428,118.371 26.428,118.371 C25.314,118.371 24.412,119.059 24.412,119.907 C24.412,120.755 25.314,121.443 26.428,121.443 C26.428,121.443 30.306,121.443 30.306,121.443 C30.306,121.443 66.891,121.443 66.891,121.443 Z" id="path-2" class="cls-3" fill-rule="evenodd"/>
    <path d="M57.929,138.922 C60.302,138.922 62.226,140.465 62.226,142.369 C62.226,144.272 60.302,145.815 57.929,145.815 C57.929,145.815 44.759,145.815 44.759,145.815 C42.385,145.815 40.461,144.272 40.461,142.369 C40.461,140.465 42.385,138.922 44.759,138.922 C44.759,138.922 57.929,138.922 57.929,138.922 Z" id="path-3" class="cls-3" fill-rule="evenodd"/>
    <path d="M211.485,153.840 C214.655,153.840 217.226,155.565 217.226,157.692 C217.226,159.818 214.655,161.543 211.485,161.543 C211.485,161.543 193.892,161.543 193.892,161.543 C190.722,161.543 188.152,159.818 188.152,157.692 C188.152,155.565 190.722,153.840 193.892,153.840 C193.892,153.840 211.485,153.840 211.485,153.840 Z" id="path-4" class="cls-3" fill-rule="evenodd"/>
    <path d="M177.562,144.775 C177.562,144.775 67.780,72.387 67.780,72.387 C67.780,72.387 177.562,-0.002 177.562,-0.002 C177.562,-0.002 177.562,144.775 177.562,144.775 Z" id="path-5" class="cls-7" fill-rule="evenodd"/>
    <path d="M109.779,144.775 C109.779,144.775 -0.003,72.387 -0.003,72.387 C-0.003,72.387 109.779,-0.002 109.779,-0.002 C109.779,-0.002 109.779,144.775 109.779,144.775 Z" id="path-6" class="cls-8" fill-rule="evenodd"/>
    <path d="M109.779,100.081 C109.779,100.081 112.743,102.035 112.743,102.035 C112.743,102.035 120.895,37.364 120.895,37.364 C120.895,37.364 109.779,44.693 109.779,44.693 C109.779,44.693 109.779,100.081 109.779,100.081 Z" id="path-7" class="cls-9" fill-rule="evenodd"/>
  </g>
</svg>
