<svg xmlns="http://www.w3.org/2000/svg" xmlns:xlink="http://www.w3.org/1999/xlink" preserveAspectRatio="xMidYMid" width="218" height="188" viewBox="0 0 218 188">
  <defs>
    <style>

      .cls-3 {
        fill: #142a3b;
      }

      .cls-5 {
        fill: #fbb713;
      }

      .cls-6 {
        fill: #ff3a2f;
      }

      .cls-7 {
        fill: #000000;
        opacity: 0.35;
      }

      .cls-14 {
        fill: #ededed;
      }
    </style>
  </defs>
  <g id="group-158svg">
    <path d="M50.560,163.740 C50.560,163.740 35.913,163.740 35.913,163.740 C33.089,163.740 30.800,165.473 30.800,167.611 C30.800,169.747 33.089,171.480 35.913,171.480 C35.913,171.480 36.595,171.480 36.595,171.480 C39.419,171.480 41.708,173.213 41.708,175.349 C41.708,177.487 39.419,179.220 36.595,179.220 C36.595,179.220 5.108,179.220 5.108,179.220 C2.284,179.220 -0.005,180.953 -0.005,183.090 C-0.005,185.229 2.284,186.961 5.108,186.961 C5.108,186.961 42.947,186.961 42.947,186.961 C42.947,186.961 120.288,186.961 120.288,186.961 C123.113,186.961 125.403,185.229 125.403,183.090 C125.403,180.953 123.113,179.220 120.288,179.220 C120.288,179.220 111.550,179.220 111.550,179.220 C108.726,179.220 106.437,177.487 106.437,175.349 C106.437,173.213 108.726,171.480 111.550,171.480 C111.550,171.480 145.871,171.480 145.871,171.480 C148.696,171.480 150.985,169.747 150.985,167.611 C150.985,165.473 148.696,163.740 145.871,163.740 C145.871,163.740 143.310,163.740 143.310,163.740 C143.310,163.740 50.560,163.740 50.560,163.740 Z" id="path-1" class="cls-3" fill-rule="evenodd"/>
    <path d="M141.400,187.997 C139.032,187.997 137.113,186.141 137.113,183.848 C137.113,181.559 139.032,179.701 141.400,179.701 C141.400,179.701 154.537,179.701 154.537,179.701 C156.905,179.701 158.824,181.559 158.824,183.848 C158.824,186.141 156.905,187.997 154.537,187.997 C154.537,187.997 141.400,187.997 141.400,187.997 Z" id="path-2" class="cls-3" fill-rule="evenodd"/>
    <path d="M205.013,16.399 C205.013,16.399 186.608,16.399 186.608,16.399 C186.608,16.399 186.608,22.817 186.608,22.817 C186.608,27.265 182.963,30.871 178.468,30.871 C178.468,30.871 177.789,30.871 177.789,30.871 C173.293,30.871 169.649,27.265 169.649,22.817 C169.649,22.817 169.649,16.399 169.649,16.399 C169.649,16.399 144.975,16.399 144.975,16.399 C144.975,16.399 144.975,22.817 144.975,22.817 C144.975,27.265 141.331,30.871 136.835,30.871 C136.835,30.871 136.157,30.871 136.157,30.871 C131.660,30.871 128.016,27.265 128.016,22.817 C128.016,22.817 128.016,16.399 128.016,16.399 C128.016,16.399 100.964,16.399 100.964,16.399 C100.964,16.399 100.964,22.817 100.964,22.817 C100.964,27.265 97.319,30.871 92.823,30.871 C92.823,30.871 92.144,30.871 92.144,30.871 C87.648,30.871 84.005,27.265 84.005,22.817 C84.005,22.817 84.005,16.399 84.005,16.399 C84.005,16.399 67.979,16.399 67.979,16.399 C61.234,16.399 55.768,21.805 55.768,28.479 C55.768,28.479 55.768,154.575 55.768,154.575 C55.768,161.251 61.234,166.657 67.979,166.657 C67.979,166.657 205.013,166.657 205.013,166.657 C211.757,166.657 217.223,161.251 217.223,154.575 C217.223,154.575 217.223,28.479 217.223,28.479 C217.223,21.805 211.757,16.399 205.013,16.399 Z" id="path-3" class="cls-5" fill-rule="evenodd"/>
    <path d="M217.223,58.392 C217.223,58.392 217.223,28.479 217.223,28.479 C217.223,21.805 211.757,16.399 205.013,16.399 C205.013,16.399 186.608,16.399 186.608,16.399 C186.608,16.399 186.608,22.817 186.608,22.817 C186.608,27.265 182.963,30.871 178.468,30.871 C178.468,30.871 177.789,30.871 177.789,30.871 C173.293,30.871 169.649,27.265 169.649,22.817 C169.649,22.817 169.649,16.399 169.649,16.399 C169.649,16.399 144.975,16.399 144.975,16.399 C144.975,16.399 144.975,22.817 144.975,22.817 C144.975,27.265 141.331,30.871 136.835,30.871 C136.835,30.871 136.157,30.871 136.157,30.871 C131.660,30.871 128.016,27.265 128.016,22.817 C128.016,22.817 128.016,16.399 128.016,16.399 C128.016,16.399 100.964,16.399 100.964,16.399 C100.964,16.399 100.964,22.817 100.964,22.817 C100.964,27.265 97.319,30.871 92.823,30.871 C92.823,30.871 92.144,30.871 92.144,30.871 C87.648,30.871 84.005,27.265 84.005,22.817 C84.005,22.817 84.005,16.399 84.005,16.399 C84.005,16.399 67.979,16.399 67.979,16.399 C61.234,16.399 55.768,21.805 55.768,28.479 C55.768,28.479 55.768,58.392 55.768,58.392 C55.768,58.392 217.223,58.392 217.223,58.392 Z" id="path-4" class="cls-6" fill-rule="evenodd"/>
    <path d="M205.013,16.399 C205.013,16.399 197.200,16.399 197.200,16.399 C203.945,16.399 209.411,21.805 209.411,28.479 C209.411,28.479 209.411,154.575 209.411,154.575 C209.411,161.251 203.945,166.657 197.200,166.657 C197.200,166.657 205.013,166.657 205.013,166.657 C211.757,166.657 217.223,161.251 217.223,154.575 C217.223,154.575 217.223,28.479 217.223,28.479 C217.223,21.805 211.757,16.399 205.013,16.399 Z" id="path-5" class="cls-7" fill-rule="evenodd"/>
    <path d="M143.968,30.871 C143.968,30.871 144.648,30.871 144.648,30.871 C149.144,30.871 152.788,27.265 152.788,22.817 C152.788,22.817 152.788,16.399 152.788,16.399 C152.788,16.399 144.975,16.399 144.975,16.399 C144.975,16.399 144.975,22.817 144.975,22.817 C144.975,25.994 143.101,28.713 140.402,30.024 C141.483,30.549 142.683,30.871 143.968,30.871 Z" id="path-6" class="cls-7" fill-rule="evenodd"/>
    <path d="M185.601,30.871 C185.601,30.871 186.280,30.871 186.280,30.871 C190.776,30.871 194.421,27.265 194.421,22.817 C194.421,22.817 194.421,16.399 194.421,16.399 C194.421,16.399 186.608,16.399 186.608,16.399 C186.608,16.399 186.608,22.817 186.608,22.817 C186.608,25.994 184.734,28.713 182.034,30.024 C183.115,30.549 184.316,30.871 185.601,30.871 Z" id="path-7" class="cls-7" fill-rule="evenodd"/>
    <path d="M99.957,30.871 C99.957,30.871 100.636,30.871 100.636,30.871 C105.132,30.871 108.776,27.265 108.776,22.817 C108.776,22.817 108.776,16.399 108.776,16.399 C108.776,16.399 100.964,16.399 100.964,16.399 C100.964,16.399 100.964,22.817 100.964,22.817 C100.964,25.994 99.089,28.713 96.390,30.024 C97.471,30.549 98.671,30.871 99.957,30.871 Z" id="path-8" class="cls-7" fill-rule="evenodd"/>
    <path d="M92.823,-0.001 C92.823,-0.001 92.144,-0.001 92.144,-0.001 C87.648,-0.001 84.005,3.604 84.005,8.053 C84.005,8.053 84.005,16.399 84.005,16.399 C84.005,16.399 84.005,22.817 84.005,22.817 C84.005,27.265 87.648,30.871 92.144,30.871 C92.144,30.871 92.823,30.871 92.823,30.871 C97.319,30.871 100.964,27.265 100.964,22.817 C100.964,22.817 100.964,16.399 100.964,16.399 C100.964,16.399 100.964,8.053 100.964,8.053 C100.964,3.604 97.319,-0.001 92.823,-0.001 Z" id="path-9" class="cls-3" fill-rule="evenodd"/>
    <path d="M136.835,-0.001 C136.835,-0.001 136.157,-0.001 136.157,-0.001 C131.660,-0.001 128.016,3.604 128.016,8.053 C128.016,8.053 128.016,16.399 128.016,16.399 C128.016,16.399 128.016,22.817 128.016,22.817 C128.016,27.265 131.660,30.871 136.157,30.871 C136.157,30.871 136.835,30.871 136.835,30.871 C141.331,30.871 144.976,27.265 144.976,22.817 C144.976,22.817 144.976,16.399 144.976,16.399 C144.976,16.399 144.976,8.053 144.976,8.053 C144.976,3.604 141.331,-0.001 136.835,-0.001 Z" id="path-10" class="cls-3" fill-rule="evenodd"/>
    <path d="M178.468,-0.001 C178.468,-0.001 177.789,-0.001 177.789,-0.001 C173.293,-0.001 169.648,3.604 169.648,8.053 C169.648,8.053 169.648,16.399 169.648,16.399 C169.648,16.399 169.648,22.817 169.648,22.817 C169.648,27.265 173.293,30.871 177.789,30.871 C177.789,30.871 178.468,30.871 178.468,30.871 C182.963,30.871 186.608,27.265 186.608,22.817 C186.608,22.817 186.608,16.399 186.608,16.399 C186.608,16.399 186.608,8.053 186.608,8.053 C186.608,3.604 182.963,-0.001 178.468,-0.001 Z" id="path-11" class="cls-3" fill-rule="evenodd"/>
    <path d="M101.479,88.698 C101.479,93.773 97.321,97.887 92.194,97.887 C87.066,97.887 82.908,93.773 82.908,88.698 C82.908,83.628 87.066,79.513 92.194,79.513 C97.321,79.513 101.479,83.628 101.479,88.698 Z" id="path-12" class="cls-14" fill-rule="evenodd"/>
    <path d="M145.780,87.826 C145.780,92.900 141.624,97.014 136.496,97.014 C131.368,97.014 127.210,92.900 127.210,87.826 C127.210,82.753 131.368,78.642 136.496,78.642 C141.624,78.642 145.780,82.753 145.780,87.826 Z" id="path-13" class="cls-14" fill-rule="evenodd"/>
    <path d="M190.085,89.569 C190.085,94.642 185.927,98.758 180.800,98.758 C175.671,98.758 171.514,94.642 171.514,89.569 C171.514,84.495 175.671,80.383 180.800,80.383 C185.927,80.383 190.085,84.495 190.085,89.569 Z" id="path-14" class="cls-14" fill-rule="evenodd"/>
    <path d="M101.478,128.644 C101.478,133.717 97.319,137.830 92.191,137.830 C87.065,137.830 82.906,133.717 82.906,128.644 C82.906,123.570 87.065,119.456 92.191,119.456 C97.319,119.456 101.478,123.570 101.478,128.644 Z" id="path-15" class="cls-14" fill-rule="evenodd"/>
    <path d="M145.779,127.772 C145.779,132.846 141.621,136.957 136.493,136.957 C131.367,136.957 127.209,132.846 127.209,127.772 C127.209,122.698 131.367,118.584 136.493,118.584 C141.621,118.584 145.779,122.698 145.779,127.772 Z" id="path-16" class="cls-14" fill-rule="evenodd"/>
    <path d="M190.084,129.515 C190.084,134.587 185.926,138.699 180.798,138.699 C175.669,138.699 171.513,134.587 171.513,129.515 C171.513,124.440 175.669,120.326 180.798,120.326 C185.926,120.326 190.084,124.440 190.084,129.515 Z" id="path-17" class="cls-14" fill-rule="evenodd"/>
    <path d="M99.948,83.664 C100.910,85.113 101.479,86.839 101.479,88.698 C101.479,93.773 97.321,97.887 92.194,97.887 C90.287,97.887 88.518,97.315 87.044,96.339 C88.703,98.836 91.552,100.491 94.798,100.491 C99.925,100.491 104.083,96.376 104.083,91.303 C104.083,88.117 102.440,85.313 99.948,83.664 Z" id="path-18" class="cls-7" fill-rule="evenodd"/>
    <path d="M144.251,82.791 C145.212,84.238 145.780,85.965 145.780,87.826 C145.780,92.900 141.624,97.014 136.496,97.014 C134.589,97.014 132.819,96.442 131.346,95.467 C133.006,97.964 135.854,99.618 139.100,99.618 C144.228,99.618 148.385,95.504 148.385,90.430 C148.385,87.243 146.742,84.439 144.251,82.791 Z" id="path-19" class="cls-7" fill-rule="evenodd"/>
    <path d="M188.555,84.535 C189.517,85.980 190.085,87.708 190.085,89.569 C190.085,94.642 185.927,98.758 180.800,98.758 C178.893,98.758 177.123,98.185 175.648,97.209 C177.309,99.706 180.157,101.360 183.404,101.360 C188.531,101.360 192.689,97.246 192.689,92.172 C192.689,88.985 191.046,86.181 188.555,84.535 Z" id="path-20" class="cls-7" fill-rule="evenodd"/>
    <path d="M99.946,123.607 C100.909,125.055 101.478,126.782 101.478,128.644 C101.478,133.717 97.319,137.830 92.192,137.830 C90.285,137.830 88.516,137.257 87.041,136.283 C88.701,138.780 91.550,140.433 94.796,140.433 C99.923,140.433 104.082,136.321 104.082,131.248 C104.082,128.061 102.438,125.255 99.946,123.607 Z" id="path-21" class="cls-7" fill-rule="evenodd"/>
    <path d="M144.248,122.736 C145.210,124.183 145.779,125.910 145.779,127.772 C145.779,132.846 141.621,136.957 136.493,136.957 C134.587,136.957 132.817,136.386 131.343,135.410 C133.003,137.908 135.851,139.561 139.097,139.561 C144.225,139.561 148.383,135.449 148.383,130.376 C148.383,127.188 146.740,124.383 144.248,122.736 Z" id="path-22" class="cls-7" fill-rule="evenodd"/>
    <path d="M188.552,124.478 C189.515,125.926 190.084,127.652 190.084,129.515 C190.084,134.587 185.926,138.699 180.798,138.699 C178.891,138.699 177.121,138.127 175.647,137.153 C177.307,139.650 180.155,141.303 183.402,141.303 C188.530,141.303 192.688,137.191 192.688,132.119 C192.688,128.931 191.044,126.125 188.552,124.478 Z" id="path-23" class="cls-7" fill-rule="evenodd"/>
  </g>
</svg>
