<svg xmlns="http://www.w3.org/2000/svg" xmlns:xlink="http://www.w3.org/1999/xlink" preserveAspectRatio="xMidYMid" width="218" height="127" viewBox="0 0 218 127">
  <defs>
    <style>

      .cls-3 {
        fill: #ff3a2f;
      }

      .cls-7 {
        fill: #142a3b;
      }

      .cls-9 {
        fill: #090908;
        opacity: 0.35;
      }

      .cls-11 {
        fill: #fbb713;
      }

      .cls-12 {
        fill: #090908;
        opacity: 0.25;
      }
    </style>
  </defs>
  <g id="group-17svg">
    <path d="M162.393,123.958 C162.393,123.958 174.257,123.958 174.257,123.958 C176.544,123.958 178.398,122.437 178.398,120.563 C178.398,118.689 176.544,117.169 174.257,117.169 C174.257,117.169 173.705,117.169 173.705,117.169 C171.417,117.169 169.563,115.650 169.563,113.775 C169.563,111.901 171.417,110.383 173.705,110.383 C173.705,110.383 199.207,110.383 199.207,110.383 C201.495,110.383 203.349,108.862 203.349,106.987 C203.349,105.113 201.495,103.593 199.207,103.593 C199.207,103.593 168.560,103.593 168.560,103.593 C168.560,103.593 105.916,103.593 105.916,103.593 C103.628,103.593 101.774,105.113 101.774,106.987 C101.774,108.862 103.628,110.383 105.916,110.383 C105.916,110.383 112.993,110.383 112.993,110.383 C115.281,110.383 117.136,111.901 117.136,113.775 C117.136,115.650 115.281,117.169 112.993,117.169 C112.993,117.169 79.308,117.169 79.308,117.169 C77.021,117.169 75.167,118.689 75.167,120.563 C75.167,122.437 77.021,123.958 79.308,123.958 C79.308,123.958 87.270,123.958 87.270,123.958 C87.270,123.958 162.393,123.958 162.393,123.958 Z" id="path-1" class="cls-3" fill-rule="evenodd"/>
    <path d="M94.416,84.390 C94.416,84.390 100.686,84.390 100.686,84.390 C101.895,84.390 102.875,83.643 102.875,82.722 C102.875,81.802 101.895,81.056 100.686,81.056 C100.686,81.056 100.394,81.056 100.394,81.056 C99.185,81.056 98.205,80.310 98.205,79.389 C98.205,78.469 99.185,77.723 100.394,77.723 C100.394,77.723 113.872,77.723 113.872,77.723 C115.082,77.723 116.061,76.977 116.061,76.057 C116.061,75.136 115.082,74.390 113.872,74.390 C113.872,74.390 97.674,74.390 97.674,74.390 C97.674,74.390 64.566,74.390 64.566,74.390 C63.357,74.390 62.377,75.136 62.377,76.057 C62.377,76.977 63.357,77.723 64.566,77.723 C64.566,77.723 68.307,77.723 68.307,77.723 C69.516,77.723 70.496,78.469 70.496,79.389 C70.496,80.310 69.516,81.056 68.307,81.056 C68.307,81.056 50.504,81.056 50.504,81.056 C49.295,81.056 48.315,81.802 48.315,82.722 C48.315,83.643 49.295,84.390 50.504,84.390 C50.504,84.390 54.712,84.390 54.712,84.390 C54.712,84.390 94.416,84.390 94.416,84.390 Z" id="path-2" class="cls-3" fill-rule="evenodd"/>
    <path d="M84.689,103.358 C87.265,103.358 89.353,105.033 89.353,107.099 C89.353,109.164 87.265,110.840 84.689,110.840 C84.689,110.840 70.397,110.840 70.397,110.840 C67.821,110.840 65.733,109.164 65.733,107.099 C65.733,105.033 67.821,103.358 70.397,103.358 C70.397,103.358 84.689,103.358 84.689,103.358 Z" id="path-3" class="cls-3" fill-rule="evenodd"/>
    <path d="M212.374,118.253 C215.055,118.253 217.227,119.996 217.227,122.145 C217.227,124.294 215.055,126.037 212.374,126.037 C212.374,126.037 197.505,126.037 197.505,126.037 C194.825,126.037 192.653,124.294 192.653,122.145 C192.653,119.996 194.825,118.253 197.505,118.253 C197.505,118.253 212.374,118.253 212.374,118.253 Z" id="path-4" class="cls-3" fill-rule="evenodd"/>
    <path d="M152.217,117.437 C152.217,117.437 143.113,117.437 143.113,117.437 C143.113,117.437 143.113,48.248 143.113,48.248 C143.113,48.248 152.217,48.248 152.217,48.248 C152.217,48.248 152.217,117.437 152.217,117.437 Z" id="path-5" class="cls-7" fill-rule="evenodd"/>
    <path d="M42.286,117.437 C42.286,117.437 33.182,117.437 33.182,117.437 C33.182,117.437 33.182,48.248 33.182,48.248 C33.182,48.248 42.286,48.248 42.286,48.248 C42.286,48.248 42.286,117.437 42.286,117.437 Z" id="path-6" class="cls-7" fill-rule="evenodd"/>
    <path d="M143.113,64.917 C143.113,64.917 152.217,64.917 152.217,64.917 C152.217,64.917 152.217,54.079 152.217,54.079 C152.217,54.079 143.113,54.079 143.113,54.079 C143.113,54.079 143.113,64.917 143.113,64.917 Z" id="path-7" class="cls-9" fill-rule="evenodd"/>
    <path d="M33.182,64.917 C33.182,64.917 42.286,64.917 42.286,64.917 C42.286,64.917 42.286,54.079 42.286,54.079 C42.286,54.079 33.182,54.079 33.182,54.079 C33.182,54.079 33.182,64.917 33.182,64.917 Z" id="path-8" class="cls-9" fill-rule="evenodd"/>
    <path d="M179.255,54.079 C179.255,54.079 -0.001,54.079 -0.001,54.079 C-0.001,54.079 -0.001,0.006 -0.001,0.006 C-0.001,0.006 179.255,0.006 179.255,0.006 C179.255,0.006 179.255,54.079 179.255,54.079 Z" id="path-9" class="cls-11" fill-rule="evenodd"/>
    <path d="M159.699,0.006 C159.699,0.006 159.699,19.778 159.699,19.778 C159.699,31.521 150.179,41.042 138.435,41.042 C138.435,41.042 -0.001,41.042 -0.001,41.042 C-0.001,41.042 -0.001,54.078 -0.001,54.078 C-0.001,54.078 179.255,54.078 179.255,54.078 C179.255,54.078 179.255,0.006 179.255,0.006 C179.255,0.006 159.699,0.006 159.699,0.006 Z" id="path-10" class="cls-12" fill-rule="evenodd"/>
    <path d="M166.328,117.437 C166.328,117.437 129.001,117.437 129.001,117.437 C129.001,117.437 129.001,111.974 129.001,111.974 C129.001,111.974 166.328,111.974 166.328,111.974 C166.328,111.974 166.328,117.437 166.328,117.437 Z" id="path-11" class="cls-7" fill-rule="evenodd"/>
    <path d="M57.080,117.437 C57.080,117.437 19.753,117.437 19.753,117.437 C19.753,117.437 19.753,111.974 19.753,111.974 C19.753,111.974 57.080,111.974 57.080,111.974 C57.080,111.974 57.080,117.437 57.080,117.437 Z" id="path-12" class="cls-7" fill-rule="evenodd"/>
    <path d="M-0.001,48.787 C-0.001,48.787 -0.001,54.079 -0.001,54.079 C-0.001,54.079 13.198,54.079 13.198,54.079 C13.198,54.079 64.038,0.006 64.038,0.006 C64.038,0.006 45.864,0.006 45.864,0.006 C45.864,0.006 -0.001,48.787 -0.001,48.787 Z" id="path-13" class="cls-7" fill-rule="evenodd"/>
    <path d="M47.992,54.079 C47.992,54.079 67.323,54.079 67.323,54.079 C67.323,54.079 117.101,0.006 117.101,0.006 C117.101,0.006 102.066,0.006 102.066,0.006 C102.066,0.006 47.992,54.079 47.992,54.079 Z" id="path-14" class="cls-7" fill-rule="evenodd"/>
    <path d="M106.864,54.079 C106.864,54.079 126.195,54.079 126.195,54.079 C126.195,54.079 175.973,0.006 175.973,0.006 C175.973,0.006 160.939,0.006 160.939,0.006 C160.939,0.006 106.864,54.079 106.864,54.079 Z" id="path-15" class="cls-7" fill-rule="evenodd"/>
  </g>
</svg>
