<svg xmlns="http://www.w3.org/2000/svg" xmlns:xlink="http://www.w3.org/1999/xlink" preserveAspectRatio="xMidYMid" width="218" height="211" viewBox="0 0 218 211">
  <defs>
    <style>

      .cls-3 {
        fill: #142a3b;
      }

      .cls-4 {
        fill: #fbb713;
      }

      .cls-5 {
        fill: #020403;
        opacity: 0.3;
      }

      .cls-8 {
        fill: #ededed;
      }

      .cls-22 {
        fill: #2476ff;
      }
    </style>
  </defs>
  <g id="group-2svg">
    <path d="M142.053,184.242 C142.053,184.242 27.670,184.242 27.670,184.242 C27.670,184.242 64.522,30.330 64.522,30.330 C68.802,23.456 76.401,19.028 84.856,19.028 C84.856,19.028 84.867,19.028 84.867,19.028 C93.371,19.028 101.007,23.510 105.272,30.453 C105.272,30.453 142.053,184.242 142.053,184.242 Z" id="path-1" class="cls-3" fill-rule="evenodd"/>
    <path d="M142.053,184.242 C142.053,184.242 27.670,184.242 27.670,184.242 C27.670,184.242 34.386,156.197 34.386,156.197 C34.386,156.197 135.228,156.197 135.228,156.197 C135.228,156.197 142.053,184.242 142.053,184.242 Z" id="path-2" class="cls-4" fill-rule="evenodd"/>
    <path d="M105.272,30.453 C101.006,23.510 93.371,19.028 84.867,19.028 C84.867,19.028 84.857,19.028 84.857,19.028 C84.857,19.028 112.079,132.845 112.079,132.845 C116.023,149.335 103.521,165.179 86.565,165.179 C86.565,165.179 32.234,165.179 32.234,165.179 C32.234,165.179 27.670,184.242 27.670,184.242 C27.670,184.242 142.053,184.242 142.053,184.242 C142.053,184.242 105.272,30.453 105.272,30.453 Z" id="path-3" class="cls-5" fill-rule="evenodd"/>
    <path d="M105.268,81.804 C101.086,78.383 94.992,78.687 91.171,82.507 C91.171,82.507 91.151,82.528 91.151,82.528 C87.331,86.348 87.026,92.442 90.448,96.623 C90.448,96.623 117.503,129.688 117.503,129.688 C121.443,134.504 128.679,134.865 133.079,130.466 C133.079,130.466 139.111,124.433 139.111,124.433 C143.511,120.033 143.150,112.798 138.335,108.858 C138.335,108.858 105.268,81.804 105.268,81.804 Z" id="path-4" class="cls-5" fill-rule="evenodd"/>
    <path d="M78.723,82.507 C74.902,78.687 68.808,78.383 64.626,81.804 C64.626,81.804 31.560,108.858 31.560,108.858 C26.744,112.798 26.383,120.033 30.783,124.433 C30.783,124.433 36.815,130.466 36.815,130.466 C41.214,134.865 48.452,134.504 52.391,129.688 C52.391,129.688 79.446,96.623 79.446,96.623 C82.868,92.442 82.563,86.348 78.743,82.528 C78.743,82.528 78.723,82.507 78.723,82.507 Z" id="path-5" class="cls-5" fill-rule="evenodd"/>
    <path d="M78.124,63.569 C77.198,63.569 76.271,63.215 75.565,62.509 C75.565,62.509 66.641,53.585 66.641,53.585 C65.227,52.172 65.227,49.880 66.641,48.467 C68.055,47.052 70.346,47.052 71.760,48.467 C71.760,48.467 80.684,57.389 80.684,57.389 C82.098,58.804 82.098,61.095 80.684,62.509 C79.977,63.215 79.051,63.569 78.124,63.569 Z" id="path-6" class="cls-8" fill-rule="evenodd"/>
    <path d="M100.694,86.137 C99.768,86.137 98.841,85.784 98.134,85.076 C98.134,85.076 89.039,75.983 89.039,75.983 C87.624,74.571 87.624,72.277 89.039,70.863 C90.453,69.449 92.744,69.449 94.159,70.863 C94.159,70.863 103.254,79.956 103.254,79.956 C104.668,81.369 104.668,83.662 103.254,85.076 C102.547,85.784 101.620,86.137 100.694,86.137 Z" id="path-7" class="cls-8" fill-rule="evenodd"/>
    <path d="M91.597,63.571 C90.671,63.571 89.744,63.218 89.038,62.511 C87.623,61.096 87.623,58.806 89.038,57.391 C89.038,57.391 98.055,48.374 98.055,48.374 C99.469,46.959 101.760,46.959 103.175,48.374 C104.588,49.789 104.588,52.080 103.175,53.493 C103.175,53.493 94.157,62.511 94.157,62.511 C93.450,63.218 92.523,63.571 91.597,63.571 Z" id="path-8" class="cls-8" fill-rule="evenodd"/>
    <path d="M69.096,86.072 C68.170,86.072 67.244,85.718 66.536,85.010 C65.122,83.598 65.122,81.306 66.536,79.891 C66.536,79.891 75.565,70.862 75.565,70.862 C76.979,69.447 79.270,69.447 80.684,70.862 C82.098,72.274 82.098,74.567 80.684,75.981 C80.684,75.981 71.656,85.010 71.656,85.010 C70.949,85.718 70.022,86.072 69.096,86.072 Z" id="path-9" class="cls-8" fill-rule="evenodd"/>
    <path d="M94.393,66.686 C94.393,71.950 90.126,76.217 84.861,76.217 C79.597,76.217 75.330,71.950 75.330,66.686 C75.330,61.422 79.597,57.154 84.861,57.154 C90.126,57.154 94.393,61.422 94.393,66.686 Z" id="path-10" class="cls-4" fill-rule="evenodd"/>
    <path d="M42.859,3.854 C38.919,-0.961 31.683,-1.322 27.283,3.078 C27.283,3.078 21.251,9.109 21.251,9.109 C16.851,13.510 17.212,20.746 22.028,24.685 C22.028,24.685 55.094,51.739 55.094,51.739 C59.276,55.160 65.370,54.856 69.190,51.036 C69.190,51.036 69.211,51.015 69.211,51.015 C73.031,47.195 73.335,41.101 69.914,36.919 C69.914,36.919 42.859,3.854 42.859,3.854 Z" id="path-11" class="cls-4" fill-rule="evenodd"/>
    <path d="M21.251,15.464 C21.251,15.464 27.283,9.432 27.283,9.432 C31.683,5.032 38.920,5.393 42.859,10.208 C42.859,10.208 69.914,43.275 69.914,43.275 C70.766,44.315 71.385,45.476 71.779,46.690 C72.793,43.415 72.220,39.737 69.914,36.919 C69.914,36.919 42.859,3.854 42.859,3.854 C38.920,-0.962 31.683,-1.322 27.283,3.078 C27.283,3.078 21.251,9.109 21.251,9.109 C18.356,12.004 17.564,16.115 18.704,19.719 C19.195,18.169 20.014,16.700 21.251,15.464 Z" id="path-12" class="cls-5" fill-rule="evenodd"/>
    <path d="M100.704,51.036 C104.524,54.856 110.618,55.160 114.799,51.739 C114.799,51.739 147.866,24.685 147.866,24.685 C152.682,20.746 153.043,13.510 148.643,9.109 C148.643,9.109 142.611,3.078 142.611,3.078 C138.211,-1.322 130.975,-0.961 127.035,3.854 C127.035,3.854 99.980,36.919 99.980,36.919 C96.559,41.101 96.863,47.195 100.683,51.015 C100.683,51.015 100.704,51.036 100.704,51.036 Z" id="path-13" class="cls-4" fill-rule="evenodd"/>
    <path d="M148.644,9.109 C148.644,9.109 142.611,3.078 142.611,3.078 C140.171,0.637 136.866,-0.285 133.728,0.150 C135.809,0.495 137.815,1.458 139.434,3.078 C139.434,3.078 145.466,9.109 145.466,9.109 C149.865,13.510 149.504,20.746 144.689,24.685 C144.689,24.685 111.622,51.739 111.622,51.739 C110.135,52.956 108.402,53.679 106.618,53.962 C109.454,54.377 112.431,53.677 114.799,51.739 C114.799,51.739 147.866,24.685 147.866,24.685 C152.682,20.746 153.043,13.510 148.644,9.109 Z" id="path-14" class="cls-5" fill-rule="evenodd"/>
    <path d="M69.190,82.507 C65.370,78.687 59.276,78.383 55.094,81.804 C55.094,81.804 22.028,108.858 22.028,108.858 C17.212,112.798 16.851,120.033 21.251,124.433 C21.251,124.433 27.283,130.466 27.283,130.466 C31.683,134.865 38.919,134.504 42.859,129.688 C42.859,129.688 69.914,96.623 69.914,96.623 C73.335,92.442 73.031,86.348 69.211,82.528 C69.211,82.528 69.190,82.507 69.190,82.507 Z" id="path-15" class="cls-4" fill-rule="evenodd"/>
    <path d="M69.211,82.528 C69.211,82.528 69.190,82.508 69.190,82.508 C66.321,79.638 62.171,78.753 58.509,79.940 C60.094,80.430 61.590,81.262 62.836,82.508 C62.836,82.508 62.856,82.528 62.856,82.528 C66.677,86.348 66.981,92.442 63.559,96.624 C63.559,96.624 36.505,129.689 36.505,129.689 C35.157,131.336 33.412,132.420 31.538,133.013 C35.499,134.269 40.026,133.149 42.859,129.689 C42.859,129.689 69.914,96.624 69.914,96.624 C73.335,92.442 73.031,86.348 69.211,82.528 Z" id="path-16" class="cls-5" fill-rule="evenodd"/>
    <path d="M114.799,81.804 C110.618,78.383 104.524,78.687 100.704,82.507 C100.704,82.507 100.683,82.528 100.683,82.528 C96.863,86.348 96.559,92.442 99.980,96.623 C99.980,96.623 127.035,129.688 127.035,129.688 C130.975,134.504 138.211,134.865 142.611,130.466 C142.611,130.466 148.643,124.433 148.643,124.433 C153.043,120.033 152.682,112.798 147.866,108.858 C147.866,108.858 114.799,81.804 114.799,81.804 Z" id="path-17" class="cls-4" fill-rule="evenodd"/>
    <path d="M147.866,108.857 C147.866,108.857 114.799,81.805 114.799,81.805 C110.618,78.383 104.524,78.686 100.704,82.508 C100.704,82.508 100.683,82.528 100.683,82.528 C100.141,83.069 99.688,83.668 99.288,84.289 C103.048,81.873 108.035,82.046 111.622,84.981 C111.622,84.981 144.689,112.034 144.689,112.034 C149.504,115.975 149.865,123.211 145.466,127.611 C145.466,127.611 148.644,124.433 148.644,124.433 C153.043,120.033 152.682,112.798 147.866,108.857 Z" id="path-18" class="cls-5" fill-rule="evenodd"/>
    <path d="M164.294,189.673 C164.294,189.673 5.429,189.673 5.429,189.673 C2.428,189.673 -0.002,187.241 -0.002,184.242 C-0.002,181.242 2.428,178.811 5.429,178.811 C5.429,178.811 164.294,178.811 164.294,178.811 C167.295,178.811 169.725,181.242 169.725,184.242 C169.725,187.241 167.295,189.673 164.294,189.673 Z" id="path-19" class="cls-3" fill-rule="evenodd"/>
    <path d="M179.494,101.782 C182.695,101.782 185.289,100.617 185.289,99.180 C185.289,97.743 182.695,96.578 179.494,96.578 C179.494,96.578 161.738,96.578 161.738,96.578 C158.537,96.578 155.943,97.743 155.943,99.180 C155.943,100.617 158.537,101.782 161.738,101.782 C161.738,101.782 179.494,101.782 179.494,101.782 Z" id="path-20" class="cls-22" fill-rule="evenodd"/>
    <path d="M177.311,72.134 C177.311,72.134 183.986,72.134 183.986,72.134 C185.273,72.134 186.316,72.712 186.316,73.426 C186.316,74.140 185.273,74.719 183.986,74.719 C183.986,74.719 183.676,74.719 183.676,74.719 C182.388,74.719 181.345,75.297 181.345,76.012 C181.345,76.725 182.388,77.304 183.676,77.304 C183.676,77.304 198.025,77.304 198.025,77.304 C199.312,77.304 200.355,77.883 200.355,78.596 C200.355,79.311 199.312,79.889 198.025,79.889 C198.025,79.889 180.780,79.889 180.780,79.889 C180.780,79.889 145.534,79.889 145.534,79.889 C144.247,79.889 143.204,79.311 143.204,78.596 C143.204,77.883 144.247,77.304 145.534,77.304 C145.534,77.304 149.516,77.304 149.516,77.304 C150.803,77.304 151.846,76.725 151.846,76.012 C151.846,75.297 150.803,74.719 149.516,74.719 C149.516,74.719 130.563,74.719 130.563,74.719 C129.276,74.719 128.233,74.140 128.233,73.426 C128.233,72.712 129.276,72.134 130.563,72.134 C130.563,72.134 135.042,72.134 135.042,72.134 C135.042,72.134 177.311,72.134 177.311,72.134 Z" id="path-21" class="cls-22" fill-rule="evenodd"/>
    <path d="M87.153,186.551 C87.153,186.551 70.778,186.551 70.778,186.551 C67.620,186.551 65.061,188.209 65.061,190.254 C65.061,192.298 67.620,193.956 70.778,193.956 C70.778,193.956 71.540,193.956 71.540,193.956 C74.697,193.956 77.257,195.613 77.257,197.658 C77.257,199.703 74.697,201.360 71.540,201.360 C71.540,201.360 45.222,201.360 45.222,201.360 C42.065,201.360 39.505,203.018 39.505,205.063 C39.505,207.108 42.065,208.765 45.222,208.765 C45.222,208.765 78.642,208.765 78.642,208.765 C78.642,208.765 165.113,208.765 165.113,208.765 C168.270,208.765 170.830,207.108 170.830,205.063 C170.830,203.018 168.270,201.360 165.113,201.360 C165.113,201.360 155.343,201.360 155.343,201.360 C152.186,201.360 149.626,199.703 149.626,197.658 C149.626,195.613 152.186,193.956 155.343,193.956 C155.343,193.956 193.716,193.956 193.716,193.956 C196.873,193.956 199.433,192.298 199.433,190.254 C199.433,188.209 196.873,186.551 193.716,186.551 C193.716,186.551 190.852,186.551 190.852,186.551 C190.852,186.551 87.153,186.551 87.153,186.551 Z" id="path-22" class="cls-22" fill-rule="evenodd"/>
    <path d="M197.746,209.756 C195.099,209.756 192.953,207.980 192.953,205.788 C192.953,203.598 195.099,201.821 197.746,201.821 C197.746,201.821 212.433,201.821 212.433,201.821 C215.081,201.821 217.227,203.598 217.227,205.788 C217.227,207.980 215.081,209.756 212.433,209.756 C212.433,209.756 197.746,209.756 197.746,209.756 Z" id="path-23" class="cls-22" fill-rule="evenodd"/>
  </g>
</svg>
