<svg xmlns="http://www.w3.org/2000/svg" xmlns:xlink="http://www.w3.org/1999/xlink" preserveAspectRatio="xMidYMid" width="218" height="131" viewBox="0 0 218 131">
  <defs>
    <style>

      .cls-3 {
        fill: #ff3a2f;
      }

      .cls-7 {
        fill: #060606;
        opacity: 0.35;
      }

      .cls-8 {
        fill: #142a3b;
      }

      .cls-11 {
        fill: #fbb713;
      }

      .cls-13 {
        fill: #ededed;
      }
    </style>
  </defs>
  <g id="group-32svg">
    <path d="M66.435,128.597 C66.435,128.597 75.470,128.597 75.470,128.597 C77.212,128.597 78.625,127.439 78.625,126.012 C78.625,124.584 77.212,123.427 75.470,123.427 C75.470,123.427 75.049,123.427 75.049,123.427 C73.307,123.427 71.895,122.269 71.895,120.841 C71.895,119.415 73.307,118.256 75.049,118.256 C75.049,118.256 94.474,118.256 94.474,118.256 C96.216,118.256 97.628,117.098 97.628,115.671 C97.628,114.244 96.216,113.086 94.474,113.086 C94.474,113.086 71.130,113.086 71.130,113.086 C71.130,113.086 23.418,113.086 23.418,113.086 C21.676,113.086 20.264,114.244 20.264,115.671 C20.264,117.098 21.676,118.256 23.418,118.256 C23.418,118.256 28.809,118.256 28.809,118.256 C30.551,118.256 31.963,119.415 31.963,120.841 C31.963,122.269 30.551,123.427 28.809,123.427 C28.809,123.427 3.153,123.427 3.153,123.427 C1.410,123.427 -0.001,124.584 -0.001,126.012 C-0.001,127.439 1.410,128.597 3.153,128.597 C3.153,128.597 9.217,128.597 9.217,128.597 C9.217,128.597 66.435,128.597 66.435,128.597 Z" id="path-1" class="cls-3" fill-rule="evenodd"/>
    <path d="M162.099,130.957 C162.099,130.957 166.874,130.957 166.874,130.957 C167.795,130.957 168.542,130.388 168.542,129.687 C168.542,128.986 167.795,128.418 166.874,128.418 C166.874,128.418 166.652,128.418 166.652,128.418 C165.731,128.418 164.985,127.850 164.985,127.149 C164.985,126.447 165.731,125.880 166.652,125.880 C166.652,125.880 176.918,125.880 176.918,125.880 C177.839,125.880 178.585,125.312 178.585,124.610 C178.585,123.910 177.839,123.341 176.918,123.341 C176.918,123.341 164.581,123.341 164.581,123.341 C164.581,123.341 139.365,123.341 139.365,123.341 C138.444,123.341 137.697,123.910 137.697,124.610 C137.697,125.312 138.444,125.880 139.365,125.880 C139.365,125.880 142.213,125.880 142.213,125.880 C143.134,125.880 143.880,126.447 143.880,127.149 C143.880,127.850 143.134,128.418 142.213,128.418 C142.213,128.418 128.654,128.418 128.654,128.418 C127.732,128.418 126.986,128.986 126.986,129.687 C126.986,130.388 127.732,130.957 128.654,130.957 C128.654,130.957 131.858,130.957 131.858,130.957 C131.858,130.957 162.099,130.957 162.099,130.957 Z" id="path-2" class="cls-3" fill-rule="evenodd"/>
    <path d="M109.346,125.748 C111.308,125.748 112.899,127.023 112.899,128.597 C112.899,130.170 111.308,131.445 109.346,131.445 C109.346,131.445 98.460,131.445 98.460,131.445 C96.499,131.445 94.908,130.170 94.908,128.597 C94.908,127.023 96.499,125.748 98.460,125.748 C98.460,125.748 109.346,125.748 109.346,125.748 Z" id="path-3" class="cls-3" fill-rule="evenodd"/>
    <path d="M201.659,92.251 C201.748,90.708 201.803,89.147 201.803,87.560 C201.803,64.506 192.106,29.636 180.144,29.636 C178.848,29.636 176.351,29.636 176.351,29.636 C176.351,29.636 77.913,30.118 77.913,30.118 C67.433,33.038 59.372,66.552 59.372,87.560 C59.372,89.149 59.433,90.707 59.522,92.251 C59.522,92.251 201.659,92.251 201.659,92.251 Z" id="path-4" class="cls-3" fill-rule="evenodd"/>
    <path d="M180.144,29.636 C179.564,29.636 178.749,29.636 178.019,29.636 C178.124,29.896 178.216,30.188 178.319,30.452 C178.319,30.452 85.868,30.452 85.868,30.452 C85.868,30.452 85.868,38.811 85.868,38.811 C85.868,38.811 181.124,38.811 181.124,38.811 C184.196,49.482 186.051,61.758 186.051,71.808 C186.051,71.824 186.051,71.839 186.051,71.855 C186.049,74.467 183.947,76.596 181.338,76.727 C181.338,76.727 59.991,82.800 59.991,82.800 C59.589,86.693 59.372,84.143 59.372,87.560 C59.372,89.149 59.433,90.707 59.522,92.251 C59.522,92.251 201.659,92.251 201.659,92.251 C201.748,90.708 201.803,89.147 201.803,87.560 C201.803,64.506 192.106,29.636 180.144,29.636 Z" id="path-5" class="cls-7" fill-rule="evenodd"/>
    <path d="M178.459,32.511 C178.459,32.511 82.718,32.511 82.718,32.511 C82.718,32.511 82.718,0.004 82.718,0.004 C82.718,0.004 178.459,0.004 178.459,0.004 C178.459,0.004 178.459,32.511 178.459,32.511 Z" id="path-6" class="cls-8" fill-rule="evenodd"/>
    <path d="M217.227,118.473 C217.227,118.473 43.949,118.473 43.949,118.473 C43.949,118.473 43.949,85.436 43.949,85.436 C43.949,85.436 217.227,85.436 217.227,85.436 C217.227,85.436 217.227,118.473 217.227,118.473 Z" id="path-7" class="cls-8" fill-rule="evenodd"/>
    <path d="M201.474,85.436 C201.474,85.436 201.474,92.347 201.474,92.347 C201.474,99.902 195.510,106.109 187.961,106.411 C187.961,106.411 43.949,112.172 43.949,112.172 C43.949,112.172 43.949,118.473 43.949,118.473 C43.949,118.473 217.227,118.473 217.227,118.473 C217.227,118.473 217.227,85.436 217.227,85.436 C217.227,85.436 201.474,85.436 201.474,85.436 Z" id="path-8" class="cls-7" fill-rule="evenodd"/>
    <path d="M170.789,26.520 C170.789,26.520 90.387,26.520 90.387,26.520 C90.387,26.520 90.387,5.995 90.387,5.995 C90.387,5.995 170.789,5.995 170.789,5.995 C170.789,5.995 170.789,26.520 170.789,26.520 Z" id="path-9" class="cls-11" fill-rule="evenodd"/>
    <path d="M170.789,5.995 C170.789,5.995 90.387,5.995 90.387,5.995 C90.387,5.995 90.387,7.924 90.387,7.924 C90.387,7.924 90.387,10.599 90.387,10.599 C90.387,10.599 90.387,26.640 90.387,26.640 C90.387,26.640 94.990,26.640 94.990,26.640 C94.990,26.640 94.990,10.599 94.990,10.599 C94.990,10.599 170.789,10.599 170.789,10.599 C170.789,10.599 170.789,5.995 170.789,5.995 Z" id="path-10" class="cls-7" fill-rule="evenodd"/>
    <path d="M177.635,75.882 C177.635,75.882 163.942,75.882 163.942,75.882 C163.942,75.882 163.942,46.004 163.942,46.004 C163.942,46.004 177.635,46.004 177.635,46.004 C177.635,46.004 177.635,75.882 177.635,75.882 Z" id="path-11" class="cls-13" fill-rule="evenodd"/>
    <path d="M156.428,75.882 C156.428,75.882 136.202,75.882 136.202,75.882 C136.202,75.882 136.202,64.713 136.202,64.713 C136.202,64.713 156.428,64.713 156.428,64.713 C156.428,64.713 156.428,75.882 156.428,75.882 Z" id="path-12" class="cls-13" fill-rule="evenodd"/>
    <path d="M130.098,75.882 C130.098,75.882 109.871,75.882 109.871,75.882 C109.871,75.882 109.871,64.713 109.871,64.713 C109.871,64.713 130.098,64.713 130.098,64.713 C130.098,64.713 130.098,75.882 130.098,75.882 Z" id="path-13" class="cls-13" fill-rule="evenodd"/>
    <path d="M103.767,75.882 C103.767,75.882 83.540,75.882 83.540,75.882 C83.540,75.882 83.540,64.713 83.540,64.713 C83.540,64.713 103.767,64.713 103.767,64.713 C103.767,64.713 103.767,75.882 103.767,75.882 Z" id="path-14" class="cls-13" fill-rule="evenodd"/>
    <path d="M156.428,57.678 C156.428,57.678 136.202,57.678 136.202,57.678 C136.202,57.678 136.202,46.510 136.202,46.510 C136.202,46.510 156.428,46.510 156.428,46.510 C156.428,46.510 156.428,57.678 156.428,57.678 Z" id="path-15" class="cls-13" fill-rule="evenodd"/>
    <path d="M130.098,57.678 C130.098,57.678 109.871,57.678 109.871,57.678 C109.871,57.678 109.871,46.510 109.871,46.510 C109.871,46.510 130.098,46.510 130.098,46.510 C130.098,46.510 130.098,57.678 130.098,57.678 Z" id="path-16" class="cls-13" fill-rule="evenodd"/>
    <path d="M103.767,57.678 C103.767,57.678 83.540,57.678 83.540,57.678 C83.540,57.678 83.540,46.510 83.540,46.510 C83.540,46.510 103.767,46.510 103.767,46.510 C103.767,46.510 103.767,57.678 103.767,57.678 Z" id="path-17" class="cls-13" fill-rule="evenodd"/>
  </g>
</svg>
