<svg xmlns="http://www.w3.org/2000/svg" xmlns:xlink="http://www.w3.org/1999/xlink" preserveAspectRatio="xMidYMid" width="217" height="151" viewBox="0 0 217 151">
  <defs>
    <style>

      .cls-3 {
        fill: #ff3a2f;
      }

      .cls-6 {
        fill: #142a3b;
      }

      .cls-7 {
        fill: #000000;
      }

      .cls-8 {
        fill: #fbb713;
      }

      .cls-9 {
        fill: #2476ff;
      }

      .cls-10 {
        fill: #000000;
        opacity: 0.35;
      }
    </style>
  </defs>
  <g id="group-46svg">
    <path d="M167.403,143.766 C167.403,143.766 177.092,143.766 177.092,143.766 C178.960,143.766 180.474,141.978 180.474,139.773 C180.474,137.569 178.960,135.781 177.092,135.781 C177.092,135.781 176.641,135.781 176.641,135.781 C174.773,135.781 173.259,133.993 173.259,131.789 C173.259,129.583 174.773,127.796 176.641,127.796 C176.641,127.796 197.469,127.796 197.469,127.796 C199.337,127.796 200.851,126.008 200.851,123.803 C200.851,121.598 199.337,119.811 197.469,119.811 C197.469,119.811 172.439,119.811 172.439,119.811 C172.439,119.811 121.278,119.811 121.278,119.811 C119.410,119.811 117.896,121.598 117.896,123.803 C117.896,126.008 119.410,127.796 121.278,127.796 C121.278,127.796 127.059,127.796 127.059,127.796 C128.927,127.796 130.441,129.583 130.441,131.789 C130.441,133.993 128.927,135.781 127.059,135.781 C127.059,135.781 99.548,135.781 99.548,135.781 C97.680,135.781 96.166,137.569 96.166,139.773 C96.166,141.978 97.680,143.766 99.548,143.766 C99.548,143.766 106.050,143.766 106.050,143.766 C106.050,143.766 167.403,143.766 167.403,143.766 Z" id="path-1" class="cls-3" fill-rule="evenodd"/>
    <path d="M45.258,149.788 C45.258,149.788 50.378,149.788 50.378,149.788 C51.365,149.788 52.166,148.911 52.166,147.828 C52.166,146.746 51.365,145.869 50.378,145.869 C50.378,145.869 50.140,145.869 50.140,145.869 C49.153,145.869 48.352,144.991 48.352,143.908 C48.352,142.825 49.153,141.947 50.140,141.947 C50.140,141.947 61.148,141.947 61.148,141.947 C62.135,141.947 62.935,141.070 62.935,139.987 C62.935,138.905 62.135,138.026 61.148,138.026 C61.148,138.026 47.919,138.026 47.919,138.026 C47.919,138.026 20.880,138.026 20.880,138.026 C19.892,138.026 19.092,138.905 19.092,139.987 C19.092,141.070 19.892,141.947 20.880,141.947 C20.880,141.947 23.934,141.947 23.934,141.947 C24.922,141.947 25.722,142.825 25.722,143.908 C25.722,144.991 24.922,145.869 23.934,145.869 C23.934,145.869 9.395,145.869 9.395,145.869 C8.408,145.869 7.607,146.746 7.607,147.828 C7.607,148.911 8.408,149.788 9.395,149.788 C9.395,149.788 12.831,149.788 12.831,149.788 C12.831,149.788 45.258,149.788 45.258,149.788 Z" id="path-2" class="cls-3" fill-rule="evenodd"/>
    <path d="M213.417,139.365 C215.521,139.365 217.226,141.336 217.226,143.766 C217.226,146.196 215.521,148.165 213.417,148.165 C213.417,148.165 201.744,148.165 201.744,148.165 C199.640,148.165 197.935,146.196 197.935,143.766 C197.935,141.336 199.640,139.365 201.744,139.365 C201.744,139.365 213.417,139.365 213.417,139.365 Z" id="path-3" class="cls-3" fill-rule="evenodd"/>
    <path d="M-0.003,39.554 C-0.003,39.554 -0.003,120.255 -0.003,120.255 C-0.003,122.040 1.441,123.483 3.225,123.483 C3.225,123.483 151.720,123.483 151.720,123.483 C153.505,123.483 154.948,122.040 154.948,120.255 C154.948,120.255 154.948,39.554 154.948,39.554 C154.948,39.554 -0.003,39.554 -0.003,39.554 Z" id="path-4" class="cls-6" fill-rule="evenodd"/>
    <path d="M106.116,58.101 C106.116,58.101 54.465,58.101 54.465,58.101 C47.340,58.101 41.553,63.895 41.553,71.014 C41.553,78.131 47.340,83.924 54.465,83.924 C54.465,83.924 106.116,83.924 106.116,83.924 C113.234,83.924 119.027,78.131 119.027,71.014 C119.027,63.895 113.234,58.101 106.116,58.101 ZM106.116,77.469 C106.116,77.469 54.465,77.469 54.465,77.469 C50.905,77.469 48.008,74.574 48.008,71.014 C48.008,67.450 50.905,64.557 54.465,64.557 C54.465,64.557 106.116,64.557 106.116,64.557 C109.675,64.557 112.571,67.450 112.571,71.014 C112.571,74.574 109.675,77.469 106.116,77.469 Z" id="path-5" class="cls-7" fill-rule="evenodd"/>
    <path d="M103.298,52.467 C103.298,52.467 51.647,52.467 51.647,52.467 C44.523,52.467 38.735,58.261 38.735,65.380 C38.735,72.497 44.523,78.291 51.647,78.291 C51.647,78.291 103.298,78.291 103.298,78.291 C110.416,78.291 116.210,72.497 116.210,65.380 C116.210,58.261 110.416,52.467 103.298,52.467 ZM103.298,71.835 C103.298,71.835 51.647,71.835 51.647,71.835 C48.088,71.835 45.191,68.941 45.191,65.380 C45.191,61.817 48.088,58.922 51.647,58.922 C51.647,58.922 103.298,58.922 103.298,58.922 C106.857,58.922 109.754,61.817 109.754,65.380 C109.754,68.941 106.857,71.835 103.298,71.835 Z" id="path-6" class="cls-8" fill-rule="evenodd"/>
    <path d="M153.972,39.554 C153.972,39.554 135.656,-0.003 135.656,-0.003 C135.656,-0.003 19.443,-0.003 19.443,-0.003 C19.443,-0.003 0.973,39.554 0.973,39.554 C0.973,39.554 153.972,39.554 153.972,39.554 Z" id="path-7" class="cls-9" fill-rule="evenodd"/>
    <path d="M135.656,-0.003 C135.656,-0.003 122.457,-0.003 122.457,-0.003 C122.457,-0.003 122.457,-0.003 122.457,-0.003 C127.961,11.884 119.279,25.469 106.180,25.469 C106.180,25.469 3.869,33.353 3.869,33.353 C3.869,33.353 0.973,39.554 0.973,39.554 C0.973,39.554 153.972,39.554 153.972,39.554 C153.972,39.554 135.656,-0.003 135.656,-0.003 Z" id="path-8" class="cls-10" fill-rule="evenodd"/>
    <path d="M129.123,39.554 C129.123,39.554 129.123,3.791 129.123,3.791 C129.123,3.791 25.822,3.791 25.822,3.791 C25.822,3.791 25.822,39.554 25.822,39.554 C25.822,39.554 129.123,39.554 129.123,39.554 Z" id="path-9" class="cls-8" fill-rule="evenodd"/>
    <path d="M25.822,39.554 C25.822,39.554 129.123,39.554 129.123,39.554 C129.123,39.554 129.123,31.102 129.123,31.102 C129.123,31.102 25.822,31.102 25.822,31.102 C25.822,31.102 25.822,39.554 25.822,39.554 Z" id="path-10" class="cls-10" fill-rule="evenodd"/>
  </g>
</svg>
