<svg xmlns="http://www.w3.org/2000/svg" xmlns:xlink="http://www.w3.org/1999/xlink" preserveAspectRatio="xMidYMid" width="210" height="218" viewBox="0 0 210 218">
  <defs>
    <style>

      .cls-3 {
        fill: #142a3b;
      }

      .cls-6 {
        fill: #ff3a2f;
      }

      .cls-8 {
        fill: #000000;
        opacity: 0.35;
      }
    </style>
  </defs>
  <g id="group-121svg">
    <path d="M61.223,187.833 C61.223,187.833 43.484,187.833 43.484,187.833 C40.065,187.833 37.292,189.930 37.292,192.519 C37.292,195.107 40.065,197.206 43.484,197.206 C43.484,197.206 44.310,197.206 44.310,197.206 C47.731,197.206 50.503,199.305 50.503,201.892 C50.503,204.482 47.731,206.580 44.310,206.580 C44.310,206.580 6.177,206.580 6.177,206.580 C2.757,206.580 -0.015,208.679 -0.015,211.268 C-0.015,213.856 2.757,215.954 6.177,215.954 C6.177,215.954 52.004,215.954 52.004,215.954 C52.004,215.954 145.671,215.954 145.671,215.954 C149.092,215.954 151.864,213.856 151.864,211.268 C151.864,208.679 149.092,206.580 145.671,206.580 C145.671,206.580 135.088,206.580 135.088,206.580 C131.668,206.580 128.895,204.482 128.895,201.892 C128.895,199.305 131.668,197.206 135.088,197.206 C135.088,197.206 176.654,197.206 176.654,197.206 C180.074,197.206 182.846,195.107 182.846,192.519 C182.846,189.930 180.074,187.833 176.654,187.833 C176.654,187.833 173.552,187.833 173.552,187.833 C173.552,187.833 61.223,187.833 61.223,187.833 Z" id="path-1" class="cls-3" fill-rule="evenodd"/>
    <path d="M171.238,217.210 C168.371,217.210 166.047,214.961 166.047,212.186 C166.047,209.413 168.371,207.163 171.238,207.163 C171.238,207.163 187.149,207.163 187.149,207.163 C190.017,207.163 192.341,209.413 192.341,212.186 C192.341,214.961 190.017,217.210 187.149,217.210 C187.149,217.210 171.238,217.210 171.238,217.210 Z" id="path-2" class="cls-3" fill-rule="evenodd"/>
    <path d="M108.788,162.333 C106.789,162.333 105.168,160.712 105.168,158.713 C105.168,158.713 105.168,42.379 105.168,42.379 C105.168,42.379 208.794,-0.013 208.794,-0.013 C208.794,-0.013 208.794,132.428 208.794,132.428 C208.794,134.427 207.172,136.047 205.173,136.047 C203.174,136.047 201.552,134.427 201.552,132.428 C201.552,132.428 201.552,10.774 201.552,10.774 C201.552,10.774 112.409,47.239 112.409,47.239 C112.409,47.239 112.409,158.713 112.409,158.713 C112.409,160.712 110.788,162.333 108.788,162.333 Z" id="path-3" class="cls-3" fill-rule="evenodd"/>
    <path d="M113.170,176.236 C113.170,189.380 101.404,202.521 86.884,202.521 C72.372,202.521 60.598,190.752 60.598,176.236 C60.598,161.720 72.372,149.951 86.884,149.951 C91.675,149.951 108.789,149.951 113.170,149.951 C113.170,158.713 113.170,166.511 113.170,176.236 Z" id="path-4" class="cls-6" fill-rule="evenodd"/>
    <path d="M209.553,141.188 C209.553,154.331 197.786,167.474 183.267,167.474 C168.755,167.474 156.981,155.704 156.981,141.188 C156.981,126.673 168.755,114.902 183.267,114.902 C188.058,114.902 205.172,114.902 209.553,114.902 C209.553,123.665 209.553,132.426 209.553,141.188 Z" id="path-5" class="cls-6" fill-rule="evenodd"/>
    <path d="M103.709,149.951 C103.709,156.341 103.709,162.586 103.709,169.929 C103.709,183.071 91.942,196.213 77.423,196.213 C74.072,196.213 70.880,195.562 67.932,194.418 C72.717,199.404 79.431,202.521 86.884,202.521 C101.404,202.521 113.170,189.380 113.170,176.236 C113.170,166.511 113.170,158.713 113.170,149.951 C111.461,149.951 107.807,149.951 103.709,149.951 Z" id="path-6" class="cls-8" fill-rule="evenodd"/>
    <path d="M200.092,114.902 C200.092,121.563 200.092,128.222 200.092,134.881 C200.092,148.024 188.325,161.167 173.805,161.167 C170.455,161.167 167.262,160.515 164.315,159.371 C169.099,164.356 175.815,167.474 183.267,167.474 C197.786,167.474 209.553,154.331 209.553,141.188 C209.553,132.426 209.553,123.665 209.553,114.902 C207.844,114.902 204.190,114.902 200.092,114.902 Z" id="path-7" class="cls-8" fill-rule="evenodd"/>
    <path d="M108.790,79.098 C107.364,79.098 106.011,78.249 105.437,76.845 C104.680,74.997 105.567,72.883 107.418,72.124 C107.418,72.124 203.803,32.697 203.803,32.697 C205.652,31.950 207.766,32.826 208.525,34.678 C209.281,36.527 208.394,38.642 206.543,39.400 C206.543,39.400 110.158,78.827 110.158,78.827 C109.711,79.009 109.246,79.098 108.790,79.098 Z" id="path-8" class="cls-3" fill-rule="evenodd"/>
  </g>
</svg>
