<svg xmlns="http://www.w3.org/2000/svg" xmlns:xlink="http://www.w3.org/1999/xlink" preserveAspectRatio="xMidYMid" width="191" height="217" viewBox="0 0 191 217">
  <defs>
    <style>

      .cls-3 {
        fill: #2476ff;
      }

      .cls-6 {
        fill: #142a3b;
      }

      .cls-7 {
        fill: #000000;
        opacity: 0.35;
      }

      .cls-8 {
        fill: #0cb04a;
      }

      .cls-14 {
        fill: #fbb713;
      }

      .cls-20 {
        fill: #fbfbfb;
        opacity: 0.35;
      }
    </style>
  </defs>
  <g id="group-62svg">
    <path d="M111.569,212.554 C111.569,212.554 121.865,212.554 121.865,212.554 C123.849,212.554 125.458,210.655 125.458,208.311 C125.458,205.969 123.849,204.069 121.865,204.069 C121.865,204.069 121.385,204.069 121.385,204.069 C119.401,204.069 117.791,202.170 117.791,199.826 C117.791,197.483 119.401,195.584 121.385,195.584 C121.385,195.584 143.517,195.584 143.517,195.584 C145.502,195.584 147.111,193.684 147.111,191.340 C147.111,188.998 145.502,187.098 143.517,187.098 C143.517,187.098 116.920,187.098 116.920,187.098 C116.920,187.098 62.557,187.098 62.557,187.098 C60.571,187.098 58.962,188.998 58.962,191.340 C58.962,193.684 60.571,195.584 62.557,195.584 C62.557,195.584 68.699,195.584 68.699,195.584 C70.684,195.584 72.293,197.483 72.293,199.826 C72.293,202.170 70.684,204.069 68.699,204.069 C68.699,204.069 39.466,204.069 39.466,204.069 C37.481,204.069 35.872,205.969 35.872,208.311 C35.872,210.655 37.481,212.554 39.466,212.554 C39.466,212.554 46.375,212.554 46.375,212.554 C46.375,212.554 111.569,212.554 111.569,212.554 Z" id="path-1" class="cls-3" fill-rule="evenodd"/>
    <path d="M58.749,144.430 C58.749,144.430 64.190,144.430 64.190,144.430 C65.239,144.430 66.090,143.497 66.090,142.347 C66.090,141.196 65.239,140.264 64.190,140.264 C64.190,140.264 63.937,140.264 63.937,140.264 C62.888,140.264 62.037,139.332 62.037,138.181 C62.037,137.031 62.888,136.098 63.937,136.098 C63.937,136.098 75.634,136.098 75.634,136.098 C76.683,136.098 77.533,135.165 77.533,134.015 C77.533,132.864 76.683,131.932 75.634,131.932 C75.634,131.932 61.577,131.932 61.577,131.932 C61.577,131.932 32.845,131.932 32.845,131.932 C31.796,131.932 30.945,132.864 30.945,134.015 C30.945,135.165 31.796,136.098 32.845,136.098 C32.845,136.098 36.091,136.098 36.091,136.098 C37.140,136.098 37.990,137.031 37.990,138.181 C37.990,139.332 37.140,140.264 36.091,140.264 C36.091,140.264 20.641,140.264 20.641,140.264 C19.592,140.264 18.742,141.196 18.742,142.347 C18.742,143.497 19.592,144.430 20.641,144.430 C20.641,144.430 24.293,144.430 24.293,144.430 C24.293,144.430 58.749,144.430 58.749,144.430 Z" id="path-2" class="cls-3" fill-rule="evenodd"/>
    <path d="M160.463,207.879 C162.699,207.879 164.511,209.971 164.511,212.554 C164.511,215.136 162.699,217.229 160.463,217.229 C160.463,217.229 148.060,217.229 148.060,217.229 C145.825,217.229 144.013,215.136 144.013,212.554 C144.013,209.971 145.825,207.879 148.060,207.879 C148.060,207.879 160.463,207.879 160.463,207.879 Z" id="path-3" class="cls-3" fill-rule="evenodd"/>
    <path d="M101.951,204.443 C101.951,204.443 88.444,204.443 88.444,204.443 C87.106,204.443 86.020,203.359 86.020,202.020 C86.020,202.020 86.020,61.876 86.020,61.876 C86.020,60.537 87.106,59.451 88.444,59.451 C88.444,59.451 101.951,59.451 101.951,59.451 C103.289,59.451 104.375,60.537 104.375,61.876 C104.375,61.876 104.375,202.020 104.375,202.020 C104.375,203.359 103.289,204.443 101.951,204.443 Z" id="path-4" class="cls-6" fill-rule="evenodd"/>
    <path d="M99.481,60.559 C100.165,61.843 100.588,63.287 100.588,64.842 C100.588,64.842 100.588,191.482 100.588,191.482 C100.588,196.549 96.480,200.658 91.411,200.658 C89.855,200.658 88.412,200.234 87.128,199.551 C88.670,202.448 91.686,204.443 95.197,204.443 C100.266,204.443 104.375,200.335 104.375,195.267 C104.375,195.267 104.375,68.627 104.375,68.627 C104.375,65.116 102.379,62.101 99.481,60.559 Z" id="path-5" class="cls-7" fill-rule="evenodd"/>
    <path d="M115.407,80.099 C115.407,80.099 74.988,80.099 74.988,80.099 C73.377,80.099 72.071,78.793 72.071,77.183 C72.071,77.183 72.071,58.239 72.071,58.239 C72.071,56.627 73.377,55.321 74.988,55.321 C74.988,55.321 115.407,55.321 115.407,55.321 C117.018,55.321 118.323,56.627 118.323,58.239 C118.323,58.239 118.323,77.183 118.323,77.183 C118.323,78.793 117.018,80.099 115.407,80.099 Z" id="path-6" class="cls-8" fill-rule="evenodd"/>
    <path d="M108.035,55.397 C109.705,57.333 110.752,59.821 110.752,62.579 C110.752,62.579 110.752,65.272 110.752,65.272 C110.752,71.369 105.808,76.313 99.709,76.313 C99.709,76.313 75.542,76.313 75.542,76.313 C75.283,76.313 75.042,76.255 74.788,76.237 C76.813,78.583 79.772,80.099 83.114,80.099 C83.114,80.099 107.281,80.099 107.281,80.099 C113.379,80.099 118.323,75.155 118.323,69.056 C118.323,69.056 118.323,66.365 118.323,66.365 C118.323,60.523 113.775,55.792 108.035,55.397 Z" id="path-7" class="cls-7" fill-rule="evenodd"/>
    <path d="M117.976,59.451 C117.976,59.451 72.418,59.451 72.418,59.451 C70.808,59.451 69.502,58.145 69.502,56.534 C69.502,56.534 69.502,34.838 69.502,34.838 C69.502,33.227 70.808,31.921 72.418,31.921 C72.418,31.921 117.976,31.921 117.976,31.921 C119.587,31.921 120.893,33.227 120.893,34.838 C120.893,34.838 120.893,56.534 120.893,56.534 C120.893,58.145 119.587,59.451 117.976,59.451 Z" id="path-8" class="cls-8" fill-rule="evenodd"/>
    <path d="M110.604,31.997 C112.275,33.932 113.321,36.422 113.321,39.178 C113.321,39.178 113.321,44.624 113.321,44.624 C113.321,50.722 108.377,55.665 102.279,55.665 C102.279,55.665 72.972,55.665 72.972,55.665 C72.714,55.665 72.472,55.607 72.218,55.589 C74.243,57.935 77.202,59.451 80.544,59.451 C80.544,59.451 109.851,59.451 109.851,59.451 C115.949,59.451 120.893,54.508 120.893,48.409 C120.893,48.409 120.893,42.964 120.893,42.964 C120.893,37.123 116.344,32.391 110.604,31.997 Z" id="path-9" class="cls-7" fill-rule="evenodd"/>
    <path d="M106.962,33.757 C106.962,33.757 83.432,33.757 83.432,33.757 C82.361,33.757 81.493,32.889 81.493,31.817 C81.493,31.817 81.493,21.013 81.493,21.013 C81.493,19.942 82.362,19.074 83.432,19.074 C83.432,19.074 106.963,19.074 106.963,19.074 C108.033,19.074 108.901,19.942 108.901,21.013 C108.901,21.013 108.901,31.817 108.901,31.817 C108.901,32.889 108.033,33.757 106.962,33.757 Z" id="path-10" class="cls-8" fill-rule="evenodd"/>
    <path d="M101.560,19.074 C101.560,19.074 100.374,19.074 100.374,19.074 C100.965,20.132 101.330,21.332 101.330,22.630 C101.330,26.683 98.043,29.970 93.989,29.970 C93.989,29.970 82.449,29.970 82.449,29.970 C83.704,32.219 86.077,33.757 88.835,33.757 C88.835,33.757 101.560,33.757 101.560,33.757 C105.615,33.757 108.901,30.470 108.901,26.415 C108.901,22.361 105.615,19.074 101.560,19.074 Z" id="path-11" class="cls-7" fill-rule="evenodd"/>
    <path d="M189.993,106.355 C189.003,111.712 167.707,112.267 142.426,107.594 C117.145,102.922 97.455,94.791 98.445,89.433 C99.436,84.076 120.732,83.521 146.012,88.193 C171.292,92.866 190.983,100.997 189.993,106.355 Z" id="path-12" class="cls-14" fill-rule="evenodd"/>
    <path d="M99.634,87.748 C104.270,92.108 121.969,95.355 143.147,95.355 C152.504,95.355 161.183,94.720 168.364,93.638 C161.844,91.601 154.234,89.713 146.012,88.193 C123.705,84.070 104.523,84.023 99.634,87.748 Z" id="path-13" class="cls-7" fill-rule="evenodd"/>
    <path d="M0.043,106.355 C1.033,111.712 22.329,112.267 47.610,107.594 C72.890,102.922 92.581,94.791 91.591,89.433 C90.600,84.076 69.304,83.521 44.024,88.193 C18.743,92.866 -0.948,100.997 0.043,106.355 Z" id="path-14" class="cls-14" fill-rule="evenodd"/>
    <path d="M21.672,93.638 C28.853,94.720 37.531,95.355 46.888,95.355 C68.067,95.355 85.765,92.108 90.402,87.750 C85.513,84.023 66.331,84.070 44.024,88.193 C35.802,89.713 28.192,91.601 21.672,93.638 Z" id="path-15" class="cls-7" fill-rule="evenodd"/>
    <path d="M2.150,81.705 C2.150,87.153 22.180,91.570 46.888,91.570 C71.596,91.570 91.626,87.153 91.626,81.705 C91.626,76.257 71.596,71.840 46.888,71.840 C22.180,71.840 2.150,76.257 2.150,81.705 Z" id="path-16" class="cls-14" fill-rule="evenodd"/>
    <path d="M187.885,81.705 C187.885,87.153 167.856,91.570 143.147,91.570 C118.439,91.570 98.409,87.153 98.409,81.705 C98.409,76.257 118.439,71.840 143.147,71.840 C167.856,71.840 187.885,76.257 187.885,81.705 Z" id="path-17" class="cls-14" fill-rule="evenodd"/>
    <path d="M2.150,81.705 C2.150,87.153 22.180,91.570 46.888,91.570 C71.596,91.570 91.626,87.153 91.626,81.705 C91.626,76.257 71.596,71.840 46.888,71.840 C22.180,71.840 2.150,76.257 2.150,81.705 Z" id="path-18" class="cls-20" fill-rule="evenodd"/>
    <path d="M187.885,81.705 C187.885,87.153 167.856,91.570 143.147,91.570 C118.439,91.570 98.409,87.153 98.409,81.705 C98.409,76.257 118.439,71.840 143.147,71.840 C167.856,71.840 187.885,76.257 187.885,81.705 Z" id="path-19" class="cls-20" fill-rule="evenodd"/>
    <path d="M113.782,13.683 C113.782,21.236 108.955,27.357 103.000,27.357 C97.045,27.357 92.217,21.236 92.217,13.683 C92.217,6.130 97.045,0.008 103.000,0.008 C108.955,0.008 113.782,6.130 113.782,13.683 Z" id="path-20" class="cls-6" fill-rule="evenodd"/>
    <path d="M96.344,13.683 C96.344,21.236 91.517,27.357 85.562,27.357 C79.607,27.357 74.780,21.236 74.780,13.683 C74.780,6.130 79.607,0.008 85.562,0.008 C91.517,0.008 96.344,6.130 96.344,13.683 Z" id="path-21" class="cls-6" fill-rule="evenodd"/>
    <path d="M107.556,1.329 C109.058,3.679 109.996,6.635 109.996,9.897 C109.996,17.450 105.169,23.572 99.214,23.572 C97.579,23.572 96.046,23.076 94.659,22.250 C96.635,25.341 99.617,27.358 103.000,27.358 C108.955,27.358 113.782,21.236 113.782,13.682 C113.782,8.203 111.224,3.512 107.556,1.329 Z" id="path-22" class="cls-7" fill-rule="evenodd"/>
    <path d="M90.117,1.329 C91.621,3.679 92.558,6.635 92.558,9.897 C92.558,17.450 87.731,23.572 81.776,23.572 C80.142,23.572 78.609,23.076 77.221,22.250 C79.198,25.341 82.179,27.358 85.562,27.358 C91.517,27.358 96.345,21.236 96.345,13.682 C96.345,8.203 93.787,3.512 90.117,1.329 Z" id="path-23" class="cls-7" fill-rule="evenodd"/>
  </g>
</svg>
