<svg xmlns="http://www.w3.org/2000/svg" xmlns:xlink="http://www.w3.org/1999/xlink" preserveAspectRatio="xMidYMid" width="218" height="118" viewBox="0 0 218 118">
  <defs>
    <style>

      .cls-3 {
        fill: #0cb04a;
      }

      .cls-5 {
        fill: #142a3b;
      }

      .cls-6 {
        fill: #ff3a2f;
      }

      .cls-7 {
        fill: #000000;
        opacity: 0.35;
      }
    </style>
  </defs>
  <g id="group-54svg">
    <path d="M95.720,92.281 C95.720,92.281 77.997,92.281 77.997,92.281 C74.580,92.281 71.810,93.826 71.810,95.731 C71.810,97.636 74.580,99.179 77.997,99.179 C77.997,99.179 78.822,99.179 78.822,99.179 C82.239,99.179 85.010,100.724 85.010,102.629 C85.010,104.534 82.239,106.079 78.822,106.079 C78.822,106.079 40.722,106.079 40.722,106.079 C37.304,106.079 34.534,107.622 34.534,109.527 C34.534,111.433 37.304,112.976 40.722,112.976 C40.722,112.976 86.508,112.976 86.508,112.976 C86.508,112.976 180.096,112.976 180.096,112.976 C183.513,112.976 186.283,111.433 186.283,109.527 C186.283,107.622 183.513,106.079 180.096,106.079 C180.096,106.079 169.521,106.079 169.521,106.079 C166.104,106.079 163.334,104.534 163.334,102.629 C163.334,100.724 166.104,99.179 169.521,99.179 C169.521,99.179 211.052,99.179 211.052,99.179 C214.469,99.179 217.239,97.636 217.239,95.731 C217.239,93.826 214.469,92.281 211.052,92.281 C211.052,92.281 207.952,92.281 207.952,92.281 C207.952,92.281 95.720,92.281 95.720,92.281 Z" id="path-1" class="cls-3" fill-rule="evenodd"/>
    <path d="M4.533,117.100 C2.035,117.100 0.011,115.618 0.011,113.791 C0.011,111.962 2.035,110.481 4.533,110.481 C4.533,110.481 18.388,110.481 18.388,110.481 C20.886,110.481 22.910,111.962 22.910,113.791 C22.910,115.618 20.886,117.100 18.388,117.100 C18.388,117.100 4.533,117.100 4.533,117.100 Z" id="path-2" class="cls-3" fill-rule="evenodd"/>
    <path d="M199.538,26.029 C199.538,26.029 186.732,26.029 186.732,26.029 C186.732,26.029 186.732,69.400 186.732,69.400 C186.732,69.400 199.538,69.400 199.538,69.400 C206.618,69.400 212.345,67.461 212.345,65.064 C212.345,65.064 212.345,30.366 212.345,30.366 C212.345,27.969 206.618,26.029 199.538,26.029 Z" id="path-3" class="cls-5" fill-rule="evenodd"/>
    <path d="M194.995,69.400 C194.995,69.400 194.995,26.029 194.995,26.029 C194.995,26.029 194.995,18.169 194.995,18.169 C194.995,8.155 186.847,0.008 176.834,0.008 C176.834,0.008 30.995,0.008 30.995,0.008 C20.982,0.008 12.832,8.155 12.832,18.169 C12.832,18.169 12.832,77.261 12.832,77.261 C12.832,87.274 20.982,95.423 30.995,95.423 C30.995,95.423 176.834,95.423 176.834,95.423 C186.847,95.423 194.995,87.274 194.995,77.261 C194.995,77.261 194.995,69.400 194.995,69.400 Z" id="path-4" class="cls-6" fill-rule="evenodd"/>
    <path d="M180.078,0.335 C181.926,3.178 183.025,6.553 183.025,10.189 C183.025,10.189 183.025,18.050 183.025,18.050 C183.025,18.050 183.025,61.419 183.025,61.419 C183.025,61.419 183.025,69.280 183.025,69.280 C183.025,79.292 174.876,87.443 164.863,87.443 C164.863,87.443 19.025,87.443 19.025,87.443 C17.913,87.443 16.836,87.307 15.780,87.115 C19.022,92.102 24.618,95.423 30.995,95.423 C30.995,95.423 176.834,95.423 176.834,95.423 C186.847,95.423 194.995,87.273 194.995,77.261 C194.995,77.261 194.995,69.400 194.995,69.400 C194.995,69.400 194.995,26.030 194.995,26.030 C194.995,26.030 194.995,18.169 194.995,18.169 C194.995,9.267 188.543,1.875 180.078,0.335 Z" id="path-5" class="cls-7" fill-rule="evenodd"/>
    <path d="M64.879,73.737 C64.879,76.135 62.939,78.074 60.542,78.074 C60.542,78.074 43.193,78.074 43.193,78.074 C40.796,78.074 38.856,76.135 38.856,73.737 C38.856,73.737 38.856,21.693 38.856,21.693 C38.856,19.295 40.796,17.355 43.193,17.355 C43.193,17.355 60.542,17.355 60.542,17.355 C62.939,17.355 64.879,19.295 64.879,21.693 C64.879,21.693 64.879,73.737 64.879,73.737 Z" id="path-6" class="cls-5" fill-rule="evenodd"/>
    <path d="M99.577,73.737 C99.577,76.135 97.638,78.074 95.239,78.074 C95.239,78.074 77.891,78.074 77.891,78.074 C75.494,78.074 73.553,76.135 73.553,73.737 C73.553,73.737 73.553,21.693 73.553,21.693 C73.553,19.295 75.494,17.355 77.891,17.355 C77.891,17.355 95.239,17.355 95.239,17.355 C97.638,17.355 99.577,19.295 99.577,21.693 C99.577,21.693 99.577,73.737 99.577,73.737 Z" id="path-7" class="cls-5" fill-rule="evenodd"/>
  </g>
</svg>
