<svg xmlns="http://www.w3.org/2000/svg" xmlns:xlink="http://www.w3.org/1999/xlink" preserveAspectRatio="xMidYMid" width="217" height="159" viewBox="0 0 217 159">
  <defs>
    <style>

      .cls-3 {
        fill: #ff3a2f;
      }

      .cls-6 {
        fill: #0cb04a;
      }

      .cls-9 {
        fill: #fbb713;
      }

      .cls-13 {
        fill: #ededed;
      }

      .cls-14 {
        fill: #010101;
        opacity: 0.35;
      }

      .cls-15 {
        fill: #142a3b;
      }
    </style>
  </defs>
  <g id="group-93svg">
    <path d="M119.854,137.128 C119.854,137.128 106.681,137.128 106.681,137.128 C104.141,137.128 102.083,138.686 102.083,140.609 C102.083,142.531 104.141,144.090 106.681,144.090 C106.681,144.090 107.295,144.090 107.295,144.090 C109.834,144.090 111.893,145.647 111.893,147.570 C111.893,149.492 109.834,151.051 107.295,151.051 C107.295,151.051 78.976,151.051 78.976,151.051 C76.436,151.051 74.377,152.609 74.377,154.531 C74.377,156.453 76.436,158.012 78.976,158.012 C78.976,158.012 113.007,158.012 113.007,158.012 C113.007,158.012 182.568,158.012 182.568,158.012 C185.107,158.012 187.167,156.453 187.167,154.531 C187.167,152.609 185.107,151.051 182.568,151.051 C182.568,151.051 174.709,151.051 174.709,151.051 C172.169,151.051 170.109,149.492 170.109,147.570 C170.109,145.647 172.169,144.090 174.709,144.090 C174.709,144.090 205.576,144.090 205.576,144.090 C208.116,144.090 210.175,142.531 210.175,140.609 C210.175,138.686 208.116,137.128 205.576,137.128 C205.576,137.128 203.273,137.128 203.273,137.128 C203.273,137.128 119.854,137.128 119.854,137.128 Z" id="path-1" class="cls-3" fill-rule="evenodd"/>
    <path d="M201.554,158.944 C199.426,158.944 197.699,157.274 197.699,155.214 C197.699,153.154 199.426,151.483 201.554,151.483 C201.554,151.483 213.370,151.483 213.370,151.483 C215.499,151.483 217.226,153.154 217.226,155.214 C217.226,157.274 215.499,158.944 213.370,158.944 C213.370,158.944 201.554,158.944 201.554,158.944 Z" id="path-2" class="cls-3" fill-rule="evenodd"/>
    <path d="M38.307,158.944 C36.177,158.944 34.451,157.274 34.451,155.214 C34.451,153.154 36.177,151.483 38.307,151.483 C38.307,151.483 50.122,151.483 50.122,151.483 C52.251,151.483 53.978,153.154 53.978,155.214 C53.978,157.274 52.251,158.944 50.122,158.944 C50.122,158.944 38.307,158.944 38.307,158.944 Z" id="path-3" class="cls-3" fill-rule="evenodd"/>
    <path d="M87.467,67.647 C87.467,67.647 82.770,67.647 82.770,67.647 C82.770,67.647 82.770,20.806 82.770,20.806 C82.770,20.806 87.467,20.806 87.467,20.806 C87.467,20.806 87.467,67.647 87.467,67.647 Z" id="path-4" class="cls-6" fill-rule="evenodd"/>
    <path d="M52.335,67.647 C52.335,67.647 47.638,67.647 47.638,67.647 C47.638,67.647 47.638,20.806 47.638,20.806 C47.638,20.806 52.335,20.806 52.335,20.806 C52.335,20.806 52.335,67.647 52.335,67.647 Z" id="path-5" class="cls-6" fill-rule="evenodd"/>
    <path d="M122.598,67.647 C122.598,67.647 117.902,67.647 117.902,67.647 C117.902,67.647 117.902,20.806 117.902,20.806 C117.902,20.806 122.598,20.806 122.598,20.806 C122.598,20.806 122.598,67.647 122.598,67.647 Z" id="path-6" class="cls-6" fill-rule="evenodd"/>
    <path d="M59.180,17.192 C59.180,22.270 55.065,26.386 49.986,26.386 C44.909,26.386 40.793,22.270 40.793,17.192 C40.793,12.114 49.986,0.004 49.986,0.004 C49.986,0.004 59.180,12.114 59.180,17.192 Z" id="path-7" class="cls-9" fill-rule="evenodd"/>
    <path d="M129.444,17.192 C129.444,22.270 125.327,26.386 120.250,26.386 C115.172,26.386 111.056,22.270 111.056,17.192 C111.056,12.114 120.250,0.004 120.250,0.004 C120.250,0.004 129.444,12.114 129.444,17.192 Z" id="path-8" class="cls-9" fill-rule="evenodd"/>
    <path d="M94.312,17.192 C94.312,22.270 90.196,26.386 85.119,26.386 C80.041,26.386 75.924,22.270 75.924,17.192 C75.924,12.114 85.119,0.004 85.119,0.004 C85.119,0.004 94.312,12.114 94.312,17.192 Z" id="path-9" class="cls-9" fill-rule="evenodd"/>
    <path d="M159.261,134.785 C159.261,134.785 159.261,99.112 159.261,99.112 C159.261,78.285 146.328,61.403 130.375,61.403 C130.375,61.403 44.497,61.403 44.497,61.403 C28.544,61.403 15.611,78.285 15.611,99.112 C15.611,99.112 15.611,134.785 15.611,134.785 C15.611,134.785 159.261,134.785 159.261,134.785 Z" id="path-10" class="cls-3" fill-rule="evenodd"/>
    <path d="M25.267,102.476 C23.268,102.476 21.647,100.856 21.647,98.855 C21.647,81.309 32.962,67.034 46.870,67.034 C48.869,67.034 50.490,68.655 50.490,70.655 C50.490,72.654 48.869,74.275 46.870,74.275 C36.954,74.275 28.888,85.302 28.888,98.855 C28.888,100.856 27.267,102.476 25.267,102.476 Z" id="path-11" class="cls-13" fill-rule="evenodd"/>
    <path d="M130.375,61.403 C130.375,61.403 116.322,61.403 116.322,61.403 C132.276,61.403 145.208,78.285 145.208,99.112 C145.208,99.112 145.208,115.134 145.208,115.134 C145.208,115.134 15.611,123.856 15.611,123.856 C15.611,123.856 159.261,134.785 159.261,134.785 C159.261,134.785 159.261,99.112 159.261,99.112 C159.261,78.285 146.328,61.403 130.375,61.403 Z" id="path-12" class="cls-14" fill-rule="evenodd"/>
    <path d="M174.875,141.031 C174.875,141.031 -0.003,141.031 -0.003,141.031 C-0.003,141.031 -0.003,123.856 -0.003,123.856 C-0.003,123.856 174.875,123.856 174.875,123.856 C174.875,123.856 174.875,141.031 174.875,141.031 Z" id="path-13" class="cls-15" fill-rule="evenodd"/>
    <path d="M160.822,123.856 C160.822,123.856 160.822,141.031 160.822,141.031 C160.822,141.031 174.875,141.031 174.875,141.031 C174.875,141.031 174.875,123.856 174.875,123.856 C174.875,123.856 160.822,123.856 160.822,123.856 Z" id="path-14" class="cls-14" fill-rule="evenodd"/>
  </g>
</svg>
