<svg xmlns="http://www.w3.org/2000/svg" xmlns:xlink="http://www.w3.org/1999/xlink" preserveAspectRatio="xMidYMid" width="218" height="110" viewBox="0 0 218 110">
  <defs>
    <style>

      .cls-3 {
        fill: #2476ff;
      }

      .cls-4 {
        fill: #000000;
        opacity: 0.35;
      }

      .cls-7 {
        fill: #142a3b;
      }
    </style>
  </defs>
  <g id="group-99svg">
    <path d="M46.283,75.456 C46.283,53.726 57.935,39.853 72.398,39.853 C78.784,39.853 84.595,43.074 89.139,48.781 C94.310,20.816 111.349,-0.014 131.608,-0.014 C151.868,-0.014 168.915,19.992 174.087,47.957 C182.829,36.979 196.735,30.634 209.049,51.724 C214.510,61.078 217.237,73.344 217.237,85.787 C217.237,85.787 217.237,85.787 217.237,85.787 C217.237,92.581 213.571,98.088 209.050,98.088 C209.050,98.088 54.493,98.088 54.493,98.088 C49.981,98.088 46.321,92.605 46.306,85.826 C46.306,85.826 46.283,75.456 46.283,75.456 Z" id="path-1" class="cls-3" fill-rule="evenodd"/>
    <path d="M152.717,53.300 C158.099,46.542 165.436,41.552 173.154,43.622 C167.093,17.954 150.801,-0.014 131.608,-0.014 C125.347,-0.014 119.396,1.986 114.006,5.562 C132.587,7.865 147.870,27.087 152.717,53.300 Z" id="path-2" class="cls-4" fill-rule="evenodd"/>
    <path d="M71.647,39.898 C66.139,40.084 61.078,42.294 56.941,46.191 C60.989,47.542 64.678,50.239 67.770,54.123 C68.695,49.122 70.013,44.364 71.647,39.898 Z" id="path-3" class="cls-4" fill-rule="evenodd"/>
    <path d="M209.049,51.724 C197.875,32.584 185.389,36.040 176.641,45.048 C180.344,47.093 184.080,50.901 187.680,57.067 C193.141,66.420 195.867,78.687 195.867,91.129 C195.867,93.714 195.332,96.108 194.425,98.088 C194.425,98.088 209.050,98.088 209.050,98.088 C213.571,98.088 217.237,92.581 217.237,85.787 C217.237,73.344 214.510,61.078 209.049,51.724 Z" id="path-4" class="cls-4" fill-rule="evenodd"/>
    <path d="M53.951,85.321 C53.951,85.321 38.325,85.321 38.325,85.321 C35.313,85.321 32.870,87.101 32.870,89.297 C32.870,91.493 35.313,93.274 38.325,93.274 C38.325,93.274 39.053,93.274 39.053,93.274 C42.065,93.274 44.508,95.054 44.508,97.250 C44.508,99.446 42.065,101.225 39.053,101.225 C39.053,101.225 5.463,101.225 5.463,101.225 C2.451,101.225 0.008,103.007 0.008,105.203 C0.008,107.399 2.451,109.179 5.463,109.179 C5.463,109.179 45.830,109.179 45.830,109.179 C45.830,109.179 128.337,109.179 128.337,109.179 C131.350,109.179 133.792,107.399 133.792,105.203 C133.792,103.007 131.350,101.225 128.337,101.225 C128.337,101.225 119.015,101.225 119.015,101.225 C116.002,101.225 113.560,99.446 113.560,97.250 C113.560,95.054 116.002,93.274 119.015,93.274 C119.015,93.274 155.628,93.274 155.628,93.274 C158.641,93.274 161.083,91.493 161.083,89.297 C161.083,87.101 158.641,85.321 155.628,85.321 C155.628,85.321 152.896,85.321 152.896,85.321 C152.896,85.321 53.951,85.321 53.951,85.321 Z" id="path-5" class="cls-7" fill-rule="evenodd"/>
    <path d="M150.000,109.536 C147.878,109.536 146.158,108.277 146.158,106.724 C146.158,105.170 147.878,103.910 150.000,103.910 C150.000,103.910 161.777,103.910 161.777,103.910 C163.898,103.910 165.618,105.170 165.618,106.724 C165.618,108.277 163.898,109.536 161.777,109.536 C161.777,109.536 150.000,109.536 150.000,109.536 Z" id="path-6" class="cls-7" fill-rule="evenodd"/>
  </g>
</svg>
