<svg xmlns="http://www.w3.org/2000/svg" xmlns:xlink="http://www.w3.org/1999/xlink" preserveAspectRatio="xMidYMid" width="206" height="218" viewBox="0 0 206 218">
  <defs>
    <style>

      .cls-3 {
        fill: #ff3a2f;
      }

      .cls-5 {
        fill: #fbb713;
      }

      .cls-6 {
        fill: #000000;
        opacity: 0.35;
      }

      .cls-7 {
        fill: #142a3b;
      }

      .cls-13 {
        fill: #ededed;
      }
    </style>
  </defs>
  <g id="group-68svg">
    <path d="M114.160,214.947 C114.160,214.947 129.688,214.947 129.688,214.947 C132.682,214.947 135.109,213.282 135.109,211.230 C135.109,209.178 132.682,207.513 129.688,207.513 C129.688,207.513 128.965,207.513 128.965,207.513 C125.971,207.513 123.544,205.850 123.544,203.797 C123.544,201.744 125.971,200.080 128.965,200.080 C128.965,200.080 162.346,200.080 162.346,200.080 C165.339,200.080 167.766,198.417 167.766,196.365 C167.766,194.312 165.339,192.648 162.346,192.648 C162.346,192.648 122.231,192.648 122.231,192.648 C122.231,192.648 40.238,192.648 40.238,192.648 C37.244,192.648 34.817,194.312 34.817,196.365 C34.817,198.417 37.244,200.080 40.238,200.080 C40.238,200.080 49.501,200.080 49.501,200.080 C52.496,200.080 54.922,201.744 54.922,203.797 C54.922,205.850 52.496,207.513 49.501,207.513 C49.501,207.513 5.412,207.513 5.412,207.513 C2.418,207.513 -0.009,209.178 -0.009,211.230 C-0.009,213.282 2.418,214.947 5.412,214.947 C5.412,214.947 15.832,214.947 15.832,214.947 C15.832,214.947 114.160,214.947 114.160,214.947 Z" id="path-1" class="cls-3" fill-rule="evenodd"/>
    <path d="M179.579,208.701 C183.087,208.701 185.931,210.609 185.931,212.962 C185.931,215.315 183.087,217.222 179.579,217.222 C179.579,217.222 160.117,217.222 160.117,217.222 C156.610,217.222 153.766,215.315 153.766,212.962 C153.766,210.609 156.610,208.701 160.117,208.701 C160.117,208.701 179.579,208.701 179.579,208.701 Z" id="path-2" class="cls-3" fill-rule="evenodd"/>
    <path d="M164.715,201.276 C187.519,201.276 206.004,182.792 206.004,159.989 C206.004,159.989 123.427,159.989 123.427,159.989 C123.427,182.792 141.912,201.276 164.715,201.276 Z" id="path-3" class="cls-5" fill-rule="evenodd"/>
    <path d="M191.365,159.989 C191.365,180.289 176.702,197.130 157.396,200.590 C159.776,201.016 162.213,201.276 164.715,201.276 C187.518,201.276 206.004,182.791 206.004,159.989 C206.004,159.989 191.365,159.989 191.365,159.989 Z" id="path-4" class="cls-6" fill-rule="evenodd"/>
    <path d="M133.749,162.053 C133.749,162.053 123.427,162.053 123.427,162.053 C123.427,162.053 123.427,7.226 123.427,7.226 C123.427,7.226 133.749,7.226 133.749,7.226 C133.749,7.226 133.749,162.053 133.749,162.053 Z" id="path-5" class="cls-7" fill-rule="evenodd"/>
    <path d="M113.588,20.658 C113.588,20.658 113.486,20.557 113.486,20.557 C110.894,17.966 110.894,13.763 113.486,11.170 C113.486,11.170 122.347,2.310 122.347,2.310 C124.938,-0.281 129.141,-0.281 131.733,2.310 C131.733,2.310 131.835,2.413 131.835,2.413 C134.427,5.004 134.427,9.206 131.835,11.799 C131.835,11.799 122.975,20.658 122.975,20.658 C120.383,23.251 116.180,23.251 113.588,20.658 Z" id="path-6" class="cls-7" fill-rule="evenodd"/>
    <path d="M71.070,118.565 C71.070,118.565 58.519,118.565 58.519,118.565 C58.519,118.565 58.519,73.011 58.519,73.011 C58.519,73.011 71.070,73.011 71.070,73.011 C71.070,73.011 71.070,118.565 71.070,118.565 Z" id="path-7" class="cls-7" fill-rule="evenodd"/>
    <path d="M56.028,114.944 C56.028,114.944 56.028,189.413 56.028,189.413 C56.028,194.255 59.953,198.179 64.794,198.179 C69.636,198.179 73.560,194.255 73.560,189.413 C73.560,189.413 73.560,114.944 73.560,114.944 C73.560,114.944 56.028,114.944 56.028,114.944 Z" id="path-8" class="cls-7" fill-rule="evenodd"/>
    <path d="M38.040,0.002 C38.040,0.002 38.040,38.117 38.040,38.117 C38.040,64.018 48.267,85.016 60.881,85.016 C60.881,85.016 68.707,85.016 68.707,85.016 C81.322,85.016 91.548,64.018 91.548,38.117 C91.548,38.117 91.548,0.002 91.548,0.002 C91.548,0.002 38.040,0.002 38.040,0.002 Z" id="path-9" class="cls-5" fill-rule="evenodd"/>
    <path d="M84.228,0.002 C84.228,0.002 84.228,34.458 84.228,34.458 C84.228,60.358 74.002,81.356 61.388,81.356 C61.388,81.356 53.561,81.356 53.561,81.356 C52.979,81.356 52.408,81.266 51.836,81.177 C54.611,83.638 57.667,85.016 60.881,85.016 C60.881,85.016 68.707,85.016 68.707,85.016 C81.322,85.016 91.548,64.018 91.548,38.117 C91.548,38.117 91.548,0.002 91.548,0.002 C91.548,0.002 84.228,0.002 84.228,0.002 Z" id="path-10" class="cls-6" fill-rule="evenodd"/>
    <path d="M48.884,49.309 C46.883,49.309 45.263,47.688 45.263,45.689 C45.263,45.689 45.263,11.485 45.263,11.485 C45.263,9.484 46.883,7.863 48.884,7.863 C50.885,7.863 52.504,9.484 52.504,11.485 C52.504,11.485 52.504,45.689 52.504,45.689 C52.504,47.688 50.885,49.309 48.884,49.309 Z" id="path-11" class="cls-13" fill-rule="evenodd"/>
  </g>
</svg>
