<svg xmlns="http://www.w3.org/2000/svg" xmlns:xlink="http://www.w3.org/1999/xlink" preserveAspectRatio="xMidYMid" width="162" height="218" viewBox="0 0 162 218">
  <defs>
    <style>

      .cls-3 {
        fill: #0cb04a;
      }

      .cls-7 {
        fill: #ff3a2f;
      }

      .cls-9 {
        fill: #fbb713;
      }
    </style>
  </defs>
  <g id="group-117svg">
    <path d="M26.845,198.993 C26.845,198.993 19.073,198.993 19.073,198.993 C17.575,198.993 16.360,200.294 16.360,201.899 C16.360,203.505 17.575,204.806 19.073,204.806 C19.073,204.806 19.435,204.806 19.435,204.806 C20.934,204.806 22.148,206.108 22.148,207.712 C22.148,209.318 20.934,210.620 19.435,210.620 C19.435,210.620 2.728,210.620 2.728,210.620 C1.230,210.620 0.015,211.920 0.015,213.526 C0.015,215.130 1.230,216.431 2.728,216.431 C2.728,216.431 22.806,216.431 22.806,216.431 C22.806,216.431 63.844,216.431 63.844,216.431 C65.343,216.431 66.557,215.130 66.557,213.526 C66.557,211.920 65.343,210.620 63.844,210.620 C63.844,210.620 59.207,210.620 59.207,210.620 C57.709,210.620 56.494,209.318 56.494,207.712 C56.494,206.108 57.709,204.806 59.207,204.806 C59.207,204.806 77.418,204.806 77.418,204.806 C78.917,204.806 80.132,203.505 80.132,201.899 C80.132,200.294 78.917,198.993 77.418,198.993 C77.418,198.993 76.059,198.993 76.059,198.993 C76.059,198.993 26.845,198.993 26.845,198.993 Z" id="path-1" class="cls-3" fill-rule="evenodd"/>
    <path d="M75.046,217.210 C73.790,217.210 72.771,215.815 72.771,214.095 C72.771,212.374 73.790,210.981 75.046,210.981 C75.046,210.981 82.017,210.981 82.017,210.981 C83.273,210.981 84.291,212.374 84.291,214.095 C84.291,215.815 83.273,217.210 82.017,217.210 C82.017,217.210 75.046,217.210 75.046,217.210 Z" id="path-2" class="cls-3" fill-rule="evenodd"/>
    <path d="M35.530,188.205 C35.530,189.686 34.369,190.886 32.937,190.886 C31.504,190.886 30.342,189.686 30.342,188.205 C30.342,188.205 30.342,179.988 30.342,179.988 C30.342,178.508 31.504,177.307 32.937,177.307 C34.369,177.307 35.530,178.508 35.530,179.988 C35.530,179.988 35.530,188.205 35.530,188.205 Z" id="path-3" class="cls-3" fill-rule="evenodd"/>
    <path d="M29.908,157.370 C29.908,158.851 28.747,160.052 27.314,160.052 C25.882,160.052 24.720,158.851 24.720,157.370 C24.720,157.370 24.720,149.153 24.720,149.153 C24.720,147.673 25.882,146.473 27.314,146.473 C28.747,146.473 29.908,147.673 29.908,149.153 C29.908,149.153 29.908,157.370 29.908,157.370 Z" id="path-4" class="cls-3" fill-rule="evenodd"/>
    <path d="M138.508,34.889 C140.109,34.805 141.685,34.162 142.901,32.946 C142.901,32.946 159.644,16.202 159.644,16.202 C162.258,13.590 162.258,9.314 159.644,6.700 C159.644,6.700 154.893,1.948 154.893,1.948 C152.280,-0.665 148.003,-0.665 145.389,1.948 C145.389,1.948 128.646,18.692 128.646,18.692 C127.430,19.907 126.787,21.484 126.703,23.084 C126.703,23.084 108.508,4.890 108.508,4.890 C108.508,4.890 92.216,21.180 92.216,21.180 C92.216,21.180 140.412,69.374 140.412,69.374 C140.412,69.374 156.703,53.083 156.703,53.083 C156.703,53.083 138.508,34.889 138.508,34.889 Z" id="path-5" class="cls-7" fill-rule="evenodd"/>
    <path d="M52.167,93.584 C52.167,93.584 83.166,96.299 83.166,96.299 C83.166,96.299 44.474,134.990 44.474,134.990 C44.474,134.990 23.936,138.783 23.936,138.783 C23.936,138.783 27.617,118.133 27.617,118.133 C27.617,118.133 52.167,93.584 52.167,93.584 Z" id="path-6" class="cls-3" fill-rule="evenodd"/>
    <path d="M81.670,98.021 C81.670,98.021 125.365,54.328 125.365,54.328 C125.365,54.328 108.395,37.359 108.395,37.359 C108.395,37.359 52.167,93.584 52.167,93.584 C52.167,93.584 81.670,98.021 81.670,98.021 Z" id="path-7" class="cls-9" fill-rule="evenodd"/>
  </g>
</svg>
