<svg xmlns="http://www.w3.org/2000/svg" xmlns:xlink="http://www.w3.org/1999/xlink" preserveAspectRatio="xMidYMid" width="213" height="217" viewBox="0 0 213 217">
  <defs>
    <style>

      .cls-3 {
        fill: #0cb04a;
      }

      .cls-7 {
        fill: #3e66a5;
        opacity: 0.35;
      }

      .cls-8 {
        fill: #ff3a2f;
      }

      .cls-9 {
        fill: #060606;
        opacity: 0.35;
      }
    </style>
  </defs>
  <g id="group-31svg">
    <path d="M87.850,192.017 C87.850,192.017 71.770,192.017 71.770,192.017 C68.671,192.017 66.157,193.817 66.157,196.037 C66.157,198.257 68.671,200.056 71.770,200.056 C71.770,200.056 72.519,200.056 72.519,200.056 C75.619,200.056 78.132,201.856 78.132,204.076 C78.132,206.296 75.619,208.095 72.519,208.095 C72.519,208.095 37.954,208.095 37.954,208.095 C34.854,208.095 32.340,209.895 32.340,212.115 C32.340,214.335 34.854,216.134 37.954,216.134 C37.954,216.134 79.493,216.134 79.493,216.134 C79.493,216.134 164.396,216.134 164.396,216.134 C167.496,216.134 170.009,214.335 170.009,212.115 C170.009,209.895 167.496,208.095 164.396,208.095 C164.396,208.095 154.803,208.095 154.803,208.095 C151.703,208.095 149.190,206.296 149.190,204.076 C149.190,201.856 151.703,200.056 154.803,200.056 C154.803,200.056 192.480,200.056 192.480,200.056 C195.580,200.056 198.093,198.257 198.093,196.037 C198.093,193.817 195.580,192.017 192.480,192.017 C192.480,192.017 189.668,192.017 189.668,192.017 C189.668,192.017 87.850,192.017 87.850,192.017 Z" id="path-1" class="cls-3" fill-rule="evenodd"/>
    <path d="M186.603,217.210 C184.004,217.210 181.897,215.282 181.897,212.903 C181.897,210.524 184.004,208.595 186.603,208.595 C186.603,208.595 201.025,208.595 201.025,208.595 C203.624,208.595 205.731,210.524 205.731,212.903 C205.731,215.282 203.624,217.210 201.025,217.210 C201.025,217.210 186.603,217.210 186.603,217.210 Z" id="path-2" class="cls-3" fill-rule="evenodd"/>
    <path d="M4.705,217.210 C2.106,217.210 -0.001,215.282 -0.001,212.903 C-0.001,210.524 2.106,208.595 4.705,208.595 C4.705,208.595 19.126,208.595 19.126,208.595 C21.726,208.595 23.833,210.524 23.833,212.903 C23.833,215.282 21.726,217.210 19.126,217.210 C19.126,217.210 4.705,217.210 4.705,217.210 Z" id="path-3" class="cls-3" fill-rule="evenodd"/>
    <path d="M117.998,110.828 C108.597,110.828 100.945,103.176 100.945,93.775 C100.945,93.775 100.945,17.041 100.945,17.041 C100.945,7.632 108.597,-0.011 117.998,-0.011 C127.406,-0.011 135.050,7.632 135.050,17.041 C135.050,17.041 135.050,93.775 135.050,93.775 C135.050,103.176 127.406,110.828 117.998,110.828 Z" id="path-4" class="cls-3" fill-rule="evenodd"/>
    <path d="M125.692,1.906 C126.877,4.229 127.609,6.818 127.609,9.600 C127.609,9.600 127.609,86.334 127.609,86.334 C127.609,95.734 119.965,103.386 110.557,103.386 C107.776,103.386 105.187,102.654 102.865,101.467 C105.689,106.993 111.378,110.827 117.998,110.827 C127.406,110.827 135.050,103.176 135.050,93.775 C135.050,93.775 135.050,17.041 135.050,17.041 C135.050,10.415 131.221,4.729 125.692,1.906 Z" id="path-5" class="cls-7" fill-rule="evenodd"/>
    <path d="M117.998,204.614 C66.291,204.614 24.208,162.541 24.208,110.828 C24.208,74.913 45.249,41.687 77.798,26.191 C79.130,25.567 80.679,25.658 81.911,26.437 C83.143,27.216 83.892,28.573 83.892,30.038 C83.892,30.038 83.892,59.763 83.892,59.763 C83.892,61.108 83.268,62.370 82.194,63.169 C67.023,74.592 58.313,91.965 58.313,110.828 C58.313,143.733 85.091,170.509 117.998,170.509 C150.913,170.509 177.682,143.733 177.682,110.828 C177.682,91.965 168.981,74.592 153.801,63.169 C152.736,62.370 152.103,61.108 152.103,59.763 C152.103,59.763 152.103,30.038 152.103,30.038 C152.103,28.573 152.852,27.216 154.093,26.437 C155.325,25.658 156.883,25.567 158.199,26.191 C190.754,41.687 211.787,74.913 211.787,110.828 C211.787,162.541 169.722,204.614 117.998,204.614 Z" id="path-6" class="cls-8" fill-rule="evenodd"/>
    <path d="M72.730,52.322 C72.730,53.667 72.107,54.928 71.032,55.728 C55.862,67.151 47.152,84.524 47.152,103.386 C47.152,126.458 60.340,146.475 79.551,156.403 C66.582,145.447 58.314,129.092 58.314,110.827 C58.314,91.965 67.023,74.591 82.194,63.169 C83.269,62.369 83.892,61.108 83.892,59.763 C83.892,59.763 83.892,30.037 83.892,30.037 C83.892,28.573 83.143,27.216 81.911,26.438 C80.679,25.657 79.130,25.567 77.798,26.191 C76.070,27.014 74.392,27.912 72.730,28.833 C72.730,28.833 72.730,52.322 72.730,52.322 Z" id="path-7" class="cls-9" fill-rule="evenodd"/>
    <path d="M164.117,29.275 C186.759,46.840 200.625,74.226 200.625,103.386 C200.625,155.101 158.560,197.173 106.836,197.173 C90.059,197.173 74.308,192.723 60.666,184.970 C76.533,197.268 96.420,204.614 117.998,204.614 C169.722,204.614 211.787,162.541 211.787,110.827 C211.787,77.140 193.280,45.818 164.117,29.275 Z" id="path-8" class="cls-9" fill-rule="evenodd"/>
  </g>
</svg>
