<svg xmlns="http://www.w3.org/2000/svg" xmlns:xlink="http://www.w3.org/1999/xlink" preserveAspectRatio="xMidYMid" width="190" height="218" viewBox="0 0 190 218">
  <defs>
    <style>

      .cls-3 {
        fill: #ff3a2f;
      }

      .cls-5 {
        fill: #142a3b;
      }

      .cls-7 {
        fill: #000000;
        opacity: 0.35;
      }

      .cls-8 {
        fill: #fbb713;
      }

      .cls-12 {
        fill: #2476ff;
      }

      .cls-13 {
        fill: #221e1f;
      }
    </style>
  </defs>
  <g id="group-107svg">
    <path d="M59.465,190.729 C59.465,190.729 42.810,190.729 42.810,190.729 C39.599,190.729 36.995,192.706 36.995,195.146 C36.995,197.584 39.599,199.561 42.810,199.561 C42.810,199.561 43.585,199.561 43.585,199.561 C46.796,199.561 49.400,201.539 49.400,203.977 C49.400,206.417 46.796,208.393 43.585,208.393 C43.585,208.393 7.781,208.393 7.781,208.393 C4.570,208.393 1.967,210.372 1.967,212.810 C1.967,215.248 4.570,217.225 7.781,217.225 C7.781,217.225 50.808,217.225 50.808,217.225 C50.808,217.225 138.755,217.225 138.755,217.225 C141.966,217.225 144.569,215.248 144.569,212.810 C144.569,210.372 141.966,208.393 138.755,208.393 C138.755,208.393 128.818,208.393 128.818,208.393 C125.607,208.393 123.004,206.417 123.004,203.977 C123.004,201.539 125.607,199.561 128.818,199.561 C128.818,199.561 167.845,199.561 167.845,199.561 C171.057,199.561 173.659,197.584 173.659,195.146 C173.659,192.706 171.057,190.729 167.845,190.729 C167.845,190.729 164.932,190.729 164.932,190.729 C164.932,190.729 59.465,190.729 59.465,190.729 Z" id="path-1" class="cls-3" fill-rule="evenodd"/>
    <path d="M34.916,174.068 C34.916,174.068 39.666,174.068 39.666,174.068 C40.582,174.068 41.324,173.252 41.324,172.244 C41.324,171.236 40.582,170.420 39.666,170.420 C39.666,170.420 39.445,170.420 39.445,170.420 C38.529,170.420 37.787,169.603 37.787,168.594 C37.787,167.586 38.529,166.769 39.445,166.769 C39.445,166.769 49.657,166.769 49.657,166.769 C50.573,166.769 51.315,165.953 51.315,164.945 C51.315,163.936 50.573,163.119 49.657,163.119 C49.657,163.119 37.385,163.119 37.385,163.119 C37.385,163.119 12.302,163.119 12.302,163.119 C11.386,163.119 10.644,163.936 10.644,164.945 C10.644,165.953 11.386,166.769 12.302,166.769 C12.302,166.769 15.136,166.769 15.136,166.769 C16.052,166.769 16.794,167.586 16.794,168.594 C16.794,169.603 16.052,170.420 15.136,170.420 C15.136,170.420 1.649,170.420 1.649,170.420 C0.733,170.420 -0.010,171.236 -0.010,172.244 C-0.010,173.252 0.733,174.068 1.649,174.068 C1.649,174.068 4.836,174.068 4.836,174.068 C4.836,174.068 34.916,174.068 34.916,174.068 Z" id="path-2" class="cls-3" fill-rule="evenodd"/>
    <path d="M190.103,158.209 C190.103,158.209 159.500,158.209 159.500,158.209 C159.500,158.209 159.500,92.930 159.500,92.930 C159.500,92.930 190.103,92.930 190.103,92.930 C190.103,92.930 190.103,158.209 190.103,158.209 ZM166.741,150.969 C166.741,150.969 182.862,150.969 182.862,150.969 C182.862,150.969 182.862,100.171 182.862,100.171 C182.862,100.171 166.741,100.171 166.741,100.171 C166.741,100.171 166.741,150.969 166.741,150.969 Z" id="path-3" class="cls-5" fill-rule="evenodd"/>
    <path d="M166.083,173.589 C166.083,182.745 158.623,190.172 149.421,190.172 C149.421,190.172 74.445,190.172 74.445,190.172 C65.244,190.172 57.784,182.745 57.784,173.589 C57.784,173.589 57.784,82.386 57.784,82.386 C57.784,82.386 166.083,82.386 166.083,82.386 C166.083,82.386 166.083,173.589 166.083,173.589 Z" id="path-4" class="cls-5" fill-rule="evenodd"/>
    <path d="M148.316,82.386 C148.316,82.386 148.316,161.705 148.316,161.705 C148.316,170.860 140.855,178.287 131.654,178.287 C131.654,178.287 58.473,178.287 58.473,178.287 C60.510,185.154 66.885,190.172 74.445,190.172 C74.445,190.172 149.421,190.172 149.421,190.172 C158.623,190.172 166.083,182.745 166.083,173.589 C166.083,173.589 166.083,82.386 166.083,82.386 C166.083,82.386 148.316,82.386 148.316,82.386 Z" id="path-5" class="cls-7" fill-rule="evenodd"/>
    <path d="M148.433,0.004 C157.032,13.052 144.293,20.211 141.326,27.213 C138.184,34.630 141.242,41.737 148.698,44.863 C172.861,55.002 180.051,7.620 148.433,0.004 Z" id="path-6" class="cls-8" fill-rule="evenodd"/>
    <path d="M141.090,82.386 C141.090,82.386 154.758,46.370 154.758,46.370 C154.758,46.370 146.167,43.521 146.167,43.521 C146.167,43.521 124.429,82.386 124.429,82.386 C124.429,82.386 141.090,82.386 141.090,82.386 Z" id="path-7" class="cls-5" fill-rule="evenodd"/>
    <path d="M99.437,82.386 C99.437,82.386 74.445,82.386 74.445,82.386 C74.445,82.386 61.949,57.513 61.949,57.513 C61.949,57.513 57.784,32.639 57.784,32.639 C57.784,32.639 78.610,45.076 78.610,45.076 C78.610,45.076 99.437,82.386 99.437,82.386 Z" id="path-8" class="cls-3" fill-rule="evenodd"/>
    <path d="M65.130,58.763 C64.025,58.763 62.936,58.260 62.225,57.308 C61.028,55.706 61.357,53.439 62.960,52.242 C62.960,52.242 72.874,44.840 72.874,44.840 C74.478,43.642 76.747,43.975 77.940,45.576 C79.138,47.177 78.809,49.445 77.205,50.642 C77.205,50.642 67.291,58.043 67.291,58.043 C66.643,58.530 65.882,58.763 65.130,58.763 Z" id="path-9" class="cls-5" fill-rule="evenodd"/>
    <path d="M122.729,82.386 C122.729,82.386 122.729,46.971 122.729,46.971 C122.729,46.971 111.707,25.431 111.707,25.431 C111.707,25.431 101.976,48.714 101.976,48.714 C101.976,48.714 101.976,82.386 101.976,82.386 C101.976,82.386 122.729,82.386 122.729,82.386 Z" id="path-10" class="cls-12" fill-rule="evenodd"/>
    <path d="M120.064,54.136 C120.064,54.136 105.485,54.136 105.485,54.136 C103.486,54.136 101.864,52.517 101.864,50.516 C101.864,48.517 103.486,46.896 105.485,46.896 C105.485,46.896 120.064,46.896 120.064,46.896 C122.063,46.896 123.685,48.517 123.685,50.516 C123.685,52.517 122.063,54.136 120.064,54.136 Z" id="path-11" class="cls-13" fill-rule="evenodd"/>
  </g>
</svg>
