<svg xmlns="http://www.w3.org/2000/svg" xmlns:xlink="http://www.w3.org/1999/xlink" preserveAspectRatio="xMidYMid" width="217" height="177" viewBox="0 0 217 177">
  <defs>
    <style>

      .cls-3 {
        fill: #ff3a2f;
      }

      .cls-6 {
        fill: #142a3b;
      }

      .cls-7 {
        fill: #040404;
        opacity: 0.35;
      }

      .cls-8 {
        fill: #2476ff;
      }

      .cls-9 {
        fill: #ededed;
      }

      .cls-10 {
        fill: #010101;
        opacity: 0.25;
      }
    </style>
  </defs>
  <g id="group-5svg">
    <path d="M69.998,161.562 C69.998,161.562 84.252,161.562 84.252,161.562 C87.000,161.562 89.228,162.562 89.228,163.796 C89.228,165.031 87.000,166.030 84.252,166.030 C84.252,166.030 83.589,166.030 83.589,166.030 C80.840,166.030 78.612,167.030 78.612,168.265 C78.612,169.499 80.840,170.499 83.589,170.499 C83.589,170.499 114.229,170.499 114.229,170.499 C116.977,170.499 119.205,171.499 119.205,172.732 C119.205,173.967 116.977,174.967 114.229,174.967 C114.229,174.967 77.407,174.967 77.407,174.967 C77.407,174.967 36.935,174.967 36.935,174.967 C34.187,174.967 31.959,173.967 31.959,172.732 C31.959,171.499 34.187,170.499 36.935,170.499 C36.935,170.499 45.439,170.499 45.439,170.499 C48.187,170.499 50.415,169.499 50.415,168.265 C50.415,167.030 48.187,166.030 45.439,166.030 C45.439,166.030 4.968,166.030 4.968,166.030 C2.220,166.030 -0.008,165.031 -0.008,163.796 C-0.008,162.562 2.220,161.562 4.968,161.562 C4.968,161.562 14.533,161.562 14.533,161.562 C14.533,161.562 69.998,161.562 69.998,161.562 Z" id="path-1" class="cls-3" fill-rule="evenodd"/>
    <path d="M158.218,176.901 C161.356,176.901 163.899,175.758 163.899,174.349 C163.899,172.941 161.356,171.798 158.218,171.798 C158.218,171.798 140.807,171.798 140.807,171.798 C137.669,171.798 135.125,172.941 135.125,174.349 C135.125,175.758 137.669,176.901 140.807,176.901 C140.807,176.901 158.218,176.901 158.218,176.901 Z" id="path-2" class="cls-3" fill-rule="evenodd"/>
    <path d="M171.696,141.493 C171.696,141.493 178.241,141.493 178.241,141.493 C179.503,141.493 180.526,142.060 180.526,142.760 C180.526,143.460 179.503,144.028 178.241,144.028 C178.241,144.028 177.937,144.028 177.937,144.028 C176.675,144.028 175.652,144.596 175.652,145.295 C175.652,145.995 176.675,146.563 177.937,146.563 C177.937,146.563 192.007,146.563 192.007,146.563 C193.268,146.563 194.291,147.130 194.291,147.830 C194.291,148.530 193.268,149.097 192.007,149.097 C192.007,149.097 175.098,149.097 175.098,149.097 C175.098,149.097 140.539,149.097 140.539,149.097 C139.277,149.097 138.254,148.530 138.254,147.830 C138.254,147.130 139.277,146.563 140.539,146.563 C140.539,146.563 144.443,146.563 144.443,146.563 C145.705,146.563 146.728,145.995 146.728,145.295 C146.728,144.596 145.705,144.028 144.443,144.028 C144.443,144.028 125.860,144.028 125.860,144.028 C124.598,144.028 123.575,143.460 123.575,142.760 C123.575,142.060 124.598,141.493 125.860,141.493 C125.860,141.493 130.252,141.493 130.252,141.493 C130.252,141.493 171.696,141.493 171.696,141.493 Z" id="path-3" class="cls-3" fill-rule="evenodd"/>
    <path d="M111.577,105.618 C109.985,104.027 108.559,102.338 107.212,100.607 C107.212,100.607 52.984,154.833 52.984,154.833 C52.984,154.833 62.360,164.209 62.360,164.209 C62.360,164.209 116.588,109.984 116.588,109.984 C114.857,108.637 113.168,107.210 111.577,105.618 Z" id="path-4" class="cls-6" fill-rule="evenodd"/>
    <path d="M111.753,105.443 C110.161,103.852 108.664,102.233 107.212,100.607 C107.212,100.607 91.082,116.736 91.082,116.736 C91.082,116.736 94.163,132.408 94.163,132.408 C94.163,132.408 116.588,109.984 116.588,109.984 C114.961,108.532 113.344,107.033 111.753,105.443 Z" id="path-5" class="cls-7" fill-rule="evenodd"/>
    <path d="M197.286,116.164 C170.705,142.743 127.610,142.743 101.030,116.164 C74.450,89.584 74.450,46.492 101.030,19.912 C127.610,-6.667 170.705,-6.667 197.286,19.912 C223.866,46.492 223.866,89.584 197.286,116.164 Z" id="path-6" class="cls-8" fill-rule="evenodd"/>
    <path d="M186.872,105.751 C166.043,126.579 132.273,126.579 111.444,105.751 C90.616,84.923 90.616,51.154 111.444,30.326 C132.273,9.498 166.043,9.498 186.872,30.326 C207.701,51.154 207.701,84.923 186.872,105.751 Z" id="path-7" class="cls-9" fill-rule="evenodd"/>
    <path d="M114.159,38.470 C134.988,17.643 168.758,17.643 189.587,38.470 C194.531,43.414 198.262,49.101 200.859,55.157 C198.602,46.062 193.981,37.435 186.872,30.326 C166.043,9.498 132.273,9.498 111.444,30.326 C95.560,46.209 91.828,69.606 100.172,89.064 C95.817,71.512 100.439,52.190 114.159,38.470 Z" id="path-8" class="cls-10" fill-rule="evenodd"/>
  </g>
</svg>
