<svg xmlns="http://www.w3.org/2000/svg" xmlns:xlink="http://www.w3.org/1999/xlink" preserveAspectRatio="xMidYMid" width="217" height="186" viewBox="0 0 217 186">
  <defs>
    <style>

      .cls-3 {
        fill: #fbb713;
      }

      .cls-6 {
        fill: #142a3b;
      }

      .cls-7 {
        fill: #020403;
        opacity: 0.3;
      }

      .cls-13 {
        fill: #ededed;
      }
    </style>
  </defs>
  <g id="group-15svg">
    <path d="M92.758,164.788 C92.758,164.788 75.780,164.788 75.780,164.788 C72.507,164.788 69.853,166.307 69.853,168.182 C69.853,170.056 72.507,171.576 75.780,171.576 C75.780,171.576 76.570,171.576 76.570,171.576 C79.844,171.576 82.497,173.095 82.497,174.969 C82.497,176.843 79.844,178.363 76.570,178.363 C76.570,178.363 40.074,178.363 40.074,178.363 C36.800,178.363 34.146,179.882 34.146,181.757 C34.146,183.632 36.800,185.152 40.074,185.152 C40.074,185.152 83.933,185.152 83.933,185.152 C83.933,185.152 173.581,185.152 173.581,185.152 C176.855,185.152 179.508,183.632 179.508,181.757 C179.508,179.882 176.855,178.363 173.581,178.363 C173.581,178.363 163.452,178.363 163.452,178.363 C160.179,178.363 157.526,176.843 157.526,174.969 C157.526,173.095 160.179,171.576 163.452,171.576 C163.452,171.576 203.234,171.576 203.234,171.576 C206.508,171.576 209.162,170.056 209.162,168.182 C209.162,166.307 206.508,164.788 203.234,164.788 C203.234,164.788 200.265,164.788 200.265,164.788 C200.265,164.788 92.758,164.788 92.758,164.788 Z" id="path-1" class="cls-3" fill-rule="evenodd"/>
    <path d="M197.029,186.060 C194.285,186.060 192.060,184.432 192.060,182.423 C192.060,180.414 194.285,178.785 197.029,178.785 C197.029,178.785 212.257,178.785 212.257,178.785 C215.001,178.785 217.226,180.414 217.226,182.423 C217.226,184.432 215.001,186.060 212.257,186.060 C212.257,186.060 197.029,186.060 197.029,186.060 Z" id="path-2" class="cls-3" fill-rule="evenodd"/>
    <path d="M4.966,186.060 C2.222,186.060 -0.003,184.432 -0.003,182.423 C-0.003,180.414 2.222,178.785 4.966,178.785 C4.966,178.785 20.194,178.785 20.194,178.785 C22.939,178.785 25.163,180.414 25.163,182.423 C25.163,184.432 22.939,186.060 20.194,186.060 C20.194,186.060 4.966,186.060 4.966,186.060 Z" id="path-3" class="cls-3" fill-rule="evenodd"/>
    <path d="M144.147,0.007 C144.147,0.007 104.883,0.007 104.883,0.007 C99.059,0.007 94.587,4.782 94.479,10.605 C94.375,16.257 89.759,20.808 84.080,20.808 C84.080,20.808 58.406,20.808 58.406,20.808 C54.147,20.808 50.064,22.500 47.053,25.511 C47.053,25.511 22.475,50.087 22.475,50.087 C19.464,53.099 17.772,57.182 17.772,61.441 C17.772,61.441 17.772,161.220 17.772,161.220 C17.772,166.964 22.429,171.621 28.173,171.621 C28.173,171.621 144.147,171.621 144.147,171.621 C149.892,171.621 154.548,166.964 154.548,161.220 C154.548,161.220 154.548,23.928 154.548,23.928 C154.548,23.928 154.548,20.808 154.548,20.808 C154.548,20.808 154.548,10.408 154.548,10.408 C154.548,4.663 149.892,0.007 144.147,0.007 ZM137.386,20.808 C137.386,20.808 114.504,20.808 114.504,20.808 C112.206,20.808 110.343,18.946 110.343,16.648 C110.343,14.351 112.206,12.487 114.504,12.487 C114.504,12.487 137.386,12.487 137.386,12.487 C139.684,12.487 141.547,14.351 141.547,16.648 C141.547,18.946 139.684,20.808 137.386,20.808 Z" id="path-4" class="cls-6" fill-rule="evenodd"/>
    <path d="M49.045,27.049 C49.045,27.049 74.719,27.049 74.719,27.049 C78.990,27.049 82.658,24.472 84.259,20.790 C84.198,20.792 84.141,20.809 84.080,20.809 C84.080,20.809 58.406,20.809 58.406,20.809 C54.147,20.809 50.064,22.500 47.053,25.511 C47.053,25.511 44.900,27.663 44.900,27.663 C46.247,27.302 47.626,27.049 49.045,27.049 Z" id="path-5" class="cls-7" fill-rule="evenodd"/>
    <path d="M144.147,0.007 C144.147,0.007 104.882,0.007 104.882,0.007 C100.611,0.007 97.086,2.587 95.457,6.253 C95.479,6.253 95.499,6.247 95.521,6.247 C95.521,6.247 134.786,6.247 134.786,6.247 C140.531,6.247 145.187,10.905 145.187,16.647 C145.187,16.647 145.187,27.049 145.187,27.049 C145.187,27.049 145.187,30.170 145.187,30.170 C145.187,30.170 145.187,167.461 145.187,167.461 C145.187,168.934 144.872,170.333 144.319,171.604 C149.982,171.510 154.548,166.905 154.548,161.220 C154.548,161.220 154.548,23.928 154.548,23.928 C154.548,23.928 154.548,20.809 154.548,20.809 C154.548,20.809 154.548,10.407 154.548,10.407 C154.548,4.663 149.892,0.007 144.147,0.007 Z" id="path-6" class="cls-7" fill-rule="evenodd"/>
    <path d="M52.183,24.483 C52.183,24.483 23.305,52.483 23.305,52.483 C22.760,53.012 21.889,52.999 21.360,52.453 C21.360,52.453 12.195,43.001 12.195,43.001 C11.666,42.456 11.679,41.586 12.224,41.056 C12.224,41.056 41.103,13.055 41.103,13.055 C41.649,12.527 42.519,12.540 43.048,13.086 C43.048,13.086 52.213,22.538 52.213,22.538 C52.742,23.083 52.728,23.953 52.183,24.483 Z" id="path-7" class="cls-3" fill-rule="evenodd"/>
    <path d="M50.184,20.444 C50.184,20.444 45.077,15.178 45.077,15.178 C43.428,13.477 40.711,13.435 39.010,15.084 C39.010,15.084 38.874,15.217 38.874,15.217 C38.874,15.217 43.942,20.444 43.942,20.444 C45.592,22.146 45.551,24.862 43.850,26.512 C43.850,26.512 19.293,50.321 19.293,50.321 C19.293,50.321 19.331,50.360 19.331,50.360 C20.981,52.061 23.697,52.103 25.398,50.454 C25.398,50.454 50.091,26.512 50.091,26.512 C51.792,24.862 51.833,22.146 50.184,20.444 Z" id="path-8" class="cls-7" fill-rule="evenodd"/>
    <path d="M59.856,133.699 C59.856,133.699 59.856,133.699 59.856,133.699 C59.044,132.886 59.044,131.570 59.856,130.756 C59.856,130.756 122.004,68.611 122.004,68.611 C122.816,67.799 124.133,67.799 124.946,68.611 C124.946,68.611 124.946,68.611 124.946,68.611 C125.758,69.424 125.758,70.741 124.946,71.553 C124.946,71.553 62.798,133.699 62.798,133.699 C61.985,134.511 60.669,134.511 59.856,133.699 Z" id="path-9" class="cls-7" fill-rule="evenodd"/>
    <path d="M124.946,133.699 C124.946,133.699 124.946,133.699 124.946,133.699 C125.758,132.886 125.758,131.570 124.946,130.756 C124.946,130.756 62.798,68.611 62.798,68.611 C61.985,67.799 60.669,67.799 59.856,68.611 C59.856,68.611 59.856,68.611 59.856,68.611 C59.044,69.424 59.044,70.741 59.856,71.553 C59.856,71.553 122.004,133.699 122.004,133.699 C122.816,134.511 124.133,134.511 124.946,133.699 Z" id="path-10" class="cls-7" fill-rule="evenodd"/>
    <path d="M53.615,133.699 C53.615,133.699 53.615,133.699 53.615,133.699 C52.803,132.886 52.803,131.570 53.615,130.756 C53.615,130.756 115.763,68.611 115.763,68.611 C116.575,67.799 117.893,67.799 118.705,68.611 C118.705,68.611 118.705,68.611 118.705,68.611 C119.518,69.424 119.518,70.741 118.705,71.553 C118.705,71.553 56.557,133.699 56.557,133.699 C55.745,134.511 54.427,134.511 53.615,133.699 Z" id="path-11" class="cls-13" fill-rule="evenodd"/>
    <path d="M118.705,133.699 C118.705,133.699 118.705,133.699 118.705,133.699 C119.518,132.886 119.518,131.570 118.705,130.756 C118.705,130.756 56.557,68.611 56.557,68.611 C55.745,67.799 54.427,67.799 53.615,68.611 C53.615,68.611 53.615,68.611 53.615,68.611 C52.803,69.424 52.803,70.741 53.615,71.553 C53.615,71.553 115.763,133.699 115.763,133.699 C116.575,134.511 117.893,134.511 118.705,133.699 Z" id="path-12" class="cls-13" fill-rule="evenodd"/>
  </g>
</svg>
