<svg xmlns="http://www.w3.org/2000/svg" xmlns:xlink="http://www.w3.org/1999/xlink" preserveAspectRatio="xMidYMid" width="213" height="218" viewBox="0 0 213 218">
  <defs>
    <style>

      .cls-3 {
        fill: #ff3a2f;
      }

      .cls-5 {
        fill: #142a3b;
      }

      .cls-6 {
        fill: #000000;
        opacity: 0.35;
      }

      .cls-7 {
        fill: #fbb713;
      }

      .cls-8 {
        fill: #ededed;
      }

      .cls-9 {
        fill: #000000;
        opacity: 0.25;
      }

      .cls-12 {
        fill: #ffffff;
      }
    </style>
  </defs>
  <g id="group-159svg">
    <path d="M103.788,195.239 C103.788,195.239 89.094,195.239 89.094,195.239 C86.262,195.239 83.965,196.809 83.965,198.747 C83.965,200.682 86.262,202.253 89.094,202.253 C89.094,202.253 89.778,202.253 89.778,202.253 C92.611,202.253 94.908,203.822 94.908,205.759 C94.908,207.697 92.611,209.265 89.778,209.265 C89.778,209.265 58.191,209.265 58.191,209.265 C55.358,209.265 53.061,210.837 53.061,212.773 C53.061,214.709 55.358,216.279 58.191,216.279 C58.191,216.279 96.151,216.279 96.151,216.279 C96.151,216.279 173.740,216.279 173.740,216.279 C176.573,216.279 178.870,214.709 178.870,212.773 C178.870,210.837 176.573,209.265 173.740,209.265 C173.740,209.265 164.974,209.265 164.974,209.265 C162.141,209.265 159.844,207.697 159.844,205.759 C159.844,203.822 162.141,202.253 164.974,202.253 C164.974,202.253 199.405,202.253 199.405,202.253 C202.239,202.253 204.535,200.682 204.535,198.747 C204.535,196.809 202.239,195.239 199.405,195.239 C199.405,195.239 196.836,195.239 196.836,195.239 C196.836,195.239 103.788,195.239 103.788,195.239 Z" id="path-1" class="cls-3" fill-rule="evenodd"/>
    <path d="M194.920,217.219 C192.544,217.219 190.619,215.536 190.619,213.460 C190.619,211.385 192.544,209.703 194.920,209.703 C194.920,209.703 208.099,209.703 208.099,209.703 C210.474,209.703 212.399,211.385 212.399,213.460 C212.399,215.536 210.474,217.219 208.099,217.219 C208.099,217.219 194.920,217.219 194.920,217.219 Z" id="path-2" class="cls-3" fill-rule="evenodd"/>
    <path d="M174.535,166.934 C174.535,166.934 14.421,166.934 14.421,166.934 C14.421,166.934 14.421,50.609 14.421,50.609 C14.421,50.609 174.535,50.609 174.535,50.609 C174.535,50.609 174.535,166.934 174.535,166.934 Z" id="path-3" class="cls-5" fill-rule="evenodd"/>
    <path d="M14.421,50.609 C14.421,50.609 14.421,63.417 14.421,63.417 C14.421,63.417 145.714,69.821 145.714,69.821 C145.714,69.821 145.714,166.934 145.714,166.934 C145.714,166.934 174.535,166.934 174.535,166.934 C174.535,166.934 174.535,50.609 174.535,50.609 C174.535,50.609 14.421,50.609 14.421,50.609 Z" id="path-4" class="cls-6" fill-rule="evenodd"/>
    <path d="M152.163,-0.003 C152.163,-0.003 36.793,-0.003 36.793,-0.003 C16.479,-0.003 0.011,24.370 0.011,54.434 C0.011,54.434 188.945,54.434 188.945,54.434 C188.945,24.370 172.477,-0.003 152.163,-0.003 Z" id="path-5" class="cls-7" fill-rule="evenodd"/>
    <path d="M12.908,37.766 C12.432,37.766 11.948,37.672 11.483,37.472 C9.647,36.684 8.795,34.556 9.583,32.717 C16.337,16.959 28.283,6.091 40.755,4.361 C42.719,4.078 44.561,5.470 44.839,7.452 C45.113,9.432 43.730,11.259 41.748,11.534 C31.776,12.917 22.000,22.128 16.236,35.571 C15.650,36.944 14.312,37.766 12.908,37.766 Z" id="path-6" class="cls-8" fill-rule="evenodd"/>
    <path d="M152.163,-0.003 C152.163,-0.003 120.141,-0.003 120.141,-0.003 C140.454,-0.003 156.922,24.370 156.922,54.434 C156.922,54.434 188.945,54.434 188.945,54.434 C188.945,24.370 172.477,-0.003 152.163,-0.003 Z" id="path-7" class="cls-9" fill-rule="evenodd"/>
    <path d="M0.034,164.404 C0.032,164.558 0.011,164.708 0.011,164.863 C0.011,185.176 16.479,201.645 36.793,201.645 C36.793,201.645 152.163,201.645 152.163,201.645 C172.477,201.645 188.945,185.176 188.945,164.863 C188.945,164.708 188.924,164.558 188.921,164.404 C188.921,164.404 0.034,164.404 0.034,164.404 Z" id="path-8" class="cls-7" fill-rule="evenodd"/>
    <path d="M188.921,164.404 C188.921,164.404 160.102,164.404 160.102,164.404 C160.103,164.558 160.124,164.708 160.124,164.863 C160.124,185.176 143.656,201.644 123.343,201.644 C123.343,201.644 152.163,201.644 152.163,201.644 C172.477,201.644 188.945,185.176 188.945,164.863 C188.945,164.708 188.924,164.558 188.921,164.404 Z" id="path-9" class="cls-9" fill-rule="evenodd"/>
    <path d="M80.068,70.445 C80.068,70.445 108.888,70.445 108.888,70.445 C118.615,70.445 126.501,62.560 126.501,52.833 C126.501,52.833 62.455,52.833 62.455,52.833 C62.455,62.560 70.340,70.445 80.068,70.445 Z" id="path-10" class="cls-12" fill-rule="evenodd"/>
    <path d="M113.691,52.833 C113.691,62.560 105.806,70.445 96.079,70.445 C96.079,70.445 108.888,70.445 108.888,70.445 C118.615,70.445 126.501,62.560 126.501,52.833 C126.501,52.833 113.691,52.833 113.691,52.833 Z" id="path-11" class="cls-9" fill-rule="evenodd"/>
    <path d="M130.103,44.204 C130.103,44.204 71.662,44.204 71.662,44.204 C71.662,44.204 71.662,20.812 71.662,20.812 C71.662,20.812 130.103,20.812 130.103,20.812 C130.103,20.812 130.103,44.204 130.103,44.204 Z" id="path-12" class="cls-6" fill-rule="evenodd"/>
    <path d="M123.698,41.002 C123.698,41.002 65.257,41.002 65.257,41.002 C65.257,41.002 65.257,17.609 65.257,17.609 C65.257,17.609 123.698,17.609 123.698,17.609 C123.698,17.609 123.698,41.002 123.698,41.002 Z" id="path-13" class="cls-3" fill-rule="evenodd"/>
    <path d="M118.330,147.151 C126.758,149.310 135.340,144.228 137.498,135.799 C139.657,127.372 134.575,118.790 126.147,116.631 C126.147,116.631 117.348,114.377 117.348,114.377 C117.348,114.377 115.286,122.427 115.286,122.427 C115.286,122.427 124.085,124.680 124.085,124.680 C128.068,125.701 130.469,129.756 129.449,133.739 C128.429,137.719 124.374,140.122 120.391,139.102 C120.391,139.102 111.592,136.849 111.592,136.849 C111.592,136.849 109.531,144.898 109.531,144.898 C109.531,144.898 118.330,147.151 118.330,147.151 Z" id="path-14" class="cls-12" fill-rule="evenodd"/>
    <path d="M53.455,112.577 C53.455,139.383 65.505,161.113 80.370,161.113 C80.370,161.113 96.849,161.113 96.849,161.113 C111.713,161.113 123.764,139.383 123.764,112.577 C123.764,112.577 53.455,112.577 53.455,112.577 Z" id="path-15" class="cls-12" fill-rule="evenodd"/>
    <path d="M104.550,112.577 C104.550,138.551 93.228,159.696 79.002,160.989 C79.459,161.030 79.908,161.113 80.370,161.113 C80.370,161.113 96.849,161.113 96.849,161.113 C111.713,161.113 123.764,139.383 123.764,112.577 C123.764,112.577 104.550,112.577 104.550,112.577 Z" id="path-16" class="cls-9" fill-rule="evenodd"/>
    <path d="M133.025,190.526 C133.025,190.526 55.931,190.526 55.931,190.526 C55.931,190.526 55.931,183.024 55.931,183.024 C55.931,183.024 133.025,183.024 133.025,183.024 C133.025,183.024 133.025,190.526 133.025,190.526 Z" id="path-17" class="cls-5" fill-rule="evenodd"/>
  </g>
</svg>
