<svg xmlns="http://www.w3.org/2000/svg" xmlns:xlink="http://www.w3.org/1999/xlink" preserveAspectRatio="xMidYMid" width="217" height="164" viewBox="0 0 217 164">
  <defs>
    <style>

      .cls-3 {
        fill: #142a3b;
      }

      .cls-5 {
        fill: #fbb713;
      }

      .cls-6 {
        fill: #000000;
        opacity: 0.45;
      }

      .cls-9 {
        fill: #000000;
        opacity: 0.2;
      }

      .cls-10 {
        fill: #2476ff;
      }

      .cls-12 {
        fill: #000000;
        opacity: 0.25;
      }
    </style>
  </defs>
  <g id="group-123svg">
    <path d="M55.246,137.625 C55.246,137.625 39.242,137.625 39.242,137.625 C36.157,137.625 33.656,139.518 33.656,141.854 C33.656,144.189 36.157,146.082 39.242,146.082 C39.242,146.082 39.988,146.082 39.988,146.082 C43.073,146.082 45.575,147.976 45.575,150.311 C45.575,152.646 43.073,154.539 39.988,154.539 C39.988,154.539 5.585,154.539 5.585,154.539 C2.499,154.539 -0.003,156.433 -0.003,158.769 C-0.003,161.103 2.499,162.997 5.585,162.997 C5.585,162.997 46.928,162.997 46.928,162.997 C46.928,162.997 131.434,162.997 131.434,162.997 C134.520,162.997 137.021,161.103 137.021,158.769 C137.021,156.433 134.520,154.539 131.434,154.539 C131.434,154.539 121.886,154.539 121.886,154.539 C118.801,154.539 116.299,152.646 116.299,150.311 C116.299,147.976 118.801,146.082 121.886,146.082 C121.886,146.082 159.386,146.082 159.386,146.082 C162.472,146.082 164.973,144.189 164.973,141.854 C164.973,139.518 162.472,137.625 159.386,137.625 C159.386,137.625 156.588,137.625 156.588,137.625 C156.588,137.625 55.246,137.625 55.246,137.625 Z" id="path-1" class="cls-3" fill-rule="evenodd"/>
    <path d="M154.501,164.129 C151.914,164.129 149.817,162.099 149.817,159.598 C149.817,157.095 151.914,155.065 154.501,155.065 C154.501,155.065 168.855,155.065 168.855,155.065 C171.442,155.065 173.539,157.095 173.539,159.598 C173.539,162.099 171.442,164.129 168.855,164.129 C168.855,164.129 154.501,164.129 154.501,164.129 Z" id="path-2" class="cls-3" fill-rule="evenodd"/>
    <path d="M185.563,36.526 C185.563,36.526 216.937,-0.010 216.937,-0.010 C216.937,-0.010 217.226,83.983 217.226,83.983 C217.226,84.660 217.048,85.330 216.712,85.914 C216.712,85.914 185.563,140.424 185.563,140.424 C185.563,140.424 185.563,36.526 185.563,36.526 C185.563,36.526 185.563,36.526 185.563,36.526 Z" id="path-3" class="cls-5" fill-rule="evenodd"/>
    <path d="M185.563,36.526 C185.563,36.526 216.937,-0.010 216.937,-0.010 C216.937,-0.010 217.226,83.983 217.226,83.983 C217.226,84.660 217.048,85.330 216.712,85.914 C216.712,85.914 185.563,140.424 185.563,140.424 C185.563,140.424 185.563,36.526 185.563,36.526 C185.563,36.526 185.563,36.526 185.563,36.526 Z" id="path-4" class="cls-6" fill-rule="evenodd"/>
    <path d="M61.478,36.526 C61.478,36.526 107.670,-0.010 107.670,-0.010 C107.670,-0.010 216.937,-0.010 216.937,-0.010 C216.937,-0.010 185.736,36.526 185.736,36.526 C185.736,36.526 61.478,36.526 61.478,36.526 Z" id="path-5" class="cls-5" fill-rule="evenodd"/>
    <path d="M185.563,140.424 C185.563,140.424 61.478,140.424 61.478,140.424 C61.478,140.424 61.478,36.526 61.478,36.526 C61.478,36.526 185.563,36.526 185.563,36.526 C185.563,36.526 185.563,140.424 185.563,140.424 Z" id="path-6" class="cls-5" fill-rule="evenodd"/>
    <path d="M185.563,140.424 C185.563,140.424 61.478,140.424 61.478,140.424 C61.478,140.424 61.478,36.526 61.478,36.526 C61.478,36.526 185.563,36.526 185.563,36.526 C185.563,36.526 185.563,140.424 185.563,140.424 Z" id="path-7" class="cls-9" fill-rule="evenodd"/>
    <path d="M115.763,36.526 C115.763,36.526 152.069,0.220 152.069,0.220 C152.069,0.220 169.455,0.220 169.455,0.220 C169.455,0.220 133.529,36.526 133.529,36.526 C133.529,36.526 115.763,36.526 115.763,36.526 Z" id="path-8" class="cls-10" fill-rule="evenodd"/>
    <path d="M133.529,36.526 C133.529,36.526 133.529,140.424 133.529,140.424 C133.529,140.424 115.763,140.424 115.763,140.424 C115.763,140.424 115.763,36.526 115.763,36.526 C115.763,36.526 133.529,36.526 133.529,36.526 Z" id="path-9" class="cls-10" fill-rule="evenodd"/>
    <path d="M133.529,36.526 C133.529,36.526 133.529,140.424 133.529,140.424 C133.529,140.424 115.763,140.424 115.763,140.424 C115.763,140.424 115.763,36.526 115.763,36.526 C115.763,36.526 133.529,36.526 133.529,36.526 Z" id="path-10" class="cls-12" fill-rule="evenodd"/>
  </g>
</svg>
