<svg xmlns="http://www.w3.org/2000/svg" xmlns:xlink="http://www.w3.org/1999/xlink" preserveAspectRatio="xMidYMid" width="217" height="175" viewBox="0 0 217 175">
  <defs>
    <style>

      .cls-3 {
        fill: #ff3a2f;
      }

      .cls-6 {
        fill: #fbb713;
      }

      .cls-9 {
        fill: #000000;
        opacity: 0.2;
      }

      .cls-12 {
        fill: #000000;
        opacity: 0.35;
      }

      .cls-14 {
        fill: #000000;
        opacity: 0.1;
      }
    </style>
  </defs>
  <g id="group-43svg">
    <path d="M152.199,174.708 C152.199,174.708 166.657,174.708 166.657,174.708 C169.443,174.708 171.704,173.396 171.704,171.778 C171.704,170.159 169.443,168.848 166.657,168.848 C166.657,168.848 165.984,168.848 165.984,168.848 C163.196,168.848 160.936,167.536 160.936,165.918 C160.936,164.299 163.196,162.988 165.984,162.988 C165.984,162.988 197.062,162.988 197.062,162.988 C199.850,162.988 202.110,161.676 202.110,160.057 C202.110,158.439 199.850,157.127 197.062,157.127 C197.062,157.127 159.714,157.127 159.714,157.127 C159.714,157.127 83.373,157.127 83.373,157.127 C80.586,157.127 78.326,158.439 78.326,160.057 C78.326,161.676 80.586,162.988 83.373,162.988 C83.373,162.988 91.998,162.988 91.998,162.988 C94.786,162.988 97.046,164.299 97.046,165.918 C97.046,167.536 94.786,168.848 91.998,168.848 C91.998,168.848 50.948,168.848 50.948,168.848 C48.161,168.848 45.901,170.159 45.901,171.778 C45.901,173.396 48.161,174.708 50.948,174.708 C50.948,174.708 60.651,174.708 60.651,174.708 C60.651,174.708 152.199,174.708 152.199,174.708 Z" id="path-1" class="cls-3" fill-rule="evenodd"/>
    <path d="M56.177,146.316 C56.177,146.316 63.818,146.316 63.818,146.316 C65.292,146.316 66.486,145.271 66.486,143.982 C66.486,142.693 65.292,141.648 63.818,141.648 C63.818,141.648 63.463,141.648 63.463,141.648 C61.989,141.648 60.795,140.602 60.795,139.314 C60.795,138.025 61.989,136.980 63.463,136.980 C63.463,136.980 79.888,136.980 79.888,136.980 C81.362,136.980 82.556,135.934 82.556,134.645 C82.556,133.356 81.362,132.311 79.888,132.311 C79.888,132.311 60.149,132.311 60.149,132.311 C60.149,132.311 19.801,132.311 19.801,132.311 C18.329,132.311 17.134,133.356 17.134,134.645 C17.134,135.934 18.329,136.980 19.801,136.980 C19.801,136.980 24.360,136.980 24.360,136.980 C25.833,136.980 27.028,138.025 27.028,139.314 C27.028,140.602 25.833,141.648 24.360,141.648 C24.360,141.648 2.664,141.648 2.664,141.648 C1.191,141.648 -0.003,142.693 -0.003,143.982 C-0.003,145.271 1.191,146.316 2.664,146.316 C2.664,146.316 7.792,146.316 7.792,146.316 C7.792,146.316 56.177,146.316 56.177,146.316 Z" id="path-2" class="cls-3" fill-rule="evenodd"/>
    <path d="M57.506,156.924 C60.645,156.924 63.190,158.370 63.190,160.154 C63.190,161.937 60.645,163.383 57.506,163.383 C57.506,163.383 40.089,163.383 40.089,163.383 C36.949,163.383 34.405,161.937 34.405,160.154 C34.405,158.370 36.949,156.924 40.089,156.924 C40.089,156.924 57.506,156.924 57.506,156.924 Z" id="path-3" class="cls-3" fill-rule="evenodd"/>
    <path d="M73.098,0.013 C73.098,0.013 82.591,34.591 82.591,34.591 C82.591,34.591 25.682,30.673 25.682,30.673 C25.517,30.673 25.382,30.256 25.218,30.267 C25.218,30.267 73.098,0.013 73.098,0.013 Z" id="path-4" class="cls-6" fill-rule="evenodd"/>
    <path d="M217.226,31.483 C217.226,31.483 160.187,31.483 160.187,31.483 C160.187,31.483 169.466,0.013 169.466,0.013 C169.466,0.013 217.226,31.483 217.226,31.483 Z" id="path-5" class="cls-6" fill-rule="evenodd"/>
    <path d="M159.974,34.591 C159.974,34.591 82.591,34.591 82.591,34.591 C82.591,34.591 73.098,0.013 73.098,0.013 C73.098,0.013 169.466,0.013 169.466,0.013 C169.466,0.013 159.974,34.591 159.974,34.591 Z" id="path-6" class="cls-6" fill-rule="evenodd"/>
    <path d="M159.974,34.591 C159.974,34.591 82.591,34.591 82.591,34.591 C82.591,34.591 73.098,0.013 73.098,0.013 C73.098,0.013 169.466,0.013 169.466,0.013 C169.466,0.013 159.974,34.591 159.974,34.591 Z" id="path-7" class="cls-9" fill-rule="evenodd"/>
    <path d="M160.187,31.483 C160.187,31.483 121.988,161.336 121.988,161.336 C121.988,161.336 82.723,30.673 82.723,30.673 C82.723,30.673 160.187,31.483 160.187,31.483 Z" id="path-8" class="cls-6" fill-rule="evenodd"/>
    <path d="M82.723,30.673 C82.723,30.673 121.988,161.336 121.988,161.336 C121.988,161.336 25.682,30.673 25.682,30.673 C25.682,30.673 82.723,30.673 82.723,30.673 Z" id="path-9" class="cls-6" fill-rule="evenodd"/>
    <path d="M82.723,30.673 C82.723,30.673 121.988,161.336 121.988,161.336 C121.988,161.336 25.682,30.673 25.682,30.673 C25.682,30.673 82.723,30.673 82.723,30.673 Z" id="path-10" class="cls-12" fill-rule="evenodd"/>
    <path d="M160.187,31.483 C160.187,31.483 217.226,31.483 217.226,31.483 C217.226,31.483 121.988,161.336 121.988,161.336 C121.988,161.336 160.187,31.483 160.187,31.483 Z" id="path-11" class="cls-6" fill-rule="evenodd"/>
    <path d="M160.187,31.483 C160.187,31.483 217.226,31.483 217.226,31.483 C217.226,31.483 121.988,161.336 121.988,161.336 C121.988,161.336 160.187,31.483 160.187,31.483 Z" id="path-12" class="cls-14" fill-rule="evenodd"/>
  </g>
</svg>
