<svg xmlns="http://www.w3.org/2000/svg" xmlns:xlink="http://www.w3.org/1999/xlink" preserveAspectRatio="xMidYMid" width="218" height="129" viewBox="0 0 218 129">
  <defs>
    <style>

      .cls-3 {
        fill: #0cb04a;
      }

      .cls-6 {
        fill: #142a3b;
      }

      .cls-7 {
        fill: #fbb713;
      }

      .cls-9 {
        fill: #090908;
        opacity: 0.25;
      }

      .cls-10 {
        fill: #010101;
        opacity: 0.3;
      }

      .cls-12 {
        fill: #090908;
        opacity: 0.35;
      }
    </style>
  </defs>
  <g id="group-6svg">
    <path d="M104.359,114.522 C104.359,114.522 117.303,114.522 117.303,114.522 C119.799,114.522 121.822,115.431 121.822,116.552 C121.822,117.672 119.799,118.580 117.303,118.580 C117.303,118.580 116.701,118.580 116.701,118.580 C114.205,118.580 112.182,119.488 112.182,120.609 C112.182,121.730 114.205,122.638 116.701,122.638 C116.701,122.638 144.527,122.638 144.527,122.638 C147.023,122.638 149.046,123.546 149.046,124.667 C149.046,125.788 147.023,126.697 144.527,126.697 C144.527,126.697 111.087,126.697 111.087,126.697 C111.087,126.697 74.332,126.697 74.332,126.697 C71.837,126.697 69.814,125.788 69.814,124.667 C69.814,123.546 71.837,122.638 74.332,122.638 C74.332,122.638 82.055,122.638 82.055,122.638 C84.551,122.638 86.574,121.730 86.574,120.609 C86.574,119.488 84.551,118.580 82.055,118.580 C82.055,118.580 45.301,118.580 45.301,118.580 C42.805,118.580 40.782,117.672 40.782,116.552 C40.782,115.431 42.805,114.522 45.301,114.522 C45.301,114.522 53.988,114.522 53.988,114.522 C53.988,114.522 104.359,114.522 104.359,114.522 Z" id="path-1" class="cls-3" fill-rule="evenodd"/>
    <path d="M184.476,128.452 C187.326,128.452 189.636,127.415 189.636,126.136 C189.636,124.856 187.326,123.818 184.476,123.818 C184.476,123.818 168.665,123.818 168.665,123.818 C165.815,123.818 163.505,124.856 163.505,126.136 C163.505,127.415 165.815,128.452 168.665,128.452 C168.665,128.452 184.476,128.452 184.476,128.452 Z" id="path-2" class="cls-3" fill-rule="evenodd"/>
    <path d="M196.717,96.296 C196.717,96.296 202.661,96.296 202.661,96.296 C203.807,96.296 204.736,96.812 204.736,97.447 C204.736,98.083 203.807,98.598 202.661,98.598 C202.661,98.598 202.384,98.598 202.384,98.598 C201.238,98.598 200.309,99.114 200.309,99.750 C200.309,100.385 201.238,100.900 202.384,100.900 C202.384,100.900 215.162,100.900 215.162,100.900 C216.308,100.900 217.237,101.416 217.237,102.052 C217.237,102.688 216.308,103.202 215.162,103.202 C215.162,103.202 199.806,103.202 199.806,103.202 C199.806,103.202 168.421,103.202 168.421,103.202 C167.275,103.202 166.346,102.688 166.346,102.052 C166.346,101.416 167.275,100.900 168.421,100.900 C168.421,100.900 171.967,100.900 171.967,100.900 C173.113,100.900 174.042,100.385 174.042,99.750 C174.042,99.114 173.113,98.598 171.967,98.598 C171.967,98.598 155.090,98.598 155.090,98.598 C153.944,98.598 153.015,98.083 153.015,97.447 C153.015,96.812 153.944,96.296 155.090,96.296 C155.090,96.296 159.078,96.296 159.078,96.296 C159.078,96.296 196.717,96.296 196.717,96.296 Z" id="path-3" class="cls-3" fill-rule="evenodd"/>
    <path d="M136.097,32.811 C136.097,32.811 148.528,32.811 148.528,32.811 C148.528,32.811 116.994,1.277 116.994,1.277 C115.277,-0.441 112.495,-0.441 110.778,1.277 C109.061,2.994 109.061,5.775 110.778,7.493 C110.778,7.493 136.097,32.811 136.097,32.811 Z" id="path-4" class="cls-6" fill-rule="evenodd"/>
    <path d="M10.979,41.602 C10.979,41.602 33.708,102.301 33.708,102.301 C35.782,106.572 40.112,109.284 44.861,109.284 C44.861,109.284 128.922,109.284 128.922,109.284 C134.014,109.284 138.589,106.170 140.456,101.433 C140.456,101.433 164.042,41.602 164.042,41.602 C164.042,41.602 10.979,41.602 10.979,41.602 Z" id="path-5" class="cls-7" fill-rule="evenodd"/>
    <path d="M4.404,32.811 C1.983,32.811 0.008,34.776 0.008,37.206 C0.008,39.636 1.983,41.602 4.404,41.602 C4.404,41.602 170.617,41.602 170.617,41.602 C173.055,41.602 175.012,39.636 175.012,37.206 C175.012,34.776 173.055,32.811 170.617,32.811 C170.617,32.811 4.404,32.811 4.404,32.811 Z" id="path-6" class="cls-6" fill-rule="evenodd"/>
    <path d="M10.979,41.602 C10.979,41.602 13.121,47.321 13.121,47.321 C13.121,47.321 125.558,54.627 125.558,54.627 C134.128,55.184 148.528,57.160 142.022,72.458 C142.022,72.458 126.967,109.284 126.967,109.284 C126.967,109.284 128.922,109.284 128.922,109.284 C134.014,109.284 138.588,106.170 140.456,101.433 C140.456,101.433 164.042,41.602 164.042,41.602 C164.042,41.602 10.979,41.602 10.979,41.602 Z" id="path-7" class="cls-9" fill-rule="evenodd"/>
    <path d="M127.562,65.249 C127.562,65.249 47.459,65.249 47.459,65.249 C45.458,65.249 43.838,63.628 43.838,61.629 C43.838,59.630 45.458,58.009 47.459,58.009 C47.459,58.009 127.562,58.009 127.562,58.009 C129.563,58.009 131.183,59.630 131.183,61.629 C131.183,63.628 129.563,65.249 127.562,65.249 Z" id="path-8" class="cls-10" fill-rule="evenodd"/>
    <path d="M127.562,85.470 C127.562,85.470 47.459,85.470 47.459,85.470 C45.458,85.470 43.838,83.849 43.838,81.851 C43.838,79.851 45.458,78.230 47.459,78.230 C47.459,78.230 127.562,78.230 127.562,78.230 C129.563,78.230 131.183,79.851 131.183,81.851 C131.183,83.849 129.563,85.470 127.562,85.470 Z" id="path-9" class="cls-10" fill-rule="evenodd"/>
    <path d="M4.404,41.602 C4.404,41.602 170.617,41.602 170.617,41.602 C173.055,41.602 175.012,39.636 175.012,37.206 C175.012,37.206 0.008,37.206 0.008,37.206 C0.008,39.636 1.983,41.602 4.404,41.602 Z" id="path-10" class="cls-12" fill-rule="evenodd"/>
    <path d="M38.924,32.811 C38.924,32.811 64.243,7.493 64.243,7.493 C65.960,5.775 65.960,2.994 64.243,1.277 C62.526,-0.441 59.744,-0.441 58.027,1.277 C58.027,1.277 26.493,32.811 26.493,32.811 C26.493,32.811 38.924,32.811 38.924,32.811 Z" id="path-11" class="cls-6" fill-rule="evenodd"/>
    <path d="M31.548,27.755 C31.548,27.755 26.493,32.811 26.493,32.811 C26.493,32.811 38.924,32.811 38.924,32.811 C38.924,32.811 45.091,26.644 45.091,26.644 C45.091,26.644 31.548,27.755 31.548,27.755 Z" id="path-12" class="cls-12" fill-rule="evenodd"/>
    <path d="M145.499,29.780 C145.499,29.780 148.528,32.811 148.528,32.811 C148.528,32.811 136.097,32.811 136.097,32.811 C136.097,32.811 130.756,27.470 130.756,27.470 C130.756,27.470 145.499,29.780 145.499,29.780 Z" id="path-13" class="cls-12" fill-rule="evenodd"/>
  </g>
</svg>
