<svg xmlns="http://www.w3.org/2000/svg" xmlns:xlink="http://www.w3.org/1999/xlink" preserveAspectRatio="xMidYMid" width="218" height="193" viewBox="0 0 218 193">
  <defs>
    <style>

      .cls-3 {
        fill: #ff3a2f;
      }

      .cls-5 {
        fill: #142a3b;
      }

      .cls-7 {
        fill: #2476ff;
      }

      .cls-8 {
        fill: #000000;
        opacity: 0.35;
      }

      .cls-10 {
        fill: #fbb713;
      }

      .cls-12 {
        fill: #000000;
        opacity: 0.2;
      }
    </style>
  </defs>
  <g id="group-86svg">
    <path d="M66.865,162.052 C66.865,162.052 47.500,162.052 47.500,162.052 C43.766,162.052 40.739,164.255 40.739,166.973 C40.739,169.690 43.766,171.893 47.500,171.893 C47.500,171.893 48.401,171.893 48.401,171.893 C52.135,171.893 55.162,174.095 55.162,176.813 C55.162,179.530 52.135,181.733 48.401,181.733 C48.401,181.733 6.771,181.733 6.771,181.733 C3.037,181.733 0.011,183.935 0.011,186.653 C0.011,189.369 3.037,191.573 6.771,191.573 C6.771,191.573 56.800,191.573 56.800,191.573 C56.800,191.573 159.057,191.573 159.057,191.573 C162.791,191.573 165.818,189.369 165.818,186.653 C165.818,183.935 162.791,181.733 159.057,181.733 C159.057,181.733 147.504,181.733 147.504,181.733 C143.770,181.733 140.743,179.530 140.743,176.813 C140.743,174.095 143.770,171.893 147.504,171.893 C147.504,171.893 192.882,171.893 192.882,171.893 C196.615,171.893 199.642,169.690 199.642,166.973 C199.642,164.255 196.615,162.052 192.882,162.052 C192.882,162.052 189.494,162.052 189.494,162.052 C189.494,162.052 66.865,162.052 66.865,162.052 Z" id="path-1" class="cls-3" fill-rule="evenodd"/>
    <path d="M185.906,192.014 C183.276,192.014 181.144,190.457 181.144,188.536 C181.144,186.613 183.276,185.055 185.906,185.055 C185.906,185.055 200.501,185.055 200.501,185.055 C203.131,185.055 205.263,186.613 205.263,188.536 C205.263,190.457 203.131,192.014 200.501,192.014 C200.501,192.014 185.906,192.014 185.906,192.014 Z" id="path-2" class="cls-3" fill-rule="evenodd"/>
    <path d="M76.907,132.994 C75.263,132.994 73.771,131.864 73.386,130.193 C73.386,130.193 49.096,25.653 49.096,25.653 C49.096,25.653 10.427,6.872 10.427,6.872 C8.627,5.998 7.877,3.833 8.751,2.033 C9.624,0.236 11.792,-0.514 13.588,0.359 C13.588,0.359 55.368,20.651 55.368,20.651 C55.368,20.651 80.436,128.555 80.436,128.555 C80.889,130.501 79.679,132.448 77.731,132.899 C77.455,132.964 77.179,132.994 76.907,132.994 Z" id="path-3" class="cls-5" fill-rule="evenodd"/>
    <path d="M107.193,146.337 C105.546,146.337 104.057,145.207 103.668,143.534 C103.219,141.585 104.432,139.641 106.380,139.190 C106.380,139.190 212.802,114.548 212.802,114.548 C214.750,114.106 216.695,115.307 217.147,117.257 C217.596,119.206 216.384,121.149 214.435,121.601 C214.435,121.601 108.013,146.244 108.013,146.244 C107.738,146.307 107.465,146.337 107.193,146.337 Z" id="path-4" class="cls-5" fill-rule="evenodd"/>
    <path d="M111.100,145.941 C114.269,159.583 105.761,173.208 92.095,176.373 C78.430,179.537 64.783,171.042 61.613,157.400 C58.444,143.757 66.952,130.134 80.617,126.969 C94.283,123.804 107.930,132.300 111.100,145.941 Z" id="path-5" class="cls-7" fill-rule="evenodd"/>
    <path d="M98.716,173.068 C85.051,176.231 71.404,167.737 68.234,154.095 C65.822,143.711 70.186,133.351 78.429,127.593 C66.063,131.636 58.617,144.504 61.613,157.399 C64.783,171.042 78.430,179.537 92.095,176.373 C95.359,175.616 98.318,174.251 100.904,172.443 C100.189,172.677 99.464,172.895 98.716,173.068 Z" id="path-6" class="cls-8" fill-rule="evenodd"/>
    <path d="M172.161,100.531 C172.161,100.531 107.662,115.467 107.662,115.467 C107.662,115.467 92.703,51.076 92.703,51.076 C92.703,51.076 157.200,36.140 157.200,36.140 C157.200,36.140 172.161,100.531 172.161,100.531 Z" id="path-7" class="cls-3" fill-rule="evenodd"/>
    <path d="M118.502,45.102 C118.502,45.102 92.703,51.076 92.703,51.076 C92.703,51.076 83.726,12.442 83.726,12.442 C83.726,12.442 109.526,6.468 109.526,6.468 C109.526,6.468 118.502,45.102 118.502,45.102 Z" id="path-8" class="cls-10" fill-rule="evenodd"/>
    <path d="M114.283,108.856 C114.283,108.856 100.442,49.283 100.442,49.283 C100.442,49.283 92.703,51.076 92.703,51.076 C92.703,51.076 107.662,115.467 107.662,115.467 C107.662,115.467 172.161,100.531 172.161,100.531 C172.161,100.531 171.042,95.713 171.042,95.713 C171.042,95.713 114.283,108.856 114.283,108.856 Z" id="path-9" class="cls-8" fill-rule="evenodd"/>
    <path d="M99.323,44.466 C99.323,44.466 91.467,10.650 91.467,10.650 C91.467,10.650 83.727,12.442 83.727,12.442 C83.727,12.442 92.703,51.076 92.703,51.076 C92.703,51.076 118.502,45.102 118.502,45.102 C118.502,45.102 117.382,40.285 117.382,40.285 C117.382,40.285 99.323,44.466 99.323,44.466 Z" id="path-10" class="cls-12" fill-rule="evenodd"/>
  </g>
</svg>
