<svg xmlns="http://www.w3.org/2000/svg" xmlns:xlink="http://www.w3.org/1999/xlink" preserveAspectRatio="xMidYMid" width="213" height="218" viewBox="0 0 213 218">
  <defs>
    <style>

      .cls-3 {
        fill: #2476ff;
      }

      .cls-5 {
        fill: #ededed;
      }

      .cls-6 {
        fill: #142a3b;
      }

      .cls-7 {
        fill: #000000;
      }

      .cls-9 {
        fill: #000000;
        opacity: 0.25;
      }

      .cls-11 {
        fill: #000000;
        opacity: 0.35;
      }

      .cls-12 {
        fill: #ff3a2f;
      }
    </style>
  </defs>
  <g id="group-63svg">
    <path d="M67.901,194.298 C67.901,194.298 48.232,194.298 48.232,194.298 C44.440,194.298 41.366,195.936 41.366,197.955 C41.366,199.975 44.440,201.613 48.232,201.613 C48.232,201.613 49.148,201.613 49.148,201.613 C52.940,201.613 56.014,203.251 56.014,205.271 C56.014,207.291 52.940,208.928 49.148,208.928 C49.148,208.928 6.865,208.928 6.865,208.928 C3.072,208.928 -0.001,210.566 -0.001,212.586 C-0.001,214.606 3.072,216.243 6.865,216.243 C6.865,216.243 57.678,216.243 57.678,216.243 C57.678,216.243 161.539,216.243 161.539,216.243 C165.331,216.243 168.405,214.606 168.405,212.586 C168.405,210.566 165.331,208.928 161.539,208.928 C161.539,208.928 149.804,208.928 149.804,208.928 C146.012,208.928 142.937,207.291 142.937,205.271 C142.937,203.251 146.012,201.613 149.804,201.613 C149.804,201.613 195.893,201.613 195.893,201.613 C199.686,201.613 202.760,199.975 202.760,197.955 C202.760,195.936 199.686,194.298 195.893,194.298 C195.893,194.298 192.453,194.298 192.453,194.298 C192.453,194.298 67.901,194.298 67.901,194.298 Z" id="path-1" class="cls-3" fill-rule="evenodd"/>
    <path d="M189.889,217.222 C186.709,217.222 184.132,215.468 184.132,213.303 C184.132,211.138 186.709,209.383 189.889,209.383 C189.889,209.383 207.530,209.383 207.530,209.383 C210.710,209.383 213.287,211.138 213.287,213.303 C213.287,215.468 210.710,217.222 207.530,217.222 C207.530,217.222 189.889,217.222 189.889,217.222 Z" id="path-2" class="cls-3" fill-rule="evenodd"/>
    <path d="M162.752,55.893 C162.752,55.893 39.722,55.893 39.722,55.893 C39.722,55.893 39.722,0.002 39.722,0.002 C39.722,0.002 162.752,0.002 162.752,0.002 C162.752,0.002 162.752,55.893 162.752,55.893 Z" id="path-3" class="cls-5" fill-rule="evenodd"/>
    <path d="M146.062,198.663 C146.062,198.663 56.412,198.663 56.412,198.663 C56.412,198.663 56.412,187.596 56.412,187.596 C56.412,187.596 146.062,187.596 146.062,187.596 C146.062,187.596 146.062,198.663 146.062,198.663 Z" id="path-4" class="cls-6" fill-rule="evenodd"/>
    <path d="M146.062,195.158 C146.062,195.158 56.412,191.837 56.412,191.837 C56.412,191.837 56.412,187.596 56.412,187.596 C56.412,187.596 146.062,187.596 146.062,187.596 C146.062,187.596 146.062,195.158 146.062,195.158 Z" id="path-5" class="cls-7" fill-rule="evenodd"/>
    <path d="M39.722,187.596 C39.722,187.596 162.751,187.596 162.751,187.596 C162.751,187.596 162.751,56.445 162.751,56.445 C162.751,56.445 39.722,56.445 39.722,56.445 C39.722,56.445 39.722,187.596 39.722,187.596 Z" id="path-6" class="cls-5" fill-rule="evenodd"/>
    <path d="M149.470,0.002 C149.470,0.002 149.470,56.446 149.470,56.446 C149.470,56.446 162.751,56.446 162.751,56.446 C162.751,56.446 162.751,0.002 162.751,0.002 C162.751,0.002 149.470,0.002 149.470,0.002 Z" id="path-7" class="cls-9" fill-rule="evenodd"/>
    <path d="M39.722,56.446 C39.722,56.446 39.722,59.766 39.722,59.766 C39.722,59.766 149.470,66.407 149.470,66.407 C149.470,66.407 149.470,187.596 149.470,187.596 C149.470,187.596 162.751,187.596 162.751,187.596 C162.751,187.596 162.751,56.446 162.751,56.446 C162.751,56.446 39.722,56.446 39.722,56.446 Z" id="path-8" class="cls-9" fill-rule="evenodd"/>
    <path d="M139.930,114.551 C139.930,114.551 132.182,114.551 132.182,114.551 C132.182,114.551 132.182,43.719 132.182,43.719 C132.182,43.719 139.930,43.719 139.930,43.719 C139.930,43.719 139.930,114.551 139.930,114.551 Z" id="path-9" class="cls-11" fill-rule="evenodd"/>
    <path d="M136.610,111.230 C136.610,111.230 128.862,111.230 128.862,111.230 C128.862,111.230 128.862,40.399 128.862,40.399 C128.862,40.399 136.610,40.399 136.610,40.399 C136.610,40.399 136.610,111.230 136.610,111.230 Z" id="path-10" class="cls-12" fill-rule="evenodd"/>
    <path d="M146.062,198.663 C146.062,198.663 56.412,198.663 56.412,198.663 C56.412,198.663 56.412,187.596 56.412,187.596 C56.412,187.596 146.062,187.596 146.062,187.596 C146.062,187.596 146.062,198.663 146.062,198.663 Z" id="path-11" class="cls-6" fill-rule="evenodd"/>
  </g>
</svg>
