<svg xmlns="http://www.w3.org/2000/svg" xmlns:xlink="http://www.w3.org/1999/xlink" preserveAspectRatio="xMidYMid" width="217" height="192" viewBox="0 0 217 192">
  <defs>
    <style>

      .cls-3 {
        fill: #fbb713;
      }

      .cls-7 {
        fill: #142a3b;
      }

      .cls-9 {
        fill: #000000;
        opacity: 0.35;
      }

      .cls-14 {
        fill: #ededed;
        opacity: 0.8;
      }
    </style>
  </defs>
  <g id="group-82svg">
    <path d="M55.034,165.689 C55.034,165.689 39.620,165.689 39.620,165.689 C36.647,165.689 34.238,167.503 34.238,169.742 C34.238,171.981 36.647,173.796 39.620,173.796 C39.620,173.796 40.337,173.796 40.337,173.796 C43.309,173.796 45.718,175.611 45.718,177.850 C45.718,180.089 43.309,181.903 40.337,181.903 C40.337,181.903 7.202,181.903 7.202,181.903 C4.230,181.903 1.821,183.718 1.821,185.957 C1.821,188.196 4.230,190.011 7.202,190.011 C7.202,190.011 47.022,190.011 47.022,190.011 C47.022,190.011 128.412,190.011 128.412,190.011 C131.384,190.011 133.793,188.196 133.793,185.957 C133.793,183.718 131.384,181.903 128.412,181.903 C128.412,181.903 119.216,181.903 119.216,181.903 C116.244,181.903 113.835,180.089 113.835,177.850 C113.835,175.611 116.244,173.796 119.216,173.796 C119.216,173.796 155.334,173.796 155.334,173.796 C158.306,173.796 160.715,171.981 160.715,169.742 C160.715,167.503 158.306,165.689 155.334,165.689 C155.334,165.689 152.638,165.689 152.638,165.689 C152.638,165.689 55.034,165.689 55.034,165.689 Z" id="path-1" class="cls-3" fill-rule="evenodd"/>
    <path d="M150.628,191.095 C148.137,191.095 146.117,189.152 146.117,186.752 C146.117,184.352 148.137,182.408 150.628,182.408 C150.628,182.408 164.453,182.408 164.453,182.408 C166.945,182.408 168.965,184.352 168.965,186.752 C168.965,189.152 166.945,191.095 164.453,191.095 C164.453,191.095 150.628,191.095 150.628,191.095 Z" id="path-2" class="cls-3" fill-rule="evenodd"/>
    <path d="M32.314,153.123 C32.314,153.123 36.710,153.123 36.710,153.123 C37.558,153.123 38.245,152.373 38.245,151.447 C38.245,150.523 37.558,149.773 36.710,149.773 C36.710,149.773 36.506,149.773 36.506,149.773 C35.658,149.773 34.971,149.023 34.971,148.099 C34.971,147.172 35.658,146.424 36.506,146.424 C36.506,146.424 45.956,146.424 45.956,146.424 C46.803,146.424 47.491,145.673 47.491,144.748 C47.491,143.823 46.803,143.072 45.956,143.072 C45.956,143.072 34.599,143.072 34.599,143.072 C34.599,143.072 11.386,143.072 11.386,143.072 C10.538,143.072 9.851,143.823 9.851,144.748 C9.851,145.673 10.538,146.424 11.386,146.424 C11.386,146.424 14.009,146.424 14.009,146.424 C14.856,146.424 15.544,147.172 15.544,148.099 C15.544,149.023 14.856,149.773 14.009,149.773 C14.009,149.773 1.527,149.773 1.527,149.773 C0.679,149.773 -0.008,150.523 -0.008,151.447 C-0.008,152.373 0.679,153.123 1.527,153.123 C1.527,153.123 4.477,153.123 4.477,153.123 C4.477,153.123 32.314,153.123 32.314,153.123 Z" id="path-3" class="cls-3" fill-rule="evenodd"/>
    <path d="M145.635,143.254 C117.948,170.811 59.332,157.148 59.332,157.148 C59.332,157.148 45.605,98.808 73.291,71.251 C100.979,43.694 139.618,37.473 159.596,57.356 C179.573,77.240 173.322,115.697 145.635,143.254 Z" id="path-4" class="cls-3" fill-rule="evenodd"/>
    <path d="M83.944,62.069 C83.944,62.069 154.860,132.651 154.860,132.651 C159.611,126.318 163.356,119.657 166.069,112.948 C166.069,112.948 103.740,50.912 103.740,50.912 C97.001,53.613 90.308,57.341 83.944,62.069 Z" id="path-5" class="cls-7" fill-rule="evenodd"/>
    <path d="M56.566,111.966 C56.566,111.966 104.727,159.900 104.727,159.900 C113.170,159.050 121.784,157.217 129.629,153.826 C129.629,153.826 62.669,87.181 62.669,87.181 C59.262,94.989 57.422,103.562 56.566,111.966 Z" id="path-6" class="cls-7" fill-rule="evenodd"/>
    <path d="M159.596,57.356 C156.665,54.439 153.296,52.152 149.656,50.344 C168.307,70.525 161.847,108.026 134.674,135.071 C113.960,155.688 75.940,153.233 58.100,150.689 C58.767,154.729 59.332,157.148 59.332,157.148 C59.332,157.148 117.948,170.811 145.635,143.254 C173.323,115.697 179.573,77.240 159.596,57.356 Z" id="path-7" class="cls-9" fill-rule="evenodd"/>
    <path d="M149.465,37.151 C159.399,27.264 182.669,34.392 182.669,34.392 C182.669,34.392 189.831,57.552 179.896,67.439 C169.962,77.327 155.096,78.563 146.693,70.199 C138.289,61.835 139.531,47.038 149.465,37.151 Z" id="path-8" class="cls-7" fill-rule="evenodd"/>
    <path d="M182.668,34.392 C182.668,34.392 180.943,33.872 178.276,33.309 C179.808,40.497 181.670,54.763 174.416,61.984 C165.588,70.769 152.880,72.705 144.258,67.165 C144.957,68.242 145.756,69.266 146.693,70.199 C155.096,78.562 169.962,77.328 179.896,67.439 C189.831,57.551 182.668,34.392 182.668,34.392 Z" id="path-9" class="cls-9" fill-rule="evenodd"/>
    <path d="M210.187,55.945 C209.257,55.945 208.327,55.590 207.620,54.877 C206.210,53.461 206.217,51.168 207.634,49.757 C209.147,48.253 209.978,46.254 209.978,44.127 C209.978,42.001 209.147,40.002 207.634,38.497 C204.502,35.379 199.400,35.377 196.274,38.495 C196.274,38.495 184.373,50.338 184.373,50.338 C182.959,51.748 180.661,51.741 179.254,50.327 C177.843,48.909 177.850,46.616 179.268,45.208 C179.268,45.208 191.165,33.365 191.165,33.365 C197.112,27.440 206.789,27.440 212.744,33.365 C215.628,36.238 217.220,40.060 217.220,44.127 C217.220,48.195 215.628,52.017 212.740,54.891 C212.033,55.593 211.110,55.945 210.187,55.945 Z" id="path-10" class="cls-7" fill-rule="evenodd"/>
    <path d="M169.223,38.856 C168.294,38.856 167.364,38.501 166.656,37.790 C165.246,36.372 165.253,34.079 166.671,32.669 C166.671,32.669 178.568,20.829 178.568,20.829 C180.081,19.324 180.912,17.325 180.912,15.198 C180.912,13.071 180.081,11.073 178.568,9.567 C175.436,6.449 170.334,6.447 167.208,9.566 C165.787,10.976 163.492,10.970 162.085,9.555 C160.674,8.140 160.682,5.847 162.095,4.436 C168.049,-1.490 177.723,-1.490 183.677,4.436 C186.562,7.308 188.153,11.131 188.153,15.198 C188.153,19.266 186.562,23.088 183.673,25.963 C183.673,25.963 171.776,37.802 171.776,37.802 C171.072,38.504 170.146,38.856 169.223,38.856 Z" id="path-11" class="cls-7" fill-rule="evenodd"/>
    <path d="M79.123,106.975 C64.427,106.975 52.513,95.118 52.513,80.490 C52.513,65.862 64.427,54.005 79.123,54.005 C93.820,54.005 137.899,80.490 137.899,80.490 C137.899,80.490 93.820,106.975 79.123,106.975 Z" id="path-12" class="cls-14" fill-rule="evenodd"/>
    <path d="M112.482,140.176 C112.482,154.805 124.396,166.663 139.093,166.663 C153.789,166.663 165.703,154.805 165.703,140.176 C165.703,125.549 139.093,81.678 139.093,81.678 C139.093,81.678 112.482,125.549 112.482,140.176 Z" id="path-13" class="cls-14" fill-rule="evenodd"/>
  </g>
</svg>
