<svg xmlns="http://www.w3.org/2000/svg" xmlns:xlink="http://www.w3.org/1999/xlink" preserveAspectRatio="xMidYMid" width="217" height="190" viewBox="0 0 217 190">
  <defs>
    <style>

      .cls-3 {
        fill: #ff3a2f;
      }

      .cls-5 {
        fill: #fbb713;
      }

      .cls-6 {
        fill: #ededed;
      }

      .cls-15 {
        fill: #000000;
        opacity: 0.25;
      }
    </style>
  </defs>
  <g id="group-151svg">
    <path d="M55.711,163.419 C55.711,163.419 39.572,163.419 39.572,163.419 C36.461,163.419 33.939,165.329 33.939,167.683 C33.939,170.038 36.461,171.948 39.572,171.948 C39.572,171.948 40.323,171.948 40.323,171.948 C43.435,171.948 45.957,173.857 45.957,176.211 C45.957,178.566 43.435,180.475 40.323,180.475 C40.323,180.475 5.631,180.475 5.631,180.475 C2.520,180.475 -0.003,182.384 -0.003,184.739 C-0.003,187.093 2.520,189.003 5.631,189.003 C5.631,189.003 47.323,189.003 47.323,189.003 C47.323,189.003 132.539,189.003 132.539,189.003 C135.650,189.003 138.172,187.093 138.172,184.739 C138.172,182.384 135.650,180.475 132.539,180.475 C132.539,180.475 122.910,180.475 122.910,180.475 C119.799,180.475 117.276,178.566 117.276,176.211 C117.276,173.857 119.799,171.948 122.910,171.948 C122.910,171.948 160.726,171.948 160.726,171.948 C163.837,171.948 166.359,170.038 166.359,167.683 C166.359,165.329 163.837,163.419 160.726,163.419 C160.726,163.419 157.903,163.419 157.903,163.419 C157.903,163.419 55.711,163.419 55.711,163.419 Z" id="path-1" class="cls-3" fill-rule="evenodd"/>
    <path d="M155.799,190.145 C153.191,190.145 151.076,188.099 151.076,185.575 C151.076,183.052 153.191,181.005 155.799,181.005 C155.799,181.005 170.274,181.005 170.274,181.005 C172.882,181.005 174.998,183.052 174.998,185.575 C174.998,188.099 172.882,190.145 170.274,190.145 C170.274,190.145 155.799,190.145 155.799,190.145 Z" id="path-2" class="cls-3" fill-rule="evenodd"/>
    <path d="M93.150,174.762 C79.411,178.026 64.353,174.298 53.635,163.588 C42.917,152.871 39.194,137.806 42.458,124.070 C42.458,124.070 165.390,1.147 165.390,1.147 C165.390,1.147 165.390,1.143 165.390,1.143 C179.129,-2.121 194.187,1.607 204.905,12.323 C215.623,23.037 219.346,38.098 216.082,51.833 C216.082,51.833 93.150,174.762 93.150,174.762 Z" id="path-3" class="cls-5" fill-rule="evenodd"/>
    <path d="M79.595,120.101 C78.149,120.101 76.773,119.521 75.759,118.508 C74.744,117.496 74.164,116.119 74.164,114.670 C74.164,113.258 74.744,111.847 75.759,110.832 C77.749,108.843 81.370,108.805 83.434,110.832 C84.449,111.847 85.025,113.258 85.025,114.670 C85.025,116.119 84.449,117.496 83.434,118.508 C82.420,119.521 81.009,120.101 79.595,120.101 Z" id="path-4" class="cls-6" fill-rule="evenodd"/>
    <path d="M102.551,143.053 C101.102,143.053 99.726,142.475 98.712,141.460 C97.697,140.447 97.121,139.035 97.121,137.622 C97.121,136.212 97.697,134.799 98.676,133.786 C100.742,131.759 104.362,131.759 106.388,133.786 C107.402,134.799 107.982,136.212 107.982,137.622 C107.982,139.035 107.402,140.447 106.388,141.460 C105.373,142.475 103.962,143.053 102.551,143.053 Z" id="path-5" class="cls-6" fill-rule="evenodd"/>
    <path d="M64.282,135.415 C62.870,135.415 61.459,134.837 60.444,133.822 C59.431,132.809 58.851,131.397 58.851,129.984 C58.851,128.537 59.431,127.161 60.444,126.145 C62.472,124.119 66.128,124.119 68.120,126.145 C69.133,127.161 69.712,128.571 69.712,129.984 C69.712,131.397 69.133,132.809 68.120,133.822 C67.105,134.837 65.730,135.415 64.282,135.415 Z" id="path-6" class="cls-6" fill-rule="evenodd"/>
    <path d="M87.235,158.368 C85.824,158.368 84.410,157.789 83.399,156.773 C82.384,155.761 81.804,154.349 81.804,152.937 C81.804,151.489 82.384,150.079 83.399,149.064 C85.425,147.074 89.046,147.074 91.075,149.064 C92.086,150.114 92.666,151.489 92.666,152.937 C92.666,154.349 92.086,155.761 91.075,156.773 C90.061,157.789 88.646,158.368 87.235,158.368 Z" id="path-7" class="cls-6" fill-rule="evenodd"/>
    <path d="M171.302,28.433 C169.856,28.433 168.480,27.819 167.465,26.842 C166.451,25.826 165.871,24.416 165.871,23.003 C165.871,21.555 166.451,20.144 167.465,19.128 C169.456,17.139 173.112,17.139 175.141,19.128 C176.156,20.144 176.732,21.555 176.732,23.003 C176.732,24.416 176.156,25.792 175.141,26.804 C174.126,27.819 172.716,28.433 171.302,28.433 Z" id="path-8" class="cls-6" fill-rule="evenodd"/>
    <path d="M194.258,51.351 C192.809,51.351 191.434,50.771 190.419,49.759 C189.404,48.781 188.827,47.368 188.827,45.920 C188.827,44.509 189.404,43.095 190.419,42.082 C192.409,40.055 196.069,40.055 198.095,42.082 C199.109,43.095 199.689,44.509 199.689,45.920 C199.689,47.368 199.109,48.781 198.095,49.759 C197.080,50.771 195.669,51.351 194.258,51.351 Z" id="path-9" class="cls-6" fill-rule="evenodd"/>
    <path d="M155.989,43.710 C154.578,43.710 153.164,43.132 152.150,42.118 C151.138,41.104 150.558,39.692 150.558,38.279 C150.558,36.832 151.138,35.457 152.150,34.441 C154.214,32.416 157.834,32.416 159.825,34.441 C160.840,35.457 161.420,36.832 161.420,38.279 C161.420,39.692 160.840,41.104 159.825,42.118 C158.849,43.132 157.435,43.710 155.989,43.710 Z" id="path-10" class="cls-6" fill-rule="evenodd"/>
    <path d="M178.942,66.664 C177.531,66.664 176.117,66.085 175.106,65.071 C174.091,64.058 173.511,62.645 173.511,61.235 C173.511,59.785 174.091,58.374 175.106,57.396 C177.132,55.370 180.752,55.370 182.778,57.396 C183.793,58.410 184.373,59.785 184.373,61.235 C184.373,62.645 183.793,64.058 182.778,65.071 C181.767,66.085 180.353,66.664 178.942,66.664 Z" id="path-11" class="cls-6" fill-rule="evenodd"/>
    <path d="M114.937,120.860 C114.937,120.860 94.891,100.815 94.891,100.815 C94.891,100.815 142.211,53.495 142.211,53.495 C142.211,53.495 162.258,73.540 162.258,73.540 C162.258,73.540 114.937,120.860 114.937,120.860 Z" id="path-12" class="cls-5" fill-rule="evenodd"/>
    <path d="M114.937,120.860 C114.937,120.860 94.891,100.815 94.891,100.815 C94.891,100.815 142.211,53.495 142.211,53.495 C142.211,53.495 162.258,73.540 162.258,73.540 C162.258,73.540 114.937,120.860 114.937,120.860 Z" id="path-13" class="cls-15" fill-rule="evenodd"/>
  </g>
</svg>
