<svg xmlns="http://www.w3.org/2000/svg" xmlns:xlink="http://www.w3.org/1999/xlink" preserveAspectRatio="xMidYMid" width="217" height="204" viewBox="0 0 217 204">
  <defs>
    <style>

      .cls-3 {
        fill: #ff3a2f;
      }

      .cls-5 {
        fill: #fbb713;
      }

      .cls-6 {
        fill: #000000;
        opacity: 0.35;
      }

      .cls-9 {
        fill: #0cb04a;
      }

      .cls-11 {
        fill: #ededed;
      }
    </style>
  </defs>
  <g id="group-155svg">
    <path d="M69.158,169.901 C69.158,169.901 49.125,169.901 49.125,169.901 C45.263,169.901 42.132,172.272 42.132,175.194 C42.132,178.119 45.263,180.488 49.125,180.488 C49.125,180.488 50.058,180.488 50.058,180.488 C53.920,180.488 57.051,182.858 57.051,185.781 C57.051,188.703 53.920,191.074 50.058,191.074 C50.058,191.074 6.994,191.074 6.994,191.074 C3.131,191.074 0.000,193.444 0.000,196.367 C0.000,199.290 3.131,201.661 6.994,201.661 C6.994,201.661 58.745,201.661 58.745,201.661 C58.745,201.661 164.525,201.661 164.525,201.661 C168.387,201.661 171.519,199.290 171.519,196.367 C171.519,193.444 168.387,191.074 164.525,191.074 C164.525,191.074 152.573,191.074 152.573,191.074 C148.710,191.074 145.580,188.703 145.580,185.781 C145.580,182.858 148.710,180.488 152.573,180.488 C152.573,180.488 199.513,180.488 199.513,180.488 C203.376,180.488 206.507,178.119 206.507,175.194 C206.507,172.272 203.376,169.901 199.513,169.901 C199.513,169.901 196.010,169.901 196.010,169.901 C196.010,169.901 69.158,169.901 69.158,169.901 Z" id="path-1" class="cls-3" fill-rule="evenodd"/>
    <path d="M193.398,203.078 C190.160,203.078 187.535,200.537 187.535,197.404 C187.535,194.272 190.160,191.732 193.398,191.732 C193.398,191.732 211.366,191.732 211.366,191.732 C214.604,191.732 217.229,194.272 217.229,197.404 C217.229,200.537 214.604,203.078 211.366,203.078 C211.366,203.078 193.398,203.078 193.398,203.078 Z" id="path-2" class="cls-3" fill-rule="evenodd"/>
    <path d="M80.025,55.749 C80.025,55.749 78.425,38.665 84.936,23.268 C75.714,24.803 67.966,30.467 63.798,38.224 C58.994,34.950 53.148,33.007 46.815,33.007 C30.544,33.007 10.865,45.733 10.865,61.440 C10.865,61.440 11.540,141.505 33.112,169.813 C33.112,169.813 49.157,192.484 68.978,167.979 C75.177,176.101 85.766,177.152 87.123,177.152 C87.123,177.152 90.553,177.163 90.553,177.163 C91.913,177.163 102.499,176.118 108.701,167.991 C128.522,192.500 144.572,169.824 144.572,169.824 C166.145,141.516 166.863,61.440 166.863,61.440 C166.863,45.733 147.187,33.007 130.913,33.007 C125.277,33.007 120.026,34.558 115.551,37.206 C113.108,33.072 109.621,29.602 105.439,27.099 C104.110,28.468 102.973,29.962 102.004,31.530 C95.215,42.506 96.571,57.076 96.571,57.076 C96.571,57.076 96.571,57.076 96.571,57.076 " id="path-3" class="cls-5" fill-rule="evenodd"/>
    <path d="M94.455,157.305 C88.252,165.434 77.667,166.478 76.307,166.478 C76.307,166.478 72.876,166.467 72.876,166.467 C71.520,166.467 60.931,165.417 54.732,157.294 C46.103,167.961 38.192,169.686 32.008,168.236 C32.374,168.764 32.732,169.314 33.112,169.813 C33.112,169.813 49.157,192.484 68.978,167.979 C75.177,176.101 85.766,177.152 87.123,177.152 C87.123,177.152 90.553,177.163 90.553,177.163 C91.913,177.163 102.488,176.118 108.691,168.002 C104.327,166.734 99.515,163.563 94.455,157.305 Z" id="path-4" class="cls-6" fill-rule="evenodd"/>
    <path d="M147.205,36.794 C150.539,40.919 152.617,45.676 152.617,50.755 C152.617,50.755 151.898,130.831 130.326,159.138 C130.326,159.138 121.434,171.685 108.717,168.009 C128.530,192.487 144.572,169.824 144.572,169.824 C166.145,141.516 166.863,61.440 166.863,61.440 C166.863,50.886 157.970,41.699 147.205,36.794 Z" id="path-5" class="cls-6" fill-rule="evenodd"/>
    <path d="M65.765,35.113 C65.409,41.020 65.779,45.065 65.779,45.065 C65.779,45.065 79.990,46.204 79.990,46.204 C80.340,39.905 81.512,31.366 84.936,23.268 C77.003,24.588 70.176,28.977 65.765,35.113 Z" id="path-6" class="cls-6" fill-rule="evenodd"/>
    <path d="M89.067,68.739 C88.932,68.739 88.794,68.732 88.657,68.715 C87.179,68.545 85.955,67.490 85.570,66.054 C82.805,55.723 67.740,56.822 67.584,56.838 C65.639,57.008 63.847,55.518 63.681,53.525 C63.518,51.531 65.003,49.784 66.997,49.622 C67.718,49.562 82.494,48.492 89.601,57.980 C96.993,49.609 106.829,49.609 110.436,49.609 C112.437,49.609 114.056,51.231 114.056,53.229 C114.056,55.230 112.437,56.851 110.436,56.851 C106.586,56.851 97.563,56.851 92.262,66.818 C91.630,68.008 90.396,68.739 89.067,68.739 Z" id="path-7" class="cls-9" fill-rule="evenodd"/>
    <path d="M111.854,0.249 C97.289,3.405 89.297,12.959 84.936,23.268 C79.866,35.260 79.714,48.272 79.896,53.444 C79.952,55.039 80.676,56.525 81.945,57.494 C84.275,59.274 88.500,61.482 93.330,59.238 C95.257,58.343 96.475,56.388 96.461,54.262 C96.426,48.559 97.306,35.466 105.439,27.099 C107.458,25.021 109.920,23.230 112.934,21.919 C131.808,13.703 121.563,-2.199 111.854,0.249 Z" id="path-8" class="cls-9" fill-rule="evenodd"/>
    <path d="M24.885,92.985 C22.883,92.985 21.264,91.365 21.264,89.366 C21.264,89.366 21.264,73.537 21.264,73.537 C19.033,60.019 29.385,52.115 35.219,49.813 C37.089,49.081 39.182,49.991 39.918,51.854 C40.650,53.707 39.741,55.806 37.888,56.543 C37.387,56.749 26.433,61.343 28.448,72.590 C28.448,72.590 28.505,73.229 28.505,73.229 C28.505,73.229 28.505,89.366 28.505,89.366 C28.505,91.365 26.885,92.985 24.885,92.985 Z" id="path-9" class="cls-11" fill-rule="evenodd"/>
  </g>
</svg>
