<svg xmlns="http://www.w3.org/2000/svg" xmlns:xlink="http://www.w3.org/1999/xlink" preserveAspectRatio="xMidYMid" width="206" height="214" viewBox="0 0 206 214">
  <defs>
    <style>

      .cls-3 {
        fill: #ff3a2f;
      }

      .cls-9 {
        fill: #142a3b;
      }

      .cls-10 {
        fill: #2476ff;
      }

      .cls-11 {
        fill: #ededed;
      }

      .cls-14 {
        fill: #010101;
        opacity: 0.35;
      }
    </style>
  </defs>
  <g id="group-95svg">
    <path d="M177.636,139.651 C177.636,139.651 173.482,135.498 173.482,135.498 C172.681,134.698 171.333,134.746 170.471,135.608 C169.609,136.470 169.560,137.817 170.360,138.618 C170.360,138.618 170.554,138.812 170.554,138.812 C171.355,139.613 171.305,140.960 170.444,141.823 C169.582,142.684 168.234,142.733 167.433,141.933 C167.433,141.933 158.503,133.004 158.503,133.004 C157.702,132.203 156.355,132.253 155.493,133.115 C154.631,133.976 154.581,135.325 155.382,136.125 C155.382,136.125 166.113,146.856 166.113,146.856 C166.113,146.856 188.046,168.788 188.046,168.788 C188.848,169.589 190.195,169.540 191.057,168.678 C191.919,167.816 191.968,166.468 191.168,165.668 C191.168,165.668 188.689,163.189 188.689,163.189 C187.889,162.389 187.938,161.041 188.800,160.179 C189.662,159.316 191.010,159.267 191.811,160.068 C191.811,160.068 201.544,169.801 201.544,169.801 C202.345,170.602 203.692,170.552 204.555,169.690 C205.416,168.828 205.466,167.480 204.665,166.680 C204.665,166.680 203.939,165.953 203.939,165.953 C203.939,165.953 177.636,139.651 177.636,139.651 Z" id="path-1" class="cls-3" fill-rule="evenodd"/>
    <path d="M193.665,174.687 C193.101,174.123 193.138,173.172 193.748,172.562 C194.357,171.952 195.309,171.915 195.873,172.479 C195.873,172.479 199.003,175.609 199.003,175.609 C199.567,176.174 199.531,177.125 198.921,177.736 C198.311,178.345 197.359,178.382 196.795,177.817 C196.795,177.817 193.665,174.687 193.665,174.687 Z" id="path-2" class="cls-3" fill-rule="evenodd"/>
    <path d="M109.509,171.610 C109.509,171.610 109.509,165.737 109.509,165.737 C109.509,164.604 108.522,163.686 107.302,163.686 C106.084,163.686 105.095,164.604 105.095,165.737 C105.095,165.737 105.095,166.010 105.095,166.010 C105.095,167.142 104.108,168.060 102.888,168.060 C101.670,168.060 100.681,167.142 100.681,166.010 C100.681,166.010 100.681,153.382 100.681,153.382 C100.681,152.250 99.693,151.332 98.475,151.332 C97.256,151.332 96.268,152.250 96.268,153.382 C96.268,153.382 96.268,168.557 96.268,168.557 C96.268,168.557 96.268,199.574 96.268,199.574 C96.268,200.708 97.256,201.626 98.475,201.626 C99.693,201.626 100.681,200.708 100.681,199.574 C100.681,199.574 100.681,196.071 100.681,196.071 C100.681,194.938 101.670,194.020 102.888,194.020 C104.108,194.020 105.095,194.938 105.095,196.071 C105.095,196.071 105.095,209.836 105.095,209.836 C105.095,210.967 106.084,211.885 107.302,211.885 C108.522,211.885 109.509,210.967 109.509,209.836 C109.509,209.836 109.509,208.807 109.509,208.807 C109.509,208.807 109.509,171.610 109.509,171.610 Z" id="path-3" class="cls-3" fill-rule="evenodd"/>
    <path d="M96.069,207.718 C96.069,206.921 96.768,206.275 97.630,206.275 C98.492,206.275 99.191,206.921 99.191,207.718 C99.191,207.718 99.191,212.145 99.191,212.145 C99.191,212.944 98.492,213.591 97.630,213.591 C96.768,213.591 96.069,212.944 96.069,212.145 C96.069,212.145 96.069,207.718 96.069,207.718 Z" id="path-4" class="cls-3" fill-rule="evenodd"/>
    <path d="M27.589,139.651 C27.589,139.651 31.743,135.498 31.743,135.498 C32.544,134.698 33.892,134.746 34.754,135.608 C35.616,136.470 35.665,137.817 34.864,138.618 C34.864,138.618 34.671,138.812 34.671,138.812 C33.870,139.613 33.920,140.960 34.781,141.823 C35.643,142.684 36.991,142.733 37.792,141.933 C37.792,141.933 46.721,133.004 46.721,133.004 C47.522,132.203 48.870,132.253 49.732,133.115 C50.594,133.976 50.644,135.325 49.843,136.125 C49.843,136.125 39.112,146.856 39.112,146.856 C39.112,146.856 17.178,168.788 17.178,168.788 C16.378,169.589 15.030,169.540 14.168,168.678 C13.306,167.816 13.256,166.468 14.057,165.668 C14.057,165.668 16.535,163.189 16.535,163.189 C17.336,162.389 17.287,161.041 16.425,160.179 C15.563,159.316 14.215,159.267 13.414,160.068 C13.414,160.068 3.681,169.801 3.681,169.801 C2.880,170.602 1.532,170.552 0.670,169.690 C-0.191,168.828 -0.241,167.480 0.560,166.680 C0.560,166.680 1.286,165.953 1.286,165.953 C1.286,165.953 27.589,139.651 27.589,139.651 Z" id="path-5" class="cls-3" fill-rule="evenodd"/>
    <path d="M11.560,174.687 C12.124,174.123 12.087,173.172 11.478,172.562 C10.868,171.952 9.916,171.915 9.352,172.479 C9.352,172.479 6.222,175.609 6.222,175.609 C5.658,176.174 5.695,177.125 6.304,177.736 C6.914,178.345 7.866,178.382 8.430,177.817 C8.430,177.817 11.560,174.687 11.560,174.687 Z" id="path-6" class="cls-3" fill-rule="evenodd"/>
    <path d="M104.468,37.412 C102.469,37.412 100.968,35.791 100.968,33.792 C100.968,33.792 100.968,22.931 100.968,22.931 C100.968,20.932 102.469,19.311 104.468,19.311 C106.467,19.311 107.968,20.932 107.968,22.931 C107.968,22.931 107.968,33.792 107.968,33.792 C107.968,35.791 106.467,37.412 104.468,37.412 Z" id="path-7" class="cls-9" fill-rule="evenodd"/>
    <path d="M161.253,88.535 C159.385,55.536 134.257,33.689 103.517,33.689 C72.777,33.689 47.648,55.536 45.780,88.535 C45.780,88.535 161.253,88.535 161.253,88.535 Z" id="path-8" class="cls-10" fill-rule="evenodd"/>
    <path d="M63.294,70.720 C62.884,70.720 62.467,70.650 62.059,70.501 C60.179,69.819 59.209,67.743 59.891,65.862 C63.625,55.573 70.880,46.924 80.316,41.510 C82.052,40.508 84.264,41.114 85.258,42.849 C86.253,44.583 85.654,46.796 83.919,47.789 C75.966,52.353 69.849,59.650 66.697,68.335 C66.164,69.805 64.774,70.720 63.294,70.720 Z" id="path-9" class="cls-11" fill-rule="evenodd"/>
    <path d="M185.184,119.535 C185.184,119.535 20.040,119.535 20.040,119.535 C20.040,119.535 38.423,88.535 38.423,88.535 C38.423,88.535 166.801,88.535 166.801,88.535 C166.801,88.535 185.184,119.535 185.184,119.535 Z" id="path-10" class="cls-9" fill-rule="evenodd"/>
    <path d="M114.366,11.742 C114.366,18.233 109.103,23.494 102.613,23.494 C96.122,23.494 90.860,18.233 90.860,11.742 C90.860,5.251 96.122,-0.010 102.613,-0.010 C109.103,-0.010 114.366,5.251 114.366,11.742 Z" id="path-11" class="cls-3" fill-rule="evenodd"/>
    <path d="M120.765,35.716 C131.857,41.820 138.370,50.295 143.529,62.092 C147.689,71.600 140.448,82.230 130.070,82.230 C130.070,82.230 46.338,82.230 46.338,82.230 C46.088,83.928 45.886,86.352 45.780,88.098 C45.780,88.098 161.253,88.098 161.253,88.098 C159.937,61.314 141.382,41.598 120.765,35.716 Z" id="path-12" class="cls-14" fill-rule="evenodd"/>
    <path d="M166.801,88.098 C166.801,88.098 151.319,88.098 151.319,88.098 C151.319,88.098 169.703,120.935 169.703,120.935 C169.703,120.935 185.184,120.935 185.184,120.935 C185.184,120.935 166.801,88.098 166.801,88.098 Z" id="path-13" class="cls-14" fill-rule="evenodd"/>
    <path d="M109.509,2.265 C110.925,4.205 111.785,6.575 111.785,9.161 C111.785,15.653 106.523,20.915 100.033,20.915 C97.446,20.915 95.077,20.054 93.136,18.639 C95.273,21.569 98.708,23.494 102.613,23.494 C109.103,23.494 114.366,18.233 114.366,11.742 C114.366,7.838 112.440,4.401 109.509,2.265 Z" id="path-14" class="cls-14" fill-rule="evenodd"/>
  </g>
</svg>
