<svg xmlns="http://www.w3.org/2000/svg" xmlns:xlink="http://www.w3.org/1999/xlink" preserveAspectRatio="xMidYMid" width="218" height="191" viewBox="0 0 218 191">
  <defs>
    <style>

      .cls-3 {
        fill: #ff3a2f;
      }

      .cls-6 {
        fill: #142a3b;
      }

      .cls-7 {
        fill: #060606;
        opacity: 0.35;
      }

      .cls-8 {
        fill: #fbb713;
      }

      .cls-9 {
        fill: #060606;
        opacity: 0.25;
      }
    </style>
  </defs>
  <g id="group-33svg">
    <path d="M163.580,188.691 C163.580,188.691 179.119,188.691 179.119,188.691 C182.115,188.691 184.543,187.281 184.543,185.543 C184.543,183.803 182.115,182.392 179.119,182.392 C179.119,182.392 178.395,182.392 178.395,182.392 C175.399,182.392 172.971,180.983 172.971,179.243 C172.971,177.504 175.399,176.094 178.395,176.094 C178.395,176.094 211.799,176.094 211.799,176.094 C214.794,176.094 217.223,174.684 217.223,172.944 C217.223,171.205 214.794,169.795 211.799,169.795 C211.799,169.795 171.657,169.795 171.657,169.795 C171.657,169.795 89.607,169.795 89.607,169.795 C86.610,169.795 84.182,171.205 84.182,172.944 C84.182,174.684 86.610,176.094 89.607,176.094 C89.607,176.094 98.877,176.094 98.877,176.094 C101.873,176.094 104.302,177.504 104.302,179.243 C104.302,180.983 101.873,182.392 98.877,182.392 C98.877,182.392 54.756,182.392 54.756,182.392 C51.761,182.392 49.332,183.803 49.332,185.543 C49.332,187.281 51.761,188.691 54.756,188.691 C54.756,188.691 65.184,188.691 65.184,188.691 C65.184,188.691 163.580,188.691 163.580,188.691 Z" id="path-1" class="cls-3" fill-rule="evenodd"/>
    <path d="M60.377,158.175 C60.377,158.175 68.589,158.175 68.589,158.175 C70.172,158.175 71.456,157.052 71.456,155.666 C71.456,154.281 70.172,153.158 68.589,153.158 C68.589,153.158 68.207,153.158 68.207,153.158 C66.624,153.158 65.340,152.035 65.340,150.649 C65.340,149.264 66.624,148.140 68.207,148.140 C68.207,148.140 85.860,148.140 85.860,148.140 C87.445,148.140 88.728,147.017 88.728,145.631 C88.728,144.247 87.445,143.122 85.860,143.122 C85.860,143.122 64.645,143.122 64.645,143.122 C64.645,143.122 21.280,143.122 21.280,143.122 C19.697,143.122 18.414,144.247 18.414,145.631 C18.414,147.017 19.697,148.140 21.280,148.140 C21.280,148.140 26.180,148.140 26.180,148.140 C27.763,148.140 29.047,149.264 29.047,150.649 C29.047,152.035 27.763,153.158 26.180,153.158 C26.180,153.158 2.862,153.158 2.862,153.158 C1.278,153.158 -0.005,154.281 -0.005,155.666 C-0.005,157.052 1.278,158.175 2.862,158.175 C2.862,158.175 8.373,158.175 8.373,158.175 C8.373,158.175 60.377,158.175 60.377,158.175 Z" id="path-2" class="cls-3" fill-rule="evenodd"/>
    <path d="M35.493,182.997 C38.866,182.997 41.602,184.551 41.602,186.467 C41.602,188.384 38.866,189.938 35.493,189.938 C35.493,189.938 16.773,189.938 16.773,189.938 C13.399,189.938 10.664,188.384 10.664,186.467 C10.664,184.551 13.399,182.997 16.773,182.997 C16.773,182.997 35.493,182.997 35.493,182.997 Z" id="path-3" class="cls-3" fill-rule="evenodd"/>
    <path d="M107.019,29.266 C125.783,29.266 145.123,18.556 148.969,0.436 C148.969,0.436 149.033,0.466 149.033,0.466 C149.033,0.466 149.033,0.012 149.033,0.012 C149.033,0.012 65.085,0.012 65.085,0.012 C68.998,18.367 88.664,29.266 107.019,29.266 Z" id="path-4" class="cls-6" fill-rule="evenodd"/>
    <path d="M134.118,0.011 C128.850,16.256 110.677,25.762 93.005,25.762 C91.440,25.762 89.867,25.653 88.294,25.498 C94.230,27.944 100.696,29.267 107.019,29.267 C125.783,29.267 145.123,18.556 148.969,0.435 C148.969,0.435 149.033,0.466 149.033,0.466 C149.033,0.466 149.033,0.011 149.033,0.011 C149.033,0.011 134.118,0.011 134.118,0.011 Z" id="path-5" class="cls-7" fill-rule="evenodd"/>
    <path d="M190.581,70.210 C190.581,70.210 165.223,70.210 165.223,70.210 C162.777,70.210 163.075,70.655 163.075,73.096 C163.075,73.096 163.075,174.588 163.075,174.588 C163.075,174.588 58.694,174.588 58.694,174.588 C58.694,174.588 58.694,73.096 58.694,73.096 C58.694,70.655 52.732,70.210 50.289,70.210 C50.289,70.210 23.464,70.210 23.464,70.210 C23.464,70.210 10.664,26.867 10.664,26.867 C10.664,26.867 65.085,0.012 65.085,0.012 C68.998,18.367 88.664,29.266 107.019,29.266 C125.783,29.266 145.123,18.556 148.969,0.435 C148.969,0.435 203.366,26.953 203.366,26.953 C203.366,26.953 190.581,70.210 190.581,70.210 Z" id="path-6" class="cls-8" fill-rule="evenodd"/>
    <path d="M148.969,0.435 C148.640,1.985 148.159,3.459 147.614,4.898 C147.614,4.898 192.856,26.954 192.856,26.954 C192.856,26.954 180.071,70.210 180.071,70.210 C180.071,70.210 190.582,70.210 190.582,70.210 C190.582,70.210 203.366,26.954 203.366,26.954 C203.366,26.954 148.969,0.435 148.969,0.435 Z" id="path-7" class="cls-9" fill-rule="evenodd"/>
    <path d="M96.508,29.267 C98.284,29.267 100.063,29.140 101.836,28.951 C85.115,27.126 68.631,16.646 65.085,0.011 C65.085,0.011 55.946,4.521 55.946,4.521 C61.869,20.126 79.718,29.267 96.508,29.267 Z" id="path-8" class="cls-9" fill-rule="evenodd"/>
    <path d="M152.564,73.097 C152.564,73.097 152.564,174.588 152.564,174.588 C152.564,174.588 163.075,174.588 163.075,174.588 C163.075,174.588 163.075,73.097 163.075,73.097 C163.075,70.654 162.777,70.210 165.223,70.210 C165.223,70.210 154.712,70.210 154.712,70.210 C152.266,70.210 152.564,70.654 152.564,73.097 Z" id="path-9" class="cls-9" fill-rule="evenodd"/>
  </g>
</svg>
