<svg xmlns="http://www.w3.org/2000/svg" xmlns:xlink="http://www.w3.org/1999/xlink" preserveAspectRatio="xMidYMid" width="189" height="217" viewBox="0 0 189 217">
  <defs>
    <style>

      .cls-3 {
        fill: #ff3a2f;
      }

      .cls-12 {
        fill: #2476ff;
      }

      .cls-13 {
        fill: #060606;
        opacity: 0.35;
      }
    </style>
  </defs>
  <g id="group-39svg">
    <path d="M115.929,214.917 C115.929,214.917 131.660,214.917 131.660,214.917 C134.692,214.917 137.152,213.230 137.152,211.151 C137.152,209.072 134.692,207.385 131.660,207.385 C131.660,207.385 130.928,207.385 130.928,207.385 C127.895,207.385 125.436,205.700 125.436,203.621 C125.436,201.541 127.895,199.857 130.928,199.857 C130.928,199.857 164.743,199.857 164.743,199.857 C167.776,199.857 170.235,198.171 170.235,196.091 C170.235,194.012 167.776,192.326 164.743,192.326 C164.743,192.326 124.105,192.326 124.105,192.326 C124.105,192.326 41.043,192.326 41.043,192.326 C38.011,192.326 35.553,194.012 35.553,196.091 C35.553,198.171 38.011,199.857 41.043,199.857 C41.043,199.857 50.429,199.857 50.429,199.857 C53.462,199.857 55.920,201.541 55.920,203.621 C55.920,205.700 53.462,207.385 50.429,207.385 C50.429,207.385 5.764,207.385 5.764,207.385 C2.731,207.385 0.272,209.072 0.272,211.151 C0.272,213.230 2.731,214.917 5.764,214.917 C5.764,214.917 16.320,214.917 16.320,214.917 C16.320,214.917 115.929,214.917 115.929,214.917 Z" id="path-1" class="cls-3" fill-rule="evenodd"/>
    <path d="M182.201,208.588 C185.755,208.588 188.635,210.521 188.635,212.905 C188.635,215.289 185.755,217.222 182.201,217.222 C182.201,217.222 162.485,217.222 162.485,217.222 C158.932,217.222 156.052,215.289 156.052,212.905 C156.052,210.521 158.932,208.588 162.485,208.588 C162.485,208.588 182.201,208.588 182.201,208.588 Z" id="path-2" class="cls-3" fill-rule="evenodd"/>
    <path d="M63.104,58.478 C70.073,58.478 75.728,52.816 75.728,45.856 C75.728,38.896 70.073,33.234 63.104,33.234 C56.152,33.234 50.482,38.896 50.482,45.856 C50.482,52.816 56.152,58.478 63.104,58.478 ZM63.104,41.649 C65.431,41.649 67.312,43.539 67.312,45.856 C67.312,48.173 65.431,50.064 63.104,50.064 C60.787,50.064 58.897,48.173 58.897,45.856 C58.897,43.539 60.787,41.649 63.104,41.649 Z" id="path-3" class="cls-3" fill-rule="evenodd"/>
    <path d="M42.280,66.680 C43.102,67.502 44.187,67.913 45.255,67.913 C46.340,67.913 47.408,67.502 48.229,66.680 C49.873,65.036 49.873,62.375 48.229,60.731 C44.253,56.753 42.066,51.477 42.066,45.856 C42.066,40.235 44.253,34.960 48.229,30.982 C49.873,29.338 49.873,26.675 48.229,25.032 C46.586,23.389 43.924,23.389 42.280,25.032 C36.716,30.596 33.651,37.992 33.651,45.856 C33.651,53.721 36.724,61.117 42.280,66.680 Z" id="path-4" class="cls-3" fill-rule="evenodd"/>
    <path d="M77.979,66.680 C78.800,67.502 79.887,67.913 80.954,67.913 C82.039,67.913 83.107,67.502 83.929,66.680 C89.501,61.117 92.566,53.721 92.566,45.856 C92.558,37.992 89.501,30.596 83.929,25.032 C82.285,23.389 79.623,23.389 77.979,25.032 C76.336,26.675 76.336,29.338 77.979,30.982 C81.956,34.960 84.151,40.235 84.151,45.856 C84.151,51.477 81.956,56.753 77.979,60.731 C76.336,62.375 76.336,65.036 77.979,66.680 Z" id="path-5" class="cls-3" fill-rule="evenodd"/>
    <path d="M30.380,78.580 C31.202,79.401 32.287,79.812 33.356,79.812 C34.440,79.812 35.508,79.401 36.330,78.580 C37.974,76.936 37.974,74.273 36.330,72.629 C29.180,65.480 25.235,55.972 25.235,45.856 C25.235,35.749 29.172,26.240 36.330,19.083 C37.974,17.439 37.974,14.776 36.330,13.132 C34.687,11.489 32.024,11.489 30.380,13.132 C21.637,21.877 16.820,33.496 16.820,45.856 C16.820,58.215 21.637,69.836 30.380,78.580 Z" id="path-6" class="cls-3" fill-rule="evenodd"/>
    <path d="M100.982,45.856 C100.982,55.972 97.045,65.480 89.879,72.629 C88.235,74.273 88.235,76.936 89.879,78.580 C90.701,79.401 91.785,79.812 92.854,79.812 C93.939,79.812 95.007,79.401 95.829,78.580 C104.581,69.836 109.397,58.215 109.397,45.856 C109.388,33.496 104.572,21.877 95.829,13.132 C94.185,11.489 91.523,11.489 89.879,13.132 C88.235,14.776 88.235,17.439 89.879,19.083 C97.037,26.240 100.982,35.740 100.982,45.856 Z" id="path-7" class="cls-3" fill-rule="evenodd"/>
    <path d="M21.456,91.712 C22.523,91.712 23.609,91.301 24.430,90.479 C26.074,88.835 26.074,86.172 24.430,84.530 C14.093,74.200 8.405,60.467 8.405,45.864 C8.405,31.261 14.093,17.521 24.430,7.183 C26.074,5.540 26.074,2.877 24.430,1.234 C22.787,-0.410 20.124,-0.410 18.481,1.234 C6.548,13.158 -0.019,29.009 -0.010,45.864 C-0.010,62.719 6.556,78.563 18.481,90.479 C19.302,91.301 20.371,91.712 21.456,91.712 Z" id="path-8" class="cls-3" fill-rule="evenodd"/>
    <path d="M117.820,45.848 C117.820,60.459 112.125,74.191 101.796,84.530 C100.152,86.172 100.152,88.835 101.796,90.479 C102.617,91.301 103.685,91.712 104.770,91.712 C105.838,91.712 106.923,91.301 107.745,90.479 C119.661,78.555 126.236,62.702 126.236,45.848 C126.228,28.993 119.661,13.150 107.745,1.234 C106.101,-0.410 103.439,-0.410 101.796,1.234 C100.152,2.877 100.152,5.540 101.796,7.183 C112.117,17.513 117.820,31.245 117.820,45.848 Z" id="path-9" class="cls-3" fill-rule="evenodd"/>
    <path d="M66.786,64.561 C65.216,62.211 61.165,62.227 59.604,64.561 C59.143,65.266 58.905,66.071 58.897,66.877 C6.531,192.643 6.679,192.855 8.405,195.453 C9.194,196.620 10.509,197.327 11.923,197.327 C11.923,197.327 114.993,197.327 114.993,197.327 C116.399,197.327 117.721,196.620 118.503,195.445 C120.236,192.840 120.385,192.626 67.583,66.680 C67.493,65.941 67.214,65.200 66.786,64.561 Z" id="path-10" class="cls-12" fill-rule="evenodd"/>
    <path d="M67.583,66.680 C67.493,65.941 67.214,65.200 66.786,64.560 C65.216,62.210 61.165,62.226 59.603,64.560 C59.143,65.267 58.905,66.072 58.897,66.876 C56.673,72.218 54.578,77.251 52.539,82.149 C98.808,192.566 98.635,192.952 96.975,195.445 C96.194,196.620 94.872,197.327 93.465,197.327 C93.465,197.327 114.993,197.327 114.993,197.327 C116.399,197.327 117.721,196.620 118.503,195.445 C120.236,192.840 120.385,192.627 67.583,66.680 Z" id="path-11" class="cls-13" fill-rule="evenodd"/>
  </g>
</svg>
