<svg xmlns="http://www.w3.org/2000/svg" xmlns:xlink="http://www.w3.org/1999/xlink" preserveAspectRatio="xMidYMid" width="196" height="218" viewBox="0 0 196 218">
  <defs>
    <style>

      .cls-3 {
        fill: #fbb713;
      }

      .cls-9 {
        fill: #ff3a2f;
      }

      .cls-10 {
        fill: #000000;
        opacity: 0.35;
      }

      .cls-12 {
        fill: #ededed;
      }

      .cls-14 {
        fill: #000000;
        opacity: 0.25;
      }
    </style>
  </defs>
  <g id="group-73svg">
    <path d="M91.632,211.619 C91.632,210.858 92.299,210.242 93.121,210.242 C93.943,210.242 94.610,210.858 94.610,211.619 C94.610,211.619 94.610,215.841 94.610,215.841 C94.610,216.602 93.943,217.219 93.121,217.219 C92.299,217.219 91.632,216.602 91.632,215.841 C91.632,215.841 91.632,211.619 91.632,211.619 Z" id="path-1" class="cls-3" fill-rule="evenodd"/>
    <path d="M169.419,146.706 C169.419,146.706 165.457,142.744 165.457,142.744 C164.694,141.981 163.408,142.028 162.586,142.850 C161.764,143.672 161.717,144.958 162.481,145.721 C162.481,145.721 162.665,145.905 162.665,145.905 C163.429,146.669 163.382,147.954 162.560,148.776 C161.738,149.599 160.453,149.645 159.689,148.882 C159.689,148.882 151.173,140.366 151.173,140.366 C150.409,139.602 149.124,139.651 148.302,140.472 C147.480,141.294 147.433,142.579 148.197,143.343 C148.197,143.343 158.430,153.576 158.430,153.576 C158.430,153.576 179.347,174.493 179.347,174.493 C180.111,175.256 181.396,175.210 182.218,174.387 C183.040,173.566 183.087,172.279 182.323,171.516 C182.323,171.516 179.960,169.153 179.960,169.153 C179.196,168.389 179.243,167.103 180.066,166.281 C180.887,165.459 182.173,165.412 182.937,166.177 C182.937,166.177 192.219,175.457 192.219,175.457 C192.983,176.222 194.268,176.175 195.090,175.353 C195.912,174.531 195.959,173.246 195.195,172.481 C195.195,172.481 194.503,171.788 194.503,171.788 C194.503,171.788 169.419,146.706 169.419,146.706 Z" id="path-2" class="cls-3" fill-rule="evenodd"/>
    <path d="M184.705,180.118 C184.167,179.580 184.202,178.673 184.784,178.091 C185.366,177.509 186.273,177.475 186.811,178.013 C186.811,178.013 189.796,180.997 189.796,180.997 C190.334,181.535 190.298,182.443 189.718,183.025 C189.136,183.606 188.229,183.641 187.690,183.103 C187.690,183.103 184.705,180.118 184.705,180.118 Z" id="path-3" class="cls-3" fill-rule="evenodd"/>
    <path d="M104.450,177.184 C104.450,177.184 104.450,171.582 104.450,171.582 C104.450,170.502 103.508,169.627 102.345,169.627 C101.183,169.627 100.240,170.502 100.240,171.582 C100.240,171.582 100.240,171.843 100.240,171.843 C100.240,172.923 99.298,173.798 98.136,173.798 C96.974,173.798 96.031,172.923 96.031,171.843 C96.031,171.843 96.031,159.801 96.031,159.801 C96.031,158.721 95.088,157.845 93.926,157.845 C92.764,157.845 91.821,158.721 91.821,159.801 C91.821,159.801 91.821,174.273 91.821,174.273 C91.821,174.273 91.821,203.853 91.821,203.853 C91.821,204.933 92.764,205.808 93.926,205.808 C95.088,205.808 96.031,204.933 96.031,203.853 C96.031,203.853 96.031,200.510 96.031,200.510 C96.031,199.430 96.974,198.554 98.136,198.554 C99.298,198.554 100.240,199.430 100.240,200.510 C100.240,200.510 100.240,213.636 100.240,213.636 C100.240,214.717 101.183,215.593 102.345,215.593 C103.508,215.593 104.450,214.717 104.450,213.636 C104.450,213.636 104.450,212.656 104.450,212.656 C104.450,212.656 104.450,177.184 104.450,177.184 Z" id="path-4" class="cls-3" fill-rule="evenodd"/>
    <path d="M26.326,146.706 C26.326,146.706 30.287,142.744 30.287,142.744 C31.051,141.981 32.337,142.028 33.159,142.850 C33.980,143.672 34.027,144.958 33.264,145.721 C33.264,145.721 33.080,145.905 33.080,145.905 C32.316,146.669 32.363,147.954 33.185,148.776 C34.007,149.599 35.292,149.645 36.056,148.882 C36.056,148.882 44.572,140.366 44.572,140.366 C45.335,139.602 46.621,139.651 47.443,140.472 C48.264,141.294 48.312,142.579 47.548,143.343 C47.548,143.343 37.314,153.576 37.314,153.576 C37.314,153.576 16.398,174.493 16.398,174.493 C15.634,175.256 14.348,175.210 13.526,174.387 C12.705,173.566 12.657,172.279 13.421,171.516 C13.421,171.516 15.785,169.153 15.785,169.153 C16.548,168.389 16.501,167.103 15.679,166.281 C14.857,165.459 13.572,165.412 12.808,166.177 C12.808,166.177 3.526,175.457 3.526,175.457 C2.762,176.222 1.476,176.175 0.655,175.353 C-0.167,174.531 -0.215,173.246 0.549,172.481 C0.549,172.481 1.242,171.788 1.242,171.788 C1.242,171.788 26.326,146.706 26.326,146.706 Z" id="path-5" class="cls-3" fill-rule="evenodd"/>
    <path d="M11.039,180.118 C11.578,179.580 11.542,178.673 10.961,178.091 C10.380,177.509 9.472,177.475 8.934,178.013 C8.934,178.013 5.949,180.997 5.949,180.997 C5.411,181.535 5.446,182.443 6.027,183.025 C6.609,183.606 7.516,183.641 8.054,183.103 C8.054,183.103 11.039,180.118 11.039,180.118 Z" id="path-6" class="cls-3" fill-rule="evenodd"/>
    <path d="M97.553,70.977 C97.553,70.977 89.615,70.977 89.615,70.977 C89.615,70.977 89.615,-0.003 89.615,-0.003 C89.615,-0.003 97.553,-0.003 97.553,-0.003 C97.553,-0.003 97.553,70.977 97.553,70.977 Z" id="path-7" class="cls-9" fill-rule="evenodd"/>
    <path d="M97.553,70.977 C97.553,70.977 89.615,70.977 89.615,70.977 C89.615,70.977 89.615,68.077 89.615,68.077 C89.615,68.077 97.553,63.155 97.553,63.155 C97.553,63.155 97.553,70.977 97.553,70.977 Z" id="path-8" class="cls-10" fill-rule="evenodd"/>
    <path d="M93.584,70.538 C60.675,70.538 33.998,97.214 33.998,130.122 C33.998,130.122 153.170,130.122 153.170,130.122 C153.170,97.214 126.493,70.538 93.584,70.538 Z" id="path-9" class="cls-3" fill-rule="evenodd"/>
    <path d="M48.649,114.946 C48.330,114.946 48.012,114.905 47.691,114.818 C45.763,114.290 44.625,112.300 45.152,110.371 C49.639,93.931 62.551,80.615 78.850,75.619 C80.770,75.036 82.785,76.109 83.372,78.020 C83.959,79.931 82.884,81.957 80.972,82.541 C67.023,86.817 55.978,98.211 52.138,112.277 C51.700,113.887 50.240,114.946 48.649,114.946 Z" id="path-10" class="cls-12" fill-rule="evenodd"/>
    <path d="M93.584,146.139 C102.645,146.139 109.989,138.795 109.989,129.735 C109.989,129.735 77.179,129.735 77.179,129.735 C77.179,138.795 84.524,146.139 93.584,146.139 Z" id="path-11" class="cls-9" fill-rule="evenodd"/>
    <path d="M93.584,70.538 C91.925,70.538 90.287,70.624 88.663,70.757 C119.266,73.260 143.327,98.872 143.327,130.122 C143.327,130.122 153.171,130.122 153.171,130.122 C153.171,97.214 126.493,70.538 93.584,70.538 Z" id="path-12" class="cls-14" fill-rule="evenodd"/>
    <path d="M77.179,129.735 C77.179,131.451 77.349,129.735 77.179,131.451 C77.179,131.451 100.146,134.656 100.146,134.656 C100.146,139.066 98.397,143.060 95.566,146.008 C103.690,145.028 109.989,138.122 109.989,129.735 C109.989,129.735 77.179,129.735 77.179,129.735 Z" id="path-13" class="cls-10" fill-rule="evenodd"/>
  </g>
</svg>
