<svg xmlns="http://www.w3.org/2000/svg" xmlns:xlink="http://www.w3.org/1999/xlink" preserveAspectRatio="xMidYMid" width="201" height="218" viewBox="0 0 201 218">
  <defs>
    <style>

      .cls-3 {
        fill: #0cb04a;
      }

      .cls-5 {
        fill: #142a3b;
      }

      .cls-6 {
        fill: #000000;
        opacity: 0.35;
      }

      .cls-14 {
        fill: #ff3a2f;
      }
    </style>
  </defs>
  <g id="group-83svg">
    <path d="M81.431,180.906 C81.431,180.906 64.718,180.906 64.718,180.906 C61.495,180.906 58.883,183.576 58.883,186.868 C58.883,190.162 61.495,192.830 64.718,192.830 C64.718,192.830 65.496,192.830 65.496,192.830 C68.718,192.830 71.330,195.500 71.330,198.792 C71.330,202.085 68.718,204.753 65.496,204.753 C65.496,204.753 29.568,204.753 29.568,204.753 C26.345,204.753 23.733,207.423 23.733,210.717 C23.733,214.009 26.345,216.677 29.568,216.677 C29.568,216.677 72.744,216.677 72.744,216.677 C72.744,216.677 160.996,216.677 160.996,216.677 C164.218,216.677 166.831,214.009 166.831,210.717 C166.831,207.423 164.218,204.753 160.996,204.753 C160.996,204.753 151.025,204.753 151.025,204.753 C147.803,204.753 145.190,202.085 145.190,198.792 C145.190,195.500 147.803,192.830 151.025,192.830 C151.025,192.830 190.187,192.830 190.187,192.830 C193.410,192.830 196.022,190.162 196.022,186.868 C196.022,183.576 193.410,180.906 190.187,180.906 C190.187,180.906 187.264,180.906 187.264,180.906 C187.264,180.906 81.431,180.906 81.431,180.906 Z" id="path-1" class="cls-3" fill-rule="evenodd"/>
    <path d="M184.168,217.214 C181.898,217.214 180.057,215.326 180.057,212.997 C180.057,210.668 181.898,208.780 184.168,208.780 C184.168,208.780 196.763,208.780 196.763,208.780 C199.033,208.780 200.873,210.668 200.873,212.997 C200.873,215.326 199.033,217.214 196.763,217.214 C196.763,217.214 184.168,217.214 184.168,217.214 Z" id="path-2" class="cls-3" fill-rule="evenodd"/>
    <path d="M128.248,73.336 C128.248,73.336 128.248,54.896 128.248,54.896 C128.248,54.896 108.936,54.896 108.936,54.896 C107.637,49.187 105.284,43.882 102.079,39.200 C102.079,39.200 115.985,25.293 115.985,25.293 C115.985,25.293 102.945,12.253 102.945,12.253 C102.945,12.253 88.825,26.374 88.825,26.374 C84.167,23.398 78.944,21.231 73.342,20.090 C73.342,20.090 73.342,-0.007 73.342,-0.007 C73.342,-0.007 54.901,-0.007 54.901,-0.007 C54.901,-0.007 54.901,20.090 54.901,20.090 C49.301,21.231 44.077,23.398 39.419,26.374 C39.419,26.374 25.298,12.253 25.298,12.253 C25.298,12.253 12.259,25.293 12.259,25.293 C12.259,25.293 26.165,39.200 26.165,39.200 C22.960,43.882 20.607,49.187 19.307,54.896 C19.307,54.896 -0.003,54.896 -0.003,54.896 C-0.003,54.896 -0.003,73.336 -0.003,73.336 C-0.003,73.336 18.891,73.336 18.891,73.336 C19.969,79.320 22.204,84.900 25.358,89.839 C25.358,89.839 12.259,102.938 12.259,102.938 C12.259,102.938 25.298,115.978 25.298,115.978 C25.298,115.978 38.185,103.092 38.185,103.092 C43.145,106.488 48.802,108.941 54.901,110.182 C54.901,110.182 54.901,128.239 54.901,128.239 C54.901,128.239 73.342,128.239 73.342,128.239 C73.342,128.239 73.342,110.182 73.342,110.182 C79.442,108.941 85.099,106.488 90.059,103.092 C90.059,103.092 102.945,115.978 102.945,115.978 C102.945,115.978 115.985,102.938 115.985,102.938 C115.985,102.938 102.887,89.839 102.887,89.839 C106.041,84.900 108.274,79.320 109.352,73.336 C109.352,73.336 128.248,73.336 128.248,73.336 ZM77.449,87.197 C77.449,87.197 50.795,87.197 50.795,87.197 C50.795,87.197 37.468,64.116 37.468,64.116 C37.468,64.116 50.795,41.033 50.795,41.033 C50.795,41.033 77.449,41.033 77.449,41.033 C77.449,41.033 90.776,64.116 90.776,64.116 C90.776,64.116 77.449,87.197 77.449,87.197 Z" id="path-3" class="cls-5" fill-rule="evenodd"/>
    <path d="M32.264,26.374 C33.740,25.432 35.291,24.603 36.874,23.828 C36.874,23.828 25.298,12.253 25.298,12.253 C25.298,12.253 21.721,15.830 21.721,15.830 C21.721,15.830 32.264,26.374 32.264,26.374 Z" id="path-4" class="cls-6" fill-rule="evenodd"/>
    <path d="M81.671,26.374 C81.671,26.374 84.216,23.828 84.216,23.828 C80.801,22.161 77.169,20.869 73.342,20.090 C73.342,20.090 73.342,-0.007 73.342,-0.007 C73.342,-0.007 66.188,-0.007 66.188,-0.007 C66.188,-0.007 66.188,20.090 66.188,20.090 C71.788,21.231 77.013,23.398 81.671,26.374 Z" id="path-5" class="cls-6" fill-rule="evenodd"/>
    <path d="M50.795,41.033 C50.795,41.033 43.641,41.033 43.641,41.033 C43.641,41.033 30.313,64.116 30.313,64.116 C30.313,64.116 43.641,87.197 43.641,87.197 C43.641,87.197 50.795,87.197 50.795,87.197 C50.795,87.197 37.468,64.116 37.468,64.116 C37.468,64.116 50.795,41.033 50.795,41.033 Z" id="path-6" class="cls-6" fill-rule="evenodd"/>
    <path d="M108.831,25.293 C108.831,25.293 94.924,39.200 94.924,39.200 C98.130,43.882 100.483,49.187 101.782,54.895 C101.782,54.895 108.936,54.895 108.936,54.895 C107.637,49.187 105.284,43.882 102.079,39.200 C102.079,39.200 115.986,25.293 115.986,25.293 C115.986,25.293 102.945,12.253 102.945,12.253 C102.945,12.253 99.368,15.830 99.368,15.830 C99.368,15.830 108.831,25.293 108.831,25.293 Z" id="path-7" class="cls-6" fill-rule="evenodd"/>
    <path d="M121.093,54.895 C121.093,54.895 121.093,73.336 121.093,73.336 C121.093,73.336 128.248,73.336 128.248,73.336 C128.248,73.336 128.248,54.895 128.248,54.895 C128.248,54.895 121.093,54.895 121.093,54.895 Z" id="path-8" class="cls-6" fill-rule="evenodd"/>
    <path d="M31.030,103.091 C31.030,103.091 21.721,112.400 21.721,112.400 C21.721,112.400 25.298,115.978 25.298,115.978 C25.298,115.978 35.510,105.765 35.510,105.765 C33.968,104.950 32.462,104.073 31.030,103.091 Z" id="path-9" class="cls-6" fill-rule="evenodd"/>
    <path d="M109.352,73.336 C109.352,73.336 102.198,73.336 102.198,73.336 C101.120,79.320 98.886,84.901 95.732,89.839 C95.732,89.839 108.831,102.938 108.831,102.938 C108.831,102.938 99.368,112.401 99.368,112.401 C99.368,112.401 102.945,115.978 102.945,115.978 C102.945,115.978 115.986,102.938 115.986,102.938 C115.986,102.938 102.887,89.839 102.887,89.839 C106.041,84.901 108.274,79.320 109.352,73.336 Z" id="path-10" class="cls-6" fill-rule="evenodd"/>
    <path d="M82.905,103.091 C77.944,106.488 72.288,108.941 66.188,110.182 C66.188,110.182 66.188,128.239 66.188,128.239 C66.188,128.239 73.342,128.239 73.342,128.239 C73.342,128.239 73.342,110.182 73.342,110.182 C77.681,109.300 81.780,107.779 85.579,105.766 C85.579,105.766 82.905,103.091 82.905,103.091 Z" id="path-11" class="cls-6" fill-rule="evenodd"/>
    <path d="M152.890,163.027 C152.890,163.027 152.890,151.706 152.890,151.706 C152.890,151.706 141.035,151.706 141.035,151.706 C140.237,148.201 138.793,144.944 136.825,142.070 C136.825,142.070 145.362,133.533 145.362,133.533 C145.362,133.533 137.357,125.528 137.357,125.528 C137.357,125.528 128.688,134.196 128.688,134.196 C125.828,132.369 122.622,131.038 119.183,130.338 C119.183,130.338 119.183,118.000 119.183,118.000 C119.183,118.000 107.862,118.000 107.862,118.000 C107.862,118.000 107.862,130.338 107.862,130.338 C104.424,131.038 101.217,132.369 98.357,134.196 C98.357,134.196 89.688,125.528 89.688,125.528 C89.688,125.528 81.683,133.533 81.683,133.533 C81.683,133.533 90.221,142.070 90.221,142.070 C88.253,144.944 86.808,148.201 86.011,151.706 C86.011,151.706 74.155,151.706 74.155,151.706 C74.155,151.706 74.155,163.027 74.155,163.027 C74.155,163.027 85.755,163.027 85.755,163.027 C86.417,166.700 87.788,170.125 89.725,173.158 C89.725,173.158 81.683,181.199 81.683,181.199 C81.683,181.199 89.688,189.204 89.688,189.204 C89.688,189.204 97.599,181.295 97.599,181.295 C100.645,183.379 104.117,184.885 107.862,185.646 C107.862,185.646 107.862,196.732 107.862,196.732 C107.862,196.732 119.183,196.732 119.183,196.732 C119.183,196.732 119.183,185.646 119.183,185.646 C122.927,184.885 126.401,183.379 129.446,181.295 C129.446,181.295 137.357,189.204 137.357,189.204 C137.357,189.204 145.362,181.199 145.362,181.199 C145.362,181.199 137.321,173.158 137.321,173.158 C139.257,170.125 140.629,166.700 141.290,163.027 C141.290,163.027 152.890,163.027 152.890,163.027 ZM121.704,171.536 C121.704,171.536 105.342,171.536 105.342,171.536 C105.342,171.536 97.160,157.366 97.160,157.366 C97.160,157.366 105.342,143.195 105.342,143.195 C105.342,143.195 121.704,143.195 121.704,143.195 C121.704,143.195 129.886,157.366 129.886,157.366 C129.886,157.366 121.704,171.536 121.704,171.536 Z" id="path-12" class="cls-14" fill-rule="evenodd"/>
    <path d="M91.202,134.195 C92.691,133.246 94.276,132.438 95.936,131.774 C95.936,131.774 89.688,125.526 89.688,125.526 C89.688,125.526 86.111,129.105 86.111,129.105 C86.111,129.105 91.202,134.195 91.202,134.195 Z" id="path-13" class="cls-6" fill-rule="evenodd"/>
    <path d="M121.534,134.195 C121.534,134.195 123.955,131.774 123.955,131.774 C122.425,131.163 120.833,130.675 119.183,130.338 C119.183,130.338 119.183,118.000 119.183,118.000 C119.183,118.000 112.029,118.000 112.029,118.000 C112.029,118.000 112.029,130.338 112.029,130.338 C115.467,131.038 118.674,132.369 121.534,134.195 Z" id="path-14" class="cls-6" fill-rule="evenodd"/>
    <path d="M138.208,133.533 C138.208,133.533 129.670,142.070 129.670,142.070 C131.638,144.944 133.083,148.201 133.880,151.706 C133.880,151.706 141.035,151.706 141.035,151.706 C140.237,148.201 138.793,144.944 136.825,142.070 C136.825,142.070 145.362,133.533 145.362,133.533 C145.362,133.533 137.357,125.526 137.357,125.526 C137.357,125.526 133.779,129.105 133.779,129.105 C133.779,129.105 138.208,133.533 138.208,133.533 Z" id="path-15" class="cls-6" fill-rule="evenodd"/>
    <path d="M105.342,143.195 C105.342,143.195 98.187,143.195 98.187,143.195 C98.187,143.195 90.005,157.366 90.005,157.366 C90.005,157.366 98.187,171.536 98.187,171.536 C98.187,171.536 105.342,171.536 105.342,171.536 C105.342,171.536 97.160,157.366 97.160,157.366 C97.160,157.366 105.342,143.195 105.342,143.195 Z" id="path-16" class="cls-6" fill-rule="evenodd"/>
    <path d="M141.290,163.027 C141.290,163.027 134.135,163.027 134.135,163.027 C133.474,166.700 132.103,170.125 130.166,173.158 C130.166,173.158 138.208,181.199 138.208,181.199 C138.208,181.199 133.779,185.628 133.779,185.628 C133.779,185.628 137.357,189.204 137.357,189.204 C137.357,189.204 145.362,181.199 145.362,181.199 C145.362,181.199 137.321,173.158 137.321,173.158 C139.257,170.125 140.628,166.700 141.290,163.027 Z" id="path-17" class="cls-6" fill-rule="evenodd"/>
    <path d="M145.736,151.706 C145.736,151.706 145.736,163.027 145.736,163.027 C145.736,163.027 152.890,163.027 152.890,163.027 C152.890,163.027 152.890,151.706 152.890,151.706 C152.890,151.706 145.736,151.706 145.736,151.706 Z" id="path-18" class="cls-6" fill-rule="evenodd"/>
    <path d="M90.445,181.295 C90.445,181.295 86.111,185.628 86.111,185.628 C86.111,185.628 89.688,189.204 89.688,189.204 C89.688,189.204 95.054,183.839 95.054,183.839 C93.434,183.130 91.888,182.282 90.445,181.295 Z" id="path-19" class="cls-6" fill-rule="evenodd"/>
    <path d="M122.292,181.295 C119.246,183.379 115.774,184.885 112.029,185.646 C112.029,185.646 112.029,196.733 112.029,196.733 C112.029,196.733 119.183,196.733 119.183,196.733 C119.183,196.733 119.183,185.646 119.183,185.646 C121.153,185.245 123.041,184.627 124.837,183.839 C124.837,183.839 122.292,181.295 122.292,181.295 Z" id="path-20" class="cls-6" fill-rule="evenodd"/>
  </g>
</svg>
