<svg xmlns="http://www.w3.org/2000/svg" xmlns:xlink="http://www.w3.org/1999/xlink" preserveAspectRatio="xMidYMid" width="218" height="154" viewBox="0 0 218 154">
  <defs>
    <style>

      .cls-3 {
        fill: #142a3b;
      }

      .cls-7 {
        fill: #ff3a2f;
      }

      .cls-10 {
        fill: #000000;
        opacity: 0.35;
      }
    </style>
  </defs>
  <g id="group-64svg">
    <path d="M71.563,120.394 C71.563,120.394 51.857,120.394 51.857,120.394 C48.058,120.394 44.977,122.725 44.977,125.601 C44.977,128.477 48.058,130.808 51.857,130.808 C51.857,130.808 52.774,130.808 52.774,130.808 C56.574,130.808 59.654,133.139 59.654,136.014 C59.654,138.891 56.574,141.221 52.774,141.221 C52.774,141.221 10.411,141.221 10.411,141.221 C6.611,141.221 3.532,143.553 3.532,146.429 C3.532,149.304 6.611,151.635 10.411,151.635 C10.411,151.635 61.321,151.635 61.321,151.635 C61.321,151.635 165.380,151.635 165.380,151.635 C169.179,151.635 172.259,149.304 172.259,146.429 C172.259,143.553 169.179,141.221 165.380,141.221 C165.380,141.221 153.622,141.221 153.622,141.221 C149.823,141.221 146.743,138.891 146.743,136.014 C146.743,133.139 149.823,130.808 153.622,130.808 C153.622,130.808 199.799,130.808 199.799,130.808 C203.599,130.808 206.679,128.477 206.679,125.601 C206.679,122.725 203.599,120.394 199.799,120.394 C199.799,120.394 196.353,120.394 196.353,120.394 C196.353,120.394 71.563,120.394 71.563,120.394 Z" id="path-1" class="cls-3" fill-rule="evenodd"/>
    <path d="M193.784,153.029 C190.598,153.029 188.015,150.532 188.015,147.450 C188.015,144.367 190.598,141.869 193.784,141.869 C193.784,141.869 211.459,141.869 211.459,141.869 C214.644,141.869 217.227,144.367 217.227,147.450 C217.227,150.532 214.644,153.029 211.459,153.029 C211.459,153.029 193.784,153.029 193.784,153.029 Z" id="path-2" class="cls-3" fill-rule="evenodd"/>
    <path d="M77.114,97.834 C74.225,97.834 71.882,96.240 71.882,94.271 C71.882,92.304 74.225,90.710 77.114,90.710 C77.114,90.710 93.146,90.710 93.146,90.710 C96.036,90.710 98.378,92.304 98.378,94.271 C98.378,96.240 96.036,97.834 93.146,97.834 C93.146,97.834 77.114,97.834 77.114,97.834 Z" id="path-3" class="cls-3" fill-rule="evenodd"/>
    <path d="M42.517,104.254 C42.517,104.254 48.137,104.254 48.137,104.254 C49.221,104.254 50.099,103.290 50.099,102.101 C50.099,100.913 49.221,99.950 48.137,99.950 C48.137,99.950 47.875,99.950 47.875,99.950 C46.792,99.950 45.914,98.986 45.914,97.798 C45.914,96.610 46.792,95.647 47.875,95.647 C47.875,95.647 59.958,95.647 59.958,95.647 C61.041,95.647 61.920,94.683 61.920,93.494 C61.920,92.306 61.041,91.343 59.958,91.343 C59.958,91.343 45.438,91.343 45.438,91.343 C45.438,91.343 15.760,91.343 15.760,91.343 C14.676,91.343 13.798,92.306 13.798,93.494 C13.798,94.683 14.676,95.647 15.760,95.647 C15.760,95.647 19.113,95.647 19.113,95.647 C20.197,95.647 21.075,96.610 21.075,97.798 C21.075,98.986 20.197,99.950 19.113,99.950 C19.113,99.950 3.154,99.950 3.154,99.950 C2.071,99.950 1.192,100.913 1.192,102.101 C1.192,103.290 2.071,104.254 3.154,104.254 C3.154,104.254 6.926,104.254 6.926,104.254 C6.926,104.254 42.517,104.254 42.517,104.254 Z" id="path-4" class="cls-3" fill-rule="evenodd"/>
    <path d="M189.040,125.748 C189.040,125.748 182.899,127.910 182.899,127.910 C182.899,127.910 143.693,16.560 143.693,16.560 C143.693,16.560 149.834,14.398 149.834,14.398 C149.834,14.398 189.040,125.748 189.040,125.748 Z" id="path-5" class="cls-7" fill-rule="evenodd"/>
    <path d="M13.487,125.748 C13.487,125.748 19.628,127.910 19.628,127.910 C19.628,127.910 58.834,16.560 58.834,16.560 C58.834,16.560 52.693,14.398 52.693,14.398 C52.693,14.398 13.487,125.748 13.487,125.748 Z" id="path-6" class="cls-7" fill-rule="evenodd"/>
    <path d="M199.045,18.344 C199.045,18.344 -0.001,18.344 -0.001,18.344 C-0.001,18.344 -0.001,0.008 -0.001,0.008 C-0.001,0.008 199.045,0.008 199.045,0.008 C199.045,0.008 199.045,18.344 199.045,18.344 Z" id="path-7" class="cls-7" fill-rule="evenodd"/>
    <path d="M199.045,18.344 C199.045,18.344 -0.001,18.344 -0.001,18.344 C-0.001,18.344 -0.001,8.901 -0.001,8.901 C-0.001,8.901 199.045,8.901 199.045,8.901 C199.045,8.901 199.045,18.344 199.045,18.344 Z" id="path-8" class="cls-10" fill-rule="evenodd"/>
  </g>
</svg>
