<svg xmlns="http://www.w3.org/2000/svg" xmlns:xlink="http://www.w3.org/1999/xlink" preserveAspectRatio="xMidYMid" width="218" height="162" viewBox="0 0 218 162">
  <defs>
    <style>

      .cls-3 {
        fill: #ff3a2f;
      }

      .cls-7 {
        fill: #0cb04a;
      }

      .cls-8 {
        fill: #090908;
        opacity: 0.35;
      }

      .cls-10 {
        fill: #142a3b;
      }

      .cls-11 {
        fill: #ededed;
      }
    </style>
  </defs>
  <g id="group-29svg">
    <path d="M81.873,158.499 C81.873,158.499 91.921,158.499 91.921,158.499 C93.859,158.499 95.429,157.213 95.429,155.624 C95.429,154.037 93.859,152.750 91.921,152.750 C91.921,152.750 91.454,152.750 91.454,152.750 C89.516,152.750 87.945,151.463 87.945,149.876 C87.945,148.287 89.516,147.000 91.454,147.000 C91.454,147.000 113.055,147.000 113.055,147.000 C114.993,147.000 116.563,145.713 116.563,144.125 C116.563,142.538 114.993,141.250 113.055,141.250 C113.055,141.250 87.095,141.250 87.095,141.250 C87.095,141.250 34.034,141.250 34.034,141.250 C32.097,141.250 30.526,142.538 30.526,144.125 C30.526,145.713 32.097,147.000 34.034,147.000 C34.034,147.000 40.029,147.000 40.029,147.000 C41.967,147.000 43.538,148.287 43.538,149.876 C43.538,151.463 41.967,152.750 40.029,152.750 C40.029,152.750 11.497,152.750 11.497,152.750 C9.560,152.750 7.989,154.037 7.989,155.624 C7.989,157.213 9.560,158.499 11.497,158.499 C11.497,158.499 18.240,158.499 18.240,158.499 C18.240,158.499 81.873,158.499 81.873,158.499 Z" id="path-1" class="cls-3" fill-rule="evenodd"/>
    <path d="M188.261,161.124 C188.261,161.124 193.572,161.124 193.572,161.124 C194.596,161.124 195.426,160.492 195.426,159.712 C195.426,158.933 194.596,158.301 193.572,158.301 C193.572,158.301 193.325,158.301 193.325,158.301 C192.301,158.301 191.471,157.669 191.471,156.889 C191.471,156.110 192.301,155.478 193.325,155.478 C193.325,155.478 204.742,155.478 204.742,155.478 C205.766,155.478 206.596,154.846 206.596,154.067 C206.596,153.287 205.766,152.655 204.742,152.655 C204.742,152.655 191.022,152.655 191.022,152.655 C191.022,152.655 162.978,152.655 162.978,152.655 C161.954,152.655 161.124,153.287 161.124,154.067 C161.124,154.846 161.954,155.478 162.978,155.478 C162.978,155.478 166.146,155.478 166.146,155.478 C167.171,155.478 168.001,156.110 168.001,156.889 C168.001,157.669 167.171,158.301 166.146,158.301 C166.146,158.301 151.067,158.301 151.067,158.301 C150.043,158.301 149.213,158.933 149.213,159.712 C149.213,160.492 150.043,161.124 151.067,161.124 C151.067,161.124 154.631,161.124 154.631,161.124 C154.631,161.124 188.261,161.124 188.261,161.124 Z" id="path-2" class="cls-3" fill-rule="evenodd"/>
    <path d="M16.055,141.051 C18.237,141.051 20.006,142.469 20.006,144.220 C20.006,145.969 18.237,147.388 16.055,147.388 C16.055,147.388 3.949,147.388 3.949,147.388 C1.767,147.388 -0.001,145.969 -0.001,144.220 C-0.001,142.469 1.767,141.051 3.949,141.051 C3.949,141.051 16.055,141.051 16.055,141.051 Z" id="path-3" class="cls-3" fill-rule="evenodd"/>
    <path d="M129.595,155.330 C131.777,155.330 133.546,156.750 133.546,158.499 C133.546,160.249 131.777,161.668 129.595,161.668 C129.595,161.668 117.489,161.668 117.489,161.668 C115.307,161.668 113.539,160.249 113.539,158.499 C113.539,156.750 115.307,155.330 117.489,155.330 C117.489,155.330 129.595,155.330 129.595,155.330 Z" id="path-4" class="cls-3" fill-rule="evenodd"/>
    <path d="M212.808,144.674 C212.808,144.674 58.421,144.674 58.421,144.674 C55.980,144.674 54.002,142.695 54.002,140.254 C54.002,140.254 54.002,88.659 54.002,88.659 C54.002,86.219 55.980,84.241 58.421,84.241 C58.421,84.241 212.808,84.241 212.808,84.241 C215.249,84.241 217.227,86.219 217.227,88.659 C217.227,88.659 217.227,140.255 217.227,140.255 C217.227,142.695 215.249,144.674 212.808,144.674 Z" id="path-5" class="cls-7" fill-rule="evenodd"/>
    <path d="M204.619,84.291 C205.061,85.606 205.356,86.987 205.356,88.450 C205.356,88.450 205.356,122.659 205.356,122.659 C205.356,129.899 199.485,135.770 192.243,135.770 C192.243,135.770 55.244,135.770 55.244,135.770 C55.071,135.770 54.910,135.726 54.739,135.719 C56.485,140.909 61.336,144.674 67.115,144.674 C67.115,144.674 204.114,144.674 204.114,144.674 C211.356,144.674 217.227,138.802 217.227,131.561 C217.227,131.561 217.227,97.352 217.227,97.352 C217.227,90.285 211.621,84.563 204.619,84.291 Z" id="path-6" class="cls-8" fill-rule="evenodd"/>
    <path d="M99.821,117.424 C99.821,122.944 95.346,127.417 89.827,127.417 C84.308,127.417 79.833,122.944 79.833,117.424 C79.833,111.905 84.308,107.431 89.827,107.431 C95.346,107.431 99.821,111.905 99.821,117.424 Z" id="path-7" class="cls-8" fill-rule="evenodd"/>
    <path d="M96.853,114.457 C96.853,119.976 92.378,124.450 86.859,124.450 C81.340,124.450 76.865,119.976 76.865,114.457 C76.865,108.938 81.340,104.464 86.859,104.464 C92.378,104.464 96.853,108.938 96.853,114.457 Z" id="path-8" class="cls-10" fill-rule="evenodd"/>
    <path d="M111.237,120.216 C111.237,120.216 111.237,120.216 111.237,120.216 C109.578,120.216 108.234,118.871 108.234,117.212 C108.234,117.212 108.234,110.939 108.234,110.939 C108.234,109.281 109.578,107.937 111.237,107.937 C111.237,107.937 111.237,107.937 111.237,107.937 C112.895,107.937 114.240,109.281 114.240,110.939 C114.240,110.939 114.240,117.212 114.240,117.212 C114.240,118.871 112.895,120.216 111.237,120.216 Z" id="path-9" class="cls-11" fill-rule="evenodd"/>
    <path d="M145.153,120.216 C145.153,120.216 145.153,120.216 145.153,120.216 C143.495,120.216 142.151,118.871 142.151,117.212 C142.151,117.212 142.151,110.939 142.151,110.939 C142.151,109.281 143.495,107.937 145.153,107.937 C145.153,107.937 145.153,107.937 145.153,107.937 C146.812,107.937 148.157,109.281 148.157,110.939 C148.157,110.939 148.157,117.212 148.157,117.212 C148.157,118.871 146.812,120.216 145.153,120.216 Z" id="path-10" class="cls-11" fill-rule="evenodd"/>
    <path d="M128.195,120.216 C128.195,120.216 128.195,120.216 128.195,120.216 C126.537,120.216 125.192,118.871 125.192,117.212 C125.192,117.212 125.192,110.939 125.192,110.939 C125.192,109.281 126.537,107.937 128.195,107.937 C128.195,107.937 128.195,107.937 128.195,107.937 C129.854,107.937 131.199,109.281 131.199,110.939 C131.199,110.939 131.199,117.212 131.199,117.212 C131.199,118.871 129.854,120.216 128.195,120.216 Z" id="path-11" class="cls-11" fill-rule="evenodd"/>
    <path d="M181.367,56.523 C181.367,56.523 175.007,56.523 175.007,56.523 C175.007,56.523 175.007,-0.004 175.007,-0.004 C175.007,-0.004 181.367,-0.004 181.367,-0.004 C181.367,-0.004 181.367,56.523 181.367,56.523 Z" id="path-12" class="cls-7" fill-rule="evenodd"/>
    <path d="M187.373,84.241 C187.373,84.241 169.001,84.241 169.001,84.241 C169.001,84.241 169.001,47.691 169.001,47.691 C169.001,47.691 187.373,47.691 187.373,47.691 C187.373,47.691 187.373,84.241 187.373,84.241 Z" id="path-13" class="cls-10" fill-rule="evenodd"/>
    <path d="M187.373,84.241 C187.373,84.241 169.001,84.241 169.001,84.241 C169.001,84.241 169.001,80.418 169.001,80.418 C169.001,80.418 187.373,74.483 187.373,74.483 C187.373,74.483 187.373,84.241 187.373,84.241 Z" id="path-14" class="cls-8" fill-rule="evenodd"/>
    <path d="M181.367,47.691 C181.367,47.691 175.007,47.691 175.007,47.691 C175.007,47.691 175.007,45.658 175.007,45.658 C175.007,45.658 181.367,43.626 181.367,43.626 C181.367,43.626 181.367,47.691 181.367,47.691 Z" id="path-15" class="cls-8" fill-rule="evenodd"/>
  </g>
</svg>
