<svg xmlns="http://www.w3.org/2000/svg" xmlns:xlink="http://www.w3.org/1999/xlink" preserveAspectRatio="xMidYMid" width="171" height="218" viewBox="0 0 171 218">
  <defs>
    <style>

      .cls-3 {
        fill: #ff3a2f;
      }

      .cls-5 {
        fill: #142a3b;
      }

      .cls-8 {
        fill: #2476ff;
      }

      .cls-9 {
        fill: #000000;
        opacity: 0.35;
      }
    </style>
  </defs>
  <g id="group-148svg">
    <path d="M54.512,191.063 C54.512,191.063 38.721,191.063 38.721,191.063 C35.676,191.063 33.208,192.932 33.208,195.236 C33.208,197.539 35.676,199.407 38.721,199.407 C38.721,199.407 39.456,199.407 39.456,199.407 C42.500,199.407 44.968,201.275 44.968,203.580 C44.968,205.884 42.500,207.753 39.456,207.753 C39.456,207.753 5.510,207.753 5.510,207.753 C2.465,207.753 -0.004,209.621 -0.004,211.925 C-0.004,214.230 2.465,216.098 5.510,216.098 C5.510,216.098 46.304,216.098 46.304,216.098 C46.304,216.098 129.687,216.098 129.687,216.098 C132.732,216.098 135.200,214.230 135.200,211.925 C135.200,209.621 132.732,207.753 129.687,207.753 C129.687,207.753 120.266,207.753 120.266,207.753 C117.221,207.753 114.753,205.884 114.753,203.580 C114.753,201.275 117.221,199.407 120.266,199.407 C120.266,199.407 157.268,199.407 157.268,199.407 C160.312,199.407 162.781,197.539 162.781,195.236 C162.781,192.932 160.312,191.063 157.268,191.063 C157.268,191.063 154.506,191.063 154.506,191.063 C154.506,191.063 54.512,191.063 54.512,191.063 Z" id="path-1" class="cls-3" fill-rule="evenodd"/>
    <path d="M152.447,217.215 C149.895,217.215 147.825,215.213 147.825,212.743 C147.825,210.274 149.895,208.272 152.447,208.272 C152.447,208.272 166.611,208.272 166.611,208.272 C169.163,208.272 171.232,210.274 171.232,212.743 C171.232,215.213 169.163,217.215 166.611,217.215 C166.611,217.215 152.447,217.215 152.447,217.215 Z" id="path-2" class="cls-3" fill-rule="evenodd"/>
    <path d="M78.272,161.098 C40.854,161.098 10.041,130.959 9.581,93.915 C9.581,93.915 9.578,93.000 9.578,93.000 C9.578,89.999 12.010,87.570 15.009,87.570 C18.007,87.570 20.440,89.999 20.440,93.000 C20.440,93.000 20.443,93.773 20.443,93.773 C20.828,124.911 46.769,150.237 78.272,150.237 C111.825,150.237 135.605,129.486 136.100,99.777 C136.104,99.299 136.107,87.595 136.107,87.247 C136.107,84.247 138.540,81.816 141.538,81.816 C144.536,81.816 146.969,84.247 146.969,87.247 C146.969,87.602 146.965,99.555 146.962,99.920 C146.368,135.382 117.482,161.098 78.272,161.098 Z" id="path-3" class="cls-5" fill-rule="evenodd"/>
    <path d="M78.272,191.150 C75.273,191.150 72.840,188.719 72.840,185.719 C72.840,185.719 72.840,159.442 72.840,159.442 C72.840,156.441 75.273,154.012 78.272,154.012 C81.270,154.012 83.702,156.441 83.702,159.442 C83.702,159.442 83.702,185.719 83.702,185.719 C83.702,188.719 81.270,191.150 78.272,191.150 Z" id="path-4" class="cls-5" fill-rule="evenodd"/>
    <path d="M92.916,195.796 C92.916,195.796 63.631,195.796 63.631,195.796 C60.633,195.796 58.200,193.366 58.200,190.366 C58.200,187.367 60.633,184.935 63.631,184.935 C63.631,184.935 92.916,184.935 92.916,184.935 C95.914,184.935 98.347,187.367 98.347,190.366 C98.347,193.366 95.914,195.796 92.916,195.796 Z" id="path-5" class="cls-5" fill-rule="evenodd"/>
    <path d="M118.115,97.770 C118.115,119.543 100.277,137.194 78.273,137.194 C78.273,137.194 78.273,137.194 78.273,137.194 C56.269,137.194 38.431,119.543 38.431,97.770 C38.431,97.770 38.431,39.418 38.431,39.418 C38.431,17.644 56.269,-0.006 78.273,-0.006 C78.273,-0.006 78.273,-0.006 78.273,-0.006 C100.277,-0.006 118.115,17.644 118.115,39.418 C118.115,39.418 118.115,97.770 118.115,97.770 Z" id="path-6" class="cls-8" fill-rule="evenodd"/>
    <path d="M115.226,53.238 C115.226,53.238 97.445,53.238 97.445,53.238 C95.444,53.238 93.825,51.617 93.825,49.617 C93.825,47.617 95.444,45.997 97.445,45.997 C97.445,45.997 115.226,45.997 115.226,45.997 C117.227,45.997 118.847,47.617 118.847,49.617 C118.847,51.617 117.227,53.238 115.226,53.238 Z" id="path-7" class="cls-9" fill-rule="evenodd"/>
    <path d="M115.226,72.213 C115.226,72.213 97.445,72.213 97.445,72.213 C95.444,72.213 93.825,70.592 93.825,68.593 C93.825,66.594 95.444,64.973 97.445,64.973 C97.445,64.973 115.226,64.973 115.226,64.973 C117.227,64.973 118.847,66.594 118.847,68.593 C118.847,70.592 117.227,72.213 115.226,72.213 Z" id="path-8" class="cls-9" fill-rule="evenodd"/>
    <path d="M115.226,90.869 C115.226,90.869 97.445,90.869 97.445,90.869 C95.444,90.869 93.825,89.248 93.825,87.247 C93.825,85.248 95.444,83.627 97.445,83.627 C97.445,83.627 115.226,83.627 115.226,83.627 C117.227,83.627 118.847,85.248 118.847,87.247 C118.847,89.248 117.227,90.869 115.226,90.869 Z" id="path-9" class="cls-9" fill-rule="evenodd"/>
    <path d="M61.548,53.399 C61.548,53.399 43.764,53.399 43.764,53.399 C41.762,53.399 40.143,51.777 40.143,49.778 C40.143,47.778 41.762,46.157 43.764,46.157 C43.764,46.157 61.548,46.157 61.548,46.157 C63.549,46.157 65.168,47.778 65.168,49.778 C65.168,51.777 63.549,53.399 61.548,53.399 Z" id="path-10" class="cls-9" fill-rule="evenodd"/>
    <path d="M61.548,72.374 C61.548,72.374 43.764,72.374 43.764,72.374 C41.762,72.374 40.143,70.753 40.143,68.754 C40.143,66.755 41.762,65.133 43.764,65.133 C43.764,65.133 61.548,65.133 61.548,65.133 C63.549,65.133 65.168,66.755 65.168,68.754 C65.168,70.753 63.549,72.374 61.548,72.374 Z" id="path-11" class="cls-9" fill-rule="evenodd"/>
    <path d="M61.548,91.029 C61.548,91.029 43.764,91.029 43.764,91.029 C41.762,91.029 40.143,89.408 40.143,87.408 C40.143,85.410 41.762,83.789 43.764,83.789 C43.764,83.789 61.548,83.789 61.548,83.789 C63.549,83.789 65.168,85.410 65.168,87.408 C65.168,89.408 63.549,91.029 61.548,91.029 Z" id="path-12" class="cls-9" fill-rule="evenodd"/>
  </g>
</svg>
