<svg xmlns="http://www.w3.org/2000/svg" xmlns:xlink="http://www.w3.org/1999/xlink" preserveAspectRatio="xMidYMid" width="185" height="217" viewBox="0 0 185 217">
  <defs>
    <style>

      .cls-3 {
        fill: #ff3a2f;
      }

      .cls-5 {
        fill: #142a3b;
      }

      .cls-6 {
        fill: #fbb713;
      }

      .cls-7 {
        fill: #ededed;
      }

      .cls-11 {
        fill: #000000;
        opacity: 0.35;
      }

      .cls-12 {
        fill: #000000;
        opacity: 0.25;
      }

      .cls-17 {
        fill: #ffffff;
      }
    </style>
  </defs>
  <g id="group-98svg">
    <path d="M58.848,188.989 C58.848,188.989 41.804,188.989 41.804,188.989 C38.518,188.989 35.854,191.006 35.854,193.493 C35.854,195.980 38.518,197.996 41.804,197.996 C41.804,197.996 42.598,197.996 42.598,197.996 C45.883,197.996 48.548,200.012 48.548,202.500 C48.548,204.987 45.883,207.004 42.598,207.004 C42.598,207.004 5.958,207.004 5.958,207.004 C2.672,207.004 0.008,209.019 0.008,211.507 C0.008,213.994 2.672,216.009 5.958,216.009 C5.958,216.009 49.989,216.009 49.989,216.009 C49.989,216.009 139.988,216.009 139.988,216.009 C143.274,216.009 145.938,213.994 145.938,211.507 C145.938,209.019 143.274,207.004 139.988,207.004 C139.988,207.004 129.819,207.004 129.819,207.004 C126.533,207.004 123.869,204.987 123.869,202.500 C123.869,200.012 126.533,197.996 129.819,197.996 C129.819,197.996 169.757,197.996 169.757,197.996 C173.043,197.996 175.707,195.980 175.707,193.493 C175.707,191.006 173.043,188.989 169.757,188.989 C169.757,188.989 166.776,188.989 166.776,188.989 C166.776,188.989 58.848,188.989 58.848,188.989 Z" id="path-1" class="cls-3" fill-rule="evenodd"/>
    <path d="M164.554,217.216 C161.799,217.216 159.565,215.054 159.565,212.390 C159.565,209.724 161.799,207.562 164.554,207.562 C164.554,207.562 179.841,207.562 179.841,207.562 C182.596,207.562 184.829,209.724 184.829,212.390 C184.829,215.054 182.596,217.216 179.841,217.216 C179.841,217.216 164.554,217.216 164.554,217.216 Z" id="path-2" class="cls-3" fill-rule="evenodd"/>
    <path d="M164.281,120.159 C164.281,120.159 142.228,120.159 142.228,120.159 C139.229,120.159 136.797,117.659 136.797,114.659 C136.797,111.659 139.229,109.159 142.228,109.159 C142.228,109.159 153.281,109.159 153.281,109.159 C153.281,109.159 153.281,65.162 153.281,65.162 C153.281,65.162 145.848,65.162 145.848,65.162 C142.850,65.162 140.417,63.661 140.417,60.661 C140.417,57.661 142.850,56.161 145.848,56.161 C145.848,56.161 164.281,56.161 164.281,56.161 C164.281,56.161 164.281,120.159 164.281,120.159 Z" id="path-3" class="cls-5" fill-rule="evenodd"/>
    <path d="M136.713,145.159 C136.713,145.159 62.508,145.159 62.508,145.159 C62.508,145.159 50.808,192.157 50.808,192.157 C50.808,192.157 148.413,192.157 148.413,192.157 C148.413,192.157 136.713,145.159 136.713,145.159 ZM100.519,181.628 C93.925,181.628 88.580,176.333 88.580,169.802 C88.580,163.271 93.925,157.976 100.519,157.976 C107.113,157.976 112.458,163.271 112.458,169.802 C112.458,176.333 107.113,181.628 100.519,181.628 Z" id="path-4" class="cls-6" fill-rule="evenodd"/>
    <path d="M148.413,40.162 C148.413,40.162 50.808,40.162 50.808,40.162 C50.808,40.162 62.508,131.159 62.508,131.159 C62.508,131.159 136.713,131.159 136.713,131.159 C136.713,131.159 148.413,40.162 148.413,40.162 Z" id="path-5" class="cls-7" fill-rule="evenodd"/>
    <path d="M140.587,102.271 C136.442,94.842 132.021,87.991 122.720,85.822 C112.991,84.835 100.847,87.174 88.579,89.528 C74.664,89.229 63.540,83.492 54.398,74.785 C54.398,74.785 62.508,131.159 62.508,131.159 C62.508,131.159 136.713,131.159 136.713,131.159 C136.713,131.159 140.587,102.271 140.587,102.271 Z" id="path-6" class="cls-3" fill-rule="evenodd"/>
    <path d="M112.458,169.802 C112.458,176.333 107.113,181.628 100.519,181.628 C93.925,181.628 88.580,176.333 88.580,169.802 C88.580,163.271 93.925,157.976 100.519,157.976 C107.113,157.976 112.458,163.271 112.458,169.802 Z" id="path-7" class="cls-5" fill-rule="evenodd"/>
    <path d="M146.373,18.199 C146.373,18.199 49.656,31.211 49.656,31.211 C49.656,31.211 47.884,18.293 47.884,18.293 C47.884,18.293 144.601,5.281 144.601,5.281 C144.601,5.281 146.373,18.199 146.373,18.199 Z" id="path-8" class="cls-6" fill-rule="evenodd"/>
    <path d="M97.489,158.407 C96.516,158.153 95.513,157.976 94.459,157.976 C87.865,157.976 82.519,163.271 82.519,169.802 C82.519,176.333 87.865,181.628 94.459,181.628 C95.513,181.628 96.516,181.449 97.489,181.194 C92.372,179.860 88.580,175.287 88.580,169.802 C88.580,164.315 92.372,159.741 97.489,158.407 Z" id="path-9" class="cls-11" fill-rule="evenodd"/>
    <path d="M136.713,146.028 C136.713,146.028 130.653,146.028 130.653,146.028 C130.653,146.028 142.150,193.093 142.150,193.093 C142.150,193.093 148.413,193.093 148.413,193.093 C148.413,193.093 136.713,146.028 136.713,146.028 Z" id="path-10" class="cls-12" fill-rule="evenodd"/>
    <path d="M135.122,40.839 C135.122,40.839 127.564,99.563 127.564,99.563 C125.865,112.766 114.623,122.653 101.309,122.653 C101.309,122.653 61.337,122.653 61.337,122.653 C61.337,122.653 62.508,131.744 62.508,131.744 C62.508,131.744 136.713,131.744 136.713,131.744 C136.713,131.744 148.413,40.839 148.413,40.839 C148.413,40.839 135.122,40.839 135.122,40.839 Z" id="path-11" class="cls-12" fill-rule="evenodd"/>
    <path d="M122.720,85.628 C112.992,84.639 100.848,87.076 88.580,89.430 C74.664,89.131 63.540,83.053 54.398,74.347 C54.398,74.347 56.028,85.610 56.028,85.610 C62.853,89.700 70.595,92.269 79.489,92.461 C91.757,90.105 103.900,87.670 113.630,88.658 C122.930,90.826 127.352,97.481 131.496,104.911 C131.496,104.911 128.118,131.547 128.118,131.547 C128.118,131.547 136.797,131.547 136.797,131.547 C136.797,131.547 140.587,101.881 140.587,101.881 C136.442,94.452 132.021,87.796 122.720,85.628 Z" id="path-12" class="cls-11" fill-rule="evenodd"/>
    <path d="M144.601,5.281 C144.601,5.281 139.058,6.026 139.058,6.026 C139.058,6.026 140.312,15.168 140.312,15.168 C140.312,15.168 49.138,27.436 49.138,27.436 C49.138,27.436 49.655,31.211 49.655,31.211 C49.655,31.211 146.373,18.199 146.373,18.199 C146.373,18.199 144.601,5.281 144.601,5.281 Z" id="path-13" class="cls-12" fill-rule="evenodd"/>
    <path d="M81.803,10.770 C80.018,10.770 78.462,9.449 78.219,7.632 C77.953,5.651 79.343,3.828 81.323,3.561 C81.323,3.561 107.603,0.026 107.603,0.026 C109.622,-0.230 111.411,1.152 111.676,3.131 C111.941,5.113 110.552,6.936 108.571,7.203 C108.571,7.203 82.291,10.739 82.291,10.739 C82.125,10.759 81.963,10.770 81.803,10.770 Z" id="path-14" class="cls-5" fill-rule="evenodd"/>
    <path d="M72.880,110.856 C71.169,110.856 69.645,109.639 69.323,107.896 C69.323,107.896 60.990,62.859 60.990,62.859 C60.626,60.891 61.926,59.003 63.892,58.639 C65.855,58.278 67.746,59.572 68.110,61.540 C68.110,61.540 76.444,106.577 76.444,106.577 C76.808,108.544 75.507,110.433 73.541,110.796 C73.318,110.837 73.100,110.856 72.880,110.856 Z" id="path-15" class="cls-17" fill-rule="evenodd"/>
  </g>
</svg>
