<svg xmlns="http://www.w3.org/2000/svg" xmlns:xlink="http://www.w3.org/1999/xlink" preserveAspectRatio="xMidYMid" width="217" height="213" viewBox="0 0 217 213">
  <defs>
    <style>

      .cls-3 {
        fill: #0cb04a;
      }

      .cls-7 {
        fill: #fbb713;
      }

      .cls-8 {
        fill: #ededed;
      }

      .cls-9 {
        fill: #ff3a2f;
      }

      .cls-10 {
        fill: #000000;
        opacity: 0.25;
      }
    </style>
  </defs>
  <g id="group-154svg">
    <path d="M113.598,190.092 C113.598,190.092 106.914,190.092 106.914,190.092 C105.625,190.092 104.580,190.884 104.580,191.859 C104.580,192.834 105.625,193.625 106.914,193.625 C106.914,193.625 107.225,193.625 107.225,193.625 C108.514,193.625 109.559,194.416 109.559,195.392 C109.559,196.367 108.514,197.157 107.225,197.157 C107.225,197.157 92.855,197.157 92.855,197.157 C91.567,197.157 90.522,197.948 90.522,198.924 C90.522,199.899 91.567,200.689 92.855,200.689 C92.855,200.689 110.124,200.689 110.124,200.689 C110.124,200.689 145.421,200.689 145.421,200.689 C146.710,200.689 147.755,199.899 147.755,198.924 C147.755,197.948 146.710,197.157 145.421,197.157 C145.421,197.157 141.433,197.157 141.433,197.157 C140.144,197.157 139.099,196.367 139.099,195.392 C139.099,194.416 140.144,193.625 141.433,193.625 C141.433,193.625 157.096,193.625 157.096,193.625 C158.385,193.625 159.430,192.834 159.430,191.859 C159.430,190.884 158.385,190.092 157.096,190.092 C157.096,190.092 155.927,190.092 155.927,190.092 C155.927,190.092 113.598,190.092 113.598,190.092 Z" id="path-1" class="cls-3" fill-rule="evenodd"/>
    <path d="M155.055,201.163 C153.975,201.163 153.099,200.316 153.099,199.271 C153.099,198.225 153.975,197.377 155.055,197.377 C155.055,197.377 161.050,197.377 161.050,197.377 C162.131,197.377 163.007,198.225 163.007,199.271 C163.007,200.316 162.131,201.163 161.050,201.163 C161.050,201.163 155.055,201.163 155.055,201.163 Z" id="path-2" class="cls-3" fill-rule="evenodd"/>
    <path d="M29.599,189.966 C29.599,189.966 21.024,189.966 21.024,189.966 C19.371,189.966 18.030,191.565 18.030,193.537 C18.030,195.511 19.371,197.112 21.024,197.112 C21.024,197.112 21.424,197.112 21.424,197.112 C23.076,197.112 24.417,198.712 24.417,200.685 C24.417,202.658 23.076,204.258 21.424,204.258 C21.424,204.258 2.991,204.258 2.991,204.258 C1.338,204.258 -0.003,205.858 -0.003,207.831 C-0.003,209.804 1.338,211.404 2.991,211.404 C2.991,211.404 25.142,211.404 25.142,211.404 C25.142,211.404 70.418,211.404 70.418,211.404 C72.072,211.404 73.412,209.804 73.412,207.831 C73.412,205.858 72.072,204.258 70.418,204.258 C70.418,204.258 65.303,204.258 65.303,204.258 C63.649,204.258 62.309,202.658 62.309,200.685 C62.309,198.712 63.649,197.112 65.303,197.112 C65.303,197.112 85.395,197.112 85.395,197.112 C87.048,197.112 88.388,195.511 88.388,193.537 C88.388,191.565 87.048,189.966 85.395,189.966 C85.395,189.966 83.895,189.966 83.895,189.966 C83.895,189.966 29.599,189.966 29.599,189.966 Z" id="path-3" class="cls-3" fill-rule="evenodd"/>
    <path d="M82.777,212.362 C81.391,212.362 80.267,210.647 80.267,208.533 C80.267,206.418 81.391,204.703 82.777,204.703 C82.777,204.703 90.467,204.703 90.467,204.703 C91.853,204.703 92.977,206.418 92.977,208.533 C92.977,210.647 91.853,212.362 90.467,212.362 C90.467,212.362 82.777,212.362 82.777,212.362 Z" id="path-4" class="cls-3" fill-rule="evenodd"/>
    <path d="M134.527,14.162 C153.450,-4.759 184.119,-4.759 203.034,14.162 C221.956,33.077 221.956,63.745 203.034,82.667 C203.034,82.667 128.508,157.190 128.508,157.190 C109.594,176.105 78.917,176.105 60.002,157.190 C41.087,138.268 41.087,107.600 60.002,88.685 C60.002,88.685 134.527,14.162 134.527,14.162 Z" id="path-5" class="cls-7" fill-rule="evenodd"/>
    <path d="M137.654,28.319 C136.728,28.319 135.802,27.966 135.094,27.260 C133.680,25.844 133.680,23.554 135.094,22.140 C143.104,14.130 153.752,9.718 165.078,9.718 C176.403,9.718 187.050,14.130 195.057,22.140 C196.471,23.554 196.471,25.847 195.057,27.260 C193.642,28.674 191.351,28.674 189.937,27.260 C183.297,20.618 174.469,16.958 165.078,16.958 C155.688,16.958 146.857,20.618 140.214,27.260 C139.507,27.966 138.580,28.319 137.654,28.319 Z" id="path-6" class="cls-8" fill-rule="evenodd"/>
    <path d="M162.059,123.641 C162.059,123.641 128.508,157.190 128.508,157.190 C109.594,176.105 78.917,176.105 60.002,157.190 C41.087,138.268 41.087,107.600 60.002,88.685 C60.002,88.685 87.256,61.433 87.256,61.433 C87.256,61.433 97.986,52.137 97.986,52.137 C97.986,52.137 165.058,119.209 165.058,119.209 C165.058,119.209 162.059,123.641 162.059,123.641 Z" id="path-7" class="cls-9" fill-rule="evenodd"/>
    <path d="M213.302,29.376 C214.472,43.111 209.821,57.249 199.308,67.763 C199.308,67.763 124.782,142.286 124.782,142.286 C105.867,161.200 75.191,161.200 56.275,142.286 C51.771,137.778 48.373,132.593 46.013,127.072 C46.949,138.055 51.598,148.784 60.002,157.190 C78.917,176.105 109.594,176.105 128.508,157.190 C128.508,157.190 203.034,82.667 203.034,82.667 C217.448,68.253 220.848,47.035 213.302,29.376 Z" id="path-8" class="cls-10" fill-rule="evenodd"/>
  </g>
</svg>
