<svg xmlns="http://www.w3.org/2000/svg" xmlns:xlink="http://www.w3.org/1999/xlink" preserveAspectRatio="xMidYMid" width="218" height="184" viewBox="0 0 218 184">
  <defs>
    <style>

      .cls-3 {
        fill: #ff3a2f;
      }

      .cls-6 {
        fill: #fbb713;
      }

      .cls-8 {
        fill: #010101;
        opacity: 0.25;
      }

      .cls-9 {
        fill: #010101;
        opacity: 0.35;
      }

      .cls-10 {
        fill: #ffffff;
      }

      .cls-13 {
        fill: #142a3b;
      }
    </style>
  </defs>
  <g id="group-92svg">
    <path d="M59.422,156.258 C59.422,156.258 42.781,156.258 42.781,156.258 C39.573,156.258 36.972,158.227 36.972,160.656 C36.972,163.084 39.573,165.052 42.781,165.052 C42.781,165.052 43.556,165.052 43.556,165.052 C46.765,165.052 49.366,167.021 49.366,169.450 C49.366,171.878 46.765,173.847 43.556,173.847 C43.556,173.847 7.783,173.847 7.783,173.847 C4.574,173.847 1.973,175.815 1.973,178.244 C1.973,180.672 4.574,182.641 7.783,182.641 C7.783,182.641 50.773,182.641 50.773,182.641 C50.773,182.641 138.645,182.641 138.645,182.641 C141.854,182.641 144.455,180.672 144.455,178.244 C144.455,175.815 141.854,173.847 138.645,173.847 C138.645,173.847 128.717,173.847 128.717,173.847 C125.508,173.847 122.907,171.878 122.907,169.450 C122.907,167.021 125.508,165.052 128.717,165.052 C128.717,165.052 167.711,165.052 167.711,165.052 C170.919,165.052 173.521,163.084 173.521,160.656 C173.521,158.227 170.919,156.258 167.711,156.258 C167.711,156.258 164.801,156.258 164.801,156.258 C164.801,156.258 59.422,156.258 59.422,156.258 Z" id="path-1" class="cls-3" fill-rule="evenodd"/>
    <path d="M162.631,183.818 C159.941,183.818 157.760,181.709 157.760,179.105 C157.760,176.503 159.941,174.393 162.631,174.393 C162.631,174.393 177.557,174.393 177.557,174.393 C180.247,174.393 182.427,176.503 182.427,179.105 C182.427,181.709 180.247,183.818 177.557,183.818 C177.557,183.818 162.631,183.818 162.631,183.818 Z" id="path-2" class="cls-3" fill-rule="evenodd"/>
    <path d="M34.894,142.629 C34.894,142.629 39.641,142.629 39.641,142.629 C40.556,142.629 41.298,141.816 41.298,140.813 C41.298,139.808 40.556,138.995 39.641,138.995 C39.641,138.995 39.420,138.995 39.420,138.995 C38.504,138.995 37.763,138.182 37.763,137.178 C37.763,136.175 38.504,135.361 39.420,135.361 C39.420,135.361 49.622,135.361 49.622,135.361 C50.537,135.361 51.279,134.548 51.279,133.544 C51.279,132.540 50.537,131.727 49.622,131.727 C49.622,131.727 37.361,131.727 37.361,131.727 C37.361,131.727 12.300,131.727 12.300,131.727 C11.385,131.727 10.643,132.540 10.643,133.544 C10.643,134.548 11.385,135.361 12.300,135.361 C12.300,135.361 15.131,135.361 15.131,135.361 C16.047,135.361 16.788,136.175 16.788,137.178 C16.788,138.182 16.047,138.995 15.131,138.995 C15.131,138.995 1.655,138.995 1.655,138.995 C0.741,138.995 -0.001,139.808 -0.001,140.813 C-0.001,141.816 0.741,142.629 1.655,142.629 C1.655,142.629 4.840,142.629 4.840,142.629 C4.840,142.629 34.894,142.629 34.894,142.629 Z" id="path-3" class="cls-3" fill-rule="evenodd"/>
    <path d="M217.227,128.642 C217.227,133.249 213.549,136.985 209.015,136.985 C209.015,136.985 167.945,136.985 167.945,136.985 C163.407,136.985 159.729,133.249 159.729,128.642 C159.729,128.642 159.729,69.580 159.729,69.580 C159.729,64.973 163.407,61.242 167.945,61.242 C167.945,61.242 209.015,61.242 209.015,61.242 C213.549,61.242 217.227,64.973 217.227,69.580 C217.227,69.580 217.227,128.642 217.227,128.642 Z" id="path-4" class="cls-6" fill-rule="evenodd"/>
    <path d="M188.477,34.813 C174.102,34.813 162.445,46.643 162.445,61.242 C162.445,61.242 214.511,61.242 214.511,61.242 C214.511,46.643 202.856,34.813 188.477,34.813 Z" id="path-5" class="cls-3" fill-rule="evenodd"/>
    <path d="M167.945,136.985 C167.945,136.985 172.531,136.985 172.531,136.985 C172.510,136.748 172.460,136.523 172.460,136.279 C172.460,136.279 172.460,77.219 172.460,77.219 C172.460,72.611 176.138,68.881 180.677,68.881 C180.677,68.881 217.158,68.881 217.158,68.881 C216.802,64.608 213.313,61.242 209.015,61.242 C209.015,61.242 167.945,61.242 167.945,61.242 C163.407,61.242 159.728,64.974 159.728,69.580 C159.728,69.580 159.728,128.642 159.728,128.642 C159.728,133.248 163.407,136.985 167.945,136.985 Z" id="path-6" class="cls-8" fill-rule="evenodd"/>
    <path d="M173.124,61.242 C175.463,49.082 186.004,39.906 198.662,39.906 C200.786,39.906 202.839,40.192 204.815,40.679 C200.347,37.017 194.668,34.813 188.477,34.813 C174.102,34.813 162.445,46.643 162.445,61.242 C162.445,61.242 173.124,61.242 173.124,61.242 Z" id="path-7" class="cls-9" fill-rule="evenodd"/>
    <path d="M208.557,57.325 C207.316,57.325 206.107,56.687 205.431,55.538 C204.229,53.494 202.501,51.776 200.429,50.574 C198.700,49.572 198.111,47.355 199.115,45.626 C200.122,43.897 202.334,43.308 204.063,44.313 C207.210,46.139 209.842,48.752 211.675,51.873 C212.688,53.595 212.112,55.814 210.387,56.827 C209.812,57.164 209.180,57.325 208.557,57.325 Z" id="path-8" class="cls-10" fill-rule="evenodd"/>
    <path d="M178.790,123.688 C177.166,123.688 175.851,122.373 175.851,120.749 C175.851,120.749 175.851,74.973 175.851,74.973 C175.851,73.348 177.166,72.033 178.790,72.033 C180.415,72.033 181.731,73.348 181.731,74.973 C181.731,74.973 181.731,120.749 181.731,120.749 C181.731,122.373 180.415,123.688 178.790,123.688 Z" id="path-9" class="cls-9" fill-rule="evenodd"/>
    <path d="M199.493,123.688 C197.869,123.688 196.554,122.373 196.554,120.749 C196.554,120.749 196.554,74.973 196.554,74.973 C196.554,73.348 197.869,72.033 199.493,72.033 C201.118,72.033 202.433,73.348 202.433,74.973 C202.433,74.973 202.433,120.749 202.433,120.749 C202.433,122.373 201.118,123.688 199.493,123.688 Z" id="path-10" class="cls-9" fill-rule="evenodd"/>
    <path d="M215.763,162.032 C215.763,162.032 54.500,162.032 54.500,162.032 C54.500,162.032 54.500,147.595 54.500,147.595 C54.500,147.595 215.763,147.595 215.763,147.595 C215.763,147.595 215.763,162.032 215.763,162.032 Z" id="path-11" class="cls-13" fill-rule="evenodd"/>
    <path d="M139.799,161.054 C139.799,161.054 130.464,161.054 130.464,161.054 C130.464,161.054 130.464,10.743 130.464,10.743 C130.464,10.743 139.799,10.743 139.799,10.743 C139.799,10.743 139.799,161.054 139.799,161.054 Z" id="path-12" class="cls-13" fill-rule="evenodd"/>
    <path d="M151.049,15.923 C151.049,24.714 143.922,31.841 135.132,31.841 C126.340,31.841 119.213,24.714 119.213,15.923 C119.213,7.133 126.340,0.005 135.132,0.005 C143.922,0.005 151.049,7.133 151.049,15.923 Z" id="path-13" class="cls-13" fill-rule="evenodd"/>
    <path d="M135.132,0.005 C134.118,0.005 133.134,0.123 132.173,0.303 C139.547,1.693 145.132,8.145 145.132,15.923 C145.132,23.701 139.547,30.154 132.173,31.543 C133.134,31.724 134.118,31.841 135.132,31.841 C143.923,31.841 151.049,24.715 151.049,15.923 C151.049,7.133 143.923,0.005 135.132,0.005 Z" id="path-14" class="cls-9" fill-rule="evenodd"/>
    <path d="M99.430,36.228 C99.430,36.228 99.430,12.736 99.430,12.736 C99.430,12.736 84.153,12.736 84.153,12.736 C84.153,12.736 84.153,36.228 84.153,36.228 C84.153,38.294 83.577,40.317 82.491,42.074 C82.491,42.074 66.400,68.104 66.400,68.104 C65.314,69.861 64.739,71.884 64.739,73.949 C64.739,73.949 64.739,125.868 64.739,125.868 C64.739,132.007 69.717,136.985 75.857,136.985 C75.857,136.985 107.725,136.985 107.725,136.985 C113.865,136.985 118.843,132.007 118.843,125.868 C118.843,125.868 118.843,73.949 118.843,73.949 C118.843,71.884 118.268,69.861 117.182,68.104 C117.182,68.104 101.090,42.074 101.090,42.074 C100.005,40.317 99.430,38.294 99.430,36.228 Z" id="path-15" class="cls-3" fill-rule="evenodd"/>
    <path d="M117.182,68.104 C117.182,68.104 101.090,42.074 101.090,42.074 C100.005,40.317 99.430,38.294 99.430,36.228 C99.430,36.228 99.430,12.736 99.430,12.736 C99.430,12.736 93.512,12.736 93.512,12.736 C93.512,12.736 93.512,33.270 93.512,33.270 C93.512,35.335 94.087,37.360 95.173,39.117 C95.173,39.117 111.264,65.145 111.264,65.145 C112.351,66.902 112.925,68.926 112.925,70.991 C112.925,70.991 112.925,122.909 112.925,122.909 C112.925,129.048 107.948,134.026 101.808,134.026 C101.808,134.026 69.939,134.026 69.939,134.026 C69.321,134.026 68.726,133.941 68.136,133.844 C70.137,135.780 72.853,136.985 75.857,136.985 C75.857,136.985 107.725,136.985 107.725,136.985 C113.865,136.985 118.843,132.007 118.843,125.868 C118.843,125.868 118.843,73.949 118.843,73.949 C118.843,71.885 118.268,69.861 117.182,68.104 Z" id="path-16" class="cls-9" fill-rule="evenodd"/>
    <path d="M104.204,14.009 C104.204,14.009 79.378,14.009 79.378,14.009 C79.378,14.009 79.378,0.858 79.378,0.858 C79.378,0.858 104.204,0.858 104.204,0.858 C104.204,0.858 104.204,14.009 104.204,14.009 Z" id="path-17" class="cls-13" fill-rule="evenodd"/>
    <path d="M93.415,0.858 C93.415,0.858 93.415,14.009 93.415,14.009 C93.415,14.009 102.580,14.009 102.580,14.009 C102.580,14.009 102.580,0.858 102.580,0.858 C102.580,0.858 93.415,0.858 93.415,0.858 Z" id="path-18" class="cls-9" fill-rule="evenodd"/>
    <path d="M118.843,114.162 C118.843,114.162 80.069,114.162 80.069,114.162 C80.069,114.162 80.069,85.899 80.069,85.899 C80.069,85.899 118.843,85.899 118.843,85.899 C118.843,85.899 118.843,114.162 118.843,114.162 Z" id="path-19" class="cls-10" fill-rule="evenodd"/>
  </g>
</svg>
