<svg xmlns="http://www.w3.org/2000/svg" xmlns:xlink="http://www.w3.org/1999/xlink" preserveAspectRatio="xMidYMid" width="218" height="212" viewBox="0 0 218 212">
  <defs>
    <style>

      .cls-3 {
        fill: #2476ff;
      }

      .cls-5 {
        fill: #ff3a2f;
      }

      .cls-6 {
        fill: #060606;
        opacity: 0.35;
      }

      .cls-7 {
        fill: #ededed;
      }
    </style>
  </defs>
  <g id="group-41svg">
    <path d="M70.764,179.657 C70.764,179.657 50.268,179.657 50.268,179.657 C46.316,179.657 43.113,181.992 43.113,184.873 C43.113,187.753 46.316,190.088 50.268,190.088 C50.268,190.088 51.222,190.088 51.222,190.088 C55.174,190.088 58.378,192.423 58.378,195.304 C58.378,198.184 55.174,200.520 51.222,200.520 C51.222,200.520 7.163,200.520 7.163,200.520 C3.211,200.520 0.008,202.855 0.008,205.735 C0.008,208.615 3.211,210.951 7.163,210.951 C7.163,210.951 60.111,210.951 60.111,210.951 C60.111,210.951 168.334,210.951 168.334,210.951 C172.287,210.951 175.490,208.615 175.490,205.735 C175.490,202.855 172.287,200.520 168.334,200.520 C168.334,200.520 156.107,200.520 156.107,200.520 C152.155,200.520 148.952,198.184 148.952,195.304 C148.952,192.423 152.155,190.088 156.107,190.088 C156.107,190.088 204.133,190.088 204.133,190.088 C208.084,190.088 211.287,187.753 211.287,184.873 C211.287,181.992 208.084,179.657 204.133,179.657 C204.133,179.657 200.548,179.657 200.548,179.657 C200.548,179.657 70.764,179.657 70.764,179.657 Z" id="path-1" class="cls-3" fill-rule="evenodd"/>
    <path d="M196.750,211.420 C193.967,211.420 191.710,209.768 191.710,207.731 C191.710,205.692 193.967,204.042 196.750,204.042 C196.750,204.042 212.196,204.042 212.196,204.042 C214.980,204.042 217.237,205.692 217.237,207.731 C217.237,209.768 214.980,211.420 212.196,211.420 C212.196,211.420 196.750,211.420 196.750,211.420 Z" id="path-2" class="cls-3" fill-rule="evenodd"/>
    <path d="M43.629,-0.009 C43.629,-0.009 4.941,38.677 4.941,38.677 C4.941,38.677 4.941,76.550 4.941,76.550 C4.941,76.550 120.464,192.069 120.464,192.069 C120.464,192.069 197.643,114.893 197.643,114.893 C197.643,114.893 82.737,-0.009 82.737,-0.009 C82.737,-0.009 43.629,-0.009 43.629,-0.009 Z" id="path-3" class="cls-5" fill-rule="evenodd"/>
    <path d="M82.737,10.469 C82.737,10.469 192.404,120.133 192.404,120.133 C192.404,120.133 197.643,114.893 197.643,114.893 C197.643,114.893 82.737,-0.009 82.737,-0.009 C82.737,-0.009 43.629,-0.009 43.629,-0.009 C43.629,-0.009 4.941,38.678 4.941,38.678 C4.941,38.678 4.941,49.156 4.941,49.156 C4.941,49.156 43.629,10.469 43.629,10.469 C43.629,10.469 82.737,10.469 82.737,10.469 Z" id="path-4" class="cls-6" fill-rule="evenodd"/>
    <path d="M67.674,32.469 C75.858,40.653 75.858,53.921 67.674,62.104 C59.490,70.288 46.221,70.288 38.037,62.104 C29.853,53.921 29.853,40.653 38.037,32.469 C46.221,24.285 59.490,24.285 67.674,32.469 Z" id="path-5" class="cls-7" fill-rule="evenodd"/>
    <path d="M45.022,39.454 C51.998,32.478 62.642,31.505 70.708,36.419 C69.857,35.021 68.883,33.678 67.674,32.469 C59.490,24.285 46.221,24.285 38.037,32.469 C29.853,40.653 29.853,53.921 38.037,62.105 C39.246,63.314 40.590,64.288 41.988,65.139 C37.074,57.073 38.047,46.427 45.022,39.454 Z" id="path-6" class="cls-6" fill-rule="evenodd"/>
  </g>
</svg>
