<svg xmlns="http://www.w3.org/2000/svg" xmlns:xlink="http://www.w3.org/1999/xlink" preserveAspectRatio="xMidYMid" width="217" height="182" viewBox="0 0 217 182">
  <defs>
    <style>

      .cls-3 {
        fill: #ff3a2f;
      }

      .cls-5 {
        fill: #fbb713;
      }

      .cls-6 {
        fill: #000000;
        opacity: 0.25;
      }

      .cls-9 {
        fill: #000000;
        opacity: 0.35;
      }

      .cls-10 {
        fill: #142a3b;
      }

      .cls-11 {
        fill: #ededed;
      }
    </style>
  </defs>
  <g id="group-132svg">
    <path d="M63.561,151.495 C63.561,151.495 45.150,151.495 45.150,151.495 C41.599,151.495 38.722,153.673 38.722,156.361 C38.722,159.048 41.599,161.225 45.150,161.225 C45.150,161.225 46.006,161.225 46.006,161.225 C49.556,161.225 52.434,163.402 52.434,166.089 C52.434,168.775 49.556,170.953 46.006,170.953 C46.006,170.953 6.428,170.953 6.428,170.953 C2.878,170.953 0.000,173.132 0.000,175.818 C0.000,178.505 2.878,180.682 6.428,180.682 C6.428,180.682 53.991,180.682 53.991,180.682 C53.991,180.682 151.210,180.682 151.210,180.682 C154.759,180.682 157.637,178.505 157.637,175.818 C157.637,173.132 154.759,170.953 151.210,170.953 C151.210,170.953 140.226,170.953 140.226,170.953 C136.676,170.953 133.798,168.775 133.798,166.089 C133.798,163.402 136.676,161.225 140.226,161.225 C140.226,161.225 183.367,161.225 183.367,161.225 C186.917,161.225 189.795,159.048 189.795,156.361 C189.795,153.673 186.917,151.495 183.367,151.495 C183.367,151.495 180.147,151.495 180.147,151.495 C180.147,151.495 63.561,151.495 63.561,151.495 Z" id="path-1" class="cls-3" fill-rule="evenodd"/>
    <path d="M177.747,181.986 C174.770,181.986 172.358,179.652 172.358,176.773 C172.358,173.893 174.770,171.559 177.747,171.559 C177.747,171.559 194.260,171.559 194.260,171.559 C197.236,171.559 199.649,173.893 199.649,176.773 C199.649,179.652 197.236,181.986 194.260,181.986 C194.260,181.986 177.747,181.986 177.747,181.986 Z" id="path-2" class="cls-3" fill-rule="evenodd"/>
    <path d="M216.755,155.093 C216.755,155.093 56.576,155.093 56.576,155.093 C56.576,155.093 56.576,35.890 56.576,35.890 C56.576,35.890 216.755,35.890 216.755,35.890 C216.755,35.890 216.755,155.093 216.755,155.093 Z" id="path-3" class="cls-5" fill-rule="evenodd"/>
    <path d="M216.755,155.093 C216.755,155.093 56.576,155.093 56.576,155.093 C56.576,155.093 56.576,35.890 56.576,35.890 C56.576,35.890 216.755,35.890 216.755,35.890 C216.755,35.890 216.755,155.093 216.755,155.093 Z" id="path-4" class="cls-6" fill-rule="evenodd"/>
    <path d="M188.248,-0.004 C188.248,-0.004 85.084,-0.004 85.084,-0.004 C85.084,-0.004 56.102,35.600 56.102,35.600 C56.102,35.600 217.229,35.600 217.229,35.600 C217.229,35.600 188.248,-0.004 188.248,-0.004 Z" id="path-5" class="cls-5" fill-rule="evenodd"/>
    <path d="M216.755,70.924 C216.755,70.924 56.576,70.924 56.576,70.924 C56.576,70.924 56.576,35.890 56.576,35.890 C56.576,35.890 216.755,35.890 216.755,35.890 C216.755,35.890 216.755,70.924 216.755,70.924 Z" id="path-6" class="cls-3" fill-rule="evenodd"/>
    <path d="M216.755,70.924 C216.755,70.924 56.576,70.924 56.576,70.924 C56.576,70.924 56.576,35.890 56.576,35.890 C56.576,35.890 216.755,35.890 216.755,35.890 C216.755,35.890 216.755,70.924 216.755,70.924 Z" id="path-7" class="cls-9" fill-rule="evenodd"/>
    <path d="M216.755,154.645 C216.755,154.645 56.576,154.645 56.576,154.645 C56.576,154.645 56.576,114.779 56.576,114.779 C56.576,114.779 216.755,114.779 216.755,114.779 C216.755,114.779 216.755,154.645 216.755,154.645 Z" id="path-8" class="cls-10" fill-rule="evenodd"/>
    <circle id="circle-1" class="cls-11" cx="86" cy="134" r="11"/>
    <circle id="circle-2" class="cls-11" cx="86" cy="94" r="11"/>
    <path d="M85.653,64.292 C80.168,64.292 75.706,59.830 75.706,54.344 C75.706,48.861 80.168,44.397 85.653,44.397 C91.138,44.397 95.600,48.861 95.600,54.344 C95.600,59.830 91.138,64.292 85.653,64.292 Z" id="path-9" class="cls-11" fill-rule="evenodd"/>
    <path d="M196.733,56.459 C196.733,56.459 186.116,56.459 186.116,56.459 C183.117,56.459 180.685,54.030 180.685,51.029 C180.685,48.030 183.117,45.598 186.116,45.598 C186.116,45.598 196.733,45.598 196.733,45.598 C199.732,45.598 202.164,48.030 202.164,51.029 C202.164,54.030 199.732,56.459 196.733,56.459 Z" id="path-10" class="cls-11" fill-rule="evenodd"/>
    <path d="M166.408,56.459 C166.408,56.459 155.795,56.459 155.795,56.459 C152.796,56.459 150.364,54.030 150.364,51.029 C150.364,48.030 152.796,45.598 155.795,45.598 C155.795,45.598 166.408,45.598 166.408,45.598 C169.406,45.598 171.839,48.030 171.839,51.029 C171.839,54.030 169.406,56.459 166.408,56.459 Z" id="path-11" class="cls-11" fill-rule="evenodd"/>
    <path d="M196.733,99.564 C196.733,99.564 186.116,99.564 186.116,99.564 C183.117,99.564 180.685,97.133 180.685,94.133 C180.685,91.134 183.117,88.702 186.116,88.702 C186.116,88.702 196.733,88.702 196.733,88.702 C199.732,88.702 202.164,91.134 202.164,94.133 C202.164,97.133 199.732,99.564 196.733,99.564 Z" id="path-12" class="cls-11" fill-rule="evenodd"/>
    <path d="M166.408,99.564 C166.408,99.564 155.795,99.564 155.795,99.564 C152.796,99.564 150.364,97.133 150.364,94.133 C150.364,91.134 152.796,88.702 155.795,88.702 C155.795,88.702 166.408,88.702 166.408,88.702 C169.406,88.702 171.839,91.134 171.839,94.133 C171.839,97.133 169.406,99.564 166.408,99.564 Z" id="path-13" class="cls-11" fill-rule="evenodd"/>
    <path d="M196.733,138.254 C196.733,138.254 186.116,138.254 186.116,138.254 C183.117,138.254 180.685,135.822 180.685,132.823 C180.685,129.824 183.117,127.393 186.116,127.393 C186.116,127.393 196.733,127.393 196.733,127.393 C199.732,127.393 202.164,129.824 202.164,132.823 C202.164,135.822 199.732,138.254 196.733,138.254 Z" id="path-14" class="cls-11" fill-rule="evenodd"/>
    <path d="M166.408,138.254 C166.408,138.254 155.795,138.254 155.795,138.254 C152.796,138.254 150.364,135.822 150.364,132.823 C150.364,129.824 152.796,127.393 155.795,127.393 C155.795,127.393 166.408,127.393 166.408,127.393 C169.406,127.393 171.839,129.824 171.839,132.823 C171.839,135.822 169.406,138.254 166.408,138.254 Z" id="path-15" class="cls-11" fill-rule="evenodd"/>
  </g>
</svg>
