<?xml version="1.0" encoding="utf-8"?>
<!-- Generator: Adobe Illustrator 15.0.0, SVG Export Plug-In . SVG Version: 6.00 Build 0)  -->
<!DOCTYPE svg PUBLIC "-//W3C//DTD SVG 1.1//EN" "http://www.w3.org/Graphics/SVG/1.1/DTD/svg11.dtd">
<svg version="1.1" id="Layer_1" xmlns="http://www.w3.org/2000/svg" xmlns:xlink="http://www.w3.org/1999/xlink" x="0px" y="0px"
	 width="148.062px" height="211.544px" viewBox="0 0 148.062 211.544" enable-background="new 0 0 148.062 211.544"
	 xml:space="preserve">
<g>
	<path fill="#5A280F" d="M19.84,23.302c-3.021-3.488-4.356-10.995-5.437-13.569c-1.081-2.575-3.154-9.499-9.449-8.765
		c-6.293,0.733-5.382,10.846-3.783,17.28c1.6,6.436,5.672,15.559,14.227,16.817c8.06,1.184,11.135-0.053,16.573-0.856
		c5.44-0.802,10.183-1.325,13.789,2.534c1.865,1.994,4.304,2.406,5.87,2.411c1.595,0.006,2.864-0.87,2.266-4.844
		c0,0-1.357-14.779-2.812-19.104c-1.343-3.986-3.061-7.066-7.495-6.068c-4.583,1.03-2.133,6.357-0.968,8.855
		c1.166,2.497,1.921,6.919-1.688,6.847c-3.606-0.072-5.1-3.507-6.305-7.666c-1.205-4.16-3.268-9.494-4.342-10.712
		c-1.555-1.76-6.922-2.599-7.593,2.015c-0.774,5.326,2.342,10.892,3.07,12.772C27.023,24.497,23.198,27.181,19.84,23.302z"/>
	<path fill="#B05B27" d="M34.189,47.724c4.488-0.195,12.415-4.864,12.08-9.923c0,0,0,0-0.071-0.286l-1.063-0.646
		c-5.341-0.805-26.019-13.574-23.723-0.527C22.387,41.547,28.558,48.199,34.189,47.724z"/>
	<path fill="#8F401F" d="M23.27,32.34c-2.794,5.065,3.144,11.041,7.161,13.311c1.921,1.048,11.177,1.011,8.033-2.657l1.223,0.698
		C37.242,36.532,23.989,30.64,23.27,32.34z"/>
	<path fill="#702E14" d="M23.46,32.135c1.786,0.216,3.585,1.259,4.981,2.219c2.167,1.492,6.153,3.321,6.695,6.148
		c0.157,0.816,0.032,1.481-0.338,2.056c0.277,1.083-0.235,2.093-1.082,2.696c0.061,0.225,0.108,0.453,0.13,0.687
		c0.014,0.093,0.016,0.185,0.021,0.279c3.127,0.066,6.738-0.747,4.596-3.246l1.223,0.699C37.358,36.85,25.225,31.184,23.46,32.135z"
		/>
	<path fill="#B05B27" d="M109.201,103.948c2.793,1.048,5.587,11.877,10.827,4.542c1.746-2.096,2.795-12.925-3.493-9.781
		c-0.349-3.494-1.397-10.13-5.938-5.24c-1.396-1.747-3.494-2.445-5.24-1.747c1.746,3.843,3.492,8.383,0.35,11.178L109.201,103.948z"
		/>
	<path fill="#E47B33" d="M120.028,108.49c1.746-2.096,2.795-12.925-3.493-9.781c-0.349-3.494-1.397-10.13-5.938-5.24
		c-1.021-1.277-3.129-2.864-5.24-1.747c2.957-0.054,3.976,2.001,4.815,3.097c0.08,0.106,0.158,0.219,0.235,0.331
		c0.047,0.028,0.093,0.056,0.138,0.083c1.345-1.291,3.74-0.681,4.324,1.207c0.41,1.323,0.568,2.664,0.875,4.001
		c0.615-0.017,1.222-0.082,1.838-0.161c1.036-0.133,2.379,0.889,2.526,1.924c0.353,2.474,0.11,4.836-0.648,7.014
		C119.647,108.998,119.835,108.76,120.028,108.49z"/>
	<path fill="#B05B27" d="M111.567,121.632c-5.792-5.788-19.882,2.483-23.106,7.515c-1.928,11.195,8.399,19.672,12.07,30.76
		c2.981,9-3.065,27.546-8.512,34.779c-1.349,1.387-2.522,3.493-3.548,4.955c0,0-0.076,0.323,0.173,0.723
		c1.042-0.096,1.935,0.455,3.377,0.111c-0.152,0.646,0.342,1.443,0.114,2.412c12.206-1.219,11.443-15.361,13.395-25.119
		c1.043-5.887,3.772-11.715,4.892-17.924c1.345-7.174-3.925-9.706-2.18-17.129C109.605,136.904,117.36,127.419,111.567,121.632z"/>
	<path fill="#8F401F" d="M111.567,121.683c-5.792-5.788-19.882,2.484-23.106,7.517c-0.604,3.508,0,6.748,1.222,9.886
		c2.637-0.229,5.278,0.2,7.542,1.781c1.237,0.862,2.249,1.979,3.063,3.237c0.109,0.089,0.222,0.176,0.328,0.27
		c2.787,2.409,4.608,5.832,5.491,9.388c1.529,6.158,0.951,12.304-0.126,18.479c-1.163,6.672-2.886,13.512-6.108,19.516
		c-1.336,2.489-2.967,5.065-5.157,6.897c-0.933,0.778-1.908,1.39-2.926,1.913c0.078-0.014,0.152-0.021,0.231-0.039
		c-0.152,0.645,0.342,1.442,0.114,2.41c12.206-1.219,11.443-15.361,13.395-25.119c1.043-5.886,3.772-11.714,4.892-17.922
		c1.345-7.176-3.925-9.708-2.18-17.131C109.605,136.956,117.36,127.471,111.567,121.683z"/>
	<path fill="#B05B27" d="M28.248,129.361c0,0,6.162,2.975,10.666,5.908c6.467,4.214,13.123,7.053,18.624,4.695
		s-16.19-16.63-16.19-16.63s-16.506-4.454-19.911-3.93c-3.406,0.524-6.287,3.455-6.287,6.968c0,3.512,1.074,4.661,1.57,7.441
		c0.419,2.335,1.048,11.265,0.264,15.457c-0.786,4.191,4.19,8.121,7.335,10.479l3.406,1.572c0,0,0.77,0,1.687-0.436
		c0.26-0.123-0.552-1.006-0.282-1.208c0.271-0.204,1.618,0.272,1.87-0.032c0.874-1.057,1.545-2.779,1.411-5.589
		c0,0-5.996-1.905-7.307-3.478c-1.31-1.571-2.358-11.768-2.821-16.234c-0.096-0.93,1.289-2.762,2.003-4.003
		C25.247,128.67,28.248,129.361,28.248,129.361z"/>
	<path fill="#8F401F" d="M26.708,126.1c-1.906-0.254-3.753,1.377-4.665,2.986c-2.45,4.324-0.124,13.931-0.544,19.538
		c0.148,0.779,0.303,1.557,0.462,2.332c1.012,1.662,2.423,3.032,4.174,4.208c1.832,1.23,3.714,2.381,5.482,3.609
		c0.545-1.061,0.891-2.549,0.792-4.643c0,0-5.996-1.904-7.307-3.477c-1.31-1.571-2.358-11.768-2.821-16.234
		c-0.095-0.93,1.29-2.763,2.003-4.004c0.962-1.672,3.963-0.981,3.963-0.981s6.162,2.976,10.666,5.909
		c6.467,4.214,13.123,7.053,18.626,4.695c5.501-2.357-16.192-16.63-16.192-16.63s-1.688-0.454-4.09-1.057
		c0.961,2.696,1.247,3.774-0.468,5.439C34.196,130.314,29.104,126.42,26.708,126.1z"/>
	<path fill="#CE6D28" d="M71.983,62.231c0.264-4.356-19.146,8.582-19.146,8.582c0-2.247-11.444,20.962-13.471,32.561
		c-3.96,22.669,1.847,29.719,11.35,35.264c10.539,6.146,44.885-0.414,54.785-4.771c7.917-3.483,12.132-2.789,12.132-2.789
		s0.144-3.943,1.729-9.092c1.583-5.148-1.981-19.802-13.861-20.593c-11.881-0.792-14.258,1.195-21.781,1.095
		c-5.642-0.075-13.092,0.055-16.996-4.626c-2.328-2.791-1.663-9.998,0-15.166C70.546,70.813,71.983,62.231,71.983,62.231z"/>
	<path fill="#E6A65B" d="M49.665,92.417c0.987-4.75,2.009-9.628,2.047-14.5c0.008-0.883,0.01-1.862-0.13-2.687
		c-0.109-0.652-0.29-1.385-0.487-1.733c-0.04-0.069-0.064-0.118-0.087-0.159c-3.315,6.134-10.122,21.345-11.641,30.036
		c-3.96,22.669,1.845,29.719,11.35,35.264c8.824,5.146,34.33,1.384,48.213-2.532c-0.269-0.57-0.503-1.158-0.705-1.759
		c-0.399-0.902-0.76-1.819-1.093-2.712c-0.452-1.215-1.06-2.767-1.153-4.239c-1.237,0.218-2.464,0.459-3.668,0.718
		c-5.979,1.289-11.709,3.307-17.623,4.811c-5.791,1.473-11.727,1.994-17.367-0.355c-4.615-1.922-8.406-5.314-9.947-10.168
		c-1.813-5.706-1.198-12.392-0.226-18.216C47.806,100.233,48.852,96.339,49.665,92.417z"/>
	<path fill="#D39147" d="M105.501,133.867c7.917-3.483,12.132-2.789,12.132-2.789s0.001-0.051,0.005-0.131
		c-0.909-0.197-1.821-0.383-2.74-0.537c-5.943-0.992-12.063-0.529-17.898,0.903c-11.384,2.792-22.106,8.438-34.157,7.723
		c-2.759-0.165-5.328-0.758-7.704-1.716c-0.709,0.443-1.622,0.55-2.568,0.018c-5.935-3.34-12.703-9.93-13.811-17.168
		c-0.19-0.385-0.375-0.773-0.556-1.166c0.731,10.853,5.662,15.635,12.513,19.634C61.255,144.783,95.601,138.224,105.501,133.867z"/>
	<path fill="#E47B33" d="M70.045,71.085c-0.834,1.578-1.69,3.147-2.423,4.755c-2.536,5.564-5.275,11.71-5.306,17.945
		c-0.007,1.397,0.134,2.819,0.452,4.191c3.128,4.592,7.77,6.835,12.979,7.791c2.213-0.171,4.428-0.324,6.643-0.48
		c3.953-0.279,7.953-0.488,11.866-1.127c2.846-0.465,5.683-0.996,8.556-1.205c2.636-0.381,5.3-0.377,7.886,0.345
		c0.582,0.163,1.165,0.357,1.742,0.581c-1.898-1.375-4.194-2.304-6.938-2.487c-11.881-0.792-14.258,1.195-21.781,1.095
		c-5.642-0.075-13.092,0.055-16.996-4.626c-2.328-2.791-1.663-9.998,0-15.166C68.144,78.278,69.236,74.319,70.045,71.085z"/>
	<path fill="#CE6D28" d="M66.007,145.021c1.624-13.827,0.266-17.98-1.868-19.416c-2.678-1.799-13.321-6.513-14.856-0.287
		c-0.927,3.764-2.291,8.609,2.343,22.182c3.24,9.49,4.659,15.737,3.881,20.094c-0.776,4.357-1.458,8.193,0.293,14.652
		c1.263,4.66-1.605,17.425-3.283,20.989c-1.677,3.563-3.282,7.128-3.282,7.128s0.58,0.425,1.546,0.809
		c0.248,0.097,0.935-1.154,1.23-1.07c0.234,0.067,0.068,1.475,0.328,1.525c1.621,0.312,3.719,0.21,5.891-1.264
		c0,0,1.409-3.961,2.649-7.128c1.24-3.169,0-5.147,0-11.485c0-12.181,2.72-13.253,2.72-16.025s-1.843-3.957-0.99-7.916
		C63.458,163.849,65.354,150.582,66.007,145.021z"/>
	<path fill="#B05B27" d="M58.229,210.363c0,0,1.409-3.961,2.649-7.128c1.24-3.169,0-5.147,0-11.485
		c0-12.181,2.72-13.253,2.72-16.025s-1.843-3.957-0.99-7.916c0.851-3.96,2.746-17.227,3.399-22.787
		c0.34-2.88,0.546-5.332,0.644-7.438c-0.608,2.365-1.328,4.705-2.055,7.019c-0.238,0.757-0.483,1.512-0.728,2.265
		c-0.388,2.297-0.886,4.574-1.445,6.838c-0.313,4.398-1.384,8.744-1.868,13.142c-0.016,2.101,0.03,4.198,0.052,6.334
		c0.242,1.112,0.365,2.256,0.395,3.45c0.021,0.853-0.295,1.481-0.776,1.902c-0.06,0.213-0.122,0.428-0.179,0.641
		c-0.455,2.432-1.022,4.844-1.063,7.333c-0.067,3.998,0.529,7.974,0.451,11.969c-0.088,4.612-1.251,9.307-3.796,13.068
		C56.47,211.334,57.343,210.964,58.229,210.363z"/>
	<path fill="#CE6D28" d="M139.198,202.166c0.926-0.734,2.109-0.768,3.259-1.982c0.256,0.703,1.215,1.151,1.597,2.206
		c8.62-8.8,1.311-21.567-2.874-31.985c-2.652-6.199-1.577-13.887-3.615-17.854c-3.137-6.105-12.734-7.703-15.673-15.787
		c-2.3-6.326,1.105-25.089-7.206-26.61c-9.086-1.663-17.761,16.254-17.697,22.995l-0.128-0.352
		c4.507,13.484,18.086,16.903,28.566,23.836c8.915,5.912,14.123,27.896,13.451,38.088c-0.415,2.141-0.223,4.857-0.288,6.87
		C138.589,201.591,138.719,201.941,139.198,202.166z"/>
	<path fill="#B05B27" d="M141.179,170.404c-2.652-6.199-1.577-13.887-3.615-17.854c-3.137-6.105-12.734-7.703-15.673-15.787
		c-0.446-1.227-0.675-2.828-0.81-4.65c-0.055,0.736-0.098,1.475-0.13,2.213c0.174,0.955,0.342,1.91,0.452,2.873
		c0.458,1.752,1.098,3.457,1.846,5.121c0.706,1.008,1.527,1.938,2.448,2.766c2.631,2.368,5.684,4.328,8.038,6.991
		c1.828,2.065,2.853,4.263,3.445,6.69c0.438,1.189,0.822,2.382,1.037,3.643c0.021,0.135,0.027,0.266,0.022,0.391
		c0.435,1.381,0.757,2.795,1.036,4.217c0.305,1.086,0.603,2.174,0.863,3.271c0.72,3.031,1.199,6.127,2.386,9.025
		c0.084,0.203,0.119,0.393,0.123,0.569c2.373,6.507,5.101,15.494,1.842,22.026C152.401,193.132,145.289,180.635,141.179,170.404z"/>
	<path fill="#CE6D28" d="M34.987,76.6c0,0,0.502,3.858,3.955,4.167c6.294,0.563,7.735-2.628,12.445-3.806
		c5.004-1.177,10.009-2.355,14.423-5.592c5.297-3.532,6.763-9.359,6.468-15.245c-0.294-7.653-3.332-14.492-7.645-20.369l0.293,0.588
		c-2.788-2.938-7.972-3.771-10.889-4.415c-2.355-0.588-5.27-2.016-8.802-0.636c0.884,0,3.798,1.814,4.386,1.814
		c-2.649,0.588-4.386-0.534-7.182,0.107c1.472-0.294,1.884,2.836,3.062,2.542c-6.77,3.237-11.186,5.887-10.596,14.128
		c0.294,2.648,1.177,5.593,0.882,8.535c-0.294,2.944-2.078,7.433-0.312,10.082C32.264,69.629,32.606,75.348,34.987,76.6z"/>
	<path fill="#B05B27" d="M51.387,76.961c5.004-1.177,10.009-2.355,14.423-5.592c1.511-1.007,2.707-2.204,3.642-3.533
		c-2.797,2.576-5.982,4.292-9.81,4.735c-0.797,0.237-1.604,0.434-2.423,0.59c-1.1,0.292-2.218,0.531-3.342,0.726
		c-0.103,0.039-0.203,0.08-0.307,0.118c-1.549,0.579-3.22,1.325-4.954,2.031c-0.03,0.024-0.061,0.048-0.09,0.073
		c-0.606,0.521-1.268,0.723-1.894,0.694c-0.23,0.084-0.46,0.166-0.693,0.245c-3.948,2.398-8.518,4.075-10.544,0.503
		c-0.083-0.058-0.155-0.122-0.229-0.185c0.345,1.142,1.304,3.18,3.775,3.401C45.236,81.331,46.677,78.139,51.387,76.961z"/>
	<ellipse fill="#010101" cx="55.476" cy="56.124" rx="2.638" ry="2.729"/>
	
		<ellipse transform="matrix(0.9992 0.0404 -0.0404 0.9992 2.2639 -1.4821)" fill="#010101" cx="37.833" cy="55.319" rx="1.784" ry="2.729"/>
	<path fill="#FFFFFF" d="M56.955,55.384c0-0.408-0.332-0.74-0.738-0.74c-0.411,0-0.74,0.333-0.74,0.74c0,0.408,0.329,0.74,0.74,0.74
		C56.623,56.124,56.955,55.792,56.955,55.384z"/>
	<path fill="#FFFFFF" d="M38.562,55.35c0.267-0.042,0.432-0.404,0.367-0.807c-0.063-0.404-0.332-0.696-0.599-0.654
		c-0.264,0.042-0.429,0.402-0.365,0.806C38.029,55.098,38.297,55.391,38.562,55.35z"/>
	<path fill="#E47B33" d="M34.987,66.985l0.316-0.27c-0.003-0.003-0.008-0.005-0.011-0.009C35.191,66.799,35.09,66.891,34.987,66.985
		z"/>
	<path fill="#E47B33" d="M35.292,66.706c0.095-0.086,0.191-0.173,0.283-0.26C35.187,66.482,35.146,66.584,35.292,66.706z"/>
	<path fill="#E47B33" d="M37.074,67.257c1.361,0.09,2.451,0.364,3.722,0.545c2.268,0.271,0.997-0.908,1.633-1.997
		c0.363-0.725,1.271-0.817,1.633-1.542c0.272-0.454,0.363-1.089,0.455-1.634c0.18-1.542,1.632-3.72-0.183-4.537
		c-0.453-0.182-1.905-0.182-2.359-0.091c-1.179,0.091-0.998,0.182-1.36,1.452c-0.296,1.25-1.037,1.672-1.672,2.592
		c-0.359,0.522-0.519,1.623-0.952,2.09c-0.736,0.794-1.563,1.536-2.414,2.311c0.018-0.001,0.028-0.004,0.048-0.006l-0.32,0.274
		C35.607,66.953,36.606,67.257,37.074,67.257z"/>
	<path fill="#E47B33" d="M35.576,66.446c-0.092,0.086-0.188,0.173-0.283,0.26c0.003,0.003,0.008,0.005,0.011,0.009l0.32-0.274
		C35.604,66.442,35.593,66.445,35.576,66.446z"/>
	<path fill="#010101" d="M54.95,53.556h-0.272c1.09,0.181,2.301,0,2.844,1.179c0.272-0.091,0.968-0.181,1.24-0.362
		c-0.362,0-0.816-0.273-1.18-0.363c0.272-0.091,0.546-0.181,0.817-0.272c-0.636,0-1.271,0-1.815-0.091
		c0.182-0.182,0.364-0.454,0.545-0.635C56.765,53.464,55.767,53.646,54.95,53.556z"/>
	<path fill="#010101" d="M36.421,53.873c0.403-1.18,0.884-0.978,1.692-1.159c-0.606,0.09-0.953-0.112-1.223-0.566
		c0.005,0.444,0.27,0.454,0.404,0.636c-0.404,0.091-0.874,0.091-1.347,0.091c0.201,0.09,0.403,0.181,0.604,0.272
		c-0.269,0.09-0.604,0.363-0.876,0.363C35.88,53.691,36.219,53.782,36.421,53.873z"/>
	<path fill="#E47B33" d="M44.229,76.44c1.309-0.524,3.579-2.445,3.404-4.017c-0.175-2.183-3.23,0.699-4.279,1.136
		c-1.222,0.524-2.705,1.047-3.843,0.349c-0.697-0.437-1.658-1.397-2.008,0c-0.348,1.222,1.153,2.45,2.114,2.886
		C41.014,77.494,42.745,77.139,44.229,76.44z"/>
	<path fill="#E47B33" d="M36.107,73.035c0.048,0.01,0.094,0.027,0.138,0.044c0.011-0.045,0.031-0.084,0.037-0.132L36.107,73.035z"/>
	<path fill="#E47B33" d="M36.245,73.079c-0.252,1.122-1.505,1.583-2.932,0.995C35.624,79.965,38.082,73.781,36.245,73.079z"/>
	<path fill="#1F110D" d="M42.701,67.802c-0.546-2.36-8.04-2.346-9.039-0.53c-1.18,2.087,1.325,6.802,3.231,6.792
		C38.527,74.335,43.063,69.435,42.701,67.802z"/>
	<path fill="#252B2D" d="M37.45,70.607c1.164-0.44,2.141-1.208,2.917-2.175c0.021-0.025,0.052-0.068,0.094-0.124
		c0.317-0.795,0.44-1.591-0.13-1.873c-0.271-0.134-0.551-0.254-0.832-0.368c-2.359-0.314-5.244,0.126-5.837,1.205
		c-0.496,0.879-0.338,2.221,0.153,3.482c0.122,0.051,0.251,0.094,0.39,0.12C35.267,71.075,36.435,70.993,37.45,70.607z"/>
	
		<ellipse transform="matrix(0.1164 0.9932 -0.9932 0.1164 99.4026 23.7327)" fill="#FFFFFF" cx="36.363" cy="67.732" rx="0.743" ry="1.851"/>
	<g>
		<path fill="#0E0E0E" d="M47.856,72.495c0.011-0.228-0.429-0.167-0.438,0.031c-0.227,4.805-9.763,6.654-9.957,0.842
			c-0.007-0.229-0.444-0.165-0.438,0.032C37.233,79.678,47.61,77.693,47.856,72.495z"/>
	</g>
	<g>
		<path fill="#0E0E0E" d="M37.458,74.025c0.003-0.179-0.429-0.086-0.432,0.055c-0.016,0.899-0.34,2.35-1.466,2.397
			c-0.157,0.006-0.459,0.256-0.167,0.243C36.823,76.661,37.434,75.308,37.458,74.025z"/>
	</g>
	<path fill="#E47B33" d="M44.229,60.984c1.921-2.62,2.269-5.764,4.89-8.034c2.62-2.271,5.938-2.445,8.731-4.542
		c1.574-1.222,2.098-1.397,1.225-3.667c-0.524-1.747-2.097-3.318-3.67-4.018c-2.62-1.222-6.11-0.349-8.907-0.873l-0.698,0.698
		c-3.144,1.397-8.558,1.397-6.288,6.288c1.748,3.493,3.843,7.859,1.748,11.876C43.005,58.015,44.053,59.412,44.229,60.984z"/>
	<path fill="#5A280F" d="M70.744,6.867c-4.54-1.223-6.448,1.884-8.008,5.945c-1.692,4.407-3.738,19.622-3.738,19.622
		c-0.792,4.082,0.484,5.042,2.13,5.105c1.62,0.063,4.16-0.256,6.174-2.238c3.895-3.831,8.774-3.084,14.361-2.019
		c5.586,1.067,8.712,2.48,17.092,1.604c8.896-0.928,13.501-10.18,15.434-16.761c1.932-6.582,3.314-16.993-3.159-18.024
		c-6.474-1.032-8.918,6.034-10.147,8.647c-1.229,2.614-2.934,10.314-6.207,13.788c-3.64,3.862-7.477,0.922-6.035-2.379
		c0.834-1.911,4.299-7.528,3.729-13.067c-0.494-4.797-6.078-4.163-7.762-2.412c-1.164,1.212-3.523,6.635-4.95,10.882
		c-1.426,4.246-3.12,7.731-6.852,7.649c-3.731-0.082-2.758-4.619-1.445-7.149C72.671,13.53,75.436,8.13,70.744,6.867z"/>
	<path fill="#BB692F" d="M95.868,124.754c0-0.145,0.009-0.314,0.021-0.496c-0.014-0.445-0.021-0.892-0.021-1.34V124.754z"/>
	<path fill="#E47B33" d="M98.958,134.639c-1.186-2.746-2.869-7.904-3.328-10.141c0.228,6.742,1.872,12.406,6.953,17.627
		c0.636,0.635,2.415,2.061,3.547,3.11C104.989,143.539,100.146,137.385,98.958,134.639z"/>
	<path fill="#381A0E" d="M139.198,202.166c0.926-0.734,2.109-0.768,3.259-1.982c0.256,0.703,1.215,1.151,1.597,2.206
		c2.177-2.221,3.334-4.695,3.787-7.319c-1.486,0.424-3.03,0.654-4.584,0.664c-1.473,0.01-3.021-0.057-4.478-0.375
		c-0.277,2.023-0.13,4.412-0.189,6.231C138.589,201.591,138.719,201.941,139.198,202.166z"/>
	<path fill="#381A0E" d="M100.654,197.91c-3.616,0.086-7.23-0.609-9.337-2.417c-1.058,1.314-2.004,2.946-2.846,4.147
		c0,0-0.076,0.323,0.173,0.723c1.042-0.096,1.935,0.455,3.377,0.111c-0.151,0.646,0.344,1.443,0.114,2.412
		C96.25,202.476,98.886,200.594,100.654,197.91z"/>
	<path fill="#381A0E" d="M52.01,210.102c0.234,0.067,0.068,1.475,0.328,1.525c1.621,0.312,3.719,0.21,5.891-1.264
		c0,0,0.771-2.165,1.673-4.574c-2.326,0.433-4.771,0.32-6.75-0.604c-0.464-0.121-0.91-0.273-1.335-0.456
		c-1.398,3.001-2.583,5.634-2.583,5.634s0.58,0.425,1.546,0.809C51.028,211.269,51.714,210.018,52.01,210.102z"/>
	<path fill="#381A0E" d="M30.999,159.646c0.874-1.057,1.545-2.779,1.411-5.589c0,0-1.803-0.574-3.647-1.351
		c-0.879,1.604-2.158,2.961-3.949,3.926c-0.739,0.397-1.502,0.732-2.276,1.035c-0.19,0.083-0.379,0.157-0.572,0.23
		c0.82,0.688,1.635,1.313,2.354,1.852l3.406,1.572c0,0,0.771,0,1.688-0.436c0.259-0.123-0.553-1.006-0.283-1.208
		C29.399,159.475,30.747,159.951,30.999,159.646z"/>
	<path fill="#3D4243" d="M23.347,157.904c0.447,0.86,1.653,1.343,2.445,1.825c0.653,0.379,1.309,0.86,1.963,1.136l0.24-0.104
		c0.552,0.138,0.415-0.344,0.173-0.619c-0.276-0.413-0.827-0.619-1.205-0.896c-0.414-0.31-0.931-0.62-1.033-1.138
		c-0.069-0.447,0.274-0.93,0.24-1.377C25.207,157.146,24.344,157.629,23.347,157.904z"/>
	<path fill="#505455" d="M52.874,210.968c0.524-1.702,0.918-3.538,2.62-4.192c-2.357-0.394-3.144-1.048-3.144-1.048
		c-0.031,0.654-1.965,3.145-2.228,3.669l-0.131,0.393c0.261,0.523,2.097-2.229,2.62-2.621
		C53.004,208.347,52.481,209.658,52.874,210.968z"/>
	<path fill="#3D4243" d="M89.027,199.703l0.262-0.131c0.394-0.264,3.014-1.181,4.192-1.967
		C90.467,194.332,90.332,198.02,89.027,199.703z"/>
	<path fill="#505455" d="M143.256,196.295c-1.048,0.131-2.742,0.394-3.791,0c0,1.441-0.288,3.146-0.025,4.324
		C139.701,199.309,142.208,197.605,143.256,196.295z"/>
	<path fill="#CE6D28" d="M75.028,47.52c8.743-0.751,18.804-9.859,17.863-12.603c-0.943-2.744-20.233-9.672-29.061,2.608
		l-0.063-0.358c-1.764,2.53-1.72,7.589,0.031,9.123C66.182,48.263,71.902,47.788,75.028,47.52z"/>
	<path fill="#B05B27" d="M73.057,47.246c3.09-0.54,5.853-2.035,8.823-2.9c0.518-0.271,1.033-0.543,1.549-0.813
		c0.815-0.609,1.632-1.212,2.456-1.806c1.882-1.65,3.565-3.529,4.992-5.582c-0.891-0.503-1.839-0.914-2.827-1.247
		c-3.894-0.769-7.859-0.959-12.043-0.029c-6.079,1.351-9.649,5.033-13.267,9.439c0.22,0.846,0.57,1.554,1.059,1.982
		c1.257,1.041,3.444,1.397,5.688,1.465C70.675,47.61,71.866,47.454,73.057,47.246z"/>
	<path fill="#8F401F" d="M67.39,41.172c0.206-0.133,0.419-0.253,0.628-0.381c2.483-4.195,8.258-5.127,12.999-5.14
		c1.236-0.003,2.579,0.033,3.955,0.144c1.611-0.127,3.231-0.183,4.842-0.192c-0.571-0.266-1.159-0.502-1.764-0.706
		c-3.894-0.769-7.859-0.959-12.043-0.029c-6.079,1.351-9.649,5.033-13.267,9.439c0.22,0.846,0.57,1.554,1.058,1.982
		c0.924,0.764,2.348,1.157,3.928,1.34c-1.435-0.44-2.753-1.973-1.91-3.556c0.157-0.3,0.343-0.559,0.536-0.799
		C66.253,42.509,66.526,41.73,67.39,41.172z"/>
	<path fill="#E47B33" d="M65.841,38.968c2.364-1.988,5.339-4.603,8.244-5.289c5.114-1.463,12.128-1.017,16.942,1.273
		c-3.22-3.754-12.874-4.454-17.08-3.228c-4.183,1.052-10.614,4.813-12.355,8.817l-0.151-0.196
		C59.657,44.696,65.234,39.595,65.841,38.968z"/>
</g>
</svg>
