<?xml version="1.0" encoding="utf-8"?>
<!-- Generator: Adobe Illustrator 15.0.0, SVG Export Plug-In . SVG Version: 6.00 Build 0)  -->
<!DOCTYPE svg PUBLIC "-//W3C//DTD SVG 1.1//EN" "http://www.w3.org/Graphics/SVG/1.1/DTD/svg11.dtd">
<svg version="1.1" id="Layer_1" xmlns="http://www.w3.org/2000/svg" xmlns:xlink="http://www.w3.org/1999/xlink" x="0px" y="0px"
	 width="165.893px" height="153.433px" viewBox="0 0 165.893 153.433" enable-background="new 0 0 165.893 153.433"
	 xml:space="preserve">
<g>
	<g>
		<polygon fill="#546264" points="119.208,153.433 110.586,153.433 116.047,94.809 137.099,101.296 		"/>
		<path fill="#546264" d="M64.655,153.433c-6.653-18.174-24.034-60.944-9.215-66.255c4.15-1.487,20.261,11.979,17.365,26.521
			c-2.894,14.539-3.617,30.813-0.869,39.734H64.655z"/>
		<path fill="#788284" d="M31.55,100.452c53.818,52.804,140.265,9.772,101.616-33.872c-4.294-4.848-32.569-11.289-32.569-11.289
			s-11.94,26.489-46.03,11.725C37.804,59.756,31.116,82.431,31.55,100.452z"/>
		<path fill="#57696C" d="M133.166,66.58c-0.032-0.037-0.079-0.074-0.114-0.111c33.746,43.956-50.163,75.822-101.518,32.053
			c-0.003,0.648,0.001,1.293,0.017,1.931C85.368,153.256,171.815,110.225,133.166,66.58z"/>
		<path fill="#788284" d="M28.075,152.999c-1.737-23.885-8.678-80.091,18.457-87.068c7.599-1.955,22.363,18.889,10.205,37.996
			c-12.159,19.108-19.975,37.348-19.975,49.072H28.075z"/>
		<path fill="#6A7678" d="M26.392,129.94c0.469,8.876,1.243,17.006,1.683,23.059h8.686c0-7.743,3.425-18.336,9.243-30.136
			C39.467,128.798,32.345,131.593,26.392,129.94z"/>
		<polygon fill="#788284" points="103.637,153.433 112.54,153.433 107.797,107.259 87.963,110.759 		"/>
		<path fill="#788284" d="M46.532,70.707c-2.606-6.949-8.242-15.927,10.422-31.052c12.594-10.204,4.19-23.105,1.52-26.488
			C52.922,6.134,44.663,6.23,37.63,10.995c-13.595,9.21-26.736,30.89-35.826,17.371c-4.764-7.085,0.245-14.23,11.073-20.411
			c8.422-4.806,17.048-9.263,34.524-7.601C56.52,1.223,64.268,12.009,67.593,19.03c1.955,4.123,0.868,18.021-9.336,24.534
			c-13.3,8.49-12.161,18.023-6.081,27.576L46.532,70.707z"/>
		<g>
			<path fill="#99AEB0" d="M24.343,9.605c9.558-4.664,19.186-7.31,27.646-7.978c-1.479-0.672-3.012-1.123-4.588-1.273
				C29.925-1.308,21.299,3.149,12.877,7.955C2.903,13.648-2.127,20.16,0.864,26.689C6.608,20.357,14.683,14.319,24.343,9.605z"/>
			<path fill="#99AEB0" d="M49.37,52.468c-1.076,0.58-2.167,1.149-3.286,1.695c-0.508,0.248-1.016,0.482-1.523,0.719
				c-2.301,6.636,0.389,11.606,1.971,15.825l5.645,0.434C48.146,64.809,46.292,58.485,49.37,52.468z"/>
		</g>
		<path fill="#859193" d="M137.13,98.925c6.75-7.125,4.729-22.526-3.965-32.345c-4.294-4.848-32.569-11.289-32.569-11.289
			s-11.94,26.489-46.03,11.725c-5.032-2.179-9.149-1.647-12.445,0.633c-9.388,5.02-13.608,17.266-15.241,31.394
			C50.463,108.759,100.713,122.009,137.13,98.925z"/>
		<g>
			<path fill="#99AEB0" d="M98.46,58.835c-4.745,6.672-17.86,19.456-43.895,8.181c-5.032-2.179-9.149-1.647-12.445,0.633
				c-9.119,4.876-13.363,16.571-15.094,30.187C57.327,100.499,96.942,94.658,98.46,58.835z"/>
		</g>
		<g>
			<path fill="#57696C" d="M142.172,94.328c1.947-8.54-0.488-18.128-9.007-27.748c-1.98-2.235-9.062-4.81-16.118-6.935
				l-17.972-1.709c-0.024,0.038-0.05,0.076-0.076,0.115C101.04,65.954,116.227,86.735,142.172,94.328z"/>
		</g>
		<path fill="#788284" d="M154.367,37.652c-2.316-13.649-10.862-24.348-15.547-29.261c0,0-4.401,10.195-1.664,17.813L154.367,37.652
			z"/>
		<path fill="#F47A69" d="M150.463,33.091c-1.749-10.154-7.64-16.655-10.618-20.405c0,0-2.433,7.433-0.574,13.135L150.463,33.091z"
			/>
		<path fill="#DD5D50" d="M140.876,15.796c1.665,1.866,4.164,4.444,6.505,7.903c-2.456-4.988-5.605-8.583-7.536-11.014
			c0,0-2.433,7.433-0.574,13.135l1.11,0.722C139.395,21.412,140.876,15.796,140.876,15.796z"/>
		<path fill="#86999B" d="M92.128,39.385c-0.488-12.702,5.7-23.775,9.282-28.986c0,0,6.352,8.468,5.212,15.795L92.128,39.385z"/>
		<path fill="#F47A69" d="M95.009,35.729c-0.308-8.914,3.581-16.685,5.832-20.342c0,0,3.99,5.942,3.274,11.085L95.009,35.729z"/>
		<path fill="#DD5D50" d="M101.659,17.959c0,0,0.859,1.145,1.773,2.868c-0.992-3.055-2.591-5.44-2.591-5.44
			c-2.251,3.657-6.14,11.428-5.832,20.342l1.897-1.93C97.379,26.914,99.988,21.039,101.659,17.959z"/>
		<path fill="#788284" d="M88.004,46.606c0.543,1.845,2.388-0.436,2.388-0.436s-3.038,3.258-1.845,4.886s3.691-2.171,3.691-2.171
			s-3.474,4.232-2.715,5.103c0.76,0.869,3.627-0.979,3.627-0.979s-3.736,2.607-1.564,3.584c2.172,0.978,4.561-0.977,4.561-0.977
			s14.33,15.852,34.631,16.177c10.856,0.174,27.25-19.867,27.25-19.867c1.955,2.17,4.885-0.544,2.715-4.67
			c0,0,3.799,7.168,4.994,4.995c1.195-2.172-4.452-17.369-18.564-25.187C112.19,7.69,85.812,39.166,88.004,46.606z"/>
		<path fill="#86999B" d="M144.301,25.583C110.759,9.414,85.873,39.371,88.004,46.606c0.437,1.483,1.713,0.301,2.197-0.22
			c-0.641,0.743-2.666,3.289-1.654,4.67c0.732,1,1.955-0.047,2.791-1.003c-0.971,1.319-2.316,3.359-1.814,3.935
			c0.535,0.611,2.259,0.202,2.752-0.604c-0.57,1.087-2.314,2.479-0.689,3.209c2.172,0.978,4.561-0.977,4.561-0.977
			s0.571,0.63,1.633,1.632C128.129,51.093,150.13,48.26,144.301,25.583z"/>
		<path fill="#99AEB0" d="M112.213,49.384c-5.81-2.075-7.042-14.375,2.625-16.375s28.666-3,33.5,4
			c2.281,3.303,3.696,8.879,0.875,11.375S126.213,54.384,112.213,49.384z"/>
		<path fill="#667476" d="M133.713,47.759c-28.549,1.141-38.418,8.429-37.416,7.833c0,0,14.18,15.965,34.48,16.201
			c10.856,0.127,27.353-19.701,27.353-19.701C157.816,49.333,151.713,49.396,133.713,47.759z"/>
		<path fill="#738485" d="M116.089,66.12c0.242,0.993,5.327,4.068,13.16,4.572c4.188,0.271,10.85-3.236,10.777-4.144
			C139.574,60.866,115.329,63.002,116.089,66.12z"/>
		<path fill="#E06954" d="M127.987,56.854c0.282,3.075,1.104,5.391,4.137,5.147c2.634-0.211,5.133-1.414,3.666-7.205
			C133.575,50.344,131.297,51.363,127.987,56.854z"/>
		<path fill="#C54837" d="M133.129,57.009c1.139,0,2.197,0.354,3.085,0.957c0.019-0.865-0.103-1.902-0.425-3.17
			c-2.215-4.452-4.492-3.433-7.803,2.058c0.092,0.995,0.241,1.908,0.502,2.684C129.514,58.01,131.208,57.009,133.129,57.009z"/>
		<path fill="#9FB5B8" d="M112.692,54.131c1.795,4.929,13.244,11.428,20.072-1.555c0,0,1.508,9.116,13.705,4.111
			c12.619-5.179-2.973-14.962-12.612-9.248C133.857,47.439,107.45,39.728,112.692,54.131z"/>
		<path fill="#BBD6D8" d="M132.713,49.509c0-5.967-21-7.75-20.625,1.313C112.369,57.589,132.713,56.141,132.713,49.509z"/>
		<path fill="#BBD6D8" d="M132.583,49.959c0,5.281,23.384,8.262,18.005-1.075C147.596,43.69,132.583,44.089,132.583,49.959z"/>
		<path fill="#D77562" d="M129.258,47.7c1.024,2.577,4.846,4.499,8.9-0.874C136.665,43.266,128.316,45.332,129.258,47.7z"/>
		
			<ellipse transform="matrix(0.9964 0.0851 -0.0851 0.9964 3.9113 -9.6055)" fill="#553F33" cx="114.571" cy="41.053" rx="2.334" ry="2.66"/>
		
			<ellipse transform="matrix(0.9964 0.0849 -0.0849 0.9964 4.0147 -11.8474)" fill="#553F33" cx="141.248" cy="41.261" rx="2.334" ry="2.658"/>
		<path fill="#6A7678" d="M40.213,153.009h-9.25C30.963,153.009,38.742,139.134,40.213,153.009z"/>
		<path fill="#546264" d="M75.713,153.384h-9.25C66.463,153.384,74.242,139.509,75.713,153.384z"/>
		<path fill="#546264" d="M125.338,153.384h-11.5C113.838,153.384,123.508,139.509,125.338,153.384z"/>
		<path fill="#788284" d="M136.658,29.246c-4.066-1.753-13.575-3.256-18.468,0.284C125.007,28.742,129.657,28.654,136.658,29.246z"
			/>
		<path fill="#788284" d="M129.516,25.012c-2.957-1.295-9.572-1.742-12.479,2.32C121.565,25.796,124.706,25.195,129.516,25.012z"/>
		<path fill="#859193" d="M100.297,103.26c1.5,3,6.333,38.666,6,48.166l-3.5,0.167l-16.668-44.167L100.297,103.26z"/>
		<path fill="#99AEB0" d="M100.088,153.384h11C111.088,153.384,101.838,139.509,100.088,153.384z"/>
	</g>
	<defs>
		<filter id="Adobe_OpacityMaskFilter" filterUnits="userSpaceOnUse" x="0.006" y="0" width="165.886" height="153.433">
			<feFlood  style="flood-color:white;flood-opacity:1" result="back"/>
			<feBlend  in="SourceGraphic" in2="back" mode="normal"/>
		</filter>
	</defs>
	<mask maskUnits="userSpaceOnUse" x="0.006" y="0" width="165.886" height="153.433" id="SVGID_1_">
		<g filter="url(#Adobe_OpacityMaskFilter)">
			<defs>
				<filter id="Adobe_OpacityMaskFilter_1_" filterUnits="userSpaceOnUse" x="0.006" y="0" width="165.886" height="153.433">
					<feFlood  style="flood-color:white;flood-opacity:1" result="back"/>
					<feBlend  in="SourceGraphic" in2="back" mode="normal"/>
				</filter>
			</defs>
			<mask maskUnits="userSpaceOnUse" x="0.006" y="0" width="165.886" height="153.433" id="SVGID_1_">
				<g filter="url(#Adobe_OpacityMaskFilter_1_)">
				</g>
			</mask>
			<linearGradient id="SVGID_2_" gradientUnits="userSpaceOnUse" x1="82.9492" y1="39.2598" x2="82.9492" y2="158.6225">
				<stop  offset="0" style="stop-color:#999999"/>
				<stop  offset="1" style="stop-color:#FFFFFF"/>
			</linearGradient>
			<path mask="url(#SVGID_1_)" fill="url(#SVGID_2_)" d="M152.611,30.737c-3.459-10.317-9.932-18.298-13.791-22.346
				c0,0-3.145,7.285-2.464,14.14c-0.393-0.112-0.783-0.216-1.172-0.316c-0.041-0.011-0.082-0.021-0.121-0.031
				c-0.458-0.116-0.914-0.225-1.367-0.325c-0.038-0.008-0.077-0.017-0.115-0.025c-0.455-0.1-0.907-0.19-1.357-0.273
				c-0.036-0.007-0.072-0.014-0.107-0.021c-0.453-0.083-0.903-0.157-1.352-0.225c-0.031-0.004-0.063-0.009-0.095-0.014
				c-0.452-0.066-0.901-0.125-1.347-0.176c-0.027-0.003-0.055-0.007-0.082-0.01c-0.45-0.05-0.897-0.093-1.342-0.128
				c-0.023-0.002-0.047-0.004-0.07-0.006c-0.449-0.034-0.896-0.062-1.34-0.081c-0.016-0.001-0.032-0.001-0.049-0.002
				c-0.45-0.02-0.898-0.031-1.344-0.036c-0.008,0-0.016,0-0.023,0c-6.881-0.061-13.077,1.65-18.35,4.247
				c0.419-7.054-5.313-14.711-5.313-14.711c-3.331,4.847-8.91,14.765-9.283,26.347c-0.004,0.005-0.007,0.01-0.011,0.015
				c-0.118,0.149-0.234,0.299-0.348,0.448c-0.063,0.082-0.124,0.164-0.186,0.245c-0.108,0.145-0.214,0.289-0.317,0.432
				c-0.062,0.085-0.121,0.169-0.181,0.253c-0.099,0.14-0.195,0.278-0.29,0.417c-0.06,0.088-0.118,0.175-0.176,0.263
				c-0.088,0.133-0.176,0.265-0.26,0.396c-0.059,0.091-0.115,0.182-0.172,0.272c-0.078,0.127-0.157,0.254-0.232,0.379
				c-0.056,0.093-0.109,0.185-0.162,0.276c-0.07,0.121-0.141,0.242-0.207,0.361c-0.053,0.095-0.104,0.188-0.153,0.282
				c-0.062,0.115-0.124,0.229-0.182,0.343c-0.05,0.096-0.096,0.189-0.142,0.284c-0.055,0.108-0.107,0.218-0.158,0.324
				c-0.045,0.096-0.086,0.19-0.129,0.285c-0.046,0.104-0.093,0.207-0.136,0.309c-0.04,0.094-0.075,0.186-0.112,0.277
				c-0.039,0.1-0.08,0.199-0.116,0.297c-0.034,0.093-0.064,0.184-0.097,0.274c-0.031,0.093-0.064,0.187-0.094,0.277
				c-0.029,0.093-0.055,0.184-0.081,0.275c-0.024,0.085-0.051,0.172-0.073,0.255c-0.023,0.091-0.041,0.178-0.061,0.266
				c-0.02,0.081-0.039,0.163-0.055,0.242c-0.018,0.089-0.029,0.174-0.043,0.26c-0.012,0.074-0.025,0.148-0.035,0.221
				c-0.01,0.089-0.016,0.173-0.022,0.259c-0.005,0.065-0.013,0.132-0.016,0.194c-0.004,0.088-0.001,0.172,0,0.256
				c0.001,0.057-0.002,0.114,0.001,0.169c0.004,0.091,0.016,0.176,0.026,0.262c0.005,0.044,0.007,0.09,0.014,0.132
				c0.021,0.126,0.048,0.247,0.081,0.361c0.031,0.105,0.068,0.195,0.107,0.275c0.012,0.024,0.025,0.045,0.039,0.067
				c0.028,0.051,0.059,0.098,0.091,0.137c0.016,0.02,0.032,0.037,0.048,0.054c0.035,0.034,0.07,0.063,0.107,0.087
				c0.016,0.011,0.029,0.022,0.045,0.03c0.053,0.027,0.106,0.049,0.162,0.059c0.001,0,0.002,0.001,0.003,0.001
				c0.058,0.011,0.118,0.012,0.18,0.006c0.017-0.001,0.032-0.005,0.049-0.008c0.046-0.006,0.091-0.016,0.138-0.029
				c0.02-0.006,0.038-0.013,0.058-0.02c0.046-0.016,0.091-0.035,0.138-0.057c0.018-0.008,0.033-0.016,0.051-0.024
				c0.059-0.029,0.116-0.063,0.174-0.099c0.004-0.003,0.007-0.005,0.01-0.007c0.063-0.039,0.123-0.082,0.182-0.127
				c0.018-0.013,0.033-0.026,0.05-0.039c0.041-0.032,0.081-0.064,0.12-0.098c0.021-0.017,0.039-0.033,0.059-0.051
				c0.035-0.029,0.066-0.06,0.1-0.089c0.02-0.019,0.039-0.036,0.058-0.054c0.03-0.029,0.058-0.057,0.085-0.084
				c0.037-0.037,0.071-0.072,0.104-0.106c0.014-0.015,0.029-0.03,0.043-0.044c-0.037,0.042-0.076,0.088-0.121,0.143
				c-0.019,0.021-0.038,0.046-0.057,0.069c-0.035,0.042-0.068,0.082-0.107,0.13c-0.125,0.156-0.266,0.34-0.412,0.543
				c-0.013,0.019-0.025,0.038-0.039,0.057c-0.062,0.087-0.123,0.176-0.186,0.269c-0.018,0.027-0.035,0.055-0.053,0.082
				c-0.059,0.089-0.116,0.181-0.174,0.273c-0.018,0.029-0.034,0.058-0.052,0.087c-0.059,0.099-0.114,0.199-0.17,0.301
				c-0.013,0.024-0.026,0.048-0.039,0.072c-0.135,0.258-0.253,0.521-0.344,0.783c-0.003,0.011-0.006,0.021-0.01,0.032
				c-0.038,0.114-0.07,0.229-0.097,0.343c-0.008,0.035-0.014,0.07-0.02,0.105c-0.018,0.089-0.031,0.177-0.039,0.264
				c-0.004,0.041-0.006,0.082-0.008,0.123c-0.002,0.08,0,0.158,0.006,0.236c0.004,0.041,0.007,0.082,0.014,0.123
				c0.012,0.078,0.032,0.154,0.056,0.229c0.011,0.034,0.019,0.069,0.032,0.104c0.042,0.104,0.094,0.207,0.164,0.302
				c0.084,0.115,0.177,0.197,0.273,0.261c0.031,0.021,0.064,0.032,0.097,0.049c0.067,0.033,0.137,0.06,0.208,0.072
				c0.039,0.008,0.078,0.012,0.117,0.013c0.072,0.003,0.145-0.002,0.219-0.016c0.039-0.007,0.076-0.011,0.115-0.021
				c0.09-0.024,0.181-0.061,0.273-0.104c0.021-0.011,0.044-0.017,0.066-0.028c0.117-0.061,0.234-0.135,0.352-0.218
				c0.023-0.018,0.048-0.038,0.072-0.056c0.094-0.071,0.188-0.146,0.279-0.227c0.031-0.026,0.061-0.055,0.091-0.082
				c0.089-0.081,0.175-0.163,0.259-0.249c0.024-0.024,0.048-0.048,0.072-0.072c0.1-0.104,0.195-0.209,0.287-0.313
				c0.004-0.003,0.007-0.007,0.01-0.01c-0.119,0.162-0.242,0.332-0.369,0.512c-0.004,0.006-0.007,0.011-0.011,0.017
				c-0.128,0.182-0.257,0.369-0.384,0.561l-0.001,0.003c-0.112,0.17-0.221,0.342-0.325,0.514c-0.031,0.049-0.059,0.097-0.088,0.146
				c-0.078,0.131-0.152,0.26-0.222,0.388c-0.027,0.051-0.056,0.101-0.081,0.149c-0.087,0.168-0.167,0.332-0.232,0.486
				c-0.006,0.016-0.01,0.029-0.016,0.045c-0.056,0.136-0.099,0.264-0.131,0.385c-0.012,0.042-0.018,0.081-0.026,0.121
				c-0.019,0.093-0.026,0.177-0.026,0.256c0,0.033-0.002,0.067,0.002,0.098c0.013,0.1,0.039,0.188,0.096,0.254
				c0.055,0.063,0.123,0.107,0.199,0.144c0.599,0.335,1.797,0.054,2.367-0.527c0.027-0.014,0.055-0.027,0.082-0.041
				c-0.169,0.275-0.393,0.566-0.606,0.858c-0.36,0.419-0.635,0.872-0.647,1.279c-0.006,0.063-0.003,0.123,0.006,0.183
				c0.001,0.006,0,0.013,0.002,0.019c0.029,0.171,0.127,0.33,0.306,0.474c0.011,0.009,0.021,0.018,0.031,0.025
				c0.09,0.067,0.192,0.132,0.323,0.191c2.172,0.978,4.561-0.977,4.561-0.977s0.041,0.046,0.104,0.112
				c0.002,0.001,0.002,0.002,0.002,0.002c0.202,0.216,0.717,0.751,1.518,1.509c0.004,0.003,0.007,0.006,0.01,0.009l0,0
				c0.32,0.301,0.682,0.634,1.09,0.997c-0.129,0.191-0.265,0.388-0.409,0.591c0-0.001,0-0.001,0-0.001
				c-0.143,0.201-0.294,0.408-0.452,0.619c-0.01,0.013-0.02,0.025-0.029,0.038c-0.16,0.214-0.328,0.433-0.505,0.654
				c-0.003,0.004-0.006,0.008-0.009,0.012c-0.17,0.214-0.349,0.433-0.534,0.653c-0.016,0.019-0.03,0.037-0.047,0.056
				c-0.188,0.224-0.384,0.45-0.588,0.678c-0.017,0.02-0.034,0.038-0.051,0.057c-0.192,0.214-0.391,0.43-0.597,0.646
				c-0.021,0.022-0.043,0.046-0.064,0.068c-0.217,0.228-0.441,0.455-0.673,0.684c-0.03,0.03-0.062,0.06-0.092,0.089
				c-0.216,0.212-0.438,0.424-0.669,0.635c-0.025,0.023-0.05,0.048-0.076,0.071c-0.244,0.224-0.498,0.447-0.758,0.67
				c-0.047,0.039-0.094,0.078-0.141,0.117c-0.244,0.208-0.496,0.414-0.754,0.618c-0.023,0.019-0.047,0.038-0.071,0.057
				c-0.276,0.218-0.563,0.433-0.854,0.646c-0.058,0.042-0.116,0.084-0.175,0.126c-0.282,0.202-0.569,0.402-0.865,0.6
				c-0.019,0.012-0.035,0.024-0.054,0.036c-0.309,0.204-0.627,0.404-0.951,0.601c-0.07,0.043-0.143,0.086-0.214,0.128
				c-0.657,0.392-1.347,0.767-2.068,1.119c-0.082,0.04-0.163,0.079-0.246,0.118c-0.364,0.174-0.733,0.344-1.114,0.506
				c-0.012,0.005-0.025,0.01-0.037,0.015c-0.368,0.156-0.745,0.304-1.127,0.446c-0.091,0.034-0.182,0.068-0.274,0.102
				c-0.396,0.144-0.799,0.282-1.211,0.411c-0.042,0.014-0.086,0.025-0.129,0.038c-0.38,0.117-0.768,0.227-1.162,0.33
				c-0.098,0.025-0.196,0.052-0.295,0.077c-0.431,0.108-0.869,0.21-1.316,0.301c-0.066,0.014-0.134,0.025-0.201,0.038
				c-0.4,0.079-0.808,0.15-1.222,0.215c-0.104,0.016-0.207,0.032-0.312,0.048c-0.467,0.067-0.941,0.126-1.426,0.174
				c-0.086,0.009-0.174,0.015-0.261,0.022c-0.428,0.039-0.863,0.069-1.305,0.092c-0.105,0.005-0.21,0.012-0.316,0.016
				c-0.504,0.021-1.018,0.031-1.54,0.029c-0.106-0.001-0.214-0.004-0.321-0.005c-0.461-0.006-0.929-0.021-1.404-0.045
				c-0.103-0.006-0.205-0.009-0.309-0.015c-0.544-0.033-1.098-0.078-1.66-0.137c-0.123-0.013-0.248-0.027-0.372-0.041
				c-0.502-0.057-1.011-0.123-1.527-0.2c-0.096-0.015-0.191-0.026-0.288-0.042c-0.585-0.092-1.182-0.2-1.785-0.32
				c-0.138-0.027-0.278-0.058-0.417-0.087c-0.553-0.115-1.113-0.241-1.682-0.382c-0.08-0.02-0.158-0.037-0.239-0.057
				c-0.628-0.158-1.267-0.335-1.914-0.524c-0.155-0.046-0.311-0.093-0.467-0.141c-0.619-0.188-1.245-0.386-1.881-0.603
				c-0.048-0.017-0.096-0.03-0.144-0.047c-0.674-0.232-1.362-0.486-2.056-0.753c-0.167-0.064-0.336-0.13-0.504-0.196
				c-0.705-0.277-1.416-0.566-2.141-0.88c-0.469-0.203-0.927-0.375-1.38-0.531c-0.091-0.031-0.182-0.064-0.271-0.094
				c-0.425-0.14-0.843-0.259-1.253-0.359c-0.104-0.025-0.206-0.046-0.309-0.069c-0.37-0.081-0.736-0.15-1.095-0.201
				c-0.101-0.014-0.201-0.026-0.302-0.038c-0.22-0.026-0.439-0.05-0.655-0.064c-0.04-0.098-0.083-0.195-0.121-0.293
				c-0.032-0.081-0.064-0.163-0.094-0.244c-0.278-0.737-0.515-1.473-0.704-2.207c-0.013-0.052-0.025-0.104-0.038-0.156
				c-0.081-0.324-0.152-0.647-0.214-0.971c-0.011-0.057-0.022-0.113-0.033-0.17c-0.137-0.75-0.224-1.498-0.253-2.243
				c-0.001-0.023,0-0.047-0.001-0.07c-0.012-0.35-0.011-0.698,0.002-1.046c0.001-0.04,0.002-0.079,0.004-0.118
				c0.035-0.754,0.129-1.505,0.29-2.251c0.001-0.006,0.003-0.012,0.004-0.019c0.078-0.359,0.174-0.719,0.283-1.077
				c0.01-0.033,0.02-0.066,0.03-0.099c0.234-0.745,0.535-1.486,0.911-2.223c1.565-3.062,4.403-6.044,8.888-8.907
				c10.205-6.514,11.291-20.411,9.336-24.534c-2.75-5.809-8.529-14.187-15.605-17.402h0c-0.003-0.002-0.007-0.003-0.011-0.005
				c-0.726-0.329-1.464-0.605-2.215-0.817c-0.035-0.01-0.07-0.018-0.105-0.027c-0.311-0.086-0.624-0.159-0.938-0.222
				c-0.083-0.017-0.167-0.034-0.25-0.05c-0.354-0.063-0.709-0.118-1.068-0.152C29.925-1.308,21.299,3.149,12.877,7.955
				c-0.586,0.335-1.152,0.673-1.704,1.013C11.123,8.999,11.07,9.03,11.02,9.062c-0.524,0.326-1.03,0.654-1.521,0.985
				c-0.066,0.044-0.134,0.089-0.199,0.134c-0.479,0.326-0.941,0.654-1.388,0.984c-0.064,0.048-0.128,0.095-0.191,0.143
				c-0.445,0.333-0.872,0.668-1.282,1.006c-0.049,0.04-0.098,0.081-0.146,0.122c-0.417,0.348-0.817,0.697-1.196,1.049
				c-0.025,0.022-0.048,0.046-0.073,0.068c-1.206,1.128-2.211,2.273-2.998,3.435c-0.008,0.011-0.016,0.022-0.024,0.034
				c-0.257,0.381-0.488,0.763-0.697,1.146c-0.009,0.018-0.019,0.035-0.028,0.053c-0.207,0.384-0.389,0.769-0.546,1.155
				c-0.005,0.013-0.01,0.025-0.015,0.038c-0.965,2.394-0.968,4.831,0.148,7.271c0,0.002,0.001,0.003,0.001,0.004l0,0
				c0.256,0.559,0.564,1.118,0.94,1.677c9.09,13.519,22.231-8.161,35.826-17.371c7.033-4.765,15.292-4.861,20.844,2.172
				c2.67,3.383,11.074,16.284-1.52,26.488C42.03,51.749,42.645,59.911,44.822,66.25c-0.48,0.17-0.944,0.379-1.397,0.613
				c-0.027,0.014-0.054,0.029-0.082,0.043c-0.419,0.222-0.827,0.469-1.223,0.742c-0.569,0.304-1.119,0.635-1.65,0.991
				c-0.002,0.002-0.005,0.004-0.007,0.005c-0.01,0.007-0.021,0.015-0.031,0.021c-0.009,0.006-0.019,0.013-0.028,0.02
				c-1.036,0.7-2.002,1.497-2.902,2.382c-0.009,0.008-0.017,0.017-0.026,0.025c-0.031,0.031-0.063,0.063-0.094,0.094
				c-0.008,0.008-0.017,0.016-0.025,0.024c-15.077,15.101-11.424,55.093-9.638,77.215c0.056,0.691,0.11,1.369,0.162,2.024
				c0.006,0.074,0.012,0.152,0.018,0.226c0.063,0.804,0.122,1.58,0.176,2.323h2.894c0,0.002-0.005,0.01-0.005,0.01h9.25
				c-0.465-4.386-1.561-5.995-2.842-6.149c0.042-0.24,0.077-0.474,0.124-0.717c0.05-0.257,0.101-0.515,0.155-0.776
				c0.131-0.63,0.277-1.27,0.437-1.921c0.085-0.345,0.177-0.695,0.27-1.046c0.132-0.498,0.27-1.002,0.417-1.513
				c0.114-0.394,0.229-0.788,0.353-1.188c0.13-0.424,0.271-0.855,0.411-1.286c0.245-0.752,0.504-1.514,0.779-2.286
				c0.102-0.288,0.204-0.575,0.311-0.865c0.207-0.563,0.417-1.128,0.639-1.7c0.032-0.082,0.066-0.166,0.098-0.248
				c0.483-1.237,1-2.495,1.55-3.774c0.04-0.092,0.079-0.184,0.119-0.275c0.902-2.081,1.891-4.212,2.961-6.384
				c1.338-2.716,2.789-5.488,4.371-8.313c0.537,0.299,1.077,0.579,1.617,0.863c3.322,13.642,9.341,28.904,12.671,38.003h7.281
				c-0.005-0.016-0.008-0.033-0.013-0.049h3.791c-0.707-6.661-2.866-6.921-4.921-5.396c-0.958-6.964-0.677-16.111,0.536-25.307
				c7.252,1.709,14.458,2.358,21.35,2.098l8.93,23.664c-0.675,0.952-1.213,2.516-1.52,4.941h3.531l0.018,0.049h6.949h1.953h6.668
				l0.017-0.049h6.114c-0.635-4.811-2.212-6.282-4.002-6.156l13.567-39.535c3.926-4.309,6.547-9.233,7.496-14.535
				c0.032-0.183,0.07-0.363,0.099-0.547c0.057-0.358,0.098-0.72,0.138-1.082c0.025-0.222,0.052-0.443,0.07-0.667
				c0.03-0.348,0.049-0.697,0.063-1.048c0.011-0.242,0.019-0.484,0.022-0.727c0.005-0.343,0.003-0.687-0.006-1.031
				c-0.007-0.257-0.021-0.515-0.035-0.772c-0.02-0.338-0.04-0.676-0.073-1.016c-0.026-0.271-0.063-0.545-0.099-0.818
				c-0.043-0.331-0.082-0.662-0.139-0.995c-0.05-0.297-0.115-0.597-0.176-0.896c-0.063-0.313-0.117-0.624-0.192-0.938
				c-0.141-0.589-0.301-1.181-0.483-1.773c-0.08-0.262-0.179-0.524-0.268-0.786c-0.124-0.367-0.245-0.734-0.386-1.103
				c-0.105-0.279-0.228-0.559-0.343-0.838c-0.146-0.355-0.294-0.71-0.456-1.066c-0.129-0.282-0.268-0.565-0.406-0.85
				c-0.175-0.356-0.354-0.714-0.544-1.072c-0.149-0.281-0.305-0.563-0.464-0.844c-0.206-0.365-0.422-0.73-0.645-1.097
				c-0.167-0.275-0.336-0.55-0.513-0.825c-0.245-0.383-0.505-0.766-0.77-1.148c-0.165-0.24-0.325-0.48-0.497-0.721
				c0.123-0.054,0.247-0.115,0.371-0.172c10.078-4.56,21.46-18.233,21.46-18.233c-0.003-0.029-0.011-0.057-0.016-0.085
				c1.953,2.001,4.767-0.685,2.628-4.751c0,0,3.799,7.168,4.994,4.995C166.764,50.384,162.729,38.893,152.611,30.737z
				 M111.515,143.462l-2.177-21.191c1.457-0.396,2.881-0.834,4.273-1.313L111.515,143.462z"/>
		</g>
	</mask>
	<linearGradient id="SVGID_3_" gradientUnits="userSpaceOnUse" x1="82.9492" y1="39.2598" x2="82.9492" y2="158.6225">
		<stop  offset="0" style="stop-color:#FDCC98"/>
		<stop  offset="1" style="stop-color:#16102A"/>
	</linearGradient>
	<path opacity="0.6" fill="url(#SVGID_3_)" d="M152.611,30.737c-3.459-10.317-9.932-18.298-13.791-22.346
		c0,0-3.145,7.285-2.464,14.14c-0.393-0.112-0.783-0.216-1.172-0.316c-0.041-0.011-0.082-0.021-0.121-0.031
		c-0.458-0.116-0.914-0.225-1.367-0.325c-0.038-0.008-0.077-0.017-0.115-0.025c-0.455-0.1-0.907-0.19-1.357-0.273
		c-0.036-0.007-0.072-0.014-0.107-0.021c-0.453-0.083-0.903-0.157-1.352-0.225c-0.031-0.004-0.063-0.009-0.095-0.014
		c-0.452-0.066-0.901-0.125-1.347-0.176c-0.027-0.003-0.055-0.007-0.082-0.01c-0.45-0.05-0.897-0.093-1.342-0.128
		c-0.023-0.002-0.047-0.004-0.07-0.006c-0.449-0.034-0.896-0.062-1.34-0.081c-0.016-0.001-0.032-0.001-0.049-0.002
		c-0.45-0.02-0.898-0.031-1.344-0.036c-0.008,0-0.016,0-0.023,0c-6.881-0.061-13.077,1.65-18.35,4.247
		c0.419-7.054-5.313-14.711-5.313-14.711c-3.331,4.847-8.91,14.765-9.283,26.347c-0.004,0.005-0.007,0.01-0.011,0.015
		c-0.118,0.149-0.234,0.299-0.348,0.448c-0.063,0.082-0.124,0.164-0.186,0.245c-0.108,0.145-0.214,0.289-0.317,0.432
		c-0.062,0.085-0.121,0.169-0.181,0.253c-0.099,0.14-0.195,0.278-0.29,0.417c-0.06,0.088-0.118,0.175-0.176,0.263
		c-0.088,0.133-0.176,0.265-0.26,0.396c-0.059,0.091-0.115,0.182-0.172,0.272c-0.078,0.127-0.157,0.254-0.232,0.379
		c-0.056,0.093-0.109,0.185-0.162,0.276c-0.07,0.121-0.141,0.242-0.207,0.361c-0.053,0.095-0.104,0.188-0.153,0.282
		c-0.062,0.115-0.124,0.229-0.182,0.343c-0.05,0.096-0.096,0.189-0.142,0.284c-0.055,0.108-0.107,0.218-0.158,0.324
		c-0.045,0.096-0.086,0.19-0.129,0.285c-0.046,0.104-0.093,0.207-0.136,0.309c-0.04,0.094-0.075,0.186-0.112,0.277
		c-0.039,0.1-0.08,0.199-0.116,0.297c-0.034,0.093-0.064,0.184-0.097,0.274c-0.031,0.093-0.064,0.187-0.094,0.277
		c-0.029,0.093-0.055,0.184-0.081,0.275c-0.024,0.085-0.051,0.172-0.073,0.255c-0.023,0.091-0.041,0.178-0.061,0.266
		c-0.02,0.081-0.039,0.163-0.055,0.242c-0.018,0.089-0.029,0.174-0.043,0.26c-0.012,0.074-0.025,0.148-0.035,0.221
		c-0.01,0.089-0.016,0.173-0.022,0.259c-0.005,0.065-0.013,0.132-0.016,0.194c-0.004,0.088-0.001,0.172,0,0.256
		c0.001,0.057-0.002,0.114,0.001,0.169c0.004,0.091,0.016,0.176,0.026,0.262c0.005,0.044,0.007,0.09,0.014,0.132
		c0.021,0.126,0.048,0.247,0.081,0.361c0.031,0.105,0.068,0.195,0.107,0.275c0.012,0.024,0.025,0.045,0.039,0.067
		c0.028,0.051,0.059,0.098,0.091,0.137c0.016,0.02,0.032,0.037,0.048,0.054c0.035,0.034,0.07,0.063,0.107,0.087
		c0.016,0.011,0.029,0.022,0.045,0.03c0.053,0.027,0.106,0.049,0.162,0.059c0.001,0,0.002,0.001,0.003,0.001
		c0.058,0.011,0.118,0.012,0.18,0.006c0.017-0.001,0.032-0.005,0.049-0.008c0.046-0.006,0.091-0.016,0.138-0.029
		c0.02-0.006,0.038-0.013,0.058-0.02c0.046-0.016,0.091-0.035,0.138-0.057c0.018-0.008,0.033-0.016,0.051-0.024
		c0.059-0.029,0.116-0.063,0.174-0.099c0.004-0.003,0.007-0.005,0.01-0.007c0.063-0.039,0.123-0.082,0.182-0.127
		c0.018-0.013,0.033-0.026,0.05-0.039c0.041-0.032,0.081-0.064,0.12-0.098c0.021-0.017,0.039-0.033,0.059-0.051
		c0.035-0.029,0.066-0.06,0.1-0.089c0.02-0.019,0.039-0.036,0.058-0.054c0.03-0.029,0.058-0.057,0.085-0.084
		c0.037-0.037,0.071-0.072,0.104-0.106c0.014-0.015,0.029-0.03,0.043-0.044c-0.037,0.042-0.076,0.088-0.121,0.143
		c-0.019,0.021-0.038,0.046-0.057,0.069c-0.035,0.042-0.068,0.082-0.107,0.13c-0.125,0.156-0.266,0.34-0.412,0.543
		c-0.013,0.019-0.025,0.038-0.039,0.057c-0.062,0.087-0.123,0.176-0.186,0.269c-0.018,0.027-0.035,0.055-0.053,0.082
		c-0.059,0.089-0.116,0.181-0.174,0.273c-0.018,0.029-0.034,0.058-0.052,0.087c-0.059,0.099-0.114,0.199-0.17,0.301
		c-0.013,0.024-0.026,0.048-0.039,0.072c-0.135,0.258-0.253,0.521-0.344,0.783c-0.003,0.011-0.006,0.021-0.01,0.032
		c-0.038,0.114-0.07,0.229-0.097,0.343c-0.008,0.035-0.014,0.07-0.02,0.105c-0.018,0.089-0.031,0.177-0.039,0.264
		c-0.004,0.041-0.006,0.082-0.008,0.123c-0.002,0.08,0,0.158,0.006,0.236c0.004,0.041,0.007,0.082,0.014,0.123
		c0.012,0.078,0.032,0.154,0.056,0.229c0.011,0.034,0.019,0.069,0.032,0.104c0.042,0.104,0.094,0.207,0.164,0.302
		c0.084,0.115,0.177,0.197,0.273,0.261c0.031,0.021,0.064,0.032,0.097,0.049c0.067,0.033,0.137,0.06,0.208,0.072
		c0.039,0.008,0.078,0.012,0.117,0.013c0.072,0.003,0.145-0.002,0.219-0.016c0.039-0.007,0.076-0.011,0.115-0.021
		c0.09-0.024,0.181-0.061,0.273-0.104c0.021-0.011,0.044-0.017,0.066-0.028c0.117-0.061,0.234-0.135,0.352-0.218
		c0.023-0.018,0.048-0.038,0.072-0.056c0.094-0.071,0.188-0.146,0.279-0.227c0.031-0.026,0.061-0.055,0.091-0.082
		c0.089-0.081,0.175-0.163,0.259-0.249c0.024-0.024,0.048-0.048,0.072-0.072c0.1-0.104,0.195-0.209,0.287-0.313
		c0.004-0.003,0.007-0.007,0.01-0.01c-0.119,0.162-0.242,0.332-0.369,0.512c-0.004,0.006-0.007,0.011-0.011,0.017
		c-0.128,0.182-0.257,0.369-0.384,0.561l-0.001,0.003c-0.112,0.17-0.221,0.342-0.325,0.514c-0.031,0.049-0.059,0.097-0.088,0.146
		c-0.078,0.131-0.152,0.26-0.222,0.388c-0.027,0.051-0.056,0.101-0.081,0.149c-0.087,0.168-0.167,0.332-0.232,0.486
		c-0.006,0.016-0.01,0.029-0.016,0.045c-0.056,0.136-0.099,0.264-0.131,0.385c-0.012,0.042-0.018,0.081-0.026,0.121
		c-0.019,0.093-0.026,0.177-0.026,0.256c0,0.033-0.002,0.067,0.002,0.098c0.013,0.1,0.039,0.188,0.096,0.254
		c0.055,0.063,0.123,0.107,0.199,0.144c0.599,0.335,1.797,0.054,2.367-0.527c0.027-0.014,0.055-0.027,0.082-0.041
		c-0.169,0.275-0.393,0.566-0.606,0.858c-0.36,0.419-0.635,0.872-0.647,1.279c-0.006,0.063-0.003,0.123,0.006,0.183
		c0.001,0.006,0,0.013,0.002,0.019c0.029,0.171,0.127,0.33,0.306,0.474c0.011,0.009,0.021,0.018,0.031,0.025
		c0.09,0.067,0.192,0.132,0.323,0.191c2.172,0.978,4.561-0.977,4.561-0.977s0.041,0.046,0.104,0.112
		c0.002,0.001,0.002,0.002,0.002,0.002c0.202,0.216,0.717,0.751,1.518,1.509c0.004,0.003,0.007,0.006,0.01,0.009l0,0
		c0.32,0.301,0.682,0.634,1.09,0.997c-0.129,0.191-0.265,0.388-0.409,0.591c0-0.001,0-0.001,0-0.001
		c-0.143,0.201-0.294,0.408-0.452,0.619c-0.01,0.013-0.02,0.025-0.029,0.038c-0.16,0.214-0.328,0.433-0.505,0.654
		c-0.003,0.004-0.006,0.008-0.009,0.012c-0.17,0.214-0.349,0.433-0.534,0.653c-0.016,0.019-0.03,0.037-0.047,0.056
		c-0.188,0.224-0.384,0.45-0.588,0.678c-0.017,0.02-0.034,0.038-0.051,0.057c-0.192,0.214-0.391,0.43-0.597,0.646
		c-0.021,0.022-0.043,0.046-0.064,0.068c-0.217,0.228-0.441,0.455-0.673,0.684c-0.03,0.03-0.062,0.06-0.092,0.089
		c-0.216,0.212-0.438,0.424-0.669,0.635c-0.025,0.023-0.05,0.048-0.076,0.071c-0.244,0.224-0.498,0.447-0.758,0.67
		c-0.047,0.039-0.094,0.078-0.141,0.117c-0.244,0.208-0.496,0.414-0.754,0.618c-0.023,0.019-0.047,0.038-0.071,0.057
		c-0.276,0.218-0.563,0.433-0.854,0.646c-0.058,0.042-0.116,0.084-0.175,0.126c-0.282,0.202-0.569,0.402-0.865,0.6
		c-0.019,0.012-0.035,0.024-0.054,0.036c-0.309,0.204-0.627,0.404-0.951,0.601c-0.07,0.043-0.143,0.086-0.214,0.128
		c-0.657,0.392-1.347,0.767-2.068,1.119c-0.082,0.04-0.163,0.079-0.246,0.118c-0.364,0.174-0.733,0.344-1.114,0.506
		c-0.012,0.005-0.025,0.01-0.037,0.015c-0.368,0.156-0.745,0.304-1.127,0.446c-0.091,0.034-0.182,0.068-0.274,0.102
		c-0.396,0.144-0.799,0.282-1.211,0.411c-0.042,0.014-0.086,0.025-0.129,0.038c-0.38,0.117-0.768,0.227-1.162,0.33
		c-0.098,0.025-0.196,0.052-0.295,0.077c-0.431,0.108-0.869,0.21-1.316,0.301c-0.066,0.014-0.134,0.025-0.201,0.038
		c-0.4,0.079-0.808,0.15-1.222,0.215c-0.104,0.016-0.207,0.032-0.312,0.048c-0.467,0.067-0.941,0.126-1.426,0.174
		c-0.086,0.009-0.174,0.015-0.261,0.022c-0.428,0.039-0.863,0.069-1.305,0.092c-0.105,0.005-0.21,0.012-0.316,0.016
		c-0.504,0.021-1.018,0.031-1.54,0.029c-0.106-0.001-0.214-0.004-0.321-0.005c-0.461-0.006-0.929-0.021-1.404-0.045
		c-0.103-0.006-0.205-0.009-0.309-0.015c-0.544-0.033-1.098-0.078-1.66-0.137c-0.123-0.013-0.248-0.027-0.372-0.041
		c-0.502-0.057-1.011-0.123-1.527-0.2c-0.096-0.015-0.191-0.026-0.288-0.042c-0.585-0.092-1.182-0.2-1.785-0.32
		c-0.138-0.027-0.278-0.058-0.417-0.087c-0.553-0.115-1.113-0.241-1.682-0.382c-0.08-0.02-0.158-0.037-0.239-0.057
		c-0.628-0.158-1.267-0.335-1.914-0.524c-0.155-0.046-0.311-0.093-0.467-0.141c-0.619-0.188-1.245-0.386-1.881-0.603
		c-0.048-0.017-0.096-0.03-0.144-0.047c-0.674-0.232-1.362-0.486-2.056-0.753c-0.167-0.064-0.336-0.13-0.504-0.196
		c-0.705-0.277-1.416-0.566-2.141-0.88c-0.469-0.203-0.927-0.375-1.38-0.531c-0.091-0.031-0.182-0.064-0.271-0.094
		c-0.425-0.14-0.843-0.259-1.253-0.359c-0.104-0.025-0.206-0.046-0.309-0.069c-0.37-0.081-0.736-0.15-1.095-0.201
		c-0.101-0.014-0.201-0.026-0.302-0.038c-0.22-0.026-0.439-0.05-0.655-0.064c-0.04-0.098-0.083-0.195-0.121-0.293
		c-0.032-0.081-0.064-0.163-0.094-0.244c-0.278-0.737-0.515-1.473-0.704-2.207c-0.013-0.052-0.025-0.104-0.038-0.156
		c-0.081-0.324-0.152-0.647-0.214-0.971c-0.011-0.057-0.022-0.113-0.033-0.17c-0.137-0.75-0.224-1.498-0.253-2.243
		c-0.001-0.023,0-0.047-0.001-0.07c-0.012-0.35-0.011-0.698,0.002-1.046c0.001-0.04,0.002-0.079,0.004-0.118
		c0.035-0.754,0.129-1.505,0.29-2.251c0.001-0.006,0.003-0.012,0.004-0.019c0.078-0.359,0.174-0.719,0.283-1.077
		c0.01-0.033,0.02-0.066,0.03-0.099c0.234-0.745,0.535-1.486,0.911-2.223c1.565-3.062,4.403-6.044,8.888-8.907
		c10.205-6.514,11.291-20.411,9.336-24.534c-2.75-5.809-8.529-14.187-15.605-17.402h0c-0.003-0.002-0.007-0.003-0.011-0.005
		c-0.726-0.329-1.464-0.605-2.215-0.817c-0.035-0.01-0.07-0.018-0.105-0.027c-0.311-0.086-0.624-0.159-0.938-0.222
		c-0.083-0.017-0.167-0.034-0.25-0.05c-0.354-0.063-0.709-0.118-1.068-0.152C29.925-1.308,21.299,3.149,12.877,7.955
		c-0.586,0.335-1.152,0.673-1.704,1.013C11.123,8.999,11.07,9.03,11.02,9.062c-0.524,0.326-1.03,0.654-1.521,0.985
		c-0.066,0.044-0.134,0.089-0.199,0.134c-0.479,0.326-0.941,0.654-1.388,0.984c-0.064,0.048-0.128,0.095-0.191,0.143
		c-0.445,0.333-0.872,0.668-1.282,1.006c-0.049,0.04-0.098,0.081-0.146,0.122c-0.417,0.348-0.817,0.697-1.196,1.049
		c-0.025,0.022-0.048,0.046-0.073,0.068c-1.206,1.128-2.211,2.273-2.998,3.435c-0.008,0.011-0.016,0.022-0.024,0.034
		c-0.257,0.381-0.488,0.763-0.697,1.146c-0.009,0.018-0.019,0.035-0.028,0.053c-0.207,0.384-0.389,0.769-0.546,1.155
		c-0.005,0.013-0.01,0.025-0.015,0.038c-0.965,2.394-0.968,4.831,0.148,7.271c0,0.002,0.001,0.003,0.001,0.004l0,0
		c0.256,0.559,0.564,1.118,0.94,1.677c9.09,13.519,22.231-8.161,35.826-17.371c7.033-4.765,15.292-4.861,20.844,2.172
		c2.67,3.383,11.074,16.284-1.52,26.488C42.03,51.749,42.645,59.911,44.822,66.25c-0.48,0.17-0.944,0.379-1.397,0.613
		c-0.027,0.014-0.054,0.029-0.082,0.043c-0.419,0.222-0.827,0.469-1.223,0.742c-0.569,0.304-1.119,0.635-1.65,0.991
		c-0.002,0.002-0.005,0.004-0.007,0.005c-0.01,0.007-0.021,0.015-0.031,0.021c-0.009,0.006-0.019,0.013-0.028,0.02
		c-1.036,0.7-2.002,1.497-2.902,2.382c-0.009,0.008-0.017,0.017-0.026,0.025c-0.031,0.031-0.063,0.063-0.094,0.094
		c-0.008,0.008-0.017,0.016-0.025,0.024c-15.077,15.101-11.424,55.093-9.638,77.215c0.056,0.691,0.11,1.369,0.162,2.024
		c0.006,0.074,0.012,0.152,0.018,0.226c0.063,0.804,0.122,1.58,0.176,2.323h2.894c0,0.002-0.005,0.01-0.005,0.01h9.25
		c-0.465-4.386-1.561-5.995-2.842-6.149c0.042-0.24,0.077-0.474,0.124-0.717c0.05-0.257,0.101-0.515,0.155-0.776
		c0.131-0.63,0.277-1.27,0.437-1.921c0.085-0.345,0.177-0.695,0.27-1.046c0.132-0.498,0.27-1.002,0.417-1.513
		c0.114-0.394,0.229-0.788,0.353-1.188c0.13-0.424,0.271-0.855,0.411-1.286c0.245-0.752,0.504-1.514,0.779-2.286
		c0.102-0.288,0.204-0.575,0.311-0.865c0.207-0.563,0.417-1.128,0.639-1.7c0.032-0.082,0.066-0.166,0.098-0.248
		c0.483-1.237,1-2.495,1.55-3.774c0.04-0.092,0.079-0.184,0.119-0.275c0.902-2.081,1.891-4.212,2.961-6.384
		c1.338-2.716,2.789-5.488,4.371-8.313c0.537,0.299,1.077,0.579,1.617,0.863c3.322,13.642,9.341,28.904,12.671,38.003h7.281
		c-0.005-0.016-0.008-0.033-0.013-0.049h3.791c-0.707-6.661-2.866-6.921-4.921-5.396c-0.958-6.964-0.677-16.111,0.536-25.307
		c7.252,1.709,14.458,2.358,21.35,2.098l8.93,23.664c-0.675,0.952-1.213,2.516-1.52,4.941h3.531l0.018,0.049h6.949h1.953h6.668
		l0.017-0.049h6.114c-0.635-4.811-2.212-6.282-4.002-6.156l13.567-39.535c3.926-4.309,6.547-9.233,7.496-14.535
		c0.032-0.183,0.07-0.363,0.099-0.547c0.057-0.358,0.098-0.72,0.138-1.082c0.025-0.222,0.052-0.443,0.07-0.667
		c0.03-0.348,0.049-0.697,0.063-1.048c0.011-0.242,0.019-0.484,0.022-0.727c0.005-0.343,0.003-0.687-0.006-1.031
		c-0.007-0.257-0.021-0.515-0.035-0.772c-0.02-0.338-0.04-0.676-0.073-1.016c-0.026-0.271-0.063-0.545-0.099-0.818
		c-0.043-0.331-0.082-0.662-0.139-0.995c-0.05-0.297-0.115-0.597-0.176-0.896c-0.063-0.313-0.117-0.624-0.192-0.938
		c-0.141-0.589-0.301-1.181-0.483-1.773c-0.08-0.262-0.179-0.524-0.268-0.786c-0.124-0.367-0.245-0.734-0.386-1.103
		c-0.105-0.279-0.228-0.559-0.343-0.838c-0.146-0.355-0.294-0.71-0.456-1.066c-0.129-0.282-0.268-0.565-0.406-0.85
		c-0.175-0.356-0.354-0.714-0.544-1.072c-0.149-0.281-0.305-0.563-0.464-0.844c-0.206-0.365-0.422-0.73-0.645-1.097
		c-0.167-0.275-0.336-0.55-0.513-0.825c-0.245-0.383-0.505-0.766-0.77-1.148c-0.165-0.24-0.325-0.48-0.497-0.721
		c0.123-0.054,0.247-0.115,0.371-0.172c10.078-4.56,21.46-18.233,21.46-18.233c-0.003-0.029-0.011-0.057-0.016-0.085
		c1.953,2.001,4.767-0.685,2.628-4.751c0,0,3.799,7.168,4.994,4.995C166.764,50.384,162.729,38.893,152.611,30.737z
		 M111.515,143.462l-2.177-21.191c1.457-0.396,2.881-0.834,4.273-1.313L111.515,143.462z"/>
</g>
</svg>
