<?xml version="1.0" encoding="utf-8"?>
<!-- Generator: Adobe Illustrator 15.0.0, SVG Export Plug-In . SVG Version: 6.00 Build 0)  -->
<!DOCTYPE svg PUBLIC "-//W3C//DTD SVG 1.1//EN" "http://www.w3.org/Graphics/SVG/1.1/DTD/svg11.dtd">
<svg version="1.1" id="Layer_1" xmlns="http://www.w3.org/2000/svg" xmlns:xlink="http://www.w3.org/1999/xlink" x="0px" y="0px"
	 width="100.271px" height="134.733px" viewBox="0 0 100.271 134.733" enable-background="new 0 0 100.271 134.733"
	 xml:space="preserve">
<g>
	<path fill="#ED7C2F" d="M72.488,73.934c-4.354-3.602-9.554-6.725-14.839-8.707c-2.261-0.848-7.117-3.096-9.112-0.598
		c-0.758,0.945-0.683,2.916-0.917,4.082c-1.282,6.397-9.051,8.919-13.733,12.422c-5.153,3.854-9.53,11.051-10.419,17.322
		c-1.507,10.617,1.552,24.206,11.812,29.865c5.591,3.08,11.122,4.525,17.109,2.131c2.042-0.818,5.446-2.268,7.04-3.8
		c1.75-1.688,1.038-5.06,0.82-7.203c-0.351-3.42-1.229-6.774-0.822-10.231c0.532-4.566,4.928-3.1,8.018-5.031
		c2.272-1.427,3.896-3.525,4.655-6.109C74.435,90.12,80.096,80.231,72.488,73.934z"/>
	<path fill="#DD7128" d="M54.439,124.988c2.695-0.327,1.284-2.958,1.009-4.831c-0.488-3.337-1.263-6.922-1.264-10.3
		c0-1.812,0.63-3.585-0.07-5.321c-0.583-1.448-1.736-2.855-2.911-3.869c-1.245-1.076-2.729-1.871-4.296-2.367
		c-0.842-0.262-4.161-0.145-4.608-0.56c1.772,1.64,4.15,3.663,4.644,6.179c0.448,2.291-1.424,4.85-3.668,5.273
		c-2.242,0.42-3.375-1.514-5.07-2.49c-1.513-0.873-3.958-0.139-5.113-1.463c-0.721-0.824-2.482-8.053-1.18-8.563
		c-0.875,0.344-1.547,1.182-2.43,1.383c-0.074-1.606,0.555-3.217,0.302-4.756c-0.899-0.135-1.523,0.445-2.258,0.845
		c-0.144-3.119,0.801-5.87,1.887-8.61c-3.047,3.809-5.332,8.583-5.944,12.918c-0.219,1.539-0.33,3.145-0.35,4.775
		c1.582,2.094,3.493,3.958,4.85,6.246c2.007,3.372,3.836,6.695,7.19,8.946c1.775,1.189,3.788,1.823,5.554,2.971
		c1.861,1.212,3.359,2.496,5.651,2.857c1.512,0.237,3.039,0.261,4.567,0.308C51.952,124.59,53.489,125.104,54.439,124.988z"/>
	<path fill="#D36C28" d="M55.448,120.157c-0.488-3.337-1.263-6.922-1.264-10.3c0-1.812,0.63-3.585-0.07-5.321
		c-0.553-1.374-1.622-2.701-2.733-3.699c0.599,3.744,0.251,7.318-1.505,10.69c-1.816,3.483-8.116,3.364-9.125-0.804
		c-0.229-0.952,0.065-1.139-0.694-1.853c-0.57-0.534-1.255-0.626-1.964-0.804c-1.699-0.432-4.012-0.217-5.439-1.391
		c-1.809-1.486-0.958-4.653-3.058-5.922c-1.153-0.693-2.607-0.85-3.69-1.679c-1.178-0.9-1.432-2.415-1.692-3.828
		c-0.335,1.079-0.596,2.157-0.745,3.208c-0.219,1.539-0.33,3.145-0.35,4.775c1.582,2.094,3.493,3.958,4.85,6.246
		c2.007,3.372,3.836,6.695,7.19,8.946c1.775,1.189,3.788,1.823,5.554,2.971c1.861,1.212,3.359,2.496,5.651,2.857
		c1.512,0.237,3.039,0.261,4.567,0.308c1.021,0.031,2.559,0.545,3.509,0.429C57.135,124.661,55.724,122.03,55.448,120.157z"/>
	<path fill="#E57428" d="M63.08,98.752c0.412-1.471,0.997-2.9,1.487-4.369c0.554-1.662,1.339-3.242,2.361-4.67
		c1.802-2.524,5.221-8.764,9.049-8.074c0.686,4.212-1.445,9.824-2.273,13.875c-0.844,4.121-1.466,8.368-2.305,12.459
		c-0.447,2.197-0.939,4.584-0.593,6.953c0.433,2.961,1.515,2.461,3.266,4.271c1.474,1.523,2.416,4.692,0.856,6.246
		c-1.86,1.852-5.575,1.723-7.85,0.876c-3.468-1.294-3.661-3.927-3.661-7.202c0-2.158-0.141-4.254-0.141-6.436
		c0-2.251-0.229-4.373-0.421-6.571c-0.102-1.171-0.222-2.348-0.279-3.499C62.513,101.261,62.733,99.991,63.08,98.752z"/>
	<path fill="#D36D28" d="M74.707,122.813c-0.18,0.825-1.172,1.117-1.854,0.753c-0.299-0.159-2.315-1.186-2.077-1.671
		c-0.208,0.422-0.413,0.905-0.752,1.246c-0.775,0.773-1.678,0.472-2.486,0.006c-2.031-1.178-1.537-5.741-1.707-7.642
		c-0.367-4.22,0.761-7.485,2.906-11.062c0.926-1.543,2.267-3.833,4.101-4.313c0.273-1.547,0.553-3.09,0.866-4.617
		c0.828-4.051,2.959-9.663,2.273-13.875c-3.828-0.689-7.247,5.55-9.049,8.074c-1.022,1.428-1.808,3.008-2.361,4.67
		c-0.49,1.469-1.075,2.898-1.487,4.369c-0.347,1.238-0.567,2.509-0.503,3.859c0.058,1.151,0.178,2.328,0.279,3.499
		c0.192,2.198,0.421,4.32,0.421,6.571c0,2.182,0.141,4.277,0.141,6.436c0,3.275,0.193,5.908,3.661,7.202
		c2.274,0.847,5.989,0.976,7.85-0.876c1.234-1.23,0.898-3.471-0.025-5.107C74.989,121.101,74.903,121.886,74.707,122.813z"/>
	<path fill="#ED7C2F" d="M52.019,68.514c5.428-1.088,12.354,3.345,14.639,7.672c4.295,8.137-2.92,18.052-4.1,26.157
		c-0.602,4.14-0.783,8.333-0.853,12.511c-0.023,1.34-0.621,3.752-0.26,4.986c0.374,1.282,2.01,1.898,2.878,2.795
		c1.473,1.526,2.413,4.695,0.855,6.247c-1.728,1.726-6.378,1.701-8.422,0.649c-2.914-1.498-2.515-5.455-2.771-8.223
		c-0.361-3.917-0.788-7.773-1.382-11.668c-0.886-5.822-1.452-11.552-2.854-17.256c-1.128-4.6-2.126-9.281-2.279-14.031
		c-0.097-2.958-0.484-7.631,2.69-9.209C50.754,68.85,51.377,68.645,52.019,68.514z"/>
	<path fill="#FFDEA2" d="M47.8,70.442c0.263,2.575-1.28,6.146,0.846,8.218c0.053-0.831,0.373-1.636,1.066-2.098
		c0.064,0.954-0.27,2.222,0.569,2.845c2.502-2.963,3.902,6.25,3.915,7.844c0.115-0.344,0.541-1.505,0.939-2.109
		c0.792,2.322,1.535,6.139,1.413,8.653c0.032-0.671,1.641-1.608,1.926-2.245c0.55,1.885,0.74,4.172,1.593,5.936
		c0.359-0.697,1.271-2.587,2.326-2.26c0.752,0.236,0.641,2.045,0.744,2.678c0.444,2.699-0.338,5.297-0.365,7.996
		c1.951-1.811,3.894-3.651,5.451-5.846c-0.079,0.816-0.155,1.668,0.717,1.737c0.658-1.661,1.603-3.333,2.484-4.763
		c-0.082,0.701,0.238,0.956,0.572,1.43c1.4-1.707,0.092-6.616,2.46-7.473c0.233,0.926,0.596,2.088,1.051,2.81
		c0.783-1.901,2.063-4.323,3.608-5.696c-0.005,0.001,0.95-0.154,1.289-0.449c0.648-0.568,1.074-2.063,1.298-2.867
		c0.638-2.289,0.675-5.49,0.149-7.827c0.727,0.67,1.259,1.509,2.033,2.063c0.129-1.826,0.337-3.801-0.048-5.609
		c-0.433-2.039-2.408-2.924-2.924-4.66c0.729,0.053,1.464,0.197,2.234,0.149c-6.239-4.519,0.854-14.743-2.255-20.438
		c-1.641-3.004-6.181-3.084-9.145-3.21c-4.357-0.193-8.814,0.456-12.991,1.685c-1.766,0.521-4.357,1.103-5.722,2.387
		c-1.602,1.502-2.121,4.336-3.069,6.24c-1.112,2.232-3.017,3.66-4.943,4.996c1.456,1.492,2.243,1.83,1.175,3.99
		c-0.722,1.453-2.328,2.686-2.652,4.314c0.824-0.734,2.092-0.534,3.158-0.48c-0.402,0.592-0.742,1.179-0.667,1.904
		c0.544-0.086,1.191-0.002,1.726-0.121C47.777,70.254,47.789,70.348,47.8,70.442z"/>
	<path fill="#F68E48" d="M6.484,124.668c1.025,4.319,4.232,4.282,7.681,5.787c1.727,0.754,3.264,1.637,4.793,2.717
		c2.104,1.485,4.288,1.307,6.804,1.307c2.519,0,6.238,0.674,8.6-0.175c-0.054-0.287,0.115-0.709,0.049-0.995
		c3.045,0.871,7.087,1.189,10.38,1.023c1.743-0.091,3.539-0.08,5.201-0.559c1.159-0.336,3.422-0.58,4.178-1.375
		c-0.239-0.248-0.255-0.643-0.475-0.893c0.628-0.653,2.209-0.87,3.104-1.37c0.959-0.536,2.005-1.31,2.896-2.011
		c2.502-1.971,3.2-4.781,3.643-7.691c-0.198,1.309-6.563-0.336-6.783,0.049c0.245-0.418,0.752-0.79,1.006-1.283
		c-1.264-0.086-2.573-0.127-3.79,0.274c-1.271,0.419-2.248,1.147-3.721,1.044c1.744-2.254-0.557-1.613-1.991-1.799
		c-1.084-0.143-2.196-0.776-3.083-1.396c-0.21-0.144-2.125-2-2.055-2.023c0.265-0.092,0.7-0.453,1.106-0.564
		c-0.571-1.111-1.233-1.552-2.216-1.961c-0.889-0.37-1.973-0.346-2.613-1.22c0.711-0.655,1.77-0.802,1.142-1.79
		c-0.331-0.516-1.877-0.728-2.381-0.853c-2.594-0.642-5.171-0.85-6.872-3.218c-0.739-1.029-0.027-2.322-0.866-3.294
		c-0.748-0.862-1.967-0.603-2.784-1.296c-1.468-1.246-1.953-3.192-2.424-4.969c-0.391-1.484,0.103-2.284-1.623-2.09
		c-1.923,0.219-5.482,1.648-6.849,2.967c-0.321,0.309-0.24,0.768-0.77,1.163c-0.288,0.216-1.222,0.46-1.599,0.595
		c-1.192,0.427-2.372,0.893-3.57,1.369c-2.394,0.959-4.287,2.479-5.895,4.474c0.352-0.1,0.772,0.061,1.113,0.011
		c0.416,1.397-3.122,3.639-3.878,4.885c-1.2,1.97-2.222,4.451-1.872,6.811c0.515,0.004,0.952-0.027,1.437-0.102
		c0.712,2.105,0.658,4.499,1.268,6.658c0.212,0.76,0.414,1.711,1.182,2.124C4.279,125.174,6.608,125.205,6.484,124.668z"/>
	<path fill="#ED7C2F" d="M59.654,123.631c-4.652,1.503-10.048,1.793-14.462-0.598c-0.925-0.501-1.826-1.154-2.911-1.162
		c0.247,0.709,0.858,1.41,1.333,2.052c-0.7,0.71-3.362,0.354-4.24,0.166c-1.443-0.307-2.311-1.584-3.638-2.221
		c0.835,2.286,3.587,2.309,4.582,4.114c-2.425,0.259-5.429-1.553-7.609-2.541c-3.843-1.742-7.499-4.123-10.564-6.93
		c0.611,2.109,2.764,4.63,4.474,6.226c1.473,1.374,2.946,2.357,4.648,3.414c0.61,0.381,2.408,1.126,1.976,2.173
		c-0.335,0.797-2.558,0.303-3.275,0.203c-2.576-0.352-5.045-1.312-7.166-2.814c-1.903-1.343-3.551-3.383-5.215-5.025
		c-1.506-1.49-3.705-2.592-4.733-4.447c0.644,1.985,1.665,4.121,2.646,6.088c0.881,1.77,3.512,4.136,3.404,6.182
		c-2.74-0.059-5.967-3.053-7.626-4.991c-2.014-2.355-3.383-5.327-3.346-8.468c-0.818,2.545-0.939,5.128-0.74,7.781
		c-2.041-2.867-3.919-5.813-3.014-9.463c0.498-2.02,1.543-3.324,3.006-4.746c0.524-0.514,1.676-1.244,1.451-2.091
		c-0.232-0.864-1.217-0.646-1.884-1.04c0.493-1.152,4.612-3.696,1.041-3.451c0.056-0.172,0.14-0.322,0.214-0.486
		c-1.228,0.844-2.323,1.851-3.299,3.058c0.352-0.1,0.772,0.061,1.113,0.011c0.416,1.397-3.122,3.639-3.878,4.885
		c-1.2,1.97-2.222,4.451-1.872,6.811c0.515,0.004,0.952-0.027,1.437-0.102c0.712,2.105,0.658,4.499,1.268,6.658
		c0.212,0.76,0.414,1.711,1.182,2.124c0.324,0.175,2.653,0.205,2.529-0.331c1.025,4.319,4.232,4.282,7.681,5.787
		c1.727,0.754,3.264,1.637,4.793,2.717c2.104,1.485,4.288,1.307,6.804,1.307c2.519,0,6.238,0.674,8.6-0.175
		c-0.054-0.287,0.115-0.709,0.049-0.995c3.045,0.871,7.087,1.189,10.38,1.023c1.743-0.091,3.539-0.08,5.201-0.559
		c1.159-0.336,3.422-0.58,4.178-1.375c-0.239-0.248-0.255-0.643-0.475-0.893c0.628-0.653,2.209-0.87,3.104-1.37
		c0.959-0.536,2.005-1.31,2.896-2.011c1.963-1.545,2.809-3.609,3.3-5.828C61.807,122.738,60.63,123.311,59.654,123.631z"/>
	<path fill="#DD7128" d="M54.327,129.752c-1.439-1.123-4.142-0.499-5.851-0.422c-2.388,0.111-4.685,0.857-7.026,1.121
		c-2.226,0.251-4.688,0.219-6.996,0.141c-1.928-0.065-3.986-0.333-5.881-0.732c-1.438-0.304-4.146-0.905-5.045-2.149
		c0.823,1.013,1.89,1.662,2.771,2.576c-5.078,1.911-14.28-2.116-17.319-6.368c0.405,1.029,0.84,2.247,1.114,3.301
		c-2.111-0.664-3.511-2.859-4.879-4.344c-0.276,0.484,0.033,1.136,0.258,1.689c-2.454-3.051-2.961-6.605-3.222-10.437
		c-0.254,0.427-0.659,0.78-1.069,0.915c-0.415-2.666,1.763-4.812,2.339-7.176c-0.68,0.619-1.308,1.191-1.579,1.641
		c-1.2,1.97-2.222,4.451-1.872,6.811c0.515,0.004,0.952-0.027,1.437-0.102c0.712,2.105,0.658,4.499,1.268,6.658
		c0.212,0.76,0.414,1.711,1.182,2.124c0.324,0.175,2.653,0.205,2.529-0.331c1.025,4.319,4.232,4.282,7.681,5.787
		c1.727,0.754,3.264,1.637,4.793,2.717c2.104,1.485,4.288,1.307,6.804,1.307c2.519,0,6.238,0.674,8.6-0.175
		c-0.054-0.287,0.115-0.709,0.049-0.995c3.045,0.871,7.087,1.189,10.38,1.023c1.743-0.091,3.539-0.08,5.201-0.559
		c1.159-0.336,3.422-0.58,4.178-1.375c-0.239-0.248-0.255-0.643-0.475-0.893c0.294-0.307,0.807-0.52,1.354-0.71
		C54.896,130.379,54.663,130.014,54.327,129.752z"/>
	<path fill="#FFEFD0" d="M59.693,128.125c2.502-1.971,3.2-4.781,3.643-7.691c-0.198,1.309-6.563-0.336-6.783,0.049
		c0.245-0.418,0.752-0.79,1.006-1.283c-1.264-0.086-2.573-0.127-3.79,0.274c-1.271,0.419-2.248,1.147-3.721,1.044
		c1.744-2.254-0.557-1.613-1.991-1.799c-1.084-0.143-2.196-0.776-3.083-1.396c-0.21-0.144-2.125-2-2.055-2.023
		c0.265-0.092,0.7-0.453,1.106-0.564c-0.534-1.035-1.151-1.488-2.032-1.878c-0.056,0.133-0.146,0.269-0.293,0.411
		c-0.425,0.412-1.497,0.56-2.067,0.732c0.934,0.353,1.884,0.729,2.607,1.416c-1.167,0.816-2.641,0.68-0.425,1.784
		c1.205,0.599,3.188,0.745,4.029,1.671c-1.238,1.6-5.633,0.166-7.119-0.433c-0.26,2.678,5.209,5.074,6.945,6.192
		c-1.323,0.44-2.603,1.25-3.986,1.404c0.476,0.396,1.015,0.877,0.853,1.581c-1.012,0.31-2.749,0.569-3.484,1.215
		c0.837,0.837,2.563,0.847,3.625,1.224c1.227,0.434,2.441,0.788,3.728,1.027c-0.049,0.307-0.148,0.581-0.286,0.824
		c-1.075,1.908-4.556,2.092-6.383,2.271c-0.068,0.008-0.128,0.025-0.197,0.035c1.792,0.164,3.613,0.201,5.251,0.119
		c1.743-0.091,3.539-0.08,5.201-0.559c1.159-0.336,3.422-0.58,4.178-1.375c-0.239-0.248-0.255-0.643-0.475-0.893
		c0.628-0.653,2.209-0.87,3.104-1.37C57.757,129.6,58.803,128.827,59.693,128.125z"/>
	<path fill="#F4DBA8" d="M54.169,132.399c-0.239-0.248-0.255-0.643-0.475-0.893c0.628-0.653,2.209-0.87,3.104-1.37
		c0.959-0.536,2.005-1.31,2.896-2.011c2.502-1.971,3.2-4.781,3.643-7.691c-0.107,0.691-1.931,0.558-3.664,0.338
		c-0.629,0.518-1.24,1.043-1.845,1.454c-2.029,1.391-4.052,2.226-6.565,2.091c0.176,0.814,1.116,0.925,1.894,0.809
		c-2.291,2.238-6.843,1.514-9.655,0.393c-0.596,0.244-1.194,0.447-1.815,0.518c0.476,0.396,1.015,0.877,0.853,1.581
		c-1.012,0.31-2.749,0.569-3.484,1.215c0.837,0.837,2.563,0.847,3.625,1.224c1.227,0.434,2.441,0.788,3.728,1.027
		c-0.049,0.307-0.148,0.581-0.286,0.824c-1.075,1.908-4.556,2.092-6.383,2.271c-0.068,0.008-0.128,0.025-0.197,0.035
		c1.792,0.164,3.613,0.201,5.251,0.119c1.743-0.091,3.539-0.08,5.201-0.559C51.15,133.438,53.413,133.194,54.169,132.399z"/>
	<path fill="#F0D098" d="M59.693,128.125c1.94-1.529,2.794-3.566,3.286-5.762c-0.786,0.791-1.409,1.836-2.588,2.389
		c-2.131,0.994-4.779,1.7-7.146,1.775c0.682,0.301,1.363,0.414,2.039,0.545c0.425,0.084,0.847,0.175,1.267,0.324
		c-1.258,2.076-5.354,1.143-7.242,0.977c0.234,0.021,0.715,1.193,1.587,1.141c-2.169,0.133-4.375,0.882-6.618,1.048
		c0.696,0.205,1.4,0.386,2.127,0.521c-0.049,0.307-0.148,0.581-0.286,0.824c-1.075,1.908-4.556,2.092-6.383,2.271
		c-0.068,0.008-0.128,0.025-0.197,0.035c1.792,0.164,3.613,0.201,5.251,0.119c1.743-0.091,3.539-0.08,5.201-0.559
		c1.159-0.336,3.422-0.58,4.178-1.375c-0.239-0.248-0.255-0.643-0.475-0.893c0.628-0.653,2.209-0.87,3.104-1.37
		C57.757,129.6,58.803,128.827,59.693,128.125z"/>
	<path fill="#F89E54" d="M14.401,101.227c-1.477,1.365-2.803,2.956-4.044,4.884c-1.818,2.825-1.602,6.347-1.651,9.621
		c0.567-2.84,2.249-4.659,4.362-6.507c-0.789,1.721-1.077,4.598,0.261,6.086c0.879-2.15,1.479-3.671,3.199-5.39
		c-0.709,3.321,0.588,6.384,2.266,9.163c-0.033-1.884-0.224-3.82-0.385-5.695c-0.168-1.989,0.308-3.354,0.801-5.279
		c-0.002,2.949,1.568,6.153,3.773,8.148c2.355,2.129,8.458,3.791,11.289,1.77c-2.494-0.172-4.292-0.457-6.36-2.132
		c-1.472-1.192-3.075-3.437-3.544-5.267c1.148,1.658,3.861,2.251,5.759,2.441c2.38,0.242,3.265-0.602,5.158-1.477
		c-1.894,0.875-6.921-1.694-8.332-2.832c-1.028-0.824-2.604-2.34-0.917-2.965c1.383-0.512,3.388,0.462,3.501-1.906
		c0.003-0.064-2.804,0.166-3.079,0.135c-1.115-0.112-1.979-0.579-2.755-1.386c-1.79-1.872-1.282-4.097-1.303-6.448
		C19.227,97.618,16.64,99.164,14.401,101.227z"/>
	<path opacity="0.64" fill="#F68E48" d="M30.495,91.41c0.555-1.364,1.92-2.743,3.279-3.301c-1.858,3.788-0.525,8.009,1.247,11.518
		c-0.017-1.097-0.093-2.26,0.242-3.275c0.115,1.422,0.88,3.636,2.388,4.148c-0.005-2.862-0.483-5.479,0.272-8.236
		c0.154,2.046,1.966,5.427,4.354,5.29c-0.771-1.883-1.524-3.654-1.807-5.712c-0.268-1.972-0.577-3.019,0.004-4.999
		c-0.13,2.205,1.989,3.802,3.386,5.242c1.403,1.448,2.121,2.592,3.056,4.321c-0.056-2.842-0.854-5.232-2.232-7.62
		c1.427-0.176,2.103,1.283,2.932,2.162c-0.428-0.451-1.397-3.441-1.345-4.086c0.977,0.364,1.676,1.438,2.605,1.986
		c-0.152-0.092-0.854-2.817-0.789-3.094c0.835,0.555,1.561,1.543,1.758,2.541c0.006-2.552-0.914-3.891-2.276-5.943
		c-1.953-2.945-0.872-5.271-1.388-8.549c-1.117,0.764-1.563,2.35-2.519,3.311c-0.904,0.908-2.124,1.663-3.291,2.168
		c-0.37,0.162-3.292,1.023-3.523,0.543c0.26,0.542,0.838,0.822,1.267,1.236c-0.728,0.92-2.067,1.057-3.128,1.502
		C31.518,84.018,29.324,87.573,30.495,91.41z"/>
	<path opacity="0.64" fill="#F68E48" d="M53.109,100.221c-0.897-2.336-2.127-4.566-3.593-6.688c0.427,1.851,1.172,3.986,1.698,5.996
		c0.882,3.372,2.97,10.328,3.356,18.6c0.24-3.11,0.172-6.241,0.172-9.357C54.743,105.776,54.147,102.924,53.109,100.221z"/>
	<path fill="#F3C37D" d="M80.917,68.752c-0.003,0-0.003-0.004-0.003-0.004c0.729,0.053,1.464,0.197,2.234,0.149
		c-2.549-1.849-2.871-4.648-2.574-7.701c-0.646-0.517-1.579-0.786-2.325-0.823c-0.312-0.013-0.717,0.16-1.002,0.106
		c-0.383-0.073-0.809-0.465-1.188-0.614c-1.637-0.639-3.46-0.15-5.14,0.036c-3.187,0.362-6.454,0.604-9.663,0.452
		c-3.606-0.168-7.38-0.887-10.951-0.018c-1.521,0.367-3.147,0.489-4.462,1.042c0.879,0.894,1.196,1.469,0.355,3.169
		c-0.722,1.453-2.328,2.686-2.652,4.314c0.824-0.734,2.092-0.534,3.158-0.48c-0.402,0.592-0.742,1.179-0.667,1.904
		c0.544-0.086,1.191-0.002,1.726-0.121c0.015,0.09,0.026,0.184,0.037,0.277c0.263,2.575-1.28,6.146,0.846,8.218
		c0.053-0.831,0.373-1.636,1.066-2.098c0.064,0.954-0.27,2.222,0.569,2.845c2.502-2.963,3.902,6.25,3.915,7.844
		c0.115-0.344,0.541-1.505,0.939-2.109c0.792,2.322,1.535,6.139,1.413,8.653c0.032-0.671,1.641-1.608,1.926-2.245
		c0.55,1.885,0.74,4.172,1.593,5.936c0.359-0.697,1.271-2.587,2.326-2.26c0.752,0.236,0.641,2.045,0.744,2.678
		c0.444,2.699-0.338,5.297-0.365,7.996c0.442-0.41,0.886-0.828,1.325-1.244c0.033-0.132,0.066-0.263,0.098-0.397
		c0.457-1.921,0.309-4.167-0.088-6.071c-0.342-1.633-0.399-3.824-1.133-5.291c-0.827,0.219-1.361,1.075-2.039,1.545
		c-0.104-1.459-0.156-2.559-0.689-3.893c-0.2-0.496-0.495-1.338-0.879-1.727c-0.464-0.472-1.299-0.41-1.593-0.732
		c-1.885-2.071-1.122-5.752-1.302-8.383c-2.811,2.65-0.976-8.15-3.967-4.438c-0.655-1.386-0.021-6.396,1.229-7.359
		c0.579-0.445,2.399-0.73,3.125-0.703c1.301,0.045,2.143,1.203,3.311,1.199c0.415-2.757,2.783-0.131,3.403,0.893
		c0.205-0.568,0.379-1.344,0.982-1.182c0.433,0.115,1.206,0.789,1.464,1.151c0.418,0.577,0.272,1.174,0.311,1.849
		c0.884,0.074,1.104-1.912,1.26-2.519c0.885,0.976,1.255,2.372,1.393,3.652c-0.197-1.835,2.461-3.129,4.024-3.009
		c0.915,0.071,1.403,0.871,1.699,1.662c0.125,0.344,0.778,2.983,0.396,3.178c1.383-0.697,3.043-1.999,2.659-3.736
		c0.862,0.917,1.683,2.365,1.618,3.668c0.687-0.607,0.549-1.482,0.549-2.342c0-0.704-0.385-2.445,0.235-2.975
		C80.377,68.514,80.638,68.606,80.917,68.752z"/>
	<g>
		<path fill="#ED7C2F" d="M40.69,37.324c10.091,6.653,18.457-5.734,13.271-14.798c-2.796-4.887-7.057-6.787-11.716-9.089
			c-0.771-0.382-7.846-4.159-9.187-3.06C30.623,12.381,32.828,32.137,40.69,37.324z"/>
		<path fill="#CE6728" d="M41.604,35.155c8.074,2.059,11.198-8.57,8.178-14.318c-1.93-3.672-6.814-6.58-10.464-8.168
			c-1.142-0.498-3.225-1.707-4.528-1.555c-2.276,0.271-1.61,3.281-1.729,4.834c-0.187,2.428,0.567,4.601,1.055,6.98
			c0.593,2.892,1.258,7.111,3.266,9.44C38.647,33.835,40.086,34.768,41.604,35.155z"/>
		<path fill="#ED7C2F" d="M87.478,27.588c-6.173,10.397-19.108,2.907-18.403-7.512c0.378-5.615,3.378-9.186,6.563-13.295
			c0.529-0.68,5.241-7.168,6.926-6.764C85.632,0.752,92.281,19.487,87.478,27.588z"/>
		<path fill="#CE6728" d="M87.822,14.465c-0.442-2.281-0.813-4.589-1.589-6.781c-0.433-1.223-1.079-2.2-1.704-3.309
			c-0.463-0.822-0.723-2.105-1.552-2.652c-2.329-1.541-5.376,3.921-6.37,5.239c-2.105,2.79-3.682,4.894-4.341,8.368
			c-0.341,1.781-0.381,3.753,0.606,5.346c1.184,1.902,4.028,0.182,5.817,0.477c2.588,0.417,2.889,1.974,4.134,3.945
			c0.556,0.89,2.096,1.404,3.099,1.17c1.25-0.287,1.734-1.484,2.074-2.623c0.807-2.689,0.508-5.806-0.043-8.519
			C87.909,14.908,87.865,14.686,87.822,14.465z"/>
		<path fill="#ED7C2F" d="M72.716,20.69c-8.012-1.616-15.396-0.584-22.143,3.926c-2.663,1.779-4.357,4.409-5.779,7.209
			c-2.113,4.164-4.203,8.33-6.121,12.555c-1.777,3.91-4.348,7.211-4.128,11.721c0.088,1.77,0.212,5.29,1.792,6.472
			c0.402-0.34,0.87-0.571,1.374-0.591c0.206,0.551,0.927,1.956,1.405,2.171c0.814,0.374,2.563-0.03,3.469,0.015
			c-0.081,1.906,5.735,1.341,6.971,1.077c2.47-0.524,4.931-1.438,7.49-1.356c2.583,0.079,5.456,1.066,7.818,2.051
			c1.907,0.797,4.154,1.275,6.174,1.736c2.312,0.522,4.597,0.334,6.777-0.618c1.412-0.614,2.501-1.696,3.443-2.886
			c0.847-1.074,1.522-2.633,2.759-3.309c2.653-1.449,5.831-2,8.388-3.665c1.191-0.774,2.563-1.503,3.65-2.409
			c0.563-0.473,2.02-2.619,2.589-1.68c1.229-1.659,1.896-5.395,1.038-7.334c0.122,0.154,0.418,0.325,0.56,0.474
			c0.214-1.931-0.8-4.304-1.795-5.933c-0.568-0.93-0.682-1.682-1.072-2.603c-0.46-1.078-1.872-1.845-2.817-2.45
			c-1.316-0.838-2.692-1.625-4.02-2.466c-2.864-1.819-5.66-3.755-7.97-6.267C79.846,23.569,76.808,21.514,72.716,20.69z"/>
		<path fill="#DD7128" d="M98.645,53.108c1.229-1.659,1.896-5.395,1.038-7.334c0.122,0.154,0.418,0.325,0.56,0.474
			c0.214-1.931-0.8-4.304-1.795-5.933c-0.568-0.93-0.682-1.682-1.072-2.603c-0.46-1.078-1.872-1.845-2.817-2.45
			c-1.316-0.838-2.692-1.625-4.02-2.466c-1.419-0.899-2.825-1.824-4.154-2.851c0.646,3.309,4.459,6.049,5.938,9.123
			c-0.789,0.041-1.593-0.041-2.315,0.193c0.362,0.893,1.603,1.666,1.011,2.585c-0.224,0.349-1.014,0.105-1.302,0.617
			c-0.401,0.712,0.43,1.331,0.379,1.923c-0.116,1.491-1.664,0.819-2.753,1.86c-0.842,0.81-0.568,1.614-0.312,2.688
			c-2.04,1.08-4.642,0.671-6.553,1.928c-0.911,0.602-1.496,1.67-2.119,2.607c-1.421,2.129-4.482,4.207-7.016,4.664
			c-4.091,0.74-6.997-2.457-10.689-3.475c-1.555-0.428-3.92-1.358-5.613-1.016c-1.716,0.35-5.098,3.84-5.123-0.285
			c-2.804,1.118-6.073,3.229-5.874-1.334c-0.004,0.129-1.778,1.484-1.993,1.762c-2.171-0.908-1.653-4.363-1.215-6.57
			c-0.313,0-0.674-0.083-0.986-0.08c-0.463-2.906,1.17-5.816,1.657-8.735c-0.975,1.983-1.923,3.974-2.833,5.978
			c-1.777,3.91-4.348,7.211-4.128,11.721c0.088,1.77,0.212,5.29,1.792,6.472c0.402-0.34,0.87-0.571,1.374-0.591
			c0.206,0.551,0.927,1.956,1.405,2.171c0.814,0.374,2.563-0.03,3.469,0.015c-0.081,1.906,5.735,1.341,6.971,1.077
			c2.47-0.524,4.931-1.438,7.49-1.356c2.583,0.079,5.456,1.066,7.818,2.051c1.907,0.797,4.154,1.275,6.174,1.736
			c2.312,0.522,4.597,0.334,6.777-0.618c1.412-0.614,2.501-1.696,3.443-2.886c0.847-1.074,1.522-2.633,2.759-3.309
			c2.653-1.449,5.831-2,8.388-3.665c1.191-0.774,2.563-1.503,3.65-2.409C96.618,54.315,98.075,52.168,98.645,53.108z"/>
		<path fill="#FFEBBE" d="M82.616,25.288c-3.749-3.865-7.111-4.043-9.152-4.535c-3.088-0.739-0.591-5.479,0.459-7.383
			c1.936-3.504,6.628-10.275,8.582-10.238c1.15,0.02,5.406,11.555,4.98,18.145C87.305,24.069,85.766,28.538,82.616,25.288z"/>
		<path fill="#FFDEA2" d="M83.288,22.141c-2.154-2.503-4.615-4.996-4.745-8.502c-0.106-2.922,0.247-5.488,2.917-7.059
			c1.073-0.632,2.1-0.549,2.986-0.09c-0.801-2.018-1.551-3.354-1.941-3.359c-1.954-0.037-6.646,6.734-8.582,10.238
			c-1.05,1.904-3.547,6.644-0.459,7.383c2.041,0.492,5.403,0.67,9.152,4.535c1.617,1.672,2.807,1.297,3.612,0.166
			C85.229,24.379,84.259,23.265,83.288,22.141z"/>
		<path fill="#FFEBBE" d="M44.056,33.131c1.684-5.115,4.63-6.748,6.25-8.078c2.454-2.017-1.862-5.189-3.639-6.441
			c-3.272-2.305-10.453-6.346-12.193-5.459c-1.025,0.522,0.186,12.757,3.45,18.497C39.309,34.084,42.644,37.428,44.056,33.131z"/>
		<path fill="#FFDEA2" d="M46.667,18.612c-3.272-2.305-10.453-6.346-12.193-5.459c-0.32,0.162-0.415,1.466-0.308,3.345
			c0.487-0.332,1.078-0.614,1.808-0.841c2.659-0.841,5.033,1.402,6.229,3.454c1.753,3.005,1.056,7.776,0.814,11.053
			c-0.134,1.837-0.769,3.45-1.706,4.892c1.069,0.394,2.105,0.024,2.744-1.924c1.684-5.115,4.63-6.748,6.25-8.078
			C52.76,23.037,48.443,19.864,46.667,18.612z"/>
		<g>
			<path fill="#0F0B09" d="M61.505,48.055c1.126-2.371-0.69-6.418-4.363-4.604c-2.932,1.448-1.394,5.805,1.163,6.129
				C59.982,49.793,61.021,49.083,61.505,48.055z"/>
			<path fill="#FFFFFF" d="M58.251,45.643c0.063-0.357-0.011-1.197-0.736-1.113c-0.913,0.105-1.276,1.733-0.49,2.188
				C57.826,47.18,58.174,46.105,58.251,45.643z"/>
		</g>
		<g>
			<path fill="#0F0B09" d="M81.703,44.743c1.126-2.371-0.688-6.416-4.362-4.605c-2.933,1.451-1.396,5.809,1.164,6.134
				C80.181,46.483,81.218,45.772,81.703,44.743z"/>
			<path fill="#FFFFFF" d="M78.449,42.331c0.062-0.357-0.011-1.198-0.734-1.111c-0.918,0.104-1.276,1.732-0.493,2.186
				C78.023,43.87,78.37,42.793,78.449,42.331z"/>
		</g>
		<path fill="#FAA322" d="M58.588,37.384c-2.37-1.581-4.664,2.623-5.396,4.237C53.455,41.039,61.502,39.33,58.588,37.384z"/>
		<path fill="#FAA322" d="M75.998,35.546c1.742-2.255,5.255,0.998,6.461,2.296C82.026,37.374,73.854,38.318,75.998,35.546z"/>
		<path opacity="0.45" fill="#FBAF33" d="M73.989,62.286c2.152-0.375,3.604-1.914,5.25-3.217c1.234-0.98,2.711-2.094,1.775-3.799
			c-0.926-1.689-3.479-1.995-5.21-2.245c-1.812-0.265-3.558-0.306-5.322,0.232c-1.464,0.446-3.139,1.638-3.921,2.978
			c-0.586,1.007-1.006,2.228-1.02,3.396c-0.006,0.457-0.11,0.904,0.252,1.232c0.417,0.378,1.072,0.474,1.588,0.653
			C69.482,62.244,71.776,62.676,73.989,62.286z"/>
		<path fill="#FFEBBE" d="M96.378,54.459c0.433-0.486,0.911-1.174,1.448-1.424c0.293-0.183,0.56-0.227,0.751-0.011
			c0.023,0.011,0.05,0.019,0.078,0.034c0.053-0.067,0.096-0.14,0.146-0.209c1.125-1.756,1.7-5.224,0.881-7.076
			c0.122,0.154,0.418,0.325,0.56,0.474c0.214-1.931-0.8-4.304-1.795-5.933c-0.568-0.93-0.682-1.682-1.072-2.603
			c-0.382-0.898-1.429-1.581-2.313-2.13c1.058,2.137,2.04,4.727-0.506,5.748c1.063,2.416,0.127,3.9-1.379,5.689
			c-1.483,1.761-3.031,1.963-4.951,3.121c-1.034,0.625-1.003,1.572-1.941,2.309c-0.857,0.675-1.722,0.581-2.758,0.589
			c-3.732,0.026-4.262,3.448-6.346,5.606c-2.563,2.652-5.67,2.287-8.723,1.202c-3.108-1.104-6.618-3.177-10.038-3.709
			c-1.923-0.299-9.784,2.244-10.121,0.96c-1.704-0.234-2.414,1.869-4.073,1.678c0.032-0.313-0.077-0.713-0.064-1.027
			c-1.221,0.276-2.072,1.418-3.425,1.246c-0.05-0.914-0.013-1.87-0.077-2.782c-3.617,1.444-3.101-0.357-3.26-3.485
			c-0.545,0.397-1.196,0.703-1.867,0.802c-0.199,0.029,0.357-2.548,0.81-4.538c0,0.002-0.002,0.006-0.005,0.013
			c-0.126,0.253-0.247,0.509-0.363,0.767c-0.011,0.021-0.021,0.045-0.032,0.064c-0.249,0.548-0.477,1.1-0.675,1.662
			c-0.004,0.011-0.007,0.021-0.01,0.029c-0.088,0.255-0.171,0.512-0.243,0.771c-0.022,0.076-0.042,0.156-0.063,0.232
			c-0.051,0.197-0.102,0.391-0.146,0.59c-0.021,0.099-0.041,0.197-0.061,0.297c-0.036,0.186-0.066,0.373-0.092,0.559
			c-0.018,0.108-0.032,0.212-0.044,0.318c-0.021,0.199-0.037,0.398-0.05,0.602c-0.006,0.098-0.015,0.191-0.019,0.291
			c-0.008,0.299-0.011,0.604,0.004,0.914c0.088,1.77,0.212,5.29,1.792,6.472c0.402-0.34,0.87-0.571,1.374-0.591
			c0.206,0.551,0.927,1.956,1.405,2.171c0.814,0.374,2.563-0.03,3.469,0.015c-0.081,1.906,5.735,1.341,6.971,1.077
			c2.47-0.524,4.931-1.438,7.49-1.356c2.583,0.079,5.456,1.066,7.818,2.051c1.907,0.797,4.154,1.275,6.174,1.736
			c2.312,0.522,4.597,0.334,6.777-0.618c1.412-0.614,2.501-1.696,3.443-2.886c0.847-1.074,1.522-2.633,2.759-3.309
			c2.653-1.449,5.831-2,8.388-3.665c1.191-0.774,2.563-1.503,3.65-2.409C96.145,54.712,96.256,54.595,96.378,54.459z"/>
		<path fill="#FFDEA2" d="M92.405,57.197c1.191-0.774,2.563-1.503,3.65-2.409c0.089-0.075,0.2-0.192,0.322-0.328
			c0.433-0.486,0.911-1.174,1.448-1.424c0.293-0.183,0.56-0.227,0.751-0.011c0.023,0.011,0.05,0.019,0.078,0.034
			c0.053-0.067,0.096-0.14,0.146-0.209c1.125-1.756,1.7-5.224,0.881-7.076c0.122,0.154,0.418,0.325,0.56,0.474
			c0.214-1.931-0.8-4.304-1.795-5.933c-0.568-0.93-0.682-1.682-1.072-2.603c-0.382-0.898-1.429-1.581-2.313-2.13
			c0.441,0.891,0.867,1.863,1.029,2.766c0.314,0.811,0.504,1.672,0.738,2.456c0.02,0.065,0.042,0.132,0.061,0.195
			c0.225,0.72,1,1.538,1.152,2.194c0.17,0.725-0.246,1.055-0.273,1.615c-0.079,1.42,0.622,2.839-0.619,3.939
			c-0.846,0.748-2.746,0.137-3.315,0.798c-0.313,0.359-0.075,1.774-0.287,2.318c-0.241,0.614-0.702,1.302-1.202,1.765
			c-1.181,1.087-2.823,0.823-4.283,1.073c-1.346,0.236-2.679,0.713-3.92,1.27c-2.018,0.905-3.121,2.187-4.575,3.786
			c-3.912,4.305-9.53,4.268-14.562,1.914c-0.35-0.162-0.54-0.409-0.613-0.682c-4.169-0.979-8.287-2.813-11.684,0.486
			c-0.938,0.908-2.37-0.012-2.108-1.229c0.059-0.279,0.138-0.551,0.207-0.826c-1.177,0.64-2.345,1.289-3.563,1.849
			c-0.843,0.392-1.896-0.061-1.896-1.087v-0.986c-1.414,1.118-3.029,2.018-4.752,1.847c-1.787-0.177-2.248-1.396-2.328-2.772
			c-0.343,0.27-0.682,0.539-1.043,0.797c-0.629,0.447-1.715,0.01-1.852-0.754c-0.526-2.955-0.267-5.777,0.79-8.525
			c0.014-0.055,0.024-0.102,0.036-0.156c0.035-0.162,0.07-0.324,0.108-0.48c0.012-0.055,0.022-0.109,0.035-0.162
			c0,0.002-0.001,0.004-0.002,0.006c-0.129,0.26-0.25,0.521-0.371,0.781c-0.008,0.016-0.016,0.033-0.024,0.049
			c-0.002,0.008-0.003,0.012-0.006,0.016c-0.246,0.54-0.471,1.086-0.668,1.643c-0.094,0.269-0.18,0.541-0.258,0.814
			c-0.021,0.074-0.041,0.154-0.062,0.23c-0.023,0.085-0.043,0.172-0.064,0.26c-0.027,0.116-0.059,0.228-0.082,0.34
			c-0.021,0.097-0.04,0.191-0.06,0.287c0,0.011-0.003,0.022-0.005,0.033c-0.033,0.176-0.062,0.352-0.087,0.525
			c-0.018,0.105-0.03,0.209-0.042,0.311c-0.013,0.125-0.021,0.252-0.034,0.377c-0.005,0.077-0.012,0.153-0.018,0.232
			c-0.006,0.098-0.015,0.191-0.019,0.291c-0.008,0.299-0.011,0.604,0.004,0.914c0.088,1.77,0.212,5.29,1.792,6.472
			c0.402-0.34,0.87-0.571,1.374-0.591c0.206,0.551,0.927,1.956,1.405,2.171c0.814,0.374,2.563-0.03,3.469,0.015
			c-0.081,1.906,5.735,1.341,6.971,1.077c2.47-0.524,4.931-1.438,7.49-1.356c2.583,0.079,5.456,1.066,7.818,2.051
			c1.907,0.797,4.154,1.275,6.174,1.736c2.312,0.522,4.597,0.334,6.777-0.618c1.412-0.614,2.501-1.696,3.443-2.886
			c0.847-1.074,1.522-2.633,2.759-3.309c2.249-1.227,4.726-2.245,7.254-3.018C91.66,57.645,92.04,57.434,92.405,57.197z"/>
		<path fill="#FFF8EA" d="M85.763,60.051c-0.164-1.848-0.82-3.574-2.093-4.721c-2.83-2.552-3.835,0.125-5.312,2.322
			c-1.389,2.057-2.997,2.877-4.884,2.941c-1.621,0.231-3.327-0.148-5.017-0.747c-0.545-0.193-1.104-0.421-1.666-0.659
			c-1.305-0.19-2.592-0.02-3.313,1.245c-0.805,1.417-0.771,3.207-0.295,4.848c0.58,0.213,1.146,0.437,1.68,0.657
			c1.907,0.797,4.154,1.275,6.174,1.736c2.312,0.522,4.597,0.334,6.777-0.618c1.412-0.614,2.501-1.696,3.443-2.886
			c0.847-1.074,1.522-2.633,2.759-3.309C84.579,60.555,85.165,60.297,85.763,60.051z"/>
		<path fill="#FFEFD0" d="M81.627,60.182c-1.308,1.883-2.731,3.646-4.814,4.514c-4.652,1.941-9.229-0.078-13.906-0.807
			c0.055,0.468,0.146,0.935,0.278,1.392c0.58,0.213,1.146,0.437,1.68,0.657c1.907,0.797,4.154,1.275,6.174,1.736
			c2.312,0.522,4.597,0.334,6.777-0.618c1.412-0.614,2.501-1.696,3.443-2.886c0.847-1.074,1.522-2.633,2.759-3.309
			c0.562-0.307,1.147-0.564,1.745-0.811c-0.07-0.766-0.23-1.505-0.479-2.199C84.025,58.58,82.784,59.326,81.627,60.182z"/>
		<path fill="#68432A" d="M75.373,63.782c0.046,0.062,0.096,0.118,0.16,0.172c0.735,0.594,1.916,0.432,2.703,0.001
			c0.307-0.168,0.545-0.444,0.813-0.663c-0.113,0.601-1.002,1.115-1.522,1.254c-0.375,0.1-0.751,0.125-1.126,0.088
			c-0.439-0.045-0.741-0.129-1.162,0.021c-0.416,0.143-0.784,0.409-1.201,0.542c-0.566,0.182-2.01,0.458-2.342-0.283
			c0.922,0.555,2.697,0.245,3.216-0.762c0.178-0.339,0.08-0.667,0.178-1.003C75.193,63.366,75.25,63.594,75.373,63.782z"/>
		<g>
			
				<ellipse transform="matrix(0.9877 -0.1567 0.1567 0.9877 -8.4752 12.3843)" fill="#68432A" cx="74.324" cy="59.956" rx="4.6" ry="3.692"/>
			<path fill="#512D19" d="M77.347,57.02c0.02,0.229,0.02,0.465-0.024,0.711c-0.378,2.108-2.64,3.511-4.729,3.353
				c-1.11-0.085-2.177-0.755-2.733-1.639c-0.103,0.402-0.146,0.813-0.079,1.231C70.1,62.688,72.392,64,74.9,63.602
				c2.511-0.4,4.286-2.354,3.967-4.367C78.721,58.315,78.15,57.551,77.347,57.02z"/>
			<path fill="#FFFFFF" d="M72.075,59.512c0.502-0.133,1.112-0.582,1.205-1.127c0.098-0.57-0.315-1.052-0.876-0.908
				c-0.513,0.133-1.124,0.713-1.378,1.159C70.538,59.477,71.358,59.704,72.075,59.512z"/>
		</g>
		<path opacity="0.33" fill="#FBAF33" d="M71.111,21.672c-0.92-0.15-1.843-0.244-2.679-0.357c-4.306-0.596-9.85-0.088-13.785,1.887
			c-1.284,0.643-3.742,2.601-3.336,4.352c0.316,1.372,2.73,1,3.851,1.693c1.782,1.104-0.113,3.141,1.33,4.457
			c1.138,1.037,2.762,1.253,3.878,2.51c0.995,1.119,2.445,2.48,3.202,3.725c0.695,1.144,0.06,1.529,0.074,2.652
			c0.014,1.113,0.696,1.768,1.334,2.616c0.574,0.763,0.704,0.687,0.702,1.593c0,0.781-0.484,0.935-0.035,1.727
			c0.461,0.813,1.281,0.929,1.936,1.477c0.647,0.541,0.752,1.158,0.979,1.92c0.204,0.668,0.122,1.748,0.429,2.293
			c0.875-0.287,1.552-1.011,2.497-1.177c1.019-0.181,2.4,0.396,3.069-0.534c-0.95-0.885,0.028-1.208,0.149-1.954
			c0.193-1.192-0.296-0.958-1.097-1.733c-1.274-1.235,0.623-2.133,0.492-3.675c-0.049-0.593-0.479-1.081-0.553-1.678
			c-0.104-0.813,0.229-1.665,0.187-2.495c-0.082-1.65-0.384-2.154-0.96-3.596c-0.834-2.085,0.764-2.822,1.919-3.992
			c1.282-1.301,0.059-2.879,0.574-4.377c0.513-1.491,2.065-2.032,1.378-3.828C75.731,22.783,73.421,22.047,71.111,21.672z"/>
		<path opacity="0.33" fill="#FBAF33" d="M70.854,34.458c-0.356-1.582-1.043-3.758-0.14-5.215c1.022-1.642,2.663-2.229,1.543-4.484
			c-0.623-1.252-1.512-1.499-2.762-1.854c-1.16-0.331-2.294-0.77-3.544-0.793c-3.011-0.06-6.247,0.045-8.939,1.532
			c-3.779,2.088,1.819,3.105,2.801,4.711c0.807,1.318-0.205,1.92,1.316,2.907c2.02,1.31,2.567,1.316,2.362,3.688
			c-0.104,1.197,0.023,1.823,0.79,2.824c0.717,0.938,2.454,1.653,2.931,2.652c0.642,1.344-0.599,3.069,0.048,4.519
			c0.351,0.781,1.555,1.087,1.804,1.854c0.328,1.01-0.622,1.216-0.77,2.125c-0.174,1.076,0.435,0.789,0.833,1.297
			c0.481,0.612,0.654,0.238,0.501,1.35c-0.093,0.673-0.508,1.066-0.377,1.843c0.458-0.048,3.923-0.422,4.067-0.669
			c0.35-0.609-0.798-0.849-0.903-1.299c-0.188-0.826,0.488-1.795,0.139-2.656c-0.213-0.532-0.728-0.469-0.905-0.827
			c-0.538-1.068-0.04-2.563-0.178-3.731c-0.164-1.35-0.817-2.51-1.053-3.835c-0.188-1.063,0.402-1.798,0.646-2.756
			C71.374,36.439,71.095,35.536,70.854,34.458z"/>
		<path fill="#FAA322" d="M66.642,56.217c1.34-1.441,3.55-2.398,5.473-2.787c1.834-0.366,3.975-0.421,5.778-0.029
			c0.311,0.067,0.648,0.197,0.962,0.256c-0.192-0.375-1.048-0.717-1.419-0.904c-1.995-0.993-4.208-1.34-6.383-0.725
			c-1.588,0.451-2.938,1.519-3.868,2.867c-0.311,0.451-0.407,0.941-0.615,1.402C66.592,56.272,66.617,56.245,66.642,56.217z"/>
		<path fill="#ED7C2F" d="M77.682,20.702c-0.26,0.284-0.324,0.713-0.471,0.984c1.028,0.364,2.851-0.178,3.419,0.801
			c-2.33,0.244,0.391,1.381,0.394,2.26c-1.718,0.235-2.602-0.689-3.958-1.473c-2.303-1.327-4.896-0.813-5.301-4.111
			c-0.252-2.053,0.828-4.454,3.02-4.869c-0.842,1.406-2.415,4.747-1.069,6.214c-0.069-0.876,0.316-1.65,1.055-2.091
			c-0.054,0.033,0.6,1.713,0.721,1.854C76.137,21.022,76.754,21.075,77.682,20.702z"/>
		<path fill="#ED7C2F" d="M48.754,27.817c1.213-1.974,4.086-2.867,2.524-5.598c-0.48-0.842-1.28-1.336-2.208-1.55
			c-0.445-0.102-2.788,0.327-2.885,0.245c0.487,0.434,3.038,0.81,2.442,2.065c-0.091,0.189-2.628,0.492-2.705,0.458
			c1.005,0.465,2.059,0.504,1.939,1.99c-0.128,1.591-1.6,0.656-2.636,0.283c-0.397,1.535,2.594,3.2-0.534,3.324
			c0.198-0.009,0.524,0.517,0.599,0.664c-0.52,0.352-1.063,0.673-1.498,1.178c0.321-0.039,0.724,0.121,0.901,0.128
			c-0.434,0.273-1.03,0.552-1.331,1.034c0.839-0.168,1.42,0.361,1.332,1.203C46.804,32.784,47.779,29.405,48.754,27.817z"/>
	</g>
	<path fill="#FFEBBE" d="M81.897,70.383c0.098,1.047,0.355,2.119,0.141,3.154c-0.217,1.066-0.776,2.197-1.429,0.36
		c0.042,1.099-0.252,2.687-1.224,3.331c-1.149-2.175-1.402,0.107-2.474,0.48c-1.391,0.484-2.105-1.296-2.79-2.078
		c-0.551,1.238-1.416,3.246-2.834,3.496c-0.551-1.141-1.19-3.806-2.309-4.198c-0.027,1.01-1.125,2.796-2.329,2.629
		c-1.791-0.248-2.1-4.604-4.569-5.104c-0.117,0.679,0.011,1.391,0.164,2.044c-1.328-1.614-3.326-2.569-4.98-3.774
		c-0.149,1.723,2.005,3.365,2.276,5.245c0.309,2.118-0.155,4.279-0.291,6.312c3.191-3.664,3.021,1.063,3.542,3.394
		c1.522-0.124,3.02-3.241,4.747-3.853c1.017,1.656,0.347,5.012,0.349,6.921c0.007,2.396-0.832,4.319-1.063,6.628
		c0.372-0.952,1.41-2.405,2.629-2.219c0.295,3.701-4.462,7.127-4.115,10.277c1.033-1.056,2.023-2.158,2.885-3.375
		c-0.079,0.816-0.155,1.668,0.717,1.737c0.658-1.661,1.603-3.333,2.484-4.763c-0.082,0.701,0.238,0.956,0.572,1.43
		c1.4-1.707,0.092-6.616,2.46-7.473c0.233,0.926,0.596,2.088,1.051,2.81c0.783-1.901,2.063-4.323,3.608-5.696
		c-0.005,0.001,0.95-0.154,1.289-0.449c0.648-0.568,1.074-2.063,1.298-2.867c0.638-2.289,0.675-5.49,0.149-7.827
		c0.727,0.67,1.259,1.509,2.033,2.063c0.129-1.826,0.337-3.801-0.048-5.609C83.56,72.1,82.651,71.268,81.897,70.383z"/>
</g>
</svg>
