<?xml version="1.0" encoding="utf-8"?>
<!-- Generator: Adobe Illustrator 15.0.0, SVG Export Plug-In . SVG Version: 6.00 Build 0)  -->
<!DOCTYPE svg PUBLIC "-//W3C//DTD SVG 1.1//EN" "http://www.w3.org/Graphics/SVG/1.1/DTD/svg11.dtd">
<svg version="1.1" id="Layer_1" xmlns="http://www.w3.org/2000/svg" xmlns:xlink="http://www.w3.org/1999/xlink" x="0px" y="0px"
	 width="174.058px" height="260.619px" viewBox="0 0 174.058 260.619" enable-background="new 0 0 174.058 260.619"
	 xml:space="preserve">
<g>
	<path fill="#5A280F" d="M42.55,17.568c0.102,2.055,0.104,3.932,0.145,4.567c0.226,3.42,1.525,11.55,6.753,8.613
		c1.528-0.858,2.71-2.305,4.397-3.039c2.171-0.948,3.358-0.127,1.942,1.922c-1.538,2.236-4.691,2.94-6.529,4.904
		c-2.863,3.067-1.14,6.702,0.831,9.705c2.249,3.431,4.253,6.669,4.491,10.944c0.084,1.558,0.039,3.664-2.155,3.177
		c-1.797-0.397-2.241-3.181-2.825-4.6C45.901,44.787,36.829,41.17,28.261,38.28c-2.239-0.754-4.49-1.473-6.714-2.277
		c-1.929-0.696-4.375-2.365-6.345-2.658c-2.396-0.353-4.688,2.307-7.126,2.005c-3.345-0.412-1.271-2.621,0.827-3.194
		c3.525-0.958,2.019-2-0.228-3.756c-1.427-1.118-2.366-1.511-3.505-3.136c-1.758-2.512-6.592-9.137-4.767-12.384
		c0.871-1.548,2.438-1.727,3.514-0.33c0.597,0.775,0.491,4.335,0.955,5.54c0.905,2.348,2.22,5.721,4.208,7.352
		c2.935,2.408,6.358,4.636,9.854,6.175c1.546,0.681,3.863,1.681,4.988-0.095c1.39-2.195-0.367-3.416-2.055-4.112
		c-0.805-0.333-8.768-3.244-6.839-4.651c1.035-0.756,4.178,1.472,5.32,1.59c4.777,0.495,0.859-7.066,0.365-8.87
		c-0.908-3.306-1.44-6.926-1.232-10.35c0.085-1.416,0.188-4.08,1.688-4.863c1.867-0.973,1.563,0.926,1.279,2.405
		c-0.259,1.366-0.684,3.439-0.409,4.862c0.815,4.234,3.087-3.282,5.949-2.487c-0.858,3.297-3.979,5.095-4.355,8.604
		c-0.306,2.885,1.148,6.649,2.074,9.318c1.001,2.882,2.132,5.879,3.396,8.68c0.6,1.323,1.436,2.52,2.461,3.521
		c2.385,2.324,6.449,3.756,9.353,5.313c1.721,0.921,2.794,2.066,3.71-0.324c0.932-2.434-0.804-5.507-1.792-7.653
		c-1.769-3.847-5.782-16.498-3.309-20.588C41.736,8.284,42.349,13.312,42.55,17.568z"/>
	<path fill="#B05B27" d="M128.492,133.473c3.293,1.236,6.59,14.008,12.768,5.355c2.061-2.47,3.298-15.242-4.119-11.533
		c-0.41-4.119-1.649-11.945-7-6.179c-1.648-2.058-4.121-2.882-6.182-2.058c2.061,4.527,4.119,9.887,0.413,13.18L128.492,133.473z"/>
	<path opacity="0.39" fill="#E6A65B" d="M141.259,138.829c2.061-2.47,3.298-15.242-4.119-11.533c-0.41-4.119-1.649-11.945-7-6.179
		c-1.206-1.505-3.689-3.376-6.182-2.058c3.486-0.064,4.691,2.359,5.681,3.65c0.095,0.126,0.186,0.258,0.275,0.391
		c0.056,0.031,0.111,0.064,0.165,0.098c1.584-1.522,4.407-0.803,5.098,1.424c0.483,1.557,0.67,3.139,1.031,4.718
		c0.726-0.021,1.44-0.099,2.169-0.192c1.221-0.154,2.802,1.051,2.977,2.271c0.418,2.916,0.132,5.701-0.764,8.271
		C140.81,139.43,141.032,139.148,141.259,138.829z"/>
	<path fill="#8F401F" d="M137.058,141.81c0.229-0.22,0.44-0.47,0.621-0.753c1.126-1.771,0.383-5.646-0.763-6.645
		c-0.369-0.325-1.472,0.317-1.884-0.051c-0.441-0.398-0.303-1.297-0.614-1.602c-0.864-0.854-0.157-2.473-2.438-1.418
		c-0.112-1.395-0.509-2.845-1.194-4.063c-0.125,0.02-0.612,0.008-0.745-0.004c-0.224,1.246-0.675,2.809-1.926,2.947
		c-0.763-1.963-1.332-4.061-2.185-6.013c0.819,3.016,0.792,5.938-1.56,8.028l4.12,1.234
		C130.947,134.395,133.407,141.722,137.058,141.81z"/>
	<g>
		<path fill="#B05B27" d="M40.381,67.18c4.851-0.215,13.419-5.259,13.058-10.729c0,0,0,0-0.076-0.31l-1.152-0.698
			c-5.77-0.869-28.12-14.671-25.64-0.566C27.626,60.502,34.295,67.691,40.381,67.18z"/>
		<path fill="#8F401F" d="M28.579,50.548c-3.02,5.479,3.399,11.937,7.741,14.388c2.076,1.134,12.079,1.095,8.683-2.87l1.323,0.754
			C43.681,55.081,29.356,48.712,28.579,50.548z"/>
		<path fill="#702E14" d="M28.787,50.328c1.929,0.233,3.872,1.361,5.383,2.398c2.342,1.612,6.651,3.588,7.24,6.647
			c0.167,0.88,0.033,1.599-0.367,2.221c0.301,1.167-0.257,2.26-1.17,2.912c0.066,0.246,0.117,0.491,0.14,0.743
			c0.016,0.102,0.019,0.2,0.021,0.301c3.384,0.072,7.283-0.808,4.969-3.507l1.323,0.756C43.806,55.425,30.693,49.301,28.787,50.328z
			"/>
	</g>
	<path fill="#B05B27" d="M131.282,154.326c-6.827-6.825-23.442,2.929-27.247,8.862c-2.272,13.199,9.906,23.198,14.235,36.271
		c3.514,10.615-3.614,32.482-10.039,41.014c-1.587,1.634-2.974,4.119-4.182,5.844c0,0-0.091,0.381,0.201,0.85
		c1.231-0.111,2.284,0.537,3.982,0.134c-0.179,0.762,0.405,1.704,0.137,2.841c14.393-1.435,13.494-18.113,15.793-29.617
		c1.229-6.943,4.45-13.816,5.771-21.138c1.584-8.46-4.631-11.445-2.574-20.2C128.969,172.336,138.113,161.151,131.282,154.326z"/>
	<path fill="#A05024" d="M127.36,179.186c1.609-6.85,10.753-18.035,3.922-24.86c-6.827-6.825-23.442,2.929-27.247,8.862
		c-1.096,6.355,1.169,11.965,4.285,17.533c0.58-0.117,1.225-0.033,1.886,0.366c13.235,8.028,14.03,23.702,11.153,37.587
		c-1.475,7.121-4.857,20.996-13.423,22.144c-1.464,1.629-2.755,3.884-3.887,5.499c0,0-0.091,0.381,0.201,0.85
		c1.231-0.111,2.284,0.537,3.982,0.134c-0.179,0.762,0.405,1.704,0.137,2.841c14.393-1.435,13.494-18.113,15.793-29.617
		c1.229-6.943,4.45-13.816,5.771-21.138C131.518,190.926,125.303,187.941,127.36,179.186z"/>
	<path fill="#8F401F" d="M131.282,154.384c-6.827-6.823-23.442,2.933-27.247,8.865c-0.713,4.138,0,7.958,1.441,11.659
		c3.108-0.271,6.224,0.234,8.893,2.101c1.46,1.013,2.655,2.333,3.613,3.817c0.13,0.104,0.262,0.209,0.388,0.317
		c3.288,2.84,5.434,6.877,6.477,11.071c1.803,7.26,1.119,14.506-0.151,21.79c-1.37,7.866-3.402,15.933-7.204,23.012
		c-1.572,2.935-3.496,5.974-6.082,8.136c-1.101,0.916-2.249,1.637-3.448,2.254c0.093-0.018,0.179-0.023,0.272-0.045
		c-0.179,0.76,0.405,1.701,0.137,2.842c14.393-1.438,13.494-18.111,15.793-29.621c1.229-6.94,4.45-13.813,5.771-21.134
		c1.584-8.459-4.631-11.447-2.574-20.2C128.969,172.397,138.113,161.213,131.282,154.384z"/>
	<path fill="#B05B27" d="M33.034,163.441c0,0,7.263,3.509,12.577,6.969c7.625,4.968,15.474,8.315,21.959,5.535
		c6.49-2.78-19.091-19.61-19.091-19.61S29.013,151.083,25,151.701c-4.017,0.618-7.415,4.075-7.415,8.216
		c0,4.142,1.269,5.498,1.854,8.777c0.492,2.754,1.236,13.283,0.311,18.227c-0.929,4.939,4.942,9.577,8.651,12.355l4.014,1.854
		c0,0,0.907,0,1.988-0.515c0.307-0.145-0.649-1.187-0.331-1.423c0.317-0.239,1.907,0.324,2.204-0.037
		c1.031-1.246,1.821-3.279,1.664-6.59c0,0-7.071-2.248-8.613-4.102c-1.546-1.854-2.781-13.877-3.33-19.143
		c-0.111-1.099,1.521-3.259,2.361-4.722C29.492,162.629,33.034,163.441,33.034,163.441z"/>
	<path fill="#A05024" d="M48.479,156.334c0,0-2.446-0.656-5.771-1.479c-0.299,3.356-4.523,5.453-7.575,4.623
		c-2.211-0.602-4.65-2.393-6.908-1.059c-1.716,1.015-3.187,2.334-4.835,3.441c-1.846,1.242-3.642,1.849-5.448,1.424
		c0.417,1.873,1.105,3.219,1.496,5.408c0.492,2.754,1.236,13.283,0.311,18.227c-0.929,4.939,4.942,9.577,8.651,12.355l4.014,1.854
		c0,0,0.907,0,1.988-0.515c0.307-0.145-0.649-1.187-0.331-1.423c0.317-0.239,1.907,0.324,2.204-0.037
		c1.031-1.246,1.821-3.279,1.664-6.59c0,0-7.071-2.248-8.613-4.102c-1.546-1.854-2.781-13.877-3.33-19.143
		c-0.111-1.099,1.521-3.259,2.361-4.722c1.135-1.97,4.677-1.158,4.677-1.158s7.263,3.509,12.577,6.969
		c7.625,4.968,15.474,8.315,21.959,5.535C74.06,173.165,48.479,156.334,48.479,156.334z"/>
	<path fill="#8F401F" d="M31.216,159.594c-2.246-0.299-4.426,1.625-5.502,3.521c-2.889,5.102-0.146,16.43-0.642,23.041
		c0.177,0.919,0.357,1.836,0.545,2.752c1.192,1.957,2.856,3.574,4.923,4.959c2.16,1.451,4.381,2.807,6.466,4.256
		c0.641-1.248,1.051-3.003,0.933-5.471c0,0-7.071-2.246-8.613-4.102c-1.546-1.855-2.781-13.879-3.33-19.143
		c-0.111-1.098,1.523-3.26,2.361-4.722c1.135-1.972,4.677-1.156,4.677-1.156s7.263,3.507,12.577,6.966
		c7.625,4.969,15.474,8.317,21.962,5.538c6.487-2.78-19.094-19.613-19.094-19.613s-1.992-0.534-4.822-1.243
		c1.134,3.178,1.468,4.449-0.551,6.414C40.045,164.564,34.042,159.975,31.216,159.594z"/>
	<path fill="#CE6D28" d="M84.605,84.281c0.311-5.137-22.578,10.121-22.578,10.121c0-2.65-13.495,24.716-15.883,38.396
		c-4.668,26.73,2.176,35.043,13.382,41.582c12.431,7.247,52.931-0.488,64.604-5.627c9.337-4.107,14.308-3.287,14.308-3.287
		s0.167-4.65,2.038-10.719c1.865-6.073-2.337-23.353-16.346-24.285c-14.011-0.931-16.813,1.408-25.685,1.291
		c-6.654-0.088-15.438,0.066-20.044-5.457c-2.743-3.289-1.96-11.787,0-17.881C82.91,94.402,84.605,84.281,84.605,84.281z"/>
	<path opacity="0.61" fill="#8F401F" d="M48.527,129.568c3.175-6.989,7.158-13.68,12.295-19.413
		c4.666-5.208,11.268-8.26,15.796-13.434c1.769-2.022,4.799-8.787,2.398-11.178c-2.609-2.597-9.295,4.004-11.646,5.452
		c-1.798,1.109-3.585,2.235-5.344,3.407c0-2.65-13.495,24.716-15.883,38.396c-0.297,1.689-0.528,3.281-0.733,4.828
		C46.308,134.892,47.333,132.198,48.527,129.568z"/>
	<path fill="#E6A65B" d="M58.289,119.875c1.163-5.6,2.366-11.353,2.411-17.095c0.009-1.045,0.014-2.197-0.153-3.171
		c-0.13-0.767-0.342-1.634-0.572-2.044c-0.047-0.079-0.077-0.138-0.103-0.187c-3.911,7.233-11.937,25.169-13.728,35.419
		c-4.668,26.73,2.174,35.043,13.382,41.582c10.407,6.068,40.485,1.633,56.854-2.988c-0.318-0.669-0.593-1.361-0.832-2.07
		c-0.473-1.063-0.895-2.146-1.286-3.197c-0.535-1.435-1.251-3.262-1.363-5.001c-1.458,0.256-2.904,0.542-4.323,0.849
		c-7.05,1.52-13.808,3.899-20.782,5.672c-6.828,1.738-13.828,2.35-20.478-0.418c-5.446-2.269-9.916-6.268-11.732-11.991
		c-2.137-6.729-1.41-14.613-0.267-21.48C56.095,129.092,57.328,124.501,58.289,119.875z"/>
	<path fill="#D39147" d="M45.78,141.235c2.2-11.123,7.107-20.842,14.069-29.48c0.486-2.978,0.826-5.979,0.851-8.975
		c0.009-1.045,0.014-2.197-0.153-3.171c-0.13-0.767-0.342-1.634-0.572-2.044c-0.047-0.079-0.077-0.138-0.103-0.187
		c-3.911,7.233-11.937,25.169-13.728,35.419c-1.056,6.041-1.519,11.135-1.478,15.484C44.935,145.849,45.341,143.466,45.78,141.235z"
		/>
	<path fill="#D39147" d="M124.13,168.752c9.337-4.107,14.308-3.287,14.308-3.287s0-0.059,0.004-0.151
		c-1.07-0.235-2.149-0.454-3.231-0.636c-7.008-1.169-14.225-0.622-21.106,1.064c-13.424,3.294-26.067,9.952-40.28,9.107
		c-3.252-0.195-6.28-0.895-9.085-2.021c-0.833,0.523-1.91,0.645-3.027,0.018c-7-3.938-14.978-11.705-16.285-20.244
		c-0.222-0.451-0.444-0.91-0.655-1.373c0.862,12.795,6.676,18.436,14.755,23.15C71.957,181.626,112.457,173.891,124.13,168.752z"/>
	<path opacity="0.39" fill="#E6A65B" d="M82.322,94.721c-0.982,1.861-1.994,3.713-2.857,5.609
		c-2.991,6.56-6.222,13.808-6.258,21.159c-0.008,1.647,0.158,3.325,0.534,4.942c3.685,5.416,9.16,8.061,15.304,9.188
		c2.608-0.201,5.221-0.385,7.834-0.567c4.658-0.329,9.377-0.575,13.99-1.329c3.355-0.551,6.701-1.174,10.093-1.42
		c3.104-0.451,6.248-0.443,9.296,0.406c0.687,0.191,1.375,0.421,2.053,0.684c-2.236-1.621-4.942-2.715-8.18-2.932
		c-14.011-0.931-16.813,1.408-25.685,1.291c-6.654-0.088-15.438,0.066-20.044-5.457c-2.743-3.289-1.96-11.787,0-17.881
		C80.08,103.208,81.365,98.533,82.322,94.721z"/>
	<path fill="#CE6D28" d="M77.56,181.909c1.914-16.305,0.313-21.203-2.205-22.896c-3.159-2.121-15.71-7.682-17.519-0.338
		c-1.092,4.44-2.702,10.154,2.763,26.156c3.822,11.19,5.493,18.558,4.577,23.697c-0.918,5.136-1.721,9.658,0.345,17.276
		c1.488,5.495-1.894,20.546-3.87,24.751c-1.979,4.202-3.873,8.404-3.873,8.404s0.684,0.501,1.822,0.953
		c0.294,0.114,1.104-1.362,1.454-1.261c0.276,0.08,0.076,1.739,0.388,1.798c1.91,0.367,4.382,0.248,6.944-1.49
		c0,0,1.662-4.67,3.123-8.404c1.463-3.735,0-6.07,0-13.544c0-14.363,3.209-15.628,3.209-18.896c0-3.271-2.173-4.668-1.17-9.335
		C74.552,204.109,76.79,188.465,77.56,181.909z"/>
	<path opacity="0.49" fill="#BD5D28" d="M77.56,181.909c1.588-13.539,0.751-19.201-1.017-21.707
		c1.774,12.938-7.915,33.426-7.915,43.494c0,4.162,2.683,9.926-1.603,12.434c-1.034,0.607-1.968,0.736-2.79,0.553
		c-0.015,2.613,0.309,5.516,1.285,9.122c1.488,5.495-1.894,20.546-3.87,24.751c-1.979,4.202-3.873,8.404-3.873,8.404
		s0.684,0.501,1.822,0.953c0.294,0.114,1.104-1.362,1.454-1.261c0.276,0.08,0.076,1.739,0.388,1.798
		c1.91,0.367,4.382,0.248,6.944-1.49c0,0,1.662-4.67,3.123-8.404c1.463-3.735,0-6.07,0-13.544c0-14.363,3.209-15.628,3.209-18.896
		c0-3.271-2.173-4.668-1.17-9.335C74.552,204.109,76.79,188.465,77.56,181.909z"/>
	<path fill="#B05B27" d="M68.386,258.959c0,0,1.662-4.67,3.123-8.404c1.463-3.735,0-6.07,0-13.544
		c0-14.363,3.209-15.628,3.209-18.896c0-3.271-2.173-4.668-1.17-9.335c1.004-4.672,3.241-20.315,4.012-26.872
		c0.399-3.397,0.641-6.287,0.758-8.77c-0.719,2.786-1.566,5.545-2.422,8.276c-0.281,0.894-0.573,1.782-0.86,2.672
		c-0.458,2.705-1.042,5.393-1.704,8.063c-0.367,5.185-1.63,10.31-2.202,15.495c-0.02,2.477,0.034,4.951,0.063,7.469
		c0.284,1.313,0.429,2.661,0.464,4.068c0.025,1.008-0.348,1.747-0.916,2.242c-0.071,0.253-0.144,0.507-0.21,0.757
		c-0.538,2.868-1.207,5.712-1.257,8.647c-0.076,4.715,0.625,9.4,0.534,14.113c-0.103,5.438-1.477,10.976-4.477,15.41
		C66.31,260.105,67.344,259.668,68.386,258.959z"/>
	<path fill="#CE6D28" d="M163.866,249.292c1.093-0.863,2.485-0.902,3.843-2.335c0.301,0.827,1.431,1.356,1.884,2.601
		c10.164-10.376,1.543-25.434-3.392-37.717c-3.127-7.31-1.859-16.375-4.26-21.053c-3.702-7.201-15.019-9.085-18.482-18.617
		c-2.715-7.459,1.303-29.584-8.499-31.379c-4.656-0.852-15.872,0.045-19.539,4.938c-4.772,6.365-2.521,15.394-1.329,22.18
		l-0.15-0.418c5.313,15.904,21.326,19.936,33.685,28.111c10.514,6.969,16.657,32.893,15.862,44.913
		c-0.492,2.524-0.262,5.726-0.339,8.101C163.149,248.616,163.3,249.03,163.866,249.292z"/>
	<path opacity="0.39" fill="#E6A65B" d="M121.075,172.25c-0.768-1.285-1.494-2.611-2.165-3.982
		c-2.945-6.041-5.193-13.551-4.693-20.561c-3.105,6.145-1.21,14.037-0.136,20.142c3.239,9.294,10.175,14.487,17.851,18.88
		C127.49,182.64,123.485,178.241,121.075,172.25z"/>
	<path opacity="0.49" fill="#BD5D28" d="M166.201,211.84c-3.127-7.31-1.859-16.375-4.26-21.053
		c-3.702-7.201-15.019-9.085-18.482-18.617c-1.927-5.293-0.47-17.958-2.958-25.52c-0.503,6.296-2.702,12.27-3.101,19.092
		c-0.395,6.702,0.535,14.9,5.621,19.891c3.481,3.414,7.557,6.102,10.649,9.902c4.774,5.865,6.921,13.529,6.181,20.816
		c2.712,8.801,4.029,18.195,3.637,24.163c-0.492,2.524-0.262,5.726-0.339,8.101c0,0,0.151,0.414,0.717,0.676
		c1.093-0.863,2.485-0.902,3.843-2.335c0.301,0.827,1.431,1.356,1.884,2.601C179.756,239.181,171.135,224.124,166.201,211.84z"/>
	<path opacity="0.49" fill="#BD5D28" d="M166.201,211.84c-3.127-7.31-1.859-16.375-4.26-21.053
		c-3.702-7.201-15.019-9.085-18.482-18.617c-1.126-3.09-1.096-8.699-1.37-14.336c-0.003,0.047-0.005,0.095-0.008,0.141
		c-0.275,4.521-0.765,9.021-1.074,13.528c-0.204,2.963,6.11,11.291,4.454,14.03c-1.497,2.469-2.621,1.637-7.019,1.82
		c-1.058,0.045-8.92-2.988-10.929-3.338c6.36,4.228,13.721,7.357,20.112,11.586c10.514,6.969,16.657,32.893,15.862,44.913
		c-0.492,2.524-0.262,5.726-0.339,8.101c0,0,0.151,0.414,0.717,0.676c1.093-0.863,2.485-0.902,3.843-2.335
		c0.301,0.827,1.431,1.356,1.884,2.601C179.756,239.181,171.135,224.124,166.201,211.84z"/>
	<path fill="#B05B27" d="M166.201,211.84c-3.127-7.31-1.859-16.375-4.26-21.053c-3.702-7.201-15.019-9.085-18.482-18.617
		c-0.526-1.448-0.799-3.334-0.958-5.484c-0.064,0.869-0.114,1.738-0.15,2.61c0.206,1.127,0.401,2.251,0.533,3.386
		c0.541,2.067,1.29,4.077,2.177,6.042c0.831,1.188,1.799,2.284,2.886,3.259c3.563,3.21,8.757,6.003,11.158,10.286
		c1.704,3.038,1.68,7.304,2.016,10.687c0.417,4.238,1.701,7.894,2.556,11.961c0.842,3.992,2.343,7.996,3.373,11.959
		c1.016,3.906,3.135,7.537,3.387,11.701c0.228,3.75-0.831,7.104-0.833,10.684c5.314-3.092,5.134-12.188,4.062-17.342
		C172.211,224.956,168.982,218.344,166.201,211.84z"/>
	<path fill="#CE6D28" d="M40.978,101.223c0,0,0.594,4.553,4.663,4.918c7.423,0.664,9.124-3.102,14.679-4.49
		c5.897-1.387,11.8-2.774,17.005-6.594c6.246-4.168,7.974-11.036,7.627-17.978c-0.345-9.026-3.928-17.089-9.015-24.016l0.346,0.692
		c-3.287-3.466-9.4-4.448-12.84-5.207c-2.775-0.698-6.212-2.378-10.379-0.751c1.041,0,4.478,2.139,5.171,2.139
		c-3.123,0.694-5.171-0.629-8.468,0.125c1.736-0.346,2.224,3.347,3.61,3.001c-7.983,3.816-13.19,6.939-12.493,16.659
		c0.346,3.123,1.388,6.594,1.039,10.063c-0.347,3.471-2.452,8.764-0.368,11.888C37.768,93.004,38.173,99.749,40.978,101.223z"/>
	<path opacity="0.49" fill="#BD5D28" d="M84.952,77.079c-0.345-9.026-3.928-17.089-9.015-24.016l0.346,0.692
		c-3.287-3.466-9.4-4.448-12.84-5.207c-2.775-0.698-6.212-2.378-10.379-0.751c1.041,0,4.478,2.139,5.171,2.139
		c-3.123,0.694-5.171-0.629-8.468,0.125c1.736-0.346,2.224,3.347,3.61,3.001c-0.835,0.4-1.638,0.791-2.41,1.186
		c9.886-1.8,22.715,5.484,24.804,15.914c1.461,7.292,1.253,16.619-5.894,21.48c-4.892,3.33-8.419,4.559-14.079,5.1
		c-5.262,0.502-9.823,3.543-13.666,7.352c0.695,0.988,1.791,1.891,3.509,2.047c7.423,0.664,9.124-3.102,14.679-4.49
		c5.897-1.387,11.8-2.774,17.005-6.594C83.571,90.889,85.298,84.021,84.952,77.079z"/>
	<path fill="#BD5D28" d="M78.948,93.711c-10.389,4.092-26.027,1.715-32.899,12.451c7.07,0.487,8.822-3.15,14.271-4.512
		c5.897-1.387,11.8-2.774,17.005-6.594c0.678-0.453,1.295-0.942,1.868-1.457C79.109,93.637,79.031,93.678,78.948,93.711z"/>
	<path fill="#E6A65B" d="M40.978,101.223c0,0.001,0.596,4.553,4.663,4.918c6.188,0.553,13.517-3.189,10.029-10.559
		c-1.521-3.211-5.151-5.021-8.59-4.834c-3.256,0.172-6.504-0.117-7.896,3.416c-0.513,1.299-0.521,2.899-0.145,4.231
		C39.289,99.272,40.911,100.704,40.978,101.223z"/>
	<path fill="#D18735" d="M48.275,104.184c-5.058,1.05-7.015-2.203-7.153-2.291c0.342,1.273,1.425,3.971,4.52,4.248
		c4.934,0.439,10.573-1.856,10.897-6.534C54.814,102.363,51.163,103.584,48.275,104.184z"/>
	<path fill="#E47B33" d="M40.978,89.885l0.373-0.316c-0.003-0.004-0.008-0.008-0.012-0.012C41.218,89.667,41.1,89.774,40.978,89.885
		z"/>
	<path fill="#E47B33" d="M41.339,89.557c0.11-0.102,0.224-0.201,0.333-0.305C41.213,89.294,41.166,89.415,41.339,89.557z"/>
	<path fill="#E47B33" d="M41.672,89.252c-0.109,0.104-0.223,0.203-0.333,0.305c0.004,0.004,0.009,0.008,0.012,0.012l0.379-0.326
		C41.708,89.248,41.694,89.25,41.672,89.252z"/>
	<path fill="#D18735" d="M51.876,101.036c1.545-0.619,4.223-2.881,4.014-4.732c-0.205-2.574-3.806,0.821-5.045,1.336
		c-1.44,0.617-3.191,1.237-4.532,0.41c-0.819-0.514-1.954-1.646-2.368,0c-0.41,1.444,1.364,2.889,2.496,3.406
		C48.087,102.277,50.127,101.862,51.876,101.036z"/>
	<path fill="#E47B33" d="M42.299,97.02c0.058,0.014,0.11,0.033,0.159,0.05c0.016-0.05,0.039-0.096,0.046-0.152L42.299,97.02z"/>
	<path fill="#D18735" d="M42.458,97.07c-0.295,1.326-1.772,1.872-3.452,1.177C41.73,105.196,44.628,97.901,42.458,97.07z"/>
	<g>
		<path fill="#0E0E0E" d="M56.154,96.385c0.014-0.27-0.506-0.199-0.517,0.035c-0.267,5.666-11.514,7.847-11.741,0.992
			c-0.006-0.27-0.525-0.193-0.516,0.037C43.627,104.856,55.867,102.515,56.154,96.385z"/>
	</g>
	<g>
		<path fill="#0E0E0E" d="M43.895,98.19c0.001-0.211-0.509-0.103-0.512,0.062c-0.021,1.063-0.4,2.773-1.729,2.827
			c-0.184,0.01-0.539,0.303-0.196,0.289C43.141,101.297,43.867,99.701,43.895,98.19z"/>
	</g>
	<path opacity="0.42" fill="#E47B33" d="M69.384,63.655c-1.748-4.553-7.23-7.236-11.887-7.306c-3.345-0.048-8.715,0.833-11.22,3.247
		c-1.658,1.603-4.122,5.927-3.458,8.142c0.706,2.356,4.027,2.505,5.021,5.005c0.914,2.296,0.918,5.183,0.303,7.553
		c-0.605,2.346-2.772,4.542-4.159,6.503c-0.611,0.863-2.982,2.366-2.312,3.399c0.218,0.335,4.147,1.035,4.583,0.997
		c3.483-0.294,3.537-4.555,4-7.072c0.728-3.936,3.387-7.336,6.348-9.833c3.447-2.909,7.854-3.598,11.336-6.307
		C69.793,66.54,70.414,66.335,69.384,63.655z"/>
	<path fill="#5A280F" d="M89.755,20.967c-0.33-2.598-0.792-5.324-1.384-5.396c-3.919-0.489-0.146,11.759-1.751,13.646
		c-1.722,2.03-5.162,2.691-7.037,0.723c-1.207-1.271-1.912-3.001-3.308-4.199c-1.798-1.544-3.173-1.108-2.424,1.271
		c0.813,2.586,3.619,4.188,4.799,6.604c1.84,3.768-0.88,6.74-3.644,9.033c-3.16,2.618-6.027,5.124-7.508,9.139
		c-0.542,1.467-1.116,3.491,1.124,3.672c1.834,0.145,3.076-2.383,4.053-3.566c6.171-7.494,15.909-8.284,24.944-8.529
		c2.362-0.063,4.727-0.091,7.086-0.206c6.009-0.292,13.924-1.646,18.811-5.454c2.692-2.097,5.047-4.714,7.046-7.47
		c1.078-1.488,4.082-6.352,3.182-8.233c-1.331-2.782-3.396,3.055-4.086,4.113c-2.418,3.711-3.3-2.133-5-3.903
		c-2.292-2.387-2.681-0.606-1.444,1.652c1.482,2.714,2.167,4.697,1.097,7.643c-0.849,2.337-2.22,4.25-4.582,5.222
		c-3.513,1.438-7.441,2.562-11.236,3.008c-1.677,0.194-4.184,0.47-4.737-1.556c-0.685-2.509,1.354-3.159,3.171-3.329
		c0.866-0.083,9.336-0.524,7.902-2.437c-0.766-1.026-4.429,0.179-5.553-0.043c-4.338-0.858,0.434-5.819,1.438-7.495
		c1.02-1.706,1.406-3.006,2.93-4.292c1.19-1.007,4.489-1.223,4.898-3.025c0.895-3.94-4.853-0.217-5.848,0.672
		c-1.5-0.824-1.249-9.483-3.51-8.091c-1.814,1.128-0.357,6.833-0.238,8.505c0.328,4.597-1.668,7.116-4.387,10.829
		c-1.802,2.461-3.764,4.994-5.796,7.3c-0.962,1.09-2.113,1.985-3.387,2.643c-2.961,1.521-7.267,1.699-10.502,2.332
		c-1.913,0.376-3.277,1.152-3.447-1.404c-0.176-2.597,2.386-5.027,3.959-6.788c1.858-2.08,2.693-4.102,5.219-5.401
		c1.945-0.998,4.624-0.645,5.473-3.169c1.774-5.281-4.315-0.483-5.749,0.694C90.253,25.745,90.062,23.41,89.755,20.967z"/>
	<path fill="#BB692F" d="M112.77,158.006c0-0.17,0.011-0.367,0.023-0.582c-0.014-0.525-0.023-1.051-0.023-1.58V158.006z"/>
	<path fill="#E6A65B" d="M116.414,169.665c-1.4-3.238-3.384-9.32-3.926-11.956c0.27,7.95,2.209,14.628,8.201,20.785
		c0.746,0.749,2.847,2.43,4.183,3.667C123.525,180.159,117.814,172.903,116.414,169.665z"/>
	<path fill="#381A0E" d="M163.866,249.292c1.093-0.863,2.485-0.902,3.843-2.335c0.301,0.827,1.431,1.356,1.884,2.601
		c2.566-2.618,3.93-5.536,4.466-8.632c-1.755,0.502-3.575,0.771-5.406,0.784c-1.738,0.012-3.563-0.068-5.28-0.441
		c-0.328,2.388-0.153,5.202-0.223,7.348C163.149,248.616,163.3,249.03,163.866,249.292z"/>
	<path fill="#381A0E" d="M118.416,244.276c-4.266,0.1-8.528-0.72-11.013-2.85c-1.246,1.549-2.36,3.475-3.354,4.891
		c0,0-0.091,0.381,0.201,0.85c1.231-0.111,2.284,0.537,3.982,0.134c-0.177,0.762,0.407,1.704,0.137,2.841
		C113.221,249.659,116.33,247.44,118.416,244.276z"/>
	<path fill="#381A0E" d="M61.054,258.652c0.276,0.08,0.076,1.739,0.388,1.798c1.91,0.367,4.382,0.248,6.944-1.49
		c0,0,0.909-2.554,1.974-5.393c-2.743,0.512-5.627,0.377-7.964-0.71c-0.543-0.146-1.068-0.325-1.571-0.539
		c-1.647,3.537-3.047,6.642-3.047,6.642s0.684,0.501,1.822,0.953C59.894,260.027,60.705,258.55,61.054,258.652z"/>
	<path fill="#381A0E" d="M36.275,199.155c1.031-1.246,1.821-3.279,1.664-6.59c0,0-2.126-0.678-4.301-1.592
		c-1.038,1.891-2.547,3.492-4.657,4.629c-0.871,0.466-1.772,0.862-2.686,1.219c-0.223,0.102-0.443,0.188-0.671,0.27
		c0.968,0.813,1.927,1.55,2.775,2.186l4.014,1.854c0,0,0.907,0,1.988-0.515c0.307-0.145-0.649-1.187-0.331-1.423
		C34.388,198.953,35.978,199.516,36.275,199.155z"/>
	<path fill="#3D4243" d="M27.254,197.1c0.527,1.015,1.948,1.585,2.883,2.152c0.77,0.447,1.543,1.015,2.314,1.34l0.284-0.123
		c0.648,0.162,0.486-0.405,0.206-0.729c-0.33-0.488-0.979-0.732-1.425-1.056c-0.489-0.368-1.097-0.733-1.219-1.343
		c-0.081-0.527,0.326-1.094,0.284-1.623C29.445,196.207,28.43,196.776,27.254,197.1z"/>
	<path fill="#505455" d="M62.07,259.674c0.62-2.008,1.082-4.174,3.091-4.946c-2.78-0.463-3.708-1.231-3.708-1.231
		c-0.035,0.769-2.318,3.706-2.626,4.324l-0.156,0.46c0.309,0.618,2.475-2.626,3.094-3.088
		C62.226,256.581,61.609,258.125,62.07,259.674z"/>
	<path fill="#3D4243" d="M104.704,246.389l0.306-0.155c0.467-0.31,3.555-1.393,4.945-2.319
		C106.402,240.057,106.241,244.403,104.704,246.389z"/>
	<path fill="#505455" d="M168.652,242.372c-1.235,0.155-3.235,0.461-4.471,0c0,1.699-0.34,3.709-0.028,5.098
		C164.457,245.924,167.417,243.915,168.652,242.372z"/>
	<g>
		<path fill="#CE6D28" d="M88.413,64.261c9.452-0.813,20.327-10.658,19.311-13.622c-0.422-1.223-2.396-1.986-3.45-2.447
			c-2.36-1.037-4.901-1.687-7.448-2.047c-3.777-0.538-7.716-0.418-11.37,0.739c-1.396,0.443-7.246,3.026-9.457,6.258
			c-0.646,0.942-0.903,2.129-1.103,3.25c-0.37,2.112-0.38,4.997,1.383,6.542C78.855,65.064,85.036,64.55,88.413,64.261z"/>
		<path fill="#B05B27" d="M86.284,63.966c3.341-0.585,6.327-2.202,9.538-3.134c0.559-0.296,1.118-0.588,1.674-0.88
			c0.881-0.659,1.764-1.309,2.656-1.952c2.031-1.785,3.852-3.816,5.393-6.035c-0.96-0.542-1.986-0.986-3.054-1.346
			c-4.209-0.832-8.496-1.039-13.017-0.034c-6.571,1.459-10.43,5.441-14.343,10.203c0.239,0.913,0.619,1.677,1.146,2.146
			c1.356,1.122,3.726,1.507,6.146,1.582C83.71,64.358,84.997,64.189,86.284,63.966z"/>
		<path fill="#8F401F" d="M80.16,57.399c0.223-0.146,0.452-0.271,0.676-0.411c2.686-4.534,8.929-5.543,14.052-5.557
			c1.34-0.004,2.787,0.038,4.276,0.157c1.743-0.14,3.493-0.198,5.234-0.21c-0.616-0.284-1.255-0.54-1.907-0.759
			c-4.209-0.832-8.496-1.039-13.017-0.034c-6.571,1.459-10.43,5.441-14.343,10.203c0.239,0.913,0.619,1.677,1.145,2.146
			c0.997,0.826,2.54,1.248,4.245,1.444c-1.551-0.473-2.975-2.13-2.063-3.842c0.171-0.325,0.369-0.603,0.579-0.862
			C78.93,58.847,79.226,58.003,80.16,57.399z"/>
		<path fill="#E47B33" d="M78.513,55.044c0.601-0.625,1.302-1.151,1.986-1.711c2.034-1.655,4.289-3.417,6.896-4.032
			c5.529-1.582,13.108-1.101,18.313,1.375c-3.481-4.057-13.916-4.813-18.463-3.487c-2.473,0.62-4.841,1.776-6.99,3.129
			c-1.697,1.063-3.446,2.602-4.073,4.588c-0.138,0.441-0.394,0.939-0.272,1.421c0.304,1.232,1.554,0.09,1.92-0.449
			C78.035,55.577,78.266,55.304,78.513,55.044z"/>
	</g>
	<path fill="#E6A65B" d="M66.189,70.119c-4.996,0.598-7.683,4.376-9.222,8.854c-0.417,1.215-3.234,5.765-1.422,6.567
		c0.598,0.268,2.666-0.845,3.361-1.001c1.275-0.281,2.583-0.38,3.889-0.38c2.952-0.001,5.059-0.76,7.412-2.587
		c2.146-1.669,3.9-3.839,4.653-6.48C75.97,71.203,68.859,69.797,66.189,70.119z"/>
	<path fill="#D18735" d="M66.232,71.634c-2.043-0.118-4.353,1.431-4.834,3.378c-1.08,4.396,4.354,6.945,7.27,3.755
		c1.596-1.747,1.304-4.254-0.182-6.025C67.882,72.025,67.081,71.685,66.232,71.634z"/>
	<path fill="#E6A65B" d="M47.496,80.631c0.539-2.723,0.619-6.271-1.264-8.462c-1.389-1.617-3.328-2.831-5.12-3.938
		c-0.105-0.064-0.187-0.101-0.286-0.156c0,0.528,0.019,1.073,0.059,1.647c0.346,3.123,1.388,6.594,1.039,10.063
		c-0.038,0.369-0.097,0.763-0.166,1.172c0.594,0.692,1.198,1.409,1.768,2.224C45.689,86.292,47.006,83.114,47.496,80.631z"/>
	<path fill="#D18735" d="M45.99,78.389c0.059-0.053,0.112-0.112,0.169-0.171c1.009-1.164,1.156-3.008,0.519-4.38
		c-0.363-0.776-0.876-1.679-1.628-2.14c-0.932-0.579-2.264-0.779-2.988,0.24c-0.806,1.136-0.331,3.179-0.063,4.43
		C42.4,78.252,44.261,80.07,45.99,78.389z"/>
	<g>
		<ellipse fill="#010101" cx="65.138" cy="77.079" rx="3.111" ry="3.217"/>
		<circle fill="#FFFFFF" cx="66.011" cy="76.206" r="0.871"/>
		<path fill="#010101" d="M64.52,74.051H64.2c1.283,0.211,2.71,0,3.352,1.39c0.32-0.108,1.144-0.211,1.464-0.427
			c-0.429,0-0.965-0.32-1.393-0.429c0.319-0.107,0.644-0.213,0.964-0.322c-0.75,0-1.499,0-2.138-0.104
			c0.209-0.217,0.428-0.533,0.639-0.751C66.658,73.941,65.483,74.158,64.52,74.051z"/>
	</g>
	<g>
		<path fill="#010101" d="M46.436,76.217c0.071-1.777-0.812-3.254-1.972-3.3c-1.161-0.047-2.159,1.352-2.232,3.126
			c-0.071,1.78,0.81,3.255,1.971,3.302C45.363,79.392,46.364,77.993,46.436,76.217z"/>
		<path fill="#FFFFFF" d="M45.195,76.166c0.315-0.051,0.51-0.476,0.434-0.951c-0.076-0.476-0.394-0.823-0.708-0.772
			c-0.309,0.048-0.504,0.476-0.428,0.95C44.565,75.869,44.882,76.217,45.195,76.166z"/>
		<path fill="#010101" d="M42.669,74.427c0.475-1.393,1.043-1.156,1.999-1.37c-0.718,0.109-1.125-0.134-1.445-0.667
			c0.007,0.527,0.32,0.534,0.478,0.753c-0.478,0.104-1.031,0.104-1.588,0.104c0.236,0.11,0.477,0.215,0.715,0.322
			c-0.319,0.108-0.715,0.428-1.036,0.428C42.034,74.212,42.432,74.317,42.669,74.427z"/>
	</g>
	<path opacity="0.17" fill="#E6A65B" d="M49.167,74.079c0,3.412-0.408,8.042-1.705,11.146c-0.532,1.279-3.188,3.401-2.449,4.984
		c1.115,2.396,2.482-0.354,2.909-1.507c1.339-3.595,1.779-7.469,3.112-11.146c1.696-4.688,8.292-5.871,9.524-10.357
		c1.375-4.995-4.656-7.079-8.562-6.498c-2.425,0.362-4.985,0.524-5.319,3.355C46.252,67.658,49.167,70.533,49.167,74.079z"/>
	<g>
		<path fill="#1F110D" d="M50.074,90.85c-0.645-2.783-9.479-2.766-10.658-0.627c-1.391,2.463,1.563,8.023,3.81,8.011
			C45.154,98.553,50.5,92.777,50.074,90.85z"/>
		<path fill="#252B2D" d="M43.881,94.16c1.374-0.519,2.526-1.424,3.441-2.565c0.026-0.031,0.063-0.082,0.11-0.148
			c0.377-0.934,0.518-1.877-0.154-2.207c-0.317-0.158-0.647-0.299-0.979-0.437c-2.782-0.37-6.186,0.153-6.885,1.421
			c-0.585,1.037-0.397,2.62,0.182,4.11c0.145,0.06,0.295,0.109,0.459,0.142C41.307,94.711,42.686,94.612,43.881,94.16z"/>
		<path fill="#FFFFFF" d="M42.703,91.638c1.197-0.145,2.123-0.646,2.067-1.124c-0.056-0.483-1.075-0.757-2.272-0.617
			c-1.195,0.143-2.121,0.646-2.063,1.127C40.49,91.504,41.506,91.778,42.703,91.638z"/>
	</g>
	<path opacity="0.41" fill="#E6A65B" d="M89.151,141.59c-0.019-0.089-0.043-0.178-0.079-0.268c-0.711-1.813-2.999-0.64-2.844,1.005
		C86.466,144.83,89.514,143.456,89.151,141.59z"/>
	<path opacity="0.54" fill="#E6A65B" d="M116.872,140.206c-0.018-0.09-0.045-0.18-0.08-0.27c-0.712-1.813-2.998-0.637-2.843,1.006
		C114.186,143.446,117.234,142.074,116.872,140.206z"/>
	<path opacity="0.54" fill="#E6A65B" d="M132.755,143.23c-0.02-0.089-0.043-0.179-0.08-0.269c-0.712-1.813-2.999-0.638-2.844,1.006
		C130.07,146.469,133.117,145.096,132.755,143.23z"/>
	<path fill="#E6A65B" d="M108.39,155.894c-0.056-0.072-0.116-0.142-0.19-0.209c-1.411-1.335-2.985,0.696-2.143,2.118
		C107.334,159.969,109.51,157.432,108.39,155.894z"/>
	<path opacity="0.41" fill="#E6A65B" d="M97.121,134.034c-0.056-0.074-0.115-0.143-0.189-0.21c-1.412-1.337-2.985,0.698-2.144,2.123
		C96.067,138.11,98.241,135.57,97.121,134.034z"/>
	<path opacity="0.52" fill="#E6A65B" d="M79.915,142.629c-0.036-0.045-0.074-0.09-0.119-0.133c-0.901-0.854-1.902,0.442-1.368,1.354
		C79.242,145.227,80.628,143.61,79.915,142.629z"/>
	<path fill="#E6A65B" d="M73.926,146.139c-0.035-0.044-0.074-0.09-0.119-0.132c-0.902-0.851-1.903,0.444-1.367,1.352
		C73.254,148.738,74.64,147.122,73.926,146.139z"/>
	<path fill="#E6A65B" d="M109.42,146.139c-0.036-0.044-0.075-0.09-0.121-0.132c-0.9-0.851-1.902,0.444-1.365,1.352
		C108.749,148.738,110.134,147.122,109.42,146.139z"/>
	<path fill="#E6A65B" d="M122.629,136.686c-0.033-0.047-0.075-0.092-0.12-0.133c-0.9-0.854-1.902,0.443-1.367,1.351
		C121.957,139.283,123.342,137.666,122.629,136.686z"/>
	<path fill="#E6A65B" d="M77.16,154.793c-0.036-0.045-0.075-0.09-0.12-0.135c-0.9-0.85-1.901,0.445-1.366,1.354
		C76.487,157.391,77.875,155.774,77.16,154.793z"/>
	<path fill="#E6A65B" d="M93.496,162.529c-0.034-0.045-0.076-0.091-0.12-0.133c-0.901-0.851-1.903,0.444-1.365,1.351
		C92.823,165.125,94.21,163.509,93.496,162.529z"/>
	<path fill="#E6A65B" d="M81.517,131.823c-0.057-0.006-0.114-0.006-0.178-0.002c-1.237,0.086-0.961,1.699,0.069,1.92
		C82.973,134.076,82.72,131.96,81.517,131.823z"/>
	<path fill="#E6A65B" d="M89.902,149.952c-0.033-0.047-0.074-0.093-0.121-0.135c-0.897-0.852-1.902,0.446-1.367,1.354
		C89.23,152.547,90.616,150.93,89.902,149.952z"/>
	<path fill="#E6A65B" d="M128.235,157.973c-0.035-0.045-0.075-0.092-0.121-0.132c-0.9-0.853-1.902,0.44-1.365,1.35
		C127.563,160.57,128.949,158.952,128.235,157.973z"/>
	<path opacity="0.65" fill="#E6A65B" d="M100.021,147.258c-0.024-0.124-0.061-0.246-0.109-0.373
		c-0.979-2.506-4.126-0.88-3.909,1.395C96.329,151.743,100.52,149.841,100.021,147.258z"/>
	<path opacity="0.65" fill="#E6A65B" d="M120.763,149.989c-0.022-0.125-0.061-0.247-0.107-0.373c-0.98-2.508-4.127-0.883-3.91,1.393
		C117.072,154.472,121.263,152.569,120.763,149.989z"/>
	<path opacity="0.65" fill="#E6A65B" d="M110.694,134.452c-0.025-0.123-0.059-0.245-0.108-0.373c-0.98-2.504-4.125-0.881-3.91,1.395
		C107.002,138.936,111.192,137.034,110.694,134.452z"/>
	<path opacity="0.41" fill="#E6A65B" d="M83.448,155.815c-0.107-0.064-0.222-0.125-0.347-0.174
		c-2.502-0.988-3.455,2.418-1.641,3.813C84.218,161.571,85.678,157.208,83.448,155.815z"/>
</g>
</svg>
