<?xml version="1.0" encoding="utf-8"?>
<!-- Generator: Adobe Illustrator 15.0.0, SVG Export Plug-In . SVG Version: 6.00 Build 0)  -->
<!DOCTYPE svg PUBLIC "-//W3C//DTD SVG 1.1//EN" "http://www.w3.org/Graphics/SVG/1.1/DTD/svg11.dtd">
<svg version="1.1" id="Layer_1" xmlns="http://www.w3.org/2000/svg" xmlns:xlink="http://www.w3.org/1999/xlink" x="0px" y="0px"
	 width="43.556px" height="73.367px" viewBox="0 0 43.556 73.367" enable-background="new 0 0 43.556 73.367" xml:space="preserve">
<g>
	<g>
		<g>
			<path fill="#FFC646" d="M29.173,65.295c0.035,0.054,0.075,0.104,0.117,0.153c0.576,0.672,1.662,0.982,2.452,1.318
				c0.603,0.254,1.248,0.527,1.547,1.151c0.207,0.431,0.367,1.354-0.114,1.663c-0.854,0.543-2.09-0.843-2.96-0.798
				c-1.896,0.099,1.191,3.511-0.481,4.409c-0.918,0.494-1.884-0.136-2.227-0.998c-0.318-0.795-0.237-1.831-0.664-2.578
				c-0.888-1.564-2.333,1.045-3.312,1.132c-0.83,0.075-1.268-0.576-1.086-1.341c0.362-1.523,2.232-2.151,2.848-3.506
				c0.313-0.689,0.404-1.438,0.404-2.191c0-0.801-0.05-1.555-0.137-2.324c-0.055-0.489-0.345-1.43,0.188-1.764
				c0.389-0.241,1.636,0.074,2.067,0.117c0.633,0.061,0.938,0.076,0.936,0.851c-0.001,0.737-0.066,1.436-0.066,2.19
				C28.686,63.571,28.714,64.615,29.173,65.295z"/>
			<path fill="#F6AE3A" d="M24.334,67.218c0.889-0.281,1.521-0.741,1.882-1.422c0.038-0.391-0.011-0.745,0.036-1.17
				c0.143-1.328,1.164-2.271,2.438-1.938c0.003-0.718,0.062-1.391,0.063-2.098c0.002-0.774-0.303-0.79-0.936-0.851
				c-0.432-0.043-1.679-0.358-2.067-0.117c-0.533,0.334-0.243,1.274-0.188,1.764c0.087,0.77,0.137,1.523,0.137,2.324
				c0,0.754-0.092,1.502-0.404,2.191c-0.246,0.543-0.697,0.971-1.172,1.386C24.193,67.265,24.262,67.242,24.334,67.218z"/>
			<path fill="#F6AE3A" d="M28.852,72.496c-0.435-0.336-0.591-0.807-0.542-1.286c-0.488-0.218-0.666-0.718-0.45-1.411
				c0.176-0.562-0.016-0.852-0.364-0.98c0.021-0.12-0.061-0.268-0.319-0.453c-0.738-0.784-1.673,0.141-1.725,0.139
				c-0.657,0.693-2.234,1.594-2.802,1.127c-0.08,0.002-0.157-0.014-0.229-0.047c-0.079,0.685,0.346,1.232,1.111,1.165
				c0.853-0.076,2.056-2.044,2.939-1.525c0.005-0.002,0.01-0.002,0.016-0.002c0.127,0.079,0.246,0.202,0.356,0.396
				c0.427,0.747,0.346,1.783,0.664,2.578c0.343,0.862,1.309,1.492,2.227,0.998c0.213-0.113,0.347-0.268,0.426-0.449
				C29.713,72.855,29.159,72.734,28.852,72.496z"/>
			<path fill="#F6AE3A" d="M32.493,68.692c-0.517,0.163-1.114,0.051-1.286-0.53c0.009,0.027-0.555-0.047-0.743-0.035
				c-0.221,0.014-0.746,0-0.871,0.246c-0.104,0.211-0.054,0.469,0.047,0.715c0.081-0.176,0.258-0.286,0.575-0.304
				c0.87-0.045,2.106,1.341,2.96,0.798c0.211-0.137,0.296-0.394,0.308-0.674C33.143,69.007,32.758,68.931,32.493,68.692z"/>
			<path fill="#FFE475" d="M26.74,64.218c0.197-0.02,1.039-0.266,0.981,0.098c-0.033,0.207-0.518,0.27-0.527,0.675
				c0.264-0.012,0.716-0.025,0.721,0.327c0.001,0.221-0.375,0.361-0.314,0.713c0.11-0.005,0.606,0.024,0.664,0.105
				c0.12,0.183-0.177,0.41-0.12,0.664c0.317,0.018,0.686,0.041,0.982-0.031c-0.02,0.332-0.008,0.654,0.283,0.686
				c0.263,0.03,0.678-0.283,1.033-0.232c-0.038,0.641,0.143,0.557,0.642,0.457c0.567-0.111,0.62,0.043,0.776,0.572
				c0.297,0.014,0.654,0.055,0.937-0.047c0.205-1.337-2.687-1.489-3.483-2.04c-0.512-0.351-0.94-1.178-1.03-1.768
				c-0.046-0.294,0.138-0.82-0.04-1.073C27.744,62.619,26.825,63.749,26.74,64.218z"/>
			<path fill="#FFE475" d="M23.191,69.385c0.058-0.183,0.102-0.376,0.201-0.536c0.194-0.314,0.214-0.258,0.49-0.191
				c0.145,0.034,0.257,0.252,0.451,0.191c0.216-0.07,0.121-0.364,0.234-0.547c0.347-0.55,0.52,0.063,0.932-0.1
				c0.147-0.057,0.254-0.354,0.421-0.443c0.159-0.085,0.362-0.053,0.541-0.09c0.574-0.115,0.848-1.145,0.183-1.285
				c-0.429-0.091-1.037,0.533-1.352,0.754c-0.551,0.388-1.248,0.521-1.801,0.913c-0.3,0.214-0.42,0.372-0.52,0.717
				c-0.037,0.126-0.166,0.347-0.078,0.479C22.918,69.283,23.165,69.466,23.191,69.385z"/>
			<path fill="#FFE475" d="M27.83,68.021c-0.036-0.709,1.004-0.286,1.217,0.031c0.34,0.51,0.392,1.2,0.45,1.791
				c0.066,0.662,0.176,1.236,0.328,1.846c0.05,0.2,0.206,0.674,0,0.842c-0.134,0.109-0.824-0.074-0.92-0.193
				c-0.314-0.4,0.243-0.486,0.312-0.785c0.08-0.357-0.332-0.307-0.531-0.531c0.744-0.461,0.263-0.546-0.316-0.824
				c0.369-0.379,0.898-0.941,0.001-1.04c0.116-0.335,0.237-0.369-0.005-0.638C28.209,68.345,27.849,68.384,27.83,68.021z"/>
		</g>
		<g>
			<path fill="#AC8163" d="M27.106,54.507c1.34-0.68,2.51-1.441,3.797-2.149c0.814-0.446,3.218-1.511,4.043-0.667
				c0.536,0.547-0.479,1.748-0.773,2.19c-0.969,1.45-1.984,2.951-2.874,4.442c-0.758,1.271-1.192,2.534-2.513,3.383
				c-0.711,0.455-3.419,0.707-3.746-0.387c-0.479-1.6-0.981-3.438-0.282-5.078C24.966,55.753,25.898,55.121,27.106,54.507z"/>
			<path fill="#8F6241" d="M34.946,51.691c-0.825-0.844-3.229,0.221-4.043,0.667c-1.287,0.708-2.457,1.47-3.797,2.149
				c-1.208,0.613-2.141,1.246-2.349,1.734c-0.699,1.641-0.196,3.479,0.282,5.078c0.212,0.705,1.412,0.849,2.43,0.74
				c-0.351-1.006,0.261-2.288,0.918-3.013c0.802-0.884,2.002-1.628,3.228-1.24c0.812-1.319,1.701-2.644,2.558-3.926
				C34.467,53.439,35.482,52.238,34.946,51.691z"/>
			<path fill="#7C5438" d="M34.946,51.691c-0.825-0.844-3.229,0.221-4.043,0.667c-1.287,0.708-2.457,1.47-3.797,2.149
				c-1.208,0.613-2.141,1.246-2.349,1.734c-0.699,1.641-0.196,3.479,0.282,5.078c0.13,0.434,0.638,0.654,1.243,0.735
				c-0.297-1.38,0.128-2.733,1.443-3.819c1.039-0.857,3.087-1.904,4.582-1.529c0.611-0.952,1.246-1.898,1.864-2.825
				C34.467,53.439,35.482,52.238,34.946,51.691z"/>
		</g>
	</g>
	<g>
		<g>
			<path fill="#FFC646" d="M13.906,64.689c-0.035,0.053-0.073,0.104-0.115,0.153c-0.576,0.673-1.664,0.983-2.451,1.317
				c-0.604,0.256-1.25,0.528-1.548,1.15c-0.207,0.434-0.369,1.355,0.112,1.664c0.854,0.544,2.09-0.842,2.961-0.797
				c1.896,0.1-1.192,3.512,0.482,4.41c0.917,0.492,1.882-0.137,2.227-0.998c0.319-0.796,0.237-1.831,0.662-2.578
				c0.888-1.566,2.333,1.044,3.312,1.131c0.832,0.076,1.27-0.578,1.088-1.341c-0.364-1.524-2.234-2.153-2.849-3.506
				c-0.313-0.691-0.404-1.438-0.404-2.192c0-0.801,0.052-1.553,0.137-2.322c0.054-0.49,0.344-1.43-0.189-1.766
				c-0.388-0.242-1.636,0.074-2.066,0.117c-0.634,0.061-0.938,0.078-0.936,0.852c0.002,0.738,0.065,1.436,0.065,2.19
				C14.394,62.964,14.365,64.009,13.906,64.689z"/>
			<path fill="#F6AE3A" d="M18.745,66.612c-0.889-0.281-1.521-0.741-1.881-1.423c-0.038-0.389,0.011-0.746-0.036-1.169
				c-0.144-1.329-1.165-2.272-2.437-1.939c-0.004-0.718-0.062-1.389-0.063-2.097c-0.002-0.773,0.302-0.791,0.936-0.852
				c0.431-0.043,1.679-0.359,2.066-0.117c0.533,0.336,0.243,1.275,0.189,1.766c-0.085,0.77-0.137,1.521-0.137,2.322
				c0,0.754,0.092,1.501,0.404,2.192c0.247,0.544,0.697,0.972,1.172,1.386C18.889,66.659,18.817,66.636,18.745,66.612z"/>
			<path fill="#F6AE3A" d="M14.228,71.889c0.435-0.338,0.591-0.806,0.544-1.286c0.486-0.218,0.665-0.719,0.449-1.41
				c-0.174-0.563,0.015-0.852,0.365-0.98c-0.021-0.121,0.061-0.27,0.317-0.455c0.739-0.785,1.675,0.142,1.725,0.139
				c0.659,0.695,2.235,1.596,2.806,1.127c0.076,0.004,0.155-0.012,0.227-0.045c0.079,0.684-0.345,1.231-1.112,1.164
				c-0.852-0.076-2.053-2.045-2.938-1.525c-0.004-0.002-0.011-0.002-0.017-0.002c-0.125,0.078-0.246,0.202-0.356,0.396
				c-0.425,0.747-0.343,1.782-0.662,2.578c-0.345,0.861-1.31,1.49-2.227,0.998c-0.213-0.115-0.348-0.27-0.428-0.45
				C13.366,72.25,13.92,72.126,14.228,71.889z"/>
			<path fill="#F6AE3A" d="M10.588,68.085c0.517,0.162,1.112,0.051,1.284-0.53c-0.007,0.028,0.557-0.048,0.743-0.034
				c0.223,0.014,0.747,0,0.871,0.245c0.108,0.211,0.055,0.468-0.044,0.716c-0.084-0.178-0.261-0.289-0.577-0.305
				c-0.871-0.045-2.106,1.341-2.961,0.797c-0.211-0.137-0.295-0.393-0.308-0.674C9.938,68.402,10.322,68.326,10.588,68.085z"/>
			<path fill="#FFE475" d="M16.342,63.612c-0.2-0.02-1.04-0.265-0.982,0.099c0.033,0.206,0.517,0.27,0.527,0.674
				c-0.264-0.014-0.718-0.025-0.721,0.325c-0.002,0.222,0.376,0.364,0.313,0.714c-0.109-0.004-0.607,0.025-0.663,0.107
				c-0.122,0.183,0.175,0.409,0.118,0.664c-0.314,0.018-0.684,0.041-0.981-0.032c0.021,0.332,0.007,0.653-0.282,0.687
				c-0.263,0.029-0.679-0.284-1.032-0.233c0.037,0.64-0.145,0.558-0.645,0.456c-0.564-0.109-0.619,0.045-0.774,0.573
				c-0.297,0.015-0.655,0.053-0.938-0.046c-0.204-1.34,2.687-1.49,3.484-2.041c0.51-0.352,0.938-1.177,1.03-1.768
				c0.044-0.293-0.139-0.82,0.041-1.073C15.336,62.01,16.256,63.142,16.342,63.612z"/>
			<path fill="#FFE475" d="M19.891,68.779c-0.061-0.182-0.104-0.375-0.202-0.537c-0.194-0.314-0.214-0.256-0.49-0.192
				c-0.146,0.036-0.257,0.253-0.451,0.192c-0.217-0.07-0.122-0.363-0.237-0.545c-0.344-0.551-0.519,0.063-0.93-0.101
				c-0.146-0.057-0.254-0.354-0.421-0.444c-0.16-0.086-0.36-0.053-0.541-0.089c-0.572-0.116-0.847-1.144-0.183-1.286
				c0.429-0.092,1.037,0.532,1.352,0.754c0.55,0.389,1.248,0.523,1.802,0.912c0.3,0.214,0.421,0.375,0.519,0.719
				c0.036,0.125,0.165,0.346,0.078,0.48C20.163,68.676,19.914,68.86,19.891,68.779z"/>
			<path fill="#FFE475" d="M15.249,67.416c0.037-0.711-1.004-0.289-1.215,0.029c-0.342,0.51-0.393,1.202-0.451,1.792
				c-0.065,0.661-0.174,1.236-0.327,1.847c-0.051,0.199-0.206,0.672,0.001,0.84c0.133,0.108,0.822-0.073,0.918-0.192
				c0.313-0.401-0.243-0.488-0.312-0.786c-0.081-0.357,0.333-0.306,0.53-0.53c-0.741-0.461-0.261-0.546,0.318-0.825
				c-0.37-0.379-0.9-0.94-0.001-1.039c-0.115-0.335-0.236-0.369,0.004-0.638C14.87,67.74,15.23,67.779,15.249,67.416z"/>
		</g>
		<g>
			<path fill="#AC8163" d="M15.587,54.177c-2.824-1.433-7.159-2.768-7.325-1.947c-0.4,2.004,1.131,3.521,2.373,4.85
				c1.051,1.119,2.322,3.758,3.537,4.48c0.956,0.568,3.093,0.486,3.727-0.57c0.725-1.208,0.57-3.827,0.037-5.076
				C17.727,55.423,16.796,54.791,15.587,54.177z"/>
			<path fill="#8F6241" d="M15.811,59.549c0.54-0.812,1.625-1.03,2.575-0.968c-0.001-1-0.172-2.02-0.45-2.668
				c-0.209-0.49-1.14-1.123-2.349-1.736c-2.824-1.433-7.159-2.768-7.325-1.947c-0.4,2.004,1.131,3.521,2.373,4.85
				c1.051,1.119,2.322,3.758,3.537,4.48c0.453,0.27,1.17,0.389,1.865,0.333C15.495,61.333,15.362,60.216,15.811,59.549z"/>
			<path fill="#7C5438" d="M14.32,59.062c0.481-1.359,2.542-1.518,4.033-1.246c-0.064-0.731-0.211-1.419-0.418-1.902
				c-0.209-0.49-1.14-1.123-2.349-1.736c-2.824-1.433-7.159-2.768-7.325-1.947c-0.4,2.004,1.131,3.521,2.373,4.85
				c1.051,1.119,2.322,3.758,3.537,4.48c0.183,0.107,0.408,0.191,0.66,0.252C14.291,60.924,13.994,59.98,14.32,59.062z"/>
		</g>
	</g>
	<path fill="#EFE1D5" d="M33.269,23.03c-3.109-3.086-8.165-3.043-12.039-2.12c-2.836,0.674-5.658,1.897-8.56,1.837
		c-1.263-0.025-5.164,5.471-7.077,13.257C2.188,49.859,8.34,54.693,12.979,56.527c6.987,2.766,13.973,1.111,15.994,0.429
		c12.065-4.073,10.643-18.59,7.201-28.228c-0.593-1.662-1.36-4.002-2.604-5.381C33.471,23.238,33.371,23.133,33.269,23.03z"/>
	<path opacity="0.39" fill="#BFA695" d="M35.794,27.662c-0.404-1.115-0.895-2.348-1.528-3.363c-1.032,1.795-2.672,3.088-4.332,4.467
		c1.079,1.295,1.876,2.951,2.259,4.989c1.314,7.015,2.286,16.917-5.395,20.111c-7.353,3.057-15.904-0.339-17.031-7.673
		c-0.733-4.771,1.765-16.254,2.904-17.743c-1.173-0.53-2.205-1.332-3.3-1.999C8,28.795,6.548,32.113,5.593,36.003
		C2.188,49.859,8.34,54.693,12.979,56.527c6.111,2.418,12.22,1.457,15.008,0.721c0.328-0.1,0.665-0.184,0.984-0.292
		c10.935-3.69,10.794-15.96,8.108-25.401c-0.277-0.978-0.582-1.924-0.905-2.826c-0.114-0.32-0.235-0.667-0.364-1.024
		C35.804,27.689,35.799,27.675,35.794,27.662z"/>
	<path opacity="0.39" fill="#A58772" d="M14.32,54.676c-4.488-2.708-7.414-6.412-7.211-11.897c0.188-5.03,0.789-11.07,3.283-15.673
		c-0.338-0.223-0.677-0.444-1.021-0.655C8,28.795,6.548,32.113,5.593,36.003C2.188,49.859,8.34,54.693,12.979,56.527
		c4.842,1.916,9.678,1.71,12.865,1.175C21.57,57.558,17.478,56.581,14.32,54.676z"/>
	<path opacity="0.39" fill="#A58772" d="M35.794,27.662c-0.404-1.115-0.895-2.348-1.528-3.363c-0.353,0.613-0.781,1.166-1.252,1.686
		c7.805,9.099,5.016,26.23-6.216,30.246c-2.571,0.922-7.231,1.463-10.046,1.396c4.729,0.927,9.025,0.204,11.234-0.378
		c0.328-0.1,0.665-0.184,0.984-0.292c10.935-3.69,10.794-15.96,8.108-25.401c-0.277-0.978-0.582-1.924-0.905-2.826
		c-0.114-0.32-0.235-0.667-0.364-1.024C35.804,27.689,35.799,27.675,35.794,27.662z"/>
	<path opacity="0.55" fill="#AE8D74" d="M7.876,37.789c0.312-0.196,0.601-0.373,0.843-0.532c1.179-0.777,2.36-1.442,3.66-1.968
		c2.262-0.918,4.932-1.613,7.338-1.854c3.551-0.354,8.356-0.895,11.637,0.768c2.056,1.043,3.72,2.803,4.977,4.707
		c0.425,0.643,0.909,1.911,1.911,1.666c0.885-0.217,1.073-1.556,0.993-2.311c-0.096-0.92-0.744-1.705-1.071-2.547
		c-0.53-1.367-0.717-2.879-1.12-4.288c-0.019-0.063-0.038-0.128-0.057-0.192c-0.103-0.348-0.207-0.693-0.315-1.033
		c-0.032-0.105-0.067-0.212-0.104-0.315c-0.127-0.394-0.257-0.784-0.394-1.161c-0.593-1.662-1.36-4.002-2.604-5.381
		c-0.1-0.109-0.199-0.214-0.302-0.317c-3.109-3.086-8.165-3.043-12.039-2.12c-2.191,0.52-4.377,1.363-6.597,1.696
		c-1.415,0.482-2.76,1.097-4.021,1.96c-1.661,2.227-3.766,6.333-5.02,11.438c-0.47,1.912-0.751,3.645-0.886,5.227
		C4.831,39.763,6.55,38.617,7.876,37.789z"/>
	<path opacity="0.75" fill="#886A56" d="M16.293,22.273C16.292,22.273,16.292,22.273,16.293,22.273
		c-0.551,0.135-1.101,0.248-1.653,0.332c-0.002,0-0.005,0.001-0.007,0.001c-1.415,0.482-2.76,1.097-4.021,1.96
		c-0.579,0.777-1.21,1.779-1.846,2.98c-0.002,0.004-0.005,0.012-0.006,0.016c-0.71,1.344-1.184,2.783-1.843,4.145
		c-0.001,0-0.001,0-0.001,0.002c-0.494,1.328-0.948,2.766-1.324,4.295c-1.929,7.848-0.79,12.798,1.402,15.951
		c-0.058-2.083-0.064-4.254,0.368-6.287c0.432-2.028,1.322-3.918,1.92-5.898c0.564-1.868,0.54-3.755,1.498-5.506
		c0.465-0.848,1.256-1.824,2.161-2.33c0.151-0.084,0.303-0.154,0.46-0.211c1.192-0.424,2.84,0.148,4.076,0.268
		c3.143,0.303,6.418,0.392,9.472-0.539c1.37-0.417,3.127-1.006,4.524-0.375c1.225,0.555,1.588,2.313,1.782,3.525
		c0.321,2.016,0.778,4.198,1.473,6.117c0.71,1.961,1.711,3.891,1.739,6.023c0.022,1.581-0.288,3.24-0.448,4.816
		c-0.003,0.034-0.011,0.084-0.017,0.126c4.113-6.274,2.685-15.915,0.17-22.956c-0.2-0.562-0.423-1.201-0.674-1.852
		c-0.251-0.6-0.496-1.208-0.786-1.791c-0.021-0.041-0.042-0.078-0.062-0.115c-0.105-0.207-0.222-0.404-0.34-0.602
		c-0.068-0.111-0.139-0.222-0.212-0.328c-0.161-0.24-0.331-0.477-0.53-0.693c-0.1-0.109-0.199-0.214-0.302-0.317
		c-3.109-3.086-8.165-3.043-12.039-2.12c-0.49,0.115-0.981,0.252-1.472,0.393C18.605,21.63,17.453,21.99,16.293,22.273z"/>
	<ellipse fill="#AD9380" cx="21.721" cy="15.923" rx="16.835" ry="15.241"/>
	<path fill="#D6B199" d="M36.815,15.929c-0.079,0.66-0.218,1.293-0.412,1.875c-0.568,1.699-1.686,3.651-2.774,5.039
		c-1.275,1.627-2.801,2.975-4.756,3.646c-2.141,0.733-4.051,1.693-6.411,1.801c-2.987,0.137-6.904-0.731-9.36-2.517
		c-1.104-0.803-2.083-1.389-3.02-2.41c-1.755-1.919-3.117-4.737-3.354-7.341c-0.288-3.145,0.143-7.517,3.515-8.966
		c1.352-0.582,2.971-0.698,4.428-0.682c2.051,0.023,3.77,1.268,5.771,1.362c2.677,0.128,5.259-1.851,7.874-1.401
		c1.898,0.327,4.607,0.443,6.101,1.793C36.443,9.96,37.146,13.176,36.815,15.929z"/>
	<path fill="#EFCBB0" d="M33.445,9.599c-2.282-2.071-5.639-1.051-8.053,0.238c-2.376,1.268-5.793,0.98-8.308,0.076
		C16.171,9.583,15.268,9.228,14.356,9c-1.408-0.354-2.733-0.924-4.091-0.113c-1.133,0.678-1.871,2.021-2.287,3.232
		c-1.261,3.684,1.224,8.488,4.18,10.716c1.932,1.453,4.226,2.67,6.587,3.236c4.671,1.121,10.149-0.751,13.363-4.299
		C35.029,18.544,37.258,13.059,33.445,9.599z"/>
	<g>
		<circle fill="#D64026" cx="14.121" cy="14.917" r="3.228"/>
		<path opacity="0.65" fill="#F3754E" d="M15.529,12.029c-0.427-0.207-0.901-0.336-1.409-0.336c-1.782,0-3.227,1.443-3.227,3.225
			c0,1.329,0.805,2.469,1.953,2.963C12.853,15.856,13.862,13.08,15.529,12.029z"/>
		<path fill="#6C3527" d="M14.12,11.407c-1.938,0-3.514,1.574-3.514,3.511c0,1.938,1.576,3.514,3.514,3.514s3.515-1.576,3.515-3.514
			C17.635,12.981,16.058,11.407,14.12,11.407z M14.12,18.144c-1.782,0-3.227-1.443-3.227-3.227c0-1.781,1.444-3.225,3.227-3.225
			c1.783,0,3.229,1.443,3.229,3.225C17.349,16.701,15.903,18.144,14.12,18.144z"/>
		<circle fill="#010101" cx="14.121" cy="14.919" r="1.943"/>
		<path fill="#FFFFFF" d="M11.521,13.757c-0.08,0.148-0.15,0.481-0.095,0.658c0.106,0.351,0.411,0.342,0.721,0.326
			c0.366-0.02,0.7-0.19,1.073-0.218c0.374-0.026,0.723,0.017,1.082,0.027c0.524,0.015,0.069-0.38-0.102-0.54
			C13.676,13.517,12.027,12.822,11.521,13.757z"/>
	</g>
	<g>
		<circle fill="#D64026" cx="29.049" cy="14.917" r="3.229"/>
		<path opacity="0.65" fill="#F3754E" d="M29.158,13.24c0.401-0.42,0.873-0.836,1.388-1.162c-0.449-0.237-0.954-0.385-1.497-0.385
			c-1.783,0-3.229,1.443-3.229,3.225c0,1.112,0.563,2.09,1.416,2.67C27.43,15.984,28.028,14.427,29.158,13.24z"/>
		<path fill="#6C3527" d="M29.049,11.407c-1.938,0-3.514,1.574-3.514,3.511c0,1.938,1.575,3.514,3.514,3.514
			c1.938,0,3.514-1.576,3.514-3.514C32.563,12.981,30.986,11.407,29.049,11.407z M29.049,18.144c-1.783,0-3.229-1.443-3.229-3.227
			c0-1.781,1.445-3.225,3.229-3.225c1.782,0,3.229,1.443,3.229,3.225C32.277,16.701,30.831,18.144,29.049,18.144z"/>
		<circle fill="#010101" cx="29.048" cy="14.919" r="1.943"/>
		<path fill="#FFFFFF" d="M26.45,13.757c-0.081,0.148-0.15,0.481-0.096,0.658c0.106,0.351,0.411,0.342,0.722,0.326
			c0.364-0.02,0.699-0.19,1.071-0.218c0.374-0.026,0.724,0.017,1.083,0.027c0.523,0.015,0.069-0.38-0.101-0.54
			C28.602,13.517,26.955,12.822,26.45,13.757z"/>
	</g>
	<g>
		<path fill="#735F45" d="M19.938,22.448c-0.816-1.741-2.271-4.169,0.23-5.195c1.104-0.453,2.393-0.316,3.195,0.585
			c1.182,1.328,0.546,2.308-0.137,3.614c-0.684,1.312-1.306,2.778-1.989,4.081C20.681,24.555,20.414,23.462,19.938,22.448z"/>
		<path fill="#69543B" d="M23.363,17.837c-0.486-0.544-1.146-0.803-1.837-0.828c0.215,0.333,0.309,0.722,0.338,1.131
			c0.145,1.02-0.061,2.213-0.319,3.025c-0.257,0.818-0.776,1.363-1.436,1.697c0.373,0.895,0.646,1.822,1.128,2.67
			c0.684-1.303,1.306-2.77,1.989-4.081C23.909,20.145,24.545,19.166,23.363,17.837z"/>
		<path fill="#7F6D51" d="M20.244,19.928c0.146,0.283,0.832,1.52,1.039,0.663c0.156-0.645,0.181-1.318,0.213-1.979
			c0.015-0.328,0.057-0.824-0.226-1.045c-0.478-0.373-1.722,0.271-1.711,0.856c0.007,0.442,0.36,0.878,0.56,1.258
			C20.151,19.746,20.195,19.832,20.244,19.928z"/>
		<path fill="#4F3C21" d="M23.61,18.156c-0.03,0.205-0.071,0.413-0.138,0.62c-0.337,1.051-0.871,2.336-1.771,3.026
			c-0.588,0.451-1.366-0.607-1.609-0.967c-0.558-0.825-0.928-1.654-1.127-2.59c-0.613,1.199,0.357,2.895,0.972,4.202
			c0.477,1.015,0.743,2.107,1.3,3.085c0.684-1.303,1.306-2.77,1.989-4.081C23.853,20.251,24.438,19.328,23.61,18.156z"/>
		<path fill="#24190F" d="M20.781,23.218c-0.261-0.099-0.503-0.274-0.727-0.491c0.403,0.935,0.678,1.915,1.183,2.806
			c0.471-0.895,0.911-1.865,1.362-2.812c-0.171,0.188-0.364,0.326-0.583,0.414C21.658,23.332,21.247,23.4,20.781,23.218z"/>
		<path fill="#FFFFFF" d="M20.495,19.531c0.173-0.146,0.221-1.035,0.126-1.285c-0.148-0.393-0.69-0.16-0.707,0.193
			C19.903,18.67,20.328,19.388,20.495,19.531z"/>
	</g>
	<g>
		<path fill="#AC8163" d="M1.011,37.05c0.875-2.852,2.262-5.492,3.927-7.509c0.889-1.076,1.912-2.182,3.416-1.788
			c2.198,0.578,1.944,3.556,1.763,5.379c-0.327,3.264-1.436,6.253-2.629,9.258c-1.056,2.656-1.061,5.442-1.055,8.264
			c0.007,1.955,0.145,5.18-2.379,2.939C-0.432,49.615-0.784,42.896,1.011,37.05z"/>
		<path fill="#8F6241" d="M8.354,27.753c-0.492-0.129-0.931-0.086-1.335,0.055c1.288,2.674,0.272,5.849-0.812,8.576
			c-0.721,1.814-1.941,3.861-2.08,5.842c-0.128,1.842-0.352,3.084-1.761,4.336c-0.765,0.682-1.432,0.826-1.966,0.642
			c0.555,2.446,1.718,4.675,3.653,6.39c2.523,2.24,2.386-0.984,2.379-2.939c-0.006-2.821-0.001-5.607,1.055-8.264
			c1.193-3.005,2.302-5.994,2.629-9.258C10.298,31.309,10.552,28.332,8.354,27.753z"/>
		<path fill="#7C5438" d="M8.354,27.753c-0.203-0.052-0.395-0.074-0.58-0.076c1.786,1.864,0.589,5.547-0.326,7.76
			c-1.388,3.351-1.64,6.587-2.616,10.002c-0.534,1.865-1.192,3.331-2.971,4.238c-0.187,0.096-0.364,0.166-0.537,0.228
			c0.646,1.377,1.538,2.632,2.73,3.688c2.523,2.24,2.386-0.984,2.379-2.939c-0.006-2.821-0.001-5.607,1.055-8.264
			c1.193-3.005,2.302-5.994,2.629-9.258C10.298,31.309,10.552,28.332,8.354,27.753z"/>
		<path fill="#7C5438" d="M7.078,31.142c-0.479,0.266-1.075-0.096-1.453-0.364c0.014,0.862-1.236,1.247-1.824,0.688
			c-0.103,1.172,1.556,1.588,1.847,0.415c0.261,0.882,1.305,0.675,1.884,0.255c0.633-0.461,0.971-1.947,0.485-2.616
			C7.87,30.091,7.633,30.835,7.078,31.142z"/>
		<path fill="#7C5438" d="M2.172,34.83c0.015-0.336,0.16-0.617,0.329-0.896c0.04-0.065,0.484-0.562,0.484-0.553
			c0.021,0.406-0.088,0.772,0.165,1.14c0.084,0.119,0.803,0.63,0.922,0.396c-0.487,0.959-0.001,1.615,1.047,1.437
			c-0.207,0.522-0.585,1.473-1.328,1.113c-0.705-0.339-0.715-1.451-0.827-2.087C2.537,35.712,2.15,35.277,2.172,34.83z"/>
		<path fill="#7C5438" d="M5.423,35.226C4.903,35,4.865,34.082,4.896,33.617c0.669,0.736,2.019,0.594,2.577-0.275
			c0.169,0.189,0.506,0.283,0.74,0.203c-0.089,0.536-0.815,1.66-1.208,0.76C6.749,34.745,6.033,35.491,5.423,35.226z"/>
		<path fill="#7C5438" d="M5.73,38.853c0.052,0.807-0.146,1.574-1.004,1.813c-0.471,0.131-0.97,0.048-1.289-0.351
			c-0.137-0.171-0.244-0.427-0.334-0.628c-0.047-0.108-0.11-0.596-0.153-0.641c0.319,0.324,0.806,0.426,1.241,0.418
			C4.745,39.455,5.327,39.246,5.73,38.853z"/>
		<path fill="#7C5438" d="M2.864,47.644c0.025,0.404-0.074,0.788-0.503,0.907c-0.235,0.065-0.484,0.024-0.644-0.175
			c-0.069-0.086-0.123-0.214-0.167-0.314c-0.023-0.055-0.057-0.297-0.077-0.319c0.159,0.161,0.403,0.212,0.619,0.21
			C2.371,47.945,2.661,47.841,2.864,47.644z"/>
		<path fill="#7C5438" d="M2.544,37.426c0.236,0.287,0.383,0.447,0.797,0.447c0.061,0.413-0.492,1.25-0.765,0.618
			c-0.159,0.388-0.584,0.961-1.059,0.802c-0.192-0.065-0.407-0.349-0.494-0.522c-0.022-0.045-0.146-0.59-0.103-0.574
			c0.368,0.131,0.788,0.031,1.117-0.164C2.133,37.976,2.679,37.59,2.544,37.426z"/>
		<path fill="#7C5438" d="M0.904,41.265c-0.309-0.418-0.447-1.026-0.315-1.529c0.271,0.256,0.573,0.789,0.984,0.767
			c0.35-0.021,0.373-0.196,0.601-0.433c-0.004,0.297-0.056,0.537,0.199,0.729c0.186,0.139,0.58,0.154,0.762,0.033
			c0.023,0.324,0.115,1.009-0.314,1.124c-0.476,0.126-0.646-0.56-0.8-0.843C1.81,41.739,1.276,41.766,0.904,41.265z"/>
		<path fill="#7C5438" d="M1.4,44.759c-0.396-0.154-0.545-0.531-0.688-0.895c-0.075-0.191-0.089-0.871-0.165-0.957
			c0.589,0.658,1.644,1.552,2.151,0.201c0.149,0.945,1.318-0.441,1.297-0.932c0,0.447,0.171,1.18-0.029,1.568
			c-0.229,0.441-0.938,0.58-1.23,0.137C2.763,44.613,2.062,45.016,1.4,44.759z"/>
		<path fill="#7C5438" d="M3.74,46.31c0.076-0.002-0.215,0.584-0.49,0.602c-0.338,0.025-0.606-0.242-0.691-0.543
			c-0.277,0.418-0.97,0.873-1.475,0.582c-0.547-0.316-0.613-1.268-0.57-1.82c0.101,0.572,0.393,1.094,1.004,1.119
			c0.199,0.007,1.543-0.219,1.532-0.51C3.072,46.316,3.211,46.316,3.74,46.31z"/>
	</g>
	<g>
		<path fill="#AC8163" d="M42.543,37.05c-0.873-2.852-2.26-5.492-3.926-7.509c-0.888-1.076-1.912-2.182-3.416-1.788
			c-2.197,0.578-1.944,3.556-1.761,5.379c0.325,3.264,1.434,6.253,2.628,9.258c1.055,2.656,1.06,5.442,1.052,8.264
			c-0.002,1.955-0.143,5.18,2.382,2.939C43.988,49.615,44.341,42.896,42.543,37.05z"/>
		<path fill="#8F6241" d="M35.201,27.753c0.495-0.129,0.933-0.086,1.334,0.055c-1.286,2.674-0.271,5.849,0.813,8.576
			c0.722,1.814,1.941,3.861,2.079,5.842c0.128,1.842,0.354,3.084,1.761,4.336c0.766,0.682,1.434,0.826,1.968,0.642
			c-0.557,2.446-1.718,4.675-3.653,6.39c-2.524,2.24-2.384-0.984-2.382-2.939c0.008-2.821,0.003-5.607-1.052-8.264
			c-1.194-3.005-2.303-5.994-2.628-9.258C33.257,31.309,33.004,28.332,35.201,27.753z"/>
		<path fill="#7C5438" d="M35.201,27.753c0.203-0.052,0.396-0.074,0.581-0.076c-1.785,1.864-0.59,5.547,0.325,7.76
			c1.39,3.351,1.64,6.587,2.616,10.002c0.534,1.865,1.192,3.331,2.972,4.238c0.187,0.096,0.363,0.166,0.536,0.228
			c-0.646,1.377-1.538,2.632-2.729,3.688c-2.524,2.24-2.384-0.984-2.382-2.939c0.008-2.821,0.003-5.607-1.052-8.264
			c-1.194-3.005-2.303-5.994-2.628-9.258C33.257,31.309,33.004,28.332,35.201,27.753z"/>
		<path fill="#7C5438" d="M36.478,31.142c0.478,0.266,1.075-0.096,1.452-0.364c-0.013,0.862,1.236,1.247,1.826,0.688
			c0.1,1.172-1.557,1.588-1.848,0.415c-0.26,0.882-1.305,0.675-1.884,0.255c-0.634-0.461-0.972-1.947-0.486-2.616
			C35.686,30.091,35.923,30.835,36.478,31.142z"/>
		<path fill="#7C5438" d="M41.384,34.83c-0.015-0.336-0.161-0.617-0.33-0.896c-0.04-0.065-0.481-0.562-0.483-0.553
			c-0.021,0.406,0.088,0.772-0.167,1.14c-0.082,0.119-0.801,0.63-0.922,0.396c0.488,0.959,0.003,1.615-1.046,1.437
			c0.207,0.522,0.586,1.473,1.329,1.113c0.704-0.339,0.714-1.451,0.825-2.087C41.019,35.712,41.405,35.277,41.384,34.83z"/>
		<path fill="#7C5438" d="M38.132,35.226c0.521-0.226,0.558-1.145,0.527-1.609c-0.669,0.736-2.02,0.594-2.577-0.275
			c-0.17,0.189-0.505,0.283-0.741,0.203c0.09,0.536,0.817,1.66,1.209,0.76C36.805,34.745,37.522,35.491,38.132,35.226z"/>
		<path fill="#7C5438" d="M37.825,38.853c-0.054,0.807,0.146,1.574,1.005,1.813c0.47,0.131,0.969,0.048,1.287-0.351
			c0.138-0.171,0.244-0.427,0.334-0.628c0.047-0.108,0.111-0.596,0.155-0.641c-0.319,0.324-0.808,0.426-1.241,0.418
			C38.809,39.455,38.227,39.246,37.825,38.853z"/>
		<path fill="#7C5438" d="M40.691,47.644c-0.025,0.404,0.073,0.788,0.503,0.907c0.235,0.065,0.485,0.024,0.643-0.175
			c0.07-0.086,0.122-0.214,0.168-0.314c0.023-0.055,0.057-0.297,0.077-0.319c-0.159,0.161-0.402,0.212-0.62,0.21
			C41.185,47.945,40.893,47.841,40.691,47.644z"/>
		<path fill="#7C5438" d="M41.011,37.426c-0.236,0.287-0.382,0.447-0.796,0.447c-0.061,0.413,0.491,1.25,0.763,0.618
			c0.16,0.388,0.584,0.961,1.06,0.802c0.193-0.065,0.407-0.349,0.495-0.522c0.022-0.045,0.146-0.59,0.103-0.574
			c-0.369,0.131-0.787,0.031-1.117-0.164C41.422,37.976,40.878,37.59,41.011,37.426z"/>
		<path fill="#7C5438" d="M42.65,41.265c0.31-0.418,0.448-1.026,0.314-1.529c-0.271,0.256-0.572,0.789-0.982,0.767
			c-0.353-0.021-0.373-0.196-0.602-0.433c0.004,0.297,0.057,0.537-0.199,0.729c-0.186,0.139-0.582,0.154-0.764,0.033
			c-0.02,0.324-0.111,1.009,0.316,1.124c0.476,0.126,0.646-0.56,0.8-0.843C41.744,41.739,42.278,41.766,42.65,41.265z"/>
		<path fill="#7C5438" d="M42.155,44.759c0.395-0.154,0.544-0.531,0.687-0.895c0.075-0.191,0.089-0.871,0.166-0.957
			c-0.59,0.658-1.646,1.552-2.151,0.201c-0.15,0.945-1.318-0.441-1.297-0.932c0,0.447-0.173,1.18,0.028,1.568
			c0.229,0.441,0.939,0.58,1.23,0.137C40.791,44.613,41.494,45.016,42.155,44.759z"/>
		<path fill="#7C5438" d="M39.814,46.31c-0.076-0.002,0.215,0.584,0.492,0.602c0.336,0.025,0.605-0.242,0.689-0.543
			c0.278,0.418,0.972,0.873,1.475,0.582c0.548-0.316,0.612-1.268,0.571-1.82c-0.103,0.572-0.393,1.094-1.006,1.119
			c-0.198,0.007-1.542-0.219-1.531-0.51C40.483,46.316,40.345,46.316,39.814,46.31z"/>
	</g>
	<g>
		<path fill="#8F6241" d="M10.241,10.31c0.938,0.264,1.892,0.18,2.818,0.498c0.458,0.158,0.72,0.269,1.188,0.303
			c0.135,0.01,1.573,0.18,1.574,0.143c0.029-0.93-1.078-1.502-1.803-1.816c-0.965-0.418-1.866-0.855-2.537-1.685
			c-0.528-0.649-1.009-1.523-1.287-2.288C9.85,4.507,9.942,3.613,10.038,2.638C10.1,1.982,10.267,0.39,9.504,0.057
			C8.549-0.36,7.481,1.609,7.766,2.348c-0.617-1.597-1.43,0.028-1.561,0.987C5.994,4.862,6.406,6.317,7.09,7.646
			C7.808,9.039,8.711,9.876,10.241,10.31z"/>
		<path fill="#7C5438" d="M14.411,9.621C11.955,8.902,9.313,7.539,8.47,5.4C7.896,3.941,8.574,1.222,10.03,0.886
			C9.953,0.505,9.8,0.185,9.504,0.057C8.549-0.36,7.481,1.609,7.766,2.348c-0.617-1.597-1.43,0.028-1.561,0.987
			C5.994,4.862,6.406,6.317,7.09,7.646c0.718,1.393,1.621,2.23,3.151,2.664c0.938,0.264,1.892,0.18,2.818,0.498
			c0.458,0.158,0.72,0.269,1.188,0.303c0.135,0.01,1.573,0.18,1.574,0.143C15.847,10.479,15.084,9.957,14.411,9.621z"/>
		<g>
			<path fill="#8F6241" d="M12.001,9.085c-2.859-0.75-5.358-3.383-5.937-6.404C4.701,3.265,5.02,6.686,5.695,7.827
				c0.245,0.413,0.732,0.698,0.94,1.04C6.819,9.167,6.952,9.79,7.094,9.978c0.469,0.622-0.015,0.558,0.853,0.86
				c0.443,0.155,1.229-0.003,1.704,0.024c0.35,1.204,1.678,1.063,2.667,0.934c1.413-0.183,2.3-0.076,3.557,0.684
				c0.486,0.295,0.627,0.698,1.03,1.068c0.36,0.33,0.621,0.289,0.752-0.254c0.282-1.17-0.889-2.481-1.824-2.984
				C14.645,9.668,13.293,9.426,12.001,9.085z"/>
			<path fill="#AC8163" d="M14.443,10.415c1.717,0.745,2.837,1.692,3.144,3.061c0.022-0.058,0.049-0.104,0.069-0.181
				c0.282-1.17-0.889-2.481-1.824-2.984c-1.188-0.642-2.539-0.884-3.831-1.225C9.348,8.388,7.024,6.066,6.24,3.321
				C5.703,8.056,10.684,8.781,14.443,10.415z"/>
			<path fill="#7C5438" d="M15.443,11.609c-1.515-0.521-2.822-0.264-4.318-0.436c-0.328-0.039-0.641-0.287-0.83-0.549
				c-0.376-0.523-1.66-0.42-2.269-0.641C6.96,9.599,6.143,7.629,5.651,6.671C5.084,5.57,5.351,4.185,5.924,3.132
				C5.976,3.013,6.025,2.896,6.093,2.78C6.086,2.748,6.071,2.714,6.064,2.681C4.701,3.265,5.02,6.686,5.695,7.827
				c0.245,0.413,0.732,0.698,0.94,1.04C6.819,9.167,6.952,9.79,7.094,9.978c0.469,0.622-0.015,0.558,0.853,0.86
				c0.443,0.155,1.229-0.003,1.704,0.024c0.35,1.204,1.678,1.063,2.667,0.934c1.413-0.183,2.3-0.076,3.557,0.684
				c0.486,0.295,0.627,0.698,1.03,1.068c0.15,0.138,0.278,0.193,0.393,0.191c-0.081-0.447-0.217-0.817-0.393-1.133
				C16.539,12.185,16.086,11.831,15.443,11.609z"/>
		</g>
	</g>
	<g>
		<path fill="#8F6241" d="M32.899,10.31c-0.939,0.264-1.893,0.18-2.819,0.498c-0.459,0.158-0.721,0.269-1.19,0.303
			c-0.133,0.01-1.572,0.18-1.573,0.143c-0.029-0.93,1.079-1.502,1.803-1.816c0.966-0.418,1.867-0.855,2.538-1.685
			c0.528-0.649,1.01-1.523,1.287-2.288c0.347-0.957,0.252-1.852,0.159-2.826c-0.065-0.656-0.231-2.248,0.533-2.581
			c0.953-0.417,2.021,1.552,1.736,2.291c0.617-1.597,1.43,0.028,1.563,0.987c0.21,1.526-0.203,2.981-0.888,4.311
			C35.333,9.039,34.429,9.876,32.899,10.31z"/>
		<path fill="#7C5438" d="M28.729,9.621c2.457-0.719,5.098-2.082,5.94-4.221c0.576-1.459-0.104-4.178-1.56-4.514
			c0.076-0.381,0.23-0.701,0.527-0.829c0.953-0.417,2.021,1.552,1.736,2.291c0.617-1.597,1.43,0.028,1.563,0.987
			c0.21,1.526-0.203,2.981-0.888,4.311c-0.716,1.393-1.62,2.23-3.149,2.664c-0.939,0.264-1.893,0.18-2.819,0.498
			c-0.459,0.158-0.721,0.269-1.19,0.303c-0.133,0.01-1.572,0.18-1.573,0.143C27.292,10.479,28.056,9.957,28.729,9.621z"/>
		<g>
			<path fill="#8F6241" d="M31.137,9.085c2.86-0.75,5.359-3.383,5.938-6.404c1.363,0.584,1.046,4.005,0.369,5.146
				c-0.245,0.413-0.731,0.698-0.939,1.04c-0.184,0.301-0.315,0.923-0.458,1.111c-0.469,0.622,0.014,0.558-0.854,0.86
				c-0.443,0.155-1.229-0.003-1.702,0.024c-0.35,1.204-1.679,1.063-2.666,0.934c-1.416-0.183-2.303-0.076-3.561,0.684
				c-0.484,0.295-0.627,0.698-1.029,1.068c-0.359,0.33-0.619,0.289-0.752-0.254c-0.281-1.17,0.89-2.481,1.824-2.984
				C28.495,9.668,29.846,9.426,31.137,9.085z"/>
			<path fill="#AC8163" d="M28.698,10.415c-1.719,0.745-2.839,1.692-3.144,3.061c-0.024-0.058-0.053-0.104-0.072-0.181
				c-0.281-1.17,0.89-2.481,1.824-2.984c1.188-0.642,2.539-0.884,3.83-1.225c2.655-0.697,4.978-3.02,5.763-5.765
				C37.438,8.056,32.457,8.781,28.698,10.415z"/>
			<path fill="#7C5438" d="M27.695,11.609c1.516-0.521,2.823-0.264,4.318-0.436c0.33-0.039,0.641-0.287,0.831-0.549
				c0.375-0.523,1.661-0.42,2.268-0.641c1.066-0.385,1.885-2.354,2.376-3.313c0.567-1.102,0.302-2.486-0.272-3.539
				c-0.052-0.119-0.101-0.236-0.168-0.353c0.006-0.032,0.02-0.065,0.026-0.099c1.363,0.584,1.046,4.005,0.369,5.146
				c-0.245,0.413-0.731,0.698-0.939,1.04c-0.184,0.301-0.315,0.923-0.458,1.111c-0.469,0.622,0.014,0.558-0.854,0.86
				c-0.443,0.155-1.229-0.003-1.702,0.024c-0.35,1.204-1.679,1.063-2.666,0.934c-1.416-0.183-2.303-0.076-3.561,0.684
				c-0.484,0.295-0.627,0.698-1.029,1.068c-0.149,0.138-0.279,0.193-0.391,0.191c0.079-0.447,0.217-0.817,0.392-1.133
				C26.6,12.185,27.053,11.831,27.695,11.609z"/>
		</g>
	</g>
	<g>
		<path opacity="0.37" fill="#695444" d="M10.591,36.523c-0.001,0.234-0.164,1.408,0.347,1.393c0.548-0.018,1.379-2.525,1.466-2.778
			c0.428-1.228,1.146-3.12,0.798-4.427c-0.188-0.699-1.035-0.87-1.563-0.372c-0.808,0.761-0.771,1.687-0.912,2.614
			C10.544,34.136,10.595,35.333,10.591,36.523z"/>
		<path opacity="0.58" fill="#695444" d="M11.425,34.66c-0.15,0.805-0.348,1.614-0.294,2.432c0.381-0.375,0.51-1.205,0.668-1.711
			c0.302-0.961,0.221-2.075,0.695-2.956c0.272-0.507,0.83-1.524-0.074-1.771c-1.002-0.274-0.892,1.811-0.851,2.31
			C11.613,33.526,11.531,34.091,11.425,34.66z"/>
	</g>
	<g>
		<path opacity="0.37" fill="#695444" d="M13.251,41.755c0,0.233-0.161,1.408,0.349,1.393c0.549-0.018,1.379-2.524,1.466-2.777
			c0.428-1.229,1.146-3.121,0.799-4.429c-0.188-0.698-1.037-0.87-1.563-0.372c-0.809,0.761-0.771,1.688-0.913,2.615
			C13.206,39.37,13.257,40.565,13.251,41.755z"/>
		<path opacity="0.58" fill="#695444" d="M14.088,39.892c-0.15,0.803-0.348,1.613-0.294,2.434c0.381-0.378,0.51-1.209,0.667-1.713
			c0.301-0.961,0.221-2.076,0.695-2.956c0.272-0.509,0.83-1.524-0.073-1.771c-1.004-0.275-0.893,1.809-0.851,2.307
			C14.276,38.757,14.194,39.324,14.088,39.892z"/>
	</g>
	<g>
		<path opacity="0.37" fill="#695444" d="M29.4,37.072c0.075,0.221,0.313,1.383,0.789,1.199c0.51-0.197,0.465-2.839,0.465-3.106
			c-0.003-1.3,0.051-3.323-0.712-4.442c-0.406-0.598-1.265-0.479-1.598,0.166c-0.511,0.984-0.172,1.848,0.003,2.77
			C28.567,34.834,29.011,35.947,29.4,37.072z"/>
		<path opacity="0.58" fill="#695444" d="M29.571,35.038c0.126,0.808,0.207,1.637,0.529,2.392c0.233-0.48,0.082-1.307,0.063-1.836
			c-0.033-1.006-0.479-2.031-0.322-3.02c0.09-0.57,0.28-1.713-0.654-1.648c-1.038,0.074-0.242,2.006-0.04,2.463
			C29.377,33.905,29.485,34.466,29.571,35.038z"/>
	</g>
	<g>
		<path opacity="0.37" fill="#695444" d="M25.96,39.83c0.063,0.227,0.226,1.402,0.712,1.25c0.522-0.165,0.646-2.804,0.662-3.072
			c0.08-1.299,0.265-3.313-0.425-4.479c-0.368-0.621-1.231-0.559-1.606,0.063c-0.571,0.95-0.287,1.833-0.173,2.765
			C25.273,37.545,25.646,38.683,25.96,39.83z"/>
		<path opacity="0.58" fill="#695444" d="M26.264,37.812c0.07,0.814,0.1,1.646,0.372,2.422c0.265-0.465,0.167-1.302,0.182-1.83
			c0.031-1.004-0.346-2.057-0.127-3.033c0.127-0.563,0.389-1.692-0.548-1.687c-1.041,0.006-0.37,1.983-0.197,2.453
			C26.141,36.667,26.213,37.234,26.264,37.812z"/>
	</g>
	<g>
		<path opacity="0.37" fill="#695444" d="M20.522,39.146c0.061,0.225,0.224,1.401,0.71,1.248c0.521-0.164,0.646-2.803,0.662-3.07
			c0.08-1.299,0.264-3.314-0.425-4.479c-0.366-0.622-1.231-0.559-1.605,0.063c-0.572,0.95-0.289,1.832-0.174,2.766
			C19.836,36.861,20.206,38,20.522,39.146z"/>
		<path opacity="0.58" fill="#695444" d="M20.823,37.128c0.073,0.813,0.101,1.646,0.375,2.42c0.263-0.465,0.164-1.301,0.182-1.828
			c0.029-1.005-0.349-2.057-0.128-3.033c0.127-0.564,0.387-1.691-0.55-1.688c-1.039,0.008-0.37,1.983-0.197,2.453
			C20.702,35.984,20.773,36.55,20.823,37.128z"/>
	</g>
	<g>
		<path opacity="0.37" fill="#695444" d="M17.276,45.232c0.011,0.173-0.048,1.049,0.294,1.018c0.369-0.034,0.824-1.923,0.874-2.113
			c0.236-0.928,0.641-2.356,0.349-3.312c-0.154-0.51-0.733-0.604-1.07-0.215c-0.512,0.595-0.449,1.279-0.505,1.974
			C17.146,43.466,17.23,44.351,17.276,45.232z"/>
		<path opacity="0.58" fill="#695444" d="M17.763,43.822c-0.067,0.6-0.167,1.205-0.097,1.812c0.243-0.294,0.294-0.914,0.379-1.294
			c0.163-0.723,0.062-1.547,0.345-2.217c0.163-0.388,0.495-1.16-0.124-1.309c-0.69-0.166-0.524,1.375-0.479,1.742
			C17.842,42.972,17.811,43.394,17.763,43.822z"/>
	</g>
	<g>
		<path opacity="0.37" fill="#695444" d="M10.927,46.451c0.032,0.17,0.095,1.048,0.431,0.969c0.36-0.084,0.551-2.018,0.571-2.215
			c0.106-0.95,0.311-2.422-0.109-3.329c-0.224-0.479-0.812-0.495-1.091-0.064c-0.426,0.661-0.269,1.331-0.226,2.024
			C10.552,44.72,10.757,45.584,10.927,46.451z"/>
		<path opacity="0.58" fill="#695444" d="M11.212,44.987c0.016,0.604,0.002,1.218,0.155,1.808c0.197-0.322,0.165-0.944,0.197-1.332
			c0.061-0.738-0.153-1.541,0.034-2.244c0.107-0.406,0.33-1.219-0.304-1.279c-0.704-0.068-0.331,1.436-0.231,1.793
			C11.174,44.136,11.2,44.557,11.212,44.987z"/>
	</g>
	<g>
		<path opacity="0.37" fill="#695444" d="M30.625,45.55c0.058,0.164,0.247,1.021,0.568,0.895c0.344-0.137,0.25-2.076,0.243-2.275
			c-0.032-0.955-0.047-2.439-0.593-3.275c-0.292-0.443-0.877-0.373-1.09,0.094c-0.324,0.716-0.071,1.355,0.071,2.037
			C30.003,43.894,30.332,44.718,30.625,45.55z"/>
		<path opacity="0.58" fill="#695444" d="M30.695,44.059c0.104,0.596,0.179,1.206,0.416,1.767c0.149-0.35,0.025-0.959,0.001-1.348
			c-0.047-0.74-0.375-1.501-0.294-2.225c0.049-0.417,0.152-1.254-0.486-1.221c-0.708,0.035-0.117,1.469,0.032,1.807
			C30.533,43.223,30.621,43.637,30.695,44.059z"/>
	</g>
	<g>
		<path opacity="0.37" fill="#695444" d="M32.74,40.182c0.074,0.156,0.348,0.991,0.655,0.834c0.327-0.171,0.042-2.092,0.015-2.288
			c-0.127-0.947-0.289-2.424-0.916-3.201c-0.335-0.411-0.908-0.283-1.074,0.203c-0.252,0.743,0.063,1.355,0.272,2.02
			C31.958,38.595,32.367,39.382,32.74,40.182z"/>
		<path opacity="0.58" fill="#695444" d="M32.662,38.691c0.162,0.584,0.298,1.182,0.592,1.717c0.112-0.361-0.072-0.957-0.137-1.341
			c-0.119-0.73-0.522-1.456-0.511-2.185c0.006-0.421,0.022-1.262-0.606-1.166c-0.701,0.104,0.028,1.473,0.21,1.795
			C32.416,37.875,32.548,38.279,32.662,38.691z"/>
	</g>
	<g>
		<path opacity="0.37" fill="#695444" d="M16.914,37.232c0.027,0.17,0.058,1.049,0.396,0.983c0.362-0.072,0.625-1.997,0.654-2.192
			c0.142-0.946,0.401-2.407,0.017-3.33c-0.207-0.49-0.794-0.526-1.088-0.105c-0.45,0.644-0.318,1.318-0.304,2.014
			C16.606,35.489,16.779,36.359,16.914,37.232z"/>
		<path opacity="0.58" fill="#695444" d="M17.257,35.779c-0.009,0.604-0.046,1.217,0.087,1.813c0.21-0.317,0.199-0.939,0.246-1.325
			c0.089-0.737-0.095-1.546,0.12-2.241c0.123-0.401,0.375-1.205-0.257-1.289c-0.701-0.098-0.383,1.422-0.3,1.782
			C17.25,34.926,17.262,35.349,17.257,35.779z"/>
	</g>
	<g>
		<path opacity="0.37" fill="#695444" d="M23.471,42.214c0.03,0.17,0.076,1.048,0.414,0.977c0.361-0.078,0.589-2.009,0.615-2.204
			c0.124-0.95,0.356-2.415-0.045-3.329c-0.217-0.486-0.803-0.512-1.09-0.086c-0.438,0.652-0.294,1.323-0.266,2.018
			C23.132,40.476,23.32,41.345,23.471,42.214z"/>
		<path opacity="0.58" fill="#695444" d="M23.786,40.755c0.004,0.604-0.022,1.219,0.12,1.811c0.205-0.32,0.183-0.943,0.224-1.33
			c0.073-0.736-0.124-1.543,0.076-2.242c0.117-0.403,0.354-1.211-0.277-1.285c-0.705-0.081-0.358,1.43-0.268,1.787
			C23.764,39.904,23.782,40.326,23.786,40.755z"/>
	</g>
	<g>
		<path opacity="0.37" fill="#695444" d="M27.031,46.626c0.02,0.109,0.05,0.679,0.268,0.633c0.234-0.053,0.381-1.3,0.396-1.428
			c0.082-0.613,0.232-1.562-0.028-2.154c-0.14-0.313-0.519-0.33-0.704-0.054c-0.283,0.421-0.189,0.855-0.174,1.305
			C26.812,45.503,26.933,46.063,27.031,46.626z"/>
		<path opacity="0.58" fill="#695444" d="M27.234,45.683c0.004,0.391-0.014,0.789,0.079,1.172c0.132-0.209,0.117-0.611,0.143-0.861
			c0.05-0.477-0.079-0.996,0.051-1.451c0.074-0.261,0.229-0.781-0.181-0.832c-0.455-0.051-0.231,0.926-0.173,1.158
			C27.221,45.132,27.232,45.405,27.234,45.683z"/>
	</g>
	<g>
		<path opacity="0.37" fill="#695444" d="M34.318,47.107c0.02,0.11,0.049,0.679,0.268,0.633c0.234-0.051,0.38-1.3,0.396-1.426
			c0.082-0.615,0.232-1.564-0.029-2.156c-0.14-0.313-0.518-0.33-0.703-0.055c-0.284,0.422-0.189,0.857-0.174,1.307
			C34.098,45.982,34.22,46.543,34.318,47.107z"/>
		<path opacity="0.58" fill="#695444" d="M34.521,46.164c0.004,0.391-0.015,0.788,0.078,1.172c0.133-0.208,0.118-0.609,0.145-0.861
			c0.049-0.477-0.081-0.998,0.051-1.451c0.073-0.261,0.227-0.783-0.182-0.83c-0.455-0.053-0.231,0.924-0.173,1.158
			C34.507,45.614,34.52,45.885,34.521,46.164z"/>
	</g>
	<g>
		<path opacity="0.37" fill="#695444" d="M20.504,47.533c0.019,0.111,0.049,0.678,0.267,0.633c0.234-0.053,0.381-1.299,0.397-1.427
			c0.079-0.614,0.23-1.563-0.028-2.154c-0.141-0.314-0.52-0.33-0.705-0.055c-0.284,0.421-0.19,0.856-0.173,1.306
			C20.283,46.409,20.405,46.97,20.504,47.533z"/>
		<path opacity="0.58" fill="#695444" d="M20.707,46.587c0.003,0.393-0.015,0.79,0.077,1.174c0.132-0.209,0.118-0.611,0.144-0.86
			c0.049-0.477-0.079-0.998,0.051-1.451c0.075-0.261,0.229-0.783-0.181-0.832c-0.454-0.052-0.232,0.925-0.173,1.158
			C20.692,46.038,20.704,46.31,20.707,46.587z"/>
	</g>
	<g>
		<path opacity="0.37" fill="#695444" d="M14.056,48.323c0.02,0.111,0.049,0.68,0.267,0.634c0.234-0.053,0.381-1.301,0.397-1.427
			c0.082-0.613,0.232-1.563-0.028-2.154c-0.141-0.313-0.52-0.331-0.704-0.054c-0.284,0.42-0.19,0.855-0.174,1.305
			C13.836,47.2,13.958,47.761,14.056,48.323z"/>
		<path opacity="0.58" fill="#695444" d="M14.26,47.38c0.002,0.389-0.016,0.789,0.077,1.171c0.132-0.207,0.117-0.61,0.144-0.86
			c0.049-0.476-0.08-0.996,0.051-1.451c0.074-0.261,0.228-0.783-0.18-0.83c-0.456-0.055-0.232,0.924-0.174,1.156
			C14.244,46.83,14.257,47.102,14.26,47.38z"/>
	</g>
	<g>
		<path opacity="0.37" fill="#695444" d="M17.926,51.441c0.015,0.086,0.037,0.527,0.21,0.49c0.185-0.041,0.307-1.01,0.318-1.109
			c0.064-0.476,0.187-1.213-0.017-1.671c-0.109-0.243-0.409-0.255-0.558-0.04c-0.226,0.326-0.153,0.665-0.141,1.013
			C17.754,50.568,17.85,51.004,17.926,51.441z"/>
	</g>
	<g>
		<path opacity="0.37" fill="#695444" d="M12.918,52.384c0.03,0.08,0.138,0.509,0.3,0.44c0.174-0.076,0.106-1.05,0.102-1.149
			c-0.027-0.479-0.051-1.227-0.341-1.637c-0.153-0.217-0.449-0.172-0.553,0.068c-0.16,0.365-0.022,0.682,0.057,1.021
			C12.583,51.562,12.759,51.97,12.918,52.384z"/>
	</g>
	<g>
		<path opacity="0.37" fill="#695444" d="M16.805,55.335c0.058,0.063,0.313,0.424,0.439,0.3c0.135-0.134-0.284-1.015-0.325-1.104
			c-0.202-0.437-0.495-1.125-0.915-1.4c-0.222-0.147-0.483,0.004-0.49,0.266c-0.015,0.397,0.229,0.642,0.425,0.93
			C16.192,54.693,16.505,55.008,16.805,55.335z"/>
	</g>
	<g>
		<path opacity="0.37" fill="#695444" d="M9.607,52.978c0.05,0.07,0.261,0.459,0.4,0.352c0.149-0.117-0.16-1.043-0.191-1.139
			c-0.146-0.457-0.354-1.174-0.735-1.5c-0.204-0.172-0.479-0.053-0.521,0.205c-0.062,0.393,0.148,0.665,0.312,0.975
			C9.078,52.266,9.35,52.617,9.607,52.978z"/>
	</g>
	<g>
		<path opacity="0.37" fill="#695444" d="M24.334,49.593c0.023,0.084,0.099,0.519,0.266,0.461c0.18-0.062,0.184-1.037,0.184-1.137
			c0.009-0.48,0.042-1.229-0.217-1.657c-0.136-0.229-0.436-0.207-0.559,0.026c-0.184,0.353-0.072,0.676-0.018,1.022
			C24.058,48.749,24.203,49.169,24.334,49.593z"/>
	</g>
	<g>
		<path opacity="0.37" fill="#695444" d="M21.963,54.417c0.024,0.084,0.099,0.52,0.268,0.461c0.18-0.061,0.184-1.037,0.184-1.137
			c0.008-0.48,0.04-1.229-0.217-1.658c-0.137-0.229-0.437-0.205-0.559,0.027c-0.185,0.352-0.072,0.677-0.018,1.022
			C21.688,53.574,21.834,53.994,21.963,54.417z"/>
	</g>
	<g>
		<path opacity="0.37" fill="#5A483C" d="M22.045,2.47c-0.021-0.105-0.06-0.658-0.275-0.607c-0.231,0.057-0.358,1.273-0.371,1.398
			c-0.071,0.6-0.203,1.527,0.063,2.095c0.144,0.304,0.521,0.312,0.702,0.035c0.274-0.415,0.175-0.835,0.15-1.272
			C22.282,3.561,22.151,3.017,22.045,2.47z"/>
	</g>
	<g>
		<path opacity="0.37" fill="#5A483C" d="M26.854,2.485c0.016-0.085,0.143-0.509-0.031-0.532c-0.19-0.021-0.63,0.848-0.675,0.938
			c-0.224,0.426-0.586,1.08-0.549,1.576c0.021,0.27,0.3,0.381,0.513,0.227c0.322-0.23,0.367-0.57,0.475-0.904
			C26.721,3.365,26.779,2.923,26.854,2.485z"/>
	</g>
	<g>
		<path opacity="0.37" fill="#5A483C" d="M27.985,4.197c0.011-0.066,0.112-0.396-0.026-0.415c-0.147-0.017-0.491,0.661-0.526,0.731
			c-0.174,0.333-0.457,0.843-0.427,1.23c0.015,0.211,0.232,0.299,0.399,0.178c0.253-0.182,0.287-0.446,0.37-0.707
			C27.882,4.884,27.926,4.539,27.985,4.197z"/>
	</g>
	<g>
		<path opacity="0.37" fill="#5A483C" d="M24.641,4.373c-0.004-0.068,0.011-0.412-0.129-0.396c-0.146,0.02-0.311,0.763-0.328,0.839
			c-0.083,0.366-0.232,0.93-0.107,1.299c0.066,0.199,0.299,0.231,0.43,0.072c0.2-0.236,0.169-0.504,0.184-0.775
			C24.711,5.063,24.669,4.718,24.641,4.373z"/>
	</g>
	<g>
		<path opacity="0.37" fill="#5A483C" d="M31.098,4.587c0.036-0.057,0.253-0.32,0.133-0.391c-0.126-0.074-0.701,0.42-0.761,0.472
			c-0.287,0.239-0.739,0.601-0.862,0.97c-0.064,0.195,0.104,0.359,0.301,0.313c0.301-0.069,0.435-0.301,0.609-0.507
			C30.741,5.179,30.915,4.877,31.098,4.587z"/>
	</g>
	<g>
		<path opacity="0.37" fill="#5A483C" d="M11.851,4.517c-0.06-0.029-0.348-0.215-0.403-0.088c-0.057,0.137,0.502,0.648,0.557,0.702
			c0.271,0.255,0.686,0.665,1.065,0.741c0.202,0.041,0.347-0.143,0.275-0.335c-0.104-0.29-0.35-0.395-0.574-0.545
			C12.48,4.801,12.161,4.664,11.851,4.517z"/>
	</g>
	<g>
		<path opacity="0.37" fill="#5A483C" d="M15.334,4.296c-0.037-0.055-0.198-0.357-0.309-0.273c-0.116,0.09,0.118,0.81,0.143,0.884
			c0.111,0.356,0.271,0.913,0.565,1.169c0.155,0.135,0.372,0.045,0.404-0.156c0.05-0.307-0.112-0.518-0.235-0.758
			C15.745,4.853,15.533,4.578,15.334,4.296z"/>
	</g>
	<g>
		<path opacity="0.37" fill="#5A483C" d="M20.122,1.484c-0.019-0.063-0.081-0.399-0.212-0.353c-0.137,0.05-0.131,0.808-0.13,0.886
			C19.779,2.391,19.763,2.97,19.967,3.3c0.108,0.176,0.34,0.156,0.433-0.026c0.139-0.276,0.049-0.525,0.005-0.792
			C20.346,2.139,20.227,1.812,20.122,1.484z"/>
	</g>
	<g>
		<path opacity="0.37" fill="#5A483C" d="M18.302,5.028c-0.015-0.048-0.062-0.304-0.161-0.269c-0.104,0.037-0.1,0.615-0.099,0.673
			c-0.001,0.286-0.014,0.728,0.142,0.979c0.082,0.134,0.26,0.117,0.329-0.021c0.106-0.21,0.037-0.399,0.003-0.603
			C18.473,5.527,18.383,5.278,18.302,5.028z"/>
	</g>
	<path opacity="0.37" fill="#5A483C" d="M29.714,2.507c-0.005,0.006-0.017,0.02-0.019,0.023c-0.307,0.37-0.799,0.934-0.866,1.429
		c-0.035,0.265,0.214,0.433,0.455,0.327c0.363-0.158,0.479-0.482,0.651-0.785c0.128-0.223,0.231-0.459,0.328-0.697
		C30.079,2.708,29.902,2.599,29.714,2.507z"/>
	<g>
		<path opacity="0.37" fill="#5A483C" d="M16.636,2.658c-0.045-0.073-0.226-0.477-0.373-0.379c-0.156,0.106,0.084,1.051,0.109,1.148
			c0.112,0.468,0.269,1.199,0.624,1.549c0.191,0.188,0.477,0.091,0.535-0.166c0.09-0.387-0.102-0.672-0.238-0.993
			C17.115,3.406,16.869,3.039,16.636,2.658z"/>
	</g>
	<g>
		<path opacity="0.37" fill="#5A483C" d="M19.933,4.876c-0.025-0.082-0.1-0.518-0.269-0.459c-0.179,0.061-0.18,1.037-0.18,1.139
			c-0.007,0.48-0.039,1.226,0.22,1.654c0.139,0.23,0.438,0.205,0.559-0.029c0.184-0.35,0.071-0.674,0.016-1.02
			C20.209,5.72,20.062,5.3,19.933,4.876z"/>
	</g>
	<path opacity="0.37" fill="#5A483C" d="M17.957,1.161c-0.053,0.478-0.154,1.218,0.063,1.669c0.116,0.242,0.415,0.246,0.559,0.025
		c0.215-0.333,0.134-0.666,0.112-1.016c-0.02-0.297-0.073-0.59-0.134-0.881c-0.198,0.035-0.395,0.075-0.592,0.117
		C17.961,1.116,17.958,1.147,17.957,1.161z"/>
	<path opacity="0.37" fill="#5A483C" d="M24.441,0.897c-0.118,0.241-0.217,0.495-0.235,0.542c-0.18,0.447-0.478,1.132-0.393,1.625
		c0.048,0.264,0.335,0.348,0.533,0.176c0.298-0.262,0.309-0.607,0.383-0.948c0.095-0.437,0.108-0.88,0.14-1.324
		c0-0.001,0.001-0.008,0.001-0.011C24.729,0.933,24.585,0.918,24.441,0.897z"/>
	<path opacity="0.37" fill="#5A483C" d="M13.438,4.542c0.237,0.126,0.481-0.049,0.466-0.313c-0.022-0.396-0.284-0.617-0.508-0.885
		c-0.128-0.154-0.271-0.295-0.416-0.432c-0.191,0.106-0.39,0.205-0.577,0.318C12.643,3.649,12.999,4.304,13.438,4.542z"/>
	<g>
		<path opacity="0.37" fill="#695444" d="M29.444,51.428c-0.002,0.087-0.067,0.522,0.109,0.521c0.189-0.002,0.499-0.928,0.532-1.021
			c0.159-0.455,0.425-1.151,0.315-1.641c-0.059-0.262-0.351-0.334-0.538-0.151c-0.287,0.276-0.281,0.62-0.339,0.964
			C29.449,50.539,29.455,50.986,29.444,51.428z"/>
	</g>
	<g>
		<path opacity="0.37" fill="#695444" d="M26.423,55.164c0.012,0.085,0.021,0.525,0.195,0.496c0.186-0.036,0.335-1.002,0.35-1.1
			c0.08-0.474,0.225-1.209,0.032-1.672c-0.102-0.246-0.401-0.268-0.556-0.056c-0.235,0.321-0.172,0.659-0.171,1.009
			C26.276,54.287,26.357,54.726,26.423,55.164z"/>
	</g>
	<g>
		<path opacity="0.37" fill="#695444" d="M32.964,52.953c0.006,0.086-0.027,0.526,0.148,0.511c0.19-0.021,0.425-0.966,0.45-1.063
			c0.121-0.466,0.331-1.182,0.183-1.661c-0.079-0.257-0.376-0.304-0.549-0.107c-0.263,0.298-0.23,0.641-0.261,0.989
			C32.896,52.066,32.939,52.509,32.964,52.953z"/>
	</g>
	<g>
		<path opacity="0.37" fill="#695444" d="M8.518,48.323c0.019,0.111,0.049,0.68,0.267,0.634c0.235-0.053,0.382-1.301,0.396-1.427
			c0.082-0.613,0.232-1.563-0.028-2.154c-0.141-0.313-0.518-0.331-0.704-0.054c-0.284,0.42-0.189,0.855-0.173,1.305
			C8.296,47.2,8.418,47.761,8.518,48.323z"/>
		<path opacity="0.58" fill="#695444" d="M8.721,47.38c0.003,0.389-0.016,0.789,0.077,1.171c0.133-0.207,0.118-0.61,0.145-0.86
			c0.049-0.476-0.08-0.996,0.051-1.451c0.073-0.261,0.227-0.783-0.181-0.83c-0.456-0.055-0.232,0.924-0.173,1.156
			C8.705,46.83,8.719,47.102,8.721,47.38z"/>
	</g>
</g>
</svg>
