<?xml version="1.0" encoding="utf-8"?>
<!-- Generator: Adobe Illustrator 15.0.0, SVG Export Plug-In . SVG Version: 6.00 Build 0)  -->
<!DOCTYPE svg PUBLIC "-//W3C//DTD SVG 1.1//EN" "http://www.w3.org/Graphics/SVG/1.1/DTD/svg11.dtd">
<svg version="1.1" id="Layer_1" xmlns="http://www.w3.org/2000/svg" xmlns:xlink="http://www.w3.org/1999/xlink" x="0px" y="0px"
	 width="78.079px" height="119.533px" viewBox="0 0 78.079 119.533" enable-background="new 0 0 78.079 119.533"
	 xml:space="preserve">
<g>
	<g>
		<path fill="#CCC6B0" d="M50.035,35.084c-2.119-1.245-4.302-1.434-6.822,0.174c-1.819,1.158-4.367,3.556-6.658,2.159
			c-2.209-1.348-1.122-2.897,0.152-4.51c1.182-1.495,2.361-2.813,3.686-4.188c2.371-2.46,4.219-4.903,7.66-5.678
			c3.657-0.824,7.205,0.453,10.469,2.075c2.516,1.253,5.941,1.825,7.721,4.2c2.315,3.088,0.154,8.148-0.644,11.438
			c-0.479,1.98-1.478,6.556-3.848,7.255c-4.432,1.307-6.899-8.875-9.286-11.068C51.655,36.195,50.848,35.563,50.035,35.084z"/>
		<path fill="#D7D3BE" d="M64.041,45.09c-3.844,0.871-5.805-6.066-7.14-8.627c-1.243-2.383-2.967-5.297-5.938-5.576
			c-2.721-0.256-5.413,1.407-7.629,2.774c-1.13,0.696-2.248,1.622-3.303,2.417c-1.212,0.914-2.291,2.431-3.691,1.213
			c-1.697-1.476-0.844-2.852,0.367-4.384c1.182-1.495,2.361-2.813,3.686-4.188c2.371-2.46,4.219-4.903,7.66-5.678
			c3.657-0.824,7.205,0.453,10.469,2.075c2.516,1.253,5.941,1.825,7.721,4.2c2.315,3.088,0.154,8.148-0.644,11.438
			c-0.253,1.039-0.65,2.794-1.312,4.327C64.208,45.08,64.129,45.066,64.041,45.09z"/>
		<path fill="#E0DDCB" d="M36.707,32.907c1.182-1.495,2.361-2.813,3.686-4.188c2.371-2.46,4.219-4.903,7.66-5.678
			c3.657-0.824,7.205,0.453,10.469,2.075c2.516,1.253,5.941,1.825,7.721,4.2c2.315,3.088,0.154,8.148-0.644,11.438
			c-0.062,0.253-0.134,0.55-0.213,0.876c-0.665,0.508-1.436,0.795-2.253,0.645c-1.13-0.209-1.879-1.367-2.421-2.652
			c-1.228-5.688-2.854-12.982-8.369-13.045c-6.728-0.076-11.66,4.227-14.613,9.902c-0.937,0.01-1.618-0.783-1.912-1.69
			c-0.046-0.138-0.08-0.278-0.107-0.419C35.953,33.895,36.309,33.408,36.707,32.907z"/>
	</g>
	<g>
		<path fill="#E0DDCB" d="M13.04,25.365c2.596,3.438,4.629,7.197,6.265,11.338c0.7,1.768,1.118,4.244,3.41,4.416
			c2.584,0.189,2.6-1.703,2.502-3.758c-0.091-1.906-0.286-3.663-0.564-5.553c-0.444-3.031-1.169-6.194-2.045-9.129
			c-0.635-2.119-1.261-4.242-1.939-6.348c-0.858-2.652-2.303-4.877-3.934-7.145c-1.404-1.951-2.846-3.158-4.69-4.686
			c-1.599-1.324-3.156-2.673-5.062-3.561c-2.574-1.203-5.623-1.756-6.608,1.5c-1.073,3.55,0.309,8.371,2.341,11.373
			c1.835,2.715,4.01,4.649,6.319,6.955C10.502,22.236,11.832,23.764,13.04,25.365z"/>
		<path fill="#D7D3BE" d="M15.673,22.92C10.632,17.504-0.274,8.812,2.482,0.138c1.327-0.376,2.994,0.099,4.5,0.804
			c1.905,0.888,3.463,2.236,5.062,3.561c1.845,1.527,3.286,2.734,4.69,4.686c1.631,2.268,3.075,4.492,3.934,7.145
			c0.679,2.105,1.305,4.229,1.939,6.348c0.876,2.935,1.601,6.098,2.045,9.129c0.278,1.89,0.474,3.646,0.564,5.553
			c0.098,2.055,0.082,3.947-2.502,3.758c-2.149-0.16-2.652-2.34-3.283-4.072C21.467,32.885,19.492,27.027,15.673,22.92z"/>
		<path fill="#CCC6B0" d="M20.449,21.721c-1.804-5.614-3.982-9.143-6.793-13.578C12.426,6.2,9.4,3.094,7.942,1.461
			c1.481,0.854,2.782,1.949,4.102,3.041c1.845,1.527,3.286,2.734,4.69,4.686c1.631,2.268,3.075,4.492,3.934,7.145
			c0.679,2.105,1.305,4.229,1.939,6.348c0.876,2.935,1.601,6.098,2.045,9.129c0.278,1.89,0.474,3.646,0.564,5.553
			c0.098,2.055,0.082,3.947-2.502,3.758c-1.27-0.096-1.961-0.901-2.447-1.898C22.728,33.481,22.192,27.145,20.449,21.721z"/>
	</g>
	<g>
		<path fill="#C1B8A4" d="M22.888,91.162c0.447-1.361,1.197-2.695,1.651-3.586c0.625-1.225,1.856-2.658,1.093-4.092
			c-0.602-1.132-1.79-1.996-2.649-2.92c-0.121-0.131-2.489-3.533-2.671-2.963c-0.311,0.969-0.3,2.114-0.471,3.139
			c-0.264,1.557-0.991,3.412-1.484,4.924c-0.749,2.315-2.059,4.621-2.316,7.07c-0.257,2.424,1.122,4.58,2.45,6.48
			c1.978,2.844,5.045,4.793,8.365,5.747c1.573,0.454,3.329,0.524,4.052-1.147c0.634-1.469,1.11-4.053-0.137-5.32
			c-1.044-1.063-2.689-1.337-3.985-1.967c-1.124-0.546-2.264-1.186-3.194-2.027C22.402,93.416,22.402,92.635,22.888,91.162z"/>
		<path opacity="0.38" fill="#ADA189" d="M22.293,101.272c2.311-2.308-0.079-5.55-1.139-7.718c-1.421-2.906-0.089-6.305-1.79-9.287
			c-0.106-0.193-0.235-0.344-0.37-0.481c0.351-1.03,0.687-2.093,0.847-3.046c0.171-1.024,0.16-2.17,0.471-3.139
			c0.182-0.57,2.55,2.832,2.671,2.963c0.859,0.924,2.048,1.788,2.649,2.92c0.764,1.434-0.468,2.867-1.093,4.092
			c-0.454,0.891-1.204,2.225-1.651,3.586c-0.486,1.473-0.486,2.254,0.703,3.338c0.931,0.842,2.07,1.481,3.194,2.027
			c1.296,0.63,2.941,0.904,3.985,1.967c1.247,1.268,0.771,3.852,0.137,5.32c-0.723,1.672-2.479,1.602-4.052,1.147
			c-2.065-0.591-4.032-1.573-5.701-2.913C21.546,101.883,21.93,101.638,22.293,101.272z"/>
		<path fill="#ADA189" d="M21.382,87.244c-0.387-1.656-1.161-2.93-2.335-3.607c0.331-0.982,0.641-1.984,0.794-2.896
			c0.171-1.024,0.16-2.17,0.471-3.139c0.182-0.57,2.55,2.832,2.671,2.963c0.859,0.924,2.048,1.788,2.649,2.92
			c0.764,1.434-0.468,2.867-1.093,4.092c-0.454,0.891-1.204,2.225-1.651,3.586c-0.486,1.473-0.486,2.254,0.703,3.338
			c0.931,0.842,2.07,1.481,3.194,2.027c1.296,0.63,2.941,0.904,3.985,1.967c1.247,1.268,0.771,3.852,0.137,5.32
			c-0.354,0.826-0.963,1.219-1.675,1.361c1.004-1.416,0.679-4.242-0.11-5.477c-1.423-2.221-4.797-3.018-6.576-4.813
			C20.602,91.969,22.091,90.312,21.382,87.244z"/>
		<path fill="#C1B8A4" d="M74.5,111.077c-0.353,0.13-0.69,0.218-0.981,0.249c-0.812,0.076-1.834-0.222-2.65-0.334
			c-0.792-0.111-2.009-0.258-2.517-0.963c-0.871-1.207,0.124-3.612,0.647-4.838c0.755-1.773,2.471-1.361,3.69-2.314
			c0.37-0.284,2.138-2.647,2.361-1.201c1.34,0.065,1.783-0.746,1.839,0.85c0.022,0.594,0.269,0.992,0.354,1.548
			c0.086,0.559-0.121,1.102-0.11,1.666c0.013,0.726,0.575,0.665,0.841,1.398c0.42,1.165-0.491,2.417-1.478,2.985
			C75.976,110.422,75.212,110.82,74.5,111.077z"/>
		<path fill="#ADA189" d="M72.825,102.754c0.013-0.02,0.03-0.035,0.048-0.052c0.026-0.03,0.058-0.062,0.086-0.093
			c0.472-0.506,1.322-1.477,1.787-1.379c-0.682,1.355-1.204,2.633-1.125,4.158c0.779-0.063,1.21-1.057,2.05-1.064
			c0.268,1.922-2.638,2.928-2.269,4.568c0.62,0.072,1.042-0.568,1.604-0.634c0.554-0.064,0.987,0.284,1.56,0.423
			c0.473,0.111,0.885,0.125,1.26,0.039c-0.293,0.585-0.799,1.095-1.329,1.402c-0.521,0.299-1.284,0.697-1.996,0.954
			c-0.353,0.13-0.69,0.218-0.981,0.249c-0.812,0.076-1.834-0.222-2.65-0.334c-0.792-0.111-2.009-0.258-2.517-0.963
			c-0.087-0.117-0.139-0.255-0.19-0.393c-0.036-0.105-0.065-0.212-0.088-0.322c-0.018-0.083-0.036-0.168-0.043-0.26
			c-0.008-0.07-0.012-0.139-0.016-0.209c-0.029-1.23,0.601-2.756,0.984-3.654c0.755-1.773,2.471-1.361,3.69-2.314
			C72.723,102.853,72.769,102.807,72.825,102.754z"/>
		<path fill="#C1B8A4" d="M64.65,116.994c-1.451,0.348-3.071,0.391-4.074,0.391c-3.013,0-6.016,0.049-8.998,0.185
			c-1.325,0.06-2.642,0.056-3.955,0.181c-2.854,0.264-5.822,0.396-8.697,0.362c-2.141-0.026-2.952-2.036-2.336-3.88
			c1.161-3.467,4.899-2.391,7.602-2.668c3.25-0.334,5.855-2.553,8.812-3.719c1.341-0.527,2.977-1.049,4.351-0.42
			c1.548,0.714,2.846,1.105,4.586,1.326c0.865,0.113,1.774,0.016,2.611,0.313c1.044,0.372,0.905,0.946,1.339,1.869
			c0.615,1.305,2.386,2.479,1.731,4.089C67.189,116.08,65.992,116.668,64.65,116.994z"/>
		<path opacity="0.47" fill="#ADA189" d="M36.589,114.232c0.484-1.443,1.416-2.095,2.531-2.387c0.795,1.589,2.702,2.816,4.363,3.615
			c3.879,1.865,9.582,1.297,13.728,0.598c2.341-0.395,7.957-0.027,5.024-5.058c-0.421-0.72-0.736-1.616-1.268-2.403
			c0.313,0.057,0.629,0.113,0.971,0.154c0.865,0.113,1.774,0.016,2.611,0.313c1.044,0.372,0.905,0.946,1.339,1.869
			c0.615,1.305,2.386,2.479,1.731,4.089c-0.432,1.057-1.629,1.645-2.971,1.971c-1.451,0.348-3.071,0.391-4.074,0.391
			c-3.013,0-6.016,0.049-8.998,0.185c-1.325,0.06-2.642,0.056-3.955,0.181c-2.854,0.264-5.822,0.396-8.697,0.362
			C36.785,118.086,35.973,116.076,36.589,114.232z"/>
		<path fill="#ADA189" d="M36.589,114.232c1.023-3.061,4.049-2.582,6.606-2.617c-0.267,1.721,0.47,3.526,1.545,5.012
			c0.363,0.502,0.796,0.913,1.269,1.251c-2.35,0.177-4.747,0.263-7.084,0.234C36.785,118.086,35.973,116.076,36.589,114.232z"/>
		<path fill="#ADA189" d="M61.435,114.219c-3.868,1.018-7.762,1.154-11.67,0.146c-2.331-0.603-3.776-1.576-5.071-2.888
			c3.017-0.499,5.51-2.526,8.309-3.632c1.341-0.527,2.977-1.049,4.351-0.42c1.548,0.714,2.846,1.105,4.586,1.326
			c0.865,0.113,1.774,0.016,2.611,0.313c1.044,0.372,0.905,0.946,1.339,1.869c0.292,0.616,0.839,1.207,1.267,1.825
			C65.305,112.773,63.253,113.742,61.435,114.219z"/>
		<path fill="#E0DBC3" d="M39.289,62.179c4.392,1.595,8.08,7.932,10.011,10.3c2.001,2.457,3.926,1.148,6.97,1.609
			c7.704,1.162,12.572,4.703,15.681,10.43c3.948,7.274,2.359,23.283-4.585,27.096c-3.189,1.749-7.632,2.411-11.945,2.231
			c-3.709-0.159-8.649,0.185-10.402-3.669c-6.634-2.375-8.575-8.27-12.209-13.494c-4.12-5.929-11.354-8.133-13.633-15.521
			c-1.74-5.642,1.029-15.618,5.118-20.217C25.57,59.509,37.408,61.492,39.289,62.179z"/>
		<path fill="#D8D2B9" d="M23.138,62.453c0.138-0.142,0.269-0.294,0.41-0.424c0.283-0.249,0.606-0.465,0.965-0.646
			c0.978-0.497,2.208-0.762,3.433-0.928c4.038,0.166,10.05,1.251,11.343,1.724c2.461,0.894,4.695,3.269,6.526,5.606
			c-1.337,0.109-3.183-0.505-4.242,0.135c-0.983,0.594-1.392,1.801-1.972,2.75c-1.898,3.107-5.757,2.341-8.213,4.546
			c-3.957,3.556-1.583,9.083,1.982,11.737c4.003,2.982,7.786,3.66,10.471,8.209c0.243,0.41,0.719,4.428,1.076,8.918
			c0.21,2.65,0.242,6.409,0.1,6.096c-6.634-2.375-8.575-8.27-12.209-13.494c-4.12-5.929-11.354-8.133-13.633-15.521
			C17.606,76.071,19.709,67.466,23.138,62.453z"/>
		<path opacity="0.62" fill="#C1B8A4" d="M40.265,62.617c0.24,0.127,0.477,0.268,0.711,0.42c0.09,0.055,0.177,0.115,0.26,0.171
			c0.186,0.127,0.368,0.262,0.548,0.398c0.149,0.114,0.295,0.233,0.442,0.356c0.086,0.072,0.171,0.145,0.256,0.218
			c0.275,0.237,0.544,0.485,0.809,0.746c0.007,0.005,0.012,0.009,0.016,0.016c-0.58,0.843-1.098,1.718-1.593,2.609
			c-1.867,2.038-3.931,4.14-6.616,4.993c-2.308,0.73-4.521,0.779-6.895,0.969c-3.67,0.295-4.063,4.938-2.415,7.658
			c0.59,0.978,1.837,1.898,2.319,2.926c0.577,1.23,0.563,2.399,1.396,3.72c1.597,2.534,3.71,4.731,5.162,7.353
			c0.605,1.102,2.294,5.725,1.263,6.504c-1.005-1.643-1.978-3.354-3.12-4.992c-4.12-5.929-11.354-8.133-13.633-15.521
			c-1.569-5.089,0.534-13.694,3.963-18.707c0.138-0.142,0.269-0.294,0.41-0.424c0.283-0.249,0.606-0.465,0.965-0.646
			c0.729-0.371,1.601-0.615,2.508-0.78c0.306-0.051,0.607-0.104,0.925-0.147c4.038,0.166,10.05,1.251,11.343,1.724
			c0.277,0.1,0.547,0.224,0.815,0.358C40.16,62.563,40.212,62.588,40.265,62.617z"/>
		<path fill="#D8D2B9" d="M45.793,89.711c1.049-1.313,2.085-2.588,3.303-3.592c1.085-0.897,2.315-1.584,3.832-1.902
			c0.372-0.08,0.748-0.143,1.123-0.207c-4.326,4.229-6.071,12.249-3.766,17.291c2.314,5.063,8.165,8.007,13.571,8.216
			c2.947,0.117,5.382-0.45,7.339-1.776c-1.025,1.672-2.299,3.033-3.831,3.873c-3.189,1.749-7.632,2.411-11.945,2.231
			c-2.886-0.122-6.449,0.188-8.868-1.714C40.54,107.396,41.445,95.15,45.793,89.711z"/>
		<path opacity="0.56" fill="#C1B8A4" d="M45.793,89.711c0.776-0.975,1.546-1.921,2.388-2.758
			c-3.472,5.336-4.941,12.367-1.879,17.717c3.215,5.611,9.946,7.756,16.209,6.9c0.712-0.068,1.431-0.186,2.152-0.367
			c1.609-0.404,4.076-1.072,5.729-2.318c-0.867,1.143-1.868,2.092-3.028,2.729c-3.189,1.749-7.632,2.411-11.945,2.231
			c-2.886-0.122-6.449,0.188-8.868-1.714C40.54,107.396,41.445,95.15,45.793,89.711z"/>
		<g>
			<path fill="#E0DBC3" d="M39.473,85.164c-0.705-1.449-1.607-1.941-3.171-2.131c-1.287-0.158-4.26-0.336-4.178,0.354
				c0.269,2.3,2.312,11.602,2.319,16.277c0.013,3.58,0.162,8.059-1.116,11.475c-0.914,2.45-4.645,4.68-1.624,7.305
				c1.739,1.51,7.152,1.346,8.966,0.148c1.945-1.285,1.842-4.451,1.785-6.75C42.292,104.955,40.827,87.933,39.473,85.164z"/>
			<path fill="#F2EDDF" d="M34.444,99.664c-0.007-4.438-1.844-13.028-2.262-15.858c0.835,1.95,1.038,3.401,1.589,5.526
				c1.777,6.836,1.955,17.665,0.711,21.105c-0.852,2.354-1.855,3.867-3.822,5.154c0.452-1.498,2.102-2.934,2.668-4.453
				C34.606,107.723,34.457,103.244,34.444,99.664z"/>
			<path fill="#C1B8A4" d="M38.225,117.506c2.75-2.226,2.816-6.438,2.85-9.713c0.051-4.902-0.431-9.695-1.045-14.551
				c-0.339-2.66-0.335-5.295-1.312-7.818c-0.202-0.523-0.745-1.26-0.781-1.945c0.64,0.323,1.126,0.836,1.536,1.686
				c0.324,0.664,0.655,2.146,0.972,4.109c0.365,2.354,0.656,4.721,0.901,7.09c0.012,0.092,0.021,0.186,0.03,0.277
				c0.08,0.771,0.154,1.545,0.229,2.319c0.32,3.45,0.577,6.956,0.726,9.784c0.041,0.867,0.084,1.738,0.109,2.607
				c0.005,0.166,0.012,0.332,0.014,0.49c0.057,2.299,0.16,5.465-1.785,6.75c-1.813,1.197-7.227,1.361-8.966-0.148
				c-0.152-0.133-0.278-0.266-0.396-0.396C33.55,119.035,36.182,119.161,38.225,117.506z"/>
		</g>
		<path opacity="0.59" fill="#F2EDDF" d="M70.136,84.842c1.737,5.649,2.455,14.083-4.573,16.254
			c-3.618,1.121-7.919,0.684-9.077-3.425c-0.643-2.284-1.146-5.224-0.252-7.487c0.574-1.459,1.792-2.577,2.072-4.158
			c0.326-1.85-0.877-4.389-2.863-4.724c-2.031-0.338-3.563,1.562-5.454,1.923c-2.124,0.408-3.617-0.626-5.394-1.484
			c-1.965-0.943-3.352-0.533-5.309-0.021c-1.875,0.491-3.303-0.493-3.113-2.633c0.246-2.811,2.596-2.605,4.095-4.424
			c1.273-1.547,0.459-4.448,1.834-5.9c1.863-1.971,4.796,1.9,5.778,3.253c1.305,1.798,2.406,3.631,4.805,3.978
			c3.071,0.445,6.175,0.445,9.243,0.908C66.02,77.518,68.955,81.006,70.136,84.842z"/>
	</g>
	<path fill="#E0DBC3" d="M17.517,46.381c1.132-3.404,1.406-9.002,4.787-11.241c2.016-1.336,4.818-2.103,7.692-2.239
		c0-0.004,0-0.012-0.004-0.016c0.04,0.002,0.082,0.006,0.121,0.01c0.04-0.004,0.08-0.008,0.118-0.01c0,0.004,0,0.012,0,0.016
		c2.872,0.137,5.677,0.903,7.69,2.239c3.382,2.239,3.656,7.837,4.785,11.241c2.641,7.957,4.889,12.717-0.884,19.767
		c-2.299,2.81-5.895,4.927-9.663,5.791c-0.491,0.112-1.126,0.19-1.736,0.222c0,0.008,0,0.016,0,0.02
		c-0.102,0-0.207-0.006-0.311-0.008c-0.104,0.002-0.211,0.008-0.311,0.008c0-0.004,0-0.012,0-0.02
		c-0.613-0.031-1.244-0.109-1.738-0.222c-3.768-0.864-7.362-2.981-9.662-5.791C12.628,59.098,14.878,54.338,17.517,46.381z"/>
	<path opacity="0.35" fill="#F2EDDF" d="M35.306,60.148c-0.15,0.587-0.341,1.158-0.627,1.695c-1.173,2.209-2.676,2.021-4.791,1.879
		c-1.945-0.131-3.431,0.203-4.494-1.76c-0.809-1.49-0.827-3.316-1.375-4.897c-1.045-3.015-5.56-4.247-5.737-7.621
		c-0.136-2.526,1.364-6.365,3.236-8.104c1.913-1.771,4.438-2.632,7.013-2.766c2.01-0.105,4.939-0.305,6.838,0.376
		c3.39,1.217,5.649,4.704,6.384,8.103c0.947,4.398-4.095,5.648-5.452,9.006C35.779,57.351,35.653,58.795,35.306,60.148z"/>
	<path fill="#D7D3BE" d="M17.517,46.381c1.132-3.404,1.406-9.002,4.787-11.241c1.318-0.874,2.978-1.498,4.771-1.869
		c-4.868,2.548-7.509,8.663-8.487,14.312c-1.636,9.443-1.97,19.402,9.425,21.44c8.604,1.538,17.05-7.192,14.785-15.729
		c-1.515-5.707-1.672-13.979-5.785-18.686c0.316,0.168,0.624,0.343,0.909,0.532c3.382,2.239,3.656,7.837,4.785,11.241
		c2.641,7.957,4.889,12.717-0.884,19.767c-2.299,2.81-5.895,4.927-9.663,5.791c-0.491,0.112-1.126,0.19-1.736,0.222v0.02
		c-0.102,0-0.207-0.006-0.311-0.008c-0.104,0.002-0.211,0.008-0.311,0.008v-0.02c-0.613-0.031-1.244-0.109-1.738-0.222
		c-3.768-0.864-7.362-2.981-9.662-5.791C12.628,59.098,14.878,54.338,17.517,46.381z"/>
	<path fill="#F2EDDF" d="M32.667,59.227c0.349-0.711,0.5-1.578,0.56-2.365c0.201-2.52,0.054-8.3-2.882-9.336
		c-3.597-1.266-3.664,9.098-3.119,10.963c0.396,1.377,2.11,2.327,3.499,2.177C31.689,60.563,32.292,59.984,32.667,59.227z"/>
	<g>
		<path fill="#F2EDDF" d="M42.421,51.902c-0.061,0.78-0.24,1.568-0.862,1.972c-1.552,1.008-3.307-1.124-5.045-0.113
			c-3.285,1.917-2.256-2.101-1.651-4.103c0.596-1.973,3.275-7.309,6.054-5.141c1.438,1.123,1.648,4.381,1.556,6.057
			C42.455,50.959,42.459,51.428,42.421,51.902z"/>
		<g>
			<path fill="#010101" d="M39.952,46.969c1.141,0.412,1.784,1.984,1.447,3.516c-0.341,1.527-1.539,2.43-2.673,2.018
				c-1.137-0.416-1.781-1.986-1.442-3.516C37.621,47.455,38.821,46.555,39.952,46.969z"/>
			<path fill="#FFFFFF" d="M40.514,48.822c0.213,0.079,0.315,0.459,0.229,0.846c-0.087,0.392-0.331,0.645-0.541,0.567
				c-0.213-0.079-0.314-0.457-0.23-0.847C40.055,49,40.299,48.748,40.514,48.822z"/>
		</g>
	</g>
	<g>
		<path fill="#F2EDDF" d="M17.898,51.902c0.063,0.78,0.241,1.568,0.861,1.972c1.553,1.008,3.312-1.124,5.049-0.113
			c3.285,1.917,2.254-2.101,1.648-4.103c-0.596-1.973-3.277-7.309-6.052-5.141c-1.437,1.123-1.649,4.381-1.557,6.057
			C17.871,50.959,17.863,51.428,17.898,51.902z"/>
		<g>
			<path fill="#010101" d="M21.066,46.969c1.132,0.412,1.779,1.984,1.439,3.516c-0.338,1.527-1.535,2.43-2.671,2.018
				c-1.136-0.416-1.782-1.986-1.444-3.516C18.732,47.455,19.928,46.555,21.066,46.969z"/>
			<path fill="#FFFFFF" d="M21.623,48.822c0.215,0.079,0.317,0.459,0.23,0.846c-0.088,0.392-0.331,0.645-0.541,0.567
				c-0.214-0.079-0.316-0.457-0.231-0.847C21.167,49,21.41,48.748,21.623,48.822z"/>
		</g>
	</g>
	<path fill="#93261E" d="M28.322,63.461c0.234-0.146,0.46-0.3,0.688-0.455c0.326-0.223,0.346-0.395,0.59-0.685
		c0.753-0.901,1.754,1.226,2.203,1.619c0.624,0.537,1.899,0.449,2.627,0.153c-0.984,0.801-1.468,1.583-2.026,2.717
		c-0.311,0.634-0.596,1.18-1.278,1.451c-0.883,0.348-2.108,0.288-2.794-0.391c-0.78-0.768-1.156-1.785-1.852-2.605
		c-0.583-0.687-1.36-1.188-1.883-1.9c0.289,0.391,1.323,0.74,1.781,0.779c0.627,0.059,1.149-0.219,1.668-0.516
		C28.14,63.574,28.23,63.52,28.322,63.461z"/>
	<path fill="#FFFFFF" d="M32.037,66.307c-0.021,0.048-0.04,0.093-0.061,0.139c-0.164,0.342-0.854,0.662-1.246,0.443
		c-0.351-0.193-0.394-0.772-0.56-1.169c-0.083,0.286-0.138,0.577-0.215,0.866c-0.097,0.355-0.067,0.383-0.487,0.383
		c-0.254-0.003-0.606,0.044-0.833-0.072c-0.235-0.119-0.302-0.371-0.424-0.623c-0.282-0.582-0.479-1.129-0.654-1.74
		c-0.062-0.213-0.274-0.607-0.243-0.832c0.037-0.281,0.46-0.45,0.66-0.664c0.647-0.685,1.183-1.744,2.252-1.67
		c0.523,0.037,0.938,0.177,1.269,0.617c0.349,0.459,0.422,1.076,0.819,1.506c0.191,0.203,0.443,0.168,0.495,0.49
		c0.047,0.285-0.192,0.646-0.288,0.902C32.354,65.336,32.224,65.865,32.037,66.307z"/>
	<path fill="#D7D2CA" d="M31.511,64.457c-0.353-0.229-0.654-0.434-1.065-0.539c-0.978-0.256-1.253,0.739-2.853,0.719
		c-0.011-0.033-0.023-0.067-0.036-0.104c-0.062-0.213-0.274-0.607-0.243-0.832c0.037-0.281,0.46-0.45,0.66-0.664
		c0.647-0.685,1.183-1.744,2.252-1.67c0.523,0.037,0.938,0.177,1.269,0.617c0.349,0.459,0.422,1.076,0.819,1.506
		c0.191,0.203,0.443,0.168,0.495,0.49c0.035,0.207-0.083,0.456-0.187,0.677C32.208,64.64,31.787,64.635,31.511,64.457z"/>
	<path fill="#F2EDDF" d="M30.076,58.766h0.118c3.809-1.283,6.26,1.277,6.26,3.334c0,0.424-0.922,1.912-2.364,2.205
		c-1.731,0.26-3.34-0.951-3.954-2.43c-0.618,1.479-2.223,2.689-3.958,2.43c-0.801-0.117-2.372-1.453-2.37-2.205
		C23.812,60.033,26.237,57.472,30.076,58.766z"/>
	<path opacity="0.72" fill="#C1B8A4" d="M24.069,60.893c0.059,0.271,0.166,0.537,0.351,0.793c0.718,0.998,2.491,1.494,3.534,0.689
		c0.594-0.459,0.905-1.063,1.021-1.718c0.073,0.031,0.145,0.075,0.24,0.078c0.014,0.001,0.034-0.001,0.05-0.001
		c0.565,0.284,1.201,0.473,1.81,0.451c0.054,0.285,0.178,0.556,0.392,0.787c0.856,0.922,2.593,1.097,3.687,0.514
		c0.488-0.262,0.928-0.652,1.205-1.088c0.063,0.235,0.097,0.473,0.097,0.701c0,0.424-0.922,1.912-2.364,2.205
		c-1.731,0.26-3.34-0.951-3.954-2.43c-0.618,1.479-2.223,2.689-3.958,2.43c-0.801-0.117-2.372-1.453-2.37-2.205
		C23.808,61.703,23.901,61.293,24.069,60.893z"/>
	<path fill="#A39781" d="M23.828,62.193c0.892,1.848,4.313,2.785,5.381,0.781c0.241-0.453,0.416-0.919,0.579-1.404
		c0.008-0.018,0.029-0.035,0.053-0.049c0.048-0.047,0.165-0.066,0.29-0.066c0.122,0,0.239,0.02,0.287,0.066
		c0.024,0.014,0.044,0.031,0.052,0.049c0.166,0.485,0.339,0.951,0.58,1.404c1.072,2.004,4.489,1.066,5.382-0.781
		c0.069-0.145-0.044,0.251-0.116,0.395c-0.844,1.758-2.096,2.028-3.925,1.831c-1.053-0.114-1.683-0.867-2.117-1.735
		c-0.048-0.105-0.097-0.217-0.143-0.324c-0.051,0.107-0.098,0.219-0.147,0.324c-0.434,0.868-1.062,1.621-2.116,1.735
		c-1.828,0.197-3.058-0.024-3.908-1.781C23.894,62.494,23.755,62.049,23.828,62.193z"/>
	<g>
		<path fill="#773C26" d="M31.222,56.568c0.541,0.066,1.075,0.221,1.488,0.542c0.925,0.705,0.997,1.733,0.346,2.647
			c-0.579,0.813-1.287,1.738-2.176,2.234c-0.938,0.523-1.906-0.334-2.484-0.991c-0.558-0.636-1.187-1.347-1.469-2.157
			c-0.584-1.67,2.112-2.278,3.273-2.315C30.526,56.518,30.877,56.524,31.222,56.568z"/>
		<path fill="#522121" d="M27.573,57.268c-0.011,0.416,0.055,0.843,0.218,1.24c0.652,1.602,2.563,2.237,4.134,1.621
			c0.729-0.285,1.284-0.845,1.555-1.498c-0.02,0.375-0.16,0.758-0.423,1.127c-0.579,0.813-1.287,1.738-2.176,2.234
			c-0.938,0.523-1.906-0.334-2.484-0.991c-0.558-0.636-1.187-1.347-1.469-2.157C26.684,58.144,27.02,57.631,27.573,57.268z"/>
		<path fill="#FFFFFF" d="M30.904,58.309c-0.314-0.057-0.622-0.122-0.9-0.134c-0.27-0.009-1.398,0.043-1.574-0.255
			c-0.488-0.828,1.994-0.958,2.365-0.883c0.414,0.084,0.904,0.242,1.287,0.414c0.358,0.16,0.661,0.775,0.099,0.917
			C31.798,58.465,31.346,58.393,30.904,58.309z"/>
	</g>
</g>
</svg>
