<svg xmlns="http://www.w3.org/2000/svg" xmlns:xlink="http://www.w3.org/1999/xlink" preserveAspectRatio="xMidYMid" width="60" height="56" viewBox="0 0 60 56">
  <defs>
    <style>

      .cls-3 {
        fill: #fbb713;
      }

      .cls-4 {
        fill: #020403;
        opacity: 0.25;
      }

      .cls-5 {
        fill: #020403;
        opacity: 0.35;
      }

      .cls-7 {
        fill: #0cb04a;
      }

      .cls-9 {
        fill: #2476ff;
      }

      .cls-12 {
        fill: #ff3a2f;
      }
    </style>
  </defs>
  <g id="group-98svg">
    <path d="M51.196,4.185 C62.912,15.900 62.912,34.896 51.196,46.613 C39.480,58.328 20.485,58.328 8.769,46.613 C-2.946,34.896 -2.946,15.900 8.769,4.185 C14.372,-1.419 23.457,-1.419 29.060,4.185 C29.060,4.185 40.129,15.254 40.129,15.254 C41.146,16.272 42.800,16.272 43.817,15.254 C44.837,14.234 44.837,12.583 43.817,11.564 C41.781,9.526 41.781,6.223 43.817,4.185 C45.854,2.148 49.158,2.148 51.196,4.185 Z" id="path-1" class="cls-3" fill-rule="evenodd"/>
    <path d="M23.843,2.881 C23.843,2.881 34.911,13.949 34.911,13.949 C35.929,14.967 40.191,17.576 41.209,16.558 C41.247,16.519 41.274,16.474 41.309,16.434 C41.309,16.434 29.060,4.185 29.060,4.185 C26.466,1.590 23.123,0.213 19.727,0.021 C21.215,0.711 22.616,1.652 23.843,2.881 Z" id="path-2" class="cls-4" fill-rule="evenodd"/>
    <path d="M51.196,4.185 C49.788,2.777 47.781,2.366 46.000,2.904 C57.693,14.621 57.687,33.599 45.978,45.308 C38.935,52.351 29.265,55.127 20.123,53.703 C30.646,57.358 42.790,55.018 51.196,46.613 C62.912,34.896 62.912,15.900 51.196,4.185 Z" id="path-3" class="cls-5" fill-rule="evenodd"/>
    <path d="M17.453,36.849 C18.980,35.322 21.459,35.322 22.986,36.849 C24.515,38.376 24.515,40.855 22.986,42.382 C21.459,43.910 18.980,43.910 17.453,42.382 C15.925,40.855 15.925,38.376 17.453,36.849 Z" id="path-4" class="cls-5" fill-rule="evenodd"/>
    <path d="M16.148,35.544 C17.675,34.017 20.154,34.017 21.682,35.544 C23.210,37.071 23.210,39.551 21.682,41.077 C20.154,42.606 17.675,42.606 16.148,41.077 C14.621,39.551 14.621,37.071 16.148,35.544 Z" id="path-5" class="cls-7" fill-rule="evenodd"/>
    <path d="M14.871,23.554 C15.890,24.573 15.890,26.223 14.871,27.243 C13.852,28.262 12.201,28.262 11.182,27.243 C10.162,26.223 10.162,24.573 11.182,23.554 C12.201,22.536 13.852,22.536 14.871,23.554 Z" id="path-6" class="cls-5" fill-rule="evenodd"/>
    <path d="M13.566,23.554 C14.585,24.573 14.585,26.223 13.566,27.243 C12.547,28.262 10.896,28.262 9.877,27.243 C8.857,26.223 8.857,24.573 9.877,23.554 C10.896,22.536 12.547,22.536 13.566,23.554 Z" id="path-7" class="cls-9" fill-rule="evenodd"/>
    <path d="M33.134,45.150 C31.605,43.623 31.604,41.145 33.134,39.616 C34.660,38.089 37.139,38.089 38.666,39.616 C40.195,41.145 40.195,43.623 38.666,45.150 C37.138,46.678 34.662,46.678 33.134,45.150 Z" id="path-8" class="cls-5" fill-rule="evenodd"/>
    <path d="M23.908,10.102 C25.945,12.136 25.945,15.443 23.908,17.480 C21.873,19.516 18.567,19.516 16.530,17.480 C14.494,15.443 14.494,12.136 16.530,10.102 C18.567,8.065 21.873,8.065 23.908,10.102 Z" id="path-9" class="cls-5" fill-rule="evenodd"/>
    <path d="M22.603,8.797 C24.641,10.833 24.641,14.138 22.603,16.175 C20.569,18.212 17.263,18.212 15.226,16.175 C13.189,14.138 13.189,10.833 15.226,8.797 C17.263,6.760 20.569,6.760 22.603,8.797 Z" id="path-10" class="cls-12" fill-rule="evenodd"/>
    <path d="M31.829,43.846 C30.301,42.319 30.300,39.841 31.829,38.312 C33.356,36.785 35.835,36.785 37.362,38.312 C38.891,39.841 38.891,42.319 37.362,43.846 C35.833,45.374 33.357,45.374 31.829,43.846 Z" id="path-11" class="cls-12" fill-rule="evenodd"/>
  </g>
</svg>
