<svg xmlns="http://www.w3.org/2000/svg" xmlns:xlink="http://www.w3.org/1999/xlink" preserveAspectRatio="xMidYMid" width="60" height="50" viewBox="0 0 60 50">
  <defs>
    <style>

      .cls-3 {
        fill: #fbb713;
      }

      .cls-4 {
        fill: #ffffff;
      }

      .cls-5 {
        fill: #020403;
        opacity: 0.2;
      }

      .cls-6 {
        fill: #020403;
        opacity: 0.35;
      }

      .cls-8 {
        fill: #142a3b;
      }

      .cls-9 {
        fill: #2476ff;
      }
    </style>
  </defs>
  <g id="group-141svg">
    <path d="M5.103,13.000 C1.977,16.000 0.155,22.471 0.155,28.558 C0.155,37.453 4.042,46.000 10.208,50.000 C10.208,50.000 49.887,50.000 49.887,50.000 C56.053,46.000 59.940,37.453 59.940,28.558 C59.940,22.471 58.118,16.000 54.992,13.000 C54.992,13.000 5.103,13.000 5.103,13.000 Z" id="path-1" class="cls-3" fill-rule="evenodd"/>
    <path d="M9.497,45.225 C9.153,45.225 8.818,45.046 8.632,44.728 C5.999,40.204 4.549,34.655 4.549,29.102 C4.549,26.285 4.920,23.523 5.654,20.892 C5.803,20.360 6.353,20.049 6.886,20.197 C7.417,20.345 7.729,20.896 7.581,21.429 C6.896,23.886 6.549,26.467 6.549,29.102 C6.549,34.307 7.903,39.499 10.361,43.721 C10.639,44.198 10.477,44.810 9.999,45.089 C9.841,45.181 9.668,45.225 9.497,45.225 Z" id="path-2" class="cls-4" fill-rule="evenodd"/>
    <path d="M54.992,12.914 C54.992,12.914 49.979,12.914 49.979,12.914 C52.028,16.590 53.198,21.157 53.198,25.917 C53.198,34.653 49.311,43.374 43.145,47.346 C43.145,47.346 7.047,47.346 7.047,47.346 C8.017,48.370 9.073,49.264 10.208,49.995 C10.208,49.995 49.887,49.995 49.887,49.995 C56.053,46.022 59.940,37.302 59.940,28.566 C59.940,22.586 58.118,16.887 54.992,12.914 Z" id="path-3" class="cls-5" fill-rule="evenodd"/>
    <path d="M21.042,36.012 C21.042,36.012 15.568,36.012 15.568,36.012 C15.568,36.012 15.568,38.709 15.568,38.709 C15.568,38.709 22.774,38.709 22.774,38.709 C22.092,37.968 21.502,37.081 21.042,36.012 Z" id="path-4" class="cls-6" fill-rule="evenodd"/>
    <path d="M46.000,29.321 C46.000,29.321 46.000,36.063 46.000,36.063 C46.000,36.063 39.318,36.054 39.318,36.054 C37.576,40.100 34.080,41.458 30.048,41.458 C27.877,41.458 25.874,41.204 24.205,40.150 C26.096,43.166 29.215,44.381 32.744,44.381 C36.776,44.381 40.272,42.796 42.015,38.751 C42.015,38.751 49.012,38.751 49.012,38.751 C49.012,38.751 49.012,29.312 49.012,29.312 C49.012,29.312 46.000,29.321 46.000,29.321 Z" id="path-5" class="cls-6" fill-rule="evenodd"/>
    <path d="M46.000,27.000 C46.000,27.000 39.318,27.000 39.318,27.000 C37.576,25.000 34.080,21.370 30.048,21.370 C26.016,21.370 22.519,25.000 20.777,27.000 C20.777,27.000 11.000,27.000 11.000,27.000 C11.000,27.000 11.000,36.000 11.000,36.000 C11.000,36.000 20.777,36.000 20.777,36.000 C22.519,41.000 26.016,41.630 30.048,41.630 C34.080,41.630 37.576,41.000 39.318,36.000 C39.318,36.000 46.000,36.000 46.000,36.000 C46.000,36.000 46.000,27.000 46.000,27.000 Z" id="path-6" class="cls-8" fill-rule="evenodd"/>
    <path d="M54.962,7.166 C54.962,7.166 51.972,8.000 54.962,13.000 C54.962,13.000 4.999,13.000 4.999,13.000 C7.989,8.000 4.999,7.098 4.999,7.098 C4.999,7.098 54.962,7.166 54.962,7.166 Z" id="path-7" class="cls-9" fill-rule="evenodd"/>
    <path d="M54.516,7.003 C54.516,7.003 5.549,7.003 5.549,7.003 C5.549,7.003 6.437,7.879 6.390,9.703 C6.390,9.703 50.984,9.726 50.984,9.726 C50.984,9.726 49.341,10.760 49.715,12.946 C49.715,12.946 55.029,12.946 55.029,12.946 C52.039,8.901 54.516,7.003 54.516,7.003 Z" id="path-8" class="cls-6" fill-rule="evenodd"/>
    <path d="M60.000,8.000 C60.000,8.000 -0.000,8.000 -0.000,8.000 C-0.000,8.000 -0.000,-0.000 -0.000,-0.000 C-0.000,-0.000 60.000,-0.000 60.000,-0.000 C60.000,-0.000 60.000,8.000 60.000,8.000 Z" id="path-9" class="cls-8" fill-rule="evenodd"/>
    <path d="M49.353,-0.000 C49.353,-0.000 49.353,8.000 49.353,8.000 C49.353,8.000 60.000,8.000 60.000,8.000 C60.000,8.000 59.940,-0.000 59.940,-0.000 C59.940,-0.000 49.353,-0.000 49.353,-0.000 Z" id="path-10" class="cls-6" fill-rule="evenodd"/>
  </g>
</svg>
