<svg xmlns="http://www.w3.org/2000/svg" xmlns:xlink="http://www.w3.org/1999/xlink" preserveAspectRatio="xMidYMid" width="61" height="54" viewBox="0 0 61 54">
  <defs>
    <style>

      .cls-3 {
        fill: #142a3b;
      }

      .cls-4 {
        fill: #000000;
        opacity: 0.35;
      }

      .cls-5 {
        fill: #ededed;
      }

      .cls-14 {
        fill: #2476ff;
      }

      .cls-16 {
        fill: #ff3a2f;
      }

      .cls-17 {
        fill: #fbb713;
      }
    </style>
  </defs>
  <g id="group-286svg">
    <path d="M59.987,52.993 C59.987,52.993 -0.013,52.993 -0.013,52.993 C-0.013,52.993 -0.013,0.015 -0.013,0.015 C-0.013,0.015 59.987,0.015 59.987,0.015 C59.987,0.015 59.987,52.993 59.987,52.993 Z" id="path-1" class="cls-3" fill-rule="evenodd"/>
    <path d="M56.237,0.015 C56.237,0.015 56.237,50.181 56.237,50.181 C56.237,50.181 -0.013,50.181 -0.013,50.181 C-0.013,50.181 -0.013,52.993 -0.013,52.993 C-0.013,52.993 59.987,52.993 59.987,52.993 C59.987,52.993 59.987,0.015 59.987,0.015 C59.987,0.015 56.237,0.015 56.237,0.015 Z" id="path-2" class="cls-4" fill-rule="evenodd"/>
    <path d="M45.306,26.504 C45.306,37.080 36.732,45.653 26.157,45.653 C15.581,45.653 7.008,37.080 7.008,26.504 C7.008,15.929 15.581,7.355 26.157,7.355 C36.732,7.355 45.306,15.929 45.306,26.504 Z" id="path-3" class="cls-5" fill-rule="evenodd"/>
    <path d="M38.072,11.529 C42.476,15.038 45.306,20.436 45.306,26.504 C45.306,37.080 36.732,45.653 26.157,45.653 C22.862,45.653 19.762,44.820 17.054,43.354 C20.326,45.960 24.461,47.528 28.970,47.528 C39.545,47.528 48.118,38.955 48.118,28.379 C48.118,21.098 44.055,14.768 38.072,11.529 Z" id="path-4" class="cls-4" fill-rule="evenodd"/>
    <path d="M29.428,26.504 C29.428,28.310 27.964,29.775 26.157,29.775 C24.350,29.775 22.886,28.310 22.886,26.504 C22.886,24.697 24.350,23.233 26.157,23.233 C27.964,23.233 29.428,24.697 29.428,26.504 Z" id="path-5" class="cls-3" fill-rule="evenodd"/>
    <path d="M26.157,23.233 C25.996,23.233 25.843,23.257 25.688,23.280 C27.271,23.509 28.491,24.858 28.491,26.504 C28.491,28.150 27.271,29.499 25.688,29.728 C25.843,29.750 25.996,29.775 26.157,29.775 C27.963,29.775 29.428,28.310 29.428,26.504 C29.428,24.697 27.963,23.233 26.157,23.233 Z" id="path-6" class="cls-4" fill-rule="evenodd"/>
    <path d="M55.719,10.547 C55.719,12.772 53.914,14.577 51.689,14.577 C49.463,14.577 47.659,12.772 47.659,10.547 C47.659,8.321 49.463,6.517 51.689,6.517 C53.914,6.517 55.719,8.321 55.719,10.547 Z" id="path-7" class="cls-5" fill-rule="evenodd"/>
    <path d="M54.339,7.532 C55.179,8.270 55.719,9.341 55.719,10.547 C55.719,12.772 53.914,14.577 51.689,14.577 C51.423,14.577 51.165,14.548 50.914,14.499 C51.624,15.123 52.544,15.514 53.564,15.514 C55.790,15.514 57.594,13.710 57.594,11.484 C57.594,9.524 56.193,7.894 54.339,7.532 Z" id="path-8" class="cls-4" fill-rule="evenodd"/>
    <path d="M9.045,45.653 C9.045,46.777 8.133,47.690 7.008,47.690 C5.883,47.690 4.971,46.777 4.971,45.653 C4.971,44.528 5.883,43.616 7.008,43.616 C8.133,43.616 9.045,44.528 9.045,45.653 Z" id="path-9" class="cls-5" fill-rule="evenodd"/>
    <path d="M8.833,44.765 C8.965,45.034 9.045,45.333 9.045,45.653 C9.045,46.777 8.133,47.690 7.008,47.690 C6.688,47.690 6.390,47.610 6.120,47.478 C6.451,48.156 7.141,48.627 7.945,48.627 C9.070,48.627 9.982,47.715 9.982,46.590 C9.982,45.785 9.511,45.096 8.833,44.765 Z" id="path-10" class="cls-4" fill-rule="evenodd"/>
    <path d="M39.733,31.524 C39.475,31.524 39.218,31.425 39.022,31.228 C38.634,30.835 38.637,30.201 39.029,29.813 C39.029,29.813 40.666,28.193 40.666,28.193 C41.058,27.802 41.058,27.160 40.663,26.766 C40.074,26.176 39.753,25.360 39.783,24.528 C39.812,23.723 40.166,22.958 40.759,22.415 C40.759,22.415 50.691,10.663 50.691,10.663 C51.047,10.241 51.678,10.188 52.100,10.545 C52.522,10.901 52.575,11.532 52.218,11.954 C52.218,11.954 42.131,23.871 42.131,23.871 C41.916,24.057 41.792,24.316 41.782,24.600 C41.771,24.884 41.876,25.151 42.077,25.352 C43.251,26.526 43.251,28.436 42.077,29.610 C42.077,29.610 40.437,31.235 40.437,31.235 C40.241,31.427 39.987,31.524 39.733,31.524 Z" id="path-11" class="cls-4" fill-rule="evenodd"/>
    <path d="M35.651,30.935 C35.396,30.935 35.140,30.837 34.944,30.642 C34.554,30.251 34.554,29.619 34.944,29.228 C34.944,29.228 38.788,25.384 38.788,25.384 C39.183,24.989 39.183,24.348 38.788,23.953 C38.199,23.364 37.878,22.548 37.908,21.715 C37.938,20.882 38.317,20.091 38.948,19.546 C38.948,19.546 50.237,9.790 50.237,9.790 C50.654,9.429 51.286,9.474 51.648,9.893 C52.009,10.311 51.963,10.942 51.545,11.303 C51.545,11.303 40.256,21.059 40.256,21.059 C40.041,21.245 39.917,21.503 39.907,21.787 C39.896,22.072 40.001,22.338 40.202,22.539 C40.771,23.108 41.084,23.865 41.084,24.669 C41.084,25.473 40.771,26.229 40.202,26.798 C40.202,26.798 36.358,30.642 36.358,30.642 C36.163,30.837 35.907,30.935 35.651,30.935 Z" id="path-12" class="cls-14" fill-rule="evenodd"/>
    <path d="M32.560,38.412 C32.560,38.412 31.894,37.746 31.894,37.746 C31.330,37.182 31.330,36.268 31.894,35.704 C31.894,35.704 36.622,30.976 36.622,30.976 C37.185,30.412 38.100,30.412 38.664,30.976 C38.664,30.976 39.330,31.641 39.330,31.641 C39.893,32.206 39.893,33.120 39.330,33.684 C39.330,33.684 34.602,38.412 34.602,38.412 C34.038,38.976 33.123,38.976 32.560,38.412 Z" id="path-13" class="cls-4" fill-rule="evenodd"/>
    <path d="M30.685,35.599 C30.685,35.599 30.019,34.934 30.019,34.934 C29.455,34.369 29.455,33.455 30.019,32.892 C30.019,32.892 34.746,28.163 34.746,28.163 C35.310,27.599 36.225,27.599 36.789,28.163 C36.789,28.163 37.455,28.829 37.455,28.829 C38.019,29.394 38.019,30.307 37.455,30.871 C37.455,30.871 32.727,35.599 32.727,35.599 C32.163,36.163 31.248,36.163 30.685,35.599 Z" id="path-14" class="cls-16" fill-rule="evenodd"/>
    <path d="M54.801,47.728 C54.801,47.728 49.774,47.728 49.774,47.728 C49.774,47.728 49.774,36.717 49.774,36.717 C49.774,36.717 54.801,36.717 54.801,36.717 C54.801,36.717 54.801,47.728 54.801,47.728 Z" id="path-15" class="cls-17" fill-rule="evenodd"/>
    <path d="M54.801,37.654 C54.801,37.654 54.801,47.728 54.801,47.728 C54.801,47.728 50.711,47.728 50.711,47.728 C50.711,47.728 50.711,48.665 50.711,48.665 C50.711,48.665 55.738,48.665 55.738,48.665 C55.738,48.665 55.738,37.654 55.738,37.654 C55.738,37.654 54.801,37.654 54.801,37.654 Z" id="path-16" class="cls-4" fill-rule="evenodd"/>
  </g>
</svg>
