<svg xmlns="http://www.w3.org/2000/svg" xmlns:xlink="http://www.w3.org/1999/xlink" preserveAspectRatio="xMidYMid" width="60" height="49" viewBox="0 0 60 49">
  <defs>
    <style>

      .cls-3 {
        fill: #ff3a2f;
      }

      .cls-5 {
        fill: #0cb04a;
      }

      .cls-6 {
        fill: #000000;
        opacity: 0.25;
      }

      .cls-7 {
        fill: #142a3b;
      }
    </style>
  </defs>
  <g id="group-272svg">
    <path d="M39.615,44.739 C39.615,46.911 41.366,48.673 43.524,48.673 C45.684,48.673 47.434,46.911 47.434,44.739 C47.434,42.567 45.684,40.806 43.524,40.806 C41.366,40.806 39.615,42.567 39.615,44.739 Z" id="path-1" class="cls-3" fill-rule="evenodd"/>
    <path d="M19.507,44.739 C19.507,46.911 21.258,48.673 23.416,48.673 C25.576,48.673 27.327,46.911 27.327,44.739 C27.327,42.567 25.576,40.806 23.416,40.806 C21.258,40.806 19.507,42.567 19.507,44.739 Z" id="path-2" class="cls-3" fill-rule="evenodd"/>
    <path d="M18.383,32.710 C18.383,32.710 52.192,32.710 52.192,32.710 C52.192,32.710 60.013,9.111 60.013,9.111 C60.013,9.111 13.094,9.111 13.094,9.111 C13.094,9.111 13.094,9.111 13.094,9.111 " id="path-3" class="cls-5" fill-rule="evenodd"/>
    <path d="M53.042,9.111 C53.042,9.111 50.459,16.906 50.459,16.906 C48.086,24.070 41.384,28.907 33.831,28.907 C33.831,28.907 17.531,28.907 17.531,28.907 C17.531,28.907 18.383,32.710 18.383,32.710 C18.383,32.710 52.192,32.710 52.192,32.710 C52.192,32.710 60.013,9.111 60.013,9.111 C60.013,9.111 53.042,9.111 53.042,9.111 Z" id="path-4" class="cls-6" fill-rule="evenodd"/>
    <path d="M48.283,38.954 C48.283,38.954 18.834,38.954 18.834,38.954 C18.834,38.954 9.360,1.986 9.360,1.986 C9.360,1.986 1.013,1.986 1.013,1.986 C0.460,1.986 0.013,1.538 0.013,0.986 C0.013,0.433 0.460,-0.014 1.013,-0.014 C1.013,-0.014 10.912,-0.014 10.912,-0.014 C10.912,-0.014 20.386,36.954 20.386,36.954 C20.386,36.954 48.283,36.954 48.283,36.954 C48.835,36.954 49.283,37.402 49.283,37.954 C49.283,38.507 48.835,38.954 48.283,38.954 Z" id="path-5" class="cls-7" fill-rule="evenodd"/>
  </g>
</svg>
