<svg xmlns="http://www.w3.org/2000/svg" xmlns:xlink="http://www.w3.org/1999/xlink" preserveAspectRatio="xMidYMid" width="60" height="60" viewBox="0 0 60 60">
  <defs>
    <style>

      .cls-3 {
        fill: #ff3a2f;
      }

      .cls-4 {
        fill: #060606;
        opacity: 0.35;
      }

      .cls-5 {
        fill: #ededed;
      }
    </style>
  </defs>
  <g id="group-210svg">
    <path d="M12.060,-0.009 C12.060,-0.009 0.014,12.037 0.014,12.037 C0.014,12.037 0.014,23.829 0.014,23.829 C0.014,23.829 35.983,59.799 35.983,59.799 C35.983,59.799 60.014,35.768 60.014,35.768 C60.014,35.768 24.236,-0.009 24.236,-0.009 C24.236,-0.009 12.060,-0.009 12.060,-0.009 Z" id="path-1" class="cls-3" fill-rule="evenodd"/>
    <path d="M24.236,3.254 C24.236,3.254 58.382,37.399 58.382,37.399 C58.382,37.399 60.014,35.768 60.014,35.768 C60.014,35.768 24.236,-0.009 24.236,-0.009 C24.236,-0.009 12.060,-0.009 12.060,-0.009 C12.060,-0.009 0.014,12.037 0.014,12.037 C0.014,12.037 0.014,15.299 0.014,15.299 C0.014,15.299 12.060,3.254 12.060,3.254 C12.060,3.254 24.236,3.254 24.236,3.254 Z" id="path-2" class="cls-4" fill-rule="evenodd"/>
    <path d="M19.546,10.104 C22.094,12.652 22.094,16.783 19.546,19.331 C16.998,21.880 12.867,21.880 10.318,19.331 C7.770,16.783 7.770,12.652 10.318,10.104 C12.867,7.556 16.998,7.556 19.546,10.104 Z" id="path-3" class="cls-5" fill-rule="evenodd"/>
    <path d="M12.494,12.279 C14.665,10.107 17.979,9.803 20.491,11.334 C20.226,10.898 19.923,10.480 19.546,10.104 C16.998,7.556 12.867,7.556 10.318,10.104 C7.770,12.652 7.770,16.783 10.318,19.332 C10.695,19.708 11.113,20.011 11.549,20.276 C10.018,17.765 10.322,14.450 12.494,12.279 Z" id="path-4" class="cls-4" fill-rule="evenodd"/>
  </g>
</svg>
