<svg xmlns="http://www.w3.org/2000/svg" xmlns:xlink="http://www.w3.org/1999/xlink" preserveAspectRatio="xMidYMid" width="61" height="56" viewBox="0 0 61 56">
  <defs>
    <style>

      .cls-3 {
        fill: #ff3a2f;
      }

      .cls-4 {
        fill: #000000;
        opacity: 0.35;
      }

      .cls-6 {
        fill: #142a3b;
      }

      .cls-9 {
        fill: #ffffff;
      }
    </style>
  </defs>
  <g id="group-12svg">
    <path d="M45.181,15.416 C45.181,15.416 45.282,15.785 45.282,15.785 C44.141,16.926 42.533,16.955 41.358,15.846 C41.358,15.846 40.478,14.907 40.478,14.907 C39.357,13.850 37.675,13.819 36.518,14.837 C36.518,14.837 35.637,15.637 35.637,15.637 C34.554,16.588 32.961,16.630 31.830,15.738 C31.830,15.738 29.952,14.249 29.952,14.249 C28.937,13.448 27.525,13.392 26.450,14.109 C26.450,14.109 24.847,15.179 24.847,15.179 C23.754,15.907 22.314,15.836 21.299,15.003 C21.299,15.003 20.063,13.991 20.063,13.991 C18.957,13.083 17.363,13.089 16.263,14.003 C16.263,14.003 14.406,15.546 14.406,15.546 C13.677,16.153 12.247,16.268 11.412,15.818 C11.018,15.605 10.656,15.455 9.656,15.354 C9.656,15.354 9.656,46.440 9.656,46.440 C9.656,52.498 14.640,56.000 19.793,56.000 C19.793,56.000 40.205,56.000 40.205,56.000 C45.358,56.000 47.656,52.498 47.656,46.440 C47.656,46.440 47.656,14.845 47.656,14.845 C47.656,14.305 46.107,14.490 45.181,15.416 Z" id="path-1" class="cls-3" fill-rule="evenodd"/>
    <path d="M44.537,14.455 C44.537,14.455 44.316,14.823 44.316,14.823 C43.644,15.496 42.755,15.771 41.897,15.667 C41.897,15.667 41.897,42.599 41.897,42.599 C41.897,48.657 38.310,52.851 33.157,52.851 C33.157,52.851 12.746,52.851 12.746,52.851 C12.367,52.851 12.468,52.868 12.098,52.824 C14.823,55.624 18.544,56.028 18.450,56.000 C18.450,56.000 38.862,56.000 38.862,56.000 C45.531,56.312 47.656,53.000 47.656,45.478 C47.656,45.478 47.656,13.883 47.656,13.883 C47.656,13.345 45.463,13.529 44.537,14.455 Z" id="path-2" class="cls-4" fill-rule="evenodd"/>
    <path d="M47.656,20.138 C47.656,20.138 47.656,15.819 47.656,15.819 C46.604,15.441 46.021,15.407 45.175,16.253 C45.175,16.253 44.806,16.622 44.806,16.622 C43.664,17.764 41.822,17.790 40.647,16.683 C40.647,16.683 39.650,15.744 39.650,15.744 C38.529,14.687 36.788,14.656 35.631,15.674 C35.631,15.674 34.721,16.473 34.721,16.473 C33.638,17.425 32.030,17.467 30.899,16.574 C30.899,16.574 29.014,15.086 29.014,15.086 C27.999,14.284 26.583,14.227 25.508,14.945 C25.508,14.945 23.903,16.014 23.903,16.014 C22.810,16.742 21.370,16.670 20.354,15.837 C20.354,15.837 19.118,14.822 19.118,14.822 C18.012,13.914 16.417,13.914 15.317,14.828 C15.317,14.828 13.461,16.360 13.461,16.360 C12.731,16.966 11.704,17.059 10.870,16.608 C10.452,16.383 10.189,16.323 9.656,16.221 C9.656,16.221 9.656,20.525 9.656,20.525 C10.193,20.628 10.450,20.701 10.870,20.927 C11.704,21.379 12.731,21.285 13.461,20.679 C13.461,20.679 15.317,19.148 15.317,19.148 C16.417,18.233 18.012,18.234 19.118,19.140 C19.118,19.140 20.354,20.157 20.354,20.157 C21.370,20.989 22.810,21.061 23.903,20.333 C23.903,20.333 25.508,19.263 25.508,19.263 C26.583,18.547 27.999,18.603 29.014,19.405 C29.014,19.405 30.899,20.894 30.899,20.894 C32.030,21.787 33.638,21.744 34.721,20.793 C34.721,20.793 35.631,19.993 35.631,19.993 C36.788,18.976 38.529,19.006 39.650,20.063 C39.650,20.063 40.647,21.003 40.647,21.003 C41.822,22.110 43.664,22.083 44.806,20.941 C44.806,20.941 45.175,20.573 45.175,20.573 C46.021,19.726 46.604,19.760 47.656,20.138 Z" id="path-3" class="cls-4" fill-rule="evenodd"/>
    <path d="M9.184,8.431 C9.184,8.431 -0.001,17.894 -0.001,17.894 C-0.001,17.894 8.099,15.270 11.519,17.119 C12.354,17.569 13.381,17.523 14.110,16.916 C14.110,16.916 15.967,15.408 15.967,15.408 C17.067,14.494 18.662,14.506 19.768,15.413 C19.768,15.413 21.004,16.434 21.004,16.434 C22.019,17.266 23.460,17.343 24.553,16.614 C24.553,16.614 26.158,15.546 26.158,15.546 C27.233,14.828 28.649,14.887 29.663,15.688 C29.663,15.688 31.549,17.177 31.549,17.177 C32.680,18.070 34.288,18.028 35.370,17.077 C35.370,17.077 36.280,16.276 36.280,16.276 C37.437,15.259 39.179,15.290 40.300,16.346 C40.300,16.346 41.297,17.286 41.297,17.286 C42.472,18.394 44.314,18.367 45.456,17.225 C45.456,17.225 45.825,16.856 45.825,16.856 C47.018,15.663 48.961,15.694 50.114,16.925 C50.114,16.925 51.135,18.014 51.135,18.014 C51.826,18.752 52.890,19.024 53.841,18.681 C55.527,18.076 58.276,17.507 59.999,19.327 C59.999,19.327 51.270,8.598 51.270,8.598 C50.703,7.937 49.875,7.000 49.004,7.000 C49.004,7.000 11.295,7.000 11.295,7.000 C10.503,7.000 9.744,7.871 9.184,8.431 Z" id="path-4" class="cls-6" fill-rule="evenodd"/>
    <path d="M53.656,4.681 C53.656,7.066 51.723,9.000 49.337,9.000 C49.337,9.000 8.976,9.000 8.976,9.000 C6.590,9.000 4.656,7.066 4.656,4.681 C4.656,4.681 4.656,4.319 4.656,4.319 C4.656,1.934 6.590,-0.000 8.976,-0.000 C8.976,-0.000 49.337,-0.000 49.337,-0.000 C51.723,-0.000 53.656,1.934 53.656,4.319 C53.656,4.319 53.656,4.681 53.656,4.681 Z" id="path-5" class="cls-6" fill-rule="evenodd"/>
    <path d="M49.337,-0.000 C49.337,-0.000 49.072,-0.000 49.072,-0.000 C49.233,0.472 49.337,0.971 49.337,1.500 C49.337,3.985 47.403,6.000 45.018,6.000 C45.018,6.000 4.969,6.000 4.969,6.000 C5.563,7.744 7.145,9.000 9.023,9.000 C9.023,9.000 49.337,9.000 49.337,9.000 C51.723,9.000 53.656,6.985 53.656,4.500 C53.656,2.014 51.723,-0.000 49.337,-0.000 Z" id="path-6" class="cls-4" fill-rule="evenodd"/>
    <path d="M14.611,48.864 C14.059,48.864 13.611,48.416 13.611,47.863 C13.611,47.863 13.611,36.919 13.611,36.919 C13.611,36.366 14.059,35.919 14.611,35.919 C15.163,35.919 15.611,36.366 15.611,36.919 C15.611,36.919 15.611,47.863 15.611,47.863 C15.611,48.416 15.163,48.864 14.611,48.864 Z" id="path-7" class="cls-9" fill-rule="evenodd"/>
  </g>
</svg>
