<svg xmlns="http://www.w3.org/2000/svg" xmlns:xlink="http://www.w3.org/1999/xlink" preserveAspectRatio="xMidYMid" width="60" height="57" viewBox="0 0 60 57">
  <defs>
    <style>

      .cls-3 {
        fill: #ff3a2f;
      }

      .cls-4 {
        fill: #ffffff;
      }

      .cls-5 {
        fill: #020403;
        opacity: 0.35;
      }

      .cls-6 {
        fill: #2476ff;
      }

      .cls-8 {
        fill: #020403;
        opacity: 0.25;
      }
    </style>
  </defs>
  <g id="group-149svg">
    <path d="M1.036,33.528 C3.725,28.183 13.153,22.694 28.101,22.694 C43.048,22.694 55.166,27.545 55.166,33.528 C55.166,33.528 57.948,46.680 53.973,49.662 C53.973,49.662 22.563,64.640 1.036,49.662 C1.036,49.662 -1.079,37.733 1.036,33.528 Z" id="path-1" class="cls-3" fill-rule="evenodd"/>
    <path d="M4.635,36.928 C4.484,36.928 4.331,36.894 4.187,36.822 C3.693,36.573 3.495,35.972 3.743,35.479 C6.593,29.812 16.343,24.093 31.701,24.093 C32.253,24.093 32.701,24.542 32.701,25.094 C32.701,25.646 32.253,26.094 31.701,26.094 C17.273,26.094 8.020,31.425 5.530,36.377 C5.354,36.727 5.001,36.928 4.635,36.928 Z" id="path-2" class="cls-4" fill-rule="evenodd"/>
    <path d="M0.159,37.607 C21.686,52.585 53.973,37.734 53.973,37.734 C53.973,37.734 55.583,35.928 55.583,35.928 C55.583,35.928 57.761,46.123 53.973,49.662 C53.973,49.662 22.563,64.640 1.036,49.662 C0.133,45.135 -0.220,41.066 0.159,37.607 Z" id="path-3" class="cls-5" fill-rule="evenodd"/>
    <path d="M49.939,13.879 C49.939,16.702 47.651,18.991 44.828,18.991 C42.005,18.991 39.716,16.702 39.716,13.879 C39.716,11.056 42.005,8.767 44.828,8.767 C47.651,8.767 49.939,11.056 49.939,13.879 Z" id="path-4" class="cls-6" fill-rule="evenodd"/>
    <path d="M48.810,12.679 C48.810,14.216 47.564,15.461 46.028,15.461 C44.492,15.461 43.246,14.216 43.246,12.679 C43.246,11.143 44.492,9.897 46.028,9.897 C47.564,9.897 48.810,11.143 48.810,12.679 Z" id="path-5" class="cls-4" fill-rule="evenodd"/>
    <path d="M37.939,43.879 C37.939,46.702 35.651,48.991 32.828,48.991 C30.005,48.991 27.716,46.702 27.716,43.879 C27.716,41.056 30.005,38.767 32.828,38.767 C35.651,38.767 37.939,41.056 37.939,43.879 Z" id="path-6" class="cls-8" fill-rule="evenodd"/>
    <path d="M11.483,48.023 C11.483,49.637 10.175,50.946 8.561,50.946 C6.946,50.946 5.637,49.637 5.637,48.023 C5.637,46.408 6.946,45.099 8.561,45.099 C10.175,45.099 11.483,46.408 11.483,48.023 Z" id="path-7" class="cls-8" fill-rule="evenodd"/>
    <path d="M22.494,34.199 C22.494,35.199 21.683,36.010 20.682,36.010 C19.681,36.010 18.870,35.199 18.870,34.199 C18.870,33.198 19.681,32.386 20.682,32.386 C21.683,32.386 22.494,33.198 22.494,34.199 Z" id="path-8" class="cls-8" fill-rule="evenodd"/>
    <path d="M54.228,30.482 C53.247,31.818 51.370,32.106 50.035,31.126 C48.699,30.145 48.411,28.267 49.392,26.932 C51.196,27.750 52.830,28.892 54.228,30.482 Z" id="path-9" class="cls-8" fill-rule="evenodd"/>
    <path d="M60.096,3.013 C60.096,4.670 58.753,6.014 57.096,6.014 C55.439,6.014 54.097,4.670 54.097,3.013 C54.097,1.357 55.439,0.014 57.096,0.014 C58.753,0.014 60.096,1.357 60.096,3.013 Z" id="path-10" class="cls-6" fill-rule="evenodd"/>
  </g>
</svg>
