<svg xmlns="http://www.w3.org/2000/svg" xmlns:xlink="http://www.w3.org/1999/xlink" preserveAspectRatio="xMidYMid" width="61" height="57" viewBox="0 0 61 57">
  <defs>
    <style>

      .cls-3 {
        fill: #2476ff;
      }

      .cls-4 {
        fill: #ffffff;
      }

      .cls-7 {
        fill: #020403;
        opacity: 0.35;
      }

      .cls-13 {
        fill: #020403;
        opacity: 0.45;
      }

      .cls-14 {
        fill: #ff3a2f;
      }
    </style>
  </defs>
  <g id="group-53svg">
    <ellipse id="ellipse-1" class="cls-3" cx="12" cy="13" rx="5" ry="5"/>
    <path d="M10.745,9.551 C12.047,9.551 13.102,10.606 13.102,11.908 C13.102,13.209 12.047,14.264 10.745,14.264 C9.444,14.264 8.389,13.209 8.389,11.908 C8.389,10.606 9.444,9.551 10.745,9.551 Z" id="path-1" class="cls-4" fill-rule="evenodd"/>
    <circle id="circle-1" class="cls-3" cx="3" cy="3" r="3"/>
    <path d="M59.706,49.113 C59.087,48.194 57.497,45.004 56.758,45.149 C56.019,45.291 53.829,51.228 54.158,52.204 C54.488,53.180 57.822,52.127 58.908,52.102 C59.994,52.078 60.325,50.033 59.706,49.113 Z" id="path-2" class="cls-3" fill-rule="evenodd"/>
    <path d="M55.433,50.929 C55.202,50.242 56.215,47.111 57.094,45.257 C56.971,45.172 56.856,45.129 56.758,45.149 C56.019,45.291 53.829,51.228 54.158,52.204 C54.488,53.180 57.822,52.127 58.908,52.102 C59.477,52.090 59.832,51.520 59.959,50.850 C58.711,50.972 55.745,51.850 55.433,50.929 Z" id="path-3" class="cls-7" fill-rule="evenodd"/>
    <path d="M54.048,38.600 C53.340,37.096 50.393,31.612 48.299,31.530 C46.206,31.451 40.322,50.755 40.781,53.028 C42.408,53.968 48.501,53.592 49.562,53.298 C50.348,51.739 54.754,40.105 54.048,38.600 Z" id="path-4" class="cls-3" fill-rule="evenodd"/>
    <path d="M49.562,53.298 C49.732,52.962 50.074,52.141 50.493,51.071 C48.631,51.085 46.698,50.948 45.884,50.476 C45.564,48.893 48.319,39.067 50.728,33.264 C50.183,32.615 48.832,31.826 48.299,31.530 C45.910,33.775 41.629,50.911 42.057,53.028 C42.745,53.425 44.231,53.586 45.798,53.619 C47.502,53.586 49.072,53.434 49.562,53.298 Z" id="path-5" class="cls-7" fill-rule="evenodd"/>
    <path d="M56.635,43.919 C56.331,42.876 54.640,39.033 53.485,38.529 C52.329,38.022 46.076,52.178 47.711,52.771 C49.346,53.364 53.182,53.134 53.749,52.887 C54.321,52.634 56.941,44.965 56.635,43.919 Z" id="path-6" class="cls-3" fill-rule="evenodd"/>
    <path d="M49.266,51.402 C47.991,50.940 51.509,42.241 53.670,38.664 C53.609,38.622 53.544,38.554 53.485,38.529 C52.329,38.022 46.076,52.178 47.711,52.771 C49.346,53.363 53.182,53.134 53.749,52.887 C53.882,52.828 54.160,52.345 54.499,51.641 C53.280,51.715 50.514,51.854 49.266,51.402 Z" id="path-7" class="cls-7" fill-rule="evenodd"/>
    <path d="M33.896,38.993 C33.896,46.322 27.955,52.264 20.626,52.264 C13.296,52.264 7.355,46.322 7.355,38.993 C7.355,31.664 13.296,25.722 20.626,25.722 C27.955,25.722 33.896,31.664 33.896,38.993 Z" id="path-8" class="cls-3" fill-rule="evenodd"/>
    <path d="M9.093,32.433 C13.046,31.599 12.224,32.558 15.494,35.429 C21.002,40.264 21.547,44.821 16.712,50.329 C16.364,50.725 15.994,51.088 15.612,51.433 C18.318,50.861 20.695,53.116 22.837,51.046 C28.946,45.144 27.127,37.154 21.619,32.318 C16.507,27.830 14.023,27.985 9.093,32.433 Z" id="path-9" class="cls-13" fill-rule="evenodd"/>
    <path d="M26.817,44.820 C24.206,44.446 21.562,49.469 14.671,48.881 C10.662,48.540 8.957,46.912 9.122,42.209 C9.334,36.146 13.397,32.708 13.558,30.358 C13.627,29.340 11.405,27.754 10.430,28.246 C7.915,29.514 5.277,38.678 5.585,42.496 C6.036,48.095 9.851,50.496 13.520,51.813 C17.186,53.129 26.598,54.401 30.277,52.574 C31.764,51.834 28.521,45.064 26.817,44.820 Z" id="path-10" class="cls-14" fill-rule="evenodd"/>
    <path d="M26.168,44.832 C24.689,44.989 20.221,48.881 18.109,48.548 C19.226,51.285 18.731,51.186 20.115,53.259 C26.935,53.863 29.439,52.990 30.277,52.574 C31.764,51.834 27.659,43.970 26.168,44.832 Z" id="path-11" class="cls-13" fill-rule="evenodd"/>
    <path d="M12.642,32.676 C13.143,31.793 13.512,31.029 13.558,30.358 C13.627,29.340 11.405,27.754 10.430,28.246 C9.807,28.560 9.176,29.362 8.584,30.444 C9.776,31.036 11.174,31.761 12.642,32.676 Z" id="path-12" class="cls-13" fill-rule="evenodd"/>
    <path d="M47.589,29.613 C46.854,28.427 44.213,22.948 35.693,21.350 C30.017,20.286 13.423,22.863 7.816,26.577 C5.726,27.961 16.308,29.525 22.606,38.067 C27.958,45.326 27.045,52.148 33.347,55.590 C36.193,57.145 38.019,57.057 39.826,56.544 C41.731,56.003 43.142,51.242 44.973,45.227 C46.952,38.730 48.712,31.427 47.589,29.613 Z" id="path-13" class="cls-14" fill-rule="evenodd"/>
    <path d="M47.588,29.613 C47.382,29.280 47.018,28.604 46.424,27.776 C45.958,30.881 44.869,35.002 43.697,38.848 C41.866,44.864 40.456,49.625 38.551,50.166 C36.743,50.679 34.918,50.766 32.072,49.212 C25.770,45.769 26.683,38.948 21.331,31.688 C18.811,28.271 15.607,25.973 12.802,24.354 C10.779,25.026 9.030,25.773 7.816,26.577 C5.726,27.961 16.308,29.525 22.606,38.067 C27.958,45.326 27.045,52.148 33.347,55.590 C36.193,57.145 38.019,57.057 39.826,56.544 C41.731,56.003 43.142,51.242 44.973,45.226 C46.952,38.730 48.712,31.427 47.588,29.613 Z" id="path-14" class="cls-7" fill-rule="evenodd"/>
    <path d="M41.955,30.523 C41.694,30.523 41.434,30.421 41.238,30.219 C41.238,30.219 40.978,29.942 40.978,29.942 C39.799,28.660 36.226,24.767 28.600,24.990 C28.035,25.006 27.587,24.573 27.571,24.021 C27.554,23.468 27.988,23.008 28.540,22.992 C37.064,22.743 41.118,27.140 42.450,28.587 C42.450,28.587 42.673,28.827 42.673,28.827 C43.058,29.223 43.048,29.856 42.652,30.240 C42.457,30.429 42.207,30.523 41.955,30.523 Z" id="path-15" class="cls-4" fill-rule="evenodd"/>
  </g>
</svg>
