<svg xmlns="http://www.w3.org/2000/svg" xmlns:xlink="http://www.w3.org/1999/xlink" preserveAspectRatio="xMidYMid" width="57" height="60" viewBox="0 0 57 60">
  <defs>
    <style>

      .cls-3 {
        fill: #0f1d27;
      }

      .cls-5 {
        fill: #ff3a2f;
      }

      .cls-7 {
        fill: #020403;
        opacity: 0.35;
      }

      .cls-9 {
        fill: #142a3b;
      }

      .cls-16 {
        fill: #fbb713;
      }

      .cls-18 {
        fill: #ffffff;
      }
    </style>
  </defs>
  <g id="group-24svg">
    <path d="M24.291,39.112 C24.291,39.112 20.522,39.112 20.522,39.112 C20.522,39.112 20.522,28.844 20.522,28.844 C20.522,28.844 24.291,28.844 24.291,28.844 C24.291,28.844 24.291,39.112 24.291,39.112 Z" id="path-1" class="cls-3" fill-rule="evenodd"/>
    <path d="M24.291,56.812 C24.291,56.812 20.522,56.812 20.522,56.812 C20.522,56.812 20.522,46.545 20.522,46.545 C20.522,46.545 24.291,46.545 24.291,46.545 C24.291,46.545 24.291,56.812 24.291,56.812 Z" id="path-2" class="cls-3" fill-rule="evenodd"/>
    <path d="M23.588,60.001 C23.588,60.001 44.122,60.001 44.122,60.001 C44.122,60.001 44.122,21.763 44.122,21.763 C44.122,16.093 39.525,11.496 33.855,11.496 C28.184,11.496 23.588,16.093 23.588,21.763 C23.588,21.763 23.588,60.001 23.588,60.001 Z" id="path-3" class="cls-5" fill-rule="evenodd"/>
    <path d="M-0.012,60.001 C-0.012,60.001 20.522,60.001 20.522,60.001 C20.522,60.001 20.522,21.763 20.522,21.763 C20.522,16.093 15.925,11.496 10.255,11.496 C4.584,11.496 -0.012,16.093 -0.012,21.763 C-0.012,21.763 -0.012,60.001 -0.012,60.001 Z" id="path-4" class="cls-5" fill-rule="evenodd"/>
    <path d="M33.855,11.496 C33.041,11.496 32.254,11.601 31.495,11.779 C36.026,12.847 39.402,16.907 39.402,21.763 C39.402,21.763 39.402,60.001 39.402,60.001 C39.402,60.001 44.122,60.001 44.122,60.001 C44.122,60.001 44.122,21.763 44.122,21.763 C44.122,16.093 39.525,11.496 33.855,11.496 Z" id="path-5" class="cls-7" fill-rule="evenodd"/>
    <path d="M10.255,11.496 C9.441,11.496 8.654,11.601 7.895,11.779 C12.426,12.847 15.802,16.907 15.802,21.763 C15.802,21.763 15.802,60.001 15.802,60.001 C15.802,60.001 20.522,60.001 20.522,60.001 C20.522,60.001 20.522,21.763 20.522,21.763 C20.522,16.093 15.925,11.496 10.255,11.496 Z" id="path-6" class="cls-7" fill-rule="evenodd"/>
    <path d="M33.855,12.732 C33.303,12.732 32.855,12.285 32.855,11.732 C32.855,11.732 32.855,1.001 32.855,1.001 C32.855,0.448 33.303,0.001 33.855,0.001 C34.407,0.001 34.855,0.448 34.855,1.001 C34.855,1.001 34.855,11.732 34.855,11.732 C34.855,12.285 34.407,12.732 33.855,12.732 Z" id="path-7" class="cls-9" fill-rule="evenodd"/>
    <path d="M52.799,41.646 C52.247,41.646 51.799,41.198 51.799,40.646 C51.799,40.646 51.799,20.320 51.799,20.320 C51.799,13.177 45.988,7.366 38.846,7.366 C38.846,7.366 5.329,7.366 5.329,7.366 C4.777,7.366 4.330,6.919 4.330,6.367 C4.330,5.814 4.777,5.367 5.329,5.367 C5.329,5.367 38.846,5.367 38.846,5.367 C47.091,5.367 53.799,12.074 53.799,20.320 C53.799,20.320 53.799,40.646 53.799,40.646 C53.799,41.198 53.351,41.646 52.799,41.646 Z" id="path-8" class="cls-9" fill-rule="evenodd"/>
    <path d="M56.750,44.540 C56.750,46.691 55.006,48.435 52.855,48.435 C50.705,48.435 48.961,46.691 48.961,44.540 C48.961,42.389 50.705,40.646 52.855,40.646 C55.006,40.646 56.750,42.389 56.750,44.540 Z" id="path-9" class="cls-5" fill-rule="evenodd"/>
    <path d="M53.320,40.693 C53.979,41.390 54.390,42.325 54.390,43.360 C54.390,45.511 52.646,47.255 50.496,47.255 C50.336,47.255 50.185,47.227 50.030,47.208 C50.740,47.960 51.740,48.435 52.855,48.435 C55.006,48.435 56.750,46.691 56.750,44.540 C56.750,42.549 55.249,40.924 53.320,40.693 Z" id="path-10" class="cls-7" fill-rule="evenodd"/>
    <path d="M36.215,6.303 C36.215,7.672 35.105,8.782 33.737,8.782 C32.368,8.782 31.259,7.672 31.259,6.303 C31.259,4.935 32.368,3.826 33.737,3.826 C35.105,3.826 36.215,4.935 36.215,6.303 Z" id="path-11" class="cls-5" fill-rule="evenodd"/>
    <path d="M10.255,12.732 C9.703,12.732 9.255,12.285 9.255,11.732 C9.255,11.732 9.255,1.001 9.255,1.001 C9.255,0.448 9.703,0.001 10.255,0.001 C10.807,0.001 11.255,0.448 11.255,1.001 C11.255,1.001 11.255,11.732 11.255,11.732 C11.255,12.285 10.807,12.732 10.255,12.732 Z" id="path-12" class="cls-9" fill-rule="evenodd"/>
    <path d="M12.615,6.303 C12.615,7.672 11.506,8.782 10.137,8.782 C8.769,8.782 7.659,7.672 7.659,6.303 C7.659,4.935 8.769,3.826 10.137,3.826 C11.506,3.826 12.615,4.935 12.615,6.303 Z" id="path-13" class="cls-5" fill-rule="evenodd"/>
    <path d="M44.122,49.379 C44.122,49.379 23.588,49.379 23.588,49.379 C23.588,49.379 23.588,28.844 23.588,28.844 C23.588,28.844 44.122,28.844 44.122,28.844 C44.122,28.844 44.122,49.379 44.122,49.379 Z" id="path-14" class="cls-16" fill-rule="evenodd"/>
    <path d="M20.522,49.379 C20.522,49.379 -0.012,49.379 -0.012,49.379 C-0.012,49.379 -0.012,28.844 -0.012,28.844 C-0.012,28.844 20.522,28.844 20.522,28.844 C20.522,28.844 20.522,49.379 20.522,49.379 Z" id="path-15" class="cls-16" fill-rule="evenodd"/>
    <path d="M2.348,44.006 C1.795,44.006 1.348,43.558 1.348,43.006 C1.348,43.006 1.348,24.124 1.348,24.124 C1.348,20.309 3.255,16.783 6.451,14.690 C6.914,14.388 7.533,14.517 7.835,14.979 C8.138,15.441 8.009,16.061 7.547,16.363 C4.917,18.085 3.348,20.986 3.348,24.124 C3.348,24.124 3.348,43.006 3.348,43.006 C3.348,43.558 2.900,44.006 2.348,44.006 Z" id="path-16" class="cls-18" fill-rule="evenodd"/>
    <path d="M25.948,44.006 C25.395,44.006 24.948,43.558 24.948,43.006 C24.948,43.006 24.948,24.124 24.948,24.124 C24.948,20.308 26.855,16.782 30.051,14.690 C30.514,14.388 31.134,14.517 31.436,14.979 C31.738,15.442 31.609,16.061 31.147,16.363 C28.518,18.085 26.948,20.986 26.948,24.124 C26.948,24.124 26.948,43.006 26.948,43.006 C26.948,43.558 26.500,44.006 25.948,44.006 Z" id="path-17" class="cls-18" fill-rule="evenodd"/>
    <path d="M39.402,28.844 C39.402,28.844 39.402,49.379 39.402,49.379 C39.402,49.379 44.122,49.379 44.122,49.379 C44.122,49.379 44.122,28.844 44.122,28.844 C44.122,28.844 39.402,28.844 39.402,28.844 Z" id="path-18" class="cls-7" fill-rule="evenodd"/>
    <path d="M15.802,28.844 C15.802,28.844 15.802,49.379 15.802,49.379 C15.802,49.379 20.522,49.379 20.522,49.379 C20.522,49.379 20.522,28.844 20.522,28.844 C20.522,28.844 15.802,28.844 15.802,28.844 Z" id="path-19" class="cls-7" fill-rule="evenodd"/>
    <path d="M37.839,40.112 C37.839,40.112 29.638,40.112 29.638,40.112 C29.085,40.112 28.638,39.664 28.638,39.112 C28.638,38.560 29.085,38.112 29.638,38.112 C29.638,38.112 37.839,38.112 37.839,38.112 C38.391,38.112 38.839,38.560 38.839,39.112 C38.839,39.664 38.391,40.112 37.839,40.112 Z" id="path-20" class="cls-9" fill-rule="evenodd"/>
    <path d="M14.239,40.112 C14.239,40.112 6.038,40.112 6.038,40.112 C5.485,40.112 5.038,39.664 5.038,39.112 C5.038,38.560 5.485,38.112 6.038,38.112 C6.038,38.112 14.239,38.112 14.239,38.112 C14.791,38.112 15.239,38.560 15.239,39.112 C15.239,39.664 14.791,40.112 14.239,40.112 Z" id="path-21" class="cls-9" fill-rule="evenodd"/>
  </g>
</svg>
