<svg xmlns="http://www.w3.org/2000/svg" xmlns:xlink="http://www.w3.org/1999/xlink" preserveAspectRatio="xMidYMid" width="61" height="40" viewBox="0 0 61 40">
  <defs>
    <style>

      .cls-3 {
        fill: #142a3b;
      }

      .cls-5 {
        fill: #060606;
        opacity: 0.35;
      }

      .cls-7 {
        fill: #fbb713;
      }

      .cls-8 {
        fill: #060606;
        opacity: 0.25;
      }
    </style>
  </defs>
  <g id="group-185svg">
    <path d="M50.948,39.312 C50.948,39.312 47.900,39.312 47.900,39.312 C47.900,39.312 47.900,16.152 47.900,16.152 C47.900,16.152 50.948,16.152 50.948,16.152 C50.948,16.152 50.948,39.312 50.948,39.312 Z" id="path-1" class="cls-3" fill-rule="evenodd"/>
    <path d="M14.152,39.312 C14.152,39.312 11.105,39.312 11.105,39.312 C11.105,39.312 11.105,16.152 11.105,16.152 C11.105,16.152 14.152,16.152 14.152,16.152 C14.152,16.152 14.152,39.312 14.152,39.312 Z" id="path-2" class="cls-3" fill-rule="evenodd"/>
    <path d="M47.900,21.731 C47.900,21.731 50.948,21.731 50.948,21.731 C50.948,21.731 50.948,18.103 50.948,18.103 C50.948,18.103 47.900,18.103 47.900,18.103 C47.900,18.103 47.900,21.731 47.900,21.731 Z" id="path-3" class="cls-5" fill-rule="evenodd"/>
    <path d="M11.104,21.731 C11.104,21.731 14.152,21.731 14.152,21.731 C14.152,21.731 14.152,18.103 14.152,18.103 C14.152,18.103 11.104,18.103 11.104,18.103 C11.104,18.103 11.104,21.731 11.104,21.731 Z" id="path-4" class="cls-5" fill-rule="evenodd"/>
    <path d="M59.998,18.103 C59.998,18.103 -0.002,18.103 -0.002,18.103 C-0.002,18.103 -0.002,0.004 -0.002,0.004 C-0.002,0.004 59.998,0.004 59.998,0.004 C59.998,0.004 59.998,18.103 59.998,18.103 Z" id="path-5" class="cls-7" fill-rule="evenodd"/>
    <path d="M53.452,0.004 C53.452,0.004 53.452,6.622 53.452,6.622 C53.452,10.553 50.266,13.740 46.334,13.740 C46.334,13.740 -0.002,13.740 -0.002,13.740 C-0.002,13.740 -0.002,18.103 -0.002,18.103 C-0.002,18.103 59.998,18.103 59.998,18.103 C59.998,18.103 59.998,0.004 59.998,0.004 C59.998,0.004 53.452,0.004 53.452,0.004 Z" id="path-6" class="cls-8" fill-rule="evenodd"/>
    <path d="M55.671,39.312 C55.671,39.312 43.177,39.312 43.177,39.312 C43.177,39.312 43.177,37.483 43.177,37.483 C43.177,37.483 55.671,37.483 55.671,37.483 C55.671,37.483 55.671,39.312 55.671,39.312 Z" id="path-7" class="cls-3" fill-rule="evenodd"/>
    <path d="M19.104,39.312 C19.104,39.312 6.610,39.312 6.610,39.312 C6.610,39.312 6.610,37.483 6.610,37.483 C6.610,37.483 19.104,37.483 19.104,37.483 C19.104,37.483 19.104,39.312 19.104,39.312 Z" id="path-8" class="cls-3" fill-rule="evenodd"/>
    <path d="M-0.002,16.332 C-0.002,16.332 -0.002,18.103 -0.002,18.103 C-0.002,18.103 4.416,18.103 4.416,18.103 C4.416,18.103 21.433,0.004 21.433,0.004 C21.433,0.004 15.350,0.004 15.350,0.004 C15.350,0.004 -0.002,16.332 -0.002,16.332 Z" id="path-9" class="cls-3" fill-rule="evenodd"/>
    <path d="M16.062,18.103 C16.062,18.103 22.532,18.103 22.532,18.103 C22.532,18.103 39.194,0.004 39.194,0.004 C39.194,0.004 34.162,0.004 34.162,0.004 C34.162,0.004 16.062,18.103 16.062,18.103 Z" id="path-10" class="cls-3" fill-rule="evenodd"/>
    <path d="M35.768,18.103 C35.768,18.103 42.238,18.103 42.238,18.103 C42.238,18.103 58.899,0.004 58.899,0.004 C58.899,0.004 53.867,0.004 53.867,0.004 C53.867,0.004 35.768,18.103 35.768,18.103 Z" id="path-11" class="cls-3" fill-rule="evenodd"/>
  </g>
</svg>
