<svg xmlns="http://www.w3.org/2000/svg" xmlns:xlink="http://www.w3.org/1999/xlink" preserveAspectRatio="xMidYMid" width="50" height="60" viewBox="0 0 50 60">
  <defs>
    <style>

      .cls-3 {
        fill: #142a3b;
      }

      .cls-4 {
        fill: #060606;
        opacity: 0.35;
      }

      .cls-6 {
        fill: #fbb713;
      }

      .cls-10 {
        fill: #ededed;
      }
    </style>
  </defs>
  <g id="group-176svg">
    <path d="M45.877,0.009 C45.877,0.009 32.150,0.009 32.150,0.009 C30.114,0.009 28.551,1.679 28.513,3.714 C28.476,5.690 26.863,7.281 24.877,7.281 C24.877,7.281 15.902,7.281 15.902,7.281 C14.413,7.281 12.985,7.873 11.933,8.926 C11.933,8.926 3.340,17.518 3.340,17.518 C2.287,18.571 1.696,19.999 1.696,21.487 C1.696,21.487 1.696,56.372 1.696,56.372 C1.696,58.381 3.324,60.009 5.332,60.009 C5.332,60.009 45.877,60.009 45.877,60.009 C47.886,60.009 49.514,58.381 49.514,56.372 C49.514,56.372 49.514,8.372 49.514,8.372 C49.514,8.372 49.514,7.281 49.514,7.281 C49.514,7.281 49.514,3.645 49.514,3.645 C49.514,1.636 47.886,0.009 45.877,0.009 ZM43.514,7.281 C43.514,7.281 35.514,7.281 35.514,7.281 C34.710,7.281 34.060,6.630 34.060,5.827 C34.060,5.023 34.710,4.372 35.514,4.372 C35.514,4.372 43.514,4.372 43.514,4.372 C44.317,4.372 44.968,5.023 44.968,5.827 C44.968,6.630 44.317,7.281 43.514,7.281 Z" id="path-1" class="cls-3" fill-rule="evenodd"/>
    <path d="M12.629,9.463 C12.629,9.463 21.605,9.463 21.605,9.463 C23.098,9.463 24.380,8.562 24.940,7.275 C24.919,7.276 24.899,7.281 24.877,7.281 C24.877,7.281 15.902,7.281 15.902,7.281 C14.413,7.281 12.985,7.873 11.933,8.926 C11.933,8.926 11.180,9.677 11.180,9.677 C11.651,9.551 12.133,9.463 12.629,9.463 Z" id="path-2" class="cls-4" fill-rule="evenodd"/>
    <path d="M45.877,0.009 C45.877,0.009 32.150,0.009 32.150,0.009 C30.657,0.009 29.425,0.911 28.855,2.193 C28.863,2.193 28.870,2.190 28.877,2.190 C28.877,2.190 42.605,2.190 42.605,2.190 C44.613,2.190 46.241,3.819 46.241,5.827 C46.241,5.827 46.241,9.463 46.241,9.463 C46.241,9.463 46.241,10.554 46.241,10.554 C46.241,10.554 46.241,58.554 46.241,58.554 C46.241,59.069 46.131,59.558 45.937,60.003 C47.917,59.969 49.514,58.360 49.514,56.372 C49.514,56.372 49.514,8.372 49.514,8.372 C49.514,8.372 49.514,7.281 49.514,7.281 C49.514,7.281 49.514,3.645 49.514,3.645 C49.514,1.636 47.886,0.009 45.877,0.009 Z" id="path-3" class="cls-4" fill-rule="evenodd"/>
    <path d="M13.084,9.188 C13.084,9.188 4.272,17.733 4.272,17.733 C3.727,18.261 2.856,18.248 2.328,17.703 C2.328,17.703 0.368,15.682 0.368,15.682 C-0.160,15.137 -0.147,14.266 0.398,13.738 C0.398,13.738 9.210,5.193 9.210,5.193 C9.756,4.665 10.626,4.678 11.155,5.224 C11.155,5.224 13.114,7.244 13.114,7.244 C13.643,7.789 13.629,8.660 13.084,9.188 Z" id="path-4" class="cls-6" fill-rule="evenodd"/>
    <path d="M13.027,7.154 C13.027,7.154 11.242,5.313 11.242,5.313 C10.665,4.718 9.715,4.704 9.121,5.280 C9.121,5.280 9.073,5.327 9.073,5.327 C9.073,5.327 10.845,7.154 10.845,7.154 C11.422,7.749 11.407,8.699 10.812,9.275 C10.812,9.275 2.227,17.600 2.227,17.600 C2.227,17.600 2.241,17.613 2.241,17.613 C2.817,18.208 3.767,18.223 4.362,17.646 C4.362,17.646 12.994,9.275 12.994,9.275 C13.589,8.699 13.603,7.749 13.027,7.154 Z" id="path-5" class="cls-4" fill-rule="evenodd"/>
    <path d="M16.498,46.840 C16.498,46.840 16.319,46.661 16.319,46.661 C16.085,46.426 16.085,46.046 16.319,45.811 C16.319,45.811 38.226,23.905 38.226,23.905 C38.460,23.670 38.841,23.670 39.075,23.905 C39.075,23.905 39.254,24.084 39.254,24.084 C39.489,24.318 39.489,24.699 39.254,24.933 C39.254,24.933 17.348,46.840 17.348,46.840 C17.113,47.074 16.732,47.074 16.498,46.840 Z" id="path-6" class="cls-4" fill-rule="evenodd"/>
    <path d="M39.075,46.840 C39.075,46.840 39.254,46.661 39.254,46.661 C39.489,46.426 39.489,46.046 39.254,45.811 C39.254,45.811 17.348,23.905 17.348,23.905 C17.113,23.670 16.732,23.670 16.498,23.905 C16.498,23.905 16.319,24.084 16.319,24.084 C16.085,24.318 16.085,24.699 16.319,24.933 C16.319,24.933 38.226,46.840 38.226,46.840 C38.460,47.074 38.841,47.074 39.075,46.840 Z" id="path-7" class="cls-4" fill-rule="evenodd"/>
    <path d="M14.316,46.840 C14.316,46.840 14.138,46.661 14.138,46.661 C13.903,46.426 13.903,46.046 14.138,45.811 C14.138,45.811 36.043,23.905 36.043,23.905 C36.278,23.670 36.659,23.670 36.894,23.905 C36.894,23.905 37.072,24.084 37.072,24.084 C37.307,24.318 37.307,24.699 37.072,24.933 C37.072,24.933 15.166,46.840 15.166,46.840 C14.932,47.074 14.551,47.074 14.316,46.840 Z" id="path-8" class="cls-10" fill-rule="evenodd"/>
    <path d="M36.894,46.840 C36.894,46.840 37.072,46.661 37.072,46.661 C37.307,46.426 37.307,46.046 37.072,45.811 C37.072,45.811 15.166,23.905 15.166,23.905 C14.932,23.670 14.551,23.670 14.316,23.905 C14.316,23.905 14.138,24.084 14.138,24.084 C13.903,24.318 13.903,24.699 14.138,24.933 C14.138,24.933 36.043,46.840 36.043,46.840 C36.278,47.074 36.659,47.074 36.894,46.840 Z" id="path-9" class="cls-10" fill-rule="evenodd"/>
  </g>
</svg>
