<svg xmlns="http://www.w3.org/2000/svg" xmlns:xlink="http://www.w3.org/1999/xlink" preserveAspectRatio="xMidYMid" width="60" height="61" viewBox="0 0 60 61">
  <defs>
    <style>

      .cls-3 {
        fill: #fbb713;
      }

      .cls-4 {
        fill: #ffffff;
      }

      .cls-6 {
        fill: #0cb04a;
      }

      .cls-7 {
        fill: #020403;
        opacity: 0.25;
      }

      .cls-9 {
        fill: #bd8b0f;
      }

      .cls-10 {
        fill: #142a3b;
      }

      .cls-12 {
        fill: #020403;
      }
    </style>
  </defs>
  <g id="group-126svg">
    <path d="M28.375,45.799 C28.375,53.632 22.024,59.982 14.191,59.982 C6.358,59.982 0.008,53.632 0.008,45.799 C0.008,37.965 6.358,31.616 14.191,31.616 C22.024,31.616 28.375,37.965 28.375,45.799 Z" id="path-1" class="cls-3" fill-rule="evenodd"/>
    <path d="M3.841,47.713 C3.289,47.713 2.841,47.265 2.841,46.713 C2.841,39.967 8.329,34.478 15.076,34.478 C15.628,34.478 16.076,34.926 16.076,35.478 C16.076,36.031 15.628,36.478 15.076,36.478 C9.433,36.478 4.841,41.069 4.841,46.713 C4.841,47.265 4.394,47.713 3.841,47.713 Z" id="path-2" class="cls-4" fill-rule="evenodd"/>
    <circle id="circle-1" class="cls-3" cx="15" cy="46" r="2"/>
    <path d="M53.481,0.538 C49.098,3.258 36.923,13.062 31.367,20.992 C30.129,22.761 24.527,27.927 24.527,27.927 C24.527,27.927 32.221,34.490 32.195,34.356 C32.029,33.479 31.756,30.871 34.516,28.120 C37.699,24.946 45.736,13.247 55.020,10.226 C64.303,7.205 58.237,-2.413 53.481,0.538 Z" id="path-3" class="cls-6" fill-rule="evenodd"/>
    <path d="M57.682,0.776 C59.448,3.218 59.297,7.271 53.841,9.047 C44.557,12.067 36.519,23.766 33.336,26.940 C30.576,29.692 30.612,29.998 30.778,30.876 C30.797,30.975 27.807,28.756 25.622,26.897 C25.563,26.951 25.378,27.116 25.378,27.116 C25.378,27.116 32.221,34.490 32.195,34.356 C32.029,33.479 31.756,30.871 34.516,28.120 C37.699,24.945 45.736,13.247 55.020,10.226 C61.504,8.116 60.497,2.792 57.682,0.776 Z" id="path-4" class="cls-7" fill-rule="evenodd"/>
    <path d="M15.239,31.668 C20.196,33.879 23.657,38.840 23.657,44.620 C23.657,52.452 17.307,58.803 9.474,58.803 C9.120,58.803 8.773,58.775 8.426,58.750 C10.189,59.536 12.137,59.982 14.191,59.982 C22.024,59.982 28.375,53.632 28.375,45.799 C28.375,38.319 22.581,32.206 15.239,31.668 Z" id="path-5" class="cls-7" fill-rule="evenodd"/>
    <path d="M16.730,49.552 C15.097,49.552 13.769,48.219 13.769,46.582 C13.769,44.947 15.097,43.617 16.730,43.617 C17.227,43.617 17.706,43.741 18.128,43.969 C18.128,43.969 23.328,35.287 23.328,35.287 C23.328,35.287 24.234,36.182 24.234,36.182 C25.472,37.404 26.433,38.840 27.090,40.453 C27.090,40.453 27.403,41.218 27.403,41.218 C27.403,41.218 19.669,46.250 19.669,46.250 C19.682,46.360 19.688,46.471 19.688,46.582 C19.688,48.219 18.361,49.552 16.730,49.552 ZM16.730,45.617 C16.200,45.617 15.769,46.050 15.769,46.582 C15.769,47.116 16.200,47.552 16.730,47.552 C17.258,47.552 17.688,47.116 17.688,46.582 C17.688,46.450 17.661,46.321 17.608,46.198 C17.608,46.198 17.531,46.057 17.531,46.057 C17.352,45.781 17.052,45.617 16.730,45.617 ZM23.695,38.568 C23.695,38.568 21.067,42.954 21.067,42.954 C21.067,42.954 24.900,40.461 24.900,40.461 C24.564,39.787 24.162,39.154 23.695,38.568 Z" id="path-6" class="cls-9" fill-rule="evenodd"/>
    <path d="M14.791,42.643 C13.489,42.643 12.433,43.699 12.433,45.007 C12.433,46.314 13.489,47.377 14.791,47.377 C16.091,47.377 17.147,46.314 17.147,45.007 C17.147,43.699 16.091,42.643 14.791,42.643 Z" id="path-7" class="cls-10" fill-rule="evenodd"/>
    <path d="M15.458,45.465 C15.458,45.465 14.077,44.291 14.077,44.291 C14.077,44.291 24.636,26.662 24.636,26.662 C24.636,26.662 32.584,34.320 32.584,34.320 C32.584,34.320 15.458,45.465 15.458,45.465 ZM25.059,29.847 C25.059,29.847 18.205,41.292 18.205,41.292 C18.205,41.292 29.386,34.016 29.386,34.016 C29.386,34.016 25.059,29.847 25.059,29.847 Z" id="path-8" class="cls-10" fill-rule="evenodd"/>
    <path d="M54.436,6.317 C53.746,6.317 53.184,5.755 53.184,5.064 C53.184,4.372 53.746,3.810 54.436,3.810 C55.128,3.810 55.690,4.372 55.690,5.064 C55.690,5.755 55.128,6.317 54.436,6.317 ZM54.436,4.693 C54.232,4.693 54.066,4.859 54.066,5.064 C54.066,5.268 54.232,5.435 54.436,5.435 C54.641,5.435 54.808,5.268 54.808,5.064 C54.808,4.859 54.641,4.693 54.436,4.693 Z" id="path-9" class="cls-12" fill-rule="evenodd"/>
  </g>
</svg>
