<svg xmlns="http://www.w3.org/2000/svg" xmlns:xlink="http://www.w3.org/1999/xlink" preserveAspectRatio="xMidYMid" width="51" height="61" viewBox="0 0 51 61">
  <defs>
    <style>

      .cls-3 {
        fill: #fbb713;
      }

      .cls-4 {
        fill: #000000;
        opacity: 0.25;
      }

      .cls-5 {
        fill: #142a3b;
      }

      .cls-11 {
        fill: #ededed;
      }
    </style>
  </defs>
  <g id="group-234svg">
    <path d="M37.762,59.997 C44.560,59.997 50.070,54.487 50.070,47.689 C50.070,47.689 25.455,47.689 25.455,47.689 C25.455,54.487 30.965,59.997 37.762,59.997 Z" id="path-1" class="cls-3" fill-rule="evenodd"/>
    <path d="M45.706,47.690 C45.706,53.741 41.335,58.762 35.581,59.793 C36.290,59.920 37.016,59.997 37.762,59.997 C44.560,59.997 50.070,54.487 50.070,47.690 C50.070,47.690 45.706,47.690 45.706,47.690 Z" id="path-2" class="cls-4" fill-rule="evenodd"/>
    <path d="M28.531,48.305 C28.531,48.305 25.455,48.305 25.455,48.305 C25.455,48.305 25.455,2.151 25.455,2.151 C25.455,2.151 28.531,2.151 28.531,2.151 C28.531,2.151 28.531,48.305 28.531,48.305 Z" id="path-3" class="cls-5" fill-rule="evenodd"/>
    <path d="M22.624,6.258 C22.624,6.258 22.389,6.022 22.389,6.022 C21.672,5.306 21.672,4.145 22.389,3.430 C22.389,3.430 25.235,0.583 25.235,0.583 C25.951,-0.133 27.112,-0.133 27.828,0.583 C27.828,0.583 28.063,0.819 28.063,0.819 C28.779,1.534 28.779,2.695 28.063,3.412 C28.063,3.412 25.217,6.258 25.217,6.258 C24.501,6.974 23.340,6.974 22.624,6.258 Z" id="path-4" class="cls-5" fill-rule="evenodd"/>
    <path d="M9.768,35.262 C9.768,35.262 6.184,35.262 6.184,35.262 C6.184,35.262 6.184,21.840 6.184,21.840 C6.184,21.840 9.768,21.840 9.768,21.840 C9.768,21.840 9.768,35.262 9.768,35.262 Z" id="path-5" class="cls-5" fill-rule="evenodd"/>
    <path d="M5.363,34.262 C5.363,34.262 5.363,56.461 5.363,56.461 C5.363,57.904 6.533,59.074 7.977,59.074 C9.420,59.074 10.590,57.904 10.590,56.461 C10.590,56.461 10.590,34.262 10.590,34.262 C10.590,34.262 5.363,34.262 5.363,34.262 Z" id="path-6" class="cls-5" fill-rule="evenodd"/>
    <path d="M0.001,-0.003 C0.001,-0.003 0.001,11.359 0.001,11.359 C0.001,19.080 3.050,25.340 6.810,25.340 C6.810,25.340 9.143,25.340 9.143,25.340 C12.903,25.340 15.952,19.080 15.952,11.359 C15.952,11.359 15.952,-0.003 15.952,-0.003 C15.952,-0.003 0.001,-0.003 0.001,-0.003 Z" id="path-7" class="cls-3" fill-rule="evenodd"/>
    <path d="M13.769,-0.003 C13.769,-0.003 13.769,10.268 13.769,10.268 C13.769,17.990 10.721,24.249 6.961,24.249 C6.961,24.249 4.628,24.249 4.628,24.249 C4.455,24.249 4.284,24.222 4.114,24.196 C4.941,24.929 5.852,25.340 6.810,25.340 C6.810,25.340 9.143,25.340 9.143,25.340 C12.903,25.340 15.952,19.080 15.952,11.359 C15.952,11.359 15.952,-0.003 15.952,-0.003 C15.952,-0.003 13.769,-0.003 13.769,-0.003 Z" id="path-8" class="cls-4" fill-rule="evenodd"/>
    <path d="M3.233,14.616 C2.681,14.616 2.233,14.168 2.233,13.616 C2.233,13.616 2.233,3.420 2.233,3.420 C2.233,2.868 2.681,2.420 3.233,2.420 C3.786,2.420 4.233,2.868 4.233,3.420 C4.233,3.420 4.233,13.616 4.233,13.616 C4.233,14.168 3.786,14.616 3.233,14.616 Z" id="path-9" class="cls-11" fill-rule="evenodd"/>
  </g>
</svg>
