<svg xmlns="http://www.w3.org/2000/svg" xmlns:xlink="http://www.w3.org/1999/xlink" preserveAspectRatio="xMidYMid" width="43" height="60" viewBox="0 0 43 60">
  <defs>
    <style>

      .cls-3 {
        fill: #142a3b;
      }

      .cls-4 {
        fill: #020403;
        opacity: 0.35;
      }

      .cls-5 {
        fill: #ff3a2f;
      }

      .cls-7 {
        fill: #ffffff;
      }
    </style>
  </defs>
  <g id="group-119svg">
    <path d="M21.192,40.674 C21.192,40.674 41.660,2.645 41.660,2.645 C41.678,2.610 41.676,2.571 41.694,2.536 C41.747,2.417 41.775,2.299 41.804,2.174 C41.828,2.064 41.856,1.961 41.859,1.848 C41.862,1.733 41.844,1.625 41.826,1.511 C41.808,1.393 41.793,1.279 41.750,1.168 C41.714,1.066 41.656,0.977 41.602,0.884 C41.538,0.772 41.473,0.663 41.384,0.567 C41.355,0.540 41.346,0.502 41.319,0.475 C41.260,0.418 41.183,0.394 41.116,0.347 C41.047,0.297 40.999,0.227 40.922,0.185 C40.884,0.164 40.845,0.167 40.806,0.150 C40.697,0.099 40.584,0.075 40.468,0.047 C40.352,0.020 40.239,-0.010 40.122,-0.013 C40.012,-0.018 39.909,0.002 39.798,0.019 C39.677,0.037 39.560,0.053 39.445,0.095 C39.345,0.130 39.258,0.187 39.164,0.241 C39.052,0.307 38.944,0.371 38.846,0.463 C38.816,0.489 38.781,0.498 38.751,0.528 C38.751,0.528 9.524,30.991 9.524,30.991 C5.301,32.900 -1.323,38.605 1.640,47.809 C3.558,53.758 3.328,54.986 3.238,55.190 C3.165,55.260 2.866,55.398 2.647,55.498 C2.216,55.699 1.752,55.920 1.285,56.242 C1.285,56.242 -0.003,57.259 -0.003,57.259 C-0.003,57.259 0.370,58.525 0.370,58.525 C0.493,58.950 0.955,59.940 2.558,59.984 C6.504,60.094 18.661,55.533 21.192,40.674 Z" id="path-1" class="cls-3" fill-rule="evenodd"/>
    <path d="M19.025,37.424 C19.025,37.424 38.960,0.382 38.960,0.382 C39.027,0.334 39.093,0.283 39.164,0.241 C39.258,0.186 39.345,0.130 39.445,0.095 C39.560,0.053 39.677,0.037 39.798,0.019 C39.909,0.002 40.012,-0.018 40.122,-0.013 C40.239,-0.010 40.352,0.020 40.468,0.047 C40.584,0.075 40.697,0.099 40.806,0.150 C40.845,0.167 40.884,0.165 40.922,0.185 C40.999,0.227 41.047,0.297 41.117,0.347 C41.183,0.394 41.260,0.418 41.319,0.475 C41.346,0.502 41.355,0.540 41.384,0.567 C41.473,0.663 41.538,0.772 41.602,0.884 C41.656,0.977 41.714,1.066 41.750,1.168 C41.793,1.279 41.808,1.393 41.826,1.511 C41.844,1.625 41.862,1.733 41.859,1.848 C41.856,1.960 41.828,2.064 41.804,2.174 C41.775,2.299 41.747,2.417 41.694,2.536 C41.676,2.571 41.678,2.610 41.660,2.645 C41.660,2.645 21.192,40.674 21.192,40.674 C18.661,55.533 6.504,60.094 2.558,59.985 C0.955,59.940 0.493,58.950 0.370,58.525 C0.370,58.525 -0.003,57.259 -0.003,57.259 C-0.003,57.259 0.679,56.721 0.679,56.721 C4.878,56.628 16.549,51.961 19.025,37.424 Z" id="path-2" class="cls-4" fill-rule="evenodd"/>
    <path d="M21.625,39.871 C21.625,39.871 21.192,40.674 21.192,40.674 C18.661,55.533 6.504,60.094 2.558,59.984 C0.956,59.940 0.493,58.950 0.370,58.525 C0.370,58.525 -0.003,57.259 -0.003,57.259 C-0.003,57.259 1.285,56.242 1.285,56.242 C1.752,55.920 2.216,55.699 2.647,55.498 C2.866,55.398 3.165,55.260 3.238,55.190 C3.329,54.986 3.558,53.758 1.640,47.809 C-1.121,39.232 4.441,33.697 8.629,31.438 C8.629,31.438 21.625,39.871 21.625,39.871 Z" id="path-3" class="cls-5" fill-rule="evenodd"/>
    <path d="M15.325,41.826 C15.641,40.473 15.209,39.047 14.207,38.085 C14.207,38.085 7.796,31.922 7.796,31.922 C8.078,31.747 8.356,31.585 8.629,31.438 C8.629,31.438 21.625,39.871 21.625,39.871 C21.625,39.871 21.192,40.674 21.192,40.674 C18.661,55.533 6.504,60.094 2.558,59.984 C1.251,59.948 0.708,59.286 0.484,58.812 C4.977,58.194 12.535,53.749 15.325,41.826 Z" id="path-4" class="cls-4" fill-rule="evenodd"/>
    <path d="M2.389,42.589 C2.389,43.836 3.400,44.846 4.646,44.846 C5.894,44.846 6.904,43.836 6.904,42.589 C6.904,41.343 5.894,40.332 4.646,40.332 C3.400,40.332 2.389,41.343 2.389,42.589 Z" id="path-5" class="cls-7" fill-rule="evenodd"/>
  </g>
</svg>
