<svg xmlns="http://www.w3.org/2000/svg" xmlns:xlink="http://www.w3.org/1999/xlink" preserveAspectRatio="xMidYMid" width="61" height="60" viewBox="0 0 61 60">
  <defs>
    <style>

      .cls-3 {
        fill: #142a3b;
      }

      .cls-6 {
        fill: #0cb04a;
      }

      .cls-7 {
        fill: #000000;
        opacity: 0.35;
      }

      .cls-10 {
        fill: #fbb713;
      }
    </style>
  </defs>
  <g id="group-231svg">
    <path d="M44.570,2.338 C44.570,2.338 5.033,16.006 5.033,16.006 C4.380,16.232 4.035,16.944 4.260,17.597 C4.260,17.597 4.532,18.384 4.532,18.384 C4.758,19.037 5.470,19.382 6.122,19.157 C6.122,19.157 45.659,5.488 45.659,5.488 C46.311,5.263 46.658,4.551 46.432,3.898 C46.432,3.898 46.160,3.110 46.160,3.110 C45.935,2.458 45.223,2.112 44.570,2.338 Z" id="path-1" class="cls-3" fill-rule="evenodd"/>
    <path d="M47.742,58.977 C47.742,58.977 46.909,58.977 46.909,58.977 C46.218,58.977 45.659,58.417 45.659,57.727 C45.659,57.727 45.659,52.227 45.659,52.227 C45.659,51.537 46.218,50.977 46.909,50.977 C46.909,50.977 47.742,50.977 47.742,50.977 C48.432,50.977 48.992,51.537 48.992,52.227 C48.992,52.227 48.992,57.727 48.992,57.727 C48.992,58.417 48.432,58.977 47.742,58.977 Z" id="path-2" class="cls-3" fill-rule="evenodd"/>
    <path d="M13.075,58.977 C13.075,58.977 12.242,58.977 12.242,58.977 C11.551,58.977 10.992,58.417 10.992,57.727 C10.992,57.727 10.992,52.227 10.992,52.227 C10.992,51.537 11.551,50.977 12.242,50.977 C12.242,50.977 13.075,50.977 13.075,50.977 C13.766,50.977 14.325,51.537 14.325,52.227 C14.325,52.227 14.325,57.727 14.325,57.727 C14.325,58.417 13.766,58.977 13.075,58.977 Z" id="path-3" class="cls-3" fill-rule="evenodd"/>
    <path d="M50.742,53.310 C50.742,53.310 9.242,53.310 9.242,53.310 C4.133,53.310 -0.008,49.169 -0.008,44.060 C-0.008,44.060 -0.008,23.227 -0.008,23.227 C-0.008,18.118 4.133,13.977 9.242,13.977 C9.242,13.977 50.742,13.977 50.742,13.977 C55.851,13.977 59.992,18.118 59.992,23.227 C59.992,23.227 59.992,44.060 59.992,44.060 C59.992,49.169 55.851,53.310 50.742,53.310 Z" id="path-4" class="cls-6" fill-rule="evenodd"/>
    <path d="M53.492,14.330 C55.334,16.273 55.992,19.255 55.992,22.143 C55.992,22.143 55.992,39.810 55.992,39.810 C55.992,45.793 51.142,50.643 45.159,50.643 C45.159,50.643 6.825,51.751 6.825,51.751 C5.466,51.751 3.806,51.111 2.607,50.654 C4.581,52.735 6.363,53.310 10.825,53.310 C10.825,53.310 50.266,53.310 50.266,53.310 C56.249,53.310 59.992,49.567 59.992,43.584 C59.992,43.584 59.992,23.703 59.992,23.703 C59.992,19.079 57.570,15.885 53.492,14.330 Z" id="path-5" class="cls-7" fill-rule="evenodd"/>
    <path d="M49.423,3.414 C49.423,5.297 47.896,6.824 46.013,6.824 C44.130,6.824 42.603,5.297 42.603,3.414 C42.603,1.531 44.130,0.004 46.013,0.004 C47.896,0.004 49.423,1.531 49.423,3.414 Z" id="path-6" class="cls-3" fill-rule="evenodd"/>
    <path d="M53.492,33.643 C53.492,40.271 48.119,45.643 41.492,45.643 C34.864,45.643 29.492,40.271 29.492,33.643 C29.492,27.016 34.864,21.643 41.492,21.643 C48.119,21.643 53.492,27.016 53.492,33.643 Z" id="path-7" class="cls-3" fill-rule="evenodd"/>
    <path d="M47.492,33.643 C47.492,36.957 44.806,39.643 41.492,39.643 C38.178,39.643 35.492,36.957 35.492,33.643 C35.492,30.330 38.178,27.643 41.492,27.643 C44.806,27.643 47.492,30.330 47.492,33.643 Z" id="path-8" class="cls-10" fill-rule="evenodd"/>
    <path d="M46.337,30.131 C47.056,31.121 47.492,32.327 47.492,33.643 C47.492,36.957 44.806,39.643 41.492,39.643 C40.176,39.643 38.969,39.207 37.980,38.489 C39.070,39.990 40.828,40.977 42.825,40.977 C46.139,40.977 48.825,38.291 48.825,34.977 C48.825,32.979 47.838,31.222 46.337,30.131 Z" id="path-9" class="cls-7" fill-rule="evenodd"/>
    <path d="M25.700,30.643 C25.700,30.643 7.617,30.643 7.617,30.643 C6.996,30.643 6.492,30.140 6.492,29.518 C6.492,29.518 6.492,28.768 6.492,28.768 C6.492,28.147 6.996,27.643 7.617,27.643 C7.617,27.643 25.700,27.643 25.700,27.643 C26.322,27.643 26.825,28.147 26.825,28.768 C26.825,28.768 26.825,29.518 26.825,29.518 C26.825,30.140 26.322,30.643 25.700,30.643 Z" id="path-10" class="cls-3" fill-rule="evenodd"/>
    <path d="M25.700,43.977 C25.700,43.977 7.617,43.977 7.617,43.977 C6.996,43.977 6.492,43.473 6.492,42.852 C6.492,42.852 6.492,42.102 6.492,42.102 C6.492,41.480 6.996,40.977 7.617,40.977 C7.617,40.977 25.700,40.977 25.700,40.977 C26.322,40.977 26.825,41.480 26.825,42.102 C26.825,42.102 26.825,42.852 26.825,42.852 C26.825,43.473 26.322,43.977 25.700,43.977 Z" id="path-11" class="cls-3" fill-rule="evenodd"/>
    <path d="M25.700,37.310 C25.700,37.310 7.617,37.310 7.617,37.310 C6.996,37.310 6.492,36.806 6.492,36.185 C6.492,36.185 6.492,35.435 6.492,35.435 C6.492,34.814 6.996,34.310 7.617,34.310 C7.617,34.310 25.700,34.310 25.700,34.310 C26.322,34.310 26.825,34.814 26.825,35.435 C26.825,35.435 26.825,36.185 26.825,36.185 C26.825,36.806 26.322,37.310 25.700,37.310 Z" id="path-12" class="cls-3" fill-rule="evenodd"/>
  </g>
</svg>
