<svg xmlns="http://www.w3.org/2000/svg" xmlns:xlink="http://www.w3.org/1999/xlink" preserveAspectRatio="xMidYMid" width="36" height="60" viewBox="0 0 36 60">
  <defs>
    <style>

      .cls-3 {
        fill: #0cb04a;
      }

      .cls-4 {
        fill: #020403;
        opacity: 0.35;
      }

      .cls-7 {
        fill: #ff3a2f;
      }

      .cls-8 {
        fill: #142a3b;
      }

      .cls-10 {
        fill: #a72720;
      }

      .cls-11 {
        fill: #ededed;
      }
    </style>
  </defs>
  <g id="group-93svg">
    <path d="M27.270,41.779 C26.874,44.901 26.266,47.910 25.461,50.767 C25.461,50.767 24.882,54.308 24.882,54.308 C24.882,54.308 34.845,57.098 34.845,57.098 C34.845,57.098 34.845,47.627 34.845,47.627 C34.845,47.627 27.270,41.779 27.270,41.779 Z" id="path-1" class="cls-3" fill-rule="evenodd"/>
    <path d="M29.062,52.916 C29.062,52.916 29.641,49.374 29.641,49.374 C30.086,47.793 30.465,46.162 30.788,44.495 C30.788,44.495 27.270,41.779 27.270,41.779 C26.874,44.901 26.266,47.910 25.461,50.767 C25.461,50.767 24.882,54.308 24.882,54.308 C24.882,54.308 34.845,57.098 34.845,57.098 C34.845,57.098 34.845,54.534 34.845,54.534 C34.845,54.534 29.062,52.916 29.062,52.916 Z" id="path-2" class="cls-4" fill-rule="evenodd"/>
    <path d="M8.983,41.694 C8.983,41.694 0.009,47.627 0.009,47.627 C0.009,47.627 0.009,57.098 0.009,57.098 C0.009,57.098 10.912,54.308 10.912,54.308 C10.912,54.308 10.035,47.731 10.035,47.731 C9.593,45.776 9.243,43.759 8.983,41.694 Z" id="path-3" class="cls-3" fill-rule="evenodd"/>
    <path d="M10.035,47.731 C9.593,45.776 9.243,43.759 8.983,41.694 C8.983,41.694 6.637,43.245 6.637,43.245 C6.816,44.291 7.019,45.323 7.248,46.338 C7.248,46.338 8.125,52.916 8.125,52.916 C8.125,52.916 0.009,54.992 0.009,54.992 C0.009,54.992 0.009,57.098 0.009,57.098 C0.009,57.098 10.912,54.308 10.912,54.308 C10.912,54.308 10.035,47.731 10.035,47.731 Z" id="path-4" class="cls-4" fill-rule="evenodd"/>
    <path d="M7.067,34.774 C7.067,41.643 8.102,48.150 9.952,53.971 C12.500,61.986 23.765,61.986 26.313,53.971 C28.163,48.150 29.198,41.643 29.198,34.774 C29.198,20.756 24.887,8.240 18.133,0.002 C11.379,8.240 7.067,20.756 7.067,34.774 Z" id="path-5" class="cls-7" fill-rule="evenodd"/>
    <path d="M24.625,19.312 C24.625,19.312 10.625,19.312 10.625,19.312 C10.073,19.312 9.625,18.865 9.625,18.312 C9.625,17.760 10.073,17.312 10.625,17.312 C10.625,17.312 24.625,17.312 24.625,17.312 C25.177,17.312 25.625,17.760 25.625,18.312 C25.625,18.865 25.177,19.312 24.625,19.312 Z" id="path-6" class="cls-8" fill-rule="evenodd"/>
    <path d="M18.133,0.020 C18.133,0.020 18.133,60.002 18.133,60.002 C21.586,60.002 25.039,57.998 26.313,53.989 C28.163,48.169 29.198,41.661 29.198,34.793 C29.198,20.775 24.887,8.259 18.133,0.020 Z" id="path-7" class="cls-4" fill-rule="evenodd"/>
    <path d="M25.044,31.117 C25.044,28.721 23.102,26.779 20.706,26.779 C18.310,26.779 16.368,28.721 16.368,31.117 C16.368,33.513 18.310,35.455 20.706,35.455 C23.102,35.455 25.044,33.513 25.044,31.117 Z" id="path-8" class="cls-10" fill-rule="evenodd"/>
    <path d="M22.257,29.723 C22.257,27.328 20.315,25.385 17.919,25.385 C15.523,25.385 13.581,27.328 13.581,29.723 C13.581,32.119 15.523,34.062 17.919,34.062 C20.315,34.062 22.257,32.119 22.257,29.723 Z" id="path-9" class="cls-11" fill-rule="evenodd"/>
  </g>
</svg>
