<svg xmlns="http://www.w3.org/2000/svg" xmlns:xlink="http://www.w3.org/1999/xlink" preserveAspectRatio="xMidYMid" width="39" height="60" viewBox="0 0 39 60">
  <defs>
    <style>

      .cls-3 {
        fill: #0cb04a;
      }

      .cls-4 {
        fill: #000000;
        opacity: 0.25;
      }

      .cls-5 {
        fill: #000000;
        opacity: 0.35;
      }

      .cls-8 {
        fill: #142a3b;
      }

      .cls-10 {
        fill: #ededed;
      }
    </style>
  </defs>
  <g id="group-283svg">
    <path d="M0.003,6.037 C0.003,6.037 0.003,53.934 0.003,53.934 C0.003,57.276 8.590,59.985 19.179,59.985 C29.767,59.985 38.353,57.276 38.353,53.934 C38.353,53.934 38.353,6.037 38.353,6.037 C38.353,6.037 38.353,6.037 38.353,6.037 " id="path-1" class="cls-3" fill-rule="evenodd"/>
    <path d="M0.003,6.037 C0.003,6.037 0.003,53.934 0.003,53.934 C0.003,57.276 8.590,59.985 19.179,59.985 C29.767,59.985 38.353,57.276 38.353,53.934 C38.353,53.934 38.353,6.037 38.353,6.037 C38.353,6.037 38.353,6.037 38.353,6.037 " id="path-2" class="cls-4" fill-rule="evenodd"/>
    <path d="M38.353,6.037 C38.353,6.037 34.689,9.593 34.689,9.593 C31.272,10.731 23.446,12.984 13.638,11.501 C8.297,10.693 3.587,9.265 0.311,7.622 C1.619,10.627 8.973,13.857 18.174,15.249 C24.162,16.154 29.626,16.082 33.308,15.239 C33.308,15.239 33.308,50.906 33.308,50.906 C33.308,54.248 24.721,56.958 14.133,56.958 C8.731,56.958 3.860,56.250 0.375,55.116 C2.118,57.892 9.872,59.985 19.179,59.985 C29.767,59.985 38.353,57.276 38.353,53.934 C38.353,53.934 38.353,10.049 38.353,10.049 C38.353,10.049 38.353,6.037 38.353,6.037 Z" id="path-3" class="cls-5" fill-rule="evenodd"/>
    <path d="M38.353,6.037 C38.353,9.379 29.767,12.089 19.179,12.089 C8.590,12.089 0.003,9.379 0.003,6.037 C0.003,2.695 8.590,-0.014 19.179,-0.014 C29.767,-0.014 38.353,2.695 38.353,6.037 Z" id="path-4" class="cls-3" fill-rule="evenodd"/>
    <path d="M19.179,-0.014 C18.497,-0.014 17.824,-0.002 17.160,0.020 C26.800,0.338 34.317,2.910 34.317,6.037 C34.317,9.164 26.800,11.736 17.160,12.055 C17.824,12.077 18.497,12.089 19.179,12.089 C29.767,12.089 38.353,9.379 38.353,6.037 C38.353,2.695 29.767,-0.014 19.179,-0.014 Z" id="path-5" class="cls-4" fill-rule="evenodd"/>
    <path d="M12.272,6.037 C12.272,6.592 10.846,7.043 9.086,7.043 C7.327,7.043 5.901,6.592 5.901,6.037 C5.901,5.482 7.327,5.032 9.086,5.032 C10.846,5.032 12.272,5.482 12.272,6.037 Z" id="path-6" class="cls-8" fill-rule="evenodd"/>
    <path d="M12.161,6.287 C11.808,6.721 10.571,7.043 9.086,7.043 C8.294,7.043 7.578,6.948 7.021,6.797 C6.955,6.877 6.910,6.960 6.910,7.047 C6.910,7.601 8.336,8.052 10.096,8.052 C11.855,8.052 13.281,7.601 13.281,7.047 C13.281,6.741 12.841,6.472 12.161,6.287 Z" id="path-7" class="cls-5" fill-rule="evenodd"/>
    <path d="M33.057,38.191 C33.057,45.856 26.843,52.069 19.179,52.069 C11.514,52.069 5.301,45.856 5.301,38.191 C5.301,30.527 11.514,24.313 19.179,24.313 C26.843,24.313 33.057,30.527 33.057,38.191 Z" id="path-8" class="cls-10" fill-rule="evenodd"/>
    <path d="M26.332,26.316 C30.357,28.746 33.057,33.147 33.057,38.191 C33.057,45.856 26.843,52.069 19.179,52.069 C17.363,52.069 15.633,51.710 14.043,51.076 C16.134,52.338 18.576,53.078 21.197,53.078 C28.861,53.078 35.075,46.865 35.075,39.200 C35.075,33.352 31.452,28.358 26.332,26.316 Z" id="path-9" class="cls-5" fill-rule="evenodd"/>
    <path d="M24.796,39.758 C24.796,42.861 22.281,45.376 19.179,45.376 C16.076,45.376 13.561,42.861 13.561,39.758 C13.561,36.655 19.179,30.377 19.179,30.377 C19.179,30.377 24.796,36.655 24.796,39.758 Z" id="path-10" class="cls-8" fill-rule="evenodd"/>
    <path d="M19.179,30.377 C19.179,30.377 18.765,30.841 18.169,31.567 C19.785,33.537 22.778,37.491 22.778,39.758 C22.778,42.516 20.790,44.804 18.169,45.281 C18.497,45.340 18.833,45.376 19.179,45.376 C22.281,45.376 24.796,42.861 24.796,39.758 C24.796,36.655 19.179,30.377 19.179,30.377 Z" id="path-11" class="cls-4" fill-rule="evenodd"/>
  </g>
</svg>
