<svg xmlns="http://www.w3.org/2000/svg" xmlns:xlink="http://www.w3.org/1999/xlink" preserveAspectRatio="xMidYMid" width="60" height="35" viewBox="0 0 60 35">
  <defs>
    <style>

      .cls-3 {
        fill: #ff3a2f;
      }

      .cls-4 {
        fill: #142a3b;
      }
    </style>
  </defs>
  <g id="group-324svg">
    <path d="M10.049,34.643 C9.227,34.643 8.401,34.536 7.586,34.317 C5.080,33.646 2.987,32.017 1.696,29.730 C1.696,29.730 1.268,28.971 1.268,28.971 C-1.364,24.312 0.212,18.327 4.781,15.631 C4.781,15.631 24.050,4.259 24.050,4.259 C26.264,2.952 28.849,2.598 31.322,3.260 C33.829,3.932 35.920,5.561 37.212,7.848 C37.212,7.848 37.639,8.604 37.639,8.604 C40.271,13.265 38.696,19.250 34.127,21.947 C34.127,21.947 32.422,22.953 32.422,22.953 C32.422,22.953 30.389,19.508 30.389,19.508 C30.389,19.508 32.094,18.502 32.094,18.502 C34.799,16.905 35.725,13.348 34.157,10.572 C34.157,10.572 33.729,9.815 33.729,9.815 C32.970,8.471 31.748,7.515 30.287,7.124 C28.857,6.740 27.365,6.948 26.083,7.703 C26.083,7.703 6.814,19.075 6.814,19.075 C4.108,20.672 3.183,24.229 4.750,27.005 C4.750,27.005 5.179,27.763 5.179,27.763 C5.937,29.107 7.160,30.062 8.621,30.453 C10.051,30.836 11.544,30.631 12.825,29.874 C12.825,29.874 17.128,27.334 17.128,27.334 C17.128,27.334 19.162,30.778 19.162,30.778 C19.162,30.778 14.858,33.318 14.858,33.318 C13.373,34.195 11.722,34.643 10.049,34.643 Z" id="path-1" class="cls-3" fill-rule="evenodd"/>
    <path d="M31.116,31.705 C30.295,31.705 29.468,31.597 28.653,31.378 C26.146,30.707 24.055,29.078 22.764,26.791 C22.764,26.791 22.336,26.033 22.336,26.033 C19.704,21.374 21.280,15.389 25.848,12.692 C25.848,12.692 27.553,11.686 27.553,11.686 C28.506,11.125 29.731,11.441 30.292,12.391 C30.853,13.342 30.538,14.569 29.586,15.130 C29.586,15.130 27.881,16.137 27.881,16.137 C25.176,17.733 24.251,21.291 25.819,24.067 C25.819,24.067 26.246,24.824 26.246,24.824 C27.005,26.168 28.228,27.123 29.688,27.514 C31.117,27.898 32.611,27.692 33.893,26.935 C33.893,26.935 53.162,15.563 53.162,15.563 C55.867,13.966 56.792,10.409 55.225,7.634 C55.225,7.634 54.796,6.875 54.796,6.875 C54.037,5.532 52.815,4.576 51.355,4.185 C49.926,3.803 48.432,4.008 47.150,4.765 C47.150,4.765 42.847,7.304 42.847,7.304 C41.894,7.868 40.669,7.551 40.108,6.599 C39.546,5.648 39.862,4.421 40.813,3.860 C40.813,3.860 45.117,1.320 45.117,1.320 C47.331,0.012 49.913,-0.342 52.390,0.321 C54.896,0.993 56.988,2.622 58.279,4.909 C58.279,4.909 58.707,5.667 58.707,5.667 C61.340,10.326 59.764,16.311 55.195,19.007 C55.195,19.007 35.926,30.380 35.926,30.380 C34.440,31.256 32.789,31.705 31.116,31.705 Z" id="path-2" class="cls-4" fill-rule="evenodd"/>
  </g>
</svg>
