<svg xmlns="http://www.w3.org/2000/svg" xmlns:xlink="http://www.w3.org/1999/xlink" preserveAspectRatio="xMidYMid" width="61" height="58" viewBox="0 0 61 58">
  <defs>
    <style>

      .cls-3 {
        fill: #ff3a2f;
      }

      .cls-4 {
        fill: #020403;
        opacity: 0.35;
      }

      .cls-6 {
        fill: #ededed;
      }

      .cls-8 {
        fill: #142a3b;
      }
    </style>
  </defs>
  <g id="group-27svg">
    <path d="M51.230,16.834 C51.230,16.834 51.230,0.004 51.230,0.004 C51.230,0.004 38.022,0.004 38.022,0.004 C38.044,0.246 38.059,0.489 38.059,0.736 C38.059,5.182 34.456,8.785 30.011,8.785 C25.565,8.785 21.962,5.182 21.962,0.736 C21.962,0.489 21.977,0.246 21.999,0.004 C21.999,0.004 10.254,0.004 10.254,0.004 C10.254,0.004 10.254,16.834 10.254,16.834 C10.254,22.065 5.974,26.346 0.742,26.346 C0.495,26.346 0.253,26.327 0.011,26.309 C0.011,26.309 0.011,57.809 0.011,57.809 C0.011,57.809 60.011,57.809 60.011,57.809 C60.011,57.809 60.011,26.309 60.011,26.309 C55.118,25.931 51.230,21.819 51.230,16.834 Z" id="path-1" class="cls-3" fill-rule="evenodd"/>
    <path d="M17.608,1.468 C17.586,1.709 17.571,1.953 17.571,2.199 C17.571,6.645 21.175,10.249 25.620,10.249 C27.348,10.249 28.944,9.699 30.256,8.773 C30.173,8.775 30.093,8.785 30.011,8.785 C25.565,8.785 21.962,5.182 21.962,0.736 C21.962,0.489 21.977,0.246 21.999,0.004 C21.999,0.004 10.254,0.004 10.254,0.004 C10.254,0.004 10.254,1.468 10.254,1.468 C10.254,1.468 17.608,1.468 17.608,1.468 Z" id="path-2" class="cls-4" fill-rule="evenodd"/>
    <path d="M51.230,16.834 C51.230,16.834 51.230,0.004 51.230,0.004 C51.230,0.004 38.022,0.004 38.022,0.004 C38.044,0.246 38.059,0.489 38.059,0.736 C38.059,0.983 38.044,1.226 38.022,1.468 C38.022,1.468 41.360,1.468 41.360,1.468 C44.387,1.468 46.840,3.921 46.840,6.947 C46.840,6.947 46.840,18.297 46.840,18.297 C46.840,21.621 48.568,24.556 51.169,26.255 C54.040,28.131 55.620,31.463 55.620,34.892 C55.620,34.892 55.620,57.809 55.620,57.809 C55.620,57.809 60.011,57.809 60.011,57.809 C60.011,57.809 60.011,26.309 60.011,26.309 C55.118,25.931 51.230,21.819 51.230,16.834 Z" id="path-3" class="cls-4" fill-rule="evenodd"/>
    <path d="M60.011,51.224 C60.011,51.224 0.011,51.224 0.011,51.224 C0.011,51.224 0.011,39.517 0.011,39.517 C0.011,39.517 60.011,39.517 60.011,39.517 C60.011,39.517 60.011,51.224 60.011,51.224 Z" id="path-4" class="cls-6" fill-rule="evenodd"/>
    <path d="M55.620,39.517 C55.620,39.517 55.620,51.224 55.620,51.224 C55.620,51.224 60.011,51.224 60.011,51.224 C60.011,51.224 60.011,39.517 60.011,39.517 C60.011,39.517 55.620,39.517 55.620,39.517 Z" id="path-5" class="cls-4" fill-rule="evenodd"/>
    <path d="M31.010,57.809 C31.010,57.809 29.010,57.809 29.010,57.809 C29.010,57.809 29.010,8.785 29.010,8.785 C29.010,8.785 31.010,8.785 31.010,8.785 C31.010,8.785 31.010,57.809 31.010,57.809 Z" id="path-6" class="cls-8" fill-rule="evenodd"/>
    <path d="M35.376,46.370 C35.376,46.370 25.620,46.370 25.620,46.370 C25.620,46.370 25.620,44.370 25.620,44.370 C25.620,44.370 35.376,44.370 35.376,44.370 C35.376,44.370 35.376,46.370 35.376,46.370 Z" id="path-7" class="cls-8" fill-rule="evenodd"/>
  </g>
</svg>
