<svg xmlns="http://www.w3.org/2000/svg" xmlns:xlink="http://www.w3.org/1999/xlink" preserveAspectRatio="xMidYMid" width="39" height="61" viewBox="0 0 39 61">
  <defs>
    <style>

      .cls-3 {
        fill: #142a3b;
      }

      .cls-4 {
        fill: #010101;
        opacity: 0.35;
      }

      .cls-5 {
        fill: #ff3a2f;
      }

      .cls-6 {
        fill: #2476ff;
      }

      .cls-12 {
        fill: #000000;
        opacity: 0.35;
      }

      .cls-13 {
        fill: #fbb713;
      }

      .cls-14 {
        fill: #000000;
        opacity: 0.25;
      }
    </style>
  </defs>
  <g id="group-10svg">
    <path d="M23.688,13.731 C22.921,9.301 19.059,5.932 14.410,5.932 C9.210,5.932 4.994,10.148 4.994,15.348 C4.994,15.348 5.189,58.418 5.189,58.418 C5.189,58.418 -0.013,58.418 -0.013,58.418 C-0.013,58.418 0.224,14.187 0.224,14.187 C0.224,6.352 6.575,0.000 14.410,0.000 C22.246,0.000 28.597,6.352 28.597,14.187 C28.597,14.187 28.597,14.187 28.597,14.187 " id="path-1" class="cls-3" fill-rule="evenodd"/>
    <path d="M28.546,13.186 C28.464,12.006 28.245,10.864 27.891,9.781 C27.461,9.645 27.012,9.551 26.537,9.551 C26.537,9.551 25.237,9.551 25.237,9.551 C24.196,9.551 23.249,9.919 22.486,10.513 C22.967,11.316 23.330,12.195 23.556,13.129 C24.311,12.978 25.087,12.884 25.887,12.884 C26.803,12.884 27.691,12.990 28.546,13.186 Z" id="path-2" class="cls-4" fill-rule="evenodd"/>
    <path d="M39.131,32.021 C39.131,32.021 12.643,32.021 12.643,32.021 C12.643,32.021 12.643,29.582 12.643,29.582 C12.643,29.582 39.131,29.582 39.131,29.582 C39.131,29.582 39.131,32.021 39.131,32.021 Z" id="path-3" class="cls-5" fill-rule="evenodd"/>
    <path d="M32.183,42.052 C32.183,40.733 34.572,37.749 34.572,37.749 C34.572,37.749 36.961,40.733 36.961,42.052 C36.961,43.371 35.892,44.441 34.572,44.441 C33.252,44.441 32.183,43.371 32.183,42.052 Z" id="path-4" class="cls-6" fill-rule="evenodd"/>
    <path d="M23.679,42.052 C23.679,40.733 26.068,37.749 26.068,37.749 C26.068,37.749 28.457,40.733 28.457,42.052 C28.457,43.371 27.388,44.441 26.068,44.441 C24.749,44.441 23.679,43.371 23.679,42.052 Z" id="path-5" class="cls-6" fill-rule="evenodd"/>
    <path d="M15.175,42.052 C15.175,40.733 17.564,37.749 17.564,37.749 C17.564,37.749 19.954,40.733 19.954,42.052 C19.954,43.371 18.884,44.441 17.564,44.441 C16.245,44.441 15.175,43.371 15.175,42.052 Z" id="path-6" class="cls-6" fill-rule="evenodd"/>
    <path d="M27.754,52.339 C27.754,51.334 29.573,49.062 29.573,49.062 C29.573,49.062 31.392,51.334 31.392,52.339 C31.392,53.344 30.578,54.159 29.573,54.159 C28.568,54.159 27.754,53.344 27.754,52.339 Z" id="path-7" class="cls-6" fill-rule="evenodd"/>
    <path d="M18.407,58.181 C18.407,57.176 20.227,54.904 20.227,54.904 C20.227,54.904 22.046,57.176 22.046,58.181 C22.046,59.186 21.231,60.000 20.227,60.000 C19.222,60.000 18.407,59.186 18.407,58.181 Z" id="path-8" class="cls-6" fill-rule="evenodd"/>
    <path d="M25.887,15.221 C27.732,15.221 29.474,15.647 31.038,16.388 C31.038,16.388 31.038,16.388 31.038,16.388 C31.038,13.903 29.023,11.888 26.538,11.888 C26.538,11.888 25.237,11.888 25.237,11.888 C22.752,11.888 20.737,13.903 20.737,16.388 C20.737,16.388 20.737,16.388 20.737,16.388 C22.301,15.647 24.042,15.221 25.887,15.221 Z" id="path-9" class="cls-5" fill-rule="evenodd"/>
    <path d="M20.737,16.388 C22.301,15.647 24.042,15.221 25.887,15.221 C27.732,15.221 29.474,15.647 31.038,16.388 C31.038,15.564 30.800,14.803 30.413,14.138 C30.413,14.138 21.361,14.138 21.361,14.138 C20.975,14.803 20.737,15.564 20.737,16.388 Z" id="path-10" class="cls-12" fill-rule="evenodd"/>
    <path d="M37.720,29.582 C37.864,28.836 37.945,28.067 37.945,27.279 C37.945,20.619 32.547,15.221 25.887,15.221 C19.228,15.221 13.829,20.619 13.829,27.279 C13.829,28.067 13.910,28.836 14.055,29.582 C14.055,29.582 37.720,29.582 37.720,29.582 Z" id="path-11" class="cls-13" fill-rule="evenodd"/>
    <path d="M13.837,28.604 C13.847,29.337 13.920,28.886 14.055,29.582 C14.055,29.582 37.720,29.582 37.720,29.582 C37.854,28.886 37.928,28.169 37.937,27.436 C37.937,27.436 13.837,28.604 13.837,28.604 Z" id="path-12" class="cls-14" fill-rule="evenodd"/>
  </g>
</svg>
