<svg xmlns="http://www.w3.org/2000/svg" xmlns:xlink="http://www.w3.org/1999/xlink" preserveAspectRatio="xMidYMid" width="35" height="61" viewBox="0 0 35 61">
  <defs>
    <style>

      .cls-3 {
        fill: #ff3a2f;
      }

      .cls-4 {
        fill: #020403;
        opacity: 0.35;
      }

      .cls-5 {
        fill: #142a3b;
      }

      .cls-7 {
        fill: #2476ff;
      }

      .cls-8 {
        fill: #ededed;
      }
    </style>
  </defs>
  <g id="group-102svg">
    <path d="M24.772,13.604 C24.772,13.604 22.538,4.309 22.538,4.309 C22.538,4.309 22.383,2.565 22.383,2.565 C21.420,0.512 19.344,-0.008 17.101,-0.008 C14.858,-0.008 12.846,0.532 11.817,2.565 C11.817,2.565 11.518,4.233 11.518,4.233 C11.518,4.233 9.284,13.678 9.284,13.678 C9.284,13.678 24.772,13.604 24.772,13.604 Z" id="path-1" class="cls-3" fill-rule="evenodd"/>
    <path d="M22.538,4.309 C22.538,4.309 22.384,2.565 22.384,2.565 C21.741,1.195 20.598,0.516 19.245,0.211 C19.245,0.211 19.323,1.095 19.323,1.095 C19.323,1.095 20.385,5.511 20.385,5.511 C20.984,8.002 19.102,10.402 16.540,10.414 C16.540,10.414 9.751,11.704 9.751,11.704 C9.751,11.704 9.284,13.678 9.284,13.678 C9.284,13.678 24.772,13.604 24.772,13.604 C24.772,13.604 22.538,4.309 22.538,4.309 Z" id="path-2" class="cls-4" fill-rule="evenodd"/>
    <path d="M17.190,26.542 C24.034,26.542 29.559,29.489 32.687,36.345 C32.687,36.345 28.459,18.626 28.459,18.626 C28.459,18.626 28.410,17.716 28.410,17.716 C26.339,12.970 21.882,11.770 17.065,11.770 C12.249,11.770 7.928,13.021 5.722,17.716 C5.722,17.716 5.722,18.626 5.722,18.626 C5.722,18.626 0.915,38.251 0.915,38.251 C3.202,31.448 9.617,26.542 17.190,26.542 Z" id="path-3" class="cls-5" fill-rule="evenodd"/>
    <path d="M28.459,18.626 C28.459,18.626 28.409,17.716 28.409,17.716 C27.547,15.740 26.267,14.385 24.723,13.468 C24.723,13.468 27.037,23.166 27.037,23.166 C27.316,24.335 26.061,25.295 25.024,24.687 C19.297,21.325 7.967,24.308 3.330,28.393 C3.330,28.393 0.915,38.251 0.915,38.251 C3.202,31.448 9.617,26.542 17.190,26.542 C24.034,26.542 29.559,29.489 32.687,36.345 C32.687,36.345 28.459,18.626 28.459,18.626 Z" id="path-4" class="cls-4" fill-rule="evenodd"/>
    <path d="M34.370,42.812 C34.370,52.300 26.678,59.992 17.190,59.992 C7.702,59.992 0.010,52.300 0.010,42.812 C0.010,33.324 7.702,25.633 17.190,25.633 C26.678,25.633 34.370,33.324 34.370,42.812 Z" id="path-5" class="cls-7" fill-rule="evenodd"/>
    <path d="M28.227,42.812 C28.227,48.908 23.286,53.850 17.190,53.850 C11.094,53.850 6.153,48.908 6.153,42.812 C6.153,36.717 11.094,31.775 17.190,31.775 C23.286,31.775 28.227,36.717 28.227,42.812 Z" id="path-6" class="cls-8" fill-rule="evenodd"/>
    <path d="M7.062,44.631 C7.062,38.535 12.003,33.594 18.099,33.594 C22.061,33.594 25.525,35.688 27.472,38.823 C25.872,34.701 21.877,31.775 17.190,31.775 C11.094,31.775 6.153,36.717 6.153,42.812 C6.153,44.946 6.769,46.931 7.817,48.620 C7.336,47.381 7.062,46.039 7.062,44.631 Z" id="path-7" class="cls-4" fill-rule="evenodd"/>
  </g>
</svg>
