<svg xmlns="http://www.w3.org/2000/svg" xmlns:xlink="http://www.w3.org/1999/xlink" preserveAspectRatio="xMidYMid" width="61" height="51" viewBox="0 0 61 51">
  <defs>
    <style>

      .cls-3 {
        fill: #ff3a2f;
      }

      .cls-4 {
        fill: #020403;
        opacity: 0.35;
      }

      .cls-5 {
        fill: #142a3b;
      }

      .cls-9 {
        fill: #ffffff;
      }
    </style>
  </defs>
  <g id="group-49svg">
    <path d="M53.967,10.770 C53.967,10.770 53.967,42.557 53.967,42.557 C53.967,47.341 50.162,50.518 45.406,50.518 C45.406,50.518 16.665,50.518 16.665,50.518 C11.909,50.518 7.330,47.341 7.330,42.557 C7.330,42.557 7.330,10.770 7.330,10.770 C7.330,10.770 53.967,10.770 53.967,10.770 Z" id="path-1" class="cls-3" fill-rule="evenodd"/>
    <path d="M7.330,13.376 C7.330,13.376 7.330,15.983 7.330,15.983 C7.330,15.983 48.785,19.892 48.785,19.892 C48.785,19.892 48.785,47.769 48.785,47.769 C48.785,48.574 48.669,49.329 48.467,50.036 C51.692,48.981 53.967,46.252 53.967,42.557 C53.967,42.557 53.967,13.376 53.967,13.376 C53.967,13.376 7.330,13.376 7.330,13.376 Z" id="path-2" class="cls-4" fill-rule="evenodd"/>
    <path d="M58.501,14.224 C58.501,14.224 1.501,14.224 1.501,14.224 C0.672,14.224 0.001,13.553 0.001,12.725 C0.001,11.896 0.672,11.224 1.501,11.224 C1.501,11.224 58.501,11.224 58.501,11.224 C59.330,11.224 60.001,11.896 60.001,12.725 C60.001,13.553 59.330,14.224 58.501,14.224 Z" id="path-3" class="cls-5" fill-rule="evenodd"/>
    <path d="M53.967,10.770 C53.967,10.770 52.821,2.299 48.529,2.299 C48.529,2.299 14.847,2.299 14.847,2.299 C10.554,2.299 7.330,5.353 7.330,9.671 C7.330,9.671 7.330,10.770 7.330,10.770 C7.330,10.770 53.967,10.770 53.967,10.770 Z" id="path-4" class="cls-3" fill-rule="evenodd"/>
    <path d="M42.052,3.602 C45.281,3.602 46.728,8.395 47.248,10.770 C47.248,10.770 53.967,10.770 53.967,10.770 C53.967,10.770 52.821,2.299 48.529,2.299 C48.529,2.299 14.847,2.299 14.847,2.299 C13.166,2.299 11.653,2.772 10.429,3.602 C10.429,3.602 42.052,3.602 42.052,3.602 Z" id="path-5" class="cls-4" fill-rule="evenodd"/>
    <path d="M39.069,1.996 C39.069,1.996 22.228,1.996 22.228,1.996 C21.676,1.996 21.228,1.548 21.228,0.995 C21.228,0.443 21.676,-0.005 22.228,-0.005 C22.228,-0.005 39.069,-0.005 39.069,-0.005 C39.622,-0.005 40.069,0.443 40.069,0.995 C40.069,1.548 39.622,1.996 39.069,1.996 Z" id="path-6" class="cls-5" fill-rule="evenodd"/>
    <path d="M20.551,47.609 C15.471,47.609 10.217,44.256 10.217,38.647 C10.217,38.647 10.217,30.318 10.217,30.318 C10.217,29.766 10.665,29.318 11.217,29.318 C11.769,29.318 12.217,29.766 12.217,30.318 C12.217,30.318 12.217,38.647 12.217,38.647 C12.217,42.946 16.543,45.609 20.551,45.609 C21.104,45.609 21.551,46.056 21.551,46.609 C21.551,47.161 21.104,47.609 20.551,47.609 Z" id="path-7" class="cls-9" fill-rule="evenodd"/>
  </g>
</svg>
