<svg xmlns="http://www.w3.org/2000/svg" xmlns:xlink="http://www.w3.org/1999/xlink" preserveAspectRatio="xMidYMid" width="56" height="60" viewBox="0 0 56 60">
  <defs>
    <style>

      .cls-3 {
        fill: #142a3b;
      }

      .cls-5 {
        fill: #000000;
        opacity: 0.35;
      }

      .cls-7 {
        fill: #ff3a2f;
      }

      .cls-12 {
        fill: #2476ff;
      }
    </style>
  </defs>
  <g id="group-220svg">
    <path d="M2.614,59.992 C2.265,59.992 1.910,59.924 1.570,59.773 C0.250,59.197 -0.353,57.656 0.225,56.339 C0.225,56.339 18.485,14.599 18.485,14.599 C19.064,13.280 20.601,12.677 21.922,13.255 C23.242,13.830 23.845,15.369 23.265,16.689 C23.265,16.689 5.004,58.428 5.004,58.428 C4.576,59.409 3.620,59.992 2.614,59.992 Z" id="path-1" class="cls-3" fill-rule="evenodd"/>
    <path d="M52.182,59.992 C51.177,59.992 50.218,59.409 49.790,58.428 C49.790,58.428 31.529,16.689 31.529,16.689 C30.952,15.369 31.555,13.830 32.874,13.255 C34.195,12.677 35.732,13.280 36.308,14.599 C36.308,14.599 54.569,56.339 54.569,56.339 C55.148,57.656 54.546,59.197 53.227,59.773 C52.887,59.924 52.531,59.992 52.182,59.992 Z" id="path-2" class="cls-3" fill-rule="evenodd"/>
    <path d="M39.583,35.099 C39.583,35.099 41.036,38.419 41.036,38.419 C41.036,38.419 44.996,34.458 44.996,34.458 C44.996,34.458 43.544,31.138 43.544,31.138 C43.544,31.138 39.583,35.099 39.583,35.099 Z" id="path-3" class="cls-5" fill-rule="evenodd"/>
    <path d="M13.775,38.379 C13.775,38.379 14.921,35.759 14.921,35.759 C14.921,35.759 11.401,30.794 11.401,30.794 C11.401,30.794 9.597,34.916 9.597,34.916 C9.597,34.916 13.775,38.379 13.775,38.379 Z" id="path-4" class="cls-5" fill-rule="evenodd"/>
    <path d="M27.398,10.427 C25.957,10.427 24.790,9.258 24.790,7.818 C24.790,7.818 24.790,2.601 24.790,2.601 C24.790,1.162 25.957,-0.008 27.398,-0.008 C28.839,-0.008 30.007,1.162 30.007,2.601 C30.007,2.601 30.007,7.818 30.007,7.818 C30.007,9.258 28.839,10.427 27.398,10.427 Z" id="path-5" class="cls-7" fill-rule="evenodd"/>
    <path d="M30.007,3.800 C30.007,3.800 30.007,7.818 30.007,7.818 C30.007,9.258 28.839,10.427 27.398,10.427 C25.957,10.427 24.790,9.258 24.790,7.818 C24.790,7.818 24.790,5.001 24.790,5.001 C24.790,5.001 30.007,3.800 30.007,3.800 Z" id="path-6" class="cls-5" fill-rule="evenodd"/>
    <path d="M27.398,23.471 C22.364,23.471 18.268,19.374 18.268,14.340 C18.268,9.306 22.364,5.210 27.398,5.210 C32.432,5.210 36.529,9.306 36.529,14.340 C36.529,19.374 32.432,23.471 27.398,23.471 ZM27.398,10.427 C25.241,10.427 23.485,12.183 23.485,14.340 C23.485,16.498 25.241,18.253 27.398,18.253 C29.556,18.253 31.311,16.498 31.311,14.340 C31.311,12.183 29.556,10.427 27.398,10.427 Z" id="path-7" class="cls-7" fill-rule="evenodd"/>
    <path d="M24.104,16.434 C23.717,15.827 23.485,15.111 23.485,14.340 C23.485,12.183 25.241,10.427 27.398,10.427 C28.170,10.427 28.886,10.659 29.492,11.046 C28.797,9.956 27.584,9.227 26.198,9.227 C24.041,9.227 22.285,10.982 22.285,13.140 C22.285,14.526 23.014,15.739 24.104,16.434 Z" id="path-8" class="cls-5" fill-rule="evenodd"/>
    <path d="M33.223,7.315 C34.537,8.897 35.329,10.928 35.329,13.140 C35.329,18.173 31.232,22.270 26.198,22.270 C23.986,22.270 21.956,21.478 20.374,20.164 C22.050,22.182 24.576,23.471 27.398,23.471 C32.432,23.471 36.529,19.374 36.529,14.340 C36.529,11.518 35.241,8.992 33.223,7.315 Z" id="path-9" class="cls-5" fill-rule="evenodd"/>
    <path d="M27.398,39.123 C21.975,39.123 16.822,37.403 12.499,34.144 C11.348,33.278 11.118,31.643 11.984,30.491 C12.852,29.340 14.486,29.110 15.638,29.977 C19.050,32.548 23.116,33.905 27.398,33.905 C38.187,33.905 46.963,25.129 46.963,14.340 C46.963,12.901 48.132,11.731 49.572,11.731 C51.013,11.731 52.181,12.901 52.181,14.340 C52.181,28.005 41.063,39.123 27.398,39.123 Z" id="path-10" class="cls-12" fill-rule="evenodd"/>
  </g>
</svg>
