<svg xmlns="http://www.w3.org/2000/svg" xmlns:xlink="http://www.w3.org/1999/xlink" preserveAspectRatio="xMidYMid" width="60" height="59" viewBox="0 0 60 59">
  <defs>
    <style>

      .cls-3 {
        fill: #fbb713;
      }

      .cls-4 {
        fill: #010101;
        opacity: 0.25;
      }

      .cls-5 {
        fill: #ff3a2f;
      }

      .cls-7 {
        fill: #33485d;
      }

      .cls-12 {
        fill: #020200;
        opacity: 0.35;
      }

      .cls-20 {
        fill: #ffffff;
      }
    </style>
  </defs>
  <g id="group-57svg">
    <path d="M30.002,24.639 C16.430,24.639 5.428,35.642 5.428,49.214 C5.428,49.214 54.578,49.214 54.578,49.214 C54.578,35.642 43.575,24.639 30.002,24.639 Z" id="path-1" class="cls-3" fill-rule="evenodd"/>
    <path d="M31.323,24.675 C36.420,27.660 40.348,32.428 42.246,38.123 C43.522,41.956 40.529,45.890 36.489,45.890 C36.489,45.890 5.658,45.890 5.658,45.890 C5.510,46.978 5.428,48.086 5.428,49.214 C5.428,49.214 54.577,49.214 54.577,49.214 C54.577,36.084 44.281,25.361 31.323,24.675 Z" id="path-2" class="cls-4" fill-rule="evenodd"/>
    <path d="M60.002,58.654 C60.002,58.654 0.002,58.654 0.002,58.654 C0.002,58.654 0.002,49.214 0.002,49.214 C0.002,49.214 60.002,49.214 60.002,49.214 C60.002,49.214 60.002,58.654 60.002,58.654 Z" id="path-3" class="cls-5" fill-rule="evenodd"/>
    <path d="M54.463,49.214 C54.463,49.214 54.463,51.631 54.463,51.631 C54.463,54.286 52.311,56.439 49.656,56.439 C49.656,56.439 0.002,56.439 0.002,56.439 C0.002,56.439 0.002,58.654 0.002,58.654 C0.002,58.654 60.002,58.654 60.002,58.654 C60.002,58.654 60.002,49.214 60.002,49.214 C60.002,49.214 54.463,49.214 54.463,49.214 Z" id="path-4" class="cls-4" fill-rule="evenodd"/>
    <path d="M54.548,9.625 C54.548,9.625 42.990,33.437 42.990,33.437 C42.990,33.437 50.828,8.155 50.828,8.155 C50.828,8.155 54.548,9.625 54.548,9.625 Z" id="path-5" class="cls-7" fill-rule="evenodd"/>
    <path d="M36.380,5.181 C36.380,5.181 32.620,31.381 32.620,31.381 C32.620,31.381 32.389,4.914 32.389,4.914 C32.389,4.914 36.380,5.181 36.380,5.181 Z" id="path-6" class="cls-7" fill-rule="evenodd"/>
    <path d="M8.945,8.785 C8.945,8.785 16.782,34.067 16.782,34.067 C16.782,34.067 5.225,10.255 5.225,10.255 C5.225,10.255 8.945,8.785 8.945,8.785 Z" id="path-7" class="cls-7" fill-rule="evenodd"/>
    <path d="M59.688,6.371 C59.688,9.542 57.118,12.112 53.947,12.112 C50.777,12.112 48.206,9.542 48.206,6.371 C48.206,3.200 50.777,0.630 53.947,0.630 C57.118,0.630 59.688,3.200 59.688,6.371 Z" id="path-8" class="cls-5" fill-rule="evenodd"/>
    <path d="M40.161,5.741 C40.161,8.912 37.591,11.482 34.420,11.482 C31.250,11.482 28.679,8.912 28.679,5.741 C28.679,2.570 31.250,-0.000 34.420,-0.000 C37.591,-0.000 40.161,2.570 40.161,5.741 Z" id="path-9" class="cls-5" fill-rule="evenodd"/>
    <path d="M53.947,0.630 C53.568,0.630 53.199,0.671 52.840,0.741 C55.479,1.258 57.473,3.580 57.473,6.371 C57.473,9.162 55.479,11.484 52.840,12.000 C53.199,12.071 53.568,12.112 53.947,12.112 C57.118,12.112 59.688,9.542 59.688,6.371 C59.688,3.200 57.118,0.630 53.947,0.630 Z" id="path-10" class="cls-12" fill-rule="evenodd"/>
    <path d="M34.420,-0.000 C34.040,-0.000 33.671,0.041 33.312,0.111 C35.952,0.628 37.945,2.950 37.945,5.741 C37.945,8.533 35.952,10.854 33.312,11.370 C33.671,11.441 34.040,11.482 34.420,11.482 C37.591,11.482 40.161,8.912 40.161,5.741 C40.161,2.570 37.591,-0.000 34.420,-0.000 Z" id="path-11" class="cls-12" fill-rule="evenodd"/>
    <path d="M11.663,7.631 C11.663,10.802 9.092,13.372 5.922,13.372 C2.751,13.372 0.181,10.802 0.181,7.631 C0.181,4.460 2.751,1.890 5.922,1.890 C9.092,1.890 11.663,4.460 11.663,7.631 Z" id="path-12" class="cls-5" fill-rule="evenodd"/>
    <path d="M5.921,1.890 C5.542,1.890 5.173,1.931 4.813,2.002 C7.454,2.519 9.447,4.840 9.447,7.631 C9.447,10.422 7.454,12.743 4.813,13.260 C5.173,13.330 5.542,13.372 5.921,13.372 C9.092,13.372 11.663,10.802 11.663,7.631 C11.663,4.460 9.092,1.890 5.921,1.890 Z" id="path-13" class="cls-12" fill-rule="evenodd"/>
    <path d="M30.556,29.788 C30.556,30.766 29.763,31.559 28.785,31.559 C27.807,31.559 27.014,30.766 27.014,29.788 C27.014,28.810 27.807,28.017 28.785,28.017 C29.763,28.017 30.556,28.810 30.556,29.788 Z" id="path-14" class="cls-12" fill-rule="evenodd"/>
    <path d="M29.448,43.082 C29.448,44.060 28.655,44.853 27.677,44.853 C26.699,44.853 25.906,44.060 25.906,43.082 C25.906,42.103 26.699,41.311 27.677,41.311 C28.655,41.311 29.448,42.103 29.448,43.082 Z" id="path-15" class="cls-12" fill-rule="evenodd"/>
    <path d="M18.377,35.040 C17.686,35.732 16.564,35.732 15.873,35.040 C15.182,34.349 15.182,33.227 15.873,32.536 C16.564,31.844 17.686,31.844 18.377,32.536 C19.069,33.227 19.069,34.349 18.377,35.040 Z" id="path-16" class="cls-12" fill-rule="evenodd"/>
    <path d="M14.002,44.765 C13.310,45.456 12.189,45.456 11.498,44.765 C10.806,44.073 10.806,42.952 11.498,42.260 C12.189,41.569 13.310,41.569 14.002,42.260 C14.693,42.952 14.693,44.073 14.002,44.765 Z" id="path-17" class="cls-12" fill-rule="evenodd"/>
    <path d="M4.295,8.883 C3.603,9.574 2.482,9.574 1.791,8.883 C1.099,8.191 1.099,7.070 1.791,6.379 C2.482,5.687 3.603,5.687 4.295,6.379 C4.987,7.070 4.987,8.191 4.295,8.883 Z" id="path-18" class="cls-20" fill-rule="evenodd"/>
    <path d="M33.873,4.913 C33.181,5.605 32.059,5.605 31.368,4.913 C30.676,4.221 30.676,3.100 31.368,2.408 C32.059,1.717 33.181,1.717 33.873,2.408 C34.564,3.100 34.564,4.221 33.873,4.913 Z" id="path-19" class="cls-20" fill-rule="evenodd"/>
    <path d="M53.429,4.913 C52.737,5.605 51.616,5.605 50.924,4.913 C50.233,4.221 50.233,3.100 50.924,2.408 C51.616,1.717 52.737,1.717 53.429,2.408 C54.121,3.100 54.121,4.221 53.429,4.913 Z" id="path-20" class="cls-20" fill-rule="evenodd"/>
    <path d="M44.958,43.082 C44.958,44.060 44.165,44.853 43.187,44.853 C42.209,44.853 41.416,44.060 41.416,43.082 C41.416,42.103 42.209,41.311 43.187,41.311 C44.165,41.311 44.958,42.103 44.958,43.082 Z" id="path-21" class="cls-12" fill-rule="evenodd"/>
    <path d="M39.418,35.327 C39.418,36.305 38.626,37.098 37.647,37.098 C36.670,37.098 35.877,36.305 35.877,35.327 C35.877,34.349 36.670,33.556 37.647,33.556 C38.626,33.556 39.418,34.349 39.418,35.327 Z" id="path-22" class="cls-12" fill-rule="evenodd"/>
  </g>
</svg>
