<svg xmlns="http://www.w3.org/2000/svg" xmlns:xlink="http://www.w3.org/1999/xlink" preserveAspectRatio="xMidYMid" width="59" height="61" viewBox="0 0 59 61">
  <defs>
    <style>

      .cls-3 {
        fill: #142a3b;
      }

      .cls-4 {
        fill: #fbb713;
      }

      .cls-5 {
        fill: #020403;
        opacity: 0.25;
      }

      .cls-6 {
        fill: #020403;
        opacity: 0.35;
      }

      .cls-7 {
        fill: #ff3a2f;
      }
    </style>
  </defs>
  <g id="group-83svg">
    <path d="M40.111,24.945 C40.573,25.409 41.255,25.477 41.634,25.098 C41.634,25.098 47.569,18.828 47.569,18.828 C47.569,18.828 58.708,7.057 58.708,7.057 C59.086,6.677 59.017,5.996 58.555,5.533 C58.555,5.533 53.424,0.403 53.424,0.403 C52.962,-0.059 52.280,-0.128 51.901,0.250 C51.901,0.250 34.828,18.292 34.828,18.292 C34.449,18.671 34.518,19.353 34.980,19.816 C34.980,19.816 40.111,24.945 40.111,24.945 Z" id="path-1" class="cls-3" fill-rule="evenodd"/>
    <path d="M33.479,29.987 C33.479,29.987 35.122,31.700 35.122,31.700 C38.538,36.260 39.350,41.167 32.801,47.715 C24.505,56.011 7.610,63.725 1.948,58.064 C-3.714,52.402 4.001,35.507 12.297,27.211 C18.796,20.711 23.677,21.463 28.209,24.813 C28.209,24.813 29.961,26.224 29.961,26.224 C29.961,26.224 33.479,29.987 33.479,29.987 Z" id="path-2" class="cls-4" fill-rule="evenodd"/>
    <path d="M35.122,31.700 C35.122,31.700 33.479,29.987 33.479,29.987 C33.479,29.987 29.961,26.224 29.961,26.224 C29.961,26.224 28.209,24.813 28.209,24.813 C27.514,24.299 26.809,23.856 26.092,23.481 C26.092,23.481 29.116,26.714 29.116,26.714 C29.116,26.714 30.759,28.427 30.759,28.427 C34.174,32.987 34.986,37.894 28.437,44.442 C21.390,51.489 8.142,58.112 0.841,56.477 C1.130,57.070 1.491,57.607 1.948,58.064 C7.610,63.725 24.505,56.011 32.801,47.715 C39.350,41.167 38.538,36.260 35.122,31.700 Z" id="path-3" class="cls-5" fill-rule="evenodd"/>
    <path d="M34.031,30.609 C34.031,30.609 32.389,28.897 32.389,28.897 C32.389,28.897 31.304,27.737 31.304,27.737 C31.304,27.737 24.978,34.062 24.978,34.062 C24.644,33.980 24.299,33.924 23.939,33.924 C21.511,33.924 19.543,35.893 19.543,38.321 C19.543,40.750 21.511,42.718 23.939,42.718 C26.368,42.718 28.336,40.750 28.336,38.321 C28.336,37.847 28.242,37.399 28.103,36.973 C28.103,36.973 34.212,30.864 34.212,30.864 C34.150,30.779 34.095,30.694 34.031,30.609 Z" id="path-4" class="cls-6" fill-rule="evenodd"/>
    <path d="M39.618,23.275 C39.618,23.275 36.601,20.258 36.601,20.258 C36.601,20.258 24.978,31.880 24.978,31.880 C24.644,31.798 24.299,31.743 23.939,31.743 C21.511,31.743 19.543,33.711 19.543,36.139 C19.543,38.568 21.511,40.536 23.939,40.536 C26.368,40.536 28.336,38.568 28.336,36.139 C28.336,35.666 28.242,35.218 28.103,34.791 C28.103,34.791 39.618,23.275 39.618,23.275 Z" id="path-5" class="cls-7" fill-rule="evenodd"/>
    <path d="M58.555,5.533 C58.555,5.533 56.161,3.140 56.161,3.140 C56.161,3.140 46.478,13.373 46.478,13.373 C46.478,13.373 40.543,19.644 40.543,19.644 C40.165,20.022 39.482,19.954 39.020,19.491 C39.020,19.491 36.283,16.754 36.283,16.754 C36.283,16.754 34.828,18.292 34.828,18.292 C34.449,18.671 34.518,19.353 34.980,19.816 C34.980,19.816 40.111,24.945 40.111,24.945 C40.573,25.409 41.255,25.477 41.634,25.098 C41.634,25.098 47.569,18.828 47.569,18.828 C47.569,18.828 58.708,7.056 58.708,7.056 C59.086,6.678 59.017,5.996 58.555,5.533 Z" id="path-6" class="cls-6" fill-rule="evenodd"/>
    <path d="M39.618,23.275 C39.618,23.275 36.601,20.258 36.601,20.258 C36.601,20.258 36.056,20.803 36.056,20.803 C36.056,20.803 37.436,22.184 37.436,22.184 C37.436,22.184 25.921,33.700 25.921,33.700 C26.060,34.127 26.154,34.575 26.154,35.049 C26.154,37.477 24.186,39.445 21.757,39.445 C21.489,39.445 21.229,39.412 20.973,39.366 C21.756,40.086 22.791,40.536 23.939,40.536 C26.368,40.536 28.336,38.568 28.336,36.139 C28.336,35.666 28.242,35.218 28.103,34.791 C28.103,34.791 39.618,23.275 39.618,23.275 Z" id="path-7" class="cls-6" fill-rule="evenodd"/>
  </g>
</svg>
