<svg xmlns="http://www.w3.org/2000/svg" xmlns:xlink="http://www.w3.org/1999/xlink" preserveAspectRatio="xMidYMid" width="61" height="60" viewBox="0 0 61 60">
  <defs>
    <style>

      .cls-3 {
        fill: #fbb713;
      }

      .cls-4 {
        fill: #020403;
        opacity: 0.35;
      }

      .cls-5 {
        fill: #ededed;
      }

      .cls-6 {
        fill: #020403;
        opacity: 0.2;
      }

      .cls-7 {
        fill: #4f4f6f;
      }

      .cls-8 {
        fill: #142a3b;
      }
    </style>
  </defs>
  <g id="group-124svg">
    <path d="M25.458,47.337 C35.845,53.639 44.546,49.085 53.247,38.726 C61.979,28.331 62.755,15.027 54.002,6.275 C46.871,-0.856 36.733,-1.801 27.589,2.928 C27.589,2.928 14.863,13.799 14.863,13.799 C9.644,20.372 8.284,27.120 12.944,34.820 C12.944,34.820 25.458,47.337 25.458,47.337 Z" id="path-1" class="cls-3" fill-rule="evenodd"/>
    <path d="M29.989,17.197 C26.765,20.421 21.537,20.421 18.313,17.197 C15.089,13.973 15.089,8.746 18.313,5.522 C21.537,2.297 26.765,2.297 29.989,5.522 C33.213,8.746 33.213,13.973 29.989,17.197 Z" id="path-2" class="cls-4" fill-rule="evenodd"/>
    <path d="M26.893,14.101 C23.669,17.325 18.441,17.325 15.218,14.101 C11.994,10.877 11.994,5.650 15.218,2.426 C18.441,-0.798 23.669,-0.798 26.893,2.426 C30.117,5.650 30.117,10.877 26.893,14.101 Z" id="path-3" class="cls-5" fill-rule="evenodd"/>
    <path d="M26.893,2.426 C26.035,1.568 25.033,0.946 23.968,0.545 C27.012,3.780 26.960,8.867 23.797,12.031 C21.431,14.397 17.987,15.019 15.047,13.912 C15.105,13.974 15.157,14.040 15.218,14.101 C18.441,17.325 23.669,17.325 26.893,14.101 C30.117,10.877 30.117,5.650 26.893,2.426 Z" id="path-4" class="cls-6" fill-rule="evenodd"/>
    <path d="M16.853,9.563 C16.333,9.563 15.894,9.161 15.856,8.634 C15.749,7.125 16.301,5.647 17.370,4.578 C18.269,3.679 19.462,3.140 20.730,3.062 C21.282,3.029 21.756,3.447 21.790,3.998 C21.825,4.549 21.406,5.024 20.854,5.058 C20.073,5.106 19.338,5.438 18.784,5.992 C18.125,6.651 17.786,7.562 17.852,8.492 C17.891,9.043 17.475,9.521 16.925,9.561 C16.901,9.562 16.877,9.563 16.853,9.563 Z" id="path-5" class="cls-7" fill-rule="evenodd"/>
    <path d="M9.924,23.140 C9.249,26.885 9.992,30.785 12.523,34.968 C14.102,37.576 13.432,40.963 11.016,42.822 C11.016,42.822 1.142,50.417 1.142,50.417 C-0.264,51.499 -0.399,53.570 0.856,54.825 C0.856,54.825 5.178,59.147 5.178,59.147 C6.433,60.401 8.504,60.267 9.586,58.860 C9.586,58.860 17.179,48.990 17.179,48.990 C19.039,46.572 22.429,45.903 25.037,47.485 C29.230,50.028 33.145,50.777 36.899,50.115 C36.899,50.115 9.924,23.140 9.924,23.140 Z" id="path-6" class="cls-8" fill-rule="evenodd"/>
    <path d="M53.247,32.529 C44.546,42.887 35.845,47.440 25.458,41.140 C22.850,39.557 19.460,40.227 17.601,42.645 C17.601,42.645 10.007,52.516 10.007,52.516 C8.925,53.922 6.853,54.056 5.599,52.802 C5.599,52.802 2.413,49.616 2.413,49.616 C2.413,49.616 1.563,50.270 1.563,50.270 C0.157,51.352 0.022,53.423 1.277,54.678 C1.277,54.678 5.599,59.000 5.599,59.000 C6.853,60.254 8.925,60.120 10.007,58.713 C10.007,58.713 17.601,48.843 17.601,48.843 C19.460,46.425 22.850,45.755 25.458,47.337 C35.845,53.639 44.546,49.085 53.247,38.726 C58.588,32.368 60.935,24.925 59.963,18.097 C59.276,23.050 57.002,28.058 53.247,32.529 Z" id="path-7" class="cls-4" fill-rule="evenodd"/>
    <path d="M12.515,29.281 C11.235,27.167 10.425,25.127 10.008,23.140 C9.169,27.034 10.165,31.091 12.800,35.455 C13.914,33.601 13.691,31.226 12.515,29.281 Z" id="path-8" class="cls-4" fill-rule="evenodd"/>
  </g>
</svg>
