<svg xmlns="http://www.w3.org/2000/svg" xmlns:xlink="http://www.w3.org/1999/xlink" preserveAspectRatio="xMidYMid" width="61" height="54" viewBox="0 0 61 54">
  <defs>
    <style>

      .cls-3 {
        fill: #ededed;
      }

      .cls-4 {
        fill: #000000;
        opacity: 0.35;
      }

      .cls-6 {
        fill: #2476ff;
      }
    </style>
  </defs>
  <g id="group-307svg">
    <path d="M49.734,50.992 C49.734,50.992 26.166,50.992 26.166,50.992 C23.814,50.992 20.445,48.004 20.445,45.917 C20.445,45.917 20.445,25.109 20.445,25.109 C20.445,24.648 20.695,24.221 21.099,23.994 C25.800,21.366 28.179,16.700 30.661,9.544 C30.661,9.544 30.661,2.688 30.661,2.688 C30.661,2.456 30.723,2.230 30.843,2.030 C31.619,0.738 32.931,-0.003 34.441,-0.003 C36.302,-0.003 38.187,1.080 39.617,2.968 C42.185,6.364 42.821,11.704 41.425,17.792 C41.425,17.792 52.183,17.792 52.183,17.792 C54.576,17.792 60.015,20.256 60.015,24.311 C60.015,25.651 59.857,27.688 59.007,28.878 C59.678,30.751 59.806,33.783 57.750,35.921 C57.920,39.527 57.010,42.148 55.097,43.582 C55.064,45.490 54.184,47.824 52.865,49.336 C51.919,50.418 50.837,50.992 49.734,50.992 Z" id="path-1" class="cls-3" fill-rule="evenodd"/>
    <path d="M59.007,28.878 C59.857,27.688 60.015,25.651 60.015,24.311 C60.015,22.184 58.516,20.501 56.747,19.375 C56.779,19.588 56.802,19.805 56.802,20.027 C56.802,21.367 56.644,23.404 55.794,24.594 C56.465,26.467 56.593,29.499 54.537,31.636 C54.707,35.243 53.797,37.864 51.884,39.298 C51.852,41.206 50.971,43.541 49.652,45.052 C48.706,46.135 47.624,46.708 46.521,46.708 C46.521,46.708 22.954,46.708 22.954,46.708 C22.176,46.708 21.287,46.377 20.445,45.864 C20.445,45.864 20.445,45.917 20.445,45.917 C20.445,48.004 23.814,50.992 26.166,50.992 C26.166,50.992 49.734,50.992 49.734,50.992 C50.837,50.992 51.919,50.418 52.865,49.336 C54.184,47.824 55.064,45.490 55.097,43.582 C57.010,42.148 57.920,39.527 57.750,35.921 C59.806,33.783 59.678,30.751 59.007,28.878 Z" id="path-2" class="cls-4" fill-rule="evenodd"/>
    <path d="M37.472,17.792 C37.472,17.792 41.340,17.792 41.340,17.792 C42.046,14.363 43.481,9.811 39.617,2.968 C39.165,2.169 38.439,1.629 37.776,1.155 C39.134,4.434 38.568,13.016 37.472,17.792 Z" id="path-3" class="cls-4" fill-rule="evenodd"/>
    <path d="M18.520,53.546 C18.520,53.546 4.494,53.546 4.494,53.546 C2.025,53.546 0.015,51.538 0.015,49.069 C0.015,49.069 0.015,22.269 0.015,22.269 C0.015,19.799 2.025,17.792 4.494,17.792 C4.494,17.792 18.520,17.792 18.520,17.792 C20.989,17.792 22.999,19.799 22.999,22.269 C22.999,22.269 22.999,49.069 22.999,49.069 C22.999,51.538 20.989,53.546 18.520,53.546 Z" id="path-4" class="cls-6" fill-rule="evenodd"/>
    <path d="M19.145,17.855 C19.543,18.524 19.786,19.294 19.786,20.127 C19.786,20.127 19.786,46.927 19.786,46.927 C19.786,49.396 17.776,51.404 15.307,51.404 C15.307,51.404 1.281,51.404 1.281,51.404 C1.067,51.404 0.862,51.370 0.656,51.341 C1.437,52.655 2.857,53.546 4.494,53.546 C4.494,53.546 18.520,53.546 18.520,53.546 C20.989,53.546 22.999,51.538 22.999,49.069 C22.999,49.069 22.999,22.269 22.999,22.269 C22.999,20.013 21.317,18.162 19.145,17.855 Z" id="path-5" class="cls-4" fill-rule="evenodd"/>
  </g>
</svg>
