<svg xmlns="http://www.w3.org/2000/svg" xmlns:xlink="http://www.w3.org/1999/xlink" preserveAspectRatio="xMidYMid" width="61" height="31" viewBox="0 0 61 31">
  <defs>
    <style>

      .cls-3 {
        fill: #ff3a2f;
      }

      .cls-4 {
        fill: #142a3b;
      }

      .cls-6 {
        fill: #fbb713;
      }

      .cls-7 {
        fill: #020403;
        opacity: 0.35;
      }

      .cls-8 {
        fill: #020403;
        opacity: 0.25;
      }
    </style>
  </defs>
  <g id="group-25svg">
    <path d="M54.038,24.196 C54.038,24.196 5.969,24.196 5.969,24.196 C2.675,24.196 0.003,26.867 0.003,30.163 C0.003,30.163 60.003,30.163 60.003,30.163 C60.003,26.867 57.332,24.196 54.038,24.196 Z" id="path-1" class="cls-3" fill-rule="evenodd"/>
    <path d="M31.003,24.942 C31.003,24.942 29.003,24.942 29.003,24.942 C29.003,24.942 29.003,3.350 29.003,3.350 C29.003,3.350 31.003,3.350 31.003,3.350 C31.003,3.350 31.003,24.942 31.003,24.942 Z" id="path-2" class="cls-4" fill-rule="evenodd"/>
    <path d="M38.998,4.469 C38.998,4.469 21.009,4.469 21.009,4.469 C20.095,4.469 19.354,3.727 19.354,2.813 C19.354,2.813 19.354,1.650 19.354,1.650 C19.354,0.735 20.095,-0.006 21.009,-0.006 C21.009,-0.006 38.998,-0.006 38.998,-0.006 C39.912,-0.006 40.653,0.735 40.653,1.650 C40.653,1.650 40.653,2.813 40.653,2.813 C40.653,3.727 39.912,4.469 38.998,4.469 Z" id="path-3" class="cls-4" fill-rule="evenodd"/>
    <path d="M54.214,21.283 C54.214,21.283 54.214,15.541 54.214,15.541 C54.214,10.803 50.338,6.926 45.600,6.926 C45.600,6.926 14.407,6.926 14.407,6.926 C9.669,6.926 5.793,10.803 5.793,15.541 C5.793,15.541 5.793,21.283 5.793,21.283 C5.793,21.283 54.214,21.283 54.214,21.283 Z" id="path-4" class="cls-6" fill-rule="evenodd"/>
    <path d="M1.169,27.796 C1.169,27.796 49.238,27.796 49.238,27.796 C51.174,27.796 52.876,28.733 53.966,30.163 C53.966,30.163 60.003,30.163 60.003,30.163 C60.003,26.867 57.332,24.196 54.038,24.196 C54.038,24.196 5.970,24.196 5.970,24.196 C3.488,24.196 1.363,25.712 0.464,27.867 C0.698,27.840 0.928,27.796 1.169,27.796 Z" id="path-5" class="cls-7" fill-rule="evenodd"/>
    <path d="M45.600,6.926 C45.600,6.926 45.540,6.926 45.540,6.926 C47.183,8.498 48.214,10.703 48.214,13.141 C48.214,13.141 48.214,13.141 48.214,13.141 C48.214,16.313 45.643,18.884 42.471,18.884 C42.471,18.884 5.793,18.884 5.793,18.884 C5.793,18.884 5.793,21.283 5.793,21.283 C5.793,21.283 54.214,21.283 54.214,21.283 C54.214,21.283 54.214,15.541 54.214,15.541 C54.214,10.803 50.338,6.926 45.600,6.926 Z" id="path-6" class="cls-8" fill-rule="evenodd"/>
  </g>
</svg>
