<svg xmlns="http://www.w3.org/2000/svg" xmlns:xlink="http://www.w3.org/1999/xlink" preserveAspectRatio="xMidYMid" width="60" height="58" viewBox="0 0 60 58">
  <defs>
    <style>

      .cls-3 {
        fill: #fbb713;
      }

      .cls-4 {
        fill: #000000;
        opacity: 0.35;
      }

      .cls-6 {
        fill: #ff3a2f;
      }

      .cls-8 {
        fill: #142a3b;
      }

      .cls-9 {
        fill: #ededed;
      }
    </style>
  </defs>
  <g id="group-310svg">
    <path d="M59.819,57.752 C59.819,57.752 0.171,57.752 0.171,57.752 C0.171,57.752 0.171,13.361 0.171,13.361 C0.171,13.361 59.819,13.361 59.819,13.361 C59.819,13.361 59.819,57.752 59.819,57.752 Z" id="path-1" class="cls-3" fill-rule="evenodd"/>
    <path d="M59.819,57.752 C59.819,57.752 0.171,57.752 0.171,57.752 C0.171,57.752 0.171,13.361 0.171,13.361 C0.171,13.361 59.819,13.361 59.819,13.361 C59.819,13.361 59.819,57.752 59.819,57.752 Z" id="path-2" class="cls-4" fill-rule="evenodd"/>
    <path d="M49.203,-0.005 C49.203,-0.005 10.787,-0.005 10.787,-0.005 C10.787,-0.005 -0.005,13.253 -0.005,13.253 C-0.005,13.253 59.995,13.253 59.995,13.253 C59.995,13.253 49.203,-0.005 49.203,-0.005 Z" id="path-3" class="cls-3" fill-rule="evenodd"/>
    <path d="M59.819,26.408 C59.819,26.408 0.171,26.408 0.171,26.408 C0.171,26.408 0.171,13.361 0.171,13.361 C0.171,13.361 59.819,13.361 59.819,13.361 C59.819,13.361 59.819,26.408 59.819,26.408 Z" id="path-4" class="cls-6" fill-rule="evenodd"/>
    <path d="M59.819,26.408 C59.819,26.408 0.171,26.408 0.171,26.408 C0.171,26.408 0.171,13.361 0.171,13.361 C0.171,13.361 59.819,13.361 59.819,13.361 C59.819,13.361 59.819,26.408 59.819,26.408 Z" id="path-5" class="cls-4" fill-rule="evenodd"/>
    <path d="M59.819,57.584 C59.819,57.584 0.171,57.584 0.171,57.584 C0.171,57.584 0.171,42.739 0.171,42.739 C0.171,42.739 59.819,42.739 59.819,42.739 C59.819,42.739 59.819,57.584 59.819,57.584 Z" id="path-6" class="cls-8" fill-rule="evenodd"/>
    <path d="M10.999,53.571 C8.957,53.571 7.295,51.909 7.295,49.867 C7.295,47.825 8.957,46.163 10.999,46.163 C13.042,46.163 14.703,47.825 14.703,49.867 C14.703,51.909 13.042,53.571 10.999,53.571 Z" id="path-7" class="cls-9" fill-rule="evenodd"/>
    <path d="M10.999,38.755 C8.957,38.755 7.295,37.093 7.295,35.051 C7.295,33.008 8.957,31.346 10.999,31.346 C13.042,31.346 14.703,33.008 14.703,35.051 C14.703,37.093 13.042,38.755 10.999,38.755 Z" id="path-8" class="cls-9" fill-rule="evenodd"/>
    <circle id="circle-1" class="cls-9" cx="11" cy="20" r="4"/>
    <path d="M52.363,20.499 C52.363,20.499 48.410,20.499 48.410,20.499 C47.581,20.499 46.910,19.828 46.910,18.999 C46.910,18.171 47.581,17.499 48.410,17.499 C48.410,17.499 52.363,17.499 52.363,17.499 C53.191,17.499 53.863,18.171 53.863,18.999 C53.863,19.828 53.191,20.499 52.363,20.499 Z" id="path-9" class="cls-9" fill-rule="evenodd"/>
    <path d="M41.071,20.499 C41.071,20.499 37.118,20.499 37.118,20.499 C36.289,20.499 35.618,19.828 35.618,18.999 C35.618,18.171 36.289,17.499 37.118,17.499 C37.118,17.499 41.071,17.499 41.071,17.499 C41.900,17.499 42.571,18.171 42.571,18.999 C42.571,19.828 41.900,20.499 41.071,20.499 Z" id="path-10" class="cls-9" fill-rule="evenodd"/>
    <path d="M52.363,36.550 C52.363,36.550 48.410,36.550 48.410,36.550 C47.581,36.550 46.910,35.879 46.910,35.051 C46.910,34.222 47.581,33.551 48.410,33.551 C48.410,33.551 52.363,33.551 52.363,33.551 C53.191,33.551 53.863,34.222 53.863,35.051 C53.863,35.879 53.191,36.550 52.363,36.550 Z" id="path-11" class="cls-9" fill-rule="evenodd"/>
    <path d="M41.071,36.550 C41.071,36.550 37.118,36.550 37.118,36.550 C36.289,36.550 35.618,35.879 35.618,35.051 C35.618,34.222 36.289,33.551 37.118,33.551 C37.118,33.551 41.071,33.551 41.071,33.551 C41.900,33.551 42.571,34.222 42.571,35.051 C42.571,35.879 41.900,36.550 41.071,36.550 Z" id="path-12" class="cls-9" fill-rule="evenodd"/>
    <path d="M52.363,50.958 C52.363,50.958 48.410,50.958 48.410,50.958 C47.581,50.958 46.910,50.287 46.910,49.458 C46.910,48.630 47.581,47.958 48.410,47.958 C48.410,47.958 52.363,47.958 52.363,47.958 C53.191,47.958 53.863,48.630 53.863,49.458 C53.863,50.287 53.191,50.958 52.363,50.958 Z" id="path-13" class="cls-9" fill-rule="evenodd"/>
    <path d="M41.071,50.958 C41.071,50.958 37.118,50.958 37.118,50.958 C36.289,50.958 35.618,50.287 35.618,49.458 C35.618,48.630 36.289,47.958 37.118,47.958 C37.118,47.958 41.071,47.958 41.071,47.958 C41.900,47.958 42.571,48.630 42.571,49.458 C42.571,50.287 41.900,50.958 41.071,50.958 Z" id="path-14" class="cls-9" fill-rule="evenodd"/>
  </g>
</svg>
