<svg xmlns="http://www.w3.org/2000/svg" xmlns:xlink="http://www.w3.org/1999/xlink" preserveAspectRatio="xMidYMid" width="60" height="55" viewBox="0 0 60 55">
  <defs>
    <style>

      .cls-3 {
        fill: #fbb713;
      }

      .cls-4 {
        fill: #000000;
        opacity: 0.45;
      }

      .cls-7 {
        fill: #000000;
        opacity: 0.35;
      }

      .cls-8 {
        fill: #2476ff;
      }
    </style>
  </defs>
  <g id="group-303svg">
    <path d="M47.810,14.063 C47.810,14.063 59.896,-0.012 59.896,-0.012 C59.896,-0.012 60.008,32.346 60.008,32.346 C60.008,32.607 59.939,32.865 59.810,33.090 C59.810,33.090 47.810,54.090 47.810,54.090 C47.810,54.090 47.810,14.063 47.810,14.063 C47.810,14.063 47.810,14.063 47.810,14.063 Z" id="path-1" class="cls-3" fill-rule="evenodd"/>
    <path d="M47.810,14.063 C47.810,14.063 59.896,-0.012 59.896,-0.012 C59.896,-0.012 60.008,32.346 60.008,32.346 C60.008,32.607 59.939,32.865 59.810,33.090 C59.810,33.090 47.810,54.090 47.810,54.090 C47.810,54.090 47.810,14.063 47.810,14.063 C47.810,14.063 47.810,14.063 47.810,14.063 Z" id="path-2" class="cls-4" fill-rule="evenodd"/>
    <path d="M0.008,14.063 C0.008,14.063 17.803,-0.012 17.803,-0.012 C17.803,-0.012 59.896,-0.012 59.896,-0.012 C59.896,-0.012 47.876,14.063 47.876,14.063 C47.876,14.063 0.008,14.063 0.008,14.063 Z" id="path-3" class="cls-3" fill-rule="evenodd"/>
    <path d="M47.810,54.090 C47.810,54.090 0.008,54.090 0.008,54.090 C0.008,54.090 0.008,14.063 0.008,14.063 C0.008,14.063 47.810,14.063 47.810,14.063 C47.810,14.063 47.810,54.090 47.810,54.090 Z" id="path-4" class="cls-3" fill-rule="evenodd"/>
    <path d="M47.810,54.090 C47.810,54.090 0.008,54.090 0.008,54.090 C0.008,54.090 0.008,14.063 0.008,14.063 C0.008,14.063 47.810,14.063 47.810,14.063 C47.810,14.063 47.810,54.090 47.810,54.090 Z" id="path-5" class="cls-7" fill-rule="evenodd"/>
    <path d="M20.920,14.063 C20.920,14.063 34.907,0.076 34.907,0.076 C34.907,0.076 41.605,0.076 41.605,0.076 C41.605,0.076 27.765,14.063 27.765,14.063 C27.765,14.063 20.920,14.063 20.920,14.063 Z" id="path-6" class="cls-8" fill-rule="evenodd"/>
    <path d="M27.765,14.063 C27.765,14.063 27.765,54.090 27.765,54.090 C27.765,54.090 20.920,54.090 20.920,54.090 C20.920,54.090 20.920,14.063 20.920,14.063 C20.920,14.063 27.765,14.063 27.765,14.063 Z" id="path-7" class="cls-8" fill-rule="evenodd"/>
    <path d="M27.765,14.063 C27.765,14.063 27.765,54.090 27.765,54.090 C27.765,54.090 20.920,54.090 20.920,54.090 C20.920,54.090 20.920,14.063 20.920,14.063 C20.920,14.063 27.765,14.063 27.765,14.063 Z" id="path-8" class="cls-7" fill-rule="evenodd"/>
  </g>
</svg>
