<svg xmlns="http://www.w3.org/2000/svg" xmlns:xlink="http://www.w3.org/1999/xlink" preserveAspectRatio="xMidYMid" width="47" height="60" viewBox="0 0 47 60">
  <defs>
    <style>

      .cls-3 {
        fill: #142a3b;
      }

      .cls-4 {
        fill: #ff3a2f;
      }

      .cls-5 {
        fill: #000000;
        opacity: 0.35;
      }

      .cls-6 {
        fill: #2476ff;
      }
    </style>
  </defs>
  <g id="group-271svg">
    <path d="M26.375,54.531 C26.375,54.531 24.375,54.531 24.375,54.531 C24.375,54.531 24.375,31.531 24.375,31.531 C24.375,31.531 26.375,31.531 26.375,31.531 C26.375,31.531 26.375,54.531 26.375,54.531 Z" id="path-1" class="cls-3" fill-rule="evenodd"/>
    <path d="M29.960,28.070 C29.960,30.403 28.069,32.293 25.737,32.293 C23.405,32.293 21.514,30.403 21.514,28.070 C21.514,25.738 23.405,23.848 25.737,23.848 C28.069,23.848 29.960,25.738 29.960,28.070 Z" id="path-2" class="cls-4" fill-rule="evenodd"/>
    <path d="M28.213,24.664 C28.721,25.360 29.029,26.212 29.029,27.139 C29.029,29.471 27.139,31.362 24.806,31.362 C23.878,31.362 23.027,31.054 22.330,30.546 C23.098,31.600 24.333,32.293 25.737,32.293 C28.069,32.293 29.960,30.403 29.960,28.070 C29.960,26.666 29.268,25.431 28.213,24.664 Z" id="path-3" class="cls-5" fill-rule="evenodd"/>
    <path d="M21.679,29.464 C21.679,29.464 0.014,39.175 0.014,39.175 C0.014,39.175 26.127,45.297 21.679,29.464 Z" id="path-4" class="cls-6" fill-rule="evenodd"/>
    <path d="M21.679,29.464 C21.679,29.464 19.993,30.219 19.993,30.219 C21.797,38.131 15.505,40.164 9.206,40.325 C16.235,40.515 24.312,38.837 21.679,29.464 Z" id="path-5" class="cls-5" fill-rule="evenodd"/>
    <path d="M30.145,30.327 C30.145,30.327 46.934,47.116 46.934,47.116 C46.934,47.116 43.358,20.534 30.145,30.327 Z" id="path-6" class="cls-6" fill-rule="evenodd"/>
    <path d="M31.256,29.577 C30.894,29.800 30.523,30.046 30.145,30.327 C30.145,30.327 46.934,47.116 46.934,47.116 C46.934,47.116 46.815,46.238 46.543,44.864 C46.543,44.864 31.256,29.577 31.256,29.577 Z" id="path-7" class="cls-5" fill-rule="evenodd"/>
    <path d="M25.375,23.741 C25.375,23.741 25.375,-0.001 25.375,-0.001 C25.375,-0.001 8.375,21.323 25.375,23.741 Z" id="path-8" class="cls-6" fill-rule="evenodd"/>
    <path d="M17.881,15.550 C17.534,19.488 19.188,22.863 25.274,23.741 C25.274,23.741 25.274,21.879 25.274,21.879 C20.175,21.143 18.190,18.653 17.881,15.550 Z" id="path-9" class="cls-5" fill-rule="evenodd"/>
    <path d="M32.375,59.531 C32.375,59.531 18.375,59.531 18.375,59.531 C18.375,59.531 18.375,53.531 18.375,53.531 C18.375,53.531 32.375,53.531 32.375,53.531 C32.375,53.531 32.375,59.531 32.375,59.531 Z" id="path-10" class="cls-4" fill-rule="evenodd"/>
    <path d="M28.651,53.531 C28.651,53.531 28.651,59.531 28.651,59.531 C28.651,59.531 32.375,59.531 32.375,59.531 C32.375,59.531 32.375,53.531 32.375,53.531 C32.375,53.531 28.651,53.531 28.651,53.531 Z" id="path-11" class="cls-5" fill-rule="evenodd"/>
  </g>
</svg>
