<svg xmlns="http://www.w3.org/2000/svg" xmlns:xlink="http://www.w3.org/1999/xlink" preserveAspectRatio="xMidYMid" width="57" height="61" viewBox="0 0 57 61">
  <defs>
    <style>

      .cls-3 {
        fill: #142a3b;
      }

      .cls-4 {
        fill: #ffffff;
      }

      .cls-6 {
        fill: #020403;
        opacity: 0.35;
      }

      .cls-7 {
        fill: #fbb713;
      }

      .cls-8 {
        fill: #bb860e;
      }
    </style>
  </defs>
  <g id="group-101svg">
    <path d="M22.373,45.960 C22.373,45.960 22.373,40.370 22.373,40.370 C22.373,40.370 25.171,40.370 25.171,40.370 C25.171,40.370 25.171,34.778 25.171,34.778 C25.171,34.778 11.183,34.778 11.183,34.778 C11.183,34.778 11.183,40.370 11.183,40.370 C11.183,40.370 13.980,40.370 13.980,40.370 C13.980,40.370 13.980,45.960 13.980,45.960 C5.435,47.078 0.648,51.260 -0.008,59.937 C-0.008,59.937 36.571,59.937 36.571,59.937 C35.914,51.260 30.918,47.078 22.373,45.960 Z" id="path-1" class="cls-3" fill-rule="evenodd"/>
    <path d="M3.996,58.335 C3.925,58.335 3.854,58.328 3.783,58.312 C3.243,58.195 2.900,57.663 3.017,57.123 C4.200,51.675 7.104,49.822 11.407,48.599 C11.939,48.448 12.492,48.756 12.642,49.287 C12.793,49.818 12.485,50.371 11.954,50.523 C8.182,51.595 5.952,53.032 4.972,57.547 C4.870,58.015 4.456,58.335 3.996,58.335 Z" id="path-2" class="cls-4" fill-rule="evenodd"/>
    <path d="M13.210,38.773 C12.934,38.773 12.710,38.550 12.710,38.273 C12.710,38.273 12.710,36.876 12.710,36.876 C12.710,36.600 12.934,36.376 13.210,36.376 C13.487,36.376 13.710,36.600 13.710,36.876 C13.710,36.876 13.710,38.273 13.710,38.273 C13.710,38.550 13.487,38.773 13.210,38.773 Z" id="path-3" class="cls-4" fill-rule="evenodd"/>
    <path d="M22.373,45.960 C22.373,45.960 22.373,40.370 22.373,40.370 C22.373,40.370 25.171,40.370 25.171,40.370 C25.171,40.370 25.171,34.778 25.171,34.778 C25.171,34.778 19.576,34.778 19.576,34.778 C19.576,34.778 19.576,40.370 19.576,40.370 C19.576,40.370 13.980,40.370 13.980,40.370 C13.980,40.370 13.980,43.165 13.980,43.165 C22.525,44.283 30.319,51.260 30.976,59.937 C30.976,59.937 36.571,59.937 36.571,59.937 C35.914,51.260 30.918,47.078 22.373,45.960 Z" id="path-4" class="cls-6" fill-rule="evenodd"/>
    <path d="M43.356,10.524 C43.356,10.524 43.356,0.187 43.356,0.187 C40.559,1.570 35.949,4.618 31.734,8.829 C23.540,17.016 19.534,26.634 23.357,30.455 C23.357,30.455 43.356,10.524 43.356,10.524 Z" id="path-5" class="cls-7" fill-rule="evenodd"/>
    <path d="M28.522,25.345 C28.522,25.345 43.356,25.345 43.356,25.345 C35.522,32.463 26.921,34.037 23.335,30.455 C23.335,30.455 28.522,25.345 28.522,25.345 Z" id="path-6" class="cls-8" fill-rule="evenodd"/>
    <path d="M18.946,35.890 C18.690,35.890 18.434,35.792 18.239,35.597 C17.849,35.206 17.849,34.573 18.240,34.182 C18.240,34.182 52.202,0.266 52.202,0.266 C52.592,-0.125 53.225,-0.124 53.616,0.267 C54.006,0.657 54.006,1.291 53.615,1.681 C53.615,1.681 19.653,35.597 19.653,35.597 C19.457,35.792 19.202,35.890 18.946,35.890 Z" id="path-7" class="cls-3" fill-rule="evenodd"/>
    <path d="M47.553,20.754 C47.553,20.754 34.118,20.754 34.118,20.754 C33.566,20.754 33.118,20.306 33.118,19.754 C33.118,19.202 33.566,18.754 34.118,18.754 C34.118,18.754 47.553,18.754 47.553,18.754 C48.105,18.754 48.553,19.202 48.553,19.754 C48.553,20.306 48.105,20.754 47.553,20.754 Z" id="path-8" class="cls-3" fill-rule="evenodd"/>
    <path d="M51.622,15.164 C51.622,15.164 39.684,15.164 39.684,15.164 C39.132,15.164 38.685,14.716 38.685,14.164 C38.685,13.612 39.132,13.164 39.684,13.164 C39.684,13.164 51.622,13.164 51.622,13.164 C52.174,13.164 52.622,13.612 52.622,14.164 C52.622,14.716 52.174,15.164 51.622,15.164 Z" id="path-9" class="cls-3" fill-rule="evenodd"/>
    <path d="M55.997,10.116 C55.997,10.116 45.458,10.116 45.458,10.116 C44.906,10.116 44.458,9.668 44.458,9.116 C44.458,8.564 44.906,8.116 45.458,8.116 C45.458,8.116 55.997,8.116 55.997,8.116 C56.549,8.116 56.997,8.564 56.997,9.116 C56.997,9.668 56.549,10.116 55.997,10.116 Z" id="path-10" class="cls-3" fill-rule="evenodd"/>
  </g>
</svg>
