<svg xmlns="http://www.w3.org/2000/svg" xmlns:xlink="http://www.w3.org/1999/xlink" preserveAspectRatio="xMidYMid" width="53" height="60" viewBox="0 0 53 60">
  <defs>
    <style>

      .cls-3 {
        fill: #fbb713;
      }

      .cls-4 {
        fill: #142a3b;
      }

      .cls-7 {
        fill: #ff3a2f;
      }

      .cls-8 {
        fill: #2476ff;
      }

      .cls-9 {
        fill: #ffffff;
      }
    </style>
  </defs>
  <g id="group-31svg">
    <path d="M15.434,22.122 C15.434,22.122 3.044,9.733 3.044,9.733 C3.044,9.733 10.369,2.409 10.369,2.409 C10.369,2.409 22.758,14.798 22.758,14.798 C22.758,14.798 15.434,22.122 15.434,22.122 Z" id="path-1" class="cls-3" fill-rule="evenodd"/>
    <path d="M10.374,16.440 C10.374,16.440 8.960,15.026 8.960,15.026 C8.960,15.026 15.739,8.247 15.739,8.247 C15.739,8.247 17.153,9.661 17.153,9.661 C17.153,9.661 10.374,16.440 10.374,16.440 Z" id="path-2" class="cls-4" fill-rule="evenodd"/>
    <path d="M13.881,19.947 C13.881,19.947 12.467,18.532 12.467,18.532 C12.467,18.532 19.246,11.753 19.246,11.753 C19.246,11.753 20.660,13.167 20.660,13.167 C20.660,13.167 13.881,19.947 13.881,19.947 Z" id="path-3" class="cls-4" fill-rule="evenodd"/>
    <path d="M6.868,12.934 C6.868,12.934 5.454,11.520 5.454,11.520 C5.454,11.520 12.233,4.740 12.233,4.740 C12.233,4.740 13.647,6.155 13.647,6.155 C13.647,6.155 6.868,12.934 6.868,12.934 Z" id="path-4" class="cls-4" fill-rule="evenodd"/>
    <path d="M24.258,12.081 C24.258,12.081 12.950,0.772 12.950,0.772 C12.651,0.473 12.898,-0.035 13.317,0.016 C13.317,0.016 17.708,0.543 17.708,0.543 C17.807,0.554 17.899,0.599 17.970,0.669 C17.970,0.669 28.927,11.627 28.927,11.627 C29.214,11.914 28.998,12.404 28.593,12.386 C28.593,12.386 24.554,12.210 24.554,12.210 C24.442,12.206 24.337,12.159 24.258,12.081 Z" id="path-5" class="cls-7" fill-rule="evenodd"/>
    <path d="M39.418,23.834 C39.418,25.471 38.091,26.798 36.454,26.798 C34.816,26.798 33.490,25.471 33.490,23.834 C33.490,22.197 34.816,20.870 36.454,20.870 C38.091,20.870 39.418,22.197 39.418,23.834 Z" id="path-6" class="cls-8" fill-rule="evenodd"/>
    <path d="M37.793,22.835 C37.793,23.574 37.193,24.174 36.454,24.174 C35.714,24.174 35.114,23.574 35.114,22.835 C35.114,22.094 35.714,21.495 36.454,21.495 C37.193,21.495 37.793,22.094 37.793,22.835 Z" id="path-7" class="cls-9" fill-rule="evenodd"/>
    <path d="M51.874,1.909 C51.874,2.968 51.015,3.827 49.956,3.827 C48.897,3.827 48.039,2.968 48.039,1.909 C48.039,0.850 48.897,-0.008 49.956,-0.008 C51.015,-0.008 51.874,0.850 51.874,1.909 Z" id="path-8" class="cls-8" fill-rule="evenodd"/>
    <path d="M2.319,40.238 C2.319,38.515 5.436,34.622 5.436,34.622 C5.436,34.622 8.555,38.515 8.555,40.238 C8.555,41.959 7.158,43.355 5.436,43.355 C3.715,43.355 2.319,41.959 2.319,40.238 Z" id="path-9" class="cls-8" fill-rule="evenodd"/>
    <path d="M24.550,10.042 C24.422,10.042 24.294,9.994 24.197,9.896 C24.197,9.896 16.988,2.687 16.988,2.687 C16.792,2.492 16.792,2.175 16.988,1.980 C17.183,1.785 17.499,1.785 17.695,1.980 C17.695,1.980 24.904,9.189 24.904,9.189 C25.099,9.384 25.099,9.701 24.904,9.896 C24.806,9.994 24.678,10.042 24.550,10.042 Z" id="path-10" class="cls-9" fill-rule="evenodd"/>
    <path d="M16.836,36.927 C16.836,36.927 39.900,59.991 39.900,59.991 C39.900,59.991 43.641,56.251 43.641,56.251 C43.641,56.251 21.511,34.122 21.511,34.122 C21.511,34.122 16.368,23.057 16.368,23.057 C16.368,23.057 2.655,9.343 2.655,9.343 C2.655,9.343 0.005,11.993 0.005,11.993 C0.005,11.993 12.316,24.305 12.316,24.305 C12.316,24.305 16.836,36.927 16.836,36.927 Z" id="path-11" class="cls-7" fill-rule="evenodd"/>
  </g>
</svg>
