<svg xmlns="http://www.w3.org/2000/svg" xmlns:xlink="http://www.w3.org/1999/xlink" preserveAspectRatio="xMidYMid" width="61" height="53" viewBox="0 0 61 53">
  <defs>
    <style>

      .cls-3 {
        fill: #142a3b;
      }

      .cls-4 {
        fill: #000000;
        opacity: 0.35;
      }

      .cls-5 {
        fill: #ff3a2f;
      }

      .cls-6 {
        fill: #2476ff;
      }
    </style>
  </defs>
  <g id="group-292svg">
    <path d="M5.014,15.004 C5.014,15.004 2.514,15.004 2.514,15.004 C2.514,15.004 2.514,52.504 2.514,52.504 C2.514,52.504 57.514,52.504 57.514,52.504 C57.514,52.504 57.514,15.004 57.514,15.004 C57.514,15.004 55.014,15.004 55.014,15.004 C55.014,15.004 5.014,15.004 5.014,15.004 Z" id="path-1" class="cls-3" fill-rule="evenodd"/>
    <path d="M5.014,15.942 C5.014,15.942 2.514,15.942 2.514,15.942 C2.514,15.942 2.514,19.756 2.514,19.756 C2.514,19.756 57.514,22.569 57.514,22.569 C57.514,22.569 57.514,15.942 57.514,15.942 C57.514,15.942 55.014,15.942 55.014,15.942 C55.014,15.942 5.014,15.942 5.014,15.942 Z" id="path-2" class="cls-4" fill-rule="evenodd"/>
    <path d="M0.014,0.004 C0.014,0.004 0.014,17.504 0.014,17.504 C0.014,17.504 2.514,17.504 2.514,17.504 C2.514,17.504 5.014,17.504 5.014,17.504 C5.014,17.504 55.014,17.504 55.014,17.504 C55.014,17.504 57.514,17.504 57.514,17.504 C57.514,17.504 60.014,17.504 60.014,17.504 C60.014,17.504 60.014,0.004 60.014,0.004 C60.014,0.004 0.014,0.004 0.014,0.004 Z" id="path-3" class="cls-5" fill-rule="evenodd"/>
    <path d="M22.514,22.502 C22.514,22.502 37.514,22.502 37.514,22.502 C38.894,22.502 40.014,23.622 40.014,25.002 C40.014,26.381 38.894,27.502 37.514,27.502 C37.514,27.502 22.514,27.502 22.514,27.502 C21.135,27.502 20.014,26.381 20.014,25.002 C20.014,23.622 21.135,22.502 22.514,22.502 Z" id="path-4" class="cls-6" fill-rule="evenodd"/>
    <path d="M37.514,22.502 C37.514,22.502 22.514,22.502 22.514,22.502 C21.351,22.502 20.382,23.301 20.102,24.377 C20.102,24.377 34.702,24.377 34.702,24.377 C36.081,24.377 37.202,25.497 37.202,26.877 C37.202,27.094 37.165,27.300 37.113,27.502 C37.113,27.502 37.514,27.502 37.514,27.502 C38.894,27.502 40.014,26.381 40.014,25.002 C40.014,23.622 38.894,22.502 37.514,22.502 Z" id="path-5" class="cls-4" fill-rule="evenodd"/>
  </g>
</svg>
