<svg xmlns="http://www.w3.org/2000/svg" xmlns:xlink="http://www.w3.org/1999/xlink" preserveAspectRatio="xMidYMid" width="61" height="35" viewBox="0 0 61 35">
  <defs>
    <style>

      .cls-3 {
        fill: #2476ff;
      }

      .cls-4 {
        fill: #000000;
        opacity: 0.35;
      }
    </style>
  </defs>
  <g id="group-266svg">
    <path d="M-0.009,26.489 C-0.009,18.862 4.080,13.993 9.156,13.993 C11.397,13.993 13.437,15.124 15.032,17.127 C16.847,7.311 22.827,0.000 29.937,0.000 C37.048,0.000 43.031,7.022 44.846,16.838 C47.914,12.984 52.795,10.757 57.117,18.160 C59.034,21.443 59.991,25.748 59.991,30.115 C59.991,30.115 59.991,30.115 59.991,30.115 C59.991,32.500 58.704,34.433 57.117,34.433 C57.117,34.433 2.872,34.433 2.872,34.433 C1.289,34.433 0.004,32.508 -0.001,30.129 C-0.001,30.129 -0.009,26.489 -0.009,26.489 Z" id="path-1" class="cls-3" fill-rule="evenodd"/>
    <path d="M37.346,18.713 C39.235,16.341 41.810,14.589 44.519,15.316 C42.392,6.307 36.674,0.000 29.937,0.000 C27.740,0.000 25.651,0.702 23.759,1.957 C30.281,2.766 35.645,9.512 37.346,18.713 Z" id="path-2" class="cls-4" fill-rule="evenodd"/>
    <path d="M8.892,14.009 C6.959,14.074 5.184,14.850 3.731,16.218 C5.152,16.692 6.447,17.638 7.532,19.002 C7.856,17.247 8.319,15.576 8.892,14.009 Z" id="path-3" class="cls-4" fill-rule="evenodd"/>
    <path d="M57.117,18.160 C53.195,11.442 48.813,12.655 45.743,15.817 C47.042,16.534 48.354,17.871 49.617,20.035 C51.534,23.318 52.491,27.623 52.491,31.990 C52.491,32.898 52.303,33.738 51.984,34.433 C51.984,34.433 57.117,34.433 57.117,34.433 C58.704,34.433 59.991,32.500 59.991,30.115 C59.991,25.748 59.034,21.443 57.117,18.160 Z" id="path-4" class="cls-4" fill-rule="evenodd"/>
  </g>
</svg>
