<svg xmlns="http://www.w3.org/2000/svg" xmlns:xlink="http://www.w3.org/1999/xlink" preserveAspectRatio="xMidYMid" width="60" height="50" viewBox="0 0 60 50">
  <defs>
    <style>

      .cls-3 {
        fill: #ff3a2f;
      }

      .cls-4 {
        fill: #020403;
        opacity: 0.35;
      }

      .cls-7 {
        fill: #020403;
      }

      .cls-11 {
        fill: #142a3b;
      }

      .cls-16 {
        fill: #fbb713;
      }

      .cls-17 {
        fill: #ffffff;
      }
    </style>
  </defs>
  <g id="group-61svg">
    <path d="M31.520,-0.007 C31.520,-0.007 42.694,11.168 42.694,11.168 C42.694,11.168 38.083,11.168 38.083,11.168 C38.083,11.168 38.083,30.937 38.083,30.937 C38.083,30.937 42.386,30.937 42.386,30.937 C42.386,30.937 42.386,25.036 42.386,25.036 C42.386,25.036 56.771,25.036 56.771,25.036 C56.771,25.036 56.771,25.034 56.771,25.034 C56.771,25.034 56.771,46.797 56.771,46.797 C54.914,45.753 52.870,45.177 50.734,45.177 C50.424,45.177 50.108,45.193 49.773,45.223 C48.344,43.775 46.545,42.988 44.630,42.988 C44.123,42.988 43.610,43.055 43.073,43.194 C39.592,40.432 35.304,38.922 30.897,38.922 C27.672,38.922 24.506,39.730 21.654,41.268 C20.185,39.581 18.207,38.608 16.146,38.608 C12.529,38.608 9.470,41.424 8.531,45.454 C7.305,45.719 6.126,46.188 5.010,46.814 C5.010,46.814 5.010,30.936 5.010,30.936 C5.010,30.936 5.010,25.034 5.010,25.034 C5.010,25.034 19.396,25.034 19.396,25.034 C19.396,25.034 19.396,30.936 19.396,30.936 C19.396,30.936 23.699,30.936 23.699,30.936 C23.699,30.936 23.699,11.166 23.699,11.166 C23.699,11.166 19.087,11.166 19.087,11.166 C19.087,11.166 30.261,-0.009 30.261,-0.009 C30.261,-0.009 30.261,-0.009 30.261,-0.009 " id="path-1" class="cls-3" fill-rule="evenodd"/>
    <path d="M17.288,25.034 C17.288,25.034 17.288,30.936 17.288,30.936 C17.288,30.936 19.395,30.936 19.395,30.936 C19.395,30.936 19.395,25.034 19.395,25.034 C19.395,25.034 17.288,25.034 17.288,25.034 Z" id="path-2" class="cls-4" fill-rule="evenodd"/>
    <path d="M31.520,-0.007 C31.520,-0.007 42.694,11.168 42.694,11.168 C42.694,11.168 40.586,11.168 40.586,11.168 C40.586,11.168 29.836,0.416 29.836,0.416 C29.836,0.416 30.261,-0.009 30.261,-0.009 C30.261,-0.009 31.520,-0.007 31.520,-0.007 Z" id="path-3" class="cls-4" fill-rule="evenodd"/>
    <path d="M35.975,30.937 C35.975,30.937 38.083,30.937 38.083,30.937 C38.083,30.937 38.083,11.168 38.083,11.168 C38.083,11.168 35.975,11.168 35.975,11.168 C35.975,11.168 35.975,30.937 35.975,30.937 Z" id="path-4" class="cls-4" fill-rule="evenodd"/>
    <path d="M42.810,43.003 C42.896,43.069 42.988,43.127 43.073,43.194 C43.261,43.146 43.443,43.117 43.626,43.086 C43.357,43.042 43.085,43.014 42.810,43.003 Z" id="path-5" class="cls-7" fill-rule="evenodd"/>
    <path d="M54.664,45.871 C55.386,46.121 56.095,46.416 56.771,46.797 C56.771,46.797 56.771,25.036 56.771,25.036 C56.771,25.036 54.664,25.036 54.664,25.036 C54.664,25.036 54.664,45.871 54.664,45.871 Z" id="path-6" class="cls-4" fill-rule="evenodd"/>
    <path d="M28.789,38.922 C26.093,38.922 23.440,39.495 20.975,40.579 C21.210,40.794 21.439,41.021 21.654,41.268 C24.148,39.924 26.882,39.136 29.685,38.959 C29.387,38.945 29.089,38.922 28.789,38.922 Z" id="path-7" class="cls-7" fill-rule="evenodd"/>
    <path d="M14.039,38.608 C10.422,38.608 7.362,41.423 6.423,45.454 C5.943,45.557 5.474,45.701 5.010,45.864 C5.010,45.864 5.010,46.814 5.010,46.814 C6.126,46.187 7.305,45.719 8.531,45.454 C9.375,41.830 11.936,39.197 15.071,38.700 C14.730,38.646 14.387,38.608 14.039,38.608 Z" id="path-8" class="cls-4" fill-rule="evenodd"/>
    <path d="M34.057,16.276 C34.057,14.528 32.641,13.110 30.891,13.110 C29.141,13.110 27.724,14.527 27.724,16.276 C27.724,16.276 27.724,22.498 27.724,22.498 C27.724,22.498 34.056,22.498 34.056,22.498 C34.056,22.498 34.056,16.276 34.056,16.276 C34.056,16.276 34.057,16.276 34.057,16.276 Z" id="path-9" class="cls-11" fill-rule="evenodd"/>
    <path d="M31.148,13.136 C31.641,13.694 31.949,14.419 31.949,15.223 C31.949,15.223 31.948,15.223 31.948,15.223 C31.948,15.223 31.948,21.443 31.948,21.443 C31.948,21.443 27.724,21.443 27.724,21.443 C27.724,21.443 27.724,22.498 27.724,22.498 C27.724,22.498 34.056,22.498 34.056,22.498 C34.056,22.498 34.056,16.276 34.056,16.276 C34.056,16.276 34.057,16.276 34.057,16.276 C34.057,14.616 32.775,13.269 31.148,13.136 Z" id="path-10" class="cls-4" fill-rule="evenodd"/>
    <path d="M56.771,42.607 C54.782,41.008 52.410,40.071 49.855,40.071 C49.316,40.071 48.788,40.126 48.269,40.206 C47.116,38.771 45.519,37.882 43.750,37.882 C43.084,37.882 42.455,38.042 41.852,38.275 C38.660,35.499 34.533,33.815 30.016,33.815 C26.461,33.815 23.154,34.870 20.345,36.665 C19.185,34.756 17.350,33.502 15.263,33.502 C12.080,33.502 9.464,36.389 9.001,40.145 C7.590,40.305 6.249,40.752 5.010,41.431 C5.010,41.431 5.010,46.326 5.010,46.326 C5.010,46.326 5.969,46.326 5.969,46.326 C6.795,45.943 7.650,45.644 8.531,45.454 C9.470,41.423 12.529,38.608 16.146,38.608 C18.207,38.608 20.185,39.581 21.654,41.268 C24.506,39.730 27.672,38.922 30.897,38.922 C35.304,38.922 39.592,40.432 43.073,43.194 C43.610,43.056 44.123,42.988 44.630,42.988 C46.545,42.988 48.344,43.775 49.773,45.223 C50.108,45.193 50.424,45.177 50.734,45.177 C52.508,45.177 54.212,45.594 55.805,46.326 C55.805,46.326 56.771,46.326 56.771,46.326 C56.771,46.326 56.771,42.607 56.771,42.607 Z" id="path-11" class="cls-4" fill-rule="evenodd"/>
    <path d="M44.888,20.192 C44.888,20.192 44.888,22.159 44.888,22.159 C44.888,22.159 47.772,22.159 47.772,22.159 C47.772,22.159 47.772,20.192 47.772,20.192 C47.772,20.192 51.446,20.192 51.446,20.192 C51.446,20.192 51.446,22.159 51.446,22.159 C51.446,22.159 54.331,22.159 54.331,22.159 C54.331,22.159 54.331,20.315 54.331,20.315 C54.331,20.315 58.003,20.315 58.003,20.315 C58.003,20.315 58.003,22.159 58.003,22.159 C58.003,22.159 58.003,25.823 58.003,25.823 C58.003,25.823 58.003,25.833 58.003,25.833 C58.003,25.833 41.215,25.833 41.215,25.833 C41.215,25.833 41.215,25.701 41.215,25.701 C41.215,25.701 41.215,22.159 41.215,22.159 C41.215,22.159 41.215,20.192 41.215,20.192 C41.215,20.192 44.888,20.192 44.888,20.192 Z" id="path-12" class="cls-11" fill-rule="evenodd"/>
    <path d="M20.567,25.823 C20.567,25.823 20.567,22.159 20.567,22.159 C20.567,22.159 20.567,20.315 20.567,20.315 C20.567,20.315 16.894,20.315 16.894,20.315 C16.894,20.315 16.894,22.159 16.894,22.159 C16.894,22.159 14.009,22.159 14.009,22.159 C14.009,22.159 14.009,20.192 14.009,20.192 C14.009,20.192 10.336,20.192 10.336,20.192 C10.336,20.192 10.336,22.159 10.336,22.159 C10.336,22.159 7.451,22.159 7.451,22.159 C7.451,22.159 7.451,20.192 7.451,20.192 C7.451,20.192 3.778,20.192 3.778,20.192 C3.778,20.192 3.778,22.159 3.778,22.159 C3.778,22.159 3.778,25.701 3.778,25.701 C3.778,25.701 3.778,25.833 3.778,25.833 C3.778,25.833 20.567,25.833 20.567,25.833 C20.567,25.833 20.567,25.823 20.567,25.823 Z" id="path-13" class="cls-11" fill-rule="evenodd"/>
    <path d="M49.855,43.233 C49.316,43.233 48.788,43.287 48.269,43.368 C47.116,41.932 45.519,41.043 43.750,41.043 C43.084,41.043 42.455,41.204 41.852,41.437 C38.660,38.661 34.533,36.977 30.016,36.977 C26.461,36.977 23.154,38.031 20.345,39.827 C19.185,37.918 17.350,36.664 15.263,36.664 C12.080,36.664 9.464,39.550 9.001,43.306 C5.326,43.722 2.110,46.057 0.010,49.488 C0.010,49.488 60.010,49.488 60.010,49.488 C57.690,45.696 54.011,43.233 49.855,43.233 Z" id="path-14" class="cls-16" fill-rule="evenodd"/>
    <path d="M54.938,48.289 C54.744,48.289 54.548,48.233 54.375,48.115 C52.674,46.954 50.747,46.340 48.801,46.340 C48.368,46.340 47.912,46.380 47.368,46.464 C47.368,46.464 46.797,46.552 46.797,46.552 C46.797,46.552 46.435,46.101 46.435,46.101 C45.425,44.843 44.098,44.151 42.696,44.151 C42.223,44.151 41.734,44.255 41.159,44.477 C41.159,44.477 40.597,44.695 40.597,44.695 C40.597,44.695 40.142,44.299 40.142,44.299 C37.018,41.581 33.047,40.084 28.962,40.084 C28.410,40.084 27.962,39.636 27.962,39.084 C27.962,38.532 28.410,38.084 28.962,38.084 C33.337,38.084 37.593,39.618 41.010,42.414 C41.596,42.237 42.152,42.151 42.696,42.151 C44.539,42.151 46.268,42.949 47.618,44.412 C48.038,44.364 48.429,44.340 48.801,44.340 C51.151,44.340 53.468,45.075 55.503,46.464 C55.959,46.775 56.076,47.397 55.765,47.853 C55.571,48.137 55.257,48.289 54.938,48.289 Z" id="path-15" class="cls-17" fill-rule="evenodd"/>
    <path d="M18.998,42.503 C18.684,42.503 18.373,42.355 18.179,42.078 C17.136,40.590 15.726,39.771 14.209,39.771 C13.657,39.771 13.209,39.323 13.209,38.771 C13.209,38.219 13.657,37.771 14.209,37.771 C16.365,37.771 18.409,38.922 19.816,40.929 C20.133,41.382 20.024,42.005 19.572,42.322 C19.397,42.445 19.197,42.503 18.998,42.503 Z" id="path-16" class="cls-17" fill-rule="evenodd"/>
    <path d="M54.664,27.717 C54.664,27.717 42.386,26.664 42.386,26.664 C42.386,26.664 42.386,25.833 42.386,25.833 C42.386,25.833 54.664,25.833 54.664,25.833 C54.664,25.833 54.664,27.717 54.664,27.717 Z" id="path-17" class="cls-4" fill-rule="evenodd"/>
    <path d="M17.442,27.717 C17.442,27.717 5.163,26.664 5.163,26.664 C5.163,26.664 5.163,25.833 5.163,25.833 C5.163,25.833 17.442,25.833 17.442,25.833 C17.442,25.833 17.442,27.717 17.442,27.717 Z" id="path-18" class="cls-4" fill-rule="evenodd"/>
    <path d="M35.975,12.437 C35.975,12.437 23.699,11.383 23.699,11.383 C23.699,11.383 23.699,11.166 23.699,11.166 C23.699,11.166 35.975,11.166 35.975,11.166 C35.975,11.166 35.975,12.437 35.975,12.437 Z" id="path-19" class="cls-7" fill-rule="evenodd"/>
  </g>
</svg>
