<svg xmlns="http://www.w3.org/2000/svg" xmlns:xlink="http://www.w3.org/1999/xlink" preserveAspectRatio="xMidYMid" width="60" height="61" viewBox="0 0 60 61">
  <defs>
    <style>

      .cls-3 {
        fill: #ff3a2f;
      }

      .cls-4 {
        fill: #020403;
        opacity: 0.35;
      }

      .cls-6 {
        fill: #142a3b;
      }

      .cls-8 {
        fill: #ededed;
      }
    </style>
  </defs>
  <g id="group-162svg">
    <path d="M47.749,4.654 C41.535,-1.560 31.461,-1.560 25.248,4.654 C20.651,9.251 19.465,15.957 21.669,21.653 C15.973,19.449 9.267,20.635 4.670,25.231 C-1.544,31.445 -1.544,41.519 4.670,47.733 C9.414,52.477 16.405,53.587 22.214,51.086 C22.703,53.069 23.708,54.951 25.258,56.500 C29.785,61.027 37.123,61.027 41.649,56.500 C44.988,53.162 45.856,48.297 44.270,44.155 C48.411,45.741 53.277,44.873 56.615,41.535 C61.142,37.009 61.142,29.670 56.615,25.143 C55.053,23.582 53.153,22.572 51.153,22.088 C53.592,16.301 52.463,9.368 47.749,4.654 Z" id="path-1" class="cls-3" fill-rule="evenodd"/>
    <path d="M41.649,50.798 C37.123,55.324 29.785,55.324 25.258,50.798 C23.708,49.248 22.703,47.367 22.214,45.384 C16.405,47.884 9.414,46.774 4.670,42.030 C2.292,39.652 0.832,36.707 0.274,33.631 C-0.625,38.592 0.835,43.897 4.670,47.732 C9.414,52.477 16.405,53.587 22.214,51.086 C22.703,53.069 23.708,54.951 25.258,56.500 C29.785,61.027 37.123,61.027 41.649,56.500 C44.647,53.503 45.636,49.277 44.662,45.447 C44.168,47.406 43.182,49.265 41.649,50.798 Z" id="path-2" class="cls-4" fill-rule="evenodd"/>
    <path d="M56.615,35.832 C53.277,39.171 48.411,40.038 44.270,38.453 C44.991,40.337 45.179,42.369 44.882,44.341 C48.885,45.624 53.438,44.712 56.615,41.535 C59.610,38.540 60.610,34.316 59.642,30.488 C59.147,32.445 58.146,34.301 56.615,35.832 Z" id="path-3" class="cls-4" fill-rule="evenodd"/>
    <path d="M21.668,22.653 C21.448,22.653 21.227,22.581 21.042,22.432 C13.097,16.043 14.929,2.417 15.011,1.839 C15.088,1.293 15.594,0.914 16.141,0.990 C16.688,1.067 17.068,1.573 16.991,2.120 C16.973,2.250 15.241,15.201 22.295,20.874 C22.726,21.220 22.794,21.849 22.448,22.279 C22.250,22.526 21.961,22.653 21.668,22.653 Z" id="path-4" class="cls-6" fill-rule="evenodd"/>
    <path d="M22.074,22.248 C21.782,22.248 21.492,22.121 21.294,21.875 C15.610,14.806 2.670,16.551 2.541,16.570 C1.995,16.650 1.488,16.267 1.410,15.721 C1.332,15.174 1.713,14.667 2.260,14.589 C2.838,14.509 16.464,12.675 22.853,20.622 C23.199,21.052 23.131,21.681 22.700,22.028 C22.516,22.176 22.294,22.248 22.074,22.248 Z" id="path-5" class="cls-6" fill-rule="evenodd"/>
    <path d="M37.775,14.183 C36.678,13.085 34.899,13.085 33.802,14.183 C32.705,15.279 32.705,17.058 33.802,18.155 C34.899,19.252 36.678,19.252 37.775,18.155 C38.872,17.058 38.872,15.279 37.775,14.183 Z" id="path-6" class="cls-8" fill-rule="evenodd"/>
    <path d="M17.614,34.344 C16.517,33.246 14.738,33.246 13.641,34.344 C12.544,35.440 12.544,37.220 13.641,38.316 C14.738,39.414 16.517,39.414 17.614,38.316 C18.711,37.220 18.711,35.440 17.614,34.344 Z" id="path-7" class="cls-8" fill-rule="evenodd"/>
  </g>
</svg>
