<svg xmlns="http://www.w3.org/2000/svg" xmlns:xlink="http://www.w3.org/1999/xlink" preserveAspectRatio="xMidYMid" width="61" height="13" viewBox="0 0 61 13">
  <defs>
    <style>

      .cls-3 {
        fill: #142a3b;
      }

      .cls-5 {
        fill: #020403;
        opacity: 0.35;
      }

      .cls-6 {
        fill: #ffffff;
      }

      .cls-9 {
        fill: #0cb04a;
      }
    </style>
  </defs>
  <g id="group-79svg">
    <path d="M50.057,6.520 C50.709,6.520 51.329,6.383 51.893,6.142 C52.481,4.541 54.019,3.400 55.823,3.400 C58.136,3.400 60.010,5.275 60.010,7.587 C60.010,9.899 58.136,11.774 55.823,11.774 C54.106,11.774 52.631,10.739 51.985,9.260 C51.334,8.914 50.592,8.718 49.804,8.718 C47.967,8.718 46.379,9.779 45.617,11.322 C45.617,11.322 45.617,3.292 45.617,3.292 C46.224,5.165 47.982,6.520 50.057,6.520 Z" id="path-1" class="cls-3" fill-rule="evenodd"/>
    <path d="M10.691,5.508 C9.991,5.508 9.326,5.362 8.722,5.102 C8.090,3.385 6.439,2.160 4.503,2.160 C2.022,2.160 0.010,4.172 0.010,6.653 C0.010,9.135 2.022,11.147 4.503,11.147 C6.347,11.147 7.930,10.036 8.622,8.448 C9.321,8.078 10.117,7.867 10.963,7.867 C12.935,7.867 14.639,9.006 15.456,10.662 C15.456,10.662 15.456,2.045 15.456,2.045 C14.805,4.054 12.918,5.508 10.691,5.508 Z" id="path-2" class="cls-3" fill-rule="evenodd"/>
    <path d="M59.931,6.798 C59.898,6.631 59.845,6.473 59.792,6.315 C59.768,6.239 59.750,6.162 59.722,6.089 C59.640,5.880 59.541,5.680 59.427,5.488 C59.420,5.477 59.414,5.464 59.407,5.452 C59.283,5.248 59.144,5.055 58.988,4.874 C59.043,5.145 59.073,5.425 59.073,5.712 C59.073,8.024 57.198,9.899 54.886,9.899 C53.168,9.899 51.693,8.864 51.047,7.385 C50.396,7.039 49.654,6.843 48.866,6.843 C48.415,6.843 47.989,6.927 47.578,7.048 C47.578,7.048 47.578,5.791 47.578,5.791 C46.664,5.214 45.956,4.340 45.617,3.292 C45.617,3.292 45.617,8.176 45.617,8.176 C45.617,8.176 45.617,10.013 45.617,10.013 C45.617,10.013 45.617,11.322 45.617,11.322 C45.734,11.084 45.877,10.863 46.032,10.650 C46.049,10.627 46.067,10.605 46.085,10.582 C46.239,10.379 46.408,10.189 46.593,10.013 C46.593,10.013 46.593,10.013 46.593,10.013 C46.593,10.013 46.593,10.013 46.593,10.013 C46.888,9.732 47.218,9.491 47.578,9.295 C47.578,9.295 47.578,9.294 47.578,9.294 C47.578,9.294 47.579,9.294 47.579,9.294 C47.740,9.206 47.905,9.128 48.077,9.059 C48.094,9.052 48.111,9.046 48.129,9.039 C48.285,8.979 48.442,8.924 48.606,8.881 C48.671,8.863 48.739,8.852 48.806,8.837 C48.930,8.810 49.052,8.780 49.180,8.763 C49.384,8.734 49.592,8.718 49.804,8.718 C50.001,8.718 50.195,8.730 50.386,8.754 C50.767,8.802 51.133,8.895 51.480,9.029 C51.654,9.096 51.822,9.173 51.985,9.260 C52.146,9.629 52.359,9.972 52.616,10.277 C52.999,10.734 53.479,11.108 54.024,11.368 C54.569,11.628 55.180,11.774 55.823,11.774 C57.558,11.774 59.046,10.720 59.681,9.217 C59.893,8.716 60.010,8.165 60.010,7.587 C60.010,7.317 59.979,7.054 59.931,6.798 Z" id="path-3" class="cls-5" fill-rule="evenodd"/>
    <path d="M4.763,5.938 C4.178,6.523 3.229,6.523 2.644,5.938 C2.059,5.353 2.059,4.404 2.644,3.819 C3.229,3.233 4.178,3.233 4.763,3.819 C5.349,4.404 5.349,5.353 4.763,5.938 Z" id="path-4" class="cls-6" fill-rule="evenodd"/>
    <path d="M1.885,5.716 C1.885,4.326 2.529,3.100 3.520,2.276 C1.513,2.725 0.010,4.511 0.010,6.654 C0.010,9.135 2.022,11.146 4.503,11.146 C5.608,11.146 6.615,10.742 7.397,10.080 C7.068,10.157 6.730,10.209 6.378,10.209 C3.897,10.209 1.885,8.198 1.885,5.716 Z" id="path-5" class="cls-5" fill-rule="evenodd"/>
    <path d="M13.437,4.673 C13.437,4.673 13.437,6.972 13.437,6.972 C13.241,6.948 13.042,6.929 12.838,6.929 C11.992,6.929 11.196,7.140 10.498,7.511 C10.436,7.651 10.360,7.783 10.285,7.916 C10.285,7.916 10.285,7.916 10.285,7.916 C10.507,7.886 10.733,7.867 10.963,7.867 C11.195,7.867 11.423,7.885 11.647,7.916 C11.804,7.937 11.955,7.975 12.107,8.011 C12.165,8.025 12.225,8.033 12.281,8.049 C12.478,8.102 12.667,8.170 12.853,8.246 C12.859,8.249 12.867,8.251 12.873,8.254 C13.068,8.335 13.256,8.428 13.437,8.532 C13.437,8.532 13.437,8.532 13.437,8.532 C13.437,8.532 13.437,8.532 13.437,8.532 C14.007,8.858 14.503,9.290 14.904,9.804 C14.904,9.804 14.904,9.804 14.904,9.804 C14.904,9.804 14.905,9.805 14.905,9.805 C15.002,9.930 15.096,10.056 15.182,10.190 C15.282,10.341 15.375,10.497 15.456,10.662 C15.456,10.662 15.456,7.673 15.456,7.673 C15.283,7.566 15.101,7.472 14.915,7.387 C14.915,7.387 14.915,3.957 14.915,3.957 C15.099,3.860 15.287,3.765 15.456,3.645 C15.456,3.645 15.456,2.045 15.456,2.045 C15.389,2.254 15.303,2.454 15.207,2.648 C14.812,3.476 14.197,4.171 13.437,4.673 Z" id="path-6" class="cls-5" fill-rule="evenodd"/>
    <path d="M45.749,13.189 C45.749,13.189 14.915,13.189 14.915,13.189 C14.915,13.189 14.915,0.002 14.915,0.002 C14.915,0.002 45.749,0.002 45.749,0.002 C45.749,0.002 45.749,13.189 45.749,13.189 Z" id="path-7" class="cls-9" fill-rule="evenodd"/>
    <path d="M42.937,0.002 C42.937,0.002 42.937,7.086 42.937,7.086 C42.937,8.903 41.464,10.377 39.646,10.377 C39.646,10.377 14.915,10.377 14.915,10.377 C14.915,10.377 14.915,13.189 14.915,13.189 C14.915,13.189 45.749,13.189 45.749,13.189 C45.749,13.189 45.749,0.002 45.749,0.002 C45.749,0.002 42.937,0.002 42.937,0.002 Z" id="path-8" class="cls-5" fill-rule="evenodd"/>
    <path d="M37.901,7.596 C37.901,7.596 22.120,7.596 22.120,7.596 C21.567,7.596 21.120,7.148 21.120,6.596 C21.120,6.043 21.567,5.596 22.120,5.596 C22.120,5.596 37.901,5.596 37.901,5.596 C38.453,5.596 38.901,6.043 38.901,6.596 C38.901,7.148 38.453,7.596 37.901,7.596 Z" id="path-9" class="cls-6" fill-rule="evenodd"/>
  </g>
</svg>
