<svg xmlns="http://www.w3.org/2000/svg" xmlns:xlink="http://www.w3.org/1999/xlink" preserveAspectRatio="xMidYMid" width="61" height="58" viewBox="0 0 61 58">
  <defs>
    <style>

      .cls-3 {
        fill: #142a3b;
      }

      .cls-4 {
        fill: #020403;
        opacity: 0.35;
      }

      .cls-5 {
        fill: #0cb04a;
      }

      .cls-6 {
        fill: #fbb713;
      }
    </style>
  </defs>
  <g id="group-26svg">
    <path d="M46.957,55.819 C46.957,55.819 59.992,55.225 59.992,55.225 C59.992,55.225 45.134,23.584 45.134,23.584 C45.134,23.584 39.743,38.442 39.743,38.442 C39.743,38.442 46.957,55.819 46.957,55.819 Z" id="path-1" class="cls-3" fill-rule="evenodd"/>
    <path d="M45.949,47.418 C45.949,47.418 40.899,35.256 40.899,35.256 C40.899,35.256 39.743,38.442 39.743,38.442 C39.743,38.442 46.957,55.819 46.957,55.819 C46.957,55.819 59.992,55.225 59.992,55.225 C59.992,55.225 58.493,52.032 58.493,52.032 C58.493,52.032 53.565,52.256 53.565,52.256 C50.262,52.406 47.217,50.472 45.949,47.418 Z" id="path-2" class="cls-4" fill-rule="evenodd"/>
    <path d="M-0.008,57.323 C-0.008,57.323 23.787,0.015 23.787,0.015 C23.787,0.015 47.582,57.323 47.582,57.323 C47.582,57.323 -0.008,57.323 -0.008,57.323 Z" id="path-3" class="cls-5" fill-rule="evenodd"/>
    <path d="M27.777,9.625 C27.777,9.625 23.787,0.014 23.787,0.014 C23.787,0.014 19.797,9.625 19.797,9.625 C19.797,9.625 21.057,10.404 21.057,10.404 C21.360,10.592 21.754,10.532 21.988,10.265 C21.988,10.265 23.056,9.045 23.056,9.045 C23.312,8.752 23.754,8.713 24.058,8.956 C24.058,8.956 25.838,10.380 25.838,10.380 C26.096,10.586 26.459,10.593 26.725,10.398 C26.725,10.398 27.777,9.625 27.777,9.625 Z" id="path-4" class="cls-6" fill-rule="evenodd"/>
    <path d="M48.084,29.865 C48.084,29.865 45.134,23.584 45.134,23.584 C45.134,23.584 43.073,29.264 43.073,29.264 C42.941,29.626 43.046,30.032 43.337,30.285 C43.337,30.285 44.122,30.969 44.122,30.969 C44.122,30.969 44.438,30.279 44.438,30.279 C44.742,29.616 45.656,29.544 46.060,30.151 C46.060,30.151 46.060,30.151 46.060,30.151 C46.357,30.595 46.966,30.700 47.394,30.380 C47.394,30.380 48.084,29.865 48.084,29.865 Z" id="path-5" class="cls-6" fill-rule="evenodd"/>
  </g>
</svg>
