<svg xmlns="http://www.w3.org/2000/svg" xmlns:xlink="http://www.w3.org/1999/xlink" preserveAspectRatio="xMidYMid" width="60" height="51" viewBox="0 0 60 51">
  <defs>
    <style>

      .cls-3 {
        fill: #2476ff;
      }

      .cls-4 {
        fill: #060606;
        opacity: 0.35;
      }

      .cls-5 {
        fill: #fbb713;
      }

      .cls-6 {
        fill: #ededed;
      }

      .cls-7 {
        fill: #060606;
        opacity: 0.25;
      }
    </style>
  </defs>
  <g id="group-196svg">
    <path d="M38.312,24.684 C38.312,24.684 33.558,19.931 33.558,19.931 C33.558,19.931 53.485,0.004 53.485,0.004 C53.485,0.004 55.403,1.922 55.403,1.922 C55.403,1.922 38.312,24.684 38.312,24.684 Z" id="path-1" class="cls-3" fill-rule="evenodd"/>
    <path d="M53.485,0.004 C53.485,0.004 52.117,1.372 52.117,1.372 C52.117,1.372 52.667,1.922 52.667,1.922 C52.667,1.922 36.749,23.122 36.749,23.122 C36.749,23.122 38.312,24.685 38.312,24.685 C38.312,24.685 55.403,1.922 55.403,1.922 C55.403,1.922 53.485,0.004 53.485,0.004 Z" id="path-2" class="cls-4" fill-rule="evenodd"/>
    <path d="M30.003,46.911 C46.572,46.911 60.003,33.479 60.003,16.911 C60.003,16.911 0.003,16.911 0.003,16.911 C0.003,33.479 13.435,46.911 30.003,46.911 Z" id="path-3" class="cls-5" fill-rule="evenodd"/>
    <path d="M17.171,39.692 C17.014,39.692 16.855,39.656 16.707,39.577 C10.831,36.488 6.428,31.333 4.309,25.063 C4.132,24.539 4.413,23.972 4.936,23.795 C5.462,23.617 6.027,23.899 6.204,24.422 C8.158,30.204 12.218,34.958 17.637,37.807 C18.126,38.064 18.314,38.669 18.057,39.158 C17.878,39.498 17.531,39.692 17.171,39.692 Z" id="path-4" class="cls-6" fill-rule="evenodd"/>
    <path d="M51.667,16.911 C50.285,32.197 37.443,44.175 21.797,44.175 C19.990,44.175 18.224,44.007 16.505,43.701 C20.563,45.750 25.146,46.911 30.003,46.911 C46.572,46.911 60.003,33.479 60.003,16.911 C60.003,16.911 51.667,16.911 51.667,16.911 Z" id="path-5" class="cls-7" fill-rule="evenodd"/>
    <path d="M41.600,49.712 C41.600,49.712 18.406,49.712 18.406,49.712 C16.850,49.712 15.588,48.450 15.588,46.893 C15.588,46.893 15.588,46.893 15.588,46.893 C15.588,45.337 16.850,44.075 18.406,44.075 C18.406,44.075 41.600,44.075 41.600,44.075 C43.157,44.075 44.418,45.337 44.418,46.893 C44.418,46.893 44.418,46.893 44.418,46.893 C44.418,48.450 43.157,49.712 41.600,49.712 Z" id="path-6" class="cls-5" fill-rule="evenodd"/>
    <path d="M18.144,49.529 C18.144,49.529 41.537,49.529 41.537,49.529 C43.039,49.529 44.256,48.312 44.256,46.811 C44.256,46.811 15.426,46.811 15.426,46.811 C15.426,48.312 16.643,49.529 18.144,49.529 Z" id="path-7" class="cls-7" fill-rule="evenodd"/>
  </g>
</svg>
