<svg xmlns="http://www.w3.org/2000/svg" xmlns:xlink="http://www.w3.org/1999/xlink" preserveAspectRatio="xMidYMid" width="44" height="60" viewBox="0 0 44 60">
  <defs>
    <style>

      .cls-3 {
        fill: #142a3b;
      }

      .cls-4 {
        fill: #fbb713;
      }

      .cls-6 {
        fill: #000000;
        opacity: 0.35;
      }

      .cls-7 {
        fill: #0cb04a;
      }
    </style>
  </defs>
  <g id="group-282svg">
    <path d="M44.000,12.848 C44.000,12.848 8.601,12.156 8.601,12.156 C8.601,12.156 -0.000,15.156 -0.000,15.156 C-0.000,15.156 35.000,15.156 35.000,15.156 C35.000,15.156 44.000,12.848 44.000,12.848 Z" id="path-1" class="cls-3" fill-rule="evenodd"/>
    <path d="M35.000,60.156 C35.000,60.156 -0.000,60.156 -0.000,60.156 C-0.000,60.156 -0.000,15.156 -0.000,15.156 C-0.000,15.156 26.875,15.156 26.875,15.156 C26.875,15.156 35.000,15.156 35.000,15.156 C35.000,15.156 35.000,60.156 35.000,60.156 Z" id="path-2" class="cls-4" fill-rule="evenodd"/>
    <path d="M44.000,55.070 C44.000,55.070 35.000,59.620 35.000,59.620 C35.000,59.620 35.000,15.156 35.000,15.156 C35.000,15.156 44.000,12.848 44.000,12.848 C44.000,12.848 44.000,55.070 44.000,55.070 Z" id="path-3" class="cls-4" fill-rule="evenodd"/>
    <path d="M44.000,55.070 C44.000,55.070 35.000,59.620 35.000,59.620 C35.000,59.620 35.000,15.156 35.000,15.156 C35.000,15.156 44.000,12.848 44.000,12.848 C44.000,12.848 44.000,55.070 44.000,55.070 Z" id="path-4" class="cls-6" fill-rule="evenodd"/>
    <path d="M30.199,24.378 C30.199,25.930 28.949,27.187 27.406,27.187 C25.863,27.187 24.613,25.930 24.613,24.378 C24.613,22.827 25.863,21.569 27.406,21.569 C28.949,21.569 30.199,22.827 30.199,24.378 Z" id="path-5" class="cls-7" fill-rule="evenodd"/>
    <path d="M11.157,24.378 C11.157,25.930 9.907,27.187 8.364,27.187 C6.821,27.187 5.571,25.930 5.571,24.378 C5.571,22.827 6.821,21.569 8.364,21.569 C9.907,21.569 11.157,22.827 11.157,24.378 Z" id="path-6" class="cls-7" fill-rule="evenodd"/>
    <path d="M28.840,21.979 C29.097,22.404 29.253,22.898 29.253,23.433 C29.253,24.984 28.003,26.241 26.460,26.241 C25.934,26.241 25.447,26.086 25.026,25.831 C25.517,26.641 26.394,27.187 27.406,27.187 C28.949,27.187 30.199,25.930 30.199,24.378 C30.199,23.356 29.651,22.470 28.840,21.979 Z" id="path-7" class="cls-6" fill-rule="evenodd"/>
    <path d="M9.798,21.979 C10.055,22.404 10.211,22.898 10.211,23.433 C10.211,24.984 8.961,26.241 7.418,26.241 C6.892,26.241 6.405,26.086 5.984,25.831 C6.475,26.641 7.352,27.187 8.364,27.187 C9.907,27.187 11.157,25.930 11.157,24.378 C11.157,23.356 10.609,22.470 9.798,21.979 Z" id="path-8" class="cls-6" fill-rule="evenodd"/>
    <path d="M27.000,25.156 C26.448,25.156 26.000,24.708 26.000,24.156 C26.000,24.156 26.000,10.418 26.000,10.418 C26.000,5.692 22.486,1.991 18.000,1.991 C13.514,1.991 10.000,5.692 10.000,10.418 C10.000,10.418 10.000,23.156 10.000,23.156 C10.000,23.708 9.552,24.156 9.000,24.156 C8.448,24.156 8.000,23.708 8.000,23.156 C8.000,23.156 8.000,10.418 8.000,10.418 C8.000,4.571 12.393,-0.009 18.000,-0.009 C23.607,-0.009 28.000,4.571 28.000,10.418 C28.000,10.418 28.000,24.156 28.000,24.156 C28.000,24.708 27.552,25.156 27.000,25.156 Z" id="path-9" class="cls-3" fill-rule="evenodd"/>
    <path d="M32.000,13.156 C31.448,13.156 31.000,12.708 31.000,12.156 C31.000,12.156 31.000,10.418 31.000,10.418 C31.000,5.771 27.187,1.991 22.500,1.991 C17.813,1.991 14.000,5.771 14.000,10.418 C14.000,10.418 14.000,12.156 14.000,12.156 C14.000,12.708 13.552,13.156 13.000,13.156 C12.448,13.156 12.000,12.708 12.000,12.156 C12.000,12.156 12.000,10.418 12.000,10.418 C12.000,4.668 16.710,-0.009 22.500,-0.009 C28.290,-0.009 33.000,4.668 33.000,10.418 C33.000,10.418 33.000,12.156 33.000,12.156 C33.000,12.708 32.552,13.156 32.000,13.156 Z" id="path-10" class="cls-3" fill-rule="evenodd"/>
  </g>
</svg>
