<svg xmlns="http://www.w3.org/2000/svg" xmlns:xlink="http://www.w3.org/1999/xlink" preserveAspectRatio="xMidYMid" width="61" height="61" viewBox="0 0 61 61">
  <defs>
    <style>

      .cls-3 {
        fill: #fbb713;
      }

      .cls-4 {
        fill: #2476ff;
      }

      .cls-5 {
        fill: #ff3a2f;
      }

      .cls-6 {
        fill: #000000;
        opacity: 0.35;
      }
    </style>
  </defs>
  <g id="group-312svg">
    <path d="M26.074,3.925 C26.074,1.764 27.827,0.012 29.987,0.012 C32.147,0.012 33.900,1.764 33.900,3.925 C33.900,3.925 33.900,60.012 33.900,60.012 C33.900,60.012 26.074,60.012 26.074,60.012 C26.074,60.012 26.074,3.925 26.074,3.925 Z" id="path-1" class="cls-3" fill-rule="evenodd"/>
    <path d="M50.205,20.882 C50.205,20.882 5.205,20.882 5.205,20.882 C5.205,20.882 7.813,14.359 7.813,14.359 C7.813,14.359 5.205,7.838 5.205,7.838 C5.205,7.838 50.205,7.838 50.205,7.838 C50.205,7.838 59.987,14.359 59.987,14.359 C59.987,14.359 50.205,20.882 50.205,20.882 Z" id="path-2" class="cls-4" fill-rule="evenodd"/>
    <path d="M9.770,26.099 C9.770,26.099 54.770,26.099 54.770,26.099 C54.770,26.099 52.161,32.620 52.161,32.620 C52.161,32.620 54.770,39.143 54.770,39.143 C54.770,39.143 9.770,39.143 9.770,39.143 C9.770,39.143 -0.013,32.620 -0.013,32.620 C-0.013,32.620 9.770,26.099 9.770,26.099 Z" id="path-3" class="cls-5" fill-rule="evenodd"/>
    <path d="M50.205,7.838 C50.205,7.838 5.205,7.838 5.205,7.838 C5.205,7.838 5.685,9.038 5.685,9.038 C5.685,9.038 47.805,9.038 47.805,9.038 C47.805,9.038 57.587,15.560 57.587,15.560 C57.587,15.560 49.604,20.882 49.604,20.882 C49.604,20.882 50.205,20.882 50.205,20.882 C50.205,20.882 59.987,14.359 59.987,14.359 C59.987,14.359 50.205,7.838 50.205,7.838 Z" id="path-4" class="cls-6" fill-rule="evenodd"/>
    <path d="M54.770,26.099 C54.770,26.099 9.770,26.099 9.770,26.099 C9.770,26.099 7.970,27.299 7.970,27.299 C7.970,27.299 52.370,27.299 52.370,27.299 C52.370,27.299 49.761,33.821 49.761,33.821 C49.761,33.821 51.890,39.143 51.890,39.143 C51.890,39.143 54.770,39.143 54.770,39.143 C54.770,39.143 52.161,32.621 52.161,32.621 C52.161,32.621 54.770,26.099 54.770,26.099 Z" id="path-5" class="cls-6" fill-rule="evenodd"/>
  </g>
</svg>
