<svg xmlns="http://www.w3.org/2000/svg" xmlns:xlink="http://www.w3.org/1999/xlink" preserveAspectRatio="xMidYMid" width="59" height="61" viewBox="0 0 59 61">
  <defs>
    <style>

      .cls-3 {
        fill: #0cb04a;
      }

      .cls-4 {
        fill: #fbb713;
      }

      .cls-5 {
        fill: #000000;
        opacity: 0.2;
      }

      .cls-6 {
        fill: #142a3b;
      }
    </style>
  </defs>
  <g id="group-316svg">
    <path d="M4.439,17.390 C4.439,17.390 58.869,8.662 58.869,8.662 C58.869,8.662 57.778,1.142 57.778,1.142 C57.778,0.513 57.284,0.004 56.673,0.004 C56.673,0.004 1.113,9.821 1.113,9.821 C0.502,9.821 0.007,10.331 0.007,10.961 C0.007,10.961 0.007,28.274 0.007,28.274 C0.007,28.903 0.502,29.412 1.113,29.412 C1.113,29.412 56.673,29.412 56.673,29.412 C57.284,29.412 57.778,28.903 57.778,28.274 C57.778,28.274 57.778,21.787 57.778,21.787 C57.778,21.787 4.439,21.890 4.439,21.890 C4.439,21.890 4.439,21.890 4.439,21.890 " id="path-1" class="cls-3" fill-rule="evenodd"/>
    <path d="M57.825,28.342 C57.825,28.342 57.825,58.936 57.825,58.936 C57.825,59.525 57.338,60.004 56.738,60.004 C56.738,60.004 1.093,60.004 1.093,60.004 C0.493,60.004 0.007,59.525 0.007,58.936 C0.007,58.936 0.007,28.367 0.007,28.367 C0.007,28.367 57.825,28.342 57.825,28.342 Z" id="path-2" class="cls-4" fill-rule="evenodd"/>
    <path d="M50.625,28.345 C50.625,28.345 50.625,55.336 50.625,55.336 C50.625,55.925 50.138,56.404 49.538,56.404 C49.538,56.404 0.007,56.404 0.007,56.404 C0.007,56.404 0.007,58.936 0.007,58.936 C0.007,59.525 0.493,60.004 1.093,60.004 C1.093,60.004 56.738,60.004 56.738,60.004 C57.338,60.004 57.825,59.525 57.825,58.936 C57.825,58.936 57.825,28.342 57.825,28.342 C57.825,28.342 50.625,28.345 50.625,28.345 Z" id="path-3" class="cls-5" fill-rule="evenodd"/>
    <path d="M8.552,29.357 C8.552,29.357 6.811,28.373 6.811,28.373 C6.811,28.373 10.626,21.617 10.626,21.617 C10.626,21.617 12.368,22.600 12.368,22.600 C12.368,22.600 8.552,29.357 8.552,29.357 Z" id="path-4" class="cls-6" fill-rule="evenodd"/>
    <path d="M17.137,29.357 C17.137,29.357 15.396,28.373 15.396,28.373 C15.396,28.373 19.212,21.617 19.212,21.617 C19.212,21.617 20.953,22.600 20.953,22.600 C20.953,22.600 17.137,29.357 17.137,29.357 Z" id="path-5" class="cls-6" fill-rule="evenodd"/>
    <path d="M25.723,29.357 C25.723,29.357 23.981,28.373 23.981,28.373 C23.981,28.373 27.797,21.617 27.797,21.617 C27.797,21.617 29.539,22.600 29.539,22.600 C29.539,22.600 25.723,29.357 25.723,29.357 Z" id="path-6" class="cls-6" fill-rule="evenodd"/>
    <path d="M33.354,29.357 C33.354,29.357 31.613,28.373 31.613,28.373 C31.613,28.373 35.429,21.617 35.429,21.617 C35.429,21.617 37.170,22.600 37.170,22.600 C37.170,22.600 33.354,29.357 33.354,29.357 Z" id="path-7" class="cls-6" fill-rule="evenodd"/>
    <path d="M40.985,29.357 C40.985,29.357 39.244,28.373 39.244,28.373 C39.244,28.373 43.060,21.617 43.060,21.617 C43.060,21.617 44.801,22.600 44.801,22.600 C44.801,22.600 40.985,29.357 40.985,29.357 Z" id="path-8" class="cls-6" fill-rule="evenodd"/>
    <path d="M49.571,29.357 C49.571,29.357 47.830,28.373 47.830,28.373 C47.830,28.373 51.645,21.617 51.645,21.617 C51.645,21.617 53.387,22.600 53.387,22.600 C53.387,22.600 49.571,29.357 49.571,29.357 Z" id="path-9" class="cls-6" fill-rule="evenodd"/>
    <path d="M9.507,16.428 C9.507,16.428 7.625,15.751 7.625,15.751 C7.625,15.751 10.252,8.449 10.252,8.449 C10.252,8.449 12.134,9.126 12.134,9.126 C12.134,9.126 9.507,16.428 9.507,16.428 Z" id="path-10" class="cls-6" fill-rule="evenodd"/>
    <path d="M17.970,14.987 C17.970,14.987 16.088,14.309 16.088,14.309 C16.088,14.309 18.716,7.008 18.716,7.008 C18.716,7.008 20.598,7.685 20.598,7.685 C20.598,7.685 17.970,14.987 17.970,14.987 Z" id="path-11" class="cls-6" fill-rule="evenodd"/>
    <path d="M26.434,13.546 C26.434,13.546 24.552,12.869 24.552,12.869 C24.552,12.869 27.179,5.567 27.179,5.567 C27.179,5.567 29.061,6.244 29.061,6.244 C29.061,6.244 26.434,13.546 26.434,13.546 Z" id="path-12" class="cls-6" fill-rule="evenodd"/>
    <path d="M33.957,12.266 C33.957,12.266 32.076,11.589 32.076,11.589 C32.076,11.589 34.703,4.287 34.703,4.287 C34.703,4.287 36.584,4.964 36.584,4.964 C36.584,4.964 33.957,12.266 33.957,12.266 Z" id="path-13" class="cls-6" fill-rule="evenodd"/>
    <path d="M41.479,10.984 C41.479,10.984 39.598,10.306 39.598,10.306 C39.598,10.306 42.226,3.005 42.226,3.005 C42.226,3.005 44.107,3.682 44.107,3.682 C44.107,3.682 41.479,10.984 41.479,10.984 Z" id="path-14" class="cls-6" fill-rule="evenodd"/>
    <path d="M49.944,9.544 C49.944,9.544 48.062,8.867 48.062,8.867 C48.062,8.867 50.689,1.564 50.689,1.564 C50.689,1.564 52.571,2.241 52.571,2.241 C52.571,2.241 49.944,9.544 49.944,9.544 Z" id="path-15" class="cls-6" fill-rule="evenodd"/>
    <path d="M52.234,40.276 C52.234,40.276 5.598,40.276 5.598,40.276 C5.598,40.276 5.598,38.276 5.598,38.276 C5.598,38.276 52.234,38.276 52.234,38.276 C52.234,38.276 52.234,40.276 52.234,40.276 Z" id="path-16" class="cls-6" fill-rule="evenodd"/>
    <path d="M52.234,51.185 C52.234,51.185 5.598,51.185 5.598,51.185 C5.598,51.185 5.598,49.185 5.598,49.185 C5.598,49.185 52.234,49.185 52.234,49.185 C52.234,49.185 52.234,51.185 52.234,51.185 Z" id="path-17" class="cls-6" fill-rule="evenodd"/>
  </g>
</svg>
