<svg xmlns="http://www.w3.org/2000/svg" xmlns:xlink="http://www.w3.org/1999/xlink" preserveAspectRatio="xMidYMid" width="60" height="37" viewBox="0 0 60 37">
  <defs>
    <style>

      .cls-3 {
        fill: #2476ff;
      }

      .cls-4 {
        fill: #060606;
        opacity: 0.35;
      }

      .cls-19 {
        fill: #ededed;
      }
    </style>
  </defs>
  <g id="group-195svg">
    <path d="M19.624,9.287 C18.614,8.081 17.296,7.469 15.708,7.469 C13.922,7.469 12.203,8.278 11.470,8.624 C7.060,10.701 4.960,14.107 5.052,19.037 C5.122,22.753 8.591,36.393 14.203,36.394 C14.219,36.394 14.387,36.390 14.403,36.387 C16.506,36.270 18.154,35.275 19.040,33.590 C20.273,31.248 19.911,27.931 18.096,24.933 C15.620,20.846 16.987,19.431 18.310,18.062 C21.301,14.964 21.769,11.847 19.624,9.287 Z" id="path-1" class="cls-3" fill-rule="evenodd"/>
    <path d="M18.310,18.062 C21.301,14.964 21.769,11.847 19.624,9.287 C18.614,8.081 17.296,7.469 15.708,7.469 C15.323,7.469 14.943,7.511 14.574,7.574 C15.700,7.790 16.664,8.358 17.442,9.287 C19.587,11.847 19.119,14.964 16.129,18.062 C14.806,19.431 13.437,20.846 15.914,24.933 C17.729,27.931 18.091,31.248 16.859,33.590 C16.119,34.997 14.843,35.913 13.220,36.250 C13.539,36.343 13.867,36.394 14.203,36.394 C14.219,36.394 14.387,36.390 14.403,36.387 C16.506,36.270 18.154,35.275 19.040,33.590 C20.273,31.248 19.911,27.931 18.096,24.933 C15.620,20.846 16.987,19.431 18.310,18.062 Z" id="path-2" class="cls-4" fill-rule="evenodd"/>
    <circle id="circle-1" class="cls-3" cx="3" cy="12" r="3"/>
    <circle id="circle-2" class="cls-3" cx="5" cy="7" r="3"/>
    <circle id="circle-3" class="cls-3" cx="10" cy="4" r="3"/>
    <circle id="circle-4" class="cls-3" cx="16" cy="3" r="3"/>
    <path d="M23.439,0.015 C21.158,0.015 19.304,1.870 19.304,4.151 C19.304,6.432 21.158,8.286 23.439,8.286 C25.720,8.286 27.574,6.432 27.574,4.151 C27.574,1.870 25.720,0.015 23.439,0.015 Z" id="path-3" class="cls-3" fill-rule="evenodd"/>
    <path d="M41.659,18.062 C42.981,19.431 44.350,20.846 41.873,24.933 C40.058,27.931 39.696,31.248 40.929,33.590 C41.815,35.275 43.463,36.270 45.566,36.387 C45.582,36.390 45.750,36.394 45.767,36.394 C51.378,36.393 54.848,22.753 54.917,19.037 C55.010,14.107 52.909,10.701 48.499,8.624 C47.767,8.278 46.048,7.469 44.261,7.469 C42.673,7.469 41.355,8.081 40.346,9.287 C38.200,11.847 38.669,14.964 41.659,18.062 Z" id="path-4" class="cls-3" fill-rule="evenodd"/>
    <path d="M48.499,8.624 C47.767,8.278 46.048,7.469 44.261,7.469 C43.896,7.469 43.549,7.509 43.213,7.574 C44.559,7.801 45.743,8.352 46.318,8.624 C50.727,10.701 52.828,14.107 52.735,19.037 C52.670,22.531 49.599,34.794 44.568,36.250 C44.889,36.316 45.219,36.368 45.566,36.387 C45.582,36.390 45.750,36.394 45.767,36.394 C51.378,36.393 54.848,22.753 54.917,19.037 C55.010,14.107 52.909,10.701 48.499,8.624 Z" id="path-5" class="cls-4" fill-rule="evenodd"/>
    <path d="M55.022,12.421 C55.022,13.789 56.134,14.902 57.503,14.902 C58.870,14.902 59.985,13.789 59.985,12.421 C59.985,11.053 58.870,9.940 57.503,9.940 C56.134,9.940 55.022,11.053 55.022,12.421 Z" id="path-6" class="cls-3" fill-rule="evenodd"/>
    <path d="M56.995,7.459 C56.995,6.091 55.882,4.977 54.514,4.977 C53.145,4.977 52.032,6.091 52.032,7.459 C52.032,8.827 53.145,9.940 54.514,9.940 C55.882,9.940 56.995,8.827 56.995,7.459 Z" id="path-7" class="cls-3" fill-rule="evenodd"/>
    <path d="M52.221,4.151 C52.221,2.782 51.110,1.670 49.740,1.670 C48.373,1.670 47.259,2.782 47.259,4.151 C47.259,5.519 48.373,6.632 49.740,6.632 C51.110,6.632 52.221,5.519 52.221,4.151 Z" id="path-8" class="cls-3" fill-rule="evenodd"/>
    <path d="M46.568,2.497 C46.568,1.129 45.455,0.015 44.087,0.015 C42.718,0.015 41.605,1.129 41.605,2.497 C41.605,3.865 42.718,4.977 44.087,4.977 C45.455,4.977 46.568,3.865 46.568,2.497 Z" id="path-9" class="cls-3" fill-rule="evenodd"/>
    <path d="M32.395,4.151 C32.395,6.432 34.249,8.286 36.530,8.286 C38.811,8.286 40.665,6.432 40.665,4.151 C40.665,1.870 38.811,0.015 36.530,0.015 C34.249,0.015 32.395,1.870 32.395,4.151 Z" id="path-10" class="cls-3" fill-rule="evenodd"/>
    <path d="M25.765,0.734 C26.217,1.397 26.483,2.198 26.483,3.060 C26.483,5.341 24.629,7.195 22.348,7.195 C21.486,7.195 20.686,6.929 20.023,6.476 C20.768,7.567 22.020,8.286 23.439,8.286 C25.720,8.286 27.574,6.432 27.574,4.151 C27.574,2.732 26.856,1.479 25.765,0.734 Z" id="path-11" class="cls-4" fill-rule="evenodd"/>
    <path d="M38.855,0.734 C39.308,1.397 39.574,2.198 39.574,3.060 C39.574,5.341 37.720,7.195 35.439,7.195 C34.577,7.195 33.777,6.929 33.114,6.476 C33.858,7.567 35.111,8.286 36.530,8.286 C38.811,8.286 40.665,6.432 40.665,4.151 C40.665,2.732 39.947,1.479 38.855,0.734 Z" id="path-12" class="cls-4" fill-rule="evenodd"/>
    <path d="M42.690,15.246 C42.340,15.246 42.002,15.062 41.821,14.734 C41.745,14.596 41.088,13.343 41.592,11.978 C41.943,11.027 42.738,10.314 43.954,9.859 C44.471,9.665 45.047,9.927 45.241,10.445 C45.435,10.962 45.172,11.539 44.655,11.732 C44.014,11.972 43.616,12.285 43.472,12.660 C43.272,13.183 43.574,13.770 43.577,13.776 C43.830,14.262 43.649,14.867 43.166,15.125 C43.015,15.207 42.851,15.246 42.690,15.246 Z" id="path-13" class="cls-19" fill-rule="evenodd"/>
    <path d="M7.749,17.627 C7.700,17.627 7.650,17.624 7.600,17.617 C7.056,17.535 6.679,17.029 6.759,16.485 C6.783,16.317 7.399,12.352 10.829,11.068 C11.345,10.874 11.922,11.136 12.116,11.654 C12.310,12.172 12.047,12.748 11.530,12.941 C9.218,13.806 8.742,16.748 8.737,16.777 C8.661,17.272 8.235,17.627 7.749,17.627 Z" id="path-14" class="cls-19" fill-rule="evenodd"/>
  </g>
</svg>
