<svg xmlns="http://www.w3.org/2000/svg" xmlns:xlink="http://www.w3.org/1999/xlink" preserveAspectRatio="xMidYMid" width="43" height="60" viewBox="0 0 43 60">
  <defs>
    <style>

      .cls-3 {
        fill: #142a3b;
      }

      .cls-9 {
        fill: #ff3a2f;
      }

      .cls-10 {
        fill: #fbb713;
      }
    </style>
  </defs>
  <g id="group-295svg">
    <path d="M6.009,55.298 C5.457,55.298 5.009,54.850 5.009,54.298 C5.009,54.298 5.009,37.173 5.009,37.173 C5.009,36.621 5.457,36.173 6.009,36.173 C6.561,36.173 7.009,36.621 7.009,37.173 C7.009,37.173 7.009,54.298 7.009,54.298 C7.009,54.850 6.561,55.298 6.009,55.298 Z" id="path-1" class="cls-3" fill-rule="evenodd"/>
    <path d="M6.009,23.902 C5.457,23.902 5.009,23.454 5.009,22.902 C5.009,22.902 5.009,5.777 5.009,5.777 C5.009,5.224 5.457,4.777 6.009,4.777 C6.561,4.777 7.009,5.224 7.009,5.777 C7.009,5.777 7.009,22.902 7.009,22.902 C7.009,23.454 6.561,23.902 6.009,23.902 Z" id="path-2" class="cls-3" fill-rule="evenodd"/>
    <circle id="circle-1" class="cls-3" cx="6" cy="5" r="5"/>
    <path d="M6.009,59.945 C3.648,59.945 1.727,58.025 1.727,55.664 C1.727,53.304 3.648,51.383 6.009,51.383 C8.370,51.383 10.290,53.304 10.290,55.664 C10.290,58.025 8.370,59.945 6.009,59.945 Z" id="path-3" class="cls-3" fill-rule="evenodd"/>
    <path d="M6.734,24.967 C6.650,24.967 6.564,24.956 6.478,24.933 C5.944,24.793 5.625,24.246 5.767,23.712 C8.625,12.866 18.464,5.292 29.693,5.292 C30.245,5.292 30.693,5.740 30.693,6.292 C30.693,6.844 30.245,7.292 29.693,7.292 C19.372,7.292 10.328,14.254 7.700,24.221 C7.582,24.670 7.177,24.967 6.734,24.967 Z" id="path-4" class="cls-3" fill-rule="evenodd"/>
    <path d="M29.693,54.782 C18.461,54.782 8.620,47.203 5.761,36.352 C5.620,35.818 5.939,35.271 6.473,35.130 C7.010,34.988 7.555,35.308 7.695,35.842 C10.323,45.816 19.369,52.783 29.693,52.783 C30.245,52.783 30.693,53.230 30.693,53.783 C30.693,54.335 30.245,54.782 29.693,54.782 Z" id="path-5" class="cls-3" fill-rule="evenodd"/>
    <path d="M12.830,37.173 C12.830,37.173 1.413,37.173 1.413,37.173 C0.624,37.173 -0.015,36.535 -0.015,35.746 C-0.015,35.746 -0.015,24.329 -0.015,24.329 C-0.015,23.540 0.624,22.902 1.413,22.902 C1.413,22.902 12.830,22.902 12.830,22.902 C13.618,22.902 14.256,23.540 14.256,24.329 C14.256,24.329 14.256,35.746 14.256,35.746 C14.256,36.535 13.618,37.173 12.830,37.173 Z" id="path-6" class="cls-9" fill-rule="evenodd"/>
    <path d="M41.372,14.339 C41.372,14.339 29.955,14.339 29.955,14.339 C29.166,14.339 28.527,13.701 28.527,12.912 C28.527,12.912 28.527,1.495 28.527,1.495 C28.527,0.707 29.166,0.068 29.955,0.068 C29.955,0.068 41.372,0.068 41.372,0.068 C42.161,0.068 42.799,0.707 42.799,1.495 C42.799,1.495 42.799,12.912 42.799,12.912 C42.799,13.701 42.161,14.339 41.372,14.339 Z" id="path-7" class="cls-10" fill-rule="evenodd"/>
    <path d="M41.372,60.007 C41.372,60.007 29.955,60.007 29.955,60.007 C29.166,60.007 28.527,59.368 28.527,58.579 C28.527,58.579 28.527,47.163 28.527,47.163 C28.527,46.374 29.166,45.736 29.955,45.736 C29.955,45.736 41.372,45.736 41.372,45.736 C42.161,45.736 42.799,46.374 42.799,47.163 C42.799,47.163 42.799,58.579 42.799,58.579 C42.799,59.368 42.161,60.007 41.372,60.007 Z" id="path-8" class="cls-10" fill-rule="evenodd"/>
  </g>
</svg>
