<svg xmlns="http://www.w3.org/2000/svg" xmlns:xlink="http://www.w3.org/1999/xlink" preserveAspectRatio="xMidYMid" width="60" height="59" viewBox="0 0 60 59">
  <defs>
    <style>

      .cls-3 {
        fill: #fbb713;
      }

      .cls-4 {
        fill: #020403;
        opacity: 0.35;
      }

      .cls-7 {
        fill: #ffffff;
      }

      .cls-8 {
        fill: #020403;
        opacity: 0.25;
      }

      .cls-9 {
        fill: #ff3a2f;
      }

      .cls-15 {
        fill: #142a3b;
      }
    </style>
  </defs>
  <g id="group-38svg">
    <path d="M16.716,40.879 C16.716,40.879 1.618,34.268 16.716,9.626 C16.716,9.626 18.144,19.242 21.072,21.646 C21.072,21.646 25.510,9.626 31.066,9.626 C31.066,9.626 34.950,10.828 31.579,0.009 C31.579,0.009 36.053,2.413 37.840,11.429 C37.840,11.429 39.058,14.434 37.840,20.444 C37.840,20.444 45.829,16.838 45.733,6.621 C45.733,6.621 59.655,24.652 45.734,40.879 C36.670,46.820 27.006,46.907 16.716,40.879 Z" id="path-1" class="cls-3" fill-rule="evenodd"/>
    <path d="M31.923,9.547 C32.522,10.962 33.070,12.653 33.477,14.702 C33.477,14.702 34.694,17.706 33.477,23.717 C33.477,23.717 35.782,22.661 37.901,20.113 C39.007,14.328 37.840,11.429 37.840,11.429 C36.053,2.413 31.579,0.009 31.579,0.009 C33.847,7.288 32.831,9.123 31.923,9.547 Z" id="path-2" class="cls-4" fill-rule="evenodd"/>
    <path d="M16.708,24.919 C16.708,24.919 17.731,22.154 19.407,19.276 C17.604,15.567 16.716,9.625 16.716,9.625 C15.205,12.093 14.008,14.370 13.057,16.487 C13.750,19.483 14.960,23.483 16.708,24.919 Z" id="path-3" class="cls-4" fill-rule="evenodd"/>
    <path d="M45.733,6.621 C45.763,9.753 45.029,12.258 44.002,14.234 C47.083,20.293 50.785,31.777 42.520,42.719 C43.600,42.184 44.671,41.576 45.734,40.879 C59.655,24.652 45.733,6.621 45.733,6.621 Z" id="path-4" class="cls-4" fill-rule="evenodd"/>
    <path d="M17.412,39.294 C17.189,39.294 16.964,39.220 16.778,39.067 C13.643,36.493 12.219,27.444 12.067,26.421 C11.986,25.874 12.363,25.366 12.909,25.285 C13.451,25.203 13.963,25.580 14.045,26.126 C14.428,28.696 15.892,35.752 18.047,37.521 C18.474,37.872 18.536,38.502 18.185,38.929 C17.988,39.169 17.701,39.294 17.412,39.294 Z" id="path-5" class="cls-7" fill-rule="evenodd"/>
    <path d="M22.865,43.945 C22.865,43.945 14.333,40.209 22.865,26.286 C22.865,26.286 23.671,31.720 25.326,33.077 C25.326,33.077 27.833,26.286 30.973,26.286 C30.973,26.286 33.167,26.964 31.263,20.852 C31.263,20.852 33.791,22.210 34.801,27.304 C34.801,27.304 35.489,29.002 34.801,32.399 C34.801,32.399 39.315,30.361 39.261,24.588 C39.261,24.588 47.127,34.776 39.261,43.945 C34.140,47.302 28.679,47.352 22.865,43.945 Z" id="path-6" class="cls-8" fill-rule="evenodd"/>
    <path d="M23.823,43.511 C23.823,43.511 17.464,40.725 23.823,30.346 C23.823,30.346 24.425,34.397 25.658,35.409 C25.658,35.409 27.527,30.346 29.868,30.346 C29.868,30.346 31.503,30.853 30.083,26.296 C30.083,26.296 31.968,27.309 32.721,31.106 C32.721,31.106 33.233,32.371 32.721,34.903 C32.721,34.903 36.085,33.384 36.045,29.080 C36.045,29.080 41.909,36.675 36.045,43.511 C32.228,46.012 28.157,46.049 23.823,43.511 Z" id="path-7" class="cls-9" fill-rule="evenodd"/>
    <path d="M30.022,30.362 C30.221,30.885 30.399,31.493 30.539,32.197 C30.539,32.197 31.052,33.463 30.539,35.994 C30.539,35.994 31.905,35.372 32.886,33.809 C33.077,32.014 32.721,31.106 32.721,31.106 C31.968,27.308 30.083,26.296 30.083,26.296 C31.224,29.957 30.394,30.349 30.022,30.362 Z" id="path-8" class="cls-4" fill-rule="evenodd"/>
    <path d="M36.045,29.080 C36.059,30.506 35.695,31.621 35.207,32.482 C36.496,35.254 37.732,40.092 33.864,44.601 C33.808,44.638 33.750,44.662 33.694,44.698 C34.487,44.395 35.273,44.017 36.045,43.511 C41.909,36.675 36.045,29.080 36.045,29.080 Z" id="path-9" class="cls-4" fill-rule="evenodd"/>
    <path d="M23.476,36.500 C23.476,36.500 23.958,35.198 24.738,33.914 C24.125,32.370 23.823,30.346 23.823,30.346 C23.091,31.542 22.533,32.633 22.109,33.635 C22.414,34.762 22.868,36.000 23.476,36.500 Z" id="path-10" class="cls-4" fill-rule="evenodd"/>
    <path d="M24.913,43.426 C24.847,43.426 24.779,43.412 24.713,43.384 C24.669,43.364 20.338,41.387 21.949,35.137 C22.019,34.870 22.293,34.709 22.559,34.778 C22.826,34.847 22.987,35.119 22.918,35.387 C21.525,40.786 24.969,42.402 25.117,42.469 C25.368,42.581 25.481,42.876 25.370,43.128 C25.287,43.314 25.105,43.426 24.913,43.426 Z" id="path-11" class="cls-7" fill-rule="evenodd"/>
    <path d="M26.749,37.506 C26.691,37.506 26.633,37.496 26.576,37.475 C26.317,37.380 26.185,37.093 26.280,36.833 C26.483,36.282 28.345,31.443 30.958,31.443 C31.235,31.443 31.458,31.668 31.458,31.943 C31.458,32.220 31.235,32.443 30.958,32.443 C29.335,32.443 27.672,35.951 27.218,37.180 C27.144,37.382 26.952,37.506 26.749,37.506 Z" id="path-12" class="cls-7" fill-rule="evenodd"/>
    <path d="M1.542,58.569 C1.542,58.569 60.011,44.647 60.011,44.647 C60.011,44.647 58.479,38.216 58.479,38.216 C58.479,38.216 0.011,52.137 0.011,52.137 C0.011,52.137 1.542,58.569 1.542,58.569 Z" id="path-13" class="cls-15" fill-rule="evenodd"/>
    <path d="M39.816,49.768 C39.816,49.768 44.504,48.651 44.504,48.651 C44.504,48.651 45.046,46.986 45.046,46.986 C45.046,46.986 35.709,43.949 35.709,43.949 C35.709,43.949 27.755,45.843 27.755,45.843 C27.755,45.843 39.816,49.768 39.816,49.768 Z" id="path-14" class="cls-4" fill-rule="evenodd"/>
    <path d="M25.115,52.748 C25.115,52.748 32.744,50.932 32.744,50.932 C32.744,50.932 32.937,50.337 32.937,50.337 C32.937,50.337 22.220,46.849 22.220,46.849 C22.220,46.849 13.423,48.943 13.423,48.943 C13.423,48.943 25.115,52.748 25.115,52.748 Z" id="path-15" class="cls-4" fill-rule="evenodd"/>
    <path d="M58.479,58.569 C58.479,58.569 0.011,44.647 0.011,44.647 C0.011,44.647 1.542,38.216 1.542,38.216 C1.542,38.216 60.011,52.137 60.011,52.137 C60.011,52.137 58.479,58.569 58.479,58.569 Z" id="path-16" class="cls-15" fill-rule="evenodd"/>
  </g>
</svg>
