<svg xmlns="http://www.w3.org/2000/svg" xmlns:xlink="http://www.w3.org/1999/xlink" preserveAspectRatio="xMidYMid" width="60" height="44" viewBox="0 0 60 44">
  <defs>
    <style>

      .cls-3 {
        fill: #142a3b;
      }

      .cls-4 {
        fill: #000000;
        opacity: 0.35;
      }

      .cls-5 {
        fill: #ff3a2f;
      }

      .cls-9 {
        fill: #fbb713;
      }

      .cls-10 {
        fill: #000000;
        opacity: 0.25;
      }

      .cls-11 {
        fill: #ededed;
      }
    </style>
  </defs>
  <g id="group-309svg">
    <path d="M11.657,38.094 C11.657,38.094 7.752,38.094 7.752,38.094 C6.559,38.094 5.526,37.265 5.267,36.100 C5.267,36.100 0.018,12.480 0.018,12.480 C-0.070,12.077 0.026,11.655 0.287,11.330 C0.545,11.009 0.936,10.821 1.350,10.821 C1.350,10.821 58.623,10.821 58.623,10.821 C59.036,10.821 59.427,11.009 59.685,11.330 C59.946,11.655 60.042,12.077 59.954,12.480 C59.954,12.480 54.705,36.101 54.705,36.101 C54.447,37.265 53.414,38.094 52.221,38.094 C52.221,38.094 49.839,38.094 49.839,38.094 C49.839,38.094 49.839,38.094 49.839,38.094 " id="path-1" class="cls-3" fill-rule="evenodd"/>
    <path d="M59.685,11.330 C59.427,11.009 59.036,10.821 58.623,10.821 C58.623,10.821 53.040,10.821 53.040,10.821 C52.409,10.821 51.862,11.260 51.725,11.877 C51.725,11.877 47.207,32.207 47.207,32.207 C46.931,33.447 45.831,34.330 44.560,34.330 C44.560,34.330 42.312,34.330 42.312,34.330 C42.312,34.330 6.554,34.330 6.554,34.330 C5.691,34.330 5.051,35.129 5.238,35.971 C5.238,35.971 5.238,35.971 5.238,35.971 C5.514,37.211 6.614,38.094 7.885,38.094 C7.885,38.094 11.657,38.094 11.657,38.094 C11.657,38.094 49.839,38.094 49.839,38.094 C49.839,38.094 52.087,38.094 52.087,38.094 C53.358,38.094 54.458,37.211 54.734,35.971 C54.734,35.971 59.954,12.480 59.954,12.480 C60.042,12.077 59.946,11.655 59.685,11.330 Z" id="path-2" class="cls-4" fill-rule="evenodd"/>
    <circle id="circle-1" class="cls-5" cx="16" cy="37" r="6"/>
    <circle id="circle-2" class="cls-5" cx="44" cy="37" r="6"/>
    <path d="M17.407,31.383 C18.554,32.384 19.295,33.838 19.295,35.476 C19.295,38.483 16.847,40.930 13.841,40.930 C13.478,40.930 13.126,40.891 12.783,40.824 C13.743,41.660 14.980,42.185 16.350,42.185 C19.356,42.185 21.804,39.737 21.804,36.730 C21.804,34.085 19.910,31.877 17.407,31.383 Z" id="path-3" class="cls-4" fill-rule="evenodd"/>
    <path d="M44.680,31.383 C45.827,32.384 46.568,33.838 46.568,35.476 C46.568,38.483 44.120,40.930 41.113,40.930 C40.751,40.930 40.399,40.891 40.057,40.824 C41.015,41.660 42.253,42.185 43.622,42.185 C46.629,42.185 49.077,39.737 49.077,36.730 C49.077,34.085 47.183,31.877 44.680,31.383 Z" id="path-4" class="cls-4" fill-rule="evenodd"/>
    <path d="M8.004,9.091 C8.004,9.091 29.253,0.124 29.253,0.124 C29.708,-0.068 30.264,-0.068 30.719,0.124 C30.719,0.124 51.968,9.091 51.968,9.091 C53.317,9.661 52.781,11.211 51.235,11.211 C51.235,11.211 8.737,11.211 8.737,11.211 C7.191,11.211 6.655,9.661 8.004,9.091 Z" id="path-5" class="cls-9" fill-rule="evenodd"/>
    <path d="M51.968,9.091 C51.968,9.091 30.719,0.124 30.719,0.124 C30.264,-0.068 29.708,-0.068 29.253,0.124 C29.253,0.124 27.477,0.874 27.477,0.874 C27.477,0.874 46.950,9.091 46.950,9.091 C48.299,9.661 47.763,11.211 46.217,11.211 C46.217,11.211 51.235,11.211 51.235,11.211 C52.781,11.211 53.317,9.661 51.968,9.091 Z" id="path-6" class="cls-10" fill-rule="evenodd"/>
    <path d="M15.076,9.658 C14.684,9.658 14.312,9.426 14.152,9.042 C13.940,8.532 14.181,7.947 14.690,7.734 C14.690,7.734 27.092,2.567 27.092,2.567 C27.605,2.353 28.188,2.597 28.400,3.105 C28.612,3.615 28.372,4.200 27.862,4.413 C27.862,4.413 15.460,9.580 15.460,9.580 C15.334,9.633 15.204,9.658 15.076,9.658 Z" id="path-7" class="cls-11" fill-rule="evenodd"/>
  </g>
</svg>
