<svg xmlns="http://www.w3.org/2000/svg" xmlns:xlink="http://www.w3.org/1999/xlink" preserveAspectRatio="xMidYMid" width="27" height="61" viewBox="0 0 27 61">
  <defs>
    <style>

      .cls-3 {
        fill: #ff3a2f;
      }

      .cls-4 {
        fill: #ffffff;
      }

      .cls-5 {
        fill: #020403;
        opacity: 0.35;
      }

      .cls-6 {
        fill: #fbb713;
      }

      .cls-8 {
        fill: #020403;
        opacity: 0.25;
      }

      .cls-9 {
        fill: #020403;
      }
    </style>
  </defs>
  <g id="group-59svg">
    <path d="M25.152,25.387 C24.931,25.277 24.703,25.203 24.472,25.155 C24.694,24.776 24.908,24.388 25.109,23.981 C25.812,22.562 25.232,20.841 23.812,20.138 C23.725,20.095 23.638,20.057 23.548,20.023 C23.643,19.861 23.742,19.706 23.832,19.539 C24.588,18.146 24.073,16.404 22.681,15.648 C22.491,15.545 22.296,15.468 22.097,15.412 C22.196,15.272 22.296,15.140 22.394,14.994 C23.269,13.674 22.908,11.893 21.588,11.018 C21.264,10.802 20.911,10.663 20.551,10.593 C20.667,10.354 20.781,10.108 20.889,9.850 C21.503,8.392 20.821,6.713 19.366,6.096 C18.977,5.701 18.478,5.406 17.900,5.269 C17.900,5.269 16.415,4.918 16.415,4.918 C16.415,4.918 16.373,4.908 16.301,4.896 C16.230,4.884 16.128,4.866 15.998,4.843 C15.874,4.822 15.729,4.794 15.574,4.764 C15.420,4.733 15.255,4.696 15.096,4.651 C14.939,4.609 14.522,4.317 14.450,4.008 C14.436,3.915 14.429,3.823 14.427,3.727 C14.423,3.350 14.524,2.953 14.703,2.631 C14.878,2.304 15.118,2.046 15.357,1.855 C15.596,1.663 15.835,1.536 16.036,1.459 C16.238,1.379 16.404,1.345 16.515,1.333 C16.626,1.319 16.680,1.326 16.675,1.325 C16.874,1.347 17.052,1.203 17.075,1.004 C17.097,0.805 16.232,0.509 15.987,0.451 C15.742,0.394 15.438,0.320 15.063,0.237 C14.695,0.159 14.260,0.077 13.732,0.024 C13.722,0.022 13.713,0.021 13.702,0.020 C13.165,-0.027 12.517,-0.046 11.800,0.093 C11.622,0.127 11.437,0.170 11.252,0.225 C11.065,0.277 10.882,0.346 10.693,0.421 C10.511,0.502 10.323,0.591 10.144,0.693 C10.054,0.744 9.963,0.798 9.877,0.856 C9.788,0.913 9.703,0.975 9.619,1.037 C8.936,1.543 8.394,2.240 8.043,2.976 C8.043,2.976 7.978,3.115 7.978,3.115 C7.978,3.115 7.974,3.125 7.974,3.125 C7.977,3.114 7.933,3.249 7.950,3.194 C7.950,3.194 7.945,3.206 7.945,3.206 C7.945,3.206 7.934,3.227 7.934,3.227 C7.934,3.227 7.914,3.270 7.914,3.270 C7.914,3.270 7.872,3.356 7.872,3.356 C7.872,3.356 7.802,3.549 7.802,3.549 C7.802,3.549 7.736,3.744 7.736,3.744 C7.736,3.744 7.682,3.912 7.682,3.912 C7.645,4.024 7.614,4.145 7.584,4.264 C7.464,4.744 7.383,5.285 7.387,5.872 C7.383,6.456 7.477,7.094 7.672,7.719 C7.871,8.342 8.175,8.949 8.556,9.470 C8.671,9.629 8.794,9.779 8.920,9.923 C8.466,9.627 7.928,9.448 7.345,9.448 C5.745,9.448 4.448,10.745 4.448,12.345 C4.448,13.255 4.870,14.063 5.526,14.595 C4.134,14.806 3.066,16.004 3.066,17.454 C3.066,18.403 3.522,19.244 4.227,19.772 C2.779,19.933 1.654,21.159 1.654,22.650 C1.654,23.463 1.996,24.193 2.536,24.719 C1.112,24.902 0.010,26.116 0.010,27.590 C0.010,28.674 0.606,29.614 1.487,30.112 C1.154,31.175 1.814,32.053 2.946,32.767 C2.946,32.767 13.732,32.767 13.732,32.767 C13.732,32.767 24.519,32.767 24.519,32.767 C24.519,32.789 24.517,32.810 24.517,32.832 C25.243,32.025 25.891,31.072 26.456,29.931 C27.161,28.512 26.572,26.091 25.152,25.387 Z" id="path-1" class="cls-3" fill-rule="evenodd"/>
    <path d="M4.758,31.112 C4.592,31.112 4.423,31.071 4.268,30.983 C3.043,30.291 2.283,28.991 2.283,27.590 C2.283,26.157 3.069,24.882 4.253,24.206 C4.039,23.721 3.927,23.194 3.927,22.650 C3.927,21.243 4.672,19.998 5.807,19.313 C5.502,18.753 5.338,18.118 5.338,17.454 C5.338,16.065 6.053,14.840 7.164,14.150 C6.876,13.600 6.721,12.984 6.721,12.345 C6.721,11.793 7.168,11.345 7.721,11.345 C8.273,11.345 8.721,11.793 8.721,12.345 C8.721,12.916 8.979,13.453 9.428,13.817 C9.428,13.817 11.189,15.243 11.189,15.243 C11.189,15.243 8.949,15.583 8.949,15.583 C8.031,15.722 7.338,16.526 7.338,17.454 C7.338,18.056 7.616,18.609 8.100,18.972 C8.100,18.972 10.119,20.487 10.119,20.487 C10.119,20.487 7.610,20.766 7.610,20.766 C6.650,20.873 5.927,21.683 5.927,22.650 C5.927,23.159 6.132,23.640 6.506,24.003 C6.506,24.003 7.991,25.448 7.991,25.448 C7.991,25.448 5.935,25.712 5.935,25.712 C4.993,25.832 4.283,26.640 4.283,27.590 C4.283,28.271 4.654,28.904 5.251,29.241 C5.732,29.513 5.901,30.123 5.630,30.604 C5.446,30.929 5.107,31.112 4.758,31.112 Z" id="path-2" class="cls-4" fill-rule="evenodd"/>
    <path d="M25.152,25.387 C24.931,25.277 24.703,25.203 24.472,25.154 C24.694,24.776 24.908,24.388 25.109,23.981 C25.812,22.562 25.232,20.841 23.812,20.138 C23.725,20.094 23.638,20.057 23.548,20.023 C23.643,19.861 23.742,19.706 23.832,19.539 C24.588,18.146 24.073,16.404 22.681,15.648 C22.491,15.545 22.296,15.468 22.097,15.411 C22.196,15.271 22.296,15.140 22.394,14.994 C23.269,13.674 22.908,11.893 21.588,11.018 C21.264,10.802 20.911,10.663 20.551,10.593 C20.667,10.355 20.781,10.108 20.889,9.850 C21.503,8.392 20.821,6.713 19.366,6.096 C18.977,5.701 18.478,5.406 17.900,5.269 C17.900,5.269 16.415,4.918 16.415,4.918 C16.415,4.918 16.373,4.908 16.301,4.896 C16.230,4.884 16.128,4.866 15.998,4.843 C15.874,4.822 15.729,4.795 15.574,4.764 C15.420,4.733 15.255,4.696 15.096,4.651 C14.939,4.609 14.522,4.317 14.450,4.008 C14.436,3.915 14.429,3.823 14.427,3.727 C14.423,3.350 14.524,2.953 14.703,2.631 C14.878,2.304 15.118,2.046 15.357,1.855 C15.596,1.663 15.835,1.536 16.036,1.459 C16.238,1.379 16.404,1.345 16.515,1.332 C16.626,1.319 16.680,1.326 16.675,1.325 C16.874,1.347 17.052,1.203 17.075,1.004 C17.097,0.805 16.232,0.509 15.987,0.451 C15.742,0.394 15.438,0.320 15.063,0.237 C14.695,0.159 14.260,0.077 13.732,0.024 C13.722,0.022 13.713,0.021 13.702,0.020 C13.165,-0.027 12.517,-0.046 11.800,0.093 C11.622,0.127 11.437,0.170 11.252,0.225 C11.065,0.277 10.882,0.346 10.693,0.421 C10.511,0.502 10.323,0.591 10.144,0.693 C10.054,0.744 9.963,0.798 9.877,0.856 C9.788,0.913 9.703,0.975 9.619,1.037 C9.194,1.352 8.831,1.746 8.528,2.171 C8.817,2.169 9.092,2.180 9.339,2.202 C9.349,2.203 9.358,2.204 9.369,2.205 C9.896,2.260 10.332,2.341 10.700,2.420 C11.074,2.501 11.378,2.576 11.623,2.632 C11.868,2.691 12.733,2.987 12.711,3.186 C12.689,3.385 12.510,3.529 12.311,3.507 C12.316,3.508 12.262,3.501 12.151,3.514 C12.040,3.527 11.875,3.560 11.672,3.640 C11.471,3.718 11.232,3.844 10.994,4.037 C10.755,4.228 10.515,4.485 10.339,4.812 C10.161,5.134 10.060,5.532 10.063,5.908 C10.065,6.004 10.072,6.098 10.086,6.190 C10.158,6.499 10.575,6.790 10.733,6.833 C10.891,6.877 11.056,6.915 11.211,6.946 C11.365,6.976 11.510,7.004 11.635,7.025 C11.765,7.048 11.867,7.065 11.937,7.078 C12.009,7.090 12.052,7.100 12.052,7.100 C12.052,7.100 13.537,7.451 13.537,7.451 C14.115,7.588 14.613,7.883 15.002,8.278 C16.457,8.895 17.140,10.574 16.526,12.032 C16.417,12.290 16.304,12.537 16.187,12.774 C16.548,12.845 16.900,12.984 17.225,13.200 C18.544,14.075 18.905,15.856 18.030,17.175 C17.933,17.322 17.832,17.453 17.733,17.593 C17.933,17.649 18.127,17.727 18.317,17.829 C19.709,18.585 20.225,20.328 19.469,21.721 C19.378,21.887 19.279,22.043 19.185,22.204 C19.274,22.238 19.361,22.276 19.449,22.320 C20.868,23.022 21.449,24.743 20.746,26.163 C20.544,26.570 20.331,26.958 20.108,27.336 C20.339,27.385 20.567,27.459 20.788,27.568 C22.209,28.273 22.797,30.693 22.093,32.113 C21.980,32.340 21.862,32.555 21.743,32.767 C21.743,32.767 24.519,32.767 24.519,32.767 C24.519,32.789 24.517,32.810 24.517,32.832 C25.243,32.025 25.891,31.072 26.456,29.931 C27.161,28.511 26.572,26.091 25.152,25.387 Z" id="path-3" class="cls-5" fill-rule="evenodd"/>
    <path d="M13.732,32.767 C13.732,32.767 2.946,32.767 2.946,32.767 C2.946,36.272 3.805,39.324 7.171,40.916 C7.171,40.916 8.807,56.485 8.807,56.485 C8.807,56.485 8.854,56.485 8.854,56.485 C8.854,58.418 11.038,59.985 13.732,59.985 C16.426,59.985 18.610,58.418 18.610,56.485 C18.610,56.485 18.657,56.485 18.657,56.485 C18.657,56.485 20.309,40.763 20.309,40.763 C23.405,39.143 24.503,36.200 24.517,32.832 C24.517,32.810 24.519,32.789 24.519,32.767 C24.519,32.767 13.732,32.767 13.732,32.767 Z" id="path-4" class="cls-6" fill-rule="evenodd"/>
    <path d="M12.127,57.485 C12.127,57.485 11.244,57.485 11.244,57.485 C11.244,57.485 11.088,56.609 11.088,56.609 C11.088,56.609 9.051,40.154 9.051,40.154 C6.249,39.344 5.041,37.475 5.041,34.032 C5.041,33.479 5.489,33.032 6.041,33.032 C6.593,33.032 7.041,33.479 7.041,34.032 C7.041,37.144 8.093,37.935 10.165,38.371 C10.165,38.371 10.864,38.518 10.864,38.518 C10.864,38.518 13.048,56.162 13.048,56.162 C13.084,56.263 13.104,56.372 13.104,56.485 C13.104,57.038 12.680,57.485 12.127,57.485 Z" id="path-5" class="cls-4" fill-rule="evenodd"/>
    <path d="M21.246,32.767 C21.246,32.789 21.245,32.810 21.245,32.832 C21.230,36.200 20.132,39.143 17.036,40.763 C17.036,40.763 15.384,56.485 15.384,56.485 C15.384,56.485 15.337,56.485 15.337,56.485 C15.337,58.005 13.980,59.284 12.096,59.769 C12.609,59.900 13.155,59.985 13.732,59.985 C16.426,59.985 18.610,58.418 18.610,56.485 C18.610,56.485 18.657,56.485 18.657,56.485 C18.657,56.485 20.309,40.763 20.309,40.763 C23.405,39.143 24.503,36.200 24.517,32.832 C24.517,32.810 24.519,32.789 24.519,32.767 C24.519,32.767 21.246,32.767 21.246,32.767 Z" id="path-6" class="cls-8" fill-rule="evenodd"/>
    <path d="M4.481,12.012 C4.479,12.028 4.478,12.044 4.477,12.060 C4.503,12.076 4.531,12.088 4.557,12.105 C4.531,12.075 4.507,12.042 4.481,12.012 Z" id="path-7" class="cls-9" fill-rule="evenodd"/>
  </g>
</svg>
