<svg xmlns="http://www.w3.org/2000/svg" xmlns:xlink="http://www.w3.org/1999/xlink" preserveAspectRatio="xMidYMid" width="61" height="45" viewBox="0 0 61 45">
  <defs>
    <style>

      .cls-3 {
        fill: #fbb713;
      }

      .cls-4 {
        fill: #ff3a2f;
      }

      .cls-6 {
        fill: #020403;
        opacity: 0.25;
      }
    </style>
  </defs>
  <g id="group-52svg">
    <path d="M59.985,20.263 C55.322,8.367 43.767,-0.012 30.242,-0.012 C16.716,-0.012 5.161,8.367 0.499,20.263 C0.499,20.263 59.985,20.263 59.985,20.263 Z" id="path-1" class="cls-3" fill-rule="evenodd"/>
    <path d="M56.971,28.592 C56.971,28.592 2.485,28.592 2.485,28.592 C1.104,28.592 -0.015,27.473 -0.015,26.092 C-0.015,26.092 -0.015,25.143 -0.015,25.143 C-0.015,23.762 1.104,22.643 2.485,22.643 C2.485,22.643 56.971,22.643 56.971,22.643 C58.352,22.643 59.471,23.762 59.471,25.143 C59.471,25.143 59.471,26.092 59.471,26.092 C59.471,27.473 58.352,28.592 56.971,28.592 Z" id="path-2" class="cls-4" fill-rule="evenodd"/>
    <path d="M50.942,44.058 C50.942,44.058 9.541,44.058 9.541,44.058 C5.810,44.058 2.576,41.396 1.750,37.757 C1.750,37.757 0.499,32.161 0.499,32.161 C0.499,32.161 59.985,32.161 59.985,32.161 C59.985,32.161 58.733,37.757 58.733,37.757 C57.908,41.396 54.673,44.058 50.942,44.058 Z" id="path-3" class="cls-3" fill-rule="evenodd"/>
    <path d="M24.293,1.178 C37.359,1.178 48.567,9.007 53.518,20.263 C53.518,20.263 59.985,20.263 59.985,20.263 C55.322,8.367 43.767,-0.012 30.242,-0.012 C27.006,-0.012 23.889,0.480 20.946,1.372 C22.048,1.257 23.161,1.178 24.293,1.178 Z" id="path-4" class="cls-6" fill-rule="evenodd"/>
    <path d="M51.657,32.161 C51.657,32.161 50.405,37.757 50.405,37.757 C49.580,41.396 46.345,44.058 42.614,44.058 C42.614,44.058 50.942,44.058 50.942,44.058 C54.673,44.058 57.908,41.396 58.733,37.757 C58.733,37.757 59.985,32.161 59.985,32.161 C59.985,32.161 51.657,32.161 51.657,32.161 Z" id="path-5" class="cls-6" fill-rule="evenodd"/>
    <path d="M16.046,14.125 C16.046,14.125 14.856,14.125 14.856,14.125 C14.304,14.125 13.856,13.678 13.856,13.125 C13.856,12.573 14.304,12.125 14.856,12.125 C14.856,12.125 16.046,12.125 16.046,12.125 C16.598,12.125 17.046,12.573 17.046,13.125 C17.046,13.678 16.598,14.125 16.046,14.125 Z" id="path-6" class="cls-4" fill-rule="evenodd"/>
    <path d="M31.512,14.125 C31.512,14.125 30.323,14.125 30.323,14.125 C29.770,14.125 29.323,13.678 29.323,13.125 C29.323,12.573 29.770,12.125 30.323,12.125 C30.323,12.125 31.512,12.125 31.512,12.125 C32.064,12.125 32.512,12.573 32.512,13.125 C32.512,13.678 32.064,14.125 31.512,14.125 Z" id="path-7" class="cls-4" fill-rule="evenodd"/>
    <path d="M45.789,14.125 C45.789,14.125 44.599,14.125 44.599,14.125 C44.047,14.125 43.599,13.678 43.599,13.125 C43.599,12.573 44.047,12.125 44.599,12.125 C44.599,12.125 45.789,12.125 45.789,12.125 C46.341,12.125 46.789,12.573 46.789,13.125 C46.789,13.678 46.341,14.125 45.789,14.125 Z" id="path-8" class="cls-4" fill-rule="evenodd"/>
    <path d="M38.650,9.367 C38.650,9.367 37.461,9.367 37.461,9.367 C36.909,9.367 36.461,8.918 36.461,8.367 C36.461,7.814 36.909,7.366 37.461,7.366 C37.461,7.366 38.650,7.366 38.650,7.366 C39.203,7.366 39.650,7.814 39.650,8.367 C39.650,8.918 39.203,9.367 38.650,9.367 Z" id="path-9" class="cls-4" fill-rule="evenodd"/>
    <path d="M24.374,8.176 C24.374,8.176 23.184,8.176 23.184,8.176 C22.632,8.176 22.184,7.729 22.184,7.176 C22.184,6.624 22.632,6.176 23.184,6.176 C23.184,6.176 24.374,6.176 24.374,6.176 C24.926,6.176 25.374,6.624 25.374,7.176 C25.374,7.729 24.926,8.176 24.374,8.176 Z" id="path-10" class="cls-4" fill-rule="evenodd"/>
  </g>
</svg>
