<svg xmlns="http://www.w3.org/2000/svg" xmlns:xlink="http://www.w3.org/1999/xlink" preserveAspectRatio="xMidYMid" width="57" height="61" viewBox="0 0 57 61">
  <defs>
    <style>

      .cls-3 {
        fill: #142a3b;
      }

      .cls-4 {
        fill: #000000;
        opacity: 0.35;
      }

      .cls-6 {
        fill: #fbb713;
      }

      .cls-7 {
        fill: #000000;
        opacity: 0.25;
      }

      .cls-11 {
        fill: #ffffff;
      }

      .cls-19 {
        fill: #ff3a2f;
      }
    </style>
  </defs>
  <g id="group-248svg">
    <path d="M-0.007,-0.007 C-0.007,-0.007 -0.007,13.743 -0.007,13.743 C-0.007,13.743 37.680,13.743 37.680,13.743 C37.680,13.743 38.574,23.818 38.574,23.818 C38.574,23.818 29.287,47.221 29.287,47.221 C29.287,47.221 -0.007,47.221 -0.007,47.221 C-0.007,47.221 -0.007,57.384 -0.007,57.384 C-0.007,57.384 56.787,57.384 56.787,57.384 C56.787,57.384 56.787,-0.007 56.787,-0.007 C56.787,-0.007 -0.007,-0.007 -0.007,-0.007 Z" id="path-1" class="cls-3" fill-rule="evenodd"/>
    <path d="M-0.007,-0.007 C-0.007,-0.007 -0.007,1.950 -0.007,1.950 C-0.007,1.950 54.830,1.950 54.830,1.950 C54.830,1.950 54.830,57.384 54.830,57.384 C54.830,57.384 56.787,57.384 56.787,57.384 C56.787,57.384 56.787,-0.007 56.787,-0.007 C56.787,-0.007 -0.007,-0.007 -0.007,-0.007 Z" id="path-2" class="cls-4" fill-rule="evenodd"/>
    <path d="M28.330,49.178 C28.330,49.178 29.287,47.221 29.287,47.221 C29.287,47.221 -0.007,47.221 -0.007,47.221 C-0.007,47.221 -0.007,49.178 -0.007,49.178 C-0.007,49.178 28.330,49.178 28.330,49.178 Z" id="path-3" class="cls-4" fill-rule="evenodd"/>
    <path d="M15.998,47.044 C24.163,47.044 30.781,40.426 30.781,32.262 C30.781,32.262 1.216,32.262 1.216,32.262 C1.216,40.426 7.834,47.044 15.998,47.044 Z" id="path-4" class="cls-6" fill-rule="evenodd"/>
    <path d="M27.846,32.262 C27.846,39.931 22.006,46.233 14.531,46.970 C15.014,47.018 15.503,47.044 15.998,47.044 C24.163,47.044 30.781,40.426 30.781,32.262 C30.781,32.262 27.846,32.262 27.846,32.262 Z" id="path-5" class="cls-7" fill-rule="evenodd"/>
    <path d="M24.803,19.884 C24.803,19.884 5.890,19.884 5.890,19.884 C5.890,19.884 5.890,13.743 5.890,13.743 C5.890,13.743 24.803,13.743 24.803,13.743 C24.803,13.743 24.803,19.884 24.803,19.884 Z" id="path-6" class="cls-3" fill-rule="evenodd"/>
    <path d="M5.890,13.743 C5.890,13.743 5.890,14.721 5.890,14.721 C5.890,14.721 24.803,15.699 24.803,15.699 C24.803,15.699 24.803,13.743 24.803,13.743 C24.803,13.743 5.890,13.743 5.890,13.743 Z" id="path-7" class="cls-4" fill-rule="evenodd"/>
    <path d="M16.651,28.036 C16.651,28.036 14.042,28.036 14.042,28.036 C14.042,28.036 14.042,19.884 14.042,19.884 C14.042,19.884 16.651,19.884 16.651,19.884 C16.651,19.884 16.651,28.036 16.651,28.036 Z" id="path-8" class="cls-3" fill-rule="evenodd"/>
    <path d="M53.172,18.254 C53.172,18.254 43.037,18.254 43.037,18.254 C43.037,18.254 43.037,10.754 43.037,10.754 C43.037,10.754 53.172,10.754 53.172,10.754 C53.172,10.754 53.172,18.254 53.172,18.254 Z" id="path-9" class="cls-11" fill-rule="evenodd"/>
    <path d="M44.015,11.732 C44.015,11.732 53.172,11.732 53.172,11.732 C53.172,11.732 53.172,10.754 53.172,10.754 C53.172,10.754 43.037,10.754 43.037,10.754 C43.037,10.754 43.037,18.254 43.037,18.254 C43.037,18.254 44.015,18.254 44.015,18.254 C44.015,18.254 44.015,11.732 44.015,11.732 Z" id="path-10" class="cls-4" fill-rule="evenodd"/>
    <path d="M47.371,38.709 C45.657,38.709 44.259,39.998 44.056,41.658 C44.056,41.658 42.412,41.658 42.412,41.658 C42.412,41.658 42.412,42.472 42.412,42.472 C42.412,42.472 44.056,42.472 44.056,42.472 C44.259,44.132 45.657,45.421 47.371,45.421 C49.225,45.421 50.727,43.918 50.727,42.065 C50.727,40.212 49.225,38.709 47.371,38.709 Z" id="path-11" class="cls-4" fill-rule="evenodd"/>
    <path d="M46.393,37.731 C44.679,37.731 43.281,39.020 43.078,40.679 C43.078,40.679 41.434,40.679 41.434,40.679 C41.434,40.679 41.434,41.494 41.434,41.494 C41.434,41.494 43.078,41.494 43.078,41.494 C43.281,43.153 44.679,44.442 46.393,44.442 C48.246,44.442 49.748,42.940 49.748,41.087 C49.748,39.233 48.246,37.731 46.393,37.731 Z" id="path-12" class="cls-11" fill-rule="evenodd"/>
    <path d="M44.993,22.656 C44.993,22.656 43.037,22.656 43.037,22.656 C43.037,22.656 43.037,20.536 43.037,20.536 C43.037,20.536 44.993,20.536 44.993,20.536 C44.993,20.536 44.993,22.656 44.993,22.656 Z" id="path-13" class="cls-11" fill-rule="evenodd"/>
    <path d="M53.172,22.656 C53.172,22.656 51.216,22.656 51.216,22.656 C51.216,22.656 51.216,20.536 51.216,20.536 C51.216,20.536 53.172,20.536 53.172,20.536 C53.172,20.536 53.172,22.656 53.172,22.656 Z" id="path-14" class="cls-11" fill-rule="evenodd"/>
    <path d="M53.172,29.504 C53.172,29.504 51.216,29.504 51.216,29.504 C51.216,29.504 51.216,27.384 51.216,27.384 C51.216,27.384 53.172,27.384 53.172,27.384 C53.172,27.384 53.172,29.504 53.172,29.504 Z" id="path-15" class="cls-11" fill-rule="evenodd"/>
    <path d="M44.993,29.504 C44.993,29.504 43.037,29.504 43.037,29.504 C43.037,29.504 43.037,27.384 43.037,27.384 C43.037,27.384 44.993,27.384 44.993,27.384 C44.993,27.384 44.993,29.504 44.993,29.504 Z" id="path-16" class="cls-11" fill-rule="evenodd"/>
    <path d="M15.998,59.993 C15.998,59.993 5.238,59.993 5.238,59.993 C5.238,59.993 5.238,57.384 5.238,57.384 C5.238,57.384 15.998,57.384 15.998,57.384 C15.998,57.384 15.998,59.993 15.998,59.993 Z" id="path-17" class="cls-19" fill-rule="evenodd"/>
    <path d="M55.129,59.993 C55.129,59.993 44.368,59.993 44.368,59.993 C44.368,59.993 44.368,57.384 44.368,57.384 C44.368,57.384 55.129,57.384 55.129,57.384 C55.129,57.384 55.129,59.993 55.129,59.993 Z" id="path-18" class="cls-19" fill-rule="evenodd"/>
    <path d="M15.998,57.384 C15.998,57.384 5.238,57.384 5.238,57.384 C5.238,57.384 5.238,58.688 5.238,58.688 C5.238,58.688 15.998,58.688 15.998,58.688 C15.998,58.688 15.998,57.384 15.998,57.384 Z" id="path-19" class="cls-4" fill-rule="evenodd"/>
    <path d="M44.368,57.384 C44.368,57.384 44.368,58.688 44.368,58.688 C44.368,58.688 55.129,58.688 55.129,58.688 C55.129,58.688 55.129,57.384 55.129,57.384 C55.129,57.384 44.368,57.384 44.368,57.384 Z" id="path-20" class="cls-4" fill-rule="evenodd"/>
  </g>
</svg>
