<svg xmlns="http://www.w3.org/2000/svg" xmlns:xlink="http://www.w3.org/1999/xlink" preserveAspectRatio="xMidYMid" width="61" height="29" viewBox="0 0 61 29">
  <defs>
    <style>

      .cls-3 {
        fill: #142a3b;
      }

      .cls-4 {
        fill: #ff3a2f;
      }

      .cls-5 {
        fill: #000000;
        opacity: 0.35;
      }
    </style>
  </defs>
  <g id="group-223svg">
    <path d="M56.142,7.817 C56.142,7.817 52.291,7.817 52.291,7.817 C52.291,7.817 52.291,20.860 52.291,20.860 C52.291,20.860 56.142,20.860 56.142,20.860 C58.271,20.860 59.994,20.277 59.994,19.556 C59.994,19.556 59.994,9.121 59.994,9.121 C59.994,8.400 58.271,7.817 56.142,7.817 Z" id="path-1" class="cls-3" fill-rule="evenodd"/>
    <path d="M54.776,20.860 C54.776,20.860 54.776,7.817 54.776,7.817 C54.776,7.817 54.776,5.452 54.776,5.452 C54.776,2.441 52.326,-0.009 49.314,-0.009 C49.314,-0.009 5.456,-0.009 5.456,-0.009 C2.444,-0.009 -0.006,2.441 -0.006,5.452 C-0.006,5.452 -0.006,23.224 -0.006,23.224 C-0.006,26.235 2.444,28.686 5.456,28.686 C5.456,28.686 49.314,28.686 49.314,28.686 C52.326,28.686 54.776,26.235 54.776,23.224 C54.776,23.224 54.776,20.860 54.776,20.860 Z" id="path-2" class="cls-4" fill-rule="evenodd"/>
    <path d="M50.290,0.089 C50.846,0.944 51.176,1.959 51.176,3.053 C51.176,3.053 51.176,5.417 51.176,5.417 C51.176,5.417 51.176,18.460 51.176,18.460 C51.176,18.460 51.176,20.824 51.176,20.824 C51.176,23.835 48.726,26.286 45.714,26.286 C45.714,26.286 1.855,26.286 1.855,26.286 C1.521,26.286 1.198,26.245 0.880,26.187 C1.855,27.687 3.538,28.686 5.456,28.686 C5.456,28.686 49.314,28.686 49.314,28.686 C52.326,28.686 54.776,26.235 54.776,23.224 C54.776,23.224 54.776,20.860 54.776,20.860 C54.776,20.860 54.776,7.817 54.776,7.817 C54.776,7.817 54.776,5.452 54.776,5.452 C54.776,2.775 52.835,0.552 50.290,0.089 Z" id="path-3" class="cls-5" fill-rule="evenodd"/>
    <path d="M15.645,22.164 C15.645,22.885 15.062,23.469 14.341,23.469 C14.341,23.469 9.124,23.469 9.124,23.469 C8.403,23.469 7.820,22.885 7.820,22.164 C7.820,22.164 7.820,6.513 7.820,6.513 C7.820,5.791 8.403,5.208 9.124,5.208 C9.124,5.208 14.341,5.208 14.341,5.208 C15.062,5.208 15.645,5.791 15.645,6.513 C15.645,6.513 15.645,22.164 15.645,22.164 Z" id="path-4" class="cls-3" fill-rule="evenodd"/>
    <path d="M26.081,22.164 C26.081,22.885 25.497,23.469 24.776,23.469 C24.776,23.469 19.559,23.469 19.559,23.469 C18.838,23.469 18.254,22.885 18.254,22.164 C18.254,22.164 18.254,6.513 18.254,6.513 C18.254,5.791 18.838,5.208 19.559,5.208 C19.559,5.208 24.776,5.208 24.776,5.208 C25.497,5.208 26.081,5.791 26.081,6.513 C26.081,6.513 26.081,22.164 26.081,22.164 Z" id="path-5" class="cls-3" fill-rule="evenodd"/>
  </g>
</svg>
