<svg xmlns="http://www.w3.org/2000/svg" xmlns:xlink="http://www.w3.org/1999/xlink" preserveAspectRatio="xMidYMid" width="60" height="51" viewBox="0 0 60 51">
  <defs>
    <style>

      .cls-3 {
        fill: #ff3a2f;
      }

      .cls-4 {
        fill: #142a3b;
      }

      .cls-5 {
        fill: #060606;
        opacity: 0.35;
      }
    </style>
  </defs>
  <g id="group-190svg">
    <path d="M1.887,0.156 C1.501,-0.069 1.022,-0.069 0.637,0.156 C0.251,0.379 0.012,0.791 0.012,1.238 C0.012,1.238 0.012,49.638 0.012,49.638 C0.012,50.086 0.251,50.498 0.637,50.723 C0.832,50.833 1.047,50.889 1.262,50.889 C1.478,50.889 1.696,50.833 1.887,50.723 C1.887,50.723 43.806,26.519 43.806,26.519 C44.194,26.294 44.431,25.882 44.431,25.435 C44.431,24.988 44.194,24.576 43.806,24.351 C43.806,24.351 1.887,0.156 1.887,0.156 Z" id="path-1" class="cls-3" fill-rule="evenodd"/>
    <path d="M58.762,0.318 C58.762,0.318 46.262,0.318 46.262,0.318 C45.573,0.318 45.012,0.877 45.012,1.568 C45.012,1.568 45.012,49.067 45.012,49.067 C45.012,49.760 45.573,50.318 46.262,50.318 C46.262,50.318 58.762,50.318 58.762,50.318 C59.455,50.318 60.012,49.760 60.012,49.067 C60.012,49.067 60.012,1.568 60.012,1.568 C60.012,0.877 59.455,0.318 58.762,0.318 Z" id="path-2" class="cls-4" fill-rule="evenodd"/>
    <path d="M43.806,24.351 C43.806,24.351 41.365,22.942 41.365,22.942 C41.365,22.942 0.012,46.820 0.012,46.820 C0.012,46.820 0.012,49.639 0.012,49.639 C0.012,50.086 0.251,50.499 0.637,50.723 C0.831,50.832 1.047,50.889 1.262,50.889 C1.478,50.889 1.696,50.832 1.887,50.723 C1.887,50.723 43.806,26.519 43.806,26.519 C44.194,26.294 44.431,25.882 44.431,25.435 C44.431,24.988 44.194,24.576 43.806,24.351 Z" id="path-3" class="cls-5" fill-rule="evenodd"/>
    <path d="M58.762,0.318 C58.762,0.318 57.611,0.318 57.611,0.318 C57.611,0.318 57.611,45.467 57.611,45.467 C57.611,46.160 57.055,46.718 56.361,46.718 C56.361,46.718 45.012,46.718 45.012,46.718 C45.012,46.718 45.012,49.067 45.012,49.067 C45.012,49.760 45.573,50.317 46.262,50.317 C46.262,50.317 58.762,50.317 58.762,50.317 C59.455,50.317 60.012,49.760 60.012,49.067 C60.012,49.067 60.012,1.567 60.012,1.567 C60.012,0.877 59.455,0.318 58.762,0.318 Z" id="path-4" class="cls-5" fill-rule="evenodd"/>
  </g>
</svg>
