<svg xmlns="http://www.w3.org/2000/svg" xmlns:xlink="http://www.w3.org/1999/xlink" preserveAspectRatio="xMidYMid" width="60" height="59" viewBox="0 0 60 59">
  <defs>
    <style>

      .cls-3 {
        fill: #0cb04a;
      }

      .cls-4 {
        fill: #ededed;
      }

      .cls-5 {
        fill: #020403;
        opacity: 0.35;
      }

      .cls-6 {
        fill: #142a3b;
      }

      .cls-10 {
        fill: #ffffff;
      }

      .cls-11 {
        fill: #fbb713;
      }
    </style>
  </defs>
  <g id="group-131svg">
    <path d="M12.140,58.112 C12.140,58.112 12.140,4.468 12.140,4.468 C12.140,1.999 14.137,-0.003 16.601,-0.003 C16.601,-0.003 41.140,-0.003 41.140,-0.003 C43.603,-0.003 45.601,1.999 45.601,4.468 C45.601,4.468 45.601,58.112 45.601,58.112 C45.601,58.112 12.140,58.112 12.140,58.112 Z" id="path-1" class="cls-3" fill-rule="evenodd"/>
    <path d="M16.601,22.349 C16.601,22.349 16.601,4.468 16.601,4.468 C16.601,4.468 41.140,4.468 41.140,4.468 C41.140,4.468 41.140,22.349 41.140,22.349 C41.140,22.349 16.601,22.349 16.601,22.349 Z" id="path-2" class="cls-4" fill-rule="evenodd"/>
    <path d="M18.832,6.703 C18.832,6.703 41.140,6.703 41.140,6.703 C41.140,6.703 41.140,4.468 41.140,4.468 C41.140,4.468 16.601,4.468 16.601,4.468 C16.601,4.468 16.601,22.350 16.601,22.350 C16.601,22.350 18.832,22.350 18.832,22.350 C18.832,22.350 18.832,6.703 18.832,6.703 Z" id="path-3" class="cls-5" fill-rule="evenodd"/>
    <path d="M58.986,23.349 C58.693,23.349 58.402,23.220 58.205,22.973 C58.205,22.973 53.743,17.385 53.743,17.385 C53.398,16.954 53.468,16.324 53.900,15.980 C54.332,15.636 54.961,15.706 55.305,16.137 C55.305,16.137 59.767,21.725 59.767,21.725 C60.112,22.157 60.041,22.786 59.610,23.131 C59.426,23.278 59.205,23.349 58.986,23.349 Z" id="path-4" class="cls-6" fill-rule="evenodd"/>
    <path d="M55.640,45.701 C53.243,45.701 51.293,43.749 51.293,41.348 C51.293,41.348 51.293,24.584 51.293,24.584 C51.293,23.904 50.741,23.349 50.062,23.349 C50.062,23.349 45.601,23.349 45.601,23.349 C45.049,23.349 44.601,22.902 44.601,22.349 C44.601,21.797 45.049,21.349 45.601,21.349 C45.601,21.349 50.062,21.349 50.062,21.349 C51.844,21.349 53.293,22.800 53.293,24.584 C53.293,24.584 53.293,41.348 53.293,41.348 C53.293,42.646 54.346,43.701 55.640,43.701 C56.933,43.701 57.986,42.646 57.986,41.348 C57.986,41.348 57.986,22.349 57.986,22.349 C57.986,21.797 58.434,21.349 58.986,21.349 C59.538,21.349 59.986,21.797 59.986,22.349 C59.986,22.349 59.986,41.348 59.986,41.348 C59.986,43.749 58.036,45.701 55.640,45.701 Z" id="path-5" class="cls-6" fill-rule="evenodd"/>
    <path d="M28.294,22.385 C27.955,22.385 27.623,22.212 27.435,21.900 C27.435,21.900 21.319,11.687 21.319,11.687 C21.036,11.213 21.189,10.599 21.664,10.315 C22.136,10.031 22.751,10.185 23.035,10.659 C23.035,10.659 29.151,20.871 29.151,20.871 C29.435,21.345 29.281,21.959 28.807,22.243 C28.646,22.340 28.469,22.385 28.294,22.385 Z" id="path-6" class="cls-6" fill-rule="evenodd"/>
    <path d="M28.871,29.055 C27.198,32.304 22.178,35.557 22.178,40.434 C22.178,44.023 25.176,46.936 28.871,46.936 C32.566,46.936 35.562,44.023 35.562,40.434 C35.562,35.557 30.544,32.304 28.871,29.055 C28.871,29.055 28.871,29.055 28.871,29.055 Z" id="path-7" class="cls-6" fill-rule="evenodd"/>
    <path d="M29.186,44.924 C25.827,44.924 23.093,42.255 23.093,38.975 C23.093,38.423 23.541,37.976 24.093,37.976 C24.645,37.976 25.093,38.423 25.093,38.975 C25.093,41.153 26.929,42.924 29.186,42.924 C29.739,42.924 30.186,43.372 30.186,43.924 C30.186,44.477 29.739,44.924 29.186,44.924 Z" id="path-8" class="cls-10" fill-rule="evenodd"/>
    <path d="M45.601,56.880 C45.601,56.880 12.140,56.880 12.140,56.880 C12.140,56.880 12.140,52.038 12.140,52.038 C12.140,52.038 45.601,52.038 45.601,52.038 C45.601,52.038 45.601,56.880 45.601,56.880 Z" id="path-9" class="cls-11" fill-rule="evenodd"/>
    <path d="M41.140,-0.003 C41.140,-0.003 41.140,55.877 41.140,55.877 C41.140,55.877 12.140,55.877 12.140,55.877 C12.140,55.877 12.140,58.113 12.140,58.113 C12.140,58.113 45.601,58.113 45.601,58.113 C45.601,58.113 45.601,4.468 45.601,4.468 C45.601,1.999 43.603,-0.003 41.140,-0.003 Z" id="path-10" class="cls-5" fill-rule="evenodd"/>
    <path d="M16.601,47.604 C16.049,47.604 15.601,47.156 15.601,46.604 C15.601,46.604 15.601,29.872 15.601,29.872 C15.601,29.320 16.049,28.872 16.601,28.872 C17.153,28.872 17.601,29.320 17.601,29.872 C17.601,29.872 17.601,46.604 17.601,46.604 C17.601,47.156 17.153,47.604 16.601,47.604 Z" id="path-11" class="cls-10" fill-rule="evenodd"/>
    <path d="M56.755,59.112 C56.755,59.112 0.986,59.112 0.986,59.112 C0.434,59.112 -0.014,58.665 -0.014,58.112 C-0.014,57.560 0.434,57.112 0.986,57.112 C0.986,57.112 56.755,57.112 56.755,57.112 C57.307,57.112 57.755,57.560 57.755,58.112 C57.755,58.665 57.307,59.112 56.755,59.112 Z" id="path-12" class="cls-6" fill-rule="evenodd"/>
  </g>
</svg>
