<svg xmlns="http://www.w3.org/2000/svg" xmlns:xlink="http://www.w3.org/1999/xlink" preserveAspectRatio="xMidYMid" width="60" height="40" viewBox="0 0 60 40">
  <defs>
    <style>

      .cls-3 {
        fill: #ff3a2f;
      }

      .cls-6 {
        fill: #000000;
        opacity: 0.35;
      }
    </style>
  </defs>
  <g id="group-238svg">
    <path d="M56.993,37.908 C56.993,37.908 55.143,38.560 55.143,38.560 C55.143,38.560 43.324,4.994 43.324,4.994 C43.324,4.994 45.175,4.342 45.175,4.342 C45.175,4.342 56.993,37.908 56.993,37.908 Z" id="path-1" class="cls-3" fill-rule="evenodd"/>
    <path d="M4.076,37.908 C4.076,37.908 5.927,38.560 5.927,38.560 C5.927,38.560 17.745,4.994 17.745,4.994 C17.745,4.994 15.893,4.342 15.893,4.342 C15.893,4.342 4.076,37.908 4.076,37.908 Z" id="path-2" class="cls-3" fill-rule="evenodd"/>
    <path d="M60.010,5.532 C60.010,5.532 0.010,5.532 0.010,5.532 C0.010,5.532 0.010,0.004 0.010,0.004 C0.010,0.004 60.010,0.004 60.010,0.004 C60.010,0.004 60.010,5.532 60.010,5.532 Z" id="path-3" class="cls-3" fill-rule="evenodd"/>
    <path d="M60.010,5.532 C60.010,5.532 0.010,5.532 0.010,5.532 C0.010,5.532 0.010,2.685 0.010,2.685 C0.010,2.685 60.010,2.685 60.010,2.685 C60.010,2.685 60.010,5.532 60.010,5.532 Z" id="path-4" class="cls-6" fill-rule="evenodd"/>
  </g>
</svg>
