<svg xmlns="http://www.w3.org/2000/svg" xmlns:xlink="http://www.w3.org/1999/xlink" preserveAspectRatio="xMidYMid" width="60" height="42" viewBox="0 0 60 42">
  <defs>
    <style>

      .cls-3 {
        fill: #ededed;
      }

      .cls-4 {
        fill: #fbb713;
      }

      .cls-5 {
        fill: #000000;
        opacity: 0.2;
      }

      .cls-6 {
        fill: #142a3b;
      }
    </style>
  </defs>
  <g id="group-322svg">
    <path d="M54.530,0.000 C54.530,0.000 5.180,0.000 5.180,0.000 C2.322,0.000 -0.015,2.339 -0.015,5.195 C-0.015,5.195 -0.015,10.390 -0.015,10.390 C-0.015,10.390 -0.015,28.572 -0.015,28.572 C-0.015,28.572 12.972,28.572 12.972,28.572 C12.972,28.572 46.738,28.572 46.738,28.572 C46.738,28.572 59.725,28.572 59.725,28.572 C59.725,28.572 59.725,5.195 59.725,5.195 C59.725,2.339 57.388,0.000 54.530,0.000 Z" id="path-1" class="cls-3" fill-rule="evenodd"/>
    <path d="M46.738,20.779 C46.738,20.779 46.738,41.559 46.738,41.559 C46.738,41.559 12.972,41.559 12.972,41.559 C12.972,41.559 12.972,20.779 12.972,20.779 C12.972,20.779 46.738,20.779 46.738,20.779 Z" id="path-2" class="cls-4" fill-rule="evenodd"/>
    <path d="M12.972,20.779 C12.972,20.779 12.972,23.377 12.972,23.377 C12.972,23.377 42.842,23.377 42.842,23.377 C42.842,23.377 42.842,41.559 42.842,41.559 C42.842,41.559 46.738,41.559 46.738,41.559 C46.738,41.559 46.738,20.779 46.738,20.779 C46.738,20.779 12.972,20.779 12.972,20.779 Z" id="path-3" class="cls-5" fill-rule="evenodd"/>
    <path d="M41.543,29.572 C41.543,29.572 18.166,29.572 18.166,29.572 C17.614,29.572 17.166,29.124 17.166,28.572 C17.166,28.019 17.614,27.571 18.166,27.571 C18.166,27.571 41.543,27.571 41.543,27.571 C42.095,27.571 42.543,28.019 42.543,28.572 C42.543,29.124 42.095,29.572 41.543,29.572 Z" id="path-4" class="cls-6" fill-rule="evenodd"/>
    <path d="M58.426,13.987 C58.426,13.987 1.283,13.987 1.283,13.987 C0.731,13.987 0.283,13.539 0.283,12.987 C0.283,12.435 0.731,11.987 1.283,11.987 C1.283,11.987 58.426,11.987 58.426,11.987 C58.978,11.987 59.426,12.435 59.426,12.987 C59.426,13.539 58.978,13.987 58.426,13.987 Z" id="path-5" class="cls-6" fill-rule="evenodd"/>
    <path d="M41.543,34.767 C41.543,34.767 18.166,34.767 18.166,34.767 C17.614,34.767 17.166,34.319 17.166,33.766 C17.166,33.214 17.614,32.766 18.166,32.766 C18.166,32.766 41.543,32.766 41.543,32.766 C42.095,32.766 42.543,33.214 42.543,33.766 C42.543,34.319 42.095,34.767 41.543,34.767 Z" id="path-6" class="cls-6" fill-rule="evenodd"/>
    <path d="M59.725,14.286 C59.725,14.286 59.725,5.195 59.725,5.195 C59.725,2.339 57.388,0.000 54.530,0.000 C54.530,0.000 5.180,0.000 5.180,0.000 C2.322,0.000 -0.015,2.339 -0.015,5.195 C-0.015,5.195 -0.015,10.390 -0.015,10.390 C-0.015,10.390 -0.015,14.286 -0.015,14.286 C-0.015,14.286 59.725,14.286 59.725,14.286 Z" id="path-7" class="cls-6" fill-rule="evenodd"/>
    <path d="M45.864,6.351 C45.864,7.666 44.798,8.732 43.483,8.732 C42.168,8.732 41.102,7.666 41.102,6.351 C41.102,5.036 42.168,3.969 43.483,3.969 C44.798,3.969 45.864,5.036 45.864,6.351 Z" id="path-8" class="cls-3" fill-rule="evenodd"/>
    <path d="M54.530,0.000 C54.530,0.000 5.180,0.000 5.180,0.000 C3.879,0.000 2.700,0.501 1.786,1.299 C1.786,1.299 48.037,1.299 48.037,1.299 C50.894,1.299 53.231,3.638 53.231,6.494 C53.231,6.494 53.231,28.572 53.231,28.572 C53.231,28.572 59.725,28.572 59.725,28.572 C59.725,28.572 59.725,5.195 59.725,5.195 C59.725,2.339 57.388,0.000 54.530,0.000 Z" id="path-9" class="cls-5" fill-rule="evenodd"/>
    <path d="M54.955,6.351 C54.955,7.666 53.889,8.732 52.574,8.732 C51.259,8.732 50.193,7.666 50.193,6.351 C50.193,5.036 51.259,3.969 52.574,3.969 C53.889,3.969 54.955,5.036 54.955,6.351 Z" id="path-10" class="cls-3" fill-rule="evenodd"/>
  </g>
</svg>
