<svg xmlns="http://www.w3.org/2000/svg" xmlns:xlink="http://www.w3.org/1999/xlink" preserveAspectRatio="xMidYMid" width="60" height="56" viewBox="0 0 60 56">
  <defs>
    <style>

      .cls-3 {
        fill: #ff3a2f;
      }

      .cls-4 {
        fill: #020403;
        opacity: 0.35;
      }
    </style>
  </defs>
  <g id="group-106svg">
    <path d="M55.570,4.391 C49.679,-1.500 40.094,-1.501 34.203,4.391 C28.890,9.703 28.413,17.991 32.680,23.892 C32.680,23.892 17.736,38.836 17.736,38.836 C17.736,38.836 14.936,36.036 14.936,36.036 C14.936,36.036 11.547,39.425 11.547,39.425 C11.547,39.425 14.347,42.225 14.347,42.225 C14.347,42.225 10.673,45.899 10.673,45.899 C10.673,45.899 3.378,38.604 3.378,38.604 C3.378,38.604 -0.011,41.994 -0.011,41.994 C-0.011,41.994 7.284,49.289 7.284,49.289 C7.284,49.289 4.311,52.261 4.311,52.261 C4.311,52.261 7.701,55.650 7.701,55.650 C7.701,55.650 36.069,27.281 36.069,27.281 C41.971,31.548 50.258,31.072 55.571,25.759 C61.462,19.868 61.462,10.283 55.570,4.391 ZM39.168,20.794 C35.981,17.607 35.981,12.442 39.168,9.256 C42.354,6.069 47.519,6.070 50.706,9.256 C53.892,12.442 53.892,17.607 50.706,20.793 C47.519,23.980 42.354,23.980 39.168,20.794 Z" id="path-1" class="cls-3" fill-rule="evenodd"/>
    <path d="M38.418,19.876 C36.038,16.681 36.267,12.156 39.168,9.256 C42.068,6.355 46.593,6.125 49.788,8.506 C49.554,8.192 49.324,7.874 49.038,7.588 C45.852,4.402 40.687,4.402 37.500,7.588 C34.314,10.775 34.314,15.940 37.500,19.126 C37.786,19.412 38.104,19.641 38.418,19.876 Z" id="path-2" class="cls-4" fill-rule="evenodd"/>
    <path d="M14.638,41.911 C14.638,41.911 11.838,39.111 11.838,39.111 C11.838,39.111 12.545,38.404 12.545,38.404 C12.545,38.404 15.345,41.204 15.345,41.204 C15.345,41.204 14.638,41.911 14.638,41.911 Z" id="path-3" class="cls-4" fill-rule="evenodd"/>
    <path d="M9.868,46.975 C9.868,46.975 2.424,39.560 2.424,39.560 C2.424,39.560 3.107,38.832 3.107,38.832 C3.107,38.832 3.355,39.051 3.355,39.051 C3.355,39.051 10.575,46.268 10.575,46.268 C10.575,46.268 9.868,46.975 9.868,46.975 Z" id="path-4" class="cls-4" fill-rule="evenodd"/>
    <path d="M55.571,4.391 C55.289,4.110 54.992,3.854 54.695,3.600 C59.769,9.529 59.514,18.481 53.903,24.092 C48.591,29.404 40.304,29.881 34.402,25.614 C34.402,25.614 6.034,53.983 6.034,53.983 C6.034,53.983 7.701,55.650 7.701,55.650 C7.701,55.650 36.069,27.281 36.069,27.281 C41.971,31.548 50.258,31.072 55.571,25.759 C61.462,19.868 61.462,10.283 55.571,4.391 Z" id="path-5" class="cls-4" fill-rule="evenodd"/>
  </g>
</svg>
