<svg xmlns="http://www.w3.org/2000/svg" xmlns:xlink="http://www.w3.org/1999/xlink" preserveAspectRatio="xMidYMid" width="60" height="58" viewBox="0 0 60 58">
  <defs>
    <style>

      .cls-3 {
        fill: #fbb713;
      }

      .cls-5 {
        fill: #020403;
        opacity: 0.35;
      }

      .cls-7 {
        fill: #b17d0a;
      }

      .cls-10 {
        fill: #2476ff;
      }
    </style>
  </defs>
  <g id="group-111svg">
    <path d="M44.546,27.640 C44.546,27.640 60.009,29.015 60.009,29.015 C60.009,29.015 60.009,11.129 60.009,11.129 C60.009,6.700 56.419,3.109 51.990,3.109 C51.990,3.109 43.055,3.109 43.055,3.109 C43.055,3.109 44.546,27.640 44.546,27.640 Z" id="path-1" class="cls-3" fill-rule="evenodd"/>
    <path d="M16.054,27.640 C16.054,27.640 0.009,29.015 0.009,29.015 C0.009,29.015 0.009,11.129 0.009,11.129 C0.009,6.700 3.600,3.109 8.029,3.109 C8.029,3.109 16.798,3.109 16.798,3.109 C16.798,3.109 16.054,27.640 16.054,27.640 Z" id="path-2" class="cls-3" fill-rule="evenodd"/>
    <path d="M50.018,3.109 C50.018,3.109 43.055,3.109 43.055,3.109 C43.055,3.109 44.546,27.640 44.546,27.640 C44.546,27.640 47.269,28.126 47.269,28.126 C47.269,28.126 50.018,3.109 50.018,3.109 Z" id="path-3" class="cls-5" fill-rule="evenodd"/>
    <path d="M14.188,28.035 C14.188,28.035 16.054,27.640 16.054,27.640 C16.054,27.640 16.798,3.109 16.798,3.109 C16.798,3.109 10.064,3.109 10.064,3.109 C10.064,3.109 14.188,28.035 14.188,28.035 Z" id="path-4" class="cls-5" fill-rule="evenodd"/>
    <path d="M44.428,53.004 C44.428,53.004 60.009,29.015 60.009,29.015 C60.009,29.015 42.776,24.738 42.776,24.738 C42.776,24.738 44.428,53.004 44.428,53.004 Z" id="path-5" class="cls-7" fill-rule="evenodd"/>
    <path d="M16.018,53.821 C16.018,53.821 0.009,29.015 0.009,29.015 C0.009,29.015 19.348,24.738 19.348,24.738 C19.348,24.738 16.018,53.821 16.018,53.821 Z" id="path-6" class="cls-7" fill-rule="evenodd"/>
    <path d="M39.948,57.177 C39.948,57.177 20.071,57.177 20.071,57.177 C17.275,57.177 15.009,54.910 15.009,52.116 C15.009,52.116 15.009,5.056 15.009,5.056 C15.009,2.260 17.275,-0.006 20.071,-0.006 C20.071,-0.006 39.948,-0.006 39.948,-0.006 C42.743,-0.006 45.009,2.260 45.009,5.056 C45.009,5.056 45.009,52.116 45.009,52.116 C45.009,54.910 42.743,57.177 39.948,57.177 Z" id="path-7" class="cls-3" fill-rule="evenodd"/>
    <path d="M37.264,17.670 C37.264,21.573 34.100,24.738 30.196,24.738 C26.292,24.738 23.128,21.573 23.128,17.670 C23.128,13.767 26.292,10.602 30.196,10.602 C34.100,10.602 37.264,13.767 37.264,17.670 Z" id="path-8" class="cls-10" fill-rule="evenodd"/>
  </g>
</svg>
