<svg xmlns="http://www.w3.org/2000/svg" xmlns:xlink="http://www.w3.org/1999/xlink" preserveAspectRatio="xMidYMid" width="61" height="47" viewBox="0 0 61 47">
  <defs>
    <style>

      .cls-3 {
        fill: #ff3a2f;
      }

      .cls-4 {
        fill: #000000;
        opacity: 0.35;
      }
    </style>
  </defs>
  <g id="group-213svg">
    <path d="M58.223,23.864 C59.353,21.634 60.005,19.118 60.005,16.445 C60.005,7.359 52.639,-0.007 43.553,-0.007 C37.931,-0.007 32.972,2.818 30.005,7.122 C27.037,2.818 22.079,-0.007 16.456,-0.007 C7.370,-0.007 0.005,7.359 0.005,16.445 C0.005,19.617 0.917,22.568 2.472,25.081 C6.268,32.554 15.605,39.887 30.202,47.091 C40.238,41.855 48.524,35.631 54.907,28.332 C55.873,27.409 58.223,23.864 58.223,23.864 Z" id="path-1" class="cls-3" fill-rule="evenodd"/>
    <path d="M28.130,9.382 C28.687,8.573 29.315,7.817 30.005,7.122 C26.186,1.807 21.022,-0.007 16.456,-0.007 C15.826,-0.007 15.207,0.037 14.595,0.106 C19.429,0.660 25.500,5.568 28.130,9.382 Z" id="path-2" class="cls-4" fill-rule="evenodd"/>
    <path d="M43.553,-0.007 C42.914,-0.007 42.284,0.035 41.664,0.106 C49.873,1.031 56.255,7.989 56.255,16.445 C56.255,19.118 55.603,21.633 54.473,23.864 C54.473,23.864 52.124,27.409 51.157,28.332 C45.165,35.184 37.475,41.078 28.255,46.106 C28.897,46.434 29.538,46.762 30.202,47.091 C40.238,41.855 48.524,35.631 54.907,28.332 C55.873,27.409 58.223,23.864 58.223,23.864 C59.353,21.633 60.005,19.118 60.005,16.445 C60.005,7.359 52.639,-0.007 43.553,-0.007 Z" id="path-3" class="cls-4" fill-rule="evenodd"/>
  </g>
</svg>
