<svg xmlns="http://www.w3.org/2000/svg" xmlns:xlink="http://www.w3.org/1999/xlink" preserveAspectRatio="xMidYMid" width="61" height="54" viewBox="0 0 61 54">
  <defs>
    <style>

      .cls-3 {
        fill: #142a3b;
      }

      .cls-4 {
        fill: #060606;
        opacity: 0.35;
      }

      .cls-5 {
        fill: #fbb713;
      }

      .cls-6 {
        fill: #060606;
        opacity: 0.25;
      }
    </style>
  </defs>
  <g id="group-202svg">
    <path d="M29.995,9.107 C35.837,9.107 41.858,5.772 43.056,0.131 C43.056,0.131 43.076,0.141 43.076,0.141 C43.076,0.141 43.076,-0.002 43.076,-0.002 C43.076,-0.002 16.938,-0.002 16.938,-0.002 C18.156,5.714 24.279,9.107 29.995,9.107 Z" id="path-1" class="cls-3" fill-rule="evenodd"/>
    <path d="M38.432,-0.002 C36.792,5.056 31.134,8.016 25.631,8.016 C25.144,8.016 24.654,7.983 24.164,7.934 C26.013,8.696 28.026,9.107 29.995,9.107 C35.837,9.107 41.859,5.772 43.056,0.131 C43.056,0.131 43.076,0.140 43.076,0.140 C43.076,0.140 43.076,-0.002 43.076,-0.002 C43.076,-0.002 38.432,-0.002 38.432,-0.002 Z" id="path-2" class="cls-4" fill-rule="evenodd"/>
    <path d="M56.013,21.856 C56.013,21.856 48.117,21.856 48.117,21.856 C47.355,21.856 47.448,21.994 47.448,22.755 C47.448,22.755 47.448,54.356 47.448,54.356 C47.448,54.356 14.948,54.356 14.948,54.356 C14.948,54.356 14.948,22.755 14.948,22.755 C14.948,21.994 13.092,21.856 12.331,21.856 C12.331,21.856 3.979,21.856 3.979,21.856 C3.979,21.856 -0.007,8.360 -0.007,8.360 C-0.007,8.360 16.938,-0.002 16.938,-0.002 C18.156,5.714 24.279,9.107 29.995,9.107 C35.837,9.107 41.858,5.772 43.056,0.131 C43.056,0.131 59.993,8.387 59.993,8.387 C59.993,8.387 56.013,21.856 56.013,21.856 Z" id="path-3" class="cls-5" fill-rule="evenodd"/>
    <path d="M43.056,0.131 C42.954,0.613 42.804,1.072 42.634,1.520 C42.634,1.520 56.721,8.387 56.721,8.387 C56.721,8.387 52.740,21.856 52.740,21.856 C52.740,21.856 56.013,21.856 56.013,21.856 C56.013,21.856 59.993,8.387 59.993,8.387 C59.993,8.387 43.056,0.131 43.056,0.131 Z" id="path-4" class="cls-6" fill-rule="evenodd"/>
    <path d="M26.722,9.107 C27.275,9.107 27.829,9.068 28.381,9.009 C23.174,8.441 18.042,5.178 16.938,-0.002 C16.938,-0.002 14.093,1.403 14.093,1.403 C15.936,6.262 21.494,9.107 26.722,9.107 Z" id="path-5" class="cls-6" fill-rule="evenodd"/>
    <path d="M44.175,22.755 C44.175,22.755 44.175,54.356 44.175,54.356 C44.175,54.356 47.448,54.356 47.448,54.356 C47.448,54.356 47.448,22.755 47.448,22.755 C47.448,21.994 47.355,21.856 48.117,21.856 C48.117,21.856 44.845,21.856 44.845,21.856 C44.082,21.856 44.175,21.994 44.175,22.755 Z" id="path-6" class="cls-6" fill-rule="evenodd"/>
  </g>
</svg>
