<svg xmlns="http://www.w3.org/2000/svg" xmlns:xlink="http://www.w3.org/1999/xlink" preserveAspectRatio="xMidYMid" width="58" height="60" viewBox="0 0 58 60">
  <defs>
    <style>

      .cls-3 {
        fill: #142a3b;
      }

      .cls-9 {
        fill: #ff3a2f;
      }

      .cls-10 {
        fill: #ededed;
      }

      .cls-11 {
        fill: #060606;
        opacity: 0.35;
      }
    </style>
  </defs>
  <g id="group-177svg">
    <path d="M10.474,27.397 C10.214,27.397 9.949,27.346 9.694,27.238 C9.694,27.238 3.040,24.416 3.040,24.416 C2.023,23.985 1.548,22.812 1.979,21.794 C2.411,20.778 3.583,20.302 4.602,20.734 C4.602,20.734 11.256,23.555 11.256,23.555 C12.273,23.987 12.748,25.160 12.316,26.178 C11.993,26.940 11.253,27.397 10.474,27.397 Z" id="path-1" class="cls-3" fill-rule="evenodd"/>
    <path d="M5.616,55.021 C4.837,55.021 4.097,54.563 3.774,53.801 C3.343,52.784 3.817,51.610 4.834,51.179 C4.834,51.179 11.488,48.357 11.488,48.357 C12.506,47.926 13.679,48.401 14.110,49.418 C14.542,50.434 14.067,51.608 13.050,52.040 C13.050,52.040 6.396,54.861 6.396,54.861 C6.141,54.969 5.876,55.021 5.616,55.021 Z" id="path-2" class="cls-3" fill-rule="evenodd"/>
    <path d="M1.997,39.876 C0.913,39.876 0.022,39.009 -0.002,37.919 C-0.025,36.815 0.850,35.900 1.955,35.876 C1.955,35.876 9.189,35.720 9.189,35.720 C10.305,35.703 11.208,36.572 11.231,37.677 C11.255,38.780 10.379,39.695 9.275,39.719 C9.275,39.719 2.041,39.875 2.041,39.875 C2.026,39.876 2.012,39.876 1.997,39.876 Z" id="path-3" class="cls-3" fill-rule="evenodd"/>
    <path d="M46.859,27.397 C46.080,27.397 45.340,26.940 45.017,26.178 C44.586,25.160 45.061,23.987 46.078,23.555 C46.078,23.555 52.732,20.734 52.732,20.734 C53.749,20.302 54.922,20.778 55.354,21.794 C55.785,22.812 55.310,23.985 54.293,24.416 C54.293,24.416 47.639,27.238 47.639,27.238 C47.384,27.346 47.120,27.397 46.859,27.397 Z" id="path-4" class="cls-3" fill-rule="evenodd"/>
    <path d="M51.717,55.021 C51.457,55.021 51.192,54.969 50.937,54.861 C50.937,54.861 44.283,52.040 44.283,52.040 C43.266,51.608 42.791,50.435 43.223,49.418 C43.654,48.401 44.828,47.926 45.845,48.357 C45.845,48.357 52.499,51.179 52.499,51.179 C53.516,51.610 53.991,52.784 53.559,53.801 C53.236,54.563 52.496,55.021 51.717,55.021 Z" id="path-5" class="cls-3" fill-rule="evenodd"/>
    <path d="M55.336,39.876 C55.321,39.876 55.307,39.876 55.292,39.875 C55.292,39.875 48.059,39.719 48.059,39.719 C46.954,39.695 46.078,38.780 46.102,37.677 C46.126,36.572 47.048,35.699 48.144,35.720 C48.144,35.720 55.378,35.876 55.378,35.876 C56.482,35.900 57.358,36.815 57.334,37.919 C57.311,39.009 56.420,39.876 55.336,39.876 Z" id="path-6" class="cls-3" fill-rule="evenodd"/>
    <path d="M49.279,33.936 C49.279,48.331 39.990,60.001 28.531,60.001 C17.072,60.001 7.783,48.331 7.783,33.936 C7.783,19.541 17.072,7.872 28.531,7.872 C39.990,7.872 49.279,19.541 49.279,33.936 Z" id="path-7" class="cls-9" fill-rule="evenodd"/>
    <path d="M15.071,47.801 C14.733,47.801 14.403,47.630 14.215,47.320 C11.862,43.440 10.619,38.812 10.619,33.936 C10.619,30.473 11.241,27.155 12.467,24.075 C12.671,23.562 13.251,23.311 13.766,23.516 C14.279,23.721 14.529,24.302 14.325,24.815 C13.193,27.659 12.619,30.728 12.619,33.936 C12.619,38.446 13.762,42.716 15.925,46.282 C16.212,46.755 16.061,47.370 15.589,47.656 C15.427,47.754 15.248,47.801 15.071,47.801 Z" id="path-8" class="cls-10" fill-rule="evenodd"/>
    <path d="M15.362,17.951 C18.178,22.484 23.247,24.781 25.544,25.516 C25.544,25.516 25.544,55.449 25.544,55.449 C25.544,55.449 26.643,55.244 26.643,55.244 C26.643,55.244 26.643,25.835 26.643,25.835 C26.643,25.835 26.565,23.827 26.565,23.827 C22.684,23.086 15.362,17.951 15.362,17.951 Z" id="path-9" class="cls-11" fill-rule="evenodd"/>
    <path d="M43.664,15.615 C39.878,10.486 34.501,7.278 28.531,7.278 C22.561,7.278 17.184,10.486 13.398,15.615 C16.763,20.173 21.387,23.208 26.565,23.827 C26.565,23.827 26.547,23.827 26.547,23.827 C26.547,23.827 26.547,60.001 26.547,60.001 C26.547,60.001 31.036,60.001 31.036,60.001 C31.036,60.001 31.036,23.827 31.036,23.827 C31.036,23.827 31.595,23.827 31.595,23.827 C36.773,23.208 40.299,20.173 43.664,15.615 Z" id="path-10" class="cls-10" fill-rule="evenodd"/>
    <path d="M35.731,15.088 C35.527,15.088 35.321,15.025 35.143,14.896 C34.697,14.571 34.599,13.946 34.923,13.499 C34.923,13.499 36.493,11.343 36.493,11.343 C36.817,10.898 37.443,10.798 37.890,11.124 C38.336,11.449 38.435,12.074 38.110,12.521 C38.110,12.521 36.540,14.677 36.540,14.677 C36.345,14.945 36.040,15.088 35.731,15.088 Z" id="path-11" class="cls-11" fill-rule="evenodd"/>
    <path d="M24.609,13.436 C24.234,13.436 23.874,13.224 23.704,12.862 C23.704,12.862 22.569,10.453 22.569,10.453 C22.334,9.953 22.548,9.357 23.048,9.122 C23.547,8.887 24.143,9.100 24.379,9.601 C24.379,9.601 25.513,12.010 25.513,12.010 C25.748,12.510 25.534,13.106 25.034,13.341 C24.896,13.406 24.752,13.436 24.609,13.436 Z" id="path-12" class="cls-11" fill-rule="evenodd"/>
    <path d="M35.371,13.827 C35.100,13.827 34.825,13.754 34.578,13.600 C33.875,13.162 33.661,12.236 34.100,11.533 C34.100,11.533 39.184,3.387 39.184,3.387 C39.623,2.685 40.548,2.471 41.251,2.909 C41.954,3.348 42.167,4.273 41.729,4.976 C41.729,4.976 36.644,13.122 36.644,13.122 C36.360,13.577 35.871,13.827 35.371,13.827 Z" id="path-13" class="cls-3" fill-rule="evenodd"/>
    <path d="M22.514,13.827 C22.013,13.827 21.524,13.577 21.240,13.121 C21.240,13.121 16.156,4.975 16.156,4.975 C15.717,4.273 15.931,3.348 16.634,2.909 C17.337,2.471 18.263,2.685 18.701,3.387 C18.701,3.387 23.785,11.533 23.785,11.533 C24.223,12.236 24.009,13.162 23.306,13.600 C23.060,13.754 22.785,13.827 22.514,13.827 Z" id="path-14" class="cls-3" fill-rule="evenodd"/>
    <path d="M44.494,3.639 C44.494,5.649 42.853,7.278 40.830,7.278 C38.807,7.278 37.166,5.649 37.166,3.639 C37.166,1.630 38.807,0.001 40.830,0.001 C42.853,0.001 44.494,1.630 44.494,3.639 Z" id="path-15" class="cls-3" fill-rule="evenodd"/>
    <path d="M42.808,0.584 C43.176,1.151 43.395,1.823 43.395,2.549 C43.395,4.558 41.755,6.187 39.732,6.187 C39.002,6.187 38.325,5.969 37.754,5.603 C38.406,6.608 39.537,7.278 40.830,7.278 C42.853,7.278 44.494,5.649 44.494,3.639 C44.494,2.355 43.820,1.231 42.808,0.584 Z" id="path-16" class="cls-11" fill-rule="evenodd"/>
    <path d="M20.270,3.639 C20.270,5.649 18.629,7.278 16.605,7.278 C14.582,7.278 12.942,5.649 12.942,3.639 C12.942,1.630 14.582,0.001 16.605,0.001 C18.629,0.001 20.270,1.630 20.270,3.639 Z" id="path-17" class="cls-3" fill-rule="evenodd"/>
    <path d="M15.510,3.639 C15.510,4.243 15.017,4.732 14.409,4.732 C13.801,4.732 13.309,4.243 13.309,3.639 C13.309,3.036 13.801,2.546 14.409,2.546 C15.017,2.546 15.510,3.036 15.510,3.639 Z" id="path-18" class="cls-10" fill-rule="evenodd"/>
    <path d="M40.830,2.546 C40.830,3.150 40.337,3.639 39.729,3.639 C39.122,3.639 38.629,3.150 38.629,2.546 C38.629,1.942 39.122,1.453 39.729,1.453 C40.337,1.453 40.830,1.942 40.830,2.546 Z" id="path-19" class="cls-10" fill-rule="evenodd"/>
    <path d="M16.605,0.001 C16.417,0.001 16.237,0.029 16.057,0.055 C17.817,0.321 19.171,1.817 19.171,3.639 C19.171,5.462 17.817,6.958 16.057,7.222 C16.237,7.250 16.417,7.278 16.605,7.278 C18.629,7.278 20.270,5.649 20.270,3.639 C20.270,1.630 18.629,0.001 16.605,0.001 Z" id="path-20" class="cls-11" fill-rule="evenodd"/>
    <path d="M36.717,9.982 C38.842,12.326 40.451,14.872 41.674,18.120 C37.002,23.142 33.809,23.717 31.036,23.827 C31.036,23.827 31.036,25.835 31.036,25.835 C31.036,25.835 31.783,25.835 31.783,25.835 C35.792,25.835 43.039,21.803 42.231,19.673 C43.231,22.725 43.787,26.066 43.787,29.572 C43.787,43.968 34.498,55.637 23.039,55.637 C20.132,55.637 17.365,54.883 14.853,53.526 C18.506,57.554 23.290,60.001 28.531,60.001 C39.990,60.001 49.279,48.331 49.279,33.936 C49.279,23.194 44.104,13.972 36.717,9.982 Z" id="path-21" class="cls-11" fill-rule="evenodd"/>
  </g>
</svg>
