<svg xmlns="http://www.w3.org/2000/svg" xmlns:xlink="http://www.w3.org/1999/xlink" preserveAspectRatio="xMidYMid" width="61" height="61" viewBox="0 0 61 61">
  <defs>
    <style>

      .cls-3 {
        fill: #2476ff;
      }

      .cls-4 {
        fill: #000000;
        opacity: 0.35;
      }
    </style>
  </defs>
  <g id="group-301svg">
    <path d="M43.646,60.005 C43.646,60.005 55.157,60.005 55.157,60.005 C57.354,60.005 60.010,58.181 60.010,55.915 C60.010,55.915 60.010,4.096 60.010,4.096 C60.010,1.829 57.354,0.005 55.157,0.005 C55.157,0.005 3.339,0.005 3.339,0.005 C0.881,0.005 0.010,2.208 0.010,4.096 C0.010,4.096 0.010,55.915 0.010,55.915 C0.010,57.802 0.881,60.005 3.339,60.005 C3.339,60.005 32.737,60.005 32.737,60.005 C32.737,60.005 32.737,38.187 32.737,38.187 C32.737,38.187 23.191,38.187 23.191,38.187 C22.438,38.187 21.828,37.578 21.828,36.823 C21.828,36.823 21.828,28.642 21.828,28.642 C21.828,27.888 22.438,27.278 23.191,27.278 C23.191,27.278 32.737,27.278 32.737,27.278 C32.737,27.278 32.737,17.733 32.737,17.733 C32.737,11.079 38.634,5.460 45.612,5.460 C45.612,5.460 53.191,5.460 53.191,5.460 C53.945,5.460 54.556,6.070 54.556,6.824 C54.556,6.824 54.556,15.005 54.556,15.005 C54.556,15.759 53.945,16.369 53.191,16.369 C53.191,16.369 48.339,16.369 48.339,16.369 C46.033,16.369 43.646,17.645 43.646,19.778 C43.646,19.778 43.646,27.278 43.646,27.278 C43.646,27.278 52.430,27.278 52.430,27.278 C52.869,27.278 53.279,27.488 53.535,27.846 C53.793,28.200 53.863,28.658 53.725,29.073 C53.725,29.073 50.997,37.255 50.997,37.255 C50.811,37.811 50.289,38.187 49.703,38.187 C49.703,38.187 43.646,38.187 43.646,38.187 C43.646,38.187 43.646,60.005 43.646,60.005 Z" id="path-1" class="cls-3" fill-rule="evenodd"/>
    <path d="M49.811,25.969 C49.811,25.969 43.646,25.969 43.646,25.969 C43.646,25.969 43.646,27.278 43.646,27.278 C43.646,27.278 51.165,27.278 51.165,27.278 C51.155,27.014 51.077,26.755 50.917,26.536 C50.661,26.179 50.251,25.969 49.811,25.969 Z" id="path-2" class="cls-4" fill-rule="evenodd"/>
    <path d="M30.119,58.696 C30.119,58.696 0.776,58.696 0.776,58.696 C1.302,59.466 2.126,60.005 3.339,60.005 C3.339,60.005 32.737,60.005 32.737,60.005 C32.737,60.005 32.737,38.187 32.737,38.187 C32.737,38.187 30.119,38.187 30.119,38.187 C30.119,38.187 30.119,58.696 30.119,58.696 Z" id="path-3" class="cls-4" fill-rule="evenodd"/>
    <path d="M51.926,5.460 C51.896,4.733 51.308,4.151 50.574,4.151 C50.574,4.151 42.994,4.151 42.994,4.151 C36.016,4.151 30.119,9.770 30.119,16.424 C30.119,16.424 30.119,25.969 30.119,25.969 C30.119,25.969 20.573,25.969 20.573,25.969 C19.820,25.969 19.210,26.579 19.210,27.333 C19.210,27.333 19.210,35.514 19.210,35.514 C19.210,36.268 19.820,36.878 20.573,36.878 C20.573,36.878 21.839,36.878 21.839,36.878 C21.838,36.858 21.828,36.843 21.828,36.823 C21.828,36.823 21.828,28.642 21.828,28.642 C21.828,27.888 22.438,27.278 23.191,27.278 C23.191,27.278 32.737,27.278 32.737,27.278 C32.737,27.278 32.737,17.733 32.737,17.733 C32.737,11.079 38.634,5.460 45.612,5.460 C45.612,5.460 51.926,5.460 51.926,5.460 Z" id="path-4" class="cls-4" fill-rule="evenodd"/>
    <path d="M56.000,0.089 C56.819,0.809 57.392,1.746 57.392,2.787 C57.392,2.787 57.392,54.605 57.392,54.605 C57.392,56.872 54.736,58.696 52.539,58.696 C52.539,58.696 43.646,58.696 43.646,58.696 C43.646,58.696 43.646,60.005 43.646,60.005 C43.646,60.005 55.157,60.005 55.157,60.005 C57.354,60.005 60.010,58.181 60.010,55.915 C60.010,55.915 60.010,4.096 60.010,4.096 C60.010,2.114 57.979,0.471 56.000,0.089 Z" id="path-5" class="cls-4" fill-rule="evenodd"/>
  </g>
</svg>
