<svg xmlns="http://www.w3.org/2000/svg" xmlns:xlink="http://www.w3.org/1999/xlink" preserveAspectRatio="xMidYMid" width="25" height="61" viewBox="0 0 25 61">
  <defs>
    <style>

      .cls-3 {
        fill: #ff3a2f;
      }

      .cls-4 {
        fill: #020403;
        opacity: 0.35;
      }
    </style>
  </defs>
  <g id="group-67svg">
    <path d="M20.830,17.160 C20.830,17.160 20.830,14.226 20.830,14.226 C20.830,12.917 19.768,11.856 18.459,11.856 C18.459,11.856 15.724,11.856 15.724,11.856 C15.724,11.856 14.250,0.016 14.250,0.016 C14.250,0.016 12.292,0.016 12.292,0.016 C12.292,0.016 10.335,0.016 10.335,0.016 C10.335,0.016 8.860,11.856 8.860,11.856 C8.860,11.856 6.126,11.856 6.126,11.856 C4.816,11.856 3.755,12.917 3.755,14.226 C3.755,14.226 3.755,17.160 3.755,17.160 C1.606,17.690 0.011,19.626 0.011,21.939 C0.011,21.939 0.011,55.087 0.011,55.087 C0.011,57.809 2.218,60.015 4.940,60.015 C4.940,60.015 19.644,60.015 19.644,60.015 C20.173,60.015 20.682,59.930 21.159,59.776 C23.140,59.136 24.573,57.279 24.573,55.087 C24.573,55.087 24.573,21.939 24.573,21.939 C24.573,19.626 22.978,17.691 20.830,17.160 Z" id="path-1" class="cls-3" fill-rule="evenodd"/>
    <path d="M20.830,17.160 C20.830,17.160 20.830,14.226 20.830,14.226 C20.830,12.917 19.768,11.856 18.459,11.856 C18.459,11.856 15.724,11.856 15.724,11.856 C15.724,11.856 14.250,0.016 14.250,0.016 C14.250,0.016 12.292,0.016 12.292,0.016 C12.292,0.016 10.335,0.016 10.335,0.016 C10.335,0.016 10.110,1.818 10.110,1.818 C10.110,1.818 11.360,11.856 11.360,11.856 C11.360,11.856 14.095,11.856 14.095,11.856 C15.404,11.856 16.466,12.917 16.466,14.226 C16.466,14.226 16.466,17.160 16.466,17.160 C18.615,17.691 20.209,19.626 20.209,21.939 C20.209,21.939 20.209,55.086 20.209,55.086 C20.209,57.279 18.776,59.136 16.796,59.776 C16.318,59.929 15.810,60.015 15.281,60.015 C15.281,60.015 19.644,60.015 19.644,60.015 C20.173,60.015 20.682,59.929 21.159,59.776 C23.140,59.136 24.573,57.279 24.573,55.086 C24.573,55.086 24.573,21.939 24.573,21.939 C24.573,19.626 22.978,17.691 20.830,17.160 Z" id="path-2" class="cls-4" fill-rule="evenodd"/>
  </g>
</svg>
