<svg xmlns="http://www.w3.org/2000/svg" xmlns:xlink="http://www.w3.org/1999/xlink" preserveAspectRatio="xMidYMid" width="38" height="60" viewBox="0 0 38 60">
  <defs>
    <style>

      .cls-3 {
        fill: #142a3b;
      }

      .cls-4 {
        fill: #020403;
        opacity: 0.35;
      }

      .cls-5 {
        fill: #ff3a2f;
      }

      .cls-6 {
        fill: #ffffff;
      }

      .cls-8 {
        fill: #fbb713;
      }
    </style>
  </defs>
  <g id="group-40svg">
    <path d="M24.208,-0.014 C24.208,-0.014 13.849,-0.010 13.849,-0.010 C11.873,-0.008 10.267,1.600 10.268,3.575 C10.268,3.575 10.274,14.204 10.274,14.204 C10.274,14.204 11.914,14.203 11.914,14.203 C11.914,14.203 13.553,14.202 13.553,14.202 C13.553,14.202 24.519,14.196 24.519,14.196 C24.519,14.196 26.159,14.196 26.159,14.196 C26.159,14.196 27.798,14.195 27.798,14.195 C27.798,14.195 27.793,3.567 27.793,3.567 C27.792,1.592 26.183,-0.015 24.208,-0.014 Z" id="path-1" class="cls-3" fill-rule="evenodd"/>
    <path d="M27.793,3.567 C27.792,1.592 26.183,-0.015 24.208,-0.014 C24.208,-0.014 20.398,-0.012 20.398,-0.012 C22.363,-0.002 23.962,1.599 23.963,3.567 C23.963,3.567 23.969,14.195 23.969,14.195 C23.969,14.195 22.329,14.196 22.329,14.196 C22.329,14.196 20.689,14.196 20.689,14.196 C20.689,14.196 10.274,14.202 10.274,14.202 C10.274,14.202 10.274,14.204 10.274,14.204 C10.274,14.204 11.914,14.203 11.914,14.203 C11.914,14.203 13.553,14.202 13.553,14.202 C13.553,14.202 24.519,14.196 24.519,14.196 C24.519,14.196 26.159,14.196 26.159,14.196 C26.159,14.196 27.798,14.195 27.798,14.195 C27.798,14.195 27.793,3.567 27.793,3.567 Z" id="path-2" class="cls-4" fill-rule="evenodd"/>
    <path d="M31.694,13.182 C31.694,13.182 6.381,13.195 6.381,13.195 C2.857,13.196 -0.006,16.066 -0.004,19.586 C-0.004,19.586 0.014,53.603 0.014,53.603 C0.016,57.123 2.885,59.987 6.405,59.986 C6.405,59.986 31.717,59.973 31.717,59.973 C35.240,59.971 38.103,57.102 38.101,53.583 C38.101,53.583 38.084,19.566 38.084,19.566 C38.081,16.046 35.216,13.183 31.694,13.182 Z" id="path-3" class="cls-5" fill-rule="evenodd"/>
    <path d="M3.844,34.177 C3.292,34.177 2.845,33.730 2.844,33.179 C2.844,33.179 2.826,23.418 2.826,23.418 C2.825,21.447 3.593,19.592 4.989,18.194 C6.385,16.796 8.239,16.026 10.210,16.025 C10.210,16.025 10.211,16.025 10.211,16.025 C10.763,16.025 11.210,16.472 11.211,17.024 C11.211,17.577 10.764,18.024 10.211,18.025 C8.775,18.025 7.422,18.588 6.404,19.607 C5.386,20.627 4.825,21.980 4.826,23.415 C4.826,23.415 4.844,33.175 4.844,33.175 C4.845,33.728 4.398,34.176 3.846,34.177 C3.845,34.177 3.844,34.177 3.844,34.177 Z" id="path-4" class="cls-6" fill-rule="evenodd"/>
    <path d="M38.084,19.566 C38.081,16.046 35.216,13.183 31.694,13.182 C31.694,13.182 24.073,13.186 24.073,13.186 C27.577,13.209 30.421,16.059 30.424,19.566 C30.424,19.566 30.442,53.583 30.442,53.583 C30.444,57.102 27.581,59.971 24.057,59.973 C24.057,59.973 6.366,59.982 6.366,59.982 C6.379,59.982 6.392,59.986 6.405,59.986 C6.405,59.986 31.717,59.973 31.717,59.973 C35.240,59.971 38.103,57.102 38.101,53.583 C38.101,53.583 38.084,19.566 38.084,19.566 Z" id="path-5" class="cls-4" fill-rule="evenodd"/>
    <path d="M24.709,29.836 C24.985,29.225 25.468,28.522 26.058,27.925 C26.653,27.338 27.358,26.855 27.969,26.578 C28.571,26.289 29.091,26.214 29.091,26.214 C29.091,26.214 29.016,26.732 28.728,27.335 C28.450,27.947 27.970,28.652 27.382,29.249 C26.787,29.838 26.084,30.322 25.471,30.601 C24.868,30.889 24.350,30.962 24.350,30.962 C24.350,30.962 24.423,30.438 24.709,29.836 Z" id="path-6" class="cls-8" fill-rule="evenodd"/>
    <path d="M18.507,23.107 C18.729,22.477 19.042,22.057 19.042,22.057 C19.042,22.057 19.355,22.477 19.579,23.106 C19.817,23.736 19.975,24.575 19.979,25.413 C19.976,26.249 19.820,27.089 19.583,27.719 C19.360,28.348 19.046,28.767 19.046,28.767 C19.046,28.767 18.730,28.349 18.507,27.719 C18.269,27.088 18.113,26.250 18.107,25.414 C18.112,24.576 18.269,23.735 18.507,23.107 Z" id="path-7" class="cls-8" fill-rule="evenodd"/>
    <path d="M10.117,26.586 C10.731,26.861 11.434,27.344 12.031,27.932 C12.618,28.531 13.102,29.234 13.378,29.845 C13.667,30.450 13.743,30.967 13.743,30.967 C13.743,30.967 13.225,30.892 12.622,30.601 C12.009,30.326 11.305,29.843 10.708,29.258 C10.119,28.661 9.635,27.960 9.356,27.347 C9.069,26.744 8.995,26.224 8.995,26.224 C8.995,26.224 9.515,26.297 10.117,26.586 Z" id="path-8" class="cls-8" fill-rule="evenodd"/>
    <path d="M5.888,36.811 C5.258,36.585 4.840,36.274 4.840,36.274 C4.840,36.274 5.258,35.960 5.888,35.736 C6.517,35.497 7.356,35.343 8.194,35.338 C9.032,35.342 9.872,35.497 10.500,35.736 C11.131,35.959 11.550,36.270 11.550,36.270 C11.550,36.270 11.130,36.584 10.500,36.806 C9.873,37.042 9.033,37.198 8.195,37.207 C7.357,37.201 6.518,37.050 5.888,36.811 Z" id="path-9" class="cls-8" fill-rule="evenodd"/>
    <path d="M13.390,42.694 C13.113,43.306 12.631,44.014 12.042,44.609 C11.444,45.198 10.743,45.682 10.130,45.958 C9.528,46.247 9.008,46.323 9.008,46.323 C9.008,46.323 9.082,45.800 9.369,45.196 C9.644,44.584 10.127,43.881 10.717,43.283 C11.312,42.695 12.017,42.211 12.632,41.935 C13.233,41.649 13.751,41.572 13.751,41.572 C13.751,41.572 13.676,42.093 13.390,42.694 Z" id="path-10" class="cls-8" fill-rule="evenodd"/>
    <path d="M19.594,49.428 C19.372,50.056 19.057,50.476 19.057,50.476 C19.057,50.476 18.742,50.056 18.519,49.428 C18.280,48.796 18.124,47.961 18.119,47.123 C18.124,46.287 18.280,45.447 18.518,44.819 C18.740,44.186 19.053,43.766 19.053,43.766 C19.053,43.766 19.367,44.182 19.590,44.817 C19.828,45.445 19.986,46.281 19.990,47.122 C19.987,47.958 19.831,48.796 19.594,49.428 Z" id="path-11" class="cls-8" fill-rule="evenodd"/>
    <path d="M27.979,45.949 C27.368,45.671 26.662,45.191 26.063,44.602 C25.475,44.009 24.990,43.303 24.714,42.693 C24.426,42.086 24.352,41.566 24.352,41.566 C24.352,41.566 24.871,41.640 25.475,41.928 C26.090,42.203 26.793,42.687 27.389,43.275 C27.978,43.871 28.462,44.578 28.735,45.190 C29.023,45.794 29.099,46.312 29.099,46.312 C29.099,46.312 28.583,46.234 27.979,45.949 Z" id="path-12" class="cls-8" fill-rule="evenodd"/>
    <path d="M32.211,36.794 C31.580,37.031 30.743,37.187 29.904,37.196 C29.066,37.189 28.228,37.038 27.599,36.800 C26.968,36.574 26.549,36.262 26.549,36.262 C26.549,36.262 26.969,35.949 27.599,35.724 C28.228,35.486 29.067,35.332 29.904,35.326 C30.741,35.331 31.580,35.486 32.211,35.725 C32.841,35.948 33.259,36.259 33.259,36.259 C33.259,36.259 32.841,36.569 32.211,36.794 Z" id="path-13" class="cls-8" fill-rule="evenodd"/>
    <path d="M23.827,35.338 C23.827,37.985 21.681,40.132 19.033,40.132 C16.386,40.132 14.239,37.985 14.239,35.338 C14.239,32.690 16.386,30.543 19.033,30.543 C21.681,30.543 23.827,32.690 23.827,35.338 Z" id="path-14" class="cls-8" fill-rule="evenodd"/>
  </g>
</svg>
