<svg xmlns="http://www.w3.org/2000/svg" xmlns:xlink="http://www.w3.org/1999/xlink" preserveAspectRatio="xMidYMid" width="60" height="58" viewBox="0 0 60 58">
  <defs>
    <style>

      .cls-3 {
        fill: #fbb713;
      }

      .cls-4 {
        fill: #020403;
      }

      .cls-14 {
        fill: #020403;
        opacity: 0.35;
      }
    </style>
  </defs>
  <g id="group-47svg">
    <path d="M41.719,17.266 C41.719,17.266 57.455,19.322 57.455,19.322 C59.840,19.633 60.833,22.543 59.135,24.247 C59.135,24.247 47.932,35.488 47.932,35.488 C47.258,36.164 46.959,37.129 47.135,38.068 C47.135,38.068 50.043,53.669 50.043,53.669 C50.484,56.033 48.022,57.876 45.878,56.789 C45.878,56.789 31.726,49.607 31.726,49.607 C30.874,49.175 29.864,49.190 29.025,49.646 C29.025,49.646 15.086,57.234 15.086,57.234 C12.974,58.383 10.461,56.612 10.833,54.236 C10.833,54.236 13.289,38.557 13.289,38.557 C13.437,37.613 13.111,36.658 12.418,36.001 C12.418,36.001 0.894,25.089 0.894,25.089 C-0.852,23.435 0.056,20.498 2.430,20.118 C2.430,20.118 18.102,17.608 18.102,17.608 C19.044,17.457 19.852,16.852 20.263,15.990 C20.263,15.990 27.080,1.658 27.080,1.658 C28.113,-0.513 31.187,-0.558 32.283,1.582 C32.283,1.582 39.512,15.712 39.512,15.712 C39.946,16.562 40.772,17.143 41.719,17.266 Z" id="path-1" class="cls-3" fill-rule="evenodd"/>
    <path d="M30.626,12.302 C30.626,12.302 30.852,12.615 31.029,13.083 C31.218,13.552 31.368,14.177 31.411,14.802 C31.439,15.114 31.434,15.427 31.367,15.720 C31.301,16.013 31.200,16.286 31.112,16.520 C30.933,16.990 30.876,17.302 30.876,17.302 C30.841,17.495 30.656,17.623 30.462,17.588 C30.313,17.560 30.202,17.443 30.176,17.302 C30.176,17.302 30.120,16.990 29.940,16.520 C29.852,16.286 29.751,16.013 29.686,15.720 C29.619,15.427 29.613,15.114 29.642,14.802 C29.684,14.177 29.835,13.552 30.023,13.083 C30.201,12.615 30.426,12.302 30.426,12.302 C30.466,12.247 30.543,12.234 30.599,12.274 C30.609,12.282 30.619,12.291 30.626,12.302 Z" id="path-2" class="cls-4" fill-rule="evenodd"/>
    <path d="M31.601,22.302 C31.601,22.302 31.607,23.251 31.357,24.201 C31.251,24.675 31.083,25.150 30.925,25.506 C30.768,25.862 30.626,26.100 30.626,26.100 C30.593,26.155 30.521,26.173 30.467,26.139 C30.450,26.130 30.435,26.115 30.426,26.100 C30.426,26.100 30.285,25.862 30.127,25.506 C29.970,25.150 29.801,24.675 29.696,24.201 C29.446,23.251 29.451,22.302 29.451,22.302 C29.454,21.708 29.938,21.229 30.532,21.232 C31.122,21.236 31.598,21.714 31.601,22.302 Z" id="path-3" class="cls-4" fill-rule="evenodd"/>
    <path d="M19.098,46.688 C19.098,46.688 19.159,46.308 19.365,45.851 C19.563,45.387 19.898,44.837 20.310,44.366 C20.511,44.124 20.736,43.907 20.990,43.747 C21.244,43.587 21.509,43.465 21.737,43.362 C22.195,43.157 22.456,42.976 22.456,42.976 C22.618,42.865 22.839,42.904 22.951,43.066 C23.038,43.191 23.032,43.352 22.951,43.471 C22.951,43.471 22.770,43.732 22.565,44.190 C22.462,44.418 22.340,44.683 22.180,44.936 C22.020,45.191 21.803,45.416 21.561,45.616 C21.089,46.028 20.541,46.364 20.076,46.562 C19.619,46.768 19.239,46.830 19.239,46.830 C19.171,46.841 19.108,46.795 19.098,46.727 C19.095,46.715 19.095,46.701 19.098,46.688 Z" id="path-4" class="cls-4" fill-rule="evenodd"/>
    <path d="M25.479,38.928 C25.479,38.928 26.146,38.253 26.995,37.758 C27.405,37.497 27.860,37.281 28.223,37.140 C28.585,37.000 28.853,36.932 28.853,36.932 C28.916,36.916 28.979,36.954 28.995,37.017 C29.000,37.036 28.999,37.055 28.995,37.074 C28.995,37.074 28.928,37.342 28.787,37.704 C28.646,38.068 28.430,38.522 28.169,38.933 C27.674,39.780 26.999,40.449 26.999,40.449 C26.577,40.866 25.896,40.862 25.479,40.440 C25.064,40.020 25.065,39.346 25.479,38.928 Z" id="path-5" class="cls-4" fill-rule="evenodd"/>
    <path d="M33.115,37.007 C33.115,37.007 33.494,37.071 33.950,37.277 C34.415,37.475 34.962,37.812 35.436,38.222 C35.676,38.425 35.899,38.643 36.061,38.895 C36.225,39.146 36.348,39.409 36.453,39.636 C36.656,40.096 36.833,40.360 36.833,40.360 C36.946,40.528 36.901,40.755 36.733,40.868 C36.606,40.953 36.446,40.947 36.327,40.868 C36.327,40.868 36.061,40.690 35.602,40.487 C35.376,40.382 35.112,40.259 34.862,40.095 C34.609,39.933 34.391,39.709 34.188,39.470 C33.778,38.996 33.441,38.449 33.244,37.984 C33.037,37.528 32.974,37.149 32.974,37.149 C32.963,37.081 33.008,37.019 33.075,37.007 C33.088,37.005 33.103,37.006 33.115,37.007 Z" id="path-6" class="cls-4" fill-rule="evenodd"/>
    <path d="M40.874,43.391 C40.874,43.391 41.057,43.556 41.298,43.837 C41.539,44.118 41.841,44.512 42.103,44.945 C42.376,45.368 42.602,45.838 42.751,46.211 C42.898,46.586 42.970,46.862 42.970,46.862 C42.986,46.924 42.949,46.987 42.887,47.004 C42.867,47.008 42.847,47.008 42.829,47.004 C42.829,47.004 42.552,46.932 42.177,46.785 C41.804,46.636 41.334,46.411 40.911,46.137 C40.478,45.874 40.084,45.572 39.803,45.332 C39.522,45.091 39.357,44.908 39.357,44.908 C38.960,44.466 38.997,43.787 39.437,43.391 C39.849,43.021 40.471,43.031 40.874,43.391 Z" id="path-7" class="cls-4" fill-rule="evenodd"/>
    <path d="M37.482,31.239 C37.482,31.239 37.638,30.887 37.953,30.497 C38.262,30.098 38.726,29.652 39.244,29.300 C39.498,29.116 39.771,28.963 40.058,28.873 C40.344,28.782 40.631,28.732 40.878,28.689 C41.373,28.607 41.671,28.497 41.671,28.497 C41.855,28.431 42.060,28.526 42.127,28.710 C42.179,28.853 42.133,29.008 42.024,29.102 C42.024,29.102 41.784,29.309 41.470,29.700 C41.311,29.894 41.127,30.120 40.907,30.324 C40.688,30.531 40.421,30.693 40.137,30.826 C39.576,31.105 38.961,31.290 38.461,31.365 C37.967,31.449 37.583,31.412 37.583,31.412 C37.516,31.406 37.466,31.345 37.472,31.277 C37.474,31.264 37.477,31.251 37.482,31.239 Z" id="path-8" class="cls-4" fill-rule="evenodd"/>
    <path d="M45.620,25.346 C45.620,25.346 46.437,24.862 47.382,24.599 C47.845,24.450 48.340,24.355 48.726,24.311 C49.113,24.267 49.390,24.270 49.390,24.270 C49.454,24.270 49.506,24.323 49.505,24.387 C49.505,24.407 49.499,24.426 49.491,24.442 C49.491,24.442 49.357,24.684 49.130,25.000 C48.902,25.316 48.578,25.701 48.221,26.032 C47.528,26.727 46.706,27.202 46.706,27.202 C46.192,27.499 45.534,27.323 45.237,26.809 C44.942,26.299 45.114,25.646 45.620,25.346 Z" id="path-9" class="cls-4" fill-rule="evenodd"/>
    <path d="M10.190,24.218 C10.190,24.218 10.573,24.182 11.066,24.267 C11.566,24.341 12.181,24.529 12.743,24.804 C13.026,24.940 13.298,25.095 13.518,25.298 C13.740,25.499 13.926,25.723 14.084,25.915 C14.397,26.309 14.636,26.520 14.636,26.520 C14.787,26.654 14.801,26.885 14.667,27.036 C14.566,27.150 14.410,27.185 14.274,27.139 C14.274,27.139 13.973,27.035 13.477,26.954 C13.231,26.910 12.945,26.857 12.661,26.762 C12.376,26.670 12.108,26.509 11.851,26.328 C11.335,25.974 10.871,25.529 10.562,25.130 C10.246,24.740 10.089,24.390 10.089,24.390 C10.062,24.328 10.089,24.255 10.151,24.228 C10.164,24.222 10.177,24.219 10.190,24.218 Z" id="path-10" class="cls-4" fill-rule="evenodd"/>
    <path d="M19.312,28.429 C19.312,28.429 19.531,28.543 19.835,28.754 C20.139,28.965 20.531,29.269 20.894,29.622 C21.266,29.962 21.603,30.359 21.842,30.683 C22.079,31.008 22.218,31.258 22.218,31.258 C22.249,31.313 22.229,31.384 22.173,31.415 C22.156,31.425 22.136,31.430 22.117,31.430 C22.117,31.430 21.832,31.431 21.432,31.384 C21.033,31.334 20.521,31.234 20.043,31.077 C19.557,30.933 19.100,30.740 18.767,30.578 C18.434,30.416 18.228,30.281 18.228,30.281 C17.733,29.955 17.596,29.288 17.922,28.793 C18.227,28.331 18.831,28.183 19.312,28.429 Z" id="path-11" class="cls-4" fill-rule="evenodd"/>
    <path d="M49.440,56.031 C49.440,56.031 30.526,35.094 30.526,35.094 C30.526,35.094 30.526,49.301 30.526,49.301 C30.526,49.301 30.543,49.311 30.543,49.311 C30.949,49.330 31.353,49.418 31.726,49.607 C31.726,49.607 45.878,56.789 45.878,56.789 C47.196,57.457 48.630,57.017 49.440,56.031 C49.440,56.031 49.440,56.031 49.440,56.031 Z" id="path-12" class="cls-14" fill-rule="evenodd"/>
    <path d="M11.428,56.570 C11.428,56.570 30.526,35.094 30.526,35.094 C30.526,35.094 30.526,49.301 30.526,49.301 C30.526,49.301 30.326,49.311 30.326,49.311 C29.920,49.330 29.516,49.418 29.143,49.607 C29.143,49.607 14.990,57.327 14.990,57.327 C13.673,57.995 12.239,57.555 11.428,56.570 C11.428,56.570 11.428,56.570 11.428,56.570 Z" id="path-13" class="cls-14" fill-rule="evenodd"/>
    <path d="M29.985,24.356 C29.985,24.356 29.985,0.042 29.985,0.042 C28.845,-0.068 27.651,0.457 27.080,1.658 C27.080,1.658 20.263,15.990 20.263,15.990 C20.090,16.352 19.836,16.655 19.542,16.912 C19.542,16.912 29.985,24.356 29.985,24.356 Z" id="path-14" class="cls-14" fill-rule="evenodd"/>
    <path d="M25.782,32.128 C25.782,32.128 0.223,21.847 0.223,21.847 C-0.218,22.893 -0.063,24.183 0.894,25.089 C0.894,25.089 12.418,36.001 12.418,36.001 C13.077,36.625 13.390,37.520 13.294,38.418 C13.294,38.418 25.782,32.128 25.782,32.128 Z" id="path-15" class="cls-14" fill-rule="evenodd"/>
    <path d="M34.542,31.669 C34.542,31.669 59.749,21.115 59.749,21.115 C60.191,22.160 60.035,23.450 59.079,24.356 C59.079,24.356 47.907,35.542 47.907,35.542 C47.248,36.165 46.935,37.060 47.031,37.958 C47.031,37.958 34.542,31.669 34.542,31.669 Z" id="path-16" class="cls-14" fill-rule="evenodd"/>
  </g>
</svg>
