<svg xmlns="http://www.w3.org/2000/svg" xmlns:xlink="http://www.w3.org/1999/xlink" preserveAspectRatio="xMidYMid" width="60" height="60" viewBox="0 0 60 60">
  <defs>
    <style>

      .cls-3 {
        fill: #142a3b;
      }

      .cls-6 {
        fill: #0cb04a;
      }

      .cls-7 {
        fill: #000000;
        opacity: 0.35;
      }

      .cls-8 {
        fill: #fbb713;
      }

      .cls-9 {
        fill: #000000;
        opacity: 0.25;
      }
    </style>
  </defs>
  <g id="group-222svg">
    <path d="M53.688,60.004 C53.688,60.004 53.238,60.004 53.238,60.004 C52.980,60.004 52.772,59.795 52.772,59.538 C52.772,59.538 52.772,54.405 52.772,54.405 C52.772,54.148 52.980,53.939 53.238,53.939 C53.238,53.939 53.688,53.939 53.688,53.939 C53.946,53.939 54.154,54.148 54.154,54.405 C54.154,54.405 54.154,59.538 54.154,59.538 C54.154,59.795 53.946,60.004 53.688,60.004 Z" id="path-1" class="cls-3" fill-rule="evenodd"/>
    <path d="M6.908,60.004 C6.908,60.004 6.457,60.004 6.457,60.004 C6.200,60.004 5.992,59.795 5.992,59.538 C5.992,59.538 5.992,54.405 5.992,54.405 C5.992,54.148 6.200,53.939 6.457,53.939 C6.457,53.939 6.908,53.939 6.908,53.939 C7.166,53.939 7.375,54.148 7.375,54.405 C7.375,54.405 7.375,59.538 7.375,59.538 C7.375,59.795 7.166,60.004 6.908,60.004 Z" id="path-2" class="cls-3" fill-rule="evenodd"/>
    <path d="M30.298,60.004 C30.298,60.004 29.848,60.004 29.848,60.004 C29.590,60.004 29.382,59.795 29.382,59.538 C29.382,59.538 29.382,54.405 29.382,54.405 C29.382,54.148 29.590,53.939 29.848,53.939 C29.848,53.939 30.298,53.939 30.298,53.939 C30.556,53.939 30.765,54.148 30.765,54.405 C30.765,54.405 30.765,59.538 30.765,59.538 C30.765,59.795 30.556,60.004 30.298,60.004 Z" id="path-3" class="cls-3" fill-rule="evenodd"/>
    <path d="M29.271,13.993 C29.271,13.993 29.271,55.239 29.271,55.239 C29.271,55.239 59.684,55.239 59.684,55.239 C59.684,55.239 59.684,54.083 59.684,54.083 C59.684,54.083 59.684,52.700 59.684,52.700 C59.684,52.700 59.684,13.993 59.684,13.993 C59.684,5.003 51.770,0.004 42.404,0.004 C42.404,0.004 13.865,0.256 13.865,0.256 C23.013,0.256 29.271,4.846 29.271,13.993 Z" id="path-4" class="cls-6" fill-rule="evenodd"/>
    <path d="M29.271,13.993 C29.271,13.993 29.271,55.239 29.271,55.239 C29.271,55.239 59.684,55.239 59.684,55.239 C59.684,55.239 59.684,54.083 59.684,54.083 C59.684,54.083 59.684,52.700 59.684,52.700 C59.684,52.700 59.684,13.993 59.684,13.993 C59.684,13.993 29.271,13.993 29.271,13.993 Z" id="path-5" class="cls-7" fill-rule="evenodd"/>
    <path d="M30.405,55.239 C30.405,55.239 30.405,13.993 30.405,13.993 C30.405,6.371 24.203,0.170 16.581,0.170 C16.581,0.170 7.431,0.170 7.431,0.170 C2.953,3.145 -0.008,8.226 -0.008,13.993 C-0.008,13.993 -0.008,52.700 -0.008,52.700 C-0.008,52.700 -0.008,54.083 -0.008,54.083 C-0.008,54.083 -0.008,55.239 -0.008,55.239 C-0.008,55.239 30.405,55.239 30.405,55.239 Z" id="path-6" class="cls-8" fill-rule="evenodd"/>
    <path d="M16.581,0.170 C16.581,0.170 10.084,0.170 10.084,0.170 C17.706,0.170 23.908,6.371 23.908,13.993 C23.908,13.993 23.908,55.239 23.908,55.239 C23.908,55.239 30.405,55.239 30.405,55.239 C30.405,55.239 30.405,13.993 30.405,13.993 C30.405,6.371 24.203,0.170 16.581,0.170 Z" id="path-7" class="cls-9" fill-rule="evenodd"/>
    <path d="M22.521,16.758 C22.521,16.758 10.641,16.758 10.641,16.758 C10.641,16.758 16.581,21.850 16.581,21.850 C16.581,21.850 22.521,16.758 22.521,16.758 Z" id="path-8" class="cls-3" fill-rule="evenodd"/>
    <path d="M17.480,24.721 C17.222,24.942 16.901,25.053 16.581,25.053 C16.261,25.053 15.940,24.942 15.682,24.721 C15.682,24.721 8.287,18.384 8.287,18.384 C8.287,18.384 8.287,30.582 8.287,30.582 C8.287,30.582 24.875,30.582 24.875,30.582 C24.875,30.582 24.875,18.384 24.875,18.384 C24.875,18.384 17.480,24.721 17.480,24.721 Z" id="path-9" class="cls-3" fill-rule="evenodd"/>
    <path d="M26.341,31.965 C26.341,32.729 25.723,33.347 24.958,33.347 C24.958,33.347 5.605,33.347 5.605,33.347 C4.841,33.347 4.223,32.729 4.223,31.965 C4.223,31.965 4.223,15.376 4.223,15.376 C4.223,15.308 4.252,15.252 4.260,15.187 C4.274,15.090 4.285,14.993 4.318,14.901 C4.355,14.804 4.410,14.723 4.465,14.636 C4.500,14.585 4.514,14.525 4.556,14.477 C4.567,14.464 4.583,14.458 4.595,14.447 C4.665,14.369 4.754,14.312 4.841,14.253 C4.904,14.210 4.959,14.161 5.028,14.129 C5.105,14.091 5.192,14.080 5.275,14.061 C5.367,14.037 5.456,14.009 5.551,14.004 C5.570,14.004 5.586,13.993 5.605,13.993 C5.605,13.993 24.958,13.993 24.958,13.993 C24.977,13.993 24.993,14.004 25.012,14.004 C25.109,14.009 25.199,14.037 25.293,14.061 C25.374,14.083 25.459,14.091 25.535,14.129 C25.603,14.161 25.660,14.212 25.726,14.258 C25.811,14.315 25.898,14.372 25.968,14.447 C25.980,14.458 25.997,14.464 26.007,14.477 C26.049,14.525 26.062,14.585 26.098,14.636 C26.153,14.723 26.208,14.804 26.245,14.901 C26.279,14.993 26.289,15.090 26.303,15.187 C26.311,15.252 26.341,15.308 26.341,15.376 C26.341,15.376 26.341,31.965 26.341,31.965 Z" id="path-10" class="cls-3" fill-rule="evenodd"/>
    <path d="M34.801,13.993 C34.801,13.993 51.390,13.993 51.390,13.993 C52.154,13.993 52.772,14.612 52.772,15.376 C52.772,16.140 52.154,16.758 51.390,16.758 C51.390,16.758 34.801,16.758 34.801,16.758 C34.037,16.758 33.418,16.140 33.418,15.376 C33.418,14.612 34.037,13.993 34.801,13.993 Z" id="path-11" class="cls-3" fill-rule="evenodd"/>
    <path d="M52.772,22.288 C52.772,22.288 33.418,22.288 33.418,22.288 C32.654,22.288 32.036,22.906 32.036,23.670 C32.036,23.670 32.036,40.259 32.036,40.259 C32.036,41.023 32.654,41.642 33.418,41.642 C33.418,41.642 52.772,41.642 52.772,41.642 C53.536,41.642 54.154,41.023 54.154,40.259 C54.154,40.259 54.154,23.670 54.154,23.670 C54.154,22.906 53.536,22.288 52.772,22.288 ZM51.390,38.877 C51.390,38.877 34.801,38.877 34.801,38.877 C34.801,38.877 34.801,25.053 34.801,25.053 C34.801,25.053 51.390,25.053 51.390,25.053 C51.390,25.053 51.390,38.877 51.390,38.877 Z" id="path-12" class="cls-3" fill-rule="evenodd"/>
  </g>
</svg>
