<svg xmlns="http://www.w3.org/2000/svg" xmlns:xlink="http://www.w3.org/1999/xlink" preserveAspectRatio="xMidYMid" width="26" height="61" viewBox="0 0 26 61">
  <defs>
    <style>

      .cls-3 {
        fill: #fbb713;
      }

      .cls-4 {
        fill: #020403;
        opacity: 0.35;
      }

      .cls-5 {
        fill: #ff3a2f;
      }

      .cls-7 {
        fill: #ffffff;
      }
    </style>
  </defs>
  <g id="group-113svg">
    <path d="M5.919,13.264 C5.919,13.264 5.919,36.348 5.919,36.348 C2.269,38.606 0.016,42.614 0.016,47.198 C0.016,54.260 5.750,59.985 12.864,59.985 C19.976,59.985 25.589,54.260 25.589,47.198 C25.589,42.674 23.217,38.708 19.646,36.435 C19.646,36.435 19.646,6.964 19.646,6.964 C19.646,3.110 16.572,-0.015 12.781,-0.015 C8.991,-0.015 5.919,3.110 5.919,6.964 C5.919,6.964 5.919,8.018 5.919,8.018 C5.919,8.018 5.919,13.264 5.919,13.264 Z" id="path-1" class="cls-3" fill-rule="evenodd"/>
    <path d="M19.646,36.435 C19.646,36.435 19.646,6.964 19.646,6.964 C19.646,3.110 16.572,-0.015 12.781,-0.015 C12.274,-0.015 11.782,0.045 11.306,0.151 C14.387,0.838 16.694,3.626 16.694,6.964 C16.694,6.964 16.694,36.435 16.694,36.435 C20.266,38.708 22.639,42.674 22.639,47.198 C22.639,53.764 17.784,59.167 11.388,59.895 C11.873,59.950 12.364,59.985 12.864,59.985 C19.976,59.985 25.589,54.260 25.589,47.198 C25.589,42.674 23.217,38.708 19.646,36.435 Z" id="path-2" class="cls-4" fill-rule="evenodd"/>
    <path d="M15.604,39.124 C15.604,39.124 15.604,28.182 15.604,28.182 C15.604,26.579 14.370,26.215 12.853,26.215 C11.335,26.215 10.000,26.681 10.000,28.284 C10.000,28.284 10.000,39.124 10.000,39.124 C7.061,40.252 4.972,43.093 4.972,46.429 C4.972,50.754 8.477,54.260 12.802,54.260 C17.127,54.260 20.633,50.754 20.633,46.429 C20.633,43.093 18.543,40.252 15.604,39.124 Z" id="path-3" class="cls-5" fill-rule="evenodd"/>
    <path d="M15.604,39.124 C15.604,39.124 15.604,28.182 15.604,28.182 C15.604,26.579 14.370,26.215 12.853,26.215 C12.527,26.215 12.213,26.242 11.915,26.292 C12.923,26.463 13.637,26.965 13.637,28.182 C13.637,28.182 13.637,39.124 13.637,39.124 C16.576,40.252 18.666,43.093 18.666,46.429 C18.666,50.420 15.678,53.706 11.819,54.191 C12.142,54.232 12.469,54.260 12.802,54.260 C17.127,54.260 20.633,50.754 20.633,46.429 C20.633,43.093 18.543,40.252 15.604,39.124 Z" id="path-4" class="cls-4" fill-rule="evenodd"/>
    <path d="M11.531,48.522 C11.531,49.473 10.761,50.243 9.810,50.243 C8.859,50.243 8.089,49.473 8.089,48.522 C8.089,47.571 8.859,46.801 9.810,46.801 C10.761,46.801 11.531,47.571 11.531,48.522 Z" id="path-5" class="cls-7" fill-rule="evenodd"/>
    <path d="M12.774,37.842 C12.222,37.842 11.774,37.394 11.774,36.842 C11.774,36.842 11.774,7.702 11.774,7.702 C11.774,7.150 12.222,6.703 12.774,6.703 C13.327,6.703 13.774,7.150 13.774,7.702 C13.774,7.702 13.774,36.842 13.774,36.842 C13.774,37.394 13.327,37.842 12.774,37.842 Z" id="path-6" class="cls-7" fill-rule="evenodd"/>
  </g>
</svg>
