<svg xmlns="http://www.w3.org/2000/svg" xmlns:xlink="http://www.w3.org/1999/xlink" preserveAspectRatio="xMidYMid" width="60" height="39" viewBox="0 0 60 39">
  <defs>
    <style>

      .cls-3 {
        fill: #142a3b;
      }

      .cls-4 {
        fill: #000000;
        opacity: 0.35;
      }

      .cls-5 {
        fill: #fbb713;
      }

      .cls-6 {
        fill: #ffffff;
      }

      .cls-7 {
        fill: #010101;
        opacity: 0.25;
      }
    </style>
  </defs>
  <g id="group-258svg">
    <path d="M49.829,38.374 C49.829,38.374 9.964,38.374 9.964,38.374 C9.964,38.374 -0.003,25.248 -0.003,25.248 C-0.003,25.248 59.795,25.248 59.795,25.248 C59.795,25.248 49.829,38.374 49.829,38.374 Z" id="path-1" class="cls-3" fill-rule="evenodd"/>
    <path d="M52.684,25.248 C52.684,25.248 48.739,30.444 48.739,30.444 C45.989,34.065 41.704,36.192 37.157,36.192 C37.157,36.192 8.307,36.192 8.307,36.192 C8.307,36.192 9.964,38.374 9.964,38.374 C9.964,38.374 49.829,38.374 49.829,38.374 C49.829,38.374 59.795,25.248 59.795,25.248 C59.795,25.248 52.684,25.248 52.684,25.248 Z" id="path-2" class="cls-4" fill-rule="evenodd"/>
    <path d="M47.161,25.248 C47.938,23.196 48.383,20.980 48.383,18.656 C48.383,8.355 40.032,0.004 29.730,0.004 C19.429,0.004 11.078,8.355 11.078,18.656 C11.078,20.980 11.522,23.196 12.299,25.248 C12.299,25.248 47.161,25.248 47.161,25.248 Z" id="path-3" class="cls-5" fill-rule="evenodd"/>
    <path d="M16.892,17.777 C16.340,17.777 15.892,17.329 15.892,16.777 C15.892,9.146 22.100,2.938 29.730,2.938 C30.282,2.938 30.730,3.385 30.730,3.938 C30.730,4.490 30.282,4.938 29.730,4.938 C23.203,4.938 17.892,10.249 17.892,16.777 C17.892,17.329 17.444,17.777 16.892,17.777 Z" id="path-4" class="cls-6" fill-rule="evenodd"/>
    <path d="M38.603,2.246 C41.949,5.617 44.019,10.258 44.019,15.383 C44.019,15.407 44.019,15.430 44.019,15.453 C44.005,19.090 40.921,21.975 37.284,21.975 C37.284,21.975 11.386,21.975 11.386,21.975 C11.594,23.104 11.901,24.198 12.299,25.248 C12.299,25.248 47.161,25.248 47.161,25.248 C47.938,23.196 48.383,20.980 48.383,18.656 C48.383,11.567 44.427,5.402 38.603,2.246 Z" id="path-5" class="cls-7" fill-rule="evenodd"/>
    <path d="M50.200,8.653 C50.200,8.653 53.096,16.246 50.200,19.142 C47.304,22.038 42.608,22.038 39.712,19.142 C36.816,16.246 36.816,11.550 39.712,8.653 C42.608,5.757 50.200,8.653 50.200,8.653 Z" id="path-6" class="cls-5" fill-rule="evenodd"/>
    <path d="M51.291,16.960 C48.395,19.856 43.699,19.856 40.803,16.960 C38.799,14.956 38.184,12.092 38.953,9.557 C36.852,12.457 37.100,16.529 39.712,19.142 C42.608,22.038 47.304,22.038 50.200,19.142 C50.777,18.564 51.117,17.797 51.303,16.945 C51.298,16.949 51.295,16.955 51.291,16.960 Z" id="path-7" class="cls-7" fill-rule="evenodd"/>
    <path d="M49.583,11.441 C49.583,11.441 48.089,9.659 48.089,9.659 C48.089,9.659 54.669,4.623 54.669,4.623 C54.669,4.623 56.163,6.405 56.163,6.405 C56.163,6.405 49.583,11.441 49.583,11.441 Z" id="path-8" class="cls-3" fill-rule="evenodd"/>
    <path d="M58.004,3.002 C58.004,4.512 56.780,5.736 55.270,5.736 C53.760,5.736 52.536,4.512 52.536,3.002 C52.536,1.492 53.760,0.268 55.270,0.268 C56.780,0.268 58.004,1.492 58.004,3.002 Z" id="path-9" class="cls-3" fill-rule="evenodd"/>
    <path d="M59.998,5.992 C59.998,7.502 58.773,8.726 57.264,8.726 C55.753,8.726 54.529,7.502 54.529,5.992 C54.529,4.482 55.753,3.258 57.264,3.258 C58.773,3.258 59.998,4.482 59.998,5.992 Z" id="path-10" class="cls-3" fill-rule="evenodd"/>
  </g>
</svg>
