<svg xmlns="http://www.w3.org/2000/svg" xmlns:xlink="http://www.w3.org/1999/xlink" preserveAspectRatio="xMidYMid" width="35" height="60" viewBox="0 0 35 60">
  <defs>
    <style>

      .cls-3 {
        fill: #ff3a2f;
      }

      .cls-4 {
        fill: #000000;
        opacity: 0.35;
      }

      .cls-5 {
        fill: #142a3b;
      }

      .cls-6 {
        fill: #2476ff;
      }

      .cls-7 {
        fill: #ffffff;
      }
    </style>
  </defs>
  <g id="group-268svg">
    <path d="M19.000,53.843 C19.000,53.843 19.000,46.844 19.000,46.844 C19.000,46.844 9.000,46.844 9.000,46.844 C9.000,46.844 9.000,53.843 9.000,53.843 C9.000,53.843 19.000,53.843 19.000,53.843 Z" id="path-1" class="cls-3" fill-rule="evenodd"/>
    <path d="M9.055,46.673 C9.055,46.673 9.063,47.752 9.063,47.752 C9.063,47.752 16.975,49.723 16.975,49.723 C16.975,49.723 16.967,53.572 16.967,53.572 C16.967,53.572 9.055,54.558 9.055,54.558 C9.055,54.558 9.055,54.558 9.055,54.558 C9.055,54.558 18.945,54.558 18.945,54.558 C18.945,54.558 18.945,46.673 18.945,46.673 C18.945,46.673 9.055,46.673 9.055,46.673 Z" id="path-2" class="cls-4" fill-rule="evenodd"/>
    <path d="M33.000,58.843 C33.000,58.843 29.000,58.843 29.000,58.843 C28.448,58.843 28.000,58.396 28.000,57.844 C28.000,57.291 28.448,56.844 29.000,56.844 C29.000,56.844 33.000,56.844 33.000,56.844 C33.552,56.844 34.000,57.291 34.000,57.844 C34.000,58.396 33.552,58.843 33.000,58.843 Z" id="path-3" class="cls-5" fill-rule="evenodd"/>
    <path d="M17.690,7.554 C17.690,7.554 17.690,-0.008 17.690,-0.008 C17.690,-0.008 10.767,-0.008 10.767,-0.008 C10.767,-0.008 10.767,7.554 10.767,7.554 C10.767,7.554 -2.493,32.672 6.327,45.283 C7.236,46.583 8.772,47.304 10.361,47.304 C10.361,47.304 19.951,47.304 19.951,47.304 C21.668,47.304 23.265,46.428 24.196,44.989 C32.410,32.301 17.690,7.554 17.690,7.554 Z" id="path-4" class="cls-6" fill-rule="evenodd"/>
    <path d="M7.400,41.576 C7.060,41.576 6.728,41.403 6.541,41.090 C2.433,34.238 5.573,24.139 8.931,16.873 C9.163,16.371 9.757,16.154 10.258,16.385 C10.759,16.617 10.978,17.211 10.746,17.712 C8.163,23.301 4.405,33.638 8.256,40.062 C8.540,40.536 8.387,41.150 7.913,41.434 C7.752,41.531 7.575,41.576 7.400,41.576 Z" id="path-5" class="cls-7" fill-rule="evenodd"/>
    <path d="M17.690,7.554 C17.690,7.554 17.690,-0.008 17.690,-0.008 C17.690,-0.008 14.723,-0.008 14.723,-0.008 C14.723,-0.008 14.723,6.568 14.723,6.568 C14.723,6.568 29.443,31.315 21.229,44.004 C20.298,45.442 18.702,46.319 16.984,46.319 C16.984,46.319 7.394,46.319 7.394,46.319 C7.378,46.319 7.361,46.316 7.345,46.316 C8.202,46.955 9.266,47.304 10.361,47.304 C10.361,47.304 19.951,47.304 19.951,47.304 C21.668,47.304 23.265,46.428 24.196,44.989 C32.410,32.301 17.690,7.554 17.690,7.554 Z" id="path-6" class="cls-4" fill-rule="evenodd"/>
    <path d="M30.000,59.843 C30.000,59.843 -0.000,59.843 -0.000,59.843 C-0.000,59.843 -0.000,53.843 -0.000,53.843 C-0.000,53.843 30.000,53.843 30.000,53.843 C30.000,53.843 30.000,59.843 30.000,59.843 Z" id="path-7" class="cls-5" fill-rule="evenodd"/>
    <path d="M24.066,53.843 C24.066,53.843 24.066,59.843 24.066,59.843 C24.066,59.843 30.000,59.843 30.000,59.843 C30.000,59.843 30.000,53.843 30.000,53.843 C30.000,53.843 24.066,53.843 24.066,53.843 Z" id="path-8" class="cls-4" fill-rule="evenodd"/>
    <path d="M18.000,46.844 C18.000,46.844 16.000,46.844 16.000,46.844 C16.000,46.844 16.000,35.843 16.000,35.843 C16.000,35.843 18.000,35.843 18.000,35.843 C18.000,35.843 18.000,46.844 18.000,46.844 Z" id="path-9" class="cls-5" fill-rule="evenodd"/>
    <path d="M14.000,46.844 C14.000,46.844 12.000,46.844 12.000,46.844 C12.000,46.844 12.000,35.843 12.000,35.843 C12.000,35.843 14.000,35.843 14.000,35.843 C14.000,35.843 14.000,46.844 14.000,46.844 Z" id="path-10" class="cls-5" fill-rule="evenodd"/>
    <path d="M34.000,59.843 C33.448,59.843 33.000,59.396 33.000,58.843 C33.000,58.843 33.000,56.844 33.000,56.844 C33.000,56.291 33.448,55.844 34.000,55.844 C34.552,55.844 35.000,56.291 35.000,56.844 C35.000,56.844 35.000,58.843 35.000,58.843 C35.000,59.396 34.552,59.843 34.000,59.843 Z" id="path-11" class="cls-5" fill-rule="evenodd"/>
  </g>
</svg>
