<svg xmlns="http://www.w3.org/2000/svg" xmlns:xlink="http://www.w3.org/1999/xlink" preserveAspectRatio="xMidYMid" width="59" height="61" viewBox="0 0 59 61">
  <defs>
    <style>

      .cls-3 {
        fill: #d99a02;
      }

      .cls-4 {
        fill: #fbb713;
      }

      .cls-5 {
        fill: #fccb56;
      }

      .cls-7 {
        fill: #bba300;
      }
    </style>
  </defs>
  <g id="group-66svg">
    <path d="M10.588,27.186 C10.588,27.186 54.962,27.186 54.962,27.186 C54.962,27.186 54.962,46.341 54.962,46.341 C54.962,46.341 10.588,46.341 10.588,46.341 C10.588,46.341 10.588,27.186 10.588,27.186 Z" id="path-1" class="cls-3" fill-rule="evenodd"/>
    <path d="M22.496,26.156 C22.496,26.156 22.717,59.271 22.717,59.271 C22.717,59.271 25.663,54.482 33.398,57.061 C41.748,60.991 50.097,60.990 58.446,57.061 C58.446,57.061 58.446,12.796 58.446,12.796 C58.446,6.289 53.230,0.121 46.725,0.008 C46.725,0.008 11.297,0.165 11.297,0.165 C11.297,0.165 22.496,26.156 22.496,26.156 Z" id="path-2" class="cls-4" fill-rule="evenodd"/>
    <path d="M22.594,23.272 C22.594,36.034 17.536,46.379 11.297,46.379 C5.059,46.379 0.001,36.034 0.001,23.272 C0.001,10.511 5.059,0.165 11.297,0.165 C17.536,0.165 22.594,10.511 22.594,23.272 Z" id="path-3" class="cls-5" fill-rule="evenodd"/>
    <path d="M14.791,23.272 C14.791,27.219 13.227,30.420 11.297,30.420 C9.368,30.420 7.803,27.219 7.803,23.272 C7.803,19.325 9.368,16.125 11.297,16.125 C13.227,16.125 14.791,19.325 14.791,23.272 Z" id="path-4" class="cls-3" fill-rule="evenodd"/>
    <path d="M57.583,39.319 C57.583,39.319 56.109,39.319 56.109,39.319 C56.109,39.319 56.109,38.706 56.109,38.706 C56.109,38.706 57.583,38.706 57.583,38.706 C57.583,38.706 57.583,39.319 57.583,39.319 ZM54.636,39.319 C54.636,39.319 53.163,39.319 53.163,39.319 C53.163,39.319 53.163,38.706 53.163,38.706 C53.163,38.706 54.636,38.706 54.636,38.706 C54.636,38.706 54.636,39.319 54.636,39.319 ZM51.690,39.319 C51.690,39.319 50.217,39.319 50.217,39.319 C50.217,39.319 50.217,38.706 50.217,38.706 C50.217,38.706 51.690,38.706 51.690,38.706 C51.690,38.706 51.690,39.319 51.690,39.319 ZM48.743,39.319 C48.743,39.319 47.270,39.319 47.270,39.319 C47.270,39.319 47.270,38.706 47.270,38.706 C47.270,38.706 48.743,38.706 48.743,38.706 C48.743,38.706 48.743,39.319 48.743,39.319 ZM45.797,39.319 C45.797,39.319 44.324,39.319 44.324,39.319 C44.324,39.319 44.324,38.706 44.324,38.706 C44.324,38.706 45.797,38.706 45.797,38.706 C45.797,38.706 45.797,39.319 45.797,39.319 ZM42.851,39.319 C42.851,39.319 41.377,39.319 41.377,39.319 C41.377,39.319 41.377,38.706 41.377,38.706 C41.377,38.706 42.851,38.706 42.851,38.706 C42.851,38.706 42.851,39.319 42.851,39.319 ZM39.904,39.319 C39.904,39.319 38.431,39.319 38.431,39.319 C38.431,39.319 38.431,38.706 38.431,38.706 C38.431,38.706 39.904,38.706 39.904,38.706 C39.904,38.706 39.904,39.319 39.904,39.319 ZM36.958,39.319 C36.958,39.319 35.484,39.319 35.484,39.319 C35.484,39.319 35.484,38.706 35.484,38.706 C35.484,38.706 36.958,38.706 36.958,38.706 C36.958,38.706 36.958,39.319 36.958,39.319 ZM34.011,39.319 C34.011,39.319 32.538,39.319 32.538,39.319 C32.538,39.319 32.538,38.706 32.538,38.706 C32.538,38.706 34.011,38.706 34.011,38.706 C34.011,38.706 34.011,39.319 34.011,39.319 ZM31.065,39.319 C31.065,39.319 29.592,39.319 29.592,39.319 C29.592,39.319 29.592,38.706 29.592,38.706 C29.592,38.706 31.065,38.706 31.065,38.706 C31.065,38.706 31.065,39.319 31.065,39.319 ZM28.118,39.319 C28.118,39.319 26.645,39.319 26.645,39.319 C26.645,39.319 26.645,38.706 26.645,38.706 C26.645,38.706 28.118,38.706 28.118,38.706 C28.118,38.706 28.118,39.319 28.118,39.319 ZM25.172,39.319 C25.172,39.319 23.699,39.319 23.699,39.319 C23.699,39.319 23.699,38.706 23.699,38.706 C23.699,38.706 25.172,38.706 25.172,38.706 C25.172,38.706 25.172,39.319 25.172,39.319 Z" id="path-5" class="cls-7" fill-rule="evenodd"/>
  </g>
</svg>
