<svg xmlns="http://www.w3.org/2000/svg" xmlns:xlink="http://www.w3.org/1999/xlink" preserveAspectRatio="xMidYMid" width="60" height="61" viewBox="0 0 60 61">
  <defs>
    <style>

      .cls-3 {
        fill: #db2c3f;
      }

      .cls-4 {
        fill: #ff3a2f;
      }

      .cls-5 {
        fill: #ffffff;
      }

      .cls-6 {
        fill: #010101;
        opacity: 0.35;
      }

      .cls-8 {
        fill: #142a3b;
      }

      .cls-9 {
        fill: #0cb04a;
      }
    </style>
  </defs>
  <g id="group-157svg">
    <path d="M27.688,32.471 C27.688,32.471 44.670,42.609 44.670,42.609 C44.670,42.609 34.531,25.628 34.531,25.628 C34.531,25.628 34.592,25.567 34.592,25.567 C34.592,25.567 34.442,25.478 34.442,25.478 C34.442,25.478 34.353,25.329 34.353,25.329 C34.353,25.329 34.293,25.389 34.293,25.389 C34.293,25.389 17.312,15.250 17.312,15.250 C17.312,15.250 27.450,32.231 27.450,32.231 C27.450,32.231 27.390,32.292 27.390,32.292 C27.390,32.292 27.539,32.381 27.539,32.381 C27.539,32.381 27.628,32.530 27.628,32.530 C27.628,32.530 27.688,32.471 27.688,32.471 Z" id="path-1" class="cls-3" fill-rule="evenodd"/>
    <path d="M60.000,30.005 C60.000,46.573 46.568,60.004 30.000,60.004 C13.431,60.004 -0.000,46.573 -0.000,30.005 C-0.000,13.436 13.431,0.005 30.000,0.005 C46.568,0.005 60.000,13.436 60.000,30.005 Z" id="path-2" class="cls-4" fill-rule="evenodd"/>
    <path d="M51.565,30.005 C51.565,41.915 41.910,51.570 30.000,51.570 C18.089,51.570 8.434,41.915 8.434,30.005 C8.434,18.095 18.089,8.439 30.000,8.439 C41.910,8.439 51.565,18.095 51.565,30.005 Z" id="path-3" class="cls-5" fill-rule="evenodd"/>
    <path d="M30.000,8.439 C26.325,8.439 22.869,9.364 19.841,10.984 C19.838,10.986 19.835,10.987 19.832,10.989 C22.266,10.037 24.914,9.514 27.685,9.514 C39.595,9.514 49.250,19.169 49.250,31.080 C49.250,38.835 45.155,45.634 39.010,49.433 C39.733,49.151 40.430,48.818 41.112,48.462 C47.368,44.686 51.565,37.844 51.565,30.005 C51.565,18.095 41.910,8.439 30.000,8.439 Z" id="path-4" class="cls-6" fill-rule="evenodd"/>
    <path d="M15.398,15.638 C15.398,15.638 45.302,45.543 45.302,45.543 C45.302,45.543 36.394,24.228 36.394,24.228 C36.394,24.228 15.398,15.638 15.398,15.638 Z" id="path-5" class="cls-6" fill-rule="evenodd"/>
    <path d="M26.399,33.367 C26.399,33.367 43.679,43.684 43.679,43.684 C43.679,43.684 33.362,26.404 33.362,26.404 C33.362,26.404 26.399,33.367 26.399,33.367 Z" id="path-6" class="cls-8" fill-rule="evenodd"/>
    <path d="M26.638,33.606 C26.638,33.606 16.320,16.326 16.320,16.326 C16.320,16.326 33.601,26.642 33.601,26.642 C33.601,26.642 26.638,33.606 26.638,33.606 Z" id="path-7" class="cls-9" fill-rule="evenodd"/>
  </g>
</svg>
