<svg xmlns="http://www.w3.org/2000/svg" xmlns:xlink="http://www.w3.org/1999/xlink" preserveAspectRatio="xMidYMid" width="61" height="52" viewBox="0 0 61 52">
  <defs>
    <style>

      .cls-3 {
        fill: #142a3b;
      }

      .cls-5 {
        fill: #2476ff;
      }

      .cls-6 {
        fill: #000000;
        opacity: 0.35;
      }

      .cls-7 {
        fill: #ff3a2f;
      }

      .cls-8 {
        fill: #fbb713;
      }

      .cls-10 {
        fill: #000000;
        opacity: 0.25;
      }
    </style>
  </defs>
  <g id="group-263svg">
    <path d="M19.651,38.188 C19.197,38.188 18.786,37.876 18.678,37.414 C18.678,37.414 11.687,7.297 11.687,7.297 C11.687,7.297 0.544,1.880 0.544,1.880 C0.047,1.639 -0.159,1.040 0.082,0.544 C0.323,0.046 0.922,-0.160 1.418,0.081 C1.418,0.081 13.419,5.915 13.419,5.915 C13.419,5.915 20.626,36.962 20.626,36.962 C20.751,37.500 20.416,38.038 19.878,38.162 C19.802,38.180 19.727,38.188 19.651,38.188 Z" id="path-1" class="cls-3" fill-rule="evenodd"/>
    <path d="M28.365,42.030 C27.910,42.030 27.498,41.718 27.392,41.255 C27.267,40.717 27.602,40.180 28.140,40.056 C28.140,40.056 58.756,32.961 58.756,32.961 C59.293,32.836 59.831,33.171 59.955,33.709 C60.080,34.247 59.745,34.785 59.207,34.909 C59.207,34.909 28.591,42.004 28.591,42.004 C28.516,42.022 28.439,42.030 28.365,42.030 Z" id="path-2" class="cls-3" fill-rule="evenodd"/>
    <path d="M29.489,41.959 C30.400,45.886 27.953,49.809 24.021,50.721 C20.090,51.632 16.164,49.186 15.252,45.257 C14.340,41.330 16.788,37.407 20.719,36.496 C24.650,35.585 28.577,38.031 29.489,41.959 Z" id="path-3" class="cls-5" fill-rule="evenodd"/>
    <path d="M25.926,49.769 C21.995,50.680 18.069,48.234 17.157,44.306 C16.463,41.316 17.718,38.334 20.090,36.675 C16.532,37.840 14.390,41.545 15.252,45.257 C16.164,49.186 20.090,51.632 24.021,50.721 C24.960,50.503 25.811,50.109 26.556,49.589 C26.350,49.656 26.141,49.719 25.926,49.769 Z" id="path-4" class="cls-6" fill-rule="evenodd"/>
    <path d="M47.055,28.885 C47.055,28.885 28.499,33.184 28.499,33.184 C28.499,33.184 24.196,14.645 24.196,14.645 C24.196,14.645 42.751,10.346 42.751,10.346 C42.751,10.346 47.055,28.885 47.055,28.885 Z" id="path-5" class="cls-7" fill-rule="evenodd"/>
    <path d="M31.618,12.926 C31.618,12.926 24.196,14.645 24.196,14.645 C24.196,14.645 21.614,3.522 21.614,3.522 C21.614,3.522 29.036,1.802 29.036,1.802 C29.036,1.802 31.618,12.926 31.618,12.926 Z" id="path-6" class="cls-8" fill-rule="evenodd"/>
    <path d="M30.404,31.281 C30.404,31.281 26.423,14.129 26.423,14.129 C26.423,14.129 24.196,14.645 24.196,14.645 C24.196,14.645 28.499,33.184 28.499,33.184 C28.499,33.184 47.055,28.885 47.055,28.885 C47.055,28.885 46.733,27.497 46.733,27.497 C46.733,27.497 30.404,31.281 30.404,31.281 Z" id="path-7" class="cls-6" fill-rule="evenodd"/>
    <path d="M26.100,12.742 C26.100,12.742 23.841,3.006 23.841,3.006 C23.841,3.006 21.614,3.522 21.614,3.522 C21.614,3.522 24.196,14.645 24.196,14.645 C24.196,14.645 31.618,12.926 31.618,12.926 C31.618,12.926 31.296,11.538 31.296,11.538 C31.296,11.538 26.100,12.742 26.100,12.742 Z" id="path-8" class="cls-10" fill-rule="evenodd"/>
  </g>
</svg>
