<svg xmlns="http://www.w3.org/2000/svg" xmlns:xlink="http://www.w3.org/1999/xlink" preserveAspectRatio="xMidYMid" width="60" height="45" viewBox="0 0 60 45">
  <defs>
    <style>

      .cls-3 {
        fill: #2476ff;
      }

      .cls-4 {
        fill: #ffffff;
      }

      .cls-5 {
        fill: #020403;
        opacity: 0.35;
      }
    </style>
  </defs>
  <g id="group-71svg">
    <path d="M18.103,44.482 C17.749,44.482 17.402,44.331 17.159,44.052 C14.157,40.587 13.431,39.823 10.810,38.921 C9.068,38.960 4.850,40.802 1.960,42.821 C1.550,43.108 1.009,43.125 0.585,42.859 C0.160,42.595 -0.067,42.103 0.009,41.609 C0.699,37.070 4.255,31.482 10.460,29.646 C16.578,17.920 25.198,10.318 29.446,7.046 C27.528,4.256 24.114,3.619 22.137,3.496 C21.534,3.457 21.044,2.993 20.974,2.394 C20.903,1.794 21.271,1.229 21.848,1.052 C26.010,-0.223 31.374,0.487 35.996,2.807 C36.741,2.429 37.419,2.124 38.020,1.899 C41.471,0.596 44.107,-0.013 46.314,-0.013 C50.013,-0.013 52.657,1.738 54.587,5.483 C57.866,5.814 59.519,6.619 59.916,8.059 C60.262,9.317 59.399,10.457 58.476,11.107 C58.237,11.273 57.941,11.351 57.659,11.328 C54.084,11.040 50.288,11.616 46.148,13.000 C46.396,17.387 44.756,24.619 43.765,26.106 C43.458,26.562 42.888,26.766 42.362,26.607 C41.834,26.447 41.475,25.961 41.475,25.410 C41.475,23.651 40.456,21.870 38.530,20.261 C37.588,19.473 36.968,18.412 36.732,17.314 C27.950,22.317 20.674,29.003 17.405,32.227 C18.218,35.210 19.258,40.055 19.348,42.861 C19.384,42.978 19.404,43.103 19.404,43.232 C19.404,43.930 18.841,44.430 18.131,44.482 C18.121,44.482 18.112,44.482 18.103,44.482 Z" id="path-1" class="cls-3" fill-rule="evenodd"/>
    <path d="M40.471,3.902 C40.268,3.902 40.079,3.779 40.003,3.579 C39.905,3.321 40.036,3.032 40.294,2.934 C43.542,1.707 46.032,1.136 48.130,1.136 C48.406,1.136 48.630,1.360 48.630,1.636 C48.630,1.912 48.406,2.136 48.130,2.136 C46.157,2.136 43.779,2.687 40.647,3.870 C40.589,3.892 40.529,3.902 40.471,3.902 Z" id="path-2" class="cls-4" fill-rule="evenodd"/>
    <path d="M52.405,3.301 C52.712,3.332 52.991,3.372 53.270,3.411 C52.650,2.604 51.975,1.935 51.228,1.419 C51.644,1.985 52.042,2.596 52.405,3.301 Z" id="path-3" class="cls-5" fill-rule="evenodd"/>
    <path d="M21.260,1.465 C21.051,1.721 20.933,2.047 20.974,2.394 C21.044,2.993 21.534,3.457 22.137,3.496 C23.462,3.578 25.426,3.909 27.159,4.946 C27.192,4.920 27.231,4.890 27.264,4.864 C25.719,2.617 23.213,1.776 21.260,1.465 Z" id="path-4" class="cls-5" fill-rule="evenodd"/>
    <path d="M17.405,32.227 C20.583,29.092 27.552,22.692 36.006,17.740 C35.264,16.998 34.755,16.085 34.550,15.132 C25.768,20.135 18.493,26.821 15.224,30.045 C16.037,33.028 17.077,37.873 17.166,40.680 C17.202,40.797 17.222,40.921 17.222,41.050 C17.222,41.748 16.659,42.248 15.949,42.300 C15.939,42.300 15.930,42.300 15.922,42.300 C15.792,42.300 15.669,42.259 15.547,42.219 C16.012,42.732 16.535,43.331 17.159,44.052 C17.402,44.331 17.749,44.482 18.103,44.482 C18.112,44.482 18.121,44.482 18.131,44.482 C18.841,44.430 19.404,43.930 19.404,43.232 C19.404,43.103 19.384,42.978 19.348,42.861 C19.258,40.055 18.218,35.210 17.405,32.227 Z" id="path-5" class="cls-5" fill-rule="evenodd"/>
    <path d="M59.916,8.058 C59.680,7.201 58.984,6.572 57.775,6.131 C57.949,7.287 57.154,8.320 56.294,8.925 C56.055,9.091 55.760,9.169 55.478,9.146 C51.902,8.858 48.106,9.434 43.967,10.818 C44.214,15.205 42.574,22.436 41.583,23.925 C41.507,24.037 41.415,24.133 41.312,24.213 C41.415,24.612 41.475,25.012 41.475,25.410 C41.475,25.961 41.834,26.447 42.362,26.607 C42.888,26.766 43.458,26.562 43.765,26.106 C44.756,24.618 46.396,17.387 46.148,13.000 C50.288,11.616 54.084,11.040 57.659,11.328 C57.941,11.351 58.237,11.273 58.476,11.107 C59.399,10.457 60.262,9.317 59.916,8.058 Z" id="path-6" class="cls-5" fill-rule="evenodd"/>
    <path d="M14.798,25.585 C14.709,25.585 14.619,25.562 14.538,25.512 C14.302,25.368 14.228,25.061 14.371,24.825 C14.701,24.284 22.507,11.576 28.263,10.503 C28.539,10.451 28.796,10.631 28.847,10.903 C28.897,11.174 28.718,11.435 28.447,11.486 C23.126,12.477 15.304,25.217 15.225,25.345 C15.131,25.500 14.966,25.585 14.798,25.585 Z" id="path-7" class="cls-4" fill-rule="evenodd"/>
    <path d="M8.628,36.739 C6.984,36.776 3.144,38.423 0.287,40.306 C0.172,40.746 0.073,41.183 0.009,41.609 C-0.067,42.103 0.160,42.595 0.585,42.859 C1.009,43.125 1.550,43.108 1.960,42.821 C4.850,40.802 9.068,38.960 10.810,38.921 C12.054,39.349 12.871,39.749 13.707,40.419 C11.702,38.165 10.833,37.498 8.628,36.739 Z" id="path-8" class="cls-5" fill-rule="evenodd"/>
  </g>
</svg>
