<svg xmlns="http://www.w3.org/2000/svg" xmlns:xlink="http://www.w3.org/1999/xlink" preserveAspectRatio="xMidYMid" width="60" height="60" viewBox="0 0 60 60">
  <defs>
    <style>

      .cls-3 {
        fill: #fbb713;
      }

      .cls-4 {
        fill: #010101;
        opacity: 0.25;
      }

      .cls-5 {
        fill: #142a3b;
      }

      .cls-6 {
        fill: #010101;
        opacity: 0.35;
      }

      .cls-7 {
        fill: #020200;
        opacity: 0.35;
      }
    </style>
  </defs>
  <g id="group-62svg">
    <path d="M53.104,51.080 C53.104,51.080 6.888,51.080 6.888,51.080 C6.888,51.080 14.996,-0.000 14.996,-0.000 C14.996,-0.000 44.996,-0.000 44.996,-0.000 C44.996,-0.000 53.104,51.080 53.104,51.080 Z" id="path-1" class="cls-3" fill-rule="evenodd"/>
    <path d="M44.996,-0.001 C44.996,-0.001 39.143,-0.001 39.143,-0.001 C39.143,-0.001 44.958,36.632 44.958,36.632 C45.798,41.926 41.707,46.717 36.348,46.717 C36.348,46.717 7.581,46.717 7.581,46.717 C7.581,46.717 6.888,51.080 6.888,51.080 C6.888,51.080 53.104,51.080 53.104,51.080 C53.104,51.080 44.996,-0.001 44.996,-0.001 Z" id="path-2" class="cls-4" fill-rule="evenodd"/>
    <path d="M59.996,59.999 C59.996,59.999 -0.004,59.999 -0.004,59.999 C-0.004,59.999 -0.004,51.080 -0.004,51.080 C-0.004,51.080 59.996,51.080 59.996,51.080 C59.996,51.080 59.996,59.999 59.996,59.999 Z" id="path-3" class="cls-5" fill-rule="evenodd"/>
    <path d="M55.632,51.080 C55.632,51.080 55.632,52.906 55.632,52.906 C55.632,55.619 53.434,57.818 50.721,57.818 C50.721,57.818 -0.004,57.818 -0.004,57.818 C-0.004,57.818 -0.004,59.999 -0.004,59.999 C-0.004,59.999 59.996,59.999 59.996,59.999 C59.996,59.999 59.996,51.080 59.996,51.080 C59.996,51.080 55.632,51.080 55.632,51.080 Z" id="path-4" class="cls-6" fill-rule="evenodd"/>
    <path d="M40.359,16.443 C39.807,16.443 39.359,15.995 39.359,15.443 C39.359,15.443 39.359,12.482 39.359,12.482 C39.359,11.930 39.807,11.482 40.359,11.482 C40.912,11.482 41.359,11.930 41.359,12.482 C41.359,12.482 41.359,15.443 41.359,15.443 C41.359,15.995 40.912,16.443 40.359,16.443 Z" id="path-5" class="cls-7" fill-rule="evenodd"/>
    <path d="M29.451,16.443 C28.898,16.443 28.451,15.995 28.451,15.443 C28.451,15.443 28.451,12.482 28.451,12.482 C28.451,11.930 28.898,11.482 29.451,11.482 C30.003,11.482 30.451,11.930 30.451,12.482 C30.451,12.482 30.451,15.443 30.451,15.443 C30.451,15.995 30.003,16.443 29.451,16.443 Z" id="path-6" class="cls-7" fill-rule="evenodd"/>
    <path d="M18.541,16.443 C17.989,16.443 17.541,15.995 17.541,15.443 C17.541,15.443 17.541,12.482 17.541,12.482 C17.541,11.930 17.989,11.482 18.541,11.482 C19.094,11.482 19.541,11.930 19.541,12.482 C19.541,12.482 19.541,15.443 19.541,15.443 C19.541,15.995 19.094,16.443 18.541,16.443 Z" id="path-7" class="cls-7" fill-rule="evenodd"/>
    <path d="M18.541,30.624 C17.989,30.624 17.541,30.176 17.541,29.624 C17.541,29.624 17.541,26.664 17.541,26.664 C17.541,26.112 17.989,25.664 18.541,25.664 C19.094,25.664 19.541,26.112 19.541,26.664 C19.541,26.664 19.541,29.624 19.541,29.624 C19.541,30.176 19.094,30.624 18.541,30.624 Z" id="path-8" class="cls-7" fill-rule="evenodd"/>
    <path d="M35.996,38.261 C35.444,38.261 34.996,37.813 34.996,37.261 C34.996,37.261 34.996,34.300 34.996,34.300 C34.996,33.748 35.444,33.300 35.996,33.300 C36.548,33.300 36.996,33.748 36.996,34.300 C36.996,34.300 36.996,37.261 36.996,37.261 C36.996,37.813 36.548,38.261 35.996,38.261 Z" id="path-9" class="cls-7" fill-rule="evenodd"/>
    <path d="M23.996,44.807 C23.444,44.807 22.996,44.359 22.996,43.807 C22.996,43.807 22.996,40.846 22.996,40.846 C22.996,40.293 23.444,39.846 23.996,39.846 C24.548,39.846 24.996,40.293 24.996,40.846 C24.996,40.846 24.996,43.807 24.996,43.807 C24.996,44.359 24.548,44.807 23.996,44.807 Z" id="path-10" class="cls-7" fill-rule="evenodd"/>
    <path d="M41.451,28.443 C40.898,28.443 40.451,27.995 40.451,27.443 C40.451,27.443 40.451,24.482 40.451,24.482 C40.451,23.930 40.898,23.482 41.451,23.482 C42.003,23.482 42.451,23.930 42.451,24.482 C42.451,24.482 42.451,27.443 42.451,27.443 C42.451,27.995 42.003,28.443 41.451,28.443 Z" id="path-11" class="cls-7" fill-rule="evenodd"/>
    <path d="M41.451,46.988 C40.898,46.988 40.451,46.540 40.451,45.988 C40.451,45.988 40.451,43.028 40.451,43.028 C40.451,42.476 40.898,42.028 41.451,42.028 C42.003,42.028 42.451,42.476 42.451,43.028 C42.451,43.028 42.451,45.988 42.451,45.988 C42.451,46.540 42.003,46.988 41.451,46.988 Z" id="path-12" class="cls-7" fill-rule="evenodd"/>
    <path d="M14.178,44.807 C13.625,44.807 13.178,44.359 13.178,43.807 C13.178,43.807 13.178,40.846 13.178,40.846 C13.178,40.293 13.625,39.846 14.178,39.846 C14.730,39.846 15.178,40.293 15.178,40.846 C15.178,40.846 15.178,43.807 15.178,43.807 C15.178,44.359 14.730,44.807 14.178,44.807 Z" id="path-13" class="cls-7" fill-rule="evenodd"/>
    <path d="M30.541,27.352 C29.989,27.352 29.541,26.904 29.541,26.352 C29.541,26.352 29.541,23.391 29.541,23.391 C29.541,22.839 29.989,22.391 30.541,22.391 C31.094,22.391 31.541,22.839 31.541,23.391 C31.541,23.391 31.541,26.352 31.541,26.352 C31.541,26.904 31.094,27.352 30.541,27.352 Z" id="path-14" class="cls-7" fill-rule="evenodd"/>
  </g>
</svg>
