<svg xmlns="http://www.w3.org/2000/svg" xmlns:xlink="http://www.w3.org/1999/xlink" preserveAspectRatio="xMidYMid" width="61" height="60" viewBox="0 0 61 60">
  <defs>
    <style>

      .cls-3 {
        fill: #2476ff;
      }

      .cls-4 {
        fill: #142a3b;
      }

      .cls-5 {
        fill: #000000;
        opacity: 0.35;
      }
    </style>
  </defs>
  <g id="group-321svg">
    <path d="M42.319,26.846 C42.319,26.846 20.354,48.617 20.354,48.617 C19.362,49.600 16.560,48.421 14.096,45.981 C11.633,43.539 10.443,40.761 11.436,39.779 C11.436,39.779 33.416,18.025 33.416,18.025 C33.416,18.025 33.416,18.025 33.416,18.025 " id="path-1" class="cls-3" fill-rule="evenodd"/>
    <path d="M0.975,60.001 C0.717,60.001 0.459,59.902 0.264,59.703 C-0.125,59.311 -0.121,58.678 0.272,58.289 C0.272,58.289 9.773,48.902 9.773,48.902 C10.166,48.514 10.798,48.518 11.187,48.910 C11.575,49.303 11.571,49.936 11.178,50.325 C11.178,50.325 1.678,59.712 1.678,59.712 C1.483,59.905 1.229,60.001 0.975,60.001 Z" id="path-2" class="cls-4" fill-rule="evenodd"/>
    <path d="M39.774,24.325 C39.774,24.325 19.082,44.834 19.082,44.834 C18.090,45.817 15.287,44.639 12.824,42.199 C12.173,41.553 11.619,40.887 11.163,40.234 C10.766,41.460 11.945,43.848 14.096,45.981 C16.560,48.421 19.362,49.600 20.354,48.617 C20.354,48.617 42.319,26.846 42.319,26.846 C42.319,26.846 39.774,24.325 39.774,24.325 Z" id="path-3" class="cls-5" fill-rule="evenodd"/>
    <path d="M12.450,44.012 C12.450,44.012 8.608,47.712 8.608,47.712 C8.608,47.712 12.255,51.436 12.255,51.436 C12.255,51.436 16.151,47.682 16.151,47.682 C16.151,47.682 16.151,47.682 16.151,47.682 " id="path-4" class="cls-3" fill-rule="evenodd"/>
    <path d="M46.774,32.261 C46.520,32.261 46.266,32.165 46.070,31.972 C46.070,31.972 28.260,14.320 28.260,14.320 C27.868,13.931 27.865,13.298 28.253,12.905 C28.643,12.513 29.275,12.511 29.668,12.899 C29.668,12.899 47.478,30.551 47.478,30.551 C47.871,30.940 47.874,31.573 47.485,31.965 C47.289,32.163 47.032,32.261 46.774,32.261 Z" id="path-5" class="cls-4" fill-rule="evenodd"/>
    <path d="M35.991,21.574 C35.732,21.574 35.474,21.474 35.278,21.276 C34.891,20.882 34.895,20.249 35.289,19.861 C35.289,19.861 51.420,3.983 51.420,3.983 C51.815,3.597 52.448,3.602 52.835,3.994 C53.222,4.388 53.217,5.021 52.824,5.409 C52.824,5.409 36.692,21.287 36.692,21.287 C36.498,21.478 36.244,21.574 35.991,21.574 Z" id="path-6" class="cls-4" fill-rule="evenodd"/>
    <path d="M59.496,12.088 C59.242,12.088 58.988,11.991 58.792,11.798 C58.792,11.798 48.615,1.711 48.615,1.711 C48.223,1.322 48.220,0.689 48.608,0.297 C48.997,-0.096 49.629,-0.098 50.023,0.290 C50.023,0.290 60.201,10.377 60.201,10.377 C60.593,10.766 60.596,11.399 60.207,11.792 C60.011,11.989 59.754,12.088 59.496,12.088 Z" id="path-7" class="cls-4" fill-rule="evenodd"/>
    <path d="M31.508,29.740 C31.254,29.740 30.999,29.643 30.804,29.450 C30.804,29.450 26.987,25.668 26.987,25.668 C26.595,25.278 26.592,24.646 26.981,24.253 C27.370,23.860 28.002,23.859 28.395,24.247 C28.395,24.247 32.212,28.030 32.212,28.030 C32.604,28.419 32.607,29.052 32.219,29.444 C32.023,29.641 31.766,29.740 31.508,29.740 Z" id="path-8" class="cls-4" fill-rule="evenodd"/>
    <path d="M26.419,34.784 C26.165,34.784 25.911,34.687 25.715,34.494 C25.715,34.494 21.898,30.711 21.898,30.711 C21.506,30.322 21.503,29.689 21.892,29.297 C22.281,28.904 22.914,28.902 23.307,29.290 C23.307,29.290 27.123,33.073 27.123,33.073 C27.516,33.462 27.518,34.095 27.130,34.488 C26.934,34.685 26.677,34.784 26.419,34.784 Z" id="path-9" class="cls-4" fill-rule="evenodd"/>
    <path d="M21.331,39.827 C21.076,39.827 20.822,39.730 20.626,39.538 C20.626,39.538 16.809,35.755 16.809,35.755 C16.417,35.366 16.414,34.733 16.803,34.340 C17.192,33.948 17.824,33.945 18.218,34.334 C18.218,34.334 22.035,38.116 22.035,38.116 C22.427,38.505 22.430,39.138 22.041,39.531 C21.845,39.728 21.588,39.827 21.331,39.827 Z" id="path-10" class="cls-4" fill-rule="evenodd"/>
    <path d="M39.693,25.243 C39.435,25.243 39.176,25.144 38.980,24.945 C38.593,24.551 38.598,23.918 38.991,23.531 C38.991,23.531 55.121,7.652 55.121,7.652 C55.515,7.264 56.148,7.269 56.535,7.662 C56.923,8.056 56.918,8.689 56.524,9.077 C56.524,9.077 40.395,24.955 40.395,24.955 C40.200,25.147 39.946,25.243 39.693,25.243 Z" id="path-11" class="cls-4" fill-rule="evenodd"/>
  </g>
</svg>
