<svg xmlns="http://www.w3.org/2000/svg" xmlns:xlink="http://www.w3.org/1999/xlink" preserveAspectRatio="xMidYMid" width="60" height="54" viewBox="0 0 60 54">
  <defs>
    <style>

      .cls-3 {
        fill: #142a3b;
      }

      .cls-5 {
        fill: #020403;
        opacity: 0.45;
      }

      .cls-7 {
        fill: #ff3a2f;
      }

      .cls-8 {
        fill: #020403;
        opacity: 0.35;
      }

      .cls-13 {
        fill: #020403;
      }
    </style>
  </defs>
  <g id="group-22svg">
    <path d="M17.042,42.356 C17.042,42.356 25.058,3.493 25.058,3.493 C25.058,3.493 0.008,3.493 0.008,3.493 C0.008,3.493 8.024,42.356 8.024,42.356 C8.024,42.356 17.042,42.356 17.042,42.356 Z" id="path-1" class="cls-3" fill-rule="evenodd"/>
    <path d="M51.992,42.356 C51.992,42.356 60.008,3.493 60.008,3.493 C60.008,3.493 34.958,3.493 34.958,3.493 C34.958,3.493 42.975,42.356 42.975,42.356 C42.975,42.356 51.992,42.356 51.992,42.356 Z" id="path-2" class="cls-3" fill-rule="evenodd"/>
    <path d="M42.975,42.356 C42.975,42.356 51.992,42.356 51.992,42.356 C51.992,42.356 53.316,35.938 53.316,35.938 C53.316,35.938 53.316,35.139 53.316,35.139 C53.316,32.461 51.128,30.270 48.454,30.270 C48.454,30.270 46.513,30.270 46.513,30.270 C43.839,30.270 41.651,32.461 41.651,35.139 C41.651,35.139 41.651,35.938 41.651,35.938 C41.651,35.938 42.975,42.356 42.975,42.356 Z" id="path-3" class="cls-5" fill-rule="evenodd"/>
    <path d="M8.024,42.356 C8.024,42.356 17.042,42.356 17.042,42.356 C17.042,42.356 18.366,35.938 18.366,35.938 C18.366,35.938 18.366,35.139 18.366,35.139 C18.366,32.461 16.178,30.270 13.503,30.270 C13.503,30.270 11.563,30.270 11.563,30.270 C8.889,30.270 6.701,32.461 6.701,35.139 C6.701,35.139 6.701,35.938 6.701,35.938 C6.701,35.938 8.024,42.356 8.024,42.356 Z" id="path-4" class="cls-5" fill-rule="evenodd"/>
    <path d="M48.033,53.317 C48.033,53.317 46.934,53.317 46.934,53.317 C44.562,53.317 42.621,51.376 42.621,49.003 C42.621,49.003 42.621,37.701 42.621,37.701 C42.621,35.328 44.562,33.387 46.934,33.387 C46.934,33.387 48.033,33.387 48.033,33.387 C50.405,33.387 52.346,35.328 52.346,37.701 C52.346,37.701 52.346,49.003 52.346,49.003 C52.346,51.376 50.405,53.317 48.033,53.317 Z" id="path-5" class="cls-7" fill-rule="evenodd"/>
    <path d="M48.178,49.237 C48.178,49.237 46.789,49.237 46.789,49.237 C45.591,49.237 44.611,48.258 44.611,47.061 C44.611,47.061 44.611,39.644 44.611,39.644 C44.611,38.447 45.591,37.467 46.789,37.467 C46.789,37.467 48.178,37.467 48.178,37.467 C49.375,37.467 50.355,38.447 50.355,39.644 C50.355,39.644 50.355,47.061 50.355,47.061 C50.355,48.258 49.375,49.237 48.178,49.237 Z" id="path-6" class="cls-8" fill-rule="evenodd"/>
    <path d="M49.028,48.108 C49.028,48.108 48.193,48.108 48.193,48.108 C46.843,48.108 45.739,47.003 45.739,45.651 C45.739,45.651 45.739,38.796 45.739,38.796 C45.739,38.410 45.837,38.049 45.996,37.724 C45.181,38.125 44.611,38.958 44.611,39.924 C44.611,39.924 44.611,46.780 44.611,46.780 C44.611,48.132 45.716,49.237 47.066,49.237 C47.066,49.237 47.901,49.237 47.901,49.237 C48.866,49.237 49.698,48.668 50.098,47.851 C49.773,48.011 49.413,48.108 49.028,48.108 Z" id="path-7" class="cls-8" fill-rule="evenodd"/>
    <path d="M13.083,53.317 C13.083,53.317 11.984,53.317 11.984,53.317 C9.611,53.317 7.671,51.376 7.671,49.003 C7.671,49.003 7.671,37.701 7.671,37.701 C7.671,35.328 9.611,33.387 11.984,33.387 C11.984,33.387 13.083,33.387 13.083,33.387 C15.455,33.387 17.396,35.328 17.396,37.701 C17.396,37.701 17.396,49.003 17.396,49.003 C17.396,51.376 15.455,53.317 13.083,53.317 Z" id="path-8" class="cls-7" fill-rule="evenodd"/>
    <path d="M14.078,48.108 C14.078,48.108 13.244,48.108 13.244,48.108 C11.894,48.108 10.789,47.003 10.789,45.651 C10.789,45.651 10.789,38.796 10.789,38.796 C10.789,38.410 10.887,38.049 11.046,37.724 C10.231,38.125 9.661,38.958 9.661,39.924 C9.661,39.924 9.661,46.780 9.661,46.780 C9.661,48.132 10.766,49.237 12.116,49.237 C12.116,49.237 12.951,49.237 12.951,49.237 C13.916,49.237 14.748,48.668 15.148,47.851 C14.823,48.011 14.463,48.108 14.078,48.108 Z" id="path-9" class="cls-8" fill-rule="evenodd"/>
    <path d="M13.228,49.237 C13.228,49.237 11.838,49.237 11.838,49.237 C10.641,49.237 9.661,48.258 9.661,47.061 C9.661,47.061 9.661,39.644 9.661,39.644 C9.661,38.447 10.641,37.467 11.838,37.467 C11.838,37.467 13.228,37.467 13.228,37.467 C14.426,37.467 15.405,38.447 15.405,39.644 C15.405,39.644 15.405,47.061 15.405,47.061 C15.405,48.258 14.426,49.237 13.228,49.237 Z" id="path-10" class="cls-8" fill-rule="evenodd"/>
    <path d="M52.712,12.697 C52.662,12.697 52.611,12.694 52.559,12.689 C51.735,12.606 51.135,11.870 51.218,11.045 C51.218,11.045 51.824,5.062 51.824,5.062 C51.908,4.238 52.642,3.636 53.468,3.721 C54.292,3.804 54.892,4.540 54.809,5.364 C54.809,5.364 54.203,11.348 54.203,11.348 C54.124,12.121 53.473,12.697 52.712,12.697 Z" id="path-11" class="cls-13" fill-rule="evenodd"/>
    <path d="M44.913,12.697 C44.152,12.697 43.500,12.121 43.422,11.348 C43.422,11.348 42.816,5.364 42.816,5.364 C42.733,4.540 43.333,3.804 44.157,3.721 C44.984,3.636 45.717,4.238 45.801,5.062 C45.801,5.062 46.407,11.045 46.407,11.045 C46.490,11.870 45.890,12.606 45.066,12.689 C45.014,12.694 44.963,12.697 44.913,12.697 Z" id="path-12" class="cls-13" fill-rule="evenodd"/>
    <path d="M17.762,12.697 C17.711,12.697 17.661,12.694 17.609,12.689 C16.785,12.606 16.185,11.870 16.268,11.045 C16.268,11.045 16.874,5.062 16.874,5.062 C16.957,4.238 17.689,3.636 18.518,3.721 C19.342,3.804 19.942,4.540 19.858,5.364 C19.858,5.364 19.252,11.348 19.252,11.348 C19.174,12.121 18.522,12.697 17.762,12.697 Z" id="path-13" class="cls-13" fill-rule="evenodd"/>
    <path d="M9.962,12.697 C9.202,12.697 8.550,12.121 8.472,11.348 C8.472,11.348 7.866,5.364 7.866,5.364 C7.783,4.540 8.383,3.804 9.207,3.721 C10.032,3.636 10.767,4.238 10.850,5.062 C10.850,5.062 11.456,11.045 11.456,11.045 C11.540,11.870 10.939,12.606 10.116,12.689 C10.064,12.694 10.013,12.697 9.962,12.697 Z" id="path-14" class="cls-13" fill-rule="evenodd"/>
    <path d="M43.727,13.326 C43.221,13.326 42.787,12.943 42.734,12.428 C42.734,12.428 41.569,1.104 41.569,1.104 C41.513,0.554 41.912,0.063 42.461,0.006 C43.018,-0.050 43.502,0.349 43.559,0.899 C43.559,0.899 44.723,12.224 44.723,12.224 C44.780,12.773 44.380,13.264 43.831,13.321 C43.796,13.324 43.762,13.326 43.727,13.326 Z" id="path-15" class="cls-7" fill-rule="evenodd"/>
    <path d="M51.584,13.325 C51.560,13.325 51.535,13.325 51.511,13.323 C50.960,13.283 50.546,12.804 50.585,12.253 C50.585,12.253 51.405,0.929 51.405,0.929 C51.445,0.378 51.935,-0.034 52.475,0.003 C53.026,0.044 53.440,0.523 53.400,1.074 C53.400,1.074 52.580,12.398 52.580,12.398 C52.542,12.924 52.103,13.325 51.584,13.325 Z" id="path-16" class="cls-7" fill-rule="evenodd"/>
    <path d="M16.634,13.325 C16.609,13.325 16.585,13.325 16.561,13.323 C16.010,13.283 15.596,12.804 15.635,12.253 C15.635,12.253 16.455,0.929 16.455,0.929 C16.495,0.378 16.981,-0.034 17.525,0.003 C18.076,0.044 18.490,0.523 18.450,1.074 C18.450,1.074 17.630,12.398 17.630,12.398 C17.592,12.924 17.153,13.325 16.634,13.325 Z" id="path-17" class="cls-7" fill-rule="evenodd"/>
    <path d="M8.777,13.326 C8.271,13.326 7.836,12.943 7.784,12.428 C7.784,12.428 6.619,1.104 6.619,1.104 C6.562,0.554 6.962,0.063 7.511,0.006 C8.069,-0.050 8.552,0.349 8.608,0.899 C8.608,0.899 9.773,12.224 9.773,12.224 C9.830,12.773 9.430,13.264 8.881,13.321 C8.846,13.324 8.811,13.326 8.777,13.326 Z" id="path-18" class="cls-7" fill-rule="evenodd"/>
  </g>
</svg>
