<svg xmlns="http://www.w3.org/2000/svg" xmlns:xlink="http://www.w3.org/1999/xlink" preserveAspectRatio="xMidYMid" width="61" height="60" viewBox="0 0 61 60">
  <defs>
    <style>

      .cls-3 {
        fill: #142a3b;
      }

      .cls-5 {
        fill: #020403;
        opacity: 0.45;
      }

      .cls-7 {
        fill: #ff3a2f;
      }

      .cls-8 {
        fill: #020403;
        opacity: 0.35;
      }

      .cls-9 {
        fill: #0cb04a;
      }

      .cls-10 {
        fill: #ffffff;
      }
    </style>
  </defs>
  <g id="group-51svg">
    <path d="M42.889,51.007 C44.821,52.118 46.804,53.602 48.818,55.552 C48.818,55.552 47.268,56.441 44.573,57.345 C53.548,58.751 60.007,55.033 60.007,55.033 C53.345,48.586 47.155,49.151 42.889,51.007 Z" id="path-1" class="cls-3" fill-rule="evenodd"/>
    <path d="M16.856,55.552 C16.856,55.552 18.788,53.406 22.057,51.434 C11.985,46.191 4.014,55.033 4.014,55.033 C10.638,58.138 16.608,57.989 20.796,57.145 C19.504,56.698 18.191,56.177 16.856,55.552 Z" id="path-2" class="cls-3" fill-rule="evenodd"/>
    <path d="M51.118,57.345 C53.813,56.441 55.363,55.552 55.363,55.552 C53.349,53.602 51.366,52.118 49.434,51.007 C50.188,50.679 51.005,50.395 51.871,50.179 C48.427,49.309 45.340,49.941 42.889,51.007 C44.821,52.118 46.804,53.602 48.818,55.552 C48.818,55.552 47.268,56.441 44.573,57.345 C47.308,57.774 49.804,57.723 51.960,57.451 C51.680,57.416 51.404,57.390 51.118,57.345 Z" id="path-3" class="cls-5" fill-rule="evenodd"/>
    <path d="M16.856,55.552 C16.856,55.552 18.788,53.406 22.057,51.434 C20.415,50.580 18.831,50.104 17.326,49.898 C16.836,49.965 16.341,50.051 15.835,50.179 C16.701,50.395 17.519,50.679 18.272,51.007 C16.340,52.118 14.357,53.602 12.344,55.552 C12.344,55.552 13.894,56.441 16.588,57.345 C16.303,57.390 16.027,57.416 15.747,57.451 C16.270,57.516 16.815,57.568 17.377,57.604 C18.614,57.520 19.760,57.354 20.796,57.145 C19.504,56.698 18.191,56.178 16.856,55.552 Z" id="path-4" class="cls-5" fill-rule="evenodd"/>
    <path d="M16.856,55.552 C16.856,55.552 31.735,39.020 48.818,55.552 C48.818,55.552 34.490,63.818 16.856,55.552 Z" id="path-5" class="cls-7" fill-rule="evenodd"/>
    <path d="M29.643,48.507 C33.558,49.210 37.839,51.261 42.272,55.552 C42.272,55.552 37.346,58.388 29.721,59.074 C40.958,60.078 48.818,55.552 48.818,55.552 C41.747,48.710 35.059,47.538 29.643,48.507 Z" id="path-6" class="cls-8" fill-rule="evenodd"/>
    <path d="M44.107,19.588 C44.107,26.435 31.708,31.987 31.708,31.987 C31.708,31.987 19.309,26.435 19.309,19.588 C19.309,12.739 31.708,0.010 31.708,0.010 C31.708,0.010 44.107,12.739 44.107,19.588 Z" id="path-7" class="cls-9" fill-rule="evenodd"/>
    <path d="M21.639,21.903 C21.087,21.903 20.639,21.456 20.639,20.904 C20.639,15.085 30.427,4.969 30.843,4.542 C31.228,4.146 31.862,4.138 32.257,4.523 C32.653,4.909 32.661,5.541 32.276,5.937 C29.596,8.690 22.639,16.746 22.639,20.904 C22.639,21.456 22.191,21.903 21.639,21.903 Z" id="path-8" class="cls-10" fill-rule="evenodd"/>
    <path d="M31.708,0.010 C31.708,0.010 31.036,0.702 30.010,1.840 C33.653,6.010 39.743,13.696 39.743,18.496 C39.743,24.035 31.634,28.724 28.533,30.315 C30.349,31.376 31.708,31.987 31.708,31.987 C31.708,31.987 44.107,26.435 44.107,19.588 C44.107,12.739 31.708,0.010 31.708,0.010 Z" id="path-9" class="cls-8" fill-rule="evenodd"/>
    <path d="M32.027,48.996 C31.475,48.996 31.027,48.549 31.027,47.997 C31.027,47.997 31.041,34.866 31.041,34.866 C33.251,21.770 30.765,11.888 30.740,11.789 C30.602,11.255 30.923,10.709 31.457,10.571 C31.990,10.433 32.537,10.754 32.676,11.288 C32.784,11.704 35.289,21.616 33.027,35.115 C33.027,35.115 33.027,47.997 33.027,47.997 C33.027,48.549 32.579,48.996 32.027,48.996 Z" id="path-10" class="cls-3" fill-rule="evenodd"/>
    <path d="M8.741,46.059 C13.470,48.700 22.086,42.281 22.086,42.281 C22.086,42.281 23.036,31.578 18.308,28.936 C13.579,26.295 0.007,29.946 0.007,29.946 C0.007,29.946 4.013,43.417 8.741,46.059 Z" id="path-11" class="cls-9" fill-rule="evenodd"/>
    <path d="M18.308,33.300 C21.017,34.814 21.860,38.974 22.088,42.251 C22.138,41.645 22.893,31.498 18.308,28.936 C13.579,26.295 0.007,29.946 0.007,29.946 C0.007,29.946 0.516,31.653 1.382,33.969 C4.947,33.128 14.497,31.171 18.308,33.300 Z" id="path-12" class="cls-8" fill-rule="evenodd"/>
    <path d="M31.874,49.039 C31.709,49.039 31.542,48.998 31.388,48.912 C31.388,48.912 23.650,44.589 23.650,44.589 C13.425,40.928 7.523,35.351 7.276,35.115 C6.877,34.734 6.863,34.101 7.245,33.702 C7.626,33.304 8.259,33.288 8.658,33.670 C8.716,33.725 14.554,39.225 24.401,42.734 C24.401,42.734 24.553,42.802 24.553,42.802 C24.553,42.802 32.363,47.165 32.363,47.165 C32.845,47.435 33.018,48.044 32.748,48.526 C32.565,48.854 32.225,49.039 31.874,49.039 Z" id="path-13" class="cls-3" fill-rule="evenodd"/>
  </g>
</svg>
