<svg xmlns="http://www.w3.org/2000/svg" xmlns:xlink="http://www.w3.org/1999/xlink" preserveAspectRatio="xMidYMid" width="61" height="60" viewBox="0 0 61 60">
  <defs>
    <style>

      .cls-3 {
        fill: #fbb713;
      }

      .cls-4 {
        fill: #ff3a2f;
      }

      .cls-5 {
        fill: #010101;
        opacity: 0.25;
      }

      .cls-6 {
        fill: #010101;
        opacity: 0.35;
      }

      .cls-7 {
        fill: #ffffff;
      }

      .cls-8 {
        fill: #090909;
        opacity: 0.35;
      }

      .cls-10 {
        fill: #142a3b;
      }

      .cls-13 {
        fill: #000000;
        opacity: 0.35;
      }
    </style>
  </defs>
  <g id="group-257svg">
    <path d="M60.007,47.443 C60.007,49.142 58.651,50.519 56.979,50.519 C56.979,50.519 41.836,50.519 41.836,50.519 C40.163,50.519 38.807,49.142 38.807,47.443 C38.807,47.443 38.807,25.666 38.807,25.666 C38.807,23.967 40.163,22.591 41.836,22.591 C41.836,22.591 56.979,22.591 56.979,22.591 C58.651,22.591 60.007,23.967 60.007,25.666 C60.007,25.666 60.007,47.443 60.007,47.443 Z" id="path-1" class="cls-3" fill-rule="evenodd"/>
    <path d="M49.406,12.847 C44.106,12.847 39.808,17.208 39.808,22.591 C39.808,22.591 59.005,22.591 59.005,22.591 C59.005,17.208 54.708,12.847 49.406,12.847 Z" id="path-2" class="cls-4" fill-rule="evenodd"/>
    <path d="M41.836,50.519 C41.836,50.519 43.526,50.519 43.526,50.519 C43.519,50.432 43.500,50.349 43.500,50.260 C43.500,50.260 43.500,28.482 43.500,28.482 C43.500,26.784 44.856,25.408 46.530,25.408 C46.530,25.408 59.981,25.408 59.981,25.408 C59.850,23.832 58.564,22.592 56.979,22.592 C56.979,22.592 41.836,22.592 41.836,22.592 C40.163,22.592 38.807,23.967 38.807,25.666 C38.807,25.666 38.807,47.443 38.807,47.443 C38.807,49.142 40.163,50.519 41.836,50.519 Z" id="path-3" class="cls-5" fill-rule="evenodd"/>
    <path d="M43.746,22.592 C44.608,18.108 48.494,14.724 53.162,14.724 C53.945,14.724 54.702,14.829 55.431,15.009 C53.783,13.658 51.689,12.847 49.406,12.847 C44.106,12.847 39.808,17.208 39.808,22.592 C39.808,22.592 43.746,22.592 43.746,22.592 Z" id="path-4" class="cls-6" fill-rule="evenodd"/>
    <path d="M56.810,20.812 C56.467,20.812 56.133,20.636 55.947,20.319 C55.475,19.514 54.795,18.840 53.981,18.368 C53.504,18.091 53.341,17.479 53.619,17.001 C53.895,16.524 54.507,16.362 54.985,16.638 C56.096,17.283 57.025,18.206 57.671,19.306 C57.951,19.782 57.791,20.395 57.315,20.674 C57.156,20.768 56.982,20.812 56.810,20.812 Z" id="path-5" class="cls-7" fill-rule="evenodd"/>
    <path d="M45.835,45.345 C45.386,45.345 45.023,44.982 45.023,44.533 C45.023,44.533 45.023,27.654 45.023,27.654 C45.023,27.206 45.386,26.842 45.835,26.842 C46.284,26.842 46.647,27.206 46.647,27.654 C46.647,27.654 46.647,44.533 46.647,44.533 C46.647,44.982 46.284,45.345 45.835,45.345 Z" id="path-6" class="cls-8" fill-rule="evenodd"/>
    <path d="M53.468,45.345 C53.020,45.345 52.656,44.982 52.656,44.533 C52.656,44.533 52.656,27.654 52.656,27.654 C52.656,27.206 53.020,26.842 53.468,26.842 C53.917,26.842 54.280,27.206 54.280,27.654 C54.280,27.654 54.280,44.533 54.280,44.533 C54.280,44.982 53.917,45.345 53.468,45.345 Z" id="path-7" class="cls-8" fill-rule="evenodd"/>
    <path d="M59.467,59.755 C59.467,59.755 0.007,59.755 0.007,59.755 C0.007,59.755 0.007,54.432 0.007,54.432 C0.007,54.432 59.467,54.432 59.467,54.432 C59.467,54.432 59.467,59.755 59.467,59.755 Z" id="path-8" class="cls-10" fill-rule="evenodd"/>
    <path d="M31.458,59.395 C31.458,59.395 28.016,59.395 28.016,59.395 C28.016,59.395 28.016,3.970 28.016,3.970 C28.016,3.970 31.458,3.970 31.458,3.970 C31.458,3.970 31.458,59.395 31.458,59.395 Z" id="path-9" class="cls-10" fill-rule="evenodd"/>
    <path d="M35.606,5.881 C35.606,9.122 32.978,11.750 29.737,11.750 C26.496,11.750 23.868,9.122 23.868,5.881 C23.868,2.639 26.496,0.012 29.737,0.012 C32.978,0.012 35.606,2.639 35.606,5.881 Z" id="path-10" class="cls-10" fill-rule="evenodd"/>
    <path d="M29.737,0.012 C29.363,0.012 29.000,0.054 28.646,0.121 C31.365,0.634 33.425,3.013 33.425,5.881 C33.425,8.749 31.365,11.128 28.646,11.640 C29.000,11.707 29.363,11.750 29.737,11.750 C32.978,11.750 35.606,9.122 35.606,5.881 C35.606,2.639 32.978,0.012 29.737,0.012 Z" id="path-11" class="cls-13" fill-rule="evenodd"/>
    <path d="M16.573,13.368 C16.573,13.368 16.573,4.706 16.573,4.706 C16.573,4.706 10.940,4.706 10.940,4.706 C10.940,4.706 10.940,13.368 10.940,13.368 C10.940,14.130 10.728,14.876 10.328,15.523 C10.328,15.523 4.395,25.121 4.395,25.121 C3.994,25.770 3.782,26.516 3.782,27.276 C3.782,27.276 3.782,46.420 3.782,46.420 C3.782,48.684 5.618,50.519 7.882,50.519 C7.882,50.519 19.632,50.519 19.632,50.519 C21.895,50.519 23.731,48.684 23.731,46.420 C23.731,46.420 23.731,27.276 23.731,27.276 C23.731,26.516 23.519,25.770 23.119,25.121 C23.119,25.121 17.185,15.523 17.185,15.523 C16.785,14.876 16.573,14.130 16.573,13.368 Z" id="path-12" class="cls-4" fill-rule="evenodd"/>
    <path d="M23.119,25.121 C23.119,25.121 17.185,15.523 17.185,15.523 C16.785,14.876 16.573,14.130 16.573,13.368 C16.573,13.368 16.573,4.706 16.573,4.706 C16.573,4.706 14.392,4.706 14.392,4.706 C14.392,4.706 14.392,12.277 14.392,12.277 C14.392,13.039 14.603,13.785 15.004,14.432 C15.004,14.432 20.937,24.031 20.937,24.031 C21.337,24.678 21.549,25.425 21.549,26.186 C21.549,26.186 21.549,45.329 21.549,45.329 C21.549,47.593 19.714,49.428 17.450,49.428 C17.450,49.428 5.700,49.428 5.700,49.428 C5.472,49.428 5.252,49.397 5.035,49.361 C5.772,50.076 6.773,50.519 7.881,50.519 C7.881,50.519 19.632,50.519 19.632,50.519 C21.895,50.519 23.731,48.684 23.731,46.420 C23.731,46.420 23.731,27.276 23.731,27.276 C23.731,26.516 23.519,25.769 23.119,25.121 Z" id="path-13" class="cls-13" fill-rule="evenodd"/>
    <path d="M18.333,5.175 C18.333,5.175 9.180,5.175 9.180,5.175 C9.180,5.175 9.180,0.326 9.180,0.326 C9.180,0.326 18.333,0.326 18.333,0.326 C18.333,0.326 18.333,5.175 18.333,5.175 Z" id="path-14" class="cls-10" fill-rule="evenodd"/>
    <path d="M14.893,0.326 C14.893,0.326 14.893,5.175 14.893,5.175 C14.893,5.175 18.272,5.175 18.272,5.175 C18.272,5.175 18.272,0.326 18.272,0.326 C18.272,0.326 14.893,0.326 14.893,0.326 Z" id="path-15" class="cls-13" fill-rule="evenodd"/>
    <path d="M23.731,42.105 C23.731,42.105 9.435,42.105 9.435,42.105 C9.435,42.105 9.435,31.683 9.435,31.683 C9.435,31.683 23.731,31.683 23.731,31.683 C23.731,31.683 23.731,42.105 23.731,42.105 Z" id="path-16" class="cls-7" fill-rule="evenodd"/>
  </g>
</svg>
