<svg xmlns="http://www.w3.org/2000/svg" xmlns:xlink="http://www.w3.org/1999/xlink" preserveAspectRatio="xMidYMid" width="55" height="60" viewBox="0 0 55 60">
  <defs>
    <style>

      .cls-3 {
        fill: #ff3a2f;
      }

      .cls-5 {
        fill: #060606;
        opacity: 0.35;
      }
    </style>
  </defs>
  <g id="group-181svg">
    <path d="M19.499,6.186 C19.499,6.186 26.901,6.186 26.901,6.186 C42.226,6.186 55.177,18.548 55.177,33.181 C55.177,47.973 43.021,60.005 28.080,60.005 C12.335,60.005 0.004,47.044 0.004,30.499 C0.004,29.792 0.579,29.220 1.283,29.220 C1.283,29.220 8.861,29.220 8.861,29.220 C9.571,29.220 10.141,29.792 10.141,30.499 C10.141,45.149 19.408,50.371 28.080,50.371 C37.115,50.371 45.040,42.120 45.040,32.718 C45.040,23.886 36.733,16.423 26.901,16.423 C26.901,16.423 19.765,16.207 19.765,16.207 C19.765,16.207 19.499,6.186 19.499,6.186 Z" id="path-1" class="cls-3" fill-rule="evenodd"/>
    <path d="M20.618,16.423 C20.618,16.423 20.618,21.598 20.618,21.598 C20.618,22.063 20.369,22.486 19.964,22.714 C19.561,22.941 19.066,22.929 18.672,22.689 C18.672,22.689 1.896,12.394 1.896,12.394 C1.514,12.159 1.284,11.747 1.284,11.297 C1.289,10.850 1.524,10.436 1.909,10.205 C1.909,10.205 18.684,0.188 18.684,0.188 C19.079,-0.049 19.574,-0.057 19.971,0.173 C20.373,0.398 20.618,0.823 20.618,1.285 C20.618,1.285 20.618,6.186 20.618,6.186 C20.618,6.186 20.618,16.423 20.618,16.423 Z" id="path-2" class="cls-3" fill-rule="evenodd"/>
    <path d="M22.750,16.298 C22.750,16.298 25.477,6.186 25.477,6.186 C25.477,6.186 20.618,6.186 20.618,6.186 C20.618,6.186 20.618,16.233 20.618,16.233 C20.618,16.233 22.750,16.298 22.750,16.298 Z" id="path-3" class="cls-5" fill-rule="evenodd"/>
  </g>
</svg>
