<svg xmlns="http://www.w3.org/2000/svg" xmlns:xlink="http://www.w3.org/1999/xlink" preserveAspectRatio="xMidYMid" width="55" height="61" viewBox="0 0 55 61">
  <defs>
    <style>

      .cls-3 {
        fill: #0cb04a;
      }

      .cls-4 {
        fill: #060606;
        opacity: 0.35;
      }

      .cls-5 {
        fill: #ff3a2f;
      }
    </style>
  </defs>
  <g id="group-200svg">
    <path d="M27.487,32.487 C24.730,32.487 22.487,30.243 22.487,27.487 C22.487,27.487 22.487,4.987 22.487,4.987 C22.487,2.228 24.730,-0.013 27.487,-0.013 C30.245,-0.013 32.487,2.228 32.487,4.987 C32.487,4.987 32.487,27.487 32.487,27.487 C32.487,30.243 30.245,32.487 27.487,32.487 Z" id="path-1" class="cls-3" fill-rule="evenodd"/>
    <path d="M29.743,0.549 C30.090,1.230 30.305,1.989 30.305,2.805 C30.305,2.805 30.305,25.305 30.305,25.305 C30.305,28.061 28.063,30.305 25.305,30.305 C24.489,30.305 23.730,30.089 23.050,29.742 C23.878,31.362 25.546,32.487 27.487,32.487 C30.246,32.487 32.487,30.243 32.487,27.487 C32.487,27.487 32.487,4.987 32.487,4.987 C32.487,3.044 31.364,1.377 29.743,0.549 Z" id="path-2" class="cls-4" fill-rule="evenodd"/>
    <path d="M27.487,59.987 C12.326,59.987 -0.013,47.650 -0.013,32.487 C-0.013,21.956 6.156,12.214 15.700,7.670 C16.090,7.487 16.544,7.514 16.906,7.742 C17.267,7.970 17.487,8.368 17.487,8.798 C17.487,8.798 17.487,17.513 17.487,17.513 C17.487,17.908 17.304,18.278 16.989,18.512 C12.540,21.862 9.987,26.956 9.987,32.487 C9.987,42.135 17.838,49.987 27.487,49.987 C37.138,49.987 44.987,42.135 44.987,32.487 C44.987,26.956 42.436,21.862 37.984,18.512 C37.672,18.278 37.487,17.908 37.487,17.513 C37.487,17.513 37.487,8.798 37.487,8.798 C37.487,8.368 37.706,7.970 38.070,7.742 C38.432,7.514 38.888,7.487 39.274,7.670 C48.820,12.214 54.987,21.956 54.987,32.487 C54.987,47.650 42.653,59.987 27.487,59.987 Z" id="path-3" class="cls-5" fill-rule="evenodd"/>
    <path d="M14.214,15.332 C14.214,15.726 14.031,16.096 13.716,16.331 C9.268,19.680 6.714,24.774 6.714,30.305 C6.714,37.070 10.581,42.939 16.214,45.850 C12.411,42.638 9.987,37.842 9.987,32.487 C9.987,26.956 12.540,21.862 16.989,18.512 C17.304,18.278 17.487,17.908 17.487,17.513 C17.487,17.513 17.487,8.798 17.487,8.798 C17.487,8.368 17.267,7.970 16.906,7.742 C16.544,7.514 16.090,7.487 15.700,7.670 C15.193,7.911 14.701,8.175 14.214,8.444 C14.214,8.444 14.214,15.332 14.214,15.332 Z" id="path-4" class="cls-4" fill-rule="evenodd"/>
    <path d="M41.009,8.574 C47.648,13.724 51.714,21.755 51.714,30.305 C51.714,45.469 39.380,57.805 24.214,57.805 C19.295,57.805 14.676,56.500 10.677,54.227 C15.329,57.833 21.160,59.987 27.487,59.987 C42.653,59.987 54.987,47.650 54.987,32.487 C54.987,22.609 49.560,13.425 41.009,8.574 Z" id="path-5" class="cls-4" fill-rule="evenodd"/>
  </g>
</svg>
