<svg xmlns="http://www.w3.org/2000/svg" xmlns:xlink="http://www.w3.org/1999/xlink" preserveAspectRatio="xMidYMid" width="60" height="51" viewBox="0 0 60 51">
  <defs>
    <style>

      .cls-3 {
        fill: #2476ff;
      }

      .cls-4 {
        fill: #020403;
        opacity: 0.35;
      }

      .cls-5 {
        fill: #fbb713;
      }

      .cls-6 {
        fill: #ff3a2f;
      }

      .cls-11 {
        fill: #020403;
        opacity: 0.25;
      }

      .cls-12 {
        fill: #ffffff;
      }

      .cls-13 {
        fill: #142a3b;
      }
    </style>
  </defs>
  <g id="group-107svg">
    <path d="M36.076,50.278 C36.076,50.278 4.319,50.278 4.319,50.278 C1.934,50.278 -0.000,48.345 -0.000,45.959 C-0.000,45.959 -0.000,19.112 -0.000,19.112 C-0.000,16.726 1.934,14.793 4.319,14.793 C4.319,14.793 36.076,14.793 36.076,14.793 C38.461,14.793 40.395,16.726 40.395,19.112 C40.395,19.112 40.395,45.959 40.395,45.959 C40.395,48.345 38.461,50.278 36.076,50.278 Z" id="path-1" class="cls-3" fill-rule="evenodd"/>
    <path d="M30.744,46.323 C30.744,46.323 10.725,46.323 10.725,46.323 C9.103,46.323 7.790,45.009 7.790,43.388 C7.790,43.388 7.790,36.759 7.790,36.759 C7.790,35.138 9.103,33.824 10.725,33.824 C10.725,33.824 30.744,33.824 30.744,33.824 C32.365,33.824 33.679,35.138 33.679,36.759 C33.679,36.759 33.679,43.388 33.679,43.388 C33.679,45.009 32.365,46.323 30.744,46.323 Z" id="path-2" class="cls-4" fill-rule="evenodd"/>
    <path d="M30.207,45.034 C30.207,45.034 10.187,45.034 10.187,45.034 C8.566,45.034 7.253,43.720 7.253,42.099 C7.253,42.099 7.253,35.471 7.253,35.471 C7.253,33.849 8.566,32.535 10.187,32.535 C10.187,32.535 30.207,32.535 30.207,32.535 C31.828,32.535 33.142,33.849 33.142,35.471 C33.142,35.471 33.142,42.099 33.142,42.099 C33.142,43.720 31.828,45.034 30.207,45.034 Z" id="path-3" class="cls-5" fill-rule="evenodd"/>
    <path d="M34.146,14.935 C34.146,14.935 6.248,14.935 6.248,14.935 C6.248,14.935 6.248,6.454 6.248,6.454 C6.248,6.454 34.146,6.454 34.146,6.454 C34.146,6.454 34.146,14.935 34.146,14.935 Z" id="path-4" class="cls-6" fill-rule="evenodd"/>
    <path d="M28.387,18.659 C31.461,18.659 33.953,22.439 33.953,25.512 C33.953,25.512 33.953,49.867 33.953,49.867 C33.953,50.008 33.921,50.141 33.911,50.278 C33.911,50.278 34.830,50.278 34.830,50.278 C37.903,50.278 40.395,48.870 40.395,45.796 C40.395,45.796 40.395,20.358 40.395,20.358 C40.395,17.284 38.987,14.793 35.913,14.793 C35.913,14.793 5.565,14.793 5.565,14.793 C5.565,14.793 5.565,14.793 5.565,14.793 " id="path-5" class="cls-4" fill-rule="evenodd"/>
    <path d="M30.281,6.454 C30.281,6.454 30.281,7.629 30.281,7.629 C30.281,10.241 28.164,12.358 25.552,12.358 C25.552,12.358 6.248,12.358 6.248,12.358 C6.248,12.358 6.248,14.935 6.248,14.935 C6.248,14.935 34.146,14.935 34.146,14.935 C34.146,14.935 34.146,6.454 34.146,6.454 C34.146,6.454 30.281,6.454 30.281,6.454 Z" id="path-6" class="cls-4" fill-rule="evenodd"/>
    <path d="M59.946,10.502 C59.946,4.709 56.382,0.012 52.067,0.012 C47.753,0.012 44.588,4.709 44.588,10.502 C44.588,15.253 45.500,19.261 50.500,20.551 C50.500,20.551 50.500,49.781 50.500,49.781 C50.500,49.781 54.500,49.781 54.500,49.781 C54.500,49.781 54.500,20.551 54.500,20.551 C57.500,19.261 59.946,15.253 59.946,10.502 Z" id="path-7" class="cls-5" fill-rule="evenodd"/>
    <path d="M53.177,21.224 C53.177,21.224 53.177,49.800 53.177,49.800 C53.177,49.800 54.465,49.800 54.465,49.800 C54.465,49.800 54.465,20.649 54.465,20.649 C54.062,20.875 53.635,21.072 53.177,21.224 Z" id="path-8" class="cls-4" fill-rule="evenodd"/>
    <path d="M52.302,0.012 C50.290,0.012 48.489,1.043 47.134,2.721 C48.267,1.823 49.586,1.301 51.013,1.301 C55.327,1.301 58.711,5.997 58.711,11.790 C58.711,14.729 57.964,17.378 56.483,19.281 C58.815,17.412 59.999,14.190 59.999,10.502 C59.999,4.709 56.616,0.012 52.302,0.012 Z" id="path-9" class="cls-11" fill-rule="evenodd"/>
    <path d="M4.007,35.840 C3.455,35.840 3.007,35.393 3.007,34.840 C3.007,34.840 3.007,21.793 3.007,21.793 C3.007,21.241 3.455,20.793 4.007,20.793 C4.560,20.793 5.007,21.241 5.007,21.793 C5.007,21.793 5.007,34.840 5.007,34.840 C5.007,35.393 4.560,35.840 4.007,35.840 Z" id="path-10" class="cls-12" fill-rule="evenodd"/>
    <path d="M26.289,37.344 C26.289,37.344 13.726,37.344 13.726,37.344 C13.173,37.344 12.726,36.896 12.726,36.343 C12.726,35.791 13.173,35.343 13.726,35.343 C13.726,35.343 26.289,35.343 26.289,35.343 C26.841,35.343 27.289,35.791 27.289,36.343 C27.289,36.896 26.841,37.344 26.289,37.344 Z" id="path-11" class="cls-13" fill-rule="evenodd"/>
    <path d="M26.289,42.498 C26.289,42.498 13.726,42.498 13.726,42.498 C13.173,42.498 12.726,42.050 12.726,41.498 C12.726,40.946 13.173,40.498 13.726,40.498 C13.726,40.498 26.289,40.498 26.289,40.498 C26.841,40.498 27.289,40.946 27.289,41.498 C27.289,42.050 26.841,42.498 26.289,42.498 Z" id="path-12" class="cls-13" fill-rule="evenodd"/>
    <path d="M49.818,6.454 C49.818,7.310 49.124,8.003 48.269,8.003 C47.413,8.003 46.720,7.310 46.720,6.454 C46.720,5.598 47.413,4.904 48.269,4.904 C49.124,4.904 49.818,5.598 49.818,6.454 Z" id="path-13" class="cls-12" fill-rule="evenodd"/>
  </g>
</svg>
