<svg xmlns="http://www.w3.org/2000/svg" xmlns:xlink="http://www.w3.org/1999/xlink" preserveAspectRatio="xMidYMid" width="53" height="60" viewBox="0 0 53 60">
  <defs>
    <style>

      .cls-3 {
        fill: #0cb04a;
      }

      .cls-4 {
        fill: #ff3a2f;
      }

      .cls-6 {
        fill: #fbb713;
      }
    </style>
  </defs>
  <g id="group-293svg">
    <path d="M2.237,58.977 C2.237,59.532 1.802,59.982 1.265,59.982 C0.728,59.982 0.293,59.532 0.293,58.977 C0.293,58.977 0.293,55.898 0.293,55.898 C0.293,55.343 0.728,54.893 1.265,54.893 C1.802,54.893 2.237,55.343 2.237,55.898 C2.237,55.898 2.237,58.977 2.237,58.977 Z" id="path-1" class="cls-3" fill-rule="evenodd"/>
    <path d="M42.945,13.065 C43.545,13.033 44.136,12.793 44.592,12.337 C44.592,12.337 50.868,6.060 50.868,6.060 C51.848,5.081 51.848,3.478 50.868,2.498 C50.868,2.498 49.087,0.717 49.087,0.717 C48.107,-0.262 46.504,-0.262 45.524,0.717 C45.524,0.717 39.248,6.993 39.248,6.993 C38.792,7.449 38.552,8.040 38.520,8.640 C38.520,8.640 31.700,1.820 31.700,1.820 C31.700,1.820 25.593,7.927 25.593,7.927 C25.593,7.927 43.659,25.992 43.659,25.992 C43.659,25.992 49.765,19.886 49.765,19.886 C49.765,19.886 42.945,13.065 42.945,13.065 Z" id="path-2" class="cls-4" fill-rule="evenodd"/>
    <path d="M10.581,35.067 C10.581,35.067 22.200,36.085 22.200,36.085 C22.200,36.085 7.697,50.588 7.697,50.588 C7.697,50.588 -0.001,52.011 -0.001,52.011 C-0.001,52.011 1.378,44.269 1.378,44.269 C1.378,44.269 10.581,35.067 10.581,35.067 Z" id="path-3" class="cls-3" fill-rule="evenodd"/>
    <path d="M21.640,36.730 C21.640,36.730 38.019,20.352 38.019,20.352 C38.019,20.352 31.657,13.991 31.657,13.991 C31.657,13.991 10.581,35.067 10.581,35.067 C10.581,35.067 21.640,36.730 21.640,36.730 Z" id="path-4" class="cls-6" fill-rule="evenodd"/>
  </g>
</svg>
