<svg xmlns="http://www.w3.org/2000/svg" xmlns:xlink="http://www.w3.org/1999/xlink" preserveAspectRatio="xMidYMid" width="39" height="60" viewBox="0 0 39 60">
  <defs>
    <style>

      .cls-3 {
        fill: #142a3b;
      }

      .cls-4 {
        fill: #000000;
        opacity: 0.35;
      }

      .cls-5 {
        fill: #ededed;
      }
    </style>
  </defs>
  <g id="group-219svg">
    <path d="M23.170,6.384 C23.170,6.384 20.390,6.384 20.390,6.384 C20.246,3.998 18.089,3.033 16.630,2.400 C15.853,2.061 14.887,1.640 14.887,1.278 C14.887,0.572 14.316,0.002 13.611,0.002 C12.905,0.002 12.334,0.572 12.334,1.278 C12.334,3.313 14.227,4.138 15.609,4.739 C16.974,5.335 17.662,5.734 17.805,6.384 C17.805,6.384 15.112,6.384 15.112,6.384 C6.775,6.384 -0.008,13.167 -0.008,21.504 C-0.008,21.504 -0.008,21.704 -0.008,21.704 C-0.008,21.704 -0.008,40.892 -0.008,40.892 C-0.008,51.430 8.564,60.002 19.101,60.002 C19.101,60.002 19.181,60.002 19.181,60.002 C29.718,60.002 38.290,51.430 38.290,40.892 C38.290,40.892 38.290,21.704 38.290,21.704 C38.290,21.704 38.290,21.504 38.290,21.504 C38.290,13.167 31.507,6.384 23.170,6.384 Z" id="path-1" class="cls-3" fill-rule="evenodd"/>
    <path d="M32.083,9.318 C33.919,11.821 35.017,14.896 35.017,18.231 C35.017,18.231 35.017,18.430 35.017,18.430 C35.017,18.430 35.017,37.620 35.017,37.620 C35.017,48.157 26.445,56.729 15.908,56.729 C15.908,56.729 15.828,56.729 15.828,56.729 C11.393,56.729 7.316,55.196 4.070,52.651 C7.571,57.116 13.000,60.002 19.101,60.002 C19.101,60.002 19.181,60.002 19.181,60.002 C29.718,60.002 38.290,51.430 38.290,40.892 C38.290,40.892 38.290,21.704 38.290,21.704 C38.290,21.704 38.290,21.505 38.290,21.505 C38.290,16.502 35.838,12.072 32.083,9.318 Z" id="path-2" class="cls-4" fill-rule="evenodd"/>
    <path d="M23.460,28.086 C23.460,28.086 14.822,28.086 14.822,28.086 C14.269,28.086 13.822,27.638 13.822,27.086 C13.822,27.086 13.822,17.384 13.822,17.384 C13.822,16.832 14.269,16.384 14.822,16.384 C14.822,16.384 23.460,16.384 23.460,16.384 C24.013,16.384 24.460,16.832 24.460,17.384 C24.460,17.384 24.460,27.086 24.460,27.086 C24.460,27.638 24.013,28.086 23.460,28.086 Z" id="path-3" class="cls-5" fill-rule="evenodd"/>
    <path d="M17.864,26.065 C17.864,26.065 20.417,26.065 20.417,26.065 C20.417,26.065 20.417,18.405 20.417,18.405 C20.417,18.405 17.864,18.405 17.864,18.405 C17.864,18.405 17.864,26.065 17.864,26.065 Z" id="path-4" class="cls-3" fill-rule="evenodd"/>
  </g>
</svg>
