<svg xmlns="http://www.w3.org/2000/svg" xmlns:xlink="http://www.w3.org/1999/xlink" preserveAspectRatio="xMidYMid" width="49" height="60" viewBox="0 0 49 60">
  <defs>
    <style>

      .cls-3 {
        fill: #fbb713;
      }

      .cls-4 {
        fill: #020403;
        opacity: 0.25;
      }

      .cls-5 {
        fill: #142a3b;
      }

      .cls-6 {
        fill: #ff3a2f;
      }

      .cls-7 {
        fill: #020403;
        opacity: 0.35;
      }
    </style>
  </defs>
  <g id="group-137svg">
    <path d="M23.809,46.841 C23.809,46.841 40.051,42.249 40.051,42.249 C40.051,42.249 31.261,4.803 31.261,4.803 C31.261,4.803 23.028,4.933 23.028,4.933 C23.028,4.933 18.438,23.958 23.809,46.841 Z" id="path-1" class="cls-3" fill-rule="evenodd"/>
    <path d="M26.719,36.549 C24.481,22.288 25.817,10.343 26.711,4.892 C26.711,4.892 24.101,4.934 24.101,4.934 C24.101,4.934 19.511,23.958 24.881,46.840 C24.881,46.840 40.051,42.249 40.051,42.249 C40.051,42.249 39.542,40.084 39.542,40.084 C39.542,40.084 34.738,41.570 34.738,41.570 C31.095,42.696 27.310,40.316 26.719,36.549 Z" id="path-2" class="cls-4" fill-rule="evenodd"/>
    <path d="M31.446,40.383 C24.447,40.383 19.322,37.729 19.003,37.560 C18.515,37.301 18.330,36.697 18.588,36.210 C18.846,35.721 19.452,35.535 19.938,35.793 C20.048,35.850 31.048,41.513 42.449,35.783 C42.942,35.535 43.544,35.735 43.791,36.227 C44.039,36.721 43.840,37.322 43.347,37.570 C39.150,39.679 35.049,40.383 31.446,40.383 Z" id="path-3" class="cls-5" fill-rule="evenodd"/>
    <path d="M0.010,43.558 C0.010,43.558 1.487,53.093 30.940,55.211 C30.940,55.211 49.270,55.211 49.270,55.211 C49.270,55.211 49.270,59.979 49.270,59.979 C49.270,59.979 30.940,59.979 30.940,59.979 C1.487,57.859 0.010,48.325 0.010,48.325 C0.010,48.325 0.010,43.558 0.010,43.558 Z" id="path-4" class="cls-6" fill-rule="evenodd"/>
    <path d="M48.198,55.211 C48.198,55.211 48.198,56.760 48.198,56.760 C48.198,56.760 29.868,56.760 29.868,56.760 C9.103,55.266 2.250,50.090 0.010,47.164 C0.010,47.164 0.010,48.325 0.010,48.325 C0.010,48.325 1.487,57.859 30.940,59.979 C30.940,59.979 49.270,59.979 49.270,59.979 C49.270,59.979 49.270,55.211 49.270,55.211 C49.270,55.211 48.198,55.211 48.198,55.211 Z" id="path-5" class="cls-7" fill-rule="evenodd"/>
    <path d="M24.639,52.768 C24.168,52.768 23.749,52.434 23.658,51.954 C23.359,50.381 16.418,13.272 23.773,0.480 C24.048,0.001 24.660,-0.164 25.139,0.111 C25.617,0.387 25.782,0.998 25.507,1.477 C18.517,13.634 25.551,51.203 25.623,51.581 C25.726,52.124 25.370,52.647 24.827,52.750 C24.764,52.763 24.701,52.768 24.639,52.768 Z" id="path-6" class="cls-5" fill-rule="evenodd"/>
  </g>
</svg>
