<svg xmlns="http://www.w3.org/2000/svg" xmlns:xlink="http://www.w3.org/1999/xlink" preserveAspectRatio="xMidYMid" width="60" height="59" viewBox="0 0 60 59">
  <defs>
    <style>

      .cls-3 {
        fill: #fbb713;
      }

      .cls-4 {
        fill: #010100;
        opacity: 0.25;
      }

      .cls-5 {
        fill: #062635;
      }

      .cls-6 {
        fill: #060606;
        opacity: 0.35;
      }

      .cls-8 {
        fill: #ffffff;
      }

      .cls-14 {
        fill: #ededed;
      }
    </style>
  </defs>
  <g id="group-172svg">
    <path d="M59.997,16.992 C59.997,16.992 21.294,6.022 21.294,6.022 C21.294,6.022 21.294,35.975 21.294,35.975 C21.294,35.975 59.997,24.898 59.997,24.898 C59.997,24.898 59.997,16.992 59.997,16.992 Z" id="path-1" class="cls-3" fill-rule="evenodd"/>
    <path d="M25.659,16.337 C25.659,16.337 22.258,7.113 22.258,7.113 C22.258,7.113 21.295,6.833 21.295,6.833 C21.295,6.833 21.294,35.975 21.294,35.975 C21.294,35.975 59.997,24.898 59.997,24.898 C59.997,24.898 59.997,19.621 59.997,19.621 C59.997,19.621 38.397,25.900 38.397,25.900 C32.025,27.752 25.659,22.972 25.659,16.337 Z" id="path-2" class="cls-4" fill-rule="evenodd"/>
    <path d="M7.272,59.037 C7.272,59.037 3.877,59.037 3.877,59.037 C3.877,59.037 3.877,10.054 3.877,10.054 C3.877,10.054 7.272,10.054 7.272,10.054 C7.272,10.054 7.272,59.037 7.272,59.037 Z" id="path-3" class="cls-5" fill-rule="evenodd"/>
    <path d="M7.272,12.855 C7.272,12.855 3.877,17.219 3.877,17.219 C3.877,17.219 3.877,10.054 3.877,10.054 C3.877,10.054 7.272,10.054 7.272,10.054 C7.272,10.054 7.272,12.855 7.272,12.855 Z" id="path-4" class="cls-6" fill-rule="evenodd"/>
    <path d="M11.152,5.567 C11.152,8.647 8.655,11.144 5.575,11.144 C2.495,11.144 -0.003,8.647 -0.003,5.567 C-0.003,2.487 2.495,-0.011 5.575,-0.011 C8.655,-0.011 11.152,2.487 11.152,5.567 Z" id="path-5" class="cls-5" fill-rule="evenodd"/>
    <path d="M9.010,2.294 C9.010,2.986 8.449,3.548 7.757,3.548 C7.064,3.548 6.503,2.986 6.503,2.294 C6.503,1.602 7.064,1.040 7.757,1.040 C8.449,1.040 9.010,1.602 9.010,2.294 Z" id="path-6" class="cls-8" fill-rule="evenodd"/>
    <path d="M7.757,8.963 C4.676,8.963 2.179,6.465 2.179,3.385 C2.179,2.408 2.453,1.503 2.895,0.704 C1.175,1.655 -0.003,3.464 -0.003,5.567 C-0.003,8.647 2.495,11.144 5.575,11.144 C7.678,11.144 9.487,9.966 10.437,8.247 C9.639,8.689 8.734,8.963 7.757,8.963 Z" id="path-7" class="cls-6" fill-rule="evenodd"/>
    <path d="M28.851,20.945 C28.851,29.187 25.468,35.868 21.294,35.868 C17.121,35.868 13.738,29.187 13.738,20.945 C13.738,12.704 17.121,6.022 21.294,6.022 C25.468,6.022 28.851,12.704 28.851,20.945 Z" id="path-8" class="cls-3" fill-rule="evenodd"/>
    <path d="M28.851,20.945 C28.851,29.187 25.468,35.868 21.294,35.868 C17.121,35.868 13.738,29.187 13.738,20.945 C13.738,12.704 17.121,6.022 21.294,6.022 C25.468,6.022 28.851,12.704 28.851,20.945 Z" id="path-9" class="cls-6" fill-rule="evenodd"/>
    <path d="M21.202,6.257 C21.202,6.257 6.644,20.816 6.644,20.816 C6.412,21.048 6.035,21.048 5.803,20.816 C5.803,20.816 5.615,20.628 5.615,20.628 C5.383,20.395 5.383,20.019 5.615,19.787 C5.615,19.787 20.173,5.229 20.173,5.229 C20.405,4.997 20.782,4.997 21.014,5.229 C21.014,5.229 21.202,5.417 21.202,5.417 C21.434,5.649 21.434,6.026 21.202,6.257 Z" id="path-10" class="cls-5" fill-rule="evenodd"/>
    <path d="M4.497,20.131 C4.497,20.131 20.481,36.116 20.481,36.116 C20.711,36.344 21.083,36.344 21.312,36.116 C21.312,36.116 21.497,35.929 21.497,35.929 C21.727,35.700 21.727,35.329 21.497,35.099 C21.497,35.099 5.513,19.114 5.513,19.114 C5.283,18.885 4.912,18.885 4.682,19.114 C4.682,19.114 4.497,19.300 4.497,19.300 C4.267,19.529 4.267,19.901 4.497,20.131 Z" id="path-11" class="cls-5" fill-rule="evenodd"/>
    <path d="M47.910,18.024 C47.822,18.024 47.732,18.012 47.643,17.987 C47.643,17.987 33.117,13.986 33.117,13.986 C32.585,13.840 32.272,13.289 32.419,12.757 C32.566,12.224 33.117,11.909 33.648,12.058 C33.648,12.058 48.175,16.059 48.175,16.059 C48.707,16.206 49.020,16.756 48.873,17.289 C48.751,17.732 48.349,18.024 47.910,18.024 Z" id="path-12" class="cls-14" fill-rule="evenodd"/>
  </g>
</svg>
