<svg xmlns="http://www.w3.org/2000/svg" xmlns:xlink="http://www.w3.org/1999/xlink" preserveAspectRatio="xMidYMid" width="60" height="56" viewBox="0 0 60 56">
  <defs>
    <style>

      .cls-3 {
        fill: #ededed;
      }

      .cls-4 {
        fill: #020403;
        opacity: 0.25;
      }

      .cls-6 {
        fill: #fbb713;
      }

      .cls-7 {
        fill: #ffffff;
      }
    </style>
  </defs>
  <g id="group-86svg">
    <path d="M14.837,12.373 C14.837,12.373 32.473,-15.446 51.598,12.373 C51.598,12.373 66.500,20.465 56.565,33.060 C56.565,33.060 55.323,69.500 16.328,50.127 C16.328,50.127 -19.439,31.995 14.837,12.373 Z" id="path-1" class="cls-3" fill-rule="evenodd"/>
    <path d="M51.598,12.373 C45.654,3.727 39.854,0.458 34.684,0.055 C38.539,1.698 42.633,5.116 46.798,11.173 C46.798,11.173 61.701,19.264 51.765,31.860 C51.765,31.860 50.850,58.664 25.984,54.069 C55.533,63.214 56.565,33.060 56.565,33.060 C66.500,20.465 51.598,12.373 51.598,12.373 Z" id="path-2" class="cls-4" fill-rule="evenodd"/>
    <path d="M44.238,28.589 C44.238,35.362 38.748,40.852 31.976,40.852 C25.203,40.852 19.713,35.362 19.713,28.589 C19.713,21.817 25.203,16.327 31.976,16.327 C38.748,16.327 44.238,21.817 44.238,28.589 Z" id="path-3" class="cls-4" fill-rule="evenodd"/>
    <path d="M41.634,28.589 C41.634,33.924 37.310,38.248 31.976,38.248 C26.642,38.248 22.318,33.924 22.318,28.589 C22.318,23.256 26.642,18.931 31.976,18.931 C37.310,18.931 41.634,23.256 41.634,28.589 Z" id="path-4" class="cls-6" fill-rule="evenodd"/>
    <path d="M26.305,29.202 C25.753,29.202 25.305,28.754 25.305,28.202 C25.305,24.076 28.662,20.718 32.789,20.718 C33.341,20.718 33.788,21.166 33.788,21.718 C33.788,22.271 33.341,22.719 32.789,22.719 C29.765,22.719 27.305,25.179 27.305,28.202 C27.305,28.754 26.857,29.202 26.305,29.202 Z" id="path-5" class="cls-7" fill-rule="evenodd"/>
  </g>
</svg>
