<svg xmlns="http://www.w3.org/2000/svg" xmlns:xlink="http://www.w3.org/1999/xlink" preserveAspectRatio="xMidYMid" width="61" height="60" viewBox="0 0 61 60">
  <defs>
    <style>

      .cls-3 {
        fill: #2476ff;
      }

      .cls-4 {
        fill: #ffffff;
        opacity: 0.5;
      }

      .cls-6 {
        fill: #ededed;
      }
    </style>
  </defs>
  <g id="group-168svg">
    <path d="M29.992,0.014 C13.423,0.014 -0.008,13.446 -0.008,30.014 C-0.008,46.582 13.423,60.014 29.992,60.014 C46.560,60.014 59.992,46.582 59.992,30.014 C59.992,13.446 46.560,0.014 29.992,0.014 ZM29.992,40.220 C24.355,40.220 19.785,35.651 19.785,30.014 C19.785,24.377 24.355,19.808 29.992,19.808 C35.628,19.808 40.198,24.377 40.198,30.014 C40.198,35.651 35.628,40.220 29.992,40.220 Z" id="path-1" class="cls-3" fill-rule="evenodd"/>
    <path d="M27.352,20.165 C27.352,20.165 22.227,1.034 22.227,1.034 C11.900,3.795 3.772,11.923 1.012,22.249 C1.012,22.249 20.143,27.375 20.143,27.375 C21.082,23.863 23.840,21.104 27.352,20.165 Z" id="path-2" class="cls-4" fill-rule="evenodd"/>
    <path d="M39.841,32.653 C38.901,36.165 36.143,38.924 32.631,39.863 C32.631,39.863 37.757,58.994 37.757,58.994 C48.082,56.233 56.211,48.105 58.971,37.779 C58.971,37.779 39.841,32.653 39.841,32.653 Z" id="path-3" class="cls-4" fill-rule="evenodd"/>
    <path d="M29.964,53.932 C17.482,53.932 7.328,43.777 7.328,31.295 C7.328,30.743 7.775,30.295 8.328,30.295 C8.880,30.295 9.328,30.743 9.328,31.295 C9.328,42.674 18.585,51.932 29.964,51.932 C30.517,51.932 30.964,52.380 30.964,52.932 C30.964,53.484 30.517,53.932 29.964,53.932 Z" id="path-4" class="cls-6" fill-rule="evenodd"/>
  </g>
</svg>
