<svg xmlns="http://www.w3.org/2000/svg" xmlns:xlink="http://www.w3.org/1999/xlink" preserveAspectRatio="xMidYMid" width="60" height="59" viewBox="0 0 60 59">
  <defs>
    <style>

      .cls-3 {
        fill: #ff3a2f;
      }

      .cls-8 {
        fill: #000000;
        opacity: 0.35;
      }
    </style>
  </defs>
  <g id="group-327svg">
    <path d="M43.237,47.973 C42.985,47.973 42.728,47.926 42.480,47.824 C42.480,47.824 18.376,37.962 18.376,37.962 C17.353,37.543 16.864,36.376 17.282,35.353 C17.701,34.331 18.869,33.842 19.891,34.260 C19.891,34.260 43.995,44.122 43.995,44.122 C45.018,44.540 45.507,45.708 45.089,46.730 C44.772,47.504 44.025,47.973 43.237,47.973 Z" id="path-1" class="cls-3" fill-rule="evenodd"/>
    <path d="M19.134,24.238 C18.339,24.238 17.587,23.761 17.275,22.977 C16.867,21.951 17.367,20.788 18.394,20.380 C18.394,20.380 39.580,11.944 39.580,11.944 C40.607,11.534 41.769,12.036 42.177,13.062 C42.586,14.088 42.085,15.251 41.059,15.660 C41.059,15.660 19.873,24.095 19.873,24.095 C19.630,24.192 19.380,24.238 19.134,24.238 Z" id="path-2" class="cls-3" fill-rule="evenodd"/>
    <path d="M43.238,55.468 C47.068,59.299 53.280,59.299 57.110,55.468 C60.941,51.637 60.941,45.426 57.110,41.595 C53.280,37.764 47.068,37.764 43.238,41.595 C39.407,45.426 39.407,51.637 43.238,55.468 Z" id="path-3" class="cls-3" fill-rule="evenodd"/>
    <path d="M40.319,16.720 C44.150,20.551 50.361,20.551 54.192,16.720 C58.023,12.889 58.023,6.678 54.192,2.847 C50.361,-0.984 44.150,-0.984 40.319,2.847 C36.488,6.678 36.488,12.889 40.319,16.720 Z" id="path-4" class="cls-3" fill-rule="evenodd"/>
    <path d="M3.988,38.842 C9.328,44.181 17.984,44.181 23.323,38.842 C28.663,33.502 28.663,24.845 23.323,19.506 C17.984,14.167 9.328,14.167 3.988,19.506 C-1.351,24.845 -1.351,33.502 3.988,38.842 Z" id="path-5" class="cls-3" fill-rule="evenodd"/>
    <path d="M57.110,41.595 C56.864,41.349 56.607,41.119 56.342,40.905 C59.465,44.757 59.236,50.425 55.651,54.009 C52.067,57.593 46.399,57.823 42.547,54.700 C42.762,54.965 42.991,55.221 43.238,55.468 C47.068,59.299 53.280,59.299 57.110,55.468 C60.941,51.637 60.941,45.426 57.110,41.595 Z" id="path-6" class="cls-8" fill-rule="evenodd"/>
    <path d="M54.192,2.847 C53.946,2.600 53.688,2.371 53.424,2.157 C56.547,6.009 56.317,11.676 52.733,15.261 C49.148,18.845 43.481,19.074 39.628,15.952 C39.843,16.217 40.073,16.473 40.319,16.720 C44.150,20.551 50.361,20.550 54.192,16.720 C58.023,12.889 58.023,6.678 54.192,2.847 Z" id="path-7" class="cls-8" fill-rule="evenodd"/>
    <path d="M23.323,19.506 C23.077,19.260 22.817,19.037 22.557,18.814 C27.180,24.185 26.957,32.289 21.864,37.382 C16.771,42.475 8.667,42.698 3.295,38.075 C3.519,38.335 3.742,38.595 3.988,38.842 C9.328,44.181 17.984,44.181 23.323,38.842 C28.663,33.502 28.663,24.846 23.323,19.506 Z" id="path-8" class="cls-8" fill-rule="evenodd"/>
  </g>
</svg>
