<svg xmlns="http://www.w3.org/2000/svg" xmlns:xlink="http://www.w3.org/1999/xlink" preserveAspectRatio="xMidYMid" width="60" height="56" viewBox="0 0 60 56">
  <defs>
    <style>

      .cls-3 {
        fill: #142a3b;
      }

      .cls-6 {
        fill: #ededed;
      }

      .cls-7 {
        fill: #060606;
        opacity: 0.35;
      }

      .cls-10 {
        fill: #fbb713;
      }

      .cls-11 {
        fill: #ff3a2f;
      }

      .cls-12 {
        fill: #0cb04a;
      }

      .cls-13 {
        fill: #2476ff;
      }
    </style>
  </defs>
  <g id="group-178svg">
    <path d="M39.044,50.378 C39.044,50.378 19.650,50.378 19.650,50.378 C19.650,50.378 19.650,49.057 19.650,49.057 C19.650,49.057 39.044,49.057 39.044,49.057 C39.044,49.057 39.044,50.378 39.044,50.378 Z" id="path-1" class="cls-3" fill-rule="evenodd"/>
    <path d="M31.757,55.849 C31.757,55.849 27.040,55.849 27.040,55.849 C27.040,55.849 27.040,-0.000 27.040,-0.000 C27.040,-0.000 31.757,-0.000 31.757,-0.000 C31.757,-0.000 31.757,55.849 31.757,55.849 Z" id="path-2" class="cls-3" fill-rule="evenodd"/>
    <path d="M54.421,40.378 C54.421,40.378 5.553,40.378 5.553,40.378 C5.553,40.378 5.553,4.151 5.553,4.151 C5.553,4.151 54.421,4.151 54.421,4.151 C54.421,4.151 54.421,40.378 54.421,40.378 Z" id="path-3" class="cls-3" fill-rule="evenodd"/>
    <path d="M50.781,37.172 C50.781,37.172 9.192,37.172 9.192,37.172 C9.192,37.172 9.192,7.356 9.192,7.356 C9.192,7.356 50.781,7.356 50.781,7.356 C50.781,7.356 50.781,37.172 50.781,37.172 Z" id="path-4" class="cls-6" fill-rule="evenodd"/>
    <path d="M50.781,11.172 C50.781,11.172 9.192,8.990 9.192,8.990 C9.192,8.990 9.192,7.356 9.192,7.356 C9.192,7.356 50.781,7.356 50.781,7.356 C50.781,7.356 50.781,11.172 50.781,11.172 Z" id="path-5" class="cls-7" fill-rule="evenodd"/>
    <path d="M59.987,6.132 C59.987,6.132 -0.013,6.132 -0.013,6.132 C-0.013,6.132 -0.013,3.019 -0.013,3.019 C-0.013,3.019 59.987,3.019 59.987,3.019 C59.987,3.019 59.987,6.132 59.987,6.132 Z" id="path-6" class="cls-3" fill-rule="evenodd"/>
    <path d="M18.005,30.246 C17.809,30.246 17.611,30.188 17.437,30.068 C16.983,29.754 16.869,29.131 17.183,28.677 C17.183,28.677 23.573,19.432 23.573,19.432 C23.573,19.432 36.304,26.678 36.304,26.678 C36.304,26.678 41.632,16.699 41.632,16.699 C41.892,16.212 42.496,16.027 42.985,16.288 C43.472,16.548 43.656,17.153 43.396,17.641 C43.396,17.641 37.100,29.433 37.100,29.433 C37.100,29.433 24.177,22.077 24.177,22.077 C24.177,22.077 18.829,29.814 18.829,29.814 C18.634,30.095 18.322,30.246 18.005,30.246 Z" id="path-7" class="cls-3" fill-rule="evenodd"/>
    <path d="M20.910,29.131 C20.910,30.735 19.610,32.035 18.006,32.035 C16.402,32.035 15.102,30.735 15.102,29.131 C15.102,27.527 16.402,26.227 18.006,26.227 C19.610,26.227 20.910,27.527 20.910,29.131 Z" id="path-8" class="cls-10" fill-rule="evenodd"/>
    <path d="M26.988,19.811 C26.988,21.791 25.383,23.396 23.403,23.396 C21.424,23.396 19.818,21.791 19.818,19.811 C19.818,17.832 21.424,16.226 23.403,16.226 C25.383,16.226 26.988,17.832 26.988,19.811 Z" id="path-9" class="cls-11" fill-rule="evenodd"/>
    <path d="M40.041,28.056 C40.041,29.900 38.546,31.395 36.702,31.395 C34.858,31.395 33.363,29.900 33.363,28.056 C33.363,26.212 34.858,24.717 36.702,24.717 C38.546,24.717 40.041,26.212 40.041,28.056 Z" id="path-10" class="cls-12" fill-rule="evenodd"/>
    <path d="M44.872,16.321 C44.872,17.623 43.816,18.680 42.514,18.680 C41.211,18.680 40.155,17.623 40.155,16.321 C40.155,15.018 41.211,13.962 42.514,13.962 C43.816,13.962 44.872,15.018 44.872,16.321 Z" id="path-11" class="cls-13" fill-rule="evenodd"/>
    <path d="M44.194,55.836 C44.194,55.836 50.877,55.849 50.877,55.849 C50.877,55.849 32.809,37.781 32.809,37.781 C32.809,37.781 29.474,41.116 29.474,41.116 C29.474,41.116 44.194,55.836 44.194,55.836 Z" id="path-12" class="cls-3" fill-rule="evenodd"/>
    <path d="M15.780,55.836 C15.780,55.836 9.097,55.849 9.097,55.849 C9.097,55.849 27.164,37.781 27.164,37.781 C27.164,37.781 30.500,41.116 30.500,41.116 C30.500,41.116 15.780,55.836 15.780,55.836 Z" id="path-13" class="cls-3" fill-rule="evenodd"/>
    <path d="M39.514,44.486 C39.514,44.486 35.406,40.377 35.406,40.377 C35.406,40.377 24.568,40.377 24.568,40.377 C24.568,40.377 22.514,42.431 22.514,42.431 C22.514,42.431 31.757,43.395 31.757,43.395 C31.757,43.395 31.757,43.399 31.757,43.399 C31.757,43.399 39.514,44.486 39.514,44.486 Z" id="path-14" class="cls-7" fill-rule="evenodd"/>
  </g>
</svg>
