<svg xmlns="http://www.w3.org/2000/svg" xmlns:xlink="http://www.w3.org/1999/xlink" preserveAspectRatio="xMidYMid" width="60" height="19" viewBox="0 0 60 19">
  <defs>
    <style>

      .cls-3 {
        fill: #0cb04a;
      }

      .cls-6 {
        fill: #ededed;
      }

      .cls-7 {
        fill: #000000;
        opacity: 0.35;
      }
    </style>
  </defs>
  <g id="group-237svg">
    <path d="M58.755,10.852 C58.755,10.852 40.999,10.852 40.999,10.852 C40.316,10.852 39.762,10.298 39.762,9.615 C39.762,9.615 39.762,9.419 39.762,9.419 C39.762,8.735 40.316,8.181 40.999,8.181 C40.999,8.181 58.755,8.181 58.755,8.181 C59.438,8.181 59.992,8.735 59.992,9.419 C59.992,9.419 59.992,9.615 59.992,9.615 C59.992,10.298 59.438,10.852 58.755,10.852 Z" id="path-1" class="cls-3" fill-rule="evenodd"/>
    <path d="M36.000,17.701 C36.000,17.701 10.183,17.701 10.183,17.701 C10.183,17.701 -0.008,8.360 -0.008,8.360 C-0.008,8.360 46.191,8.360 46.191,8.360 C46.191,8.360 36.000,17.701 36.000,17.701 Z" id="path-2" class="cls-3" fill-rule="evenodd"/>
    <path d="M13.284,2.983 C13.284,2.983 32.898,2.983 32.898,2.983 C33.717,2.983 34.526,3.160 35.270,3.501 C35.270,3.501 42.864,6.981 42.864,6.981 C42.864,6.981 3.319,6.981 3.319,6.981 C3.319,6.981 10.913,3.501 10.913,3.501 C11.657,3.160 12.466,2.983 13.284,2.983 Z" id="path-3" class="cls-3" fill-rule="evenodd"/>
    <path d="M8.298,13.925 C8.072,13.925 7.845,13.849 7.657,13.693 C7.657,13.693 5.735,12.085 5.735,12.085 C5.311,11.731 5.255,11.100 5.609,10.677 C5.964,10.254 6.594,10.197 7.018,10.551 C7.018,10.551 8.940,12.158 8.940,12.158 C9.364,12.512 9.420,13.144 9.066,13.567 C8.868,13.804 8.584,13.925 8.298,13.925 Z" id="path-4" class="cls-6" fill-rule="evenodd"/>
    <path d="M40.329,8.359 C40.329,8.359 34.986,13.258 34.986,13.258 C33.456,14.660 31.455,15.439 29.378,15.439 C29.378,15.439 7.715,15.439 7.715,15.439 C7.715,15.439 10.183,17.701 10.183,17.701 C10.183,17.701 36.000,17.701 36.000,17.701 C36.000,17.701 46.191,8.359 46.191,8.359 C46.191,8.359 40.329,8.359 40.329,8.359 Z" id="path-5" class="cls-7" fill-rule="evenodd"/>
    <path d="M35.269,3.501 C34.525,3.160 33.717,2.983 32.898,2.983 C32.898,2.983 30.953,2.983 30.953,2.983 C30.953,2.983 32.807,3.833 32.807,3.833 C33.838,4.305 33.501,5.850 32.366,5.850 C32.366,5.850 5.787,5.850 5.787,5.850 C5.787,5.850 3.319,6.981 3.319,6.981 C3.319,6.981 42.864,6.981 42.864,6.981 C42.864,6.981 35.269,3.501 35.269,3.501 Z" id="path-6" class="cls-7" fill-rule="evenodd"/>
    <path d="M26.540,1.481 C26.540,1.481 19.643,1.481 19.643,1.481 C19.283,1.481 18.991,1.190 18.991,0.830 C18.991,0.830 18.991,0.659 18.991,0.659 C18.991,0.299 19.283,0.008 19.643,0.008 C19.643,0.008 26.540,0.008 26.540,0.008 C26.900,0.008 27.192,0.299 27.192,0.659 C27.192,0.659 27.192,0.830 27.192,0.830 C27.192,1.190 26.900,1.481 26.540,1.481 Z" id="path-7" class="cls-3" fill-rule="evenodd"/>
  </g>
</svg>
