<svg xmlns="http://www.w3.org/2000/svg" xmlns:xlink="http://www.w3.org/1999/xlink" preserveAspectRatio="xMidYMid" width="40" height="61" viewBox="0 0 40 61">
  <defs>
    <style>

      .cls-3 {
        fill: #142a3b;
      }

      .cls-4 {
        fill: #060606;
        opacity: 0.35;
      }

      .cls-5 {
        fill: #fbb713;
      }

      .cls-6 {
        fill: #ff3a2f;
      }

      .cls-7 {
        fill: #ededed;
      }
    </style>
  </defs>
  <g id="group-182svg">
    <path d="M17.411,0.006 C17.411,0.006 22.005,0.006 22.005,0.006 C24.013,0.006 25.463,1.928 24.911,3.859 C24.911,3.859 23.805,7.730 23.805,7.730 C23.768,7.851 23.776,7.974 23.776,8.099 C23.776,8.099 23.752,8.099 23.752,8.099 C23.752,8.099 15.660,8.099 15.660,8.099 C15.660,8.099 15.639,8.099 15.639,8.099 C15.639,7.974 15.644,7.851 15.610,7.730 C15.610,7.730 14.505,3.858 14.505,3.858 C13.954,1.928 15.403,0.006 17.411,0.006 Z" id="path-1" class="cls-3" fill-rule="evenodd"/>
    <path d="M22.737,0.096 C22.867,0.595 22.885,1.133 22.729,1.677 C22.729,1.677 22.229,3.844 21.886,5.080 C21.749,5.574 21.302,5.917 20.789,5.917 C20.789,5.917 15.092,5.917 15.092,5.917 C15.092,5.917 15.610,7.730 15.610,7.730 C15.644,7.851 15.639,7.975 15.639,8.099 C15.639,8.099 15.660,8.099 15.660,8.099 C15.660,8.099 23.752,8.099 23.752,8.099 C23.752,8.099 23.776,8.099 23.776,8.099 C23.776,7.975 23.768,7.851 23.805,7.730 C23.805,7.730 24.911,3.859 24.911,3.859 C25.393,2.173 24.348,0.494 22.737,0.096 Z" id="path-2" class="cls-4" fill-rule="evenodd"/>
    <path d="M32.365,25.170 C30.162,23.248 27.541,21.784 24.618,20.974 C24.618,20.974 24.618,10.796 24.618,10.796 C24.618,10.796 27.315,10.796 27.315,10.796 C28.063,10.796 28.664,10.192 28.664,9.447 C28.664,8.702 28.063,8.099 27.315,8.099 C27.315,8.099 11.131,8.099 11.131,8.099 C10.388,8.099 9.782,8.702 9.782,9.447 C9.782,10.192 10.388,10.796 11.131,10.796 C11.131,10.796 13.829,10.796 13.829,10.796 C13.829,10.796 13.829,20.974 13.829,20.974 C8.792,22.371 2.666,29.906 2.993,29.855 C1.099,32.883 -0.013,36.451 -0.013,40.285 C-0.013,51.177 8.816,60.006 19.708,60.006 C30.600,60.006 39.429,51.177 39.429,40.285 C39.429,34.214 36.681,28.788 32.365,25.170 Z" id="path-3" class="cls-5" fill-rule="evenodd"/>
    <path d="M38.520,34.379 C36.223,35.007 33.930,35.278 31.651,35.278 C27.526,35.278 23.451,34.482 19.450,33.697 C13.217,32.476 7.294,31.364 1.383,33.052 C0.491,35.292 -0.013,37.727 -0.013,40.285 C-0.013,51.177 8.816,60.006 19.708,60.006 C30.600,60.006 39.429,51.177 39.429,40.285 C39.429,38.226 39.106,36.244 38.520,34.379 Z" id="path-4" class="cls-6" fill-rule="evenodd"/>
    <path d="M13.502,55.651 C13.393,55.651 13.283,55.634 13.174,55.596 C7.679,53.688 3.545,49.187 2.117,43.556 C1.981,43.020 2.305,42.476 2.840,42.341 C3.379,42.205 3.919,42.529 4.055,43.064 C5.318,48.041 8.972,52.020 13.831,53.706 C14.352,53.887 14.628,54.457 14.447,54.979 C14.304,55.392 13.916,55.651 13.502,55.651 Z" id="path-5" class="cls-7" fill-rule="evenodd"/>
    <path d="M32.365,25.170 C30.162,23.248 27.541,21.784 24.618,20.974 C24.618,20.974 24.618,10.796 24.618,10.796 C24.618,10.796 27.315,10.796 27.315,10.796 C28.063,10.796 28.664,10.193 28.664,9.447 C28.664,8.702 28.063,8.099 27.315,8.099 C27.315,8.099 22.952,8.099 22.952,8.099 C23.700,8.099 24.300,8.702 24.300,9.447 C24.300,10.193 23.700,10.796 22.952,10.796 C22.952,10.796 20.254,10.796 20.254,10.796 C20.254,10.796 20.254,20.974 20.254,20.974 C23.178,21.784 25.798,23.248 28.001,25.170 C32.317,28.788 35.065,34.214 35.065,40.285 C35.065,50.439 27.390,58.792 17.526,59.879 C18.243,59.958 18.970,60.006 19.708,60.006 C30.600,60.006 39.429,51.177 39.429,40.285 C39.429,34.214 36.681,28.788 32.365,25.170 Z" id="path-6" class="cls-4" fill-rule="evenodd"/>
    <path d="M38.520,34.379 C36.223,35.006 33.930,35.278 31.651,35.278 C27.526,35.278 23.451,34.482 19.450,33.697 C13.217,32.476 7.294,31.364 1.383,33.052 C1.341,33.158 1.310,33.271 1.270,33.379 C5.783,32.997 10.345,33.859 15.086,34.788 C19.087,35.573 23.163,36.369 27.288,36.369 C29.566,36.369 31.859,36.098 34.156,35.469 C34.743,37.335 35.065,39.316 35.065,41.376 C35.065,49.825 29.742,57.012 22.274,59.820 C31.951,58.560 39.429,50.305 39.429,40.285 C39.429,38.225 39.106,36.244 38.520,34.379 Z" id="path-7" class="cls-4" fill-rule="evenodd"/>
    <path d="M8.290,30.596 C7.824,30.596 7.403,30.270 7.302,29.803 C7.022,28.506 12.178,23.552 15.543,22.128 C15.543,22.128 15.543,15.079 15.543,15.079 C15.543,14.527 15.991,14.079 16.543,14.079 C17.095,14.079 17.543,14.527 17.543,15.079 C17.543,15.079 17.543,23.593 17.543,23.593 C17.543,23.593 16.810,23.796 16.810,23.796 C13.755,24.642 9.826,29.097 9.228,29.940 C9.107,30.270 8.816,30.526 8.444,30.584 C8.393,30.593 8.341,30.596 8.290,30.596 Z" id="path-8" class="cls-7" fill-rule="evenodd"/>
  </g>
</svg>
