<svg xmlns="http://www.w3.org/2000/svg" xmlns:xlink="http://www.w3.org/1999/xlink" preserveAspectRatio="xMidYMid" width="47" height="61" viewBox="0 0 47 61">
  <defs>
    <style>

      .cls-3 {
        fill: #fbb713;
      }

      .cls-4 {
        fill: #010100;
        opacity: 0.25;
      }

      .cls-5 {
        fill: #3e66a5;
      }

      .cls-8 {
        fill: #ff3a2f;
      }

      .cls-12 {
        fill: #142a3b;
      }
    </style>
  </defs>
  <g id="group-175svg">
    <path d="M37.474,14.459 C37.474,22.453 30.995,28.932 23.004,28.932 C15.012,28.932 8.533,22.453 8.533,14.459 C8.533,6.468 15.012,-0.011 23.004,-0.011 C30.995,-0.011 37.474,6.468 37.474,14.459 Z" id="path-1" class="cls-3" fill-rule="evenodd"/>
    <path d="M23.004,27.354 C15.266,27.354 8.966,21.276 8.572,13.634 C8.559,13.885 8.533,14.134 8.533,14.388 C8.533,22.382 15.012,28.860 23.004,28.860 C30.995,28.860 37.474,22.382 37.474,14.388 C37.474,14.134 37.449,13.885 37.435,13.634 C37.041,21.276 30.741,27.354 23.004,27.354 Z" id="path-2" class="cls-4" fill-rule="evenodd"/>
    <path d="M42.937,31.293 C42.937,31.293 32.175,36.923 32.175,36.923 C29.279,38.422 25.715,37.292 24.214,34.394 C24.118,34.209 24.034,34.020 23.958,33.830 C23.669,33.881 23.374,33.912 23.071,33.912 C22.767,33.912 22.473,33.881 22.183,33.830 C22.108,34.020 22.023,34.209 21.927,34.394 C20.426,37.292 16.861,38.422 13.966,36.923 C13.966,36.923 3.203,31.293 3.203,31.293 C1.420,30.369 0.310,28.663 0.067,26.813 C-0.235,29.199 0.942,31.627 3.203,32.799 C3.203,32.799 13.966,38.428 13.966,38.428 C16.861,39.927 20.426,38.797 21.927,35.900 C22.023,35.715 22.108,35.525 22.183,35.335 C22.473,35.387 22.767,35.418 23.071,35.418 C23.374,35.418 23.669,35.387 23.958,35.336 C24.034,35.525 24.118,35.715 24.214,35.900 C25.715,38.797 29.279,39.927 32.175,38.428 C32.175,38.428 42.937,32.799 42.937,32.799 C45.198,31.627 46.376,29.198 46.074,26.811 C45.831,28.663 44.720,30.369 42.937,31.293 Z" id="path-3" class="cls-5" fill-rule="evenodd"/>
    <path d="M32.988,38.037 C32.988,38.037 42.937,32.833 42.937,32.833 C45.834,31.331 46.964,27.768 45.464,24.871 C43.965,21.975 40.399,20.844 37.502,22.344 C37.502,22.344 27.315,27.673 27.315,27.673 C26.416,26.279 24.853,25.354 23.072,25.354 C21.289,25.354 19.725,26.279 18.827,27.674 C18.827,27.674 8.640,22.344 8.640,22.344 C5.742,20.844 2.177,21.975 0.677,24.871 C-0.824,27.768 0.306,31.331 3.203,32.833 C3.203,32.833 13.153,38.037 13.153,38.037 C13.153,38.037 2.764,49.614 2.764,49.614 C0.466,52.160 0.665,56.089 3.213,58.389 C5.760,60.687 9.687,60.486 11.986,57.940 C11.986,57.940 19.630,48.436 23.072,48.436 C26.512,48.436 34.157,57.940 34.157,57.940 C36.455,60.486 40.382,60.687 42.929,58.389 C45.476,56.089 45.676,52.160 43.378,49.614 C43.378,49.614 32.988,38.037 32.988,38.037 Z" id="path-4" class="cls-3" fill-rule="evenodd"/>
    <path d="M42.929,56.848 C40.382,59.147 36.455,58.947 34.157,56.400 C34.157,56.400 26.512,46.896 23.071,46.896 C19.630,46.896 11.986,56.400 11.986,56.400 C9.687,58.947 5.760,59.147 3.213,56.848 C2.054,55.803 1.387,54.420 1.214,52.983 C0.977,54.923 1.651,56.944 3.213,58.354 C5.760,60.653 9.687,60.452 11.986,57.906 C11.986,57.906 19.630,48.402 23.071,48.402 C26.512,48.402 34.157,57.906 34.157,57.906 C36.455,60.452 40.382,60.653 42.929,58.354 C44.490,56.944 45.165,54.923 44.928,52.983 C44.755,54.420 44.087,55.803 42.929,56.848 Z" id="path-5" class="cls-4" fill-rule="evenodd"/>
    <path d="M13.879,55.684 C14.249,55.269 14.661,54.814 15.099,54.344 C12.200,49.138 7.682,47.641 4.869,47.236 C4.869,47.236 3.464,48.800 3.464,48.800 C5.621,48.873 10.847,49.698 13.879,55.684 Z" id="path-6" class="cls-8" fill-rule="evenodd"/>
    <path d="M32.264,55.685 C35.295,49.700 40.518,48.871 42.677,48.798 C42.677,48.798 41.274,47.236 41.274,47.236 C38.461,47.641 33.942,49.138 31.043,54.344 C31.480,54.814 31.893,55.269 32.264,55.685 Z" id="path-7" class="cls-8" fill-rule="evenodd"/>
    <path d="M10.712,23.395 C10.558,25.695 9.543,30.398 4.130,33.283 C4.130,33.283 5.917,34.217 5.917,34.217 C10.642,31.249 11.971,26.900 12.320,24.235 C12.320,24.235 10.712,23.395 10.712,23.395 Z" id="path-8" class="cls-8" fill-rule="evenodd"/>
    <path d="M35.430,23.393 C35.430,23.393 33.822,24.234 33.822,24.234 C34.170,26.899 35.499,31.248 40.224,34.217 C40.224,34.217 42.012,33.282 42.012,33.282 C36.598,30.397 35.584,25.694 35.430,23.393 Z" id="path-9" class="cls-8" fill-rule="evenodd"/>
    <path d="M18.741,14.056 C18.741,15.000 17.975,15.766 17.031,15.766 C16.087,15.766 15.321,15.000 15.321,14.056 C15.321,13.110 16.087,12.347 17.031,12.347 C17.975,12.347 18.741,13.110 18.741,14.056 Z" id="path-10" class="cls-12" fill-rule="evenodd"/>
    <path d="M30.147,14.056 C30.147,15.000 29.382,15.766 28.437,15.766 C27.494,15.766 26.727,15.000 26.727,14.056 C26.727,13.110 27.494,12.347 28.437,12.347 C29.382,12.347 30.147,13.110 30.147,14.056 Z" id="path-11" class="cls-12" fill-rule="evenodd"/>
    <path d="M24.573,34.163 C24.573,35.022 23.876,35.718 23.018,35.718 C22.160,35.718 21.465,35.022 21.465,34.163 C21.465,33.305 22.160,32.609 23.018,32.609 C23.876,32.609 24.573,33.305 24.573,34.163 Z" id="path-12" class="cls-12" fill-rule="evenodd"/>
    <path d="M24.573,39.867 C24.573,40.725 23.876,41.420 23.018,41.420 C22.160,41.420 21.465,40.725 21.465,39.867 C21.465,39.008 22.160,38.312 23.018,38.312 C23.876,38.312 24.573,39.008 24.573,39.867 Z" id="path-13" class="cls-12" fill-rule="evenodd"/>
    <path d="M23.003,21.372 C20.566,21.372 18.794,19.630 18.719,19.556 C18.386,19.222 18.386,18.680 18.719,18.346 C19.054,18.012 19.594,18.012 19.928,18.343 C19.959,18.375 21.299,19.662 23.003,19.662 C24.719,19.662 26.066,18.356 26.079,18.343 C26.415,18.013 26.956,18.014 27.288,18.349 C27.620,18.683 27.620,19.222 27.286,19.556 C27.213,19.630 25.440,21.372 23.003,21.372 Z" id="path-14" class="cls-12" fill-rule="evenodd"/>
  </g>
</svg>
