<svg xmlns="http://www.w3.org/2000/svg" xmlns:xlink="http://www.w3.org/1999/xlink" preserveAspectRatio="xMidYMid" width="59" height="59" viewBox="0 0 59 59">
  <defs>
    <style>

      .cls-3 {
        fill: #142a3b;
      }

      .cls-4 {
        fill: #020403;
        opacity: 0.35;
      }

      .cls-5 {
        fill: #fbb713;
      }

      .cls-6 {
        fill: #ffffff;
      }

      .cls-7 {
        fill: #020403;
        opacity: 0.25;
      }
    </style>
  </defs>
  <g id="group-116svg">
    <path d="M46.500,32.000 C46.500,32.000 12.500,32.000 12.500,32.000 C12.500,32.000 12.500,-0.000 12.500,-0.000 C12.500,-0.000 46.500,-0.000 46.500,-0.000 C46.500,-0.000 46.500,32.000 46.500,32.000 Z" id="path-1" class="cls-3" fill-rule="evenodd"/>
    <path d="M41.693,-0.000 C41.693,-0.000 41.693,19.490 41.693,19.490 C41.693,23.610 38.357,26.949 34.242,26.949 C34.242,26.949 12.500,28.650 12.500,28.650 C12.500,28.650 12.500,32.500 12.500,32.500 C12.500,32.500 46.500,32.723 46.500,32.723 C46.500,32.723 46.500,-0.000 46.500,-0.000 C46.500,-0.000 41.693,-0.000 41.693,-0.000 Z" id="path-2" class="cls-4" fill-rule="evenodd"/>
    <path d="M37.656,15.852 C37.656,11.308 33.977,7.626 29.440,7.626 C24.903,7.626 21.224,11.308 21.224,15.852 C21.224,20.395 24.903,24.077 29.440,24.077 C33.977,24.077 37.656,20.395 37.656,15.852 Z" id="path-3" class="cls-5" fill-rule="evenodd"/>
    <path d="M30.280,22.311 C29.728,22.311 29.280,21.863 29.280,21.311 C29.280,20.759 29.728,20.311 30.280,20.311 C32.272,20.311 33.894,18.688 33.894,16.692 C33.894,16.140 34.341,15.692 34.894,15.692 C35.446,15.692 35.893,16.140 35.893,16.692 C35.893,19.791 33.375,22.311 30.280,22.311 Z" id="path-4" class="cls-6" fill-rule="evenodd"/>
    <path d="M22.185,17.639 C22.185,13.096 25.864,9.414 30.401,9.414 C33.225,9.414 35.714,10.840 37.193,13.012 C36.075,9.798 33.030,7.489 29.440,7.489 C24.903,7.489 21.224,11.171 21.224,15.714 C21.224,17.431 21.751,19.023 22.649,20.342 C22.354,19.494 22.185,18.587 22.185,17.639 Z" id="path-5" class="cls-7" fill-rule="evenodd"/>
    <path d="M57.500,34.000 C57.500,34.000 1.500,34.000 1.500,34.000 C0.671,34.000 -0.000,33.329 -0.000,32.500 C-0.000,31.672 0.671,31.000 1.500,31.000 C1.500,31.000 57.500,31.000 57.500,31.000 C58.329,31.000 59.000,31.672 59.000,32.500 C59.000,33.329 58.329,34.000 57.500,34.000 Z" id="path-6" class="cls-3" fill-rule="evenodd"/>
    <path d="M29.500,59.000 C28.948,59.000 28.500,58.552 28.500,58.000 C28.500,58.000 28.500,33.000 28.500,33.000 C28.500,32.448 28.948,32.000 29.500,32.000 C30.052,32.000 30.500,32.448 30.500,33.000 C30.500,33.000 30.500,58.000 30.500,58.000 C30.500,58.552 30.052,59.000 29.500,59.000 Z" id="path-7" class="cls-3" fill-rule="evenodd"/>
    <path d="M15.250,49.000 C15.250,49.000 7.500,49.000 7.500,49.000 C6.948,49.000 6.500,48.552 6.500,48.000 C6.500,47.448 6.948,47.000 7.500,47.000 C7.500,47.000 14.052,47.000 14.052,47.000 C14.052,47.000 21.696,32.723 21.696,32.723 C21.958,32.236 22.563,32.051 23.050,32.313 C23.537,32.574 23.720,33.180 23.460,33.666 C23.460,33.666 15.250,49.000 15.250,49.000 Z" id="path-8" class="cls-3" fill-rule="evenodd"/>
    <path d="M51.500,49.000 C51.500,49.000 43.628,49.000 43.628,49.000 C43.628,49.000 35.479,33.663 35.479,33.663 C35.220,33.176 35.405,32.570 35.893,32.311 C36.380,32.051 36.986,32.238 37.246,32.725 C37.246,32.725 44.830,47.000 44.830,47.000 C44.830,47.000 51.500,47.000 51.500,47.000 C52.052,47.000 52.500,47.448 52.500,48.000 C52.500,48.552 52.052,49.000 51.500,49.000 Z" id="path-9" class="cls-3" fill-rule="evenodd"/>
  </g>
</svg>
