<svg xmlns="http://www.w3.org/2000/svg" xmlns:xlink="http://www.w3.org/1999/xlink" preserveAspectRatio="xMidYMid" width="61" height="53" viewBox="0 0 61 53">
  <defs>
    <style>

      .cls-3 {
        fill: #ededed;
      }

      .cls-4 {
        fill: #000000;
        opacity: 0.35;
      }

      .cls-7 {
        fill: #2476ff;
      }
    </style>
  </defs>
  <g id="group-308svg">
    <path d="M34.619,52.908 C34.616,52.908 34.616,52.908 34.616,52.908 C33.018,52.908 31.633,52.130 30.820,50.776 C30.701,50.577 30.639,50.350 30.639,50.117 C30.639,50.117 30.639,43.262 30.639,43.262 C28.157,36.107 25.778,31.443 21.077,28.812 C20.673,28.585 20.423,28.158 20.423,27.697 C20.423,27.697 20.423,6.890 20.423,6.890 C20.423,4.588 23.989,2.568 26.144,2.568 C26.144,2.568 49.712,2.568 49.712,2.568 C50.867,2.568 51.994,3.161 52.972,4.281 C54.246,5.740 55.050,7.835 55.077,9.643 C56.995,11.050 57.885,13.513 57.728,16.983 C59.728,19.085 59.676,22.190 58.977,24.133 C59.835,25.360 59.992,27.477 59.992,28.871 C59.992,32.855 54.498,35.767 52.161,35.767 C52.161,35.767 41.405,35.767 41.405,35.767 C43.265,43.753 41.213,48.095 39.754,50.026 C38.367,51.856 36.497,52.908 34.619,52.908 Z" id="path-1" class="cls-3" fill-rule="evenodd"/>
    <path d="M54.825,7.893 C54.494,6.588 53.848,5.285 52.972,4.281 C52.850,4.141 52.718,4.033 52.591,3.910 C52.638,4.226 52.672,4.539 52.677,4.843 C53.674,5.574 54.387,6.598 54.825,7.893 Z" id="path-2" class="cls-4" fill-rule="evenodd"/>
    <path d="M20.423,25.171 C20.423,25.171 20.423,27.696 20.423,27.696 C20.423,28.158 20.673,28.585 21.077,28.812 C23.412,30.119 25.173,31.930 26.659,34.296 C24.986,30.270 23.136,27.259 20.423,25.171 Z" id="path-3" class="cls-4" fill-rule="evenodd"/>
    <path d="M58.977,24.133 C59.676,22.190 59.728,19.085 57.728,16.983 C57.880,13.626 57.042,11.220 55.251,9.793 C55.341,10.528 55.367,11.324 55.328,12.183 C57.328,14.285 57.276,17.390 56.578,19.333 C57.436,20.560 57.593,22.677 57.593,24.072 C57.593,28.054 52.098,30.967 49.761,30.967 C49.761,30.967 39.005,30.967 39.005,30.967 C40.865,38.953 38.812,43.295 37.353,45.226 C35.967,47.056 34.097,48.109 32.219,48.109 C32.216,48.109 32.216,48.109 32.216,48.109 C31.658,48.109 31.129,48.008 30.639,47.827 C30.639,47.827 30.639,50.117 30.639,50.117 C30.639,50.350 30.701,50.577 30.820,50.776 C31.633,52.130 33.018,52.908 34.616,52.908 C34.616,52.908 34.616,52.908 34.619,52.908 C36.497,52.908 38.367,51.856 39.754,50.026 C41.213,48.095 43.265,43.753 41.405,35.767 C41.405,35.767 52.161,35.767 52.161,35.767 C54.498,35.767 59.993,32.855 59.993,28.872 C59.993,27.477 59.835,25.360 58.977,24.133 Z" id="path-4" class="cls-4" fill-rule="evenodd"/>
    <path d="M18.498,35.767 C18.498,35.767 4.472,35.767 4.472,35.767 C2.002,35.767 -0.007,33.760 -0.007,31.291 C-0.007,31.291 -0.007,4.490 -0.007,4.490 C-0.007,2.021 2.002,0.014 4.472,0.014 C4.472,0.014 18.498,0.014 18.498,0.014 C20.967,0.014 22.977,2.021 22.977,4.490 C22.977,4.490 22.977,31.291 22.977,31.291 C22.977,33.760 20.967,35.767 18.498,35.767 Z" id="path-5" class="cls-7" fill-rule="evenodd"/>
    <path d="M20.228,0.362 C20.452,0.895 20.577,1.478 20.577,2.091 C20.577,2.091 20.577,28.891 20.577,28.891 C20.577,31.360 18.567,33.368 16.098,33.368 C16.098,33.368 2.072,33.368 2.072,33.368 C1.458,33.368 0.874,33.242 0.341,33.018 C1.019,34.632 2.615,35.767 4.472,35.767 C4.472,35.767 18.498,35.767 18.498,35.767 C20.967,35.767 22.977,33.760 22.977,31.291 C22.977,31.291 22.977,4.490 22.977,4.490 C22.977,2.635 21.841,1.041 20.228,0.362 Z" id="path-6" class="cls-4" fill-rule="evenodd"/>
  </g>
</svg>
