<svg xmlns="http://www.w3.org/2000/svg" xmlns:xlink="http://www.w3.org/1999/xlink" preserveAspectRatio="xMidYMid" width="60" height="35" viewBox="0 0 60 35">
  <defs>
    <style>

      .cls-3 {
        fill: #fbb713;
      }

      .cls-4 {
        fill: #142a3b;
      }

      .cls-5 {
        fill: #000000;
        opacity: 0.45;
      }

      .cls-7 {
        fill: #000000;
        opacity: 0.1;
      }

      .cls-9 {
        fill: #000000;
        opacity: 0.35;
      }
    </style>
  </defs>
  <g id="group-261svg">
    <path d="M30.008,17.602 C13.440,17.602 0.010,20.298 0.010,23.623 C0.010,23.623 0.010,29.068 0.010,29.068 C0.577,36.037 60.611,36.218 60.006,29.068 C60.006,29.068 60.006,23.623 60.006,23.623 C60.006,20.298 46.575,17.602 30.008,17.602 ZM30.008,29.355 C14.233,29.355 1.445,26.789 1.445,23.623 C1.445,20.457 14.233,17.890 30.008,17.890 C45.783,17.890 58.571,20.457 58.571,23.623 C58.571,26.789 45.783,29.355 30.008,29.355 Z" id="path-1" class="cls-3" fill-rule="evenodd"/>
    <path d="M60.008,23.479 C60.008,26.724 46.578,29.355 30.010,29.355 C13.443,29.355 0.013,26.724 0.013,23.479 C0.013,20.233 13.443,17.602 30.010,17.602 C46.578,17.602 60.008,20.233 60.008,23.479 Z" id="path-2" class="cls-4" fill-rule="evenodd"/>
    <path d="M49.039,25.373 C49.039,27.432 40.519,29.101 30.010,29.101 C19.501,29.101 10.981,27.432 10.981,25.373 C10.981,23.314 19.501,21.645 30.010,21.645 C40.519,21.645 49.039,23.314 49.039,25.373 Z" id="path-3" class="cls-5" fill-rule="evenodd"/>
    <path d="M26.498,-0.001 C35.737,-0.001 46.295,6.534 46.295,15.773 C46.295,15.773 13.725,14.585 13.725,14.585 C13.725,14.585 26.498,-0.001 26.498,-0.001 Z" id="path-4" class="cls-3" fill-rule="evenodd"/>
    <path d="M42.501,15.635 C42.501,15.635 46.295,15.773 46.295,15.773 C46.295,6.534 35.737,-0.001 26.498,-0.001 C26.498,-0.001 26.233,0.302 26.233,0.302 C34.389,1.677 42.409,7.627 42.501,15.635 Z" id="path-5" class="cls-7" fill-rule="evenodd"/>
    <path d="M46.295,25.983 C46.295,25.983 13.725,25.983 13.725,25.983 C13.725,25.983 13.725,14.585 13.725,14.585 C13.725,14.585 46.295,14.585 46.295,14.585 C46.295,14.585 46.295,25.983 46.295,25.983 Z" id="path-6" class="cls-3" fill-rule="evenodd"/>
    <path d="M46.295,25.983 C46.295,25.983 13.725,25.983 13.725,25.983 C13.725,25.983 13.725,14.585 13.725,14.585 C13.725,14.585 46.295,14.585 46.295,14.585 C46.295,14.585 46.295,25.983 46.295,25.983 Z" id="path-7" class="cls-9" fill-rule="evenodd"/>
  </g>
</svg>
