<svg xmlns="http://www.w3.org/2000/svg" xmlns:xlink="http://www.w3.org/1999/xlink" preserveAspectRatio="xMidYMid" width="45" height="60" viewBox="0 0 45 60">
  <defs>
    <style>

      .cls-3 {
        fill: #fbb713;
      }

      .cls-4 {
        fill: #020403;
        opacity: 0.25;
      }

      .cls-5 {
        fill: #ff3a2f;
      }

      .cls-6 {
        fill: #020403;
        opacity: 0.35;
      }

      .cls-8 {
        fill: #ffffff;
      }
    </style>
  </defs>
  <g id="group-132svg">
    <path d="M44.913,39.987 C44.913,39.987 -0.015,39.987 -0.015,39.987 C-0.015,39.987 11.407,-0.013 11.407,-0.013 C11.407,-0.013 33.490,-0.013 33.490,-0.013 C33.490,-0.013 44.913,39.987 44.913,39.987 Z" id="path-1" class="cls-3" fill-rule="evenodd"/>
    <path d="M33.490,-0.013 C33.490,-0.013 31.062,-0.013 31.062,-0.013 C31.062,-0.013 41.913,37.987 41.913,37.987 C41.913,37.987 0.556,37.987 0.556,37.987 C0.556,37.987 -0.015,39.987 -0.015,39.987 C-0.015,39.987 44.913,39.987 44.913,39.987 C44.913,39.987 33.490,-0.013 33.490,-0.013 Z" id="path-2" class="cls-4" fill-rule="evenodd"/>
    <path d="M24.449,59.987 C24.449,59.987 20.449,59.987 20.449,59.987 C20.449,59.987 20.449,39.987 20.449,39.987 C20.449,39.987 24.449,39.987 24.449,39.987 C24.449,39.987 24.449,59.987 24.449,59.987 Z" id="path-3" class="cls-5" fill-rule="evenodd"/>
    <path d="M24.449,44.987 C24.449,44.987 20.449,44.987 20.449,44.987 C20.449,44.987 20.449,39.987 20.449,39.987 C20.449,39.987 24.449,39.987 24.449,39.987 C24.449,39.987 24.449,44.987 24.449,44.987 Z" id="path-4" class="cls-6" fill-rule="evenodd"/>
    <path d="M12.449,59.987 C12.449,59.987 12.449,57.987 12.449,57.987 C12.449,57.987 32.449,57.987 32.449,57.987 C32.449,57.987 32.449,59.987 32.449,59.987 C32.449,59.987 12.449,59.987 12.449,59.987 Z" id="path-5" class="cls-5" fill-rule="evenodd"/>
    <path d="M8.367,28.488 C8.274,28.488 8.179,28.474 8.085,28.447 C7.556,28.292 7.251,27.736 7.406,27.206 C7.406,27.206 13.406,6.687 13.406,6.687 C13.562,6.158 14.115,5.852 14.647,6.009 C15.177,6.164 15.481,6.719 15.326,7.249 C15.326,7.249 9.326,27.768 9.326,27.768 C9.198,28.204 8.799,28.488 8.367,28.488 Z" id="path-6" class="cls-8" fill-rule="evenodd"/>
  </g>
</svg>
