<svg xmlns="http://www.w3.org/2000/svg" xmlns:xlink="http://www.w3.org/1999/xlink" preserveAspectRatio="xMidYMid" width="61" height="60" viewBox="0 0 61 60">
  <defs>
    <style>

      .cls-3 {
        fill: #142a3b;
      }

      .cls-4 {
        fill: #060606;
        opacity: 0.35;
      }

      .cls-5 {
        fill: #fbb713;
      }

      .cls-6 {
        fill: #060606;
        opacity: 0.25;
      }

      .cls-9 {
        fill: #2476ff;
      }

      .cls-11 {
        fill: #ededed;
      }
    </style>
  </defs>
  <g id="group-186svg">
    <path d="M47.299,17.393 C47.299,17.393 38.978,17.393 38.978,17.393 C38.978,17.393 38.978,6.094 38.978,6.094 C38.978,6.094 47.299,6.094 47.299,6.094 C47.299,6.094 47.299,17.393 47.299,17.393 Z" id="path-1" class="cls-3" fill-rule="evenodd"/>
    <path d="M38.978,17.393 C38.978,17.393 47.299,17.393 47.299,17.393 C47.299,17.393 47.299,11.938 47.299,11.938 C47.299,11.938 38.978,6.483 38.978,6.483 C38.978,6.483 38.978,17.393 38.978,17.393 Z" id="path-2" class="cls-4" fill-rule="evenodd"/>
    <path d="M49.273,59.700 C49.273,59.700 10.709,59.700 10.709,59.700 C10.709,59.700 10.709,21.616 10.709,21.616 C10.709,21.616 49.273,21.616 49.273,21.616 C49.273,21.616 49.273,59.700 49.273,59.700 Z" id="path-3" class="cls-5" fill-rule="evenodd"/>
    <path d="M10.709,21.616 C10.709,21.616 10.709,28.161 10.709,28.161 C10.709,28.161 43.818,31.434 43.818,31.434 C43.818,31.434 46.000,59.700 46.000,59.700 C46.000,59.700 49.273,59.700 49.273,59.700 C49.273,59.700 49.273,21.616 49.273,21.616 C49.273,21.616 10.709,21.616 10.709,21.616 Z" id="path-4" class="cls-6" fill-rule="evenodd"/>
    <path d="M36.231,59.700 C36.231,59.700 23.750,59.700 23.750,59.700 C23.750,59.700 23.750,41.458 23.750,41.458 C23.750,41.458 36.231,41.458 36.231,41.458 C36.231,41.458 36.231,59.700 36.231,59.700 Z" id="path-5" class="cls-3" fill-rule="evenodd"/>
    <path d="M23.750,41.458 C23.750,41.458 23.750,44.731 23.750,44.731 C23.750,44.731 31.868,44.731 31.868,44.731 C31.868,44.731 31.868,59.700 31.868,59.700 C31.868,59.700 36.231,59.700 36.231,59.700 C36.231,59.700 36.231,41.458 36.231,41.458 C36.231,41.458 23.750,41.458 23.750,41.458 Z" id="path-6" class="cls-4" fill-rule="evenodd"/>
    <path d="M-0.009,25.995 C-0.009,25.995 29.991,0.015 29.991,0.015 C29.991,0.015 59.991,25.995 59.991,25.995 C59.991,25.995 -0.009,25.995 -0.009,25.995 Z" id="path-7" class="cls-9" fill-rule="evenodd"/>
    <path d="M29.991,0.015 C29.991,0.015 27.894,1.831 27.894,1.831 C27.894,1.831 48.707,19.856 48.707,19.856 C50.720,21.599 49.487,24.904 46.825,24.904 C46.825,24.904 1.250,24.904 1.250,24.904 C1.250,24.904 -0.009,25.995 -0.009,25.995 C-0.009,25.995 59.991,25.995 59.991,25.995 C59.991,25.995 29.991,0.015 29.991,0.015 Z" id="path-8" class="cls-4" fill-rule="evenodd"/>
    <path d="M13.536,53.554 C12.983,53.554 12.536,53.106 12.536,52.554 C12.536,52.554 12.536,33.463 12.536,33.463 C12.536,32.911 12.983,32.463 13.536,32.463 C14.088,32.463 14.536,32.911 14.536,33.463 C14.536,33.463 14.536,52.554 14.536,52.554 C14.536,53.106 14.088,53.554 13.536,53.554 Z" id="path-9" class="cls-11" fill-rule="evenodd"/>
    <path d="M10.226,22.097 C9.946,22.097 9.667,21.980 9.470,21.751 C9.108,21.333 9.154,20.702 9.572,20.341 C9.572,20.341 24.391,7.525 24.391,7.525 C24.809,7.164 25.440,7.210 25.801,7.627 C26.163,8.045 26.117,8.676 25.699,9.038 C25.699,9.038 10.880,21.853 10.880,21.853 C10.691,22.017 10.458,22.097 10.226,22.097 Z" id="path-10" class="cls-11" fill-rule="evenodd"/>
  </g>
</svg>
