<svg xmlns="http://www.w3.org/2000/svg" xmlns:xlink="http://www.w3.org/1999/xlink" preserveAspectRatio="xMidYMid" width="61" height="61" viewBox="0 0 61 61">
  <defs>
    <style>

      .cls-3 {
        fill: #142a3b;
      }
    </style>
  </defs>
  <g id="group-15svg">
    <path d="M58.959,29.990 C58.959,29.990 48.978,37.643 48.978,37.643 C48.978,37.643 53.333,39.222 53.333,39.222 C49.227,46.343 41.829,51.326 33.216,52.093 C33.216,52.093 33.216,25.972 33.216,25.972 C33.216,25.972 39.154,25.972 39.154,25.972 C39.154,25.972 39.154,21.473 39.154,21.473 C39.154,21.473 33.216,21.473 33.216,21.473 C33.216,21.473 33.216,15.928 33.216,15.928 C36.578,14.927 39.031,11.816 39.031,8.130 C39.031,3.634 35.387,-0.010 30.891,-0.010 C26.395,-0.010 22.751,3.634 22.751,8.130 C22.751,11.816 25.204,14.927 28.566,15.928 C28.566,15.928 28.566,21.473 28.566,21.473 C28.566,21.473 22.628,21.473 22.628,21.473 C22.628,21.473 22.628,25.972 22.628,25.972 C22.628,25.972 28.566,25.972 28.566,25.972 C28.566,25.972 28.566,52.093 28.566,52.093 C19.312,51.269 11.676,44.906 7.804,36.925 C7.804,36.925 12.355,35.239 12.355,35.239 C12.355,35.239 3.181,27.083 3.181,27.083 C3.181,27.083 0.015,39.585 0.015,39.585 C0.015,39.585 5.233,37.892 5.233,37.892 C6.924,50.554 17.767,59.990 30.891,59.990 C43.050,59.990 53.251,51.607 56.030,40.306 C56.030,40.306 60.597,42.460 60.597,42.460 C60.597,42.460 58.959,29.990 58.959,29.990 ZM30.891,11.211 C29.189,11.211 27.810,9.831 27.810,8.130 C27.810,6.428 29.189,5.048 30.891,5.048 C32.593,5.048 33.973,6.428 33.973,8.130 C33.973,9.831 32.593,11.211 30.891,11.211 Z" id="path-1" class="cls-3" fill-rule="evenodd"/>
  </g>
</svg>
