<svg xmlns="http://www.w3.org/2000/svg" xmlns:xlink="http://www.w3.org/1999/xlink" preserveAspectRatio="xMidYMid" width="48" height="60" viewBox="0 0 48 60">
  <defs>
    <style>

      .cls-3 {
        fill: #0cb04a;
      }

      .cls-4 {
        fill: #142a3b;
      }

      .cls-7 {
        fill: #ededed;
      }

      .cls-8 {
        fill: #020403;
        opacity: 0.35;
      }

      .cls-11 {
        fill: #020403;
        opacity: 0.25;
      }
    </style>
  </defs>
  <g id="group-99svg">
    <path d="M37.932,6.545 C36.366,6.545 34.894,6.939 33.606,7.631 C32.367,3.235 28.336,0.006 23.546,0.006 C18.753,0.006 14.722,3.235 13.480,7.631 C12.193,6.939 10.721,6.545 9.160,6.545 C4.101,6.545 0.001,10.645 0.001,15.700 C0.001,20.758 3.922,24.855 9.153,24.855 C9.153,24.855 9.153,60.006 9.153,60.006 C9.153,60.006 37.926,60.006 37.926,60.006 C37.926,60.006 37.926,24.855 37.926,24.855 C43.157,24.855 47.083,20.758 47.083,15.700 C47.083,10.645 42.985,6.545 37.932,6.545 Z" id="path-1" class="cls-3" fill-rule="evenodd"/>
    <path d="M17.000,50.544 C16.448,50.544 16.000,50.096 16.000,49.544 C16.000,49.544 16.000,39.081 16.000,39.081 C16.000,38.528 16.448,38.081 17.000,38.081 C17.553,38.081 18.000,38.528 18.000,39.081 C18.000,39.081 18.000,49.544 18.000,49.544 C18.000,50.096 17.553,50.544 17.000,50.544 Z" id="path-2" class="cls-4" fill-rule="evenodd"/>
    <path d="M23.539,50.544 C22.987,50.544 22.540,50.096 22.540,49.544 C22.540,49.544 22.540,36.466 22.540,36.466 C22.540,35.913 22.987,35.465 23.539,35.465 C24.092,35.465 24.539,35.913 24.539,36.466 C24.539,36.466 24.539,49.544 24.539,49.544 C24.539,50.096 24.092,50.544 23.539,50.544 Z" id="path-3" class="cls-4" fill-rule="evenodd"/>
    <path d="M30.079,50.544 C29.526,50.544 29.079,50.096 29.079,49.544 C29.079,49.544 29.079,39.081 29.079,39.081 C29.079,38.528 29.526,38.081 30.079,38.081 C30.631,38.081 31.079,38.528 31.079,39.081 C31.079,39.081 31.079,49.544 31.079,49.544 C31.079,50.096 30.631,50.544 30.079,50.544 Z" id="path-4" class="cls-4" fill-rule="evenodd"/>
    <path d="M37.926,60.006 C37.926,60.006 9.153,60.006 9.153,60.006 C9.153,60.006 9.153,48.417 9.153,48.417 C9.153,48.417 37.926,48.417 37.926,48.417 C37.926,48.417 37.926,60.006 37.926,60.006 Z" id="path-5" class="cls-7" fill-rule="evenodd"/>
    <path d="M5.236,9.161 C6.797,9.161 10.523,10.494 11.811,11.186 C12.167,9.923 12.760,8.761 13.529,7.740 C12.916,7.075 9.889,6.545 9.160,6.545 C6.424,6.545 3.976,7.750 2.298,9.651 C3.222,9.338 4.207,9.161 5.236,9.161 Z" id="path-6" class="cls-8" fill-rule="evenodd"/>
    <path d="M37.932,6.545 C36.366,6.545 34.894,6.939 33.606,7.631 C32.367,3.235 28.336,0.006 23.546,0.006 C20.544,0.006 17.841,1.273 15.936,3.300 C17.083,2.866 18.323,2.622 19.623,2.622 C24.413,2.622 28.444,5.850 29.683,10.246 C30.970,9.555 32.442,9.161 34.008,9.161 C39.062,9.161 43.159,13.261 43.159,18.316 C43.159,20.639 42.323,22.755 40.919,24.368 C44.583,23.147 47.083,19.733 47.083,15.700 C47.083,10.645 42.985,6.545 37.932,6.545 Z" id="path-7" class="cls-8" fill-rule="evenodd"/>
    <path d="M34.002,25.626 C34.002,25.626 34.002,48.236 34.002,48.236 C34.002,48.236 37.925,48.236 37.925,48.236 C37.925,48.236 37.925,24.770 37.925,24.770 C36.748,25.314 35.426,25.626 34.002,25.626 Z" id="path-8" class="cls-8" fill-rule="evenodd"/>
    <path d="M34.002,48.417 C34.002,48.417 34.002,52.381 34.002,52.381 C34.002,54.425 32.345,56.082 30.301,56.082 C30.301,56.082 9.153,56.082 9.153,56.082 C9.153,56.082 9.153,60.006 9.153,60.006 C9.153,60.006 37.925,60.006 37.925,60.006 C37.925,60.006 37.925,48.417 37.925,48.417 C37.925,48.417 34.002,48.417 34.002,48.417 Z" id="path-9" class="cls-11" fill-rule="evenodd"/>
  </g>
</svg>
