<svg xmlns="http://www.w3.org/2000/svg" xmlns:xlink="http://www.w3.org/1999/xlink" preserveAspectRatio="xMidYMid" width="28" height="61" viewBox="0 0 28 61">
  <defs>
    <style>

      .cls-3 {
        fill: #ff3a2f;
      }

      .cls-4 {
        fill: #020403;
        opacity: 0.35;
      }

      .cls-5 {
        fill: #142a3b;
      }

      .cls-7 {
        fill: #fbb713;
      }

      .cls-10 {
        fill: #ededed;
      }

      .cls-13 {
        fill: #ffffff;
      }
    </style>
  </defs>
  <g id="group-33svg">
    <path d="M21.912,51.874 C21.912,51.874 5.151,51.874 5.151,51.874 C5.151,51.874 8.196,7.217 8.196,7.217 C8.196,7.217 18.867,7.217 18.867,7.217 C18.867,7.217 21.912,51.874 21.912,51.874 Z" id="path-1" class="cls-3" fill-rule="evenodd"/>
    <path d="M14.503,9.399 C14.503,9.399 17.399,51.874 17.399,51.874 C17.399,51.874 21.912,51.874 21.912,51.874 C21.912,51.874 18.867,7.216 18.867,7.216 C18.867,7.216 8.196,7.216 8.196,7.216 C8.196,7.216 8.047,9.399 8.047,9.399 C8.047,9.399 14.503,9.399 14.503,9.399 Z" id="path-2" class="cls-4" fill-rule="evenodd"/>
    <path d="M27.061,59.994 C27.061,59.994 0.001,59.994 0.001,59.994 C0.001,59.994 0.001,51.874 0.001,51.874 C0.001,51.874 27.061,51.874 27.061,51.874 C27.061,51.874 27.061,59.994 27.061,59.994 Z" id="path-3" class="cls-5" fill-rule="evenodd"/>
    <path d="M17.789,51.874 C17.789,51.874 17.789,59.993 17.789,59.993 C17.789,59.993 27.061,59.993 27.061,59.993 C27.061,59.993 27.061,51.874 27.061,51.874 C27.061,51.874 17.789,51.874 17.789,51.874 Z" id="path-4" class="cls-4" fill-rule="evenodd"/>
    <path d="M20.219,7.217 C20.231,7.048 20.245,6.879 20.245,6.707 C20.245,2.999 17.239,-0.006 13.531,-0.006 C9.823,-0.006 6.818,2.999 6.818,6.707 C6.818,6.879 6.831,7.048 6.844,7.217 C6.844,7.217 20.219,7.217 20.219,7.217 Z" id="path-5" class="cls-7" fill-rule="evenodd"/>
    <path d="M13.531,-0.006 C12.766,-0.006 12.034,0.128 11.350,0.363 C13.984,1.270 15.881,3.764 15.881,6.707 C15.881,6.879 15.868,7.048 15.855,7.216 C15.855,7.216 20.219,7.216 20.219,7.216 C20.231,7.048 20.245,6.879 20.245,6.707 C20.245,2.999 17.239,-0.006 13.531,-0.006 Z" id="path-6" class="cls-4" fill-rule="evenodd"/>
    <path d="M24.188,21.411 C24.188,21.411 2.874,21.411 2.874,21.411 C2.874,21.411 2.874,19.411 2.874,19.411 C2.874,19.411 24.188,19.411 24.188,19.411 C24.188,19.411 24.188,21.411 24.188,21.411 Z" id="path-7" class="cls-5" fill-rule="evenodd"/>
    <path d="M16.648,20.411 C16.648,20.411 10.413,20.411 10.413,20.411 C10.413,20.411 11.083,16.395 11.083,16.395 C11.282,15.198 12.318,14.321 13.531,14.321 C13.531,14.321 13.531,14.321 13.531,14.321 C14.745,14.321 15.780,15.198 15.979,16.395 C15.979,16.395 16.648,20.411 16.648,20.411 Z" id="path-8" class="cls-10" fill-rule="evenodd"/>
    <path d="M20.244,35.900 C20.079,35.900 19.912,35.860 19.758,35.774 C19.758,35.774 6.331,28.298 6.331,28.298 C5.849,28.029 5.675,27.420 5.944,26.938 C6.213,26.455 6.823,26.282 7.304,26.550 C7.304,26.550 20.731,34.027 20.731,34.027 C21.214,34.295 21.387,34.904 21.118,35.387 C20.935,35.715 20.595,35.900 20.244,35.900 Z" id="path-9" class="cls-10" fill-rule="evenodd"/>
    <path d="M20.244,46.810 C20.079,46.810 19.912,46.769 19.758,46.683 C19.758,46.683 6.331,39.207 6.331,39.207 C5.849,38.938 5.675,38.329 5.944,37.847 C6.213,37.364 6.823,37.191 7.304,37.460 C7.304,37.460 20.731,44.936 20.731,44.936 C21.214,45.204 21.387,45.813 21.118,46.296 C20.935,46.624 20.595,46.810 20.244,46.810 Z" id="path-10" class="cls-10" fill-rule="evenodd"/>
    <path d="M12.301,2.784 C12.301,3.185 11.975,3.510 11.574,3.510 C11.172,3.510 10.847,3.185 10.847,2.784 C10.847,2.381 11.172,2.056 11.574,2.056 C11.975,2.056 12.301,2.381 12.301,2.784 Z" id="path-11" class="cls-13" fill-rule="evenodd"/>
    <path d="M10.706,4.965 C10.706,5.691 10.118,6.280 9.392,6.280 C8.666,6.280 8.078,5.691 8.078,4.965 C8.078,4.239 8.666,3.651 9.392,3.651 C10.118,3.651 10.706,4.239 10.706,4.965 Z" id="path-12" class="cls-13" fill-rule="evenodd"/>
  </g>
</svg>
