<svg xmlns="http://www.w3.org/2000/svg" xmlns:xlink="http://www.w3.org/1999/xlink" preserveAspectRatio="xMidYMid" width="61" height="60" viewBox="0 0 61 60">
  <defs>
    <style>

      .cls-3 {
        fill: #142a3b;
      }

      .cls-4 {
        fill: #ff3a2f;
      }

      .cls-6 {
        fill: #000000;
        opacity: 0.35;
      }

      .cls-14 {
        fill: #ededed;
      }
    </style>
  </defs>
  <g id="group-216svg">
    <path d="M41.092,18.902 C41.092,18.902 13.432,46.562 13.432,46.562 C13.432,46.562 13.432,46.562 13.432,46.562 " id="path-1" class="cls-3" fill-rule="evenodd"/>
    <path d="M14.139,47.269 C14.139,47.269 12.725,45.855 12.725,45.855 C12.725,45.855 40.385,18.195 40.385,18.195 C40.385,18.195 41.799,19.609 41.799,19.609 C41.799,19.609 14.139,47.269 14.139,47.269 Z" id="path-2" class="cls-4" fill-rule="evenodd"/>
    <path d="M31.792,6.539 C31.792,6.539 55.791,0.108 55.791,0.108 C58.277,-0.558 60.552,1.717 59.886,4.202 C59.886,4.202 53.455,28.201 53.455,28.201 C52.789,30.686 49.682,31.519 47.863,29.699 C44.841,21.387 39.080,15.449 30.294,12.131 C28.475,10.311 29.307,7.204 31.792,6.539 Z" id="path-3" class="cls-4" fill-rule="evenodd"/>
    <path d="M45.366,24.407 C42.375,17.180 37.158,11.883 29.517,8.687 C29.126,9.826 29.322,11.158 30.294,12.131 C37.082,14.695 42.057,18.829 45.366,24.407 Z" id="path-4" class="cls-6" fill-rule="evenodd"/>
    <path d="M57.924,0.279 C57.924,0.279 51.493,24.277 51.493,24.277 C50.870,26.605 48.118,27.452 46.275,26.061 C46.866,27.219 47.401,28.429 47.863,29.699 C49.682,31.518 52.789,30.686 53.455,28.201 C53.455,28.201 59.886,4.202 59.886,4.202 C60.348,2.477 59.382,0.879 57.925,0.269 C57.924,0.272 57.925,0.275 57.924,0.279 Z" id="path-5" class="cls-6" fill-rule="evenodd"/>
    <path d="M1.290,47.455 C1.290,47.455 13.752,44.116 13.752,44.116 C15.042,43.770 16.224,44.951 15.878,46.242 C15.878,46.242 12.538,58.703 12.538,58.703 C12.193,59.994 10.580,60.426 9.635,59.481 C8.066,55.165 5.074,52.082 0.513,50.358 C-0.433,49.414 -0.000,47.801 1.290,47.455 Z" id="path-6" class="cls-4" fill-rule="evenodd"/>
    <path d="M0.015,49.031 C-0.014,49.499 0.135,49.981 0.513,50.358 C2.273,51.023 3.794,51.896 5.095,52.959 C3.761,51.338 2.075,50.022 0.015,49.031 Z" id="path-7" class="cls-6" fill-rule="evenodd"/>
    <path d="M13.940,44.092 C13.930,44.155 13.933,44.216 13.916,44.280 C13.916,44.280 10.577,56.741 10.577,56.741 C10.371,57.510 9.715,57.963 9.019,58.014 C9.243,58.487 9.450,58.974 9.635,59.481 C10.580,60.426 12.193,59.993 12.539,58.703 C12.539,58.703 15.878,46.242 15.878,46.242 C16.207,45.014 15.153,43.903 13.940,44.092 Z" id="path-8" class="cls-6" fill-rule="evenodd"/>
    <path d="M39.624,35.582 C39.072,35.582 38.624,35.134 38.624,34.582 C38.624,27.297 32.697,21.369 25.411,21.369 C24.859,21.369 24.411,20.922 24.411,20.369 C24.411,19.817 24.859,19.369 25.411,19.369 C33.799,19.369 40.624,26.194 40.624,34.582 C40.624,35.134 40.176,35.582 39.624,35.582 Z" id="path-9" class="cls-4" fill-rule="evenodd"/>
    <path d="M33.140,42.066 C32.588,42.066 32.140,41.618 32.140,41.066 C32.140,33.781 26.213,27.853 18.927,27.853 C18.375,27.853 17.927,27.406 17.927,26.853 C17.927,26.301 18.375,25.853 18.927,25.853 C27.315,25.853 34.140,32.678 34.140,41.066 C34.140,41.618 33.692,42.066 33.140,42.066 Z" id="path-10" class="cls-4" fill-rule="evenodd"/>
    <path d="M26.656,48.550 C26.104,48.550 25.656,48.102 25.656,47.550 C25.656,40.264 19.729,34.337 12.443,34.337 C11.891,34.337 11.443,33.890 11.443,33.337 C11.443,32.785 11.891,32.337 12.443,32.337 C20.831,32.337 27.656,39.162 27.656,47.550 C27.656,48.102 27.208,48.550 26.656,48.550 Z" id="path-11" class="cls-4" fill-rule="evenodd"/>
    <path d="M54.063,9.604 C53.049,10.619 51.404,10.619 50.389,9.604 C49.375,8.589 49.375,6.945 50.389,5.930 C51.404,4.916 53.049,4.916 54.063,5.930 C55.078,6.945 55.078,8.589 54.063,9.604 Z" id="path-12" class="cls-14" fill-rule="evenodd"/>
  </g>
</svg>
