<svg xmlns="http://www.w3.org/2000/svg" xmlns:xlink="http://www.w3.org/1999/xlink" preserveAspectRatio="xMidYMid" width="60" height="58" viewBox="0 0 60 58">
  <defs>
    <style>

      .cls-3 {
        fill: #2476ff;
      }

      .cls-4 {
        fill: #060606;
        opacity: 0.35;
      }

      .cls-5 {
        fill: #142a3b;
      }

      .cls-10 {
        fill: #3e66a5;
      }
    </style>
  </defs>
  <g id="group-183svg">
    <path d="M21.594,27.654 C21.594,32.289 25.366,36.061 30.001,36.061 C34.637,36.061 38.409,32.289 38.409,27.654 C38.409,23.019 34.637,19.246 30.001,19.246 C25.366,19.246 21.594,23.019 21.594,27.654 Z" id="path-1" class="cls-3" fill-rule="evenodd"/>
    <path d="M30.949,19.304 C33.448,20.763 35.136,23.466 35.136,26.562 C35.136,31.198 31.364,34.970 26.729,34.970 C26.408,34.970 26.093,34.948 25.781,34.913 C27.023,35.638 28.462,36.060 30.001,36.060 C34.637,36.060 38.409,32.289 38.409,27.654 C38.409,23.339 35.140,19.777 30.949,19.304 Z" id="path-2" class="cls-4" fill-rule="evenodd"/>
    <path d="M41.864,0.100 C41.270,-0.156 40.579,0.100 40.304,0.686 C40.304,0.686 34.172,13.722 34.172,13.722 C34.031,14.024 34.022,14.353 34.144,14.663 C34.268,14.972 34.515,15.183 34.824,15.306 C40.370,17.473 43.781,23.055 43.119,28.972 C43.084,29.302 43.185,29.507 43.400,29.760 C43.617,30.013 43.929,29.908 44.259,29.925 C44.259,29.925 58.658,30.056 58.658,30.056 C58.676,30.056 58.695,30.056 58.714,30.056 C59.335,30.056 59.859,30.084 59.910,29.458 C60.912,16.659 53.661,5.167 41.864,0.100 Z" id="path-3" class="cls-5" fill-rule="evenodd"/>
    <path d="M16.741,30.703 C16.945,30.440 17.029,30.105 16.976,29.777 C16.011,23.900 19.126,18.085 24.550,15.633 C24.855,15.496 25.085,15.240 25.193,14.925 C25.301,14.611 25.272,14.264 25.115,13.973 C25.115,13.973 18.322,1.265 18.322,1.265 C18.017,0.694 17.311,0.469 16.734,0.752 C5.211,6.422 -1.409,18.781 0.257,31.510 C0.337,32.115 0.851,32.557 1.446,32.557 C1.486,32.557 1.523,32.554 1.562,32.551 C1.562,32.551 15.903,31.168 15.903,31.168 C16.236,31.135 16.539,30.966 16.741,30.703 Z" id="path-4" class="cls-5" fill-rule="evenodd"/>
    <path d="M39.755,38.421 C39.572,38.144 39.281,37.957 38.953,37.902 C38.627,37.849 38.289,37.931 38.024,38.135 C33.457,41.639 26.548,41.641 21.979,38.135 C21.716,37.931 21.373,37.849 21.052,37.902 C20.724,37.957 20.433,38.144 20.248,38.421 C20.248,38.421 12.253,50.410 12.253,50.410 C11.897,50.950 12.028,51.675 12.554,52.052 C17.663,55.714 23.696,57.649 30.001,57.649 C36.307,57.649 42.340,55.714 47.450,52.052 C47.975,51.675 48.106,50.950 47.750,50.410 C47.750,50.410 39.755,38.421 39.755,38.421 Z" id="path-5" class="cls-5" fill-rule="evenodd"/>
    <path d="M42.417,0.362 C52.577,5.940 58.650,16.593 57.728,28.367 C57.677,28.993 57.154,28.965 56.532,28.965 C56.513,28.965 56.495,28.965 56.476,28.965 C56.476,28.965 43.128,28.843 43.128,28.843 C43.123,28.886 43.124,28.928 43.119,28.971 C43.084,29.302 43.185,29.507 43.400,29.760 C43.616,30.013 43.929,29.908 44.259,29.925 C44.259,29.925 58.658,30.056 58.658,30.056 C58.676,30.056 58.695,30.056 58.714,30.056 C59.335,30.056 59.858,30.084 59.910,29.458 C60.896,16.864 53.881,5.550 42.417,0.362 Z" id="path-6" class="cls-4" fill-rule="evenodd"/>
    <path d="M25.115,13.973 C25.115,13.973 18.322,1.265 18.322,1.265 C18.017,0.694 17.311,0.469 16.734,0.752 C16.658,0.790 16.588,0.834 16.513,0.872 C16.513,0.872 22.934,12.883 22.934,12.883 C23.091,13.173 23.119,13.520 23.011,13.835 C22.903,14.149 22.673,14.405 22.368,14.543 C16.945,16.994 13.830,22.809 14.793,28.686 C14.848,29.015 14.763,29.349 14.559,29.612 C14.357,29.875 14.055,30.044 13.722,30.077 C13.722,30.077 0.245,31.378 0.245,31.378 C0.250,31.422 0.251,31.466 0.257,31.510 C0.337,32.115 0.851,32.557 1.446,32.557 C1.486,32.557 1.523,32.554 1.562,32.551 C1.562,32.551 15.903,31.168 15.903,31.168 C16.236,31.135 16.539,30.966 16.741,30.703 C16.945,30.441 17.029,30.105 16.976,29.777 C16.011,23.901 19.126,18.085 24.550,15.634 C24.855,15.496 25.085,15.240 25.193,14.925 C25.301,14.611 25.272,14.264 25.115,13.973 Z" id="path-7" class="cls-4" fill-rule="evenodd"/>
    <path d="M22.855,38.746 C22.555,38.556 22.262,38.352 21.979,38.135 C21.731,37.942 21.412,37.868 21.106,37.904 C21.667,38.229 22.251,38.512 22.855,38.746 Z" id="path-8" class="cls-10" fill-rule="evenodd"/>
    <path d="M47.750,50.410 C47.750,50.410 39.755,38.421 39.755,38.421 C39.572,38.144 39.282,37.956 38.953,37.902 C38.651,37.852 38.344,37.931 38.089,38.103 C38.089,38.103 45.568,49.319 45.568,49.319 C45.924,49.859 45.793,50.584 45.267,50.961 C40.159,54.623 34.125,56.558 27.820,56.558 C23.537,56.558 19.388,55.645 15.560,53.925 C19.967,56.357 24.890,57.649 30.001,57.649 C36.307,57.649 42.340,55.714 47.450,52.053 C47.975,51.675 48.106,50.950 47.750,50.410 Z" id="path-9" class="cls-4" fill-rule="evenodd"/>
  </g>
</svg>
