<svg xmlns="http://www.w3.org/2000/svg" xmlns:xlink="http://www.w3.org/1999/xlink" preserveAspectRatio="xMidYMid" width="61" height="54" viewBox="0 0 61 54">
  <defs>
    <style>

      .cls-3 {
        fill: #142a3b;
      }

      .cls-4 {
        fill: #000000;
        opacity: 0.35;
      }

      .cls-5 {
        fill: #0cb04a;
      }

      .cls-9 {
        fill: #ff3a2f;
      }

      .cls-13 {
        fill: #ededed;
      }
    </style>
  </defs>
  <g id="group-288svg">
    <path d="M49.309,2.726 C49.309,2.726 30.582,53.864 30.582,53.864 C30.582,53.864 11.853,2.726 11.853,2.726 C11.853,2.726 49.309,2.726 49.309,2.726 Z" id="path-1" class="cls-3" fill-rule="evenodd"/>
    <path d="M15.200,4.150 C15.200,4.150 22.197,14.732 22.197,14.732 C22.197,14.732 30.940,6.932 30.940,6.932 C30.940,6.932 39.683,14.732 39.683,14.732 C39.683,14.732 47.838,4.396 47.838,4.396 C47.838,4.396 30.821,5.090 30.821,5.090 C30.821,5.090 15.200,4.150 15.200,4.150 Z" id="path-2" class="cls-4" fill-rule="evenodd"/>
    <path d="M0.003,9.923 C0.003,9.923 26.948,52.259 26.948,52.259 C26.948,52.259 29.169,46.511 29.169,46.511 C29.169,46.511 13.675,0.006 13.675,0.006 C13.675,0.006 13.675,0.006 13.675,0.006 " id="path-3" class="cls-5" fill-rule="evenodd"/>
    <path d="M13.675,0.006 C13.675,0.006 11.913,1.284 11.913,1.284 C11.913,1.284 26.356,44.636 26.356,44.636 C26.356,44.636 24.748,48.802 24.748,48.802 C24.748,48.802 26.948,52.259 26.948,52.259 C26.948,52.259 29.169,46.511 29.169,46.511 C29.169,46.511 13.675,0.006 13.675,0.006 Z" id="path-4" class="cls-4" fill-rule="evenodd"/>
    <path d="M47.126,0.020 C47.126,0.020 26.403,53.672 26.403,53.672 C26.403,53.672 32.574,53.672 32.574,53.672 C33.719,48.432 60.003,8.905 60.003,8.905 C60.003,8.905 60.003,8.905 60.003,8.905 " id="path-5" class="cls-5" fill-rule="evenodd"/>
    <path d="M47.126,0.020 C47.126,0.020 46.051,2.803 46.051,2.803 C46.051,2.803 52.610,7.329 52.610,7.329 C54.631,8.724 55.168,11.477 53.818,13.528 C47.648,22.901 31.709,47.354 29.139,53.672 C29.139,53.672 32.574,53.672 32.574,53.672 C33.719,48.432 60.003,8.905 60.003,8.905 C60.003,8.905 47.126,0.020 47.126,0.020 Z" id="path-6" class="cls-4" fill-rule="evenodd"/>
    <path d="M36.103,8.583 C36.103,8.583 33.260,12.637 33.260,12.637 C33.260,12.637 27.774,12.637 27.774,12.637 C27.774,12.637 24.634,8.583 24.634,8.583 C24.634,8.583 30.368,3.379 30.368,3.379 C30.368,3.379 36.103,8.583 36.103,8.583 Z" id="path-7" class="cls-9" fill-rule="evenodd"/>
    <path d="M27.774,12.637 C27.774,12.637 20.599,20.814 23.141,28.490 C23.141,28.490 28.664,47.817 28.664,47.817 C28.664,47.817 36.117,28.490 36.117,28.490 C38.962,21.116 33.260,12.637 33.260,12.637 C33.260,12.637 33.260,12.637 33.260,12.637 " id="path-8" class="cls-9" fill-rule="evenodd"/>
    <path d="M30.368,3.379 C30.368,3.379 28.962,4.655 28.962,4.655 C28.962,4.655 33.291,9.520 33.291,9.520 C33.291,9.520 30.447,12.637 30.447,12.637 C30.447,12.637 33.260,12.637 33.260,12.637 C33.260,12.637 36.103,8.583 36.103,8.583 C36.103,8.583 30.368,3.379 30.368,3.379 Z" id="path-9" class="cls-4" fill-rule="evenodd"/>
    <path d="M33.260,12.637 C33.260,12.637 30.447,12.637 30.447,12.637 C30.447,12.637 36.149,21.116 33.305,28.490 C33.305,28.490 27.467,43.628 27.467,43.628 C27.467,43.628 28.664,47.817 28.664,47.817 C28.664,47.817 36.117,28.490 36.117,28.490 C38.962,21.116 33.260,12.637 33.260,12.637 Z" id="path-10" class="cls-4" fill-rule="evenodd"/>
    <path d="M14.263,1.338 C14.263,1.338 21.260,11.920 21.260,11.920 C21.260,11.920 30.003,4.119 30.003,4.119 C30.003,4.119 38.746,11.920 38.746,11.920 C38.746,11.920 46.900,1.584 46.900,1.584 C46.900,1.584 29.883,2.278 29.883,2.278 C29.883,2.278 14.263,1.338 14.263,1.338 Z" id="path-11" class="cls-13" fill-rule="evenodd"/>
    <path d="M28.128,3.182 C28.128,3.182 20.174,10.278 20.174,10.278 C20.174,10.278 21.260,11.920 21.260,11.920 C21.260,11.920 29.591,4.487 29.591,4.487 C29.591,4.487 28.128,3.182 28.128,3.182 Z" id="path-12" class="cls-4" fill-rule="evenodd"/>
    <path d="M44.199,1.694 C44.199,1.694 37.211,10.551 37.211,10.551 C37.211,10.551 38.746,11.920 38.746,11.920 C38.746,11.920 46.900,1.584 46.900,1.584 C46.900,1.584 44.199,1.694 44.199,1.694 Z" id="path-13" class="cls-4" fill-rule="evenodd"/>
  </g>
</svg>
