<svg xmlns="http://www.w3.org/2000/svg" xmlns:xlink="http://www.w3.org/1999/xlink" preserveAspectRatio="xMidYMid" width="60" height="39" viewBox="0 0 60 39">
  <defs>
    <style>

      .cls-3 {
        fill: #fbb713;
      }

      .cls-4 {
        fill: #ffffff;
      }

      .cls-5 {
        fill: #2476ff;
      }

      .cls-7 {
        fill: #020403;
        opacity: 0.25;
      }

      .cls-8 {
        fill: #020403;
        opacity: 0.35;
      }

      .cls-10 {
        fill: #020403;
      }

      .cls-11 {
        fill: #ff3a2f;
      }
    </style>
  </defs>
  <g id="group-151svg">
    <path d="M29.999,24.222 C29.999,24.222 48.001,23.076 48.001,23.076 C48.364,21.628 48.568,20.116 48.568,18.556 C48.568,8.301 40.254,-0.012 29.999,-0.012 C19.745,-0.012 11.431,8.301 11.431,18.556 C11.431,20.116 11.635,21.628 11.998,23.076 C11.998,23.076 29.999,24.222 29.999,24.222 Z" id="path-1" class="cls-3" fill-rule="evenodd"/>
    <path d="M15.325,16.961 C15.240,16.961 15.154,16.949 15.068,16.927 C14.534,16.785 14.216,16.237 14.358,15.704 C15.953,9.695 20.369,4.759 26.171,2.498 C26.683,2.299 27.265,2.552 27.465,3.067 C27.666,3.581 27.411,4.162 26.896,4.362 C21.687,6.391 17.723,10.823 16.290,16.216 C16.172,16.665 15.767,16.961 15.325,16.961 Z" id="path-2" class="cls-4" fill-rule="evenodd"/>
    <path d="M31.641,38.288 C46.358,37.552 59.999,34.509 59.999,34.509 C58.379,27.977 48.251,23.060 48.251,23.060 C48.251,23.060 29.999,24.222 29.999,24.222 C29.999,24.222 11.748,23.060 11.748,23.060 C11.748,23.060 1.620,27.977 -0.001,34.509 C-0.001,34.509 13.641,37.552 28.358,38.288 C28.358,38.288 29.453,38.381 29.999,38.360 C30.546,38.381 31.641,38.288 31.641,38.288 Z" id="path-3" class="cls-5" fill-rule="evenodd"/>
    <path d="M5.191,32.800 C4.981,32.800 4.770,32.734 4.589,32.597 C4.148,32.263 4.061,31.637 4.395,31.196 C6.536,28.367 9.725,26.094 12.024,24.684 C12.493,24.396 13.110,24.543 13.399,25.015 C13.687,25.485 13.540,26.101 13.069,26.390 C10.917,27.709 7.942,29.823 5.990,32.403 C5.793,32.663 5.494,32.800 5.191,32.800 Z" id="path-4" class="cls-4" fill-rule="evenodd"/>
    <path d="M29.999,-0.012 C29.274,-0.012 28.561,0.039 27.857,0.120 C34.856,2.781 39.840,9.532 39.840,17.465 C39.840,19.025 39.637,20.537 39.273,21.985 C39.273,21.985 21.272,23.131 21.272,23.131 C21.272,23.131 11.878,22.533 11.878,22.533 C11.918,22.714 11.953,22.897 11.998,23.076 C11.998,23.076 29.999,24.222 29.999,24.222 C29.999,24.222 48.001,23.076 48.001,23.076 C48.364,21.628 48.568,20.116 48.568,18.556 C48.568,8.301 40.254,-0.012 29.999,-0.012 Z" id="path-5" class="cls-7" fill-rule="evenodd"/>
    <path d="M48.251,23.060 C48.251,23.060 36.201,23.827 36.201,23.827 C39.315,25.835 43.706,29.306 44.727,33.419 C44.727,33.419 31.085,36.461 16.368,37.197 C16.368,37.197 16.311,37.201 16.229,37.207 C19.985,37.674 24.126,38.076 28.358,38.287 C28.358,38.287 29.453,38.381 29.999,38.360 C30.546,38.381 31.641,38.287 31.641,38.287 C46.358,37.552 59.999,34.509 59.999,34.509 C58.379,27.977 48.251,23.060 48.251,23.060 Z" id="path-6" class="cls-8" fill-rule="evenodd"/>
    <path d="M51.513,24.943 C49.662,23.745 48.251,23.060 48.251,23.060 C48.251,23.060 47.477,23.109 47.477,23.109 C47.477,23.109 47.477,36.712 47.477,36.712 C47.576,36.698 47.674,36.683 47.772,36.670 C47.772,36.670 49.827,30.026 49.827,30.026 C49.827,30.026 51.513,36.060 51.513,36.060 C51.513,36.060 51.513,24.943 51.513,24.943 Z" id="path-7" class="cls-8" fill-rule="evenodd"/>
    <path d="M40.346,22.777 C38.033,23.273 36.561,25.552 37.058,27.864 C37.555,30.177 39.832,31.649 42.145,31.152 C44.458,30.655 46.747,25.782 46.747,25.782 C46.747,25.782 42.659,22.279 40.346,22.777 ZM42.006,28.670 C41.019,28.882 40.047,28.254 39.835,27.267 C39.623,26.281 40.251,25.308 41.238,25.097 C42.225,24.885 43.969,26.379 43.969,26.379 C43.969,26.379 42.993,28.458 42.006,28.670 Z" id="path-8" class="cls-10" fill-rule="evenodd"/>
    <path d="M54.171,18.154 C53.016,16.091 50.405,15.354 48.341,16.509 C46.277,17.665 45.524,22.996 45.524,22.996 C45.524,22.996 50.463,25.141 52.527,23.984 C54.591,22.829 55.327,20.218 54.171,18.154 ZM51.299,22.422 C50.181,23.048 47.506,21.887 47.506,21.887 C47.506,21.887 47.914,18.999 49.032,18.373 C50.150,17.747 51.564,18.146 52.190,19.264 C52.816,20.382 52.417,21.796 51.299,22.422 Z" id="path-9" class="cls-11" fill-rule="evenodd"/>
    <path d="M40.346,19.504 C38.033,20.001 36.561,22.279 37.058,24.591 C37.555,26.904 39.832,28.376 42.145,27.880 C44.458,27.383 46.747,22.510 46.747,22.510 C46.747,22.510 42.659,19.007 40.346,19.504 ZM42.006,25.397 C41.019,25.609 40.047,24.981 39.835,23.994 C39.623,23.008 40.251,22.036 41.238,21.824 C42.225,21.612 43.969,23.106 43.969,23.106 C43.969,23.106 42.993,25.185 42.006,25.397 Z" id="path-10" class="cls-11" fill-rule="evenodd"/>
    <path d="M49.331,22.625 C49.331,22.625 49.331,37.151 49.331,37.151 C49.331,37.151 47.645,31.117 47.645,31.117 C47.645,31.117 45.295,38.716 45.295,38.716 C45.295,38.716 45.295,22.625 45.295,22.625 C45.295,22.625 49.331,22.625 49.331,22.625 Z" id="path-11" class="cls-11" fill-rule="evenodd"/>
  </g>
</svg>
