<svg xmlns="http://www.w3.org/2000/svg" xmlns:xlink="http://www.w3.org/1999/xlink" preserveAspectRatio="xMidYMid" width="60" height="51" viewBox="0 0 60 51">
  <defs>
    <style>

      .cls-3 {
        fill: #142a3b;
      }

      .cls-4 {
        fill: #010101;
        opacity: 0.35;
      }

      .cls-7 {
        fill: #ffffff;
      }

      .cls-8 {
        fill: #010101;
        opacity: 0.25;
      }
    </style>
  </defs>
  <g id="group-246svg">
    <path d="M36.114,49.945 C36.114,49.945 23.864,49.945 23.864,49.945 C23.864,49.945 23.864,42.414 23.864,42.414 C23.864,42.414 36.114,42.414 36.114,42.414 C36.114,42.414 36.114,49.945 36.114,49.945 Z" id="path-1" class="cls-3" fill-rule="evenodd"/>
    <path d="M23.864,42.414 C23.864,42.414 23.864,43.414 23.864,43.414 C23.864,43.414 34.114,45.414 34.114,45.414 C34.114,45.414 34.114,47.569 34.114,47.569 C34.114,47.569 23.864,48.945 23.864,48.945 C23.864,48.945 36.114,48.945 36.114,48.945 C36.114,48.945 36.114,42.414 36.114,42.414 C36.114,42.414 23.864,42.414 23.864,42.414 Z" id="path-2" class="cls-4" fill-rule="evenodd"/>
    <path d="M59.989,43.507 C59.989,43.507 -0.011,43.507 -0.011,43.507 C-0.011,43.507 -0.011,0.007 -0.011,0.007 C-0.011,0.007 59.989,0.007 59.989,0.007 C59.989,0.007 59.989,43.507 59.989,43.507 Z" id="path-3" class="cls-3" fill-rule="evenodd"/>
    <path d="M57.989,0.007 C57.989,0.007 57.989,41.507 57.989,41.507 C57.989,41.507 -0.011,41.507 -0.011,41.507 C-0.011,41.507 -0.011,43.507 -0.011,43.507 C-0.011,43.507 59.989,43.507 59.989,43.507 C59.989,43.507 59.989,0.007 59.989,0.007 C59.989,0.007 57.989,0.007 57.989,0.007 Z" id="path-4" class="cls-4" fill-rule="evenodd"/>
    <path d="M54.489,38.270 C54.489,38.270 5.489,38.270 5.489,38.270 C5.489,38.270 5.489,5.245 5.489,5.245 C5.489,5.245 54.489,5.245 54.489,5.245 C54.489,5.245 54.489,38.270 54.489,38.270 Z" id="path-5" class="cls-7" fill-rule="evenodd"/>
    <path d="M7.489,7.245 C7.489,7.245 54.489,7.245 54.489,7.245 C54.489,7.245 54.489,5.245 54.489,5.245 C54.489,5.245 5.489,5.245 5.489,5.245 C5.489,5.245 5.489,38.270 5.489,38.270 C5.489,38.270 7.489,38.270 7.489,38.270 C7.489,38.270 7.489,7.245 7.489,7.245 Z" id="path-6" class="cls-8" fill-rule="evenodd"/>
    <path d="M42.114,50.632 C42.114,50.632 17.864,50.632 17.864,50.632 C17.864,50.632 17.864,49.132 17.864,49.132 C17.864,49.132 42.114,49.132 42.114,49.132 C42.114,49.132 42.114,50.632 42.114,50.632 Z" id="path-7" class="cls-3" fill-rule="evenodd"/>
  </g>
</svg>
