<svg xmlns="http://www.w3.org/2000/svg" xmlns:xlink="http://www.w3.org/1999/xlink" preserveAspectRatio="xMidYMid" width="60" height="30" viewBox="0 0 60 30">
  <defs>
    <style>

      .cls-3 {
        fill: #fbb713;
      }

      .cls-5 {
        fill: #ededed;
      }

      .cls-6 {
        fill: #060606;
        opacity: 0.25;
      }
    </style>
  </defs>
  <g id="group-180svg">
    <path d="M58.333,29.376 C58.333,29.376 1.673,29.376 1.673,29.376 C0.750,29.376 0.002,28.629 0.002,27.706 C0.002,27.706 0.002,27.388 0.002,27.388 C0.002,26.466 0.750,25.718 1.673,25.718 C1.673,25.718 58.333,25.718 58.333,25.718 C59.255,25.718 60.002,26.466 60.002,27.388 C60.002,27.388 60.002,27.706 60.002,27.706 C60.002,28.629 59.255,29.376 58.333,29.376 Z" id="path-1" class="cls-3" fill-rule="evenodd"/>
    <path d="M55.414,25.718 C54.575,12.411 43.521,1.876 30.002,1.876 C16.483,1.876 5.431,12.411 4.591,25.718 C4.591,25.718 55.414,25.718 55.414,25.718 Z" id="path-2" class="cls-3" fill-rule="evenodd"/>
    <path d="M9.560,18.728 C9.417,18.728 9.271,18.698 9.133,18.632 C8.634,18.395 8.421,17.799 8.657,17.299 C10.798,12.782 14.470,9.114 18.996,6.971 C19.495,6.736 20.092,6.948 20.328,7.448 C20.564,7.947 20.351,8.543 19.851,8.779 C15.742,10.724 12.408,14.055 10.465,18.156 C10.294,18.517 9.934,18.728 9.560,18.728 Z" id="path-3" class="cls-5" fill-rule="evenodd"/>
    <path d="M37.967,3.172 C44.161,7.482 48.203,12.790 48.707,20.783 C48.707,20.783 4.829,23.518 4.829,23.518 C4.619,24.589 4.661,24.603 4.591,25.718 C4.591,25.718 55.414,25.718 55.414,25.718 C54.748,15.153 47.633,6.357 37.967,3.172 Z" id="path-4" class="cls-6" fill-rule="evenodd"/>
    <path d="M27.522,14.532 C28.623,14.532 29.515,13.640 29.515,12.540 C29.515,12.540 29.515,1.993 29.515,1.993 C29.515,1.962 29.507,1.932 29.505,1.900 C28.151,1.926 26.824,2.057 25.530,2.286 C25.530,2.286 25.530,12.540 25.530,12.540 C25.530,13.640 26.422,14.532 27.522,14.532 Z" id="path-5" class="cls-6" fill-rule="evenodd"/>
    <path d="M37.341,14.532 C38.441,14.532 39.333,13.640 39.333,12.540 C39.333,12.540 39.333,3.651 39.333,3.651 C38.053,3.146 36.720,2.749 35.349,2.456 C35.349,2.456 35.349,12.540 35.349,12.540 C35.349,13.640 36.240,14.532 37.341,14.532 Z" id="path-6" class="cls-6" fill-rule="evenodd"/>
    <path d="M35.332,14.532 C35.332,14.532 34.986,14.532 34.986,14.532 C33.981,14.532 33.166,13.718 33.166,12.713 C33.166,12.713 33.166,1.820 33.166,1.820 C33.166,0.816 33.981,0.001 34.986,0.001 C34.986,0.001 35.332,0.001 35.332,0.001 C36.336,0.001 37.151,0.816 37.151,1.820 C37.151,1.820 37.151,12.713 37.151,12.713 C37.151,13.718 36.336,14.532 35.332,14.532 Z" id="path-7" class="cls-3" fill-rule="evenodd"/>
    <path d="M25.019,14.532 C25.019,14.532 24.673,14.532 24.673,14.532 C23.669,14.532 22.854,13.718 22.854,12.713 C22.854,12.713 22.854,1.820 22.854,1.820 C22.854,0.816 23.669,0.001 24.673,0.001 C24.673,0.001 25.019,0.001 25.019,0.001 C26.024,0.001 26.838,0.816 26.838,1.820 C26.838,1.820 26.838,12.713 26.838,12.713 C26.838,13.718 26.024,14.532 25.019,14.532 Z" id="path-8" class="cls-3" fill-rule="evenodd"/>
    <path d="M1.832,29.377 C1.832,29.377 58.174,29.377 58.174,29.377 C59.184,29.377 60.002,28.558 60.002,27.547 C60.002,27.547 0.002,27.547 0.002,27.547 C0.002,28.558 0.821,29.377 1.832,29.377 Z" id="path-9" class="cls-6" fill-rule="evenodd"/>
  </g>
</svg>
