<svg xmlns="http://www.w3.org/2000/svg" xmlns:xlink="http://www.w3.org/1999/xlink" preserveAspectRatio="xMidYMid" width="61" height="61" viewBox="0 0 61 61">
  <defs>
    <style>

      .cls-3 {
        fill: #ff3a2f;
      }

      .cls-4 {
        fill: #142a3b;
      }

      .cls-5 {
        fill: #020403;
        opacity: 0.35;
      }

      .cls-7 {
        fill: #ededed;
      }

      .cls-11 {
        fill: #ffffff;
      }
    </style>
  </defs>
  <g id="group-114svg">
    <path d="M22.031,55.251 C22.122,55.027 22.153,54.788 22.144,54.549 C22.709,54.255 23.240,53.872 23.719,53.393 C23.719,53.393 48.012,29.100 48.012,29.100 C49.594,27.517 50.156,25.436 49.638,23.726 C49.638,23.726 53.082,20.281 53.082,20.281 C53.151,20.213 53.188,20.125 53.238,20.047 C53.391,19.968 53.546,19.887 53.676,19.757 C53.676,19.757 57.290,16.142 57.290,16.142 C57.934,15.499 57.933,14.455 57.290,13.813 C57.290,13.813 55.265,11.787 55.265,11.787 C55.265,11.787 59.832,7.220 59.832,7.220 C60.474,6.577 60.474,5.532 59.832,4.890 C59.832,4.890 55.430,0.488 55.430,0.488 C54.788,-0.154 53.743,-0.154 53.101,0.488 C53.101,0.488 48.533,5.056 48.533,5.056 C48.533,5.056 46.357,2.880 46.357,2.880 C45.715,2.238 44.671,2.236 44.028,2.880 C44.028,2.880 40.414,6.495 40.414,6.495 C40.341,6.567 40.309,6.658 40.254,6.736 C40.100,6.812 39.949,6.894 39.822,7.022 C39.822,7.022 36.414,10.429 36.414,10.429 C34.684,9.867 32.510,10.424 30.923,12.012 C30.923,12.012 6.630,36.304 6.630,36.304 C6.134,36.801 5.733,37.358 5.435,37.946 C4.199,37.889 2.798,38.451 1.663,39.586 C-0.179,41.428 -0.522,43.967 0.880,45.369 C0.880,45.369 14.656,59.145 14.656,59.145 C16.058,60.547 18.597,60.204 20.439,58.362 C21.377,57.424 21.903,56.309 22.031,55.251 Z" id="path-1" class="cls-3" fill-rule="evenodd"/>
    <path d="M49.638,23.726 C49.638,23.726 53.082,20.281 53.082,20.281 C53.151,20.213 53.188,20.125 53.238,20.047 C53.391,19.968 53.546,19.887 53.676,19.757 C53.676,19.757 57.290,16.142 57.290,16.142 C57.934,15.499 57.933,14.455 57.290,13.813 C57.290,13.813 55.265,11.787 55.265,11.787 C55.265,11.787 59.832,7.220 59.832,7.220 C60.474,6.577 60.474,5.532 59.832,4.890 C59.832,4.890 55.430,0.488 55.430,0.488 C54.788,-0.154 53.743,-0.154 53.101,0.488 C53.101,0.488 48.533,5.056 48.533,5.056 C48.533,5.056 46.357,2.880 46.357,2.880 C45.715,2.238 44.671,2.236 44.028,2.880 C44.028,2.880 40.414,6.495 40.414,6.495 C40.341,6.567 40.309,6.658 40.254,6.736 C40.100,6.812 39.949,6.894 39.822,7.022 C39.822,7.022 36.414,10.429 36.414,10.429 C36.414,10.429 49.638,23.726 49.638,23.726 Z" id="path-2" class="cls-4" fill-rule="evenodd"/>
    <path d="M44.856,2.880 C44.856,2.880 47.782,5.806 47.782,5.806 C47.782,5.806 48.533,5.056 48.533,5.056 C48.533,5.056 46.357,2.880 46.357,2.880 C45.839,2.362 45.062,2.268 44.442,2.587 C44.590,2.663 44.732,2.756 44.856,2.880 Z" id="path-3" class="cls-5" fill-rule="evenodd"/>
    <path d="M57.290,16.142 C57.934,15.499 57.933,14.455 57.291,13.813 C57.291,13.813 55.265,11.787 55.265,11.787 C55.265,11.787 59.832,7.220 59.832,7.220 C60.474,6.577 60.474,5.532 59.832,4.890 C59.832,4.890 55.430,0.488 55.430,0.488 C54.912,-0.030 54.134,-0.123 53.515,0.196 C53.663,0.272 53.805,0.364 53.929,0.488 C53.929,0.488 56.829,3.389 56.829,3.389 C57.471,4.031 57.471,5.076 56.829,5.718 C56.829,5.718 52.262,10.286 52.262,10.286 C52.262,10.286 54.288,12.311 54.288,12.311 C54.930,12.954 54.931,13.998 54.287,14.641 C54.287,14.641 47.388,21.471 47.388,21.471 C47.388,21.471 49.638,23.726 49.638,23.726 C49.638,23.726 53.082,20.281 53.082,20.281 C53.151,20.213 53.188,20.125 53.238,20.047 C53.391,19.969 53.546,19.887 53.676,19.757 C53.676,19.757 57.290,16.142 57.290,16.142 Z" id="path-4" class="cls-5" fill-rule="evenodd"/>
    <path d="M30.526,46.588 C30.526,46.588 13.437,29.499 13.437,29.499 C13.437,29.499 24.200,18.736 24.200,18.736 C24.200,18.736 41.289,35.825 41.289,35.825 C41.289,35.825 30.526,46.588 30.526,46.588 Z" id="path-5" class="cls-7" fill-rule="evenodd"/>
    <path d="M30.882,38.936 C30.882,38.936 21.089,29.143 21.089,29.143 C21.089,29.143 23.341,26.891 23.341,26.891 C23.341,26.891 33.134,36.684 33.134,36.684 C33.134,36.684 30.882,38.936 30.882,38.936 Z" id="path-6" class="cls-4" fill-rule="evenodd"/>
    <path d="M6.086,36.848 C6.086,36.848 6.630,36.304 6.630,36.304 C6.246,36.689 5.937,37.117 5.671,37.560 C5.671,37.560 22.462,54.351 22.462,54.351 C22.906,54.086 23.333,53.779 23.719,53.393 C23.719,53.393 23.925,53.186 23.925,53.186 C23.925,53.186 6.086,36.848 6.086,36.848 Z" id="path-7" class="cls-5" fill-rule="evenodd"/>
    <path d="M22.031,55.251 C22.122,55.027 22.153,54.788 22.144,54.549 C22.709,54.255 23.240,53.872 23.719,53.393 C23.719,53.393 48.012,29.100 48.012,29.100 C49.594,27.517 50.156,25.436 49.638,23.726 C49.638,23.726 36.558,10.423 36.558,10.423 C35.650,10.153 35.949,10.265 34.899,10.227 C34.899,10.227 45.134,22.224 45.134,22.224 C45.652,23.935 45.090,26.016 43.507,27.599 C43.507,27.599 19.214,51.892 19.214,51.892 C18.735,52.371 18.205,52.754 17.640,53.048 C17.649,53.287 17.618,53.525 17.527,53.750 C17.399,54.808 16.873,55.923 15.935,56.861 C15.271,57.524 14.517,57.985 13.759,58.248 C13.759,58.248 14.656,59.145 14.656,59.145 C16.058,60.546 18.597,60.204 20.439,58.362 C21.377,57.424 21.903,56.309 22.031,55.251 Z" id="path-8" class="cls-5" fill-rule="evenodd"/>
    <path d="M14.887,34.051 C14.503,34.051 14.120,33.905 13.827,33.612 C13.241,33.026 13.241,32.076 13.827,31.490 C13.827,31.490 29.862,15.455 29.862,15.455 C31.800,13.518 34.550,12.752 36.877,13.506 C37.665,13.761 38.097,14.608 37.841,15.396 C37.586,16.184 36.738,16.616 35.952,16.360 C34.710,15.955 33.114,16.446 31.983,17.576 C31.983,17.576 15.948,33.612 15.948,33.612 C15.655,33.905 15.271,34.051 14.887,34.051 Z" id="path-9" class="cls-11" fill-rule="evenodd"/>
  </g>
</svg>
