<svg xmlns="http://www.w3.org/2000/svg" xmlns:xlink="http://www.w3.org/1999/xlink" preserveAspectRatio="xMidYMid" width="60" height="41" viewBox="0 0 60 41">
  <defs>
    <style>

      .cls-3 {
        fill: #142a3b;
      }

      .cls-5 {
        fill: #010101;
        opacity: 0.35;
      }

      .cls-6 {
        fill: #ffffff;
      }
    </style>
  </defs>
  <g id="group-247svg">
    <path d="M37.053,5.404 C37.053,5.404 6.066,5.404 6.066,5.404 C6.066,5.404 0.047,2.427 0.047,2.427 C0.047,2.427 0.047,0.612 0.047,0.612 C0.047,0.612 59.791,0.612 59.791,0.612 C59.791,0.612 59.791,3.008 59.791,3.008 C59.791,3.008 37.053,5.404 37.053,5.404 Z" id="path-1" class="cls-3" fill-rule="evenodd"/>
    <path d="M37.053,5.293 C37.053,5.293 6.066,5.293 6.066,5.293 C6.066,5.293 0.047,8.270 0.047,8.270 C0.047,8.270 0.047,10.086 0.047,10.086 C0.047,10.086 59.791,10.086 59.791,10.086 C59.791,10.086 59.791,7.689 59.791,7.689 C59.791,7.689 37.053,5.293 37.053,5.293 Z" id="path-2" class="cls-3" fill-rule="evenodd"/>
    <path d="M37.053,5.293 C37.053,5.293 6.066,5.293 6.066,5.293 C6.066,5.293 0.047,8.270 0.047,8.270 C0.047,8.270 0.047,10.086 0.047,10.086 C0.047,10.086 59.791,10.086 59.791,10.086 C59.791,10.086 59.791,7.689 59.791,7.689 C59.791,7.689 37.053,5.293 37.053,5.293 Z" id="path-3" class="cls-5" fill-rule="evenodd"/>
    <path d="M16.265,5.767 C16.265,6.829 15.404,7.689 14.342,7.689 C13.280,7.689 12.419,6.829 12.419,5.767 C12.419,4.705 13.280,3.844 14.342,3.844 C15.404,3.844 16.265,4.705 16.265,5.767 Z" id="path-4" class="cls-6" fill-rule="evenodd"/>
    <path d="M34.712,4.736 C33.668,4.930 38.669,3.008 38.975,5.767 C39.093,6.822 38.115,7.689 37.053,7.689 C37.053,7.689 28.950,3.024 26.463,0.913 C26.278,0.755 26.274,0.473 26.451,0.306 C26.451,0.306 26.636,0.129 26.636,0.129 C26.772,-0.001 26.980,-0.021 27.140,0.081 C27.140,0.081 36.050,5.767 36.050,5.767 C36.050,5.767 37.185,6.539 37.415,6.491 C37.824,6.406 37.944,4.137 34.712,4.736 Z" id="path-5" class="cls-6" fill-rule="evenodd"/>
    <path d="M22.061,5.767 C22.061,6.336 21.599,6.798 21.030,6.798 C20.460,6.798 19.999,6.336 19.999,5.767 C19.999,5.197 20.460,4.736 21.030,4.736 C21.599,4.736 22.061,5.197 22.061,5.767 Z" id="path-6" class="cls-6" fill-rule="evenodd"/>
    <path d="M36.865,25.111 C36.865,25.111 7.126,33.817 7.126,33.817 C7.126,33.817 0.513,32.651 0.513,32.651 C0.513,32.651 0.003,30.908 0.003,30.908 C0.003,30.908 57.341,14.123 57.341,14.123 C57.341,14.123 58.014,16.423 58.014,16.423 C58.014,16.423 36.865,25.111 36.865,25.111 Z" id="path-7" class="cls-3" fill-rule="evenodd"/>
    <path d="M36.833,25.005 C36.833,25.005 7.095,33.710 7.095,33.710 C7.095,33.710 2.154,38.258 2.154,38.258 C2.154,38.258 2.665,40.001 2.665,40.001 C2.665,40.001 60.003,23.215 60.003,23.215 C60.003,23.215 59.330,20.916 59.330,20.916 C59.330,20.916 36.833,25.005 36.833,25.005 Z" id="path-8" class="cls-3" fill-rule="evenodd"/>
    <path d="M36.833,25.005 C36.833,25.005 7.095,33.710 7.095,33.710 C7.095,33.710 2.154,38.258 2.154,38.258 C2.154,38.258 2.665,40.001 2.665,40.001 C2.665,40.001 60.003,23.215 60.003,23.215 C60.003,23.215 59.330,20.916 59.330,20.916 C59.330,20.916 36.833,25.005 36.833,25.005 Z" id="path-9" class="cls-5" fill-rule="evenodd"/>
    <path d="M17.016,31.300 C17.314,32.319 16.730,33.386 15.711,33.685 C14.691,33.983 13.623,33.399 13.325,32.380 C13.027,31.361 13.611,30.293 14.630,29.995 C15.649,29.696 16.717,30.280 17.016,31.300 Z" id="path-10" class="cls-6" fill-rule="evenodd"/>
    <path d="M34.430,25.127 C33.482,25.606 37.743,22.357 38.812,24.919 C39.221,25.899 38.526,27.006 37.507,27.304 C37.507,27.304 28.420,25.103 25.440,23.776 C25.217,23.677 25.135,23.407 25.257,23.196 C25.257,23.196 25.385,22.975 25.385,22.975 C25.480,22.811 25.674,22.734 25.855,22.786 C25.855,22.786 36.004,25.741 36.004,25.741 C36.004,25.741 37.310,26.163 37.517,26.052 C37.886,25.856 37.364,23.644 34.430,25.127 Z" id="path-11" class="cls-6" fill-rule="evenodd"/>
    <path d="M22.579,29.670 C22.738,30.217 22.425,30.790 21.879,30.950 C21.332,31.110 20.759,30.797 20.600,30.250 C20.439,29.704 20.753,29.131 21.299,28.971 C21.846,28.811 22.418,29.124 22.579,29.670 Z" id="path-12" class="cls-6" fill-rule="evenodd"/>
  </g>
</svg>
