<svg xmlns="http://www.w3.org/2000/svg" xmlns:xlink="http://www.w3.org/1999/xlink" preserveAspectRatio="xMidYMid" width="60" height="60" viewBox="0 0 60 60">
  <defs>
    <style>

      .cls-3 {
        fill: #fbb713;
      }

      .cls-4 {
        fill: #ededed;
      }

      .cls-6 {
        fill: #142a3b;
      }

      .cls-8 {
        fill: #060606;
        opacity: 0.35;
      }

      .cls-9 {
        fill: #ff3a2f;
      }
    </style>
  </defs>
  <g id="group-193svg">
    <path d="M37.553,33.750 C37.163,33.001 36.376,32.105 34.850,32.105 C34.263,32.105 33.668,32.234 33.094,32.359 C32.547,32.475 31.983,32.598 31.464,32.598 C30.611,32.598 29.602,32.298 28.559,30.076 C27.221,27.222 27.866,25.536 28.488,23.908 C29.081,22.358 29.751,20.605 28.331,18.527 C27.243,16.929 25.705,16.053 24.004,16.053 C21.825,16.053 19.599,17.489 17.739,20.103 C16.797,21.421 16.250,23.107 15.719,24.737 C15.238,26.214 14.740,27.740 14.072,28.426 C12.627,29.910 10.577,30.668 8.406,31.475 C6.199,32.293 3.922,33.137 2.274,34.828 C-2.577,39.811 1.138,49.136 5.561,53.681 C5.810,53.934 11.718,59.926 17.683,59.926 C17.683,59.926 17.683,59.926 17.683,59.926 C19.915,59.926 21.848,59.104 23.427,57.482 C27.066,53.747 27.800,49.895 28.334,47.081 C28.610,45.639 28.848,44.389 29.390,43.746 C30.209,42.774 31.654,41.823 33.051,40.904 C35.781,39.107 39.180,36.870 37.553,33.750 Z" id="path-1" class="cls-3" fill-rule="evenodd"/>
    <path d="M9.415,52.531 C9.155,52.531 8.894,52.429 8.698,52.228 C4.813,48.235 1.746,40.330 6.090,35.868 C6.475,35.473 7.109,35.464 7.504,35.850 C7.899,36.235 7.908,36.868 7.522,37.264 C4.239,40.636 6.829,47.440 10.132,50.833 C10.517,51.229 10.508,51.862 10.112,52.247 C9.918,52.436 9.666,52.531 9.415,52.531 Z" id="path-2" class="cls-4" fill-rule="evenodd"/>
    <path d="M19.474,24.193 C19.342,24.193 19.207,24.167 19.079,24.111 C18.571,23.893 18.337,23.305 18.556,22.797 C19.694,20.155 21.432,18.461 23.451,18.027 C23.992,17.913 24.523,18.255 24.639,18.795 C24.755,19.335 24.411,19.866 23.871,19.982 C22.503,20.276 21.268,21.557 20.393,23.588 C20.229,23.966 19.861,24.193 19.474,24.193 Z" id="path-3" class="cls-4" fill-rule="evenodd"/>
    <path d="M28.488,23.908 C27.866,25.536 27.220,27.222 28.559,30.076 C29.340,31.738 30.101,32.325 30.792,32.516 C30.792,32.516 45.195,17.838 45.195,17.838 C43.884,17.507 42.654,16.818 41.642,15.778 C40.440,14.543 39.628,13.288 39.152,12.023 C39.152,12.023 29.007,22.333 29.007,22.333 C28.873,22.881 28.680,23.406 28.488,23.908 Z" id="path-4" class="cls-6" fill-rule="evenodd"/>
    <path d="M44.313,18.171 C43.022,18.171 41.814,17.632 40.829,16.621 C39.097,14.843 38.355,13.194 38.560,11.571 C38.869,9.124 41.249,7.211 44.723,5.088 C45.576,4.566 46.376,4.060 47.139,3.574 C50.286,1.570 52.769,-0.011 55.177,-0.011 C56.294,-0.011 57.331,0.339 58.262,1.025 C59.792,2.157 60.359,4.025 59.743,5.899 C59.149,7.693 57.264,9.777 53.858,9.995 C52.010,13.328 48.287,18.171 44.313,18.171 Z" id="path-5" class="cls-6" fill-rule="evenodd"/>
    <path d="M58.836,1.537 C58.953,2.236 58.903,2.980 58.657,3.727 C58.063,5.521 56.179,7.605 52.772,7.823 C50.924,11.155 47.201,16.000 43.227,16.000 C41.936,16.000 40.728,15.460 39.743,14.449 C39.333,14.028 38.982,13.614 38.683,13.206 C38.970,14.308 39.674,15.435 40.829,16.621 C41.814,17.632 43.022,18.171 44.313,18.171 C48.287,18.171 52.010,13.327 53.858,9.995 C57.264,9.777 59.149,7.693 59.743,5.899 C60.274,4.284 59.922,2.675 58.836,1.537 Z" id="path-6" class="cls-8" fill-rule="evenodd"/>
    <path d="M11.923,43.862 C11.422,43.348 11.433,42.527 11.946,42.030 C12.460,41.530 13.280,41.539 13.778,42.051 C13.778,42.051 17.825,46.201 17.825,46.201 C18.323,46.714 18.313,47.538 17.799,48.033 C17.549,48.281 17.222,48.402 16.896,48.402 C16.559,48.402 16.220,48.270 15.967,48.013 C15.967,48.013 11.923,43.862 11.923,43.862 Z" id="path-7" class="cls-9" fill-rule="evenodd"/>
    <path d="M18.918,53.334 C18.361,53.909 17.455,53.909 16.896,53.334 C16.336,52.760 16.336,51.834 16.896,51.257 C17.455,50.684 18.361,50.684 18.918,51.257 C19.477,51.834 19.477,52.760 18.918,53.334 Z" id="path-8" class="cls-9" fill-rule="evenodd"/>
    <path d="M21.843,43.885 C21.593,44.131 21.266,44.252 20.942,44.252 C20.603,44.252 20.267,44.122 20.011,43.859 C20.011,43.859 15.967,39.705 15.967,39.705 C15.469,39.191 15.479,38.371 15.993,37.872 C16.504,37.374 17.324,37.384 17.825,37.898 C17.825,37.898 21.868,42.053 21.868,42.053 C22.370,42.566 22.359,43.384 21.843,43.885 Z" id="path-9" class="cls-9" fill-rule="evenodd"/>
    <path d="M37.553,33.750 C37.238,33.145 36.656,32.452 35.642,32.205 C36.542,35.002 33.423,37.058 30.879,38.732 C29.482,39.651 28.038,40.602 27.218,41.574 C26.676,42.217 26.438,43.467 26.162,44.909 C25.628,47.723 24.895,51.575 21.256,55.311 C19.677,56.932 17.743,57.755 15.511,57.755 C11.136,57.755 6.800,54.536 4.697,52.718 C4.981,53.057 5.269,53.380 5.561,53.681 C5.810,53.933 11.718,59.926 17.683,59.926 C19.915,59.926 21.848,59.104 23.427,57.482 C27.066,53.747 27.800,49.895 28.334,47.081 C28.610,45.639 28.848,44.389 29.390,43.746 C30.209,42.774 31.654,41.823 33.051,40.904 C35.781,39.108 39.180,36.870 37.553,33.750 Z" id="path-10" class="cls-8" fill-rule="evenodd"/>
    <path d="M26.317,21.736 C25.694,23.364 25.049,25.050 26.387,27.904 C27.201,29.638 27.993,30.196 28.707,30.361 C28.658,30.264 28.609,30.182 28.559,30.076 C27.221,27.222 27.866,25.536 28.488,23.908 C29.081,22.358 29.751,20.605 28.331,18.527 C27.772,17.706 27.093,17.079 26.335,16.660 C27.491,18.604 26.879,20.263 26.317,21.736 Z" id="path-11" class="cls-8" fill-rule="evenodd"/>
  </g>
</svg>
