<svg xmlns="http://www.w3.org/2000/svg" xmlns:xlink="http://www.w3.org/1999/xlink" preserveAspectRatio="xMidYMid" width="61" height="35" viewBox="0 0 61 35">
  <defs>
    <style>

      .cls-3 {
        fill: #0cb04a;
      }

      .cls-4 {
        fill: #000000;
        opacity: 0.35;
      }

      .cls-8 {
        fill: #087330;
      }

      .cls-9 {
        fill: #ededed;
      }
    </style>
  </defs>
  <g id="group-300svg">
    <path d="M29.988,0.014 C15.560,0.014 -0.012,4.452 -0.012,11.618 C-0.012,11.618 -0.012,14.626 -0.012,14.626 C-0.012,17.018 1.857,17.204 2.429,17.204 C2.429,17.204 9.755,17.204 9.755,17.204 C9.755,17.204 14.908,9.759 14.908,9.759 C15.977,8.095 17.685,7.166 19.700,7.166 C19.700,7.166 39.198,7.166 39.198,7.166 C41.391,7.166 43.540,8.218 44.548,9.783 C44.548,9.783 50.030,17.204 50.030,17.204 C50.030,17.204 56.429,17.204 56.429,17.204 C58.076,17.204 59.988,16.078 59.988,14.626 C59.988,14.626 59.988,11.618 59.988,11.618 C59.988,4.452 44.415,0.014 29.988,0.014 Z" id="path-1" class="cls-3" fill-rule="evenodd"/>
    <path d="M40.023,7.166 C40.023,7.166 39.198,7.166 39.198,7.166 C41.391,7.166 43.540,8.218 44.548,9.783 C44.548,9.783 50.030,17.204 50.030,17.204 C50.030,17.204 50.855,17.204 50.855,17.204 C50.855,17.204 45.373,9.783 45.373,9.783 C44.366,8.218 42.216,7.166 40.023,7.166 Z" id="path-2" class="cls-4" fill-rule="evenodd"/>
    <path d="M44.663,1.534 C51.654,3.530 56.687,6.720 56.687,10.793 C56.687,10.793 56.687,13.801 56.687,13.801 C56.687,15.253 54.775,16.379 53.129,16.379 C53.129,16.379 49.421,16.379 49.421,16.379 C49.421,16.379 50.030,17.204 50.030,17.204 C50.030,17.204 56.429,17.204 56.429,17.204 C58.076,17.204 59.988,16.078 59.988,14.626 C59.988,14.626 59.988,11.618 59.988,11.618 C59.988,6.928 53.317,3.407 44.663,1.534 Z" id="path-3" class="cls-4" fill-rule="evenodd"/>
    <path d="M41.288,7.483 C40.309,6.965 37.069,6.341 35.897,6.341 C35.897,6.341 16.399,6.341 16.399,6.341 C14.384,6.341 12.677,7.270 11.607,8.934 C11.607,8.934 6.454,16.379 6.454,16.379 C6.454,16.379 0.517,16.379 0.517,16.379 C1.114,17.119 2.052,17.204 2.429,17.204 C2.429,17.204 9.755,17.204 9.755,17.204 C9.755,17.204 14.908,9.759 14.908,9.759 C15.977,8.095 17.685,7.166 19.700,7.166 C19.700,7.166 19.700,7.166 19.700,7.166 " id="path-4" class="cls-4" fill-rule="evenodd"/>
    <path d="M48.806,34.670 C48.806,34.670 10.089,34.670 10.089,34.670 C8.096,34.670 6.758,33.289 6.758,31.232 C6.758,31.232 6.758,21.777 6.758,21.777 C6.758,21.618 6.807,21.462 6.901,21.328 C6.901,21.328 14.908,9.759 14.908,9.759 C15.977,8.095 17.685,7.166 19.700,7.166 C19.700,7.166 39.198,7.166 39.198,7.166 C41.391,7.166 43.540,8.218 44.548,9.783 C44.548,9.783 53.059,21.305 53.059,21.305 C53.163,21.445 53.218,21.609 53.218,21.777 C53.218,21.777 53.218,31.232 53.218,31.232 C53.218,33.199 50.889,34.670 48.806,34.670 Z" id="path-5" class="cls-3" fill-rule="evenodd"/>
    <path d="M53.218,21.777 C53.218,21.777 53.218,31.232 53.218,31.232 C53.218,33.199 50.889,34.670 48.806,34.670 C48.806,34.670 10.089,34.670 10.089,34.670 C8.096,34.670 6.758,33.289 6.758,31.232 C6.758,31.232 6.758,21.777 6.758,21.777 C6.758,21.777 53.218,21.777 53.218,21.777 Z" id="path-6" class="cls-8" fill-rule="evenodd"/>
    <path d="M29.988,19.697 C24.574,19.697 20.332,17.274 20.332,14.179 C20.332,11.085 24.574,8.661 29.988,8.661 C35.402,8.661 39.644,11.085 39.644,14.179 C39.644,17.274 35.402,19.697 29.988,19.697 Z" id="path-7" class="cls-9" fill-rule="evenodd"/>
    <path d="M29.988,18.356 C25.890,18.356 22.678,16.522 22.678,14.179 C22.678,11.837 25.890,10.002 29.988,10.002 C34.086,10.002 37.297,11.837 37.297,14.179 C37.297,16.522 34.086,18.356 29.988,18.356 Z" id="path-8" class="cls-8" fill-rule="evenodd"/>
  </g>
</svg>
