<svg xmlns="http://www.w3.org/2000/svg" xmlns:xlink="http://www.w3.org/1999/xlink" preserveAspectRatio="xMidYMid" width="56" height="60" viewBox="0 0 56 60">
  <defs>
    <style>

      .cls-3 {
        fill: #0cb04a;
      }

      .cls-4 {
        fill: #000000;
        opacity: 0.35;
      }

      .cls-5 {
        fill: #fbb713;
      }

      .cls-6 {
        fill: #000000;
        opacity: 0.25;
      }

      .cls-7 {
        fill: #142a3b;
      }
    </style>
  </defs>
  <g id="group-265svg">
    <path d="M55.514,47.543 C55.514,47.543 40.675,47.543 40.675,47.543 C40.675,47.543 40.675,31.304 40.675,31.304 C40.675,31.304 55.514,31.304 55.514,31.304 C55.514,31.304 55.514,47.543 55.514,47.543 Z" id="path-1" class="cls-3" fill-rule="evenodd"/>
    <path d="M53.346,31.304 C53.346,31.304 53.346,45.378 53.346,45.378 C53.346,45.378 40.675,45.378 40.675,45.378 C40.675,45.378 40.675,47.543 40.675,47.543 C40.675,47.543 55.514,47.543 55.514,47.543 C55.514,47.543 55.514,31.304 55.514,31.304 C55.514,31.304 53.346,31.304 53.346,31.304 Z" id="path-2" class="cls-4" fill-rule="evenodd"/>
    <path d="M21.587,18.609 C21.587,18.609 8.016,18.609 8.016,18.609 C8.016,18.609 0.004,26.610 0.004,26.610 C0.004,26.610 0.004,59.993 0.004,59.993 C0.004,59.993 29.991,59.993 29.991,59.993 C29.991,59.993 29.991,27.001 29.991,27.001 C29.991,27.001 21.587,18.609 21.587,18.609 Z" id="path-3" class="cls-5" fill-rule="evenodd"/>
    <path d="M21.587,18.609 C21.587,18.609 8.016,18.609 8.016,18.609 C8.016,18.609 5.847,20.774 5.847,20.774 C5.847,20.774 17.251,20.774 17.251,20.774 C17.251,20.774 25.655,29.166 25.655,29.166 C25.655,29.166 25.655,59.993 25.655,59.993 C25.655,59.993 29.991,59.993 29.991,59.993 C29.991,59.993 29.991,27.001 29.991,27.001 C29.991,27.001 21.587,18.609 21.587,18.609 Z" id="path-4" class="cls-6" fill-rule="evenodd"/>
    <path d="M47.417,33.387 C46.865,33.387 46.417,32.940 46.417,32.388 C46.417,32.388 46.417,13.848 46.417,13.848 C46.417,7.311 41.091,1.993 34.543,1.993 C34.543,1.993 22.212,1.993 22.212,1.993 C18.504,1.993 15.488,5.004 15.488,8.706 C15.488,8.706 15.488,18.609 15.488,18.609 C15.488,19.162 15.040,19.609 14.488,19.609 C13.936,19.609 13.488,19.162 13.488,18.609 C13.488,18.609 13.488,8.706 13.488,8.706 C13.488,3.902 17.401,-0.007 22.212,-0.007 C22.212,-0.007 34.543,-0.007 34.543,-0.007 C42.194,-0.007 48.417,6.208 48.417,13.848 C48.417,13.848 48.417,32.388 48.417,32.388 C48.417,32.940 47.970,33.387 47.417,33.387 Z" id="path-5" class="cls-7" fill-rule="evenodd"/>
  </g>
</svg>
