<svg xmlns="http://www.w3.org/2000/svg" xmlns:xlink="http://www.w3.org/1999/xlink" preserveAspectRatio="xMidYMid" width="61" height="60" viewBox="0 0 61 60">
  <defs>
    <style>

      .cls-3 {
        fill: #142a3b;
      }

      .cls-4 {
        fill: #020403;
        opacity: 0.35;
      }

      .cls-5 {
        fill: #fccb56;
      }

      .cls-6 {
        fill: #ffffff;
      }

      .cls-9 {
        fill: #fbb713;
      }
    </style>
  </defs>
  <g id="group-129svg">
    <path d="M55.726,16.463 C55.726,16.463 43.640,4.367 43.640,4.367 C43.640,4.367 48.116,0.733 48.116,0.733 C49.404,-0.313 51.274,-0.216 52.447,0.958 C52.447,0.958 59.049,7.564 59.049,7.564 C60.204,8.721 60.318,10.556 59.315,11.846 C59.315,11.846 55.726,16.463 55.726,16.463 Z" id="path-1" class="cls-3" fill-rule="evenodd"/>
    <path d="M59.310,11.852 C60.314,10.561 60.202,8.724 59.049,7.565 C59.049,7.565 58.982,7.498 58.982,7.498 C58.876,7.739 58.751,7.973 58.584,8.189 C58.584,8.189 56.832,10.443 56.832,10.443 C55.857,11.697 54.003,11.813 52.880,10.689 C52.880,10.689 45.253,3.057 45.253,3.057 C45.253,3.057 43.640,4.367 43.640,4.367 C43.640,4.367 55.726,16.463 55.726,16.463 C55.726,16.463 59.310,11.852 59.310,11.852 Z" id="path-2" class="cls-4" fill-rule="evenodd"/>
    <path d="M22.900,60.009 C22.900,60.009 -0.003,37.090 -0.003,37.090 C-0.003,37.090 5.341,30.214 5.341,30.214 C5.341,30.214 29.770,54.661 29.770,54.661 C29.770,54.661 22.900,60.009 22.900,60.009 Z" id="path-3" class="cls-5" fill-rule="evenodd"/>
    <path d="M50.351,10.620 C50.095,10.620 49.839,10.523 49.644,10.328 C49.253,9.937 49.253,9.304 49.644,8.914 C49.644,8.914 51.965,6.589 51.965,6.589 C52.356,6.199 52.990,6.198 53.379,6.589 C53.770,6.979 53.770,7.612 53.380,8.003 C53.380,8.003 51.059,10.327 51.059,10.327 C50.863,10.522 50.607,10.620 50.351,10.620 Z" id="path-4" class="cls-6" fill-rule="evenodd"/>
    <path d="M47.298,7.564 C47.022,7.564 46.749,7.452 46.551,7.230 C46.184,6.817 46.220,6.185 46.632,5.818 C46.632,5.818 49.089,3.628 49.089,3.628 C49.501,3.260 50.133,3.297 50.501,3.710 C50.868,4.122 50.832,4.754 50.420,5.121 C50.420,5.121 47.963,7.311 47.963,7.311 C47.772,7.481 47.535,7.564 47.298,7.564 Z" id="path-5" class="cls-6" fill-rule="evenodd"/>
    <path d="M53.404,13.676 C53.168,13.676 52.931,13.593 52.740,13.423 C52.328,13.056 52.291,12.424 52.658,12.012 C52.658,12.012 54.845,9.552 54.845,9.552 C55.211,9.140 55.844,9.102 56.256,9.470 C56.669,9.837 56.706,10.469 56.339,10.881 C56.339,10.881 54.152,13.340 54.152,13.340 C53.955,13.563 53.680,13.676 53.404,13.676 Z" id="path-6" class="cls-6" fill-rule="evenodd"/>
    <path d="M28.244,53.133 C28.244,53.133 6.868,31.742 6.868,31.742 C6.868,31.742 31.294,10.175 31.294,10.175 C32.280,9.304 33.550,8.824 34.865,8.824 C34.865,8.824 40.643,8.824 40.643,8.824 C41.503,8.824 42.326,8.482 42.934,7.875 C42.934,7.875 45.039,5.768 45.039,5.768 C45.039,5.768 54.200,14.936 54.200,14.936 C54.200,14.936 52.095,17.042 52.095,17.042 C51.487,17.650 51.146,18.474 51.146,19.334 C51.146,19.334 51.146,25.116 51.146,25.116 C51.146,26.432 50.666,27.703 49.796,28.690 C49.796,28.690 28.244,53.133 28.244,53.133 Z" id="path-7" class="cls-9" fill-rule="evenodd"/>
    <path d="M6.869,31.742 C6.869,31.742 28.251,53.125 28.251,53.125 C28.251,53.125 30.082,51.048 30.082,51.048 C30.082,51.048 7.335,31.416 7.335,31.416 C7.335,31.416 6.869,31.742 6.869,31.742 Z" id="path-8" class="cls-4" fill-rule="evenodd"/>
    <path d="M44.039,6.769 C43.816,6.992 51.555,17.790 51.555,17.790 C51.701,17.520 51.874,17.263 52.095,17.042 C52.095,17.042 54.199,14.936 54.199,14.936 C54.199,14.936 45.035,5.772 45.035,5.772 C45.035,5.772 44.039,6.769 44.039,6.769 Z" id="path-9" class="cls-4" fill-rule="evenodd"/>
  </g>
</svg>
