<svg xmlns="http://www.w3.org/2000/svg" xmlns:xlink="http://www.w3.org/1999/xlink" preserveAspectRatio="xMidYMid" width="54" height="60" viewBox="0 0 54 60">
  <defs>
    <style>

      .cls-3 {
        fill: #142a3b;
      }

      .cls-4 {
        fill: #fbb713;
      }

      .cls-5 {
        fill: #2476ff;
      }

      .cls-6 {
        fill: #020403;
        opacity: 0.35;
      }

      .cls-7 {
        fill: #ffffff;
      }
    </style>
  </defs>
  <g id="group-64svg">
    <path d="M53.319,12.411 C53.319,18.758 48.175,23.902 41.829,23.902 C35.482,23.902 30.338,18.758 30.338,12.411 C30.338,6.066 35.482,0.921 41.829,0.921 C48.175,0.921 53.319,6.066 53.319,12.411 Z" id="path-1" class="cls-3" fill-rule="evenodd"/>
    <path d="M32.419,21.046 C34.864,23.686 38.423,25.258 42.292,25.046 C49.199,24.674 54.513,18.745 54.136,11.838 C53.758,4.932 47.834,-0.383 40.923,-0.006 C34.864,0.325 30.033,4.926 29.189,10.711 C29.189,10.711 31.088,10.711 31.088,10.711 C31.914,5.910 35.961,2.130 41.025,1.855 C46.906,1.533 51.953,6.058 52.271,11.940 C52.597,17.822 48.072,22.864 42.190,23.186 C38.978,23.360 36.020,22.084 33.940,19.935 C33.940,19.935 32.419,21.046 32.419,21.046 Z" id="path-2" class="cls-4" fill-rule="evenodd"/>
    <path d="M38.389,17.118 C42.851,14.465 42.665,11.762 42.627,11.461 C42.627,11.461 42.533,10.711 42.533,10.711 C42.533,10.711 0.091,10.711 0.091,10.711 C0.091,10.711 0.002,11.457 0.002,11.457 C-0.032,11.758 -0.223,14.465 4.239,17.114 C6.837,18.660 14.740,23.356 14.672,26.699 C14.672,26.699 14.672,30.526 14.672,30.526 C14.672,33.640 16.863,36.267 19.783,36.992 C19.783,36.992 19.783,57.077 19.783,57.077 C18.825,57.565 15.409,58.611 11.753,58.967 C8.782,59.565 9.549,59.976 9.549,59.976 C9.549,59.976 19.109,59.976 19.109,59.976 C19.109,59.976 20.698,59.976 20.698,59.976 C20.698,59.976 33.198,59.976 33.198,59.976 C33.198,59.976 33.965,59.565 30.995,58.967 C27.334,58.611 23.923,57.565 22.965,57.077 C22.965,57.077 22.965,36.966 22.965,36.966 C25.821,36.203 27.957,33.597 27.957,30.526 C27.957,30.526 27.957,26.682 27.957,26.682 C27.927,25.171 29.544,23.376 31.560,21.724 C31.560,21.724 37.585,17.594 38.389,17.118 Z" id="path-3" class="cls-5" fill-rule="evenodd"/>
    <path d="M42.627,11.461 C42.627,11.461 42.533,10.711 42.533,10.711 C42.533,10.711 39.696,10.711 39.696,10.711 C39.696,10.711 39.790,11.461 39.790,11.461 C39.828,11.762 40.014,14.465 35.552,17.118 C34.748,17.594 28.723,21.724 28.723,21.724 C26.707,23.376 25.090,25.171 25.120,26.682 C25.120,26.682 25.120,30.526 25.120,30.526 C25.120,33.597 22.984,36.203 20.128,36.966 C20.128,36.966 20.128,57.077 20.128,57.077 C21.085,57.565 24.497,58.611 28.158,58.967 C31.128,59.565 30.361,59.976 30.361,59.976 C30.361,59.976 33.198,59.976 33.198,59.976 C33.198,59.976 33.965,59.565 30.995,58.967 C27.334,58.611 23.923,57.565 22.965,57.077 C22.965,57.077 22.965,36.966 22.965,36.966 C25.821,36.203 27.957,33.597 27.957,30.526 C27.957,30.526 27.957,26.682 27.957,26.682 C27.927,25.171 29.544,23.376 31.560,21.724 C31.560,21.724 37.585,17.594 38.389,17.118 C42.851,14.465 42.665,11.762 42.627,11.461 Z" id="path-4" class="cls-6" fill-rule="evenodd"/>
    <path d="M22.429,36.109 C22.349,36.109 22.268,36.100 22.187,36.079 C18.731,35.221 16.317,32.164 16.317,28.642 C16.317,28.642 16.317,24.816 16.317,24.816 C16.338,23.769 15.078,21.274 6.401,16.107 C6.401,16.107 7.397,14.372 7.397,14.372 C7.397,14.372 6.885,15.231 6.885,15.231 C6.885,15.231 7.425,14.388 7.425,14.388 C12.533,17.430 18.388,21.368 18.317,24.836 C18.317,24.836 18.317,28.642 18.317,28.642 C18.317,31.242 20.107,33.502 22.669,34.138 C23.205,34.272 23.532,34.814 23.399,35.350 C23.286,35.805 22.878,36.109 22.429,36.109 Z" id="path-5" class="cls-7" fill-rule="evenodd"/>
    <path d="M42.055,3.558 C42.055,3.558 42.351,8.995 42.351,8.995 C42.351,8.995 44.809,4.143 44.809,4.143 C43.944,3.812 43.017,3.605 42.055,3.558 Z" id="path-6" class="cls-4" fill-rule="evenodd"/>
    <path d="M48.563,6.868 C47.966,6.134 47.263,5.503 46.470,4.990 C46.470,4.990 44.012,9.838 44.012,9.838 C44.012,9.838 48.563,6.868 48.563,6.868 Z" id="path-7" class="cls-4" fill-rule="evenodd"/>
    <path d="M37.516,4.541 C37.516,4.541 40.487,9.097 40.487,9.097 C40.487,9.097 40.190,3.660 40.190,3.660 C39.237,3.812 38.343,4.118 37.516,4.541 Z" id="path-8" class="cls-4" fill-rule="evenodd"/>
    <path d="M34.080,7.660 C34.080,7.660 38.927,10.118 38.927,10.118 C38.927,10.118 35.957,5.562 35.957,5.562 C35.224,6.160 34.592,6.868 34.080,7.660 Z" id="path-9" class="cls-4" fill-rule="evenodd"/>
    <path d="M38.406,20.898 C39.270,21.228 40.199,21.436 41.161,21.483 C41.161,21.483 40.864,16.046 40.864,16.046 C40.864,16.046 38.406,20.898 38.406,20.898 Z" id="path-10" class="cls-4" fill-rule="evenodd"/>
    <path d="M50.466,11.105 C50.313,10.152 50.008,9.253 49.584,8.431 C49.584,8.431 45.034,11.402 45.034,11.402 C45.034,11.402 50.466,11.105 50.466,11.105 Z" id="path-11" class="cls-4" fill-rule="evenodd"/>
    <path d="M47.258,19.474 C47.991,18.877 48.622,18.173 49.136,17.381 C49.136,17.381 44.288,14.923 44.288,14.923 C44.288,14.923 47.258,19.474 47.258,19.474 Z" id="path-12" class="cls-4" fill-rule="evenodd"/>
    <path d="M49.983,15.719 C50.313,14.855 50.521,13.928 50.567,12.966 C50.567,12.966 45.131,13.262 45.131,13.262 C45.131,13.262 49.983,15.719 49.983,15.719 Z" id="path-13" class="cls-4" fill-rule="evenodd"/>
    <path d="M43.025,21.377 C43.978,21.224 44.877,20.919 45.699,20.496 C45.699,20.496 42.728,15.940 42.728,15.940 C42.728,15.940 43.025,21.377 43.025,21.377 Z" id="path-14" class="cls-4" fill-rule="evenodd"/>
  </g>
</svg>
