<svg xmlns="http://www.w3.org/2000/svg" xmlns:xlink="http://www.w3.org/1999/xlink" preserveAspectRatio="xMidYMid" width="43" height="60" viewBox="0 0 43 60">
  <defs>
    <style>

      .cls-3 {
        fill: #142a3b;
      }

      .cls-4 {
        fill: #ff3a2f;
      }

      .cls-5 {
        fill: #020403;
        opacity: 0.35;
      }

      .cls-8 {
        fill: #ffffff;
      }
    </style>
  </defs>
  <g id="group-94svg">
    <path d="M20.125,15.187 C19.573,15.187 19.125,14.739 19.125,14.187 C19.125,14.187 19.125,5.486 19.125,5.486 C19.125,2.355 21.603,-0.006 24.889,-0.006 C25.441,-0.006 25.889,0.441 25.889,0.994 C25.889,1.546 25.441,1.994 24.889,1.994 C22.743,1.994 21.125,3.495 21.125,5.486 C21.125,5.486 21.125,14.187 21.125,14.187 C21.125,14.739 20.677,15.187 20.125,15.187 Z" id="path-1" class="cls-3" fill-rule="evenodd"/>
    <path d="M21.445,17.587 C22.432,17.587 23.396,17.676 24.348,17.805 C24.348,17.805 24.348,12.227 24.348,12.227 C24.348,12.227 16.299,12.227 16.299,12.227 C16.299,12.227 16.299,17.975 16.299,17.975 C16.299,17.975 17.430,17.975 17.430,17.975 C18.732,17.728 20.071,17.587 21.445,17.587 Z" id="path-2" class="cls-4" fill-rule="evenodd"/>
    <path d="M23.198,12.227 C23.198,12.227 23.198,15.506 23.198,15.506 C22.246,15.377 21.282,15.287 20.296,15.287 C18.928,15.287 17.596,15.428 16.299,15.673 C16.299,15.673 16.299,17.975 16.299,17.975 C16.299,17.975 17.430,17.975 17.430,17.975 C18.732,17.728 20.071,17.587 21.445,17.587 C22.432,17.587 23.396,17.676 24.348,17.805 C24.348,17.805 24.348,12.227 24.348,12.227 C24.348,12.227 23.198,12.227 23.198,12.227 Z" id="path-3" class="cls-5" fill-rule="evenodd"/>
    <path d="M42.884,38.489 C42.884,50.325 33.290,59.928 21.445,59.928 C9.605,59.928 0.007,50.325 0.007,38.489 C0.007,26.649 9.605,17.051 21.445,17.051 C33.290,17.051 42.884,26.649 42.884,38.489 Z" id="path-4" class="cls-3" fill-rule="evenodd"/>
    <path d="M26.449,17.553 C32.833,21.265 37.135,28.163 37.135,36.081 C37.135,47.917 27.542,57.519 15.697,57.519 C13.972,57.519 12.304,57.294 10.698,56.909 C13.860,58.748 17.523,59.819 21.445,59.819 C33.290,59.819 42.884,50.216 42.884,38.380 C42.884,28.265 35.874,19.809 26.449,17.553 Z" id="path-5" class="cls-5" fill-rule="evenodd"/>
    <path d="M6.086,37.190 C5.534,37.190 5.086,36.742 5.086,36.190 C5.086,29.071 10.877,23.280 17.996,23.280 C18.548,23.280 18.996,23.728 18.996,24.280 C18.996,24.832 18.548,25.280 17.996,25.280 C11.980,25.280 7.086,30.174 7.086,36.190 C7.086,36.742 6.638,37.190 6.086,37.190 Z" id="path-6" class="cls-8" fill-rule="evenodd"/>
  </g>
</svg>
