<svg xmlns="http://www.w3.org/2000/svg" xmlns:xlink="http://www.w3.org/1999/xlink" preserveAspectRatio="xMidYMid" width="50" height="60" viewBox="0 0 50 60">
  <defs>
    <style>

      .cls-3 {
        fill: #0cb04a;
      }

      .cls-4 {
        fill: #060606;
        opacity: 0.25;
      }
    </style>
  </defs>
  <g id="group-184svg">
    <path d="M1.259,60.010 C1.049,60.010 0.837,59.956 0.646,59.848 C0.253,59.626 0.009,59.209 0.009,58.759 C0.009,58.759 0.009,1.259 0.009,1.259 C0.009,0.810 0.253,0.392 0.646,0.170 C1.040,-0.049 1.523,-0.045 1.906,0.190 C1.906,0.190 49.541,28.936 49.541,28.936 C49.917,29.160 50.146,29.566 50.146,30.005 C50.146,30.444 49.917,30.850 49.541,31.074 C49.541,31.074 1.906,59.833 1.906,59.833 C1.708,59.951 1.484,60.010 1.259,60.010 Z" id="path-1" class="cls-3" fill-rule="evenodd"/>
    <path d="M49.541,28.936 C49.541,28.936 1.906,0.190 1.906,0.190 C1.695,0.061 1.455,0.008 1.215,0.017 C1.215,0.017 41.904,24.572 41.904,24.572 C42.281,24.796 42.510,25.203 42.510,25.641 C42.510,26.081 42.281,26.487 41.904,26.710 C41.904,26.710 0.009,52.004 0.009,52.004 C0.009,52.004 0.009,58.759 0.009,58.759 C0.009,59.209 0.253,59.626 0.646,59.848 C0.837,59.956 1.049,60.010 1.259,60.010 C1.484,60.010 1.708,59.951 1.906,59.833 C1.906,59.833 49.541,31.074 49.541,31.074 C49.917,30.850 50.146,30.444 50.146,30.005 C50.146,29.566 49.917,29.160 49.541,28.936 Z" id="path-2" class="cls-4" fill-rule="evenodd"/>
  </g>
</svg>
