<svg xmlns="http://www.w3.org/2000/svg" xmlns:xlink="http://www.w3.org/1999/xlink" preserveAspectRatio="xMidYMid" width="57" height="61" viewBox="0 0 57 61">
  <defs>
    <style>

      .cls-3 {
        fill: #142a3b;
      }

      .cls-7 {
        fill: #0cb04a;
      }

      .cls-8 {
        fill: #020403;
        opacity: 0.35;
      }

      .cls-11 {
        fill: #fbb713;
      }

      .cls-14 {
        fill: #ff3a2f;
      }
    </style>
  </defs>
  <g id="group-128svg">
    <path d="M29.510,16.738 C28.958,16.738 28.510,16.291 28.510,15.738 C28.510,15.738 28.510,0.989 28.510,0.989 C28.510,0.437 28.958,-0.011 29.510,-0.011 C30.062,-0.011 30.510,0.437 30.510,0.989 C30.510,0.989 30.510,15.738 30.510,15.738 C30.510,16.291 30.062,16.738 29.510,16.738 Z" id="path-1" class="cls-3" fill-rule="evenodd"/>
    <path d="M29.510,32.964 C28.958,32.964 28.510,32.516 28.510,31.964 C28.510,31.964 28.510,30.060 28.510,30.060 C28.510,29.508 28.958,29.060 29.510,29.060 C30.062,29.060 30.510,29.508 30.510,30.060 C30.510,30.060 30.510,31.964 30.510,31.964 C30.510,32.516 30.062,32.964 29.510,32.964 ZM29.510,28.060 C28.958,28.060 28.510,27.612 28.510,27.060 C28.510,27.060 28.510,22.060 28.510,22.060 C28.510,21.508 28.958,21.060 29.510,21.060 C30.062,21.060 30.510,21.508 30.510,22.060 C30.510,22.060 30.510,27.060 30.510,27.060 C30.510,27.612 30.062,28.060 29.510,28.060 Z" id="path-2" class="cls-3" fill-rule="evenodd"/>
    <path d="M50.582,44.060 C50.029,44.060 49.581,43.612 49.581,43.060 C49.581,43.060 49.581,38.060 49.581,38.060 C49.581,37.508 50.029,37.060 50.582,37.060 C51.134,37.060 51.582,37.508 51.582,38.060 C51.582,38.060 51.582,43.060 51.582,43.060 C51.582,43.612 51.134,44.060 50.582,44.060 ZM50.582,36.060 C50.029,36.060 49.581,35.612 49.581,35.060 C49.581,35.060 49.581,30.060 49.581,30.060 C49.581,29.508 50.029,29.060 50.582,29.060 C51.134,29.060 51.582,29.508 51.582,30.060 C51.582,30.060 51.582,35.060 51.582,35.060 C51.582,35.612 51.134,36.060 50.582,36.060 ZM50.582,28.060 C50.029,28.060 49.581,27.612 49.581,27.060 C49.581,27.060 49.581,22.060 49.581,22.060 C49.581,21.508 50.029,21.060 50.582,21.060 C51.134,21.060 51.582,21.508 51.582,22.060 C51.582,22.060 51.582,27.060 51.582,27.060 C51.582,27.612 51.134,28.060 50.582,28.060 Z" id="path-3" class="cls-3" fill-rule="evenodd"/>
    <path d="M8.439,47.064 C7.887,47.064 7.439,46.616 7.439,46.064 C7.439,45.511 7.887,45.061 8.439,45.061 C8.991,45.061 9.439,45.508 9.439,46.060 C9.439,46.060 9.439,46.064 9.439,46.064 C9.439,46.616 8.991,47.064 8.439,47.064 ZM8.439,44.060 C7.887,44.060 7.439,43.612 7.439,43.060 C7.439,43.060 7.439,38.060 7.439,38.060 C7.439,37.508 7.887,37.060 8.439,37.060 C8.991,37.060 9.439,37.508 9.439,38.060 C9.439,38.060 9.439,43.060 9.439,43.060 C9.439,43.612 8.991,44.060 8.439,44.060 ZM8.439,36.060 C7.887,36.060 7.439,35.612 7.439,35.060 C7.439,35.060 7.439,30.060 7.439,30.060 C7.439,29.508 7.887,29.060 8.439,29.060 C8.991,29.060 9.439,29.508 9.439,30.060 C9.439,30.060 9.439,35.060 9.439,35.060 C9.439,35.612 8.991,36.060 8.439,36.060 ZM8.439,28.060 C7.887,28.060 7.439,27.612 7.439,27.060 C7.439,27.060 7.439,22.060 7.439,22.060 C7.439,21.508 7.887,21.060 8.439,21.060 C8.991,21.060 9.439,21.508 9.439,22.060 C9.439,22.060 9.439,27.060 9.439,27.060 C9.439,27.612 8.991,28.060 8.439,28.060 Z" id="path-4" class="cls-3" fill-rule="evenodd"/>
    <path d="M52.535,47.709 C52.535,47.709 50.582,43.750 50.582,43.750 C50.582,43.750 48.628,47.709 48.628,47.709 C48.628,47.709 44.260,48.343 44.260,48.343 C44.260,48.343 47.421,51.424 47.421,51.424 C47.421,51.424 46.675,55.775 46.675,55.775 C46.675,55.775 50.582,53.721 50.582,53.721 C50.582,53.721 54.488,55.775 54.488,55.775 C54.488,55.775 53.742,51.424 53.742,51.424 C53.742,51.424 56.903,48.343 56.903,48.343 C56.903,48.343 52.535,47.709 52.535,47.709 Z" id="path-5" class="cls-7" fill-rule="evenodd"/>
    <path d="M51.481,48.762 C51.481,48.762 55.825,49.393 55.825,49.393 C55.825,49.393 56.903,48.343 56.903,48.343 C56.903,48.343 52.535,47.709 52.535,47.709 C52.535,47.709 50.582,43.751 50.582,43.751 C50.582,43.751 49.794,45.345 49.794,45.345 C49.794,45.345 51.481,48.762 51.481,48.762 Z" id="path-6" class="cls-8" fill-rule="evenodd"/>
    <path d="M52.688,52.478 C52.688,52.478 53.132,55.062 53.132,55.062 C53.132,55.062 54.488,55.775 54.488,55.775 C54.488,55.775 53.746,51.447 53.746,51.447 C53.746,51.447 52.688,52.478 52.688,52.478 Z" id="path-7" class="cls-8" fill-rule="evenodd"/>
    <path d="M47.574,48.762 C47.574,48.762 48.053,47.792 48.053,47.792 C48.053,47.792 44.260,48.343 44.260,48.343 C44.260,48.343 45.064,49.127 45.064,49.127 C45.064,49.127 47.574,48.762 47.574,48.762 Z" id="path-8" class="cls-8" fill-rule="evenodd"/>
    <path d="M11.043,49.234 C11.043,49.234 8.439,43.957 8.439,43.957 C8.439,43.957 5.834,49.234 5.834,49.234 C5.834,49.234 0.010,50.080 0.010,50.080 C0.010,50.080 4.225,54.188 4.225,54.188 C4.225,54.188 3.229,59.989 3.229,59.989 C3.229,59.989 8.439,57.250 8.439,57.250 C8.439,57.250 13.648,59.989 13.648,59.989 C13.648,59.989 12.653,54.188 12.653,54.188 C12.653,54.188 16.867,50.080 16.867,50.080 C16.867,50.080 11.043,49.234 11.043,49.234 Z" id="path-9" class="cls-11" fill-rule="evenodd"/>
    <path d="M16.867,50.080 C16.867,50.080 11.043,49.234 11.043,49.234 C11.043,49.234 8.439,43.957 8.439,43.957 C8.439,43.957 7.385,46.091 7.385,46.091 C7.385,46.091 8.936,49.234 8.936,49.234 C8.936,49.234 14.760,50.080 14.760,50.080 C14.760,50.080 10.546,54.188 10.546,54.188 C10.546,54.188 11.332,58.771 11.332,58.771 C11.332,58.771 13.648,59.989 13.648,59.989 C13.648,59.989 12.653,54.188 12.653,54.188 C12.653,54.188 16.867,50.080 16.867,50.080 Z" id="path-10" class="cls-8" fill-rule="evenodd"/>
    <path d="M47.875,18.259 C47.715,18.259 47.552,18.220 47.400,18.138 C47.400,18.138 29.510,8.447 29.510,8.447 C29.510,8.447 11.712,18.088 11.712,18.088 C11.226,18.351 10.620,18.170 10.357,17.685 C10.094,17.200 10.274,16.592 10.760,16.329 C10.760,16.329 29.510,6.173 29.510,6.173 C29.510,6.173 48.353,16.379 48.353,16.379 C48.838,16.643 49.019,17.250 48.756,17.735 C48.575,18.069 48.231,18.259 47.875,18.259 Z" id="path-11" class="cls-3" fill-rule="evenodd"/>
    <path d="M11.600,18.900 C11.600,20.645 10.184,22.060 8.438,22.060 C6.693,22.060 5.278,20.645 5.278,18.900 C5.278,17.153 6.693,15.738 8.438,15.738 C10.184,15.738 11.600,17.153 11.600,18.900 Z" id="path-12" class="cls-14" fill-rule="evenodd"/>
    <path d="M32.671,18.900 C32.671,20.645 31.256,22.060 29.510,22.060 C27.765,22.060 26.350,20.645 26.350,18.900 C26.350,17.153 27.765,15.738 29.510,15.738 C31.256,15.738 32.671,17.153 32.671,18.900 Z" id="path-13" class="cls-14" fill-rule="evenodd"/>
    <path d="M31.148,16.208 C31.440,16.687 31.617,17.244 31.617,17.846 C31.617,19.592 30.202,21.007 28.456,21.007 C27.854,21.007 27.298,20.830 26.819,20.537 C27.373,21.447 28.366,22.060 29.510,22.060 C31.256,22.060 32.671,20.645 32.671,18.900 C32.671,17.756 32.058,16.763 31.148,16.208 Z" id="path-14" class="cls-8" fill-rule="evenodd"/>
    <path d="M10.076,16.208 C10.368,16.687 10.546,17.244 10.546,17.846 C10.546,19.592 9.131,21.007 7.385,21.007 C6.783,21.007 6.227,20.830 5.748,20.537 C6.302,21.447 7.295,22.060 8.438,22.060 C10.184,22.060 11.600,20.645 11.600,18.900 C11.600,17.756 10.986,16.763 10.076,16.208 Z" id="path-15" class="cls-8" fill-rule="evenodd"/>
    <path d="M53.742,18.900 C53.742,20.645 52.327,22.060 50.582,22.060 C48.836,22.060 47.421,20.645 47.421,18.900 C47.421,17.153 48.836,15.738 50.582,15.738 C52.327,15.738 53.742,17.153 53.742,18.900 Z" id="path-16" class="cls-14" fill-rule="evenodd"/>
    <path d="M52.219,16.208 C52.511,16.687 52.688,17.244 52.688,17.846 C52.688,19.592 51.273,21.007 49.528,21.007 C48.926,21.007 48.369,20.830 47.890,20.537 C48.445,21.447 49.437,22.060 50.582,22.060 C52.327,22.060 53.742,20.645 53.742,18.900 C53.742,17.756 53.129,16.763 52.219,16.208 Z" id="path-17" class="cls-8" fill-rule="evenodd"/>
    <path d="M36.665,34.469 C36.665,32.305 34.910,30.550 32.745,30.550 C31.429,30.550 30.268,31.201 29.557,32.196 C28.846,31.201 27.684,30.550 26.368,30.550 C24.203,30.550 22.448,32.305 22.448,34.469 C22.448,35.361 26.161,40.404 29.478,43.373 C32.464,39.889 36.665,35.596 36.665,34.469 Z" id="path-18" class="cls-14" fill-rule="evenodd"/>
    <path d="M28.558,33.153 C28.837,32.762 29.188,32.427 29.589,32.161 C28.725,31.341 27.903,30.550 26.368,30.550 C25.930,30.550 25.516,30.638 25.122,30.771 C26.194,30.932 27.954,32.309 28.558,33.153 Z" id="path-19" class="cls-8" fill-rule="evenodd"/>
    <path d="M32.745,30.550 C32.289,30.550 31.853,30.632 31.447,30.776 C33.358,31.037 34.836,32.659 34.836,34.642 C34.836,35.659 31.419,39.252 28.558,42.504 C28.866,42.807 29.174,43.101 29.478,43.373 C32.464,39.889 36.665,35.596 36.665,34.470 C36.665,32.305 34.910,30.550 32.745,30.550 Z" id="path-20" class="cls-8" fill-rule="evenodd"/>
    <path d="M6.332,57.250 C6.332,57.250 3.438,58.771 3.438,58.771 C3.438,58.771 3.229,59.989 3.229,59.989 C3.229,59.989 7.385,57.804 7.385,57.804 C7.385,57.804 6.332,57.250 6.332,57.250 Z" id="path-21" class="cls-8" fill-rule="evenodd"/>
  </g>
</svg>
