<svg xmlns="http://www.w3.org/2000/svg" xmlns:xlink="http://www.w3.org/1999/xlink" preserveAspectRatio="xMidYMid" width="47" height="61" viewBox="0 0 47 61">
  <defs>
    <style>

      .cls-3 {
        fill: #ff3a2f;
      }

      .cls-4 {
        fill: #020403;
        opacity: 0.35;
      }

      .cls-5 {
        fill: #2476ff;
      }

      .cls-7 {
        fill: #ffffff;
      }
    </style>
  </defs>
  <g id="group-73svg">
    <path d="M31.011,52.990 C31.053,52.990 31.098,52.987 31.141,52.982 C36.143,52.483 40.182,50.325 42.816,46.743 C45.970,42.453 46.921,36.279 45.491,29.355 C43.877,21.499 38.086,12.831 32.488,4.449 C31.607,3.126 30.734,1.819 29.891,0.534 C29.416,-0.187 28.224,-0.182 27.755,0.534 C26.894,1.849 26.001,3.184 25.100,4.534 C23.301,7.228 21.460,9.985 19.749,12.742 C19.749,12.742 31.011,52.990 31.011,52.990 Z" id="path-1" class="cls-3" fill-rule="evenodd"/>
    <path d="M25.352,10.249 C24.666,9.220 23.995,8.209 23.330,7.201 C22.112,9.038 20.901,10.886 19.749,12.742 C19.749,12.742 31.011,52.990 31.011,52.990 C31.053,52.990 31.098,52.987 31.141,52.982 C32.953,52.801 34.634,52.396 36.172,51.791 C38.919,47.542 39.711,41.721 38.358,35.158 C36.739,27.306 30.951,18.634 25.352,10.249 Z" id="path-2" class="cls-4" fill-rule="evenodd"/>
    <path d="M17.326,59.995 C11.543,59.995 6.862,57.999 3.786,54.225 C0.269,49.906 -0.844,43.524 0.658,36.251 C2.272,28.400 8.058,19.735 13.653,11.354 C14.540,10.030 15.413,8.717 16.258,7.430 C16.727,6.712 17.925,6.712 18.394,7.430 C19.235,8.714 20.108,10.020 20.989,11.340 C26.587,19.725 32.375,28.397 33.995,36.249 C35.494,43.526 34.381,49.910 30.861,54.227 C27.787,58.002 23.107,59.995 17.326,59.995 Z" id="path-3" class="cls-5" fill-rule="evenodd"/>
    <path d="M33.995,36.249 C32.375,28.397 26.587,19.725 20.989,11.340 C20.108,10.020 19.235,8.714 18.394,7.430 C17.925,6.712 16.727,6.712 16.259,7.430 C15.778,8.162 15.274,8.915 14.778,9.660 C20.271,17.889 25.862,26.372 27.449,34.067 C28.949,41.345 27.836,47.729 24.315,52.045 C21.242,55.820 16.561,57.813 10.781,57.813 C9.715,57.813 8.701,57.723 7.713,57.589 C10.380,59.168 13.623,59.996 17.326,59.996 C23.107,59.996 27.787,58.002 30.861,54.227 C34.381,49.910 35.494,43.526 33.995,36.249 Z" id="path-4" class="cls-4" fill-rule="evenodd"/>
    <path d="M10.126,51.840 C9.283,51.840 8.497,51.465 7.968,50.811 C5.499,47.780 4.779,42.994 5.945,37.341 C6.112,36.530 6.903,36.005 7.717,36.174 C8.528,36.341 9.050,37.134 8.883,37.947 C7.914,42.648 8.394,46.512 10.236,48.844 C11.013,48.901 11.626,49.549 11.626,50.340 C11.626,51.168 10.955,51.840 10.126,51.840 Z" id="path-5" class="cls-7" fill-rule="evenodd"/>
  </g>
</svg>
