<svg xmlns="http://www.w3.org/2000/svg" xmlns:xlink="http://www.w3.org/1999/xlink" preserveAspectRatio="xMidYMid" width="33" height="60" viewBox="0 0 33 60">
  <defs>
    <style>

      .cls-3 {
        fill: #fbb713;
      }

      .cls-4 {
        fill: #020403;
        opacity: 0.25;
      }

      .cls-5 {
        fill: #2476ff;
      }
    </style>
  </defs>
  <g id="group-125svg">
    <path d="M12.380,42.430 C12.380,42.430 0.015,42.430 0.015,42.430 C0.015,42.430 0.015,15.892 0.015,15.892 C0.015,15.892 12.380,15.892 12.380,15.892 C12.380,15.892 12.380,42.430 12.380,42.430 Z" id="path-1" class="cls-3" fill-rule="evenodd"/>
    <path d="M1.420,15.892 C1.420,15.892 0.015,15.892 0.015,15.892 C0.015,15.892 0.015,42.430 0.015,42.430 C0.015,42.430 12.380,42.430 12.380,42.430 C12.380,42.430 12.380,15.892 12.380,15.892 C12.380,15.892 10.227,35.664 10.227,35.664 C9.868,38.222 6.672,39.218 4.947,37.296 C3.933,36.166 1.420,15.892 1.420,15.892 Z" id="path-2" class="cls-4" fill-rule="evenodd"/>
    <path d="M12.882,15.892 C12.882,15.892 12.380,15.892 12.380,15.892 C12.380,15.892 12.380,42.511 12.380,42.511 C12.380,42.511 33.014,59.993 33.014,59.993 C33.014,59.993 33.014,-0.006 33.014,-0.006 C33.014,-0.006 12.882,15.892 12.882,15.892 Z" id="path-3" class="cls-5" fill-rule="evenodd"/>
    <path d="M28.611,3.471 C28.611,3.471 28.611,40.743 28.611,40.743 C28.611,43.910 24.905,45.628 22.488,43.580 C22.488,43.580 12.380,35.016 12.380,35.016 C12.380,35.016 12.380,42.511 12.380,42.511 C12.380,42.511 33.014,59.993 33.014,59.993 C33.014,59.993 33.014,-0.006 33.014,-0.006 C33.014,-0.006 28.611,3.471 28.611,3.471 Z" id="path-4" class="cls-4" fill-rule="evenodd"/>
  </g>
</svg>
