<svg xmlns="http://www.w3.org/2000/svg" xmlns:xlink="http://www.w3.org/1999/xlink" preserveAspectRatio="xMidYMid" width="60" height="61" viewBox="0 0 60 61">
  <defs>
    <style>

      .cls-3 {
        fill: #098136;
      }

      .cls-5 {
        fill: #142a3b;
      }

      .cls-6 {
        fill: #0cb04a;
      }

      .cls-7 {
        fill: #ffe56d;
      }
    </style>
  </defs>
  <g id="group-14svg">
    <path d="M50.561,15.765 C50.561,15.765 50.561,52.885 50.561,52.885 C50.561,56.820 47.347,60.011 43.382,60.011 C43.382,60.011 47.325,60.011 47.325,60.011 C51.290,60.011 54.504,56.820 54.504,52.885 C54.504,52.885 54.504,15.765 54.504,15.765 C54.504,15.765 50.561,15.765 50.561,15.765 Z" id="path-1" class="cls-3" fill-rule="evenodd"/>
    <path d="M54.504,14.244 C54.504,14.244 54.504,12.701 54.504,12.701 C54.504,8.766 51.290,5.576 47.325,5.576 C47.325,5.576 43.382,5.576 43.382,5.576 C47.347,5.576 50.561,8.766 50.561,12.701 C50.561,12.701 50.561,14.407 50.561,14.407 C50.561,14.407 50.561,14.407 50.561,14.407 " id="path-2" class="cls-3" fill-rule="evenodd"/>
    <path d="M57.698,15.724 C57.698,15.724 0.989,15.724 0.989,15.724 C0.436,15.724 -0.011,15.276 -0.011,14.724 C-0.011,14.724 -0.011,0.010 -0.011,0.010 C-0.011,0.010 1.989,0.010 1.989,0.010 C1.989,0.010 1.989,13.724 1.989,13.724 C1.989,13.724 56.698,13.724 56.698,13.724 C56.698,13.724 56.698,0.010 56.698,0.010 C56.698,0.010 58.698,0.010 58.698,0.010 C58.698,0.010 58.698,14.724 58.698,14.724 C58.698,15.276 58.250,15.724 57.698,15.724 Z" id="path-3" class="cls-5" fill-rule="evenodd"/>
    <path d="M45.099,60.011 C45.099,60.011 13.588,60.011 13.588,60.011 C10.571,60.011 8.125,57.565 8.125,54.547 C8.125,54.547 8.125,11.038 8.125,11.038 C8.125,8.021 10.571,5.576 13.588,5.576 C13.588,5.576 45.099,5.576 45.099,5.576 C48.116,5.576 50.561,8.021 50.561,11.038 C50.561,11.038 50.561,54.547 50.561,54.547 C50.561,57.565 48.116,60.011 45.099,60.011 Z" id="path-4" class="cls-6" fill-rule="evenodd"/>
    <path d="M48.712,43.011 C48.712,43.011 9.975,43.011 9.975,43.011 C9.423,43.011 8.975,42.563 8.975,42.011 C8.975,41.459 9.423,41.011 9.975,41.011 C9.975,41.011 48.712,41.011 48.712,41.011 C49.264,41.011 49.712,41.459 49.712,42.011 C49.712,42.563 49.264,43.011 48.712,43.011 Z" id="path-5" class="cls-7" fill-rule="evenodd"/>
    <path d="M48.712,52.141 C48.712,52.141 9.975,52.141 9.975,52.141 C9.423,52.141 8.975,51.694 8.975,51.141 C8.975,50.589 9.423,50.141 9.975,50.141 C9.975,50.141 48.712,50.141 48.712,50.141 C49.264,50.141 49.712,50.589 49.712,51.141 C49.712,51.694 49.264,52.141 48.712,52.141 Z" id="path-6" class="cls-7" fill-rule="evenodd"/>
  </g>
</svg>
