<svg xmlns="http://www.w3.org/2000/svg" xmlns:xlink="http://www.w3.org/1999/xlink" preserveAspectRatio="xMidYMid" width="60" height="42" viewBox="0 0 60 42">
  <defs>
    <style>

      .cls-3 {
        fill: #fbb713;
      }

      .cls-4 {
        fill: #ffffff;
      }

      .cls-5 {
        fill: #ff3a2f;
      }

      .cls-6 {
        fill: #020403;
        opacity: 0.25;
      }

      .cls-7 {
        fill: #c02c24;
      }

      .cls-9 {
        fill: #142a3b;
      }
    </style>
  </defs>
  <g id="group-85svg">
    <path d="M29.809,12.217 C15.542,12.217 3.977,23.881 3.977,38.049 C3.977,38.049 55.640,38.049 55.640,38.049 C55.640,23.881 44.075,12.217 29.809,12.217 Z" id="path-1" class="cls-3" fill-rule="evenodd"/>
    <path d="M9.986,33.985 C9.434,33.985 8.986,33.537 8.986,32.984 C8.986,23.775 16.478,16.282 25.688,16.282 C26.241,16.282 26.688,16.729 26.688,17.282 C26.688,17.834 26.241,18.282 25.688,18.282 C17.582,18.282 10.986,24.877 10.986,32.984 C10.986,33.537 10.538,33.985 9.986,33.985 Z" id="path-2" class="cls-4" fill-rule="evenodd"/>
    <path d="M35.210,5.387 C35.210,8.370 32.791,10.789 29.809,10.789 C26.826,10.789 24.407,8.370 24.407,5.387 C24.407,2.404 26.826,-0.013 29.809,-0.013 C32.791,-0.013 35.210,2.404 35.210,5.387 Z" id="path-3" class="cls-5" fill-rule="evenodd"/>
    <path d="M41.103,14.830 C42.239,15.824 43.289,16.916 44.237,18.090 C49.481,24.584 44.770,34.271 36.424,34.271 C36.424,34.271 4.258,34.271 4.258,34.271 C4.075,35.506 3.977,36.766 3.977,38.049 C3.977,38.049 55.640,38.049 55.640,38.049 C55.640,27.904 49.709,19.045 41.103,14.830 Z" id="path-4" class="cls-6" fill-rule="evenodd"/>
    <path d="M32.561,0.746 C33.040,1.553 33.321,2.492 33.321,3.498 C33.321,6.482 30.902,8.899 27.919,8.899 C26.913,8.899 25.974,8.619 25.167,8.140 C26.108,9.724 27.832,10.789 29.809,10.789 C32.791,10.789 35.210,8.370 35.210,5.387 C35.210,3.411 34.145,1.688 32.561,0.746 Z" id="path-5" class="cls-7" fill-rule="evenodd"/>
    <path d="M29.062,4.767 C28.473,5.357 27.517,5.357 26.927,4.767 C26.338,4.177 26.338,3.222 26.927,2.631 C27.517,2.042 28.473,2.042 29.062,2.631 C29.652,3.222 29.652,4.177 29.062,4.767 Z" id="path-6" class="cls-4" fill-rule="evenodd"/>
    <path d="M59.986,41.659 C59.986,41.659 -0.014,41.659 -0.014,41.659 C-0.014,41.659 -0.014,38.076 -0.014,38.076 C-0.014,38.076 59.986,38.076 59.986,38.076 C59.986,38.076 59.986,41.659 59.986,41.659 Z" id="path-7" class="cls-9" fill-rule="evenodd"/>
  </g>
</svg>
