<svg xmlns="http://www.w3.org/2000/svg" xmlns:xlink="http://www.w3.org/1999/xlink" preserveAspectRatio="xMidYMid" width="61" height="59" viewBox="0 0 61 59">
  <defs>
    <style>

      .cls-3 {
        fill: #0cb04a;
      }

      .cls-4 {
        fill: #020403;
        opacity: 0.35;
      }

      .cls-5 {
        fill: #142a3b;
      }
    </style>
  </defs>
  <g id="group-118svg">
    <path d="M57.253,51.023 C57.253,51.023 56.465,51.023 56.465,51.023 C56.667,50.463 56.787,49.836 56.787,49.151 C56.787,46.781 55.470,44.994 53.723,44.994 C53.723,44.994 42.083,44.994 42.083,44.994 C40.368,44.994 39.021,46.818 39.021,49.151 C39.021,49.830 39.147,50.460 39.355,51.023 C39.355,51.023 38.552,51.023 38.552,51.023 C36.979,51.023 35.793,52.720 35.793,54.972 C35.793,57.224 36.979,58.920 38.552,58.920 C38.552,58.920 57.253,58.920 57.253,58.920 C58.827,58.920 60.014,57.224 60.014,54.972 C60.014,52.720 58.827,51.023 57.253,51.023 Z" id="path-1" class="cls-3" fill-rule="evenodd"/>
    <path d="M57.253,51.024 C57.253,51.024 56.465,51.024 56.465,51.024 C56.667,50.463 56.787,49.836 56.787,49.151 C56.787,46.781 55.470,44.994 53.723,44.994 C53.723,44.994 42.083,44.994 42.083,44.994 C41.289,44.994 40.581,45.397 40.042,46.050 C40.042,46.050 50.554,46.050 50.554,46.050 C52.300,46.050 53.617,47.837 53.617,50.207 C53.617,50.892 53.497,51.519 53.296,52.080 C53.296,52.080 54.084,52.080 54.084,52.080 C55.658,52.080 56.844,53.777 56.844,56.028 C56.844,57.197 56.519,58.210 55.992,58.920 C55.992,58.920 57.253,58.920 57.253,58.920 C58.827,58.920 60.014,57.224 60.014,54.972 C60.014,52.720 58.827,51.024 57.253,51.024 Z" id="path-2" class="cls-4" fill-rule="evenodd"/>
    <path d="M38.141,35.293 C38.141,35.293 41.759,38.784 41.759,38.784 C41.755,38.855 41.740,38.924 41.740,38.995 C41.740,40.058 42.158,41.063 42.917,41.821 C43.678,42.581 44.682,42.999 45.746,42.999 C46.780,42.999 47.749,42.599 48.475,41.875 C48.475,41.875 56.423,33.926 56.423,33.926 C57.150,33.202 57.550,32.231 57.550,31.198 C57.550,30.133 57.132,29.128 56.371,28.368 C55.611,27.604 54.567,27.228 53.530,27.231 C53.530,27.231 48.829,22.692 48.829,22.692 C48.771,22.586 48.717,22.477 48.624,22.384 C48.624,22.384 34.888,8.648 34.888,8.648 C34.858,8.616 34.817,8.606 34.785,8.578 C34.785,8.578 30.538,4.477 30.538,4.477 C30.476,4.417 30.396,4.383 30.325,4.338 C30.344,4.170 30.374,4.005 30.374,3.832 C30.374,2.795 29.972,1.824 29.248,1.101 C27.771,-0.378 25.172,-0.347 23.668,1.163 C23.668,1.163 15.419,9.415 15.419,9.415 C14.651,10.178 14.228,11.191 14.228,12.260 C14.228,13.297 14.627,14.268 15.353,14.995 C16.076,15.718 17.046,16.118 18.084,16.118 C18.309,16.118 18.528,16.089 18.745,16.052 C18.811,16.188 18.889,16.316 19.002,16.426 C19.002,16.426 23.320,20.598 23.320,20.598 C23.378,20.651 23.450,20.680 23.514,20.723 C23.514,20.723 27.929,25.139 27.929,25.139 C27.929,25.139 0.396,52.669 0.396,52.669 C0.151,52.914 0.014,53.245 0.014,53.593 C0.014,53.939 0.151,54.269 0.396,54.515 C0.396,54.515 4.421,58.539 4.421,58.539 C4.676,58.793 5.009,58.920 5.342,58.920 C5.677,58.920 6.011,58.793 6.267,58.539 C6.267,58.539 33.799,31.009 33.799,31.009 C33.799,31.009 37.982,35.186 37.982,35.186 C38.029,35.234 38.090,35.256 38.141,35.293 Z" id="path-3" class="cls-5" fill-rule="evenodd"/>
    <path d="M18.084,16.118 C18.309,16.118 18.529,16.089 18.745,16.052 C18.811,16.188 18.889,16.316 19.002,16.426 C19.002,16.426 23.320,20.598 23.320,20.598 C23.378,20.651 23.450,20.680 23.514,20.723 C23.514,20.723 27.929,25.138 27.929,25.138 C27.929,25.138 30.570,22.497 30.570,22.497 C30.570,22.497 23.514,15.440 23.514,15.440 C23.450,15.398 23.378,15.369 23.320,15.316 C23.320,15.316 19.002,11.143 19.002,11.143 C18.889,11.034 18.811,10.906 18.745,10.770 C18.529,10.807 18.309,10.836 18.084,10.836 C17.046,10.836 16.076,10.436 15.353,9.713 C15.319,9.679 15.295,9.638 15.263,9.603 C14.602,10.342 14.228,11.272 14.228,12.260 C14.228,13.297 14.627,14.268 15.353,14.995 C16.076,15.718 17.046,16.118 18.084,16.118 Z" id="path-4" class="cls-4" fill-rule="evenodd"/>
    <path d="M56.423,28.644 C56.423,28.644 48.475,36.593 48.475,36.593 C47.748,37.317 46.780,37.717 45.746,37.717 C44.682,37.717 43.678,37.299 42.917,36.538 C42.158,35.781 41.740,34.776 41.740,33.713 C41.740,33.641 41.755,33.573 41.759,33.502 C41.759,33.502 38.141,30.011 38.141,30.011 C38.090,29.974 38.029,29.952 37.982,29.904 C37.982,29.904 33.799,25.726 33.799,25.726 C33.799,25.726 6.267,53.256 6.267,53.256 C6.011,53.511 5.677,53.638 5.342,53.638 C5.009,53.638 4.676,53.511 4.421,53.256 C4.421,53.256 2.115,50.950 2.115,50.950 C2.115,50.950 0.396,52.669 0.396,52.669 C0.151,52.914 0.014,53.245 0.014,53.593 C0.014,53.939 0.151,54.269 0.396,54.515 C0.396,54.515 4.421,58.538 4.421,58.538 C4.676,58.793 5.009,58.920 5.342,58.920 C5.677,58.920 6.011,58.793 6.267,58.538 C6.267,58.538 33.799,31.009 33.799,31.009 C33.799,31.009 37.982,35.186 37.982,35.186 C38.029,35.235 38.090,35.256 38.141,35.293 C38.141,35.293 41.759,38.784 41.759,38.784 C41.755,38.855 41.740,38.924 41.740,38.995 C41.740,40.058 42.158,41.063 42.917,41.821 C43.678,42.581 44.682,42.999 45.746,42.999 C46.780,42.999 47.748,42.599 48.475,41.875 C48.475,41.875 56.423,33.926 56.423,33.926 C57.150,33.202 57.550,32.231 57.550,31.198 C57.550,30.206 57.175,29.276 56.511,28.538 C56.479,28.572 56.456,28.611 56.423,28.644 Z" id="path-5" class="cls-4" fill-rule="evenodd"/>
  </g>
</svg>
