<svg xmlns="http://www.w3.org/2000/svg" xmlns:xlink="http://www.w3.org/1999/xlink" preserveAspectRatio="xMidYMid" width="58" height="61" viewBox="0 0 58 61">
  <defs>
    <style>

      .cls-3 {
        fill: #0cb04a;
      }

      .cls-7 {
        fill: #020403;
        opacity: 0.35;
      }

      .cls-8 {
        fill: #ff3a2f;
      }

      .cls-9 {
        fill: #ffffff;
      }
    </style>
  </defs>
  <g id="group-44svg">
    <path d="M57.334,21.920 C57.334,23.587 55.983,24.939 54.316,24.939 C52.648,24.939 51.297,23.587 51.297,21.920 C51.297,20.253 52.648,18.902 54.316,18.902 C55.983,18.902 57.334,20.253 57.334,21.920 Z" id="path-1" class="cls-3" fill-rule="evenodd"/>
    <path d="M9.060,3.007 C9.060,4.674 7.708,6.025 6.040,6.025 C4.373,6.025 3.022,4.674 3.022,3.007 C3.022,1.340 4.373,-0.012 6.040,-0.012 C7.708,-0.012 9.060,1.340 9.060,3.007 Z" id="path-2" class="cls-3" fill-rule="evenodd"/>
    <path d="M40.166,49.013 C40.166,49.013 46.873,49.013 46.873,49.013 C46.873,49.013 46.873,31.941 46.873,31.941 C46.873,31.941 40.166,31.941 40.166,31.941 C40.166,31.941 37.664,31.941 37.664,31.941 C37.664,31.941 37.664,36.009 37.664,36.009 C37.664,36.009 43.278,36.009 43.278,36.009 C43.278,36.009 43.278,45.358 43.278,45.358 C43.278,45.358 37.664,45.358 37.664,45.358 C37.664,45.358 37.664,49.013 37.664,49.013 C37.664,49.013 40.166,49.013 40.166,49.013 Z" id="path-3" class="cls-3" fill-rule="evenodd"/>
    <path d="M38.337,24.015 C38.337,24.015 38.337,54.048 38.337,54.048 C38.337,57.192 36.227,59.988 33.083,59.988 C33.083,59.988 13.154,59.988 13.154,59.988 C10.010,59.988 7.851,57.192 7.851,54.048 C7.851,54.048 7.851,24.015 7.851,24.015 C7.851,24.015 38.337,24.015 38.337,24.015 Z" id="path-4" class="cls-3" fill-rule="evenodd"/>
    <path d="M38.337,24.015 C38.337,24.015 32.240,24.015 32.240,24.015 C32.240,24.015 32.240,26.827 32.240,26.827 C31.681,26.431 31.164,25.977 30.710,25.465 C29.083,27.302 26.714,28.466 24.067,28.466 C20.845,28.466 18.032,26.744 16.476,24.175 C14.919,26.744 12.106,28.466 8.884,28.466 C8.534,28.466 8.190,28.440 7.851,28.400 C7.851,28.400 7.851,33.331 7.851,33.331 C10.994,33.265 13.730,31.571 15.256,29.053 C16.812,31.621 19.625,33.344 22.848,33.344 C25.495,33.344 27.864,32.179 29.491,30.343 C30.257,31.208 31.193,31.916 32.240,32.432 C32.240,32.432 32.240,54.048 32.240,54.048 C32.240,57.192 30.130,59.988 26.986,59.988 C26.986,59.988 33.083,59.988 33.083,59.988 C36.227,59.988 38.337,57.192 38.337,54.048 C38.337,54.048 38.337,33.057 38.337,33.057 C38.337,33.057 38.337,28.400 38.337,28.400 C38.337,28.400 38.337,24.015 38.337,24.015 Z" id="path-5" class="cls-7" fill-rule="evenodd"/>
    <path d="M37.353,11.924 C34.707,11.924 31.364,13.648 31.206,13.494 C33.153,12.493 33.540,11.418 33.540,9.077 C33.540,5.745 30.838,3.043 27.506,3.043 C24.174,3.043 21.473,5.745 21.473,9.077 C21.473,9.475 18.729,7.788 16.739,7.788 C13.979,7.788 11.658,9.643 10.940,12.173 C10.279,12.016 9.593,11.924 8.884,11.924 C3.979,11.924 0.003,15.900 0.003,20.805 C0.003,25.709 3.979,29.685 8.884,29.685 C12.106,29.685 14.919,27.963 16.476,25.395 C18.032,27.963 20.845,29.685 24.067,29.685 C26.714,29.685 29.083,28.521 30.710,26.684 C32.337,28.521 34.707,29.685 37.353,29.685 C42.258,29.685 46.234,25.709 46.234,20.805 C46.234,15.900 42.258,11.924 37.353,11.924 Z" id="path-6" class="cls-8" fill-rule="evenodd"/>
    <path d="M3.250,23.571 C3.213,23.571 3.176,23.570 3.139,23.566 C2.590,23.505 2.194,23.011 2.254,22.462 C2.559,19.704 4.024,17.185 6.274,15.552 C6.722,15.227 7.347,15.326 7.671,15.773 C7.996,16.219 7.896,16.845 7.450,17.170 C5.654,18.473 4.485,20.483 4.243,22.681 C4.186,23.193 3.753,23.571 3.250,23.571 Z" id="path-7" class="cls-9" fill-rule="evenodd"/>
    <path d="M13.381,13.337 C13.151,13.337 12.919,13.258 12.731,13.096 C12.311,12.737 12.263,12.106 12.622,11.686 C13.959,10.124 15.905,9.227 17.959,9.227 C18.511,9.227 18.959,9.675 18.959,10.227 C18.959,10.779 18.511,11.227 17.959,11.227 C16.490,11.227 15.098,11.869 14.141,12.987 C13.943,13.218 13.663,13.337 13.381,13.337 Z" id="path-8" class="cls-9" fill-rule="evenodd"/>
    <path d="M14.037,24.175 C12.480,26.744 9.667,28.466 6.445,28.466 C5.509,28.466 4.608,28.320 3.761,28.051 C5.209,29.077 6.974,29.685 8.884,29.685 C11.713,29.685 14.225,28.357 15.850,26.295 C15.143,25.685 14.523,24.978 14.037,24.175 Z" id="path-9" class="cls-7" fill-rule="evenodd"/>
    <path d="M31.101,7.858 C31.101,10.199 30.715,11.274 28.767,12.275 C28.895,12.400 31.138,11.279 33.396,10.860 C33.497,10.354 33.539,9.778 33.539,9.077 C33.539,6.218 31.546,3.837 28.876,3.214 C30.224,4.320 31.101,5.978 31.101,7.858 Z" id="path-10" class="cls-7" fill-rule="evenodd"/>
    <path d="M28.271,25.465 C26.644,27.302 24.275,28.466 21.629,28.466 C20.688,28.466 19.789,28.304 18.939,28.032 C20.388,29.066 22.151,29.685 24.067,29.685 C26.485,29.685 28.665,28.707 30.266,27.138 C29.522,26.678 28.849,26.117 28.271,25.465 Z" id="path-11" class="cls-7" fill-rule="evenodd"/>
    <path d="M40.037,12.339 C42.309,13.948 43.795,16.590 43.795,19.585 C43.795,24.490 39.819,28.466 34.915,28.466 C33.980,28.466 33.082,28.314 32.237,28.045 C33.684,29.072 35.444,29.685 37.353,29.685 C42.258,29.685 46.234,25.709 46.234,20.805 C46.234,16.836 43.630,13.477 40.037,12.339 Z" id="path-12" class="cls-7" fill-rule="evenodd"/>
    <path d="M18.826,55.500 C18.274,55.500 17.826,55.053 17.826,54.500 C17.826,54.500 17.826,34.989 17.826,34.989 C17.826,34.437 18.274,33.989 18.826,33.989 C19.378,33.989 19.826,34.437 19.826,34.989 C19.826,34.989 19.826,54.500 19.826,54.500 C19.826,55.053 19.378,55.500 18.826,55.500 Z" id="path-13" class="cls-7" fill-rule="evenodd"/>
    <path d="M27.362,55.500 C26.810,55.500 26.362,55.053 26.362,54.500 C26.362,54.500 26.362,34.989 26.362,34.989 C26.362,34.437 26.810,33.989 27.362,33.989 C27.915,33.989 28.362,34.437 28.362,34.989 C28.362,34.989 28.362,54.500 28.362,54.500 C28.362,55.053 27.915,55.500 27.362,55.500 Z" id="path-14" class="cls-7" fill-rule="evenodd"/>
  </g>
</svg>
