<svg xmlns="http://www.w3.org/2000/svg" xmlns:xlink="http://www.w3.org/1999/xlink" preserveAspectRatio="xMidYMid" width="60" height="61" viewBox="0 0 60 61">
  <defs>
    <style>

      .cls-3 {
        fill: #0cb04a;
      }

      .cls-5 {
        fill: #000000;
        opacity: 0.35;
      }
    </style>
  </defs>
  <g id="group-314svg">
    <path d="M20.868,0.009 C20.868,0.009 -0.002,5.226 -0.002,5.226 C-0.002,5.226 -0.002,54.791 -0.002,54.791 C-0.002,54.791 20.868,49.574 20.868,49.574 C20.868,49.574 39.128,60.008 39.128,60.008 C39.128,60.008 59.998,54.791 59.998,54.791 C59.998,54.791 59.998,5.226 59.998,5.226 C59.998,5.226 39.128,10.443 39.128,10.443 C39.128,10.443 20.868,0.009 20.868,0.009 C20.868,0.009 20.868,0.009 20.868,0.009 Z" id="path-1" class="cls-3" fill-rule="evenodd"/>
    <path d="M39.128,60.008 C39.128,60.008 39.128,10.443 39.128,10.443 C39.128,10.443 20.868,0.009 20.868,0.009 C20.868,0.009 20.868,49.574 20.868,49.574 C20.868,49.574 39.128,60.008 39.128,60.008 Z" id="path-2" class="cls-3" fill-rule="evenodd"/>
    <path d="M39.128,60.008 C39.128,60.008 39.128,10.443 39.128,10.443 C39.128,10.443 20.868,0.009 20.868,0.009 C20.868,0.009 20.868,49.574 20.868,49.574 C20.868,49.574 39.128,60.008 39.128,60.008 Z" id="path-3" class="cls-5" fill-rule="evenodd"/>
  </g>
</svg>
