<svg xmlns="http://www.w3.org/2000/svg" xmlns:xlink="http://www.w3.org/1999/xlink" preserveAspectRatio="xMidYMid" width="57" height="60" viewBox="0 0 57 60">
  <defs>
    <style>

      .cls-3 {
        fill: #ff3a2f;
      }

      .cls-4 {
        fill: #020403;
        opacity: 0.35;
      }

      .cls-5 {
        fill: #fbb713;
      }

      .cls-8 {
        fill: #142a3b;
      }
    </style>
  </defs>
  <g id="group-140svg">
    <path d="M36.676,55.121 C36.676,55.121 6.167,55.121 6.167,55.121 C6.167,55.121 6.167,34.673 6.167,34.673 C6.167,34.673 36.676,34.673 36.676,34.673 C36.676,34.673 36.676,55.121 36.676,55.121 Z" id="path-1" class="cls-3" fill-rule="evenodd"/>
    <path d="M30.098,42.225 C30.098,42.225 30.098,48.262 30.098,48.262 C30.098,48.262 13.069,48.262 13.069,48.262 C13.069,48.262 13.069,51.313 13.069,51.313 C13.069,51.313 34.166,51.313 34.166,51.313 C34.166,51.313 34.166,42.225 34.166,42.225 C34.166,42.225 30.098,42.225 30.098,42.225 Z" id="path-2" class="cls-4" fill-rule="evenodd"/>
    <path d="M32.132,49.279 C32.132,49.279 11.036,49.279 11.036,49.279 C11.036,49.279 11.036,40.191 11.036,40.191 C11.036,40.191 32.132,40.191 32.132,40.191 C32.132,40.191 32.132,49.279 32.132,49.279 Z" id="path-3" class="cls-5" fill-rule="evenodd"/>
    <path d="M32.411,30.448 C32.411,24.330 27.452,19.371 21.334,19.371 C15.217,19.371 10.257,24.330 10.257,30.448 C10.257,30.448 32.411,30.448 32.411,30.448 Z" id="path-4" class="cls-3" fill-rule="evenodd"/>
    <path d="M22.771,19.474 C25.528,21.489 27.326,24.738 27.326,28.414 C27.326,28.414 10.452,28.414 10.452,28.414 C10.330,29.074 10.257,29.752 10.257,30.448 C10.257,30.448 32.411,30.448 32.411,30.448 C32.411,24.818 28.208,20.180 22.771,19.474 Z" id="path-5" class="cls-4" fill-rule="evenodd"/>
    <path d="M43.167,34.673 C43.167,34.673 0.001,34.673 0.001,34.673 C0.001,34.673 0.001,29.806 0.001,29.806 C0.001,29.806 43.167,29.806 43.167,29.806 C43.167,29.806 43.167,34.673 43.167,34.673 Z" id="path-6" class="cls-8" fill-rule="evenodd"/>
    <path d="M6.167,36.998 C6.167,36.998 36.676,38.436 36.676,38.436 C36.676,38.436 36.676,34.673 36.676,34.673 C36.676,34.673 6.167,34.673 6.167,34.673 C6.167,34.673 6.167,36.998 6.167,36.998 Z" id="path-7" class="cls-4" fill-rule="evenodd"/>
    <path d="M43.167,59.989 C43.167,59.989 0.001,59.989 0.001,59.989 C0.001,59.989 0.001,55.121 0.001,55.121 C0.001,55.121 43.167,55.121 43.167,55.121 C43.167,55.121 43.167,59.989 43.167,59.989 Z" id="path-8" class="cls-8" fill-rule="evenodd"/>
    <path d="M6.167,53.087 C6.167,53.087 6.167,55.121 6.167,55.121 C6.167,55.121 36.676,55.121 36.676,55.121 C36.676,55.121 36.676,53.087 36.676,53.087 C36.676,53.087 6.167,53.087 6.167,53.087 Z" id="path-9" class="cls-4" fill-rule="evenodd"/>
    <path d="M24.236,18.191 C24.236,18.191 19.474,18.191 19.474,18.191 C19.474,18.191 19.474,16.191 19.474,16.191 C19.474,16.191 23.443,16.191 23.443,16.191 C23.443,16.191 27.234,12.621 27.234,12.621 C27.234,12.621 39.895,12.621 39.895,12.621 C39.895,12.621 39.895,10.050 39.895,10.050 C39.895,10.050 41.895,10.050 41.895,10.050 C41.895,10.050 41.895,14.621 41.895,14.621 C41.895,14.621 28.027,14.621 28.027,14.621 C28.027,14.621 24.236,18.191 24.236,18.191 Z" id="path-10" class="cls-8" fill-rule="evenodd"/>
    <path d="M44.309,10.050 C44.309,10.050 37.606,10.050 37.606,10.050 C37.606,10.050 37.606,-0.011 37.606,-0.011 C37.606,-0.011 44.309,-0.011 44.309,-0.011 C44.309,-0.011 44.309,10.050 44.309,10.050 Z" id="path-11" class="cls-3" fill-rule="evenodd"/>
    <path d="M42.275,-0.011 C42.275,-0.011 42.275,10.050 42.275,10.050 C42.275,10.050 44.309,10.050 44.309,10.050 C44.309,10.050 44.309,-0.011 44.309,-0.011 C44.309,-0.011 42.275,-0.011 42.275,-0.011 Z" id="path-12" class="cls-4" fill-rule="evenodd"/>
    <path d="M23.146,13.069 C23.146,14.069 22.335,14.881 21.334,14.881 C20.333,14.881 19.522,14.069 19.522,13.069 C19.522,12.068 20.333,11.257 21.334,11.257 C22.335,11.257 23.146,12.068 23.146,13.069 Z" id="path-13" class="cls-8" fill-rule="evenodd"/>
    <path d="M23.146,44.507 C23.146,45.509 22.335,46.320 21.334,46.320 C20.333,46.320 19.522,45.509 19.522,44.507 C19.522,43.507 20.333,42.696 21.334,42.696 C22.335,42.696 23.146,43.507 23.146,44.507 Z" id="path-14" class="cls-3" fill-rule="evenodd"/>
    <path d="M22.351,42.696 C22.173,42.696 22.005,42.729 21.843,42.777 C22.594,42.998 23.146,43.685 23.146,44.507 C23.146,45.331 22.594,46.018 21.843,46.239 C22.005,46.286 22.173,46.320 22.351,46.320 C23.352,46.320 24.163,45.509 24.163,44.507 C24.163,43.507 23.352,42.696 22.351,42.696 Z" id="path-15" class="cls-4" fill-rule="evenodd"/>
    <path d="M45.565,22.254 C45.565,23.097 44.881,23.780 44.038,23.780 C43.195,23.780 42.512,23.097 42.512,22.254 C42.512,21.411 43.195,20.727 44.038,20.727 C44.881,20.727 45.565,21.411 45.565,22.254 Z" id="path-16" class="cls-3" fill-rule="evenodd"/>
    <path d="M56.400,27.063 C56.400,28.223 55.460,29.162 54.301,29.162 C53.142,29.162 52.202,28.223 52.202,27.063 C52.202,25.904 53.142,24.965 54.301,24.965 C55.460,24.965 56.400,25.904 56.400,27.063 Z" id="path-17" class="cls-3" fill-rule="evenodd"/>
  </g>
</svg>
