<svg xmlns="http://www.w3.org/2000/svg" xmlns:xlink="http://www.w3.org/1999/xlink" preserveAspectRatio="xMidYMid" width="61" height="53" viewBox="0 0 61 53">
  <defs>
    <style>

      .cls-3 {
        fill: #0cb04a;
      }

      .cls-4 {
        fill: #ededed;
      }

      .cls-5 {
        fill: #060606;
        opacity: 0.35;
      }

      .cls-6 {
        fill: #142a3b;
      }
    </style>
  </defs>
  <g id="group-194svg">
    <path d="M16.901,16.972 C9.655,24.279 16.901,43.432 16.901,43.432 C16.901,43.432 35.896,50.737 43.143,43.432 C50.389,36.125 59.990,-0.014 59.990,-0.014 C59.990,-0.014 24.147,9.666 16.901,16.972 Z" id="path-1" class="cls-3" fill-rule="evenodd"/>
    <path d="M18.701,33.320 C18.231,33.320 17.812,32.987 17.720,32.510 C16.754,27.499 16.364,20.760 19.991,17.103 C20.378,16.711 21.012,16.709 21.405,17.098 C21.797,17.487 21.800,18.120 21.411,18.512 C18.398,21.549 18.809,27.594 19.684,32.131 C19.788,32.673 19.433,33.197 18.891,33.302 C18.827,33.314 18.763,33.320 18.701,33.320 Z" id="path-2" class="cls-4" fill-rule="evenodd"/>
    <path d="M54.158,1.647 C50.981,12.505 44.501,32.911 39.253,38.202 C33.627,43.875 16.901,43.432 16.901,43.432 C16.901,43.432 35.896,50.738 43.143,43.432 C50.389,36.125 59.990,-0.014 59.990,-0.014 C59.990,-0.014 57.697,0.606 54.158,1.647 Z" id="path-3" class="cls-5" fill-rule="evenodd"/>
    <path d="M5.824,52.684 C4.094,52.684 2.333,52.255 0.556,51.399 C0.059,51.158 -0.150,50.560 0.089,50.063 C0.329,49.565 0.927,49.357 1.425,49.597 C3.929,50.804 6.370,51.002 8.684,50.186 C13.793,48.384 16.732,42.294 16.762,42.232 C16.762,42.232 16.834,42.104 16.834,42.104 C27.216,26.601 39.549,14.169 53.488,5.154 C53.952,4.855 54.571,4.987 54.871,5.451 C55.171,5.915 55.038,6.534 54.574,6.834 C40.882,15.688 28.756,27.911 18.535,43.160 C18.156,43.929 14.983,50.085 9.349,52.073 C8.193,52.480 7.016,52.684 5.824,52.684 Z" id="path-4" class="cls-6" fill-rule="evenodd"/>
  </g>
</svg>
