<svg xmlns="http://www.w3.org/2000/svg" xmlns:xlink="http://www.w3.org/1999/xlink" preserveAspectRatio="xMidYMid" width="48" height="60" viewBox="0 0 48 60">
  <defs>
    <style>

      .cls-3 {
        fill: #fbb713;
      }

      .cls-5 {
        fill: #000000;
        opacity: 0.25;
      }

      .cls-10 {
        fill: #000000;
        opacity: 0.35;
      }

      .cls-12 {
        fill: #ff3a2f;
      }

      .cls-25 {
        fill: #0cb04a;
      }

      .cls-26 {
        fill: #142a3b;
      }
    </style>
  </defs>
  <g id="group-304svg">
    <path d="M35.050,-0.013 C31.991,-0.013 29.143,1.491 27.411,4.008 C33.815,5.339 38.566,10.013 38.566,15.574 C38.566,16.384 38.463,17.173 38.272,17.939 C41.893,16.598 44.320,13.136 44.320,9.257 C44.320,4.144 40.161,-0.013 35.050,-0.013 Z" id="path-1" class="cls-3" fill-rule="evenodd"/>
    <path d="M8.837,15.574 C8.837,9.901 13.778,5.148 20.378,3.929 C18.638,1.461 15.824,-0.013 12.802,-0.013 C7.690,-0.013 3.531,4.144 3.531,9.257 C3.531,12.956 5.748,16.261 9.090,17.723 C8.932,17.025 8.837,16.309 8.837,15.574 Z" id="path-2" class="cls-3" fill-rule="evenodd"/>
    <path d="M35.050,-0.013 C34.867,-0.013 34.687,0.009 34.506,0.020 C39.312,0.359 43.120,4.366 43.120,9.257 C43.120,12.644 41.268,15.714 38.387,17.330 C38.349,17.533 38.322,17.739 38.272,17.939 C41.893,16.598 44.320,13.136 44.320,9.257 C44.320,4.144 40.161,-0.013 35.050,-0.013 Z" id="path-3" class="cls-5" fill-rule="evenodd"/>
    <path d="M4.731,9.257 C4.731,4.365 8.541,0.358 13.348,0.020 C13.166,0.009 12.985,-0.013 12.802,-0.013 C7.690,-0.013 3.531,4.144 3.531,9.257 C3.531,12.956 5.748,16.261 9.090,17.723 C9.036,17.485 9.001,17.241 8.963,16.997 C6.377,15.320 4.731,12.438 4.731,9.257 Z" id="path-4" class="cls-5" fill-rule="evenodd"/>
    <path d="M47.345,30.375 C46.807,28.408 45.599,26.806 43.947,25.864 C42.136,24.834 39.919,24.629 37.546,25.282 C36.925,25.449 36.312,25.692 35.705,25.969 C38.121,30.090 39.568,35.197 39.568,40.083 C39.568,40.091 39.567,40.098 39.567,40.107 C40.230,40.035 40.886,39.932 41.514,39.760 C43.851,39.117 45.637,37.845 46.675,36.077 C47.658,34.405 47.895,32.378 47.345,30.375 Z" id="path-5" class="cls-3" fill-rule="evenodd"/>
    <path d="M47.345,30.375 C46.910,28.783 46.019,27.451 44.826,26.494 C45.418,27.268 45.871,28.172 46.145,29.175 C46.696,31.178 46.457,33.204 45.475,34.877 C44.436,36.644 42.651,37.918 40.313,38.561 C40.054,38.631 39.787,38.684 39.519,38.735 C39.543,39.185 39.568,39.635 39.568,40.083 C39.568,40.091 39.567,40.098 39.567,40.107 C40.230,40.035 40.886,39.932 41.514,39.760 C43.851,39.117 45.637,37.845 46.675,36.077 C47.658,34.405 47.895,32.378 47.345,30.375 Z" id="path-6" class="cls-5" fill-rule="evenodd"/>
    <path d="M11.718,25.874 C11.175,25.638 10.628,25.431 10.078,25.282 C7.703,24.629 5.486,24.832 3.671,25.864 C2.019,26.806 0.811,28.408 0.274,30.372 C-0.277,32.378 -0.039,34.405 0.943,36.077 C1.982,37.845 3.767,39.117 6.106,39.760 C6.541,39.879 7.205,39.980 7.800,40.055 C7.806,35.138 9.271,30.003 11.718,25.874 Z" id="path-7" class="cls-3" fill-rule="evenodd"/>
    <path d="M10.169,25.312 C7.939,29.327 6.605,34.184 6.601,38.855 C6.005,38.780 5.341,38.679 4.906,38.561 C3.576,38.195 2.432,37.619 1.495,36.870 C2.564,38.225 4.136,39.219 6.106,39.760 C6.541,39.879 7.205,39.980 7.800,40.055 C7.806,35.138 9.271,30.003 11.718,25.874 C11.205,25.651 10.689,25.458 10.169,25.312 Z" id="path-8" class="cls-10" fill-rule="evenodd"/>
    <path d="M34.357,23.893 C31.654,26.133 27.880,27.531 23.702,27.531 C19.513,27.531 15.730,26.125 13.026,23.876 C9.789,28.266 7.799,34.332 7.799,40.083 C7.799,41.414 7.928,42.699 8.137,43.938 C9.105,42.721 10.311,41.939 11.670,41.700 C15.995,40.924 20.036,45.932 20.855,50.573 C21.288,53.029 20.817,55.239 19.655,56.904 C20.946,57.214 22.295,57.379 23.684,57.379 C25.117,57.379 26.507,57.204 27.836,56.872 C27.822,56.850 27.802,56.834 27.787,56.813 C26.635,55.117 26.248,52.958 26.670,50.573 C27.488,45.932 31.532,40.926 35.856,41.700 C37.221,41.941 38.362,42.685 39.262,43.741 C39.450,42.570 39.568,41.352 39.568,40.083 C39.568,34.340 37.583,28.282 34.357,23.893 Z" id="path-9" class="cls-3" fill-rule="evenodd"/>
    <path d="M34.463,41.656 C33.473,35.300 29.193,29.017 23.684,29.017 C18.014,29.017 13.871,35.326 12.900,41.646 C16.738,41.894 20.114,46.376 20.855,50.573 C21.288,53.029 20.817,55.239 19.655,56.904 C20.946,57.214 22.295,57.379 23.684,57.379 C25.117,57.379 26.507,57.204 27.836,56.872 C27.822,56.850 27.802,56.834 27.787,56.813 C26.635,55.117 26.248,52.958 26.670,50.573 C27.399,46.435 30.693,42.020 34.463,41.656 Z" id="path-10" class="cls-12" fill-rule="evenodd"/>
    <path d="M23.684,30.217 C28.856,30.217 32.944,35.755 34.244,41.692 C34.317,41.682 34.389,41.663 34.463,41.656 C33.473,35.300 29.193,29.017 23.684,29.017 C18.014,29.017 13.871,35.326 12.900,41.646 C12.973,41.651 13.044,41.667 13.117,41.675 C14.390,35.770 18.364,30.217 23.684,30.217 Z" id="path-11" class="cls-5" fill-rule="evenodd"/>
    <path d="M26.530,53.032 C26.446,54.476 26.680,55.813 27.219,56.986 C27.423,56.943 27.635,56.922 27.836,56.872 C27.822,56.850 27.802,56.834 27.787,56.813 C27.047,55.723 26.627,54.441 26.530,53.032 Z" id="path-12" class="cls-10" fill-rule="evenodd"/>
    <path d="M20.986,52.926 C20.890,54.434 20.431,55.792 19.655,56.904 C19.855,56.952 20.066,56.972 20.270,57.014 C20.825,55.821 21.081,54.434 20.986,52.926 Z" id="path-13" class="cls-10" fill-rule="evenodd"/>
    <path d="M10.470,39.300 C9.497,39.471 8.608,39.930 7.824,40.618 C7.853,41.757 7.956,42.868 8.137,43.938 C9.105,42.721 10.311,41.939 11.670,41.700 C14.541,41.185 17.281,43.224 19.043,46.007 C17.565,42.116 14.123,38.644 10.470,39.300 Z" id="path-14" class="cls-10" fill-rule="evenodd"/>
    <path d="M35.916,26.351 C37.466,29.878 38.368,33.846 38.368,37.684 C38.368,38.951 38.250,40.170 38.062,41.342 C37.163,40.285 36.020,39.540 34.656,39.300 C30.332,38.526 26.288,43.531 25.471,48.173 C25.048,50.558 25.434,52.718 26.587,54.413 C26.601,54.434 26.622,54.450 26.637,54.471 C25.307,54.804 23.916,54.979 22.484,54.979 C21.859,54.979 21.247,54.935 20.640,54.871 C20.410,55.611 20.080,56.294 19.655,56.904 C20.946,57.214 22.295,57.379 23.684,57.379 C25.117,57.379 26.507,57.204 27.836,56.872 C27.822,56.850 27.802,56.834 27.787,56.813 C26.635,55.117 26.248,52.958 26.670,50.573 C27.488,45.932 31.532,40.926 35.856,41.700 C37.221,41.941 38.362,42.685 39.262,43.741 C39.450,42.570 39.568,41.352 39.568,40.083 C39.568,35.344 38.201,30.405 35.916,26.351 Z" id="path-15" class="cls-10" fill-rule="evenodd"/>
    <path d="M5.989,15.500 C6.847,16.431 7.892,17.199 9.090,17.723 C8.932,17.025 8.837,16.309 8.837,15.574 C8.837,9.901 13.778,5.148 20.378,3.929 C19.841,3.167 19.192,2.514 18.477,1.956 C11.278,3.746 6.029,9.136 5.989,15.500 Z" id="path-16" class="cls-5" fill-rule="evenodd"/>
    <path d="M13.454,59.987 C13.454,59.987 13.454,59.987 13.454,59.987 C9.699,59.987 6.800,57.315 6.073,53.181 C5.655,50.819 5.950,48.224 6.877,46.065 C7.933,43.608 9.635,42.058 11.670,41.700 C15.995,40.924 20.036,45.932 20.855,50.573 C21.684,55.276 19.223,59.095 14.872,59.861 C14.394,59.946 13.920,59.987 13.454,59.987 Z" id="path-17" class="cls-3" fill-rule="evenodd"/>
    <path d="M34.072,59.987 C34.072,59.987 34.072,59.987 34.072,59.987 C33.606,59.987 33.132,59.946 32.654,59.861 C30.606,59.500 28.878,58.419 27.787,56.813 C26.635,55.117 26.248,52.958 26.670,50.573 C27.488,45.932 31.532,40.926 35.856,41.700 C40.212,42.468 42.303,48.367 41.454,53.181 C40.726,57.315 37.827,59.987 34.072,59.987 Z" id="path-18" class="cls-3" fill-rule="evenodd"/>
    <path d="M20.855,50.573 C20.036,45.932 15.995,40.924 11.670,41.700 C11.570,41.717 11.475,41.751 11.377,41.774 C14.841,42.583 17.771,46.699 18.455,50.573 C19.284,55.276 16.823,59.095 12.472,59.861 C12.402,59.874 12.334,59.870 12.265,59.880 C12.651,59.942 13.045,59.987 13.454,59.987 C13.920,59.987 14.394,59.946 14.872,59.861 C19.223,59.095 21.684,55.276 20.855,50.573 Z" id="path-19" class="cls-5" fill-rule="evenodd"/>
    <path d="M35.856,41.700 C35.142,41.572 34.436,41.615 33.749,41.775 C37.901,42.755 39.883,48.479 39.054,53.181 C38.405,56.865 36.028,59.374 32.862,59.880 C33.269,59.941 33.674,59.987 34.072,59.987 C37.827,59.987 40.726,57.315 41.454,53.181 C42.303,48.367 40.212,42.468 35.856,41.700 Z" id="path-20" class="cls-5" fill-rule="evenodd"/>
    <path d="M23.702,27.531 C15.504,27.531 8.837,22.168 8.837,15.574 C8.837,8.981 15.504,3.616 23.702,3.616 C31.898,3.616 38.566,8.981 38.566,15.574 C38.566,22.168 31.898,27.531 23.702,27.531 Z" id="path-21" class="cls-3" fill-rule="evenodd"/>
    <path d="M30.284,4.869 C33.851,7.055 36.166,10.497 36.166,14.374 C36.166,20.967 29.499,26.332 21.302,26.332 C18.936,26.332 16.706,25.873 14.720,25.080 C17.218,26.611 20.325,27.531 23.702,27.531 C31.898,27.531 38.566,22.168 38.566,15.574 C38.566,10.883 35.184,6.826 30.284,4.869 Z" id="path-22" class="cls-5" fill-rule="evenodd"/>
    <path d="M18.620,17.132 C16.450,17.132 14.685,15.366 14.685,13.197 C14.685,11.027 16.450,9.262 18.620,9.262 C20.789,9.262 22.554,11.027 22.554,13.197 C22.554,15.366 20.789,17.132 18.620,17.132 Z" id="path-23" class="cls-25" fill-rule="evenodd"/>
    <circle id="circle-1" class="cls-26" cx="24" cy="19" r="2"/>
    <path d="M24.901,17.546 C24.690,17.546 24.490,17.589 24.302,17.658 C24.976,17.905 25.462,18.547 25.462,19.306 C25.462,20.065 24.976,20.707 24.302,20.954 C24.490,21.023 24.690,21.066 24.901,21.066 C25.872,21.066 26.662,20.277 26.662,19.306 C26.662,18.335 25.872,17.546 24.901,17.546 Z" id="path-24" class="cls-10" fill-rule="evenodd"/>
    <path d="M29.112,17.132 C26.942,17.132 25.177,15.366 25.177,13.197 C25.177,11.027 26.942,9.262 29.112,9.262 C31.281,9.262 33.046,11.027 33.046,13.197 C33.046,15.366 31.281,17.132 29.112,17.132 Z" id="path-25" class="cls-25" fill-rule="evenodd"/>
    <path d="M18.620,9.262 C18.414,9.262 18.217,9.292 18.020,9.323 C19.903,9.615 21.354,11.233 21.354,13.197 C21.354,15.161 19.903,16.779 18.020,17.071 C18.217,17.101 18.414,17.132 18.620,17.132 C20.789,17.132 22.554,15.366 22.554,13.197 C22.554,11.027 20.789,9.262 18.620,9.262 Z" id="path-26" class="cls-10" fill-rule="evenodd"/>
    <path d="M29.112,9.262 C28.906,9.262 28.709,9.292 28.512,9.323 C30.395,9.615 31.846,11.233 31.846,13.197 C31.846,15.161 30.395,16.779 28.512,17.071 C28.709,17.101 28.906,17.132 29.112,17.132 C31.281,17.132 33.046,15.366 33.046,13.197 C33.046,11.027 31.281,9.262 29.112,9.262 Z" id="path-27" class="cls-10" fill-rule="evenodd"/>
  </g>
</svg>
