<svg xmlns="http://www.w3.org/2000/svg" xmlns:xlink="http://www.w3.org/1999/xlink" preserveAspectRatio="xMidYMid" width="45" height="60" viewBox="0 0 45 60">
  <defs>
    <style>

      .cls-3 {
        fill: #ff3a2f;
      }

      .cls-4 {
        fill: #020403;
        opacity: 0.35;
      }

      .cls-5 {
        fill: #142a3b;
      }

      .cls-8 {
        fill: #ffffff;
      }
    </style>
  </defs>
  <g id="group-328svg">
    <path d="M41.729,52.187 C41.729,52.187 41.729,60.013 41.729,60.013 C41.729,60.013 2.599,60.013 2.599,60.013 C2.599,60.013 2.599,52.187 2.599,52.187 C2.599,52.187 41.729,52.187 41.729,52.187 Z" id="path-1" class="cls-3" fill-rule="evenodd"/>
    <path d="M2.599,52.187 C2.599,52.187 2.599,53.492 2.599,53.492 C2.599,53.492 34.181,54.706 34.181,54.706 C35.482,54.757 36.512,55.826 36.512,57.129 C36.512,57.129 36.512,60.013 36.512,60.013 C36.512,60.013 41.729,60.013 41.729,60.013 C41.729,60.013 41.729,52.187 41.729,52.187 C41.729,52.187 2.599,52.187 2.599,52.187 Z" id="path-2" class="cls-4" fill-rule="evenodd"/>
    <path d="M44.338,52.187 C44.338,52.187 -0.010,52.187 -0.010,52.187 C-0.010,52.187 -0.010,48.274 -0.010,48.274 C-0.010,46.835 1.158,45.665 2.599,45.665 C8.361,45.665 18.251,40.995 18.251,35.231 C18.251,35.231 18.251,28.686 18.251,27.405 C18.251,24.801 18.083,24.209 14.629,20.756 C12.059,18.602 10.425,15.367 10.425,11.753 C10.425,5.269 15.680,0.013 22.164,0.013 C28.647,0.013 33.903,5.269 33.903,11.753 C33.903,15.366 32.270,18.599 29.702,20.753 C26.267,24.188 26.090,24.765 26.090,27.035 C26.090,28.230 26.077,35.232 26.077,35.232 C26.077,40.995 35.965,45.667 41.729,45.665 C43.169,45.665 44.338,46.835 44.338,48.274 C44.338,48.274 44.338,52.187 44.338,52.187 Z" id="path-3" class="cls-5" fill-rule="evenodd"/>
    <path d="M14.358,41.410 C10.957,43.987 6.046,45.665 2.599,45.665 C1.158,45.665 -0.010,46.835 -0.010,48.274 C4.497,48.274 11.507,45.412 14.358,41.410 Z" id="path-4" class="cls-4" fill-rule="evenodd"/>
    <path d="M41.729,45.665 C35.965,45.667 26.077,40.995 26.077,35.232 C26.077,35.232 26.090,28.230 26.090,27.035 C26.090,24.765 26.267,24.188 29.702,20.753 C32.270,18.599 33.903,15.366 33.903,11.753 C33.903,5.269 28.647,0.013 22.164,0.013 C18.256,0.013 14.804,1.931 12.670,4.868 C14.605,3.461 16.979,2.622 19.555,2.622 C26.039,2.622 31.294,7.878 31.294,14.361 C31.294,17.975 29.661,21.208 27.093,23.362 C23.658,26.797 23.481,27.374 23.481,29.644 C23.481,30.839 23.468,37.841 23.468,37.841 C23.468,43.603 33.356,48.275 39.120,48.274 C40.561,48.274 41.729,49.444 41.729,50.883 C41.729,50.883 41.729,52.187 41.729,52.187 C41.729,52.187 44.338,52.187 44.338,52.187 C44.338,52.187 44.338,48.274 44.338,48.274 C44.338,46.835 43.169,45.665 41.729,45.665 Z" id="path-5" class="cls-4" fill-rule="evenodd"/>
    <path d="M16.936,16.650 C16.631,16.650 16.330,16.512 16.134,16.248 C15.158,14.942 14.642,13.387 14.642,11.753 C14.642,8.197 17.169,5.098 20.651,4.384 C21.191,4.273 21.720,4.622 21.831,5.162 C21.942,5.703 21.593,6.232 21.052,6.343 C18.497,6.867 16.642,9.142 16.642,11.753 C16.642,12.953 17.020,14.093 17.736,15.052 C18.067,15.495 17.976,16.121 17.533,16.451 C17.354,16.586 17.144,16.650 16.936,16.650 Z" id="path-6" class="cls-8" fill-rule="evenodd"/>
  </g>
</svg>
