<svg xmlns="http://www.w3.org/2000/svg" xmlns:xlink="http://www.w3.org/1999/xlink" preserveAspectRatio="xMidYMid" width="37" height="61" viewBox="0 0 37 61">
  <defs>
    <style>

      .cls-3 {
        fill: #142a3b;
      }

      .cls-4 {
        fill: #040404;
        opacity: 0.35;
      }

      .cls-5 {
        fill: #ff3a2f;
      }

      .cls-6 {
        fill: #ffffff;
        opacity: 0.4;
      }

      .cls-8 {
        fill: #ffe56d;
      }

      .cls-9 {
        fill: #fbb713;
        opacity: 0.5;
      }

      .cls-10 {
        fill: #0cb04a;
      }

      .cls-12 {
        fill: #ffffff;
      }
    </style>
  </defs>
  <g id="group-68svg">
    <path d="M20.116,1.793 C20.116,1.793 10.944,10.965 10.944,10.965 C10.944,10.965 18.225,18.246 18.225,18.246 C18.225,18.246 29.967,6.504 29.967,6.504 C29.967,6.504 36.454,0.016 36.454,0.016 C36.454,0.016 20.116,1.793 20.116,1.793 Z" id="path-1" class="cls-3" fill-rule="evenodd"/>
    <path d="M20.116,1.793 C20.116,1.793 18.225,18.246 18.225,18.246 C18.225,18.246 10.944,10.965 10.944,10.965 C10.944,10.965 20.116,1.793 20.116,1.793 Z" id="path-2" class="cls-4" fill-rule="evenodd"/>
    <path d="M34.679,20.137 C34.679,20.137 25.506,10.964 25.506,10.964 C25.506,10.964 18.225,18.246 18.225,18.246 C18.225,18.246 29.967,29.988 29.967,29.988 C29.967,29.988 36.455,36.475 36.455,36.475 C36.455,36.475 34.679,20.137 34.679,20.137 Z" id="path-3" class="cls-5" fill-rule="evenodd"/>
    <path d="M34.679,20.137 C34.679,20.137 18.225,18.246 18.225,18.246 C18.225,18.246 25.506,10.964 25.506,10.964 C25.506,10.964 34.679,20.137 34.679,20.137 Z" id="path-4" class="cls-6" fill-rule="evenodd"/>
    <path d="M18.225,60.015 C17.609,60.015 17.110,59.517 17.110,58.901 C17.110,58.901 17.110,17.609 17.110,17.609 C17.110,16.993 17.609,16.494 18.225,16.494 C18.841,16.494 19.340,16.993 19.340,17.609 C19.340,17.609 19.340,58.901 19.340,58.901 C19.340,59.517 18.841,60.015 18.225,60.015 Z" id="path-5" class="cls-3" fill-rule="evenodd"/>
    <path d="M18.225,18.246 C18.225,18.246 6.483,29.988 6.483,29.988 C6.483,29.988 -0.005,36.475 -0.005,36.475 C-0.005,36.475 16.334,34.698 16.334,34.698 C16.334,34.698 25.506,25.526 25.506,25.526 C25.506,25.526 18.225,18.246 18.225,18.246 Z" id="path-6" class="cls-8" fill-rule="evenodd"/>
    <path d="M16.334,34.698 C16.334,34.698 18.225,18.246 18.225,18.246 C18.225,18.246 25.506,25.526 25.506,25.526 C25.506,25.526 16.334,34.698 16.334,34.698 Z" id="path-7" class="cls-9" fill-rule="evenodd"/>
    <path d="M6.483,6.504 C6.483,6.504 -0.005,0.016 -0.005,0.016 C-0.005,0.016 1.771,16.354 1.771,16.354 C1.771,16.354 10.944,25.526 10.944,25.526 C10.944,25.526 18.225,18.246 18.225,18.246 C18.225,18.246 6.483,6.504 6.483,6.504 Z" id="path-8" class="cls-10" fill-rule="evenodd"/>
    <path d="M1.771,16.354 C1.771,16.354 18.225,18.246 18.225,18.246 C18.225,18.246 10.944,25.526 10.944,25.526 C10.944,25.526 1.771,16.354 1.771,16.354 Z" id="path-9" class="cls-6" fill-rule="evenodd"/>
    <path d="M19.271,19.291 C18.693,19.869 17.757,19.869 17.179,19.291 C16.602,18.714 16.602,17.777 17.179,17.200 C17.757,16.622 18.693,16.622 19.271,17.200 C19.848,17.777 19.848,18.714 19.271,19.291 Z" id="path-10" class="cls-12" fill-rule="evenodd"/>
  </g>
</svg>
