<svg xmlns="http://www.w3.org/2000/svg" xmlns:xlink="http://www.w3.org/1999/xlink" preserveAspectRatio="xMidYMid" width="60" height="49" viewBox="0 0 60 49">
  <defs>
    <style>

      .cls-3 {
        fill: #0cb04a;
      }

      .cls-6 {
        fill: #fbb713;
      }

      .cls-9 {
        fill: #ff3a2f;
      }

      .cls-10 {
        fill: #ededed;
      }

      .cls-11 {
        fill: #000000;
        opacity: 0.35;
      }

      .cls-12 {
        fill: #142a3b;
      }
    </style>
  </defs>
  <g id="group-256svg">
    <path d="M30.013,23.202 C30.013,23.202 28.402,23.202 28.402,23.202 C28.402,23.202 28.402,7.129 28.402,7.129 C28.402,7.129 30.013,7.129 30.013,7.129 C30.013,7.129 30.013,23.202 30.013,23.202 Z" id="path-1" class="cls-3" fill-rule="evenodd"/>
    <path d="M17.960,23.202 C17.960,23.202 16.349,23.202 16.349,23.202 C16.349,23.202 16.349,7.129 16.349,7.129 C16.349,7.129 17.960,7.129 17.960,7.129 C17.960,7.129 17.960,23.202 17.960,23.202 Z" id="path-2" class="cls-3" fill-rule="evenodd"/>
    <path d="M42.067,23.202 C42.067,23.202 40.456,23.202 40.456,23.202 C40.456,23.202 40.456,7.129 40.456,7.129 C40.456,7.129 42.067,7.129 42.067,7.129 C42.067,7.129 42.067,23.202 42.067,23.202 Z" id="path-3" class="cls-3" fill-rule="evenodd"/>
    <path d="M20.309,5.889 C20.309,7.632 18.896,9.044 17.154,9.044 C15.412,9.044 13.999,7.632 13.999,5.889 C13.999,4.148 17.154,-0.008 17.154,-0.008 C17.154,-0.008 20.309,4.148 20.309,5.889 Z" id="path-4" class="cls-6" fill-rule="evenodd"/>
    <path d="M44.415,5.889 C44.415,7.632 43.003,9.044 41.261,9.044 C39.519,9.044 38.106,7.632 38.106,5.889 C38.106,4.148 41.261,-0.008 41.261,-0.008 C41.261,-0.008 44.415,4.148 44.415,5.889 Z" id="path-5" class="cls-6" fill-rule="evenodd"/>
    <path d="M32.362,5.889 C32.362,7.632 30.950,9.044 29.208,9.044 C27.465,9.044 26.053,7.632 26.053,5.889 C26.053,4.148 29.208,-0.008 29.208,-0.008 C29.208,-0.008 32.362,4.148 32.362,5.889 Z" id="path-6" class="cls-6" fill-rule="evenodd"/>
    <path d="M54.645,46.237 C54.645,46.237 54.645,33.997 54.645,33.997 C54.645,26.851 50.208,21.058 44.735,21.058 C44.735,21.058 15.270,21.058 15.270,21.058 C9.797,21.058 5.360,26.851 5.360,33.997 C5.360,33.997 5.360,46.237 5.360,46.237 C5.360,46.237 54.645,46.237 54.645,46.237 Z" id="path-7" class="cls-9" fill-rule="evenodd"/>
    <path d="M8.673,34.909 C8.121,34.909 7.673,34.461 7.673,33.909 C7.673,28.022 11.446,23.233 16.084,23.233 C16.637,23.233 17.084,23.681 17.084,24.233 C17.084,24.785 16.637,25.233 16.084,25.233 C12.549,25.233 9.673,29.125 9.673,33.909 C9.673,34.461 9.225,34.909 8.673,34.909 Z" id="path-8" class="cls-10" fill-rule="evenodd"/>
    <path d="M44.735,21.058 C44.735,21.058 39.914,21.058 39.914,21.058 C45.387,21.058 49.824,26.851 49.824,33.997 C49.824,33.997 49.824,39.495 49.824,39.495 C49.824,39.495 5.360,42.487 5.360,42.487 C5.360,42.487 54.645,46.237 54.645,46.237 C54.645,46.237 54.645,33.997 54.645,33.997 C54.645,26.851 50.208,21.058 44.735,21.058 Z" id="path-9" class="cls-11" fill-rule="evenodd"/>
    <path d="M60.003,48.380 C60.003,48.380 0.003,48.380 0.003,48.380 C0.003,48.380 0.003,42.487 0.003,42.487 C0.003,42.487 60.003,42.487 60.003,42.487 C60.003,42.487 60.003,48.380 60.003,48.380 Z" id="path-10" class="cls-12" fill-rule="evenodd"/>
    <path d="M55.182,42.487 C55.182,42.487 55.182,48.380 55.182,48.380 C55.182,48.380 60.003,48.380 60.003,48.380 C60.003,48.380 60.003,42.487 60.003,42.487 C60.003,42.487 55.182,42.487 55.182,42.487 Z" id="path-11" class="cls-11" fill-rule="evenodd"/>
  </g>
</svg>
