<svg xmlns="http://www.w3.org/2000/svg" xmlns:xlink="http://www.w3.org/1999/xlink" preserveAspectRatio="xMidYMid" width="49" height="61" viewBox="0 0 49 61">
  <defs>
    <style>

      .cls-3 {
        fill: #fbb713;
      }

      .cls-4 {
        fill: #000000;
        opacity: 0.35;
      }

      .cls-6 {
        fill: #142a3b;
      }
    </style>
  </defs>
  <g id="group-236svg">
    <path d="M27.539,43.783 C27.539,43.783 31.953,39.369 31.953,39.369 C31.953,39.369 9.205,16.620 9.205,16.620 C9.205,16.620 8.532,15.948 8.532,15.948 C6.181,13.596 2.367,13.596 0.016,15.948 C0.016,15.948 27.539,43.783 27.539,43.783 Z" id="path-1" class="cls-3" fill-rule="evenodd"/>
    <path d="M27.539,43.783 C27.539,43.783 31.953,39.369 31.953,39.369 C31.953,39.369 9.205,16.620 9.205,16.620 C9.205,16.620 8.532,15.948 8.532,15.948 C6.181,13.596 2.367,13.596 0.016,15.948 C0.016,15.948 27.539,43.783 27.539,43.783 Z" id="path-2" class="cls-4" fill-rule="evenodd"/>
    <path d="M27.520,17.654 C27.520,17.654 31.934,22.068 31.934,22.068 C31.934,22.068 9.360,44.642 9.360,44.642 C9.360,44.642 8.687,45.314 8.687,45.314 C6.336,47.666 2.523,47.666 0.171,45.314 C0.171,45.314 27.520,17.654 27.520,17.654 Z" id="path-3" class="cls-3" fill-rule="evenodd"/>
    <path d="M19.930,30.889 C19.930,31.941 19.077,32.794 18.024,32.794 C16.972,32.794 16.119,31.941 16.119,30.889 C16.119,29.836 16.972,28.983 18.024,28.983 C19.077,28.983 19.930,29.836 19.930,30.889 Z" id="path-4" class="cls-6" fill-rule="evenodd"/>
    <path d="M36.643,0.009 C30.191,0.009 24.962,5.238 24.962,11.689 C24.962,18.140 30.191,23.369 36.643,23.369 C43.094,23.369 48.323,18.140 48.323,11.689 C48.323,5.238 43.094,0.009 36.643,0.009 ZM36.643,18.211 C33.041,18.211 30.121,15.291 30.121,11.689 C30.121,8.088 33.041,5.167 36.643,5.167 C40.245,5.167 43.165,8.088 43.165,11.689 C43.165,15.291 40.245,18.211 36.643,18.211 Z" id="path-5" class="cls-3" fill-rule="evenodd"/>
    <path d="M36.459,36.648 C30.008,36.648 24.778,41.877 24.778,48.328 C24.778,54.779 30.008,60.008 36.459,60.008 C42.910,60.008 48.140,54.779 48.140,48.328 C48.140,41.877 42.910,36.648 36.459,36.648 ZM36.459,54.851 C32.857,54.851 29.937,51.930 29.937,48.328 C29.937,44.726 32.857,41.806 36.459,41.806 C40.061,41.806 42.981,44.726 42.981,48.328 C42.981,51.930 40.061,54.851 36.459,54.851 Z" id="path-6" class="cls-3" fill-rule="evenodd"/>
    <path d="M31.367,15.496 C30.591,14.424 30.121,13.115 30.121,11.689 C30.121,8.088 33.041,5.167 36.643,5.167 C38.068,5.167 39.376,5.638 40.449,6.414 C39.265,4.776 37.351,3.699 35.175,3.699 C31.573,3.699 28.653,6.620 28.653,10.222 C28.653,12.398 29.729,14.312 31.367,15.496 Z" id="path-7" class="cls-4" fill-rule="evenodd"/>
    <path d="M44.133,2.730 C45.830,4.759 46.855,7.370 46.855,10.222 C46.855,16.673 41.626,21.902 35.175,21.902 C32.323,21.902 29.712,20.877 27.684,19.179 C29.827,21.739 33.043,23.369 36.643,23.369 C43.094,23.369 48.323,18.140 48.323,11.689 C48.323,8.090 46.692,4.873 44.133,2.730 Z" id="path-8" class="cls-4" fill-rule="evenodd"/>
    <path d="M31.185,52.136 C30.408,51.062 29.937,49.754 29.937,48.328 C29.937,44.726 32.857,41.806 36.459,41.806 C37.885,41.806 39.193,42.276 40.267,43.053 C39.082,41.415 37.167,40.339 34.991,40.339 C31.390,40.339 28.469,43.258 28.469,46.860 C28.469,49.036 29.546,50.952 31.185,52.136 Z" id="path-9" class="cls-4" fill-rule="evenodd"/>
    <path d="M43.950,39.370 C45.647,41.398 46.672,44.008 46.672,46.860 C46.672,53.311 41.442,58.541 34.991,58.541 C32.140,58.541 29.529,57.516 27.501,55.819 C29.644,58.379 32.860,60.008 36.459,60.008 C42.910,60.008 48.140,54.779 48.140,48.328 C48.140,44.729 46.510,41.513 43.950,39.370 Z" id="path-10" class="cls-4" fill-rule="evenodd"/>
  </g>
</svg>
