<svg xmlns="http://www.w3.org/2000/svg" xmlns:xlink="http://www.w3.org/1999/xlink" preserveAspectRatio="xMidYMid" width="61" height="62" viewBox="0 0 61 62">
  <defs>
    <style>

      .cls-3 {
        fill: #142a3b;
      }

      .cls-4 {
        fill: #fbb713;
      }

      .cls-5 {
        fill: #000000;
        opacity: 0.25;
      }
    </style>
  </defs>
  <g id="group-290svg">
    <path d="M58.995,60.978 C58.736,60.978 58.478,60.878 58.282,60.679 C58.282,60.679 23.158,24.964 23.158,24.964 C22.770,24.571 22.776,23.937 23.169,23.550 C23.563,23.162 24.196,23.168 24.583,23.562 C24.583,23.562 59.708,59.276 59.708,59.276 C60.095,59.670 60.090,60.303 59.696,60.691 C59.501,60.882 59.248,60.978 58.995,60.978 Z" id="path-1" class="cls-3" fill-rule="evenodd"/>
    <path d="M4.786,4.872 C4.786,4.872 19.158,9.743 19.158,9.743 C19.158,9.743 28.740,0.001 28.740,0.001 C28.740,0.001 27.143,14.614 27.143,14.614 C27.143,14.614 41.516,22.733 41.516,22.733 C41.516,22.733 25.943,26.384 25.943,26.384 C25.943,26.384 22.352,42.217 22.352,42.217 C22.352,42.217 14.368,27.604 14.368,27.604 C14.368,27.604 -0.005,29.227 -0.005,29.227 C-0.005,29.227 9.577,19.485 9.577,19.485 C9.577,19.485 4.786,4.872 4.786,4.872 Z" id="path-2" class="cls-4" fill-rule="evenodd"/>
    <path d="M25.174,12.632 C25.174,12.632 27.232,13.795 27.232,13.795 C27.232,13.795 28.740,0.001 28.740,0.001 C28.740,0.001 26.281,2.501 26.281,2.501 C26.281,2.501 25.174,12.632 25.174,12.632 Z" id="path-3" class="cls-5" fill-rule="evenodd"/>
    <path d="M38.458,21.005 C38.458,21.005 23.974,24.401 23.974,24.401 C23.974,24.401 20.643,39.089 20.643,39.089 C20.643,39.089 22.352,42.217 22.352,42.217 C22.352,42.217 25.943,26.384 25.943,26.384 C25.943,26.384 41.516,22.733 41.516,22.733 C41.516,22.733 38.458,21.005 38.458,21.005 Z" id="path-4" class="cls-5" fill-rule="evenodd"/>
    <path d="M12.398,25.622 C12.398,25.622 2.434,26.747 2.434,26.747 C2.434,26.747 -0.005,29.227 -0.005,29.227 C-0.005,29.227 13.533,27.698 13.533,27.698 C13.533,27.698 12.398,25.622 12.398,25.622 Z" id="path-5" class="cls-5" fill-rule="evenodd"/>
  </g>
</svg>
