<svg xmlns="http://www.w3.org/2000/svg" xmlns:xlink="http://www.w3.org/1999/xlink" preserveAspectRatio="xMidYMid" width="60" height="55" viewBox="0 0 60 55">
  <defs>
    <style>

      .cls-3 {
        fill: #2476ff;
      }

      .cls-4 {
        fill: #ff3a2f;
      }

      .cls-5 {
        fill: #000000;
        opacity: 0.35;
      }
    </style>
  </defs>
  <g id="group-311svg">
    <path d="M22.167,54.757 C22.167,54.757 11.310,54.757 11.310,54.757 C10.890,54.757 10.491,54.586 10.197,54.285 C10.197,54.285 0.440,44.202 0.440,44.202 C-0.146,43.594 -0.140,42.630 0.458,42.031 C0.458,42.031 42.038,0.449 42.038,0.449 C42.642,-0.156 43.622,-0.156 44.227,0.449 C44.227,0.449 59.551,15.770 59.551,15.770 C59.841,16.060 60.005,16.453 60.005,16.864 C60.005,17.276 59.841,17.669 59.551,17.959 C59.551,17.959 23.264,54.300 23.264,54.300 C22.974,54.592 22.579,54.757 22.167,54.757 Z" id="path-1" class="cls-3" fill-rule="evenodd"/>
    <path d="M35.058,42.454 C35.058,42.454 23.264,54.300 23.264,54.300 C22.974,54.592 22.579,54.757 22.167,54.757 C22.167,54.757 11.310,54.757 11.310,54.757 C10.890,54.757 10.491,54.586 10.197,54.285 C10.197,54.285 0.440,44.202 0.440,44.202 C-0.146,43.594 -0.140,42.630 0.458,42.031 C0.458,42.031 17.545,24.945 17.545,24.945 C17.545,24.945 35.058,42.454 35.058,42.454 Z" id="path-2" class="cls-4" fill-rule="evenodd"/>
    <path d="M59.551,15.770 C59.551,15.770 57.646,13.865 57.646,13.865 C57.646,13.865 22.064,49.500 22.064,49.500 C21.774,49.792 21.378,49.956 20.967,49.956 C20.967,49.956 10.109,49.956 10.109,49.956 C9.689,49.956 9.290,49.786 8.997,49.485 C8.997,49.485 1.133,41.357 1.133,41.357 C1.133,41.357 0.458,42.031 0.458,42.031 C-0.140,42.630 -0.146,43.594 0.440,44.201 C0.440,44.201 10.197,54.285 10.197,54.285 C10.491,54.586 10.890,54.757 11.310,54.757 C11.310,54.757 22.167,54.757 22.167,54.757 C22.578,54.757 22.974,54.592 23.264,54.300 C23.264,54.300 59.551,17.959 59.551,17.959 C59.841,17.669 60.005,17.276 60.005,16.864 C60.005,16.453 59.841,16.060 59.551,15.770 Z" id="path-3" class="cls-5" fill-rule="evenodd"/>
  </g>
</svg>
