<svg xmlns="http://www.w3.org/2000/svg" xmlns:xlink="http://www.w3.org/1999/xlink" preserveAspectRatio="xMidYMid" width="60" height="60" viewBox="0 0 60 60">
  <defs>
    <style>

      .cls-3 {
        fill: #fbb713;
      }

      .cls-4 {
        fill: #020403;
        opacity: 0.25;
      }

      .cls-7 {
        fill: #0cb04a;
      }
    </style>
  </defs>
  <g id="group-90svg">
    <path d="M47.567,49.896 C47.567,49.896 47.567,24.331 47.567,24.331 C47.567,24.331 59.458,24.331 59.458,24.331 C59.458,24.331 59.458,8.874 59.458,8.874 C59.458,8.874 43.707,0.226 43.707,0.226 C42.865,-0.236 41.807,0.078 41.363,0.930 C39.627,4.262 35.140,8.179 29.867,8.179 C24.590,8.179 20.098,4.247 18.366,0.919 C17.925,0.072 16.873,-0.244 16.032,0.211 C16.032,0.211 0.005,8.874 0.005,8.874 C0.005,8.874 0.005,24.331 0.005,24.331 C0.005,24.331 11.896,24.331 11.896,24.331 C11.896,24.331 11.896,49.896 11.896,49.896 C18.791,49.896 24.381,53.108 24.381,60.003 C24.381,60.003 35.083,60.003 35.083,60.003 C35.083,53.108 40.672,49.896 47.567,49.896 Z" id="path-1" class="cls-3" fill-rule="evenodd"/>
    <path d="M25.904,8.179 C26.579,8.179 27.241,8.114 27.886,7.994 C23.487,7.182 19.876,3.820 18.366,0.919 C17.925,0.072 16.873,-0.244 16.032,0.211 C16.032,0.211 14.477,1.051 14.477,1.051 C16.257,4.350 20.695,8.179 25.904,8.179 Z" id="path-2" class="cls-4" fill-rule="evenodd"/>
    <path d="M43.604,49.896 C36.708,49.896 31.119,53.108 31.119,60.003 C31.119,60.003 35.083,60.003 35.083,60.003 C35.083,53.108 40.672,49.896 47.567,49.896 C47.567,49.896 47.567,24.331 47.567,24.331 C47.567,24.331 43.604,24.331 43.604,24.331 C43.604,24.331 43.604,49.896 43.604,49.896 Z" id="path-3" class="cls-4" fill-rule="evenodd"/>
    <path d="M43.707,0.226 C42.865,-0.236 41.807,0.078 41.363,0.930 C41.339,0.976 41.308,1.024 41.283,1.071 C41.283,1.071 55.495,8.874 55.495,8.874 C55.495,8.874 55.495,24.331 55.495,24.331 C55.495,24.331 59.458,24.331 59.458,24.331 C59.458,24.331 59.458,8.874 59.458,8.874 C59.458,8.874 43.707,0.226 43.707,0.226 Z" id="path-4" class="cls-4" fill-rule="evenodd"/>
    <path d="M36.408,25.260 C36.408,28.727 33.597,31.538 30.130,31.538 C26.663,31.538 23.852,28.727 23.852,25.260 C23.852,21.792 26.663,18.982 30.130,18.982 C33.597,18.982 36.408,21.792 36.408,25.260 Z" id="path-5" class="cls-7" fill-rule="evenodd"/>
  </g>
</svg>
