<svg xmlns="http://www.w3.org/2000/svg" xmlns:xlink="http://www.w3.org/1999/xlink" preserveAspectRatio="xMidYMid" width="60" height="60" viewBox="0 0 60 60">
  <defs>
    <style>

      .cls-3 {
        fill: #ededed;
      }

      .cls-4 {
        fill: #020403;
        opacity: 0.35;
      }

      .cls-7 {
        fill: #ff3a2f;
      }
    </style>
  </defs>
  <g id="group-28svg">
    <path d="M29.442,2.061 C13.984,2.061 1.453,14.593 1.453,30.051 C1.453,45.509 13.984,58.040 29.442,58.040 C44.900,58.040 57.432,45.509 57.432,30.051 C57.432,14.593 44.900,2.061 29.442,2.061 ZM29.442,45.352 C20.992,45.352 14.142,38.501 14.142,30.051 C14.142,21.600 20.992,14.750 29.442,14.750 C37.893,14.750 44.743,21.600 44.743,30.051 C44.743,38.501 37.893,45.352 29.442,45.352 Z" id="path-1" class="cls-3" fill-rule="evenodd"/>
    <path d="M55.458,19.775 C55.458,19.775 41.615,20.808 41.615,20.808 C42.919,22.522 43.872,24.515 44.360,26.687 C44.360,26.687 57.066,25.739 57.066,25.739 C56.745,23.667 56.208,21.670 55.458,19.775 Z" id="path-2" class="cls-4" fill-rule="evenodd"/>
    <path d="M33.753,15.376 C36.179,16.088 38.352,17.381 40.115,19.098 C40.115,19.098 38.971,3.761 38.971,3.761 C36.997,3.045 34.928,2.534 32.776,2.278 C32.776,2.278 33.753,15.376 33.753,15.376 Z" id="path-3" class="cls-4" fill-rule="evenodd"/>
    <path d="M38.657,42.245 C37.001,43.499 35.086,44.421 33.002,44.919 C33.002,44.919 35.474,57.372 35.474,57.372 C37.499,56.926 39.432,56.251 41.267,55.393 C41.267,55.393 38.657,42.245 38.657,42.245 Z" id="path-4" class="cls-4" fill-rule="evenodd"/>
    <path d="M32.138,17.452 C32.138,17.452 27.883,17.452 27.883,17.452 C26.153,17.452 24.693,16.168 24.473,14.453 C24.473,14.453 23.116,3.871 23.116,3.871 C22.852,1.816 24.453,-0.004 26.525,-0.004 C26.525,-0.004 33.495,-0.004 33.495,-0.004 C35.567,-0.004 37.168,1.816 36.904,3.871 C36.904,3.871 35.547,14.453 35.547,14.453 C35.327,16.168 33.867,17.452 32.138,17.452 Z" id="path-5" class="cls-7" fill-rule="evenodd"/>
    <path d="M27.883,42.540 C27.883,42.540 32.138,42.540 32.138,42.540 C33.867,42.540 35.327,43.826 35.547,45.540 C35.547,45.540 36.904,56.122 36.904,56.122 C37.168,58.177 35.567,59.996 33.495,59.996 C33.495,59.996 26.525,59.996 26.525,59.996 C24.453,59.996 22.852,58.177 23.116,56.122 C23.116,56.122 24.473,45.540 24.473,45.540 C24.693,43.826 26.153,42.540 27.883,42.540 Z" id="path-6" class="cls-7" fill-rule="evenodd"/>
    <path d="M42.554,32.124 C42.554,32.124 42.554,27.869 42.554,27.869 C42.554,26.139 43.839,24.679 45.554,24.460 C45.554,24.460 56.135,23.102 56.135,23.102 C58.190,22.839 60.010,24.440 60.010,26.512 C60.010,26.512 60.010,33.481 60.010,33.481 C60.010,35.553 58.190,37.154 56.135,36.891 C56.135,36.891 45.554,35.534 45.554,35.534 C43.839,35.313 42.554,33.853 42.554,32.124 Z" id="path-7" class="cls-7" fill-rule="evenodd"/>
    <path d="M17.466,27.869 C17.466,27.869 17.466,32.124 17.466,32.124 C17.466,33.853 16.181,35.313 14.466,35.534 C14.466,35.534 3.885,36.891 3.885,36.891 C1.830,37.154 0.010,35.553 0.010,33.481 C0.010,33.481 0.010,26.512 0.010,26.512 C0.010,24.440 1.830,22.839 3.885,23.102 C3.885,23.102 14.466,24.460 14.466,24.460 C16.181,24.679 17.466,26.139 17.466,27.869 Z" id="path-8" class="cls-7" fill-rule="evenodd"/>
  </g>
</svg>
