<svg xmlns="http://www.w3.org/2000/svg" xmlns:xlink="http://www.w3.org/1999/xlink" preserveAspectRatio="xMidYMid" width="28" height="60" viewBox="0 0 28 60">
  <defs>
    <style>

      .cls-3 {
        fill: #ff3a2f;
      }

      .cls-4 {
        fill: #020403;
        opacity: 0.35;
      }

      .cls-5 {
        fill: #fbb713;
      }

      .cls-6 {
        fill: #ffffff;
      }

      .cls-7 {
        fill: #020403;
        opacity: 0.25;
      }
    </style>
  </defs>
  <g id="group-148svg">
    <path d="M17.472,44.845 C17.520,45.017 17.512,56.575 17.512,56.575 C17.512,58.426 16.082,59.986 14.230,59.986 C14.230,59.986 13.276,59.986 13.276,59.986 C11.424,59.986 10.165,58.426 10.165,56.575 C10.165,56.575 10.054,45.017 10.103,44.845 C10.103,44.845 17.472,44.845 17.472,44.845 Z" id="path-1" class="cls-3" fill-rule="evenodd"/>
    <path d="M17.512,50.453 C17.512,50.453 17.520,45.017 17.472,44.845 C17.472,44.845 10.103,44.845 10.103,44.845 C10.054,45.017 10.165,50.453 10.165,50.453 C10.165,50.453 17.512,50.453 17.512,50.453 Z" id="path-2" class="cls-4" fill-rule="evenodd"/>
    <path d="M27.463,46.516 C27.640,45.292 27.308,12.172 27.308,12.172 C27.308,5.410 22.258,-0.014 15.496,-0.014 C15.496,-0.014 12.010,-0.014 12.010,-0.014 C5.247,-0.014 0.369,5.410 0.369,12.172 C0.369,12.172 -0.134,45.292 0.042,46.516 C0.042,46.516 27.463,46.516 27.463,46.516 Z" id="path-3" class="cls-5" fill-rule="evenodd"/>
    <path d="M3.410,23.240 C3.403,23.240 3.396,23.240 3.389,23.240 C2.837,23.228 2.398,22.771 2.410,22.219 C2.490,18.347 2.568,15.101 2.568,15.101 C2.568,10.337 5.077,6.173 9.115,4.259 C9.613,4.023 10.210,4.235 10.447,4.734 C10.683,5.233 10.470,5.829 9.971,6.066 C6.638,7.646 4.568,11.117 4.568,15.125 C4.567,15.150 4.489,18.394 4.410,22.261 C4.398,22.805 3.953,23.240 3.410,23.240 Z" id="path-4" class="cls-6" fill-rule="evenodd"/>
    <path d="M27.308,12.172 C27.308,5.410 22.258,-0.014 15.496,-0.014 C15.496,-0.014 12.010,-0.014 12.010,-0.014 C9.073,-0.014 6.494,1.011 4.513,2.722 C5.342,2.538 6.208,2.435 7.112,2.435 C7.112,2.435 10.598,2.435 10.598,2.435 C17.360,2.435 22.410,7.859 22.410,14.622 C22.410,14.622 22.650,38.635 22.613,46.516 C22.613,46.516 27.463,46.516 27.463,46.516 C27.640,45.292 27.308,12.172 27.308,12.172 Z" id="path-5" class="cls-7" fill-rule="evenodd"/>
    <path d="M17.512,37.108 C16.960,37.108 16.512,36.660 16.512,36.108 C16.512,36.108 16.512,12.844 16.512,12.844 C16.512,12.291 16.960,11.844 17.512,11.844 C18.064,11.844 18.512,12.291 18.512,12.844 C18.512,12.844 18.512,36.108 18.512,36.108 C18.512,36.660 18.064,37.108 17.512,37.108 Z" id="path-6" class="cls-4" fill-rule="evenodd"/>
    <path d="M8.941,37.108 C8.389,37.108 7.941,36.660 7.941,36.108 C7.941,36.108 7.941,12.844 7.941,12.844 C7.941,12.291 8.389,11.844 8.941,11.844 C9.493,11.844 9.941,12.291 9.941,12.844 C9.941,12.844 9.941,36.108 9.941,36.108 C9.941,36.660 9.493,37.108 8.941,37.108 Z" id="path-7" class="cls-4" fill-rule="evenodd"/>
  </g>
</svg>
