<svg xmlns="http://www.w3.org/2000/svg" xmlns:xlink="http://www.w3.org/1999/xlink" preserveAspectRatio="xMidYMid" width="31" height="60" viewBox="0 0 31 60">
  <defs>
    <style>

      .cls-3 {
        fill: #fbb713;
      }

      .cls-4 {
        fill: #ff3a2f;
      }

      .cls-5 {
        fill: #020403;
        opacity: 0.35;
      }

      .cls-7 {
        fill: #020403;
        opacity: 0.25;
      }

      .cls-8 {
        fill: #ffffff;
      }

      .cls-9 {
        fill: #050606;
        opacity: 0.45;
      }
    </style>
  </defs>
  <g id="group-54svg">
    <path d="M30.171,11.061 C30.171,4.956 27.039,0.006 23.175,0.005 C19.311,0.006 16.179,4.956 16.179,11.061 C16.179,14.202 17.012,16.637 18.343,18.266 C18.343,18.266 18.335,18.266 18.335,18.266 C18.335,18.266 18.353,18.284 18.374,18.302 C18.750,18.757 19.167,19.146 19.616,19.472 C19.817,19.667 20.015,19.865 20.189,20.047 C21.690,21.620 21.819,22.365 21.819,22.365 C23.185,30.315 20.517,46.961 19.681,53.421 C18.848,59.869 23.159,60.005 23.175,60.005 C23.191,60.005 27.502,59.869 26.669,53.421 C25.834,46.961 23.166,30.315 24.531,22.365 C24.531,22.365 24.660,21.620 26.161,20.047 C26.335,19.865 26.533,19.667 26.734,19.472 C27.183,19.146 27.600,18.757 27.977,18.302 C27.997,18.284 28.016,18.266 28.016,18.266 C28.016,18.266 28.007,18.266 28.007,18.266 C29.338,16.637 30.171,14.202 30.171,11.061 Z" id="path-1" class="cls-3" fill-rule="evenodd"/>
    <path d="M7.814,53.421 C6.979,46.961 4.311,30.315 5.676,22.365 C5.676,22.365 6.049,20.192 7.511,20.192 C8.460,20.192 8.564,18.266 8.564,18.266 C8.564,18.266 8.634,0.378 8.085,0.378 C7.953,0.378 7.866,0.378 7.799,0.378 C7.799,0.378 7.329,6.667 7.329,17.831 C7.329,17.831 7.277,18.452 6.855,18.452 C6.434,18.452 6.351,17.852 6.351,17.852 C6.351,17.852 6.107,0.374 5.559,0.374 C5.442,0.374 5.370,0.374 5.320,0.374 C5.320,0.374 4.903,6.280 4.903,17.825 C4.903,17.832 4.906,17.839 4.906,17.846 C4.906,18.227 4.649,18.536 4.330,18.543 C4.330,18.543 4.319,18.556 4.319,18.556 C4.319,18.556 4.308,18.543 4.308,18.543 C3.989,18.536 3.732,18.227 3.732,17.846 C3.732,17.839 3.735,17.832 3.735,17.825 C3.735,6.280 3.318,0.374 3.318,0.374 C3.268,0.374 3.196,0.374 3.079,0.374 C2.530,0.374 2.287,17.852 2.287,17.852 C2.287,17.852 2.204,18.452 1.783,18.452 C1.361,18.452 1.309,17.831 1.309,17.831 C1.309,6.667 0.839,0.378 0.839,0.378 C0.772,0.378 0.685,0.378 0.553,0.378 C0.004,0.378 0.074,18.266 0.074,18.266 C0.074,18.266 0.178,20.192 1.127,20.192 C2.589,20.192 2.962,22.365 2.962,22.365 C4.327,30.315 1.659,46.961 0.824,53.421 C-0.011,59.881 4.319,60.005 4.319,60.005 C4.319,60.005 8.649,59.881 7.814,53.421 Z" id="path-2" class="cls-4" fill-rule="evenodd"/>
    <path d="M4.319,57.896 C4.042,57.896 3.819,57.673 3.819,57.396 C3.819,57.120 4.042,56.896 4.319,56.896 C4.663,56.896 4.932,56.766 5.164,56.485 C6.012,55.462 6.647,52.255 4.858,42.792 C4.858,42.792 4.799,42.483 4.799,42.483 C3.335,34.624 4.143,25.996 4.755,21.552 C4.792,21.279 5.037,21.088 5.319,21.124 C5.592,21.163 5.784,21.414 5.746,21.688 C5.142,26.072 4.344,34.580 5.783,42.299 C5.783,42.299 5.840,42.606 5.840,42.606 C7.356,50.621 7.387,55.370 5.934,57.123 C5.515,57.629 4.957,57.896 4.319,57.896 Z" id="path-3" class="cls-5" fill-rule="evenodd"/>
    <path d="M24.602,21.684 C24.602,21.684 24.521,22.255 24.381,23.253 C24.247,24.244 24.081,25.673 23.938,27.389 C23.653,30.819 23.502,35.435 24.027,40.004 C24.292,42.278 24.790,44.547 25.040,46.704 C25.316,48.855 25.471,50.881 25.429,52.619 C25.384,54.345 25.132,55.834 24.523,56.673 C24.225,57.089 23.850,57.290 23.585,57.345 C23.320,57.396 23.174,57.396 23.174,57.396 C23.174,57.396 23.321,57.392 23.582,57.335 C23.844,57.272 24.206,57.064 24.488,56.648 C25.063,55.810 25.275,54.332 25.272,52.617 C25.268,50.891 25.059,48.881 24.727,46.748 C24.420,44.610 23.864,42.373 23.531,40.067 C22.876,35.466 22.902,30.804 23.097,27.332 C23.193,25.593 23.322,24.150 23.431,23.135 C23.545,22.130 23.610,21.555 23.610,21.555 C23.610,21.555 24.602,21.684 24.602,21.684 Z" id="path-4" class="cls-5" fill-rule="evenodd"/>
    <path d="M28.079,10.226 C28.079,14.781 25.884,18.475 23.175,18.475 C20.466,18.475 18.271,14.781 18.271,10.226 C18.271,5.672 20.466,1.978 23.175,1.978 C25.884,1.978 28.079,5.672 28.079,10.226 Z" id="path-5" class="cls-7" fill-rule="evenodd"/>
    <path d="M24.170,6.450 C24.170,8.207 23.324,9.632 22.279,9.632 C21.234,9.632 20.387,8.207 20.387,6.450 C20.387,4.694 21.234,3.269 22.279,3.269 C23.324,3.269 24.170,4.694 24.170,6.450 Z" id="path-6" class="cls-8" fill-rule="evenodd"/>
    <path d="M27.454,4.647 C27.454,4.647 27.558,4.944 27.700,5.501 C27.838,6.052 28.000,6.848 28.082,7.810 C28.123,8.291 28.145,8.813 28.138,9.364 C28.121,9.934 28.098,10.469 28.021,11.087 C27.876,12.283 27.600,13.539 27.102,14.723 C26.851,15.312 26.560,15.886 26.201,16.409 C25.832,16.921 25.436,17.414 24.942,17.775 C24.457,18.142 23.911,18.401 23.357,18.498 C22.803,18.572 22.266,18.512 21.817,18.322 C20.917,17.954 20.385,17.321 20.047,16.901 C19.715,16.462 19.564,16.186 19.564,16.186 C19.564,16.186 19.729,16.455 20.080,16.874 C20.435,17.275 20.997,17.870 21.872,18.175 C22.302,18.334 22.805,18.362 23.315,18.270 C23.821,18.153 24.311,17.891 24.743,17.529 C25.186,17.173 25.537,16.687 25.859,16.187 C26.175,15.676 26.425,15.116 26.636,14.542 C27.054,13.392 27.260,12.166 27.340,11.029 C27.384,10.479 27.380,9.879 27.370,9.373 C27.351,8.848 27.305,8.354 27.243,7.902 C27.120,6.997 26.932,6.262 26.778,5.757 C26.624,5.260 26.507,4.970 26.507,4.970 C26.404,4.714 26.527,4.423 26.784,4.319 C27.040,4.215 27.331,4.339 27.435,4.596 C27.437,4.602 27.440,4.609 27.443,4.616 C27.443,4.616 27.454,4.647 27.454,4.647 Z" id="path-7" class="cls-9" fill-rule="evenodd"/>
  </g>
</svg>
