<svg xmlns="http://www.w3.org/2000/svg" xmlns:xlink="http://www.w3.org/1999/xlink" preserveAspectRatio="xMidYMid" width="57" height="60" viewBox="0 0 57 60">
  <defs>
    <style>

      .cls-3 {
        fill: #142a3b;
      }

      .cls-4 {
        fill: #ff3a2f;
      }

      .cls-5 {
        fill: #ffffff;
      }

      .cls-6 {
        fill: #fbb713;
      }

      .cls-16 {
        fill: #020403;
        opacity: 0.35;
      }
    </style>
  </defs>
  <g id="group-34svg">
    <path d="M33.481,54.526 C33.481,54.526 36.123,55.233 36.123,55.233 C36.123,55.233 42.321,32.101 42.321,32.101 C42.321,32.101 39.679,31.394 39.679,31.394 C39.679,31.394 33.481,54.526 33.481,54.526 Z" id="path-1" class="cls-3" fill-rule="evenodd"/>
    <path d="M44.856,16.165 C53.402,18.452 58.475,27.230 56.187,35.770 C56.187,35.770 25.239,27.488 25.239,27.488 C27.527,18.947 36.310,13.878 44.856,16.165 Z" id="path-2" class="cls-4" fill-rule="evenodd"/>
    <path d="M29.958,27.327 C29.873,27.327 29.786,27.316 29.699,27.293 C29.165,27.150 28.849,26.601 28.992,26.068 C30.551,20.249 36.558,16.783 42.378,18.341 C42.912,18.484 43.228,19.032 43.085,19.566 C42.942,20.099 42.395,20.415 41.861,20.273 C37.100,18.999 32.198,21.832 30.924,26.586 C30.804,27.032 30.400,27.327 29.958,27.327 Z" id="path-3" class="cls-5" fill-rule="evenodd"/>
    <path d="M4.393,56.208 C9.329,54.135 15.692,52.886 22.638,52.886 C33.149,52.886 42.328,55.747 47.242,60.000 C47.242,60.000 4.393,56.208 4.393,56.208 Z" id="path-4" class="cls-6" fill-rule="evenodd"/>
    <path d="M10.694,6.524 C10.142,6.524 9.694,6.076 9.694,5.524 C9.694,5.524 9.694,1.000 9.694,1.000 C9.694,0.448 10.142,-0.000 10.694,-0.000 C11.247,-0.000 11.694,0.448 11.694,1.000 C11.694,1.000 11.694,5.524 11.694,5.524 C11.694,6.076 11.247,6.524 10.694,6.524 Z" id="path-5" class="cls-6" fill-rule="evenodd"/>
    <path d="M10.694,21.380 C10.142,21.380 9.694,20.932 9.694,20.380 C9.694,20.380 9.694,15.856 9.694,15.856 C9.694,15.304 10.142,14.856 10.694,14.856 C11.247,14.856 11.694,15.304 11.694,15.856 C11.694,15.856 11.694,20.380 11.694,20.380 C11.694,20.932 11.247,21.380 10.694,21.380 Z" id="path-6" class="cls-6" fill-rule="evenodd"/>
    <path d="M20.391,11.690 C20.391,11.690 15.864,11.690 15.864,11.690 C15.311,11.690 14.864,11.242 14.864,10.690 C14.864,10.137 15.311,9.690 15.864,9.690 C15.864,9.690 20.391,9.690 20.391,9.690 C20.943,9.690 21.391,10.137 21.391,10.690 C21.391,11.242 20.943,11.690 20.391,11.690 Z" id="path-7" class="cls-6" fill-rule="evenodd"/>
    <path d="M5.525,11.690 C5.525,11.690 0.998,11.690 0.998,11.690 C0.446,11.690 -0.002,11.242 -0.002,10.690 C-0.002,10.137 0.446,9.690 0.998,9.690 C0.998,9.690 5.525,9.690 5.525,9.690 C6.078,9.690 6.525,10.137 6.525,10.690 C6.525,11.242 6.078,11.690 5.525,11.690 Z" id="path-8" class="cls-6" fill-rule="evenodd"/>
    <path d="M17.551,18.542 C17.295,18.542 17.039,18.444 16.844,18.249 C16.844,18.249 13.643,15.050 13.643,15.050 C13.252,14.660 13.252,14.027 13.642,13.636 C14.033,13.246 14.666,13.246 15.057,13.635 C15.057,13.635 18.258,16.834 18.258,16.834 C18.648,17.225 18.648,17.858 18.258,18.249 C18.063,18.444 17.807,18.542 17.551,18.542 Z" id="path-9" class="cls-6" fill-rule="evenodd"/>
    <path d="M7.039,8.037 C6.784,8.037 6.528,7.939 6.332,7.744 C6.332,7.744 3.131,4.545 3.131,4.545 C2.741,4.155 2.741,3.522 3.131,3.131 C3.521,2.741 4.155,2.741 4.545,3.131 C4.545,3.131 7.747,6.329 7.747,6.329 C8.137,6.720 8.137,7.353 7.747,7.744 C7.552,7.939 7.295,8.037 7.039,8.037 Z" id="path-10" class="cls-6" fill-rule="evenodd"/>
    <path d="M14.350,8.037 C14.094,8.037 13.837,7.939 13.642,7.744 C13.252,7.353 13.252,6.720 13.643,6.329 C13.643,6.329 16.844,3.131 16.844,3.131 C17.234,2.741 17.868,2.741 18.258,3.131 C18.648,3.522 18.648,4.155 18.258,4.545 C18.258,4.545 15.057,7.744 15.057,7.744 C14.861,7.939 14.605,8.037 14.350,8.037 Z" id="path-11" class="cls-6" fill-rule="evenodd"/>
    <path d="M3.838,18.542 C3.583,18.542 3.326,18.444 3.131,18.249 C2.741,17.858 2.741,17.225 3.131,16.834 C3.131,16.834 6.332,13.635 6.332,13.635 C6.723,13.246 7.356,13.245 7.747,13.636 C8.137,14.027 8.137,14.660 7.747,15.050 C7.747,15.050 4.545,18.249 4.545,18.249 C4.350,18.444 4.094,18.542 3.838,18.542 Z" id="path-12" class="cls-6" fill-rule="evenodd"/>
    <path d="M15.735,10.975 C15.735,13.757 13.478,16.013 10.694,16.013 C7.911,16.013 5.654,13.757 5.654,10.975 C5.654,8.193 7.911,5.937 10.694,5.937 C13.478,5.937 15.735,8.193 15.735,10.975 Z" id="path-13" class="cls-6" fill-rule="evenodd"/>
    <path d="M44.856,16.165 C43.341,15.759 41.820,15.596 40.327,15.631 C47.824,18.396 52.172,26.338 50.363,34.212 C50.363,34.212 56.187,35.770 56.187,35.770 C58.476,27.230 53.402,18.452 44.856,16.165 Z" id="path-14" class="cls-16" fill-rule="evenodd"/>
  </g>
</svg>
