<svg xmlns="http://www.w3.org/2000/svg" xmlns:xlink="http://www.w3.org/1999/xlink" preserveAspectRatio="xMidYMid" width="42" height="60" viewBox="0 0 42 60">
  <defs>
    <style>

      .cls-3 {
        fill: #142a3b;
      }

      .cls-5 {
        fill: #000000;
        opacity: 0.35;
      }

      .cls-6 {
        fill: #fbb713;
      }

      .cls-8 {
        fill: #ff3a2f;
      }

      .cls-10 {
        fill: #2476ff;
      }

      .cls-11 {
        fill: #221e1f;
      }
    </style>
  </defs>
  <g id="group-274svg">
    <path d="M41.725,49.776 C41.725,49.776 32.331,49.776 32.331,49.776 C32.331,49.776 32.331,29.463 32.331,29.463 C32.331,29.463 41.725,29.463 41.725,29.463 C41.725,29.463 41.725,49.776 41.725,49.776 ZM34.331,47.776 C34.331,47.776 39.725,47.776 39.725,47.776 C39.725,47.776 39.725,31.464 39.725,31.464 C39.725,31.464 34.331,31.464 34.331,31.464 C34.331,31.464 34.331,47.776 34.331,47.776 Z" id="path-1" class="cls-3" fill-rule="evenodd"/>
    <path d="M34.268,54.770 C34.268,57.659 31.907,60.002 28.995,60.002 C28.995,60.002 5.263,60.002 5.263,60.002 C2.351,60.002 -0.010,57.659 -0.010,54.770 C-0.010,54.770 -0.010,25.994 -0.010,25.994 C-0.010,25.994 34.268,25.994 34.268,25.994 C34.268,25.994 34.268,54.770 34.268,54.770 Z" id="path-2" class="cls-3" fill-rule="evenodd"/>
    <path d="M28.645,25.994 C28.645,25.994 28.645,51.020 28.645,51.020 C28.645,53.909 26.283,56.252 23.371,56.252 C23.371,56.252 0.208,56.252 0.208,56.252 C0.853,58.419 2.870,60.002 5.263,60.002 C5.263,60.002 28.995,60.002 28.995,60.002 C31.907,60.002 34.268,57.659 34.268,54.770 C34.268,54.770 34.268,25.994 34.268,25.994 C34.268,25.994 28.645,25.994 28.645,25.994 Z" id="path-3" class="cls-5" fill-rule="evenodd"/>
    <path d="M28.682,0.002 C31.403,4.119 27.371,6.378 26.433,8.587 C25.437,10.927 26.406,13.170 28.766,14.156 C36.414,17.355 38.689,2.405 28.682,0.002 Z" id="path-4" class="cls-6" fill-rule="evenodd"/>
    <path d="M26.357,25.994 C26.357,25.994 30.684,14.632 30.684,14.632 C30.684,14.632 27.965,13.732 27.965,13.732 C27.965,13.732 21.084,25.994 21.084,25.994 C21.084,25.994 26.357,25.994 26.357,25.994 Z" id="path-5" class="cls-3" fill-rule="evenodd"/>
    <path d="M13.174,25.994 C13.174,25.994 5.263,25.994 5.263,25.994 C5.263,25.994 1.308,18.147 1.308,18.147 C1.308,18.147 -0.010,10.299 -0.010,10.299 C-0.010,10.299 6.582,14.223 6.582,14.223 C6.582,14.223 13.174,25.994 13.174,25.994 Z" id="path-6" class="cls-8" fill-rule="evenodd"/>
    <path d="M2.314,18.399 C2.009,18.399 1.707,18.260 1.511,17.996 C1.182,17.553 1.273,16.926 1.716,16.596 C1.716,16.596 4.854,14.262 4.854,14.262 C5.298,13.932 5.924,14.023 6.253,14.467 C6.583,14.910 6.491,15.537 6.048,15.866 C6.048,15.866 2.911,18.201 2.911,18.201 C2.731,18.334 2.522,18.399 2.314,18.399 Z" id="path-7" class="cls-3" fill-rule="evenodd"/>
    <path d="M20.546,25.994 C20.546,25.994 20.546,14.821 20.546,14.821 C20.546,14.821 17.057,8.025 17.057,8.025 C17.057,8.025 13.978,15.370 13.978,15.370 C13.978,15.370 13.978,25.994 13.978,25.994 C13.978,25.994 20.546,25.994 20.546,25.994 Z" id="path-8" class="cls-10" fill-rule="evenodd"/>
    <path d="M19.703,16.939 C19.703,16.939 15.088,16.939 15.088,16.939 C14.536,16.939 14.088,16.491 14.088,15.939 C14.088,15.387 14.536,14.939 15.088,14.939 C15.088,14.939 19.703,14.939 19.703,14.939 C20.255,14.939 20.703,15.387 20.703,15.939 C20.703,16.491 20.255,16.939 19.703,16.939 Z" id="path-9" class="cls-11" fill-rule="evenodd"/>
  </g>
</svg>
