<svg xmlns="http://www.w3.org/2000/svg" xmlns:xlink="http://www.w3.org/1999/xlink" preserveAspectRatio="xMidYMid" width="60" height="43" viewBox="0 0 60 43">
  <defs>
    <style>

      .cls-3 {
        fill: #fbb713;
      }

      .cls-4 {
        fill: #000000;
        opacity: 0.25;
      }

      .cls-12 {
        fill: #ededed;
      }
    </style>
  </defs>
  <g id="group-299svg">
    <path d="M59.991,29.638 C59.881,24.496 46.528,23.118 38.620,23.118 C30.711,23.118 17.357,24.496 17.247,29.638 C17.247,29.638 17.237,29.638 17.237,29.638 C17.237,29.638 17.237,36.278 17.237,36.278 C17.237,41.459 30.678,42.841 38.620,42.841 C46.561,42.841 60.001,41.452 60.001,36.247 C60.001,36.247 60.001,29.638 60.001,29.638 C60.001,29.638 59.991,29.638 59.991,29.638 Z" id="path-1" class="cls-3" fill-rule="evenodd"/>
    <path d="M59.991,29.638 C59.881,24.496 46.528,23.118 38.620,23.118 C30.711,23.118 17.357,24.496 17.247,29.638 C17.247,29.638 17.237,29.638 17.237,29.638 C17.237,29.638 17.237,36.278 17.237,36.278 C17.237,41.459 30.678,42.841 38.620,42.841 C46.561,42.841 60.001,41.452 60.001,36.247 C60.001,36.247 60.001,29.638 60.001,29.638 C60.001,29.638 59.991,29.638 59.991,29.638 Z" id="path-2" class="cls-4" fill-rule="evenodd"/>
    <path d="M38.620,36.276 C30.678,36.276 17.237,34.892 17.237,29.699 C17.237,24.504 30.678,23.118 38.620,23.118 C46.561,23.118 60.001,24.504 60.001,29.699 C60.001,34.892 46.561,36.276 38.620,36.276 Z" id="path-3" class="cls-3" fill-rule="evenodd"/>
    <path d="M51.820,17.636 C51.710,12.495 38.356,11.117 30.448,11.117 C22.540,11.117 9.186,12.495 9.076,17.636 C9.076,17.636 9.066,17.636 9.066,17.636 C9.066,17.636 9.066,24.277 9.066,24.277 C9.066,29.458 22.507,30.839 30.448,30.839 C38.390,30.839 51.830,29.450 51.830,24.246 C51.830,24.246 51.830,17.636 51.830,17.636 C51.830,17.636 51.820,17.636 51.820,17.636 Z" id="path-4" class="cls-3" fill-rule="evenodd"/>
    <path d="M51.820,17.636 C51.710,12.495 38.356,11.117 30.448,11.117 C22.540,11.117 9.186,12.495 9.076,17.636 C9.076,17.636 9.066,17.636 9.066,17.636 C9.066,17.636 9.066,24.277 9.066,24.277 C9.066,29.458 22.507,30.839 30.448,30.839 C38.390,30.839 51.830,29.450 51.830,24.246 C51.830,24.246 51.830,17.636 51.830,17.636 C51.830,17.636 51.820,17.636 51.820,17.636 Z" id="path-5" class="cls-4" fill-rule="evenodd"/>
    <path d="M30.448,24.275 C22.507,24.275 9.066,22.890 9.066,17.698 C9.066,12.503 22.507,11.117 30.448,11.117 C38.390,11.117 51.830,12.503 51.830,17.698 C51.830,22.890 38.390,24.275 30.448,24.275 Z" id="path-6" class="cls-3" fill-rule="evenodd"/>
    <path d="M42.755,6.528 C42.645,1.386 29.292,0.009 21.383,0.009 C13.475,0.009 0.122,1.386 0.012,6.528 C0.012,6.528 0.001,6.528 0.001,6.528 C0.001,6.528 0.001,13.169 0.001,13.169 C0.001,18.350 13.442,19.732 21.383,19.732 C29.325,19.732 42.765,18.342 42.765,13.138 C42.765,13.138 42.765,6.528 42.765,6.528 C42.765,6.528 42.755,6.528 42.755,6.528 Z" id="path-7" class="cls-3" fill-rule="evenodd"/>
    <path d="M42.755,6.528 C42.645,1.386 29.292,0.009 21.383,0.009 C13.475,0.009 0.122,1.386 0.012,6.528 C0.012,6.528 0.001,6.528 0.001,6.528 C0.001,6.528 0.001,13.169 0.001,13.169 C0.001,18.350 13.442,19.732 21.383,19.732 C29.325,19.732 42.765,18.342 42.765,13.138 C42.765,13.138 42.765,6.528 42.765,6.528 C42.765,6.528 42.755,6.528 42.755,6.528 Z" id="path-8" class="cls-4" fill-rule="evenodd"/>
    <path d="M21.383,13.167 C13.442,13.167 0.001,11.782 0.001,6.589 C0.001,1.395 13.442,0.009 21.383,0.009 C29.325,0.009 42.765,1.395 42.765,6.589 C42.765,11.782 29.325,13.167 21.383,13.167 Z" id="path-9" class="cls-3" fill-rule="evenodd"/>
    <path d="M5.342,9.087 C4.789,9.087 4.342,8.640 4.342,8.087 C4.342,2.399 18.644,2.111 21.511,2.111 C22.063,2.111 22.511,2.559 22.511,3.111 C22.511,3.663 22.063,4.111 21.511,4.111 C14.055,4.111 6.342,5.598 6.342,8.087 C6.342,8.640 5.894,9.087 5.342,9.087 Z" id="path-10" class="cls-12" fill-rule="evenodd"/>
  </g>
</svg>
