<svg xmlns="http://www.w3.org/2000/svg" xmlns:xlink="http://www.w3.org/1999/xlink" preserveAspectRatio="xMidYMid" width="45" height="60" viewBox="0 0 45 60">
  <defs>
    <style>

      .cls-3 {
        fill: #142a3b;
      }

      .cls-4 {
        fill: #ff3a2f;
      }

      .cls-6 {
        fill: #000000;
        opacity: 0.35;
      }
    </style>
  </defs>
  <g id="group-289svg">
    <path d="M14.304,48.008 C13.751,48.008 13.304,47.561 13.304,47.008 C13.304,47.008 13.304,12.531 13.304,12.531 C13.304,12.531 43.909,0.010 43.909,0.010 C43.909,0.010 43.909,39.207 43.909,39.207 C43.909,39.759 43.461,40.207 42.909,40.207 C42.356,40.207 41.909,39.759 41.909,39.207 C41.909,39.207 41.909,2.989 41.909,2.989 C41.909,2.989 15.304,13.873 15.304,13.873 C15.304,13.873 15.304,47.008 15.304,47.008 C15.304,47.561 14.856,48.008 14.304,48.008 Z" id="path-1" class="cls-3" fill-rule="evenodd"/>
    <path d="M15.603,52.209 C15.603,56.110 12.111,60.010 7.802,60.010 C3.495,60.010 0.001,56.517 0.001,52.209 C0.001,47.901 3.495,44.408 7.802,44.408 C9.224,44.408 14.304,44.408 15.603,44.408 C15.603,47.008 15.603,49.323 15.603,52.209 Z" id="path-2" class="cls-4" fill-rule="evenodd"/>
    <path d="M44.209,41.807 C44.209,45.708 40.717,49.608 36.407,49.608 C32.101,49.608 28.606,46.116 28.606,41.807 C28.606,37.499 32.101,34.006 36.407,34.006 C37.829,34.006 42.909,34.006 44.209,34.006 C44.209,36.606 44.209,39.207 44.209,41.807 Z" id="path-3" class="cls-4" fill-rule="evenodd"/>
    <path d="M12.796,44.408 C12.796,46.304 12.796,48.158 12.796,50.337 C12.796,54.238 9.304,58.138 4.994,58.138 C4.000,58.138 3.052,57.945 2.178,57.606 C3.598,59.085 5.591,60.010 7.802,60.010 C12.111,60.010 15.603,56.110 15.603,52.209 C15.603,49.323 15.603,47.008 15.603,44.408 C15.097,44.408 14.012,44.408 12.796,44.408 Z" id="path-4" class="cls-6" fill-rule="evenodd"/>
    <path d="M41.401,34.006 C41.401,35.982 41.401,37.959 41.401,39.935 C41.401,43.836 37.909,47.736 33.600,47.736 C32.605,47.736 31.657,47.543 30.783,47.204 C32.203,48.684 34.196,49.608 36.407,49.608 C40.717,49.608 44.209,45.708 44.209,41.807 C44.209,39.207 44.209,36.606 44.209,34.006 C43.702,34.006 42.617,34.006 41.401,34.006 Z" id="path-5" class="cls-6" fill-rule="evenodd"/>
    <path d="M14.304,23.304 C13.910,23.304 13.537,23.070 13.378,22.682 C13.169,22.171 13.414,21.587 13.925,21.378 C13.925,21.378 42.530,9.676 42.530,9.676 C43.041,9.469 43.625,9.713 43.834,10.223 C44.043,10.734 43.798,11.318 43.287,11.527 C43.287,11.527 14.682,23.229 14.682,23.229 C14.559,23.280 14.430,23.304 14.304,23.304 Z" id="path-6" class="cls-3" fill-rule="evenodd"/>
  </g>
</svg>
