<svg xmlns="http://www.w3.org/2000/svg" xmlns:xlink="http://www.w3.org/1999/xlink" preserveAspectRatio="xMidYMid" width="47" height="60" viewBox="0 0 47 60">
  <defs>
    <style>

      .cls-3 {
        fill: #142a3b;
      }

      .cls-4 {
        fill: #000000;
        opacity: 0.35;
      }

      .cls-12 {
        fill: #ff3a2f;
      }
    </style>
  </defs>
  <g id="group-250svg">
    <path d="M39.119,22.365 C39.119,22.365 39.119,16.741 39.119,16.741 C39.119,16.741 33.230,16.741 33.230,16.741 C32.833,15.000 32.116,13.382 31.139,11.955 C31.139,11.955 35.379,7.713 35.379,7.713 C35.379,7.713 31.403,3.737 31.403,3.737 C31.403,3.737 27.097,8.043 27.097,8.043 C25.676,7.135 24.083,6.474 22.375,6.126 C22.375,6.126 22.375,-0.003 22.375,-0.003 C22.375,-0.003 16.751,-0.003 16.751,-0.003 C16.751,-0.003 16.751,6.126 16.751,6.126 C15.043,6.474 13.450,7.135 12.030,8.043 C12.030,8.043 7.724,3.737 7.724,3.737 C7.724,3.737 3.747,7.713 3.747,7.713 C3.747,7.713 7.988,11.955 7.988,11.955 C7.010,13.382 6.292,15.000 5.896,16.741 C5.896,16.741 0.007,16.741 0.007,16.741 C0.007,16.741 0.007,22.365 0.007,22.365 C0.007,22.365 5.769,22.365 5.769,22.365 C6.099,24.190 6.780,25.892 7.742,27.398 C7.742,27.398 3.747,31.392 3.747,31.392 C3.747,31.392 7.724,35.369 7.724,35.369 C7.724,35.369 11.653,31.440 11.653,31.440 C13.166,32.475 14.891,33.223 16.751,33.603 C16.751,33.603 16.751,39.109 16.751,39.109 C16.751,39.109 22.375,39.109 22.375,39.109 C22.375,39.109 22.375,33.603 22.375,33.603 C24.235,33.223 25.960,32.475 27.473,31.440 C27.473,31.440 31.403,35.369 31.403,35.369 C31.403,35.369 35.379,31.392 35.379,31.392 C35.379,31.392 31.385,27.398 31.385,27.398 C32.347,25.892 33.028,24.190 33.356,22.365 C33.356,22.365 39.119,22.365 39.119,22.365 ZM23.627,26.592 C23.627,26.592 15.499,26.592 15.499,26.592 C15.499,26.592 11.435,19.553 11.435,19.553 C11.435,19.553 15.499,12.513 15.499,12.513 C15.499,12.513 23.627,12.513 23.627,12.513 C23.627,12.513 27.691,19.553 27.691,19.553 C27.691,19.553 23.627,26.592 23.627,26.592 Z" id="path-1" class="cls-3" fill-rule="evenodd"/>
    <path d="M9.848,8.043 C10.298,7.756 10.770,7.503 11.253,7.267 C11.253,7.267 7.724,3.737 7.724,3.737 C7.724,3.737 6.633,4.827 6.633,4.827 C6.633,4.827 9.848,8.043 9.848,8.043 Z" id="path-2" class="cls-4" fill-rule="evenodd"/>
    <path d="M24.915,8.043 C24.915,8.043 25.691,7.267 25.691,7.267 C24.650,6.758 23.542,6.364 22.375,6.127 C22.375,6.127 22.375,-0.003 22.375,-0.003 C22.375,-0.003 20.193,-0.003 20.193,-0.003 C20.193,-0.003 20.193,6.127 20.193,6.127 C21.901,6.474 23.494,7.135 24.915,8.043 Z" id="path-3" class="cls-4" fill-rule="evenodd"/>
    <path d="M15.499,12.513 C15.499,12.513 13.317,12.513 13.317,12.513 C13.317,12.513 9.253,19.553 9.253,19.553 C9.253,19.553 13.317,26.592 13.317,26.592 C13.317,26.592 15.499,26.592 15.499,26.592 C15.499,26.592 11.435,19.553 11.435,19.553 C11.435,19.553 15.499,12.513 15.499,12.513 Z" id="path-4" class="cls-4" fill-rule="evenodd"/>
    <path d="M33.198,7.713 C33.198,7.713 28.957,11.955 28.957,11.955 C29.934,13.382 30.652,15.000 31.048,16.741 C31.048,16.741 33.230,16.741 33.230,16.741 C32.833,15.000 32.116,13.382 31.139,11.955 C31.139,11.955 35.379,7.713 35.379,7.713 C35.379,7.713 31.403,3.737 31.403,3.737 C31.403,3.737 30.312,4.827 30.312,4.827 C30.312,4.827 33.198,7.713 33.198,7.713 Z" id="path-5" class="cls-4" fill-rule="evenodd"/>
    <path d="M36.937,16.741 C36.937,16.741 36.937,22.365 36.937,22.365 C36.937,22.365 39.119,22.365 39.119,22.365 C39.119,22.365 39.119,16.741 39.119,16.741 C39.119,16.741 36.937,16.741 36.937,16.741 Z" id="path-6" class="cls-4" fill-rule="evenodd"/>
    <path d="M9.471,31.439 C9.471,31.439 6.633,34.278 6.633,34.278 C6.633,34.278 7.724,35.369 7.724,35.369 C7.724,35.369 10.838,32.255 10.838,32.255 C10.367,32.006 9.908,31.739 9.471,31.439 Z" id="path-7" class="cls-4" fill-rule="evenodd"/>
    <path d="M33.356,22.365 C33.356,22.365 31.175,22.365 31.175,22.365 C30.846,24.190 30.165,25.892 29.203,27.398 C29.203,27.398 33.198,31.392 33.198,31.392 C33.198,31.392 30.312,34.278 30.312,34.278 C30.312,34.278 31.403,35.369 31.403,35.369 C31.403,35.369 35.379,31.392 35.379,31.392 C35.379,31.392 31.385,27.398 31.385,27.398 C32.347,25.892 33.028,24.190 33.356,22.365 Z" id="path-8" class="cls-4" fill-rule="evenodd"/>
    <path d="M25.291,31.439 C23.778,32.475 22.053,33.223 20.193,33.603 C20.193,33.603 20.193,39.109 20.193,39.109 C20.193,39.109 22.375,39.109 22.375,39.109 C22.375,39.109 22.375,33.603 22.375,33.603 C23.698,33.333 24.948,32.869 26.106,32.255 C26.106,32.255 25.291,31.439 25.291,31.439 Z" id="path-9" class="cls-4" fill-rule="evenodd"/>
    <path d="M46.634,49.718 C46.634,49.718 46.634,46.265 46.634,46.265 C46.634,46.265 43.018,46.265 43.018,46.265 C42.775,45.197 42.335,44.203 41.735,43.327 C41.735,43.327 44.338,40.723 44.338,40.723 C44.338,40.723 41.897,38.282 41.897,38.282 C41.897,38.282 39.253,40.926 39.253,40.926 C38.381,40.368 37.403,39.963 36.354,39.749 C36.354,39.749 36.354,35.986 36.354,35.986 C36.354,35.986 32.902,35.986 32.902,35.986 C32.902,35.986 32.902,39.749 32.902,39.749 C31.853,39.963 30.875,40.368 30.003,40.926 C30.003,40.926 27.360,38.282 27.360,38.282 C27.360,38.282 24.918,40.723 24.918,40.723 C24.918,40.723 27.522,43.327 27.522,43.327 C26.922,44.203 26.481,45.197 26.238,46.265 C26.238,46.265 22.623,46.265 22.623,46.265 C22.623,46.265 22.623,49.718 22.623,49.718 C22.623,49.718 26.161,49.718 26.161,49.718 C26.362,50.839 26.780,51.883 27.371,52.808 C27.371,52.808 24.918,55.260 24.918,55.260 C24.918,55.260 27.360,57.702 27.360,57.702 C27.360,57.702 29.772,55.289 29.772,55.289 C30.701,55.925 31.760,56.384 32.902,56.617 C32.902,56.617 32.902,59.997 32.902,59.997 C32.902,59.997 36.354,59.997 36.354,59.997 C36.354,59.997 36.354,56.617 36.354,56.617 C37.497,56.384 38.556,55.925 39.484,55.289 C39.484,55.289 41.897,57.702 41.897,57.702 C41.897,57.702 44.338,55.260 44.338,55.260 C44.338,55.260 41.886,52.808 41.886,52.808 C42.477,51.883 42.894,50.839 43.097,49.718 C43.097,49.718 46.634,49.718 46.634,49.718 ZM37.124,52.313 C37.124,52.313 32.133,52.313 32.133,52.313 C32.133,52.313 29.638,47.991 29.638,47.991 C29.638,47.991 32.133,43.670 32.133,43.670 C32.133,43.670 37.124,43.670 37.124,43.670 C37.124,43.670 39.619,47.991 39.619,47.991 C39.619,47.991 37.124,52.313 37.124,52.313 Z" id="path-10" class="cls-12" fill-rule="evenodd"/>
    <path d="M27.822,40.925 C28.275,40.635 28.759,40.389 29.265,40.187 C29.265,40.187 27.360,38.282 27.360,38.282 C27.360,38.282 26.269,39.373 26.269,39.373 C26.269,39.373 27.822,40.925 27.822,40.925 Z" id="path-11" class="cls-4" fill-rule="evenodd"/>
    <path d="M37.072,40.925 C37.072,40.925 37.810,40.187 37.810,40.187 C37.343,40.001 36.858,39.851 36.354,39.749 C36.354,39.749 36.354,35.986 36.354,35.986 C36.354,35.986 34.173,35.986 34.173,35.986 C34.173,35.986 34.173,39.749 34.173,39.749 C35.222,39.963 36.199,40.368 37.072,40.925 Z" id="path-12" class="cls-4" fill-rule="evenodd"/>
    <path d="M42.157,40.723 C42.157,40.723 39.553,43.327 39.553,43.327 C40.153,44.203 40.594,45.197 40.837,46.265 C40.837,46.265 43.018,46.265 43.018,46.265 C42.775,45.197 42.335,44.203 41.735,43.327 C41.735,43.327 44.338,40.723 44.338,40.723 C44.338,40.723 41.897,38.282 41.897,38.282 C41.897,38.282 40.806,39.373 40.806,39.373 C40.806,39.373 42.157,40.723 42.157,40.723 Z" id="path-13" class="cls-4" fill-rule="evenodd"/>
    <path d="M32.133,43.670 C32.133,43.670 29.952,43.670 29.952,43.670 C29.952,43.670 27.456,47.992 27.456,47.992 C27.456,47.992 29.952,52.313 29.952,52.313 C29.952,52.313 32.133,52.313 32.133,52.313 C32.133,52.313 29.638,47.992 29.638,47.992 C29.638,47.992 32.133,43.670 32.133,43.670 Z" id="path-14" class="cls-4" fill-rule="evenodd"/>
    <path d="M43.096,49.717 C43.096,49.717 40.915,49.717 40.915,49.717 C40.713,50.838 40.295,51.883 39.704,52.808 C39.704,52.808 42.157,55.260 42.157,55.260 C42.157,55.260 40.806,56.611 40.806,56.611 C40.806,56.611 41.897,57.702 41.897,57.702 C41.897,57.702 44.338,55.260 44.338,55.260 C44.338,55.260 41.886,52.808 41.886,52.808 C42.477,51.883 42.894,50.838 43.096,49.717 Z" id="path-15" class="cls-4" fill-rule="evenodd"/>
    <path d="M44.452,46.265 C44.452,46.265 44.452,49.717 44.452,49.717 C44.452,49.717 46.634,49.717 46.634,49.717 C46.634,49.717 46.634,46.265 46.634,46.265 C46.634,46.265 44.452,46.265 44.452,46.265 Z" id="path-16" class="cls-4" fill-rule="evenodd"/>
    <path d="M27.591,55.289 C27.591,55.289 26.269,56.611 26.269,56.611 C26.269,56.611 27.360,57.702 27.360,57.702 C27.360,57.702 28.996,56.065 28.996,56.065 C28.502,55.848 28.031,55.590 27.591,55.289 Z" id="path-17" class="cls-4" fill-rule="evenodd"/>
    <path d="M37.303,55.289 C36.374,55.925 35.315,56.384 34.173,56.617 C34.173,56.617 34.173,59.997 34.173,59.997 C34.173,59.997 36.354,59.997 36.354,59.997 C36.354,59.997 36.354,56.617 36.354,56.617 C36.956,56.494 37.531,56.306 38.079,56.065 C38.079,56.065 37.303,55.289 37.303,55.289 Z" id="path-18" class="cls-4" fill-rule="evenodd"/>
  </g>
</svg>
