<svg xmlns="http://www.w3.org/2000/svg" xmlns:xlink="http://www.w3.org/1999/xlink" preserveAspectRatio="xMidYMid" width="58" height="61" viewBox="0 0 58 61">
  <defs>
    <style>

      .cls-3 {
        fill: #0cb04a;
      }

      .cls-5 {
        fill: #020403;
        opacity: 0.35;
      }

      .cls-13 {
        fill: #142a3b;
      }
    </style>
  </defs>
  <g id="group-150svg">
    <path d="M57.905,12.176 C57.905,5.459 51.879,0.014 44.446,0.014 C37.013,0.014 30.986,5.459 30.986,12.176 C30.986,15.177 33.548,23.384 33.581,23.487 C33.582,23.492 33.582,23.490 33.585,23.494 C35.364,26.131 36.540,30.045 36.540,35.232 C36.540,40.415 36.012,43.679 34.238,46.315 C34.232,46.323 34.230,46.332 34.230,46.342 C34.230,46.342 34.230,50.072 34.230,50.072 C34.230,55.194 38.093,59.688 43.206,59.996 C48.758,60.330 53.365,55.926 53.365,50.446 C53.365,50.446 53.365,44.487 53.365,44.487 C53.365,44.487 53.363,44.474 53.361,44.468 C52.164,41.789 52.067,39.355 52.067,35.232 C52.067,31.104 52.813,28.021 54.014,25.338 C54.014,25.338 57.905,15.797 57.905,12.176 Z" id="path-1" class="cls-3" fill-rule="evenodd"/>
    <path d="M-0.006,12.176 C-0.006,5.459 6.020,0.014 13.453,0.014 C20.886,0.014 26.913,5.459 26.913,12.176 C26.913,15.177 24.351,23.384 24.318,23.487 C24.317,23.492 24.316,23.490 24.314,23.494 C22.535,26.131 21.358,30.045 21.358,35.232 C21.358,40.415 21.887,43.679 23.661,46.315 C23.666,46.323 23.669,46.332 23.669,46.342 C23.669,46.342 23.669,50.072 23.669,50.072 C23.669,55.194 19.806,59.688 14.693,59.996 C9.141,60.330 4.534,55.926 4.534,50.446 C4.534,50.446 4.534,44.487 4.534,44.487 C4.534,44.487 4.536,44.474 4.538,44.468 C5.735,41.789 5.831,39.355 5.831,35.232 C5.831,31.104 5.086,28.021 3.885,25.338 C3.885,25.338 -0.006,15.797 -0.006,12.176 Z" id="path-2" class="cls-3" fill-rule="evenodd"/>
    <path d="M13.453,0.014 C12.863,0.014 12.286,0.060 11.716,0.127 C18.326,0.898 23.437,5.992 23.437,12.176 C23.437,15.177 20.875,23.384 20.843,23.487 C20.842,23.492 20.842,23.490 20.839,23.494 C19.061,26.131 17.884,30.045 17.884,35.232 C17.884,40.415 18.412,43.679 20.186,46.315 C20.191,46.323 20.194,46.332 20.194,46.342 C20.194,46.342 20.194,50.072 20.194,50.072 C20.194,54.802 16.896,58.990 12.366,59.845 C13.116,59.983 13.893,60.044 14.693,59.996 C19.806,59.688 23.669,55.194 23.669,50.072 C23.669,50.072 23.666,46.323 23.661,46.315 C21.887,43.679 21.358,40.415 21.358,35.232 C21.358,30.045 22.535,26.131 24.314,23.494 C24.317,23.490 24.317,23.492 24.318,23.487 C24.351,23.384 26.913,15.177 26.913,12.176 C26.913,5.459 20.886,0.014 13.453,0.014 Z" id="path-3" class="cls-5" fill-rule="evenodd"/>
    <path d="M57.905,12.176 C57.905,5.459 51.879,0.014 44.446,0.014 C43.856,0.014 43.279,0.060 42.709,0.127 C49.319,0.898 54.431,5.992 54.431,12.176 C54.431,15.797 50.539,25.338 50.539,25.338 C49.338,28.021 48.593,31.103 48.593,35.232 C48.593,39.355 48.689,41.789 49.886,44.468 C49.889,44.474 49.890,44.480 49.890,44.480 C49.890,44.480 49.890,50.446 49.890,50.446 C49.890,55.136 46.512,59.028 42.059,59.845 C42.434,59.916 42.815,59.972 43.206,59.996 C48.758,60.330 53.365,55.926 53.365,50.446 C53.365,50.446 53.365,44.487 53.365,44.487 C53.365,44.487 53.363,44.474 53.361,44.468 C52.164,41.789 52.067,39.355 52.067,35.232 C52.067,31.103 52.813,28.021 54.014,25.338 C54.014,25.338 57.905,15.797 57.905,12.176 Z" id="path-4" class="cls-5" fill-rule="evenodd"/>
    <path d="M45.520,17.171 C45.517,17.171 45.513,17.171 45.509,17.171 C44.957,17.165 44.514,16.713 44.520,16.160 C44.520,16.160 44.604,8.780 44.604,8.780 C44.611,8.232 45.057,7.792 45.604,7.792 C45.608,7.792 45.612,7.792 45.616,7.792 C46.168,7.797 46.611,8.250 46.604,8.803 C46.604,8.803 46.520,16.183 46.520,16.183 C46.514,16.731 46.068,17.171 45.520,17.171 Z" id="path-5" class="cls-5" fill-rule="evenodd"/>
    <path d="M52.112,27.908 C52.040,27.908 51.966,27.900 51.893,27.884 C51.354,27.763 51.015,27.229 51.135,26.690 C51.957,23.010 51.929,20.207 51.049,18.119 C50.101,15.868 48.117,14.434 44.986,13.735 C44.447,13.614 44.108,13.080 44.228,12.540 C44.349,12.002 44.884,11.666 45.423,11.782 C49.178,12.622 51.691,14.493 52.892,17.342 C53.939,19.826 54.003,23.027 53.087,27.126 C52.983,27.591 52.570,27.908 52.112,27.908 Z" id="path-6" class="cls-5" fill-rule="evenodd"/>
    <path d="M36.570,27.908 C36.112,27.908 35.699,27.591 35.595,27.126 C34.744,23.317 35.190,19.883 36.887,17.196 C38.587,14.505 41.497,12.634 45.302,11.782 C45.843,11.665 46.376,12.002 46.497,12.540 C46.617,13.080 46.278,13.614 45.739,13.735 C42.464,14.466 39.988,16.033 38.578,18.264 C37.170,20.495 36.813,23.408 37.547,26.690 C37.667,27.229 37.328,27.763 36.789,27.884 C36.715,27.900 36.642,27.908 36.570,27.908 Z" id="path-7" class="cls-5" fill-rule="evenodd"/>
    <path d="M14.124,17.171 C14.121,17.171 14.117,17.171 14.113,17.171 C13.560,17.165 13.118,16.713 13.124,16.160 C13.124,16.160 13.207,8.780 13.207,8.780 C13.214,8.232 13.660,7.792 14.207,7.792 C14.211,7.792 14.215,7.792 14.219,7.792 C14.771,7.797 15.214,8.250 15.207,8.803 C15.207,8.803 15.124,16.183 15.124,16.183 C15.118,16.731 14.671,17.171 14.124,17.171 Z" id="path-8" class="cls-5" fill-rule="evenodd"/>
    <path d="M20.715,27.908 C20.642,27.908 20.569,27.900 20.496,27.884 C19.956,27.763 19.618,27.229 19.738,26.690 C20.560,23.010 20.532,20.207 19.652,18.119 C18.704,15.868 16.721,14.434 13.590,13.735 C13.051,13.614 12.712,13.080 12.832,12.540 C12.953,12.002 13.487,11.666 14.026,11.782 C17.781,12.622 20.294,14.493 21.496,17.342 C22.542,19.826 22.606,23.027 21.690,27.126 C21.586,27.591 21.173,27.908 20.715,27.908 Z" id="path-9" class="cls-5" fill-rule="evenodd"/>
    <path d="M5.173,27.908 C4.715,27.908 4.302,27.591 4.198,27.126 C3.347,23.317 3.794,19.883 5.491,17.196 C7.190,14.505 10.100,12.634 13.906,11.782 C14.446,11.665 14.980,12.002 15.100,12.540 C15.220,13.080 14.881,13.614 14.342,13.735 C11.067,14.466 8.591,16.033 7.182,18.264 C5.773,20.495 5.416,23.408 6.150,26.690 C6.270,27.229 5.932,27.763 5.393,27.884 C5.319,27.900 5.246,27.908 5.173,27.908 Z" id="path-10" class="cls-5" fill-rule="evenodd"/>
    <path d="M44.446,14.858 C43.893,14.858 43.446,14.410 43.446,13.858 C43.446,13.858 43.446,4.158 43.446,4.158 C43.446,3.606 43.893,3.158 44.446,3.158 C44.998,3.158 45.446,3.606 45.446,4.158 C45.446,4.158 45.446,13.858 45.446,13.858 C45.446,14.410 44.998,14.858 44.446,14.858 Z" id="path-11" class="cls-13" fill-rule="evenodd"/>
    <path d="M53.388,27.908 C53.316,27.908 53.243,27.900 53.169,27.884 C52.630,27.763 52.291,27.229 52.411,26.690 C53.164,23.321 52.681,19.260 51.120,15.829 C49.454,12.169 46.865,9.780 43.828,9.102 C43.289,8.981 42.950,8.446 43.070,7.907 C43.191,7.368 43.727,7.031 44.265,7.149 C47.928,7.968 51.009,10.756 52.940,15.000 C54.676,18.814 55.207,23.347 54.363,27.126 C54.259,27.591 53.846,27.908 53.388,27.908 Z" id="path-12" class="cls-13" fill-rule="evenodd"/>
    <path d="M35.268,27.908 C34.810,27.908 34.397,27.591 34.293,27.126 C33.444,23.329 33.928,18.801 35.587,15.013 C37.449,10.759 40.488,7.967 44.144,7.149 C44.686,7.030 45.218,7.368 45.338,7.907 C45.458,8.446 45.120,8.981 44.580,9.102 C41.562,9.776 39.019,12.160 37.419,15.815 C35.925,19.228 35.486,23.293 36.245,26.690 C36.365,27.229 36.026,27.763 35.487,27.884 C35.414,27.900 35.340,27.908 35.268,27.908 Z" id="path-13" class="cls-13" fill-rule="evenodd"/>
    <path d="M13.453,14.858 C12.901,14.858 12.453,14.410 12.453,13.858 C12.453,13.858 12.453,4.158 12.453,4.158 C12.453,3.606 12.901,3.158 13.453,3.158 C14.005,3.158 14.453,3.606 14.453,4.158 C14.453,4.158 14.453,13.858 14.453,13.858 C14.453,14.410 14.005,14.858 13.453,14.858 Z" id="path-14" class="cls-13" fill-rule="evenodd"/>
    <path d="M22.631,27.908 C22.559,27.908 22.485,27.900 22.412,27.884 C21.873,27.763 21.534,27.229 21.654,26.690 C22.401,23.346 21.876,19.290 20.250,15.841 C18.523,12.177 15.890,9.784 12.835,9.102 C12.296,8.981 11.957,8.446 12.077,7.907 C12.198,7.368 12.731,7.031 13.271,7.149 C16.942,7.970 20.063,10.754 22.059,14.987 C23.869,18.825 24.447,23.363 23.606,27.126 C23.502,27.591 23.089,27.908 22.631,27.908 Z" id="path-15" class="cls-13" fill-rule="evenodd"/>
    <path d="M4.513,27.908 C4.055,27.908 3.642,27.591 3.538,27.126 C1.740,19.079 5.334,8.826 12.835,7.149 C13.375,7.030 13.909,7.368 14.029,7.907 C14.149,8.446 13.811,8.981 13.271,9.102 C6.887,10.528 3.897,19.564 5.490,26.690 C5.610,27.229 5.270,27.763 4.732,27.884 C4.658,27.900 4.585,27.908 4.513,27.908 Z" id="path-16" class="cls-13" fill-rule="evenodd"/>
  </g>
</svg>
