<svg xmlns="http://www.w3.org/2000/svg" xmlns:xlink="http://www.w3.org/1999/xlink" preserveAspectRatio="xMidYMid" width="43" height="60" viewBox="0 0 43 60">
  <defs>
    <style>

      .cls-3 {
        fill: #fbb713;
      }

      .cls-4 {
        fill: #020403;
        opacity: 0.25;
      }

      .cls-5 {
        fill: #000000;
        opacity: 0.35;
      }

      .cls-6 {
        fill: #142a3b;
      }

      .cls-9 {
        fill: #ffffff;
      }
    </style>
  </defs>
  <g id="group-134svg">
    <path d="M36.507,44.607 C39.282,37.967 39.939,30.691 40.063,26.660 C40.121,24.796 38.626,23.000 36.762,23.000 C36.762,23.000 5.968,23.000 5.968,23.000 C4.104,23.000 2.609,24.475 2.667,26.338 C2.909,34.199 5.177,54.000 21.215,59.000 C21.215,59.000 21.515,59.000 21.515,59.000 C33.270,55.000 36.507,44.607 36.507,44.607 Z" id="path-1" class="cls-3" fill-rule="evenodd"/>
    <path d="M37.576,22.837 C37.355,27.019 36.577,33.539 34.077,39.522 C34.077,39.522 30.840,50.048 19.084,54.302 C19.084,54.302 18.785,54.302 18.785,54.302 C12.939,52.530 8.929,48.721 6.173,44.219 C8.800,50.710 13.349,56.779 21.215,59.163 C21.215,59.163 21.515,59.163 21.515,59.163 C33.270,54.910 36.507,44.384 36.507,44.384 C39.282,37.743 39.939,30.431 40.063,26.400 C40.112,24.819 39.040,23.273 37.576,22.837 Z" id="path-2" class="cls-4" fill-rule="evenodd"/>
    <path d="M2.667,27.012 C2.707,28.337 2.816,26.611 3.029,28.478 C3.029,28.478 39.725,31.884 39.725,31.884 C39.920,30.117 40.024,28.522 40.063,27.252 C40.085,26.539 39.877,25.868 39.512,25.309 C39.512,25.309 3.122,25.309 3.122,25.309 C2.821,25.795 2.647,26.370 2.667,27.012 Z" id="path-3" class="cls-5" fill-rule="evenodd"/>
    <path d="M2.665,26.457 C0.190,26.525 0.098,24.647 0.098,24.647 C-1.264,15.213 12.233,9.816 12.233,9.816 C15.000,8.798 18.096,8.229 21.365,8.229 C33.110,8.229 42.632,15.580 42.632,24.647 C42.632,24.647 42.558,26.044 40.426,26.457 C40.426,26.457 40.426,26.457 40.426,26.457 " id="path-4" class="cls-6" fill-rule="evenodd"/>
    <path d="M26.022,8.637 C31.645,11.591 35.340,16.570 35.340,22.217 C35.340,22.217 35.266,23.613 33.134,24.026 C33.134,24.026 0.038,24.026 0.038,24.026 C0.053,24.232 0.068,24.438 0.098,24.648 C0.098,24.648 0.190,26.525 2.665,26.457 C2.665,26.457 40.426,26.457 40.426,26.457 C42.558,26.044 42.632,24.648 42.632,24.648 C42.632,16.817 35.524,10.277 26.022,8.637 Z" id="path-5" class="cls-5" fill-rule="evenodd"/>
    <path d="M21.250,10.000 C20.698,10.000 20.250,9.552 20.250,9.000 C20.250,9.000 20.250,1.000 20.250,1.000 C20.250,0.448 20.698,-0.000 21.250,-0.000 C21.802,-0.000 22.250,0.448 22.250,1.000 C22.250,1.000 22.250,9.000 22.250,9.000 C22.250,9.552 21.802,10.000 21.250,10.000 Z" id="path-6" class="cls-6" fill-rule="evenodd"/>
    <path d="M5.217,21.427 C5.106,21.427 4.993,21.409 4.882,21.370 C4.363,21.185 4.091,20.615 4.274,20.096 C4.304,20.012 7.349,11.691 16.746,11.529 C17.299,11.514 17.753,11.960 17.763,12.511 C17.772,13.064 17.332,13.519 16.780,13.529 C8.798,13.666 6.263,20.475 6.159,20.764 C6.013,21.172 5.627,21.427 5.217,21.427 Z" id="path-7" class="cls-9" fill-rule="evenodd"/>
  </g>
</svg>
