<svg xmlns="http://www.w3.org/2000/svg" xmlns:xlink="http://www.w3.org/1999/xlink" preserveAspectRatio="xMidYMid" width="46" height="60" viewBox="0 0 46 60">
  <defs>
    <style>

      .cls-3 {
        fill: #fbb713;
      }

      .cls-6 {
        fill: #000000;
        opacity: 0.35;
      }
    </style>
  </defs>
  <g id="group-252svg">
    <path d="M5.887,16.851 C8.915,19.879 23.290,23.288 23.290,23.288 C23.290,23.288 19.881,8.913 16.853,5.885 C13.825,2.857 -0.011,-0.013 -0.011,-0.013 C-0.011,-0.013 2.859,13.823 5.887,16.851 Z" id="path-1" class="cls-3" fill-rule="evenodd"/>
    <path d="M39.823,16.851 C36.795,19.879 22.421,23.288 22.421,23.288 C22.421,23.288 25.829,8.913 28.857,5.885 C31.886,2.857 45.722,-0.013 45.722,-0.013 C45.722,-0.013 42.852,13.823 39.823,16.851 Z" id="path-2" class="cls-3" fill-rule="evenodd"/>
    <path d="M5.887,39.283 C8.915,42.311 23.290,45.720 23.290,45.720 C23.290,45.720 19.881,31.345 16.853,28.317 C13.825,25.289 -0.011,22.419 -0.011,22.419 C-0.011,22.419 2.859,36.255 5.887,39.283 Z" id="path-3" class="cls-3" fill-rule="evenodd"/>
    <path d="M8.069,15.760 C5.690,13.381 3.409,4.335 2.540,0.564 C1.005,0.198 -0.011,-0.013 -0.011,-0.013 C-0.011,-0.013 2.859,13.823 5.887,16.851 C8.915,19.879 23.290,23.288 23.290,23.288 C23.290,23.288 23.130,22.614 22.849,21.530 C18.558,20.390 10.283,17.974 8.069,15.760 Z" id="path-4" class="cls-6" fill-rule="evenodd"/>
    <path d="M8.069,38.192 C5.690,35.813 3.409,26.767 2.540,22.996 C1.005,22.630 -0.011,22.419 -0.011,22.419 C-0.011,22.419 2.859,36.255 5.887,39.283 C8.915,42.311 23.290,45.720 23.290,45.720 C23.290,45.720 23.130,45.046 22.849,43.962 C18.558,42.822 10.283,40.406 8.069,38.192 Z" id="path-5" class="cls-6" fill-rule="evenodd"/>
    <path d="M39.823,39.283 C36.795,42.311 22.421,45.720 22.421,45.720 C22.421,45.720 25.829,31.345 28.857,28.317 C31.886,25.289 45.722,22.419 45.722,22.419 C45.722,22.419 42.852,36.255 39.823,39.283 Z" id="path-6" class="cls-3" fill-rule="evenodd"/>
    <path d="M42.014,0.845 C41.101,4.765 38.873,13.438 36.551,15.760 C34.525,17.786 27.425,19.981 22.944,21.213 C22.613,22.479 22.421,23.288 22.421,23.288 C22.421,23.288 36.795,19.879 39.823,16.851 C42.852,13.823 45.722,-0.013 45.722,-0.013 C45.722,-0.013 44.178,0.307 42.014,0.845 Z" id="path-7" class="cls-6" fill-rule="evenodd"/>
    <path d="M42.014,23.277 C41.101,27.197 38.873,35.870 36.551,38.192 C34.525,40.218 27.425,42.413 22.944,43.645 C22.613,44.911 22.421,45.720 22.421,45.720 C22.421,45.720 36.795,42.311 39.823,39.283 C42.852,36.255 45.722,22.419 45.722,22.419 C45.722,22.419 44.178,22.739 42.014,23.277 Z" id="path-8" class="cls-6" fill-rule="evenodd"/>
    <path d="M24.162,59.986 C24.162,59.986 22.146,59.986 22.146,59.986 C22.146,59.986 22.146,4.933 22.146,4.933 C22.146,4.933 24.162,4.933 24.162,4.933 C24.162,4.933 24.162,59.986 24.162,59.986 Z" id="path-9" class="cls-3" fill-rule="evenodd"/>
  </g>
</svg>
