<svg xmlns="http://www.w3.org/2000/svg" xmlns:xlink="http://www.w3.org/1999/xlink" preserveAspectRatio="xMidYMid" width="57" height="61" viewBox="0 0 57 61">
  <defs>
    <style>

      .cls-3 {
        fill: #142a3b;
      }

      .cls-4 {
        fill: #060606;
        opacity: 0.35;
      }

      .cls-7 {
        fill: #fbb713;
      }

      .cls-8 {
        fill: #ededed;
      }
    </style>
  </defs>
  <g id="group-188svg">
    <path d="M42.938,5.122 C37.315,5.122 32.402,3.290 29.746,0.561 C28.983,-0.221 27.710,-0.221 26.948,0.561 C24.291,3.290 19.378,5.122 13.755,5.122 C9.590,5.122 5.821,4.115 3.067,2.483 C1.712,1.681 -0.001,2.595 -0.001,4.170 C-0.001,4.170 -0.001,28.633 -0.001,28.633 C-0.001,45.942 12.691,59.974 28.347,59.974 C44.002,59.974 56.694,45.942 56.694,28.633 C56.694,28.633 56.666,12.129 56.622,4.204 C56.613,2.641 54.917,1.729 53.567,2.520 C50.818,4.130 47.073,5.122 42.938,5.122 Z" id="path-1" class="cls-3" fill-rule="evenodd"/>
    <path d="M24.737,2.565 C27.394,5.294 32.308,7.126 37.931,7.126 C42.065,7.126 45.810,6.133 48.559,4.523 C48.647,4.472 48.740,4.446 48.831,4.408 C47.019,4.867 45.029,5.122 42.938,5.122 C37.315,5.122 32.402,3.290 29.746,0.561 C28.983,-0.221 27.710,-0.221 26.948,0.561 C26.286,1.242 25.482,1.866 24.564,2.420 C24.622,2.468 24.684,2.509 24.737,2.565 Z" id="path-2" class="cls-4" fill-rule="evenodd"/>
    <path d="M8.747,7.126 C12.961,7.126 16.776,6.096 19.542,4.431 C17.756,4.873 15.805,5.122 13.755,5.122 C9.590,5.122 5.821,4.115 3.067,2.483 C1.712,1.681 -0.001,2.595 -0.001,4.170 C-0.001,4.170 -0.001,5.452 -0.001,5.452 C2.477,6.502 5.486,7.126 8.747,7.126 Z" id="path-3" class="cls-4" fill-rule="evenodd"/>
    <path d="M56.622,4.204 C56.613,2.641 54.917,1.729 53.567,2.520 C52.331,3.244 50.887,3.834 49.304,4.274 C50.460,4.097 51.606,4.923 51.614,6.208 C51.658,14.132 51.685,30.637 51.685,30.637 C51.685,43.167 45.033,53.975 35.422,58.990 C47.654,55.515 56.693,43.241 56.693,28.633 C56.693,28.633 56.666,12.129 56.622,4.204 Z" id="path-4" class="cls-4" fill-rule="evenodd"/>
    <path d="M28.347,6.986 C27.957,6.986 27.567,7.136 27.275,7.436 C25.239,9.527 21.474,10.930 17.165,10.930 C13.974,10.930 11.085,10.158 8.976,8.908 C7.937,8.293 6.625,8.994 6.625,10.201 C6.625,10.201 6.625,28.947 6.625,28.947 C6.625,29.029 6.630,29.110 6.630,29.192 C6.630,29.192 28.347,29.192 28.347,29.192 C28.347,29.192 28.347,6.986 28.347,6.986 Z" id="path-5" class="cls-7" fill-rule="evenodd"/>
    <path d="M28.347,29.192 C28.347,29.192 28.347,52.963 28.347,52.963 C40.269,52.963 49.943,42.342 50.063,29.192 C50.063,29.192 28.347,29.192 28.347,29.192 Z" id="path-6" class="cls-8" fill-rule="evenodd"/>
    <path d="M16.528,48.343 C16.329,48.343 16.127,48.283 15.952,48.160 C12.606,45.796 9.958,42.683 8.296,39.158 C8.061,38.659 8.274,38.062 8.774,37.827 C9.274,37.592 9.869,37.806 10.105,38.305 C11.621,41.518 14.041,44.361 17.106,46.526 C17.558,46.845 17.665,47.469 17.346,47.920 C17.151,48.195 16.842,48.343 16.528,48.343 Z" id="path-7" class="cls-8" fill-rule="evenodd"/>
  </g>
</svg>
