<svg xmlns="http://www.w3.org/2000/svg" xmlns:xlink="http://www.w3.org/1999/xlink" preserveAspectRatio="xMidYMid" width="60" height="43" viewBox="0 0 60 43">
  <defs>
    <style>

      .cls-3 {
        fill: #0cb04a;
      }

      .cls-4 {
        fill: #020403;
        opacity: 0.35;
      }

      .cls-5 {
        fill: #ededed;
      }

      .cls-7 {
        fill: #142a3b;
      }

      .cls-9 {
        fill: #ff3a2f;
      }
    </style>
  </defs>
  <g id="group-127svg">
    <path d="M58.360,42.909 C58.360,42.909 1.610,42.909 1.610,42.909 C0.713,42.909 -0.015,42.181 -0.015,41.283 C-0.015,41.283 -0.015,8.721 -0.015,8.721 C-0.015,7.823 0.713,7.096 1.610,7.096 C1.610,7.096 58.360,7.096 58.360,7.096 C59.258,7.096 59.985,7.823 59.985,8.721 C59.985,8.721 59.985,41.283 59.985,41.283 C59.985,42.181 59.258,42.909 58.360,42.909 Z" id="path-1" class="cls-3" fill-rule="evenodd"/>
    <path d="M57.957,7.096 C57.957,7.096 56.240,7.096 56.240,7.096 C56.240,7.096 56.240,38.383 56.240,38.383 C56.240,39.503 55.332,40.411 54.212,40.411 C54.212,40.411 -0.015,40.411 -0.015,40.411 C-0.015,40.411 -0.015,40.879 -0.015,40.879 C-0.015,42.000 0.894,42.909 2.014,42.909 C2.014,42.909 57.957,42.909 57.957,42.909 C59.077,42.909 59.985,42.000 59.985,40.879 C59.985,40.879 59.985,9.124 59.985,9.124 C59.985,8.004 59.077,7.096 57.957,7.096 Z" id="path-2" class="cls-4" fill-rule="evenodd"/>
    <path d="M50.779,24.651 C50.779,16.593 44.247,10.060 36.188,10.060 C28.130,10.060 21.598,16.593 21.598,24.651 C21.598,32.709 28.130,39.241 36.188,39.241 C44.247,39.241 50.779,32.709 50.779,24.651 Z" id="path-3" class="cls-5" fill-rule="evenodd"/>
    <path d="M36.188,9.983 C35.767,9.983 35.353,10.011 34.940,10.046 C42.413,10.680 48.282,16.936 48.282,24.573 C48.282,32.210 42.413,38.466 34.940,39.100 C35.353,39.135 35.767,39.163 36.188,39.163 C44.247,39.163 50.779,32.631 50.779,24.573 C50.779,16.514 44.247,9.983 36.188,9.983 Z" id="path-4" class="cls-4" fill-rule="evenodd"/>
    <path d="M26.202,24.403 C25.649,24.403 25.202,23.955 25.202,23.403 C25.202,18.382 29.286,14.297 34.307,14.297 C34.859,14.297 35.307,14.744 35.307,15.297 C35.307,15.849 34.859,16.297 34.307,16.297 C30.389,16.297 27.202,19.484 27.202,23.403 C27.202,23.955 26.754,24.403 26.202,24.403 Z" id="path-5" class="cls-7" fill-rule="evenodd"/>
    <path d="M18.062,17.000 C18.062,17.552 17.615,18.000 17.062,18.000 C17.062,18.000 10.062,18.000 10.062,18.000 C9.510,18.000 9.062,17.552 9.062,17.000 C9.062,17.000 9.062,14.000 9.062,14.000 C9.062,13.448 9.510,13.000 10.062,13.000 C10.062,13.000 17.062,13.000 17.062,13.000 C17.615,13.000 18.062,13.448 18.062,14.000 C18.062,14.000 18.062,17.000 18.062,17.000 Z" id="path-6" class="cls-4" fill-rule="evenodd"/>
    <path d="M16.062,16.000 C16.062,16.552 15.615,17.000 15.062,17.000 C15.062,17.000 8.062,17.000 8.062,17.000 C7.510,17.000 7.062,16.552 7.062,16.000 C7.062,16.000 7.062,13.000 7.062,13.000 C7.062,12.448 7.510,12.000 8.062,12.000 C8.062,12.000 15.062,12.000 15.062,12.000 C15.615,12.000 16.062,12.448 16.062,13.000 C16.062,13.000 16.062,16.000 16.062,16.000 Z" id="path-7" class="cls-9" fill-rule="evenodd"/>
    <path d="M49.920,7.000 C49.920,7.000 22.456,7.000 22.456,7.000 C22.456,7.000 23.705,-0.000 23.705,-0.000 C23.705,-0.000 48.672,-0.000 48.672,-0.000 C48.672,-0.000 49.920,7.000 49.920,7.000 Z" id="path-8" class="cls-7" fill-rule="evenodd"/>
    <path d="M48.672,-0.000 C48.672,-0.000 45.343,-0.000 45.343,-0.000 C45.343,-0.000 45.525,0.699 45.525,0.699 C45.866,2.740 44.292,4.598 42.222,4.598 C42.222,4.598 22.621,6.109 22.621,6.109 C22.621,6.109 22.456,7.096 22.456,7.096 C22.456,7.096 49.920,7.096 49.920,7.096 C49.920,7.096 48.672,-0.000 48.672,-0.000 Z" id="path-9" class="cls-4" fill-rule="evenodd"/>
    <path d="M16.062,7.000 C16.062,7.000 9.062,7.000 9.062,7.000 C9.062,7.000 9.062,5.000 9.062,5.000 C9.062,5.000 16.062,5.000 16.062,5.000 C16.062,5.000 16.062,7.000 16.062,7.000 Z" id="path-10" class="cls-7" fill-rule="evenodd"/>
  </g>
</svg>
