<svg xmlns="http://www.w3.org/2000/svg" xmlns:xlink="http://www.w3.org/1999/xlink" preserveAspectRatio="xMidYMid" width="45" height="60" viewBox="0 0 45 60">
  <defs>
    <style>

      .cls-3 {
        fill: #2476ff;
      }

      .cls-5 {
        fill: #000000;
        opacity: 0.35;
      }
    </style>
  </defs>
  <g id="group-297svg">
    <path d="M43.745,59.992 C43.745,59.992 1.245,59.992 1.245,59.992 C0.554,59.992 -0.005,59.432 -0.005,58.741 C-0.005,58.741 -0.005,15.196 -0.005,15.196 C-0.005,14.901 0.100,14.616 0.290,14.390 C0.290,14.390 12.093,0.434 12.093,0.434 C12.331,0.154 12.680,-0.008 13.047,-0.008 C13.047,-0.008 43.745,-0.008 43.745,-0.008 C44.435,-0.008 44.995,0.550 44.995,1.241 C44.995,1.241 44.995,58.741 44.995,58.741 C44.995,59.432 44.435,59.992 43.745,59.992 Z" id="path-1" class="cls-3" fill-rule="evenodd"/>
    <path d="M12.495,-0.008 C12.495,-0.008 12.495,13.742 12.495,13.742 C12.495,14.432 11.935,14.991 11.245,14.991 C11.245,14.991 -0.005,14.991 -0.005,14.991 C-0.005,14.991 12.495,-0.008 12.495,-0.008 Z" id="path-2" class="cls-3" fill-rule="evenodd"/>
    <path d="M12.495,-0.008 C12.495,-0.008 12.495,13.742 12.495,13.742 C12.495,14.432 11.935,14.991 11.245,14.991 C11.245,14.991 -0.005,14.991 -0.005,14.991 C-0.005,14.991 12.495,-0.008 12.495,-0.008 Z" id="path-3" class="cls-5" fill-rule="evenodd"/>
  </g>
</svg>
