<svg xmlns="http://www.w3.org/2000/svg" xmlns:xlink="http://www.w3.org/1999/xlink" preserveAspectRatio="xMidYMid" width="58" height="61" viewBox="0 0 58 61">
  <defs>
    <style>

      .cls-3 {
        fill: #142a3b;
      }

      .cls-5 {
        fill: #ff3a2f;
      }

      .cls-6 {
        fill: #ededed;
      }

      .cls-9 {
        fill: #020403;
        opacity: 0.25;
      }
    </style>
  </defs>
  <g id="group-130svg">
    <path d="M45.564,60.012 C45.184,60.012 44.822,59.794 44.654,59.427 C44.654,59.427 41.705,52.966 41.705,52.966 C41.475,52.464 41.697,51.870 42.200,51.642 C42.700,51.412 43.295,51.633 43.524,52.136 C43.524,52.136 46.473,58.596 46.473,58.596 C46.703,59.098 46.481,59.692 45.978,59.921 C45.844,59.983 45.703,60.012 45.564,60.012 Z" id="path-1" class="cls-3" fill-rule="evenodd"/>
    <path d="M9.847,60.012 C9.707,60.012 9.566,59.983 9.432,59.921 C8.930,59.692 8.708,59.098 8.937,58.596 C8.937,58.596 11.886,52.136 11.886,52.136 C12.116,51.633 12.710,51.412 13.211,51.642 C13.713,51.870 13.935,52.464 13.706,52.966 C13.706,52.966 10.757,59.427 10.757,59.427 C10.589,59.794 10.226,60.012 9.847,60.012 Z" id="path-2" class="cls-3" fill-rule="evenodd"/>
    <path d="M57.271,28.646 C57.271,44.460 44.451,57.280 28.637,57.280 C12.822,57.280 0.002,44.460 0.002,28.646 C0.002,12.831 12.822,0.011 28.637,0.011 C44.451,0.011 57.271,12.831 57.271,28.646 Z" id="path-3" class="cls-5" fill-rule="evenodd"/>
    <path d="M50.172,28.646 C50.172,40.539 40.530,50.181 28.637,50.181 C16.744,50.181 7.102,40.539 7.102,28.646 C7.102,16.752 16.744,7.111 28.637,7.111 C40.530,7.111 50.172,16.752 50.172,28.646 Z" id="path-4" class="cls-6" fill-rule="evenodd"/>
    <path d="M42.129,28.646 C42.129,36.097 36.088,42.138 28.637,42.138 C21.185,42.138 15.145,36.097 15.145,28.646 C15.145,21.194 21.185,15.154 28.637,15.154 C36.088,15.154 42.129,21.194 42.129,28.646 Z" id="path-5" class="cls-5" fill-rule="evenodd"/>
    <path d="M34.595,28.646 C34.595,31.936 31.928,34.604 28.637,34.604 C25.347,34.604 22.679,31.936 22.679,28.646 C22.679,25.355 25.347,22.688 28.637,22.688 C31.928,22.688 34.595,25.355 34.595,28.646 Z" id="path-6" class="cls-6" fill-rule="evenodd"/>
    <path d="M37.334,1.361 C43.516,6.613 47.441,14.438 47.441,23.184 C47.441,38.999 34.621,51.819 18.807,51.819 C15.774,51.819 12.853,51.344 10.109,50.470 C15.104,54.714 21.569,57.280 28.637,57.280 C44.451,57.280 57.271,44.460 57.271,28.646 C57.271,15.865 48.895,5.043 37.334,1.361 Z" id="path-7" class="cls-9" fill-rule="evenodd"/>
  </g>
</svg>
