<svg xmlns="http://www.w3.org/2000/svg" xmlns:xlink="http://www.w3.org/1999/xlink" preserveAspectRatio="xMidYMid" width="39" height="60" viewBox="0 0 39 60">
  <defs>
    <style>

      .cls-3 {
        fill: #ff3a2f;
      }

      .cls-10 {
        fill: #2476ff;
      }

      .cls-11 {
        fill: #060606;
        opacity: 0.35;
      }
    </style>
  </defs>
  <g id="group-208svg">
    <path d="M19.195,17.790 C21.314,17.790 23.033,16.068 23.033,13.952 C23.033,11.835 21.314,10.114 19.195,10.114 C17.081,10.114 15.357,11.835 15.357,13.952 C15.357,16.068 17.081,17.790 19.195,17.790 ZM19.195,12.673 C19.902,12.673 20.475,13.247 20.475,13.952 C20.475,14.657 19.902,15.231 19.195,15.231 C18.490,15.231 17.916,14.657 17.916,13.952 C17.916,13.247 18.490,12.673 19.195,12.673 Z" id="path-1" class="cls-3" fill-rule="evenodd"/>
    <path d="M12.863,20.284 C13.113,20.534 13.443,20.659 13.768,20.659 C14.098,20.659 14.422,20.534 14.672,20.284 C15.172,19.784 15.172,18.975 14.672,18.475 C13.463,17.265 12.798,15.661 12.798,13.952 C12.798,12.242 13.463,10.638 14.672,9.429 C15.172,8.930 15.172,8.120 14.672,7.620 C14.172,7.120 13.363,7.120 12.863,7.620 C11.172,9.311 10.240,11.560 10.240,13.952 C10.240,16.343 11.174,18.592 12.863,20.284 Z" id="path-2" class="cls-3" fill-rule="evenodd"/>
    <path d="M23.718,20.284 C23.968,20.534 24.298,20.659 24.623,20.659 C24.952,20.659 25.277,20.534 25.527,20.284 C27.221,18.592 28.153,16.343 28.153,13.952 C28.150,11.560 27.221,9.311 25.527,7.620 C25.027,7.120 24.218,7.120 23.718,7.620 C23.218,8.120 23.218,8.930 23.718,9.429 C24.927,10.638 25.595,12.242 25.595,13.952 C25.595,15.661 24.927,17.265 23.718,18.475 C23.218,18.975 23.218,19.784 23.718,20.284 Z" id="path-3" class="cls-3" fill-rule="evenodd"/>
    <path d="M9.245,23.902 C9.495,24.152 9.825,24.277 10.150,24.277 C10.479,24.277 10.804,24.152 11.054,23.902 C11.554,23.402 11.554,22.593 11.054,22.093 C8.880,19.919 7.681,17.028 7.681,13.952 C7.681,10.878 8.878,7.987 11.054,5.811 C11.554,5.311 11.554,4.502 11.054,4.002 C10.555,3.502 9.745,3.502 9.245,4.002 C6.586,6.660 5.122,10.194 5.122,13.952 C5.122,17.710 6.586,21.243 9.245,23.902 Z" id="path-4" class="cls-3" fill-rule="evenodd"/>
    <path d="M30.712,13.952 C30.712,17.028 29.515,19.919 27.336,22.093 C26.836,22.593 26.836,23.402 27.336,23.902 C27.586,24.152 27.916,24.277 28.241,24.277 C28.570,24.277 28.895,24.152 29.145,23.902 C31.806,21.243 33.271,17.710 33.271,13.952 C33.268,10.194 31.804,6.660 29.145,4.002 C28.645,3.502 27.836,3.502 27.336,4.002 C26.836,4.502 26.836,5.311 27.336,5.811 C29.512,7.987 30.712,10.876 30.712,13.952 Z" id="path-5" class="cls-3" fill-rule="evenodd"/>
    <path d="M6.531,27.895 C6.856,27.895 7.186,27.770 7.436,27.520 C7.935,27.020 7.935,26.211 7.436,25.711 C4.292,22.570 2.563,18.394 2.563,13.954 C2.563,9.514 4.292,5.336 7.436,2.193 C7.935,1.693 7.935,0.883 7.436,0.383 C6.936,-0.117 6.127,-0.117 5.627,0.383 C1.999,4.010 0.002,8.829 0.005,13.954 C0.005,19.079 2.001,23.897 5.627,27.520 C5.877,27.770 6.202,27.895 6.531,27.895 Z" id="path-6" class="cls-3" fill-rule="evenodd"/>
    <path d="M35.832,13.949 C35.832,18.392 34.100,22.568 30.959,25.711 C30.459,26.211 30.459,27.020 30.959,27.520 C31.209,27.770 31.534,27.895 31.864,27.895 C32.188,27.895 32.518,27.770 32.769,27.520 C36.392,23.895 38.391,19.074 38.391,13.949 C38.388,8.825 36.392,4.007 32.769,0.383 C32.269,-0.117 31.459,-0.117 30.959,0.383 C30.459,0.883 30.459,1.693 30.959,2.193 C34.098,5.334 35.832,9.509 35.832,13.949 Z" id="path-7" class="cls-3" fill-rule="evenodd"/>
    <path d="M20.314,19.639 C19.837,18.925 18.605,18.929 18.131,19.639 C17.991,19.854 17.918,20.098 17.916,20.344 C1.994,58.585 2.039,58.649 2.563,59.439 C2.804,59.794 3.203,60.009 3.633,60.009 C3.633,60.009 34.972,60.009 34.972,60.009 C35.399,60.009 35.802,59.794 36.039,59.436 C36.566,58.644 36.611,58.579 20.557,20.284 C20.529,20.058 20.444,19.834 20.314,19.639 Z" id="path-8" class="cls-10" fill-rule="evenodd"/>
    <path d="M20.557,20.284 C20.529,20.058 20.444,19.834 20.314,19.639 C19.837,18.925 18.605,18.929 18.131,19.639 C17.991,19.854 17.918,20.098 17.916,20.344 C17.240,21.967 16.602,23.498 15.983,24.987 C30.051,58.561 29.998,58.679 29.494,59.436 C29.256,59.794 28.854,60.009 28.427,60.009 C28.427,60.009 34.972,60.009 34.972,60.009 C35.399,60.009 35.802,59.794 36.039,59.436 C36.566,58.644 36.612,58.580 20.557,20.284 Z" id="path-9" class="cls-11" fill-rule="evenodd"/>
  </g>
</svg>
