<svg xmlns="http://www.w3.org/2000/svg" xmlns:xlink="http://www.w3.org/1999/xlink" preserveAspectRatio="xMidYMid" width="60" height="41" viewBox="0 0 60 41">
  <defs>
    <style>

      .cls-3 {
        fill: #0cb04a;
      }

      .cls-4 {
        fill: #000000;
        opacity: 0.35;
      }

      .cls-5 {
        fill: #ff3a2f;
      }

      .cls-6 {
        fill: #142a3b;
      }

      .cls-7 {
        fill: #ededed;
      }
    </style>
  </defs>
  <g id="group-218svg">
    <path d="M53.739,-0.010 C53.739,-0.010 6.239,-0.010 6.239,-0.010 C2.793,-0.010 -0.011,2.793 -0.011,6.240 C-0.011,6.240 -0.011,33.740 -0.011,33.740 C-0.011,37.187 2.793,39.990 6.239,39.990 C6.239,39.990 53.739,39.990 53.739,39.990 C57.185,39.990 59.989,37.187 59.989,33.740 C59.989,33.740 59.989,6.240 59.989,6.240 C59.989,2.793 57.185,-0.010 53.739,-0.010 Z" id="path-1" class="cls-3" fill-rule="evenodd"/>
    <path d="M56.925,0.872 C57.481,1.807 57.807,2.893 57.807,4.058 C57.807,4.058 57.807,31.558 57.807,31.558 C57.807,35.005 55.003,37.808 51.557,37.808 C51.557,37.808 4.058,37.808 4.058,37.808 C2.893,37.808 1.806,37.482 0.872,36.925 C1.963,38.757 3.957,39.990 6.239,39.990 C6.239,39.990 53.739,39.990 53.739,39.990 C57.185,39.990 59.989,37.187 59.989,33.740 C59.989,33.740 59.989,6.239 59.989,6.239 C59.989,3.957 58.756,1.963 56.925,0.872 Z" id="path-2" class="cls-4" fill-rule="evenodd"/>
    <path d="M9.989,24.990 C9.989,24.990 19.989,24.990 19.989,24.990 C20.680,24.990 21.239,25.549 21.239,26.240 C21.239,26.930 20.680,27.490 19.989,27.490 C19.989,27.490 9.989,27.490 9.989,27.490 C9.298,27.490 8.739,26.930 8.739,26.240 C8.739,25.549 9.298,24.990 9.989,24.990 Z" id="path-3" class="cls-5" fill-rule="evenodd"/>
    <path d="M24.989,32.490 C24.989,32.490 9.989,32.490 9.989,32.490 C9.298,32.490 8.739,31.931 8.739,31.240 C8.739,30.548 9.298,29.990 9.989,29.990 C9.989,29.990 24.989,29.990 24.989,29.990 C25.680,29.990 26.239,30.548 26.239,31.240 C26.239,31.931 25.680,32.490 24.989,32.490 Z" id="path-4" class="cls-6" fill-rule="evenodd"/>
    <path d="M52.489,18.740 C52.489,19.430 51.930,19.990 51.239,19.990 C51.239,19.990 41.239,19.990 41.239,19.990 C40.548,19.990 39.989,19.430 39.989,18.740 C39.989,18.740 39.989,8.740 39.989,8.740 C39.989,8.049 40.548,7.490 41.239,7.490 C41.239,7.490 51.239,7.490 51.239,7.490 C51.930,7.490 52.489,8.049 52.489,8.740 C52.489,8.740 52.489,18.740 52.489,18.740 Z" id="path-5" class="cls-7" fill-rule="evenodd"/>
    <path d="M53.421,9.672 C53.421,9.672 52.489,9.672 52.489,9.672 C52.489,9.672 52.489,18.740 52.489,18.740 C52.489,19.430 51.930,19.990 51.239,19.990 C51.239,19.990 42.171,19.990 42.171,19.990 C42.171,19.990 42.171,20.922 42.171,20.922 C42.171,21.612 42.730,22.172 43.421,22.172 C43.421,22.172 53.421,22.172 53.421,22.172 C54.112,22.172 54.671,21.612 54.671,20.922 C54.671,20.922 54.671,10.921 54.671,10.921 C54.671,10.231 54.112,9.672 53.421,9.672 Z" id="path-6" class="cls-4" fill-rule="evenodd"/>
  </g>
</svg>
