<svg xmlns="http://www.w3.org/2000/svg" xmlns:xlink="http://www.w3.org/1999/xlink" preserveAspectRatio="xMidYMid" width="60" height="60" viewBox="0 0 60 60">
  <defs>
    <style>

      .cls-3 {
        fill: #2476ff;
      }

      .cls-4 {
        fill: #ffffff;
      }

      .cls-6 {
        fill: #000000;
        opacity: 0.35;
      }
    </style>
  </defs>
  <g id="group-249svg">
    <path d="M59.986,29.600 C59.986,45.939 46.555,59.184 29.986,59.184 C13.418,59.184 -0.014,45.939 -0.014,29.600 C-0.014,13.260 13.418,0.014 29.986,0.014 C46.555,0.014 59.986,13.260 59.986,29.600 Z" id="path-1" class="cls-3" fill-rule="evenodd"/>
    <path d="M48.051,5.981 C47.416,5.508 46.759,5.064 46.086,4.641 C46.390,6.554 47.268,8.862 47.268,8.862 C47.268,8.862 46.576,11.765 46.853,13.147 C47.129,14.530 50.585,11.627 47.268,14.115 C43.949,16.604 42.014,14.254 44.502,16.742 C46.991,19.230 47.268,14.115 46.714,20.751 C46.161,27.387 45.332,28.493 43.673,30.152 C42.014,31.811 40.908,35.682 42.291,38.447 C43.673,41.212 46.714,43.977 46.714,43.977 C46.714,43.977 45.204,53.805 46.995,53.967 C47.392,53.696 47.782,53.417 48.165,53.129 C50.411,50.209 53.557,40.694 55.009,39.968 C55.449,39.748 56.500,40.090 57.794,40.700 C59.204,37.271 59.986,33.526 59.986,29.600 C59.986,27.839 59.822,26.119 59.523,24.444 C59.523,24.444 59.364,24.622 59.364,24.622 C56.437,22.765 52.643,16.433 48.051,5.981 Z" id="path-2" class="cls-4" fill-rule="evenodd"/>
    <path d="M3.853,15.075 C5.333,15.283 6.760,15.325 6.760,15.325 C5.724,15.533 7.797,22.376 7.797,22.376 C5.912,24.626 5.492,26.838 6.553,29.012 C4.548,30.843 9.041,32.226 9.041,32.226 C9.249,32.537 7.797,37.722 7.797,37.722 C6.760,40.728 15.159,50.578 15.159,50.578 C14.952,42.698 19.099,33.263 19.099,33.263 C20.136,32.952 20.551,27.560 20.551,27.560 C20.551,26.108 15.988,26.834 15.988,26.834 C16.507,26.212 15.988,26.005 15.988,26.005 C13.811,23.931 10.286,23.309 10.286,23.309 C8.523,19.680 9.352,17.088 9.352,17.088 C9.663,14.910 12.048,19.369 12.048,19.369 C12.048,22.376 18.062,22.479 18.062,22.479 C15.159,18.435 18.892,14.599 18.892,14.599 C18.996,13.770 21.380,14.392 21.380,14.392 C21.276,12.007 18.270,12.525 18.270,12.525 C17.855,11.696 13.915,14.392 13.915,14.392 C12.878,13.355 17.958,10.970 17.958,10.970 C21.484,5.371 11.012,7.756 11.012,7.756 C10.467,7.841 9.960,7.931 9.471,8.023 C7.255,10.073 5.357,12.448 3.853,15.075 Z" id="path-3" class="cls-4" fill-rule="evenodd"/>
    <path d="M29.986,0.014 C29.251,0.014 28.526,0.049 27.805,0.100 C43.353,1.204 55.623,13.984 55.623,29.600 C55.623,45.214 43.353,57.995 27.805,59.099 C28.526,59.149 29.251,59.184 29.986,59.184 C46.555,59.184 59.986,45.939 59.986,29.600 C59.986,13.260 46.555,0.014 29.986,0.014 Z" id="path-4" class="cls-6" fill-rule="evenodd"/>
  </g>
</svg>
