<svg xmlns="http://www.w3.org/2000/svg" xmlns:xlink="http://www.w3.org/1999/xlink" preserveAspectRatio="xMidYMid" width="60" height="58" viewBox="0 0 60 58">
  <defs>
    <style>

      .cls-3 {
        fill: #fbb713;
      }

      .cls-4 {
        fill: #060606;
        opacity: 0.25;
      }
    </style>
  </defs>
  <g id="group-207svg">
    <path d="M39.284,18.877 C39.284,18.877 59.986,22.080 59.986,22.080 C59.986,22.080 44.852,36.563 44.852,36.563 C44.852,36.563 48.203,57.242 48.203,57.242 C48.203,57.242 29.751,47.324 29.751,47.324 C29.751,47.324 11.121,56.900 11.121,56.900 C11.121,56.900 14.851,36.288 14.851,36.288 C14.851,36.288 -0.014,21.528 -0.014,21.528 C-0.014,21.528 20.743,18.706 20.743,18.706 C20.743,18.706 30.186,0.008 30.186,0.008 C30.186,0.008 39.284,18.877 39.284,18.877 Z" id="path-1" class="cls-3" fill-rule="evenodd"/>
    <path d="M35.543,17.942 C35.543,17.942 39.099,18.492 39.099,18.492 C39.099,18.492 30.186,0.008 30.186,0.008 C30.186,0.008 28.503,3.341 28.503,3.341 C28.503,3.341 35.543,17.942 35.543,17.942 Z" id="path-2" class="cls-4" fill-rule="evenodd"/>
    <path d="M26.010,46.388 C26.010,46.388 11.691,53.749 11.691,53.749 C11.691,53.749 11.121,56.900 11.121,56.900 C11.121,56.900 28.728,47.849 28.728,47.849 C28.728,47.849 26.010,46.388 26.010,46.388 Z" id="path-3" class="cls-4" fill-rule="evenodd"/>
    <path d="M59.986,22.080 C59.986,22.080 55.925,21.452 55.925,21.452 C55.925,21.452 41.111,35.628 41.111,35.628 C41.111,35.628 44.271,55.128 44.271,55.128 C44.271,55.128 48.203,57.242 48.203,57.242 C48.203,57.242 44.852,36.563 44.852,36.563 C44.852,36.563 59.986,22.080 59.986,22.080 Z" id="path-4" class="cls-4" fill-rule="evenodd"/>
  </g>
</svg>
