<svg xmlns="http://www.w3.org/2000/svg" xmlns:xlink="http://www.w3.org/1999/xlink" preserveAspectRatio="xMidYMid" width="42" height="60" viewBox="0 0 42 60">
  <defs>
    <style>

      .cls-3 {
        fill: #142a3b;
      }

      .cls-6 {
        fill: #2476ff;
      }

      .cls-7 {
        fill: #000000;
        opacity: 0.35;
      }
    </style>
  </defs>
  <g id="group-326svg">
    <path d="M21.050,49.332 C9.582,49.332 0.137,40.145 -0.003,28.854 C-0.003,28.854 -0.005,28.575 -0.005,28.575 C-0.005,27.746 0.666,27.075 1.495,27.075 C2.324,27.075 2.995,27.746 2.995,28.575 C2.995,28.575 2.996,28.817 2.996,28.817 C3.117,38.474 11.216,46.332 21.050,46.332 C31.525,46.332 38.948,39.887 39.102,30.660 C39.104,30.477 39.105,26.914 39.105,26.807 C39.105,25.979 39.776,25.308 40.605,25.308 C41.434,25.308 42.105,25.979 42.105,26.807 C42.105,26.916 42.104,30.599 42.102,30.711 C41.922,41.500 33.068,49.332 21.050,49.332 Z" id="path-1" class="cls-3" fill-rule="evenodd"/>
    <path d="M21.050,58.567 C20.222,58.567 19.550,57.895 19.550,57.067 C19.550,57.067 19.550,48.992 19.550,48.992 C19.550,48.163 20.222,47.491 21.050,47.491 C21.879,47.491 22.550,48.163 22.550,48.992 C22.550,48.992 22.550,57.067 22.550,57.067 C22.550,57.895 21.879,58.567 21.050,58.567 Z" id="path-2" class="cls-3" fill-rule="evenodd"/>
    <path d="M25.576,59.995 C25.576,59.995 16.524,59.995 16.524,59.995 C15.696,59.995 15.024,59.323 15.024,58.495 C15.024,57.666 15.696,56.995 16.524,56.995 C16.524,56.995 25.576,56.995 25.576,56.995 C26.404,56.995 27.076,57.666 27.076,58.495 C27.076,59.323 26.404,59.995 25.576,59.995 Z" id="path-3" class="cls-3" fill-rule="evenodd"/>
    <path d="M33.365,30.041 C33.365,36.732 27.852,42.155 21.050,42.155 C21.050,42.155 21.050,42.155 21.050,42.155 C14.249,42.155 8.735,36.732 8.735,30.041 C8.735,30.041 8.735,12.110 8.735,12.110 C8.735,5.419 14.249,-0.005 21.050,-0.005 C21.050,-0.005 21.050,-0.005 21.050,-0.005 C27.852,-0.005 33.365,5.419 33.365,12.110 C33.365,12.110 33.365,30.041 33.365,30.041 Z" id="path-4" class="cls-6" fill-rule="evenodd"/>
    <path d="M32.472,16.244 C32.472,16.244 26.976,16.244 26.976,16.244 C26.423,16.244 25.976,15.797 25.976,15.244 C25.976,14.692 26.423,14.244 26.976,14.244 C26.976,14.244 32.472,14.244 32.472,14.244 C33.024,14.244 33.472,14.692 33.472,15.244 C33.472,15.797 33.024,16.244 32.472,16.244 Z" id="path-5" class="cls-7" fill-rule="evenodd"/>
    <path d="M32.472,22.075 C32.472,22.075 26.976,22.075 26.976,22.075 C26.423,22.075 25.976,21.627 25.976,21.075 C25.976,20.523 26.423,20.075 26.976,20.075 C26.976,20.075 32.472,20.075 32.472,20.075 C33.024,20.075 33.472,20.523 33.472,21.075 C33.472,21.627 33.024,22.075 32.472,22.075 Z" id="path-6" class="cls-7" fill-rule="evenodd"/>
    <path d="M32.472,27.807 C32.472,27.807 26.976,27.807 26.976,27.807 C26.423,27.807 25.976,27.360 25.976,26.807 C25.976,26.255 26.423,25.808 26.976,25.808 C26.976,25.808 32.472,25.808 32.472,25.808 C33.024,25.808 33.472,26.255 33.472,26.807 C33.472,27.360 33.024,27.807 32.472,27.807 Z" id="path-7" class="cls-7" fill-rule="evenodd"/>
    <path d="M15.880,16.293 C15.880,16.293 10.384,16.293 10.384,16.293 C9.831,16.293 9.384,15.845 9.384,15.293 C9.384,14.741 9.831,14.293 10.384,14.293 C10.384,14.293 15.880,14.293 15.880,14.293 C16.432,14.293 16.880,14.741 16.880,15.293 C16.880,15.845 16.432,16.293 15.880,16.293 Z" id="path-8" class="cls-7" fill-rule="evenodd"/>
    <path d="M15.880,22.124 C15.880,22.124 10.384,22.124 10.384,22.124 C9.831,22.124 9.384,21.677 9.384,21.124 C9.384,20.572 9.831,20.124 10.384,20.124 C10.384,20.124 15.880,20.124 15.880,20.124 C16.432,20.124 16.880,20.572 16.880,21.124 C16.880,21.677 16.432,22.124 15.880,22.124 Z" id="path-9" class="cls-7" fill-rule="evenodd"/>
    <path d="M15.880,27.857 C15.880,27.857 10.384,27.857 10.384,27.857 C9.831,27.857 9.384,27.409 9.384,26.857 C9.384,26.305 9.831,25.857 10.384,25.857 C10.384,25.857 15.880,25.857 15.880,25.857 C16.432,25.857 16.880,26.305 16.880,26.857 C16.880,27.409 16.432,27.857 15.880,27.857 Z" id="path-10" class="cls-7" fill-rule="evenodd"/>
  </g>
</svg>
