<svg xmlns="http://www.w3.org/2000/svg" xmlns:xlink="http://www.w3.org/1999/xlink" preserveAspectRatio="xMidYMid" width="61" height="60" viewBox="0 0 61 60">
  <defs>
    <style>

      .cls-3 {
        fill: #142a3b;
      }

      .cls-4 {
        fill: #020403;
        opacity: 0.35;
      }

      .cls-5 {
        fill: #0cb04a;
      }

      .cls-6 {
        fill: #ffffff;
      }
    </style>
  </defs>
  <g id="group-112svg">
    <path d="M55.785,59.073 C54.440,59.363 44.611,54.288 43.158,54.288 C33.860,54.288 26.323,47.980 26.323,40.200 C26.323,32.419 33.860,26.112 43.158,26.112 C52.456,26.112 59.995,32.419 59.995,40.200 C59.995,44.649 57.530,48.616 53.682,51.198 C53.261,51.478 53.267,52.021 53.501,52.692 C53.501,52.692 55.785,59.073 55.785,59.073 Z" id="path-1" class="cls-3" fill-rule="evenodd"/>
    <path d="M43.158,26.112 C33.860,26.112 26.323,32.419 26.323,40.200 C26.323,43.967 28.100,47.380 30.978,49.907 C31.189,49.859 31.369,49.830 31.500,49.830 C44.008,49.830 54.537,42.765 57.717,33.147 C54.803,28.945 49.381,26.112 43.158,26.112 Z" id="path-2" class="cls-4" fill-rule="evenodd"/>
    <path d="M6.798,53.266 C8.972,53.733 24.855,45.533 27.203,45.533 C42.230,45.533 54.410,35.340 54.410,22.766 C54.410,10.192 42.230,-0.001 27.203,-0.001 C12.179,-0.001 -0.005,10.192 -0.005,22.766 C-0.005,29.956 3.978,36.367 10.197,40.539 C10.877,40.992 10.867,41.869 10.489,42.955 C10.489,42.955 6.798,53.266 6.798,53.266 Z" id="path-3" class="cls-5" fill-rule="evenodd"/>
    <path d="M7.279,23.192 C6.450,23.192 5.779,22.521 5.779,21.692 C5.779,13.050 14.050,6.019 24.217,6.019 C25.045,6.019 25.717,6.691 25.717,7.519 C25.717,8.347 25.045,9.019 24.217,9.019 C15.704,9.019 8.779,14.705 8.779,21.692 C8.779,22.521 8.107,23.192 7.279,23.192 Z" id="path-4" class="cls-6" fill-rule="evenodd"/>
    <path d="M46.363,6.605 C49.402,10.279 51.187,14.736 51.187,19.544 C51.187,32.117 39.007,42.310 23.980,42.310 C22.334,42.310 14.036,46.340 8.473,48.588 C8.473,48.588 6.798,53.266 6.798,53.266 C8.972,53.733 24.855,45.532 27.203,45.532 C42.230,45.532 54.410,35.340 54.410,22.766 C54.410,16.447 51.332,10.730 46.363,6.605 Z" id="path-5" class="cls-4" fill-rule="evenodd"/>
  </g>
</svg>
