<svg xmlns="http://www.w3.org/2000/svg" xmlns:xlink="http://www.w3.org/1999/xlink" preserveAspectRatio="xMidYMid" width="60" height="54" viewBox="0 0 60 54">
  <defs>
    <style>

      .cls-3 {
        fill: #142a3b;
      }

      .cls-4 {
        fill: #fbb713;
      }

      .cls-7 {
        fill: #000000;
        opacity: 0.35;
      }

      .cls-8 {
        fill: #ededed;
      }

      .cls-9 {
        fill: #000000;
        opacity: 0.25;
      }
    </style>
  </defs>
  <g id="group-287svg">
    <path d="M30.016,53.471 C29.463,53.471 29.016,53.024 29.016,52.472 C29.016,52.472 29.016,47.224 29.016,47.224 C29.016,46.672 29.463,46.224 30.016,46.224 C30.568,46.224 31.016,46.672 31.016,47.224 C31.016,47.224 31.016,52.472 31.016,52.472 C31.016,53.024 30.568,53.471 30.016,53.471 Z" id="path-1" class="cls-3" fill-rule="evenodd"/>
    <path d="M60.016,36.960 C60.016,36.960 60.016,43.056 60.016,43.056 C60.016,45.358 58.264,47.224 56.102,47.224 C56.102,47.224 3.928,47.224 3.928,47.224 C1.767,47.224 0.016,45.358 0.016,43.056 C0.016,43.056 0.016,36.960 0.016,36.960 C0.016,36.960 60.016,36.960 60.016,36.960 Z" id="path-2" class="cls-4" fill-rule="evenodd"/>
    <path d="M48.276,53.471 C48.276,53.471 11.754,53.471 11.754,53.471 C11.202,53.471 10.754,53.024 10.754,52.472 C10.754,51.919 11.202,51.472 11.754,51.472 C11.754,51.472 48.276,51.472 48.276,51.472 C48.829,51.472 49.276,51.919 49.276,52.472 C49.276,53.024 48.829,53.471 48.276,53.471 Z" id="path-3" class="cls-3" fill-rule="evenodd"/>
    <path d="M31.809,41.976 C31.809,42.972 31.006,43.780 30.016,43.780 C29.024,43.780 28.222,42.972 28.222,41.976 C28.222,40.979 29.024,40.172 30.016,40.172 C31.006,40.172 31.809,40.979 31.809,41.976 Z" id="path-4" class="cls-3" fill-rule="evenodd"/>
    <path d="M31.657,41.253 C31.753,41.475 31.809,41.719 31.809,41.976 C31.809,42.972 31.006,43.780 30.016,43.780 C29.766,43.780 29.528,43.728 29.312,43.635 C29.589,44.271 30.218,44.716 30.953,44.716 C31.943,44.716 32.746,43.908 32.746,42.912 C32.746,42.167 32.297,41.529 31.657,41.253 Z" id="path-5" class="cls-7" fill-rule="evenodd"/>
    <path d="M60.016,37.808 C60.016,37.808 60.016,4.161 60.016,4.161 C60.016,1.859 58.264,-0.007 56.102,-0.007 C56.102,-0.007 3.928,-0.007 3.928,-0.007 C1.767,-0.007 0.016,1.859 0.016,4.161 C0.016,4.161 0.016,37.808 0.016,37.808 C0.016,37.808 60.016,37.808 60.016,37.808 Z" id="path-6" class="cls-8" fill-rule="evenodd"/>
    <path d="M55.328,37.808 C55.328,37.808 55.328,43.400 55.328,43.400 C55.328,45.512 53.576,47.224 51.415,47.224 C51.415,47.224 56.102,47.224 56.102,47.224 C58.264,47.224 60.016,45.512 60.016,43.400 C60.016,43.400 60.016,37.808 60.016,37.808 C60.016,37.808 55.328,37.808 55.328,37.808 Z" id="path-7" class="cls-9" fill-rule="evenodd"/>
    <path d="M56.102,-0.007 C56.102,-0.007 54.678,-0.007 54.678,-0.007 C55.087,0.652 55.328,1.439 55.328,2.288 C55.328,2.288 55.328,35.935 55.328,35.935 C55.328,35.935 0.016,35.935 0.016,35.935 C0.016,35.935 0.016,37.808 0.016,37.808 C0.016,37.808 60.016,37.808 60.016,37.808 C60.016,37.808 60.016,4.161 60.016,4.161 C60.016,1.859 58.264,-0.007 56.102,-0.007 Z" id="path-8" class="cls-9" fill-rule="evenodd"/>
  </g>
</svg>
