<svg xmlns="http://www.w3.org/2000/svg" xmlns:xlink="http://www.w3.org/1999/xlink" preserveAspectRatio="xMidYMid" width="61" height="56" viewBox="0 0 61 56">
  <defs>
    <style>

      .cls-3 {
        fill: #0cb04a;
      }

      .cls-4 {
        fill: #020403;
        opacity: 0.35;
      }

      .cls-5 {
        fill: #142a3b;
      }

      .cls-6 {
        fill: #2476ff;
      }

      .cls-9 {
        fill: #ffffff;
      }
    </style>
  </defs>
  <g id="group-92svg">
    <path d="M6.412,54.579 C6.412,54.579 -0.003,48.163 -0.003,48.163 C-0.003,48.163 28.976,19.184 28.976,19.184 C28.976,19.184 35.391,25.600 35.391,25.600 C35.391,25.600 6.412,54.579 6.412,54.579 Z" id="path-1" class="cls-3" fill-rule="evenodd"/>
    <path d="M4.391,47.519 C4.391,47.519 2.516,45.644 2.516,45.644 C2.516,45.644 -0.003,48.163 -0.003,48.163 C-0.003,48.163 6.412,54.579 6.412,54.579 C6.412,54.579 35.391,25.600 35.391,25.600 C35.391,25.600 32.872,23.081 32.872,23.081 C32.872,23.081 8.434,47.519 8.434,47.519 C7.317,48.636 5.507,48.636 4.391,47.519 Z" id="path-2" class="cls-4" fill-rule="evenodd"/>
    <path d="M47.000,11.255 C47.000,11.255 44.512,8.767 44.512,8.767 C44.512,8.767 46.227,7.051 46.227,7.051 C46.227,7.051 48.716,9.540 48.716,9.540 C48.716,9.540 47.000,11.255 47.000,11.255 Z" id="path-3" class="cls-5" fill-rule="evenodd"/>
    <path d="M47.957,30.114 C47.957,30.114 47.108,29.265 47.108,29.265 C45.971,28.128 45.971,26.268 47.108,25.130 C47.108,25.130 54.176,18.063 54.176,18.063 C55.312,16.926 57.173,16.926 58.310,18.063 C58.310,18.063 59.159,18.912 59.159,18.912 C60.296,20.049 60.296,21.910 59.159,23.046 C59.159,23.046 52.091,30.114 52.091,30.114 C50.954,31.251 49.094,31.251 47.957,30.114 Z" id="path-4" class="cls-6" fill-rule="evenodd"/>
    <path d="M59.143,20.039 C59.143,20.039 52.107,27.076 52.107,27.076 C50.961,28.221 49.087,28.221 47.941,27.076 C47.941,27.076 47.124,26.258 47.124,26.258 C46.950,26.084 46.811,25.889 46.690,25.686 C46.014,26.817 46.152,28.310 47.124,29.281 C47.124,29.281 47.941,30.098 47.941,30.098 C49.087,31.244 50.961,31.244 52.107,30.098 C52.107,30.098 59.143,23.062 59.143,23.062 C60.115,22.091 60.253,20.598 59.577,19.468 C59.456,19.670 59.317,19.865 59.143,20.039 Z" id="path-5" class="cls-4" fill-rule="evenodd"/>
    <path d="M44.799,22.163 C45.589,21.373 46.870,21.373 47.660,22.163 C48.180,22.683 48.350,23.415 48.184,24.081 C48.184,24.081 53.868,18.398 53.868,18.398 C53.202,18.563 52.470,18.393 51.950,17.873 C51.373,17.296 51.223,16.460 51.487,15.742 C51.487,15.742 38.077,2.331 38.077,2.331 C34.931,-0.814 29.783,-0.814 26.637,2.331 C26.637,2.331 23.062,6.860 22.346,10.912 C21.573,15.293 30.641,7.766 33.787,10.912 C33.787,10.912 44.733,22.244 44.733,22.244 C44.757,22.217 44.774,22.188 44.799,22.163 Z" id="path-6" class="cls-6" fill-rule="evenodd"/>
    <path d="M37.096,5.347 C36.840,5.347 36.584,5.249 36.389,5.054 C34.165,2.830 30.548,2.831 28.325,5.054 C27.934,5.445 27.301,5.445 26.911,5.054 C26.520,4.663 26.520,4.029 26.911,3.640 C29.914,0.636 34.801,0.637 37.803,3.640 C38.193,4.029 38.193,4.663 37.803,5.054 C37.607,5.249 37.352,5.347 37.096,5.347 Z" id="path-7" class="cls-9" fill-rule="evenodd"/>
    <path d="M51.950,17.873 C51.849,17.772 51.778,17.655 51.703,17.540 C51.703,17.540 49.192,20.050 49.192,20.050 C49.358,19.385 49.187,18.653 48.667,18.133 C47.877,17.343 46.597,17.343 45.807,18.133 C45.782,18.157 45.765,18.187 45.741,18.213 C45.741,18.213 34.794,6.881 34.794,6.881 C31.919,4.006 24.100,10.042 23.367,7.756 C22.910,8.782 22.531,9.862 22.346,10.912 C21.573,15.293 30.641,7.766 33.787,10.912 C33.787,10.912 44.733,22.244 44.733,22.244 C44.757,22.217 44.774,22.188 44.800,22.163 C45.589,21.373 46.870,21.373 47.660,22.163 C48.180,22.683 48.350,23.415 48.184,24.081 C48.184,24.081 53.868,18.398 53.868,18.398 C53.202,18.563 52.470,18.393 51.950,17.873 Z" id="path-8" class="cls-4" fill-rule="evenodd"/>
    <path d="M35.079,17.008 C35.079,17.008 30.939,21.148 30.939,21.148 C30.939,21.148 33.427,23.636 33.427,23.636 C33.427,23.636 37.567,19.497 37.567,19.497 C37.567,19.497 35.079,17.008 35.079,17.008 Z" id="path-9" class="cls-5" fill-rule="evenodd"/>
    <path d="M39.530,21.461 C39.530,21.461 33.115,15.045 33.115,15.045 C33.115,15.045 35.364,12.796 35.364,12.796 C35.364,12.796 41.780,19.212 41.780,19.212 C41.780,19.212 39.530,21.461 39.530,21.461 Z" id="path-10" class="cls-5" fill-rule="evenodd"/>
    <path d="M35.364,12.796 C35.364,12.796 34.356,13.804 34.356,13.804 C34.356,13.804 39.764,19.211 39.764,19.211 C39.764,19.211 38.523,20.453 38.523,20.453 C38.523,20.453 39.530,21.461 39.530,21.461 C39.530,21.461 41.780,19.211 41.780,19.211 C41.780,19.211 35.364,12.796 35.364,12.796 Z" id="path-11" class="cls-4" fill-rule="evenodd"/>
    <path d="M57.410,41.526 C57.410,41.526 55.767,51.646 55.767,51.646 C55.767,51.646 54.125,41.526 54.125,41.526 C54.125,41.526 57.410,41.526 57.410,41.526 Z" id="path-12" class="cls-5" fill-rule="evenodd"/>
    <path d="M59.972,40.529 C59.972,41.111 58.090,41.582 55.767,41.582 C53.445,41.582 51.563,41.111 51.563,40.529 C51.563,39.947 53.445,39.476 55.767,39.476 C58.090,39.476 59.972,39.947 59.972,40.529 Z" id="path-13" class="cls-5" fill-rule="evenodd"/>
  </g>
</svg>
