<svg xmlns="http://www.w3.org/2000/svg" xmlns:xlink="http://www.w3.org/1999/xlink" preserveAspectRatio="xMidYMid" width="55" height="61" viewBox="0 0 55 61">
  <defs>
    <style>

      .cls-3 {
        fill: #142a3b;
      }

      .cls-5 {
        fill: #ff3a2f;
      }

      .cls-6 {
        fill: #020403;
        opacity: 0.35;
      }

      .cls-8 {
        fill: #0cb04a;
      }
    </style>
  </defs>
  <g id="group-104svg">
    <path d="M1.506,43.621 C1.506,43.621 17.234,3.217 17.234,3.217 C17.234,3.217 4.338,44.612 4.338,44.612 C4.091,45.404 3.250,45.845 2.458,45.598 C1.667,45.352 1.226,44.510 1.472,43.719 C1.482,43.687 1.495,43.652 1.506,43.621 Z" id="path-1" class="cls-3" fill-rule="evenodd"/>
    <path d="M18.814,55.671 C18.561,55.671 18.308,55.576 18.113,55.384 C17.719,54.997 17.714,54.364 18.102,53.970 C18.102,53.970 41.390,30.299 41.390,30.299 C41.778,29.906 42.411,29.901 42.804,30.288 C43.198,30.675 43.203,31.308 42.816,31.702 C42.816,31.702 19.527,55.373 19.527,55.373 C19.331,55.572 19.073,55.671 18.814,55.671 Z" id="path-2" class="cls-3" fill-rule="evenodd"/>
    <path d="M11.549,36.863 C7.053,36.863 3.157,39.429 1.244,43.176 C0.440,44.751 -0.013,46.535 -0.013,48.425 C-0.013,54.810 5.163,59.986 11.549,59.986 C17.934,59.986 23.110,54.810 23.110,48.425 C23.110,42.039 17.934,36.863 11.549,36.863 ZM11.549,53.110 C8.961,53.110 6.863,51.012 6.863,48.425 C6.863,47.658 7.047,46.936 7.372,46.297 C8.147,44.779 9.726,43.739 11.549,43.739 C14.136,43.739 16.234,45.837 16.234,48.425 C16.234,51.012 14.136,53.110 11.549,53.110 Z" id="path-3" class="cls-5" fill-rule="evenodd"/>
    <path d="M7.612,50.951 C7.143,50.220 6.863,49.357 6.863,48.425 C6.863,47.658 7.047,46.936 7.372,46.297 C8.147,44.779 9.726,43.739 11.549,43.739 C12.481,43.739 13.344,44.019 14.074,44.489 C13.241,43.192 11.793,42.329 10.138,42.329 C8.316,42.329 6.737,43.369 5.962,44.887 C5.636,45.525 5.453,46.248 5.453,47.014 C5.453,48.670 6.316,50.117 7.612,50.951 Z" id="path-4" class="cls-6" fill-rule="evenodd"/>
    <path d="M18.985,39.578 C20.677,41.588 21.700,44.180 21.700,47.014 C21.700,53.400 16.523,58.576 10.138,58.576 C7.304,58.576 4.712,57.553 2.701,55.861 C4.822,58.381 7.997,59.986 11.549,59.986 C17.934,59.986 23.110,54.810 23.110,48.425 C23.110,44.873 21.505,41.699 18.985,39.578 Z" id="path-5" class="cls-6" fill-rule="evenodd"/>
    <path d="M40.489,0.006 C32.772,0.407 22.843,8.655 23.244,16.371 C23.450,20.341 30.294,18.958 34.040,21.939 C37.575,24.752 37.912,32.051 41.658,31.856 C49.374,31.455 55.588,20.968 55.187,13.251 C54.786,5.535 48.206,-0.395 40.489,0.006 ZM41.502,19.507 C38.448,19.667 35.843,17.319 35.684,14.265 C35.526,11.211 37.874,8.606 40.928,8.447 C43.982,8.288 46.587,10.636 46.746,13.690 C46.904,16.745 44.557,19.349 41.502,19.507 Z" id="path-6" class="cls-8" fill-rule="evenodd"/>
    <path d="M39.764,8.638 C39.233,8.502 38.683,8.417 38.107,8.447 C35.052,8.606 32.705,11.211 32.864,14.265 C33.022,17.319 35.627,19.667 38.682,19.507 C39.084,19.488 39.472,19.419 39.846,19.317 C37.562,18.731 35.813,16.744 35.684,14.265 C35.547,11.614 37.301,9.305 39.764,8.638 Z" id="path-7" class="cls-6" fill-rule="evenodd"/>
    <path d="M40.489,0.006 C40.278,0.017 40.059,0.056 39.845,0.078 C46.584,0.775 52.003,6.274 52.366,13.251 C52.739,20.425 47.392,29.982 40.438,31.614 C40.804,31.789 41.205,31.879 41.658,31.856 C49.374,31.455 55.588,20.968 55.187,13.251 C54.786,5.535 48.206,-0.395 40.489,0.006 Z" id="path-8" class="cls-6" fill-rule="evenodd"/>
  </g>
</svg>
