<svg xmlns="http://www.w3.org/2000/svg" xmlns:xlink="http://www.w3.org/1999/xlink" preserveAspectRatio="xMidYMid" width="60" height="59" viewBox="0 0 60 59">
  <defs>
    <style>

      .cls-3 {
        fill: #fbb713;
      }

      .cls-4 {
        fill: #142a3b;
      }

      .cls-17 {
        fill: #ff3a2f;
      }

      .cls-18 {
        fill: #ffffff;
      }

      .cls-19 {
        fill: #2476ff;
      }

      .cls-22 {
        fill: #020403;
        opacity: 0.35;
      }
    </style>
  </defs>
  <g id="group-117svg">
    <path d="M59.996,11.479 C59.996,11.479 12.788,58.687 12.788,58.687 C12.788,58.687 4.434,50.333 4.434,50.333 C4.434,50.333 51.642,3.125 51.642,3.125 C51.642,3.125 59.996,11.479 59.996,11.479 Z" id="path-1" class="cls-3" fill-rule="evenodd"/>
    <path d="M22.000,42.909 C21.745,42.909 21.489,42.811 21.293,42.616 C21.293,42.616 17.747,39.069 17.747,39.069 C17.356,38.678 17.356,38.045 17.747,37.654 C18.137,37.264 18.770,37.264 19.161,37.654 C19.161,37.654 22.708,41.202 22.708,41.202 C23.098,41.593 23.098,42.226 22.708,42.616 C22.512,42.811 22.256,42.909 22.000,42.909 Z" id="path-2" class="cls-4" fill-rule="evenodd"/>
    <path d="M15.901,48.942 C15.645,48.942 15.389,48.845 15.194,48.649 C15.194,48.649 11.613,45.069 11.613,45.069 C11.223,44.678 11.223,44.045 11.613,43.655 C12.004,43.264 12.637,43.264 13.027,43.655 C13.027,43.655 16.608,47.235 16.608,47.235 C16.998,47.625 16.998,48.259 16.608,48.649 C16.413,48.845 16.157,48.942 15.901,48.942 Z" id="path-3" class="cls-4" fill-rule="evenodd"/>
    <path d="M11.528,50.066 C11.272,50.066 11.017,49.968 10.821,49.773 C10.821,49.773 8.965,47.916 8.965,47.916 C8.574,47.526 8.574,46.893 8.965,46.502 C9.355,46.112 9.988,46.112 10.379,46.502 C10.379,46.502 12.235,48.359 12.235,48.359 C12.626,48.749 12.626,49.383 12.235,49.773 C12.040,49.968 11.784,50.066 11.528,50.066 Z" id="path-4" class="cls-4" fill-rule="evenodd"/>
    <path d="M17.101,44.625 C16.846,44.625 16.590,44.528 16.395,44.332 C16.395,44.332 14.538,42.476 14.538,42.476 C14.147,42.086 14.147,41.452 14.538,41.062 C14.929,40.671 15.561,40.671 15.952,41.062 C15.952,41.062 17.809,42.918 17.809,42.918 C18.199,43.309 18.199,43.942 17.809,44.332 C17.613,44.528 17.357,44.625 17.101,44.625 Z" id="path-5" class="cls-4" fill-rule="evenodd"/>
    <path d="M23.002,38.725 C22.746,38.725 22.491,38.627 22.295,38.432 C22.295,38.432 20.439,36.575 20.439,36.575 C20.048,36.185 20.048,35.551 20.439,35.161 C20.830,34.770 21.462,34.770 21.853,35.161 C21.853,35.161 23.709,37.017 23.709,37.017 C24.100,37.408 24.100,38.041 23.709,38.432 C23.514,38.627 23.258,38.725 23.002,38.725 Z" id="path-6" class="cls-4" fill-rule="evenodd"/>
    <path d="M27.769,37.008 C27.513,37.008 27.257,36.910 27.062,36.715 C27.062,36.715 23.515,33.167 23.515,33.167 C23.124,32.777 23.124,32.144 23.515,31.754 C23.905,31.363 24.538,31.363 24.929,31.754 C24.929,31.754 28.476,35.300 28.476,35.300 C28.867,35.691 28.867,36.324 28.476,36.715 C28.281,36.910 28.025,37.008 27.769,37.008 Z" id="path-7" class="cls-4" fill-rule="evenodd"/>
    <path d="M29.036,32.559 C28.780,32.559 28.524,32.461 28.329,32.265 C28.329,32.265 26.472,30.409 26.472,30.409 C26.081,30.018 26.081,29.385 26.472,28.995 C26.863,28.604 27.496,28.604 27.886,28.994 C27.886,28.994 29.743,30.851 29.743,30.851 C30.134,31.242 30.134,31.874 29.743,32.265 C29.548,32.461 29.292,32.559 29.036,32.559 Z" id="path-8" class="cls-4" fill-rule="evenodd"/>
    <path d="M34.023,30.709 C33.768,30.709 33.512,30.611 33.316,30.416 C33.316,30.416 29.823,26.925 29.823,26.925 C29.432,26.536 29.432,25.902 29.822,25.512 C30.213,25.121 30.846,25.121 31.237,25.510 C31.237,25.510 34.730,29.001 34.730,29.001 C35.121,29.392 35.121,30.025 34.731,30.415 C34.536,30.611 34.279,30.709 34.023,30.709 Z" id="path-9" class="cls-4" fill-rule="evenodd"/>
    <path d="M35.191,26.381 C34.935,26.381 34.679,26.284 34.484,26.088 C34.484,26.088 32.627,24.232 32.627,24.232 C32.237,23.842 32.237,23.208 32.627,22.818 C33.018,22.427 33.651,22.427 34.041,22.818 C34.041,22.818 35.898,24.674 35.898,24.674 C36.289,25.065 36.289,25.698 35.898,26.088 C35.703,26.284 35.447,26.381 35.191,26.381 Z" id="path-10" class="cls-4" fill-rule="evenodd"/>
    <path d="M40.184,24.625 C39.928,24.625 39.672,24.528 39.477,24.332 C39.477,24.332 36.019,20.874 36.019,20.874 C35.628,20.484 35.628,19.850 36.019,19.460 C36.409,19.070 37.042,19.070 37.433,19.460 C37.433,19.460 40.891,22.919 40.891,22.919 C41.282,23.309 41.282,23.942 40.891,24.332 C40.696,24.528 40.440,24.625 40.184,24.625 Z" id="path-11" class="cls-4" fill-rule="evenodd"/>
    <path d="M41.335,20.326 C41.079,20.326 40.823,20.227 40.628,20.033 C40.628,20.033 38.771,18.176 38.771,18.176 C38.381,17.785 38.381,17.152 38.771,16.762 C39.162,16.372 39.795,16.372 40.186,16.762 C40.186,16.762 42.042,18.618 42.042,18.618 C42.433,19.009 42.433,19.642 42.042,20.033 C41.847,20.227 41.591,20.326 41.335,20.326 Z" id="path-12" class="cls-4" fill-rule="evenodd"/>
    <path d="M48.492,13.301 C48.236,13.301 47.980,13.204 47.785,13.008 C47.785,13.008 45.929,11.152 45.929,11.152 C45.538,10.761 45.538,10.128 45.929,9.738 C46.319,9.347 46.952,9.347 47.343,9.738 C47.343,9.738 49.199,11.594 49.199,11.594 C49.590,11.984 49.590,12.617 49.199,13.008 C49.004,13.204 48.748,13.301 48.492,13.301 Z" id="path-13" class="cls-4" fill-rule="evenodd"/>
    <path d="M46.416,18.393 C46.161,18.393 45.905,18.296 45.709,18.100 C45.709,18.100 42.251,14.642 42.251,14.642 C41.860,14.251 41.860,13.618 42.251,13.227 C42.642,12.837 43.274,12.837 43.665,13.227 C43.665,13.227 47.124,16.686 47.124,16.686 C47.514,17.077 47.514,17.710 47.124,18.100 C46.928,18.296 46.672,18.393 46.416,18.393 Z" id="path-14" class="cls-4" fill-rule="evenodd"/>
    <path d="M37.312,9.240 C37.312,9.240 34.395,12.157 34.395,12.157 C34.395,12.157 27.025,4.787 27.025,4.787 C27.025,4.787 29.942,1.870 29.942,1.870 C32.244,-0.432 35.752,-0.637 37.781,1.391 C38.800,2.411 39.258,3.803 39.167,5.219 C39.088,6.646 38.458,8.094 37.312,9.240 Z" id="path-15" class="cls-17" fill-rule="evenodd"/>
    <path d="M30.564,4.769 C30.416,4.769 30.267,4.736 30.126,4.667 C29.630,4.426 29.423,3.827 29.665,3.330 C30.682,1.246 33.057,0.304 34.959,1.232 C35.456,1.473 35.662,2.072 35.420,2.569 C35.178,3.065 34.579,3.271 34.083,3.030 C33.171,2.584 31.997,3.113 31.463,4.207 C31.290,4.562 30.934,4.769 30.564,4.769 Z" id="path-16" class="cls-18" fill-rule="evenodd"/>
    <path d="M3.488,28.252 C3.488,28.252 27.748,4.091 27.748,4.091 C27.748,4.091 35.138,11.481 35.138,11.481 C35.138,11.481 10.562,35.924 10.562,35.924 C10.562,35.924 10.562,35.924 10.562,35.924 " id="path-17" class="cls-19" fill-rule="evenodd"/>
    <path d="M4.271,37.518 C4.271,37.518 -0.004,39.186 -0.004,39.186 C-0.004,39.186 1.492,34.738 1.492,34.738 C1.492,34.738 4.271,37.518 4.271,37.518 Z" id="path-18" class="cls-4" fill-rule="evenodd"/>
    <path d="M7.752,28.279 C7.752,28.279 5.018,28.279 5.018,28.279 C5.018,28.279 3.488,28.252 3.488,28.252 C3.488,28.252 1.492,34.738 1.492,34.738 C1.492,34.738 4.271,37.518 4.271,37.518 C4.271,37.518 10.562,35.924 10.562,35.924 C10.562,35.924 10.776,33.947 10.776,33.947 C10.776,33.947 10.777,31.306 10.777,31.306 C10.777,31.306 7.691,31.731 7.691,31.731 C7.691,31.731 7.752,28.279 7.752,28.279 Z" id="path-19" class="cls-3" fill-rule="evenodd"/>
    <path d="M34.903,0.035 C35.225,0.228 35.528,0.458 35.802,0.732 C36.822,1.751 37.280,3.144 37.188,4.559 C37.110,5.986 36.480,7.435 35.334,8.580 C35.334,8.580 33.735,10.179 33.735,10.179 C33.735,10.179 35.055,11.498 35.055,11.498 C35.055,11.498 37.312,9.240 37.312,9.240 C38.458,8.094 39.088,6.646 39.167,5.219 C39.258,3.803 38.800,2.411 37.781,1.391 C36.993,0.603 35.980,0.157 34.903,0.035 Z" id="path-20" class="cls-22" fill-rule="evenodd"/>
    <path d="M27.258,4.482 C27.258,4.482 31.258,9.613 31.258,9.613 C31.971,10.527 31.892,11.829 31.074,12.650 C31.074,12.650 10.782,33.036 10.782,33.036 C10.782,33.036 10.562,35.924 10.562,35.924 C10.562,35.924 35.138,11.481 35.138,11.481 C35.138,11.481 27.748,4.091 27.748,4.091 C27.748,4.091 27.258,4.482 27.258,4.482 Z" id="path-21" class="cls-22" fill-rule="evenodd"/>
    <path d="M7.112,28.279 C7.112,28.279 7.396,31.633 7.396,31.633 C7.396,31.633 7.691,31.731 7.691,31.731 C7.691,31.731 7.752,28.279 7.752,28.279 C7.752,28.279 7.112,28.279 7.112,28.279 Z" id="path-22" class="cls-22" fill-rule="evenodd"/>
    <path d="M8.994,35.078 C8.994,35.078 3.334,36.581 3.334,36.581 C3.334,36.581 4.271,37.518 4.271,37.518 C4.271,37.518 10.562,35.924 10.562,35.924 C10.562,35.924 10.776,33.947 10.776,33.947 C10.776,33.947 10.777,31.306 10.777,31.306 C10.777,31.306 10.111,31.398 10.111,31.398 C10.111,31.398 8.994,35.078 8.994,35.078 Z" id="path-23" class="cls-22" fill-rule="evenodd"/>
    <path d="M11.131,24.808 C10.875,24.808 10.619,24.709 10.424,24.515 C10.033,24.124 10.033,23.491 10.424,23.100 C10.424,23.100 25.041,8.483 25.041,8.483 C25.432,8.093 26.065,8.093 26.455,8.483 C26.846,8.873 26.846,9.507 26.455,9.897 C26.455,9.897 11.838,24.515 11.838,24.515 C11.643,24.709 11.387,24.808 11.131,24.808 Z" id="path-24" class="cls-18" fill-rule="evenodd"/>
  </g>
</svg>
