<svg xmlns="http://www.w3.org/2000/svg" xmlns:xlink="http://www.w3.org/1999/xlink" preserveAspectRatio="xMidYMid" width="52" height="60" viewBox="0 0 52 60">
  <defs>
    <style>

      .cls-3 {
        fill: #fbb713;
      }

      .cls-4 {
        fill: #000000;
        opacity: 0.35;
      }

      .cls-6 {
        fill: #000000;
        opacity: 0.25;
      }

      .cls-7 {
        fill: #142a3b;
      }

      .cls-11 {
        fill: #ededed;
      }

      .cls-13 {
        fill: #ff3a2f;
      }
    </style>
  </defs>
  <g id="group-226svg">
    <path d="M12.790,7.892 C12.790,7.892 41.954,7.892 41.954,7.892 C41.954,7.892 41.954,-0.007 41.954,-0.007 C41.954,-0.007 12.790,-0.007 12.790,-0.007 C12.790,-0.007 12.790,7.892 12.790,7.892 Z" id="path-1" class="cls-3" fill-rule="evenodd"/>
    <path d="M37.192,-0.007 C37.192,-0.007 37.192,7.892 37.192,7.892 C37.192,7.892 41.954,7.892 41.954,7.892 C41.954,7.892 41.954,-0.007 41.954,-0.007 C41.954,-0.007 37.192,-0.007 37.192,-0.007 Z" id="path-2" class="cls-4" fill-rule="evenodd"/>
    <path d="M41.954,54.069 C41.954,54.069 12.790,54.069 12.790,54.069 C12.790,54.069 12.790,7.892 12.790,7.892 C12.790,7.892 41.954,7.892 41.954,7.892 C41.954,7.892 41.954,54.069 41.954,54.069 Z" id="path-3" class="cls-3" fill-rule="evenodd"/>
    <path d="M13.663,7.892 C13.663,7.892 33.915,9.305 33.915,9.305 C36.297,9.472 38.145,11.452 38.145,13.840 C38.145,13.840 38.145,42.771 38.145,42.771 C38.145,44.803 36.498,46.450 34.466,46.450 C34.466,46.450 12.790,46.450 12.790,46.450 C12.790,46.450 12.790,50.259 12.790,50.259 C12.790,50.259 41.954,50.259 41.954,50.259 C41.954,50.259 41.954,7.892 41.954,7.892 C41.954,7.892 13.663,7.892 13.663,7.892 Z" id="path-4" class="cls-6" fill-rule="evenodd"/>
    <path d="M44.385,59.993 C44.385,59.993 10.359,59.993 10.359,59.993 C10.359,59.993 10.359,49.968 10.359,49.968 C10.359,49.968 44.385,49.968 44.385,49.968 C44.385,49.968 44.385,59.993 44.385,59.993 Z" id="path-5" class="cls-7" fill-rule="evenodd"/>
    <path d="M49.043,12.416 C49.043,12.416 41.612,12.416 41.612,12.416 C41.612,12.416 41.612,16.535 41.612,16.535 C41.612,16.535 44.294,16.535 44.294,16.535 C45.636,16.535 46.724,17.354 46.724,18.365 C46.724,18.365 46.724,34.841 46.724,34.841 C46.724,35.853 45.636,36.672 44.294,36.672 C44.294,36.672 41.612,36.672 41.612,36.672 C41.612,36.672 41.612,40.791 41.612,40.791 C41.612,40.791 49.043,40.791 49.043,40.791 C50.386,40.791 51.474,39.971 51.474,38.961 C51.474,38.961 51.474,14.246 51.474,14.246 C51.474,13.235 50.386,12.416 49.043,12.416 Z" id="path-6" class="cls-7" fill-rule="evenodd"/>
    <path d="M13.663,7.892 C13.663,7.892 -0.008,7.892 -0.008,7.892 C-0.008,7.892 3.030,17.917 13.359,25.512 C13.359,25.512 13.663,7.892 13.663,7.892 Z" id="path-7" class="cls-3" fill-rule="evenodd"/>
    <path d="M10.724,7.892 C10.724,7.892 10.502,20.750 10.502,20.750 C6.519,17.821 3.623,14.532 1.564,11.594 C3.383,15.204 6.978,20.821 13.359,25.512 C13.359,25.512 13.663,7.892 13.663,7.892 C13.663,7.892 10.724,7.892 10.724,7.892 Z" id="path-8" class="cls-4" fill-rule="evenodd"/>
    <path d="M27.700,43.740 C27.700,43.740 27.044,43.740 27.044,43.740 C25.799,43.740 24.789,42.731 24.789,41.486 C24.789,41.486 24.789,20.476 24.789,20.476 C24.789,19.230 25.799,18.221 27.044,18.221 C27.044,18.221 27.700,18.221 27.700,18.221 C28.945,18.221 29.954,19.230 29.954,20.476 C29.954,20.476 29.954,41.486 29.954,41.486 C29.954,42.731 28.945,43.740 27.700,43.740 Z" id="path-9" class="cls-11" fill-rule="evenodd"/>
    <path d="M27.413,18.221 C27.413,18.221 27.331,18.221 27.331,18.221 C27.182,18.221 27.038,18.240 26.895,18.265 C28.091,18.472 29.002,19.508 29.002,20.763 C29.002,20.763 29.002,41.199 29.002,41.199 C29.002,42.453 28.091,43.489 26.895,43.696 C27.038,43.721 27.182,43.740 27.331,43.740 C27.331,43.740 27.413,43.740 27.413,43.740 C28.816,43.740 29.954,42.602 29.954,41.199 C29.954,41.199 29.954,20.763 29.954,20.763 C29.954,19.359 28.816,18.221 27.413,18.221 Z" id="path-10" class="cls-4" fill-rule="evenodd"/>
    <path d="M27.354,42.125 C27.078,42.125 26.854,41.901 26.854,41.625 C26.854,41.625 26.854,21.506 26.854,21.506 C26.854,21.229 27.078,21.005 27.354,21.005 C27.631,21.005 27.854,21.229 27.854,21.506 C27.854,21.506 27.854,41.625 27.854,41.625 C27.854,41.901 27.631,42.125 27.354,42.125 Z" id="path-11" class="cls-13" fill-rule="evenodd"/>
    <path d="M16.089,42.824 C15.537,42.824 15.089,42.377 15.089,41.825 C15.089,41.825 15.089,31.565 15.089,31.565 C15.089,31.013 15.537,30.565 16.089,30.565 C16.641,30.565 17.089,31.013 17.089,31.565 C17.089,31.565 17.089,41.825 17.089,41.825 C17.089,42.377 16.641,42.824 16.089,42.824 Z" id="path-12" class="cls-11" fill-rule="evenodd"/>
  </g>
</svg>
