<svg xmlns="http://www.w3.org/2000/svg" xmlns:xlink="http://www.w3.org/1999/xlink" preserveAspectRatio="xMidYMid" width="60" height="58" viewBox="0 0 60 58">
  <defs>
    <style>

      .cls-3 {
        fill: #ff3a2f;
      }

      .cls-4 {
        fill: #fbb713;
      }

      .cls-7 {
        fill: #c02c24;
      }

      .cls-8 {
        fill: #000000;
        opacity: 0.25;
      }

      .cls-9 {
        fill: #ffffff;
      }
    </style>
  </defs>
  <g id="group-143svg">
    <path d="M51.044,51.000 C51.044,52.914 49.492,54.466 47.577,54.466 C45.662,54.466 44.109,52.914 44.109,51.000 C44.109,49.084 45.662,47.532 47.577,47.532 C49.492,47.532 51.044,49.084 51.044,51.000 Z" id="path-1" class="cls-3" fill-rule="evenodd"/>
    <path d="M30.411,55.638 C30.411,56.404 29.790,57.025 29.024,57.025 C28.258,57.025 27.637,56.404 27.637,55.638 C27.637,54.871 28.258,54.251 29.024,54.251 C29.790,54.251 30.411,54.871 30.411,55.638 Z" id="path-2" class="cls-4" fill-rule="evenodd"/>
    <path d="M59.986,42.650 C59.986,44.009 58.885,45.110 57.527,45.110 C56.168,45.110 55.067,44.009 55.067,42.650 C55.067,41.292 56.168,40.191 57.527,40.191 C58.885,40.191 59.986,41.292 59.986,42.650 Z" id="path-3" class="cls-3" fill-rule="evenodd"/>
    <path d="M23.780,-0.001 C10.639,-0.001 -0.014,10.652 -0.014,23.793 C-0.014,36.934 10.639,47.587 23.780,47.587 C25.401,47.587 26.984,47.425 28.515,47.116 C28.550,44.003 31.056,41.487 34.165,41.433 C34.164,41.378 34.157,41.323 34.157,41.268 C34.157,38.090 36.732,35.514 39.910,35.514 C40.011,35.514 40.110,35.524 40.210,35.529 C40.120,35.126 40.071,34.708 40.071,34.277 C40.071,31.101 42.647,28.524 45.824,28.524 C46.254,28.524 46.671,28.575 47.074,28.665 C47.401,27.092 47.574,25.463 47.574,23.793 C47.574,10.652 36.921,-0.001 23.780,-0.001 ZM23.780,30.734 C19.947,30.734 16.839,27.627 16.839,23.793 C16.839,19.960 19.947,16.852 23.780,16.852 C27.613,16.852 30.721,19.960 30.721,23.793 C30.721,27.627 27.613,30.734 23.780,30.734 Z" id="path-4" class="cls-3" fill-rule="evenodd"/>
    <path d="M23.570,12.646 C17.414,12.646 12.424,17.637 12.424,23.794 C12.424,29.949 17.414,34.940 23.570,34.940 C29.727,34.940 34.717,29.949 34.717,23.794 C34.717,17.637 29.727,12.646 23.570,12.646 ZM23.570,30.766 C19.719,30.766 16.597,27.644 16.597,23.794 C16.597,19.942 19.719,16.820 23.570,16.820 C27.422,16.820 30.544,19.942 30.544,23.794 C30.544,27.644 27.422,30.766 23.570,30.766 Z" id="path-5" class="cls-7" fill-rule="evenodd"/>
    <path d="M23.570,0.114 C18.718,0.114 14.209,1.576 10.454,4.079 C4.138,8.358 -0.014,15.591 -0.014,23.793 C-0.014,31.996 4.138,39.229 10.454,43.507 C14.209,46.010 18.718,47.472 23.570,47.472 C25.273,47.472 26.932,47.289 28.533,46.948 C28.575,45.913 28.889,44.954 29.407,44.131 C27.551,44.663 25.597,44.965 23.570,44.965 C11.877,44.965 2.399,35.486 2.399,23.793 C2.399,12.100 11.877,2.622 23.570,2.622 C35.263,2.622 44.742,12.100 44.742,23.793 C44.742,25.525 44.511,27.199 44.119,28.810 C44.661,28.641 45.226,28.524 45.824,28.524 C46.144,28.524 46.453,28.560 46.758,28.611 C47.080,27.055 47.250,25.444 47.250,23.793 C47.250,10.716 36.648,0.114 23.570,0.114 Z" id="path-6" class="cls-8" fill-rule="evenodd"/>
    <path d="M5.604,24.794 C5.052,24.794 4.604,24.346 4.604,23.794 C4.604,19.785 5.839,15.954 8.175,12.713 C8.498,12.265 9.123,12.165 9.571,12.487 C10.019,12.811 10.121,13.435 9.797,13.883 C7.708,16.781 6.604,20.208 6.604,23.794 C6.604,24.346 6.156,24.794 5.604,24.794 Z" id="path-7" class="cls-9" fill-rule="evenodd"/>
  </g>
</svg>
