<svg xmlns="http://www.w3.org/2000/svg" xmlns:xlink="http://www.w3.org/1999/xlink" preserveAspectRatio="xMidYMid" width="61" height="52" viewBox="0 0 61 52">
  <defs>
    <style>

      .cls-3 {
        fill: #0cb04a;
      }

      .cls-4 {
        fill: #ededed;
      }

      .cls-5 {
        fill: #000000;
        opacity: 0.35;
      }

      .cls-6 {
        fill: #ff3a2f;
      }

      .cls-8 {
        fill: #142a3b;
      }
    </style>
  </defs>
  <g id="group-225svg">
    <path d="M55.493,35.146 C55.029,21.453 43.790,10.494 29.985,10.494 C16.180,10.494 4.941,21.453 4.477,35.146 C4.477,35.146 55.493,35.146 55.493,35.146 Z" id="path-1" class="cls-3" fill-rule="evenodd"/>
    <path d="M12.538,25.330 C12.394,25.330 12.248,25.299 12.110,25.234 C11.611,24.997 11.398,24.401 11.634,23.902 C14.575,17.693 20.912,13.681 27.777,13.681 C28.330,13.681 28.777,14.129 28.777,14.681 C28.777,15.233 28.330,15.681 27.777,15.681 C21.681,15.681 16.054,19.244 13.442,24.758 C13.271,25.119 12.912,25.330 12.538,25.330 Z" id="path-2" class="cls-4" fill-rule="evenodd"/>
    <path d="M32.929,10.669 C36.083,12.517 38.807,15.023 40.909,17.999 C45.014,23.810 40.903,31.835 33.788,31.835 C33.788,31.835 4.812,31.835 4.812,31.835 C4.633,32.917 4.516,34.021 4.477,35.146 C4.477,35.146 55.493,35.146 55.493,35.146 C55.062,22.442 45.354,12.097 32.929,10.669 Z" id="path-3" class="cls-5" fill-rule="evenodd"/>
    <path d="M59.985,51.479 C59.985,51.479 -0.015,51.479 -0.015,51.479 C-0.015,51.479 -0.015,33.812 -0.015,33.812 C-0.015,33.812 59.985,33.812 59.985,33.812 C59.985,33.812 59.985,51.479 59.985,51.479 Z" id="path-4" class="cls-6" fill-rule="evenodd"/>
    <path d="M52.258,33.812 C52.258,33.812 52.258,35.899 52.258,35.899 C52.258,42.675 46.766,48.168 39.991,48.168 C39.991,48.168 -0.015,48.168 -0.015,48.168 C-0.015,48.168 -0.015,51.479 -0.015,51.479 C-0.015,51.479 59.985,51.479 59.985,51.479 C59.985,51.479 59.985,33.812 59.985,33.812 C59.985,33.812 52.258,33.812 52.258,33.812 Z" id="path-5" class="cls-5" fill-rule="evenodd"/>
    <path d="M35.319,5.343 C35.319,8.289 32.931,10.678 29.985,10.678 C27.039,10.678 24.650,8.289 24.650,5.343 C24.650,2.397 27.039,0.009 29.985,0.009 C32.931,0.009 35.319,2.397 35.319,5.343 Z" id="path-6" class="cls-8" fill-rule="evenodd"/>
    <path d="M29.129,4.239 C29.129,4.986 28.524,5.591 27.777,5.591 C27.031,5.591 26.425,4.986 26.425,4.239 C26.425,3.492 27.031,2.887 27.777,2.887 C28.524,2.887 29.129,3.492 29.129,4.239 Z" id="path-7" class="cls-4" fill-rule="evenodd"/>
    <path d="M31.164,0.149 C32.344,1.128 33.112,2.586 33.112,4.239 C33.112,7.185 30.724,9.574 27.777,9.574 C27.371,9.574 26.979,9.519 26.599,9.432 C27.522,10.198 28.692,10.677 29.985,10.677 C32.931,10.677 35.319,8.289 35.319,5.342 C35.319,2.803 33.541,0.687 31.164,0.149 Z" id="path-8" class="cls-5" fill-rule="evenodd"/>
  </g>
</svg>
