<svg xmlns="http://www.w3.org/2000/svg" xmlns:xlink="http://www.w3.org/1999/xlink" preserveAspectRatio="xMidYMid" width="55" height="60" viewBox="0 0 55 60">
  <defs>
    <style>

      .cls-3 {
        fill: #0cb04a;
      }

      .cls-4 {
        fill: #ffffff;
      }

      .cls-5 {
        fill: #142a3b;
      }

      .cls-6 {
        fill: #010101;
        opacity: 0.35;
      }

      .cls-9 {
        fill: #ff3a2f;
      }
    </style>
  </defs>
  <g id="group-4svg">
    <path d="M35.023,32.765 C35.023,31.442 33.950,30.369 32.627,30.369 C32.627,30.369 30.230,30.369 30.230,30.369 C30.230,30.369 17.013,30.369 17.013,30.369 C17.013,30.369 12.339,30.369 12.339,30.369 C9.551,30.369 6.892,31.540 5.011,33.598 C5.011,33.598 2.608,36.225 2.608,36.225 C0.935,38.055 0.007,40.445 0.007,42.926 C0.007,42.926 0.007,50.518 0.007,50.518 C0.007,51.842 1.080,52.915 2.403,52.915 C2.403,52.915 27.833,52.915 27.833,52.915 C29.157,52.915 30.230,51.842 30.230,50.518 C30.230,50.518 30.230,38.907 30.230,38.907 C30.230,37.584 31.303,36.511 32.627,36.511 C32.627,36.511 32.627,36.511 32.627,36.511 C33.950,36.511 35.023,35.438 35.023,34.114 C35.023,34.114 35.023,32.765 35.023,32.765 Z" id="path-1" class="cls-3" fill-rule="evenodd"/>
    <path d="M2.188,46.107 C1.636,46.107 1.188,45.660 1.188,45.107 C1.188,42.371 2.206,39.751 4.053,37.732 C4.053,37.732 6.455,35.105 6.455,35.105 C8.520,32.846 11.460,31.550 14.521,31.550 C15.073,31.550 15.521,31.998 15.521,32.550 C15.521,33.103 15.073,33.550 14.521,33.550 C12.020,33.550 9.618,34.609 7.931,36.454 C7.931,36.454 5.528,39.081 5.528,39.081 C4.020,40.731 3.188,42.871 3.188,45.107 C3.188,45.660 2.741,46.107 2.188,46.107 Z" id="path-2" class="cls-4" fill-rule="evenodd"/>
    <path d="M22.867,26.767 C22.867,26.767 22.867,9.726 22.867,9.726 C22.867,6.117 25.792,3.192 29.401,3.192 C33.010,3.192 35.935,6.117 35.935,9.726 C35.935,9.726 43.500,48.283 43.500,48.283 C43.500,48.283 46.571,48.283 46.571,48.283 C46.571,48.283 39.114,9.726 39.114,9.726 C39.114,4.361 34.765,0.013 29.401,0.013 C24.037,0.013 19.688,4.361 19.688,9.726 C19.688,9.726 19.688,26.767 19.688,26.767 C19.688,26.767 22.867,26.767 22.867,26.767 Z" id="path-3" class="cls-5" fill-rule="evenodd"/>
    <path d="M19.688,26.767 C19.688,26.767 22.867,26.767 22.867,26.767 C22.867,26.767 22.867,24.248 22.867,24.248 C22.867,24.248 19.688,24.248 19.688,24.248 C19.688,24.248 19.688,26.767 19.688,26.767 Z" id="path-4" class="cls-6" fill-rule="evenodd"/>
    <path d="M43.348,47.202 C43.348,47.202 43.500,48.283 43.500,48.283 C43.500,48.283 46.571,48.283 46.571,48.283 C46.571,48.283 46.426,47.202 46.426,47.202 C46.426,47.202 43.348,47.202 43.348,47.202 Z" id="path-5" class="cls-6" fill-rule="evenodd"/>
    <path d="M21.490,43.120 C17.428,43.120 14.135,46.413 14.135,50.476 C14.135,51.332 14.289,52.150 14.558,52.914 C14.558,52.914 27.833,52.914 27.833,52.914 C28.051,52.914 28.257,52.876 28.457,52.822 C28.705,52.085 28.846,51.297 28.846,50.476 C28.846,46.413 25.553,43.120 21.490,43.120 Z" id="path-6" class="cls-6" fill-rule="evenodd"/>
    <path d="M27.412,30.369 C27.412,30.369 14.923,30.369 14.923,30.369 C14.923,30.369 14.923,26.530 14.923,26.530 C14.923,26.530 27.412,26.530 27.412,26.530 C27.412,26.530 27.412,30.369 27.412,30.369 Z" id="path-7" class="cls-9" fill-rule="evenodd"/>
    <path d="M27.755,52.658 C27.755,56.720 24.462,60.013 20.399,60.013 C16.337,60.013 13.044,56.720 13.044,52.658 C13.044,48.595 16.337,45.302 20.399,45.302 C24.462,45.302 27.755,48.595 27.755,52.658 Z" id="path-8" class="cls-5" fill-rule="evenodd"/>
    <path d="M23.000,52.658 C23.000,54.093 21.835,55.258 20.399,55.258 C18.964,55.258 17.800,54.093 17.800,52.658 C17.800,51.222 18.964,50.057 20.399,50.057 C21.835,50.057 23.000,51.222 23.000,52.658 Z" id="path-9" class="cls-9" fill-rule="evenodd"/>
    <path d="M29.948,39.832 C29.948,39.832 22.060,39.832 22.060,39.832 C21.784,39.832 21.560,39.608 21.560,39.332 C21.560,39.055 21.784,38.832 22.060,38.832 C22.060,38.832 29.948,38.832 29.948,38.832 C30.224,38.832 30.448,39.055 30.448,39.332 C30.448,39.608 30.224,39.832 29.948,39.832 Z" id="path-10" class="cls-5" fill-rule="evenodd"/>
    <path d="M54.092,50.657 C54.092,50.657 35.023,50.657 35.023,50.657 C35.023,50.657 35.023,48.283 35.023,48.283 C35.023,48.283 54.092,48.283 54.092,48.283 C54.092,48.283 54.092,50.657 54.092,50.657 Z" id="path-11" class="cls-9" fill-rule="evenodd"/>
  </g>
</svg>
