<svg xmlns="http://www.w3.org/2000/svg" xmlns:xlink="http://www.w3.org/1999/xlink" preserveAspectRatio="xMidYMid" width="42" height="61" viewBox="0 0 42 61">
  <defs>
    <style>

      .cls-3 {
        fill: #ff3a2f;
      }

      .cls-4 {
        fill: #060606;
        opacity: 0.35;
      }

      .cls-5 {
        fill: #fbb713;
      }

      .cls-6 {
        fill: #ededed;
      }

      .cls-7 {
        fill: #010100;
        opacity: 0.25;
      }

      .cls-8 {
        fill: #142a3b;
      }
    </style>
  </defs>
  <g id="group-173svg">
    <path d="M30.264,50.466 C30.264,55.734 25.994,60.004 20.726,60.004 C15.459,60.004 11.189,55.734 11.189,50.466 C11.189,50.466 30.264,50.466 30.264,50.466 Z" id="path-1" class="cls-3" fill-rule="evenodd"/>
    <path d="M11.189,50.466 C11.189,51.429 11.092,51.363 11.357,52.240 C11.357,52.240 26.571,54.158 26.571,54.158 C26.571,56.444 25.766,57.616 24.426,59.259 C27.855,57.814 30.264,54.422 30.264,50.466 C30.264,50.466 11.189,50.466 11.189,50.466 Z" id="path-2" class="cls-4" fill-rule="evenodd"/>
    <path d="M37.627,41.076 C37.601,40.927 37.590,40.782 37.590,40.632 C37.590,40.632 37.590,22.362 37.590,22.362 C37.590,14.286 30.315,7.653 20.958,6.754 C20.958,6.754 20.495,6.754 20.495,6.754 C11.138,7.653 3.863,14.286 3.863,22.362 C3.863,22.362 3.863,40.632 3.863,40.632 C3.863,40.782 3.853,40.927 3.826,41.076 C3.682,41.872 3.054,44.508 0.734,46.936 C-0.840,48.585 0.365,51.323 2.644,51.323 C2.644,51.323 38.809,51.323 38.809,51.323 C41.088,51.323 42.292,48.585 40.718,46.936 C38.399,44.508 37.770,41.872 37.627,41.076 Z" id="path-3" class="cls-5" fill-rule="evenodd"/>
    <path d="M6.890,31.243 C6.338,31.243 5.890,30.795 5.890,30.243 C5.890,30.243 5.890,23.560 5.890,23.560 C5.890,18.895 8.630,14.569 13.220,11.987 C13.702,11.716 14.311,11.888 14.582,12.369 C14.853,12.850 14.682,13.460 14.200,13.731 C10.249,15.953 7.890,19.627 7.890,23.560 C7.890,23.560 7.890,30.243 7.890,30.243 C7.890,30.795 7.442,31.243 6.890,31.243 Z" id="path-4" class="cls-6" fill-rule="evenodd"/>
    <path d="M40.718,46.936 C38.399,44.508 37.770,41.872 37.627,41.076 C37.601,40.927 37.590,40.782 37.590,40.632 C37.590,40.632 37.590,22.362 37.590,22.362 C37.590,14.286 30.315,7.653 20.958,6.754 C20.958,6.754 20.495,6.754 20.495,6.754 C19.275,6.872 18.093,7.091 16.956,7.393 C16.956,7.393 17.249,7.393 17.249,7.393 C25.951,8.228 32.715,14.397 32.715,21.907 C32.715,21.907 32.715,38.896 32.715,38.896 C32.715,39.036 32.726,39.171 32.750,39.309 C32.884,40.050 33.469,42.501 35.624,44.759 C37.089,46.292 35.969,48.838 33.849,48.838 C33.849,48.838 0.219,48.838 0.219,48.838 C0.154,48.838 0.094,48.829 0.030,48.824 C0.099,50.117 1.132,51.323 2.644,51.323 C2.644,51.323 38.809,51.323 38.809,51.323 C41.088,51.323 42.292,48.585 40.718,46.936 Z" id="path-5" class="cls-7" fill-rule="evenodd"/>
    <path d="M24.102,3.379 C24.102,5.243 22.591,6.754 20.726,6.754 C18.862,6.754 17.351,5.243 17.351,3.379 C17.351,1.514 18.862,0.004 20.726,0.004 C22.591,0.004 24.102,1.514 24.102,3.379 Z" id="path-6" class="cls-8" fill-rule="evenodd"/>
    <path d="M22.606,0.576 C22.967,1.114 23.179,1.759 23.179,2.456 C23.179,4.320 21.667,5.832 19.803,5.832 C19.107,5.832 18.461,5.620 17.923,5.259 C18.529,6.161 19.558,6.754 20.726,6.754 C22.591,6.754 24.102,5.243 24.102,3.379 C24.102,2.211 23.508,1.182 22.606,0.576 Z" id="path-7" class="cls-4" fill-rule="evenodd"/>
  </g>
</svg>
