<svg xmlns="http://www.w3.org/2000/svg" xmlns:xlink="http://www.w3.org/1999/xlink" preserveAspectRatio="xMidYMid" width="61" height="45" viewBox="0 0 61 45">
  <defs>
    <style>

      .cls-3 {
        fill: #ff3a2f;
      }

      .cls-6 {
        fill: #0cb04a;
      }
    </style>
  </defs>
  <g id="group-325svg">
    <circle id="circle-1" class="cls-3" cx="5" cy="5" r="5"/>
    <circle id="circle-2" class="cls-3" cx="5" cy="21" r="5"/>
    <circle id="circle-3" class="cls-3" cx="5" cy="39" r="5"/>
    <path d="M56.883,6.480 C56.883,6.480 19.277,6.480 19.277,6.480 C18.173,6.480 17.277,5.584 17.277,4.480 C17.277,3.375 18.173,2.480 19.277,2.480 C19.277,2.480 56.883,2.480 56.883,2.480 C57.987,2.480 58.883,3.375 58.883,4.480 C58.883,5.584 57.987,6.480 56.883,6.480 Z" id="path-1" class="cls-6" fill-rule="evenodd"/>
    <path d="M56.883,23.208 C56.883,23.208 19.277,23.208 19.277,23.208 C18.173,23.208 17.277,22.313 17.277,21.208 C17.277,20.104 18.173,19.208 19.277,19.208 C19.277,19.208 56.883,19.208 56.883,19.208 C57.987,19.208 58.883,20.104 58.883,21.208 C58.883,22.313 57.987,23.208 56.883,23.208 Z" id="path-2" class="cls-6" fill-rule="evenodd"/>
    <path d="M58.004,41.083 C58.004,41.083 20.399,41.083 20.399,41.083 C19.295,41.083 18.399,40.188 18.399,39.083 C18.399,37.979 19.295,37.083 20.399,37.083 C20.399,37.083 58.004,37.083 58.004,37.083 C59.109,37.083 60.004,37.979 60.004,39.083 C60.004,40.188 59.109,41.083 58.004,41.083 Z" id="path-3" class="cls-6" fill-rule="evenodd"/>
  </g>
</svg>
