<svg xmlns="http://www.w3.org/2000/svg" xmlns:xlink="http://www.w3.org/1999/xlink" preserveAspectRatio="xMidYMid" width="37" height="61" viewBox="0 0 37 61">
  <defs>
    <style>

      .cls-3 {
        fill: #142a3b;
      }

      .cls-9 {
        fill: #ffffff;
      }

      .cls-13 {
        fill: #ff3a2f;
      }

      .cls-15 {
        fill: #fbb713;
      }

      .cls-16 {
        fill: #010101;
        opacity: 0.25;
      }

      .cls-19 {
        fill: #010101;
        opacity: 0.35;
      }
    </style>
  </defs>
  <g id="group-159svg">
    <path d="M33.437,57.942 C33.437,57.942 34.673,57.942 34.673,57.942 C34.673,57.942 34.673,2.037 34.673,2.037 C34.673,2.037 33.437,2.037 33.437,2.037 C33.437,2.037 32.820,2.037 32.820,2.037 C32.820,2.037 32.820,57.942 32.820,57.942 C32.820,57.942 33.437,57.942 33.437,57.942 Z" id="path-1" class="cls-3" fill-rule="evenodd"/>
    <path d="M1.844,57.942 C1.844,57.942 3.079,57.942 3.079,57.942 C3.079,57.942 3.079,2.037 3.079,2.037 C3.079,2.037 1.844,2.037 1.844,2.037 C1.844,2.037 1.227,2.037 1.227,2.037 C1.227,2.037 1.227,57.942 1.227,57.942 C1.227,57.942 1.844,57.942 1.844,57.942 Z" id="path-2" class="cls-3" fill-rule="evenodd"/>
    <path d="M22.683,25.175 C23.130,24.754 23.636,24.355 24.192,23.982 C23.603,24.351 23.102,24.755 22.683,25.175 Z" id="path-3" class="cls-3" fill-rule="evenodd"/>
    <path d="M24.192,35.994 C23.636,35.622 23.130,35.223 22.683,34.802 C23.102,35.221 23.603,35.626 24.192,35.994 Z" id="path-4" class="cls-3" fill-rule="evenodd"/>
    <path d="M13.312,34.803 C12.866,35.223 12.362,35.620 11.809,35.992 C12.396,35.624 12.894,35.221 13.312,34.803 Z" id="path-5" class="cls-3" fill-rule="evenodd"/>
    <path d="M11.809,23.985 C12.362,24.357 12.866,24.754 13.312,25.175 C12.894,24.755 12.396,24.352 11.809,23.985 Z" id="path-6" class="cls-3" fill-rule="evenodd"/>
    <path d="M25.084,23.488 C25.590,23.241 26.067,22.980 26.521,22.706 C25.672,23.085 24.892,23.512 24.192,23.982 C24.469,23.809 24.764,23.642 25.084,23.488 Z" id="path-7" class="cls-9" fill-rule="evenodd"/>
    <path d="M24.192,35.994 C24.892,36.464 25.672,36.892 26.521,37.271 C26.067,36.997 25.590,36.735 25.084,36.489 C24.764,36.334 24.469,36.168 24.192,35.994 Z" id="path-8" class="cls-9" fill-rule="evenodd"/>
    <path d="M10.912,36.489 C10.406,36.735 9.929,36.997 9.475,37.271 C10.325,36.892 11.106,36.463 11.809,35.992 C11.530,36.166 11.233,36.333 10.912,36.489 Z" id="path-9" class="cls-9" fill-rule="evenodd"/>
    <path d="M11.809,23.985 C11.106,23.515 10.325,23.085 9.475,22.706 C9.929,22.980 10.406,23.241 10.912,23.488 C11.233,23.644 11.530,23.811 11.809,23.985 Z" id="path-10" class="cls-9" fill-rule="evenodd"/>
    <path d="M0.030,59.076 C0.038,59.137 0.042,59.200 0.060,59.259 C0.061,59.255 0.063,59.251 0.064,59.248 C0.189,59.673 0.566,59.989 1.031,59.989 C1.031,59.989 34.965,59.989 34.965,59.989 C35.434,59.989 35.814,59.666 35.935,59.235 C35.937,59.243 35.943,59.250 35.945,59.259 C35.974,59.165 35.993,59.068 35.993,58.965 C35.993,58.399 35.535,57.941 34.970,57.941 C34.970,57.941 34.965,57.941 34.965,57.941 C34.965,57.941 1.036,57.941 1.036,57.941 C1.036,57.941 1.031,57.941 1.031,57.941 C0.466,57.941 0.008,58.399 0.008,58.965 C0.008,59.004 0.025,59.038 0.030,59.076 Z" id="path-11" class="cls-13" fill-rule="evenodd"/>
    <path d="M1.031,2.036 C1.031,2.036 34.965,2.036 34.965,2.036 C35.530,2.036 35.989,1.577 35.989,1.012 C35.989,0.446 35.530,-0.011 34.965,-0.011 C34.965,-0.011 1.031,-0.011 1.031,-0.011 C0.466,-0.011 0.008,0.446 0.008,1.012 C0.008,1.577 0.466,2.036 1.031,2.036 Z" id="path-12" class="cls-13" fill-rule="evenodd"/>
    <path d="M11.809,35.992 C11.106,36.463 10.325,36.892 9.475,37.271 C5.847,39.464 3.892,42.645 3.892,48.191 C3.892,54.431 3.892,57.941 3.892,57.941 C3.892,57.941 3.896,57.941 3.896,57.941 C3.896,57.941 3.896,57.942 3.896,57.942 C3.896,57.942 8.772,57.942 8.772,57.942 C8.772,57.942 15.695,57.942 15.695,57.942 C15.695,57.942 15.695,57.941 15.695,57.941 C15.695,57.941 17.543,57.941 17.543,57.941 C17.543,57.941 18.453,57.941 18.453,57.941 C18.453,57.941 20.310,57.941 20.310,57.941 C20.310,57.941 20.310,57.942 20.310,57.942 C20.310,57.942 27.233,57.942 27.233,57.942 C27.233,57.942 27.233,57.941 27.233,57.941 C27.233,57.941 32.104,57.941 32.104,57.941 C32.104,57.941 32.104,54.431 32.104,48.191 C32.104,42.645 30.149,39.462 26.521,37.271 C25.672,36.892 24.892,36.464 24.192,35.995 C23.603,35.626 23.102,35.221 22.683,34.802 C21.197,33.403 20.338,31.754 20.338,29.988 C20.338,28.222 21.197,26.574 22.683,25.176 C23.102,24.755 23.603,24.351 24.192,23.982 C24.892,23.512 25.672,23.085 26.521,22.706 C30.149,20.514 32.104,17.332 32.104,11.786 C32.104,5.546 32.104,2.036 32.104,2.036 C32.104,2.036 18.453,2.036 18.453,2.036 C18.453,2.036 17.543,2.036 17.543,2.036 C17.543,2.036 3.892,2.036 3.892,2.036 C3.892,2.036 3.892,5.546 3.892,11.786 C3.892,17.332 5.847,20.514 9.475,22.706 C10.325,23.085 11.106,23.514 11.809,23.985 C12.396,24.352 12.894,24.755 13.312,25.175 C14.799,26.573 15.658,28.222 15.658,29.988 C15.658,31.755 14.799,33.404 13.312,34.803 C12.894,35.221 12.396,35.624 11.809,35.992 Z" id="path-13" class="cls-15" fill-rule="evenodd"/>
    <path d="M27.233,2.037 C27.233,2.037 27.233,5.549 27.233,11.789 C27.233,17.335 25.954,20.517 23.581,22.708 C23.024,23.087 22.514,23.515 22.056,23.985 C21.669,24.353 21.343,24.758 21.068,25.177 C20.097,26.577 19.534,28.224 19.534,29.990 C19.534,31.757 20.097,33.405 21.068,34.803 C21.343,35.224 21.669,35.628 22.056,35.996 C22.514,36.466 23.024,36.894 23.581,37.273 C25.954,39.465 27.233,42.646 27.233,48.192 C27.233,54.421 27.233,57.928 27.233,57.942 C27.233,57.942 32.109,57.942 32.109,57.942 C32.109,57.942 32.109,54.431 32.109,48.191 C32.109,42.645 30.154,39.464 26.526,37.271 C25.677,36.893 24.896,36.465 24.196,35.994 C23.606,35.627 23.106,35.223 22.686,34.803 C21.202,33.404 20.343,31.755 20.343,29.989 C20.343,28.224 21.202,26.575 22.686,25.176 C23.106,24.755 23.606,24.352 24.196,23.983 C24.896,23.513 25.677,23.085 26.526,22.707 C30.154,20.515 32.109,17.333 32.109,11.788 C32.109,5.547 32.109,2.037 32.109,2.037 C32.109,2.037 20.310,2.037 20.310,2.037 C20.310,2.037 20.310,2.037 20.310,2.037 C20.310,2.037 27.233,2.037 27.233,2.037 Z" id="path-14" class="cls-16" fill-rule="evenodd"/>
    <path d="M13.116,21.525 C12.939,21.525 12.761,21.478 12.600,21.381 C8.404,18.847 6.534,15.216 6.534,9.606 C6.534,9.606 7.530,6.902 7.530,6.902 C7.530,6.902 8.534,9.606 8.534,9.606 C8.534,14.500 10.059,17.510 13.634,19.669 C14.106,19.954 14.258,20.569 13.973,21.042 C13.785,21.353 13.455,21.525 13.116,21.525 ZM8.289,4.842 C8.289,4.842 8.534,4.178 8.534,4.178 C8.534,4.429 8.441,4.662 8.289,4.842 Z" id="path-15" class="cls-9" fill-rule="evenodd"/>
    <path d="M8.534,55.800 C8.534,55.800 8.275,55.098 8.275,55.098 C8.436,55.271 8.534,55.502 8.534,55.760 C8.534,55.760 8.534,55.800 8.534,55.800 ZM7.534,53.086 C7.534,53.086 6.534,50.373 6.534,50.373 C6.534,44.763 8.404,41.132 12.600,38.597 C12.600,38.597 12.709,38.539 12.709,38.539 C13.503,38.186 14.236,37.784 14.889,37.346 C15.346,37.038 15.969,37.160 16.276,37.619 C16.584,38.077 16.462,38.698 16.004,39.006 C15.272,39.498 14.458,39.946 13.582,40.340 C10.044,42.498 8.534,45.502 8.534,50.373 C8.534,50.373 7.534,53.086 7.534,53.086 Z" id="path-16" class="cls-9" fill-rule="evenodd"/>
    <path d="M32.104,57.984 C32.104,57.984 25.051,58.006 17.998,58.027 C10.945,58.006 3.892,57.984 3.892,57.984 C3.892,57.984 3.892,57.898 3.892,57.898 C3.892,57.898 4.332,57.833 5.104,57.755 C5.875,57.695 6.978,57.549 8.300,57.483 C9.623,57.424 11.165,57.284 12.818,57.260 C14.472,57.228 16.235,57.196 17.998,57.163 C19.761,57.196 21.524,57.229 23.178,57.261 C24.831,57.289 26.374,57.425 27.696,57.485 C29.018,57.552 30.121,57.696 30.892,57.755 C31.664,57.833 32.104,57.898 32.104,57.898 C32.104,57.898 32.104,57.984 32.104,57.984 Z" id="path-17" class="cls-19" fill-rule="evenodd"/>
    <path d="M32.104,2.036 C32.104,2.036 3.892,2.036 3.892,2.036 C3.892,2.036 3.892,3.782 3.892,3.782 C3.892,3.782 32.104,5.964 32.104,5.964 C32.104,5.964 32.104,2.036 32.104,2.036 Z" id="path-18" class="cls-19" fill-rule="evenodd"/>
  </g>
</svg>
