<svg xmlns="http://www.w3.org/2000/svg" xmlns:xlink="http://www.w3.org/1999/xlink" preserveAspectRatio="xMidYMid" width="36" height="60" viewBox="0 0 36 60">
  <defs>
    <style>

      .cls-3 {
        fill: #142a3b;
      }

      .cls-4 {
        fill: #fbb713;
      }

      .cls-5 {
        fill: #ededed;
      }

      .cls-6 {
        fill: #ff3a2f;
      }

      .cls-9 {
        fill: #000000;
        opacity: 0.35;
      }

      .cls-11 {
        fill: #000000;
        opacity: 0.25;
      }

      .cls-15 {
        fill: #ffffff;
      }
    </style>
  </defs>
  <g id="group-267svg">
    <path d="M35.906,36.656 C35.906,36.656 28.906,36.656 28.906,36.656 C28.078,36.656 27.406,35.985 27.406,35.156 C27.406,34.327 28.078,33.656 28.906,33.656 C28.906,33.656 32.906,33.656 32.906,33.656 C32.906,33.656 32.906,20.656 32.906,20.656 C32.906,20.656 30.906,20.656 30.906,20.656 C30.078,20.656 29.406,19.985 29.406,19.156 C29.406,18.328 30.078,17.656 30.906,17.656 C30.906,17.656 35.906,17.656 35.906,17.656 C35.906,17.656 35.906,36.656 35.906,36.656 Z" id="path-1" class="cls-3" fill-rule="evenodd"/>
    <path d="M27.633,44.656 C27.633,44.656 4.555,44.656 4.555,44.656 C4.555,44.656 0.916,59.656 0.916,59.656 C0.916,59.656 31.272,59.656 31.272,59.656 C31.272,59.656 27.633,44.656 27.633,44.656 ZM16.377,56.168 C14.326,56.168 12.663,54.527 12.663,52.503 C12.663,50.480 14.326,48.839 16.377,48.839 C18.428,48.839 20.090,50.480 20.090,52.503 C20.090,54.527 18.428,56.168 16.377,56.168 Z" id="path-2" class="cls-4" fill-rule="evenodd"/>
    <path d="M31.272,12.656 C31.272,12.656 0.916,12.656 0.916,12.656 C0.916,12.656 4.555,40.656 4.555,40.656 C4.555,40.656 27.633,40.656 27.633,40.656 C27.633,40.656 31.272,12.656 31.272,12.656 Z" id="path-3" class="cls-5" fill-rule="evenodd"/>
    <path d="M28.838,31.641 C27.549,29.339 26.174,27.184 23.281,26.512 C20.256,26.206 16.479,26.915 12.663,27.644 C8.335,27.552 4.876,25.830 2.033,23.132 C2.033,23.132 4.555,40.656 4.555,40.656 C4.555,40.656 27.633,40.656 27.633,40.656 C27.633,40.656 28.838,31.641 28.838,31.641 Z" id="path-4" class="cls-6" fill-rule="evenodd"/>
    <path d="M20.090,52.503 C20.090,54.527 18.428,56.168 16.377,56.168 C14.326,56.168 12.663,54.527 12.663,52.503 C12.663,50.480 14.326,48.839 16.377,48.839 C18.428,48.839 20.090,50.480 20.090,52.503 Z" id="path-5" class="cls-3" fill-rule="evenodd"/>
    <path d="M30.638,5.525 C30.638,5.525 0.558,9.557 0.558,9.557 C0.558,9.557 0.007,5.554 0.007,5.554 C0.007,5.554 30.086,1.522 30.086,1.522 C30.086,1.522 30.638,5.525 30.638,5.525 Z" id="path-6" class="cls-4" fill-rule="evenodd"/>
    <path d="M15.435,48.973 C15.132,48.894 14.820,48.839 14.492,48.839 C12.441,48.839 10.779,50.480 10.779,52.503 C10.779,54.527 12.441,56.168 14.492,56.168 C14.820,56.168 15.132,56.113 15.435,56.034 C13.843,55.620 12.663,54.204 12.663,52.503 C12.663,50.803 13.843,49.386 15.435,48.973 Z" id="path-7" class="cls-9" fill-rule="evenodd"/>
    <path d="M27.633,44.656 C27.633,44.656 25.749,44.656 25.749,44.656 C25.749,44.656 29.167,59.656 29.167,59.656 C29.167,59.656 31.272,59.656 31.272,59.656 C31.272,59.656 27.633,44.656 27.633,44.656 Z" id="path-8" class="cls-9" fill-rule="evenodd"/>
    <path d="M27.139,12.571 C27.139,12.571 24.788,30.768 24.788,30.768 C24.259,34.860 20.763,37.924 16.622,37.924 C16.622,37.924 4.191,37.924 4.191,37.924 C4.191,37.924 4.555,40.741 4.555,40.741 C4.555,40.741 27.633,40.741 27.633,40.741 C27.633,40.741 31.272,12.571 31.272,12.571 C31.272,12.571 27.139,12.571 27.139,12.571 Z" id="path-9" class="cls-11" fill-rule="evenodd"/>
    <path d="M23.281,26.420 C20.256,26.114 16.479,26.869 12.663,27.598 C8.335,27.506 4.876,25.623 2.033,22.924 C2.033,22.924 2.539,26.415 2.539,26.415 C4.662,27.682 7.070,28.478 9.836,28.537 C13.651,27.808 17.428,27.053 20.454,27.359 C23.347,28.031 24.722,30.094 26.011,32.395 C26.011,32.395 24.707,40.656 24.707,40.656 C24.707,40.656 27.406,40.656 27.406,40.656 C27.406,40.656 28.838,31.456 28.838,31.456 C27.549,29.154 26.174,27.091 23.281,26.420 Z" id="path-10" class="cls-9" fill-rule="evenodd"/>
    <path d="M30.086,1.522 C30.086,1.522 28.363,1.753 28.363,1.753 C28.363,1.753 28.753,4.586 28.753,4.586 C28.753,4.586 0.396,8.388 0.396,8.388 C0.396,8.388 0.558,9.557 0.558,9.557 C0.558,9.557 30.638,5.525 30.638,5.525 C30.638,5.525 30.086,1.522 30.086,1.522 Z" id="path-11" class="cls-11" fill-rule="evenodd"/>
    <path d="M10.556,3.101 C10.062,3.101 9.633,2.737 9.566,2.234 C9.493,1.687 9.877,1.184 10.424,1.110 C10.424,1.110 18.598,0.015 18.598,0.015 C19.144,-0.054 19.649,0.325 19.722,0.873 C19.795,1.421 19.411,1.924 18.864,1.997 C18.864,1.997 10.690,3.093 10.690,3.093 C10.645,3.098 10.600,3.101 10.556,3.101 Z" id="path-12" class="cls-3" fill-rule="evenodd"/>
    <path d="M7.780,34.116 C7.308,34.116 6.887,33.780 6.798,33.299 C6.798,33.299 4.206,19.343 4.206,19.343 C4.105,18.800 4.464,18.278 5.007,18.176 C5.546,18.076 6.072,18.434 6.173,18.977 C6.173,18.977 8.765,32.933 8.765,32.933 C8.865,33.476 8.507,33.998 7.964,34.099 C7.902,34.111 7.841,34.116 7.780,34.116 Z" id="path-13" class="cls-15" fill-rule="evenodd"/>
  </g>
</svg>
