<svg xmlns="http://www.w3.org/2000/svg" xmlns:xlink="http://www.w3.org/1999/xlink" preserveAspectRatio="xMidYMid" width="30" height="60" viewBox="0 0 30 60">
  <defs>
    <style>

      .cls-3 {
        fill: #0cb04a;
      }

      .cls-5 {
        fill: #ff3a2f;
      }

      .cls-6 {
        fill: #000000;
        opacity: 0.35;
      }

      .cls-11 {
        fill: #fbb713;
      }

      .cls-13 {
        fill: #142a3b;
      }

      .cls-15 {
        fill: #ededed;
      }
    </style>
  </defs>
  <g id="group-255svg">
    <path d="M15.101,34.926 C15.101,34.926 13.311,34.926 13.311,34.926 C13.311,34.926 13.311,25.366 13.311,25.366 C13.311,25.366 15.101,25.366 15.101,25.366 C15.101,25.366 15.101,34.926 15.101,34.926 Z" id="path-1" class="cls-3" fill-rule="evenodd"/>
    <path d="M20.136,29.083 C20.136,29.083 15.460,33.759 15.460,33.759 C15.187,34.032 14.746,34.032 14.474,33.759 C14.474,33.759 14.384,33.670 14.384,33.670 C14.111,33.397 14.111,32.955 14.384,32.683 C14.384,32.683 19.060,28.006 19.060,28.006 C19.332,27.734 19.774,27.734 20.046,28.006 C20.046,28.006 20.136,28.097 20.136,28.097 C20.408,28.369 20.408,28.811 20.136,29.083 Z" id="path-2" class="cls-3" fill-rule="evenodd"/>
    <path d="M28.480,14.139 C28.480,11.889 26.656,10.066 24.407,10.066 C24.313,10.066 24.223,10.074 24.131,10.080 C24.200,10.020 24.270,9.961 24.336,9.895 C25.927,8.304 25.927,5.725 24.336,4.135 C22.745,2.544 20.166,2.544 18.575,4.135 C18.510,4.200 18.451,4.270 18.391,4.339 C18.396,4.248 18.404,4.156 18.404,4.064 C18.404,1.814 16.581,-0.010 14.331,-0.010 C12.081,-0.010 10.258,1.814 10.258,4.064 C10.258,4.156 10.266,4.248 10.271,4.339 C10.211,4.270 10.152,4.200 10.087,4.135 C8.496,2.544 5.917,2.544 4.326,4.135 C2.735,5.725 2.735,8.304 4.326,9.895 C4.392,9.961 4.462,10.020 4.531,10.080 C4.439,10.074 4.349,10.066 4.255,10.066 C2.006,10.066 0.182,11.889 0.182,14.139 C0.182,16.389 2.006,18.213 4.255,18.213 C4.349,18.213 4.439,18.205 4.531,18.199 C4.462,18.259 4.392,18.318 4.326,18.383 C2.735,19.974 2.735,22.554 4.326,24.144 C5.917,25.735 8.496,25.735 10.087,24.144 C10.152,24.078 10.211,24.008 10.271,23.939 C10.266,24.031 10.258,24.122 10.258,24.215 C10.258,26.465 12.081,28.288 14.331,28.288 C16.581,28.288 18.404,26.465 18.404,24.215 C18.404,24.122 18.396,24.031 18.391,23.939 C18.451,24.008 18.510,24.078 18.575,24.144 C20.166,25.735 22.745,25.735 24.336,24.144 C25.927,22.554 25.927,19.974 24.336,18.383 C24.270,18.318 24.200,18.259 24.131,18.199 C24.223,18.205 24.313,18.213 24.407,18.213 C26.656,18.213 28.480,16.389 28.480,14.139 Z" id="path-3" class="cls-5" fill-rule="evenodd"/>
    <path d="M16.223,2.973 C16.223,3.066 16.215,3.157 16.209,3.248 C16.269,3.179 16.328,3.109 16.394,3.044 C16.829,2.608 17.340,2.304 17.883,2.107 C17.290,1.035 16.240,0.260 14.986,0.056 C15.747,0.797 16.223,1.828 16.223,2.973 Z" id="path-4" class="cls-6" fill-rule="evenodd"/>
    <path d="M22.154,3.044 C23.745,4.635 23.745,7.214 22.154,8.804 C22.088,8.870 22.018,8.929 21.949,8.989 C22.041,8.983 22.132,8.975 22.225,8.975 C23.073,8.975 23.860,9.236 24.512,9.679 C25.907,8.079 25.859,5.658 24.336,4.135 C23.707,3.505 22.921,3.135 22.105,3.004 C22.121,3.018 22.139,3.028 22.154,3.044 Z" id="path-5" class="cls-6" fill-rule="evenodd"/>
    <path d="M28.480,14.139 C28.480,12.114 26.998,10.447 25.061,10.132 C25.822,10.872 26.298,11.903 26.298,13.049 C26.298,15.298 24.475,17.122 22.225,17.122 C22.132,17.122 22.041,17.114 21.949,17.108 C22.018,17.168 22.088,17.227 22.154,17.293 C23.745,18.883 23.745,21.463 22.154,23.054 C21.192,24.014 19.871,24.385 18.624,24.184 C20.218,25.729 22.760,25.719 24.336,24.144 C25.927,22.554 25.927,19.974 24.336,18.383 C24.270,18.318 24.200,18.259 24.131,18.199 C24.223,18.205 24.313,18.213 24.407,18.213 C26.656,18.213 28.480,16.389 28.480,14.139 Z" id="path-6" class="cls-6" fill-rule="evenodd"/>
    <path d="M8.076,23.124 C8.076,23.031 8.084,22.940 8.090,22.848 C8.029,22.918 7.971,22.987 7.905,23.054 C6.943,24.014 5.622,24.385 4.375,24.184 C5.529,25.303 7.175,25.597 8.598,25.081 C8.275,24.498 8.076,23.837 8.076,23.124 Z" id="path-7" class="cls-6" fill-rule="evenodd"/>
    <path d="M16.394,23.054 C16.328,22.987 16.269,22.918 16.209,22.848 C16.215,22.940 16.223,23.031 16.223,23.124 C16.223,25.374 14.399,27.198 12.149,27.198 C11.925,27.198 11.709,27.166 11.495,27.132 C12.228,27.845 13.227,28.288 14.331,28.288 C16.581,28.288 18.404,26.465 18.404,24.215 C18.404,24.191 18.402,24.167 18.401,24.143 C17.666,23.983 16.965,23.625 16.394,23.054 Z" id="path-8" class="cls-6" fill-rule="evenodd"/>
    <path d="M21.721,14.139 C21.721,18.220 18.412,21.529 14.331,21.529 C10.250,21.529 6.942,18.220 6.942,14.139 C6.942,10.058 10.250,6.750 14.331,6.750 C18.412,6.750 21.721,10.058 21.721,14.139 Z" id="path-9" class="cls-11" fill-rule="evenodd"/>
    <path d="M18.980,8.399 C20.010,9.669 20.629,11.286 20.629,13.049 C20.629,17.130 17.321,20.438 13.240,20.438 C11.478,20.438 9.861,19.819 8.591,18.789 C9.946,20.459 12.013,21.529 14.331,21.529 C18.412,21.529 21.721,18.220 21.721,14.139 C21.721,11.821 20.651,9.754 18.980,8.399 Z" id="path-10" class="cls-6" fill-rule="evenodd"/>
    <path d="M21.509,59.991 C21.509,59.991 8.365,59.991 8.365,59.991 C8.365,59.991 -0.006,34.878 -0.006,34.878 C-0.006,34.878 29.880,34.878 29.880,34.878 C29.880,34.878 21.509,59.991 21.509,59.991 Z" id="path-11" class="cls-13" fill-rule="evenodd"/>
    <path d="M-0.006,34.878 C-0.006,34.878 1.085,38.150 1.085,38.150 C1.085,38.150 14.977,38.150 14.977,38.150 C19.088,38.150 21.992,42.179 20.691,46.080 C20.691,46.080 16.055,59.991 16.055,59.991 C16.055,59.991 21.509,59.991 21.509,59.991 C21.509,59.991 29.880,34.878 29.880,34.878 C29.880,34.878 -0.006,34.878 -0.006,34.878 Z" id="path-12" class="cls-6" fill-rule="evenodd"/>
    <path d="M9.977,54.710 C9.545,54.710 9.147,54.428 9.019,53.992 C9.019,53.992 5.527,42.175 5.527,42.175 C5.371,41.645 5.673,41.089 6.203,40.932 C6.732,40.777 7.290,41.078 7.445,41.608 C7.445,41.608 10.936,53.426 10.936,53.426 C11.093,53.956 10.791,54.512 10.261,54.668 C10.166,54.696 10.071,54.710 9.977,54.710 Z" id="path-13" class="cls-15" fill-rule="evenodd"/>
  </g>
</svg>
