<svg xmlns="http://www.w3.org/2000/svg" xmlns:xlink="http://www.w3.org/1999/xlink" preserveAspectRatio="xMidYMid" width="58" height="60" viewBox="0 0 58 60">
  <defs>
    <style>

      .cls-3 {
        fill: #fbb713;
      }

      .cls-4 {
        fill: #ff3a2f;
      }

      .cls-5 {
        fill: #000000;
        opacity: 0.35;
      }

      .cls-9 {
        fill: #142a3b;
      }

      .cls-12 {
        fill: #ededed;
      }
    </style>
  </defs>
  <g id="group-285svg">
    <path d="M53.730,5.904 C53.730,5.904 47.104,5.904 47.104,5.904 C47.104,5.904 47.104,8.214 47.104,8.214 C47.104,9.816 45.793,11.114 44.174,11.114 C44.174,11.114 43.930,11.114 43.930,11.114 C42.311,11.114 40.999,9.816 40.999,8.214 C40.999,8.214 40.999,5.904 40.999,5.904 C40.999,5.904 32.117,5.904 32.117,5.904 C32.117,5.904 32.117,8.214 32.117,8.214 C32.117,9.816 30.805,11.114 29.186,11.114 C29.186,11.114 28.941,11.114 28.941,11.114 C27.323,11.114 26.011,9.816 26.011,8.214 C26.011,8.214 26.011,5.904 26.011,5.904 C26.011,5.904 16.272,5.904 16.272,5.904 C16.272,5.904 16.272,8.214 16.272,8.214 C16.272,9.816 14.960,11.114 13.342,11.114 C13.342,11.114 13.097,11.114 13.097,11.114 C11.478,11.114 10.166,9.816 10.166,8.214 C10.166,8.214 10.166,5.904 10.166,5.904 C10.166,5.904 4.397,5.904 4.397,5.904 C1.969,5.904 0.001,7.850 0.001,10.253 C0.001,10.253 0.001,55.650 0.001,55.650 C0.001,58.053 1.969,59.999 4.397,59.999 C4.397,59.999 53.730,59.999 53.730,59.999 C56.159,59.999 58.126,58.053 58.126,55.650 C58.126,55.650 58.126,10.253 58.126,10.253 C58.126,7.850 56.159,5.904 53.730,5.904 Z" id="path-1" class="cls-3" fill-rule="evenodd"/>
    <path d="M58.126,21.022 C58.126,21.022 58.126,10.253 58.126,10.253 C58.126,7.850 56.159,5.904 53.730,5.904 C53.730,5.904 47.104,5.904 47.104,5.904 C47.104,5.904 47.104,8.214 47.104,8.214 C47.104,9.816 45.793,11.114 44.174,11.114 C44.174,11.114 43.930,11.114 43.930,11.114 C42.311,11.114 40.999,9.816 40.999,8.214 C40.999,8.214 40.999,5.904 40.999,5.904 C40.999,5.904 32.117,5.904 32.117,5.904 C32.117,5.904 32.117,8.214 32.117,8.214 C32.117,9.816 30.805,11.114 29.186,11.114 C29.186,11.114 28.941,11.114 28.941,11.114 C27.323,11.114 26.011,9.816 26.011,8.214 C26.011,8.214 26.011,5.904 26.011,5.904 C26.011,5.904 16.272,5.904 16.272,5.904 C16.272,5.904 16.272,8.214 16.272,8.214 C16.272,9.816 14.960,11.114 13.342,11.114 C13.342,11.114 13.097,11.114 13.097,11.114 C11.478,11.114 10.166,9.816 10.166,8.214 C10.166,8.214 10.166,5.904 10.166,5.904 C10.166,5.904 4.397,5.904 4.397,5.904 C1.969,5.904 0.001,7.850 0.001,10.253 C0.001,10.253 0.001,21.022 0.001,21.022 C0.001,21.022 58.126,21.022 58.126,21.022 Z" id="path-2" class="cls-4" fill-rule="evenodd"/>
    <path d="M53.730,5.904 C53.730,5.904 50.918,5.904 50.918,5.904 C53.346,5.904 55.314,7.850 55.314,10.253 C55.314,10.253 55.314,55.650 55.314,55.650 C55.314,58.053 53.346,59.999 50.918,59.999 C50.918,59.999 53.730,59.999 53.730,59.999 C56.159,59.999 58.126,58.053 58.126,55.650 C58.126,55.650 58.126,10.253 58.126,10.253 C58.126,7.850 56.159,5.904 53.730,5.904 Z" id="path-3" class="cls-5" fill-rule="evenodd"/>
    <path d="M31.754,11.114 C31.754,11.114 31.999,11.114 31.999,11.114 C33.617,11.114 34.929,9.816 34.929,8.214 C34.929,8.214 34.929,5.904 34.929,5.904 C34.929,5.904 32.117,5.904 32.117,5.904 C32.117,5.904 32.117,8.214 32.117,8.214 C32.117,9.358 31.442,10.337 30.470,10.809 C30.859,10.998 31.291,11.114 31.754,11.114 Z" id="path-4" class="cls-5" fill-rule="evenodd"/>
    <path d="M46.742,11.114 C46.742,11.114 46.987,11.114 46.987,11.114 C48.605,11.114 49.917,9.816 49.917,8.214 C49.917,8.214 49.917,5.904 49.917,5.904 C49.917,5.904 47.104,5.904 47.104,5.904 C47.104,5.904 47.104,8.214 47.104,8.214 C47.104,9.358 46.430,10.337 45.458,10.809 C45.847,10.998 46.279,11.114 46.742,11.114 Z" id="path-5" class="cls-5" fill-rule="evenodd"/>
    <path d="M15.910,11.114 C15.910,11.114 16.154,11.114 16.154,11.114 C17.772,11.114 19.084,9.816 19.084,8.214 C19.084,8.214 19.084,5.904 19.084,5.904 C19.084,5.904 16.272,5.904 16.272,5.904 C16.272,5.904 16.272,8.214 16.272,8.214 C16.272,9.358 15.597,10.337 14.625,10.809 C15.015,10.998 15.447,11.114 15.910,11.114 Z" id="path-6" class="cls-5" fill-rule="evenodd"/>
    <path d="M13.342,-0.001 C13.342,-0.001 13.097,-0.001 13.097,-0.001 C11.478,-0.001 10.166,1.298 10.166,2.899 C10.166,2.899 10.166,5.904 10.166,5.904 C10.166,5.904 10.166,8.214 10.166,8.214 C10.166,9.816 11.478,11.114 13.097,11.114 C13.097,11.114 13.342,11.114 13.342,11.114 C14.960,11.114 16.272,9.816 16.272,8.214 C16.272,8.214 16.272,5.904 16.272,5.904 C16.272,5.904 16.272,2.899 16.272,2.899 C16.272,1.298 14.960,-0.001 13.342,-0.001 Z" id="path-7" class="cls-9" fill-rule="evenodd"/>
    <path d="M29.186,-0.001 C29.186,-0.001 28.941,-0.001 28.941,-0.001 C27.323,-0.001 26.011,1.298 26.011,2.899 C26.011,2.899 26.011,5.904 26.011,5.904 C26.011,5.904 26.011,8.214 26.011,8.214 C26.011,9.816 27.323,11.114 28.941,11.114 C28.941,11.114 29.186,11.114 29.186,11.114 C30.805,11.114 32.117,9.816 32.117,8.214 C32.117,8.214 32.117,5.904 32.117,5.904 C32.117,5.904 32.117,2.899 32.117,2.899 C32.117,1.298 30.805,-0.001 29.186,-0.001 Z" id="path-8" class="cls-9" fill-rule="evenodd"/>
    <path d="M44.174,-0.001 C44.174,-0.001 43.930,-0.001 43.930,-0.001 C42.311,-0.001 40.999,1.298 40.999,2.899 C40.999,2.899 40.999,5.904 40.999,5.904 C40.999,5.904 40.999,8.214 40.999,8.214 C40.999,9.816 42.311,11.114 43.930,11.114 C43.930,11.114 44.174,11.114 44.174,11.114 C45.793,11.114 47.104,9.816 47.104,8.214 C47.104,8.214 47.104,5.904 47.104,5.904 C47.104,5.904 47.104,2.899 47.104,2.899 C47.104,1.298 45.793,-0.001 44.174,-0.001 Z" id="path-9" class="cls-9" fill-rule="evenodd"/>
    <path d="M16.457,31.933 C16.457,33.759 14.961,35.241 13.115,35.241 C11.269,35.241 9.772,33.759 9.772,31.933 C9.772,30.108 11.269,28.626 13.115,28.626 C14.961,28.626 16.457,30.108 16.457,31.933 Z" id="path-10" class="cls-12" fill-rule="evenodd"/>
    <path d="M32.406,31.619 C32.406,33.445 30.910,34.926 29.064,34.926 C27.218,34.926 25.721,33.445 25.721,31.619 C25.721,29.793 27.218,28.312 29.064,28.312 C30.910,28.312 32.406,29.793 32.406,31.619 Z" id="path-11" class="cls-12" fill-rule="evenodd"/>
    <path d="M48.356,32.246 C48.356,34.072 46.859,35.554 45.014,35.554 C43.167,35.554 41.670,34.072 41.670,32.246 C41.670,30.420 43.167,28.939 45.014,28.939 C46.859,28.939 48.356,30.420 48.356,32.246 Z" id="path-12" class="cls-12" fill-rule="evenodd"/>
    <path d="M16.457,46.314 C16.457,48.141 14.960,49.621 13.114,49.621 C11.269,49.621 9.771,48.141 9.771,46.314 C9.771,44.487 11.269,43.006 13.114,43.006 C14.960,43.006 16.457,44.487 16.457,46.314 Z" id="path-13" class="cls-12" fill-rule="evenodd"/>
    <path d="M32.406,46.000 C32.406,47.826 30.909,49.307 29.063,49.307 C27.217,49.307 25.720,47.826 25.720,46.000 C25.720,44.174 27.217,42.692 29.063,42.692 C30.909,42.692 32.406,44.174 32.406,46.000 Z" id="path-14" class="cls-12" fill-rule="evenodd"/>
    <path d="M48.356,46.627 C48.356,48.454 46.859,49.934 45.013,49.934 C43.166,49.934 41.670,48.454 41.670,46.627 C41.670,44.800 43.166,43.320 45.013,43.320 C46.859,43.320 48.356,44.800 48.356,46.627 Z" id="path-15" class="cls-12" fill-rule="evenodd"/>
    <path d="M15.906,30.121 C16.253,30.642 16.457,31.263 16.457,31.933 C16.457,33.759 14.961,35.241 13.115,35.241 C12.429,35.241 11.791,35.035 11.261,34.684 C11.858,35.583 12.884,36.178 14.053,36.178 C15.898,36.178 17.395,34.697 17.395,32.870 C17.395,31.724 16.804,30.714 15.906,30.121 Z" id="path-16" class="cls-5" fill-rule="evenodd"/>
    <path d="M31.855,29.807 C32.202,30.327 32.406,30.949 32.406,31.619 C32.406,33.445 30.910,34.926 29.064,34.926 C28.378,34.926 27.741,34.721 27.210,34.370 C27.808,35.269 28.832,35.864 30.001,35.864 C31.848,35.864 33.344,34.383 33.344,32.556 C33.344,31.409 32.752,30.400 31.855,29.807 Z" id="path-17" class="cls-5" fill-rule="evenodd"/>
    <path d="M47.806,30.434 C48.151,30.955 48.356,31.576 48.356,32.246 C48.356,34.072 46.859,35.554 45.014,35.554 C44.327,35.554 43.690,35.348 43.159,34.997 C43.757,35.896 44.782,36.491 45.951,36.491 C47.797,36.491 49.294,35.010 49.294,33.183 C49.294,32.036 48.702,31.026 47.806,30.434 Z" id="path-18" class="cls-5" fill-rule="evenodd"/>
    <path d="M15.906,44.501 C16.252,45.022 16.457,45.644 16.457,46.314 C16.457,48.141 14.960,49.621 13.114,49.621 C12.428,49.621 11.790,49.415 11.260,49.064 C11.857,49.963 12.883,50.558 14.052,50.558 C15.897,50.558 17.394,49.078 17.394,47.252 C17.394,46.104 16.803,45.094 15.906,44.501 Z" id="path-19" class="cls-5" fill-rule="evenodd"/>
    <path d="M31.854,44.187 C32.201,44.708 32.406,45.330 32.406,46.000 C32.406,47.826 30.909,49.307 29.063,49.307 C28.377,49.307 27.739,49.101 27.209,48.750 C27.807,49.649 28.832,50.244 30.000,50.244 C31.847,50.244 33.344,48.764 33.344,46.938 C33.344,45.790 32.752,44.780 31.854,44.187 Z" id="path-20" class="cls-5" fill-rule="evenodd"/>
    <path d="M47.805,44.814 C48.151,45.335 48.356,45.957 48.356,46.627 C48.356,48.454 46.859,49.934 45.013,49.934 C44.326,49.934 43.689,49.728 43.159,49.377 C43.756,50.276 44.781,50.872 45.950,50.872 C47.796,50.872 49.293,49.391 49.293,47.565 C49.293,46.417 48.702,45.408 47.805,44.814 Z" id="path-21" class="cls-5" fill-rule="evenodd"/>
  </g>
</svg>
