<svg xmlns="http://www.w3.org/2000/svg" xmlns:xlink="http://www.w3.org/1999/xlink" preserveAspectRatio="xMidYMid" width="61" height="29" viewBox="0 0 61 29">
  <defs>
    <style>

      .cls-3 {
        fill: #ff3a2f;
      }

      .cls-5 {
        fill: #000000;
        opacity: 0.35;
      }

      .cls-6 {
        fill: #fbb713;
      }
    </style>
  </defs>
  <g id="group-273svg">
    <path d="M0.369,8.124 C0.369,8.124 -5.264,21.989 28.226,21.887 C61.715,21.787 61.511,10.148 59.051,8.124 C56.594,6.100 55.468,5.088 44.305,5.290 C34.978,4.935 30.526,1.478 23.865,0.452 C15.968,-0.763 3.644,0.007 0.369,8.124 Z" id="path-1" class="cls-3" fill-rule="evenodd"/>
    <path d="M0.014,11.050 C0.014,11.050 0.014,16.791 0.014,16.791 C0.026,20.702 3.220,28.412 28.226,28.337 C54.977,28.257 60.226,20.815 60.004,16.791 C60.004,16.791 60.004,11.050 60.004,11.050 C60.004,11.050 60.004,11.050 60.004,11.050 " id="path-2" class="cls-3" fill-rule="evenodd"/>
    <path d="M60.004,11.050 C60.004,11.050 60.004,16.791 60.004,16.791 C60.226,20.815 54.977,28.257 28.226,28.337 C3.220,28.412 0.026,20.702 0.014,16.791 C0.014,16.791 0.014,11.050 0.014,11.050 C0.014,11.050 1.533,25.343 41.547,19.694 C41.547,19.694 58.839,18.251 60.004,11.050 Z" id="path-3" class="cls-5" fill-rule="evenodd"/>
    <path d="M19.041,9.496 C19.041,11.228 16.656,12.634 13.717,12.634 C10.775,12.634 8.391,11.228 8.391,9.496 C8.391,7.764 10.775,6.359 13.717,6.359 C16.656,6.359 19.041,7.764 19.041,9.496 Z" id="path-4" class="cls-6" fill-rule="evenodd"/>
  </g>
</svg>
