<svg xmlns="http://www.w3.org/2000/svg" xmlns:xlink="http://www.w3.org/1999/xlink" preserveAspectRatio="xMidYMid" width="31" height="60" viewBox="0 0 31 60">
  <defs>
    <style>

      .cls-3 {
        fill: #142a3b;
      }

      .cls-4 {
        fill: #000000;
        opacity: 0.25;
      }

      .cls-5 {
        fill: #fbb713;
      }

      .cls-7 {
        fill: #ededed;
      }
    </style>
  </defs>
  <g id="group-221svg">
    <path d="M21.418,1.762 C21.418,0.787 20.733,-0.003 19.887,-0.003 C19.887,-0.003 10.702,-0.003 10.702,-0.003 C9.856,-0.003 9.171,0.787 9.171,1.762 C9.171,1.762 9.171,10.586 9.171,10.586 C9.171,10.586 21.418,10.586 21.418,10.586 C21.418,10.586 21.418,1.762 21.418,1.762 Z" id="path-1" class="cls-3" fill-rule="evenodd"/>
    <path d="M19.887,-0.003 C19.887,-0.003 15.087,-0.003 15.087,-0.003 C15.934,-0.003 16.618,0.787 16.618,1.762 C16.618,1.762 16.618,10.586 16.618,10.586 C16.618,10.586 21.418,10.586 21.418,10.586 C21.418,10.586 21.418,1.762 21.418,1.762 C21.418,0.787 20.733,-0.003 19.887,-0.003 Z" id="path-2" class="cls-4" fill-rule="evenodd"/>
    <path d="M29.072,10.585 C29.072,10.585 21.418,10.585 21.418,10.585 C21.418,10.585 9.171,10.585 9.171,10.585 C9.171,10.585 1.518,10.585 1.518,10.585 C0.671,10.585 -0.014,11.376 -0.014,12.349 C-0.014,12.349 -0.014,58.233 -0.014,58.233 C-0.014,59.210 0.671,59.998 1.518,59.998 C1.518,59.998 29.072,59.998 29.072,59.998 C29.918,59.998 30.602,59.210 30.602,58.233 C30.602,58.233 30.602,12.349 30.602,12.349 C30.602,11.376 29.918,10.585 29.072,10.585 Z" id="path-3" class="cls-5" fill-rule="evenodd"/>
    <path d="M29.072,10.585 C29.072,10.585 21.872,10.585 21.872,10.585 C22.718,10.585 23.403,11.376 23.403,12.349 C23.403,12.349 23.403,58.232 23.403,58.232 C23.403,59.210 22.718,59.998 21.872,59.998 C21.872,59.998 29.072,59.998 29.072,59.998 C29.918,59.998 30.602,59.210 30.602,58.232 C30.602,58.232 30.602,12.349 30.602,12.349 C30.602,11.376 29.918,10.585 29.072,10.585 Z" id="path-4" class="cls-4" fill-rule="evenodd"/>
    <path d="M6.116,52.193 C5.563,52.193 5.116,51.745 5.116,51.193 C5.116,51.193 5.116,22.133 5.116,22.133 C5.116,21.580 5.563,21.133 6.116,21.133 C6.668,21.133 7.116,21.580 7.116,22.133 C7.116,22.133 7.116,51.193 7.116,51.193 C7.116,51.745 6.668,52.193 6.116,52.193 Z" id="path-5" class="cls-7" fill-rule="evenodd"/>
  </g>
</svg>
