<svg xmlns="http://www.w3.org/2000/svg" xmlns:xlink="http://www.w3.org/1999/xlink" preserveAspectRatio="xMidYMid" width="50" height="60" viewBox="0 0 50 60">
  <defs>
    <style>

      .cls-3 {
        fill: #ff3a2f;
      }

      .cls-4 {
        fill: #000000;
        opacity: 0.35;
      }

      .cls-5 {
        fill: #fbb713;
      }

      .cls-6 {
        fill: #ededed;
      }

      .cls-8 {
        fill: #000000;
        opacity: 0.25;
      }
    </style>
  </defs>
  <g id="group-245svg">
    <path d="M26.105,29.130 C26.105,29.130 22.846,29.130 22.846,29.130 C22.846,29.130 22.846,-0.011 22.846,-0.011 C22.846,-0.011 26.105,-0.011 26.105,-0.011 C26.105,-0.011 26.105,29.130 26.105,29.130 Z" id="path-1" class="cls-3" fill-rule="evenodd"/>
    <path d="M26.105,29.130 C26.105,29.130 22.846,29.130 22.846,29.130 C22.846,29.130 22.846,27.939 22.846,27.939 C22.846,27.939 26.105,25.919 26.105,25.919 C26.105,25.919 26.105,29.130 26.105,29.130 Z" id="path-2" class="cls-4" fill-rule="evenodd"/>
    <path d="M24.476,28.950 C10.965,28.950 0.013,39.902 0.013,53.412 C0.013,53.412 48.938,53.412 48.938,53.412 C48.938,39.902 37.986,28.950 24.476,28.950 Z" id="path-3" class="cls-5" fill-rule="evenodd"/>
    <path d="M6.026,46.695 C5.939,46.695 5.851,46.684 5.763,46.660 C5.230,46.514 4.915,45.964 5.061,45.432 C6.860,38.842 12.036,33.504 18.569,31.501 C19.098,31.339 19.657,31.635 19.818,32.164 C19.980,32.692 19.684,33.251 19.155,33.413 C13.272,35.217 8.610,40.024 6.991,45.958 C6.869,46.403 6.466,46.695 6.026,46.695 Z" id="path-4" class="cls-6" fill-rule="evenodd"/>
    <path d="M24.476,59.989 C28.195,59.989 31.210,56.973 31.210,53.254 C31.210,53.254 17.740,53.254 17.740,53.254 C17.740,56.973 20.756,59.989 24.476,59.989 Z" id="path-5" class="cls-3" fill-rule="evenodd"/>
    <path d="M24.476,28.950 C23.794,28.950 23.122,28.985 22.455,29.039 C35.019,30.068 44.897,40.583 44.897,53.412 C44.897,53.412 48.938,53.412 48.938,53.412 C48.938,39.902 37.986,28.950 24.476,28.950 Z" id="path-6" class="cls-8" fill-rule="evenodd"/>
    <path d="M17.740,53.254 C17.740,53.958 17.810,53.254 17.740,53.958 C17.740,53.958 27.169,55.274 27.169,55.274 C27.169,57.084 26.451,58.724 25.289,59.934 C28.624,59.532 31.210,56.697 31.210,53.254 C31.210,53.254 17.740,53.254 17.740,53.254 Z" id="path-7" class="cls-4" fill-rule="evenodd"/>
  </g>
</svg>
