<svg xmlns="http://www.w3.org/2000/svg" xmlns:xlink="http://www.w3.org/1999/xlink" preserveAspectRatio="xMidYMid" width="60" height="39" viewBox="0 0 60 39">
  <defs>
    <style>

      .cls-3 {
        fill: #142a3b;
      }

      .cls-4 {
        fill: #060606;
        opacity: 0.35;
      }

      .cls-6 {
        fill: #ff3a2f;
      }

      .cls-7 {
        fill: #ededed;
      }

      .cls-11 {
        fill: #0cb04a;
      }
    </style>
  </defs>
  <g id="group-206svg">
    <path d="M46.710,11.957 C46.710,11.957 29.796,11.957 29.796,11.957 C29.955,9.941 30.491,9.156 31.101,8.286 C31.999,7.007 33.017,5.559 33.017,1.316 C33.017,0.592 32.431,0.005 31.707,0.005 C30.983,0.005 30.397,0.592 30.397,1.316 C30.397,4.730 29.730,5.680 28.957,6.782 C28.203,7.854 27.361,9.056 27.165,11.957 C27.165,11.957 13.375,11.957 13.375,11.957 C6.002,11.957 0.002,17.894 0.002,25.192 C0.002,32.405 5.877,38.054 13.375,38.054 C17.914,38.054 21.424,35.020 23.317,32.912 C23.317,32.912 36.608,32.912 36.608,32.912 C38.244,34.713 41.816,37.902 46.588,37.902 C54.110,37.902 60.002,32.211 60.002,24.944 C60.002,17.661 54.164,11.957 46.710,11.957 Z" id="path-1" class="cls-3" fill-rule="evenodd"/>
    <path d="M55.073,14.786 C56.796,16.974 57.820,19.727 57.820,22.762 C57.820,30.029 51.928,35.720 44.406,35.720 C39.635,35.720 36.062,32.531 34.426,30.730 C34.426,30.730 21.135,30.730 21.135,30.730 C19.243,32.838 15.731,35.872 11.194,35.872 C7.946,35.872 5.006,34.809 2.713,33.022 C5.136,36.094 8.970,38.054 13.375,38.054 C17.914,38.054 21.424,35.019 23.317,32.912 C23.317,32.912 36.608,32.912 36.608,32.912 C38.244,34.713 41.816,37.902 46.588,37.902 C54.110,37.902 60.002,32.211 60.002,24.944 C60.002,20.786 58.094,17.147 55.073,14.786 Z" id="path-2" class="cls-4" fill-rule="evenodd"/>
    <path d="M17.737,26.145 C17.737,26.145 15.117,26.145 15.117,26.145 C15.117,26.145 15.117,28.764 15.117,28.764 C15.117,29.488 14.532,30.074 13.808,30.074 C13.084,30.074 12.498,29.488 12.498,28.764 C12.498,28.764 12.498,26.145 12.498,26.145 C12.498,26.145 9.879,26.145 9.879,26.145 C9.155,26.145 8.569,25.559 8.569,24.835 C8.569,24.111 9.155,23.525 9.879,23.525 C9.879,23.525 12.498,23.525 12.498,23.525 C12.498,23.525 12.498,20.906 12.498,20.906 C12.498,20.182 13.084,19.597 13.808,19.597 C14.532,19.597 15.117,20.182 15.117,20.906 C15.117,20.906 15.117,23.525 15.117,23.525 C15.117,23.525 17.737,23.525 17.737,23.525 C18.461,23.525 19.046,24.111 19.046,24.835 C19.046,25.559 18.461,26.145 17.737,26.145 Z" id="path-3" class="cls-4" fill-rule="evenodd"/>
    <path d="M16.646,25.053 C16.646,25.053 14.026,25.053 14.026,25.053 C14.026,25.053 14.026,27.673 14.026,27.673 C14.026,28.397 13.441,28.983 12.717,28.983 C11.993,28.983 11.407,28.397 11.407,27.673 C11.407,27.673 11.407,25.053 11.407,25.053 C11.407,25.053 8.788,25.053 8.788,25.053 C8.064,25.053 7.478,24.467 7.478,23.744 C7.478,23.020 8.064,22.435 8.788,22.435 C8.788,22.435 11.407,22.435 11.407,22.435 C11.407,22.435 11.407,19.815 11.407,19.815 C11.407,19.091 11.993,18.506 12.717,18.506 C13.441,18.506 14.026,19.091 14.026,19.815 C14.026,19.815 14.026,22.435 14.026,22.435 C14.026,22.435 16.646,22.435 16.646,22.435 C17.370,22.435 17.955,23.020 17.955,23.744 C17.955,24.467 17.370,25.053 16.646,25.053 Z" id="path-4" class="cls-6" fill-rule="evenodd"/>
    <path d="M27.123,25.053 C27.123,25.053 24.504,25.053 24.504,25.053 C23.780,25.053 23.194,24.467 23.194,23.744 C23.194,23.020 23.780,22.435 24.504,22.435 C24.504,22.435 27.123,22.435 27.123,22.435 C27.847,22.435 28.433,23.020 28.433,23.744 C28.433,24.467 27.847,25.053 27.123,25.053 Z" id="path-5" class="cls-7" fill-rule="evenodd"/>
    <path d="M34.981,25.053 C34.981,25.053 32.362,25.053 32.362,25.053 C31.638,25.053 31.052,24.467 31.052,23.744 C31.052,23.020 31.638,22.435 32.362,22.435 C32.362,22.435 34.981,22.435 34.981,22.435 C35.706,22.435 36.291,23.020 36.291,23.744 C36.291,24.467 35.706,25.053 34.981,25.053 Z" id="path-6" class="cls-7" fill-rule="evenodd"/>
    <circle id="circle-1" class="cls-4" cx="44" cy="29" r="3"/>
    <path d="M51.788,23.525 C50.342,23.525 49.169,22.354 49.169,20.906 C49.169,19.461 50.342,18.287 51.788,18.287 C53.235,18.287 54.408,19.461 54.408,20.906 C54.408,22.354 53.235,23.525 51.788,23.525 Z" id="path-7" class="cls-4" fill-rule="evenodd"/>
    <circle id="circle-2" class="cls-11" cx="43" cy="28" r="3"/>
    <path d="M50.698,22.435 C49.251,22.435 48.078,21.262 48.078,19.815 C48.078,18.370 49.251,17.196 50.698,17.196 C52.145,17.196 53.317,18.370 53.317,19.815 C53.317,21.262 52.145,22.435 50.698,22.435 Z" id="path-8" class="cls-11" fill-rule="evenodd"/>
  </g>
</svg>
