<svg xmlns="http://www.w3.org/2000/svg" xmlns:xlink="http://www.w3.org/1999/xlink" preserveAspectRatio="xMidYMid" width="55" height="60" viewBox="0 0 55 60">
  <defs>
    <style>

      .cls-3 {
        fill: #142a3b;
      }

      .cls-4 {
        fill: #fbb713;
      }

      .cls-5 {
        fill: #060606;
        opacity: 0.35;
      }

      .cls-8 {
        fill: #ededed;
      }
    </style>
  </defs>
  <g id="group-174svg">
    <path d="M45.056,58.493 C45.056,58.493 8.601,58.493 8.601,58.493 C8.601,58.493 20.346,9.624 20.346,9.624 C21.710,7.441 24.132,6.036 26.827,6.036 C26.827,6.036 26.831,6.036 26.831,6.036 C29.541,6.036 31.974,7.459 33.333,9.663 C33.333,9.663 45.056,58.493 45.056,58.493 Z" id="path-1" class="cls-3" fill-rule="evenodd"/>
    <path d="M45.056,58.493 C45.056,58.493 8.601,58.493 8.601,58.493 C8.601,58.493 10.742,49.588 10.742,49.588 C10.742,49.588 42.881,49.588 42.881,49.588 C42.881,49.588 45.056,58.493 45.056,58.493 Z" id="path-2" class="cls-4" fill-rule="evenodd"/>
    <path d="M33.333,9.663 C31.974,7.459 29.541,6.036 26.831,6.036 C26.831,6.036 26.828,6.036 26.828,6.036 C26.828,6.036 35.503,42.174 35.503,42.174 C36.760,47.410 32.775,52.440 27.371,52.440 C27.371,52.440 10.057,52.440 10.057,52.440 C10.057,52.440 8.601,58.493 8.601,58.493 C8.601,58.493 45.056,58.493 45.056,58.493 C45.056,58.493 33.333,9.663 33.333,9.663 Z" id="path-3" class="cls-5" fill-rule="evenodd"/>
    <path d="M33.332,25.967 C31.999,24.882 30.058,24.978 28.840,26.191 C28.840,26.191 28.833,26.197 28.833,26.197 C27.616,27.410 27.519,29.345 28.609,30.673 C28.609,30.673 37.231,41.172 37.231,41.172 C38.487,42.701 40.794,42.815 42.196,41.418 C42.196,41.418 44.118,39.503 44.118,39.503 C45.520,38.106 45.405,35.808 43.871,34.558 C43.871,34.558 33.332,25.967 33.332,25.967 Z" id="path-4" class="cls-5" fill-rule="evenodd"/>
    <path d="M24.872,26.191 C23.655,24.978 21.712,24.882 20.380,25.967 C20.380,25.967 9.841,34.558 9.841,34.558 C8.307,35.808 8.191,38.106 9.594,39.503 C9.594,39.503 11.516,41.418 11.516,41.418 C12.918,42.815 15.225,42.701 16.480,41.172 C16.480,41.172 25.103,30.673 25.103,30.673 C26.193,29.345 26.096,27.410 24.879,26.197 C24.879,26.197 24.872,26.191 24.872,26.191 Z" id="path-5" class="cls-5" fill-rule="evenodd"/>
    <path d="M24.682,20.028 C24.426,20.028 24.171,19.931 23.976,19.736 C23.976,19.736 21.132,16.904 21.132,16.904 C20.740,16.514 20.739,15.881 21.129,15.489 C21.519,15.097 22.152,15.097 22.543,15.486 C22.543,15.486 25.387,18.320 25.387,18.320 C25.779,18.709 25.780,19.342 25.390,19.734 C25.195,19.930 24.938,20.028 24.682,20.028 Z" id="path-6" class="cls-8" fill-rule="evenodd"/>
    <path d="M31.874,27.194 C31.619,27.194 31.364,27.097 31.169,26.903 C31.169,26.903 28.270,24.015 28.270,24.015 C27.878,23.625 27.877,22.992 28.267,22.601 C28.656,22.209 29.290,22.208 29.681,22.598 C29.681,22.598 32.580,25.486 32.580,25.486 C32.972,25.875 32.973,26.508 32.583,26.900 C32.388,27.096 32.131,27.194 31.874,27.194 Z" id="path-7" class="cls-8" fill-rule="evenodd"/>
    <path d="M28.975,20.029 C28.718,20.029 28.462,19.931 28.267,19.735 C27.877,19.344 27.878,18.710 28.269,18.321 C28.269,18.321 31.144,15.457 31.144,15.457 C31.535,15.068 32.169,15.069 32.558,15.460 C32.948,15.851 32.947,16.485 32.555,16.874 C32.555,16.874 29.681,19.737 29.681,19.737 C29.486,19.932 29.230,20.029 28.975,20.029 Z" id="path-8" class="cls-8" fill-rule="evenodd"/>
    <path d="M21.804,27.173 C21.548,27.173 21.291,27.075 21.096,26.878 C20.706,26.487 20.707,25.854 21.099,25.464 C21.099,25.464 23.976,22.597 23.976,22.597 C24.367,22.208 25.001,22.209 25.391,22.600 C25.780,22.992 25.779,23.625 25.388,24.014 C25.388,24.014 22.510,26.881 22.510,26.881 C22.315,27.075 22.060,27.173 21.804,27.173 Z" id="path-9" class="cls-8" fill-rule="evenodd"/>
    <path d="M29.867,21.168 C29.867,22.839 28.507,24.194 26.829,24.194 C25.151,24.194 23.791,22.839 23.791,21.168 C23.791,19.496 25.151,18.141 26.829,18.141 C28.507,18.141 29.867,19.496 29.867,21.168 Z" id="path-10" class="cls-4" fill-rule="evenodd"/>
    <path d="M13.442,1.218 C12.187,-0.311 9.880,-0.426 8.479,0.971 C8.479,0.971 6.556,2.886 6.556,2.886 C5.154,4.283 5.269,6.581 6.804,7.832 C6.804,7.832 17.342,16.422 17.342,16.422 C18.675,17.508 20.617,17.411 21.834,16.198 C21.834,16.198 21.841,16.192 21.841,16.192 C23.059,14.979 23.155,13.044 22.065,11.716 C22.065,11.716 13.442,1.218 13.442,1.218 Z" id="path-11" class="cls-4" fill-rule="evenodd"/>
    <path d="M6.556,4.904 C6.556,4.904 8.479,2.988 8.479,2.988 C9.881,1.592 12.187,1.707 13.442,3.235 C13.442,3.235 22.065,13.734 22.065,13.734 C22.336,14.064 22.534,14.433 22.659,14.818 C22.983,13.778 22.800,12.611 22.065,11.716 C22.065,11.716 13.442,1.218 13.442,1.218 C12.187,-0.312 9.881,-0.426 8.479,0.971 C8.479,0.971 6.556,2.886 6.556,2.886 C5.633,3.805 5.381,5.110 5.744,6.255 C5.900,5.764 6.162,5.297 6.556,4.904 Z" id="path-12" class="cls-5" fill-rule="evenodd"/>
    <path d="M31.878,16.198 C33.095,17.411 35.038,17.508 36.370,16.422 C36.370,16.422 46.909,7.832 46.909,7.832 C48.443,6.581 48.559,4.283 47.156,2.886 C47.156,2.886 45.234,0.971 45.234,0.971 C43.831,-0.426 41.525,-0.311 40.270,1.218 C40.270,1.218 31.647,11.716 31.647,11.716 C30.557,13.044 30.653,14.979 31.871,16.192 C31.871,16.192 31.878,16.198 31.878,16.198 Z" id="path-13" class="cls-4" fill-rule="evenodd"/>
    <path d="M47.156,2.886 C47.156,2.886 45.234,0.971 45.234,0.971 C44.456,0.196 43.403,-0.097 42.402,0.042 C43.066,0.151 43.705,0.457 44.221,0.971 C44.221,0.971 46.143,2.886 46.143,2.886 C47.546,4.283 47.431,6.581 45.896,7.832 C45.896,7.832 35.357,16.422 35.357,16.422 C34.883,16.808 34.331,17.037 33.763,17.128 C34.666,17.259 35.615,17.037 36.370,16.422 C36.370,16.422 46.909,7.832 46.909,7.832 C48.443,6.581 48.559,4.283 47.156,2.886 Z" id="path-14" class="cls-5" fill-rule="evenodd"/>
    <path d="M21.834,26.191 C20.617,24.978 18.675,24.882 17.342,25.967 C17.342,25.967 6.804,34.558 6.804,34.558 C5.269,35.808 5.154,38.106 6.556,39.503 C6.556,39.503 8.479,41.418 8.479,41.418 C9.880,42.815 12.187,42.701 13.442,41.172 C13.442,41.172 22.065,30.673 22.065,30.673 C23.155,29.345 23.059,27.410 21.841,26.197 C21.841,26.197 21.834,26.191 21.834,26.191 Z" id="path-15" class="cls-4" fill-rule="evenodd"/>
    <path d="M21.841,26.197 C21.841,26.197 21.834,26.191 21.834,26.191 C20.920,25.280 19.597,24.999 18.430,25.376 C18.935,25.531 19.412,25.796 19.809,26.191 C19.809,26.191 19.815,26.197 19.815,26.197 C21.033,27.410 21.130,29.345 20.040,30.673 C20.040,30.673 11.417,41.172 11.417,41.172 C10.988,41.695 10.432,42.039 9.834,42.227 C11.097,42.626 12.540,42.270 13.442,41.172 C13.442,41.172 22.065,30.673 22.065,30.673 C23.155,29.345 23.059,27.410 21.841,26.197 Z" id="path-16" class="cls-5" fill-rule="evenodd"/>
    <path d="M36.370,25.967 C35.038,24.882 33.095,24.978 31.878,26.191 C31.878,26.191 31.871,26.197 31.871,26.197 C30.653,27.410 30.557,29.345 31.647,30.673 C31.647,30.673 40.270,41.172 40.270,41.172 C41.525,42.701 43.831,42.815 45.234,41.418 C45.234,41.418 47.156,39.503 47.156,39.503 C48.559,38.106 48.443,35.808 46.909,34.558 C46.909,34.558 36.370,25.967 36.370,25.967 Z" id="path-17" class="cls-4" fill-rule="evenodd"/>
    <path d="M46.909,34.558 C46.909,34.558 36.370,25.967 36.370,25.967 C35.038,24.881 33.095,24.978 31.878,26.191 C31.878,26.191 31.871,26.197 31.871,26.197 C31.698,26.369 31.554,26.559 31.427,26.757 C32.625,25.990 34.214,26.045 35.357,26.976 C35.357,26.976 45.896,35.566 45.896,35.566 C47.431,36.817 47.546,39.115 46.143,40.512 C46.143,40.512 47.156,39.503 47.156,39.503 C48.559,38.106 48.443,35.808 46.909,34.558 Z" id="path-18" class="cls-5" fill-rule="evenodd"/>
    <path d="M52.144,59.993 C52.144,59.993 1.513,59.993 1.513,59.993 C0.685,59.993 0.013,59.321 0.013,58.493 C0.013,57.664 0.685,56.993 1.513,56.993 C1.513,56.993 52.144,56.993 52.144,56.993 C52.973,56.993 53.644,57.664 53.644,58.493 C53.644,59.321 52.973,59.993 52.144,59.993 Z" id="path-19" class="cls-3" fill-rule="evenodd"/>
  </g>
</svg>
