<svg xmlns="http://www.w3.org/2000/svg" xmlns:xlink="http://www.w3.org/1999/xlink" preserveAspectRatio="xMidYMid" width="60" height="41" viewBox="0 0 60 41">
  <defs>
    <style>

      .cls-3 {
        fill: #ff3a2f;
      }

      .cls-4 {
        fill: #060606;
        opacity: 0.35;
      }

      .cls-5 {
        fill: #142a3b;
      }

      .cls-8 {
        fill: #fbb713;
      }

      .cls-10 {
        fill: #ededed;
      }
    </style>
  </defs>
  <g id="group-201svg">
    <path d="M54.610,31.948 C54.642,31.414 54.661,30.874 54.661,30.324 C54.661,22.341 51.303,10.266 47.161,10.266 C46.712,10.266 45.848,10.266 45.848,10.266 C45.848,10.266 11.762,10.432 11.762,10.432 C8.133,11.444 5.342,23.049 5.342,30.324 C5.342,30.874 5.363,31.414 5.394,31.948 C5.394,31.948 54.610,31.948 54.610,31.948 Z" id="path-1" class="cls-3" fill-rule="evenodd"/>
    <path d="M47.161,10.266 C46.960,10.266 46.678,10.266 46.425,10.266 C46.461,10.356 46.493,10.457 46.529,10.549 C46.529,10.549 14.516,10.549 14.516,10.549 C14.516,10.549 14.516,13.443 14.516,13.443 C14.516,13.443 47.500,13.443 47.500,13.443 C48.563,17.138 49.206,21.389 49.206,24.869 C49.206,24.875 49.206,24.880 49.206,24.886 C49.205,25.790 48.478,26.527 47.574,26.573 C47.574,26.573 5.556,28.676 5.556,28.676 C5.416,30.023 5.342,29.140 5.342,30.324 C5.342,30.874 5.363,31.414 5.394,31.948 C5.394,31.948 54.610,31.948 54.610,31.948 C54.642,31.414 54.661,30.874 54.661,30.324 C54.661,22.341 51.303,10.266 47.161,10.266 Z" id="path-2" class="cls-4" fill-rule="evenodd"/>
    <path d="M46.577,11.261 C46.577,11.261 13.425,11.261 13.425,11.261 C13.425,11.261 13.425,0.005 13.425,0.005 C13.425,0.005 46.577,0.005 46.577,0.005 C46.577,0.005 46.577,11.261 46.577,11.261 Z" id="path-3" class="cls-5" fill-rule="evenodd"/>
    <path d="M60.001,41.028 C60.001,41.028 0.001,41.028 0.001,41.028 C0.001,41.028 0.001,29.588 0.001,29.588 C0.001,29.588 60.001,29.588 60.001,29.588 C60.001,29.588 60.001,41.028 60.001,41.028 Z" id="path-4" class="cls-5" fill-rule="evenodd"/>
    <path d="M54.547,29.589 C54.547,29.589 54.547,31.981 54.547,31.981 C54.547,34.597 52.481,36.747 49.867,36.851 C49.867,36.851 0.001,38.847 0.001,38.847 C0.001,38.847 0.001,41.028 0.001,41.028 C0.001,41.028 60.001,41.028 60.001,41.028 C60.001,41.028 60.001,29.589 60.001,29.589 C60.001,29.589 54.547,29.589 54.547,29.589 Z" id="path-5" class="cls-4" fill-rule="evenodd"/>
    <path d="M43.921,9.187 C43.921,9.187 16.081,9.187 16.081,9.187 C16.081,9.187 16.081,2.080 16.081,2.080 C16.081,2.080 43.921,2.080 43.921,2.080 C43.921,2.080 43.921,9.187 43.921,9.187 Z" id="path-6" class="cls-8" fill-rule="evenodd"/>
    <path d="M43.921,2.080 C43.921,2.080 16.081,2.080 16.081,2.080 C16.081,2.080 16.081,2.748 16.081,2.748 C16.081,2.748 16.081,3.674 16.081,3.674 C16.081,3.674 16.081,9.229 16.081,9.229 C16.081,9.229 17.675,9.229 17.675,9.229 C17.675,9.229 17.675,3.674 17.675,3.674 C17.675,3.674 43.921,3.674 43.921,3.674 C43.921,3.674 43.921,2.080 43.921,2.080 Z" id="path-7" class="cls-4" fill-rule="evenodd"/>
    <path d="M46.292,26.280 C46.292,26.280 41.551,26.280 41.551,26.280 C41.551,26.280 41.551,15.934 41.551,15.934 C41.551,15.934 46.292,15.934 46.292,15.934 C46.292,15.934 46.292,26.280 46.292,26.280 Z" id="path-8" class="cls-10" fill-rule="evenodd"/>
    <path d="M38.949,26.280 C38.949,26.280 31.945,26.280 31.945,26.280 C31.945,26.280 31.945,22.413 31.945,22.413 C31.945,22.413 38.949,22.413 38.949,22.413 C38.949,22.413 38.949,26.280 38.949,26.280 Z" id="path-9" class="cls-10" fill-rule="evenodd"/>
    <path d="M29.832,26.280 C29.832,26.280 22.828,26.280 22.828,26.280 C22.828,26.280 22.828,22.413 22.828,22.413 C22.828,22.413 29.832,22.413 29.832,22.413 C29.832,22.413 29.832,26.280 29.832,26.280 Z" id="path-10" class="cls-10" fill-rule="evenodd"/>
    <path d="M20.714,26.280 C20.714,26.280 13.710,26.280 13.710,26.280 C13.710,26.280 13.710,22.413 13.710,22.413 C13.710,22.413 20.714,22.413 20.714,22.413 C20.714,22.413 20.714,26.280 20.714,26.280 Z" id="path-11" class="cls-10" fill-rule="evenodd"/>
    <path d="M38.949,19.976 C38.949,19.976 31.945,19.976 31.945,19.976 C31.945,19.976 31.945,16.109 31.945,16.109 C31.945,16.109 38.949,16.109 38.949,16.109 C38.949,16.109 38.949,19.976 38.949,19.976 Z" id="path-12" class="cls-10" fill-rule="evenodd"/>
    <path d="M29.832,19.976 C29.832,19.976 22.828,19.976 22.828,19.976 C22.828,19.976 22.828,16.109 22.828,16.109 C22.828,16.109 29.832,16.109 29.832,16.109 C29.832,16.109 29.832,19.976 29.832,19.976 Z" id="path-13" class="cls-10" fill-rule="evenodd"/>
    <path d="M20.714,19.976 C20.714,19.976 13.710,19.976 13.710,19.976 C13.710,19.976 13.710,16.109 13.710,16.109 C13.710,16.109 20.714,16.109 20.714,16.109 C20.714,16.109 20.714,19.976 20.714,19.976 Z" id="path-14" class="cls-10" fill-rule="evenodd"/>
  </g>
</svg>
