<svg xmlns="http://www.w3.org/2000/svg" xmlns:xlink="http://www.w3.org/1999/xlink" preserveAspectRatio="xMidYMid" width="47" height="60" viewBox="0 0 47 60">
  <defs>
    <style>

      .cls-3 {
        fill: #142a3b;
      }

      .cls-4 {
        fill: #000000;
        opacity: 0.35;
      }

      .cls-5 {
        fill: #ededed;
      }

      .cls-7 {
        fill: #fbb713;
      }
    </style>
  </defs>
  <g id="group-275svg">
    <path d="M46.547,59.988 C46.547,59.988 -0.004,59.988 -0.004,59.988 C-0.004,59.988 -0.004,3.752 -0.004,3.752 C-0.004,3.752 46.547,3.752 46.547,3.752 C46.547,3.752 46.547,59.988 46.547,59.988 Z" id="path-1" class="cls-3" fill-rule="evenodd"/>
    <path d="M43.535,55.960 C43.535,55.960 6.758,55.960 6.758,55.960 C6.758,55.960 6.758,11.530 6.758,11.530 C6.758,11.530 43.535,11.530 43.535,11.530 C43.535,11.530 43.535,55.960 43.535,55.960 Z" id="path-2" class="cls-4" fill-rule="evenodd"/>
    <path d="M41.660,54.085 C41.660,54.085 4.883,54.085 4.883,54.085 C4.883,54.085 4.883,9.655 4.883,9.655 C4.883,9.655 41.660,9.655 41.660,9.655 C41.660,9.655 41.660,54.085 41.660,54.085 Z" id="path-3" class="cls-5" fill-rule="evenodd"/>
    <path d="M36.109,15.577 C36.109,15.577 14.184,15.577 14.184,15.577 C14.184,15.577 14.184,7.850 14.184,7.850 C14.184,7.850 36.109,7.850 36.109,7.850 C36.109,7.850 36.109,15.577 36.109,15.577 Z" id="path-4" class="cls-4" fill-rule="evenodd"/>
    <path d="M34.234,13.702 C34.234,13.702 12.309,13.702 12.309,13.702 C12.309,13.702 12.309,5.975 12.309,5.975 C12.309,5.975 34.234,5.975 34.234,5.975 C34.234,5.975 34.234,13.702 34.234,13.702 Z" id="path-5" class="cls-7" fill-rule="evenodd"/>
    <path d="M29.142,5.859 C29.142,9.101 26.514,11.730 23.271,11.730 C20.029,11.730 17.400,9.101 17.400,5.859 C17.400,2.616 20.029,-0.012 23.271,-0.012 C26.514,-0.012 29.142,2.616 29.142,5.859 Z" id="path-6" class="cls-7" fill-rule="evenodd"/>
    <path d="M25.601,5.859 C25.601,7.145 24.558,8.188 23.271,8.188 C21.985,8.188 20.942,7.145 20.942,5.859 C20.942,4.572 21.985,3.530 23.271,3.530 C24.558,3.530 25.601,4.572 25.601,5.859 Z" id="path-7" class="cls-3" fill-rule="evenodd"/>
    <path d="M24.374,3.819 C24.553,4.149 24.663,4.520 24.663,4.922 C24.663,6.208 23.620,7.251 22.334,7.251 C21.933,7.251 21.561,7.140 21.231,6.962 C21.625,7.689 22.386,8.188 23.271,8.188 C24.558,8.188 25.601,7.146 25.601,5.859 C25.601,4.974 25.101,4.213 24.374,3.819 Z" id="path-8" class="cls-4" fill-rule="evenodd"/>
  </g>
</svg>
