<svg xmlns="http://www.w3.org/2000/svg" xmlns:xlink="http://www.w3.org/1999/xlink" preserveAspectRatio="xMidYMid" width="60" height="49" viewBox="0 0 60 49">
  <defs>
    <style>

      .cls-3 {
        fill: #2476ff;
      }

      .cls-4 {
        fill: #ff3a2f;
      }

      .cls-5 {
        fill: #060606;
        opacity: 0.35;
      }
    </style>
  </defs>
  <g id="group-187svg">
    <path d="M59.986,48.922 C59.986,48.922 22.890,24.461 22.890,24.461 C22.890,24.461 59.986,-0.001 59.986,-0.001 C59.986,-0.001 59.986,48.922 59.986,48.922 Z" id="path-1" class="cls-3" fill-rule="evenodd"/>
    <path d="M37.082,48.922 C37.082,48.922 -0.014,24.461 -0.014,24.461 C-0.014,24.461 37.082,-0.001 37.082,-0.001 C37.082,-0.001 37.082,48.922 37.082,48.922 Z" id="path-2" class="cls-4" fill-rule="evenodd"/>
    <path d="M37.082,33.819 C37.082,33.819 38.084,34.479 38.084,34.479 C38.084,34.479 40.838,12.626 40.838,12.626 C40.838,12.626 37.082,15.102 37.082,15.102 C37.082,15.102 37.082,33.819 37.082,33.819 Z" id="path-3" class="cls-5" fill-rule="evenodd"/>
  </g>
</svg>
