<svg xmlns="http://www.w3.org/2000/svg" xmlns:xlink="http://www.w3.org/1999/xlink" preserveAspectRatio="xMidYMid" width="50" height="60" viewBox="0 0 50 60">
  <defs>
    <style>

      .cls-3 {
        fill: #2476ff;
      }

      .cls-4 {
        fill: #000000;
        opacity: 0.35;
      }

      .cls-5 {
        fill: #fbb713;
      }

      .cls-6 {
        fill: #ededed;
      }

      .cls-7 {
        fill: #000000;
        opacity: 0.25;
      }
    </style>
  </defs>
  <g id="group-313svg">
    <path d="M30.640,48.167 C30.640,48.167 39.397,56.925 39.397,56.925 C39.397,56.925 39.365,57.090 39.365,57.090 C39.365,58.701 32.838,60.010 24.785,60.010 C16.734,60.010 10.206,58.701 10.206,57.090 C10.206,57.090 10.206,56.925 10.206,56.925 C10.206,56.925 18.963,48.167 18.963,48.167 C18.963,48.167 18.963,48.167 18.963,48.167 " id="path-1" class="cls-3" fill-rule="evenodd"/>
    <path d="M30.640,48.167 C30.640,48.167 18.963,48.167 18.963,48.167 C18.963,48.167 10.206,56.925 10.206,56.925 C10.206,56.925 10.206,57.090 10.206,57.090 C10.206,57.315 10.345,57.533 10.587,57.744 C10.587,57.744 16.563,51.767 16.563,51.767 C16.563,51.767 28.240,51.767 28.240,51.767 C28.240,51.767 35.530,59.058 35.530,59.058 C37.904,58.538 39.365,57.849 39.365,57.090 C39.365,57.090 39.397,56.925 39.397,56.925 C39.397,56.925 30.640,48.167 30.640,48.167 Z" id="path-2" class="cls-4" fill-rule="evenodd"/>
    <path d="M49.615,24.822 C49.615,38.526 38.505,49.635 24.802,49.635 C11.098,49.635 -0.011,38.526 -0.011,24.822 C-0.011,11.119 11.098,0.009 24.802,0.009 C38.505,0.009 49.615,11.119 49.615,24.822 Z" id="path-3" class="cls-5" fill-rule="evenodd"/>
    <path d="M35.018,24.822 C35.018,30.464 30.445,35.039 24.802,35.039 C19.160,35.039 14.584,30.464 14.584,24.822 C14.584,19.181 19.160,14.605 24.802,14.605 C30.445,14.605 35.018,19.181 35.018,24.822 Z" id="path-4" class="cls-6" fill-rule="evenodd"/>
    <path d="M34.577,2.016 C42.116,6.274 47.215,14.347 47.215,23.623 C47.215,37.326 36.105,48.435 22.402,48.435 C18.929,48.435 15.626,47.717 12.626,46.429 C16.225,48.462 20.373,49.635 24.802,49.635 C38.505,49.635 49.615,38.526 49.615,24.822 C49.615,14.591 43.419,5.811 34.577,2.016 Z" id="path-5" class="cls-7" fill-rule="evenodd"/>
    <path d="M28.153,15.179 C30.848,17.019 32.619,20.113 32.619,23.623 C32.619,29.264 28.045,33.840 22.402,33.840 C21.226,33.840 20.103,33.631 19.051,33.266 C20.689,34.384 22.669,35.040 24.802,35.040 C30.445,35.040 35.018,30.464 35.018,24.822 C35.018,20.356 32.147,16.567 28.153,15.179 Z" id="path-6" class="cls-7" fill-rule="evenodd"/>
  </g>
</svg>
