<svg xmlns="http://www.w3.org/2000/svg" xmlns:xlink="http://www.w3.org/1999/xlink" preserveAspectRatio="xMidYMid" width="56" height="61" viewBox="0 0 56 61">
  <defs>
    <style>

      .cls-3 {
        fill: #ff3a2f;
      }

      .cls-4 {
        fill: #000000;
        opacity: 0.25;
      }

      .cls-5 {
        fill: #142a3b;
      }

      .cls-6 {
        fill: #000000;
        opacity: 0.35;
      }

      .cls-7 {
        fill: #fbb713;
      }

      .cls-12 {
        fill: #ffffff;
      }
    </style>
  </defs>
  <g id="group-2svg">
    <path d="M-0.000,-0.000 C-0.000,-0.000 -0.000,50.827 -0.000,50.827 C-0.000,55.375 4.477,60.000 7.615,60.000 C7.615,60.000 35.537,60.000 35.537,60.000 C38.674,60.000 42.000,55.375 42.000,50.827 C42.000,50.827 42.000,-0.000 42.000,-0.000 C42.000,-0.000 -0.000,-0.000 -0.000,-0.000 Z" id="path-1" class="cls-3" fill-rule="evenodd"/>
    <path d="M36.027,0.077 C36.027,0.077 36.027,48.349 36.027,48.349 C36.027,52.897 32.450,57.420 29.313,57.420 C29.313,57.420 3.185,57.523 3.185,57.523 C4.222,58.630 6.034,60.030 7.461,60.030 C7.461,60.030 35.537,60.030 35.537,60.030 C38.674,60.030 42.000,55.287 42.000,50.738 C42.000,50.738 42.000,0.077 42.000,0.077 C42.000,0.077 36.027,0.077 36.027,0.077 Z" id="path-2" class="cls-4" fill-rule="evenodd"/>
    <path d="M29.000,20.000 C29.000,20.000 27.000,20.000 27.000,20.000 C27.000,20.000 27.000,-0.000 27.000,-0.000 C27.000,-0.000 29.000,-0.000 29.000,-0.000 C29.000,-0.000 29.000,20.000 29.000,20.000 Z" id="path-3" class="cls-5" fill-rule="evenodd"/>
    <path d="M32.000,25.000 C32.000,25.000 30.000,25.000 30.000,25.000 C30.000,25.000 30.000,-0.000 30.000,-0.000 C30.000,-0.000 32.000,-0.000 32.000,-0.000 C32.000,-0.000 32.000,25.000 32.000,25.000 Z" id="path-4" class="cls-6" fill-rule="evenodd"/>
    <path d="M35.000,35.000 C35.000,35.000 21.000,35.000 21.000,35.000 C21.000,35.000 21.000,20.000 21.000,20.000 C21.000,20.000 35.000,20.000 35.000,20.000 C35.000,20.000 35.000,35.000 35.000,35.000 Z" id="path-5" class="cls-7" fill-rule="evenodd"/>
    <path d="M35.125,23.267 C35.125,23.267 35.125,35.008 35.125,35.008 C35.125,35.008 24.373,35.008 24.373,35.008 C24.373,35.008 24.373,38.797 24.373,38.797 C24.373,38.797 38.709,38.797 38.709,38.797 C38.709,38.797 38.709,23.267 38.709,23.267 C38.709,23.267 35.125,23.267 35.125,23.267 Z" id="path-6" class="cls-6" fill-rule="evenodd"/>
    <path d="M42.000,45.000 C42.000,45.000 45.534,45.000 45.534,45.000 C45.534,45.000 52.203,45.000 52.203,45.000 C54.729,45.000 56.000,42.923 56.000,40.396 C56.000,40.396 56.000,11.661 56.000,11.661 C56.000,9.135 54.729,7.000 52.203,7.000 C52.203,7.000 45.534,7.000 45.534,7.000 C45.534,7.000 42.000,7.000 42.000,7.000 C42.000,7.000 42.000,13.000 42.000,13.000 C42.000,13.000 45.429,13.000 45.429,13.000 C45.429,13.000 46.186,13.000 46.186,13.000 C48.712,13.000 50.000,15.884 50.000,18.410 C50.000,18.410 50.000,33.647 50.000,33.647 C50.000,36.173 48.712,38.000 46.186,38.000 C46.186,38.000 45.429,38.000 45.429,38.000 C45.429,38.000 42.000,38.000 42.000,38.000 C42.000,38.000 42.000,45.000 42.000,45.000 Z" id="path-7" class="cls-3" fill-rule="evenodd"/>
    <path d="M45.011,38.168 C45.011,38.168 42.000,38.132 42.000,38.132 C42.000,38.132 42.000,45.048 42.000,45.048 C42.000,45.048 45.115,45.048 45.115,45.048 C45.115,45.048 47.407,45.048 47.407,45.048 C47.407,45.048 47.642,37.883 47.642,37.883 C47.138,38.099 46.354,38.168 45.767,38.168 C45.767,38.168 45.011,38.168 45.011,38.168 Z" id="path-8" class="cls-6" fill-rule="evenodd"/>
    <path d="M42.000,7.015 C42.000,7.015 42.000,12.777 42.000,12.777 C42.000,12.777 44.262,12.777 44.262,12.777 C44.262,12.777 45.018,12.777 45.018,12.777 C45.605,12.777 46.186,12.777 46.658,12.816 C46.658,12.816 46.658,7.015 46.658,7.015 C46.658,7.015 44.366,7.015 44.366,7.015 C44.366,7.015 42.000,7.015 42.000,7.015 Z" id="path-9" class="cls-6" fill-rule="evenodd"/>
    <path d="M6.081,48.630 C5.528,48.630 5.080,48.182 5.080,47.630 C5.080,47.630 5.080,10.409 5.080,10.409 C5.080,9.857 5.528,9.409 6.081,9.409 C6.633,9.409 7.081,9.857 7.081,10.409 C7.081,10.409 7.081,47.630 7.081,47.630 C7.081,48.182 6.633,48.630 6.081,48.630 Z" id="path-10" class="cls-12" fill-rule="evenodd"/>
  </g>
</svg>
