<svg xmlns="http://www.w3.org/2000/svg" xmlns:xlink="http://www.w3.org/1999/xlink" preserveAspectRatio="xMidYMid" width="35" height="61" viewBox="0 0 35 61">
  <defs>
    <style>

      .cls-3 {
        fill: #142a3b;
      }

      .cls-6 {
        fill: #ff3a2f;
      }

      .cls-8 {
        fill: #ffffff;
      }

      .cls-9 {
        fill: #020403;
        opacity: 0.35;
      }

      .cls-18 {
        fill: #fbb713;
      }
    </style>
  </defs>
  <g id="group-23svg">
    <path d="M33.824,44.218 C33.824,46.413 32.044,48.192 29.850,48.192 C27.655,48.192 25.876,46.413 25.876,44.218 C25.876,42.024 27.655,40.244 29.850,40.244 C32.044,40.244 33.824,42.024 33.824,44.218 Z" id="path-1" class="cls-3" fill-rule="evenodd"/>
    <path d="M20.938,49.156 C20.938,49.156 0.261,49.156 0.261,49.156 C0.261,49.156 0.261,28.202 0.261,28.202 C0.261,28.202 20.938,28.202 20.938,28.202 C20.938,28.202 20.938,49.156 20.938,49.156 Z" id="path-2" class="cls-3" fill-rule="evenodd"/>
    <path d="M14.527,39.679 C14.527,39.679 6.158,39.679 6.158,39.679 C5.606,39.679 5.158,39.231 5.158,38.679 C5.158,38.127 5.606,37.679 6.158,37.679 C6.158,37.679 14.527,37.679 14.527,37.679 C15.079,37.679 15.527,38.127 15.527,38.679 C15.527,39.231 15.079,39.679 14.527,39.679 Z" id="path-3" class="cls-3" fill-rule="evenodd"/>
    <path d="M33.824,44.218 C33.824,46.413 32.044,48.192 29.850,48.192 C27.655,48.192 25.876,46.413 25.876,44.218 C25.876,42.024 27.655,40.244 29.850,40.244 C32.044,40.244 33.824,42.024 33.824,44.218 Z" id="path-4" class="cls-6" fill-rule="evenodd"/>
    <path d="M10.461,12.944 C9.909,12.944 9.461,12.497 9.461,11.945 C9.461,11.945 9.461,2.197 9.461,2.197 C9.461,1.646 9.909,1.197 10.461,1.197 C11.014,1.197 11.461,1.646 11.461,2.197 C11.461,2.197 11.461,11.945 11.461,11.945 C11.461,12.497 11.014,12.944 10.461,12.944 Z" id="path-5" class="cls-3" fill-rule="evenodd"/>
    <path d="M29.894,43.014 C29.894,43.704 29.335,44.263 28.646,44.263 C27.956,44.263 27.397,43.704 27.397,43.014 C27.397,42.325 27.956,41.766 28.646,41.766 C29.335,41.766 29.894,42.325 29.894,43.014 Z" id="path-6" class="cls-8" fill-rule="evenodd"/>
    <path d="M31.987,40.877 C32.383,41.495 32.620,42.226 32.620,43.014 C32.620,45.209 30.840,46.988 28.646,46.988 C27.857,46.988 27.126,46.752 26.509,46.356 C27.215,47.458 28.444,48.192 29.850,48.192 C32.044,48.192 33.824,46.413 33.824,44.218 C33.824,42.812 33.089,41.583 31.987,40.877 Z" id="path-7" class="cls-9" fill-rule="evenodd"/>
    <path d="M-0.015,59.994 C-0.015,59.994 20.938,59.994 20.938,59.994 C20.938,59.994 20.938,20.977 20.938,20.977 C20.938,15.191 16.248,10.500 10.461,10.500 C4.675,10.500 -0.015,15.191 -0.015,20.977 C-0.015,20.977 -0.015,59.994 -0.015,59.994 Z" id="path-8" class="cls-3" fill-rule="evenodd"/>
    <path d="M10.461,11.741 C9.909,11.741 9.461,11.293 9.461,10.741 C9.461,10.741 9.461,0.994 9.461,0.994 C9.461,0.442 9.909,-0.006 10.461,-0.006 C11.014,-0.006 11.461,0.442 11.461,0.994 C11.461,0.994 11.461,10.741 11.461,10.741 C11.461,11.293 11.014,11.741 10.461,11.741 Z" id="path-9" class="cls-3" fill-rule="evenodd"/>
    <path d="M29.792,41.244 C29.240,41.244 28.792,40.797 28.792,40.244 C28.792,40.244 28.792,19.503 28.792,19.503 C28.792,12.204 22.854,6.265 15.554,6.265 C15.554,6.265 5.435,6.265 5.435,6.265 C4.883,6.265 4.435,5.818 4.435,5.265 C4.435,4.713 4.883,4.265 5.435,4.265 C5.435,4.265 15.554,4.265 15.554,4.265 C23.957,4.265 30.792,11.101 30.792,19.503 C30.792,19.503 30.792,40.244 30.792,40.244 C30.792,40.797 30.345,41.244 29.792,41.244 Z" id="path-10" class="cls-3" fill-rule="evenodd"/>
    <path d="M-0.015,59.994 C-0.015,59.994 20.938,59.994 20.938,59.994 C20.938,59.994 20.938,20.977 20.938,20.977 C20.938,15.191 16.248,10.500 10.461,10.500 C4.675,10.500 -0.015,15.191 -0.015,20.977 C-0.015,20.977 -0.015,59.994 -0.015,59.994 Z" id="path-11" class="cls-6" fill-rule="evenodd"/>
    <path d="M10.462,10.500 C9.631,10.500 8.828,10.607 8.054,10.789 C12.677,11.879 16.122,16.021 16.122,20.977 C16.122,20.977 16.122,59.994 16.122,59.994 C16.122,59.994 20.938,59.994 20.938,59.994 C20.938,59.994 20.938,20.977 20.938,20.977 C20.938,15.191 16.248,10.500 10.462,10.500 Z" id="path-12" class="cls-9" fill-rule="evenodd"/>
    <path d="M13.750,5.362 C13.750,7.094 12.346,8.498 10.614,8.498 C8.882,8.498 7.478,7.094 7.478,5.362 C7.478,3.630 8.882,2.225 10.614,2.225 C12.346,2.225 13.750,3.630 13.750,5.362 Z" id="path-13" class="cls-6" fill-rule="evenodd"/>
    <path d="M10.663,2.230 C11.082,2.763 11.342,3.427 11.342,4.157 C11.342,5.889 9.938,7.293 8.206,7.293 C8.189,7.293 8.174,7.288 8.157,7.288 C8.731,8.019 9.613,8.498 10.614,8.498 C12.346,8.498 13.750,7.094 13.750,5.362 C13.750,3.646 12.372,2.257 10.663,2.230 Z" id="path-14" class="cls-9" fill-rule="evenodd"/>
    <path d="M10.492,4.484 C10.492,5.098 9.995,5.596 9.380,5.596 C8.767,5.596 8.269,5.098 8.269,4.484 C8.269,3.870 8.767,3.372 9.380,3.372 C9.995,3.372 10.492,3.870 10.492,4.484 Z" id="path-15" class="cls-8" fill-rule="evenodd"/>
    <path d="M20.938,49.156 C20.938,49.156 -0.015,49.156 -0.015,49.156 C-0.015,49.156 -0.015,28.202 -0.015,28.202 C-0.015,28.202 20.938,28.202 20.938,28.202 C20.938,28.202 20.938,49.156 20.938,49.156 Z" id="path-16" class="cls-18" fill-rule="evenodd"/>
    <path d="M16.122,28.202 C16.122,28.202 16.122,49.156 16.122,49.156 C16.122,49.156 20.938,49.156 20.938,49.156 C20.938,49.156 20.938,28.202 20.938,28.202 C20.938,28.202 16.122,28.202 16.122,28.202 Z" id="path-17" class="cls-9" fill-rule="evenodd"/>
    <path d="M14.527,39.679 C14.527,39.679 6.158,39.679 6.158,39.679 C5.606,39.679 5.158,39.231 5.158,38.679 C5.158,38.127 5.606,37.679 6.158,37.679 C6.158,37.679 14.527,37.679 14.527,37.679 C15.079,37.679 15.527,38.127 15.527,38.679 C15.527,39.231 15.079,39.679 14.527,39.679 Z" id="path-18" class="cls-3" fill-rule="evenodd"/>
    <path d="M2.088,43.330 C1.536,43.330 1.088,42.883 1.088,42.330 C1.088,42.330 1.088,23.063 1.088,23.063 C1.088,19.177 3.031,15.585 6.287,13.454 C6.749,13.152 7.369,13.281 7.671,13.743 C7.974,14.205 7.844,14.825 7.382,15.127 C4.693,16.887 3.088,19.854 3.088,23.063 C3.088,23.063 3.088,42.330 3.088,42.330 C3.088,42.883 2.640,43.330 2.088,43.330 Z" id="path-19" class="cls-8" fill-rule="evenodd"/>
  </g>
</svg>
