<svg xmlns="http://www.w3.org/2000/svg" xmlns:xlink="http://www.w3.org/1999/xlink" preserveAspectRatio="xMidYMid" width="61" height="35" viewBox="0 0 61 35">
  <defs>
    <style>

      .cls-3 {
        fill: #142a3b;
      }

      .cls-4 {
        fill: #ff3a2f;
      }
    </style>
  </defs>
  <g id="group-95svg">
    <path d="M29.528,17.879 C28.976,17.879 28.528,17.431 28.528,16.879 C28.528,16.879 28.528,12.121 28.528,12.121 C28.528,12.121 29.528,12.121 29.528,12.121 C34.361,12.121 34.883,8.582 34.883,7.061 C34.883,4.179 32.858,2.005 30.172,2.005 C27.397,2.005 25.140,4.260 25.140,7.031 C25.140,7.584 24.692,8.032 24.140,8.032 C23.588,8.032 23.140,7.584 23.140,7.031 C23.140,3.157 26.295,0.005 30.172,0.005 C33.998,0.005 36.883,3.039 36.883,7.061 C36.883,11.020 34.422,13.686 30.528,14.072 C30.528,14.072 30.528,16.879 30.528,16.879 C30.528,17.431 30.081,17.879 29.528,17.879 Z" id="path-1" class="cls-3" fill-rule="evenodd"/>
    <path d="M29.393,16.606 C29.393,16.606 0.012,27.913 0.012,27.913 C0.012,27.913 2.136,35.004 2.136,35.004 C2.136,35.004 58.284,35.004 58.284,35.004 C58.284,35.004 60.012,27.913 60.012,27.913 C60.012,27.913 29.393,16.606 29.393,16.606 ZM55.989,32.824 C55.989,32.824 4.517,32.824 4.517,32.824 C4.517,32.824 3.430,29.735 3.430,29.735 C3.430,29.735 28.984,19.196 28.984,19.196 C28.984,19.196 56.895,29.735 56.895,29.735 C56.895,29.735 55.989,32.824 55.989,32.824 Z" id="path-2" class="cls-4" fill-rule="evenodd"/>
  </g>
</svg>
