<svg xmlns="http://www.w3.org/2000/svg" xmlns:xlink="http://www.w3.org/1999/xlink" preserveAspectRatio="xMidYMid" width="45" height="61" viewBox="0 0 45 61">
  <defs>
    <style>

      .cls-3 {
        fill: #ff3a2f;
      }

      .cls-4 {
        fill: #fbb713;
      }

      .cls-5 {
        fill: #2476ff;
      }

      .cls-6 {
        fill: #020403;
        opacity: 0.35;
      }

      .cls-9 {
        fill: #142a3b;
      }

      .cls-12 {
        fill: #020403;
        opacity: 0.45;
      }
    </style>
  </defs>
  <g id="group-42svg">
    <path d="M23.635,0.000 C23.635,0.000 21.059,6.925 21.059,6.925 C21.059,6.925 27.078,9.139 27.078,9.139 C27.078,9.139 23.645,18.372 23.645,18.372 C23.645,18.372 25.965,19.225 25.965,19.225 C25.965,19.225 29.398,9.993 29.398,9.993 C29.398,9.993 35.416,12.207 35.416,12.207 C35.416,12.207 37.991,5.283 37.991,5.283 C37.991,5.283 23.635,0.000 23.635,0.000 ZM33.926,9.910 C33.926,9.910 23.613,6.115 23.613,6.115 C23.613,6.115 25.044,2.268 25.044,2.268 C25.044,2.268 35.356,6.063 35.356,6.063 C35.356,6.063 33.926,9.910 33.926,9.910 Z" id="path-1" class="cls-3" fill-rule="evenodd"/>
    <path d="M33.131,18.683 C31.958,18.683 30.885,19.070 30.052,19.710 C29.002,17.806 26.848,16.497 24.354,16.497 C21.128,16.497 18.468,18.685 18.039,21.525 C17.428,20.443 16.206,19.695 14.780,19.695 C14.062,19.695 13.397,19.891 12.830,20.215 C11.952,19.279 10.651,18.683 9.195,18.683 C6.552,18.683 4.408,20.641 4.408,23.056 C4.408,23.056 37.918,23.056 37.918,23.056 C37.918,20.641 35.775,18.683 33.131,18.683 Z" id="path-2" class="cls-4" fill-rule="evenodd"/>
    <path d="M37.313,60.000 C37.313,60.000 6.404,60.000 6.404,60.000 C6.404,60.000 6.404,29.882 6.404,29.882 C6.404,29.882 37.313,29.882 37.313,29.882 C37.313,29.882 37.313,60.000 37.313,60.000 Z" id="path-3" class="cls-5" fill-rule="evenodd"/>
    <path d="M6.404,29.882 C6.404,29.882 6.404,32.104 6.404,32.104 C6.404,32.104 30.612,34.326 30.612,34.326 C30.612,34.326 30.612,60.000 30.612,60.000 C30.612,60.000 37.313,60.000 37.313,60.000 C37.313,60.000 37.313,29.882 37.313,29.882 C37.313,29.882 6.404,29.882 6.404,29.882 Z" id="path-4" class="cls-6" fill-rule="evenodd"/>
    <path d="M40.196,29.882 C40.196,29.882 3.522,29.882 3.522,29.882 C3.522,29.882 3.522,22.282 3.522,22.282 C3.522,22.282 40.196,22.282 40.196,22.282 C40.196,22.282 40.196,29.882 40.196,29.882 Z" id="path-5" class="cls-5" fill-rule="evenodd"/>
    <path d="M33.494,22.282 C33.494,22.282 33.494,27.660 33.494,27.660 C33.494,27.660 3.522,27.660 3.522,27.660 C3.522,27.660 3.522,29.882 3.522,29.882 C3.522,29.882 40.196,29.882 40.196,29.882 C40.196,29.882 40.196,22.282 40.196,22.282 C40.196,22.282 33.494,22.282 33.494,22.282 Z" id="path-6" class="cls-6" fill-rule="evenodd"/>
    <path d="M39.883,39.076 C39.883,39.076 37.313,39.076 37.313,39.076 C37.313,39.076 37.313,32.322 37.313,32.322 C37.313,32.322 39.883,32.322 39.883,32.322 C39.883,32.322 39.883,39.076 39.883,39.076 Z" id="path-7" class="cls-9" fill-rule="evenodd"/>
    <path d="M6.596,39.184 C6.596,39.184 4.025,39.184 4.025,39.184 C4.025,39.184 4.025,32.428 4.025,32.428 C4.025,32.428 6.596,32.428 6.596,32.428 C6.596,32.428 6.596,39.184 6.596,39.184 Z" id="path-8" class="cls-9" fill-rule="evenodd"/>
    <path d="M22.160,55.076 C9.936,55.076 -0.009,46.431 -0.009,35.806 C-0.009,35.806 -0.009,34.780 -0.009,34.780 C-0.009,34.780 5.335,34.913 5.335,34.913 C5.335,34.913 5.286,36.913 5.286,36.913 C5.286,36.913 2.026,36.831 2.026,36.831 C2.648,45.879 11.441,53.076 22.160,53.076 C32.890,53.076 41.689,45.865 42.296,36.806 C42.296,36.806 38.086,36.806 38.086,36.806 C38.086,36.806 38.086,34.806 38.086,34.806 C38.086,34.806 44.329,34.806 44.329,34.806 C44.329,34.806 44.329,35.806 44.329,35.806 C44.329,46.431 34.384,55.076 22.160,55.076 Z" id="path-9" class="cls-9" fill-rule="evenodd"/>
    <path d="M23.277,58.409 C16.046,58.409 9.315,53.158 6.757,50.900 C6.343,50.535 6.303,49.903 6.668,49.489 C7.034,49.074 7.666,49.036 8.080,49.401 C9.943,51.045 16.545,56.410 23.277,56.410 C28.243,56.410 32.180,55.250 35.668,52.761 C36.119,52.440 36.742,52.545 37.063,52.994 C37.384,53.444 37.279,54.068 36.830,54.389 C33.039,57.095 28.605,58.409 23.277,58.409 Z" id="path-10" class="cls-12" fill-rule="evenodd"/>
  </g>
</svg>
