<svg xmlns="http://www.w3.org/2000/svg" xmlns:xlink="http://www.w3.org/1999/xlink" preserveAspectRatio="xMidYMid" width="61" height="32" viewBox="0 0 61 32">
  <defs>
    <style>

      .cls-3 {
        fill: #142a3b;
      }

      .cls-4 {
        fill: #fbb713;
      }

      .cls-5 {
        fill: #020403;
        opacity: 0.35;
      }

      .cls-9 {
        fill: #ff3a2f;
      }

      .cls-10 {
        fill: #ffffff;
      }
    </style>
  </defs>
  <g id="group-70svg">
    <path d="M-0.003,22.593 C-0.003,17.463 4.171,13.289 9.301,13.289 C14.431,13.289 18.605,17.463 18.605,22.593 C18.605,27.723 14.431,31.897 9.301,31.897 C4.171,31.897 -0.003,27.723 -0.003,22.593 Z" id="path-1" class="cls-3" fill-rule="evenodd"/>
    <path d="M5.313,22.593 C5.313,20.395 7.101,18.605 9.301,18.605 C11.499,18.605 13.289,20.395 13.289,22.593 C13.289,24.792 11.499,26.580 9.301,26.580 C7.101,26.580 5.313,24.792 5.313,22.593 Z" id="path-2" class="cls-4" fill-rule="evenodd"/>
    <path d="M10.591,13.389 C13.445,14.980 15.383,18.026 15.383,21.518 C15.383,26.649 11.208,30.823 6.079,30.823 C5.640,30.823 5.211,30.782 4.788,30.723 C6.126,31.469 7.663,31.897 9.301,31.897 C14.431,31.897 18.605,27.723 18.605,22.593 C18.605,17.902 15.111,14.021 10.591,13.389 Z" id="path-3" class="cls-5" fill-rule="evenodd"/>
    <path d="M11.531,19.289 C11.962,19.926 12.214,20.693 12.214,21.518 C12.214,23.717 10.425,25.507 8.227,25.507 C7.401,25.507 6.634,25.254 5.997,24.823 C6.714,25.882 7.927,26.580 9.301,26.580 C11.499,26.580 13.289,24.792 13.289,22.593 C13.289,21.219 12.590,20.007 11.531,19.289 Z" id="path-4" class="cls-5" fill-rule="evenodd"/>
    <path d="M49.432,26.507 C49.243,26.507 49.051,26.483 48.860,26.437 C48.860,26.437 35.570,22.989 35.570,22.989 C35.570,22.989 45.711,6.584 45.711,6.584 C45.711,6.584 51.629,23.404 51.629,23.404 C51.915,24.217 51.730,25.118 51.147,25.753 C50.708,26.232 50.083,26.507 49.432,26.507 ZM38.697,21.734 C38.697,21.734 49.432,24.507 49.432,24.507 C49.524,24.507 49.611,24.468 49.673,24.402 C49.756,24.310 49.783,24.183 49.742,24.068 C49.742,24.068 45.213,11.194 45.213,11.194 C45.213,11.194 38.697,21.734 38.697,21.734 Z" id="path-5" class="cls-3" fill-rule="evenodd"/>
    <path d="M58.997,2.071 C58.997,2.071 51.120,2.071 51.120,2.071 C50.568,2.071 50.120,1.622 50.120,1.071 C50.120,0.518 50.568,0.071 51.120,0.071 C51.120,0.071 58.997,0.071 58.997,0.071 C59.549,0.071 59.996,0.518 59.996,1.071 C59.996,1.622 59.549,2.071 58.997,2.071 Z" id="path-6" class="cls-3" fill-rule="evenodd"/>
    <path d="M37.214,23.922 C37.660,23.922 38.076,23.699 38.322,23.328 C38.322,23.328 53.768,-0.003 53.768,-0.003 C53.768,-0.003 49.763,-0.003 49.763,-0.003 C49.763,-0.003 11.217,-0.003 11.217,-0.003 C10.482,-0.003 9.888,0.591 9.888,1.326 C9.888,1.326 9.888,5.314 9.888,5.314 C9.888,5.584 9.968,5.843 10.121,6.066 C10.121,6.066 21.959,23.346 21.959,23.346 C22.216,23.720 22.631,23.922 23.055,23.922 C23.055,23.922 37.214,23.922 37.214,23.922 Z" id="path-7" class="cls-9" fill-rule="evenodd"/>
    <path d="M21.828,17.882 C21.509,17.882 21.195,17.730 21.001,17.446 C21.001,17.446 13.592,6.632 13.592,6.632 C13.325,6.241 13.184,5.785 13.184,5.314 C13.184,5.314 13.184,2.400 13.184,2.400 C13.184,1.848 13.631,1.400 14.183,1.400 C14.736,1.400 15.184,1.848 15.184,2.400 C15.184,2.400 15.184,5.314 15.184,5.314 C15.184,5.382 15.203,5.445 15.242,5.501 C15.242,5.501 22.652,16.317 22.652,16.317 C22.964,16.772 22.848,17.394 22.392,17.707 C22.219,17.825 22.022,17.882 21.828,17.882 Z" id="path-8" class="cls-10" fill-rule="evenodd"/>
    <path d="M30.770,21.774 C31.216,21.774 31.631,21.551 31.878,21.180 C31.878,21.180 45.902,-0.003 45.902,-0.003 C45.902,-0.003 49.763,-0.003 49.763,-0.003 C49.763,-0.003 53.768,-0.003 53.768,-0.003 C53.768,-0.003 38.322,23.328 38.322,23.328 C38.076,23.699 37.660,23.922 37.214,23.922 C37.214,23.922 23.055,23.922 23.055,23.922 C22.631,23.922 22.216,23.720 21.959,23.346 C21.959,23.346 20.882,21.774 20.882,21.774 C20.882,21.774 30.770,21.774 30.770,21.774 Z" id="path-9" class="cls-5" fill-rule="evenodd"/>
  </g>
</svg>
