<svg xmlns="http://www.w3.org/2000/svg" xmlns:xlink="http://www.w3.org/1999/xlink" preserveAspectRatio="xMidYMid" width="61" height="47" viewBox="0 0 61 47">
  <defs>
    <style>

      .cls-3 {
        fill: #142a3b;
      }

      .cls-4 {
        fill: #000000;
        opacity: 0.35;
      }

      .cls-5 {
        fill: #ededed;
        opacity: 0.35;
      }

      .cls-14 {
        fill: #ff3a2f;
      }
    </style>
  </defs>
  <g id="group-211svg">
    <path d="M53.742,6.253 C53.742,6.253 6.242,6.253 6.242,6.253 C2.796,6.253 -0.008,9.056 -0.008,12.503 C-0.008,12.503 -0.008,40.003 -0.008,40.003 C-0.008,43.449 2.796,46.253 6.242,46.253 C6.242,46.253 53.742,46.253 53.742,46.253 C57.188,46.253 59.992,43.449 59.992,40.003 C59.992,40.003 59.992,12.503 59.992,12.503 C59.992,9.056 57.188,6.253 53.742,6.253 Z" id="path-1" class="cls-3" fill-rule="evenodd"/>
    <path d="M54.905,6.365 C55.342,7.219 55.594,8.181 55.594,9.204 C55.594,9.204 55.594,36.704 55.594,36.704 C55.594,40.150 52.791,42.954 49.344,42.954 C49.344,42.954 1.844,42.954 1.844,42.954 C1.446,42.954 1.059,42.913 0.682,42.841 C1.718,44.863 3.819,46.253 6.242,46.253 C6.242,46.253 53.742,46.253 53.742,46.253 C57.188,46.253 59.992,43.449 59.992,40.003 C59.992,40.003 59.992,12.503 59.992,12.503 C59.992,9.454 57.797,6.912 54.905,6.365 Z" id="path-2" class="cls-4" fill-rule="evenodd"/>
    <path d="M17.492,36.253 C17.492,36.253 9.992,36.253 9.992,36.253 C9.303,36.253 8.742,35.694 8.742,35.003 C8.742,34.311 9.303,33.753 9.992,33.753 C9.992,33.753 17.492,33.753 17.492,33.753 C18.182,33.753 18.742,34.311 18.742,35.003 C18.742,35.694 18.182,36.253 17.492,36.253 Z" id="path-3" class="cls-5" fill-rule="evenodd"/>
    <path d="M17.492,28.753 C17.492,28.753 9.992,28.753 9.992,28.753 C9.303,28.753 8.742,28.194 8.742,27.503 C8.742,26.811 9.303,26.253 9.992,26.253 C9.992,26.253 17.492,26.253 17.492,26.253 C18.182,26.253 18.742,26.811 18.742,27.503 C18.742,28.194 18.182,28.753 17.492,28.753 Z" id="path-4" class="cls-5" fill-rule="evenodd"/>
    <path d="M34.992,36.253 C34.992,36.253 24.992,36.253 24.992,36.253 C24.303,36.253 23.742,35.694 23.742,35.003 C23.742,34.311 24.303,33.753 24.992,33.753 C24.992,33.753 34.992,33.753 34.992,33.753 C35.682,33.753 36.242,34.311 36.242,35.003 C36.242,35.694 35.682,36.253 34.992,36.253 Z" id="path-5" class="cls-5" fill-rule="evenodd"/>
    <path d="M34.992,28.753 C34.992,28.753 24.992,28.753 24.992,28.753 C24.303,28.753 23.742,28.194 23.742,27.503 C23.742,26.811 24.303,26.253 24.992,26.253 C24.992,26.253 34.992,26.253 34.992,26.253 C35.682,26.253 36.242,26.811 36.242,27.503 C36.242,28.194 35.682,28.753 34.992,28.753 Z" id="path-6" class="cls-5" fill-rule="evenodd"/>
    <path d="M49.992,36.253 C49.992,36.253 42.492,36.253 42.492,36.253 C41.803,36.253 41.242,35.694 41.242,35.003 C41.242,34.311 41.803,33.753 42.492,33.753 C42.492,33.753 49.992,33.753 49.992,33.753 C50.682,33.753 51.242,34.311 51.242,35.003 C51.242,35.694 50.682,36.253 49.992,36.253 Z" id="path-7" class="cls-5" fill-rule="evenodd"/>
    <path d="M49.992,28.753 C49.992,28.753 42.492,28.753 42.492,28.753 C41.803,28.753 41.242,28.194 41.242,27.503 C41.242,26.811 41.803,26.253 42.492,26.253 C42.492,26.253 49.992,26.253 49.992,26.253 C50.682,26.253 51.242,26.811 51.242,27.503 C51.242,28.194 50.682,28.753 49.992,28.753 Z" id="path-8" class="cls-5" fill-rule="evenodd"/>
    <path d="M49.992,21.253 C49.992,21.253 9.992,21.253 9.992,21.253 C9.303,21.253 8.742,20.694 8.742,20.003 C8.742,19.311 9.303,18.753 9.992,18.753 C9.992,18.753 49.992,18.753 49.992,18.753 C50.682,18.753 51.242,19.311 51.242,20.003 C51.242,20.694 50.682,21.253 49.992,21.253 Z" id="path-9" class="cls-5" fill-rule="evenodd"/>
    <path d="M47.191,6.253 C47.191,6.253 47.191,11.854 47.191,11.854 C47.191,12.545 46.631,13.104 45.941,13.104 C45.252,13.104 44.691,12.545 44.691,11.854 C44.691,11.854 44.691,6.253 44.691,6.253 C44.691,6.253 47.191,6.253 47.191,6.253 Z" id="path-10" class="cls-4" fill-rule="evenodd"/>
    <path d="M19.702,6.253 C19.702,6.253 19.702,11.854 19.702,11.854 C19.702,12.545 19.142,13.104 18.452,13.104 C17.762,13.104 17.202,12.545 17.202,11.854 C17.202,11.854 17.202,6.253 17.202,6.253 C17.202,6.253 19.702,6.253 19.702,6.253 Z" id="path-11" class="cls-4" fill-rule="evenodd"/>
    <path d="M16.242,12.503 C16.932,12.503 17.492,11.944 17.492,11.253 C17.492,11.253 17.492,1.253 17.492,1.253 C17.492,0.561 16.932,0.003 16.242,0.003 C15.553,0.003 14.992,0.561 14.992,1.253 C14.992,1.253 14.992,11.253 14.992,11.253 C14.992,11.944 15.553,12.503 16.242,12.503 Z" id="path-12" class="cls-14" fill-rule="evenodd"/>
    <path d="M43.742,12.503 C44.432,12.503 44.992,11.944 44.992,11.253 C44.992,11.253 44.992,1.253 44.992,1.253 C44.992,0.561 44.432,0.003 43.742,0.003 C43.053,0.003 42.492,0.561 42.492,1.253 C42.492,1.253 42.492,11.253 42.492,11.253 C42.492,11.944 43.053,12.503 43.742,12.503 Z" id="path-13" class="cls-14" fill-rule="evenodd"/>
  </g>
</svg>
