<svg xmlns="http://www.w3.org/2000/svg" xmlns:xlink="http://www.w3.org/1999/xlink" preserveAspectRatio="xMidYMid" width="38" height="61" viewBox="0 0 38 61">
  <defs>
    <style>

      .cls-3 {
        fill: #0cb04a;
      }

      .cls-4 {
        fill: #142a3b;
      }

      .cls-5 {
        fill: #000000;
        opacity: 0.35;
      }

      .cls-6 {
        fill: #ff3a2f;
      }

      .cls-12 {
        fill: #fbb713;
      }

      .cls-13 {
        fill: #ededed;
      }

      .cls-15 {
        fill: #ffffff;
      }

      .cls-16 {
        fill: #000000;
        opacity: 0.25;
      }
    </style>
  </defs>
  <g id="group-244svg">
    <path d="M15.786,55.533 C15.181,55.533 14.689,55.057 14.689,54.471 C14.689,53.885 15.181,53.410 15.786,53.410 C15.786,53.410 19.147,53.410 19.147,53.410 C19.753,53.410 20.245,53.885 20.245,54.471 C20.245,55.057 19.753,55.533 19.147,55.533 C19.147,55.533 15.786,55.533 15.786,55.533 Z" id="path-1" class="cls-3" fill-rule="evenodd"/>
    <path d="M18.479,60.281 C18.479,60.281 18.479,60.281 18.479,60.281 C14.719,60.281 11.768,57.057 12.099,53.312 C12.099,53.312 15.481,30.122 15.481,30.122 C15.481,30.122 21.478,30.122 21.478,30.122 C21.478,30.122 24.860,53.312 24.860,53.312 C25.191,57.057 22.239,60.281 18.479,60.281 Z" id="path-2" class="cls-4" fill-rule="evenodd"/>
    <path d="M21.478,30.122 C21.478,30.122 15.481,30.122 15.481,30.122 C15.481,30.122 14.295,38.255 14.295,38.255 C15.268,39.497 16.779,40.298 18.479,40.298 C20.180,40.298 21.690,39.497 22.664,38.255 C22.664,38.255 21.478,30.122 21.478,30.122 Z" id="path-3" class="cls-5" fill-rule="evenodd"/>
    <path d="M36.959,18.487 C36.959,15.548 34.577,13.167 31.639,13.167 C31.517,13.167 31.398,13.177 31.279,13.185 C31.369,13.106 31.461,13.029 31.546,12.944 C33.624,10.866 33.624,7.497 31.546,5.420 C29.469,3.342 26.101,3.342 24.023,5.420 C23.937,5.506 23.860,5.597 23.781,5.687 C23.790,5.567 23.799,5.448 23.799,5.328 C23.799,2.389 21.417,0.007 18.479,0.007 C15.541,0.007 13.159,2.389 13.159,5.328 C13.159,5.448 13.169,5.567 13.178,5.687 C13.099,5.597 13.022,5.506 12.936,5.420 C10.858,3.342 7.490,3.342 5.413,5.420 C3.335,7.497 3.335,10.866 5.413,12.944 C5.498,13.029 5.590,13.106 5.680,13.185 C5.560,13.177 5.441,13.167 5.320,13.167 C2.382,13.167 -0.000,15.548 -0.000,18.487 C-0.000,21.425 2.382,23.806 5.320,23.806 C5.441,23.806 5.560,23.797 5.680,23.789 C5.590,23.867 5.498,23.944 5.413,24.030 C3.335,26.108 3.335,29.476 5.413,31.554 C7.490,33.632 10.858,33.632 12.936,31.554 C13.022,31.468 13.099,31.377 13.178,31.286 C13.169,31.406 13.159,31.525 13.159,31.646 C13.159,34.585 15.541,36.967 18.479,36.967 C21.417,36.967 23.799,34.585 23.799,31.646 C23.799,31.525 23.790,31.406 23.781,31.286 C23.860,31.377 23.937,31.468 24.023,31.554 C26.101,33.632 29.469,33.632 31.546,31.554 C33.624,29.476 33.624,26.108 31.546,24.030 C31.461,23.944 31.369,23.867 31.279,23.789 C31.398,23.797 31.517,23.806 31.639,23.806 C34.577,23.806 36.959,21.425 36.959,18.487 Z" id="path-4" class="cls-6" fill-rule="evenodd"/>
    <path d="M29.548,11.611 C29.462,11.696 29.371,11.774 29.280,11.852 C29.400,11.845 29.519,11.834 29.640,11.834 C30.495,11.834 31.300,12.041 32.015,12.399 C33.604,10.313 33.452,7.325 31.546,5.420 C30.992,4.865 30.344,4.463 29.654,4.205 C31.620,6.290 31.587,9.571 29.548,11.611 Z" id="path-5" class="cls-5" fill-rule="evenodd"/>
    <path d="M21.801,3.995 C21.801,4.116 21.790,4.234 21.782,4.354 C21.861,4.264 21.938,4.173 22.024,4.087 C22.416,3.695 22.855,3.377 23.322,3.133 C22.742,1.855 21.672,0.850 20.351,0.353 C21.248,1.304 21.801,2.584 21.801,3.995 Z" id="path-6" class="cls-5" fill-rule="evenodd"/>
    <path d="M36.959,18.487 C36.959,16.208 35.524,14.270 33.511,13.512 C34.407,14.464 34.960,15.743 34.960,17.154 C34.960,20.093 32.578,22.475 29.640,22.475 C29.519,22.475 29.400,22.464 29.280,22.456 C29.371,22.535 29.462,22.612 29.548,22.697 C31.625,24.775 31.625,28.144 29.548,30.221 C28.025,31.744 25.810,32.146 23.916,31.436 C23.952,31.475 23.985,31.516 24.023,31.554 C26.101,33.632 29.469,33.632 31.546,31.554 C33.624,29.476 33.624,26.108 31.546,24.030 C31.460,23.944 31.369,23.867 31.279,23.789 C31.398,23.797 31.517,23.806 31.639,23.806 C34.577,23.806 36.959,21.425 36.959,18.487 Z" id="path-7" class="cls-5" fill-rule="evenodd"/>
    <path d="M11.160,30.314 C11.160,30.192 11.171,30.073 11.179,29.954 C11.100,30.044 11.023,30.135 10.937,30.221 C9.414,31.744 7.199,32.146 5.306,31.436 C5.343,31.475 5.374,31.516 5.413,31.554 C7.098,33.239 9.632,33.556 11.638,32.508 C11.334,31.839 11.160,31.097 11.160,30.314 Z" id="path-8" class="cls-5" fill-rule="evenodd"/>
    <path d="M22.024,30.221 C21.938,30.135 21.861,30.044 21.782,29.954 C21.790,30.073 21.801,30.192 21.801,30.314 C21.801,33.252 19.419,35.634 16.480,35.634 C15.821,35.634 15.192,35.508 14.609,35.289 C15.579,36.319 16.952,36.967 18.479,36.967 C21.417,36.967 23.799,34.585 23.799,31.646 C23.799,31.560 23.792,31.475 23.787,31.390 C23.145,31.131 22.544,30.741 22.024,30.221 Z" id="path-9" class="cls-5" fill-rule="evenodd"/>
    <path d="M28.130,18.487 C28.130,23.817 23.810,28.137 18.479,28.137 C13.149,28.137 8.829,23.817 8.829,18.487 C8.829,13.157 13.149,8.836 18.479,8.836 C23.810,8.836 28.130,13.157 28.130,18.487 Z" id="path-10" class="cls-12" fill-rule="evenodd"/>
    <path d="M11.586,19.487 C11.034,19.487 10.586,19.039 10.586,18.487 C10.586,14.134 14.127,10.593 18.479,10.593 C19.032,10.593 19.479,11.041 19.479,11.593 C19.479,12.145 19.032,12.593 18.479,12.593 C15.230,12.593 12.586,15.237 12.586,18.487 C12.586,19.039 12.138,19.487 11.586,19.487 Z" id="path-11" class="cls-13" fill-rule="evenodd"/>
    <path d="M21.387,9.283 C23.851,11.032 25.465,13.902 25.465,17.154 C25.465,22.484 21.144,26.806 15.814,26.806 C14.801,26.806 13.825,26.647 12.907,26.358 C14.482,27.475 16.401,28.137 18.479,28.137 C23.810,28.137 28.130,23.817 28.130,18.487 C28.130,14.170 25.296,10.517 21.387,9.283 Z" id="path-12" class="cls-5" fill-rule="evenodd"/>
    <path d="M20.478,53.534 C20.478,54.638 19.583,55.533 18.479,55.533 C17.375,55.533 16.480,54.638 16.480,53.534 C16.480,52.430 17.375,51.535 18.479,51.535 C19.583,51.535 20.478,52.430 20.478,53.534 Z" id="path-13" class="cls-15" fill-rule="evenodd"/>
    <path d="M18.641,51.551 C18.951,51.903 19.145,52.361 19.145,52.868 C19.145,53.971 18.251,54.866 17.147,54.866 C17.092,54.866 17.040,54.854 16.986,54.850 C17.352,55.265 17.882,55.533 18.479,55.533 C19.583,55.533 20.478,54.638 20.478,53.534 C20.478,52.485 19.668,51.634 18.641,51.551 Z" id="path-14" class="cls-16" fill-rule="evenodd"/>
  </g>
</svg>
