<svg xmlns="http://www.w3.org/2000/svg" xmlns:xlink="http://www.w3.org/1999/xlink" preserveAspectRatio="xMidYMid" width="36" height="60" viewBox="0 0 36 60">
  <defs>
    <style>

      .cls-3 {
        fill: #fbb713;
      }

      .cls-4 {
        fill: #010101;
        opacity: 0.25;
      }

      .cls-5 {
        fill: #142a3b;
      }

      .cls-8 {
        fill: #ff3a2f;
      }

      .cls-9 {
        fill: #010101;
        opacity: 0.35;
      }

      .cls-10 {
        fill: #ffffff;
      }
    </style>
  </defs>
  <g id="group-152svg">
    <path d="M25.948,5.640 C25.948,5.640 9.889,5.640 9.889,5.640 C9.889,5.640 0.006,14.287 0.006,14.287 C0.006,14.287 0.006,27.592 0.006,27.592 C0.006,27.592 0.006,52.934 0.006,52.934 C0.006,56.833 3.167,59.994 7.066,59.994 C7.066,59.994 28.770,59.994 28.770,59.994 C32.669,59.994 35.831,56.833 35.831,52.934 C35.831,52.934 35.831,14.287 35.831,14.287 C35.831,14.287 25.948,5.640 25.948,5.640 Z" id="path-1" class="cls-3" fill-rule="evenodd"/>
    <path d="M25.948,5.640 C25.948,5.640 9.183,5.640 9.183,5.640 C9.183,5.640 22.063,11.204 22.063,11.204 C25.068,12.502 27.166,15.409 27.183,18.681 C27.183,18.703 27.183,18.724 27.183,18.745 C27.183,18.745 27.183,49.228 27.183,49.228 C27.183,53.127 24.022,56.288 20.123,56.288 C20.123,56.288 0.853,56.288 0.853,56.288 C2.046,58.495 4.381,59.994 7.066,59.994 C7.066,59.994 28.770,59.994 28.770,59.994 C32.669,59.994 35.831,56.833 35.831,52.934 C35.831,52.934 35.831,14.287 35.831,14.287 C35.831,14.287 25.948,5.640 25.948,5.640 Z" id="path-2" class="cls-4" fill-rule="evenodd"/>
    <path d="M11.875,29.094 C11.875,29.094 1.875,29.094 1.875,29.094 C1.323,29.094 0.875,28.646 0.875,28.093 C0.875,27.542 1.323,27.093 1.875,27.093 C1.875,27.093 11.875,27.093 11.875,27.093 C12.427,27.093 12.875,27.542 12.875,28.093 C12.875,28.646 12.427,29.094 11.875,29.094 Z" id="path-3" class="cls-5" fill-rule="evenodd"/>
    <path d="M11.875,43.093 C11.875,43.093 1.875,43.093 1.875,43.093 C1.323,43.093 0.875,42.646 0.875,42.093 C0.875,41.542 1.323,41.094 1.875,41.094 C1.875,41.094 11.875,41.094 11.875,41.094 C12.427,41.094 12.875,41.542 12.875,42.093 C12.875,42.646 12.427,43.093 11.875,43.093 Z" id="path-4" class="cls-5" fill-rule="evenodd"/>
    <path d="M11.875,36.093 C11.875,36.093 1.875,36.093 1.875,36.093 C1.323,36.093 0.875,35.646 0.875,35.093 C0.875,34.542 1.323,34.093 1.875,34.093 C1.875,34.093 11.875,34.093 11.875,34.093 C12.427,34.093 12.875,34.542 12.875,35.093 C12.875,35.646 12.427,36.093 11.875,36.093 Z" id="path-5" class="cls-5" fill-rule="evenodd"/>
    <path d="M28.081,6.455 C28.081,6.455 7.756,6.455 7.756,6.455 C5.999,6.455 4.576,5.032 4.576,3.275 C4.576,3.275 4.576,3.174 4.576,3.174 C4.576,1.418 5.999,-0.006 7.756,-0.006 C7.756,-0.006 28.081,-0.006 28.081,-0.006 C29.837,-0.006 31.261,1.418 31.261,3.174 C31.261,3.174 31.261,3.275 31.261,3.275 C31.261,5.032 29.837,6.455 28.081,6.455 Z" id="path-6" class="cls-8" fill-rule="evenodd"/>
    <path d="M28.087,-0.000 C28.520,0.550 28.790,1.235 28.790,1.989 C28.790,3.773 27.344,5.220 25.560,5.220 C25.560,5.220 5.336,5.220 5.336,5.220 C5.316,5.220 5.298,5.215 5.279,5.214 C5.870,5.965 6.777,6.455 7.806,6.455 C7.806,6.455 28.030,6.455 28.030,6.455 C29.814,6.455 31.261,5.009 31.261,3.225 C31.261,1.460 29.844,0.031 28.087,-0.000 Z" id="path-7" class="cls-9" fill-rule="evenodd"/>
    <path d="M6.148,23.396 C5.320,23.396 4.648,22.724 4.648,21.896 C4.648,21.896 4.648,15.235 4.648,15.235 C4.648,15.235 9.725,9.860 9.725,9.860 C10.293,9.259 11.243,9.230 11.845,9.800 C12.447,10.368 12.474,11.318 11.905,11.920 C11.905,11.920 7.648,16.428 7.648,16.428 C7.648,16.428 7.648,21.896 7.648,21.896 C7.648,22.724 6.977,23.396 6.148,23.396 Z" id="path-8" class="cls-10" fill-rule="evenodd"/>
  </g>
</svg>
