<svg xmlns="http://www.w3.org/2000/svg" xmlns:xlink="http://www.w3.org/1999/xlink" preserveAspectRatio="xMidYMid" width="60" height="57" viewBox="0 0 60 57">
  <defs>
    <style>

      .cls-3 {
        fill: #fbb713;
      }

      .cls-4 {
        fill: #060606;
        opacity: 0.35;
      }
    </style>
  </defs>
  <g id="group-209svg">
    <path d="M30.010,21.839 C17.175,21.839 7.581,35.075 7.581,46.907 C7.581,50.683 8.539,53.277 10.503,54.845 C12.580,56.504 15.484,56.715 17.780,56.715 C19.434,56.715 21.236,56.588 23.145,56.455 C27.546,56.148 32.478,56.148 36.877,56.455 C38.787,56.588 40.591,56.715 42.240,56.715 C47.286,56.715 52.439,55.550 52.439,46.907 C52.439,35.075 42.848,21.839 30.010,21.839 Z" id="path-1" class="cls-3" fill-rule="evenodd"/>
    <path d="M39.603,24.471 C44.189,29.372 46.984,36.160 46.984,42.544 C46.984,51.187 41.831,52.351 36.786,52.351 C35.136,52.351 33.332,52.225 31.423,52.092 C27.024,51.785 22.092,51.785 17.690,52.092 C15.781,52.225 13.980,52.351 12.325,52.351 C11.125,52.351 9.761,52.288 8.433,51.996 C8.916,53.170 9.598,54.122 10.503,54.845 C12.580,56.504 15.484,56.716 17.780,56.716 C19.434,56.716 21.236,56.588 23.145,56.455 C27.546,56.148 32.478,56.148 36.877,56.455 C38.787,56.588 40.591,56.716 42.240,56.716 C47.286,56.716 52.439,55.550 52.439,46.907 C52.439,38.281 47.339,28.916 39.603,24.471 Z" id="path-2" class="cls-4" fill-rule="evenodd"/>
    <path d="M11.639,29.163 C13.162,28.539 14.325,27.303 14.910,25.684 C15.683,23.548 15.409,20.968 14.160,18.608 C11.987,14.506 7.199,12.218 3.716,13.650 C2.190,14.274 1.030,15.513 0.443,17.135 C-0.330,19.268 -0.057,21.848 1.193,24.211 C2.906,27.447 6.156,29.622 9.276,29.622 C10.106,29.622 10.902,29.468 11.639,29.163 Z" id="path-3" class="cls-3" fill-rule="evenodd"/>
    <path d="M24.001,21.420 C24.336,21.420 24.671,21.386 25.006,21.319 C28.936,20.515 31.304,15.248 30.401,9.329 C29.502,3.420 25.575,-0.711 21.635,0.094 C17.703,0.895 15.337,6.159 16.239,12.081 C17.064,17.493 20.326,21.420 24.001,21.420 Z" id="path-4" class="cls-3" fill-rule="evenodd"/>
    <path d="M59.580,17.135 C58.995,15.516 57.830,14.274 56.307,13.650 C52.815,12.213 48.035,14.506 45.863,18.608 C44.613,20.971 44.340,23.550 45.113,25.684 C45.698,27.303 46.860,28.537 48.383,29.163 C49.120,29.465 49.916,29.620 50.749,29.620 C50.749,29.620 50.751,29.620 50.751,29.620 C53.869,29.620 57.114,27.445 58.827,24.211 C60.077,21.851 60.352,19.270 59.580,17.135 Z" id="path-5" class="cls-3" fill-rule="evenodd"/>
    <path d="M37.658,21.319 C37.993,21.386 38.328,21.420 38.661,21.420 C38.661,21.420 38.663,21.420 38.663,21.420 C42.332,21.420 45.598,17.493 46.425,12.081 C47.327,6.159 44.956,0.895 41.029,0.094 C37.083,-0.711 33.159,3.420 32.262,9.329 C31.355,15.248 33.726,20.515 37.658,21.319 Z" id="path-6" class="cls-3" fill-rule="evenodd"/>
    <path d="M14.160,18.608 C12.574,15.614 9.597,13.595 6.749,13.275 C8.417,14.213 9.914,15.682 10.887,17.517 C12.137,19.878 12.410,22.457 11.637,24.594 C11.052,26.212 9.890,27.449 8.367,28.072 C7.630,28.377 6.833,28.531 6.004,28.531 C5.768,28.531 5.531,28.495 5.295,28.470 C6.559,29.195 7.926,29.622 9.276,29.622 C10.106,29.622 10.902,29.468 11.639,29.163 C13.162,28.540 14.325,27.303 14.910,25.684 C15.683,23.549 15.409,20.968 14.160,18.608 Z" id="path-7" class="cls-4" fill-rule="evenodd"/>
    <path d="M30.401,9.329 C29.689,4.648 27.075,1.094 24.061,0.214 C25.559,1.882 26.696,4.304 27.129,7.147 C28.031,13.066 25.663,18.333 21.733,19.137 C21.398,19.204 21.063,19.238 20.728,19.238 C20.233,19.238 19.748,19.161 19.273,19.025 C20.614,20.529 22.259,21.420 24.001,21.420 C24.336,21.420 24.671,21.386 25.006,21.319 C28.936,20.515 31.304,15.248 30.401,9.329 Z" id="path-8" class="cls-4" fill-rule="evenodd"/>
    <path d="M59.579,17.134 C59.081,15.755 58.143,14.676 56.940,13.993 C57.112,14.298 57.275,14.611 57.398,14.952 C58.171,17.089 57.895,19.668 56.646,22.029 C54.932,25.262 51.687,27.437 48.570,27.437 C48.570,27.437 48.567,27.437 48.567,27.437 C47.735,27.437 46.938,27.283 46.201,26.981 C45.976,26.889 45.777,26.756 45.569,26.639 C46.215,27.783 47.180,28.668 48.383,29.163 C49.120,29.465 49.916,29.620 50.749,29.620 C50.749,29.620 50.751,29.620 50.751,29.620 C53.869,29.620 57.114,27.445 58.827,24.211 C60.077,21.851 60.352,19.271 59.579,17.134 Z" id="path-9" class="cls-4" fill-rule="evenodd"/>
    <path d="M43.554,1.390 C44.370,3.471 44.661,6.066 44.243,8.808 C43.416,14.220 40.151,18.147 36.481,18.147 C36.481,18.147 36.478,18.147 36.478,18.147 C36.146,18.147 35.811,18.114 35.476,18.047 C34.535,17.854 33.687,17.400 32.948,16.749 C33.893,19.163 35.547,20.888 37.658,21.319 C37.993,21.386 38.328,21.420 38.661,21.420 C38.661,21.420 38.663,21.420 38.663,21.420 C42.332,21.420 45.598,17.493 46.425,12.081 C47.111,7.577 45.900,3.458 43.554,1.390 Z" id="path-10" class="cls-4" fill-rule="evenodd"/>
  </g>
</svg>
