<svg xmlns="http://www.w3.org/2000/svg" xmlns:xlink="http://www.w3.org/1999/xlink" preserveAspectRatio="xMidYMid" width="60" height="26" viewBox="0 0 60 26">
  <defs>
    <style>

      .cls-3 {
        fill: #fbb713;
      }

      .cls-4 {
        fill: #000000;
        opacity: 0.25;
      }

      .cls-5 {
        fill: #142a3b;
      }
    </style>
  </defs>
  <g id="group-262svg">
    <path d="M9.220,17.063 C9.220,17.063 9.220,-0.014 9.220,-0.014 C9.220,-0.014 -0.011,-0.014 -0.011,-0.014 C-0.011,-0.014 -0.011,25.370 -0.011,25.370 C-0.011,25.370 59.989,25.370 59.989,25.370 C59.989,25.370 59.989,17.063 59.989,17.063 C59.989,17.063 9.220,17.063 9.220,17.063 Z" id="path-1" class="cls-3" fill-rule="evenodd"/>
    <path d="M1.835,23.524 C1.835,23.524 1.835,-0.014 1.835,-0.014 C1.835,-0.014 -0.011,-0.014 -0.011,-0.014 C-0.011,-0.014 -0.011,25.370 -0.011,25.370 C-0.011,25.370 59.989,25.370 59.989,25.370 C59.989,25.370 59.989,23.524 59.989,23.524 C59.989,23.524 1.835,23.524 1.835,23.524 Z" id="path-2" class="cls-4" fill-rule="evenodd"/>
    <path d="M14.451,25.370 C14.451,25.370 12.835,25.370 12.835,25.370 C12.835,25.370 12.835,21.370 12.835,21.370 C12.835,21.370 14.451,21.370 14.451,21.370 C14.451,21.370 14.451,25.370 14.451,25.370 Z" id="path-3" class="cls-5" fill-rule="evenodd"/>
    <path d="M23.682,25.370 C23.682,25.370 22.066,25.370 22.066,25.370 C22.066,25.370 22.066,21.370 22.066,21.370 C22.066,21.370 23.682,21.370 23.682,21.370 C23.682,21.370 23.682,25.370 23.682,25.370 Z" id="path-4" class="cls-5" fill-rule="evenodd"/>
    <path d="M32.912,25.370 C32.912,25.370 31.297,25.370 31.297,25.370 C31.297,25.370 31.297,21.370 31.297,21.370 C31.297,21.370 32.912,21.370 32.912,21.370 C32.912,21.370 32.912,25.370 32.912,25.370 Z" id="path-5" class="cls-5" fill-rule="evenodd"/>
    <path d="M-0.011,3.332 C-0.011,3.332 -0.011,1.717 -0.011,1.717 C-0.011,1.717 3.989,1.717 3.989,1.717 C3.989,1.717 3.989,3.332 3.989,3.332 C3.989,3.332 -0.011,3.332 -0.011,3.332 Z" id="path-6" class="cls-5" fill-rule="evenodd"/>
    <path d="M-0.011,12.563 C-0.011,12.563 -0.011,10.948 -0.011,10.948 C-0.011,10.948 3.989,10.948 3.989,10.948 C3.989,10.948 3.989,12.563 3.989,12.563 C3.989,12.563 -0.011,12.563 -0.011,12.563 Z" id="path-7" class="cls-5" fill-rule="evenodd"/>
    <path d="M-0.011,21.794 C-0.011,21.794 -0.011,20.178 -0.011,20.178 C-0.011,20.178 3.989,20.178 3.989,20.178 C3.989,20.178 3.989,21.794 3.989,21.794 C3.989,21.794 -0.011,21.794 -0.011,21.794 Z" id="path-8" class="cls-5" fill-rule="evenodd"/>
    <path d="M42.143,25.370 C42.143,25.370 40.527,25.370 40.527,25.370 C40.527,25.370 40.527,21.370 40.527,21.370 C40.527,21.370 42.143,21.370 42.143,21.370 C42.143,21.370 42.143,25.370 42.143,25.370 Z" id="path-9" class="cls-5" fill-rule="evenodd"/>
    <path d="M51.373,25.370 C51.373,25.370 49.758,25.370 49.758,25.370 C49.758,25.370 49.758,21.370 49.758,21.370 C49.758,21.370 51.373,21.370 51.373,21.370 C51.373,21.370 51.373,25.370 51.373,25.370 Z" id="path-10" class="cls-5" fill-rule="evenodd"/>
  </g>
</svg>
