<svg xmlns="http://www.w3.org/2000/svg" xmlns:xlink="http://www.w3.org/1999/xlink" preserveAspectRatio="xMidYMid" width="60" height="60" viewBox="0 0 60 60">
  <defs>
    <style>

      .cls-3 {
        fill: #fbb713;
      }

      .cls-4 {
        fill: #060606;
        opacity: 0.25;
      }

      .cls-5 {
        fill: #be8b10;
      }

      .cls-6 {
        fill: #142a3b;
      }

      .cls-7 {
        fill: #ededed;
      }
    </style>
  </defs>
  <g id="group-205svg">
    <path d="M42.290,-0.007 C42.290,-0.007 39.356,2.927 39.356,2.927 C39.356,2.927 36.877,0.447 36.877,0.447 C36.877,0.447 0.465,36.858 0.465,36.858 C0.465,36.858 2.945,39.338 2.945,39.338 C2.945,39.338 0.012,42.271 0.012,42.271 C0.012,42.271 17.734,59.993 17.734,59.993 C17.734,59.993 20.667,57.059 20.667,57.059 C20.667,57.059 23.147,59.539 23.147,59.539 C23.147,59.539 59.558,23.128 59.558,23.128 C59.558,23.128 57.079,20.648 57.079,20.648 C57.079,20.648 60.012,17.715 60.012,17.715 C60.012,17.715 42.290,-0.007 42.290,-0.007 Z" id="path-1" class="cls-3" fill-rule="evenodd"/>
    <path d="M40.839,1.444 C40.839,1.444 56.383,16.988 56.383,16.988 C56.383,16.988 53.449,19.923 53.449,19.923 C53.449,19.923 55.929,22.402 55.929,22.402 C55.929,22.402 20.969,57.362 20.969,57.362 C20.969,57.362 23.147,59.539 23.147,59.539 C23.147,59.539 59.558,23.128 59.558,23.128 C59.558,23.128 57.078,20.648 57.078,20.648 C57.078,20.648 60.012,17.715 60.012,17.715 C60.012,17.715 42.290,-0.007 42.290,-0.007 C42.290,-0.007 40.839,1.444 40.839,1.444 Z" id="path-2" class="cls-4" fill-rule="evenodd"/>
    <path d="M41.269,13.577 C40.788,14.058 40.788,14.838 41.269,15.320 C41.269,15.320 43.484,17.535 43.484,17.535 C43.484,17.535 41.407,19.613 41.407,19.613 C40.256,19.182 38.910,19.422 37.984,20.348 C37.059,21.274 36.818,22.619 37.249,23.770 C37.249,23.770 35.519,25.500 35.519,25.500 C35.519,25.500 33.304,23.285 33.304,23.285 C32.822,22.803 32.042,22.803 31.561,23.285 C31.079,23.766 31.079,24.546 31.561,25.028 C31.561,25.028 33.776,27.243 33.776,27.243 C33.776,27.243 32.566,28.454 32.566,28.454 C31.013,27.690 29.088,27.936 27.796,29.229 C26.504,30.521 26.257,32.445 27.020,33.999 C27.020,33.999 25.811,35.209 25.811,35.209 C25.811,35.209 23.596,32.994 23.596,32.994 C23.114,32.512 22.334,32.512 21.852,32.994 C21.371,33.474 21.371,34.255 21.852,34.737 C21.852,34.737 24.068,36.952 24.068,36.952 C24.068,36.952 22.232,38.787 22.232,38.787 C21.081,38.356 19.736,38.596 18.810,39.522 C17.884,40.448 17.644,41.794 18.075,42.945 C18.075,42.945 16.102,44.917 16.102,44.917 C16.102,44.917 13.888,42.702 13.888,42.702 C13.406,42.220 12.625,42.220 12.144,42.702 C11.663,43.183 11.663,43.964 12.144,44.445 C12.144,44.445 18.463,50.763 18.463,50.763 C18.944,51.245 19.725,51.245 20.206,50.763 C20.687,50.282 20.687,49.502 20.206,49.020 C20.206,49.020 17.991,46.806 17.991,46.806 C17.991,46.806 19.963,44.833 19.963,44.833 C21.114,45.264 22.460,45.024 23.385,44.098 C24.311,43.172 24.552,41.827 24.121,40.675 C24.121,40.675 25.956,38.841 25.956,38.841 C25.956,38.841 28.171,41.055 28.171,41.055 C28.653,41.537 29.433,41.537 29.914,41.055 C30.396,40.574 30.396,39.794 29.914,39.312 C29.914,39.312 27.699,37.098 27.699,37.098 C27.699,37.098 28.909,35.887 28.909,35.887 C30.463,36.651 32.387,36.404 33.679,35.111 C34.972,33.820 35.218,31.895 34.455,30.341 C34.455,30.341 35.664,29.132 35.664,29.132 C35.664,29.132 37.880,31.347 37.880,31.347 C38.361,31.828 39.142,31.829 39.623,31.347 C40.104,30.866 40.104,30.085 39.623,29.604 C39.623,29.604 37.408,27.389 37.408,27.389 C37.408,27.389 39.138,25.659 39.138,25.659 C40.289,26.090 41.634,25.849 42.560,24.924 C43.486,23.998 43.726,22.652 43.295,21.501 C43.295,21.501 45.372,19.424 45.372,19.424 C45.372,19.424 47.588,21.639 47.588,21.639 C48.069,22.120 48.850,22.120 49.331,21.639 C49.812,21.158 49.812,20.377 49.331,19.896 C49.331,19.896 43.012,13.577 43.012,13.577 C42.531,13.095 41.750,13.095 41.269,13.577 ZM22.218,42.930 C21.599,43.550 20.596,43.550 19.978,42.930 C19.358,42.312 19.358,41.308 19.977,40.690 C20.596,40.071 21.599,40.071 22.218,40.690 C22.837,41.308 22.837,42.311 22.218,42.930 ZM32.003,33.436 C31.304,34.135 30.171,34.134 29.472,33.436 C28.773,32.736 28.773,31.603 29.472,30.905 C30.171,30.205 31.304,30.206 32.003,30.905 C32.702,31.603 32.702,32.736 32.003,33.436 ZM41.392,23.756 C40.774,24.375 39.770,24.375 39.152,23.756 C38.533,23.137 38.533,22.134 39.151,21.516 C39.770,20.896 40.773,20.896 41.392,21.516 C42.011,22.135 42.011,23.137 41.392,23.756 Z" id="path-3" class="cls-5" fill-rule="evenodd"/>
    <path d="M40.543,11.399 C40.062,11.881 40.062,12.661 40.543,13.142 C40.543,13.142 42.758,15.358 42.758,15.358 C42.758,15.358 40.681,17.436 40.681,17.436 C39.530,17.004 38.184,17.245 37.258,18.171 C36.332,19.097 36.092,20.442 36.523,21.593 C36.523,21.593 34.793,23.323 34.793,23.323 C34.793,23.323 32.578,21.108 32.578,21.108 C32.097,20.626 31.316,20.627 30.835,21.108 C30.353,21.589 30.353,22.370 30.835,22.850 C30.835,22.850 33.050,25.066 33.050,25.066 C33.050,25.066 31.840,26.276 31.840,26.276 C30.287,25.512 28.363,25.759 27.070,27.052 C25.778,28.343 25.531,30.268 26.295,31.821 C26.295,31.821 25.085,33.031 25.085,33.031 C25.085,33.031 22.870,30.816 22.870,30.816 C22.388,30.335 21.608,30.335 21.127,30.816 C20.646,31.297 20.645,32.078 21.127,32.559 C21.127,32.559 23.342,34.774 23.342,34.774 C23.342,34.774 21.507,36.610 21.507,36.610 C20.355,36.179 19.010,36.419 18.084,37.345 C17.158,38.271 16.918,39.616 17.349,40.767 C17.349,40.767 15.377,42.740 15.377,42.740 C15.377,42.740 13.162,40.524 13.162,40.524 C12.680,40.043 11.900,40.043 11.418,40.524 C10.937,41.005 10.937,41.786 11.418,42.267 C11.418,42.267 17.737,48.586 17.737,48.586 C18.219,49.068 18.999,49.068 19.480,48.586 C19.962,48.105 19.962,47.324 19.480,46.843 C19.480,46.843 17.265,44.628 17.265,44.628 C17.265,44.628 19.237,42.656 19.237,42.656 C20.388,43.087 21.734,42.846 22.660,41.921 C23.585,40.995 23.826,39.649 23.395,38.498 C23.395,38.498 25.230,36.663 25.230,36.663 C25.230,36.663 27.445,38.878 27.445,38.878 C27.927,39.359 28.708,39.359 29.188,38.878 C29.670,38.397 29.670,37.616 29.188,37.135 C29.188,37.135 26.974,34.920 26.974,34.920 C26.974,34.920 28.184,33.710 28.184,33.710 C29.737,34.474 31.661,34.227 32.954,32.934 C34.246,31.642 34.492,29.718 33.728,28.165 C33.728,28.165 34.938,26.954 34.938,26.954 C34.938,26.954 37.154,29.170 37.154,29.170 C37.635,29.651 38.415,29.651 38.897,29.170 C39.378,28.688 39.378,27.908 38.897,27.427 C38.897,27.427 36.682,25.212 36.682,25.212 C36.682,25.212 38.412,23.481 38.412,23.481 C39.562,23.912 40.908,23.672 41.834,22.746 C42.760,21.820 43.000,20.475 42.569,19.324 C42.569,19.324 44.647,17.246 44.647,17.246 C44.647,17.246 46.862,19.462 46.862,19.462 C47.343,19.942 48.124,19.942 48.605,19.462 C49.086,18.980 49.086,18.200 48.605,17.719 C48.605,17.719 42.286,11.399 42.286,11.399 C41.805,10.918 41.024,10.918 40.543,11.399 ZM21.492,40.753 C20.873,41.372 19.870,41.372 19.251,40.753 C18.633,40.134 18.633,39.131 19.251,38.513 C19.870,37.893 20.873,37.893 21.492,38.513 C22.111,39.131 22.111,40.134 21.492,40.753 ZM31.277,31.259 C30.579,31.958 29.445,31.958 28.746,31.259 C28.047,30.559 28.047,29.426 28.746,28.727 C29.445,28.028 30.579,28.028 31.277,28.727 C31.976,29.426 31.976,30.559 31.277,31.259 ZM40.666,21.579 C40.048,22.197 39.045,22.197 38.426,21.579 C37.807,20.960 37.807,19.957 38.426,19.338 C39.044,18.720 40.048,18.720 40.667,19.338 C41.286,19.957 41.285,20.960 40.666,21.579 Z" id="path-4" class="cls-6" fill-rule="evenodd"/>
    <path d="M8.508,34.775 C8.252,34.775 7.997,34.677 7.801,34.482 C7.411,34.091 7.411,33.458 7.801,33.068 C7.801,33.068 33.931,6.939 33.931,6.939 C34.321,6.548 34.954,6.548 35.345,6.939 C35.735,7.330 35.735,7.962 35.345,8.352 C35.345,8.352 9.215,34.482 9.215,34.482 C9.020,34.677 8.764,34.775 8.508,34.775 Z" id="path-5" class="cls-7" fill-rule="evenodd"/>
  </g>
</svg>
