<svg xmlns="http://www.w3.org/2000/svg" xmlns:xlink="http://www.w3.org/1999/xlink" preserveAspectRatio="xMidYMid" width="61" height="57" viewBox="0 0 61 57">
  <defs>
    <style>

      .cls-3 {
        fill: #ff3a2f;
      }

      .cls-4 {
        fill: #010101;
        opacity: 0.35;
      }

      .cls-14 {
        fill: #ffffff;
      }
    </style>
  </defs>
  <g id="group-154svg">
    <path d="M59.833,37.490 C59.584,36.847 59.102,36.340 58.478,36.064 C58.478,36.064 53.794,33.984 53.794,33.984 C53.088,33.672 52.242,33.703 51.561,34.065 C50.936,33.765 50.208,33.686 49.527,33.854 C49.527,33.854 44.088,35.213 44.088,35.213 C44.088,35.213 43.223,31.219 43.223,31.219 C43.388,31.202 43.558,31.169 43.753,31.115 C43.753,31.115 49.528,28.730 49.528,28.730 C49.753,28.673 50.015,28.602 50.274,28.515 C50.326,28.542 50.377,28.564 50.427,28.586 C50.427,28.586 50.555,28.639 50.555,28.639 C50.555,28.639 56.194,28.135 56.194,28.135 C56.447,28.326 56.664,28.756 56.829,29.084 C57.058,29.532 57.274,29.955 57.747,29.955 C58.229,29.955 58.437,29.487 58.525,29.285 C58.804,28.654 58.820,27.955 58.573,27.316 C58.326,26.676 57.842,26.169 57.214,25.888 C57.214,25.888 52.527,23.809 52.527,23.809 C51.819,23.503 50.979,23.531 50.297,23.892 C49.670,23.587 48.935,23.509 48.267,23.679 C48.267,23.679 42.191,25.195 42.191,25.195 C42.129,25.211 42.066,25.228 42.001,25.250 C42.001,25.250 43.580,24.132 43.580,24.132 C43.954,23.869 44.254,23.509 44.450,23.096 C45.077,22.678 45.509,22.046 45.669,21.315 C45.669,21.315 46.219,18.839 46.219,18.839 C48.708,14.006 48.911,9.810 46.820,6.371 C44.448,2.466 39.619,0.788 38.408,0.788 C37.830,0.788 37.711,1.175 37.688,1.293 C37.576,1.873 38.244,2.139 38.734,2.335 C39.894,2.800 40.683,3.511 41.077,4.446 C41.782,6.134 41.010,8.084 41.010,8.084 C40.761,8.518 40.545,8.518 40.473,8.518 C39.695,8.518 38.404,6.894 37.734,5.739 C37.734,5.739 37.244,4.896 37.244,4.896 C37.244,4.896 36.761,5.742 36.761,5.742 C35.766,7.484 35.541,9.289 36.089,11.103 C36.966,14.005 39.554,16.097 40.747,16.934 C40.662,17.121 40.597,17.313 40.554,17.510 C40.554,17.510 39.987,20.062 39.987,20.062 C39.980,20.096 39.975,20.129 39.970,20.165 C39.970,20.165 37.818,21.690 37.818,21.690 C37.803,21.702 37.788,22.045 37.772,22.056 C37.399,21.984 37.046,22.281 36.694,22.281 C36.694,22.281 23.761,22.281 23.761,22.281 C23.613,22.281 23.467,21.955 23.318,21.970 C23.133,21.681 22.902,21.272 22.628,21.080 C22.628,21.080 20.471,19.467 20.471,19.467 C20.467,19.435 20.459,19.357 20.454,19.319 C20.454,19.319 19.886,16.749 19.886,16.749 C19.842,16.551 19.777,16.348 19.692,16.163 C21.166,15.113 26.874,10.548 23.679,4.964 C23.679,4.964 23.198,4.116 23.198,4.116 C23.198,4.116 22.707,4.958 22.707,4.958 C22.037,6.111 20.742,7.736 19.965,7.736 C19.893,7.736 19.680,7.736 19.461,7.365 C19.379,7.158 18.685,5.292 19.364,3.666 C19.757,2.728 20.546,2.017 21.706,1.551 C22.193,1.357 22.862,1.089 22.752,0.510 C22.728,0.391 22.607,0.005 22.030,0.005 C20.821,0.005 15.995,1.684 13.621,5.587 C11.528,9.029 11.730,13.224 14.224,18.057 C14.224,18.057 14.770,20.533 14.770,20.533 C14.934,21.264 15.368,21.895 15.991,22.313 C16.184,22.725 16.484,23.084 16.862,23.353 C16.862,23.353 18.761,24.699 18.761,24.699 C18.745,24.732 18.727,24.765 18.712,24.799 C18.439,24.622 18.139,24.489 17.811,24.406 C17.811,24.406 11.738,22.895 11.738,22.895 C11.067,22.725 10.336,22.801 9.704,23.101 C9.021,22.740 8.172,22.714 7.470,23.023 C7.470,23.023 2.791,25.100 2.791,25.100 C2.166,25.376 1.688,25.878 1.444,26.516 C1.189,27.172 1.214,27.898 1.507,28.558 C1.683,28.963 1.934,29.166 2.257,29.166 C2.732,29.166 2.946,28.746 3.180,28.285 C3.338,27.967 3.556,27.536 3.812,27.345 C3.812,27.345 9.413,27.850 9.413,27.850 C9.413,27.850 9.456,27.853 9.456,27.853 C9.456,27.853 9.589,27.793 9.589,27.793 C9.636,27.771 9.683,27.750 9.726,27.725 C9.947,27.802 10.184,27.870 10.401,27.916 C10.401,27.916 16.328,30.354 16.328,30.354 C16.635,30.433 16.959,30.459 17.292,30.430 C17.292,30.430 16.280,34.514 16.280,34.514 C16.280,34.514 10.475,33.070 10.475,33.070 C9.803,32.896 9.070,32.975 8.440,33.274 C7.754,32.919 6.909,32.890 6.210,33.195 C6.210,33.195 1.528,35.276 1.528,35.276 C0.895,35.557 0.415,36.067 0.172,36.714 C-0.071,37.365 -0.044,38.083 0.243,38.737 C0.418,39.140 0.670,39.345 0.992,39.345 C1.471,39.345 1.686,38.915 1.914,38.460 C2.065,38.161 2.288,37.716 2.549,37.520 C2.549,37.520 8.155,38.025 8.155,38.025 C8.155,38.025 8.198,38.028 8.198,38.028 C8.198,38.028 8.334,37.966 8.334,37.966 C8.377,37.945 8.420,37.923 8.465,37.900 C8.749,37.998 9.019,38.065 9.139,38.092 C9.139,38.092 15.060,40.529 15.060,40.529 C15.223,40.569 15.392,40.594 15.570,40.605 C15.834,41.261 16.241,42.038 16.760,42.863 C16.760,42.863 13.203,45.001 13.203,45.001 C12.594,45.369 12.150,45.917 11.915,46.586 C11.169,46.820 10.561,47.383 10.279,48.110 C10.279,48.110 8.442,52.888 8.442,52.888 C8.190,53.531 8.208,54.229 8.485,54.857 C8.769,55.498 9.286,55.977 9.981,56.246 C10.136,56.304 10.283,56.335 10.420,56.335 C10.782,56.335 10.961,56.126 11.007,56.062 C11.251,55.726 11.125,55.348 10.965,54.870 C10.859,54.549 10.702,54.075 10.750,53.755 C10.750,53.755 15.073,50.143 15.073,50.143 C15.073,50.143 15.106,50.115 15.106,50.115 C15.106,50.115 15.158,49.970 15.158,49.970 C15.173,49.928 15.186,49.883 15.200,49.840 C15.406,49.740 15.616,49.622 15.812,49.502 C15.812,49.502 20.512,47.090 20.512,47.090 C22.305,48.847 23.822,49.281 25.026,49.281 C25.026,49.281 36.273,49.281 36.273,49.281 C37.269,49.281 38.381,49.125 39.583,47.918 C39.583,47.918 44.111,50.028 44.111,50.028 C44.374,50.185 44.595,50.422 44.796,50.519 C44.811,50.566 44.826,50.671 44.844,50.718 C44.844,50.718 44.882,50.844 44.882,50.844 C44.882,50.844 49.245,54.529 49.245,54.529 C49.293,54.852 49.137,55.334 49.029,55.654 C48.873,56.132 48.749,56.513 48.990,56.848 C49.066,56.955 49.243,57.131 49.563,57.131 C49.706,57.131 49.855,57.097 50.081,57.012 C51.407,56.496 52.068,55.000 51.556,53.678 C51.556,53.678 49.718,48.900 49.718,48.900 C49.437,48.176 48.831,47.611 48.082,47.376 C47.851,46.710 47.397,46.151 46.796,45.790 C46.796,45.790 43.036,43.532 43.036,43.532 C43.442,42.783 43.789,42.069 44.069,41.401 C44.374,41.417 44.657,41.391 45.012,41.295 C45.012,41.295 50.790,38.909 50.790,38.909 C51.029,38.847 51.287,38.777 51.535,38.691 C51.579,38.714 51.623,38.737 51.669,38.757 C51.669,38.757 51.802,38.817 51.802,38.817 C51.802,38.817 57.449,38.311 57.449,38.311 C57.710,38.503 57.934,38.950 58.086,39.251 C58.313,39.705 58.528,40.130 59.006,40.130 C59.491,40.130 59.694,39.664 59.782,39.463 C60.063,38.832 60.080,38.131 59.833,37.490 Z" id="path-1" class="cls-3" fill-rule="evenodd"/>
    <path d="M38.386,7.474 C38.443,7.474 38.597,7.462 38.784,7.235 C38.382,6.751 38.007,6.208 37.734,5.739 C37.734,5.739 37.244,4.896 37.244,4.896 C37.244,4.896 36.761,5.742 36.761,5.742 C36.699,5.851 36.649,5.960 36.593,6.069 C37.206,6.833 37.897,7.474 38.386,7.474 Z" id="path-2" class="cls-4" fill-rule="evenodd"/>
    <path d="M44.732,5.327 C46.823,8.766 46.621,12.962 44.131,17.795 C44.131,17.795 43.582,20.271 43.582,20.271 C43.421,21.003 42.989,21.634 42.362,22.052 C42.166,22.466 41.866,22.825 41.493,23.090 C41.493,23.090 39.914,24.206 39.914,24.206 C39.979,24.185 40.041,24.167 40.103,24.151 C40.103,24.151 44.502,23.053 44.502,23.053 C45.099,22.634 45.514,22.024 45.670,21.315 C45.670,21.315 46.219,18.839 46.219,18.839 C48.708,14.006 48.911,9.809 46.820,6.371 C45.244,3.776 42.586,2.170 40.623,1.380 C42.122,2.285 43.672,3.582 44.732,5.327 Z" id="path-3" class="cls-4" fill-rule="evenodd"/>
    <path d="M14.241,29.310 C14.241,29.310 8.313,26.873 8.313,26.873 C8.097,26.826 7.859,26.758 7.639,26.681 C7.595,26.706 7.548,26.728 7.501,26.749 C7.501,26.749 7.369,26.809 7.369,26.809 C7.369,26.809 7.326,26.805 7.326,26.805 C7.326,26.805 1.725,26.302 1.725,26.302 C1.605,26.390 1.497,26.532 1.396,26.688 C1.208,27.298 1.239,27.955 1.507,28.558 C1.683,28.963 1.934,29.166 2.257,29.166 C2.732,29.166 2.946,28.746 3.180,28.285 C3.338,27.967 3.556,27.536 3.812,27.345 C3.812,27.345 9.413,27.850 9.413,27.850 C9.413,27.850 9.456,27.853 9.456,27.853 C9.456,27.853 9.589,27.793 9.589,27.793 C9.636,27.771 9.683,27.750 9.726,27.725 C9.947,27.802 10.184,27.870 10.401,27.916 C10.401,27.916 15.091,29.845 15.091,29.845 C15.091,29.845 15.205,29.386 15.205,29.386 C14.872,29.416 14.548,29.389 14.241,29.310 Z" id="path-4" class="cls-4" fill-rule="evenodd"/>
    <path d="M41.135,30.175 C41.135,30.175 42.001,34.169 42.001,34.169 C42.001,34.169 43.767,33.727 43.767,33.727 C43.767,33.727 43.223,31.219 43.223,31.219 C43.388,31.202 43.558,31.169 43.753,31.115 C43.753,31.115 49.528,28.730 49.528,28.730 C49.753,28.673 50.015,28.602 50.274,28.515 C50.326,28.542 50.377,28.564 50.427,28.586 C50.427,28.586 50.555,28.639 50.555,28.639 C50.555,28.639 54.856,28.255 54.856,28.255 C54.818,28.184 54.779,28.114 54.742,28.040 C54.577,27.712 54.359,27.282 54.106,27.092 C54.106,27.092 48.467,27.595 48.467,27.595 C48.467,27.595 48.340,27.542 48.340,27.542 C48.290,27.520 48.238,27.498 48.187,27.472 C47.928,27.558 47.666,27.629 47.440,27.686 C47.440,27.686 41.666,30.072 41.666,30.072 C41.471,30.126 41.300,30.159 41.135,30.175 Z" id="path-5" class="cls-4" fill-rule="evenodd"/>
    <path d="M22.289,5.613 C23.636,10.411 18.928,14.191 17.605,15.133 C17.689,15.318 17.755,15.535 17.798,15.733 C17.798,15.733 18.366,18.330 18.366,18.330 C18.372,18.369 18.379,18.502 18.384,18.536 C18.384,18.536 20.541,20.259 20.541,20.259 C20.815,20.451 21.045,21.081 21.230,21.369 C21.379,21.355 21.526,22.126 21.673,22.126 C21.673,22.126 23.161,22.126 23.161,22.126 C23.007,21.821 22.829,21.444 22.628,21.303 C22.628,21.303 20.471,19.579 20.471,19.579 C20.467,19.546 20.459,19.412 20.454,19.374 C20.454,19.374 19.886,16.777 19.886,16.777 C19.842,16.579 19.777,16.361 19.692,16.176 C21.166,15.127 26.874,10.554 23.679,4.971 C23.679,4.971 23.198,4.120 23.198,4.120 C23.198,4.120 22.707,4.960 22.707,4.960 C22.587,5.166 22.442,5.388 22.289,5.613 Z" id="path-6" class="cls-4" fill-rule="evenodd"/>
    <path d="M45.012,41.295 C45.012,41.295 50.790,38.909 50.790,38.909 C51.029,38.847 51.287,38.777 51.535,38.691 C51.578,38.714 51.623,38.737 51.669,38.757 C51.669,38.757 51.802,38.817 51.802,38.817 C51.802,38.817 56.116,38.430 56.116,38.430 C56.077,38.357 56.037,38.284 55.998,38.207 C55.847,37.906 55.623,37.460 55.361,37.267 C55.361,37.267 49.714,37.773 49.714,37.773 C49.714,37.773 49.581,37.713 49.581,37.713 C49.536,37.693 49.491,37.671 49.447,37.647 C49.199,37.733 48.942,37.803 48.702,37.865 C48.702,37.865 42.924,40.251 42.924,40.251 C42.570,40.348 42.287,40.374 41.981,40.357 C41.701,41.025 41.354,41.740 40.949,42.488 C40.949,42.488 44.708,44.746 44.708,44.746 C45.309,45.107 45.763,45.667 45.995,46.332 C46.743,46.568 47.350,47.133 47.630,47.857 C47.630,47.857 49.468,52.636 49.468,52.636 C49.777,53.432 49.654,54.289 49.221,54.960 C49.177,55.205 49.096,55.462 49.029,55.662 C48.873,56.140 48.749,56.518 48.990,56.852 C49.066,56.959 49.243,57.132 49.563,57.132 C49.706,57.132 49.855,57.098 50.081,57.012 C51.407,56.497 52.068,55.001 51.556,53.679 C51.556,53.679 49.718,48.901 49.718,48.901 C49.437,48.176 48.831,47.611 48.082,47.376 C47.851,46.711 47.397,46.151 46.796,45.790 C46.796,45.790 43.036,43.532 43.036,43.532 C43.442,42.783 43.789,42.069 44.069,41.401 C44.374,41.417 44.657,41.391 45.012,41.295 Z" id="path-7" class="cls-4" fill-rule="evenodd"/>
    <path d="M42.361,48.775 C42.160,48.678 37.148,46.558 37.148,46.558 C35.946,47.766 34.833,48.434 33.837,48.434 C33.837,48.434 22.591,48.434 22.591,48.434 C22.404,48.434 22.208,48.404 22.007,48.359 C23.017,49.091 23.912,49.478 24.678,49.478 C24.678,49.478 35.925,49.478 35.925,49.478 C36.920,49.478 38.381,49.238 39.583,48.031 C39.583,48.031 42.129,49.185 42.129,49.185 C42.113,49.142 42.374,48.818 42.361,48.775 Z" id="path-8" class="cls-4" fill-rule="evenodd"/>
    <path d="M17.276,2.622 C16.597,4.249 17.291,6.114 17.373,6.322 C17.593,6.693 17.806,6.693 17.877,6.693 C18.221,6.693 18.666,6.367 19.114,5.913 C19.033,5.240 19.045,4.429 19.364,3.666 C19.757,2.728 20.546,2.017 21.706,1.551 C22.193,1.357 22.862,1.089 22.752,0.510 C22.728,0.391 22.607,0.005 22.030,0.005 C21.412,0.005 19.849,0.447 18.151,1.397 C17.765,1.749 17.471,2.157 17.276,2.622 Z" id="path-9" class="cls-4" fill-rule="evenodd"/>
    <path d="M18.424,46.558 C18.424,46.558 13.725,48.458 13.725,48.458 C13.528,48.579 13.319,48.696 13.112,48.797 C13.099,48.839 13.085,48.883 13.071,48.927 C13.071,48.927 13.019,49.071 13.019,49.071 C13.019,49.071 12.986,49.100 12.986,49.100 C12.986,49.100 8.663,52.711 8.663,52.711 C8.614,53.031 8.772,53.505 8.878,53.826 C9.038,54.304 9.164,54.682 8.919,55.019 C8.893,55.056 8.812,55.140 8.684,55.206 C8.983,55.671 9.421,56.029 9.981,56.246 C10.136,56.304 10.283,56.335 10.420,56.335 C10.782,56.335 10.961,56.126 11.007,56.062 C11.251,55.726 11.125,55.348 10.965,54.870 C10.859,54.549 10.702,54.075 10.750,53.755 C10.750,53.755 15.073,50.143 15.073,50.143 C15.073,50.143 15.106,50.115 15.106,50.115 C15.106,50.115 15.158,49.970 15.158,49.970 C15.173,49.928 15.186,49.883 15.200,49.840 C15.406,49.740 15.616,49.622 15.812,49.502 C15.812,49.502 20.512,47.202 20.512,47.202 C20.046,46.836 18.936,47.060 18.424,46.558 Z" id="path-10" class="cls-4" fill-rule="evenodd"/>
    <path d="M8.198,38.028 C8.198,38.028 8.334,37.966 8.334,37.966 C8.377,37.945 8.420,37.923 8.465,37.900 C8.749,37.998 9.019,38.065 9.139,38.092 C9.139,38.092 13.667,39.955 13.667,39.955 C13.609,39.826 13.532,39.683 13.483,39.562 C13.304,39.550 13.135,39.525 12.973,39.485 C12.973,39.485 7.051,37.048 7.051,37.048 C6.932,37.021 6.662,36.954 6.377,36.856 C6.332,36.879 6.290,36.901 6.247,36.922 C6.247,36.922 6.110,36.984 6.110,36.984 C6.110,36.984 6.068,36.981 6.068,36.981 C6.068,36.981 0.461,36.476 0.461,36.476 C0.342,36.566 0.232,36.709 0.132,36.865 C-0.055,37.476 -0.023,38.133 0.243,38.737 C0.418,39.140 0.670,39.345 0.991,39.345 C1.471,39.345 1.686,38.915 1.914,38.460 C2.065,38.161 2.288,37.716 2.549,37.520 C2.549,37.520 8.155,38.025 8.155,38.025 C8.155,38.025 8.198,38.028 8.198,38.028 Z" id="path-11" class="cls-4" fill-rule="evenodd"/>
    <path d="M24.995,27.968 C24.303,27.968 23.743,27.407 23.743,26.715 C23.743,26.023 24.303,25.463 24.995,25.463 C25.687,25.463 26.248,26.023 26.248,26.715 C26.248,27.407 25.687,27.968 24.995,27.968 Z" id="path-12" class="cls-14" fill-rule="evenodd"/>
    <circle id="circle-1" class="cls-14" cx="25" cy="43" r="4"/>
    <circle id="circle-2" class="cls-14" cx="22" cy="38" r="3"/>
    <path d="M36.062,27.968 C35.371,27.968 34.809,27.407 34.809,26.715 C34.809,26.023 35.371,25.463 36.062,25.463 C36.754,25.463 37.315,26.023 37.315,26.715 C37.315,27.407 36.754,27.968 36.062,27.968 Z" id="path-13" class="cls-14" fill-rule="evenodd"/>
    <path d="M59.833,37.490 C59.584,36.847 59.102,36.340 58.478,36.064 C58.478,36.064 56.982,35.400 56.982,35.400 C57.316,35.677 57.584,36.028 57.746,36.446 C57.993,37.088 57.976,37.789 57.695,38.419 C57.684,38.444 57.664,38.482 57.649,38.514 C57.824,38.733 57.975,39.030 58.086,39.251 C58.313,39.705 58.528,40.130 59.006,40.130 C59.491,40.130 59.694,39.664 59.782,39.463 C60.063,38.832 60.080,38.131 59.833,37.490 Z" id="path-14" class="cls-4" fill-rule="evenodd"/>
    <path d="M56.485,26.272 C56.732,26.911 56.716,27.610 56.437,28.242 C56.426,28.268 56.407,28.306 56.391,28.338 C56.561,28.554 56.709,28.844 56.829,29.084 C57.058,29.532 57.274,29.955 57.747,29.955 C58.229,29.955 58.437,29.487 58.525,29.285 C58.804,28.654 58.820,27.955 58.573,27.316 C58.326,26.676 57.842,26.169 57.214,25.888 C57.214,25.888 55.719,25.226 55.719,25.226 C56.055,25.503 56.325,25.855 56.485,26.272 Z" id="path-15" class="cls-4" fill-rule="evenodd"/>
  </g>
</svg>
