<svg xmlns="http://www.w3.org/2000/svg" xmlns:xlink="http://www.w3.org/1999/xlink" preserveAspectRatio="xMidYMid" width="51" height="60" viewBox="0 0 51 60">
  <defs>
    <style>

      .cls-3 {
        fill: #0cb04a;
      }

      .cls-4 {
        fill: #020403;
        opacity: 0.35;
      }

      .cls-5 {
        fill: #ff3a2f;
      }

      .cls-6 {
        fill: #142a3b;
      }

      .cls-13 {
        fill: #ffffff;
      }
    </style>
  </defs>
  <g id="group-84svg">
    <path d="M8.380,22.628 C8.380,22.628 8.457,12.413 8.457,12.413 C8.457,11.298 9.413,10.392 10.595,10.392 C10.595,10.392 40.923,10.392 40.923,10.392 C42.104,10.392 43.061,11.298 43.061,12.413 C43.061,12.413 42.929,22.003 42.929,22.003 C42.929,22.003 42.929,22.003 42.929,22.003 " id="path-1" class="cls-3" fill-rule="evenodd"/>
    <path d="M40.923,10.392 C40.923,10.392 37.557,10.392 37.557,10.392 C37.557,10.392 37.441,18.711 37.441,18.711 C37.441,18.711 25.557,15.633 25.557,15.633 C25.557,15.633 8.406,19.236 8.406,19.236 C8.406,19.236 8.380,22.628 8.380,22.628 C8.380,22.628 42.929,22.003 42.929,22.003 C42.929,22.003 43.061,12.413 43.061,12.413 C43.061,11.298 42.104,10.392 40.923,10.392 Z" id="path-2" class="cls-4" fill-rule="evenodd"/>
    <path d="M25.755,17.725 C25.755,17.725 12.675,21.006 1.539,24.115 C0.056,24.531 -0.425,26.160 0.478,27.636 C4.322,33.907 15.458,51.108 20.228,57.454 C22.252,60.136 25.811,59.991 25.811,59.991 C25.811,59.991 29.170,60.068 31.287,57.278 C36.868,49.921 46.879,34.011 50.833,27.007 C51.590,25.665 50.596,24.198 49.008,23.767 C38.054,20.790 25.755,17.725 25.755,17.725 Z" id="path-3" class="cls-5" fill-rule="evenodd"/>
    <path d="M25.700,36.681 C25.147,36.681 24.700,36.233 24.700,35.681 C24.700,35.681 24.700,18.081 24.700,18.081 C24.700,17.528 25.147,17.081 25.700,17.081 C26.252,17.081 26.700,17.528 26.700,18.081 C26.700,18.081 26.700,35.681 26.700,35.681 C26.700,36.233 26.252,36.681 25.700,36.681 Z" id="path-4" class="cls-6" fill-rule="evenodd"/>
    <path d="M16.303,32.826 C16.303,35.061 15.170,36.870 13.772,36.870 C12.368,36.870 11.228,35.061 11.228,32.826 C11.228,30.593 12.368,28.783 13.772,28.783 C15.170,28.783 16.303,30.593 16.303,32.826 Z" id="path-5" class="cls-6" fill-rule="evenodd"/>
    <path d="M39.769,32.512 C39.769,34.741 38.636,36.555 37.234,36.555 C35.834,36.555 34.699,34.741 34.699,32.512 C34.699,30.275 35.834,28.467 37.234,28.467 C38.636,28.467 39.769,30.275 39.769,32.512 Z" id="path-6" class="cls-6" fill-rule="evenodd"/>
    <path d="M21.094,10.905 C21.094,10.905 21.094,1.624 21.094,1.624 C21.094,0.725 21.345,-0.007 21.646,-0.007 C21.646,-0.007 29.518,-0.007 29.518,-0.007 C29.827,-0.007 30.075,0.725 30.075,1.624 C30.075,1.624 30.075,10.318 30.075,10.318 C30.075,10.318 30.075,10.318 30.075,10.318 " id="path-7" class="cls-5" fill-rule="evenodd"/>
    <path d="M29.518,-0.007 C29.518,-0.007 26.783,-0.007 26.783,-0.007 C26.783,-0.007 26.613,9.262 26.613,9.262 C26.613,9.262 21.094,9.444 21.094,9.444 C21.094,9.444 21.094,10.905 21.094,10.905 C21.094,10.905 30.075,10.318 30.075,10.318 C30.075,10.318 30.075,1.624 30.075,1.624 C30.075,0.725 29.827,-0.007 29.518,-0.007 Z" id="path-8" class="cls-4" fill-rule="evenodd"/>
    <path d="M29.329,3.393 C29.329,3.393 21.994,3.393 21.994,3.393 C21.442,3.393 20.994,2.946 20.994,2.393 C20.994,1.841 21.442,1.394 21.994,1.394 C21.994,1.394 29.329,1.394 29.329,1.394 C29.881,1.394 30.329,1.841 30.329,2.393 C30.329,2.946 29.881,3.393 29.329,3.393 Z" id="path-9" class="cls-6" fill-rule="evenodd"/>
    <path d="M49.008,23.767 C38.054,20.790 25.755,17.725 25.755,17.725 C25.755,17.725 25.683,17.744 25.557,17.775 C25.557,17.775 25.557,59.989 25.557,59.989 C25.714,59.994 25.811,59.991 25.811,59.991 C25.811,59.991 29.170,60.068 31.287,57.278 C36.868,49.921 46.879,34.011 50.833,27.007 C51.590,25.665 50.596,24.198 49.008,23.767 Z" id="path-10" class="cls-4" fill-rule="evenodd"/>
    <path d="M18.229,51.412 C17.900,51.412 17.579,51.251 17.388,50.954 C17.388,50.954 9.129,38.153 9.129,38.153 C8.830,37.689 8.963,37.070 9.428,36.771 C9.893,36.471 10.511,36.605 10.810,37.069 C10.810,37.069 19.068,49.870 19.068,49.870 C19.368,50.334 19.234,50.953 18.770,51.252 C18.603,51.361 18.415,51.412 18.229,51.412 Z" id="path-11" class="cls-13" fill-rule="evenodd"/>
  </g>
</svg>
