<svg xmlns="http://www.w3.org/2000/svg" xmlns:xlink="http://www.w3.org/1999/xlink" preserveAspectRatio="xMidYMid" width="59" height="61" viewBox="0 0 59 61">
  <defs>
    <style>

      .cls-3 {
        fill: #142a3b;
      }

      .cls-5 {
        fill: #0cb04a;
      }

      .cls-6 {
        fill: #ff3a2f;
      }

      .cls-7 {
        fill: #fbb713;
      }

      .cls-9 {
        fill: #020403;
        opacity: 0.35;
      }

      .cls-15 {
        fill: #ffffff;
      }
    </style>
  </defs>
  <g id="group-161svg">
    <path d="M18.582,6.165 C18.192,6.165 17.822,5.935 17.661,5.554 C17.661,5.554 15.898,1.401 15.898,1.401 C15.682,0.893 15.919,0.306 16.428,0.090 C16.936,-0.126 17.523,0.111 17.739,0.620 C17.739,0.620 19.501,4.773 19.501,4.773 C19.717,5.282 19.480,5.869 18.972,6.084 C18.844,6.139 18.712,6.165 18.582,6.165 Z" id="path-1" class="cls-3" fill-rule="evenodd"/>
    <path d="M37.086,49.774 C36.697,49.774 36.327,49.545 36.165,49.165 C36.165,49.165 27.354,28.398 27.354,28.398 C27.138,27.889 27.375,27.302 27.883,27.087 C28.391,26.871 28.978,27.108 29.194,27.617 C29.194,27.617 38.006,48.383 38.006,48.383 C38.222,48.891 37.985,49.478 37.477,49.694 C37.349,49.748 37.217,49.774 37.086,49.774 Z" id="path-2" class="cls-3" fill-rule="evenodd"/>
    <path d="M46.964,20.076 C52.125,17.886 57.295,18.436 58.512,21.302 C51.942,5.819 34.064,-1.406 18.581,5.164 C3.098,11.734 -4.128,29.612 2.442,45.094 C1.225,42.228 4.423,38.128 9.584,35.937 C14.745,33.748 19.915,34.297 21.132,37.164 C19.915,34.297 23.113,30.197 28.274,28.007 C33.435,25.817 38.605,26.366 39.822,29.233 C38.605,26.366 41.803,22.266 46.964,20.076 Z" id="path-3" class="cls-5" fill-rule="evenodd"/>
    <path d="M46.964,20.076 C52.125,17.886 57.295,18.436 58.512,21.302 C51.942,5.819 34.064,-1.406 18.581,5.164 C18.103,5.367 18.698,5.110 18.312,5.325 C17.224,5.932 32.916,16.270 39.822,29.233 C38.357,26.484 41.803,22.266 46.964,20.076 Z" id="path-4" class="cls-6" fill-rule="evenodd"/>
    <path d="M39.822,29.233 C33.252,13.750 23.742,2.974 18.581,5.164 C13.420,7.354 14.562,21.680 21.132,37.164 C21.132,37.164 21.076,37.033 21.076,37.033 C19.859,34.165 23.498,31.104 28.659,28.914 C33.820,26.724 38.550,26.235 39.766,29.102 C39.766,29.102 39.822,29.233 39.822,29.233 Z" id="path-5" class="cls-7" fill-rule="evenodd"/>
    <path d="M37.653,55.885 C39.113,59.325 43.086,60.931 46.526,59.471 C49.967,58.011 51.573,54.039 50.113,50.597 C49.626,49.451 48.302,48.916 47.155,49.402 C46.008,49.888 45.473,51.213 45.959,52.360 C46.446,53.506 45.911,54.831 44.764,55.318 C43.617,55.805 42.293,55.269 41.806,54.122 C41.806,54.122 39.163,47.892 39.163,47.892 C39.163,47.892 35.009,49.655 35.009,49.655 C35.009,49.655 37.653,55.885 37.653,55.885 Z" id="path-6" class="cls-3" fill-rule="evenodd"/>
    <path d="M38.124,48.333 C38.124,48.333 40.327,53.525 40.327,53.525 C40.685,54.367 41.495,54.875 42.354,54.894 C42.126,54.684 41.936,54.427 41.806,54.122 C41.806,54.122 39.163,47.892 39.163,47.892 C39.163,47.892 38.124,48.333 38.124,48.333 Z" id="path-7" class="cls-9" fill-rule="evenodd"/>
    <path d="M48.086,49.227 C48.314,49.438 48.505,49.695 48.634,50.000 C50.094,53.440 48.488,57.413 45.048,58.873 C43.592,59.491 42.042,59.555 40.627,59.168 C42.382,60.131 44.541,60.313 46.526,59.471 C49.967,58.011 51.573,54.039 50.113,50.597 C49.755,49.755 48.945,49.247 48.086,49.227 Z" id="path-8" class="cls-9" fill-rule="evenodd"/>
    <path d="M1.931,38.115 C1.447,38.320 0.987,38.547 0.540,38.783 C0.938,40.908 1.563,43.023 2.442,45.094 C1.368,42.563 3.664,37.693 11.833,35.154 C10.021,35.181 3.991,37.241 1.931,38.115 Z" id="path-9" class="cls-9" fill-rule="evenodd"/>
    <path d="M20.621,30.184 C17.800,30.793 15.835,32.945 14.554,34.655 C17.725,34.369 20.317,35.243 21.132,37.164 C20.058,34.633 22.388,32.215 26.510,29.925 C24.699,29.953 22.705,29.735 20.621,30.184 Z" id="path-10" class="cls-9" fill-rule="evenodd"/>
    <path d="M18.581,5.164 C18.526,5.186 18.475,5.214 18.421,5.237 C30.335,3.488 42.372,8.993 48.768,19.423 C53.279,18.050 57.437,18.770 58.512,21.302 C51.942,5.819 34.064,-1.406 18.581,5.164 Z" id="path-11" class="cls-9" fill-rule="evenodd"/>
    <path d="M39.311,22.254 C36.654,23.381 31.139,26.795 29.857,28.506 C36.778,25.735 39.007,27.312 39.822,29.233 C38.747,26.702 41.118,23.211 45.239,20.921 C43.428,20.949 41.371,21.379 39.311,22.254 Z" id="path-12" class="cls-9" fill-rule="evenodd"/>
    <path d="M3.441,33.638 C2.979,33.638 2.564,33.316 2.465,32.845 C2.390,32.489 0.729,23.995 9.586,13.732 C9.947,13.315 10.578,13.268 10.996,13.629 C11.414,13.989 11.460,14.621 11.100,15.039 C2.935,24.500 4.407,32.359 4.423,32.437 C4.532,32.977 4.185,33.505 3.645,33.617 C3.577,33.631 3.509,33.638 3.441,33.638 Z" id="path-13" class="cls-15" fill-rule="evenodd"/>
  </g>
</svg>
