<svg xmlns="http://www.w3.org/2000/svg" xmlns:xlink="http://www.w3.org/1999/xlink" preserveAspectRatio="xMidYMid" width="29" height="60" viewBox="0 0 29 60">
  <defs>
    <style>

      .cls-3 {
        fill: #fbb713;
      }

      .cls-4 {
        fill: #000000;
        opacity: 0.35;
      }

      .cls-5 {
        fill: #fbfbfb;
        opacity: 0.5;
      }

      .cls-6 {
        fill: #000000;
        opacity: 0.45;
      }

      .cls-7 {
        fill: #0cb04a;
      }
    </style>
  </defs>
  <g id="group-228svg">
    <path d="M28.297,18.520 C28.297,18.520 17.982,57.100 17.982,57.100 C16.954,60.947 11.494,60.947 10.465,57.100 C10.465,57.100 0.151,18.520 0.151,18.520 C-0.510,16.049 1.353,13.624 3.910,13.624 C3.910,13.624 24.538,13.624 24.538,13.624 C27.096,13.624 28.957,16.049 28.297,18.520 Z" id="path-1" class="cls-3" fill-rule="evenodd"/>
    <path d="M24.538,13.624 C24.538,13.624 22.237,13.624 22.237,13.624 C24.794,13.624 26.656,16.049 25.996,18.520 C25.996,18.520 15.681,57.100 15.681,57.100 C15.290,58.562 14.258,59.465 13.073,59.816 C15.005,60.388 17.345,59.484 17.982,57.100 C17.982,57.100 28.297,18.520 28.297,18.520 C28.957,16.049 27.096,13.624 24.538,13.624 Z" id="path-2" class="cls-4" fill-rule="evenodd"/>
    <path d="M24.538,13.624 C24.538,13.624 4.608,13.624 4.608,13.624 C3.686,13.768 2.827,13.929 2.041,14.105 C0.538,14.932 -0.333,16.711 0.151,18.520 C0.151,18.520 0.335,19.207 0.335,19.207 C3.742,20.230 9.328,20.897 15.646,20.897 C20.340,20.897 24.629,20.528 27.922,19.920 C27.922,19.920 28.297,18.520 28.297,18.520 C28.957,16.049 27.096,13.624 24.538,13.624 Z" id="path-3" class="cls-5" fill-rule="evenodd"/>
    <path d="M18.251,13.702 C18.251,13.702 18.251,16.615 18.251,16.615 C18.251,18.109 17.135,19.320 15.758,19.320 C15.758,19.320 15.758,19.320 15.758,19.320 C14.381,19.320 13.265,18.109 13.265,16.615 C13.265,16.615 13.265,13.702 13.265,13.702 C13.265,13.702 18.251,13.702 18.251,13.702 Z" id="path-4" class="cls-6" fill-rule="evenodd"/>
    <path d="M14.432,17.786 C14.432,17.786 14.016,17.786 14.016,17.786 C12.754,17.786 11.731,16.762 11.731,15.500 C11.731,15.500 11.731,7.797 11.731,7.797 C11.731,6.535 12.754,5.512 14.016,5.512 C14.016,5.512 14.432,5.512 14.432,5.512 C15.694,5.512 16.717,6.535 16.717,7.797 C16.717,7.797 16.717,15.500 16.717,15.500 C16.717,16.762 15.694,17.786 14.432,17.786 Z" id="path-5" class="cls-7" fill-rule="evenodd"/>
    <path d="M14.224,5.512 C12.847,5.512 11.731,6.628 11.731,8.005 C11.731,8.005 11.731,12.444 11.731,12.444 C12.488,12.790 13.332,12.985 14.224,12.985 C15.116,12.985 15.960,12.790 16.717,12.444 C16.717,12.444 16.717,8.005 16.717,8.005 C16.717,6.628 15.600,5.512 14.224,5.512 Z" id="path-6" class="cls-6" fill-rule="evenodd"/>
    <path d="M20.263,1.714 C19.714,1.714 19.191,1.820 18.712,2.010 C17.632,0.773 16.023,-0.015 14.224,-0.015 C12.424,-0.015 10.816,0.773 9.735,2.010 C9.257,1.820 8.734,1.714 8.185,1.714 C5.913,1.714 4.070,3.507 4.070,5.718 C4.070,7.930 5.913,9.722 8.185,9.722 C8.734,9.722 9.257,9.615 9.735,9.425 C10.816,10.663 12.424,11.450 14.224,11.450 C16.023,11.450 17.632,10.663 18.712,9.425 C19.191,9.615 19.714,9.722 20.263,9.722 C22.535,9.722 24.377,7.930 24.377,5.718 C24.377,3.507 22.535,1.714 20.263,1.714 Z" id="path-7" class="cls-7" fill-rule="evenodd"/>
    <path d="M22.322,2.270 C22.644,2.841 22.843,3.486 22.843,4.183 C22.843,6.395 21.001,8.187 18.728,8.187 C18.180,8.187 17.657,8.081 17.178,7.891 C16.098,9.129 14.489,9.916 12.689,9.916 C10.890,9.916 9.282,9.129 8.201,7.891 C7.723,8.081 7.200,8.187 6.651,8.187 C5.897,8.187 5.199,7.976 4.592,7.632 C5.291,8.871 6.629,9.722 8.185,9.722 C8.734,9.722 9.257,9.615 9.735,9.425 C10.816,10.663 12.424,11.450 14.224,11.450 C16.023,11.450 17.632,10.663 18.712,9.425 C19.191,9.615 19.714,9.722 20.263,9.722 C22.535,9.722 24.377,7.930 24.377,5.718 C24.377,4.240 23.545,2.964 22.322,2.270 Z" id="path-8" class="cls-4" fill-rule="evenodd"/>
    <path d="M17.180,29.235 C17.180,29.235 5.162,29.235 5.162,29.235 C4.610,29.235 4.162,28.787 4.162,28.235 C4.162,27.683 4.610,27.235 5.162,27.235 C5.162,27.235 17.180,27.235 17.180,27.235 C17.732,27.235 18.180,27.683 18.180,28.235 C18.180,28.787 17.732,29.235 17.180,29.235 Z" id="path-9" class="cls-4" fill-rule="evenodd"/>
    <path d="M17.526,40.933 C17.526,40.933 11.443,40.933 11.443,40.933 C10.891,40.933 10.443,40.485 10.443,39.933 C10.443,39.380 10.891,38.933 11.443,38.933 C11.443,38.933 17.526,38.933 17.526,38.933 C18.079,38.933 18.526,39.380 18.526,39.933 C18.526,40.485 18.079,40.933 17.526,40.933 Z" id="path-10" class="cls-4" fill-rule="evenodd"/>
    <path d="M15.159,52.632 C15.159,52.632 11.382,52.632 11.382,52.632 C10.830,52.632 10.382,52.184 10.382,51.632 C10.382,51.079 10.830,50.632 11.382,50.632 C11.382,50.632 15.159,50.632 15.159,50.632 C15.711,50.632 16.159,51.079 16.159,51.632 C16.159,52.184 15.711,52.632 15.159,52.632 Z" id="path-11" class="cls-4" fill-rule="evenodd"/>
  </g>
</svg>
