<svg xmlns="http://www.w3.org/2000/svg" xmlns:xlink="http://www.w3.org/1999/xlink" preserveAspectRatio="xMidYMid" width="61" height="54" viewBox="0 0 61 54">
  <defs>
    <style>

      .cls-3 {
        fill: #2476ff;
      }

      .cls-5 {
        fill: #020403;
        opacity: 0.25;
      }

      .cls-7 {
        fill: #ff3a2f;
      }

      .cls-9 {
        fill: #0cb04a;
      }
    </style>
  </defs>
  <g id="group-50svg">
    <path d="M42.039,22.524 C47.198,17.364 47.198,8.999 42.039,3.840 C36.879,-1.320 28.514,-1.320 23.354,3.840 C18.195,8.999 18.195,17.364 23.354,22.524 C23.354,22.524 25.673,20.205 25.673,20.205 C21.794,16.326 21.794,10.037 25.673,6.159 C29.552,2.280 35.841,2.280 39.720,6.159 C43.599,10.037 43.599,16.326 39.720,20.205 C39.720,20.205 42.039,22.524 42.039,22.524 Z" id="path-1" class="cls-3" fill-rule="evenodd"/>
    <path d="M16.661,28.380 C16.661,28.380 24.089,35.808 24.089,35.808 C24.089,35.808 14.060,36.524 14.060,36.524 C14.060,36.524 14.060,40.665 14.060,40.665 C14.060,40.665 30.091,41.810 30.091,41.810 C30.091,41.810 40.774,52.493 40.774,52.493 C40.774,52.493 60.010,33.257 60.010,33.257 C60.010,33.257 35.897,9.144 35.897,9.144 C35.897,9.144 16.661,28.380 16.661,28.380 Z" id="path-2" class="cls-3" fill-rule="evenodd"/>
    <path d="M27.307,39.026 C27.307,39.026 14.060,38.079 14.060,38.079 C14.060,38.079 14.060,40.665 14.060,40.665 C14.060,40.665 30.091,41.810 30.091,41.810 C30.091,41.810 27.307,39.026 27.307,39.026 Z" id="path-3" class="cls-5" fill-rule="evenodd"/>
    <path d="M32.417,12.625 C32.417,12.625 48.863,29.071 48.863,29.071 C51.174,31.383 51.174,35.131 48.863,37.442 C48.863,37.442 37.293,49.012 37.293,49.012 C37.293,49.012 40.774,52.493 40.774,52.493 C40.774,52.493 60.010,33.257 60.010,33.257 C60.010,33.257 35.897,9.144 35.897,9.144 C35.897,9.144 32.417,12.625 32.417,12.625 Z" id="path-4" class="cls-5" fill-rule="evenodd"/>
    <path d="M14.886,38.283 C13.685,34.587 9.716,32.564 6.020,33.764 C6.020,33.764 10.368,47.148 10.368,47.148 C14.063,45.947 16.086,41.978 14.886,38.283 Z" id="path-5" class="cls-7" fill-rule="evenodd"/>
    <path d="M14.886,38.283 C14.720,37.771 14.496,37.295 14.231,36.851 C14.096,39.689 12.245,42.280 9.383,43.210 C9.383,43.210 6.291,33.691 6.291,33.691 C6.201,33.717 6.111,33.735 6.020,33.764 C6.020,33.764 10.368,47.148 10.368,47.148 C14.063,45.947 16.086,41.978 14.886,38.283 Z" id="path-6" class="cls-5" fill-rule="evenodd"/>
    <path d="M8.145,49.534 C8.504,48.828 10.434,47.799 10.434,47.799 C10.434,47.799 10.741,49.964 10.382,50.670 C10.023,51.377 9.231,51.694 8.614,51.381 C7.997,51.067 7.787,50.240 8.145,49.534 Z" id="path-7" class="cls-9" fill-rule="evenodd"/>
    <path d="M4.165,47.512 C4.524,46.806 6.454,45.777 6.454,45.777 C6.454,45.777 6.761,47.942 6.402,48.648 C6.043,49.354 5.252,49.673 4.634,49.359 C4.017,49.045 3.807,48.218 4.165,47.512 Z" id="path-8" class="cls-9" fill-rule="evenodd"/>
    <path d="M0.185,45.490 C0.544,44.783 2.474,43.755 2.474,43.755 C2.474,43.755 2.781,45.920 2.422,46.626 C2.063,47.332 1.272,47.650 0.654,47.337 C0.037,47.023 -0.173,46.196 0.185,45.490 Z" id="path-9" class="cls-9" fill-rule="evenodd"/>
    <path d="M3.528,39.674 C3.808,39.140 5.407,38.436 5.407,38.436 C5.407,38.436 5.743,40.151 5.464,40.685 C5.185,41.220 4.525,41.427 3.990,41.148 C3.455,40.869 3.249,40.208 3.528,39.674 Z" id="path-10" class="cls-9" fill-rule="evenodd"/>
    <path d="M1.504,52.534 C1.504,51.931 2.596,50.568 2.596,50.568 C2.596,50.568 3.688,51.931 3.688,52.534 C3.688,53.137 3.199,53.627 2.596,53.627 C1.993,53.627 1.504,53.137 1.504,52.534 Z" id="path-11" class="cls-9" fill-rule="evenodd"/>
  </g>
</svg>
