<svg xmlns="http://www.w3.org/2000/svg" xmlns:xlink="http://www.w3.org/1999/xlink" preserveAspectRatio="xMidYMid" width="60" height="60" viewBox="0 0 60 60">
  <defs>
    <style>

      .cls-3 {
        fill: #ededed;
      }

      .cls-5 {
        fill: #ff3a2f;
      }

      .cls-6 {
        fill: #020403;
        opacity: 0.25;
      }

      .cls-8 {
        fill: #020403;
        opacity: 0.35;
      }
    </style>
  </defs>
  <g id="group-97svg">
    <path d="M27.990,15.140 C27.990,15.140 20.495,7.644 20.495,7.644 C20.495,7.644 28.132,0.007 28.132,0.007 C28.132,0.007 35.627,7.503 35.627,7.503 C35.627,7.503 27.990,15.140 27.990,15.140 Z" id="path-1" class="cls-3" fill-rule="evenodd"/>
    <path d="M52.350,39.499 C52.350,39.499 44.854,32.004 44.854,32.004 C44.854,32.004 52.491,24.367 52.491,24.367 C52.491,24.367 59.986,31.862 59.986,31.862 C59.986,31.862 52.350,39.499 52.350,39.499 Z" id="path-2" class="cls-3" fill-rule="evenodd"/>
    <path d="M44.854,32.004 C44.854,32.004 32.816,44.042 32.816,44.042 C28.158,48.699 20.608,48.699 15.952,44.042 C11.295,39.385 11.295,31.835 15.952,27.177 C15.952,27.177 27.990,15.139 27.990,15.139 C27.990,15.139 20.495,7.644 20.495,7.644 C20.495,7.644 6.582,21.556 6.582,21.556 C-2.212,30.353 -2.212,44.616 6.582,53.411 C15.380,62.208 29.642,62.208 38.437,53.411 C38.437,53.411 52.350,39.499 52.350,39.499 C52.350,39.499 44.854,32.004 44.854,32.004 Z" id="path-3" class="cls-5" fill-rule="evenodd"/>
    <path d="M32.314,4.190 C32.314,4.190 26.665,9.840 26.665,9.840 C26.665,9.840 20.495,7.645 20.495,7.645 C20.495,7.645 27.990,15.139 27.990,15.139 C27.990,15.139 35.627,7.503 35.627,7.503 C35.627,7.503 32.314,4.190 32.314,4.190 Z" id="path-4" class="cls-6" fill-rule="evenodd"/>
    <path d="M56.674,28.549 C56.674,28.549 51.024,34.199 51.024,34.199 C51.024,34.199 44.854,32.004 44.854,32.004 C44.854,32.004 52.350,39.499 52.350,39.499 C52.350,39.499 59.986,31.862 59.986,31.862 C59.986,31.862 56.674,28.549 56.674,28.549 Z" id="path-5" class="cls-6" fill-rule="evenodd"/>
    <path d="M14.626,21.877 C10.861,25.644 10.144,31.299 12.468,35.789 C12.421,32.678 13.578,29.552 15.952,27.177 C15.952,27.177 27.990,15.139 27.990,15.139 C27.990,15.139 24.678,11.827 24.678,11.827 C24.678,11.827 14.626,21.877 14.626,21.877 Z" id="path-6" class="cls-8" fill-rule="evenodd"/>
    <path d="M49.037,36.187 C49.037,36.187 37.112,48.111 37.112,48.111 C28.318,56.908 14.056,56.907 5.258,48.111 C2.962,45.816 1.281,43.144 0.184,40.299 C0.785,45.092 2.903,49.731 6.582,53.411 C15.380,62.208 29.642,62.208 38.437,53.411 C38.437,53.411 52.350,39.499 52.350,39.499 C52.350,39.499 49.037,36.187 49.037,36.187 Z" id="path-7" class="cls-8" fill-rule="evenodd"/>
  </g>
</svg>
