<svg xmlns="http://www.w3.org/2000/svg" xmlns:xlink="http://www.w3.org/1999/xlink" preserveAspectRatio="xMidYMid" width="55" height="61" viewBox="0 0 55 61">
  <defs>
    <style>

      .cls-3 {
        fill: #2476ff;
      }

      .cls-4 {
        fill: #020403;
        opacity: 0.35;
      }
    </style>
  </defs>
  <g id="group-45svg">
    <path d="M45.368,8.794 C57.073,20.499 57.073,39.543 45.368,51.247 C33.664,62.952 14.620,62.952 2.915,51.247 C2.031,50.363 1.160,49.350 0.249,48.146 C-0.043,47.759 -0.099,47.245 0.100,46.806 C0.302,46.368 0.728,46.074 1.208,46.040 C7.827,45.591 14.039,42.775 18.702,38.112 C28.327,28.487 29.373,13.048 21.131,2.203 C20.837,1.818 20.781,1.304 20.980,0.865 C21.180,0.422 21.605,0.128 22.088,0.095 C30.766,-0.492 39.253,2.679 45.368,8.794 Z" id="path-1" class="cls-3" fill-rule="evenodd"/>
    <path d="M45.368,8.794 C44.413,7.839 43.394,6.964 42.331,6.156 C52.463,17.937 51.956,35.772 40.792,46.936 C32.632,55.095 20.231,59.672 9.911,56.455 C13.931,58.833 19.345,59.643 21.100,59.869 C29.767,60.744 38.743,57.872 45.368,51.247 C57.073,39.543 57.073,20.499 45.368,8.794 Z" id="path-2" class="cls-4" fill-rule="evenodd"/>
  </g>
</svg>
