<svg xmlns="http://www.w3.org/2000/svg" xmlns:xlink="http://www.w3.org/1999/xlink" preserveAspectRatio="xMidYMid" width="61" height="57" viewBox="0 0 61 57">
  <defs>
    <style>

      .cls-3 {
        fill: #142a3b;
      }

      .cls-4 {
        fill: #2476ff;
      }

      .cls-6 {
        fill: #060606;
        opacity: 0.35;
      }
    </style>
  </defs>
  <g id="group-203svg">
    <path d="M10.164,38.682 C10.164,38.682 10.164,20.434 10.164,20.434 C10.164,10.162 20.693,2.488 30.103,2.488 C39.519,2.488 50.043,10.162 50.043,20.434 C50.043,20.434 50.043,38.682 50.043,38.682 C50.043,38.682 52.536,38.682 52.536,38.682 C52.536,38.682 52.536,20.434 52.536,20.434 C52.536,9.546 42.055,-0.005 30.103,-0.005 C18.155,-0.005 7.671,9.546 7.671,20.434 C7.671,20.434 7.671,38.682 7.671,38.682 C7.671,38.682 10.164,38.682 10.164,38.682 Z" id="path-1" class="cls-3" fill-rule="evenodd"/>
    <path d="M50.043,37.359 C50.043,37.359 50.043,38.605 50.043,38.605 C50.043,38.605 50.043,54.807 50.043,54.807 C50.043,54.807 50.043,56.053 50.043,56.053 C50.043,56.742 50.603,57.299 51.289,57.299 C51.289,57.299 58.767,57.299 58.767,57.299 C59.458,57.299 60.013,56.742 60.013,56.053 C60.013,56.053 60.013,38.605 60.013,38.605 C60.013,37.919 59.458,37.359 58.767,37.359 C58.767,37.359 50.043,37.359 50.043,37.359 Z" id="path-2" class="cls-4" fill-rule="evenodd"/>
    <path d="M1.259,37.359 C0.568,37.359 0.013,37.919 0.013,38.605 C0.013,38.605 0.013,56.053 0.013,56.053 C0.013,56.742 0.568,57.299 1.259,57.299 C1.259,57.299 8.736,57.299 8.736,57.299 C9.423,57.299 9.982,56.742 9.982,56.053 C9.982,56.053 9.982,54.807 9.982,54.807 C9.982,54.807 9.982,38.605 9.982,38.605 C9.982,38.605 9.982,37.359 9.982,37.359 C9.982,37.359 1.259,37.359 1.259,37.359 Z" id="path-3" class="cls-4" fill-rule="evenodd"/>
    <path d="M58.767,37.359 C58.767,37.359 55.662,37.359 55.662,37.359 C55.662,37.359 55.662,53.878 55.662,53.878 C55.662,54.566 55.107,55.124 54.416,55.124 C54.416,55.124 50.043,55.124 50.043,55.124 C50.043,55.124 50.043,56.053 50.043,56.053 C50.043,56.742 50.603,57.299 51.289,57.299 C51.289,57.299 58.767,57.299 58.767,57.299 C59.458,57.299 60.013,56.742 60.013,56.053 C60.013,56.053 60.013,38.605 60.013,38.605 C60.013,37.919 59.458,37.359 58.767,37.359 Z" id="path-4" class="cls-6" fill-rule="evenodd"/>
    <path d="M5.632,37.359 C5.632,37.359 5.632,52.631 5.632,52.631 C5.632,52.631 5.632,53.878 5.632,53.878 C5.632,54.566 5.072,55.124 4.386,55.124 C4.386,55.124 0.013,55.124 0.013,55.124 C0.013,55.124 0.013,56.053 0.013,56.053 C0.013,56.742 0.568,57.299 1.259,57.299 C1.259,57.299 8.736,57.299 8.736,57.299 C9.423,57.299 9.982,56.742 9.982,56.053 C9.982,56.053 9.982,54.807 9.982,54.807 C9.982,54.807 9.982,38.605 9.982,38.605 C9.982,38.605 9.982,37.359 9.982,37.359 C9.982,37.359 5.632,37.359 5.632,37.359 Z" id="path-5" class="cls-6" fill-rule="evenodd"/>
  </g>
</svg>
