<svg xmlns="http://www.w3.org/2000/svg" xmlns:xlink="http://www.w3.org/1999/xlink" preserveAspectRatio="xMidYMid" width="60" height="37" viewBox="0 0 60 37">
  <defs>
    <style>

      .cls-3 {
        fill: #0cb04a;
      }

      .cls-4 {
        fill: #000000;
        opacity: 0.35;
      }

      .cls-9 {
        fill: #142a3b;
      }
    </style>
  </defs>
  <g id="group-121svg">
    <path d="M49.133,14.755 C43.137,14.755 38.276,19.609 38.276,25.598 C38.276,31.586 43.137,36.441 49.133,36.441 C55.128,36.441 59.989,31.586 59.989,25.598 C59.989,19.609 55.128,14.755 49.133,14.755 ZM49.133,32.506 C45.313,32.506 42.216,29.413 42.216,25.598 C42.216,21.782 45.313,18.690 49.133,18.690 C52.953,18.690 56.049,21.782 56.049,25.598 C56.049,29.413 52.953,32.506 49.133,32.506 Z" id="path-1" class="cls-3" fill-rule="evenodd"/>
    <path d="M48.176,18.764 C47.862,18.720 47.544,18.690 47.218,18.690 C43.398,18.690 40.302,21.782 40.302,25.598 C40.302,29.413 43.398,32.506 47.218,32.506 C47.544,32.506 47.862,32.476 48.176,32.432 C44.810,31.966 42.216,29.088 42.216,25.598 C42.216,22.108 44.810,19.230 48.176,18.764 Z" id="path-2" class="cls-4" fill-rule="evenodd"/>
    <path d="M49.133,14.755 C48.810,14.755 48.492,14.776 48.176,14.803 C53.722,15.288 58.075,19.932 58.075,25.598 C58.075,31.263 53.722,35.908 48.176,36.393 C48.492,36.420 48.810,36.441 49.133,36.441 C55.128,36.441 59.989,31.586 59.989,25.598 C59.989,19.609 55.128,14.755 49.133,14.755 Z" id="path-3" class="cls-4" fill-rule="evenodd"/>
    <path d="M10.846,14.755 C4.850,14.755 -0.011,19.609 -0.011,25.598 C-0.011,31.586 4.850,36.441 10.846,36.441 C16.841,36.441 21.702,31.586 21.702,25.598 C21.702,19.609 16.841,14.755 10.846,14.755 ZM10.846,32.506 C7.026,32.506 3.929,29.413 3.929,25.598 C3.929,21.782 7.026,18.690 10.846,18.690 C14.666,18.690 17.762,21.782 17.762,25.598 C17.762,29.413 14.666,32.506 10.846,32.506 Z" id="path-4" class="cls-3" fill-rule="evenodd"/>
    <path d="M9.888,18.764 C9.575,18.720 9.257,18.690 8.931,18.690 C5.111,18.690 2.015,21.782 2.015,25.598 C2.015,29.413 5.111,32.506 8.931,32.506 C9.257,32.506 9.575,32.476 9.888,32.432 C6.523,31.966 3.929,29.088 3.929,25.598 C3.929,22.108 6.523,19.230 9.888,18.764 Z" id="path-5" class="cls-4" fill-rule="evenodd"/>
    <path d="M10.846,14.755 C10.522,14.755 10.204,14.776 9.888,14.803 C15.435,15.288 19.788,19.932 19.788,25.598 C19.788,31.263 15.435,35.908 9.888,36.393 C10.204,36.420 10.522,36.441 10.846,36.441 C16.841,36.441 21.702,31.586 21.702,25.598 C21.702,19.609 16.841,14.755 10.846,14.755 Z" id="path-6" class="cls-4" fill-rule="evenodd"/>
    <path d="M51.850,25.598 C51.850,27.097 50.633,28.311 49.133,28.311 C47.632,28.311 46.416,27.097 46.416,25.598 C46.416,24.099 47.632,22.885 49.133,22.885 C50.633,22.885 51.850,24.099 51.850,25.598 Z" id="path-7" class="cls-9" fill-rule="evenodd"/>
    <path d="M13.260,26.146 C13.260,27.645 12.043,28.860 10.543,28.860 C9.042,28.860 7.826,27.645 7.826,26.146 C7.826,24.648 9.042,23.433 10.543,23.433 C12.043,23.433 13.260,24.648 13.260,26.146 Z" id="path-8" class="cls-9" fill-rule="evenodd"/>
    <path d="M34.567,26.146 C34.567,27.645 33.351,28.860 31.851,28.860 C30.350,28.860 29.134,27.645 29.134,26.146 C29.134,24.648 30.350,23.433 31.851,23.433 C33.351,23.433 34.567,24.648 34.567,26.146 Z" id="path-9" class="cls-9" fill-rule="evenodd"/>
    <path d="M32.436,26.598 C32.436,26.598 8.780,26.598 8.780,26.598 C8.780,26.598 20.877,7.103 20.877,7.103 C20.877,7.103 43.550,7.103 43.550,7.103 C44.102,7.103 44.550,7.551 44.550,8.103 C44.550,8.655 44.102,9.103 43.550,9.103 C43.550,9.103 40.121,9.103 40.121,9.103 C40.121,9.103 32.436,26.598 32.436,26.598 ZM12.374,24.598 C12.374,24.598 31.130,24.598 31.130,24.598 C31.130,24.598 37.936,9.103 37.936,9.103 C37.936,9.103 21.990,9.103 21.990,9.103 C21.990,9.103 12.374,24.598 12.374,24.598 Z" id="path-10" class="cls-9" fill-rule="evenodd"/>
    <path d="M49.132,26.598 C48.709,26.598 48.316,26.327 48.180,25.902 C48.180,25.902 40.469,1.736 40.469,1.736 C40.301,1.210 40.591,0.648 41.117,0.480 C41.642,0.312 42.206,0.602 42.374,1.128 C42.374,1.128 50.085,25.294 50.085,25.294 C50.253,25.820 49.963,26.383 49.437,26.550 C49.336,26.583 49.233,26.598 49.132,26.598 Z" id="path-11" class="cls-9" fill-rule="evenodd"/>
    <path d="M31.784,26.598 C31.442,26.598 31.108,26.423 30.922,26.107 C30.922,26.107 21.069,9.443 21.069,9.443 C20.788,8.968 20.945,8.354 21.421,8.073 C21.896,7.792 22.510,7.950 22.790,8.425 C22.790,8.425 32.644,25.089 32.644,25.089 C32.925,25.564 32.767,26.178 32.291,26.459 C32.132,26.553 31.957,26.598 31.784,26.598 Z" id="path-12" class="cls-9" fill-rule="evenodd"/>
    <path d="M34.568,32.012 C34.229,32.012 33.899,31.840 33.711,31.528 C33.711,31.528 30.994,27.023 30.994,27.023 C30.709,26.550 30.861,25.935 31.334,25.650 C31.806,25.365 32.421,25.517 32.707,25.990 C32.707,25.990 35.424,30.496 35.424,30.496 C35.709,30.969 35.557,31.583 35.084,31.868 C34.922,31.966 34.744,32.012 34.568,32.012 Z" id="path-13" class="cls-9" fill-rule="evenodd"/>
    <path d="M36.919,32.362 C36.919,32.362 31.851,32.362 31.851,32.362 C31.298,32.362 30.851,31.915 30.851,31.362 C30.851,30.810 31.298,30.363 31.851,30.363 C31.851,30.363 36.919,30.363 36.919,30.363 C37.472,30.363 37.919,30.810 37.919,31.362 C37.919,31.915 37.472,32.362 36.919,32.362 Z" id="path-14" class="cls-9" fill-rule="evenodd"/>
    <path d="M21.930,9.103 C21.377,9.103 20.930,8.655 20.930,8.103 C20.930,8.103 20.930,4.835 20.930,4.835 C20.930,4.282 21.377,3.835 21.930,3.835 C22.482,3.835 22.930,4.282 22.930,4.835 C22.930,4.835 22.930,8.103 22.930,8.103 C22.930,8.655 22.482,9.103 21.930,9.103 Z" id="path-15" class="cls-9" fill-rule="evenodd"/>
    <path d="M25.143,5.124 C25.143,5.124 18.288,5.124 18.288,5.124 C17.736,5.124 17.288,4.676 17.288,4.124 C17.288,3.571 17.736,3.124 18.288,3.124 C18.288,3.124 25.143,3.124 25.143,3.124 C25.695,3.124 26.143,3.571 26.143,4.124 C26.143,4.676 25.695,5.124 25.143,5.124 Z" id="path-16" class="cls-9" fill-rule="evenodd"/>
    <path d="M37.068,4.731 C36.516,4.731 36.068,4.283 36.068,3.731 C36.068,0.094 39.551,0.094 41.421,0.094 C41.821,0.094 42.232,0.076 42.640,0.058 C44.225,-0.010 45.864,-0.081 46.862,0.875 C47.373,1.365 47.632,2.037 47.632,2.875 C47.632,3.427 47.184,3.875 46.632,3.875 C46.080,3.875 45.632,3.427 45.632,2.875 C45.632,2.604 45.581,2.417 45.479,2.319 C45.097,1.954 43.783,2.011 42.726,2.056 C42.290,2.076 41.850,2.094 41.421,2.094 C38.399,2.094 38.068,2.618 38.068,3.731 C38.068,4.283 37.621,4.731 37.068,4.731 Z" id="path-17" class="cls-9" fill-rule="evenodd"/>
  </g>
</svg>
