<svg xmlns="http://www.w3.org/2000/svg" xmlns:xlink="http://www.w3.org/1999/xlink" preserveAspectRatio="xMidYMid" width="60" height="49" viewBox="0 0 60 49">
  <defs>
    <style>

      .cls-3 {
        fill: #2476ff;
      }

      .cls-4 {
        fill: #000000;
        opacity: 0.35;
      }
    </style>
  </defs>
  <g id="group-319svg">
    <path d="M20.000,49.263 C13.610,49.263 7.112,47.433 0.682,43.821 C0.142,43.518 -0.110,42.873 0.080,42.283 C0.271,41.694 0.830,41.332 1.472,41.388 C6.304,41.951 11.409,40.802 15.233,38.555 C10.811,37.516 7.237,34.645 5.352,30.474 C5.140,30.008 5.222,29.461 5.561,29.076 C5.894,28.691 6.432,28.539 6.921,28.689 C7.478,28.862 8.047,28.982 8.597,29.048 C5.242,27.046 1.647,23.209 1.647,17.464 C1.647,16.960 1.937,16.501 2.391,16.287 C2.847,16.068 3.385,16.134 3.774,16.453 C4.192,16.794 4.641,17.079 5.102,17.304 C4.142,16.002 3.308,14.387 2.834,12.563 C1.966,9.215 2.468,5.827 4.287,2.763 C4.503,2.393 4.891,2.156 5.316,2.125 C5.733,2.079 6.156,2.275 6.426,2.612 C10.266,7.409 17.088,13.204 28.061,14.265 C27.859,10.792 28.901,5.101 33.695,2.301 C39.552,-1.123 45.297,-0.675 50.143,3.572 C52.303,3.091 55.714,1.611 56.420,1.117 C56.873,0.801 57.467,0.803 57.915,1.114 C58.363,1.427 58.570,1.988 58.430,2.518 C58.104,3.748 57.367,5.113 56.447,6.336 C57.176,6.120 57.788,5.901 58.114,5.733 C58.639,5.465 59.272,5.578 59.675,6.010 C60.073,6.446 60.129,7.091 59.815,7.590 C58.279,10.015 55.801,12.275 54.142,13.498 C54.807,21.639 51.513,30.602 45.236,37.636 C38.541,45.133 29.581,49.263 20.005,49.263 C20.005,49.263 20.000,49.263 20.000,49.263 Z" id="path-1" class="cls-3" fill-rule="evenodd"/>
    <path d="M47.542,4.379 C48.311,4.207 49.238,3.907 50.146,3.572 C46.761,0.687 42.944,-0.320 39.560,0.165 C42.020,0.536 45.372,2.476 47.542,4.379 Z" id="path-2" class="cls-4" fill-rule="evenodd"/>
    <path d="M28.145,14.816 C28.135,14.639 28.130,14.452 28.127,14.265 C19.219,14.104 10.261,7.729 6.426,2.612 C6.167,2.267 5.733,2.079 5.316,2.125 C4.891,2.156 4.503,2.393 4.287,2.763 C4.097,3.081 3.931,3.406 3.769,3.732 C9.552,13.646 18.015,13.838 28.145,14.816 Z" id="path-3" class="cls-4" fill-rule="evenodd"/>
    <path d="M59.675,6.010 C59.272,5.578 58.639,5.465 58.114,5.733 C57.788,5.901 57.176,6.120 56.447,6.336 C57.367,5.113 58.104,3.748 58.430,2.518 C58.570,1.988 58.363,1.427 57.915,1.114 C57.467,0.803 56.873,0.801 56.420,1.117 C56.171,1.290 55.577,1.589 54.831,1.921 C54.872,2.115 54.883,2.317 54.830,2.518 C54.503,3.748 53.767,5.113 52.848,6.336 C53.576,6.120 54.187,5.901 54.514,5.733 C55.039,5.465 55.673,5.578 56.075,6.010 C56.473,6.446 56.529,7.091 56.216,7.590 C54.679,10.015 52.201,12.275 50.542,13.498 C51.207,21.639 47.913,30.602 41.636,37.636 C35.392,44.628 27.178,48.687 18.332,49.204 C18.888,49.231 19.445,49.263 20.000,49.263 C20.000,49.263 20.005,49.263 20.005,49.263 C29.581,49.263 38.541,45.133 45.236,37.636 C51.513,30.602 54.807,21.639 54.142,13.498 C55.801,12.275 58.279,10.015 59.815,7.590 C60.129,7.091 60.073,6.446 59.675,6.010 Z" id="path-4" class="cls-4" fill-rule="evenodd"/>
  </g>
</svg>
