<svg xmlns="http://www.w3.org/2000/svg" xmlns:xlink="http://www.w3.org/1999/xlink" preserveAspectRatio="xMidYMid" width="60" height="60" viewBox="0 0 60 60">
  <defs>
    <style>

      .cls-3 {
        fill: #142a3b;
      }

      .cls-4 {
        fill: #ff3a2f;
      }

      .cls-5 {
        fill: #010101;
        opacity: 0.45;
      }

      .cls-6 {
        fill: #010101;
        opacity: 0.35;
      }

      .cls-7 {
        fill: #2476ff;
      }

      .cls-8 {
        fill: #ffffff;
      }
    </style>
  </defs>
  <g id="group-89svg">
    <path d="M13.781,60.017 C10.260,60.018 6.741,58.686 4.061,56.024 C1.437,53.416 -0.008,49.943 -0.008,46.246 C-0.007,42.593 1.411,39.172 3.987,36.612 C6.909,33.709 9.973,32.362 13.358,32.521 C13.358,32.521 16.750,29.150 16.750,29.150 C17.142,28.761 17.774,28.763 18.165,29.154 C18.554,29.547 18.552,30.179 18.160,30.569 C18.160,30.569 14.119,34.584 14.119,34.584 C14.119,34.584 13.658,34.545 13.658,34.545 C10.710,34.292 8.011,35.433 5.397,38.031 C3.202,40.213 1.993,43.130 1.992,46.246 C1.992,49.407 3.228,52.376 5.471,54.605 C10.055,59.160 17.516,59.157 22.102,54.600 C24.612,52.105 25.801,49.145 25.540,46.040 C25.540,46.040 25.501,45.576 25.501,45.576 C25.501,45.576 29.391,41.712 29.391,41.712 C29.782,41.323 30.414,41.324 30.805,41.716 C31.194,42.108 31.192,42.741 30.801,43.130 C30.801,43.130 27.564,46.346 27.564,46.346 C27.724,49.884 26.330,53.219 23.513,56.018 C20.829,58.684 17.305,60.017 13.781,60.017 Z" id="path-1" class="cls-3" fill-rule="evenodd"/>
    <path d="M45.480,41.351 C45.480,41.351 17.919,13.963 17.919,13.963 C16.437,12.491 13.801,12.724 12.320,14.196 C10.838,15.668 10.603,18.289 12.085,19.760 C12.085,19.760 18.191,25.829 18.191,25.829 C18.191,25.829 15.274,28.727 15.274,28.727 C15.274,28.727 30.832,44.187 30.832,44.187 C30.832,44.187 33.749,41.289 33.749,41.289 C33.749,41.289 39.646,47.149 39.646,47.149 C41.128,48.621 43.765,48.388 45.246,46.916 C46.727,45.444 46.962,42.824 45.480,41.351 Z" id="path-2" class="cls-4" fill-rule="evenodd"/>
    <path d="M18.422,25.876 C18.422,25.876 17.899,26.396 17.899,26.396 C17.899,26.396 31.952,43.093 31.952,43.093 C31.952,43.093 33.850,41.207 33.850,41.207 C33.850,41.207 18.422,25.876 18.422,25.876 Z" id="path-3" class="cls-5" fill-rule="evenodd"/>
    <path d="M45.480,41.370 C45.480,41.370 17.919,13.981 17.919,13.981 C16.981,13.049 15.581,12.805 14.304,13.122 C14.304,13.122 39.980,38.637 39.980,38.637 C41.462,40.109 41.227,42.729 39.746,44.201 C39.202,44.742 38.502,45.111 37.762,45.295 C37.762,45.295 39.646,47.168 39.646,47.168 C41.128,48.640 43.765,48.407 45.246,46.934 C46.727,45.462 46.962,42.843 45.480,41.370 Z" id="path-4" class="cls-6" fill-rule="evenodd"/>
    <path d="M56.136,19.493 C60.937,14.721 60.448,6.630 54.961,2.346 C51.693,-0.206 47.174,-0.646 43.357,0.987 C38.185,3.201 36.193,8.229 36.705,12.766 C36.993,15.323 35.957,17.856 34.125,19.675 C34.125,19.675 28.887,24.881 28.887,24.881 C28.887,24.881 34.722,30.679 34.722,30.679 C34.722,30.679 40.086,25.347 40.086,25.347 C41.938,23.507 44.519,22.710 47.132,22.882 C50.309,23.091 53.640,21.974 56.136,19.493 Z" id="path-5" class="cls-7" fill-rule="evenodd"/>
    <path d="M41.695,9.776 C41.509,9.776 41.321,9.741 41.138,9.667 C40.369,9.360 39.995,8.487 40.303,7.718 C41.473,4.795 44.083,2.756 47.116,2.394 C47.940,2.298 48.685,2.884 48.783,3.706 C48.881,4.529 48.294,5.275 47.472,5.374 C45.559,5.602 43.838,6.959 43.088,8.832 C42.853,9.419 42.290,9.776 41.695,9.776 Z" id="path-6" class="cls-8" fill-rule="evenodd"/>
    <path d="M54.961,2.346 C53.384,1.115 51.515,0.387 49.575,0.134 C50.011,0.385 50.434,0.665 50.835,0.980 C56.322,5.264 56.812,13.355 52.010,18.126 C49.515,20.607 46.184,21.724 43.007,21.515 C40.394,21.343 37.812,22.141 35.961,23.981 C35.961,23.981 31.971,27.946 31.971,27.946 C31.971,27.946 34.722,30.679 34.722,30.679 C34.722,30.679 40.086,25.347 40.086,25.347 C41.938,23.507 44.519,22.710 47.133,22.882 C50.309,23.091 53.640,21.974 56.136,19.493 C60.937,14.721 60.448,6.631 54.961,2.346 Z" id="path-7" class="cls-6" fill-rule="evenodd"/>
  </g>
</svg>
