<svg xmlns="http://www.w3.org/2000/svg" xmlns:xlink="http://www.w3.org/1999/xlink" preserveAspectRatio="xMidYMid" width="46" height="60" viewBox="0 0 46 60">
  <defs>
    <style>

      .cls-3 {
        fill: #142a3b;
      }

      .cls-5 {
        fill: #020403;
        opacity: 0.35;
      }

      .cls-6 {
        fill: #ff3a2f;
      }

      .cls-10 {
        fill: #020403;
        opacity: 0.45;
      }

      .cls-11 {
        fill: #ffe56d;
      }

      .cls-13 {
        fill: #ffffff;
      }
    </style>
  </defs>
  <g id="group-43svg">
    <path d="M38.631,52.014 C38.631,52.014 27.958,37.577 27.958,37.577 C27.958,37.577 27.120,38.198 27.120,38.198 C27.120,38.198 31.914,44.684 31.914,44.684 C31.914,44.684 15.164,44.684 15.164,44.684 C15.164,44.684 19.958,38.198 19.958,38.198 C19.958,38.198 19.119,37.577 19.119,37.577 C19.119,37.577 3.844,58.241 3.844,58.241 C3.844,58.241 4.683,58.862 4.683,58.862 C4.683,58.862 14.290,45.865 14.290,45.865 C14.290,45.865 14.290,45.865 14.290,45.865 C14.290,45.865 32.787,45.865 32.787,45.865 C32.787,45.865 37.791,52.634 37.791,52.634 C37.791,52.634 38.631,52.014 38.631,52.014 Z" id="path-1" class="cls-3" fill-rule="evenodd"/>
    <path d="M23.813,41.019 C15.051,41.019 7.948,33.916 7.948,25.154 C7.948,25.154 39.679,25.154 39.679,25.154 C39.679,33.916 32.576,41.019 23.813,41.019 Z" id="path-2" class="cls-3" fill-rule="evenodd"/>
    <path d="M7.948,25.154 C7.948,26.217 8.057,26.219 8.256,27.223 C8.256,27.223 32.437,29.292 32.437,29.292 C32.437,34.409 30.005,37.913 26.244,40.814 C33.850,39.642 39.679,33.088 39.679,25.154 C39.679,25.154 7.948,25.154 7.948,25.154 Z" id="path-3" class="cls-5" fill-rule="evenodd"/>
    <path d="M42.393,25.849 C42.393,25.849 5.234,25.849 5.234,25.849 C4.682,25.849 4.234,25.401 4.234,24.849 C4.234,24.297 4.682,23.849 5.234,23.849 C5.234,23.849 42.393,23.849 42.393,23.849 C42.945,23.849 43.393,24.297 43.393,24.849 C43.393,25.401 42.945,25.849 42.393,25.849 Z" id="path-4" class="cls-6" fill-rule="evenodd"/>
    <path d="M36.294,57.279 C37.409,59.644 40.228,60.657 42.592,59.543 C44.956,58.429 45.969,55.609 44.855,53.245 C43.741,50.881 40.921,49.868 38.558,50.982 C36.194,52.096 35.181,54.916 36.294,57.279 ZM39.579,53.150 C40.746,52.600 42.138,53.100 42.687,54.267 C43.238,55.434 42.737,56.825 41.571,57.376 C40.404,57.926 39.012,57.425 38.462,56.258 C37.912,55.091 38.412,53.699 39.579,53.150 Z" id="path-5" class="cls-6" fill-rule="evenodd"/>
    <path d="M-0.004,59.995 C-0.004,59.995 9.139,59.995 9.139,59.995 C9.139,59.995 9.139,58.011 9.139,58.011 C9.139,58.011 -0.004,58.011 -0.004,58.011 C-0.004,58.011 -0.004,59.995 -0.004,59.995 Z" id="path-6" class="cls-6" fill-rule="evenodd"/>
    <path d="M33.927,6.912 C33.467,6.576 32.985,6.264 32.484,5.976 C32.744,4.535 32.125,3.172 30.995,2.837 C30.995,2.837 28.108,1.979 28.108,1.979 C26.959,1.638 25.674,2.472 25.119,3.860 C24.542,3.839 23.968,3.849 23.398,3.891 C23.398,3.891 23.875,2.285 23.875,2.285 C24.346,0.700 25.743,-0.296 26.981,0.072 C26.981,0.072 32.980,1.854 32.980,1.854 C34.218,2.221 34.846,3.819 34.375,5.404 C34.375,5.404 33.927,6.912 33.927,6.912 Z" id="path-7" class="cls-6" fill-rule="evenodd"/>
    <path d="M21.026,31.019 C21.463,31.151 21.910,31.258 22.365,31.342 C22.552,32.499 23.382,33.363 24.325,33.316 C24.325,33.316 26.732,33.194 26.732,33.194 C27.690,33.146 28.438,32.175 28.488,30.979 C28.929,30.840 29.361,30.681 29.779,30.498 C29.779,30.498 29.847,31.837 29.847,31.837 C29.913,33.159 29.123,34.283 28.091,34.334 C28.091,34.334 23.087,34.586 23.087,34.586 C22.055,34.638 21.156,33.599 21.090,32.277 C21.090,32.277 21.026,31.019 21.026,31.019 Z" id="path-8" class="cls-10" fill-rule="evenodd"/>
    <path d="M19.992,28.950 C20.429,29.082 20.875,29.189 21.330,29.273 C21.518,30.430 22.347,31.294 23.290,31.247 C23.290,31.247 25.698,31.126 25.698,31.126 C26.656,31.077 27.404,30.106 27.454,28.909 C27.895,28.772 28.326,28.611 28.745,28.429 C28.745,28.429 28.812,29.768 28.812,29.768 C28.879,31.090 28.089,32.214 27.057,32.265 C27.057,32.265 22.053,32.517 22.053,32.517 C21.021,32.569 20.122,31.530 20.055,30.208 C20.055,30.208 19.992,28.950 19.992,28.950 Z" id="path-9" class="cls-11" fill-rule="evenodd"/>
    <path d="M29.685,4.705 C37.976,7.539 42.400,16.557 39.566,24.849 C39.566,24.849 9.540,14.586 9.540,14.586 C12.374,6.295 21.393,1.870 29.685,4.705 Z" id="path-10" class="cls-3" fill-rule="evenodd"/>
    <path d="M13.355,12.086 C13.239,12.086 13.123,12.046 13.028,11.965 C12.819,11.784 12.796,11.468 12.976,11.260 C15.186,8.700 18.207,6.847 21.483,6.042 C21.751,5.977 22.022,6.141 22.088,6.409 C22.154,6.677 21.990,6.948 21.722,7.013 C18.645,7.769 15.808,9.509 13.733,11.913 C13.635,12.028 13.495,12.086 13.355,12.086 Z" id="path-11" class="cls-13" fill-rule="evenodd"/>
    <path d="M29.685,4.705 C28.588,4.330 27.479,4.090 26.373,3.961 C32.739,7.685 35.826,15.481 33.373,22.732 C33.373,22.732 39.566,24.849 39.566,24.849 C42.400,16.557 37.976,7.539 29.685,4.705 Z" id="path-12" class="cls-5" fill-rule="evenodd"/>
  </g>
</svg>
