<svg xmlns="http://www.w3.org/2000/svg" xmlns:xlink="http://www.w3.org/1999/xlink" preserveAspectRatio="xMidYMid" width="44" height="60" viewBox="0 0 44 60">
  <defs>
    <style>

      .cls-3 {
        fill: #142a3b;
      }

      .cls-4 {
        fill: #000000;
      }

      .cls-5 {
        fill: #000000;
        opacity: 0.35;
      }

      .cls-10 {
        fill: #ededed;
      }

      .cls-15 {
        fill: #fbb713;
      }

      .cls-16 {
        fill: #2476ff;
      }

      .cls-17 {
        fill: #000000;
        opacity: 0.25;
      }
    </style>
  </defs>
  <g id="group-281svg">
    <path d="M11.994,52.597 C11.994,52.597 20.799,52.597 20.799,52.597 C15.562,50.241 11.777,43.472 11.777,35.484 C11.777,31.666 12.642,28.128 14.117,25.216 C14.117,25.216 10.810,25.216 10.810,25.216 C8.211,28.505 6.583,33.220 6.583,38.460 C6.583,44.456 8.716,49.764 11.994,53.037 C11.994,53.037 11.994,52.597 11.994,52.597 Z" id="path-1" class="cls-3" fill-rule="evenodd"/>
    <path d="M11.994,53.037 C11.994,53.037 11.994,52.597 11.994,52.597 C11.994,52.597 11.603,52.597 11.603,52.597 C11.735,52.741 11.857,52.901 11.994,53.037 Z" id="path-2" class="cls-4" fill-rule="evenodd"/>
    <path d="M11.777,35.484 C11.777,31.666 12.642,28.128 14.117,25.216 C14.117,25.216 11.305,25.216 11.305,25.216 C9.830,28.128 8.965,31.666 8.965,35.484 C8.965,43.472 12.749,50.241 17.987,52.597 C17.987,52.597 20.799,52.597 20.799,52.597 C15.562,50.241 11.777,43.472 11.777,35.484 Z" id="path-3" class="cls-5" fill-rule="evenodd"/>
    <path d="M29.922,39.126 C29.922,39.126 29.922,46.057 29.922,46.057 C29.922,46.057 20.749,46.057 20.749,46.057 C20.749,46.057 20.749,47.834 20.749,47.834 C20.749,47.834 34.543,47.834 34.543,47.834 C34.543,47.834 34.543,47.479 34.543,47.479 C34.543,47.479 34.543,46.057 34.543,46.057 C34.543,46.057 34.543,39.126 34.543,39.126 C34.543,39.126 29.922,39.126 29.922,39.126 Z" id="path-4" class="cls-3" fill-rule="evenodd"/>
    <path d="M25.953,56.720 C25.953,56.720 11.025,56.720 11.025,56.720 C11.025,56.720 13.012,46.787 13.012,46.787 C13.510,44.296 15.697,42.503 18.238,42.503 C18.238,42.503 18.238,42.503 18.238,42.503 C20.684,42.503 22.815,44.167 23.408,46.539 C23.408,46.539 25.953,56.720 25.953,56.720 Z" id="path-5" class="cls-3" fill-rule="evenodd"/>
    <path d="M23.408,46.539 C23.052,45.116 22.136,43.956 20.936,43.249 C21.194,43.685 21.406,44.154 21.533,44.664 C21.533,44.664 24.078,54.845 24.078,54.845 C24.078,54.845 11.400,54.845 11.400,54.845 C11.400,54.845 11.025,56.720 11.025,56.720 C11.025,56.720 25.953,56.720 25.953,56.720 C25.953,56.720 23.408,46.539 23.408,46.539 Z" id="path-6" class="cls-5" fill-rule="evenodd"/>
    <path d="M21.489,23.132 C21.489,26.752 18.555,29.687 14.935,29.687 C11.315,29.687 8.380,26.752 8.380,23.132 C8.380,19.512 11.315,16.577 14.935,16.577 C18.555,16.577 21.489,19.512 21.489,23.132 Z" id="path-7" class="cls-3" fill-rule="evenodd"/>
    <path d="M21.510,50.855 C21.510,52.524 20.158,53.876 18.489,53.876 C16.821,53.876 15.468,52.524 15.468,50.855 C15.468,49.187 16.821,47.834 18.489,47.834 C20.158,47.834 21.510,49.187 21.510,50.855 Z" id="path-8" class="cls-10" fill-rule="evenodd"/>
    <path d="M18.184,23.132 C18.184,24.926 16.729,26.380 14.935,26.380 C13.141,26.380 11.686,24.926 11.686,23.132 C11.686,21.338 13.141,19.883 14.935,19.883 C16.729,19.883 18.184,21.338 18.184,23.132 Z" id="path-9" class="cls-10" fill-rule="evenodd"/>
    <path d="M43.784,37.527 C43.784,37.527 20.799,37.527 20.799,37.527 C20.799,37.527 20.799,35.039 20.799,35.039 C20.799,35.039 43.784,35.039 43.784,35.039 C43.784,35.039 43.784,37.527 43.784,37.527 Z" id="path-10" class="cls-3" fill-rule="evenodd"/>
    <path d="M39.519,39.596 C39.519,39.596 25.805,39.596 25.805,39.596 C25.805,39.596 25.805,37.235 25.805,37.235 C25.805,37.235 39.519,37.235 39.519,37.235 C39.519,37.235 39.519,39.596 39.519,39.596 Z" id="path-11" class="cls-3" fill-rule="evenodd"/>
    <path d="M39.519,38.682 C39.519,38.682 25.805,37.745 25.805,37.745 C25.805,37.745 25.805,37.235 25.805,37.235 C25.805,37.235 39.519,37.235 39.519,37.235 C39.519,37.235 39.519,38.682 39.519,38.682 Z" id="path-12" class="cls-5" fill-rule="evenodd"/>
    <path d="M34.753,25.021 C34.753,25.021 26.627,33.147 26.627,33.147 C26.627,33.147 3.741,10.262 3.741,10.262 C3.741,10.262 11.868,2.136 11.868,2.136 C11.868,2.136 34.753,25.021 34.753,25.021 Z" id="path-13" class="cls-15" fill-rule="evenodd"/>
    <path d="M10.213,3.790 C10.213,3.790 5.396,8.607 5.396,8.607 C5.396,8.607 1.614,4.824 1.614,4.824 C1.614,4.824 6.431,0.008 6.431,0.008 C6.431,0.008 10.213,3.790 10.213,3.790 Z" id="path-14" class="cls-16" fill-rule="evenodd"/>
    <path d="M22.296,26.004 C22.296,26.004 5.147,8.855 5.147,8.855 C5.147,8.855 3.741,10.262 3.741,10.262 C3.741,10.262 26.627,33.147 26.627,33.147 C26.627,33.147 34.753,25.021 34.753,25.021 C34.753,25.021 33.347,23.614 33.347,23.614 C33.347,23.614 30.958,26.004 30.958,26.004 C28.566,28.395 24.688,28.395 22.296,26.004 Z" id="path-15" class="cls-17" fill-rule="evenodd"/>
    <path d="M3.726,5.061 C3.726,5.061 2.551,3.887 2.551,3.887 C2.551,3.887 1.614,4.824 1.614,4.824 C1.614,4.824 5.396,8.607 5.396,8.607 C5.396,8.607 10.213,3.790 10.213,3.790 C10.213,3.790 9.275,2.853 9.275,2.853 C9.275,2.853 7.066,5.061 7.066,5.061 C6.143,5.984 4.648,5.984 3.726,5.061 Z" id="path-16" class="cls-5" fill-rule="evenodd"/>
    <path d="M34.585,28.163 C34.585,28.163 29.768,32.979 29.768,32.979 C29.768,32.979 28.254,31.465 28.254,31.465 C28.254,31.465 33.071,26.648 33.071,26.648 C33.071,26.648 34.585,28.163 34.585,28.163 Z" id="path-17" class="cls-16" fill-rule="evenodd"/>
    <path d="M34.128,55.920 C34.128,55.920 2.851,55.920 2.851,55.920 C1.280,55.920 0.007,57.750 0.007,60.007 C0.007,60.007 36.972,60.007 36.972,60.007 C36.972,57.750 35.698,55.920 34.128,55.920 Z" id="path-18" class="cls-3" fill-rule="evenodd"/>
    <path d="M0.007,60.007 C0.007,60.007 36.972,60.007 36.972,60.007 C36.972,59.259 36.821,58.567 36.577,57.964 C36.577,57.964 0.401,57.964 0.401,57.964 C0.157,58.567 0.007,59.259 0.007,60.007 Z" id="path-19" class="cls-5" fill-rule="evenodd"/>
    <path d="M9.491,19.481 C9.491,19.481 19.865,27.525 19.865,27.525 C20.334,26.844 19.865,27.525 20.334,26.844 C20.334,26.844 11.223,17.732 11.223,17.732 C10.542,18.201 9.953,18.795 9.491,19.481 Z" id="path-20" class="cls-5" fill-rule="evenodd"/>
    <path d="M34.543,41.751 C34.543,41.751 29.984,40.813 29.984,40.813 C29.984,40.813 29.984,39.596 29.984,39.596 C29.984,39.596 34.543,39.596 34.543,39.596 C34.543,39.596 34.543,41.751 34.543,41.751 Z" id="path-21" class="cls-5" fill-rule="evenodd"/>
    <path d="M33.284,26.847 C33.284,26.847 29.106,32.317 29.106,32.317 C29.106,32.317 28.239,31.417 28.239,31.417 C28.239,31.417 33.046,26.610 33.046,26.610 C33.046,26.610 33.284,26.847 33.284,26.847 Z" id="path-22" class="cls-5" fill-rule="evenodd"/>
    <path d="M27.646,22.001 C27.391,22.001 27.135,21.904 26.940,21.709 C26.940,21.709 14.762,9.563 14.762,9.563 C14.371,9.173 14.370,8.540 14.760,8.149 C15.149,7.758 15.783,7.757 16.174,8.147 C16.174,8.147 28.352,20.293 28.352,20.293 C28.743,20.683 28.744,21.316 28.354,21.707 C28.159,21.903 27.902,22.001 27.646,22.001 Z" id="path-23" class="cls-10" fill-rule="evenodd"/>
  </g>
</svg>
