<svg xmlns="http://www.w3.org/2000/svg" xmlns:xlink="http://www.w3.org/1999/xlink" preserveAspectRatio="xMidYMid" width="61" height="45" viewBox="0 0 61 45">
  <defs>
    <style>

      .cls-3 {
        fill: #142a3b;
      }

      .cls-4 {
        fill: #ededed;
      }

      .cls-5 {
        fill: #000000;
        opacity: 0.35;
      }

      .cls-7 {
        fill: #fbb713;
      }
    </style>
  </defs>
  <g id="group-269svg">
    <path d="M2.603,39.275 C2.603,39.275 2.603,4.220 2.603,4.220 C2.603,1.896 4.356,0.014 6.517,0.014 C6.517,0.014 53.473,0.014 53.473,0.014 C55.633,0.014 57.386,1.896 57.386,4.220 C57.386,4.220 57.386,39.275 57.386,39.275 C57.386,39.275 57.386,39.275 57.386,39.275 " id="path-1" class="cls-3" fill-rule="evenodd"/>
    <path d="M52.169,31.318 C52.169,31.318 29.995,31.318 29.995,31.318 C29.995,31.318 7.821,31.318 7.821,31.318 C7.821,31.318 7.821,5.231 7.821,5.231 C7.821,5.231 52.169,5.231 52.169,5.231 C52.169,5.231 52.169,31.318 52.169,31.318 Z" id="path-2" class="cls-4" fill-rule="evenodd"/>
    <path d="M9.696,7.106 C9.696,7.106 52.169,7.106 52.169,7.106 C52.169,7.106 52.169,5.231 52.169,5.231 C52.169,5.231 7.821,5.231 7.821,5.231 C7.821,5.231 7.821,31.318 7.821,31.318 C7.821,31.318 9.696,31.318 9.696,31.318 C9.696,31.318 9.696,7.106 9.696,7.106 Z" id="path-3" class="cls-5" fill-rule="evenodd"/>
    <path d="M57.386,35.597 C57.386,35.597 35.579,35.597 35.579,35.597 C35.579,35.597 35.579,38.207 35.579,38.207 C35.579,38.207 22.536,38.207 22.536,38.207 C22.536,38.207 22.536,35.597 22.536,35.597 C22.536,35.597 2.603,35.597 2.603,35.597 C2.603,35.597 2.603,39.275 2.603,39.275 C2.603,39.275 57.386,39.275 57.386,39.275 C57.386,39.275 57.386,35.597 57.386,35.597 Z" id="path-4" class="cls-5" fill-rule="evenodd"/>
    <path d="M36.517,36.535 C36.517,36.535 36.517,39.144 36.517,39.144 C36.517,39.144 23.473,39.144 23.473,39.144 C23.473,39.144 23.473,36.535 23.473,36.535 C23.473,36.535 -0.005,36.535 -0.005,36.535 C-0.005,36.535 -0.005,41.753 -0.005,41.753 C-0.005,43.193 1.164,44.361 2.603,44.361 C2.603,44.361 57.386,44.361 57.386,44.361 C58.828,44.361 59.995,43.193 59.995,41.753 C59.995,41.753 59.995,36.535 59.995,36.535 C59.995,36.535 36.517,36.535 36.517,36.535 Z" id="path-5" class="cls-7" fill-rule="evenodd"/>
    <path d="M58.120,36.535 C58.120,36.535 58.120,39.878 58.120,39.878 C58.120,41.318 56.953,42.486 55.511,42.486 C55.511,42.486 0.728,42.486 0.728,42.486 C0.505,42.486 0.291,42.450 0.084,42.397 C0.373,43.524 1.388,44.361 2.603,44.361 C2.603,44.361 57.386,44.361 57.386,44.361 C58.828,44.361 59.995,43.193 59.995,41.753 C59.995,41.753 59.995,36.535 59.995,36.535 C59.995,36.535 58.120,36.535 58.120,36.535 Z" id="path-6" class="cls-5" fill-rule="evenodd"/>
  </g>
</svg>
