<svg xmlns="http://www.w3.org/2000/svg" xmlns:xlink="http://www.w3.org/1999/xlink" preserveAspectRatio="xMidYMid" width="61" height="60" viewBox="0 0 61 60">
  <defs>
    <style>

      .cls-3 {
        fill: #fbb713;
      }

      .cls-4 {
        fill: #ffffff;
      }

      .cls-5 {
        fill: #020403;
        opacity: 0.25;
      }

      .cls-7 {
        fill: #ff3a2f;
      }

      .cls-8 {
        fill: #020403;
        opacity: 0.35;
      }

      .cls-10 {
        fill: #142a3b;
      }

      .cls-11 {
        fill: #020403;
      }
    </style>
  </defs>
  <g id="group-72svg">
    <path d="M17.731,49.174 C17.731,49.174 14.860,49.174 14.860,49.174 C9.762,49.174 5.918,45.035 5.918,39.547 C5.918,39.547 5.918,30.737 5.918,30.737 C5.918,30.057 6.468,29.508 7.147,29.508 C7.147,29.508 26.814,29.508 26.814,29.508 C27.494,29.508 28.043,30.057 28.043,30.737 C28.043,30.737 28.043,39.547 28.043,39.547 C28.043,44.675 23.225,49.174 17.731,49.174 Z" id="path-1" class="cls-3" fill-rule="evenodd"/>
    <path d="M9.458,42.908 C8.906,42.908 8.458,42.460 8.458,41.908 C8.458,41.908 8.458,33.097 8.458,33.097 C8.458,31.867 9.458,30.868 10.687,30.868 C11.240,30.868 11.687,31.315 11.687,31.867 C11.687,32.420 11.240,32.867 10.687,32.867 C10.561,32.867 10.458,32.971 10.458,33.097 C10.458,33.097 10.458,41.908 10.458,41.908 C10.458,42.460 10.010,42.908 9.458,42.908 Z" id="path-2" class="cls-4" fill-rule="evenodd"/>
    <path d="M26.814,29.508 C26.814,29.508 22.143,29.508 22.143,29.508 C22.143,29.508 22.143,37.187 22.143,37.187 C22.143,42.315 17.325,46.814 11.831,46.814 C11.831,46.814 8.960,46.814 8.960,46.814 C8.932,46.814 8.906,46.810 8.879,46.810 C10.441,48.291 12.514,49.174 14.860,49.174 C14.860,49.174 17.731,49.174 17.731,49.174 C23.225,49.174 28.043,44.675 28.043,39.547 C28.043,39.547 28.043,30.737 28.043,30.737 C28.043,30.057 27.494,29.508 26.814,29.508 Z" id="path-3" class="cls-5" fill-rule="evenodd"/>
    <path d="M7.263,42.799 C7.263,42.799 3.953,42.799 3.953,42.799 C2.130,42.799 0.001,41.585 0.001,38.162 C0.001,38.162 0.001,35.603 0.001,35.603 C0.001,32.180 2.130,30.966 3.953,30.966 C3.953,30.966 6.887,30.966 6.887,30.966 C6.887,30.966 7.263,42.799 7.263,42.799 ZM3.953,32.966 C3.063,32.966 2.001,33.424 2.001,35.603 C2.001,35.603 2.001,38.162 2.001,38.162 C2.001,40.342 3.063,40.799 3.953,40.799 C3.953,40.799 5.199,40.799 5.199,40.799 C5.199,40.799 4.950,32.966 4.950,32.966 C4.950,32.966 3.953,32.966 3.953,32.966 Z" id="path-4" class="cls-3" fill-rule="evenodd"/>
    <path d="M58.772,59.007 C58.772,59.007 2.230,59.007 2.230,59.007 C1.551,59.007 1.001,58.458 1.001,57.779 C1.001,57.779 1.001,47.945 1.001,47.945 C1.001,47.266 1.551,46.716 2.230,46.716 C2.230,46.716 30.085,46.716 30.085,46.716 C30.085,46.716 36.846,19.674 36.846,19.674 C36.846,19.674 2.230,19.674 2.230,19.674 C1.551,19.674 1.001,19.125 1.001,18.445 C1.001,18.445 1.001,1.237 1.001,1.237 C1.001,0.557 1.551,0.007 2.230,0.007 C2.230,0.007 58.772,0.007 58.772,0.007 C59.452,0.007 60.001,0.557 60.001,1.237 C60.001,1.237 60.001,57.779 60.001,57.779 C60.001,58.458 59.452,59.007 58.772,59.007 Z" id="path-5" class="cls-7" fill-rule="evenodd"/>
    <path d="M2.689,19.674 C2.689,19.674 39.290,19.674 39.290,19.674 C39.290,19.674 40.505,16.134 40.505,16.134 C40.505,16.134 1.001,16.134 1.001,16.134 C1.001,16.134 1.001,18.445 1.001,18.445 C1.001,19.125 1.756,19.674 2.689,19.674 Z" id="path-6" class="cls-8" fill-rule="evenodd"/>
    <path d="M58.772,0.007 C58.772,0.007 52.921,0.007 52.921,0.007 C52.921,0.007 52.921,54.239 52.921,54.239 C52.921,54.918 52.372,55.468 51.692,55.468 C51.692,55.468 1.001,55.468 1.001,55.468 C1.001,55.468 1.001,57.779 1.001,57.779 C1.001,58.458 1.551,59.007 2.230,59.007 C2.230,59.007 58.772,59.007 58.772,59.007 C59.452,59.007 60.001,58.458 60.001,57.779 C60.001,57.779 60.001,1.237 60.001,1.237 C60.001,0.557 59.452,0.007 58.772,0.007 Z" id="path-7" class="cls-5" fill-rule="evenodd"/>
    <path d="M18.210,24.591 C18.210,24.591 15.751,24.591 15.751,24.591 C15.751,24.591 15.751,19.674 15.751,19.674 C15.751,19.674 18.210,19.674 18.210,19.674 C18.210,19.674 18.210,24.591 18.210,24.591 Z" id="path-8" class="cls-10" fill-rule="evenodd"/>
    <path d="M55.036,56.451 C55.036,56.451 45.202,56.451 45.202,56.451 C44.523,56.451 43.973,55.901 43.973,55.222 C43.973,55.222 43.973,50.305 43.973,50.305 C43.973,49.626 44.523,49.076 45.202,49.076 C45.202,49.076 55.036,49.076 55.036,49.076 C55.715,49.076 56.265,49.626 56.265,50.305 C56.265,50.305 56.265,55.222 56.265,55.222 C56.265,55.901 55.715,56.451 55.036,56.451 Z" id="path-9" class="cls-11" fill-rule="evenodd"/>
    <path d="M53.855,54.091 C53.855,54.091 44.022,54.091 44.022,54.091 C43.343,54.091 42.793,53.541 42.793,52.862 C42.793,52.862 42.793,47.945 42.793,47.945 C42.793,47.266 43.343,46.716 44.022,46.716 C44.022,46.716 53.855,46.716 53.855,46.716 C54.535,46.716 55.085,47.266 55.085,47.945 C55.085,47.945 55.085,52.862 55.085,52.862 C55.085,53.541 54.535,54.091 53.855,54.091 Z" id="path-10" class="cls-10" fill-rule="evenodd"/>
  </g>
</svg>
