<svg xmlns="http://www.w3.org/2000/svg" xmlns:xlink="http://www.w3.org/1999/xlink" preserveAspectRatio="xMidYMid" width="60" height="34" viewBox="0 0 60 34">
  <defs>
    <style>

      .cls-3 {
        fill: #142a3b;
      }

      .cls-4 {
        fill: #fbb713;
      }

      .cls-6 {
        fill: #ff3a2f;
      }

      .cls-7 {
        fill: #020403;
        opacity: 0.35;
      }

      .cls-8 {
        fill: #ffffff;
      }
    </style>
  </defs>
  <g id="group-48svg">
    <path d="M19.943,23.837 C19.943,23.837 -0.010,23.837 -0.010,23.837 C-0.010,23.837 -0.010,21.279 -0.010,21.279 C-0.010,21.279 19.943,21.279 19.943,21.279 C19.943,21.279 19.943,23.837 19.943,23.837 Z" id="path-1" class="cls-3" fill-rule="evenodd"/>
    <path d="M28.250,7.826 C28.250,7.826 28.250,-0.015 28.250,-0.015 C28.250,-0.015 30.985,-0.015 30.985,-0.015 C30.985,-0.015 30.985,7.826 30.985,7.826 C30.985,7.826 28.250,7.826 28.250,7.826 Z" id="path-2" class="cls-4" fill-rule="evenodd"/>
    <path d="M59.990,23.837 C59.990,23.837 40.036,23.837 40.036,23.837 C40.036,23.837 40.036,21.279 40.036,21.279 C40.036,21.279 59.990,21.279 59.990,21.279 C59.990,21.279 59.990,23.837 59.990,23.837 Z" id="path-3" class="cls-3" fill-rule="evenodd"/>
    <path d="M42.436,18.209 C42.436,25.272 36.709,30.999 29.645,30.999 C22.581,30.999 16.854,25.272 16.854,18.209 C16.854,11.144 29.645,4.218 29.645,4.218 C29.645,4.218 42.436,11.144 42.436,18.209 Z" id="path-4" class="cls-6" fill-rule="evenodd"/>
    <path d="M42.373,17.384 C42.362,17.307 42.349,17.229 42.335,17.152 C42.298,16.937 42.251,16.723 42.193,16.509 C42.175,16.444 42.161,16.379 42.142,16.315 C42.061,16.046 41.967,15.779 41.857,15.513 C41.833,15.454 41.804,15.396 41.778,15.338 C41.684,15.123 41.582,14.910 41.471,14.698 C41.431,14.620 41.390,14.542 41.347,14.465 C41.217,14.230 41.079,13.997 40.930,13.766 C40.912,13.737 40.895,13.707 40.877,13.679 C40.709,13.422 40.528,13.167 40.340,12.915 C40.286,12.842 40.229,12.769 40.173,12.696 C40.024,12.504 39.871,12.313 39.713,12.125 C39.657,12.058 39.603,11.991 39.546,11.925 C39.338,11.683 39.124,11.443 38.903,11.209 C38.860,11.163 38.816,11.119 38.773,11.075 C38.585,10.877 38.393,10.683 38.198,10.492 C38.130,10.425 38.062,10.358 37.994,10.293 C37.789,10.096 37.583,9.903 37.374,9.713 C37.338,9.681 37.304,9.648 37.269,9.616 C37.021,9.394 36.772,9.178 36.521,8.966 C36.466,8.919 36.410,8.872 36.353,8.826 C36.146,8.652 35.939,8.483 35.732,8.316 C35.678,8.274 35.624,8.229 35.570,8.187 C35.058,7.781 34.550,7.399 34.059,7.045 C34.015,7.013 33.971,6.982 33.928,6.951 C33.692,6.783 33.460,6.618 33.235,6.464 C33.229,6.459 33.224,6.455 33.218,6.451 C32.969,6.280 32.727,6.117 32.495,5.963 C31.699,5.435 31.008,5.010 30.508,4.713 C30.508,4.713 30.508,4.713 30.508,4.713 C30.376,4.635 30.258,4.566 30.154,4.505 C30.141,4.498 30.130,4.492 30.118,4.484 C30.030,4.434 29.952,4.389 29.887,4.353 C29.875,4.346 29.864,4.340 29.852,4.333 C29.799,4.303 29.754,4.277 29.721,4.260 C29.713,4.255 29.701,4.248 29.694,4.245 C29.667,4.230 29.645,4.218 29.645,4.218 C29.645,4.218 29.604,4.240 29.542,4.275 C29.489,4.304 29.423,4.341 29.330,4.395 C29.328,4.395 29.325,4.397 29.324,4.398 C29.257,4.436 29.182,4.479 29.097,4.529 C29.180,4.588 29.266,4.652 29.349,4.713 C29.349,4.713 28.783,4.713 28.783,4.713 C28.091,5.124 27.037,5.779 25.837,6.615 C25.837,6.615 31.776,6.615 31.776,6.615 C34.786,9.174 37.636,12.473 37.636,15.808 C37.636,22.872 31.910,28.599 24.846,28.599 C23.738,28.599 22.669,28.444 21.643,28.179 C22.138,28.576 22.667,28.932 23.217,29.254 C23.283,29.292 23.346,29.335 23.413,29.373 C23.613,29.485 23.820,29.584 24.027,29.686 C24.170,29.756 24.312,29.829 24.458,29.893 C24.646,29.977 24.838,30.052 25.031,30.128 C25.208,30.196 25.385,30.263 25.566,30.323 C25.745,30.383 25.926,30.440 26.109,30.493 C26.317,30.552 26.528,30.606 26.741,30.655 C26.908,30.695 27.074,30.734 27.243,30.766 C27.496,30.814 27.752,30.851 28.009,30.883 C28.147,30.901 28.284,30.924 28.424,30.937 C28.826,30.975 29.233,30.999 29.645,30.999 C33.619,30.999 37.169,29.187 39.516,26.344 C39.776,26.029 40.022,25.700 40.252,25.360 C41.631,23.319 42.436,20.857 42.436,18.209 C42.436,17.934 42.410,17.659 42.373,17.384 Z" id="path-5" class="cls-7" fill-rule="evenodd"/>
    <path d="M19.922,23.296 C19.504,23.296 19.115,23.033 18.974,22.616 C18.497,21.199 18.255,19.716 18.255,18.209 C18.255,16.489 18.909,14.669 20.198,12.801 C20.511,12.347 21.134,12.233 21.588,12.546 C22.043,12.861 22.157,13.483 21.843,13.938 C20.789,15.465 20.255,16.902 20.255,18.209 C20.255,19.499 20.461,20.767 20.870,21.977 C21.046,22.500 20.765,23.067 20.241,23.243 C20.135,23.280 20.028,23.296 19.922,23.296 Z" id="path-6" class="cls-8" fill-rule="evenodd"/>
    <path d="M39.878,5.771 C39.878,5.771 19.925,5.771 19.925,5.771 C19.925,5.771 19.925,3.213 19.925,3.213 C19.925,3.213 39.878,3.213 39.878,3.213 C39.878,3.213 39.878,5.771 39.878,5.771 Z" id="path-7" class="cls-3" fill-rule="evenodd"/>
    <path d="M14.827,28.441 C14.827,30.984 12.766,33.046 10.222,33.046 C7.679,33.046 5.618,30.984 5.618,28.441 C5.618,25.898 7.679,23.837 10.222,23.837 C12.766,23.837 14.827,25.898 14.827,28.441 Z" id="path-8" class="cls-4" fill-rule="evenodd"/>
    <path d="M10.222,23.837 C8.644,23.837 7.253,24.632 6.424,25.842 C7.163,25.335 8.058,25.036 9.022,25.036 C11.565,25.036 13.627,27.098 13.627,29.641 C13.627,30.606 13.328,31.499 12.820,32.240 C14.031,31.410 14.827,30.019 14.827,28.441 C14.827,25.898 12.766,23.837 10.222,23.837 Z" id="path-9" class="cls-7" fill-rule="evenodd"/>
    <path d="M54.873,28.441 C54.873,30.984 52.812,33.046 50.269,33.046 C47.726,33.046 45.664,30.984 45.664,28.441 C45.664,25.898 47.726,23.837 50.269,23.837 C52.812,23.837 54.873,25.898 54.873,28.441 Z" id="path-10" class="cls-4" fill-rule="evenodd"/>
    <path d="M50.269,23.837 C48.690,23.837 47.300,24.632 46.470,25.842 C47.210,25.335 48.104,25.036 49.069,25.036 C51.612,25.036 53.673,27.098 53.673,29.641 C53.673,30.606 53.374,31.499 52.867,32.240 C54.078,31.410 54.874,30.019 54.874,28.441 C54.874,25.898 52.811,23.837 50.269,23.837 Z" id="path-11" class="cls-7" fill-rule="evenodd"/>
    <path d="M36.026,18.186 C36.026,18.186 23.105,18.186 23.105,18.186 C23.105,18.186 23.105,16.185 23.105,16.185 C23.105,16.185 36.026,16.185 36.026,16.185 C36.026,16.185 36.026,18.186 36.026,18.186 Z" id="path-12" class="cls-3" fill-rule="evenodd"/>
  </g>
</svg>
