<svg xmlns="http://www.w3.org/2000/svg" xmlns:xlink="http://www.w3.org/1999/xlink" preserveAspectRatio="xMidYMid" width="61" height="48" viewBox="0 0 61 48">
  <defs>
    <style>

      .cls-3 {
        fill: #2476ff;
      }

      .cls-4 {
        fill: #ededed;
      }

      .cls-5 {
        fill: #ff3a2f;
      }

      .cls-6 {
        fill: #000000;
        opacity: 0.35;
      }

      .cls-7 {
        fill: #142a3b;
      }
    </style>
  </defs>
  <g id="group-227svg">
    <path d="M13.548,20.470 C13.548,20.470 13.548,20.440 13.548,20.440 C13.548,20.440 33.168,20.440 33.168,20.440 C33.168,20.440 33.168,3.745 33.168,3.745 C33.168,3.745 57.122,3.745 57.122,3.745 C57.122,3.745 57.122,40.155 57.122,40.155 C57.122,40.155 51.556,40.155 51.556,40.155 C51.556,40.155 33.168,40.155 33.168,40.155 C33.168,40.155 24.497,40.155 24.497,40.155 C24.497,40.155 13.548,40.155 13.548,40.155 C13.548,40.155 3.742,40.155 3.742,40.155 C2.482,38.155 1.743,35.773 1.743,33.210 C1.743,26.356 6.980,20.780 13.548,20.470 Z" id="path-1" class="cls-3" fill-rule="evenodd"/>
    <path d="M4.669,33.427 C4.117,33.427 3.669,32.979 3.669,32.427 C3.669,26.912 7.829,22.385 13.166,22.050 C13.755,21.933 14.367,22.399 14.367,23.019 C14.367,23.019 14.367,23.973 14.367,23.973 C14.367,23.973 13.414,24.040 13.414,24.040 C9.071,24.245 5.669,27.929 5.669,32.427 C5.669,32.979 5.222,33.427 4.669,33.427 Z" id="path-2" class="cls-4" fill-rule="evenodd"/>
    <path d="M44.047,40.155 C44.133,33.444 49.593,28.029 56.324,28.029 C56.593,28.029 56.857,28.052 57.122,28.069 C57.122,28.069 57.122,40.155 57.122,40.155 C57.122,40.155 51.556,40.155 51.556,40.155 C51.556,40.155 44.047,40.155 44.047,40.155 Z" id="path-3" class="cls-5" fill-rule="evenodd"/>
    <path d="M9.184,34.700 C9.184,34.700 20.133,34.700 20.133,34.700 C20.133,34.700 28.805,34.700 28.805,34.700 C28.805,34.700 49.373,34.700 49.373,34.700 C49.373,34.700 49.373,34.700 49.373,34.700 C52.448,34.700 52.759,34.390 52.759,31.315 C52.759,31.315 52.759,9.999 52.759,9.999 C52.759,9.999 33.168,6.620 33.168,6.620 C33.168,6.620 57.122,6.620 57.122,6.620 C57.122,6.620 57.122,40.155 57.122,40.155 C57.122,40.155 51.556,40.155 51.556,40.155 C51.556,40.155 33.168,40.155 33.168,40.155 C33.168,40.155 24.497,40.155 24.497,40.155 C24.497,40.155 13.548,40.155 13.548,40.155 C13.548,40.155 3.742,40.155 3.742,40.155 C2.731,38.549 2.063,36.695 1.836,34.700 C1.836,34.700 9.184,34.700 9.184,34.700 Z" id="path-4" class="cls-6" fill-rule="evenodd"/>
    <path d="M59.997,38.558 C59.997,38.558 59.997,46.862 59.997,46.862 C59.997,46.862 53.290,46.862 53.290,46.862 C53.290,46.862 53.290,44.626 53.290,44.626 C53.290,44.626 50.096,44.626 50.096,44.626 C50.096,44.626 50.096,46.862 50.096,46.862 C50.096,46.862 44.347,46.862 44.347,46.862 C44.347,46.862 44.347,44.626 44.347,44.626 C44.347,44.626 41.153,44.626 41.153,44.626 C41.153,44.626 41.153,46.862 41.153,46.862 C41.153,46.862 35.404,46.862 35.404,46.862 C35.404,46.862 35.404,44.626 35.404,44.626 C35.404,44.626 32.210,44.626 32.210,44.626 C32.210,44.626 32.210,46.862 32.210,46.862 C32.210,46.862 26.461,46.862 26.461,46.862 C26.461,46.862 26.461,44.626 26.461,44.626 C26.461,44.626 23.268,44.626 23.268,44.626 C23.268,44.626 23.268,46.862 23.268,46.862 C23.268,46.862 17.519,46.862 17.519,46.862 C17.519,46.862 17.519,44.626 17.519,44.626 C17.519,44.626 14.324,44.626 14.324,44.626 C14.324,44.626 14.324,46.862 14.324,46.862 C14.324,46.862 8.576,46.862 8.576,46.862 C8.576,46.862 8.576,44.626 8.576,44.626 C8.576,44.626 5.382,44.626 5.382,44.626 C5.382,44.626 5.382,46.862 5.382,46.862 C5.382,46.862 -0.003,46.862 -0.003,46.862 C-0.003,46.862 -0.003,38.558 -0.003,38.558 C-0.003,38.558 59.997,38.558 59.997,38.558 Z" id="path-5" class="cls-7" fill-rule="evenodd"/>
    <path d="M55.472,46.862 C55.472,46.862 53.290,46.862 53.290,46.862 C53.290,46.862 53.290,44.626 53.290,44.626 C53.290,44.626 55.472,44.626 55.472,44.626 C55.472,44.626 55.472,46.862 55.472,46.862 Z" id="path-6" class="cls-6" fill-rule="evenodd"/>
    <path d="M37.586,46.862 C37.586,46.862 35.404,46.862 35.404,46.862 C35.404,46.862 35.404,44.626 35.404,44.626 C35.404,44.626 37.586,44.626 37.586,44.626 C37.586,44.626 37.586,46.862 37.586,46.862 Z" id="path-7" class="cls-6" fill-rule="evenodd"/>
    <path d="M28.643,46.862 C28.643,46.862 26.461,46.862 26.461,46.862 C26.461,46.862 26.461,44.626 26.461,44.626 C26.461,44.626 28.643,44.626 28.643,44.626 C28.643,44.626 28.643,46.862 28.643,46.862 Z" id="path-8" class="cls-6" fill-rule="evenodd"/>
    <path d="M46.529,46.862 C46.529,46.862 44.347,46.862 44.347,46.862 C44.347,46.862 44.347,44.626 44.347,44.626 C44.347,44.626 46.529,44.626 46.529,44.626 C46.529,44.626 46.529,46.862 46.529,46.862 Z" id="path-9" class="cls-6" fill-rule="evenodd"/>
    <path d="M19.700,46.862 C19.700,46.862 17.519,46.862 17.519,46.862 C17.519,46.862 17.519,44.626 17.519,44.626 C17.519,44.626 19.700,44.626 19.700,44.626 C19.700,44.626 19.700,46.862 19.700,46.862 Z" id="path-10" class="cls-6" fill-rule="evenodd"/>
    <path d="M10.757,46.862 C10.757,46.862 8.576,46.862 8.576,46.862 C8.576,46.862 8.576,44.626 8.576,44.626 C8.576,44.626 10.757,44.626 10.757,44.626 C10.757,44.626 10.757,46.862 10.757,46.862 Z" id="path-11" class="cls-6" fill-rule="evenodd"/>
    <path d="M29.997,6.620 C29.997,6.620 59.997,6.620 59.997,6.620 C59.997,6.620 59.997,-0.005 59.997,-0.005 C59.997,-0.005 29.997,-0.005 29.997,-0.005 C29.997,-0.005 29.997,6.620 29.997,6.620 Z" id="path-12" class="cls-7" fill-rule="evenodd"/>
    <path d="M52.663,6.620 C52.663,6.620 59.997,6.620 59.997,6.620 C59.997,6.620 59.997,-0.005 59.997,-0.005 C59.997,-0.005 52.663,-0.005 52.663,-0.005 C52.663,-0.005 52.663,6.620 52.663,6.620 Z" id="path-13" class="cls-6" fill-rule="evenodd"/>
  </g>
</svg>
