<svg xmlns="http://www.w3.org/2000/svg" xmlns:xlink="http://www.w3.org/1999/xlink" preserveAspectRatio="xMidYMid" width="46" height="60" viewBox="0 0 46 60">
  <defs>
    <style>

      .cls-3 {
        fill: #2476ff;
      }

      .cls-5 {
        fill: #142a3b;
      }

      .cls-7 {
        fill: #020403;
        opacity: 0.35;
      }

      .cls-8 {
        fill: #ffffff;
      }
    </style>
  </defs>
  <g id="group-147svg">
    <path d="M14.875,42.469 C14.875,42.469 -0.003,42.469 -0.003,42.469 C-0.003,42.469 5.890,27.943 5.890,27.943 C5.890,27.943 -0.003,13.468 -0.003,13.468 C-0.003,13.468 14.875,13.468 14.875,13.468 C14.875,13.468 14.875,42.469 14.875,42.469 Z" id="path-1" class="cls-3" fill-rule="evenodd"/>
    <path d="M41.875,44.468 C41.875,44.468 14.875,44.468 14.875,44.468 C14.875,44.468 14.875,10.469 14.875,10.469 C14.875,10.469 41.875,10.469 41.875,10.469 C41.875,10.469 41.875,44.468 41.875,44.468 Z" id="path-2" class="cls-3" fill-rule="evenodd"/>
    <path d="M40.875,60.468 C40.323,60.468 39.875,60.021 39.875,59.469 C39.875,59.469 39.875,8.469 39.875,8.469 C39.875,7.917 40.323,7.469 40.875,7.469 C41.427,7.469 41.875,7.917 41.875,8.469 C41.875,8.469 41.875,59.469 41.875,59.469 C41.875,60.021 41.427,60.468 40.875,60.468 Z" id="path-3" class="cls-5" fill-rule="evenodd"/>
    <path d="M38.442,8.952 C38.730,9.076 39.033,9.173 39.345,9.238 C39.350,9.238 42.180,9.122 42.180,9.122 C43.827,8.396 44.978,6.659 44.981,4.740 C44.976,2.149 42.885,0.007 40.292,0.003 C37.704,0.007 35.610,2.079 35.607,4.671 C35.609,6.601 36.776,8.233 38.442,8.952 Z" id="path-4" class="cls-3" fill-rule="evenodd"/>
    <path d="M39.350,0.051 C38.359,0.904 37.719,2.150 37.717,3.568 C37.719,5.499 38.886,7.131 40.552,7.849 C40.840,7.973 41.142,8.070 41.454,8.135 C41.458,8.136 42.780,8.082 43.617,8.047 C43.205,8.477 42.723,8.835 42.180,9.075 C42.180,9.075 39.350,9.191 39.345,9.190 C39.033,9.125 38.730,9.028 38.442,8.904 C36.776,8.186 35.609,6.554 35.607,4.623 C35.610,2.354 37.214,0.485 39.350,0.051 Z" id="path-5" class="cls-7" fill-rule="evenodd"/>
    <path d="M40.173,4.436 C40.832,5.094 41.899,5.094 42.558,4.436 C43.216,3.777 43.216,2.710 42.558,2.051 C41.899,1.392 40.832,1.392 40.173,2.051 C39.515,2.710 39.515,3.777 40.173,4.436 Z" id="path-6" class="cls-8" fill-rule="evenodd"/>
    <path d="M10.016,42.469 C10.016,42.469 14.585,42.469 14.585,42.469 C14.585,42.469 14.760,13.468 14.760,13.468 C14.760,13.468 12.301,13.468 12.301,13.468 C12.301,13.468 10.016,42.469 10.016,42.469 Z" id="path-7" class="cls-7" fill-rule="evenodd"/>
  </g>
</svg>
