<svg xmlns="http://www.w3.org/2000/svg" xmlns:xlink="http://www.w3.org/1999/xlink" preserveAspectRatio="xMidYMid" width="50" height="61" viewBox="0 0 50 61">
  <defs>
    <style>

      .cls-3 {
        fill: #2476ff;
      }

      .cls-4 {
        fill: #1c5ac1;
      }

      .cls-5 {
        fill: #ededed;
      }
    </style>
  </defs>
  <g id="group-163svg">
    <path d="M6.461,41.014 C6.461,41.014 6.461,41.016 6.461,41.016 C6.461,41.016 6.862,41.440 6.862,41.440 C6.963,41.547 7.059,41.653 7.162,41.758 C7.162,41.758 7.167,41.758 7.167,41.758 C7.167,41.758 24.476,59.989 24.476,59.989 C24.476,59.989 41.777,41.758 41.777,41.758 C41.777,41.758 41.777,41.758 41.777,41.758 C41.798,41.737 41.819,41.714 41.840,41.693 C41.840,41.693 42.148,41.365 42.148,41.365 C42.148,41.365 42.478,41.016 42.478,41.016 C42.478,41.016 42.478,41.014 42.478,41.014 C42.478,41.014 42.491,41.000 42.491,41.000 C46.653,36.464 48.945,30.591 48.945,24.465 C48.945,10.970 37.965,-0.011 24.472,-0.011 C10.975,-0.011 -0.005,10.970 -0.005,24.465 C-0.005,30.588 2.287,36.460 6.449,41.000 C6.449,41.000 6.461,41.014 6.461,41.014 Z" id="path-1" class="cls-3" fill-rule="evenodd"/>
    <path d="M28.019,39.582 C35.066,39.582 40.782,33.869 40.782,26.819 C40.782,19.772 35.066,14.056 28.019,14.056 C20.968,14.056 15.252,19.772 15.252,26.819 C15.252,33.869 20.968,39.582 28.019,39.582 Z" id="path-2" class="cls-4" fill-rule="evenodd"/>
    <path d="M24.472,37.217 C31.519,37.217 37.235,31.504 37.235,24.455 C37.235,17.407 31.519,11.692 24.472,11.692 C17.420,11.692 11.705,17.407 11.705,24.455 C11.705,31.504 17.420,37.217 24.472,37.217 Z" id="path-3" class="cls-5" fill-rule="evenodd"/>
  </g>
</svg>
