<svg xmlns="http://www.w3.org/2000/svg" xmlns:xlink="http://www.w3.org/1999/xlink" preserveAspectRatio="xMidYMid" width="61" height="50" viewBox="0 0 61 50">
  <defs>
    <style>

      .cls-3 {
        fill: #142a3b;
      }

      .cls-5 {
        fill: #060606;
        opacity: 0.35;
      }

      .cls-6 {
        fill: #ededed;
      }
    </style>
  </defs>
  <g id="group-232svg">
    <path d="M59.987,19.455 C59.987,19.455 -0.013,19.455 -0.013,19.455 C-0.013,19.455 -0.013,0.013 -0.013,0.013 C-0.013,0.013 59.987,0.013 59.987,0.013 C59.987,0.013 59.987,19.455 59.987,19.455 Z" id="path-1" class="cls-3" fill-rule="evenodd"/>
    <path d="M59.987,38.214 C59.987,38.214 -0.013,38.214 -0.013,38.214 C-0.013,38.214 -0.013,18.773 -0.013,18.773 C-0.013,18.773 59.987,18.773 59.987,18.773 C59.987,18.773 59.987,38.214 59.987,38.214 Z" id="path-2" class="cls-3" fill-rule="evenodd"/>
    <path d="M59.987,22.032 C59.987,22.032 -0.013,19.850 -0.013,19.850 C-0.013,19.850 -0.013,18.773 -0.013,18.773 C-0.013,18.773 59.987,18.773 59.987,18.773 C59.987,18.773 59.987,22.032 59.987,22.032 Z" id="path-3" class="cls-5" fill-rule="evenodd"/>
    <path d="M52.899,9.734 C52.899,10.963 51.902,11.959 50.673,11.959 C49.444,11.959 48.448,10.963 48.448,9.734 C48.448,8.505 49.444,7.509 50.673,7.509 C51.902,7.509 52.899,8.505 52.899,9.734 Z" id="path-4" class="cls-6" fill-rule="evenodd"/>
    <path d="M13.338,9.734 C13.338,10.963 12.342,11.959 11.113,11.959 C9.884,11.959 8.888,10.963 8.888,9.734 C8.888,8.505 9.884,7.509 11.113,7.509 C12.342,7.509 13.338,8.505 13.338,9.734 Z" id="path-5" class="cls-6" fill-rule="evenodd"/>
    <path d="M13.131,8.808 C13.261,9.090 13.338,9.402 13.338,9.734 C13.338,10.963 12.342,11.959 11.113,11.959 C10.781,11.959 10.469,11.882 10.187,11.752 C10.539,12.517 11.307,13.050 12.204,13.050 C13.433,13.050 14.429,12.054 14.429,10.825 C14.429,9.928 13.895,9.159 13.131,8.808 Z" id="path-6" class="cls-5" fill-rule="evenodd"/>
    <path d="M52.899,28.493 C52.899,29.722 51.902,30.719 50.673,30.719 C49.444,30.719 48.448,29.722 48.448,28.493 C48.448,27.265 49.444,26.268 50.673,26.268 C51.902,26.268 52.899,27.265 52.899,28.493 Z" id="path-7" class="cls-6" fill-rule="evenodd"/>
    <path d="M52.691,27.567 C52.821,27.850 52.899,28.162 52.899,28.493 C52.899,29.722 51.902,30.719 50.673,30.719 C50.342,30.719 50.030,30.641 49.747,30.511 C50.099,31.276 50.867,31.810 51.765,31.810 C52.993,31.810 53.990,30.813 53.990,29.584 C53.990,28.687 53.456,27.919 52.691,27.567 Z" id="path-8" class="cls-5" fill-rule="evenodd"/>
    <path d="M52.691,8.880 C52.821,9.162 52.899,9.475 52.899,9.806 C52.899,11.035 51.902,12.031 50.673,12.031 C50.342,12.031 50.030,11.954 49.747,11.824 C50.099,12.589 50.867,13.122 51.765,13.122 C52.993,13.122 53.990,12.126 53.990,10.897 C53.990,10.000 53.456,9.232 52.691,8.880 Z" id="path-9" class="cls-5" fill-rule="evenodd"/>
    <path d="M12.873,27.567 C13.003,27.850 13.081,28.162 13.081,28.493 C13.081,29.722 12.084,30.719 10.855,30.719 C10.524,30.719 10.212,30.641 9.929,30.511 C10.281,31.276 11.049,31.810 11.946,31.810 C13.175,31.810 14.172,30.813 14.172,29.584 C14.172,28.687 13.638,27.919 12.873,27.567 Z" id="path-10" class="cls-5" fill-rule="evenodd"/>
    <path d="M13.338,28.493 C13.338,29.722 12.342,30.719 11.113,30.719 C9.884,30.719 8.888,29.722 8.888,28.493 C8.888,27.265 9.884,26.268 11.113,26.268 C12.342,26.268 13.338,27.265 13.338,28.493 Z" id="path-11" class="cls-6" fill-rule="evenodd"/>
    <path d="M46.800,49.319 C46.800,49.319 44.851,49.319 44.851,49.319 C44.851,49.319 44.851,36.358 44.851,36.358 C44.851,36.358 46.800,36.358 46.800,36.358 C46.800,36.358 46.800,49.319 46.800,49.319 Z" id="path-12" class="cls-3" fill-rule="evenodd"/>
    <path d="M17.129,49.319 C17.129,49.319 15.180,49.319 15.180,49.319 C15.180,49.319 15.180,36.358 15.180,36.358 C15.180,36.358 17.129,36.358 17.129,36.358 C17.129,36.358 17.129,49.319 17.129,49.319 Z" id="path-13" class="cls-3" fill-rule="evenodd"/>
  </g>
</svg>
