<svg xmlns="http://www.w3.org/2000/svg" xmlns:xlink="http://www.w3.org/1999/xlink" preserveAspectRatio="xMidYMid" width="60" height="60" viewBox="0 0 60 60">
  <defs>
    <style>

      .cls-3 {
        fill: #142a3b;
      }

      .cls-4 {
        fill: #ff3a2f;
      }

      .cls-5 {
        fill: #010101;
        opacity: 0.35;
      }

      .cls-6 {
        fill: #0cb04a;
      }
    </style>
  </defs>
  <g id="group-77svg">
    <path d="M2.028,59.996 C2.028,59.996 -0.008,57.960 -0.008,57.960 C-0.008,57.960 35.366,22.586 35.366,22.586 C35.366,22.586 37.402,24.622 37.402,24.622 C37.402,24.622 2.028,59.996 2.028,59.996 Z" id="path-1" class="cls-3" fill-rule="evenodd"/>
    <path d="M27.731,34.293 C27.731,34.293 25.696,32.257 25.696,32.257 C25.696,32.257 35.366,22.586 35.366,22.586 C35.366,22.586 37.402,24.622 37.402,24.622 C37.402,24.622 27.731,34.293 27.731,34.293 Z" id="path-2" class="cls-4" fill-rule="evenodd"/>
    <path d="M34.027,27.997 C34.027,27.997 33.534,24.418 33.534,24.418 C33.534,24.418 35.366,22.586 35.366,22.586 C35.366,22.586 37.402,24.622 37.402,24.622 C37.402,24.622 34.027,27.997 34.027,27.997 Z" id="path-3" class="cls-5" fill-rule="evenodd"/>
    <path d="M48.600,35.820 C48.600,35.820 24.169,11.388 24.169,11.388 C24.169,11.388 28.750,6.808 28.750,6.808 C28.750,6.808 53.181,31.239 53.181,31.239 C53.181,31.239 48.600,35.820 48.600,35.820 Z" id="path-4" class="cls-6" fill-rule="evenodd"/>
    <path d="M50.890,33.529 C50.890,33.529 27.230,8.327 27.230,8.327 C27.230,8.327 28.750,6.808 28.750,6.808 C28.750,6.808 53.181,31.239 53.181,31.239 C53.181,31.239 50.890,33.529 50.890,33.529 Z" id="path-5" class="cls-5" fill-rule="evenodd"/>
    <path d="M58.203,36.651 C58.203,36.651 23.338,1.785 23.338,1.785 C23.338,1.785 25.127,-0.004 25.127,-0.004 C25.127,-0.004 59.992,34.861 59.992,34.861 C59.992,34.861 58.203,36.651 58.203,36.651 Z" id="path-6" class="cls-4" fill-rule="evenodd"/>
  </g>
</svg>
