<svg xmlns="http://www.w3.org/2000/svg" xmlns:xlink="http://www.w3.org/1999/xlink" preserveAspectRatio="xMidYMid" width="60" height="56" viewBox="0 0 60 56">
  <defs>
    <style>

      .cls-3 {
        fill: #ff3a2f;
      }

      .cls-4 {
        fill: #000000;
        opacity: 0.35;
      }

      .cls-5 {
        fill: #ffffff;
      }

      .cls-6 {
        fill: #fbb713;
      }
    </style>
  </defs>
  <g id="group-20svg">
    <path d="M29.551,29.542 C20.699,38.394 8.854,40.902 3.095,35.142 C-2.665,29.383 -0.157,17.538 8.695,8.686 C17.547,-0.166 29.392,-2.674 35.151,3.086 C40.911,8.845 38.403,20.690 29.551,29.542 Z" id="path-1" class="cls-3" fill-rule="evenodd"/>
    <path d="M35.151,3.086 C29.392,-2.674 17.547,-0.166 8.695,8.686 C-0.157,17.538 -2.665,29.383 3.095,35.142 C3.095,35.142 12.839,34.184 17.575,20.260 C17.575,20.260 19.932,4.949 32.820,5.544 C32.820,5.544 35.151,3.086 35.151,3.086 Z" id="path-2" class="cls-4" fill-rule="evenodd"/>
    <path d="M6.075,20.567 C5.926,20.567 5.774,20.533 5.631,20.462 C5.137,20.217 4.935,19.617 5.181,19.122 C6.746,15.973 8.891,13.024 11.557,10.358 C14.300,7.616 17.466,5.343 20.713,3.790 C21.209,3.553 21.808,3.761 22.046,4.261 C22.285,4.759 22.074,5.356 21.576,5.595 C18.531,7.051 15.556,9.188 12.971,11.772 C10.494,14.249 8.419,17.099 6.972,20.012 C6.797,20.363 6.443,20.567 6.075,20.567 Z" id="path-3" class="cls-5" fill-rule="evenodd"/>
    <path d="M54.026,50.447 C48.635,55.840 41.420,57.367 37.913,53.859 C34.405,50.351 35.932,43.137 41.324,37.746 C46.715,32.354 53.929,30.827 57.437,34.335 C60.944,37.843 59.417,45.057 54.026,50.447 Z" id="path-4" class="cls-6" fill-rule="evenodd"/>
    <path d="M57.437,34.335 C53.929,30.827 46.715,32.354 41.324,37.746 C35.932,43.137 34.405,50.351 37.913,53.859 C37.913,53.859 43.848,53.275 46.732,44.795 C46.732,44.795 48.167,35.470 56.017,35.832 C56.017,35.832 57.437,34.335 57.437,34.335 Z" id="path-5" class="cls-4" fill-rule="evenodd"/>
    <path d="M56.559,10.230 C60.061,13.732 61.052,18.418 58.774,20.696 C56.496,22.974 51.810,21.982 48.309,18.480 C44.807,14.979 43.815,10.293 46.093,8.015 C48.371,5.737 53.057,6.728 56.559,10.230 Z" id="path-6" class="cls-3" fill-rule="evenodd"/>
    <path d="M46.093,8.015 C43.815,10.293 44.807,14.979 48.309,18.480 C51.810,21.982 56.496,22.974 58.774,20.696 C58.774,20.696 58.395,16.841 52.887,14.968 C52.887,14.968 46.830,14.036 47.065,8.937 C47.065,8.937 46.093,8.015 46.093,8.015 Z" id="path-7" class="cls-4" fill-rule="evenodd"/>
  </g>
</svg>
