<?xml version="1.0" encoding="utf-8"?>
<!-- Generator: Adobe Illustrator 15.0.0, SVG Export Plug-In . SVG Version: 6.00 Build 0)  -->
<!DOCTYPE svg PUBLIC "-//W3C//DTD SVG 1.1//EN" "http://www.w3.org/Graphics/SVG/1.1/DTD/svg11.dtd">
<svg version="1.1" id="Layer_1" xmlns="http://www.w3.org/2000/svg" xmlns:xlink="http://www.w3.org/1999/xlink" x="0px" y="0px"
	 width="26.983px" height="28.206px" viewBox="0 0 26.983 28.206" enable-background="new 0 0 26.983 28.206" xml:space="preserve">
<g>
	<g>
		<path opacity="0.1" fill-rule="evenodd" clip-rule="evenodd" d="M4.65,2.828c6.058-1.073,12.048-1.088,17.97,0
			c1.895,0.348,3.135,1.61,3.5,3.501c1.158,5.99,1.141,11.98,0,17.97c-0.359,1.893-1.582,3.326-3.5,3.502
			c-5.922,0.544-11.913,0.537-17.97,0c-1.918-0.171-3.285-1.588-3.501-3.502c-0.675-5.989-0.812-11.979,0-17.97
			C1.407,4.422,2.755,3.164,4.65,2.828z"/>
		<path fill-rule="evenodd" clip-rule="evenodd" fill="#E6E6E6" d="M4.06,1.465c6.058-1.073,12.049-1.087,17.969,0
			c1.895,0.349,3.137,1.611,3.502,3.502c1.158,5.99,1.141,11.979,0,17.97c-0.359,1.892-1.584,3.325-3.502,3.501
			c-5.922,0.544-11.912,0.537-17.969,0c-1.918-0.17-3.285-1.588-3.501-3.501c-0.675-5.99-0.812-11.979,0-17.97
			C0.817,3.059,2.164,1.802,4.06,1.465z"/>
		<path fill-rule="evenodd" clip-rule="evenodd" fill="#FFFFFF" d="M4.06,0.811c6.058-1.073,12.049-1.088,17.969,0
			c1.895,0.349,3.137,1.611,3.502,3.502c1.158,5.99,1.141,11.979,0,17.969c-0.359,1.893-1.584,3.325-3.502,3.502
			c-5.922,0.544-11.912,0.537-17.969,0c-1.918-0.17-3.285-1.588-3.501-3.502c-0.675-5.989-0.812-11.979,0-17.969
			C0.817,2.404,2.164,1.147,4.06,0.811z"/>
		<path fill-rule="evenodd" clip-rule="evenodd" fill="#E6E6E6" d="M5.4,2.551c5.431-0.963,10.802-0.975,16.113,0
			c1.699,0.313,2.813,1.444,3.141,3.14c1.037,5.371,1.021,10.743,0,16.114c-0.324,1.696-1.42,2.98-3.141,3.139
			c-5.311,0.488-10.682,0.482-16.113,0c-1.721-0.151-2.947-1.424-3.14-3.139c-0.605-5.372-0.728-10.742,0-16.114
			C2.492,3.979,3.699,2.853,5.4,2.551z"/>
		<path fill-rule="evenodd" clip-rule="evenodd" fill="#00B0DC" d="M5.004,2.08c5.432-0.963,10.804-0.976,16.113,0
			c1.699,0.312,2.813,1.443,3.141,3.139c1.037,5.371,1.021,10.743,0,16.114c-0.324,1.696-1.42,2.981-3.141,3.14
			c-5.311,0.488-10.681,0.481-16.113,0c-1.72-0.152-2.946-1.424-3.14-3.14c-0.604-5.372-0.728-10.742,0-16.114
			C2.096,3.509,3.304,2.381,5.004,2.08z"/>
		<path fill-rule="evenodd" clip-rule="evenodd" fill="#99FFFF" d="M5.004,0.99c5.432-0.963,10.804-0.977,16.113,0
			c1.699,0.312,2.813,1.443,3.141,3.139c1.037,5.372,1.021,10.743,0,16.114c-0.324,1.695-1.42,2.981-3.141,3.14
			c-5.311,0.487-10.681,0.48-16.113,0c-1.72-0.153-2.946-1.424-3.14-3.14c-0.604-5.371-0.728-10.742,0-16.114
			C2.096,2.418,3.304,1.291,5.004,0.99z"/>
		<g>
			<path fill-rule="evenodd" clip-rule="evenodd" fill="#8BFAFF" d="M5.112,1.135c5.359-0.949,10.661-0.962,15.901,0
				c1.676,0.308,2.773,1.426,3.098,3.099c1.023,5.3,1.008,10.6,0,15.9c-0.318,1.673-1.4,2.942-3.098,3.098
				c-5.24,0.481-10.542,0.476-15.901,0c-1.697-0.15-2.907-1.405-3.098-3.098c-0.597-5.301-0.718-10.601,0-15.9
				C2.243,2.545,3.435,1.433,5.112,1.135z"/>
			<path fill-rule="evenodd" clip-rule="evenodd" fill="#7DF6FF" d="M5.221,1.281c5.288-0.938,10.517-0.949,15.687,0
				c1.654,0.304,2.738,1.406,3.057,3.056c1.01,5.229,0.996,10.458,0,15.688c-0.314,1.651-1.383,2.903-3.057,3.056
				c-5.17,0.476-10.399,0.47-15.687,0c-1.674-0.147-2.868-1.385-3.057-3.056c-0.589-5.229-0.708-10.458,0-15.688
				C2.39,2.672,3.565,1.574,5.221,1.281z"/>
			<path fill-rule="evenodd" clip-rule="evenodd" fill="#6FF1FF" d="M5.329,1.427c5.216-0.925,10.375-0.937,15.473,0
				c1.631,0.3,2.701,1.387,3.016,3.015c0.996,5.158,0.982,10.316,0,15.474c-0.311,1.63-1.363,2.863-3.016,3.016
				c-5.1,0.468-10.257,0.462-15.473,0c-1.651-0.146-2.829-1.367-3.015-3.016c-0.581-5.157-0.699-10.315,0-15.474
				C2.537,2.799,3.696,1.717,5.329,1.427z"/>
			<path fill-rule="evenodd" clip-rule="evenodd" fill="#61ECFF" d="M5.438,1.572c5.145-0.912,10.232-0.924,15.261,0
				c1.607,0.296,2.662,1.368,2.973,2.974c0.982,5.087,0.969,10.174,0,15.261c-0.305,1.606-1.344,2.823-2.973,2.974
				c-5.029,0.462-10.117,0.456-15.261,0c-1.629-0.146-2.79-1.349-2.973-2.974c-0.573-5.088-0.689-10.174,0-15.261
				C2.684,2.926,3.827,1.857,5.438,1.572z"/>
			<path fill-rule="evenodd" clip-rule="evenodd" fill="#53E8FF" d="M5.546,1.719c5.072-0.9,10.088-0.911,15.047,0
				c1.586,0.291,2.627,1.348,2.932,2.932c0.969,5.016,0.955,10.031,0,15.047c-0.301,1.584-1.326,2.784-2.932,2.932
				c-4.959,0.456-9.975,0.449-15.047,0C3.94,22.486,2.795,21.3,2.614,19.697c-0.564-5.016-0.68-10.031,0-15.047
				C2.831,3.053,3.958,2,5.546,1.719z"/>
			<path fill-rule="evenodd" clip-rule="evenodd" fill="#46E3FF" d="M5.654,1.864c5.001-0.887,9.947-0.897,14.833,0
				c1.564,0.286,2.59,1.329,2.891,2.89c0.955,4.945,0.941,9.89,0,14.834c-0.297,1.563-1.307,2.745-2.891,2.891
				c-4.887,0.449-9.833,0.443-14.833,0c-1.583-0.141-2.712-1.311-2.89-2.891c-0.557-4.944-0.67-9.889,0-14.834
				C2.978,3.18,4.09,2.142,5.654,1.864z"/>
			<path fill-rule="evenodd" clip-rule="evenodd" fill="#38DFFF" d="M5.763,2.01c4.929-0.874,9.803-0.885,14.622,0
				c1.541,0.283,2.551,1.311,2.848,2.849c0.941,4.873,0.928,9.747,0,14.621c-0.293,1.539-1.287,2.705-2.848,2.849
				c-4.818,0.442-9.693,0.437-14.622,0c-1.561-0.139-2.673-1.292-2.849-2.849c-0.548-4.874-0.659-9.748,0-14.621
				C3.125,3.306,4.221,2.283,5.763,2.01z"/>
			<path fill-rule="evenodd" clip-rule="evenodd" fill="#2ADAFF" d="M5.871,2.155c4.856-0.86,9.66-0.871,14.408,0
				c1.52,0.279,2.514,1.292,2.807,2.808c0.928,4.803,0.914,9.604,0,14.407c-0.289,1.517-1.27,2.666-2.807,2.808
				c-4.748,0.436-9.551,0.43-14.408,0c-1.537-0.137-2.634-1.273-2.807-2.808c-0.541-4.803-0.65-9.604,0-14.407
				C3.271,3.433,4.352,2.426,5.871,2.155z"/>
			<path fill-rule="evenodd" clip-rule="evenodd" fill="#1CD5FF" d="M5.979,2.301c4.785-0.848,9.518-0.858,14.194,0
				c1.496,0.275,2.479,1.272,2.766,2.766c0.914,4.732,0.9,9.464,0,14.194c-0.283,1.494-1.25,2.627-2.766,2.767
				c-4.678,0.43-9.409,0.424-14.194,0c-1.515-0.135-2.595-1.255-2.765-2.767c-0.533-4.73-0.642-9.462,0-14.194
				C3.419,3.56,4.482,2.566,5.979,2.301z"/>
			<path fill-rule="evenodd" clip-rule="evenodd" fill="#0ED1FF" d="M6.088,2.447c4.713-0.836,9.375-0.847,13.982,0
				c1.473,0.271,2.439,1.253,2.723,2.724c0.9,4.661,0.887,9.321,0,13.981c-0.279,1.472-1.23,2.587-2.723,2.724
				c-4.607,0.423-9.269,0.418-13.982,0c-1.492-0.132-2.556-1.235-2.724-2.724c-0.524-4.66-0.631-9.32,0-13.981
				C3.565,3.687,4.613,2.709,6.088,2.447z"/>
		</g>
		<path fill-rule="evenodd" clip-rule="evenodd" fill="#00CCFF" d="M6.196,2.594c4.641-0.823,9.231-0.834,13.768,0
			c1.451,0.266,2.402,1.233,2.682,2.682c0.887,4.59,0.873,9.179,0,13.768c-0.275,1.45-1.213,2.548-2.682,2.683
			c-4.537,0.417-9.127,0.412-13.768,0c-1.47-0.13-2.517-1.216-2.683-2.683c-0.517-4.589-0.621-9.178,0-13.768
			C3.712,3.813,4.744,2.852,6.196,2.594z"/>
		<path opacity="0.29" fill-rule="evenodd" clip-rule="evenodd" fill="#FFFFFF" d="M5.004,0.99c5.432-0.963,10.804-0.977,16.113,0
			c1.699,0.312,2.813,1.443,3.141,3.139c0.469,2.432,0.723,4.862,0.766,7.293c-10.07-4.117-16.867,6.872-23.658-0.045
			c0.017-2.416,0.172-4.832,0.499-7.248C2.096,2.418,3.304,1.291,5.004,0.99z"/>
		<circle fill-rule="evenodd" clip-rule="evenodd" fill="#FFFFFF" cx="4.827" cy="3.849" r="2.124"/>
		<circle fill-rule="evenodd" clip-rule="evenodd" fill="#FFFFFF" cx="8.075" cy="1.878" r="1.056"/>
		<circle fill-rule="evenodd" clip-rule="evenodd" fill="#FFFFFF" cx="21.611" cy="21.608" r="1.268"/>
	</g>
	<g>
		<g>
			
				<path fill-rule="evenodd" clip-rule="evenodd" fill="none" stroke="#00B0DC" stroke-width="1.4377" stroke-miterlimit="22.9256" d="
				M15.679,18.27c0.777,0.346,1.447,0.449,1.459-0.943V6.408c0.002-0.875-0.4-1.08-1.111-0.77l-5.476,3.425
				c-0.239,0.149-0.362,0.342-0.362,0.68v4.69c0,0.254,0.113,0.473,0.369,0.633L15.679,18.27L15.679,18.27z M17.537,9.726
				c0.902,0.36,1.539,1.241,1.539,2.271c0,1.03-0.637,1.911-1.539,2.271V9.726L17.537,9.726z M9.197,8.187H7.093
				c-0.34,0-0.618,0.277-0.618,0.618v6.384c0,0.341,0.278,0.618,0.618,0.618h2.104c0.34,0,0.618-0.277,0.618-0.618V8.805
				C9.815,8.464,9.537,8.187,9.197,8.187z"/>
			<path fill-rule="evenodd" clip-rule="evenodd" fill="#FFFFFF" d="M15.679,18.27c0.777,0.346,1.447,0.449,1.459-0.943V6.408
				c0.002-0.875-0.4-1.08-1.111-0.77l-5.476,3.425c-0.239,0.149-0.362,0.342-0.362,0.68v4.69c0,0.254,0.113,0.473,0.369,0.633
				L15.679,18.27L15.679,18.27z M17.537,9.726c0.902,0.36,1.539,1.241,1.539,2.271c0,1.03-0.637,1.911-1.539,2.271V9.726
				L17.537,9.726z M9.197,8.187H7.093c-0.34,0-0.618,0.277-0.618,0.618v6.384c0,0.341,0.278,0.618,0.618,0.618h2.104
				c0.34,0,0.618-0.277,0.618-0.618V8.805C9.815,8.464,9.537,8.187,9.197,8.187z"/>
		</g>
		<path opacity="0.1" fill-rule="evenodd" clip-rule="evenodd" d="M15.679,18.27c0.777,0.346,1.447,0.449,1.459-0.943V6.408
			c0-0.135-0.01-0.253-0.027-0.357c0.018,0.104,0.027,0.223,0.027,0.357v9.601c-0.023,1.359-0.688,1.255-1.459,0.911l-5.122-3.203
			c-0.252-0.157-0.365-0.371-0.369-0.621v1.338c0,0.255,0.113,0.473,0.369,0.633L15.679,18.27L15.679,18.27z M17.072,5.895
			c-0.01-0.029-0.021-0.056-0.031-0.082C17.05,5.839,17.062,5.865,17.072,5.895L17.072,5.895z M17.005,5.746
			c-0.014-0.023-0.029-0.045-0.045-0.065C16.978,5.701,16.992,5.723,17.005,5.746L17.005,5.746z M18.98,11.322
			c0.063,0.214,0.096,0.44,0.096,0.674c0,1.03-0.637,1.911-1.539,2.271v-1.35C18.234,12.64,18.773,12.051,18.98,11.322L18.98,11.322
			z M6.91,8.214C6.877,8.225,6.846,8.237,6.816,8.252C6.846,8.237,6.877,8.225,6.91,8.214L6.91,8.214z M6.765,8.281
			C6.728,8.306,6.693,8.332,6.662,8.362C6.692,8.332,6.728,8.306,6.765,8.281L6.765,8.281z M6.475,13.855v1.333
			c0,0.341,0.278,0.618,0.618,0.618h2.104c0.34,0,0.617-0.277,0.617-0.618v-1.333c-0.009,0.333-0.283,0.602-0.617,0.602H7.093
			C6.758,14.457,6.483,14.188,6.475,13.855z"/>
	</g>
</g>
</svg>
