<?xml version="1.0" encoding="utf-8"?>
<!-- Generator: Adobe Illustrator 15.0.0, SVG Export Plug-In . SVG Version: 6.00 Build 0)  -->
<!DOCTYPE svg PUBLIC "-//W3C//DTD SVG 1.1//EN" "http://www.w3.org/Graphics/SVG/1.1/DTD/svg11.dtd">
<svg version="1.1" id="Layer_1" xmlns="http://www.w3.org/2000/svg" xmlns:xlink="http://www.w3.org/1999/xlink" x="0px" y="0px"
	 width="26.982px" height="28.206px" viewBox="0 0 26.982 28.206" enable-background="new 0 0 26.982 28.206" xml:space="preserve">
<g>
	<g>
		<path opacity="0.1" fill-rule="evenodd" clip-rule="evenodd" d="M4.65,2.828c6.057-1.074,12.047-1.088,17.969,0
			c1.895,0.348,3.137,1.61,3.502,3.501c1.156,5.99,1.139,11.979,0,17.971c-0.361,1.892-1.584,3.324-3.502,3.501
			c-5.922,0.544-11.913,0.537-17.969,0c-1.918-0.17-3.286-1.588-3.501-3.501c-0.675-5.991-0.812-11.98,0-17.971
			C1.407,4.421,2.754,3.164,4.65,2.828z"/>
		<path fill-rule="evenodd" clip-rule="evenodd" fill="#E6E6E6" d="M4.06,1.465c6.058-1.074,12.048-1.088,17.97,0
			c1.895,0.347,3.135,1.61,3.502,3.501c1.156,5.989,1.139,11.979,0,17.97c-0.361,1.892-1.584,3.325-3.502,3.501
			c-5.922,0.544-11.914,0.537-17.97,0c-1.918-0.17-3.285-1.588-3.501-3.501c-0.675-5.99-0.812-11.979,0-17.97
			C0.816,3.058,2.164,1.8,4.06,1.465z"/>
		<path fill-rule="evenodd" clip-rule="evenodd" fill="#FFFFFF" d="M4.06,0.811c6.058-1.074,12.048-1.088,17.97,0
			c1.895,0.347,3.135,1.61,3.502,3.5c1.156,5.99,1.139,11.98,0,17.971c-0.361,1.892-1.584,3.325-3.502,3.501
			c-5.922,0.544-11.914,0.537-17.97,0c-1.918-0.17-3.285-1.588-3.501-3.501c-0.675-5.99-0.812-11.979,0-17.971
			C0.816,2.404,2.164,1.146,4.06,0.811z"/>
		<path fill-rule="evenodd" clip-rule="evenodd" fill="#E6E6E6" d="M5.399,2.55c5.432-0.963,10.804-0.975,16.115,0
			c1.697,0.313,2.811,1.444,3.139,3.141c1.037,5.37,1.021,10.742,0,16.113c-0.322,1.695-1.42,2.981-3.139,3.14
			c-5.311,0.487-10.683,0.481-16.115,0c-1.72-0.153-2.946-1.424-3.14-3.14c-0.604-5.371-0.728-10.743,0-16.113
			C2.492,3.979,3.699,2.852,5.399,2.55z"/>
		<path fill-rule="evenodd" clip-rule="evenodd" fill="#7F7F7F" d="M5.003,2.079c5.432-0.962,10.804-0.975,16.115,0
			c1.697,0.313,2.811,1.445,3.139,3.141c1.037,5.371,1.021,10.742,0,16.112c-0.322,1.697-1.42,2.982-3.139,3.141
			c-5.311,0.487-10.683,0.481-16.115,0c-1.72-0.152-2.945-1.424-3.139-3.141c-0.605-5.37-0.728-10.741,0-16.112
			C2.096,3.507,3.303,2.38,5.003,2.079z"/>
		<path fill-rule="evenodd" clip-rule="evenodd" fill="#B2B2B2" d="M5.003,0.99c5.432-0.963,10.804-0.977,16.115,0
			c1.697,0.312,2.811,1.443,3.139,3.139c1.037,5.371,1.021,10.742,0,16.113c-0.322,1.697-1.42,2.982-3.139,3.141
			c-5.311,0.487-10.683,0.48-16.115,0c-1.72-0.152-2.945-1.424-3.139-3.141c-0.605-5.371-0.728-10.742,0-16.113
			C2.096,2.417,3.303,1.291,5.003,0.99z"/>
		<g>
			<path fill-rule="evenodd" clip-rule="evenodd" fill="#B0B0B0" d="M5.112,1.134c5.359-0.949,10.66-0.962,15.9,0
				c1.676,0.309,2.775,1.426,3.098,3.099c1.025,5.3,1.01,10.601,0,15.899c-0.318,1.675-1.4,2.943-3.098,3.099
				c-5.24,0.481-10.541,0.476-15.9,0c-1.697-0.15-2.907-1.405-3.098-3.099c-0.598-5.3-0.719-10.6,0-15.899
				C2.242,2.544,3.435,1.432,5.112,1.134z"/>
			<path fill-rule="evenodd" clip-rule="evenodd" fill="#ADADAD" d="M5.221,1.281c5.287-0.938,10.518-0.949,15.686,0
				c1.654,0.303,2.738,1.405,3.057,3.057c1.012,5.229,0.996,10.457,0,15.687c-0.314,1.651-1.381,2.902-3.057,3.057
				c-5.168,0.475-10.399,0.469-15.686,0c-1.674-0.148-2.868-1.386-3.057-3.057c-0.589-5.229-0.708-10.458,0-15.687
				C2.39,2.671,3.565,1.574,5.221,1.281z"/>
			<path fill-rule="evenodd" clip-rule="evenodd" fill="#ABABAB" d="M5.329,1.426c5.216-0.925,10.375-0.937,15.474,0
				c1.631,0.3,2.699,1.387,3.014,3.015c0.998,5.158,0.982,10.316,0,15.475c-0.309,1.628-1.363,2.862-3.014,3.014
				c-5.1,0.47-10.258,0.463-15.474,0c-1.651-0.146-2.829-1.367-3.015-3.014c-0.581-5.158-0.699-10.316,0-15.475
				C2.537,2.798,3.696,1.715,5.329,1.426z"/>
			<path fill-rule="evenodd" clip-rule="evenodd" fill="#A9A9A9" d="M5.438,1.572c5.144-0.911,10.231-0.924,15.26,0
				c1.609,0.296,2.664,1.368,2.973,2.974c0.984,5.087,0.969,10.174,0,15.261c-0.305,1.605-1.344,2.823-2.973,2.973
				c-5.029,0.463-10.117,0.456-15.26,0c-1.629-0.145-2.79-1.348-2.974-2.973c-0.572-5.087-0.688-10.174,0-15.261
				C2.684,2.925,3.827,1.857,5.438,1.572z"/>
			<path fill-rule="evenodd" clip-rule="evenodd" fill="#A7A7A7" d="M5.546,1.718c5.072-0.899,10.089-0.911,15.046,0
				c1.586,0.291,2.627,1.348,2.934,2.932c0.969,5.016,0.953,10.031,0,15.047c-0.303,1.584-1.326,2.784-2.934,2.932
				c-4.959,0.456-9.974,0.45-15.046,0c-1.606-0.142-2.751-1.329-2.932-2.932c-0.564-5.016-0.68-10.031,0-15.047
				C2.831,3.052,3.958,1.999,5.546,1.718z"/>
			<path fill-rule="evenodd" clip-rule="evenodd" fill="#A4A4A4" d="M5.654,1.864c5-0.887,9.946-0.898,14.834,0
				c1.563,0.287,2.588,1.329,2.889,2.89c0.957,4.945,0.941,9.89,0,14.834c-0.297,1.563-1.307,2.745-2.889,2.891
				c-4.889,0.449-9.834,0.443-14.834,0c-1.583-0.141-2.712-1.311-2.89-2.891c-0.558-4.944-0.67-9.889,0-14.834
				C2.978,3.179,4.089,2.141,5.654,1.864z"/>
			<path fill-rule="evenodd" clip-rule="evenodd" fill="#A2A2A2" d="M5.763,2.009c4.929-0.873,9.802-0.885,14.621,0
				c1.541,0.283,2.551,1.311,2.85,2.849c0.941,4.874,0.926,9.747,0,14.62c-0.293,1.54-1.289,2.706-2.85,2.85
				c-4.818,0.442-9.693,0.437-14.621,0c-1.561-0.139-2.673-1.292-2.849-2.85c-0.549-4.873-0.66-9.746,0-14.62
				C3.125,3.305,4.22,2.283,5.763,2.009z"/>
			<path fill-rule="evenodd" clip-rule="evenodd" fill="#A0A0A0" d="M5.871,2.155c4.856-0.86,9.661-0.872,14.407,0
				c1.52,0.279,2.516,1.292,2.809,2.808c0.928,4.803,0.914,9.605,0,14.407c-0.289,1.517-1.27,2.666-2.809,2.808
				c-4.748,0.436-9.55,0.43-14.407,0c-1.537-0.137-2.634-1.273-2.807-2.808c-0.541-4.803-0.65-9.604,0-14.407
				C3.271,3.432,4.352,2.425,5.871,2.155z"/>
			<path fill-rule="evenodd" clip-rule="evenodd" fill="#9E9E9E" d="M5.979,2.3c4.785-0.848,9.517-0.859,14.195,0
				c1.496,0.275,2.477,1.272,2.766,2.766c0.914,4.732,0.9,9.463,0,14.194c-0.285,1.495-1.252,2.627-2.766,2.766
				c-4.678,0.431-9.411,0.425-14.195,0c-1.515-0.134-2.595-1.254-2.766-2.766c-0.532-4.731-0.641-9.462,0-14.194
				C3.418,3.559,4.482,2.566,5.979,2.3z"/>
			<path fill-rule="evenodd" clip-rule="evenodd" fill="#9B9B9B" d="M6.088,2.447c4.713-0.835,9.374-0.847,13.981,0
				c1.473,0.271,2.439,1.253,2.725,2.724c0.9,4.661,0.887,9.321,0,13.981c-0.281,1.472-1.232,2.586-2.725,2.724
				c-4.607,0.424-9.268,0.418-13.981,0c-1.492-0.132-2.556-1.235-2.724-2.724c-0.524-4.66-0.632-9.32,0-13.981
				C3.565,3.686,4.613,2.708,6.088,2.447z"/>
		</g>
		<path fill-rule="evenodd" clip-rule="evenodd" fill="#999999" d="M6.196,2.593c4.641-0.823,9.23-0.834,13.767,0
			c1.451,0.266,2.402,1.233,2.684,2.682c0.887,4.59,0.873,9.179,0,13.768c-0.277,1.449-1.215,2.548-2.684,2.684
			c-4.537,0.416-9.126,0.41-13.767,0c-1.47-0.131-2.518-1.217-2.683-2.684c-0.517-4.589-0.621-9.178,0-13.768
			C3.712,3.814,4.744,2.85,6.196,2.593z"/>
		<path opacity="0.29" fill-rule="evenodd" clip-rule="evenodd" fill="#FFFFFF" d="M5.003,0.99c5.432-0.963,10.804-0.977,16.115,0
			c1.697,0.312,2.811,1.443,3.139,3.139c0.471,2.432,0.725,4.862,0.766,7.293C14.954,7.304,8.156,18.293,1.365,11.376
			C1.381,8.96,1.537,6.544,1.864,4.128C2.096,2.417,3.303,1.291,5.003,0.99z"/>
		<circle fill-rule="evenodd" clip-rule="evenodd" fill="#FFFFFF" cx="4.827" cy="3.849" r="2.125"/>
		<circle fill-rule="evenodd" clip-rule="evenodd" fill="#FFFFFF" cx="8.075" cy="1.878" r="1.056"/>
		<circle fill-rule="evenodd" clip-rule="evenodd" fill="#FFFFFF" cx="21.61" cy="21.607" r="1.268"/>
	</g>
	<g>
		<g>
			
				<path fill-rule="evenodd" clip-rule="evenodd" fill="none" stroke="#7F7F7F" stroke-width="1.438" stroke-miterlimit="22.9256" d="
				M10.923,13.986c0.937,0,1.806,0.186,2.525,0.505c-0.717-2.926-1.616-6.733-2.338-9.674c-0.38-1.416,2.829-0.656,4.015,0.103
				c1.188,0.759,1.969,2.777,4.707,2.375c-1.51,1.818-3.744,0.561-5.379,0.275c-0.895-0.156-1.455,0.508-1.309,1.056l1.607,6.753
				c0.42,0.445,0.663,0.969,0.663,1.529c0,1.613-2.01,2.922-4.492,2.922c-2.48,0-4.491-1.309-4.491-2.922
				C6.432,15.293,8.442,13.986,10.923,13.986z"/>
			<path fill-rule="evenodd" clip-rule="evenodd" fill="#FFFFFF" d="M10.923,13.986c0.937,0,1.806,0.186,2.525,0.505
				c-0.717-2.926-1.616-6.733-2.338-9.674c-0.38-1.416,2.829-0.656,4.015,0.103c1.188,0.759,1.969,2.777,4.707,2.375
				c-1.51,1.818-3.744,0.561-5.379,0.275c-0.895-0.156-1.455,0.508-1.309,1.056l1.607,6.753c0.42,0.445,0.663,0.969,0.663,1.529
				c0,1.613-2.01,2.922-4.492,2.922c-2.48,0-4.491-1.309-4.491-2.922C6.432,15.293,8.442,13.986,10.923,13.986z"/>
		</g>
		<path opacity="0.1" fill-rule="evenodd" clip-rule="evenodd" d="M15.184,15.979c-0.137,1.534-2.092,2.751-4.485,2.751
			c-1.981,0-3.664-0.835-4.261-1.994c-0.005,0.057-0.007,0.113-0.007,0.172c0,0.787,0.478,1.5,1.254,2.025
			c0.646,0.438,1.499,0.743,2.456,0.853c0.254,0.029,0.516,0.044,0.781,0.044c2.481,0,4.492-1.309,4.492-2.922
			C15.415,16.583,15.334,16.271,15.184,15.979z"/>
		<path opacity="0.1" fill-rule="evenodd" clip-rule="evenodd" d="M16.186,8.016c1.273,0.331,2.625,0.508,3.646-0.722
			c-0.391,0.058-0.74,0.065-1.057,0.035c-0.316-0.029-0.6-0.098-0.857-0.193c-1.234,0.15-2.596-0.476-3.69-0.666
			c-0.548-0.096-0.97,0.116-1.182,0.421c-0.134,0.192-0.184,0.422-0.127,0.634l0.204,0.856c0.039-0.424,0.45-0.835,1.07-0.835
			c0.083,0,0.169,0.008,0.258,0.023C14.983,7.662,15.577,7.857,16.186,8.016z"/>
	</g>
</g>
</svg>
