<?xml version="1.0" encoding="utf-8"?>
<!-- Generator: Adobe Illustrator 15.0.0, SVG Export Plug-In . SVG Version: 6.00 Build 0)  -->
<!DOCTYPE svg PUBLIC "-//W3C//DTD SVG 1.1//EN" "http://www.w3.org/Graphics/SVG/1.1/DTD/svg11.dtd">
<svg version="1.1" id="Layer_1" xmlns="http://www.w3.org/2000/svg" xmlns:xlink="http://www.w3.org/1999/xlink" x="0px" y="0px"
	 width="174.833px" height="134.767px" viewBox="0 0 174.833 134.767" enable-background="new 0 0 174.833 134.767"
	 xml:space="preserve">
<g>
	<g>
		<path fill="#D17067" d="M132.069,15.612c-6.832-0.809-9.826-5.414-12.757-11.908c-2.927-6.494-13.653,4.213-13.653,4.213
			l8.284,15.136l38.525,7.511c0,0-0.696-18.158,8.493-19.373c0,0-4.716-9.242-9.043-9.63
			C142.359,0.711,137.982,16.311,132.069,15.612z"/>
		<path fill="#BB5A55" d="M137.827,19.704c2.244-4.336,12.418-16.1,14.62-15.535c2.201,0.567,4.852,5.582,4.852,5.582
			S149.9,23.528,150.43,26.08C150.959,28.634,137.827,19.704,137.827,19.704z"/>
		<path fill="#BB5A55" d="M116.202,27.435c-2.829-3.984-8.615-18.409-7.098-20.091c1.519-1.686,7.207-1.715,7.207-1.715
			s8.859,12.898,11.378,13.609S116.202,27.435,116.202,27.435z"/>
		<g>
			<path fill="#F79C92" d="M12.324,43.932c-0.753-0.032-1.362-0.143-1.816-0.265c-2.628-0.687-4.523-2.625-5.07-5.183
				c-0.028-0.135-0.055-0.273-0.076-0.411c-2.667-0.838-4.509-2.503-5.131-4.683c-0.678-2.364-0.188-6.406,5.994-12.245l1.254,1.322
				C3.175,26.53,1.226,30.234,1.987,32.89c0.405,1.419,1.588,2.554,3.333,3.237c0.288-2.786,2.051-5.663,5.012-8.032
				c2.978-2.39,6.271-2.847,7.999-1.11c1.442,1.447,1.746,4.505-1.729,8.742c-1.824,2.224-5.56,3.331-9.271,2.787
				c0.504,1.69,1.811,2.917,3.641,3.395c3.836,1.015,8.819-1.435,13.343-6.527l1.366,1.207
				C19.991,42.992,15.166,44.049,12.324,43.932z M7.109,36.635c3.217,0.605,6.594-0.247,8.077-2.056
				c2.537-3.095,2.757-5.402,1.847-6.313c-0.881-0.889-3.077-0.745-5.56,1.243C8.78,31.67,7.228,34.242,7.109,36.635z"/>
		</g>
		<path fill="#BD5D52" d="M118.24,134.522l5.93,0.245c0,0,0.918-27.728,9.788-43.293l-17.73,3.362
			C116.228,94.836,119.103,130.234,118.24,134.522z"/>
		<path fill="#BD5D52" d="M35.599,72.383c1.413,15.534,10.574,59.156,10.574,59.156l5.701,0.236c0,0-3.937-26.336,9.57-38.067
			L35.599,72.383z"/>
		<path fill="#E5897C" d="M99.026,113.016C156.469,94,150.832,68.279,121.13,57.338c-12.854-4.736-75.894-46.687-104.122-15.994
			C-22.642,84.458,39.036,132.872,99.026,113.016z"/>
		<path fill="#D66F64" d="M137.041,66.695c4.403,11.981-6.631,26.758-43.104,38.831C59.73,116.849,24.985,105.968,8.78,86.534
			c12.771,23.934,51.854,39.189,90.247,26.482C143.578,98.268,150.18,79.487,137.041,66.695z"/>
		<path fill="#E5897C" d="M7.775,71.232c1.411,15.534,10.573,59.155,10.573,59.155l5.7,0.235c0,0-3.936-26.335,9.572-38.065
			L7.775,71.232z"/>
		<path fill="#E5897C" d="M97.714,133.671l5.931,0.247c0,0,0.919-27.729,9.787-43.294L92.48,94.537
			C92.479,94.538,98.576,129.383,97.714,133.671z"/>
		<path fill="#D66F64" d="M122.153,76.803c0.998,5.349,5.762,15.407,10.301,19.844c0,0,9.545-6.28,14.527-16.239L122.153,76.803z"/>
		<path fill="#E5897C" d="M170.354,60.286c-24.005-16.164,0.223-32.362-33.264-42.644c-5.716-1.757-21.418-6.962-31.315,13.267
			c-2.331,4.76-12.436,13.444-26.945,10.723c0,0,8.262,4.787,17.95,15.307c15.19,16.496,41.204,34.781,60.677,20.564
			C160.826,75.044,170.354,60.286,170.354,60.286z"/>
		<path fill="#DA7B71" d="M114.076,72.173c13.84,9.627,30.124,15.005,43.38,5.329c1.317-0.958,3.571-3.796,5.828-6.896
			C146.534,83.833,129.26,77.105,114.076,72.173z"/>
		<path fill="#DA7B71" d="M137.09,17.642c-5.13-1.576-18.305-5.92-28.107,7.835c24.07,2.738,50.167,20.185,49.343,40.092
			c-0.114,2.748-0.463,5.439-0.869,11.934c3.37-2.458,12.897-17.217,12.897-17.217C146.349,44.122,170.576,27.923,137.09,17.642z"/>
		<path fill="#F79C92" d="M109.084,25.34c-1.155,1.602-1.979,3.601-3.31,5.568C88.158,56.968,47.367,8.333,17.008,41.344
			C4.744,54.677,2.184,68.517,6.257,80.688C100.366,110.273,98.728,63.848,109.084,25.34z"/>
		<path fill="#F7A299" d="M160.036,81.405c5.213,0.649,17.605-13.23,14.221-19.743c-3.386-6.515-6.63-1.791-9.366-1.904
			c-2.735-0.113-7.461-3.647-10.351-0.127C151.654,63.153,152.765,80.497,160.036,81.405z"/>
		<path fill="#F9B7B3" d="M155.004,60.562c-2.622,3.199-1.614,18.95,4.992,19.772c0.811,0.101,1.816-0.191,2.903-0.766
			c1.598-3.113,2.621-6.93,2.794-11.085c0.113-2.773-0.162-5.427-0.754-7.848c-0.182,0.03-0.36,0.05-0.536,0.042
			C161.92,60.575,157.627,57.365,155.004,60.562z"/>
		<path fill="#F7A299" d="M100.614,8.391c5.312,7.809,4.23,22.931,9.257,22.838c5.031-0.093,14.03-26.121,8.577-30.597
			c-3.127-2.566-8.211,3.454-10.228,4.281C107.364,5.264,99.142,6.224,100.614,8.391z"/>
		<path fill="#F7A299" d="M149.137,2.508c-1.291,2.271,4.778,20.682,12.236,24.479c1.582,0.806,3.582-9.257,3.479-14.116
			c-0.084-4.134-1.163-4.67-4.729-7.178C155.819,2.672,151.022-0.816,149.137,2.508z"/>
		<path fill="#C05A50" d="M154.837,79.139c-5.948,0.209-20.539-3.24-27.715-14.802l-3.626,2.014l2.962,0.234
			C134.784,76.461,144.128,80.845,154.837,79.139z"/>
		
			<ellipse transform="matrix(0.0414 -0.9991 0.9991 0.0414 56.7077 174.3712)" fill="#F79F95" cx="119.228" cy="57.632" rx="10.118" ry="10.329"/>
		<path fill="#694343" d="M130.475,40.885c1.855-0.1,2.201,5.32,0.162,5.063C128.601,45.689,129.2,40.954,130.475,40.885z"/>
		<path fill="#694343" d="M150.22,41.248c1.857-0.101,2.203,5.321,0.164,5.062C148.346,46.052,148.947,41.314,150.22,41.248z"/>
		<path fill="#C45654" d="M157.676,62.984c2.633-0.092,3.443,10.612,0.922,10.849C156.076,74.07,154.7,63.089,157.676,62.984z"/>
		<path fill="#C45654" d="M169.437,63.561c2.454,0.948-1.033,11.103-3.447,10.328C163.578,73.118,166.66,62.487,169.437,63.561z"/>
		<path fill="#AB5A51" d="M17.105,124.364c0.759,3.724,1.243,6.023,1.243,6.023l5.7,0.235c0,0-0.35-2.371-0.48-5.991L17.105,124.364
			z"/>
		<path fill="#AB5A51" d="M104.042,127.96l-6.57-0.271c0.299,2.907,0.42,5.099,0.242,5.982l5.931,0.247
			C103.645,133.918,103.723,131.609,104.042,127.96z"/>
		<path fill="#9A4B45" d="M124.566,128.81l-6.212-0.257c0.079,2.904,0.063,5.093-0.114,5.969l5.93,0.245
			C124.17,134.767,124.246,132.458,124.566,128.81z"/>
		<path fill="#9A4B45" d="M44.929,125.514c0.761,3.725,1.244,6.025,1.244,6.025l5.701,0.236c0,0-0.352-2.372-0.485-5.993
			L44.929,125.514z"/>
		<path fill="#F8ADA9" d="M89.188,38.91c-19.785-0.824-47.632-21.298-70.24,0.466C27.82,54.194,47.678,65.194,89.188,38.91z"/>
		<path fill="#F9B7B3" d="M116.046,4.877c3.226-0.516-0.626,18.963-6.154,22.057c-1.938,1.086-6.612-12.93-4.951-18.559
			c0.617-2.086,3.327,0.006,5.768-1.186C111.971,6.574,114.283,5.161,116.046,4.877z"/>
		<path fill="#F9B7B3" d="M116.323,55.981c1.322-1.456,1.502-3.444,0.399-4.44c-1.107-0.999-3.073-0.625-4.399,0.83
			c-1.323,1.454-1.502,3.442-0.396,4.439C113.03,57.807,114.998,57.436,116.323,55.981z"/>
	</g>
	<g>
		<g>
			<defs>
				<polygon id="SVGID_2_" points="1,1 2,1 1,2 				"/>
			</defs>
			<defs>
				<polygon id="SVGID_3_" points="-1,-1 -2,-1 -1,-2 				"/>
			</defs>
			<clipPath id="SVGID_4_">
				<use xlink:href="#SVGID_2_"  overflow="visible"/>
			</clipPath>
			<clipPath id="SVGID_5_" clip-path="url(#SVGID_4_)">
				<use xlink:href="#SVGID_3_"  overflow="visible"/>
			</clipPath>
			
				<linearGradient id="SVGID_6_" gradientUnits="userSpaceOnUse" x1="79.4214" y1="792.7378" x2="79.4214" y2="671.1073" gradientTransform="matrix(1 -3.000000e-004 -3.000000e-004 -1 8.2282 817.2616)">
				<stop  offset="0" style="stop-color:#999999"/>
				<stop  offset="1" style="stop-color:#FFFFFF"/>
			</linearGradient>
			<path clip-path="url(#SVGID_5_)" fill="url(#SVGID_6_)" d="M174.257,61.662c-2.123-4.082-4.187-3.751-6.107-2.963
				c-15.279-11.782-6.774-23.479-15.526-32.782c0.187-2.236,0.586-4.963,1.411-7.469c2.066,3.798,4.608,7.15,7.339,8.54
				c1.582,0.806,3.582-9.257,3.479-14.116c-0.084-4.134-1.163-4.67-4.729-7.178c-3.813-2.68-8.009-5.712-10.229-4.057
				c-8.184,1.29-12.346,14.622-17.824,13.975c-6.206-0.736-9.246-4.608-11.946-10.18c-0.094-2.193-0.599-3.919-1.675-4.8
				c-3.127-2.566-8.211,3.454-10.228,4.281c-0.856,0.351-9.079,1.311-7.606,3.478c3.938,5.789,4.361,15.593,6.368,20.243
				c-0.41,0.724-0.814,1.472-1.208,2.274c-4.311,6.378-10.013,8.275-16.604,7.999c-0.301-0.014-0.605-0.029-0.909-0.053
				c-0.009,0.001-0.014-0.001-0.021-0.002c-4.006-0.285-8.328-1.318-12.856-2.604c-4.482-1.572-9.056-2.944-13.617-3.981
				c-0.22-0.06-0.44-0.118-0.659-0.176c-0.171-0.046-0.344-0.092-0.512-0.136c-0.29-0.076-0.578-0.151-0.868-0.225
				c-0.054-0.013-0.108-0.026-0.163-0.04c-0.676-0.172-1.35-0.335-2.027-0.493c-0.049-0.012-0.098-0.024-0.148-0.034
				c-0.345-0.08-0.689-0.157-1.034-0.233c-0.062-0.013-0.127-0.027-0.19-0.042c-1.108-0.24-2.22-0.459-3.333-0.65
				c-0.004-0.001-0.006-0.002-0.01-0.002c-12.088-2.086-24.411-0.968-35.403,10.683c-2.304,1.134-4.519,1.5-6.446,0.99
				c-1.83-0.478-3.137-1.704-3.641-3.395c3.711,0.544,7.446-0.563,9.271-2.787c3.476-4.237,3.172-7.295,1.729-8.742
				c-1.729-1.736-5.021-1.279-7.999,1.11c-2.961,2.369-4.724,5.246-5.012,8.032c-1.745-0.684-2.928-1.818-3.333-3.237
				c-0.761-2.656,1.188-6.359,5.492-10.423l-1.254-1.322c-6.183,5.839-6.672,9.881-5.994,12.245c0.622,2.18,2.464,3.845,5.131,4.683
				c0.021,0.138,0.048,0.276,0.076,0.411c0.547,2.558,2.442,4.496,5.07,5.183c0.454,0.122,1.063,0.232,1.816,0.265
				c0.743,0.03,1.626-0.024,2.622-0.228c-0.439,0.528-0.864,1.06-1.275,1.589c-0.085,0.107-0.162,0.217-0.246,0.325
				c-0.414,0.54-0.813,1.085-1.195,1.626c-0.063,0.089-0.131,0.179-0.191,0.268c-0.408,0.585-0.796,1.172-1.167,1.759
				c-0.091,0.143-0.182,0.285-0.269,0.427c-0.362,0.585-0.715,1.17-1.046,1.753c-0.048,0.087-0.093,0.17-0.138,0.255
				c-0.291,0.523-0.567,1.046-0.831,1.567c-0.073,0.149-0.151,0.299-0.224,0.448c-0.275,0.559-0.532,1.116-0.776,1.674
				c-0.073,0.167-0.142,0.334-0.212,0.5c-0.202,0.479-0.395,0.958-0.574,1.435c-0.05,0.137-0.104,0.273-0.154,0.407
				c-0.193,0.531-0.368,1.061-0.535,1.589c-0.064,0.201-0.127,0.403-0.185,0.605c-0.157,0.521-0.3,1.041-0.43,1.561
				c-0.05,0.197-0.092,0.396-0.139,0.593c-0.089,0.383-0.169,0.767-0.245,1.15c-0.044,0.218-0.088,0.436-0.128,0.651
				c-0.085,0.487-0.159,0.974-0.223,1.46c-0.035,0.249-0.063,0.501-0.091,0.749c-0.038,0.348-0.07,0.693-0.098,1.038
				c-0.029,0.364-0.053,0.729-0.069,1.092c-0.015,0.309-0.027,0.616-0.032,0.923c-0.006,0.276-0.01,0.556-0.012,0.835
				c0.004,0.434,0.014,0.868,0.032,1.301c0.013,0.296,0.034,0.59,0.056,0.883c0.017,0.236,0.036,0.474,0.058,0.707
				c0.044,0.482,0.1,0.963,0.165,1.441c0.029,0.224,0.059,0.444,0.091,0.668c0.052,0.316,0.107,0.633,0.164,0.946
				c0.034,0.189,0.073,0.378,0.111,0.566c0.107,0.53,0.227,1.058,0.357,1.583c0.046,0.174,0.088,0.347,0.136,0.52
				c0.927,3.464,2.388,6.804,4.318,9.976c0.101,0.163,0.206,0.328,0.309,0.493c0.051,0.081,0.101,0.162,0.153,0.243
				c3.05,17.667,7.528,39.136,7.909,40.952c0.007,0.028,0.007,0.033,0.012,0.051c0.008,0.045,0.016,0.074,0.016,0.074l5.7,0.235
				c0,0-0.002-0.023-0.005-0.035c-0.042-0.302-0.354-2.587-0.476-5.956l0,0c-0.188-5.135,0.071-12.792,2.403-19.866
				c0.444,0.296,0.896,0.582,1.35,0.869c0.14,0.089,0.275,0.18,0.417,0.268c0.774,0.481,1.564,0.953,2.368,1.411
				c0.122,0.07,0.248,0.134,0.371,0.203c0.674,0.378,1.356,0.746,2.051,1.105c0.236,0.123,0.474,0.243,0.713,0.362
				c0.618,0.312,1.244,0.616,1.876,0.913c0.233,0.111,0.465,0.221,0.701,0.33c0.815,0.371,1.641,0.732,2.48,1.083
				c0.035,0.013,0.068,0.03,0.107,0.044c0.882,0.365,1.782,0.714,2.688,1.05c0.234,0.087,0.471,0.167,0.704,0.251
				c0.201,0.073,0.4,0.146,0.604,0.216c1.909,9.759,3.521,17.485,3.744,18.543c0.005,0.029,0.005,0.034,0.01,0.051
				c0.01,0.045,0.017,0.075,0.017,0.075l5.701,0.236c0,0-0.004-0.025-0.007-0.04c-0.001-0.016-0.005-0.036-0.01-0.062
				c0.001-0.013-0.003-0.033-0.004-0.047c-0.076-0.556-0.344-2.689-0.459-5.728c-0.107-2.842-0.082-6.474,0.362-10.366
				c0.528,0.116,1.06,0.232,1.594,0.341c0.301,0.06,0.604,0.118,0.906,0.176c0.713,0.136,1.428,0.264,2.147,0.381
				c0.309,0.053,0.615,0.104,0.926,0.151c0.851,0.132,1.706,0.248,2.566,0.354c0.158,0.021,0.313,0.044,0.469,0.063
				c1.017,0.119,2.042,0.219,3.072,0.304c0.27,0.023,0.545,0.039,0.818,0.057c0.768,0.058,1.54,0.104,2.314,0.141
				c0.343,0.018,0.683,0.028,1.027,0.042c0.761,0.027,1.522,0.041,2.288,0.05c0.301,0.002,0.602,0.006,0.906,0.009
				c1.057-0.003,2.113-0.018,3.176-0.058c0.108-0.005,0.218-0.013,0.323-0.016c0.956-0.039,1.915-0.097,2.875-0.166
				c0.34-0.024,0.68-0.055,1.017-0.084c0.759-0.063,1.521-0.137,2.28-0.221c0.356-0.039,0.709-0.077,1.065-0.119
				c0.85-0.105,1.702-0.224,2.555-0.352c0.235-0.038,0.472-0.065,0.707-0.103c1.082-0.172,2.163-0.366,3.246-0.581
				c0.275-0.055,0.549-0.115,0.821-0.172c0.822-0.17,1.646-0.352,2.469-0.546c0.364-0.085,0.729-0.176,1.094-0.267
				c0.772-0.191,1.548-0.396,2.323-0.612c0.304-0.085,0.609-0.164,0.914-0.251c0.748,4.962,1.436,9.934,1.82,13.691
				c0.135,1.318,0.23,2.481,0.279,3.447c0.007,0.109,0.013,0.223,0.018,0.328c0.005,0.148,0.009,0.287,0.012,0.422
				c0.005,0.133,0.007,0.263,0.008,0.386c0,0.106,0.001,0.21,0.001,0.308c-0.004,0.14-0.009,0.266-0.016,0.386
				c-0.002,0.066-0.005,0.139-0.01,0.197c-0.014,0.174-0.029,0.327-0.056,0.451l5.931,0.247c0,0,0.001-0.027,0.002-0.045
				c0.011-0.297,0.088-2.218,0.333-5.167c0.001-0.036,0.006-0.07,0.008-0.107c0.02-0.207,0.036-0.418,0.055-0.636
				c0.392-4.45,1.15-10.902,2.572-17.634c0.063-0.023,0.124-0.048,0.188-0.072c0.724-0.276,1.436-0.553,2.136-0.83
				c0.181-0.071,0.36-0.146,0.539-0.218c0.524-0.209,1.043-0.42,1.556-0.631c0.229-0.098,0.46-0.193,0.688-0.289
				c0.479-0.201,0.949-0.401,1.416-0.603c0.202-0.089,0.403-0.175,0.6-0.261c0.646-0.283,1.281-0.567,1.901-0.851
				c0.06-0.028,0.119-0.058,0.18-0.086c0.422-0.192,0.839-0.388,1.249-0.581c0.524,7.319,1.128,16.636,1.292,22.717
				c0.033,1.297,0.047,2.441,0.038,3.395c-0.002,0.119-0.003,0.243-0.004,0.356c-0.003,0.141-0.009,0.271-0.012,0.401
				c-0.003,0.142-0.009,0.28-0.015,0.408c-0.004,0.102-0.01,0.2-0.016,0.294c-0.008,0.145-0.019,0.274-0.029,0.396
				c-0.004,0.066-0.012,0.136-0.018,0.194c-0.019,0.172-0.039,0.328-0.063,0.452l5.93,0.245c0,0,0.001-0.027,0.003-0.045
				c-0.001-0.06,0.004-0.183,0.015-0.372c0-0.002,0-0.004,0-0.006c0.004-0.128,0.012-0.286,0.021-0.472
				c0.002-0.019,0.004-0.038,0.003-0.057c0.036-0.687,0.098-1.726,0.196-3.038c0.004-0.043,0.005-0.088,0.01-0.134
				c0.024-0.295,0.047-0.608,0.074-0.931c0.009-0.106,0.018-0.213,0.024-0.322c0.016-0.176,0.033-0.354,0.048-0.534
				c0.651-7.441,2.324-20.535,6.455-31.122c0.015-0.012,0.03-0.024,0.047-0.035c0.293-0.22,0.58-0.439,0.861-0.66
				c0.102-0.078,0.205-0.156,0.304-0.235c0.071-0.057,0.14-0.113,0.21-0.169c0.004,0.004,0.009,0.008,0.014,0.012
				c0,0,8.352-5.495,13.508-14.355c0.07-0.012,0.135-0.027,0.204-0.039c0.497-0.08,0.992-0.175,1.484-0.284
				c0.145-0.032,0.288-0.063,0.433-0.097c0.58-0.14,1.159-0.297,1.73-0.476c0.09-0.028,0.179-0.061,0.269-0.092
				c0.497-0.162,0.993-0.344,1.488-0.54c0.147-0.058,0.293-0.117,0.44-0.177c0.568-0.237,1.13-0.494,1.69-0.776
				c0.052-0.026,0.103-0.058,0.154-0.084c0.514-0.265,1.022-0.552,1.527-0.857c0.144-0.087,0.288-0.175,0.431-0.265
				c0.05-0.03,0.101-0.058,0.148-0.091c1.05,1.59,2.397,2.682,4.074,2.891C165.249,82.054,177.642,68.174,174.257,61.662z
				 M7.109,36.635c0.118-2.395,1.671-4.965,4.364-7.125c2.482-1.988,4.679-2.132,5.56-1.243c0.91,0.91,0.69,3.218-1.847,6.313
				C13.703,36.388,10.326,37.242,7.109,36.635z"/>
		</g>
	</g>
</g>
</svg>
