<?xml version="1.0" encoding="utf-8"?>
<!-- Generator: Adobe Illustrator 15.0.0, SVG Export Plug-In . SVG Version: 6.00 Build 0)  -->
<!DOCTYPE svg PUBLIC "-//W3C//DTD SVG 1.1//EN" "http://www.w3.org/Graphics/SVG/1.1/DTD/svg11.dtd">
<svg version="1.1" id="Layer_1" xmlns="http://www.w3.org/2000/svg" xmlns:xlink="http://www.w3.org/1999/xlink" x="0px" y="0px"
	 width="74.026px" height="53.607px" viewBox="0 0 74.026 53.607" enable-background="new 0 0 74.026 53.607" xml:space="preserve">
<g>
	<path fill="#F3BA5C" d="M43.262,48.893c-0.557-2.018-0.286-3.859,0.114-5.864c0.287-1.431,1.699-3.352,3.365-2.984
		c0.729,0.161,1.818,0.653,2.008,1.412c0.457,1.846-0.314,4.087,1.183,5.604c0.724,0.734,1.664,1.076,2.114,2.082
		c1.136,2.564-1.17,2.967-3.184,3.006C46.143,52.204,44.08,51.874,43.262,48.893z"/>
	<path fill="#F3BA5C" d="M20.92,48.893c-0.555-2.018-0.286-3.859,0.116-5.864c0.289-1.431,1.699-3.352,3.367-2.984
		c0.728,0.161,1.816,0.653,2.006,1.412c0.458,1.846-0.319,4.087,1.183,5.604c0.724,0.734,1.663,1.076,2.111,2.082
		c1.141,2.564-1.168,2.967-3.181,3.006C23.802,52.204,21.737,51.874,20.92,48.893z"/>
	<path fill="#EBA22B" d="M48.351,49.094c-0.805-0.65-1.513-1.367-1.575-2.44c-0.064-1.178,1.12-1.615,2.228-1.691
		c-0.146-1.15,0.02-2.396-0.254-3.506c-0.189-0.759-1.279-1.251-2.008-1.412c-1.666-0.367-3.078,1.554-3.365,2.984
		c-0.4,2.005-0.671,3.847-0.114,5.864c0.818,2.98,2.881,3.311,5.601,3.256c0.434-0.008,0.883-0.035,1.306-0.096
		C50.016,50.924,49.488,50.016,48.351,49.094z"/>
	<path fill="#EBA22B" d="M26.164,49.741c-0.256-1.582,0.527-2.395,1.718-2.41c-0.102-0.084-0.197-0.176-0.29-0.27
		c-1.502-1.518-0.725-3.759-1.183-5.604c-0.189-0.759-1.278-1.251-2.006-1.412c-1.668-0.367-3.078,1.554-3.367,2.984
		c-0.402,2.005-0.671,3.847-0.116,5.864c0.817,2.98,2.882,3.311,5.603,3.256c0.121-0.002,0.242-0.006,0.365-0.01
		C26.567,51.362,26.296,50.569,26.164,49.741z"/>
	<path fill="#FFD686" d="M40.867,25.566c-3.069,2.803-6.918,5.203-10.229,7.399c-2.601,1.722-6.121,3.146-9.181,3.735
		c-1.608,0.307-6.176,0.603-6.733,2.603c-0.323,1.152,1.082,2.193,1.842,2.832c2.333,1.952,5.061,2.577,7.923,3.116
		c10.437,1.97,21.614,0.312,31.303-3.938c4.24-1.859,11.893-4.962,15.268-10.753c2.119-3.633-4.043-2.478-6.065-3.044
		c-1.821-0.507-3.508-1.489-4.778-2.833c-1.814-1.924-2.76-6.535-5.783-6.943c-1.553-0.207-3.864,1.012-5.282,1.594
		c-2.214,0.906-4.322,1.854-5.884,3.742C42.55,23.941,41.737,24.768,40.867,25.566z"/>
	<path fill="#FEC366" d="M59.972,25.881c3.06,2.407,6.767,3.243,9.712,2.026c-1.538-0.262-3.656-0.101-4.69-0.392
		c-1.821-0.507-3.508-1.489-4.778-2.833c-1.593-1.688-2.516-5.439-4.755-6.613C55.306,19.329,57.401,23.863,59.972,25.881z"/>
	<path fill="#FEC46E" d="M70.777,28.23c-0.907,3.35-6.108,6.574-8.333,7.961c-2.6,1.625-7.562,4.88-10.266,1.705
		c-2.642-3.104-0.558-9.23,0.65-12.469c0.789-2.115,1.781-4.768,3.196-6.982c-0.464-0.365-0.985-0.621-1.594-0.705
		c-1.553-0.207-3.864,1.012-5.282,1.594c-2.214,0.906-4.322,1.854-5.884,3.742c-0.716,0.865-1.528,1.692-2.398,2.49
		c-3.069,2.803-6.918,5.203-10.229,7.399c-2.601,1.722-6.121,3.146-9.181,3.735c-1.608,0.307-6.176,0.603-6.733,2.603
		c-0.323,1.152,1.082,2.193,1.842,2.832c2.333,1.952,5.061,2.577,7.923,3.116c10.437,1.97,21.614,0.312,31.303-3.938
		c4.24-1.859,11.893-4.962,15.268-10.753C71.8,29.291,71.529,28.608,70.777,28.23z"/>
	<path fill="#F1AF57" d="M53.127,42.092c-8.524,0.061-4.551-13.192-0.358-16.503c0.02-0.051,0.04-0.109,0.061-0.162
		c0.789-2.115,1.781-4.768,3.196-6.982c-0.464-0.365-0.985-0.621-1.594-0.705c-1.553-0.207-3.864,1.012-5.282,1.594
		c-2.214,0.906-4.322,1.854-5.884,3.742c-0.716,0.865-1.528,1.692-2.398,2.49c-3.069,2.803-6.918,5.203-10.229,7.399
		c-2.601,1.722-6.121,3.146-9.181,3.735c-1.608,0.307-6.176,0.603-6.733,2.603c-0.323,1.152,1.082,2.193,1.842,2.832
		c2.333,1.952,5.061,2.577,7.923,3.116c9.812,1.853,20.284,0.497,29.55-3.207C53.735,42.073,53.432,42.09,53.127,42.092z"/>
	<path fill="#FFD686" d="M39.254,50.348c-0.552-2.02-0.287-3.862,0.116-5.867c0.287-1.433,1.7-3.352,3.366-2.984
		c0.728,0.162,1.818,0.652,2.006,1.415c0.455,1.843-0.317,4.087,1.183,5.603c0.723,0.732,1.665,1.076,2.111,2.082
		c1.142,2.564-1.168,2.969-3.181,3.006C42.136,53.657,40.073,53.327,39.254,50.348z"/>
	<path fill="#FFD686" d="M16.913,50.348c-0.554-2.02-0.285-3.862,0.115-5.867c0.286-1.433,1.7-3.352,3.365-2.984
		c0.728,0.162,1.818,0.652,2.011,1.415c0.454,1.843-0.32,4.087,1.18,5.603c0.721,0.732,1.664,1.076,2.111,2.082
		c1.142,2.564-1.165,2.969-3.18,3.006C19.795,53.657,17.732,53.327,16.913,50.348z"/>
	<path fill="#FEC46E" d="M46.707,52.461c-1.914,0.25-4.292-0.768-4.935-2.678c-1.549-2.635-0.158-5.701,1.74-8.025
		c-0.268-0.122-0.541-0.21-0.776-0.262c-1.666-0.367-3.079,1.552-3.366,2.984c-0.403,2.005-0.668,3.848-0.116,5.867
		c0.819,2.979,2.882,3.309,5.602,3.254c1.693-0.031,3.586-0.328,3.469-1.947C47.859,52.077,47.261,52.385,46.707,52.461z"/>
	<path fill="#FEC46E" d="M20.438,51.379c-0.488-0.541-0.686-1.246-0.839-1.912c-0.874-2.521,0.283-5.375,1.855-7.566
		c-0.352-0.195-0.741-0.332-1.062-0.404c-1.665-0.367-3.079,1.552-3.365,2.984c-0.4,2.005-0.669,3.848-0.115,5.867
		c0.819,2.979,2.882,3.309,5.603,3.254c1.8-0.033,3.828-0.365,3.422-2.264C24.413,52.893,21.82,52.917,20.438,51.379z"/>
	<g>
		<path fill="#718E85" d="M60.214,18.208c-1.272-1.028-3.267-1.328-4.277-2.605c1.446-1.652,3.968-1.697,5.808-2.704
			c-0.958-0.677-3.372-0.81-4.609-0.981c-1.521-0.211-3.437-0.343-4.976-0.057c0.676-1.495,1.547-3.449,1.676-5.053
			c-1.237,0.007-2.155,0.865-3.314,1.045c-1.517,0.236-1.208,0.15-1.28-1.314c-0.097-1.985,0.074-3.563-1.735-4.875
			c0.182,0.131-0.164,2.775-0.289,3.105c-0.326,0.877-0.999,1.621-2.054,1.578c0.107-1.785-1.415-5.301-3.647-5.117
			c-0.078,1.563,0.212,3.951-0.776,5.158c-1.075-0.979-1.653-2.502-2.246-3.793C38.315,2.22,36.655-0.03,36.655,0
			c-0.094,1.814-0.11,3.966-1.512,5.294c-0.107-1.652-1.976-3.023-3.356-3.622c0.27,0.909,0.76,1.886,0.721,2.829
			c-0.399-0.455-0.909-0.816-1.474-0.844c-0.215,1.037-0.023,2.087-1.056,2.697c-0.3-1.941-1.917-3.295-1.876-5.442
			c-2.115,1.554-1.85,3.865-1.824,6.196c-1.981-0.387-3.507-2.498-5.7-2.573c0.972,1.018,1.066,1.794,0.989,3.181
			C19.628,7.347,17.864,5.49,16,4.87c0.269,0.089,1.493,3.676,1.35,4.091c-0.425,1.209-0.679,0.682-1.561,0.484
			c-2.05-0.455-3.914-1.877-6.028-1.837c0.771,1.199,1.43,3.257,0.87,4.659c-2.392,0.104-4.619-1.09-6.646,0.9
			c1.148,0.436,3.101,0.816,2.438,2.418c-0.465,1.122-2.445,1.296-3.362,1.873c-1.34,0.843-2.084,2.006-2.828,3.356
			c0.371-0.672,2.783-0.917,3.418-0.663c1.622,0.649,0.739,1.096-0.212,1.982c-1.577,1.467-3.788,3.375-3.392,5.795
			c0.912-0.602,2.535-1.25,3.494-0.457c-0.508,0.805-1.556,1.363-1.517,2.42c0.937,0.049,1.908-0.015,2.845,0.053
			c-1.957,1.898-3.958,4.229-2.837,7.25c0.861-1.125,2.339-1.973,3.742-2.094c-0.306,1.854-1.063,4.12-1.02,6.029
			c1.137,0.016,2.129-0.726,3.266-0.708c-0.646,0.947-1.301,2.24-1.598,3.292c1.366-0.023,2.701,0.273,4.063,0.047
			c-0.205,1.048-0.968,1.945-1.177,2.983c-0.254,1.254,6.068,0.27,6.677-0.065c-0.021,1.062,0.229,2.085,0.16,3.116
			c1.229-0.221,4.504-1.969,4.412-3.457c0.833,0.426,1.586,1.953,1.519,3c0.727-0.557,1.682-2.729,2.611-2.799
			c1.37-0.104,1.737,2.617,1.789,3.563c1.144-0.395,2.08-1.406,2.673-2.414c0.371-0.633,0.524-2.146,0.984-2.552
			c1.489-1.313,4.447,1.347,5.164,2.683c-0.094-0.43,0.546-2.371,1.037-2.537c0.949-0.316,2.405,2.352,3.157,3.002
			c0.123-0.996,0.877-4.755,2.46-3.981c0.804,0.396,0.989,1.959,0.899,2.724c1.56-1.772,1.713-3.327,1.86-5.551
			c1.108,0.668,1.859,2.87,2.782,3.054c0.368-0.862,0.943-5.053,0.261-5.793c0.614,0.666,1.062,1.63,1.334,2.51
			c1.103-1.375,2.225-2.835,2.72-4.529c0.188-0.637,0.96-3.986,0.456-4.467c0.87,0.834,1.566,1.566,1.835,2.777
			c1.39-2.104-1.344-7.072,0.23-8.207c1.52-1.098,3.134,1.695,3.448,2.873c0.378-1.709-0.217-3.427-0.688-5.051
			c-0.317-1.09-1.289-3.076-0.291-4.057c1.316-1.293,4.887,0.715,5.476,2.047C61.5,20.878,61.951,19.611,60.214,18.208z"/>
	</g>
	<path fill="#7A3819" d="M56.284,39.35c-1.098-0.483-1.143-1.337-1.296-2.374c-0.64,0.605-1.548,1.744-1.224,2.878
		c0.244,0.861,1.197,0.913,2.002,0.877c1.024-0.043,2.621-0.732,3.082-1.383C58.305,39.467,57.183,39.746,56.284,39.35z"/>
	<g>
		<path fill="#0F0B09" d="M61.235,29.974c0.534-0.591,0.573-1.697-0.109-2.327c-1.689-1.556-3.15,2.011-1.281,2.638
			C60.445,30.487,60.923,30.317,61.235,29.974z"/>
		<path fill="#FFFFFF" d="M60.05,28.666c0.281-0.244-0.099-0.586-0.383-0.549C59.153,28.186,59.608,29.05,60.05,28.666z"/>
	</g>
	<g>
		<path fill="#552B12" d="M70.951,30.279c1.767-0.641,3.88-3.086,2.764-4.999c-1.898-3.238-4.435,0.831-4.744,2.931
			C68.661,30.297,69.722,30.722,70.951,30.279z"/>
		<path fill="#FFFFFF" d="M71.435,24.995c-0.301,0.136-0.559,0.896-0.112,0.964C71.895,26.045,72.196,24.652,71.435,24.995z"/>
	</g>
	<path fill="#607B73" d="M60.214,18.208c-1.272-1.028-3.267-1.328-4.277-2.605c1.446-1.652,3.968-1.697,5.808-2.704
		c-0.958-0.677-3.372-0.81-4.609-0.981c-1.521-0.211-3.437-0.343-4.976-0.057c0.676-1.495,1.547-3.449,1.676-5.053
		c-1.237,0.007-2.155,0.865-3.314,1.045c-1.517,0.236-1.208,0.15-1.28-1.314c-0.097-1.985,0.074-3.563-1.735-4.875
		c0.087,0.063,0.053,0.691-0.018,1.367c0.354,2.123,0.539,5.035-0.709,6.527c1.426,0.112,2.83-0.497,4.275-0.281
		c-0.811,1.439-3.313,2.484-2.872,4.473c2.046-0.079,4.116,0.278,6.204,0.357c-1.373,0.086-3.485,0.682-4.34,1.582
		c1.084,1.043,2.713,1.224,4.145,1.386c-1.044,0.409-2.271,0.478-3.396,0.737c-0.326,2.248,2.787,4.158,2.388,6.736
		c-0.923-0.082-1.379-1.172-2.389-1.165c-0.094,1.713,0.059,3.474-0.06,5.183c-1.054-0.396-1.817-1.434-3.074-1.177
		c-0.134,1.353,0.186,2.755,0.119,4.131c-1.154-0.36-1.562-2.284-2.733-2.925c-0.138,1.731,0.56,3.387,0.469,5.16
		c-1.651-0.887-3.855-2.328-5.693-2.537c0.043,1.628-0.344,3.245-0.581,4.842c-1.493-1.143-2.157-3.508-2.982-5.205
		c-0.911,1.549-0.314,3.741-1.502,5.531c-1.247,1.88-3.7,3.559-4.704,0.746c-1.765,1.049-2.837,1.896-3.175-0.832
		c-0.805,0.673-1.943,1.867-3.08,1.664c-0.053-0.502-0.435-1.017-0.55-1.395c-0.757,0.708-1.683,1.949-2.762,1.916
		c-0.079-1.469,0.03-2.984-0.06-4.449c-1.493,1.598-3.616,4.05-5.697,4.632c-0.138-0.999,0.293-1.938,0.119-2.925
		c-0.683,0.425-1.23,1.118-2.029,1.174c-0.132-0.924,0.193-1.789,0.121-2.705c-0.836,0.531-1.418,1.591-2.384,1.659
		c-0.059-1.287,0.031-2.385,0.431-3.616c-1.611,0.816-2.737,2.855-4.437,3.451c-0.192-1.508,0.388-2.957,0.89-4.336
		c0.753-2.066,0.384-1.557-1.597-1.433c0.186-1.071,0.799-2.197,1-3.245c-2.921,0.48-1.72-0.386-1.213-2.262
		c-1.027,0.006-1.908,0.676-2.918,0.638c0.331,0.013,0.798-1.878,1.04-3.216c-0.101,0.089-0.205,0.184-0.313,0.281
		c-1.577,1.467-3.788,3.375-3.392,5.795c0.912-0.602,2.535-1.25,3.494-0.457c-0.508,0.805-1.556,1.363-1.517,2.42
		c0.937,0.049,1.908-0.015,2.845,0.053c-1.957,1.898-3.958,4.229-2.837,7.25c0.861-1.125,2.339-1.973,3.742-2.094
		c-0.306,1.854-1.063,4.12-1.02,6.029c1.137,0.016,2.129-0.726,3.266-0.708c-0.646,0.947-1.301,2.24-1.598,3.292
		c1.366-0.023,2.701,0.273,4.063,0.047c-0.205,1.048-0.968,1.945-1.177,2.983c-0.254,1.254,6.068,0.27,6.677-0.065
		c-0.021,1.062,0.229,2.085,0.16,3.116c1.229-0.221,4.504-1.969,4.412-3.457c0.833,0.426,1.586,1.953,1.519,3
		c0.727-0.557,1.682-2.729,2.611-2.799c1.37-0.104,1.737,2.617,1.789,3.563c1.144-0.395,2.08-1.406,2.673-2.414
		c0.371-0.633,0.524-2.146,0.984-2.552c1.489-1.313,4.447,1.347,5.164,2.683c-0.094-0.43,0.546-2.371,1.037-2.537
		c0.949-0.316,2.405,2.352,3.157,3.002c0.123-0.996,0.877-4.755,2.46-3.981c0.804,0.396,0.989,1.959,0.899,2.724
		c1.56-1.772,1.713-3.327,1.86-5.551c1.108,0.668,1.859,2.87,2.782,3.054c0.368-0.862,0.943-5.053,0.261-5.793
		c0.614,0.666,1.062,1.63,1.334,2.51c1.103-1.375,2.225-2.835,2.72-4.529c0.188-0.637,0.96-3.986,0.456-4.467
		c0.87,0.834,1.566,1.566,1.835,2.777c1.39-2.104-1.344-7.072,0.23-8.207c1.52-1.098,3.134,1.695,3.448,2.873
		c0.378-1.709-0.217-3.427-0.688-5.051c-0.317-1.09-1.289-3.076-0.291-4.057c1.316-1.293,4.887,0.715,5.476,2.047
		C61.5,20.878,61.951,19.611,60.214,18.208z"/>
	<g>
		<path fill="#607B73" d="M41.515,1.23c-0.078,1.563,0.212,3.951-0.776,5.158c-1.075-0.979-1.653-2.502-2.246-3.793
			C38.315,2.22,36.655-0.03,36.655,0c-0.094,1.814-0.11,3.966-1.512,5.294c-0.107-1.652-1.976-3.023-3.356-3.622
			c0.27,0.909,0.76,1.886,0.721,2.829c-0.399-0.455-0.909-0.816-1.474-0.844c-0.215,1.037-0.023,2.087-1.056,2.697
			c-0.3-1.941-1.917-3.295-1.876-5.442c-2.036,1.495-1.867,3.694-1.827,5.935c0.737,0.236,1.317,1.012,1.681,1.783
			c-0.027-1.766-0.193-3.529-0.187-5.254c0.806,2.488,1.968,4.91,2.747,7.385c0.433-1.277,0.659-2.902,0.602-4.254
			c0.351,0.708,0.623,1.428,0.701,2.21c0.174-0.774,0.275-1.774,0.782-2.419c0.328,0.715,0.467,1.444,0.611,2.198
			c0.72-1.376,0.491-3.061,0.478-4.597c0.355,1.25,1.346,2.277,1.747,3.604c0.376,1.248,0.35,2.477,0.35,3.782
			c0.403-2.469,1.454-4.621,1.593-7.212c2.324,1.647,1.516,5.146,0.863,7.375c1.724-0.721,3.075-3.143,3.949-4.627
			c0.145,1.159-0.057,2.141-0.592,3.146c1.883-1.197,3.023-2.871,3.429-4.879C44.62,3.285,43.295,1.083,41.515,1.23z"/>
		<path fill="#607B73" d="M21.567,7.716c-0.324-0.062-0.641-0.166-0.952-0.297c0.906,1,1.636,2.062,1.976,3.032
			c0.523-1.681,0.051-3.86-0.839-5.411c1.191,1.404,2.758,2.363,3.933,3.799c0.248-0.562,0.441-1.15,0.517-1.751
			c-1.944-0.426-3.458-2.478-5.623-2.553C21.55,5.553,21.645,6.33,21.567,7.716z"/>
	</g>
	<path fill="#607B73" d="M17.35,8.96c-0.425,1.209-0.679,0.682-1.561,0.484c-2.05-0.455-3.914-1.877-6.028-1.837
		c0.771,1.199,1.43,3.257,0.87,4.659c-2.392,0.104-4.619-1.09-6.646,0.9c1.148,0.436,3.101,0.816,2.438,2.418
		c-0.465,1.122-2.445,1.296-3.362,1.873c-1.34,0.843-2.084,2.006-2.828,3.356c0.371-0.672,2.783-0.917,3.418-0.663
		c0.548,0.219,0.807,0.418,0.874,0.616c0.815-0.102,1.676-0.146,2.499-0.112c0.504,0.02,0.997,0.069,1.447,0.148
		c-1.755-1.895-3.559-1.668-6.091-1.672c2.113-0.279,4.484-1.801,6.599-0.7c0.014-1.054-1.673-2.208-2.347-2.827
		c0.905-0.639,2.164-0.151,3.041,0.348c-0.327-1.061-1.301-1.615-2.125-2.178c1.297-1.166,3.608-0.277,4.564,1.002
		c0.055-0.821-0.021-5.293-1.268-5.559c1.954,0.418,4.211,1.714,4.562,3.737c0.002-0.853-0.024-1.714,0.021-2.558
		c1.748-0.404,1.774,1.994,2.719,2.744c1.537-1.166,0.363-4.703-0.507-5.977c1.478,0.688,2.058,2.586,2.869,3.82
		c-0.065-1.357-0.103-2.652-0.484-3.845C18.662,6.429,17.358,5.322,16,4.87C16.269,4.958,17.493,8.545,17.35,8.96z"/>
	<path fill="#809E92" d="M13.982,14.738c-0.266,0.749-0.488,1.574-0.192,2.375c0.158,0.42,0.8,1.094,0.15,1.453
		c-0.478,0.264-1.398-0.299-1.893-0.391c-0.765-0.143-2.008-0.214-2.508,0.537c1.169-0.057,2.303,0.545,3.109,1.309
		c-1.541-0.063-3.186,1.097-3.096,2.76c0.962-1.176,4.559-1.479,5.936-0.898c-1.985,0.159-3.572,3.085-3.858,4.813
		c1.134-0.234,1.85-1.293,3.106-1.143c-0.37,1.135-0.82,2.212-1.111,3.377c0.964-1.113,2.547-2.25,3.98-2.594
		c-0.169,1.396-0.512,3.156-0.883,4.508c1.221-1.265,2.806-2.248,4.413-2.947c0.104,0.777-0.122,1.533-0.098,2.302
		c0.977-0.644,1.95-1.606,3.097-1.909c0.05,0.935,0.005,1.899,0.035,2.836c0.905-0.99,1.861-2.111,2.834-2.971
		c0.07,0.982-0.003,1.997,0.047,2.977c1.947-0.057,2.323-2.293,2.929-3.631c1.398,1.134,1.104,3.49,1.381,5.082
		c1.544-1.967,1.616-4.366,1.74-6.773c1.208-0.211,2.393,2.309,2.864,3.18c-0.258-0.477,0.232-1.629,0.268-2.148
		c0.055-0.754-0.389-1.418,0.342-1.706c1.207-0.474,3.284,1.312,4.024,2.06c-0.089-0.713-1.71-2.664-1.533-3.121
		c0.241-0.628,1.009-0.153,1.343,0.068c1.047,0.704,1.816,2.005,2.496,3.042c0.709-1.397-0.509-2.171-0.695-3.367
		c-0.094-0.62,0.272-0.51,0.979-0.544c2.055-0.109,4.617,0.267,6.028,1.992c-0.222-0.272-0.207-1.209-0.443-1.611
		c-0.312-0.53-0.79-1.045-1.293-1.396c-0.777-0.546-2.143-1.864-3.13-1.687c1.366,0.01,2.443,0.387,3.71,0.859
		c-0.544-0.745-2.196-1.891-3.183-1.814c0.655-0.498,1.487-0.537,2.227-0.787c0.789-0.266,1.558-0.628,2.415-0.52
		c-0.777-0.727-1.851-1.221-2.929-1.313c-1.438-0.119-3.356-0.254-4.671,0.437c1.314-1.184,3.382-4.707,1.812-6.348
		c-0.963,1.877-2.682,3.004-4.52,3.918c0.568-0.887,0.482-2.143,0.3-3.135c-0.377,1.063-1.695,1.549-2.607,2.023
		c-0.188-1.03,0.142-2.286-0.333-3.277c0.037,1.627-1.75,3.438-3.246,3.803c0.012-1.139-0.354-2.461-0.905-3.378
		c-0.03,1.142-0.284,2.237-0.844,3.249c-0.554-0.516-0.451-1.893-1.254-2.063c-0.351,0.92-0.538,2.381-1.331,2.976
		c-0.869-1.176-1.689-4.64-3.479-4.546c0.154-0.01,0.519,1.283,0.563,1.443c0.126,0.49,0.185,0.996,0.15,1.5
		c-0.031,0.372-0.245,1.984-0.858,1.885c-0.173-0.474-0.35-0.967-0.705-1.37c-0.362-0.413-0.844-0.737-1.273-1.073
		c-0.269-0.207-0.861-0.781-1.206-0.764c0.189,0.898,0.617,1.681,0.884,2.533c0.137,0.443,0.38,1.735,0.124,2.166
		c-0.106-0.781-0.618-1.33-1.196-1.826c-0.448-0.381-0.965-0.683-1.479-0.968c-0.261-0.146-0.622-0.377-0.929-0.348
		c-0.094,0.55,0.348,1.05,0.443,1.574c0.073,0.395,0.071,0.972-0.012,1.37c-0.215,0.984-1.369,0.363-1.877,0
		c-1.113-0.793-2.361-1.838-2.605-3.224c-0.244,0.894-0.258,1.827,0.14,2.675c0.165,0.357,0.387,0.691,0.673,0.969
		c0.171,0.168,0.709,0.684,0.971,0.646c-0.921,0.127-1.454-0.003-2.103-0.658C14.564,16.52,14.285,15.582,13.982,14.738z"/>
	<g>
		<path fill="#486159" d="M56.558,25.667c-0.807-0.668-1.829-1.402-2.252-2.345c-0.316,1.045-0.301,2.723-0.342,4.009
			c0.081-0.21,0.194-0.387,0.367-0.512c1.52-1.098,3.134,1.695,3.448,2.873c0.214-0.975,0.11-1.951-0.104-2.91
			C57.347,26.385,56.98,26.021,56.558,25.667z"/>
		<path fill="#68432A" d="M18.41,41.382c0,0.124,0.003,0.245,0.004,0.369C18.423,41.627,18.423,41.501,18.41,41.382z"/>
		<path fill="#486159" d="M51.81,36.716c0.173-0.602,0.876-3.623,0.527-4.361c-0.138,1.24-0.449,2.301-1.109,2.709
			c-0.065-0.354-0.285-0.665-0.318-1.029c-0.587,1.047-0.687,2.486-1.183,3.652c-0.297-1.127-0.807-2.611-1.371-3.647
			c-0.183,2.272-0.862,4.254-1.823,6.346c-0.308-0.583-0.063-1.4-0.319-2.046c-0.388-0.98-1.528-1.773-2.308-2.342
			c-0.094,1.857,0.336,4.118-0.644,5.727c-0.032-0.449-0.182-0.895-0.422-1.259c-0.372,0.53-0.581,1.252-1.013,1.65
			c-0.303-0.48-0.663-1.027-0.945-1.445c-0.318,0.565-0.462,1.406-0.784,2.07c-0.418-1.219-0.366-2.425-0.914-3.649
			c-0.682-1.518-1.833-2.857-2.617-4.242c0.79,2.243,2.935,8.318,0.16,9.744c-0.391-0.671-0.655-1.437-0.938-2.168
			c0.395,1.253,0.007,3.529-1.148,4.259c-1.199-2.588-2.311-5.25-5.372-6.236c0.8,2.069,0.017,5.234-1.69,6.633
			c-0.052-2.211-1.384-3.895-2.455-5.73c0.709,1.191,0.51,2.88,0.18,4.173c-0.471-0.417-0.685-1.09-1.151-1.529
			c-0.244,0.435-0.366,0.995-0.522,1.491c0.091-1.616-0.937-3-1.436-4.495c-0.095,1.036-1.511,7.364-2.573,4.45
			c-0.464,0.604-0.857,1.34-1.219,2.014c0.224-1.901,0.045-3.789,0.014-5.702c-0.091,1.505-1.647,3.26-2.714,4.067
			c-1.032,0.784-4.446,1.422-5.405,0.225c1.242-1.462,3.204-2.63,3.526-4.788c-1.7,1.389-3.479,1.108-5.557,1.139
			c1.879-1.265,2.702-2.997,2.538-5.221c-0.655,1.834-3.899,2.908-5.698,3.103c0.022-1.257,0.448-2.401,0.635-3.638
			c0.174-1.148,0.031-2.443,0.364-3.51c-1.351,0.512-2.667,1.208-3.64,2.288c0.225-1.474,0.82-3.011,1.293-4.323
			c-0.06,0.064-0.119,0.134-0.18,0.201c-0.272,0.418-0.57,0.789-0.869,1.152c-0.896,1.37-1.349,2.936-0.676,4.748
			c0.861-1.125,2.339-1.973,3.742-2.094c-0.306,1.854-1.063,4.12-1.02,6.029c1.137,0.016,2.129-0.726,3.266-0.708
			c-0.646,0.947-1.301,2.24-1.598,3.292c1.366-0.023,2.701,0.273,4.063,0.047c-0.205,1.048-0.968,1.945-1.177,2.983
			c-0.254,1.254,6.068,0.27,6.677-0.065c-0.021,1.062,0.229,2.085,0.16,3.116c1.229-0.221,4.504-1.969,4.412-3.457
			c0.833,0.426,1.586,1.953,1.519,3c0.727-0.557,1.682-2.729,2.611-2.799c1.37-0.104,1.737,2.617,1.789,3.563
			c1.144-0.395,2.08-1.406,2.673-2.414c0.371-0.633,0.524-2.146,0.984-2.552c1.489-1.313,4.447,1.347,5.164,2.683
			c-0.094-0.43,0.546-2.371,1.037-2.537c0.949-0.316,2.405,2.352,3.157,3.002c0.123-0.996,0.877-4.755,2.46-3.981
			c0.804,0.396,0.989,1.959,0.899,2.724c1.56-1.772,1.713-3.327,1.86-5.551c1.108,0.668,1.859,2.87,2.782,3.054
			c0.368-0.862,0.943-5.053,0.261-5.793c0.614,0.666,1.062,1.63,1.334,2.51C50.192,39.871,51.314,38.411,51.81,36.716z"/>
		<path fill="#486159" d="M54.101,35.027c0.777-1.176,0.266-3.248-0.063-5.046c0,0.696-0.091,1.337-0.453,1.678
			c-0.495-1.468-0.606-3.286-1.177-4.677c-0.047,1.123,0.139,3.44-0.067,5.338C53.177,33.126,53.838,33.851,54.101,35.027z"/>
		<path fill="#68432A" d="M35.788,42.425c-0.031-0.103-0.066-0.201-0.108-0.29C35.716,42.232,35.751,42.328,35.788,42.425z"/>
	</g>
</g>
</svg>
