<?xml version="1.0" encoding="utf-8"?>
<!-- Generator: Adobe Illustrator 15.0.0, SVG Export Plug-In . SVG Version: 6.00 Build 0)  -->
<!DOCTYPE svg PUBLIC "-//W3C//DTD SVG 1.1//EN" "http://www.w3.org/Graphics/SVG/1.1/DTD/svg11.dtd">
<svg version="1.1" id="Layer_1" xmlns="http://www.w3.org/2000/svg" xmlns:xlink="http://www.w3.org/1999/xlink" x="0px" y="0px"
	 width="125.619px" height="96.427px" viewBox="0 0 125.619 96.427" enable-background="new 0 0 125.619 96.427"
	 xml:space="preserve">
<g>
	<path fill="#B7925C" d="M96.729,70.721c1.023,4.281,3.122,9.532-0.004,12.784c-1.929,1.903-12.166,5.827-11.963,0.706
		c0.134-2.053,4.309-4.854,4.95-6.937c0.644-2.084-2.463-7.009-2.585-9.045c-0.138-2.291,1.212-1.096,1.074-3.388l0.047,0.765
		C93.141,61.993,95.691,66.185,96.729,70.721z"/>
	<path fill="#9C7542" d="M96.729,70.721c1.023,4.281,3.122,9.532-0.004,12.784c-1.88,1.854-11.642,5.625-11.953,1.077
		c0.327,0.113,0.675,0.186,1.033,0.225c0.034,0.01,0.064,0.021,0.1,0.024c2.442,0.499,5.024-0.008,6.845-1.321
		c0.541-0.076,1.045-0.343,1.402-0.854c3.934-5.621,0.831-12.495-1.752-18.331C94.676,64.837,96.038,67.7,96.729,70.721z"/>
	<path fill="#C9A56A" d="M23.746,69.585c-1.808-0.974-3.559-2.067-5.188-3.321C10.834,60.323,0.925,50.612,6.736,40.581
		c5.661-0.177,11.813,0.158,19.536-2.254c2.433-0.759,13.729,7.827,15.488,5.979c3.424,2.243-2.457,34.507-2.833,38.184
		c-0.527,5.137-1.969,7.822-7.04,9.19c-2.413,0.647-9.371,2.169-10.152-1.896c-0.563-2.94,5.939-4.281,7.532-6.382
		c1.886-2.491,3.984-8.525,1.331-10.78C28.941,71.21,25.717,70.649,23.746,69.585z"/>
	<path fill="#B28C53" d="M19.503,53.431c3.938-2.606,13.997,1.297,17.841,4.765c-0.09-0.078-0.179-0.152-0.266-0.221l0.925,0.879
		c-0.193-0.219-0.414-0.437-0.659-0.658c2.938,2.582,6.492,10.064,2.101,12.311c-1.927,0.842-6.122-1.038-7.967-1.246
		c-2.349-0.121-4.862,0.302-7.254-0.071c2.261-1.933,8.839-5.883,7.28-8.982C30.032,57.608,22.19,55.566,19.503,53.431z"/>
	<path fill="#B28C53" d="M38.003,58.854l-0.925-0.879c0.087,0.067,0.176,0.143,0.266,0.221
		C37.589,58.417,37.809,58.635,38.003,58.854z"/>
	<path fill="#B28C53" d="M21.775,39.475c1.442-0.289,2.937-0.66,4.497-1.147c2.433-0.759,13.729,7.827,15.488,5.979
		c3.424,2.243-2.457,34.507-2.833,38.184c-0.527,5.137-1.969,7.822-7.04,9.19c-2.413,0.647-9.371,2.169-10.152-1.896
		c-0.046-0.243-0.038-0.472,0.003-0.696c0.046,0.022,0.089,0.049,0.137,0.068c2.292,0.933,4.748,0.983,7.075,0.39
		c0.329,0.108,0.68,0.165,1.053,0.149c5.663-0.234,6.927-7.192,5.254-11.528c1.725-4.951,3.854-10.216,2.683-15.166
		c-0.133-0.563-0.401-1-0.746-1.323C36.35,52.335,29.803,44.274,21.775,39.475z"/>
	<path fill="#C9A56A" d="M39.871,74.574l0.127,0.753c4.479-4.117,7.463-0.223,8.979,4.179c1.475,4.147,4.12,9.146,1.359,12.711
		c-1.716,2.101-11.475,7.094-11.815,1.979c-0.09-2.056,3.764-5.286,4.18-7.425s-3.196-6.705-3.535-8.717
		C38.783,75.788,40.253,76.834,39.871,74.574z"/>
	<path fill="#B28C53" d="M48.976,79.505c1.475,4.147,4.12,9.146,1.359,12.711c-1.67,2.048-10.975,6.834-11.77,2.35
		c0.337,0.076,0.689,0.109,1.05,0.11c0.036,0.007,0.069,0.016,0.104,0.018c2.48,0.23,4.993-0.545,6.66-2.046
		c0.532-0.135,1.006-0.452,1.308-1c3.311-6.008-0.509-12.513-3.699-18.039C46.307,73.875,47.966,76.577,48.976,79.505z"/>
	<path fill="#C9A56A" d="M105.398,72.319c1.023,4.284,3.121,9.533-0.004,12.786c-1.931,1.903-12.168,5.827-11.963,0.705
		c0.134-2.052,4.309-4.854,4.95-6.937c0.642-2.082-2.464-7.011-2.587-9.046c-0.135-2.291,1.214-1.094,1.076-3.385l0.045,0.764
		C101.81,63.591,104.36,67.782,105.398,72.319z"/>
	<path fill="#B28C53" d="M105.398,72.319c1.023,4.284,3.121,9.533-0.004,12.786c-1.881,1.854-11.643,5.624-11.954,1.078
		c0.328,0.112,0.675,0.184,1.034,0.225c0.033,0.007,0.066,0.021,0.099,0.025c2.442,0.496,5.025-0.008,6.845-1.323
		c0.542-0.076,1.044-0.342,1.403-0.854c3.932-5.622,0.83-12.493-1.752-18.33C103.345,66.437,104.708,69.299,105.398,72.319z"/>
	<path fill="#728388" d="M112.374,66.5c3.026,2.15,4.475,5.644,9.021,7.44c-11.167,0.863-18.171,1.997-28.255-0.023
		c1.751,3.151,1.409,7.164,1.409,7.164c-9.963,2.509-17.818-1.086-17.818-1.086c-0.165,4.945-1.467,4.151-1.633,9.096
		c-7.333-2.721-13.229-4.832-16.144-8.688c-1.98,3.646-3.614,4.229-6.044,6.085c-4.841-3.255-8.144-4.149-9.722-7.57
		c-4.451,3.563-6.203,2.705-9.438,6.929c0.229-6.8,1.673-12.938,4.374-19.653c-6.243,1.646-13.082,2.653-19.367,5.535
		c5.068-3.541,10.2-8.938,14.65-12.498l-0.595-0.643c-3.648-1.979-8.551-3.381-12.814-5.381c5.028-2.304,9.922-0.879,15.919-2.599
		c-4.298-6.62-8.858-13.743-20.28-14.873c6.861-1.625,11.145-2.759,18.581-3.128c-1.688-5.006-3.417-6.26-6.382-10.072
		c4.476-1.258,11.546-3.229,19.539-1.724c-0.557-3.771-1.961-6.975-3.63-11.355c6.974-0.873,16.056-1.808,23.904,4.022
		C67.155,9.749,78.364,3.133,77.233,0c7.175,4.225,6.816,15.921,6.816,15.921c4.944,0.167,9.056-1.97,12.825-3.7
		c0.433,5.584-1.366,9.226-1.672,13.176c4.985-1.07,10.882-1.901,13.854-3.789c0.3,4.514-0.862,9.845-1.955,13.574
		c6.839-1.008,8.599,5.264,12.766,6.094c-2.964,4.019-4.917,7.839-7.903,11.862c6.537,2.075,6.9,4.015,13.655,5.479
		C118.184,61.406,117.208,63.875,112.374,66.5z"/>
	<path fill="#829393" d="M65.907,12.619c-0.104-0.082-0.221-0.163-0.347-0.246C65.652,12.436,65.778,12.526,65.907,12.619z"/>
	<polygon fill="#829393" points="65.56,12.373 65.559,12.371 65.56,12.371 	"/>
	<path fill="#829393" d="M65.559,12.371C65.357,12.227,65.41,12.264,65.559,12.371L65.559,12.371z"/>
	<path fill="#829393" d="M101.785,29.421c-2.437,6.708-22.948,4.336-27.592,4.645c-4.646,0.308-0.099,4.513-0.706,8.039
		c-1.397-1.421-12.403-1.545-12.43-3.855c-3.424,0.94-7.026,3.658-9.106,6.527c-0.433-3.375-0.814-7.257,2.457-9.238
		c-5.912,0.182-11.985,4.705-17.212,3.158c1.951-4.161,4.092-5.232,7.541-6.427c-1.929-1.219-4.516-0.962-5.863-2.891
		c3.933-0.891,8.272-0.715,11.598,1.922c-0.967-3.171-7.041-7.508-8.565-10.222c5.008,0.984,10.244,3.728,15.231,5.324
		c-0.052,0.691-0.184,1.188-0.426,1.417l1.235-1.166c-0.269-0.079-0.539-0.164-0.81-0.251c0.313-4.165-2.289-15.418-1.334-18.4
		c2.328,0.958,7.58,2.915,9.757,4.367c0.076,0.056,0.189,0.135,0.348,0.247c0.418,0.301,0.838,0.596,0,0
		c1.289-3.309,5.682-6.797,5.325-8.369c1.5,5.53,9.981,11.125,8.461,16.099c5.863,0.325,5.765-8.352,15.165-6.284
		c-2.132,2.096-2.508,6.622-3.13,10.788C91.107,29.018,102.036,27.785,101.785,29.421z"/>
	<path fill="#829393" d="M65.908,12.618C66.746,13.213,66.326,12.918,65.908,12.618L65.908,12.618z"/>
	<path fill="#829393" d="M57.137,26.405c0.271,0.087,0.541,0.172,0.81,0.251l-1.235,1.166
		C56.954,27.591,57.086,27.096,57.137,26.405z"/>
	<polygon fill="#829393" points="65.907,12.619 65.908,12.618 65.908,12.618 	"/>
	<path fill="#607173" d="M49.342,56.6l0.394-0.239C49.75,56.895,49.583,56.89,49.342,56.6z"/>
	<path fill="#607173" d="M103.31,51.999c1.218,1.088,1.429,0.794,2.854,1.589c-2.973,2.312-6.327,2.357-1.459,5.158
		c3.189,2.049,7.257,1.625,10.779,2.583c-2.681,0.97-5.572,2.231-8.547,2.988c-3.479,0.846-6.92,0.392-10.439,0.983
		c1.892,3.562,5.922,5.985,9.444,6.942c-5.073,0.597-17.357-0.181-19.798-5.459c-1.461,3.607-5.564,6.884-3.337,10.905
		c-1.932-2.261-4.032-3.978-4.54-6.995c-5.278,2.44-7.914,6.764-6.73,12.252c-3.821-4.271-7.602-8.287-10.041-13.568
		c-2.765,2.021-2.926,5.667-4.81,8.312c-0.924-2.431-1.559-4.652-2.233-7.125c-2.678,2.52-3.092,6.212-3.842,9.439
		c-1.64-3.602-1.48-8.802-1.023-12.24c-3.562,1.892-7.793,4.416-9.717,8.357c0.625-3.984,3.296-11.156,6.562-13.258
		c-3.649-1.715-8.682-2.418-12.452-0.232c3.812-3.484,9.636-5.759,14.583-5.556l0.778-0.478c0.239,0.29,0.407,0.295,0.394-0.239
		l-0.394,0.239c-0.569-0.687-1.544-2.988-1.456-3.548c2.351,1.673,3.275,4.102,5.21,6.363c-0.296-1.761-0.263-6.163,2.171-5.538
		c3.229,0.75-1.168,5.368,0.179,7.212c2.101,3.267,6.742-4.497,7.703-6.468c1.505-3.356,0.703-6.586,1.704-9.857
		c1.556,3.101,1.186,7.042,1.734,10.313c0.636,3.771,0.938,8.635,4.326,4.185c1.296-1.512,1.454-8.261,2.92-8.768
		c2.013-0.34,4.833,5.653,5.798,6.784c1.214-2.016-0.014-9.309,1.87-10.402c2.389-1.177,7.972,4.351,8.815,6.276
		c1.46-3.607-0.643-8.426-2.241-11.777c2.435,2.176,12.588,4.643,11.252,7.454c5.95-1.519,10.18-3.044,14.742-6.656
		C113.617,47.162,106.2,49.187,103.31,51.999z"/>
	<path fill="#3B1B0D" d="M0.979,39.999c5.841-6.429,12.968,2.943,6.994,7.583C2.498,51.835-2.073,42.815,0.979,39.999z"/>
	<circle fill="#3B1B0D" cx="20.923" cy="40.602" r="1.918"/>
	<circle fill="#3B1B0D" cx="27.435" cy="46.62" r="2.533"/>
	<path fill="#3B1B0D" d="M20.778,57.001c-0.469,0.213-0.617-0.109-0.146-0.321c1.153-0.522,2.339-0.478,3.098,0.639
		c0.125,0.185-0.64,0.593-0.795,0.365c-0.139-0.205-0.297-0.374-0.471-0.51c-0.781,3.513-6.272,2.563-8.728,1.772
		c-0.12-0.039,0.497-0.495,0.734-0.419c2.136,0.688,6.897,1.803,7.263-1.472c0.008-0.059,0.063-0.116,0.143-0.168
		C21.537,56.8,21.166,56.827,20.778,57.001z"/>
	
		<ellipse transform="matrix(0.1661 0.9861 -0.9861 0.1661 44.0031 29.2144)" fill="#FFFFFF" cx="4.729" cy="40.623" rx="1.438" ry="1.229"/>
	<circle fill="#FFFFFF" cx="20.391" cy="40.063" r="0.434"/>
	<circle fill="#FFFFFF" cx="26.809" cy="46.092" r="0.72"/>
</g>
</svg>
