<?xml version="1.0" encoding="utf-8"?>
<!-- Generator: Adobe Illustrator 15.0.0, SVG Export Plug-In . SVG Version: 6.00 Build 0)  -->
<!DOCTYPE svg PUBLIC "-//W3C//DTD SVG 1.1//EN" "http://www.w3.org/Graphics/SVG/1.1/DTD/svg11.dtd">
<svg version="1.1" id="Layer_1" xmlns="http://www.w3.org/2000/svg" xmlns:xlink="http://www.w3.org/1999/xlink" x="0px" y="0px"
	 width="206.402px" height="100.067px" viewBox="0 0 206.402 100.067" enable-background="new 0 0 206.402 100.067"
	 xml:space="preserve">
<g>
	<g>
		<path fill="#AE6A29" d="M51.482,50.479c-0.649-0.717-1.394-1.556-1.916-2.323c-0.247-0.365-0.297-0.724-0.22-1.133
			c0.181-0.971,0.1-1.507-0.997-2.132c-1.187-0.676-2.838-0.289-3.669,0.601c-0.814,0.873-0.208,1.938,0.981,2.36
			c1.433,0.515,4.116,2.006,3.711,3.453c-0.442,1.554-3.257,0.479-4.272-0.01c-1.044-0.501-2.784-1.469-3.338-2.33
			c-0.206-0.308-0.242-0.696-0.451-1.028c-0.878-1.414-3.243-2.719-5.193-1.443c-2.15,1.404-1.034,3.796,1.732,4.038
			c1.707,0.148,2.902-0.025,4.408,0.764c1.053,0.552,2.163,1.279,2.551,2.242c0.358,0.897-0.198,1.441-1.453,1.28
			c-1.239-0.16-2.497-0.36-3.661-0.735c-1.199-0.385-1.633-1.218-2.716-1.688c-1.148-0.496-3.105-0.418-3.895,0.465
			c-0.763,0.862-0.651,2.079,0.498,2.713c1.868,1.042,3.982-0.133,5.99,0.027c1.626,0.126,3.25,0.55,4.648,1.188
			c0.646,0.287,1.885,0.595,1.13,1.224c-0.638,0.532-2.076,0.934-3.008,0.722c-1.128-0.262-1.919-1.053-3.282-0.664
			c-1.78,0.508-2.159,2.083-0.894,3.132c0.877,0.731,2.172,0.815,3.281,0.294c1.145-0.537,1.682-1.337,3.061-1.612
			c1.175-0.234,2.409-0.174,3.605-0.271c1.63-0.131,3.309,0.033,4.929,0.201c0.938,0.095,1.946,0.316,2.891,0.154
			c0.898-0.149,1.517-0.75,2.076-1.275c1.397-1.306,0.539-3.018-0.856-4.102c-0.37-0.285-0.812-0.55-1.232-0.792
			c-0.699-0.412-1.418-0.787-2.069-1.244C53.044,51.983,52.199,51.262,51.482,50.479z"/>
		<path fill="#9E5625" d="M57.155,54.589c-0.37-0.285-0.812-0.55-1.232-0.792c-0.699-0.412-1.418-0.787-2.069-1.244
			c-0.81-0.57-1.654-1.291-2.371-2.074c-0.649-0.717-1.394-1.556-1.916-2.323c-0.247-0.365-0.297-0.724-0.22-1.133
			c0.181-0.971,0.1-1.507-0.997-2.132c-0.932-0.531-2.15-0.4-3.034,0.11c-0.502,1.377,1.015,2.209,1.454,3.337
			c1.375,0.696,2.918,1.843,2.603,2.967c-0.145,0.496-0.526,0.722-1.017,0.786c0.591,1.406,1.028,2.79,0.787,4.351
			c-0.242,1.548-1.74,2.559-3.55,3.301c0.838-0.066,1.688-0.065,2.522-0.132c1.63-0.131,3.309,0.033,4.929,0.201
			c0.938,0.095,1.946,0.316,2.891,0.154c0.898-0.149,1.517-0.75,2.076-1.275C59.408,57.385,58.55,55.673,57.155,54.589z"/>
		<path fill="#9E5625" d="M40.162,55.086c-1.193-0.21-2.423-0.261-3.636-0.115c-1.293,0.154-2.434,0-3.209-0.594
			c-0.276-0.117-0.515-0.274-0.705-0.479c-0.065,0.634,0.244,1.272,0.971,1.674c1.868,1.042,3.982-0.133,5.99,0.027
			c1.141,0.093,2.281,0.329,3.343,0.688C42.025,55.846,41.116,55.431,40.162,55.086z"/>
		<path fill="#9E5625" d="M41.299,50.174c-1.553-0.626-3.297-0.451-4.738-1.312c-0.842-0.503-0.975-1.367-0.732-2.152
			c-1.739,1.424-0.608,3.59,2.022,3.821c1.707,0.148,2.902-0.025,4.408,0.764c0.595,0.317,1.209,0.687,1.702,1.125
			C43.368,51.492,42.525,50.669,41.299,50.174z"/>
		<path fill="#9E5625" d="M48.629,48.707c-0.907-0.824-3.212-1.649-3.151-2.917c0.02-0.442,0.191-0.796,0.459-1.067
			c-0.494,0.16-0.938,0.426-1.256,0.77c-0.814,0.873-0.208,1.938,0.981,2.36c1.316,0.47,3.672,1.76,3.741,3.089
			C49.464,50.825,49.924,49.881,48.629,48.707z"/>
		<path fill="#9E5625" d="M57.155,54.589c-0.37-0.285-0.812-0.55-1.232-0.792c-0.662-0.386-1.292-0.873-2.075-1.032
			c-0.981-0.198-4.687-0.465-5.071,0.424c0,0,0.086,0.892,0.076,2.362c-0.006,1.319-0.514,2.875-2.793,3.435
			c-1.137,0.28-2.375-0.028-3.401,0.585c-0.371,0.222-0.75,0.437-1.133,0.646c-0.825,0.31-1.652,0.599-2.604,0.411
			c-0.733-0.144-1.213-0.441-1.49-0.815c0.003,0.48,0.233,0.973,0.735,1.389c0.877,0.731,2.172,0.815,3.281,0.294
			c1.145-0.537,1.682-1.337,3.061-1.612c1.175-0.234,2.409-0.174,3.605-0.271c1.63-0.131,3.309,0.033,4.929,0.201
			c0.938,0.095,1.946,0.316,2.891,0.154c0.898-0.149,1.517-0.75,2.076-1.275C59.408,57.385,58.55,55.673,57.155,54.589z"/>
		<path fill="#C58139" d="M40.134,47.952c0.184-0.083,0.221-0.277-0.018-0.631c-0.298-0.44-1.164-0.794-1.762-0.905
			c-0.914-0.162-1.392,0.196-0.733,0.827C37.984,47.589,39.633,48.182,40.134,47.952z"/>
		<path fill="#C58139" d="M37.146,53.395c0.118-0.131,0.044-0.317-0.364-0.561c-0.516-0.306-1.492-0.344-2.098-0.253
			c-0.919,0.143-1.155,0.625-0.212,0.985C34.994,53.765,36.818,53.772,37.146,53.395z"/>
		<path fill="#C58139" d="M40.942,59.322c0.403-0.34,0.31-0.812-0.764-0.812c-0.462,0-1.433,0.021-1.5,0.52
			c-0.057,0.405,0.608,0.599,1.026,0.628C40.237,59.695,40.688,59.535,40.942,59.322z"/>
	</g>
	<g>
		<path fill="#DBA529" d="M121.422,50.774c-6.587-1.809-13.255-3.399-20.021-4.992c-4.704-1.11-9.527-1.957-14.242-3.054
			c-7.656-1.78-12.301-1.194-19.136-5.188c-1.156-0.673-12.414-11.104-9.869-11.399c-3.277,0.381-7.066,0.329-10.058,1.536
			c-4.775,1.922-3.671,3.49-3.172,7.285c1.469,11.116,4.809,23.336,15.97,31.308c14.387,10.272,30.42,14.829,50.122,14.676
			c18.124-0.137,35.045-5.685,53.234-6.158c7.238-0.186,14.598-0.021,21.712,1.074c5.218,0.805,11.548,4.146,3.323,6.924
			c-3.822,1.289-8.115,1.854-12.163,2.359c-10.722,1.342-30.542,0.301-37.054,8.579c-4.018,5.111,6.128,6.862,10.787,6.213
			c0.658-0.092,1.912-0.227,2.297-0.726c0.75-0.99-1.197-1.129-2.141-1.202c-0.932-0.065-1.813-0.002-2.711-0.08
			c-1.248-0.111-2.906-0.24-3.201-1.356c-0.266-1.016,0.874-2.097,1.852-2.678c1.248-0.743,2.764-1.068,4.284-1.422
			c3.604-0.847,7.478-1.616,11.231-1.751c4.23-0.152,8.508-0.382,12.725-0.68c3.199-0.227,6.463-0.554,9.621-0.975
			c6.527-0.872,11.588-1.252,16.424-4.293c2.893-1.816,5.166-4.227,5.166-7.778c0-3.016-2.152-5.316-5.424-7.018
			c-4.781-2.488-10.996-3.913-16.591-4.646c-9.49-1.248-18.856-1.89-28.054-3.924c-3.59-0.795-7.02-1.967-10.564-2.911
			C141.579,57.378,125.544,51.903,121.422,50.774z"/>
		<path opacity="0.79" fill="#C5902C" d="M146.951,93.895c1.248-0.743,2.764-1.068,4.284-1.422
			c3.604-0.847,7.478-1.616,11.231-1.751c1.195-0.046,2.402-0.106,3.605-0.161c7.25-0.376,14.382-1.085,21.604-1.866
			c5.185-0.673,9.458-1.339,13.56-3.92c2.893-1.816,5.166-4.227,5.166-7.778c0-1.962-0.922-3.615-2.457-5.002
			c0.232,1.342,0.701,2.459,0.68,3.821c-0.008,0.524-0.086,1.081-0.279,1.7c-2.306,7.417-13.449,8.799-21.811,9.403
			c-3.727,0.268-7.557,0.927-11.274,1.047c-3.196,0.106-6.274-0.018-9.515,0.368c-3.078,0.373-6.176,0.723-9.188,1.346
			c-1.17,0.245-2.304,0.579-3.428,0.921c-0.775,0.229-1.601,0.469-2.296,0.823c-0.684,0.352-1.211,0.733-1.822,1.156
			c-0.443,0.305-0.947,0.651-1.292,1.022c-0.457,0.494-0.671,1.096-0.735,1.692c-0.067,0.605,0.029,0.979,0.422,1.497
			c0.465,0.609,1.663,1.011,2.521,1.16c0.561,0.096,1.109,0.169,1.677,0.21c0.254,0.021,1.058,0.021,1.229,0.192
			c0.24,0.24-0.297,0.396-0.521,0.439c-0.852,0.179-1.914,0.095-2.768-0.008c-1.195-0.147-2.229-0.353-3.276-0.847
			c-0.795-0.377-1.668-1.023-1.827-1.766c-0.179-0.813,0.137-1.975,0.696-2.678c0.665-0.83,1.389-1.609,2.44-2.179
			c5.312-2.883,11.861-3.332,18.078-4.204c4.192-0.583,8.466-0.366,12.69-0.676c2.859-0.211,6.044-0.57,8.817-1.154
			c2.002-0.428,3.947-0.83,5.92-1.441c3.889-1.204,9.127-3.184,8.125-7.055c-1.275-4.913-7.726-7.225-13.494-8.075
			c-23.352-3.439-60.225,0.812-63.775,0.625c-8.216-0.432-15.545-2.404-23.343-4.2c-6.032-1.389-12.37-2.881-17.33-5.965
			c-3.768-2.345-6.309-5.67-6.557-9.252c-0.172-0.667-0.233-1.371-0.155-2.125c0.326-3.037,2.785-5.221,6.059-6.592
			c-0.852-0.146-1.691-0.299-2.524-0.489c-0.06-0.012-0.117-0.027-0.177-0.042c-0.338-0.079-0.678-0.16-1.012-0.25
			c-0.127-0.032-0.255-0.071-0.384-0.107c-0.275-0.076-0.549-0.156-0.825-0.244c-0.15-0.049-0.303-0.099-0.452-0.146
			c-0.26-0.089-0.52-0.179-0.783-0.275c-0.16-0.062-0.319-0.121-0.483-0.184c-0.26-0.104-0.526-0.213-0.792-0.33
			c-0.163-0.067-0.322-0.135-0.487-0.211c-0.291-0.134-0.587-0.276-0.882-0.423c-0.143-0.071-0.285-0.14-0.431-0.215
			c-0.445-0.231-0.895-0.477-1.358-0.747c-1.156-0.673-12.414-11.104-9.869-11.399c-3.277,0.381-7.066,0.329-10.058,1.536
			c-4.775,1.922-3.671,3.49-3.172,7.285c1.469,11.116,4.809,23.336,15.97,31.308c14.387,10.272,30.42,14.829,50.122,14.676
			c18.124-0.137,35.045-5.685,53.234-6.158c7.238-0.186,14.598-0.021,21.712,1.074c5.218,0.805,11.548,4.146,3.323,6.924
			c-3.822,1.289-8.115,1.854-12.163,2.359c-10.722,1.342-30.542,0.301-37.054,8.579c-4.018,5.111,6.128,6.862,10.787,6.213
			c0.658-0.092,1.912-0.227,2.297-0.726c0.75-0.99-1.197-1.129-2.141-1.202c-0.932-0.065-1.813-0.002-2.711-0.08
			c-1.248-0.111-2.906-0.24-3.201-1.356C144.834,95.557,145.974,94.476,146.951,93.895z"/>
		<path opacity="0.64" fill="#B27C2B" d="M185.962,75.862c0.224,0.036,0.456,0.075,0.681,0.116c0.053,0.015,0.102,0.023,0.154,0.034
			c0.229,0.044,0.455,0.094,0.68,0.148c0.018,0.004,0.033,0.007,0.05,0.014c0.216,0.051,0.435,0.108,0.649,0.167
			c0.039,0.01,0.078,0.022,0.119,0.034c0.229,0.067,0.457,0.135,0.684,0.21c0.016,0.004,0.025,0.005,0.036,0.011
			c0.224,0.074,0.444,0.152,0.659,0.235c0.015,0.005,0.031,0.01,0.049,0.019c2.553,0.974,4.353,2.45,3.113,3.962
			c2.143-1.452,3.219-3.412,0.232-5.381c-0.932-0.617-1.953-1.133-3.008-1.617c-6.542-2.281-13.521-3.806-20.734-4.111
			c-12.439-0.53-24.539,1.393-36.787,2.721c-9.013,0.979-18.832,2.189-27.866,0.729c-7.62-1.236-15.044-3.933-21.761-6.868
			c-6.854-2.992-17.301-7.505-18.501-14.13c-0.624-3.465-0.086-7.506,3.947-9.802c2.031-1.153,4.426-1.565,6.88-1.843
			c-2.28-0.576-4.583-1.432-7.215-2.969c-1.109-0.646-11.498-10.259-10.108-11.308c-0.101-0.014-0.204-0.027-0.304-0.036
			c-3.15,0.32-6.682,0.339-9.515,1.48c-1.138,0.458-1.935,0.896-2.495,1.351c-0.957,0.914-1.172,1.929-1.123,2.984
			c0.081,0.824,0.29,1.779,0.445,2.95c1.469,11.116,4.809,23.336,15.97,31.308c14.387,10.272,30.42,14.829,50.122,14.676
			c18.124-0.137,35.045-5.685,53.234-6.158C171.488,74.602,178.848,74.767,185.962,75.862z"/>
		<path opacity="0.64" fill="#A16C29" d="M189.269,75.226c-14.794-5.097-38.063-2.512-46.921-1.013
			c-14.221,2.404-29.568,4.984-44.061,2.315c-12.516-2.304-26.28-8.563-34.333-16.407c-7.445-7.258-7.861-14.843-0.216-22.147
			c0.195-0.187,0.409-0.32,0.622-0.427c0.52-0.537,1.097-1.075,1.742-1.611c-3.455-3.104-9.944-9.564-7.948-9.795
			c-3.277,0.381-7.066,0.329-10.058,1.536c-4.775,1.922-3.671,3.49-3.172,7.285c1.469,11.116,4.809,23.336,15.97,31.308
			c14.387,10.272,30.42,14.829,50.122,14.676c18.124-0.137,35.045-5.685,53.234-6.158c7.238-0.186,14.598-0.021,21.712,1.074
			c4.023,0.619,8.695,2.75,6.861,4.961c0.417-0.281,0.792-0.583,1.108-0.901C193.693,77.893,192.268,76.257,189.269,75.226z"/>
		<path fill="#E3B239" d="M115.26,50.292c-10.903-3.024-22.334-8.075-34.242-6.064c-6.506,1.098-3.957,5.479,0.04,8.3
			c9.784,6.908,24.638,8.928,37.345,10.176c4.529,0.445,15.959,2.449,19.35-1.371C140.914,57.763,119.012,51.333,115.26,50.292z"/>
		<path opacity="0.64" fill="#A16C29" d="M187.677,88.695c0.599-0.079,1.184-0.156,1.76-0.238c0.112-0.017,0.224-0.033,0.336-0.047
			c0.464-0.068,0.919-0.139,1.366-0.209c0.158-0.026,0.316-0.051,0.472-0.077c0.406-0.07,0.807-0.144,1.208-0.222
			c0.172-0.034,0.348-0.068,0.518-0.103c0.418-0.085,0.829-0.184,1.236-0.282c0.188-0.046,0.373-0.096,0.559-0.146
			c0.396-0.107,0.792-0.22,1.184-0.343c0.176-0.057,0.355-0.119,0.527-0.182c0.307-0.103,0.605-0.216,0.902-0.333
			c0.238-0.091,0.473-0.185,0.706-0.287c0.296-0.127,0.595-0.264,0.888-0.408c0.178-0.092,0.357-0.177,0.535-0.266
			c0.287-0.156,0.572-0.324,0.859-0.492c-6.499,2.961-16.783,3.064-23.051,3.543c-6.301,0.485-12.905-0.186-19.129,0.805
			c-2.764,0.441-6.092,0.897-9.116,1.699c-2.319,0.678-4.435,1.64-5.147,3.595c-0.837,2.286,0.912,3.016,3.248,3.15
			c-0.12-0.013-0.232-0.029-0.353-0.048c-0.047-0.005-0.09-0.014-0.134-0.022c-0.099-0.014-0.193-0.028-0.287-0.051
			c-0.113-0.021-0.223-0.052-0.329-0.08c-0.062-0.018-0.123-0.034-0.185-0.057c-0.098-0.032-0.195-0.07-0.287-0.111
			c-0.046-0.019-0.084-0.043-0.127-0.064c-0.078-0.043-0.152-0.089-0.223-0.139c-0.037-0.027-0.071-0.054-0.104-0.083
			c-0.068-0.058-0.127-0.121-0.182-0.187c-0.023-0.032-0.051-0.059-0.07-0.091c-0.066-0.104-0.124-0.218-0.158-0.348
			c-0.266-1.016,0.874-2.097,1.852-2.678c1.248-0.743,2.764-1.068,4.284-1.422c3.604-0.847,7.478-1.616,11.231-1.751
			c1.195-0.046,2.406-0.106,3.611-0.161C173.328,90.185,180.457,89.476,187.677,88.695z"/>
		<path opacity="0.64" fill="#A16C29" d="M153.301,98.925c0.018-0.07,0.023-0.137,0.012-0.192c0-0.005-0.003-0.008-0.006-0.01
			c-0.012-0.061-0.042-0.111-0.081-0.163c-0.008-0.005-0.017-0.014-0.021-0.021c-0.049-0.05-0.105-0.095-0.175-0.137h-0.003
			c-0.07,0.007-0.154,0.015-0.229,0.023c-1.387,0.777-3.08,1.076-4.916,1.325c-0.59,0.077-1.164,0.136-1.723,0.156
			c1.707,0.207,3.411,0.211,4.695,0.03c0.658-0.092,1.912-0.227,2.297-0.726c0.065-0.086,0.102-0.162,0.127-0.236
			C153.287,98.958,153.295,98.943,153.301,98.925z"/>
	</g>
	<g>
		<g>
			<path fill="#D37F35" d="M122.439,80.409c-1.213-0.033-2.629-0.076-3.815-0.228c-0.567-0.074-1-0.265-1.405-0.573
				c-0.977-0.735-1.627-1.024-3.02-0.708c-1.513,0.345-2.127,1.669-1.662,2.776c0.457,1.088,2.035,1.366,3.268,0.861
				c1.482-0.612,4.854-1.415,6.213-0.228c1.459,1.271-1.527,2.425-2.722,2.778c-1.226,0.365-3.409,0.882-4.729,0.7
				c-0.473-0.063-0.932-0.286-1.434-0.361c-2.137-0.325-5.1,0.388-4.911,2.471c0.207,2.294,3.587,3.085,5.614,1.436
				c1.254-1.021,1.816-1.91,3.654-2.389c1.285-0.336,2.804-0.598,4.129-0.24c1.232,0.338,1.484,1.043,0.508,1.757
				c-0.968,0.708-1.988,1.402-3.147,1.924c-1.192,0.537-2.396,0.29-3.608,0.699c-1.287,0.434-2.447,1.759-1.957,2.836
				c0.479,1.046,1.912,1.74,3.347,1.396c2.358-0.554,2.386-2.678,3.839-3.888c1.173-0.977,2.676-1.772,4.277-2.278
				c0.74-0.236,1.867-0.853,2.092,0.045c0.187,0.751-0.277,1.942-1.107,2.416c-1.008,0.57-2.398,0.581-2.829,1.719
				c-0.561,1.483,0.959,2.729,2.937,2.574c1.373-0.109,2.291-0.9,2.412-1.957c0.125-1.085-0.428-1.945,0.141-3.017
				c0.487-0.917,1.338-1.683,1.99-2.524c0.883-1.146,2.139-2.137,3.353-3.087c0.704-0.555,1.588-1.071,2.011-1.789
				c0.402-0.679,0.122-1.466-0.108-2.163c-0.571-1.741-3.028-2.271-5.128-2.048c-0.559,0.061-1.131,0.18-1.672,0.298
				c-0.904,0.198-1.78,0.429-2.707,0.561C125.113,80.345,123.767,80.436,122.439,80.409z"/>
			<path fill="#B26628" d="M120.397,90.718c-0.989,0.644-1.83,1.416-2.438,2.296c-0.647,0.946-1.543,1.589-2.703,1.717
				c-0.307,0.107-0.633,0.162-0.98,0.157c0.667,0.444,1.576,0.651,2.485,0.429c2.358-0.554,2.386-2.678,3.839-3.888
				c0.822-0.689,1.818-1.278,2.891-1.746C122.429,89.985,121.391,90.316,120.397,90.718z"/>
			<path fill="#B26628" d="M115.627,86.859c-1.684,0.612-2.598,1.863-4.474,2.254c-1.104,0.23-2.148-0.229-2.874-0.89
				c0.484,2.039,3.631,2.68,5.557,1.11c1.254-1.021,1.816-1.91,3.654-2.389c0.729-0.189,1.535-0.354,2.337-0.397
				C118.412,86.343,116.961,86.374,115.627,86.859z"/>
			<path fill="#B26628" d="M118.643,81.141c-1.498,0.068-3.885,1.049-5.268,0.204c-0.479-0.295-0.765-0.63-0.898-0.978
				c-0.134,0.425-0.119,0.883,0.061,1.309c0.457,1.088,2.035,1.366,3.268,0.861c1.358-0.563,4.3-1.276,5.829-0.479
				C121.543,81.944,120.779,81.046,118.643,81.141z"/>
			<path fill="#B26628" d="M130.639,79.32c-0.559,0.061-1.131,0.18-1.672,0.298c-0.781,0.17-1.545,0.353-2.33,0.487
				c-0.072,0.415-0.1,0.822-0.037,1.214c0.187,1.143,1.074,2.381,1.945,3.246c1.316,1.32,1.974,2.117,0.11,4.632
				c-0.565,0.766-1.682,1.864-1.657,2.742c0.012,0.383,0.012,0.764,0.004,1.149c-0.18,0.733-0.377,1.455-1.195,1.958
				c-0.624,0.386-1.265,0.511-1.855,0.455c0.535,0.303,1.234,0.467,2.018,0.403c1.373-0.109,2.291-0.9,2.412-1.957
				c0.125-1.085-0.428-1.945,0.141-3.017c0.487-0.917,1.338-1.683,1.99-2.524c0.883-1.146,2.139-2.137,3.353-3.087
				c0.704-0.555,1.588-1.071,2.011-1.789c0.402-0.679,0.122-1.466-0.108-2.163C135.195,79.626,132.738,79.097,130.639,79.32z"/>
			<path fill="#E29C51" d="M112.403,86.202c0.021-0.171-0.173-0.316-0.718-0.383c-0.682-0.092-1.63,0.251-2.129,0.573
				c-0.769,0.49-0.664,1.031,0.455,1C110.633,87.375,112.34,86.678,112.403,86.202z"/>
			<path fill="#E29C51" d="M116.596,91.616c-0.076-0.166-0.334-0.234-0.864-0.121c-0.663,0.139-1.333,0.754-1.614,1.208
				c-0.426,0.69-0.035,1.148,0.968,0.759C115.635,93.25,116.8,92.064,116.596,91.616z"/>
			<path fill="#E29C51" d="M115.99,79.882c0.349-0.415,0.141-0.897-0.988-0.751c-0.486,0.065-1.5,0.216-1.457,0.749
				c0.033,0.435,0.781,0.547,1.227,0.521C115.336,80.372,115.773,80.141,115.99,79.882z"/>
			<path fill="#E29C51" d="M125.629,92.902c-0.121-0.482-0.713-0.723-1.393-0.021c-0.291,0.307-0.887,0.95-0.369,1.313
				c0.418,0.293,1.055-0.019,1.354-0.272C125.601,93.599,125.705,93.201,125.629,92.902z"/>
			<path opacity="0.65" fill="#E29C51" d="M123.329,84.431c0.085,0.729,0.356,1.405,0.747,1.777
				c0.565,0.543,2.656,1.729,3.504,0.924c0.549-0.517-0.242-1.29-0.654-1.688c-0.771-0.744-0.812-1.64-0.976-2.538
				c-0.098-0.582-0.151-1.601-1.211-1.284C123.564,81.974,123.197,83.265,123.329,84.431z"/>
		</g>
		<g>
			<path fill="#D8C537" d="M127.436,80.178c0.127,0.824,0.439,1.584,0.974,2.227c1.196,1.428,3.884,2.174,5.993,1.583
				c3.26-0.917,2.229-3.355,3.089-5.291c0.586-1.315,2.45-1.101,4.052-1.277c3.58-0.401,6.809-0.79,8.719-3.408
				c1.534-2.102,0.297-4.987-2.106-6.388c-5.015-2.92-13.64-0.808-17.432,2.49C127.477,72.933,126.887,76.566,127.436,80.178z"/>
			<path fill="#E1D06C" d="M143.455,67.407c-3.68-0.776-6.922,0.909-9.664,2.566c-1.834,1.107-3.324,2.571-4.152,4.243
				c-0.497,1.01-1.905,3.932-0.508,4.816c1.275,0.803,1.961-0.691,2.203-1.45c0.557-1.746,0.407-3.434,2.434-4.626
				c1.563-0.917,3.665-1.367,5.576-1.631c1.488-0.205,3.241-0.115,4.503-0.74c1.772-0.883,2.115-2.568-0.083-3.107
				C143.66,67.45,143.559,67.428,143.455,67.407z"/>
			<path fill="#C2B133" d="M148.436,67.804c0.475,0.777,0.697,1.625,0.534,2.484c-0.638,3.339-4.644,3.859-8.462,4.092
				c-3.943,0.247-6.637,0.794-7.082,4.171c-0.164,1.265-0.421,2.344-1.396,3.384c-1.306,1.381-2.898,0.85-4.025-0.118
				c0.118,0.204,0.251,0.401,0.405,0.588c1.196,1.428,3.884,2.174,5.993,1.583c3.26-0.917,2.229-3.355,3.089-5.291
				c0.586-1.315,2.45-1.101,4.052-1.277c3.58-0.401,6.809-0.79,8.719-3.408C151.731,71.997,150.648,69.259,148.436,67.804z"/>
			<path fill="#A9A034" d="M149.459,68.674c0.793,1.82,0.605,3.911-1.048,5.429c-3.462,3.181-8.148,1.316-12.558,2.482
				c0.73,1.773,0.313,3.85-1.107,5.362c-1.393,1.486-3.352,1.929-5.206,1.38c1.36,0.793,3.273,1.106,4.862,0.66
				c3.26-0.917,2.229-3.355,3.089-5.291c0.586-1.315,2.45-1.101,4.052-1.277c3.58-0.401,6.809-0.79,8.719-3.408
				C151.479,72.344,150.932,70.196,149.459,68.674z"/>
		</g>
	</g>
	<g>
		<g>
			<path fill="#D37F35" d="M40.892,64.545c-1.01-0.517-2.178-1.128-3.083-1.739c-0.425-0.29-0.658-0.629-0.787-1.059
				c-0.313-1.019-0.667-1.523-2.068-1.821c-1.52-0.318-2.963,0.554-3.335,1.681c-0.37,1.107,0.773,1.981,2.166,2.054
				c1.683,0.079,5.101,0.768,5.426,2.326c0.347,1.67-2.983,1.436-4.237,1.25c-1.292-0.188-3.505-0.635-4.5-1.323
				c-0.353-0.245-0.588-0.618-0.961-0.887c-1.588-1.143-4.591-1.738-5.881,0.101c-1.418,2.031,0.897,4.072,3.761,3.496
				c1.772-0.357,2.868-0.884,4.759-0.544c1.322,0.234,2.793,0.628,3.664,1.47c0.812,0.785,0.536,1.486-0.789,1.696
				c-1.312,0.206-2.661,0.379-4.004,0.353c-1.385-0.03-2.235-0.724-3.545-0.869c-1.392-0.154-3.297,0.502-3.627,1.608
				c-0.323,1.082,0.406,2.251,1.863,2.543c2.383,0.481,3.888-1.307,5.956-1.741c1.675-0.353,3.5-0.414,5.211-0.199
				c0.788,0.102,2.173,0.038,1.736,0.888c-0.362,0.717-1.583,1.535-2.614,1.598c-1.253,0.078-2.438-0.474-3.592,0.313
				c-1.508,1.031-1.086,2.703,0.693,3.368c1.243,0.467,2.572,0.171,3.409-0.678c0.862-0.87,0.993-1.822,2.216-2.499
				c1.05-0.58,2.3-0.886,3.438-1.336c1.55-0.612,3.301-0.944,4.989-1.256c0.981-0.181,2.088-0.262,2.949-0.699
				c0.814-0.416,1.121-1.191,1.411-1.876c0.724-1.71-0.988-3.154-2.923-3.818c-0.513-0.177-1.081-0.304-1.624-0.423
				c-0.902-0.2-1.806-0.359-2.683-0.621C43.198,65.576,41.995,65.111,40.892,64.545z"/>
			<path fill="#B26628" d="M31.991,72.457c-1.285,0.146-2.533,0.457-3.665,0.96c-1.2,0.535-2.409,0.719-3.482,0.355
				c-0.332-0.034-0.646-0.119-0.937-0.266c0.254,0.649,0.881,1.19,1.807,1.374c2.383,0.481,3.888-1.307,5.956-1.741
				c1.175-0.248,2.429-0.345,3.663-0.308C34.227,72.658,33.113,72.517,31.991,72.457z"/>
			<path fill="#B26628" d="M30.631,67.25c-1.852-0.165-3.492,0.525-5.358,0.099c-1.095-0.252-1.661-1.066-1.816-1.921
				c-1.007,1.928,1.215,3.745,3.938,3.196c1.772-0.357,2.868-0.884,4.759-0.544c0.751,0.132,1.546,0.321,2.256,0.611
				C33.352,67.944,32.103,67.379,30.631,67.25z"/>
			<path fill="#B26628" d="M37.161,63.627c-1.319-0.55-4.022-0.688-4.604-1.959c-0.202-0.445-0.211-0.846-0.084-1.194
				c-0.406,0.302-0.71,0.699-0.854,1.133c-0.37,1.107,0.773,1.981,2.166,2.054c1.541,0.074,4.534,0.658,5.277,1.954
				C39.062,65.482,39.042,64.413,37.161,63.627z"/>
			<path fill="#B26628" d="M48.594,66.945c-0.513-0.177-1.081-0.304-1.624-0.423c-0.778-0.174-1.553-0.326-2.314-0.531
				c-0.344,0.325-0.655,0.656-0.875,1.016c-0.634,1.041-0.744,2.453-0.609,3.538c0.202,1.652,0.202,2.595-3.123,3.97
				c-1.006,0.417-2.719,0.895-3.313,1.65c-0.253,0.331-0.519,0.655-0.792,0.976c-0.665,0.551-1.334,1.084-2.376,1.178
				c-0.799,0.071-1.426-0.08-1.89-0.366c0.245,0.473,0.725,0.894,1.427,1.155c1.243,0.467,2.572,0.171,3.409-0.678
				c0.862-0.87,0.993-1.822,2.216-2.499c1.05-0.58,2.3-0.886,3.438-1.336c1.55-0.612,3.301-0.944,4.989-1.256
				c0.981-0.181,2.088-0.262,2.949-0.699c0.814-0.416,1.121-1.191,1.411-1.876C52.241,69.053,50.529,67.609,48.594,66.945z"/>
			<path fill="#E29C51" d="M28.355,65.387c0.138-0.135,0.073-0.338-0.338-0.616c-0.52-0.352-1.555-0.445-2.207-0.374
				c-0.99,0.102-1.28,0.601-0.311,1.03C26.036,65.667,27.97,65.767,28.355,65.387z"/>
			<path fill="#E29C51" d="M28.147,71.675c0.05-0.172-0.119-0.334-0.65-0.453c-0.661-0.152-1.654,0.096-2.208,0.367
				c-0.84,0.412-0.828,0.962,0.29,1.038C26.198,72.669,28.007,72.139,28.147,71.675z"/>
			<path fill="#E29C51" d="M35.787,61.484c0.585-0.208,0.744-0.7-0.316-1.035c-0.452-0.143-1.417-0.425-1.753,0.044
				c-0.271,0.381,0.282,0.777,0.68,0.938C34.896,61.635,35.425,61.616,35.787,61.484z"/>
			<path fill="#E29C51" d="M34.908,76.427c0.228-0.458-0.103-0.899-1.166-0.581c-0.456,0.137-1.41,0.445-1.225,0.958
				c0.148,0.421,0.908,0.413,1.341,0.321C34.399,77.002,34.767,76.71,34.908,76.427z"/>
			<path opacity="0.65" fill="#E29C51" d="M38.846,68.321c-0.434,0.647-0.675,1.329-0.601,1.805c0.104,0.688,1.051,2.54,2.325,2.204
				c0.825-0.217,0.691-1.193,0.619-1.699c-0.135-0.938,0.451-1.717,0.941-2.539c0.317-0.542,0.982-1.423-0.135-1.583
				C40.752,66.326,39.545,67.273,38.846,68.321z"/>
		</g>
		<g>
			<path fill="#D8C537" d="M61.896,57.318c-0.56-2.563-5.937-6.281-9.559-4.838c-2.777,1.11-2.401,4.955-1.702,6.842
				c0.565,1.524,1.996,2.721,2.899,4.121c0.191,0.302,0.459,0.662,0.524,0.996c0.111,0.577,0.118,0.402-0.483,0.577
				c-1.027,0.302-2.538,0.536-3.642,0.634c-1.248,0.117-2.756-0.276-3.944,0.157c-2.054,0.748-2.509,4.005-1.923,5.386
				c0.806,1.902,3.079,3.046,5.49,1.965c1.27-0.572,2.229-1.475,3.488-2.082c1.473-0.711,3.242-1.056,4.98-1.063
				c1.747-0.012,3.415,0.392,5.142-0.124c3.372-1.002-0.223-3.68-1.175-4.97C60.009,62.229,62.483,60.026,61.896,57.318z"/>
			<path fill="#C2B133" d="M61.993,64.918c-1.984-2.689,0.49-4.893-0.097-7.601c-0.273-1.264-1.72-2.804-3.55-3.872
				c0.936,1.562,1.212,3.311,0.614,5.03c-0.614,1.762-0.551,2.705,0.434,4.339c0.529,0.87,1.109,1.857,1.038,2.844
				c-0.112,1.675-1.777,2.729-3.84,2.555c-2.262-0.191-3.874,0.697-5.225,1.163c-0.983,0.338-2.127,0.694-3.227,0.707
				c-1.838,0.021-3.141-0.471-4.145-1.606c-0.235,1.018-0.198,2.07,0.074,2.716c0.806,1.902,3.079,3.046,5.49,1.965
				c1.27-0.572,2.229-1.475,3.488-2.082c1.473-0.711,3.242-1.056,4.98-1.063c1.747-0.012,3.415,0.392,5.142-0.124
				C66.54,68.886,62.944,66.208,61.993,64.918z"/>
			<path fill="#A9A034" d="M61.993,64.918c-1.984-2.689,0.49-4.893-0.097-7.601c-0.177-0.815-0.85-1.74-1.79-2.585
				c0.663,1.5,0.703,2.947,0.522,4.585c-0.291,2.692-0.592,4.654,1.411,7.194c0.858,1.091-0.417,2.969-2.398,2.956
				c-2.784-0.009-5.183-0.504-7.56,0.992c-1.123,0.702-2.399,1.579-3.823,1.915c-1.37,0.32-2.488,0.29-3.444-0.054
				c1.083,1.163,2.868,1.678,4.744,0.836c1.27-0.572,2.229-1.475,3.488-2.082c1.473-0.711,3.242-1.056,4.98-1.063
				c1.747-0.012,3.415,0.392,5.142-0.124C66.54,68.886,62.944,66.208,61.993,64.918z"/>
			<path fill="#C2B133" d="M56.845,65.601c-0.026-0.914-1.165-1.524-1.884-2.188c-0.829-0.764-1.654-1.571-2.333-2.428
				c-1.262-1.611-2.105-3.027-2.395-4.898c-0.025-0.165-0.022-0.348-0.042-0.532c-0.179,1.353,0.092,2.809,0.445,3.767
				c0.565,1.524,1.996,2.721,2.899,4.121c0.191,0.302,0.459,0.662,0.524,0.996c0.043,0.229,0.068,0.341,0.048,0.399
				C55.021,65.088,55.929,65.344,56.845,65.601z"/>
			<path fill="#E1D06C" d="M50.797,65.987c-0.742,0.091-1.452,0.201-2.211,0.243c-0.54,0.027-1.477-0.053-1.98,0.133
				c-1.348,0.488-1.302,2.042,0.476,1.656c0.756-0.162,1.303-0.578,2.025-0.814c0.83-0.271,1.926-0.406,2.842-0.429
				c0.769-0.016,1.518,0.03,2.292-0.033c0.481-0.04,1.675,0.008,2.028-0.24c0.966-0.677-0.994-0.861-1.525-0.888
				C53.405,65.557,52.104,65.824,50.797,65.987z"/>
			<path fill="#E1D06C" d="M52.188,57.299c0.336,1.6,1.618,3.36,2.719,4.717c0.31,0.383,1.38,1.845,2.099,1.667
				c0.891-0.219,0.324-1.539-0.002-1.915c-1.124-1.287-2.655-2.437-1.889-4.096c0.473-1.026,0.82-2.162,0.289-3.233
				c-0.312-0.638-1.353-1.479-2.332-1.08C51.617,53.96,51.982,56.328,52.188,57.299z"/>
		</g>
	</g>
	<g>
		<path fill="#B26628" d="M71.702,43.968c-0.442,0.915-2.009,1.317-3.501,0.9c-1.485-0.419-2.333-1.504-1.891-2.42
			c0.442-0.919,2.006-1.319,3.498-0.901C71.294,41.967,72.142,43.048,71.702,43.968z"/>
		<path fill="#B26628" d="M107.434,64.911c-0.441,0.917-2.008,1.322-3.499,0.902c-1.486-0.419-2.336-1.501-1.895-2.42
			c0.444-0.917,2.011-1.321,3.499-0.899C107.029,62.911,107.876,63.995,107.434,64.911z"/>
		<path fill="#B26628" d="M139.702,59.718c-0.084,0.434-0.724,0.721-1.429,0.642c-0.703-0.08-1.205-0.495-1.123-0.926
			c0.084-0.437,0.721-0.726,1.425-0.646C139.282,58.87,139.787,59.285,139.702,59.718z"/>
		<path fill="#B26628" d="M167.139,64.315c-0.08,0.432-0.721,0.72-1.425,0.64c-0.703-0.08-1.206-0.495-1.125-0.926
			c0.085-0.437,0.723-0.726,1.427-0.646C166.719,63.464,167.223,63.878,167.139,64.315z"/>
		<path fill="#B26628" d="M85.607,45.178c-0.084,0.432-0.723,0.72-1.427,0.642c-0.705-0.081-1.207-0.495-1.124-0.929
			c0.084-0.434,0.723-0.724,1.427-0.642C85.188,44.33,85.69,44.744,85.607,45.178z"/>
		<path fill="#B26628" d="M92.467,56.002c-0.114,0.579-0.965,0.963-1.907,0.858c-0.938-0.105-1.61-0.66-1.5-1.24
			c0.114-0.578,0.965-0.96,1.904-0.856C91.905,54.869,92.577,55.425,92.467,56.002z"/>
		<path fill="#8C8633" d="M106.441,51.129c-0.111,0.585-0.967,0.966-1.906,0.858c-0.94-0.104-1.612-0.659-1.502-1.238
			c0.113-0.58,0.967-0.963,1.904-0.858C105.881,50,106.554,50.554,106.441,51.129z"/>
		<path fill="#8C8633" d="M86.037,51.129c-0.114,0.585-0.967,0.966-1.909,0.858c-0.94-0.104-1.611-0.659-1.5-1.238
			c0.112-0.58,0.966-0.963,1.905-0.858C85.476,50,86.147,50.554,86.037,51.129z"/>
		<path fill="#8C8633" d="M95.078,47.484c-0.173,0.883-1.472,1.467-2.911,1.306c-1.432-0.16-2.454-1.008-2.286-1.892
			c0.169-0.883,1.471-1.466,2.907-1.306C94.222,45.752,95.246,46.598,95.078,47.484z"/>
		<path fill="#8C8633" d="M127.26,59.869c-0.176,0.879-1.473,1.467-2.914,1.306c-1.432-0.161-2.459-1.008-2.289-1.891
			c0.172-0.886,1.473-1.468,2.91-1.309C126.4,58.136,127.422,58.983,127.26,59.869z"/>
		<path fill="#8C8633" d="M76.481,47.321c-0.078,0.39-0.655,0.651-1.295,0.581c-0.635-0.073-1.09-0.452-1.015-0.841
			c0.076-0.394,0.656-0.654,1.292-0.581C76.1,46.552,76.555,46.928,76.481,47.321z"/>
		<path fill="#8C8633" d="M121.75,66.616c-0.072,0.393-0.652,0.651-1.29,0.58c-0.635-0.073-1.095-0.449-1.019-0.841
			c0.077-0.391,0.654-0.65,1.289-0.58C121.371,65.846,121.824,66.22,121.75,66.616z"/>
		<path fill="#8C8633" d="M111.889,58.081c-0.078,0.391-0.657,0.652-1.293,0.577c-0.638-0.069-1.094-0.446-1.021-0.838
			c0.079-0.394,0.658-0.651,1.294-0.581C111.504,57.31,111.964,57.684,111.889,58.081z"/>
		<path fill="#8C8633" d="M103.08,55.944c-0.077,0.393-0.654,0.651-1.294,0.579c-0.636-0.071-1.09-0.449-1.016-0.839
			c0.075-0.393,0.652-0.652,1.29-0.584C102.697,55.172,103.153,55.551,103.08,55.944z"/>
		<path fill="#8C8633" d="M91.018,62.458c-0.075,0.393-0.657,0.648-1.296,0.58c-0.634-0.074-1.091-0.448-1.015-0.841
			c0.076-0.395,0.654-0.652,1.29-0.581C90.634,61.689,91.092,62.064,91.018,62.458z"/>
		<path fill="#8C8633" d="M134.285,62.458c-0.076,0.393-0.654,0.648-1.293,0.58c-0.636-0.074-1.09-0.448-1.016-0.841
			c0.076-0.395,0.655-0.652,1.291-0.581C133.908,61.689,134.36,62.064,134.285,62.458z"/>
		<path fill="#B26628" d="M156.736,63.297c-0.109,0.577-0.964,0.961-1.904,0.857c-0.941-0.107-1.611-0.66-1.503-1.241
			c0.112-0.581,0.966-0.964,1.907-0.858C156.176,62.164,156.846,62.718,156.736,63.297z"/>
		<path fill="#B26628" d="M120.586,53.309c-0.111,0.578-0.963,0.963-1.905,0.856c-0.942-0.104-1.611-0.659-1.501-1.24
			c0.112-0.577,0.963-0.964,1.904-0.856C120.024,52.174,120.695,52.729,120.586,53.309z"/>
		<path fill="#B26628" d="M77.027,55.284c-0.109,0.58-0.96,0.963-1.906,0.856c-0.939-0.108-1.606-0.661-1.499-1.237
			c0.112-0.58,0.964-0.966,1.908-0.859C76.47,54.15,77.139,54.704,77.027,55.284z"/>
	</g>
	<g>
		<path fill="#C1A62F" d="M44.009,4.671c-2.614-0.551-3.979-2.744-6.502-3.475C29.73-1.045,27.003,5.563,22.058,8.212
			c-1.654,0.886-3.497,1.534-5.358,2.124C8.68,12.879-2.527,16.269,0.629,24.634c1.408,3.729,4.384,5.535,9.162,6.94
			c3.847,1.132,8.534,1.544,11.955,3.341c2.389,1.256,3.142,3.242,4.566,5.038c2.994,3.769,9.242,4.292,14.539,3.897
			c1.937-0.141,3.831-0.344,5.705-0.717c3.845-0.764,7.363-1.813,10.81-3.22c4.925-2.009,9.648-5.004,12.113-8.909
			c2.556-4.041,1.189-8.739,0.316-13.031C68.551,11.86,62.348,3.657,53.492,2.867c-3.188-0.285-5.315,2.04-8.457,1.933
			C44.672,4.786,44.334,4.742,44.009,4.671z"/>
		<path fill="#AE9230" d="M39.934,3.658c1.308,1.361,2.53,3.312,5.292,2.434c1.399-0.444,2.602-1.22,3.786-1.92
			c0.568-0.338,1.143-0.653,1.724-0.947c-1.865,0.588-3.549,1.649-5.701,1.575c-0.363-0.014-0.701-0.058-1.026-0.128
			c-2.614-0.551-3.979-2.744-6.502-3.475c-2.113-0.609-3.852-0.562-5.366-0.118c0.256,0.005,0.507,0.027,0.757,0.051
			C35.354,0.869,38.452,2.117,39.934,3.658z"/>
		<path opacity="0.57" fill="#AE9230" d="M69.794,17.974c-1.033-5.075-5.482-11.573-12.03-14.095
			c0.639,0.546,1.226,1.14,1.707,1.802c2.248,3.091,2.904,6.883,2.155,10.365c-1.552,7.234-9.25,12.021-18.169,13.909
			c-4.952,1.049-10.193,1.461-15.31,1.054c-5.888-0.474-12.04-1.201-17.262-3.47c-4.329-1.88-8.336-4.483-8.951-8.484
			c-0.084-0.548-0.084-1.08-0.044-1.602c-1.694,1.894-2.375,4.225-1.261,7.181c1.408,3.729,4.384,5.535,9.162,6.94
			c3.847,1.132,8.534,1.544,11.955,3.341c2.389,1.256,3.142,3.242,4.566,5.038c2.994,3.769,9.242,4.292,14.539,3.897
			c1.937-0.141,3.831-0.344,5.705-0.717c3.845-0.764,7.363-1.813,10.81-3.22c4.925-2.009,9.648-5.004,12.113-8.909
			C72.033,26.964,70.667,22.266,69.794,17.974z"/>
		<path fill="#AE9230" d="M69.794,17.974c-0.28-1.377-0.832-2.852-1.596-4.324c1.479,8.567-2.402,17.114-11.494,23.072
			c-4.971,3.258-13.131,6.249-19.841,5.97c-2.967-0.126-6.097-0.541-8.146-2.374c-1.726-1.547-2.926-3.513-5.18-4.614
			c-0.455-0.188-0.913-0.37-1.382-0.537c2.059,1.257,2.823,3.104,4.156,4.787c2.994,3.769,9.242,4.292,14.539,3.897
			c1.937-0.141,3.831-0.344,5.705-0.717c3.845-0.764,7.363-1.813,10.81-3.22c4.925-2.009,9.648-5.004,12.113-8.909
			C72.033,26.964,70.667,22.266,69.794,17.974z"/>
		<path fill="#873F1D" d="M33.304,35.314c5.24-0.03,10.366-0.686,15.31-2.294c3.787-1.23,7.43-2.241,10.183-4.66
			c0.87-0.765,1.548-1.634,2.165-2.524c0.138-0.198,0.915-1.054,0.802-1.261c-0.208-0.371-2.796-0.174-3.029,0.077
			c0.568-0.62,1.656-1.054,2.646-1.07c0.679-0.006,2.293,0.311,2.346,0.91c-1.203-0.339-1.483,0.113-1.874,0.856
			c-0.295,0.562-0.661,1.098-1.084,1.611c-0.67,0.808-1.466,1.707-2.254,2.456c-1.165,1.103-2.844,2.089-4.334,2.924
			c-2.681,1.5-5.302,2.88-7.535,4.789c-0.949,0.811-1.881,1.529-3.007,2.179c-1.101,0.638-2.226,1.324-3.524,1.71
			c-2.165,0.642-5.305,0.771-7.562,0.384c-1.17-0.198-2.19-0.527-3.17-1.073c-2.16-1.194-3.213-3.255-4.922-4.753
			c-0.355-0.313-1.481-1.393-2.109-1.283c0.608-0.105,1.796,0.306,2.426,0.397c1.029,0.155,2.039,0.371,3.083,0.444
			C29.686,35.259,31.502,35.324,33.304,35.314z"/>
		<path fill="#5F2B0F" d="M61.381,23.582c-0.989,0.017-2.078,0.45-2.646,1.07c0.233-0.251,2.821-0.448,3.029-0.077
			c0.113,0.207-0.664,1.063-0.802,1.261c-0.617,0.891-1.295,1.76-2.165,2.524c-2.753,2.419-6.396,3.43-10.183,4.66
			c-4.944,1.608-10.07,2.264-15.31,2.294c-1.802,0.01-3.619-0.055-5.443-0.181c-1.044-0.073-2.054-0.289-3.083-0.444
			c-0.63-0.092-1.818-0.503-2.426-0.397c0.628-0.109,1.754,0.971,2.109,1.283c0.814,0.717,1.489,1.554,2.199,2.366
			c3.435-1.594,8.062-1.073,11.566,0.279c1.428,0.55,2.609,1.256,3.566,2.079c0.634-0.311,1.25-0.646,1.846-0.992
			c1.126-0.649,2.058-1.368,3.007-2.179c2.232-1.909,4.854-3.289,7.535-4.789c1.491-0.835,3.17-1.821,4.334-2.924
			c0.789-0.749,1.584-1.648,2.254-2.456c0.423-0.514,0.79-1.05,1.084-1.611c0.391-0.743,0.671-1.195,1.874-0.856
			C63.674,23.892,62.06,23.576,61.381,23.582z"/>
		<path fill="#D2B436" d="M41.152,6.7c-0.831-0.399-1.447-1.008-2.438-1.606C35.3,3.039,31.596,2.125,28.381,4.959
			c-1.772,1.563-3.085,3.212-5.173,4.518c-2.644,1.648-5.479,2.217-8.48,3.414c-2.379,0.955-4.856,2.019-6.503,3.677
			c-4.435,4.469,5.988,8.681,10.444,9.616c5.362,1.124,11.693,1.508,17.238,1.146c4.133-0.269,9.655-0.879,13.331-2.441
			c2.987-1.269,5.785-2.913,7.854-5.01c2.168-2.196,3.103-4.652,3.222-7.351c0.144-3.217,0.121-7.438-5.323-7.686
			c-2.338-0.105-4.198-0.026-6.105,0.985c-1.563,0.829-3.711,1.326-5.617,1.311C42.352,7.129,41.706,6.959,41.152,6.7z"/>
		<g>
			<path fill="#010101" d="M32.934,5.126c-1.732,0.063-3.285,1.5-3.47,3.211c-0.181,1.712,1.078,3.048,2.809,2.979
				c1.734-0.064,3.288-1.502,3.472-3.212C35.928,6.392,34.667,5.059,32.934,5.126z"/>
			<path fill="#FFFFFF" d="M31.382,6.888c-0.326,0.01-0.628,0.375-0.673,0.813c-0.048,0.436,0.179,0.777,0.503,0.769
				c0.322-0.018,0.624-0.378,0.671-0.816C31.935,7.22,31.706,6.876,31.382,6.888z"/>
		</g>
		<g>
			<path fill="#010101" d="M53.825,6.888c-1.737,0.067-3.289,1.505-3.474,3.212c-0.183,1.715,1.079,3.047,2.806,2.982
				c1.739-0.065,3.289-1.505,3.472-3.212C56.815,8.154,55.552,6.824,53.825,6.888z"/>
			<path fill="#FFFFFF" d="M52.269,8.65c-0.328,0.012-0.625,0.381-0.671,0.815c-0.051,0.435,0.178,0.775,0.5,0.768
				c0.323-0.017,0.625-0.379,0.673-0.813C52.823,8.986,52.591,8.64,52.269,8.65z"/>
		</g>
		<path fill="#937B2E" d="M11.604,20.422c-0.005,0.021-0.005,0.041-0.005,0.059c-0.006,0.519,0.624,0.683,1.052,0.979
			c0.439,0.304,0.062,0.74,0.344,1.103c0.213,0.271,0.622,0.027,0.799-0.161c0.235-0.256,0.268-0.622,0.269-0.921
			c0.002-0.546-0.33-1.146-0.966-1.432C12.552,19.805,11.679,19.803,11.604,20.422z"/>
		<path fill="#937B2E" d="M32.76,24.782c-0.014,0.014-0.039,0.026-0.056,0.036c-0.533,0.324-1.09,0.044-1.659-0.028
			c-0.585-0.08-0.8,0.415-1.351,0.468c-0.409,0.04-0.406-0.355-0.32-0.579c0.111-0.295,0.472-0.546,0.781-0.729
			c0.562-0.336,1.388-0.503,2.07-0.295C32.814,23.829,33.354,24.353,32.76,24.782z"/>
		<path fill="#DBC546" d="M10.067,19.14c-0.688-0.521,0.678-2.144,1.922-2.471c1.308-0.346,2.847-0.175,4.106,0.228
			c1.792,0.568,2.691,2.356,1.443,3.63c-0.839,0.861-1.884,0.704-2.45-0.13c-0.857-1.261-1.807-1.523-3.667-1.17
			C10.719,19.363,10.289,19.307,10.067,19.14z"/>
		<path fill="#DBC546" d="M30.252,22.868c0.798-0.273,1.665-0.432,2.486-0.248c0.73,0.163,1.601,1.153,2.478,0.943
			c1.531-0.368,0.804-2.765-0.178-3.261c-2.128-1.075-6.268-0.193-7.586,1.376c-0.386,0.466-0.882,1.23-0.257,1.706
			C28.066,24.043,29.43,23.146,30.252,22.868z"/>
		<path fill="#DBC546" d="M38.514,4.611c0.137-0.759-0.79-1.683-1.441-2.083c-1.319-0.806-3.098-0.758-4.662-0.451
			c-0.914,0.18-2.552,0.833-2.919,1.541c-0.832,1.623,2.886,0.704,3.664,0.595c1.194-0.177,1.836,0.093,2.702,0.637
			c0.679,0.427,1.649,0.932,2.381,0.241C38.395,4.947,38.482,4.781,38.514,4.611z"/>
		<path fill="#DBC546" d="M58.547,6.389c0.141-0.759-0.787-1.683-1.441-2.084c-1.317-0.802-3.094-0.756-4.664-0.448
			c-0.913,0.179-2.548,0.829-2.914,1.54c-0.833,1.622,2.885,0.705,3.659,0.594c1.196-0.174,1.839,0.096,2.702,0.636
			c0.684,0.428,1.646,0.934,2.383,0.243C58.431,6.725,58.515,6.562,58.547,6.389z"/>
	</g>
</g>
</svg>
