<?xml version="1.0" encoding="utf-8"?>
<!-- Generator: Adobe Illustrator 15.0.0, SVG Export Plug-In . SVG Version: 6.00 Build 0)  -->
<!DOCTYPE svg PUBLIC "-//W3C//DTD SVG 1.1//EN" "http://www.w3.org/Graphics/SVG/1.1/DTD/svg11.dtd">
<svg version="1.1" id="Layer_1" xmlns="http://www.w3.org/2000/svg" xmlns:xlink="http://www.w3.org/1999/xlink" x="0px" y="0px"
	 width="178.399px" height="149.966px" viewBox="61.71 78.63 178.399 149.966" enable-background="new 61.71 78.63 178.399 149.966"
	 xml:space="preserve">
<path id="path-0" fill="#FEE9D2" d="M118.176,157.656c2.958-0.746,7.458,4.656,12.672,5.328c0.776,0.1,5.722-0.326,6.192,0.144
	c0.761,0.761-1.146,3.116-1.584,3.601c-0.973,1.072-4.096,4.061-5.76,3.744c-2.361-0.45-3.435-5.616-7.776-6.193
	c-2.188-0.289-6.797,2.248-8.064,0.865C111.763,162.858,116.474,158.086,118.176,157.656z"/>
<path id="path-1" fill="#FEE9D2" d="M205.152,91.848c4.87,0.714,2.131-3.938,4.464-6.912c3.001-3.827,15.062-4.57,16.56-0.288
	c1.032,2.95-3.217,6.051-1.296,8.496c2.224,2.829,7.472,1.883,9.792,4.896c2.463,3.197,4.15,12.526-2.016,13.536
	c-7.643,1.251-13.41-5.583-21.024-2.16c-0.337,0.152-1.316,1.209-1.728,1.008c-0.658-0.321-2.047-3.52-2.881-4.32
	c-1.707-1.638-3.621-2.63-6.191-3.456c1.563-0.839,3.482-1.317,4.896-2.304c-1.341,0.394-2.839-1.363-2.881-2.16
	C205.721,97.923,205.698,94.847,205.152,91.848z"/>
<path id="path-2" fill="#1D1E1A" d="M205.152,91.848c-0.501-4.01,0.568-7.72,2.447-9.648c4.286-4.396,21.2-5.968,22.176,2.592
	c0.239,2.098-2.227,5.29-1.728,6.336c0.415,0.873,4.872,1.473,5.904,2.016c7.974,4.198,9.942,22.729-4.752,21.744
	c-2.342-0.157-4.79-0.768-7.488-1.584c-0.983-0.297-6.687-2.241-7.776-1.152c-0.477,0.477,0.513,2.763,0.434,2.304
	c1.162,6.621-1.237,15.359-1.44,18.576c-0.47,7.413-4.749,16.893-7.632,23.617c-9.664,22.535-22.182,40.246-45.504,48.672
	c-7.512,2.713-15.52,4.764-24.337,1.871c-6.713-2.201-13.127-8.801-21.024-8.496c-7.478,0.289-11.701,7.873-22.464,7.057
	c-7.485-0.567-12.935-5.145-17.136-9.648c-1.193-1.277-4.369-4.048-3.6-5.903c-1.667,0.554-4.512-5.661-5.328-7.488
	c-3.653-8.177-4.626-21.061-4.032-32.256c0.839-15.797,7.955-24.149,19.008-30.24c7.669-4.226,14.564-8.515,25.056-10.656
	c9.918-2.024,22.132-0.275,33.264-0.72c17.866-0.714,30.631-5.18,44.928-8.64c6.086-1.473,13.497-0.851,18.72-2.016
	c0.041,0.797,1.539,2.554,2.881,2.16c-1.414,0.986-3.336,1.465-4.896,2.304c2.57,0.826,4.484,1.818,6.191,3.456
	c0.834,0.8,2.223,3.999,2.881,4.32c0.411,0.201,1.39-0.856,1.728-1.008c7.614-3.423,13.382,3.412,21.024,2.16
	c6.166-1.01,4.479-10.339,2.016-13.536c-2.32-3.013-7.568-2.066-9.792-4.896c-1.921-2.445,2.328-5.546,1.296-8.496
	c-1.498-4.282-13.559-3.539-16.56,0.288C207.283,87.912,210.021,92.563,205.152,91.848z M211.2,120.792
	c0.116-3.956-0.434-7.247-1.584-9.936c-2.451-5.561-8.139-9.273-16.128-8.352c-8.682,0.26-15.393,3.521-23.473,5.616
	c-7.32,1.898-14.815,3.43-23.04,4.032c-10.549,0.772-21.196-0.944-31.536-0.288c-13.432,0.853-22.154,6.327-32.112,11.088
	c-14.36,6.866-18.9,17.253-18,37.728c0.618,14.055,3.049,22.404,9.648,30.528c4.077,5.02,10.074,11.232,19.152,11.232
	c8.699,0,13.12-7.526,21.312-7.056c10.382,0.596,16.565,9.326,27.792,10.08c6.281,0.42,11.48-1.037,16.272-3.744
	c22.449-7.504,33.391-26.513,42.768-47.088c0-0.049,0-0.096,0-0.144c1.852-2.888,4.021-12.617,5.904-14.833
	c-1.008-1.792,1.071-2.518,0.721-0.72c0.645-0.588-1.506-3.115,0-3.312c0.171-0.022,3.293,3.086,1.871,0
	c0.274,0.669,0.429,1.065-0.287,1.152c-2.393,0.29-1.031-3.403-0.863-4.176C210.249,129.652,210.959,123.817,211.2,120.792z"/>
<path id="path-3" fill="#BD4D24" d="M193.488,102.504c7.988-0.921,13.677,2.792,16.128,8.352c1.124,1.652,0.484,6.441-2.017,6.192
	c-0.535-0.053-2.633-2.776-3.455-3.6c-2.283-2.282-6.416-6.026-5.186-9.072C196.947,105.91,196.839,101.456,193.488,102.504z"/>
<path id="path-4" fill="#CE5E18" d="M193.488,102.504c3.351-1.048,3.459,3.406,5.471,1.872c-1.23,3.045,2.902,6.79,5.186,9.072
	c0.822,0.824,2.92,3.547,3.455,3.6c2.501,0.249,3.141-4.54,2.017-6.192c1.15,2.689,1.7,5.98,1.584,9.936
	c-1.342-0.145-2.188-3.39-3.312-3.456c-0.57-0.034-2.979,2.977-3.744,3.744c-2.169,2.168-6.199,6.551-3.889,10.224
	c-0.425-0.199-0.583-0.665-1.008-0.864c0.57,4.729-5.334,12.826-4.896,16.128c0.131,0.984,2.93,3.432,3.744,1.872
	c-0.416,0.457-0.801,1.018-1.296,1.008c2.179,1.314,3.752,3.714,5.472,5.041c0,0.047,0,0.096,0,0.143
	c-2.014-0.037-3.19-4.721-5.184-4.896c-0.921-0.081-3.113,2.97-3.6,3.456c-3.799,3.797-3.662,4.635-4.609,11.664
	c-1.186,8.803-6.47,13.967-11.231,19.728c-2.548,3.083-6.524,5.56-2.448,8.063c-2.615-4.225-4.587,0.334-7.056,2.592
	c-2.63,2.404-6.337,4.398-6.192,5.473c-0.661-0.527-1.386,0.475-2.447,1.008c-4.792,2.708-9.991,4.164-16.272,3.744
	c-11.227-0.753-17.411-9.484-27.792-10.08c-8.192-0.471-12.613,7.057-21.312,7.057c-9.078,0-15.075-6.213-19.152-11.233
	c-6.6-8.124-9.03-16.474-9.648-30.528c-0.9-20.474,3.64-30.861,18-37.728c9.958-4.762,18.681-10.235,32.112-11.088
	c10.34-0.657,20.987,1.06,31.536,0.288c8.224-0.602,15.72-2.134,23.04-4.032C178.096,106.025,184.807,102.764,193.488,102.504z
	 M163.824,112.44c-6.592,1.712-13.958,2.948-21.888,3.168c-16.106,0.448-32.213-2.399-43.488,5.184
	c3.882-0.707,7.797,1.238,11.376,0.864c3.09-0.323,6.14-2.243,9.36-2.88c10.789-2.133,22.931-0.001,34.848-0.864
	c15.457-1.119,26.503-6.893,40.896-8.208C185.922,103.693,173.386,109.956,163.824,112.44z M76.416,134.328
	c-2.877,2.189-3.162,2.234-3.6,6.48c-0.286,2.764-1.829,6.541-2.016,10.656c-0.601,13.231,0.998,25.216,5.184,32.544
	c2.624,4.592,10.938,13.402,19.584,12.672c7.969-0.674,10.882-6.993,19.296-6.912c13.304,0.127,17.388,10.396,31.248,10.225
	c10.687-0.134,17.906-8.199,23.184-14.113c5.713-6.401,13.435-13.363,14.257-23.184c1.199-14.336-8.832-28.131-19.441-31.104
	c-5.605-1.571-11.944,0.864-19.151,0.864c-4.715,0-11.235,0.487-15.12-1.296c-1.75-0.803-0.618-0.633-2.448-0.432
	c-4.647,0.511-10.545-2.232-15.696-3.168c-5.157-0.938-11.994-1.696-17.712-1.152C85.022,127.261,81.774,130.25,76.416,134.328z"/>
<path id="path-5" fill="#BD4D24" d="M159.504,201.721c1.063-0.534,1.787-1.536,2.448-1.01c-0.144-1.072,3.563-3.067,6.192-5.471
	c2.469-2.259,4.439-6.817,7.056-2.592c-4.077-2.506-0.101-4.981,2.448-8.064c4.762-5.761,10.046-10.924,11.231-19.729
	c0.946-7.028,0.811-7.865,4.608-11.662c0.486-0.487,2.68-3.538,3.6-3.457c1.993,0.174,3.17,4.858,5.185,4.896
	C192.895,175.207,181.953,194.216,159.504,201.721z"/>
<path id="path-6" fill="#FFFFFF" d="M194.928,109.704c-14.393,1.315-25.438,7.089-40.896,8.208
	c-11.917,0.863-24.059-1.27-34.848,0.864c-3.22,0.637-6.27,2.557-9.36,2.88c-3.579,0.375-7.494-1.57-11.376-0.864
	c11.274-7.583,27.382-4.736,43.488-5.184c7.93-0.221,15.296-1.456,21.888-3.168C173.386,109.956,185.922,103.693,194.928,109.704z"
	/>
<path id="path-7" fill="#BD4D24" d="M202.271,154.488c-1.72-1.326-3.293-3.727-5.472-5.041c0.495,0.01,0.88-0.551,1.296-1.008
	c-0.814,1.56-3.613-0.888-3.744-1.872c-0.438-3.301,5.467-11.399,4.896-16.128c0.425,0.199,0.583,0.665,1.008,0.864
	c-2.311-3.673,1.72-8.056,3.889-10.224c0.766-0.768,3.174-3.777,3.744-3.744c1.123,0.065,1.969,3.312,3.312,3.456
	c-0.241,3.025-0.951,8.861-1.584,11.808c-0.167,0.772-1.53,4.466,0.863,4.176c0.716-0.087,0.563-0.483,0.288-1.152
	c1.422,3.086-1.701-0.023-1.872,0c-1.506,0.197,0.645,2.724,0,3.312c0.351-1.798-1.729-1.072-0.72,0.72
	C206.292,141.871,204.123,151.6,202.271,154.488z"/>
<path id="path-8" fill="#FEE9D2" d="M93.984,126.408c5.718-0.544,12.555,0.214,17.712,1.152c5.15,0.936,11.049,3.679,15.696,3.168
	c1.831-0.201,0.698-0.371,2.448,0.432c3.886,1.782,10.405,1.296,15.12,1.296c7.206,0,13.546-2.436,19.151-0.864
	c10.609,2.974,20.64,16.769,19.439,31.104c-0.82,9.822-8.542,16.783-14.256,23.185c-5.278,5.915-12.496,13.979-23.184,14.112
	c-13.86,0.172-17.944-10.096-31.248-10.224c-8.414-0.081-11.327,6.237-19.296,6.912c-8.646,0.731-16.961-8.08-19.584-12.672
	c-4.186-7.327-5.785-19.313-5.184-32.544c0.188-4.114,1.73-7.892,2.016-10.656c0.438-4.246,0.723-4.291,3.6-6.48
	C81.774,130.25,85.022,127.261,93.984,126.408z M168.864,176.232c0.494-0.929,2.673-2.213,3.6-3.024
	c8.189-7.169,5.327-20.662-0.288-28.224c-0.234-0.315-2.117-3.562-3.023-3.456c0.01-0.001-1.029,1.787-1.297,1.296
	c-0.068-0.128,1.126-4.333-0.287-1.152c-0.861,1.94-4.362,2.85-6.336,1.728c-0.937-0.531-3.178-6.063-2.16-6.336
	c-4.709,1.264-14.625,1.246-20.16,0.864c-4.496-0.31-11.399-2.656-13.968-1.728c-1.79,0.646-0.441,0.57-2.304-0.432
	c-3.402-1.831-13.053-2.785-19.152-3.456c-2.449-0.27-5.655-0.468-8.496-0.288c-4.045,0.256-12.216,2.047-12.672,4.464
	c-0.307,1.625,1.471,3.493,0.144,5.472c-1.996,2.975,1.293-4.606-1.008-4.752c-1.112-0.071-0.036,2.14,0,2.448
	c0.36,3.157-2.243,2.514-3.744,4.32c-1.447,1.741-1.296,7.422-1.296,10.944c0,7.189,0.205,23.457,4.464,23.473
	c-1.894,0.982,1.225,2.646,0.576,0.576c-0.92,2.311,2.158,5.423,4.752,7.631c2.742,2.336,5.8,4.701,9.216,4.32
	c5.803-0.646,10.284-6.324,17.136-6.768c2.978-0.193,3.06,0.703,3.168-1.729c0.302-6.771,10.207-6.055,10.656-0.145
	c0.176,2.314-1.485,2.857-1.296,3.744c0.169,0.792,8.152,4.021,9.216,4.608c5.295,2.918,16.82,5.771,21.313,0.144
	c0.129-0.162,1.919-2.836,0.287-2.592c0.94-0.141,1.962,2.621,1.871-0.576c0.771,3.295,0.789-2.253,1.873-1.439
	c1.113,0.838-0.811,1.289-0.576,0.433c-0.479,2.161,1.656-0.107,1.728-0.433c0.198-0.894-0.946-1.791,0.433-1.871
	c2.166-0.125,0.702,0.693,1.008-1.008c0.297-1.653,1.197-0.673,2.448-1.01c1.317-0.354,0.155-2.874,1.009-2.447
	c-0.334-0.166,0.182,1.388-0.145,1.009c0.525,0.612,1.416-1.877,0.145-2.161c0.641,0.893,1.047-0.68,1.584-0.287
	c-2.062,2.188,1.924,0.438,0.432-1.008C169.063,178.744,168.512,176.895,168.864,176.232z"/>
<path id="path-9" fill="#FBF5E7" d="M118.032,154.057c4.784-0.821,7.902,5.174,13.968,5.615c4.138,0.301,8.529-0.704,8.784,3.6
	c0.274,4.646-6.83,11.131-11.52,10.656c-3.5-0.354-3.371-4.973-7.056-6.048c-3.882-1.133-6.815,2.706-10.08,0.433
	C106.466,164.371,113.446,154.843,118.032,154.057z M113.856,165.145c1.268,1.383,5.876-1.156,8.064-0.865
	c4.341,0.577,5.415,5.743,7.776,6.193c1.664,0.315,4.788-2.672,5.76-3.744c0.438-0.484,2.345-2.84,1.584-3.601
	c-0.47-0.47-5.416-0.044-6.192-0.144c-5.215-0.672-9.715-6.074-12.672-5.328C116.474,158.086,111.763,162.858,113.856,165.145z"/>
<path id="path-10" fill="#CE5E18" d="M96.72,163.271c1.695,1.211,5.629,4.363,2.16,6.912c-1.442,1.061-3.45,5.764-5.472,5.616
	C89.307,175.502,87.975,157.027,96.72,163.271z"/>
<path id="path-11" fill="#AA3423" d="M167.712,177.385c1.493,1.446-2.492,3.195-0.433,1.008c-0.535-0.392-0.941,1.18-1.584,0.287
	c1.272,0.284,0.383,2.773-0.144,2.161c0.326,0.379-0.188-1.175,0.144-1.009c-0.853-0.427,0.311,2.094-1.008,2.447
	c-1.25,0.337-2.15-0.644-2.447,1.01c-0.307,1.701,1.158,0.883-1.009,1.008c-1.379,0.08-0.233,0.978-0.433,1.871
	c-0.071,0.325-2.205,2.594-1.728,0.433c-0.233,0.856,1.69,0.405,0.576-0.433c-1.085-0.813-1.102,4.735-1.872,1.439
	c0.09,3.197-0.932,0.436-1.872,0.576c1.632-0.244-0.159,2.432-0.287,2.592c-4.492,5.627-16.017,2.774-21.313-0.144
	c-1.064-0.587-9.047-3.815-9.216-4.608c-0.189-0.887,1.472-1.43,1.296-3.744c-0.45-5.91-10.354-6.627-10.656,0.145
	c-0.109,2.432-0.19,1.535-3.168,1.729c-6.853,0.443-11.333,6.121-17.136,6.768c-3.416,0.381-6.474-1.985-9.216-4.32
	c-2.594-2.208-5.673-5.32-4.752-7.631c0.648,2.07-2.47,0.406-0.576-0.576c-4.259-0.016-4.464-16.283-4.464-23.473
	c0-3.521-0.151-9.203,1.296-10.944c1.5-1.806,4.104-1.164,3.744-4.32c-0.036-0.308-1.113-2.519,0-2.448
	c2.301,0.146-0.988,7.727,1.008,4.752c1.327-1.979-0.451-3.847-0.144-5.472c0.456-2.417,8.627-4.208,12.672-4.464
	c2.841-0.18,6.047,0.019,8.496,0.288c6.1,0.671,15.75,1.625,19.152,3.456c1.862,1.002,0.514,1.078,2.304,0.432
	c2.569-0.928,9.472,1.418,13.968,1.728c5.535,0.381,15.452,0.4,20.16-0.864c-1.018,0.273,1.224,5.805,2.16,6.336
	c1.974,1.122,5.474,0.212,6.337-1.728c1.412-3.182,0.217,1.024,0.287,1.152c0.268,0.49,1.306-1.297,1.296-1.296
	c0.907-0.105,2.79,3.141,3.024,3.456c5.614,7.562,8.478,21.055,0.287,28.224c-0.926,0.812-3.105,2.096-3.6,3.024
	C168.512,176.895,169.063,178.744,167.712,177.385z M143.808,181.561c3.616,8.135,11.579-10.129,7.2-9.937
	C147.494,171.779,141.748,176.924,143.808,181.561z M93.408,175.8c2.022,0.147,4.029-4.557,5.472-5.616
	c3.469-2.548-0.464-5.701-2.16-6.912C87.975,157.027,89.307,175.502,93.408,175.8z M112.128,168.313
	c3.265,2.273,6.199-1.564,10.08-0.433c3.686,1.075,3.556,5.694,7.056,6.048c4.69,0.475,11.795-6.01,11.52-10.656
	c-0.255-4.304-4.646-3.299-8.784-3.6c-6.065-0.441-9.184-6.438-13.968-5.615C113.446,154.843,106.466,164.371,112.128,168.313z
	 M104.064,174.072c-0.126,1.205,4.493,4.8,6.48,5.328c7.553,2.006,7.165-9.432,0.144-8.353
	C109.653,171.207,104.19,172.867,104.064,174.072z M124.368,147c-4.972,2.166,5.157,7.838,7.2,8.208c3.977,0.718,4.74-3.7,5.616-7.2
	c0.459-1.836,2.697-5.468-0.144-5.184C133.492,143.179,127.484,145.642,124.368,147z M89.808,145.272
	c-1.704,4.535,8.382,8.416,12.096,8.496c2.818,0.062,6.124-0.98,6.192-3.168c0.142-4.523-11.065-7.678-14.832-7.2
	C92.245,143.53,90.197,144.238,89.808,145.272z"/>
<path id="path-12" fill="#CE5E18" d="M93.264,143.4c3.767-0.479,14.974,2.676,14.832,7.2c-0.068,2.188-3.375,3.229-6.192,3.168
	c-3.714-0.08-13.799-3.961-12.096-8.496C90.197,144.238,92.245,143.53,93.264,143.4z"/>
<path id="path-13" fill="#CE5E18" d="M137.04,142.824c2.841-0.284,0.604,3.349,0.144,5.184c-0.876,3.5-1.64,7.918-5.616,7.2
	c-2.043-0.369-12.171-6.042-7.2-8.208C127.484,145.642,133.492,143.179,137.04,142.824z"/>
<path id="path-14" fill="#CE5E18" d="M110.688,171.048c7.021-1.079,7.409,10.358-0.144,8.353c-1.988-0.528-6.606-4.123-6.48-5.328
	S109.653,171.207,110.688,171.048z"/>
<path id="path-15" fill="#CE5E18" d="M151.008,171.624c4.379-0.192-3.584,18.07-7.2,9.937
	C141.748,176.924,147.494,171.779,151.008,171.624z"/>
</svg>
