<?xml version="1.0" encoding="utf-8"?>
<!-- Generator: Adobe Illustrator 15.0.0, SVG Export Plug-In . SVG Version: 6.00 Build 0)  -->
<!DOCTYPE svg PUBLIC "-//W3C//DTD SVG 1.1//EN" "http://www.w3.org/Graphics/SVG/1.1/DTD/svg11.dtd">
<svg version="1.1" id="Layer_1" xmlns="http://www.w3.org/2000/svg" xmlns:xlink="http://www.w3.org/1999/xlink" x="0px" y="0px"
	 width="148.859px" height="130.901px" viewBox="0 0 148.859 130.901" enable-background="new 0 0 148.859 130.901"
	 xml:space="preserve">
<g>
	<g>
		<polygon fill="#9F5E53" points="98.555,130.901 95.641,130.901 96.7,97.908 105.44,98.713 		"/>
		<polygon fill="#9F5E53" points="78.426,130.901 75.512,130.901 68.893,98.98 77.819,99.758 		"/>
		<polygon fill="#9F5E53" points="49.801,130.901 47.455,130.901 46.176,98.177 53.264,98.976 		"/>
		<polygon fill="#9F5E53" points="33.666,130.901 30.751,130.901 25.191,97.908 34.091,98.713 		"/>
		<g>
			<polygon fill="#7F443C" points="96.7,97.908 96.047,118.263 101.258,118.263 105.44,98.713 			"/>
			<polygon fill="#7F443C" points="68.893,98.98 72.891,118.263 78.18,118.263 77.819,99.758 			"/>
			<polygon fill="#7F443C" points="46.176,98.177 46.961,118.263 51.172,118.263 53.264,98.976 			"/>
			<polygon fill="#7F443C" points="25.191,97.908 28.622,118.263 33.833,118.263 34.091,98.713 			"/>
		</g>
		<path fill="#E6CDBE" d="M137.223,24.41c0,0,6.621-2.681,2.647-7.778c-3.972-5.098-11.918-1.342-11.918-1.342
			s5.562-6.168-0.794-9.924c-6.357-3.756-6.62,2.682-6.62,2.682s-1.06-8.582-5.562-7.51c-4.505,1.072-4.77,6.438-4.77,6.438
			s0.53-7.779-5.826-5.902c-6.357,1.879-3.707,9.657-3.707,9.657S94.05,6.44,90.607,14.218c-2.313,5.225-0.922,7.175,0.242,7.896
			c-1.648-0.563-4.738-1.313-6.068,0.417c-0.996,1.297-0.385,3.518,0.391,5.299c-0.738-0.588-1.801-0.703-3.305,0.604
			c-2.354,2.044-1.931,4.842-1.309,6.613c-0.787-1.341-2.184-2.861-4.253-2.054c-2.195,0.856-2.235,3.671-1.978,5.602
			c-0.6-1.837-2.121-4.358-5.969-4.528c-5.463-0.242-5.601,5.115-5.57,6.225c-0.061-1.109-0.646-6.467-6.348-6.225
			c-4.881,0.206-5.699,1.831-5.816,2.576c0.008-1.506-0.33-7.136-5.837-7.136c-6.357,0-5.828,4.828-5.828,4.828
			s-1.589-5.365-6.886-3.757c-5.296,1.609-5.562,7.243-5.562,7.243s-4.237-7.778-10.595-5.364c-6.356,2.413-3.973,9.12-3.973,9.12
			s-7.149-1.072-10.592,7.243c-3.445,8.313,5.031,11.802,5.031,11.802S1.881,62.5,1.881,65.72c0,3.219,3.973,5.096,3.973,5.096
			s-5.562,1.342-5.562,7.779c0,6.437,4.767,6.438,4.767,6.438S2.94,86.91,4.265,89.325c1.324,2.413,5.562,0.804,5.562,0.804
			s-5.032,7.78,0.528,11.535c5.562,3.755,10.067,2.146,10.067,2.146s1.322,3.219,5.825,4.827c4.504,1.61,9.006-3.484,9.006-3.484
			s1.323,5.363,7.151,6.168c5.828,0.805,10.329-4.56,10.329-4.56s4.237,3.755,8.474,3.755c4.24,0,7.152-5.633,7.152-5.633
			s3.707,7.781,10.329,8.585c4.54,0.55,8.212-4.292,8.212-4.292s1.653,7.555,11.389,5.363c7.151-1.609,5.297-8.314,5.297-8.314
			s5.146,4.442,9.535,0.805c2.912-2.413,5.033-5.635,2.383-8.584c0,0,3.443,0.805,5.563-2.414c2.12-3.219-0.002-4.829-1.855-5.633
			c0,0,8.477-4.022,10.596-12.338c2.119-8.317-5.826-12.608-5.826-12.608s8.211-0.268,7.416-8.584
			c-0.318-3.322-1.48-5.015-2.764-5.853c2.783,0.109,6.301-0.363,8.324-2.999c3.709-4.827-0.266-9.656-0.266-9.656
			s10.861,2.144,10.861-4.562C147.553,27.094,137.223,24.41,137.223,24.41z"/>
		<g>
			<path fill="#EDD9CC" d="M54.542,90.239c35.504-11.107,58.938-37.203,52.343-58.287c-2.357-7.536-8.246-13.4-16.445-17.333
				c-2.061,4.917-0.723,6.793,0.41,7.496c-1.648-0.563-4.738-1.313-6.068,0.417c-0.996,1.297-0.385,3.518,0.391,5.299
				c-0.738-0.588-1.801-0.703-3.305,0.604c-2.354,2.044-1.931,4.842-1.309,6.613c-0.787-1.341-2.184-2.861-4.253-2.054
				c-2.195,0.856-2.235,3.671-1.978,5.602c-0.6-1.837-2.121-4.358-5.969-4.528c-5.463-0.242-5.601,5.115-5.57,6.225
				c-0.061-1.109-0.646-6.467-6.348-6.225c-4.881,0.206-5.699,1.831-5.816,2.576c0.008-1.506-0.33-7.136-5.837-7.136
				c-6.357,0-5.828,4.828-5.828,4.828s-1.589-5.365-6.886-3.757c-5.296,1.609-5.562,7.243-5.562,7.243s-4.237-7.778-10.595-5.364
				c-6.356,2.413-3.973,9.12-3.973,9.12s-7.149-1.072-10.592,7.243c-3.445,8.313,5.031,11.802,5.031,11.802S1.881,62.5,1.881,65.72
				c0,3.219,3.973,5.096,3.973,5.096s-5.562,1.342-5.562,7.779c0,6.437,4.767,6.438,4.767,6.438S2.94,86.91,4.265,89.325
				c1.324,2.413,5.562,0.804,5.562,0.804s-1.036,1.606-1.648,3.709C21.53,96.437,37.884,95.45,54.542,90.239z"/>
		</g>
		<path fill="#EFDED3" d="M75.958,101.386c3.845,0.415,6.954-3.237,6.954-3.237s1.399,5.698,9.643,4.045
			c6.056-1.213,4.485-6.271,4.485-6.271s4.358,3.351,8.074,0.606c2.466-1.819,4.261-4.25,2.018-6.475c0,0,2.916,0.607,4.71-1.82
			c1.794-2.429-0.002-3.643-1.57-4.248c0,0,7.178-3.034,8.971-9.308c1.795-6.272-4.934-9.509-4.934-9.509s6.953-0.203,6.279-6.476
			c-0.672-6.271-5.83-4.854-5.83-4.854s7.4,1.82,10.539-1.821c3.141-3.642-0.225-7.283-0.225-7.283s9.197,1.616,9.197-3.441
			s-8.747-7.08-8.747-7.08s10.202-7.469,6.838-11.314c-3.362-3.845-10.091-1.012-10.091-1.012s4.709-4.652-0.673-7.486
			c-5.384-2.832-5.827,0.236-5.827,0.236s-1.938-6.559-5.75-5.75c-3.814,0.809-2.775,6.729-2.775,6.729s-3.093-3.895-8.475-2.479
			c-5.384,1.416-2,10-2,10s-4.835-3.866-7.75,2c-2.916,5.867,0,6.25,0,6.25s-6.331-0.41-7.902,1.41
			c-1.57,1.82,1.569,6.068,1.569,6.068s-0.897-4.045-4.036-1.617c-3.139,2.428-0.449,6.271-0.449,6.271s-1.346-3.845-4.261-2.832
			c-2.915,1.012-1.345,5.665-1.345,5.665s-0.226-4.653-5.384-4.856c-5.157-0.203-4.71,4.856-4.71,4.856s0-5.06-5.382-4.856
			c-5.382,0.204-4.934,2.226-4.934,2.226s0.448-5.664-4.934-5.664c-5.383,0-4.935,3.642-4.935,3.642s-1.345-4.047-5.831-2.834
			c-4.485,1.215-4.709,5.464-4.709,5.464s-3.588-5.866-8.972-4.046c-5.382,1.82-3.364,6.879-3.364,6.879s-6.054-0.81-8.969,5.463
			c-2.917,6.271,4.26,8.902,4.26,8.902s-3.813,1.415-3.813,3.844c0,2.428,3.364,3.844,3.364,3.844s-4.709,1.012-4.709,5.867
			c0,4.856,4.037,4.856,4.037,4.856s-1.794,1.414-0.672,3.236c1.121,1.819,4.709,0.605,4.709,0.605s-5.339,8.773-0.63,11.605
			c4.709,2.833,11.25-5.25,11.25-5.25s-1.313,8.287,2.5,9.5c3.814,1.216,8.41-4.524,8.41-4.524s1.121,4.046,6.056,4.652
			s8.535-2.628,8.535-2.628s3.662,6,7.25,6c3.589,0,6-5,6-5S70.352,100.779,75.958,101.386z"/>
		<path opacity="0.4" fill="#AF8C74" enable-background="new    " d="M128.633,51.015c1.836,0.072,3.984-0.124,5.819-1.013
			c-3.182-2.864-6.347-6.591-9.146-10.953c-5.94-9.255-8.574-18.8-7.361-24.731c-1.538-0.166-2.973,0.1-4.26,0.904
			c-12,7.5-11,13-11,13c-0.752,2.105-4.35,28.644,25.953,35.637c1.689-1.201,3.109-3.302,2.758-6.991
			C131.078,53.545,129.916,51.853,128.633,51.015z"/>
		<path fill="#917C6F" d="M132.025,53.366c-0.396,2.414-1.438,6.64-7.197,6.438c-5.762-0.202-5.782-7.338-1.809-12.166
			C126.99,42.811,132.025,53.366,132.025,53.366z"/>
		<path fill="#C4AB9D" d="M131.156,54.064c-0.32,1.956-1.163,5.38-5.831,5.217c-4.669-0.164-4.685-5.945-1.466-9.857
			C127.078,45.512,131.156,54.064,131.156,54.064z"/>
		<path fill="#917C6F" d="M133.315,52.465c-0.704,1.813-2.305,4.93-8.401,3.85c-6.097-1.081-5.281-6.63-0.494-9.745
			C129.206,43.452,133.315,52.465,133.315,52.465z"/>
		<path fill="#A59083" d="M100.992,18.354c-4.051-5.18-19.828-2.426-19.633,7.148C81.545,34.647,103.647,21.749,100.992,18.354z"/>
		<path fill="#A59083" d="M129.229,17.353c-0.562,5.547,10.694,13.105,16.185,7.124C150.66,18.767,129.596,13.718,129.229,17.353z"
			/>
		<path fill="#A4A436" d="M123.399,54.132c-3.085-0.085-5.903-0.176-12.584,1.542c0,0,4.929-2.227,5.858-2.777
			c0,0-5.783-0.849-12.16,3.01c0,0,5.287-5.046,10.65-5.132c0,0-10.752-1.305-15.523,2.259c0,0,7.682-6.16,22.614-3.445
			L123.399,54.132z"/>
		<path fill="#9E9E36" d="M125.283,54.47c3.053,0.453,5.843,0.855,12.154,3.563c0,0-4.507-2.87-5.336-3.528
			c0,0,5.828,0.223,11.508,4.823c0,0-4.42-5.491-9.689-6.491c0,0,10.795,0.661,14.939,4.721c0,0-6.605-6.918-21.739-7.018
			L125.283,54.47z"/>
		<path fill="#A59083" d="M135.75,50.431c-1.248,4.804-7.443,9.053-19.966-0.806c-13.659-10.752-15.158-19.158-13.831-26.153
			c2.213-11.668,17.185-15.49,23.738-7.645C132.248,23.674,136.744,46.607,135.75,50.431z"/>
		<path fill="#C4AB9D" d="M133.77,46.388c-0.375,4.125-3.853,11.858-16.375,2c-13.66-10.752-16.31-20.382-13.125-26.75
			c4-8,13.57-11.721,20.125-3.875C130.949,25.609,134.127,42.454,133.77,46.388z"/>
		<path fill="#7B665A" d="M99.404,18.581c-2.786-3.432-13.356-1.391-13.111,5.041C86.529,29.769,101.23,20.832,99.404,18.581z"/>
		<path fill="#7B665A" d="M131.363,18.616c2.377-2.672,10.764-0.69,10.299,4.474C141.215,28.021,129.807,20.367,131.363,18.616z"/>
		<path fill="#524138" d="M123.563,28.799c2.676,0.805,4.072,1.508,5.934,0.302c0,0,0.117,1.911-2.56,1.811
			S123.563,28.799,123.563,28.799z"/>
		<path fill="#524138" d="M110.365,28.546c2.973,0.698,4.53,1.35,6.566,0.068c0,0,0.164,1.906-2.795,1.911
			C111.177,30.53,110.365,28.546,110.365,28.546z"/>
		<path fill="#EFDED3" d="M117.02,82.055c3.918-3.755,10.833,0.5,5.666,4S113.02,85.888,117.02,82.055z"/>
		<path fill="#917C6F" d="M128.353,50.805c-0.083,0.833-1.667,3.832-2.417,4.416l1.667,0.334c0,0,1.833-3.583,1.75-5L128.353,50.805
			z"/>
		<path fill="#524138" d="M122.271,46.91c1.253-1.357,10.662-2.314,11.367-1.107c0.703,1.208-3.32,5.432-5.029,5.432
			C126.898,51.234,121.064,48.217,122.271,46.91z"/>
		<g>
			<ellipse fill="#FDF0E7" cx="60.52" cy="83.888" rx="7.5" ry="4.75"/>
			<ellipse fill="#FDF0E7" cx="51.019" cy="82.388" rx="5.912" ry="3.744"/>
			<ellipse fill="#FDF0E7" cx="43.269" cy="68.888" rx="5.912" ry="3.744"/>
			<ellipse fill="#FDF0E7" cx="36.019" cy="70.138" rx="5.912" ry="3.744"/>
			<ellipse fill="#FDF0E7" cx="41.269" cy="63.388" rx="5.912" ry="3.744"/>
			<ellipse fill="#FDF0E7" cx="51.602" cy="52.722" rx="5.912" ry="3.744"/>
			<ellipse fill="#FDF0E7" cx="36.857" cy="53.722" rx="5.912" ry="3.744"/>
			<ellipse fill="#FDF0E7" cx="77.19" cy="50.222" rx="5.912" ry="3.744"/>
			<ellipse fill="#FDF0E7" cx="98.523" cy="76.888" rx="5.912" ry="3.744"/>
			<ellipse fill="#FDF0E7" cx="102.523" cy="69.055" rx="5.912" ry="3.744"/>
			<ellipse fill="#FDF0E7" cx="65.357" cy="90.055" rx="5.912" ry="3.744"/>
			<ellipse fill="#FDF0E7" cx="48.269" cy="63.638" rx="5.912" ry="3.744"/>
			<ellipse fill="#FDF0E7" cx="54.02" cy="78.138" rx="7.5" ry="4.75"/>
			<ellipse fill="#FDF0E7" cx="43.019" cy="82.138" rx="7.5" ry="4.75"/>
			<ellipse fill="#FDF0E7" cx="32.353" cy="78.805" rx="7.5" ry="4.75"/>
			<ellipse fill="#FDF0E7" cx="55.353" cy="59.139" rx="7.5" ry="4.75"/>
			<ellipse fill="#FDF0E7" cx="45.353" cy="57.472" rx="7.5" ry="4.75"/>
			<ellipse fill="#FDF0E7" cx="52.019" cy="69.888" rx="7.5" ry="4.75"/>
			<ellipse fill="#FDF0E7" cx="41.519" cy="75.388" rx="7.5" ry="4.75"/>
			
				<ellipse transform="matrix(0.0982 0.9952 -0.9952 0.0982 117.3006 -19.2764)" fill="#FDF0E7" cx="69.286" cy="55.084" rx="4.751" ry="7.501"/>
			
				<ellipse transform="matrix(0.0981 0.9952 -0.9952 0.0981 126.5211 -28.3303)" fill="#FDF0E7" cx="78.891" cy="55.641" rx="3.744" ry="5.912"/>
			
				<ellipse transform="matrix(0.0981 0.9952 -0.9952 0.0981 147.2878 -25.8903)" fill="#FDF0E7" cx="87.928" cy="68.316" rx="3.745" ry="5.912"/>
			
				<ellipse transform="matrix(0.0982 0.9952 -0.9952 0.0982 151.7288 -34.716)" fill="#FDF0E7" cx="95.02" cy="66.361" rx="3.744" ry="5.912"/>
			
				<ellipse transform="matrix(0.0981 0.9952 -0.9952 0.0981 154.8247 -23.6474)" fill="#FDF0E7" cx="90.458" cy="73.592" rx="3.744" ry="5.912"/>
			
				<ellipse transform="matrix(0.0982 0.9952 -0.9952 0.0982 148.9434 -16.3015)" fill="#FDF0E7" cx="83.466" cy="74.031" rx="3.744" ry="5.912"/>
			
				<ellipse transform="matrix(0.0982 0.9952 -0.9952 0.0982 128.7053 -21.6922)" fill="#FDF0E7" cx="76.321" cy="60.167" rx="4.75" ry="7.499"/>
			
				<ellipse transform="matrix(0.0982 0.9952 -0.9952 0.0982 133.184 -36.7591)" fill="#FDF0E7" cx="86.875" cy="55.108" rx="4.75" ry="7.5"/>
			
				<ellipse transform="matrix(0.0982 0.9952 -0.9952 0.0982 145.3095 -45.6005)" fill="#FDF0E7" cx="97.816" cy="57.378" rx="4.75" ry="7.5"/>
			
				<ellipse transform="matrix(0.0982 0.9952 -0.9952 0.0982 148.1362 -5.0572)" fill="#FDF0E7" cx="76.858" cy="79.206" rx="4.75" ry="7.5"/>
			
				<ellipse transform="matrix(0.0982 0.9952 -0.9952 0.0982 134.1164 3.0799)" fill="#FDF0E7" cx="65.359" cy="75.538" rx="4.75" ry="7.5"/>
			
				<ellipse transform="matrix(0.0982 0.9952 -0.9952 0.0982 139.7093 -8.7671)" fill="#FDF0E7" cx="74.692" cy="72.705" rx="4.75" ry="7.5"/>
			
				<ellipse transform="matrix(0.0982 0.9952 -0.9952 0.0982 157.9311 -14.511)" fill="#FDF0E7" cx="86.972" cy="79.885" rx="4.749" ry="7.502"/>
			
				<ellipse transform="matrix(0.0608 0.9982 -0.9982 0.0608 149.9855 6.9361)" fill="#FDF0E7" cx="71.307" cy="83.166" rx="4.748" ry="7.501"/>
			
				<ellipse transform="matrix(0.0608 0.9982 -0.9982 0.0608 165.1316 0.1716)" fill="#FDF0E7" cx="82.475" cy="87.832" rx="4.748" ry="7.501"/>
			
				<ellipse transform="matrix(0.0981 0.9952 -0.9952 0.0981 139.21 -17.2511)" fill="#FDF0E7" cx="79.123" cy="68.18" rx="4.75" ry="7.5"/>
			
				<ellipse transform="matrix(0.0981 0.9952 -0.9952 0.0981 125.1819 -6.1012)" fill="#FDF0E7" cx="65.957" cy="66.014" rx="9.964" ry="15.732"/>
			
				<ellipse transform="matrix(0.0982 0.9952 -0.9952 0.0982 141.6649 -32.9799)" fill="#FDF0E7" cx="89.03" cy="61.678" rx="4.75" ry="7.5"/>
		</g>
		<ellipse fill="#FDF0E7" cx="22.436" cy="61.054" rx="4.917" ry="2.833"/>
		<ellipse fill="#FDF0E7" cx="24.769" cy="50.887" rx="4.917" ry="2.833"/>
		<ellipse fill="#FDF0E7" cx="31.605" cy="61.736" rx="2.247" ry="1.516"/>
		<path fill="#FDF0E7" d="M24.686,72.569c0-2.035-2.162-3.682-4.831-3.682c-2.668,0-4.83,1.646-4.83,3.682
			c0,2.037,2.162,3.684,4.83,3.684S24.686,74.606,24.686,72.569z"/>
		<path fill="#FDF0E7" d="M93.186,40.902c0-2.035-2.162-3.682-4.83-3.682s-4.83,1.646-4.83,3.682c0,2.037,2.162,3.684,4.83,3.684
			S93.186,42.939,93.186,40.902z"/>
		<path fill="#FDF0E7" d="M19.268,83.569c0-1.578-1.677-2.855-3.747-2.855c-2.069,0-3.746,1.277-3.746,2.855
			c0,1.58,1.677,2.857,3.746,2.857C17.591,86.427,19.268,85.149,19.268,83.569z"/>
		<path fill="#FDF0E7" d="M105.099,93.054c0-1.578-1.677-2.855-3.747-2.855c-2.068,0-3.746,1.277-3.746,2.855
			c0,1.58,1.678,2.857,3.746,2.857C103.422,95.911,105.099,94.634,105.099,93.054z"/>
		<path fill="#FDF0E7" d="M70.766,42.22c0-1.578-1.677-2.855-3.746-2.855c-2.07,0-3.746,1.277-3.746,2.855
			c0,1.58,1.676,2.857,3.746,2.857C69.089,45.077,70.766,43.8,70.766,42.22z"/>
		<path fill="#FDF0E7" d="M94.766,97.888c0-1.578-1.678-2.855-3.747-2.855s-3.746,1.277-3.746,2.855c0,1.58,1.677,2.857,3.746,2.857
			S94.766,99.468,94.766,97.888z"/>
		<path fill="#FDF0E7" d="M103.615,86.134c0-2.179-2.314-3.941-5.172-3.941c-2.856,0-5.171,1.763-5.171,3.941
			c0,2.181,2.314,3.944,5.171,3.944C101.301,90.078,103.615,88.314,103.615,86.134z"/>
		<ellipse fill="#EFDED3" cx="107.582" cy="19.075" rx="4.563" ry="3.813"/>
		
			<ellipse transform="matrix(0.9936 -0.1127 0.1127 0.9936 -0.786 12.4929)" fill="#EFDED3" cx="110.083" cy="13.197" rx="3.812" ry="4.562"/>
		
			<ellipse transform="matrix(0.2324 -0.9726 0.9726 0.2324 76.8009 122.6823)" fill="#EFDED3" cx="116.125" cy="12.685" rx="3.119" ry="3.746"/>
		
			<ellipse transform="matrix(0.2324 -0.9726 0.9726 0.2324 81.0156 132.7726)" fill="#EFDED3" cx="124.625" cy="15.06" rx="3.119" ry="3.746"/>
		
			<ellipse transform="matrix(0.9886 0.1508 -0.1508 0.9886 5.3679 -14.8954)" fill="#EFDED3" cx="100.876" cy="27.938" rx="3.119" ry="3.746"/>
		
			<ellipse transform="matrix(0.8604 -0.5096 0.5096 0.8604 -2.4828 56.5644)" fill="#EFDED3" cx="102" cy="32.814" rx="3.119" ry="3.746"/>
		
			<ellipse transform="matrix(0.9886 0.1508 -0.1508 0.9886 4.6278 -15.3876)" fill="#EFDED3" cx="103.751" cy="22.813" rx="3.119" ry="3.746"/>
	</g>
	<g>
		<g>
			<defs>
				<polygon id="SVGID_2_" points="1,1 2,1 1,2 				"/>
			</defs>
			<defs>
				<polygon id="SVGID_3_" points="-1,-1 -2,-1 -1,-2 				"/>
			</defs>
			<clipPath id="SVGID_4_">
				<use xlink:href="#SVGID_2_"  overflow="visible"/>
			</clipPath>
			<clipPath id="SVGID_5_" clip-path="url(#SVGID_4_)">
				<use xlink:href="#SVGID_3_"  overflow="visible"/>
			</clipPath>
			
				<linearGradient id="SVGID_6_" gradientUnits="userSpaceOnUse" x1="66.2046" y1="810.0425" x2="66.2046" y2="690.0263" gradientTransform="matrix(1 0 0 -1 8.3701 816.9307)">
				<stop  offset="0.0215" style="stop-color:#999999"/>
				<stop  offset="1" style="stop-color:#FFFFFF"/>
			</linearGradient>
			<path clip-path="url(#SVGID_5_)" fill="url(#SVGID_6_)" d="M143.609,59.328c0,0-4.091-5.066-9.09-6.346
				c0.021-0.03,0.043-0.062,0.064-0.092c2.407,0.219,10.748,1.212,14.275,4.667c0,0-4.169-4.335-13.423-6.188
				c0.126-0.309,0.231-0.622,0.313-0.939c0.083-0.317,0.124-0.776,0.133-1.337c0.387-0.315,0.754-0.661,1.074-1.078
				c3.709-4.827-0.266-9.656-0.266-9.656s10.861,2.144,10.861-4.562c0-3.467-2.762-5.855-5.429-7.357
				c1.208-0.303,2.337-0.926,3.29-1.964c2.391-2.602-0.686-5.063-4.771-6.632c-0.193-0.388-0.443-0.791-0.772-1.213
				c-3.463-4.444-9.944-2.16-11.548-1.501c-0.007-0.086-0.018-0.171-0.032-0.257c1.104-1.444,4.235-6.336-1.132-9.508
				c-6.357-3.756-6.62,2.682-6.62,2.682s-1.06-8.582-5.562-7.51c-4.505,1.072-4.77,6.438-4.77,6.438s0.53-7.779-5.826-5.902
				c-6.357,1.879-3.707,9.657-3.707,9.657s-6.623-4.291-10.066,3.487c-0.063,0.139-0.111,0.268-0.168,0.401l0,0
				c-0.002,0.005-0.003,0.009-0.005,0.013c-0.257,0.615-0.462,1.184-0.62,1.705c-4.521,1.195-8.555,4.296-8.455,9.166
				c0.023,1.178,0.416,1.984,1.066,2.498c-0.18,0.123-0.365,0.266-0.559,0.434c-2.354,2.044-1.931,4.842-1.309,6.613
				c-0.787-1.341-2.184-2.861-4.253-2.054c-2.195,0.856-2.235,3.671-1.978,5.602c-0.6-1.837-2.121-4.358-5.969-4.528
				c-5.463-0.242-5.601,5.115-5.57,6.225c-0.061-1.109-0.646-6.467-6.348-6.225c-4.881,0.206-5.699,1.831-5.816,2.576
				c0.008-1.506-0.33-7.136-5.837-7.136c-6.357,0-5.828,4.828-5.828,4.828s-1.589-5.365-6.886-3.757
				c-5.296,1.609-5.562,7.243-5.562,7.243s-4.237-7.778-10.595-5.364c-6.356,2.413-3.973,9.12-3.973,9.12S4.791,40.505,1.348,48.82
				c-3.445,8.313,5.031,11.802,5.031,11.802S1.881,62.5,1.881,65.72c0,3.219,3.973,5.096,3.973,5.096s-5.562,1.342-5.562,7.779
				c0,6.437,4.767,6.438,4.767,6.438S2.94,86.91,4.265,89.325c1.324,2.413,5.562,0.804,5.562,0.804s-1.035,1.604-1.647,3.706
				c0,0.001,0,0.002,0,0.002v0.001c-0.736,2.528-0.859,5.776,2.177,7.826c5.562,3.755,10.067,2.146,10.067,2.146
				s1.322,3.219,5.825,4.827c0.263,0.094,0.525,0.16,0.788,0.211l3.717,22.055h2.914l0.325-24.551
				c0.788-0.666,1.263-1.199,1.263-1.199s1.323,5.363,7.151,6.168c1.536,0.212,2.975-0.01,4.269-0.444l0.288,7.388l0,0l0.494,12.639
				h2.346l2.576-23.754c0.226-0.235,0.356-0.388,0.356-0.388s4.237,3.755,8.474,3.755c4.24,0,7.152-5.633,7.152-5.633
				s0.885,1.846,2.551,3.831l4.602,22.188h2.914l-0.246-12.639l0,0l-0.096-4.91c0.201,0.038,0.397,0.089,0.604,0.114
				c4.54,0.55,8.212-4.292,8.212-4.292s1.41,6.413,9.256,5.701l-0.516,16.025h2.914l4.043-18.897c1.39-1.861,1.27-4.121,1.107-5.179
				l0.092-0.432c1.002,0.771,5.455,3.842,9.324,0.635c2.912-2.413,5.033-5.635,2.383-8.584c0,0,3.443,0.805,5.563-2.414
				c2.12-3.219-0.002-4.829-1.855-5.633c0,0,8.477-4.022,10.596-12.338c2.119-8.317-5.826-12.608-5.826-12.608
				s2.54-0.088,4.658-1.593l0,0c0,0,0.001-0.001,0.002-0.001c0.133-0.095,0.258-0.204,0.387-0.31
				c0.091-0.075,0.184-0.146,0.271-0.227c0.111-0.102,0.216-0.216,0.322-0.328c0.098-0.104,0.195-0.206,0.287-0.317
				c0.095-0.114,0.183-0.237,0.271-0.361c0.093-0.131,0.182-0.266,0.268-0.407c0.076-0.128,0.148-0.26,0.219-0.396
				c0.081-0.161,0.155-0.331,0.227-0.506c0.057-0.141,0.111-0.282,0.161-0.432c0.065-0.199,0.116-0.411,0.167-0.627
				c0.034-0.149,0.072-0.296,0.1-0.454c0.043-0.254,0.064-0.527,0.086-0.804c0.01-0.144,0.031-0.278,0.035-0.429
				c0.013-0.438,0.002-0.898-0.045-1.392c-0.027-0.279-0.068-0.53-0.105-0.787c0.043-0.103,0.083-0.205,0.122-0.308
				c1.62,0.494,3.55,1.198,6.024,2.261c0,0-3.685-2.347-5-3.281c0.111-0.06,0.22-0.12,0.325-0.185
				C134.438,54.771,139.066,55.648,143.609,59.328z"/>
		</g>
	</g>
</g>
</svg>
