<?xml version="1.0" encoding="utf-8"?>
<!-- Generator: Adobe Illustrator 15.0.0, SVG Export Plug-In . SVG Version: 6.00 Build 0)  -->
<!DOCTYPE svg PUBLIC "-//W3C//DTD SVG 1.1//EN" "http://www.w3.org/Graphics/SVG/1.1/DTD/svg11.dtd">
<svg version="1.1" id="Layer_1" xmlns="http://www.w3.org/2000/svg" xmlns:xlink="http://www.w3.org/1999/xlink" x="0px" y="0px"
	 width="117.48px" height="140.418px" viewBox="0 0 117.48 140.418" enable-background="new 0 0 117.48 140.418"
	 xml:space="preserve">
<g>
	<g>
		<g>
			<path fill="#FFC646" d="M68.341,125.001c0.083,0.121,0.174,0.238,0.271,0.351c1.369,1.559,4.252,2.486,6.322,3.382
				c1.575,0.685,3.267,1.421,3.882,2.806c0.432,0.959,0.578,2.938-0.852,3.467c-2.528,0.929-5.479-2.288-7.886-2.408
				c-5.258-0.268,2.134,7.678-2.764,9.149c-2.689,0.814-5.137-0.755-5.806-2.648c-0.616-1.756-0.062-3.905-0.987-5.586
				c-1.938-3.513-6.766,1.615-9.489,1.556c-2.311-0.052-3.306-1.529-2.555-3.091c1.495-3.114,6.851-3.972,8.985-6.664
				c1.084-1.375,1.577-2.925,1.823-4.506c0.257-1.683,0.366-3.281,0.379-4.925c0.009-1.038-0.483-3.092,1.096-3.66
				c1.146-0.411,4.479,0.563,5.652,0.758c1.726,0.284,2.554,0.397,2.299,2.02c-0.245,1.556-0.647,3.004-0.893,4.596
				C67.565,121.256,67.301,123.461,68.341,125.001z"/>
			<path fill="#F6AE3A" d="M54.396,127.846c2.535-0.37,4.42-1.186,5.643-2.53c0.229-0.803,0.209-1.568,0.472-2.443
				c0.833-2.759,3.954-4.493,7.345-3.47c0.246-1.511,0.622-2.911,0.857-4.402c0.255-1.622-0.573-1.735-2.299-2.02
				c-1.173-0.195-4.507-1.169-5.652-0.758c-1.579,0.568-1.087,2.622-1.096,3.66c-0.013,1.644-0.122,3.242-0.379,4.925
				c-0.246,1.581-0.739,3.131-1.823,4.506c-0.858,1.082-2.238,1.868-3.677,2.625C53.985,127.907,54.187,127.877,54.396,127.846z"/>
			<path fill="#F6AE3A" d="M65.116,140.059c-1.088-0.817-1.36-1.84-1.081-2.84c-1.268-0.576-1.594-1.67-0.777-3.074
				c0.664-1.137,0.241-1.79-0.684-2.153c0.096-0.246-0.081-0.578-0.729-1.029c-1.781-1.837-4.652-0.12-4.794-0.143
				c-2.039,1.302-6.673,2.798-8.086,1.675c-0.22-0.004-0.425-0.063-0.613-0.151c-0.44,1.42,0.55,2.677,2.681,2.726
				c2.371,0.052,6.321-3.793,8.588-2.479c0.019,0,0.029,0,0.048,0.004c0.321,0.192,0.614,0.482,0.854,0.92
				c0.926,1.681,0.371,3.83,0.987,5.586c0.669,1.894,3.116,3.463,5.806,2.648c0.622-0.184,1.041-0.474,1.32-0.841
				C67.367,141.031,65.888,140.64,65.116,140.059z"/>
			<path fill="#F6AE3A" d="M76.381,132.973c-1.481,0.211-3.084-0.174-3.37-1.433c0.009,0.056-1.521-0.242-2.036-0.265
				c-0.613-0.03-2.055-0.184-2.482,0.306c-0.36,0.411-0.299,0.964-0.103,1.511c0.286-0.348,0.81-0.538,1.688-0.494
				c2.407,0.12,5.357,3.337,7.886,2.408c0.63-0.236,0.946-0.753,1.07-1.34C78.061,133.791,77.028,133.539,76.381,132.973z"/>
			<path fill="#FFE475" d="M61.99,122.137c0.556,0.004,2.947-0.304,2.671,0.45c-0.153,0.418-1.51,0.435-1.667,1.277
				c0.728,0.041,1.976,0.133,1.873,0.867c-0.065,0.468-1.148,0.674-1.094,1.429c0.3,0.016,1.663,0.195,1.792,0.389
				c0.272,0.414-0.619,0.817-0.546,1.361c0.865,0.12,1.875,0.258,2.72,0.181c-0.171,0.689-0.237,1.37,0.548,1.513
				c0.716,0.127,1.962-0.43,2.922-0.233c-0.306,1.335,0.213,1.204,1.62,1.118c1.595-0.096,1.698,0.25,1.95,1.396
				c0.813,0.106,1.789,0.28,2.596,0.137c1.002-2.764-6.915-3.805-8.929-5.156c-1.287-0.857-2.206-2.71-2.264-3.969
				c-0.024-0.631,0.651-1.693,0.237-2.273C65.279,119.016,62.379,121.163,61.99,122.137z"/>
			<path fill="#FFE475" d="M50.538,132.121c0.224-0.378,0.404-0.769,0.734-1.083c0.636-0.611,0.669-0.487,1.408-0.28
				c0.389,0.106,0.623,0.596,1.181,0.512c0.617-0.092,0.452-0.733,0.824-1.087c1.129-1.073,1.415,0.26,2.599,0.021
				c0.417-0.079,0.815-0.683,1.3-0.829c0.469-0.143,1.012-0.022,1.521-0.053c1.618-0.103,2.705-2.196,0.922-2.659
				c-1.15-0.3-3.026,0.858-3.965,1.248c-1.644,0.679-3.612,0.792-5.26,1.477c-0.897,0.369-1.274,0.679-1.662,1.375
				c-0.14,0.257-0.568,0.69-0.369,0.988C49.822,131.83,50.439,132.285,50.538,132.121z"/>
			<path fill="#FFE475" d="M63.76,130.399c0.129-1.502,2.856-0.351,3.338,0.37c0.771,1.152,0.687,2.623,0.654,3.878
				c-0.032,1.402,0.08,2.639,0.306,3.965c0.071,0.43,0.348,1.459-0.277,1.764c-0.398,0.2-2.244-0.361-2.464-0.634
				c-0.741-0.919,0.829-0.965,1.106-1.568c0.341-0.732-0.813-0.732-1.282-1.252c2.194-0.787,0.896-1.081-0.611-1.815
				c1.142-0.706,2.785-1.754,0.347-2.179c0.424-0.678,0.772-0.724,0.19-1.351C64.694,131.176,63.694,131.167,63.76,130.399z"/>
		</g>
		<g>
			<path fill="#FFC646" d="M27.955,121.359c-0.115,0.107-0.24,0.199-0.366,0.29c-1.807,1.272-4.9,1.659-7.181,2.166
				c-1.746,0.389-3.612,0.802-4.637,2.032c-0.708,0.861-1.456,2.762-0.229,3.526c2.175,1.355,6.028-1.246,8.412-0.938
				c5.187,0.677-4.426,7.085-0.107,9.39c2.365,1.268,5.226,0.182,6.457-1.546c1.134-1.597,1.247-3.786,2.661-5.253
				c2.955-3.072,6.081,2.776,8.748,3.199c2.271,0.363,3.683-0.897,3.431-2.547c-0.502-3.299-5.449-5.083-6.699-8.082
				c-0.637-1.532-0.649-3.127-0.402-4.703c0.257-1.688,0.642-3.26,1.135-4.859c0.309-1.017,1.409-2.922,0.051-3.756
				c-0.995-0.605-4.533-0.248-5.729-0.268c-1.765-0.026-2.606-0.074-2.854,1.556c-0.231,1.558-0.282,3.035-0.527,4.629
				C29.857,117.854,29.436,120.042,27.955,121.359z"/>
			<path fill="#F6AE3A" d="M40.651,126.605c-2.353-0.811-3.941-1.936-4.712-3.461c0.017-0.826,0.272-1.567,0.28-2.464
				c0.034-2.831-2.471-5.069-6.08-4.681c0.215-1.513,0.285-2.943,0.504-4.433c0.248-1.63,1.09-1.582,2.854-1.556
				c1.196,0.02,4.734-0.338,5.729,0.268c1.358,0.834,0.258,2.739-0.051,3.756c-0.493,1.6-0.878,3.172-1.135,4.859
				c-0.247,1.576-0.234,3.171,0.402,4.703c0.503,1.202,1.604,2.217,2.77,3.206C41.029,126.74,40.846,126.672,40.651,126.605z"/>
			<path fill="#F6AE3A" d="M26.5,136.575c1.306-0.599,1.886-1.545,1.91-2.567c1.41-0.338,2.065-1.34,1.699-2.855
				c-0.298-1.225,0.315-1.782,1.322-1.968c-0.016-0.26,0.252-0.553,1.022-0.874c2.29-1.47,4.563,0.712,4.708,0.715
				c1.587,1.628,5.628,3.911,7.35,3.068c0.216,0.03,0.435,0.016,0.641-0.041c-0.002,1.46-1.349,2.507-3.44,2.174
				c-2.315-0.369-4.987-4.813-7.591-3.936c-0.015-0.004-0.035-0.006-0.047-0.008c-0.37,0.131-0.743,0.362-1.11,0.744
				c-1.414,1.467-1.527,3.656-2.661,5.253c-1.231,1.728-4.092,2.813-6.457,1.546c-0.551-0.29-0.87-0.648-1.029-1.053
				C24.01,137.119,25.573,137.004,26.5,136.575z"/>
			<path fill="#F6AE3A" d="M17.707,127.677c1.376,0.471,3.05,0.383,3.713-0.792c-0.03,0.054,1.55,0.037,2.062,0.107
				c0.607,0.079,2.056,0.189,2.318,0.734c0.223,0.468-0.003,0.997-0.36,1.488c-0.17-0.387-0.617-0.666-1.485-0.778
				c-2.384-0.309-6.237,2.293-8.412,0.938c-0.539-0.339-0.683-0.898-0.629-1.487C15.818,128.181,16.902,128.115,17.707,127.677z"/>
			<path fill="#FFE475" d="M35.008,119.698c-0.541-0.089-2.778-0.813-2.733-0.032c0.021,0.434,1.332,0.688,1.23,1.542
				c-0.722-0.092-1.967-0.229-2.088,0.504c-0.077,0.468,0.912,0.861,0.627,1.586c-0.3-0.038-1.681-0.102-1.858,0.061
				c-0.396,0.353,0.348,0.904,0.109,1.424c-0.874-0.043-1.896-0.087-2.695-0.313c-0.045,0.704-0.19,1.372-0.996,1.376
				c-0.734-0.004-1.779-0.767-2.767-0.747c-0.111,1.351-0.575,1.132-1.919,0.796c-1.526-0.373-1.724-0.063-2.321,1.011
				c-0.823-0.038-1.826-0.045-2.566-0.328c-0.132-2.87,7.883-2.467,10.256-3.425c1.514-0.605,2.971-2.239,3.408-3.46
				c0.219-0.609-0.114-1.76,0.459-2.249C32.76,116.081,34.925,118.69,35.008,119.698z"/>
			<path fill="#FFE475" d="M43.093,131.449c-0.095-0.402-0.157-0.82-0.378-1.182c-0.432-0.71-0.503-0.596-1.282-0.524
				c-0.414,0.036-0.795,0.469-1.309,0.286c-0.574-0.195-0.215-0.795-0.474-1.202c-0.77-1.248-1.448,0.001-2.53-0.442
				c-0.384-0.154-0.578-0.812-1.009-1.037c-0.416-0.221-0.983-0.205-1.461-0.324c-1.544-0.387-1.963-2.614-0.087-2.749
				c1.213-0.085,2.681,1.377,3.478,1.919c1.39,0.956,3.262,1.416,4.66,2.369c0.758,0.525,1.034,0.893,1.199,1.639
				c0.059,0.275,0.344,0.771,0.06,1.025C43.881,131.297,43.147,131.623,43.093,131.449z"/>
			<path fill="#FFE475" d="M30.763,127.427c0.334-1.487-2.669-0.853-3.357-0.239c-1.097,0.985-1.462,2.426-1.823,3.656
				c-0.395,1.37-0.88,2.554-1.502,3.803c-0.202,0.403-0.785,1.358-0.271,1.764c0.331,0.264,2.295,0.047,2.593-0.179
				c0.997-0.763-0.51-1.084-0.597-1.723c-0.11-0.771,1.014-0.564,1.631-0.991c-1.893-1.147-0.545-1.208,1.141-1.653
				c-0.892-0.89-2.171-2.202,0.335-2.185c-0.207-0.731-0.531-0.838,0.218-1.342C29.616,128.012,30.594,128.183,30.763,127.427z"/>
		</g>
		<g>
			<path fill="#CE7729" d="M83.203,95.379c-0.431-2.328-0.295-4.813-0.354-6.466c-0.177-4.763,1.525-9.365,2.82-13.982
				c1.41-5.03,1.137-10.117,4.082-14.835c2.074-3.321,8.158-8.899,11.582-2.928c7.115,12.417,7.384,26.674-3.039,38.136
				c-1.977,2.165-6.882,7.338-11.072,5.686C84.71,99.997,83.652,97.774,83.203,95.379z"/>
			<path opacity="0.39" fill="#995424" d="M99.437,90.362c1.502-6.493,3.805-13.419,2.643-20.055
				c-0.856-4.832-2.164-9.521-1.638-14.35c-3.498-3.843-8.79,1.088-10.691,4.138c-2.945,4.718-2.672,9.805-4.082,14.835
				c-1.295,4.617-2.997,9.22-2.82,13.982c0.06,1.652-0.076,4.138,0.354,6.466c0.449,2.396,1.508,4.618,4.019,5.61
				c4.19,1.652,9.096-3.521,11.072-5.686c1.063-1.173,1.986-2.378,2.832-3.604C100.189,91.718,99.243,91.17,99.437,90.362z"/>
		</g>
		<g>
			<path fill="#A55F26" d="M66.158,101.806c3.914-1.1,7.377-2.408,11.159-3.576c2.381-0.742,9.347-2.384,11.346-0.402
				c1.295,1.284-1.89,3.559-2.846,4.416c-3.134,2.805-6.423,5.71-9.355,8.622c-2.499,2.487-4.103,5.037-8.021,6.491
				c-2.104,0.783-9.643,0.637-10.187-1.743c-0.797-3.483-1.581-7.473,0.875-10.744C59.862,103.894,62.633,102.793,66.158,101.806z"
				/>
			<path fill="#995424" d="M88.663,97.827c-1.999-1.981-8.965-0.34-11.346,0.402c-3.782,1.168-7.245,2.477-11.159,3.576
				c-3.524,0.987-6.296,2.088-7.028,3.063c-2.456,3.271-1.672,7.261-0.875,10.744c0.351,1.538,3.613,2.138,6.451,2.164
				c-0.644-2.204,1.458-4.747,3.507-6.108c2.49-1.661,6.04-2.933,9.287-1.804c2.665-2.575,5.543-5.139,8.317-7.622
				C86.773,101.386,89.958,99.111,88.663,97.827z"/>
			<path fill="#87421E" d="M88.663,97.827c-1.999-1.981-8.965-0.34-11.346,0.402c-3.782,1.168-7.245,2.477-11.159,3.576
				c-3.524,0.987-6.296,2.088-7.028,3.063c-2.456,3.271-1.672,7.261-0.875,10.744c0.212,0.945,1.538,1.531,3.176,1.854
				c-0.358-2.975,1.247-5.712,5.225-7.672c3.138-1.542,9.12-3.233,13.109-2.076c1.998-1.852,4.048-3.682,6.053-5.476
				C86.773,101.386,89.958,99.111,88.663,97.827z"/>
		</g>
		<g>
			<path fill="#A55F26" d="M35.999,99.674c-7.306-3.716-18.813-7.602-19.531-5.914c-1.76,4.116,1.963,7.686,4.957,10.784
				c2.523,2.616,5.165,8.479,8.278,10.301c2.451,1.432,8.354,1.79,10.446-0.272c2.388-2.357,2.818-7.905,1.756-10.666
				C41.489,102.823,39.13,101.265,35.999,99.674z"/>
			<path fill="#995424" d="M34.866,111.027c1.754-1.572,4.809-1.767,7.41-1.399c0.318-2.103,0.181-4.286-0.371-5.722
				c-0.416-1.083-2.774-2.642-5.906-4.232c-7.306-3.716-18.813-7.602-19.531-5.914c-1.76,4.116,1.963,7.686,4.957,10.784
				c2.523,2.616,5.165,8.479,8.278,10.301c1.156,0.677,3.093,1.114,5.028,1.168C33.422,114.698,33.419,112.316,34.866,111.027z"/>
			<path fill="#87421E" d="M30.917,109.628c1.771-2.737,7.497-2.56,11.516-1.616c0.064-1.559-0.12-3.04-0.528-4.105
				c-0.416-1.083-2.774-2.642-5.906-4.232c-7.306-3.716-18.813-7.602-19.531-5.914c-1.76,4.116,1.963,7.686,4.957,10.784
				c2.523,2.616,5.165,8.479,8.278,10.301c0.468,0.274,1.062,0.509,1.737,0.695C30.238,113.539,29.727,111.478,30.917,109.628z"/>
		</g>
		<path fill="#AF6828" d="M92.823,44.751c-6.618-6.356-18.821-7.377-28.42-6.521c-12.507,1.116-23.752,1.308-33.589,8.133
			c-7.775,5.393-11.619,13.348-15.727,20.517C7.859,79.51,4.7,95.718,23.576,102.669c14.653,5.397,33.462,6.153,49.23,3.605
			c30.244-4.872,30.951-31.907,25.398-50.403c-0.961-3.191-2.132-7.662-4.747-10.468C93.25,45.178,93.042,44.96,92.823,44.751z"/>
		<path opacity="0.39" fill="#995424" d="M98.205,55.871c-0.765-2.543-1.685-5.89-3.331-8.568c-3.009,3.075-7.329,5.104-11.725,7.28
			c2.232,2.62,3.68,5.843,4.021,9.678c1.177,13.2-2.757,32.606-22.18,36.812c-18.599,4.027-44.279,0.09-42.894-18.118
			c0.68-8.937,5.382-17.177,11.765-24.572c2.038-2.361,4.587-5.639,7.761-8.131c-3.175-1.461-5.741-3.604-8.758-5.2
			c-0.689,0.409-1.375,0.844-2.051,1.312c-7.775,5.393-11.619,13.348-15.727,20.517C7.859,79.51,4.7,95.718,23.576,102.669
			c14.653,5.397,33.462,6.153,49.23,3.605C103.05,101.402,103.757,74.367,98.205,55.871z"/>
		<path opacity="0.39" fill="#995424" d="M98.205,55.871c-0.765-2.543-1.685-5.89-3.331-8.568c-1.033,1.053-2.219,1.976-3.508,2.827
			c16.223,18.455,0.197,49.129-28.021,54.078c-14.168,2.491-30.758,0.763-42.304-6.412c-4.84-3.013-8.627-6.59-11.451-10.542
			c0.772,6.358,4.721,12.002,13.986,15.415c14.653,5.397,33.462,6.153,49.23,3.605C103.05,101.402,103.757,74.367,98.205,55.871z"/>
		<path fill="#995424" d="M20.26,91.594c6.422-5.814,13.814-10.967,20.166-16.831c4.094-3.776,7.95-8.95,14.126-10.982
			c7.34-2.411,15.913-3.921,23.865-2.465c11.864,2.172,19.018,8.372,22.294,15.969c0.621-7.302-0.549-14.888-2.507-21.413
			c-0.961-3.191-2.132-7.662-4.747-10.468c-0.208-0.226-0.416-0.443-0.635-0.652c-6.618-6.356-18.821-7.377-28.42-6.521
			c-12.507,1.116-23.752,1.308-33.589,8.133c-7.775,5.393-11.619,13.348-15.727,20.517C8.973,77.567,5.775,90.813,16.367,98.85
			C16.387,96.334,17.771,93.843,20.26,91.594z"/>
		<path fill="#87421E" d="M20.309,89.758c4.389-4.316,9.884-7.612,14.931-11.444c5.797-4.407,6.282-8.519,9.819-13.708
			c2.313-3.392,5.119-4.307,10.118-4.545c7.35-0.359,16.24,1.498,23.301-0.037c6.125-1.329,11.666-3.328,18.147-1.914
			c0.91,0.196,1.689,0.495,2.411,0.823c-0.263-1.037-0.536-2.068-0.832-3.062c-0.961-3.191-2.132-7.662-4.747-10.468
			c-0.208-0.226-0.416-0.443-0.635-0.652c-6.618-6.356-18.821-7.377-28.42-6.521c-12.507,1.116-23.752,1.308-33.589,8.133
			c-7.775,5.393-11.619,13.348-15.727,20.517c-5.923,10.35-9.073,23.088,0.359,31.184C16.333,95.103,17.748,92.27,20.309,89.758z"/>
		<path opacity="0.58" fill="#995424" d="M73.339,72.595c-1.372,2.82-4.384,2.563-7.331,2.271c-2.349-0.237-1.205-0.951-3.671-0.66
			c-1.17,0.138-2.584,1.156-4.17,1.263c-6.709,0.442-12.406-3.862-11.139-9.034c-0.11,0.456,3.86,2.408,4.597,2.592
			c2.907,0.726,5.686,0.027,8.07-1.278c-1.186,0.65,3.783,2.638,4.232,2.727c2.472,0.469,4.473-0.139,6.313-1.319
			c2.749-1.763,0.252-1.938,4.028-2.128c2.866-0.147,5.108,1.752,6.924-1.389c-0.117,2.083,0.424,4.866-1.585,6.551
			C78.862,72.817,72.532,74.254,73.339,72.595z"/>
		<path opacity="0.58" fill="#995424" d="M89.4,81.607c-0.902,2.925-3.935,2.96-6.902,2.952c-2.372-0.009-1.354-0.824-3.756-0.301
			c-1.139,0.248-2.372,1.396-3.929,1.654c-6.581,1.082-12.944-2.646-12.53-7.902c-0.041,0.469,4.226,2.023,4.988,2.136
			c2.997,0.438,5.639-0.519,7.794-2.046c-1.071,0.764,4.183,2.262,4.644,2.301c2.529,0.23,4.414-0.563,6.047-1.905
			c2.441-2.017-0.07-1.952,3.651-2.503c2.812-0.419,5.354,1.25,6.636-2.04c0.229,2.08,1.22,4.788-0.494,6.647
			C94.909,81.299,88.863,83.333,89.4,81.607z"/>
		<path opacity="0.58" fill="#995424" d="M55.446,89.276c-2.608,2.256-5.305,1.195-7.916,0.116c-2.084-0.861-0.684-1.21-3.122-1.619
			c-1.154-0.187-2.959,0.382-4.485,0.042c-6.476-1.415-9.781-6.992-6.167-11.482c-0.319,0.399,2.476,3.309,3.077,3.682
			c2.375,1.471,5.294,1.578,8.137,1.012c-1.417,0.279,2.29,3.495,2.673,3.695c2.088,1.119,4.239,1.095,6.513,0.497
			c3.393-0.894,1.143-1.741,4.759-0.886c2.741,0.647,3.954,3.032,7.113,0.59c-1.083,1.921-1.88,4.662-4.543,5.688
			C60.491,90.996,53.908,90.61,55.446,89.276z"/>
		<path opacity="0.58" fill="#995424" d="M85.195,96.388c-0.694,2.962-3.724,3.122-6.688,3.229
			c-2.367,0.088-1.406-0.769-3.771-0.147c-1.117,0.29-2.269,1.492-3.809,1.81c-6.498,1.347-13.111-2.123-13.059-7.387
			c-0.004,0.465,4.358,1.85,5.128,1.929c3.027,0.323,5.599-0.743,7.647-2.353c-1.021,0.804,4.33,2.082,4.793,2.109
			c2.539,0.128,4.366-0.739,5.909-2.151c2.29-2.102-0.205-1.941,3.467-2.642c2.781-0.533,5.44,1.035,6.487-2.305
			c0.375,2.067,1.555,4.732-0.03,6.662C90.677,95.865,84.78,98.136,85.195,96.388z"/>
		<path opacity="0.58" fill="#995424" d="M44.94,100.859c-2.712,2.175-5.354,1.031-7.909-0.119c-2.035-0.923-0.622-1.23-3.04-1.712
			c-1.14-0.228-2.966,0.287-4.484-0.091c-6.395-1.61-9.409-7.283-5.572-11.657c-0.338,0.384,2.307,3.379,2.892,3.768
			c2.296,1.539,5.207,1.733,8.077,1.253c-1.429,0.239,2.111,3.563,2.482,3.777c2.03,1.176,4.177,1.222,6.479,0.688
			c3.436-0.788,1.233-1.707,4.804-0.745c2.702,0.726,3.792,3.148,7.078,0.802c-1.184,1.884-2.122,4.604-4.833,5.547
			C49.903,102.725,43.341,102.144,44.94,100.859z"/>
	</g>
	<g>
		<path fill="#AF6828" d="M116.572,21.388c-1.868-4.106-5.277-7.79-10.386-10.718C99.243,6.695,88.17,1.88,79.641,0.613
			C59.855-2.332,37.051,5.54,30.093,19.918c-3.146,6.494-1.902,12.722,2.816,18.558c8.88,10.988,26.798,18.321,43.202,20.158
			c19.999,2.23,34.714-5.511,40.467-20.345C118.837,32.461,118.941,26.593,116.572,21.388z"/>
		<path fill="#A85E26" d="M72.721,24.001c-0.253-0.107-0.517-0.227-0.767-0.331c-2.018-0.862-4.059-1.774-6-2.772
			c-4.323-1.911-8.658-3.658-13.037-5.033c-0.834-0.261-1.404-0.652-1.745-1.107c-1.259,0.475-2.499,0.855-3.595,1.077
			c-4.762,0.971-10.021-0.392-11.75-3.542c-2.418,2.277-4.38,4.825-5.734,7.626c-3.146,6.494-1.902,12.722,2.816,18.558
			c8.88,10.988,26.798,18.321,43.202,20.158c19.327,2.159,33.701-5.025,39.832-18.899C100.626,37.921,86.625,30.576,72.721,24.001z"
			/>
		<path fill="#995424" d="M87.983,37.223c-12.08-4.345-28.999-8.079-37.211-16.832c-1.089,0.786-2.384,1.382-3.957,1.641
			c-3.849,0.638-7.34,0.009-10.592-1.661c-1.852-0.946-3.303-2.232-4.22-3.647c-0.718,1.031-1.373,2.084-1.91,3.195
			c-3.146,6.494-1.902,12.722,2.816,18.558c8.88,10.988,26.798,18.321,43.202,20.158c16.567,1.85,29.479-3.184,36.696-13.395
			C103.913,43.507,95.003,39.749,87.983,37.223z"/>
		<path opacity="0.39" fill="#87421E" d="M71.029,51.197c-10.728-3.556-24.104-9.965-26.274-19.465
			c-5.935,0.581-12.501-0.634-16.351-4.086c0.147,3.728,1.697,7.351,4.506,10.829c8.88,10.988,26.798,18.321,43.202,20.158
			c9.415,1.052,17.633-0.142,24.31-3.229C90.479,56.331,79.14,53.889,71.029,51.197z"/>
		<path fill="#FFD373" d="M71.755,57.318c14.069,3.528,30.882,2.143,39.075-8.381c3.075-3.952,5.901-8.86,6.515-13.432
			C119.46,19.87,96.34,8.19,78.632,5.873c-10.396-1.36-20.159,0.492-27.956,6.418c-9.698,7.369-13.015,18.099-6.934,27.736
			c2.017,3.201,4.567,5.354,7.986,7.735c4.044,2.813,7.835,5.187,12.731,7.178C66.76,55.881,69.21,56.676,71.755,57.318z"/>
		<path fill="#FEC54F" d="M75.815,48.563c1.212,0.32,2.434,0.567,3.661,0.74c8.179,1.151,17.788,2.21,24.947-1.835
			c4.022-2.27,9.758-7.469,9.426-11.568c-0.198-2.372-1.259-5.471-3.974-6.915c-3.047-1.62-6.641-1.604-10.189-1.78
			c-3.794-0.187-7.797-0.671-11.291-1.854c-3.073-1.043-5.07-3.574-7.458-5.273c-4.02-2.874-8.178-5.447-13.956-5.753
			c-3.52-0.18-6.929,1.257-9.492,3.146c-6.728,4.955-4.146,11.927-0.959,17.607C59.875,41.033,67.508,46.393,75.815,48.563z"/>
		<path fill="#FEED9F" d="M117.345,35.506c0.596-4.388-0.891-8.75-3.822-12.524c-1.871-2.399-5.581-4.044-9.244-4.161
			c-3.015-0.103-5.813,1.982-8.798,1.54c-4.39-0.657-4.268-5.282-5.599-7.713c-1.867-3.436-6.497-6.15-11.25-6.774
			c-10.396-1.36-20.159,0.492-27.956,6.418c-9.698,7.369-13.015,18.099-6.934,27.736c2.017,3.201,4.567,5.354,7.986,7.735
			c4.044,2.813,7.835,5.187,12.731,7.178c2.3,0.94,4.75,1.735,7.295,2.378c14.069,3.528,30.882,2.143,39.075-8.381
			C113.906,44.985,116.732,40.077,117.345,35.506z M96.022,54.018c-2.385,0.561-5.265,1.376-7.619,1.855
			c-4.107,0.837-11.952-0.158-15.78-1.541c-4.838-1.755-14.584-6.19-17.456-9.689c-1.777-2.164-2.835-3.921-5.041-5.936
			c-2.232-2.043-2.132-3.664-2.845-6.162c-0.37-1.28-1.258-1.585-1.112-3.034c0.063-0.712,0.954-3.058,1.185-3.987
			c0.6-2.379,2.438-4.587,4.089-6.624c1.241-1.525,1.131-1.339,2.979-2.559c1.564-1.04,2.66-1.74,4.104-3.001
			c1.652-1.436,0.967-1.637,3.67-2.302c1.227-0.299,3.729-0.425,5.159-0.612c2.749-0.36,5.677-1.375,8.51-1.016
			c2.684,0.338,4.643,1.922,6.287,3.45c1.836,1.707,4.225,3.059,5.288,5.181c1.011,2.027,0.963,4.449,3.433,5.893
			c2.158,1.263,4.6-0.039,6.989-0.207c3.953-0.28,12.013-2.231,14.741,1.1c2.469,3.001,2.41,8.01,1.707,11.364
			C112.899,43.012,105.182,51.868,96.022,54.018z"/>
		<g>
			<path fill="#9D6227" d="M61.965,16.567c-7.085,3.227-8.988,12.346-0.537,15.5c5.12,1.907,9.509,0.172,12.504-2.829
				c3.447-3.467,4.805-8.359,0.101-12.003C70.463,14.476,66.135,14.661,61.965,16.567z"/>
			<path fill="#A99933" d="M58.074,28.628c2.457,3.459,7.807,5.271,12.599,2.623c4.869-2.691,8.105-9.708,3.446-13.458
				c-7.074-5.688-18.642,1.575-17.273,8.077C57.058,26.858,57.483,27.79,58.074,28.628z"/>
			<g>
				<path fill="#0F0B09" d="M70.516,29.751c5.303-2.162,7.479-9.722-1.738-10.997c-7.364-1.017-10.475,6.692-6.22,9.813
					C65.347,30.613,68.226,30.69,70.516,29.751z"/>
				<path fill="#FFFFFF" d="M67.827,22.981c0.603-0.437,1.611-1.692,0.167-2.325c-1.827-0.805-4.704,1.105-3.885,2.559
					C64.949,24.697,67.054,23.55,67.827,22.981z"/>
			</g>
		</g>
		<g>
			<path fill="#9D6227" d="M97.892,29.823c-7.079,3.229-8.979,12.349-0.53,15.497c5.122,1.913,9.51,0.179,12.502-2.825
				c3.449-3.466,4.809-8.363,0.105-12.003C106.399,27.732,102.062,27.921,97.892,29.823z"/>
			<path fill="#A99933" d="M94.003,41.887c2.461,3.458,7.805,5.266,12.6,2.626c4.875-2.692,8.103-9.716,3.444-13.462
				c-7.071-5.684-18.632,1.576-17.268,8.074C92.991,40.114,93.414,41.046,94.003,41.887z"/>
			<g>
				<path fill="#0F0B09" d="M106.458,43.012c5.289-2.16,7.471-9.729-1.745-11.004c-7.362-1.016-10.477,6.694-6.221,9.813
					C101.285,43.867,104.16,43.943,106.458,43.012z"/>
				<path fill="#FFFFFF" d="M103.759,36.242c0.603-0.444,1.611-1.692,0.164-2.328c-1.825-0.811-4.707,1.102-3.886,2.558
					C100.886,37.952,102.984,36.806,103.759,36.242z"/>
			</g>
		</g>
		<g>
			<path fill="#392412" d="M69.36,44.484c2.172,2.076,6.174,3.28,9.411,4.332c1.146,0.365,0.25-4.396,0.112-4.71
				c-0.902-2.026-2.782-4.019-4.924-5.385c-2.137-1.369-4.315-2.405-5.899-0.898C66.206,39.602,67.727,42.927,69.36,44.484z"/>
			<path fill="#24190F" d="M78.883,44.106c-0.902-2.026-2.782-4.019-4.924-5.385c-2.137-1.369-4.315-2.405-5.899-0.898
				c-1.742,1.673-0.501,4.685,1.005,6.336c0.057-0.569,0.398-1.064,1.146-1.328c0.394-0.252,0.922-0.373,1.581-0.229
				c1.23,0.271,2.293,0.915,3.049,1.693c1.063,1.083,1.777,2.453,1.858,3.833c0.701,0.23,1.407,0.474,2.071,0.688
				C79.917,49.182,79.021,44.42,78.883,44.106z"/>
			<path fill="#735F45" d="M75.093,43.151c-2.426-2.554-7.332-4.756-7.332-4.756c3.934-4.601,15.251-6.931,19.801-1.134
				c2.277,2.89,0.238,6.201-2.163,8.609c-1.261,1.27-2.821,2.383-4.271,3.515c-0.984,0.772-3.841,2.054-4.38,2.837
				C78.852,49.18,77.649,45.835,75.093,43.151z"/>
			<path fill="#69543B" d="M80.143,41.984c-1.746-2.074-5.408-3.848-3.37-6.594c0.533-0.718,1.299-1.221,2.179-1.563
				c-4.389,0.098-8.967,1.969-11.19,4.567c0,0,4.906,2.202,7.332,4.756c2.556,2.684,3.759,6.028,1.654,9.071
				c0.539-0.783,3.396-2.064,4.38-2.837c1.45-1.132,3.011-2.245,4.271-3.515c0.135-0.131,0.255-0.273,0.381-0.408
				C83.376,45.964,81.384,43.46,80.143,41.984z"/>
			<path opacity="0.4" fill="#4F3C21" d="M85.069,46.059c-1.593,0.337-2.966,0.063-4.061-0.564
				c-0.778-0.235-1.553-0.624-2.294-1.197c-1.448-1.111-2.557-2.456-4.015-3.579c-1.131-0.874-2.296-1.842-2.602-3.087
				c-0.207-0.854-0.081-1.666,0.303-2.389c-1.911,0.799-3.555,1.89-4.64,3.153c0,0,4.906,2.202,7.332,4.756
				c2.556,2.684,3.759,6.028,1.654,9.071c0.539-0.783,3.396-2.064,4.38-2.837c1.4-1.091,2.896-2.174,4.139-3.386
				C85.197,46.014,85.135,46.049,85.069,46.059z"/>
			<path fill="#7F6D51" d="M79.375,36.08c-0.102,1.099,1.65,3.129,2.462,3.942c0.966,0.962,3.026,2.46,4.384,1.393
				c1.884-1.491,0.676-4.373-1.299-5.475C83.465,35.132,79.603,33.694,79.375,36.08z"/>
			<path fill="#FFFFFF" d="M82.079,36.038c-1.055,0.37,0.763,1.737,1.061,2.13c0.492,0.652,0.453,2.005,1.138,2.482
				c1.205,0.834,1.776-0.684,1.739-1.394c-0.041-0.767-0.396-1.721-1.14-2.294c-0.449-0.346-1.903-1.094-2.56-0.984
				C82.228,35.99,82.145,36.012,82.079,36.038z"/>
		</g>
		<path fill="#CE7729" d="M117.429,23.656c-0.244-0.765-0.518-1.527-0.857-2.269c-1.868-4.106-5.277-7.79-10.386-10.718
			C99.243,6.695,88.17,1.88,79.641,0.613C70.242-0.788,60.165,0.259,51.427,3.28c4.259,1.271,12.717,1.353,14.377,1.422
			C76.002,5.118,84.576,7.936,88.055,15.57c2.015,4.419,1.087,10.147,8.989,7.779C106.055,20.653,109.103,21.037,117.429,23.656z"/>
		<path fill="#DD8035" d="M96.692,23.441c0.069-0.123,0.141-0.241,0.209-0.34c1.545-2.325,10.219-4.185,7.08-7.221
			c2.757-1.053,6.231,0.309,6-2.646c-1.146-0.905-2.405-1.764-3.795-2.564c-6.344-3.633-16.129-7.957-24.27-9.647
			c1.945,1.371,3.719,2.919,5.785,4.72c1.535,1.341,3.539,2.449,3.408,4.407c-0.045,0.617-2.197,0.523-2.076,1.641
			c0.085,0.757,0.99,1.487,1.493,2.098c2.314,2.811,1.573,1.098,1.544,4.041c-0.01,1.143-0.938,3.029-1.254,4.727
			C91.844,23.839,93.533,24.316,96.692,23.441z"/>
	</g>
	<g>
		<path fill="#CE7729" d="M3.305,83.356c0.465-1.835-0.685-2.307-2.309-4.229c-2.963-3.508,1.399-10.604,3.75-13.784
			c4.73-6.411,13.044-16.396,23.798-16.269c3.942,0.046,7.337,1.077,9.83,3.4c6.138,5.713,5.688,13.614,0.234,19.593
			c-4.577,5.023-10.124,9.726-15.55,14.141c-2.684,2.178-5.817,6.001-7.188,8.814c-0.452,0.92-0.714,1.834-1.301,2.713
			c-1,1.51-2.779,3.113-5.284,2.358c-4.901-1.47-0.849-5.545-3.555-7.593c-1.327-1.005-2.875-0.439-3.749-2.039
			c-0.979-1.797,0.245-4.406,0.982-6.126C3.12,83.969,3.237,83.646,3.305,83.356z"/>
		<path opacity="0.39" fill="#995424" d="M38.427,52.529c2.577,5.021,0.485,12.063-3.358,17.204
			c-3.5,4.67-8.395,8.686-11.665,13.448c-1.385,2.02-2.658,4.09-5.265,5.322c-3.288,1.549-5.063,0.265-5.366-1.551
			c-1.48,0.375-3.054,0.331-5.002-0.055c-0.697-0.138-1.04-0.791-0.99-1.282c0.312-3.131,1.179-5.887,3.079-8.45
			c-5.153,0.023-7.845-3.396-7.962-7.273c-1.675,3.232-2.812,6.976-0.901,9.235c1.624,1.922,2.773,2.394,2.309,4.229
			c-0.068,0.29-0.186,0.612-0.34,0.98c-0.737,1.72-1.961,4.329-0.982,6.126c0.874,1.6,2.422,1.034,3.749,2.039
			c2.706,2.048-1.347,6.123,3.555,7.593c2.505,0.755,4.284-0.849,5.284-2.358c0.587-0.879,0.849-1.793,1.301-2.713
			c1.37-2.813,4.504-6.637,7.188-8.814c5.426-4.415,10.973-9.117,15.55-14.141C44.046,66.106,44.505,58.238,38.427,52.529z"/>
		<path opacity="0.39" fill="#995424" d="M25.033,75.529c-2.343,4.343-9.203,2.879-6.751-2.052c-5.04,2.546-2.071-5.233-0.935-6.669
			c-2.017,2.869-6.718,1.463-8.52-1.394c-0.689-1.082-1.107-2.367-1.269-3.697c-1.041,1.268-1.98,2.501-2.813,3.626
			c-0.556,0.754-1.229,1.735-1.887,2.834c0.3,1.496,0.942,3.111,2.554,3.911c1.093,0.542,5.981,1.108,6.455-0.353
			c-1.04,3.197-1.552,5.238,3.813,5.533c-1.891,1.983-6.547,8.556,0.352,6.973C19.923,83.352,23.913,78.225,25.033,75.529z"/>
		<path opacity="0.39" fill="#995424" d="M31.851,68.237c1.543-2.104,4.109-7.203,2.291-9.368c-0.72,1.84-2.461,5.314-5.28,5.762
			c-4.433,0.694-4.67-2.484-3.96-4.887c-0.554,0.782-1.293,0.87-1.95,1.402c-1.836-1.448-1.608-4.425-1.243-6.346
			c-1.568,0.398-3.877,3.274-6.338,2.367c-0.961-0.356-1.27-1.188-1.316-2.125c-1.532,1.285-2.951,2.673-4.246,4.085
			c1.627,1.999,5.342,2.93,9.445,0.438c-0.239,2.989-1.061,12.521,6.65,7.846C22.539,72.555,28.62,72.626,31.851,68.237z"/>
	</g>
</g>
</svg>
