<?xml version="1.0" encoding="UTF-8"?>
<!DOCTYPE svg PUBLIC "-//W3C//DTD SVG 1.1//EN" "http://www.w3.org/Graphics/SVG/1.1/DTD/svg11.dtd">
<svg version="1.1" xmlns="http://www.w3.org/2000/svg" xmlns:xlink="http://www.w3.org/1999/xlink" x="0" y="0" width="680" height="688" viewBox="0, 0, 680, 688">
  <g id="ƒŒƒCƒ_x201e__x0081__x005b__x0020_1">
    <g id="_417358768">
      <path d="M93.084,146.938 C93.084,146.938 102.012,247.735 77.244,251.191 C77.244,251.191 52.477,252.919 47.293,219.224 C47.293,219.224 26.845,135.13 53.629,122.747 C53.629,122.747 65.149,111.227 57.085,101.435 C57.085,101.435 44.701,89.052 27.133,104.891 C27.133,104.891 2.365,127.066 11.293,209.144 C11.293,209.144 27.997,301.878 80.412,299.286 C80.412,299.286 104.316,293.238 106.044,285.174 L109.5,393.171 C109.5,393.171 119.292,423.123 112.956,446.162 C112.956,446.162 105.756,510.672 123.612,556.751 C123.612,556.751 121.884,609.742 157.308,616.941 C157.308,616.941 234.203,629.325 237.659,608.878 L234.203,585.838 C234.203,585.838 261.563,571.727 259.835,545.231 C259.835,545.231 212.027,465.745 241.403,423.123 C241.403,423.123 290.939,396.627 291.803,370.996 C291.803,370.996 320.89,400.947 366.106,386.836 C366.106,386.836 389.146,406.419 403.258,402.675 C403.258,402.675 410.458,485.905 375.034,544.079 C375.034,544.079 344.218,593.614 368.986,616.653 C368.986,616.653 380.506,615.789 390.298,630.765 L456.537,635.949 C456.537,635.949 477.849,626.157 464.601,599.662 L439.833,574.031 L451.353,536.016 C451.353,536.016 470.937,571.439 472.665,593.614 C472.665,593.614 472.665,614.062 476.985,620.973 C476.985,620.973 464.601,667.052 487.641,669.644 C487.641,669.644 519.609,690.091 544.376,674.828 C544.376,674.828 581.528,675.692 587.864,660.716 C587.864,660.716 595.928,635.949 572.888,613.773 C572.888,613.773 514.425,496.273 519.897,446.738 C519.897,446.738 535.737,364.372 553.592,332.693 C553.592,332.693 555.608,332.117 558.776,331.253 C559.352,330.965 561.08,326.933 561.944,326.645 C562.808,326.357 562.808,330.101 563.672,329.525 C565.688,328.661 567.992,327.797 570.008,326.645 C570.872,326.069 571.448,321.749 572.312,321.173 C572.888,320.885 574.04,324.341 574.616,323.765 C579.512,320.597 582.968,316.277 582.68,311.382 C582.68,311.382 592.76,315.125 605.432,313.686 C606.872,313.398 604.856,309.654 606.008,309.366 C607.16,309.078 611.48,312.534 612.632,312.246 C613.496,311.958 613.208,306.774 614.36,306.486 C615.224,306.198 617.528,310.518 618.392,310.23 C619.544,309.654 619.832,306.774 621.272,305.91 C621.848,305.622 623.576,307.35 624.152,307.062 C625.016,306.486 626.168,305.622 627.032,304.758 C627.896,304.182 628.184,298.998 629.048,298.134 C629.624,297.558 631.064,301.014 631.928,300.438 C632.792,299.574 633.08,294.966 633.656,293.814 C635.096,294.39 638.264,291.798 635.96,295.254 C637.112,293.526 638.552,291.51 639.704,289.206 C639.992,288.63 639.416,284.598 639.704,284.022 C640.28,283.158 641.72,285.462 642.008,284.31 C642.008,284.31 642.008,278.262 643.448,275.671 C644.024,274.519 645.464,277.974 646.04,276.823 C646.904,275.095 646.616,269.911 647.48,267.895 C648.344,266.167 650.36,268.183 650.936,266.167 C654.392,258.391 657.847,248.887 660.439,237.944 C660.727,237.08 658.423,235.928 658.711,234.776 C659,233.912 661.303,233.048 661.591,232.184 C665.623,211.16 664.759,186.969 650.36,165.945 L660.151,137.722 L659.287,127.93 C659.287,127.93 682.327,77.532 651.224,67.74 C651.224,67.74 614.072,53.628 592.76,99.707 C592.76,99.707 562.808,72.348 520.185,74.94 C520.185,74.94 467.193,34.333 421.978,76.668 C421.978,76.668 405.274,83.004 367.258,56.22 C367.258,56.22 303.611,1.502 203.675,15.613 C203.675,15.613 87.9,36.061 93.948,146.65 z" fill="#373435"/>
      <path d="M591.896,103.739 C547.544,70.908 515.865,78.972 515.865,78.972 C453.945,45.277 427.449,79.836 427.449,79.836 C400.09,87.9 368.122,66.588 368.122,66.588 C293.819,2.942 206.267,21.373 206.267,21.373 C101.148,48.733 97.404,124.763 97.404,124.763 L107.196,269.911 L114.396,390.292 L121.596,429.17 L119.004,445.874 C107.484,491.953 134.844,589.294 134.844,589.294 C142.908,614.926 159.612,608.014 159.612,608.014 L170.268,593.902 L175.452,605.422 C177.18,612.622 192.155,608.014 192.155,608.014 C199.355,605.422 196.475,590.446 196.475,590.446 L204.539,607.15 C207.995,612.334 213.467,608.014 213.467,608.014 L221.531,589.294 L224.987,608.878 C243.419,593.038 206.555,570.863 206.555,570.863 C170.268,563.663 173.724,491.377 173.724,491.377 C184.38,442.706 210.011,308.214 210.011,308.214 C210.011,308.214 260.411,356.02 292.379,365.812 C292.379,365.812 332.122,394.899 366.682,381.652 L415.354,402.963 C415.354,402.963 430.329,503.76 455.097,535.728 C455.097,535.728 482.457,594.19 479.865,618.957 C479.865,618.957 474.681,664.172 487.065,666.764 C487.065,666.764 494.265,650.925 494.265,641.133 L494.265,650.925 L503.193,632.493 L503.193,667.916 C503.193,667.916 512.121,675.98 519.033,672.236 L525.081,648.333 L526.809,672.236 C526.809,672.236 534.009,675.692 535.737,668.78 L535.737,646.605 C535.737,646.605 538.328,671.372 551.576,668.78 L555.896,644.013 L566.552,665.324 C566.552,665.324 585.272,666.188 579.8,645.741 C579.8,645.741 573.464,622.701 563.96,613.774 C563.96,613.774 507.225,489.073 510.969,450.194 C510.969,450.194 529.401,359.188 546.392,332.405 C546.392,332.405 505.785,336.725 489.657,299.574 C489.657,299.574 431.193,296.118 434.073,217.208 C434.073,217.208 438.393,184.377 455.385,162.49 L449.337,147.514 L445.017,127.93 C445.017,127.93 424.569,100.571 444.153,81.852 C444.153,81.852 455.673,49.885 504.345,89.915 C504.345,89.915 548.696,83.58 592.76,104.027 z" fill="#E5AC50"/>
      <path d="M561.944,623.277 C561.944,623.277 548.696,611.47 498.297,630.477 C498.297,630.477 520.185,615.214 556.76,616.654 C556.76,616.654 571.448,617.229 561.944,623.277 z" fill="#FEFEFE"/>
      <path d="M286.619,368.692 C286.619,368.692 276.539,407.283 238.235,419.091 C238.235,419.091 203.099,447.602 248.891,539.759 C248.891,539.759 266.171,550.127 247.163,568.847 C246.875,569.135 249.467,550.127 249.179,550.703 C248.603,551.279 244.859,571.151 243.995,572.015 C241.403,574.319 238.523,576.622 234.779,578.926 L230.171,580.654 L238.235,550.415 C238.235,550.415 226.715,580.654 225.275,579.214 C223.547,577.486 220.667,574.607 217.211,572.015 C216.635,571.439 217.211,549.839 216.635,549.551 C216.059,548.975 214.619,569.999 214.043,569.423 C207.995,564.527 200.795,559.919 196.475,559.919 C196.475,559.919 179.772,540.047 181.212,510.096 L180.636,473.521 L193.307,415.923 L211.739,317.141 C211.739,317.141 253.499,359.476 286.619,368.98 z" fill="#FEFEFE"/>
      <path d="M407.29,406.419 C407.29,406.419 411.322,491.953 374.17,557.039 C374.17,557.039 348.826,599.374 374.17,614.061 C374.17,614.061 401.818,607.438 407.578,596.782 C412.762,610.894 390.586,624.429 392.026,627.885 L406.138,629.325 L417.658,625.005 L429.465,599.95 L421.402,631.053 L439.545,633.069 L448.473,601.678 L446.745,633.933 L454.233,634.797 C454.233,634.797 468.921,621.549 459.417,603.694 C459.417,603.694 449.337,583.246 426.873,580.366 L413.05,575.758 L435.513,577.774 L444.729,532.56 C444.729,532.56 416.794,468.913 412.186,407.283 L407.002,406.707 z" fill="#FEFEFE"/>
      <path d="M98.844,214.616 L104.028,282.294 C104.028,282.294 45.565,326.069 23.677,231.32 C23.677,231.32 -11.747,143.482 39.517,102.299 C39.517,102.299 63.709,99.131 49.021,115.259 C49.021,115.259 18.493,126.49 42.397,223.256 C42.397,223.256 55.645,267.031 82.14,255.799 C82.14,255.799 92.796,252.343 98.844,214.616 z" fill="#D19D4B"/>
      <path d="M534.009,360.052 L525.945,369.268 L523.353,352.564 L519.897,339.317 L509.241,345.365 L502.041,331.541 L488.793,344.213 C488.793,344.213 459.705,406.419 475.545,442.418 L525.945,580.366 L545.816,604.27 L549.848,599.662 L555.032,608.878 L556.472,600.814 C556.472,600.814 506.937,478.705 510.393,449.618 L533.721,360.052 z" fill="#FEFEFE"/>
      <path d="M415.066,402.675 C415.066,402.675 396.634,321.461 380.794,311.67 L362.362,320.309 L346.522,315.126 L340.474,325.205 L327.226,310.518 L314.554,323.765 L293.243,325.205 L286.619,336.437 L277.403,332.405 L267.323,341.621 L259.259,348.821 C259.259,348.821 282.875,363.22 292.091,365.524 C292.091,365.524 327.514,395.475 366.394,381.364 L415.066,402.675 z" fill="#FEFEFE"/>
      <path d="M207.131,320.021 C207.131,320.021 185.243,331.829 179.196,347.093 L166.524,361.78 L161.34,377.62 L155.292,376.18 L153.852,412.755 L145.212,465.169 L140.028,500.881 L127.356,494.833 L123.9,511.536 L121.884,528.816 L131.1,579.79 C131.1,579.79 137.436,614.637 159.324,607.438 L168.252,593.614 L178.332,608.302 C178.332,608.302 182.94,610.894 195.611,604.27 L196.187,592.462 L206.843,608.302 C206.843,608.302 212.891,610.318 216.059,601.678 L221.243,588.718 L224.699,608.302 C224.699,608.302 237.947,599.086 222.683,582.958 C222.683,582.958 212.027,569.135 196.763,567.119 C196.763,567.119 170.844,552.431 173.436,492.241 L206.555,319.733 z" fill="#FEFEFE"/>
      <path d="M437.817,514.416 L425.145,543.503 L424.569,535.44 L413.914,567.407 L405.85,554.159 L392.602,570.863 L384.538,566.255 L377.338,574.895 L372.154,561.647 C372.154,561.647 411.322,502.032 407.29,406.419 L412.474,406.995 C412.474,406.995 413.914,441.554 437.817,514.416 z" fill="#D19D4B"/>
      <path d="M183.228,461.426 L197.915,430.322 L201.947,454.226 L222.395,434.354 L225.851,451.634 C225.851,451.634 231.035,425.139 238.523,419.091 C238.523,419.091 273.083,412.467 286.907,368.692 C286.907,368.692 257.819,363.508 212.027,316.853 C212.027,316.853 189.563,436.37 183.516,461.426 z" fill="#D19D4B"/>
      <path d="M444.441,189.849 C442.713,192.441 442.137,195.033 442.137,195.033 L442.713,198.777 L439.257,201.945 L441.561,203.672 L437.241,208.856 L439.257,209.72 L434.937,214.616 L436.665,215.192 L436.953,218.936 C432.633,248.887 447.897,269.335 447.897,269.335 L450.201,271.639 L453.945,272.503 L451.353,274.519 L455.961,276.247 L462.297,278.551 L459.705,282.006 L468.345,282.006 L466.041,286.038 L471.225,284.022 L469.785,286.902 L496.281,295.83 L499.737,305.91 L502.905,300.15 L507.225,315.126 L510.393,309.942 L512.697,320.885 L515.865,315.702 L519.321,323.765 L522.489,318.581 L525.945,326.069 L532.569,322.901 L535.737,327.797 L543.8,322.613 L549.56,326.933 L552.728,322.613 L556.184,326.069 L561.368,318.869 L566.264,323.765 L570.296,317.141 L573.752,319.445 L576.056,313.686 L578.36,315.126 L578.936,307.926 C578.936,307.926 584.984,304.758 591.896,308.79 L600.248,309.654 L597.944,303.894 L608.888,307.35 L610.328,299.286 L615.512,303.318 L618.68,298.998 L623.576,301.59 L624.44,294.966 L627.032,286.902 L627.896,294.39 L630.488,282.87 L633.944,287.766 L635.672,275.383 L638.84,280.278 L639.704,270.487 L643.736,272.215 L643.16,260.695 L647.192,263.287 L647.192,254.359 L651.224,253.495 L652.088,246.871 L654.68,240.248 L653.815,233.048 L656.119,229.592 C656.119,229.592 663.319,203.096 652.664,182.361 C641.72,158.458 601.4,121.883 601.4,121.883 C616.952,127.067 643.448,163.93 643.448,163.93 L652.664,146.362 C659.863,138.298 654.967,127.643 654.967,127.643 L661.015,109.499 C661.015,84.156 644.6,77.244 644.6,77.244 C613.784,63.996 589.88,109.211 589.88,109.211 L588.44,104.891 C588.44,104.891 539.768,84.156 504.345,96.539 C504.345,96.539 477.273,67.452 451.353,83.58 L438.393,102.587 C438.393,102.587 437.529,109.787 451.641,119.867 C451.641,119.867 443.289,150.682 475.833,151.834 C475.833,151.834 461.721,154.138 456.825,166.521 L449.625,180.345 L447.897,186.393 L447.033,199.065 L449.049,199.641 L447.321,208.568 L449.337,206.264 L447.033,215.192 L449.913,214.616 L447.321,224.12 L450.201,222.68 L447.609,230.744 L450.489,230.456 L448.473,237.368 L450.489,237.656 L449.049,248.023 L451.641,243.991 L449.049,254.935 L451.641,253.207 L449.337,258.967 L447.033,255.511 L448.473,249.463 L446.745,250.039 L447.609,239.096 L445.881,239.384 L446.745,232.184 L444.441,230.456 L445.881,226.712 L444.441,224.696 L446.457,216.344 L444.153,215.768 L444.729,210.584 L443.289,209.72 L445.593,201.081 L443.865,198.777 L443.289,189.561 z" fill="#E5AC50"/>
      <path d="M652.664,182.937 C663.319,203.672 656.119,230.168 656.119,230.168 L653.815,233.624 L654.68,240.823 L652.088,247.447 L651.224,254.071 L647.192,254.935 L647.192,263.863 L643.16,261.271 L643.736,272.791 L639.704,271.063 L638.84,280.854 L635.672,275.959 L633.944,288.342 L630.488,283.446 L627.896,294.966 L627.032,287.478 L624.44,295.542 L623.576,302.166 L618.68,299.574 L615.512,303.894 L610.328,299.862 L608.888,307.926 L597.944,304.47 L600.248,310.23 L591.896,309.366 C585.272,305.334 578.936,308.502 578.936,308.502 L578.36,315.701 L576.056,314.262 L573.752,320.021 L570.296,317.717 L566.264,324.341 L561.368,319.445 L556.184,326.645 L552.728,323.189 L549.56,327.509 L543.8,323.189 L535.737,328.373 L532.569,323.477 L525.945,326.645 L522.489,319.157 L519.321,324.341 L515.865,316.277 L512.697,321.461 L510.393,310.518 L507.225,315.701 L502.905,300.726 L499.737,306.486 L496.281,296.406 L469.785,287.478 L471.225,284.598 L466.041,286.614 L468.345,282.582 L459.705,282.582 L462.297,279.126 L455.961,276.823 L451.353,275.095 L453.945,273.079 L450.201,272.215 L447.897,269.911 C447.897,269.911 432.633,249.463 436.953,219.512 L436.665,215.768 L434.937,215.192 L439.257,210.296 L437.241,209.432 L441.561,204.248 L439.257,202.52 L442.713,199.353 L442.137,195.609 C442.137,195.609 442.713,193.017 444.441,190.425 L445.017,199.641 L446.745,201.945 L444.441,210.584 L445.881,211.448 L445.305,216.632 L447.609,217.208 L445.593,225.56 L447.033,227.576 L445.593,231.32 L447.897,233.048 L447.033,240.247 L448.761,239.96 L447.897,250.903 L449.625,250.327 L448.185,256.375 L450.489,259.831 L452.793,254.071 L450.201,255.799 L452.793,244.855 L450.201,248.887 L451.641,238.52 L449.625,238.232 L451.641,231.32 L448.761,231.608 L451.353,223.544 L448.473,224.984 L451.065,215.48 L448.185,216.056 L450.489,207.128 L448.473,209.432 L450.201,200.505 L448.185,199.929 L449.049,187.257 L450.777,181.209 L457.977,167.385 L460.569,181.209 C460.569,181.209 468.921,171.705 479.865,169.689 L493.401,161.338 L495.417,155.29 C495.417,155.29 500.313,140.89 508.953,144.346 L515.865,145.21 L524.793,146.65 L520.185,153.274 L526.809,155.002 C526.809,155.002 517.881,167.961 517.593,182.073 C517.593,182.073 513.561,171.417 511.257,177.753 C511.257,177.753 502.041,171.705 506.937,182.649 C506.937,182.649 518.169,191.289 509.817,195.609 L509.241,211.16 C509.241,211.16 504.057,210.872 503.193,204.536 L501.177,201.081 C501.177,201.081 490.809,197.337 489.945,191.865 L483.609,180.345 L479.577,202.808 L473.241,207.416 L473.529,226.712 L483.609,231.608 L488.793,245.431 L493.977,260.983 L514.425,270.487 L523.353,268.471 C523.353,268.471 532.857,277.686 542.648,283.446 L565.4,265.015 C565.4,265.015 572.888,262.999 574.904,269.335 L595.928,262.999 L602.264,255.799 L593.624,241.975 L590.744,237.656 L605.432,231.032 L606.296,226.712 L601.112,217.496 C601.112,217.496 612.92,208.856 610.616,186.105 L603.992,185.529 C603.992,185.529 600.248,201.081 587,202.52 C587,202.52 587.288,207.128 583.544,207.704 C583.544,207.704 579.224,210.008 579.512,201.945 L567.992,200.217 C567.992,200.217 567.992,189.849 574.616,182.073 L576.344,179.193 L576.056,172.569 L567.128,176.025 L563.384,157.018 C563.384,157.018 568.28,152.122 571.448,157.306 L567.416,149.53 C567.416,149.53 564.824,142.618 569.144,143.194 C569.144,143.194 595.64,146.938 601.688,161.338 C601.688,161.338 613.208,158.458 620.12,170.553 L637.4,203.096 L643.736,187.545 C643.736,187.545 653.815,194.745 652.088,212.888 C652.088,212.888 655.543,206.84 652.951,183.801 z" fill="#FEFEFE"/>
      <path d="M525.369,301.014 C525.369,301.014 531.705,309.942 542.36,300.438 C542.36,300.438 551.864,309.942 560.216,304.47 C560.216,304.47 560.792,298.71 553.592,296.118 L546.104,292.086 L546.104,284.598 L552.44,278.55 C552.44,278.55 570.008,267.607 569.72,256.375 L568.28,254.359 L564.248,261.271 L548.984,273.079 L546.968,278.838 L544.088,279.414 L543.8,268.183 C543.8,268.183 556.76,259.543 559.928,262.135 C559.928,262.135 564.248,260.119 558.2,259.831 C558.2,259.831 549.848,261.271 542.936,265.015 C542.936,265.015 531.417,258.967 522.489,261.271 C522.489,261.271 537.177,261.847 541.496,267.031 L541.496,279.99 C541.496,279.99 537.177,280.278 536.889,275.959 C536.889,275.959 533.145,270.199 529.689,268.759 C529.689,268.759 520.473,266.455 519.321,254.359 C519.321,254.359 514.713,252.343 515.577,260.119 C515.577,260.119 520.185,269.623 532.281,277.111 C532.281,277.111 536.889,284.598 541.784,285.75 L540.92,290.646 C540.92,290.646 529.977,296.694 525.657,301.014 z" fill="#373435"/>
      <path d="M611.192,127.354 L613.496,121.307 L617.528,115.547 L618.392,111.515 L611.192,110.939 L619.832,106.043 L631.64,100.283 L627.032,98.555 L615.224,98.267 C615.224,98.267 632.504,80.988 641.432,81.276 L627.896,90.779 C627.896,90.779 642.872,87.899 645.752,95.387 L645.176,104.315 L631.928,105.755 L636.248,110.363 L623.288,110.651 L631.64,115.835 L622.136,117.851 L628.184,121.883 L623.288,123.611 L626.744,126.202 L623.864,129.082 L628.472,131.962 L623.576,135.706 L627.32,142.33 C627.32,142.33 613.784,127.93 612.056,126.778 z" fill="#FEFEFE"/>
      <path d="M495.129,102.875 L480.153,95.387 L470.649,90.491 L451.641,93.947 L457.689,95.963 L447.609,106.331 L455.961,102.011 L457.977,104.603 L450.777,111.515 L459.993,108.923 L462.297,112.667 L452.217,119.579 L463.449,115.835 L466.041,120.731 L455.961,131.674 L466.617,126.491 L468.921,133.69 L474.105,137.722 L477.561,137.722 L493.113,115.547 C493.113,115.547 497.145,106.619 494.841,103.163 z" fill="#FEFEFE"/>
      <path d="M531.705,101.435 C531.705,101.435 567.128,104.315 572.888,103.451 C572.888,103.451 569.144,99.707 555.896,98.843 C555.896,98.843 529.689,95.387 531.705,101.435 z" fill="#373435"/>
      <path d="M547.544,106.619 C547.544,106.619 526.521,100.283 512.985,111.515 C512.985,111.515 519.321,108.923 532.857,109.787 L546.68,110.651 C546.68,110.651 556.76,106.331 568.568,110.075 L585.848,113.819 L575.192,108.635 C575.192,108.635 558.2,103.451 547.256,106.619 z" fill="#373435"/>
      <path d="M566.84,302.454 C566.84,302.454 570.584,308.214 577.208,303.894 L581.24,304.47 L581.816,299.286 L587,296.406 L591.032,290.07 L595.352,284.886 L597.656,281.718 L597.944,275.383 L610.328,267.319 L627.608,258.679 L633.368,256.951 L635.384,253.207 L636.824,245.719 L638.84,238.807 L639.128,228.152 C639.128,228.152 648.056,186.681 629.048,164.505 C629.048,164.505 613.208,136.57 603.416,137.722 C603.416,137.722 615.224,148.666 615.8,157.594 L622.136,159.898 L612.92,160.762 C612.92,160.762 625.88,179.769 629.048,195.321 L633.08,212.6 L635.384,214.904 L633.656,217.784 L633.368,221.816 L635.096,228.152 L630.488,225.56 L629.912,229.88 L629.624,234.2 L626.744,232.76 C626.744,232.76 620.696,227.576 622.136,221.528 L624.44,219.512 L621.56,216.632 L622.136,213.752 L626.168,215.768 L623.288,209.72 L624.152,204.824 L622.424,197.625 L623.864,193.881 L620.984,191.289 L620.984,186.681 L618.392,183.225 L618.968,179.193 L614.648,175.161 L612.344,172.281 L616.376,171.705 L611.768,167.961 C611.768,167.961 609.176,157.306 605.144,157.306 C605.144,157.306 597.08,156.442 600.536,163.929 L600.824,166.809 C600.824,166.809 592.76,160.474 589.016,165.081 C589.016,165.081 582.968,150.394 567.128,148.954 C567.128,148.954 577.208,165.945 576.632,177.177 C576.632,177.177 579.224,161.05 574.616,155.29 C574.616,155.29 585.56,157.306 583.544,170.265 L578.648,179.481 C578.648,179.481 584.984,172.857 593.912,173.145 C593.912,173.145 602.552,173.145 604.28,170.265 C604.28,170.265 606.584,178.329 599.384,178.905 C599.384,178.905 579.224,170.265 573.752,192.441 L575.192,207.704 L580.088,218.936 C580.088,218.936 578.072,202.232 579.8,197.337 C579.8,197.337 594.488,200.792 598.52,183.801 L600.248,183.513 C600.248,183.513 603.992,198.777 584.984,200.504 C584.984,200.504 591.32,205.112 600.536,195.321 C600.536,195.321 607.736,193.305 607.736,186.105 L610.04,188.985 L611.48,180.633 L615.512,192.441 C615.512,192.441 625.016,216.344 615.512,222.68 L607.448,223.544 L606.008,216.92 C606.008,216.92 615.512,202.232 612.344,191.001 C612.344,191.001 608.312,208.568 602.84,212.6 L602.264,214.616 L594.488,215.48 L602.84,219.512 C602.84,219.512 607.448,226.712 604.856,228.152 L594.488,218.648 L601.4,231.32 C601.4,231.32 596.792,234.776 606.584,233.336 L613.496,233.624 L613.496,240.247 L608.312,239.095 L613.208,244.855 L608.312,245.431 L610.904,249.463 L608.6,250.903 L606.872,248.599 L607.448,254.647 L611.768,252.919 L615.224,247.159 L618.968,246.871 L620.408,240.823 L622.424,240.247 L624.44,243.127 L621.848,247.735 L621.56,250.327 L619.256,250.615 L617.816,252.631 L610.328,255.511 L606.584,259.255 L605.72,259.255 L604.28,259.255 L606.584,234.776 L601.4,241.687 C601.4,241.687 596.504,241.399 594.776,238.807 L588.44,226.136 C588.44,226.136 592.76,247.447 599.672,253.207 L601.112,259.543 L597.368,259.255 L589.88,252.055 L589.592,256.087 L585.272,257.815 L591.896,260.119 L592.76,263.575 L569.432,272.215 C569.432,272.215 589.016,270.199 595.352,266.167 L604.568,262.711 L616.376,262.711 C616.376,262.711 599.096,264.439 597.08,269.623 L595.352,273.943 L563.96,281.718 L585.56,279.702 L590.456,281.718 L585.848,286.038 L577.784,293.238 C577.784,293.238 566.84,298.998 567.704,302.742 z" fill="#373435"/>
      <path d="M576.344,188.409 C576.344,188.409 580.088,195.321 585.272,193.593 C585.272,193.593 593.048,190.137 591.32,184.377 C591.32,184.377 589.016,178.905 579.8,184.377 C579.8,184.377 576.92,185.529 576.344,188.409 z" fill="#B97542"/>
      <path d="M579.8,186.969 C579.8,186.969 582.104,193.017 585.848,188.121 C585.848,188.121 588.152,185.529 587.576,182.073 C587.576,182.073 578.072,181.209 579.8,186.969 z" fill="#373435"/>
      <path d="M546.68,133.978 L545.528,156.73 L547.256,163.93 L551,157.306 L561.08,161.626 C561.08,161.626 566.264,175.449 561.656,189.849 C561.656,189.849 570.584,176.025 567.992,163.642 L565.976,155.002 L561.368,153.85 L560.504,149.53 L556.76,152.41 L555.608,148.378 L552.728,151.834 L551,148.666 L549.272,144.058 L551.576,142.042 L551.576,137.722 L546.968,133.69 z" fill="#373435"/>
      <path d="M551.864,131.674 L554.456,139.45 C554.456,139.45 570.872,142.042 577.208,146.65 L579.8,146.074 L581.24,148.378 L587.864,143.194 L578.936,140.89 L551.864,131.962 z" fill="#373435"/>
      <path d="M553.88,125.051 C553.88,125.051 574.616,133.978 577.784,137.146 C577.784,137.146 578.36,133.402 573.176,131.674 C573.176,131.674 576.344,127.93 580.376,133.114 L581.816,138.298 C581.816,138.298 585.272,129.082 577.496,125.915 C577.496,125.915 554.456,121.595 553.88,125.339 z" fill="#373435"/>
      <path d="M551.288,115.547 C551.288,115.547 548.696,113.819 554.744,113.243 C554.744,113.243 568.568,110.939 574.328,115.259 C574.328,115.259 579.224,114.971 583.832,118.427 L586.136,120.443 L581.528,119.579 L580.088,120.443 L575.48,116.987 L572.024,118.139 L556.184,118.427 L551.576,115.547 z" fill="#373435"/>
      <path d="M543.224,115.259 L542.648,122.459 L545.24,123.899 L545.24,129.946 L548.984,124.475 L551,122.747 z" fill="#373435"/>
      <path d="M517.593,118.427 L520.473,117.275 L527.097,118.427 L533.145,117.563 L537.465,117.275 L538.904,119.291 L539.768,116.123 L540.92,113.531 L538.617,112.667 L533.721,113.531 L528.249,114.395 L517.593,114.971 L513.849,118.715 z" fill="#373435"/>
      <path d="M537.465,123.035 L533.433,124.475 L532.857,126.779 L526.521,129.946 L519.321,132.25 L515.865,133.69 L519.033,130.522 L520.473,127.066 L525.657,124.187 C525.657,124.187 533.721,121.595 537.465,123.035 z" fill="#373435"/>
      <path d="M537.464,132.826 C537.464,132.826 515.001,136.57 511.545,141.466 L506.937,145.786 L504.345,148.09 L513.273,146.65 C513.273,146.65 534.009,135.994 537.177,135.994 L537.464,132.538 z" fill="#373435"/>
      <path d="M542.36,133.402 L540.057,137.722 L539.481,142.042 L540.345,148.378 C540.345,148.378 536.313,152.986 533.145,152.698 L527.673,150.394 L522.489,150.394 L516.441,150.394 C516.441,150.394 510.393,150.682 508.665,154.426 L508.089,158.17 L510.681,160.762 L510.105,173.721 L517.017,159.898 L519.033,153.562 L524.793,154.138 C524.793,154.138 512.985,161.914 516.153,175.449 L519.609,190.137 L521.049,183.801 L522.201,196.473 L523.641,183.801 L523.065,175.737 L520.761,166.809 C520.761,166.809 521.337,157.882 529.401,160.186 C529.401,160.186 541.497,158.458 541.784,153.85 L542.073,150.97 C542.073,150.97 544.376,139.162 542.937,133.402 z" fill="#373435"/>
      <path d="M506.073,159.034 C506.073,159.034 504.057,165.945 505.497,169.977 L507.801,174.009 L511.257,176.313 L509.817,178.905 L507.225,177.177 L504.345,174.873 L498.873,172.569 L489.945,171.129 L486.489,172.569 L490.809,178.617 C490.809,178.617 511.545,175.449 514.137,188.985 L515.001,202.52 L512.409,201.656 C512.409,201.656 509.241,208.856 508.665,210.584 C508.089,212.312 507.225,197.625 507.225,197.625 C507.225,197.625 493.401,197.049 492.537,183.801 C492.537,183.801 483.321,190.137 503.193,199.353 L503.769,206.552 L499.161,202.808 C499.161,202.808 497.721,208.856 491.097,203.96 L484.761,198.489 L492.825,202.52 C492.825,202.52 496.857,204.824 497.433,201.368 L484.761,190.425 L484.185,186.105 C484.185,186.105 476.697,197.337 482.745,204.248 C482.745,204.248 489.657,211.736 494.553,211.448 L497.145,212.024 C497.145,212.024 493.689,218.936 487.065,216.056 C487.065,216.056 478.425,210.872 478.137,202.808 C478.137,202.808 477.273,198.489 478.713,197.625 L479.865,189.273 L480.441,176.313 C480.441,176.313 475.545,178.329 474.681,199.641 C474.681,199.641 473.241,219.8 476.409,223.544 L482.169,224.408 L482.745,226.712 L484.473,226.136 C484.473,226.136 487.929,218.648 493.401,218.648 L495.417,218.936 L491.961,222.968 L499.161,223.256 C499.161,223.256 493.977,234.2 486.489,235.64 L488.793,242.839 C488.793,242.839 495.705,239.095 496.857,232.472 C496.857,232.472 496.569,243.991 493.113,251.191 L492.825,256.087 C492.825,256.087 482.745,248.311 482.745,232.184 C483.033,216.056 482.745,231.608 482.745,231.608 C482.745,231.608 475.257,233.048 476.697,239.095 L482.169,246.583 C482.169,246.583 486.489,254.647 478.425,247.735 C478.425,247.735 471.225,243.991 469.497,228.728 C469.497,228.728 463.449,182.361 485.337,161.626 L495.705,151.258 L489.945,165.657 L491.385,168.825 L497.721,165.369 L501.177,168.825 L502.905,169.113 C502.905,169.113 503.481,159.61 505.785,159.61 z" fill="#373435"/>
      <path d="M502.905,276.247 C502.905,276.247 523.641,279.414 528.537,284.598 C528.537,284.598 511.833,280.278 506.361,283.158 C506.361,283.158 506.937,291.798 527.673,289.782 C527.673,289.782 514.137,294.102 505.209,290.646 L506.937,294.678 L517.593,295.254 L530.553,293.526 L520.761,303.606 L516.729,307.062 L507.225,305.334 L506.361,301.878 L502.041,298.134 L500.025,298.998 L497.433,291.798 L493.977,290.646 L491.385,278.55 L490.521,275.959 C490.521,275.959 484.185,273.079 482.169,265.879 L472.953,266.455 L470.937,263.287 L463.161,259.255 L460.857,252.055 L460.569,247.735 L457.977,247.735 L459.993,244.279 L459.705,239.384 L456.537,240.823 L458.841,234.488 L457.977,229.016 L454.521,229.88 L457.977,224.408 L456.537,221.816 L454.233,222.392 L456.249,218.072 L457.977,210.872 L454.809,209.72 L457.401,205.4 L457.401,201.657 L453.369,202.232 L456.825,195.897 L460.281,185.817 L457.113,186.681 C457.113,186.681 462.585,162.49 471.225,159.322 C471.225,159.322 494.265,133.69 499.449,135.994 C499.449,135.994 463.161,167.097 462.873,208.568 C462.873,208.568 457.689,236.504 477.561,250.615 L492.249,260.407 L500.313,250.327 L499.737,256.087 L503.481,257.527 L497.721,259.543 L496.569,263.287 L518.745,271.063 C518.745,271.063 498.297,271.639 490.809,265.591 L486.777,265.015 C486.777,265.015 486.201,272.215 502.617,275.959 z" fill="#373435"/>
      <path d="M522.489,261.559 C522.489,261.559 536.312,262.711 541.496,267.319 L541.496,280.278 C541.496,280.278 537.464,281.718 536.888,276.246 C536.888,276.246 533.145,269.623 529.113,269.047 C529.113,269.047 519.609,263.287 522.777,261.559 z" fill="#E18C4D"/>
      <path d="M543.8,268.183 L544.089,279.414 C544.089,279.414 545.816,280.854 546.968,278.838 L548.408,273.943 L561.944,263.575 C561.944,263.575 562.52,262.135 559.064,261.847 C559.064,261.847 555.32,260.695 543.512,268.183 z" fill="#E18C4D"/>
      <path d="M525.369,201.081 C525.369,201.081 513.849,229.592 517.881,248.599 C517.881,248.599 513.561,236.792 516.441,220.376 C516.441,220.376 520.473,201.945 525.369,201.081 z" fill="#373435"/>
      <path d="M564.536,201.081 C564.536,201.081 569.72,225.272 566.84,242.263 L568.568,249.751 L573.464,237.944 L572.024,231.608 L573.752,215.48 C573.752,215.48 577.784,220.376 581.816,244.567 L586.424,250.327 L583.544,222.104 L579.224,218.648 L573.176,210.008 C573.176,210.008 568.568,196.473 564.824,199.929 L564.536,200.793 z" fill="#373435"/>
      <path d="M498.297,184.665 C498.297,184.665 497.433,192.153 504.921,193.305 C504.921,193.305 510.969,191.865 510.681,188.697 C510.681,188.697 504.345,178.905 498.297,184.665 z" fill="#B97542"/>
      <path d="M500.313,183.513 C500.313,183.513 500.601,192.441 507.513,188.409 L508.953,185.817 C508.953,185.817 503.769,181.209 500.313,183.513 z" fill="#373435"/>
      <path d="M438.393,258.391 C438.393,258.391 444.441,311.382 507.513,382.516 L468.345,348.821 C468.345,348.821 411.322,267.895 438.393,258.679 z" fill="#373435"/>
      <path d="M415.354,313.397 C415.354,313.397 435.225,396.339 505.497,413.043 C505.497,413.043 499.449,430.322 460.281,403.827 C460.281,403.827 418.522,371.86 415.066,313.685 z" fill="#373435"/>
      <path d="M417.946,419.091 C417.946,419.091 444.441,440.402 470.361,434.93 C470.361,434.93 463.737,448.178 420.538,434.93 L417.946,419.091 z" fill="#373435"/>
      <path d="M428.889,467.185 C428.889,467.185 468.345,459.122 485.625,464.882 C485.625,464.882 464.889,465.458 449.049,474.097 L435.225,489.937 L428.889,466.897 z" fill="#373435"/>
      <path d="M445.305,516.144 L483.897,506.352 C483.897,506.352 455.961,528.528 455.097,535.152 L445.305,516.144 z" fill="#373435"/>
      <path d="M462.297,550.703 L500.313,528.24 L484.185,548.111 L476.985,547.247 L472.089,555.599 L469.785,547.535 L465.177,559.631 z" fill="#373435"/>
      <path d="M427.449,534 L426.585,526.512 L415.642,514.128 L413.914,501.169 L408.73,511.248 L407.29,515.568 L412.186,516.144 L408.154,538.32 L414.202,524.496 L411.61,541.2 L421.401,526.224 L423.993,530.256 L411.034,544.943 L419.098,544.367 L409.306,553.583 L411.61,556.751 C411.61,556.751 422.553,550.127 427.449,533.712 z" fill="#373435"/>
      <path d="M427.161,483.601 L423.706,472.945 L422.266,485.905 L419.674,470.353 L415.354,481.297 L416.218,463.729 L412.186,476.689 L413.05,459.986 L409.018,466.609 L407.29,452.498 L407.866,426.002 L412.186,419.379 C412.186,419.379 423.706,476.977 427.161,483.889 z" fill="#373435"/>
      <path d="M116.124,462.866 L131.964,481.009 C131.964,481.009 149.244,506.352 167.676,492.817 C167.676,492.817 171.708,488.497 161.34,484.753 C161.34,484.753 133.116,476.689 130.812,460.562 C130.812,460.562 121.884,450.482 115.836,462.866 z" fill="#373435"/>
      <path d="M119.58,397.203 C119.58,397.203 124.764,444.434 148.38,448.466 L164.22,447.602 L175.74,454.802 L180.06,448.466 C180.06,448.466 189.275,445.01 179.484,438.674 L170.268,431.186 L168.54,425.139 L157.596,437.522 L161.052,428.594 L156.156,426.29 L148.956,431.186 L148.956,426.29 L143.196,429.458 L146.364,423.123 L139.74,423.987 L140.316,419.667 L135.132,423.987 L137.436,412.179 L132.252,420.243 L132.252,408.435 L127.932,413.619 C127.932,413.619 124.476,387.988 119.868,397.203 z" fill="#373435"/>
      <path d="M123.324,348.533 C123.324,348.533 118.428,368.98 127.356,383.092 L125.628,389.716 L132.252,388.852 L131.388,401.811 L135.708,394.611 L134.844,405.267 L139.164,397.203 L137.724,406.995 L146.076,399.795 C146.076,399.795 159.036,423.123 170.844,404.979 L172.572,413.043 L180.636,410.739 L184.956,409.875 L188.124,401.523 L184.956,396.339 L174.012,396.915 C174.012,396.915 170.556,392.883 163.932,392.019 L144.924,381.076 C144.924,381.076 129.372,360.628 129.948,345.365 L129.948,335.285 L112.668,295.542 L112.092,309.654 L112.956,330.389 L114.684,330.389 L115.548,341.045 L118.14,338.453 L123.036,349.109 z" fill="#373435"/>
      <path d="M113.82,292.95 L117.276,281.142 L118.14,273.943 L112.38,217.208 L113.82,210.872 L106.62,232.472 C106.62,232.472 112.668,282.006 113.82,292.662 z" fill="#373435"/>
      <path d="M146.076,54.204 C146.076,54.204 104.604,97.403 116.412,200.217 C116.412,200.217 122.46,306.774 155.004,351.125 C155.004,351.125 177.18,385.684 193.883,385.972 L198.203,362.644 L196.475,354.58 L191.579,358.9 L187.548,349.109 L184.956,351.413 L179.196,340.757 L174.876,344.789 L174.876,330.101 L169.98,334.421 L173.148,323.765 L165.948,328.949 C165.948,328.949 158.748,314.838 159.324,295.254 C159.324,295.254 131.1,258.103 130.524,229.304 C130.524,229.304 119.004,163.93 129.084,115.547 L127.644,112.955 L132.54,104.027 L128.22,105.467 C128.22,105.467 138.3,60.252 145.788,53.628 z" fill="#373435"/>
      <path d="M173.724,34.621 C173.724,34.621 152.988,53.341 148.092,76.956 L140.028,88.764 L144.348,84.444 L140.028,101.723 L143.484,94.523 L139.452,115.259 L142.044,111.227 L137.724,129.37 L141.18,127.643 L133.116,148.09 L139.74,136.57 L134.556,179.769 C134.556,179.769 144.636,136.858 145.212,126.203 C145.212,126.203 153.276,51.901 173.436,34.333 z" fill="#373435"/>
      <path d="M227.291,22.237 C227.291,22.237 186.683,24.829 176.892,55.068 C176.892,55.068 212.603,23.677 227.291,22.237 z" fill="#373435"/>
      <path d="M205.979,41.821 C205.979,41.821 179.772,53.628 174.588,74.652 C174.588,74.652 163.644,86.172 159.612,111.803 L147.804,157.306 L142.908,193.593 L154.716,144.922 L153.852,163.066 L152.412,174.873 L148.38,193.017 L142.62,202.808 L142.044,212.888 L145.212,238.52 L147.804,263.287 L154.428,266.743 L162.78,292.95 L174.588,317.717 L185.532,331.541 L175.452,309.942 L167.964,271.927 L163.644,270.487 L165.948,262.423 L162.492,262.423 L165.084,253.207 L158.46,246.007 L155.004,221.816 L155.004,208.568 L157.308,199.641 L159.9,197.049 C159.9,197.049 161.34,167.961 163.356,136.57 C163.356,136.57 164.22,87.612 171.708,83.868 L169.404,129.082 L167.1,163.641 L167.964,178.329 L167.388,182.361 L165.084,189.561 L167.676,188.121 L164.508,201.08 L167.964,195.033 L166.236,214.904 L165.372,235.352 L171.708,271.639 L184.092,314.549 L190.427,324.341 L195.611,326.933 L206.555,320.885 L205.979,305.046 L200.795,318.293 C200.795,318.293 195.899,309.078 203.099,301.59 C203.099,301.59 192.155,310.518 191.579,319.733 L189.275,313.109 L187.835,309.942 L188.411,304.182 L184.38,298.998 L187.835,286.038 L184.38,287.766 L186.108,269.335 L184.668,271.639 L179.772,256.663 L176.604,240.823 L176.028,226.136 L179.196,214.616 L185.532,240.823 L189.563,255.511 L190.139,268.471 L195.899,262.711 L198.203,241.399 L195.035,243.703 L193.595,229.88 L191.003,234.776 L191.003,225.56 L189.275,226.136 L188.411,219.8 L186.108,221.528 L186.684,212.6 L189.851,200.792 L190.715,196.473 L187.548,197.049 L189.275,191.865 L191.579,187.545 L188.123,184.953 L193.307,174.297 L188.123,173.433 L197.339,161.626 L192.155,160.762 L197.051,151.546 L197.915,145.786 L202.811,136.57 L199.643,134.266 L209.723,125.339 L201.659,126.778 L203.387,114.107 L204.827,94.235 L211.451,76.956 C211.451,76.956 195.899,80.124 191.867,90.779 L189.563,103.739 L194.747,103.163 L192.155,117.851 L188.987,122.171 L192.155,126.49 L187.835,137.146 L183.516,152.698 C183.516,152.698 181.212,168.249 180.348,177.465 L177.18,186.681 L180.348,184.953 L177.18,195.033 L180.348,190.137 L181.212,197.337 L179.772,204.536 L174.876,205.112 L172.284,195.033 C172.284,195.033 169.98,169.689 176.316,150.682 C176.316,150.682 179.772,85.308 187.835,74.94 C187.835,74.94 199.355,47.581 205.403,44.125 z" fill="#373435"/>
      <path d="M201.371,70.044 C201.371,70.044 208.571,47.869 230.171,41.821 L222.971,40.957 C222.971,40.957 253.787,24.541 278.555,28.573 C278.555,28.573 248.891,37.501 240.539,43.549 C240.539,43.549 211.451,52.764 201.083,70.044 z" fill="#373435"/>
      <path d="M247.163,49.597 C247.163,49.597 222.971,55.356 217.499,66.3 L231.611,60.54 C231.611,60.54 214.907,71.196 212.027,78.684 L213.755,79.548 L209.435,90.492 L205.979,109.211 C205.979,109.211 237.371,53.916 247.163,49.597 z" fill="#373435"/>
      <path d="M319.162,39.229 C319.162,39.229 262.139,46.717 242.555,87.9 L230.171,97.979 L212.027,134.266 L215.195,116.987 L225.851,97.115 L220.091,97.115 L230.747,91.355 L229.019,87.9 L239.963,81.564 L230.747,80.124 L239.675,72.924 L241.403,68.028 L249.755,62.268 L255.515,53.052 C255.515,53.052 290.075,31.453 319.162,38.941 z" fill="#373435"/>
      <path d="M201.371,224.696 L212.891,194.169 C212.891,194.169 240.827,122.459 245.147,120.443 L255.227,102.011 L229.883,116.123 L229.883,123.611 L224.123,132.826 L215.771,141.178 L214.043,148.666 L212.315,155.002 L207.995,175.737 L204.827,191.577 L202.523,194.745 L203.387,197.337 L200.219,203.384 L200.795,211.448 L201.371,224.696 z" fill="#373435"/>
      <path d="M258.683,113.531 C258.683,113.531 282.875,70.044 313.402,62.556 C313.402,62.556 304.186,59.1 290.939,65.148 L270.203,81.564 L260.123,92.507 L262.427,93.083 L258.107,100.571 L260.411,101.147 L256.091,110.075 C256.091,110.075 251.195,129.082 259.259,113.531 z" fill="#373435"/>
      <path d="M259.547,125.339 L266.171,115.547 L265.307,112.379 L272.507,106.331 L269.339,102.299 L277.691,99.707 L279.419,93.371 L287.483,88.187 L305.05,74.076 L337.882,60.828 L336.154,57.66 L320.602,60.252 L332.41,53.628 L327.514,50.46 L317.434,50.46 L320.89,46.141 L336.442,45.277 L356.89,57.084 C356.89,57.084 287.771,85.884 259.547,125.051 z" fill="#373435"/>
      <path d="M369.85,74.94 C369.85,74.94 331.834,70.908 315.994,93.083 C315.994,93.083 306.202,91.355 300.443,101.435 L275.675,137.722 C275.675,137.722 263.291,142.618 253.211,163.354 L233.627,192.153 L234.491,196.185 L227.291,217.784 L224.123,227.864 L226.715,231.896 L220.091,241.111 L219.515,251.191 L220.955,262.711 L224.987,278.55 L228.155,298.998 C228.155,298.998 246.299,326.933 273.371,350.261 L312.25,376.756 C312.25,376.756 335.578,391.731 366.106,381.076 L349.69,359.476 C349.69,359.476 328.378,343.637 329.242,308.502 L324.346,330.677 L326.074,334.997 L330.106,350.549 L340.186,360.34 L345.37,368.692 C345.37,368.692 328.09,370.132 322.33,363.796 C322.33,363.796 318.01,359.476 322.906,357.46 C322.906,357.46 306.202,330.389 313.978,300.726 C313.978,300.726 306.778,239.383 311.674,231.608 L316.858,228.152 L320.89,262.135 C320.89,262.135 321.466,163.93 336.442,141.754 C336.442,141.754 362.65,91.643 406.714,88.188 C406.714,88.188 383.386,83.868 365.53,94.235 L344.218,107.483 L355.162,103.163 L334.714,119.579 L344.794,116.123 L329.818,129.946 L333.274,131.674 L323.482,148.954 L322.618,160.474 L314.554,221.816 C314.554,221.816 303.611,230.744 297.275,251.479 L292.379,270.487 L291.515,278.55 L299.579,268.759 L290.651,288.63 L291.515,292.086 L296.699,286.326 L291.515,298.71 L290.939,309.654 L290.075,314.549 L296.699,307.062 L293.531,315.413 L290.939,321.173 L291.515,336.725 L298.139,354.292 L313.114,361.492 L315.706,366.676 C315.706,366.676 289.211,356.596 277.979,345.365 C277.979,345.365 253.211,321.461 248.891,292.374 L241.403,250.327 L233.915,264.151 L230.459,257.815 L237.947,246.871 L237.371,232.184 L242.555,225.56 L245.147,209.144 L250.043,196.761 L257.531,166.233 L269.915,144.058 L262.715,167.097 L251.195,215.192 L249.755,233.624 L254.075,211.16 L262.139,180.633 L269.627,169.689 L277.115,159.61 L273.947,158.17 L279.995,148.954 L282.299,138.874 L294.107,119.003 L301.307,101.435 L311.098,94.811 L305.051,110.651 L301.019,122.459 L294.971,140.026 L289.211,145.786 L287.771,151.834 L285.467,163.354 L282.011,169.113 L281.147,175.161 L278.843,181.497 L279.707,187.257 L277.115,194.745 C277.115,194.745 273.659,204.536 271.355,212.024 L262.427,227 L261.563,238.808 L259.259,246.295 L260.123,256.375 L260.123,264.727 L260.123,274.807 L262.427,289.494 L263.003,302.454 L265.307,313.11 L266.171,298.134 L267.035,288.054 L266.459,278.838 L264.731,254.935 L267.323,235.064 L273.083,221.24 L278.843,204.536 L286.331,175.737 L294.395,156.73 L299.291,145.786 L301.595,129.946 L307.93,123.323 L307.066,120.731 L315.13,113.243 L323.194,102.587 L315.994,104.315 L321.178,97.115 L331.258,93.083 L328.666,89.627 L343.642,82.428 C343.642,82.428 359.482,72.348 367.834,73.5 z" fill="#373435"/>
      <path d="M362.362,84.156 C362.362,84.156 323.77,105.755 305.338,174.009 L295.259,193.017 L300.155,190.713 L291.227,207.416 L284.891,219.512 L290.075,214.616 L281.723,232.184 L279.419,277.687 L277.691,295.83 L281.723,290.934 L276.827,306.486 L283.163,295.83 L278.267,314.838 L280.571,319.733 L282.299,325.493 L284.027,313.11 L285.467,305.622 L286.331,298.998 L286.907,293.814 L286.907,287.19 L290.939,277.111 L291.803,257.527 L299.003,227.864 L303.035,214.04 L306.202,199.065 L308.794,185.817 L310.234,174.873 L313.402,164.218 C313.402,164.218 333.274,98.843 362.938,84.156 z" fill="#373435"/>
      <path d="M331.546,259.831 L338.746,291.222 L362.938,338.165 L377.05,374.74 L377.914,381.364 L373.594,375.028 L367.834,370.708 L364.666,365.812 L362.074,362.644 L361.21,356.02 L354.586,356.884 L354.01,351.989 L350.842,346.805 L342.778,326.933 L336.73,313.686 L333.562,300.438 L329.242,292.374 L328.666,281.718 L329.242,274.519 C329.242,274.519 325.21,261.559 331.546,259.543 z" fill="#373435"/>
      <path d="M384.25,376.18 C384.25,376.18 381.082,352.277 377.05,350.549 C377.05,350.549 360.634,328.085 358.618,319.157 L344.506,280.566 C344.506,280.566 333.562,231.032 338.458,203.672 C338.458,203.672 341.626,159.034 354.874,141.466 L374.458,114.107 L362.938,135.706 L354.586,150.394 L357.178,153.562 L350.554,165.945 L347.962,176.025 L353.146,167.961 L347.386,188.409 L346.81,220.664 L356.602,287.478 C356.602,287.478 360.922,315.701 373.018,333.845 C373.018,333.845 387.13,354.292 384.538,376.18 z" fill="#373435"/>
      <path d="M396.922,360.052 C396.922,360.052 388.858,338.453 381.946,335.285 C381.946,335.285 364.666,312.246 366.394,302.166 L371.578,305.622 L375.898,305.622 L378.202,316.565 C378.202,316.565 398.938,330.389 396.634,360.052 z" fill="#373435"/>
      <path d="M381.082,307.062 C381.082,307.062 359.77,263.287 362.65,224.408 C362.65,224.408 357.466,123.035 394.042,101.147 L387.418,110.939 L380.794,122.459 L380.794,131.386 L383.962,127.355 L379.642,141.178 L377.914,157.018 L373.018,184.377 L373.018,225.56 C373.018,225.56 374.458,279.99 381.37,307.35 z" fill="#373435"/>
      <path d="M393.754,204.536 L388.57,231.608 L389.146,247.159 C389.146,247.159 383.098,252.343 388.57,270.487 L399.226,296.118 L398.65,275.671 L394.618,241.111 C394.618,241.111 389.722,216.92 393.754,204.536 z" fill="#373435"/>
      <path d="M406.138,98.843 L392.89,112.667 L387.994,137.146 L387.13,149.53 L384.538,161.914 L387.13,159.322 L386.554,174.297 L387.994,194.169 L391.162,197.337 L390.298,189.849 C390.298,189.849 391.162,148.378 393.754,144.346 L398.65,134.266 L394.33,136.858 L397.498,126.202 L400.666,123.035 L398.938,119.579 L402.106,112.955 L402.106,107.771 L406.426,99.419 z" fill="#373435"/>
      <path d="M438.393,79.836 C438.393,79.836 407.866,107.771 400.666,144.346 L399.226,161.914 L405.85,141.178 L412.474,125.339 C412.474,125.339 430.617,85.596 438.105,79.836 z" fill="#373435"/>
      <path d="M425.721,117.851 C425.721,117.851 408.154,162.49 410.17,228.728 C410.17,228.728 411.61,294.678 431.481,327.221 C431.481,327.221 412.762,271.639 417.37,243.703 L415.642,207.992 L417.082,182.361 L422.266,160.762 L417.37,168.825 C417.37,168.825 423.993,123.611 425.721,117.851 z" fill="#373435"/>
      <path d="M440.409,123.899 C440.409,123.899 417.37,163.354 431.481,215.48 L438.681,191.289 C438.681,191.289 437.817,149.818 442.713,132.826 C442.713,132.826 443.289,122.747 440.409,123.899 z" fill="#373435"/>
      <path d="M190.427,449.618 C190.427,449.618 220.955,447.89 216.923,452.21 L207.131,457.394 L224.411,457.97 L224.987,462.866 L201.947,466.897 L206.843,462.866 L204.251,458.834 L186.107,457.394 L190.427,449.33 z" fill="#373435"/>
      <path d="M195.611,483.025 C195.611,483.025 220.955,477.265 223.835,481.585 L223.259,492.529 L218.075,486.481 L210.587,488.209 C210.587,488.209 212.891,497.137 218.075,494.833 C218.075,494.833 210.011,501.456 208.283,494.833 C208.283,494.833 205.115,502.32 197.627,499.729 C197.627,499.729 208.571,494.833 207.707,491.377 L206.843,488.209 L202.523,490.513 L201.083,495.697 L199.355,488.497 L194.171,490.801 L195.611,482.737 z" fill="#373435"/>
      <path d="M119.58,508.656 C119.58,508.656 145.788,510.096 156.156,527.088 L171.132,540.047 L157.884,533.424 L141.18,525.072 C141.18,525.072 132.252,513.264 119.868,514.992 L119.292,508.944 z" fill="#373435"/>
      <path d="M231.611,426.866 L224.123,426.003 L216.059,422.835 L206.267,420.531 L206.267,414.771 L205.691,411.315 L210.587,409.011 C210.587,409.011 216.635,419.955 223.835,417.075 L228.155,411.315 C228.155,411.315 235.643,415.347 239.963,413.907 C239.963,413.907 258.107,411.315 261.275,398.931 L255.515,401.235 L256.955,394.611 L249.467,399.795 L239.675,399.219 L233.915,401.523 L237.083,390.867 L227.003,398.355 L209.723,380.788 L218.939,401.523 L218.075,410.739 C218.075,410.739 211.739,408.435 211.451,405.555 L214.907,399.795 L200.219,385.108 L197.915,392.307 L207.131,405.267 L201.371,411.603 L199.643,408.147 L197.339,413.043 L195.611,409.011 L191.291,428.594 L198.491,426.866 L200.219,436.082 L208.283,428.594 L208.859,435.794 L214.043,431.474 L211.451,438.674 L218.651,433.49 L224.987,437.522 C224.987,437.522 230.171,431.762 231.611,427.73 z" fill="#373435"/>
      <path d="M220.379,373.012 L225.563,377.044 L224.699,380.212 L232.763,378.484 L228.443,384.244 L237.371,381.652 L239.099,386.836 L245.435,383.38 L253.499,386.548 L259.259,388.276 L265.019,388.276 L278.267,383.956 L280.571,379.636 L274.235,379.636 L268.187,380.212 L266.459,373.012 L257.531,379.06 L251.771,373.012 L244.283,374.74 L241.691,371.284 L242.555,364.948 L235.355,368.404 L233.915,362.356 L228.731,368.98 L224.411,362.932 C224.411,362.932 217.211,363.508 220.955,373.588 z" fill="#373435"/>
      <path d="M93.66,243.991 L92.22,259.831 L104.316,282.294 L98.844,218.072 z" fill="#373435"/>
      <path d="M87.036,254.359 L89.052,271.063 L86.46,290.358 L71.196,292.374 L75.228,283.734 L75.228,275.095 L77.82,272.503 L79.26,267.895 L76.668,264.439 C76.668,264.439 82.716,255.223 87.324,254.359 z" fill="#373435"/>
      <path d="M73.788,258.391 L72.348,269.623 L59.677,288.918 L46.429,279.702 L50.461,273.079 L57.661,261.847 L66.301,256.375 z" fill="#373435"/>
      <path d="M59.101,251.191 L51.037,260.407 L39.805,271.063 L34.621,259.831 C34.621,259.831 48.445,248.023 59.101,251.191 z" fill="#373435"/>
      <path d="M49.021,239.96 C49.021,239.96 32.317,244.567 31.165,251.191 L21.949,222.104 L28.573,221.528 L37.789,225.56 L39.805,222.104 L42.397,223.544 L49.021,240.248 z" fill="#373435"/>
      <path d="M38.653,207.704 L35.197,207.704 L32.893,214.904 L24.829,205.112 L18.781,200.216 L14.749,197.625 L13.309,189.273 C13.309,189.273 15.901,175.161 25.693,176.313 L34.621,177.753 L38.653,207.704 z" fill="#373435"/>
      <path d="M33.469,165.081 L29.437,170.265 L25.405,160.186 L22.237,166.809 L18.781,159.322 L13.597,161.626 C13.597,161.626 11.293,143.194 18.781,143.194 L33.469,146.362 L33.469,165.369 z" fill="#373435"/>
      <path d="M34.909,137.722 L30.013,135.418 L24.253,138.586 L23.389,129.658 L17.629,133.114 C17.629,133.114 25.693,111.515 39.805,102.011 C39.805,102.011 56.221,99.419 53.629,107.771 C53.629,107.771 52.189,113.819 47.005,116.123 C47.005,116.123 38.653,121.883 35.197,137.434 z" fill="#373435"/>
    </g>
  </g>
</svg>
