<svg xmlns="http://www.w3.org/2000/svg" xmlns:xlink="http://www.w3.org/1999/xlink" preserveAspectRatio="xMidYMid" width="218" height="214" viewBox="0 0 218 214">
  <defs>
    <style>

      .cls-3 {
        fill: #ff3a2f;
      }

      .cls-5 {
        fill: #2476ff;
      }

      .cls-6 {
        fill: #ffffff;
      }

      .cls-7 {
        fill: #020403;
        opacity: 0.2;
      }

      .cls-8 {
        fill: #142a3b;
      }

      .cls-9 {
        fill: #020403;
        opacity: 0.3;
      }
    </style>
  </defs>
  <g id="group-160svg">
    <path d="M58.523,188.501 C58.523,188.501 38.406,188.501 38.406,188.501 C34.526,188.501 31.382,190.284 31.382,192.484 C31.382,194.686 34.526,196.469 38.406,196.469 C38.406,196.469 39.342,196.469 39.342,196.469 C43.221,196.469 46.365,198.253 46.365,200.453 C46.365,202.654 43.221,204.438 39.342,204.438 C39.342,204.438 7.011,204.438 7.011,204.438 C3.132,204.438 -0.013,206.221 -0.013,208.421 C-0.013,210.622 3.132,212.406 7.011,212.406 C7.011,212.406 48.067,212.406 48.067,212.406 C48.067,212.406 154.298,212.406 154.298,212.406 C158.177,212.406 161.321,210.622 161.321,208.421 C161.321,206.221 158.177,204.438 154.298,204.438 C154.298,204.438 142.295,204.438 142.295,204.438 C138.416,204.438 135.272,202.654 135.272,200.453 C135.272,198.253 138.416,196.469 142.295,196.469 C142.295,196.469 189.436,196.469 189.436,196.469 C193.315,196.469 196.459,194.686 196.459,192.484 C196.459,190.284 193.315,188.501 189.436,188.501 C189.436,188.501 185.918,188.501 185.918,188.501 C185.918,188.501 58.523,188.501 58.523,188.501 Z" id="path-1" class="cls-3" fill-rule="evenodd"/>
    <path d="M194.387,213.472 C191.135,213.472 188.499,211.561 188.499,209.202 C188.499,206.845 191.135,204.933 194.387,204.933 C194.387,204.933 212.431,204.933 212.431,204.933 C215.683,204.933 218.320,206.845 218.320,209.202 C218.320,211.561 215.683,213.472 212.431,213.472 C212.431,213.472 194.387,213.472 194.387,213.472 Z" id="path-2" class="cls-3" fill-rule="evenodd"/>
    <path d="M210.492,97.327 C210.492,151.081 166.504,194.659 112.242,194.659 C57.980,194.659 13.993,151.081 13.993,97.327 C13.993,43.572 57.980,-0.002 112.242,-0.002 C166.504,-0.002 210.492,43.572 210.492,97.327 Z" id="path-3" class="cls-5" fill-rule="evenodd"/>
    <path d="M36.622,91.131 C33.607,91.131 31.164,88.712 31.164,85.726 C31.164,45.845 63.914,13.400 104.169,13.400 C107.184,13.400 109.627,15.821 109.627,18.809 C109.627,21.795 107.184,24.216 104.169,24.216 C69.934,24.216 42.081,51.809 42.081,85.726 C42.081,88.712 39.638,91.131 36.622,91.131 Z" id="path-4" class="cls-6" fill-rule="evenodd"/>
    <path d="M148.280,6.783 C168.575,24.614 181.381,50.625 181.381,79.612 C181.381,133.367 137.393,176.944 83.131,176.944 C70.404,176.944 58.255,174.520 47.094,170.157 C64.435,185.391 87.240,194.659 112.242,194.659 C166.504,194.659 210.492,151.081 210.492,97.327 C210.492,56.181 184.706,21.025 148.280,6.783 Z" id="path-5" class="cls-7" fill-rule="evenodd"/>
    <path d="M137.714,75.698 C137.714,61.762 126.310,50.464 112.242,50.464 C98.174,50.464 86.770,61.762 86.770,75.698 C86.770,85.909 92.903,94.682 101.709,98.653 C101.709,98.653 94.048,144.190 94.048,144.190 C94.048,144.190 130.437,144.190 130.437,144.190 C130.437,144.190 122.775,98.653 122.775,98.653 C131.581,94.682 137.714,85.909 137.714,75.698 Z" id="path-6" class="cls-8" fill-rule="evenodd"/>
    <path d="M137.714,75.698 C137.714,61.761 126.310,50.465 112.242,50.465 C110.366,50.465 108.544,50.679 106.784,51.059 C118.226,53.537 126.797,63.620 126.797,75.698 C126.797,85.908 120.664,94.682 111.859,98.653 C111.859,98.653 119.520,144.190 119.520,144.190 C119.520,144.190 130.437,144.190 130.437,144.190 C130.437,144.190 122.775,98.653 122.775,98.653 C131.581,94.682 137.714,85.908 137.714,75.698 Z" id="path-7" class="cls-9" fill-rule="evenodd"/>
  </g>
</svg>
