<svg xmlns="http://www.w3.org/2000/svg" xmlns:xlink="http://www.w3.org/1999/xlink" preserveAspectRatio="xMidYMid" width="219" height="220" viewBox="0 0 219 220">
  <defs>
    <style>

      .cls-3 {
        fill: #142a3b;
      }

      .cls-4 {
        fill: #ff3a2f;
      }

      .cls-5 {
        fill: #020403;
        opacity: 0.25;
      }

      .cls-6 {
        fill: #0cb04a;
      }

      .cls-7 {
        fill: #020403;
        opacity: 0.35;
      }

      .cls-10 {
        fill: #fbb713;
      }
    </style>
  </defs>
  <g id="group-81svg">
    <path d="M7.402,219.395 C7.402,219.395 -0.006,212.056 -0.006,212.056 C-0.006,212.056 128.716,84.537 128.716,84.537 C128.716,84.537 136.124,91.877 136.124,91.877 C136.124,91.877 7.402,219.395 7.402,219.395 Z" id="path-1" class="cls-3" fill-rule="evenodd"/>
    <path d="M100.934,126.738 C100.934,126.738 93.526,119.400 93.526,119.400 C93.526,119.400 128.716,84.537 128.716,84.537 C128.716,84.537 136.124,91.877 136.124,91.877 C136.124,91.877 100.934,126.738 100.934,126.738 Z" id="path-2" class="cls-4" fill-rule="evenodd"/>
    <path d="M123.845,104.043 C123.845,104.043 122.049,91.142 122.049,91.142 C122.049,91.142 128.716,84.537 128.716,84.537 C128.716,84.537 136.124,91.877 136.124,91.877 C136.124,91.877 123.845,104.043 123.845,104.043 Z" id="path-3" class="cls-5" fill-rule="evenodd"/>
    <path d="M176.870,132.243 C176.870,132.243 87.969,44.172 87.969,44.172 C87.969,44.172 104.639,27.659 104.639,27.659 C104.639,27.659 193.539,115.729 193.539,115.729 C193.539,115.729 176.870,132.243 176.870,132.243 Z" id="path-4" class="cls-6" fill-rule="evenodd"/>
    <path d="M185.205,123.985 C185.205,123.985 99.110,33.135 99.110,33.135 C99.110,33.135 104.639,27.659 104.639,27.659 C104.639,27.659 193.539,115.729 193.539,115.729 C193.539,115.729 185.205,123.985 185.205,123.985 Z" id="path-5" class="cls-7" fill-rule="evenodd"/>
    <path d="M211.815,135.238 C211.815,135.238 84.945,9.555 84.945,9.555 C84.945,9.555 91.456,3.104 91.456,3.104 C91.456,3.104 218.326,128.788 218.326,128.788 C218.326,128.788 211.815,135.238 211.815,135.238 Z" id="path-6" class="cls-4" fill-rule="evenodd"/>
    <path d="M203.546,53.778 C203.546,53.778 211.841,61.995 211.841,61.995 C213.440,63.580 213.402,66.186 211.756,67.817 C210.110,69.447 207.479,69.485 205.879,67.900 C205.879,67.900 205.494,67.518 205.494,67.518 C203.895,65.934 201.263,65.971 199.617,67.602 C197.971,69.233 197.933,71.839 199.533,73.423 C199.533,73.423 217.364,91.088 217.364,91.088 C218.963,92.673 218.926,95.279 217.279,96.910 C215.634,98.540 213.003,98.578 211.404,96.994 C211.404,96.994 189.974,75.765 189.974,75.765 C189.974,75.765 166.422,52.432 166.422,52.432 C164.823,50.848 164.861,48.242 166.507,46.611 C168.153,44.981 170.784,44.943 172.383,46.527 C172.383,46.527 177.332,51.430 177.332,51.430 C178.931,53.014 181.562,52.976 183.208,51.345 C184.854,49.715 184.892,47.110 183.293,45.525 C183.293,45.525 159.740,22.192 159.740,22.192 C158.141,20.608 158.179,18.002 159.825,16.371 C161.471,14.740 164.102,14.703 165.701,16.288 C165.701,16.288 171.268,21.801 171.268,21.801 C171.268,21.801 203.546,53.778 203.546,53.778 Z" id="path-7" class="cls-6" fill-rule="evenodd"/>
    <path d="M145.088,11.375 C145.088,11.375 147.560,13.825 147.560,13.825 C148.037,14.298 147.673,15.423 146.748,16.341 C145.822,17.258 144.686,17.618 144.209,17.146 C144.209,17.146 144.094,17.031 144.094,17.031 C143.617,16.559 142.480,16.920 141.554,17.837 C140.629,18.754 140.266,19.879 140.742,20.351 C140.742,20.351 146.058,25.618 146.058,25.618 C146.534,26.091 146.171,27.216 145.246,28.133 C144.320,29.050 143.183,29.411 142.706,28.938 C142.706,28.938 136.318,22.609 136.318,22.609 C136.318,22.609 129.297,15.653 129.297,15.653 C128.820,15.182 129.184,14.055 130.109,13.139 C131.035,12.222 132.172,11.861 132.649,12.333 C132.649,12.333 134.124,13.795 134.124,13.795 C134.600,14.267 135.737,13.906 136.663,12.990 C137.588,12.073 137.952,10.946 137.475,10.475 C137.475,10.475 130.454,3.519 130.454,3.519 C129.977,3.047 130.341,1.921 131.267,1.003 C132.192,0.087 133.329,-0.274 133.806,0.198 C133.806,0.198 135.465,1.842 135.465,1.842 C135.465,1.842 145.088,11.375 145.088,11.375 Z" id="path-8" class="cls-10" fill-rule="evenodd"/>
    <path d="M164.500,197.029 C164.500,197.029 175.195,197.029 175.195,197.029 C177.257,197.029 178.929,198.435 178.929,200.168 C178.929,201.903 177.257,203.308 175.195,203.308 C175.195,203.308 174.697,203.308 174.697,203.308 C172.635,203.308 170.963,204.714 170.963,206.447 C170.963,208.181 172.635,209.587 174.697,209.587 C174.697,209.587 197.688,209.587 197.688,209.587 C199.750,209.587 201.422,210.992 201.422,212.725 C201.422,214.459 199.750,215.865 197.688,215.865 C197.688,215.865 170.058,215.865 170.058,215.865 C170.058,215.865 120.371,215.865 120.371,215.865 C118.309,215.865 116.637,214.459 116.637,212.725 C116.637,210.992 118.309,209.587 120.371,209.587 C120.371,209.587 126.752,209.587 126.752,209.587 C128.814,209.587 130.486,208.181 130.486,206.447 C130.486,204.714 128.814,203.308 126.752,203.308 C126.752,203.308 96.384,203.308 96.384,203.308 C94.322,203.308 92.651,201.903 92.651,200.168 C92.651,198.435 94.322,197.029 96.384,197.029 C96.384,197.029 122.881,197.029 122.881,197.029 C122.881,197.029 164.500,197.029 164.500,197.029 Z" id="path-9" class="cls-6" fill-rule="evenodd"/>
    <path d="M191.264,178.065 C191.264,178.065 194.824,178.065 194.824,178.065 C195.511,178.065 196.068,178.538 196.068,179.123 C196.068,179.706 195.511,180.179 194.824,180.179 C194.824,180.179 194.658,180.179 194.658,180.179 C193.973,180.179 193.415,180.653 193.415,181.236 C193.415,181.820 193.973,182.293 194.658,182.293 C194.658,182.293 202.313,182.293 202.313,182.293 C202.999,182.293 203.556,182.766 203.556,183.350 C203.556,183.934 202.999,184.407 202.313,184.407 C202.313,184.407 193.115,184.407 193.115,184.407 C193.115,184.407 176.574,184.407 176.574,184.407 C175.887,184.407 175.330,183.934 175.330,183.350 C175.330,182.766 175.887,182.293 176.574,182.293 C176.574,182.293 178.697,182.293 178.697,182.293 C179.384,182.293 179.941,181.820 179.941,181.236 C179.941,180.653 179.384,180.179 178.697,180.179 C178.697,180.179 168.588,180.179 168.588,180.179 C167.902,180.179 167.345,179.706 167.345,179.123 C167.345,178.538 167.902,178.065 168.588,178.065 C168.588,178.065 177.409,178.065 177.409,178.065 C177.409,178.065 191.264,178.065 191.264,178.065 Z" id="path-10" class="cls-10" fill-rule="evenodd"/>
    <path d="M104.811,215.947 C106.656,215.947 108.152,215.009 108.152,213.850 C108.152,212.692 106.656,211.753 104.811,211.753 C104.811,211.753 94.571,211.753 94.571,211.753 C92.725,211.753 91.228,212.692 91.228,213.850 C91.228,215.009 92.725,215.947 94.571,215.947 C94.571,215.947 104.811,215.947 104.811,215.947 Z" id="path-11" class="cls-10" fill-rule="evenodd"/>
    <path d="M68.422,215.947 C70.267,215.947 71.763,215.009 71.763,213.850 C71.763,212.692 70.267,211.753 68.422,211.753 C68.422,211.753 58.181,211.753 58.181,211.753 C56.336,211.753 54.839,212.692 54.839,213.850 C54.839,215.009 56.336,215.947 58.181,215.947 C58.181,215.947 68.422,215.947 68.422,215.947 Z" id="path-12" class="cls-6" fill-rule="evenodd"/>
  </g>
</svg>
