<svg xmlns="http://www.w3.org/2000/svg" xmlns:xlink="http://www.w3.org/1999/xlink" preserveAspectRatio="xMidYMid" width="222" height="219" viewBox="0 0 222 219">
  <defs>
    <style>

      .cls-3 {
        fill: #0cb04a;
      }

      .cls-7 {
        fill: #2476ff;
      }

      .cls-9 {
        fill: #020403;
        opacity: 0.25;
      }

      .cls-11 {
        fill: #ff3a2f;
      }
    </style>
  </defs>
  <g id="group-53svg">
    <path d="M59.335,205.220 C59.335,205.220 69.579,205.220 69.579,205.220 C71.555,205.220 73.156,206.100 73.156,207.188 C73.156,208.274 71.555,209.155 69.579,209.155 C69.579,209.155 69.102,209.155 69.102,209.155 C67.127,209.155 65.526,210.036 65.526,211.123 C65.526,212.210 67.127,213.092 69.102,213.092 C69.102,213.092 84.022,213.092 84.022,213.092 C85.997,213.092 87.599,213.973 87.599,215.059 C87.599,216.147 85.997,217.028 84.022,217.028 C84.022,217.028 64.659,217.028 64.659,217.028 C64.659,217.028 35.572,217.028 35.572,217.028 C33.597,217.028 31.996,216.147 31.996,215.059 C31.996,213.973 33.597,213.092 35.572,213.092 C35.572,213.092 41.684,213.092 41.684,213.092 C43.659,213.092 45.260,212.210 45.260,211.123 C45.260,210.036 43.659,209.155 41.684,209.155 C41.684,209.155 12.597,209.155 12.597,209.155 C10.621,209.155 9.021,208.274 9.021,207.188 C9.021,206.100 10.621,205.220 12.597,205.220 C12.597,205.220 19.471,205.220 19.471,205.220 C19.471,205.220 59.335,205.220 59.335,205.220 Z" id="path-1" class="cls-3" fill-rule="evenodd"/>
    <path d="M94.608,172.985 C94.608,172.985 100.726,172.985 100.726,172.985 C101.906,172.985 102.862,173.595 102.862,174.348 C102.862,175.102 101.906,175.712 100.726,175.712 C100.726,175.712 100.441,175.712 100.441,175.712 C99.262,175.712 98.306,176.322 98.306,177.076 C98.306,177.828 99.262,178.439 100.441,178.439 C100.441,178.439 109.353,178.439 109.353,178.439 C110.532,178.439 111.489,179.050 111.489,179.803 C111.489,180.555 110.532,181.166 109.353,181.166 C109.353,181.166 97.788,181.166 97.788,181.166 C97.788,181.166 80.416,181.166 80.416,181.166 C79.237,181.166 78.281,180.555 78.281,179.803 C78.281,179.050 79.237,178.439 80.416,178.439 C80.416,178.439 84.066,178.439 84.066,178.439 C85.247,178.439 86.203,177.828 86.203,177.076 C86.203,176.322 85.247,175.712 84.066,175.712 C84.066,175.712 66.695,175.712 66.695,175.712 C65.515,175.712 64.559,175.102 64.559,174.348 C64.559,173.595 65.515,172.985 66.695,172.985 C66.695,172.985 70.800,172.985 70.800,172.985 C70.800,172.985 94.608,172.985 94.608,172.985 Z" id="path-2" class="cls-3" fill-rule="evenodd"/>
    <path d="M174.959,199.957 C174.959,199.957 189.458,199.957 189.458,199.957 C192.252,199.957 194.519,201.138 194.519,202.592 C194.519,204.048 192.252,205.228 189.458,205.228 C189.458,205.228 188.782,205.228 188.782,205.228 C185.987,205.228 183.721,206.408 183.721,207.864 C183.721,209.319 185.987,210.499 188.782,210.499 C188.782,210.499 209.898,210.499 209.898,210.499 C212.693,210.499 214.960,211.679 214.960,213.135 C214.960,214.591 212.693,215.771 209.898,215.771 C209.898,215.771 182.495,215.771 182.495,215.771 C182.495,215.771 141.328,215.771 141.328,215.771 C138.533,215.771 136.267,214.591 136.267,213.135 C136.267,211.679 138.533,210.499 141.328,210.499 C141.328,210.499 149.978,210.499 149.978,210.499 C152.774,210.499 155.039,209.319 155.039,207.864 C155.039,206.408 152.774,205.228 149.978,205.228 C149.978,205.228 108.813,205.228 108.813,205.228 C106.017,205.228 103.751,204.048 103.751,202.592 C103.751,201.138 106.017,199.957 108.813,199.957 C108.813,199.957 118.541,199.957 118.541,199.957 C118.541,199.957 174.959,199.957 174.959,199.957 Z" id="path-3" class="cls-3" fill-rule="evenodd"/>
    <path d="M15.705,218.435 C17.349,218.435 18.682,217.702 18.682,216.796 C18.682,215.892 17.349,215.158 15.705,215.158 C15.705,215.158 6.581,215.158 6.581,215.158 C4.936,215.158 3.604,215.892 3.604,216.796 C3.604,217.702 4.936,218.435 6.581,218.435 C6.581,218.435 15.705,218.435 15.705,218.435 Z" id="path-4" class="cls-3" fill-rule="evenodd"/>
    <path d="M155.333,82.566 C174.402,63.675 174.402,33.046 155.333,14.156 C136.264,-4.736 105.347,-4.736 86.278,14.156 C67.209,33.046 67.209,63.675 86.278,82.566 C86.278,82.566 94.849,74.075 94.849,74.075 C80.513,59.872 80.513,36.848 94.849,22.646 C109.184,8.445 132.426,8.445 146.762,22.646 C161.097,36.848 161.097,59.872 146.762,74.075 C146.762,74.075 155.333,82.566 155.333,82.566 Z" id="path-5" class="cls-7" fill-rule="evenodd"/>
    <path d="M61.541,104.007 C61.541,104.007 88.993,131.202 88.993,131.202 C88.993,131.202 51.928,133.824 51.928,133.824 C51.928,133.824 51.928,148.986 51.928,148.986 C51.928,148.986 111.177,153.178 111.177,153.178 C111.177,153.178 150.658,192.292 150.658,192.292 C150.658,192.292 221.753,121.860 221.753,121.860 C221.753,121.860 132.636,33.577 132.636,33.577 C132.636,33.577 61.541,104.007 61.541,104.007 Z" id="path-6" class="cls-7" fill-rule="evenodd"/>
    <path d="M100.885,142.982 C100.885,142.982 51.928,139.518 51.928,139.518 C51.928,139.518 51.928,148.986 51.928,148.986 C51.928,148.986 111.177,153.178 111.177,153.178 C111.177,153.178 100.885,142.982 100.885,142.982 Z" id="path-7" class="cls-9" fill-rule="evenodd"/>
    <path d="M119.771,46.322 C119.771,46.322 180.553,106.536 180.553,106.536 C189.097,114.999 189.097,128.722 180.553,137.185 C180.553,137.185 137.793,179.546 137.793,179.546 C137.793,179.546 150.658,192.292 150.658,192.292 C150.658,192.292 221.753,121.860 221.753,121.860 C221.753,121.860 132.636,33.577 132.636,33.577 C132.636,33.577 119.771,46.322 119.771,46.322 Z" id="path-8" class="cls-9" fill-rule="evenodd"/>
    <path d="M54.980,140.262 C50.543,126.731 35.874,119.324 22.214,123.721 C22.214,123.721 38.281,172.722 38.281,172.722 C51.940,168.326 59.416,153.794 54.980,140.262 Z" id="path-9" class="cls-11" fill-rule="evenodd"/>
    <path d="M54.979,140.261 C54.365,138.388 53.537,136.646 52.561,135.022 C52.060,145.411 45.220,154.898 34.642,158.301 C34.642,158.301 23.216,123.452 23.216,123.452 C22.882,123.545 22.547,123.612 22.214,123.720 C22.214,123.720 38.281,172.720 38.281,172.720 C51.940,168.326 59.416,153.794 54.979,140.261 Z" id="path-10" class="cls-9" fill-rule="evenodd"/>
    <path d="M30.067,181.458 C31.394,178.872 38.525,175.107 38.525,175.107 C38.525,175.107 39.659,183.033 38.333,185.618 C37.007,188.204 34.082,189.368 31.799,188.219 C29.517,187.070 28.742,184.044 30.067,181.458 Z" id="path-11" class="cls-3" fill-rule="evenodd"/>
    <path d="M15.358,174.053 C16.684,171.469 23.815,167.702 23.815,167.702 C23.815,167.702 24.950,175.629 23.624,178.214 C22.297,180.800 19.373,181.964 17.090,180.815 C14.807,179.667 14.032,176.639 15.358,174.053 Z" id="path-12" class="cls-3" fill-rule="evenodd"/>
    <path d="M0.649,166.650 C1.975,164.065 9.106,160.299 9.106,160.299 C9.106,160.299 10.240,168.225 8.915,170.811 C7.588,173.395 4.664,174.561 2.381,173.411 C0.099,172.263 -0.677,169.235 0.649,166.650 Z" id="path-13" class="cls-3" fill-rule="evenodd"/>
    <path d="M13.002,145.356 C14.035,143.399 19.946,140.825 19.946,140.825 C19.946,140.825 21.189,147.102 20.157,149.060 C19.125,151.017 16.686,151.774 14.710,150.752 C12.735,149.730 11.970,147.313 13.002,145.356 Z" id="path-14" class="cls-3" fill-rule="evenodd"/>
    <path d="M5.521,192.442 C5.521,190.234 9.558,185.241 9.558,185.241 C9.558,185.241 13.595,190.234 13.595,192.442 C13.595,194.651 11.787,196.441 9.558,196.441 C7.329,196.441 5.521,194.651 5.521,192.442 Z" id="path-15" class="cls-3" fill-rule="evenodd"/>
  </g>
</svg>
