<svg xmlns="http://www.w3.org/2000/svg" xmlns:xlink="http://www.w3.org/1999/xlink" preserveAspectRatio="xMidYMid" width="219" height="199" viewBox="0 0 219 199">
  <defs>
    <style>

      .cls-3 {
        fill: #2476ff;
      }

      .cls-6 {
        fill: #fbb713;
      }

      .cls-7 {
        fill: #010101;
        opacity: 0.25;
      }

      .cls-8 {
        fill: #ff3a2f;
      }

      .cls-10 {
        fill: #33485d;
      }

      .cls-19 {
        fill: #020200;
        opacity: 0.4;
      }

      .cls-23 {
        fill: #ffffff;
      }
    </style>
  </defs>
  <g id="group-71svg">
    <path d="M135.733,198.613 C137.439,198.613 138.822,197.745 138.822,196.674 C138.822,195.602 137.439,194.733 135.733,194.733 C135.733,194.733 126.265,194.733 126.265,194.733 C124.559,194.733 123.174,195.602 123.174,196.674 C123.174,197.745 124.559,198.613 126.265,198.613 C126.265,198.613 135.733,198.613 135.733,198.613 Z" id="path-1" class="cls-3" fill-rule="evenodd"/>
    <path d="M63.478,181.197 C63.478,181.197 74.765,181.197 74.765,181.197 C76.941,181.197 78.705,182.497 78.705,184.100 C78.705,185.703 76.941,187.002 74.765,187.002 C74.765,187.002 74.240,187.002 74.240,187.002 C72.064,187.002 70.299,188.302 70.299,189.905 C70.299,191.508 72.064,192.808 74.240,192.808 C74.240,192.808 98.502,192.808 98.502,192.808 C100.677,192.808 102.441,194.106 102.441,195.710 C102.441,197.312 100.677,198.613 98.502,198.613 C98.502,198.613 69.345,198.613 69.345,198.613 C69.345,198.613 16.911,198.613 16.911,198.613 C14.735,198.613 12.970,197.312 12.970,195.710 C12.970,194.106 14.735,192.808 16.911,192.808 C16.911,192.808 23.645,192.808 23.645,192.808 C25.820,192.808 27.584,191.508 27.584,189.905 C27.584,188.302 25.820,187.002 23.645,187.002 C23.645,187.002 5.812,187.002 5.812,187.002 C3.636,187.002 1.872,185.703 1.872,184.100 C1.872,182.497 3.636,181.197 5.812,181.197 C5.812,181.197 19.559,181.197 19.559,181.197 C19.559,181.197 63.478,181.197 63.478,181.197 Z" id="path-2" class="cls-3" fill-rule="evenodd"/>
    <path d="M38.142,125.063 C38.142,125.063 43.818,125.063 43.818,125.063 C44.912,125.063 45.800,125.809 45.800,126.729 C45.800,127.649 44.912,128.395 43.818,128.395 C43.818,128.395 43.554,128.395 43.554,128.395 C42.460,128.395 41.572,129.141 41.572,130.061 C41.572,130.981 42.460,131.727 43.554,131.727 C43.554,131.727 55.754,131.727 55.754,131.727 C56.849,131.727 57.735,132.472 57.735,133.392 C57.735,134.313 56.849,135.058 55.754,135.058 C55.754,135.058 41.093,135.058 41.093,135.058 C41.093,135.058 14.724,135.058 14.724,135.058 C13.629,135.058 12.743,134.313 12.743,133.392 C12.743,132.472 13.629,131.727 14.724,131.727 C14.724,131.727 18.111,131.727 18.111,131.727 C19.205,131.727 20.092,130.981 20.092,130.061 C20.092,129.141 19.205,128.395 18.111,128.395 C18.111,128.395 1.996,128.395 1.996,128.395 C0.901,128.395 0.014,127.649 0.014,126.729 C0.014,125.809 0.901,125.063 1.996,125.063 C1.996,125.063 16.056,125.063 16.056,125.063 C16.056,125.063 38.142,125.063 38.142,125.063 Z" id="path-3" class="cls-3" fill-rule="evenodd"/>
    <path d="M122.115,78.293 C78.581,78.293 43.288,113.255 43.288,156.385 C43.288,156.385 200.945,156.385 200.945,156.385 C200.945,113.255 165.652,78.293 122.115,78.293 Z" id="path-4" class="cls-6" fill-rule="evenodd"/>
    <path d="M126.352,78.408 C142.703,87.896 155.301,103.045 161.388,121.142 C165.484,133.321 155.880,145.824 142.922,145.824 C142.922,145.824 44.025,145.824 44.025,145.824 C43.554,149.279 43.288,152.800 43.288,156.385 C43.288,156.385 200.945,156.385 200.945,156.385 C200.945,114.664 167.918,80.589 126.352,78.408 Z" id="path-5" class="cls-7" fill-rule="evenodd"/>
    <path d="M218.347,186.384 C218.347,186.384 25.886,186.384 25.886,186.384 C25.886,186.384 25.886,156.385 25.886,156.385 C25.886,156.385 218.347,156.385 218.347,156.385 C218.347,156.385 218.347,186.384 218.347,186.384 Z" id="path-6" class="cls-8" fill-rule="evenodd"/>
    <path d="M200.579,156.385 C200.579,156.385 200.579,164.068 200.579,164.068 C200.579,172.505 193.674,179.343 185.159,179.343 C185.159,179.343 25.886,179.343 25.886,179.343 C25.886,179.343 25.886,186.383 25.886,186.383 C25.886,186.383 218.347,186.383 218.347,186.383 C218.347,186.383 218.347,156.385 218.347,156.385 C218.347,156.385 200.579,156.385 200.579,156.385 Z" id="path-7" class="cls-7" fill-rule="evenodd"/>
    <path d="M201.652,30.900 C201.652,30.900 163.776,106.251 163.776,106.251 C163.776,106.251 188.113,25.601 188.113,25.601 C188.113,25.601 201.652,30.900 201.652,30.900 Z" id="path-8" class="cls-10" fill-rule="evenodd"/>
    <path d="M143.434,16.522 C143.434,16.522 130.513,99.719 130.513,99.719 C130.513,99.719 128.911,15.558 128.911,15.558 C128.911,15.558 143.434,16.522 143.434,16.522 Z" id="path-9" class="cls-10" fill-rule="evenodd"/>
    <path d="M55.371,27.603 C55.371,27.603 79.709,108.252 79.709,108.252 C79.709,108.252 41.834,32.900 41.834,32.900 C41.834,32.900 55.371,27.603 55.371,27.603 Z" id="path-10" class="cls-10" fill-rule="evenodd"/>
    <path d="M217.340,20.244 C217.340,30.319 209.095,38.488 198.924,38.488 C188.754,38.488 180.508,30.319 180.508,20.244 C180.508,10.169 188.754,2.001 198.924,2.001 C209.095,2.001 217.340,10.169 217.340,20.244 Z" id="path-11" class="cls-8" fill-rule="evenodd"/>
    <path d="M154.701,18.243 C154.701,28.317 146.456,36.485 136.287,36.485 C126.115,36.485 117.870,28.317 117.870,18.243 C117.870,8.167 126.115,-0.001 136.287,-0.001 C146.456,-0.001 154.701,8.167 154.701,18.243 Z" id="path-12" class="cls-8" fill-rule="evenodd"/>
    <path d="M198.924,2.000 C197.707,2.000 196.521,2.132 195.371,2.355 C203.839,3.997 210.232,11.374 210.232,20.244 C210.232,29.114 203.839,36.491 195.371,38.132 C196.521,38.356 197.707,38.488 198.924,38.488 C209.095,38.488 217.340,30.320 217.340,20.244 C217.340,10.168 209.095,2.000 198.924,2.000 Z" id="path-13" class="cls-7" fill-rule="evenodd"/>
    <path d="M136.286,-0.001 C135.069,-0.001 133.884,0.131 132.732,0.354 C141.200,1.995 147.594,9.372 147.594,18.242 C147.594,27.112 141.200,34.488 132.732,36.131 C133.884,36.354 135.069,36.485 136.286,36.485 C146.456,36.485 154.701,28.317 154.701,18.242 C154.701,8.166 146.456,-0.001 136.286,-0.001 Z" id="path-14" class="cls-7" fill-rule="evenodd"/>
    <path d="M63.287,24.248 C63.287,34.323 55.042,42.491 44.872,42.491 C34.702,42.491 26.456,34.323 26.456,24.248 C26.456,14.172 34.702,6.004 44.872,6.004 C55.042,6.004 63.287,14.172 63.287,24.248 Z" id="path-15" class="cls-8" fill-rule="evenodd"/>
    <path d="M44.872,6.004 C43.655,6.004 42.470,6.136 41.318,6.359 C49.786,8.001 56.181,15.378 56.181,24.248 C56.181,33.117 49.786,40.494 41.318,42.135 C42.470,42.359 43.655,42.491 44.872,42.491 C55.042,42.491 63.288,34.323 63.288,24.248 C63.288,14.172 55.042,6.004 44.872,6.004 Z" id="path-16" class="cls-7" fill-rule="evenodd"/>
    <path d="M123.892,94.655 C123.892,97.764 121.348,100.283 118.212,100.283 C115.074,100.283 112.530,97.764 112.530,94.655 C112.530,91.546 115.074,89.028 118.212,89.028 C121.348,89.028 123.892,91.546 123.892,94.655 Z" id="path-17" class="cls-19" fill-rule="evenodd"/>
    <path d="M120.338,136.898 C120.338,140.006 117.796,142.526 114.657,142.526 C111.521,142.526 108.978,140.006 108.978,136.898 C108.978,133.791 111.521,131.272 114.657,131.272 C117.796,131.272 120.338,133.791 120.338,136.898 Z" id="path-18" class="cls-19" fill-rule="evenodd"/>
    <path d="M84.827,111.345 C82.608,113.544 79.011,113.544 76.794,111.345 C74.575,109.148 74.575,105.586 76.794,103.388 C79.011,101.190 82.608,101.190 84.827,103.388 C87.045,105.586 87.045,109.148 84.827,111.345 Z" id="path-19" class="cls-19" fill-rule="evenodd"/>
    <path d="M70.790,142.247 C68.573,144.445 64.976,144.445 62.758,142.247 C60.539,140.050 60.539,136.487 62.758,134.289 C64.976,132.092 68.573,132.092 70.790,134.289 C73.009,136.487 73.009,140.050 70.790,142.247 Z" id="path-20" class="cls-19" fill-rule="evenodd"/>
    <path d="M39.655,28.227 C37.437,30.423 33.839,30.423 31.621,28.227 C29.403,26.029 29.403,22.466 31.621,20.268 C33.839,18.071 37.437,18.071 39.655,20.268 C41.873,22.466 41.873,26.029 39.655,28.227 Z" id="path-21" class="cls-23" fill-rule="evenodd"/>
    <path d="M134.529,15.611 C132.311,17.808 128.715,17.808 126.496,15.611 C124.278,13.413 124.278,9.850 126.496,7.652 C128.715,5.455 132.311,5.455 134.529,7.652 C136.748,9.850 136.748,13.413 134.529,15.611 Z" id="path-22" class="cls-23" fill-rule="evenodd"/>
    <path d="M197.259,15.611 C195.041,17.808 191.445,17.808 189.227,15.611 C187.009,13.413 187.009,9.850 189.227,7.652 C191.445,5.455 195.041,5.455 197.259,7.652 C199.478,9.850 199.478,13.413 197.259,15.611 Z" id="path-23" class="cls-23" fill-rule="evenodd"/>
    <path d="M170.088,136.898 C170.088,140.006 167.545,142.526 164.407,142.526 C161.269,142.526 158.727,140.006 158.727,136.898 C158.727,133.791 161.269,131.272 164.407,131.272 C167.545,131.272 170.088,133.791 170.088,136.898 Z" id="path-24" class="cls-19" fill-rule="evenodd"/>
    <path d="M152.319,112.257 C152.319,115.365 149.776,117.884 146.639,117.884 C143.502,117.884 140.958,115.365 140.958,112.257 C140.958,109.149 143.502,106.629 146.639,106.629 C149.776,106.629 152.319,109.149 152.319,112.257 Z" id="path-25" class="cls-19" fill-rule="evenodd"/>
  </g>
</svg>
