<svg xmlns="http://www.w3.org/2000/svg" xmlns:xlink="http://www.w3.org/1999/xlink" preserveAspectRatio="xMidYMid" width="219" height="204" viewBox="0 0 219 204">
  <defs>
    <style>

      .cls-3 {
        fill: #2476ff;
      }

      .cls-5 {
        fill: #fbb713;
      }

      .cls-6 {
        fill: #000000;
        opacity: 0.25;
      }

      .cls-11 {
        fill: #142a3b;
      }

      .cls-12 {
        fill: #ededed;
      }
    </style>
  </defs>
  <g id="group-27svg">
    <path d="M167.410,183.222 C167.410,183.222 182.160,183.222 182.160,183.222 C185.003,183.222 187.308,184.669 187.308,186.454 C187.308,188.239 185.003,189.686 182.160,189.686 C182.160,189.686 181.473,189.686 181.473,189.686 C178.629,189.686 176.324,191.133 176.324,192.918 C176.324,194.703 178.629,196.149 181.473,196.149 C181.473,196.149 213.180,196.149 213.180,196.149 C216.024,196.149 218.329,197.597 218.329,199.382 C218.329,201.167 216.024,202.613 213.180,202.613 C213.180,202.613 175.076,202.613 175.076,202.613 C175.076,202.613 133.196,202.613 133.196,202.613 C130.353,202.613 128.047,201.167 128.047,199.382 C128.047,197.597 130.353,196.149 133.196,196.149 C133.196,196.149 141.997,196.149 141.997,196.149 C144.840,196.149 147.145,194.703 147.145,192.918 C147.145,191.133 144.840,189.686 141.997,189.686 C141.997,189.686 100.116,189.686 100.116,189.686 C97.273,189.686 94.967,188.239 94.967,186.454 C94.967,184.669 97.273,183.222 100.116,183.222 C100.116,183.222 110.014,183.222 110.014,183.222 C110.014,183.222 167.410,183.222 167.410,183.222 Z" id="path-1" class="cls-3" fill-rule="evenodd"/>
    <path d="M31.390,176.313 C35.655,176.313 39.113,174.143 39.113,171.465 C39.113,168.788 35.655,166.618 31.390,166.618 C31.390,166.618 7.720,166.618 7.720,166.618 C3.455,166.618 -0.003,168.788 -0.003,171.465 C-0.003,174.143 3.455,176.313 7.720,176.313 C7.720,176.313 31.390,176.313 31.390,176.313 Z" id="path-2" class="cls-3" fill-rule="evenodd"/>
    <path d="M84.254,182.653 C84.254,182.653 96.007,182.653 96.007,182.653 C96.007,182.653 100.875,157.634 100.875,157.634 C100.875,157.634 100.875,184.165 100.875,184.165 C100.875,184.165 121.584,184.165 121.584,184.165 C121.584,184.165 121.584,156.567 121.584,156.567 C121.584,156.567 135.871,182.653 147.191,182.653 C147.191,182.653 158.512,182.653 158.512,182.653 C151.571,163.457 152.463,159.271 158.512,142.701 C158.512,142.701 158.512,104.207 158.512,104.207 C158.512,91.685 148.265,81.533 135.625,81.533 C135.625,81.533 66.125,81.533 66.125,81.533 C53.485,81.533 43.238,91.685 43.238,104.207 C43.238,104.207 43.238,182.240 43.238,182.240 C43.238,182.240 60.565,182.240 60.565,182.240 C60.565,182.240 60.565,154.428 60.565,154.428 C60.565,154.428 64.583,181.470 64.583,181.470 C64.583,181.470 73.004,181.470 73.004,181.470 C73.004,181.470 76.614,161.210 76.614,161.210 C76.614,161.210 84.254,182.653 84.254,182.653 Z" id="path-3" class="cls-5" fill-rule="evenodd"/>
    <path d="M87.775,182.654 C87.775,182.654 87.775,166.286 87.775,166.286 C87.775,166.286 84.590,182.654 84.590,182.654 C84.590,182.654 87.775,182.654 87.775,182.654 Z" id="path-4" class="cls-6" fill-rule="evenodd"/>
    <path d="M63.513,169.861 C63.513,169.861 63.155,171.868 63.155,171.868 C63.155,171.868 64.583,181.470 64.583,181.470 C64.583,181.470 67.650,181.470 67.650,181.470 C67.650,181.470 63.513,169.861 63.513,169.861 Z" id="path-5" class="cls-6" fill-rule="evenodd"/>
    <path d="M47.464,163.080 C47.464,163.080 47.464,182.240 47.464,182.240 C47.464,182.240 50.312,182.240 50.312,182.240 C50.312,182.240 47.464,163.080 47.464,163.080 Z" id="path-6" class="cls-6" fill-rule="evenodd"/>
    <path d="M108.484,165.219 C108.484,165.219 108.484,184.165 108.484,184.165 C108.484,184.165 121.584,184.165 121.584,184.165 C121.584,184.165 121.584,183.642 121.584,183.642 C114.376,175.946 108.484,165.219 108.484,165.219 Z" id="path-7" class="cls-6" fill-rule="evenodd"/>
    <path d="M158.512,104.206 C158.512,91.685 148.265,81.533 135.625,81.533 C135.625,81.533 66.125,81.533 66.125,81.533 C58.538,81.533 51.865,85.233 47.701,90.864 C49.417,90.457 51.184,90.185 53.026,90.185 C53.026,90.185 122.525,90.185 122.525,90.185 C135.166,90.185 145.413,100.336 145.413,112.858 C145.413,112.858 145.413,151.353 145.413,151.353 C140.613,164.497 139.078,169.872 142.107,181.106 C143.830,182.052 145.542,182.654 147.191,182.654 C147.191,182.654 158.512,182.654 158.512,182.654 C151.571,163.457 152.463,159.271 158.512,142.701 C158.512,142.701 158.512,104.206 158.512,104.206 Z" id="path-8" class="cls-6" fill-rule="evenodd"/>
    <path d="M113.170,83.111 C113.170,83.111 120.201,13.471 120.201,13.471 C120.928,6.265 115.216,0.012 107.905,0.012 C107.905,0.012 93.845,0.012 93.845,0.012 C86.535,0.012 80.823,6.265 81.550,13.471 C81.550,13.471 88.580,83.111 88.580,83.111 C88.580,83.111 113.170,83.111 113.170,83.111 Z" id="path-9" class="cls-11" fill-rule="evenodd"/>
    <path d="M103.963,37.695 C103.963,37.695 105.728,20.206 105.728,20.206 C105.911,18.396 104.477,16.826 102.640,16.826 C102.640,16.826 99.109,16.826 99.109,16.826 C97.274,16.826 95.840,18.396 96.022,20.206 C96.022,20.206 97.787,37.695 97.787,37.695 C97.787,37.695 103.963,37.695 103.963,37.695 Z" id="path-10" class="cls-12" fill-rule="evenodd"/>
    <path d="M158.513,123.396 C158.513,123.396 43.238,123.396 43.238,123.396 C43.238,123.396 43.238,116.187 43.238,116.187 C43.238,116.187 158.513,116.187 158.513,116.187 C158.513,116.187 158.513,123.396 158.513,123.396 Z" id="path-11" class="cls-11" fill-rule="evenodd"/>
    <path d="M158.513,110.847 C158.513,110.847 43.238,110.847 43.238,110.847 C43.238,110.847 43.238,103.637 43.238,103.637 C43.238,103.637 158.513,103.637 158.513,103.637 C158.513,103.637 158.513,110.847 158.513,110.847 Z" id="path-12" class="cls-11" fill-rule="evenodd"/>
  </g>
</svg>
