<svg xmlns="http://www.w3.org/2000/svg" xmlns:xlink="http://www.w3.org/1999/xlink" preserveAspectRatio="xMidYMid" width="201" height="217" viewBox="0 0 201 217">
  <defs>
    <style>

      .cls-3 {
        fill: #ff3a2f;
      }

      .cls-6 {
        fill: #142a3b;
      }

      .cls-7 {
        fill: #020403;
        opacity: 0.35;
      }

      .cls-10 {
        fill: #ffffff;
      }
    </style>
  </defs>
  <g id="group-126svg">
    <path d="M78.795,199.177 C78.795,199.177 94.837,199.177 94.837,199.177 C97.931,199.177 100.439,200.293 100.439,201.668 C100.439,203.044 97.931,204.159 94.837,204.159 C94.837,204.159 94.091,204.159 94.091,204.159 C90.998,204.159 88.490,205.274 88.490,206.651 C88.490,208.027 90.998,209.142 94.091,209.142 C94.091,209.142 128.577,209.142 128.577,209.142 C131.669,209.142 134.177,210.258 134.177,211.632 C134.177,213.009 131.669,214.124 128.577,214.124 C128.577,214.124 87.133,214.124 87.133,214.124 C87.133,214.124 41.584,214.124 41.584,214.124 C38.491,214.124 35.983,213.009 35.983,211.632 C35.983,210.258 38.491,209.142 41.584,209.142 C41.584,209.142 51.155,209.142 51.155,209.142 C54.248,209.142 56.756,208.027 56.756,206.651 C56.756,205.274 54.248,204.159 51.155,204.159 C51.155,204.159 5.604,204.159 5.604,204.159 C2.511,204.159 0.004,203.044 0.004,201.668 C0.004,200.293 2.511,199.177 5.604,199.177 C5.604,199.177 16.370,199.177 16.370,199.177 C16.370,199.177 78.795,199.177 78.795,199.177 Z" id="path-1" class="cls-3" fill-rule="evenodd"/>
    <path d="M178.087,216.279 C181.617,216.279 184.481,215.006 184.481,213.436 C184.481,211.865 181.617,210.591 178.087,210.591 C178.087,210.591 158.490,210.591 158.490,210.591 C154.959,210.591 152.096,211.865 152.096,213.436 C152.096,215.006 154.959,216.279 158.490,216.279 C158.490,216.279 178.087,216.279 178.087,216.279 Z" id="path-2" class="cls-3" fill-rule="evenodd"/>
    <path d="M175.677,183.866 C175.677,183.866 183.042,183.866 183.042,183.866 C184.463,183.866 185.613,184.499 185.613,185.279 C185.613,186.060 184.463,186.693 183.042,186.693 C183.042,186.693 182.700,186.693 182.700,186.693 C181.279,186.693 180.128,187.325 180.128,188.107 C180.128,188.887 181.279,189.519 182.700,189.519 C182.700,189.519 198.534,189.519 198.534,189.519 C199.954,189.519 201.107,190.151 201.107,190.933 C201.107,191.713 199.954,192.346 198.534,192.346 C198.534,192.346 179.504,192.346 179.504,192.346 C179.504,192.346 140.608,192.346 140.608,192.346 C139.188,192.346 138.037,191.713 138.037,190.933 C138.037,190.151 139.188,189.519 140.608,189.519 C140.608,189.519 145.003,189.519 145.003,189.519 C146.424,189.519 147.574,188.887 147.574,188.107 C147.574,187.325 146.424,186.693 145.003,186.693 C145.003,186.693 124.088,186.693 124.088,186.693 C122.668,186.693 121.515,186.060 121.515,185.279 C121.515,184.499 122.668,183.866 124.088,183.866 C124.088,183.866 129.030,183.866 129.030,183.866 C129.030,183.866 175.677,183.866 175.677,183.866 Z" id="path-3" class="cls-3" fill-rule="evenodd"/>
    <path d="M75.475,137.510 C75.475,137.510 145.305,8.975 145.305,8.975 C145.368,8.856 145.361,8.725 145.423,8.606 C145.604,8.203 145.701,7.805 145.797,7.382 C145.879,7.012 145.975,6.662 145.984,6.283 C145.996,5.894 145.934,5.527 145.872,5.140 C145.810,4.744 145.760,4.359 145.613,3.982 C145.491,3.637 145.294,3.337 145.109,3.021 C144.889,2.644 144.669,2.278 144.364,1.950 C144.268,1.858 144.236,1.731 144.141,1.639 C143.942,1.447 143.677,1.369 143.452,1.206 C143.215,1.037 143.052,0.800 142.790,0.659 C142.657,0.591 142.524,0.598 142.393,0.539 C142.023,0.369 141.637,0.286 141.241,0.193 C140.845,0.103 140.458,0.002 140.059,-0.009 C139.684,-0.025 139.332,0.042 138.954,0.099 C138.542,0.159 138.140,0.213 137.749,0.354 C137.407,0.476 137.111,0.665 136.792,0.848 C136.409,1.072 136.040,1.290 135.704,1.597 C135.605,1.684 135.484,1.719 135.384,1.818 C135.384,1.818 35.664,104.782 35.664,104.782 C21.257,111.233 -1.342,130.515 8.766,161.623 C15.309,181.731 14.528,185.883 14.218,186.571 C13.968,186.809 12.950,187.274 12.202,187.614 C10.731,188.292 9.149,189.040 7.555,190.128 C7.555,190.128 3.161,193.566 3.161,193.566 C3.161,193.566 4.433,197.845 4.433,197.845 C4.853,199.277 6.431,202.626 11.898,202.776 C25.363,203.146 66.839,187.731 75.475,137.510 Z" id="path-4" class="cls-6" fill-rule="evenodd"/>
    <path d="M68.081,126.524 C68.081,126.524 136.097,1.328 136.097,1.328 C136.326,1.165 136.548,0.991 136.792,0.848 C137.111,0.665 137.407,0.476 137.749,0.354 C138.140,0.213 138.542,0.159 138.954,0.098 C139.331,0.042 139.684,-0.025 140.059,-0.009 C140.458,0.002 140.845,0.103 141.241,0.193 C141.637,0.286 142.023,0.369 142.392,0.541 C142.524,0.598 142.657,0.591 142.790,0.659 C143.052,0.800 143.215,1.037 143.453,1.206 C143.677,1.369 143.942,1.447 144.143,1.639 C144.236,1.731 144.268,1.858 144.364,1.951 C144.669,2.278 144.889,2.644 145.109,3.021 C145.294,3.337 145.491,3.637 145.613,3.983 C145.760,4.359 145.810,4.744 145.872,5.140 C145.934,5.527 145.996,5.894 145.985,6.283 C145.975,6.662 145.879,7.012 145.797,7.382 C145.701,7.804 145.604,8.203 145.423,8.606 C145.361,8.725 145.368,8.856 145.305,8.975 C145.305,8.975 75.475,137.510 75.475,137.510 C66.839,187.731 25.363,203.146 11.898,202.776 C6.431,202.625 4.853,199.278 4.433,197.846 C4.433,197.846 3.161,193.566 3.161,193.566 C3.161,193.566 5.486,191.747 5.486,191.747 C19.816,191.434 59.632,175.659 68.081,126.524 Z" id="path-5" class="cls-7" fill-rule="evenodd"/>
    <path d="M76.951,134.794 C76.951,134.794 75.475,137.510 75.475,137.510 C66.839,187.731 25.363,203.146 11.898,202.776 C6.431,202.625 4.853,199.277 4.433,197.845 C4.433,197.845 3.161,193.566 3.161,193.566 C3.161,193.566 7.556,190.130 7.556,190.130 C9.149,189.040 10.731,188.292 12.202,187.614 C12.950,187.274 13.968,186.809 14.217,186.571 C14.528,185.883 15.309,181.731 8.767,161.624 C-0.654,132.635 18.325,113.928 32.613,106.291 C32.613,106.291 76.951,134.794 76.951,134.794 Z" id="path-6" class="cls-3" fill-rule="evenodd"/>
    <path d="M55.455,141.401 C56.535,136.832 55.060,132.011 51.645,128.758 C51.645,128.758 29.769,107.929 29.769,107.929 C30.731,107.338 31.683,106.788 32.613,106.291 C32.613,106.291 76.952,134.794 76.952,134.794 C76.952,134.794 75.475,137.510 75.475,137.510 C66.839,187.731 25.363,203.146 11.898,202.776 C7.440,202.652 5.589,200.416 4.821,198.814 C20.151,196.724 45.939,181.701 55.455,141.401 Z" id="path-7" class="cls-7" fill-rule="evenodd"/>
    <path d="M11.322,143.982 C11.322,148.195 14.771,151.612 19.024,151.612 C23.278,151.612 26.726,148.195 26.726,143.982 C26.726,139.768 23.278,136.353 19.024,136.353 C14.771,136.353 11.322,139.768 11.322,143.982 Z" id="path-8" class="cls-10" fill-rule="evenodd"/>
  </g>
</svg>
