<svg xmlns="http://www.w3.org/2000/svg" xmlns:xlink="http://www.w3.org/1999/xlink" preserveAspectRatio="xMidYMid" width="219" height="213" viewBox="0 0 219 213">
  <defs>
    <style>

      .cls-3 {
        fill: #142a3b;
      }

      .cls-5 {
        fill: #020403;
        opacity: 0.45;
      }

      .cls-7 {
        fill: #ff3a2f;
      }

      .cls-8 {
        fill: #020403;
        opacity: 0.25;
      }

      .cls-9 {
        fill: #0cb04a;
      }

      .cls-10 {
        fill: #ffffff;
      }

      .cls-16 {
        fill: #2476ff;
      }
    </style>
  </defs>
  <g id="group-52svg">
    <path d="M143.177,168.681 C149.628,172.355 156.249,177.266 162.974,183.713 C162.974,183.713 157.798,186.656 148.799,189.646 C178.768,194.297 200.332,181.996 200.332,181.996 C178.090,160.673 157.423,162.541 143.177,168.681 Z" id="path-1" class="cls-3" fill-rule="evenodd"/>
    <path d="M56.255,183.713 C56.255,183.713 62.704,176.617 73.621,170.093 C39.991,152.751 13.377,181.996 13.377,181.996 C35.494,192.266 55.427,191.776 69.411,188.984 C65.097,187.505 60.713,185.784 56.255,183.713 Z" id="path-2" class="cls-3" fill-rule="evenodd"/>
    <path d="M170.654,189.646 C179.653,186.656 184.828,183.713 184.828,183.713 C178.103,177.266 171.483,172.355 165.032,168.681 C167.550,167.596 170.277,166.656 173.169,165.942 C161.668,163.065 151.360,165.154 143.177,168.681 C149.628,172.355 156.249,177.266 162.974,183.713 C162.974,183.713 157.798,186.656 148.799,189.646 C157.931,191.063 166.266,190.896 173.465,189.992 C172.528,189.878 171.608,189.794 170.654,189.646 Z" id="path-3" class="cls-5" fill-rule="evenodd"/>
    <path d="M56.255,183.713 C56.255,183.713 62.704,176.617 73.621,170.093 C68.139,167.265 62.848,165.694 57.823,165.014 C56.190,165.234 54.536,165.520 52.847,165.942 C55.739,166.656 58.467,167.596 60.985,168.681 C54.535,172.355 47.913,177.266 41.189,183.713 C41.189,183.713 46.363,186.656 55.363,189.646 C54.409,189.794 53.489,189.878 52.552,189.992 C54.300,190.212 56.119,190.383 57.995,190.504 C62.126,190.223 65.952,189.675 69.411,188.984 C65.097,187.505 60.713,185.784 56.255,183.713 Z" id="path-4" class="cls-5" fill-rule="evenodd"/>
    <path d="M56.255,183.714 C56.255,183.714 105.935,129.031 162.974,183.714 C162.974,183.714 115.134,211.055 56.255,183.714 Z" id="path-5" class="cls-7" fill-rule="evenodd"/>
    <path d="M98.948,160.411 C112.020,162.736 126.316,169.522 141.119,183.713 C141.119,183.713 124.670,193.095 99.211,195.365 C136.731,198.684 162.974,183.713 162.974,183.713 C139.366,161.081 117.033,157.205 98.948,160.411 Z" id="path-6" class="cls-8" fill-rule="evenodd"/>
    <path d="M147.244,64.754 C147.244,87.405 105.845,105.766 105.845,105.766 C105.845,105.766 64.446,87.405 64.446,64.754 C64.446,42.103 105.845,-0.002 105.845,-0.002 C105.845,-0.002 147.244,42.103 147.244,64.754 Z" id="path-7" class="cls-9" fill-rule="evenodd"/>
    <path d="M72.227,72.711 C70.217,72.711 68.588,71.097 68.588,69.106 C68.588,50.068 99.246,18.336 102.743,14.781 C104.145,13.355 106.452,13.323 107.888,14.713 C109.328,16.103 109.358,18.384 107.956,19.811 C99.031,28.893 75.866,55.455 75.866,69.106 C75.866,71.097 74.236,72.711 72.227,72.711 Z" id="path-8" class="cls-10" fill-rule="evenodd"/>
    <path d="M105.845,-0.002 C105.845,-0.002 103.599,2.285 100.176,6.051 C112.341,19.843 132.675,45.267 132.675,61.145 C132.675,79.466 105.597,94.977 95.243,100.239 C101.306,103.747 105.845,105.766 105.845,105.766 C105.845,105.766 147.245,87.405 147.245,64.754 C147.245,42.103 105.845,-0.002 105.845,-0.002 Z" id="path-9" class="cls-8" fill-rule="evenodd"/>
    <path d="M106.910,162.328 C104.900,162.328 103.271,160.713 103.271,158.723 C103.271,158.723 103.323,115.240 103.323,115.240 C110.691,71.995 102.407,39.359 102.322,39.034 C101.821,37.107 102.990,35.141 104.934,34.643 C106.875,34.146 108.862,35.299 109.367,37.227 C109.729,38.605 118.103,71.438 110.548,116.140 C110.548,116.140 110.548,158.723 110.548,158.723 C110.548,160.713 108.919,162.328 106.910,162.328 Z" id="path-10" class="cls-3" fill-rule="evenodd"/>
    <path d="M29.161,152.314 C44.948,161.051 73.716,139.816 73.716,139.816 C73.716,139.816 76.889,104.415 61.101,95.677 C45.314,86.940 -0.003,99.016 -0.003,99.016 C-0.003,99.016 13.375,143.576 29.161,152.314 Z" id="path-11" class="cls-9" fill-rule="evenodd"/>
    <path d="M61.101,110.111 C70.149,115.118 72.966,128.878 73.725,139.719 C73.890,137.712 76.415,104.152 61.101,95.677 C45.314,86.940 -0.003,99.015 -0.003,99.015 C-0.003,99.015 1.696,104.664 4.588,112.322 C16.493,109.542 48.379,103.069 61.101,110.111 Z" id="path-12" class="cls-8" fill-rule="evenodd"/>
    <path d="M106.402,162.468 C105.801,162.468 105.191,162.321 104.630,162.009 C104.630,162.009 78.817,147.722 78.817,147.722 C44.631,135.594 24.886,117.113 24.060,116.330 C22.608,114.955 22.558,112.676 23.946,111.236 C25.334,109.799 27.638,109.745 29.089,111.119 C29.281,111.300 48.736,129.453 81.548,141.034 C81.548,141.034 82.102,141.282 82.102,141.282 C82.102,141.282 108.180,155.715 108.180,155.715 C109.934,156.687 110.563,158.883 109.582,160.622 C108.915,161.802 107.677,162.468 106.402,162.468 Z" id="path-13" class="cls-3" fill-rule="evenodd"/>
    <path d="M170.144,202.578 C170.144,202.578 184.101,202.578 184.101,202.578 C186.792,202.578 188.974,203.294 188.974,204.177 C188.974,205.061 186.792,205.778 184.101,205.778 C184.101,205.778 183.451,205.778 183.451,205.778 C180.760,205.778 178.578,206.493 178.578,207.376 C178.578,208.261 180.760,208.975 183.451,208.975 C183.451,208.975 213.456,208.975 213.456,208.975 C216.147,208.975 218.329,209.692 218.329,210.576 C218.329,211.459 216.147,212.176 213.456,212.176 C213.456,212.176 177.398,212.176 177.398,212.176 C177.398,212.176 137.766,212.176 137.766,212.176 C135.075,212.176 132.893,211.459 132.893,210.576 C132.893,209.692 135.075,208.975 137.766,208.975 C137.766,208.975 146.094,208.975 146.094,208.975 C148.785,208.975 150.966,208.261 150.966,207.376 C150.966,206.493 148.785,205.778 146.094,205.778 C146.094,205.778 106.461,205.778 106.461,205.778 C103.771,205.778 101.589,205.061 101.589,204.177 C101.589,203.294 103.771,202.578 106.461,202.578 C106.461,202.578 115.828,202.578 115.828,202.578 C115.828,202.578 170.144,202.578 170.144,202.578 Z" id="path-14" class="cls-16" fill-rule="evenodd"/>
    <path d="M82.234,204.310 C85.320,204.310 87.822,203.095 87.822,201.597 C87.822,200.099 85.320,198.884 82.234,198.884 C82.234,198.884 65.109,198.884 65.109,198.884 C62.023,198.884 59.522,200.099 59.522,201.597 C59.522,203.095 62.023,204.310 65.109,204.310 C65.109,204.310 82.234,204.310 82.234,204.310 Z" id="path-15" class="cls-16" fill-rule="evenodd"/>
    <path d="M142.471,136.641 C142.471,139.698 143.697,142.177 145.209,142.177 C146.722,142.177 147.948,139.698 147.948,136.641 C147.948,136.641 147.948,119.677 147.948,119.677 C147.948,116.619 146.722,114.141 145.209,114.141 C143.697,114.141 142.471,116.619 142.471,119.677 C142.471,119.677 142.471,136.641 142.471,136.641 Z" id="path-16" class="cls-16" fill-rule="evenodd"/>
    <path d="M195.466,147.481 C195.466,147.481 200.060,147.481 200.060,147.481 C200.945,147.481 201.663,148.196 201.663,149.080 C201.663,149.964 200.945,150.680 200.060,150.680 C200.060,150.680 199.846,150.680 199.846,150.680 C198.960,150.680 198.243,151.396 198.243,152.280 C198.243,153.163 198.960,153.879 199.846,153.879 C199.846,153.879 209.722,153.879 209.722,153.879 C210.608,153.879 211.326,154.594 211.326,155.478 C211.326,156.362 210.608,157.078 209.722,157.078 C209.722,157.078 197.853,157.078 197.853,157.078 C197.853,157.078 184.808,157.078 184.808,157.078 C183.923,157.078 183.205,156.362 183.205,155.478 C183.205,154.594 183.923,153.879 184.808,153.879 C184.808,153.879 187.549,153.879 187.549,153.879 C188.435,153.879 189.154,153.163 189.154,152.280 C189.154,151.396 188.435,150.680 187.549,150.680 C187.549,150.680 174.505,150.680 174.505,150.680 C173.619,150.680 172.901,149.964 172.901,149.080 C172.901,148.196 173.619,147.481 174.505,147.481 C174.505,147.481 177.588,147.481 177.588,147.481 C177.588,147.481 195.466,147.481 195.466,147.481 Z" id="path-17" class="cls-16" fill-rule="evenodd"/>
  </g>
</svg>
