<svg xmlns="http://www.w3.org/2000/svg" xmlns:xlink="http://www.w3.org/1999/xlink" preserveAspectRatio="xMidYMid" width="219" height="205" viewBox="0 0 219 205">
  <defs>
    <style>

      .cls-3 {
        fill: #ff3a2f;
      }

      .cls-7 {
        fill: #d99a02;
      }

      .cls-8 {
        fill: #020403;
        opacity: 0.35;
      }

      .cls-9 {
        fill: #fbb713;
      }

      .cls-10 {
        fill: #020403;
        opacity: 0.25;
      }

      .cls-11 {
        fill: #b17d0a;
      }
    </style>
  </defs>
  <g id="group-107svg">
    <path d="M91.590,204.827 C94.166,204.827 96.253,203.938 96.253,202.842 C96.253,201.745 94.166,200.857 91.590,200.857 C91.590,200.857 77.299,200.857 77.299,200.857 C74.723,200.857 72.636,201.745 72.636,202.842 C72.636,203.938 74.723,204.827 77.299,204.827 C77.299,204.827 91.590,204.827 91.590,204.827 Z" id="path-1" class="cls-3" fill-rule="evenodd"/>
    <path d="M37.244,173.084 C37.244,173.084 41.490,173.084 41.490,173.084 C42.309,173.084 42.973,173.941 42.973,175.002 C42.973,176.062 42.309,176.922 41.490,176.922 C41.490,176.922 41.293,176.922 41.293,176.922 C40.474,176.922 39.810,177.782 39.810,178.841 C39.810,179.901 40.474,180.760 41.293,180.760 C41.293,180.760 50.421,180.760 50.421,180.760 C51.240,180.760 51.903,181.620 51.903,182.680 C51.903,183.740 51.240,184.599 50.421,184.599 C50.421,184.599 39.451,184.599 39.451,184.599 C39.451,184.599 17.029,184.599 17.029,184.599 C16.211,184.599 15.546,183.740 15.546,182.680 C15.546,181.620 16.211,180.760 17.029,180.760 C17.029,180.760 19.562,180.760 19.562,180.760 C20.381,180.760 21.045,179.901 21.045,178.841 C21.045,177.782 20.381,176.922 19.562,176.922 C19.562,176.922 7.506,176.922 7.506,176.922 C6.687,176.922 6.023,176.062 6.023,175.002 C6.023,173.941 6.687,173.084 7.506,173.084 C7.506,173.084 10.355,173.084 10.355,173.084 C10.355,173.084 37.244,173.084 37.244,173.084 Z" id="path-2" class="cls-3" fill-rule="evenodd"/>
    <path d="M7.461,184.704 C8.475,184.704 9.296,184.104 9.296,183.365 C9.296,182.625 8.475,182.027 7.461,182.027 C7.461,182.027 1.840,182.027 1.840,182.027 C0.827,182.027 0.007,182.625 0.007,183.365 C0.007,184.104 0.827,184.704 1.840,184.704 C1.840,184.704 7.461,184.704 7.461,184.704 Z" id="path-3" class="cls-3" fill-rule="evenodd"/>
    <path d="M181.068,187.589 C181.068,187.589 191.864,187.589 191.864,187.589 C193.946,187.589 195.633,188.863 195.633,190.436 C195.633,192.008 193.946,193.283 191.864,193.283 C191.864,193.283 191.362,193.283 191.362,193.283 C189.280,193.283 187.593,194.558 187.593,196.131 C187.593,197.705 189.280,198.979 191.362,198.979 C191.362,198.979 214.570,198.979 214.570,198.979 C216.651,198.979 218.339,200.253 218.339,201.826 C218.339,203.399 216.651,204.673 214.570,204.673 C214.570,204.673 186.680,204.673 186.680,204.673 C186.680,204.673 129.672,204.673 129.672,204.673 C127.591,204.673 125.903,203.399 125.903,201.826 C125.903,200.253 127.591,198.979 129.672,198.979 C129.672,198.979 136.113,198.979 136.113,198.979 C138.194,198.979 139.883,197.705 139.883,196.131 C139.883,194.558 138.194,193.283 136.113,193.283 C136.113,193.283 105.459,193.283 105.459,193.283 C103.377,193.283 101.691,192.008 101.691,190.436 C101.691,188.863 103.377,187.589 105.459,187.589 C105.459,187.589 112.704,187.589 112.704,187.589 C112.704,187.589 181.068,187.589 181.068,187.589 Z" id="path-4" class="cls-3" fill-rule="evenodd"/>
    <path d="M60.380,101.451 C60.380,91.570 46.453,81.020 46.453,72.805 C46.453,52.383 78.261,35.830 117.495,35.830 C132.959,35.830 147.257,38.410 158.920,42.774 C160.001,40.760 160.721,38.820 160.721,36.978 C160.721,16.557 128.915,0.004 89.677,0.004 C50.442,0.004 18.635,16.557 18.635,36.978 C18.635,45.195 32.562,55.745 32.562,65.624 C32.562,65.624 26.977,135.425 26.977,135.425 C26.977,144.790 34.281,151.574 44.289,151.574 C44.289,151.574 46.666,151.574 46.666,151.574 C46.666,151.574 56.370,151.574 56.370,151.574 C56.370,151.574 60.380,101.451 60.380,101.451 Z" id="path-5" class="cls-7" fill-rule="evenodd"/>
    <path d="M117.495,35.830 C132.959,35.830 147.257,38.410 158.920,42.774 C159.701,41.318 160.283,39.902 160.552,38.535 C147.559,31.116 128.843,26.460 108.037,26.460 C68.802,26.460 36.994,43.013 36.994,63.436 C36.994,71.651 50.921,82.200 50.921,92.080 C50.921,92.080 46.162,151.573 46.162,151.573 C46.162,151.573 46.666,151.573 46.666,151.573 C46.666,151.573 56.370,151.573 56.370,151.573 C56.370,151.573 60.380,101.449 60.380,101.449 C60.380,91.570 46.453,81.020 46.453,72.805 C46.453,52.383 78.261,35.830 117.495,35.830 Z" id="path-6" class="cls-8" fill-rule="evenodd"/>
    <path d="M163.421,187.400 C173.429,187.400 180.541,179.807 180.541,170.446 C180.541,170.446 175.119,101.096 175.119,101.096 C175.119,90.733 188.539,80.862 188.539,72.805 C188.539,52.384 156.733,35.830 117.495,35.830 C78.261,35.830 46.453,52.384 46.453,72.805 C46.453,81.020 60.380,91.570 60.380,101.451 C60.380,101.451 54.796,171.252 54.796,171.252 C54.796,180.617 62.099,187.400 72.108,187.400 C72.108,187.400 74.484,187.400 74.484,187.400 C74.484,187.400 163.421,187.400 163.421,187.400 Z" id="path-7" class="cls-9" fill-rule="evenodd"/>
    <path d="M188.539,72.805 C188.539,52.383 156.733,35.830 117.495,35.830 C114.830,35.830 112.203,35.913 109.614,36.061 C145.140,38.104 172.776,53.771 172.776,72.805 C172.776,80.862 159.355,90.733 159.355,101.096 C159.355,101.096 164.778,170.446 164.778,170.446 C164.778,179.807 157.666,187.400 147.658,187.400 C147.658,187.400 163.421,187.400 163.421,187.400 C173.429,187.400 180.541,179.807 180.541,170.446 C180.541,170.446 175.119,101.096 175.119,101.096 C175.119,90.733 188.539,80.862 188.539,72.805 Z" id="path-8" class="cls-10" fill-rule="evenodd"/>
    <path d="M153.151,99.625 C153.151,102.307 150.955,104.482 148.247,104.482 C145.538,104.482 143.343,102.307 143.343,99.625 C143.343,96.941 145.538,94.765 148.247,94.765 C150.955,94.765 153.151,96.941 153.151,99.625 Z" id="path-9" class="cls-11" fill-rule="evenodd"/>
    <path d="M121.623,87.131 C121.623,89.814 119.428,91.989 116.719,91.989 C114.011,91.989 111.815,89.814 111.815,87.131 C111.815,84.447 114.011,82.273 116.719,82.273 C119.428,82.273 121.623,84.447 121.623,87.131 Z" id="path-10" class="cls-11" fill-rule="evenodd"/>
    <path d="M90.095,99.625 C90.095,102.307 87.900,104.482 85.192,104.482 C82.483,104.482 80.288,102.307 80.288,99.625 C80.288,96.941 82.483,94.765 85.192,94.765 C87.900,94.765 90.095,96.941 90.095,99.625 Z" id="path-11" class="cls-11" fill-rule="evenodd"/>
    <path d="M90.095,127.734 C90.095,130.418 87.900,132.591 85.192,132.591 C82.483,132.591 80.288,130.418 80.288,127.734 C80.288,125.051 82.483,122.875 85.192,122.875 C87.900,122.875 90.095,125.051 90.095,127.734 Z" id="path-12" class="cls-11" fill-rule="evenodd"/>
    <path d="M121.623,137.102 C121.623,139.786 119.428,141.961 116.719,141.961 C114.011,141.961 111.815,139.786 111.815,137.102 C111.815,134.420 114.011,132.245 116.719,132.245 C119.428,132.245 121.623,134.420 121.623,137.102 Z" id="path-13" class="cls-11" fill-rule="evenodd"/>
    <path d="M121.623,112.116 C121.623,114.800 119.428,116.975 116.719,116.975 C114.011,116.975 111.815,114.800 111.815,112.116 C111.815,109.433 114.011,107.259 116.719,107.259 C119.428,107.259 121.623,109.433 121.623,112.116 Z" id="path-14" class="cls-11" fill-rule="evenodd"/>
    <path d="M153.151,124.609 C153.151,127.294 150.955,129.468 148.247,129.468 C145.538,129.468 143.343,127.294 143.343,124.609 C143.343,121.927 145.538,119.752 148.247,119.752 C150.955,119.752 153.151,121.927 153.151,124.609 Z" id="path-15" class="cls-11" fill-rule="evenodd"/>
    <path d="M90.095,158.966 C90.095,161.649 87.900,163.823 85.192,163.823 C82.483,163.823 80.288,161.649 80.288,158.966 C80.288,156.284 82.483,154.109 85.192,154.109 C87.900,154.109 90.095,156.284 90.095,158.966 Z" id="path-16" class="cls-11" fill-rule="evenodd"/>
    <path d="M121.623,168.335 C121.623,171.018 119.428,173.194 116.719,173.194 C114.011,173.194 111.815,171.018 111.815,168.335 C111.815,165.653 114.011,163.476 116.719,163.476 C119.428,163.476 121.623,165.653 121.623,168.335 Z" id="path-17" class="cls-11" fill-rule="evenodd"/>
    <path d="M153.151,152.720 C153.151,155.402 150.955,157.579 148.247,157.579 C145.538,157.579 143.343,155.402 143.343,152.720 C143.343,150.037 145.538,147.861 148.247,147.861 C150.955,147.861 153.151,150.037 153.151,152.720 Z" id="path-18" class="cls-11" fill-rule="evenodd"/>
  </g>
</svg>
