<svg xmlns="http://www.w3.org/2000/svg" xmlns:xlink="http://www.w3.org/1999/xlink" preserveAspectRatio="xMidYMid" width="219" height="173" viewBox="0 0 219 173">
  <defs>
    <style>

      .cls-3 {
        fill: #142a3b;
      }

      .cls-4 {
        fill: #ff3a2f;
      }

      .cls-5 {
        fill: #0cb04a;
      }
    </style>
  </defs>
  <g id="group-90svg">
    <path d="M120.384,85.816 C118.375,85.816 116.745,84.202 116.745,82.211 C116.745,82.211 116.745,66.676 116.745,66.676 C116.745,66.676 120.384,66.676 120.384,66.676 C135.527,66.676 137.163,55.743 137.163,51.043 C137.163,42.138 130.839,35.423 122.454,35.423 C113.774,35.423 106.711,42.388 106.711,50.950 C106.711,52.940 105.082,54.555 103.073,54.555 C101.063,54.555 99.434,52.940 99.434,50.950 C99.434,38.413 109.761,28.213 122.454,28.213 C134.783,28.213 144.441,38.240 144.441,51.043 C144.441,63.731 136.546,72.314 124.023,73.692 C124.023,73.692 124.023,82.211 124.023,82.211 C124.023,84.202 122.394,85.816 120.384,85.816 Z" id="path-1" class="cls-3" fill-rule="evenodd"/>
    <path d="M119.948,81.346 C119.948,81.346 25.549,117.241 25.549,117.241 C25.549,117.241 32.375,139.755 32.375,139.755 C32.375,139.755 212.773,139.755 212.773,139.755 C212.773,139.755 218.325,117.241 218.325,117.241 C218.325,117.241 119.948,81.346 119.948,81.346 ZM205.403,132.832 C205.403,132.832 40.026,132.832 40.026,132.832 C40.026,132.832 36.531,123.025 36.531,123.025 C36.531,123.025 118.638,89.567 118.638,89.567 C118.638,89.567 208.314,123.025 208.314,123.025 C208.314,123.025 205.403,132.832 205.403,132.832 Z" id="path-2" class="cls-4" fill-rule="evenodd"/>
    <path d="M164.212,155.071 C164.212,155.071 175.180,155.071 175.180,155.071 C177.294,155.071 179.008,156.366 179.008,157.964 C179.008,159.562 177.294,160.856 175.180,160.856 C175.180,160.856 174.669,160.856 174.669,160.856 C172.554,160.856 170.840,162.151 170.840,163.749 C170.840,165.346 172.554,166.641 174.669,166.641 C174.669,166.641 198.245,166.641 198.245,166.641 C200.359,166.641 202.073,167.936 202.073,169.534 C202.073,171.131 200.359,172.427 198.245,172.427 C198.245,172.427 169.913,172.427 169.913,172.427 C169.913,172.427 112.002,172.427 112.002,172.427 C109.887,172.427 108.173,171.131 108.173,169.534 C108.173,167.936 109.887,166.641 112.002,166.641 C112.002,166.641 118.544,166.641 118.544,166.641 C120.659,166.641 122.373,165.346 122.373,163.749 C122.373,162.151 120.659,160.856 118.544,160.856 C118.544,160.856 87.404,160.856 87.404,160.856 C85.289,160.856 83.576,159.562 83.576,157.964 C83.576,156.366 85.289,155.071 87.404,155.071 C87.404,155.071 94.763,155.071 94.763,155.071 C94.763,155.071 164.212,155.071 164.212,155.071 Z" id="path-3" class="cls-5" fill-rule="evenodd"/>
    <path d="M80.629,90.608 C80.629,90.608 91.597,90.608 91.597,90.608 C93.711,90.608 95.425,91.904 95.425,93.502 C95.425,95.099 93.711,96.395 91.597,96.395 C91.597,96.395 91.086,96.395 91.086,96.395 C88.971,96.395 87.257,97.689 87.257,99.287 C87.257,100.884 88.971,102.179 91.086,102.179 C91.086,102.179 114.662,102.179 114.662,102.179 C116.777,102.179 118.491,103.475 118.491,105.072 C118.491,106.670 116.777,107.964 114.662,107.964 C114.662,107.964 86.330,107.964 86.330,107.964 C86.330,107.964 28.418,107.964 28.418,107.964 C26.304,107.964 24.590,106.670 24.590,105.072 C24.590,103.475 26.304,102.179 28.418,102.179 C28.418,102.179 34.961,102.179 34.961,102.179 C37.076,102.179 38.790,100.884 38.790,99.287 C38.790,97.689 37.076,96.395 34.961,96.395 C34.961,96.395 3.821,96.395 3.821,96.395 C1.706,96.395 -0.007,95.099 -0.007,93.502 C-0.007,91.904 1.706,90.608 3.821,90.608 C3.821,90.608 11.181,90.608 11.181,90.608 C11.181,90.608 80.629,90.608 80.629,90.608 Z" id="path-4" class="cls-5" fill-rule="evenodd"/>
    <path d="M165.643,-0.000 C165.643,-0.000 170.270,-0.000 170.270,-0.000 C171.162,-0.000 171.885,0.545 171.885,1.220 C171.885,1.893 171.162,2.440 170.270,2.440 C170.270,2.440 170.055,2.440 170.055,2.440 C169.163,2.440 168.439,2.986 168.439,3.660 C168.439,4.335 169.163,4.880 170.055,4.880 C170.055,4.880 180.000,4.880 180.000,4.880 C180.892,4.880 181.615,5.427 181.615,6.100 C181.615,6.774 180.892,7.322 180.000,7.322 C180.000,7.322 168.048,7.322 168.048,7.322 C168.048,7.322 143.618,7.322 143.618,7.322 C142.726,7.322 142.003,6.774 142.003,6.100 C142.003,5.427 142.726,4.880 143.618,4.880 C143.618,4.880 146.378,4.880 146.378,4.880 C147.270,4.880 147.993,4.335 147.993,3.660 C147.993,2.986 147.270,2.440 146.378,2.440 C146.378,2.440 133.241,2.440 133.241,2.440 C132.350,2.440 131.627,1.893 131.627,1.220 C131.627,0.545 132.350,-0.000 133.241,-0.000 C133.241,-0.000 136.347,-0.000 136.347,-0.000 C136.347,-0.000 165.643,-0.000 165.643,-0.000 Z" id="path-5" class="cls-5" fill-rule="evenodd"/>
    <path d="M87.290,172.582 C89.906,172.582 92.028,171.680 92.028,170.565 C92.028,169.453 89.906,168.549 87.290,168.549 C87.290,168.549 72.773,168.549 72.773,168.549 C70.156,168.549 68.036,169.453 68.036,170.565 C68.036,171.680 70.156,172.582 72.773,172.582 C72.773,172.582 87.290,172.582 87.290,172.582 Z" id="path-6" class="cls-5" fill-rule="evenodd"/>
  </g>
</svg>
