<svg xmlns="http://www.w3.org/2000/svg" xmlns:xlink="http://www.w3.org/1999/xlink" preserveAspectRatio="xMidYMid" width="218" height="203" viewBox="0 0 218 203">
  <defs>
    <style>

      .cls-3 {
        fill: #142a3b;
      }

      .cls-9 {
        fill: #ffffff;
      }

      .cls-13 {
        fill: #ff3a2f;
      }

      .cls-15 {
        fill: #fbb713;
      }

      .cls-16 {
        fill: #020403;
        opacity: 0.25;
      }

      .cls-19 {
        fill: #242925;
        opacity: 0.35;
      }
    </style>
  </defs>
  <g id="group-159svg">
    <path d="M164.000,182.786 C164.000,182.786 167.933,182.786 167.933,182.786 C167.933,182.786 167.933,6.465 167.933,6.465 C167.933,6.465 164.000,6.465 164.000,6.465 C164.000,6.465 162.034,6.465 162.034,6.465 C162.034,6.465 162.034,182.786 162.034,182.786 C162.034,182.786 164.000,182.786 164.000,182.786 Z" id="path-1" class="cls-3" fill-rule="evenodd"/>
    <path d="M63.417,182.786 C63.417,182.786 67.349,182.786 67.349,182.786 C67.349,182.786 67.349,6.465 67.349,6.465 C67.349,6.465 63.417,6.465 63.417,6.465 C63.417,6.465 61.451,6.465 61.451,6.465 C61.451,6.465 61.451,182.786 61.451,182.786 C61.451,182.786 63.417,182.786 63.417,182.786 Z" id="path-2" class="cls-3" fill-rule="evenodd"/>
    <path d="M129.761,79.439 C131.185,78.111 132.797,76.854 134.566,75.677 C132.689,76.840 131.098,78.117 129.761,79.439 Z" id="path-3" class="cls-3" fill-rule="evenodd"/>
    <path d="M134.566,113.564 C132.797,112.387 131.185,111.130 129.761,109.801 C131.098,111.125 132.689,112.402 134.566,113.564 Z" id="path-4" class="cls-3" fill-rule="evenodd"/>
    <path d="M99.930,109.804 C98.508,111.130 96.902,112.382 95.140,113.556 C97.011,112.396 98.596,111.125 99.930,109.804 Z" id="path-5" class="cls-3" fill-rule="evenodd"/>
    <path d="M95.140,75.685 C96.902,76.860 98.508,78.111 99.930,79.438 C98.596,78.117 97.011,76.846 95.140,75.685 Z" id="path-6" class="cls-3" fill-rule="evenodd"/>
    <path d="M137.406,74.118 C139.018,73.341 140.536,72.517 141.983,71.651 C139.278,72.847 136.796,74.196 134.566,75.677 C135.448,75.131 136.388,74.606 137.406,74.118 Z" id="path-7" class="cls-9" fill-rule="evenodd"/>
    <path d="M134.566,113.564 C136.796,115.046 139.278,116.394 141.983,117.590 C140.536,116.724 139.018,115.900 137.406,115.124 C136.388,114.635 135.448,114.111 134.566,113.564 Z" id="path-8" class="cls-9" fill-rule="evenodd"/>
    <path d="M92.288,115.124 C90.675,115.900 89.156,116.724 87.709,117.590 C90.419,116.394 92.906,115.040 95.140,113.556 C94.255,114.105 93.310,114.632 92.288,115.124 Z" id="path-9" class="cls-9" fill-rule="evenodd"/>
    <path d="M95.140,75.685 C92.906,74.201 90.419,72.847 87.709,71.651 C89.156,72.517 90.675,73.341 92.288,74.118 C93.310,74.610 94.255,75.137 95.140,75.685 Z" id="path-10" class="cls-9" fill-rule="evenodd"/>
    <path d="M57.641,186.361 C57.667,186.555 57.680,186.753 57.735,186.936 C57.739,186.924 57.748,186.915 57.751,186.903 C58.148,188.243 59.349,189.239 60.828,189.239 C60.828,189.239 168.863,189.239 168.863,189.239 C170.360,189.239 171.567,188.224 171.950,186.862 C171.959,186.890 171.978,186.910 171.986,186.936 C172.076,186.642 172.137,186.337 172.137,186.012 C172.137,184.228 170.678,182.783 168.879,182.783 C168.879,182.783 168.863,182.783 168.863,182.783 C168.863,182.783 60.843,182.783 60.843,182.783 C60.843,182.783 60.828,182.783 60.828,182.783 C59.031,182.783 57.570,184.228 57.570,186.012 C57.570,186.136 57.628,186.241 57.641,186.361 Z" id="path-11" class="cls-13" fill-rule="evenodd"/>
    <path d="M60.828,6.460 C60.828,6.460 168.863,6.460 168.863,6.460 C170.665,6.460 172.123,5.014 172.123,3.230 C172.123,1.445 170.665,0.003 168.863,0.003 C168.863,0.003 60.828,0.003 60.828,0.003 C59.031,0.003 57.570,1.445 57.570,3.230 C57.570,5.014 59.031,6.460 60.828,6.460 Z" id="path-12" class="cls-13" fill-rule="evenodd"/>
    <path d="M95.140,113.556 C92.906,115.040 90.419,116.393 87.709,117.590 C76.160,124.505 69.936,134.538 69.936,152.030 C69.936,171.711 69.936,182.783 69.936,182.783 C69.936,182.783 69.950,182.783 69.950,182.783 C69.950,182.783 69.950,182.786 69.950,182.786 C69.950,182.786 85.472,182.786 85.472,182.786 C85.472,182.786 107.515,182.786 107.515,182.786 C107.515,182.786 107.515,182.783 107.515,182.783 C107.515,182.783 113.398,182.783 113.398,182.783 C113.398,182.783 116.295,182.783 116.295,182.783 C116.295,182.783 122.207,182.783 122.207,182.783 C122.207,182.783 122.207,182.786 122.207,182.786 C122.207,182.786 144.249,182.786 144.249,182.786 C144.249,182.786 144.249,182.783 144.249,182.783 C144.249,182.783 159.757,182.783 159.757,182.783 C159.757,182.783 159.757,171.711 159.757,152.030 C159.757,134.538 153.533,124.502 141.983,117.590 C139.278,116.393 136.796,115.046 134.566,113.564 C132.689,112.402 131.098,111.124 129.761,109.802 C125.031,105.389 122.298,100.189 122.298,94.621 C122.298,89.052 125.031,83.852 129.761,79.440 C131.098,78.117 132.689,76.841 134.566,75.677 C136.796,74.196 139.278,72.847 141.983,71.651 C153.533,64.740 159.757,54.704 159.757,37.212 C159.757,17.529 159.757,6.460 159.757,6.460 C159.757,6.460 116.295,6.460 116.295,6.460 C116.295,6.460 113.398,6.460 113.398,6.460 C113.398,6.460 69.936,6.460 69.936,6.460 C69.936,6.460 69.936,17.529 69.936,37.212 C69.936,54.704 76.160,64.737 87.709,71.651 C90.419,72.847 92.906,74.201 95.140,75.685 C97.011,76.846 98.596,78.117 99.930,79.438 C104.661,83.849 107.396,89.049 107.396,94.621 C107.396,100.191 104.661,105.393 99.930,109.804 C98.596,111.124 97.011,112.396 95.140,113.556 Z" id="path-13" class="cls-15" fill-rule="evenodd"/>
    <path d="M144.249,6.465 C144.249,6.465 144.249,17.538 144.249,37.220 C144.249,54.713 140.176,64.745 132.619,71.657 C130.847,72.853 129.224,74.204 127.766,75.685 C126.535,76.849 125.495,78.122 124.620,79.449 C121.528,83.861 119.735,89.058 119.735,94.628 C119.735,100.197 121.528,105.395 124.620,109.807 C125.495,111.133 126.535,112.406 127.766,113.569 C129.224,115.051 130.847,116.403 132.619,117.596 C140.176,124.511 144.249,134.543 144.249,152.035 C144.249,171.678 144.249,182.741 144.249,182.786 C144.249,182.786 159.771,182.786 159.771,182.786 C159.771,182.786 159.771,171.714 159.771,152.030 C159.771,134.537 153.548,124.505 141.996,117.590 C139.293,116.397 136.809,115.049 134.580,113.564 C132.702,112.404 131.111,111.130 129.773,109.804 C125.045,105.392 122.312,100.191 122.312,94.624 C122.312,89.055 125.045,83.854 129.773,79.443 C131.111,78.117 132.702,76.843 134.580,75.679 C136.809,74.198 139.293,72.847 141.996,71.654 C153.548,64.744 159.771,54.706 159.771,37.218 C159.771,17.533 159.771,6.463 159.771,6.463 C159.771,6.463 122.207,6.463 122.207,6.463 C122.207,6.463 122.207,6.465 122.207,6.465 C122.207,6.465 144.249,6.465 144.249,6.465 Z" id="path-14" class="cls-16" fill-rule="evenodd"/>
    <path d="M99.302,68.378 C98.661,68.378 98.012,68.212 97.424,67.860 C83.915,59.775 77.891,48.202 77.891,30.335 C77.891,30.335 81.518,21.809 81.518,21.809 C81.518,21.809 85.169,30.335 85.169,30.335 C85.169,45.592 89.959,54.969 101.187,61.688 C102.907,62.716 103.459,64.934 102.420,66.637 C101.736,67.760 100.535,68.378 99.302,68.378 ZM84.050,15.853 C84.050,15.853 85.169,13.219 85.169,13.219 C85.169,14.241 84.740,15.181 84.050,15.853 Z" id="path-15" class="cls-9" fill-rule="evenodd"/>
    <path d="M85.169,176.027 C85.169,176.027 84.007,173.297 84.007,173.297 C84.724,173.940 85.169,174.861 85.169,175.905 C85.169,175.905 85.169,176.027 85.169,176.027 ZM81.530,167.469 C81.530,167.469 77.891,158.911 77.891,158.911 C77.891,141.045 83.915,129.471 97.424,121.386 C97.424,121.386 97.825,121.177 97.825,121.177 C100.327,120.074 102.637,118.821 104.693,117.454 C106.357,116.347 108.623,116.784 109.742,118.436 C110.864,120.088 110.419,122.328 108.751,123.439 C106.409,124.997 103.802,126.420 101.001,127.669 C89.906,134.380 85.169,143.739 85.169,158.911 C85.169,158.911 81.530,167.469 81.530,167.469 Z" id="path-16" class="cls-9" fill-rule="evenodd"/>
    <path d="M159.757,182.939 C159.757,182.939 137.302,183.016 114.847,183.095 C92.391,183.016 69.936,182.939 69.936,182.939 C69.936,182.939 69.936,182.626 69.936,182.626 C69.936,182.626 71.340,182.391 73.795,182.111 C76.252,181.896 79.761,181.369 83.970,181.134 C88.181,180.901 93.093,180.449 98.356,180.290 C103.619,180.065 109.233,180.030 114.847,179.975 C120.460,180.030 126.074,180.071 131.337,180.296 C136.600,180.463 141.512,180.906 145.723,181.139 C149.933,181.380 153.442,181.899 155.898,182.113 C158.353,182.394 159.757,182.626 159.757,182.626 C159.757,182.626 159.757,182.939 159.757,182.939 Z" id="path-17" class="cls-19" fill-rule="evenodd"/>
    <path d="M159.757,6.460 C159.757,6.460 69.936,6.460 69.936,6.460 C69.936,6.460 69.936,11.967 69.936,11.967 C69.936,11.967 159.757,18.849 159.757,18.849 C159.757,18.849 159.757,6.460 159.757,6.460 Z" id="path-18" class="cls-19" fill-rule="evenodd"/>
    <path d="M74.009,187.370 C74.009,187.370 89.081,187.370 89.081,187.370 C91.986,187.370 94.341,188.450 94.341,189.780 C94.341,191.112 91.986,192.192 89.081,192.192 C89.081,192.192 88.379,192.192 88.379,192.192 C85.473,192.192 83.118,193.271 83.118,194.603 C83.118,195.935 85.473,197.014 88.379,197.014 C88.379,197.014 120.777,197.014 120.777,197.014 C123.683,197.014 126.039,198.093 126.039,199.425 C126.039,200.756 123.683,201.836 120.777,201.836 C120.777,201.836 81.843,201.836 81.843,201.836 C81.843,201.836 39.050,201.836 39.050,201.836 C36.144,201.836 33.788,200.756 33.788,199.425 C33.788,198.093 36.144,197.014 39.050,197.014 C39.050,197.014 48.041,197.014 48.041,197.014 C50.947,197.014 53.303,195.935 53.303,194.603 C53.303,193.271 50.947,192.192 48.041,192.192 C48.041,192.192 5.249,192.192 5.249,192.192 C2.343,192.192 -0.013,191.112 -0.013,189.780 C-0.013,188.450 2.343,187.370 5.249,187.370 C5.249,187.370 15.363,187.370 15.363,187.370 C15.363,187.370 74.009,187.370 74.009,187.370 Z" id="path-19" class="cls-3" fill-rule="evenodd"/>
    <path d="M35.842,67.467 C35.842,67.467 40.694,67.467 40.694,67.467 C41.630,67.467 42.389,68.279 42.389,69.281 C42.389,70.282 41.630,71.096 40.694,71.096 C40.694,71.096 40.469,71.096 40.469,71.096 C39.533,71.096 38.775,71.907 38.775,72.908 C38.775,73.910 39.533,74.722 40.469,74.722 C40.469,74.722 50.900,74.722 50.900,74.722 C51.835,74.722 52.594,75.536 52.594,76.538 C52.594,77.540 51.835,78.351 50.900,78.351 C50.900,78.351 38.364,78.351 38.364,78.351 C38.364,78.351 24.586,78.351 24.586,78.351 C23.651,78.351 22.893,77.540 22.893,76.538 C22.893,75.536 23.651,74.722 24.586,74.722 C24.586,74.722 27.482,74.722 27.482,74.722 C28.417,74.722 29.175,73.910 29.175,72.908 C29.175,71.907 28.417,71.096 27.482,71.096 C27.482,71.096 13.704,71.096 13.704,71.096 C12.768,71.096 12.010,70.282 12.010,69.281 C12.010,68.279 12.768,67.467 13.704,67.467 C13.704,67.467 16.960,67.467 16.960,67.467 C16.960,67.467 35.842,67.467 35.842,67.467 Z" id="path-20" class="cls-3" fill-rule="evenodd"/>
    <path d="M201.568,113.554 C201.568,113.554 206.421,113.554 206.421,113.554 C207.356,113.554 208.114,114.366 208.114,115.368 C208.114,116.370 207.356,117.183 206.421,117.183 C206.421,117.183 206.195,117.183 206.195,117.183 C205.259,117.183 204.501,117.994 204.501,118.997 C204.501,119.998 205.259,120.811 206.195,120.811 C206.195,120.811 216.625,120.811 216.625,120.811 C217.561,120.811 218.320,121.623 218.320,122.625 C218.320,123.627 217.561,124.440 216.625,124.440 C216.625,124.440 204.090,124.440 204.090,124.440 C204.090,124.440 190.313,124.440 190.313,124.440 C189.377,124.440 188.619,123.627 188.619,122.625 C188.619,121.623 189.377,120.811 190.313,120.811 C190.313,120.811 193.208,120.811 193.208,120.811 C194.143,120.811 194.902,119.998 194.902,118.997 C194.902,117.994 194.143,117.183 193.208,117.183 C193.208,117.183 179.430,117.183 179.430,117.183 C178.494,117.183 177.736,116.370 177.736,115.368 C177.736,114.366 178.494,113.554 179.430,113.554 C179.430,113.554 182.687,113.554 182.687,113.554 C182.687,113.554 201.568,113.554 201.568,113.554 Z" id="path-21" class="cls-3" fill-rule="evenodd"/>
  </g>
</svg>
