<svg xmlns="http://www.w3.org/2000/svg" xmlns:xlink="http://www.w3.org/1999/xlink" preserveAspectRatio="xMidYMid" width="215" height="217" viewBox="0 0 215 217">
  <defs>
    <style>

      .cls-3 {
        fill: #ff3a2f;
      }

      .cls-7 {
        fill: #142a3b;
      }

      .cls-10 {
        fill: #ededed;
      }

      .cls-13 {
        fill: #020403;
        opacity: 0.35;
      }
    </style>
  </defs>
  <g id="group-122svg">
    <path d="M74.758,200.061 C74.758,200.061 89.977,200.061 89.977,200.061 C92.911,200.061 95.289,201.119 95.289,202.425 C95.289,203.730 92.911,204.788 89.977,204.788 C89.977,204.788 89.268,204.788 89.268,204.788 C86.333,204.788 83.955,205.846 83.955,207.151 C83.955,208.456 86.333,209.515 89.268,209.515 C89.268,209.515 121.984,209.515 121.984,209.515 C124.918,209.515 127.297,210.574 127.297,211.878 C127.297,213.184 124.918,214.242 121.984,214.242 C121.984,214.242 82.668,214.242 82.668,214.242 C82.668,214.242 39.454,214.242 39.454,214.242 C36.520,214.242 34.141,213.184 34.141,211.878 C34.141,210.574 36.520,209.515 39.454,209.515 C39.454,209.515 48.534,209.515 48.534,209.515 C51.468,209.515 53.848,208.456 53.848,207.151 C53.848,205.846 51.468,204.788 48.534,204.788 C48.534,204.788 5.322,204.788 5.322,204.788 C2.387,204.788 0.008,203.730 0.008,202.425 C0.008,201.119 2.387,200.061 5.322,200.061 C5.322,200.061 15.535,200.061 15.535,200.061 C15.535,200.061 74.758,200.061 74.758,200.061 Z" id="path-1" class="cls-3" fill-rule="evenodd"/>
    <path d="M168.953,216.287 C172.303,216.287 175.019,215.079 175.019,213.588 C175.019,212.097 172.303,210.890 168.953,210.890 C168.953,210.890 150.363,210.890 150.363,210.890 C147.012,210.890 144.296,212.097 144.296,213.588 C144.296,215.079 147.012,216.287 150.363,216.287 C150.363,216.287 168.953,216.287 168.953,216.287 Z" id="path-2" class="cls-3" fill-rule="evenodd"/>
    <path d="M183.345,182.306 C183.345,182.306 190.333,182.306 190.333,182.306 C191.680,182.306 192.773,182.908 192.773,183.647 C192.773,184.388 191.680,184.989 190.333,184.989 C190.333,184.989 190.008,184.989 190.008,184.989 C188.661,184.989 187.568,185.588 187.568,186.329 C187.568,187.069 188.661,187.671 190.008,187.671 C190.008,187.671 205.031,187.671 205.031,187.671 C206.377,187.671 207.470,188.270 207.470,189.011 C207.470,189.751 206.377,190.351 205.031,190.351 C205.031,190.351 186.977,190.351 186.977,190.351 C186.977,190.351 150.076,190.351 150.076,190.351 C148.729,190.351 147.637,189.751 147.637,189.011 C147.637,188.270 148.729,187.671 150.076,187.671 C150.076,187.671 154.246,187.671 154.246,187.671 C155.593,187.671 156.685,187.069 156.685,186.329 C156.685,185.588 155.593,184.989 154.246,184.989 C154.246,184.989 134.403,184.989 134.403,184.989 C133.055,184.989 131.963,184.388 131.963,183.647 C131.963,182.908 133.055,182.306 134.403,182.306 C134.403,182.306 139.092,182.306 139.092,182.306 C139.092,182.306 183.345,182.306 183.345,182.306 Z" id="path-3" class="cls-3" fill-rule="evenodd"/>
    <path d="M130.345,191.802 C132.859,191.802 134.897,191.305 134.897,190.693 C134.897,190.079 132.859,189.582 130.345,189.582 C130.345,189.582 116.397,189.582 116.397,189.582 C113.884,189.582 111.846,190.079 111.846,190.693 C111.846,191.305 113.884,191.802 116.397,191.802 C116.397,191.802 130.345,191.802 130.345,191.802 Z" id="path-4" class="cls-3" fill-rule="evenodd"/>
    <path d="M177.224,191.281 C175.844,191.281 174.524,190.498 173.913,189.174 C173.913,189.174 164.442,168.621 164.442,168.621 C163.607,166.811 164.414,164.672 166.242,163.846 C168.061,163.019 170.227,163.817 171.063,165.628 C171.063,165.628 180.534,186.179 180.534,186.179 C181.368,187.989 180.562,190.128 178.733,190.955 C178.244,191.177 177.731,191.281 177.224,191.281 Z" id="path-5" class="cls-7" fill-rule="evenodd"/>
    <path d="M62.534,191.281 C62.028,191.281 61.515,191.177 61.026,190.955 C59.197,190.128 58.391,187.989 59.226,186.179 C59.226,186.179 68.694,165.628 68.694,165.628 C69.528,163.817 71.690,163.018 73.515,163.846 C75.343,164.672 76.150,166.811 75.315,168.621 C75.315,168.621 65.846,189.174 65.846,189.174 C65.235,190.498 63.915,191.281 62.534,191.281 Z" id="path-6" class="cls-7" fill-rule="evenodd"/>
    <path d="M214.817,91.082 C214.817,141.388 173.652,182.170 122.871,182.170 C72.090,182.170 30.924,141.388 30.924,91.082 C30.924,40.777 72.090,-0.005 122.871,-0.005 C173.652,-0.005 214.817,40.777 214.817,91.082 Z" id="path-7" class="cls-3" fill-rule="evenodd"/>
    <path d="M192.020,91.082 C192.020,128.917 161.061,159.586 122.871,159.586 C84.680,159.586 53.721,128.917 53.721,91.082 C53.721,53.248 84.680,22.579 122.871,22.579 C161.061,22.579 192.020,53.248 192.020,91.082 Z" id="path-8" class="cls-10" fill-rule="evenodd"/>
    <path d="M166.194,91.082 C166.194,114.785 146.798,134.001 122.871,134.001 C98.944,134.001 79.547,114.785 79.547,91.082 C79.547,67.379 98.944,48.165 122.871,48.165 C146.798,48.165 166.194,67.379 166.194,91.082 Z" id="path-9" class="cls-3" fill-rule="evenodd"/>
    <path d="M142.002,91.082 C142.002,101.550 133.436,110.035 122.871,110.035 C112.305,110.035 103.739,101.550 103.739,91.082 C103.739,80.616 112.305,72.130 122.871,72.130 C133.436,72.130 142.002,80.616 142.002,91.082 Z" id="path-10" class="cls-10" fill-rule="evenodd"/>
    <path d="M150.800,4.288 C170.646,20.996 183.253,45.888 183.253,73.710 C183.253,124.017 142.086,164.798 91.305,164.798 C81.566,164.798 72.186,163.285 63.377,160.506 C79.415,174.007 100.175,182.170 122.871,182.170 C173.652,182.170 214.817,141.388 214.817,91.082 C214.817,50.425 187.922,16.001 150.800,4.288 Z" id="path-11" class="cls-13" fill-rule="evenodd"/>
  </g>
</svg>
