<svg xmlns="http://www.w3.org/2000/svg" xmlns:xlink="http://www.w3.org/1999/xlink" preserveAspectRatio="xMidYMid" width="218" height="203" viewBox="0 0 218 203">
  <defs>
    <style>

      .cls-3 {
        fill: #ff3a2f;
      }

      .cls-4 {
        fill: #142a3b;
      }

      .cls-6 {
        fill: #2476ff;
      }

      .cls-7 {
        fill: #000000;
        opacity: 0.35;
      }
    </style>
  </defs>
  <g id="group-24svg">
    <path d="M79.347,91.224 C77.337,91.224 75.708,89.610 75.708,87.619 C75.708,87.619 75.708,69.858 75.708,69.858 C75.708,54.543 88.286,42.082 103.746,42.082 C103.746,42.082 157.885,42.082 157.885,42.082 C169.260,42.082 178.526,32.973 178.643,21.732 C178.643,21.732 158.196,21.732 158.196,21.732 C156.186,21.732 154.557,20.118 154.557,18.128 C154.557,16.137 156.186,14.523 158.196,14.523 C158.196,14.523 185.922,14.523 185.922,14.523 C185.922,14.523 185.922,21.516 185.922,21.516 C185.922,36.831 173.345,49.291 157.885,49.291 C157.885,49.291 103.746,49.291 103.746,49.291 C92.298,49.291 82.986,58.517 82.986,69.858 C82.986,69.858 82.986,87.619 82.986,87.619 C82.986,89.610 81.357,91.224 79.347,91.224 Z" id="path-1" class="cls-3" fill-rule="evenodd"/>
    <path d="M95.345,190.346 C95.345,190.346 59.807,190.346 59.807,190.346 C59.807,190.346 59.807,87.619 59.807,87.619 C59.807,87.619 95.345,87.619 95.345,87.619 C95.345,87.619 95.345,190.346 95.345,190.346 Z" id="path-2" class="cls-4" fill-rule="evenodd"/>
    <path d="M18.048,21.732 C18.048,21.732 5.508,21.732 5.508,21.732 C3.499,21.732 1.870,20.118 1.870,18.128 C1.870,16.137 3.499,14.523 5.508,14.523 C5.508,14.523 18.048,14.523 18.048,14.523 C20.057,14.523 21.686,16.137 21.686,18.128 C21.686,20.118 20.057,21.732 18.048,21.732 Z" id="path-3" class="cls-3" fill-rule="evenodd"/>
    <path d="M159.232,36.256 C159.232,36.256 18.048,36.256 18.048,36.256 C18.048,36.256 18.048,-0.001 18.048,-0.001 C18.048,-0.001 159.232,-0.001 159.232,-0.001 C159.232,-0.001 159.232,36.256 159.232,36.256 Z" id="path-4" class="cls-6" fill-rule="evenodd"/>
    <path d="M159.232,36.256 C159.232,36.256 18.048,36.256 18.048,36.256 C18.048,36.256 18.048,21.584 18.048,21.584 C18.048,21.584 159.232,21.584 159.232,21.584 C159.232,21.584 159.232,36.256 159.232,36.256 Z" id="path-5" class="cls-7" fill-rule="evenodd"/>
    <path d="M87.736,202.431 C87.736,202.431 67.415,202.431 67.415,202.431 C67.415,202.431 67.415,190.346 67.415,190.346 C67.415,190.346 87.736,190.346 87.736,190.346 C87.736,190.346 87.736,202.431 87.736,202.431 Z" id="path-6" class="cls-3" fill-rule="evenodd"/>
    <path d="M35.535,154.540 C40.366,154.540 44.282,152.083 44.282,149.050 C44.282,146.018 40.366,143.561 35.535,143.561 C35.535,143.561 8.733,143.561 8.733,143.561 C3.903,143.561 -0.013,146.018 -0.013,149.050 C-0.013,152.083 3.903,154.540 8.733,154.540 C8.733,154.540 35.535,154.540 35.535,154.540 Z" id="path-7" class="cls-6" fill-rule="evenodd"/>
    <path d="M95.667,161.886 C95.667,161.886 160.660,161.886 160.660,161.886 C160.660,161.886 177.362,161.886 177.362,161.886 C180.582,161.886 183.193,163.524 183.193,165.545 C183.193,167.566 180.582,169.205 177.362,169.205 C177.362,169.205 176.585,169.205 176.585,169.205 C173.364,169.205 170.754,170.844 170.754,172.865 C170.754,174.886 173.364,176.524 176.585,176.524 C176.585,176.524 212.489,176.524 212.489,176.524 C215.709,176.524 218.320,178.163 218.320,180.185 C218.320,182.205 215.709,183.844 212.489,183.844 C212.489,183.844 169.341,183.844 169.341,183.844 C169.341,183.844 121.918,183.844 121.918,183.844 C118.698,183.844 116.087,182.205 116.087,180.185 C116.087,178.163 118.698,176.524 121.918,176.524 C121.918,176.524 131.882,176.524 131.882,176.524 C135.102,176.524 137.712,174.886 137.712,172.865 C137.712,170.844 135.102,169.205 131.882,169.205 C131.882,169.205 84.459,169.205 84.459,169.205 C81.238,169.205 78.628,167.566 78.628,165.545 C78.628,163.524 81.238,161.886 84.459,161.886 C84.459,161.886 95.667,161.886 95.667,161.886 C95.667,161.886 95.667,161.886 95.667,161.886 Z" id="path-8" class="cls-6" fill-rule="evenodd"/>
    <path d="M43.456,69.963 C43.456,69.963 43.456,78.308 43.456,78.308 C43.456,79.917 41.216,81.221 38.452,81.221 C35.689,81.221 33.449,79.917 33.449,78.308 C33.449,78.308 33.449,77.919 33.449,77.919 C33.449,76.311 31.209,75.006 28.446,75.006 C25.683,75.006 23.443,76.311 23.443,77.919 C23.443,77.919 23.443,95.859 23.443,95.859 C23.443,97.467 21.203,98.772 18.439,98.772 C15.676,98.772 13.436,97.467 13.436,95.859 C13.436,95.859 13.436,74.300 13.436,74.300 C13.436,74.300 13.436,50.604 13.436,50.604 C13.436,48.997 15.676,47.691 18.439,47.691 C21.203,47.691 23.443,48.997 23.443,50.604 C23.443,50.604 23.443,55.584 23.443,55.584 C23.443,57.193 25.683,58.498 28.446,58.498 C31.209,58.498 33.449,57.193 33.449,55.584 C33.449,55.584 33.449,31.888 33.449,31.888 C33.449,30.280 35.689,28.975 38.452,28.975 C41.216,28.975 43.456,30.280 43.456,31.888 C43.456,31.888 43.456,37.488 43.456,37.488 C43.456,37.488 43.456,69.963 43.456,69.963 Z" id="path-9" class="cls-6" fill-rule="evenodd"/>
  </g>
</svg>
