<svg xmlns="http://www.w3.org/2000/svg" xmlns:xlink="http://www.w3.org/1999/xlink" preserveAspectRatio="xMidYMid" width="219" height="219" viewBox="0 0 219 219">
  <defs>
    <style>

      .cls-3 {
        fill: #142a3b;
      }

      .cls-5 {
        fill: #020403;
        opacity: 0.35;
      }

      .cls-6 {
        fill: #ff3a2f;
      }

      .cls-11 {
        fill: #ffe56d;
      }

      .cls-13 {
        fill: #ffffff;
      }

      .cls-16 {
        fill: #ddc100;
      }
    </style>
  </defs>
  <g id="group-46svg">
    <path d="M149.931,181.277 C149.931,181.277 112.392,130.968 112.392,130.968 C112.392,130.968 109.440,133.130 109.440,133.130 C109.440,133.130 126.305,155.731 126.305,155.731 C126.305,155.731 67.384,155.731 67.384,155.731 C67.384,155.731 84.249,133.130 84.249,133.130 C84.249,133.130 81.297,130.968 81.297,130.968 C81.297,130.968 27.565,202.976 27.565,202.976 C27.565,202.976 30.517,205.138 30.517,205.138 C30.517,205.138 64.312,159.848 64.312,159.848 C64.312,159.848 64.312,159.849 64.312,159.849 C64.312,159.849 129.377,159.849 129.377,159.849 C129.377,159.849 146.979,183.438 146.979,183.438 C146.979,183.438 149.931,181.277 149.931,181.277 Z" id="path-1" class="cls-3" fill-rule="evenodd"/>
    <path d="M97.810,142.964 C66.988,142.964 42.002,118.212 42.002,87.679 C42.002,87.679 153.619,87.679 153.619,87.679 C153.619,118.212 128.633,142.964 97.810,142.964 Z" id="path-2" class="cls-3" fill-rule="evenodd"/>
    <path d="M42.002,87.678 C42.002,91.381 42.385,91.389 43.085,94.887 C43.085,94.887 128.148,102.097 128.148,102.097 C128.148,119.930 119.589,132.140 106.360,142.250 C133.113,138.163 153.620,115.324 153.620,87.678 C153.620,87.678 42.002,87.678 42.002,87.678 Z" id="path-3" class="cls-5" fill-rule="evenodd"/>
    <path d="M163.167,90.220 C163.167,90.220 32.455,90.220 32.455,90.220 C30.444,90.220 28.816,88.606 28.816,86.615 C28.816,84.624 30.444,83.010 32.455,83.010 C32.455,83.010 163.167,83.010 163.167,83.010 C165.177,83.010 166.806,84.624 166.806,86.615 C166.806,88.606 165.177,90.220 163.167,90.220 Z" id="path-4" class="cls-6" fill-rule="evenodd"/>
    <path d="M141.714,199.627 C145.633,207.864 155.551,211.395 163.866,207.513 C172.181,203.631 175.745,193.806 171.826,185.568 C167.907,177.330 157.990,173.800 149.675,177.681 C141.359,181.564 137.794,191.389 141.714,199.627 ZM153.267,185.234 C157.372,183.318 162.268,185.061 164.202,189.127 C166.137,193.194 164.377,198.043 160.273,199.961 C156.169,201.876 151.272,200.133 149.338,196.068 C147.403,192.001 149.163,187.151 153.267,185.234 Z" id="path-5" class="cls-6" fill-rule="evenodd"/>
    <path d="M14.031,209.091 C14.031,209.091 46.190,209.091 46.190,209.091 C46.190,209.091 46.190,202.176 46.190,202.176 C46.190,202.176 14.031,202.176 14.031,202.176 C14.031,202.176 14.031,209.091 14.031,209.091 Z" id="path-6" class="cls-6" fill-rule="evenodd"/>
    <path d="M133.384,24.111 C131.768,22.939 130.071,21.854 128.310,20.850 C129.225,15.827 127.049,11.079 123.073,9.909 C123.073,9.909 112.917,6.921 112.917,6.921 C108.877,5.732 104.357,8.639 102.403,13.477 C100.374,13.404 98.352,13.436 96.349,13.583 C96.349,13.583 98.027,7.986 98.027,7.986 C99.684,2.464 104.599,-1.006 108.951,0.275 C108.951,0.275 130.057,6.486 130.057,6.486 C134.410,7.766 136.617,13.332 134.960,18.854 C134.960,18.854 133.384,24.111 133.384,24.111 Z" id="path-7" class="cls-6" fill-rule="evenodd"/>
    <path d="M88.007,108.117 C89.543,108.575 91.116,108.947 92.715,109.241 C93.374,113.275 96.292,116.284 99.609,116.119 C99.609,116.119 108.079,115.697 108.079,115.697 C111.447,115.529 114.079,112.143 114.255,107.975 C115.807,107.495 117.323,106.938 118.797,106.299 C118.797,106.299 119.034,110.966 119.034,110.966 C119.267,115.572 116.488,119.488 112.857,119.669 C112.857,119.669 95.256,120.546 95.256,120.546 C91.626,120.726 88.464,117.106 88.230,112.501 C88.230,112.501 88.007,108.117 88.007,108.117 Z" id="path-8" class="cls-5" fill-rule="evenodd"/>
    <path d="M84.369,100.908 C85.904,101.366 87.477,101.738 89.076,102.031 C89.735,106.064 92.653,109.074 95.971,108.910 C95.971,108.910 104.440,108.487 104.440,108.487 C107.809,108.319 110.440,104.933 110.616,100.765 C112.167,100.285 113.685,99.727 115.158,99.089 C115.158,99.089 115.394,103.757 115.394,103.757 C115.628,108.362 112.850,112.279 109.219,112.459 C109.219,112.459 91.616,113.336 91.616,113.336 C87.987,113.517 84.825,109.896 84.592,105.291 C84.592,105.291 84.369,100.908 84.369,100.908 Z" id="path-9" class="cls-11" fill-rule="evenodd"/>
    <path d="M118.463,16.418 C147.628,26.294 163.190,57.722 153.221,86.615 C153.221,86.615 47.603,50.852 47.603,50.852 C57.573,21.959 89.297,6.542 118.463,16.418 Z" id="path-10" class="cls-3" fill-rule="evenodd"/>
    <path d="M61.023,42.202 C60.600,42.202 60.177,42.057 59.836,41.764 C59.071,41.114 58.990,39.975 59.643,39.222 C67.423,30.294 78.063,23.829 89.600,21.022 C90.588,20.784 91.563,21.377 91.800,22.343 C92.042,23.309 91.445,24.286 90.467,24.523 C79.657,27.154 69.686,33.210 62.401,41.578 C62.039,41.990 61.531,42.202 61.023,42.202 Z" id="path-11" class="cls-13" fill-rule="evenodd"/>
    <path d="M118.463,16.418 C114.604,15.112 110.704,14.277 106.814,13.828 C129.205,26.806 140.066,53.971 131.436,79.239 C131.436,79.239 153.221,86.615 153.221,86.615 C163.190,57.721 147.628,26.294 118.463,16.418 Z" id="path-12" class="cls-5" fill-rule="evenodd"/>
    <path d="M79.167,100.328 C79.167,100.328 79.167,103.365 79.167,103.365 C79.167,103.951 78.284,104.426 77.197,104.426 C76.109,104.426 75.226,103.951 75.226,103.365 C75.226,103.365 75.226,103.224 75.226,103.224 C75.226,102.639 74.344,102.163 73.256,102.163 C72.168,102.163 71.286,102.639 71.286,103.224 C71.286,103.224 71.286,109.754 71.286,109.754 C71.286,110.340 70.405,110.816 69.316,110.816 C68.228,110.816 67.347,110.340 67.347,109.754 C67.347,109.754 67.347,101.906 67.347,101.906 C67.347,101.906 67.347,93.281 67.347,93.281 C67.347,92.695 68.228,92.219 69.316,92.219 C70.405,92.219 71.286,92.695 71.286,93.281 C71.286,93.281 71.286,95.093 71.286,95.093 C71.286,95.679 72.168,96.154 73.256,96.154 C74.344,96.154 75.226,95.679 75.226,95.093 C75.226,95.093 75.226,86.467 75.226,86.467 C75.226,85.881 76.109,85.406 77.197,85.406 C78.284,85.406 79.167,85.881 79.167,86.467 C79.167,86.467 79.167,88.505 79.167,88.505 C79.167,88.505 79.167,100.328 79.167,100.328 Z" id="path-13" class="cls-5" fill-rule="evenodd"/>
    <path d="M25.631,136.394 C25.631,136.394 30.851,136.394 30.851,136.394 C31.858,136.394 32.674,137.269 32.674,138.346 C32.674,139.424 31.858,140.298 30.851,140.298 C30.851,140.298 30.608,140.298 30.608,140.298 C29.602,140.298 28.786,141.171 28.786,142.250 C28.786,143.328 29.602,144.201 30.608,144.201 C30.608,144.201 41.829,144.201 41.829,144.201 C42.836,144.201 43.652,145.075 43.652,146.152 C43.652,147.231 42.836,148.104 41.829,148.104 C41.829,148.104 28.345,148.104 28.345,148.104 C28.345,148.104 13.522,148.104 13.522,148.104 C12.516,148.104 11.700,147.231 11.700,146.152 C11.700,145.075 12.516,144.201 13.522,144.201 C13.522,144.201 16.637,144.201 16.637,144.201 C17.643,144.201 18.460,143.328 18.460,142.250 C18.460,141.171 17.643,140.298 16.637,140.298 C16.637,140.298 1.816,140.298 1.816,140.298 C0.810,140.298 -0.006,139.424 -0.006,138.346 C-0.006,137.269 0.810,136.394 1.816,136.394 C1.816,136.394 5.319,136.394 5.319,136.394 C5.319,136.394 25.631,136.394 25.631,136.394 Z" id="path-14" class="cls-16" fill-rule="evenodd"/>
    <path d="M161.843,202.176 C161.843,202.176 177.179,202.176 177.179,202.176 C180.137,202.176 182.533,203.343 182.533,204.780 C182.533,206.218 180.137,207.384 177.179,207.384 C177.179,207.384 176.466,207.384 176.466,207.384 C173.508,207.384 171.111,208.549 171.111,209.986 C171.111,211.424 173.508,212.590 176.466,212.590 C176.466,212.590 209.435,212.590 209.435,212.590 C212.392,212.590 214.789,213.755 214.789,215.192 C214.789,216.631 212.392,217.796 209.435,217.796 C209.435,217.796 169.814,217.796 169.814,217.796 C169.814,217.796 126.267,217.796 126.267,217.796 C123.310,217.796 120.913,216.631 120.913,215.192 C120.913,213.755 123.310,212.590 126.267,212.590 C126.267,212.590 135.418,212.590 135.418,212.590 C138.375,212.590 140.771,211.424 140.771,209.986 C140.771,208.549 138.375,207.384 135.418,207.384 C135.418,207.384 91.871,207.384 91.871,207.384 C88.913,207.384 86.516,206.218 86.516,204.780 C86.516,203.343 88.913,202.176 91.871,202.176 C91.871,202.176 102.162,202.176 102.162,202.176 C102.162,202.176 161.843,202.176 161.843,202.176 Z" id="path-15" class="cls-16" fill-rule="evenodd"/>
    <path d="M201.533,155.768 C201.533,155.768 206.580,155.768 206.580,155.768 C207.554,155.768 208.343,156.555 208.343,157.526 C208.343,158.496 207.554,159.284 206.580,159.284 C206.580,159.284 206.345,159.284 206.345,159.284 C205.373,159.284 204.584,160.070 204.584,161.041 C204.584,162.011 205.373,162.799 206.345,162.799 C206.345,162.799 217.197,162.799 217.197,162.799 C218.171,162.799 218.960,163.585 218.960,164.556 C218.960,165.527 218.171,166.314 217.197,166.314 C217.197,166.314 204.156,166.314 204.156,166.314 C204.156,166.314 189.823,166.314 189.823,166.314 C188.850,166.314 188.061,165.527 188.061,164.556 C188.061,163.585 188.850,162.799 189.823,162.799 C189.823,162.799 192.834,162.799 192.834,162.799 C193.808,162.799 194.597,162.011 194.597,161.041 C194.597,160.070 193.808,159.284 192.834,159.284 C192.834,159.284 178.501,159.284 178.501,159.284 C177.529,159.284 176.739,158.496 176.739,157.526 C176.739,156.555 177.529,155.768 178.501,155.768 C178.501,155.768 181.890,155.768 181.890,155.768 C181.890,155.768 201.533,155.768 201.533,155.768 Z" id="path-16" class="cls-6" fill-rule="evenodd"/>
    <path d="M75.527,100.328 C75.527,100.328 75.527,103.365 75.527,103.365 C75.527,103.951 74.646,104.426 73.558,104.426 C72.469,104.426 71.587,103.951 71.587,103.365 C71.587,103.365 71.587,103.224 71.587,103.224 C71.587,102.639 70.706,102.163 69.617,102.163 C68.529,102.163 67.647,102.639 67.647,103.224 C67.647,103.224 67.647,109.754 67.647,109.754 C67.647,110.340 66.765,110.816 65.678,110.816 C64.590,110.816 63.707,110.340 63.707,109.754 C63.707,109.754 63.707,101.906 63.707,101.906 C63.707,101.906 63.707,93.281 63.707,93.281 C63.707,92.695 64.590,92.219 65.678,92.219 C66.765,92.219 67.647,92.695 67.647,93.281 C67.647,93.281 67.647,95.093 67.647,95.093 C67.647,95.679 68.529,96.154 69.617,96.154 C70.706,96.154 71.587,95.679 71.587,95.093 C71.587,95.093 71.587,86.467 71.587,86.467 C71.587,85.881 72.469,85.406 73.558,85.406 C74.646,85.406 75.527,85.881 75.527,86.467 C75.527,86.467 75.527,88.505 75.527,88.505 C75.527,88.505 75.527,100.328 75.527,100.328 Z" id="path-17" class="cls-16" fill-rule="evenodd"/>
  </g>
</svg>
