<svg xmlns="http://www.w3.org/2000/svg" xmlns:xlink="http://www.w3.org/1999/xlink" preserveAspectRatio="xMidYMid" width="219" height="208" viewBox="0 0 219 208">
  <defs>
    <style>

      .cls-3 {
        fill: #0cb04a;
      }

      .cls-7 {
        fill: #0f1d27;
      }

      .cls-9 {
        fill: #ff3a2f;
      }

      .cls-11 {
        fill: #020403;
        opacity: 0.25;
      }

      .cls-13 {
        fill: #142a3b;
      }

      .cls-20 {
        fill: #fbb713;
      }

      .cls-22 {
        fill: #ffffff;
      }
    </style>
  </defs>
  <g id="group-10svg">
    <path d="M139.082,179.216 C139.082,179.216 151.196,179.216 151.196,179.216 C153.532,179.216 155.425,180.403 155.425,181.870 C155.425,183.336 153.532,184.523 151.196,184.523 C151.196,184.523 150.632,184.523 150.632,184.523 C148.296,184.523 146.403,185.712 146.403,187.178 C146.403,188.644 148.296,189.833 150.632,189.833 C150.632,189.833 176.673,189.833 176.673,189.833 C179.008,189.833 180.901,191.021 180.901,192.487 C180.901,193.953 179.008,195.141 176.673,195.141 C176.673,195.141 145.379,195.141 145.379,195.141 C145.379,195.141 110.984,195.141 110.984,195.141 C108.648,195.141 106.755,193.953 106.755,192.487 C106.755,191.021 108.648,189.833 110.984,189.833 C110.984,189.833 118.212,189.833 118.212,189.833 C120.547,189.833 122.440,188.644 122.440,187.178 C122.440,185.712 120.547,184.523 118.212,184.523 C118.212,184.523 83.816,184.523 83.816,184.523 C81.481,184.523 79.586,183.336 79.586,181.870 C79.586,180.403 81.481,179.216 83.816,179.216 C83.816,179.216 91.945,179.216 91.945,179.216 C91.945,179.216 139.082,179.216 139.082,179.216 Z" id="path-1" class="cls-3" fill-rule="evenodd"/>
    <path d="M37.023,179.215 C37.023,179.215 44.557,179.215 44.557,179.215 C46.009,179.215 47.188,180.403 47.188,181.870 C47.188,183.336 46.009,184.523 44.557,184.523 C44.557,184.523 44.206,184.523 44.206,184.523 C42.754,184.523 41.576,185.712 41.576,187.178 C41.576,188.643 42.754,189.832 44.206,189.832 C44.206,189.832 60.404,189.832 60.404,189.832 C61.857,189.832 63.035,191.021 63.035,192.486 C63.035,193.953 61.857,195.141 60.404,195.141 C60.404,195.141 40.939,195.141 40.939,195.141 C40.939,195.141 19.543,195.141 19.543,195.141 C18.092,195.141 16.914,193.953 16.914,192.486 C16.914,191.021 18.092,189.832 19.543,189.832 C19.543,189.832 24.039,189.832 24.039,189.832 C25.492,189.832 26.670,188.643 26.670,187.178 C26.670,185.712 25.492,184.523 24.039,184.523 C24.039,184.523 2.644,184.523 2.644,184.523 C1.192,184.523 0.014,183.336 0.014,181.870 C0.014,180.403 1.192,179.215 2.644,179.215 C2.644,179.215 7.701,179.215 7.701,179.215 C7.701,179.215 37.023,179.215 37.023,179.215 Z" id="path-2" class="cls-3" fill-rule="evenodd"/>
    <path d="M213.256,197.118 C216.067,197.118 218.347,195.335 218.347,193.136 C218.347,190.938 216.067,189.155 213.256,189.155 C213.256,189.155 197.655,189.155 197.655,189.155 C194.844,189.155 192.565,190.938 192.565,193.136 C192.565,195.335 194.844,197.118 197.655,197.118 C197.655,197.118 213.256,197.118 213.256,197.118 Z" id="path-3" class="cls-3" fill-rule="evenodd"/>
    <path d="M90.957,207.746 C94.460,207.746 97.300,205.963 97.300,203.764 C97.300,201.565 94.460,199.783 90.957,199.783 C90.957,199.783 71.518,199.783 71.518,199.783 C68.015,199.783 65.175,201.565 65.175,203.764 C65.175,205.963 68.015,207.746 71.518,207.746 C71.518,207.746 90.957,207.746 90.957,207.746 Z" id="path-4" class="cls-3" fill-rule="evenodd"/>
    <path d="M92.768,117.887 C92.768,117.887 81.360,117.887 81.360,117.887 C81.360,117.887 81.360,87.100 81.360,87.100 C81.360,87.100 92.768,87.100 92.768,87.100 C92.768,87.100 92.768,117.887 92.768,117.887 Z" id="path-5" class="cls-7" fill-rule="evenodd"/>
    <path d="M92.768,170.962 C92.768,170.962 81.360,170.962 81.360,170.962 C81.360,170.962 81.360,140.175 81.360,140.175 C81.360,140.175 92.768,140.175 92.768,140.175 C92.768,140.175 92.768,170.962 92.768,170.962 Z" id="path-6" class="cls-7" fill-rule="evenodd"/>
    <path d="M90.639,180.523 C90.639,180.523 152.794,180.523 152.794,180.523 C152.794,180.523 152.794,65.868 152.794,65.868 C152.794,48.865 138.880,35.081 121.717,35.081 C104.552,35.081 90.639,48.865 90.639,65.868 C90.639,65.868 90.639,180.523 90.639,180.523 Z" id="path-7" class="cls-9" fill-rule="evenodd"/>
    <path d="M19.205,180.523 C19.205,180.523 81.360,180.523 81.360,180.523 C81.360,180.523 81.360,65.868 81.360,65.868 C81.360,48.865 67.446,35.081 50.282,35.081 C33.119,35.081 19.205,48.865 19.205,65.868 C19.205,65.868 19.205,180.523 19.205,180.523 Z" id="path-8" class="cls-9" fill-rule="evenodd"/>
    <path d="M121.717,35.081 C119.254,35.081 116.870,35.394 114.573,35.931 C128.287,39.131 138.507,51.304 138.507,65.868 C138.507,65.868 138.507,180.523 138.507,180.523 C138.507,180.523 152.794,180.523 152.794,180.523 C152.794,180.523 152.794,65.868 152.794,65.868 C152.794,48.865 138.880,35.081 121.717,35.081 Z" id="path-9" class="cls-11" fill-rule="evenodd"/>
    <path d="M50.283,35.081 C47.820,35.081 45.436,35.394 43.140,35.931 C56.854,39.131 67.074,51.304 67.074,65.868 C67.074,65.868 67.074,180.523 67.074,180.523 C67.074,180.523 81.360,180.523 81.360,180.523 C81.360,180.523 81.360,65.868 81.360,65.868 C81.360,48.865 67.446,35.081 50.283,35.081 Z" id="path-10" class="cls-11" fill-rule="evenodd"/>
    <path d="M121.717,39.392 C119.706,39.392 118.079,37.778 118.079,35.787 C118.079,35.787 118.079,3.609 118.079,3.609 C118.079,1.618 119.706,0.004 121.717,0.004 C123.729,0.004 125.356,1.618 125.356,3.609 C125.356,3.609 125.356,35.787 125.356,35.787 C125.356,37.778 123.729,39.392 121.717,39.392 Z" id="path-11" class="cls-13" fill-rule="evenodd"/>
    <path d="M179.058,126.092 C177.047,126.092 175.419,124.478 175.419,122.487 C175.419,122.487 175.419,61.538 175.419,61.538 C175.419,40.454 158.106,23.303 136.824,23.303 C136.824,23.303 35.373,23.303 35.373,23.303 C33.361,23.303 31.734,21.689 31.734,19.698 C31.734,17.707 33.361,16.093 35.373,16.093 C35.373,16.093 136.824,16.093 136.824,16.093 C162.118,16.093 182.697,36.480 182.697,61.538 C182.697,61.538 182.697,122.487 182.697,122.487 C182.697,124.478 181.069,126.092 179.058,126.092 Z" id="path-12" class="cls-13" fill-rule="evenodd"/>
    <path d="M191.016,134.165 C191.016,140.615 185.739,145.843 179.228,145.843 C172.718,145.843 167.439,140.615 167.439,134.165 C167.439,127.716 172.718,122.488 179.228,122.488 C185.739,122.488 191.016,127.716 191.016,134.165 Z" id="path-13" class="cls-9" fill-rule="evenodd"/>
    <path d="M180.635,122.628 C182.630,124.720 183.872,127.523 183.872,130.627 C183.872,137.077 178.595,142.305 172.084,142.305 C171.603,142.305 171.144,142.220 170.678,142.165 C172.825,144.419 175.851,145.843 179.228,145.843 C185.739,145.843 191.016,140.615 191.016,134.165 C191.016,128.194 186.474,123.325 180.635,122.628 Z" id="path-14" class="cls-11" fill-rule="evenodd"/>
    <path d="M128.860,19.510 C128.860,23.614 125.502,26.941 121.359,26.941 C117.216,26.941 113.857,23.614 113.857,19.510 C113.857,15.405 117.216,12.078 121.359,12.078 C125.502,12.078 128.860,15.405 128.860,19.510 Z" id="path-15" class="cls-9" fill-rule="evenodd"/>
    <path d="M50.284,39.392 C48.272,39.392 46.644,37.778 46.644,35.787 C46.644,35.787 46.644,3.609 46.644,3.609 C46.644,1.618 48.272,0.004 50.284,0.004 C52.295,0.004 53.922,1.618 53.922,3.609 C53.922,3.609 53.922,35.787 53.922,35.787 C53.922,37.778 52.295,39.392 50.284,39.392 Z" id="path-16" class="cls-13" fill-rule="evenodd"/>
    <path d="M57.427,19.510 C57.427,23.614 54.068,26.941 49.925,26.941 C45.782,26.941 42.424,23.614 42.424,19.510 C42.424,15.405 45.782,12.078 49.925,12.078 C54.068,12.078 57.427,15.405 57.427,19.510 Z" id="path-17" class="cls-9" fill-rule="evenodd"/>
    <path d="M152.794,148.675 C152.794,148.675 90.639,148.675 90.639,148.675 C90.639,148.675 90.639,87.100 90.639,87.100 C90.639,87.100 152.794,87.100 152.794,87.100 C152.794,87.100 152.794,148.675 152.794,148.675 Z" id="path-18" class="cls-20" fill-rule="evenodd"/>
    <path d="M81.360,148.675 C81.360,148.675 19.205,148.675 19.205,148.675 C19.205,148.675 19.205,87.100 19.205,87.100 C19.205,87.100 81.360,87.100 81.360,87.100 C81.360,87.100 81.360,148.675 81.360,148.675 Z" id="path-19" class="cls-20" fill-rule="evenodd"/>
    <path d="M26.350,133.169 C24.338,133.169 22.711,131.555 22.711,129.564 C22.711,129.564 22.711,72.945 22.711,72.945 C22.711,61.301 28.588,50.536 38.432,44.151 C40.112,43.057 42.369,43.528 43.472,45.192 C44.569,46.857 44.100,49.092 42.419,50.182 C34.637,55.232 29.988,63.741 29.988,72.945 C29.988,72.945 29.988,129.564 29.988,129.564 C29.988,131.555 28.361,133.169 26.350,133.169 Z" id="path-20" class="cls-22" fill-rule="evenodd"/>
    <path d="M97.781,133.169 C95.769,133.169 94.142,131.555 94.142,129.564 C94.142,129.564 94.142,72.945 94.142,72.945 C94.142,61.302 100.019,50.538 109.867,44.151 C111.551,43.057 113.803,43.528 114.905,45.192 C116.002,46.857 115.534,49.092 113.853,50.182 C106.068,55.232 101.420,63.742 101.420,72.945 C101.420,72.945 101.420,129.564 101.420,129.564 C101.420,131.555 99.792,133.169 97.781,133.169 Z" id="path-21" class="cls-22" fill-rule="evenodd"/>
    <path d="M138.507,87.100 C138.507,87.100 138.507,148.675 138.507,148.675 C138.507,148.675 152.794,148.675 152.794,148.675 C152.794,148.675 152.794,87.100 152.794,87.100 C152.794,87.100 138.507,87.100 138.507,87.100 Z" id="path-22" class="cls-11" fill-rule="evenodd"/>
    <path d="M67.074,87.100 C67.074,87.100 67.074,148.675 67.074,148.675 C67.074,148.675 81.360,148.675 81.360,148.675 C81.360,148.675 81.360,87.100 81.360,87.100 C81.360,87.100 67.074,87.100 67.074,87.100 Z" id="path-23" class="cls-11" fill-rule="evenodd"/>
    <path d="M133.775,121.492 C133.775,121.492 108.950,121.492 108.950,121.492 C106.939,121.492 105.310,119.879 105.310,117.887 C105.310,115.896 106.939,114.283 108.950,114.283 C108.950,114.283 133.775,114.283 133.775,114.283 C135.787,114.283 137.413,115.896 137.413,117.887 C137.413,119.879 135.787,121.492 133.775,121.492 Z" id="path-24" class="cls-13" fill-rule="evenodd"/>
    <path d="M62.339,121.492 C62.339,121.492 37.515,121.492 37.515,121.492 C35.504,121.492 33.877,119.879 33.877,117.887 C33.877,115.896 35.504,114.283 37.515,114.283 C37.515,114.283 62.339,114.283 62.339,114.283 C64.351,114.283 65.979,115.896 65.979,117.887 C65.979,119.879 64.351,121.492 62.339,121.492 Z" id="path-25" class="cls-13" fill-rule="evenodd"/>
  </g>
</svg>
