<svg xmlns="http://www.w3.org/2000/svg" xmlns:xlink="http://www.w3.org/1999/xlink" preserveAspectRatio="xMidYMid" width="218" height="195" viewBox="0 0 218 195">
  <defs>
    <style>

      .cls-3 {
        fill: #ff3a2f;
      }

      .cls-4 {
        fill: #fbb713;
      }

      .cls-11 {
        fill: #a72720;
      }

      .cls-12 {
        fill: #000000;
        opacity: 0.25;
      }

      .cls-13 {
        fill: #ffffff;
      }
    </style>
  </defs>
  <g id="group-157svg">
    <path d="M94.402,0.012 C49.426,0.012 12.966,36.130 12.966,80.686 C12.966,125.241 49.426,161.360 94.402,161.360 C99.950,161.360 105.369,160.810 110.606,159.762 C110.727,149.206 119.305,140.676 129.945,140.496 C129.940,140.307 129.917,140.123 129.917,139.932 C129.917,129.159 138.732,120.426 149.608,120.426 C149.954,120.426 150.292,120.460 150.633,120.478 C150.326,119.111 150.159,117.692 150.159,116.235 C150.159,105.461 158.975,96.726 169.849,96.726 C171.320,96.726 172.749,96.899 174.128,97.201 C175.247,91.871 175.838,86.347 175.838,80.686 C175.838,36.130 139.378,0.012 94.402,0.012 ZM94.402,104.219 C81.282,104.219 70.646,93.683 70.646,80.686 C70.646,67.688 81.282,57.153 94.402,57.153 C107.522,57.153 118.158,67.688 118.158,80.686 C118.158,93.683 107.522,104.219 94.402,104.219 Z" id="path-1" class="cls-3" fill-rule="evenodd"/>
    <path d="M53.117,98.420 C53.117,98.420 60.769,98.420 60.769,98.420 C62.244,98.420 63.440,99.900 63.440,101.727 C63.440,103.553 62.244,105.034 60.769,105.034 C60.769,105.034 60.413,105.034 60.413,105.034 C58.938,105.034 57.741,106.513 57.741,108.339 C57.741,110.165 58.938,111.645 60.413,111.645 C60.413,111.645 76.861,111.645 76.861,111.645 C78.337,111.645 79.533,113.126 79.533,114.951 C79.533,116.777 78.337,118.258 76.861,118.258 C76.861,118.258 57.094,118.258 57.094,118.258 C57.094,118.258 35.368,118.258 35.368,118.258 C33.893,118.258 32.697,116.777 32.697,114.951 C32.697,113.126 33.893,111.645 35.368,111.645 C35.368,111.645 39.934,111.645 39.934,111.645 C41.409,111.645 42.605,110.165 42.605,108.339 C42.605,106.513 41.409,105.034 39.934,105.034 C39.934,105.034 18.207,105.034 18.207,105.034 C16.732,105.034 15.536,103.553 15.536,101.727 C15.536,99.900 16.732,98.420 18.207,98.420 C18.207,98.420 23.342,98.420 23.342,98.420 C23.342,98.420 53.117,98.420 53.117,98.420 Z" id="path-2" class="cls-4" fill-rule="evenodd"/>
    <path d="M70.929,25.274 C70.929,25.274 78.581,25.274 78.581,25.274 C80.056,25.274 81.252,26.755 81.252,28.581 C81.252,30.407 80.056,31.887 78.581,31.887 C78.581,31.887 78.225,31.887 78.225,31.887 C76.749,31.887 75.553,33.366 75.553,35.193 C75.553,37.019 76.749,38.499 78.225,38.499 C78.225,38.499 94.673,38.499 94.673,38.499 C96.149,38.499 97.345,39.978 97.345,41.805 C97.345,43.630 96.149,45.111 94.673,45.111 C94.673,45.111 74.906,45.111 74.906,45.111 C74.906,45.111 53.180,45.111 53.180,45.111 C51.705,45.111 50.509,43.630 50.509,41.805 C50.509,39.978 51.705,38.499 53.180,38.499 C53.180,38.499 57.745,38.499 57.745,38.499 C59.220,38.499 60.416,37.019 60.416,35.193 C60.416,33.366 59.220,31.887 57.745,31.887 C57.745,31.887 36.019,31.887 36.019,31.887 C34.543,31.887 33.348,30.407 33.348,28.581 C33.348,26.755 34.543,25.274 36.019,25.274 C36.019,25.274 41.154,25.274 41.154,25.274 C41.154,25.274 70.929,25.274 70.929,25.274 Z" id="path-3" class="cls-4" fill-rule="evenodd"/>
    <path d="M148.460,61.850 C148.460,61.850 156.112,61.850 156.112,61.850 C157.587,61.850 158.783,63.329 158.783,65.155 C158.783,66.981 157.587,68.461 156.112,68.461 C156.112,68.461 155.756,68.461 155.756,68.461 C154.280,68.461 153.085,69.942 153.085,71.768 C153.085,73.593 154.280,75.073 155.756,75.073 C155.756,75.073 172.205,75.073 172.205,75.073 C173.680,75.073 174.876,76.554 174.876,78.379 C174.876,80.206 173.680,81.686 172.205,81.686 C172.205,81.686 152.437,81.686 152.437,81.686 C152.437,81.686 130.711,81.686 130.711,81.686 C129.236,81.686 128.040,80.206 128.040,78.379 C128.040,76.554 129.236,75.073 130.711,75.073 C130.711,75.073 135.276,75.073 135.276,75.073 C136.752,75.073 137.947,73.593 137.947,71.768 C137.947,69.942 136.752,68.461 135.276,68.461 C135.276,68.461 113.550,68.461 113.550,68.461 C112.075,68.461 110.879,66.981 110.879,65.155 C110.879,63.329 112.075,61.850 113.550,61.850 C113.550,61.850 118.686,61.850 118.686,61.850 C118.686,61.850 148.460,61.850 148.460,61.850 Z" id="path-4" class="cls-4" fill-rule="evenodd"/>
    <path d="M48.868,174.035 C48.868,174.035 58.820,174.035 58.820,174.035 C60.739,174.035 62.294,175.516 62.294,177.341 C62.294,179.167 60.739,180.647 58.820,180.647 C58.820,180.647 58.357,180.647 58.357,180.647 C56.438,180.647 54.882,182.127 54.882,183.953 C54.882,185.778 56.438,187.259 58.357,187.259 C58.357,187.259 79.751,187.259 79.751,187.259 C81.669,187.259 83.225,188.739 83.225,190.566 C83.225,192.392 81.669,193.871 79.751,193.871 C79.751,193.871 54.041,193.871 54.041,193.871 C54.041,193.871 25.782,193.871 25.782,193.871 C23.863,193.871 22.308,192.392 22.308,190.566 C22.308,188.739 23.863,187.259 25.782,187.259 C25.782,187.259 31.720,187.259 31.720,187.259 C33.638,187.259 35.194,185.778 35.194,183.953 C35.194,182.127 33.638,180.647 31.720,180.647 C31.720,180.647 3.461,180.647 3.461,180.647 C1.543,180.647 -0.013,179.167 -0.013,177.341 C-0.013,175.516 1.543,174.035 3.461,174.035 C3.461,174.035 10.140,174.035 10.140,174.035 C10.140,174.035 48.868,174.035 48.868,174.035 Z" id="path-5" class="cls-4" fill-rule="evenodd"/>
    <path d="M187.717,172.930 C187.717,179.423 182.403,184.687 175.848,184.687 C169.294,184.687 163.981,179.423 163.981,172.930 C163.981,166.436 169.294,161.172 175.848,161.172 C182.403,161.172 187.717,166.436 187.717,172.930 Z" id="path-6" class="cls-3" fill-rule="evenodd"/>
    <path d="M117.096,188.656 C117.096,191.253 114.971,193.359 112.349,193.359 C109.728,193.359 107.602,191.253 107.602,188.656 C107.602,186.059 109.728,183.952 112.349,183.952 C114.971,183.952 117.096,186.059 117.096,188.656 Z" id="path-7" class="cls-4" fill-rule="evenodd"/>
    <path d="M218.320,144.623 C218.320,149.228 214.551,152.961 209.902,152.961 C205.253,152.961 201.484,149.228 201.484,144.623 C201.484,140.017 205.253,136.283 209.902,136.283 C214.551,136.283 218.320,140.017 218.320,144.623 Z" id="path-8" class="cls-3" fill-rule="evenodd"/>
    <path d="M93.684,42.892 C72.614,42.892 55.534,59.814 55.534,80.686 C55.534,101.558 72.614,118.480 93.684,118.480 C114.754,118.480 131.834,101.558 131.834,80.686 C131.834,59.814 114.754,42.892 93.684,42.892 ZM93.684,104.330 C80.502,104.330 69.817,93.744 69.817,80.686 C69.817,67.627 80.502,57.042 93.684,57.042 C106.866,57.042 117.552,67.627 117.552,80.686 C117.552,93.744 106.866,104.330 93.684,104.330 Z" id="path-9" class="cls-11" fill-rule="evenodd"/>
    <path d="M93.684,0.401 C77.078,0.401 61.644,5.356 48.792,13.845 C27.174,28.350 12.966,52.873 12.966,80.686 C12.966,108.499 27.174,133.023 48.792,147.528 C61.644,156.016 77.078,160.972 93.684,160.972 C99.512,160.972 105.191,160.350 110.669,159.192 C110.814,155.685 111.887,152.432 113.660,149.643 C107.307,151.445 100.621,152.469 93.684,152.469 C53.665,152.469 21.223,120.331 21.223,80.686 C21.223,41.040 53.665,8.902 93.684,8.902 C133.703,8.902 166.145,41.040 166.145,80.686 C166.145,86.559 165.355,92.235 164.012,97.698 C165.868,97.123 167.803,96.726 169.849,96.726 C170.942,96.726 172.003,96.848 173.045,97.020 C174.147,91.747 174.728,86.284 174.728,80.686 C174.728,36.345 138.443,0.401 93.684,0.401 Z" id="path-10" class="cls-12" fill-rule="evenodd"/>
    <path d="M32.192,84.290 C30.183,84.290 28.553,82.676 28.553,80.686 C28.553,67.048 32.795,54.014 40.819,42.993 C41.995,41.378 44.271,41.016 45.898,42.178 C47.528,43.341 47.897,45.594 46.721,47.210 C39.597,56.997 35.831,68.573 35.831,80.686 C35.831,82.676 34.202,84.290 32.192,84.290 Z" id="path-11" class="cls-13" fill-rule="evenodd"/>
  </g>
</svg>
