<svg xmlns="http://www.w3.org/2000/svg" xmlns:xlink="http://www.w3.org/1999/xlink" preserveAspectRatio="xMidYMid" width="219" height="208" viewBox="0 0 219 208">
  <defs>
    <style>

      .cls-3 {
        fill: #020403;
      }

      .cls-4 {
        fill: #ff3a2f;
      }

      .cls-5 {
        fill: #ffffff;
      }

      .cls-6 {
        fill: #020403;
        opacity: 0.25;
      }

      .cls-7 {
        fill: #fbb713;
      }
    </style>
  </defs>
  <g id="group-67svg">
    <path d="M98.736,39.109 C98.729,39.162 98.725,39.214 98.719,39.267 C98.805,39.319 98.898,39.358 98.982,39.413 C98.897,39.316 98.820,39.207 98.736,39.109 Z" id="path-1" class="cls-3" fill-rule="evenodd"/>
    <path d="M166.555,82.583 C165.830,82.228 165.080,81.986 164.324,81.826 C165.052,80.600 165.753,79.336 166.414,78.016 C168.722,73.400 166.816,67.806 162.159,65.521 C161.873,65.380 161.585,65.257 161.293,65.149 C161.604,64.623 161.929,64.117 162.226,63.575 C164.705,59.049 163.014,53.385 158.445,50.928 C157.825,50.595 157.184,50.344 156.531,50.159 C156.855,49.706 157.184,49.278 157.503,48.803 C160.376,44.513 159.192,38.726 154.862,35.880 C153.797,35.180 152.640,34.727 151.459,34.498 C151.840,33.725 152.212,32.923 152.569,32.085 C154.583,27.345 152.344,21.888 147.570,19.882 C146.295,18.600 144.659,17.639 142.761,17.196 C142.761,17.196 137.890,16.055 137.890,16.055 C137.890,16.055 137.750,16.022 137.513,15.981 C137.283,15.942 136.949,15.885 136.522,15.810 C136.113,15.741 135.637,15.652 135.131,15.553 C134.624,15.451 134.082,15.330 133.562,15.186 C133.046,15.047 131.677,14.100 131.440,13.096 C131.394,12.795 131.371,12.493 131.367,12.181 C131.354,10.957 131.686,9.666 132.270,8.620 C132.847,7.556 133.635,6.717 134.418,6.099 C135.201,5.474 135.985,5.062 136.645,4.810 C137.310,4.550 137.851,4.441 138.214,4.400 C138.580,4.356 138.756,4.379 138.741,4.376 C139.394,4.446 139.980,3.981 140.053,3.334 C140.127,2.687 137.287,1.722 136.483,1.534 C135.680,1.350 134.683,1.107 133.453,0.841 C132.247,0.587 130.817,0.320 129.086,0.146 C129.052,0.142 129.022,0.137 128.988,0.135 C127.225,-0.020 125.102,-0.079 122.746,0.370 C122.162,0.483 121.557,0.621 120.950,0.798 C120.337,0.968 119.735,1.193 119.117,1.438 C118.516,1.702 117.903,1.987 117.311,2.322 C117.018,2.488 116.720,2.663 116.438,2.851 C116.145,3.037 115.866,3.238 115.591,3.441 C113.351,5.084 111.572,7.347 110.420,9.742 C110.420,9.742 110.207,10.194 110.207,10.194 C110.207,10.194 110.194,10.224 110.194,10.224 C110.203,10.188 110.060,10.630 110.116,10.452 C110.116,10.452 110.101,10.488 110.101,10.488 C110.101,10.488 110.065,10.557 110.065,10.557 C110.065,10.557 109.997,10.697 109.997,10.697 C109.997,10.697 109.860,10.977 109.860,10.977 C109.860,10.977 109.630,11.605 109.630,11.605 C109.630,11.605 109.414,12.235 109.414,12.235 C109.414,12.235 109.235,12.785 109.235,12.785 C109.115,13.148 109.011,13.540 108.914,13.927 C108.521,15.488 108.255,17.247 108.268,19.154 C108.256,21.053 108.564,23.126 109.202,25.156 C109.855,27.183 110.853,29.156 112.101,30.848 C112.482,31.368 112.886,31.853 113.299,32.322 C111.808,31.358 110.043,30.776 108.130,30.776 C102.880,30.776 98.625,34.994 98.625,40.193 C98.625,43.152 100.011,45.778 102.162,47.505 C97.594,48.191 94.091,52.084 94.091,56.801 C94.091,59.882 95.587,62.614 97.900,64.333 C93.151,64.856 89.458,68.840 89.458,73.686 C89.458,76.331 90.579,78.704 92.352,80.415 C87.680,81.007 84.065,84.953 84.065,89.743 C84.065,93.265 86.020,96.324 88.909,97.940 C87.819,101.395 89.983,104.250 93.696,106.571 C93.696,106.571 129.086,106.571 129.086,106.571 C129.086,106.571 164.474,106.571 164.474,106.571 C164.474,106.642 164.471,106.713 164.471,106.783 C166.851,104.159 168.979,101.061 170.835,97.353 C173.144,92.738 171.215,84.872 166.555,82.583 Z" id="path-2" class="cls-4" fill-rule="evenodd"/>
    <path d="M99.643,101.546 C99.039,101.546 98.424,101.395 97.859,101.080 C93.730,98.771 91.164,94.426 91.164,89.743 C91.164,85.067 93.695,80.892 97.532,78.597 C96.892,77.057 96.559,75.397 96.559,73.687 C96.559,69.106 98.947,65.040 102.610,62.717 C101.686,60.916 101.189,58.902 101.189,56.801 C101.189,52.272 103.481,48.267 107.074,45.934 C106.193,44.172 105.723,42.216 105.723,40.193 C105.723,38.202 107.351,36.588 109.363,36.588 C111.373,36.588 113.001,38.202 113.001,40.193 C113.001,41.943 113.801,43.587 115.190,44.703 C115.190,44.703 121.604,49.843 121.604,49.843 C121.604,49.843 113.449,51.068 113.449,51.068 C110.609,51.494 108.467,53.959 108.467,56.801 C108.467,58.644 109.323,60.338 110.820,61.449 C110.820,61.449 118.172,66.910 118.172,66.910 C118.172,66.910 109.038,67.916 109.038,67.916 C106.072,68.242 103.837,70.723 103.837,73.687 C103.837,75.244 104.473,76.717 105.628,77.832 C105.628,77.832 111.028,83.041 111.028,83.041 C111.028,83.041 103.552,83.990 103.552,83.990 C100.638,84.360 98.442,86.832 98.442,89.743 C98.442,91.832 99.590,93.769 101.434,94.801 C103.186,95.779 103.805,97.979 102.816,99.713 C102.145,100.886 100.912,101.546 99.643,101.546 Z" id="path-3" class="cls-5" fill-rule="evenodd"/>
    <path d="M166.555,82.583 C165.830,82.228 165.080,81.986 164.324,81.826 C165.052,80.599 165.753,79.335 166.414,78.015 C168.722,73.400 166.816,67.805 162.159,65.521 C161.873,65.380 161.585,65.257 161.293,65.149 C161.604,64.623 161.929,64.117 162.226,63.575 C164.705,59.049 163.014,53.385 158.445,50.928 C157.825,50.595 157.184,50.344 156.531,50.159 C156.855,49.706 157.184,49.278 157.503,48.803 C160.376,44.513 159.192,38.726 154.862,35.880 C153.797,35.180 152.640,34.727 151.459,34.498 C151.840,33.725 152.212,32.923 152.569,32.084 C154.583,27.345 152.344,21.888 147.570,19.881 C146.295,18.600 144.659,17.639 142.761,17.196 C142.761,17.196 137.890,16.055 137.890,16.055 C137.890,16.055 137.750,16.022 137.513,15.981 C137.283,15.942 136.949,15.885 136.522,15.810 C136.113,15.740 135.637,15.652 135.131,15.553 C134.624,15.451 134.082,15.330 133.562,15.186 C133.046,15.047 131.677,14.100 131.440,13.096 C131.394,12.794 131.371,12.493 131.367,12.181 C131.354,10.957 131.686,9.666 132.270,8.619 C132.847,7.556 133.635,6.717 134.418,6.099 C135.201,5.473 135.985,5.062 136.645,4.810 C137.310,4.550 137.851,4.441 138.214,4.400 C138.580,4.356 138.756,4.379 138.741,4.376 C139.394,4.446 139.980,3.980 140.053,3.334 C140.127,2.687 137.287,1.722 136.483,1.534 C135.680,1.350 134.683,1.107 133.453,0.841 C132.247,0.587 130.817,0.320 129.086,0.146 C129.052,0.142 129.022,0.136 128.988,0.135 C127.225,-0.020 125.102,-0.079 122.746,0.370 C122.162,0.482 121.557,0.621 120.950,0.798 C120.337,0.968 119.735,1.193 119.117,1.438 C118.516,1.702 117.903,1.987 117.311,2.321 C117.018,2.488 116.720,2.663 116.438,2.851 C116.145,3.037 115.866,3.238 115.591,3.441 C114.196,4.463 113.008,5.741 112.011,7.126 C112.959,7.117 113.862,7.155 114.672,7.226 C114.705,7.228 114.735,7.233 114.770,7.237 C116.500,7.412 117.930,7.678 119.137,7.932 C120.367,8.198 121.363,8.441 122.166,8.625 C122.970,8.813 125.809,9.778 125.737,10.426 C125.663,11.071 125.078,11.538 124.424,11.468 C124.439,11.470 124.263,11.446 123.898,11.491 C123.536,11.532 122.993,11.641 122.328,11.901 C121.669,12.154 120.885,12.565 120.101,13.191 C119.317,13.810 118.530,14.648 117.954,15.711 C117.370,16.758 117.038,18.048 117.050,19.273 C117.055,19.584 117.078,19.886 117.124,20.188 C117.360,21.192 118.729,22.139 119.245,22.277 C119.766,22.422 120.306,22.541 120.813,22.644 C121.321,22.744 121.796,22.831 122.205,22.901 C122.631,22.976 122.966,23.034 123.196,23.073 C123.433,23.113 123.573,23.146 123.573,23.146 C123.573,23.146 128.444,24.288 128.444,24.288 C130.343,24.731 131.978,25.690 133.254,26.973 C138.027,28.980 140.266,34.437 138.252,39.175 C137.895,40.013 137.523,40.815 137.142,41.588 C138.324,41.818 139.480,42.271 140.544,42.972 C144.875,45.818 146.060,51.604 143.186,55.894 C142.867,56.370 142.538,56.797 142.214,57.250 C142.867,57.435 143.507,57.687 144.128,58.020 C148.697,60.477 150.389,66.140 147.909,70.666 C147.612,71.208 147.286,71.714 146.975,72.239 C147.268,72.349 147.556,72.472 147.842,72.612 C152.499,74.897 154.405,80.491 152.096,85.107 C151.435,86.428 150.735,87.691 150.007,88.919 C150.764,89.078 151.512,89.319 152.238,89.674 C156.898,91.964 158.827,99.829 156.517,104.444 C156.148,105.183 155.759,105.880 155.368,106.571 C155.368,106.571 164.474,106.571 164.474,106.571 C164.474,106.642 164.471,106.713 164.471,106.783 C166.851,104.159 168.979,101.061 170.835,97.352 C173.144,92.738 171.215,84.872 166.555,82.583 Z" id="path-4" class="cls-6" fill-rule="evenodd"/>
    <path d="M129.086,106.571 C129.086,106.571 93.696,106.571 93.696,106.571 C93.696,117.965 96.514,127.883 107.561,133.058 C107.561,133.058 112.928,183.662 112.928,183.662 C112.928,183.662 113.083,183.662 113.083,183.662 C113.083,189.945 120.247,195.038 129.086,195.038 C137.924,195.038 145.089,189.945 145.089,183.662 C145.089,183.662 145.245,183.662 145.245,183.662 C145.245,183.662 150.663,132.558 150.663,132.558 C160.823,127.295 164.426,117.728 164.471,106.783 C164.471,106.713 164.474,106.642 164.474,106.571 C164.474,106.571 129.086,106.571 129.086,106.571 Z" id="path-5" class="cls-7" fill-rule="evenodd"/>
    <path d="M123.822,187.268 C123.822,187.268 120.606,187.268 120.606,187.268 C120.606,187.268 120.055,184.106 120.055,184.106 C120.055,184.106 113.403,130.856 113.403,130.856 C104.188,128.144 100.212,121.973 100.212,110.681 C100.212,108.690 101.840,107.076 103.851,107.076 C105.862,107.076 107.490,108.690 107.490,110.681 C107.490,120.553 110.848,123.059 117.458,124.438 C117.458,124.438 119.999,124.967 119.999,124.967 C119.999,124.967 127.191,182.528 127.191,182.528 C127.315,182.884 127.383,183.266 127.383,183.663 C127.383,185.654 125.833,187.268 123.822,187.268 Z" id="path-6" class="cls-5" fill-rule="evenodd"/>
    <path d="M153.738,106.571 C153.738,106.642 153.733,106.713 153.733,106.783 C153.688,117.728 150.085,127.295 139.925,132.558 C139.925,132.558 134.508,183.662 134.508,183.662 C134.508,183.662 134.351,183.662 134.351,183.662 C134.351,188.599 129.900,192.761 123.717,194.334 C125.403,194.762 127.193,195.038 129.086,195.038 C137.924,195.038 145.089,189.945 145.089,183.662 C145.089,183.662 145.245,183.662 145.245,183.662 C145.245,183.662 150.663,132.558 150.663,132.558 C160.823,127.295 164.426,117.728 164.471,106.783 C164.471,106.713 164.474,106.642 164.474,106.571 C164.474,106.571 153.738,106.571 153.738,106.571 Z" id="path-7" class="cls-6" fill-rule="evenodd"/>
    <path d="M116.011,183.977 C116.011,183.977 131.542,183.977 131.542,183.977 C134.537,183.977 136.964,185.500 136.964,187.379 C136.964,189.259 134.537,190.783 131.542,190.783 C131.542,190.783 130.818,190.783 130.818,190.783 C127.824,190.783 125.397,192.306 125.397,194.187 C125.397,196.065 127.824,197.589 130.818,197.589 C130.818,197.589 164.207,197.589 164.207,197.589 C167.201,197.589 169.629,199.113 169.629,200.993 C169.629,202.873 167.201,204.396 164.207,204.396 C164.207,204.396 124.083,204.396 124.083,204.396 C124.083,204.396 79.983,204.396 79.983,204.396 C76.989,204.396 74.561,202.873 74.561,200.993 C74.561,199.113 76.989,197.589 79.983,197.589 C79.983,197.589 89.250,197.589 89.250,197.589 C92.244,197.589 94.671,196.065 94.671,194.187 C94.671,192.306 92.244,190.783 89.250,190.783 C89.250,190.783 45.150,190.783 45.150,190.783 C42.155,190.783 39.728,189.259 39.728,187.379 C39.728,185.500 42.155,183.977 45.150,183.977 C45.150,183.977 55.573,183.977 55.573,183.977 C55.573,183.977 116.011,183.977 116.011,183.977 Z" id="path-8" class="cls-4" fill-rule="evenodd"/>
    <path d="M24.558,151.884 C24.558,151.884 29.558,151.884 29.558,151.884 C30.522,151.884 31.305,152.722 31.305,153.753 C31.305,154.785 30.522,155.623 29.558,155.623 C29.558,155.623 29.326,155.623 29.326,155.623 C28.362,155.623 27.580,156.459 27.580,157.491 C27.580,158.524 28.362,159.362 29.326,159.362 C29.326,159.362 40.075,159.362 40.075,159.362 C41.040,159.362 41.820,160.199 41.820,161.231 C41.820,162.264 41.040,163.100 40.075,163.100 C40.075,163.100 27.157,163.100 27.157,163.100 C27.157,163.100 12.959,163.100 12.959,163.100 C11.995,163.100 11.213,162.264 11.213,161.231 C11.213,160.199 11.995,159.362 12.959,159.362 C12.959,159.362 15.942,159.362 15.942,159.362 C16.906,159.362 17.687,158.524 17.687,157.491 C17.687,156.459 16.906,155.623 15.942,155.623 C15.942,155.623 1.744,155.623 1.744,155.623 C0.779,155.623 -0.002,154.785 -0.002,153.753 C-0.002,152.722 0.779,151.884 1.744,151.884 C1.744,151.884 5.099,151.884 5.099,151.884 C5.099,151.884 24.558,151.884 24.558,151.884 Z" id="path-9" class="cls-4" fill-rule="evenodd"/>
    <path d="M212.140,207.341 C215.558,207.341 218.330,205.600 218.330,203.455 C218.330,201.308 215.558,199.569 212.140,199.569 C212.140,199.569 193.169,199.569 193.169,199.569 C189.749,199.569 186.976,201.308 186.976,203.455 C186.976,205.600 189.749,207.341 193.169,207.341 C193.169,207.341 212.140,207.341 212.140,207.341 Z" id="path-10" class="cls-4" fill-rule="evenodd"/>
  </g>
</svg>
