<svg xmlns="http://www.w3.org/2000/svg" xmlns:xlink="http://www.w3.org/1999/xlink" preserveAspectRatio="xMidYMid" width="221" height="204" viewBox="0 0 221 204">
  <defs>
    <style>

      .cls-3 {
        fill: #142a3b;
      }

      .cls-4 {
        fill: #ff3a2f;
      }

      .cls-5 {
        fill: #020403;
        opacity: 0.35;
      }

      .cls-8 {
        fill: #ffffff;
      }

      .cls-9 {
        fill: #0cb04a;
      }
    </style>
  </defs>
  <g id="group-91svg">
    <path d="M100.501,48.359 C98.491,48.359 97.501,46.745 97.501,44.754 C97.501,44.754 97.501,17.887 97.501,17.887 C97.501,7.851 105.391,-0.010 115.887,-0.010 C117.896,-0.010 119.360,1.603 119.360,3.595 C119.360,5.586 117.340,7.199 115.331,7.199 C108.810,7.199 103.501,11.794 103.501,17.887 C103.501,17.887 103.501,44.754 103.501,44.754 C103.501,46.745 102.511,48.359 100.501,48.359 Z" id="path-1" class="cls-3" fill-rule="evenodd"/>
    <path d="M105.282,55.826 C108.406,55.826 111.457,56.108 114.468,56.513 C114.468,56.513 114.468,39.021 114.468,39.021 C114.468,39.021 88.996,39.021 88.996,39.021 C88.996,39.021 88.996,57.045 88.996,57.045 C88.996,57.045 92.575,57.045 92.575,57.045 C96.695,56.271 100.934,55.826 105.282,55.826 Z" id="path-2" class="cls-4" fill-rule="evenodd"/>
    <path d="M110.828,39.021 C110.828,39.021 110.828,49.303 110.828,49.303 C107.817,48.899 104.767,48.617 101.643,48.617 C97.316,48.617 93.098,49.060 88.996,49.828 C88.996,49.828 88.996,57.045 88.996,57.045 C88.996,57.045 92.575,57.045 92.575,57.045 C96.695,56.271 100.934,55.826 105.282,55.826 C108.406,55.826 111.457,56.108 114.468,56.513 C114.468,56.513 114.468,39.021 114.468,39.021 C114.468,39.021 110.828,39.021 110.828,39.021 Z" id="path-3" class="cls-5" fill-rule="evenodd"/>
    <path d="M173.135,121.364 C173.135,158.476 142.772,188.583 105.282,188.583 C67.808,188.583 37.430,158.476 37.430,121.364 C37.430,84.241 67.808,54.148 105.282,54.148 C142.772,54.148 173.135,84.241 173.135,121.364 Z" id="path-4" class="cls-3" fill-rule="evenodd"/>
    <path d="M121.119,55.720 C141.326,67.360 154.940,88.987 154.940,113.813 C154.940,150.923 124.578,181.031 87.088,181.031 C81.630,181.031 76.351,180.323 71.266,179.117 C81.275,184.884 92.870,188.241 105.282,188.241 C142.772,188.241 173.135,158.133 173.135,121.022 C173.135,89.308 150.949,62.794 121.119,55.720 Z" id="path-5" class="cls-5" fill-rule="evenodd"/>
    <path d="M56.669,117.760 C54.660,117.760 53.030,116.147 53.030,114.156 C53.030,91.576 71.572,73.208 94.366,73.208 C96.376,73.208 98.004,74.822 98.004,76.812 C98.004,78.803 96.376,80.417 94.366,80.417 C75.587,80.417 60.308,95.552 60.308,114.156 C60.308,116.147 58.679,117.760 56.669,117.760 Z" id="path-6" class="cls-8" fill-rule="evenodd"/>
    <path d="M160.674,182.036 C160.674,182.036 176.377,182.036 176.377,182.036 C179.405,182.036 181.860,183.384 181.860,185.048 C181.860,186.712 179.405,188.061 176.377,188.061 C176.377,188.061 175.646,188.061 175.646,188.061 C172.619,188.061 170.164,189.410 170.164,191.073 C170.164,192.738 172.619,194.086 175.646,194.086 C175.646,194.086 209.404,194.086 209.404,194.086 C212.432,194.086 214.886,195.435 214.886,197.099 C214.886,198.762 212.432,200.112 209.404,200.112 C209.404,200.112 168.836,200.112 168.836,200.112 C168.836,200.112 85.915,200.112 85.915,200.112 C82.887,200.112 80.433,198.762 80.433,197.099 C80.433,195.435 82.887,194.086 85.915,194.086 C85.915,194.086 95.284,194.086 95.284,194.086 C98.312,194.086 100.766,192.738 100.766,191.073 C100.766,189.410 98.312,188.061 95.284,188.061 C95.284,188.061 50.695,188.061 50.695,188.061 C47.668,188.061 45.213,186.712 45.213,185.048 C45.213,183.384 47.668,182.036 50.695,182.036 C50.695,182.036 61.234,182.036 61.234,182.036 C61.234,182.036 160.674,182.036 160.674,182.036 Z" id="path-7" class="cls-9" fill-rule="evenodd"/>
    <path d="M203.497,71.074 C203.497,71.074 208.316,71.074 208.316,71.074 C209.244,71.074 209.998,71.643 209.998,72.345 C209.998,73.046 209.244,73.616 208.316,73.616 C208.316,73.616 208.091,73.616 208.091,73.616 C207.162,73.616 206.409,74.184 206.409,74.885 C206.409,75.588 207.162,76.158 208.091,76.158 C208.091,76.158 218.449,76.158 218.449,76.158 C219.379,76.158 220.132,76.726 220.132,77.428 C220.132,78.130 219.379,78.699 218.449,78.699 C218.449,78.699 206.001,78.699 206.001,78.699 C206.001,78.699 180.558,78.699 180.558,78.699 C179.629,78.699 178.876,78.130 178.876,77.428 C178.876,76.726 179.629,76.158 180.558,76.158 C180.558,76.158 183.433,76.158 183.433,76.158 C184.362,76.158 185.115,75.588 185.115,74.885 C185.115,74.184 184.362,73.616 183.433,73.616 C183.433,73.616 169.751,73.616 169.751,73.616 C168.822,73.616 168.068,73.046 168.068,72.345 C168.068,71.643 168.822,71.074 169.751,71.074 C169.751,71.074 172.984,71.074 172.984,71.074 C172.984,71.074 203.497,71.074 203.497,71.074 Z" id="path-8" class="cls-9" fill-rule="evenodd"/>
    <path d="M41.578,203.372 C47.226,203.372 51.806,202.255 51.806,200.878 C51.806,199.500 47.226,198.383 41.578,198.383 C41.578,198.383 10.235,198.383 10.235,198.383 C4.586,198.383 0.007,199.500 0.007,200.878 C0.007,202.255 4.586,203.372 10.235,203.372 C10.235,203.372 41.578,203.372 41.578,203.372 Z" id="path-9" class="cls-9" fill-rule="evenodd"/>
  </g>
</svg>
