<svg xmlns="http://www.w3.org/2000/svg" xmlns:xlink="http://www.w3.org/1999/xlink" preserveAspectRatio="xMidYMid" width="219" height="213" viewBox="0 0 219 213">
  <defs>
    <style>

      .cls-3 {
        fill: #142a3b;
      }

      .cls-4 {
        fill: #020403;
        opacity: 0.35;
      }

      .cls-5 {
        fill: #fbb713;
      }

      .cls-6 {
        fill: #ffffff;
      }
    </style>
  </defs>
  <g id="group-106svg">
    <path d="M169.239,115.090 C169.239,115.090 53.246,115.090 53.246,115.090 C53.246,115.090 53.246,1.094 53.246,1.094 C53.246,1.094 169.239,1.094 169.239,1.094 C169.239,1.094 169.239,115.090 169.239,115.090 Z" id="path-1" class="cls-3" fill-rule="evenodd"/>
    <path d="M151.660,0.287 C151.660,0.287 151.660,69.559 151.660,69.559 C151.660,84.199 139.679,96.070 124.899,96.070 C124.899,96.070 53.007,102.912 53.007,102.912 C53.007,102.912 53.007,116.594 53.007,116.594 C53.007,116.594 169.451,116.314 169.451,116.314 C169.451,116.314 169.451,0.009 169.451,0.009 C169.451,0.009 151.660,0.287 151.660,0.287 Z" id="path-2" class="cls-4" fill-rule="evenodd"/>
    <path d="M140.356,58.162 C140.356,42.015 127.142,28.928 110.846,28.928 C94.549,28.928 81.336,42.015 81.336,58.162 C81.336,74.310 94.549,87.396 110.846,87.396 C127.142,87.396 140.356,74.310 140.356,58.162 Z" id="path-3" class="cls-5" fill-rule="evenodd"/>
    <path d="M113.863,81.170 C111.851,81.170 110.224,79.556 110.224,77.565 C110.224,75.575 111.851,73.961 113.863,73.961 C120.995,73.961 126.794,68.214 126.794,61.150 C126.794,59.160 128.421,57.545 130.433,57.545 C132.444,57.545 134.071,59.160 134.071,61.150 C134.071,72.190 125.006,81.170 113.863,81.170 Z" id="path-4" class="cls-6" fill-rule="evenodd"/>
    <path d="M84.789,64.516 C84.789,48.368 98.002,35.281 114.299,35.281 C124.438,35.281 133.380,40.351 138.692,48.068 C134.676,36.647 123.741,28.439 110.846,28.439 C94.549,28.439 81.335,41.526 81.335,57.674 C81.335,63.774 83.227,69.435 86.452,74.121 C85.393,71.108 84.789,67.885 84.789,64.516 Z" id="path-5" class="cls-4" fill-rule="evenodd"/>
    <path d="M213.118,123.090 C213.118,123.090 9.341,123.090 9.341,123.090 C6.328,123.090 3.883,120.576 3.883,117.590 C3.883,114.604 6.328,112.090 9.341,112.090 C9.341,112.090 213.118,112.090 213.118,112.090 C216.131,112.090 218.576,114.604 218.576,117.590 C218.576,120.576 216.131,123.090 213.118,123.090 Z" id="path-6" class="cls-3" fill-rule="evenodd"/>
    <path d="M111.242,212.975 C109.231,212.975 108.243,211.360 108.243,209.369 C108.243,209.369 108.243,119.247 108.243,119.247 C108.243,117.257 109.231,115.642 111.242,115.642 C113.254,115.642 114.242,117.257 114.242,119.247 C114.242,119.247 114.242,209.369 114.242,209.369 C114.242,211.360 113.254,212.975 111.242,212.975 Z" id="path-7" class="cls-3" fill-rule="evenodd"/>
    <path d="M59.855,173.088 C59.855,173.088 34.813,173.088 34.813,173.088 C32.802,173.088 31.174,171.578 31.174,169.588 C31.174,167.598 32.802,166.088 34.813,166.088 C34.813,166.088 55.597,166.088 55.597,166.088 C55.597,166.088 84.410,115.316 84.410,115.316 C85.394,113.580 87.612,112.970 89.368,113.945 C91.120,114.922 91.742,117.006 90.757,118.742 C90.757,118.742 59.855,173.088 59.855,173.088 Z" id="path-8" class="cls-3" fill-rule="evenodd"/>
    <path d="M187.646,173.088 C187.646,173.088 161.821,173.088 161.821,173.088 C161.821,173.088 131.311,118.727 131.311,118.727 C130.333,116.986 130.970,114.850 132.724,113.884 C134.487,112.918 136.694,113.564 137.672,115.304 C137.672,115.304 166.107,166.088 166.107,166.088 C166.107,166.088 187.646,166.088 187.646,166.088 C189.657,166.088 191.285,167.598 191.285,169.588 C191.285,171.578 189.657,173.088 187.646,173.088 Z" id="path-9" class="cls-3" fill-rule="evenodd"/>
    <path d="M74.815,196.945 C74.815,196.945 90.048,196.945 90.048,196.945 C92.986,196.945 95.366,198.004 95.366,199.311 C95.366,200.618 92.986,201.677 90.048,201.677 C90.048,201.677 89.340,201.677 89.340,201.677 C86.402,201.677 84.020,202.735 84.020,204.042 C84.020,205.348 86.402,206.407 89.340,206.407 C89.340,206.407 122.087,206.407 122.087,206.407 C125.024,206.407 127.405,207.466 127.405,208.772 C127.405,210.079 125.024,211.138 122.087,211.138 C122.087,211.138 82.732,211.138 82.732,211.138 C82.732,211.138 39.478,211.138 39.478,211.138 C36.541,211.138 34.160,210.079 34.160,208.772 C34.160,207.466 36.541,206.407 39.478,206.407 C39.478,206.407 48.566,206.407 48.566,206.407 C51.503,206.407 53.885,205.348 53.885,204.042 C53.885,202.735 51.503,201.677 48.566,201.677 C48.566,201.677 5.312,201.677 5.312,201.677 C2.375,201.677 -0.007,200.618 -0.007,199.311 C-0.007,198.004 2.375,196.945 5.312,196.945 C5.312,196.945 15.535,196.945 15.535,196.945 C15.535,196.945 74.815,196.945 74.815,196.945 Z" id="path-10" class="cls-5" fill-rule="evenodd"/>
    <path d="M169.101,213.186 C172.455,213.186 175.173,211.976 175.173,210.485 C175.173,208.992 172.455,207.784 169.101,207.784 C169.101,207.784 150.492,207.784 150.492,207.784 C147.139,207.784 144.420,208.992 144.420,210.485 C144.420,211.976 147.139,213.186 150.492,213.186 C150.492,213.186 169.101,213.186 169.101,213.186 Z" id="path-11" class="cls-5" fill-rule="evenodd"/>
    <path d="M183.506,175.696 C183.506,175.696 190.502,175.696 190.502,175.696 C191.850,175.696 192.943,176.296 192.943,177.037 C192.943,177.778 191.850,178.379 190.502,178.379 C190.502,178.379 190.175,178.379 190.175,178.379 C188.827,178.379 187.734,178.980 187.734,179.721 C187.734,180.462 188.827,181.064 190.175,181.064 C190.175,181.064 205.212,181.064 205.212,181.064 C206.561,181.064 207.655,181.664 207.655,182.405 C207.655,183.147 206.561,183.747 205.212,183.747 C205.212,183.747 187.142,183.747 187.142,183.747 C187.142,183.747 150.205,183.747 150.205,183.747 C148.857,183.747 147.764,183.147 147.764,182.405 C147.764,181.664 148.857,181.064 150.205,181.064 C150.205,181.064 154.379,181.064 154.379,181.064 C155.728,181.064 156.821,180.462 156.821,179.721 C156.821,178.980 155.728,178.379 154.379,178.379 C154.379,178.379 134.517,178.379 134.517,178.379 C133.169,178.379 132.075,177.778 132.075,177.037 C132.075,176.296 133.169,175.696 134.517,175.696 C134.517,175.696 139.212,175.696 139.212,175.696 C139.212,175.696 183.506,175.696 183.506,175.696 Z" id="path-12" class="cls-5" fill-rule="evenodd"/>
    <path d="M130.456,185.199 C132.971,185.199 135.012,184.703 135.012,184.089 C135.012,183.475 132.971,182.978 130.456,182.978 C130.456,182.978 116.494,182.978 116.494,182.978 C113.979,182.978 111.939,183.475 111.939,184.089 C111.939,184.703 113.979,185.199 116.494,185.199 C116.494,185.199 130.456,185.199 130.456,185.199 Z" id="path-13" class="cls-5" fill-rule="evenodd"/>
  </g>
</svg>
