<svg xmlns="http://www.w3.org/2000/svg" xmlns:xlink="http://www.w3.org/1999/xlink" preserveAspectRatio="xMidYMid" width="214" height="217" viewBox="0 0 214 217">
  <defs>
    <style>

      .cls-3 {
        fill: #fbb713;
      }

      .cls-6 {
        fill: #ff3a2f;
      }

      .cls-8 {
        fill: #2476ff;
      }

      .cls-9 {
        fill: #020403;
        opacity: 0.25;
      }

      .cls-11 {
        fill: #020403;
        opacity: 0.35;
      }

      .cls-13 {
        fill: #142a3b;
      }
    </style>
  </defs>
  <g id="group-43svg">
    <path d="M60.836,194.373 C60.836,194.373 73.225,194.373 73.225,194.373 C75.613,194.373 77.549,195.588 77.549,197.088 C77.549,198.586 75.613,199.802 73.225,199.802 C73.225,199.802 72.647,199.802 72.647,199.802 C70.260,199.802 68.322,201.018 68.322,202.515 C68.322,204.015 70.260,205.230 72.647,205.230 C72.647,205.230 99.277,205.230 99.277,205.230 C101.664,205.230 103.602,206.445 103.602,207.944 C103.602,209.443 101.664,210.658 99.277,210.658 C99.277,210.658 67.276,210.658 67.276,210.658 C67.276,210.658 32.103,210.658 32.103,210.658 C29.715,210.658 27.778,209.443 27.778,207.944 C27.778,206.445 29.715,205.230 32.103,205.230 C32.103,205.230 39.493,205.230 39.493,205.230 C41.882,205.230 43.818,204.015 43.818,202.515 C43.818,201.018 41.882,199.802 39.493,199.802 C39.493,199.802 4.321,199.802 4.321,199.802 C1.933,199.802 -0.004,198.586 -0.004,197.088 C-0.004,195.588 1.933,194.373 4.321,194.373 C4.321,194.373 12.634,194.373 12.634,194.373 C12.634,194.373 60.836,194.373 60.836,194.373 Z" id="path-1" class="cls-3" fill-rule="evenodd"/>
    <path d="M34.762,153.249 C34.762,153.249 40.002,153.249 40.002,153.249 C41.012,153.249 41.830,154.126 41.830,155.209 C41.830,156.290 41.012,157.167 40.002,157.167 C40.002,157.167 39.758,157.167 39.758,157.167 C38.747,157.167 37.929,158.044 37.929,159.125 C37.929,160.207 38.747,161.084 39.758,161.084 C39.758,161.084 51.021,161.084 51.021,161.084 C52.030,161.084 52.850,161.961 52.850,163.043 C52.850,164.125 52.030,165.002 51.021,165.002 C51.021,165.002 37.485,165.002 37.485,165.002 C37.485,165.002 22.608,165.002 22.608,165.002 C21.599,165.002 20.779,164.125 20.779,163.043 C20.779,161.961 21.599,161.084 22.608,161.084 C22.608,161.084 25.734,161.084 25.734,161.084 C26.745,161.084 27.563,160.207 27.563,159.125 C27.563,158.044 26.745,157.167 25.734,157.167 C25.734,157.167 10.857,157.167 10.857,157.167 C9.847,157.167 9.029,156.290 9.029,155.209 C9.029,154.126 9.847,153.249 10.857,153.249 C10.857,153.249 14.373,153.249 14.373,153.249 C14.373,153.249 34.762,153.249 34.762,153.249 Z" id="path-2" class="cls-3" fill-rule="evenodd"/>
    <path d="M141.893,216.298 C145.475,216.298 148.379,214.476 148.379,212.226 C148.379,209.978 145.475,208.155 141.893,208.155 C141.893,208.155 122.015,208.155 122.015,208.155 C118.432,208.155 115.528,209.978 115.528,212.226 C115.528,214.476 118.432,216.298 122.015,216.298 C122.015,216.298 141.893,216.298 141.893,216.298 Z" id="path-3" class="cls-3" fill-rule="evenodd"/>
    <path d="M145.370,0.006 C145.370,0.006 136.950,22.554 136.950,22.554 C136.950,22.554 156.629,29.765 156.629,29.765 C156.629,29.765 145.402,59.829 145.402,59.829 C145.402,59.829 152.990,62.609 152.990,62.609 C152.990,62.609 164.217,32.545 164.217,32.545 C164.217,32.545 183.895,39.757 183.895,39.757 C183.895,39.757 192.316,17.210 192.316,17.210 C192.316,17.210 145.370,0.006 145.370,0.006 ZM179.022,32.275 C179.022,32.275 145.300,19.919 145.300,19.919 C145.300,19.919 149.978,7.391 149.978,7.391 C149.978,7.391 183.700,19.749 183.700,19.749 C183.700,19.749 179.022,32.275 179.022,32.275 Z" id="path-4" class="cls-6" fill-rule="evenodd"/>
    <path d="M176.422,60.845 C172.586,60.845 169.077,62.104 166.355,64.187 C162.920,57.988 155.877,53.726 147.724,53.726 C137.174,53.726 128.475,60.853 127.073,70.098 C125.074,66.573 121.078,64.137 116.417,64.137 C114.068,64.137 111.892,64.774 110.041,65.833 C107.170,62.783 102.914,60.845 98.155,60.845 C89.510,60.845 82.502,67.219 82.502,75.082 C82.502,75.082 192.075,75.082 192.075,75.082 C192.075,67.219 185.068,60.845 176.422,60.845 Z" id="path-5" class="cls-3" fill-rule="evenodd"/>
    <path d="M190.100,195.382 C190.100,195.382 89.027,195.382 89.027,195.382 C89.027,195.382 89.027,97.309 89.027,97.309 C89.027,97.309 190.100,97.309 190.100,97.309 C190.100,97.309 190.100,195.382 190.100,195.382 Z" id="path-6" class="cls-8" fill-rule="evenodd"/>
    <path d="M89.027,97.309 C89.027,97.309 89.027,104.546 89.027,104.546 C89.027,104.546 168.185,111.782 168.185,111.782 C168.185,111.782 168.185,195.382 168.185,195.382 C168.185,195.382 190.100,195.382 190.100,195.382 C190.100,195.382 190.100,97.309 190.100,97.309 C190.100,97.309 89.027,97.309 89.027,97.309 Z" id="path-7" class="cls-9" fill-rule="evenodd"/>
    <path d="M199.524,97.309 C199.524,97.309 79.603,97.309 79.603,97.309 C79.603,97.309 79.603,72.562 79.603,72.562 C79.603,72.562 199.524,72.562 199.524,72.562 C199.524,72.562 199.524,97.309 199.524,97.309 Z" id="path-8" class="cls-8" fill-rule="evenodd"/>
    <path d="M144.201,190.551 C120.427,190.551 98.327,173.387 89.927,166.006 C88.424,164.685 88.288,162.406 89.621,160.917 C90.954,159.426 93.256,159.294 94.759,160.613 C100.826,165.944 122.322,183.341 144.201,183.341 C160.355,183.341 173.158,179.589 184.498,171.531 C186.140,170.367 188.403,170.743 189.576,172.359 C190.749,173.977 190.372,176.229 188.741,177.389 C176.279,186.246 161.708,190.551 144.201,190.551 Z" id="path-9" class="cls-11" fill-rule="evenodd"/>
    <path d="M177.609,72.562 C177.609,72.562 177.609,90.074 177.609,90.074 C177.609,90.074 79.603,90.074 79.603,90.074 C79.603,90.074 79.603,97.309 79.603,97.309 C79.603,97.309 199.524,97.309 199.524,97.309 C199.524,97.309 199.524,72.562 199.524,72.562 C199.524,72.562 177.609,72.562 177.609,72.562 Z" id="path-10" class="cls-9" fill-rule="evenodd"/>
    <path d="M198.502,127.252 C198.502,127.252 190.100,127.252 190.100,127.252 C190.100,127.252 190.100,105.254 190.100,105.254 C190.100,105.254 198.502,105.254 198.502,105.254 C198.502,105.254 198.502,127.252 198.502,127.252 Z" id="path-11" class="cls-13" fill-rule="evenodd"/>
    <path d="M89.653,127.600 C89.653,127.600 81.250,127.600 81.250,127.600 C81.250,127.600 81.250,105.603 81.250,105.603 C81.250,105.603 89.653,105.603 89.653,105.603 C89.653,105.603 89.653,127.600 89.653,127.600 Z" id="path-12" class="cls-13" fill-rule="evenodd"/>
    <path d="M140.548,179.696 C100.374,179.696 67.688,151.392 67.688,116.600 C67.688,116.600 67.688,112.905 67.688,112.905 C67.688,112.905 85.541,113.345 85.541,113.345 C85.541,113.345 85.365,120.553 85.365,120.553 C85.365,120.553 75.108,120.300 75.108,120.300 C77.351,149.397 105.844,172.487 140.548,172.487 C175.291,172.487 203.809,149.348 205.997,120.205 C205.997,120.205 192.624,120.205 192.624,120.205 C192.624,120.205 192.624,112.995 192.624,112.995 C192.624,112.995 213.410,112.995 213.410,112.995 C213.410,112.995 213.410,116.600 213.410,116.600 C213.410,151.392 180.724,179.696 140.548,179.696 Z" id="path-13" class="cls-13" fill-rule="evenodd"/>
  </g>
</svg>
