<svg xmlns="http://www.w3.org/2000/svg" xmlns:xlink="http://www.w3.org/1999/xlink" preserveAspectRatio="xMidYMid" width="219" height="191" viewBox="0 0 219 191">
  <defs>
    <style>

      .cls-3 {
        fill: #2476ff;
      }

      .cls-6 {
        fill: #142a3b;
      }

      .cls-7 {
        fill: #010101;
        opacity: 0.35;
      }

      .cls-8 {
        fill: #ff3a2f;
      }

      .cls-15 {
        fill: #000000;
        opacity: 0.25;
      }

      .cls-16 {
        fill: #fbb713;
      }
    </style>
  </defs>
  <g id="group-12svg">
    <path d="M185.859,175.229 C185.859,175.229 197.631,175.229 197.631,175.229 C199.901,175.229 201.741,176.242 201.741,177.491 C201.741,178.740 199.901,179.752 197.631,179.752 C197.631,179.752 197.083,179.752 197.083,179.752 C194.814,179.752 192.974,180.765 192.974,182.014 C192.974,183.263 194.814,184.276 197.083,184.276 C197.083,184.276 214.228,184.276 214.228,184.276 C216.498,184.276 218.338,185.288 218.338,186.538 C218.338,187.786 216.498,188.799 214.228,188.799 C214.228,188.799 191.978,188.799 191.978,188.799 C191.978,188.799 158.554,188.799 158.554,188.799 C156.283,188.799 154.444,187.786 154.444,186.538 C154.444,185.288 156.283,184.276 158.554,184.276 C158.554,184.276 165.576,184.276 165.576,184.276 C167.846,184.276 169.686,183.263 169.686,182.014 C169.686,180.765 167.846,179.752 165.576,179.752 C165.576,179.752 132.152,179.752 132.152,179.752 C129.881,179.752 128.042,178.740 128.042,177.491 C128.042,176.242 129.881,175.229 132.152,175.229 C132.152,175.229 140.051,175.229 140.051,175.229 C140.051,175.229 185.859,175.229 185.859,175.229 Z" id="path-1" class="cls-3" fill-rule="evenodd"/>
    <path d="M48.680,107.731 C48.680,107.731 58.591,107.731 58.591,107.731 C60.501,107.731 62.050,108.743 62.050,109.992 C62.050,111.241 60.501,112.254 58.591,112.254 C58.591,112.254 58.129,112.254 58.129,112.254 C56.218,112.254 54.669,113.267 54.669,114.515 C54.669,115.765 56.218,116.778 58.129,116.778 C58.129,116.778 72.563,116.778 72.563,116.778 C74.474,116.778 76.022,117.790 76.022,119.039 C76.022,120.288 74.474,121.301 72.563,121.301 C72.563,121.301 53.831,121.301 53.831,121.301 C53.831,121.301 25.691,121.301 25.691,121.301 C23.781,121.301 22.232,120.288 22.232,119.039 C22.232,117.790 23.781,116.778 25.691,116.778 C25.691,116.778 31.604,116.778 31.604,116.778 C33.515,116.778 35.064,115.765 35.064,114.515 C35.064,113.267 33.515,112.254 31.604,112.254 C31.604,112.254 3.465,112.254 3.465,112.254 C1.554,112.254 0.005,111.241 0.005,109.992 C0.005,108.743 1.554,107.731 3.465,107.731 C3.465,107.731 10.115,107.731 10.115,107.731 C10.115,107.731 48.680,107.731 48.680,107.731 Z" id="path-2" class="cls-3" fill-rule="evenodd"/>
    <path d="M135.977,190.736 C138.246,190.736 140.086,189.723 140.086,188.474 C140.086,187.225 138.246,186.212 135.977,186.212 C135.977,186.212 123.384,186.212 123.384,186.212 C121.114,186.212 119.274,187.225 119.274,188.474 C119.274,189.723 121.114,190.736 123.384,190.736 C123.384,190.736 135.977,190.736 135.977,190.736 Z" id="path-3" class="cls-3" fill-rule="evenodd"/>
    <path d="M123.920,41.658 C121.571,28.221 109.745,18.001 95.511,18.001 C79.586,18.001 66.676,30.790 66.676,46.566 C66.676,46.566 67.274,177.214 67.274,177.214 C67.274,177.214 51.345,177.214 51.345,177.214 C51.345,177.214 52.070,43.042 52.070,43.042 C52.070,19.274 71.519,0.008 95.511,0.008 C119.501,0.008 138.951,19.274 138.951,43.042 C138.951,43.042 138.951,43.042 138.951,43.042 " id="path-4" class="cls-6" fill-rule="evenodd"/>
    <path d="M138.796,40.006 C138.543,36.425 137.871,32.963 136.788,29.678 C135.472,29.263 134.098,28.980 132.644,28.980 C132.644,28.980 128.664,28.980 128.664,28.980 C125.474,28.980 122.574,30.097 120.239,31.900 C121.712,34.333 122.823,37.000 123.516,39.835 C125.828,39.375 128.204,39.089 130.653,39.089 C133.456,39.089 136.178,39.411 138.796,40.006 Z" id="path-5" class="cls-7" fill-rule="evenodd"/>
    <path d="M171.206,97.140 C171.206,97.140 90.101,97.140 90.101,97.140 C90.101,97.140 90.101,89.742 90.101,89.742 C90.101,89.742 171.206,89.742 171.206,89.742 C171.206,89.742 171.206,97.140 171.206,97.140 Z" id="path-6" class="cls-8" fill-rule="evenodd"/>
    <path d="M149.930,127.569 C149.930,123.567 157.246,114.515 157.246,114.515 C157.246,114.515 164.562,123.567 164.562,127.569 C164.562,131.571 161.286,134.817 157.246,134.817 C153.207,134.817 149.930,131.571 149.930,127.569 Z" id="path-7" class="cls-3" fill-rule="evenodd"/>
    <path d="M123.892,127.569 C123.892,123.567 131.208,114.515 131.208,114.515 C131.208,114.515 138.523,123.567 138.523,127.569 C138.523,131.571 135.248,134.817 131.208,134.817 C127.167,134.817 123.892,131.571 123.892,127.569 Z" id="path-8" class="cls-3" fill-rule="evenodd"/>
    <path d="M97.852,127.569 C97.852,123.567 105.168,114.515 105.168,114.515 C105.168,114.515 112.484,123.567 112.484,127.569 C112.484,131.571 109.209,134.817 105.168,134.817 C101.128,134.817 97.852,131.571 97.852,127.569 Z" id="path-9" class="cls-3" fill-rule="evenodd"/>
    <path d="M136.370,158.774 C136.370,155.726 141.941,148.834 141.941,148.834 C141.941,148.834 147.511,155.726 147.511,158.774 C147.511,161.823 145.018,164.293 141.941,164.293 C138.863,164.293 136.370,161.823 136.370,158.774 Z" id="path-10" class="cls-3" fill-rule="evenodd"/>
    <path d="M107.748,176.495 C107.748,173.447 113.319,166.554 113.319,166.554 C113.319,166.554 118.891,173.447 118.891,176.495 C118.891,179.543 116.396,182.013 113.319,182.013 C110.243,182.013 107.748,179.543 107.748,176.495 Z" id="path-11" class="cls-3" fill-rule="evenodd"/>
    <path d="M130.653,46.178 C136.304,46.178 141.637,47.471 146.425,49.719 C146.425,49.719 146.425,49.719 146.425,49.719 C146.425,42.180 140.255,36.068 132.644,36.068 C132.644,36.068 128.664,36.068 128.664,36.068 C121.053,36.068 114.882,42.180 114.882,49.719 C114.882,49.719 114.882,49.719 114.882,49.719 C119.671,47.472 125.003,46.178 130.653,46.178 Z" id="path-12" class="cls-8" fill-rule="evenodd"/>
    <path d="M114.882,49.719 C119.671,47.472 125.003,46.178 130.653,46.178 C136.304,46.178 141.637,47.471 146.425,49.719 C146.425,47.220 145.697,44.909 144.514,42.894 C144.514,42.894 116.794,42.894 116.794,42.894 C115.611,44.909 114.882,47.220 114.882,49.719 Z" id="path-13" class="cls-15" fill-rule="evenodd"/>
    <path d="M166.885,89.742 C167.328,87.479 167.577,85.147 167.577,82.755 C167.577,62.554 151.046,46.178 130.653,46.178 C110.262,46.178 93.731,62.554 93.731,82.755 C93.731,85.147 93.979,87.479 94.422,89.742 C94.422,89.742 166.885,89.742 166.885,89.742 Z" id="path-14" class="cls-16" fill-rule="evenodd"/>
    <path d="M93.755,86.775 C93.786,88.999 94.009,87.630 94.422,89.742 C94.422,89.742 166.885,89.742 166.885,89.742 C167.299,87.630 167.522,85.454 167.552,83.232 C167.552,83.232 93.755,86.775 93.755,86.775 Z" id="path-15" class="cls-15" fill-rule="evenodd"/>
  </g>
</svg>
