<svg xmlns="http://www.w3.org/2000/svg" xmlns:xlink="http://www.w3.org/1999/xlink" preserveAspectRatio="xMidYMid" width="203" height="217" viewBox="0 0 203 217">
  <defs>
    <style>

      .cls-3 {
        fill: #ededed;
      }

      .cls-4 {
        fill: #010101;
        opacity: 0.25;
      }

      .cls-5 {
        fill: #ff3a2f;
      }

      .cls-6 {
        fill: #ffffff;
      }

      .cls-7 {
        fill: #010101;
        opacity: 0.35;
      }

      .cls-8 {
        fill: #090909;
        opacity: 0.35;
      }

      .cls-10 {
        fill: #a72720;
      }

      .cls-12 {
        fill: #fbb713;
      }
    </style>
  </defs>
  <g id="group-142svg">
    <path d="M93.785,166.844 C93.785,173.042 88.792,178.058 82.636,178.058 C82.636,178.058 26.883,178.058 26.883,178.058 C20.722,178.058 15.732,173.042 15.732,166.844 C15.732,166.844 15.732,87.413 15.732,87.413 C15.732,81.216 20.722,76.200 26.883,76.200 C26.883,76.200 82.636,76.200 82.636,76.200 C88.792,76.200 93.785,81.216 93.785,87.413 C93.785,87.413 93.785,166.844 93.785,166.844 Z" id="path-1" class="cls-3" fill-rule="evenodd"/>
    <path d="M82.637,76.200 C82.637,76.200 26.883,76.200 26.883,76.200 C21.042,76.200 16.309,80.724 15.825,86.471 C15.825,86.471 68.811,86.471 68.811,86.471 C74.966,86.471 79.959,91.489 79.959,97.686 C79.959,97.686 79.959,177.117 79.959,177.117 C79.959,177.440 79.890,177.742 79.864,178.058 C79.864,178.058 82.637,178.058 82.637,178.058 C88.792,178.058 93.785,173.041 93.785,166.844 C93.785,166.844 93.785,87.413 93.785,87.413 C93.785,81.216 88.792,76.200 82.637,76.200 Z" id="path-2" class="cls-4" fill-rule="evenodd"/>
    <path d="M54.756,44.081 C35.240,44.081 19.416,59.989 19.416,79.623 C19.416,79.623 90.098,79.623 90.098,79.623 C90.098,59.989 74.276,44.081 54.756,44.081 Z" id="path-3" class="cls-5" fill-rule="evenodd"/>
    <path d="M28.302,69.698 C27.684,69.698 27.055,69.542 26.480,69.211 C24.742,68.212 24.149,66.005 25.158,64.284 C27.528,60.240 30.922,56.856 34.966,54.500 C36.703,53.493 38.928,54.066 39.948,55.783 C40.964,57.500 40.385,59.709 38.655,60.718 C35.684,62.444 33.196,64.931 31.455,67.903 C30.780,69.056 29.557,69.698 28.302,69.698 Z" id="path-4" class="cls-6" fill-rule="evenodd"/>
    <path d="M54.818,44.083 C58.700,46.935 61.988,50.558 64.449,54.732 C69.162,62.721 63.134,72.774 53.793,72.774 C53.793,72.774 20.087,72.774 20.087,72.774 C19.656,74.993 19.416,77.279 19.416,79.622 C19.416,79.622 90.099,79.622 90.099,79.622 C90.099,60.010 74.310,44.116 54.818,44.083 Z" id="path-5" class="cls-7" fill-rule="evenodd"/>
    <path d="M41.603,159.157 C39.973,159.157 38.647,157.847 38.647,156.228 C38.647,156.228 38.647,94.666 38.647,94.666 C38.647,93.049 39.973,91.740 41.603,91.740 C43.235,91.740 44.560,93.049 44.560,94.666 C44.560,94.666 44.560,156.228 44.560,156.228 C44.560,157.847 43.235,159.157 41.603,159.157 Z" id="path-6" class="cls-8" fill-rule="evenodd"/>
    <path d="M69.709,159.157 C68.079,159.157 66.752,157.847 66.752,156.228 C66.752,156.228 66.752,94.666 66.752,94.666 C66.752,93.049 68.079,91.740 69.709,91.740 C71.340,91.740 72.666,93.049 72.666,94.666 C72.666,94.666 72.666,156.228 72.666,156.228 C72.666,157.847 71.340,159.157 69.709,159.157 Z" id="path-7" class="cls-8" fill-rule="evenodd"/>
    <path d="M46.576,60.422 C43.910,60.422 41.739,58.261 41.739,55.603 C41.739,52.947 43.910,50.785 46.576,50.785 C49.241,50.785 51.409,52.947 51.409,55.603 C51.409,58.261 49.241,60.422 46.576,60.422 ZM46.576,54.568 C45.982,54.568 45.495,55.032 45.495,55.603 C45.495,56.174 45.982,56.640 46.576,56.640 C47.169,56.640 47.652,56.174 47.652,55.603 C47.652,55.032 47.169,54.568 46.576,54.568 Z" id="path-8" class="cls-10" fill-rule="evenodd"/>
    <path d="M62.854,60.422 C60.190,60.422 58.021,58.261 58.021,55.603 C58.021,52.947 60.190,50.785 62.854,50.785 C65.520,50.785 67.691,52.947 67.691,55.603 C67.691,58.261 65.520,60.422 62.854,60.422 ZM62.854,54.568 C62.260,54.568 61.778,55.032 61.778,55.603 C61.778,56.174 62.260,56.640 62.854,56.640 C63.448,56.640 63.934,56.174 63.934,55.603 C63.934,55.032 63.448,54.568 62.854,54.568 Z" id="path-9" class="cls-10" fill-rule="evenodd"/>
    <path d="M124.336,11.212 C124.336,5.016 129.329,-0.007 135.485,-0.007 C135.485,-0.007 191.237,-0.007 191.237,-0.007 C197.399,-0.007 202.392,5.016 202.392,11.212 C202.392,11.212 202.392,90.645 202.392,90.645 C202.392,96.840 197.399,101.858 191.237,101.858 C191.237,101.858 135.485,101.858 135.485,101.858 C129.329,101.858 124.336,96.840 124.336,90.645 C124.336,90.645 124.336,11.212 124.336,11.212 Z" id="path-10" class="cls-12" fill-rule="evenodd"/>
    <path d="M163.366,137.401 C182.881,137.401 198.705,121.493 198.705,101.858 C198.705,101.858 128.023,101.858 128.023,101.858 C128.023,121.493 143.846,137.401 163.366,137.401 Z" id="path-11" class="cls-5" fill-rule="evenodd"/>
    <path d="M191.237,-0.007 C191.237,-0.007 185.013,-0.007 185.013,-0.007 C185.040,0.309 185.109,0.614 185.109,0.940 C185.109,0.940 185.109,80.371 185.109,80.371 C185.109,86.567 180.116,91.584 173.954,91.584 C173.954,91.584 124.431,91.584 124.431,91.584 C124.913,97.332 129.649,101.858 135.485,101.858 C135.485,101.858 191.237,101.858 191.237,101.858 C197.399,101.858 202.392,96.840 202.392,90.644 C202.392,90.644 202.392,11.213 202.392,11.213 C202.392,5.016 197.399,-0.007 191.237,-0.007 Z" id="path-12" class="cls-4" fill-rule="evenodd"/>
    <path d="M184.207,101.858 C181.032,118.211 166.724,130.554 149.539,130.554 C146.655,130.554 143.868,130.168 141.186,129.513 C147.250,134.440 154.960,137.401 163.366,137.401 C182.881,137.401 198.704,121.493 198.704,101.858 C198.704,101.858 184.207,101.858 184.207,101.858 Z" id="path-13" class="cls-7" fill-rule="evenodd"/>
    <path d="M144.669,124.020 C144.047,124.020 143.422,123.865 142.846,123.533 C138.759,121.183 135.344,117.824 132.970,113.819 C131.954,112.103 132.534,109.894 134.264,108.885 C136.001,107.877 138.226,108.450 139.246,110.168 C140.988,113.104 143.496,115.571 146.499,117.299 C148.236,118.298 148.830,120.504 147.820,122.228 C147.142,123.378 145.924,124.020 144.669,124.020 Z" id="path-14" class="cls-6" fill-rule="evenodd"/>
    <path d="M176.516,86.318 C174.885,86.318 173.559,85.008 173.559,83.391 C173.559,83.391 173.559,21.828 173.559,21.828 C173.559,20.210 174.885,18.900 176.516,18.900 C178.146,18.900 179.472,20.210 179.472,21.828 C179.472,21.828 179.472,83.391 179.472,83.391 C179.472,85.008 178.146,86.318 176.516,86.318 Z" id="path-15" class="cls-8" fill-rule="evenodd"/>
    <path d="M148.411,86.318 C146.779,86.318 145.454,85.008 145.454,83.391 C145.454,83.391 145.454,21.828 145.454,21.828 C145.454,20.210 146.779,18.900 148.411,18.900 C150.042,18.900 151.368,20.210 151.368,21.828 C151.368,21.828 151.368,83.391 151.368,83.391 C151.368,85.008 150.042,86.318 148.411,86.318 Z" id="path-16" class="cls-8" fill-rule="evenodd"/>
    <path d="M94.563,194.936 C94.563,194.936 102.290,194.936 102.290,194.936 C103.780,194.936 104.988,193.376 104.988,191.454 C104.988,189.530 103.780,187.971 102.290,187.971 C102.290,187.971 101.931,187.971 101.931,187.971 C100.441,187.971 99.233,186.412 99.233,184.489 C99.233,182.567 100.441,181.006 101.931,181.006 C101.931,181.006 118.542,181.006 118.542,181.006 C120.031,181.006 121.238,179.448 121.238,177.526 C121.238,175.603 120.031,174.044 118.542,174.044 C118.542,174.044 98.580,174.044 98.580,174.044 C98.580,174.044 57.778,174.044 57.778,174.044 C56.289,174.044 55.081,175.603 55.081,177.526 C55.081,179.448 56.289,181.006 57.778,181.006 C57.778,181.006 62.388,181.006 62.388,181.006 C63.878,181.006 65.086,182.567 65.086,184.489 C65.086,186.412 63.878,187.971 62.388,187.971 C62.388,187.971 40.448,187.971 40.448,187.971 C38.959,187.971 37.751,189.530 37.751,191.454 C37.751,193.376 38.959,194.936 40.448,194.936 C40.448,194.936 45.635,194.936 45.635,194.936 C45.635,194.936 94.563,194.936 94.563,194.936 Z" id="path-17" class="cls-12" fill-rule="evenodd"/>
    <path d="M174.716,157.794 C174.716,157.794 174.716,152.866 174.716,152.866 C174.716,151.915 173.538,151.145 172.084,151.145 C170.631,151.145 169.452,151.915 169.452,152.866 C169.452,152.866 169.452,153.095 169.452,153.095 C169.452,154.045 168.275,154.816 166.821,154.816 C165.368,154.816 164.189,154.045 164.189,153.095 C164.189,153.095 164.189,142.497 164.189,142.497 C164.189,141.546 163.010,140.777 161.557,140.777 C160.104,140.777 158.926,141.546 158.926,142.497 C158.926,142.497 158.926,155.234 158.926,155.234 C158.926,155.234 158.926,181.265 158.926,181.265 C158.926,182.215 160.104,182.986 161.557,182.986 C163.010,182.986 164.189,182.215 164.189,181.265 C164.189,181.265 164.189,178.323 164.189,178.323 C164.189,177.373 165.368,176.602 166.821,176.602 C168.275,176.602 169.452,177.373 169.452,178.323 C169.452,178.323 169.452,192.322 169.452,192.322 C169.452,193.272 170.631,194.042 172.084,194.042 C173.538,194.042 174.716,193.272 174.716,192.322 C174.716,192.322 174.716,189.013 174.716,189.013 C174.716,189.013 174.716,157.794 174.716,157.794 Z" id="path-18" class="cls-12" fill-rule="evenodd"/>
    <path d="M148.518,159.885 C148.518,159.885 148.518,157.466 148.518,157.466 C148.518,156.998 147.939,156.620 147.226,156.620 C146.512,156.620 145.933,156.998 145.933,157.466 C145.933,157.466 145.933,157.578 145.933,157.578 C145.933,158.044 145.356,158.423 144.642,158.423 C143.928,158.423 143.349,158.044 143.349,157.578 C143.349,157.578 143.349,152.374 143.349,152.374 C143.349,151.907 142.770,151.529 142.057,151.529 C141.344,151.529 140.766,151.907 140.766,152.374 C140.766,152.374 140.766,158.627 140.766,158.627 C140.766,158.627 140.766,171.408 140.766,171.408 C140.766,171.875 141.344,172.253 142.057,172.253 C142.770,172.253 143.349,171.875 143.349,171.408 C143.349,171.408 143.349,169.964 143.349,169.964 C143.349,169.497 143.928,169.119 144.642,169.119 C145.356,169.119 145.933,169.497 145.933,169.964 C145.933,169.964 145.933,176.837 145.933,176.837 C145.933,177.304 146.512,177.682 147.226,177.682 C147.939,177.682 148.518,177.304 148.518,176.837 C148.518,176.837 148.518,175.213 148.518,175.213 C148.518,175.213 148.518,159.885 148.518,159.885 Z" id="path-19" class="cls-12" fill-rule="evenodd"/>
    <path d="M158.926,197.376 C158.926,194.807 160.276,192.726 161.943,192.726 C163.610,192.726 164.961,194.807 164.961,197.376 C164.961,197.376 164.961,211.632 164.961,211.632 C164.961,214.202 163.610,216.283 161.943,216.283 C160.276,216.283 158.926,214.202 158.926,211.632 C158.926,211.632 158.926,197.376 158.926,197.376 Z" id="path-20" class="cls-12" fill-rule="evenodd"/>
    <path d="M23.589,188.733 C26.795,188.733 29.394,190.521 29.394,192.726 C29.394,194.930 26.795,196.717 23.589,196.717 C23.589,196.717 5.797,196.717 5.797,196.717 C2.590,196.717 -0.010,194.930 -0.010,192.726 C-0.010,190.521 2.590,188.733 5.797,188.733 C5.797,188.733 23.589,188.733 23.589,188.733 Z" id="path-21" class="cls-12" fill-rule="evenodd"/>
    <path d="M187.913,160.281 C187.913,157.713 189.264,155.630 190.931,155.630 C192.597,155.630 193.947,157.713 193.947,160.281 C193.947,160.281 193.947,174.537 193.947,174.537 C193.947,177.106 192.597,179.189 190.931,179.189 C189.264,179.189 187.913,177.106 187.913,174.537 C187.913,174.537 187.913,160.281 187.913,160.281 Z" id="path-22" class="cls-12" fill-rule="evenodd"/>
  </g>
</svg>
