<svg xmlns="http://www.w3.org/2000/svg" xmlns:xlink="http://www.w3.org/1999/xlink" preserveAspectRatio="xMidYMid" width="227" height="215" viewBox="0 0 227 215">
  <defs>
    <style>

      .cls-3 {
        fill: #2476ff;
      }

      .cls-4 {
        fill: #fbb713;
      }

      .cls-9 {
        fill: #020403;
        opacity: 0.25;
      }

      .cls-10 {
        fill: #9fa869;
      }

      .cls-12 {
        fill: #000000;
        opacity: 0.35;
      }

      .cls-13 {
        fill: #142a3b;
      }

      .cls-14 {
        fill: #ffffff;
      }

      .cls-17 {
        fill: #020403;
        opacity: 0.35;
      }
    </style>
  </defs>
  <g id="group-42svg">
    <path d="M185.313,180.146 C185.313,180.146 197.332,180.146 197.332,180.146 C199.650,180.146 201.528,181.325 201.528,182.780 C201.528,184.235 199.650,185.414 197.332,185.414 C197.332,185.414 196.774,185.414 196.774,185.414 C194.455,185.414 192.577,186.593 192.577,188.047 C192.577,189.502 194.455,190.681 196.774,190.681 C196.774,190.681 222.611,190.681 222.611,190.681 C224.928,190.681 226.807,191.861 226.807,193.315 C226.807,194.769 224.928,195.949 222.611,195.949 C222.611,195.949 191.560,195.949 191.560,195.949 C191.560,195.949 157.432,195.949 157.432,195.949 C155.115,195.949 153.236,194.769 153.236,193.315 C153.236,191.861 155.115,190.681 157.432,190.681 C157.432,190.681 164.604,190.681 164.604,190.681 C166.920,190.681 168.799,189.502 168.799,188.047 C168.799,186.593 166.920,185.414 164.604,185.414 C164.604,185.414 130.475,185.414 130.475,185.414 C128.157,185.414 126.279,184.235 126.279,182.780 C126.279,181.325 128.157,180.146 130.475,180.146 C130.475,180.146 138.541,180.146 138.541,180.146 C138.541,180.146 185.313,180.146 185.313,180.146 Z" id="path-1" class="cls-3" fill-rule="evenodd"/>
    <path d="M215.355,170.439 C218.831,170.439 221.649,168.671 221.649,166.488 C221.649,164.307 218.831,162.538 215.355,162.538 C215.355,162.538 196.067,162.538 196.067,162.538 C192.590,162.538 189.772,164.307 189.772,166.488 C189.772,168.671 192.590,170.439 196.067,170.439 C196.067,170.439 215.355,170.439 215.355,170.439 Z" id="path-2" class="cls-4" fill-rule="evenodd"/>
    <path d="M47.147,133.972 C47.147,133.972 52.194,133.972 52.194,133.972 C53.168,133.972 53.956,134.759 53.956,135.730 C53.956,136.699 53.168,137.486 52.194,137.486 C52.194,137.486 51.960,137.486 51.960,137.486 C50.986,137.486 50.197,138.274 50.197,139.245 C50.197,140.215 50.986,141.003 51.960,141.003 C51.960,141.003 62.811,141.003 62.811,141.003 C63.784,141.003 64.573,141.789 64.573,142.759 C64.573,143.730 63.784,144.517 62.811,144.517 C62.811,144.517 49.770,144.517 49.770,144.517 C49.770,144.517 35.437,144.517 35.437,144.517 C34.464,144.517 33.675,143.730 33.675,142.759 C33.675,141.789 34.464,141.003 35.437,141.003 C35.437,141.003 38.449,141.003 38.449,141.003 C39.422,141.003 40.210,140.215 40.210,139.245 C40.210,138.274 39.422,137.486 38.449,137.486 C38.449,137.486 24.115,137.486 24.115,137.486 C23.142,137.486 22.353,136.699 22.353,135.730 C22.353,134.759 23.142,133.972 24.115,133.972 C24.115,133.972 27.503,133.972 27.503,133.972 C27.503,133.972 47.147,133.972 47.147,133.972 Z" id="path-3" class="cls-3" fill-rule="evenodd"/>
    <path d="M182.303,120.242 C182.303,120.242 185.577,120.242 185.577,120.242 C186.207,120.242 186.719,120.669 186.719,121.194 C186.719,121.720 186.207,122.145 185.577,122.145 C185.577,122.145 185.425,122.145 185.425,122.145 C184.793,122.145 184.282,122.571 184.282,123.096 C184.282,123.621 184.793,124.047 185.425,124.047 C185.425,124.047 192.461,124.047 192.461,124.047 C193.092,124.047 193.604,124.473 193.604,124.998 C193.604,125.523 193.092,125.950 192.461,125.950 C192.461,125.950 184.005,125.950 184.005,125.950 C184.005,125.950 174.711,125.950 174.711,125.950 C174.079,125.950 173.567,125.523 173.567,124.998 C173.567,124.473 174.079,124.047 174.711,124.047 C174.711,124.047 176.663,124.047 176.663,124.047 C177.294,124.047 177.806,123.621 177.806,123.096 C177.806,122.571 177.294,122.145 176.663,122.145 C176.663,122.145 167.368,122.145 167.368,122.145 C166.736,122.145 166.226,121.720 166.226,121.194 C166.226,120.669 166.736,120.242 167.368,120.242 C167.368,120.242 169.565,120.242 169.565,120.242 C169.565,120.242 182.303,120.242 182.303,120.242 Z" id="path-4" class="cls-4" fill-rule="evenodd"/>
    <path d="M173.126,198.631 C173.126,198.631 96.981,156.238 96.981,156.238 C92.292,153.629 85.588,153.629 80.901,156.237 C80.901,156.237 4.750,198.631 4.750,198.631 C-4.602,203.835 0.754,214.229 12.789,214.229 C12.789,214.229 105.640,214.229 105.640,214.229 C105.640,214.229 165.086,214.229 165.086,214.229 C177.120,214.229 182.477,203.836 173.126,198.631 Z" id="path-5" class="cls-4" fill-rule="evenodd"/>
    <path d="M193.900,30.849 C193.383,31.975 192.044,32.472 190.907,31.961 C190.907,31.961 144.074,10.908 144.074,10.908 C142.938,10.397 142.432,9.070 142.948,7.944 C142.948,7.944 145.982,1.320 145.982,1.320 C146.497,0.195 147.839,-0.303 148.975,0.208 C148.975,0.208 195.809,21.261 195.809,21.261 C196.944,21.773 197.449,23.101 196.934,24.226 C196.934,24.226 193.900,30.849 193.900,30.849 Z" id="path-6" class="cls-4" fill-rule="evenodd"/>
    <path d="M142.948,7.944 C142.432,9.070 142.938,10.397 144.074,10.908 C144.074,10.908 190.907,31.961 190.907,31.961 C192.044,32.472 193.383,31.975 193.900,30.849 C193.900,30.849 194.629,29.257 194.629,29.257 C194.629,29.257 143.677,6.352 143.677,6.352 C143.677,6.352 142.948,7.944 142.948,7.944 Z" id="path-7" class="cls-9" fill-rule="evenodd"/>
    <path d="M172.392,20.335 C172.392,20.335 165.098,17.056 165.098,17.056 C163.920,16.526 162.532,17.043 161.998,18.212 C161.998,18.212 161.711,18.836 161.711,18.836 C161.711,18.836 173.269,24.032 173.269,24.032 C173.269,24.032 173.556,23.407 173.556,23.407 C174.090,22.240 173.570,20.864 172.392,20.335 Z" id="path-8" class="cls-10" fill-rule="evenodd"/>
    <path d="M79.650,186.768 C79.650,186.768 79.970,186.913 79.970,186.913 C79.970,186.913 115.625,186.913 115.625,186.913 C115.625,186.913 125.641,154.965 125.641,154.965 C127.307,149.653 124.721,143.944 119.608,141.645 C119.608,141.645 107.695,136.290 107.695,136.290 C102.582,133.992 96.541,135.822 93.604,140.562 C93.604,140.562 74.761,170.948 74.761,170.948 C71.254,176.603 73.547,184.025 79.650,186.768 Z" id="path-9" class="cls-3" fill-rule="evenodd"/>
    <path d="M119.555,141.621 C114.483,152.693 107.729,160.476 104.468,159.009 C101.207,157.543 102.673,147.383 107.745,136.312 C107.745,136.312 107.745,136.312 107.745,136.312 " id="path-10" class="cls-12" fill-rule="evenodd"/>
    <path d="M155.074,60.504 C155.589,59.378 155.084,58.051 153.948,57.540 C153.948,57.540 148.976,55.304 148.976,55.304 C147.837,54.792 146.501,55.292 145.985,56.418 C145.985,56.418 105.995,143.719 105.995,143.719 C105.992,143.724 105.994,143.731 105.990,143.737 C105.980,143.761 105.967,143.781 105.956,143.805 C103.720,148.682 103.943,153.552 106.451,154.680 C108.965,155.810 112.810,152.769 115.045,147.890 C115.056,147.866 115.062,147.844 115.072,147.820 C115.075,147.815 115.081,147.811 115.083,147.805 C115.083,147.805 155.074,60.504 155.074,60.504 Z" id="path-11" class="cls-13" fill-rule="evenodd"/>
    <path d="M111.530,143.596 C111.530,143.596 149.906,59.820 149.906,59.820 C149.906,59.820 147.218,58.612 147.218,58.612 C147.218,58.612 108.843,142.389 108.843,142.389 C108.843,142.389 108.838,142.386 108.838,142.386 C107.460,145.395 106.945,148.101 107.691,148.437 C108.438,148.772 110.157,146.608 111.536,143.599 C111.536,143.599 111.530,143.596 111.530,143.596 Z" id="path-12" class="cls-14" fill-rule="evenodd"/>
    <path d="M156.412,60.286 C155.897,61.412 154.557,61.911 153.420,61.400 C153.420,61.400 146.392,58.241 146.392,58.241 C145.256,57.730 144.753,56.402 145.269,55.277 C145.269,55.277 162.035,18.676 162.035,18.676 C162.551,17.549 163.891,17.050 165.026,17.561 C165.026,17.561 172.055,20.721 172.055,20.721 C173.191,21.231 173.695,22.558 173.178,23.684 C173.178,23.684 156.412,60.286 156.412,60.286 Z" id="path-13" class="cls-4" fill-rule="evenodd"/>
    <path d="M149.906,59.820 C149.906,59.820 147.218,58.612 147.218,58.612 C147.218,58.612 165.854,17.933 165.854,17.933 C165.854,17.933 168.541,19.141 168.541,19.141 C168.541,19.141 149.906,59.820 149.906,59.820 Z" id="path-14" class="cls-14" fill-rule="evenodd"/>
    <path d="M115.625,186.913 C115.625,186.913 125.641,154.965 125.641,154.965 C127.207,149.972 124.984,144.665 120.469,142.131 C121.131,144.211 121.213,146.485 120.518,148.703 C120.518,148.703 109.840,182.759 109.840,182.759 C109.337,184.362 108.501,185.758 107.439,186.913 C107.439,186.913 115.625,186.913 115.625,186.913 Z" id="path-15" class="cls-17" fill-rule="evenodd"/>
    <path d="M79.650,186.768 C79.650,186.768 79.970,186.913 79.970,186.913 C79.970,186.913 88.776,186.913 88.776,186.913 C88.776,186.913 74.525,180.506 74.525,180.506 C74.193,180.357 73.918,180.144 73.610,179.969 C74.511,182.866 76.605,185.400 79.650,186.768 Z" id="path-16" class="cls-17" fill-rule="evenodd"/>
  </g>
</svg>
