<svg xmlns="http://www.w3.org/2000/svg" xmlns:xlink="http://www.w3.org/1999/xlink" preserveAspectRatio="xMidYMid" width="211" height="217" viewBox="0 0 211 217">
  <defs>
    <style>

      .cls-3 {
        fill: #fbb713;
      }

      .cls-5 {
        fill: #142a3b;
      }

      .cls-8 {
        fill: #ff3a2f;
      }

      .cls-10 {
        fill: #ffffff;
      }

      .cls-11 {
        fill: #020403;
        opacity: 0.25;
      }
    </style>
  </defs>
  <g id="group-11svg">
    <path d="M77.231,185.551 C77.231,185.551 92.954,185.551 92.954,185.551 C95.985,185.551 98.443,187.094 98.443,188.996 C98.443,190.900 95.985,192.442 92.954,192.442 C92.954,192.442 92.222,192.442 92.222,192.442 C89.191,192.442 86.734,193.986 86.734,195.888 C86.734,197.791 89.191,199.333 92.222,199.333 C92.222,199.333 126.022,199.333 126.022,199.333 C129.053,199.333 131.511,200.876 131.511,202.779 C131.511,204.681 129.053,206.224 126.022,206.224 C126.022,206.224 85.403,206.224 85.403,206.224 C85.403,206.224 40.758,206.224 40.758,206.224 C37.727,206.224 35.270,204.681 35.270,202.779 C35.270,200.876 37.727,199.333 40.758,199.333 C40.758,199.333 50.139,199.333 50.139,199.333 C53.171,199.333 55.628,197.791 55.628,195.888 C55.628,193.986 53.171,192.442 50.139,192.442 C50.139,192.442 5.494,192.442 5.494,192.442 C2.463,192.442 0.006,190.900 0.006,188.996 C0.006,187.094 2.463,185.551 5.494,185.551 C5.494,185.551 16.046,185.551 16.046,185.551 C16.046,185.551 77.231,185.551 77.231,185.551 Z" id="path-1" class="cls-3" fill-rule="evenodd"/>
    <path d="M201.791,216.301 C206.339,216.301 210.025,213.987 210.025,211.134 C210.025,208.279 206.339,205.965 201.791,205.965 C201.791,205.965 176.560,205.965 176.560,205.965 C172.012,205.965 168.326,208.279 168.326,211.134 C168.326,213.987 172.012,216.301 176.560,216.301 C176.560,216.301 201.791,216.301 201.791,216.301 Z" id="path-2" class="cls-3" fill-rule="evenodd"/>
    <path d="M168.502,140.437 C168.502,147.384 162.817,153.017 155.805,153.017 C148.791,153.017 143.106,147.384 143.106,140.437 C143.106,133.489 148.791,127.857 155.805,127.857 C162.817,127.857 168.502,133.489 168.502,140.437 Z" id="path-3" class="cls-5" fill-rule="evenodd"/>
    <path d="M127.331,156.066 C127.331,156.066 61.259,156.066 61.259,156.066 C61.259,156.066 61.259,89.739 61.259,89.739 C61.259,89.739 127.331,89.739 127.331,89.739 C127.331,89.739 127.331,156.066 127.331,156.066 Z" id="path-4" class="cls-5" fill-rule="evenodd"/>
    <path d="M106.843,126.508 C106.843,126.508 80.101,126.508 80.101,126.508 C78.091,126.508 76.463,124.893 76.463,122.903 C76.463,120.912 78.091,119.298 80.101,119.298 C80.101,119.298 106.843,119.298 106.843,119.298 C108.853,119.298 110.481,120.912 110.481,122.903 C110.481,124.893 108.853,126.508 106.843,126.508 Z" id="path-5" class="cls-5" fill-rule="evenodd"/>
    <path d="M168.502,140.437 C168.502,147.384 162.817,153.017 155.805,153.017 C148.791,153.017 143.106,147.384 143.106,140.437 C143.106,133.489 148.791,127.857 155.805,127.857 C162.817,127.857 168.502,133.489 168.502,140.437 Z" id="path-6" class="cls-8" fill-rule="evenodd"/>
    <path d="M93.854,41.883 C91.842,41.883 90.215,40.268 90.215,38.277 C90.215,38.277 90.215,7.427 90.215,7.427 C90.215,5.436 91.842,3.821 93.854,3.821 C95.865,3.821 97.493,5.436 97.493,7.427 C97.493,7.427 97.493,38.277 97.493,38.277 C97.493,40.268 95.865,41.883 93.854,41.883 Z" id="path-7" class="cls-5" fill-rule="evenodd"/>
    <path d="M155.946,136.625 C155.946,138.807 154.160,140.576 151.957,140.576 C149.754,140.576 147.968,138.807 147.968,136.625 C147.968,134.443 149.754,132.674 151.957,132.674 C154.160,132.674 155.946,134.443 155.946,136.625 Z" id="path-8" class="cls-10" fill-rule="evenodd"/>
    <path d="M162.633,129.860 C163.899,131.817 164.655,134.130 164.655,136.625 C164.655,143.573 158.969,149.205 151.957,149.205 C149.437,149.205 147.103,148.456 145.129,147.201 C147.385,150.690 151.312,153.016 155.805,153.016 C162.817,153.016 168.502,147.384 168.502,140.436 C168.502,135.986 166.154,132.097 162.633,129.860 Z" id="path-9" class="cls-11" fill-rule="evenodd"/>
    <path d="M60.378,190.373 C60.378,190.373 127.331,190.373 127.331,190.373 C127.331,190.373 127.331,66.868 127.331,66.868 C127.331,48.552 112.343,33.705 93.854,33.705 C75.365,33.705 60.378,48.552 60.378,66.868 C60.378,66.868 60.378,190.373 60.378,190.373 Z" id="path-10" class="cls-5" fill-rule="evenodd"/>
    <path d="M93.854,38.071 C91.842,38.071 90.215,36.458 90.215,34.467 C90.215,34.467 90.215,3.615 90.215,3.615 C90.215,1.624 91.842,0.011 93.854,0.011 C95.865,0.011 97.493,1.624 97.493,3.615 C97.493,3.615 97.493,34.467 97.493,34.467 C97.493,36.458 95.865,38.071 93.854,38.071 Z" id="path-11" class="cls-5" fill-rule="evenodd"/>
    <path d="M155.619,131.462 C153.608,131.462 151.980,129.849 151.980,127.857 C151.980,127.857 151.980,62.204 151.980,62.204 C151.980,39.340 133.204,20.740 110.126,20.740 C110.126,20.740 77.795,20.740 77.795,20.740 C75.784,20.740 74.156,19.126 74.156,17.135 C74.156,15.144 75.784,13.530 77.795,13.530 C77.795,13.530 110.126,13.530 110.126,13.530 C137.218,13.530 159.258,35.365 159.258,62.204 C159.258,62.204 159.258,127.857 159.258,127.857 C159.258,129.849 157.630,131.462 155.619,131.462 Z" id="path-12" class="cls-5" fill-rule="evenodd"/>
    <path d="M60.378,190.373 C60.378,190.373 127.331,190.373 127.331,190.373 C127.331,190.373 127.331,66.868 127.331,66.868 C127.331,48.552 112.343,33.705 93.854,33.705 C75.365,33.705 60.378,48.552 60.378,66.868 C60.378,66.868 60.378,190.373 60.378,190.373 Z" id="path-13" class="cls-8" fill-rule="evenodd"/>
    <path d="M93.854,33.705 C91.201,33.705 88.634,34.042 86.159,34.619 C100.932,38.069 111.941,51.180 111.941,66.868 C111.941,66.868 111.941,190.373 111.941,190.373 C111.941,190.373 127.331,190.373 127.331,190.373 C127.331,190.373 127.331,66.868 127.331,66.868 C127.331,48.552 112.343,33.705 93.854,33.705 Z" id="path-14" class="cls-11" fill-rule="evenodd"/>
    <path d="M104.361,17.439 C104.361,22.922 99.875,27.366 94.341,27.366 C88.807,27.366 84.321,22.922 84.321,17.439 C84.321,11.957 88.807,7.513 94.341,7.513 C99.875,7.513 104.361,11.957 104.361,17.439 Z" id="path-15" class="cls-8" fill-rule="evenodd"/>
    <path d="M94.498,7.529 C95.836,9.215 96.666,11.315 96.666,13.628 C96.666,19.111 92.180,23.555 86.648,23.555 C86.593,23.555 86.544,23.539 86.490,23.539 C88.325,25.852 91.142,27.366 94.341,27.366 C99.875,27.366 104.361,22.922 104.361,17.439 C104.361,12.010 99.957,7.614 94.498,7.529 Z" id="path-16" class="cls-11" fill-rule="evenodd"/>
    <path d="M93.952,14.662 C93.952,16.605 92.361,18.180 90.399,18.180 C88.437,18.180 86.847,16.605 86.847,14.662 C86.847,12.718 88.437,11.142 90.399,11.142 C92.361,11.142 93.952,12.718 93.952,14.662 Z" id="path-17" class="cls-10" fill-rule="evenodd"/>
    <path d="M127.331,156.066 C127.331,156.066 60.378,156.066 60.378,156.066 C60.378,156.066 60.378,89.739 60.378,89.739 C60.378,89.739 127.331,89.739 127.331,89.739 C127.331,89.739 127.331,156.066 127.331,156.066 Z" id="path-18" class="cls-3" fill-rule="evenodd"/>
    <path d="M111.941,89.739 C111.941,89.739 111.941,156.066 111.941,156.066 C111.941,156.066 127.331,156.066 127.331,156.066 C127.331,156.066 127.331,89.739 127.331,89.739 C127.331,89.739 111.941,89.739 111.941,89.739 Z" id="path-19" class="cls-11" fill-rule="evenodd"/>
    <path d="M106.843,126.508 C106.843,126.508 80.101,126.508 80.101,126.508 C78.091,126.508 76.463,124.893 76.463,122.903 C76.463,120.912 78.091,119.298 80.101,119.298 C80.101,119.298 106.843,119.298 106.843,119.298 C108.853,119.298 110.481,120.912 110.481,122.903 C110.481,124.893 108.853,126.508 106.843,126.508 Z" id="path-20" class="cls-5" fill-rule="evenodd"/>
    <path d="M67.099,138.065 C65.088,138.065 63.459,136.451 63.459,134.459 C63.459,134.459 63.459,73.471 63.459,73.471 C63.459,61.022 69.746,49.514 80.272,42.688 C81.956,41.596 84.209,42.065 85.312,43.730 C86.412,45.395 85.940,47.630 84.259,48.720 C75.791,54.210 70.738,63.463 70.738,73.471 C70.738,73.471 70.738,134.459 70.738,134.459 C70.738,136.451 69.110,138.065 67.099,138.065 Z" id="path-21" class="cls-10" fill-rule="evenodd"/>
  </g>
</svg>
