<svg xmlns="http://www.w3.org/2000/svg" xmlns:xlink="http://www.w3.org/1999/xlink" preserveAspectRatio="xMidYMid" width="206" height="217" viewBox="0 0 206 217">
  <defs>
    <style>

      .cls-3 {
        fill: #0cb04a;
      }

      .cls-8 {
        fill: #020403;
        opacity: 0.35;
      }

      .cls-10 {
        fill: #142a3b;
      }

      .cls-12 {
        fill: #fbb713;
      }
    </style>
  </defs>
  <g id="group-147svg">
    <path d="M78.131,186.121 C78.131,186.121 90.938,186.121 90.938,186.121 C93.407,186.121 95.409,187.378 95.409,188.928 C95.409,190.478 93.407,191.734 90.938,191.734 C90.938,191.734 90.342,191.734 90.342,191.734 C87.873,191.734 85.871,192.990 85.871,194.540 C85.871,196.090 87.873,197.346 90.342,197.346 C90.342,197.346 117.872,197.346 117.872,197.346 C120.341,197.346 122.342,198.602 122.342,200.151 C122.342,201.702 120.341,202.958 117.872,202.958 C117.872,202.958 84.788,202.958 84.788,202.958 C84.788,202.958 48.426,202.958 48.426,202.958 C45.956,202.958 43.955,201.702 43.955,200.151 C43.955,198.602 45.956,197.346 48.426,197.346 C48.426,197.346 56.066,197.346 56.066,197.346 C58.535,197.346 60.537,196.090 60.537,194.540 C60.537,192.990 58.535,191.734 56.066,191.734 C56.066,191.734 19.704,191.734 19.704,191.734 C17.234,191.734 15.233,190.478 15.233,188.928 C15.233,187.378 17.234,186.121 19.704,186.121 C19.704,186.121 28.298,186.121 28.298,186.121 C28.298,186.121 78.131,186.121 78.131,186.121 Z" id="path-1" class="cls-3" fill-rule="evenodd"/>
    <path d="M156.548,205.049 C159.520,205.049 161.930,203.163 161.930,200.839 C161.930,198.514 159.520,196.630 156.548,196.630 C156.548,196.630 140.055,196.630 140.055,196.630 C137.082,196.630 134.673,198.514 134.673,200.839 C134.673,203.163 137.082,205.049 140.055,205.049 C140.055,205.049 156.548,205.049 156.548,205.049 Z" id="path-2" class="cls-3" fill-rule="evenodd"/>
    <path d="M27.253,216.283 C30.956,216.283 33.958,214.399 33.958,212.074 C33.958,209.749 30.956,207.864 27.253,207.864 C27.253,207.864 6.702,207.864 6.702,207.864 C2.999,207.864 -0.004,209.749 -0.004,212.074 C-0.004,214.399 2.999,216.283 6.702,216.283 C6.702,216.283 27.253,216.283 27.253,216.283 Z" id="path-3" class="cls-3" fill-rule="evenodd"/>
    <path d="M61.795,117.098 C61.795,117.098 71.711,117.098 71.711,117.098 C71.711,117.098 71.711,168.437 71.711,168.437 C71.711,168.437 61.795,168.437 61.795,168.437 C56.094,168.437 51.430,161.602 51.430,153.249 C51.430,153.249 51.430,132.288 51.430,132.288 C51.430,123.932 56.094,117.098 61.795,117.098 Z" id="path-4" class="cls-3" fill-rule="evenodd"/>
    <path d="M195.233,117.098 C195.233,117.098 185.318,117.098 185.318,117.098 C185.318,117.098 185.318,168.437 185.318,168.437 C185.318,168.437 195.233,168.437 195.233,168.437 C200.935,168.437 205.600,161.602 205.600,153.249 C205.600,153.249 205.600,132.288 205.600,132.288 C205.600,123.932 200.935,117.098 195.233,117.098 Z" id="path-5" class="cls-3" fill-rule="evenodd"/>
    <path d="M202.786,160.955 C202.786,160.955 196.645,160.955 196.645,160.955 C196.645,160.955 196.645,117.098 196.645,117.098 C196.645,117.098 185.318,117.098 185.318,117.098 C185.318,117.098 185.318,168.436 185.318,168.436 C185.318,168.436 195.233,168.436 195.233,168.436 C199.067,168.436 202.394,165.312 204.187,160.747 C203.724,160.841 203.265,160.955 202.786,160.955 Z" id="path-6" class="cls-8" fill-rule="evenodd"/>
    <path d="M54.558,160.955 C54.558,160.955 60.698,160.955 60.698,160.955 C60.698,160.955 60.698,117.098 60.698,117.098 C60.698,117.098 72.026,117.098 72.026,117.098 C72.026,117.098 72.026,168.436 72.026,168.436 C72.026,168.436 62.110,168.436 62.110,168.436 C58.276,168.436 54.951,165.312 53.157,160.747 C53.620,160.841 54.079,160.955 54.558,160.955 Z" id="path-7" class="cls-8" fill-rule="evenodd"/>
    <path d="M190.766,186.892 C190.766,186.892 65.526,186.892 65.526,186.892 C65.526,186.892 65.526,26.734 65.526,26.734 C65.526,26.734 190.766,26.734 190.766,26.734 C190.766,26.734 190.766,186.892 190.766,186.892 Z" id="path-8" class="cls-10" fill-rule="evenodd"/>
    <path d="M163.000,115.120 C165.979,118.840 167.777,123.526 167.777,128.617 C167.777,128.617 167.777,146.632 167.777,146.632 C167.777,158.625 157.872,168.436 145.767,168.436 C145.767,168.436 102.973,168.436 102.973,168.436 C100.926,168.436 98.951,168.134 97.067,167.611 C101.108,172.657 107.333,175.918 114.300,175.918 C114.300,175.918 157.095,175.918 157.095,175.918 C169.200,175.918 179.105,166.107 179.105,154.114 C179.105,154.114 179.105,136.099 179.105,136.099 C179.105,126.133 172.258,117.694 163.000,115.120 Z" id="path-9" class="cls-8" fill-rule="evenodd"/>
    <path d="M165.724,168.437 C165.724,168.437 90.568,168.437 90.568,168.437 C87.362,168.437 84.739,165.815 84.739,162.609 C84.739,162.609 84.739,112.640 84.739,112.640 C84.739,109.435 87.362,106.813 90.568,106.813 C90.568,106.813 165.724,106.813 165.724,106.813 C168.930,106.813 171.553,109.435 171.553,112.640 C171.553,112.640 171.553,162.609 171.553,162.609 C171.553,165.815 168.930,168.437 165.724,168.437 Z" id="path-10" class="cls-12" fill-rule="evenodd"/>
    <path d="M158.321,152.804 C158.321,152.804 97.320,152.804 97.320,152.804 C97.320,152.804 97.320,142.767 97.320,142.767 C97.320,142.767 158.321,142.767 158.321,142.767 C158.321,142.767 158.321,152.804 158.321,152.804 Z" id="path-11" class="cls-10" fill-rule="evenodd"/>
    <path d="M162.185,33.989 C162.185,33.989 93.459,33.989 93.459,33.989 C93.459,33.989 93.914,29.980 93.914,29.980 C95.865,12.885 110.442,-0.007 127.822,-0.007 C145.203,-0.007 159.780,12.885 161.730,29.980 C161.730,29.980 162.185,33.989 162.185,33.989 ZM101.920,26.780 C101.920,26.780 153.725,26.780 153.725,26.780 C150.597,15.378 140.096,7.204 127.822,7.204 C115.548,7.204 105.047,15.378 101.920,26.780 Z" id="path-12" class="cls-10" fill-rule="evenodd"/>
    <path d="M162.814,82.800 C162.814,82.800 153.433,82.800 153.433,82.800 C153.433,82.800 153.433,53.872 153.433,53.872 C153.433,53.872 162.814,53.872 162.814,53.872 C162.814,53.872 162.814,82.800 162.814,82.800 Z" id="path-13" class="cls-8" fill-rule="evenodd"/>
    <path d="M109.950,82.800 C109.950,82.800 100.570,82.800 100.570,82.800 C100.570,82.800 100.570,53.872 100.570,53.872 C100.570,53.872 109.950,53.872 109.950,53.872 C109.950,53.872 109.950,82.800 109.950,82.800 Z" id="path-14" class="cls-8" fill-rule="evenodd"/>
    <path d="M65.526,44.778 C65.526,58.895 77.186,70.448 91.438,70.448 C91.438,70.448 164.854,70.448 164.854,70.448 C179.105,70.448 190.766,58.895 190.766,44.778 C190.766,44.778 190.766,26.732 190.766,26.732 C190.766,26.732 65.526,26.732 65.526,26.732 C65.526,26.732 65.526,44.778 65.526,44.778 Z" id="path-15" class="cls-3" fill-rule="evenodd"/>
    <path d="M190.766,44.778 C190.766,58.895 179.105,70.448 164.854,70.448 C164.854,70.448 91.438,70.448 91.438,70.448 C86.234,70.448 81.384,68.894 77.313,66.253 C81.952,73.264 89.942,77.928 98.990,77.928 C98.990,77.928 172.406,77.928 172.406,77.928 C179.564,77.928 186.064,75.013 190.766,70.324 C190.766,70.324 190.766,44.778 190.766,44.778 Z" id="path-16" class="cls-8" fill-rule="evenodd"/>
    <path d="M104.338,86.541 C104.338,86.541 97.320,86.541 97.320,86.541 C97.320,86.541 97.320,57.612 97.320,57.612 C97.320,57.612 104.338,57.612 104.338,57.612 C104.338,57.612 104.338,86.541 104.338,86.541 Z" id="path-17" class="cls-12" fill-rule="evenodd"/>
    <path d="M156.161,86.541 C156.161,86.541 149.144,86.541 149.144,86.541 C149.144,86.541 149.144,57.612 149.144,57.612 C149.144,57.612 156.161,57.612 156.161,57.612 C156.161,57.612 156.161,86.541 156.161,86.541 Z" id="path-18" class="cls-12" fill-rule="evenodd"/>
  </g>
</svg>
