<svg xmlns="http://www.w3.org/2000/svg" xmlns:xlink="http://www.w3.org/1999/xlink" preserveAspectRatio="xMidYMid" width="219" height="212" viewBox="0 0 219 212">
  <defs>
    <style>

      .cls-3 {
        fill: #142a3b;
      }

      .cls-4 {
        fill: #020403;
        opacity: 0.35;
      }

      .cls-12 {
        fill: #fbb713;
      }

      .cls-13 {
        fill: #2476ff;
      }
    </style>
  </defs>
  <g id="group-65svg">
    <path d="M154.263,172.584 C166.647,157.164 163.384,108.380 145.713,74.755 C145.713,74.755 181.863,78.429 180.017,124.344 C180.017,124.344 211.535,61.898 158.691,49.961 C158.691,49.961 175.379,10.468 216.167,26.079 C216.167,26.079 183.346,-10.416 136.288,32.461 C131.383,19.038 134.585,-0.013 134.585,-0.013 C115.154,9.371 111.688,26.763 111.861,38.659 C94.714,35.470 64.709,42.115 56.005,72.903 C56.005,72.903 88.750,50.297 114.546,64.057 C114.546,64.057 68.768,76.595 66.911,119.755 C66.911,119.755 85.992,96.519 105.669,90.827 C104.073,92.337 103.067,94.443 103.067,96.801 C103.067,101.366 106.806,105.064 111.408,105.064 C113.081,105.064 114.635,104.570 115.938,103.725 C114.856,105.118 114.189,106.834 114.189,108.739 C114.189,113.303 117.928,117.007 122.530,117.007 C126.542,117.007 129.882,114.194 130.686,110.466 C133.114,127.547 133.377,154.760 117.184,176.524 C117.184,176.524 147.235,181.337 154.263,172.584 Z" id="path-1" class="cls-3" fill-rule="evenodd"/>
    <path d="M106.209,60.871 C106.966,60.627 107.387,60.510 107.387,60.510 C90.913,51.724 71.618,57.767 59.815,63.283 C58.308,66.199 57.002,69.374 56.005,72.903 C56.005,72.903 82.214,54.827 106.209,60.871 Z" id="path-2" class="cls-4" fill-rule="evenodd"/>
    <path d="M122.530,117.007 C123.220,117.007 123.878,116.897 124.518,116.740 C124.302,113.218 123.952,109.908 123.527,106.921 C122.745,110.552 119.549,113.294 115.676,113.435 C117.183,115.590 119.688,117.007 122.530,117.007 Z" id="path-3" class="cls-4" fill-rule="evenodd"/>
    <path d="M126.555,5.005 C126.173,11.746 126.325,21.243 129.130,28.915 C130.879,27.322 132.603,25.870 134.311,24.489 C132.470,12.570 134.585,-0.013 134.585,-0.013 C131.512,1.471 128.878,3.174 126.555,5.005 Z" id="path-4" class="cls-4" fill-rule="evenodd"/>
    <path d="M95.909,93.256 C95.909,90.896 96.915,88.790 98.511,87.281 C87.412,90.491 76.507,99.281 69.104,106.338 C67.910,110.447 67.120,114.897 66.911,119.755 C66.911,119.755 80.229,103.578 96.078,94.920 C95.967,94.382 95.909,93.826 95.909,93.256 Z" id="path-5" class="cls-4" fill-rule="evenodd"/>
    <path d="M199.370,15.032 C205.577,18.738 209.008,22.534 209.008,22.534 C168.221,6.922 151.533,46.414 151.533,46.414 C154.356,47.052 156.891,47.862 159.251,48.771 C162.427,42.334 179.614,12.089 216.167,26.079 C216.167,26.079 210.065,19.315 199.370,15.032 Z" id="path-6" class="cls-4" fill-rule="evenodd"/>
    <path d="M108.781,100.179 C107.554,100.973 106.097,101.421 104.538,101.476 C105.217,102.454 106.116,103.256 107.145,103.867 C107.376,102.491 107.954,101.240 108.781,100.179 Z" id="path-7" class="cls-4" fill-rule="evenodd"/>
    <path d="M166.454,52.333 C186.689,65.014 183.324,90.166 178.475,106.209 C179.691,111.373 180.297,117.364 180.017,124.344 C180.017,124.344 208.191,68.457 166.454,52.333 Z" id="path-8" class="cls-4" fill-rule="evenodd"/>
    <path d="M153.510,76.810 C145.722,71.949 138.554,71.209 138.554,71.209 C156.225,104.834 159.489,153.618 147.105,169.039 C142.555,174.704 128.391,174.682 118.943,173.963 C118.365,174.820 117.808,175.682 117.184,176.524 C117.184,176.524 147.235,181.337 154.263,172.584 C166.647,157.164 163.384,108.380 145.712,74.755 C145.712,74.755 148.990,75.098 153.510,76.810 Z" id="path-9" class="cls-4" fill-rule="evenodd"/>
    <path d="M97.180,169.667 C68.585,171.755 48.681,176.366 48.681,181.733 C48.681,189.058 85.779,195.005 131.538,195.005 C177.298,195.005 214.394,189.058 214.394,181.733 C214.388,175.428 187.043,170.186 150.381,168.806 C150.381,168.806 150.381,168.806 150.381,168.806 " id="path-10" class="cls-12" fill-rule="evenodd"/>
    <path d="M116.007,188.197 C116.007,188.197 131.538,188.197 131.538,188.197 C134.532,188.197 136.960,189.721 136.960,191.600 C136.960,193.480 134.532,195.005 131.538,195.005 C131.538,195.005 130.815,195.005 130.815,195.005 C127.821,195.005 125.393,196.527 125.393,198.407 C125.393,200.286 127.821,201.810 130.815,201.810 C130.815,201.810 164.202,201.810 164.202,201.810 C167.197,201.810 169.625,203.334 169.625,205.214 C169.625,207.093 167.197,208.617 164.202,208.617 C164.202,208.617 124.078,208.617 124.078,208.617 C124.078,208.617 79.980,208.617 79.980,208.617 C76.985,208.617 74.557,207.093 74.557,205.214 C74.557,203.334 76.985,201.810 79.980,201.810 C79.980,201.810 89.246,201.810 89.246,201.810 C92.241,201.810 94.667,200.286 94.667,198.407 C94.667,196.527 92.241,195.005 89.246,195.005 C89.246,195.005 45.146,195.005 45.146,195.005 C42.151,195.005 39.723,193.480 39.723,191.600 C39.723,189.721 42.151,188.197 45.146,188.197 C45.146,188.197 55.568,188.197 55.568,188.197 C55.568,188.197 116.007,188.197 116.007,188.197 Z" id="path-11" class="cls-13" fill-rule="evenodd"/>
    <path d="M24.554,156.104 C24.554,156.104 29.555,156.104 29.555,156.104 C30.519,156.104 31.300,156.941 31.300,157.974 C31.300,159.005 30.519,159.843 29.555,159.843 C29.555,159.843 29.322,159.843 29.322,159.843 C28.357,159.843 27.576,160.681 27.576,161.713 C27.576,162.746 28.357,163.582 29.322,163.582 C29.322,163.582 40.071,163.582 40.071,163.582 C41.035,163.582 41.817,164.420 41.817,165.452 C41.817,166.484 41.035,167.322 40.071,167.322 C40.071,167.322 27.154,167.322 27.154,167.322 C27.154,167.322 12.955,167.322 12.955,167.322 C11.990,167.322 11.209,166.484 11.209,165.452 C11.209,164.420 11.990,163.582 12.955,163.582 C12.955,163.582 15.938,163.582 15.938,163.582 C16.902,163.582 17.683,162.746 17.683,161.713 C17.683,160.681 16.902,159.843 15.938,159.843 C15.938,159.843 1.740,159.843 1.740,159.843 C0.775,159.843 -0.006,159.005 -0.006,157.974 C-0.006,156.941 0.775,156.104 1.740,156.104 C1.740,156.104 5.095,156.104 5.095,156.104 C5.095,156.104 24.554,156.104 24.554,156.104 Z" id="path-12" class="cls-13" fill-rule="evenodd"/>
    <path d="M196.357,164.199 C196.357,164.199 201.357,164.199 201.357,164.199 C202.321,164.199 203.103,165.036 203.103,166.069 C203.103,167.102 202.321,167.939 201.357,167.939 C201.357,167.939 201.124,167.939 201.124,167.939 C200.160,167.939 199.378,168.775 199.378,169.808 C199.378,170.841 200.160,171.676 201.124,171.676 C201.124,171.676 211.873,171.676 211.873,171.676 C212.838,171.676 213.619,172.514 213.619,173.547 C213.619,174.580 212.838,175.417 211.873,175.417 C211.873,175.417 198.956,175.417 198.956,175.417 C198.956,175.417 184.758,175.417 184.758,175.417 C183.793,175.417 183.012,174.580 183.012,173.547 C183.012,172.514 183.793,171.676 184.758,171.676 C184.758,171.676 187.741,171.676 187.741,171.676 C188.705,171.676 189.486,170.841 189.486,169.808 C189.486,168.775 188.705,167.939 187.741,167.939 C187.741,167.939 173.542,167.939 173.542,167.939 C172.579,167.939 171.797,167.102 171.797,166.069 C171.797,165.036 172.579,164.199 173.542,164.199 C173.542,164.199 176.898,164.199 176.898,164.199 C176.898,164.199 196.357,164.199 196.357,164.199 Z" id="path-13" class="cls-13" fill-rule="evenodd"/>
    <path d="M212.135,211.562 C215.555,211.562 218.326,209.822 218.326,207.676 C218.326,205.531 215.555,203.790 212.135,203.790 C212.135,203.790 193.163,203.790 193.163,203.790 C189.745,203.790 186.973,205.531 186.973,207.676 C186.973,209.822 189.745,211.562 193.163,211.562 C193.163,211.562 212.135,211.562 212.135,211.562 Z" id="path-14" class="cls-13" fill-rule="evenodd"/>
  </g>
</svg>
