<svg xmlns="http://www.w3.org/2000/svg" xmlns:xlink="http://www.w3.org/1999/xlink" preserveAspectRatio="xMidYMid" width="219" height="183" viewBox="0 0 219 183">
  <defs>
    <style>

      .cls-3 {
        fill: #fbb713;
      }

      .cls-4 {
        fill: #ff3a2f;
      }

      .cls-5 {
        fill: #ddc100;
      }

      .cls-6 {
        fill: #020403;
        opacity: 0.25;
      }

      .cls-7 {
        fill: #020403;
        opacity: 0.35;
      }

      .cls-10 {
        fill: #142a3b;
      }

      .cls-13 {
        fill: #ffffff;
      }
    </style>
  </defs>
  <g id="group-16svg">
    <path d="M157.701,145.004 C157.701,145.004 167.700,145.004 167.700,145.004 C167.700,145.004 189.130,145.004 189.130,145.004 C191.266,145.004 192.996,144.355 192.996,147.005 C192.996,149.654 191.266,149.004 189.130,149.004 C189.130,149.004 166.533,149.004 166.533,149.004 C164.398,149.004 162.667,153.355 162.667,156.004 C162.667,158.653 164.398,163.004 166.533,163.004 C166.533,163.004 176.024,163.004 176.024,163.004 C176.024,163.004 193.031,163.004 193.031,163.004 C193.031,163.004 214.460,163.004 214.460,163.004 C216.595,163.004 218.326,165.855 218.326,168.504 C218.326,171.152 216.595,174.004 214.460,174.004 C214.460,174.004 191.864,174.004 191.864,174.004 C190.375,174.004 189.082,175.470 188.437,177.178 C187.947,178.472 186.730,179.584 185.335,179.583 C167.282,179.578 64.411,185.777 63.143,179.637 C62.196,175.049 28.425,174.004 26.456,174.004 C26.456,174.004 3.860,174.004 3.860,174.004 C1.725,174.004 -0.006,171.152 -0.006,168.504 C-0.006,165.855 1.725,163.004 3.860,163.004 C3.860,163.004 25.289,163.004 25.289,163.004 C25.289,163.004 42.298,163.004 42.298,163.004 C42.298,163.004 51.787,163.004 51.787,163.004 C53.922,163.004 55.654,158.653 55.654,156.004 C55.654,153.355 53.922,149.004 51.787,149.004 C51.787,149.004 29.191,149.004 29.191,149.004 C27.056,149.004 25.325,149.654 25.325,147.005 C25.325,144.355 27.056,145.004 29.191,145.004 C29.191,145.004 50.620,145.004 50.620,145.004 C50.620,145.004 59.362,145.004 59.362,145.004 C59.362,145.004 157.701,145.004 157.701,145.004 Z" id="path-1" class="cls-3" fill-rule="evenodd"/>
    <path d="M151.743,41.982 C151.743,41.982 151.842,42.989 151.842,42.989 C148.694,46.108 144.172,46.182 140.932,43.157 C140.932,43.157 138.462,40.589 138.462,40.589 C135.371,37.703 130.710,37.620 127.520,40.399 C127.520,40.399 125.080,42.584 125.080,42.584 C122.095,45.183 117.698,45.298 114.579,42.860 C114.579,42.860 109.399,38.794 109.399,38.794 C106.600,36.606 102.707,36.450 99.741,38.410 C99.741,38.410 95.320,41.331 95.320,41.331 C92.307,43.322 88.338,43.127 85.537,40.853 C85.537,40.853 82.131,38.087 82.131,38.087 C79.080,35.610 74.685,35.624 71.651,38.122 C71.651,38.122 66.533,42.336 66.533,42.336 C64.523,43.992 60.827,44.310 58.526,43.078 C57.438,42.496 56.933,42.088 53.933,41.810 C53.933,41.810 53.933,126.718 53.933,126.718 C53.933,143.266 67.177,152.004 81.386,152.004 C81.386,152.004 137.663,152.004 137.663,152.004 C151.872,152.004 158.927,143.266 158.927,126.718 C158.927,126.718 158.927,40.420 158.927,40.420 C158.927,38.947 154.298,39.452 151.743,41.982 Z" id="path-2" class="cls-4" fill-rule="evenodd"/>
    <path d="M163.390,18.100 C163.390,18.100 162.741,18.100 162.741,18.100 C162.958,18.100 163.174,18.118 163.390,18.135 C163.390,18.135 163.390,18.100 163.390,18.100 Z" id="path-3" class="cls-5" fill-rule="evenodd"/>
    <path d="M151.596,39.847 C151.596,39.847 150.985,40.854 150.985,40.854 C149.133,42.691 146.682,43.442 144.317,43.155 C144.317,43.155 144.317,116.718 144.317,116.718 C144.317,133.267 134.428,144.720 120.219,144.720 C120.219,144.720 63.943,144.720 63.943,144.720 C62.898,144.720 61.866,144.641 60.844,144.519 C65.792,149.610 72.592,152.586 79.820,152.586 C79.820,152.586 136.098,152.586 136.098,152.586 C151.812,152.586 159.545,145.377 160.196,124.583 C160.196,124.583 160.196,38.285 160.196,38.285 C160.196,36.813 154.149,37.316 151.596,39.847 Z" id="path-4" class="cls-6" fill-rule="evenodd"/>
    <path d="M108.930,24.406 C108.930,24.406 108.930,66.130 108.930,66.130 C108.930,66.130 103.931,67.845 103.931,69.960 C103.931,69.960 103.931,92.344 103.931,92.344 C103.931,94.460 101.604,96.175 98.931,96.175 C96.256,96.175 93.931,94.460 93.931,92.344 C93.931,92.344 93.931,71.117 93.931,71.117 C93.931,71.117 93.931,54.268 93.931,54.268 C93.931,54.268 93.931,44.866 93.931,44.866 C93.931,42.751 91.105,41.036 88.431,41.036 C85.757,41.036 82.932,42.751 82.932,44.866 C82.932,44.866 82.932,67.252 82.932,67.252 C82.932,69.367 82.105,71.082 79.432,71.082 C76.757,71.082 75.932,69.367 75.932,67.252 C75.932,67.252 75.932,46.022 75.932,46.022 C75.932,46.022 75.932,21.536 75.932,21.536 C75.932,21.536 108.930,24.406 108.930,24.406 Z" id="path-5" class="cls-7" fill-rule="evenodd"/>
    <path d="M100.931,24.406 C100.931,24.406 100.931,73.996 100.931,73.996 C100.931,73.996 97.931,75.710 97.931,77.825 C97.931,77.825 97.931,100.210 97.931,100.210 C97.931,102.326 93.105,104.041 90.431,104.041 C87.756,104.041 82.932,102.326 82.932,100.210 C82.932,100.210 82.932,78.981 82.932,78.981 C82.932,78.981 82.932,62.132 82.932,62.132 C82.932,62.132 82.932,52.732 82.932,52.732 C82.932,50.616 82.105,48.901 79.432,48.901 C76.757,48.901 75.932,50.616 75.932,52.732 C75.932,52.732 75.932,75.116 75.932,75.116 C75.932,77.231 74.606,78.946 71.933,78.946 C69.258,78.946 67.933,77.231 67.933,75.116 C67.933,75.116 67.933,53.887 67.933,53.887 C67.933,53.887 67.933,29.402 67.933,29.402 C67.933,29.402 100.931,24.406 100.931,24.406 Z" id="path-6" class="cls-3" fill-rule="evenodd"/>
    <path d="M160.000,54.879 C160.000,54.879 160.000,43.082 160.000,43.082 C157.100,42.050 155.494,41.956 153.160,44.268 C153.160,44.268 152.143,45.275 152.143,45.275 C148.995,48.394 143.914,48.467 140.674,45.442 C140.674,45.442 137.926,42.875 137.926,42.875 C134.835,39.989 130.034,39.905 126.844,42.685 C126.844,42.685 124.335,44.869 124.335,44.869 C121.350,47.468 116.918,47.584 113.799,45.145 C113.799,45.145 108.601,41.079 108.601,41.079 C105.802,38.890 101.900,38.734 98.933,40.693 C98.933,40.693 94.509,43.613 94.509,43.613 C91.496,45.603 87.524,45.405 84.723,43.132 C84.723,43.132 81.316,40.357 81.316,40.357 C78.266,37.879 73.870,37.878 70.837,40.376 C70.837,40.376 65.718,44.558 65.718,44.558 C63.707,46.214 60.874,46.469 58.574,45.238 C57.423,44.621 56.050,44.232 54.580,43.951 C54.580,43.951 54.580,55.707 54.580,55.707 C56.060,55.987 57.416,56.415 58.574,57.034 C60.874,58.267 63.707,58.012 65.718,56.356 C65.718,56.356 70.837,52.173 70.837,52.173 C73.870,49.676 78.266,49.677 81.316,52.154 C81.316,52.154 84.723,54.929 84.723,54.929 C87.524,57.203 91.496,57.401 94.509,55.412 C94.509,55.412 98.933,52.491 98.933,52.491 C101.900,50.532 105.802,50.688 108.601,52.876 C108.601,52.876 113.799,56.942 113.799,56.942 C116.918,59.382 121.350,59.265 124.335,56.667 C124.335,56.667 126.844,54.481 126.844,54.481 C130.034,51.704 134.835,51.786 137.926,54.673 C137.926,54.673 140.674,57.240 140.674,57.240 C143.914,60.265 148.995,60.190 152.143,57.072 C152.143,57.072 153.160,56.065 153.160,56.065 C155.494,53.753 157.100,53.848 160.000,54.879 Z" id="path-7" class="cls-7" fill-rule="evenodd"/>
    <path d="M52.134,22.909 C52.134,22.909 26.810,48.754 26.810,48.754 C26.810,48.754 49.142,41.585 58.574,46.633 C60.874,47.865 63.706,47.736 65.718,46.080 C65.718,46.080 70.837,41.960 70.837,41.960 C73.870,39.463 78.266,39.495 81.316,41.973 C81.316,41.973 84.723,44.762 84.723,44.762 C87.524,47.036 91.496,47.242 94.509,45.253 C94.509,45.253 98.933,42.336 98.933,42.336 C101.900,40.377 105.802,40.535 108.601,42.724 C108.601,42.724 113.799,46.790 113.799,46.790 C116.918,49.229 121.350,49.115 124.335,46.516 C124.335,46.516 126.844,44.330 126.844,44.330 C130.034,41.553 134.835,41.636 137.926,44.522 C137.926,44.522 140.674,47.089 140.674,47.089 C143.914,50.115 148.994,50.040 152.143,46.922 C152.143,46.922 153.160,45.914 153.160,45.914 C156.448,42.657 161.806,42.742 164.987,46.104 C164.987,46.104 167.801,49.079 167.801,49.079 C169.706,51.092 172.638,51.834 175.260,50.901 C179.910,49.245 187.491,47.692 192.239,52.663 C192.239,52.663 168.173,23.366 168.173,23.366 C166.609,21.559 164.327,19.008 161.926,19.008 C161.926,19.008 57.956,19.008 57.956,19.008 C55.773,19.008 53.679,21.379 52.134,22.909 Z" id="path-8" class="cls-10" fill-rule="evenodd"/>
    <path d="M173.927,14.014 C173.927,20.530 168.446,25.009 161.869,25.009 C161.869,25.009 51.049,25.009 51.049,25.009 C44.471,25.009 39.934,20.530 39.934,14.014 C39.934,14.014 39.934,12.374 39.934,12.374 C39.934,5.858 44.471,0.009 51.049,0.009 C51.049,0.009 161.869,0.009 161.869,0.009 C168.446,0.009 173.927,5.858 173.927,12.374 C173.927,12.374 173.927,14.014 173.927,14.014 Z" id="path-9" class="cls-10" fill-rule="evenodd"/>
    <path d="M162.448,1.956 C162.448,1.956 161.718,1.956 161.718,1.956 C162.162,3.191 162.448,4.502 162.448,5.888 C162.448,12.404 157.116,17.686 150.539,17.686 C150.539,17.686 40.118,17.686 40.118,17.686 C41.757,22.258 46.119,25.551 51.297,25.551 C51.297,25.551 162.448,25.551 162.448,25.551 C169.024,25.551 174.357,20.269 174.357,13.754 C174.357,7.238 169.024,1.956 162.448,1.956 Z" id="path-10" class="cls-6" fill-rule="evenodd"/>
    <path d="M67.099,134.213 C65.088,134.213 63.460,132.599 63.460,130.608 C63.460,130.608 63.460,100.713 63.460,100.713 C63.460,98.722 65.088,97.109 67.099,97.109 C69.110,97.109 70.738,98.722 70.738,100.713 C70.738,100.713 70.738,130.608 70.738,130.608 C70.738,132.599 69.110,134.213 67.099,134.213 Z" id="path-11" class="cls-13" fill-rule="evenodd"/>
  </g>
</svg>
