<svg xmlns="http://www.w3.org/2000/svg" xmlns:xlink="http://www.w3.org/1999/xlink" preserveAspectRatio="xMidYMid" width="219" height="214" viewBox="0 0 219 214">
  <defs>
    <style>

      .cls-3 {
        fill: #fbb713;
      }

      .cls-5 {
        fill: #2476ff;
      }

      .cls-7 {
        fill: #142a3b;
      }

      .cls-9 {
        fill: #020403;
        opacity: 0.35;
      }

      .cls-10 {
        fill: #ffffff;
      }
    </style>
  </defs>
  <g id="group-146svg">
    <path d="M168.958,179.630 C168.958,179.630 183.262,179.630 183.262,179.630 C186.020,179.630 188.255,182.120 188.255,185.192 C188.255,188.266 186.020,190.755 183.262,190.755 C183.262,190.755 182.596,190.755 182.596,190.755 C179.838,190.755 177.603,193.247 177.603,196.318 C177.603,199.392 179.838,201.882 182.596,201.882 C182.596,201.882 213.345,201.882 213.345,201.882 C216.104,201.882 218.339,204.374 218.339,207.444 C218.339,210.516 216.104,213.008 213.345,213.008 C213.345,213.008 176.393,213.008 176.393,213.008 C176.393,213.008 100.863,213.008 100.863,213.008 C98.106,213.008 95.869,210.516 95.869,207.444 C95.869,204.374 98.106,201.882 100.863,201.882 C100.863,201.882 109.397,201.882 109.397,201.882 C112.155,201.882 114.391,199.392 114.391,196.318 C114.391,193.247 112.155,190.755 109.397,190.755 C109.397,190.755 68.783,190.755 68.783,190.755 C66.024,190.755 63.789,188.266 63.789,185.192 C63.789,182.120 66.024,179.630 68.783,179.630 C68.783,179.630 78.382,179.630 78.382,179.630 C78.382,179.630 168.958,179.630 168.958,179.630 Z" id="path-1" class="cls-3" fill-rule="evenodd"/>
    <path d="M68.635,213.307 C72.047,213.307 74.813,211.571 74.813,209.429 C74.813,207.287 72.047,205.550 68.635,205.550 C68.635,205.550 49.700,205.550 49.700,205.550 C46.288,205.550 43.522,207.287 43.522,209.429 C43.522,211.571 46.288,213.307 49.700,213.307 C49.700,213.307 68.635,213.307 68.635,213.307 Z" id="path-2" class="cls-3" fill-rule="evenodd"/>
    <path d="M48.874,139.323 C48.874,139.323 0.007,139.323 0.007,139.323 C0.007,139.323 19.511,92.738 19.511,92.738 C19.511,92.738 0.007,46.326 0.007,46.326 C0.007,46.326 48.874,46.326 48.874,46.326 C48.874,46.326 48.874,139.323 48.874,139.323 Z" id="path-3" class="cls-5" fill-rule="evenodd"/>
    <path d="M139.869,146.321 C139.869,146.321 48.874,146.321 48.874,146.321 C48.874,146.321 48.874,35.326 48.874,35.326 C48.874,35.326 139.869,35.326 139.869,35.326 C139.869,35.326 139.869,146.321 139.869,146.321 Z" id="path-4" class="cls-5" fill-rule="evenodd"/>
    <path d="M136.369,197.118 C134.357,197.118 132.869,195.503 132.869,193.513 C132.869,193.513 132.869,27.691 132.869,27.691 C132.869,25.699 134.357,24.085 136.369,24.085 C138.380,24.085 139.869,25.699 139.869,27.691 C139.869,27.691 139.869,193.513 139.869,193.513 C139.869,195.503 138.380,197.118 136.369,197.118 Z" id="path-5" class="cls-7" fill-rule="evenodd"/>
    <path d="M130.568,29.336 C131.520,29.743 132.521,30.061 133.553,30.275 C133.572,30.277 142.937,29.895 142.937,29.895 C148.389,27.515 152.199,21.819 152.209,15.529 C152.191,7.031 145.271,0.011 136.690,-0.005 C128.123,0.011 121.194,6.801 121.184,15.299 C121.189,21.632 125.051,26.982 130.568,29.336 Z" id="path-6" class="cls-5" fill-rule="evenodd"/>
    <path d="M133.572,1.166 C130.291,3.963 128.173,8.050 128.167,12.698 C128.172,19.030 132.034,24.380 137.551,26.736 C138.503,27.143 139.504,27.461 140.536,27.675 C140.549,27.675 144.924,27.498 147.694,27.386 C146.330,28.796 144.736,29.968 142.937,30.754 C142.937,30.754 133.572,31.135 133.553,31.133 C132.521,30.919 131.520,30.602 130.568,30.195 C125.051,27.840 121.189,22.489 121.184,16.157 C121.193,8.718 126.503,2.589 133.572,1.166 Z" id="path-7" class="cls-9" fill-rule="evenodd"/>
    <path d="M136.296,14.531 C138.475,16.689 142.009,16.689 144.189,14.531 C146.368,12.371 146.368,8.869 144.189,6.711 C142.009,4.551 138.475,4.551 136.296,6.711 C134.116,8.869 134.116,12.371 136.296,14.531 Z" id="path-8" class="cls-10" fill-rule="evenodd"/>
    <path d="M33.168,138.733 C33.168,138.733 48.291,138.733 48.291,138.733 C48.291,138.733 48.291,45.343 48.291,45.343 C48.291,45.343 40.152,45.343 40.152,45.343 C40.152,45.343 33.168,138.733 33.168,138.733 Z" id="path-9" class="cls-9" fill-rule="evenodd"/>
  </g>
</svg>
