<svg xmlns="http://www.w3.org/2000/svg" xmlns:xlink="http://www.w3.org/1999/xlink" preserveAspectRatio="xMidYMid" width="219" height="192" viewBox="0 0 219 192">
  <defs>
    <style>

      .cls-3 {
        fill: #2476ff;
      }

      .cls-7 {
        fill: #fbb713;
      }

      .cls-8 {
        fill: #ff3a2f;
      }

      .cls-9 {
        fill: #020403;
        opacity: 0.25;
      }

      .cls-10 {
        fill: #0cb04a;
      }

      .cls-11 {
        fill: #ffffff;
      }

      .cls-12 {
        fill: #142a3b;
      }
    </style>
  </defs>
  <g id="group-34svg">
    <path d="M28.271,77.935 C28.271,77.935 33.594,77.935 33.594,77.935 C34.620,77.935 35.452,78.765 35.452,79.789 C35.452,80.812 34.620,81.642 33.594,81.642 C33.594,81.642 33.346,81.642 33.346,81.642 C32.319,81.642 31.487,82.471 31.487,83.495 C31.487,84.519 32.319,85.348 33.346,85.348 C33.346,85.348 44.788,85.348 44.788,85.348 C45.814,85.348 46.647,86.179 46.647,87.202 C46.647,88.225 45.814,89.055 44.788,89.055 C44.788,89.055 31.037,89.055 31.037,89.055 C31.037,89.055 15.924,89.055 15.924,89.055 C14.897,89.055 14.066,88.225 14.066,87.202 C14.066,86.179 14.897,85.348 15.924,85.348 C15.924,85.348 19.099,85.348 19.099,85.348 C20.126,85.348 20.958,84.519 20.958,83.495 C20.958,82.471 20.126,81.642 19.099,81.642 C19.099,81.642 3.986,81.642 3.986,81.642 C2.960,81.642 2.128,80.812 2.128,79.789 C2.128,78.765 2.960,77.935 3.986,77.935 C3.986,77.935 7.558,77.935 7.558,77.935 C7.558,77.935 28.271,77.935 28.271,77.935 Z" id="path-1" class="cls-3" fill-rule="evenodd"/>
    <path d="M16.075,2.686 C16.075,2.686 19.349,2.686 19.349,2.686 C19.980,2.686 20.492,3.196 20.492,3.827 C20.492,4.456 19.980,4.966 19.349,4.966 C19.349,4.966 19.197,4.966 19.197,4.966 C18.565,4.966 18.054,5.476 18.054,6.106 C18.054,6.736 18.565,7.245 19.197,7.245 C19.197,7.245 26.236,7.245 26.236,7.245 C26.866,7.245 27.378,7.757 27.378,8.386 C27.378,9.015 26.866,9.526 26.236,9.526 C26.236,9.526 17.777,9.526 17.777,9.526 C17.777,9.526 8.481,9.526 8.481,9.526 C7.849,9.526 7.337,9.015 7.337,8.386 C7.337,7.757 7.849,7.245 8.481,7.245 C8.481,7.245 10.434,7.245 10.434,7.245 C11.065,7.245 11.576,6.736 11.576,6.106 C11.576,5.476 11.065,4.966 10.434,4.966 C10.434,4.966 1.138,4.966 1.138,4.966 C0.506,4.966 -0.006,4.456 -0.006,3.827 C-0.006,3.196 0.506,2.686 1.138,2.686 C1.138,2.686 3.334,2.686 3.334,2.686 C3.334,2.686 16.075,2.686 16.075,2.686 Z" id="path-2" class="cls-3" fill-rule="evenodd"/>
    <path d="M193.300,29.265 C193.300,29.265 200.549,29.265 200.549,29.265 C201.947,29.265 203.080,30.300 203.080,31.577 C203.080,32.854 201.947,33.890 200.549,33.890 C200.549,33.890 200.212,33.890 200.212,33.890 C198.814,33.890 197.681,34.925 197.681,36.201 C197.681,37.478 198.814,38.513 200.212,38.513 C200.212,38.513 215.796,38.513 215.796,38.513 C217.193,38.513 218.326,39.548 218.326,40.825 C218.326,42.103 217.193,43.137 215.796,43.137 C215.796,43.137 197.068,43.137 197.068,43.137 C197.068,43.137 176.485,43.137 176.485,43.137 C175.086,43.137 173.954,42.103 173.954,40.825 C173.954,39.548 175.086,38.513 176.485,38.513 C176.485,38.513 180.809,38.513 180.809,38.513 C182.207,38.513 183.340,37.478 183.340,36.201 C183.340,34.925 182.207,33.890 180.809,33.890 C180.809,33.890 160.226,33.890 160.226,33.890 C158.827,33.890 157.695,32.854 157.695,31.577 C157.695,30.300 158.827,29.265 160.226,29.265 C160.226,29.265 165.090,29.265 165.090,29.265 C165.090,29.265 193.300,29.265 193.300,29.265 Z" id="path-3" class="cls-3" fill-rule="evenodd"/>
    <path d="M159.933,11.196 C163.509,11.196 166.407,10.091 166.407,8.729 C166.407,7.366 163.509,6.261 159.933,6.261 C159.933,6.261 140.092,6.261 140.092,6.261 C136.517,6.261 133.618,7.366 133.618,8.729 C133.618,10.091 136.517,11.196 140.092,11.196 C140.092,11.196 159.933,11.196 159.933,11.196 Z" id="path-4" class="cls-3" fill-rule="evenodd"/>
    <path d="M166.060,55.717 C166.060,86.490 109.815,133.701 109.815,133.701 C109.815,133.701 53.572,86.490 53.572,55.717 C53.572,24.946 78.753,-0.000 109.815,-0.000 C140.877,-0.000 166.060,24.946 166.060,55.717 Z" id="path-5" class="cls-7" fill-rule="evenodd"/>
    <path d="M109.815,133.701 C109.815,133.701 166.060,86.490 166.060,55.717 C166.060,24.946 140.877,-0.000 109.815,-0.000 C109.815,-0.000 107.569,1.612 107.569,1.612 C126.886,7.597 141.213,29.551 141.213,55.717 C141.213,76.221 121.566,116.247 108.453,132.518 C108.453,132.518 109.815,133.701 109.815,133.701 Z" id="path-6" class="cls-8" fill-rule="evenodd"/>
    <path d="M135.328,6.106 C147.426,16.326 155.123,31.510 155.123,48.495 C155.123,76.303 109.203,117.524 100.355,125.211 C105.989,130.483 109.815,133.701 109.815,133.701 C109.815,133.701 166.059,86.490 166.059,55.717 C166.059,34.055 153.553,15.323 135.328,6.106 Z" id="path-7" class="cls-9" fill-rule="evenodd"/>
    <path d="M109.130,133.701 C109.130,133.701 52.886,86.490 52.886,55.717 C52.886,24.946 78.067,-0.000 109.130,-0.000 C109.130,-0.000 111.376,1.612 111.376,1.612 C92.060,7.597 77.733,29.551 77.733,55.717 C77.733,76.221 97.380,116.247 110.493,132.518 C110.493,132.518 109.130,133.701 109.130,133.701 Z" id="path-8" class="cls-10" fill-rule="evenodd"/>
    <path d="M67.504,63.244 C65.983,63.244 64.566,62.294 64.054,60.788 C62.842,57.217 62.227,53.838 62.227,50.746 C62.227,36.536 68.528,23.131 79.512,13.968 C81.061,12.683 83.350,12.883 84.640,14.405 C85.936,15.927 85.738,18.202 84.202,19.485 C74.860,27.273 69.504,38.669 69.504,50.746 C69.504,53.055 69.991,55.660 70.955,58.489 C71.594,60.376 70.571,62.420 68.666,63.055 C68.278,63.183 67.888,63.244 67.504,63.244 Z" id="path-9" class="cls-11" fill-rule="evenodd"/>
    <path d="M109.131,143.929 C107.120,143.929 105.492,142.315 105.492,140.324 C105.492,140.324 105.492,133.700 105.492,133.700 C105.492,131.710 107.120,130.095 109.131,130.095 C111.142,130.095 112.770,131.710 112.770,133.700 C112.770,133.700 112.770,140.324 112.770,140.324 C112.770,142.315 111.142,143.929 109.131,143.929 Z" id="path-10" class="cls-12" fill-rule="evenodd"/>
    <path d="M135.598,191.407 C135.598,191.407 84.033,191.407 84.033,191.407 C84.033,191.407 84.033,140.324 84.033,140.324 C84.033,140.324 135.598,140.324 135.598,140.324 C135.598,140.324 135.598,191.407 135.598,191.407 Z" id="path-11" class="cls-12" fill-rule="evenodd"/>
    <path d="M121.015,140.324 C121.015,140.324 121.015,191.407 121.015,191.407 C121.015,191.407 135.598,191.407 135.598,191.407 C135.598,191.407 135.598,140.324 135.598,140.324 C135.598,140.324 121.015,140.324 121.015,140.324 Z" id="path-12" class="cls-9" fill-rule="evenodd"/>
  </g>
</svg>
