<svg xmlns="http://www.w3.org/2000/svg" xmlns:xlink="http://www.w3.org/1999/xlink" preserveAspectRatio="xMidYMid" width="182" height="217" viewBox="0 0 182 217">
  <defs>
    <style>

      .cls-3 {
        fill: #ff3a2f;
      }

      .cls-5 {
        fill: #142a3b;
      }

      .cls-6 {
        fill: #020403;
        opacity: 0.35;
      }

      .cls-7 {
        fill: #fbb713;
      }

      .cls-9 {
        fill: #ffffff;
      }
    </style>
  </defs>
  <g id="group-158svg">
    <path d="M77.436,192.576 C77.436,192.576 93.205,192.576 93.205,192.576 C96.245,192.576 98.710,194.122 98.710,196.030 C98.710,197.939 96.245,199.487 93.205,199.487 C93.205,199.487 92.471,199.487 92.471,199.487 C89.431,199.487 86.966,201.033 86.966,202.942 C86.966,204.849 89.431,206.397 92.471,206.397 C92.471,206.397 126.370,206.397 126.370,206.397 C129.410,206.397 131.874,207.944 131.874,209.852 C131.874,211.760 129.410,213.306 126.370,213.306 C126.370,213.306 85.632,213.306 85.632,213.306 C85.632,213.306 40.858,213.306 40.858,213.306 C37.817,213.306 35.353,211.760 35.353,209.852 C35.353,207.944 37.817,206.397 40.858,206.397 C40.858,206.397 50.266,206.397 50.266,206.397 C53.306,206.397 55.770,204.849 55.770,202.942 C55.770,201.033 53.306,199.487 50.266,199.487 C50.266,199.487 5.491,199.487 5.491,199.487 C2.451,199.487 -0.014,197.939 -0.014,196.030 C-0.014,194.122 2.451,192.576 5.491,192.576 C5.491,192.576 16.073,192.576 16.073,192.576 C16.073,192.576 77.436,192.576 77.436,192.576 Z" id="path-1" class="cls-3" fill-rule="evenodd"/>
    <path d="M175.035,216.298 C178.506,216.298 181.321,214.530 181.321,212.352 C181.321,210.172 178.506,208.405 175.035,208.405 C175.035,208.405 155.773,208.405 155.773,208.405 C152.302,208.405 149.488,210.172 149.488,212.352 C149.488,214.530 152.302,216.298 155.773,216.298 C155.773,216.298 175.035,216.298 175.035,216.298 Z" id="path-2" class="cls-3" fill-rule="evenodd"/>
    <path d="M129.849,0.006 C134.301,0.006 142.178,0.145 148.166,0.145 C151.930,0.145 152.622,3.528 152.622,3.528 C152.622,3.528 152.622,43.209 152.622,55.396 C152.622,62.302 154.683,63.249 156.219,64.337 C158.250,65.764 163.764,67.301 166.311,68.395 C174.194,71.787 173.338,79.910 173.338,79.910 C173.338,79.910 173.282,184.951 173.282,204.453 C173.282,209.058 171.104,211.003 167.338,211.003 C150.224,211.003 130.242,210.864 114.022,210.864 C110.083,210.864 105.883,210.594 105.883,205.179 C105.883,181.072 105.883,79.510 105.883,79.510 C105.883,79.510 105.991,71.518 113.589,68.132 C120.264,65.145 119.590,65.693 122.488,63.929 C125.660,62.010 125.743,60.817 125.743,55.532 C125.743,24.642 125.573,6.784 125.573,3.528 C125.573,1.632 128.184,0.006 129.849,0.006 Z" id="path-3" class="cls-5" fill-rule="evenodd"/>
    <path d="M166.311,68.395 C163.764,67.301 158.250,65.764 156.218,64.337 C154.683,63.249 152.622,62.302 152.622,55.396 C152.622,43.207 152.622,3.528 152.622,3.528 C152.622,3.528 151.930,0.145 148.166,0.145 C142.178,0.145 134.302,0.004 129.849,0.004 C128.184,0.004 125.573,1.632 125.573,3.528 C125.573,3.624 125.573,3.776 125.573,3.899 C129.201,3.936 133.170,3.982 136.549,3.982 C140.313,3.982 141.004,7.365 141.004,7.365 C141.004,7.365 141.004,47.044 141.004,59.231 C141.004,66.139 143.065,67.086 144.601,68.172 C146.632,69.601 152.147,71.136 154.694,72.232 C162.577,75.624 161.720,83.747 161.720,83.747 C161.720,83.747 161.664,188.786 161.664,208.288 C161.664,209.331 161.538,210.220 161.322,210.997 C163.355,211.001 165.369,211.003 167.338,211.003 C171.104,211.003 173.282,209.058 173.282,204.453 C173.282,184.951 173.338,79.910 173.338,79.910 C173.338,79.910 174.194,71.787 166.311,68.395 Z" id="path-4" class="cls-6" fill-rule="evenodd"/>
    <path d="M152.288,22.234 C152.288,22.234 126.262,22.234 126.262,22.234 C126.262,22.234 126.262,15.024 126.262,15.024 C126.262,15.024 152.288,15.024 152.288,15.024 C152.288,15.024 152.288,22.234 152.288,22.234 Z" id="path-5" class="cls-7" fill-rule="evenodd"/>
    <path d="M164.661,163.911 C164.661,165.381 163.500,166.568 162.090,166.568 C162.090,166.568 117.745,166.568 117.745,166.568 C116.333,166.568 115.190,165.381 115.190,163.911 C115.190,163.911 115.190,105.516 115.190,105.516 C115.190,104.051 116.333,102.862 117.745,102.862 C117.745,102.862 162.090,102.862 162.090,102.862 C163.500,102.862 164.661,104.051 164.661,105.516 C164.661,105.516 164.661,163.911 164.661,163.911 Z" id="path-6" class="cls-7" fill-rule="evenodd"/>
    <path d="M115.190,98.679 C113.181,98.679 111.551,97.064 111.551,95.074 C111.551,76.148 124.046,68.888 130.654,67.690 C132.626,67.347 134.527,68.632 134.887,70.589 C135.247,72.539 133.949,74.410 131.985,74.778 C131.384,74.897 118.829,77.628 118.829,95.074 C118.829,97.064 117.199,98.679 115.190,98.679 Z" id="path-7" class="cls-9" fill-rule="evenodd"/>
  </g>
</svg>
