<svg xmlns="http://www.w3.org/2000/svg" xmlns:xlink="http://www.w3.org/1999/xlink" preserveAspectRatio="xMidYMid" width="213" height="217" viewBox="0 0 213 217">
  <defs>
    <style>

      .cls-3 {
        fill: #fbb713;
      }

      .cls-4 {
        fill: #020403;
        opacity: 0.25;
      }

      .cls-7 {
        fill: #ffffff;
      }

      .cls-9 {
        fill: #ff3a2f;
      }

      .cls-15 {
        fill: #142a3b;
      }

      .cls-16 {
        fill: #000000;
        opacity: 0.35;
      }

      .cls-19 {
        fill: #db2c3f;
      }
    </style>
  </defs>
  <g id="group-36svg">
    <path d="M74.491,146.532 C74.491,146.532 26.269,125.614 74.491,47.642 C74.491,47.642 79.052,78.070 88.405,85.677 C88.405,85.677 102.579,47.642 120.325,47.642 C120.325,47.642 132.728,51.446 121.962,17.214 C121.962,17.214 136.253,24.822 141.961,53.348 C141.961,53.348 145.851,62.856 141.961,81.875 C141.961,81.875 167.478,70.463 167.172,38.134 C167.172,38.134 211.637,95.186 167.176,146.532 C138.224,165.329 107.358,165.606 74.491,146.532 Z" id="path-1" class="cls-3" fill-rule="evenodd"/>
    <path d="M123.063,47.392 C124.977,51.869 126.727,57.222 128.023,63.703 C128.023,63.703 131.914,73.212 128.023,92.229 C128.023,92.229 135.386,88.888 142.156,80.824 C145.686,62.522 141.961,53.347 141.961,53.347 C136.253,24.822 121.962,17.214 121.962,17.214 C129.207,40.247 125.961,46.054 123.063,47.392 Z" id="path-2" class="cls-4" fill-rule="evenodd"/>
    <path d="M74.467,96.033 C74.467,96.033 77.733,87.283 83.085,78.179 C77.327,66.440 74.491,47.642 74.491,47.642 C69.664,55.447 65.842,62.656 62.803,69.353 C65.018,78.833 68.881,91.490 74.467,96.033 Z" id="path-3" class="cls-4" fill-rule="evenodd"/>
    <path d="M167.172,38.134 C167.266,48.045 164.922,55.971 161.640,62.224 C171.483,81.394 183.307,117.730 156.909,152.356 C160.358,150.662 163.780,148.737 167.176,146.532 C211.637,95.186 167.172,38.134 167.172,38.134 Z" id="path-4" class="cls-4" fill-rule="evenodd"/>
    <path d="M76.713,141.958 C75.903,141.958 75.085,141.691 74.407,141.140 C64.265,132.889 59.687,104.103 59.202,100.849 C58.907,98.879 60.277,97.046 62.265,96.754 C64.268,96.458 66.106,97.820 66.400,99.788 C68.088,111.025 73.010,130.675 79.026,135.567 C80.579,136.831 80.803,139.102 79.527,140.641 C78.809,141.510 77.765,141.958 76.713,141.958 Z" id="path-5" class="cls-7" fill-rule="evenodd"/>
    <path d="M94.129,156.233 C94.129,156.233 66.882,144.413 94.129,100.357 C94.129,100.357 96.707,117.549 101.992,121.847 C101.992,121.847 110.001,100.357 120.028,100.357 C120.028,100.357 127.036,102.505 120.953,83.163 C120.953,83.163 129.027,87.461 132.253,103.579 C132.253,103.579 134.451,108.953 132.253,119.699 C132.253,119.699 146.672,113.251 146.499,94.984 C146.499,94.984 171.622,127.220 146.500,156.233 C130.141,166.854 112.700,167.010 94.129,156.233 Z" id="path-6" class="cls-4" fill-rule="evenodd"/>
    <path d="M97.192,154.857 C97.192,154.857 76.880,146.046 97.192,113.206 C97.192,113.206 99.112,126.021 103.052,129.225 C103.052,129.225 109.022,113.206 116.497,113.206 C116.497,113.206 121.721,114.807 117.186,100.389 C117.186,100.389 123.205,103.593 125.609,115.608 C125.609,115.608 127.248,119.614 125.609,127.623 C125.609,127.623 136.357,122.817 136.228,109.201 C136.228,109.201 154.956,133.230 136.229,154.857 C124.036,162.774 111.034,162.890 97.192,154.857 Z" id="path-7" class="cls-9" fill-rule="evenodd"/>
    <path d="M116.992,113.255 C117.624,114.911 118.194,116.833 118.640,119.060 C118.640,119.060 120.279,123.065 118.640,131.075 C118.640,131.075 123.004,129.106 126.138,124.160 C126.748,118.483 125.609,115.608 125.609,115.608 C123.205,103.593 117.186,100.389 117.186,100.389 C120.829,111.971 118.176,113.213 116.992,113.255 Z" id="path-8" class="cls-4" fill-rule="evenodd"/>
    <path d="M136.228,109.200 C136.271,113.712 135.111,117.239 133.551,119.962 C137.667,128.732 141.614,144.040 129.260,158.309 C129.080,158.426 128.897,158.503 128.717,158.616 C131.252,157.655 133.761,156.460 136.229,154.856 C154.956,133.230 136.228,109.200 136.228,109.200 Z" id="path-9" class="cls-4" fill-rule="evenodd"/>
    <path d="M96.083,132.677 C96.083,132.677 97.623,128.556 100.113,124.494 C98.157,119.606 97.192,113.206 97.192,113.206 C94.852,116.989 93.072,120.440 91.716,123.609 C92.689,127.177 94.140,131.095 96.083,132.677 Z" id="path-10" class="cls-4" fill-rule="evenodd"/>
    <path d="M100.676,154.810 C100.431,154.810 100.181,154.761 99.947,154.659 C99.804,154.597 85.797,148.264 90.991,128.309 C91.244,127.346 92.225,126.761 93.209,127.014 C94.183,127.263 94.766,128.244 94.517,129.209 C90.085,146.227 101.290,151.307 101.404,151.356 C102.324,151.755 102.744,152.819 102.342,153.730 C102.042,154.407 101.375,154.810 100.676,154.810 Z" id="path-11" class="cls-7" fill-rule="evenodd"/>
    <path d="M106.534,136.081 C106.325,136.081 106.112,136.045 105.906,135.969 C104.960,135.624 104.481,134.588 104.830,133.654 C105.483,131.894 111.482,116.456 119.981,116.456 C120.988,116.456 121.801,117.264 121.801,118.259 C121.801,119.254 120.988,120.061 119.981,120.061 C115.468,120.061 110.384,129.165 108.241,134.904 C107.970,135.631 107.274,136.081 106.534,136.081 Z" id="path-12" class="cls-7" fill-rule="evenodd"/>
    <path d="M26.026,202.504 C26.026,202.504 212.775,158.455 212.775,158.455 C212.775,158.455 207.883,138.105 207.883,138.105 C207.883,138.105 21.135,182.155 21.135,182.155 C21.135,182.155 26.026,202.504 26.026,202.504 Z" id="path-13" class="cls-15" fill-rule="evenodd"/>
    <path d="M148.271,174.656 C148.271,174.656 163.246,171.123 163.246,171.123 C163.246,171.123 164.977,165.858 164.977,165.858 C164.977,165.858 135.156,156.245 135.156,156.245 C135.156,156.245 109.749,162.238 109.749,162.238 C109.749,162.238 148.271,174.656 148.271,174.656 Z" id="path-14" class="cls-16" fill-rule="evenodd"/>
    <path d="M101.318,184.087 C101.318,184.087 125.683,178.340 125.683,178.340 C125.683,178.340 126.301,176.457 126.301,176.457 C126.301,176.457 92.070,165.422 92.070,165.422 C92.070,165.422 63.974,172.049 63.974,172.049 C63.974,172.049 101.318,184.087 101.318,184.087 Z" id="path-15" class="cls-16" fill-rule="evenodd"/>
    <path d="M207.883,202.504 C207.883,202.504 21.135,158.455 21.135,158.455 C21.135,158.455 26.026,138.105 26.026,138.105 C26.026,138.105 212.775,182.155 212.775,182.155 C212.775,182.155 207.883,202.504 207.883,202.504 Z" id="path-16" class="cls-15" fill-rule="evenodd"/>
    <path d="M176.200,19.477 C176.200,19.477 176.200,22.576 176.200,22.576 C176.200,23.174 175.708,23.659 175.101,23.659 C174.493,23.659 174.001,23.174 174.001,22.576 C174.001,22.576 174.001,22.433 174.001,22.433 C174.001,21.835 173.508,21.350 172.901,21.350 C172.294,21.350 171.801,21.835 171.801,22.433 C171.801,22.433 171.801,29.097 171.801,29.097 C171.801,29.695 171.308,30.179 170.701,30.179 C170.093,30.179 169.601,29.695 169.601,29.097 C169.601,29.097 169.601,21.089 169.601,21.089 C169.601,21.089 169.601,12.286 169.601,12.286 C169.601,11.688 170.093,11.204 170.701,11.204 C171.308,11.204 171.801,11.688 171.801,12.286 C171.801,12.286 171.801,14.135 171.801,14.135 C171.801,14.733 172.294,15.217 172.901,15.217 C173.508,15.217 174.001,14.733 174.001,14.135 C174.001,14.135 174.001,5.333 174.001,5.333 C174.001,4.735 174.493,4.251 175.101,4.251 C175.708,4.251 176.200,4.735 176.200,5.333 C176.200,5.333 176.200,7.413 176.200,7.413 C176.200,7.413 176.200,19.477 176.200,19.477 Z" id="path-17" class="cls-19" fill-rule="evenodd"/>
    <path d="M101.080,33.708 C101.080,33.708 101.080,40.573 101.080,40.573 C101.080,41.895 100.081,42.968 98.849,42.968 C97.617,42.968 96.618,41.895 96.618,40.573 C96.618,40.573 96.618,40.252 96.618,40.252 C96.618,38.929 95.619,37.856 94.388,37.856 C93.155,37.856 92.156,38.929 92.156,40.252 C92.156,40.252 92.156,55.007 92.156,55.007 C92.156,56.331 91.157,57.404 89.926,57.404 C88.694,57.404 87.695,56.331 87.695,55.007 C87.695,55.007 87.695,37.275 87.695,37.275 C87.695,37.275 87.695,17.786 87.695,17.786 C87.695,16.463 88.694,15.390 89.926,15.390 C91.157,15.390 92.156,16.463 92.156,17.786 C92.156,17.786 92.156,21.881 92.156,21.881 C92.156,23.204 93.155,24.278 94.388,24.278 C95.619,24.278 96.618,23.204 96.618,21.881 C96.618,21.881 96.618,2.392 96.618,2.392 C96.618,1.068 97.617,-0.005 98.849,-0.005 C100.081,-0.005 101.080,1.068 101.080,2.392 C101.080,2.392 101.080,6.998 101.080,6.998 C101.080,6.998 101.080,33.708 101.080,33.708 Z" id="path-18" class="cls-19" fill-rule="evenodd"/>
    <path d="M40.224,77.325 C40.224,80.712 41.291,83.457 42.606,83.457 C43.920,83.457 44.985,80.712 44.985,77.325 C44.985,77.325 44.985,58.540 44.985,58.540 C44.985,55.155 43.920,52.410 42.606,52.410 C41.291,52.410 40.224,55.155 40.224,58.540 C40.224,58.540 40.224,77.325 40.224,77.325 Z" id="path-19" class="cls-3" fill-rule="evenodd"/>
    <path d="M151.259,33.172 C151.259,35.890 152.143,38.092 153.233,38.092 C154.323,38.092 155.207,35.890 155.207,33.172 C155.207,33.172 155.207,18.096 155.207,18.096 C155.207,15.380 154.323,13.176 153.233,13.176 C152.143,13.176 151.259,15.380 151.259,18.096 C151.259,18.096 151.259,33.172 151.259,33.172 Z" id="path-20" class="cls-3" fill-rule="evenodd"/>
    <path d="M141.430,195.031 C141.430,195.031 147.005,195.031 147.005,195.031 C148.080,195.031 148.952,196.616 148.952,198.573 C148.952,200.529 148.080,202.116 147.005,202.116 C147.005,202.116 146.746,202.116 146.746,202.116 C145.671,202.116 144.800,203.701 144.800,205.658 C144.800,207.615 145.671,209.202 146.746,209.202 C146.746,209.202 158.731,209.202 158.731,209.202 C159.805,209.202 160.677,210.787 160.677,212.744 C160.677,214.700 159.805,216.286 158.731,216.286 C158.731,216.286 144.328,216.286 144.328,216.286 C144.328,216.286 128.498,216.286 128.498,216.286 C127.424,216.286 126.552,214.700 126.552,212.744 C126.552,210.787 127.424,209.202 128.498,209.202 C128.498,209.202 131.824,209.202 131.824,209.202 C132.899,209.202 133.771,207.615 133.771,205.658 C133.771,203.701 132.899,202.116 131.824,202.116 C131.824,202.116 115.995,202.116 115.995,202.116 C114.920,202.116 114.048,200.529 114.048,198.573 C114.048,196.616 114.920,195.031 115.995,195.031 C115.995,195.031 119.736,195.031 119.736,195.031 C119.736,195.031 141.430,195.031 141.430,195.031 Z" id="path-21" class="cls-3" fill-rule="evenodd"/>
    <path d="M25.143,126.444 C28.561,126.444 31.332,124.752 31.332,122.665 C31.332,120.577 28.561,118.884 25.143,118.884 C25.143,118.884 6.180,118.884 6.180,118.884 C2.762,118.884 -0.008,120.577 -0.008,122.665 C-0.008,124.752 2.762,126.444 6.180,126.444 C6.180,126.444 25.143,126.444 25.143,126.444 Z" id="path-22" class="cls-3" fill-rule="evenodd"/>
  </g>
</svg>
