<svg xmlns="http://www.w3.org/2000/svg" xmlns:xlink="http://www.w3.org/1999/xlink" preserveAspectRatio="xMidYMid" width="219" height="214" viewBox="0 0 219 214">
  <defs>
    <style>

      .cls-3 {
        fill: #142a3b;
      }

      .cls-7 {
        fill: #fbb713;
      }

      .cls-21 {
        fill: #ff3a2f;
      }

      .cls-22 {
        fill: #ffffff;
      }

      .cls-23 {
        fill: #2476ff;
      }

      .cls-26 {
        fill: #020403;
        opacity: 0.35;
      }
    </style>
  </defs>
  <g id="group-105svg">
    <path d="M180.553,171.915 C183.839,171.915 186.503,170.731 186.503,169.269 C186.503,167.806 183.839,166.622 180.553,166.622 C180.553,166.622 162.319,166.622 162.319,166.622 C159.034,166.622 156.369,167.806 156.369,169.269 C156.369,170.731 159.034,171.915 162.319,171.915 C162.319,171.915 180.553,171.915 180.553,171.915 Z" id="path-1" class="cls-3" fill-rule="evenodd"/>
    <path d="M194.668,135.181 C194.668,135.181 201.521,135.181 201.521,135.181 C202.843,135.181 203.915,135.768 203.915,136.495 C203.915,137.222 202.843,137.810 201.521,137.810 C201.521,137.810 201.203,137.810 201.203,137.810 C199.882,137.810 198.810,138.398 198.810,139.125 C198.810,139.851 199.882,140.440 201.203,140.440 C201.203,140.440 215.937,140.440 215.937,140.440 C217.259,140.440 218.330,141.029 218.330,141.755 C218.330,142.482 217.259,143.070 215.937,143.070 C215.937,143.070 198.231,143.070 198.231,143.070 C198.231,143.070 162.038,143.070 162.038,143.070 C160.716,143.070 159.645,142.482 159.645,141.755 C159.645,141.029 160.716,140.440 162.038,140.440 C162.038,140.440 166.127,140.440 166.127,140.440 C167.449,140.440 168.519,139.851 168.519,139.125 C168.519,138.398 167.449,137.810 166.127,137.810 C166.127,137.810 146.665,137.810 146.665,137.810 C145.344,137.810 144.273,137.222 144.273,136.495 C144.273,135.768 145.344,135.181 146.665,135.181 C146.665,135.181 151.264,135.181 151.264,135.181 C151.264,135.181 194.668,135.181 194.668,135.181 Z" id="path-2" class="cls-3" fill-rule="evenodd"/>
    <path d="M190.288,212.810 C187.323,212.640 185.021,210.761 185.146,208.612 C185.271,206.461 187.776,204.856 190.739,205.025 C190.739,205.025 207.189,205.962 207.189,205.962 C210.154,206.131 212.455,208.010 212.331,210.160 C212.206,212.309 209.702,213.915 206.737,213.747 C206.737,213.747 190.288,212.810 190.288,212.810 Z" id="path-3" class="cls-3" fill-rule="evenodd"/>
    <path d="M76.762,190.483 C76.762,190.483 58.391,190.483 58.391,190.483 C54.850,190.483 51.978,192.111 51.978,194.121 C51.978,196.129 54.850,197.759 58.391,197.759 C58.391,197.759 59.246,197.759 59.246,197.759 C62.788,197.759 65.660,199.388 65.660,201.396 C65.660,203.405 62.788,205.034 59.246,205.034 C59.246,205.034 19.757,205.034 19.757,205.034 C16.215,205.034 13.344,206.663 13.344,208.672 C13.344,210.681 16.215,212.310 19.757,212.310 C19.757,212.310 67.214,212.310 67.214,212.310 C67.214,212.310 164.214,212.310 164.214,212.310 C167.756,212.310 170.627,210.681 170.627,208.672 C170.627,206.663 167.756,205.034 164.214,205.034 C164.214,205.034 153.254,205.034 153.254,205.034 C149.712,205.034 146.841,203.405 146.841,201.396 C146.841,199.388 149.712,197.759 153.254,197.759 C153.254,197.759 196.299,197.759 196.299,197.759 C199.841,197.759 202.713,196.129 202.713,194.121 C202.713,192.111 199.841,190.483 196.299,190.483 C196.299,190.483 193.086,190.483 193.086,190.483 C193.086,190.483 76.762,190.483 76.762,190.483 Z" id="path-4" class="cls-3" fill-rule="evenodd"/>
    <path d="M216.714,41.097 C216.714,41.097 46.203,210.013 46.203,210.013 C46.203,210.013 16.028,180.121 16.028,180.121 C16.028,180.121 186.540,11.203 186.540,11.203 C186.540,11.203 216.714,41.097 216.714,41.097 Z" id="path-5" class="cls-7" fill-rule="evenodd"/>
    <path d="M79.477,153.582 C78.546,153.582 77.614,153.231 76.903,152.526 C76.903,152.526 64.094,139.833 64.094,139.833 C62.672,138.425 62.672,136.142 64.094,134.737 C65.515,133.329 67.817,133.329 69.239,134.737 C69.239,134.737 82.050,147.429 82.050,147.429 C83.471,148.837 83.471,151.119 82.050,152.526 C81.339,153.231 80.407,153.582 79.477,153.582 Z" id="path-6" class="cls-3" fill-rule="evenodd"/>
    <path d="M57.444,175.171 C56.514,175.171 55.583,174.819 54.871,174.114 C54.871,174.114 41.941,161.304 41.941,161.304 C40.519,159.897 40.519,157.613 41.941,156.207 C43.362,154.798 45.664,154.798 47.086,156.207 C47.086,156.207 60.018,169.017 60.018,169.017 C61.439,170.425 61.439,172.707 60.018,174.114 C59.307,174.819 58.375,175.171 57.444,175.171 Z" id="path-7" class="cls-3" fill-rule="evenodd"/>
    <path d="M41.652,179.191 C40.721,179.191 39.791,178.838 39.079,178.135 C39.079,178.135 32.374,171.492 32.374,171.492 C30.953,170.085 30.953,167.802 32.374,166.395 C33.795,164.987 36.098,164.987 37.519,166.395 C37.519,166.395 44.225,173.037 44.225,173.037 C45.646,174.445 45.646,176.728 44.225,178.135 C43.515,178.838 42.583,179.191 41.652,179.191 Z" id="path-8" class="cls-3" fill-rule="evenodd"/>
    <path d="M61.783,159.724 C60.853,159.724 59.921,159.373 59.211,158.669 C59.211,158.669 52.504,152.025 52.504,152.025 C51.084,150.619 51.084,148.335 52.504,146.928 C53.926,145.519 56.229,145.519 57.651,146.928 C57.651,146.928 64.356,153.572 64.356,153.572 C65.777,154.978 65.777,157.261 64.356,158.669 C63.645,159.373 62.715,159.724 61.783,159.724 Z" id="path-9" class="cls-3" fill-rule="evenodd"/>
    <path d="M83.098,138.609 C82.167,138.609 81.235,138.258 80.524,137.554 C80.524,137.554 73.820,130.911 73.820,130.911 C72.398,129.504 72.398,127.222 73.820,125.813 C75.241,124.405 77.544,124.405 78.965,125.813 C78.965,125.813 85.671,132.458 85.671,132.458 C87.092,133.864 87.092,136.147 85.671,137.554 C84.960,138.258 84.029,138.609 83.098,138.609 Z" id="path-10" class="cls-3" fill-rule="evenodd"/>
    <path d="M100.312,132.469 C99.381,132.469 98.449,132.115 97.738,131.412 C97.738,131.412 84.928,118.717 84.928,118.717 C83.506,117.311 83.506,115.028 84.928,113.620 C86.349,112.212 88.652,112.212 90.074,113.620 C90.074,113.620 102.884,126.313 102.884,126.313 C104.306,127.723 104.306,130.004 102.884,131.412 C102.173,132.115 101.242,132.469 100.312,132.469 Z" id="path-11" class="cls-3" fill-rule="evenodd"/>
    <path d="M104.888,116.546 C103.958,116.546 103.026,116.195 102.316,115.490 C102.316,115.490 95.609,108.849 95.609,108.849 C94.189,107.440 94.189,105.159 95.609,103.751 C97.031,102.343 99.334,102.343 100.755,103.751 C100.755,103.751 107.461,110.392 107.461,110.392 C108.882,111.800 108.882,114.082 107.461,115.490 C106.751,116.195 105.820,116.546 104.888,116.546 Z" id="path-12" class="cls-3" fill-rule="evenodd"/>
    <path d="M122.905,109.929 C121.974,109.929 121.043,109.578 120.333,108.874 C120.333,108.874 107.710,96.384 107.710,96.384 C106.288,94.976 106.288,92.694 107.710,91.285 C109.131,89.877 111.434,89.876 112.856,91.282 C112.856,91.282 125.478,103.775 125.478,103.775 C126.899,105.182 126.899,107.462 125.478,108.872 C124.767,109.577 123.837,109.929 122.905,109.929 Z" id="path-13" class="cls-3" fill-rule="evenodd"/>
    <path d="M127.119,94.443 C126.189,94.443 125.258,94.092 124.547,93.388 C124.547,93.388 117.845,86.745 117.845,86.745 C116.423,85.338 116.423,83.053 117.845,81.647 C119.266,80.241 121.569,80.239 122.990,81.648 C122.990,81.648 129.693,88.290 129.693,88.290 C131.113,89.698 131.113,91.981 129.693,93.389 C128.982,94.092 128.051,94.443 127.119,94.443 Z" id="path-14" class="cls-3" fill-rule="evenodd"/>
    <path d="M145.154,88.163 C144.223,88.163 143.292,87.811 142.581,87.107 C142.581,87.107 130.090,74.731 130.090,74.731 C128.669,73.323 128.669,71.040 130.090,69.633 C131.512,68.227 133.814,68.226 135.236,69.634 C135.236,69.634 147.726,82.009 147.726,82.009 C149.149,83.417 149.149,85.700 147.726,87.107 C147.017,87.811 146.085,88.163 145.154,88.163 Z" id="path-15" class="cls-3" fill-rule="evenodd"/>
    <path d="M149.311,72.776 C148.380,72.776 147.450,72.424 146.739,71.720 C146.739,71.720 140.033,65.076 140.033,65.076 C138.612,63.669 138.612,61.386 140.033,59.979 C141.455,58.571 143.757,58.571 145.179,59.979 C145.179,59.979 151.884,66.622 151.884,66.622 C153.306,68.030 153.306,70.312 151.884,71.720 C151.174,72.424 150.243,72.776 149.311,72.776 Z" id="path-16" class="cls-3" fill-rule="evenodd"/>
    <path d="M175.164,47.640 C174.233,47.640 173.302,47.288 172.591,46.585 C172.591,46.585 165.886,39.942 165.886,39.942 C164.465,38.534 164.465,36.251 165.886,34.844 C167.307,33.435 169.609,33.435 171.031,34.844 C171.031,34.844 177.736,41.488 177.736,41.488 C179.158,42.894 179.158,45.178 177.736,46.585 C177.027,47.288 176.095,47.640 175.164,47.640 Z" id="path-17" class="cls-3" fill-rule="evenodd"/>
    <path d="M167.666,65.863 C166.735,65.863 165.804,65.510 165.093,64.806 C165.093,64.806 152.602,52.430 152.602,52.430 C151.180,51.022 151.180,48.739 152.602,47.331 C154.024,45.925 156.327,45.925 157.748,47.333 C157.748,47.333 170.239,59.708 170.239,59.708 C171.660,61.117 171.660,63.399 170.239,64.806 C169.528,65.510 168.597,65.863 167.666,65.863 Z" id="path-18" class="cls-3" fill-rule="evenodd"/>
    <path d="M134.783,33.083 C134.783,33.083 124.246,43.523 124.246,43.523 C124.246,43.523 97.626,17.151 97.626,17.151 C97.626,17.151 108.163,6.713 108.163,6.713 C116.477,-1.525 129.148,-2.259 136.474,5.000 C140.157,8.648 141.811,13.630 141.481,18.692 C141.196,23.802 138.921,28.983 134.783,33.083 Z" id="path-19" class="cls-21" fill-rule="evenodd"/>
    <path d="M110.407,17.112 C109.874,17.112 109.330,16.993 108.815,16.746 C107.009,15.874 106.260,13.715 107.142,11.927 C110.816,4.459 119.390,1.074 126.295,4.403 C128.100,5.276 128.850,7.435 127.969,9.224 C127.091,11.011 124.927,11.758 123.104,10.885 C119.835,9.304 115.603,11.185 113.680,15.087 C113.051,16.368 111.754,17.112 110.407,17.112 Z" id="path-20" class="cls-22" fill-rule="evenodd"/>
    <path d="M12.610,101.113 C12.610,101.113 100.238,14.660 100.238,14.660 C100.238,14.660 126.929,41.102 126.929,41.102 C126.929,41.102 38.164,128.562 38.164,128.562 C38.164,128.562 38.164,128.562 38.164,128.562 " id="path-21" class="cls-23" fill-rule="evenodd"/>
    <path d="M15.440,134.267 C15.440,134.267 -0.002,140.237 -0.002,140.237 C-0.002,140.237 5.400,124.321 5.400,124.321 C5.400,124.321 15.440,134.267 15.440,134.267 Z" id="path-22" class="cls-3" fill-rule="evenodd"/>
    <path d="M28.015,101.207 C28.015,101.207 18.136,101.207 18.136,101.207 C18.136,101.207 12.610,101.113 12.610,101.113 C12.610,101.113 5.400,124.321 5.400,124.321 C5.400,124.321 15.440,134.267 15.440,134.267 C15.440,134.267 38.164,128.562 38.164,128.562 C38.164,128.562 38.937,121.488 38.937,121.488 C38.937,121.488 38.941,112.038 38.941,112.038 C38.941,112.038 27.793,113.561 27.793,113.561 C27.793,113.561 28.015,101.207 28.015,101.207 Z" id="path-23" class="cls-7" fill-rule="evenodd"/>
    <path d="M126.082,0.147 C127.245,0.836 128.338,1.659 129.329,2.641 C133.011,6.288 134.664,11.271 134.336,16.335 C134.052,21.442 131.775,26.623 127.637,30.724 C127.637,30.724 121.864,36.444 121.864,36.444 C121.864,36.444 126.627,41.163 126.627,41.163 C126.627,41.163 134.783,33.083 134.783,33.083 C138.921,28.983 141.196,23.802 141.481,18.692 C141.811,13.631 140.156,8.648 136.474,5.000 C133.629,2.179 129.973,0.582 126.082,0.147 Z" id="path-24" class="cls-26" fill-rule="evenodd"/>
    <path d="M98.467,16.058 C98.467,16.058 112.915,34.419 112.915,34.419 C115.489,37.689 115.204,42.345 112.252,45.283 C112.252,45.283 38.956,118.231 38.956,118.231 C38.956,118.231 38.164,128.562 38.164,128.562 C38.164,128.562 126.929,41.102 126.929,41.102 C126.929,41.102 100.238,14.660 100.238,14.660 C100.238,14.660 98.467,16.058 98.467,16.058 Z" id="path-25" class="cls-26" fill-rule="evenodd"/>
    <path d="M25.701,101.207 C25.701,101.207 26.729,113.210 26.729,113.210 C26.729,113.210 27.793,113.561 27.793,113.561 C27.793,113.561 28.015,101.207 28.015,101.207 C28.015,101.207 25.701,101.207 25.701,101.207 Z" id="path-26" class="cls-26" fill-rule="evenodd"/>
    <path d="M32.500,125.535 C32.500,125.535 12.058,130.917 12.058,130.917 C12.058,130.917 15.440,134.267 15.440,134.267 C15.440,134.267 38.164,128.562 38.164,128.562 C38.164,128.562 38.937,121.488 38.937,121.488 C38.937,121.488 38.941,112.038 38.941,112.038 C38.941,112.038 36.534,112.366 36.534,112.366 C36.534,112.366 32.500,125.535 32.500,125.535 Z" id="path-27" class="cls-26" fill-rule="evenodd"/>
    <path d="M40.217,88.811 C39.285,88.811 38.355,88.460 37.644,87.756 C36.222,86.349 36.222,84.065 37.644,82.659 C37.644,82.659 90.443,30.356 90.443,30.356 C91.865,28.947 94.167,28.947 95.589,30.356 C97.010,31.763 97.010,34.046 95.589,35.454 C95.589,35.454 42.789,87.756 42.789,87.756 C42.079,88.460 41.148,88.811 40.217,88.811 Z" id="path-28" class="cls-22" fill-rule="evenodd"/>
  </g>
</svg>
