<svg xmlns="http://www.w3.org/2000/svg" xmlns:xlink="http://www.w3.org/1999/xlink" preserveAspectRatio="xMidYMid" width="219" height="132" viewBox="0 0 219 132">
  <defs>
    <style>

      .cls-3 {
        fill: #2476ff;
      }

      .cls-6 {
        fill: #ff3a2f;
      }

      .cls-7 {
        fill: #142a3b;
      }

      .cls-9 {
        fill: #fbb713;
      }

      .cls-10 {
        fill: #020403;
        opacity: 0.35;
      }

      .cls-11 {
        fill: #020403;
        opacity: 0.2;
      }
    </style>
  </defs>
  <g id="group-39svg">
    <path d="M25.410,111.288 C25.410,111.288 30.581,111.288 30.581,111.288 C31.578,111.288 32.386,112.760 32.386,114.573 C32.386,116.388 31.578,117.859 30.581,117.859 C30.581,117.859 30.340,117.859 30.340,117.859 C29.343,117.859 28.535,119.331 28.535,121.145 C28.535,122.960 29.343,124.430 30.340,124.430 C30.340,124.430 41.456,124.430 41.456,124.430 C42.453,124.430 43.261,125.902 43.261,127.717 C43.261,129.531 42.453,131.003 41.456,131.003 C41.456,131.003 28.097,131.003 28.097,131.003 C28.097,131.003 13.416,131.003 13.416,131.003 C12.419,131.003 11.611,129.531 11.611,127.717 C11.611,125.902 12.419,124.430 13.416,124.430 C13.416,124.430 16.500,124.430 16.500,124.430 C17.498,124.430 18.307,122.960 18.307,121.145 C18.307,119.331 17.498,117.859 16.500,117.859 C16.500,117.859 1.819,117.859 1.819,117.859 C0.822,117.859 0.014,116.388 0.014,114.573 C0.014,112.760 0.822,111.288 1.819,111.288 C1.819,111.288 5.289,111.288 5.289,111.288 C5.289,111.288 25.410,111.288 25.410,111.288 Z" id="path-1" class="cls-3" fill-rule="evenodd"/>
    <path d="M163.076,79.285 C163.076,79.285 179.086,79.285 179.086,79.285 C182.173,79.285 184.676,80.756 184.676,82.571 C184.676,84.386 182.173,85.857 179.086,85.857 C179.086,85.857 178.341,85.857 178.341,85.857 C175.254,85.857 172.751,87.328 172.751,89.142 C172.751,90.958 175.254,92.429 178.341,92.429 C178.341,92.429 212.757,92.429 212.757,92.429 C215.844,92.429 218.347,93.899 218.347,95.714 C218.347,97.528 215.844,99.000 212.757,99.000 C212.757,99.000 171.398,99.000 171.398,99.000 C171.398,99.000 125.939,99.000 125.939,99.000 C122.852,99.000 120.350,97.528 120.350,95.714 C120.350,93.899 122.852,92.429 125.939,92.429 C125.939,92.429 135.490,92.429 135.490,92.429 C138.578,92.429 141.079,90.958 141.079,89.142 C141.079,87.328 138.578,85.857 135.490,85.857 C135.490,85.857 90.032,85.857 90.032,85.857 C86.946,85.857 84.443,84.386 84.443,82.571 C84.443,80.756 86.946,79.285 90.032,79.285 C90.032,79.285 100.776,79.285 100.776,79.285 C100.776,79.285 163.076,79.285 163.076,79.285 Z" id="path-2" class="cls-3" fill-rule="evenodd"/>
    <path d="M72.709,98.731 C75.879,98.731 78.449,97.161 78.449,95.225 C78.449,93.289 75.879,91.718 72.709,91.718 C72.709,91.718 55.121,91.718 55.121,91.718 C51.952,91.718 49.382,93.289 49.382,95.225 C49.382,97.161 51.952,98.731 55.121,98.731 C55.121,98.731 72.709,98.731 72.709,98.731 Z" id="path-3" class="cls-3" fill-rule="evenodd"/>
    <path d="M151.562,64.567 C151.562,64.567 22.112,64.567 22.112,64.567 C13.239,64.567 6.046,71.693 6.046,80.483 C6.046,80.483 167.629,80.483 167.629,80.483 C167.629,71.693 160.435,64.567 151.562,64.567 Z" id="path-4" class="cls-6" fill-rule="evenodd"/>
    <path d="M90.478,66.556 C90.478,66.556 83.200,66.556 83.200,66.556 C83.200,66.556 83.200,8.951 83.200,8.951 C83.200,8.951 90.478,8.951 90.478,8.951 C90.478,8.951 90.478,66.556 90.478,66.556 Z" id="path-5" class="cls-7" fill-rule="evenodd"/>
    <path d="M109.493,11.935 C109.493,11.935 64.181,11.935 64.181,11.935 C60.855,11.935 58.157,9.263 58.157,5.966 C58.157,5.966 58.157,5.966 58.157,5.966 C58.157,2.670 60.855,-0.002 64.181,-0.002 C64.181,-0.002 109.493,-0.002 109.493,-0.002 C112.821,-0.002 115.518,2.670 115.518,5.966 C115.518,5.966 115.518,5.966 115.518,5.966 C115.518,9.263 112.821,11.935 109.493,11.935 Z" id="path-6" class="cls-7" fill-rule="evenodd"/>
    <path d="M152.038,56.797 C152.038,56.797 152.038,41.475 152.038,41.475 C152.038,28.836 141.599,18.495 128.839,18.495 C128.839,18.495 44.836,18.495 44.836,18.495 C32.077,18.495 21.637,28.836 21.637,41.475 C21.637,41.475 21.637,56.797 21.637,56.797 C21.637,56.797 152.038,56.797 152.038,56.797 Z" id="path-7" class="cls-9" fill-rule="evenodd"/>
    <path d="M9.187,74.171 C9.187,74.171 138.636,74.171 138.636,74.171 C143.849,74.171 148.435,76.671 151.371,80.483 C151.371,80.483 167.629,80.483 167.629,80.483 C167.629,71.693 160.435,64.567 151.562,64.567 C151.562,64.567 22.112,64.567 22.112,64.567 C15.430,64.567 9.708,68.612 7.286,74.361 C7.916,74.286 8.535,74.171 9.187,74.171 Z" id="path-8" class="cls-10" fill-rule="evenodd"/>
    <path d="M128.839,18.495 C128.839,18.495 128.678,18.495 128.678,18.495 C133.102,22.685 135.879,28.568 135.879,35.072 C135.879,35.072 135.879,35.072 135.879,35.072 C135.879,43.534 128.955,50.392 120.413,50.392 C120.413,50.392 21.638,50.392 21.638,50.392 C21.638,50.392 21.638,56.797 21.638,56.797 C21.638,56.797 152.038,56.797 152.038,56.797 C152.038,56.797 152.038,41.475 152.038,41.475 C152.038,28.835 141.599,18.495 128.839,18.495 Z" id="path-9" class="cls-11" fill-rule="evenodd"/>
  </g>
</svg>
