<svg xmlns="http://www.w3.org/2000/svg" xmlns:xlink="http://www.w3.org/1999/xlink" preserveAspectRatio="xMidYMid" width="219" height="199" viewBox="0 0 219 199">
  <defs>
    <style>

      .cls-3 {
        fill: #2476ff;
      }

      .cls-4 {
        fill: #010101;
        opacity: 0.25;
      }

      .cls-5 {
        fill: #ff3a2f;
      }

      .cls-7 {
        fill: #142a3b;
      }

      .cls-8 {
        fill: #ffffff;
      }
    </style>
  </defs>
  <g id="group-74svg">
    <path d="M123.541,17.173 C123.541,17.173 123.541,44.171 123.541,44.171 C123.541,44.171 61.933,44.171 61.933,44.171 C51.293,44.171 38.546,49.177 38.546,59.717 C38.546,59.717 38.546,146.333 38.546,146.333 C38.546,156.873 51.293,166.168 61.933,166.168 C61.933,166.168 149.904,166.168 149.904,166.168 C160.545,166.168 159.539,156.873 159.539,146.333 C159.539,146.333 159.539,75.643 159.539,75.643 C159.539,75.643 159.539,59.717 159.539,59.717 C159.539,59.717 159.539,17.173 159.539,17.173 C159.539,17.173 123.541,17.173 123.541,17.173 Z" id="path-1" class="cls-3" fill-rule="evenodd"/>
    <path d="M144.970,17.535 C144.970,17.535 144.970,45.471 144.970,45.471 C144.970,45.471 144.970,61.397 144.970,61.397 C144.970,61.397 144.970,132.085 144.970,132.085 C144.970,142.627 143.284,151.908 132.644,151.908 C132.644,151.908 44.672,151.908 44.672,151.908 C42.843,151.908 41.708,150.769 39.962,150.260 C42.290,158.807 52.142,165.209 59.634,165.884 C59.634,165.884 147.604,165.884 147.604,165.884 C158.244,165.884 159.634,162.617 159.634,146.612 C159.634,146.612 159.634,75.924 159.634,75.924 C159.634,75.924 159.634,59.996 159.634,59.996 C159.634,59.996 159.634,17.535 159.634,17.535 C159.634,17.535 144.970,17.535 144.970,17.535 Z" id="path-2" class="cls-4" fill-rule="evenodd"/>
    <path d="M155.539,0.173 C155.539,0.173 126.541,0.173 126.541,0.173 C126.541,0.173 126.541,17.173 126.541,17.173 C126.541,17.173 155.539,17.173 155.539,17.173 C155.539,17.173 155.539,0.173 155.539,0.173 Z" id="path-3" class="cls-5" fill-rule="evenodd"/>
    <path d="M144.960,-0.005 C144.960,-0.005 144.960,2.264 144.960,2.264 C144.960,7.028 141.062,10.889 136.253,10.889 C136.253,10.889 126.630,10.889 126.630,10.889 C126.630,10.889 126.630,18.152 126.630,18.152 C126.630,18.152 155.957,18.152 155.957,18.152 C155.957,18.152 155.957,-0.005 155.957,-0.005 C155.957,-0.005 144.960,-0.005 144.960,-0.005 Z" id="path-4" class="cls-4" fill-rule="evenodd"/>
    <path d="M132.303,113.337 C132.303,97.644 103.619,67.460 103.619,67.460 C103.619,67.460 74.935,97.644 74.935,113.337 C74.935,129.032 87.777,141.754 103.619,141.754 C119.462,141.754 132.303,129.032 132.303,113.337 Z" id="path-5" class="cls-7" fill-rule="evenodd"/>
    <path d="M52.253,74.217 C50.241,74.217 48.613,72.603 48.613,70.612 C48.613,57.203 61.143,49.968 72.931,49.968 C74.941,49.968 76.570,51.582 76.570,53.573 C76.570,55.563 74.941,57.177 72.931,57.177 C64.671,57.177 55.891,61.886 55.891,70.612 C55.891,72.603 54.264,74.217 52.253,74.217 Z" id="path-6" class="cls-8" fill-rule="evenodd"/>
    <path d="M108.448,135.615 C93.385,135.615 81.132,123.476 81.132,108.556 C81.132,106.566 82.759,104.951 84.771,104.951 C86.781,104.951 88.409,106.566 88.409,108.556 C88.409,119.501 97.400,128.405 108.448,128.405 C110.460,128.405 112.087,130.018 112.087,132.010 C112.087,134.001 110.460,135.615 108.448,135.615 Z" id="path-7" class="cls-8" fill-rule="evenodd"/>
    <path d="M108.598,160.254 C108.598,160.254 92.591,160.254 92.591,160.254 C89.505,160.254 87.002,163.156 87.002,166.734 C87.002,170.312 89.505,173.213 92.591,173.213 C92.591,173.213 93.336,173.213 93.336,173.213 C96.422,173.213 98.924,176.114 98.924,179.693 C98.924,183.272 96.422,186.173 93.336,186.173 C93.336,186.173 58.926,186.173 58.926,186.173 C55.840,186.173 53.338,189.074 53.338,192.653 C53.338,196.232 55.840,199.133 58.926,199.133 C58.926,199.133 100.278,199.133 100.278,199.133 C100.278,199.133 184.800,199.133 184.800,199.133 C187.887,199.133 190.389,196.232 190.389,192.653 C190.389,189.074 187.887,186.173 184.800,186.173 C184.800,186.173 175.251,186.173 175.251,186.173 C172.164,186.173 169.662,183.272 169.662,179.693 C169.662,176.114 172.164,173.213 175.251,173.213 C175.251,173.213 212.759,173.213 212.759,173.213 C215.844,173.213 218.347,170.312 218.347,166.734 C218.347,163.156 215.844,160.254 212.759,160.254 C212.759,160.254 209.959,160.254 209.959,160.254 C209.959,160.254 108.598,160.254 108.598,160.254 Z" id="path-8" class="cls-7" fill-rule="evenodd"/>
    <path d="M174.704,98.207 C174.704,98.207 170.332,98.207 170.332,98.207 C169.489,98.207 168.805,98.905 168.805,99.766 C168.805,100.627 169.489,101.324 170.332,101.324 C170.332,101.324 170.536,101.324 170.536,101.324 C171.378,101.324 172.062,102.022 172.062,102.882 C172.062,103.742 171.378,104.440 170.536,104.440 C170.536,104.440 161.135,104.440 161.135,104.440 C160.292,104.440 159.608,105.138 159.608,105.999 C159.608,106.860 160.292,107.557 161.135,107.557 C161.135,107.557 172.432,107.557 172.432,107.557 C172.432,107.557 195.524,107.557 195.524,107.557 C196.367,107.557 197.049,106.860 197.049,105.999 C197.049,105.138 196.367,104.440 195.524,104.440 C195.524,104.440 192.914,104.440 192.914,104.440 C192.070,104.440 191.387,103.742 191.387,102.882 C191.387,102.022 192.070,101.324 192.914,101.324 C192.914,101.324 203.161,101.324 203.161,101.324 C204.003,101.324 204.687,100.627 204.687,99.766 C204.687,98.905 204.003,98.207 203.161,98.207 C203.161,98.207 202.396,98.207 202.396,98.207 C202.396,98.207 174.704,98.207 174.704,98.207 Z" id="path-9" class="cls-7" fill-rule="evenodd"/>
    <path d="M14.852,134.941 C11.669,134.941 9.089,133.522 9.089,131.770 C9.089,130.019 11.669,128.600 14.852,128.600 C14.852,128.600 32.513,128.600 32.513,128.600 C35.697,128.600 38.277,130.019 38.277,131.770 C38.277,133.522 35.697,134.941 32.513,134.941 C32.513,134.941 14.852,134.941 14.852,134.941 Z" id="path-10" class="cls-7" fill-rule="evenodd"/>
    <path d="M8.190,198.036 C3.674,198.036 0.014,195.597 0.014,192.588 C0.014,189.579 3.674,187.140 8.190,187.140 C8.190,187.140 33.245,187.140 33.245,187.140 C37.761,187.140 41.421,189.579 41.421,192.588 C41.421,195.597 37.761,198.036 33.245,198.036 C33.245,198.036 8.190,198.036 8.190,198.036 Z" id="path-11" class="cls-7" fill-rule="evenodd"/>
  </g>
</svg>
