<svg xmlns="http://www.w3.org/2000/svg" xmlns:xlink="http://www.w3.org/1999/xlink" preserveAspectRatio="xMidYMid" width="219" height="204" viewBox="0 0 219 204">
  <defs>
    <style>

      .cls-3 {
        fill: #fbb713;
      }

      .cls-6 {
        fill: #142a3b;
      }

      .cls-7 {
        fill: #020403;
        opacity: 0.35;
      }

      .cls-8 {
        fill: #0cb04a;
      }
    </style>
  </defs>
  <g id="group-37svg">
    <path d="M167.750,37.927 C167.750,37.927 182.404,37.927 182.404,37.927 C185.229,37.927 187.518,39.633 187.518,41.737 C187.518,43.843 185.229,45.548 182.404,45.548 C182.404,45.548 181.721,45.548 181.721,45.548 C178.896,45.548 176.606,47.255 176.606,49.359 C176.606,51.463 178.896,53.170 181.721,53.170 C181.721,53.170 213.222,53.170 213.222,53.170 C216.047,53.170 218.338,54.876 218.338,56.981 C218.338,59.086 216.047,60.791 213.222,60.791 C213.222,60.791 175.366,60.791 175.366,60.791 C175.366,60.791 133.758,60.791 133.758,60.791 C130.933,60.791 128.643,59.086 128.643,56.981 C128.643,54.876 130.933,53.170 133.758,53.170 C133.758,53.170 142.501,53.170 142.501,53.170 C145.326,53.170 147.617,51.463 147.617,49.359 C147.617,47.255 145.326,45.548 142.501,45.548 C142.501,45.548 100.894,45.548 100.894,45.548 C98.069,45.548 95.778,43.843 95.778,41.737 C95.778,39.633 98.069,37.927 100.894,37.927 C100.894,37.927 110.727,37.927 110.727,37.927 C110.727,37.927 167.750,37.927 167.750,37.927 Z" id="path-1" class="cls-3" fill-rule="evenodd"/>
    <path d="M29.461,32.865 C29.461,32.865 35.458,32.865 35.458,32.865 C36.614,32.865 37.552,34.571 37.552,36.676 C37.552,38.781 36.614,40.487 35.458,40.487 C35.458,40.487 35.179,40.487 35.179,40.487 C34.023,40.487 33.085,42.193 33.085,44.297 C33.085,46.403 34.023,48.109 35.179,48.109 C35.179,48.109 48.071,48.109 48.071,48.109 C49.228,48.109 50.165,49.815 50.165,51.920 C50.165,54.024 49.228,55.731 48.071,55.731 C48.071,55.731 32.578,55.731 32.578,55.731 C32.578,55.731 15.549,55.731 15.549,55.731 C14.393,55.731 13.456,54.024 13.456,51.920 C13.456,49.815 14.393,48.109 15.549,48.109 C15.549,48.109 19.127,48.109 19.127,48.109 C20.285,48.109 21.222,46.403 21.222,44.297 C21.222,42.193 20.285,40.487 19.127,40.487 C19.127,40.487 2.099,40.487 2.099,40.487 C0.943,40.487 0.005,38.781 0.005,36.676 C0.005,34.571 0.943,32.865 2.099,32.865 C2.099,32.865 6.123,32.865 6.123,32.865 C6.123,32.865 29.461,32.865 29.461,32.865 Z" id="path-2" class="cls-3" fill-rule="evenodd"/>
    <path d="M131.812,8.144 C135.489,8.144 138.469,6.324 138.469,4.077 C138.469,1.832 135.489,0.011 131.812,0.011 C131.812,0.011 111.413,0.011 111.413,0.011 C107.737,0.011 104.756,1.832 104.756,4.077 C104.756,6.324 107.737,8.144 111.413,8.144 C111.413,8.144 131.812,8.144 131.812,8.144 Z" id="path-3" class="cls-3" fill-rule="evenodd"/>
    <path d="M169.509,199.115 C169.509,199.115 213.763,197.121 213.763,197.121 C213.763,197.121 163.319,90.701 163.319,90.701 C163.319,90.701 145.016,140.673 145.016,140.673 C145.016,140.673 169.509,199.115 169.509,199.115 Z" id="path-4" class="cls-6" fill-rule="evenodd"/>
    <path d="M166.086,170.862 C166.086,170.862 148.940,129.957 148.940,129.957 C148.940,129.957 145.016,140.673 145.016,140.673 C145.016,140.673 169.509,199.115 169.509,199.115 C169.509,199.115 213.763,197.121 213.763,197.121 C213.763,197.121 208.672,186.380 208.672,186.380 C208.672,186.380 191.943,187.133 191.943,187.133 C180.726,187.640 170.391,181.135 166.086,170.862 Z" id="path-5" class="cls-7" fill-rule="evenodd"/>
    <path d="M10.061,204.177 C10.061,204.177 90.846,11.430 90.846,11.430 C90.846,11.430 171.631,204.177 171.631,204.177 C171.631,204.177 10.061,204.177 10.061,204.177 Z" id="path-6" class="cls-8" fill-rule="evenodd"/>
    <path d="M104.393,43.752 C104.393,43.752 90.846,11.430 90.846,11.430 C90.846,11.430 77.300,43.752 77.300,43.752 C77.300,43.752 81.577,46.373 81.577,46.373 C82.605,47.003 83.943,46.804 84.739,45.903 C84.739,45.903 88.361,41.802 88.361,41.802 C89.234,40.816 90.733,40.685 91.766,41.503 C91.766,41.503 97.809,46.292 97.809,46.292 C98.682,46.983 99.916,47.009 100.818,46.353 C100.818,46.353 104.393,43.752 104.393,43.752 Z" id="path-7" class="cls-3" fill-rule="evenodd"/>
    <path d="M173.333,111.827 C173.333,111.827 163.319,90.701 163.319,90.701 C163.319,90.701 156.321,109.806 156.321,109.806 C155.876,111.023 156.231,112.387 157.217,113.238 C157.217,113.238 159.882,115.539 159.882,115.539 C159.882,115.539 160.956,113.220 160.956,113.220 C161.988,110.989 165.090,110.746 166.465,112.787 C166.465,112.787 166.465,112.787 166.465,112.787 C167.471,114.283 169.539,114.636 170.991,113.559 C170.991,113.559 173.333,111.827 173.333,111.827 Z" id="path-8" class="cls-3" fill-rule="evenodd"/>
  </g>
</svg>
