<svg xmlns="http://www.w3.org/2000/svg" xmlns:xlink="http://www.w3.org/1999/xlink" preserveAspectRatio="xMidYMid" width="219" height="217" viewBox="0 0 219 217">
  <defs>
    <style>

      .cls-3 {
        fill: #2476ff;
      }

      .cls-6 {
        fill: #142a3b;
      }

      .cls-7 {
        fill: #010101;
        opacity: 0.3;
      }

      .cls-8 {
        fill: #ff3a2f;
      }

      .cls-9 {
        fill: #ededed;
      }

      .cls-11 {
        fill: #010101;
        opacity: 0.2;
      }
    </style>
  </defs>
  <g id="group-140svg">
    <path d="M78.818,199.176 C78.818,199.176 94.869,199.176 94.869,199.176 C97.963,199.176 100.472,200.292 100.472,201.668 C100.472,203.045 97.963,204.160 94.869,204.160 C94.869,204.160 94.121,204.160 94.121,204.160 C91.027,204.160 88.518,205.277 88.518,206.653 C88.518,208.030 91.027,209.146 94.121,209.146 C94.121,209.146 128.623,209.146 128.623,209.146 C131.718,209.146 134.227,210.260 134.227,211.637 C134.227,213.013 131.718,214.130 128.623,214.130 C128.623,214.130 87.161,214.130 87.161,214.130 C87.161,214.130 41.589,214.130 41.589,214.130 C38.494,214.130 35.986,213.013 35.986,211.637 C35.986,210.260 38.494,209.146 41.589,209.146 C41.589,209.146 51.165,209.146 51.165,209.146 C54.258,209.146 56.767,208.030 56.767,206.653 C56.767,205.277 54.258,204.160 51.165,204.160 C51.165,204.160 5.592,204.160 5.592,204.160 C2.498,204.160 -0.011,203.045 -0.011,201.668 C-0.011,200.292 2.498,199.176 5.592,199.176 C5.592,199.176 16.363,199.176 16.363,199.176 C16.363,199.176 78.818,199.176 78.818,199.176 Z" id="path-1" class="cls-3" fill-rule="evenodd"/>
    <path d="M178.157,216.286 C181.690,216.286 184.554,215.012 184.554,213.440 C184.554,211.868 181.690,210.594 178.157,210.594 C178.157,210.594 158.551,210.594 158.551,210.594 C155.018,210.594 152.154,211.868 152.154,213.440 C152.154,215.012 155.018,216.286 158.551,216.286 C158.551,216.286 178.157,216.286 178.157,216.286 Z" id="path-2" class="cls-3" fill-rule="evenodd"/>
    <path d="M193.334,176.788 C193.334,176.788 200.704,176.788 200.704,176.788 C202.124,176.788 203.277,177.422 203.277,178.202 C203.277,178.983 202.124,179.615 200.704,179.615 C200.704,179.615 200.361,179.615 200.361,179.615 C198.939,179.615 197.788,180.248 197.788,181.029 C197.788,181.809 198.939,182.442 200.361,182.442 C200.361,182.442 216.204,182.442 216.204,182.442 C217.625,182.442 218.776,183.076 218.776,183.857 C218.776,184.638 217.625,185.270 216.204,185.270 C216.204,185.270 197.164,185.270 197.164,185.270 C197.164,185.270 158.250,185.270 158.250,185.270 C156.828,185.270 155.676,184.638 155.676,183.857 C155.676,183.076 156.828,182.442 158.250,182.442 C158.250,182.442 162.647,182.442 162.647,182.442 C164.067,182.442 165.219,181.809 165.219,181.029 C165.219,180.248 164.067,179.615 162.647,179.615 C162.647,179.615 141.720,179.615 141.720,179.615 C140.299,179.615 139.148,178.983 139.148,178.202 C139.148,177.422 140.299,176.788 141.720,176.788 C141.720,176.788 146.666,176.788 146.666,176.788 C146.666,176.788 193.334,176.788 193.334,176.788 Z" id="path-3" class="cls-3" fill-rule="evenodd"/>
    <path d="M74.284,183.211 C61.102,183.211 50.374,172.585 50.374,159.519 C50.374,159.519 50.374,115.812 50.374,115.812 C50.374,115.812 98.193,115.812 98.193,115.812 C98.193,115.812 98.193,159.519 98.193,159.519 C98.193,172.585 87.466,183.211 74.284,183.211 Z" id="path-4" class="cls-6" fill-rule="evenodd"/>
    <path d="M87.096,115.813 C87.096,115.813 87.096,152.191 87.096,152.191 C87.096,165.256 76.369,175.883 63.188,175.883 C60.699,175.883 58.299,175.503 56.041,174.801 C60.432,179.937 66.975,183.211 74.284,183.211 C87.466,183.211 98.193,172.584 98.193,159.519 C98.193,159.519 98.193,115.813 98.193,115.813 C98.193,115.813 87.096,115.813 87.096,115.813 Z" id="path-5" class="cls-7" fill-rule="evenodd"/>
    <path d="M102.475,128.859 C102.475,128.859 51.879,128.859 51.879,128.859 C25.964,128.859 4.872,107.963 4.872,82.284 C4.872,69.778 9.798,58.094 18.736,49.373 C27.469,40.587 39.262,35.714 51.879,35.714 C51.879,35.714 102.475,35.714 102.475,35.714 C102.475,35.714 102.475,35.714 102.475,35.714 " id="path-6" class="cls-8" fill-rule="evenodd"/>
    <path d="M152.364,128.859 C152.364,128.859 92.996,128.859 92.996,128.859 C92.996,128.859 92.996,35.714 92.996,35.714 C92.996,35.714 152.364,35.714 152.364,35.714 C152.364,35.714 152.364,128.859 152.364,128.859 Z" id="path-7" class="cls-9" fill-rule="evenodd"/>
    <path d="M84.163,35.714 C84.163,35.714 75.196,93.216 75.196,93.216 C73.972,101.074 67.144,106.873 59.117,106.873 C59.117,106.873 27.629,106.873 27.629,106.873 C21.133,106.873 15.000,105.198 9.497,102.293 C16.299,117.975 30.782,128.858 47.558,128.858 C47.558,128.858 92.996,128.858 92.996,128.858 C92.996,128.858 92.996,35.714 92.996,35.714 C92.996,35.714 84.163,35.714 84.163,35.714 Z" id="path-8" class="cls-7" fill-rule="evenodd"/>
    <path d="M133.871,35.714 C133.871,35.714 131.000,96.630 131.000,96.630 C130.537,106.465 122.354,114.202 112.416,114.202 C112.416,114.202 92.996,114.202 92.996,114.202 C92.996,114.202 92.996,128.858 92.996,128.858 C92.996,128.858 152.364,128.858 152.364,128.858 C152.364,128.858 152.364,35.714 152.364,35.714 C152.364,35.714 133.871,35.714 133.871,35.714 Z" id="path-9" class="cls-11" fill-rule="evenodd"/>
    <path d="M194.241,164.648 C194.241,164.648 139.195,125.692 139.195,125.692 C139.195,125.692 139.195,35.714 139.195,35.714 C139.195,35.714 194.241,-0.005 194.241,-0.005 C194.241,-0.005 194.241,164.648 194.241,164.648 Z" id="path-10" class="cls-9" fill-rule="evenodd"/>
    <path d="M179.446,10.445 C179.446,10.445 179.446,105.280 179.446,105.280 C179.446,117.861 165.093,125.176 154.761,117.864 C154.761,117.864 139.195,106.849 139.195,106.849 C139.195,106.849 139.195,125.692 139.195,125.692 C139.195,125.692 194.241,164.647 194.241,164.647 C194.241,164.647 194.241,-0.005 194.241,-0.005 C194.241,-0.005 179.446,10.445 179.446,10.445 Z" id="path-11" class="cls-11" fill-rule="evenodd"/>
  </g>
</svg>
