<svg xmlns="http://www.w3.org/2000/svg" xmlns:xlink="http://www.w3.org/1999/xlink" preserveAspectRatio="xMidYMid" width="218" height="217" viewBox="0 0 218 217">
  <defs>
    <style>

      .cls-3 {
        fill: #2476ff;
      }

      .cls-4 {
        fill: #ff3a2f;
      }

      .cls-5 {
        fill: #fccb56;
      }

      .cls-6 {
        fill: #fbb713;
      }

      .cls-7 {
        fill: #ffffff;
      }

      .cls-8 {
        fill: #000000;
        opacity: 0.35;
      }

      .cls-9 {
        fill: #000000;
        opacity: 0.25;
      }

      .cls-18 {
        fill: #060606;
        opacity: 0.35;
      }
    </style>
  </defs>
  <g id="group-1svg">
    <path d="M185.540,168.630 C185.540,168.630 195.035,168.630 195.035,168.630 C196.866,168.630 198.350,170.361 198.350,172.498 C198.350,174.635 196.866,176.367 195.035,176.367 C195.035,176.367 194.593,176.367 194.593,176.367 C192.763,176.367 191.278,178.098 191.278,180.235 C191.278,182.372 192.763,184.104 194.593,184.104 C194.593,184.104 215.005,184.104 215.005,184.104 C216.836,184.104 218.320,185.836 218.320,187.972 C218.320,190.110 216.836,191.842 215.005,191.842 C215.005,191.842 190.475,191.842 190.475,191.842 C190.475,191.842 163.515,191.842 163.515,191.842 C161.684,191.842 160.199,190.110 160.199,187.972 C160.199,185.836 161.684,184.104 163.515,184.104 C163.515,184.104 169.179,184.104 169.179,184.104 C171.011,184.104 172.494,182.372 172.494,180.235 C172.494,178.098 171.011,176.367 169.179,176.367 C169.179,176.367 142.218,176.367 142.218,176.367 C140.388,176.367 138.904,174.635 138.904,172.498 C138.904,170.361 140.388,168.630 142.218,168.630 C142.218,168.630 148.591,168.630 148.591,168.630 C148.591,168.630 185.540,168.630 185.540,168.630 Z" id="path-1" class="cls-3" fill-rule="evenodd"/>
    <path d="M115.807,216.518 C120.913,216.518 125.053,213.920 125.053,210.715 C125.053,207.510 120.913,204.912 115.807,204.912 C115.807,204.912 87.475,204.912 87.475,204.912 C82.369,204.912 78.230,207.510 78.230,210.715 C78.230,213.920 82.369,216.518 87.475,216.518 C87.475,216.518 115.807,216.518 115.807,216.518 Z" id="path-2" class="cls-4" fill-rule="evenodd"/>
    <path d="M192.681,115.427 C192.681,148.655 165.491,175.591 131.950,175.591 C98.408,175.591 71.218,148.655 71.218,115.427 C71.218,82.200 98.408,55.263 131.950,55.263 C165.491,55.263 192.681,82.200 192.681,115.427 Z" id="path-3" class="cls-5" fill-rule="evenodd"/>
    <path d="M176.197,115.427 C176.197,139.636 156.387,159.261 131.950,159.261 C107.512,159.261 87.702,139.636 87.702,115.427 C87.702,91.219 107.512,71.594 131.950,71.594 C156.387,71.594 176.197,91.219 176.197,115.427 Z" id="path-4" class="cls-6" fill-rule="evenodd"/>
    <path d="M131.949,151.047 C129.939,151.047 128.310,149.432 128.310,147.442 C128.310,145.451 129.939,143.836 131.949,143.836 C147.762,143.836 160.628,131.093 160.628,115.427 C160.628,113.437 162.258,111.823 164.267,111.823 C166.277,111.823 167.906,113.437 167.906,115.427 C167.906,135.068 151.776,151.047 131.949,151.047 Z" id="path-5" class="cls-7" fill-rule="evenodd"/>
    <path d="M102.629,148.194 C95.699,140.456 91.456,130.304 91.456,119.147 C91.456,94.937 111.267,75.312 135.704,75.312 C146.966,75.312 157.214,79.517 165.025,86.381 C156.919,77.330 145.124,71.594 131.950,71.594 C107.512,71.594 87.702,91.219 87.702,115.427 C87.702,128.478 93.492,140.163 102.629,148.194 Z" id="path-6" class="cls-8" fill-rule="evenodd"/>
    <path d="M101.167,167.226 C106.087,170.101 111.442,172.295 117.125,173.711 C117.125,173.711 117.125,57.144 117.125,57.144 C111.442,58.559 106.087,60.753 101.167,63.629 C101.167,63.629 101.167,167.226 101.167,167.226 Z" id="path-7" class="cls-9" fill-rule="evenodd"/>
    <path d="M57.571,40.258 C57.571,40.258 44.241,40.258 44.241,40.258 C43.511,40.258 42.919,39.666 42.919,38.935 C42.919,38.935 42.919,9.930 42.919,9.930 C42.919,9.199 43.511,8.608 44.241,8.608 C44.241,8.608 57.571,8.608 57.571,8.608 C58.301,8.608 58.893,9.199 58.893,9.930 C58.893,9.930 58.893,38.935 58.893,38.935 C58.893,39.666 58.301,40.258 57.571,40.258 Z" id="path-8" class="cls-3" fill-rule="evenodd"/>
    <path d="M73.046,60.705 C73.046,60.705 28.765,60.705 28.765,60.705 C28.035,60.705 27.443,60.113 27.443,59.382 C27.443,59.382 27.443,37.301 27.443,37.301 C27.443,36.570 28.035,35.979 28.765,35.979 C28.765,35.979 73.047,35.979 73.047,35.979 C73.776,35.979 74.368,36.570 74.368,37.301 C74.368,37.301 74.368,59.382 74.368,59.382 C74.368,60.113 73.776,60.705 73.046,60.705 Z" id="path-9" class="cls-4" fill-rule="evenodd"/>
    <path d="M100.503,192.593 C100.503,192.593 1.309,192.593 1.309,192.593 C0.579,192.593 -0.013,192.001 -0.013,191.271 C-0.013,191.271 -0.013,53.468 -0.013,53.468 C-0.013,52.737 0.579,52.146 1.309,52.146 C1.309,52.146 100.503,52.146 100.503,52.146 C101.233,52.146 101.824,52.737 101.824,53.468 C101.824,53.468 101.824,191.271 101.824,191.271 C101.824,192.001 101.233,192.593 100.503,192.593 Z" id="path-10" class="cls-3" fill-rule="evenodd"/>
    <path d="M92.052,17.167 C92.052,17.167 33.722,17.167 33.722,17.167 C30.806,17.167 28.442,14.825 28.442,11.936 C28.442,11.936 28.442,5.236 28.442,5.236 C28.442,2.109 31.194,-0.320 34.330,0.040 C34.330,0.040 92.660,6.740 92.660,6.740 C95.323,7.046 97.332,9.280 97.332,11.936 C97.332,11.936 97.332,11.936 97.332,11.936 C97.332,14.825 94.967,17.167 92.052,17.167 Z" id="path-11" class="cls-3" fill-rule="evenodd"/>
    <path d="M94.365,90.544 C94.365,90.544 72.399,90.544 72.399,90.544 C71.394,90.544 70.580,89.737 70.580,88.742 C70.580,87.746 71.394,86.939 72.399,86.939 C72.399,86.939 94.365,86.939 94.365,86.939 C95.370,86.939 96.184,87.746 96.184,88.742 C96.184,89.737 95.370,90.544 94.365,90.544 Z" id="path-12" class="cls-7" fill-rule="evenodd"/>
    <path d="M94.365,130.107 C94.365,130.107 72.399,130.107 72.399,130.107 C71.394,130.107 70.580,129.300 70.580,128.304 C70.580,127.309 71.394,126.501 72.399,126.501 C72.399,126.501 94.365,126.501 94.365,126.501 C95.370,126.501 96.184,127.309 96.184,128.304 C96.184,129.300 95.370,130.107 94.365,130.107 Z" id="path-13" class="cls-7" fill-rule="evenodd"/>
    <path d="M94.365,169.670 C94.365,169.670 72.399,169.670 72.399,169.670 C71.394,169.670 70.580,168.863 70.580,167.867 C70.580,166.872 71.394,166.064 72.399,166.064 C72.399,166.064 94.365,166.064 94.365,166.064 C95.370,166.064 96.184,166.872 96.184,167.867 C96.184,168.863 95.370,169.670 94.365,169.670 Z" id="path-14" class="cls-7" fill-rule="evenodd"/>
    <path d="M18.580,174.916 C16.571,174.916 14.942,173.302 14.942,171.312 C14.942,171.312 14.942,90.518 14.942,90.518 C14.942,88.526 16.571,86.913 18.580,86.913 C20.590,86.913 22.220,88.526 22.220,90.518 C22.220,90.518 22.220,171.312 22.220,171.312 C22.220,173.302 20.590,174.916 18.580,174.916 Z" id="path-15" class="cls-7" fill-rule="evenodd"/>
    <path d="M58.893,26.852 C58.893,26.852 58.893,17.734 58.893,17.734 C58.893,17.734 42.919,17.734 42.919,17.734 C42.919,17.734 42.919,22.573 42.919,22.573 C42.919,22.573 58.893,26.852 58.893,26.852 Z" id="path-16" class="cls-18" fill-rule="evenodd"/>
  </g>
</svg>
