<svg xmlns="http://www.w3.org/2000/svg" xmlns:xlink="http://www.w3.org/1999/xlink" preserveAspectRatio="xMidYMid" width="218" height="215" viewBox="0 0 218 215">
  <defs>
    <style>

      .cls-3 {
        fill: #2476ff;
      }

      .cls-6 {
        fill: #ff3a2f;
      }

      .cls-7 {
        fill: #020403;
        opacity: 0.25;
      }

      .cls-8 {
        fill: #142a3b;
      }

      .cls-9 {
        fill: #020403;
        opacity: 0.35;
      }

      .cls-10 {
        fill: #fbb713;
      }

      .cls-13 {
        fill: #ededed;
      }

      .cls-16 {
        fill: #ffffff;
      }
    </style>
  </defs>
  <g id="group-30svg">
    <path d="M158.080,191.052 C158.080,191.052 175.529,191.052 175.529,191.052 C178.894,191.052 181.621,192.655 181.621,194.632 C181.621,196.611 178.894,198.214 175.529,198.214 C175.529,198.214 174.717,198.214 174.717,198.214 C171.352,198.214 168.625,199.817 168.625,201.796 C168.625,203.773 171.352,205.377 174.717,205.377 C174.717,205.377 212.228,205.377 212.228,205.377 C215.592,205.377 218.320,206.980 218.320,208.958 C218.320,210.936 215.592,212.539 212.228,212.539 C212.228,212.539 167.149,212.539 167.149,212.539 C167.149,212.539 117.603,212.539 117.603,212.539 C114.238,212.539 111.511,210.936 111.511,208.958 C111.511,206.980 114.238,205.377 117.603,205.377 C117.603,205.377 128.014,205.377 128.014,205.377 C131.378,205.377 134.106,203.773 134.106,201.796 C134.106,199.817 131.378,198.214 128.014,198.214 C128.014,198.214 78.467,198.214 78.467,198.214 C75.103,198.214 72.376,196.611 72.376,194.632 C72.376,192.655 75.103,191.052 78.467,191.052 C78.467,191.052 90.177,191.052 90.177,191.052 C90.177,191.052 158.080,191.052 158.080,191.052 Z" id="path-1" class="cls-3" fill-rule="evenodd"/>
    <path d="M27.668,182.806 C27.668,182.806 33.303,182.806 33.303,182.806 C34.390,182.806 35.271,184.409 35.271,186.387 C35.271,188.365 34.390,189.968 33.303,189.968 C33.303,189.968 33.040,189.968 33.040,189.968 C31.954,189.968 31.073,191.571 31.073,193.550 C31.073,195.528 31.954,197.131 33.040,197.131 C33.040,197.131 45.156,197.131 45.156,197.131 C46.242,197.131 47.123,198.735 47.123,200.712 C47.123,202.690 46.242,204.294 45.156,204.294 C45.156,204.294 30.596,204.294 30.596,204.294 C30.596,204.294 14.594,204.294 14.594,204.294 C13.508,204.294 12.627,202.690 12.627,200.712 C12.627,198.735 13.508,197.131 14.594,197.131 C14.594,197.131 17.957,197.131 17.957,197.131 C19.043,197.131 19.924,195.528 19.924,193.550 C19.924,191.571 19.043,189.968 17.957,189.968 C17.957,189.968 1.955,189.968 1.955,189.968 C0.869,189.968 -0.013,188.365 -0.013,186.387 C-0.013,184.409 0.869,182.806 1.955,182.806 C1.955,182.806 5.737,182.806 5.737,182.806 C5.737,182.806 27.668,182.806 27.668,182.806 Z" id="path-2" class="cls-3" fill-rule="evenodd"/>
    <path d="M81.301,214.716 C84.756,214.716 87.556,213.005 87.556,210.894 C87.556,208.784 84.756,207.073 81.301,207.073 C81.301,207.073 62.131,207.073 62.131,207.073 C58.677,207.073 55.876,208.784 55.876,210.894 C55.876,213.005 58.677,214.716 62.131,214.716 C62.131,214.716 81.301,214.716 81.301,214.716 Z" id="path-3" class="cls-3" fill-rule="evenodd"/>
    <path d="M140.476,165.946 C140.476,165.946 86.360,165.946 86.360,165.946 C86.360,165.946 96.192,23.107 96.192,23.107 C96.192,23.107 130.645,23.107 130.645,23.107 C130.645,23.107 140.476,165.946 140.476,165.946 Z" id="path-4" class="cls-6" fill-rule="evenodd"/>
    <path d="M116.556,30.086 C116.556,30.086 125.907,165.946 125.907,165.946 C125.907,165.946 140.476,165.946 140.476,165.946 C140.476,165.946 130.645,23.107 130.645,23.107 C130.645,23.107 96.192,23.107 96.192,23.107 C96.192,23.107 95.711,30.086 95.711,30.086 C95.711,30.086 116.556,30.086 116.556,30.086 Z" id="path-5" class="cls-7" fill-rule="evenodd"/>
    <path d="M157.104,191.916 C157.104,191.916 69.732,191.916 69.732,191.916 C69.732,191.916 69.732,165.946 69.732,165.946 C69.732,165.946 157.104,165.946 157.104,165.946 C157.104,165.946 157.104,191.916 157.104,191.916 Z" id="path-6" class="cls-8" fill-rule="evenodd"/>
    <path d="M127.164,165.946 C127.164,165.946 127.164,191.916 127.164,191.916 C127.164,191.916 157.104,191.916 157.104,191.916 C157.104,191.916 157.104,165.946 157.104,165.946 C157.104,165.946 127.164,165.946 127.164,165.946 Z" id="path-7" class="cls-9" fill-rule="evenodd"/>
    <path d="M135.010,23.107 C135.051,22.567 135.094,22.027 135.094,21.477 C135.094,9.618 125.390,0.004 113.418,0.004 C101.447,0.004 91.743,9.618 91.743,21.477 C91.743,22.027 91.785,22.567 91.826,23.107 C91.826,23.107 135.010,23.107 135.010,23.107 Z" id="path-8" class="cls-10" fill-rule="evenodd"/>
    <path d="M113.418,0.003 C110.948,0.003 108.585,0.433 106.374,1.186 C114.882,4.086 121.005,12.064 121.005,21.476 C121.005,22.027 120.963,22.567 120.921,23.107 C120.921,23.107 135.010,23.107 135.010,23.107 C135.051,22.567 135.094,22.027 135.094,21.476 C135.094,9.618 125.390,0.003 113.418,0.003 Z" id="path-9" class="cls-7" fill-rule="evenodd"/>
    <path d="M147.826,68.914 C147.826,68.914 79.009,68.914 79.009,68.914 C79.009,68.914 79.009,61.704 79.009,61.704 C79.009,61.704 147.826,61.704 147.826,61.704 C147.826,61.704 147.826,68.914 147.826,68.914 Z" id="path-10" class="cls-8" fill-rule="evenodd"/>
    <path d="M123.484,65.309 C123.484,65.309 103.352,65.309 103.352,65.309 C103.352,65.309 105.514,52.465 105.514,52.465 C106.158,48.637 109.501,45.831 113.418,45.831 C113.418,45.831 113.418,45.831 113.418,45.831 C117.336,45.831 120.679,48.637 121.323,52.465 C121.323,52.465 123.484,65.309 123.484,65.309 Z" id="path-11" class="cls-13" fill-rule="evenodd"/>
    <path d="M135.090,115.259 C134.491,115.259 133.884,115.113 133.324,114.803 C133.324,114.803 89.974,90.891 89.974,90.891 C88.217,89.923 87.586,87.727 88.565,85.988 C89.542,84.249 91.761,83.623 93.514,84.592 C93.514,84.592 136.863,108.505 136.863,108.505 C138.621,109.474 139.251,111.668 138.273,113.408 C137.608,114.592 136.367,115.259 135.090,115.259 Z" id="path-12" class="cls-13" fill-rule="evenodd"/>
    <path d="M135.090,150.153 C134.491,150.153 133.884,150.006 133.324,149.697 C133.324,149.697 89.974,125.785 89.974,125.785 C88.217,124.816 87.586,122.620 88.565,120.881 C89.542,119.142 91.761,118.517 93.514,119.485 C93.514,119.485 136.863,143.398 136.863,143.398 C138.621,144.366 139.251,146.562 138.273,148.301 C137.608,149.485 136.367,150.153 135.090,150.153 Z" id="path-13" class="cls-13" fill-rule="evenodd"/>
    <path d="M109.447,8.927 C109.447,10.212 108.396,11.254 107.099,11.254 C105.802,11.254 104.751,10.212 104.751,8.927 C104.751,7.642 105.802,6.601 107.099,6.601 C108.396,6.601 109.447,7.642 109.447,8.927 Z" id="path-14" class="cls-16" fill-rule="evenodd"/>
    <path d="M104.297,15.906 C104.297,18.227 102.398,20.110 100.055,20.110 C97.710,20.110 95.811,18.227 95.811,15.906 C95.811,13.584 97.710,11.702 100.055,11.702 C102.398,11.702 104.297,13.584 104.297,15.906 Z" id="path-15" class="cls-16" fill-rule="evenodd"/>
  </g>
</svg>
