<svg xmlns="http://www.w3.org/2000/svg" xmlns:xlink="http://www.w3.org/1999/xlink" preserveAspectRatio="xMidYMid" width="219" height="216" viewBox="0 0 219 216">
  <defs>
    <style>

      .cls-3 {
        fill: #0cb04a;
      }

      .cls-5 {
        fill: #142a3b;
      }

      .cls-6 {
        fill: #fbb713;
      }

      .cls-7 {
        fill: #020403;
        opacity: 0.25;
      }

      .cls-8 {
        fill: #020403;
        opacity: 0.35;
      }

      .cls-9 {
        fill: #ff3a2f;
      }

      .cls-10 {
        fill: #020403;
        opacity: 0.45;
      }
    </style>
  </defs>
  <g id="group-84svg">
    <path d="M49.180,182.364 C49.180,182.364 34.933,182.364 34.933,182.364 C32.187,182.364 29.960,184.844 29.960,187.905 C29.960,190.965 32.187,193.445 34.933,193.445 C34.933,193.445 35.597,193.445 35.597,193.445 C38.343,193.445 40.570,195.925 40.570,198.986 C40.570,202.046 38.343,204.526 35.597,204.526 C35.597,204.526 4.970,204.526 4.970,204.526 C2.223,204.526 -0.003,207.008 -0.003,210.067 C-0.003,213.127 2.223,215.608 4.970,215.608 C4.970,215.608 41.775,215.608 41.775,215.608 C41.775,215.608 117.003,215.608 117.003,215.608 C119.750,215.608 121.977,213.127 121.977,210.067 C121.977,207.008 119.750,204.526 117.003,204.526 C117.003,204.526 108.504,204.526 108.504,204.526 C105.756,204.526 103.530,202.046 103.530,198.986 C103.530,195.925 105.756,193.445 108.504,193.445 C108.504,193.445 148.955,193.445 148.955,193.445 C151.702,193.445 153.929,190.965 153.929,187.905 C153.929,184.844 151.702,182.364 148.955,182.364 C148.955,182.364 139.395,182.364 139.395,182.364 C139.395,182.364 49.180,182.364 49.180,182.364 Z" id="path-1" class="cls-3" fill-rule="evenodd"/>
    <path d="M149.103,215.906 C145.704,215.906 142.949,214.177 142.949,212.043 C142.949,209.911 145.704,208.181 149.103,208.181 C149.103,208.181 167.961,208.181 167.961,208.181 C171.360,208.181 174.116,209.911 174.116,212.043 C174.116,214.177 171.360,215.906 167.961,215.906 C167.961,215.906 149.103,215.906 149.103,215.906 Z" id="path-2" class="cls-3" fill-rule="evenodd"/>
    <path d="M158.268,78.767 C159.742,80.228 161.916,80.444 163.122,79.249 C163.122,79.249 182.043,59.447 182.043,59.447 C182.043,59.447 217.551,22.273 217.551,22.273 C218.757,21.075 218.537,18.926 217.062,17.463 C217.062,17.463 200.706,1.263 200.706,1.263 C199.233,-0.198 197.059,-0.416 195.853,0.777 C195.853,0.777 141.427,57.755 141.427,57.755 C140.218,58.953 140.438,61.104 141.913,62.566 C141.913,62.566 158.268,78.767 158.268,78.767 Z" id="path-3" class="cls-5" fill-rule="evenodd"/>
    <path d="M137.128,94.689 C137.128,94.689 142.365,100.097 142.365,100.097 C153.253,114.497 155.840,129.992 134.966,150.670 C108.518,176.870 54.663,201.233 36.613,183.354 C18.564,165.472 43.156,112.120 69.603,85.920 C90.321,65.393 105.880,67.767 120.326,78.347 C120.326,78.347 125.912,82.804 125.912,82.804 C125.912,82.804 137.128,94.689 137.128,94.689 Z" id="path-4" class="cls-6" fill-rule="evenodd"/>
    <path d="M142.365,100.097 C142.365,100.097 137.128,94.689 137.128,94.689 C137.128,94.689 125.912,82.804 125.912,82.804 C125.912,82.804 120.326,78.347 120.326,78.347 C118.110,76.724 115.862,75.325 113.579,74.140 C113.579,74.140 123.217,84.354 123.217,84.354 C123.217,84.354 128.455,89.761 128.455,89.761 C139.343,104.162 141.930,119.658 121.055,140.335 C98.589,162.592 56.356,183.506 33.083,178.343 C34.006,180.215 35.157,181.910 36.613,183.354 C54.663,201.233 108.518,176.870 134.966,150.669 C155.841,129.992 153.253,114.497 142.365,100.097 Z" id="path-5" class="cls-7" fill-rule="evenodd"/>
    <path d="M138.887,96.651 C138.887,96.651 133.650,91.243 133.650,91.243 C133.650,91.243 130.193,87.581 130.193,87.581 C130.193,87.581 110.030,107.556 110.030,107.556 C108.964,107.299 107.862,107.123 106.716,107.123 C98.974,107.123 92.701,113.337 92.701,121.008 C92.701,128.676 98.974,134.891 106.716,134.891 C114.457,134.891 120.731,128.676 120.731,121.008 C120.731,119.511 120.432,118.097 119.990,116.749 C119.990,116.749 139.463,97.457 139.463,97.457 C139.267,97.188 139.089,96.919 138.887,96.651 Z" id="path-6" class="cls-8" fill-rule="evenodd"/>
    <path d="M156.698,73.491 C156.698,73.491 147.078,63.964 147.078,63.964 C147.078,63.964 110.030,100.667 110.030,100.667 C108.964,100.408 107.862,100.233 106.716,100.233 C98.974,100.233 92.701,106.447 92.701,114.117 C92.701,121.786 98.974,128.001 106.716,128.001 C114.457,128.001 120.731,121.786 120.731,114.117 C120.731,112.621 120.432,111.206 119.990,109.859 C119.990,109.859 156.698,73.491 156.698,73.491 Z" id="path-7" class="cls-9" fill-rule="evenodd"/>
    <path d="M217.062,17.463 C217.062,17.463 209.433,9.906 209.433,9.906 C209.433,9.906 178.565,42.221 178.565,42.221 C178.565,42.221 159.645,62.024 159.645,62.024 C158.438,63.219 156.265,63.003 154.790,61.541 C154.790,61.541 146.065,52.899 146.065,52.899 C146.065,52.899 141.427,57.755 141.427,57.755 C140.218,58.953 140.438,61.104 141.913,62.566 C141.913,62.566 158.268,78.767 158.268,78.767 C159.742,80.228 161.916,80.444 163.122,79.249 C163.122,79.249 182.043,59.447 182.043,59.447 C182.043,59.447 217.551,22.273 217.551,22.273 C218.757,21.075 218.537,18.925 217.062,17.463 Z" id="path-8" class="cls-10" fill-rule="evenodd"/>
    <path d="M156.698,73.491 C156.698,73.491 147.078,63.964 147.078,63.964 C147.078,63.964 145.340,65.686 145.340,65.686 C145.340,65.686 149.743,70.047 149.743,70.047 C149.743,70.047 113.035,106.414 113.035,106.414 C113.476,107.761 113.776,109.176 113.776,110.672 C113.776,118.341 107.503,124.556 99.761,124.556 C98.903,124.556 98.074,124.452 97.259,124.306 C99.755,126.580 103.056,128.001 106.716,128.001 C114.457,128.001 120.731,121.786 120.731,114.118 C120.731,112.621 120.432,111.206 119.990,109.859 C119.990,109.859 156.698,73.491 156.698,73.491 Z" id="path-9" class="cls-8" fill-rule="evenodd"/>
  </g>
</svg>
