<svg xmlns="http://www.w3.org/2000/svg" xmlns:xlink="http://www.w3.org/1999/xlink" preserveAspectRatio="xMidYMid" width="204" height="217" viewBox="0 0 204 217">
  <defs>
    <style>

      .cls-3 {
        fill: #ff3a2f;
      }

      .cls-4 {
        fill: #ffffff;
      }

      .cls-5 {
        fill: #142a3b;
      }

      .cls-7 {
        fill: #fbb713;
      }

      .cls-8 {
        fill: #020403;
        opacity: 0.35;
      }
    </style>
  </defs>
  <g id="group-128svg">
    <path d="M149.613,35.968 C149.613,35.968 138.154,47.321 138.154,47.321 C138.154,47.321 109.200,18.639 109.200,18.639 C109.200,18.639 120.661,7.286 120.661,7.286 C129.704,-1.674 143.484,-2.472 151.453,5.423 C155.457,9.391 157.257,14.810 156.898,20.316 C156.589,25.872 154.115,31.509 149.613,35.968 Z" id="path-1" class="cls-3" fill-rule="evenodd"/>
    <path d="M123.101,18.281 C122.569,18.281 122.025,18.163 121.509,17.916 C119.705,17.043 118.956,14.885 119.836,13.095 C121.702,9.302 124.801,6.366 128.560,4.825 C132.469,3.226 136.617,3.308 140.241,5.059 C142.047,5.931 142.796,8.091 141.915,9.880 C141.041,11.668 138.873,12.417 137.050,11.538 C135.330,10.706 133.300,10.690 131.339,11.489 C129.225,12.356 127.462,14.048 126.375,16.255 C125.746,17.536 124.453,18.281 123.101,18.281 Z" id="path-2" class="cls-4" fill-rule="evenodd"/>
    <path d="M16.735,109.960 C16.735,109.960 112.041,15.930 112.041,15.930 C112.041,15.930 141.071,44.688 141.071,44.688 C141.071,44.688 44.526,139.814 44.526,139.814 C44.526,139.814 44.526,139.814 44.526,139.814 " id="path-3" class="cls-5" fill-rule="evenodd"/>
    <path d="M19.812,146.017 C19.812,146.017 3.016,152.512 3.016,152.512 C3.016,152.512 8.892,135.201 8.892,135.201 C8.892,135.201 19.812,146.017 19.812,146.017 Z" id="path-4" class="cls-5" fill-rule="evenodd"/>
    <path d="M33.487,110.062 C33.487,110.062 22.744,110.062 22.744,110.062 C22.744,110.062 16.735,109.960 16.735,109.960 C16.735,109.960 8.892,135.201 8.892,135.201 C8.892,135.201 19.811,146.017 19.811,146.017 C19.811,146.017 44.526,139.814 44.526,139.814 C44.526,139.814 45.367,132.119 45.367,132.119 C45.367,132.119 45.371,121.842 45.371,121.842 C45.371,121.842 33.247,123.498 33.247,123.498 C33.247,123.498 33.487,110.062 33.487,110.062 Z" id="path-5" class="cls-7" fill-rule="evenodd"/>
    <path d="M140.149,0.144 C141.413,0.894 142.604,1.789 143.681,2.856 C147.686,6.824 149.484,12.243 149.126,17.750 C148.817,23.306 146.342,28.941 141.840,33.402 C141.840,33.402 135.562,39.622 135.562,39.622 C135.562,39.622 140.743,44.756 140.743,44.756 C140.743,44.756 149.613,35.967 149.613,35.967 C154.113,31.508 156.589,25.872 156.898,20.316 C157.257,14.810 155.457,9.390 151.453,5.423 C148.358,2.355 144.382,0.618 140.149,0.144 Z" id="path-6" class="cls-8" fill-rule="evenodd"/>
    <path d="M110.116,17.450 C110.116,17.450 125.830,37.419 125.830,37.419 C128.629,40.976 128.319,46.041 125.107,49.236 C125.107,49.236 45.388,128.577 45.388,128.577 C45.388,128.577 44.526,139.814 44.526,139.814 C44.526,139.814 141.071,44.688 141.071,44.688 C141.071,44.688 112.041,15.930 112.041,15.930 C112.041,15.930 110.116,17.450 110.116,17.450 Z" id="path-7" class="cls-8" fill-rule="evenodd"/>
    <path d="M38.366,136.522 C38.366,136.522 16.132,142.374 16.132,142.374 C16.132,142.374 19.811,146.017 19.811,146.017 C19.811,146.017 44.526,139.814 44.526,139.814 C44.526,139.814 45.367,132.119 45.367,132.119 C45.367,132.119 45.371,121.842 45.371,121.842 C45.371,121.842 42.755,122.200 42.755,122.200 C42.755,122.200 38.366,136.522 38.366,136.522 Z" id="path-8" class="cls-8" fill-rule="evenodd"/>
    <path d="M46.760,96.264 C45.829,96.264 44.899,95.913 44.188,95.209 C42.766,93.802 42.766,91.518 44.188,90.110 C44.188,90.110 101.610,33.224 101.610,33.224 C103.032,31.815 105.335,31.815 106.755,33.224 C108.177,34.631 108.177,36.914 106.755,38.321 C106.755,38.321 49.333,95.209 49.333,95.209 C48.622,95.913 47.691,96.264 46.760,96.264 Z" id="path-9" class="cls-4" fill-rule="evenodd"/>
    <path d="M179.549,156.013 C183.049,156.013 185.886,154.750 185.886,153.194 C185.886,151.637 183.049,150.376 179.549,150.376 C179.549,150.376 160.130,150.376 160.130,150.376 C156.630,150.376 153.793,151.637 153.793,153.194 C153.793,154.750 156.630,156.013 160.130,156.013 C160.130,156.013 179.549,156.013 179.549,156.013 Z" id="path-10" class="cls-3" fill-rule="evenodd"/>
    <path d="M177.161,123.891 C177.161,123.891 184.461,123.891 184.461,123.891 C185.869,123.891 187.010,124.518 187.010,125.292 C187.010,126.065 185.869,126.691 184.461,126.691 C184.461,126.691 184.121,126.691 184.121,126.691 C182.713,126.691 181.572,127.318 181.572,128.092 C181.572,128.866 182.713,129.493 184.121,129.493 C184.121,129.493 199.814,129.493 199.814,129.493 C201.222,129.493 202.362,130.120 202.362,130.894 C202.362,131.667 201.222,132.294 199.814,132.294 C199.814,132.294 180.955,132.294 180.955,132.294 C180.955,132.294 142.409,132.294 142.409,132.294 C141.001,132.294 139.860,131.667 139.860,130.894 C139.860,130.120 141.001,129.493 142.409,129.493 C142.409,129.493 146.764,129.493 146.764,129.493 C148.171,129.493 149.313,128.866 149.313,128.092 C149.313,127.318 148.171,126.691 146.764,126.691 C146.764,126.691 126.037,126.691 126.037,126.691 C124.629,126.691 123.488,126.065 123.488,125.292 C123.488,124.518 124.629,123.891 126.037,123.891 C126.037,123.891 130.935,123.891 130.935,123.891 C130.935,123.891 177.161,123.891 177.161,123.891 Z" id="path-11" class="cls-3" fill-rule="evenodd"/>
    <path d="M179.549,156.013 C183.049,156.013 185.886,154.750 185.886,153.194 C185.886,151.637 183.049,150.376 179.549,150.376 C179.549,150.376 160.130,150.376 160.130,150.376 C156.630,150.376 153.793,151.637 153.793,153.194 C153.793,154.750 156.630,156.013 160.130,156.013 C160.130,156.013 179.549,156.013 179.549,156.013 Z" id="path-12" class="cls-3" fill-rule="evenodd"/>
    <path d="M177.161,123.891 C177.161,123.891 184.461,123.891 184.461,123.891 C185.869,123.891 187.010,124.518 187.010,125.292 C187.010,126.065 185.869,126.691 184.461,126.691 C184.461,126.691 184.121,126.691 184.121,126.691 C182.713,126.691 181.572,127.318 181.572,128.092 C181.572,128.866 182.713,129.493 184.121,129.493 C184.121,129.493 199.814,129.493 199.814,129.493 C201.222,129.493 202.362,130.120 202.362,130.894 C202.362,131.667 201.222,132.294 199.814,132.294 C199.814,132.294 180.955,132.294 180.955,132.294 C180.955,132.294 142.409,132.294 142.409,132.294 C141.001,132.294 139.860,131.667 139.860,130.894 C139.860,130.120 141.001,129.493 142.409,129.493 C142.409,129.493 146.764,129.493 146.764,129.493 C148.171,129.493 149.313,128.866 149.313,128.092 C149.313,127.318 148.171,126.691 146.764,126.691 C146.764,126.691 126.037,126.691 126.037,126.691 C124.629,126.691 123.488,126.065 123.488,125.292 C123.488,124.518 124.629,123.891 126.037,123.891 C126.037,123.891 130.935,123.891 130.935,123.891 C130.935,123.891 177.161,123.891 177.161,123.891 Z" id="path-13" class="cls-3" fill-rule="evenodd"/>
    <path d="M30.971,110.062 C30.971,110.062 32.089,123.115 32.089,123.115 C32.089,123.115 33.247,123.498 33.247,123.498 C33.247,123.498 33.487,110.062 33.487,110.062 C33.487,110.062 30.971,110.062 30.971,110.062 Z" id="path-14" class="cls-8" fill-rule="evenodd"/>
    <path d="M179.549,156.013 C183.049,156.013 185.886,154.750 185.886,153.194 C185.886,151.637 183.049,150.376 179.549,150.376 C179.549,150.376 160.130,150.376 160.130,150.376 C156.630,150.376 153.793,151.637 153.793,153.194 C153.793,154.750 156.630,156.013 160.130,156.013 C160.130,156.013 179.549,156.013 179.549,156.013 Z" id="path-15" class="cls-3" fill-rule="evenodd"/>
    <path d="M177.161,123.891 C177.161,123.891 184.461,123.891 184.461,123.891 C185.869,123.891 187.010,124.518 187.010,125.292 C187.010,126.065 185.869,126.691 184.461,126.691 C184.461,126.691 184.121,126.691 184.121,126.691 C182.713,126.691 181.572,127.318 181.572,128.092 C181.572,128.866 182.713,129.493 184.121,129.493 C184.121,129.493 199.814,129.493 199.814,129.493 C201.222,129.493 202.362,130.120 202.362,130.894 C202.362,131.667 201.222,132.294 199.814,132.294 C199.814,132.294 180.955,132.294 180.955,132.294 C180.955,132.294 142.409,132.294 142.409,132.294 C141.001,132.294 139.860,131.667 139.860,130.894 C139.860,130.120 141.001,129.493 142.409,129.493 C142.409,129.493 146.764,129.493 146.764,129.493 C148.171,129.493 149.313,128.866 149.313,128.092 C149.313,127.318 148.171,126.691 146.764,126.691 C146.764,126.691 126.037,126.691 126.037,126.691 C124.629,126.691 123.488,126.065 123.488,125.292 C123.488,124.518 124.629,123.891 126.037,123.891 C126.037,123.891 130.935,123.891 130.935,123.891 C130.935,123.891 177.161,123.891 177.161,123.891 Z" id="path-16" class="cls-3" fill-rule="evenodd"/>
    <path d="M179.549,156.013 C183.049,156.013 185.886,154.750 185.886,153.194 C185.886,151.637 183.049,150.376 179.549,150.376 C179.549,150.376 160.130,150.376 160.130,150.376 C156.630,150.376 153.793,151.637 153.793,153.194 C153.793,154.750 156.630,156.013 160.130,156.013 C160.130,156.013 179.549,156.013 179.549,156.013 Z" id="path-17" class="cls-3" fill-rule="evenodd"/>
    <path d="M177.161,123.891 C177.161,123.891 184.461,123.891 184.461,123.891 C185.869,123.891 187.010,124.518 187.010,125.292 C187.010,126.065 185.869,126.691 184.461,126.691 C184.461,126.691 184.121,126.691 184.121,126.691 C182.713,126.691 181.572,127.318 181.572,128.092 C181.572,128.866 182.713,129.493 184.121,129.493 C184.121,129.493 199.814,129.493 199.814,129.493 C201.222,129.493 202.362,130.120 202.362,130.894 C202.362,131.667 201.222,132.294 199.814,132.294 C199.814,132.294 180.955,132.294 180.955,132.294 C180.955,132.294 142.409,132.294 142.409,132.294 C141.001,132.294 139.860,131.667 139.860,130.894 C139.860,130.120 141.001,129.493 142.409,129.493 C142.409,129.493 146.764,129.493 146.764,129.493 C148.171,129.493 149.313,128.866 149.313,128.092 C149.313,127.318 148.171,126.691 146.764,126.691 C146.764,126.691 126.037,126.691 126.037,126.691 C124.629,126.691 123.488,126.065 123.488,125.292 C123.488,124.518 124.629,123.891 126.037,123.891 C126.037,123.891 130.935,123.891 130.935,123.891 C130.935,123.891 177.161,123.891 177.161,123.891 Z" id="path-18" class="cls-3" fill-rule="evenodd"/>
    <path d="M141.907,197.328 C141.907,197.328 159.690,197.328 159.690,197.328 C163.119,197.328 165.899,198.564 165.899,200.088 C165.899,201.613 163.119,202.850 159.690,202.850 C159.690,202.850 158.863,202.850 158.863,202.850 C155.433,202.850 152.655,204.086 152.655,205.612 C152.655,207.137 155.433,208.373 158.863,208.373 C158.863,208.373 197.093,208.373 197.093,208.373 C200.521,208.373 203.301,209.610 203.301,211.134 C203.301,212.661 200.521,213.898 197.093,213.898 C197.093,213.898 151.150,213.898 151.150,213.898 C151.150,213.898 100.654,213.898 100.654,213.898 C97.226,213.898 94.445,212.661 94.445,211.134 C94.445,209.610 97.226,208.373 100.654,208.373 C100.654,208.373 111.265,208.373 111.265,208.373 C114.694,208.373 117.473,207.137 117.473,205.612 C117.473,204.086 114.694,202.850 111.265,202.850 C111.265,202.850 60.769,202.850 60.769,202.850 C57.339,202.850 54.560,201.613 54.560,200.088 C54.560,198.564 57.339,197.328 60.769,197.328 C60.769,197.328 72.702,197.328 72.702,197.328 C72.702,197.328 141.907,197.328 141.907,197.328 Z" id="path-19" class="cls-3" fill-rule="evenodd"/>
    <path d="M47.061,216.287 C50.976,216.287 54.150,214.875 54.150,213.133 C54.150,211.392 50.976,209.980 47.061,209.980 C47.061,209.980 25.337,209.980 25.337,209.980 C21.422,209.980 18.248,211.392 18.248,213.133 C18.248,214.875 21.422,216.287 25.337,216.287 C25.337,216.287 47.061,216.287 47.061,216.287 Z" id="path-20" class="cls-3" fill-rule="evenodd"/>
    <path d="M53.670,153.752 C53.670,153.752 60.970,153.752 60.970,153.752 C62.377,153.752 63.519,154.380 63.519,155.153 C63.519,155.926 62.377,156.553 60.970,156.553 C60.970,156.553 60.631,156.553 60.631,156.553 C59.222,156.553 58.082,157.180 58.082,157.953 C58.082,158.726 59.222,159.353 60.631,159.353 C60.631,159.353 76.323,159.353 76.323,159.353 C77.731,159.353 78.872,159.982 78.872,160.754 C78.872,161.529 77.731,162.156 76.323,162.156 C76.323,162.156 57.464,162.156 57.464,162.156 C57.464,162.156 18.918,162.156 18.918,162.156 C17.510,162.156 16.369,161.529 16.369,160.754 C16.369,159.982 17.510,159.353 18.918,159.353 C18.918,159.353 23.273,159.353 23.273,159.353 C24.680,159.353 25.822,158.726 25.822,157.953 C25.822,157.180 24.680,156.553 23.273,156.553 C23.273,156.553 2.546,156.553 2.546,156.553 C1.138,156.553 -0.003,155.926 -0.003,155.153 C-0.003,154.380 1.138,153.752 2.546,153.752 C2.546,153.752 7.444,153.752 7.444,153.752 C7.444,153.752 53.670,153.752 53.670,153.752 Z" id="path-21" class="cls-3" fill-rule="evenodd"/>
  </g>
</svg>
