<svg xmlns="http://www.w3.org/2000/svg" xmlns:xlink="http://www.w3.org/1999/xlink" preserveAspectRatio="xMidYMid" width="219" height="201" viewBox="0 0 219 201">
  <defs>
    <style>

      .cls-3 {
        fill: #ff3a2f;
      }

      .cls-7 {
        fill: #fbb713;
      }

      .cls-8 {
        fill: #010101;
        opacity: 0.25;
      }

      .cls-9 {
        fill: #142a3b;
      }

      .cls-10 {
        fill: #010101;
        opacity: 0.35;
      }

      .cls-11 {
        fill: #020200;
        opacity: 0.35;
      }
    </style>
  </defs>
  <g id="group-59svg">
    <path d="M69.844,163.092 C69.844,163.092 79.531,163.092 79.531,163.092 C81.397,163.092 82.912,164.365 82.912,165.935 C82.912,167.506 81.397,168.778 79.531,168.778 C79.531,168.778 79.079,168.778 79.079,168.778 C77.212,168.778 75.698,170.052 75.698,171.622 C75.698,173.192 77.212,174.465 79.079,174.465 C79.079,174.465 99.904,174.465 99.904,174.465 C101.771,174.465 103.286,175.738 103.286,177.309 C103.286,178.879 101.771,180.151 99.904,180.151 C99.904,180.151 74.878,180.151 74.878,180.151 C74.878,180.151 29.874,180.151 29.874,180.151 C28.006,180.151 26.492,178.879 26.492,177.309 C26.492,175.738 28.006,174.465 29.874,174.465 C29.874,174.465 35.653,174.465 35.653,174.465 C37.521,174.465 39.035,173.192 39.035,171.622 C39.035,170.052 37.521,168.778 35.653,168.778 C35.653,168.778 8.147,168.778 8.147,168.778 C6.281,168.778 4.766,167.506 4.766,165.935 C4.766,164.365 6.281,163.092 8.147,163.092 C8.147,163.092 32.147,163.092 32.147,163.092 C32.147,163.092 69.844,163.092 69.844,163.092 Z" id="path-1" class="cls-3" fill-rule="evenodd"/>
    <path d="M188.059,190.448 C188.059,190.448 193.619,190.448 193.619,190.448 C194.691,190.448 195.559,191.179 195.559,192.080 C195.559,192.982 194.691,193.712 193.619,193.712 C193.619,193.712 193.360,193.712 193.360,193.712 C192.288,193.712 191.419,194.443 191.419,195.344 C191.419,196.245 192.288,196.976 193.360,196.976 C193.360,196.976 205.312,196.976 205.312,196.976 C206.383,196.976 207.253,197.707 207.253,198.607 C207.253,199.509 206.383,200.240 205.312,200.240 C205.312,200.240 190.949,200.240 190.949,200.240 C190.949,200.240 165.118,200.240 165.118,200.240 C164.046,200.240 163.178,199.509 163.178,198.607 C163.178,197.707 164.046,196.976 165.118,196.976 C165.118,196.976 168.436,196.976 168.436,196.976 C169.508,196.976 170.377,196.245 170.377,195.344 C170.377,194.443 169.508,193.712 168.436,193.712 C168.436,193.712 152.649,193.712 152.649,193.712 C151.577,193.712 150.708,192.982 150.708,192.080 C150.708,191.179 151.577,190.448 152.649,190.448 C152.649,190.448 166.423,190.448 166.423,190.448 C166.423,190.448 188.059,190.448 188.059,190.448 Z" id="path-2" class="cls-3" fill-rule="evenodd"/>
    <path d="M48.714,108.988 C48.714,108.988 51.432,108.988 51.432,108.988 C51.956,108.988 52.380,109.345 52.380,109.786 C52.380,110.227 51.956,110.583 51.432,110.583 C51.432,110.583 51.306,110.583 51.306,110.583 C50.781,110.583 50.356,110.941 50.356,111.381 C50.356,111.822 50.781,112.179 51.306,112.179 C51.306,112.179 57.147,112.179 57.147,112.179 C57.671,112.179 58.096,112.536 58.096,112.977 C58.096,113.417 57.671,113.775 57.147,113.775 C57.147,113.775 50.126,113.775 50.126,113.775 C50.126,113.775 37.501,113.775 37.501,113.775 C36.977,113.775 36.552,113.417 36.552,112.977 C36.552,112.536 36.977,112.179 37.501,112.179 C37.501,112.179 39.122,112.179 39.122,112.179 C39.646,112.179 40.071,111.822 40.071,111.381 C40.071,110.941 39.646,110.583 39.122,110.583 C39.122,110.583 31.405,110.583 31.405,110.583 C30.881,110.583 30.457,110.227 30.457,109.786 C30.457,109.345 30.881,108.988 31.405,108.988 C31.405,108.988 38.138,108.988 38.138,108.988 C38.138,108.988 48.714,108.988 48.714,108.988 Z" id="path-3" class="cls-3" fill-rule="evenodd"/>
    <path d="M12.299,180.227 C13.971,180.227 15.325,179.377 15.325,178.328 C15.325,177.278 13.971,176.428 12.299,176.428 C12.299,176.428 3.024,176.428 3.024,176.428 C1.352,176.428 -0.003,177.278 -0.003,178.328 C-0.003,179.377 1.352,180.227 3.024,180.227 C3.024,180.227 12.299,180.227 12.299,180.227 Z" id="path-4" class="cls-3" fill-rule="evenodd"/>
    <path d="M198.336,146.792 C198.336,146.792 64.269,146.792 64.269,146.792 C64.269,146.792 87.789,-0.004 87.789,-0.004 C87.789,-0.004 174.816,-0.004 174.816,-0.004 C174.816,-0.004 198.336,146.792 198.336,146.792 Z" id="path-5" class="cls-7" fill-rule="evenodd"/>
    <path d="M174.816,-0.004 C174.816,-0.004 157.838,-0.004 157.838,-0.004 C157.838,-0.004 174.706,105.270 174.706,105.270 C177.143,120.483 165.277,134.251 149.728,134.251 C149.728,134.251 66.279,134.251 66.279,134.251 C66.279,134.251 64.269,146.792 64.269,146.792 C64.269,146.792 198.336,146.792 198.336,146.792 C198.336,146.792 174.816,-0.004 174.816,-0.004 Z" id="path-6" class="cls-8" fill-rule="evenodd"/>
    <path d="M218.329,172.422 C218.329,172.422 44.277,172.422 44.277,172.422 C44.277,172.422 44.277,146.792 44.277,146.792 C44.277,146.792 218.329,146.792 218.329,146.792 C218.329,146.792 218.329,172.422 218.329,172.422 Z" id="path-7" class="cls-9" fill-rule="evenodd"/>
    <path d="M205.671,146.792 C205.671,146.792 205.671,152.039 205.671,152.039 C205.671,159.834 199.293,166.152 191.424,166.152 C191.424,166.152 44.277,166.152 44.277,166.152 C44.277,166.152 44.277,172.422 44.277,172.422 C44.277,172.422 218.329,172.422 218.329,172.422 C218.329,172.422 218.329,146.792 218.329,146.792 C218.329,146.792 205.671,146.792 205.671,146.792 Z" id="path-8" class="cls-10" fill-rule="evenodd"/>
    <path d="M161.367,47.982 C159.357,47.982 157.728,46.369 157.728,44.377 C157.728,44.377 157.728,35.869 157.728,35.869 C157.728,33.877 159.357,32.263 161.367,32.263 C163.376,32.263 165.005,33.877 165.005,35.869 C165.005,35.869 165.005,44.377 165.005,44.377 C165.005,46.369 163.376,47.982 161.367,47.982 Z" id="path-9" class="cls-11" fill-rule="evenodd"/>
    <path d="M129.720,47.982 C127.710,47.982 126.081,46.369 126.081,44.377 C126.081,44.377 126.081,35.869 126.081,35.869 C126.081,33.877 127.710,32.263 129.720,32.263 C131.730,32.263 133.359,33.877 133.359,35.869 C133.359,35.869 133.359,44.377 133.359,44.377 C133.359,46.369 131.730,47.982 129.720,47.982 Z" id="path-10" class="cls-11" fill-rule="evenodd"/>
    <path d="M98.075,47.982 C96.066,47.982 94.437,46.369 94.437,44.377 C94.437,44.377 94.437,35.869 94.437,35.869 C94.437,33.877 96.066,32.263 98.075,32.263 C100.085,32.263 101.714,33.877 101.714,35.869 C101.714,35.869 101.714,44.377 101.714,44.377 C101.714,46.369 100.085,47.982 98.075,47.982 Z" id="path-11" class="cls-11" fill-rule="evenodd"/>
    <path d="M98.075,88.736 C96.066,88.736 94.437,87.123 94.437,85.131 C94.437,85.131 94.437,76.623 94.437,76.623 C94.437,74.634 96.066,73.019 98.075,73.019 C100.085,73.019 101.714,74.634 101.714,76.623 C101.714,76.623 101.714,85.131 101.714,85.131 C101.714,87.123 100.085,88.736 98.075,88.736 Z" id="path-12" class="cls-11" fill-rule="evenodd"/>
    <path d="M148.709,110.681 C146.699,110.681 145.070,109.067 145.070,107.077 C145.070,107.077 145.070,98.569 145.070,98.569 C145.070,96.578 146.699,94.964 148.709,94.964 C150.718,94.964 152.348,96.578 152.348,98.569 C152.348,98.569 152.348,107.077 152.348,107.077 C152.348,109.067 150.718,110.681 148.709,110.681 Z" id="path-13" class="cls-11" fill-rule="evenodd"/>
    <path d="M113.898,129.492 C111.888,129.492 110.259,127.877 110.259,125.886 C110.259,125.886 110.259,117.379 110.259,117.379 C110.259,115.388 111.888,113.774 113.898,113.774 C115.907,113.774 117.536,115.388 117.536,117.379 C117.536,117.379 117.536,125.886 117.536,125.886 C117.536,127.877 115.907,129.492 113.898,129.492 Z" id="path-14" class="cls-11" fill-rule="evenodd"/>
    <path d="M164.531,82.466 C162.521,82.466 160.892,80.852 160.892,78.862 C160.892,78.862 160.892,70.354 160.892,70.354 C160.892,68.363 162.521,66.749 164.531,66.749 C166.541,66.749 168.170,68.363 168.170,70.354 C168.170,70.354 168.170,78.862 168.170,78.862 C168.170,80.852 166.541,82.466 164.531,82.466 Z" id="path-15" class="cls-11" fill-rule="evenodd"/>
    <path d="M164.531,135.761 C162.521,135.761 160.892,134.147 160.892,132.157 C160.892,132.157 160.892,123.649 160.892,123.649 C160.892,121.657 162.521,120.044 164.531,120.044 C166.541,120.044 168.170,121.657 168.170,123.649 C168.170,123.649 168.170,132.157 168.170,132.157 C168.170,134.147 166.541,135.761 164.531,135.761 Z" id="path-16" class="cls-11" fill-rule="evenodd"/>
    <path d="M85.416,129.492 C83.406,129.492 81.777,127.877 81.777,125.886 C81.777,125.886 81.777,117.379 81.777,117.379 C81.777,115.388 83.406,113.774 85.416,113.774 C87.426,113.774 89.055,115.388 89.055,117.379 C89.055,117.379 89.055,125.886 89.055,125.886 C89.055,127.877 87.426,129.492 85.416,129.492 Z" id="path-17" class="cls-11" fill-rule="evenodd"/>
    <path d="M132.885,79.332 C130.875,79.332 129.246,77.717 129.246,75.728 C129.246,75.728 129.246,67.219 129.246,67.219 C129.246,65.228 130.875,63.614 132.885,63.614 C134.894,63.614 136.523,65.228 136.523,67.219 C136.523,67.219 136.523,75.728 136.523,75.728 C136.523,77.717 134.894,79.332 132.885,79.332 Z" id="path-18" class="cls-11" fill-rule="evenodd"/>
  </g>
</svg>
