<svg xmlns="http://www.w3.org/2000/svg" xmlns:xlink="http://www.w3.org/1999/xlink" preserveAspectRatio="xMidYMid" width="219" height="198" viewBox="0 0 219 198">
  <defs>
    <style>

      .cls-3 {
        fill: #0cb04a;
      }

      .cls-5 {
        fill: #020403;
        opacity: 0.35;
      }

      .cls-13 {
        fill: #142a3b;
      }

      .cls-19 {
        fill: #fbb713;
      }
    </style>
  </defs>
  <g id="group-135svg">
    <path d="M218.338,35.973 C218.338,16.105 200.345,-0.001 178.152,-0.001 C155.957,-0.001 137.966,16.105 137.966,35.973 C137.966,44.852 145.615,69.123 145.712,69.429 C145.716,69.442 145.716,69.436 145.723,69.447 C151.035,77.251 154.548,88.824 154.548,104.167 C154.548,119.498 152.972,129.153 147.673,136.950 C147.658,136.972 147.650,137.000 147.650,137.028 C147.650,137.028 147.650,148.062 147.650,148.062 C147.650,163.212 159.185,176.504 174.450,177.414 C191.027,178.401 204.781,165.377 204.781,149.167 C204.781,149.167 204.781,131.542 204.781,131.542 C204.781,131.542 204.776,131.502 204.768,131.484 C201.196,123.560 200.908,116.364 200.908,104.167 C200.908,91.956 203.133,82.838 206.717,74.904 C206.717,74.904 218.338,46.684 218.338,35.973 Z" id="path-1" class="cls-3" fill-rule="evenodd"/>
    <path d="M45.429,35.973 C45.429,16.105 63.421,-0.001 85.616,-0.001 C107.810,-0.001 125.802,16.105 125.802,35.973 C125.802,44.852 118.152,69.123 118.056,69.429 C118.052,69.442 118.051,69.436 118.044,69.447 C112.733,77.251 109.220,88.824 109.220,104.167 C109.220,119.498 110.797,129.153 116.093,136.950 C116.110,136.972 116.119,137.000 116.119,137.028 C116.119,137.028 116.119,148.062 116.119,148.062 C116.119,163.212 104.583,176.504 89.318,177.414 C72.741,178.401 58.986,165.377 58.986,149.167 C58.986,149.167 58.986,131.542 58.986,131.542 C58.986,131.542 58.991,131.502 58.999,131.484 C62.572,123.560 62.860,116.364 62.860,104.167 C62.860,91.956 60.635,82.838 57.050,74.904 C57.050,74.904 45.429,46.684 45.429,35.973 Z" id="path-2" class="cls-3" fill-rule="evenodd"/>
    <path d="M85.616,-0.001 C83.853,-0.001 82.131,0.137 80.429,0.333 C100.167,2.615 115.427,17.683 115.427,35.973 C115.427,44.852 107.778,69.123 107.682,69.429 C107.678,69.442 107.677,69.436 107.669,69.447 C102.358,77.251 98.845,88.824 98.845,104.167 C98.845,119.498 100.421,129.153 105.719,136.950 C105.735,136.972 105.743,137.000 105.743,137.028 C105.743,137.028 105.743,148.062 105.743,148.062 C105.743,162.053 95.898,174.436 82.369,176.969 C84.609,177.376 86.928,177.556 89.318,177.414 C104.583,176.504 116.118,163.212 116.118,148.062 C116.118,148.062 116.110,136.972 116.093,136.950 C110.796,129.153 109.220,119.498 109.220,104.167 C109.220,88.824 112.732,77.251 118.044,69.447 C118.051,69.436 118.052,69.442 118.056,69.429 C118.152,69.123 125.802,44.852 125.802,35.973 C125.802,16.105 107.810,-0.001 85.616,-0.001 Z" id="path-3" class="cls-5" fill-rule="evenodd"/>
    <path d="M218.338,35.973 C218.338,16.105 200.345,-0.001 178.152,-0.001 C176.390,-0.001 174.667,0.137 172.965,0.333 C192.703,2.615 207.963,17.683 207.963,35.973 C207.963,46.684 196.342,74.904 196.342,74.904 C192.758,82.838 190.534,91.956 190.534,104.167 C190.534,116.364 190.821,123.560 194.394,131.484 C194.401,131.502 194.407,131.522 194.407,131.522 C194.407,131.522 194.407,149.167 194.407,149.167 C194.407,163.039 184.320,174.548 171.024,176.969 C172.145,177.178 173.281,177.344 174.450,177.414 C191.027,178.401 204.780,165.377 204.780,149.167 C204.780,149.167 204.780,131.542 204.780,131.542 C204.780,131.542 204.776,131.502 204.768,131.484 C201.196,123.560 200.908,116.364 200.908,104.167 C200.908,91.956 203.132,82.838 206.717,74.904 C206.717,74.904 218.338,46.684 218.338,35.973 Z" id="path-4" class="cls-5" fill-rule="evenodd"/>
    <path d="M181.359,51.394 C181.345,51.394 181.331,51.394 181.317,51.394 C179.308,51.371 177.699,49.739 177.721,47.751 C177.721,47.751 177.973,25.921 177.973,25.921 C177.998,23.930 179.735,22.396 181.655,22.357 C183.662,22.380 185.272,24.011 185.250,26.003 C185.250,26.003 184.999,47.831 184.999,47.831 C184.977,49.807 183.349,51.394 181.359,51.394 Z" id="path-5" class="cls-5" fill-rule="evenodd"/>
    <path d="M201.039,83.151 C200.776,83.151 200.510,83.125 200.243,83.066 C198.282,82.630 197.045,80.704 197.485,78.761 C202.475,56.633 196.966,45.053 179.625,41.214 C177.664,40.780 176.427,38.852 176.868,36.908 C177.305,34.967 179.256,33.756 181.211,34.177 C202.563,38.905 210.432,54.435 204.585,80.333 C204.209,82.012 202.706,83.151 201.039,83.151 Z" id="path-6" class="cls-5" fill-rule="evenodd"/>
    <path d="M154.636,83.151 C152.970,83.151 151.466,82.012 151.089,80.333 C145.838,57.052 157.131,39.366 180.567,34.177 C182.525,33.754 184.472,34.967 184.910,36.908 C185.350,38.852 184.113,40.780 182.152,41.214 C162.522,45.559 153.787,59.246 158.191,78.761 C158.631,80.704 157.393,82.630 155.433,83.066 C155.166,83.125 154.900,83.151 154.636,83.151 Z" id="path-7" class="cls-5" fill-rule="evenodd"/>
    <path d="M87.619,51.394 C87.605,51.394 87.591,51.394 87.576,51.394 C85.569,51.371 83.959,49.739 83.981,47.751 C83.981,47.751 84.229,25.921 84.229,25.921 C84.251,23.930 86.038,22.396 87.910,22.357 C89.919,22.380 91.528,24.011 91.507,26.003 C91.507,26.003 91.259,47.831 91.259,47.831 C91.238,49.807 89.609,51.394 87.619,51.394 Z" id="path-8" class="cls-5" fill-rule="evenodd"/>
    <path d="M107.299,83.151 C107.036,83.151 106.770,83.125 106.503,83.066 C104.541,82.630 103.305,80.704 103.746,78.761 C108.734,56.635 103.227,45.055 85.885,41.214 C83.923,40.780 82.687,38.852 83.127,36.908 C83.565,34.967 85.527,33.756 87.470,34.177 C108.824,38.907 116.691,54.435 110.846,80.333 C110.469,82.012 108.966,83.151 107.299,83.151 Z" id="path-9" class="cls-5" fill-rule="evenodd"/>
    <path d="M60.896,83.151 C59.229,83.151 57.727,82.012 57.350,80.333 C52.097,57.052 63.391,39.366 86.828,34.177 C88.785,33.754 90.732,34.967 91.169,36.908 C91.610,38.852 90.374,40.780 88.412,41.214 C68.782,45.559 60.047,59.246 64.450,78.761 C64.891,80.704 63.654,82.630 61.692,83.066 C61.426,83.125 61.159,83.151 60.896,83.151 Z" id="path-10" class="cls-5" fill-rule="evenodd"/>
    <path d="M178.150,44.554 C176.139,44.554 174.512,42.940 174.512,40.949 C174.512,40.949 174.512,12.259 174.512,12.259 C174.512,10.269 176.139,8.654 178.150,8.654 C180.162,8.654 181.790,10.269 181.790,12.259 C181.790,12.259 181.790,40.949 181.790,40.949 C181.790,42.940 180.162,44.554 178.150,44.554 Z" id="path-11" class="cls-13" fill-rule="evenodd"/>
    <path d="M204.852,83.151 C204.589,83.151 204.323,83.125 204.056,83.066 C202.094,82.630 200.858,80.704 201.298,78.763 C205.741,59.051 195.520,31.795 176.168,27.511 C174.206,27.077 172.969,25.149 173.411,23.206 C173.847,21.264 175.802,20.052 177.753,20.474 C201.430,25.717 213.669,56.957 208.399,80.331 C208.022,82.012 206.519,83.151 204.852,83.151 Z" id="path-12" class="cls-13" fill-rule="evenodd"/>
    <path d="M150.749,83.151 C149.083,83.151 147.579,82.012 147.203,80.333 C141.911,56.884 153.823,25.629 177.110,20.474 C179.071,20.051 181.015,21.262 181.452,23.206 C181.892,25.149 180.656,27.077 178.694,27.511 C159.726,31.711 149.843,58.981 154.302,78.761 C154.743,80.704 153.506,82.630 151.544,83.066 C151.278,83.125 151.012,83.151 150.749,83.151 Z" id="path-13" class="cls-13" fill-rule="evenodd"/>
    <path d="M85.615,44.554 C83.603,44.554 81.976,42.940 81.976,40.949 C81.976,40.949 81.976,12.259 81.976,12.259 C81.976,10.269 83.603,8.654 85.615,8.654 C87.626,8.654 89.254,10.269 89.254,12.259 C89.254,12.259 89.254,40.949 89.254,40.949 C89.254,42.940 87.626,44.554 85.615,44.554 Z" id="path-14" class="cls-13" fill-rule="evenodd"/>
    <path d="M113.020,83.151 C112.758,83.151 112.491,83.125 112.225,83.066 C110.263,82.630 109.026,80.704 109.467,78.761 C113.870,59.241 102.811,31.758 83.628,27.511 C81.668,27.077 80.430,25.149 80.872,23.206 C81.308,21.264 83.259,20.052 85.213,20.474 C108.881,25.714 121.720,57.506 116.567,80.333 C116.190,82.012 114.687,83.151 113.020,83.151 Z" id="path-15" class="cls-13" fill-rule="evenodd"/>
    <path d="M58.924,83.151 C57.257,83.151 55.754,82.012 55.378,80.333 C49.930,56.185 60.189,25.664 83.628,20.474 C85.590,20.051 87.534,21.262 87.971,23.206 C88.412,25.149 87.175,27.077 85.213,27.511 C66.518,31.650 57.790,57.983 62.478,78.761 C62.919,80.704 61.682,82.630 59.720,83.066 C59.454,83.125 59.187,83.151 58.924,83.151 Z" id="path-16" class="cls-13" fill-rule="evenodd"/>
    <path d="M27.182,87.126 C27.182,87.126 32.715,87.126 32.715,87.126 C33.782,87.126 34.647,87.912 34.647,88.884 C34.647,89.854 33.782,90.642 32.715,90.642 C32.715,90.642 32.457,90.642 32.457,90.642 C31.390,90.642 30.526,91.429 30.526,92.400 C30.526,93.371 31.390,94.158 32.457,94.158 C32.457,94.158 44.351,94.158 44.351,94.158 C45.419,94.158 46.284,94.944 46.284,95.916 C46.284,96.886 45.419,97.675 44.351,97.675 C44.351,97.675 30.057,97.675 30.057,97.675 C30.057,97.675 14.347,97.675 14.347,97.675 C13.280,97.675 12.415,96.886 12.415,95.916 C12.415,94.944 13.280,94.158 14.347,94.158 C14.347,94.158 17.648,94.158 17.648,94.158 C18.714,94.158 19.579,93.371 19.579,92.400 C19.579,91.429 18.714,90.642 17.648,90.642 C17.648,90.642 1.937,90.642 1.937,90.642 C0.871,90.642 0.005,89.854 0.005,88.884 C0.005,87.912 0.871,87.126 1.937,87.126 C1.937,87.126 5.651,87.126 5.651,87.126 C5.651,87.126 27.182,87.126 27.182,87.126 Z" id="path-17" class="cls-19" fill-rule="evenodd"/>
    <path d="M68.265,172.939 C68.265,172.939 79.993,172.939 79.993,172.939 C82.255,172.939 84.087,174.468 84.087,176.354 C84.087,178.239 82.255,179.767 79.993,179.767 C79.993,179.767 79.447,179.767 79.447,179.767 C77.186,179.767 75.353,181.297 75.353,183.183 C75.353,185.068 77.186,186.598 79.447,186.598 C79.447,186.598 104.660,186.598 104.660,186.598 C106.921,186.598 108.754,188.126 108.754,190.013 C108.754,191.898 106.921,193.427 104.660,193.427 C104.660,193.427 74.362,193.427 74.362,193.427 C74.362,193.427 41.060,193.427 41.060,193.427 C38.798,193.427 36.965,191.898 36.965,190.013 C36.965,188.126 38.798,186.598 41.060,186.598 C41.060,186.598 48.056,186.598 48.056,186.598 C50.318,186.598 52.151,185.068 52.151,183.183 C52.151,181.297 50.318,179.767 48.056,179.767 C48.056,179.767 14.756,179.767 14.756,179.767 C12.494,179.767 10.661,178.239 10.661,176.354 C10.661,174.468 12.494,172.939 14.756,172.939 C14.756,172.939 22.626,172.939 22.626,172.939 C22.626,172.939 68.265,172.939 68.265,172.939 Z" id="path-18" class="cls-19" fill-rule="evenodd"/>
    <path d="M159.002,197.179 C162.394,197.179 165.144,195.499 165.144,193.427 C165.144,191.354 162.394,189.675 159.002,189.675 C159.002,189.675 140.182,189.675 140.182,189.675 C136.789,189.675 134.039,191.354 134.039,193.427 C134.039,195.499 136.789,197.179 140.182,197.179 C140.182,197.179 159.002,197.179 159.002,197.179 Z" id="path-19" class="cls-19" fill-rule="evenodd"/>
  </g>
</svg>
