<svg xmlns="http://www.w3.org/2000/svg" xmlns:xlink="http://www.w3.org/1999/xlink" preserveAspectRatio="xMidYMid" width="219" height="210" viewBox="0 0 219 210">
  <defs>
    <style>

      .cls-3 {
        fill: #142a3b;
      }

      .cls-5 {
        fill: #ff3a2f;
      }

      .cls-6 {
        fill: #020403;
        opacity: 0.35;
      }

      .cls-8 {
        fill: #0cb04a;
      }

      .cls-11 {
        fill: #fbb713;
      }
    </style>
  </defs>
  <g id="group-164svg">
    <path d="M23.510,146.935 C23.510,146.935 77.349,10.885 77.349,10.885 C77.349,10.885 33.814,150.506 33.814,150.506 C32.924,153.361 29.865,154.962 26.982,154.080 C24.101,153.196 22.486,150.167 23.376,147.312 C23.415,147.189 23.463,147.053 23.510,146.935 Z" id="path-1" class="cls-3" fill-rule="evenodd"/>
    <path d="M82.723,187.895 C81.803,187.895 80.880,187.550 80.172,186.859 C78.741,185.462 78.719,183.181 80.129,181.761 C80.129,181.761 159.358,101.989 159.358,101.989 C160.761,100.570 163.070,100.550 164.501,101.948 C165.935,103.345 165.956,105.628 164.544,107.046 C164.544,107.046 85.318,186.817 85.318,186.817 C84.608,187.535 83.666,187.895 82.723,187.895 Z" id="path-2" class="cls-3" fill-rule="evenodd"/>
    <path d="M58.008,124.274 C42.714,124.274 29.460,132.921 22.953,145.548 C20.218,150.856 18.677,156.869 18.677,163.238 C18.677,184.757 36.285,202.203 58.008,202.203 C79.730,202.203 97.339,184.757 97.339,163.238 C97.339,141.718 79.730,124.274 58.008,124.274 ZM58.008,179.029 C49.205,179.029 42.069,171.959 42.069,163.238 C42.069,160.657 42.694,158.220 43.802,156.069 C46.438,150.952 51.810,147.448 58.008,147.448 C66.810,147.448 73.947,154.517 73.947,163.238 C73.947,171.959 66.810,179.029 58.008,179.029 Z" id="path-3" class="cls-5" fill-rule="evenodd"/>
    <path d="M44.617,171.750 C43.021,169.290 42.069,166.380 42.069,163.238 C42.069,160.657 42.694,158.220 43.802,156.069 C46.438,150.952 51.810,147.448 58.008,147.448 C61.179,147.448 64.117,148.390 66.599,149.973 C63.765,145.605 58.842,142.695 53.209,142.695 C47.012,142.695 41.640,146.198 39.003,151.316 C37.894,153.467 37.270,155.903 37.270,158.484 C37.270,164.063 40.208,168.940 44.617,171.750 Z" id="path-4" class="cls-6" fill-rule="evenodd"/>
    <path d="M83.305,133.423 C89.061,140.198 92.541,148.936 92.541,158.484 C92.541,180.004 74.932,197.449 53.209,197.449 C43.570,197.449 34.750,194.001 27.909,188.298 C35.125,196.793 45.925,202.203 58.008,202.203 C79.730,202.203 97.339,184.757 97.339,163.238 C97.339,151.268 91.880,140.571 83.305,133.423 Z" id="path-5" class="cls-6" fill-rule="evenodd"/>
    <path d="M156.459,0.063 C130.208,1.415 96.429,29.210 97.793,55.215 C98.496,68.594 121.778,63.934 134.522,73.980 C146.548,83.458 147.692,108.056 160.435,107.400 C186.687,106.049 207.825,70.708 206.460,44.702 C205.097,18.698 182.711,-1.288 156.459,0.063 ZM159.908,65.787 C149.517,66.323 140.656,58.412 140.117,48.118 C139.575,37.824 147.561,29.046 157.952,28.511 C168.343,27.976 177.204,35.887 177.744,46.182 C178.284,56.474 170.298,65.252 159.908,65.787 Z" id="path-6" class="cls-8" fill-rule="evenodd"/>
    <path d="M153.991,29.155 C152.186,28.695 150.315,28.411 148.355,28.511 C137.964,29.046 129.978,37.824 130.519,48.118 C131.058,58.412 139.920,66.323 150.311,65.787 C151.681,65.718 153.001,65.486 154.272,65.144 C146.505,63.169 140.554,56.471 140.117,48.118 C139.648,39.181 145.613,31.404 153.991,29.155 Z" id="path-7" class="cls-6" fill-rule="evenodd"/>
    <path d="M156.459,0.063 C155.740,0.100 154.998,0.230 154.270,0.306 C177.194,2.654 195.631,21.188 196.863,44.702 C198.132,68.878 179.943,101.084 156.288,106.587 C157.530,107.174 158.895,107.479 160.435,107.400 C186.687,106.049 207.825,70.708 206.460,44.702 C205.097,18.698 182.711,-1.288 156.459,0.063 Z" id="path-8" class="cls-6" fill-rule="evenodd"/>
    <path d="M178.130,184.107 C178.130,184.107 189.779,184.107 189.779,184.107 C192.026,184.107 193.846,185.970 193.846,188.271 C193.846,190.570 192.026,192.434 189.779,192.434 C189.779,192.434 189.238,192.434 189.238,192.434 C186.992,192.434 185.170,194.300 185.170,196.599 C185.170,198.899 186.992,200.763 189.238,200.763 C189.238,200.763 214.280,200.763 214.280,200.763 C216.526,200.763 218.347,202.627 218.347,204.928 C218.347,207.227 216.526,209.092 214.280,209.092 C214.280,209.092 184.185,209.092 184.185,209.092 C184.185,209.092 122.673,209.092 122.673,209.092 C120.427,209.092 118.607,207.227 118.607,204.928 C118.607,202.627 120.427,200.763 122.673,200.763 C122.673,200.763 129.623,200.763 129.623,200.763 C131.869,200.763 133.690,198.899 133.690,196.599 C133.690,194.300 131.869,192.434 129.623,192.434 C129.623,192.434 96.547,192.434 96.547,192.434 C94.301,192.434 92.480,190.570 92.480,188.271 C92.480,185.970 94.301,184.107 96.547,184.107 C96.547,184.107 104.364,184.107 104.364,184.107 C104.364,184.107 178.130,184.107 178.130,184.107 Z" id="path-9" class="cls-11" fill-rule="evenodd"/>
    <path d="M77.871,209.466 C80.650,209.466 82.903,208.507 82.903,207.324 C82.903,206.142 80.650,205.181 77.871,205.181 C77.871,205.181 62.451,205.181 62.451,205.181 C59.672,205.181 57.419,206.142 57.419,207.324 C57.419,208.507 59.672,209.466 62.451,209.466 C62.451,209.466 77.871,209.466 77.871,209.466 Z" id="path-10" class="cls-11" fill-rule="evenodd"/>
    <path d="M195.639,142.447 C195.639,142.447 200.220,142.447 200.220,142.447 C201.103,142.447 201.820,143.375 201.820,144.519 C201.820,145.663 201.103,146.590 200.220,146.590 C200.220,146.590 200.007,146.590 200.007,146.590 C199.123,146.590 198.408,147.517 198.408,148.661 C198.408,149.805 199.123,150.731 200.007,150.731 C200.007,150.731 209.857,150.731 209.857,150.731 C210.739,150.731 211.456,151.660 211.456,152.803 C211.456,153.946 210.739,154.873 209.857,154.873 C209.857,154.873 198.020,154.873 198.020,154.873 C198.020,154.873 173.825,154.873 173.825,154.873 C172.942,154.873 172.226,153.946 172.226,152.803 C172.226,151.660 172.942,150.731 173.825,150.731 C173.825,150.731 176.560,150.731 176.560,150.731 C177.443,150.731 178.159,149.805 178.159,148.661 C178.159,147.517 177.443,146.590 176.560,146.590 C176.560,146.590 163.551,146.590 163.551,146.590 C162.667,146.590 161.952,145.663 161.952,144.519 C161.952,143.375 162.667,142.447 163.551,142.447 C163.551,142.447 166.625,142.447 166.625,142.447 C166.625,142.447 195.639,142.447 195.639,142.447 Z" id="path-11" class="cls-11" fill-rule="evenodd"/>
    <path d="M27.337,83.627 C27.337,83.627 31.052,83.627 31.052,83.627 C31.769,83.627 32.350,84.379 32.350,85.307 C32.350,86.234 31.769,86.987 31.052,86.987 C31.052,86.987 30.879,86.987 30.879,86.987 C30.164,86.987 29.582,87.739 29.582,88.666 C29.582,89.593 30.164,90.346 30.879,90.346 C30.879,90.346 38.868,90.346 38.868,90.346 C39.585,90.346 40.165,91.098 40.165,92.026 C40.165,92.954 39.585,93.705 38.868,93.705 C38.868,93.705 29.268,93.705 29.268,93.705 C29.268,93.705 9.646,93.705 9.646,93.705 C8.929,93.705 8.349,92.954 8.349,92.026 C8.349,91.098 8.929,90.346 9.646,90.346 C9.646,90.346 11.862,90.346 11.862,90.346 C12.579,90.346 13.160,89.593 13.160,88.666 C13.160,87.739 12.579,86.987 11.862,86.987 C11.862,86.987 1.312,86.987 1.312,86.987 C0.595,86.987 0.014,86.234 0.014,85.307 C0.014,84.379 0.595,83.627 1.312,83.627 C1.312,83.627 3.805,83.627 3.805,83.627 C3.805,83.627 27.337,83.627 27.337,83.627 Z" id="path-12" class="cls-11" fill-rule="evenodd"/>
  </g>
</svg>
