<svg xmlns="http://www.w3.org/2000/svg" xmlns:xlink="http://www.w3.org/1999/xlink" preserveAspectRatio="xMidYMid" width="219" height="177" viewBox="0 0 219 177">
  <defs>
    <style>

      .cls-3 {
        fill: #0cb04a;
      }

      .cls-4 {
        fill: #020403;
        opacity: 0.25;
      }

      .cls-5 {
        fill: #142a3b;
      }

      .cls-6 {
        fill: #2476ff;
      }

      .cls-7 {
        fill: #020403;
        opacity: 0.35;
      }

      .cls-9 {
        fill: #ffffff;
      }

      .cls-13 {
        fill: #020403;
        opacity: 0.45;
      }

      .cls-16 {
        fill: #fbb713;
      }
    </style>
  </defs>
  <g id="group-167svg">
    <path d="M20.952,176.710 C20.952,176.710 -0.006,155.949 -0.006,155.949 C-0.006,155.949 94.658,62.171 94.658,62.171 C94.658,62.171 115.614,82.932 115.614,82.932 C115.614,82.932 20.952,176.710 20.952,176.710 Z" id="path-1" class="cls-3" fill-rule="evenodd"/>
    <path d="M14.350,153.865 C14.350,153.865 8.223,147.796 8.223,147.796 C8.223,147.796 -0.006,155.948 -0.006,155.948 C-0.006,155.948 20.952,176.710 20.952,176.710 C20.952,176.710 115.614,82.932 115.614,82.932 C115.614,82.932 107.385,74.779 107.385,74.779 C107.385,74.779 27.554,153.865 27.554,153.865 C23.908,157.477 17.996,157.477 14.350,153.865 Z" id="path-2" class="cls-4" fill-rule="evenodd"/>
    <path d="M153.539,36.510 C153.539,36.510 145.410,28.458 145.410,28.458 C145.410,28.458 151.014,22.907 151.014,22.907 C151.014,22.907 159.142,30.959 159.142,30.959 C159.142,30.959 153.539,36.510 153.539,36.510 Z" id="path-3" class="cls-5" fill-rule="evenodd"/>
    <path d="M155.894,96.778 C155.894,96.778 154.660,95.555 154.660,95.555 C150.522,91.457 150.522,84.750 154.660,80.651 C154.660,80.651 176.208,59.304 176.208,59.304 C180.346,55.206 187.116,55.206 191.253,59.304 C191.253,59.304 192.488,60.527 192.488,60.527 C196.624,64.626 196.624,71.332 192.488,75.430 C192.488,75.430 170.938,96.778 170.938,96.778 C166.801,100.877 160.032,100.877 155.894,96.778 Z" id="path-4" class="cls-6" fill-rule="evenodd"/>
    <path d="M193.205,64.937 C193.205,64.937 170.222,87.705 170.222,87.705 C166.478,91.413 160.354,91.413 156.612,87.705 C156.612,87.705 153.942,85.061 153.942,85.061 C153.373,84.497 152.921,83.868 152.525,83.212 C150.316,86.872 150.769,91.699 153.942,94.844 C153.942,94.844 156.612,97.488 156.612,97.488 C160.354,101.196 166.478,101.196 170.222,97.488 C170.222,97.488 193.205,74.719 193.205,74.719 C196.378,71.575 196.831,66.747 194.623,63.087 C194.227,63.743 193.774,64.373 193.205,64.937 Z" id="path-5" class="cls-7" fill-rule="evenodd"/>
    <path d="M146.349,71.809 C148.930,69.254 153.112,69.254 155.692,71.809 C157.392,73.493 157.948,75.861 157.408,78.016 C157.408,78.016 175.972,59.625 175.972,59.625 C173.798,60.161 171.407,59.610 169.706,57.927 C167.823,56.060 167.331,53.353 168.196,51.032 C168.196,51.032 124.388,7.632 124.388,7.632 C114.111,-2.549 97.294,-2.549 87.017,7.632 C87.017,7.632 75.338,22.287 73.002,35.399 C70.476,49.579 100.097,25.219 110.374,35.399 C110.374,35.399 146.133,72.071 146.133,72.071 C146.211,71.987 146.267,71.891 146.349,71.809 Z" id="path-6" class="cls-6" fill-rule="evenodd"/>
    <path d="M121.184,17.759 C120.253,17.759 119.322,17.407 118.611,16.703 C111.490,9.650 99.916,9.656 92.794,16.703 C91.374,18.111 89.071,18.111 87.650,16.703 C86.228,15.296 86.228,13.013 87.650,11.606 C97.611,1.741 113.804,1.746 123.757,11.606 C125.179,13.013 125.179,15.296 123.757,16.703 C123.047,17.407 122.115,17.759 121.184,17.759 Z" id="path-7" class="cls-9" fill-rule="evenodd"/>
    <path d="M169.707,57.927 C169.377,57.600 169.144,57.220 168.899,56.849 C168.899,56.849 160.700,64.972 160.700,64.972 C161.240,62.818 160.684,60.449 158.984,58.766 C156.404,56.209 152.221,56.209 149.641,58.766 C149.558,58.847 149.502,58.942 149.426,59.027 C149.426,59.027 113.666,22.355 113.666,22.355 C104.272,13.050 78.732,32.584 76.338,25.187 C74.844,28.507 73.608,32.002 73.002,35.399 C70.476,49.579 100.097,25.219 110.374,35.399 C110.374,35.399 146.134,72.071 146.134,72.071 C146.211,71.987 146.267,71.891 146.349,71.809 C148.930,69.253 153.112,69.253 155.692,71.809 C157.392,73.493 157.948,75.861 157.408,78.016 C157.408,78.016 175.972,59.625 175.972,59.625 C173.798,60.160 171.407,59.610 169.707,57.927 Z" id="path-8" class="cls-7" fill-rule="evenodd"/>
    <path d="M114.594,55.130 C114.594,55.130 101.072,68.525 101.072,68.525 C101.072,68.525 109.199,76.577 109.199,76.577 C109.199,76.577 122.722,63.181 122.722,63.181 C122.722,63.181 114.594,55.130 114.594,55.130 Z" id="path-9" class="cls-5" fill-rule="evenodd"/>
    <path d="M129.137,69.536 C129.137,69.536 108.180,48.774 108.180,48.774 C108.180,48.774 115.527,41.497 115.527,41.497 C115.527,41.497 136.484,62.258 136.484,62.258 C136.484,62.258 129.137,69.536 129.137,69.536 Z" id="path-10" class="cls-5" fill-rule="evenodd"/>
    <path d="M115.527,41.497 C115.527,41.497 112.235,44.757 112.235,44.757 C112.235,44.757 129.901,62.258 129.901,62.258 C129.901,62.258 125.845,66.275 125.845,66.275 C125.845,66.275 129.138,69.536 129.138,69.536 C129.138,69.536 136.484,62.258 136.484,62.258 C136.484,62.258 115.527,41.497 115.527,41.497 Z" id="path-11" class="cls-13" fill-rule="evenodd"/>
    <path d="M187.545,134.469 C187.545,134.469 182.178,167.220 182.178,167.220 C182.178,167.220 176.812,134.469 176.812,134.469 C176.812,134.469 187.545,134.469 187.545,134.469 Z" id="path-12" class="cls-5" fill-rule="evenodd"/>
    <path d="M195.913,131.243 C195.913,133.126 189.763,134.652 182.178,134.652 C174.593,134.652 168.442,133.126 168.442,131.243 C168.442,129.361 174.593,127.834 182.178,127.834 C189.763,127.834 195.913,129.361 195.913,131.243 Z" id="path-13" class="cls-5" fill-rule="evenodd"/>
    <path d="M193.957,164.740 C193.957,164.740 201.016,164.740 201.016,164.740 C202.377,164.740 203.480,165.347 203.480,166.094 C203.480,166.842 202.377,167.449 201.016,167.449 C201.016,167.449 200.688,167.449 200.688,167.449 C199.326,167.449 198.224,168.055 198.224,168.804 C198.224,169.551 199.326,170.158 200.688,170.158 C200.688,170.158 215.862,170.158 215.862,170.158 C217.222,170.158 218.326,170.764 218.326,171.511 C218.326,172.260 217.222,172.866 215.862,172.866 C215.862,172.866 197.626,172.866 197.626,172.866 C197.626,172.866 160.353,172.866 160.353,172.866 C158.992,172.866 157.888,172.260 157.888,171.511 C157.888,170.764 158.992,170.158 160.353,170.158 C160.353,170.158 164.564,170.158 164.564,170.158 C165.925,170.158 167.028,169.551 167.028,168.804 C167.028,168.055 165.925,167.449 164.564,167.449 C164.564,167.449 144.521,167.449 144.521,167.449 C143.160,167.449 142.056,166.842 142.056,166.094 C142.056,165.347 143.160,164.740 144.521,164.740 C144.521,164.740 149.258,164.740 149.258,164.740 C149.258,164.740 193.957,164.740 193.957,164.740 Z" id="path-14" class="cls-16" fill-rule="evenodd"/>
    <path d="M140.423,174.331 C142.962,174.331 145.020,173.830 145.020,173.210 C145.020,172.591 142.962,172.089 140.423,172.089 C140.423,172.089 126.333,172.089 126.333,172.089 C123.794,172.089 121.736,172.591 121.736,173.210 C121.736,173.830 123.794,174.331 126.333,174.331 C126.333,174.331 140.423,174.331 140.423,174.331 Z" id="path-15" class="cls-16" fill-rule="evenodd"/>
    <path d="M202.125,107.660 C202.125,107.660 202.984,105.516 202.984,105.516 C203.149,105.104 202.772,104.568 202.139,104.319 C201.509,104.071 200.862,104.204 200.696,104.617 C200.696,104.617 200.656,104.716 200.656,104.716 C200.491,105.130 199.845,105.263 199.214,105.015 C198.581,104.766 198.204,104.230 198.369,103.817 C198.369,103.817 200.215,99.212 200.215,99.212 C200.381,98.799 200.003,98.262 199.372,98.014 C198.739,97.766 198.094,97.899 197.928,98.312 C197.928,98.312 195.710,103.845 195.710,103.845 C195.710,103.845 191.175,115.159 191.175,115.159 C191.009,115.571 191.388,116.108 192.019,116.357 C192.651,116.606 193.296,116.471 193.462,116.059 C193.462,116.059 193.975,114.780 193.975,114.780 C194.140,114.367 194.786,114.234 195.418,114.483 C196.050,114.731 196.427,115.268 196.262,115.680 C196.262,115.680 193.824,121.763 193.824,121.763 C193.659,122.175 194.037,122.712 194.667,122.961 C195.299,123.208 195.944,123.075 196.110,122.663 C196.110,122.663 196.686,121.224 196.686,121.224 C196.686,121.224 202.125,107.660 202.125,107.660 Z" id="path-16" class="cls-5" fill-rule="evenodd"/>
    <path d="M207.662,83.326 C208.429,81.410 210.059,80.254 211.301,80.743 C212.543,81.232 212.928,83.180 212.161,85.096 C212.161,85.096 207.901,95.723 207.901,95.723 C207.133,97.638 205.503,98.794 204.261,98.306 C203.019,97.817 202.634,95.867 203.401,93.953 C203.401,93.953 207.662,83.326 207.662,83.326 Z" id="path-17" class="cls-5" fill-rule="evenodd"/>
    <path d="M148.899,117.442 C148.899,117.442 148.041,115.301 148.041,115.301 C147.875,114.887 148.253,114.351 148.885,114.103 C149.515,113.854 150.162,113.987 150.328,114.400 C150.328,114.400 150.367,114.500 150.367,114.500 C150.533,114.913 151.180,115.045 151.812,114.798 C152.443,114.550 152.820,114.013 152.655,113.600 C152.655,113.600 150.808,108.995 150.808,108.995 C150.643,108.582 151.021,108.046 151.653,107.796 C152.284,107.549 152.931,107.682 153.096,108.095 C153.096,108.095 155.314,113.629 155.314,113.629 C155.314,113.629 159.849,124.942 159.849,124.942 C160.015,125.354 159.637,125.891 159.005,126.139 C158.373,126.388 157.728,126.255 157.562,125.842 C157.562,125.842 157.050,124.563 157.050,124.563 C156.884,124.150 156.238,124.016 155.606,124.265 C154.974,124.514 154.596,125.050 154.762,125.462 C154.762,125.462 157.201,131.546 157.201,131.546 C157.367,131.959 156.989,132.495 156.357,132.743 C155.725,132.992 155.079,132.858 154.914,132.446 C154.914,132.446 154.338,131.008 154.338,131.008 C154.338,131.008 148.899,117.442 148.899,117.442 Z" id="path-18" class="cls-5" fill-rule="evenodd"/>
    <path d="M143.364,93.109 C142.595,91.193 140.965,90.037 139.724,90.525 C138.481,91.014 138.096,92.963 138.864,94.879 C138.864,94.879 143.124,105.506 143.124,105.506 C143.892,107.420 145.521,108.577 146.764,108.089 C148.006,107.599 148.391,105.651 147.623,103.736 C147.623,103.736 143.364,93.109 143.364,93.109 Z" id="path-19" class="cls-5" fill-rule="evenodd"/>
  </g>
</svg>
