<svg xmlns="http://www.w3.org/2000/svg" xmlns:xlink="http://www.w3.org/1999/xlink" preserveAspectRatio="xMidYMid" width="219" height="187" viewBox="0 0 219 187">
  <defs>
    <style>

      .cls-3 {
        fill: #ff3a2f;
      }

      .cls-4 {
        fill: #020403;
        opacity: 0.35;
      }

      .cls-5 {
        fill: #142a3b;
      }

      .cls-8 {
        fill: #ffffff;
      }
    </style>
  </defs>
  <g id="group-102svg">
    <path d="M129.330,142.185 C129.330,142.185 129.330,163.511 129.330,163.511 C129.330,163.511 21.694,163.511 21.694,163.511 C21.694,163.511 21.694,142.185 21.694,142.185 C21.694,142.185 129.330,142.185 129.330,142.185 Z" id="path-1" class="cls-3" fill-rule="evenodd"/>
    <path d="M21.694,142.185 C21.694,142.185 21.694,145.739 21.694,145.739 C21.694,145.739 108.567,149.049 108.567,149.049 C112.148,149.186 114.980,152.100 114.980,155.650 C114.980,155.650 114.980,163.511 114.980,163.511 C114.980,163.511 129.330,163.511 129.330,163.511 C129.330,163.511 129.330,142.185 129.330,142.185 C129.330,142.185 21.694,142.185 21.694,142.185 Z" id="path-2" class="cls-4" fill-rule="evenodd"/>
    <path d="M136.505,142.185 C136.505,142.185 14.519,142.185 14.519,142.185 C14.519,142.185 14.519,131.522 14.519,131.522 C14.519,127.599 17.731,124.413 21.694,124.413 C37.544,124.413 64.749,111.685 64.749,95.978 C64.749,95.978 64.749,78.144 64.749,74.652 C64.749,67.557 64.286,65.943 54.788,56.534 C47.717,50.664 43.221,41.851 43.221,32.000 C43.221,14.332 57.678,0.012 75.512,0.012 C93.346,0.012 107.803,14.332 107.803,32.000 C107.803,41.847 103.311,50.657 96.247,56.527 C86.797,65.887 86.311,67.460 86.311,73.646 C86.311,76.902 86.276,95.981 86.276,95.981 C86.276,111.685 113.476,124.417 129.330,124.413 C133.293,124.413 136.505,127.599 136.505,131.522 C136.505,131.522 136.505,142.185 136.505,142.185 Z" id="path-3" class="cls-5" fill-rule="evenodd"/>
    <path d="M54.039,112.816 C44.687,119.839 31.176,124.413 21.694,124.413 C17.731,124.413 14.519,127.599 14.519,131.522 C26.914,131.522 46.198,123.722 54.039,112.816 Z" id="path-4" class="cls-4" fill-rule="evenodd"/>
    <path d="M129.330,124.413 C113.476,124.417 86.276,111.685 86.276,95.981 C86.276,95.981 86.311,76.902 86.311,73.646 C86.311,67.459 86.797,65.887 96.247,56.527 C103.311,50.657 107.803,41.847 107.803,32.000 C107.803,14.332 93.346,0.012 75.512,0.012 C64.763,0.012 55.266,5.235 49.397,13.239 C54.721,9.407 61.252,7.119 68.336,7.119 C86.171,7.119 100.627,21.442 100.627,39.109 C100.627,48.956 96.135,57.765 89.072,63.635 C79.622,72.997 79.135,74.570 79.135,80.754 C79.135,84.010 79.100,103.091 79.100,103.091 C79.100,118.794 106.300,131.525 122.155,131.522 C126.117,131.522 129.330,134.708 129.330,138.630 C129.330,138.630 129.330,142.185 129.330,142.185 C129.330,142.185 136.505,142.185 136.505,142.185 C136.505,142.185 136.505,131.522 136.505,131.522 C136.505,127.599 133.293,124.413 129.330,124.413 Z" id="path-5" class="cls-4" fill-rule="evenodd"/>
    <path d="M61.133,46.227 C60.025,46.227 58.930,45.727 58.215,44.779 C55.415,41.064 53.934,36.645 53.934,32.000 C53.934,21.894 61.183,13.086 71.172,11.058 C73.158,10.666 75.067,11.917 75.468,13.867 C75.873,15.817 74.605,17.721 72.636,18.122 C66.015,19.465 61.211,25.303 61.211,32.000 C61.211,35.079 62.192,38.005 64.044,40.464 C65.248,42.060 64.918,44.319 63.308,45.510 C62.654,45.993 61.890,46.227 61.133,46.227 Z" id="path-6" class="cls-8" fill-rule="evenodd"/>
    <path d="M66.144,162.283 C66.144,162.283 46.983,162.283 46.983,162.283 C43.289,162.283 40.294,163.982 40.294,166.077 C40.294,168.172 43.289,169.871 46.983,169.871 C46.983,169.871 47.875,169.871 47.875,169.871 C51.569,169.871 54.564,171.569 54.564,173.665 C54.564,175.760 51.569,177.460 47.875,177.460 C47.875,177.460 6.687,177.460 6.687,177.460 C2.993,177.460 -0.002,179.158 -0.002,181.255 C-0.002,183.350 2.993,185.048 6.687,185.048 C6.687,185.048 56.184,185.048 56.184,185.048 C56.184,185.048 157.357,185.048 157.357,185.048 C161.051,185.048 164.046,183.350 164.046,181.255 C164.046,179.158 161.051,177.460 157.357,177.460 C157.357,177.460 145.926,177.460 145.926,177.460 C142.232,177.460 139.238,175.760 139.238,173.665 C139.238,171.569 142.232,169.871 145.926,169.871 C145.926,169.871 190.822,169.871 190.822,169.871 C194.516,169.871 197.511,168.172 197.511,166.077 C197.511,163.982 194.516,162.283 190.822,162.283 C190.822,162.283 187.471,162.283 187.471,162.283 C187.471,162.283 66.144,162.283 66.144,162.283 Z" id="path-7" class="cls-5" fill-rule="evenodd"/>
    <path d="M195.537,186.065 C192.440,186.065 189.929,184.244 189.929,181.998 C189.929,179.753 192.440,177.931 195.537,177.931 C195.537,177.931 212.722,177.931 212.722,177.931 C215.819,177.931 218.330,179.753 218.330,181.998 C218.330,184.244 215.819,186.065 212.722,186.065 C212.722,186.065 195.537,186.065 195.537,186.065 Z" id="path-8" class="cls-5" fill-rule="evenodd"/>
  </g>
</svg>
