<svg xmlns="http://www.w3.org/2000/svg" xmlns:xlink="http://www.w3.org/1999/xlink" preserveAspectRatio="xMidYMid" width="219" height="193" viewBox="0 0 219 193">
  <defs>
    <style>

      .cls-3 {
        fill: #142a3b;
      }

      .cls-4 {
        fill: #020403;
        opacity: 0.35;
      }

      .cls-6 {
        fill: #fbb713;
      }

      .cls-7 {
        fill: #2476ff;
      }

      .cls-11 {
        fill: #ff3a2f;
      }
    </style>
  </defs>
  <g id="group-100svg">
    <path d="M52.632,127.157 C52.632,127.157 16.503,127.157 16.503,127.157 C16.503,127.157 0.007,158.206 0.007,158.206 C0.007,158.206 16.503,189.252 16.503,189.252 C16.503,189.252 52.632,189.252 52.632,189.252 C52.632,189.252 69.125,158.206 69.125,158.206 C69.125,158.206 52.632,127.157 52.632,127.157 ZM34.654,175.319 C25.049,175.319 17.258,167.642 17.258,158.169 C17.258,148.707 25.049,141.019 34.654,141.019 C44.258,141.019 52.051,148.707 52.051,158.169 C52.051,167.634 44.262,175.319 34.654,175.319 Z" id="path-1" class="cls-3" fill-rule="evenodd"/>
    <path d="M29.456,174.453 C22.407,172.264 17.258,165.845 17.258,158.169 C17.258,150.503 22.407,144.077 29.457,141.886 C27.806,141.372 26.083,141.019 24.261,141.019 C14.656,141.019 6.864,148.707 6.864,158.169 C6.864,167.642 14.656,175.319 24.261,175.319 C26.083,175.319 27.805,174.966 29.456,174.453 Z" id="path-2" class="cls-4" fill-rule="evenodd"/>
    <path d="M52.632,127.157 C52.632,127.157 42.239,127.157 42.239,127.157 C42.239,127.157 58.732,158.206 58.732,158.206 C58.732,158.206 42.239,189.252 42.239,189.252 C42.239,189.252 52.632,189.252 52.632,189.252 C52.632,189.252 69.125,158.206 69.125,158.206 C69.125,158.206 52.632,127.157 52.632,127.157 Z" id="path-3" class="cls-4" fill-rule="evenodd"/>
    <path d="M173.091,2.452 C175.502,0.063 190.212,-3.788 203.014,8.898 C203.014,8.898 208.482,14.312 208.482,14.312 C223.689,29.375 217.392,41.565 214.984,43.952 C214.984,43.952 128.320,115.244 128.320,115.244 C138.835,137.906 145.206,156.275 126.528,174.776 C110.345,190.809 87.319,195.911 66.569,190.232 C66.569,190.232 101.735,155.396 101.735,155.396 C104.012,153.140 103.670,149.153 100.984,146.492 C100.984,146.492 66.909,112.739 66.909,112.739 C64.223,110.081 60.204,109.740 57.930,111.993 C57.930,111.993 52.926,116.948 52.926,116.948 C52.926,116.948 22.241,116.948 22.241,116.948 C24.699,106.181 30.106,95.972 38.544,87.613 C57.219,69.112 75.801,75.464 98.674,85.879 C98.674,85.879 173.091,2.452 173.091,2.452 Z" id="path-4" class="cls-6" fill-rule="evenodd"/>
    <path d="M190.903,26.315 C195.652,31.022 198.406,35.922 191.008,43.257 C183.605,50.587 176.206,50.283 171.456,45.579 C166.709,40.872 166.402,33.543 173.804,26.211 C181.206,18.879 186.152,21.609 190.903,26.315 Z" id="path-5" class="cls-7" fill-rule="evenodd"/>
    <path d="M190.903,26.316 C190.308,25.727 189.711,25.171 189.106,24.660 C192.717,28.850 194.019,33.406 187.543,39.825 C181.066,46.238 174.593,46.808 169.893,43.698 C170.340,44.363 170.863,44.992 171.456,45.578 C176.206,50.284 183.605,50.589 191.008,43.257 C198.406,35.922 195.652,31.022 190.903,26.316 Z" id="path-6" class="cls-4" fill-rule="evenodd"/>
    <path d="M213.797,20.691 C216.611,29.255 213.164,35.459 211.519,37.087 C211.519,37.087 124.856,108.380 124.856,108.380 C135.371,131.042 141.741,149.411 123.063,167.912 C109.106,181.740 90.059,187.417 71.771,185.078 C71.771,185.078 66.569,190.231 66.569,190.231 C87.319,195.911 110.346,190.809 126.528,174.776 C145.206,156.275 138.835,137.904 128.320,115.244 C128.320,115.244 214.984,43.951 214.984,43.951 C217.041,41.913 221.888,32.714 213.797,20.691 Z" id="path-7" class="cls-4" fill-rule="evenodd"/>
    <path d="M99.744,145.263 C99.906,143.352 99.153,141.246 97.520,139.628 C97.520,139.628 63.444,105.876 63.444,105.876 C60.758,103.217 56.739,102.876 54.465,105.128 C54.465,105.128 49.462,110.084 49.462,110.084 C49.462,110.084 24.270,110.084 24.270,110.084 C23.465,112.341 22.771,114.627 22.241,116.948 C22.241,116.948 52.926,116.948 52.926,116.948 C52.926,116.948 57.930,111.993 57.930,111.993 C60.204,109.740 64.223,110.081 66.909,112.739 C66.909,112.739 99.744,145.263 99.744,145.263 Z" id="path-8" class="cls-4" fill-rule="evenodd"/>
    <path d="M133.829,185.940 C135.464,185.940 136.789,185.045 136.789,183.941 C136.789,182.837 135.464,181.942 133.829,181.942 C133.829,181.942 124.758,181.942 124.758,181.942 C123.123,181.942 121.798,182.837 121.798,183.941 C121.798,185.045 123.123,185.940 124.758,185.940 C124.758,185.940 133.829,185.940 133.829,185.940 Z" id="path-9" class="cls-11" fill-rule="evenodd"/>
    <path d="M53.249,42.119 C53.249,42.119 55.719,42.119 55.719,42.119 C56.195,42.119 56.581,42.620 56.581,43.237 C56.581,43.853 56.195,44.353 55.719,44.353 C55.719,44.353 55.604,44.353 55.604,44.353 C55.128,44.353 54.741,44.853 54.741,45.470 C54.741,46.087 55.128,46.587 55.604,46.587 C55.604,46.587 60.914,46.587 60.914,46.587 C61.390,46.587 61.777,47.087 61.777,47.703 C61.777,48.319 61.390,48.819 60.914,48.819 C60.914,48.819 54.532,48.819 54.532,48.819 C54.532,48.819 41.489,48.819 41.489,48.819 C41.012,48.819 40.627,48.319 40.627,47.703 C40.627,47.087 41.012,46.587 41.489,46.587 C41.489,46.587 42.963,46.587 42.963,46.587 C43.439,46.587 43.826,46.087 43.826,45.470 C43.826,44.853 43.439,44.353 42.963,44.353 C42.963,44.353 35.949,44.353 35.949,44.353 C35.473,44.353 35.087,43.853 35.087,43.237 C35.087,42.620 35.473,42.119 35.949,42.119 C35.949,42.119 37.607,42.119 37.607,42.119 C37.607,42.119 53.249,42.119 53.249,42.119 Z" id="path-10" class="cls-11" fill-rule="evenodd"/>
    <path d="M181.568,113.473 C181.568,113.473 184.930,113.473 184.930,113.473 C185.579,113.473 186.104,114.154 186.104,114.992 C186.104,115.832 185.579,116.512 184.930,116.512 C184.930,116.512 184.774,116.512 184.774,116.512 C184.126,116.512 183.600,117.192 183.600,118.032 C183.600,118.872 184.126,119.553 184.774,119.553 C184.774,119.553 192.001,119.553 192.001,119.553 C192.649,119.553 193.174,120.232 193.174,121.071 C193.174,121.910 192.649,122.591 192.001,122.591 C192.001,122.591 183.315,122.591 183.315,122.591 C183.315,122.591 165.563,122.591 165.563,122.591 C164.915,122.591 164.390,121.910 164.390,121.071 C164.390,120.232 164.915,119.553 165.563,119.553 C165.563,119.553 167.569,119.553 167.569,119.553 C168.217,119.553 168.743,118.872 168.743,118.032 C168.743,117.192 168.217,116.512 167.569,116.512 C167.569,116.512 158.023,116.512 158.023,116.512 C157.375,116.512 156.849,115.832 156.849,114.992 C156.849,114.154 157.375,113.473 158.023,113.473 C158.023,113.473 160.279,113.473 160.279,113.473 C160.279,113.473 181.568,113.473 181.568,113.473 Z" id="path-11" class="cls-11" fill-rule="evenodd"/>
    <path d="M26.774,51.374 C27.794,51.374 28.621,50.770 28.621,50.027 C28.621,49.282 27.794,48.678 26.774,48.678 C26.774,48.678 21.112,48.678 21.112,48.678 C20.091,48.678 19.264,49.282 19.264,50.027 C19.264,50.770 20.091,51.374 21.112,51.374 C21.112,51.374 26.774,51.374 26.774,51.374 Z" id="path-12" class="cls-11" fill-rule="evenodd"/>
    <path d="M190.628,168.577 C190.628,168.577 197.481,168.577 197.481,168.577 C198.802,168.577 199.873,169.861 199.873,171.444 C199.873,173.029 198.802,174.313 197.481,174.313 C197.481,174.313 197.161,174.313 197.161,174.313 C195.840,174.313 194.769,175.597 194.769,177.182 C194.769,178.766 195.840,180.050 197.161,180.050 C197.161,180.050 211.893,180.050 211.893,180.050 C213.214,180.050 214.286,181.334 214.286,182.918 C214.286,184.501 213.214,185.786 211.893,185.786 C211.893,185.786 194.189,185.786 194.189,185.786 C194.189,185.786 158.003,185.786 158.003,185.786 C156.682,185.786 155.610,184.501 155.610,182.918 C155.610,181.334 156.682,180.050 158.003,180.050 C158.003,180.050 162.091,180.050 162.091,180.050 C163.413,180.050 164.483,178.766 164.483,177.182 C164.483,175.597 163.413,174.313 162.091,174.313 C162.091,174.313 142.633,174.313 142.633,174.313 C141.312,174.313 140.240,173.029 140.240,171.444 C140.240,169.861 141.312,168.577 142.633,168.577 C142.633,168.577 147.232,168.577 147.232,168.577 C147.232,168.577 190.628,168.577 190.628,168.577 Z" id="path-13" class="cls-11" fill-rule="evenodd"/>
  </g>
</svg>
