<svg xmlns="http://www.w3.org/2000/svg" xmlns:xlink="http://www.w3.org/1999/xlink" preserveAspectRatio="xMidYMid" width="219" height="205" viewBox="0 0 219 205">
  <defs>
    <style>

      .cls-3 {
        fill: #fbb713;
      }

      .cls-5 {
        fill: #0cb04a;
      }

      .cls-6 {
        fill: #020403;
        opacity: 0.25;
      }

      .cls-7 {
        fill: #000000;
        opacity: 0.35;
      }

      .cls-9 {
        fill: #020403;
        opacity: 0.45;
      }

      .cls-11 {
        fill: #ffffff;
      }

      .cls-12 {
        fill: #ff3a2f;
      }

      .cls-15 {
        fill: #020403;
        opacity: 0.35;
      }
    </style>
  </defs>
  <g id="group-8svg">
    <path d="M194.701,204.287 C199.088,204.287 202.644,202.055 202.644,199.302 C202.644,196.548 199.088,194.316 194.701,194.316 C194.701,194.316 170.357,194.316 170.357,194.316 C165.971,194.316 162.413,196.548 162.413,199.302 C162.413,202.055 165.971,204.287 170.357,204.287 C170.357,204.287 194.701,204.287 194.701,204.287 Z" id="path-1" class="cls-3" fill-rule="evenodd"/>
    <path d="M74.523,174.620 C74.523,174.620 89.693,174.620 89.693,174.620 C92.618,174.620 94.988,176.108 94.988,177.945 C94.988,179.780 92.618,181.268 89.693,181.268 C89.693,181.268 88.986,181.268 88.986,181.268 C86.061,181.268 83.690,182.756 83.690,184.593 C83.690,186.429 86.061,187.917 88.986,187.917 C88.986,187.917 121.598,187.917 121.598,187.917 C124.522,187.917 126.893,189.405 126.893,191.241 C126.893,193.077 124.522,194.565 121.598,194.565 C121.598,194.565 82.407,194.565 82.407,194.565 C82.407,194.565 39.333,194.565 39.333,194.565 C36.408,194.565 34.037,193.077 34.037,191.241 C34.037,189.405 36.408,187.917 39.333,187.917 C39.333,187.917 48.384,187.917 48.384,187.917 C51.309,187.917 53.680,186.429 53.680,184.593 C53.680,182.756 51.309,181.268 48.384,181.268 C48.384,181.268 5.310,181.268 5.310,181.268 C2.385,181.268 0.014,179.780 0.014,177.945 C0.014,176.108 2.385,174.620 5.310,174.620 C5.310,174.620 15.491,174.620 15.491,174.620 C15.491,174.620 74.523,174.620 74.523,174.620 Z" id="path-2" class="cls-3" fill-rule="evenodd"/>
    <path d="M105.993,7.437 C135.564,-2.187 166.093,-2.726 197.748,7.437 C197.748,7.437 185.577,46.355 185.577,46.355 C185.577,46.355 218.347,152.055 218.347,152.055 C218.347,167.055 84.460,167.055 84.460,152.055 C84.460,152.055 118.165,45.027 118.165,45.027 C118.165,45.027 105.993,7.437 105.993,7.437 Z" id="path-3" class="cls-5" fill-rule="evenodd"/>
    <path d="M185.577,46.403 C185.577,46.403 197.748,7.406 197.748,7.406 C192.447,5.705 187.181,4.330 181.942,3.220 C181.942,3.220 170.729,40.318 170.729,40.318 C170.729,40.318 203.500,147.366 203.500,147.366 C203.500,159.031 119.352,158.669 84.496,151.833 C84.496,151.833 84.460,151.955 84.460,151.955 C84.460,166.664 218.347,166.890 218.347,152.181 C218.347,152.181 185.577,46.403 185.577,46.403 Z" id="path-4" class="cls-6" fill-rule="evenodd"/>
    <path d="M182.032,49.512 C181.772,49.512 181.511,49.483 181.243,49.425 C174.541,47.960 162.787,47.194 155.010,46.687 C155.010,46.687 151.774,46.473 151.774,46.473 C149.769,46.334 148.256,44.614 148.394,42.627 C148.536,40.641 150.270,39.137 152.278,39.280 C152.278,39.280 155.486,39.493 155.486,39.493 C163.486,40.015 175.572,40.802 182.814,42.386 C184.776,42.815 186.016,44.739 185.583,46.683 C185.206,48.365 183.703,49.512 182.032,49.512 Z" id="path-5" class="cls-7" fill-rule="evenodd"/>
    <path d="M121.217,49.512 C119.579,49.512 118.089,48.406 117.684,46.758 C117.208,44.822 118.409,42.873 120.359,42.404 C130.900,39.865 137.133,39.564 141.681,39.346 C141.681,39.346 143.054,39.277 143.054,39.277 C145.030,39.167 146.774,40.693 146.883,42.682 C146.991,44.670 145.452,46.369 143.444,46.476 C143.444,46.476 142.034,46.546 142.034,46.546 C137.542,46.763 131.948,47.033 122.080,49.408 C121.791,49.478 121.500,49.512 121.217,49.512 Z" id="path-6" class="cls-7" fill-rule="evenodd"/>
    <path d="M152.025,36.630 C152.025,36.630 152.025,58.232 152.025,58.232 C152.025,60.385 153.016,62.131 155.737,62.131 C158.458,62.131 159.449,60.385 159.449,58.232 C159.449,58.232 159.449,35.454 159.449,35.454 C159.449,33.301 163.161,31.557 166.873,31.557 C166.873,31.557 166.873,0.817 166.873,0.817 C154.327,-0.520 141.958,-0.188 129.754,1.713 C129.754,1.713 129.754,11.094 129.754,11.094 C129.754,11.094 129.754,32.697 129.754,32.697 C129.754,34.850 132.599,36.595 135.322,36.595 C138.042,36.595 140.890,34.850 140.890,32.697 C140.890,32.697 140.890,9.919 140.890,9.919 C140.890,7.765 143.736,6.021 146.458,6.021 C149.178,6.021 152.025,7.765 152.025,9.919 C152.025,9.919 152.025,19.486 152.025,19.486 C152.025,19.486 152.025,36.630 152.025,36.630 Z" id="path-7" class="cls-9" fill-rule="evenodd"/>
    <path d="M152.025,35.454 C152.025,33.301 155.737,31.557 159.449,31.557 C159.449,31.557 159.449,0.225 159.449,0.225 C146.905,-0.459 134.534,0.506 122.328,3.051 C122.328,3.051 122.328,11.094 122.328,11.094 C122.328,11.094 122.328,32.697 122.328,32.697 C122.328,34.850 125.176,36.595 127.898,36.595 C130.619,36.595 133.464,34.850 133.464,32.697 C133.464,32.697 133.464,9.919 133.464,9.919 C133.464,7.765 136.312,6.021 139.033,6.021 C141.755,6.021 144.601,7.765 144.601,9.919 C144.601,9.919 144.601,19.486 144.601,19.486 C144.601,19.486 144.601,36.630 144.601,36.630 C144.601,36.630 144.601,58.232 144.601,58.232 C144.601,60.385 145.592,62.131 148.313,62.131 C151.034,62.131 152.025,60.385 152.025,58.232 C152.025,58.232 152.025,35.454 152.025,35.454 Z" id="path-8" class="cls-3" fill-rule="evenodd"/>
    <path d="M106.864,130.909 C106.490,130.909 106.114,130.852 105.741,130.732 C103.828,130.117 102.781,128.084 103.402,126.190 C103.402,126.190 123.434,65.082 123.434,65.082 C124.056,63.188 126.109,62.150 128.018,62.767 C129.929,63.383 130.978,65.415 130.356,67.309 C130.356,67.309 110.325,128.417 110.325,128.417 C109.824,129.941 108.399,130.909 106.864,130.909 Z" id="path-9" class="cls-11" fill-rule="evenodd"/>
    <path d="M80.772,54.570 C80.772,54.570 26.793,36.054 26.793,36.054 C23.609,34.963 19.816,37.940 18.416,42.630 C18.416,42.630 18.416,42.630 18.416,42.630 C17.014,47.320 18.561,51.863 21.832,52.663 C21.832,52.663 77.290,66.226 77.290,66.226 C77.290,66.226 80.772,54.570 80.772,54.570 Z" id="path-10" class="cls-12" fill-rule="evenodd"/>
    <path d="M65.183,63.174 C65.183,63.174 65.822,63.391 65.822,63.391 C65.822,63.391 77.290,66.195 77.290,66.195 C77.290,66.195 80.772,54.539 80.772,54.539 C80.772,54.539 75.009,52.562 75.009,52.562 C75.009,52.562 65.183,63.174 65.183,63.174 Z" id="path-11" class="cls-7" fill-rule="evenodd"/>
    <path d="M113.368,63.822 C113.368,63.822 84.449,52.055 84.449,52.055 C81.887,51.013 78.734,53.396 77.585,57.243 C77.585,57.243 75.423,64.484 75.423,64.484 C74.298,68.250 75.554,71.893 78.187,72.506 C78.187,72.506 108.658,79.593 108.658,79.593 C108.658,79.593 113.368,63.822 113.368,63.822 Z" id="path-12" class="cls-5" fill-rule="evenodd"/>
    <path d="M108.658,79.562 C108.658,79.562 113.368,63.791 113.368,63.791 C113.368,63.791 106.915,61.166 106.915,61.166 C106.915,61.166 98.564,77.213 98.564,77.213 C98.564,77.213 108.658,79.562 108.658,79.562 Z" id="path-13" class="cls-15" fill-rule="evenodd"/>
  </g>
</svg>
