<svg xmlns="http://www.w3.org/2000/svg" xmlns:xlink="http://www.w3.org/1999/xlink" preserveAspectRatio="xMidYMid" width="210" height="217" viewBox="0 0 210 217">
  <defs>
    <style>

      .cls-3 {
        fill: #142a3b;
      }

      .cls-4 {
        fill: #ffffff;
      }

      .cls-6 {
        fill: #020403;
        opacity: 0.45;
      }

      .cls-7 {
        fill: #fbb713;
      }

      .cls-8 {
        fill: #bb860e;
      }

      .cls-13 {
        fill: #2476ff;
      }
    </style>
  </defs>
  <g id="group-161svg">
    <path d="M90.723,150.134 C90.723,150.134 90.723,131.921 90.723,131.921 C90.723,131.921 99.915,131.921 99.915,131.921 C99.915,131.921 99.915,113.709 99.915,113.709 C99.915,113.709 53.955,113.709 53.955,113.709 C53.955,113.709 53.955,131.921 53.955,131.921 C53.955,131.921 63.146,131.921 63.146,131.921 C63.146,131.921 63.146,150.134 63.146,150.134 C35.072,153.777 19.341,167.400 17.185,195.666 C17.185,195.666 137.371,195.666 137.371,195.666 C135.214,167.400 118.798,153.777 90.723,150.134 Z" id="path-1" class="cls-3" fill-rule="evenodd"/>
    <path d="M30.340,190.796 C30.083,190.796 29.824,190.769 29.565,190.713 C27.599,190.291 26.353,188.371 26.778,186.426 C30.691,168.565 40.727,162.304 54.596,158.396 C56.511,157.854 58.541,158.959 59.091,160.876 C59.643,162.790 58.520,164.786 56.586,165.330 C44.322,168.786 37.076,173.414 33.893,187.954 C33.524,189.642 32.013,190.796 30.340,190.796 Z" id="path-2" class="cls-4" fill-rule="evenodd"/>
    <path d="M60.616,126.895 C59.611,126.895 58.797,126.088 58.797,125.092 C58.797,125.092 58.797,120.539 58.797,120.539 C58.797,119.544 59.611,118.736 60.616,118.736 C61.622,118.736 62.435,119.544 62.435,120.539 C62.435,120.539 62.435,125.092 62.435,125.092 C62.435,126.088 61.622,126.895 60.616,126.895 Z" id="path-3" class="cls-4" fill-rule="evenodd"/>
    <path d="M90.723,150.134 C90.723,150.134 90.723,131.921 90.723,131.921 C90.723,131.921 99.915,131.921 99.915,131.921 C99.915,131.921 99.915,113.709 99.915,113.709 C99.915,113.709 81.531,113.709 81.531,113.709 C81.531,113.709 81.531,131.921 81.531,131.921 C81.531,131.921 63.146,131.921 63.146,131.921 C63.146,131.921 63.146,141.027 63.146,141.027 C91.221,144.669 116.829,167.400 118.986,195.666 C118.986,195.666 137.371,195.666 137.371,195.666 C135.214,167.400 118.798,153.775 90.723,150.134 Z" id="path-4" class="cls-6" fill-rule="evenodd"/>
    <path d="M159.664,34.693 C159.664,34.693 159.664,1.019 159.664,1.019 C150.473,5.526 135.328,15.452 121.478,29.172 C94.555,55.841 81.393,87.174 93.954,99.622 C93.954,99.622 159.664,34.693 159.664,34.693 Z" id="path-5" class="cls-7" fill-rule="evenodd"/>
    <path d="M110.927,82.975 C110.927,82.975 159.664,82.975 159.664,82.975 C133.923,106.163 105.663,111.290 93.883,99.622 C93.883,99.622 110.927,82.975 110.927,82.975 Z" id="path-6" class="cls-8" fill-rule="evenodd"/>
    <path d="M79.465,117.673 C78.533,117.673 77.601,117.322 76.892,116.617 C75.470,115.209 75.470,112.927 76.892,111.519 C76.892,111.519 188.474,1.031 188.474,1.031 C189.896,-0.376 192.199,-0.377 193.620,1.031 C195.041,2.440 195.041,4.722 193.620,6.130 C193.620,6.130 82.037,116.619 82.037,116.619 C81.326,117.322 80.395,117.673 79.465,117.673 Z" id="path-7" class="cls-3" fill-rule="evenodd"/>
    <path d="M173.453,68.367 C173.453,68.367 129.311,68.367 129.311,68.367 C127.299,68.367 125.671,66.754 125.671,64.763 C125.671,62.772 127.299,61.158 129.311,61.158 C129.311,61.158 173.453,61.158 173.453,61.158 C175.464,61.158 177.092,62.772 177.092,64.763 C177.092,66.754 175.464,68.367 173.453,68.367 Z" id="path-8" class="cls-3" fill-rule="evenodd"/>
    <path d="M186.822,50.155 C186.822,50.155 147.601,50.155 147.601,50.155 C145.590,50.155 143.962,48.541 143.962,46.550 C143.962,44.560 145.590,42.945 147.601,42.945 C147.601,42.945 186.822,42.945 186.822,42.945 C188.834,42.945 190.460,44.560 190.460,46.550 C190.460,48.541 188.834,50.155 186.822,50.155 Z" id="path-9" class="cls-3" fill-rule="evenodd"/>
    <path d="M201.196,33.711 C201.196,33.711 166.570,33.711 166.570,33.711 C164.559,33.711 162.931,32.097 162.931,30.106 C162.931,28.114 164.559,26.501 166.570,26.501 C166.570,26.501 201.196,26.501 201.196,26.501 C203.208,26.501 204.834,28.114 204.834,30.106 C204.834,32.097 203.208,33.711 201.196,33.711 Z" id="path-10" class="cls-3" fill-rule="evenodd"/>
    <path d="M31.279,133.718 C31.279,133.718 35.535,133.718 35.535,133.718 C36.355,133.718 37.020,134.580 37.020,135.642 C37.020,136.705 36.355,137.565 35.535,137.565 C35.535,137.565 35.336,137.565 35.336,137.565 C34.517,137.565 33.850,138.426 33.850,139.489 C33.850,140.552 34.517,141.413 35.336,141.413 C35.336,141.413 44.486,141.413 44.486,141.413 C45.306,141.413 45.971,142.274 45.971,143.336 C45.971,144.399 45.306,145.260 44.486,145.260 C44.486,145.260 33.491,145.260 33.491,145.260 C33.491,145.260 11.018,145.260 11.018,145.260 C10.198,145.260 9.533,144.399 9.533,143.336 C9.533,142.274 10.198,141.413 11.018,141.413 C11.018,141.413 13.557,141.413 13.557,141.413 C14.378,141.413 15.043,140.552 15.043,139.489 C15.043,138.426 14.378,137.565 13.557,137.565 C13.557,137.565 1.473,137.565 1.473,137.565 C0.653,137.565 -0.012,136.705 -0.012,135.642 C-0.012,134.580 0.653,133.718 1.473,133.718 C1.473,133.718 4.330,133.718 4.330,133.718 C4.330,133.718 31.279,133.718 31.279,133.718 Z" id="path-11" class="cls-13" fill-rule="evenodd"/>
    <path d="M171.978,193.201 C171.978,193.201 182.799,193.201 182.799,193.201 C184.884,193.201 186.576,194.932 186.576,197.069 C186.576,199.205 184.884,200.937 182.799,200.937 C182.799,200.937 182.295,200.937 182.295,200.937 C180.209,200.937 178.518,202.668 178.518,204.805 C178.518,206.941 180.209,208.673 182.295,208.673 C182.295,208.673 205.555,208.673 205.555,208.673 C207.641,208.673 209.332,210.405 209.332,212.540 C209.332,214.677 207.641,216.409 205.555,216.409 C205.555,216.409 177.602,216.409 177.602,216.409 C177.602,216.409 120.466,216.409 120.466,216.409 C118.381,216.409 116.689,214.677 116.689,212.540 C116.689,210.405 118.381,208.673 120.466,208.673 C120.466,208.673 126.922,208.673 126.922,208.673 C129.009,208.673 130.700,206.941 130.700,204.805 C130.700,202.668 129.009,200.937 126.922,200.937 C126.922,200.937 96.199,200.937 96.199,200.937 C94.112,200.937 92.422,199.205 92.422,197.069 C92.422,194.932 94.112,193.201 96.199,193.201 C96.199,193.201 103.460,193.201 103.460,193.201 C103.460,193.201 171.978,193.201 171.978,193.201 Z" id="path-12" class="cls-13" fill-rule="evenodd"/>
    <path d="M78.853,209.926 C81.434,209.926 83.526,209.035 83.526,207.936 C83.526,206.838 81.434,205.948 78.853,205.948 C78.853,205.948 64.530,205.948 64.530,205.948 C61.948,205.948 59.856,206.838 59.856,207.936 C59.856,209.035 61.948,209.926 64.530,209.926 C64.530,209.926 78.853,209.926 78.853,209.926 Z" id="path-13" class="cls-13" fill-rule="evenodd"/>
    <path d="M171.978,193.201 C171.978,193.201 182.799,193.201 182.799,193.201 C184.884,193.201 186.576,194.932 186.576,197.069 C186.576,199.205 184.884,200.937 182.799,200.937 C182.799,200.937 182.295,200.937 182.295,200.937 C180.209,200.937 178.518,202.668 178.518,204.805 C178.518,206.941 180.209,208.673 182.295,208.673 C182.295,208.673 205.555,208.673 205.555,208.673 C207.641,208.673 209.332,210.405 209.332,212.540 C209.332,214.677 207.641,216.409 205.555,216.409 C205.555,216.409 177.602,216.409 177.602,216.409 C177.602,216.409 120.466,216.409 120.466,216.409 C118.381,216.409 116.689,214.677 116.689,212.540 C116.689,210.405 118.381,208.673 120.466,208.673 C120.466,208.673 126.922,208.673 126.922,208.673 C129.009,208.673 130.700,206.941 130.700,204.805 C130.700,202.668 129.009,200.937 126.922,200.937 C126.922,200.937 96.199,200.937 96.199,200.937 C94.112,200.937 92.422,199.205 92.422,197.069 C92.422,194.932 94.112,193.201 96.199,193.201 C96.199,193.201 103.460,193.201 103.460,193.201 C103.460,193.201 171.978,193.201 171.978,193.201 Z" id="path-14" class="cls-13" fill-rule="evenodd"/>
    <path d="M78.853,209.926 C81.434,209.926 83.526,209.035 83.526,207.936 C83.526,206.838 81.434,205.948 78.853,205.948 C78.853,205.948 64.530,205.948 64.530,205.948 C61.948,205.948 59.856,206.838 59.856,207.936 C59.856,209.035 61.948,209.926 64.530,209.926 C64.530,209.926 78.853,209.926 78.853,209.926 Z" id="path-15" class="cls-13" fill-rule="evenodd"/>
    <path d="M31.279,133.718 C31.279,133.718 35.535,133.718 35.535,133.718 C36.355,133.718 37.020,134.580 37.020,135.642 C37.020,136.705 36.355,137.565 35.535,137.565 C35.535,137.565 35.336,137.565 35.336,137.565 C34.517,137.565 33.850,138.426 33.850,139.489 C33.850,140.552 34.517,141.413 35.336,141.413 C35.336,141.413 44.486,141.413 44.486,141.413 C45.306,141.413 45.971,142.274 45.971,143.336 C45.971,144.399 45.306,145.260 44.486,145.260 C44.486,145.260 33.491,145.260 33.491,145.260 C33.491,145.260 11.018,145.260 11.018,145.260 C10.198,145.260 9.533,144.399 9.533,143.336 C9.533,142.274 10.198,141.413 11.018,141.413 C11.018,141.413 13.557,141.413 13.557,141.413 C14.378,141.413 15.043,140.552 15.043,139.489 C15.043,138.426 14.378,137.565 13.557,137.565 C13.557,137.565 1.473,137.565 1.473,137.565 C0.653,137.565 -0.012,136.705 -0.012,135.642 C-0.012,134.580 0.653,133.718 1.473,133.718 C1.473,133.718 4.330,133.718 4.330,133.718 C4.330,133.718 31.279,133.718 31.279,133.718 Z" id="path-16" class="cls-13" fill-rule="evenodd"/>
  </g>
</svg>
