<svg xmlns="http://www.w3.org/2000/svg" xmlns:xlink="http://www.w3.org/1999/xlink" preserveAspectRatio="xMidYMid" width="219" height="161" viewBox="0 0 219 161">
  <defs>
    <style>

      .cls-3 {
        fill: #ff3a2f;
      }

      .cls-5 {
        fill: #fbb713;
      }

      .cls-6 {
        fill: #ffffff;
      }

      .cls-7 {
        fill: #020403;
        opacity: 0.25;
      }

      .cls-8 {
        fill: #020403;
        opacity: 0.35;
      }

      .cls-10 {
        fill: #142a3b;
      }

      .cls-11 {
        fill: #2476ff;
      }
    </style>
  </defs>
  <g id="group-156svg">
    <path d="M28.066,156.047 C31.880,156.047 34.972,154.106 34.972,151.712 C34.972,149.318 31.880,147.377 28.066,147.377 C28.066,147.377 6.903,147.377 6.903,147.377 C3.089,147.377 -0.003,149.318 -0.003,151.712 C-0.003,154.106 3.089,156.047 6.903,156.047 C6.903,156.047 28.066,156.047 28.066,156.047 Z" id="path-1" class="cls-3" fill-rule="evenodd"/>
    <path d="M141.734,125.998 C141.734,125.998 162.851,125.998 162.851,125.998 C162.851,125.998 186.334,125.998 186.334,125.998 C188.674,125.998 190.571,127.686 190.571,129.999 C190.571,132.310 188.674,133.999 186.334,133.999 C186.334,133.999 161.572,133.999 161.572,133.999 C159.232,133.999 157.335,136.685 157.335,138.997 C157.335,141.309 159.232,143.997 161.572,143.997 C161.572,143.997 171.972,143.997 171.972,143.997 C171.972,143.997 190.610,143.997 190.610,143.997 C190.610,143.997 214.092,143.997 214.092,143.997 C216.432,143.997 218.329,145.185 218.329,147.497 C218.329,149.810 216.432,150.997 214.092,150.997 C214.092,150.997 189.331,150.997 189.331,150.997 C187.699,150.997 186.283,154.751 185.575,156.242 C185.038,157.370 183.705,159.348 182.176,159.348 C162.394,159.344 110.159,162.860 108.770,157.501 C107.732,153.496 70.725,150.997 68.568,150.997 C68.568,150.997 43.806,150.997 43.806,150.997 C41.466,150.997 39.569,149.810 39.569,147.497 C39.569,145.185 41.466,143.997 43.806,143.997 C43.806,143.997 67.289,143.997 67.289,143.997 C67.289,143.997 85.926,143.997 85.926,143.997 C85.926,143.997 96.326,143.997 96.326,143.997 C98.666,143.997 100.563,141.309 100.563,138.997 C100.563,136.685 98.666,133.999 96.326,133.999 C96.326,133.999 71.564,133.999 71.564,133.999 C69.224,133.999 67.327,132.310 67.327,129.999 C67.327,127.686 69.224,125.998 71.564,125.998 C71.564,125.998 95.047,125.998 95.047,125.998 C95.047,125.998 103.050,125.998 103.050,125.998 C103.050,125.998 141.734,125.998 141.734,125.998 Z" id="path-2" class="cls-3" fill-rule="evenodd"/>
    <path d="M39.838,33.001 C31.776,43.002 27.078,56.431 27.078,71.985 C27.078,94.711 37.101,118.998 53.002,125.998 C53.002,125.998 155.330,125.998 155.330,125.998 C171.231,118.998 181.254,94.711 181.254,71.985 C181.254,56.431 176.555,43.002 168.494,33.001 C168.494,33.001 39.838,33.001 39.838,33.001 Z" id="path-3" class="cls-5" fill-rule="evenodd"/>
    <path d="M51.172,116.615 C49.919,116.615 48.700,115.974 48.023,114.824 C41.140,103.113 37.348,88.747 37.348,74.378 C37.348,67.085 38.320,59.932 40.237,53.117 C40.779,51.200 42.788,50.083 44.720,50.614 C46.655,51.147 47.787,53.135 47.248,55.054 C45.509,61.237 44.626,67.739 44.626,74.378 C44.626,87.492 48.066,100.570 54.313,111.195 C55.324,112.916 54.736,115.124 53.000,116.125 C52.423,116.459 51.793,116.615 51.172,116.615 Z" id="path-4" class="cls-6" fill-rule="evenodd"/>
    <path d="M168.417,32.570 C168.417,32.570 155.491,32.570 155.491,32.570 C160.773,41.960 163.867,54.079 163.867,66.240 C163.867,88.559 153.845,110.837 137.943,120.986 C137.943,120.986 44.850,120.986 44.850,120.986 C47.353,123.601 50.076,124.428 53.002,126.296 C53.002,126.296 155.330,126.296 155.330,126.296 C171.895,117.433 181.254,95.325 181.254,73.007 C181.254,57.731 176.479,42.720 168.417,32.570 Z" id="path-5" class="cls-7" fill-rule="evenodd"/>
    <path d="M79.794,93.096 C79.794,93.096 65.676,93.096 65.676,93.096 C65.676,93.096 65.676,99.985 65.676,99.985 C65.676,99.985 84.261,99.985 84.261,99.985 C82.501,98.091 80.981,95.826 79.794,93.096 Z" id="path-6" class="cls-8" fill-rule="evenodd"/>
    <path d="M146.118,75.872 C146.118,75.872 146.118,93.096 146.118,93.096 C146.118,93.096 128.072,93.096 128.072,93.096 C123.581,103.430 114.564,107.479 104.166,107.479 C98.569,107.479 93.404,106.254 89.098,103.559 C93.975,111.265 102.018,114.369 111.120,114.369 C121.518,114.369 130.535,110.319 135.027,99.985 C135.027,99.985 153.073,99.985 153.073,99.985 C153.073,99.985 153.073,75.872 153.073,75.872 C153.073,75.872 146.118,75.872 146.118,75.872 Z" id="path-7" class="cls-8" fill-rule="evenodd"/>
    <path d="M146.592,69.001 C146.592,69.001 128.072,69.001 128.072,69.001 C123.581,65.000 114.565,54.616 104.166,54.616 C93.768,54.616 84.751,65.000 80.259,69.001 C80.259,69.001 55.598,69.001 55.598,69.001 C55.598,69.001 55.598,93.999 55.598,93.999 C55.598,93.999 80.259,93.999 80.259,93.999 C84.751,104.999 93.768,108.382 104.166,108.382 C114.565,108.382 123.581,104.999 128.072,93.999 C128.072,93.999 146.592,93.999 146.592,93.999 C146.592,93.999 146.592,69.001 146.592,69.001 Z" id="path-8" class="cls-10" fill-rule="evenodd"/>
    <path d="M168.417,18.217 C168.417,18.217 160.705,18.002 168.417,33.001 C168.417,33.001 39.569,33.001 39.569,33.001 C47.281,18.002 39.569,17.984 39.569,17.984 C39.569,17.984 168.417,18.217 168.417,18.217 Z" id="path-9" class="cls-11" fill-rule="evenodd"/>
    <path d="M167.267,17.918 C167.267,17.918 40.987,17.918 40.987,17.918 C40.987,17.918 43.277,20.157 43.155,24.816 C43.155,24.816 158.158,24.875 158.158,24.875 C158.158,24.875 153.920,26.984 154.885,32.570 C154.885,32.570 168.590,32.570 168.590,32.570 C160.878,22.234 167.267,17.918 167.267,17.918 Z" id="path-10" class="cls-8" fill-rule="evenodd"/>
    <path d="M179.590,18.002 C179.590,18.002 27.599,18.002 27.599,18.002 C27.599,18.002 27.599,0.002 27.599,0.002 C27.599,0.002 179.590,0.002 179.590,0.002 C179.590,0.002 179.590,18.002 179.590,18.002 Z" id="path-11" class="cls-10" fill-rule="evenodd"/>
    <path d="M152.325,0.126 C152.325,0.126 152.325,18.149 152.325,18.149 C152.325,18.149 179.627,18.149 179.627,18.149 C179.627,18.149 179.627,0.126 179.627,0.126 C179.627,0.126 152.325,0.126 152.325,0.126 Z" id="path-12" class="cls-8" fill-rule="evenodd"/>
  </g>
</svg>
