<svg xmlns="http://www.w3.org/2000/svg" xmlns:xlink="http://www.w3.org/1999/xlink" preserveAspectRatio="xMidYMid" width="214" height="217" viewBox="0 0 214 217">
  <defs>
    <style>

      .cls-3 {
        fill: #db2c3f;
      }

      .cls-4 {
        fill: #ff3a2f;
      }

      .cls-5 {
        fill: #ffffff;
      }

      .cls-6 {
        fill: #010101;
        opacity: 0.35;
      }

      .cls-7 {
        fill: #050000;
        opacity: 0.25;
      }

      .cls-8 {
        fill: #142a3b;
      }

      .cls-9 {
        fill: #0cb04a;
      }
    </style>
  </defs>
  <g id="group-151svg">
    <path d="M98.218,109.201 C98.218,109.201 155.878,143.304 155.878,143.304 C155.878,143.304 121.453,86.183 121.453,86.183 C121.453,86.183 121.657,85.980 121.657,85.980 C121.657,85.980 121.150,85.680 121.150,85.680 C121.150,85.680 120.846,85.176 120.846,85.176 C120.846,85.176 120.642,85.380 120.642,85.380 C120.642,85.380 62.982,51.276 62.982,51.276 C62.982,51.276 97.407,108.398 97.407,108.398 C97.407,108.398 97.203,108.600 97.203,108.600 C97.203,108.600 97.710,108.899 97.710,108.899 C97.710,108.899 98.013,109.403 98.013,109.403 C98.013,109.403 98.218,109.201 98.218,109.201 Z" id="path-1" class="cls-3" fill-rule="evenodd"/>
    <path d="M207.932,100.908 C207.932,156.641 162.325,201.822 106.065,201.822 C49.805,201.822 4.198,156.641 4.198,100.908 C4.198,45.174 49.805,-0.007 106.065,-0.007 C162.325,-0.007 207.932,45.174 207.932,100.908 Z" id="path-2" class="cls-4" fill-rule="evenodd"/>
    <path d="M179.293,100.908 C179.293,140.972 146.507,173.450 106.065,173.450 C65.622,173.450 32.838,140.972 32.838,100.908 C32.838,60.843 65.622,28.364 106.065,28.364 C146.507,28.364 179.293,60.843 179.293,100.908 Z" id="path-3" class="cls-5" fill-rule="evenodd"/>
    <path d="M106.065,28.364 C93.588,28.364 81.851,31.473 71.570,36.925 C71.560,36.931 71.549,36.936 71.539,36.942 C79.803,33.739 88.795,31.979 98.205,31.979 C138.647,31.979 171.432,64.458 171.432,104.524 C171.432,130.612 157.528,153.482 136.661,166.262 C139.116,165.312 141.481,164.192 143.799,162.992 C165.042,150.293 179.293,127.278 179.293,100.908 C179.293,60.843 146.508,28.364 106.065,28.364 Z" id="path-4" class="cls-6" fill-rule="evenodd"/>
    <path d="M56.483,52.581 C56.483,52.581 158.026,153.174 158.026,153.174 C158.026,153.174 127.779,81.474 127.779,81.474 C127.779,81.474 56.483,52.581 56.483,52.581 Z" id="path-5" class="cls-7" fill-rule="evenodd"/>
    <path d="M93.838,112.217 C93.838,112.217 152.514,146.922 152.514,146.922 C152.514,146.922 117.482,88.794 117.482,88.794 C117.482,88.794 93.838,112.217 93.838,112.217 Z" id="path-6" class="cls-8" fill-rule="evenodd"/>
    <path d="M94.648,113.019 C94.648,113.019 59.616,54.893 59.616,54.893 C59.616,54.893 118.292,89.597 118.292,89.597 C118.292,89.597 94.648,113.019 94.648,113.019 Z" id="path-7" class="cls-9" fill-rule="evenodd"/>
    <path d="M74.326,191.432 C74.326,191.432 84.634,191.432 84.634,191.432 C86.622,191.432 88.233,192.787 88.233,194.458 C88.233,196.129 86.622,197.483 84.634,197.483 C84.634,197.483 84.154,197.483 84.154,197.483 C82.167,197.483 80.556,198.839 80.556,200.509 C80.556,202.180 82.167,203.535 84.154,203.535 C84.154,203.535 106.314,203.535 106.314,203.535 C108.301,203.535 109.912,204.889 109.912,206.560 C109.912,208.232 108.301,209.586 106.314,209.586 C106.314,209.586 79.684,209.586 79.684,209.586 C79.684,209.586 31.794,209.586 31.794,209.586 C29.806,209.586 28.195,208.232 28.195,206.560 C28.195,204.889 29.806,203.535 31.794,203.535 C31.794,203.535 37.944,203.535 37.944,203.535 C39.932,203.535 41.542,202.180 41.542,200.509 C41.542,198.839 39.932,197.483 37.944,197.483 C37.944,197.483 8.675,197.483 8.675,197.483 C6.687,197.483 5.076,196.129 5.076,194.458 C5.076,192.787 6.687,191.432 8.675,191.432 C8.675,191.432 34.213,191.432 34.213,191.432 C34.213,191.432 74.326,191.432 74.326,191.432 Z" id="path-8" class="cls-8" fill-rule="evenodd"/>
    <path d="M192.713,205.864 C192.713,205.864 198.629,205.864 198.629,205.864 C199.770,205.864 200.695,206.642 200.695,207.601 C200.695,208.559 199.770,209.338 198.629,209.338 C198.629,209.338 198.354,209.338 198.354,209.338 C197.213,209.338 196.288,210.115 196.288,211.074 C196.288,212.034 197.213,212.810 198.354,212.810 C198.354,212.810 211.072,212.810 211.072,212.810 C212.213,212.810 213.138,213.588 213.138,214.547 C213.138,215.506 212.213,216.283 211.072,216.283 C211.072,216.283 195.788,216.283 195.788,216.283 C195.788,216.283 168.302,216.283 168.302,216.283 C167.161,216.283 166.236,215.506 166.236,214.547 C166.236,213.588 167.161,212.810 168.302,212.810 C168.302,212.810 171.832,212.810 171.832,212.810 C172.972,212.810 173.897,212.034 173.897,211.074 C173.897,210.115 172.972,209.338 171.832,209.338 C171.832,209.338 155.033,209.338 155.033,209.338 C153.892,209.338 152.967,208.559 152.967,207.601 C152.967,206.642 153.892,205.864 155.033,205.864 C155.033,205.864 169.690,205.864 169.690,205.864 C169.690,205.864 192.713,205.864 192.713,205.864 Z" id="path-9" class="cls-8" fill-rule="evenodd"/>
    <path d="M13.092,209.666 C14.871,209.666 16.313,208.761 16.313,207.645 C16.313,206.528 14.871,205.622 13.092,205.622 C13.092,205.622 3.222,205.622 3.222,205.622 C1.443,205.622 0.001,206.528 0.001,207.645 C0.001,208.761 1.443,209.666 3.222,209.666 C3.222,209.666 13.092,209.666 13.092,209.666 Z" id="path-10" class="cls-8" fill-rule="evenodd"/>
  </g>
</svg>
