<svg xmlns="http://www.w3.org/2000/svg" xmlns:xlink="http://www.w3.org/1999/xlink" preserveAspectRatio="xMidYMid" width="219" height="175" viewBox="0 0 219 175">
  <defs>
    <style>

      .cls-3 {
        fill: #ff3a2f;
      }

      .cls-4 {
        fill: #020403;
        opacity: 0.25;
      }

      .cls-5 {
        fill: #ffffff;
      }

      .cls-6 {
        fill: #142a3b;
      }

      .cls-7 {
        fill: #2476ff;
      }
    </style>
  </defs>
  <g id="group-41svg">
    <path d="M155.596,90.204 C155.596,116.887 133.760,138.517 106.827,138.517 C79.891,138.517 58.057,116.887 58.057,90.204 C58.057,63.521 79.891,41.891 106.827,41.891 C133.760,41.891 155.596,63.521 155.596,90.204 Z" id="path-1" class="cls-3" fill-rule="evenodd"/>
    <path d="M115.253,42.659 C128.266,51.335 136.830,66.060 136.830,82.768 C136.830,109.451 114.995,131.081 88.061,131.081 C85.182,131.081 82.378,130.786 79.634,130.313 C87.403,135.491 96.757,138.517 106.827,138.517 C133.760,138.517 155.596,116.887 155.596,90.204 C155.596,66.374 138.163,46.621 115.253,42.659 Z" id="path-2" class="cls-4" fill-rule="evenodd"/>
    <path d="M77.465,127.479 C76.534,127.479 75.603,127.127 74.892,126.423 C73.470,125.016 73.470,122.733 74.892,121.325 C83.417,112.881 88.112,101.653 88.112,89.711 C88.112,77.769 83.417,66.542 74.892,58.097 C73.470,56.690 73.470,54.407 74.892,52.999 C76.314,51.591 78.616,51.591 80.038,52.999 C89.938,62.806 95.389,75.843 95.389,89.711 C95.389,103.578 89.938,116.617 80.038,126.423 C79.327,127.127 78.395,127.479 77.465,127.479 Z" id="path-3" class="cls-5" fill-rule="evenodd"/>
    <path d="M180.432,90.204 C180.432,72.866 191.883,58.191 207.694,53.157 C203.902,51.949 199.865,51.282 195.668,51.282 C173.968,51.282 156.377,68.708 156.377,90.204 C156.377,111.700 173.968,129.126 195.668,129.126 C199.865,129.126 203.902,128.459 207.694,127.252 C191.883,122.217 180.432,107.542 180.432,90.204 Z" id="path-4" class="cls-6" fill-rule="evenodd"/>
    <path d="M56.344,35.997 C56.344,43.413 50.275,49.424 42.788,49.424 C35.302,49.424 29.234,43.413 29.234,35.997 C29.234,28.580 35.302,22.569 42.788,22.569 C50.275,22.569 56.344,28.580 56.344,35.997 Z" id="path-5" class="cls-7" fill-rule="evenodd"/>
    <path d="M27.045,7.179 C27.045,11.148 23.797,14.365 19.789,14.365 C15.783,14.365 12.535,11.148 12.535,7.179 C12.535,3.209 15.783,-0.009 19.789,-0.009 C23.797,-0.009 27.045,3.209 27.045,7.179 Z" id="path-6" class="cls-7" fill-rule="evenodd"/>
    <path d="M79.259,88.714 C79.259,92.076 76.507,94.802 73.114,94.802 C69.720,94.802 66.970,92.076 66.970,88.714 C66.970,85.354 69.720,82.628 73.114,82.628 C76.507,82.628 79.259,85.354 79.259,88.714 Z" id="path-7" class="cls-5" fill-rule="evenodd"/>
    <path d="M26.457,68.174 C26.457,68.174 31.840,68.174 31.840,68.174 C32.878,68.174 33.720,69.076 33.720,70.187 C33.720,71.299 32.878,72.200 31.840,72.200 C31.840,72.200 31.590,72.200 31.590,72.200 C30.552,72.200 29.711,73.101 29.711,74.213 C29.711,75.324 30.552,76.226 31.590,76.226 C31.590,76.226 43.163,76.226 43.163,76.226 C44.201,76.226 45.042,77.127 45.042,78.238 C45.042,79.350 44.201,80.251 43.163,80.251 C43.163,80.251 29.254,80.251 29.254,80.251 C29.254,80.251 13.969,80.251 13.969,80.251 C12.931,80.251 12.088,79.350 12.088,78.238 C12.088,77.127 12.931,76.226 13.969,76.226 C13.969,76.226 17.180,76.226 17.180,76.226 C18.218,76.226 19.060,75.324 19.060,74.213 C19.060,73.101 18.218,72.200 17.180,72.200 C17.180,72.200 1.894,72.200 1.894,72.200 C0.855,72.200 0.014,71.299 0.014,70.187 C0.014,69.076 0.855,68.174 1.894,68.174 C1.894,68.174 5.506,68.174 5.506,68.174 C5.506,68.174 26.457,68.174 26.457,68.174 Z" id="path-8" class="cls-7" fill-rule="evenodd"/>
    <path d="M163.189,158.330 C163.189,158.330 179.009,158.330 179.009,158.330 C182.057,158.330 184.530,159.532 184.530,161.013 C184.530,162.497 182.057,163.699 179.009,163.699 C179.009,163.699 178.271,163.699 178.271,163.699 C175.222,163.699 172.749,164.901 172.749,166.385 C172.749,167.866 175.222,169.068 178.271,169.068 C178.271,169.068 212.277,169.068 212.277,169.068 C215.325,169.068 217.798,170.270 217.798,171.754 C217.798,173.236 215.325,174.438 212.277,174.438 C212.277,174.438 171.411,174.438 171.411,174.438 C171.411,174.438 126.498,174.438 126.498,174.438 C123.447,174.438 120.976,173.236 120.976,171.754 C120.976,170.270 123.447,169.068 126.498,169.068 C126.498,169.068 135.935,169.068 135.935,169.068 C138.985,169.068 141.457,167.866 141.457,166.385 C141.457,164.901 138.985,163.699 135.935,163.699 C135.935,163.699 91.022,163.699 91.022,163.699 C87.971,163.699 85.499,162.497 85.499,161.013 C85.499,159.532 87.971,158.330 91.022,158.330 C91.022,158.330 101.636,158.330 101.636,158.330 C101.636,158.330 163.189,158.330 163.189,158.330 Z" id="path-9" class="cls-7" fill-rule="evenodd"/>
    <path d="M200.373,95.794 C200.373,95.794 205.579,95.794 205.579,95.794 C206.583,95.794 207.396,96.607 207.396,97.608 C207.396,98.609 206.583,99.420 205.579,99.420 C205.579,99.420 205.336,99.420 205.336,99.420 C204.334,99.420 203.519,100.233 203.519,101.234 C203.519,102.234 204.334,103.046 205.336,103.046 C205.336,103.046 216.529,103.046 216.529,103.046 C217.532,103.046 218.347,103.858 218.347,104.859 C218.347,105.860 217.532,106.671 216.529,106.671 C216.529,106.671 203.079,106.671 203.079,106.671 C203.079,106.671 188.295,106.671 188.295,106.671 C187.292,106.671 186.478,105.860 186.478,104.859 C186.478,103.858 187.292,103.046 188.295,103.046 C188.295,103.046 191.402,103.046 191.402,103.046 C192.406,103.046 193.219,102.234 193.219,101.234 C193.219,100.233 192.406,99.420 191.402,99.420 C191.402,99.420 176.618,99.420 176.618,99.420 C175.615,99.420 174.802,98.609 174.802,97.608 C174.802,96.607 175.615,95.794 176.618,95.794 C176.618,95.794 180.112,95.794 180.112,95.794 C180.112,95.794 200.373,95.794 200.373,95.794 Z" id="path-10" class="cls-7" fill-rule="evenodd"/>
  </g>
</svg>
