<svg xmlns="http://www.w3.org/2000/svg" xmlns:xlink="http://www.w3.org/1999/xlink" preserveAspectRatio="xMidYMid" width="219" height="178" viewBox="0 0 219 178">
  <defs>
    <style>

      .cls-3 {
        fill: #2476ff;
      }

      .cls-5 {
        fill: #142a3b;
      }

      .cls-6 {
        fill: #0cb04a;
      }

      .cls-7 {
        fill: #020403;
        opacity: 0.25;
      }

      .cls-8 {
        fill: #ff3a2f;
      }

      .cls-10 {
        fill: #020403;
        opacity: 0.35;
      }
    </style>
  </defs>
  <g id="group-28svg">
    <path d="M163.468,153.262 C163.468,153.262 179.360,153.262 179.360,153.262 C182.424,153.262 184.907,154.893 184.907,156.905 C184.907,158.916 182.424,160.547 179.360,160.547 C179.360,160.547 178.620,160.547 178.620,160.547 C175.556,160.547 173.072,162.177 173.072,164.190 C173.072,166.201 175.556,167.831 178.620,167.831 C178.620,167.831 212.782,167.831 212.782,167.831 C215.845,167.831 218.329,169.462 218.329,171.473 C218.329,173.485 215.845,175.116 212.782,175.116 C212.782,175.116 171.728,175.116 171.728,175.116 C171.728,175.116 126.606,175.116 126.606,175.116 C123.542,175.116 121.059,173.485 121.059,171.473 C121.059,169.462 123.542,167.831 126.606,167.831 C126.606,167.831 136.087,167.831 136.087,167.831 C139.151,167.831 141.635,166.201 141.635,164.190 C141.635,162.177 139.151,160.547 136.087,160.547 C136.087,160.547 90.965,160.547 90.965,160.547 C87.901,160.547 85.417,158.916 85.417,156.905 C85.417,154.893 87.901,153.262 90.965,153.262 C90.965,153.262 101.629,153.262 101.629,153.262 C101.629,153.262 163.468,153.262 163.468,153.262 Z" id="path-1" class="cls-3" fill-rule="evenodd"/>
    <path d="M94.495,177.330 C98.009,177.330 100.857,175.590 100.857,173.443 C100.857,171.297 98.009,169.556 94.495,169.556 C94.495,169.556 74.999,169.556 74.999,169.556 C71.485,169.556 68.636,171.297 68.636,173.443 C68.636,175.590 71.485,177.330 74.999,177.330 C74.999,177.330 94.495,177.330 94.495,177.330 Z" id="path-2" class="cls-3" fill-rule="evenodd"/>
    <path d="M140.543,33.606 C140.543,33.606 78.044,33.606 78.044,33.606 C78.044,33.606 78.044,8.814 78.044,8.814 C78.044,8.814 140.543,8.814 140.543,8.814 C140.543,8.814 140.543,33.606 140.543,33.606 ZM85.322,26.396 C85.322,26.396 133.265,26.396 133.265,26.396 C133.265,26.396 133.265,16.023 133.265,16.023 C133.265,16.023 85.322,16.023 85.322,16.023 C85.322,16.023 85.322,26.396 85.322,26.396 Z" id="path-3" class="cls-5" fill-rule="evenodd"/>
    <path d="M158.156,112.459 C158.156,112.459 60.431,112.459 60.431,112.459 C47.920,112.459 37.778,102.316 37.778,89.806 C37.778,89.806 37.778,49.106 37.778,49.106 C37.778,36.594 47.920,26.452 60.431,26.452 C60.431,26.452 158.156,26.452 158.156,26.452 C170.666,26.452 180.808,36.594 180.808,49.106 C180.808,49.106 180.808,89.806 180.808,89.806 C180.808,102.316 170.666,112.459 158.156,112.459 Z" id="path-4" class="cls-6" fill-rule="evenodd"/>
    <path d="M157.787,26.452 C157.787,26.452 156.537,26.452 156.537,26.452 C160.468,30.543 162.896,36.066 162.896,42.161 C162.896,42.161 162.896,82.555 162.896,82.555 C162.896,95.150 152.589,105.361 139.875,105.361 C139.875,105.361 44.138,105.361 44.138,105.361 C48.331,109.725 54.237,112.459 60.800,112.459 C60.800,112.459 157.787,112.459 157.787,112.459 C170.501,112.459 180.808,102.248 180.808,89.652 C180.808,89.652 180.808,49.258 180.808,49.258 C180.808,36.662 170.501,26.452 157.787,26.452 Z" id="path-5" class="cls-7" fill-rule="evenodd"/>
    <path d="M63.270,136.842 C61.900,138.871 61.096,141.306 61.096,143.929 C61.096,150.976 66.862,156.688 73.975,156.688 C81.087,156.688 86.853,150.976 86.853,143.929 C86.853,141.306 86.050,138.871 84.680,136.842 C84.680,136.842 63.270,136.842 63.270,136.842 Z" id="path-6" class="cls-8" fill-rule="evenodd"/>
    <path d="M127.662,136.842 C126.291,138.871 125.488,141.306 125.488,143.929 C125.488,150.976 131.253,156.688 138.367,156.688 C145.479,156.688 151.245,150.976 151.245,143.929 C151.245,141.306 150.442,138.871 149.071,136.842 C149.071,136.842 127.662,136.842 127.662,136.842 Z" id="path-7" class="cls-8" fill-rule="evenodd"/>
    <path d="M63.270,136.842 C61.900,138.871 61.096,141.307 61.096,143.929 C61.096,144.907 61.230,145.849 61.441,146.765 C61.441,146.765 86.509,146.765 86.509,146.765 C86.719,145.849 86.853,144.907 86.853,143.929 C86.853,141.307 86.050,138.871 84.680,136.842 C84.680,136.842 63.270,136.842 63.270,136.842 Z" id="path-8" class="cls-10" fill-rule="evenodd"/>
    <path d="M127.662,136.842 C126.291,138.871 125.488,141.307 125.488,143.929 C125.488,144.907 125.622,145.849 125.832,146.765 C125.832,146.765 150.900,146.765 150.900,146.765 C151.110,145.849 151.245,144.907 151.245,143.929 C151.245,141.307 150.442,138.871 149.071,136.842 C149.071,136.842 127.662,136.842 127.662,136.842 Z" id="path-9" class="cls-10" fill-rule="evenodd"/>
    <path d="M39.842,140.101 C23.363,140.101 10.004,126.866 10.004,110.541 C10.004,110.541 10.004,29.160 10.004,29.160 C10.004,23.781 7.475,18.986 3.530,15.881 C-0.704,12.546 -1.263,6.414 2.562,2.626 C2.562,2.626 2.562,2.626 2.562,2.626 C5.006,0.205 8.673,-0.658 11.899,0.569 C18.322,3.011 22.882,9.179 22.882,16.402 C22.882,16.402 22.882,97.783 22.882,97.783 C22.882,114.109 36.241,127.343 52.721,127.343 C52.721,127.343 190.449,127.343 190.449,127.343 C194.082,127.343 197.027,130.261 197.027,133.860 C197.027,133.860 197.027,133.860 197.027,133.860 C197.027,137.465 194.074,140.385 190.435,140.377 C190.435,140.377 39.842,140.101 39.842,140.101 Z" id="path-10" class="cls-5" fill-rule="evenodd"/>
    <path d="M154.883,112.459 C154.883,112.459 147.605,112.459 147.605,112.459 C147.605,112.459 147.605,28.153 147.605,28.153 C147.605,28.153 154.883,28.153 154.883,28.153 C154.883,28.153 154.883,112.459 154.883,112.459 Z" id="path-11" class="cls-5" fill-rule="evenodd"/>
    <path d="M71.175,112.459 C71.175,112.459 63.897,112.459 63.897,112.459 C63.897,112.459 63.897,28.153 63.897,28.153 C63.897,28.153 71.175,28.153 71.175,28.153 C71.175,28.153 71.175,112.459 71.175,112.459 Z" id="path-12" class="cls-5" fill-rule="evenodd"/>
  </g>
</svg>
