<svg xmlns="http://www.w3.org/2000/svg" xmlns:xlink="http://www.w3.org/1999/xlink" preserveAspectRatio="xMidYMid" width="219" height="191" viewBox="0 0 219 191">
  <defs>
    <style>

      .cls-3 {
        fill: #0cb04a;
      }

      .cls-6 {
        fill: #ff3a2f;
      }

      .cls-7 {
        fill: #000000;
        opacity: 0.25;
      }

      .cls-8 {
        fill: #ffffff;
      }

      .cls-9 {
        fill: #fbb713;
      }
    </style>
  </defs>
  <g id="group-18svg">
    <path d="M210.377,189.870 C214.774,189.870 218.339,187.633 218.339,184.872 C218.339,182.113 214.774,179.875 210.377,179.875 C210.377,179.875 185.977,179.875 185.977,179.875 C181.580,179.875 178.016,182.113 178.016,184.872 C178.016,187.633 181.580,189.870 185.977,189.870 C185.977,189.870 210.377,189.870 210.377,189.870 Z" id="path-1" class="cls-3" fill-rule="evenodd"/>
    <path d="M103.137,160.939 C103.137,163.556 100.995,165.678 98.354,165.678 C95.711,165.678 93.570,163.556 93.570,160.939 C93.570,158.322 95.711,156.200 98.354,156.200 C100.995,156.200 103.137,158.322 103.137,160.939 Z" id="path-2" class="cls-3" fill-rule="evenodd"/>
    <path d="M49.264,146.206 C49.264,146.206 59.293,146.206 59.293,146.206 C61.226,146.206 62.794,147.697 62.794,149.536 C62.794,151.376 61.226,152.869 59.293,152.869 C59.293,152.869 58.826,152.869 58.826,152.869 C56.893,152.869 55.325,154.360 55.325,156.201 C55.325,158.041 56.893,159.532 58.826,159.532 C58.826,159.532 80.385,159.532 80.385,159.532 C82.319,159.532 83.887,161.024 83.887,162.864 C83.887,164.704 82.319,166.195 80.385,166.195 C80.385,166.195 54.477,166.195 54.477,166.195 C54.477,166.195 26.001,166.195 26.001,166.195 C24.067,166.195 22.500,164.704 22.500,162.864 C22.500,161.024 24.067,159.532 26.001,159.532 C26.001,159.532 31.983,159.532 31.983,159.532 C33.917,159.532 35.485,158.041 35.485,156.201 C35.485,154.360 33.917,152.869 31.983,152.869 C31.983,152.869 3.507,152.869 3.507,152.869 C1.574,152.869 0.007,151.376 0.007,149.536 C0.007,147.697 1.574,146.206 3.507,146.206 C3.507,146.206 10.238,146.206 10.238,146.206 C10.238,146.206 49.264,146.206 49.264,146.206 Z" id="path-3" class="cls-3" fill-rule="evenodd"/>
    <path d="M100.639,91.548 C72.956,118.972 35.913,126.740 17.902,108.899 C-0.108,91.056 7.732,54.359 35.416,26.934 C63.100,-0.491 100.142,-8.258 118.154,9.584 C136.165,27.427 128.323,64.124 100.639,91.548 Z" id="path-4" class="cls-6" fill-rule="evenodd"/>
    <path d="M118.154,9.584 C100.142,-8.258 63.100,-0.491 35.416,26.934 C7.732,54.359 -0.108,91.056 17.902,108.899 C17.902,108.899 48.375,105.927 63.187,62.792 C63.187,62.792 70.557,15.357 110.862,17.200 C110.862,17.200 118.154,9.584 118.154,9.584 Z" id="path-5" class="cls-7" fill-rule="evenodd"/>
    <path d="M27.222,64.250 C26.679,64.250 26.126,64.129 25.605,63.872 C23.807,62.987 23.073,60.823 23.967,59.040 C28.888,49.231 35.631,40.052 44.005,31.757 C52.621,23.221 62.571,16.151 72.781,11.311 C74.593,10.450 76.764,11.210 77.635,13.005 C78.502,14.801 77.735,16.954 75.922,17.813 C66.448,22.306 57.191,28.890 49.151,36.854 C41.445,44.488 34.990,53.268 30.484,62.248 C29.848,63.516 28.560,64.250 27.222,64.250 Z" id="path-6" class="cls-8" fill-rule="evenodd"/>
    <path d="M177.181,156.318 C160.320,173.020 137.759,177.751 126.790,166.883 C115.820,156.017 120.596,133.667 137.456,116.964 C154.317,100.261 176.878,95.530 187.847,106.396 C198.818,117.263 194.042,139.614 177.181,156.318 Z" id="path-7" class="cls-9" fill-rule="evenodd"/>
    <path d="M187.847,106.396 C176.878,95.530 154.317,100.261 137.456,116.964 C120.596,133.667 115.820,156.017 126.790,166.883 C126.790,166.883 145.349,165.074 154.370,138.803 C154.370,138.803 158.859,109.912 183.407,111.035 C183.407,111.035 187.847,106.396 187.847,106.396 Z" id="path-8" class="cls-7" fill-rule="evenodd"/>
    <path d="M185.101,31.719 C196.052,42.567 199.154,57.084 192.029,64.142 C184.904,71.200 170.251,68.128 159.300,57.278 C148.349,46.429 145.247,31.913 152.372,24.855 C159.497,17.798 174.150,20.869 185.101,31.719 Z" id="path-9" class="cls-6" fill-rule="evenodd"/>
    <path d="M152.372,24.855 C145.247,31.913 148.349,46.429 159.300,57.278 C170.251,68.128 184.904,71.200 192.029,64.142 C192.029,64.142 190.843,52.200 173.619,46.396 C173.619,46.396 154.677,43.508 155.413,27.712 C155.413,27.712 152.372,24.855 152.372,24.855 Z" id="path-10" class="cls-7" fill-rule="evenodd"/>
  </g>
</svg>
