<svg xmlns="http://www.w3.org/2000/svg" xmlns:xlink="http://www.w3.org/1999/xlink" preserveAspectRatio="xMidYMid" width="219" height="208" viewBox="0 0 219 208">
  <defs>
    <style>

      .cls-3 {
        fill: #ff3a2f;
      }

      .cls-9 {
        fill: #fbb713;
      }

      .cls-10 {
        fill: #010101;
        opacity: 0.35;
      }

      .cls-12 {
        fill: #020403;
        opacity: 0.35;
      }

      .cls-13 {
        fill: #ffffff;
      }
    </style>
  </defs>
  <g id="group-109svg">
    <path d="M138.763,202.335 C140.380,202.335 141.690,201.449 141.690,200.358 C141.690,199.265 140.380,198.380 138.763,198.380 C138.763,198.380 129.793,198.380 129.793,198.380 C128.176,198.380 126.865,199.265 126.865,200.358 C126.865,201.449 128.176,202.335 129.793,202.335 C129.793,202.335 138.763,202.335 138.763,202.335 Z" id="path-1" class="cls-3" fill-rule="evenodd"/>
    <path d="M41.949,94.053 C41.949,94.053 44.392,94.053 44.392,94.053 C44.863,94.053 45.245,94.547 45.245,95.157 C45.245,95.767 44.863,96.261 44.392,96.261 C44.392,96.261 44.279,96.261 44.279,96.261 C43.808,96.261 43.426,96.755 43.426,97.365 C43.426,97.974 43.808,98.470 44.279,98.470 C44.279,98.470 49.530,98.470 49.530,98.470 C50.001,98.470 50.382,98.965 50.382,99.574 C50.382,100.184 50.001,100.678 49.530,100.678 C49.530,100.678 43.220,100.678 43.220,100.678 C43.220,100.678 30.321,100.678 30.321,100.678 C29.850,100.678 29.468,100.184 29.468,99.574 C29.468,98.965 29.850,98.470 30.321,98.470 C30.321,98.470 31.779,98.470 31.779,98.470 C32.249,98.470 32.632,97.974 32.632,97.365 C32.632,96.755 32.249,96.261 31.779,96.261 C31.779,96.261 24.843,96.261 24.843,96.261 C24.372,96.261 23.990,95.767 23.990,95.157 C23.990,94.547 24.372,94.053 24.843,94.053 C24.843,94.053 26.482,94.053 26.482,94.053 C26.482,94.053 41.949,94.053 41.949,94.053 Z" id="path-2" class="cls-3" fill-rule="evenodd"/>
    <path d="M185.971,130.674 C185.971,130.674 189.296,130.674 189.296,130.674 C189.937,130.674 190.456,131.347 190.456,132.176 C190.456,133.006 189.937,133.678 189.296,133.678 C189.296,133.678 189.141,133.678 189.141,133.678 C188.500,133.678 187.980,134.351 187.980,135.182 C187.980,136.011 188.500,136.684 189.141,136.684 C189.141,136.684 196.288,136.684 196.288,136.684 C196.929,136.684 197.449,137.356 197.449,138.187 C197.449,139.016 196.929,139.690 196.288,139.690 C196.288,139.690 187.699,139.690 187.699,139.690 C187.699,139.690 170.144,139.690 170.144,139.690 C169.503,139.690 168.984,139.016 168.984,138.187 C168.984,137.356 169.503,136.684 170.144,136.684 C170.144,136.684 172.128,136.684 172.128,136.684 C172.769,136.684 173.288,136.011 173.288,135.182 C173.288,134.351 172.769,133.678 172.128,133.678 C172.128,133.678 162.688,133.678 162.688,133.678 C162.047,133.678 161.527,133.006 161.527,132.176 C161.527,131.347 162.047,130.674 162.688,130.674 C162.688,130.674 164.919,130.674 164.919,130.674 C164.919,130.674 185.971,130.674 185.971,130.674 Z" id="path-3" class="cls-3" fill-rule="evenodd"/>
    <path d="M24.436,164.656 C24.436,164.656 27.761,164.656 27.761,164.656 C28.402,164.656 28.921,165.329 28.921,166.159 C28.921,166.989 28.402,167.662 27.761,167.662 C27.761,167.662 27.606,167.662 27.606,167.662 C26.965,167.662 26.445,168.334 26.445,169.165 C26.445,169.994 26.965,170.668 27.606,170.668 C27.606,170.668 34.753,170.668 34.753,170.668 C35.394,170.668 35.914,171.340 35.914,172.169 C35.914,173.000 35.394,173.672 34.753,173.672 C34.753,173.672 26.164,173.672 26.164,173.672 C26.164,173.672 8.610,173.672 8.610,173.672 C7.968,173.672 7.449,173.000 7.449,172.169 C7.449,171.340 7.968,170.668 8.610,170.668 C8.610,170.668 10.593,170.668 10.593,170.668 C11.234,170.668 11.753,169.994 11.753,169.165 C11.753,168.334 11.234,167.662 10.593,167.662 C10.593,167.662 1.153,167.662 1.153,167.662 C0.512,167.662 -0.007,166.989 -0.007,166.159 C-0.007,165.329 0.512,164.656 1.153,164.656 C1.153,164.656 3.384,164.656 3.384,164.656 C3.384,164.656 24.436,164.656 24.436,164.656 Z" id="path-4" class="cls-3" fill-rule="evenodd"/>
    <path d="M15.769,103.203 C16.778,103.203 17.596,102.606 17.596,101.871 C17.596,101.136 16.778,100.538 15.769,100.538 C15.769,100.538 10.170,100.538 10.170,100.538 C9.161,100.538 8.343,101.136 8.343,101.871 C8.343,102.606 9.161,103.203 10.170,103.203 C10.170,103.203 15.769,103.203 15.769,103.203 Z" id="path-5" class="cls-3" fill-rule="evenodd"/>
    <path d="M194.930,185.165 C194.930,185.165 201.707,185.165 201.707,185.165 C203.013,185.165 204.072,186.434 204.072,188.001 C204.072,189.567 203.013,190.837 201.707,190.837 C201.707,190.837 201.391,190.837 201.391,190.837 C200.084,190.837 199.025,192.106 199.025,193.672 C199.025,195.240 200.084,196.509 201.391,196.509 C201.391,196.509 215.959,196.509 215.959,196.509 C217.266,196.509 218.325,197.780 218.325,199.346 C218.325,200.912 217.266,202.182 215.959,202.182 C215.959,202.182 198.452,202.182 198.452,202.182 C198.452,202.182 162.668,202.182 162.668,202.182 C161.361,202.182 160.302,200.912 160.302,199.346 C160.302,197.780 161.361,196.509 162.668,196.509 C162.668,196.509 166.711,196.509 166.711,196.509 C168.017,196.509 169.076,195.240 169.076,193.672 C169.076,192.106 168.017,190.837 166.711,190.837 C166.711,190.837 147.469,190.837 147.469,190.837 C146.162,190.837 145.103,189.567 145.103,188.001 C145.103,186.434 146.162,185.165 147.469,185.165 C147.469,185.165 152.017,185.165 152.017,185.165 C152.017,185.165 194.930,185.165 194.930,185.165 Z" id="path-6" class="cls-3" fill-rule="evenodd"/>
    <path d="M67.985,45.814 C67.985,45.814 67.985,125.465 67.985,125.465 C55.272,133.254 47.423,147.085 47.423,162.901 C47.423,187.267 67.396,207.021 92.174,207.021 C116.944,207.021 136.495,187.267 136.495,162.901 C136.495,147.292 128.232,133.605 115.792,125.765 C115.792,125.765 115.792,24.076 115.792,24.076 C115.792,10.779 105.087,-0.002 91.886,-0.002 C78.684,-0.002 67.985,10.779 67.985,24.076 C67.985,24.076 67.985,27.713 67.985,27.713 C67.985,27.713 67.985,45.814 67.985,45.814 Z" id="path-7" class="cls-9" fill-rule="evenodd"/>
    <path d="M115.792,125.765 C115.792,125.765 115.792,24.076 115.792,24.076 C115.792,10.780 105.087,-0.002 91.886,-0.002 C90.120,-0.002 88.404,0.206 86.747,0.571 C97.477,2.941 105.516,12.558 105.516,24.076 C105.516,24.076 105.516,125.765 105.516,125.765 C117.954,133.605 126.218,147.292 126.218,162.901 C126.218,185.554 109.311,204.196 87.031,206.710 C88.720,206.898 90.431,207.021 92.174,207.021 C116.944,207.021 136.496,187.267 136.496,162.901 C136.496,147.292 128.232,133.605 115.792,125.765 Z" id="path-8" class="cls-10" fill-rule="evenodd"/>
    <path d="M101.719,135.040 C101.719,135.040 101.719,97.289 101.719,97.289 C101.719,91.758 97.420,90.499 92.137,90.499 C86.850,90.499 82.200,92.109 82.200,97.641 C82.200,97.641 82.200,135.040 82.200,135.040 C71.964,138.933 64.686,148.735 64.686,160.246 C64.686,175.168 76.897,187.265 91.959,187.265 C107.022,187.265 119.233,175.168 119.233,160.246 C119.233,148.735 111.954,138.933 101.719,135.040 Z" id="path-9" class="cls-3" fill-rule="evenodd"/>
    <path d="M101.718,135.040 C101.718,135.040 101.718,97.289 101.718,97.289 C101.718,91.758 97.420,90.499 92.137,90.499 C91.000,90.499 89.906,90.593 88.868,90.766 C92.378,91.357 94.866,93.087 94.866,97.289 C94.866,97.289 94.866,135.040 94.866,135.040 C105.102,138.933 112.381,148.735 112.381,160.247 C112.381,174.015 101.975,185.356 88.533,187.030 C89.658,187.169 90.796,187.265 91.959,187.265 C107.022,187.265 119.233,175.168 119.233,160.247 C119.233,148.735 111.954,138.933 101.718,135.040 Z" id="path-10" class="cls-12" fill-rule="evenodd"/>
    <path d="M87.532,167.467 C87.532,170.749 84.848,173.406 81.536,173.406 C78.225,173.406 75.541,170.749 75.541,167.467 C75.541,164.186 78.225,161.528 81.536,161.528 C84.848,161.528 87.532,164.186 87.532,167.467 Z" id="path-11" class="cls-13" fill-rule="evenodd"/>
    <path d="M91.861,130.771 C89.852,130.771 88.222,129.157 88.222,127.167 C88.222,127.167 88.222,26.624 88.222,26.624 C88.222,24.633 89.852,23.018 91.861,23.018 C93.871,23.018 95.500,24.633 95.500,26.624 C95.500,26.624 95.500,127.167 95.500,127.167 C95.500,129.157 93.871,130.771 91.861,130.771 Z" id="path-12" class="cls-13" fill-rule="evenodd"/>
  </g>
</svg>
