<svg xmlns="http://www.w3.org/2000/svg" xmlns:xlink="http://www.w3.org/1999/xlink" preserveAspectRatio="xMidYMid" width="222" height="201" viewBox="0 0 222 201">
  <defs>
    <style>

      .cls-3 {
        fill: #ff3a2f;
      }

      .cls-4 {
        fill: #020403;
        opacity: 0.35;
      }

      .cls-5 {
        fill: #142a3b;
      }

      .cls-6 {
        fill: #ffe56d;
      }

      .cls-11 {
        fill: #2476ff;
      }
    </style>
  </defs>
  <g id="group-75svg">
    <path d="M206.196,174.801 C206.196,174.801 20.919,174.801 20.919,174.801 C20.919,174.801 20.919,57.277 20.919,57.277 C20.919,57.277 206.196,57.277 206.196,57.277 C206.196,57.277 206.196,174.801 206.196,174.801 Z" id="path-1" class="cls-3" fill-rule="evenodd"/>
    <path d="M206.196,163.987 C206.196,163.987 20.920,163.987 20.920,163.987 C20.920,163.987 20.920,174.801 20.920,174.801 C20.920,174.801 206.196,174.801 206.196,174.801 C206.196,174.801 206.196,163.987 206.196,163.987 Z" id="path-2" class="cls-4" fill-rule="evenodd"/>
    <path d="M171.000,152.475 C171.000,152.475 56.114,152.475 56.114,152.475 C56.114,152.475 56.114,79.602 56.114,79.602 C56.114,79.602 171.000,79.602 171.000,79.602 C171.000,79.602 171.000,152.475 171.000,152.475 Z" id="path-3" class="cls-5" fill-rule="evenodd"/>
    <path d="M100.732,132.261 C100.732,132.261 87.141,126.365 100.732,104.390 C100.732,104.390 102.017,112.966 104.653,115.109 C104.653,115.109 108.649,104.390 113.649,104.390 C113.649,104.390 117.145,105.462 114.111,95.815 C114.111,95.815 118.139,97.959 119.748,105.998 C119.748,105.998 120.844,108.678 119.748,114.037 C119.748,114.037 126.939,110.823 126.854,101.710 C126.854,101.710 139.385,117.790 126.855,132.261 C118.694,137.559 109.995,137.638 100.732,132.261 Z" id="path-4" class="cls-6" fill-rule="evenodd"/>
    <path d="M105.844,136.611 C105.844,136.611 97.670,133.064 105.844,119.848 C105.844,119.848 106.616,125.006 108.202,126.295 C108.202,126.295 110.605,119.848 113.613,119.848 C113.613,119.848 115.716,120.492 113.890,114.689 C113.890,114.689 116.313,115.979 117.281,120.815 C117.281,120.815 117.940,122.426 117.281,125.650 C117.281,125.650 121.606,123.716 121.554,118.235 C121.554,118.235 129.091,127.907 121.554,136.611 C116.647,139.796 111.414,139.844 105.844,136.611 Z" id="path-5" class="cls-3" fill-rule="evenodd"/>
    <path d="M206.196,35.414 C206.196,35.414 56.114,35.414 56.114,35.414 C56.114,35.414 56.114,27.960 56.114,27.960 C56.114,27.960 206.196,27.960 206.196,27.960 C206.196,27.960 206.196,35.414 206.196,35.414 Z" id="path-6" class="cls-5" fill-rule="evenodd"/>
    <path d="M58.446,25.345 C49.623,22.387 39.562,19.505 33.819,19.505 C22.005,19.505 12.427,24.960 12.427,31.688 C12.427,38.415 22.005,43.868 33.819,43.868 C39.562,43.868 49.623,40.987 58.446,38.028 C58.446,38.028 58.446,25.345 58.446,25.345 Z" id="path-7" class="cls-3" fill-rule="evenodd"/>
    <path d="M13.381,28.081 C12.764,29.222 12.427,30.431 12.427,31.688 C12.427,38.415 22.005,43.868 33.819,43.868 C39.562,43.868 49.623,40.987 58.446,38.028 C58.446,38.028 58.446,30.818 58.446,30.818 C49.623,33.778 39.562,36.659 33.819,36.659 C24.208,36.659 16.080,33.049 13.381,28.081 Z" id="path-8" class="cls-4" fill-rule="evenodd"/>
    <path d="M182.787,0.012 C182.787,0.012 191.577,0.012 191.577,0.012 C193.273,0.012 194.648,0.768 194.648,1.701 C194.648,2.634 193.273,3.389 191.577,3.389 C191.577,3.389 191.168,3.389 191.168,3.389 C189.474,3.389 188.099,4.146 188.099,5.080 C188.099,6.011 189.474,6.768 191.168,6.768 C191.168,6.768 203.973,6.768 203.973,6.768 C205.668,6.768 207.042,7.524 207.042,8.458 C207.042,9.391 205.668,10.147 203.973,10.147 C203.973,10.147 187.356,10.147 187.356,10.147 C187.356,10.147 162.394,10.147 162.394,10.147 C160.698,10.147 159.324,9.391 159.324,8.458 C159.324,7.524 160.698,6.768 162.394,6.768 C162.394,6.768 167.639,6.768 167.639,6.768 C169.333,6.768 170.708,6.011 170.708,5.080 C170.708,4.146 169.333,3.389 167.639,3.389 C167.639,3.389 142.676,3.389 142.676,3.389 C140.981,3.389 139.607,2.634 139.607,1.701 C139.607,0.768 140.981,0.012 142.676,0.012 C142.676,0.012 148.575,0.012 148.575,0.012 C148.575,0.012 182.787,0.012 182.787,0.012 Z" id="path-9" class="cls-11" fill-rule="evenodd"/>
    <path d="M211.159,188.711 C211.159,188.711 214.985,188.711 214.985,188.711 C215.722,188.711 216.320,189.467 216.320,190.400 C216.320,191.333 215.722,192.090 214.985,192.090 C214.985,192.090 214.806,192.090 214.806,192.090 C214.069,192.090 213.471,192.845 213.471,193.778 C213.471,194.711 214.069,195.467 214.806,195.467 C214.806,195.467 220.378,195.467 220.378,195.467 C221.116,195.467 221.715,196.224 221.715,197.157 C221.715,198.089 221.116,198.845 220.378,198.845 C220.378,198.845 213.148,198.845 213.148,198.845 C213.148,198.845 202.286,198.845 202.286,198.845 C201.548,198.845 200.950,198.089 200.950,197.157 C200.950,196.224 201.548,195.467 202.286,195.467 C202.286,195.467 204.568,195.467 204.568,195.467 C205.306,195.467 205.904,194.711 205.904,193.778 C205.904,192.845 205.306,192.090 204.568,192.090 C204.568,192.090 193.706,192.090 193.706,192.090 C192.968,192.090 192.370,191.333 192.370,190.400 C192.370,189.467 192.968,188.711 193.706,188.711 C193.706,188.711 196.273,188.711 196.273,188.711 C196.273,188.711 211.159,188.711 211.159,188.711 Z" id="path-10" class="cls-11" fill-rule="evenodd"/>
    <path d="M61.114,186.991 C61.114,186.991 73.557,186.991 73.557,186.991 C75.955,186.991 77.900,188.003 77.900,189.252 C77.900,190.501 75.955,191.514 73.557,191.514 C73.557,191.514 72.978,191.514 72.978,191.514 C70.579,191.514 68.633,192.527 68.633,193.776 C68.633,195.025 70.579,196.038 72.978,196.038 C72.978,196.038 91.100,196.038 91.100,196.038 C93.498,196.038 95.442,197.050 95.442,198.300 C95.442,199.549 93.498,200.562 91.100,200.562 C91.100,200.562 67.582,200.562 67.582,200.562 C67.582,200.562 32.252,200.562 32.252,200.562 C29.854,200.562 27.909,199.549 27.909,198.300 C27.909,197.050 29.854,196.038 32.252,196.038 C32.252,196.038 39.676,196.038 39.676,196.038 C42.075,196.038 44.019,195.025 44.019,193.776 C44.019,192.527 42.075,191.514 39.676,191.514 C39.676,191.514 4.348,191.514 4.348,191.514 C1.949,191.514 0.005,190.501 0.005,189.252 C0.005,188.003 1.949,186.991 4.348,186.991 C4.348,186.991 12.697,186.991 12.697,186.991 C12.697,186.991 61.114,186.991 61.114,186.991 Z" id="path-11" class="cls-11" fill-rule="evenodd"/>
    <path d="M145.344,11.354 C146.754,11.354 147.898,10.725 147.898,9.948 C147.898,9.172 146.754,8.542 145.344,8.542 C145.344,8.542 137.513,8.542 137.513,8.542 C136.102,8.542 134.958,9.172 134.958,9.948 C134.958,10.725 136.102,11.354 137.513,11.354 C137.513,11.354 145.344,11.354 145.344,11.354 Z" id="path-12" class="cls-11" fill-rule="evenodd"/>
  </g>
</svg>
