<svg xmlns="http://www.w3.org/2000/svg" xmlns:xlink="http://www.w3.org/1999/xlink" preserveAspectRatio="xMidYMid" width="219" height="209" viewBox="0 0 219 209">
  <defs>
    <style>

      .cls-3 {
        fill: #ff3a2f;
      }

      .cls-4 {
        fill: #0cb04a;
      }

      .cls-5 {
        fill: #010101;
        opacity: 0.35;
      }

      .cls-8 {
        fill: #010101;
        opacity: 0.25;
      }

      .cls-10 {
        fill: #020403;
        opacity: 0.25;
      }

      .cls-11 {
        fill: #ffffff;
      }

      .cls-12 {
        fill: #142a3b;
      }
    </style>
  </defs>
  <g id="group-76svg">
    <path d="M161.118,35.148 C150.249,30.104 133.933,25.943 116.898,34.007 C99.862,25.943 83.547,30.104 72.678,35.148 C44.754,49.146 25.852,75.978 25.852,106.796 C25.852,152.059 66.615,188.756 116.898,188.756 C167.180,188.756 207.944,152.059 207.944,106.796 C207.944,75.978 189.042,49.146 161.118,35.148 Z" id="path-1" class="cls-3" fill-rule="evenodd"/>
    <path d="M161.118,35.147 C150.249,30.104 133.933,25.943 116.898,34.007 C99.862,25.943 83.547,30.104 72.678,35.147 C59.060,41.974 47.612,51.869 39.431,63.776 C40.006,63.505 62.229,53.082 77.609,54.239 C77.609,54.239 94.753,53.550 89.913,71.464 C89.852,71.679 90.088,71.773 90.269,71.602 C99.760,62.474 110.071,56.358 116.898,56.358 C123.725,56.358 134.036,62.474 143.530,71.602 C143.708,71.773 143.943,71.679 143.883,71.464 C139.043,53.550 156.185,54.239 156.185,54.239 C171.567,53.082 193.790,63.505 194.365,63.776 C186.184,51.869 174.736,41.974 161.118,35.147 Z" id="path-2" class="cls-4" fill-rule="evenodd"/>
    <path d="M77.609,54.239 C70.122,53.675 61.028,55.858 53.583,58.277 C50.993,61.117 48.594,64.108 46.437,67.247 C47.012,66.975 69.236,56.551 84.616,57.708 C84.616,57.708 86.080,57.664 88.015,58.020 C84.156,53.987 77.609,54.239 77.609,54.239 Z" id="path-3" class="cls-5" fill-rule="evenodd"/>
    <path d="M194.365,63.776 C193.790,63.505 171.566,53.081 156.185,54.239 C156.185,54.239 140.816,53.648 143.333,68.843 C145.741,70.699 148.164,72.790 150.536,75.072 C150.713,75.243 150.950,75.150 150.889,74.933 C146.049,57.021 163.192,57.708 163.192,57.708 C173.541,56.930 188.043,62.455 195.720,65.759 C195.720,65.759 194.365,63.776 194.365,63.776 C194.365,63.776 194.365,63.776 194.365,63.776 Z" id="path-4" class="cls-5" fill-rule="evenodd"/>
    <path d="M116.898,56.358 C111.729,56.358 104.564,59.871 97.268,65.537 C97.946,67.897 98.001,70.930 96.919,74.933 C96.858,75.150 97.093,75.243 97.274,75.072 C106.766,65.945 117.078,59.828 123.905,59.828 C125.757,59.828 127.881,60.312 130.161,61.151 C125.187,58.140 120.541,56.358 116.898,56.358 Z" id="path-5" class="cls-5" fill-rule="evenodd"/>
    <path d="M161.118,35.147 C155.265,32.432 147.826,29.991 139.552,29.558 C159.902,44.587 172.914,67.368 172.914,92.914 C172.914,138.177 132.151,174.875 81.868,174.875 C75.608,174.875 69.498,174.304 63.592,173.221 C78.580,182.984 96.985,188.756 116.898,188.756 C167.181,188.756 207.944,152.058 207.944,106.796 C207.944,75.978 189.042,49.146 161.118,35.147 Z" id="path-6" class="cls-8" fill-rule="evenodd"/>
    <path d="M116.920,41.778 C115.766,15.977 137.287,-0.006 137.287,-0.006 C137.287,-0.006 137.250,-0.006 137.250,-0.006 C137.250,-0.006 96.508,-0.006 96.508,-0.006 C96.508,-0.006 118.038,15.977 116.878,41.778 C116.878,41.778 116.878,41.778 116.878,41.778 " id="path-7" class="cls-4" fill-rule="evenodd"/>
    <path d="M137.250,-0.006 C137.250,-0.006 96.510,-0.006 96.510,-0.006 C96.510,-0.006 99.785,2.448 103.706,6.935 C103.706,6.935 126.740,6.935 126.740,6.935 C126.740,6.935 126.777,6.935 126.777,6.935 C126.777,6.935 119.293,12.539 113.387,22.409 C115.689,27.997 117.206,34.477 116.878,41.777 C116.878,41.777 116.920,41.777 116.920,41.777 C115.766,15.977 137.287,-0.006 137.287,-0.006 C137.287,-0.006 137.250,-0.006 137.250,-0.006 Z" id="path-8" class="cls-10" fill-rule="evenodd"/>
    <path d="M55.893,146.664 C54.450,146.664 53.011,146.101 51.938,144.983 C50.904,143.905 26.767,118.168 41.586,81.966 C42.720,79.199 45.900,77.866 48.693,78.987 C51.487,80.109 52.833,83.263 51.701,86.030 C39.500,115.841 59.641,137.317 59.849,137.531 C61.927,139.694 61.838,143.118 59.652,145.175 C58.597,146.171 57.243,146.664 55.893,146.664 Z" id="path-9" class="cls-11" fill-rule="evenodd"/>
    <path d="M73.123,182.346 C73.123,182.346 51.943,182.346 51.943,182.346 C47.860,182.346 44.549,184.292 44.549,186.692 C44.549,189.092 47.860,191.038 51.943,191.038 C51.943,191.038 52.929,191.038 52.929,191.038 C57.013,191.038 60.323,192.982 60.323,195.382 C60.323,197.783 57.013,199.728 52.929,199.728 C52.929,199.728 7.399,199.728 7.399,199.728 C3.316,199.728 0.005,201.674 0.005,204.074 C0.005,206.474 3.316,208.418 7.399,208.418 C7.399,208.418 62.114,208.418 62.114,208.418 C62.114,208.418 173.951,208.418 173.951,208.418 C178.035,208.418 181.345,206.474 181.345,204.074 C181.345,201.674 178.035,199.728 173.951,199.728 C173.951,199.728 161.315,199.728 161.315,199.728 C157.232,199.728 153.921,197.783 153.921,195.382 C153.921,192.982 157.232,191.038 161.315,191.038 C161.315,191.038 210.945,191.038 210.945,191.038 C215.027,191.038 218.338,189.092 218.338,186.692 C218.338,184.292 215.027,182.346 210.945,182.346 C210.945,182.346 207.240,182.346 207.240,182.346 C207.240,182.346 73.123,182.346 73.123,182.346 Z" id="path-10" class="cls-12" fill-rule="evenodd"/>
    <path d="M8.402,162.126 C4.979,162.126 2.203,160.770 2.203,159.098 C2.203,157.424 4.979,156.068 8.402,156.068 C8.402,156.068 27.398,156.068 27.398,156.068 C30.822,156.068 33.597,157.424 33.597,159.098 C33.597,160.770 30.822,162.126 27.398,162.126 C27.398,162.126 8.402,162.126 8.402,162.126 Z" id="path-11" class="cls-12" fill-rule="evenodd"/>
  </g>
</svg>
