<svg xmlns="http://www.w3.org/2000/svg" xmlns:xlink="http://www.w3.org/1999/xlink" preserveAspectRatio="xMidYMid" width="221" height="172" viewBox="0 0 221 172">
  <defs>
    <style>

      .cls-3 {
        fill: #ff3a2f;
      }

      .cls-4 {
        fill: #ffffff;
      }

      .cls-5 {
        fill: #020403;
        opacity: 0.35;
      }

      .cls-11 {
        fill: #fbb713;
      }
    </style>
  </defs>
  <g id="group-98svg">
    <path d="M17.556,118.157 C17.556,118.157 22.345,149.844 53.931,145.119 C85.514,140.388 172.134,117.685 192.711,47.686 C199.890,14.099 159.695,8.424 147.251,20.960 C134.810,33.491 122.157,57.875 103.221,68.494 C82.341,80.203 11.098,84.576 17.556,118.157 Z" id="path-1" class="cls-3" fill-rule="evenodd"/>
    <path d="M25.914,124.522 C24.201,124.522 22.674,123.318 22.343,121.592 C18.044,99.247 47.491,91.363 71.153,85.029 C80.051,82.646 88.455,80.398 92.988,77.854 C94.740,76.875 96.961,77.484 97.947,79.217 C98.936,80.949 98.322,83.148 96.573,84.130 C91.240,87.119 82.812,89.376 73.052,91.989 C52.292,97.547 26.456,104.464 29.492,120.241 C29.869,122.196 28.572,124.084 26.598,124.457 C26.369,124.501 26.140,124.522 25.914,124.522 Z" id="path-2" class="cls-4" fill-rule="evenodd"/>
    <path d="M165.525,14.854 C174.386,19.627 180.486,29.014 177.310,43.871 C156.733,113.871 70.114,136.573 38.531,141.304 C36.566,141.599 34.706,141.750 32.944,141.779 C38.109,144.792 44.894,146.471 53.931,145.119 C85.514,140.388 172.134,117.685 192.711,47.686 C197.565,24.976 180.765,15.042 165.525,14.854 Z" id="path-3" class="cls-5" fill-rule="evenodd"/>
    <path d="M176.320,16.664 C176.320,16.664 169.318,-0.006 169.318,-0.006 C169.318,-0.006 180.574,5.555 180.574,5.555 C180.574,5.555 193.562,3.662 193.562,3.662 C193.562,3.662 200.141,9.979 200.141,9.979 C200.141,9.979 177.310,17.015 177.310,17.015 C177.310,17.015 176.320,16.664 176.320,16.664 Z" id="path-4" class="cls-3" fill-rule="evenodd"/>
    <path d="M172.874,5.555 C172.874,5.555 178.820,4.688 178.820,4.688 C178.820,4.688 169.318,-0.006 169.318,-0.006 C169.318,-0.006 171.335,4.794 171.335,4.794 C171.335,4.794 172.874,5.555 172.874,5.555 Z" id="path-5" class="cls-5" fill-rule="evenodd"/>
    <path d="M193.562,3.662 C193.562,3.662 186.877,4.636 186.877,4.636 C186.877,4.636 192.440,9.979 192.440,9.979 C192.440,9.979 175.682,15.143 175.682,15.143 C175.682,15.143 176.320,16.664 176.320,16.664 C176.320,16.664 177.310,17.015 177.310,17.015 C177.310,17.015 200.141,9.979 200.141,9.979 C200.141,9.979 193.562,3.662 193.562,3.662 Z" id="path-6" class="cls-5" fill-rule="evenodd"/>
    <path d="M20.149,128.957 C20.149,128.957 9.284,143.462 9.284,143.462 C9.284,143.462 8.325,131.057 8.325,131.057 C8.325,131.057 0.002,121.026 0.002,121.026 C0.002,121.026 2.107,112.198 2.107,112.198 C2.107,112.198 19.950,127.935 19.950,127.935 C19.950,127.935 20.149,128.957 20.149,128.957 Z" id="path-7" class="cls-3" fill-rule="evenodd"/>
    <path d="M18.811,126.930 C18.811,126.930 9.284,139.648 9.284,139.648 C9.284,139.648 8.325,127.243 8.325,127.243 C8.325,127.243 0.709,118.062 0.709,118.062 C0.709,118.062 0.002,121.026 0.002,121.026 C0.002,121.026 8.325,131.057 8.325,131.057 C8.325,131.057 9.284,143.462 9.284,143.462 C9.284,143.462 20.149,128.957 20.149,128.957 C20.149,128.957 19.950,127.935 19.950,127.935 C19.950,127.935 18.811,126.930 18.811,126.930 Z" id="path-8" class="cls-5" fill-rule="evenodd"/>
    <path d="M83.183,154.873 C83.183,154.873 98.974,154.873 98.974,154.873 C102.018,154.873 104.486,155.971 104.486,157.326 C104.486,158.679 102.018,159.776 98.974,159.776 C98.974,159.776 98.239,159.776 98.239,159.776 C95.194,159.776 92.726,160.874 92.726,162.229 C92.726,163.583 95.194,164.681 98.239,164.681 C98.239,164.681 132.183,164.681 132.183,164.681 C135.227,164.681 137.695,165.778 137.695,167.133 C137.695,168.488 135.227,169.585 132.183,169.585 C132.183,169.585 91.391,169.585 91.391,169.585 C91.391,169.585 46.555,169.585 46.555,169.585 C43.511,169.585 41.043,168.488 41.043,167.133 C41.043,165.778 43.511,164.681 46.555,164.681 C46.555,164.681 55.977,164.681 55.977,164.681 C59.021,164.681 61.489,163.583 61.489,162.229 C61.489,160.874 59.021,159.776 55.977,159.776 C55.977,159.776 11.141,159.776 11.141,159.776 C8.097,159.776 5.629,158.679 5.629,157.326 C5.629,155.971 8.097,154.873 11.141,154.873 C11.141,154.873 21.738,154.873 21.738,154.873 C21.738,154.873 83.183,154.873 83.183,154.873 Z" id="path-9" class="cls-11" fill-rule="evenodd"/>
    <path d="M180.914,171.707 C184.391,171.707 187.209,170.453 187.209,168.907 C187.209,167.361 184.391,166.108 180.914,166.108 C180.914,166.108 161.627,166.108 161.627,166.108 C158.150,166.108 155.333,167.361 155.333,168.907 C155.333,170.453 158.150,171.707 161.627,171.707 C161.627,171.707 180.914,171.707 180.914,171.707 Z" id="path-10" class="cls-11" fill-rule="evenodd"/>
    <path d="M195.846,132.846 C195.846,132.846 203.097,132.846 203.097,132.846 C204.495,132.846 205.628,133.470 205.628,134.239 C205.628,135.006 204.495,135.629 203.097,135.629 C203.097,135.629 202.759,135.629 202.759,135.629 C201.362,135.629 200.228,136.252 200.228,137.020 C200.228,137.788 201.362,138.412 202.759,138.412 C202.759,138.412 218.346,138.412 218.346,138.412 C219.744,138.412 220.877,139.033 220.877,139.803 C220.877,140.570 219.744,141.193 218.346,141.193 C218.346,141.193 199.615,141.193 199.615,141.193 C199.615,141.193 161.329,141.193 161.329,141.193 C159.931,141.193 158.797,140.570 158.797,139.803 C158.797,139.033 159.931,138.412 161.329,138.412 C161.329,138.412 165.655,138.412 165.655,138.412 C167.053,138.412 168.186,137.788 168.186,137.020 C168.186,136.252 167.053,135.629 165.655,135.629 C165.655,135.629 145.067,135.629 145.067,135.629 C143.669,135.629 142.536,135.006 142.536,134.239 C142.536,133.470 143.669,132.846 145.067,132.846 C145.067,132.846 149.933,132.846 149.933,132.846 C149.933,132.846 195.846,132.846 195.846,132.846 Z" id="path-11" class="cls-11" fill-rule="evenodd"/>
    <path d="M140.858,142.698 C143.466,142.698 145.580,142.183 145.580,141.547 C145.580,140.911 143.466,140.395 140.858,140.395 C140.858,140.395 126.386,140.395 126.386,140.395 C123.778,140.395 121.664,140.911 121.664,141.547 C121.664,142.183 123.778,142.698 126.386,142.698 C126.386,142.698 140.858,142.698 140.858,142.698 Z" id="path-12" class="cls-11" fill-rule="evenodd"/>
  </g>
</svg>
