<svg xmlns="http://www.w3.org/2000/svg" xmlns:xlink="http://www.w3.org/1999/xlink" preserveAspectRatio="xMidYMid" width="219" height="181" viewBox="0 0 219 181">
  <defs>
    <style>

      .cls-3 {
        fill: #040404;
      }

      .cls-4 {
        fill: #142a3b;
      }

      .cls-6 {
        fill: #fbb713;
      }

      .cls-7 {
        fill: #ffffff;
      }

      .cls-9 {
        fill: #0cb04a;
      }

      .cls-10 {
        fill: #020403;
        opacity: 0.35;
      }

      .cls-12 {
        fill: #020403;
      }
    </style>
  </defs>
  <g id="group-112svg">
    <path d="M202.991,18.352 C200.674,18.352 198.790,16.488 198.790,14.193 C198.790,11.897 200.674,10.030 202.991,10.030 C205.308,10.030 207.191,11.897 207.191,14.193 C207.191,16.488 205.308,18.352 202.991,18.352 ZM202.991,12.498 C202.048,12.498 201.282,13.258 201.282,14.193 C201.282,15.126 202.048,15.886 202.991,15.886 C203.935,15.886 204.700,15.126 204.700,14.193 C204.700,13.258 203.935,12.498 202.991,12.498 Z" id="path-1" class="cls-3" fill-rule="evenodd"/>
    <path d="M61.389,158.340 C61.389,158.340 43.604,158.340 43.604,158.340 C40.175,158.340 37.396,159.917 37.396,161.862 C37.396,163.808 40.175,165.385 43.604,165.385 C43.604,165.385 44.432,165.385 44.432,165.385 C47.861,165.385 50.641,166.959 50.641,168.906 C50.641,170.851 47.861,172.428 44.432,172.428 C44.432,172.428 6.201,172.428 6.201,172.428 C2.772,172.428 -0.007,174.004 -0.007,175.950 C-0.007,177.894 2.772,179.472 6.201,179.472 C6.201,179.472 52.146,179.472 52.146,179.472 C52.146,179.472 146.054,179.472 146.054,179.472 C149.483,179.472 152.263,177.894 152.263,175.950 C152.263,174.004 149.483,172.428 146.054,172.428 C146.054,172.428 135.444,172.428 135.444,172.428 C132.015,172.428 129.235,170.851 129.235,168.906 C129.235,166.959 132.015,165.385 135.444,165.385 C135.444,165.385 177.117,165.385 177.117,165.385 C180.546,165.385 183.326,163.808 183.326,161.862 C183.326,159.917 180.546,158.340 177.117,158.340 C177.117,158.340 174.006,158.340 174.006,158.340 C174.006,158.340 61.389,158.340 61.389,158.340 Z" id="path-2" class="cls-4" fill-rule="evenodd"/>
    <path d="M181.493,180.415 C178.619,180.415 176.288,178.725 176.288,176.641 C176.288,174.556 178.619,172.866 181.493,172.866 C181.493,172.866 197.445,172.866 197.445,172.866 C200.320,172.866 202.650,174.556 202.650,176.641 C202.650,178.725 200.320,180.415 197.445,180.415 C197.445,180.415 181.493,180.415 181.493,180.415 Z" id="path-3" class="cls-4" fill-rule="evenodd"/>
    <path d="M129.403,128.134 C129.403,150.045 111.472,167.807 89.355,167.807 C67.237,167.807 49.308,150.045 49.308,128.134 C49.308,106.224 67.237,88.461 89.355,88.461 C111.472,88.461 129.403,106.224 129.403,128.134 Z" id="path-4" class="cls-6" fill-rule="evenodd"/>
    <path d="M60.131,134.297 C58.122,134.297 56.492,132.683 56.492,130.692 C56.492,111.377 72.356,95.663 91.852,95.663 C93.862,95.663 95.491,97.276 95.491,99.267 C95.491,101.258 93.862,102.872 91.852,102.872 C76.367,102.872 63.770,115.353 63.770,130.692 C63.770,132.683 62.141,134.297 60.131,134.297 Z" id="path-5" class="cls-7" fill-rule="evenodd"/>
    <circle id="circle-1" class="cls-6" cx="92" cy="127" r="3"/>
    <path d="M200.293,1.534 C187.916,9.143 153.538,36.565 137.852,58.747 C134.356,63.695 118.538,78.144 118.538,78.144 C118.538,78.144 140.262,96.501 140.190,96.128 C139.722,93.675 138.948,86.380 146.742,78.681 C155.731,69.804 178.425,37.083 204.637,28.632 C230.848,20.183 213.722,-6.722 200.293,1.534 Z" id="path-6" class="cls-9" fill-rule="evenodd"/>
    <path d="M212.152,2.198 C217.140,9.029 216.714,20.366 201.307,25.334 C175.094,33.782 152.400,66.505 143.412,75.383 C135.619,83.080 135.720,83.939 136.188,86.391 C136.242,86.669 127.799,80.461 121.630,75.265 C121.464,75.416 120.942,75.876 120.942,75.876 C120.942,75.876 140.262,96.501 140.190,96.128 C139.722,93.675 138.948,86.380 146.742,78.682 C155.731,69.804 178.425,37.083 204.637,28.632 C222.945,22.730 220.102,7.837 212.152,2.198 Z" id="path-7" class="cls-10" fill-rule="evenodd"/>
    <path d="M92.312,88.610 C106.310,94.794 116.081,108.671 116.081,124.835 C116.081,146.746 98.151,164.509 76.034,164.509 C75.036,164.509 74.057,164.432 73.076,164.360 C78.054,166.559 83.553,167.807 89.355,167.807 C111.472,167.807 129.403,150.045 129.403,128.134 C129.403,107.213 113.044,90.114 92.312,88.610 Z" id="path-8" class="cls-10" fill-rule="evenodd"/>
    <path d="M96.522,139.439 C91.463,139.439 87.348,135.351 87.348,130.325 C87.348,125.305 91.463,121.223 96.522,121.223 C97.794,121.223 99.027,121.483 100.157,121.968 C100.157,121.968 114.986,97.434 114.986,97.434 C114.986,97.434 118.285,100.660 118.285,100.660 C121.857,104.153 124.631,108.264 126.532,112.876 C126.532,112.876 127.669,115.633 127.669,115.633 C127.669,115.633 105.677,129.812 105.677,129.812 C105.687,129.983 105.691,130.153 105.691,130.325 C105.691,135.351 101.578,139.439 96.522,139.439 ZM96.522,128.433 C95.477,128.433 94.626,129.282 94.626,130.325 C94.626,131.375 95.477,132.230 96.522,132.230 C97.565,132.230 98.414,131.375 98.414,130.325 C98.414,130.070 98.361,129.816 98.254,129.572 C98.254,129.572 98.103,129.298 98.103,129.298 C97.748,128.757 97.156,128.433 96.522,128.433 ZM116.271,109.346 C116.271,109.346 111.283,117.596 111.283,117.596 C111.283,117.596 118.530,112.923 118.530,112.923 C117.864,111.675 117.110,110.481 116.271,109.346 Z" id="path-9" class="cls-12" fill-rule="evenodd"/>
    <circle id="circle-2" class="cls-4" cx="91" cy="126" r="7"/>
    <path d="M92.869,128.209 C92.869,128.209 87.979,124.090 87.979,124.090 C87.979,124.090 118.671,73.320 118.671,73.320 C118.671,73.320 142.592,96.149 142.592,96.149 C142.592,96.149 92.869,128.209 92.869,128.209 ZM120.213,84.801 C120.213,84.801 103.199,112.946 103.199,112.946 C103.199,112.946 130.954,95.053 130.954,95.053 C130.954,95.053 120.213,84.801 120.213,84.801 Z" id="path-10" class="cls-4" fill-rule="evenodd"/>
  </g>
</svg>
