<svg xmlns="http://www.w3.org/2000/svg" xmlns:xlink="http://www.w3.org/1999/xlink" preserveAspectRatio="xMidYMid" width="215" height="217" viewBox="0 0 215 217">
  <defs>
    <style>

      .cls-3 {
        fill: #0cb04a;
      }

      .cls-7 {
        fill: #ddc100;
      }

      .cls-15 {
        fill: #ededed;
      }

      .cls-17 {
        fill: #ff3a2f;
      }

      .cls-18 {
        fill: #020403;
        opacity: 0.25;
      }

      .cls-20 {
        fill: #020403;
        opacity: 0.35;
      }
    </style>
  </defs>
  <g id="group-95svg">
    <path d="M111.281,199.219 C111.281,199.219 100.593,199.219 100.593,199.219 C98.533,199.219 96.862,200.481 96.862,202.037 C96.862,203.594 98.533,204.857 100.593,204.857 C100.593,204.857 101.091,204.857 101.091,204.857 C103.151,204.857 104.822,206.118 104.822,207.675 C104.822,209.233 103.151,210.494 101.091,210.494 C101.091,210.494 78.116,210.494 78.116,210.494 C76.055,210.494 74.385,211.756 74.385,213.314 C74.385,214.870 76.055,216.131 78.116,216.131 C78.116,216.131 105.726,216.131 105.726,216.131 C105.726,216.131 162.160,216.131 162.160,216.131 C164.221,216.131 165.892,214.870 165.892,213.314 C165.892,211.756 164.221,210.494 162.160,210.494 C162.160,210.494 155.784,210.494 155.784,210.494 C153.723,210.494 152.052,209.233 152.052,207.675 C152.052,206.118 153.723,204.857 155.784,204.857 C155.784,204.857 186.131,204.857 186.131,204.857 C188.191,204.857 189.861,203.594 189.861,202.037 C189.861,200.481 188.191,199.219 186.131,199.219 C186.131,199.219 178.958,199.219 178.958,199.219 C178.958,199.219 111.281,199.219 111.281,199.219 Z" id="path-1" class="cls-3" fill-rule="evenodd"/>
    <path d="M56.507,139.532 C56.507,139.532 50.522,139.532 50.522,139.532 C49.367,139.532 48.432,140.794 48.432,142.350 C48.432,143.907 49.367,145.168 50.522,145.168 C50.522,145.168 50.800,145.168 50.800,145.168 C51.954,145.168 52.890,146.431 52.890,147.988 C52.890,149.545 51.954,150.807 50.800,150.807 C50.800,150.807 37.932,150.807 37.932,150.807 C36.778,150.807 35.842,152.069 35.842,153.626 C35.842,155.183 36.778,156.446 37.932,156.446 C37.932,156.446 53.396,156.446 53.396,156.446 C53.396,156.446 85.004,156.446 85.004,156.446 C86.158,156.446 87.094,155.183 87.094,153.626 C87.094,152.069 86.158,150.807 85.004,150.807 C85.004,150.807 81.433,150.807 81.433,150.807 C80.278,150.807 79.343,149.545 79.343,147.988 C79.343,146.431 80.278,145.168 81.433,145.168 C81.433,145.168 98.429,145.168 98.429,145.168 C99.583,145.168 100.519,143.907 100.519,142.350 C100.519,140.794 99.583,139.532 98.429,139.532 C98.429,139.532 94.412,139.532 94.412,139.532 C94.412,139.532 56.507,139.532 56.507,139.532 Z" id="path-2" class="cls-3" fill-rule="evenodd"/>
    <path d="M186.241,216.284 C183.691,216.284 181.624,215.405 181.624,214.318 C181.624,213.234 183.691,212.354 186.241,212.354 C186.241,212.354 200.388,212.354 200.388,212.354 C202.938,212.354 205.005,213.234 205.005,214.318 C205.005,215.405 202.938,216.284 200.388,216.284 C200.388,216.284 186.241,216.284 186.241,216.284 Z" id="path-3" class="cls-3" fill-rule="evenodd"/>
    <path d="M22.811,216.284 C20.261,216.284 18.194,215.405 18.194,214.318 C18.194,213.234 20.261,212.354 22.811,212.354 C22.811,212.354 36.958,212.354 36.958,212.354 C39.508,212.354 41.575,213.234 41.575,214.318 C41.575,215.405 39.508,216.284 36.958,216.284 C36.958,216.284 22.811,216.284 22.811,216.284 Z" id="path-4" class="cls-3" fill-rule="evenodd"/>
    <path d="M174.016,79.526 C174.016,79.526 173.249,81.438 173.249,81.438 C173.102,81.806 173.438,82.285 174.002,82.506 C174.566,82.728 175.143,82.608 175.291,82.241 C175.291,82.241 175.326,82.151 175.326,82.151 C175.473,81.782 176.050,81.664 176.614,81.885 C177.177,82.108 177.515,82.585 177.367,82.954 C177.367,82.954 175.720,87.064 175.720,87.064 C175.572,87.432 175.909,87.911 176.472,88.132 C177.036,88.354 177.613,88.235 177.760,87.866 C177.760,87.866 179.740,82.928 179.740,82.928 C179.740,82.928 183.786,72.834 183.786,72.834 C183.935,72.465 183.597,71.986 183.034,71.765 C182.470,71.543 181.893,71.662 181.746,72.031 C181.746,72.031 181.289,73.171 181.289,73.171 C181.141,73.540 180.564,73.659 180.000,73.437 C179.437,73.215 179.100,72.737 179.248,72.368 C179.248,72.368 181.423,66.941 181.423,66.941 C181.571,66.572 181.234,66.094 180.670,65.872 C180.107,65.650 179.530,65.769 179.382,66.137 C179.382,66.137 178.868,67.420 178.868,67.420 C178.868,67.420 174.016,79.526 174.016,79.526 Z" id="path-5" class="cls-7" fill-rule="evenodd"/>
    <path d="M169.075,101.240 C168.391,102.949 166.936,103.980 165.828,103.545 C164.718,103.108 164.375,101.369 165.060,99.660 C165.060,99.660 168.862,90.177 168.862,90.177 C169.547,88.468 171.001,87.436 172.109,87.872 C173.218,88.308 173.561,90.048 172.877,91.757 C172.877,91.757 169.075,101.240 169.075,101.240 Z" id="path-6" class="cls-7" fill-rule="evenodd"/>
    <path d="M199.917,100.371 C199.917,100.371 198.011,101.185 198.011,101.185 C197.643,101.342 197.539,101.917 197.780,102.468 C198.021,103.021 198.513,103.340 198.881,103.183 C198.881,103.183 198.969,103.145 198.969,103.145 C199.337,102.988 199.830,103.307 200.070,103.859 C200.310,104.410 200.207,104.985 199.840,105.143 C199.840,105.143 195.741,106.894 195.741,106.894 C195.374,107.051 195.271,107.626 195.511,108.178 C195.751,108.730 196.244,109.049 196.612,108.892 C196.612,108.892 201.536,106.787 201.536,106.787 C201.536,106.787 211.603,102.483 211.603,102.483 C211.970,102.326 212.074,101.751 211.833,101.199 C211.593,100.648 211.100,100.329 210.733,100.486 C210.733,100.486 209.595,100.971 209.595,100.971 C209.228,101.129 208.735,100.809 208.495,100.258 C208.254,99.706 208.358,99.131 208.726,98.974 C208.726,98.974 214.138,96.661 214.138,96.661 C214.506,96.504 214.609,95.929 214.369,95.377 C214.129,94.826 213.636,94.505 213.268,94.663 C213.268,94.663 211.989,95.210 211.989,95.210 C211.989,95.210 199.917,100.371 199.917,100.371 Z" id="path-7" class="cls-7" fill-rule="evenodd"/>
    <path d="M180.925,112.264 C179.220,112.992 177.456,112.703 176.983,111.619 C176.511,110.533 177.508,109.064 179.213,108.335 C179.213,108.335 188.670,104.292 188.670,104.292 C190.374,103.563 192.139,103.852 192.612,104.938 C193.084,106.022 192.086,107.492 190.381,108.221 C190.381,108.221 180.925,112.264 180.925,112.264 Z" id="path-8" class="cls-7" fill-rule="evenodd"/>
    <path d="M101.305,13.759 C101.305,13.759 100.539,15.670 100.539,15.670 C100.391,16.038 100.728,16.517 101.291,16.739 C101.855,16.961 102.432,16.842 102.580,16.473 C102.580,16.473 102.616,16.384 102.616,16.384 C102.763,16.015 103.340,15.896 103.904,16.118 C104.467,16.340 104.804,16.819 104.656,17.186 C104.656,17.186 103.009,21.296 103.009,21.296 C102.861,21.665 103.198,22.144 103.762,22.366 C104.326,22.587 104.902,22.468 105.050,22.100 C105.050,22.100 107.030,17.161 107.030,17.161 C107.030,17.161 111.076,7.067 111.076,7.067 C111.224,6.698 110.887,6.220 110.323,5.998 C109.760,5.776 109.183,5.895 109.035,6.264 C109.035,6.264 108.578,7.405 108.578,7.405 C108.430,7.773 107.853,7.892 107.290,7.670 C106.726,7.448 106.389,6.970 106.537,6.601 C106.537,6.601 108.713,1.174 108.713,1.174 C108.860,0.805 108.523,0.326 107.960,0.104 C107.396,-0.118 106.819,0.001 106.671,0.370 C106.671,0.370 106.157,1.653 106.157,1.653 C106.157,1.653 101.305,13.759 101.305,13.759 Z" id="path-9" class="cls-7" fill-rule="evenodd"/>
    <path d="M96.364,35.473 C95.680,37.182 94.226,38.213 93.117,37.778 C92.008,37.341 91.665,35.602 92.350,33.894 C92.350,33.894 96.151,24.410 96.151,24.410 C96.837,22.702 98.290,21.669 99.399,22.106 C100.507,22.541 100.851,24.280 100.166,25.989 C100.166,25.989 96.364,35.473 96.364,35.473 Z" id="path-10" class="cls-7" fill-rule="evenodd"/>
    <path d="M127.206,34.604 C127.206,34.604 125.300,35.418 125.300,35.418 C124.932,35.576 124.829,36.150 125.070,36.702 C125.310,37.253 125.803,37.573 126.170,37.416 C126.170,37.416 126.259,37.378 126.259,37.378 C126.626,37.221 127.119,37.541 127.360,38.091 C127.600,38.643 127.496,39.218 127.129,39.375 C127.129,39.375 123.031,41.127 123.031,41.127 C122.663,41.285 122.560,41.858 122.801,42.411 C123.040,42.962 123.533,43.282 123.901,43.125 C123.901,43.125 128.826,41.019 128.826,41.019 C128.826,41.019 138.892,36.716 138.892,36.716 C139.260,36.559 139.363,35.984 139.123,35.434 C138.882,34.880 138.390,34.561 138.023,34.718 C138.023,34.718 136.885,35.205 136.885,35.205 C136.517,35.362 136.025,35.042 135.784,34.490 C135.544,33.939 135.647,33.365 136.015,33.207 C136.015,33.207 141.428,30.894 141.428,30.894 C141.795,30.737 141.898,30.161 141.658,29.610 C141.418,29.058 140.925,28.739 140.558,28.897 C140.558,28.897 139.278,29.442 139.278,29.442 C139.278,29.442 127.206,34.604 127.206,34.604 Z" id="path-11" class="cls-7" fill-rule="evenodd"/>
    <path d="M108.214,46.497 C106.510,47.225 104.745,46.936 104.273,45.852 C103.800,44.767 104.798,43.296 106.503,42.568 C106.503,42.568 115.959,38.525 115.959,38.525 C117.664,37.796 119.428,38.085 119.901,39.170 C120.374,40.256 119.375,41.725 117.671,42.454 C117.671,42.454 108.214,46.497 108.214,46.497 Z" id="path-12" class="cls-7" fill-rule="evenodd"/>
    <path d="M81.148,80.325 C81.148,80.325 59.427,58.809 59.427,58.809 C59.427,58.809 81.559,36.884 81.559,36.884 C81.559,36.884 103.279,58.401 103.279,58.401 C103.279,58.401 81.148,80.325 81.148,80.325 Z" id="path-13" class="cls-15" fill-rule="evenodd"/>
    <path d="M151.738,150.255 C151.738,150.255 130.018,128.738 130.018,128.738 C130.018,128.738 152.149,106.815 152.149,106.815 C152.149,106.815 173.869,128.331 173.869,128.331 C173.869,128.331 151.738,150.255 151.738,150.255 Z" id="path-14" class="cls-15" fill-rule="evenodd"/>
    <path d="M130.019,128.738 C130.019,128.738 95.134,163.298 95.134,163.298 C81.635,176.667 59.757,176.667 46.262,163.298 C32.767,149.928 32.767,128.254 46.262,114.882 C46.262,114.882 81.148,80.325 81.148,80.325 C81.148,80.325 59.427,58.807 59.427,58.807 C59.427,58.807 19.110,98.745 19.110,98.745 C-6.375,123.998 -6.375,164.944 19.110,190.194 C44.606,215.447 85.937,215.447 111.423,190.192 C111.423,190.192 151.739,150.257 151.739,150.257 C151.739,150.257 130.019,128.738 130.019,128.738 Z" id="path-15" class="cls-17" fill-rule="evenodd"/>
    <path d="M93.680,48.892 C93.680,48.892 77.308,65.110 77.308,65.110 C77.308,65.110 59.427,58.809 59.427,58.809 C59.427,58.809 81.148,80.325 81.148,80.325 C81.148,80.325 103.279,58.401 103.279,58.401 C103.279,58.401 93.680,48.892 93.680,48.892 Z" id="path-16" class="cls-18" fill-rule="evenodd"/>
    <path d="M164.270,118.822 C164.270,118.822 147.898,135.041 147.898,135.041 C147.898,135.041 130.018,128.738 130.018,128.738 C130.018,128.738 151.738,150.255 151.738,150.255 C151.738,150.255 173.869,128.331 173.869,128.331 C173.869,128.331 164.270,118.822 164.270,118.822 Z" id="path-17" class="cls-18" fill-rule="evenodd"/>
    <path d="M42.422,99.667 C31.510,110.481 29.431,126.718 36.165,139.606 C36.030,130.673 39.382,121.699 46.262,114.882 C46.262,114.882 81.148,80.325 81.148,80.325 C81.148,80.325 71.548,70.815 71.548,70.815 C71.548,70.815 42.422,99.667 42.422,99.667 Z" id="path-18" class="cls-20" fill-rule="evenodd"/>
    <path d="M142.140,140.747 C142.140,140.747 107.583,174.977 107.583,174.977 C82.096,200.232 40.767,200.232 15.271,174.977 C8.621,168.389 3.748,160.720 0.569,152.551 C2.309,166.311 8.448,179.629 19.110,190.192 C44.606,215.447 85.937,215.447 111.423,190.192 C111.423,190.192 151.739,150.257 151.739,150.257 C151.739,150.257 142.140,140.747 142.140,140.747 Z" id="path-19" class="cls-20" fill-rule="evenodd"/>
  </g>
</svg>
