<svg xmlns="http://www.w3.org/2000/svg" xmlns:xlink="http://www.w3.org/1999/xlink" preserveAspectRatio="xMidYMid" width="219" height="204" viewBox="0 0 219 204">
  <defs>
    <style>

      .cls-3 {
        fill: #2476ff;
      }

      .cls-6 {
        fill: #142a3b;
      }

      .cls-8 {
        fill: #020403;
        opacity: 0.35;
      }

      .cls-10 {
        fill: #ff3a2f;
      }

      .cls-11 {
        fill: #020403;
        opacity: 0.25;
      }
    </style>
  </defs>
  <g id="group-14svg">
    <path d="M126.054,161.516 C126.054,161.516 139.111,161.516 139.111,161.516 C141.628,161.516 143.669,162.797 143.669,164.378 C143.669,165.957 141.628,167.239 139.111,167.239 C139.111,167.239 138.503,167.239 138.503,167.239 C135.986,167.239 133.945,168.520 133.945,170.099 C133.945,171.681 135.986,172.961 138.503,172.961 C138.503,172.961 166.572,172.961 166.572,172.961 C169.089,172.961 171.131,174.242 171.131,175.823 C171.131,177.402 169.089,178.683 166.572,178.683 C166.572,178.683 132.841,178.683 132.841,178.683 C132.841,178.683 95.767,178.683 95.767,178.683 C93.249,178.683 91.207,177.402 91.207,175.823 C91.207,174.242 93.249,172.961 95.767,172.961 C95.767,172.961 103.556,172.961 103.556,172.961 C106.074,172.961 108.115,171.681 108.115,170.099 C108.115,168.520 106.074,167.239 103.556,167.239 C103.556,167.239 66.482,167.239 66.482,167.239 C63.965,167.239 61.924,165.957 61.924,164.378 C61.924,162.797 63.965,161.516 66.482,161.516 C66.482,161.516 75.244,161.516 75.244,161.516 C75.244,161.516 126.054,161.516 126.054,161.516 Z" id="path-1" class="cls-3" fill-rule="evenodd"/>
    <path d="M211.493,184.628 C215.268,184.628 218.330,182.707 218.330,180.336 C218.330,177.967 215.268,176.045 211.493,176.045 C211.493,176.045 190.540,176.045 190.540,176.045 C186.763,176.045 183.702,177.967 183.702,180.336 C183.702,182.707 186.763,184.628 190.540,184.628 C190.540,184.628 211.493,184.628 211.493,184.628 Z" id="path-2" class="cls-3" fill-rule="evenodd"/>
    <path d="M85.729,203.711 C89.505,203.711 92.567,201.789 92.567,199.420 C92.567,197.049 89.505,195.128 85.729,195.128 C85.729,195.128 64.776,195.128 64.776,195.128 C61.000,195.128 57.939,197.049 57.939,199.420 C57.939,201.789 61.000,203.711 64.776,203.711 C64.776,203.711 85.729,203.711 85.729,203.711 Z" id="path-3" class="cls-3" fill-rule="evenodd"/>
    <path d="M58.165,143.302 C58.165,143.302 85.538,11.997 85.538,11.997 C85.538,11.997 -0.002,11.997 -0.002,11.997 C-0.002,11.997 27.371,143.302 27.371,143.302 C27.371,143.302 58.165,143.302 58.165,143.302 Z" id="path-4" class="cls-6" fill-rule="evenodd"/>
    <path d="M177.513,143.302 C177.513,143.302 204.886,11.997 204.886,11.997 C204.886,11.997 119.345,11.997 119.345,11.997 C119.345,11.997 146.719,143.302 146.719,143.302 C146.719,143.302 177.513,143.302 177.513,143.302 Z" id="path-5" class="cls-6" fill-rule="evenodd"/>
    <path d="M146.719,143.302 C146.719,143.302 177.513,143.302 177.513,143.302 C177.513,143.302 182.033,121.618 182.033,121.618 C182.033,121.618 182.033,118.920 182.033,118.920 C182.033,109.873 174.562,102.470 165.428,102.470 C165.428,102.470 158.803,102.470 158.803,102.470 C149.671,102.470 142.199,109.873 142.199,118.920 C142.199,118.920 142.199,121.618 142.199,121.618 C142.199,121.618 146.719,143.302 146.719,143.302 Z" id="path-6" class="cls-8" fill-rule="evenodd"/>
    <path d="M27.371,143.302 C27.371,143.302 58.165,143.302 58.165,143.302 C58.165,143.302 62.685,121.618 62.685,121.618 C62.685,121.618 62.685,118.920 62.685,118.920 C62.685,109.873 55.213,102.470 46.081,102.470 C46.081,102.470 39.455,102.470 39.455,102.470 C30.322,102.470 22.851,109.873 22.851,118.920 C22.851,118.920 22.851,121.618 22.851,121.618 C22.851,121.618 27.371,143.302 27.371,143.302 Z" id="path-7" class="cls-8" fill-rule="evenodd"/>
    <path d="M174.407,180.336 C174.407,180.336 149.823,180.336 149.823,180.336 C147.451,180.336 145.511,178.396 145.511,176.024 C145.511,176.024 145.511,117.313 145.511,117.313 C145.511,114.942 147.452,113.001 149.823,113.001 C149.823,113.001 174.407,113.001 174.407,113.001 C176.780,113.001 178.721,114.942 178.721,117.313 C178.721,117.313 178.721,176.024 178.721,176.024 C178.721,178.396 176.780,180.336 174.407,180.336 Z" id="path-8" class="cls-10" fill-rule="evenodd"/>
    <path d="M169.746,166.554 C169.746,166.554 154.486,166.554 154.486,166.554 C153.289,166.554 152.308,165.574 152.308,164.377 C152.308,164.377 152.308,128.961 152.308,128.961 C152.308,127.763 153.289,126.784 154.486,126.784 C154.486,126.784 169.746,126.784 169.746,126.784 C170.943,126.784 171.924,127.763 171.924,128.961 C171.924,128.961 171.924,164.377 171.924,164.377 C171.924,165.574 170.943,166.554 169.746,166.554 Z" id="path-9" class="cls-11" fill-rule="evenodd"/>
    <path d="M167.391,162.740 C167.391,162.740 164.541,162.740 164.541,162.740 C159.931,162.740 156.159,159.002 156.159,154.436 C156.159,154.436 156.159,131.273 156.159,131.273 C156.159,129.972 156.492,128.753 157.038,127.654 C154.254,129.009 152.308,131.822 152.308,135.087 C152.308,135.087 152.308,158.250 152.308,158.250 C152.308,162.817 156.081,166.554 160.690,166.554 C160.690,166.554 163.541,166.554 163.541,166.554 C166.838,166.554 169.678,164.627 171.045,161.869 C169.935,162.409 168.705,162.740 167.391,162.740 Z" id="path-10" class="cls-8" fill-rule="evenodd"/>
    <path d="M55.060,180.336 C55.060,180.336 30.475,180.336 30.475,180.336 C28.104,180.336 26.164,178.396 26.164,176.024 C26.164,176.024 26.164,117.313 26.164,117.313 C26.164,114.942 28.104,113.001 30.476,113.001 C30.476,113.001 55.060,113.001 55.060,113.001 C57.432,113.001 59.373,114.942 59.373,117.313 C59.373,117.313 59.373,176.024 59.373,176.024 C59.373,178.396 57.432,180.336 55.060,180.336 Z" id="path-11" class="cls-10" fill-rule="evenodd"/>
    <path d="M48.044,162.740 C48.044,162.740 45.193,162.740 45.193,162.740 C40.583,162.740 36.811,159.002 36.811,154.436 C36.811,154.436 36.811,131.273 36.811,131.273 C36.811,129.972 37.144,128.753 37.690,127.654 C34.906,129.009 32.961,131.822 32.961,135.087 C32.961,135.087 32.961,158.250 32.961,158.250 C32.961,162.817 36.733,166.554 41.343,166.554 C41.343,166.554 44.194,166.554 44.194,166.554 C47.489,166.554 50.330,164.627 51.697,161.869 C50.587,162.409 49.357,162.740 48.044,162.740 Z" id="path-12" class="cls-8" fill-rule="evenodd"/>
    <path d="M50.398,166.554 C50.398,166.554 35.138,166.554 35.138,166.554 C33.941,166.554 32.961,165.574 32.961,164.377 C32.961,164.377 32.961,128.961 32.961,128.961 C32.961,127.763 33.941,126.784 35.138,126.784 C35.138,126.784 50.398,126.784 50.398,126.784 C51.595,126.784 52.575,127.763 52.575,128.961 C52.575,128.961 52.575,164.377 52.575,164.377 C52.575,165.574 51.595,166.554 50.398,166.554 Z" id="path-13" class="cls-11" fill-rule="evenodd"/>
    <path d="M179.972,43.435 C179.787,43.435 179.603,43.425 179.414,43.406 C176.415,43.106 174.230,40.452 174.535,37.482 C174.535,37.482 176.603,17.265 176.603,17.265 C176.906,14.294 179.568,12.131 182.584,12.431 C185.583,12.732 187.768,15.384 187.464,18.355 C187.464,18.355 185.395,38.573 185.395,38.573 C185.110,41.358 182.740,43.435 179.972,43.435 Z" id="path-14" class="cls-8" fill-rule="evenodd"/>
    <path d="M153.335,43.435 C150.566,43.435 148.196,41.358 147.912,38.573 C147.912,38.573 145.843,18.355 145.843,18.355 C145.538,15.384 147.724,12.732 150.722,12.431 C153.733,12.132 156.401,14.294 156.704,17.265 C156.704,17.265 158.772,37.482 158.772,37.482 C159.077,40.452 156.891,43.106 153.892,43.406 C153.704,43.425 153.519,43.435 153.335,43.435 Z" id="path-15" class="cls-8" fill-rule="evenodd"/>
    <path d="M60.625,43.435 C60.440,43.435 60.255,43.425 60.067,43.406 C57.068,43.106 54.882,40.452 55.188,37.482 C55.188,37.482 57.256,17.265 57.256,17.265 C57.562,14.294 60.227,12.131 63.236,12.431 C66.236,12.732 68.422,15.384 68.116,18.355 C68.116,18.355 66.048,38.573 66.048,38.573 C65.764,41.358 63.393,43.435 60.625,43.435 Z" id="path-16" class="cls-8" fill-rule="evenodd"/>
    <path d="M33.987,43.435 C31.219,43.435 28.849,41.358 28.564,38.573 C28.564,38.573 26.496,18.355 26.496,18.355 C26.191,15.384 28.376,12.732 31.375,12.431 C34.388,12.132 37.054,14.294 37.356,17.265 C37.356,17.265 39.424,37.482 39.424,37.482 C39.730,40.452 37.544,43.106 34.546,43.406 C34.357,43.425 34.172,43.435 33.987,43.435 Z" id="path-17" class="cls-8" fill-rule="evenodd"/>
    <path d="M149.290,45.446 C147.446,45.446 145.868,44.065 145.673,42.209 C145.673,42.209 141.697,3.950 141.697,3.950 C141.491,1.969 142.948,0.199 144.944,-0.005 C146.963,-0.208 148.730,1.232 148.938,3.211 C148.938,3.211 152.916,41.471 152.916,41.471 C153.122,43.451 151.664,45.223 149.667,45.426 C149.539,45.440 149.415,45.446 149.290,45.446 Z" id="path-18" class="cls-10" fill-rule="evenodd"/>
    <path d="M176.121,45.446 C176.031,45.446 175.943,45.442 175.854,45.436 C173.849,45.292 172.342,43.566 172.488,41.580 C172.488,41.580 175.285,3.320 175.285,3.320 C175.431,1.334 177.192,-0.148 179.176,-0.015 C181.180,0.129 182.687,1.855 182.542,3.841 C182.542,3.841 179.745,42.101 179.745,42.101 C179.607,43.999 178.011,45.446 176.121,45.446 Z" id="path-19" class="cls-10" fill-rule="evenodd"/>
    <path d="M56.769,45.446 C56.680,45.446 56.592,45.442 56.502,45.436 C54.498,45.291 52.992,43.565 53.137,41.580 C53.137,41.580 55.938,3.320 55.938,3.320 C56.083,1.334 57.839,-0.148 59.828,-0.015 C61.833,0.129 63.340,1.855 63.195,3.841 C63.195,3.841 60.394,42.101 60.394,42.101 C60.255,43.999 58.660,45.446 56.769,45.446 Z" id="path-20" class="cls-10" fill-rule="evenodd"/>
    <path d="M29.943,45.446 C28.099,45.446 26.521,44.065 26.326,42.209 C26.326,42.209 22.349,3.950 22.349,3.950 C22.143,1.969 23.600,0.199 25.598,-0.005 C27.602,-0.208 29.382,1.232 29.592,3.211 C29.592,3.211 33.568,41.471 33.568,41.471 C33.774,43.451 32.317,45.223 30.320,45.426 C30.192,45.440 30.067,45.446 29.943,45.446 Z" id="path-21" class="cls-10" fill-rule="evenodd"/>
  </g>
</svg>
