<svg xmlns="http://www.w3.org/2000/svg" xmlns:xlink="http://www.w3.org/1999/xlink" preserveAspectRatio="xMidYMid" width="219" height="219" viewBox="0 0 219 219">
  <defs>
    <style>

      .cls-3 {
        fill: #2476ff;
      }

      .cls-8 {
        fill: #0cb04a;
      }

      .cls-9 {
        fill: #020403;
        opacity: 0.25;
      }

      .cls-10 {
        fill: #ff3a2f;
      }

      .cls-11 {
        fill: #142a3b;
      }

      .cls-15 {
        fill: #020403;
        opacity: 0.35;
      }

      .cls-18 {
        fill: #ffffff;
      }
    </style>
  </defs>
  <g id="group-82svg">
    <path d="M116.019,194.681 C116.019,194.681 131.551,194.681 131.551,194.681 C134.545,194.681 136.973,196.204 136.973,198.084 C136.973,199.964 134.545,201.488 131.551,201.488 C131.551,201.488 130.827,201.488 130.827,201.488 C127.833,201.488 125.406,203.011 125.406,204.890 C125.406,206.770 127.833,208.295 130.827,208.295 C130.827,208.295 164.215,208.295 164.215,208.295 C167.209,208.295 169.638,209.818 169.638,211.697 C169.638,213.576 167.209,215.100 164.215,215.100 C164.215,215.100 124.092,215.100 124.092,215.100 C124.092,215.100 79.992,215.100 79.992,215.100 C76.998,215.100 74.569,213.576 74.569,211.697 C74.569,209.818 76.998,208.295 79.992,208.295 C79.992,208.295 89.259,208.295 89.259,208.295 C92.252,208.295 94.681,206.770 94.681,204.890 C94.681,203.011 92.252,201.488 89.259,201.488 C89.259,201.488 45.158,201.488 45.158,201.488 C42.164,201.488 39.736,199.964 39.736,198.084 C39.736,196.204 42.164,194.681 45.158,194.681 C45.158,194.681 55.581,194.681 55.581,194.681 C55.581,194.681 116.019,194.681 116.019,194.681 Z" id="path-1" class="cls-3" fill-rule="evenodd"/>
    <path d="M24.567,162.588 C24.567,162.588 29.567,162.588 29.567,162.588 C30.531,162.588 31.313,163.425 31.313,164.458 C31.313,165.490 30.531,166.327 29.567,166.327 C29.567,166.327 29.334,166.327 29.334,166.327 C28.370,166.327 27.589,167.164 27.589,168.197 C27.589,169.229 28.370,170.066 29.334,170.066 C29.334,170.066 40.084,170.066 40.084,170.066 C41.048,170.066 41.829,170.902 41.829,171.936 C41.829,172.968 41.048,173.806 40.084,173.806 C40.084,173.806 27.166,173.806 27.166,173.806 C27.166,173.806 12.967,173.806 12.967,173.806 C12.003,173.806 11.222,172.968 11.222,171.936 C11.222,170.902 12.003,170.066 12.967,170.066 C12.967,170.066 15.950,170.066 15.950,170.066 C16.915,170.066 17.696,169.229 17.696,168.197 C17.696,167.164 16.915,166.327 15.950,166.327 C15.950,166.327 1.752,166.327 1.752,166.327 C0.788,166.327 0.007,165.490 0.007,164.458 C0.007,163.425 0.788,162.588 1.752,162.588 C1.752,162.588 5.108,162.588 5.108,162.588 C5.108,162.588 24.567,162.588 24.567,162.588 Z" id="path-2" class="cls-3" fill-rule="evenodd"/>
    <path d="M196.369,170.683 C196.369,170.683 201.369,170.683 201.369,170.683 C202.334,170.683 203.116,171.520 203.116,172.552 C203.116,173.585 202.334,174.423 201.369,174.423 C201.369,174.423 201.137,174.423 201.137,174.423 C200.173,174.423 199.391,175.259 199.391,176.292 C199.391,177.324 200.173,178.161 201.137,178.161 C201.137,178.161 211.886,178.161 211.886,178.161 C212.851,178.161 213.632,178.998 213.632,180.031 C213.632,181.062 212.851,181.901 211.886,181.901 C211.886,181.901 198.968,181.901 198.968,181.901 C198.968,181.901 184.770,181.901 184.770,181.901 C183.805,181.901 183.024,181.062 183.024,180.031 C183.024,178.998 183.805,178.161 184.770,178.161 C184.770,178.161 187.753,178.161 187.753,178.161 C188.717,178.161 189.499,177.324 189.499,176.292 C189.499,175.259 188.717,174.423 187.753,174.423 C187.753,174.423 173.555,174.423 173.555,174.423 C172.591,174.423 171.809,173.585 171.809,172.552 C171.809,171.520 172.591,170.683 173.555,170.683 C173.555,170.683 176.911,170.683 176.911,170.683 C176.911,170.683 196.369,170.683 196.369,170.683 Z" id="path-3" class="cls-3" fill-rule="evenodd"/>
    <path d="M212.148,218.045 C215.567,218.045 218.339,216.306 218.339,214.159 C218.339,212.013 215.567,210.273 212.148,210.273 C212.148,210.273 193.176,210.273 193.176,210.273 C189.757,210.273 186.986,212.013 186.986,214.159 C186.986,216.306 189.757,218.045 193.176,218.045 C193.176,218.045 212.148,218.045 212.148,218.045 Z" id="path-4" class="cls-3" fill-rule="evenodd"/>
    <path d="M188.665,150.365 C195.205,150.252 200.477,148.422 200.439,146.276 C200.402,144.131 195.069,142.482 188.529,142.593 C188.529,142.593 152.236,143.217 152.236,143.217 C145.695,143.329 140.424,145.159 140.461,147.305 C140.499,149.451 145.831,151.099 152.372,150.988 C152.372,150.988 188.665,150.365 188.665,150.365 Z" id="path-5" class="cls-3" fill-rule="evenodd"/>
    <path d="M51.598,73.131 C51.598,73.131 51.848,40.129 51.848,40.129 C51.848,36.521 54.967,33.596 58.822,33.596 C58.822,33.596 157.741,33.596 157.741,33.596 C161.594,33.596 164.713,36.521 164.713,40.129 C164.713,40.129 164.281,71.113 164.281,71.113 C164.281,71.113 164.281,71.113 164.281,71.113 " id="path-6" class="cls-8" fill-rule="evenodd"/>
    <path d="M157.741,33.596 C157.741,33.596 146.759,33.596 146.759,33.596 C146.759,33.596 146.385,60.477 146.385,60.477 C146.385,60.477 107.622,50.533 107.622,50.533 C107.622,50.533 51.682,62.171 51.682,62.171 C51.682,62.171 51.598,73.131 51.598,73.131 C51.598,73.131 164.281,71.113 164.281,71.113 C164.281,71.113 164.713,40.128 164.713,40.128 C164.713,36.521 161.593,33.596 157.741,33.596 Z" id="path-7" class="cls-9" fill-rule="evenodd"/>
    <path d="M108.269,57.291 C108.269,57.291 65.605,67.892 29.286,77.939 C24.448,79.281 22.880,84.543 25.826,89.314 C38.364,109.575 74.683,165.155 90.243,185.656 C96.844,194.324 108.451,193.856 108.451,193.856 C108.451,193.856 119.406,194.103 126.311,185.087 C144.512,161.318 177.167,109.909 190.062,87.281 C192.530,82.945 189.289,78.205 184.110,76.810 C148.381,67.194 108.269,57.291 108.269,57.291 Z" id="path-8" class="cls-10" fill-rule="evenodd"/>
    <path d="M108.089,118.911 C106.078,118.911 104.450,117.297 104.450,115.306 C104.450,115.306 104.450,58.437 104.450,58.437 C104.450,56.446 106.078,54.832 108.089,54.832 C110.101,54.832 111.728,56.446 111.728,58.437 C111.728,58.437 111.728,115.306 111.728,115.306 C111.728,117.297 110.101,118.911 108.089,118.911 Z" id="path-9" class="cls-11" fill-rule="evenodd"/>
    <path d="M77.439,106.084 C77.439,113.304 73.745,119.151 69.186,119.151 C64.606,119.151 60.889,113.304 60.889,106.084 C60.889,98.866 64.606,93.017 69.186,93.017 C73.745,93.017 77.439,98.866 77.439,106.084 Z" id="path-10" class="cls-11" fill-rule="evenodd"/>
    <path d="M153.977,105.069 C153.977,112.268 150.282,118.133 145.709,118.133 C141.143,118.133 137.441,112.268 137.441,105.069 C137.441,97.842 141.143,91.998 145.709,91.998 C150.282,91.998 153.977,97.842 153.977,105.069 Z" id="path-11" class="cls-11" fill-rule="evenodd"/>
    <path d="M93.066,35.254 C93.066,35.254 93.066,5.267 93.066,5.267 C93.066,2.360 93.884,-0.006 94.868,-0.006 C94.868,-0.006 120.542,-0.006 120.542,-0.006 C121.549,-0.006 122.359,2.360 122.359,5.267 C122.359,5.267 122.359,33.356 122.359,33.356 C122.359,33.356 122.359,33.356 122.359,33.356 " id="path-12" class="cls-10" fill-rule="evenodd"/>
    <path d="M120.542,-0.006 C120.542,-0.006 111.621,-0.006 111.621,-0.006 C111.621,-0.006 111.068,29.944 111.068,29.944 C111.068,29.944 93.066,30.533 93.066,30.533 C93.066,30.533 93.066,35.254 93.066,35.254 C93.066,35.254 122.359,33.356 122.359,33.356 C122.359,33.356 122.359,5.267 122.359,5.267 C122.359,2.360 121.549,-0.006 120.542,-0.006 Z" id="path-13" class="cls-15" fill-rule="evenodd"/>
    <path d="M119.923,11.358 C119.923,11.358 96.000,11.358 96.000,11.358 C93.988,11.358 92.361,9.743 92.361,7.753 C92.361,5.761 93.988,4.148 96.000,4.148 C96.000,4.148 119.923,4.148 119.923,4.148 C121.934,4.148 123.561,5.761 123.561,7.753 C123.561,9.743 121.934,11.358 119.923,11.358 Z" id="path-14" class="cls-11" fill-rule="evenodd"/>
    <path d="M184.110,76.810 C148.381,67.194 108.269,57.290 108.269,57.290 C108.269,57.290 108.032,57.348 107.621,57.451 C107.621,57.451 107.621,193.850 107.621,193.850 C108.135,193.864 108.451,193.856 108.451,193.856 C108.451,193.856 119.406,194.103 126.311,185.087 C144.512,161.318 177.167,109.909 190.062,87.281 C192.530,82.945 189.289,78.205 184.110,76.810 Z" id="path-15" class="cls-15" fill-rule="evenodd"/>
    <path d="M83.722,166.510 C82.528,166.510 81.356,165.927 80.662,164.860 C80.662,164.860 53.724,123.496 53.724,123.496 C52.635,121.823 53.120,119.592 54.810,118.514 C56.502,117.435 58.753,117.915 59.840,119.589 C59.840,119.589 86.775,160.952 86.775,160.952 C87.865,162.623 87.379,164.855 85.691,165.934 C85.079,166.324 84.397,166.510 83.722,166.510 Z" id="path-16" class="cls-18" fill-rule="evenodd"/>
  </g>
</svg>
