<svg xmlns="http://www.w3.org/2000/svg" xmlns:xlink="http://www.w3.org/1999/xlink" preserveAspectRatio="xMidYMid" width="218" height="117" viewBox="0 0 218 117">
  <defs>
    <style>

      .cls-3 {
        fill: #2476ff;
      }

      .cls-4 {
        fill: #020403;
        opacity: 0.25;
      }

      .cls-5 {
        fill: #ffffff;
      }

      .cls-6 {
        fill: #142a3b;
      }
    </style>
  </defs>
  <g id="group-89svg">
    <path d="M173.005,64.484 C173.656,57.997 173.215,51.162 171.393,44.156 C165.165,20.214 144.012,2.310 119.145,0.210 C93.833,-1.926 71.544,11.713 61.032,32.271 C53.397,26.297 43.398,23.151 32.626,24.556 C16.599,26.649 3.455,39.103 0.622,54.868 C0.068,57.946 -0.093,61.016 0.092,63.939 C0.608,72.083 7.583,78.412 15.821,78.412 C15.821,78.412 157.333,78.412 157.333,78.412 C165.358,78.412 172.209,72.395 173.005,64.484 Z" id="path-1" class="cls-3" fill-rule="evenodd"/>
    <path d="M171.392,44.156 C166.197,24.181 150.597,8.447 131.134,2.550 C136.658,9.116 140.814,16.876 143.039,25.430 C144.862,32.438 145.303,39.271 144.651,45.758 C143.856,53.670 137.005,59.686 128.979,59.686 C128.979,59.686 0.080,59.686 0.080,59.686 C0.007,61.126 0.004,62.551 0.092,63.939 C0.608,72.085 7.583,78.412 15.821,78.412 C15.821,78.412 157.333,78.412 157.333,78.412 C165.358,78.412 172.209,72.395 173.005,64.484 C173.656,57.997 173.215,51.162 171.392,44.156 Z" id="path-2" class="cls-4" fill-rule="evenodd"/>
    <path d="M76.995,37.238 C76.571,37.238 76.141,37.164 75.720,37.008 C73.838,36.311 72.884,34.233 73.588,32.369 C79.433,16.885 95.087,6.928 111.758,8.151 C113.763,8.298 115.266,10.028 115.116,12.014 C114.967,14.000 113.238,15.464 111.218,15.341 C97.803,14.349 85.124,22.395 80.403,34.895 C79.856,36.343 78.468,37.238 76.995,37.238 Z" id="path-3" class="cls-5" fill-rule="evenodd"/>
    <path d="M189.421,46.275 C189.421,46.275 199.355,46.275 199.355,46.275 C201.939,46.275 204.033,47.977 204.033,50.076 C204.033,52.174 201.939,53.877 199.355,53.877 C199.355,53.877 198.731,53.877 198.731,53.877 C196.148,53.877 197.518,55.577 197.518,57.676 C197.518,59.776 199.613,61.477 202.196,61.477 C202.196,61.477 213.673,61.477 213.673,61.477 C216.257,61.477 218.351,63.179 218.351,65.279 C218.351,67.378 216.257,69.078 213.673,69.078 C213.673,69.078 196.386,69.078 196.386,69.078 C196.386,69.078 125.633,69.078 125.633,69.078 C123.049,69.078 120.955,67.378 120.955,65.279 C120.955,63.179 123.049,61.477 125.633,61.477 C125.633,61.477 133.627,61.477 133.627,61.477 C136.210,61.477 138.304,59.776 138.304,57.676 C138.304,55.577 136.210,53.877 133.627,53.877 C133.627,53.877 95.582,53.877 95.582,53.877 C92.998,53.877 90.904,52.174 90.904,50.076 C90.904,47.977 92.998,46.275 95.582,46.275 C95.582,46.275 104.573,46.275 104.573,46.275 C104.573,46.275 189.421,46.275 189.421,46.275 Z" id="path-4" class="cls-6" fill-rule="evenodd"/>
    <path d="M194.131,24.233 C198.322,24.233 201.720,22.508 201.720,20.382 C201.720,18.257 198.322,16.533 194.131,16.533 C194.131,16.533 170.879,16.533 170.879,16.533 C166.688,16.533 163.291,18.257 163.291,20.382 C163.291,22.508 166.688,24.233 170.879,24.233 C170.879,24.233 194.131,24.233 194.131,24.233 Z" id="path-5" class="cls-6" fill-rule="evenodd"/>
    <path d="M62.354,105.054 C62.354,105.054 66.556,105.054 66.556,105.054 C67.367,105.054 68.024,105.868 68.024,106.873 C68.024,107.877 67.367,108.691 66.556,108.691 C66.556,108.691 66.361,108.691 66.361,108.691 C65.551,108.691 64.894,109.505 64.894,110.510 C64.894,111.515 65.551,112.329 66.361,112.329 C66.361,112.329 75.396,112.329 75.396,112.329 C76.206,112.329 76.863,113.143 76.863,114.147 C76.863,115.152 76.206,115.966 75.396,115.966 C75.396,115.966 64.538,115.966 64.538,115.966 C64.538,115.966 42.346,115.966 42.346,115.966 C41.536,115.966 40.879,115.152 40.879,114.147 C40.879,113.143 41.536,112.329 42.346,112.329 C42.346,112.329 44.853,112.329 44.853,112.329 C45.664,112.329 46.320,111.515 46.320,110.510 C46.320,109.505 45.664,108.691 44.853,108.691 C44.853,108.691 32.920,108.691 32.920,108.691 C32.110,108.691 31.452,107.877 31.452,106.873 C31.452,105.868 32.110,105.054 32.920,105.054 C32.920,105.054 35.740,105.054 35.740,105.054 C35.740,105.054 62.354,105.054 62.354,105.054 Z" id="path-6" class="cls-6" fill-rule="evenodd"/>
    <path d="M141.846,106.807 C146.037,106.807 149.434,105.084 149.434,102.957 C149.434,100.832 146.037,99.108 141.846,99.108 C141.846,99.108 118.593,99.108 118.593,99.108 C114.402,99.108 111.005,100.832 111.005,102.957 C111.005,105.084 114.402,106.807 118.593,106.807 C118.593,106.807 141.846,106.807 141.846,106.807 Z" id="path-7" class="cls-6" fill-rule="evenodd"/>
  </g>
</svg>
