<svg xmlns="http://www.w3.org/2000/svg" xmlns:xlink="http://www.w3.org/1999/xlink" preserveAspectRatio="xMidYMid" width="205" height="217" viewBox="0 0 205 217">
  <defs>
    <style>

      .cls-3 {
        fill: #2476ff;
      }

      .cls-6 {
        fill: #0cb04a;
      }

      .cls-7 {
        fill: #ffffff;
      }

      .cls-8 {
        fill: #142a3b;
      }

      .cls-9 {
        fill: #000000;
        opacity: 0.4;
      }

      .cls-10 {
        fill: #000000;
      }

      .cls-11 {
        fill: #010101;
        opacity: 0.35;
      }

      .cls-12 {
        fill: #ff3a2f;
      }
    </style>
  </defs>
  <g id="group-4svg">
    <path d="M186.571,177.204 C186.571,177.204 191.903,177.204 191.903,177.204 C192.931,177.204 193.764,178.274 193.764,179.595 C193.764,180.916 192.931,181.986 191.903,181.986 C191.903,181.986 191.655,181.986 191.655,181.986 C190.627,181.986 189.793,183.057 189.793,184.378 C189.793,185.698 190.627,186.769 191.655,186.769 C191.655,186.769 203.116,186.769 203.116,186.769 C204.144,186.769 204.977,187.840 204.977,189.160 C204.977,190.481 204.144,191.552 203.116,191.552 C203.116,191.552 189.342,191.552 189.342,191.552 C189.342,191.552 174.204,191.552 174.204,191.552 C173.175,191.552 172.342,190.481 172.342,189.160 C172.342,187.840 173.175,186.769 174.204,186.769 C174.204,186.769 177.384,186.769 177.384,186.769 C178.412,186.769 179.246,185.698 179.246,184.378 C179.246,183.057 178.412,181.986 177.384,181.986 C177.384,181.986 162.246,181.986 162.246,181.986 C161.218,181.986 160.385,180.916 160.385,179.595 C160.385,178.274 161.218,177.204 162.246,177.204 C162.246,177.204 165.824,177.204 165.824,177.204 C165.824,177.204 186.571,177.204 186.571,177.204 Z" id="path-1" class="cls-3" fill-rule="evenodd"/>
    <path d="M146.126,192.607 C148.517,192.607 150.456,191.390 150.456,189.890 C150.456,188.389 148.517,187.173 146.126,187.173 C146.126,187.173 132.860,187.173 132.860,187.173 C130.469,187.173 128.530,188.389 128.530,189.890 C128.530,191.390 130.469,192.607 132.860,192.607 C132.860,192.607 146.126,192.607 146.126,192.607 Z" id="path-2" class="cls-3" fill-rule="evenodd"/>
    <path d="M44.767,201.026 C44.767,201.026 53.694,201.026 53.694,201.026 C55.415,201.026 56.810,202.164 56.810,203.569 C56.810,204.973 55.415,206.111 53.694,206.111 C53.694,206.111 53.278,206.111 53.278,206.111 C51.557,206.111 50.162,207.249 50.162,208.654 C50.162,210.058 51.557,211.196 53.278,211.196 C53.278,211.196 72.467,211.196 72.467,211.196 C74.188,211.196 75.583,212.335 75.583,213.739 C75.583,215.143 74.188,216.282 72.467,216.282 C72.467,216.282 49.407,216.282 49.407,216.282 C49.407,216.282 24.061,216.282 24.061,216.282 C22.341,216.282 20.945,215.143 20.945,213.739 C20.945,212.335 22.341,211.196 24.061,211.196 C24.061,211.196 29.387,211.196 29.387,211.196 C31.108,211.196 32.503,210.058 32.503,208.654 C32.503,207.249 31.108,206.111 29.387,206.111 C29.387,206.111 4.041,206.111 4.041,206.111 C2.321,206.111 0.925,204.973 0.925,203.569 C0.925,202.164 2.321,201.026 4.041,201.026 C4.041,201.026 10.032,201.026 10.032,201.026 C10.032,201.026 44.767,201.026 44.767,201.026 Z" id="path-3" class="cls-3" fill-rule="evenodd"/>
    <path d="M125.135,115.945 C125.135,111.259 121.300,107.460 116.569,107.460 C116.569,107.460 108.005,107.460 108.005,107.460 C108.005,107.460 60.770,107.460 60.770,107.460 C60.770,107.460 44.066,107.460 44.066,107.460 C34.104,107.460 24.600,111.609 17.877,118.892 C17.877,118.892 9.292,128.193 9.292,128.193 C3.311,134.673 -0.007,143.136 -0.007,151.917 C-0.007,151.917 -0.007,178.795 -0.007,178.795 C-0.007,183.482 3.828,187.281 8.558,187.281 C8.558,187.281 99.439,187.281 99.439,187.281 C104.170,187.281 108.005,183.482 108.005,178.795 C108.005,178.795 108.005,137.691 108.005,137.691 C108.005,133.005 111.839,129.206 116.569,129.206 C116.569,129.206 116.569,129.206 116.569,129.206 C121.300,129.206 125.135,125.407 125.135,120.721 C125.135,120.721 125.135,115.945 125.135,115.945 Z" id="path-4" class="cls-6" fill-rule="evenodd"/>
    <path d="M7.791,163.245 C5.782,163.245 4.152,161.631 4.152,159.640 C4.152,149.936 7.793,140.647 14.404,133.484 C14.404,133.484 22.990,124.183 22.990,124.183 C30.383,116.173 40.907,111.579 51.863,111.579 C53.872,111.579 55.502,113.194 55.502,115.185 C55.502,117.176 53.872,118.790 51.863,118.790 C42.945,118.790 34.379,122.529 28.359,129.049 C28.359,129.049 19.774,138.349 19.774,138.349 C14.394,144.180 11.430,151.742 11.430,159.640 C11.430,161.631 9.801,163.245 7.791,163.245 Z" id="path-5" class="cls-7" fill-rule="evenodd"/>
    <path d="M81.690,94.711 C81.690,94.711 81.690,34.378 81.690,34.378 C81.690,21.601 92.145,11.244 105.041,11.244 C117.937,11.244 128.393,21.601 128.393,34.378 C128.393,34.378 155.426,170.884 155.426,170.884 C155.426,170.884 166.401,170.884 166.401,170.884 C166.401,170.884 139.752,34.378 139.752,34.378 C139.752,15.386 124.211,-0.010 105.041,-0.010 C85.870,-0.010 70.330,15.386 70.330,34.378 C70.330,34.378 70.330,94.711 70.330,94.711 C70.330,94.711 81.690,94.711 81.690,94.711 Z" id="path-6" class="cls-8" fill-rule="evenodd"/>
    <path d="M70.330,94.711 C70.330,94.711 81.690,94.711 81.690,94.711 C81.690,94.711 81.690,85.791 81.690,85.791 C81.690,85.791 70.330,85.791 70.330,85.791 C70.330,85.791 70.330,94.711 70.330,94.711 Z" id="path-7" class="cls-9" fill-rule="evenodd"/>
    <path d="M154.885,167.058 C154.885,167.058 155.426,170.884 155.426,170.884 C155.426,170.884 166.401,170.884 166.401,170.884 C166.401,170.884 165.885,167.058 165.885,167.058 C165.885,167.058 154.885,167.058 154.885,167.058 Z" id="path-8" class="cls-10" fill-rule="evenodd"/>
    <path d="M76.771,152.606 C62.254,152.606 50.485,164.264 50.485,178.646 C50.485,181.677 51.035,184.574 51.996,187.281 C51.996,187.281 99.439,187.281 99.439,187.281 C100.215,187.281 100.951,187.145 101.666,186.955 C102.555,184.342 103.057,181.555 103.057,178.646 C103.057,164.264 91.288,152.606 76.771,152.606 Z" id="path-9" class="cls-11" fill-rule="evenodd"/>
    <path d="M97.932,107.460 C97.932,107.460 53.300,107.460 53.300,107.460 C53.300,107.460 53.300,93.870 53.300,93.870 C53.300,93.870 97.932,93.870 97.932,93.870 C97.932,93.870 97.932,107.460 97.932,107.460 Z" id="path-10" class="cls-12" fill-rule="evenodd"/>
    <path d="M99.159,186.370 C99.159,200.752 87.390,212.411 72.872,212.411 C58.355,212.411 46.586,200.752 46.586,186.370 C46.586,171.989 58.355,160.330 72.872,160.330 C87.390,160.330 99.159,171.989 99.159,186.370 Z" id="path-11" class="cls-8" fill-rule="evenodd"/>
    <path d="M82.164,186.370 C82.164,191.454 78.004,195.576 72.872,195.576 C67.741,195.576 63.581,191.454 63.581,186.370 C63.581,181.286 67.741,177.166 72.872,177.166 C78.004,177.166 82.164,181.286 82.164,186.370 Z" id="path-12" class="cls-12" fill-rule="evenodd"/>
    <path d="M106.995,140.994 C106.995,140.994 78.808,140.994 78.808,140.994 C77.802,140.994 76.988,140.187 76.988,139.192 C76.988,138.197 77.802,137.390 78.808,137.390 C78.808,137.390 106.995,137.390 106.995,137.390 C108.001,137.390 108.814,138.197 108.814,139.192 C108.814,140.187 108.001,140.994 106.995,140.994 Z" id="path-13" class="cls-8" fill-rule="evenodd"/>
    <path d="M193.281,179.289 C193.281,179.289 125.135,179.289 125.135,179.289 C125.135,179.289 125.135,170.884 125.135,170.884 C125.135,170.884 193.281,170.884 193.281,170.884 C193.281,170.884 193.281,179.289 193.281,179.289 Z" id="path-14" class="cls-12" fill-rule="evenodd"/>
  </g>
</svg>
