<svg xmlns="http://www.w3.org/2000/svg" xmlns:xlink="http://www.w3.org/1999/xlink" preserveAspectRatio="xMidYMid" width="219" height="176" viewBox="0 0 219 176">
  <defs>
    <style>

      .cls-3 {
        fill: #2476ff;
      }

      .cls-7 {
        fill: #986b10;
      }

      .cls-8 {
        fill: #fbb713;
      }

      .cls-9 {
        fill: #000000;
        opacity: 0.2;
      }
    </style>
  </defs>
  <g id="group-153svg">
    <path d="M65.500,36.281 C65.500,36.281 57.695,36.281 57.695,36.281 C56.189,36.281 54.970,36.977 54.970,37.835 C54.970,38.693 56.189,39.388 57.695,39.388 C57.695,39.388 58.058,39.388 58.058,39.388 C59.563,39.388 60.783,40.084 60.783,40.943 C60.783,41.802 59.563,42.498 58.058,42.498 C58.058,42.498 41.280,42.498 41.280,42.498 C39.775,42.498 38.556,43.193 38.556,44.050 C38.556,44.910 39.775,45.606 41.280,45.606 C41.280,45.606 61.443,45.606 61.443,45.606 C61.443,45.606 102.656,45.606 102.656,45.606 C104.160,45.606 105.380,44.910 105.380,44.050 C105.380,43.193 104.160,42.498 102.656,42.498 C102.656,42.498 97.999,42.498 97.999,42.498 C96.494,42.498 95.275,41.802 95.275,40.943 C95.275,40.084 96.494,39.388 97.999,39.388 C97.999,39.388 120.160,39.388 120.160,39.388 C121.665,39.388 122.885,38.693 122.885,37.835 C122.885,36.977 121.665,36.281 120.160,36.281 C120.160,36.281 114.922,36.281 114.922,36.281 C114.922,36.281 65.500,36.281 65.500,36.281 Z" id="path-1" class="cls-3" fill-rule="evenodd"/>
    <path d="M21.033,73.006 C21.033,73.006 17.130,73.006 17.130,73.006 C16.378,73.006 15.768,73.462 15.768,74.026 C15.768,74.589 16.378,75.045 17.130,75.045 C17.130,75.045 17.312,75.045 17.312,75.045 C18.065,75.045 18.675,75.502 18.675,76.065 C18.675,76.628 18.065,77.085 17.312,77.085 C17.312,77.085 8.923,77.085 8.923,77.085 C8.170,77.085 7.560,77.542 7.560,78.105 C7.560,78.669 8.170,79.125 8.923,79.125 C8.923,79.125 19.005,79.125 19.005,79.125 C19.005,79.125 39.611,79.125 39.611,79.125 C40.363,79.125 40.973,78.669 40.973,78.105 C40.973,77.542 40.363,77.085 39.611,77.085 C39.611,77.085 37.282,77.085 37.282,77.085 C36.530,77.085 35.920,76.628 35.920,76.065 C35.920,75.502 36.530,75.045 37.282,75.045 C37.282,75.045 48.363,75.045 48.363,75.045 C49.116,75.045 49.726,74.589 49.726,74.026 C49.726,73.462 49.116,73.006 48.363,73.006 C48.363,73.006 45.744,73.006 45.744,73.006 C45.744,73.006 21.033,73.006 21.033,73.006 Z" id="path-2" class="cls-3" fill-rule="evenodd"/>
    <path d="M91.168,159.773 C91.168,159.773 77.150,159.773 77.150,159.773 C74.447,159.773 72.256,160.935 72.256,162.371 C72.256,163.805 74.447,164.968 77.150,164.968 C77.150,164.968 77.802,164.968 77.802,164.968 C80.505,164.968 82.696,166.130 82.696,167.565 C82.696,168.999 80.505,170.162 77.802,170.162 C77.802,170.162 47.666,170.162 47.666,170.162 C44.963,170.162 42.772,171.325 42.772,172.760 C42.772,174.194 44.963,175.357 47.666,175.357 C47.666,175.357 83.882,175.357 83.882,175.357 C83.882,175.357 157.907,175.357 157.907,175.357 C160.610,175.357 162.801,174.194 162.801,172.760 C162.801,171.325 160.610,170.162 157.907,170.162 C157.907,170.162 149.543,170.162 149.543,170.162 C146.840,170.162 144.649,168.999 144.649,167.565 C144.649,166.130 146.840,164.968 149.543,164.968 C149.543,164.968 189.348,164.968 189.348,164.968 C192.051,164.968 194.242,163.805 194.242,162.371 C194.242,160.935 192.051,159.773 189.348,159.773 C189.348,159.773 179.941,159.773 179.941,159.773 C179.941,159.773 91.168,159.773 91.168,159.773 Z" id="path-3" class="cls-3" fill-rule="evenodd"/>
    <path d="M135.295,40.943 C131.784,40.943 128.939,39.989 128.939,38.811 C128.939,37.636 131.784,36.681 135.295,36.681 C135.295,36.681 154.773,36.681 154.773,36.681 C158.284,36.681 161.129,37.636 161.129,38.811 C161.129,39.989 158.284,40.943 154.773,40.943 C154.773,40.943 135.295,40.943 135.295,40.943 Z" id="path-4" class="cls-3" fill-rule="evenodd"/>
    <path d="M139.511,134.932 C139.511,134.932 89.724,168.164 89.724,168.164 C89.724,168.164 89.724,122.719 89.724,122.719 C89.724,122.719 139.511,134.932 139.511,134.932 Z" id="path-5" class="cls-7" fill-rule="evenodd"/>
    <path d="M93.238,124.980 C93.238,124.980 187.891,150.220 187.891,150.220 C187.891,150.220 218.325,0.009 218.325,0.009 C218.325,0.009 179.409,24.105 179.409,24.105 C179.409,24.105 -0.007,135.182 -0.007,135.182 C-0.007,135.182 93.238,124.980 93.238,124.980 Z" id="path-6" class="cls-8" fill-rule="evenodd"/>
    <path d="M93.238,124.980 C93.238,124.980 218.325,0.009 218.325,0.009 C218.325,0.009 179.409,24.105 179.409,24.105 C179.409,24.105 -0.007,135.182 -0.007,135.182 C-0.007,135.182 93.238,124.980 93.238,124.980 Z" id="path-7" class="cls-9" fill-rule="evenodd"/>
  </g>
</svg>
