<svg xmlns="http://www.w3.org/2000/svg" xmlns:xlink="http://www.w3.org/1999/xlink" preserveAspectRatio="xMidYMid" width="181" height="217" viewBox="0 0 181 217">
  <defs>
    <style>

      .cls-3 {
        fill: #142a3b;
      }

      .cls-4 {
        fill: #0cb04a;
      }

      .cls-5 {
        fill: #ff3a2f;
      }

      .cls-6 {
        fill: #020403;
        opacity: 0.35;
      }

      .cls-14 {
        fill: #2476ff;
      }

      .cls-15 {
        fill: #ddc100;
      }
    </style>
  </defs>
  <g id="group-168svg">
    <path d="M140.145,131.114 C140.145,131.114 154.948,6.020 154.948,6.020 C155.298,3.054 154.052,0.460 152.177,0.261 C152.177,0.261 149.740,0.001 149.740,0.001 C147.866,-0.198 146.092,2.073 145.798,5.046 C145.798,5.046 133.426,130.398 133.426,130.398 C133.426,130.398 140.145,131.114 140.145,131.114 Z" id="path-1" class="cls-3" fill-rule="evenodd"/>
    <path d="M137.309,127.169 C127.021,126.073 118.019,131.284 117.203,138.806 C117.203,138.806 154.460,142.774 154.460,142.774 C155.276,135.252 147.598,128.264 137.309,127.169 Z" id="path-2" class="cls-4" fill-rule="evenodd"/>
    <path d="M152.619,212.682 C148.711,207.746 148.402,200.594 148.650,196.269 C148.747,194.589 146.741,193.412 145.076,194.172 C135.992,198.323 130.602,203.695 128.311,210.094 C128.311,210.094 88.667,205.872 88.667,205.872 C88.667,205.872 93.972,156.978 93.972,156.978 C95.190,145.752 106.504,137.668 119.114,139.010 C119.114,139.010 152.549,142.571 152.549,142.571 C165.159,143.913 174.480,154.196 173.262,165.421 C173.262,165.421 170.262,193.057 170.262,193.057 C170.262,193.057 164.820,207.101 180.322,215.632 C180.322,215.632 152.619,212.682 152.619,212.682 Z" id="path-3" class="cls-5" fill-rule="evenodd"/>
    <path d="M138.794,127.382 C142.440,130.297 144.527,134.228 144.083,138.326 C144.083,138.326 118.178,135.568 118.178,135.568 C117.698,136.592 117.328,137.661 117.203,138.806 C117.203,138.806 154.460,142.774 154.460,142.774 C155.236,135.619 148.322,128.961 138.794,127.382 Z" id="path-4" class="cls-6" fill-rule="evenodd"/>
    <path d="M146.375,188.249 C146.471,186.568 144.465,185.392 142.801,186.152 C133.716,190.303 120.226,200.269 117.935,206.668 C117.935,206.668 88.916,203.577 88.916,203.577 C88.916,203.577 88.667,205.872 88.667,205.872 C88.667,205.872 128.311,210.094 128.311,210.094 C132.539,198.004 141.352,196.823 146.441,193.352 C146.287,191.466 146.292,189.693 146.375,188.249 Z" id="path-5" class="cls-6" fill-rule="evenodd"/>
    <path d="M170.262,193.056 C170.262,193.056 173.262,165.421 173.262,165.421 C174.480,154.196 165.159,143.913 152.549,142.571 C152.549,142.571 152.417,142.556 152.417,142.556 C159.413,146.746 163.738,154.132 162.885,161.994 C162.885,161.994 159.887,189.629 159.887,189.629 C159.887,189.629 154.444,203.673 169.946,212.207 C169.946,212.207 151.056,210.194 151.056,210.194 C151.506,211.063 152.003,211.906 152.619,212.681 C152.619,212.681 180.322,215.632 180.322,215.632 C164.820,207.101 170.262,193.056 170.262,193.056 Z" id="path-6" class="cls-6" fill-rule="evenodd"/>
    <path d="M162.454,211.128 C161.914,211.128 161.381,210.891 161.023,210.438 C154.476,202.168 158.548,192.732 158.723,192.336 C159.131,191.422 160.201,191.015 161.114,191.411 C162.035,191.808 162.454,192.870 162.056,193.781 C161.917,194.100 158.708,201.671 163.886,208.213 C164.505,208.996 164.366,210.130 163.577,210.744 C163.243,211.003 162.849,211.128 162.454,211.128 Z" id="path-7" class="cls-3" fill-rule="evenodd"/>
    <path d="M116.965,208.449 C116.897,208.449 116.833,208.446 116.765,208.438 C115.767,208.332 115.046,207.443 115.152,206.454 C115.152,206.454 116.215,196.674 116.215,196.674 C116.322,195.683 117.242,194.971 118.218,195.074 C119.217,195.182 119.939,196.070 119.831,197.060 C119.831,197.060 118.769,206.839 118.769,206.839 C118.670,207.764 117.881,208.449 116.965,208.449 Z" id="path-8" class="cls-3" fill-rule="evenodd"/>
    <path d="M106.936,207.380 C106.868,207.380 106.805,207.377 106.737,207.370 C105.739,207.264 105.018,206.376 105.123,205.386 C105.123,205.386 108.581,173.497 108.581,173.497 C108.688,172.505 109.602,171.797 110.586,171.898 C111.584,172.004 112.306,172.892 112.199,173.882 C112.199,173.882 108.741,205.771 108.741,205.771 C108.642,206.695 107.853,207.380 106.936,207.380 Z" id="path-9" class="cls-3" fill-rule="evenodd"/>
    <path d="M96.905,206.312 C96.837,206.312 96.773,206.308 96.706,206.302 C95.707,206.195 94.985,205.307 95.092,204.316 C95.092,204.316 96.823,188.374 96.823,188.374 C96.930,187.381 97.843,186.668 98.827,186.774 C99.825,186.880 100.547,187.769 100.440,188.759 C100.440,188.759 98.710,204.702 98.710,204.702 C98.610,205.627 97.821,206.312 96.905,206.312 Z" id="path-10" class="cls-3" fill-rule="evenodd"/>
    <path d="M170.983,161.528 C170.914,161.528 170.851,161.524 170.784,161.517 C170.784,161.517 98.642,153.834 98.642,153.834 C97.644,153.729 96.922,152.841 97.028,151.851 C97.136,150.858 98.049,150.153 99.033,150.251 C99.033,150.251 171.174,157.934 171.174,157.934 C172.173,158.039 172.895,158.928 172.788,159.917 C172.688,160.842 171.899,161.528 170.983,161.528 Z" id="path-11" class="cls-3" fill-rule="evenodd"/>
    <path d="M24.624,216.279 C27.970,216.279 30.681,215.790 30.681,215.185 C30.681,214.581 27.970,214.090 24.624,214.090 C24.624,214.090 6.063,214.090 6.063,214.090 C2.718,214.090 0.006,214.581 0.006,215.185 C0.006,215.790 2.718,216.279 6.063,216.279 C6.063,216.279 24.624,216.279 24.624,216.279 Z" id="path-12" class="cls-14" fill-rule="evenodd"/>
    <path d="M44.917,186.598 C44.917,186.598 47.028,187.428 47.028,187.428 C47.436,187.589 47.963,187.224 48.209,186.612 C48.453,186.002 48.322,185.376 47.915,185.217 C47.915,185.217 47.816,185.178 47.816,185.178 C47.410,185.017 47.278,184.392 47.523,183.781 C47.767,183.171 48.297,182.806 48.703,182.965 C48.703,182.965 53.242,184.750 53.242,184.750 C53.649,184.911 54.177,184.546 54.422,183.935 C54.667,183.324 54.536,182.699 54.128,182.539 C54.128,182.539 48.674,180.393 48.674,180.393 C48.674,180.393 37.526,176.008 37.526,176.008 C37.120,175.847 36.590,176.213 36.346,176.824 C36.101,177.435 36.232,178.060 36.639,178.220 C36.639,178.220 37.899,178.714 37.899,178.714 C38.306,178.876 38.438,179.500 38.193,180.112 C37.947,180.723 37.419,181.087 37.012,180.928 C37.012,180.928 31.017,178.569 31.017,178.569 C30.610,178.409 30.082,178.774 29.837,179.386 C29.592,179.997 29.723,180.621 30.130,180.781 C30.130,180.781 31.548,181.339 31.548,181.339 C31.548,181.339 44.917,186.598 44.917,186.598 Z" id="path-13" class="cls-15" fill-rule="evenodd"/>
    <path d="M91.695,206.917 C91.695,206.917 100.996,206.917 100.996,206.917 C102.789,206.917 104.242,207.509 104.242,208.239 C104.242,208.969 102.789,209.561 100.996,209.561 C100.996,209.561 100.562,209.561 100.562,209.561 C98.769,209.561 97.316,210.153 97.316,210.884 C97.316,211.613 98.769,212.206 100.562,212.206 C100.562,212.206 120.554,212.206 120.554,212.206 C122.347,212.206 123.800,212.797 123.800,213.528 C123.800,214.258 122.347,214.849 120.554,214.849 C120.554,214.849 96.529,214.849 96.529,214.849 C96.529,214.849 47.423,214.849 47.423,214.849 C45.630,214.849 44.176,214.258 44.176,213.528 C44.176,212.797 45.630,212.206 47.423,212.206 C47.423,212.206 52.971,212.206 52.971,212.206 C54.764,212.206 56.218,211.613 56.218,210.884 C56.218,210.153 54.764,209.561 52.971,209.561 C52.971,209.561 26.565,209.561 26.565,209.561 C24.773,209.561 23.318,208.969 23.318,208.239 C23.318,207.509 24.773,206.917 26.565,206.917 C26.565,206.917 32.806,206.917 32.806,206.917 C32.806,206.917 91.695,206.917 91.695,206.917 Z" id="path-14" class="cls-14" fill-rule="evenodd"/>
    <path d="M68.898,191.952 C70.785,192.695 71.925,194.271 71.443,195.472 C70.962,196.674 69.042,197.046 67.154,196.304 C67.154,196.304 56.681,192.184 56.681,192.184 C54.793,191.441 53.654,189.865 54.134,188.664 C54.617,187.461 56.537,187.090 58.425,187.833 C58.425,187.833 68.898,191.952 68.898,191.952 Z" id="path-15" class="cls-15" fill-rule="evenodd"/>
    <path d="M67.938,158.524 C67.938,158.524 68.837,160.591 68.837,160.591 C69.011,160.989 69.646,161.101 70.254,160.842 C70.864,160.581 71.217,160.046 71.043,159.648 C71.043,159.648 71.002,159.552 71.002,159.552 C70.829,159.154 71.182,158.619 71.790,158.359 C72.400,158.099 73.035,158.210 73.208,158.609 C73.208,158.609 75.143,163.050 75.143,163.050 C75.316,163.449 75.952,163.561 76.561,163.301 C77.169,163.040 77.522,162.506 77.349,162.107 C77.349,162.107 75.024,156.770 75.024,156.770 C75.024,156.770 70.271,145.859 70.271,145.859 C70.097,145.461 69.463,145.349 68.854,145.609 C68.245,145.869 67.891,146.404 68.065,146.801 C68.065,146.801 68.602,148.035 68.602,148.035 C68.776,148.433 68.423,148.967 67.813,149.228 C67.204,149.488 66.569,149.376 66.396,148.978 C66.396,148.978 63.841,143.111 63.841,143.111 C63.667,142.712 63.032,142.601 62.423,142.860 C61.814,143.121 61.461,143.655 61.635,144.054 C61.635,144.054 62.238,145.441 62.238,145.441 C62.238,145.441 67.938,158.524 67.938,158.524 Z" id="path-16" class="cls-15" fill-rule="evenodd"/>
    <path d="M81.073,179.110 C81.878,180.957 81.558,182.870 80.360,183.381 C79.162,183.894 77.538,182.812 76.733,180.965 C76.733,180.965 72.269,170.714 72.269,170.714 C71.464,168.868 71.784,166.955 72.982,166.443 C74.180,165.931 75.804,167.013 76.607,168.860 C76.607,168.860 81.073,179.110 81.073,179.110 Z" id="path-17" class="cls-15" fill-rule="evenodd"/>
  </g>
</svg>
