<svg xmlns="http://www.w3.org/2000/svg" xmlns:xlink="http://www.w3.org/1999/xlink" preserveAspectRatio="xMidYMid" width="211" height="217" viewBox="0 0 211 217">
  <defs>
    <style>

      .cls-3 {
        fill: #ff3a2f;
      }

      .cls-4 {
        fill: #020403;
        opacity: 0.25;
      }

      .cls-5 {
        fill: #142a3b;
      }

      .cls-7 {
        fill: #000000;
        opacity: 0.35;
      }

      .cls-10 {
        fill: #0cb04a;
      }
    </style>
  </defs>
  <g id="group-119svg">
    <path d="M149.860,190.204 C149.860,190.204 29.867,190.204 29.867,190.204 C29.867,190.204 29.867,42.209 29.867,42.209 C29.867,42.209 149.860,42.209 149.860,42.209 C149.860,42.209 149.860,190.204 149.860,190.204 Z" id="path-1" class="cls-3" fill-rule="evenodd"/>
    <path d="M128.365,40.528 C128.365,40.528 128.365,144.646 128.365,144.646 C128.365,156.940 118.502,166.906 106.337,166.906 C106.337,166.906 29.355,166.906 29.355,166.906 C29.355,166.906 29.355,189.885 29.355,189.885 C29.355,189.885 149.438,189.885 149.438,189.885 C149.438,189.885 149.438,40.528 149.438,40.528 C149.438,40.528 128.365,40.528 128.365,40.528 Z" id="path-2" class="cls-4" fill-rule="evenodd"/>
    <path d="M65.865,172.102 C63.853,172.102 62.865,170.487 62.865,168.499 C62.865,168.499 62.865,81.981 62.865,81.981 C62.865,79.991 63.853,78.376 65.865,78.376 C67.876,78.376 68.865,79.991 68.865,81.981 C68.865,81.981 68.865,168.499 68.865,168.499 C68.865,170.487 67.876,172.102 65.865,172.102 Z" id="path-3" class="cls-5" fill-rule="evenodd"/>
    <path d="M113.362,172.102 C111.351,172.102 109.862,170.487 109.862,168.499 C109.862,168.499 109.862,81.981 109.862,81.981 C109.862,79.991 111.351,78.376 113.362,78.376 C115.373,78.376 116.862,79.991 116.862,81.981 C116.862,81.981 116.862,168.499 116.862,168.499 C116.862,170.487 115.373,172.102 113.362,172.102 Z" id="path-4" class="cls-5" fill-rule="evenodd"/>
    <path d="M149.670,60.462 C149.670,60.462 149.670,42.327 149.670,42.327 C149.670,42.327 29.830,42.327 29.830,42.327 C29.830,42.327 149.670,60.462 149.670,60.462 Z" id="path-5" class="cls-7" fill-rule="evenodd"/>
    <path d="M130.816,36.653 C130.816,36.653 81.728,21.275 81.728,21.275 C81.728,21.275 88.519,-0.000 88.519,-0.000 C88.519,-0.000 137.608,15.377 137.608,15.377 C137.608,15.377 130.816,36.653 130.816,36.653 Z" id="path-6" class="cls-3" fill-rule="evenodd"/>
    <path d="M176.837,56.478 C176.293,56.478 175.739,56.396 175.191,56.225 C175.191,56.225 34.064,12.014 34.064,12.014 C31.189,11.113 29.597,8.076 30.504,5.227 C31.417,2.381 34.476,0.797 37.355,1.702 C37.355,1.702 178.481,45.914 178.481,45.914 C181.356,46.815 182.949,49.852 182.043,52.698 C181.304,55.005 179.153,56.478 176.837,56.478 Z" id="path-7" class="cls-3" fill-rule="evenodd"/>
    <path d="M82.380,198.408 C82.380,198.408 99.154,198.408 99.154,198.408 C102.388,198.408 105.010,199.572 105.010,201.012 C105.010,202.450 102.388,203.617 99.154,203.617 C99.154,203.617 98.373,203.617 98.373,203.617 C95.138,203.617 92.517,204.784 92.517,206.222 C92.517,207.660 95.138,208.826 98.373,208.826 C98.373,208.826 134.434,208.826 134.434,208.826 C137.669,208.826 140.290,209.993 140.290,211.432 C140.290,212.871 137.669,214.036 134.434,214.036 C134.434,214.036 91.098,214.036 91.098,214.036 C91.098,214.036 43.468,214.036 43.468,214.036 C40.234,214.036 37.610,212.871 37.610,211.432 C37.610,209.993 40.234,208.826 43.468,208.826 C43.468,208.826 53.475,208.826 53.475,208.826 C56.709,208.826 59.332,207.660 59.332,206.222 C59.332,204.784 56.709,203.617 53.475,203.617 C53.475,203.617 5.845,203.617 5.845,203.617 C2.611,203.617 -0.012,202.450 -0.012,201.012 C-0.012,199.572 2.611,198.408 5.845,198.408 C5.845,198.408 17.102,198.408 17.102,198.408 C17.102,198.408 82.380,198.408 82.380,198.408 Z" id="path-8" class="cls-10" fill-rule="evenodd"/>
    <path d="M186.204,216.291 C189.898,216.291 192.892,214.959 192.892,213.317 C192.892,211.674 189.898,210.342 186.204,210.342 C186.204,210.342 165.715,210.342 165.715,210.342 C162.021,210.342 159.028,211.674 159.028,213.317 C159.028,214.959 162.021,216.291 165.715,216.291 C165.715,216.291 186.204,216.291 186.204,216.291 Z" id="path-9" class="cls-10" fill-rule="evenodd"/>
    <path d="M183.685,182.396 C183.685,182.396 191.388,182.396 191.388,182.396 C192.873,182.396 194.077,183.058 194.077,183.874 C194.077,184.691 192.873,185.352 191.388,185.352 C191.388,185.352 191.030,185.352 191.030,185.352 C189.544,185.352 188.340,186.013 188.340,186.830 C188.340,187.646 189.544,188.308 191.030,188.308 C191.030,188.308 207.588,188.308 207.588,188.308 C209.073,188.308 210.277,188.969 210.277,189.785 C210.277,190.601 209.073,191.263 207.588,191.263 C207.588,191.263 187.689,191.263 187.689,191.263 C187.689,191.263 147.015,191.263 147.015,191.263 C145.530,191.263 144.327,190.601 144.327,189.785 C144.327,188.969 145.530,188.308 147.015,188.308 C147.015,188.308 151.611,188.308 151.611,188.308 C153.096,188.308 154.300,187.646 154.300,186.830 C154.300,186.013 153.096,185.352 151.611,185.352 C151.611,185.352 129.740,185.352 129.740,185.352 C128.255,185.352 127.050,184.691 127.050,183.874 C127.050,183.058 128.255,182.396 129.740,182.396 C129.740,182.396 134.910,182.396 134.910,182.396 C134.910,182.396 183.685,182.396 183.685,182.396 Z" id="path-10" class="cls-10" fill-rule="evenodd"/>
  </g>
</svg>
