<svg xmlns="http://www.w3.org/2000/svg" xmlns:xlink="http://www.w3.org/1999/xlink" preserveAspectRatio="xMidYMid" width="219" height="175" viewBox="0 0 219 175">
  <defs>
    <style>

      .cls-3 {
        fill: #ff3a2f;
      }

      .cls-7 {
        fill: #142a3b;
      }

      .cls-9 {
        fill: #0cb04a;
      }

      .cls-10 {
        fill: #fbb713;
      }

      .cls-11 {
        fill: #020403;
        opacity: 0.35;
      }

      .cls-14 {
        fill: #ffffff;
      }
    </style>
  </defs>
  <g id="group-125svg">
    <path d="M78.679,157.569 C78.679,157.569 94.697,157.569 94.697,157.569 C97.784,157.569 100.288,158.684 100.288,160.056 C100.288,161.430 97.784,162.543 94.697,162.543 C94.697,162.543 93.952,162.543 93.952,162.543 C90.862,162.543 88.360,163.657 88.360,165.030 C88.360,166.403 90.862,167.518 93.952,167.518 C93.952,167.518 128.381,167.518 128.381,167.518 C131.468,167.518 133.972,168.631 133.972,170.005 C133.972,171.378 131.468,172.492 128.381,172.492 C128.381,172.492 87.004,172.492 87.004,172.492 C87.004,172.492 41.528,172.492 41.528,172.492 C38.439,172.492 35.936,171.378 35.936,170.005 C35.936,168.631 38.439,167.518 41.528,167.518 C41.528,167.518 51.083,167.518 51.083,167.518 C54.170,167.518 56.674,166.403 56.674,165.030 C56.674,163.657 54.170,162.543 51.083,162.543 C51.083,162.543 5.605,162.543 5.605,162.543 C2.517,162.543 0.014,161.430 0.014,160.056 C0.014,158.684 2.517,157.569 5.605,157.569 C5.605,157.569 16.354,157.569 16.354,157.569 C16.354,157.569 78.679,157.569 78.679,157.569 Z" id="path-1" class="cls-3" fill-rule="evenodd"/>
    <path d="M177.812,174.644 C181.337,174.644 184.196,173.373 184.196,171.804 C184.196,170.236 181.337,168.964 177.812,168.964 C177.812,168.964 158.246,168.964 158.246,168.964 C154.721,168.964 151.863,170.236 151.863,171.804 C151.863,173.373 154.721,174.644 158.246,174.644 C158.246,174.644 177.812,174.644 177.812,174.644 Z" id="path-2" class="cls-3" fill-rule="evenodd"/>
    <path d="M192.957,135.228 C192.957,135.228 200.311,135.228 200.311,135.228 C201.729,135.228 202.879,135.859 202.879,136.638 C202.879,137.418 201.729,138.049 200.311,138.049 C200.311,138.049 199.969,138.049 199.969,138.049 C198.550,138.049 197.402,138.681 197.402,139.460 C197.402,140.240 198.550,140.872 199.969,140.872 C199.969,140.872 215.779,140.872 215.779,140.872 C217.197,140.872 218.347,141.503 218.347,142.282 C218.347,143.061 217.197,143.694 215.779,143.694 C215.779,143.694 196.779,143.694 196.779,143.694 C196.779,143.694 157.946,143.694 157.946,143.694 C156.528,143.694 155.377,143.061 155.377,142.282 C155.377,141.503 156.528,140.872 157.946,140.872 C157.946,140.872 162.332,140.872 162.332,140.872 C163.751,140.872 164.900,140.240 164.900,139.460 C164.900,138.681 163.751,138.049 162.332,138.049 C162.332,138.049 141.450,138.049 141.450,138.049 C140.032,138.049 138.883,137.418 138.883,136.638 C138.883,135.859 140.032,135.228 141.450,135.228 C141.450,135.228 146.385,135.228 146.385,135.228 C146.385,135.228 192.957,135.228 192.957,135.228 Z" id="path-3" class="cls-3" fill-rule="evenodd"/>
    <path d="M137.181,145.220 C139.825,145.220 141.970,144.698 141.970,144.052 C141.970,143.408 139.825,142.884 137.181,142.884 C137.181,142.884 122.501,142.884 122.501,142.884 C119.856,142.884 117.712,143.408 117.712,144.052 C117.712,144.698 119.856,145.220 122.501,145.220 C122.501,145.220 137.181,145.220 137.181,145.220 Z" id="path-4" class="cls-3" fill-rule="evenodd"/>
    <path d="M154.059,119.573 C152.047,119.573 150.420,117.959 150.420,115.968 C150.420,113.979 152.047,112.363 154.059,112.363 C166.795,112.363 177.154,102.101 177.154,89.486 C177.154,76.870 166.795,66.608 154.059,66.608 C152.047,66.608 150.420,64.994 150.420,63.003 C150.420,61.012 152.047,59.399 154.059,59.399 C170.806,59.399 184.431,72.896 184.431,89.486 C184.431,106.076 170.806,119.573 154.059,119.573 Z" id="path-5" class="cls-7" fill-rule="evenodd"/>
    <path d="M47.021,119.573 C30.273,119.573 16.649,106.076 16.649,89.486 C16.649,72.896 30.273,59.399 47.021,59.399 C49.032,59.399 50.660,61.012 50.660,63.003 C50.660,64.994 49.032,66.608 47.021,66.608 C34.285,66.608 23.926,76.870 23.926,89.486 C23.926,102.101 34.285,112.363 47.021,112.363 C49.032,112.363 50.660,113.979 50.660,115.968 C50.660,117.959 49.032,119.573 47.021,119.573 Z" id="path-6" class="cls-7" fill-rule="evenodd"/>
    <path d="M150.202,151.279 C150.202,151.279 49.946,151.279 49.946,151.279 C47.938,151.279 46.311,149.652 46.311,147.644 C46.311,147.644 46.311,59.472 46.311,59.472 C46.311,59.472 153.837,59.472 153.837,59.472 C153.837,59.472 153.837,147.644 153.837,147.644 C153.837,149.652 152.210,151.279 150.202,151.279 Z" id="path-7" class="cls-9" fill-rule="evenodd"/>
    <path d="M125.023,21.934 C125.023,21.934 125.023,13.611 125.023,13.611 C125.023,6.091 118.869,-0.005 111.278,-0.005 C111.278,-0.005 90.785,-0.005 90.785,-0.005 C83.194,-0.005 77.040,6.091 77.040,13.611 C77.040,13.611 77.040,21.934 77.040,21.934 C77.040,21.934 46.311,32.903 46.311,32.903 C46.311,32.903 46.311,62.155 46.311,62.155 C46.311,62.155 154.551,62.155 154.551,62.155 C154.551,62.155 154.551,32.903 154.551,32.903 C154.551,32.903 125.023,21.934 125.023,21.934 Z" id="path-8" class="cls-10" fill-rule="evenodd"/>
    <path d="M139.073,62.519 C139.073,62.519 139.073,127.824 139.073,127.824 C139.073,134.920 133.065,140.674 125.656,140.674 C125.656,140.674 46.548,140.674 46.548,140.674 C47.659,146.695 53.120,151.279 59.727,151.279 C59.727,151.279 140.420,151.279 140.420,151.279 C147.829,151.279 153.837,145.526 153.837,138.429 C153.837,138.429 153.837,62.519 153.837,62.519 C153.837,62.519 139.073,62.519 139.073,62.519 Z" id="path-9" class="cls-11" fill-rule="evenodd"/>
    <path d="M125.023,21.934 C125.023,21.934 125.023,13.611 125.023,13.611 C125.023,6.091 118.869,-0.005 111.278,-0.005 C111.278,-0.005 96.514,-0.005 96.514,-0.005 C104.105,-0.005 110.259,6.091 110.259,13.611 C110.259,13.611 110.259,18.136 110.259,18.136 C110.259,20.424 111.681,22.477 113.836,23.298 C113.836,23.298 132.664,30.479 132.664,30.479 C136.492,31.940 139.018,35.584 139.018,39.650 C139.018,39.650 139.018,62.155 139.018,62.155 C139.018,62.155 154.551,62.155 154.551,62.155 C154.551,62.155 154.551,32.903 154.551,32.903 C154.551,32.903 125.023,21.934 125.023,21.934 Z" id="path-10" class="cls-11" fill-rule="evenodd"/>
    <path d="M122.014,93.112 C122.014,87.755 117.630,83.411 112.221,83.411 C106.814,83.411 102.429,87.755 102.429,93.112 C102.429,95.667 99.633,95.667 99.633,93.112 C99.633,87.755 95.249,83.411 89.840,83.411 C84.432,83.411 80.047,87.755 80.047,93.112 C80.047,97.248 101.031,127.340 101.031,127.340 C101.031,127.340 122.014,97.248 122.014,93.112 Z" id="path-11" class="cls-3" fill-rule="evenodd"/>
    <path d="M93.650,12.106 C93.650,15.010 91.273,17.363 88.344,17.363 C85.413,17.363 83.038,15.010 83.038,12.106 C83.038,9.204 85.413,6.851 88.344,6.851 C91.273,6.851 93.650,9.204 93.650,12.106 Z" id="path-12" class="cls-14" fill-rule="evenodd"/>
    <path d="M56.740,127.007 C54.729,127.007 53.101,125.394 53.101,123.402 C53.101,123.402 53.101,75.411 53.101,75.411 C53.101,73.419 54.729,71.806 56.740,71.806 C58.751,71.806 60.379,73.419 60.379,75.411 C60.379,75.411 60.379,123.402 60.379,123.402 C60.379,125.394 58.751,127.007 56.740,127.007 Z" id="path-13" class="cls-14" fill-rule="evenodd"/>
  </g>
</svg>
