<svg xmlns="http://www.w3.org/2000/svg" xmlns:xlink="http://www.w3.org/1999/xlink" preserveAspectRatio="xMidYMid" width="219" height="208" viewBox="0 0 219 208">
  <defs>
    <style>

      .cls-3 {
        fill: #142a3b;
      }

      .cls-5 {
        fill: #ff3a2f;
      }

      .cls-6 {
        fill: #020403;
        opacity: 0.35;
      }

      .cls-7 {
        fill: #fbb713;
      }

      .cls-9 {
        fill: #020403;
        opacity: 0.25;
      }

      .cls-16 {
        fill: #a72720;
      }
    </style>
  </defs>
  <g id="group-145svg">
    <path d="M163.360,163.430 C163.360,163.430 173.325,163.430 173.325,163.430 C175.246,163.430 176.804,164.854 176.804,166.610 C176.804,168.365 175.246,169.790 173.325,169.790 C173.325,169.790 172.861,169.790 172.861,169.790 C170.940,169.790 169.383,171.212 169.383,172.968 C169.383,174.725 170.940,176.147 172.861,176.147 C172.861,176.147 194.284,176.147 194.284,176.147 C196.205,176.147 197.763,177.572 197.763,179.327 C197.763,181.083 196.205,182.506 194.284,182.506 C194.284,182.506 168.540,182.506 168.540,182.506 C168.540,182.506 140.244,182.506 140.244,182.506 C138.323,182.506 136.765,181.083 136.765,179.327 C136.765,177.572 138.323,176.147 140.244,176.147 C140.244,176.147 146.189,176.147 146.189,176.147 C148.111,176.147 149.668,174.725 149.668,172.968 C149.668,171.212 148.111,169.790 146.189,169.790 C146.189,169.790 117.894,169.790 117.894,169.790 C115.973,169.790 114.415,168.365 114.415,166.610 C114.415,164.854 115.973,163.430 117.894,163.430 C117.894,163.430 124.582,163.430 124.582,163.430 C124.582,163.430 163.360,163.430 163.360,163.430 Z" id="path-1" class="cls-3" fill-rule="evenodd"/>
    <path d="M210.741,203.857 C214.938,203.857 218.339,201.720 218.339,199.087 C218.339,196.453 214.938,194.319 210.741,194.319 C210.741,194.319 187.459,194.319 187.459,194.319 C183.263,194.319 179.861,196.453 179.861,199.087 C179.861,201.720 183.263,203.857 187.459,203.857 C187.459,203.857 210.741,203.857 210.741,203.857 Z" id="path-2" class="cls-3" fill-rule="evenodd"/>
    <path d="M128.041,190.668 C128.041,190.668 21.534,190.668 21.534,190.668 C21.534,190.668 21.534,119.955 21.534,119.955 C21.534,119.955 128.041,119.955 128.041,119.955 C128.041,119.955 128.041,190.668 128.041,190.668 Z" id="path-3" class="cls-5" fill-rule="evenodd"/>
    <path d="M105.077,146.071 C105.077,146.071 105.077,166.948 105.077,166.948 C105.077,166.948 45.630,166.948 45.630,166.948 C45.630,166.948 45.630,177.499 45.630,177.499 C45.630,177.499 119.278,177.499 119.278,177.499 C119.278,177.499 119.278,146.071 119.278,146.071 C119.278,146.071 105.077,146.071 105.077,146.071 Z" id="path-4" class="cls-6" fill-rule="evenodd"/>
    <path d="M112.178,170.465 C112.178,170.465 38.530,170.465 38.530,170.465 C38.530,170.465 38.530,139.036 38.530,139.036 C38.530,139.036 112.178,139.036 112.178,139.036 C112.178,139.036 112.178,170.465 112.178,170.465 Z" id="path-5" class="cls-7" fill-rule="evenodd"/>
    <path d="M113.153,105.339 C113.153,84.182 95.839,67.031 74.482,67.031 C53.126,67.031 35.812,84.182 35.812,105.339 C35.812,105.339 113.153,105.339 113.153,105.339 Z" id="path-6" class="cls-5" fill-rule="evenodd"/>
    <path d="M79.500,67.390 C89.123,74.358 95.402,85.592 95.402,98.306 C95.402,98.306 36.492,98.306 36.492,98.306 C36.064,100.587 35.812,102.933 35.812,105.338 C35.812,105.338 113.153,105.338 113.153,105.338 C113.153,85.870 98.481,69.831 79.500,67.390 Z" id="path-7" class="cls-9" fill-rule="evenodd"/>
    <path d="M150.701,119.955 C150.701,119.955 0.007,119.955 0.007,119.955 C0.007,119.955 0.007,103.117 0.007,103.117 C0.007,103.117 150.701,103.117 150.701,103.117 C150.701,103.117 150.701,119.955 150.701,119.955 Z" id="path-8" class="cls-3" fill-rule="evenodd"/>
    <path d="M21.534,127.994 C21.534,127.994 128.041,132.965 128.041,132.965 C128.041,132.965 128.041,119.955 128.041,119.955 C128.041,119.955 21.534,119.955 21.534,119.955 C21.534,119.955 21.534,127.994 21.534,127.994 Z" id="path-9" class="cls-6" fill-rule="evenodd"/>
    <path d="M150.701,207.506 C150.701,207.506 0.007,207.506 0.007,207.506 C0.007,207.506 0.007,190.668 0.007,190.668 C0.007,190.668 150.701,190.668 150.701,190.668 C150.701,190.668 150.701,207.506 150.701,207.506 Z" id="path-10" class="cls-3" fill-rule="evenodd"/>
    <path d="M21.534,183.635 C21.534,183.635 21.534,190.668 21.534,190.668 C21.534,190.668 128.041,190.668 128.041,190.668 C128.041,190.668 128.041,183.635 128.041,183.635 C128.041,183.635 21.534,183.635 21.534,183.635 Z" id="path-11" class="cls-6" fill-rule="evenodd"/>
    <path d="M84.671,63.097 C84.671,63.097 67.989,63.097 67.989,63.097 C67.989,63.097 67.989,55.887 67.989,55.887 C67.989,55.887 81.785,55.887 81.785,55.887 C81.785,55.887 95.019,43.540 95.019,43.540 C95.019,43.540 139.129,43.540 139.129,43.540 C139.129,43.540 139.129,34.798 139.129,34.798 C139.129,34.798 146.407,34.798 146.407,34.798 C146.407,34.798 146.407,50.750 146.407,50.750 C146.407,50.750 97.904,50.750 97.904,50.750 C97.904,50.750 84.671,63.097 84.671,63.097 Z" id="path-12" class="cls-3" fill-rule="evenodd"/>
    <path d="M154.687,34.798 C154.687,34.798 131.289,34.798 131.289,34.798 C131.289,34.798 131.289,0.002 131.289,0.002 C131.289,0.002 154.687,0.002 154.687,0.002 C154.687,0.002 154.687,34.798 154.687,34.798 Z" id="path-13" class="cls-5" fill-rule="evenodd"/>
    <path d="M147.587,0.002 C147.587,0.002 147.587,34.798 147.587,34.798 C147.587,34.798 154.687,34.798 154.687,34.798 C154.687,34.798 154.687,0.002 154.687,0.002 C154.687,0.002 147.587,0.002 147.587,0.002 Z" id="path-14" class="cls-16" fill-rule="evenodd"/>
    <path d="M80.809,45.237 C80.809,48.697 77.976,51.503 74.482,51.503 C70.989,51.503 68.156,48.697 68.156,45.237 C68.156,41.775 70.989,38.970 74.482,38.970 C77.976,38.970 80.809,41.775 80.809,45.237 Z" id="path-15" class="cls-3" fill-rule="evenodd"/>
    <path d="M80.809,153.965 C80.809,157.426 77.976,160.230 74.482,160.230 C70.989,160.230 68.156,157.426 68.156,153.965 C68.156,150.503 70.989,147.698 74.482,147.698 C77.976,147.698 80.809,150.503 80.809,153.965 Z" id="path-16" class="cls-5" fill-rule="evenodd"/>
    <path d="M78.033,147.698 C77.413,147.698 76.825,147.814 76.258,147.979 C78.881,148.742 80.809,151.118 80.809,153.965 C80.809,156.810 78.881,159.186 76.258,159.950 C76.825,160.115 77.413,160.230 78.033,160.230 C81.526,160.230 84.359,157.426 84.359,153.965 C84.359,150.503 81.526,147.698 78.033,147.698 Z" id="path-17" class="cls-6" fill-rule="evenodd"/>
    <path d="M159.072,77.001 C159.072,79.917 156.686,82.282 153.743,82.282 C150.800,82.282 148.413,79.917 148.413,77.001 C148.413,74.086 150.800,71.720 153.743,71.720 C156.686,71.720 159.072,74.086 159.072,77.001 Z" id="path-18" class="cls-5" fill-rule="evenodd"/>
    <path d="M196.898,93.635 C196.898,97.645 193.618,100.894 189.570,100.894 C185.523,100.894 182.242,97.645 182.242,93.635 C182.242,89.626 185.523,86.375 189.570,86.375 C193.618,86.375 196.898,89.626 196.898,93.635 Z" id="path-19" class="cls-5" fill-rule="evenodd"/>
  </g>
</svg>
