<svg xmlns="http://www.w3.org/2000/svg" xmlns:xlink="http://www.w3.org/1999/xlink" preserveAspectRatio="xMidYMid" width="219" height="204" viewBox="0 0 219 204">
  <defs>
    <style>

      .cls-3 {
        fill: #d99a02;
      }

      .cls-4 {
        fill: #fbb713;
      }

      .cls-5 {
        fill: #fccb56;
      }

      .cls-7 {
        fill: #bba300;
      }

      .cls-8 {
        fill: #2476ff;
      }
    </style>
  </defs>
  <g id="group-63svg">
    <path d="M36.365,88.333 C36.365,88.333 181.952,88.333 181.952,88.333 C181.952,88.333 181.952,150.589 181.952,150.589 C181.952,150.589 36.365,150.589 36.365,150.589 C36.365,150.589 36.365,88.333 36.365,88.333 Z" id="path-1" class="cls-3" fill-rule="evenodd"/>
    <path d="M75.434,84.984 C75.434,84.984 76.158,192.617 76.158,192.617 C76.158,192.617 85.825,177.052 111.204,185.434 C138.597,198.204 165.989,198.204 193.383,185.434 C193.383,185.434 193.383,41.558 193.383,41.558 C193.383,20.410 176.273,0.359 154.929,-0.006 C154.929,-0.006 38.691,0.505 38.691,0.505 C38.691,0.505 75.434,84.984 75.434,84.984 Z" id="path-2" class="cls-4" fill-rule="evenodd"/>
    <path d="M75.753,75.610 C75.753,117.089 59.160,150.715 38.691,150.715 C18.222,150.715 1.629,117.089 1.629,75.610 C1.629,34.131 18.222,0.505 38.691,0.505 C59.160,0.505 75.753,34.131 75.753,75.610 Z" id="path-3" class="cls-5" fill-rule="evenodd"/>
    <path d="M50.155,75.610 C50.155,88.440 45.022,98.841 38.691,98.841 C32.360,98.841 27.227,88.440 27.227,75.610 C27.227,62.780 32.360,52.379 38.691,52.379 C45.022,52.379 50.155,62.780 50.155,75.610 Z" id="path-4" class="cls-3" fill-rule="evenodd"/>
    <path d="M190.552,127.768 C190.552,127.768 185.718,127.768 185.718,127.768 C185.718,127.768 185.718,125.773 185.718,125.773 C185.718,125.773 190.552,125.773 190.552,125.773 C190.552,125.773 190.552,127.768 190.552,127.768 ZM180.884,127.768 C180.884,127.768 176.051,127.768 176.051,127.768 C176.051,127.768 176.051,125.773 176.051,125.773 C176.051,125.773 180.884,125.773 180.884,125.773 C180.884,125.773 180.884,127.768 180.884,127.768 ZM171.217,127.768 C171.217,127.768 166.384,127.768 166.384,127.768 C166.384,127.768 166.384,125.773 166.384,125.773 C166.384,125.773 171.217,125.773 171.217,125.773 C171.217,125.773 171.217,127.768 171.217,127.768 ZM161.550,127.768 C161.550,127.768 156.716,127.768 156.716,127.768 C156.716,127.768 156.716,125.773 156.716,125.773 C156.716,125.773 161.550,125.773 161.550,125.773 C161.550,125.773 161.550,127.768 161.550,127.768 ZM151.883,127.768 C151.883,127.768 147.049,127.768 147.049,127.768 C147.049,127.768 147.049,125.773 147.049,125.773 C147.049,125.773 151.883,125.773 151.883,125.773 C151.883,125.773 151.883,127.768 151.883,127.768 ZM142.216,127.768 C142.216,127.768 137.382,127.768 137.382,127.768 C137.382,127.768 137.382,125.773 137.382,125.773 C137.382,125.773 142.216,125.773 142.216,125.773 C142.216,125.773 142.216,127.768 142.216,127.768 ZM132.549,127.768 C132.549,127.768 127.715,127.768 127.715,127.768 C127.715,127.768 127.715,125.773 127.715,125.773 C127.715,125.773 132.549,125.773 132.549,125.773 C132.549,125.773 132.549,127.768 132.549,127.768 ZM122.882,127.768 C122.882,127.768 118.048,127.768 118.048,127.768 C118.048,127.768 118.048,125.773 118.048,125.773 C118.048,125.773 122.882,125.773 122.882,125.773 C122.882,125.773 122.882,127.768 122.882,127.768 ZM113.215,127.768 C113.215,127.768 108.381,127.768 108.381,127.768 C108.381,127.768 108.381,125.773 108.381,125.773 C108.381,125.773 113.215,125.773 113.215,125.773 C113.215,125.773 113.215,127.768 113.215,127.768 ZM103.548,127.768 C103.548,127.768 98.713,127.768 98.713,127.768 C98.713,127.768 98.713,125.773 98.713,125.773 C98.713,125.773 103.548,125.773 103.548,125.773 C103.548,125.773 103.548,127.768 103.548,127.768 ZM93.880,127.768 C93.880,127.768 89.047,127.768 89.047,127.768 C89.047,127.768 89.047,125.773 89.047,125.773 C89.047,125.773 93.880,125.773 93.880,125.773 C93.880,125.773 93.880,127.768 93.880,127.768 ZM84.213,127.768 C84.213,127.768 79.380,127.768 79.380,127.768 C79.380,127.768 79.380,125.773 79.380,125.773 C79.380,125.773 84.213,125.773 84.213,125.773 C84.213,125.773 84.213,127.768 84.213,127.768 Z" id="path-5" class="cls-7" fill-rule="evenodd"/>
    <path d="M116.005,179.899 C116.005,179.899 131.536,179.899 131.536,179.899 C134.531,179.899 136.959,181.423 136.959,183.303 C136.959,185.183 134.531,186.707 131.536,186.707 C131.536,186.707 130.813,186.707 130.813,186.707 C127.819,186.707 125.391,188.231 125.391,190.110 C125.391,191.989 127.819,193.513 130.813,193.513 C130.813,193.513 164.201,193.513 164.201,193.513 C167.196,193.513 169.623,195.036 169.623,196.917 C169.623,198.795 167.196,200.319 164.201,200.319 C164.201,200.319 124.078,200.319 124.078,200.319 C124.078,200.319 79.978,200.319 79.978,200.319 C76.983,200.319 74.556,198.795 74.556,196.917 C74.556,195.036 76.983,193.513 79.978,193.513 C79.978,193.513 89.244,193.513 89.244,193.513 C92.239,193.513 94.666,191.989 94.666,190.110 C94.666,188.231 92.239,186.707 89.244,186.707 C89.244,186.707 45.144,186.707 45.144,186.707 C42.149,186.707 39.722,185.183 39.722,183.303 C39.722,181.423 42.149,179.899 45.144,179.899 C45.144,179.899 55.567,179.899 55.567,179.899 C55.567,179.899 116.005,179.899 116.005,179.899 Z" id="path-6" class="cls-8" fill-rule="evenodd"/>
    <path d="M24.552,147.807 C24.552,147.807 29.553,147.807 29.553,147.807 C30.517,147.807 31.299,148.643 31.299,149.677 C31.299,150.708 30.517,151.546 29.553,151.546 C29.553,151.546 29.320,151.546 29.320,151.546 C28.356,151.546 27.575,152.383 27.575,153.416 C27.575,154.448 28.356,155.285 29.320,155.285 C29.320,155.285 40.069,155.285 40.069,155.285 C41.034,155.285 41.815,156.122 41.815,157.155 C41.815,158.187 41.034,159.024 40.069,159.024 C40.069,159.024 27.152,159.024 27.152,159.024 C27.152,159.024 12.954,159.024 12.954,159.024 C11.989,159.024 11.207,158.187 11.207,157.155 C11.207,156.122 11.989,155.285 12.954,155.285 C12.954,155.285 15.937,155.285 15.937,155.285 C16.900,155.285 17.682,154.448 17.682,153.416 C17.682,152.383 16.900,151.546 15.937,151.546 C15.937,151.546 1.738,151.546 1.738,151.546 C0.774,151.546 -0.007,150.708 -0.007,149.677 C-0.007,148.643 0.774,147.807 1.738,147.807 C1.738,147.807 5.094,147.807 5.094,147.807 C5.094,147.807 24.552,147.807 24.552,147.807 Z" id="path-7" class="cls-8" fill-rule="evenodd"/>
    <path d="M196.355,155.902 C196.355,155.902 201.356,155.902 201.356,155.902 C202.320,155.902 203.101,156.739 203.101,157.771 C203.101,158.804 202.320,159.642 201.356,159.642 C201.356,159.642 201.123,159.642 201.123,159.642 C200.159,159.642 199.377,160.478 199.377,161.510 C199.377,162.543 200.159,163.380 201.123,163.380 C201.123,163.380 211.872,163.380 211.872,163.380 C212.836,163.380 213.618,164.217 213.618,165.250 C213.618,166.282 212.836,167.120 211.872,167.120 C211.872,167.120 198.954,167.120 198.954,167.120 C198.954,167.120 184.756,167.120 184.756,167.120 C183.792,167.120 183.010,166.282 183.010,165.250 C183.010,164.217 183.792,163.380 184.756,163.380 C184.756,163.380 187.739,163.380 187.739,163.380 C188.703,163.380 189.484,162.543 189.484,161.510 C189.484,160.478 188.703,159.642 187.739,159.642 C187.739,159.642 173.541,159.642 173.541,159.642 C172.576,159.642 171.795,158.804 171.795,157.771 C171.795,156.739 172.576,155.902 173.541,155.902 C173.541,155.902 176.896,155.902 176.896,155.902 C176.896,155.902 196.355,155.902 196.355,155.902 Z" id="path-8" class="cls-8" fill-rule="evenodd"/>
    <path d="M212.134,203.264 C215.553,203.264 218.325,201.525 218.325,199.379 C218.325,197.232 215.553,195.492 212.134,195.492 C212.134,195.492 193.162,195.492 193.162,195.492 C189.743,195.492 186.971,197.232 186.971,199.379 C186.971,201.525 189.743,203.264 193.162,203.264 C193.162,203.264 212.134,203.264 212.134,203.264 Z" id="path-9" class="cls-8" fill-rule="evenodd"/>
  </g>
</svg>
