<svg xmlns="http://www.w3.org/2000/svg" xmlns:xlink="http://www.w3.org/1999/xlink" preserveAspectRatio="xMidYMid" width="219" height="186" viewBox="0 0 219 186">
  <defs>
    <style>

      .cls-3 {
        fill: #2476ff;
      }

      .cls-6 {
        fill: #ededed;
      }

      .cls-7 {
        fill: #000000;
        opacity: 0.25;
      }

      .cls-10 {
        fill: #ff3a2f;
      }
    </style>
  </defs>
  <g id="group-33svg">
    <path d="M62.274,142.368 C62.274,142.368 74.953,142.368 74.953,142.368 C77.399,142.368 79.381,143.613 79.381,145.148 C79.381,146.682 77.399,147.925 74.953,147.925 C74.953,147.925 74.364,147.925 74.364,147.925 C71.919,147.925 69.937,149.170 69.937,150.704 C69.937,152.239 71.919,153.482 74.364,153.482 C74.364,153.482 101.623,153.482 101.623,153.482 C104.067,153.482 106.050,154.727 106.050,156.261 C106.050,157.796 104.067,159.040 101.623,159.040 C101.623,159.040 68.864,159.040 68.864,159.040 C68.864,159.040 32.860,159.040 32.860,159.040 C30.415,159.040 28.433,157.796 28.433,156.261 C28.433,154.727 30.415,153.482 32.860,153.482 C32.860,153.482 40.425,153.482 40.425,153.482 C42.870,153.482 44.852,152.239 44.852,150.704 C44.852,149.170 42.870,147.925 40.425,147.925 C40.425,147.925 4.420,147.925 4.420,147.925 C1.975,147.925 -0.006,146.682 -0.006,145.148 C-0.006,143.613 1.975,142.368 4.420,142.368 C4.420,142.368 12.930,142.368 12.930,142.368 C12.930,142.368 62.274,142.368 62.274,142.368 Z" id="path-1" class="cls-3" fill-rule="evenodd"/>
    <path d="M211.686,144.436 C215.354,144.436 218.326,142.569 218.326,140.268 C218.326,137.966 215.354,136.100 211.686,136.100 C211.686,136.100 191.338,136.100 191.338,136.100 C187.670,136.100 184.697,137.966 184.697,140.268 C184.697,142.569 187.670,144.436 191.338,144.436 C191.338,144.436 211.686,144.436 211.686,144.436 Z" id="path-2" class="cls-3" fill-rule="evenodd"/>
    <path d="M168.067,185.190 C171.735,185.190 174.708,183.326 174.708,181.024 C174.708,178.721 171.735,176.856 168.067,176.856 C168.067,176.856 147.719,176.856 147.719,176.856 C144.051,176.856 141.078,178.721 141.078,181.024 C141.078,183.326 144.051,185.190 147.719,185.190 C147.719,185.190 168.067,185.190 168.067,185.190 Z" id="path-3" class="cls-3" fill-rule="evenodd"/>
    <path d="M127.095,5.667 C84.256,5.667 49.526,40.071 49.526,82.511 C49.526,124.951 84.256,159.354 127.095,159.354 C169.936,159.354 204.665,124.951 204.665,82.511 C204.665,40.071 169.936,5.667 127.095,5.667 ZM127.095,124.519 C103.676,124.519 84.691,105.710 84.691,82.511 C84.691,59.310 103.676,40.503 127.095,40.503 C150.516,40.503 169.500,59.310 169.500,82.511 C169.500,105.710 150.516,124.519 127.095,124.519 Z" id="path-4" class="cls-6" fill-rule="evenodd"/>
    <path d="M199.196,54.298 C199.196,54.298 160.831,57.134 160.831,57.134 C164.446,61.841 167.087,67.309 168.439,73.275 C168.439,73.275 203.652,70.672 203.652,70.672 C202.761,64.984 201.274,59.502 199.196,54.298 Z" id="path-5" class="cls-7" fill-rule="evenodd"/>
    <path d="M139.044,42.222 C145.764,44.176 151.789,47.725 156.674,52.440 C156.674,52.440 153.502,10.332 153.502,10.332 C148.031,8.367 142.299,6.964 136.335,6.261 C136.335,6.261 139.044,42.222 139.044,42.222 Z" id="path-6" class="cls-7" fill-rule="evenodd"/>
    <path d="M152.633,115.990 C148.043,119.430 142.739,121.963 136.961,123.329 C136.961,123.329 143.812,157.518 143.812,157.518 C149.423,156.295 154.782,154.441 159.866,152.087 C159.866,152.087 152.633,115.990 152.633,115.990 Z" id="path-7" class="cls-7" fill-rule="evenodd"/>
    <path d="M134.565,47.922 C134.565,47.922 122.773,47.922 122.773,47.922 C117.980,47.922 113.935,44.395 113.324,39.685 C113.324,39.685 109.563,10.635 109.563,10.635 C108.832,4.993 113.270,-0.003 119.012,-0.003 C119.012,-0.003 138.327,-0.003 138.327,-0.003 C144.069,-0.003 148.506,4.993 147.776,10.635 C147.776,10.635 144.014,39.685 144.014,39.685 C143.405,44.395 139.358,47.922 134.565,47.922 Z" id="path-8" class="cls-10" fill-rule="evenodd"/>
    <path d="M122.773,116.800 C122.773,116.800 134.565,116.800 134.565,116.800 C139.358,116.800 143.405,120.327 144.014,125.037 C144.014,125.037 147.776,154.087 147.776,154.087 C148.506,159.729 144.069,164.725 138.327,164.725 C138.327,164.725 119.012,164.725 119.012,164.725 C113.270,164.725 108.832,159.729 109.563,154.087 C109.563,154.087 113.324,125.037 113.324,125.037 C113.935,120.327 117.980,116.800 122.773,116.800 Z" id="path-9" class="cls-10" fill-rule="evenodd"/>
    <path d="M163.433,88.201 C163.433,88.201 163.433,76.520 163.433,76.520 C163.433,71.772 166.994,67.764 171.748,67.160 C171.748,67.160 201.072,63.433 201.072,63.433 C206.768,62.709 211.811,67.105 211.811,72.793 C211.811,72.793 211.811,91.928 211.811,91.928 C211.811,97.617 206.768,102.013 201.072,101.289 C201.072,101.289 171.748,97.562 171.748,97.562 C166.994,96.958 163.433,92.949 163.433,88.201 Z" id="path-10" class="cls-10" fill-rule="evenodd"/>
    <path d="M93.906,76.520 C93.906,76.520 93.906,88.201 93.906,88.201 C93.906,92.949 90.345,96.958 85.591,97.562 C85.591,97.562 56.266,101.289 56.266,101.289 C50.571,102.013 45.527,97.617 45.527,91.928 C45.527,91.928 45.527,72.793 45.527,72.793 C45.527,67.105 50.571,62.709 56.266,63.433 C56.266,63.433 85.591,67.160 85.591,67.160 C90.345,67.764 93.906,71.772 93.906,76.520 Z" id="path-11" class="cls-10" fill-rule="evenodd"/>
  </g>
</svg>
