<svg xmlns="http://www.w3.org/2000/svg" xmlns:xlink="http://www.w3.org/1999/xlink" preserveAspectRatio="xMidYMid" width="206" height="217" viewBox="0 0 206 217">
  <defs>
    <style>

      .cls-3 {
        fill: #0cb04a;
      }

      .cls-7 {
        fill: #fbb713;
      }

      .cls-8 {
        fill: #ff3a2f;
      }

      .cls-9 {
        fill: #142a3b;
      }

      .cls-10 {
        fill: #000000;
        opacity: 0.35;
      }

      .cls-15 {
        fill: #2476ff;
      }

      .cls-16 {
        fill: #000000;
        opacity: 0.25;
      }

      .cls-17 {
        fill: #ffffff;
      }
    </style>
  </defs>
  <g id="group-19svg">
    <path d="M155.986,197.517 C155.986,197.517 170.274,197.517 170.274,197.517 C173.029,197.517 175.262,198.918 175.262,200.648 C175.262,202.376 173.029,203.778 170.274,203.778 C170.274,203.778 169.609,203.778 169.609,203.778 C166.854,203.778 164.621,205.180 164.621,206.908 C164.621,208.638 166.854,210.040 169.609,210.040 C169.609,210.040 200.324,210.040 200.324,210.040 C203.079,210.040 205.312,211.441 205.312,213.171 C205.312,214.900 203.079,216.301 200.324,216.301 C200.324,216.301 163.412,216.301 163.412,216.301 C163.412,216.301 122.842,216.301 122.842,216.301 C120.087,216.301 117.854,214.900 117.854,213.171 C117.854,211.441 120.087,210.040 122.842,210.040 C122.842,210.040 131.366,210.040 131.366,210.040 C134.122,210.040 136.355,208.638 136.355,206.908 C136.355,205.180 134.122,203.778 131.366,203.778 C131.366,203.778 90.796,203.778 90.796,203.778 C88.042,203.778 85.809,202.376 85.809,200.648 C85.809,198.918 88.042,197.517 90.796,197.517 C90.796,197.517 100.385,197.517 100.385,197.517 C100.385,197.517 155.986,197.517 155.986,197.517 Z" id="path-1" class="cls-3" fill-rule="evenodd"/>
    <path d="M30.425,202.747 C34.557,202.747 37.907,200.643 37.907,198.050 C37.907,195.456 34.557,193.354 30.425,193.354 C30.425,193.354 7.496,193.354 7.496,193.354 C3.363,193.354 0.014,195.456 0.014,198.050 C0.014,200.643 3.363,202.747 7.496,202.747 C7.496,202.747 30.425,202.747 30.425,202.747 Z" id="path-2" class="cls-3" fill-rule="evenodd"/>
    <path d="M24.810,48.541 C29.111,52.801 29.111,59.709 24.810,63.970 C20.509,68.231 13.535,68.231 9.234,63.970 C4.933,59.709 4.933,52.801 9.234,48.541 C13.535,44.279 20.509,44.279 24.810,48.541 Z" id="path-3" class="cls-3" fill-rule="evenodd"/>
    <path d="M60.467,2.078 C63.250,4.834 63.250,9.304 60.467,12.061 C57.685,14.816 53.173,14.816 50.391,12.061 C47.608,9.304 47.608,4.834 50.391,2.078 C53.173,-0.679 57.685,-0.679 60.467,2.078 Z" id="path-4" class="cls-3" fill-rule="evenodd"/>
    <path d="M111.454,199.004 C111.454,199.004 78.296,199.004 78.296,199.004 C59.460,199.004 44.190,183.734 44.190,164.898 C44.190,164.898 44.190,117.336 44.190,117.336 C44.190,95.094 62.221,77.064 84.462,77.064 C84.462,77.064 105.288,77.064 105.288,77.064 C127.530,77.064 145.561,95.094 145.561,117.336 C145.561,117.336 145.561,164.898 145.561,164.898 C145.561,183.734 130.291,199.004 111.454,199.004 Z" id="path-5" class="cls-7" fill-rule="evenodd"/>
    <path d="M111.943,77.064 C111.943,77.064 77.808,77.064 77.808,77.064 C77.808,77.064 77.808,60.667 77.808,60.667 C77.808,60.667 111.943,60.667 111.943,60.667 C111.943,60.667 111.943,77.064 111.943,77.064 Z" id="path-6" class="cls-8" fill-rule="evenodd"/>
    <path d="M166.558,25.827 C166.558,25.827 75.740,25.827 75.740,25.827 C72.026,25.827 69.016,28.809 69.016,32.488 C69.016,32.488 69.016,32.488 69.016,32.488 C69.016,36.167 72.026,39.148 75.740,39.148 C75.740,39.148 79.619,39.148 79.619,39.148 C83.331,39.148 86.342,42.130 86.342,45.809 C86.342,45.809 86.342,60.667 86.342,60.667 C86.342,60.667 103.409,60.667 103.409,60.667 C103.409,60.667 103.409,45.809 103.409,45.809 C103.409,42.130 106.420,39.148 110.133,39.148 C110.133,39.148 166.558,39.148 166.558,39.148 C170.271,39.148 173.282,36.167 173.282,32.488 C173.282,32.488 173.282,32.488 173.282,32.488 C173.282,28.809 170.271,25.827 166.558,25.827 Z" id="path-7" class="cls-9" fill-rule="evenodd"/>
    <path d="M86.342,50.277 C86.342,50.277 86.342,60.667 86.342,60.667 C86.342,60.667 103.409,60.667 103.409,60.667 C103.409,60.667 103.409,50.277 103.409,50.277 C103.409,50.277 86.342,50.277 86.342,50.277 Z" id="path-8" class="cls-10" fill-rule="evenodd"/>
    <path d="M111.943,107.310 C111.943,107.310 77.809,107.310 77.809,107.310 C77.809,107.310 77.809,100.101 77.809,100.101 C77.809,100.101 111.943,100.101 111.943,100.101 C111.943,100.101 111.943,107.310 111.943,107.310 Z" id="path-9" class="cls-9" fill-rule="evenodd"/>
    <path d="M111.943,124.218 C111.943,124.218 77.809,124.218 77.809,124.218 C77.809,124.218 77.809,117.008 77.809,117.008 C77.809,117.008 111.943,117.008 111.943,117.008 C111.943,117.008 111.943,124.218 111.943,124.218 Z" id="path-10" class="cls-9" fill-rule="evenodd"/>
    <path d="M111.943,141.126 C111.943,141.126 77.809,141.126 77.809,141.126 C77.809,141.126 77.809,133.916 77.809,133.916 C77.809,133.916 111.943,133.916 111.943,133.916 C111.943,133.916 111.943,141.126 111.943,141.126 Z" id="path-11" class="cls-9" fill-rule="evenodd"/>
    <path d="M156.229,93.973 C156.229,88.007 167.134,74.517 167.134,74.517 C167.134,74.517 178.038,88.007 178.038,93.973 C178.038,99.939 173.156,104.776 167.134,104.776 C161.111,104.776 156.229,99.939 156.229,93.973 Z" id="path-12" class="cls-3" fill-rule="evenodd"/>
    <path d="M145.561,159.041 C145.561,159.041 44.190,159.610 44.190,159.610 C44.190,159.610 44.190,179.377 44.190,179.377 C44.190,190.217 53.060,199.004 64.003,199.004 C64.003,199.004 125.749,199.004 125.749,199.004 C136.690,199.004 145.561,190.217 145.561,179.377 C145.561,179.377 145.561,159.610 145.561,159.610 C145.561,159.610 145.561,159.610 145.561,159.610 " id="path-13" class="cls-15" fill-rule="evenodd"/>
    <path d="M121.569,80.893 C129.847,88.388 135.072,99.137 135.072,111.121 C135.072,111.121 135.072,172.450 135.072,172.450 C135.072,183.289 126.201,192.077 115.260,192.077 C115.260,192.077 53.514,192.077 53.514,192.077 C51.724,192.077 50.000,191.821 48.351,191.380 C51.975,196.011 57.630,199.004 64.003,199.004 C64.003,199.004 125.749,199.004 125.749,199.004 C136.690,199.004 145.561,190.217 145.561,179.377 C145.561,179.377 145.561,118.048 145.561,118.048 C145.561,101.571 135.723,87.404 121.569,80.893 Z" id="path-14" class="cls-16" fill-rule="evenodd"/>
    <path d="M62.555,188.637 C60.545,188.637 58.916,187.023 58.916,185.033 C58.916,185.033 58.916,113.845 58.916,113.845 C58.916,111.854 60.545,110.240 62.555,110.240 C64.564,110.240 66.194,111.854 66.194,113.845 C66.194,113.845 66.194,185.033 66.194,185.033 C66.194,187.023 64.564,188.637 62.555,188.637 Z" id="path-15" class="cls-17" fill-rule="evenodd"/>
  </g>
</svg>
