<svg xmlns="http://www.w3.org/2000/svg" xmlns:xlink="http://www.w3.org/1999/xlink" preserveAspectRatio="xMidYMid" width="219" height="189" viewBox="0 0 219 189">
  <defs>
    <style>

      .cls-3 {
        fill: #142a3b;
      }

      .cls-4 {
        fill: #0cb04a;
      }

      .cls-5 {
        fill: #020403;
        opacity: 0.25;
      }

      .cls-7 {
        fill: #ffffff;
      }

      .cls-8 {
        fill: #010101;
        opacity: 0.25;
      }

      .cls-9 {
        fill: #fbb713;
      }
    </style>
  </defs>
  <g id="group-134svg">
    <path d="M99.414,188.120 C99.130,188.120 98.856,188.113 98.592,188.101 C96.585,188.002 95.039,186.313 95.136,184.323 C95.234,182.341 96.987,180.861 98.926,180.899 C100.302,180.948 112.385,180.966 114.513,166.493 C114.801,164.523 116.621,163.157 118.635,163.445 C120.625,163.731 122.004,165.562 121.712,167.531 C119.307,183.915 106.528,188.120 99.414,188.120 Z" id="path-1" class="cls-3" fill-rule="evenodd"/>
    <path d="M109.516,164.520 C109.516,164.520 118.114,164.520 118.114,164.520 C118.114,164.520 124.515,164.520 124.515,164.520 C124.515,164.520 124.515,143.521 124.515,143.521 C124.515,143.521 117.979,143.521 117.979,143.521 C117.979,143.521 109.516,143.521 109.516,143.521 C109.516,143.521 109.516,164.520 109.516,164.520 Z" id="path-2" class="cls-4" fill-rule="evenodd"/>
    <path d="M117.013,146.678 C117.013,146.678 110.234,146.678 110.234,146.678 C110.234,146.678 110.234,150.100 110.234,150.100 C110.234,150.100 117.148,153.521 117.148,153.521 C117.148,153.521 117.148,165.323 117.148,165.323 C117.148,165.323 124.790,165.323 124.790,165.323 C124.790,165.323 124.790,146.678 124.790,146.678 C124.790,146.678 117.013,146.678 117.013,146.678 Z" id="path-3" class="cls-5" fill-rule="evenodd"/>
    <path d="M178.988,73.802 C178.988,33.044 151.674,0.003 117.979,0.003 C84.285,0.003 56.969,33.044 56.969,73.802 C56.969,114.560 84.285,147.600 117.979,147.600 C151.674,147.600 178.988,114.560 178.988,73.802 Z" id="path-4" class="cls-4" fill-rule="evenodd"/>
    <path d="M70.960,69.887 C67.947,69.887 65.502,67.467 65.502,64.479 C65.502,34.859 85.868,10.761 110.898,10.761 C113.912,10.761 116.357,13.181 116.357,16.168 C116.357,19.155 113.912,21.575 110.898,21.575 C91.887,21.575 76.419,40.822 76.419,64.479 C76.419,67.467 73.974,69.887 70.960,69.887 Z" id="path-5" class="cls-7" fill-rule="evenodd"/>
    <path d="M135.725,3.394 C147.443,16.840 154.788,35.808 154.788,56.890 C154.788,97.648 127.474,130.688 93.778,130.688 C87.602,130.688 81.650,129.557 76.033,127.493 C86.970,140.047 101.712,147.797 117.979,147.797 C151.674,147.797 178.989,114.756 178.989,73.997 C178.989,40.709 160.761,12.589 135.725,3.394 Z" id="path-6" class="cls-8" fill-rule="evenodd"/>
    <path d="M77.426,82.416 C77.426,82.416 93.188,82.416 93.188,82.416 C96.227,82.416 98.691,83.725 98.691,85.338 C98.691,86.952 96.227,88.260 93.188,88.260 C93.188,88.260 92.455,88.260 92.455,88.260 C89.415,88.260 86.952,89.568 86.952,91.181 C86.952,92.795 89.415,94.102 92.455,94.102 C92.455,94.102 126.340,94.102 126.340,94.102 C129.379,94.102 131.843,95.410 131.843,97.022 C131.843,98.637 129.379,99.944 126.340,99.944 C126.340,99.944 85.619,99.944 85.619,99.944 C85.619,99.944 40.861,99.944 40.861,99.944 C37.822,99.944 35.358,98.637 35.358,97.022 C35.358,95.410 37.822,94.102 40.861,94.102 C40.861,94.102 50.265,94.102 50.265,94.102 C53.304,94.102 55.769,92.795 55.769,91.181 C55.769,89.568 53.304,88.260 50.265,88.260 C50.265,88.260 5.508,88.260 5.508,88.260 C2.469,88.260 0.005,86.952 0.005,85.338 C0.005,83.725 2.469,82.416 5.508,82.416 C5.508,82.416 16.087,82.416 16.087,82.416 C16.087,82.416 77.426,82.416 77.426,82.416 Z" id="path-7" class="cls-9" fill-rule="evenodd"/>
    <path d="M185.359,85.364 C188.829,85.364 191.642,83.871 191.642,82.029 C191.642,80.187 188.829,78.693 185.359,78.693 C185.359,78.693 166.104,78.693 166.104,78.693 C162.634,78.693 159.821,80.187 159.821,82.029 C159.821,83.871 162.634,85.364 166.104,85.364 C166.104,85.364 185.359,85.364 185.359,85.364 Z" id="path-8" class="cls-9" fill-rule="evenodd"/>
    <path d="M193.351,28.803 C193.351,28.803 200.589,28.803 200.589,28.803 C201.984,28.803 203.116,29.544 203.116,30.460 C203.116,31.376 201.984,32.117 200.589,32.117 C200.589,32.117 200.252,32.117 200.252,32.117 C198.856,32.117 197.724,32.860 197.724,33.775 C197.724,34.688 198.856,35.431 200.252,35.431 C200.252,35.431 215.810,35.431 215.810,35.431 C217.207,35.431 218.338,36.173 218.338,37.088 C218.338,38.004 217.207,38.745 215.810,38.745 C215.810,38.745 197.112,38.745 197.112,38.745 C197.112,38.745 158.893,38.745 158.893,38.745 C157.497,38.745 156.367,38.004 156.367,37.088 C156.367,36.173 157.497,35.431 158.893,35.431 C158.893,35.431 163.210,35.431 163.210,35.431 C164.606,35.431 165.738,34.688 165.738,33.775 C165.738,32.860 164.606,32.117 163.210,32.117 C163.210,32.117 142.659,32.117 142.659,32.117 C141.264,32.117 140.133,31.376 140.133,30.460 C140.133,29.544 141.264,28.803 142.659,28.803 C142.659,28.803 147.517,28.803 147.517,28.803 C147.517,28.803 193.351,28.803 193.351,28.803 Z" id="path-9" class="cls-9" fill-rule="evenodd"/>
    <path d="M138.457,40.538 C141.061,40.538 143.172,39.924 143.172,39.168 C143.172,38.409 141.061,37.795 138.457,37.795 C138.457,37.795 124.011,37.795 124.011,37.795 C121.408,37.795 119.296,38.409 119.296,39.168 C119.296,39.924 121.408,40.538 124.011,40.538 C124.011,40.538 138.457,40.538 138.457,40.538 Z" id="path-10" class="cls-9" fill-rule="evenodd"/>
  </g>
</svg>
