<svg xmlns="http://www.w3.org/2000/svg" xmlns:xlink="http://www.w3.org/1999/xlink" preserveAspectRatio="xMidYMid" width="194" height="216" viewBox="0 0 194 216">
  <defs>
    <style>

      .cls-3 {
        fill: #fbb713;
      }

      .cls-4 {
        fill: #142a3b;
      }

      .cls-7 {
        fill: #ff3a2f;
      }

      .cls-8 {
        fill: #2476ff;
      }

      .cls-9 {
        fill: #ffffff;
      }

      .cls-14 {
        fill: #010101;
        opacity: 0.35;
      }
    </style>
  </defs>
  <g id="group-26svg">
    <path d="M61.088,79.790 C61.088,79.790 16.005,35.128 16.005,35.128 C16.005,35.128 42.658,8.726 42.658,8.726 C42.658,8.726 87.740,53.387 87.740,53.387 C87.740,53.387 61.088,79.790 61.088,79.790 Z" id="path-1" class="cls-3" fill-rule="evenodd"/>
    <path d="M42.678,59.307 C42.678,59.307 37.533,54.208 37.533,54.208 C37.533,54.208 62.200,29.771 62.200,29.771 C62.200,29.771 67.345,34.869 67.345,34.869 C67.345,34.869 42.678,59.307 42.678,59.307 Z" id="path-2" class="cls-4" fill-rule="evenodd"/>
    <path d="M55.438,71.946 C55.438,71.946 50.292,66.848 50.292,66.848 C50.292,66.848 74.959,42.411 74.959,42.411 C74.959,42.411 80.105,47.509 80.105,47.509 C80.105,47.509 55.438,71.946 55.438,71.946 Z" id="path-3" class="cls-4" fill-rule="evenodd"/>
    <path d="M29.919,46.666 C29.919,46.666 24.774,41.568 24.774,41.568 C24.774,41.568 49.441,17.131 49.441,17.131 C49.441,17.131 54.587,22.229 54.587,22.229 C54.587,22.229 29.919,46.666 29.919,46.666 Z" id="path-4" class="cls-4" fill-rule="evenodd"/>
    <path d="M93.199,43.591 C93.199,43.591 52.049,2.826 52.049,2.826 C50.961,1.749 51.860,-0.083 53.387,0.098 C53.387,0.098 69.365,1.998 69.365,1.998 C69.725,2.040 70.061,2.202 70.317,2.456 C70.317,2.456 110.189,41.956 110.189,41.956 C111.234,42.991 110.449,44.756 108.974,44.693 C108.974,44.693 94.275,44.059 94.275,44.059 C93.870,44.042 93.486,43.875 93.199,43.591 Z" id="path-5" class="cls-7" fill-rule="evenodd"/>
    <path d="M148.363,85.961 C148.363,91.862 143.534,96.645 137.577,96.645 C131.621,96.645 126.791,91.862 126.791,85.961 C126.791,80.059 131.621,75.276 137.577,75.276 C143.534,75.276 148.363,80.059 148.363,85.961 Z" id="path-6" class="cls-8" fill-rule="evenodd"/>
    <path d="M142.451,82.357 C142.451,85.024 140.269,87.186 137.577,87.186 C134.885,87.186 132.702,85.024 132.702,82.357 C132.702,79.689 134.885,77.528 137.577,77.528 C140.269,77.528 142.451,79.689 142.451,82.357 Z" id="path-7" class="cls-9" fill-rule="evenodd"/>
    <path d="M193.688,6.924 C193.688,10.741 190.564,13.836 186.710,13.836 C182.856,13.836 179.733,10.741 179.733,6.924 C179.733,3.105 182.856,0.011 186.710,0.011 C190.564,0.011 193.688,3.105 193.688,6.924 Z" id="path-8" class="cls-8" fill-rule="evenodd"/>
    <path d="M13.364,145.092 C13.364,138.885 24.710,124.849 24.710,124.849 C24.710,124.849 36.055,138.885 36.055,145.092 C36.055,151.299 30.975,156.332 24.710,156.332 C18.444,156.332 13.364,151.299 13.364,145.092 Z" id="path-9" class="cls-8" fill-rule="evenodd"/>
    <path d="M94.262,36.244 C93.797,36.244 93.331,36.068 92.976,35.716 C92.976,35.716 66.744,9.728 66.744,9.728 C66.032,9.025 66.032,7.883 66.744,7.179 C67.454,6.475 68.605,6.475 69.316,7.179 C69.316,7.179 95.548,33.168 95.548,33.168 C96.259,33.871 96.259,35.013 95.548,35.716 C95.193,36.068 94.728,36.244 94.262,36.244 Z" id="path-10" class="cls-9" fill-rule="evenodd"/>
    <path d="M66.191,133.160 C66.191,133.160 150.119,216.302 150.119,216.302 C150.119,216.302 163.729,202.820 163.729,202.820 C163.729,202.820 83.203,123.047 83.203,123.047 C83.203,123.047 64.489,83.161 64.489,83.161 C64.489,83.161 14.587,33.725 14.587,33.725 C14.587,33.725 4.947,43.274 4.947,43.274 C4.947,43.274 49.746,87.656 49.746,87.656 C49.746,87.656 66.191,133.160 66.191,133.160 Z" id="path-11" class="cls-7" fill-rule="evenodd"/>
    <path d="M36.055,74.092 C36.055,74.092 36.055,54.992 36.055,54.992 C36.055,54.992 25.928,44.960 25.928,44.960 C25.928,44.960 25.928,44.960 25.928,44.960 C25.928,44.960 25.928,64.060 25.928,64.060 C25.928,64.060 36.055,74.092 36.055,74.092 Z" id="path-12" class="cls-14" fill-rule="evenodd"/>
    <path d="M36.638,197.577 C40.937,197.577 44.423,195.390 44.423,192.691 C44.423,189.992 40.937,187.805 36.638,187.805 C36.638,187.805 12.782,187.805 12.782,187.805 C8.482,187.805 4.997,189.992 4.997,192.691 C4.997,195.390 8.482,197.577 12.782,197.577 C12.782,197.577 36.638,197.577 36.638,197.577 Z" id="path-13" class="cls-8" fill-rule="evenodd"/>
    <path d="M26.724,50.288 C26.724,50.288 26.724,43.481 26.724,43.481 C26.724,41.525 24.730,39.939 22.271,39.939 C19.811,39.939 17.817,41.525 17.817,43.481 C17.817,43.481 17.817,72.281 17.817,72.281 C17.817,74.237 15.824,75.822 13.364,75.822 C10.905,75.822 8.911,74.237 8.911,72.281 C8.911,72.281 8.911,66.230 8.911,66.230 C8.911,64.274 6.917,62.688 4.458,62.688 C1.998,62.688 0.004,64.274 0.004,66.230 C0.004,66.230 0.004,95.030 0.004,95.030 C0.004,95.030 0.004,121.234 0.004,121.234 C0.004,123.189 1.998,124.774 4.458,124.774 C6.917,124.774 8.911,123.189 8.911,121.234 C8.911,121.234 8.911,99.429 8.911,99.429 C8.911,97.473 10.905,95.888 13.364,95.888 C15.824,95.888 17.817,97.473 17.817,99.429 C17.817,99.429 17.817,99.901 17.817,99.901 C17.817,101.857 19.811,103.442 22.271,103.442 C24.730,103.442 26.724,101.857 26.724,99.901 C26.724,99.901 26.724,89.758 26.724,89.758 C26.724,89.758 26.724,50.288 26.724,50.288 Z" id="path-14" class="cls-8" fill-rule="evenodd"/>
  </g>
</svg>
