<svg xmlns="http://www.w3.org/2000/svg" xmlns:xlink="http://www.w3.org/1999/xlink" preserveAspectRatio="xMidYMid" width="208" height="217" viewBox="0 0 208 217">
  <defs>
    <style>

      .cls-3 {
        fill: #0cb04a;
      }

      .cls-6 {
        fill: #142a3b;
      }

      .cls-8 {
        fill: #020403;
        opacity: 0.35;
      }

      .cls-9 {
        fill: #ff3a2f;
      }

      .cls-10 {
        fill: #ffffff;
      }

      .cls-12 {
        fill: #020403;
        opacity: 0.25;
      }

      .cls-13 {
        fill: #fbb713;
      }

      .cls-16 {
        fill: #020403;
        opacity: 0.2;
      }
    </style>
  </defs>
  <g id="group-38svg">
    <path d="M67.235,146.562 C67.235,146.562 80.926,146.562 80.926,146.562 C83.565,146.562 85.706,148.346 85.706,150.548 C85.706,152.749 83.565,154.534 80.926,154.534 C80.926,154.534 80.288,154.534 80.288,154.534 C77.649,154.534 75.509,156.319 75.509,158.520 C75.509,160.721 77.649,162.506 80.288,162.506 C80.288,162.506 109.721,162.506 109.721,162.506 C112.361,162.506 114.500,164.291 114.500,166.492 C114.500,168.693 112.361,170.478 109.721,170.478 C109.721,170.478 74.351,170.478 74.351,170.478 C74.351,170.478 35.475,170.478 35.475,170.478 C32.836,170.478 30.696,168.693 30.696,166.492 C30.696,164.291 32.836,162.506 35.475,162.506 C35.475,162.506 43.644,162.506 43.644,162.506 C46.284,162.506 48.423,160.721 48.423,158.520 C48.423,156.319 46.284,154.534 43.644,154.534 C43.644,154.534 4.768,154.534 4.768,154.534 C2.129,154.534 -0.011,152.749 -0.011,150.548 C-0.011,148.346 2.129,146.562 4.768,146.562 C4.768,146.562 13.956,146.562 13.956,146.562 C13.956,146.562 67.235,146.562 67.235,146.562 Z" id="path-1" class="cls-3" fill-rule="evenodd"/>
    <path d="M185.118,161.741 C185.118,161.741 191.577,161.741 191.577,161.741 C192.822,161.741 193.832,163.580 193.832,165.845 C193.832,168.113 192.822,169.950 191.577,169.950 C191.577,169.950 191.276,169.950 191.276,169.950 C190.030,169.950 189.022,171.787 189.022,174.055 C189.022,176.321 190.030,178.160 191.276,178.160 C191.276,178.160 205.162,178.160 205.162,178.160 C206.407,178.160 207.416,179.997 207.416,182.264 C207.416,184.531 206.407,186.368 205.162,186.368 C205.162,186.368 188.475,186.368 188.475,186.368 C188.475,186.368 170.135,186.368 170.135,186.368 C168.889,186.368 167.879,184.531 167.879,182.264 C167.879,179.997 168.889,178.160 170.135,178.160 C170.135,178.160 173.988,178.160 173.988,178.160 C175.233,178.160 176.243,176.321 176.243,174.055 C176.243,171.787 175.233,169.950 173.988,169.950 C173.988,169.950 155.648,169.950 155.648,169.950 C154.403,169.950 153.393,168.113 153.393,165.845 C153.393,163.580 154.403,161.741 155.648,161.741 C155.648,161.741 159.982,161.741 159.982,161.741 C159.982,161.741 185.118,161.741 185.118,161.741 Z" id="path-2" class="cls-3" fill-rule="evenodd"/>
    <path d="M49.644,198.030 C53.605,198.030 56.814,196.069 56.814,193.650 C56.814,191.232 53.605,189.270 49.644,189.270 C49.644,189.270 27.673,189.270 27.673,189.270 C23.713,189.270 20.504,191.232 20.504,193.650 C20.504,196.069 23.713,198.030 27.673,198.030 C27.673,198.030 49.644,198.030 49.644,198.030 Z" id="path-3" class="cls-3" fill-rule="evenodd"/>
    <path d="M156.810,30.152 C156.810,46.807 143.181,60.309 126.370,60.309 C109.557,60.309 95.927,46.807 95.927,30.152 C95.927,13.497 109.557,-0.005 126.370,-0.005 C143.181,-0.005 156.810,13.497 156.810,30.152 Z" id="path-4" class="cls-6" fill-rule="evenodd"/>
    <path d="M133.382,61.301 C133.382,77.956 119.753,91.458 102.940,91.458 C86.128,91.458 72.499,77.956 72.499,61.301 C72.499,44.645 86.128,31.144 102.940,31.144 C119.753,31.144 133.382,44.645 133.382,61.301 Z" id="path-5" class="cls-3" fill-rule="evenodd"/>
    <path d="M126.684,36.250 C113.797,39.758 104.316,51.419 104.316,65.300 C104.316,79.181 113.797,90.842 126.684,94.350 C139.572,90.842 149.052,79.181 149.052,65.300 C149.052,51.419 139.572,39.758 126.684,36.250 Z" id="path-6" class="cls-8" fill-rule="evenodd"/>
    <path d="M177.310,61.301 C177.310,77.956 163.682,91.458 146.869,91.458 C130.057,91.458 116.427,77.956 116.427,61.301 C116.427,44.645 130.057,31.144 146.869,31.144 C163.682,31.144 177.310,44.645 177.310,61.301 Z" id="path-7" class="cls-9" fill-rule="evenodd"/>
    <path d="M123.095,70.299 C121.084,70.299 119.456,68.685 119.456,66.694 C119.456,50.951 132.384,38.143 148.276,38.143 C150.287,38.143 151.915,39.757 151.915,41.748 C151.915,43.738 150.287,45.352 148.276,45.352 C136.397,45.352 126.734,54.927 126.734,66.694 C126.734,68.685 125.106,70.299 123.095,70.299 Z" id="path-8" class="cls-10" fill-rule="evenodd"/>
    <path d="M82.726,70.299 C80.714,70.299 79.088,68.685 79.088,66.694 C79.088,57.423 83.657,48.695 91.315,43.347 C92.954,42.200 95.224,42.589 96.386,44.215 C97.544,45.843 97.151,48.091 95.508,49.239 C89.784,53.239 86.365,59.764 86.365,66.694 C86.365,68.685 84.738,70.299 82.726,70.299 Z" id="path-9" class="cls-10" fill-rule="evenodd"/>
    <path d="M150.173,31.328 C159.155,36.572 165.199,46.227 165.199,57.301 C165.199,73.956 151.571,87.459 134.758,87.459 C133.641,87.459 132.541,87.390 131.455,87.274 C135.981,89.916 141.237,91.458 146.869,91.458 C163.682,91.458 177.310,77.956 177.310,61.301 C177.310,45.752 165.430,32.961 150.173,31.328 Z" id="path-10" class="cls-12" fill-rule="evenodd"/>
    <path d="M140.209,216.286 C140.209,216.286 178.479,77.049 178.479,77.049 C178.479,77.049 72.099,77.049 72.099,77.049 C72.099,77.049 110.370,216.286 110.370,216.286 C110.370,216.286 140.209,216.286 140.209,216.286 Z" id="path-11" class="cls-13" fill-rule="evenodd"/>
    <path d="M97.079,97.561 C97.079,97.561 97.079,101.477 97.079,101.477 C97.079,102.231 98.557,102.843 100.379,102.843 C102.201,102.843 103.677,102.231 103.677,101.477 C103.677,101.477 103.677,101.294 103.677,101.294 C103.677,100.539 105.155,99.927 106.978,99.927 C108.799,99.927 110.277,100.539 110.277,101.294 C110.277,101.294 110.277,109.710 110.277,109.710 C110.277,110.464 111.754,111.077 113.576,111.077 C115.399,111.077 116.875,110.464 116.875,109.710 C116.875,109.710 116.875,99.596 116.875,99.596 C116.875,99.596 116.875,88.481 116.875,88.481 C116.875,87.725 115.399,87.115 113.576,87.115 C111.754,87.115 110.277,87.725 110.277,88.481 C110.277,88.481 110.277,90.816 110.277,90.816 C110.277,91.571 108.799,92.183 106.978,92.183 C105.155,92.183 103.677,91.571 103.677,90.816 C103.677,90.816 103.677,79.701 103.677,79.701 C103.677,78.947 102.201,78.334 100.379,78.334 C98.557,78.334 97.079,78.947 97.079,79.701 C97.079,79.701 97.079,82.328 97.079,82.328 C97.079,82.328 97.079,97.561 97.079,97.561 Z" id="path-12" class="cls-12" fill-rule="evenodd"/>
    <path d="M93.043,89.564 C93.043,89.564 93.043,93.478 93.043,93.478 C93.043,94.233 94.520,94.844 96.342,94.844 C98.165,94.844 99.641,94.233 99.641,93.478 C99.641,93.478 99.641,93.296 99.641,93.296 C99.641,92.541 101.118,91.929 102.940,91.929 C104.763,91.929 106.240,92.541 106.240,93.296 C106.240,93.296 106.240,101.712 106.240,101.712 C106.240,102.466 107.716,103.078 109.539,103.078 C111.361,103.078 112.838,102.466 112.838,101.712 C112.838,101.712 112.838,91.598 112.838,91.598 C112.838,91.598 112.838,80.482 112.838,80.482 C112.838,79.728 111.361,79.116 109.539,79.116 C107.716,79.116 106.240,79.728 106.240,80.482 C106.240,80.482 106.240,82.818 106.240,82.818 C106.240,83.573 104.763,84.185 102.940,84.185 C101.118,84.185 99.641,83.573 99.641,82.818 C99.641,82.818 99.641,71.703 99.641,71.703 C99.641,70.947 98.165,70.336 96.342,70.336 C94.520,70.336 93.043,70.947 93.043,71.703 C93.043,71.703 93.043,74.330 93.043,74.330 C93.043,74.330 93.043,89.564 93.043,89.564 Z" id="path-13" class="cls-3" fill-rule="evenodd"/>
    <path d="M159.034,77.049 C159.034,77.049 124.060,204.289 124.060,204.289 C124.060,204.289 107.072,204.289 107.072,204.289 C107.072,204.289 110.370,216.286 110.370,216.286 C110.370,216.286 140.209,216.286 140.209,216.286 C140.209,216.286 178.479,77.049 178.479,77.049 C178.479,77.049 159.034,77.049 159.034,77.049 Z" id="path-14" class="cls-16" fill-rule="evenodd"/>
    <path d="M113.533,180.648 C111.937,180.648 110.472,179.600 110.029,178.001 C110.029,178.001 89.912,105.750 89.912,105.750 C89.375,103.831 90.516,101.846 92.453,101.316 C94.374,100.794 96.393,101.910 96.926,103.834 C96.926,103.834 117.043,176.085 117.043,176.085 C117.579,178.004 116.439,179.989 114.502,180.518 C114.179,180.606 113.856,180.648 113.533,180.648 Z" id="path-15" class="cls-10" fill-rule="evenodd"/>
  </g>
</svg>
