<svg xmlns="http://www.w3.org/2000/svg" xmlns:xlink="http://www.w3.org/1999/xlink" preserveAspectRatio="xMidYMid" width="219" height="192" viewBox="0 0 219 192">
  <defs>
    <style>

      .cls-3 {
        fill: #0cb04a;
      }

      .cls-4 {
        fill: #020403;
        opacity: 0.35;
      }

      .cls-5 {
        fill: #142a3b;
      }

      .cls-8 {
        fill: #ff3a2f;
      }
    </style>
  </defs>
  <g id="group-104svg">
    <path d="M159.688,141.005 C159.688,141.005 157.490,141.005 157.490,141.005 C158.053,139.456 158.387,137.722 158.387,135.830 C158.387,129.280 154.713,124.339 149.840,124.339 C149.840,124.339 117.370,124.339 117.370,124.339 C112.585,124.339 108.827,129.381 108.827,135.830 C108.827,137.706 109.178,139.448 109.757,141.005 C109.757,141.005 107.517,141.005 107.517,141.005 C103.129,141.005 99.820,145.696 99.820,151.917 C99.820,158.140 103.129,162.830 107.517,162.830 C107.517,162.830 159.688,162.830 159.688,162.830 C164.081,162.830 167.389,158.140 167.389,151.917 C167.389,145.696 164.081,141.005 159.688,141.005 Z" id="path-1" class="cls-3" fill-rule="evenodd"/>
    <path d="M159.688,141.005 C159.688,141.005 157.490,141.005 157.490,141.005 C158.053,139.456 158.387,137.722 158.387,135.830 C158.387,129.280 154.713,124.340 149.840,124.340 C149.840,124.340 117.370,124.340 117.370,124.340 C115.152,124.340 113.176,125.455 111.673,127.259 C111.673,127.259 140.998,127.259 140.998,127.259 C145.872,127.259 149.546,132.201 149.546,138.749 C149.546,140.642 149.211,142.375 148.649,143.926 C148.649,143.926 150.847,143.926 150.847,143.926 C155.239,143.926 158.548,148.615 158.548,154.836 C158.548,158.068 157.643,160.866 156.169,162.830 C156.169,162.830 159.688,162.830 159.688,162.830 C164.081,162.830 167.389,158.139 167.389,151.917 C167.389,145.696 164.081,141.005 159.688,141.005 Z" id="path-2" class="cls-4" fill-rule="evenodd"/>
    <path d="M106.371,97.533 C106.371,97.533 116.464,107.180 116.464,107.180 C116.453,107.378 116.410,107.566 116.410,107.763 C116.410,110.701 117.576,113.478 119.695,115.572 C121.816,117.674 124.618,118.829 127.586,118.829 C130.472,118.829 133.175,117.725 135.198,115.722 C135.198,115.722 157.372,93.756 157.372,93.756 C159.402,91.754 160.518,89.070 160.518,86.215 C160.518,83.270 159.351,80.494 157.229,78.392 C155.107,76.281 152.195,75.243 149.303,75.252 C149.303,75.252 136.188,62.708 136.188,62.708 C136.027,62.414 135.874,62.113 135.617,61.857 C135.617,61.857 97.296,23.895 97.296,23.895 C97.212,23.806 97.097,23.778 97.009,23.703 C97.009,23.703 85.162,12.366 85.162,12.366 C84.987,12.199 84.764,12.106 84.565,11.981 C84.621,11.517 84.705,11.061 84.705,10.582 C84.705,7.718 83.580,5.035 81.561,3.038 C77.443,-1.049 70.190,-0.965 65.997,3.209 C65.997,3.209 42.982,26.014 42.982,26.014 C40.839,28.124 39.659,30.921 39.659,33.877 C39.659,36.741 40.773,39.425 42.798,41.434 C44.816,43.433 47.521,44.538 50.416,44.538 C51.045,44.538 51.658,44.458 52.261,44.359 C52.445,44.731 52.664,45.086 52.978,45.389 C52.978,45.389 65.025,56.920 65.025,56.920 C65.185,57.066 65.387,57.146 65.566,57.264 C65.566,57.264 77.883,69.468 77.883,69.468 C77.883,69.468 1.072,145.554 1.072,145.554 C0.388,146.231 0.005,147.145 0.005,148.108 C0.005,149.061 0.388,149.975 1.072,150.654 C1.072,150.654 12.300,161.774 12.300,161.774 C13.011,162.477 13.941,162.830 14.871,162.830 C15.805,162.830 16.738,162.477 17.450,161.774 C17.450,161.774 94.258,85.691 94.258,85.691 C94.258,85.691 105.928,97.234 105.928,97.234 C106.059,97.370 106.228,97.426 106.371,97.533 Z" id="path-3" class="cls-5" fill-rule="evenodd"/>
    <path d="M50.416,44.538 C51.045,44.538 51.658,44.458 52.261,44.357 C52.445,44.731 52.664,45.086 52.978,45.388 C52.978,45.388 65.025,56.920 65.025,56.920 C65.185,57.066 65.387,57.146 65.566,57.264 C65.566,57.264 77.883,69.466 77.883,69.466 C77.883,69.466 85.250,62.169 85.250,62.169 C85.250,62.169 65.566,42.665 65.566,42.665 C65.387,42.548 65.185,42.468 65.025,42.321 C65.025,42.321 52.978,30.790 52.978,30.790 C52.664,30.489 52.445,30.133 52.261,29.760 C51.658,29.860 51.045,29.940 50.416,29.940 C47.521,29.940 44.816,28.834 42.798,26.837 C42.703,26.743 42.638,26.630 42.547,26.533 C40.705,28.578 39.659,31.148 39.659,33.877 C39.659,36.741 40.773,39.425 42.798,41.434 C44.816,43.431 47.521,44.538 50.416,44.538 Z" id="path-4" class="cls-4" fill-rule="evenodd"/>
    <path d="M157.372,79.157 C157.372,79.157 135.198,101.124 135.198,101.124 C133.175,103.125 130.472,104.232 127.586,104.232 C124.618,104.232 121.816,103.075 119.695,100.973 C117.576,98.879 116.410,96.103 116.410,93.164 C116.410,92.968 116.453,92.780 116.464,92.582 C116.464,92.582 106.371,82.934 106.371,82.934 C106.228,82.829 106.059,82.772 105.928,82.637 C105.928,82.637 94.258,71.092 94.258,71.092 C94.258,71.092 17.450,147.176 17.450,147.176 C16.738,147.880 15.805,148.232 14.871,148.232 C13.941,148.232 13.011,147.880 12.300,147.176 C12.300,147.176 5.867,140.804 5.867,140.804 C5.867,140.804 1.072,145.554 1.072,145.554 C0.388,146.231 0.005,147.145 0.005,148.108 C0.005,149.061 0.388,149.975 1.072,150.654 C1.072,150.654 12.300,161.774 12.300,161.774 C13.011,162.477 13.941,162.830 14.871,162.830 C15.805,162.830 16.738,162.477 17.450,161.774 C17.450,161.774 94.258,85.691 94.258,85.691 C94.258,85.691 105.928,97.234 105.928,97.234 C106.059,97.370 106.228,97.426 106.371,97.533 C106.371,97.533 116.464,107.180 116.464,107.180 C116.453,107.378 116.410,107.566 116.410,107.763 C116.410,110.701 117.576,113.478 119.695,115.572 C121.816,117.674 124.618,118.829 127.586,118.829 C130.472,118.829 133.175,117.725 135.198,115.722 C135.198,115.722 157.372,93.756 157.372,93.756 C159.402,91.754 160.517,89.070 160.517,86.213 C160.517,83.475 159.470,80.902 157.618,78.861 C157.529,78.955 157.465,79.067 157.372,79.157 Z" id="path-5" class="cls-4" fill-rule="evenodd"/>
    <path d="M176.248,89.332 C176.248,89.332 175.450,91.320 175.450,91.320 C175.297,91.703 175.648,92.200 176.235,92.430 C176.820,92.662 177.420,92.538 177.572,92.155 C177.572,92.155 177.609,92.063 177.609,92.063 C177.764,91.678 178.363,91.555 178.949,91.786 C179.535,92.015 179.885,92.515 179.732,92.898 C179.732,92.898 178.019,97.169 178.019,97.169 C177.865,97.553 178.216,98.050 178.802,98.280 C179.387,98.511 179.988,98.388 180.141,98.004 C180.141,98.004 182.200,92.869 182.200,92.869 C182.200,92.869 186.407,82.375 186.407,82.375 C186.560,81.991 186.210,81.494 185.624,81.262 C185.038,81.032 184.438,81.157 184.285,81.539 C184.285,81.539 183.809,82.726 183.809,82.726 C183.656,83.109 183.056,83.233 182.470,83.002 C181.884,82.772 181.534,82.273 181.687,81.891 C181.687,81.891 183.950,76.248 183.950,76.248 C184.103,75.863 183.753,75.366 183.167,75.136 C182.581,74.905 181.981,75.029 181.828,75.412 C181.828,75.412 181.293,76.746 181.293,76.746 C181.293,76.746 176.248,89.332 176.248,89.332 Z" id="path-6" class="cls-8" fill-rule="evenodd"/>
    <path d="M171.110,111.908 C170.398,113.685 168.887,114.758 167.735,114.305 C166.582,113.850 166.225,112.043 166.937,110.267 C166.937,110.267 170.889,100.407 170.889,100.407 C171.602,98.629 173.113,97.557 174.266,98.010 C175.418,98.463 175.775,100.271 175.064,102.048 C175.064,102.048 171.110,111.908 171.110,111.908 Z" id="path-7" class="cls-8" fill-rule="evenodd"/>
    <path d="M203.177,111.004 C203.177,111.004 201.196,111.852 201.196,111.852 C200.813,112.015 200.706,112.612 200.956,113.185 C201.206,113.760 201.718,114.093 202.100,113.929 C202.100,113.929 202.192,113.890 202.192,113.890 C202.575,113.725 203.086,114.058 203.337,114.632 C203.586,115.205 203.479,115.803 203.097,115.966 C203.097,115.966 198.836,117.788 198.836,117.788 C198.454,117.951 198.346,118.547 198.596,119.121 C198.847,119.695 199.358,120.027 199.741,119.864 C199.741,119.864 204.861,117.675 204.861,117.675 C204.861,117.675 215.327,113.202 215.327,113.202 C215.709,113.037 215.816,112.440 215.566,111.868 C215.317,111.293 214.804,110.961 214.422,111.124 C214.422,111.124 213.240,111.630 213.240,111.630 C212.858,111.793 212.346,111.460 212.095,110.887 C211.845,110.314 211.953,109.716 212.335,109.554 C212.335,109.554 217.964,107.148 217.964,107.148 C218.345,106.983 218.453,106.387 218.203,105.813 C217.953,105.239 217.441,104.906 217.058,105.071 C217.058,105.071 215.728,105.639 215.728,105.639 C215.728,105.639 203.177,111.004 203.177,111.004 Z" id="path-8" class="cls-8" fill-rule="evenodd"/>
    <path d="M183.431,123.371 C181.659,124.128 179.824,123.827 179.333,122.699 C178.841,121.572 179.880,120.043 181.652,119.285 C181.652,119.285 191.484,115.082 191.484,115.082 C193.256,114.324 195.090,114.625 195.582,115.753 C196.073,116.881 195.035,118.410 193.263,119.166 C193.263,119.166 183.431,123.371 183.431,123.371 Z" id="path-9" class="cls-8" fill-rule="evenodd"/>
    <path d="M94.570,175.899 C94.570,175.899 109.608,175.899 109.608,175.899 C112.508,175.899 114.858,176.945 114.858,178.235 C114.858,179.524 112.508,180.571 109.608,180.571 C109.608,180.571 108.908,180.571 108.908,180.571 C106.009,180.571 103.659,181.615 103.659,182.905 C103.659,184.195 106.009,185.239 108.908,185.239 C108.908,185.239 141.236,185.239 141.236,185.239 C144.136,185.239 146.486,186.286 146.486,187.575 C146.486,188.865 144.136,189.911 141.236,189.911 C141.236,189.911 102.386,189.911 102.386,189.911 C102.386,189.911 59.686,189.911 59.686,189.911 C56.787,189.911 54.437,188.865 54.437,187.575 C54.437,186.286 56.787,185.239 59.686,185.239 C59.686,185.239 68.659,185.239 68.659,185.239 C71.559,185.239 73.908,184.195 73.908,182.905 C73.908,181.615 71.559,180.571 68.659,180.571 C68.659,180.571 25.959,180.571 25.959,180.571 C23.060,180.571 20.709,179.524 20.709,178.235 C20.709,176.945 23.060,175.899 25.959,175.899 C25.959,175.899 36.050,175.899 36.050,175.899 C36.050,175.899 94.570,175.899 94.570,175.899 Z" id="path-10" class="cls-8" fill-rule="evenodd"/>
    <path d="M187.648,191.930 C190.958,191.930 193.642,190.737 193.642,189.264 C193.642,187.792 190.958,186.598 187.648,186.598 C187.648,186.598 169.278,186.598 169.278,186.598 C165.968,186.598 163.283,187.792 163.283,189.264 C163.283,190.737 165.968,191.930 169.278,191.930 C169.278,191.930 187.648,191.930 187.648,191.930 Z" id="path-11" class="cls-8" fill-rule="evenodd"/>
    <path d="M185.388,161.545 C185.388,161.545 192.294,161.545 192.294,161.545 C193.625,161.545 194.705,162.139 194.705,162.870 C194.705,163.602 193.625,164.196 192.294,164.196 C192.294,164.196 191.973,164.196 191.973,164.196 C190.641,164.196 189.562,164.789 189.562,165.520 C189.562,166.252 190.641,166.845 191.973,166.845 C191.973,166.845 206.817,166.845 206.817,166.845 C208.149,166.845 209.228,167.439 209.228,168.170 C209.228,168.902 208.149,169.494 206.817,169.494 C206.817,169.494 188.978,169.494 188.978,169.494 C188.978,169.494 152.515,169.494 152.515,169.494 C151.183,169.494 150.104,168.902 150.104,168.170 C150.104,167.439 151.183,166.845 152.515,166.845 C152.515,166.845 156.635,166.845 156.635,166.845 C157.966,166.845 159.046,166.252 159.046,165.520 C159.046,164.789 157.966,164.196 156.635,164.196 C156.635,164.196 137.028,164.196 137.028,164.196 C135.697,164.196 134.618,163.602 134.618,162.870 C134.618,162.139 135.697,161.545 137.028,161.545 C137.028,161.545 141.662,161.545 141.662,161.545 C141.662,161.545 185.388,161.545 185.388,161.545 Z" id="path-12" class="cls-8" fill-rule="evenodd"/>
  </g>
</svg>
