<svg xmlns="http://www.w3.org/2000/svg" xmlns:xlink="http://www.w3.org/1999/xlink" preserveAspectRatio="xMidYMid" width="209" height="217" viewBox="0 0 209 217">
  <defs>
    <style>

      .cls-3 {
        fill: #2476ff;
      }

      .cls-6 {
        fill: #ededed;
      }

      .cls-7 {
        fill: #020403;
        opacity: 0.25;
      }

      .cls-8 {
        fill: #142a3b;
      }

      .cls-10 {
        fill: #f4faff;
      }

      .cls-11 {
        fill: #020403;
        opacity: 0.35;
      }

      .cls-14 {
        fill: #ff3a2f;
      }
    </style>
  </defs>
  <g id="group-87svg">
    <path d="M160.075,183.986 C160.075,183.986 174.000,183.986 174.000,183.986 C176.685,183.986 178.861,186.412 178.861,189.402 C178.861,192.393 176.685,194.818 174.000,194.818 C174.000,194.818 173.352,194.818 173.352,194.818 C170.667,194.818 168.491,197.242 168.491,200.233 C168.491,203.224 170.667,205.649 173.352,205.649 C173.352,205.649 203.286,205.649 203.286,205.649 C205.971,205.649 208.147,208.074 208.147,211.065 C208.147,214.055 205.971,216.480 203.286,216.480 C203.286,216.480 167.313,216.480 167.313,216.480 C167.313,216.480 93.784,216.480 93.784,216.480 C91.099,216.480 88.923,214.055 88.923,211.065 C88.923,208.074 91.099,205.649 93.784,205.649 C93.784,205.649 102.092,205.649 102.092,205.649 C104.776,205.649 106.953,203.224 106.953,200.233 C106.953,197.242 104.776,194.818 102.092,194.818 C102.092,194.818 62.554,194.818 62.554,194.818 C59.869,194.818 57.693,192.393 57.693,189.402 C57.693,186.412 59.869,183.986 62.554,183.986 C62.554,183.986 71.898,183.986 71.898,183.986 C71.898,183.986 160.075,183.986 160.075,183.986 Z" id="path-1" class="cls-3" fill-rule="evenodd"/>
    <path d="M185.147,127.396 C185.147,127.396 189.630,127.396 189.630,127.396 C190.495,127.396 191.196,128.146 191.196,129.072 C191.196,129.997 190.495,130.748 189.630,130.748 C189.630,130.748 189.422,130.748 189.422,130.748 C188.557,130.748 187.857,131.499 187.857,132.424 C187.857,133.350 188.557,134.100 189.422,134.100 C189.422,134.100 199.059,134.100 199.059,134.100 C199.924,134.100 200.624,134.851 200.624,135.777 C200.624,136.702 199.924,137.453 199.059,137.453 C199.059,137.453 187.477,137.453 187.477,137.453 C187.477,137.453 174.748,137.453 174.748,137.453 C173.883,137.453 173.183,136.702 173.183,135.777 C173.183,134.851 173.883,134.100 174.748,134.100 C174.748,134.100 177.422,134.100 177.422,134.100 C178.287,134.100 178.987,133.350 178.987,132.424 C178.987,131.499 178.287,130.748 177.422,130.748 C177.422,130.748 164.692,130.748 164.692,130.748 C163.828,130.748 163.127,129.997 163.127,129.072 C163.127,128.146 163.828,127.396 164.692,127.396 C164.692,127.396 167.701,127.396 167.701,127.396 C167.701,127.396 185.147,127.396 185.147,127.396 Z" id="path-2" class="cls-3" fill-rule="evenodd"/>
    <path d="M62.410,216.771 C65.732,216.771 68.424,215.082 68.424,212.996 C68.424,210.910 65.732,209.221 62.410,209.221 C62.410,209.221 43.977,209.221 43.977,209.221 C40.655,209.221 37.962,210.910 37.962,212.996 C37.962,215.082 40.655,216.771 43.977,216.771 C43.977,216.771 62.410,216.771 62.410,216.771 Z" id="path-3" class="cls-3" fill-rule="evenodd"/>
    <path d="M0.014,175.814 C0.014,175.814 0.014,184.448 0.014,184.448 C0.014,186.100 2.052,183.979 3.719,183.979 C3.719,183.979 154.485,183.979 154.485,183.979 C156.151,183.979 156.005,186.100 156.005,184.448 C156.005,184.448 156.005,5.223 156.005,5.223 C156.005,3.572 156.151,-0.014 154.485,-0.014 C154.485,-0.014 3.719,-0.014 3.719,-0.014 C2.052,-0.014 0.014,3.572 0.014,5.223 C0.014,5.223 0.014,175.814 0.014,175.814 Z" id="path-4" class="cls-6" fill-rule="evenodd"/>
    <path d="M153.021,1.565 C153.021,1.565 132.920,1.565 132.920,1.565 C132.920,1.565 132.920,142.990 132.920,142.990 C132.920,156.008 122.267,166.561 109.127,166.561 C109.127,166.561 0.358,166.561 0.358,166.561 C0.358,166.561 0.358,175.814 0.358,175.814 C0.358,175.814 0.358,184.448 0.358,184.448 C0.358,185.727 1.405,186.765 2.696,186.765 C2.696,186.765 154.375,186.765 154.375,186.765 C155.666,186.765 156.713,185.727 156.713,184.448 C156.713,184.448 156.713,5.223 156.713,5.223 C156.713,3.211 155.052,1.565 153.021,1.565 Z" id="path-5" class="cls-7" fill-rule="evenodd"/>
    <path d="M144.754,46.985 C144.754,46.985 13.754,46.985 13.754,46.985 C11.745,46.985 10.115,44.975 10.115,42.985 C10.115,40.993 11.745,38.985 13.754,38.985 C13.754,38.985 144.754,38.985 144.754,38.985 C146.763,38.985 148.392,40.993 148.392,42.985 C148.392,44.975 146.763,46.985 144.754,46.985 Z" id="path-6" class="cls-8" fill-rule="evenodd"/>
    <path d="M119.432,84.303 C126.260,93.094 130.592,103.961 130.592,115.916 C130.592,143.926 107.670,166.636 79.393,166.636 C51.116,166.636 28.195,143.926 28.195,115.916 C28.195,87.906 51.116,65.196 79.393,65.196 C85.937,65.196 92.194,66.413 97.941,68.630 C97.941,68.630 109.101,71.005 119.432,84.303 Z" id="path-7" class="cls-3" fill-rule="evenodd"/>
    <path d="M91.928,155.840 C90.581,155.840 89.285,155.095 88.655,153.814 C87.774,152.025 88.525,149.867 90.332,148.995 C99.534,144.551 106.441,136.822 109.776,127.232 C113.111,117.643 112.476,107.340 107.990,98.225 C107.109,96.434 107.860,94.276 109.667,93.404 C111.464,92.535 113.649,93.272 114.532,95.065 C119.870,105.914 120.625,118.171 116.656,129.581 C112.688,140.991 104.472,150.188 93.520,155.475 C93.007,155.723 92.464,155.840 91.928,155.840 Z" id="path-8" class="cls-10" fill-rule="evenodd"/>
    <path d="M41.791,115.916 C41.791,90.193 61.138,68.994 86.195,65.694 C83.965,65.399 81.705,65.196 79.393,65.196 C51.116,65.196 28.195,87.906 28.195,115.916 C28.195,143.926 51.116,166.636 79.393,166.636 C81.704,166.636 83.962,166.431 86.191,166.139 C61.136,162.836 41.791,141.637 41.791,115.916 Z" id="path-9" class="cls-11" fill-rule="evenodd"/>
    <path d="M103.830,119.283 C103.830,128.457 112.077,136.152 125.514,138.387 C128.766,132.487 130.592,126.046 130.592,119.283 C130.592,112.506 128.674,106.098 125.390,100.199 C112.027,102.460 103.830,110.135 103.830,119.283 Z" id="path-10" class="cls-11" fill-rule="evenodd"/>
    <path d="M114.027,115.916 C114.027,125.089 120.179,132.785 130.203,135.020 C132.629,129.120 133.991,122.679 133.991,115.916 C133.991,109.139 132.560,102.730 130.110,96.832 C120.142,99.092 114.027,106.768 114.027,115.916 Z" id="path-11" class="cls-6" fill-rule="evenodd"/>
    <path d="M25.012,32.984 C25.012,32.984 14.013,32.984 14.013,32.984 C14.013,32.984 14.013,24.985 14.013,24.985 C14.013,24.985 25.012,24.985 25.012,24.985 C25.012,24.985 25.012,32.984 25.012,32.984 Z" id="path-12" class="cls-14" fill-rule="evenodd"/>
    <path d="M43.011,32.984 C43.011,32.984 32.012,32.984 32.012,32.984 C32.012,32.984 32.012,24.985 32.012,24.985 C32.012,24.985 43.011,24.985 43.011,24.985 C43.011,24.985 43.011,32.984 43.011,32.984 Z" id="path-13" class="cls-14" fill-rule="evenodd"/>
  </g>
</svg>
