<svg xmlns="http://www.w3.org/2000/svg" xmlns:xlink="http://www.w3.org/1999/xlink" preserveAspectRatio="xMidYMid" width="219" height="173" viewBox="0 0 219 173">
  <defs>
    <style>

      .cls-3 {
        fill: #fbb713;
      }

      .cls-4 {
        fill: #ffffff;
      }

      .cls-5 {
        fill: #ff3a2f;
      }

      .cls-6 {
        fill: #020403;
        opacity: 0.25;
      }

      .cls-7 {
        fill: #020403;
        opacity: 0.35;
      }

      .cls-9 {
        fill: #142a3b;
      }

      .cls-10 {
        fill: #0cb04a;
      }
    </style>
  </defs>
  <g id="group-80svg">
    <path d="M111.049,43.061 C60.335,43.061 19.221,84.135 19.221,134.030 C19.221,134.030 202.877,134.030 202.877,134.030 C202.877,84.135 161.764,43.061 111.049,43.061 Z" id="path-1" class="cls-3" fill-rule="evenodd"/>
    <path d="M40.583,119.800 C38.571,119.800 36.943,118.186 36.943,116.195 C36.943,83.716 63.616,57.291 96.406,57.291 C98.417,57.291 100.044,58.905 100.044,60.895 C100.044,62.887 98.417,64.501 96.406,64.501 C67.632,64.501 44.221,87.692 44.221,116.195 C44.221,118.186 42.593,119.800 40.583,119.800 Z" id="path-2" class="cls-4" fill-rule="evenodd"/>
    <path d="M130.250,19.009 C130.250,29.514 121.654,38.030 111.049,38.030 C100.445,38.030 91.849,29.514 91.849,19.009 C91.849,8.504 100.445,-0.011 111.049,-0.011 C121.654,-0.011 130.250,8.504 130.250,19.009 Z" id="path-3" class="cls-5" fill-rule="evenodd"/>
    <path d="M151.199,52.263 C155.240,55.763 158.969,59.607 162.342,63.744 C180.982,86.611 164.236,120.724 134.566,120.724 C134.566,120.724 20.219,120.724 20.219,120.724 C19.569,125.073 19.222,129.513 19.222,134.030 C19.222,134.030 202.877,134.030 202.877,134.030 C202.877,98.302 181.791,67.104 151.199,52.263 Z" id="path-4" class="cls-6" fill-rule="evenodd"/>
    <path d="M120.833,2.663 C122.538,5.505 123.535,8.811 123.535,12.355 C123.535,22.861 114.938,31.376 104.334,31.376 C100.756,31.376 97.418,30.390 94.550,28.701 C97.897,34.280 104.024,38.030 111.049,38.030 C121.654,38.030 130.250,29.514 130.250,19.009 C130.250,12.049 126.464,5.980 120.833,2.663 Z" id="path-5" class="cls-7" fill-rule="evenodd"/>
    <path d="M108.398,16.823 C106.302,18.900 102.903,18.900 100.807,16.823 C98.711,14.746 98.711,11.380 100.807,9.304 C102.903,7.227 106.302,7.227 108.398,9.304 C110.495,11.380 110.495,14.746 108.398,16.823 Z" id="path-6" class="cls-4" fill-rule="evenodd"/>
    <path d="M218.326,146.742 C218.326,146.742 5.036,146.742 5.036,146.742 C5.036,146.742 5.036,134.124 5.036,134.124 C5.036,134.124 218.326,134.124 218.326,134.124 C218.326,134.124 218.326,146.742 218.326,146.742 Z" id="path-7" class="cls-9" fill-rule="evenodd"/>
    <path d="M41.288,144.187 C41.288,144.187 29.327,144.187 29.327,144.187 C27.021,144.187 25.151,146.340 25.151,148.998 C25.151,151.655 27.021,153.808 29.327,153.808 C29.327,153.808 29.884,153.808 29.884,153.808 C32.190,153.808 34.060,155.962 34.060,158.618 C34.060,161.275 32.190,163.429 29.884,163.429 C29.884,163.429 4.170,163.429 4.170,163.429 C1.864,163.429 -0.006,165.583 -0.006,168.239 C-0.006,170.897 1.864,173.050 4.170,173.050 C4.170,173.050 35.071,173.050 35.071,173.050 C35.071,173.050 98.234,173.050 98.234,173.050 C100.540,173.050 102.409,170.897 102.409,168.239 C102.409,165.583 100.540,163.429 98.234,163.429 C98.234,163.429 91.097,163.429 91.097,163.429 C88.791,163.429 86.921,161.275 86.921,158.618 C86.921,155.962 88.791,153.808 91.097,153.808 C91.097,153.808 125.061,153.808 125.061,153.808 C127.367,153.808 129.236,151.655 129.236,148.998 C129.236,146.340 127.367,144.187 125.061,144.187 C125.061,144.187 117.034,144.187 117.034,144.187 C117.034,144.187 41.288,144.187 41.288,144.187 Z" id="path-8" class="cls-10" fill-rule="evenodd"/>
    <path d="M143.727,172.562 C139.938,172.562 136.865,171.061 136.865,169.208 C136.865,167.357 139.938,165.855 143.727,165.855 C143.727,165.855 164.757,165.855 164.757,165.855 C168.548,165.855 171.621,167.357 171.621,169.208 C171.621,171.061 168.548,172.562 164.757,172.562 C164.757,172.562 143.727,172.562 143.727,172.562 Z" id="path-9" class="cls-10" fill-rule="evenodd"/>
    <path d="M186.096,26.546 C186.096,26.546 181.810,26.546 181.810,26.546 C180.985,26.546 180.315,27.047 180.315,27.665 C180.315,28.284 180.985,28.785 181.810,28.785 C181.810,28.785 182.011,28.785 182.011,28.785 C182.836,28.785 183.507,29.286 183.507,29.905 C183.507,30.523 182.836,31.024 182.011,31.024 C182.011,31.024 172.800,31.024 172.800,31.024 C171.974,31.024 171.305,31.526 171.305,32.144 C171.305,32.763 171.974,33.264 172.800,33.264 C172.800,33.264 183.868,33.264 183.868,33.264 C183.868,33.264 206.493,33.264 206.493,33.264 C207.319,33.264 207.989,32.763 207.989,32.144 C207.989,31.526 207.319,31.024 206.493,31.024 C206.493,31.024 203.936,31.024 203.936,31.024 C203.110,31.024 202.440,30.523 202.440,29.905 C202.440,29.286 203.110,28.785 203.936,28.785 C203.936,28.785 216.102,28.785 216.102,28.785 C216.928,28.785 217.598,28.284 217.598,27.665 C217.598,27.047 216.928,26.546 216.102,26.546 C216.102,26.546 213.227,26.546 213.227,26.546 C213.227,26.546 186.096,26.546 186.096,26.546 Z" id="path-10" class="cls-10" fill-rule="evenodd"/>
  </g>
</svg>
