<svg xmlns="http://www.w3.org/2000/svg" xmlns:xlink="http://www.w3.org/1999/xlink" preserveAspectRatio="xMidYMid" width="180" height="217" viewBox="0 0 180 217">
  <defs>
    <style>

      .cls-3 {
        fill: #142a3b;
      }

      .cls-4 {
        fill: #fbb713;
      }

      .cls-5 {
        fill: #2476ff;
      }

      .cls-6 {
        fill: #020403;
        opacity: 0.35;
      }

      .cls-7 {
        fill: #ffffff;
      }
    </style>
  </defs>
  <g id="group-57svg">
    <path d="M176.097,40.685 C176.097,61.445 159.109,78.274 138.154,78.274 C117.198,78.274 100.211,61.445 100.211,40.685 C100.211,19.927 117.198,3.098 138.154,3.098 C159.109,3.098 176.097,19.927 176.097,40.685 Z" id="path-1" class="cls-3" fill-rule="evenodd"/>
    <path d="M107.081,68.932 C115.154,77.568 126.908,82.711 139.684,82.018 C162.492,80.798 180.039,61.404 178.793,38.810 C177.548,16.215 157.986,-1.168 135.164,0.065 C115.154,1.147 99.202,16.201 96.418,35.123 C96.418,35.123 102.687,35.123 102.687,35.123 C105.415,19.417 118.778,7.052 135.500,6.152 C154.922,5.098 171.588,19.902 172.637,39.143 C173.714,58.383 158.770,74.879 139.348,75.933 C128.741,76.501 118.974,72.328 112.104,65.300 C112.104,65.300 107.081,68.932 107.081,68.932 Z" id="path-2" class="cls-4" fill-rule="evenodd"/>
    <path d="M126.796,56.082 C141.531,47.404 140.915,38.561 140.789,37.576 C140.789,37.576 140.481,35.123 140.481,35.123 C140.481,35.123 0.329,35.123 0.329,35.123 C0.329,35.123 0.035,37.562 0.035,37.562 C-0.076,38.547 -0.706,47.404 14.028,56.068 C22.606,61.127 48.702,76.486 48.478,87.424 C48.478,87.424 48.478,99.942 48.478,99.942 C48.478,110.130 55.713,118.723 65.354,121.096 C65.354,121.096 65.354,186.801 65.354,186.801 C62.192,188.394 50.914,191.819 38.838,192.983 C29.029,194.937 31.561,196.282 31.561,196.282 C31.561,196.282 63.130,196.282 63.130,196.282 C63.130,196.282 68.377,196.282 68.377,196.282 C68.377,196.282 109.655,196.282 109.655,196.282 C109.655,196.282 112.187,194.937 102.379,192.983 C90.289,191.819 79.025,188.394 75.863,186.801 C75.863,186.801 75.863,121.011 75.863,121.011 C85.294,118.516 92.346,109.991 92.346,99.942 C92.346,99.942 92.346,87.368 92.346,87.368 C92.248,82.426 97.588,76.554 104.245,71.150 C104.245,71.150 124.142,57.637 126.796,56.082 Z" id="path-3" class="cls-5" fill-rule="evenodd"/>
    <path d="M140.789,37.576 C140.789,37.576 140.481,35.123 140.481,35.123 C140.481,35.123 131.113,35.123 131.113,35.123 C131.113,35.123 131.420,37.576 131.420,37.576 C131.546,38.561 132.163,47.404 117.428,56.082 C114.773,57.637 94.876,71.149 94.876,71.149 C88.220,76.554 82.879,82.426 82.977,87.368 C82.977,87.368 82.977,99.942 82.977,99.942 C82.977,109.991 75.925,118.516 66.494,121.011 C66.494,121.011 66.494,186.801 66.494,186.801 C69.656,188.394 80.921,191.819 93.010,192.983 C102.819,194.937 100.287,196.282 100.287,196.282 C100.287,196.282 109.655,196.282 109.655,196.282 C109.655,196.282 112.187,194.937 102.379,192.983 C90.289,191.819 79.025,188.394 75.863,186.801 C75.863,186.801 75.863,121.011 75.863,121.011 C85.294,118.516 92.346,109.991 92.346,99.942 C92.346,99.942 92.346,87.368 92.346,87.368 C92.248,82.426 97.588,76.554 104.245,71.149 C104.245,71.149 124.141,57.637 126.796,56.082 C141.531,47.404 140.915,38.561 140.789,37.576 Z" id="path-4" class="cls-6" fill-rule="evenodd"/>
    <path d="M74.094,118.542 C73.802,118.542 73.507,118.507 73.214,118.434 C61.651,115.590 53.575,105.454 53.575,93.782 C53.575,93.782 53.575,81.265 53.575,81.265 C53.642,77.902 49.497,69.872 20.978,53.052 C20.978,53.052 24.626,46.812 24.626,46.812 C24.626,46.812 22.764,49.909 22.764,49.909 C22.764,49.909 24.702,46.857 24.702,46.857 C41.656,56.855 61.088,69.813 60.853,81.338 C60.853,81.338 60.853,93.782 60.853,93.782 C60.853,102.134 66.656,109.394 74.966,111.437 C76.917,111.917 78.106,113.872 77.622,115.804 C77.210,117.444 75.727,118.542 74.094,118.542 Z" id="path-5" class="cls-7" fill-rule="evenodd"/>
    <path d="M138.900,11.723 C138.900,11.723 139.880,29.508 139.880,29.508 C139.880,29.508 147.996,13.637 147.996,13.637 C145.141,12.555 142.077,11.876 138.900,11.723 Z" id="path-6" class="cls-4" fill-rule="evenodd"/>
    <path d="M160.393,22.550 C158.420,20.152 156.096,18.086 153.481,16.408 C153.481,16.408 145.365,32.266 145.365,32.266 C145.365,32.266 160.393,22.550 160.393,22.550 Z" id="path-7" class="cls-4" fill-rule="evenodd"/>
    <path d="M123.913,14.940 C123.913,14.940 133.722,29.841 133.722,29.841 C133.722,29.841 132.743,12.056 132.743,12.056 C129.595,12.555 126.642,13.554 123.913,14.940 Z" id="path-8" class="cls-4" fill-rule="evenodd"/>
    <path d="M112.566,25.142 C112.566,25.142 128.573,33.181 128.573,33.181 C128.573,33.181 118.765,18.279 118.765,18.279 C116.344,20.235 114.259,22.550 112.566,25.142 Z" id="path-9" class="cls-4" fill-rule="evenodd"/>
    <path d="M126.853,68.447 C129.706,69.529 132.771,70.207 135.948,70.360 C135.948,70.360 134.968,52.575 134.968,52.575 C134.968,52.575 126.853,68.447 126.853,68.447 Z" id="path-10" class="cls-4" fill-rule="evenodd"/>
    <path d="M166.676,36.412 C166.172,33.293 165.165,30.354 163.765,27.665 C163.765,27.665 148.737,37.382 148.737,37.382 C148.737,37.382 166.676,36.412 166.676,36.412 Z" id="path-11" class="cls-4" fill-rule="evenodd"/>
    <path d="M156.083,63.789 C158.504,61.835 160.589,59.534 162.282,56.942 C162.282,56.942 146.274,48.902 146.274,48.902 C146.274,48.902 156.083,63.789 156.083,63.789 Z" id="path-12" class="cls-4" fill-rule="evenodd"/>
    <path d="M165.080,51.507 C166.172,48.680 166.858,45.643 167.012,42.498 C167.012,42.498 149.059,43.467 149.059,43.467 C149.059,43.467 165.080,51.507 165.080,51.507 Z" id="path-13" class="cls-4" fill-rule="evenodd"/>
    <path d="M142.104,70.013 C145.252,69.514 148.219,68.517 150.934,67.130 C150.934,67.130 141.125,52.228 141.125,52.228 C141.125,52.228 142.104,70.013 142.104,70.013 Z" id="path-14" class="cls-4" fill-rule="evenodd"/>
    <path d="M147.734,138.768 C147.734,138.768 156.525,138.768 156.525,138.768 C158.221,138.768 159.595,139.524 159.595,140.457 C159.595,141.390 158.221,142.147 156.525,142.147 C156.525,142.147 156.116,142.147 156.116,142.147 C154.421,142.147 153.047,142.903 153.047,143.834 C153.047,144.768 154.421,145.524 156.116,145.524 C156.116,145.524 168.921,145.524 168.921,145.524 C170.616,145.524 171.990,146.281 171.990,147.214 C171.990,148.146 170.616,148.903 168.921,148.903 C168.921,148.903 152.303,148.903 152.303,148.903 C152.303,148.903 127.340,148.903 127.340,148.903 C125.646,148.903 124.272,148.146 124.272,147.214 C124.272,146.281 125.646,145.524 127.340,145.524 C127.340,145.524 132.586,145.524 132.586,145.524 C134.281,145.524 135.655,144.768 135.655,143.834 C135.655,142.903 134.281,142.147 132.586,142.147 C132.586,142.147 107.623,142.147 107.623,142.147 C105.928,142.147 104.554,141.390 104.554,140.457 C104.554,139.524 105.928,138.768 107.623,138.768 C107.623,138.768 113.523,138.768 113.523,138.768 C113.523,138.768 147.734,138.768 147.734,138.768 Z" id="path-15" class="cls-4" fill-rule="evenodd"/>
    <path d="M40.729,162.932 C40.729,162.932 45.979,162.932 45.979,162.932 C46.992,162.932 47.812,163.456 47.812,164.103 C47.812,164.749 46.992,165.273 45.979,165.273 C45.979,165.273 45.735,165.273 45.735,165.273 C44.723,165.273 43.902,165.797 43.902,166.444 C43.902,167.090 44.723,167.614 45.735,167.614 C45.735,167.614 53.382,167.614 53.382,167.614 C54.394,167.614 55.215,168.139 55.215,168.785 C55.215,169.431 54.394,169.956 53.382,169.956 C53.382,169.956 43.457,169.956 43.457,169.956 C43.457,169.956 28.549,169.956 28.549,169.956 C27.537,169.956 26.716,169.431 26.716,168.785 C26.716,168.139 27.537,167.614 28.549,167.614 C28.549,167.614 31.681,167.614 31.681,167.614 C32.694,167.614 33.514,167.090 33.514,166.444 C33.514,165.797 32.694,165.273 31.681,165.273 C31.681,165.273 16.773,165.273 16.773,165.273 C15.761,165.273 14.940,164.749 14.940,164.103 C14.940,163.456 15.761,162.932 16.773,162.932 C16.773,162.932 20.297,162.932 20.297,162.932 C20.297,162.932 40.729,162.932 40.729,162.932 Z" id="path-16" class="cls-4" fill-rule="evenodd"/>
    <path d="M144.791,202.724 C144.791,202.724 157.233,202.724 157.233,202.724 C159.632,202.724 161.577,203.737 161.577,204.985 C161.577,206.236 159.632,207.248 157.233,207.248 C157.233,207.248 156.654,207.248 156.654,207.248 C154.255,207.248 152.310,208.260 152.310,209.510 C152.310,210.758 154.255,211.771 156.654,211.771 C156.654,211.771 174.776,211.771 174.776,211.771 C177.174,211.771 179.119,212.784 179.119,214.034 C179.119,215.283 177.174,216.295 174.776,216.295 C174.776,216.295 151.258,216.295 151.258,216.295 C151.258,216.295 115.930,216.295 115.930,216.295 C113.530,216.295 111.586,215.283 111.586,214.034 C111.586,212.784 113.530,211.771 115.930,211.771 C115.930,211.771 123.353,211.771 123.353,211.771 C125.752,211.771 127.697,210.758 127.697,209.510 C127.697,208.260 125.752,207.248 123.353,207.248 C123.353,207.248 88.024,207.248 88.024,207.248 C85.626,207.248 83.680,206.236 83.680,204.985 C83.680,203.737 85.626,202.724 88.024,202.724 C88.024,202.724 96.374,202.724 96.374,202.724 C96.374,202.724 144.791,202.724 144.791,202.724 Z" id="path-17" class="cls-4" fill-rule="evenodd"/>
    <path d="M110.291,150.111 C111.702,150.111 112.846,149.481 112.846,148.704 C112.846,147.927 111.702,147.298 110.291,147.298 C110.291,147.298 102.461,147.298 102.461,147.298 C101.050,147.298 99.906,147.927 99.906,148.704 C99.906,149.481 101.050,150.111 102.461,150.111 C102.461,150.111 110.291,150.111 110.291,150.111 Z" id="path-18" class="cls-4" fill-rule="evenodd"/>
  </g>
</svg>
