<svg xmlns="http://www.w3.org/2000/svg" xmlns:xlink="http://www.w3.org/1999/xlink" preserveAspectRatio="xMidYMid" width="219" height="166" viewBox="0 0 219 166">
  <defs>
    <style>

      .cls-3 {
        fill: #2476ff;
      }

      .cls-7 {
        fill: #fbb713;
      }

      .cls-8 {
        fill: #ffffff;
      }

      .cls-11 {
        fill: #020403;
        opacity: 0.25;
      }

      .cls-12 {
        fill: #020403;
        opacity: 0.35;
      }

      .cls-14 {
        fill: #020403;
      }

      .cls-15 {
        fill: #ff3a2f;
      }
    </style>
  </defs>
  <g id="group-130svg">
    <path d="M129.564,148.403 C129.564,148.403 139.252,148.403 139.252,148.403 C141.120,148.403 142.635,149.678 142.635,151.250 C142.635,152.822 141.120,154.096 139.252,154.096 C139.252,154.096 138.802,154.096 138.802,154.096 C136.933,154.096 135.420,155.370 135.420,156.942 C135.420,158.515 136.933,159.789 138.802,159.789 C138.802,159.789 159.628,159.789 159.628,159.789 C161.496,159.789 163.010,161.063 163.010,162.635 C163.010,164.208 161.496,165.482 159.628,165.482 C159.628,165.482 134.600,165.482 134.600,165.482 C134.600,165.482 107.091,165.482 107.091,165.482 C105.224,165.482 103.710,164.208 103.710,162.635 C103.710,161.063 105.224,159.789 107.091,159.789 C107.091,159.789 112.872,159.789 112.872,159.789 C114.740,159.789 116.255,158.515 116.255,156.942 C116.255,155.370 114.740,154.096 112.872,154.096 C112.872,154.096 85.364,154.096 85.364,154.096 C83.496,154.096 81.981,152.822 81.981,151.250 C81.981,149.678 83.496,148.403 85.364,148.403 C85.364,148.403 91.865,148.403 91.865,148.403 C91.865,148.403 129.564,148.403 129.564,148.403 Z" id="path-1" class="cls-3" fill-rule="evenodd"/>
    <path d="M180.926,22.848 C180.926,22.848 191.766,22.848 191.766,22.848 C193.856,22.848 195.551,24.421 195.551,26.359 C195.551,28.297 193.856,29.869 191.766,29.869 C191.766,29.869 191.262,29.869 191.262,29.869 C189.172,29.869 187.477,31.441 187.477,33.379 C187.477,35.317 189.172,36.888 191.262,36.888 C191.262,36.888 214.562,36.888 214.562,36.888 C216.652,36.888 218.347,38.459 218.347,40.397 C218.347,42.337 216.652,43.907 214.562,43.907 C214.562,43.907 186.561,43.907 186.561,43.907 C186.561,43.907 155.784,43.907 155.784,43.907 C153.694,43.907 152.000,42.337 152.000,40.397 C152.000,38.459 153.694,36.888 155.784,36.888 C155.784,36.888 162.250,36.888 162.250,36.888 C164.340,36.888 166.035,35.317 166.035,33.379 C166.035,31.441 164.340,29.869 162.250,29.869 C162.250,29.869 131.473,29.869 131.473,29.869 C129.384,29.869 127.690,28.297 127.690,26.359 C127.690,24.421 129.384,22.848 131.473,22.848 C131.473,22.848 138.747,22.848 138.747,22.848 C138.747,22.848 180.926,22.848 180.926,22.848 Z" id="path-2" class="cls-3" fill-rule="evenodd"/>
    <path d="M36.515,0.008 C36.515,0.008 42.203,0.008 42.203,0.008 C43.300,0.008 44.189,0.817 44.189,1.814 C44.189,2.813 43.300,3.622 42.203,3.622 C42.203,3.622 41.939,3.622 41.939,3.622 C40.842,3.622 39.952,4.430 39.952,5.428 C39.952,6.426 40.842,7.235 41.939,7.235 C41.939,7.235 54.164,7.235 54.164,7.235 C55.261,7.235 56.149,8.045 56.149,9.042 C56.149,10.041 55.261,10.849 54.164,10.849 C54.164,10.849 39.472,10.849 39.472,10.849 C39.472,10.849 23.323,10.849 23.323,10.849 C22.226,10.849 21.337,10.041 21.337,9.042 C21.337,8.045 22.226,7.235 23.323,7.235 C23.323,7.235 26.716,7.235 26.716,7.235 C27.812,7.235 28.701,6.426 28.701,5.428 C28.701,4.430 27.812,3.622 26.716,3.622 C26.716,3.622 10.566,3.622 10.566,3.622 C9.470,3.622 8.581,2.813 8.581,1.814 C8.581,0.817 9.470,0.008 10.566,0.008 C10.566,0.008 14.384,0.008 14.384,0.008 C14.384,0.008 36.515,0.008 36.515,0.008 Z" id="path-3" class="cls-3" fill-rule="evenodd"/>
    <path d="M25.673,99.860 C29.159,99.860 31.986,98.134 31.986,96.004 C31.986,93.875 29.159,92.149 25.673,92.149 C25.673,92.149 6.327,92.149 6.327,92.149 C2.840,92.149 0.014,93.875 0.014,96.004 C0.014,98.134 2.840,99.860 6.327,99.860 C6.327,99.860 25.673,99.860 25.673,99.860 Z" id="path-4" class="cls-3" fill-rule="evenodd"/>
    <path d="M110.476,96.586 C110.476,96.586 169.133,92.888 169.133,92.888 C170.315,88.215 170.978,83.335 170.978,78.297 C170.978,45.194 143.890,18.359 110.476,18.359 C77.061,18.359 49.972,45.194 49.972,78.297 C49.972,83.335 50.635,88.215 51.819,92.888 C51.819,92.888 110.476,96.586 110.476,96.586 Z" id="path-5" class="cls-7" fill-rule="evenodd"/>
    <path d="M62.660,73.523 C62.351,73.523 62.035,73.484 61.722,73.402 C59.782,72.891 58.623,70.918 59.139,68.993 C64.370,49.483 78.843,33.453 97.863,26.114 C99.735,25.392 101.843,26.307 102.575,28.164 C103.302,30.018 102.378,32.109 100.505,32.830 C83.644,39.339 70.809,53.549 66.175,70.844 C65.742,72.458 64.270,73.523 62.660,73.523 Z" id="path-6" class="cls-8" fill-rule="evenodd"/>
    <path d="M115.824,141.990 C163.777,139.617 208.228,129.795 208.228,129.795 C202.947,108.709 169.946,92.836 169.946,92.836 C169.946,92.836 110.476,96.586 110.476,96.586 C110.476,96.586 51.005,92.836 51.005,92.836 C51.005,92.836 18.003,108.709 12.723,129.795 C12.723,129.795 57.172,139.617 105.126,141.990 C105.126,141.990 108.695,142.290 110.476,142.224 C112.257,142.290 115.824,141.990 115.824,141.990 Z" id="path-7" class="cls-3" fill-rule="evenodd"/>
    <path d="M29.640,124.652 C28.877,124.652 28.105,124.413 27.448,123.921 C25.845,122.720 25.529,120.459 26.744,118.872 C33.756,109.694 44.186,102.326 51.705,97.759 C53.417,96.715 55.660,97.250 56.708,98.949 C57.760,100.646 57.220,102.866 55.507,103.906 C48.524,108.149 38.872,114.941 32.544,123.221 C31.830,124.158 30.742,124.652 29.640,124.652 Z" id="path-8" class="cls-8" fill-rule="evenodd"/>
    <path d="M110.476,18.359 C108.111,18.359 105.788,18.527 103.495,18.789 C126.303,27.375 142.540,49.170 142.540,74.776 C142.540,79.813 141.878,84.692 140.694,89.366 C140.694,89.366 82.038,93.065 82.038,93.065 C82.038,93.065 51.430,91.136 51.430,91.136 C51.559,91.720 51.673,92.310 51.819,92.888 C51.819,92.888 110.476,96.586 110.476,96.586 C110.476,96.586 169.131,92.888 169.131,92.888 C170.315,88.215 170.978,83.335 170.978,78.297 C170.978,45.194 143.890,18.359 110.476,18.359 Z" id="path-9" class="cls-11" fill-rule="evenodd"/>
    <path d="M169.947,92.836 C169.947,92.836 130.682,95.313 130.682,95.313 C140.829,101.794 155.137,112.996 158.463,126.273 C158.463,126.273 114.012,136.095 66.058,138.468 C66.058,138.468 65.875,138.484 65.607,138.504 C77.845,140.008 91.337,141.306 105.126,141.990 C105.126,141.990 108.695,142.290 110.476,142.224 C112.257,142.290 115.823,141.990 115.823,141.990 C163.777,139.617 208.228,129.795 208.228,129.795 C202.947,108.709 169.947,92.836 169.947,92.836 Z" id="path-10" class="cls-12" fill-rule="evenodd"/>
    <path d="M180.575,98.913 C174.542,95.049 169.947,92.836 169.947,92.836 C169.947,92.836 167.424,92.995 167.424,92.995 C167.424,92.995 167.424,136.904 167.424,136.904 C167.746,136.859 168.066,136.813 168.387,136.767 C168.387,136.767 175.081,115.324 175.081,115.324 C175.081,115.324 180.575,134.801 180.575,134.801 C180.575,134.801 180.575,98.913 180.575,98.913 Z" id="path-11" class="cls-12" fill-rule="evenodd"/>
    <path d="M144.188,91.922 C136.652,93.524 131.855,100.878 133.474,108.344 C135.093,115.810 142.515,120.562 150.052,118.957 C157.588,117.354 165.045,101.623 165.045,101.623 C165.045,101.623 151.723,90.317 144.188,91.922 ZM149.597,110.945 C146.381,111.629 143.216,109.603 142.524,106.417 C141.835,103.231 143.882,100.095 147.096,99.411 C150.311,98.725 155.994,103.550 155.994,103.550 C155.994,103.550 152.813,110.261 149.597,110.945 Z" id="path-12" class="cls-14" fill-rule="evenodd"/>
    <path d="M189.236,77.001 C185.471,70.338 176.966,67.961 170.241,71.691 C163.515,75.423 161.061,92.631 161.061,92.631 C161.061,92.631 177.154,99.550 183.879,95.819 C190.603,92.091 193.003,83.665 189.236,77.001 ZM179.878,90.777 C176.236,92.797 167.518,89.050 167.518,89.050 C167.518,89.050 168.847,79.727 172.490,77.707 C176.134,75.686 180.741,76.974 182.781,80.582 C184.821,84.191 183.521,88.755 179.878,90.777 Z" id="path-13" class="cls-15" fill-rule="evenodd"/>
    <path d="M144.188,81.358 C136.652,82.961 131.855,90.314 133.474,97.778 C135.093,105.245 142.515,109.997 150.052,108.393 C157.588,106.789 165.045,91.060 165.045,91.060 C165.045,91.060 151.723,79.753 144.188,81.358 ZM149.597,100.381 C146.381,101.065 143.216,99.037 142.524,95.852 C141.835,92.668 143.882,89.531 147.096,88.847 C150.311,88.163 155.994,92.985 155.994,92.985 C155.994,92.985 152.813,99.696 149.597,100.381 Z" id="path-14" class="cls-15" fill-rule="evenodd"/>
    <path d="M173.465,91.432 C173.465,91.432 173.465,138.323 173.465,138.323 C173.465,138.323 167.972,118.845 167.972,118.845 C167.972,118.845 160.315,143.372 160.315,143.372 C160.315,143.372 160.315,91.432 160.315,91.432 C160.315,91.432 173.465,91.432 173.465,91.432 Z" id="path-15" class="cls-15" fill-rule="evenodd"/>
  </g>
</svg>
