<svg xmlns="http://www.w3.org/2000/svg" xmlns:xlink="http://www.w3.org/1999/xlink" preserveAspectRatio="xMidYMid" width="219" height="217" viewBox="0 0 219 217">
  <defs>
    <style>

      .cls-3 {
        fill: #2476ff;
      }

      .cls-7 {
        fill: #fbb713;
      }

      .cls-8 {
        fill: #020403;
        opacity: 0.25;
      }

      .cls-11 {
        fill: #0cb04a;
      }
    </style>
  </defs>
  <g id="group-165svg">
    <path d="M193.998,178.853 C193.998,178.853 201.048,178.853 201.048,178.853 C202.408,178.853 203.509,179.459 203.509,180.206 C203.509,180.952 202.408,181.558 201.048,181.558 C201.048,181.558 200.720,181.558 200.720,181.558 C199.360,181.558 198.258,182.165 198.258,182.911 C198.258,183.658 199.360,184.264 200.720,184.264 C200.720,184.264 215.877,184.264 215.877,184.264 C217.236,184.264 218.338,184.869 218.338,185.616 C218.338,186.363 217.236,186.969 215.877,186.969 C215.877,186.969 197.662,186.969 197.662,186.969 C197.662,186.969 160.433,186.969 160.433,186.969 C159.073,186.969 157.972,186.363 157.972,185.616 C157.972,184.869 159.073,184.264 160.433,184.264 C160.433,184.264 164.639,184.264 164.639,184.264 C165.999,184.264 167.100,183.658 167.100,182.911 C167.100,182.165 165.999,181.558 164.639,181.558 C164.639,181.558 144.620,181.558 144.620,181.558 C143.261,181.558 142.158,180.952 142.158,180.206 C142.158,179.459 143.261,178.853 144.620,178.853 C144.620,178.853 149.351,178.853 149.351,178.853 C149.351,178.853 193.998,178.853 193.998,178.853 Z" id="path-1" class="cls-3" fill-rule="evenodd"/>
    <path d="M84.444,200.271 C84.444,200.271 99.799,200.271 99.799,200.271 C102.758,200.271 105.158,201.338 105.158,202.655 C105.158,203.972 102.758,205.040 99.799,205.040 C99.799,205.040 99.083,205.040 99.083,205.040 C96.123,205.040 93.724,206.107 93.724,207.424 C93.724,208.741 96.123,209.809 99.083,209.809 C99.083,209.809 132.091,209.809 132.091,209.809 C135.051,209.809 137.452,210.876 137.452,212.193 C137.452,213.509 135.051,214.578 132.091,214.578 C132.091,214.578 92.424,214.578 92.424,214.578 C92.424,214.578 48.827,214.578 48.827,214.578 C45.866,214.578 43.467,213.509 43.467,212.193 C43.467,210.876 45.866,209.809 48.827,209.809 C48.827,209.809 57.987,209.809 57.987,209.809 C60.948,209.809 63.347,208.741 63.347,207.424 C63.347,206.107 60.948,205.040 57.987,205.040 C57.987,205.040 14.389,205.040 14.389,205.040 C11.429,205.040 9.029,203.972 9.029,202.655 C9.029,201.338 11.429,200.271 14.389,200.271 C14.389,200.271 24.693,200.271 24.693,200.271 C24.693,200.271 84.444,200.271 84.444,200.271 Z" id="path-2" class="cls-3" fill-rule="evenodd"/>
    <path d="M179.478,216.640 C182.858,216.640 185.598,215.421 185.598,213.918 C185.598,212.415 182.858,211.196 179.478,211.196 C179.478,211.196 160.722,211.196 160.722,211.196 C157.342,211.196 154.602,212.415 154.602,213.918 C154.602,215.421 157.342,216.640 160.722,216.640 C160.722,216.640 179.478,216.640 179.478,216.640 Z" id="path-3" class="cls-3" fill-rule="evenodd"/>
    <path d="M140.526,188.432 C143.062,188.432 145.119,187.931 145.119,187.313 C145.119,186.693 143.062,186.192 140.526,186.192 C140.526,186.192 126.454,186.192 126.454,186.192 C123.918,186.192 121.862,186.693 121.862,187.313 C121.862,187.931 123.918,188.432 126.454,188.432 C126.454,188.432 140.526,188.432 140.526,188.432 Z" id="path-4" class="cls-3" fill-rule="evenodd"/>
    <path d="M155.698,161.799 C155.698,161.799 155.698,78.897 155.698,78.897 C155.698,78.897 194.621,78.897 194.621,78.897 C194.621,78.897 194.621,28.771 194.621,28.771 C194.621,28.771 143.058,0.728 143.058,0.728 C140.305,-0.770 136.839,0.248 135.388,3.008 C129.707,13.814 115.016,26.519 97.757,26.519 C80.481,26.519 65.777,13.765 60.108,2.976 C58.665,0.228 55.220,-0.796 52.469,0.677 C52.469,0.677 0.005,28.771 0.005,28.771 C0.005,28.771 0.005,78.897 0.005,78.897 C0.005,78.897 38.928,78.897 38.928,78.897 C38.928,78.897 38.928,161.799 38.928,161.799 C61.500,161.799 79.797,172.214 79.797,194.575 C79.797,194.575 114.829,194.575 114.829,194.575 C114.829,172.214 133.127,161.799 155.698,161.799 Z" id="path-5" class="cls-7" fill-rule="evenodd"/>
    <path d="M84.782,26.519 C86.993,26.519 89.159,26.305 91.271,25.918 C76.870,23.284 65.052,12.386 60.108,2.976 C58.665,0.228 55.220,-0.796 52.469,0.677 C52.469,0.677 47.379,3.403 47.379,3.403 C53.205,14.100 67.733,26.519 84.782,26.519 Z" id="path-6" class="cls-8" fill-rule="evenodd"/>
    <path d="M142.724,161.799 C120.152,161.799 101.854,172.214 101.854,194.575 C101.854,194.575 114.829,194.575 114.829,194.575 C114.829,172.214 133.127,161.799 155.698,161.799 C155.698,161.799 155.698,78.897 155.698,78.897 C155.698,78.897 142.724,78.897 142.724,78.897 C142.724,78.897 142.724,161.799 142.724,161.799 Z" id="path-7" class="cls-8" fill-rule="evenodd"/>
    <path d="M143.058,0.728 C140.305,-0.769 136.839,0.248 135.388,3.008 C135.308,3.161 135.208,3.315 135.125,3.470 C135.125,3.470 181.646,28.771 181.646,28.771 C181.646,28.771 181.646,78.897 181.646,78.897 C181.646,78.897 194.621,78.897 194.621,78.897 C194.621,78.897 194.621,28.771 194.621,28.771 C194.621,28.771 143.058,0.728 143.058,0.728 Z" id="path-8" class="cls-8" fill-rule="evenodd"/>
    <path d="M119.167,81.908 C119.167,93.152 109.967,102.266 98.616,102.266 C87.266,102.266 78.065,93.152 78.065,81.908 C78.065,70.663 87.266,61.549 98.616,61.549 C109.967,61.549 119.167,70.663 119.167,81.908 Z" id="path-9" class="cls-11" fill-rule="evenodd"/>
  </g>
</svg>
