<svg xmlns="http://www.w3.org/2000/svg" xmlns:xlink="http://www.w3.org/1999/xlink" preserveAspectRatio="xMidYMid" width="219" height="178" viewBox="0 0 219 178">
  <defs>
    <style>

      .cls-3 {
        fill: #2476ff;
      }

      .cls-6 {
        fill: #142a3b;
      }

      .cls-14 {
        fill: #ff3a2f;
      }

      .cls-16 {
        fill: #020403;
        opacity: 0.35;
      }
    </style>
  </defs>
  <g id="group-22svg">
    <path d="M75.782,149.289 C75.782,149.289 90.457,149.289 90.457,149.289 C93.286,149.289 95.580,150.730 95.580,152.505 C95.580,154.281 93.286,155.721 90.457,155.721 C90.457,155.721 89.774,155.721 89.774,155.721 C86.945,155.721 84.651,157.161 84.651,158.937 C84.651,160.712 86.945,162.152 89.774,162.152 C89.774,162.152 121.321,162.152 121.321,162.152 C124.150,162.152 126.444,163.591 126.444,165.368 C126.444,167.144 124.150,168.583 121.321,168.583 C121.321,168.583 83.409,168.583 83.409,168.583 C83.409,168.583 41.741,168.583 41.741,168.583 C38.912,168.583 36.618,167.144 36.618,165.368 C36.618,163.591 38.912,162.152 41.741,162.152 C41.741,162.152 50.497,162.152 50.497,162.152 C53.325,162.152 55.620,160.712 55.620,158.937 C55.620,157.161 53.325,155.721 50.497,155.721 C50.497,155.721 8.828,155.721 8.828,155.721 C5.999,155.721 3.705,154.281 3.705,152.505 C3.705,150.730 5.999,149.289 8.828,149.289 C8.828,149.289 18.676,149.289 18.676,149.289 C18.676,149.289 75.782,149.289 75.782,149.289 Z" id="path-1" class="cls-3" fill-rule="evenodd"/>
    <path d="M31.227,125.655 C35.471,125.655 38.911,123.495 38.911,120.832 C38.911,118.168 35.471,116.009 31.227,116.009 C31.227,116.009 7.677,116.009 7.677,116.009 C3.433,116.009 -0.007,118.168 -0.007,120.832 C-0.007,123.495 3.433,125.655 7.677,125.655 C7.677,125.655 31.227,125.655 31.227,125.655 Z" id="path-2" class="cls-3" fill-rule="evenodd"/>
    <path d="M174.862,171.900 C179.106,171.900 182.547,169.740 182.547,167.076 C182.547,164.413 179.106,162.252 174.862,162.252 C174.862,162.252 151.312,162.252 151.312,162.252 C147.068,162.252 143.627,164.413 143.627,167.076 C143.627,169.740 147.068,171.900 151.312,171.900 C151.312,171.900 174.862,171.900 174.862,171.900 Z" id="path-3" class="cls-3" fill-rule="evenodd"/>
    <path d="M132.191,177.870 C132.191,177.870 124.913,177.870 124.913,177.870 C124.913,177.870 124.913,103.778 124.913,103.778 C124.913,103.778 132.191,103.778 132.191,103.778 C132.191,103.778 132.191,177.870 132.191,177.870 Z" id="path-4" class="cls-6" fill-rule="evenodd"/>
    <path d="M132.191,72.335 C132.191,72.335 124.913,72.335 124.913,72.335 C124.913,72.335 124.913,0.005 124.913,0.005 C124.913,0.005 132.191,0.005 132.191,0.005 C132.191,0.005 132.191,72.335 132.191,72.335 Z" id="path-5" class="cls-6" fill-rule="evenodd"/>
    <path d="M113.575,92.542 C113.575,92.542 38.781,92.542 38.781,92.542 C38.781,92.542 38.781,85.333 38.781,85.333 C38.781,85.333 113.575,85.333 113.575,85.333 C113.575,85.333 113.575,92.542 113.575,92.542 Z" id="path-6" class="cls-6" fill-rule="evenodd"/>
    <path d="M218.325,92.542 C218.325,92.542 141.814,92.542 141.814,92.542 C141.814,92.542 141.814,85.333 141.814,85.333 C141.814,85.333 218.325,85.333 218.325,85.333 C218.325,85.333 218.325,92.542 218.325,92.542 Z" id="path-7" class="cls-6" fill-rule="evenodd"/>
    <path d="M112.721,78.351 C112.721,78.351 62.501,28.601 62.501,28.601 C62.501,28.601 67.647,23.503 67.647,23.503 C67.647,23.503 117.866,73.253 117.866,73.253 C117.866,73.253 112.721,78.351 112.721,78.351 Z" id="path-8" class="cls-6" fill-rule="evenodd"/>
    <path d="M189.458,154.372 C189.458,154.372 139.236,104.618 139.236,104.618 C139.236,104.618 144.381,99.520 144.381,99.520 C144.381,99.520 194.605,149.272 194.605,149.272 C194.605,149.272 189.458,154.372 189.458,154.372 Z" id="path-9" class="cls-6" fill-rule="evenodd"/>
    <path d="M67.647,154.372 C67.647,154.372 62.501,149.272 62.501,149.272 C62.501,149.272 111.001,101.228 111.001,101.228 C111.001,101.228 116.147,106.327 116.147,106.327 C116.147,106.327 67.647,154.372 67.647,154.372 Z" id="path-10" class="cls-6" fill-rule="evenodd"/>
    <path d="M144.388,78.348 C144.388,78.348 139.243,73.249 139.243,73.249 C139.243,73.249 189.458,23.503 189.458,23.503 C189.458,23.503 194.605,28.601 194.605,28.601 C194.605,28.601 144.388,78.348 144.388,78.348 Z" id="path-11" class="cls-6" fill-rule="evenodd"/>
    <path d="M127.853,18.977 C88.189,18.977 56.035,50.830 56.035,90.123 C56.035,129.415 88.189,161.269 127.853,161.269 C167.517,161.269 199.671,129.415 199.671,90.123 C199.671,50.830 167.517,18.977 127.853,18.977 ZM127.853,147.116 C96.079,147.116 70.322,121.599 70.322,90.123 C70.322,58.647 96.079,33.129 127.853,33.129 C159.627,33.129 185.384,58.647 185.384,90.123 C185.384,121.599 159.627,147.116 127.853,147.116 Z" id="path-12" class="cls-14" fill-rule="evenodd"/>
    <path d="M127.853,66.756 C114.826,66.756 104.266,77.218 104.266,90.123 C104.266,103.028 114.826,113.489 127.853,113.489 C140.879,113.489 151.440,103.028 151.440,90.123 C151.440,77.218 140.879,66.756 127.853,66.756 ZM127.853,99.366 C122.699,99.366 118.521,95.229 118.521,90.123 C118.521,85.017 122.699,80.878 127.853,80.878 C133.007,80.878 137.184,85.017 137.184,90.123 C137.184,95.229 133.007,99.366 127.853,99.366 Z" id="path-13" class="cls-14" fill-rule="evenodd"/>
    <path d="M136.503,84.402 C137.383,85.922 137.925,87.660 137.925,89.537 C137.925,95.277 133.228,99.929 127.435,99.929 C125.539,99.929 123.786,99.392 122.252,98.521 C124.059,101.646 127.422,103.777 131.319,103.777 C137.113,103.777 141.809,99.124 141.809,93.385 C141.809,89.524 139.658,86.194 136.503,84.402 Z" id="path-14" class="cls-16" fill-rule="evenodd"/>
  </g>
</svg>
