<svg xmlns="http://www.w3.org/2000/svg" xmlns:xlink="http://www.w3.org/1999/xlink" preserveAspectRatio="xMidYMid" width="219" height="191" viewBox="0 0 219 191">
  <defs>
    <style>

      .cls-3 {
        fill: #0cb04a;
      }

      .cls-7 {
        fill: #020403;
        opacity: 0.25;
      }

      .cls-8 {
        fill: #ff3a2f;
      }

      .cls-9 {
        fill: #ffffff;
      }

      .cls-15 {
        fill: #020403;
        opacity: 0.35;
      }
    </style>
  </defs>
  <g id="group-47svg">
    <path d="M210.965,64.634 C210.965,69.548 206.944,73.532 201.984,73.532 C197.023,73.532 193.002,69.548 193.002,64.634 C193.002,59.720 197.023,55.736 201.984,55.736 C206.944,55.736 210.965,59.720 210.965,64.634 Z" id="path-1" class="cls-3" fill-rule="evenodd"/>
    <path d="M67.329,8.886 C67.329,13.800 63.308,17.784 58.347,17.784 C53.386,17.784 49.365,13.800 49.365,8.886 C49.365,3.972 53.386,-0.012 58.347,-0.012 C63.308,-0.012 67.329,3.972 67.329,8.886 Z" id="path-2" class="cls-3" fill-rule="evenodd"/>
    <path d="M159.884,144.492 C159.884,144.492 179.840,144.492 179.840,144.492 C179.840,144.492 179.840,94.170 179.840,94.170 C179.840,94.170 159.884,94.170 159.884,94.170 C159.884,94.170 152.439,94.170 152.439,94.170 C152.439,94.170 152.439,106.164 152.439,106.164 C152.439,106.164 169.143,106.164 169.143,106.164 C169.143,106.164 169.143,133.721 169.143,133.721 C169.143,133.721 152.439,133.721 152.439,133.721 C152.439,133.721 152.439,144.492 152.439,144.492 C152.439,144.492 159.884,144.492 159.884,144.492 Z" id="path-3" class="cls-3" fill-rule="evenodd"/>
    <path d="M154.441,70.807 C154.441,70.807 154.441,159.332 154.441,159.332 C154.441,168.601 148.164,176.842 138.808,176.842 C138.808,176.842 79.512,176.842 79.512,176.842 C70.155,176.842 63.732,168.601 63.732,159.332 C63.732,159.332 63.732,70.807 63.732,70.807 C63.732,70.807 154.441,70.807 154.441,70.807 Z" id="path-4" class="cls-3" fill-rule="evenodd"/>
    <path d="M154.441,70.807 C154.441,70.807 136.300,70.807 136.300,70.807 C136.300,70.807 136.300,79.099 136.300,79.099 C134.635,77.929 133.099,76.593 131.749,75.083 C126.908,80.496 119.859,83.928 111.983,83.928 C102.395,83.928 94.027,78.852 89.395,71.281 C84.765,78.852 76.395,83.928 66.806,83.928 C65.765,83.928 64.743,83.851 63.732,83.735 C63.732,83.735 63.732,98.269 63.732,98.269 C73.085,98.075 81.226,93.081 85.766,85.659 C90.398,93.229 98.767,98.306 108.356,98.306 C116.230,98.306 123.280,94.874 128.120,89.461 C130.402,92.010 133.184,94.099 136.300,95.617 C136.300,95.617 136.300,159.332 136.300,159.332 C136.300,168.600 130.023,176.842 120.667,176.842 C120.667,176.842 138.808,176.842 138.808,176.842 C148.164,176.842 154.441,168.600 154.441,159.332 C154.441,159.332 154.441,97.461 154.441,97.461 C154.441,97.461 154.441,83.733 154.441,83.733 C154.441,83.733 154.441,70.807 154.441,70.807 Z" id="path-5" class="cls-7" fill-rule="evenodd"/>
    <path d="M151.514,35.170 C143.639,35.170 133.693,40.252 133.222,39.797 C139.018,36.849 140.167,33.678 140.167,26.779 C140.167,16.957 132.130,8.994 122.215,8.994 C112.300,8.994 104.262,16.957 104.262,26.779 C104.262,27.953 96.099,22.981 90.180,22.981 C81.969,22.981 75.060,28.448 72.923,35.904 C70.957,35.441 68.916,35.170 66.806,35.170 C52.212,35.170 40.383,46.890 40.383,61.347 C40.383,75.803 52.212,87.523 66.806,87.523 C76.395,87.523 84.765,82.447 89.395,74.876 C94.027,82.447 102.395,87.523 111.983,87.523 C119.859,87.523 126.908,84.091 131.749,78.677 C136.590,84.091 143.639,87.523 151.514,87.523 C166.107,87.523 177.937,75.803 177.937,61.347 C177.937,46.890 166.107,35.170 151.514,35.170 Z" id="path-6" class="cls-8" fill-rule="evenodd"/>
    <path d="M50.042,70.160 C49.910,70.160 49.775,70.153 49.641,70.138 C47.640,69.919 46.201,68.138 46.421,66.158 C47.348,57.847 51.807,50.256 58.652,45.330 C60.287,44.157 62.554,44.519 63.738,46.128 C64.917,47.739 64.555,49.993 62.931,51.163 C57.739,54.899 54.355,60.653 53.656,66.951 C53.450,68.794 51.872,70.160 50.042,70.160 Z" id="path-7" class="cls-9" fill-rule="evenodd"/>
    <path d="M80.186,39.991 C79.348,39.991 78.506,39.707 77.820,39.126 C76.292,37.830 76.114,35.555 77.422,34.043 C81.527,29.290 87.500,26.565 93.808,26.565 C95.820,26.565 97.446,28.178 97.446,30.170 C97.446,32.160 95.820,33.774 93.808,33.774 C89.629,33.774 85.674,35.581 82.951,38.730 C82.230,39.563 81.210,39.991 80.186,39.991 Z" id="path-8" class="cls-9" fill-rule="evenodd"/>
    <path d="M82.138,71.281 C77.508,78.852 69.137,83.928 59.549,83.928 C56.765,83.928 54.084,83.496 51.564,82.705 C55.874,85.728 61.123,87.522 66.806,87.522 C75.223,87.522 82.698,83.608 87.532,77.530 C85.432,75.731 83.585,73.647 82.138,71.281 Z" id="path-9" class="cls-7" fill-rule="evenodd"/>
    <path d="M132.910,23.185 C132.910,30.083 131.761,33.254 125.965,36.203 C126.349,36.573 133.023,33.271 139.740,32.034 C140.040,30.543 140.167,28.843 140.167,26.779 C140.167,18.352 134.234,11.332 126.291,9.496 C130.300,12.758 132.910,17.645 132.910,23.185 Z" id="path-10" class="cls-7" fill-rule="evenodd"/>
    <path d="M124.493,75.083 C119.651,80.496 112.602,83.928 104.727,83.928 C101.928,83.928 99.253,83.450 96.725,82.649 C101.034,85.697 106.282,87.522 111.983,87.522 C119.178,87.522 125.663,84.637 130.425,80.014 C128.214,78.658 126.210,77.002 124.493,75.083 Z" id="path-11" class="cls-7" fill-rule="evenodd"/>
    <path d="M159.499,36.394 C166.257,41.135 170.680,48.926 170.680,57.752 C170.680,72.209 158.851,83.928 144.258,83.928 C141.477,83.928 138.807,83.481 136.293,82.687 C140.595,85.717 145.832,87.522 151.514,87.522 C166.107,87.522 177.938,75.803 177.938,61.347 C177.938,49.647 170.188,39.748 159.499,36.394 Z" id="path-12" class="cls-7" fill-rule="evenodd"/>
    <path d="M96.388,164.272 C94.376,164.272 92.748,162.658 92.748,160.668 C92.748,160.668 92.748,103.156 92.748,103.156 C92.748,101.165 94.376,99.551 96.388,99.551 C98.400,99.551 100.026,101.165 100.026,103.156 C100.026,103.156 100.026,160.668 100.026,160.668 C100.026,162.658 98.400,164.272 96.388,164.272 Z" id="path-13" class="cls-15" fill-rule="evenodd"/>
    <path d="M121.785,164.272 C119.773,164.272 118.146,162.658 118.146,160.668 C118.146,160.668 118.146,103.156 118.146,103.156 C118.146,101.165 119.773,99.551 121.785,99.551 C123.796,99.551 125.423,101.165 125.423,103.156 C125.423,103.156 125.423,160.668 125.423,160.668 C125.423,162.658 123.796,164.272 121.785,164.272 Z" id="path-14" class="cls-15" fill-rule="evenodd"/>
    <path d="M25.558,110.026 C25.558,110.026 30.763,110.026 30.763,110.026 C31.767,110.026 32.579,110.897 32.579,111.971 C32.579,113.046 31.767,113.918 30.763,113.918 C30.763,113.918 30.521,113.918 30.521,113.918 C29.517,113.918 28.704,114.789 28.704,115.863 C28.704,116.938 29.517,117.810 30.521,117.810 C30.521,117.810 41.709,117.810 41.709,117.810 C42.713,117.810 43.527,118.680 43.527,119.755 C43.527,120.831 42.713,121.702 41.709,121.702 C41.709,121.702 28.263,121.702 28.263,121.702 C28.263,121.702 13.485,121.702 13.485,121.702 C12.481,121.702 11.667,120.831 11.667,119.755 C11.667,118.680 12.481,117.810 13.485,117.810 C13.485,117.810 16.590,117.810 16.590,117.810 C17.593,117.810 18.407,116.938 18.407,115.863 C18.407,114.789 17.593,113.918 16.590,113.918 C16.590,113.918 1.811,113.918 1.811,113.918 C0.808,113.918 -0.006,113.046 -0.006,111.971 C-0.006,110.897 0.808,110.026 1.811,110.026 C1.811,110.026 5.304,110.026 5.304,110.026 C5.304,110.026 25.558,110.026 25.558,110.026 Z" id="path-15" class="cls-8" fill-rule="evenodd"/>
    <path d="M161.374,175.617 C161.374,175.617 176.667,175.617 176.667,175.617 C179.615,175.617 182.006,176.780 182.006,178.214 C182.006,179.647 179.615,180.809 176.667,180.809 C176.667,180.809 175.955,180.809 175.955,180.809 C173.007,180.809 170.616,181.971 170.616,183.405 C170.616,184.839 173.007,186.000 175.955,186.000 C175.955,186.000 208.829,186.000 208.829,186.000 C211.778,186.000 214.168,187.163 214.168,188.596 C214.168,190.029 211.778,191.190 208.829,191.190 C208.829,191.190 169.323,191.190 169.323,191.190 C169.323,191.190 125.902,191.190 125.902,191.190 C122.954,191.190 120.563,190.029 120.563,188.596 C120.563,187.163 122.954,186.000 125.902,186.000 C125.902,186.000 135.026,186.000 135.026,186.000 C137.974,186.000 140.364,184.839 140.364,183.405 C140.364,181.971 137.974,180.809 135.026,180.809 C135.026,180.809 91.605,180.809 91.605,180.809 C88.656,180.809 86.265,179.647 86.265,178.214 C86.265,176.780 88.656,175.617 91.605,175.617 C91.605,175.617 101.867,175.617 101.867,175.617 C101.867,175.617 161.374,175.617 161.374,175.617 Z" id="path-16" class="cls-8" fill-rule="evenodd"/>
    <path d="M200.950,129.343 C200.950,129.343 205.983,129.343 205.983,129.343 C206.954,129.343 207.741,130.128 207.741,131.096 C207.741,132.064 206.954,132.848 205.983,132.848 C205.983,132.848 205.749,132.848 205.749,132.848 C204.778,132.848 203.992,133.632 203.992,134.601 C203.992,135.569 204.778,136.353 205.749,136.353 C205.749,136.353 216.569,136.353 216.569,136.353 C217.540,136.353 218.326,137.138 218.326,138.106 C218.326,139.073 217.540,139.858 216.569,139.858 C216.569,139.858 203.566,139.858 203.566,139.858 C203.566,139.858 189.275,139.858 189.275,139.858 C188.304,139.858 187.517,139.073 187.517,138.106 C187.517,137.138 188.304,136.353 189.275,136.353 C189.275,136.353 192.277,136.353 192.277,136.353 C193.247,136.353 194.035,135.569 194.035,134.601 C194.035,133.632 193.247,132.848 192.277,132.848 C192.277,132.848 177.986,132.848 177.986,132.848 C177.015,132.848 176.229,132.064 176.229,131.096 C176.229,130.128 177.015,129.343 177.986,129.343 C177.986,129.343 181.363,129.343 181.363,129.343 C181.363,129.343 200.950,129.343 200.950,129.343 Z" id="path-17" class="cls-8" fill-rule="evenodd"/>
  </g>
</svg>
