<svg xmlns="http://www.w3.org/2000/svg" xmlns:xlink="http://www.w3.org/1999/xlink" preserveAspectRatio="xMidYMid" width="219" height="197" viewBox="0 0 219 197">
  <defs>
    <style>

      .cls-3 {
        fill: #ff3a2f;
      }

      .cls-5 {
        fill: #fbb713;
      }

      .cls-6 {
        fill: #0cb04a;
      }

      .cls-8 {
        fill: #020403;
        opacity: 0.25;
      }

      .cls-9 {
        fill: #142a3b;
      }

      .cls-14 {
        fill: #020403;
        opacity: 0.35;
      }

      .cls-19 {
        fill: #ffffff;
      }
    </style>
  </defs>
  <g id="group-154svg">
    <path d="M71.039,181.955 C71.039,181.955 85.504,181.955 85.504,181.955 C88.293,181.955 90.554,182.991 90.554,184.270 C90.554,185.547 88.293,186.582 85.504,186.582 C85.504,186.582 84.830,186.582 84.830,186.582 C82.042,186.582 79.781,187.618 79.781,188.896 C79.781,190.175 82.042,191.212 84.830,191.212 C84.830,191.212 115.926,191.212 115.926,191.212 C118.715,191.212 120.977,192.247 120.977,193.525 C120.977,194.803 118.715,195.839 115.926,195.839 C115.926,195.839 78.557,195.839 78.557,195.839 C78.557,195.839 37.484,195.839 37.484,195.839 C34.695,195.839 32.435,194.803 32.435,193.525 C32.435,192.247 34.695,191.212 37.484,191.212 C37.484,191.212 46.115,191.212 46.115,191.212 C48.904,191.212 51.165,190.175 51.165,188.896 C51.165,187.618 48.904,186.582 46.115,186.582 C46.115,186.582 5.042,186.582 5.042,186.582 C2.253,186.582 -0.007,185.547 -0.007,184.270 C-0.007,182.991 2.253,181.955 5.042,181.955 C5.042,181.955 14.750,181.955 14.750,181.955 C14.750,181.955 71.039,181.955 71.039,181.955 Z" id="path-1" class="cls-3" fill-rule="evenodd"/>
    <path d="M43.182,67.209 C43.182,67.209 47.840,67.209 47.840,67.209 C48.738,67.209 49.466,67.988 49.466,68.950 C49.466,69.912 48.738,70.691 47.840,70.691 C47.840,70.691 47.623,70.691 47.623,70.691 C46.725,70.691 45.997,71.471 45.997,72.432 C45.997,73.394 46.725,74.174 47.623,74.174 C47.623,74.174 57.635,74.174 57.635,74.174 C58.533,74.174 59.261,74.953 59.261,75.915 C59.261,76.876 58.533,77.657 57.635,77.657 C57.635,77.657 45.604,77.657 45.604,77.657 C45.604,77.657 32.379,77.657 32.379,77.657 C31.482,77.657 30.753,76.876 30.753,75.915 C30.753,74.953 31.482,74.174 32.379,74.174 C32.379,74.174 35.158,74.174 35.158,74.174 C36.056,74.174 36.784,73.394 36.784,72.432 C36.784,71.471 36.056,70.691 35.158,70.691 C35.158,70.691 21.935,70.691 21.935,70.691 C21.036,70.691 20.309,69.912 20.309,68.950 C20.309,67.988 21.036,67.209 21.935,67.209 C21.935,67.209 25.060,67.209 25.060,67.209 C25.060,67.209 43.182,67.209 43.182,67.209 Z" id="path-2" class="cls-3" fill-rule="evenodd"/>
    <path d="M202.247,111.444 C202.247,111.444 206.904,111.444 206.904,111.444 C207.802,111.444 208.530,112.224 208.530,113.185 C208.530,114.147 207.802,114.927 206.904,114.927 C206.904,114.927 206.687,114.927 206.687,114.927 C205.789,114.927 205.062,115.706 205.062,116.667 C205.062,117.629 205.789,118.409 206.687,118.409 C206.687,118.409 216.699,118.409 216.699,118.409 C217.597,118.409 218.325,119.189 218.325,120.151 C218.325,121.112 217.597,121.892 216.699,121.892 C216.699,121.892 204.667,121.892 204.667,121.892 C204.667,121.892 191.444,121.892 191.444,121.892 C190.546,121.892 189.818,121.112 189.818,120.151 C189.818,119.189 190.546,118.409 191.444,118.409 C191.444,118.409 194.222,118.409 194.222,118.409 C195.120,118.409 195.848,117.629 195.848,116.667 C195.848,115.706 195.120,114.927 194.222,114.927 C194.222,114.927 180.998,114.927 180.998,114.927 C180.101,114.927 179.373,114.147 179.373,113.185 C179.373,112.224 180.101,111.444 180.998,111.444 C180.998,111.444 184.124,111.444 184.124,111.444 C184.124,111.444 202.247,111.444 202.247,111.444 Z" id="path-3" class="cls-5" fill-rule="evenodd"/>
    <path d="M58.327,-0.001 C58.327,-0.001 58.327,10.071 58.327,10.071 C58.327,10.071 65.966,10.071 65.966,10.071 C65.966,10.071 65.966,92.565 65.966,92.565 C65.966,92.565 29.751,178.902 29.751,178.902 C29.262,180.068 29.392,181.400 30.101,182.449 C30.809,183.506 32.004,184.134 33.279,184.134 C33.279,184.134 140.230,184.134 140.230,184.134 C141.480,184.134 142.647,183.528 143.363,182.515 C144.076,181.502 144.248,180.209 143.814,179.049 C143.814,179.049 111.803,92.646 111.803,92.646 C111.803,92.646 111.803,10.071 111.803,10.071 C111.803,10.071 119.442,10.071 119.442,10.071 C119.442,10.071 119.442,-0.001 119.442,-0.001 C119.442,-0.001 58.327,-0.001 58.327,-0.001 Z" id="path-4" class="cls-6" fill-rule="evenodd"/>
    <path d="M143.814,179.049 C143.814,179.049 111.803,92.646 111.803,92.646 C111.803,92.646 111.803,92.067 111.803,92.067 C111.803,92.067 65.966,92.067 65.966,92.067 C65.966,92.067 65.966,92.565 65.966,92.565 C65.966,92.565 29.751,178.902 29.751,178.902 C29.262,180.068 29.392,181.400 30.101,182.449 C30.809,183.506 32.004,184.132 33.279,184.132 C33.279,184.132 140.230,184.132 140.230,184.132 C141.479,184.132 142.647,183.528 143.363,182.515 C144.076,181.502 144.248,180.209 143.814,179.049 Z" id="path-5" class="cls-5" fill-rule="evenodd"/>
    <path d="M143.814,179.049 C143.814,179.049 111.803,92.646 111.803,92.646 C111.803,92.646 111.803,10.070 111.803,10.070 C111.803,10.070 119.441,10.070 119.441,10.070 C119.441,10.070 119.441,-0.001 119.441,-0.001 C119.441,-0.001 91.801,-0.001 91.801,-0.001 C91.801,-0.001 91.801,76.134 91.801,76.134 C91.801,76.134 123.813,162.537 123.813,162.537 C124.246,163.697 124.074,164.991 123.361,166.003 C122.646,167.015 121.478,167.621 120.228,167.621 C120.228,167.621 34.482,167.621 34.482,167.621 C34.482,167.621 29.751,178.902 29.751,178.902 C29.262,180.068 29.392,181.400 30.101,182.449 C30.809,183.506 32.004,184.132 33.279,184.132 C33.279,184.132 140.230,184.132 140.230,184.132 C141.479,184.132 142.647,183.528 143.363,182.515 C144.076,181.502 144.248,180.209 143.814,179.049 Z" id="path-6" class="cls-8" fill-rule="evenodd"/>
    <path d="M107.497,51.516 C107.497,51.516 70.271,51.516 70.271,51.516 C68.262,51.516 66.632,49.902 66.632,47.911 C66.632,45.921 68.262,44.307 70.271,44.307 C70.271,44.307 107.497,44.307 107.497,44.307 C109.507,44.307 111.136,45.921 111.136,47.911 C111.136,49.902 109.507,51.516 107.497,51.516 Z" id="path-7" class="cls-9" fill-rule="evenodd"/>
    <path d="M96.524,119.627 C96.524,119.627 81.245,119.627 81.245,119.627 C79.235,119.627 77.606,118.013 77.606,116.022 C77.606,114.031 79.235,112.417 81.245,112.417 C81.245,112.417 96.524,112.417 96.524,112.417 C98.533,112.417 100.162,114.031 100.162,116.022 C100.162,118.013 98.533,119.627 96.524,119.627 Z" id="path-8" class="cls-9" fill-rule="evenodd"/>
    <path d="M96.524,134.762 C96.524,134.762 81.245,134.762 81.245,134.762 C79.235,134.762 77.606,133.148 77.606,131.157 C77.606,129.166 79.235,127.552 81.245,127.552 C81.245,127.552 96.524,127.552 96.524,127.552 C98.533,127.552 100.162,129.166 100.162,131.157 C100.162,133.148 98.533,134.762 96.524,134.762 Z" id="path-9" class="cls-9" fill-rule="evenodd"/>
    <path d="M96.524,149.899 C96.524,149.899 81.245,149.899 81.245,149.899 C79.235,149.899 77.606,148.284 77.606,146.293 C77.606,144.303 79.235,142.689 81.245,142.689 C81.245,142.689 96.524,142.689 96.524,142.689 C98.533,142.689 100.162,144.303 100.162,146.293 C100.162,148.284 98.533,149.899 96.524,149.899 Z" id="path-10" class="cls-9" fill-rule="evenodd"/>
    <path d="M203.541,48.074 C195.208,48.074 188.427,54.792 188.427,63.047 C188.427,63.047 188.196,76.256 188.196,76.256 C188.196,76.256 188.196,161.429 188.196,161.429 C188.196,171.865 179.627,180.350 169.097,180.350 C158.568,180.350 149.999,171.865 149.999,161.429 C149.999,161.429 149.999,76.256 149.999,76.256 C149.999,76.256 148.841,63.047 148.841,63.047 C148.841,54.792 142.060,48.074 133.727,48.074 C133.727,48.074 203.541,48.074 203.541,48.074 Z" id="path-11" class="cls-3" fill-rule="evenodd"/>
    <path d="M184.190,48.074 C180.707,50.820 178.427,55.002 178.427,59.744 C178.427,59.744 178.195,72.953 178.195,72.953 C178.195,72.953 178.195,158.126 178.195,158.126 C178.195,168.563 169.626,177.046 159.097,177.046 C158.822,177.046 158.553,177.018 158.280,177.006 C161.358,179.109 165.083,180.350 169.097,180.350 C179.627,180.350 188.196,171.865 188.196,161.429 C188.196,161.429 188.196,76.256 188.196,76.256 C188.196,76.256 188.427,63.047 188.427,63.047 C188.427,54.792 195.208,48.074 203.541,48.074 C203.541,48.074 184.190,48.074 184.190,48.074 Z" id="path-12" class="cls-14" fill-rule="evenodd"/>
    <path d="M165.278,81.789 C165.278,81.789 157.638,81.789 157.638,81.789 C155.629,81.789 153.999,80.174 153.999,78.182 C153.999,76.193 155.629,74.578 157.638,74.578 C157.638,74.578 165.278,74.578 165.278,74.578 C167.288,74.578 168.917,76.193 168.917,78.182 C168.917,80.174 167.288,81.789 165.278,81.789 Z" id="path-13" class="cls-9" fill-rule="evenodd"/>
    <path d="M165.278,96.923 C165.278,96.923 157.638,96.923 157.638,96.923 C155.629,96.923 153.999,95.310 153.999,93.320 C153.999,91.329 155.629,89.714 157.638,89.714 C157.638,89.714 165.278,89.714 165.278,89.714 C167.288,89.714 168.917,91.329 168.917,93.320 C168.917,95.310 167.288,96.923 165.278,96.923 Z" id="path-14" class="cls-9" fill-rule="evenodd"/>
    <path d="M165.278,112.060 C165.278,112.060 157.638,112.060 157.638,112.060 C155.629,112.060 153.999,110.446 153.999,108.454 C153.999,106.464 155.629,104.849 157.638,104.849 C157.638,104.849 165.278,104.849 165.278,104.849 C167.288,104.849 168.917,106.464 168.917,108.454 C168.917,110.446 167.288,112.060 165.278,112.060 Z" id="path-15" class="cls-9" fill-rule="evenodd"/>
    <path d="M193.705,2.504 C185.279,2.504 178.427,9.295 178.427,17.639 C178.427,25.983 185.279,32.775 193.705,32.775 C202.131,32.775 208.984,25.983 208.984,17.639 C208.984,9.295 202.131,2.504 193.705,2.504 C193.705,2.504 193.705,2.504 193.705,2.504 Z" id="path-16" class="cls-9" fill-rule="evenodd"/>
    <path d="M197.039,8.421 C193.746,8.421 191.068,11.076 191.068,14.337 C191.068,17.597 193.746,20.253 197.039,20.253 C200.331,20.253 203.009,17.597 203.009,14.337 C203.009,11.076 200.331,8.421 197.039,8.421 C197.039,8.421 197.039,8.421 197.039,8.421 Z" id="path-17" class="cls-19" fill-rule="evenodd"/>
    <path d="M163.148,32.775 C158.925,32.775 155.508,36.160 155.508,40.343 C155.508,44.525 158.925,47.911 163.148,47.911 C167.370,47.911 170.787,44.525 170.787,40.343 C170.787,36.160 167.370,32.775 163.148,32.775 C163.148,32.775 163.148,32.775 163.148,32.775 Z" id="path-18" class="cls-9" fill-rule="evenodd"/>
    <path d="M168.639,178.100 C168.448,178.100 168.255,178.086 168.059,178.055 C156.176,176.169 152.280,166.548 151.881,161.725 C151.881,161.725 151.869,138.068 151.869,138.068 C151.869,136.077 153.498,134.463 155.508,134.463 C157.517,134.463 159.147,136.077 159.147,138.068 C159.147,138.068 159.147,161.429 159.147,161.429 C159.218,161.960 160.229,169.510 169.211,170.936 C171.195,171.251 172.545,173.100 172.227,175.065 C171.941,176.838 170.396,178.100 168.639,178.100 Z" id="path-19" class="cls-19" fill-rule="evenodd"/>
    <path d="M55.940,141.114 C55.470,141.114 54.993,141.021 54.532,140.829 C52.679,140.059 51.809,137.944 52.587,136.111 C52.587,136.111 70.527,93.812 70.527,93.812 C70.527,93.812 70.527,59.333 70.527,59.333 C70.527,57.341 72.157,55.726 74.166,55.726 C76.176,55.726 77.805,57.341 77.805,59.333 C77.805,59.333 77.805,95.265 77.805,95.265 C77.805,95.265 59.296,138.902 59.296,138.902 C58.712,140.283 57.361,141.114 55.940,141.114 Z" id="path-20" class="cls-19" fill-rule="evenodd"/>
  </g>
</svg>
