<svg xmlns="http://www.w3.org/2000/svg" xmlns:xlink="http://www.w3.org/1999/xlink" preserveAspectRatio="xMidYMid" width="219" height="185" viewBox="0 0 219 185">
  <defs>
    <style>

      .cls-3 {
        fill: #2476ff;
      }

      .cls-7 {
        fill: #020403;
      }

      .cls-9 {
        fill: #ff3a2f;
      }

      .cls-10 {
        fill: #020403;
        opacity: 0.35;
      }

      .cls-20 {
        fill: #ffffff;
      }
    </style>
  </defs>
  <g id="group-139svg">
    <path d="M100.984,158.185 C100.984,158.185 121.545,158.185 121.545,158.185 C125.509,158.185 128.723,159.634 128.723,161.425 C128.723,163.214 125.509,164.664 121.545,164.664 C121.545,164.664 120.589,164.664 120.589,164.664 C116.624,164.664 113.410,166.115 113.410,167.904 C113.410,169.695 116.624,171.145 120.589,171.145 C120.589,171.145 164.788,171.145 164.788,171.145 C168.752,171.145 171.966,172.596 171.966,174.385 C171.966,176.173 168.752,177.625 164.788,177.625 C164.788,177.625 111.671,177.625 111.671,177.625 C111.671,177.625 53.290,177.625 53.290,177.625 C49.325,177.625 46.112,176.173 46.112,174.385 C46.112,172.596 49.325,171.145 53.290,171.145 C53.290,171.145 65.556,171.145 65.556,171.145 C69.521,171.145 72.735,169.695 72.735,167.904 C72.735,166.115 69.521,164.664 65.556,164.664 C65.556,164.664 7.176,164.664 7.176,164.664 C3.211,164.664 -0.002,163.214 -0.002,161.425 C-0.002,159.634 3.211,158.185 7.176,158.185 C7.176,158.185 20.973,158.185 20.973,158.185 C20.973,158.185 100.984,158.185 100.984,158.185 Z" id="path-1" class="cls-3" fill-rule="evenodd"/>
    <path d="M37.263,131.964 C37.263,131.964 42.024,131.964 42.024,131.964 C42.943,131.964 43.686,132.760 43.686,133.743 C43.686,134.726 42.943,135.523 42.024,135.523 C42.024,135.523 41.802,135.523 41.802,135.523 C40.885,135.523 40.141,136.320 40.141,137.302 C40.141,138.286 40.885,139.083 41.802,139.083 C41.802,139.083 52.037,139.083 52.037,139.083 C52.954,139.083 53.699,139.879 53.699,140.862 C53.699,141.845 52.954,142.642 52.037,142.642 C52.037,142.642 39.738,142.642 39.738,142.642 C39.738,142.642 26.221,142.642 26.221,142.642 C25.303,142.642 24.558,141.845 24.558,140.862 C24.558,139.879 25.303,139.083 26.221,139.083 C26.221,139.083 29.061,139.083 29.061,139.083 C29.979,139.083 30.723,138.286 30.723,137.302 C30.723,136.320 29.979,135.523 29.061,135.523 C29.061,135.523 15.544,135.523 15.544,135.523 C14.626,135.523 13.882,134.726 13.882,133.743 C13.882,132.760 14.626,131.964 15.544,131.964 C15.544,131.964 18.739,131.964 18.739,131.964 C18.739,131.964 37.263,131.964 37.263,131.964 Z" id="path-2" class="cls-3" fill-rule="evenodd"/>
    <path d="M197.415,131.964 C197.415,131.964 202.175,131.964 202.175,131.964 C203.093,131.964 203.837,132.760 203.837,133.743 C203.837,134.726 203.093,135.523 202.175,135.523 C202.175,135.523 201.954,135.523 201.954,135.523 C201.036,135.523 200.292,136.320 200.292,137.302 C200.292,138.286 201.036,139.083 201.954,139.083 C201.954,139.083 212.188,139.083 212.188,139.083 C213.105,139.083 213.849,139.879 213.849,140.862 C213.849,141.845 213.105,142.642 212.188,142.642 C212.188,142.642 199.889,142.642 199.889,142.642 C199.889,142.642 186.372,142.642 186.372,142.642 C185.454,142.642 184.710,141.845 184.710,140.862 C184.710,139.879 185.454,139.083 186.372,139.083 C186.372,139.083 189.212,139.083 189.212,139.083 C190.129,139.083 190.874,138.286 190.874,137.302 C190.874,136.320 190.129,135.523 189.212,135.523 C189.212,135.523 175.695,135.523 175.695,135.523 C174.777,135.523 174.032,134.726 174.032,133.743 C174.032,132.760 174.777,131.964 175.695,131.964 C175.695,131.964 178.890,131.964 178.890,131.964 C178.890,131.964 197.415,131.964 197.415,131.964 Z" id="path-3" class="cls-3" fill-rule="evenodd"/>
    <path d="M212.437,183.802 C215.692,183.802 218.330,182.147 218.330,180.105 C218.330,178.061 215.692,176.406 212.437,176.406 C212.437,176.406 194.375,176.406 194.375,176.406 C191.119,176.406 188.481,178.061 188.481,180.105 C188.481,182.147 191.119,183.802 194.375,183.802 C194.375,183.802 212.437,183.802 212.437,183.802 Z" id="path-4" class="cls-3" fill-rule="evenodd"/>
    <path d="M203.151,84.960 C203.958,87.025 203.903,89.287 202.995,91.329 C202.959,91.411 202.893,91.535 202.843,91.642 C203.395,92.339 203.879,93.279 204.272,94.053 C205.021,95.503 205.726,96.869 207.271,96.869 C208.843,96.869 209.522,95.354 209.810,94.704 C210.718,92.662 210.772,90.401 209.966,88.337 C209.160,86.264 207.580,84.626 205.530,83.720 C205.530,83.720 200.649,81.574 200.649,81.574 C201.747,82.473 202.626,83.612 203.151,84.960 Z" id="path-5" class="cls-7" fill-rule="evenodd"/>
    <path d="M214.079,121.239 C213.267,119.159 211.694,117.520 209.654,116.627 C209.654,116.627 204.773,114.482 204.773,114.482 C205.863,115.376 206.737,116.513 207.265,117.864 C208.072,119.940 208.017,122.206 207.099,124.244 C207.063,124.325 206.999,124.447 206.951,124.551 C207.522,125.261 208.014,126.221 208.376,126.934 C209.118,128.402 209.820,129.777 211.379,129.777 C212.962,129.777 213.626,128.270 213.913,127.619 C214.833,125.581 214.887,123.315 214.079,121.239 Z" id="path-6" class="cls-7" fill-rule="evenodd"/>
    <path d="M214.079,121.239 C213.267,119.159 211.694,117.520 209.654,116.627 C209.654,116.627 194.362,109.903 194.362,109.903 C192.059,108.892 189.295,108.993 187.073,110.164 C185.033,109.194 182.657,108.940 180.434,109.480 C180.434,109.480 162.679,113.874 162.679,113.874 C162.679,113.874 159.852,100.959 159.852,100.959 C160.392,100.905 160.948,100.797 161.584,100.623 C161.584,100.623 180.438,92.907 180.438,92.907 C181.173,92.723 182.026,92.495 182.874,92.213 C183.040,92.300 183.210,92.371 183.372,92.441 C183.372,92.441 183.789,92.616 183.789,92.616 C183.789,92.616 202.198,90.984 202.198,90.984 C203.025,91.602 203.734,92.992 204.272,94.053 C205.021,95.503 205.726,96.869 207.272,96.869 C208.843,96.869 209.522,95.354 209.810,94.704 C210.718,92.662 210.772,90.401 209.966,88.337 C209.160,86.264 207.580,84.626 205.530,83.720 C205.530,83.720 190.228,76.994 190.228,76.994 C187.917,76.004 185.176,76.095 182.948,77.260 C180.901,76.276 178.499,76.025 176.320,76.572 C176.320,76.572 156.484,81.477 156.484,81.477 C156.281,81.526 156.078,81.584 155.864,81.655 C155.864,81.655 161.018,78.042 161.018,78.042 C162.238,77.186 163.218,76.025 163.858,74.688 C165.906,73.335 167.315,71.294 167.841,68.926 C167.841,68.926 169.633,60.920 169.633,60.920 C177.760,45.289 178.421,31.717 171.595,20.595 C163.852,7.968 148.086,2.539 144.134,2.539 C142.246,2.539 141.857,3.791 141.783,4.174 C141.417,6.048 143.599,6.907 145.198,7.542 C148.987,9.049 151.559,11.349 152.847,14.371 C155.149,19.830 152.628,26.138 152.628,26.138 C151.814,27.542 151.109,27.542 150.876,27.542 C148.337,27.542 144.121,22.288 141.935,18.554 C141.935,18.554 140.332,15.828 140.332,15.828 C140.332,15.828 138.756,18.563 138.756,18.563 C135.509,24.198 134.774,30.033 136.564,35.901 C139.427,45.284 147.876,52.053 151.770,54.759 C151.492,55.363 151.278,55.984 151.139,56.622 C151.139,56.622 149.290,64.875 149.290,64.875 C149.265,64.985 149.249,65.094 149.231,65.206 C149.231,65.206 142.209,70.142 142.209,70.142 C142.159,70.178 142.109,69.586 142.057,69.623 C140.841,69.388 139.688,68.648 138.540,68.648 C138.540,68.648 96.315,68.648 96.315,68.648 C95.835,68.648 95.358,69.294 94.869,69.341 C94.266,68.407 93.513,67.939 92.619,67.318 C92.619,67.318 85.576,62.528 85.576,62.528 C85.563,62.422 85.539,62.382 85.518,62.259 C85.518,62.259 83.665,54.056 83.665,54.056 C83.522,53.415 83.310,52.809 83.035,52.212 C87.847,48.817 106.480,34.078 96.049,16.023 C96.049,16.023 94.480,13.291 94.480,13.291 C94.480,13.291 92.876,16.020 92.876,16.020 C90.687,19.750 86.461,25.009 83.923,25.009 C83.688,25.009 82.994,25.009 82.279,23.811 C82.012,23.140 79.743,17.107 81.960,11.846 C83.245,8.814 85.821,6.515 89.606,5.007 C91.200,4.379 93.381,3.513 93.022,1.640 C92.943,1.258 92.551,0.008 90.666,0.008 C86.718,0.008 70.963,5.440 63.213,18.064 C56.380,29.194 57.041,42.759 65.181,58.389 C65.181,58.389 66.964,66.399 66.964,66.399 C67.500,68.762 68.915,70.803 70.950,72.157 C71.579,73.489 72.559,74.648 73.793,75.521 C73.793,75.521 79.991,79.872 79.991,79.872 C79.940,79.980 79.883,80.086 79.832,80.194 C78.944,79.623 77.961,79.194 76.894,78.924 C76.894,78.924 57.065,74.036 57.065,74.036 C54.875,73.489 52.490,73.735 50.426,74.704 C48.196,73.536 45.424,73.452 43.133,74.453 C43.133,74.453 27.859,81.168 27.859,81.168 C25.819,82.061 24.256,83.685 23.459,85.747 C22.629,87.869 22.707,90.219 23.666,92.354 C24.239,93.660 25.059,94.318 26.112,94.318 C27.666,94.318 28.364,92.961 29.126,91.471 C29.645,90.440 30.353,89.048 31.189,88.430 C31.189,88.430 49.478,90.062 49.478,90.062 C49.478,90.062 49.616,90.071 49.616,90.071 C49.616,90.071 50.050,89.877 50.050,89.877 C50.202,89.809 50.354,89.739 50.497,89.659 C51.219,89.907 51.995,90.129 52.700,90.276 C52.700,90.276 72.051,98.162 72.051,98.162 C73.054,98.417 74.112,98.501 75.198,98.407 C75.198,98.407 71.895,111.615 71.895,111.615 C71.895,111.615 52.944,106.945 52.944,106.945 C50.747,106.384 48.355,106.639 46.298,107.607 C44.062,106.454 41.299,106.365 39.019,107.348 C39.019,107.348 23.735,114.079 23.735,114.079 C21.666,114.986 20.098,116.639 19.308,118.730 C18.511,120.838 18.600,123.157 19.539,125.271 C20.112,126.578 20.931,127.236 21.982,127.236 C23.548,127.236 24.250,125.849 24.994,124.377 C25.486,123.409 26.215,121.968 27.066,121.337 C27.066,121.337 45.370,122.968 45.370,122.968 C45.370,122.968 45.509,122.979 45.509,122.979 C45.509,122.979 45.952,122.777 45.952,122.777 C46.094,122.711 46.233,122.640 46.380,122.565 C47.308,122.881 48.189,123.100 48.579,123.184 C48.579,123.184 67.913,131.066 67.913,131.066 C68.441,131.197 68.994,131.278 69.577,131.316 C70.438,133.438 71.766,135.948 73.461,138.617 C73.461,138.617 61.847,145.530 61.847,145.530 C59.861,146.723 58.411,148.496 57.645,150.657 C55.208,151.415 53.225,153.238 52.303,155.585 C52.303,155.585 46.305,171.039 46.305,171.039 C45.484,173.118 45.542,175.377 46.447,177.408 C47.372,179.480 49.060,181.029 51.331,181.899 C51.835,182.087 52.317,182.185 52.764,182.185 C53.944,182.185 54.530,181.510 54.678,181.304 C55.475,180.217 55.066,178.997 54.544,177.449 C54.198,176.412 53.682,174.877 53.841,173.843 C53.841,173.843 67.954,162.163 67.954,162.163 C67.954,162.163 68.062,162.071 68.062,162.071 C68.062,162.071 68.232,161.602 68.232,161.602 C68.279,161.464 68.323,161.320 68.367,161.182 C69.042,160.856 69.726,160.476 70.367,160.087 C70.367,160.087 85.709,152.421 85.709,152.421 C91.561,158.105 96.515,159.644 100.447,159.644 C100.447,159.644 137.164,159.644 137.164,159.644 C140.413,159.644 144.046,159.005 147.971,155.099 C147.971,155.099 162.754,161.858 162.754,161.858 C163.612,162.365 164.333,163.095 164.990,163.412 C165.038,163.562 165.086,163.885 165.146,164.039 C165.146,164.039 165.269,164.438 165.269,164.438 C165.269,164.438 179.512,176.353 179.512,176.353 C179.671,177.397 179.159,178.952 178.808,179.987 C178.299,181.533 177.892,182.766 178.682,183.847 C178.930,184.193 179.505,184.762 180.553,184.762 C181.020,184.762 181.505,184.654 182.243,184.375 C186.571,182.706 188.730,177.870 187.056,173.596 C187.056,173.596 181.058,158.143 181.058,158.143 C180.139,155.799 178.159,153.973 175.717,153.211 C174.961,151.058 173.480,149.249 171.517,148.083 C171.517,148.083 159.243,140.780 159.243,140.780 C160.568,138.359 161.699,136.049 162.615,133.887 C163.612,133.940 164.536,133.857 165.692,133.545 C165.692,133.545 184.556,125.829 184.556,125.829 C185.337,125.629 186.179,125.403 186.988,125.124 C187.130,125.199 187.276,125.271 187.425,125.336 C187.425,125.336 187.859,125.531 187.859,125.531 C187.859,125.531 206.295,123.896 206.295,123.896 C207.150,124.517 207.881,125.960 208.376,126.934 C209.118,128.402 209.820,129.777 211.379,129.777 C212.962,129.777 213.626,128.270 213.913,127.619 C214.833,125.581 214.887,123.315 214.079,121.239 Z" id="path-7" class="cls-9" fill-rule="evenodd"/>
    <path d="M144.061,24.167 C144.249,24.167 144.749,24.127 145.360,23.391 C144.050,21.826 142.823,20.070 141.935,18.554 C141.935,18.554 140.332,15.828 140.332,15.828 C140.332,15.828 138.756,18.563 138.756,18.563 C138.554,18.915 138.391,19.269 138.209,19.621 C140.208,22.090 142.465,24.167 144.061,24.167 Z" id="path-8" class="cls-10" fill-rule="evenodd"/>
    <path d="M164.780,17.220 C171.606,28.342 170.945,41.913 162.819,57.545 C162.819,57.545 161.026,65.551 161.026,65.551 C160.500,67.919 159.091,69.959 157.044,71.312 C156.403,72.648 155.423,73.810 154.204,74.666 C154.204,74.666 149.049,78.279 149.049,78.279 C149.263,78.208 149.466,78.151 149.669,78.101 C149.669,78.101 164.030,74.550 164.030,74.550 C165.977,73.197 167.332,71.222 167.841,68.926 C167.841,68.926 169.633,60.920 169.633,60.920 C177.760,45.289 178.421,31.717 171.595,20.595 C166.449,12.204 157.775,7.008 151.365,4.456 C156.259,7.381 161.320,11.577 164.780,17.220 Z" id="path-9" class="cls-10" fill-rule="evenodd"/>
    <path d="M65.236,94.787 C65.236,94.787 45.885,86.901 45.885,86.901 C45.180,86.754 44.403,86.532 43.682,86.284 C43.539,86.364 43.388,86.434 43.234,86.501 C43.234,86.501 42.801,86.695 42.801,86.695 C42.801,86.695 42.662,86.685 42.662,86.685 C42.662,86.685 24.375,85.054 24.375,85.054 C23.987,85.340 23.630,85.800 23.304,86.307 C22.688,88.279 22.790,90.402 23.666,92.354 C24.239,93.660 25.059,94.318 26.112,94.318 C27.666,94.318 28.364,92.961 29.126,91.471 C29.645,90.440 30.353,89.048 31.189,88.430 C31.189,88.430 49.478,90.062 49.478,90.062 C49.478,90.062 49.616,90.071 49.616,90.071 C49.616,90.071 50.050,89.877 50.050,89.877 C50.202,89.809 50.354,89.739 50.497,89.659 C51.219,89.907 51.995,90.129 52.700,90.276 C52.700,90.276 68.013,96.516 68.013,96.516 C68.013,96.516 68.384,95.032 68.384,95.032 C67.297,95.125 66.239,95.041 65.236,94.787 Z" id="path-10" class="cls-10" fill-rule="evenodd"/>
    <path d="M153.038,97.583 C153.038,97.583 155.864,110.500 155.864,110.500 C155.864,110.500 161.628,109.072 161.628,109.072 C161.628,109.072 159.852,100.959 159.852,100.959 C160.392,100.905 160.948,100.797 161.584,100.623 C161.584,100.623 180.438,92.907 180.438,92.907 C181.173,92.723 182.026,92.495 182.874,92.213 C183.040,92.300 183.210,92.371 183.372,92.441 C183.372,92.441 183.789,92.616 183.789,92.616 C183.789,92.616 197.832,91.370 197.832,91.370 C197.706,91.142 197.581,90.917 197.457,90.679 C196.918,89.617 196.210,88.227 195.383,87.609 C195.383,87.609 176.974,89.240 176.974,89.240 C176.974,89.240 176.558,89.066 176.558,89.066 C176.395,88.995 176.225,88.925 176.059,88.839 C175.212,89.120 174.359,89.348 173.623,89.532 C173.623,89.532 154.770,97.247 154.770,97.247 C154.133,97.422 153.577,97.530 153.038,97.583 Z" id="path-11" class="cls-10" fill-rule="evenodd"/>
    <path d="M91.510,18.146 C95.909,33.664 80.537,45.889 76.220,48.934 C76.494,49.532 76.708,50.235 76.850,50.876 C76.850,50.876 78.704,59.276 78.704,59.276 C78.724,59.400 78.748,59.831 78.761,59.939 C78.761,59.939 85.804,65.511 85.804,65.511 C86.698,66.132 87.451,68.171 88.054,69.104 C88.542,69.056 89.020,71.549 89.500,71.549 C89.500,71.549 94.357,71.549 94.357,71.549 C93.856,70.563 93.276,69.343 92.619,68.887 C92.619,68.887 85.576,63.313 85.576,63.313 C85.563,63.206 85.539,62.775 85.519,62.651 C85.519,62.651 83.665,54.251 83.665,54.251 C83.523,53.611 83.310,52.908 83.035,52.310 C87.847,48.915 106.480,34.127 96.048,16.071 C96.048,16.071 94.480,13.316 94.480,13.316 C94.480,13.316 92.876,16.032 92.876,16.032 C92.485,16.701 92.012,17.420 91.510,18.146 Z" id="path-12" class="cls-10" fill-rule="evenodd"/>
    <path d="M165.692,133.545 C165.692,133.545 184.556,125.829 184.556,125.829 C185.337,125.629 186.179,125.403 186.988,125.124 C187.130,125.199 187.276,125.271 187.425,125.336 C187.425,125.336 187.859,125.531 187.859,125.531 C187.859,125.531 201.944,124.282 201.944,124.282 C201.816,124.043 201.687,123.807 201.561,123.558 C201.066,122.585 200.335,121.141 199.480,120.521 C199.480,120.521 181.044,122.154 181.044,122.154 C181.044,122.154 180.611,121.960 180.611,121.960 C180.462,121.896 180.316,121.823 180.173,121.748 C179.363,122.027 178.522,122.252 177.740,122.453 C177.740,122.453 158.877,130.169 158.877,130.169 C157.721,130.482 156.797,130.565 155.799,130.511 C154.884,132.674 153.753,134.984 152.429,137.405 C152.429,137.405 164.702,144.707 164.702,144.707 C166.665,145.875 168.146,147.685 168.902,149.837 C171.345,150.598 173.324,152.424 174.243,154.767 C174.243,154.767 180.241,170.222 180.241,170.222 C181.251,172.798 180.846,175.570 179.435,177.740 C179.292,178.532 179.027,179.364 178.808,180.010 C178.299,181.557 177.892,182.778 178.682,183.858 C178.930,184.205 179.505,184.766 180.553,184.766 C181.020,184.766 181.505,184.657 182.243,184.379 C186.571,182.709 188.730,177.873 187.056,173.598 C187.056,173.598 181.058,158.144 181.058,158.144 C180.139,155.800 178.159,153.973 175.717,153.211 C174.961,151.058 173.480,149.249 171.517,148.083 C171.517,148.083 159.243,140.780 159.243,140.780 C160.568,138.359 161.699,136.049 162.615,133.887 C163.612,133.940 164.536,133.857 165.692,133.545 Z" id="path-13" class="cls-10" fill-rule="evenodd"/>
    <path d="M157.039,157.738 C156.382,157.422 140.020,150.568 140.020,150.568 C136.095,154.473 132.463,156.635 129.213,156.635 C129.213,156.635 92.496,156.635 92.496,156.635 C91.888,156.635 91.247,156.536 90.588,156.391 C93.889,158.760 96.809,160.012 99.311,160.012 C99.311,160.012 136.027,160.012 136.027,160.012 C139.278,160.012 144.046,159.234 147.971,155.329 C147.971,155.329 156.283,159.063 156.283,159.063 C156.229,158.925 157.083,157.877 157.039,157.738 Z" id="path-14" class="cls-10" fill-rule="evenodd"/>
    <path d="M75.146,8.471 C72.929,13.733 75.196,19.766 75.464,20.439 C76.179,21.637 76.874,21.640 77.107,21.640 C78.231,21.640 79.685,20.585 81.146,19.115 C80.882,16.940 80.920,14.317 81.960,11.847 C83.245,8.815 85.820,6.515 89.606,5.007 C91.200,4.379 93.381,3.513 93.022,1.641 C92.943,1.258 92.551,0.009 90.666,0.009 C88.649,0.009 83.543,1.439 78.002,4.510 C76.741,5.647 75.782,6.968 75.146,8.471 Z" id="path-15" class="cls-10" fill-rule="evenodd"/>
    <path d="M78.894,150.568 C78.894,150.568 63.552,156.711 63.552,156.711 C62.911,157.101 62.227,157.480 61.552,157.806 C61.508,157.943 61.464,158.088 61.417,158.225 C61.417,158.225 61.247,158.695 61.247,158.695 C61.247,158.695 61.139,158.787 61.139,158.787 C61.139,158.787 47.026,170.467 47.026,170.467 C46.868,171.501 47.383,173.035 47.729,174.074 C48.251,175.620 48.661,176.843 47.864,177.930 C47.777,178.051 47.515,178.323 47.095,178.536 C48.073,180.038 49.501,181.199 51.331,181.899 C51.835,182.087 52.317,182.185 52.764,182.185 C53.944,182.185 54.530,181.510 54.678,181.304 C55.475,180.217 55.066,178.997 54.544,177.449 C54.198,176.412 53.682,174.876 53.842,173.843 C53.842,173.843 67.954,162.163 67.954,162.163 C67.954,162.163 68.062,162.071 68.062,162.071 C68.062,162.071 68.232,161.602 68.232,161.602 C68.279,161.464 68.323,161.320 68.367,161.182 C69.042,160.856 69.726,160.476 70.367,160.087 C70.367,160.087 85.709,152.650 85.709,152.650 C84.187,151.464 80.564,152.191 78.894,150.568 Z" id="path-16" class="cls-10" fill-rule="evenodd"/>
    <path d="M45.509,122.979 C45.509,122.979 45.952,122.777 45.952,122.777 C46.094,122.710 46.233,122.640 46.379,122.565 C47.308,122.881 48.189,123.100 48.579,123.184 C48.579,123.184 63.363,129.212 63.363,129.212 C63.174,128.795 62.921,128.332 62.762,127.940 C62.179,127.902 61.626,127.822 61.098,127.692 C61.098,127.692 41.764,119.809 41.764,119.809 C41.374,119.725 40.493,119.507 39.564,119.191 C39.420,119.265 39.280,119.335 39.137,119.403 C39.137,119.403 38.694,119.604 38.694,119.604 C38.694,119.604 38.554,119.594 38.554,119.594 C38.554,119.594 20.251,117.962 20.251,117.962 C19.862,118.250 19.505,118.716 19.177,119.218 C18.565,121.194 18.671,123.316 19.539,125.271 C20.112,126.578 20.931,127.236 21.982,127.236 C23.548,127.236 24.250,125.849 24.994,124.375 C25.486,123.409 26.215,121.968 27.066,121.337 C27.066,121.337 45.370,122.968 45.370,122.968 C45.370,122.968 45.509,122.979 45.509,122.979 Z" id="path-17" class="cls-10" fill-rule="evenodd"/>
    <circle id="circle-1" class="cls-20" cx="101" cy="87" r="5"/>
    <circle id="circle-2" class="cls-20" cx="99" cy="139" r="11"/>
    <path d="M88.961,116.602 C92.178,116.602 94.787,119.186 94.787,122.373 C94.787,125.559 92.178,128.144 88.961,128.144 C85.745,128.144 83.136,125.559 83.136,122.373 C83.136,119.186 85.745,116.602 88.961,116.602 Z" id="path-18" class="cls-20" fill-rule="evenodd"/>
    <circle id="circle-3" class="cls-20" cx="137" cy="87" r="5"/>
  </g>
</svg>
