<svg xmlns="http://www.w3.org/2000/svg" xmlns:xlink="http://www.w3.org/1999/xlink" preserveAspectRatio="xMidYMid" width="221" height="220" viewBox="0 0 221 220">
  <defs>
    <style>

      .cls-3 {
        fill: #2476ff;
      }

      .cls-6 {
        fill: #ff3a2f;
      }

      .cls-7 {
        fill: #ffffff;
      }

      .cls-8 {
        fill: #020403;
        opacity: 0.35;
      }
    </style>
  </defs>
  <g id="group-138svg">
    <path d="M135.483,160.456 C135.483,160.456 157.881,160.456 157.881,160.456 C162.199,160.456 165.700,162.798 165.700,165.687 C165.700,168.577 162.199,170.918 157.881,170.918 C157.881,170.918 156.838,170.918 156.838,170.918 C152.520,170.918 149.020,173.261 149.020,176.150 C149.020,179.040 152.520,181.381 156.838,181.381 C156.838,181.381 179.515,181.381 179.515,181.381 C183.833,181.381 187.334,183.724 187.334,186.613 C187.334,189.502 183.833,191.844 179.515,191.844 C179.515,191.844 121.653,191.844 121.653,191.844 C121.653,191.844 58.057,191.844 58.057,191.844 C53.739,191.844 50.237,189.502 50.237,186.613 C50.237,183.724 53.739,181.381 58.057,181.381 C58.057,181.381 71.420,181.381 71.420,181.381 C75.738,181.381 79.239,179.040 79.239,176.150 C79.239,173.261 75.738,170.918 71.420,170.918 C71.420,170.918 7.824,170.918 7.824,170.918 C3.505,170.918 0.005,168.577 0.005,165.687 C0.005,162.798 3.505,160.456 7.824,160.456 C7.824,160.456 22.854,160.456 22.854,160.456 C22.854,160.456 135.483,160.456 135.483,160.456 Z" id="path-1" class="cls-3" fill-rule="evenodd"/>
    <path d="M38.391,55.097 C38.391,55.097 43.439,55.097 43.439,55.097 C44.412,55.097 45.201,55.884 45.201,56.855 C45.201,57.826 44.412,58.611 43.439,58.611 C43.439,58.611 43.204,58.611 43.204,58.611 C42.231,58.611 41.442,59.399 41.442,60.369 C41.442,61.339 42.231,62.126 43.204,62.126 C43.204,62.126 54.055,62.126 54.055,62.126 C55.029,62.126 55.818,62.913 55.818,63.884 C55.818,64.855 55.029,65.642 54.055,65.642 C54.055,65.642 41.015,65.642 41.015,65.642 C41.015,65.642 26.682,65.642 26.682,65.642 C25.708,65.642 24.919,64.855 24.919,63.884 C24.919,62.913 25.708,62.126 26.682,62.126 C26.682,62.126 29.693,62.126 29.693,62.126 C30.666,62.126 31.455,61.339 31.455,60.369 C31.455,59.399 30.666,58.611 29.693,58.611 C29.693,58.611 15.361,58.611 15.361,58.611 C14.387,58.611 13.598,57.826 13.598,56.855 C13.598,55.884 14.387,55.097 15.361,55.097 C15.361,55.097 18.748,55.097 18.748,55.097 C18.748,55.097 38.391,55.097 38.391,55.097 Z" id="path-2" class="cls-3" fill-rule="evenodd"/>
    <path d="M199.516,204.126 C199.516,204.126 205.670,204.126 205.670,204.126 C206.857,204.126 207.819,205.292 207.819,206.730 C207.819,208.167 206.857,209.332 205.670,209.332 C205.670,209.332 205.383,209.332 205.383,209.332 C204.197,209.332 203.235,210.498 203.235,211.935 C203.235,213.372 204.197,214.538 205.383,214.538 C205.383,214.538 218.612,214.538 218.612,214.538 C219.800,214.538 220.761,215.703 220.761,217.140 C220.761,218.580 219.800,219.745 218.612,219.745 C218.612,219.745 202.715,219.745 202.715,219.745 C202.715,219.745 185.242,219.745 185.242,219.745 C184.055,219.745 183.094,218.580 183.094,217.140 C183.094,215.703 184.055,214.538 185.242,214.538 C185.242,214.538 188.913,214.538 188.913,214.538 C190.100,214.538 191.061,213.372 191.061,211.935 C191.061,210.498 190.100,209.332 188.913,209.332 C188.913,209.332 171.440,209.332 171.440,209.332 C170.254,209.332 169.292,208.167 169.292,206.730 C169.292,205.292 170.254,204.126 171.440,204.126 C171.440,204.126 175.570,204.126 175.570,204.126 C175.570,204.126 199.516,204.126 199.516,204.126 Z" id="path-3" class="cls-3" fill-rule="evenodd"/>
    <path d="M37.464,100.674 C45.617,84.617 74.208,68.128 119.535,68.128 C164.862,68.128 201.605,82.699 201.605,100.674 C201.605,100.674 210.044,140.185 197.988,149.142 C197.988,149.142 102.743,194.134 37.464,149.142 C37.464,149.142 31.051,113.308 37.464,100.674 Z" id="path-4" class="cls-6" fill-rule="evenodd"/>
    <path d="M48.379,111.489 C47.832,111.489 47.273,111.367 46.748,111.106 C44.953,110.210 44.229,108.043 45.131,106.264 C53.859,89.077 83.624,71.732 130.453,71.732 C132.464,71.732 134.092,73.347 134.092,75.337 C134.092,77.328 132.464,78.942 130.453,78.942 C86.957,78.942 59.108,94.785 51.634,109.504 C50.995,110.763 49.712,111.489 48.379,111.489 Z" id="path-5" class="cls-7" fill-rule="evenodd"/>
    <path d="M34.708,115.026 C99.986,160.017 197.988,113.310 197.988,113.310 C197.988,113.310 202.432,105.133 202.432,105.133 C202.432,105.133 210.044,140.185 197.988,149.142 C197.988,149.142 102.743,194.134 37.464,149.142 C37.464,149.142 34.708,115.026 34.708,115.026 Z" id="path-6" class="cls-8" fill-rule="evenodd"/>
    <path d="M185.759,41.647 C185.759,50.129 178.820,57.004 170.259,57.004 C161.698,57.004 154.758,50.129 154.758,41.647 C154.758,33.167 161.698,26.294 170.259,26.294 C178.820,26.294 185.759,33.167 185.759,41.647 Z" id="path-7" class="cls-3" fill-rule="evenodd"/>
    <path d="M182.333,38.044 C182.333,42.658 178.556,46.400 173.898,46.400 C169.239,46.400 165.462,42.658 165.462,38.044 C165.462,33.427 169.239,29.687 173.898,29.687 C178.556,29.687 182.333,33.427 182.333,38.044 Z" id="path-8" class="cls-7" fill-rule="evenodd"/>
    <path d="M149.370,131.769 C149.370,140.251 142.431,147.125 133.870,147.125 C125.309,147.125 118.370,140.251 118.370,131.769 C118.370,123.288 125.309,116.414 133.870,116.414 C142.431,116.414 149.370,123.288 149.370,131.769 Z" id="path-9" class="cls-8" fill-rule="evenodd"/>
    <path d="M69.144,144.217 C69.144,149.067 65.176,152.997 60.280,152.997 C55.385,152.997 51.417,149.067 51.417,144.217 C51.417,139.367 55.385,135.435 60.280,135.435 C65.176,135.435 69.144,139.367 69.144,144.217 Z" id="path-10" class="cls-8" fill-rule="evenodd"/>
    <path d="M102.533,102.688 C102.533,105.694 100.072,108.132 97.038,108.132 C94.003,108.132 91.542,105.694 91.542,102.688 C91.542,99.682 94.003,97.245 97.038,97.245 C100.072,97.245 102.533,99.682 102.533,102.688 Z" id="path-11" class="cls-8" fill-rule="evenodd"/>
    <path d="M198.764,91.524 C195.791,95.536 190.098,96.402 186.048,93.457 C181.998,90.511 181.125,84.872 184.097,80.859 C190.458,83.928 195.413,87.462 198.764,91.524 Z" id="path-12" class="cls-8" fill-rule="evenodd"/>
    <path d="M216.558,9.006 C216.558,13.983 212.485,18.018 207.461,18.018 C202.437,18.018 198.364,13.983 198.364,9.006 C198.364,4.029 202.437,-0.004 207.461,-0.004 C212.485,-0.004 216.558,4.029 216.558,9.006 Z" id="path-13" class="cls-3" fill-rule="evenodd"/>
  </g>
</svg>
