<svg xmlns="http://www.w3.org/2000/svg" xmlns:xlink="http://www.w3.org/1999/xlink" preserveAspectRatio="xMidYMid" width="219" height="219" viewBox="0 0 219 219">
  <defs>
    <style>

      .cls-3 {
        fill: #fbb713;
      }

      .cls-5 {
        fill: #ff3a2f;
      }

      .cls-6 {
        fill: #142a3b;
      }

      .cls-8 {
        fill: #0cb04a;
      }

      .cls-13 {
        fill: #a72425;
      }

      .cls-16 {
        fill: #ffffff;
      }

      .cls-17 {
        fill: #020403;
        opacity: 0.35;
      }
    </style>
  </defs>
  <g id="group-152svg">
    <path d="M163.869,202.423 C163.869,202.423 179.644,202.423 179.644,202.423 C182.686,202.423 185.152,203.622 185.152,205.101 C185.152,206.579 182.686,207.779 179.644,207.779 C179.644,207.779 178.911,207.779 178.911,207.779 C175.869,207.779 173.403,208.976 173.403,210.455 C173.403,211.933 175.869,213.133 178.911,213.133 C178.911,213.133 212.823,213.133 212.823,213.133 C215.863,213.133 218.329,214.331 218.329,215.809 C218.329,217.289 215.863,218.487 212.823,218.487 C212.823,218.487 172.069,218.487 172.069,218.487 C172.069,218.487 127.277,218.487 127.277,218.487 C124.235,218.487 121.770,217.289 121.770,215.809 C121.770,214.331 124.235,213.133 127.277,213.133 C127.277,213.133 136.689,213.133 136.689,213.133 C139.730,213.133 142.196,211.933 142.196,210.455 C142.196,208.976 139.730,207.779 136.689,207.779 C136.689,207.779 91.897,207.779 91.897,207.779 C88.855,207.779 86.389,206.579 86.389,205.101 C86.389,203.622 88.855,202.423 91.897,202.423 C91.897,202.423 102.483,202.423 102.483,202.423 C102.483,202.423 163.869,202.423 163.869,202.423 Z" id="path-1" class="cls-3" fill-rule="evenodd"/>
    <path d="M18.417,160.632 C18.417,160.632 22.167,160.632 22.167,160.632 C22.890,160.632 23.477,161.442 23.477,162.440 C23.477,163.439 22.890,164.247 22.167,164.247 C22.167,164.247 21.992,164.247 21.992,164.247 C21.269,164.247 20.683,165.057 20.683,166.056 C20.683,167.054 21.269,167.864 21.992,167.864 C21.992,167.864 30.055,167.864 30.055,167.864 C30.778,167.864 31.364,168.672 31.364,169.671 C31.364,170.669 30.778,171.480 30.055,171.480 C30.055,171.480 20.366,171.480 20.366,171.480 C20.366,171.480 9.718,171.480 9.718,171.480 C8.995,171.480 8.408,170.669 8.408,169.671 C8.408,168.672 8.995,167.864 9.718,167.864 C9.718,167.864 11.955,167.864 11.955,167.864 C12.678,167.864 13.264,167.054 13.264,166.056 C13.264,165.057 12.678,164.247 11.955,164.247 C11.955,164.247 1.306,164.247 1.306,164.247 C0.583,164.247 -0.003,163.439 -0.003,162.440 C-0.003,161.442 0.583,160.632 1.306,160.632 C1.306,160.632 3.823,160.632 3.823,160.632 C3.823,160.632 18.417,160.632 18.417,160.632 Z" id="path-2" class="cls-3" fill-rule="evenodd"/>
    <path d="M199.723,166.167 C199.723,166.167 204.915,166.167 204.915,166.167 C205.916,166.167 206.728,166.976 206.728,167.975 C206.728,168.973 205.916,169.782 204.915,169.782 C204.915,169.782 204.674,169.782 204.674,169.782 C203.673,169.782 202.861,170.592 202.861,171.590 C202.861,172.589 203.673,173.397 204.674,173.397 C204.674,173.397 215.836,173.397 215.836,173.397 C216.836,173.397 217.648,174.207 217.648,175.206 C217.648,176.204 216.836,177.014 215.836,177.014 C215.836,177.014 202.422,177.014 202.422,177.014 C202.422,177.014 187.678,177.014 187.678,177.014 C186.678,177.014 185.866,176.204 185.866,175.206 C185.866,174.207 186.678,173.397 187.678,173.397 C187.678,173.397 190.777,173.397 190.777,173.397 C191.777,173.397 192.589,172.589 192.589,171.590 C192.589,170.592 191.777,169.782 190.777,169.782 C190.777,169.782 176.034,169.782 176.034,169.782 C175.033,169.782 174.221,168.973 174.221,167.975 C174.221,166.976 175.033,166.167 176.034,166.167 C176.034,166.167 179.518,166.167 179.518,166.167 C179.518,166.167 199.723,166.167 199.723,166.167 Z" id="path-3" class="cls-5" fill-rule="evenodd"/>
    <path d="M140.653,1.533 C140.653,1.533 146.372,0.003 146.372,0.003 C146.372,0.003 150.914,3.769 150.914,3.769 C150.914,3.769 144.359,9.057 144.359,9.057 C144.359,9.057 140.653,1.533 140.653,1.533 Z" id="path-4" class="cls-6" fill-rule="evenodd"/>
    <path d="M145.031,6.042 C145.031,6.042 120.000,118.693 120.000,118.693 C120.000,118.693 150.914,3.769 150.914,3.769 C150.914,3.769 145.031,6.042 145.031,6.042 Z" id="path-5" class="cls-6" fill-rule="evenodd"/>
    <path d="M145.031,6.042 C145.031,6.042 120.000,118.693 120.000,118.693 C120.000,118.693 140.653,1.533 140.653,1.533 C140.653,1.533 145.031,6.042 145.031,6.042 Z" id="path-6" class="cls-8" fill-rule="evenodd"/>
    <path d="M177.731,13.377 C177.731,13.377 183.641,13.761 183.641,13.761 C183.641,13.761 186.712,18.777 186.712,18.777 C186.712,18.777 178.788,21.684 178.788,21.684 C178.788,21.684 177.731,13.377 177.731,13.377 Z" id="path-7" class="cls-6" fill-rule="evenodd"/>
    <path d="M180.406,19.041 C180.406,19.041 120.000,117.659 120.000,117.659 C120.000,117.659 186.712,18.777 186.712,18.777 C186.712,18.777 180.406,19.041 180.406,19.041 Z" id="path-8" class="cls-6" fill-rule="evenodd"/>
    <path d="M180.406,19.041 C180.406,19.041 120.000,117.659 120.000,117.659 C120.000,117.659 177.731,13.377 177.731,13.377 C177.731,13.377 180.406,19.041 180.406,19.041 Z" id="path-9" class="cls-8" fill-rule="evenodd"/>
    <path d="M125.477,178.784 C125.477,178.784 106.260,178.784 106.260,178.784 C106.260,178.784 100.827,178.784 100.827,178.784 C100.827,178.784 81.613,178.784 81.613,178.784 C81.613,178.784 68.268,203.938 68.268,203.938 C68.268,203.938 100.827,203.938 100.827,203.938 C100.827,203.938 106.260,203.938 106.260,203.938 C106.260,203.938 138.821,203.938 138.821,203.938 C138.821,203.938 125.477,178.784 125.477,178.784 Z" id="path-10" class="cls-5" fill-rule="evenodd"/>
    <path d="M80.711,177.161 C80.711,177.161 74.686,188.516 74.686,188.516 C84.619,193.703 95.663,196.616 107.312,196.616 C116.094,196.616 124.525,194.949 132.404,191.918 C132.404,191.918 124.574,177.161 124.574,177.161 C124.574,177.161 105.358,177.161 105.358,177.161 C105.358,177.161 99.926,177.161 99.926,177.161 C99.926,177.161 80.711,177.161 80.711,177.161 Z" id="path-11" class="cls-13" fill-rule="evenodd"/>
    <path d="M148.849,81.501 C148.429,81.501 148.021,81.525 147.606,81.535 C143.048,79.222 136.909,77.794 130.134,77.794 C120.885,77.794 112.812,80.448 108.362,84.405 C104.043,82.592 98.617,81.501 92.705,81.501 C92.286,81.501 91.877,81.525 91.462,81.535 C86.905,79.222 80.765,77.794 73.991,77.794 C63.984,77.794 55.351,80.899 51.201,85.401 C39.099,86.448 29.847,92.053 29.847,98.831 C29.847,106.356 41.232,112.455 55.277,112.455 C64.527,112.455 72.599,109.800 77.049,105.844 C81.368,107.657 86.794,108.747 92.705,108.747 C93.126,108.747 93.534,108.724 93.949,108.714 C98.507,111.026 104.646,112.455 111.420,112.455 C120.671,112.455 128.743,109.800 133.193,105.844 C137.512,107.657 142.938,108.747 148.849,108.747 C162.894,108.747 174.280,102.647 174.280,95.123 C174.280,87.601 162.894,81.501 148.849,81.501 Z" id="path-12" class="cls-3" fill-rule="evenodd"/>
    <path d="M181.755,105.932 C181.755,154.998 146.738,194.773 103.547,194.773 C60.352,194.773 25.336,154.998 25.336,105.932 C25.336,105.932 181.755,105.932 181.755,105.932 Z" id="path-13" class="cls-5" fill-rule="evenodd"/>
    <path d="M83.165,180.840 C82.477,180.840 81.780,180.649 81.164,180.243 C60.276,166.583 46.103,143.290 42.277,116.341 C41.996,114.370 43.384,112.545 45.374,112.270 C47.377,111.988 49.205,113.365 49.484,115.337 C53.017,140.241 66.026,161.705 85.173,174.228 C86.849,175.324 87.312,177.560 86.205,179.221 C85.505,180.271 84.346,180.840 83.165,180.840 Z" id="path-14" class="cls-16" fill-rule="evenodd"/>
    <path d="M38.429,105.932 C38.429,105.932 25.335,105.932 25.335,105.932 C25.335,144.034 46.454,176.523 76.117,189.141 C76.117,189.141 68.268,203.938 68.268,203.938 C68.268,203.938 74.174,203.938 74.174,203.938 C74.174,203.938 80.707,189.141 80.707,189.141 C56.012,176.523 38.429,144.034 38.429,105.932 Z" id="path-15" class="cls-17" fill-rule="evenodd"/>
    <path d="M181.754,105.932 C181.754,105.932 168.658,105.932 168.658,105.932 C168.658,106.562 168.640,107.187 168.632,107.812 C168.632,107.812 40.508,107.812 40.508,107.812 C40.508,107.812 168.335,114.657 168.335,114.657 C165.884,148.935 149.166,177.499 126.379,189.145 C126.379,189.145 132.911,203.938 132.911,203.938 C132.911,203.938 138.821,203.938 138.821,203.938 C138.821,203.938 130.973,189.145 130.973,189.145 C160.635,176.523 181.754,144.034 181.754,105.932 Z" id="path-16" class="cls-17" fill-rule="evenodd"/>
    <path d="M186.712,103.910 C186.712,106.067 184.949,107.812 182.772,107.812 C182.772,107.812 24.311,107.812 24.311,107.812 C22.135,107.812 20.371,106.067 20.371,103.910 C20.371,103.910 20.371,103.910 20.371,103.910 C20.371,101.752 22.135,100.006 24.311,100.006 C24.311,100.006 182.772,100.006 182.772,100.006 C184.949,100.006 186.712,101.752 186.712,103.910 C186.712,103.910 186.712,103.910 186.712,103.910 Z" id="path-17" class="cls-5" fill-rule="evenodd"/>
  </g>
</svg>
