<svg xmlns="http://www.w3.org/2000/svg" xmlns:xlink="http://www.w3.org/1999/xlink" preserveAspectRatio="xMidYMid" width="226" height="171" viewBox="0 0 226 171">
  <defs>
    <style>

      .cls-3 {
        fill: #fbb713;
      }

      .cls-7 {
        fill: #ff3a2f;
      }

      .cls-8 {
        fill: #142a3b;
      }

      .cls-9 {
        fill: #020403;
        opacity: 0.35;
      }

      .cls-11 {
        fill: #ffffff;
      }
    </style>
  </defs>
  <g id="group-86svg">
    <path d="M182.875,111.729 C182.875,111.729 195.257,111.729 195.257,111.729 C197.644,111.729 199.579,112.943 199.579,114.442 C199.579,115.941 197.644,117.155 195.257,117.155 C195.257,117.155 194.680,117.155 194.680,117.155 C192.293,117.155 190.358,118.370 190.358,119.869 C190.358,121.367 192.293,122.581 194.680,122.581 C194.680,122.581 221.297,122.581 221.297,122.581 C223.685,122.581 225.620,123.796 225.620,125.295 C225.620,126.793 223.685,128.007 221.297,128.007 C221.297,128.007 189.311,128.007 189.311,128.007 C189.311,128.007 154.154,128.007 154.154,128.007 C151.767,128.007 149.832,126.793 149.832,125.295 C149.832,123.796 151.767,122.581 154.154,122.581 C154.154,122.581 161.541,122.581 161.541,122.581 C163.929,122.581 165.863,121.367 165.863,119.869 C165.863,118.370 163.929,117.155 161.541,117.155 C161.541,117.155 126.385,117.155 126.385,117.155 C123.998,117.155 122.062,115.941 122.062,114.442 C122.062,112.943 123.998,111.729 126.385,111.729 C126.385,111.729 134.694,111.729 134.694,111.729 C134.694,111.729 182.875,111.729 182.875,111.729 Z" id="path-1" class="cls-3" fill-rule="evenodd"/>
    <path d="M206.325,90.589 C209.907,90.589 212.809,88.766 212.809,86.519 C212.809,84.271 209.907,82.449 206.325,82.449 C206.325,82.449 186.456,82.449 186.456,82.449 C182.875,82.449 179.972,84.271 179.972,86.519 C179.972,88.766 182.875,90.589 186.456,90.589 C186.456,90.589 206.325,90.589 206.325,90.589 Z" id="path-2" class="cls-3" fill-rule="evenodd"/>
    <path d="M25.550,56.736 C25.550,56.736 30.750,56.736 30.750,56.736 C31.753,56.736 32.565,57.546 32.565,58.546 C32.565,59.546 31.753,60.357 30.750,60.357 C30.750,60.357 30.508,60.357 30.508,60.357 C29.505,60.357 28.693,61.168 28.693,62.167 C28.693,63.167 29.505,63.978 30.508,63.978 C30.508,63.978 41.687,63.978 41.687,63.978 C42.690,63.978 43.503,64.789 43.503,65.789 C43.503,66.790 42.690,67.600 41.687,67.600 C41.687,67.600 28.253,67.600 28.253,67.600 C28.253,67.600 13.488,67.600 13.488,67.600 C12.485,67.600 11.673,66.790 11.673,65.789 C11.673,64.789 12.485,63.978 13.488,63.978 C13.488,63.978 16.590,63.978 16.590,63.978 C17.593,63.978 18.406,63.167 18.406,62.167 C18.406,61.168 17.593,60.357 16.590,60.357 C16.590,60.357 1.825,60.357 1.825,60.357 C0.822,60.357 0.010,59.546 0.010,58.546 C0.010,57.546 0.822,56.736 1.825,56.736 C1.825,56.736 5.315,56.736 5.315,56.736 C5.315,56.736 25.550,56.736 25.550,56.736 Z" id="path-3" class="cls-3" fill-rule="evenodd"/>
    <path d="M164.781,42.594 C164.781,42.594 168.153,42.594 168.153,42.594 C168.803,42.594 169.330,43.032 169.330,43.573 C169.330,44.113 168.803,44.553 168.153,44.553 C168.153,44.553 167.996,44.553 167.996,44.553 C167.346,44.553 166.818,44.991 166.818,45.532 C166.818,46.073 167.346,46.512 167.996,46.512 C167.996,46.512 175.245,46.512 175.245,46.512 C175.895,46.512 176.421,46.951 176.421,47.492 C176.421,48.033 175.895,48.471 175.245,48.471 C175.245,48.471 166.533,48.471 166.533,48.471 C166.533,48.471 156.959,48.471 156.959,48.471 C156.308,48.471 155.781,48.033 155.781,47.492 C155.781,46.951 156.308,46.512 156.959,46.512 C156.959,46.512 158.970,46.512 158.970,46.512 C159.620,46.512 160.148,46.073 160.148,45.532 C160.148,44.991 159.620,44.553 158.970,44.553 C158.970,44.553 149.395,44.553 149.395,44.553 C148.746,44.553 148.218,44.113 148.218,43.573 C148.218,43.032 148.746,42.594 149.395,42.594 C149.395,42.594 151.659,42.594 151.659,42.594 C151.659,42.594 164.781,42.594 164.781,42.594 Z" id="path-4" class="cls-3" fill-rule="evenodd"/>
    <path d="M217.278,72.064 C212.060,68.158 204.632,69.178 200.684,74.348 C200.684,74.348 155.277,133.827 155.277,133.827 C155.277,133.827 25.366,133.827 25.366,133.827 C18.821,133.827 13.520,139.086 13.520,145.561 C13.520,152.037 18.821,157.303 25.366,157.303 C25.366,157.303 40.365,157.303 40.365,157.303 C40.365,157.303 40.365,170.590 40.365,170.590 C40.365,170.590 54.578,170.590 54.578,170.590 C54.578,170.590 54.578,157.303 54.578,157.303 C54.578,157.303 144.598,157.303 144.598,157.303 C144.598,157.303 144.598,170.590 144.598,170.590 C144.598,170.590 158.811,170.590 158.811,170.590 C158.811,170.590 158.811,157.303 158.811,157.303 C158.811,157.303 167.074,157.303 167.074,157.303 C167.074,157.303 219.577,88.489 219.577,88.489 C223.533,83.319 222.497,75.968 217.278,72.064 Z" id="path-5" class="cls-7" fill-rule="evenodd"/>
    <path d="M190.005,74.789 C190.005,74.789 96.830,0.012 96.830,0.012 C96.830,0.012 3.649,74.789 3.649,74.789 C3.649,74.789 82.963,74.789 82.963,74.789 C82.963,74.789 82.963,134.563 82.963,134.563 C82.963,134.563 110.698,134.563 110.698,134.563 C110.698,134.563 110.698,74.789 110.698,74.789 C110.698,74.789 190.005,74.789 190.005,74.789 Z" id="path-6" class="cls-8" fill-rule="evenodd"/>
    <path d="M96.830,0.011 C96.830,0.011 81.505,12.310 81.505,12.310 C81.505,12.310 159.357,74.789 159.357,74.789 C159.357,74.789 190.006,74.789 190.006,74.789 C190.006,74.789 96.830,0.011 96.830,0.011 Z" id="path-7" class="cls-9" fill-rule="evenodd"/>
    <path d="M110.698,94.934 C110.698,94.934 82.963,85.589 82.963,85.589 C82.963,85.589 82.963,74.789 82.963,74.789 C82.963,74.789 110.698,74.789 110.698,74.789 C110.698,74.789 110.698,94.934 110.698,94.934 Z" id="path-8" class="cls-9" fill-rule="evenodd"/>
    <path d="M38.143,63.454 C37.059,63.454 35.986,62.975 35.268,62.061 C34.035,60.489 34.322,58.225 35.908,57.003 C35.908,57.003 73.270,28.223 73.270,28.223 C74.853,27.001 77.140,27.282 78.376,28.857 C79.610,30.429 79.324,32.693 77.737,33.915 C77.737,33.915 40.374,62.695 40.374,62.695 C39.710,63.206 38.924,63.454 38.143,63.454 Z" id="path-9" class="cls-11" fill-rule="evenodd"/>
  </g>
</svg>
