<svg xmlns="http://www.w3.org/2000/svg" xmlns:xlink="http://www.w3.org/1999/xlink" preserveAspectRatio="xMidYMid" width="198" height="216" viewBox="0 0 198 216">
  <defs>
    <style>

      .cls-3 {
        fill: #0cb04a;
      }

      .cls-7 {
        fill: #ffffff;
      }

      .cls-9 {
        fill: #fbb713;
      }

      .cls-10 {
        fill: #fccb56;
      }

      .cls-11 {
        fill: #0b0b0a;
        opacity: 0.15;
      }

      .cls-12 {
        fill: #0b0b0a;
        opacity: 0.25;
      }
    </style>
  </defs>
  <g id="group-25svg">
    <path d="M186.446,206.276 C190.842,206.276 194.406,204.040 194.406,201.280 C194.406,198.521 190.842,196.284 186.446,196.284 C186.446,196.284 162.052,196.284 162.052,196.284 C157.657,196.284 154.092,198.521 154.092,201.280 C154.092,204.040 157.657,206.276 162.052,206.276 C162.052,206.276 186.446,206.276 186.446,206.276 Z" id="path-1" class="cls-3" fill-rule="evenodd"/>
    <path d="M134.494,216.270 C134.494,216.270 141.519,216.270 141.519,216.270 C143.538,216.270 145.175,214.251 145.175,211.760 C145.175,209.268 143.538,207.249 141.519,207.249 C141.519,207.249 111.793,207.249 111.793,207.249 C109.774,207.249 108.138,205.229 108.138,202.738 C108.138,200.246 109.774,198.227 111.793,198.227 C111.793,198.227 118.039,198.227 118.039,198.227 C120.057,198.227 121.694,196.207 121.694,193.716 C121.694,191.224 120.057,189.205 118.039,189.205 C118.039,189.205 88.312,189.205 88.312,189.205 C88.312,189.205 61.265,189.205 61.265,189.205 C59.247,189.205 57.610,191.224 57.610,193.716 C57.610,196.207 59.247,198.227 61.265,198.227 C61.265,198.227 83.771,198.227 83.771,198.227 C85.790,198.227 87.426,200.246 87.426,202.738 C87.426,205.229 85.790,207.249 83.771,207.249 C83.771,207.249 83.284,207.249 83.284,207.249 C81.265,207.249 79.629,209.268 79.629,211.760 C79.629,214.251 81.265,216.270 83.284,216.270 C83.284,216.270 93.754,216.270 93.754,216.270 C93.754,216.270 93.754,216.270 93.754,216.270 " id="path-2" class="cls-3" fill-rule="evenodd"/>
    <path d="M20.188,51.609 C24.764,56.141 24.764,63.492 20.188,68.024 C15.612,72.557 8.194,72.557 3.618,68.024 C-0.958,63.492 -0.958,56.141 3.618,51.609 C8.194,47.076 15.612,47.076 20.188,51.609 Z" id="path-3" class="cls-3" fill-rule="evenodd"/>
    <path d="M191.712,137.060 C198.993,144.274 198.993,155.969 191.712,163.184 C184.430,170.397 172.625,170.397 165.343,163.184 C158.061,155.969 158.061,144.274 165.343,137.060 C172.625,129.847 184.430,129.847 191.712,137.060 Z" id="path-4" class="cls-3" fill-rule="evenodd"/>
    <path d="M187.154,141.576 C189.506,143.907 189.506,147.685 187.154,150.016 C184.801,152.347 180.986,152.347 178.634,150.016 C176.281,147.685 176.281,143.907 178.634,141.576 C180.986,139.245 184.801,139.245 187.154,141.576 Z" id="path-5" class="cls-7" fill-rule="evenodd"/>
    <path d="M58.123,2.179 C61.083,5.112 61.083,9.867 58.123,12.799 C55.163,15.731 50.363,15.731 47.403,12.799 C44.443,9.867 44.443,5.112 47.403,2.179 C50.363,-0.754 55.163,-0.754 58.123,2.179 Z" id="path-6" class="cls-3" fill-rule="evenodd"/>
    <path d="M165.354,67.307 C165.354,67.307 164.635,67.685 164.635,67.685 C164.876,75.396 162.645,82.352 157.626,87.324 C157.626,87.324 148.111,96.751 148.111,96.751 C133.794,98.019 118.495,105.072 106.036,117.415 C93.576,129.758 86.456,144.915 85.176,159.098 C85.176,159.098 73.988,170.180 73.988,170.180 C61.362,182.688 36.149,177.988 17.672,159.685 C14.394,156.438 11.571,152.975 9.178,149.415 C9.178,149.415 7.712,150.186 7.712,150.186 C9.526,160.430 15.371,171.467 24.769,180.776 C43.246,199.081 68.459,203.779 81.085,191.272 C81.085,191.272 92.272,180.188 92.272,180.188 C93.552,166.006 100.673,150.850 113.132,138.507 C125.591,126.164 140.890,119.111 155.208,117.842 C155.208,117.842 164.723,108.416 164.723,108.416 C174.192,99.035 173.891,82.640 165.354,67.307 Z" id="path-7" class="cls-9" fill-rule="evenodd"/>
    <path d="M61.156,72.957 C48.188,85.804 32.144,92.911 17.332,93.737 C17.332,93.737 7.078,103.895 7.078,103.895 C-5.548,116.403 -0.805,141.381 17.672,159.685 C36.149,177.988 61.362,182.688 73.988,170.180 C73.988,170.180 85.176,159.098 85.176,159.098 C86.456,144.915 93.576,129.758 106.036,117.415 C118.495,105.072 133.794,98.019 148.111,96.751 C148.111,96.751 157.626,87.324 157.626,87.324 C170.251,74.817 165.508,49.839 147.031,31.535 C128.554,13.232 103.341,8.532 90.715,21.039 C90.715,21.039 82.134,29.542 82.134,29.542 C81.299,44.215 74.126,60.108 61.156,72.957 Z" id="path-8" class="cls-10" fill-rule="evenodd"/>
    <path d="M30.427,102.840 C35.002,107.372 35.002,114.722 30.427,119.255 C25.851,123.788 18.432,123.788 13.856,119.255 C9.281,114.722 9.281,107.372 13.856,102.840 C18.432,98.307 25.851,98.307 30.427,102.840 Z" id="path-9" class="cls-11" fill-rule="evenodd"/>
    <path d="M145.879,105.737 C148.840,108.670 148.840,113.425 145.879,116.358 C142.919,119.290 138.119,119.290 135.159,116.358 C132.199,113.425 132.199,108.670 135.159,105.737 C138.119,102.805 142.919,102.805 145.879,105.737 Z" id="path-10" class="cls-12" fill-rule="evenodd"/>
    <path d="M108.051,18.062 C111.011,20.994 111.011,25.750 108.051,28.682 C105.091,31.614 100.291,31.614 97.331,28.682 C94.371,25.750 94.371,20.994 97.331,18.062 C100.291,15.129 105.091,15.129 108.051,18.062 Z" id="path-11" class="cls-11" fill-rule="evenodd"/>
    <path d="M91.525,89.081 C96.592,94.100 96.592,102.237 91.525,107.256 C86.459,112.275 78.245,112.275 73.178,107.256 C68.112,102.237 68.112,94.100 73.178,89.081 C78.245,84.063 86.459,84.063 91.525,89.081 Z" id="path-12" class="cls-11" fill-rule="evenodd"/>
    <path d="M162.666,62.336 C167.732,67.355 167.732,75.493 162.666,80.511 C157.600,85.530 149.385,85.530 144.319,80.511 C139.253,75.493 139.253,67.355 144.319,62.336 C149.385,57.317 157.600,57.317 162.666,62.336 Z" id="path-13" class="cls-11" fill-rule="evenodd"/>
    <path d="M40.119,158.445 C43.079,161.378 43.079,166.132 40.119,169.065 C37.158,171.997 32.359,171.997 29.398,169.065 C26.438,166.132 26.438,161.378 29.398,158.445 C32.359,155.512 37.158,155.512 40.119,158.445 Z" id="path-14" class="cls-11" fill-rule="evenodd"/>
  </g>
</svg>
