<svg xmlns="http://www.w3.org/2000/svg" xmlns:xlink="http://www.w3.org/1999/xlink" preserveAspectRatio="xMidYMid" width="219" height="199" viewBox="0 0 219 199">
  <defs>
    <style>

      .cls-3 {
        fill: #2476ff;
      }

      .cls-8 {
        fill: #142a3b;
      }

      .cls-9 {
        fill: #ff3a2f;
      }

      .cls-10 {
        fill: #010101;
        opacity: 0.45;
      }

      .cls-11 {
        fill: #010101;
        opacity: 0.35;
      }

      .cls-13 {
        fill: #ffffff;
      }
    </style>
  </defs>
  <g id="group-166svg">
    <path d="M78.679,181.463 C78.679,181.463 94.697,181.463 94.697,181.463 C97.784,181.463 100.288,182.576 100.288,183.950 C100.288,185.324 97.784,186.438 94.697,186.438 C94.697,186.438 93.952,186.438 93.952,186.438 C90.862,186.438 88.360,187.551 88.360,188.925 C88.360,190.297 90.862,191.411 93.952,191.411 C93.952,191.411 128.381,191.411 128.381,191.411 C131.468,191.411 133.972,192.525 133.972,193.899 C133.972,195.272 131.468,196.386 128.381,196.386 C128.381,196.386 87.004,196.386 87.004,196.386 C87.004,196.386 41.528,196.386 41.528,196.386 C38.439,196.386 35.936,195.272 35.936,193.899 C35.936,192.525 38.439,191.411 41.528,191.411 C41.528,191.411 51.083,191.411 51.083,191.411 C54.170,191.411 56.674,190.297 56.674,188.925 C56.674,187.551 54.170,186.438 51.083,186.438 C51.083,186.438 5.605,186.438 5.605,186.438 C2.517,186.438 0.014,185.324 0.014,183.950 C0.014,182.576 2.517,181.463 5.605,181.463 C5.605,181.463 16.354,181.463 16.354,181.463 C16.354,181.463 78.679,181.463 78.679,181.463 Z" id="path-1" class="cls-3" fill-rule="evenodd"/>
    <path d="M177.812,198.538 C181.337,198.538 184.196,197.266 184.196,195.697 C184.196,194.130 181.337,192.858 177.812,192.858 C177.812,192.858 158.246,192.858 158.246,192.858 C154.721,192.858 151.863,194.130 151.863,195.697 C151.863,197.266 154.721,198.538 158.246,198.538 C158.246,198.538 177.812,198.538 177.812,198.538 Z" id="path-2" class="cls-3" fill-rule="evenodd"/>
    <path d="M192.957,159.121 C192.957,159.121 200.311,159.121 200.311,159.121 C201.729,159.121 202.879,159.752 202.879,160.532 C202.879,161.311 201.729,161.943 200.311,161.943 C200.311,161.943 199.969,161.943 199.969,161.943 C198.550,161.943 197.402,162.575 197.402,163.353 C197.402,164.133 198.550,164.765 199.969,164.765 C199.969,164.765 215.779,164.765 215.779,164.765 C217.197,164.765 218.347,165.397 218.347,166.176 C218.347,166.955 217.197,167.586 215.779,167.586 C215.779,167.586 196.779,167.586 196.779,167.586 C196.779,167.586 157.946,167.586 157.946,167.586 C156.528,167.586 155.377,166.955 155.377,166.176 C155.377,165.397 156.528,164.765 157.946,164.765 C157.946,164.765 162.332,164.765 162.332,164.765 C163.751,164.765 164.900,164.133 164.900,163.353 C164.900,162.575 163.751,161.943 162.332,161.943 C162.332,161.943 141.450,161.943 141.450,161.943 C140.032,161.943 138.883,161.311 138.883,160.532 C138.883,159.752 140.032,159.121 141.450,159.121 C141.450,159.121 146.385,159.121 146.385,159.121 C146.385,159.121 192.957,159.121 192.957,159.121 Z" id="path-3" class="cls-3" fill-rule="evenodd"/>
    <path d="M168.220,96.216 C168.220,96.216 168.220,103.501 168.220,103.501 C168.220,104.906 167.242,106.044 166.037,106.044 C164.831,106.044 163.853,104.906 163.853,103.501 C163.853,103.501 163.853,103.161 163.853,103.161 C163.853,101.757 162.876,100.618 161.671,100.618 C160.465,100.618 159.488,101.757 159.488,103.161 C159.488,103.161 159.488,118.823 159.488,118.823 C159.488,120.228 158.510,121.367 157.305,121.367 C156.099,121.367 155.121,120.228 155.121,118.823 C155.121,118.823 155.121,100.002 155.121,100.002 C155.121,100.002 155.121,61.531 155.121,61.531 C155.121,60.126 156.099,58.987 157.305,58.987 C158.510,58.987 159.488,60.126 159.488,61.531 C159.488,61.531 159.488,65.877 159.488,65.877 C159.488,67.283 160.465,68.422 161.671,68.422 C162.876,68.422 163.853,67.283 163.853,65.877 C163.853,65.877 163.853,45.190 163.853,45.190 C163.853,43.785 164.831,42.647 166.037,42.647 C167.242,42.647 168.220,43.785 168.220,45.190 C168.220,45.190 168.220,50.080 168.220,50.080 C168.220,50.080 168.220,96.216 168.220,96.216 Z" id="path-4" class="cls-3" fill-rule="evenodd"/>
    <path d="M137.181,169.114 C139.825,169.114 141.970,168.591 141.970,167.946 C141.970,167.300 139.825,166.777 137.181,166.777 C137.181,166.777 122.501,166.777 122.501,166.777 C119.856,166.777 117.712,167.300 117.712,167.946 C117.712,168.591 119.856,169.114 122.501,169.114 C122.501,169.114 137.181,169.114 137.181,169.114 Z" id="path-5" class="cls-3" fill-rule="evenodd"/>
    <path d="M51.375,161.442 C41.677,161.442 31.982,157.786 24.606,150.476 C17.441,143.382 13.464,133.935 13.408,123.875 C13.350,113.776 17.257,104.314 24.406,97.232 C32.209,89.499 40.738,85.729 49.850,85.994 C49.850,85.994 58.662,77.265 58.662,77.265 C60.084,75.857 62.386,75.857 63.808,77.265 C65.230,78.673 65.230,80.955 63.808,82.362 C63.808,82.362 52.647,93.420 52.647,93.420 C52.647,93.420 50.959,93.277 50.959,93.277 C43.364,92.628 36.353,95.590 29.551,102.329 C23.787,108.040 20.639,115.676 20.686,123.835 C20.732,131.983 23.951,139.635 29.750,145.378 C41.677,157.193 61.090,157.190 73.030,145.361 C79.565,138.887 82.664,131.219 81.988,123.188 C81.988,123.188 81.846,121.522 81.846,121.522 C81.846,121.522 92.592,110.877 92.592,110.877 C94.014,109.469 96.316,109.469 97.738,110.877 C99.160,112.285 99.160,114.568 97.738,115.975 C97.738,115.975 89.340,124.296 89.340,124.296 C89.658,133.872 85.819,142.885 78.174,150.459 C70.783,157.780 61.076,161.440 51.375,161.442 Z" id="path-6" class="cls-8" fill-rule="evenodd"/>
    <path d="M136.460,110.565 C136.460,110.565 62.480,37.278 62.480,37.278 C58.504,33.338 51.427,33.963 47.451,37.902 C43.475,41.841 42.845,48.851 46.821,52.791 C46.821,52.791 63.212,69.028 63.212,69.028 C63.212,69.028 55.382,76.785 55.382,76.785 C55.382,76.785 97.140,118.153 97.140,118.153 C97.140,118.153 104.970,110.398 104.970,110.398 C104.970,110.398 120.800,126.078 120.800,126.078 C124.776,130.017 131.853,129.394 135.830,125.455 C139.806,121.515 140.437,114.504 136.460,110.565 Z" id="path-7" class="cls-9" fill-rule="evenodd"/>
    <path d="M63.830,69.156 C63.830,69.156 62.427,70.545 62.427,70.545 C62.427,70.545 100.146,115.226 100.146,115.226 C100.146,115.226 105.241,110.179 105.241,110.179 C105.241,110.179 63.830,69.156 63.830,69.156 Z" id="path-8" class="cls-10" fill-rule="evenodd"/>
    <path d="M136.460,110.615 C136.460,110.615 62.480,37.328 62.480,37.328 C59.963,34.833 56.205,34.179 52.776,35.027 C52.776,35.027 121.696,103.302 121.696,103.302 C125.672,107.242 125.042,114.251 121.066,118.190 C119.608,119.636 117.727,120.625 115.740,121.115 C115.740,121.115 120.800,126.127 120.800,126.127 C124.775,130.067 131.853,129.444 135.830,125.504 C139.806,121.565 140.437,114.554 136.460,110.615 Z" id="path-9" class="cls-11" fill-rule="evenodd"/>
    <path d="M165.058,52.075 C177.948,39.307 176.634,17.658 161.906,6.194 C153.135,-0.635 141.005,-1.814 130.761,2.559 C116.879,8.482 111.530,21.933 112.904,34.073 C113.678,40.917 110.898,47.693 105.980,52.563 C105.980,52.563 91.921,66.493 91.921,66.493 C91.921,66.493 107.581,82.006 107.581,82.006 C107.581,82.006 121.981,67.741 121.981,67.741 C126.950,62.816 133.880,60.684 140.894,61.144 C149.420,61.702 158.359,58.711 165.058,52.075 Z" id="path-10" class="cls-3" fill-rule="evenodd"/>
    <path d="M126.299,27.466 C125.623,27.466 124.941,27.343 124.279,27.082 C121.478,25.977 120.112,22.831 121.227,20.057 C124.561,11.762 132.011,5.970 140.676,4.941 C143.696,4.580 146.385,6.700 146.745,9.664 C147.104,12.629 144.969,15.321 141.976,15.677 C137.357,16.226 133.195,19.516 131.369,24.058 C130.516,26.177 128.466,27.466 126.299,27.466 Z" id="path-11" class="cls-13" fill-rule="evenodd"/>
    <path d="M161.906,6.194 C157.674,2.898 152.655,0.952 147.449,0.275 C148.620,0.945 149.754,1.695 150.833,2.537 C165.560,14.002 166.874,35.650 153.986,48.420 C147.287,55.055 138.347,58.045 129.820,57.487 C122.807,57.027 115.878,59.159 110.907,64.084 C110.907,64.084 100.199,74.693 100.199,74.693 C100.199,74.693 107.581,82.006 107.581,82.006 C107.581,82.006 121.981,67.741 121.981,67.741 C126.950,62.816 133.880,60.684 140.894,61.144 C149.420,61.703 158.359,58.711 165.058,52.075 C177.948,39.306 176.634,17.657 161.906,6.194 Z" id="path-12" class="cls-11" fill-rule="evenodd"/>
  </g>
</svg>
