<svg xmlns="http://www.w3.org/2000/svg" xmlns:xlink="http://www.w3.org/1999/xlink" preserveAspectRatio="xMidYMid" width="219" height="204" viewBox="0 0 219 204">
  <defs>
    <style>

      .cls-3 {
        fill: #fbb713;
      }

      .cls-5 {
        fill: #ff3a2f;
      }

      .cls-8 {
        fill: #0cb04a;
      }

      .cls-9 {
        fill: #010101;
        opacity: 0.25;
      }

      .cls-10 {
        fill: #010101;
        opacity: 0.35;
      }

      .cls-16 {
        fill: #090909;
        opacity: 0.35;
      }
    </style>
  </defs>
  <g id="group-58svg">
    <path d="M55.030,183.986 C55.030,183.986 39.088,183.986 39.088,183.986 C36.014,183.986 33.522,185.431 33.522,187.213 C33.522,188.996 36.014,190.441 39.088,190.441 C39.088,190.441 39.829,190.441 39.829,190.441 C42.904,190.441 45.395,191.885 45.395,193.667 C45.395,195.450 42.904,196.895 39.829,196.895 C39.829,196.895 5.558,196.895 5.558,196.895 C2.484,196.895 -0.007,198.338 -0.007,200.121 C-0.007,201.903 2.484,203.348 5.558,203.348 C5.558,203.348 46.744,203.348 46.744,203.348 C46.744,203.348 130.926,203.348 130.926,203.348 C134.000,203.348 136.492,201.903 136.492,200.121 C136.492,198.338 134.000,196.895 130.926,196.895 C130.926,196.895 121.415,196.895 121.415,196.895 C118.341,196.895 115.849,195.450 115.849,193.667 C115.849,191.885 118.341,190.441 121.415,190.441 C121.415,190.441 158.771,190.441 158.771,190.441 C161.845,190.441 164.337,188.996 164.337,187.213 C164.337,185.431 161.845,183.986 158.771,183.986 C158.771,183.986 155.983,183.986 155.983,183.986 C155.983,183.986 55.030,183.986 55.030,183.986 Z" id="path-1" class="cls-3" fill-rule="evenodd"/>
    <path d="M185.227,202.802 C180.730,202.802 177.084,201.587 177.084,200.089 C177.084,198.590 180.730,197.375 185.227,197.375 C185.227,197.375 210.182,197.375 210.182,197.375 C214.679,197.375 218.325,198.590 218.325,200.089 C218.325,201.587 214.679,202.802 210.182,202.802 C210.182,202.802 185.227,202.802 185.227,202.802 Z" id="path-2" class="cls-3" fill-rule="evenodd"/>
    <path d="M208.223,89.042 C208.223,89.042 196.077,89.042 196.077,89.042 C194.067,89.042 192.438,87.428 192.438,85.436 C192.438,83.445 194.067,81.832 196.077,81.832 C196.077,81.832 208.223,81.832 208.223,81.832 C210.233,81.832 211.862,83.445 211.862,85.436 C211.862,87.428 210.233,89.042 208.223,89.042 Z" id="path-3" class="cls-5" fill-rule="evenodd"/>
    <path d="M80.298,188.089 C78.288,188.089 76.659,186.475 76.659,184.485 C76.659,184.485 76.659,168.442 76.659,168.442 C76.659,166.451 78.288,164.838 80.298,164.838 C82.307,164.838 83.936,166.451 83.936,168.442 C83.936,168.442 83.936,184.485 83.936,184.485 C83.936,186.475 82.307,188.089 80.298,188.089 Z" id="path-4" class="cls-5" fill-rule="evenodd"/>
    <path d="M161.268,188.089 C159.258,188.089 157.629,186.475 157.629,184.485 C157.629,184.485 157.629,168.442 157.629,168.442 C157.629,166.451 159.258,164.838 161.268,164.838 C163.278,164.838 164.907,166.451 164.907,168.442 C164.907,168.442 164.907,184.485 164.907,184.485 C164.907,186.475 163.278,188.089 161.268,188.089 Z" id="path-5" class="cls-5" fill-rule="evenodd"/>
    <path d="M197.704,173.671 C197.704,173.671 197.704,75.721 197.704,75.721 C197.704,60.994 182.596,49.341 167.732,49.341 C167.732,49.341 77.913,49.341 77.913,49.341 C63.050,49.341 51.959,60.994 51.959,75.721 C51.959,75.721 51.959,173.671 51.959,173.671 C51.959,173.671 197.704,173.671 197.704,173.671 Z" id="path-6" class="cls-8" fill-rule="evenodd"/>
    <path d="M168.648,49.385 C170.834,52.942 172.146,56.960 172.146,61.251 C172.146,61.251 172.146,124.487 172.146,124.487 C172.146,143.659 156.456,159.202 137.102,159.202 C137.102,159.202 51.959,159.202 51.959,159.202 C51.959,159.202 51.959,173.671 51.959,173.671 C51.959,173.671 197.704,173.671 197.704,173.671 C197.704,173.671 197.704,75.721 197.704,75.721 C197.704,61.297 183.210,49.849 168.648,49.385 Z" id="path-7" class="cls-9" fill-rule="evenodd"/>
    <path d="M172.211,99.379 C172.211,109.623 163.828,117.928 153.487,117.928 C143.146,117.928 134.763,109.623 134.763,99.379 C134.763,89.135 143.146,80.830 153.487,80.830 C163.828,80.830 172.211,89.135 172.211,99.379 Z" id="path-8" class="cls-10" fill-rule="evenodd"/>
    <path d="M168.560,92.145 C168.560,102.389 160.177,110.694 149.836,110.694 C139.495,110.694 131.111,102.389 131.111,92.145 C131.111,81.900 139.495,73.596 149.836,73.596 C160.177,73.596 168.560,81.900 168.560,92.145 Z" id="path-9" class="cls-5" fill-rule="evenodd"/>
    <path d="M154.257,74.171 C158.493,77.572 161.258,82.705 161.258,88.528 C161.258,98.772 152.875,107.078 142.534,107.078 C141.003,107.078 139.537,106.844 138.113,106.501 C141.330,109.083 145.373,110.694 149.836,110.694 C160.177,110.694 168.560,102.389 168.560,92.145 C168.560,83.417 162.453,76.147 154.257,74.171 Z" id="path-10" class="cls-10" fill-rule="evenodd"/>
    <path d="M173.413,50.559 C173.413,50.559 173.413,15.064 173.413,15.064 C173.413,6.676 167.070,0.014 158.603,0.014 C150.137,0.014 143.793,0.427 143.793,8.448 C143.793,8.448 104.924,8.448 104.924,8.448 C104.924,0.427 99.053,0.014 90.587,0.014 C82.120,0.014 76.250,6.676 76.250,15.064 C76.250,15.064 76.250,50.559 76.250,50.559 C76.250,50.559 173.413,50.559 173.413,50.559 Z" id="path-11" class="cls-3" fill-rule="evenodd"/>
    <path d="M83.284,7.248 C91.750,7.248 97.621,7.660 97.621,15.682 C97.621,15.682 136.490,15.682 136.490,15.682 C136.490,11.657 138.090,9.550 140.752,8.448 C140.752,8.448 104.923,8.448 104.923,8.448 C104.923,0.427 99.053,0.014 90.587,0.014 C84.579,0.014 79.929,3.402 77.705,8.346 C79.390,7.650 81.257,7.248 83.284,7.248 Z" id="path-12" class="cls-9" fill-rule="evenodd"/>
    <path d="M158.603,0.014 C150.450,0.014 144.325,0.467 143.878,7.659 C146.042,7.322 148.539,7.248 151.301,7.248 C159.767,7.248 166.111,13.911 166.111,22.298 C166.111,22.298 166.111,50.559 166.111,50.559 C166.111,50.559 173.413,50.559 173.413,50.559 C173.413,50.559 173.413,15.064 173.413,15.064 C173.413,6.676 167.070,0.014 158.603,0.014 Z" id="path-13" class="cls-9" fill-rule="evenodd"/>
    <path d="M127.846,30.759 C127.846,31.858 126.957,32.756 125.864,32.756 C124.770,32.756 123.878,31.858 123.878,30.759 C123.878,29.654 124.770,28.761 125.864,28.761 C126.957,28.761 127.846,29.654 127.846,30.759 Z" id="path-14" class="cls-16" fill-rule="evenodd"/>
    <path d="M91.333,27.142 C91.333,28.240 90.445,29.139 89.352,29.139 C88.257,29.139 87.366,28.240 87.366,27.142 C87.366,26.037 88.257,25.145 89.352,25.145 C90.445,25.145 91.333,26.037 91.333,27.142 Z" id="path-15" class="cls-16" fill-rule="evenodd"/>
    <path d="M94.985,45.227 C94.985,46.326 94.097,47.224 93.003,47.224 C91.909,47.224 91.017,46.326 91.017,45.227 C91.017,44.122 91.909,43.230 93.003,43.230 C94.097,43.230 94.985,44.122 94.985,45.227 Z" id="path-16" class="cls-16" fill-rule="evenodd"/>
    <path d="M153.405,45.227 C153.405,46.326 152.516,47.224 151.423,47.224 C150.328,47.224 149.437,46.326 149.437,45.227 C149.437,44.122 150.328,43.230 151.423,43.230 C152.516,43.230 153.405,44.122 153.405,45.227 Z" id="path-17" class="cls-16" fill-rule="evenodd"/>
    <path d="M120.544,48.844 C120.544,49.942 119.655,50.841 118.561,50.841 C117.467,50.841 116.575,49.942 116.575,48.844 C116.575,47.739 117.467,46.847 118.561,46.847 C119.655,46.847 120.544,47.739 120.544,48.844 Z" id="path-18" class="cls-16" fill-rule="evenodd"/>
    <path d="M152.348,23.525 C152.348,24.623 151.459,25.522 150.363,25.522 C149.269,25.522 148.380,24.623 148.380,23.525 C148.380,22.420 149.269,21.527 150.363,21.527 C151.459,21.527 152.348,22.420 152.348,23.525 Z" id="path-19" class="cls-16" fill-rule="evenodd"/>
  </g>
</svg>
