<svg xmlns="http://www.w3.org/2000/svg" xmlns:xlink="http://www.w3.org/1999/xlink" preserveAspectRatio="xMidYMid" width="219" height="202" viewBox="0 0 219 202">
  <defs>
    <style>

      .cls-3 {
        fill: #2476ff;
      }

      .cls-6 {
        fill: #fbb713;
      }

      .cls-7 {
        fill: #020403;
        opacity: 0.25;
      }

      .cls-8 {
        fill: #000000;
        opacity: 0.35;
      }

      .cls-9 {
        fill: #142a3b;
      }

      .cls-12 {
        fill: #ffffff;
      }
    </style>
  </defs>
  <g id="group-118svg">
    <path d="M155.768,182.857 C155.768,182.857 173.893,182.857 173.893,182.857 C177.387,182.857 180.221,184.118 180.221,185.674 C180.221,187.229 177.387,188.489 173.893,188.489 C173.893,188.489 173.049,188.489 173.049,188.489 C169.555,188.489 166.721,189.750 166.721,191.306 C166.721,192.862 169.555,194.120 173.049,194.120 C173.049,194.120 212.010,194.120 212.010,194.120 C215.505,194.120 218.338,195.381 218.338,196.936 C218.338,198.491 215.505,199.753 212.010,199.753 C212.010,199.753 165.188,199.753 165.188,199.753 C165.188,199.753 113.727,199.753 113.727,199.753 C110.232,199.753 107.400,198.491 107.400,196.936 C107.400,195.381 110.232,194.120 113.727,194.120 C113.727,194.120 124.540,194.120 124.540,194.120 C128.034,194.120 130.868,192.862 130.868,191.306 C130.868,189.750 128.034,188.489 124.540,188.489 C124.540,188.489 73.078,188.489 73.078,188.489 C69.584,188.489 66.751,187.229 66.751,185.674 C66.751,184.118 69.584,182.857 73.078,182.857 C73.078,182.857 85.242,182.857 85.242,182.857 C85.242,182.857 155.768,182.857 155.768,182.857 Z" id="path-1" class="cls-3" fill-rule="evenodd"/>
    <path d="M59.108,202.189 C63.098,202.189 66.333,200.749 66.333,198.974 C66.333,197.197 63.098,195.758 59.108,195.758 C59.108,195.758 36.970,195.758 36.970,195.758 C32.980,195.758 29.745,197.197 29.745,198.974 C29.745,200.749 32.980,202.189 36.970,202.189 C36.970,202.189 59.108,202.189 59.108,202.189 Z" id="path-2" class="cls-3" fill-rule="evenodd"/>
    <path d="M54.705,140.439 C54.705,140.439 62.145,140.439 62.145,140.439 C63.579,140.439 64.742,141.078 64.742,141.867 C64.742,142.656 63.579,143.295 62.145,143.295 C62.145,143.295 61.799,143.295 61.799,143.295 C60.364,143.295 59.201,143.934 59.201,144.723 C59.201,145.511 60.364,146.151 61.799,146.151 C61.799,146.151 77.792,146.151 77.792,146.151 C79.225,146.151 80.388,146.790 80.388,147.579 C80.388,148.367 79.225,149.007 77.792,149.007 C77.792,149.007 58.572,149.007 58.572,149.007 C58.572,149.007 19.288,149.007 19.288,149.007 C17.854,149.007 16.691,148.367 16.691,147.579 C16.691,146.790 17.854,146.151 19.288,146.151 C19.288,146.151 23.727,146.151 23.727,146.151 C25.161,146.151 26.324,145.511 26.324,144.723 C26.324,143.934 25.161,143.295 23.727,143.295 C23.727,143.295 2.602,143.295 2.602,143.295 C1.168,143.295 0.005,142.656 0.005,141.867 C0.005,141.078 1.168,140.439 2.602,140.439 C2.602,140.439 7.594,140.439 7.594,140.439 C7.594,140.439 54.705,140.439 54.705,140.439 Z" id="path-3" class="cls-3" fill-rule="evenodd"/>
    <path d="M190.785,139.110 C199.309,118.891 201.328,96.041 201.710,83.766 C201.886,78.091 197.294,71.927 191.565,71.927 C191.565,71.927 96.960,71.927 96.960,71.927 C91.233,71.927 86.640,77.605 86.817,83.281 C87.562,107.214 94.528,164.922 143.804,183.923 C143.804,183.923 144.723,183.923 144.723,183.923 C180.840,169.924 190.785,139.110 190.785,139.110 Z" id="path-4" class="cls-6" fill-rule="evenodd"/>
    <path d="M194.070,72.662 C193.390,85.398 190.997,105.251 183.318,123.471 C183.318,123.471 173.373,155.523 137.254,168.475 C137.254,168.475 136.336,168.475 136.336,168.475 C118.376,163.081 106.055,151.480 97.588,137.770 C105.658,157.537 119.634,176.017 143.804,183.278 C143.804,183.278 144.723,183.278 144.723,183.278 C180.840,170.325 190.785,138.272 190.785,138.272 C199.309,118.053 201.328,95.788 201.710,83.513 C201.859,78.699 198.564,73.992 194.070,72.662 Z" id="path-5" class="cls-7" fill-rule="evenodd"/>
    <path d="M86.817,84.546 C86.943,88.585 86.560,85.127 87.213,90.814 C87.213,90.814 200.671,99.381 200.671,99.381 C201.269,94.004 201.589,89.146 201.710,85.278 C201.777,83.107 201.139,81.064 200.014,79.362 C200.014,79.362 88.214,79.362 88.214,79.362 C87.291,80.842 86.755,82.591 86.817,84.546 Z" id="path-6" class="cls-8" fill-rule="evenodd"/>
    <path d="M86.812,82.856 C79.208,83.065 78.925,77.349 78.925,77.349 C74.740,48.619 116.208,32.184 116.208,32.184 C124.708,29.087 134.221,27.353 144.263,27.353 C180.348,27.353 209.602,49.736 209.602,77.349 C209.602,77.349 209.374,81.600 202.824,82.856 C202.824,82.856 202.824,82.856 202.824,82.856 " id="path-7" class="cls-9" fill-rule="evenodd"/>
    <path d="M158.572,28.594 C175.847,37.591 187.198,52.752 187.198,69.948 C187.198,69.948 186.972,74.198 180.421,75.455 C180.421,75.455 78.738,75.455 78.738,75.455 C78.787,76.082 78.832,76.708 78.925,77.348 C78.925,77.348 79.208,83.065 86.812,82.856 C86.812,82.856 202.823,82.856 202.823,82.856 C209.374,81.599 209.602,77.348 209.602,77.348 C209.602,53.502 187.765,33.591 158.572,28.594 Z" id="path-8" class="cls-8" fill-rule="evenodd"/>
    <path d="M143.013,32.441 C141.002,32.441 139.514,30.827 139.514,28.837 C139.514,28.837 139.514,3.603 139.514,3.603 C139.514,1.612 141.002,-0.002 143.013,-0.002 C145.025,-0.002 146.513,1.612 146.513,3.603 C146.513,3.603 146.513,28.837 146.513,28.837 C146.513,30.827 145.025,32.441 143.013,32.441 Z" id="path-9" class="cls-9" fill-rule="evenodd"/>
    <path d="M94.652,68.101 C94.247,68.101 93.835,68.034 93.433,67.892 C91.543,67.227 90.555,65.175 91.219,63.303 C91.312,63.042 100.799,37.343 130.059,36.844 C132.160,36.772 133.727,38.396 133.762,40.385 C133.798,42.377 132.196,44.018 130.188,44.052 C106.072,44.464 98.394,64.844 98.081,65.711 C97.545,67.182 96.144,68.101 94.652,68.101 Z" id="path-10" class="cls-12" fill-rule="evenodd"/>
  </g>
</svg>
