<svg xmlns="http://www.w3.org/2000/svg" xmlns:xlink="http://www.w3.org/1999/xlink" preserveAspectRatio="xMidYMid" width="219" height="217" viewBox="0 0 219 217">
  <defs>
    <style>

      .cls-3 {
        fill: #0cb04a;
      }

      .cls-6 {
        fill: #fbb713;
      }

      .cls-7 {
        fill: #020403;
        opacity: 0.25;
      }

      .cls-8 {
        fill: #142a3b;
      }

      .cls-9 {
        fill: #ff3a2f;
      }

      .cls-10 {
        fill: #020403;
        opacity: 0.35;
      }
    </style>
  </defs>
  <g id="group-136svg">
    <path d="M158.098,193.341 C158.098,193.341 175.547,193.341 175.547,193.341 C178.912,193.341 181.638,194.944 181.638,196.922 C181.638,198.900 178.912,200.503 175.547,200.503 C175.547,200.503 174.735,200.503 174.735,200.503 C171.370,200.503 168.643,202.107 168.643,204.084 C168.643,206.063 171.370,207.667 174.735,207.667 C174.735,207.667 212.246,207.667 212.246,207.667 C215.610,207.667 218.338,209.270 218.338,211.248 C218.338,213.226 215.610,214.828 212.246,214.828 C212.246,214.828 167.167,214.828 167.167,214.828 C167.167,214.828 117.621,214.828 117.621,214.828 C114.257,214.828 111.529,213.226 111.529,211.248 C111.529,209.270 114.257,207.667 117.621,207.667 C117.621,207.667 128.031,207.667 128.031,207.667 C131.396,207.667 134.123,206.063 134.123,204.084 C134.123,202.107 131.396,200.503 128.031,200.503 C128.031,200.503 78.486,200.503 78.486,200.503 C75.121,200.503 72.394,198.900 72.394,196.922 C72.394,194.944 75.121,193.341 78.486,193.341 C78.486,193.341 90.196,193.341 90.196,193.341 C90.196,193.341 158.098,193.341 158.098,193.341 Z" id="path-1" class="cls-3" fill-rule="evenodd"/>
    <path d="M27.685,188.585 C27.685,188.585 33.321,188.585 33.321,188.585 C34.408,188.585 35.289,190.189 35.289,192.166 C35.289,194.144 34.408,195.748 33.321,195.748 C33.321,195.748 33.059,195.748 33.059,195.748 C31.972,195.748 31.091,197.349 31.091,199.329 C31.091,201.306 31.972,202.909 33.059,202.909 C33.059,202.909 45.174,202.909 45.174,202.909 C46.261,202.909 47.141,204.513 47.141,206.491 C47.141,208.468 46.261,210.073 45.174,210.073 C45.174,210.073 30.614,210.073 30.614,210.073 C30.614,210.073 14.613,210.073 14.613,210.073 C13.526,210.073 12.645,208.468 12.645,206.491 C12.645,204.513 13.526,202.909 14.613,202.909 C14.613,202.909 17.975,202.909 17.975,202.909 C19.062,202.909 19.943,201.306 19.943,199.329 C19.943,197.349 19.062,195.748 17.975,195.748 C17.975,195.748 1.973,195.748 1.973,195.748 C0.886,195.748 0.005,194.144 0.005,192.166 C0.005,190.189 0.886,188.585 1.973,188.585 C1.973,188.585 5.755,188.585 5.755,188.585 C5.755,188.585 27.685,188.585 27.685,188.585 Z" id="path-2" class="cls-3" fill-rule="evenodd"/>
    <path d="M81.320,217.005 C84.774,217.005 87.574,215.294 87.574,213.184 C87.574,211.074 84.774,209.362 81.320,209.362 C81.320,209.362 62.149,209.362 62.149,209.362 C58.694,209.362 55.894,211.074 55.894,213.184 C55.894,215.294 58.694,217.005 62.149,217.005 C62.149,217.005 81.320,217.005 81.320,217.005 Z" id="path-3" class="cls-3" fill-rule="evenodd"/>
    <path d="M79.699,152.787 C79.699,152.787 133.029,137.852 133.029,137.852 C133.029,137.852 104.167,16.048 104.167,16.048 C104.167,16.048 77.136,16.473 77.136,16.473 C77.136,16.473 62.065,78.357 79.699,152.787 Z" id="path-4" class="cls-6" fill-rule="evenodd"/>
    <path d="M89.255,119.313 C81.906,72.925 86.294,34.069 89.229,16.338 C89.229,16.338 80.658,16.473 80.658,16.473 C80.658,16.473 65.588,78.357 83.221,152.787 C83.221,152.787 133.029,137.852 133.029,137.852 C133.029,137.852 131.360,130.811 131.360,130.811 C131.360,130.811 115.584,135.642 115.584,135.642 C103.623,139.305 91.195,131.565 89.255,119.313 Z" id="path-5" class="cls-7" fill-rule="evenodd"/>
    <path d="M104.779,132.134 C81.707,132.134 64.809,123.465 63.754,122.910 C61.980,121.978 61.306,119.801 62.243,118.043 C63.184,116.285 65.374,115.612 67.162,116.538 C67.520,116.726 103.487,135.056 140.742,116.504 C142.551,115.612 144.726,116.332 145.629,118.107 C146.531,119.886 145.806,122.053 144.012,122.947 C130.180,129.835 116.660,132.134 104.779,132.134 Z" id="path-6" class="cls-8" fill-rule="evenodd"/>
    <path d="M1.559,142.109 C1.559,142.109 6.409,173.122 103.117,180.014 C103.117,180.014 163.301,180.014 163.301,180.014 C163.301,180.014 163.301,195.520 163.301,195.520 C163.301,195.520 103.117,195.520 103.117,195.520 C6.409,188.630 1.559,157.616 1.559,157.616 C1.559,157.616 1.559,142.109 1.559,142.109 Z" id="path-7" class="cls-9" fill-rule="evenodd"/>
    <path d="M159.778,180.014 C159.778,180.014 159.778,185.053 159.778,185.053 C159.778,185.053 99.594,185.053 99.594,185.053 C31.417,180.194 8.914,163.356 1.559,153.840 C1.559,153.840 1.559,157.616 1.559,157.616 C1.559,157.616 6.409,188.630 103.117,195.520 C103.117,195.520 163.301,195.520 163.301,195.520 C163.301,195.520 163.301,180.014 163.301,180.014 C163.301,180.014 159.778,180.014 159.778,180.014 Z" id="path-8" class="cls-10" fill-rule="evenodd"/>
    <path d="M82.428,172.420 C80.714,172.420 79.187,171.215 78.856,169.488 C77.872,164.365 55.058,43.533 79.275,1.811 C80.278,0.086 82.509,-0.513 84.243,0.483 C85.988,1.476 86.589,3.678 85.587,5.405 C62.694,44.835 85.771,166.915 86.006,168.143 C86.382,170.099 85.085,171.986 83.110,172.357 C82.882,172.401 82.652,172.420 82.428,172.420 Z" id="path-9" class="cls-8" fill-rule="evenodd"/>
  </g>
</svg>
