<svg xmlns="http://www.w3.org/2000/svg" xmlns:xlink="http://www.w3.org/1999/xlink" preserveAspectRatio="xMidYMid" width="219" height="174" viewBox="0 0 219 174">
  <defs>
    <style>

      .cls-3 {
        fill: #2476ff;
      }

      .cls-6 {
        fill: #ff3a2f;
      }

      .cls-7 {
        fill: #020403;
        opacity: 0.35;
      }

      .cls-8 {
        fill: #020403;
        opacity: 0.25;
      }

      .cls-10 {
        fill: #020403;
      }

      .cls-14 {
        fill: #142a3b;
      }

      .cls-19 {
        fill: #fbb713;
      }

      .cls-20 {
        fill: #ffffff;
      }
    </style>
  </defs>
  <g id="group-60svg">
    <path d="M101.142,152.443 C101.142,152.443 114.682,152.443 114.682,152.443 C117.292,152.443 119.409,153.771 119.409,155.410 C119.409,157.048 117.292,158.377 114.682,158.377 C114.682,158.377 114.051,158.377 114.051,158.377 C111.441,158.377 109.325,159.705 109.325,161.343 C109.325,162.982 111.441,164.310 114.051,164.310 C114.051,164.310 143.158,164.310 143.158,164.310 C145.768,164.310 147.884,165.639 147.884,167.278 C147.884,168.916 145.768,170.244 143.158,170.244 C143.158,170.244 108.179,170.244 108.179,170.244 C108.179,170.244 69.735,170.244 69.735,170.244 C67.124,170.244 65.008,168.916 65.008,167.278 C65.008,165.639 67.124,164.310 69.735,164.310 C69.735,164.310 77.813,164.310 77.813,164.310 C80.423,164.310 82.539,162.982 82.539,161.343 C82.539,159.705 80.423,158.377 77.813,158.377 C77.813,158.377 39.368,158.377 39.368,158.377 C36.757,158.377 34.642,157.048 34.642,155.410 C34.642,153.771 36.757,152.443 39.368,152.443 C39.368,152.443 48.454,152.443 48.454,152.443 C48.454,152.443 101.142,152.443 101.142,152.443 Z" id="path-1" class="cls-3" fill-rule="evenodd"/>
    <path d="M21.417,124.465 C21.417,124.465 25.777,124.465 25.777,124.465 C26.617,124.465 27.298,125.196 27.298,126.096 C27.298,126.995 26.617,127.725 25.777,127.725 C25.777,127.725 25.573,127.725 25.573,127.725 C24.733,127.725 24.052,128.455 24.052,129.356 C24.052,130.255 24.733,130.984 25.573,130.984 C25.573,130.984 34.944,130.984 34.944,130.984 C35.785,130.984 36.466,131.714 36.466,132.615 C36.466,133.515 35.785,134.244 34.944,134.244 C34.944,134.244 23.683,134.244 23.683,134.244 C23.683,134.244 11.305,134.244 11.305,134.244 C10.465,134.244 9.784,133.515 9.784,132.615 C9.784,131.714 10.465,130.984 11.305,130.984 C11.305,130.984 13.906,130.984 13.906,130.984 C14.746,130.984 15.428,130.255 15.428,129.356 C15.428,128.455 14.746,127.725 13.906,127.725 C13.906,127.725 1.529,127.725 1.529,127.725 C0.688,127.725 0.007,126.995 0.007,126.096 C0.007,125.196 0.688,124.465 1.529,124.465 C1.529,124.465 4.454,124.465 4.454,124.465 C4.454,124.465 21.417,124.465 21.417,124.465 Z" id="path-2" class="cls-3" fill-rule="evenodd"/>
    <path d="M184.943,172.812 C187.924,172.812 190.340,171.294 190.340,169.423 C190.340,167.553 187.924,166.037 184.943,166.037 C184.943,166.037 168.404,166.037 168.404,166.037 C165.424,166.037 163.007,167.553 163.007,169.423 C163.007,171.294 165.424,172.812 168.404,172.812 C168.404,172.812 184.943,172.812 184.943,172.812 Z" id="path-3" class="cls-3" fill-rule="evenodd"/>
    <path d="M128.447,0.010 C128.447,0.010 163.702,34.942 163.702,34.942 C163.702,34.942 149.154,34.942 149.154,34.942 C149.154,34.942 149.154,96.735 149.154,96.735 C149.154,96.735 162.729,96.735 162.729,96.735 C162.729,96.735 162.729,78.288 162.729,78.288 C162.729,78.288 208.119,78.288 208.119,78.288 C208.119,78.288 208.119,78.284 208.119,78.284 C208.119,78.284 208.119,146.305 208.119,146.305 C202.260,143.044 195.810,141.244 189.071,141.244 C188.093,141.244 187.095,141.292 186.038,141.386 C181.529,136.861 175.853,134.402 169.810,134.402 C168.211,134.402 166.592,134.612 164.899,135.046 C153.915,126.412 140.384,121.690 126.481,121.690 C116.306,121.690 106.316,124.219 97.318,129.025 C92.680,123.751 86.443,120.711 79.938,120.711 C68.527,120.711 58.874,129.512 55.910,142.109 C52.041,142.936 48.323,144.401 44.802,146.359 C44.802,146.359 44.802,96.730 44.802,96.730 C44.802,96.730 44.802,78.284 44.802,78.284 C44.802,78.284 90.192,78.284 90.192,78.284 C90.192,78.284 90.192,96.730 90.192,96.730 C90.192,96.730 103.768,96.730 103.768,96.730 C103.768,96.730 103.768,34.936 103.768,34.936 C103.768,34.936 89.219,34.936 89.219,34.936 C89.219,34.936 124.474,0.006 124.474,0.006 C124.474,0.006 124.474,0.006 124.474,0.006 " id="path-4" class="cls-6" fill-rule="evenodd"/>
    <path d="M83.542,78.284 C83.542,78.284 83.542,96.730 83.542,96.730 C83.542,96.730 90.192,96.730 90.192,96.730 C90.192,96.730 90.192,78.284 90.192,78.284 C90.192,78.284 83.542,78.284 83.542,78.284 Z" id="path-5" class="cls-7" fill-rule="evenodd"/>
    <path d="M128.447,0.010 C128.447,0.010 163.702,34.942 163.702,34.942 C163.702,34.942 157.053,34.942 157.053,34.942 C157.053,34.942 123.133,1.335 123.133,1.335 C123.133,1.335 124.474,0.005 124.474,0.005 C124.474,0.005 128.447,0.010 128.447,0.010 Z" id="path-6" class="cls-8" fill-rule="evenodd"/>
    <path d="M142.503,96.735 C142.503,96.735 149.154,96.735 149.154,96.735 C149.154,96.735 149.154,34.942 149.154,34.942 C149.154,34.942 142.503,34.942 142.503,34.942 C142.503,34.942 142.503,96.735 142.503,96.735 Z" id="path-7" class="cls-7" fill-rule="evenodd"/>
    <path d="M164.069,134.448 C164.342,134.654 164.630,134.834 164.899,135.045 C165.491,134.894 166.066,134.805 166.642,134.707 C165.794,134.571 164.937,134.484 164.069,134.448 Z" id="path-8" class="cls-10" fill-rule="evenodd"/>
    <path d="M201.469,143.412 C203.747,144.196 205.984,145.117 208.120,146.305 C208.120,146.305 208.120,78.288 208.120,78.288 C208.120,78.288 201.469,78.288 201.469,78.288 C201.469,78.288 201.469,143.412 201.469,143.412 Z" id="path-9" class="cls-7" fill-rule="evenodd"/>
    <path d="M119.830,121.690 C111.323,121.690 102.952,123.482 95.174,126.871 C95.917,127.545 96.639,128.252 97.318,129.025 C105.185,124.822 113.813,122.363 122.658,121.810 C121.715,121.767 120.776,121.690 119.830,121.690 Z" id="path-10" class="cls-10" fill-rule="evenodd"/>
    <path d="M73.288,120.711 C61.877,120.711 52.225,129.512 49.260,142.109 C47.748,142.433 46.266,142.881 44.802,143.390 C44.802,143.390 44.802,146.359 44.802,146.359 C48.323,144.401 52.041,142.936 55.910,142.109 C58.575,130.783 66.654,122.550 76.548,120.998 C75.472,120.829 74.386,120.711 73.288,120.711 Z" id="path-11" class="cls-7" fill-rule="evenodd"/>
    <path d="M136.452,50.909 C136.452,45.443 131.983,41.011 126.461,41.011 C120.939,41.011 116.470,45.439 116.470,50.909 C116.470,50.909 116.470,70.354 116.470,70.354 C116.470,70.354 136.446,70.354 136.446,70.354 C136.446,70.354 136.446,50.909 136.446,50.909 C136.446,50.909 136.452,50.909 136.452,50.909 Z" id="path-12" class="cls-14" fill-rule="evenodd"/>
    <path d="M127.273,41.092 C128.828,42.837 129.801,45.104 129.801,47.614 C129.801,47.614 129.796,47.614 129.796,47.614 C129.796,47.614 129.796,67.059 129.796,67.059 C129.796,67.059 116.470,67.059 116.470,67.059 C116.470,67.059 116.470,70.354 116.470,70.354 C116.470,70.354 136.447,70.354 136.447,70.354 C136.447,70.354 136.447,50.909 136.447,50.909 C136.447,50.909 136.452,50.909 136.452,50.909 C136.452,45.719 132.408,41.508 127.273,41.092 Z" id="path-13" class="cls-7" fill-rule="evenodd"/>
    <path d="M208.120,133.210 C201.842,128.213 194.359,125.284 186.296,125.284 C184.598,125.284 182.930,125.455 181.291,125.706 C177.656,121.220 172.617,118.441 167.034,118.441 C164.935,118.441 162.947,118.942 161.046,119.671 C150.976,110.993 137.952,105.729 123.701,105.729 C112.483,105.729 102.051,109.026 93.187,114.639 C89.527,108.672 83.738,104.751 77.153,104.751 C67.107,104.751 58.855,113.772 57.395,125.515 C52.943,126.013 48.710,127.413 44.802,129.535 C44.802,129.535 44.802,144.837 44.802,144.837 C44.802,144.837 47.827,144.837 47.827,144.837 C50.433,143.638 53.131,142.703 55.910,142.109 C58.874,129.512 68.527,120.711 79.938,120.711 C86.443,120.711 92.680,123.751 97.318,129.025 C106.316,124.219 116.306,121.690 126.480,121.690 C140.384,121.690 153.915,126.412 164.899,135.045 C166.592,134.613 168.211,134.402 169.810,134.402 C175.853,134.402 181.529,136.861 186.038,141.386 C187.096,141.292 188.093,141.244 189.072,141.244 C194.668,141.244 200.044,142.548 205.069,144.837 C205.069,144.837 208.120,144.837 208.120,144.837 C208.120,144.837 208.120,133.210 208.120,133.210 Z" id="path-14" class="cls-7" fill-rule="evenodd"/>
    <path d="M170.625,63.150 C170.625,63.150 170.625,69.297 170.625,69.297 C170.625,69.297 179.726,69.297 179.726,69.297 C179.726,69.297 179.726,63.150 179.726,63.150 C179.726,63.150 191.316,63.150 191.316,63.150 C191.316,63.150 191.316,69.297 191.316,69.297 C191.316,69.297 200.418,69.297 200.418,69.297 C200.418,69.297 200.418,63.532 200.418,63.532 C200.418,63.532 212.008,63.532 212.008,63.532 C212.008,63.532 212.008,69.297 212.008,69.297 C212.008,69.297 212.008,80.749 212.008,80.749 C212.008,80.749 212.008,80.779 212.008,80.779 C212.008,80.779 159.035,80.779 159.035,80.779 C159.035,80.779 159.035,80.365 159.035,80.365 C159.035,80.365 159.035,69.297 159.035,69.297 C159.035,69.297 159.035,63.150 159.035,63.150 C159.035,63.150 170.625,63.150 170.625,63.150 Z" id="path-15" class="cls-14" fill-rule="evenodd"/>
    <path d="M93.887,80.749 C93.887,80.749 93.887,69.297 93.887,69.297 C93.887,69.297 93.887,63.532 93.887,63.532 C93.887,63.532 82.297,63.532 82.297,63.532 C82.297,63.532 82.297,69.297 82.297,69.297 C82.297,69.297 73.195,69.297 73.195,69.297 C73.195,69.297 73.195,63.150 73.195,63.150 C73.195,63.150 61.606,63.150 61.606,63.150 C61.606,63.150 61.606,69.297 61.606,69.297 C61.606,69.297 52.503,69.297 52.503,69.297 C52.503,69.297 52.503,63.150 52.503,63.150 C52.503,63.150 40.913,63.150 40.913,63.150 C40.913,63.150 40.913,69.297 40.913,69.297 C40.913,69.297 40.913,80.365 40.913,80.365 C40.913,80.365 40.913,80.779 40.913,80.779 C40.913,80.779 93.887,80.779 93.887,80.779 C93.887,80.779 93.887,80.749 93.887,80.749 Z" id="path-16" class="cls-14" fill-rule="evenodd"/>
    <path d="M186.296,135.165 C184.598,135.165 182.930,135.338 181.291,135.588 C177.656,131.103 172.616,128.323 167.035,128.323 C164.935,128.323 162.948,128.824 161.047,129.552 C150.976,120.875 137.951,115.612 123.701,115.612 C112.483,115.612 102.050,118.908 93.187,124.520 C89.528,118.554 83.738,114.633 77.153,114.633 C67.107,114.633 58.855,123.655 57.395,135.397 C45.800,136.695 35.651,143.995 29.026,154.718 C29.026,154.718 218.339,154.718 218.339,154.718 C211.019,142.864 199.410,135.165 186.296,135.165 Z" id="path-17" class="cls-19" fill-rule="evenodd"/>
    <path d="M202.333,151.450 C201.626,151.450 200.912,151.247 200.287,150.822 C194.999,147.248 189.011,145.358 182.970,145.358 C181.627,145.358 180.216,145.479 178.525,145.739 C178.525,145.739 176.446,146.058 176.446,146.058 C176.446,146.058 175.127,144.433 175.127,144.433 C172.036,140.617 167.982,138.516 163.710,138.516 C162.278,138.516 160.792,138.829 159.033,139.503 C159.033,139.503 156.990,140.285 156.990,140.285 C156.990,140.285 155.334,138.860 155.334,138.860 C145.562,130.440 133.146,125.804 120.374,125.804 C118.363,125.804 116.735,124.190 116.735,122.200 C116.735,120.209 118.363,118.595 120.374,118.595 C134.208,118.595 147.662,123.368 158.497,132.077 C160.302,131.559 162.022,131.306 163.710,131.306 C169.587,131.306 175.102,133.791 179.427,138.349 C180.678,138.214 181.851,138.149 182.970,138.149 C190.483,138.149 197.889,140.472 204.388,144.868 C206.048,145.991 206.477,148.234 205.343,149.879 C204.636,150.900 203.496,151.450 202.333,151.450 Z" id="path-18" class="cls-20" fill-rule="evenodd"/>
    <path d="M88.939,133.365 C87.791,133.365 86.664,132.830 85.958,131.831 C82.759,127.313 78.452,124.825 73.828,124.825 C71.819,124.825 70.190,123.212 70.190,121.221 C70.190,119.230 71.819,117.616 73.828,117.616 C80.787,117.616 87.379,121.289 91.913,127.688 C93.068,129.319 92.670,131.567 91.025,132.710 C90.389,133.152 89.660,133.365 88.939,133.365 Z" id="path-19" class="cls-20" fill-rule="evenodd"/>
    <path d="M201.469,86.671 C201.469,86.671 162.729,83.377 162.729,83.377 C162.729,83.377 162.729,80.779 162.729,80.779 C162.729,80.779 201.469,80.779 201.469,80.779 C201.469,80.779 201.469,86.671 201.469,86.671 Z" id="path-20" class="cls-7" fill-rule="evenodd"/>
    <path d="M84.027,86.671 C84.027,86.671 45.286,83.377 45.286,83.377 C45.286,83.377 45.286,80.779 45.286,80.779 C45.286,80.779 84.027,80.779 84.027,80.779 C84.027,80.779 84.027,86.671 84.027,86.671 Z" id="path-21" class="cls-7" fill-rule="evenodd"/>
    <path d="M142.503,38.908 C142.503,38.908 103.768,35.613 103.768,35.613 C103.768,35.613 103.768,34.936 103.768,34.936 C103.768,34.936 142.503,34.936 142.503,34.936 C142.503,34.936 142.503,38.908 142.503,38.908 Z" id="path-22" class="cls-7" fill-rule="evenodd"/>
  </g>
</svg>
