<svg xmlns="http://www.w3.org/2000/svg" xmlns:xlink="http://www.w3.org/1999/xlink" preserveAspectRatio="xMidYMid" width="192" height="217" viewBox="0 0 192 217">
  <defs>
    <style>

      .cls-3 {
        fill: #098136;
      }

      .cls-5 {
        fill: #142a3b;
      }

      .cls-6 {
        fill: #0cb04a;
      }

      .cls-7 {
        fill: #ffe56d;
      }

      .cls-9 {
        fill: #ff3a2f;
      }
    </style>
  </defs>
  <g id="group-20svg">
    <path d="M166.741,46.868 C166.741,46.868 166.741,157.275 166.741,157.275 C166.741,168.980 157.163,178.469 145.347,178.469 C145.347,178.469 157.095,178.469 157.095,178.469 C168.911,178.469 178.489,168.980 178.489,157.275 C178.489,157.275 178.489,46.868 178.489,46.868 C178.489,46.868 166.741,46.868 166.741,46.868 Z" id="path-1" class="cls-3" fill-rule="evenodd"/>
    <path d="M178.489,42.343 C178.489,42.343 178.489,37.753 178.489,37.753 C178.489,26.048 168.911,16.560 157.095,16.560 C157.095,16.560 145.347,16.560 145.347,16.560 C157.163,16.560 166.741,26.048 166.741,37.753 C166.741,37.753 166.741,42.826 166.741,42.826 C166.741,42.826 166.741,42.826 166.741,42.826 " id="path-2" class="cls-3" fill-rule="evenodd"/>
    <path d="M188.006,47.376 C188.006,47.376 19.015,47.376 19.015,47.376 C17.006,47.376 15.376,45.761 15.376,43.771 C15.376,43.771 15.376,0.007 15.376,0.007 C15.376,0.007 22.654,0.007 22.654,0.007 C22.654,0.007 22.654,40.166 22.654,40.166 C22.654,40.166 184.367,40.166 184.367,40.166 C184.367,40.166 184.367,0.007 184.367,0.007 C184.367,0.007 191.645,0.007 191.645,0.007 C191.645,0.007 191.645,43.771 191.645,43.771 C191.645,45.761 190.016,47.376 188.006,47.376 Z" id="path-3" class="cls-5" fill-rule="evenodd"/>
    <path d="M161.278,178.469 C161.278,178.469 45.743,178.469 45.743,178.469 C42.726,178.469 40.281,176.023 40.281,173.007 C40.281,173.007 40.281,22.022 40.281,22.022 C40.281,19.005 42.726,16.560 45.743,16.560 C45.743,16.560 161.278,16.560 161.278,16.560 C164.295,16.560 166.741,19.005 166.741,22.022 C166.741,22.022 166.741,173.007 166.741,173.007 C166.741,176.023 164.295,178.469 161.278,178.469 Z" id="path-4" class="cls-6" fill-rule="evenodd"/>
    <path d="M161.228,128.536 C161.228,128.536 45.794,128.536 45.794,128.536 C43.784,128.536 42.154,126.922 42.154,124.931 C42.154,122.940 43.784,121.327 45.794,121.327 C45.794,121.327 161.228,121.327 161.228,121.327 C163.238,121.327 164.866,122.940 164.866,124.931 C164.866,126.922 163.238,128.536 161.228,128.536 Z" id="path-5" class="cls-7" fill-rule="evenodd"/>
    <path d="M161.228,155.693 C161.228,155.693 45.794,155.693 45.794,155.693 C43.784,155.693 42.154,154.079 42.154,152.088 C42.154,150.097 43.784,148.484 45.794,148.484 C45.794,148.484 161.228,148.484 161.228,148.484 C163.238,148.484 164.866,150.097 164.866,152.088 C164.866,154.079 163.238,155.693 161.228,155.693 Z" id="path-6" class="cls-7" fill-rule="evenodd"/>
    <path d="M55.116,195.256 C55.116,195.256 66.339,195.256 66.339,195.256 C68.503,195.256 70.257,196.827 70.257,198.764 C70.257,200.700 68.503,202.271 66.339,202.271 C66.339,202.271 65.817,202.271 65.817,202.271 C63.653,202.271 61.898,203.840 61.898,205.777 C61.898,207.714 63.653,209.284 65.817,209.284 C65.817,209.284 89.943,209.284 89.943,209.284 C92.106,209.284 93.860,210.855 93.860,212.791 C93.860,214.728 92.106,216.299 89.943,216.299 C89.943,216.299 60.949,216.299 60.949,216.299 C60.949,216.299 29.082,216.299 29.082,216.299 C26.919,216.299 25.164,214.728 25.164,212.791 C25.164,210.855 26.919,209.284 29.082,209.284 C29.082,209.284 35.778,209.284 35.778,209.284 C37.942,209.284 39.697,207.714 39.697,205.777 C39.697,203.840 37.942,202.271 35.778,202.271 C35.778,202.271 3.911,202.271 3.911,202.271 C1.748,202.271 -0.007,200.700 -0.007,198.764 C-0.007,196.827 1.748,195.256 3.911,195.256 C3.911,195.256 11.443,195.256 11.443,195.256 C11.443,195.256 55.116,195.256 55.116,195.256 Z" id="path-7" class="cls-9" fill-rule="evenodd"/>
    <path d="M160.808,202.104 C165.436,202.104 169.189,199.749 169.189,196.844 C169.189,193.939 165.436,191.583 160.808,191.583 C160.808,191.583 135.125,191.583 135.125,191.583 C130.496,191.583 126.744,193.939 126.744,196.844 C126.744,199.749 130.496,202.104 135.125,202.104 C135.125,202.104 160.808,202.104 160.808,202.104 Z" id="path-8" class="cls-9" fill-rule="evenodd"/>
  </g>
</svg>
