<svg xmlns="http://www.w3.org/2000/svg" xmlns:xlink="http://www.w3.org/1999/xlink" preserveAspectRatio="xMidYMid" width="233" height="104" viewBox="0 0 233 104">
  <defs>
    <style>

      .cls-3 {
        fill: #fbb713;
      }

      .cls-6 {
        fill: #142a3b;
      }

      .cls-8 {
        fill: #020403;
        opacity: 0.55;
      }

      .cls-9 {
        fill: #ffffff;
      }

      .cls-12 {
        fill: #0cb04a;
      }

      .cls-13 {
        fill: #020403;
        opacity: 0.25;
      }
    </style>
  </defs>
  <g id="group-85svg">
    <path d="M150.672,68.196 C150.672,68.196 170.816,68.196 170.816,68.196 C174.700,68.196 177.849,70.843 177.849,74.109 C177.849,77.374 174.700,80.022 170.816,80.022 C170.816,80.022 169.878,80.022 169.878,80.022 C165.995,80.022 162.846,82.668 162.846,85.934 C162.846,89.200 165.995,91.848 169.878,91.848 C169.878,91.848 213.183,91.848 213.183,91.848 C217.067,91.848 220.216,94.495 220.216,97.760 C220.216,101.025 217.067,103.673 213.183,103.673 C213.183,103.673 161.142,103.673 161.142,103.673 C161.142,103.673 67.555,103.673 67.555,103.673 C63.671,103.673 60.523,101.025 60.523,97.760 C60.523,94.495 63.671,91.848 67.555,91.848 C67.555,91.848 79.574,91.848 79.574,91.848 C83.457,91.848 86.606,89.200 86.606,85.934 C86.606,82.668 83.457,80.022 79.574,80.022 C79.574,80.022 22.375,80.022 22.375,80.022 C18.491,80.022 15.343,77.374 15.343,74.109 C15.343,70.843 18.491,68.196 22.375,68.196 C22.375,68.196 72.282,68.196 72.282,68.196 C72.282,68.196 150.672,68.196 150.672,68.196 Z" id="path-1" class="cls-3" fill-rule="evenodd"/>
    <path d="M47.901,-0.005 C47.901,-0.005 52.985,-0.005 52.985,-0.005 C53.965,-0.005 54.760,0.846 54.760,1.896 C54.760,2.945 53.965,3.797 52.985,3.797 C52.985,3.797 52.748,3.797 52.748,3.797 C51.768,3.797 50.974,4.647 50.974,5.697 C50.974,6.747 51.768,7.597 52.748,7.597 C52.748,7.597 63.677,7.597 63.677,7.597 C64.657,7.597 65.452,8.448 65.452,9.497 C65.452,10.547 64.657,11.398 63.677,11.398 C63.677,11.398 50.544,11.398 50.544,11.398 C50.544,11.398 36.109,11.398 36.109,11.398 C35.128,11.398 34.334,10.547 34.334,9.497 C34.334,8.448 35.128,7.597 36.109,7.597 C36.109,7.597 39.142,7.597 39.142,7.597 C40.122,7.597 40.917,6.747 40.917,5.697 C40.917,4.647 40.122,3.797 39.142,3.797 C39.142,3.797 24.707,3.797 24.707,3.797 C23.726,3.797 22.932,2.945 22.932,1.896 C22.932,0.846 23.726,-0.005 24.707,-0.005 C24.707,-0.005 28.118,-0.005 28.118,-0.005 C28.118,-0.005 47.901,-0.005 47.901,-0.005 Z" id="path-2" class="cls-3" fill-rule="evenodd"/>
    <path d="M38.246,103.829 C41.722,103.829 44.540,102.060 44.540,99.877 C44.540,97.696 41.722,95.927 38.246,95.927 C38.246,95.927 18.958,95.927 18.958,95.927 C15.482,95.927 12.664,97.696 12.664,99.877 C12.664,102.060 15.482,103.829 18.958,103.829 C18.958,103.829 38.246,103.829 38.246,103.829 Z" id="path-3" class="cls-3" fill-rule="evenodd"/>
    <path d="M194.251,51.621 C196.783,51.621 199.188,51.096 201.377,50.167 C203.661,44.014 209.629,39.625 216.633,39.625 C225.608,39.625 232.884,46.833 232.884,55.723 C232.884,64.616 225.608,71.824 216.633,71.824 C209.966,71.824 204.240,67.844 201.733,62.156 C199.207,60.828 196.327,60.072 193.267,60.072 C186.138,60.072 179.973,64.154 177.016,70.085 C177.016,70.085 177.016,39.210 177.016,39.210 C179.372,46.412 186.196,51.621 194.251,51.621 Z" id="path-4" class="cls-6" fill-rule="evenodd"/>
    <path d="M41.454,47.732 C38.736,47.732 36.156,47.168 33.808,46.170 C31.356,39.568 24.951,34.858 17.435,34.858 C7.804,34.858 -0.004,42.592 -0.004,52.134 C-0.004,61.676 7.804,69.411 17.435,69.411 C24.590,69.411 30.734,65.142 33.424,59.036 C36.136,57.611 39.225,56.800 42.509,56.800 C50.160,56.800 56.776,61.181 59.948,67.544 C59.948,67.544 59.948,34.413 59.948,34.413 C57.420,42.142 50.098,47.732 41.454,47.732 Z" id="path-5" class="cls-6" fill-rule="evenodd"/>
    <path d="M232.575,52.692 C232.447,52.050 232.241,51.440 232.037,50.831 C231.944,50.542 231.874,50.244 231.765,49.962 C231.445,49.161 231.060,48.390 230.619,47.656 C230.592,47.610 230.571,47.563 230.543,47.516 C230.062,46.733 229.519,45.987 228.917,45.292 C229.130,46.334 229.245,47.410 229.245,48.514 C229.245,57.405 221.969,64.613 212.994,64.613 C206.327,64.613 200.601,60.635 198.094,54.945 C195.568,53.617 192.688,52.862 189.628,52.862 C187.878,52.862 186.224,53.189 184.629,53.653 C184.629,53.653 184.629,48.818 184.629,48.818 C181.081,46.600 178.334,43.239 177.016,39.210 C177.016,39.210 177.016,57.987 177.016,57.987 C177.016,57.987 177.016,65.052 177.016,65.052 C177.016,65.052 177.016,70.085 177.016,70.085 C177.472,69.171 178.026,68.320 178.626,67.502 C178.693,67.413 178.764,67.329 178.833,67.241 C179.430,66.458 180.088,65.730 180.804,65.054 C180.804,65.054 180.805,65.052 180.805,65.052 C180.805,65.052 180.805,65.052 180.805,65.052 C181.949,63.973 183.230,63.046 184.629,62.290 C184.629,62.290 184.629,62.289 184.629,62.289 C184.629,62.289 184.631,62.288 184.631,62.288 C185.257,61.950 185.898,61.647 186.565,61.383 C186.631,61.356 186.699,61.335 186.766,61.309 C187.371,61.078 187.984,60.865 188.619,60.698 C188.872,60.629 189.135,60.587 189.393,60.530 C189.874,60.426 190.350,60.311 190.845,60.245 C191.637,60.135 192.444,60.072 193.267,60.072 C194.032,60.072 194.786,60.119 195.525,60.211 C197.005,60.394 198.429,60.754 199.775,61.269 C200.448,61.526 201.102,61.824 201.733,62.156 C202.360,63.577 203.188,64.894 204.181,66.067 C205.672,67.825 207.534,69.264 209.649,70.265 C211.765,71.263 214.133,71.823 216.633,71.823 C223.364,71.823 229.139,67.768 231.607,61.991 C232.429,60.064 232.884,57.947 232.884,55.723 C232.884,54.685 232.765,53.676 232.575,52.692 Z" id="path-6" class="cls-8" fill-rule="evenodd"/>
    <path d="M18.444,49.383 C16.173,51.634 12.490,51.634 10.218,49.383 C7.946,47.133 7.946,43.484 10.218,41.234 C12.490,38.983 16.173,38.983 18.444,41.234 C20.715,43.484 20.715,47.133 18.444,49.383 Z" id="path-7" class="cls-9" fill-rule="evenodd"/>
    <path d="M7.274,48.529 C7.274,43.186 9.774,38.471 13.619,35.302 C5.828,37.029 -0.004,43.895 -0.004,52.134 C-0.004,61.676 7.804,69.411 17.435,69.411 C21.723,69.411 25.630,67.854 28.666,65.311 C27.391,65.606 26.079,65.805 24.713,65.805 C15.082,65.805 7.274,58.071 7.274,48.529 Z" id="path-8" class="cls-8" fill-rule="evenodd"/>
    <path d="M52.113,44.517 C52.113,44.517 52.113,53.359 52.113,53.359 C51.349,53.267 50.577,53.195 49.787,53.195 C46.503,53.195 43.413,54.006 40.702,55.430 C40.464,55.972 40.167,56.478 39.876,56.988 C39.876,56.988 39.877,56.988 39.877,56.988 C40.739,56.872 41.615,56.800 42.509,56.800 C43.411,56.800 44.296,56.867 45.162,56.989 C45.772,57.072 46.359,57.215 46.950,57.352 C47.173,57.406 47.404,57.438 47.625,57.499 C48.387,57.705 49.122,57.967 49.844,58.260 C49.870,58.270 49.897,58.278 49.923,58.289 C50.680,58.600 51.407,58.960 52.113,59.359 C52.113,59.359 52.113,59.359 52.113,59.359 C52.113,59.359 52.113,59.359 52.113,59.359 C54.323,60.611 56.248,62.272 57.806,64.249 C57.806,64.249 57.806,64.249 57.806,64.249 C57.806,64.249 57.808,64.252 57.808,64.252 C58.186,64.730 58.551,65.218 58.882,65.732 C59.272,66.314 59.634,66.914 59.949,67.544 C59.949,67.544 59.949,56.053 59.949,56.053 C59.276,55.643 58.569,55.284 57.845,54.955 C57.845,54.955 57.845,41.765 57.845,41.765 C58.562,41.392 59.290,41.029 59.949,40.566 C59.949,40.566 59.949,34.413 59.949,34.413 C59.686,35.217 59.354,35.988 58.979,36.733 C57.448,39.916 55.061,42.591 52.113,44.517 Z" id="path-9" class="cls-8" fill-rule="evenodd"/>
    <path d="M177.531,77.265 C177.531,77.265 57.845,77.265 57.845,77.265 C57.845,77.265 57.845,26.559 57.845,26.559 C57.845,26.559 177.531,26.559 177.531,26.559 C177.531,26.559 177.531,77.265 177.531,77.265 Z" id="path-10" class="cls-12" fill-rule="evenodd"/>
    <path d="M166.613,26.559 C166.613,26.559 166.613,53.797 166.613,53.797 C166.613,60.785 160.895,66.450 153.841,66.450 C153.841,66.450 57.845,66.450 57.845,66.450 C57.845,66.450 57.845,77.265 57.845,77.265 C57.845,77.265 177.530,77.265 177.530,77.265 C177.530,77.265 177.530,26.559 177.530,26.559 C177.530,26.559 166.613,26.559 166.613,26.559 Z" id="path-11" class="cls-13" fill-rule="evenodd"/>
    <path d="M147.068,41.097 C147.068,41.097 85.813,41.097 85.813,41.097 C83.803,41.097 82.174,39.483 82.174,37.492 C82.174,35.502 83.803,33.888 85.813,33.888 C85.813,33.888 147.068,33.888 147.068,33.888 C149.077,33.888 150.706,35.502 150.706,37.492 C150.706,39.483 149.077,41.097 147.068,41.097 Z" id="path-12" class="cls-9" fill-rule="evenodd"/>
  </g>
</svg>
