<svg xmlns="http://www.w3.org/2000/svg" xmlns:xlink="http://www.w3.org/1999/xlink" preserveAspectRatio="xMidYMid" width="219" height="210" viewBox="0 0 219 210">
  <defs>
    <style>

      .cls-3 {
        fill: #142a3b;
      }

      .cls-8 {
        fill: #0cb04a;
      }

      .cls-9 {
        fill: #ededed;
      }

      .cls-10 {
        fill: #020403;
        opacity: 0.35;
      }

      .cls-15 {
        fill: #ffffff;
      }

      .cls-16 {
        fill: #fbb713;
      }

      .cls-17 {
        fill: #020403;
        opacity: 0.25;
      }
    </style>
  </defs>
  <g id="group-121svg">
    <path d="M33.141,130.406 C35.051,130.406 36.598,129.717 36.598,128.867 C36.598,128.018 35.051,127.329 33.141,127.329 C33.141,127.329 22.546,127.329 22.546,127.329 C20.636,127.329 19.088,128.018 19.088,128.867 C19.088,129.717 20.636,130.406 22.546,130.406 C22.546,130.406 33.141,130.406 33.141,130.406 Z" id="path-1" class="cls-3" fill-rule="evenodd"/>
    <path d="M41.341,96.486 C41.341,96.486 45.324,96.486 45.324,96.486 C46.092,96.486 46.715,97.095 46.715,97.846 C46.715,98.596 46.092,99.206 45.324,99.206 C45.324,99.206 45.139,99.206 45.139,99.206 C44.371,99.206 43.748,99.813 43.748,100.563 C43.748,101.315 44.371,101.923 45.139,101.923 C45.139,101.923 53.702,101.923 53.702,101.923 C54.469,101.923 55.092,102.532 55.092,103.282 C55.092,104.033 54.469,104.642 53.702,104.642 C53.702,104.642 43.412,104.642 43.412,104.642 C43.412,104.642 22.380,104.642 22.380,104.642 C21.612,104.642 20.989,104.033 20.989,103.282 C20.989,102.532 21.612,101.923 22.380,101.923 C22.380,101.923 24.756,101.923 24.756,101.923 C25.524,101.923 26.147,101.315 26.147,100.563 C26.147,99.813 25.524,99.206 24.756,99.206 C24.756,99.206 13.447,99.206 13.447,99.206 C12.679,99.206 12.056,98.596 12.056,97.846 C12.056,97.095 12.679,96.486 13.447,96.486 C13.447,96.486 16.119,96.486 16.119,96.486 C16.119,96.486 41.341,96.486 41.341,96.486 Z" id="path-2" class="cls-3" fill-rule="evenodd"/>
    <path d="M180.525,197.569 C180.525,197.569 184.508,197.569 184.508,197.569 C185.276,197.569 185.898,198.253 185.898,199.097 C185.898,199.942 185.276,200.626 184.508,200.626 C184.508,200.626 184.322,200.626 184.322,200.626 C183.554,200.626 182.932,201.310 182.932,202.154 C182.932,202.998 183.554,203.683 184.322,203.683 C184.322,203.683 192.885,203.683 192.885,203.683 C193.653,203.683 194.275,204.368 194.275,205.212 C194.275,206.055 193.653,206.740 192.885,206.740 C192.885,206.740 182.595,206.740 182.595,206.740 C182.595,206.740 161.563,206.740 161.563,206.740 C160.795,206.740 160.173,206.055 160.173,205.212 C160.173,204.368 160.795,203.683 161.563,203.683 C161.563,203.683 163.940,203.683 163.940,203.683 C164.708,203.683 165.330,202.998 165.330,202.154 C165.330,201.310 164.708,200.626 163.940,200.626 C163.940,200.626 152.630,200.626 152.630,200.626 C151.862,200.626 151.240,199.942 151.240,199.097 C151.240,198.253 151.862,197.569 152.630,197.569 C152.630,197.569 155.303,197.569 155.303,197.569 C155.303,197.569 180.525,197.569 180.525,197.569 Z" id="path-3" class="cls-3" fill-rule="evenodd"/>
    <path d="M102.830,208.786 C101.107,208.689 99.770,207.596 99.842,206.347 C99.914,205.098 101.370,204.165 103.093,204.263 C103.093,204.263 112.651,204.806 112.651,204.806 C114.374,204.906 115.712,205.997 115.639,207.248 C115.567,208.496 114.111,209.429 112.389,209.332 C112.389,209.332 102.830,208.786 102.830,208.786 Z" id="path-4" class="cls-3" fill-rule="evenodd"/>
    <path d="M36.859,195.813 C36.859,195.813 26.184,195.813 26.184,195.813 C24.126,195.813 22.458,196.758 22.458,197.926 C22.458,199.094 24.126,200.040 26.184,200.040 C26.184,200.040 26.681,200.040 26.681,200.040 C28.739,200.040 30.408,200.986 30.408,202.154 C30.408,203.321 28.739,204.269 26.681,204.269 C26.681,204.269 3.733,204.269 3.733,204.269 C1.675,204.269 0.007,205.215 0.007,206.382 C0.007,207.550 1.675,208.496 3.733,208.496 C3.733,208.496 31.311,208.496 31.311,208.496 C31.311,208.496 87.678,208.496 87.678,208.496 C89.736,208.496 91.405,207.550 91.405,206.382 C91.405,205.215 89.736,204.269 87.678,204.269 C87.678,204.269 81.309,204.269 81.309,204.269 C79.251,204.269 77.583,203.321 77.583,202.154 C77.583,200.986 79.251,200.040 81.309,200.040 C81.309,200.040 106.323,200.040 106.323,200.040 C108.381,200.040 110.050,199.094 110.050,197.926 C110.050,196.758 108.381,195.813 106.323,195.813 C106.323,195.813 104.456,195.813 104.456,195.813 C104.456,195.813 36.859,195.813 36.859,195.813 Z" id="path-5" class="cls-3" fill-rule="evenodd"/>
    <path d="M67.909,180.048 C67.909,180.048 67.909,13.855 67.909,13.855 C67.909,6.207 74.168,0.006 81.889,0.006 C81.889,0.006 158.780,0.006 158.780,0.006 C166.501,0.006 172.759,6.207 172.759,13.855 C172.759,13.855 172.759,180.048 172.759,180.048 C172.759,180.048 67.909,180.048 67.909,180.048 Z" id="path-6" class="cls-8" fill-rule="evenodd"/>
    <path d="M81.889,69.253 C81.889,69.253 81.889,13.855 81.889,13.855 C81.889,13.855 158.780,13.855 158.780,13.855 C158.780,13.855 158.780,69.253 158.780,69.253 C158.780,69.253 81.889,69.253 81.889,69.253 Z" id="path-7" class="cls-9" fill-rule="evenodd"/>
    <path d="M88.879,20.780 C88.879,20.780 158.780,20.780 158.780,20.780 C158.780,20.780 158.780,13.856 158.780,13.856 C158.780,13.856 81.889,13.856 81.889,13.856 C81.889,13.856 81.889,69.254 81.889,69.254 C81.889,69.254 88.879,69.254 88.879,69.254 C88.879,69.254 88.879,20.780 88.879,20.780 Z" id="path-8" class="cls-10" fill-rule="evenodd"/>
    <path d="M214.704,72.857 C213.634,72.857 212.579,72.394 211.857,71.505 C211.857,71.505 197.877,54.194 197.877,54.194 C196.623,52.637 196.879,50.371 198.447,49.126 C200.021,47.880 202.305,48.138 203.563,49.689 C203.563,49.689 217.543,67.001 217.543,67.001 C218.798,68.556 218.541,70.825 216.975,72.067 C216.303,72.599 215.500,72.857 214.704,72.857 Z" id="path-9" class="cls-3" fill-rule="evenodd"/>
    <path d="M204.214,142.104 C196.428,142.104 190.092,135.828 190.092,128.113 C190.092,128.113 190.092,76.178 190.092,76.178 C190.092,74.346 188.589,72.857 186.741,72.857 C186.741,72.857 172.761,72.857 172.761,72.857 C170.750,72.857 169.122,71.244 169.122,69.253 C169.122,67.262 170.750,65.648 172.761,65.648 C172.761,65.648 186.741,65.648 186.741,65.648 C192.600,65.648 197.369,70.372 197.369,76.178 C197.369,76.178 197.369,128.113 197.369,128.113 C197.369,131.853 200.439,134.896 204.214,134.896 C207.991,134.896 211.062,131.853 211.062,128.113 C211.062,128.113 211.062,69.253 211.062,69.253 C211.062,67.262 212.689,65.648 214.700,65.648 C216.712,65.648 218.339,67.262 218.339,69.253 C218.339,69.253 218.339,128.113 218.339,128.113 C218.339,135.828 212.003,142.104 204.214,142.104 Z" id="path-10" class="cls-3" fill-rule="evenodd"/>
    <path d="M118.530,69.872 C117.293,69.872 116.088,69.248 115.406,68.122 C115.406,68.122 96.242,36.484 96.242,36.484 C95.207,34.776 95.765,32.563 97.488,31.538 C99.212,30.513 101.451,31.068 102.482,32.774 C102.482,32.774 121.646,64.411 121.646,64.411 C122.680,66.118 122.122,68.333 120.398,69.357 C119.812,69.706 119.166,69.872 118.530,69.872 Z" id="path-11" class="cls-3" fill-rule="evenodd"/>
    <path d="M120.335,90.028 C115.093,100.094 99.364,110.169 99.364,125.279 C99.364,136.400 108.758,145.424 120.335,145.424 C131.915,145.424 141.304,136.400 141.304,125.279 C141.304,110.169 125.579,100.094 120.335,90.028 C120.335,90.028 120.335,90.028 120.335,90.028 Z" id="path-12" class="cls-3" fill-rule="evenodd"/>
    <path d="M121.326,139.697 C110.516,139.697 101.724,131.203 101.724,120.760 C101.724,118.771 103.352,117.156 105.363,117.156 C107.375,117.156 109.002,118.771 109.002,120.760 C109.002,127.227 114.531,132.488 121.326,132.488 C123.337,132.488 124.965,134.103 124.965,136.095 C124.965,138.083 123.337,139.697 121.326,139.697 Z" id="path-13" class="cls-15" fill-rule="evenodd"/>
    <path d="M172.759,176.232 C172.759,176.232 67.909,176.232 67.909,176.232 C67.909,176.232 67.909,161.228 67.909,161.228 C67.909,161.228 172.759,161.228 172.759,161.228 C172.759,161.228 172.759,176.232 172.759,176.232 Z" id="path-14" class="cls-16" fill-rule="evenodd"/>
    <path d="M158.780,0.006 C158.780,0.006 158.780,173.123 158.780,173.123 C158.780,173.123 67.909,173.123 67.909,173.123 C67.909,173.123 67.909,180.048 67.909,180.048 C67.909,180.048 172.760,180.048 172.760,180.048 C172.760,180.048 172.760,13.856 172.760,13.856 C172.760,6.207 166.501,0.006 158.780,0.006 Z" id="path-15" class="cls-17" fill-rule="evenodd"/>
    <path d="M81.888,147.999 C79.877,147.999 78.249,146.386 78.249,144.395 C78.249,144.395 78.249,92.559 78.249,92.559 C78.249,90.568 79.877,88.953 81.888,88.953 C83.900,88.953 85.528,90.568 85.528,92.559 C85.528,92.559 85.528,144.395 85.528,144.395 C85.528,146.386 83.900,147.999 81.888,147.999 Z" id="path-16" class="cls-15" fill-rule="evenodd"/>
    <path d="M207.711,183.653 C207.711,183.653 32.959,183.653 32.959,183.653 C30.949,183.653 29.320,182.039 29.320,180.047 C29.320,178.056 30.949,176.442 32.959,176.442 C32.959,176.442 207.711,176.442 207.711,176.442 C209.722,176.442 211.349,178.056 211.349,180.047 C211.349,182.039 209.722,183.653 207.711,183.653 Z" id="path-17" class="cls-3" fill-rule="evenodd"/>
  </g>
</svg>
