<svg xmlns="http://www.w3.org/2000/svg" xmlns:xlink="http://www.w3.org/1999/xlink" preserveAspectRatio="xMidYMid" width="219" height="214" viewBox="0 0 219 214">
  <defs>
    <style>

      .cls-3 {
        fill: #ff3a2f;
      }

      .cls-7 {
        fill: #fbb713;
      }

      .cls-8 {
        fill: #020403;
        opacity: 0.35;
      }

      .cls-9 {
        fill: #ededed;
      }

      .cls-10 {
        fill: #020403;
        opacity: 0.25;
      }

      .cls-11 {
        fill: #4f4f6f;
      }

      .cls-12 {
        fill: #142a3b;
      }
    </style>
  </defs>
  <g id="group-114svg">
    <path d="M74.780,196.913 C74.780,196.913 90.004,196.913 90.004,196.913 C92.939,196.913 95.318,197.972 95.318,199.278 C95.318,200.583 92.939,201.642 90.004,201.642 C90.004,201.642 89.296,201.642 89.296,201.642 C86.359,201.642 83.980,202.699 83.980,204.005 C83.980,205.311 86.359,206.369 89.296,206.369 C89.296,206.369 122.022,206.369 122.022,206.369 C124.958,206.369 127.337,207.428 127.337,208.734 C127.337,210.039 124.958,211.097 122.022,211.097 C122.022,211.097 82.692,211.097 82.692,211.097 C82.692,211.097 39.465,211.097 39.465,211.097 C36.531,211.097 34.151,210.039 34.151,208.734 C34.151,207.428 36.531,206.369 39.465,206.369 C39.465,206.369 48.548,206.369 48.548,206.369 C51.484,206.369 53.863,205.311 53.863,204.005 C53.863,202.699 51.484,201.642 48.548,201.642 C48.548,201.642 5.322,201.642 5.322,201.642 C2.386,201.642 0.007,200.583 0.007,199.278 C0.007,197.972 2.386,196.913 5.322,196.913 C5.322,196.913 15.538,196.913 15.538,196.913 C15.538,196.913 74.780,196.913 74.780,196.913 Z" id="path-1" class="cls-3" fill-rule="evenodd"/>
    <path d="M169.006,213.142 C172.358,213.142 175.074,211.934 175.074,210.445 C175.074,208.953 172.358,207.745 169.006,207.745 C169.006,207.745 150.410,207.745 150.410,207.745 C147.059,207.745 144.342,208.953 144.342,210.445 C144.342,211.934 147.059,213.142 150.410,213.142 C150.410,213.142 169.006,213.142 169.006,213.142 Z" id="path-2" class="cls-3" fill-rule="evenodd"/>
    <path d="M183.403,175.677 C183.403,175.677 190.393,175.677 190.393,175.677 C191.741,175.677 192.833,176.278 192.833,177.019 C192.833,177.759 191.741,178.360 190.393,178.360 C190.393,178.360 190.068,178.360 190.068,178.360 C188.720,178.360 187.627,178.960 187.627,179.700 C187.627,180.442 188.720,181.042 190.068,181.042 C190.068,181.042 205.095,181.042 205.095,181.042 C206.443,181.042 207.536,181.642 207.536,182.382 C207.536,183.122 206.443,183.723 205.095,183.723 C205.095,183.723 187.036,183.723 187.036,183.723 C187.036,183.723 150.123,183.723 150.123,183.723 C148.776,183.723 147.683,183.122 147.683,182.382 C147.683,181.642 148.776,181.042 150.123,181.042 C150.123,181.042 154.294,181.042 154.294,181.042 C155.642,181.042 156.735,180.442 156.735,179.700 C156.735,178.960 155.642,178.360 154.294,178.360 C154.294,178.360 134.444,178.360 134.444,178.360 C133.097,178.360 132.004,177.759 132.004,177.019 C132.004,176.278 133.097,175.677 134.444,175.677 C134.444,175.677 139.136,175.677 139.136,175.677 C139.136,175.677 183.403,175.677 183.403,175.677 Z" id="path-3" class="cls-3" fill-rule="evenodd"/>
    <path d="M130.386,185.174 C132.900,185.174 134.939,184.678 134.939,184.064 C134.939,183.452 132.900,182.954 130.386,182.954 C130.386,182.954 116.434,182.954 116.434,182.954 C113.918,182.954 111.880,183.452 111.880,184.064 C111.880,184.678 113.918,185.174 116.434,185.174 C116.434,185.174 130.386,185.174 130.386,185.174 Z" id="path-4" class="cls-3" fill-rule="evenodd"/>
    <path d="M100.246,159.405 C135.558,180.628 165.141,165.291 194.721,130.403 C224.409,95.392 227.045,50.587 197.287,21.108 C173.045,-2.908 138.576,-6.093 107.490,9.833 C107.490,9.833 64.225,46.449 64.225,46.449 C46.482,68.588 41.858,91.314 57.702,117.249 C57.702,117.249 100.246,159.405 100.246,159.405 Z" id="path-5" class="cls-7" fill-rule="evenodd"/>
    <path d="M115.647,57.893 C104.687,68.750 86.915,68.750 75.955,57.893 C64.994,47.034 64.994,29.429 75.955,18.571 C86.915,7.712 104.687,7.712 115.647,18.571 C126.608,29.429 126.608,47.034 115.647,57.893 Z" id="path-6" class="cls-8" fill-rule="evenodd"/>
    <path d="M105.122,47.467 C94.162,58.324 76.390,58.324 65.429,47.467 C54.469,36.606 54.469,19.002 65.429,8.144 C76.390,-2.714 94.162,-2.714 105.122,8.144 C116.083,19.002 116.083,36.606 105.122,47.467 Z" id="path-7" class="cls-9" fill-rule="evenodd"/>
    <path d="M105.123,8.144 C102.206,5.254 98.801,3.160 95.177,1.808 C105.527,12.706 105.351,29.840 94.597,40.493 C86.552,48.463 74.846,50.559 64.849,46.830 C65.048,47.039 65.223,47.262 65.429,47.465 C76.390,58.324 94.162,58.324 105.123,47.465 C116.083,36.606 116.083,19.002 105.123,8.144 Z" id="path-8" class="cls-10" fill-rule="evenodd"/>
    <path d="M70.989,32.420 C69.098,32.420 67.500,30.969 67.363,29.071 C66.994,23.919 68.894,18.874 72.578,15.225 C75.677,12.157 79.788,10.317 84.159,10.050 C86.167,9.910 87.890,11.438 88.015,13.423 C88.139,15.411 86.615,17.121 84.607,17.245 C82.013,17.405 79.568,18.498 77.724,20.324 C75.534,22.494 74.405,25.495 74.621,28.559 C74.767,30.545 73.257,32.268 71.251,32.411 C71.164,32.417 71.077,32.420 70.989,32.420 Z" id="path-9" class="cls-11" fill-rule="evenodd"/>
    <path d="M47.431,77.909 C45.137,90.521 47.663,103.658 56.269,117.745 C61.636,126.529 59.359,137.936 51.143,144.198 C51.143,144.198 17.575,169.777 17.575,169.777 C12.794,173.419 12.337,180.398 16.602,184.624 C16.602,184.624 31.295,199.180 31.295,199.180 C35.561,203.406 42.604,202.953 46.282,198.216 C46.282,198.216 72.097,164.971 72.097,164.971 C78.421,156.826 89.946,154.572 98.814,159.902 C113.067,168.468 126.378,170.991 139.141,168.762 C139.141,168.762 47.431,77.909 47.431,77.909 Z" id="path-10" class="cls-12" fill-rule="evenodd"/>
    <path d="M193.288,110.026 C163.708,144.912 134.126,160.249 98.814,139.028 C89.946,133.699 78.421,135.953 72.097,144.098 C72.097,144.098 46.282,177.342 46.282,177.342 C42.604,182.078 35.561,182.531 31.295,178.306 C31.295,178.306 20.465,167.575 20.465,167.575 C20.465,167.575 17.575,169.778 17.575,169.778 C12.794,173.421 12.337,180.398 16.602,184.624 C16.602,184.624 31.295,199.181 31.295,199.181 C35.561,203.406 42.604,202.952 46.282,198.216 C46.282,198.216 72.097,164.971 72.097,164.971 C78.421,156.827 89.946,154.572 98.814,159.902 C134.126,181.125 165.141,165.289 194.721,130.403 C212.880,108.987 220.985,84.415 217.680,61.420 C215.343,78.101 206.056,94.967 193.288,110.026 Z" id="path-11" class="cls-8" fill-rule="evenodd"/>
    <path d="M56.240,98.592 C51.890,91.471 49.135,84.600 47.718,77.909 C44.865,91.024 48.252,104.688 57.208,119.386 C60.997,113.142 60.241,105.140 56.240,98.592 Z" id="path-12" class="cls-8" fill-rule="evenodd"/>
  </g>
</svg>
