<svg xmlns="http://www.w3.org/2000/svg" xmlns:xlink="http://www.w3.org/1999/xlink" preserveAspectRatio="xMidYMid" width="219" height="141" viewBox="0 0 219 141">
  <defs>
    <style>

      .cls-3 {
        fill: #020403;
      }

      .cls-4 {
        fill: #142a3b;
      }

      .cls-7 {
        fill: #2476ff;
      }

      .cls-8 {
        fill: #ffffff;
      }

      .cls-9 {
        fill: #020403;
        opacity: 0.35;
      }
    </style>
  </defs>
  <g id="group-70svg">
    <path d="M34.987,116.256 C29.735,116.373 17.476,121.584 8.353,127.539 C7.986,128.931 7.673,130.313 7.466,131.658 C7.224,133.223 7.949,134.778 9.305,135.612 C10.661,136.454 12.387,136.399 13.697,135.493 C22.923,129.107 36.391,123.281 41.953,123.157 C45.923,124.512 48.533,125.778 51.203,127.895 C44.800,120.768 42.025,118.657 34.987,116.256 Z" id="path-1" class="cls-3" fill-rule="evenodd"/>
    <path d="M137.281,107.721 C137.281,107.721 152.394,107.721 152.394,107.721 C155.308,107.721 157.671,109.204 157.671,111.033 C157.671,112.862 155.308,114.345 152.394,114.345 C152.394,114.345 151.691,114.345 151.691,114.345 C148.777,114.345 146.415,115.828 146.415,117.656 C146.415,119.486 148.777,120.969 151.691,120.969 C151.691,120.969 184.181,120.969 184.181,120.969 C187.095,120.969 189.457,122.450 189.457,124.280 C189.457,126.109 187.095,127.592 184.181,127.592 C184.181,127.592 145.137,127.592 145.137,127.592 C145.137,127.592 102.222,127.592 102.222,127.592 C99.307,127.592 96.946,126.109 96.946,124.280 C96.946,122.450 99.307,120.969 102.222,120.969 C102.222,120.969 111.239,120.969 111.239,120.969 C114.153,120.969 116.515,119.486 116.515,117.656 C116.515,115.828 114.153,114.345 111.239,114.345 C111.239,114.345 68.324,114.345 68.324,114.345 C65.411,114.345 63.047,112.862 63.047,111.033 C63.047,109.204 65.411,107.721 68.324,107.721 C68.324,107.721 78.467,107.721 78.467,107.721 C78.467,107.721 137.281,107.721 137.281,107.721 Z" id="path-2" class="cls-4" fill-rule="evenodd"/>
    <path d="M23.905,52.337 C23.905,52.337 28.771,52.337 28.771,52.337 C29.710,52.337 30.469,53.152 30.469,54.158 C30.469,55.162 29.710,55.977 28.771,55.977 C28.771,55.977 28.545,55.977 28.545,55.977 C27.606,55.977 26.847,56.791 26.847,57.794 C26.847,58.800 27.606,59.614 28.545,59.614 C28.545,59.614 39.005,59.614 39.005,59.614 C39.944,59.614 40.704,60.429 40.704,61.434 C40.704,62.438 39.944,63.253 39.005,63.253 C39.005,63.253 26.434,63.253 26.434,63.253 C26.434,63.253 12.618,63.253 12.618,63.253 C11.679,63.253 10.919,62.438 10.919,61.434 C10.919,60.429 11.679,59.614 12.618,59.614 C12.618,59.614 15.521,59.614 15.521,59.614 C16.459,59.614 17.220,58.800 17.220,57.794 C17.220,56.791 16.459,55.977 15.521,55.977 C15.521,55.977 1.704,55.977 1.704,55.977 C0.766,55.977 0.005,55.162 0.005,54.158 C0.005,53.152 0.766,52.337 1.704,52.337 C1.704,52.337 4.969,52.337 4.969,52.337 C4.969,52.337 23.905,52.337 23.905,52.337 Z" id="path-3" class="cls-4" fill-rule="evenodd"/>
    <path d="M201.539,84.369 C201.539,84.369 206.404,84.369 206.404,84.369 C207.343,84.369 208.104,85.183 208.104,86.187 C208.104,87.193 207.343,88.007 206.404,88.007 C206.404,88.007 206.178,88.007 206.178,88.007 C205.241,88.007 204.479,88.821 204.479,89.826 C204.479,90.831 205.241,91.646 206.178,91.646 C206.178,91.646 216.640,91.646 216.640,91.646 C217.578,91.646 218.338,92.460 218.338,93.465 C218.338,94.469 217.578,95.284 216.640,95.284 C216.640,95.284 204.068,95.284 204.068,95.284 C204.068,95.284 190.251,95.284 190.251,95.284 C189.314,95.284 188.552,94.469 188.552,93.465 C188.552,92.460 189.314,91.646 190.251,91.646 C190.251,91.646 193.154,91.646 193.154,91.646 C194.093,91.646 194.854,90.831 194.854,89.826 C194.854,88.821 194.093,88.007 193.154,88.007 C193.154,88.007 179.337,88.007 179.337,88.007 C178.400,88.007 177.639,87.193 177.639,86.187 C177.639,85.183 178.400,84.369 179.337,84.369 C179.337,84.369 182.603,84.369 182.603,84.369 C182.603,84.369 201.539,84.369 201.539,84.369 Z" id="path-4" class="cls-4" fill-rule="evenodd"/>
    <path d="M65.239,140.747 C64.104,140.747 62.999,140.268 62.222,139.385 C52.639,128.427 50.321,126.011 41.953,123.157 C36.391,123.281 22.923,129.107 13.697,135.493 C12.387,136.400 10.661,136.454 9.305,135.612 C7.949,134.778 7.224,133.223 7.466,131.658 C9.672,117.304 21.025,99.629 40.834,93.823 C60.368,56.735 87.890,32.689 101.453,22.339 C95.330,13.516 84.429,11.502 78.115,11.111 C76.190,10.988 74.628,9.521 74.401,7.626 C74.176,5.730 75.353,3.943 77.193,3.382 C90.482,-0.652 107.609,1.595 122.366,8.934 C124.743,7.738 126.910,6.773 128.827,6.061 C139.845,1.939 148.263,0.012 155.310,0.012 C167.118,0.012 175.560,5.552 181.721,17.396 C192.190,18.443 197.470,20.992 198.737,25.544 C199.840,29.523 197.085,33.130 194.138,35.185 C193.374,35.709 192.431,35.956 191.531,35.882 C180.115,34.972 167.995,36.794 154.779,41.173 C155.570,55.048 150.333,77.920 147.168,82.627 C146.189,84.067 144.370,84.715 142.689,84.209 C141.006,83.704 139.857,82.166 139.857,80.425 C139.857,74.862 136.606,69.229 130.456,64.137 C127.448,61.647 125.468,58.290 124.716,54.817 C96.674,70.643 73.446,91.788 63.010,101.984 C65.605,111.421 68.926,126.743 69.210,135.620 C69.327,135.990 69.389,136.384 69.389,136.794 C69.389,139.002 67.592,140.581 65.325,140.747 C65.294,140.747 65.266,140.747 65.239,140.747 Z" id="path-5" class="cls-7" fill-rule="evenodd"/>
    <path d="M136.652,12.618 C135.917,12.618 135.223,12.174 134.950,11.453 C134.594,10.522 135.071,9.481 136.008,9.129 C146.406,5.238 154.377,3.426 161.105,3.426 C162.110,3.426 162.924,4.234 162.924,5.230 C162.924,6.224 162.110,7.031 161.105,7.031 C154.832,7.031 147.266,8.770 137.295,12.502 C137.082,12.580 136.866,12.618 136.652,12.618 Z" id="path-6" class="cls-8" fill-rule="evenodd"/>
    <path d="M174.755,10.495 C175.737,10.594 176.626,10.719 177.517,10.843 C175.538,8.292 173.381,6.174 170.996,4.543 C172.325,6.332 173.596,8.266 174.755,10.495 Z" id="path-7" class="cls-9" fill-rule="evenodd"/>
    <path d="M75.315,4.690 C74.649,5.498 74.272,6.528 74.401,7.626 C74.628,9.521 76.190,10.988 78.115,11.111 C82.346,11.372 88.617,12.419 94.149,15.700 C94.257,15.616 94.381,15.519 94.486,15.437 C89.554,8.331 81.553,5.672 75.315,4.690 Z" id="path-8" class="cls-9" fill-rule="evenodd"/>
    <path d="M63.010,101.984 C73.155,92.071 95.405,71.825 122.398,56.166 C120.028,53.818 118.402,50.929 117.749,47.917 C89.708,63.741 66.480,84.886 56.044,95.084 C58.640,104.520 61.960,119.842 62.245,128.719 C62.361,129.090 62.424,129.484 62.424,129.893 C62.424,132.101 60.627,133.680 58.358,133.846 C58.328,133.846 58.300,133.846 58.273,133.846 C57.859,133.846 57.468,133.715 57.076,133.591 C58.561,135.213 60.229,137.105 62.222,139.385 C62.999,140.268 64.104,140.747 65.239,140.747 C65.266,140.747 65.294,140.747 65.325,140.747 C67.592,140.581 69.389,139.002 69.389,136.794 C69.389,136.384 69.328,135.990 69.210,135.620 C68.926,126.743 65.605,111.421 63.010,101.984 Z" id="path-9" class="cls-9" fill-rule="evenodd"/>
    <path d="M198.737,25.543 C197.981,22.829 195.759,20.841 191.902,19.446 C192.455,23.103 189.917,26.369 187.171,28.284 C186.408,28.808 185.465,29.054 184.564,28.982 C173.149,28.070 161.029,29.892 147.813,34.272 C148.604,48.147 143.367,71.019 140.201,75.726 C139.961,76.081 139.666,76.385 139.337,76.639 C139.667,77.900 139.857,79.165 139.857,80.425 C139.857,82.166 141.006,83.705 142.689,84.209 C144.370,84.715 146.189,84.067 147.168,82.627 C150.334,77.920 155.570,55.048 154.779,41.173 C167.995,36.794 180.115,34.972 191.531,35.882 C192.431,35.955 193.374,35.709 194.138,35.185 C197.085,33.130 199.840,29.523 198.737,25.543 Z" id="path-10" class="cls-9" fill-rule="evenodd"/>
    <path d="M54.685,81.200 C54.362,81.200 54.035,81.115 53.736,80.936 C52.879,80.418 52.610,79.308 53.132,78.459 C54.184,76.745 79.158,36.469 97.637,33.055 C98.607,32.874 99.574,33.516 99.758,34.497 C99.943,35.475 99.293,36.417 98.305,36.599 C81.412,39.719 56.486,79.929 56.237,80.335 C55.896,80.892 55.296,81.200 54.685,81.200 Z" id="path-11" class="cls-8" fill-rule="evenodd"/>
  </g>
</svg>
