<svg xmlns="http://www.w3.org/2000/svg" xmlns:xlink="http://www.w3.org/1999/xlink" preserveAspectRatio="xMidYMid" width="221" height="191" viewBox="0 0 221 191">
  <defs>
    <style>

      .cls-3 {
        fill: #0cb04a;
      }

      .cls-4 {
        fill: #020403;
        opacity: 0.35;
      }

      .cls-9 {
        fill: #fbb713;
      }
    </style>
  </defs>
  <g id="group-44svg">
    <path d="M117.966,46.189 C113.020,47.666 107.149,48.144 100.331,46.102 C51.826,28.984 -0.003,40.484 -0.003,40.484 C-0.003,40.484 0.459,44.972 1.555,52.202 C11.260,53.430 11.237,65.179 11.237,65.179 C11.237,65.179 13.214,82.095 17.355,91.142 C23.859,105.351 49.208,108.001 49.208,108.001 C65.612,110.353 79.178,104.404 85.189,98.389 C92.068,91.498 92.406,87.764 95.690,74.817 C98.318,64.457 100.739,64.481 105.731,64.481 C112.479,64.481 116.452,64.625 118.953,74.945 C122.099,87.930 124.898,92.418 131.704,99.373 C137.653,105.456 151.570,111.167 168.007,108.983 C168.007,108.983 193.583,106.412 200.247,92.268 C204.477,83.265 206.743,66.276 206.743,66.276 C206.743,66.276 206.900,54.473 216.619,53.344 C217.793,46.123 218.330,41.637 218.330,41.637 C218.330,41.637 166.649,29.576 117.966,46.189 ZM85.665,63.060 C83.702,63.466 84.788,64.937 83.425,70.313 C81.068,79.603 80.826,82.281 75.892,87.224 C71.578,91.538 61.847,95.807 50.080,94.120 C50.080,94.120 31.895,92.218 27.230,82.026 C24.259,75.536 22.841,63.401 22.841,63.401 C22.841,63.401 22.521,62.193 22.521,62.193 C21.541,55.733 21.129,51.724 21.129,51.724 C21.129,51.724 50.289,44.742 85.665,50.890 C85.665,50.890 85.665,63.060 85.665,63.060 ZM193.628,64.937 C193.628,64.937 193.308,66.145 193.308,66.145 C193.308,66.145 191.890,78.279 188.918,84.770 C184.253,94.963 166.068,96.862 166.068,96.862 C154.301,98.552 144.569,94.282 140.256,89.968 C135.322,85.025 135.079,82.346 132.724,73.057 C131.360,67.682 132.446,66.210 130.483,65.803 C130.483,65.803 130.483,53.633 130.483,53.633 C165.859,47.486 195.019,54.469 195.019,54.469 C195.019,54.469 194.606,58.476 193.628,64.937 Z" id="path-1" class="cls-3" fill-rule="evenodd"/>
    <path d="M88.421,46.102 C94.051,47.788 99.025,47.743 103.377,46.848 C102.381,46.648 101.371,46.414 100.331,46.102 C77.230,37.950 53.389,36.293 34.739,36.788 C51.100,37.232 69.996,39.600 88.421,46.102 Z" id="path-2" class="cls-4" fill-rule="evenodd"/>
    <path d="M140.256,89.968 C135.322,85.025 135.079,82.346 132.724,73.057 C131.360,67.682 132.446,66.210 130.483,65.803 C130.483,65.803 130.483,53.633 130.483,53.633 C139.037,52.147 147.214,51.439 154.717,51.204 C144.373,50.866 131.919,51.314 118.574,53.633 C118.574,53.633 118.574,65.803 118.574,65.803 C120.537,66.210 119.451,67.682 120.815,73.057 C123.171,82.346 123.413,85.025 128.347,89.968 C132.661,94.282 142.393,98.552 154.160,96.862 C154.160,96.862 154.516,96.823 155.107,96.737 C148.431,95.649 143.127,92.840 140.256,89.968 Z" id="path-3" class="cls-4" fill-rule="evenodd"/>
    <path d="M11.676,68.394 C12.377,72.495 13.580,78.222 15.321,82.026 C19.986,92.218 38.171,94.120 38.171,94.120 C42.105,94.684 45.779,94.540 49.132,93.994 C45.371,93.447 31.261,90.836 27.230,82.026 C24.259,75.536 22.841,63.401 22.841,63.401 C22.841,63.401 22.521,62.193 22.521,62.193 C21.541,55.733 21.130,51.724 21.130,51.724 C21.130,51.724 32.446,49.017 49.522,48.460 C25.998,47.721 9.221,51.724 9.221,51.724 C9.221,51.724 9.532,54.756 10.256,59.786 C11.229,62.631 11.237,65.179 11.237,65.179 C11.237,65.179 11.386,66.428 11.676,68.394 Z" id="path-4" class="cls-4" fill-rule="evenodd"/>
    <path d="M93.821,64.481 C88.829,64.481 86.410,64.457 83.781,74.816 C80.497,87.764 80.160,91.498 73.280,98.389 C68.992,102.679 60.817,106.880 50.553,108.115 C66.340,109.956 79.345,104.235 85.189,98.389 C92.068,91.498 92.406,87.764 95.690,74.816 C97.235,68.726 98.712,66.237 100.678,65.208 C98.781,64.517 96.528,64.481 93.821,64.481 Z" id="path-5" class="cls-4" fill-rule="evenodd"/>
    <path d="M169.424,37.496 C191.157,38.086 206.421,41.637 206.421,41.637 C206.421,41.637 205.884,46.122 204.709,53.344 C194.991,54.473 194.835,66.276 194.835,66.276 C194.835,66.276 192.569,83.265 188.338,92.268 C181.674,106.412 156.098,108.983 156.098,108.983 C155.698,109.037 155.318,109.030 154.919,109.073 C159.016,109.538 163.393,109.596 168.007,108.983 C168.007,108.983 193.583,106.412 200.247,92.268 C204.477,83.265 206.743,66.276 206.743,66.276 C206.743,66.276 206.900,54.473 216.619,53.344 C217.793,46.122 218.330,41.637 218.330,41.637 C218.330,41.637 197.290,36.739 169.424,37.496 Z" id="path-6" class="cls-4" fill-rule="evenodd"/>
    <path d="M172.409,132.754 C172.409,132.754 186.368,132.754 186.368,132.754 C189.058,132.754 191.239,133.470 191.239,134.353 C191.239,135.237 189.058,135.953 186.368,135.953 C186.368,135.953 185.717,135.953 185.717,135.953 C183.026,135.953 180.844,136.669 180.844,137.553 C180.844,138.436 183.026,139.153 185.717,139.153 C185.717,139.153 215.722,139.153 215.722,139.153 C218.414,139.153 220.595,139.869 220.595,140.752 C220.595,141.635 218.414,142.353 215.722,142.353 C215.722,142.353 179.664,142.353 179.664,142.353 C179.664,142.353 140.031,142.353 140.031,142.353 C137.341,142.353 135.158,141.635 135.158,140.752 C135.158,139.869 137.341,139.153 140.031,139.153 C140.031,139.153 148.359,139.153 148.359,139.153 C151.051,139.153 153.232,138.436 153.232,137.553 C153.232,136.669 151.051,135.953 148.359,135.953 C148.359,135.953 108.728,135.953 108.728,135.953 C106.036,135.953 103.855,135.237 103.855,134.353 C103.855,133.470 106.036,132.754 108.728,132.754 C108.728,132.754 118.094,132.754 118.094,132.754 C118.094,132.754 172.409,132.754 172.409,132.754 Z" id="path-7" class="cls-9" fill-rule="evenodd"/>
    <path d="M78.037,175.825 C78.037,175.825 87.825,175.825 87.825,175.825 C89.712,175.825 91.241,176.900 91.241,178.228 C91.241,179.555 89.712,180.631 87.825,180.631 C87.825,180.631 87.368,180.631 87.368,180.631 C85.482,180.631 83.953,181.707 83.953,183.034 C83.953,184.362 85.482,185.437 87.368,185.437 C87.368,185.437 108.410,185.437 108.410,185.437 C110.297,185.437 111.826,186.513 111.826,187.840 C111.826,189.168 110.297,190.243 108.410,190.243 C108.410,190.243 83.125,190.243 83.125,190.243 C83.125,190.243 55.333,190.243 55.333,190.243 C53.446,190.243 51.916,189.168 51.916,187.840 C51.916,186.513 53.446,185.437 55.333,185.437 C55.333,185.437 61.173,185.437 61.173,185.437 C63.059,185.437 64.589,184.362 64.589,183.034 C64.589,181.707 63.059,180.631 61.173,180.631 C61.173,180.631 33.381,180.631 33.381,180.631 C31.495,180.631 29.965,179.555 29.965,178.228 C29.965,176.900 31.495,175.825 33.381,175.825 C33.381,175.825 39.949,175.825 39.949,175.825 C39.949,175.825 78.037,175.825 78.037,175.825 Z" id="path-8" class="cls-9" fill-rule="evenodd"/>
    <path d="M84.500,134.485 C87.586,134.485 90.088,133.271 90.088,131.773 C90.088,130.275 87.586,129.060 84.500,129.060 C84.500,129.060 67.375,129.060 67.375,129.060 C64.289,129.060 61.787,130.275 61.787,131.773 C61.787,133.271 64.289,134.485 67.375,134.485 C67.375,134.485 84.500,134.485 84.500,134.485 Z" id="path-9" class="cls-9" fill-rule="evenodd"/>
    <path d="M86.398,-0.008 C86.398,-0.008 90.991,-0.008 90.991,-0.008 C91.877,-0.008 92.594,0.709 92.594,1.592 C92.594,2.475 91.877,3.192 90.991,3.192 C90.991,3.192 90.778,3.192 90.778,3.192 C89.892,3.192 89.174,3.907 89.174,4.790 C89.174,5.675 89.892,6.391 90.778,6.391 C90.778,6.391 100.653,6.391 100.653,6.391 C101.540,6.391 102.257,7.107 102.257,7.991 C102.257,8.874 101.540,9.590 100.653,9.590 C100.653,9.590 88.785,9.590 88.785,9.590 C88.785,9.590 75.740,9.590 75.740,9.590 C74.855,9.590 74.137,8.874 74.137,7.991 C74.137,7.107 74.855,6.391 75.740,6.391 C75.740,6.391 78.481,6.391 78.481,6.391 C79.367,6.391 80.086,5.675 80.086,4.790 C80.086,3.907 79.367,3.192 78.481,3.192 C78.481,3.192 65.437,3.192 65.437,3.192 C64.552,3.192 63.833,2.475 63.833,1.592 C63.833,0.709 64.552,-0.008 65.437,-0.008 C65.437,-0.008 68.520,-0.008 68.520,-0.008 C68.520,-0.008 86.398,-0.008 86.398,-0.008 Z" id="path-10" class="cls-9" fill-rule="evenodd"/>
  </g>
</svg>
