<svg xmlns="http://www.w3.org/2000/svg" xmlns:xlink="http://www.w3.org/1999/xlink" preserveAspectRatio="xMidYMid" width="219" height="201" viewBox="0 0 219 201">
  <defs>
    <style>

      .cls-3 {
        fill: #fbb713;
      }

      .cls-4 {
        fill: #ffffff;
      }

      .cls-5 {
        fill: #020403;
        opacity: 0.25;
      }

      .cls-7 {
        fill: #ff3a2f;
      }

      .cls-8 {
        fill: #020403;
        opacity: 0.35;
      }

      .cls-10 {
        fill: #142a3b;
      }

      .cls-11 {
        fill: #020403;
      }
    </style>
  </defs>
  <g id="group-72svg">
    <path d="M72.673,145.302 C72.673,145.302 64.106,145.302 64.106,145.302 C48.898,145.302 37.432,133.070 37.432,116.851 C37.432,116.851 37.432,90.812 37.432,90.812 C37.432,88.804 39.071,87.179 41.099,87.179 C41.099,87.179 99.769,87.179 99.769,87.179 C101.797,87.179 103.437,88.804 103.437,90.812 C103.437,90.812 103.437,116.851 103.437,116.851 C103.437,132.006 89.062,145.302 72.673,145.302 Z" id="path-1" class="cls-3" fill-rule="evenodd"/>
    <path d="M47.991,127.431 C45.979,127.431 44.352,125.816 44.352,123.826 C44.352,123.826 44.352,97.787 44.352,97.787 C44.352,93.797 47.629,90.549 51.659,90.549 C53.670,90.549 55.297,92.164 55.297,94.154 C55.297,96.145 53.670,97.760 51.659,97.760 C51.659,97.760 51.630,123.826 51.630,123.826 C51.630,125.816 50.002,127.431 47.991,127.431 Z" id="path-2" class="cls-4" fill-rule="evenodd"/>
    <path d="M99.769,87.179 C99.769,87.179 85.836,87.179 85.836,87.179 C85.836,87.179 85.836,109.877 85.836,109.877 C85.836,125.031 71.460,138.327 55.070,138.327 C55.070,138.327 46.505,138.327 46.505,138.327 C46.423,138.327 46.345,138.316 46.264,138.316 C50.925,142.691 57.109,145.302 64.106,145.302 C64.106,145.302 72.672,145.302 72.672,145.302 C89.062,145.302 103.437,132.005 103.437,116.851 C103.437,116.851 103.437,90.812 103.437,90.812 C103.437,88.804 101.797,87.179 99.769,87.179 Z" id="path-3" class="cls-5" fill-rule="evenodd"/>
    <path d="M42.120,127.111 C42.120,127.111 31.570,127.111 31.570,127.111 C25.831,127.111 19.125,123.352 19.125,112.757 C19.125,112.757 19.125,105.194 19.125,105.194 C19.125,94.600 25.831,90.840 31.570,90.840 C31.570,90.840 40.955,90.840 40.955,90.840 C40.955,90.840 42.120,127.111 42.120,127.111 ZM31.570,98.050 C28.140,98.050 26.404,100.454 26.404,105.194 C26.404,105.194 26.404,112.757 26.404,112.757 C26.404,117.498 28.140,119.902 31.570,119.902 C31.570,119.902 34.608,119.902 34.608,119.902 C34.608,119.902 33.905,98.050 33.905,98.050 C33.905,98.050 31.570,98.050 31.570,98.050 Z" id="path-4" class="cls-3" fill-rule="evenodd"/>
    <path d="M195.111,174.363 C195.111,174.363 26.431,174.363 26.431,174.363 C24.404,174.363 22.764,172.739 22.764,170.731 C22.764,170.731 22.764,141.669 22.764,141.669 C22.764,139.661 24.404,138.037 26.431,138.037 C26.431,138.037 109.529,138.037 109.529,138.037 C109.529,138.037 129.696,58.118 129.696,58.118 C129.696,58.118 26.431,58.118 26.431,58.118 C24.404,58.118 22.764,56.494 22.764,54.486 C22.764,54.486 22.764,3.629 22.764,3.629 C22.764,1.620 24.404,-0.005 26.431,-0.005 C26.431,-0.005 195.111,-0.005 195.111,-0.005 C197.137,-0.005 198.777,1.620 198.777,3.629 C198.777,3.629 198.777,170.731 198.777,170.731 C198.777,172.739 197.137,174.363 195.111,174.363 Z" id="path-5" class="cls-7" fill-rule="evenodd"/>
    <path d="M27.799,58.118 C27.799,58.118 136.988,58.118 136.988,58.118 C136.988,58.118 140.614,47.656 140.614,47.656 C140.614,47.656 22.764,47.656 22.764,47.656 C22.764,47.656 22.764,54.485 22.764,54.485 C22.764,56.494 25.016,58.118 27.799,58.118 Z" id="path-6" class="cls-8" fill-rule="evenodd"/>
    <path d="M195.111,-0.005 C195.111,-0.005 177.655,-0.005 177.655,-0.005 C177.655,-0.005 177.655,160.269 177.655,160.269 C177.655,162.277 176.016,163.900 173.990,163.900 C173.990,163.900 22.764,163.900 22.764,163.900 C22.764,163.900 22.764,170.731 22.764,170.731 C22.764,172.739 24.404,174.363 26.431,174.363 C26.431,174.363 195.111,174.363 195.111,174.363 C197.137,174.363 198.777,172.739 198.777,170.731 C198.777,170.731 198.777,3.629 198.777,3.629 C198.777,1.620 197.137,-0.005 195.111,-0.005 Z" id="path-7" class="cls-5" fill-rule="evenodd"/>
    <path d="M74.101,72.649 C74.101,72.649 66.767,72.649 66.767,72.649 C66.767,72.649 66.767,58.118 66.767,58.118 C66.767,58.118 74.101,58.118 74.101,58.118 C74.101,58.118 74.101,72.649 74.101,72.649 Z" id="path-8" class="cls-10" fill-rule="evenodd"/>
    <path d="M183.964,166.807 C183.964,166.807 154.627,166.807 154.627,166.807 C152.600,166.807 150.960,165.183 150.960,163.175 C150.960,163.175 150.960,148.644 150.960,148.644 C150.960,146.636 152.600,145.011 154.627,145.011 C154.627,145.011 183.964,145.011 183.964,145.011 C185.991,145.011 187.630,146.636 187.630,148.644 C187.630,148.644 187.630,163.175 187.630,163.175 C187.630,165.183 185.991,166.807 183.964,166.807 Z" id="path-9" class="cls-11" fill-rule="evenodd"/>
    <path d="M180.442,159.834 C180.442,159.834 151.107,159.834 151.107,159.834 C149.080,159.834 147.440,158.208 147.440,156.200 C147.440,156.200 147.440,141.669 147.440,141.669 C147.440,139.661 149.080,138.037 151.107,138.037 C151.107,138.037 180.442,138.037 180.442,138.037 C182.469,138.037 184.110,139.661 184.110,141.669 C184.110,141.669 184.110,156.200 184.110,156.200 C184.110,158.208 182.469,159.834 180.442,159.834 Z" id="path-10" class="cls-10" fill-rule="evenodd"/>
    <path d="M75.040,185.477 C75.040,185.477 90.316,185.477 90.316,185.477 C93.262,185.477 95.648,186.571 95.648,187.921 C95.648,189.270 93.262,190.363 90.316,190.363 C90.316,190.363 89.606,190.363 89.606,190.363 C86.659,190.363 84.272,191.458 84.272,192.808 C84.272,194.158 86.659,195.251 89.606,195.251 C89.606,195.251 122.443,195.251 122.443,195.251 C125.389,195.251 127.776,196.345 127.776,197.695 C127.776,199.045 125.389,200.138 122.443,200.138 C122.443,200.138 82.980,200.138 82.980,200.138 C82.980,200.138 39.607,200.138 39.607,200.138 C36.662,200.138 34.274,199.045 34.274,197.695 C34.274,196.345 36.662,195.251 39.607,195.251 C39.607,195.251 48.720,195.251 48.720,195.251 C51.666,195.251 54.053,194.158 54.053,192.808 C54.053,191.458 51.666,190.363 48.720,190.363 C48.720,190.363 5.347,190.363 5.347,190.363 C2.402,190.363 0.014,189.270 0.014,187.921 C0.014,186.571 2.402,185.477 5.347,185.477 C5.347,185.477 15.597,185.477 15.597,185.477 C15.597,185.477 75.040,185.477 75.040,185.477 Z" id="path-11" class="cls-3" fill-rule="evenodd"/>
    <path d="M26.353,71.277 C26.353,71.277 31.270,71.277 31.270,71.277 C32.218,71.277 32.988,72.100 32.988,73.116 C32.988,74.131 32.218,74.954 31.270,74.954 C31.270,74.954 31.042,74.954 31.042,74.954 C30.093,74.954 29.325,75.778 29.325,76.793 C29.325,77.809 30.093,78.632 31.042,78.632 C31.042,78.632 41.614,78.632 41.614,78.632 C42.562,78.632 43.331,79.455 43.331,80.471 C43.331,81.487 42.562,82.310 41.614,82.310 C41.614,82.310 28.909,82.310 28.909,82.310 C28.909,82.310 14.944,82.310 14.944,82.310 C13.996,82.310 13.227,81.487 13.227,80.471 C13.227,79.455 13.996,78.632 14.944,78.632 C14.944,78.632 17.879,78.632 17.879,78.632 C18.827,78.632 19.595,77.809 19.595,76.793 C19.595,75.778 18.827,74.954 17.879,74.954 C17.879,74.954 3.913,74.954 3.913,74.954 C2.965,74.954 2.197,74.131 2.197,73.116 C2.197,72.100 2.965,71.277 3.913,71.277 C3.913,71.277 7.214,71.277 7.214,71.277 C7.214,71.277 26.353,71.277 26.353,71.277 Z" id="path-12" class="cls-10" fill-rule="evenodd"/>
    <path d="M201.368,117.990 C201.368,117.990 206.286,117.990 206.286,117.990 C207.233,117.990 208.003,118.813 208.003,119.828 C208.003,120.844 207.233,121.667 206.286,121.667 C206.286,121.667 206.057,121.667 206.057,121.667 C205.108,121.667 204.340,122.490 204.340,123.506 C204.340,124.522 205.108,125.345 206.057,125.345 C206.057,125.345 216.629,125.345 216.629,125.345 C217.578,125.345 218.347,126.168 218.347,127.184 C218.347,128.199 217.578,129.023 216.629,129.023 C216.629,129.023 203.923,129.023 203.923,129.023 C203.923,129.023 189.959,129.023 189.959,129.023 C189.011,129.023 188.242,128.199 188.242,127.184 C188.242,126.168 189.011,125.345 189.959,125.345 C189.959,125.345 192.894,125.345 192.894,125.345 C193.842,125.345 194.611,124.522 194.611,123.506 C194.611,122.490 193.842,121.667 192.894,121.667 C192.894,121.667 178.929,121.667 178.929,121.667 C177.982,121.667 177.212,120.844 177.212,119.828 C177.212,118.813 177.982,117.990 178.929,117.990 C178.929,117.990 182.229,117.990 182.229,117.990 C182.229,117.990 201.368,117.990 201.368,117.990 Z" id="path-13" class="cls-3" fill-rule="evenodd"/>
  </g>
</svg>
