<svg xmlns="http://www.w3.org/2000/svg" xmlns:xlink="http://www.w3.org/1999/xlink" preserveAspectRatio="xMidYMid" width="213" height="217" viewBox="0 0 213 217">
  <defs>
    <style>

      .cls-3 {
        fill: #2476ff;
      }

      .cls-4 {
        fill: #fbb713;
      }

      .cls-5 {
        fill: #000000;
        opacity: 0.35;
      }

      .cls-6 {
        fill: #142a3b;
      }

      .cls-7 {
        fill: #ff3a2f;
      }

      .cls-9 {
        fill: #efefef;
      }

      .cls-13 {
        fill: #ffffff;
      }

      .cls-17 {
        fill: #010101;
        opacity: 0.35;
      }
    </style>
  </defs>
  <g id="group-155svg">
    <path d="M149.015,150.175 C149.015,150.175 175.161,150.175 175.161,150.175 C179.768,150.175 183.502,153.136 183.502,156.788 C183.502,160.440 179.768,163.400 175.161,163.400 C175.161,163.400 174.011,163.400 174.011,163.400 C174.011,163.400 163.400,163.400 163.400,163.400 C158.793,163.400 155.059,166.361 155.059,170.014 C155.059,173.666 158.793,176.627 163.400,176.627 C163.400,176.627 188.647,176.627 188.647,176.627 C193.253,176.627 196.987,179.588 196.987,183.241 C196.987,186.893 193.253,189.853 188.647,189.853 C188.647,189.853 159.949,189.853 159.949,189.853 C159.949,189.853 155.136,189.610 155.136,189.610 C150.529,189.610 146.795,192.571 146.795,196.223 C146.795,199.876 150.529,202.837 155.136,202.837 C155.136,202.837 180.383,202.837 180.383,202.837 C184.989,202.837 188.723,205.798 188.723,209.450 C188.723,213.103 184.989,216.064 180.383,216.064 C180.383,216.064 88.580,216.306 88.580,216.306 C83.973,216.306 80.239,213.345 80.239,209.693 C80.239,206.041 83.973,203.080 88.580,203.080 C88.580,203.080 113.827,203.080 113.827,203.080 C118.433,203.080 122.167,200.119 122.167,196.466 C122.167,192.814 118.433,189.853 113.827,189.853 C113.827,189.853 51.089,189.853 51.089,189.853 C51.089,189.853 22.392,189.853 22.392,189.853 C17.785,189.853 14.051,186.893 14.051,183.241 C14.051,179.588 17.785,176.627 22.392,176.627 C22.392,176.627 47.638,176.627 47.638,176.627 C52.244,176.627 55.979,173.666 55.979,170.014 C55.979,166.361 52.244,163.400 47.638,163.400 C47.638,163.400 37.027,163.400 37.027,163.400 C37.027,163.400 8.330,163.400 8.330,163.400 C3.723,163.400 -0.011,160.440 -0.011,156.788 C-0.011,153.136 3.723,150.175 8.330,150.175 C8.330,150.175 62.023,150.175 62.023,150.175 C62.023,150.175 149.015,150.175 149.015,150.175 Z" id="path-1" class="cls-3" fill-rule="evenodd"/>
    <path d="M143.482,172.989 C143.482,172.989 66.351,172.989 66.351,172.989 C66.351,172.989 38.804,42.454 38.804,42.454 C38.804,42.454 171.030,42.454 171.030,42.454 C171.030,42.454 143.482,172.989 143.482,172.989 Z" id="path-2" class="cls-4" fill-rule="evenodd"/>
    <path d="M158.683,102.102 C151.544,110.613 143.814,117.439 133.447,121.919 C133.447,121.919 133.447,118.943 133.447,118.943 C133.447,118.943 84.092,118.943 84.092,118.943 C84.092,118.943 84.092,124.743 84.092,124.743 C70.524,120.657 60.753,114.211 51.888,103.677 C51.888,103.677 52.699,107.518 52.699,107.518 C61.023,118.882 70.560,126.194 84.092,131.109 C84.092,131.109 84.092,135.771 84.092,135.771 C84.092,135.771 133.447,135.771 133.447,135.771 C133.447,135.771 133.447,131.041 133.447,131.041 C142.177,127.850 148.764,123.073 155.539,117.000 C155.539,117.000 158.683,102.102 158.683,102.102 Z" id="path-3" class="cls-5" fill-rule="evenodd"/>
    <path d="M104.916,119.966 C63.291,119.966 29.425,86.418 29.425,45.183 C29.425,43.900 29.459,42.626 29.525,41.358 C29.525,41.358 29.701,37.938 29.701,37.938 C29.701,37.938 48.096,37.938 48.096,37.938 C48.096,37.938 48.096,45.148 48.096,45.148 C48.096,45.148 36.703,45.148 36.703,45.148 C36.703,45.160 36.703,45.171 36.703,45.183 C36.703,82.442 67.303,112.757 104.916,112.757 C142.529,112.757 173.129,82.442 173.129,45.183 C173.129,45.171 173.129,45.160 173.129,45.148 C173.129,45.148 167.242,45.148 167.242,45.148 C167.242,45.148 167.242,37.938 167.242,37.938 C167.242,37.938 180.138,37.938 180.138,37.938 C180.138,37.938 180.309,41.364 180.309,41.364 C180.373,42.630 180.407,43.901 180.407,45.183 C180.407,86.418 146.541,119.966 104.916,119.966 Z" id="path-4" class="cls-6" fill-rule="evenodd"/>
    <path d="M129.594,120.505 C129.594,120.505 80.239,120.505 80.239,120.505 C80.239,120.505 80.239,103.677 80.239,103.677 C80.239,103.677 129.594,103.677 129.594,103.677 C129.594,103.677 129.594,120.505 129.594,120.505 Z" id="path-5" class="cls-7" fill-rule="evenodd"/>
    <path d="M152.970,26.248 C148.545,26.248 144.496,27.922 141.356,30.691 C137.393,22.448 129.268,16.779 119.862,16.779 C107.690,16.779 97.655,26.257 96.037,38.553 C93.731,33.864 89.120,30.625 83.743,30.625 C81.033,30.625 78.523,31.473 76.387,32.880 C73.074,28.826 68.165,26.248 62.674,26.248 C52.700,26.248 44.615,34.725 44.615,45.181 C44.615,45.181 171.030,45.181 171.030,45.181 C171.030,34.725 162.944,26.248 152.970,26.248 Z" id="path-6" class="cls-3" fill-rule="evenodd"/>
    <path d="M104.918,39.847 C104.840,39.847 104.759,39.842 104.682,39.831 C103.685,39.703 102.981,38.798 103.113,37.813 C104.445,27.682 112.840,20.045 122.640,20.045 C130.143,20.045 136.898,24.404 140.272,31.422 C140.704,32.322 140.319,33.397 139.411,33.824 C138.499,34.253 137.417,33.871 136.986,32.972 C134.223,27.222 128.725,23.650 122.640,23.650 C114.662,23.650 107.819,29.938 106.720,38.278 C106.601,39.185 105.819,39.847 104.918,39.847 Z" id="path-7" class="cls-9" fill-rule="evenodd"/>
    <path d="M49.677,45.188 C48.759,45.188 47.972,44.504 47.870,43.580 C47.231,37.705 50.919,32.274 56.450,30.950 C57.431,30.716 58.412,31.310 58.647,32.278 C58.883,33.247 58.283,34.220 57.307,34.455 C53.546,35.355 51.044,39.112 51.488,43.194 C51.596,44.183 50.873,45.070 49.875,45.177 C49.807,45.185 49.741,45.188 49.677,45.188 Z" id="path-8" class="cls-9" fill-rule="evenodd"/>
    <path d="M211.890,41.544 C211.890,47.950 206.648,53.142 200.183,53.142 C193.717,53.142 188.475,47.950 188.475,41.544 C188.475,35.139 193.717,29.946 200.183,29.946 C206.648,29.946 211.890,35.139 211.890,41.544 Z" id="path-9" class="cls-3" fill-rule="evenodd"/>
    <path d="M25.378,26.387 C25.378,31.077 21.539,34.880 16.804,34.880 C12.070,34.880 8.231,31.077 8.231,26.387 C8.231,21.696 12.070,17.893 16.804,17.893 C21.539,17.893 25.378,21.696 25.378,26.387 Z" id="path-10" class="cls-3" fill-rule="evenodd"/>
    <path d="M18.941,24.230 C18.941,26.460 17.117,28.268 14.867,28.268 C12.616,28.268 10.792,26.460 10.792,24.230 C10.792,22.001 12.616,20.195 14.867,20.195 C17.117,20.195 18.941,22.001 18.941,24.230 Z" id="path-11" class="cls-13" fill-rule="evenodd"/>
    <path d="M208.333,38.045 C208.333,40.275 206.508,42.081 204.257,42.081 C202.007,42.081 200.183,40.275 200.183,38.045 C200.183,35.816 202.007,34.009 204.257,34.009 C206.508,34.009 208.333,35.816 208.333,38.045 Z" id="path-12" class="cls-13" fill-rule="evenodd"/>
    <path d="M67.155,7.249 C67.155,11.244 63.886,14.482 59.853,14.482 C55.820,14.482 52.550,11.244 52.550,7.249 C52.550,3.253 55.820,0.015 59.853,0.015 C63.886,0.015 67.155,3.253 67.155,7.249 Z" id="path-13" class="cls-3" fill-rule="evenodd"/>
    <path d="M174.817,11.072 C174.817,13.143 173.121,14.823 171.030,14.823 C168.937,14.823 167.241,13.143 167.241,11.072 C167.241,8.999 168.937,7.320 171.030,7.320 C173.121,7.320 174.817,8.999 174.817,11.072 Z" id="path-14" class="cls-3" fill-rule="evenodd"/>
    <path d="M148.297,150.175 C148.297,150.175 143.482,172.989 143.482,172.989 C143.482,172.989 66.351,172.989 66.351,172.989 C66.351,172.989 66.351,177.884 66.351,177.884 C66.351,177.884 141.944,180.467 141.944,180.467 C144.982,180.571 147.695,178.322 148.536,175.003 C148.536,175.003 158.683,150.175 158.683,150.175 C158.683,150.175 148.297,150.175 148.297,150.175 Z" id="path-15" class="cls-17" fill-rule="evenodd"/>
  </g>
</svg>
