<svg xmlns="http://www.w3.org/2000/svg" xmlns:xlink="http://www.w3.org/1999/xlink" preserveAspectRatio="xMidYMid" width="219" height="194" viewBox="0 0 219 194">
  <defs>
    <style>

      .cls-3 {
        fill: #fbb713;
      }

      .cls-10 {
        fill: #ff3a2f;
      }

      .cls-11 {
        fill: #020403;
        opacity: 0.35;
      }

      .cls-12 {
        fill: #142a3b;
      }

      .cls-14 {
        fill: #2476ff;
      }

      .cls-15 {
        fill: #ededed;
      }

      .cls-16 {
        fill: #020403;
        opacity: 0.25;
      }
    </style>
  </defs>
  <g id="group-163svg">
    <path d="M71.727,32.720 C74.614,32.720 76.955,31.723 76.955,30.494 C76.955,29.265 74.614,28.268 71.727,28.268 C71.727,28.268 55.706,28.268 55.706,28.268 C52.817,28.268 50.476,29.265 50.476,30.494 C50.476,31.723 52.817,32.720 55.706,32.720 C55.706,32.720 71.727,32.720 71.727,32.720 Z" id="path-1" class="cls-3" fill-rule="evenodd"/>
    <path d="M34.964,1.786 C34.964,1.786 37.486,1.786 37.486,1.786 C37.972,1.786 38.366,2.295 38.366,2.925 C38.366,3.555 37.972,4.064 37.486,4.064 C37.486,4.064 37.369,4.064 37.369,4.064 C36.882,4.064 36.488,4.576 36.488,5.204 C36.488,5.833 36.882,6.344 37.369,6.344 C37.369,6.344 42.787,6.344 42.787,6.344 C43.274,6.344 43.667,6.855 43.667,7.482 C43.667,8.113 43.274,8.623 42.787,8.623 C42.787,8.623 36.275,8.623 36.275,8.623 C36.275,8.623 22.964,8.623 22.964,8.623 C22.478,8.623 22.084,8.113 22.084,7.482 C22.084,6.855 22.478,6.344 22.964,6.344 C22.964,6.344 24.468,6.344 24.468,6.344 C24.953,6.344 25.348,5.833 25.348,5.204 C25.348,4.576 24.953,4.064 24.468,4.064 C24.468,4.064 17.310,4.064 17.310,4.064 C16.824,4.064 16.430,3.555 16.430,2.925 C16.430,2.295 16.824,1.786 17.310,1.786 C17.310,1.786 19.002,1.786 19.002,1.786 C19.002,1.786 34.964,1.786 34.964,1.786 Z" id="path-2" class="cls-3" fill-rule="evenodd"/>
    <path d="M185.608,186.263 C185.608,186.263 188.399,186.263 188.399,186.263 C188.937,186.263 189.374,186.828 189.374,187.525 C189.374,188.222 188.937,188.787 188.399,188.787 C188.399,188.787 188.269,188.787 188.269,188.787 C187.731,188.787 187.295,189.351 187.295,190.047 C187.295,190.744 187.731,191.308 188.269,191.308 C188.269,191.308 194.269,191.308 194.269,191.308 C194.807,191.308 195.243,191.874 195.243,192.570 C195.243,193.267 194.807,193.833 194.269,193.833 C194.269,193.833 187.059,193.833 187.059,193.833 C187.059,193.833 172.322,193.833 172.322,193.833 C171.784,193.833 171.347,193.267 171.347,192.570 C171.347,191.874 171.784,191.308 172.322,191.308 C172.322,191.308 173.987,191.308 173.987,191.308 C174.525,191.308 174.961,190.744 174.961,190.047 C174.961,189.351 174.525,188.787 173.987,188.787 C173.987,188.787 166.062,188.787 166.062,188.787 C165.523,188.787 165.088,188.222 165.088,187.525 C165.088,186.828 165.523,186.263 166.062,186.263 C166.062,186.263 167.935,186.263 167.935,186.263 C167.935,186.263 185.608,186.263 185.608,186.263 Z" id="path-3" class="cls-3" fill-rule="evenodd"/>
    <path d="M7.946,11.229 C8.987,11.229 9.831,10.614 9.831,9.855 C9.831,9.095 8.987,8.478 7.946,8.478 C7.946,8.478 2.168,8.478 2.168,8.478 C1.127,8.478 0.283,9.095 0.283,9.855 C0.283,10.614 1.127,11.229 2.168,11.229 C2.168,11.229 7.946,11.229 7.946,11.229 Z" id="path-4" class="cls-3" fill-rule="evenodd"/>
    <path d="M17.144,98.608 C17.144,98.608 12.178,98.608 12.178,98.608 C11.220,98.608 10.444,99.824 10.444,101.323 C10.444,102.820 11.220,104.035 12.178,104.035 C12.178,104.035 12.409,104.035 12.409,104.035 C13.366,104.035 14.142,105.252 14.142,106.751 C14.142,108.249 13.366,109.464 12.409,109.464 C12.409,109.464 1.732,109.464 1.732,109.464 C0.774,109.464 -0.002,110.679 -0.002,112.179 C-0.002,113.677 0.774,114.892 1.732,114.892 C1.732,114.892 14.563,114.892 14.563,114.892 C14.563,114.892 40.790,114.892 40.790,114.892 C41.747,114.892 42.524,113.677 42.524,112.179 C42.524,110.679 41.747,109.464 40.790,109.464 C40.790,109.464 37.827,109.464 37.827,109.464 C36.869,109.464 36.093,108.249 36.093,106.751 C36.093,105.252 36.869,104.035 37.827,104.035 C37.827,104.035 51.929,104.035 51.929,104.035 C52.888,104.035 53.664,102.820 53.664,101.323 C53.664,99.824 52.888,98.608 51.929,98.608 C51.929,98.608 48.597,98.608 48.597,98.608 C48.597,98.608 17.144,98.608 17.144,98.608 Z" id="path-5" class="cls-3" fill-rule="evenodd"/>
    <path d="M51.981,115.038 C50.796,115.038 49.836,114.191 49.836,113.146 C49.836,112.101 50.796,111.255 51.981,111.255 C51.981,111.255 58.556,111.255 58.556,111.255 C59.741,111.255 60.701,112.101 60.701,113.146 C60.701,114.191 59.741,115.038 58.556,115.038 C58.556,115.038 51.981,115.038 51.981,115.038 Z" id="path-6" class="cls-3" fill-rule="evenodd"/>
    <path d="M184.679,55.874 C184.679,55.874 194.426,55.874 194.426,55.874 C196.306,55.874 197.829,57.304 197.829,59.067 C197.829,60.829 196.306,62.259 194.426,62.259 C194.426,62.259 193.972,62.259 193.972,62.259 C192.092,62.259 190.569,63.688 190.569,65.452 C190.569,67.215 192.092,68.644 193.972,68.644 C193.972,68.644 214.927,68.644 214.927,68.644 C216.807,68.644 218.330,70.074 218.330,71.836 C218.330,73.600 216.807,75.028 214.927,75.028 C214.927,75.028 189.745,75.028 189.745,75.028 C189.745,75.028 138.272,75.028 138.272,75.028 C136.393,75.028 134.870,73.600 134.870,71.836 C134.870,70.074 136.393,68.644 138.272,68.644 C138.272,68.644 144.088,68.644 144.088,68.644 C145.968,68.644 147.491,67.215 147.491,65.452 C147.491,63.688 145.968,62.259 144.088,62.259 C144.088,62.259 116.411,62.259 116.411,62.259 C114.531,62.259 113.007,60.829 113.007,59.067 C113.007,57.304 114.531,55.874 116.411,55.874 C116.411,55.874 122.952,55.874 122.952,55.874 C122.952,55.874 184.679,55.874 184.679,55.874 Z" id="path-7" class="cls-3" fill-rule="evenodd"/>
    <path d="M149.059,43.710 C149.059,43.710 141.820,13.867 141.820,13.867 C141.820,13.867 141.320,8.269 141.320,8.269 C138.198,1.676 131.470,0.006 124.201,0.006 C116.933,0.006 110.409,1.741 107.076,8.269 C107.076,8.269 106.107,13.625 106.107,13.625 C106.107,13.625 98.866,43.949 98.866,43.949 C98.866,43.949 149.059,43.710 149.059,43.710 Z" id="path-8" class="cls-10" fill-rule="evenodd"/>
    <path d="M141.820,13.866 C141.820,13.866 141.320,8.269 141.320,8.269 C139.236,3.869 135.532,1.691 131.148,0.709 C131.148,0.709 131.401,3.547 131.401,3.547 C131.401,3.547 134.842,17.726 134.842,17.726 C136.783,25.726 130.686,33.427 122.381,33.467 C122.381,33.467 100.380,37.611 100.380,37.611 C100.380,37.611 98.866,43.949 98.866,43.949 C98.866,43.949 149.060,43.710 149.060,43.710 C149.060,43.710 141.820,13.866 141.820,13.866 Z" id="path-9" class="cls-11" fill-rule="evenodd"/>
    <path d="M124.488,85.247 C146.668,85.247 164.573,94.709 174.714,116.721 C174.714,116.721 161.010,59.832 161.010,59.832 C161.010,59.832 160.849,56.914 160.849,56.914 C154.140,41.675 139.696,37.823 124.086,37.823 C108.475,37.823 94.469,41.838 87.321,56.914 C87.321,56.914 87.321,59.832 87.321,59.832 C87.321,59.832 71.743,122.840 71.743,122.840 C79.153,100.999 99.944,85.247 124.488,85.247 Z" id="path-10" class="cls-12" fill-rule="evenodd"/>
    <path d="M161.010,59.832 C161.010,59.832 160.849,56.914 160.849,56.914 C158.055,50.567 153.905,46.215 148.901,43.275 C148.901,43.275 156.401,74.408 156.401,74.408 C157.304,78.161 153.237,81.245 149.878,79.293 C131.317,68.498 94.597,78.074 79.567,91.190 C79.567,91.190 71.743,122.840 71.743,122.840 C79.153,100.999 99.944,85.247 124.488,85.247 C146.668,85.247 164.573,94.709 174.714,116.721 C174.714,116.721 161.010,59.832 161.010,59.832 Z" id="path-11" class="cls-11" fill-rule="evenodd"/>
    <path d="M180.166,137.484 C180.166,167.947 155.238,192.641 124.488,192.641 C93.739,192.641 68.810,167.947 68.810,137.484 C68.810,107.022 93.739,82.328 124.488,82.328 C155.238,82.328 180.166,107.022 180.166,137.484 Z" id="path-12" class="cls-14" fill-rule="evenodd"/>
    <path d="M160.258,137.484 C160.258,157.056 144.243,172.920 124.488,172.920 C104.733,172.920 88.718,157.056 88.718,137.484 C88.718,117.914 104.733,102.049 124.488,102.049 C144.243,102.049 160.258,117.914 160.258,137.484 Z" id="path-13" class="cls-15" fill-rule="evenodd"/>
    <path d="M91.665,143.322 C91.665,123.752 107.679,107.887 127.434,107.887 C140.275,107.887 151.501,114.613 157.811,124.677 C152.624,111.446 139.678,102.049 124.488,102.049 C104.733,102.049 88.718,117.914 88.718,137.484 C88.718,144.335 90.713,150.709 94.112,156.130 C92.553,152.154 91.665,147.845 91.665,143.322 Z" id="path-14" class="cls-16" fill-rule="evenodd"/>
  </g>
</svg>
