<?xml version="1.0" encoding="utf-8"?>
<!-- Generator: Adobe Illustrator 15.0.0, SVG Export Plug-In . SVG Version: 6.00 Build 0)  -->
<!DOCTYPE svg PUBLIC "-//W3C//DTD SVG 1.1//EN" "http://www.w3.org/Graphics/SVG/1.1/DTD/svg11.dtd">
<svg version="1.1" id="Layer_1" xmlns="http://www.w3.org/2000/svg" xmlns:xlink="http://www.w3.org/1999/xlink" x="0px" y="0px"
	 width="291.873px" height="250.487px" viewBox="0 0 291.873 250.487" enable-background="new 0 0 291.873 250.487"
	 xml:space="preserve">
<g>
	<g>
		<path fill="#898D36" d="M255.405,120.192c6.921,16.908,11.974,28.814,14.465,27.737c2.489-1.079-8.805-25.358-8.805-25.358
			s16.856,25.521,18.778,24.497c1.92-1.032-15.184-22.799-15.184-22.799s18.465,17.63,19.929,14.632
			c1.463-2.996-18.158-17.372-18.158-17.372L255.405,120.192z"/>
		<path fill="#D3BBA2" d="M173.1,24.096c15.238-0.676,23.604,4.401,32.803,11.742C188.682,39.175,180.235,35.487,173.1,24.096z"/>
		<path fill="#D3BBA2" d="M270.902,16.528c-5.485,11.456-16.306,13.791-27.212,17.617C249.386,16.432,260.36,13.658,270.902,16.528z
			"/>
		<path fill="#A38568" d="M177.661,27.913c11.233,0.303,17.163,3.475,23.608,7.934C188.464,36.926,182.414,34.519,177.661,27.913z"
			/>
		<path fill="#A38568" d="M266.321,21.077c-7.298,6.995-13.021,8.841-19.87,10.23C253.883,22.463,259.21,20.073,266.321,21.077z"/>
		<path fill="#B68862" d="M207.853,26.38c-11.84-6.159-5.434-24.982-5.434-24.982c-7.179,0.924-12.505,29.82,5.627,36.252
			L207.853,26.38z"/>
		<path fill="#EFBA95" d="M205.068,28.592c-12.269-13.334-2.648-27.194-2.648-27.194c-7.179,0.924-13.016,29.626,5.627,36.252
			L205.068,28.592z"/>
		<path fill="#B68862" d="M199.668,31.001c-1.943-0.815-2.811-1.88-1.527-3.602c1.283-1.719,5.404-4.337,8.121-3.38
			c2.719,0.957,2.38,3.664,2.38,3.664L199.668,31.001z"/>
		<path fill="#EFBA95" d="M236.554,24.869c7.664-10.887-6.639-24.686-6.639-24.686c6.784-2.459,24.752,20.786,11.635,34.79
			L236.554,24.869z"/>
		<path fill="#B68862" d="M242.081,24.41c4.758-17.463-12.165-24.227-12.165-24.227c6.784-2.459,25.112,20.378,11.635,34.79
			L242.081,24.41z"/>
		<path fill="#B68862" d="M245.925,25.233c1.349-1.612,1.627-2.955-0.299-3.898c-1.925-0.94-6.775-1.383-8.745,0.708
			c-1.972,2.095-0.428,4.345-0.428,4.345L245.925,25.233z"/>
		<polygon fill="#B18E74" points="207.208,249.321 202.396,180.753 222.666,161.714 214.474,249.197 		"/>
		<polygon fill="#B18E74" points="78.372,221.02 92.852,151.737 122.813,188.218 89.141,226.938 90.533,249.795 83.2,249.921 		"/>
		<path fill="#F79D89" d="M103.898,226.648c-3.243,4.442-12.329,4.079-8.678,8.448c5.029,6.021,10.197-7.688,10.197-7.688
			L103.898,226.648z"/>
		<path fill="#F79D89" d="M119.477,227.364c2.929,4.067,11.658,4.403,7.98,7.913c-5.07,4.83-9.468-7.367-9.468-7.367
			L119.477,227.364z"/>
		<path fill="#F79D89" d="M112.008,227.197c0.262,5.563,3.855,12.039,0.044,12.208c-6.25,0.275-0.183-6.534-1.753-12.754
			C110.128,225.975,112.008,227.197,112.008,227.197z"/>
		<path fill="#E2765D" d="M86.445,202.572c-2.689,21.024,32.833,46.35,52.775,8.25L86.445,202.572z"/>
		<path fill="#F79D89" d="M90.645,211.881c3.612,16.256,26.063,30.502,41.141,6.61C120.738,221.288,100.611,217.773,90.645,211.881z
			"/>
		<path fill="#E5CCB2" d="M49.392,88.028c-11.161,13.034-19.654,125.958,82.17,125.355
			c101.825-0.603,116.027-88.331,115.498-119.214c-0.529-30.883-42.595-48.471-58.865-29.882
			c-16.273,18.586-44.213,28.387-76.417,14.278c-20.942-9.176-18.721-1.966-26.334-1.075c-3.807,0.448-7.295-2.925-11.851-1.702
			c-4.557,1.222-5.63,5.436-9.804,6.651C56.948,84.436,56.683,79.512,49.392,88.028z"/>
		<path fill="#EFD5BE" d="M81.715,79.025c-25.429,7.552-59.709,39.479-13.368,84.506c46.341,45.029,117.056,29.306,145.608-24.109
			c14.398-26.938-13.714-62.95-50.052-56.25C106.665,93.722,107.146,71.468,81.715,79.025z"/>
		<path fill="#F8E3CD" d="M87.932,84.549c-22.649,6.729-54.961,30.832-13.684,70.937c41.276,40.107,106.153,23.027,131.584-24.547
			c12.827-23.994-7.298-52.637-33.289-44.591C128.785,99.896,110.584,77.818,87.932,84.549z"/>
		<path fill="#D2B399" d="M131.323,199.454c-66.892,0.395-86.049-48.72-88.158-86.159c-2.435,37.554,11.68,101.74,88.11,101.286
			c101.823-0.602,116.314-89.528,115.785-120.411c-0.022-1.368-0.156-2.706-0.339-4.022
			C243.774,127.145,222.769,198.913,131.323,199.454z"/>
		<path fill="#E5CCB2" d="M44.819,221.595l15.792-63.643c11.965,14.731,21.615,22.131,35.132,30.731l-38.62,38.802l1.538,22.858
			l-8.388,0.144L44.819,221.595z"/>
		<polygon fill="#E5CCB2" points="180.091,249.788 174.944,181.223 199.045,163.265 188.032,249.65 		"/>
		<path fill="#E5CCB2" d="M23.098,28.215c13.341-5.945,41.249-13.291,47.154,52.97l7.194-2.983
			C68.154,53.476,65.661,8.243,22.29,25.561L23.098,28.215z"/>
		<path fill="#B18E74" d="M200.448,88.284c9.883,11.943,35.36,43.35,37.824,55.854c0,0,10.688-28.439,9.69-47.867L200.448,88.284z"
			/>
		<path fill="#E5CCB2" d="M179.252,76.647c16.504-16.303,16.43-47.373,21.646-49.953c7.186-3.559,9.565,3.319,22.159,2.288
			c11.809-0.968,14.377-7.138,20.491-6.071c9.948,1.736,4.302,35.574,42.488,75.548c4.661,4.88-18.186,31.808-63.312,5.568
			C189.594,84.765,179.252,76.647,179.252,76.647z"/>
		<path fill="#F8E3CD" d="M202.192,43.229c-7.826,9.106-5.857,45.407,55.344,67.817c0,0,25.854-0.234,31.057-11.646
			c-19.527-18.187-31.448-51.44-36.445-59.574C245.954,29.744,216.354,26.758,202.192,43.229z"/>
		<path fill="#E5CCB2" d="M235.141,110.776c-0.327-8.227,26.839,8.312,23.553,16.758
			C255.405,135.983,235.81,127.547,235.141,110.776z"/>
		<path fill="#F8E3CD" d="M236.424,111.708c-0.253-6.464,20.243,6.548,17.771,13.188
			C251.718,131.533,236.938,124.892,236.424,111.708z"/>
		<path fill="#9CA539" d="M248.506,114.802c-9.337-10.896-31.837-15.859-29.954-18.666c1.788-2.66,24.421,9.519,24.421,9.519
			s-22.601-13.9-19.016-16.09c3.307-2.018,17.383,12.988,17.383,12.988s-6.957-10.713-4.914-12.044
			c1.216-0.793,6.502,12.659,12.461,16.921L248.506,114.802z"/>
		<path fill="#AB7249" d="M248.184,93.009c6.278-4.735,14.2,5.096,22.246,7.243c5.541,1.482,15.152-5.979,20.189-1.489
			c5.034,4.491-5.554,32.135-23.537,28.629C249.096,123.885,235.759,102.374,248.184,93.009z"/>
		<path fill="#A16D46" d="M29.256,25.708c3.836,5.932,1.605,15.345-28.965,13.685C0.292,39.393,17.292,7.217,29.256,25.708z"/>
		<path fill="#CC885A" d="M21.436,29.428C22.929,37.862,18.698,40.742,0,39.519C0,39.519,18.36,12.04,21.436,29.428z"/>
		<path fill="#A38568" d="M206.062,52.352c5.686,1.961,11.274,2.423,14.184-2.502l2.958,3.342
			c-7.961,5.413-13.915,3.623-17.624,0.652C205.874,53.237,205.895,52.802,206.062,52.352z"/>
		<path fill="#A38568" d="M252.902,51.584c-5.569,1.522-10.913,1.559-13.227-3.566l-3.113,3.104
			c7.066,5.988,12.876,4.66,16.665,1.983C253.005,52.478,253.02,52.045,252.902,51.584z"/>
		<polygon fill="#89715C" points="179.475,241.581 180.091,249.788 188.032,249.65 189.082,241.418 		"/>
		<polygon fill="#89715C" points="206.631,241.116 207.208,249.321 214.474,249.197 215.247,240.969 		"/>
		<polygon fill="#89715C" points="81.906,242.173 83.2,249.921 90.533,249.795 90.06,242.032 		"/>
		<polygon fill="#89715C" points="48.809,242.741 50.272,250.487 58.661,250.344 58.138,242.581 		"/>
		<path fill="#C98453" d="M247.696,99.792c2.692-4.984,5.513-7.039,17.94,2.009c12.426,9.049,19.36,17.34,4.868,22.914
			C262.582,127.765,241.182,111.85,247.696,99.792z"/>
		<path fill="#C98453" d="M288.117,107.589c-1.509-7.074-6.669-7.681-21.141-2.326c-14.469,5.35-8.42,15.475-0.797,19.219
			C275.443,129.028,289.383,113.523,288.117,107.589z"/>
		<path fill="#804F2E" d="M257.989,114.897c-6.354-1.437-7.024-13.617-4.727-14.583C260.154,97.419,267.082,116.95,257.989,114.897z
			"/>
		<path fill="#804F2E" d="M270.828,115.562c0.287-5.548,10.43-7.873,11.573-6.077C285.832,114.859,270.412,123.501,270.828,115.562z
			"/>
		<path opacity="0.8" fill="#9E7F67" enable-background="new    " d="M79.386,123.211c0.847-4.647,0.299-18.529-11.779-20.792
			c0,0,18.453-4.021,18.917-12.983c0.296-5.728-2.194-10.521-9.427-13.787c-1.109-0.181-2.268-0.193-3.505,0.141
			c-4.557,1.222-5.63,5.436-9.804,6.651c-6.84,1.995-7.105-2.929-14.396,5.588c-4.896,5.714-9.274,30.643-4.063,56.783
			C68.487,145.991,78.545,127.823,79.386,123.211z"/>
		<path opacity="0.8" fill="#9E7F67" enable-background="new    " d="M56.768,28.502c2.893,6.6,9.451,20.07,11.785,20.938
			C65.71,41.256,62.129,33.665,56.768,28.502z"/>
		<path opacity="0.8" fill="#9E7F67" enable-background="new    " d="M106.55,179.293c-20.922-11.784-10.529-31.589-2.242-35.604
			c11.102-5.377,30.242,4.653,30.242,4.653s1.292-24.689,23.73-19.592c27.241,6.185,6.416,54.002-1.224,57.275
			C148.293,189.783,124.736,189.535,106.55,179.293z"/>
		<path opacity="0.8" fill="#9E7F67" enable-background="new    " d="M169.232,100.404c13.856-3.887,14.787-20.02,14.787-20.02
			s11.003,1.271,11.9-10.604c0.485-6.417-2.645-9.421-5.626-10.842c-0.81,2.04-1.71,4.063-2.722,6.033
			c-8.923,9.894-21.206,17.173-35.687,19.492C150.627,90.16,156.42,103.999,169.232,100.404z"/>
		<path opacity="0.8" fill="#9E7F67" enable-background="new    " d="M253.25,77.084c5.562,9.824,15.316,12.251,25.996,11.858
			c-7.765-10.154-13.96-22.019-18.646-31.749C254.788,61.145,248.129,68.044,253.25,77.084z"/>
	</g>
	<g>
		<g>
			<defs>
				<polygon id="SVGID_2_" points="1,1 2,1 1,2 				"/>
			</defs>
			<defs>
				<polygon id="SVGID_3_" points="-1,-1 -2,-1 -1,-2 				"/>
			</defs>
			<clipPath id="SVGID_4_">
				<use xlink:href="#SVGID_2_"  overflow="visible"/>
			</clipPath>
			<clipPath id="SVGID_5_" clip-path="url(#SVGID_4_)">
				<use xlink:href="#SVGID_3_"  overflow="visible"/>
			</clipPath>
			
				<linearGradient id="SVGID_6_" gradientUnits="userSpaceOnUse" x1="145.2485" y1="788.2388" x2="145.2484" y2="597.4298" gradientTransform="matrix(0.9999 -0.0171 -0.0171 -0.9999 13.4643 819.7962)">
				<stop  offset="0.0215" style="stop-color:#999999"/>
				<stop  offset="1" style="stop-color:#FFFFFF"/>
			</linearGradient>
			<path clip-path="url(#SVGID_5_)" fill="url(#SVGID_6_)" d="M273.829,127.255c13.769-3.301,21.158-24.598,16.791-28.492
				c-1.172-1.045-2.593-1.423-4.148-1.439c-2.548-2.579-4.951-5.407-7.226-8.381l0,0c-4.84-6.329-9.069-13.322-12.701-20.049
				c-0.021-0.035-0.04-0.07-0.058-0.105c-0.698-1.293-1.373-2.576-2.028-3.845c-0.046-0.084-0.091-0.174-0.137-0.264
				c-0.635-1.233-1.251-2.454-1.845-3.647c-0.045-0.098-0.092-0.19-0.141-0.283c-0.593-1.202-1.17-2.382-1.725-3.529
				c-3.799-7.888-6.609-14.375-8.465-17.395c-0.009-0.014-0.018-0.026-0.025-0.036c-0.877-2.9-1.628-5.48-2.346-7.709
				c8.687-2.957,16.667-6.242,21.126-15.552c-8.631-2.351-17.549-0.902-23.625,9.419c-0.289-0.491-0.598-0.907-0.915-1.283
				c0.778-1.123,0.91-2.094-0.019-2.864c-0.577-11.934-11.52-23.397-16.428-21.616c0,0,11.262,10.876,8.426,20.933
				c-0.562,0.235-1.075,0.521-1.46,0.927c-0.958,1.019-1.081,2.067-0.958,2.885c-2.969,1.58-6.62,3.544-12.866,4.055
				c-7.312,0.599-11.179-1.464-14.546-2.604c-0.223-0.834-0.791-1.846-2.249-2.358c-0.53-0.188-1.122-0.208-1.729-0.153
				c-7.15-7.639-2.113-22.469-2.113-22.469c-5.194,0.669-9.678,15.874-4.704,26.743c-0.404,0.951-0.047,1.674,0.83,2.266
				c-0.009,0.028-0.021,0.053-0.031,0.081c-6.805-4.296-14.269-6.885-25.414-6.392c5.728,9.142,12.31,13.311,23.583,12.882
				c-1.508,6.118-3.277,14.147-6.384,21.965c-0.002-0.003-0.004-0.004-0.006-0.004c-0.81,2.04-1.71,4.063-2.722,6.033
				c-0.556,0.614-1.124,1.221-1.705,1.817c-0.004,0.004-0.011,0.009-0.015,0.015c-0.581,0.591-1.172,1.177-1.777,1.747
				c-0.002,0.002-0.005,0.005-0.006,0.005c-8.527,8.053-19.515,13.88-32.184,15.908c0,0.002,0,0.004-0.002,0.004
				c-12.065,1.935-25.652,0.431-40.106-5.901c-20.942-9.176-18.721-1.966-26.334-1.075c-2.771,0.327-5.376-1.368-8.344-1.843h-0.001
				c0,0-0.001,0-0.003-0.002c-0.194-0.032-0.388-0.054-0.585-0.073c-2.682-7.867-4.901-17.338-7.957-26.134l0,0
				c-0.001-0.003-0.001-0.004-0.001-0.004c-1.412-4.067-3.01-7.983-4.914-11.531c-0.036-0.067-0.074-0.136-0.111-0.203
				c-0.431-0.794-0.878-1.569-1.342-2.322c-0.066-0.107-0.134-0.211-0.2-0.318c-0.449-0.715-0.913-1.409-1.395-2.083
				c-0.078-0.105-0.154-0.213-0.233-0.321c-0.489-0.667-0.996-1.312-1.521-1.932c-0.075-0.089-0.15-0.18-0.225-0.268
				c-0.559-0.645-1.139-1.261-1.741-1.849c-0.036-0.032-0.066-0.072-0.103-0.106c0.001,0.001,0.003,0.007,0.004,0.009
				c-6.461-6.226-15.536-8.894-29.044-4.83C17.515,11.767,4.493,32.116,1.124,37.913C0.417,38.897,0,39.519,0,39.519
				c6.349,0.418,10.998,0.345,14.352-0.241c16.924-1.537,18.012-8.563,15.002-13.402c14.079-4.146,34.952-1.9,40.572,51.957
				c-1.957,1.695-3.375,3.803-6.138,4.608c-6.84,1.995-7.105-2.929-14.396,5.588c-0.164,0.192-0.327,0.41-0.492,0.642
				c-0.052,0.078-0.105,0.167-0.159,0.25c-0.11,0.168-0.22,0.338-0.328,0.526c-0.062,0.104-0.122,0.218-0.182,0.329
				c-0.1,0.183-0.199,0.369-0.298,0.564c-0.063,0.129-0.126,0.26-0.189,0.392c-0.095,0.204-0.189,0.412-0.283,0.628
				c-0.063,0.144-0.125,0.289-0.187,0.438c-0.095,0.229-0.188,0.468-0.279,0.712c-0.058,0.151-0.117,0.301-0.175,0.459
				c-0.097,0.269-0.194,0.554-0.289,0.837c-0.049,0.148-0.1,0.289-0.149,0.44c-0.125,0.384-0.246,0.789-0.366,1.2
				c-0.018,0.062-0.037,0.115-0.053,0.18c-0.137,0.473-0.269,0.964-0.399,1.47c-0.044,0.174-0.087,0.36-0.131,0.538
				c-0.083,0.337-0.166,0.679-0.247,1.033c-0.052,0.228-0.101,0.46-0.151,0.692c-0.069,0.318-0.137,0.639-0.204,0.966
				c-0.052,0.257-0.103,0.519-0.152,0.78c-0.061,0.319-0.121,0.645-0.18,0.974c-0.048,0.274-0.095,0.551-0.142,0.829
				c-0.057,0.335-0.109,0.671-0.162,1.012c-0.044,0.29-0.09,0.579-0.132,0.875c-0.051,0.349-0.098,0.703-0.146,1.061
				c-0.04,0.297-0.08,0.586-0.118,0.888c-0.049,0.394-0.092,0.8-0.138,1.208c-0.041,0.373-0.083,0.746-0.122,1.13
				c-0.055,0.552-0.108,1.108-0.156,1.674c-0.029,0.343-0.053,0.695-0.08,1.042c-0.027,0.363-0.055,0.725-0.079,1.093
				c-0.014,0.226-0.029,0.45-0.041,0.675c-0.006-0.089-0.015-0.182-0.021-0.27c-1.169,18.037,1.505,42.201,13.04,62.412
				l-11.386,45.888l3.99,21.146l0,0l1.463,7.746l8.388-0.144l-1.538-22.858l24.87-24.984c0.074,0.044,0.149,0.086,0.222,0.13
				l-3.842,18.389l4.828,28.901l7.333-0.126l-1.392-22.856l4.557-5.241c2.261,2.377,4.94,4.403,7.886,5.917
				c0.269,0.181,0.541,0.356,0.815,0.521c-3.866,2.938-10.363,3.151-7.18,6.961c3.825,4.579,7.73-2.252,9.38-5.789
				c1.846,0.861,3.791,1.452,5.794,1.716c-0.7,4.649-3.125,8.59,1.659,8.382c2.915-0.129,1.498-3.951,0.555-8.232
				c2.073,0.013,4.185-0.345,6.291-1.131c1.542,3.259,4.868,8.751,8.558,5.235c3.104-2.962-2.622-3.671-6.247-6.264
				c0.137-0.075,0.273-0.162,0.41-0.237c5.469-2.223,10.849-6.741,15.54-14.344c15.198-0.618,28.353-3.271,39.72-7.426l2.596,34.574
				l0,0l0.616,8.207l7.94-0.138l1.05-8.232l0,0l5.46-42.83c3.063-1.845,5.963-3.813,8.693-5.893l3.396,48.421l0,0l0.576,8.205
				l7.267-0.124l0.772-8.229l0,0l6.224-66.48c7.468-9.693,12.873-20.26,16.729-30.646c0.021,0.095,0.053,0.201,0.073,0.296
				c0,0,2.757-7.343,5.341-17.111c5.836,4.538,12.88,5.304,14.942,0.798c5.307,12.716,9.22,21.013,11.314,20.104
				c1.889-0.818-4.16-15-7.186-21.789c0.339,0.126,0.677,0.253,1.021,0.366c4.822,7.12,14.694,21.331,16.138,20.562
				c1.463-0.786-8.129-13.621-12.771-19.679c0.002-0.001,0.006-0.001,0.01,0.002c0.377,0.074,0.745,0.113,1.114,0.161
				c5.438,4.945,15.336,13.512,16.392,11.349C285.436,137.168,279.216,131.62,273.829,127.255z"/>
		</g>
	</g>
</g>
</svg>
