<?xml version="1.0" encoding="utf-8"?>
<!-- Generator: Adobe Illustrator 15.0.0, SVG Export Plug-In . SVG Version: 6.00 Build 0)  -->
<!DOCTYPE svg PUBLIC "-//W3C//DTD SVG 1.1//EN" "http://www.w3.org/Graphics/SVG/1.1/DTD/svg11.dtd">
<svg version="1.1" id="Layer_1" xmlns="http://www.w3.org/2000/svg" xmlns:xlink="http://www.w3.org/1999/xlink" x="0px" y="0px"
	 width="33.628px" height="35.154px" viewBox="0 0 33.628 35.154" enable-background="new 0 0 33.628 35.154" xml:space="preserve">
<g>
	<g>
		<path opacity="0.1" fill-rule="evenodd" clip-rule="evenodd" d="M5.796,3.526c7.549-1.34,15.016-1.357,22.395,0
			c2.361,0.432,3.909,2.006,4.364,4.363c1.442,7.465,1.421,14.93,0,22.395c-0.448,2.357-1.974,4.145-4.364,4.363
			c-7.38,0.68-14.846,0.67-22.395,0c-2.391-0.211-4.096-1.979-4.364-4.363c-0.841-7.465-1.011-14.93,0-22.395
			C1.754,5.51,3.433,3.944,5.796,3.526z"/>
		<path fill-rule="evenodd" clip-rule="evenodd" fill="#E3E3E3" d="M5.06,1.827c7.549-1.338,15.016-1.355,22.396,0
			c2.36,0.434,3.908,2.006,4.364,4.363c1.441,7.465,1.42,14.93,0,22.397c-0.449,2.357-1.975,4.143-4.364,4.363
			c-7.38,0.678-14.847,0.668-22.396,0c-2.391-0.213-4.095-1.979-4.363-4.363c-0.842-7.467-1.012-14.932,0-22.397
			C1.019,3.811,2.696,2.245,5.06,1.827z"/>
		<path fill-rule="evenodd" clip-rule="evenodd" fill="#FFFFFF" d="M5.06,1.01c7.549-1.338,15.016-1.355,22.396,0
			c2.36,0.434,3.908,2.008,4.364,4.363c1.441,7.467,1.42,14.932,0,22.397c-0.449,2.357-1.975,4.145-4.364,4.363
			c-7.38,0.678-14.847,0.67-22.396,0c-2.391-0.211-4.095-1.979-4.363-4.363c-0.842-7.465-1.012-14.93,0-22.397
			C1.019,2.997,2.696,1.43,5.06,1.01z"/>
		<path fill-rule="evenodd" clip-rule="evenodd" fill="#E3E3E3" d="M6.729,3.18c6.77-1.201,13.465-1.217,20.082,0
			c2.117,0.389,3.505,1.799,3.913,3.912c1.294,6.693,1.274,13.389,0,20.083c-0.402,2.115-1.77,3.717-3.913,3.914
			c-6.618,0.607-13.313,0.6-20.082,0c-2.144-0.191-3.672-1.775-3.912-3.914c-0.754-6.693-0.907-13.387,0-20.083
			C3.105,4.959,4.61,3.555,6.729,3.18z"/>
		<path fill-rule="evenodd" clip-rule="evenodd" fill="#00ADD7" d="M6.235,2.592c6.77-1.201,13.465-1.215,20.082,0
			c2.117,0.389,3.505,1.799,3.914,3.912c1.293,6.695,1.273,13.389,0,20.083c-0.402,2.115-1.77,3.717-3.914,3.914
			c-6.617,0.607-13.313,0.6-20.082,0c-2.143-0.189-3.672-1.775-3.912-3.914c-0.754-6.693-0.907-13.387,0-20.083
			C2.612,4.372,4.116,2.967,6.235,2.592z"/>
		<path fill-rule="evenodd" clip-rule="evenodd" fill="#A9DDE7" d="M6.235,1.233c6.77-1.199,13.465-1.215,20.082,0
			c2.117,0.389,3.505,1.801,3.914,3.914c1.293,6.693,1.273,13.389,0,20.083c-0.402,2.113-1.77,3.715-3.914,3.912
			c-6.617,0.607-13.313,0.6-20.082,0c-2.143-0.189-3.672-1.773-3.912-3.912c-0.754-6.696-0.907-13.389,0-20.083
			C2.612,3.014,4.116,1.61,6.235,1.233z"/>
		<g>
			<path fill-rule="evenodd" clip-rule="evenodd" fill="#9EDAE7" d="M6.372,1.415c6.68-1.184,13.285-1.199,19.816,0
				c2.088,0.385,3.457,1.775,3.86,3.861c1.276,6.605,1.257,13.211,0,19.817c-0.397,2.086-1.746,3.666-3.86,3.861
				c-6.531,0.6-13.137,0.592-19.816,0c-2.115-0.188-3.624-1.752-3.861-3.861c-0.744-6.606-0.895-13.211,0-19.817
				C2.796,3.172,4.28,1.786,6.372,1.415z"/>
			<path fill-rule="evenodd" clip-rule="evenodd" fill="#95D6E7" d="M6.507,1.596c6.59-1.168,13.107-1.184,19.551,0
				c2.061,0.379,3.412,1.752,3.809,3.811c1.26,6.516,1.24,13.033,0,19.549c-0.392,2.059-1.723,3.617-3.809,3.811
				c-6.443,0.592-12.961,0.584-19.551,0c-2.087-0.186-3.574-1.729-3.81-3.811c-0.733-6.516-0.882-13.034,0-19.549
				C2.979,3.331,4.444,1.961,6.507,1.596z"/>
			<path fill-rule="evenodd" clip-rule="evenodd" fill="#88D3E7" d="M6.642,1.778c6.501-1.152,12.93-1.168,19.285,0
				c2.033,0.373,3.365,1.729,3.758,3.758c1.242,6.428,1.223,12.857,0,19.286c-0.387,2.029-1.699,3.568-3.758,3.758
				c-6.355,0.584-12.785,0.576-19.285,0c-2.059-0.184-3.525-1.705-3.758-3.758c-0.724-6.43-0.87-12.858,0-19.286
				C3.161,3.487,4.606,2.139,6.642,1.778z"/>
			<path fill-rule="evenodd" clip-rule="evenodd" fill="#80D0E7" d="M6.776,1.959c6.412-1.137,12.752-1.15,19.02,0
				c2.005,0.369,3.318,1.705,3.705,3.705c1.226,6.34,1.207,12.68,0,19.02c-0.381,2.002-1.676,3.52-3.705,3.707
				c-6.268,0.574-12.608,0.568-19.02,0C4.747,28.21,3.3,26.71,3.071,24.685c-0.714-6.34-0.859-12.678,0-19.02
				C3.345,3.645,4.771,2.315,6.776,1.959z"/>
			<path fill-rule="evenodd" clip-rule="evenodd" fill="#78CEE8" d="M6.912,2.141c6.321-1.121,12.573-1.135,18.753,0
				c1.977,0.363,3.273,1.682,3.654,3.654c1.208,6.25,1.189,12.502,0,18.754c-0.376,1.973-1.652,3.469-3.654,3.652
				c-6.18,0.568-12.432,0.561-18.753,0c-2.002-0.176-3.429-1.656-3.653-3.652c-0.705-6.252-0.848-12.502,0-18.754
				C3.528,3.803,4.934,2.493,6.912,2.141z"/>
			<path fill-rule="evenodd" clip-rule="evenodd" fill="#6BCBEA" d="M7.048,2.323c6.23-1.105,12.395-1.119,18.486,0
				c1.949,0.357,3.227,1.658,3.603,3.604c1.19,6.162,1.173,12.324,0,18.487c-0.37,1.947-1.629,3.422-3.603,3.602
				c-6.092,0.561-12.256,0.553-18.486,0c-1.975-0.174-3.381-1.633-3.603-3.602c-0.694-6.163-0.835-12.325,0-18.487
				C3.711,3.961,5.097,2.668,7.048,2.323z"/>
			<path fill-rule="evenodd" clip-rule="evenodd" fill="#61C9EB" d="M7.183,2.504c6.142-1.088,12.217-1.104,18.222,0
				c1.921,0.354,3.18,1.633,3.55,3.551c1.174,6.074,1.156,12.148,0,18.223c-0.365,1.918-1.605,3.371-3.55,3.549
				c-6.005,0.553-12.08,0.545-18.222,0c-1.945-0.172-3.332-1.609-3.551-3.549c-0.684-6.075-0.822-12.149,0-18.223
				C3.894,4.12,5.26,2.846,7.183,2.504z"/>
			<path fill-rule="evenodd" clip-rule="evenodd" fill="#55C8ED" d="M7.317,2.686c6.053-1.072,12.039-1.086,17.956,0
				c1.893,0.348,3.134,1.609,3.499,3.498c1.156,5.986,1.139,11.971,0,17.958c-0.36,1.891-1.583,3.322-3.499,3.498
				c-5.917,0.543-11.903,0.537-17.956,0c-1.916-0.17-3.283-1.586-3.498-3.498c-0.675-5.987-0.811-11.971,0-17.958
				C4.077,4.278,5.423,3.022,7.317,2.686z"/>
			<path fill-rule="evenodd" clip-rule="evenodd" fill="#4BC7EE" d="M7.452,2.868c5.963-1.057,11.861-1.07,17.69,0
				c1.864,0.344,3.087,1.586,3.446,3.447c1.14,5.896,1.123,11.793,0,17.69c-0.354,1.863-1.559,3.273-3.446,3.447
				c-5.829,0.535-11.728,0.529-17.69,0c-1.889-0.168-3.234-1.563-3.446-3.447c-0.664-5.897-0.799-11.793,0-17.69
				C4.261,4.436,5.587,3.2,7.452,2.868z"/>
			<path fill-rule="evenodd" clip-rule="evenodd" fill="#3EC3F2" d="M7.588,3.049c5.873-1.041,11.683-1.055,17.425,0
				c1.836,0.338,3.04,1.563,3.395,3.396c1.122,5.807,1.105,11.615,0,17.424c-0.35,1.834-1.535,3.223-3.395,3.395
				c-5.743,0.527-11.552,0.521-17.425,0c-1.86-0.166-3.187-1.539-3.396-3.395c-0.654-5.809-0.786-11.618,0-17.424
				C4.443,4.594,5.749,3.375,7.588,3.049z"/>
		</g>
		<path fill-rule="evenodd" clip-rule="evenodd" fill="#39C4F1" d="M7.723,3.233c5.783-1.025,11.504-1.039,17.158,0
			c1.809,0.332,2.994,1.537,3.343,3.342c1.105,5.721,1.089,11.439,0,17.159c-0.344,1.807-1.512,3.176-3.343,3.344
			c-5.655,0.52-11.375,0.514-17.158,0c-1.832-0.162-3.138-1.516-3.343-3.344c-0.645-5.719-0.775-11.438,0-17.159
			C4.626,4.752,5.912,3.553,7.723,3.233z"/>
		<path opacity="0.29" fill-rule="evenodd" clip-rule="evenodd" fill="#FFFFFF" d="M6.235,1.233c6.77-1.199,13.465-1.215,20.082,0
			c2.117,0.389,3.505,1.801,3.914,3.914c0.585,3.029,0.901,6.059,0.954,9.09C18.636,9.104,10.165,22.8,1.7,14.178
			c0.021-3.01,0.215-6.021,0.623-9.031C2.612,3.014,4.116,1.61,6.235,1.233z"/>
		<circle fill-rule="evenodd" clip-rule="evenodd" fill="#FFFFFF" cx="6.016" cy="4.796" r="2.647"/>
		<circle fill-rule="evenodd" clip-rule="evenodd" fill="#FFFFFF" cx="10.063" cy="2.34" r="1.316"/>
		<circle fill-rule="evenodd" clip-rule="evenodd" fill="#FFFFFF" cx="26.934" cy="26.931" r="1.58"/>
	</g>
	<g>
		<path fill-rule="evenodd" clip-rule="evenodd" fill="#00ADD7" d="M11.87,23.515c-0.759,0.313-1.506,0.5-2.201,0.246
			c-0.811-0.295-1.329-1.016-1.342-2.465l-0.004-0.01V7.438h0.004C8.325,6.45,8.652,5.79,9.27,5.422
			c0.583-0.346,1.296-0.33,2.12,0.004l0.049,0.02l0.087,0.049l12.782,7.381l0.102,0.059l0.069,0.059
			c0.607,0.521,0.864,1.098,0.823,1.715v0.006c-0.039,0.58-0.346,1.092-0.869,1.539l-0.07,0.061l-0.1,0.057L12.001,23.45
			l-0.07,0.041L11.87,23.515L11.87,23.515z M10.43,21.661c0.03,0.012,0.251-0.072,0.531-0.186l11.892-6.866l-12.29-7.096v13.772
			h-0.005C10.556,21.595,10.349,21.634,10.43,21.661L10.43,21.661z M10.407,7.348C10.36,7.375,10.394,7.37,10.44,7.37
			C10.436,7.344,10.433,7.333,10.407,7.348z"/>
		<path fill-rule="evenodd" clip-rule="evenodd" fill="#FFFFFF" d="M11.445,22.483c-1.067,0.438-1.986,0.57-2.003-1.197V7.438
			c-0.003-1.111,0.55-1.371,1.527-0.977l12.783,7.381c0.632,0.543,0.54,1.059-0.047,1.561L11.445,22.483z"/>
		<path opacity="0.1" fill-rule="evenodd" clip-rule="evenodd" d="M12.495,20.442c-1.067,0.438-1.986,0.568-2.002-1.197V6.315
			c-0.154-0.029-0.292-0.035-0.414-0.016C9.886,6.333,9.735,6.426,9.628,6.59C9.505,6.78,9.441,7.059,9.442,7.438v13.848
			c0.006,0.607,0.118,0.99,0.307,1.215c0.162,0.191,0.379,0.264,0.631,0.262c0.313-0.002,0.68-0.121,1.065-0.279l12.261-7.081
			c0.564-0.482,0.671-0.98,0.114-1.5L12.495,20.442z"/>
	</g>
</g>
</svg>
