<?xml version="1.0" encoding="utf-8"?>
<!-- Generator: Adobe Illustrator 15.0.0, SVG Export Plug-In . SVG Version: 6.00 Build 0)  -->
<!DOCTYPE svg PUBLIC "-//W3C//DTD SVG 1.1//EN" "http://www.w3.org/Graphics/SVG/1.1/DTD/svg11.dtd">
<svg version="1.1" id="Layer_1" xmlns="http://www.w3.org/2000/svg" xmlns:xlink="http://www.w3.org/1999/xlink" x="0px" y="0px"
	 width="280.758px" height="271.488px" viewBox="0 0 280.758 271.488" enable-background="new 0 0 280.758 271.488"
	 xml:space="preserve">
<g>
	<path opacity="0.1" fill-rule="evenodd" clip-rule="evenodd" fill="#010101" d="M140.386,240.391l-52.766,27.49l-0.025-0.06
		c-6.286,3.322-12.918,4.279-19.089,3.303v-0.006c-4.586-0.742-8.859-2.502-12.476-5.075h-0.074
		c-3.577-2.567-6.632-6.044-8.872-10.243c-3.068-5.756-4.433-12.756-3.263-20.337v-0.128l9.688-58.367L9.531,133.786l-0.015,0.007
		c-4.746-4.62-7.849-10.35-8.998-16.287H0.512c-0.816-4.191-0.661-8.53,0.5-12.69v-0.126c1.179-4.165,3.391-8.149,6.734-11.561
		c4.204-4.317,10.102-7.635,17.669-9.092l0.669-0.142l60.252-9.085l1.217-3.062c9.628-24.203,25.507-64.057,52.778-63.695
		c26.97,0.361,42.762,39.051,52.658,63.293l-0.068,0.021l1.404,3.423l60.359,9.104l0.67,0.142
		c7.567,1.457,13.478,4.759,17.663,9.092c3.289,3.383,5.536,7.382,6.725,11.687c1.158,4.139,1.323,8.492,0.51,12.69h-0.007
		c-1.144,5.937-4.246,11.667-8.993,16.287l-0.014-0.007l-43.986,43.183l9.688,58.367v0.128c1.178,7.594-0.2,14.601-3.262,20.331
		c-2.247,4.218-5.336,7.689-8.881,10.236c-3.622,2.593-7.941,4.364-12.621,5.094c-6.151,0.943-12.757,0.014-19.001-3.303
		l-0.026,0.06L140.386,240.391z"/>
	<path fill-rule="evenodd" clip-rule="evenodd" fill="#FFFFFF" d="M140.386,232.34L87.62,259.833l-0.025-0.062
		c-6.286,3.325-12.918,4.28-19.089,3.306v-0.009c-4.586-0.734-8.859-2.5-12.476-5.073h-0.074c-3.577-2.568-6.632-6.046-8.872-10.243
		c-3.068-5.757-4.433-12.756-3.263-20.339v-0.126l9.688-58.36L9.531,125.735l-0.015,0.006c-4.746-4.62-7.849-10.348-8.998-16.286
		H0.512c-0.816-4.192-0.661-8.525,0.5-12.683V96.64c1.179-4.165,3.391-8.151,6.734-11.561c4.204-4.319,10.102-7.635,17.669-9.092
		l0.669-0.141l60.252-9.085l1.217-3.063c9.628-24.195,25.507-64.056,52.778-63.696c26.97,0.368,42.762,39.053,52.658,63.295
		l-0.068,0.02l1.404,3.422l60.359,9.107l0.67,0.141c7.567,1.457,13.478,4.767,17.663,9.092c3.289,3.383,5.536,7.38,6.725,11.693
		c1.158,4.139,1.323,8.484,0.51,12.683h-0.007c-1.144,5.938-4.246,11.666-8.993,16.286l-0.014-0.006l-43.986,43.191l9.688,58.36
		v0.126c1.178,7.597-0.2,14.603-3.262,20.332c-2.247,4.22-5.336,7.688-8.881,10.235c-3.622,2.595-7.941,4.367-12.621,5.097
		c-6.151,0.941-12.757,0.012-19.001-3.306l-0.026,0.062L140.386,232.34z"/>
	<linearGradient id="SVGID_1_" gradientUnits="userSpaceOnUse" x1="140.3833" y1="239.0601" x2="140.3833" y2="19.702">
		<stop  offset="0" style="stop-color:#FFCB12"/>
		<stop  offset="1" style="stop-color:#F9EC32"/>
	</linearGradient>
	<path fill-rule="evenodd" clip-rule="evenodd" fill="url(#SVGID_1_)" d="M140.386,213.346L79.852,244.89
		c-10.217,5.469-21.381-2.487-19.442-14.91l11.112-66.918l-50.284-49.367c-7.295-7.088-6.037-18.608,7.342-21.194l69.479-10.476
		c6.518-13.091,22.276-65.508,42.073-65.241c19.803,0.268,35.521,51.073,42.575,65.241l69.479,10.476
		c13.385,2.586,14.641,14.106,7.341,21.194l-50.278,49.367l11.112,66.918c1.939,12.423-9.227,20.379-19.441,14.91L140.386,213.346z"
		/>
	<path fill-rule="evenodd" clip-rule="evenodd" fill="#D9B029" d="M140.386,200.181l-60.534,31.544
		c-7.649,4.099-15.845,0.656-18.646-6.537l-0.796,4.792c-1.938,12.423,9.226,20.379,19.442,14.91l60.534-31.544l60.532,31.544
		c10.215,5.469,21.381-2.487,19.441-14.91l-0.802-4.792c-2.808,7.206-10.991,10.636-18.64,6.537L140.386,200.181z"/>
	<path fill-rule="evenodd" clip-rule="evenodd" fill="#D9B029" d="M207.362,151.743l1.885,11.319l50.278-49.367
		c4.801-4.661,5.902-11.233,2.287-15.932c-0.621,0.975-1.392,1.905-2.273,2.768L207.362,151.743z"/>
	<path fill-rule="evenodd" clip-rule="evenodd" fill="#D9B029" d="M73.406,151.743l-52.175-51.212
		c-0.891-0.862-1.659-1.792-2.288-2.768c-3.61,4.699-2.499,11.271,2.294,15.932l50.284,49.367L73.406,151.743z"/>
	<path fill-rule="evenodd" clip-rule="evenodd" fill="#E4E4E4" d="M87.595,252.23L87.595,252.23L87.595,252.23z M56.03,250.454
		L56.03,250.454L56.03,250.454z M55.956,257.995L55.956,257.995L55.956,257.995z M87.62,259.833L87.62,259.833L87.62,259.833z
		 M193.149,259.833L193.149,259.833L193.149,259.833z M193.176,252.23L193.176,252.23L193.176,252.23z M87.595,252.23
		c-6.286,3.323-12.918,4.28-19.089,3.296c-4.586-0.74-8.859-2.499-12.55-5.072c-3.577-2.569-6.632-6.046-8.872-10.244
		c-1.791-3.363-3.002-7.153-3.47-11.231c-0.762,6.986,0.609,13.411,3.47,18.773c2.24,4.197,5.295,7.675,8.946,10.243
		c3.616,2.573,7.89,4.339,12.476,5.082c6.171,0.975,12.803,0.02,19.114-3.244l52.766-27.492l52.79,27.431
		c6.244,3.317,12.85,4.247,19.001,3.306c4.68-0.729,8.999-2.502,12.621-5.097c3.545-2.547,6.634-6.016,8.881-10.235
		c2.854-5.336,4.238-11.78,3.477-18.767c-0.468,4.092-1.685,7.868-3.477,11.226c-2.247,4.219-5.336,7.688-8.881,10.234
		c-3.622,2.602-7.941,4.374-12.621,5.096c-6.151,0.941-12.757,0.014-19.027-3.243l-52.764-27.492L87.595,252.23z"/>
	<path fill-rule="evenodd" clip-rule="evenodd" fill="#F9ED34" d="M182.706,82.025c-7.054-14.168-22.772-64.974-42.575-65.241
		c-19.797-0.267-35.556,52.15-42.073,65.241L28.579,92.501c-4.58,0.889-7.735,2.828-9.636,5.262l2.288,2.768l27.531,27.03
		c24.918-11.935,55.939-23.092,90.205-31.798c20.217-5.134,39.86-8.972,58.227-11.545L182.706,82.025z"/>
	<path fill-rule="evenodd" clip-rule="evenodd" fill="#F3C419" d="M211.455,176.333c-15.077,5.336-31.303,10.263-48.326,14.589
		c-36.076,9.159-70.288,14.214-98.775,15.29l-3.148,18.976c2.802,7.193,10.997,10.636,18.646,6.537l60.534-31.544l60.532,31.544
		c7.648,4.099,15.832,0.669,18.64-6.537L211.455,176.333z"/>
</g>
</svg>
