<?xml version="1.0" encoding="utf-8"?>
<!-- Generator: Adobe Illustrator 15.0.0, SVG Export Plug-In . SVG Version: 6.00 Build 0)  -->
<!DOCTYPE svg PUBLIC "-//W3C//DTD SVG 1.1//EN" "http://www.w3.org/Graphics/SVG/1.1/DTD/svg11.dtd">
<svg version="1.1" id="Layer_1" xmlns="http://www.w3.org/2000/svg" xmlns:xlink="http://www.w3.org/1999/xlink" x="0px" y="0px"
	 width="212.044px" height="205.037px" viewBox="0 0 212.044 205.037" enable-background="new 0 0 212.044 205.037"
	 xml:space="preserve">
<g>
	<path opacity="0.1" fill-rule="evenodd" clip-rule="evenodd" fill="#010101" d="M106.024,181.555l-39.848,20.758l-0.026-0.046
		c-4.733,2.514-9.747,3.236-14.408,2.493v-0.006c-3.462-0.556-6.692-1.886-9.421-3.83h-0.052c-2.709-1.939-5.015-4.561-6.706-7.736
		c-2.32-4.347-3.351-9.628-2.469-15.356v-0.093l7.322-44.081L7.196,101.038l-0.008,0.006c-3.583-3.49-5.93-7.814-6.792-12.303H0.39
		c-0.616-3.161-0.51-6.438,0.372-9.578v-0.101c0.897-3.144,2.568-6.153,5.088-8.733c3.177-3.257,7.628-5.762,13.346-6.865
		l0.501-0.101l45.511-6.867l0.916-2.312c7.273-18.272,19.268-48.38,39.86-48.105c20.379,0.274,32.298,29.491,39.768,47.805
		l-0.041,0.02l1.056,2.58l45.586,6.88l0.499,0.101c5.716,1.104,10.183,3.603,13.346,6.865c2.48,2.561,4.179,5.576,5.082,8.834
		c0.873,3.128,0.998,6.41,0.38,9.578h-0.006c-0.861,4.488-3.209,8.813-6.793,12.303l-0.006-0.006l-33.222,32.619l7.318,44.081v0.093
		c0.884,5.734-0.145,11.025-2.463,15.356c-1.701,3.183-4.027,5.803-6.708,7.729c-2.741,1.959-6.004,3.304-9.533,3.844
		c-4.642,0.716-9.629,0.014-14.349-2.493l-0.027,0.046L106.024,181.555z"/>
	<path fill-rule="evenodd" clip-rule="evenodd" fill="#FFFFFF" d="M106.024,175.471l-39.848,20.766l-0.026-0.048
		c-4.733,2.515-9.747,3.23-14.408,2.495v-0.006c-3.462-0.556-6.692-1.886-9.421-3.832h-0.052c-2.709-1.939-5.015-4.56-6.706-7.735
		c-2.32-4.346-3.351-9.634-2.469-15.357v-0.101l7.322-44.073L7.196,94.953l-0.008,0.013c-3.583-3.489-5.93-7.815-6.792-12.301H0.39
		c-0.616-3.163-0.51-6.438,0.372-9.581v-0.1c0.897-3.148,2.568-6.151,5.088-8.731c3.177-3.263,7.628-5.764,13.346-6.866l0.501-0.106
		l45.511-6.86l0.916-2.313c7.273-18.272,19.268-48.378,39.86-48.104c20.379,0.275,32.298,29.491,39.768,47.804l-0.041,0.013
		l1.056,2.589l45.586,6.873l0.499,0.106c5.716,1.103,10.183,3.597,13.346,6.866c2.48,2.554,4.179,5.576,5.082,8.831
		c0.873,3.122,0.998,6.411,0.38,9.581h-0.006c-0.861,4.485-3.209,8.812-6.793,12.301l-0.006-0.013l-33.222,32.626l7.318,44.073
		v0.101c0.884,5.736-0.145,11.025-2.463,15.351c-1.701,3.189-4.027,5.811-6.708,7.736c-2.741,1.959-6.004,3.296-9.533,3.844
		c-4.642,0.715-9.629,0.007-14.349-2.495l-0.027,0.048L106.024,175.471z"/>
	<linearGradient id="SVGID_1_" gradientUnits="userSpaceOnUse" x1="106.0269" y1="180.5483" x2="106.0268" y2="14.8813">
		<stop  offset="0" style="stop-color:#FFCB12"/>
		<stop  offset="1" style="stop-color:#F9EC32"/>
	</linearGradient>
	<path fill-rule="evenodd" clip-rule="evenodd" fill="url(#SVGID_1_)" d="M106.024,161.129l-45.718,23.822
		c-7.716,4.131-16.146-1.88-14.682-11.259l8.397-50.546L16.041,85.868c-5.503-5.356-4.56-14.054,5.542-16.006l52.477-7.917
		c4.92-9.889,16.829-49.475,31.777-49.268c14.95,0.2,26.824,38.572,32.158,49.268l52.473,7.917
		c10.106,1.952,11.05,10.649,5.541,16.006l-37.981,37.278l8.396,50.546c1.473,9.379-6.966,15.39-14.682,11.259L106.024,161.129z"/>
	<path fill-rule="evenodd" clip-rule="evenodd" fill="#D9B029" d="M106.024,151.188L60.306,175.01
		c-5.776,3.095-11.961,0.494-14.079-4.941l-0.603,3.624c-1.464,9.379,6.966,15.39,14.682,11.259l45.718-23.822l45.717,23.822
		c7.716,4.131,16.154-1.88,14.682-11.259l-0.6-3.624c-2.115,5.442-8.305,8.036-14.082,4.941L106.024,151.188z"/>
	<path fill-rule="evenodd" clip-rule="evenodd" fill="#D9B029" d="M156.609,114.604l1.418,8.543l37.981-37.278
		c3.623-3.517,4.457-8.484,1.73-12.035c-0.479,0.735-1.058,1.437-1.725,2.092L156.609,114.604z"/>
	<path fill-rule="evenodd" clip-rule="evenodd" fill="#D9B029" d="M55.44,114.604L16.033,75.925
		c-0.669-0.655-1.243-1.356-1.725-2.092c-2.729,3.551-1.892,8.519,1.732,12.035l37.981,37.278L55.44,114.604z"/>
	<path fill-rule="evenodd" clip-rule="evenodd" fill="#E4E4E4" d="M66.15,190.493L66.15,190.493L66.15,190.493z M42.321,189.149
		L42.321,189.149L42.321,189.149z M42.269,194.846L42.269,194.846L42.269,194.846z M66.176,196.236L66.176,196.236L66.176,196.236z
		 M145.871,196.236L145.871,196.236L145.871,196.236z M145.898,190.493L145.898,190.493L145.898,190.493z M66.15,190.493
		c-4.733,2.515-9.747,3.229-14.408,2.486c-3.462-0.554-6.692-1.885-9.473-3.83c-2.709-1.939-5.015-4.56-6.706-7.735
		c-1.357-2.54-2.267-5.402-2.621-8.484c-0.581,5.283,0.461,10.136,2.621,14.181c1.691,3.176,3.997,5.796,6.758,7.735
		c2.729,1.946,5.959,3.276,9.421,3.838c4.661,0.735,9.675,0.02,14.435-2.447l39.848-20.766l39.874,20.718
		c4.72,2.502,9.707,3.21,14.349,2.495c3.529-0.548,6.792-1.885,9.533-3.844c2.681-1.926,5.007-4.547,6.708-7.736
		c2.157-4.024,3.198-8.891,2.62-14.174c-0.354,3.089-1.267,5.944-2.62,8.477c-1.701,3.189-4.027,5.812-6.708,7.737
		c-2.741,1.957-6.004,3.296-9.533,3.844c-4.642,0.716-9.629,0.006-14.376-2.448l-39.847-20.765L66.15,190.493z"/>
	<path fill-rule="evenodd" clip-rule="evenodd" fill="#F9ED34" d="M137.995,61.945c-5.334-10.695-17.208-49.067-32.158-49.268
		c-14.948-0.207-26.857,39.379-31.777,49.268l-52.477,7.917c-3.463,0.668-5.845,2.133-7.274,3.971l1.725,2.092l20.801,20.413
		C55.653,87.324,79.08,78.9,104.955,72.322c15.271-3.878,30.105-6.78,43.979-8.718L137.995,61.945z"/>
	<path fill-rule="evenodd" clip-rule="evenodd" fill="#F3C419" d="M159.698,133.177c-11.38,4.025-23.641,7.748-36.491,11.012
		c-27.252,6.926-53.086,10.744-74.601,11.552l-2.379,14.328c2.118,5.436,8.303,8.036,14.079,4.941l45.718-23.822l45.717,23.822
		c5.777,3.095,11.967,0.501,14.082-4.941L159.698,133.177z"/>
</g>
</svg>
