<svg xmlns="http://www.w3.org/2000/svg" xmlns:xlink="http://www.w3.org/1999/xlink" preserveAspectRatio="xMidYMid" width="217" height="100" viewBox="0 0 217 100">
  <defs>
    <style>

      .cls-3 {
        fill: #2476ff;
      }

      .cls-4 {
        fill: #020403;
        opacity: 0.25;
      }

      .cls-5 {
        fill: #ffffff;
      }
    </style>
  </defs>
  <g id="group-96svg">
    <path d="M216.521,81.480 C217.337,73.285 216.785,64.650 214.504,55.796 C206.709,25.546 180.233,2.924 149.108,0.271 C117.426,-2.428 89.527,14.805 76.371,40.780 C66.814,33.232 54.299,29.257 40.816,31.032 C20.757,33.675 4.305,49.411 0.758,69.331 C0.064,73.219 -0.137,77.099 0.095,80.791 C0.741,91.082 9.471,99.078 19.782,99.078 C19.782,99.078 196.906,99.078 196.906,99.078 C206.951,99.078 215.526,91.475 216.521,81.480 Z" id="path-1" class="cls-3" fill-rule="evenodd"/>
    <path d="M214.503,55.796 C208.000,30.559 188.475,10.677 164.114,3.226 C171.028,11.523 176.230,21.328 179.015,32.136 C181.296,40.990 181.849,49.625 181.032,57.821 C180.037,67.816 171.462,75.419 161.418,75.419 C161.418,75.419 0.081,75.419 0.081,75.419 C-0.011,77.237 -0.015,79.038 0.095,80.791 C0.741,91.082 9.471,99.078 19.782,99.078 C19.782,99.078 196.906,99.078 196.906,99.078 C206.950,99.078 215.526,91.476 216.521,81.480 C217.337,73.285 216.785,64.650 214.503,55.796 Z" id="path-2" class="cls-4" fill-rule="evenodd"/>
    <path d="M96.350,46.115 C95.928,46.115 95.502,46.041 95.083,45.884 C93.214,45.185 92.265,43.102 92.965,41.233 C100.139,22.057 119.392,9.741 139.792,11.242 C141.783,11.390 143.276,13.124 143.128,15.115 C142.980,17.105 141.252,18.587 139.256,18.451 C122.043,17.163 105.791,27.581 99.735,43.765 C99.192,45.219 97.814,46.115 96.350,46.115 Z" id="path-3" class="cls-5" fill-rule="evenodd"/>
  </g>
</svg>
