<svg xmlns="http://www.w3.org/2000/svg" xmlns:xlink="http://www.w3.org/1999/xlink" preserveAspectRatio="xMidYMid" width="185" height="217" viewBox="0 0 185 217">
  <defs>
    <style>

      .cls-3 {
        fill: #0cb04a;
      }

      .cls-4 {
        fill: #020403;
        opacity: 0.35;
      }

      .cls-5 {
        fill: #ff3a2f;
      }

      .cls-6 {
        fill: #142a3b;
      }

      .cls-13 {
        fill: #ffffff;
      }
    </style>
  </defs>
  <g id="group-84svg">
    <path d="M30.216,81.829 C30.216,81.829 30.493,44.909 30.493,44.909 C30.493,40.873 33.950,37.601 38.221,37.601 C38.221,37.601 147.844,37.601 147.844,37.601 C152.115,37.601 155.572,40.873 155.572,44.909 C155.572,44.909 155.094,79.572 155.094,79.572 C155.094,79.572 155.094,79.572 155.094,79.572 " id="path-1" class="cls-3" fill-rule="evenodd"/>
    <path d="M147.844,37.601 C147.844,37.601 135.676,37.601 135.676,37.601 C135.676,37.601 135.261,67.672 135.261,67.672 C135.261,67.672 92.302,56.548 92.302,56.548 C92.302,56.548 30.308,69.569 30.308,69.569 C30.308,69.569 30.216,81.829 30.216,81.829 C30.216,81.829 155.094,79.572 155.094,79.572 C155.094,79.572 155.572,44.909 155.572,44.909 C155.572,40.873 152.115,37.601 147.844,37.601 Z" id="path-2" class="cls-4" fill-rule="evenodd"/>
    <path d="M93.020,64.107 C93.020,64.107 45.739,75.969 5.489,87.208 C0.128,88.710 -1.610,94.595 1.654,99.932 C15.549,122.599 55.799,184.776 73.041,207.712 C80.358,217.408 93.221,216.884 93.221,216.884 C93.221,216.884 105.362,217.160 113.014,207.075 C133.186,180.484 169.374,122.974 183.664,97.658 C186.399,92.808 182.808,87.505 177.068,85.945 C137.473,75.187 93.020,64.107 93.020,64.107 Z" id="path-3" class="cls-5" fill-rule="evenodd"/>
    <path d="M92.819,132.625 C90.822,132.625 89.204,131.007 89.204,129.011 C89.204,129.011 89.204,65.390 89.204,65.390 C89.204,63.394 90.822,61.776 92.819,61.776 C94.815,61.776 96.433,63.394 96.433,65.390 C96.433,65.390 96.433,129.011 96.433,129.011 C96.433,131.007 94.815,132.625 92.819,132.625 Z" id="path-4" class="cls-6" fill-rule="evenodd"/>
    <path d="M58.853,118.693 C58.853,126.770 54.759,133.311 49.707,133.311 C44.631,133.311 40.512,126.770 40.512,118.693 C40.512,110.618 44.631,104.077 49.707,104.077 C54.759,104.077 58.853,110.618 58.853,118.693 Z" id="path-5" class="cls-6" fill-rule="evenodd"/>
    <path d="M143.674,117.557 C143.674,125.612 139.579,132.173 134.511,132.173 C129.452,132.173 125.348,125.612 125.348,117.557 C125.348,109.472 129.452,102.936 134.511,102.936 C139.579,102.936 143.674,109.472 143.674,117.557 Z" id="path-6" class="cls-6" fill-rule="evenodd"/>
    <path d="M76.172,39.456 C76.172,39.456 76.172,5.909 76.172,5.909 C76.172,2.657 77.077,0.010 78.169,0.010 C78.169,0.010 106.621,0.010 106.621,0.010 C107.737,0.010 108.635,2.657 108.635,5.909 C108.635,5.909 108.635,37.333 108.635,37.333 C108.635,37.333 108.635,37.333 108.635,37.333 " id="path-7" class="cls-5" fill-rule="evenodd"/>
    <path d="M106.621,0.010 C106.621,0.010 96.735,0.010 96.735,0.010 C96.735,0.010 96.121,33.515 96.121,33.515 C96.121,33.515 76.172,34.174 76.172,34.174 C76.172,34.174 76.172,39.456 76.172,39.456 C76.172,39.456 108.634,37.333 108.634,37.333 C108.634,37.333 108.634,5.909 108.634,5.909 C108.634,2.657 107.737,0.010 106.621,0.010 Z" id="path-8" class="cls-4" fill-rule="evenodd"/>
    <path d="M105.936,12.305 C105.936,12.305 79.425,12.305 79.425,12.305 C77.428,12.305 75.810,10.687 75.810,8.691 C75.810,6.694 77.428,5.075 79.425,5.075 C79.425,5.075 105.936,5.075 105.936,5.075 C107.932,5.075 109.550,6.694 109.550,8.691 C109.550,10.687 107.932,12.305 105.936,12.305 Z" id="path-9" class="cls-6" fill-rule="evenodd"/>
    <path d="M177.068,85.945 C137.473,75.187 93.020,64.107 93.020,64.107 C93.020,64.107 92.757,64.173 92.302,64.288 C92.302,64.288 92.302,216.877 92.302,216.877 C92.871,216.894 93.221,216.884 93.221,216.884 C93.221,216.884 105.362,217.160 113.014,207.075 C133.186,180.484 169.374,122.974 183.664,97.658 C186.399,92.808 182.808,87.506 177.068,85.945 Z" id="path-10" class="cls-4" fill-rule="evenodd"/>
    <path d="M65.815,185.874 C64.628,185.874 63.466,185.290 62.774,184.218 C62.774,184.218 32.924,137.947 32.924,137.947 C31.842,136.270 32.324,134.032 34.003,132.950 C35.683,131.868 37.917,132.352 38.999,134.028 C38.999,134.028 68.849,180.299 68.849,180.299 C69.931,181.976 69.449,184.215 67.771,185.296 C67.165,185.687 66.486,185.874 65.815,185.874 Z" id="path-11" class="cls-13" fill-rule="evenodd"/>
  </g>
</svg>
