<svg xmlns="http://www.w3.org/2000/svg" xmlns:xlink="http://www.w3.org/1999/xlink" preserveAspectRatio="xMidYMid" width="130" height="218" viewBox="0 0 130 218">
  <defs>
    <style>

      .cls-3 {
        fill: #fbb713;
      }

      .cls-4 {
        fill: #010101;
        opacity: 0.25;
      }

      .cls-5 {
        fill: #142a3b;
      }

      .cls-8 {
        fill: #ff3a2f;
      }

      .cls-9 {
        fill: #010101;
        opacity: 0.35;
      }

      .cls-10 {
        fill: #ffffff;
      }
    </style>
  </defs>
  <g id="group-154svg">
    <path d="M93.778,20.402 C93.778,20.402 35.731,20.402 35.731,20.402 C35.731,20.402 0.009,51.658 0.009,51.658 C0.009,51.658 0.009,99.751 0.009,99.751 C0.009,99.751 0.009,191.353 0.009,191.353 C0.009,205.447 11.436,216.873 25.529,216.873 C25.529,216.873 103.981,216.873 103.981,216.873 C118.074,216.873 129.499,205.447 129.499,191.353 C129.499,191.353 129.499,51.658 129.499,51.658 C129.499,51.658 93.778,20.402 93.778,20.402 Z" id="path-1" class="cls-3" fill-rule="evenodd"/>
    <path d="M93.778,20.402 C93.778,20.402 33.179,20.402 33.179,20.402 C33.179,20.402 79.738,40.513 79.738,40.513 C90.598,45.204 98.180,55.712 98.242,67.543 C98.243,67.620 98.243,67.696 98.243,67.772 C98.243,67.772 98.243,177.957 98.243,177.957 C98.243,192.051 86.818,203.477 72.724,203.477 C72.724,203.477 3.070,203.477 3.070,203.477 C7.385,211.453 15.823,216.873 25.529,216.873 C25.529,216.873 103.980,216.873 103.980,216.873 C118.074,216.873 129.499,205.447 129.499,191.353 C129.499,191.353 129.499,51.658 129.499,51.658 C129.499,51.658 93.778,20.402 93.778,20.402 Z" id="path-2" class="cls-4" fill-rule="evenodd"/>
    <path d="M42.911,105.427 C42.911,105.427 6.765,105.427 6.765,105.427 C4.769,105.427 3.151,103.923 3.151,101.927 C3.151,99.932 4.769,98.428 6.765,98.428 C6.765,98.428 42.911,98.428 42.911,98.428 C44.907,98.428 46.525,99.932 46.525,101.927 C46.525,103.923 44.907,105.427 42.911,105.427 Z" id="path-3" class="cls-5" fill-rule="evenodd"/>
    <path d="M42.911,155.426 C42.911,155.426 6.765,155.426 6.765,155.426 C4.769,155.426 3.151,153.922 3.151,151.926 C3.151,149.930 4.769,148.426 6.765,148.426 C6.765,148.426 42.911,148.426 42.911,148.426 C44.907,148.426 46.525,149.930 46.525,151.926 C46.525,153.922 44.907,155.426 42.911,155.426 Z" id="path-4" class="cls-5" fill-rule="evenodd"/>
    <path d="M42.911,130.427 C42.911,130.427 6.765,130.427 6.765,130.427 C4.769,130.427 3.151,128.923 3.151,126.927 C3.151,124.930 4.769,123.426 6.765,123.426 C6.765,123.426 42.911,123.426 42.911,123.426 C44.907,123.426 46.525,124.930 46.525,126.927 C46.525,128.923 44.907,130.427 42.911,130.427 Z" id="path-5" class="cls-5" fill-rule="evenodd"/>
    <path d="M109.802,23.348 C109.802,23.348 19.708,23.348 19.708,23.348 C17.951,23.348 16.528,21.924 16.528,20.169 C16.528,20.169 16.528,3.173 16.528,3.173 C16.528,1.417 17.951,-0.006 19.708,-0.006 C19.708,-0.006 109.802,-0.006 109.802,-0.006 C111.559,-0.006 112.982,1.417 112.982,3.173 C112.982,3.173 112.982,20.169 112.982,20.169 C112.982,21.924 111.558,23.348 109.802,23.348 Z" id="path-6" class="cls-8" fill-rule="evenodd"/>
    <path d="M101.511,0.014 C103.078,2.002 104.051,4.478 104.051,7.205 C104.051,13.654 98.823,18.882 92.374,18.882 C92.374,18.882 19.274,18.882 19.274,18.882 C19.204,18.882 19.138,18.863 19.069,18.862 C21.206,21.574 24.482,23.348 28.204,23.348 C28.204,23.348 101.304,23.348 101.304,23.348 C107.754,23.348 112.981,18.119 112.981,11.670 C112.981,5.292 107.863,0.127 101.511,0.014 Z" id="path-7" class="cls-9" fill-rule="evenodd"/>
    <path d="M22.211,84.583 C19.217,84.583 16.790,82.156 16.790,79.160 C16.790,79.160 16.790,55.084 16.790,55.084 C16.790,55.084 35.138,35.657 35.138,35.657 C37.193,33.481 40.625,33.377 42.802,35.438 C44.980,37.492 45.076,40.925 43.021,43.100 C43.021,43.100 27.634,59.395 27.634,59.395 C27.634,59.395 27.634,79.160 27.634,79.160 C27.634,82.156 25.207,84.583 22.211,84.583 Z" id="path-8" class="cls-10" fill-rule="evenodd"/>
  </g>
</svg>
