<svg xmlns="http://www.w3.org/2000/svg" xmlns:xlink="http://www.w3.org/1999/xlink" preserveAspectRatio="xMidYMid" width="138" height="217" viewBox="0 0 138 217">
  <defs>
    <style>

      .cls-3 {
        fill: #ff3a2f;
      }

      .cls-5 {
        fill: #010101;
        opacity: 0.35;
      }

      .cls-7 {
        fill: #fbb713;
      }

      .cls-8 {
        fill: #010101;
        opacity: 0.25;
      }

      .cls-9 {
        fill: #ededed;
      }
    </style>
  </defs>
  <g id="group-123svg">
    <path d="M58.592,108.243 C58.592,108.243 -0.007,197.754 -0.007,197.754 C-0.007,197.754 27.656,193.568 27.656,193.568 C27.656,193.568 40.056,216.888 40.056,216.888 C40.056,216.888 69.355,112.845 69.355,112.845 C69.355,112.845 58.592,108.243 58.592,108.243 Z" id="path-1" class="cls-3" fill-rule="evenodd"/>
    <path d="M78.922,108.243 C78.922,108.243 137.520,197.754 137.520,197.754 C137.520,197.754 109.858,193.568 109.858,193.568 C109.858,193.568 97.458,216.888 97.458,216.888 C97.458,216.888 68.159,112.845 68.159,112.845 C68.159,112.845 78.922,108.243 78.922,108.243 Z" id="path-2" class="cls-3" fill-rule="evenodd"/>
    <path d="M46.384,126.890 C46.384,126.890 60.630,143.827 60.630,143.827 C60.630,143.827 67.961,117.792 67.961,117.792 C67.961,117.792 52.340,117.792 52.340,117.792 C52.340,117.792 46.384,126.890 46.384,126.890 Z" id="path-3" class="cls-5" fill-rule="evenodd"/>
    <path d="M73.819,132.945 C73.819,132.945 102.217,143.827 102.217,143.827 C102.217,143.827 85.173,117.792 85.173,117.792 C85.173,117.792 69.552,117.792 69.552,117.792 C69.552,117.792 73.819,132.945 73.819,132.945 Z" id="path-4" class="cls-5" fill-rule="evenodd"/>
    <path d="M130.489,61.442 C130.489,95.370 102.986,122.873 69.059,122.873 C35.131,122.873 7.628,95.370 7.628,61.442 C7.628,27.512 35.131,0.009 69.059,0.009 C102.986,0.009 130.489,27.512 130.489,61.442 Z" id="path-5" class="cls-7" fill-rule="evenodd"/>
    <path d="M85.596,2.326 C103.844,12.977 116.139,32.715 116.139,55.368 C116.139,89.296 88.635,116.798 54.708,116.798 C48.969,116.798 43.438,115.953 38.169,114.483 C47.251,119.785 57.783,122.874 69.059,122.874 C102.986,122.874 130.489,95.370 130.489,61.440 C130.489,33.253 111.479,9.556 85.596,2.326 Z" id="path-6" class="cls-8" fill-rule="evenodd"/>
    <path d="M82.513,93.499 C82.513,93.499 72.963,88.607 72.963,88.607 C70.728,87.462 68.074,87.490 65.863,88.683 C65.863,88.683 56.420,93.777 56.420,93.777 C50.854,96.779 44.263,92.096 45.265,85.852 C45.265,85.852 46.965,75.258 46.965,75.258 C47.364,72.778 46.516,70.262 44.700,68.529 C44.700,68.529 36.937,61.122 36.937,61.122 C32.363,56.755 34.779,49.040 41.026,48.063 C41.026,48.063 51.627,46.407 51.627,46.407 C54.108,46.020 56.240,44.437 57.327,42.173 C57.327,42.173 61.972,32.501 61.972,32.501 C64.711,26.801 72.796,26.714 75.655,32.355 C75.655,32.355 80.507,41.926 80.507,41.926 C81.641,44.166 83.805,45.704 86.295,46.038 C86.295,46.038 96.929,47.468 96.929,47.468 C103.196,48.311 105.776,55.973 101.296,60.435 C101.296,60.435 93.691,68.007 93.691,68.007 C91.913,69.778 91.119,72.312 91.570,74.782 C91.570,74.782 93.496,85.338 93.496,85.338 C94.632,91.558 88.141,96.381 82.513,93.499 Z" id="path-7" class="cls-9" fill-rule="evenodd"/>
  </g>
</svg>
