<svg xmlns="http://www.w3.org/2000/svg" xmlns:xlink="http://www.w3.org/1999/xlink" preserveAspectRatio="xMidYMid" width="217" height="217" viewBox="0 0 217 217">
  <defs>
    <style>

      .cls-3 {
        fill: #fbb713;
      }

      .cls-4 {
        fill: #ff3a2f;
      }

      .cls-5 {
        fill: #142a3b;
      }

      .cls-6 {
        fill: #0cb04a;
      }

      .cls-7 {
        fill: #ffffff;
      }

      .cls-8 {
        fill: #010101;
        opacity: 0.25;
      }
    </style>
  </defs>
  <g id="group-139svg">
    <path d="M0.033,108.455 C0.033,168.340 48.580,216.890 108.471,216.890 C168.359,216.890 216.908,168.340 216.908,108.455 C216.908,48.557 168.359,0.012 108.471,0.012 C48.580,0.012 0.033,48.557 0.033,108.455 C0.033,108.455 0.033,108.455 0.033,108.455 Z" id="path-1" class="cls-3" fill-rule="evenodd"/>
    <path d="M104.691,47.005 C104.691,47.005 206.214,88.419 213.100,137.046 C213.100,137.046 199.069,202.261 125.941,215.492 C125.941,215.492 92.682,162.920 87.355,60.598 C87.355,60.598 91.638,45.799 104.691,47.005 C104.691,47.005 104.691,47.005 104.691,47.005 Z" id="path-2" class="cls-4" fill-rule="evenodd"/>
    <path d="M67.380,56.866 C67.380,56.866 3.993,98.965 12.173,158.347 C12.173,158.347 -7.047,130.829 2.852,80.915 C2.852,80.915 11.331,32.996 58.351,38.744 C58.351,38.744 72.526,42.291 67.380,56.866 C67.380,56.866 67.380,56.866 67.380,56.866 Z" id="path-3" class="cls-5" fill-rule="evenodd"/>
    <path d="M83.746,23.678 C83.746,23.678 84.181,-5.257 127.207,1.198 C127.207,1.198 152.597,5.608 176.695,23.678 C176.695,23.678 115.593,10.769 101.392,32.502 C101.392,32.502 84.181,40.030 83.746,23.678 C83.746,23.678 83.746,23.678 83.746,23.678 Z" id="path-4" class="cls-6" fill-rule="evenodd"/>
    <path d="M61.872,53.742 C67.605,63.049 81.275,65.034 92.404,58.176 C103.539,51.316 107.912,38.215 102.171,28.905 C96.442,19.598 82.772,17.612 71.642,24.469 C60.512,31.330 56.134,44.435 61.872,53.742 C61.872,53.742 61.872,53.742 61.872,53.742 Z" id="path-5" class="cls-7" fill-rule="evenodd"/>
    <path d="M156.879,11.419 C176.885,31.092 189.306,58.458 189.306,88.738 C189.306,148.625 140.757,197.175 80.869,197.175 C63.467,197.175 47.037,193.052 32.462,185.768 C52.032,205.008 78.858,216.890 108.471,216.890 C168.359,216.890 216.908,168.340 216.908,108.455 C216.908,65.962 192.461,29.205 156.879,11.419 Z" id="path-6" class="cls-8" fill-rule="evenodd"/>
  </g>
</svg>
