<svg xmlns="http://www.w3.org/2000/svg" xmlns:xlink="http://www.w3.org/1999/xlink" preserveAspectRatio="xMidYMid" width="217" height="178" viewBox="0 0 217 178">
  <defs>
    <style>

      .cls-3 {
        fill: #0cb04a;
      }

      .cls-4 {
        fill: #020403;
        opacity: 0.35;
      }

      .cls-6 {
        fill: #ffffff;
      }

      .cls-7 {
        fill: #ff3a2f;
      }
    </style>
  </defs>
  <g id="group-9svg">
    <path d="M95.303,8.088 C127.296,-2.424 160.325,-3.013 194.575,8.088 C194.575,8.088 181.407,51.212 181.407,51.212 C181.407,51.212 216.861,167.273 216.861,167.273 C216.861,181.272 72.004,181.272 72.004,167.273 C72.004,167.273 108.471,49.760 108.471,49.760 C108.471,49.760 95.303,8.088 95.303,8.088 Z" id="path-1" class="cls-3" fill-rule="evenodd"/>
    <path d="M181.407,50.645 C181.407,50.645 194.575,8.053 194.575,8.053 C188.841,6.194 183.142,4.692 177.475,3.482 C177.475,3.482 165.341,43.999 165.341,43.999 C165.341,43.999 200.797,160.915 200.797,160.915 C200.797,173.655 109.754,173.260 72.045,165.794 C72.045,165.794 72.004,165.927 72.004,165.927 C72.004,181.992 216.861,182.238 216.861,166.173 C216.861,166.173 181.407,50.645 181.407,50.645 Z" id="path-2" class="cls-4" fill-rule="evenodd"/>
    <path d="M177.573,54.691 C177.316,54.691 177.053,54.663 176.791,54.606 C168.771,52.836 124.324,51.421 112.630,54.263 C110.674,54.733 108.735,53.544 108.263,51.605 C107.792,49.665 108.982,47.710 110.921,47.239 C123.809,44.106 169.208,45.528 178.349,47.546 C180.298,47.976 181.531,49.906 181.100,51.855 C180.728,53.542 179.233,54.691 177.573,54.691 Z" id="path-3" class="cls-4" fill-rule="evenodd"/>
    <path d="M96.242,142.618 C95.873,142.618 95.497,142.562 95.125,142.441 C93.228,141.825 92.188,139.786 92.804,137.887 C92.804,137.887 114.477,71.146 114.477,71.146 C115.093,69.249 117.121,68.206 119.033,68.824 C120.930,69.440 121.969,71.480 121.354,73.379 C121.354,73.379 99.680,140.119 99.680,140.119 C99.184,141.647 97.767,142.618 96.242,142.618 Z" id="path-4" class="cls-6" fill-rule="evenodd"/>
    <path d="M68.013,59.565 C68.013,59.565 9.612,39.343 9.612,39.343 C6.167,38.150 2.063,41.402 0.548,46.524 C0.548,46.524 0.548,46.524 0.548,46.524 C-0.969,51.647 0.706,56.608 4.245,57.482 C4.245,57.482 64.247,72.296 64.247,72.296 C64.247,72.296 68.013,59.565 68.013,59.565 Z" id="path-5" class="cls-7" fill-rule="evenodd"/>
    <path d="M51.147,68.962 C51.147,68.962 51.839,69.198 51.839,69.198 C51.839,69.198 64.247,72.262 64.247,72.262 C64.247,72.262 68.013,59.531 68.013,59.531 C68.013,59.531 61.780,57.372 61.780,57.372 C61.780,57.372 51.147,68.962 51.147,68.962 Z" id="path-6" class="cls-4" fill-rule="evenodd"/>
    <path d="M103.281,69.670 C103.281,69.670 71.992,56.818 71.992,56.818 C69.220,55.680 65.809,58.282 64.566,62.484 C64.566,62.484 62.226,70.393 62.226,70.393 C61.009,74.506 62.367,78.484 65.217,79.154 C65.217,79.154 98.183,86.894 98.183,86.894 C98.183,86.894 103.281,69.670 103.281,69.670 Z" id="path-7" class="cls-3" fill-rule="evenodd"/>
    <path d="M98.183,86.860 C98.183,86.860 103.281,69.636 103.281,69.636 C103.281,69.636 96.299,66.769 96.299,66.769 C96.299,66.769 87.263,84.297 87.263,84.297 C87.263,84.297 98.183,86.860 98.183,86.860 Z" id="path-8" class="cls-4" fill-rule="evenodd"/>
  </g>
</svg>
