<svg xmlns="http://www.w3.org/2000/svg" xmlns:xlink="http://www.w3.org/1999/xlink" preserveAspectRatio="xMidYMid" width="188" height="217" viewBox="0 0 188 217">
  <defs>
    <style>

      .cls-3 {
        fill: #fbb713;
      }

      .cls-4 {
        fill: #142a3b;
      }

      .cls-7 {
        fill: #ff3a2f;
      }

      .cls-8 {
        fill: #2476ff;
      }

      .cls-9 {
        fill: #ffffff;
      }
    </style>
  </defs>
  <g id="group-32svg">
    <path d="M55.780,80.011 C55.780,80.011 10.999,35.229 10.999,35.229 C10.999,35.229 37.473,8.753 37.473,8.753 C37.473,8.753 82.255,53.536 82.255,53.536 C82.255,53.536 55.780,80.011 55.780,80.011 Z" id="path-1" class="cls-3" fill-rule="evenodd"/>
    <path d="M37.494,59.472 C37.494,59.472 32.383,54.360 32.383,54.360 C32.383,54.360 56.886,29.857 56.886,29.857 C56.886,29.857 61.997,34.968 61.997,34.968 C61.997,34.968 37.494,59.472 37.494,59.472 Z" id="path-2" class="cls-4" fill-rule="evenodd"/>
    <path d="M50.168,72.147 C50.168,72.147 45.057,67.033 45.057,67.033 C45.057,67.033 69.559,42.531 69.559,42.531 C69.559,42.531 74.671,47.643 74.671,47.643 C74.671,47.643 50.168,72.147 50.168,72.147 Z" id="path-3" class="cls-4" fill-rule="evenodd"/>
    <path d="M24.820,46.798 C24.820,46.798 19.710,41.686 19.710,41.686 C19.710,41.686 44.211,17.182 44.211,17.182 C44.211,17.182 49.323,22.294 49.323,22.294 C49.323,22.294 24.820,46.798 24.820,46.798 Z" id="path-4" class="cls-4" fill-rule="evenodd"/>
    <path d="M87.678,43.714 C87.678,43.714 46.803,2.838 46.803,2.838 C45.723,1.758 46.615,-0.079 48.132,0.103 C48.132,0.103 64.002,2.008 64.002,2.008 C64.360,2.050 64.694,2.213 64.949,2.467 C64.949,2.467 104.554,42.074 104.554,42.074 C105.592,43.111 104.812,44.883 103.347,44.818 C103.347,44.818 88.746,44.184 88.746,44.184 C88.344,44.166 87.963,43.999 87.678,43.714 Z" id="path-5" class="cls-7" fill-rule="evenodd"/>
    <path d="M142.473,86.199 C142.473,92.117 137.676,96.912 131.759,96.912 C125.842,96.912 121.045,92.117 121.045,86.199 C121.045,80.282 125.842,75.485 131.759,75.485 C137.676,75.485 142.473,80.282 142.473,86.199 Z" id="path-6" class="cls-8" fill-rule="evenodd"/>
    <path d="M136.601,82.586 C136.601,85.260 134.433,87.427 131.759,87.427 C129.085,87.427 126.917,85.260 126.917,82.586 C126.917,79.910 129.085,77.744 131.759,77.744 C134.433,77.744 136.601,79.910 136.601,82.586 Z" id="path-7" class="cls-9" fill-rule="evenodd"/>
    <path d="M187.495,6.946 C187.495,10.775 184.392,13.878 180.564,13.878 C176.736,13.878 173.633,10.775 173.633,6.946 C173.633,3.119 176.736,0.015 180.564,0.015 C184.392,0.015 187.495,3.119 187.495,6.946 Z" id="path-8" class="cls-8" fill-rule="evenodd"/>
    <path d="M8.376,145.490 C8.376,139.266 19.645,125.193 19.645,125.193 C19.645,125.193 30.915,139.266 30.915,145.490 C30.915,151.715 25.870,156.761 19.645,156.761 C13.422,156.761 8.376,151.715 8.376,145.490 Z" id="path-9" class="cls-8" fill-rule="evenodd"/>
    <path d="M88.734,36.347 C88.271,36.347 87.809,36.170 87.456,35.818 C87.456,35.818 61.399,9.759 61.399,9.759 C60.692,9.053 60.692,7.908 61.399,7.202 C62.105,6.498 63.248,6.498 63.954,7.202 C63.954,7.202 90.012,33.263 90.012,33.263 C90.717,33.967 90.717,35.113 90.012,35.818 C89.658,36.170 89.196,36.347 88.734,36.347 Z" id="path-10" class="cls-9" fill-rule="evenodd"/>
    <path d="M60.850,133.526 C60.850,133.526 144.217,216.894 144.217,216.894 C144.217,216.894 157.736,203.375 157.736,203.375 C157.736,203.375 77.749,123.386 77.749,123.386 C77.749,123.386 59.160,83.391 59.160,83.391 C59.160,83.391 9.591,33.821 9.591,33.821 C9.591,33.821 0.015,43.397 0.015,43.397 C0.015,43.397 44.515,87.898 44.515,87.898 C44.515,87.898 60.850,133.526 60.850,133.526 Z" id="path-11" class="cls-7" fill-rule="evenodd"/>
  </g>
</svg>
