<svg xmlns="http://www.w3.org/2000/svg" xmlns:xlink="http://www.w3.org/1999/xlink" preserveAspectRatio="xMidYMid" width="218" height="212" viewBox="0 0 218 212">
  <defs>
    <style>

      .cls-3 {
        fill: #142a3b;
      }

      .cls-4 {
        fill: #020403;
        opacity: 0.35;
      }

      .cls-5 {
        fill: #ff3a2f;
      }

      .cls-6 {
        fill: #ededed;
      }

      .cls-8 {
        fill: #020403;
        opacity: 0.2;
      }
    </style>
  </defs>
  <g id="group-167svg">
    <path d="M79.507,211.818 C64.410,211.818 52.124,199.534 52.124,184.428 C52.124,184.428 52.124,133.899 52.124,133.899 C52.124,133.899 106.889,133.899 106.889,133.899 C106.889,133.899 106.889,184.428 106.889,184.428 C106.889,199.534 94.604,211.818 79.507,211.818 Z" id="path-1" class="cls-3" fill-rule="evenodd"/>
    <path d="M94.181,133.899 C94.181,133.899 94.181,175.955 94.181,175.955 C94.181,191.061 81.896,203.347 66.800,203.347 C63.950,203.347 61.202,202.906 58.616,202.094 C63.643,208.032 71.138,211.818 79.507,211.818 C94.604,211.818 106.889,199.534 106.889,184.428 C106.889,184.428 106.889,133.899 106.889,133.899 C106.889,133.899 94.181,133.899 94.181,133.899 Z" id="path-2" class="cls-4" fill-rule="evenodd"/>
    <path d="M111.794,148.982 C111.794,148.982 53.849,148.982 53.849,148.982 C24.169,148.982 0.014,124.824 0.014,95.136 C0.014,80.681 5.655,67.172 15.892,57.089 C25.893,46.933 39.400,41.300 53.849,41.300 C53.849,41.300 111.794,41.300 111.794,41.300 C111.794,41.300 111.794,41.300 111.794,41.300 " id="path-3" class="cls-5" fill-rule="evenodd"/>
    <path d="M168.928,148.982 C168.928,148.982 100.939,148.982 100.939,148.982 C100.939,148.982 100.939,41.300 100.939,41.300 C100.939,41.300 168.928,41.300 168.928,41.300 C168.928,41.300 168.928,148.982 168.928,148.982 Z" id="path-4" class="cls-6" fill-rule="evenodd"/>
    <path d="M90.821,41.300 C90.821,41.300 80.553,107.778 80.553,107.778 C79.151,116.861 71.331,123.565 62.140,123.565 C62.140,123.565 26.076,123.565 26.076,123.565 C18.638,123.565 11.613,121.629 5.312,118.271 C13.102,136.399 29.688,148.981 48.901,148.981 C48.901,148.981 100.939,148.981 100.939,148.981 C100.939,148.981 100.939,41.300 100.939,41.300 C100.939,41.300 90.821,41.300 90.821,41.300 Z" id="path-5" class="cls-4" fill-rule="evenodd"/>
    <path d="M147.749,41.300 C147.749,41.300 144.461,111.724 144.461,111.724 C143.931,123.093 134.559,132.037 123.179,132.037 C123.179,132.037 100.939,132.037 100.939,132.037 C100.939,132.037 100.939,148.981 100.939,148.981 C100.939,148.981 168.928,148.981 168.928,148.981 C168.928,148.981 168.928,41.300 168.928,41.300 C168.928,41.300 147.749,41.300 147.749,41.300 Z" id="path-6" class="cls-8" fill-rule="evenodd"/>
    <path d="M216.888,190.356 C216.888,190.356 153.846,145.320 153.846,145.320 C153.846,145.320 153.847,41.300 153.847,41.300 C153.847,41.300 216.888,0.005 216.888,0.005 C216.888,0.005 216.888,190.356 216.888,190.356 Z" id="path-7" class="cls-6" fill-rule="evenodd"/>
    <path d="M199.944,12.086 C199.944,12.086 199.944,121.724 199.944,121.724 C199.944,136.267 183.507,144.726 171.673,136.272 C171.673,136.272 153.847,123.537 153.847,123.537 C153.847,123.537 153.847,145.320 153.847,145.320 C153.847,145.320 216.888,190.356 216.888,190.356 C216.888,190.356 216.888,0.005 216.888,0.005 C216.888,0.005 199.944,12.086 199.944,12.086 Z" id="path-8" class="cls-8" fill-rule="evenodd"/>
  </g>
</svg>
