<svg xmlns="http://www.w3.org/2000/svg" xmlns:xlink="http://www.w3.org/1999/xlink" preserveAspectRatio="xMidYMid" width="100" height="217" viewBox="0 0 100 217">
  <defs>
    <style>

      .cls-3 {
        fill: #ff3a2f;
      }

      .cls-4 {
        fill: #020403;
        opacity: 0.35;
      }

      .cls-5 {
        fill: #fbb713;
      }

      .cls-6 {
        fill: #ffffff;
      }

      .cls-7 {
        fill: #020403;
        opacity: 0.25;
      }
    </style>
  </defs>
  <g id="group-149svg">
    <path d="M63.116,162.140 C63.291,162.765 63.263,204.541 63.263,204.541 C63.263,211.235 58.094,216.871 51.400,216.871 C51.400,216.871 47.950,216.871 47.950,216.871 C41.257,216.871 36.707,211.235 36.707,204.541 C36.707,204.541 36.305,162.765 36.479,162.140 C36.479,162.140 63.116,162.140 63.116,162.140 Z" id="path-1" class="cls-3" fill-rule="evenodd"/>
    <path d="M63.263,182.412 C63.263,182.412 63.291,162.765 63.116,162.140 C63.116,162.140 36.479,162.140 36.479,162.140 C36.305,162.765 36.707,182.412 36.707,182.412 C36.707,182.412 63.263,182.412 63.263,182.412 Z" id="path-2" class="cls-4" fill-rule="evenodd"/>
    <path d="M99.232,168.183 C99.869,163.757 98.670,44.043 98.670,44.043 C98.670,19.597 80.418,-0.010 55.975,-0.010 C55.975,-0.010 43.376,-0.010 43.376,-0.010 C18.931,-0.010 1.299,19.597 1.299,44.043 C1.299,44.043 -0.519,163.757 0.118,168.183 C0.118,168.183 99.232,168.183 99.232,168.183 Z" id="path-3" class="cls-5" fill-rule="evenodd"/>
    <path d="M12.290,84.043 C12.264,84.043 12.239,84.043 12.214,84.043 C10.218,84.002 8.634,82.351 8.673,80.355 C8.965,66.362 9.248,54.628 9.248,54.628 C9.246,37.406 18.314,22.354 32.910,15.436 C34.712,14.583 36.868,15.350 37.725,17.156 C38.579,18.958 37.810,21.113 36.005,21.969 C23.958,27.679 16.475,40.227 16.475,54.714 C16.473,54.805 16.191,66.526 15.902,80.504 C15.861,82.476 14.251,84.043 12.290,84.043 Z" id="path-4" class="cls-6" fill-rule="evenodd"/>
    <path d="M98.670,44.043 C98.670,19.597 80.418,-0.010 55.975,-0.010 C55.975,-0.010 43.375,-0.010 43.375,-0.010 C32.760,-0.010 23.436,3.697 16.277,9.881 C19.273,9.216 22.405,8.843 25.671,8.843 C25.671,8.843 38.270,8.843 38.270,8.843 C62.715,8.843 80.967,28.450 80.967,52.895 C80.967,52.895 81.834,139.693 81.700,168.183 C81.700,168.183 99.232,168.183 99.232,168.183 C99.869,163.757 98.670,44.043 98.670,44.043 Z" id="path-5" class="cls-7" fill-rule="evenodd"/>
    <path d="M63.263,134.176 C61.267,134.176 59.648,132.557 59.648,130.561 C59.648,130.561 59.648,46.466 59.648,46.466 C59.648,44.470 61.267,42.851 63.263,42.851 C65.259,42.851 66.878,44.470 66.878,46.466 C66.878,46.466 66.878,130.561 66.878,130.561 C66.878,132.557 65.259,134.176 63.263,134.176 Z" id="path-6" class="cls-4" fill-rule="evenodd"/>
    <path d="M32.281,134.176 C30.285,134.176 28.667,132.557 28.667,130.561 C28.667,130.561 28.667,46.466 28.667,46.466 C28.667,44.470 30.285,42.851 32.281,42.851 C34.277,42.851 35.897,44.470 35.897,46.466 C35.897,46.466 35.897,130.561 35.897,130.561 C35.897,132.557 34.277,134.176 32.281,134.176 Z" id="path-7" class="cls-4" fill-rule="evenodd"/>
  </g>
</svg>
