<svg xmlns="http://www.w3.org/2000/svg" xmlns:xlink="http://www.w3.org/1999/xlink" preserveAspectRatio="xMidYMid" width="218" height="193" viewBox="0 0 218 193">
  <defs>
    <style>

      .cls-3 {
        fill: #142a3b;
      }

      .cls-4 {
        fill: #020403;
        opacity: 0.35;
      }

      .cls-6 {
        fill: #fbb713;
      }

      .cls-7 {
        fill: #2476ff;
      }
    </style>
  </defs>
  <g id="group-109svg">
    <path d="M52.268,127.532 C52.268,127.532 16.380,127.532 16.380,127.532 C16.380,127.532 -0.006,158.665 -0.006,158.665 C-0.006,158.665 16.380,189.796 16.380,189.796 C16.380,189.796 52.268,189.796 52.268,189.796 C52.268,189.796 68.651,158.665 68.651,158.665 C68.651,158.665 52.268,127.532 52.268,127.532 ZM34.410,175.825 C24.869,175.825 17.130,168.127 17.130,158.628 C17.130,149.140 24.869,141.430 34.410,141.430 C43.950,141.430 51.690,149.140 51.690,158.628 C51.690,168.118 43.954,175.825 34.410,175.825 Z" id="path-1" class="cls-3" fill-rule="evenodd"/>
    <path d="M29.247,174.956 C22.245,172.761 17.130,166.323 17.130,158.628 C17.130,150.940 22.245,144.498 29.248,142.301 C27.608,141.787 25.897,141.430 24.086,141.430 C14.546,141.430 6.806,149.140 6.806,158.628 C6.806,168.127 14.546,175.825 24.086,175.825 C25.897,175.825 27.607,175.471 29.247,174.956 Z" id="path-2" class="cls-4" fill-rule="evenodd"/>
    <path d="M52.268,127.532 C52.268,127.532 41.944,127.532 41.944,127.532 C41.944,127.532 58.327,158.665 58.327,158.665 C58.327,158.665 41.944,189.796 41.944,189.796 C41.944,189.796 52.268,189.796 52.268,189.796 C52.268,189.796 68.651,158.665 68.651,158.665 C68.651,158.665 52.268,127.532 52.268,127.532 Z" id="path-3" class="cls-4" fill-rule="evenodd"/>
    <path d="M171.923,2.488 C174.318,0.093 188.929,-3.768 201.645,8.953 C201.645,8.953 207.077,14.380 207.077,14.380 C222.182,29.484 215.928,41.708 213.536,44.100 C213.536,44.100 127.451,115.587 127.451,115.587 C137.896,138.310 144.223,156.729 125.670,175.281 C109.596,191.356 86.724,196.474 66.112,190.777 C66.112,190.777 101.043,155.847 101.043,155.847 C103.305,153.586 102.965,149.588 100.298,146.920 C100.298,146.920 66.450,113.075 66.450,113.075 C63.781,110.409 59.789,110.066 57.530,112.327 C57.530,112.327 52.560,117.294 52.560,117.294 C52.560,117.294 22.080,117.294 22.080,117.294 C24.521,106.500 29.893,96.263 38.274,87.882 C56.825,69.329 75.283,75.698 98.002,86.141 C98.002,86.141 171.923,2.488 171.923,2.488 Z" id="path-4" class="cls-6" fill-rule="evenodd"/>
    <path d="M189.615,26.417 C194.332,31.136 197.068,36.049 189.719,43.403 C182.366,50.755 175.016,50.449 170.298,45.732 C165.583,41.013 165.277,33.664 172.630,26.313 C179.983,18.961 184.896,21.699 189.615,26.417 Z" id="path-5" class="cls-7" fill-rule="evenodd"/>
    <path d="M189.615,26.417 C189.024,25.825 188.431,25.268 187.831,24.757 C191.417,28.958 192.710,33.525 186.278,39.963 C179.844,46.393 173.413,46.964 168.745,43.846 C169.190,44.513 169.710,45.143 170.298,45.731 C175.016,50.450 182.366,50.755 189.719,43.403 C197.068,36.049 194.332,31.136 189.615,26.417 Z" id="path-6" class="cls-4" fill-rule="evenodd"/>
    <path d="M212.357,20.776 C215.151,29.362 211.728,35.585 210.094,37.217 C210.094,37.217 124.010,108.705 124.010,108.705 C134.454,131.427 140.783,149.847 122.229,168.398 C108.365,182.262 89.446,187.956 71.279,185.611 C71.279,185.611 66.112,190.777 66.112,190.777 C86.724,196.474 109.596,191.356 125.670,175.281 C144.223,156.729 137.896,138.309 127.451,115.587 C127.451,115.587 213.536,44.100 213.536,44.100 C215.579,42.057 220.393,32.831 212.357,20.776 Z" id="path-7" class="cls-4" fill-rule="evenodd"/>
    <path d="M99.065,145.688 C99.226,143.771 98.478,141.659 96.856,140.037 C96.856,140.037 63.008,106.191 63.008,106.191 C60.340,103.526 56.347,103.184 54.089,105.443 C54.089,105.443 49.119,110.413 49.119,110.413 C49.119,110.413 24.095,110.413 24.095,110.413 C23.296,112.675 22.606,114.968 22.080,117.294 C22.080,117.294 52.560,117.294 52.560,117.294 C52.560,117.294 57.530,112.327 57.530,112.327 C59.789,110.066 63.781,110.409 66.450,113.075 C66.450,113.075 99.065,145.688 99.065,145.688 Z" id="path-8" class="cls-4" fill-rule="evenodd"/>
  </g>
</svg>
