<svg xmlns="http://www.w3.org/2000/svg" xmlns:xlink="http://www.w3.org/1999/xlink" preserveAspectRatio="xMidYMid" width="217" height="169" viewBox="0 0 217 169">
  <defs>
    <style>

      .cls-3 {
        fill: #986b10;
      }

      .cls-4 {
        fill: #fbb713;
      }

      .cls-5 {
        fill: #010101;
        opacity: 0.15;
      }
    </style>
  </defs>
  <g id="group-146svg">
    <path d="M137.816,135.289 C137.816,135.289 88.362,168.611 88.362,168.611 C88.362,168.611 88.362,123.040 88.362,123.040 C88.362,123.040 137.816,135.289 137.816,135.289 Z" id="path-1" class="cls-3" fill-rule="evenodd"/>
    <path d="M92.611,125.309 C92.611,125.309 186.632,150.617 186.632,150.617 C186.632,150.617 216.862,-0.003 216.862,-0.003 C216.862,-0.003 178.206,24.160 178.206,24.160 C178.206,24.160 -0.012,135.539 -0.012,135.539 C-0.012,135.539 92.611,125.309 92.611,125.309 Z" id="path-2" class="cls-4" fill-rule="evenodd"/>
    <path d="M92.611,125.309 C92.611,125.309 216.862,-0.003 216.862,-0.003 C216.862,-0.003 178.206,24.160 178.206,24.160 C178.206,24.160 -0.012,135.539 -0.012,135.539 C-0.012,135.539 92.611,125.309 92.611,125.309 Z" id="path-3" class="cls-5" fill-rule="evenodd"/>
  </g>
</svg>
