<svg xmlns="http://www.w3.org/2000/svg" xmlns:xlink="http://www.w3.org/1999/xlink" preserveAspectRatio="xMidYMid" width="176" height="218" viewBox="0 0 176 218">
  <defs>
    <style>

      .cls-3 {
        fill: #142a3b;
      }

      .cls-5 {
        fill: #0cb04a;
      }

      .cls-9 {
        fill: #ff3a2f;
      }

      .cls-10 {
        fill: #a72425;
      }

      .cls-11 {
        fill: #fbb713;
      }

      .cls-13 {
        fill: #ffffff;
      }

      .cls-14 {
        fill: #020403;
        opacity: 0.35;
      }
    </style>
  </defs>
  <g id="group-147svg">
    <path d="M126.708,1.616 C126.708,1.616 132.732,-0.014 132.732,-0.014 C132.732,-0.014 137.517,3.992 137.517,3.992 C137.517,3.992 130.611,9.616 130.611,9.616 C130.611,9.616 126.708,1.616 126.708,1.616 Z" id="path-1" class="cls-3" fill-rule="evenodd"/>
    <path d="M131.319,6.410 C131.319,6.410 104.949,126.211 104.949,126.211 C104.949,126.211 137.517,3.992 137.517,3.992 C137.517,3.992 131.319,6.410 131.319,6.410 Z" id="path-2" class="cls-3" fill-rule="evenodd"/>
    <path d="M131.319,6.410 C131.319,6.410 104.949,126.211 104.949,126.211 C104.949,126.211 126.708,1.616 126.708,1.616 C126.708,1.616 131.319,6.410 131.319,6.410 Z" id="path-3" class="cls-5" fill-rule="evenodd"/>
    <path d="M165.769,14.211 C165.769,14.211 171.995,14.618 171.995,14.618 C171.995,14.618 175.231,19.954 175.231,19.954 C175.231,19.954 166.882,23.044 166.882,23.044 C166.882,23.044 165.769,14.211 165.769,14.211 Z" id="path-4" class="cls-3" fill-rule="evenodd"/>
    <path d="M168.587,20.234 C168.587,20.234 104.949,125.109 104.949,125.109 C104.949,125.109 175.231,19.954 175.231,19.954 C175.231,19.954 168.587,20.234 168.587,20.234 Z" id="path-5" class="cls-3" fill-rule="evenodd"/>
    <path d="M168.587,20.234 C168.587,20.234 104.949,125.109 104.949,125.109 C104.949,125.109 165.769,14.211 165.769,14.211 C165.769,14.211 168.587,20.234 168.587,20.234 Z" id="path-6" class="cls-5" fill-rule="evenodd"/>
    <path d="M110.719,190.117 C110.719,190.117 90.474,190.117 90.474,190.117 C90.474,190.117 84.751,190.117 84.751,190.117 C84.751,190.117 64.509,190.117 64.509,190.117 C64.509,190.117 50.449,216.866 50.449,216.866 C50.449,216.866 84.751,216.866 84.751,216.866 C84.751,216.866 90.474,216.866 90.474,216.866 C90.474,216.866 124.777,216.866 124.777,216.866 C124.777,216.866 110.719,190.117 110.719,190.117 Z" id="path-7" class="cls-9" fill-rule="evenodd"/>
    <path d="M63.558,188.390 C63.558,188.390 57.210,200.465 57.210,200.465 C67.675,205.981 79.310,209.079 91.583,209.079 C100.834,209.079 109.716,207.308 118.017,204.085 C118.017,204.085 109.769,188.390 109.769,188.390 C109.769,188.390 89.524,188.390 89.524,188.390 C89.524,188.390 83.800,188.390 83.800,188.390 C83.800,188.390 63.558,188.390 63.558,188.390 Z" id="path-8" class="cls-10" fill-rule="evenodd"/>
    <path d="M135.342,86.658 C134.900,86.658 134.470,86.683 134.032,86.694 C129.231,84.234 122.763,82.715 115.626,82.715 C105.881,82.715 97.376,85.538 92.688,89.745 C88.139,87.817 82.422,86.658 76.194,86.658 C75.753,86.658 75.322,86.683 74.885,86.694 C70.083,84.234 63.616,82.715 56.478,82.715 C45.935,82.715 36.841,86.017 32.469,90.805 C19.719,91.918 9.972,97.880 9.972,105.090 C9.972,113.091 21.967,119.577 36.763,119.577 C46.508,119.577 55.013,116.753 59.701,112.546 C64.251,114.475 69.967,115.632 76.194,115.632 C76.637,115.632 77.068,115.610 77.505,115.598 C82.306,118.058 88.774,119.577 95.910,119.577 C105.656,119.577 114.160,116.753 118.848,112.546 C123.398,114.475 129.114,115.632 135.342,115.632 C150.138,115.632 162.133,109.147 162.133,101.147 C162.133,93.145 150.138,86.658 135.342,86.658 Z" id="path-9" class="cls-11" fill-rule="evenodd"/>
    <path d="M170.009,112.639 C170.009,164.820 133.118,207.119 87.615,207.119 C42.110,207.119 5.220,164.820 5.220,112.639 C5.220,112.639 170.009,112.639 170.009,112.639 Z" id="path-10" class="cls-9" fill-rule="evenodd"/>
    <path d="M66.143,192.083 C65.460,192.083 64.768,191.891 64.155,191.484 C42.202,176.989 27.306,152.276 23.285,123.680 C23.006,121.703 24.385,119.874 26.362,119.597 C28.340,119.310 30.165,120.696 30.444,122.674 C34.175,149.217 47.915,172.098 68.137,185.452 C69.803,186.551 70.262,188.795 69.162,190.459 C68.467,191.513 67.317,192.083 66.143,192.083 Z" id="path-11" class="cls-13" fill-rule="evenodd"/>
    <path d="M19.013,112.639 C19.013,112.639 5.218,112.639 5.218,112.639 C5.218,153.162 27.468,187.710 58.718,201.129 C58.718,201.129 50.449,216.866 50.449,216.866 C50.449,216.866 56.671,216.866 56.671,216.866 C56.671,216.866 63.554,201.129 63.554,201.129 C37.538,187.710 19.013,153.162 19.013,112.639 Z" id="path-12" class="cls-14" fill-rule="evenodd"/>
    <path d="M170.008,112.639 C170.008,112.639 156.211,112.639 156.211,112.639 C156.211,113.310 156.192,113.974 156.183,114.639 C156.183,114.639 21.205,114.639 21.205,114.639 C21.205,114.639 155.870,121.918 155.870,121.918 C153.289,158.372 135.676,188.750 111.670,201.135 C111.670,201.135 118.551,216.866 118.551,216.866 C118.551,216.866 124.777,216.866 124.777,216.866 C124.777,216.866 116.510,201.135 116.510,201.135 C147.758,187.710 170.008,153.162 170.008,112.639 Z" id="path-13" class="cls-14" fill-rule="evenodd"/>
    <path d="M175.231,110.489 C175.231,112.782 173.373,114.639 171.080,114.639 C171.080,114.639 4.141,114.639 4.141,114.639 C1.849,114.639 -0.011,112.782 -0.011,110.489 C-0.011,110.489 -0.011,110.489 -0.011,110.489 C-0.011,108.194 1.849,106.339 4.141,106.339 C4.141,106.339 171.080,106.339 171.080,106.339 C173.373,106.339 175.231,108.194 175.231,110.489 C175.231,110.489 175.231,110.489 175.231,110.489 Z" id="path-14" class="cls-9" fill-rule="evenodd"/>
  </g>
</svg>
