<svg xmlns="http://www.w3.org/2000/svg" xmlns:xlink="http://www.w3.org/1999/xlink" preserveAspectRatio="xMidYMid" width="217" height="109" viewBox="0 0 217 109">
  <defs>
    <style>

      .cls-3 {
        fill: #0cb04a;
      }

      .cls-4 {
        fill: #ff3a2f;
      }

      .cls-5 {
        fill: #020403;
        opacity: 0.35;
      }

      .cls-6 {
        fill: #142a3b;
      }
    </style>
  </defs>
  <g id="group-46svg">
    <path d="M108.435,108.452 C168.323,108.452 216.872,59.901 216.872,0.013 C216.872,0.013 -0.001,0.013 -0.001,0.013 C-0.001,59.901 48.548,108.452 108.435,108.452 Z" id="path-1" class="cls-3" fill-rule="evenodd"/>
    <path d="M108.435,93.498 C159.430,93.498 200.769,52.158 200.769,1.163 C200.769,1.163 16.102,1.163 16.102,1.163 C16.102,52.158 57.441,93.498 108.435,93.498 Z" id="path-2" class="cls-4" fill-rule="evenodd"/>
    <path d="M180.273,1.163 C174.462,46.568 135.703,81.669 88.720,81.669 C75.482,81.669 62.906,78.862 51.524,73.845 C67.209,86.144 86.957,93.498 108.435,93.498 C159.430,93.498 200.769,52.158 200.769,1.163 C200.769,1.163 180.273,1.163 180.273,1.163 Z" id="path-3" class="cls-5" fill-rule="evenodd"/>
    <path d="M137.728,36.275 C137.728,32.612 142.850,26.800 142.850,26.800 C142.850,26.800 147.972,32.612 147.972,36.275 C147.972,39.938 145.679,42.908 142.850,42.908 C140.021,42.908 137.728,39.938 137.728,36.275 Z" id="path-4" class="cls-6" fill-rule="evenodd"/>
    <path d="M169.273,36.275 C169.273,32.612 174.395,26.800 174.395,26.800 C174.395,26.800 179.518,32.612 179.518,36.275 C179.518,39.938 177.224,42.908 174.395,42.908 C171.566,42.908 169.273,39.938 169.273,36.275 Z" id="path-5" class="cls-6" fill-rule="evenodd"/>
    <path d="M43.092,36.275 C43.092,32.612 48.214,26.800 48.214,26.800 C48.214,26.800 53.336,32.612 53.336,36.275 C53.336,39.938 51.043,42.908 48.214,42.908 C45.385,42.908 43.092,39.938 43.092,36.275 Z" id="path-6" class="cls-6" fill-rule="evenodd"/>
    <path d="M68.714,36.275 C68.714,32.612 73.836,26.800 73.836,26.800 C73.836,26.800 78.958,32.612 78.958,36.275 C78.958,39.938 76.665,42.908 73.836,42.908 C71.007,42.908 68.714,39.938 68.714,36.275 Z" id="path-7" class="cls-6" fill-rule="evenodd"/>
    <path d="M103.221,36.275 C103.221,32.612 108.343,26.800 108.343,26.800 C108.343,26.800 113.466,32.612 113.466,36.275 C113.466,39.938 111.172,42.908 108.343,42.908 C105.514,42.908 103.221,39.938 103.221,36.275 Z" id="path-8" class="cls-6" fill-rule="evenodd"/>
    <path d="M89.418,60.430 C89.418,56.767 94.540,50.955 94.540,50.955 C94.540,50.955 99.662,56.767 99.662,60.430 C99.662,64.093 97.369,67.063 94.540,67.063 C91.711,67.063 89.418,64.093 89.418,60.430 Z" id="path-9" class="cls-6" fill-rule="evenodd"/>
    <path d="M123.925,60.430 C123.925,56.767 129.047,50.955 129.047,50.955 C129.047,50.955 134.169,56.767 134.169,60.430 C134.169,64.093 131.876,67.063 129.047,67.063 C126.219,67.063 123.925,64.093 123.925,60.430 Z" id="path-10" class="cls-6" fill-rule="evenodd"/>
  </g>
</svg>
