<svg xmlns="http://www.w3.org/2000/svg" xmlns:xlink="http://www.w3.org/1999/xlink" preserveAspectRatio="xMidYMid" width="218" height="206" viewBox="0 0 218 206">
  <defs>
    <style>

      .cls-3 {
        fill: #fbb713;
      }

      .cls-4 {
        fill: #010101;
        opacity: 0.25;
      }

      .cls-5 {
        fill: #142a3b;
        opacity: 0.35;
      }

      .cls-6 {
        fill: #010101;
        opacity: 0.35;
      }

      .cls-8 {
        fill: #ff3a2f;
      }
    </style>
  </defs>
  <g id="group-103svg">
    <path d="M91.972,-0.007 C118.905,8.239 145.717,23.543 168.850,45.435 C191.979,67.316 208.147,92.677 216.866,118.153 C216.866,118.153 -0.008,205.208 -0.008,205.208 C-0.008,205.208 91.972,-0.007 91.972,-0.007 Z" id="path-1" class="cls-3" fill-rule="evenodd"/>
    <path d="M168.850,45.434 C160.883,37.895 152.458,31.195 143.763,25.238 C144.208,25.652 144.674,26.029 145.115,26.446 C168.245,48.327 198.653,87.930 207.372,113.407 C207.372,113.407 10.885,180.905 10.885,180.905 C10.885,180.905 -0.008,205.208 -0.008,205.208 C-0.008,205.208 216.866,118.153 216.866,118.153 C208.147,92.677 191.980,67.316 168.850,45.434 Z" id="path-2" class="cls-4" fill-rule="evenodd"/>
    <path d="M182.444,118.572 C181.064,118.572 179.747,117.778 179.146,116.439 C171.554,99.545 159.543,83.045 144.407,68.725 C129.258,54.395 111.803,43.018 93.932,35.827 C92.080,35.081 91.183,32.975 91.928,31.123 C92.675,29.272 94.774,28.370 96.632,29.119 C115.335,36.648 133.573,48.526 149.375,63.473 C165.193,78.437 177.765,95.729 185.739,113.476 C186.559,115.298 185.745,117.436 183.924,118.255 C183.443,118.471 182.940,118.572 182.444,118.572 Z" id="path-3" class="cls-5" fill-rule="evenodd"/>
    <path d="M115.470,83.850 C115.470,92.378 108.557,99.292 100.029,99.292 C91.501,99.292 84.588,92.378 84.588,83.850 C84.588,75.322 91.501,68.409 100.029,68.409 C108.557,68.409 115.470,75.322 115.470,83.850 Z" id="path-4" class="cls-6" fill-rule="evenodd"/>
    <path d="M82.917,143.627 C82.917,152.153 76.004,159.068 67.477,159.068 C58.949,159.068 52.036,152.153 52.036,143.627 C52.036,135.098 58.949,128.184 67.477,128.184 C76.004,128.184 82.917,135.098 82.917,143.627 Z" id="path-5" class="cls-6" fill-rule="evenodd"/>
    <path d="M110.723,88.596 C110.723,97.125 103.810,104.038 95.282,104.038 C86.755,104.038 79.842,97.125 79.842,88.596 C79.842,80.069 86.755,73.156 95.282,73.156 C103.810,73.156 110.723,80.069 110.723,88.596 Z" id="path-6" class="cls-8" fill-rule="evenodd"/>
    <path d="M78.170,143.627 C78.170,152.153 71.257,159.068 62.729,159.068 C54.202,159.068 47.289,152.153 47.289,143.627 C47.289,135.098 54.202,128.184 62.729,128.184 C71.257,128.184 78.170,135.098 78.170,143.627 Z" id="path-7" class="cls-8" fill-rule="evenodd"/>
    <path d="M137.124,136.422 C129.772,139.051 125.717,146.681 127.280,154.115 C127.280,154.115 155.431,142.814 155.431,142.814 C151.677,136.764 144.101,133.925 137.124,136.422 Z" id="path-8" class="cls-8" fill-rule="evenodd"/>
  </g>
</svg>
