<svg xmlns="http://www.w3.org/2000/svg" xmlns:xlink="http://www.w3.org/1999/xlink" preserveAspectRatio="xMidYMid" width="126" height="217" viewBox="0 0 126 217">
  <defs>
    <style>

      .cls-3 {
        fill: #0cb04a;
      }

      .cls-4 {
        fill: #020403;
        opacity: 0.35;
      }

      .cls-7 {
        fill: #ff3a2f;
      }

      .cls-8 {
        fill: #142a3b;
      }

      .cls-10 {
        fill: #912822;
      }

      .cls-11 {
        fill: #ededed;
      }
    </style>
  </defs>
  <g id="group-93svg">
    <path d="M98.528,151.001 C97.097,162.287 94.898,173.162 91.987,183.491 C91.987,183.491 89.897,196.292 89.897,196.292 C89.897,196.292 125.906,206.375 125.906,206.375 C125.906,206.375 125.906,172.139 125.906,172.139 C125.906,172.139 98.528,151.001 98.528,151.001 Z" id="path-1" class="cls-3" fill-rule="evenodd"/>
    <path d="M105.007,191.255 C105.007,191.255 107.096,178.454 107.096,178.454 C108.707,172.740 110.076,166.844 111.242,160.818 C111.242,160.818 98.528,151.001 98.528,151.001 C97.097,162.287 94.898,173.162 91.987,183.491 C91.987,183.491 89.897,196.292 89.897,196.292 C89.897,196.292 125.906,206.375 125.906,206.375 C125.906,206.375 125.906,197.108 125.906,197.108 C125.906,197.108 105.007,191.255 105.007,191.255 Z" id="path-2" class="cls-4" fill-rule="evenodd"/>
    <path d="M32.429,150.692 C32.429,150.692 -0.009,172.139 -0.009,172.139 C-0.009,172.139 -0.009,206.375 -0.009,206.375 C-0.009,206.375 39.401,196.292 39.401,196.292 C39.401,196.292 36.229,172.516 36.229,172.516 C34.631,165.448 33.365,158.157 32.429,150.692 Z" id="path-3" class="cls-3" fill-rule="evenodd"/>
    <path d="M36.229,172.516 C34.631,165.448 33.365,158.157 32.429,150.692 C32.429,150.692 23.945,156.301 23.945,156.301 C24.596,160.081 25.327,163.813 26.155,167.480 C26.155,167.480 29.327,191.255 29.327,191.255 C29.327,191.255 -0.009,198.761 -0.009,198.761 C-0.009,198.761 -0.009,206.375 -0.009,206.375 C-0.009,206.375 39.401,196.292 39.401,196.292 C39.401,196.292 36.229,172.516 36.229,172.516 Z" id="path-4" class="cls-4" fill-rule="evenodd"/>
    <path d="M25.502,125.681 C25.502,150.507 29.244,174.030 35.931,195.070 C45.141,224.046 85.858,224.046 95.068,195.070 C101.756,174.030 105.497,150.507 105.497,125.681 C105.497,75.009 89.912,29.768 65.499,-0.009 C41.087,29.768 25.502,75.009 25.502,125.681 Z" id="path-5" class="cls-7" fill-rule="evenodd"/>
    <path d="M88.966,69.902 C88.966,69.902 38.362,69.902 38.362,69.902 C36.366,69.902 34.748,68.397 34.748,66.402 C34.748,64.407 36.366,62.902 38.362,62.902 C38.362,62.902 88.966,62.902 88.966,62.902 C90.962,62.902 92.581,64.407 92.581,66.402 C92.581,68.397 90.962,69.902 88.966,69.902 Z" id="path-6" class="cls-8" fill-rule="evenodd"/>
    <path d="M65.499,0.058 C65.499,0.058 65.499,216.869 65.499,216.869 C77.981,216.869 90.463,209.626 95.068,195.138 C101.756,174.098 105.497,150.575 105.497,125.749 C105.497,75.077 89.911,29.838 65.499,0.058 Z" id="path-7" class="cls-4" fill-rule="evenodd"/>
    <path d="M90.481,112.462 C90.481,103.801 83.461,96.781 74.801,96.781 C66.141,96.781 59.121,103.801 59.121,112.462 C59.121,121.122 66.141,128.142 74.801,128.142 C83.461,128.142 90.481,121.122 90.481,112.462 Z" id="path-8" class="cls-10" fill-rule="evenodd"/>
    <path d="M80.408,107.425 C80.408,98.765 73.387,91.744 64.727,91.744 C56.067,91.744 49.048,98.765 49.048,107.425 C49.048,116.086 56.067,123.106 64.727,123.106 C73.387,123.106 80.408,116.086 80.408,107.425 Z" id="path-9" class="cls-11" fill-rule="evenodd"/>
  </g>
</svg>
