<svg xmlns="http://www.w3.org/2000/svg" xmlns:xlink="http://www.w3.org/1999/xlink" preserveAspectRatio="xMidYMid" width="217" height="206" viewBox="0 0 217 206">
  <defs>
    <style>

      .cls-3 {
        fill: #2476ff;
      }

      .cls-4 {
        fill: #ffffff;
      }

      .cls-7 {
        fill: #020403;
        opacity: 0.35;
      }

      .cls-13 {
        fill: #020403;
        opacity: 0.45;
      }

      .cls-14 {
        fill: #ff3a2f;
      }
    </style>
  </defs>
  <g id="group-53svg">
    <circle id="circle-1" class="cls-3" cx="42" cy="47" r="16"/>
    <circle id="circle-2" class="cls-4" cx="39" cy="43" r="9"/>
    <path d="M9.189,0.001 C14.262,0.001 18.374,4.114 18.374,9.187 C18.374,14.261 14.262,18.373 9.189,18.373 C4.116,18.373 0.003,14.261 0.003,9.187 C0.003,4.114 4.116,0.001 9.189,0.001 Z" id="path-1" class="cls-3" fill-rule="evenodd"/>
    <path d="M215.758,177.566 C213.520,174.246 207.774,162.714 205.102,163.236 C202.431,163.751 194.514,185.213 195.702,188.741 C196.898,192.268 208.946,188.460 212.875,188.372 C216.797,188.284 217.996,180.893 215.758,177.566 Z" id="path-2" class="cls-3" fill-rule="evenodd"/>
    <path d="M200.313,184.130 C199.478,181.649 203.140,170.329 206.318,163.630 C205.870,163.322 205.458,163.167 205.102,163.236 C202.430,163.751 194.514,185.213 195.702,188.741 C196.898,192.268 208.946,188.460 212.875,188.372 C214.930,188.327 216.215,186.267 216.672,183.844 C212.161,184.288 201.441,187.459 200.313,184.130 Z" id="path-3" class="cls-7" fill-rule="evenodd"/>
    <path d="M195.306,139.566 C192.747,134.127 182.095,114.307 174.525,114.012 C166.962,113.722 145.693,183.500 147.352,191.718 C153.233,195.116 175.258,193.757 179.094,192.692 C181.932,187.060 197.858,145.006 195.306,139.566 Z" id="path-4" class="cls-3" fill-rule="evenodd"/>
    <path d="M179.094,192.692 C179.705,191.478 180.944,188.512 182.455,184.644 C175.726,184.694 168.741,184.197 165.796,182.495 C164.641,176.774 174.597,141.253 183.308,120.277 C181.336,117.934 176.451,115.082 174.525,114.012 C165.890,122.125 150.418,184.065 151.963,191.718 C154.449,193.154 159.825,193.735 165.487,193.852 C171.647,193.734 177.320,193.184 179.094,192.692 Z" id="path-5" class="cls-7" fill-rule="evenodd"/>
    <path d="M204.656,158.793 C203.558,155.021 197.445,141.130 193.273,139.307 C189.093,137.476 166.491,188.644 172.400,190.788 C178.309,192.931 192.176,192.105 194.227,191.208 C196.292,190.294 205.763,162.573 204.656,158.793 Z" id="path-6" class="cls-3" fill-rule="evenodd"/>
    <path d="M178.020,185.840 C173.415,184.170 186.127,152.726 193.940,139.797 C193.719,139.645 193.485,139.399 193.273,139.307 C189.093,137.476 166.491,188.644 172.400,190.788 C178.309,192.930 192.176,192.105 194.227,191.207 C194.707,190.996 195.709,189.249 196.936,186.705 C192.533,186.971 182.530,187.475 178.020,185.840 Z" id="path-7" class="cls-7" fill-rule="evenodd"/>
    <path d="M122.467,140.987 C122.467,167.479 100.991,188.955 74.499,188.955 C48.007,188.955 26.531,167.479 26.531,140.987 C26.531,114.494 48.007,93.017 74.499,93.017 C100.991,93.017 122.467,114.494 122.467,140.987 Z" id="path-8" class="cls-3" fill-rule="evenodd"/>
    <path d="M32.813,117.274 C47.102,114.259 44.131,117.726 55.949,128.101 C75.859,145.578 77.830,162.054 60.353,181.964 C59.096,183.395 57.758,184.707 56.378,185.952 C66.159,183.887 74.750,192.035 82.493,184.554 C104.576,163.220 97.998,134.337 78.089,116.859 C59.611,100.637 50.635,101.197 32.813,117.274 Z" id="path-9" class="cls-13" fill-rule="evenodd"/>
    <path d="M96.879,162.047 C87.439,160.695 77.885,178.856 52.977,176.730 C38.485,175.495 32.320,169.611 32.916,152.610 C33.684,130.698 48.372,118.268 48.952,109.772 C49.203,106.094 41.172,100.359 37.645,102.138 C28.557,106.724 19.022,139.846 20.135,153.647 C21.762,173.887 35.556,182.567 48.815,187.327 C62.067,192.082 96.084,196.679 109.386,190.076 C114.760,187.401 103.038,162.932 96.879,162.047 Z" id="path-10" class="cls-14" fill-rule="evenodd"/>
    <path d="M94.534,162.092 C89.188,162.660 73.035,176.727 65.402,175.525 C69.439,185.416 67.651,185.059 72.655,192.551 C97.303,194.736 106.358,191.580 109.386,190.076 C114.760,187.401 99.921,158.977 94.534,162.092 Z" id="path-11" class="cls-13" fill-rule="evenodd"/>
    <path d="M45.640,118.155 C47.453,114.959 48.786,112.197 48.952,109.772 C49.203,106.094 41.172,100.359 37.645,102.138 C35.392,103.275 33.113,106.171 30.974,110.085 C35.284,112.226 40.337,114.845 45.640,118.155 Z" id="path-12" class="cls-13" fill-rule="evenodd"/>
    <path d="M171.959,107.079 C169.304,102.795 159.757,82.987 128.963,77.212 C108.443,73.366 48.464,82.683 28.198,96.107 C20.644,101.111 58.893,106.763 81.659,137.638 C101.004,163.879 97.704,188.535 120.482,200.980 C130.771,206.598 137.368,206.281 143.902,204.427 C150.787,202.471 155.885,185.262 162.502,163.518 C169.657,140.035 176.019,113.637 171.959,107.079 Z" id="path-13" class="cls-14" fill-rule="evenodd"/>
    <path d="M171.958,107.079 C171.214,105.877 169.894,103.433 167.748,100.440 C166.066,111.665 162.128,126.560 157.891,140.463 C151.274,162.207 146.176,179.416 139.291,181.372 C132.757,183.225 126.159,183.544 115.871,177.925 C93.093,165.481 96.393,140.823 77.049,114.583 C67.941,102.230 56.359,93.923 46.219,88.071 C38.907,90.502 32.588,93.200 28.198,96.107 C20.644,101.110 58.893,106.763 81.659,137.638 C101.004,163.879 97.704,188.535 120.482,200.980 C130.771,206.598 137.368,206.281 143.902,204.427 C150.787,202.471 155.885,185.262 162.502,163.518 C169.657,140.035 176.019,113.637 171.958,107.079 Z" id="path-14" class="cls-7" fill-rule="evenodd"/>
    <path d="M151.598,110.369 C150.653,110.369 149.711,110.002 149.003,109.270 C149.003,109.270 148.066,108.269 148.066,108.269 C143.802,103.639 130.890,89.563 103.324,90.372 C101.282,90.429 99.663,88.861 99.603,86.866 C99.543,84.871 101.112,83.205 103.108,83.145 C133.917,82.246 148.569,98.141 153.383,103.371 C153.383,103.371 154.192,104.238 154.192,104.238 C155.583,105.670 155.548,107.960 154.115,109.349 C153.412,110.030 152.505,110.369 151.598,110.369 Z" id="path-15" class="cls-4" fill-rule="evenodd"/>
  </g>
</svg>
