<svg xmlns="http://www.w3.org/2000/svg" xmlns:xlink="http://www.w3.org/1999/xlink" preserveAspectRatio="xMidYMid" width="217" height="214" viewBox="0 0 217 214">
  <defs>
    <style>

      .cls-3 {
        fill: #2476ff;
      }

      .cls-4 {
        fill: #ffffff;
      }

      .cls-7 {
        fill: #ff3a2f;
      }

      .cls-9 {
        fill: #142a3b;
      }

      .cls-10 {
        fill: #0cb04a;
      }

      .cls-11 {
        fill: #020403;
        opacity: 0.35;
      }
    </style>
  </defs>
  <g id="group-140svg">
    <path d="M24.400,125.733 C24.400,132.487 18.937,137.963 12.198,137.963 C5.459,137.963 -0.003,132.487 -0.003,125.733 C-0.003,118.977 5.459,113.500 12.198,113.500 C18.937,113.500 24.400,118.977 24.400,125.733 Z" id="path-1" class="cls-3" fill-rule="evenodd"/>
    <path d="M17.713,121.607 C17.713,124.660 15.244,127.135 12.198,127.135 C9.152,127.135 6.684,124.660 6.684,121.607 C6.684,118.554 9.152,116.079 12.198,116.079 C15.244,116.079 17.713,118.554 17.713,121.607 Z" id="path-2" class="cls-4" fill-rule="evenodd"/>
    <path d="M20.092,39.843 C20.092,44.214 16.558,47.757 12.198,47.757 C7.838,47.757 4.304,44.214 4.304,39.843 C4.304,35.474 7.838,31.930 12.198,31.930 C16.558,31.930 20.092,35.474 20.092,39.843 Z" id="path-3" class="cls-3" fill-rule="evenodd"/>
    <path d="M67.261,6.843 C67.261,9.986 64.718,12.534 61.582,12.534 C58.445,12.534 55.903,9.986 55.903,6.843 C55.903,3.698 58.445,1.150 61.582,1.150 C64.718,1.150 67.261,3.698 67.261,6.843 Z" id="path-4" class="cls-3" fill-rule="evenodd"/>
    <path d="M37.681,90.359 C37.681,90.359 27.356,90.359 27.356,90.359 C27.356,90.359 27.356,59.187 27.356,59.187 C27.356,59.187 37.681,59.187 37.681,59.187 C37.681,59.187 37.681,90.359 37.681,90.359 Z" id="path-5" class="cls-7" fill-rule="evenodd"/>
    <path d="M212.792,90.359 C212.792,90.359 198.049,90.359 198.049,90.359 C198.049,90.359 198.049,59.187 198.049,59.187 C198.049,59.187 212.792,59.187 212.792,59.187 C212.792,59.187 212.792,90.359 212.792,90.359 Z" id="path-6" class="cls-7" fill-rule="evenodd"/>
    <path d="M37.681,57.987 C37.681,57.987 37.681,91.559 37.681,91.559 C37.681,100.828 45.178,108.344 54.427,108.344 C54.427,108.344 89.789,108.344 89.789,108.344 C95.772,108.344 101.300,105.145 104.291,99.951 C104.291,99.951 104.291,99.951 104.291,99.951 C110.736,88.761 126.849,88.761 133.295,99.951 C133.295,99.951 133.295,99.951 133.295,99.951 C136.286,105.145 141.814,108.344 147.797,108.344 C147.797,108.344 183.159,108.344 183.159,108.344 C192.408,108.344 199.905,100.828 199.905,91.559 C199.905,91.559 199.905,57.987 199.905,57.987 C199.905,48.717 192.408,41.201 183.159,41.201 C183.159,41.201 54.427,41.201 54.427,41.201 C45.178,41.201 37.681,48.717 37.681,57.987 Z" id="path-7" class="cls-9" fill-rule="evenodd"/>
    <path d="M51.989,65.207 C51.989,65.207 51.989,84.339 51.989,84.339 C51.989,89.623 56.261,93.907 61.532,93.907 C61.532,93.907 89.917,93.907 89.917,93.907 C93.327,93.907 96.477,92.083 98.182,89.123 C98.182,89.123 106.412,89.123 106.412,89.123 C110.086,82.745 127.500,82.745 131.173,89.123 C131.173,89.123 139.404,89.123 139.404,89.123 C141.108,92.083 152.490,93.907 155.899,93.907 C155.899,93.907 176.053,93.907 176.053,93.907 C181.325,93.907 185.597,89.623 185.597,84.339 C185.597,84.339 185.597,65.207 185.597,65.207 C185.597,59.923 181.325,55.640 176.053,55.640 C176.053,55.640 61.532,55.640 61.532,55.640 C56.261,55.640 51.989,59.923 51.989,65.207 Z" id="path-8" class="cls-10" fill-rule="evenodd"/>
    <path d="M176.053,55.640 C176.053,55.640 61.532,55.640 61.532,55.640 C58.282,55.640 55.419,57.277 53.695,59.766 C53.695,59.766 167.823,59.766 167.823,59.766 C173.093,59.766 177.365,64.049 177.365,69.331 C177.365,69.331 177.365,88.465 177.365,88.465 C177.365,90.489 176.730,92.361 175.660,93.907 C175.660,93.907 176.053,93.907 176.053,93.907 C181.325,93.907 185.597,89.623 185.597,84.339 C185.597,84.339 185.597,65.207 185.597,65.207 C185.597,59.925 181.325,55.640 176.053,55.640 Z" id="path-9" class="cls-11" fill-rule="evenodd"/>
    <path d="M165.541,213.491 C137.239,213.491 114.214,190.415 114.214,162.048 C114.214,160.051 115.832,158.433 117.828,158.433 C119.824,158.433 121.443,160.051 121.443,162.048 C121.443,186.428 141.226,206.262 165.541,206.262 C189.858,206.262 209.641,186.428 209.641,162.048 C209.641,162.048 209.641,3.616 209.641,3.616 C209.641,1.620 211.260,0.001 213.256,0.001 C215.252,0.001 216.871,1.620 216.871,3.616 C216.871,3.616 216.871,162.048 216.871,162.048 C216.871,190.415 193.843,213.491 165.541,213.491 Z" id="path-10" class="cls-9" fill-rule="evenodd"/>
    <path d="M119.853,163.446 C136.559,163.446 150.103,149.870 150.103,133.123 C150.103,133.123 89.603,133.123 89.603,133.123 C89.603,149.870 103.146,163.446 119.853,163.446 Z" id="path-11" class="cls-7" fill-rule="evenodd"/>
    <path d="M137.446,133.123 C135.434,147.913 122.815,159.320 107.507,159.320 C106.462,159.320 105.430,159.267 104.412,159.163 C108.937,161.865 114.204,163.446 119.853,163.446 C136.560,163.446 150.103,149.870 150.103,133.123 C150.103,133.123 137.446,133.123 137.446,133.123 Z" id="path-12" class="cls-11" fill-rule="evenodd"/>
    <path d="M103.420,141.406 C103.420,143.494 101.731,145.186 99.647,145.186 C97.564,145.186 95.875,143.494 95.875,141.406 C95.875,139.317 97.564,137.625 99.647,137.625 C101.731,137.625 103.420,139.317 103.420,141.406 Z" id="path-13" class="cls-4" fill-rule="evenodd"/>
    <path d="M113.277,149.656 C113.277,152.646 110.859,155.068 107.878,155.068 C104.896,155.068 102.479,152.646 102.479,149.656 C102.479,146.667 104.896,144.243 107.878,144.243 C110.859,144.243 113.277,146.667 113.277,149.656 Z" id="path-14" class="cls-4" fill-rule="evenodd"/>
    <path d="M65.011,92.168 C64.436,92.168 63.869,91.893 63.518,91.382 C62.955,90.560 63.164,89.433 63.988,88.869 C63.988,88.869 102.397,62.532 102.397,62.532 C103.222,61.969 104.348,62.178 104.911,63.001 C105.474,63.825 105.264,64.951 104.442,65.515 C104.442,65.515 66.031,91.852 66.031,91.852 C65.719,92.065 65.362,92.168 65.011,92.168 Z" id="path-15" class="cls-4" fill-rule="evenodd"/>
    <path d="M69.381,76.582 C68.806,76.582 68.239,76.307 67.889,75.795 C67.325,74.973 67.533,73.847 68.358,73.282 C68.358,73.282 84.035,62.532 84.035,62.532 C84.858,61.969 85.984,62.178 86.548,63.001 C87.111,63.825 86.903,64.951 86.079,65.515 C86.079,65.515 70.402,76.265 70.402,76.265 C70.089,76.479 69.732,76.582 69.381,76.582 Z" id="path-16" class="cls-4" fill-rule="evenodd"/>
  </g>
</svg>
