<svg xmlns="http://www.w3.org/2000/svg" xmlns:xlink="http://www.w3.org/1999/xlink" preserveAspectRatio="xMidYMid" width="218" height="203" viewBox="0 0 218 203">
  <defs>
    <style>

      .cls-3 {
        fill: #ff3a2f;
      }

      .cls-4 {
        fill: #ddc100;
      }

      .cls-5 {
        fill: #000000;
        opacity: 0.35;
      }

      .cls-7 {
        fill: #142a3b;
      }

      .cls-10 {
        fill: #ffffff;
      }
    </style>
  </defs>
  <g id="group-13svg">
    <path d="M163.380,55.723 C163.380,55.723 163.719,57.056 163.719,57.056 C159.592,61.183 153.768,61.281 149.521,57.279 C149.521,57.279 146.335,53.881 146.335,53.881 C142.284,50.061 136.199,49.952 132.017,53.628 C132.017,53.628 128.831,56.520 128.831,56.520 C124.918,59.959 119.160,60.114 115.071,56.886 C115.071,56.886 108.283,51.505 108.283,51.505 C104.614,48.609 99.512,48.403 95.623,50.996 C95.623,50.996 89.829,54.863 89.829,54.863 C85.878,57.497 80.675,57.240 77.004,54.230 C77.004,54.230 72.539,50.569 72.539,50.569 C68.540,47.291 62.778,47.310 58.801,50.615 C58.801,50.615 52.091,56.192 52.091,56.192 C49.454,58.384 44.517,58.805 41.500,57.176 C40.074,56.404 38.385,55.865 35.385,55.496 C35.385,55.496 35.385,167.862 35.385,167.862 C35.385,189.762 52.935,202.065 71.562,202.065 C71.562,202.065 145.340,202.065 145.340,202.065 C163.967,202.065 172.378,189.762 172.378,167.862 C172.378,167.862 172.378,53.656 172.378,53.656 C172.378,51.708 166.729,52.375 163.380,55.723 Z" id="path-1" class="cls-3" fill-rule="evenodd"/>
    <path d="M179.067,24.119 C179.067,24.119 178.217,24.119 178.217,24.119 C178.502,24.119 178.784,24.142 179.067,24.165 C179.067,24.165 179.067,24.119 179.067,24.119 Z" id="path-2" class="cls-4" fill-rule="evenodd"/>
    <path d="M160.999,52.249 C160.999,52.249 160.200,53.582 160.200,53.582 C157.771,56.012 154.558,57.006 151.459,56.628 C151.459,56.628 151.459,153.979 151.459,153.979 C151.459,175.878 138.493,191.037 119.867,191.037 C119.867,191.037 46.088,191.037 46.088,191.037 C44.719,191.037 45.086,191.101 43.745,190.939 C53.597,201.063 67.049,202.521 66.709,202.419 C66.709,202.419 140.488,202.419 140.488,202.419 C164.594,203.548 172.275,191.575 172.275,164.387 C172.275,164.387 172.275,50.183 172.275,50.183 C172.275,48.234 164.349,48.900 160.999,52.249 Z" id="path-3" class="cls-5" fill-rule="evenodd"/>
    <path d="M172.275,72.793 C172.275,72.793 172.275,57.179 172.275,57.179 C168.473,55.814 166.366,55.689 163.306,58.749 C163.306,58.749 161.974,60.082 161.974,60.082 C157.846,64.208 151.187,64.306 146.940,60.303 C146.940,60.303 143.335,56.905 143.335,56.905 C139.283,53.086 132.990,52.976 128.808,56.653 C128.808,56.653 125.518,59.544 125.518,59.544 C121.605,62.984 115.794,63.137 111.705,59.909 C111.705,59.909 104.891,54.529 104.891,54.529 C101.223,51.632 96.107,51.425 92.218,54.019 C92.218,54.019 86.416,57.883 86.416,57.883 C82.467,60.516 77.260,60.254 73.589,57.245 C73.589,57.245 69.123,53.573 69.123,53.573 C65.123,50.294 59.361,50.293 55.383,53.599 C55.383,53.599 48.673,59.134 48.673,59.134 C46.036,61.324 42.323,61.661 39.307,60.032 C37.799,59.217 36.848,59.002 34.921,58.630 C34.921,58.630 34.921,74.188 34.921,74.188 C36.863,74.560 37.790,74.825 39.307,75.644 C42.323,77.274 46.036,76.937 48.673,74.746 C48.673,74.746 55.383,69.211 55.383,69.211 C59.361,65.906 65.123,65.907 69.123,69.185 C69.123,69.185 73.589,72.857 73.589,72.857 C77.260,75.866 82.467,76.129 86.416,73.496 C86.416,73.496 92.218,69.631 92.218,69.631 C96.107,67.038 101.223,67.245 104.891,70.141 C104.891,70.141 111.705,75.522 111.705,75.522 C115.794,78.750 121.605,78.597 125.518,75.158 C125.518,75.158 128.808,72.266 128.808,72.266 C132.990,68.589 139.283,68.698 143.335,72.518 C143.335,72.518 146.940,75.916 146.940,75.916 C151.187,79.920 157.846,79.821 161.974,75.694 C161.974,75.694 163.306,74.361 163.306,74.361 C166.366,71.302 168.473,71.426 172.275,72.793 Z" id="path-4" class="cls-5" fill-rule="evenodd"/>
    <path d="M33.215,30.357 C33.215,30.357 0.014,64.623 0.014,64.623 C0.014,64.623 29.292,55.167 41.656,61.848 C44.672,63.478 48.386,63.323 51.022,61.132 C51.022,61.132 57.732,55.687 57.732,55.687 C61.709,52.382 67.472,52.429 71.472,55.707 C71.472,55.707 75.938,59.402 75.938,59.402 C79.609,62.411 84.815,62.684 88.766,60.051 C88.766,60.051 94.567,56.191 94.567,56.191 C98.456,53.599 103.572,53.809 107.240,56.705 C107.240,56.705 114.055,62.088 114.055,62.088 C118.143,65.315 123.954,65.163 127.867,61.723 C127.867,61.723 131.158,58.831 131.158,58.831 C135.339,55.156 141.632,55.266 145.684,59.085 C145.684,59.085 149.289,62.482 149.289,62.482 C153.536,66.486 160.196,66.388 164.322,62.260 C164.322,62.260 165.655,60.928 165.655,60.928 C169.966,56.616 176.991,56.730 181.160,61.179 C181.160,61.179 184.849,65.116 184.849,65.116 C187.347,67.780 191.193,68.763 194.629,67.528 C200.726,65.336 210.663,63.280 216.888,69.859 C216.888,69.859 185.338,30.961 185.338,30.961 C183.288,28.571 180.296,25.071 177.148,25.071 C177.148,25.071 40.846,25.071 40.846,25.071 C37.984,25.071 35.239,28.334 33.215,30.357 Z" id="path-5" class="cls-7" fill-rule="evenodd"/>
    <path d="M193.377,17.458 C193.377,26.080 186.387,33.071 177.764,33.071 C177.764,33.071 31.999,33.071 31.999,33.071 C23.376,33.071 16.387,26.080 16.387,17.458 C16.387,17.458 16.387,15.684 16.387,15.684 C16.387,7.062 23.376,0.072 31.999,0.072 C31.999,0.072 177.764,0.072 177.764,0.072 C186.387,0.072 193.377,7.062 193.377,15.684 C193.377,15.684 193.377,17.458 193.377,17.458 Z" id="path-6" class="cls-7" fill-rule="evenodd"/>
    <path d="M178.350,-0.001 C178.350,-0.001 177.394,-0.001 177.394,-0.001 C177.975,1.702 178.350,3.509 178.350,5.420 C178.350,14.404 171.360,21.687 162.737,21.687 C162.737,21.687 17.977,21.687 17.977,21.687 C20.128,27.989 25.846,32.530 32.634,32.530 C32.634,32.530 178.350,32.530 178.350,32.530 C186.972,32.530 193.963,25.247 193.963,16.264 C193.963,7.281 186.972,-0.001 178.350,-0.001 Z" id="path-7" class="cls-5" fill-rule="evenodd"/>
    <path d="M52.830,176.624 C50.834,176.624 49.216,175.007 49.216,173.011 C49.216,173.011 49.216,133.447 49.216,133.447 C49.216,131.451 50.834,129.832 52.830,129.832 C54.826,129.832 56.445,131.451 56.445,133.447 C56.445,133.447 56.445,173.011 56.445,173.011 C56.445,175.007 54.826,176.624 52.830,176.624 Z" id="path-8" class="cls-10" fill-rule="evenodd"/>
  </g>
</svg>
