<svg xmlns="http://www.w3.org/2000/svg" xmlns:xlink="http://www.w3.org/1999/xlink" preserveAspectRatio="xMidYMid" width="218" height="73" viewBox="0 0 218 73">
  <defs>
    <style>

      .cls-3 {
        fill: #0cb04a;
      }

      .cls-4 {
        fill: #020403;
        opacity: 0.35;
      }
    </style>
  </defs>
  <g id="group-55svg">
    <path d="M117.196,9.527 C112.283,11.008 106.450,11.487 99.679,9.440 C51.496,-7.725 0.015,3.807 0.015,3.807 C0.015,3.807 0.474,8.306 1.563,15.557 C11.203,16.788 11.180,28.569 11.180,28.569 C11.180,28.569 13.143,45.530 17.257,54.603 C23.716,68.851 48.897,71.506 48.897,71.506 C65.191,73.865 78.666,67.899 84.637,61.868 C91.470,54.959 91.806,51.216 95.068,38.232 C97.679,27.844 100.083,27.869 105.041,27.869 C111.745,27.869 115.692,28.012 118.176,38.362 C121.300,51.381 124.080,55.882 130.841,62.856 C136.751,68.955 150.575,74.682 166.903,72.492 C166.903,72.492 192.307,69.915 198.927,55.732 C203.129,46.703 205.380,29.670 205.380,29.670 C205.380,29.670 205.536,17.834 215.189,16.701 C216.355,9.461 216.889,4.963 216.889,4.963 C216.889,4.963 165.553,-7.132 117.196,9.527 ZM85.110,26.444 C83.160,26.852 84.239,28.327 82.885,33.718 C80.544,43.032 80.304,45.716 75.402,50.673 C71.118,55.000 61.451,59.280 49.763,57.589 C49.763,57.589 31.699,55.683 27.066,45.461 C24.114,38.954 22.706,26.787 22.706,26.787 C22.706,26.787 22.388,25.575 22.388,25.575 C21.415,19.097 21.006,15.077 21.006,15.077 C21.006,15.077 49.971,8.076 85.110,14.241 C85.110,14.241 85.110,26.444 85.110,26.444 ZM192.351,28.327 C192.351,28.327 192.033,29.537 192.033,29.537 C192.033,29.537 190.624,41.705 187.674,48.213 C183.040,58.434 164.977,60.339 164.977,60.339 C153.288,62.031 143.621,57.752 139.337,53.425 C134.436,48.469 134.194,45.783 131.855,36.469 C130.500,31.079 131.578,29.602 129.629,29.195 C129.629,29.195 129.629,16.991 129.629,16.991 C164.769,10.827 193.733,17.829 193.733,17.829 C193.733,17.829 193.324,21.848 192.351,28.327 Z" id="path-1" class="cls-3" fill-rule="evenodd"/>
    <path d="M87.848,9.440 C93.441,11.131 98.382,11.085 102.704,10.188 C101.714,9.988 100.711,9.752 99.679,9.440 C76.732,1.266 53.051,-0.395 34.524,0.101 C50.776,0.545 69.547,2.920 87.848,9.440 Z" id="path-2" class="cls-4" fill-rule="evenodd"/>
    <path d="M139.337,53.425 C134.436,48.469 134.194,45.783 131.855,36.469 C130.500,31.079 131.578,29.602 129.629,29.195 C129.629,29.195 129.629,16.991 129.629,16.991 C138.125,15.501 146.249,14.791 153.701,14.555 C143.426,14.216 131.055,14.666 117.800,16.991 C117.800,16.991 117.800,29.195 117.800,29.195 C119.749,29.602 118.671,31.079 120.026,36.469 C122.365,45.783 122.606,48.469 127.507,53.425 C131.792,57.752 141.459,62.031 153.146,60.339 C153.146,60.339 153.502,60.299 154.088,60.213 C147.457,59.123 142.188,56.305 139.337,53.425 Z" id="path-3" class="cls-4" fill-rule="evenodd"/>
    <path d="M11.614,31.792 C12.311,35.905 13.506,41.648 15.237,45.461 C19.870,55.683 37.933,57.589 37.933,57.589 C41.841,58.153 45.490,58.010 48.821,57.462 C45.085,56.913 31.071,54.295 27.066,45.461 C24.114,38.954 22.706,26.787 22.706,26.787 C22.706,26.787 22.388,25.574 22.388,25.574 C21.415,19.097 21.007,15.078 21.007,15.078 C21.007,15.078 32.246,12.364 49.209,11.804 C25.841,11.063 9.176,15.078 9.176,15.078 C9.176,15.078 9.487,18.117 10.205,23.162 C11.172,26.014 11.180,28.569 11.180,28.569 C11.180,28.569 11.327,29.821 11.614,31.792 Z" id="path-4" class="cls-4" fill-rule="evenodd"/>
    <path d="M93.212,27.869 C88.254,27.869 85.849,27.844 83.238,38.232 C79.977,51.216 79.641,54.959 72.808,61.868 C68.548,66.171 60.429,70.384 50.233,71.621 C65.914,73.467 78.832,67.730 84.637,61.868 C91.470,54.959 91.806,51.216 95.068,38.232 C96.603,32.126 98.071,29.628 100.022,28.599 C98.139,27.904 95.901,27.869 93.212,27.869 Z" id="path-5" class="cls-4" fill-rule="evenodd"/>
    <path d="M168.310,0.811 C189.898,1.402 205.059,4.963 205.059,4.963 C205.059,4.963 204.526,9.460 203.359,16.701 C193.707,17.834 193.550,29.670 193.550,29.670 C193.550,29.670 191.300,46.703 187.098,55.732 C180.478,69.915 155.073,72.492 155.073,72.492 C154.675,72.546 154.298,72.539 153.902,72.583 C157.970,73.048 162.320,73.107 166.903,72.492 C166.903,72.492 192.307,69.915 198.927,55.732 C203.129,46.703 205.380,29.670 205.380,29.670 C205.380,29.670 205.536,17.834 215.189,16.701 C216.355,9.460 216.889,4.963 216.889,4.963 C216.889,4.963 195.990,0.052 168.310,0.811 Z" id="path-6" class="cls-4" fill-rule="evenodd"/>
  </g>
</svg>
