<svg xmlns="http://www.w3.org/2000/svg" xmlns:xlink="http://www.w3.org/1999/xlink" preserveAspectRatio="xMidYMid" width="174" height="218" viewBox="0 0 174 218">
  <defs>
    <style>

      .cls-3 {
        fill: #ff3a2f;
      }

      .cls-4 {
        fill: #020403;
        opacity: 0.25;
      }

      .cls-5 {
        fill: #142a3b;
      }

      .cls-7 {
        fill: #020403;
        opacity: 0.35;
      }
    </style>
  </defs>
  <g id="group-134svg">
    <path d="M137.998,217.234 C137.998,217.234 0.007,217.234 0.007,217.234 C0.007,217.234 0.007,47.239 0.007,47.239 C0.007,47.239 137.998,47.239 137.998,47.239 C137.998,47.239 137.998,217.234 137.998,217.234 Z" id="path-1" class="cls-3" fill-rule="evenodd"/>
    <path d="M113.693,47.828 C113.693,47.828 113.693,165.855 113.693,165.855 C113.693,179.792 102.343,191.089 88.339,191.089 C88.339,191.089 0.284,191.089 0.284,191.089 C0.284,191.089 0.284,217.137 0.284,217.137 C0.284,217.137 137.948,217.137 137.948,217.137 C137.948,217.137 137.948,47.828 137.948,47.828 C137.948,47.828 113.693,47.828 113.693,47.828 Z" id="path-2" class="cls-4" fill-rule="evenodd"/>
    <path d="M40.504,195.739 C38.508,195.739 37.004,194.120 37.004,192.125 C37.004,192.125 37.004,90.914 37.004,90.914 C37.004,88.917 38.508,87.299 40.504,87.299 C42.500,87.299 44.004,88.917 44.004,90.914 C44.004,90.914 44.004,192.125 44.004,192.125 C44.004,194.120 42.500,195.739 40.504,195.739 Z" id="path-3" class="cls-5" fill-rule="evenodd"/>
    <path d="M94.501,195.739 C92.505,195.739 91.001,194.120 91.001,192.125 C91.001,192.125 91.001,90.914 91.001,90.914 C91.001,88.917 92.505,87.299 94.501,87.299 C96.497,87.299 98.001,88.917 98.001,90.914 C98.001,90.914 98.001,192.125 98.001,192.125 C98.001,194.120 96.497,195.739 94.501,195.739 Z" id="path-4" class="cls-5" fill-rule="evenodd"/>
    <path d="M137.193,68.385 C137.193,68.385 137.193,47.828 137.193,47.828 C137.193,47.828 1.974,47.828 1.974,47.828 C1.974,47.828 137.193,68.385 137.193,68.385 Z" id="path-5" class="cls-7" fill-rule="evenodd"/>
    <path d="M115.920,41.535 C115.920,41.535 60.533,24.103 60.533,24.103 C60.533,24.103 68.195,-0.015 68.195,-0.015 C68.195,-0.015 123.583,17.417 123.583,17.417 C123.583,17.417 115.920,41.535 115.920,41.535 Z" id="path-6" class="cls-3" fill-rule="evenodd"/>
    <path d="M167.848,63.301 C167.307,63.301 166.761,63.220 166.219,63.049 C166.219,63.049 6.979,12.932 6.979,12.932 C4.121,12.033 2.534,8.989 3.434,6.133 C4.334,3.275 7.378,1.691 10.232,2.588 C10.232,2.588 169.472,52.704 169.472,52.704 C172.331,53.604 173.917,56.649 173.016,59.505 C172.290,61.819 170.152,63.301 167.848,63.301 Z" id="path-7" class="cls-3" fill-rule="evenodd"/>
  </g>
</svg>
