<svg xmlns="http://www.w3.org/2000/svg" xmlns:xlink="http://www.w3.org/1999/xlink" preserveAspectRatio="xMidYMid" width="219" height="218" viewBox="0 0 219 218">
  <defs>
    <style>

      .cls-3 {
        fill: #ff3a2f;
      }

      .cls-4 {
        fill: #142a3b;
      }

      .cls-5 {
        fill: #020403;
        opacity: 0.35;
      }

      .cls-7 {
        fill: #ededed;
      }

      .cls-11 {
        fill: #ffffff;
      }
    </style>
  </defs>
  <g id="group-115svg">
    <path d="M79.570,199.691 C79.898,198.879 80.012,198.018 79.979,197.153 C82.021,196.092 83.939,194.707 85.670,192.975 C85.670,192.975 173.478,105.165 173.478,105.165 C179.199,99.444 181.230,91.922 179.357,85.738 C179.357,85.738 191.806,73.290 191.806,73.290 C192.055,73.040 192.189,72.725 192.371,72.441 C192.921,72.158 193.482,71.862 193.952,71.393 C193.952,71.393 207.017,58.327 207.017,58.327 C209.342,56.002 209.339,52.227 207.017,49.907 C207.017,49.907 199.694,42.584 199.694,42.584 C199.694,42.584 216.204,26.075 216.204,26.075 C218.525,23.752 218.525,19.974 216.204,17.652 C216.204,17.652 200.294,1.743 200.294,1.743 C197.972,-0.579 194.194,-0.579 191.873,1.743 C191.873,1.743 175.364,18.252 175.364,18.252 C175.364,18.252 167.500,10.389 167.500,10.389 C165.178,8.067 161.404,8.062 159.079,10.389 C159.079,10.389 146.015,23.453 146.015,23.453 C145.753,23.715 145.640,24.044 145.441,24.326 C144.883,24.600 144.337,24.896 143.876,25.358 C143.876,25.358 131.561,37.674 131.561,37.674 C125.304,35.643 117.448,37.657 111.711,43.396 C111.711,43.396 23.902,131.207 23.902,131.207 C22.108,133.000 20.660,135.014 19.583,137.139 C15.115,136.930 10.051,138.966 5.949,143.068 C-0.707,149.725 -1.948,158.905 3.120,163.972 C3.120,163.972 52.914,213.767 52.914,213.767 C57.981,218.834 67.160,217.595 73.816,210.937 C77.207,207.545 79.108,203.515 79.570,199.691 Z" id="path-1" class="cls-3" fill-rule="evenodd"/>
    <path d="M179.357,85.738 C179.357,85.738 191.806,73.290 191.806,73.290 C192.055,73.040 192.189,72.725 192.371,72.441 C192.921,72.158 193.482,71.862 193.952,71.393 C193.952,71.393 207.017,58.327 207.017,58.327 C209.342,56.002 209.339,52.227 207.017,49.907 C207.017,49.907 199.694,42.584 199.694,42.584 C199.694,42.584 216.204,26.075 216.204,26.075 C218.525,23.752 218.525,19.974 216.204,17.652 C216.204,17.652 200.294,1.743 200.294,1.743 C197.972,-0.579 194.194,-0.579 191.873,1.743 C191.873,1.743 175.364,18.252 175.364,18.252 C175.364,18.252 167.500,10.389 167.500,10.389 C165.178,8.067 161.404,8.062 159.079,10.389 C159.079,10.389 146.015,23.453 146.015,23.453 C145.753,23.715 145.640,24.044 145.441,24.326 C144.883,24.600 144.337,24.896 143.876,25.358 C143.876,25.358 131.561,37.674 131.561,37.674 C131.561,37.674 179.357,85.738 179.357,85.738 Z" id="path-2" class="cls-4" fill-rule="evenodd"/>
    <path d="M162.073,10.389 C162.073,10.389 172.651,20.965 172.651,20.965 C172.651,20.965 175.364,18.252 175.364,18.252 C175.364,18.252 167.500,10.389 167.500,10.389 C165.626,8.514 162.817,8.178 160.576,9.330 C161.112,9.606 161.625,9.940 162.073,10.389 Z" id="path-3" class="cls-5" fill-rule="evenodd"/>
    <path d="M207.017,58.327 C209.342,56.002 209.339,52.227 207.018,49.907 C207.018,49.907 199.695,42.584 199.695,42.584 C199.695,42.584 216.204,26.075 216.204,26.075 C218.525,23.752 218.525,19.974 216.204,17.652 C216.204,17.652 200.294,1.743 200.294,1.743 C198.420,-0.131 195.609,-0.466 193.370,0.685 C193.906,0.959 194.419,1.294 194.867,1.743 C194.867,1.743 205.350,12.225 205.350,12.225 C207.671,14.548 207.671,18.325 205.350,20.647 C205.350,20.647 188.841,37.156 188.841,37.156 C188.841,37.156 196.164,44.480 196.164,44.480 C198.485,46.800 198.489,50.575 196.163,52.901 C196.163,52.901 171.225,77.590 171.225,77.590 C171.225,77.590 179.358,85.738 179.358,85.738 C179.358,85.738 191.806,73.290 191.806,73.290 C192.055,73.040 192.189,72.724 192.371,72.441 C192.921,72.159 193.482,71.862 193.952,71.393 C193.952,71.393 207.017,58.327 207.017,58.327 Z" id="path-4" class="cls-5" fill-rule="evenodd"/>
    <path d="M110.277,168.377 C110.277,168.377 48.509,106.607 48.509,106.607 C48.509,106.607 87.412,67.703 87.412,67.703 C87.412,67.703 149.180,129.473 149.180,129.473 C149.180,129.473 110.277,168.377 110.277,168.377 Z" id="path-5" class="cls-7" fill-rule="evenodd"/>
    <path d="M111.562,140.718 C111.562,140.718 76.166,105.321 76.166,105.321 C76.166,105.321 84.307,97.180 84.307,97.180 C84.307,97.180 119.703,132.578 119.703,132.578 C119.703,132.578 111.562,140.718 111.562,140.718 Z" id="path-6" class="cls-4" fill-rule="evenodd"/>
    <path d="M21.935,133.173 C21.935,133.173 23.902,131.206 23.902,131.206 C22.513,132.595 21.399,134.142 20.436,135.744 C20.436,135.744 81.129,196.439 81.129,196.439 C82.734,195.480 84.276,194.370 85.670,192.975 C85.670,192.975 86.417,192.230 86.417,192.230 C86.417,192.230 21.935,133.173 21.935,133.173 Z" id="path-7" class="cls-5" fill-rule="evenodd"/>
    <path d="M79.570,199.691 C79.898,198.879 80.011,198.018 79.979,197.153 C82.021,196.092 83.939,194.707 85.670,192.975 C85.670,192.975 173.479,105.165 173.479,105.165 C179.199,99.444 181.230,91.922 179.358,85.738 C179.358,85.738 132.077,37.657 132.077,37.657 C128.798,36.678 129.878,37.084 126.085,36.947 C126.085,36.947 163.077,80.310 163.077,80.310 C164.949,86.495 162.918,94.017 157.198,99.737 C157.198,99.737 69.389,187.549 69.389,187.549 C67.658,189.280 65.740,190.665 63.698,191.726 C63.731,192.592 63.618,193.454 63.290,194.265 C62.828,198.087 60.926,202.119 57.536,205.509 C55.139,207.907 52.413,209.574 49.672,210.525 C49.672,210.525 52.914,213.767 52.914,213.767 C57.981,218.834 67.160,217.595 73.817,210.937 C77.207,207.545 79.108,203.515 79.570,199.691 Z" id="path-8" class="cls-5" fill-rule="evenodd"/>
    <path d="M53.748,123.061 C52.361,123.061 50.974,122.531 49.915,121.472 C47.797,119.355 47.797,115.922 49.915,113.805 C49.915,113.805 107.877,55.842 107.877,55.842 C114.880,48.838 124.822,46.072 133.234,48.797 C136.083,49.721 137.642,52.780 136.718,55.628 C135.795,58.479 132.731,60.036 129.888,59.112 C125.401,57.652 119.632,59.423 115.544,63.509 C115.544,63.509 57.582,121.472 57.582,121.472 C56.523,122.531 55.136,123.061 53.748,123.061 Z" id="path-9" class="cls-11" fill-rule="evenodd"/>
  </g>
</svg>
