<svg xmlns="http://www.w3.org/2000/svg" xmlns:xlink="http://www.w3.org/1999/xlink" preserveAspectRatio="xMidYMid" width="217" height="207" viewBox="0 0 217 207">
  <defs>
    <style>

      .cls-3 {
        fill: #ff3a2f;
      }

      .cls-4 {
        fill: #fbb713;
      }

      .cls-7 {
        fill: #a72720;
      }

      .cls-8 {
        fill: #000000;
        opacity: 0.25;
      }

      .cls-9 {
        fill: #ffffff;
      }
    </style>
  </defs>
  <g id="group-144svg">
    <path d="M184.566,184.342 C184.566,191.264 178.954,196.876 172.033,196.876 C165.110,196.876 159.499,191.264 159.499,184.342 C159.499,177.419 165.110,171.808 172.033,171.808 C178.954,171.808 184.566,177.419 184.566,184.342 Z" id="path-1" class="cls-3" fill-rule="evenodd"/>
    <path d="M109.985,201.108 C109.985,203.876 107.740,206.121 104.971,206.121 C102.202,206.121 99.957,203.876 99.957,201.108 C99.957,198.339 102.202,196.093 104.971,196.093 C107.740,196.093 109.985,198.339 109.985,201.108 Z" id="path-2" class="cls-4" fill-rule="evenodd"/>
    <path d="M216.886,154.164 C216.886,159.073 212.906,163.054 207.996,163.054 C203.086,163.054 199.106,159.073 199.106,154.164 C199.106,149.254 203.086,145.273 207.996,145.273 C212.906,145.273 216.886,149.254 216.886,154.164 Z" id="path-3" class="cls-3" fill-rule="evenodd"/>
    <path d="M86.017,-0.006 C38.518,-0.006 0.013,38.501 0.013,86.001 C0.013,133.502 38.518,172.009 86.017,172.009 C91.877,172.009 97.599,171.421 103.130,170.304 C103.258,159.051 112.317,149.957 123.554,149.764 C123.548,149.563 123.524,149.366 123.524,149.164 C123.524,137.679 132.834,128.367 144.320,128.367 C144.685,128.367 145.042,128.404 145.403,128.423 C145.078,126.966 144.901,125.455 144.901,123.899 C144.901,112.415 154.212,103.103 165.697,103.103 C167.250,103.103 168.759,103.286 170.215,103.610 C171.398,97.926 172.022,92.036 172.022,86.001 C172.022,38.501 133.516,-0.006 86.017,-0.006 ZM86.017,111.091 C72.162,111.091 60.929,99.858 60.929,86.001 C60.929,72.146 72.162,60.912 86.017,60.912 C99.873,60.912 111.105,72.146 111.105,86.001 C111.105,99.858 99.873,111.091 86.017,111.091 Z" id="path-4" class="cls-3" fill-rule="evenodd"/>
    <path d="M85.259,45.710 C63.007,45.710 44.969,63.750 44.969,86.001 C44.969,108.254 63.007,126.293 85.259,126.293 C107.511,126.293 125.549,108.254 125.549,86.001 C125.549,63.750 107.511,45.710 85.259,45.710 ZM85.259,111.209 C71.337,111.209 60.053,99.923 60.053,86.001 C60.053,72.080 71.337,60.794 85.259,60.794 C99.180,60.794 110.466,72.080 110.466,86.001 C110.466,99.923 99.180,111.209 85.259,111.209 Z" id="path-5" class="cls-7" fill-rule="evenodd"/>
    <path d="M85.259,0.408 C67.721,0.408 51.422,5.692 37.848,14.743 C15.018,30.206 0.013,56.350 0.013,86.001 C0.013,115.653 15.018,141.798 37.848,157.260 C51.422,166.311 67.721,171.595 85.259,171.595 C91.413,171.595 97.411,170.931 103.197,169.696 C103.349,165.958 104.483,162.490 106.355,159.516 C99.647,161.439 92.586,162.529 85.259,162.529 C42.995,162.529 8.733,128.266 8.733,86.001 C8.733,43.736 42.995,9.474 85.259,9.474 C127.523,9.474 161.785,43.736 161.785,86.001 C161.785,92.262 160.951,98.314 159.533,104.138 C161.492,103.526 163.535,103.103 165.697,103.103 C166.851,103.103 167.971,103.233 169.072,103.418 C170.235,97.793 170.849,91.969 170.849,86.001 C170.849,38.731 132.530,0.408 85.259,0.408 Z" id="path-6" class="cls-8" fill-rule="evenodd"/>
    <path d="M20.318,89.617 C18.322,89.617 16.704,87.997 16.704,86.001 C16.704,71.514 21.167,57.666 29.612,45.951 C30.779,44.333 33.037,43.968 34.659,45.134 C36.276,46.301 36.644,48.561 35.475,50.181 C27.925,60.653 23.933,73.042 23.933,86.001 C23.933,87.997 22.314,89.617 20.318,89.617 Z" id="path-7" class="cls-9" fill-rule="evenodd"/>
  </g>
</svg>
