<svg xmlns="http://www.w3.org/2000/svg" xmlns:xlink="http://www.w3.org/1999/xlink" preserveAspectRatio="xMidYMid" width="218" height="212" viewBox="0 0 218 212">
  <defs>
    <style>

      .cls-3 {
        fill: #fbb713;
      }

      .cls-4 {
        fill: #010101;
        opacity: 0.25;
      }

      .cls-5 {
        fill: #ff3a2f;
      }

      .cls-7 {
        fill: #33485d;
      }

      .cls-12 {
        fill: #020200;
        opacity: 0.35;
      }

      .cls-20 {
        fill: #ffffff;
      }
    </style>
  </defs>
  <g id="group-57svg">
    <path d="M108.450,89.051 C59.393,89.051 19.623,128.821 19.623,177.881 C19.623,177.881 197.278,177.881 197.278,177.881 C197.278,128.821 157.509,89.051 108.450,89.051 Z" id="path-1" class="cls-3" fill-rule="evenodd"/>
    <path d="M113.223,89.183 C131.648,99.975 145.844,117.206 152.703,137.793 C157.320,151.645 146.497,165.867 131.896,165.867 C131.896,165.867 20.454,165.867 20.454,165.867 C19.922,169.799 19.623,173.804 19.623,177.881 C19.623,177.881 197.278,177.881 197.278,177.881 C197.278,130.423 160.062,91.662 113.223,89.183 Z" id="path-2" class="cls-4" fill-rule="evenodd"/>
    <path d="M216.887,212.006 C216.887,212.006 0.013,212.006 0.013,212.006 C0.013,212.006 0.013,177.881 0.013,177.881 C0.013,177.881 216.887,177.881 216.887,177.881 C216.887,177.881 216.887,212.006 216.887,212.006 Z" id="path-3" class="cls-5" fill-rule="evenodd"/>
    <path d="M196.866,177.881 C196.866,177.881 196.866,186.620 196.866,186.620 C196.866,196.217 189.086,203.997 179.489,203.997 C179.489,203.997 0.013,203.997 0.013,203.997 C0.013,203.997 0.013,212.006 0.013,212.006 C0.013,212.006 216.887,212.006 216.887,212.006 C216.887,212.006 216.887,177.881 216.887,177.881 C216.887,177.881 196.866,177.881 196.866,177.881 Z" id="path-4" class="cls-4" fill-rule="evenodd"/>
    <path d="M197.171,34.783 C197.171,34.783 155.395,120.853 155.395,120.853 C155.395,120.853 183.724,29.471 183.724,29.471 C183.724,29.471 197.171,34.783 197.171,34.783 Z" id="path-5" class="cls-7" fill-rule="evenodd"/>
    <path d="M131.503,18.721 C131.503,18.721 117.913,113.423 117.913,113.423 C117.913,113.423 117.077,17.753 117.077,17.753 C117.077,17.753 131.503,18.721 131.503,18.721 Z" id="path-6" class="cls-7" fill-rule="evenodd"/>
    <path d="M32.335,31.747 C32.335,31.747 60.665,123.131 60.665,123.131 C60.665,123.131 18.889,37.060 18.889,37.060 C18.889,37.060 32.335,31.747 32.335,31.747 Z" id="path-7" class="cls-7" fill-rule="evenodd"/>
    <path d="M215.753,23.020 C215.753,34.481 206.462,43.772 195.001,43.772 C183.541,43.772 174.249,34.481 174.249,23.020 C174.249,11.559 183.541,2.268 195.001,2.268 C206.462,2.268 215.753,11.559 215.753,23.020 Z" id="path-8" class="cls-5" fill-rule="evenodd"/>
    <path d="M145.169,20.743 C145.169,32.203 135.878,41.495 124.418,41.495 C112.957,41.495 103.666,32.203 103.666,20.743 C103.666,9.282 112.957,-0.009 124.418,-0.009 C135.878,-0.009 145.169,9.282 145.169,20.743 Z" id="path-9" class="cls-5" fill-rule="evenodd"/>
    <path d="M195.001,2.268 C193.630,2.268 192.294,2.418 190.997,2.672 C200.538,4.539 207.743,12.930 207.743,23.020 C207.743,33.110 200.538,41.500 190.997,43.368 C192.294,43.622 193.630,43.772 195.001,43.772 C206.462,43.772 215.753,34.481 215.753,23.020 C215.753,11.559 206.462,2.268 195.001,2.268 Z" id="path-10" class="cls-12" fill-rule="evenodd"/>
    <path d="M124.418,-0.009 C123.046,-0.009 121.711,0.141 120.413,0.395 C129.955,2.263 137.161,10.653 137.161,20.742 C137.161,30.832 129.955,39.223 120.413,41.091 C121.711,41.346 123.046,41.495 124.418,41.495 C135.878,41.495 145.169,32.203 145.169,20.742 C145.169,9.282 135.878,-0.009 124.418,-0.009 Z" id="path-11" class="cls-12" fill-rule="evenodd"/>
    <path d="M42.159,27.574 C42.159,39.035 32.869,48.326 21.409,48.326 C9.948,48.326 0.656,39.035 0.656,27.574 C0.656,16.113 9.948,6.821 21.409,6.821 C32.869,6.821 42.159,16.113 42.159,27.574 Z" id="path-12" class="cls-5" fill-rule="evenodd"/>
    <path d="M21.409,6.821 C20.036,6.821 18.701,6.971 17.404,7.226 C26.946,9.094 34.151,17.484 34.151,27.574 C34.151,37.663 26.946,46.054 17.404,47.921 C18.701,48.176 20.036,48.326 21.409,48.326 C32.869,48.326 42.159,39.035 42.159,27.574 C42.159,16.112 32.869,6.821 21.409,6.821 Z" id="path-13" class="cls-12" fill-rule="evenodd"/>
    <path d="M110.452,107.664 C110.452,111.198 107.585,114.065 104.050,114.065 C100.515,114.065 97.649,111.198 97.649,107.664 C97.649,104.128 100.515,101.262 104.050,101.262 C107.585,101.262 110.452,104.128 110.452,107.664 Z" id="path-14" class="cls-12" fill-rule="evenodd"/>
    <path d="M106.447,155.716 C106.447,159.251 103.581,162.117 100.047,162.117 C96.511,162.117 93.644,159.251 93.644,155.716 C93.644,152.180 96.511,149.315 100.047,149.315 C103.581,149.315 106.447,152.180 106.447,155.716 Z" id="path-15" class="cls-12" fill-rule="evenodd"/>
    <path d="M66.432,126.649 C63.931,129.149 59.879,129.149 57.379,126.649 C54.879,124.150 54.879,120.096 57.379,117.597 C59.879,115.097 63.931,115.097 66.432,117.597 C68.931,120.096 68.931,124.150 66.432,126.649 Z" id="path-16" class="cls-12" fill-rule="evenodd"/>
    <path d="M50.616,161.801 C48.116,164.301 44.062,164.301 41.562,161.801 C39.063,159.300 39.063,155.248 41.562,152.747 C44.062,150.247 48.116,150.247 50.616,152.747 C53.116,155.248 53.116,159.300 50.616,161.801 Z" id="path-17" class="cls-12" fill-rule="evenodd"/>
    <path d="M15.529,32.100 C13.030,34.599 8.976,34.599 6.477,32.100 C3.977,29.601 3.977,25.547 6.477,23.048 C8.976,20.548 13.030,20.548 15.529,23.048 C18.029,25.547 18.029,29.601 15.529,32.100 Z" id="path-18" class="cls-20" fill-rule="evenodd"/>
    <path d="M122.438,17.749 C119.938,20.249 115.886,20.249 113.386,17.749 C110.886,15.250 110.886,11.197 113.386,8.697 C115.886,6.197 119.938,6.197 122.438,8.697 C124.938,11.197 124.938,15.250 122.438,17.749 Z" id="path-19" class="cls-20" fill-rule="evenodd"/>
    <path d="M193.127,17.749 C190.627,20.249 186.573,20.249 184.074,17.749 C181.575,15.250 181.575,11.197 184.074,8.697 C186.573,6.197 190.627,6.197 193.127,8.697 C195.625,11.197 195.625,15.250 193.127,17.749 Z" id="path-20" class="cls-20" fill-rule="evenodd"/>
    <path d="M162.507,155.716 C162.507,159.251 159.641,162.117 156.105,162.117 C152.570,162.117 149.705,159.251 149.705,155.716 C149.705,152.180 152.570,149.315 156.105,149.315 C159.641,149.315 162.507,152.180 162.507,155.716 Z" id="path-21" class="cls-12" fill-rule="evenodd"/>
    <path d="M142.485,127.685 C142.485,131.221 139.620,134.087 136.084,134.087 C132.549,134.087 129.683,131.221 129.683,127.685 C129.683,124.150 132.549,121.283 136.084,121.283 C139.620,121.283 142.485,124.150 142.485,127.685 Z" id="path-22" class="cls-12" fill-rule="evenodd"/>
  </g>
</svg>
