<svg xmlns="http://www.w3.org/2000/svg" xmlns:xlink="http://www.w3.org/1999/xlink" preserveAspectRatio="xMidYMid" width="217" height="155" viewBox="0 0 217 155">
  <defs>
    <style>

      .cls-3 {
        fill: #ff3a2f;
      }

      .cls-4 {
        fill: #020403;
        opacity: 0.35;
      }

      .cls-5 {
        fill: #ffffff;
      }

      .cls-6 {
        fill: #142a3b;
      }

      .cls-7 {
        fill: #2476ff;
      }
    </style>
  </defs>
  <g id="group-41svg">
    <path d="M158.983,101.185 C158.983,131.117 134.719,155.381 104.788,155.381 C74.857,155.381 50.593,131.117 50.593,101.185 C50.593,71.253 74.857,46.988 104.788,46.988 C134.719,46.988 158.983,71.253 158.983,101.185 Z" id="path-1" class="cls-3" fill-rule="evenodd"/>
    <path d="M114.151,47.851 C128.614,57.583 138.130,74.100 138.130,92.843 C138.130,122.775 113.866,147.040 83.935,147.040 C80.735,147.040 77.619,146.708 74.571,146.177 C83.204,151.987 93.599,155.381 104.788,155.381 C134.719,155.381 158.983,131.117 158.983,101.185 C158.983,74.452 139.611,52.294 114.151,47.851 Z" id="path-2" class="cls-4" fill-rule="evenodd"/>
    <path d="M72.161,142.569 C71.237,142.569 70.312,142.216 69.606,141.510 C68.193,140.099 68.193,137.810 69.606,136.399 C89.325,116.677 89.325,84.587 69.606,64.865 C68.193,63.453 68.193,61.164 69.606,59.753 C71.018,58.341 73.305,58.341 74.716,59.753 C97.255,82.294 97.255,118.970 74.716,141.510 C74.010,142.216 73.086,142.569 72.161,142.569 Z" id="path-3" class="cls-5" fill-rule="evenodd"/>
    <path d="M186.584,101.185 C186.584,81.736 199.308,65.274 216.879,59.626 C212.665,58.271 208.178,57.523 203.514,57.523 C179.401,57.523 159.853,77.071 159.853,101.185 C159.853,125.298 179.401,144.847 203.514,144.847 C208.178,144.847 212.665,144.099 216.879,142.744 C199.308,137.096 186.584,120.634 186.584,101.185 Z" id="path-4" class="cls-6" fill-rule="evenodd"/>
    <path d="M48.689,40.376 C48.689,48.696 41.945,55.440 33.625,55.440 C25.306,55.440 18.563,48.696 18.563,40.376 C18.563,32.057 25.306,25.312 33.625,25.312 C41.945,25.312 48.689,32.057 48.689,40.376 Z" id="path-5" class="cls-7" fill-rule="evenodd"/>
    <path d="M16.130,8.048 C16.130,12.501 12.521,16.111 8.068,16.111 C3.615,16.111 0.006,12.501 0.006,8.048 C0.006,3.596 3.615,-0.014 8.068,-0.014 C12.521,-0.014 16.130,3.596 16.130,8.048 Z" id="path-6" class="cls-7" fill-rule="evenodd"/>
    <path d="M74.152,99.514 C74.152,103.286 71.096,106.342 67.324,106.342 C63.554,106.342 60.497,103.286 60.497,99.514 C60.497,95.743 63.554,92.685 67.324,92.685 C71.096,92.685 74.152,95.743 74.152,99.514 Z" id="path-7" class="cls-5" fill-rule="evenodd"/>
  </g>
</svg>
