<svg xmlns="http://www.w3.org/2000/svg" xmlns:xlink="http://www.w3.org/1999/xlink" preserveAspectRatio="xMidYMid" width="217" height="186" viewBox="0 0 217 186">
  <defs>
    <style>

      .cls-3 {
        fill: #fbb713;
      }

      .cls-4 {
        fill: #020403;
        opacity: 0.35;
      }

      .cls-5 {
        fill: #142a3b;
      }

      .cls-6 {
        fill: #ff3a2f;
      }

      .cls-7 {
        fill: #2476ff;
      }

      .cls-8 {
        fill: #efefef;
      }

      .cls-12 {
        fill: #ffffff;
      }
    </style>
  </defs>
  <g id="group-143svg">
    <path d="M144.014,185.942 C144.014,185.942 61.879,185.942 61.879,185.942 C61.879,185.942 32.544,45.623 32.544,45.623 C32.544,45.623 173.349,45.623 173.349,45.623 C173.349,45.623 144.014,185.942 144.014,185.942 Z" id="path-1" class="cls-3" fill-rule="evenodd"/>
    <path d="M161.660,109.742 C154.059,118.892 144.369,126.228 133.328,131.045 C133.328,131.045 133.328,127.846 133.328,127.846 C133.328,127.846 80.771,127.846 80.771,127.846 C80.771,127.846 80.771,134.081 80.771,134.081 C66.323,129.688 53.688,121.139 44.249,109.815 C44.249,109.815 45.112,113.945 45.112,113.945 C53.975,126.160 66.361,135.640 80.771,140.923 C80.771,140.923 80.771,145.937 80.771,145.937 C80.771,145.937 133.328,145.937 133.328,145.937 C133.328,145.937 133.328,140.851 133.328,140.851 C142.625,137.420 151.099,132.286 158.313,125.756 C158.313,125.756 161.660,109.742 161.660,109.742 Z" id="path-2" class="cls-4" fill-rule="evenodd"/>
    <path d="M102.947,128.687 C58.764,128.687 22.818,92.740 22.818,48.556 C22.818,47.183 22.853,45.818 22.923,44.463 C22.923,44.463 23.095,41.030 23.095,41.030 C23.095,41.030 42.439,41.030 42.439,41.030 C42.439,41.030 42.439,48.260 42.439,48.260 C42.439,48.260 30.047,48.260 30.047,48.260 C30.047,48.359 30.047,48.458 30.047,48.556 C30.047,88.755 62.749,121.458 102.947,121.458 C143.144,121.458 175.846,88.755 175.846,48.556 C175.846,48.458 175.846,48.359 175.846,48.260 C175.846,48.260 169.317,48.260 169.317,48.260 C169.317,48.260 169.317,41.030 169.317,41.030 C169.317,41.030 182.798,41.030 182.798,41.030 C182.798,41.030 182.971,44.463 182.971,44.463 C183.040,45.818 183.075,47.183 183.075,48.556 C183.075,92.740 147.130,128.687 102.947,128.687 Z" id="path-3" class="cls-5" fill-rule="evenodd"/>
    <path d="M129.225,129.526 C129.225,129.526 76.668,129.526 76.668,129.526 C76.668,129.526 76.668,111.436 76.668,111.436 C76.668,111.436 129.225,111.436 129.225,111.436 C129.225,111.436 129.225,129.526 129.225,129.526 Z" id="path-4" class="cls-6" fill-rule="evenodd"/>
    <path d="M154.118,28.201 C149.406,28.201 145.095,30.003 141.750,32.980 C137.530,24.117 128.878,18.024 118.861,18.024 C105.900,18.024 95.214,28.213 93.491,41.429 C91.035,36.390 86.126,32.908 80.400,32.908 C77.514,32.908 74.841,33.818 72.566,35.332 C69.039,30.974 63.811,28.201 57.964,28.201 C47.342,28.201 38.732,37.314 38.732,48.556 C38.732,48.556 173.349,48.556 173.349,48.556 C173.349,37.314 164.740,28.201 154.118,28.201 Z" id="path-5" class="cls-7" fill-rule="evenodd"/>
    <path d="M102.949,42.689 C102.871,42.689 102.794,42.686 102.714,42.675 C101.725,42.547 101.025,41.639 101.156,40.648 C102.567,29.828 111.449,21.666 121.819,21.666 C129.758,21.666 136.908,26.324 140.480,33.820 C140.909,34.723 140.526,35.799 139.624,36.229 C138.717,36.659 137.644,36.274 137.215,35.375 C134.250,29.149 128.352,25.280 121.819,25.280 C113.260,25.280 105.916,32.089 104.739,41.116 C104.620,42.026 103.844,42.689 102.949,42.689 Z" id="path-6" class="cls-8" fill-rule="evenodd"/>
    <path d="M44.124,48.431 C43.212,48.431 42.430,47.746 42.329,46.820 C41.655,40.568 45.540,34.793 51.366,33.384 C52.333,33.150 53.312,33.746 53.547,34.717 C53.782,35.687 53.185,36.662 52.217,36.898 C48.148,37.880 45.443,41.980 45.923,46.431 C46.030,47.423 45.312,48.313 44.320,48.422 C44.255,48.429 44.188,48.431 44.124,48.431 Z" id="path-7" class="cls-8" fill-rule="evenodd"/>
    <path d="M216.862,44.645 C216.862,51.531 211.280,57.112 204.394,57.112 C197.509,57.112 191.928,51.531 191.928,44.645 C191.928,37.759 197.509,32.178 204.394,32.178 C211.280,32.178 216.862,37.759 216.862,44.645 Z" id="path-8" class="cls-7" fill-rule="evenodd"/>
    <path d="M18.247,28.352 C18.247,33.394 14.160,37.481 9.118,37.481 C4.075,37.481 -0.012,33.394 -0.012,28.352 C-0.012,23.309 4.075,19.222 9.118,19.222 C14.160,19.222 18.247,23.309 18.247,28.352 Z" id="path-9" class="cls-7" fill-rule="evenodd"/>
    <path d="M11.393,26.034 C11.393,28.430 9.451,30.373 7.054,30.373 C4.657,30.373 2.715,28.430 2.715,26.034 C2.715,23.638 4.657,21.694 7.054,21.694 C9.451,21.694 11.393,23.638 11.393,26.034 Z" id="path-10" class="cls-12" fill-rule="evenodd"/>
    <path d="M213.073,40.882 C213.073,43.279 211.130,45.222 208.734,45.222 C206.338,45.222 204.394,43.279 204.394,40.882 C204.394,38.487 206.338,36.543 208.734,36.543 C211.130,36.543 213.073,38.487 213.073,40.882 Z" id="path-11" class="cls-12" fill-rule="evenodd"/>
    <path d="M62.735,7.778 C62.735,12.074 59.254,15.554 54.959,15.554 C50.664,15.554 47.183,12.074 47.183,7.778 C47.183,3.485 50.664,0.003 54.959,0.003 C59.254,0.003 62.735,3.485 62.735,7.778 Z" id="path-12" class="cls-7" fill-rule="evenodd"/>
    <path d="M177.383,11.888 C177.383,14.115 175.577,15.922 173.349,15.922 C171.122,15.922 169.316,14.115 169.316,11.888 C169.316,9.660 171.122,7.854 173.349,7.854 C175.577,7.854 177.383,9.660 177.383,11.888 Z" id="path-13" class="cls-7" fill-rule="evenodd"/>
  </g>
</svg>
