<svg xmlns="http://www.w3.org/2000/svg" xmlns:xlink="http://www.w3.org/1999/xlink" preserveAspectRatio="xMidYMid" width="214" height="217" viewBox="0 0 214 217">
  <defs>
    <style>

      .cls-3 {
        fill: #0cb04a;
      }

      .cls-5 {
        fill: #ffffff;
      }

      .cls-7 {
        fill: #fbb713;
      }

      .cls-8 {
        fill: #fccb56;
      }

      .cls-9 {
        fill: #0b0b0a;
        opacity: 0.35;
      }
    </style>
  </defs>
  <g id="group-33svg">
    <path d="M21.838,56.461 C26.796,61.419 26.796,69.457 21.838,74.414 C16.880,79.372 8.842,79.372 3.884,74.414 C-1.073,69.457 -1.073,61.419 3.884,56.461 C8.842,51.503 16.880,51.503 21.838,56.461 Z" id="path-1" class="cls-3" fill-rule="evenodd"/>
    <path d="M207.678,149.921 C215.567,157.810 215.567,170.603 207.678,178.492 C199.789,186.382 186.997,186.382 179.108,178.492 C171.218,170.603 171.218,157.810 179.108,149.921 C186.997,142.032 199.789,142.032 207.678,149.921 Z" id="path-2" class="cls-3" fill-rule="evenodd"/>
    <path d="M202.740,154.860 C205.289,157.409 205.289,161.542 202.740,164.091 C200.190,166.640 196.058,166.640 193.508,164.091 C190.959,161.542 190.959,157.409 193.508,154.860 C196.058,152.311 200.190,152.311 202.740,154.860 Z" id="path-3" class="cls-5" fill-rule="evenodd"/>
    <path d="M62.939,2.399 C66.146,5.606 66.146,10.807 62.939,14.013 C59.731,17.221 54.531,17.221 51.324,14.013 C48.116,10.807 48.116,5.606 51.324,2.399 C54.531,-0.809 59.731,-0.809 62.939,2.399 Z" id="path-4" class="cls-3" fill-rule="evenodd"/>
    <path d="M179.120,73.629 C179.120,73.629 178.341,74.044 178.341,74.044 C178.603,82.478 176.185,90.085 170.747,95.523 C170.747,95.523 160.438,105.832 160.438,105.832 C144.926,107.220 128.350,114.934 114.851,128.434 C101.351,141.934 93.637,158.511 92.250,174.022 C92.250,174.022 80.128,186.145 80.128,186.145 C66.448,199.825 39.130,194.686 19.111,174.665 C15.560,171.114 12.502,167.328 9.909,163.433 C9.909,163.433 8.320,164.277 8.320,164.277 C10.285,175.481 16.618,187.552 26.801,197.734 C46.820,217.754 74.138,222.894 87.817,209.213 C87.817,209.213 99.939,197.091 99.939,197.091 C101.326,181.579 109.041,165.003 122.540,151.503 C136.039,138.003 152.616,130.289 168.128,128.901 C168.128,128.901 178.436,118.592 178.436,118.592 C188.696,108.332 188.370,90.401 179.120,73.629 Z" id="path-5" class="cls-7" fill-rule="evenodd"/>
    <path d="M66.226,79.808 C52.174,93.861 34.792,101.634 18.743,102.537 C18.743,102.537 7.633,113.647 7.633,113.647 C-6.047,127.327 -0.907,154.646 19.111,174.665 C39.130,194.686 66.448,199.825 80.128,186.145 C80.128,186.145 92.250,174.023 92.250,174.023 C93.637,158.511 101.351,141.934 114.851,128.434 C128.350,114.934 144.926,107.220 160.438,105.832 C160.438,105.832 170.747,95.523 170.747,95.523 C184.427,81.844 179.288,54.525 159.268,34.505 C139.249,14.486 111.931,9.347 98.252,23.026 C98.252,23.026 88.954,32.325 88.954,32.325 C88.050,48.373 80.277,65.757 66.226,79.808 Z" id="path-6" class="cls-8" fill-rule="evenodd"/>
    <path d="M32.931,112.493 C37.889,117.451 37.889,125.488 32.931,130.446 C27.973,135.404 19.935,135.404 14.978,130.446 C10.020,125.488 10.020,117.451 14.978,112.493 C19.935,107.535 27.973,107.535 32.931,112.493 Z" id="path-7" class="cls-9" fill-rule="evenodd"/>
    <path d="M158.020,115.662 C161.228,118.870 161.228,124.070 158.020,127.277 C154.813,130.484 149.613,130.484 146.405,127.277 C143.198,124.070 143.198,118.870 146.405,115.662 C149.613,112.455 154.813,112.455 158.020,115.662 Z" id="path-8" class="cls-9" fill-rule="evenodd"/>
    <path d="M117.035,19.770 C120.242,22.976 120.242,28.177 117.035,31.385 C113.827,34.592 108.627,34.592 105.419,31.385 C102.212,28.177 102.212,22.976 105.419,19.770 C108.627,16.562 113.827,16.562 117.035,19.770 Z" id="path-9" class="cls-9" fill-rule="evenodd"/>
    <path d="M99.129,97.444 C104.618,102.935 104.618,111.834 99.129,117.324 C93.640,122.812 84.741,122.812 79.250,117.324 C73.762,111.834 73.762,102.935 79.250,97.444 C84.741,91.955 93.640,91.955 99.129,97.444 Z" id="path-10" class="cls-9" fill-rule="evenodd"/>
    <path d="M176.207,68.194 C181.697,73.683 181.697,82.583 176.207,88.072 C170.719,93.561 161.819,93.561 156.329,88.072 C150.841,82.583 150.841,73.683 156.329,68.194 C161.819,62.705 170.719,62.705 176.207,68.194 Z" id="path-11" class="cls-9" fill-rule="evenodd"/>
    <path d="M43.431,173.309 C46.639,176.517 46.639,181.718 43.431,184.925 C40.224,188.132 35.024,188.132 31.816,184.925 C28.609,181.718 28.609,176.517 31.816,173.309 C35.024,170.103 40.224,170.103 43.431,173.309 Z" id="path-12" class="cls-9" fill-rule="evenodd"/>
  </g>
</svg>
