<svg xmlns="http://www.w3.org/2000/svg" xmlns:xlink="http://www.w3.org/1999/xlink" preserveAspectRatio="xMidYMid" width="217" height="213" viewBox="0 0 217 213">
  <defs>
    <style>

      .cls-3 {
        fill: #fbb713;
      }

      .cls-4 {
        fill: #ffffff;
      }

      .cls-5 {
        fill: #020403;
        opacity: 0.25;
      }

      .cls-7 {
        fill: #ff3a2f;
      }

      .cls-8 {
        fill: #020403;
        opacity: 0.35;
      }

      .cls-10 {
        fill: #142a3b;
      }

      .cls-11 {
        fill: #020403;
      }
    </style>
  </defs>
  <g id="group-72svg">
    <path d="M64.079,177.712 C64.079,177.712 53.699,177.712 53.699,177.712 C35.272,177.712 21.380,162.752 21.380,142.914 C21.380,142.914 21.380,111.067 21.380,111.067 C21.380,108.610 23.367,106.624 25.823,106.624 C25.823,106.624 96.910,106.624 96.910,106.624 C99.365,106.624 101.352,108.610 101.352,111.067 C101.352,111.067 101.352,142.914 101.352,142.914 C101.352,161.450 83.937,177.712 64.079,177.712 Z" id="path-1" class="cls-3" fill-rule="evenodd"/>
    <path d="M34.175,155.060 C32.179,155.060 30.561,153.442 30.561,151.445 C30.561,151.445 30.561,119.598 30.561,119.598 C30.561,115.155 34.175,111.539 38.619,111.539 C40.615,111.539 42.233,113.158 42.233,115.155 C42.233,117.151 40.615,118.769 38.619,118.769 C38.162,118.769 37.789,119.141 37.789,119.598 C37.789,119.598 37.789,151.445 37.789,151.445 C37.789,153.442 36.171,155.060 34.175,155.060 Z" id="path-2" class="cls-4" fill-rule="evenodd"/>
    <path d="M96.909,106.624 C96.909,106.624 80.026,106.624 80.026,106.624 C80.026,106.624 80.026,134.385 80.026,134.385 C80.026,152.919 62.610,169.182 42.752,169.182 C42.752,169.182 32.373,169.182 32.373,169.182 C32.275,169.182 32.180,169.167 32.081,169.167 C37.729,174.518 45.222,177.712 53.699,177.712 C53.699,177.712 64.079,177.712 64.079,177.712 C83.937,177.712 101.352,161.450 101.352,142.915 C101.352,142.915 101.352,111.067 101.352,111.067 C101.352,108.610 99.365,106.624 96.909,106.624 Z" id="path-3" class="cls-5" fill-rule="evenodd"/>
    <path d="M26.241,154.669 C26.241,154.669 14.276,154.669 14.276,154.669 C7.689,154.669 -0.007,150.279 -0.007,137.907 C-0.007,137.907 -0.007,128.657 -0.007,128.657 C-0.007,116.285 7.689,111.896 14.276,111.896 C14.276,111.896 24.882,111.896 24.882,111.896 C24.882,111.896 26.241,154.669 26.241,154.669 ZM14.276,119.125 C11.060,119.125 7.222,120.779 7.222,128.657 C7.222,128.657 7.222,137.907 7.222,137.907 C7.222,145.786 11.060,147.441 14.276,147.441 C14.276,147.441 18.780,147.441 18.780,147.441 C18.780,147.441 17.879,119.125 17.879,119.125 C17.879,119.125 14.276,119.125 14.276,119.125 Z" id="path-4" class="cls-3" fill-rule="evenodd"/>
    <path d="M212.425,213.256 C212.425,213.256 8.051,213.256 8.051,213.256 C5.596,213.256 3.609,211.269 3.609,208.813 C3.609,208.813 3.609,173.270 3.609,173.270 C3.609,170.812 5.596,168.826 8.051,168.826 C8.051,168.826 108.733,168.826 108.733,168.826 C108.733,168.826 133.168,71.080 133.168,71.080 C133.168,71.080 8.051,71.080 8.051,71.080 C5.596,71.080 3.609,69.093 3.609,66.637 C3.609,66.637 3.609,4.435 3.609,4.435 C3.609,1.979 5.596,-0.008 8.051,-0.008 C8.051,-0.008 212.425,-0.008 212.425,-0.008 C214.881,-0.008 216.867,1.979 216.867,4.435 C216.867,4.435 216.867,208.813 216.867,208.813 C216.867,211.269 214.881,213.256 212.425,213.256 Z" id="path-5" class="cls-7" fill-rule="evenodd"/>
    <path d="M9.710,71.080 C9.710,71.080 142.003,71.080 142.003,71.080 C142.003,71.080 146.396,58.284 146.396,58.284 C146.396,58.284 3.609,58.284 3.609,58.284 C3.609,58.284 3.609,66.637 3.609,66.637 C3.609,69.093 6.337,71.080 9.710,71.080 Z" id="path-6" class="cls-8" fill-rule="evenodd"/>
    <path d="M212.425,-0.008 C212.425,-0.008 191.276,-0.008 191.276,-0.008 C191.276,-0.008 191.276,196.017 191.276,196.017 C191.276,198.473 189.290,200.460 186.833,200.460 C186.833,200.460 3.609,200.460 3.609,200.460 C3.609,200.460 3.609,208.813 3.609,208.813 C3.609,211.269 5.596,213.255 8.051,213.255 C8.051,213.255 212.425,213.255 212.425,213.255 C214.881,213.255 216.867,211.269 216.867,208.813 C216.867,208.813 216.867,4.435 216.867,4.435 C216.867,1.979 214.881,-0.008 212.425,-0.008 Z" id="path-7" class="cls-5" fill-rule="evenodd"/>
    <path d="M65.809,88.852 C65.809,88.852 56.923,88.852 56.923,88.852 C56.923,88.852 56.923,71.080 56.923,71.080 C56.923,71.080 65.809,71.080 65.809,71.080 C65.809,71.080 65.809,88.852 65.809,88.852 Z" id="path-8" class="cls-10" fill-rule="evenodd"/>
    <path d="M198.919,204.015 C198.919,204.015 163.376,204.015 163.376,204.015 C160.918,204.015 158.932,202.028 158.932,199.572 C158.932,199.572 158.932,181.799 158.932,181.799 C158.932,179.344 160.918,177.358 163.376,177.358 C163.376,177.358 198.919,177.358 198.919,177.358 C201.374,177.358 203.362,179.344 203.362,181.799 C203.362,181.799 203.362,199.572 203.362,199.572 C203.362,202.028 201.374,204.015 198.919,204.015 Z" id="path-9" class="cls-11" fill-rule="evenodd"/>
    <path d="M194.653,195.485 C194.653,195.485 159.110,195.485 159.110,195.485 C156.653,195.485 154.667,193.498 154.667,191.041 C154.667,191.041 154.667,173.270 154.667,173.270 C154.667,170.812 156.653,168.826 159.110,168.826 C159.110,168.826 194.653,168.826 194.653,168.826 C197.109,168.826 199.096,170.812 199.096,173.270 C199.096,173.270 199.096,191.041 199.096,191.041 C199.096,193.498 197.109,195.485 194.653,195.485 Z" id="path-10" class="cls-10" fill-rule="evenodd"/>
  </g>
</svg>
