<svg xmlns="http://www.w3.org/2000/svg" xmlns:xlink="http://www.w3.org/1999/xlink" preserveAspectRatio="xMidYMid" width="203" height="217" viewBox="0 0 203 217">
  <defs>
    <style>

      .cls-3 {
        fill: #142a3b;
      }

      .cls-5 {
        fill: #ffffff;
      }

      .cls-6 {
        fill: #2476ff;
      }

      .cls-15 {
        fill: #000000;
        opacity: 0.35;
      }

      .cls-18 {
        fill: #fbb713;
      }

      .cls-19 {
        fill: #000000;
        opacity: 0.25;
      }

      .cls-21 {
        fill: #ff3a2f;
      }
    </style>
  </defs>
  <g id="group-14svg">
    <path d="M173.740,90.404 C173.740,90.404 166.511,90.404 166.511,90.404 C166.511,90.404 166.511,28.244 166.511,28.244 C166.511,19.287 159.224,12.000 150.266,12.000 C141.310,12.000 134.022,19.287 134.022,28.244 C134.022,28.244 126.793,28.244 126.793,28.244 C126.793,15.300 137.322,4.770 150.266,4.770 C163.210,4.770 173.740,15.300 173.740,28.244 C173.740,28.244 173.740,90.404 173.740,90.404 Z" id="path-1" class="cls-3" fill-rule="evenodd"/>
    <path d="M149.002,51.957 C149.399,50.654 149.688,49.299 149.836,47.895 C151.085,36.031 142.479,25.400 130.616,24.152 C118.752,22.903 108.123,31.509 106.874,43.372 C106.726,44.776 106.727,46.162 106.844,47.517 C106.844,47.517 149.002,51.957 149.002,51.957 Z" id="path-2" class="cls-3" fill-rule="evenodd"/>
    <path d="M42.505,168.084 C41.237,168.084 40.006,167.415 39.344,166.228 C33.616,155.943 30.587,144.248 30.587,132.406 C30.587,132.406 30.587,111.122 30.587,111.122 C30.587,109.125 32.205,107.506 34.202,107.506 C36.198,107.506 37.816,109.125 37.816,111.122 C37.816,111.122 37.816,132.406 37.816,132.406 C37.816,143.019 40.529,153.498 45.660,162.710 C46.631,164.453 46.006,166.655 44.262,167.626 C43.704,167.938 43.101,168.084 42.505,168.084 Z" id="path-3" class="cls-5" fill-rule="evenodd"/>
    <path d="M68.392,90.404 C68.766,88.849 69.016,87.247 69.016,85.577 C69.016,74.144 59.747,64.876 48.314,64.876 C36.881,64.876 27.613,74.144 27.613,85.577 C27.613,87.247 27.863,88.849 28.237,90.404 C28.237,90.404 68.392,90.404 68.392,90.404 Z" id="path-4" class="cls-6" fill-rule="evenodd"/>
    <path d="M24.853,26.775 C24.853,33.635 19.291,39.196 12.431,39.196 C5.570,39.196 0.010,33.635 0.010,26.775 C0.010,19.914 5.570,14.353 12.431,14.353 C19.291,14.353 24.853,19.914 24.853,26.775 Z" id="path-5" class="cls-6" fill-rule="evenodd"/>
    <path d="M17.025,22.586 C17.025,25.122 14.968,27.179 12.431,27.179 C9.894,27.179 7.838,25.122 7.838,22.586 C7.838,20.049 9.894,17.992 12.431,17.992 C14.968,17.992 17.025,20.049 17.025,22.586 Z" id="path-6" class="cls-5" fill-rule="evenodd"/>
    <path d="M49.182,77.048 C49.182,81.150 45.858,84.474 41.756,84.474 C37.655,84.474 34.331,81.150 34.331,77.048 C34.331,72.946 37.655,69.622 41.756,69.622 C45.858,69.622 49.182,72.946 49.182,77.048 Z" id="path-7" class="cls-5" fill-rule="evenodd"/>
    <path d="M85.088,8.042 C85.088,12.480 81.490,16.078 77.052,16.078 C72.614,16.078 69.016,12.480 69.016,8.042 C69.016,3.604 72.614,0.006 77.052,0.006 C81.490,0.006 85.088,3.604 85.088,8.042 Z" id="path-8" class="cls-6" fill-rule="evenodd"/>
    <path d="M117.959,72.177 C117.959,69.767 122.321,64.321 122.321,64.321 C122.321,64.321 126.682,69.767 126.682,72.177 C126.682,74.586 124.730,76.539 122.321,76.539 C119.912,76.539 117.959,74.586 117.959,72.177 Z" id="path-9" class="cls-6" fill-rule="evenodd"/>
    <path d="M130.527,80.556 C130.527,78.146 134.888,72.699 134.888,72.699 C134.888,72.699 139.250,78.146 139.250,80.556 C139.250,82.964 137.297,84.918 134.888,84.918 C132.479,84.918 130.527,82.964 130.527,80.556 Z" id="path-10" class="cls-6" fill-rule="evenodd"/>
    <path d="M105.391,59.608 C105.391,57.199 109.753,51.752 109.753,51.752 C109.753,51.752 114.114,57.199 114.114,59.608 C114.114,62.017 112.161,63.970 109.753,63.970 C107.343,63.970 105.391,62.017 105.391,59.608 Z" id="path-11" class="cls-6" fill-rule="evenodd"/>
    <path d="M36.726,203.318 C36.726,203.318 57.048,184.501 57.048,184.501 C60.634,185.336 64.353,185.821 68.193,185.821 C68.193,185.821 74.513,185.821 74.513,185.821 C74.513,185.821 53.389,206.080 53.389,206.080 C52.486,206.864 52.004,207.784 52.004,208.725 C52.004,208.725 52.004,212.083 52.004,212.083 C52.004,214.736 48.260,216.885 43.642,216.885 C39.023,216.885 35.279,214.736 35.279,212.083 C35.279,212.083 35.279,206.017 35.279,206.017 C35.279,205.055 35.784,204.114 36.726,203.318 Z" id="path-12" class="cls-3" fill-rule="evenodd"/>
    <path d="M57.048,184.501 C57.048,184.501 43.393,197.144 43.393,197.144 C43.393,197.144 62.705,197.144 62.705,197.144 C62.705,197.144 74.513,185.821 74.513,185.821 C74.513,185.821 68.193,185.821 68.193,185.821 C64.353,185.821 60.634,185.335 57.048,184.501 Z" id="path-13" class="cls-15" fill-rule="evenodd"/>
    <path d="M175.915,203.318 C175.915,203.318 155.594,184.501 155.594,184.501 C152.008,185.336 148.288,185.821 144.448,185.821 C144.448,185.821 138.128,185.821 138.128,185.821 C138.128,185.821 159.252,206.080 159.252,206.080 C160.155,206.864 160.636,207.784 160.636,208.725 C160.636,208.725 160.636,212.083 160.636,212.083 C160.636,214.736 164.381,216.885 168.999,216.885 C173.618,216.885 177.362,214.736 177.362,212.083 C177.362,212.083 177.362,206.017 177.362,206.017 C177.362,205.055 176.857,204.114 175.915,203.318 Z" id="path-14" class="cls-3" fill-rule="evenodd"/>
    <path d="M155.594,184.501 C152.008,185.335 148.288,185.821 144.448,185.821 C144.448,185.821 138.128,185.821 138.128,185.821 C138.128,185.821 149.936,197.144 149.936,197.144 C149.936,197.144 169.248,197.144 169.248,197.144 C169.248,197.144 155.594,184.501 155.594,184.501 Z" id="path-15" class="cls-15" fill-rule="evenodd"/>
    <path d="M175.166,190.010 C175.166,190.010 35.814,190.010 35.814,190.010 C25.670,190.010 17.445,181.786 17.445,171.641 C17.445,171.641 17.445,102.742 17.445,102.742 C17.445,102.742 193.535,102.742 193.535,102.742 C193.535,102.742 193.535,171.641 193.535,171.641 C193.535,181.786 185.311,190.010 175.166,190.010 Z" id="path-16" class="cls-18" fill-rule="evenodd"/>
    <path d="M180.968,102.742 C180.968,102.742 180.968,115.649 180.968,115.649 C180.968,152.090 151.426,181.632 114.986,181.632 C114.986,181.632 70.858,181.632 70.858,181.632 C60.013,181.632 49.807,178.966 40.780,174.329 C52.286,184.093 67.156,190.010 83.427,190.010 C83.427,190.010 127.553,190.010 127.553,190.010 C163.994,190.010 193.535,160.468 193.535,124.027 C193.535,124.027 193.535,102.742 193.535,102.742 C193.535,102.742 180.968,102.742 180.968,102.742 Z" id="path-17" class="cls-19" fill-rule="evenodd"/>
    <path d="M17.445,110.333 C17.445,110.333 193.535,118.247 193.535,118.247 C193.535,118.247 193.535,101.739 193.535,101.739 C193.535,101.739 17.445,101.739 17.445,101.739 C17.445,101.739 17.445,110.333 17.445,110.333 Z" id="path-18" class="cls-15" fill-rule="evenodd"/>
    <path d="M201.058,105.928 C201.058,105.928 9.922,105.928 9.922,105.928 C8.913,105.928 8.095,105.109 8.095,104.100 C8.095,104.100 8.095,92.232 8.095,92.232 C8.095,91.223 8.913,90.404 9.922,90.404 C9.922,90.404 201.058,90.404 201.058,90.404 C202.067,90.404 202.885,91.223 202.885,92.232 C202.885,92.232 202.885,104.100 202.885,104.100 C202.885,105.109 202.067,105.928 201.058,105.928 Z" id="path-19" class="cls-21" fill-rule="evenodd"/>
  </g>
</svg>
