<svg xmlns="http://www.w3.org/2000/svg" xmlns:xlink="http://www.w3.org/1999/xlink" preserveAspectRatio="xMidYMid" width="218" height="202" viewBox="0 0 218 202">
  <defs>
    <style>

      .cls-3 {
        fill: #ff3a2f;
      }

      .cls-4 {
        fill: #020403;
        opacity: 0.35;
      }
    </style>
  </defs>
  <g id="group-106svg">
    <path d="M200.918,15.955 C179.622,-5.341 144.977,-5.342 123.681,15.952 C104.479,35.156 102.759,65.114 118.179,86.446 C118.179,86.446 64.163,140.462 64.163,140.462 C64.163,140.462 54.042,130.339 54.042,130.339 C54.042,130.339 41.791,142.591 41.791,142.591 C41.791,142.591 51.913,152.712 51.913,152.712 C51.913,152.712 38.634,165.991 38.634,165.991 C38.634,165.991 12.266,139.623 12.266,139.623 C12.266,139.623 0.016,151.873 0.016,151.873 C0.016,151.873 26.383,178.243 26.383,178.243 C26.383,178.243 15.638,188.987 15.638,188.987 C15.638,188.987 27.890,201.239 27.890,201.239 C27.890,201.239 130.429,98.696 130.429,98.696 C151.761,114.118 181.717,112.394 200.919,93.193 C222.213,71.896 222.212,37.250 200.918,15.955 ZM141.629,75.244 C130.112,63.727 130.112,45.055 141.629,33.538 C153.147,22.021 171.817,22.022 183.334,33.538 C194.851,45.055 194.851,63.727 183.334,75.244 C171.817,86.762 153.147,86.761 141.629,75.244 Z" id="path-1" class="cls-3" fill-rule="evenodd"/>
    <path d="M138.920,71.926 C130.315,60.379 131.145,44.023 141.629,33.536 C152.113,23.053 168.470,22.224 180.017,30.830 C179.170,29.692 178.340,28.545 177.308,27.511 C165.791,15.995 147.119,15.995 135.603,27.511 C124.086,39.028 124.086,57.700 135.603,69.217 C136.635,70.249 137.783,71.080 138.920,71.926 Z" id="path-2" class="cls-4" fill-rule="evenodd"/>
    <path d="M52.964,151.575 C52.964,151.575 42.843,141.454 42.843,141.454 C42.843,141.454 45.398,138.899 45.398,138.899 C45.398,138.899 55.521,149.020 55.521,149.020 C55.521,149.020 52.964,151.575 52.964,151.575 Z" id="path-3" class="cls-4" fill-rule="evenodd"/>
    <path d="M35.723,169.882 C35.723,169.882 8.816,143.080 8.816,143.080 C8.816,143.080 11.284,140.444 11.284,140.444 C11.284,140.444 12.184,141.236 12.184,141.236 C12.184,141.236 38.279,167.326 38.279,167.326 C38.279,167.326 35.723,169.882 35.723,169.882 Z" id="path-4" class="cls-4" fill-rule="evenodd"/>
    <path d="M200.918,15.955 C199.902,14.939 198.827,14.014 197.752,13.094 C216.092,34.528 215.170,66.886 194.892,87.165 C175.690,106.367 145.734,108.092 124.403,92.669 C124.403,92.669 21.865,195.211 21.865,195.211 C21.865,195.211 27.890,201.239 27.890,201.239 C27.890,201.239 130.429,98.696 130.429,98.696 C151.761,114.118 181.717,112.394 200.919,93.191 C222.213,71.896 222.212,37.248 200.918,15.955 Z" id="path-5" class="cls-4" fill-rule="evenodd"/>
  </g>
</svg>
