<svg xmlns="http://www.w3.org/2000/svg" xmlns:xlink="http://www.w3.org/1999/xlink" preserveAspectRatio="xMidYMid" width="217" height="207" viewBox="0 0 217 207">
  <defs>
    <style>

      .cls-3 {
        fill: #fbb713;
      }

      .cls-5 {
        fill: #020403;
        opacity: 0.35;
      }

      .cls-7 {
        fill: #b17d0a;
      }

      .cls-10 {
        fill: #2476ff;
      }
    </style>
  </defs>
  <g id="group-112svg">
    <path d="M160.997,99.928 C160.997,99.928 216.889,104.896 216.889,104.896 C216.889,104.896 216.889,40.246 216.889,40.246 C216.889,24.237 203.912,11.259 187.903,11.259 C187.903,11.259 155.607,11.259 155.607,11.259 C155.607,11.259 160.997,99.928 160.997,99.928 Z" id="path-1" class="cls-3" fill-rule="evenodd"/>
    <path d="M58.007,99.928 C58.007,99.928 0.015,104.896 0.015,104.896 C0.015,104.896 0.015,40.246 0.015,40.246 C0.015,24.237 12.993,11.259 29.002,11.259 C29.002,11.259 60.700,11.259 60.700,11.259 C60.700,11.259 58.007,99.928 58.007,99.928 Z" id="path-2" class="cls-3" fill-rule="evenodd"/>
    <path d="M180.775,11.259 C180.775,11.259 155.607,11.259 155.607,11.259 C155.607,11.259 160.997,99.928 160.997,99.928 C160.997,99.928 170.837,101.685 170.837,101.685 C170.837,101.685 180.775,11.259 180.775,11.259 Z" id="path-3" class="cls-5" fill-rule="evenodd"/>
    <path d="M51.265,101.356 C51.265,101.356 58.008,99.928 58.008,99.928 C58.008,99.928 60.700,11.259 60.700,11.259 C60.700,11.259 36.360,11.259 36.360,11.259 C36.360,11.259 51.265,101.356 51.265,101.356 Z" id="path-4" class="cls-5" fill-rule="evenodd"/>
    <path d="M160.568,191.611 C160.568,191.611 216.889,104.896 216.889,104.896 C216.889,104.896 154.597,89.440 154.597,89.440 C154.597,89.440 160.568,191.611 160.568,191.611 Z" id="path-5" class="cls-7" fill-rule="evenodd"/>
    <path d="M57.881,194.565 C57.881,194.565 0.015,104.896 0.015,104.896 C0.015,104.896 69.916,89.440 69.916,89.440 C69.916,89.440 57.881,194.565 57.881,194.565 Z" id="path-6" class="cls-7" fill-rule="evenodd"/>
    <path d="M157.610,206.695 C157.610,206.695 59.295,206.695 59.295,206.695 C56.500,206.695 54.234,204.429 54.234,201.633 C54.234,201.633 54.234,5.061 54.234,5.061 C54.234,2.265 56.500,-0.000 59.295,-0.000 C59.295,-0.000 157.610,-0.000 157.610,-0.000 C160.405,-0.000 162.671,2.265 162.671,5.061 C162.671,5.061 162.671,201.633 162.671,201.633 C162.671,204.429 160.405,206.695 157.610,206.695 Z" id="path-7" class="cls-3" fill-rule="evenodd"/>
    <path d="M134.674,63.892 C134.674,78.002 123.236,89.440 109.127,89.440 C95.018,89.440 83.580,78.002 83.580,63.892 C83.580,49.781 95.018,38.344 109.127,38.344 C123.236,38.344 134.674,49.781 134.674,63.892 Z" id="path-8" class="cls-10" fill-rule="evenodd"/>
  </g>
</svg>
