<svg xmlns="http://www.w3.org/2000/svg" xmlns:xlink="http://www.w3.org/1999/xlink" preserveAspectRatio="xMidYMid" width="109" height="217" viewBox="0 0 109 217">
  <defs>
    <style>

      .cls-3 {
        fill: #fbb713;
      }

      .cls-4 {
        fill: #ff3a2f;
      }

      .cls-5 {
        fill: #020403;
        opacity: 0.35;
      }

      .cls-7 {
        fill: #020403;
        opacity: 0.25;
      }

      .cls-8 {
        fill: #ffffff;
      }

      .cls-9 {
        fill: #050606;
        opacity: 0.45;
      }
    </style>
  </defs>
  <g id="group-54svg">
    <path d="M108.791,39.957 C108.791,17.889 97.470,-0.002 83.502,-0.007 C69.534,-0.002 58.214,17.889 58.214,39.957 C58.214,51.310 61.225,60.110 66.036,66.000 C66.036,66.000 66.007,66.000 66.007,66.000 C66.007,66.000 66.075,66.063 66.147,66.128 C67.510,67.775 69.016,69.183 70.639,70.357 C71.366,71.063 72.080,71.779 72.707,72.437 C78.135,78.123 78.601,80.818 78.601,80.818 C83.535,109.555 73.892,169.724 70.873,193.073 C67.860,216.379 83.444,216.870 83.502,216.872 C83.560,216.870 99.143,216.379 96.131,193.073 C93.113,169.724 83.469,109.555 88.403,80.818 C88.403,80.818 88.870,78.123 94.296,72.437 C94.924,71.779 95.640,71.063 96.366,70.357 C97.988,69.183 99.495,67.775 100.858,66.128 C100.929,66.063 100.998,66.000 100.998,66.000 C100.998,66.000 100.967,66.000 100.967,66.000 C105.779,60.110 108.791,51.310 108.791,39.957 Z" id="path-1" class="cls-3" fill-rule="evenodd"/>
    <path d="M27.979,193.073 C24.961,169.724 15.318,109.555 20.251,80.818 C20.251,80.818 21.600,72.959 26.883,72.959 C30.313,72.959 30.691,66.000 30.691,66.000 C30.691,66.000 30.942,1.340 28.958,1.340 C28.480,1.340 28.167,1.340 27.924,1.340 C27.924,1.340 26.226,24.072 26.226,64.428 C26.226,64.428 26.038,66.673 24.514,66.673 C22.989,66.673 22.691,64.504 22.691,64.504 C22.691,64.504 21.811,1.326 19.830,1.326 C19.406,1.326 19.144,1.326 18.964,1.326 C18.964,1.326 17.458,22.674 17.456,64.407 C17.456,64.433 17.467,64.455 17.467,64.484 C17.467,65.861 16.539,66.973 15.387,66.999 C15.387,66.999 15.345,67.048 15.345,67.048 C15.345,67.048 15.305,66.999 15.305,66.999 C14.153,66.973 13.223,65.861 13.223,64.484 C13.223,64.455 13.236,64.433 13.236,64.407 C13.234,22.674 11.728,1.326 11.728,1.326 C11.547,1.326 11.285,1.326 10.863,1.326 C8.881,1.326 8.000,64.504 8.000,64.504 C8.000,64.504 7.702,66.673 6.178,66.673 C4.654,66.673 4.466,64.428 4.466,64.428 C4.466,24.072 2.768,1.340 2.768,1.340 C2.524,1.340 2.211,1.340 1.733,1.340 C-0.250,1.340 0.001,66.000 0.001,66.000 C0.001,66.000 0.378,72.959 3.808,72.959 C9.091,72.959 10.439,80.818 10.439,80.818 C15.373,109.555 5.731,169.724 2.711,193.073 C-0.306,216.423 15.345,216.872 15.345,216.872 C15.345,216.872 30.998,216.423 27.979,193.073 Z" id="path-2" class="cls-4" fill-rule="evenodd"/>
    <path d="M15.345,209.250 C14.346,209.250 13.538,208.441 13.538,207.442 C13.538,206.444 14.346,205.634 15.345,205.634 C16.590,205.634 17.560,205.163 18.400,204.150 C21.466,200.450 23.762,188.859 17.294,154.652 C17.294,154.652 17.082,153.535 17.082,153.535 C11.791,125.130 14.710,93.940 16.923,77.877 C17.057,76.889 17.941,76.199 18.959,76.333 C19.948,76.468 20.640,77.381 20.502,78.370 C18.321,94.216 15.437,124.968 20.636,152.872 C20.636,152.872 20.844,153.980 20.844,153.980 C26.324,182.952 26.434,200.118 21.181,206.457 C19.670,208.284 17.650,209.250 15.345,209.250 Z" id="path-3" class="cls-5" fill-rule="evenodd"/>
    <path d="M88.660,78.356 C88.660,78.356 88.369,80.420 87.861,84.027 C87.377,87.610 86.775,92.775 86.261,98.976 C85.230,111.375 84.684,128.059 86.581,144.575 C87.540,152.796 89.337,160.997 90.246,168.791 C91.240,176.569 91.801,183.891 91.649,190.174 C91.488,196.415 90.575,201.794 88.376,204.827 C87.295,206.331 85.942,207.057 84.986,207.259 C84.027,207.442 83.500,207.442 83.500,207.442 C83.500,207.442 84.030,207.429 84.975,207.220 C85.919,206.994 87.229,206.240 88.248,204.736 C90.328,201.706 91.093,196.366 91.084,190.167 C91.067,183.928 90.312,176.663 89.113,168.954 C88.001,161.223 85.993,153.138 84.788,144.805 C82.420,128.173 82.517,111.319 83.218,98.770 C83.569,92.485 84.034,87.269 84.429,83.601 C84.840,79.968 85.075,77.891 85.075,77.891 C85.075,77.891 88.660,78.356 88.660,78.356 Z" id="path-4" class="cls-5" fill-rule="evenodd"/>
    <path d="M101.228,36.938 C101.228,53.405 93.293,66.757 83.502,66.757 C73.711,66.757 65.776,53.405 65.776,36.938 C65.776,20.475 73.711,7.123 83.502,7.123 C93.293,7.123 101.228,20.475 101.228,36.938 Z" id="path-5" class="cls-7" fill-rule="evenodd"/>
    <path d="M87.099,23.290 C87.099,29.640 84.039,34.790 80.263,34.790 C76.487,34.790 73.425,29.640 73.425,23.290 C73.425,16.940 76.487,11.790 80.263,11.790 C84.039,11.790 87.099,16.940 87.099,23.290 Z" id="path-6" class="cls-8" fill-rule="evenodd"/>
    <path d="M98.967,16.771 C98.967,16.771 99.342,17.845 99.858,19.860 C100.358,21.851 100.941,24.726 101.236,28.204 C101.387,29.944 101.467,31.830 101.440,33.823 C101.378,35.884 101.298,37.819 101.019,40.051 C100.496,44.374 99.495,48.915 97.697,53.193 C96.790,55.323 95.737,57.399 94.438,59.285 C93.107,61.140 91.676,62.922 89.888,64.226 C88.137,65.553 86.164,66.487 84.162,66.840 C82.156,67.106 80.215,66.888 78.595,66.202 C75.339,64.872 73.418,62.587 72.194,61.064 C70.994,59.480 70.451,58.483 70.451,58.483 C70.451,58.483 71.045,59.453 72.315,60.968 C73.599,62.417 75.630,64.569 78.790,65.674 C80.345,66.247 82.164,66.346 84.009,66.016 C85.838,65.594 87.606,64.646 89.170,63.334 C90.769,62.049 92.037,60.294 93.205,58.485 C94.345,56.640 95.249,54.612 96.013,52.540 C97.524,48.384 98.266,43.950 98.557,39.843 C98.716,37.853 98.702,35.683 98.664,33.857 C98.595,31.959 98.430,30.173 98.205,28.539 C97.762,25.266 97.080,22.609 96.524,20.785 C95.970,18.988 95.547,17.942 95.547,17.942 C95.172,17.015 95.620,15.962 96.546,15.587 C97.471,15.213 98.525,15.659 98.899,16.586 C98.909,16.611 98.919,16.636 98.927,16.660 C98.927,16.660 98.967,16.771 98.967,16.771 Z" id="path-7" class="cls-9" fill-rule="evenodd"/>
  </g>
</svg>
