<svg xmlns="http://www.w3.org/2000/svg" xmlns:xlink="http://www.w3.org/1999/xlink" preserveAspectRatio="xMidYMid" width="218" height="156" viewBox="0 0 218 156">
  <defs>
    <style>

      .cls-3 {
        fill: #0cb04a;
      }

      .cls-4 {
        fill: #020403;
        opacity: 0.35;
      }

      .cls-5 {
        fill: #ededed;
      }

      .cls-7 {
        fill: #142a3b;
      }

      .cls-9 {
        fill: #ff3a2f;
      }
    </style>
  </defs>
  <g id="group-128svg">
    <path d="M215.240,155.428 C215.240,155.428 1.616,155.428 1.616,155.428 C0.719,155.428 -0.009,154.701 -0.009,153.803 C-0.009,153.803 -0.009,27.602 -0.009,27.602 C-0.009,26.704 0.719,25.977 1.616,25.977 C1.616,25.977 215.240,25.977 215.240,25.977 C216.137,25.977 216.865,26.704 216.865,27.602 C216.865,27.602 216.865,153.803 216.865,153.803 C216.865,154.701 216.137,155.428 215.240,155.428 Z" id="path-1" class="cls-3" fill-rule="evenodd"/>
    <path d="M209.532,25.977 C209.532,25.977 203.327,25.977 203.327,25.977 C203.327,25.977 203.327,139.070 203.327,139.070 C203.327,143.120 200.045,146.402 195.995,146.402 C195.995,146.402 -0.009,146.402 -0.009,146.402 C-0.009,146.402 -0.009,148.095 -0.009,148.095 C-0.009,152.145 3.273,155.428 7.324,155.428 C7.324,155.428 209.532,155.428 209.532,155.428 C213.582,155.428 216.865,152.145 216.865,148.095 C216.865,148.095 216.865,33.310 216.865,33.310 C216.865,29.260 213.582,25.977 209.532,25.977 Z" id="path-2" class="cls-4" fill-rule="evenodd"/>
    <path d="M183.586,89.434 C183.586,60.306 159.975,36.695 130.848,36.695 C101.721,36.695 78.111,60.306 78.111,89.434 C78.111,118.562 101.721,142.172 130.848,142.172 C159.975,142.172 183.586,118.562 183.586,89.434 Z" id="path-3" class="cls-5" fill-rule="evenodd"/>
    <path d="M130.848,36.412 C129.325,36.412 127.827,36.514 126.336,36.640 C153.346,38.934 174.562,61.547 174.562,89.151 C174.562,116.756 153.346,139.370 126.336,141.662 C127.827,141.789 129.325,141.890 130.848,141.890 C159.975,141.890 183.586,118.280 183.586,89.151 C183.586,60.024 159.975,36.412 130.848,36.412 Z" id="path-4" class="cls-4" fill-rule="evenodd"/>
    <path d="M94.751,88.535 C92.754,88.535 91.136,86.917 91.136,84.921 C91.136,66.772 105.899,52.008 124.048,52.008 C126.044,52.008 127.663,53.626 127.663,55.622 C127.663,57.617 126.044,59.237 124.048,59.237 C109.886,59.237 98.365,70.758 98.365,84.921 C98.365,86.917 96.747,88.535 94.751,88.535 Z" id="path-5" class="cls-7" fill-rule="evenodd"/>
    <path d="M65.618,61.391 C65.618,63.388 64.000,65.006 62.003,65.006 C62.003,65.006 36.235,65.006 36.235,65.006 C34.238,65.006 32.620,63.388 32.620,61.391 C32.620,61.391 32.620,50.622 32.620,50.622 C32.620,48.625 34.238,47.008 36.235,47.008 C36.235,47.008 62.003,47.008 62.003,47.008 C64.000,47.008 65.618,48.625 65.618,50.622 C65.618,50.622 65.618,61.391 65.618,61.391 Z" id="path-6" class="cls-4" fill-rule="evenodd"/>
    <path d="M58.619,58.391 C58.619,60.388 57.000,62.007 55.004,62.007 C55.004,62.007 29.235,62.007 29.235,62.007 C27.239,62.007 25.620,60.388 25.620,58.391 C25.620,58.391 25.620,47.622 25.620,47.622 C25.620,45.625 27.239,44.007 29.235,44.007 C29.235,44.007 55.004,44.007 55.004,44.007 C57.000,44.007 58.619,45.625 58.619,47.622 C58.619,47.622 58.619,58.391 58.619,58.391 Z" id="path-7" class="cls-9" fill-rule="evenodd"/>
    <path d="M180.483,26.006 C180.483,26.006 81.213,26.006 81.213,26.006 C81.213,26.006 85.725,0.008 85.725,0.008 C85.725,0.008 175.972,0.008 175.972,0.008 C175.972,0.008 180.483,26.006 180.483,26.006 Z" id="path-8" class="cls-7" fill-rule="evenodd"/>
    <path d="M175.972,0.328 C175.972,0.328 163.939,0.328 163.939,0.328 C163.939,0.328 164.597,2.856 164.597,2.856 C165.828,10.235 160.137,16.953 152.656,16.953 C152.656,16.953 81.807,22.411 81.807,22.411 C81.807,22.411 81.213,25.977 81.213,25.977 C81.213,25.977 180.483,25.977 180.483,25.977 C180.483,25.977 175.972,0.328 175.972,0.328 Z" id="path-9" class="cls-4" fill-rule="evenodd"/>
    <path d="M57.619,26.006 C57.619,26.006 32.620,26.006 32.620,26.006 C32.620,26.006 32.620,18.008 32.620,18.008 C32.620,18.008 57.619,18.008 57.619,18.008 C57.619,18.008 57.619,26.006 57.619,26.006 Z" id="path-10" class="cls-7" fill-rule="evenodd"/>
  </g>
</svg>
