<svg xmlns="http://www.w3.org/2000/svg" xmlns:xlink="http://www.w3.org/1999/xlink" preserveAspectRatio="xMidYMid" width="217" height="48" viewBox="0 0 217 48">
  <defs>
    <style>

      .cls-3 {
        fill: #142a3b;
      }

      .cls-5 {
        fill: #020403;
        opacity: 0.35;
      }

      .cls-6 {
        fill: #ffffff;
      }

      .cls-9 {
        fill: #0cb04a;
      }
    </style>
  </defs>
  <g id="group-79svg">
    <path d="M180.886,23.545 C183.244,23.545 185.483,23.051 187.521,22.178 C189.648,16.394 195.206,12.268 201.729,12.268 C210.086,12.268 216.862,19.044 216.862,27.403 C216.862,35.761 210.086,42.537 201.729,42.537 C195.520,42.537 190.188,38.797 187.854,33.448 C185.501,32.199 182.819,31.490 179.970,31.490 C173.330,31.490 167.590,35.327 164.836,40.902 C164.836,40.902 164.836,11.878 164.836,11.878 C167.030,18.649 173.384,23.545 180.886,23.545 Z" id="path-1" class="cls-3" fill-rule="evenodd"/>
    <path d="M38.595,19.889 C36.065,19.889 33.662,19.360 31.475,18.422 C29.192,12.214 23.227,7.787 16.229,7.787 C7.260,7.787 -0.012,15.058 -0.012,24.028 C-0.012,32.998 7.260,40.269 16.229,40.269 C22.891,40.269 28.613,36.254 31.118,30.516 C33.643,29.176 36.521,28.415 39.578,28.415 C46.703,28.415 52.864,32.532 55.819,38.514 C55.819,38.514 55.819,7.369 55.819,7.369 C53.464,14.635 46.645,19.889 38.595,19.889 Z" id="path-2" class="cls-3" fill-rule="evenodd"/>
    <path d="M216.574,24.552 C216.455,23.949 216.263,23.376 216.074,22.802 C215.986,22.531 215.922,22.251 215.820,21.986 C215.522,21.233 215.164,20.508 214.753,19.817 C214.728,19.776 214.708,19.730 214.683,19.687 C214.234,18.949 213.729,18.249 213.168,17.596 C213.367,18.576 213.474,19.588 213.474,20.625 C213.474,28.982 206.698,35.759 198.340,35.759 C192.131,35.759 186.799,32.019 184.465,26.669 C182.112,25.423 179.430,24.712 176.581,24.712 C174.951,24.712 173.411,25.019 171.926,25.455 C171.926,25.455 171.926,20.911 171.926,20.911 C168.622,18.825 166.063,15.665 164.836,11.878 C164.836,11.878 164.836,29.529 164.836,29.529 C164.836,29.529 164.836,36.171 164.836,36.171 C164.836,36.171 164.836,40.902 164.836,40.902 C165.260,40.043 165.777,39.244 166.335,38.474 C166.398,38.391 166.464,38.312 166.528,38.228 C167.084,37.492 167.697,36.808 168.364,36.172 C168.364,36.172 168.364,36.171 168.364,36.171 C168.364,36.171 168.364,36.171 168.364,36.171 C169.430,35.157 170.623,34.285 171.926,33.575 C171.926,33.575 171.926,33.575 171.926,33.575 C171.926,33.575 171.927,33.574 171.927,33.574 C172.509,33.255 173.107,32.971 173.728,32.722 C173.789,32.698 173.853,32.677 173.915,32.652 C174.479,32.435 175.050,32.236 175.640,32.079 C175.877,32.013 176.122,31.975 176.362,31.921 C176.810,31.822 177.253,31.714 177.714,31.652 C178.451,31.550 179.202,31.490 179.970,31.490 C180.682,31.490 181.384,31.534 182.073,31.620 C183.451,31.792 184.776,32.131 186.029,32.615 C186.657,32.857 187.265,33.136 187.854,33.448 C188.437,34.785 189.208,36.022 190.133,37.124 C191.521,38.778 193.256,40.131 195.226,41.070 C197.195,42.011 199.400,42.536 201.729,42.536 C207.997,42.536 213.375,38.724 215.673,33.294 C216.439,31.483 216.862,29.492 216.862,27.403 C216.862,26.426 216.751,25.477 216.574,24.552 Z" id="path-3" class="cls-5" fill-rule="evenodd"/>
    <path d="M17.168,21.442 C15.053,23.557 11.623,23.557 9.507,21.442 C7.392,19.327 7.392,15.896 9.507,13.781 C11.623,11.665 15.053,11.665 17.168,13.781 C19.284,15.896 19.284,19.327 17.168,21.442 Z" id="path-4" class="cls-6" fill-rule="evenodd"/>
    <path d="M6.766,20.639 C6.766,15.616 9.093,11.184 12.675,8.204 C5.420,9.829 -0.012,16.283 -0.012,24.029 C-0.012,32.997 7.259,40.269 16.229,40.269 C20.222,40.269 23.860,38.806 26.688,36.415 C25.500,36.692 24.278,36.880 23.006,36.880 C14.037,36.880 6.766,29.608 6.766,20.639 Z" id="path-5" class="cls-5" fill-rule="evenodd"/>
    <path d="M48.522,16.867 C48.522,16.867 48.522,25.178 48.522,25.178 C47.810,25.093 47.091,25.025 46.356,25.025 C43.298,25.025 40.420,25.787 37.895,27.126 C37.673,27.635 37.396,28.111 37.126,28.591 C37.126,28.591 37.127,28.591 37.127,28.591 C37.930,28.481 38.745,28.415 39.578,28.415 C40.418,28.415 41.242,28.478 42.049,28.591 C42.616,28.670 43.163,28.804 43.713,28.933 C43.921,28.983 44.137,29.014 44.342,29.072 C45.052,29.265 45.736,29.511 46.409,29.786 C46.433,29.796 46.458,29.804 46.482,29.814 C47.187,30.106 47.864,30.444 48.521,30.819 C48.521,30.819 48.522,30.820 48.522,30.820 C48.522,30.820 48.522,30.820 48.522,30.820 C50.580,31.995 52.373,33.559 53.823,35.416 C53.823,35.416 53.823,35.416 53.823,35.416 C53.823,35.416 53.825,35.419 53.825,35.419 C54.177,35.870 54.517,36.326 54.826,36.810 C55.188,37.358 55.526,37.921 55.819,38.514 C55.819,38.514 55.819,27.712 55.819,27.712 C55.192,27.327 54.534,26.989 53.860,26.679 C53.860,26.679 53.860,14.280 53.860,14.280 C54.528,13.928 55.205,13.589 55.819,13.153 C55.819,13.153 55.819,7.369 55.819,7.369 C55.574,8.125 55.265,8.849 54.916,9.549 C53.490,12.541 51.267,15.055 48.522,16.867 Z" id="path-6" class="cls-5" fill-rule="evenodd"/>
    <path d="M165.315,47.652 C165.315,47.652 53.860,47.652 53.860,47.652 C53.860,47.652 53.860,-0.015 53.860,-0.015 C53.860,-0.015 165.315,-0.015 165.315,-0.015 C165.315,-0.015 165.315,47.652 165.315,47.652 Z" id="path-7" class="cls-9" fill-rule="evenodd"/>
    <path d="M155.149,-0.014 C155.149,-0.014 155.149,25.591 155.149,25.591 C155.149,32.160 149.824,37.485 143.254,37.485 C143.254,37.485 53.860,37.485 53.860,37.485 C53.860,37.485 53.860,47.652 53.860,47.652 C53.860,47.652 165.315,47.652 165.315,47.652 C165.315,47.652 165.315,-0.014 165.315,-0.014 C165.315,-0.014 155.149,-0.014 155.149,-0.014 Z" id="path-8" class="cls-5" fill-rule="evenodd"/>
    <path d="M136.946,27.433 C136.946,27.433 79.904,27.433 79.904,27.433 C77.908,27.433 76.289,25.815 76.289,23.818 C76.289,21.822 77.908,20.204 79.904,20.204 C79.904,20.204 136.946,20.204 136.946,20.204 C138.942,20.204 140.561,21.822 140.561,23.818 C140.561,25.815 138.942,27.433 136.946,27.433 Z" id="path-9" class="cls-6" fill-rule="evenodd"/>
  </g>
</svg>
