<svg xmlns="http://www.w3.org/2000/svg" xmlns:xlink="http://www.w3.org/1999/xlink" preserveAspectRatio="xMidYMid" width="164" height="217" viewBox="0 0 164 217">
  <defs>
    <style>

      .cls-3 {
        fill: #142a3b;
      }

      .cls-5 {
        fill: #020403;
        opacity: 0.35;
      }

      .cls-6 {
        fill: #ff3a2f;
      }

      .cls-10 {
        fill: #020403;
        opacity: 0.45;
      }

      .cls-11 {
        fill: #ffe56d;
      }

      .cls-13 {
        fill: #ffffff;
      }
    </style>
  </defs>
  <g id="group-43svg">
    <path d="M139.632,188.026 C139.632,188.026 101.058,135.841 101.058,135.841 C101.058,135.841 98.025,138.084 98.025,138.084 C98.025,138.084 115.354,161.528 115.354,161.528 C115.354,161.528 54.809,161.528 54.809,161.528 C54.809,161.528 72.139,138.084 72.139,138.084 C72.139,138.084 69.104,135.841 69.104,135.841 C69.104,135.841 13.892,210.535 13.892,210.535 C13.892,210.535 16.925,212.777 16.925,212.777 C16.925,212.777 51.653,165.798 51.653,165.798 C51.653,165.798 51.653,165.799 51.653,165.799 C51.653,165.799 118.511,165.799 118.511,165.799 C118.511,165.799 136.599,190.268 136.599,190.268 C136.599,190.268 139.632,188.026 139.632,188.026 Z" id="path-1" class="cls-3" fill-rule="evenodd"/>
    <path d="M86.074,148.284 C54.402,148.284 28.728,122.609 28.728,90.937 C28.728,90.937 143.422,90.937 143.422,90.937 C143.422,122.609 117.746,148.284 86.074,148.284 Z" id="path-2" class="cls-3" fill-rule="evenodd"/>
    <path d="M28.728,90.936 C28.728,94.777 29.121,94.785 29.841,98.415 C29.841,98.415 117.247,105.893 117.247,105.893 C117.247,124.390 108.453,137.056 94.859,147.543 C122.349,143.305 143.422,119.613 143.422,90.936 C143.422,90.936 28.728,90.936 28.728,90.936 Z" id="path-3" class="cls-5" fill-rule="evenodd"/>
    <path d="M153.231,93.447 C153.231,93.447 18.917,93.447 18.917,93.447 C16.921,93.447 15.303,91.829 15.303,89.833 C15.303,87.836 16.921,86.219 18.917,86.219 C18.917,86.219 153.231,86.219 153.231,86.219 C155.229,86.219 156.846,87.836 156.846,89.833 C156.846,91.829 155.229,93.447 153.231,93.447 Z" id="path-4" class="cls-6" fill-rule="evenodd"/>
    <path d="M131.188,207.060 C135.215,215.605 145.407,219.268 153.951,215.240 C162.496,211.213 166.158,201.022 162.130,192.476 C158.104,183.932 147.912,180.269 139.368,184.296 C130.824,188.323 127.161,198.515 131.188,207.060 ZM143.060,192.130 C147.278,190.143 152.309,191.951 154.297,196.169 C156.285,200.387 154.476,205.417 150.259,207.406 C146.042,209.393 141.011,207.585 139.023,203.368 C137.035,199.149 138.843,194.119 143.060,192.130 Z" id="path-5" class="cls-6" fill-rule="evenodd"/>
    <path d="M-0.014,216.876 C-0.014,216.876 33.032,216.876 33.032,216.876 C33.032,216.876 33.032,209.703 33.032,209.703 C33.032,209.703 -0.014,209.703 -0.014,209.703 C-0.014,209.703 -0.014,216.876 -0.014,216.876 Z" id="path-6" class="cls-6" fill-rule="evenodd"/>
    <path d="M122.629,24.998 C120.968,23.783 119.225,22.658 117.414,21.615 C118.354,16.405 116.120,11.481 112.033,10.266 C112.033,10.266 101.597,7.167 101.597,7.167 C97.447,5.934 92.801,8.949 90.794,13.967 C88.708,13.892 86.631,13.926 84.572,14.076 C84.572,14.076 86.297,8.273 86.297,8.273 C87.998,2.543 93.051,-1.055 97.523,0.273 C97.523,0.273 119.209,6.715 119.209,6.715 C123.682,8.044 125.950,13.818 124.249,19.545 C124.249,19.545 122.629,24.998 122.629,24.998 Z" id="path-7" class="cls-6" fill-rule="evenodd"/>
    <path d="M76.001,112.137 C77.579,112.613 79.195,112.998 80.838,113.303 C81.516,117.486 84.514,120.609 87.922,120.438 C87.922,120.438 96.626,120.000 96.626,120.000 C100.087,119.826 102.792,116.314 102.972,111.991 C104.566,111.492 106.125,110.913 107.638,110.252 C107.638,110.252 107.883,115.093 107.883,115.093 C108.123,119.870 105.267,123.933 101.537,124.120 C101.537,124.120 83.450,125.030 83.450,125.030 C79.719,125.218 76.470,121.461 76.229,116.685 C76.229,116.685 76.001,112.137 76.001,112.137 Z" id="path-8" class="cls-10" fill-rule="evenodd"/>
    <path d="M72.262,104.658 C73.840,105.134 75.456,105.519 77.099,105.824 C77.776,110.008 80.776,113.131 84.183,112.959 C84.183,112.959 92.886,112.522 92.886,112.522 C96.348,112.348 99.053,108.835 99.233,104.512 C100.828,104.013 102.386,103.435 103.899,102.773 C103.899,102.773 104.144,107.614 104.144,107.614 C104.384,112.391 101.527,116.454 97.797,116.642 C97.797,116.642 79.710,117.551 79.710,117.551 C75.979,117.739 72.731,113.983 72.490,109.206 C72.490,109.206 72.262,104.658 72.262,104.658 Z" id="path-9" class="cls-11" fill-rule="evenodd"/>
    <path d="M107.296,17.019 C137.265,27.263 153.256,59.862 143.013,89.833 C143.013,89.833 34.483,52.737 34.483,52.737 C44.727,22.767 77.326,6.775 107.296,17.019 Z" id="path-10" class="cls-3" fill-rule="evenodd"/>
    <path d="M48.272,43.701 C47.853,43.701 47.431,43.557 47.091,43.262 C46.335,42.610 46.251,41.468 46.904,40.713 C54.889,31.461 65.808,24.764 77.652,21.854 C78.620,21.619 79.600,22.209 79.837,23.179 C80.076,24.148 79.483,25.127 78.513,25.365 C67.393,28.095 57.139,34.385 49.639,43.075 C49.283,43.489 48.778,43.701 48.272,43.701 Z" id="path-11" class="cls-13" fill-rule="evenodd"/>
    <path d="M107.296,17.019 C103.332,15.664 99.324,14.797 95.326,14.332 C118.335,27.794 129.495,55.972 120.627,82.181 C120.627,82.181 143.013,89.833 143.013,89.833 C153.256,59.862 137.265,27.263 107.296,17.019 Z" id="path-12" class="cls-5" fill-rule="evenodd"/>
  </g>
</svg>
