<svg xmlns="http://www.w3.org/2000/svg" xmlns:xlink="http://www.w3.org/1999/xlink" preserveAspectRatio="xMidYMid" width="217" height="127" viewBox="0 0 217 127">
  <defs>
    <style>

      .cls-3 {
        fill: #142a3b;
      }

      .cls-4 {
        fill: #ff3a2f;
      }
    </style>
  </defs>
  <g id="group-95svg">
    <path d="M106.680,64.605 C104.684,64.605 103.065,62.987 103.065,60.991 C103.065,60.991 103.065,43.792 103.065,43.792 C103.065,43.792 106.680,43.792 106.680,43.792 C124.147,43.792 126.034,31.001 126.034,25.503 C126.034,15.085 118.715,7.229 109.008,7.229 C98.977,7.229 90.819,15.379 90.819,25.397 C90.819,27.392 89.200,29.012 87.204,29.012 C85.208,29.012 83.589,27.392 83.589,25.397 C83.589,11.393 94.993,-0.001 109.008,-0.001 C122.836,-0.001 133.263,10.964 133.263,25.503 C133.263,39.815 124.370,49.452 110.294,50.846 C110.294,50.846 110.294,60.991 110.294,60.991 C110.294,62.987 108.676,64.605 106.680,64.605 Z" id="path-1" class="cls-3" fill-rule="evenodd"/>
    <path d="M106.188,60.006 C106.188,60.006 -0.011,100.876 -0.011,100.876 C-0.011,100.876 7.669,126.508 7.669,126.508 C7.669,126.508 210.618,126.508 210.618,126.508 C210.618,126.508 216.863,100.876 216.863,100.876 C216.863,100.876 106.188,60.006 106.188,60.006 ZM202.326,118.626 C202.326,118.626 16.275,118.626 16.275,118.626 C16.275,118.626 12.344,107.460 12.344,107.460 C12.344,107.460 104.715,69.366 104.715,69.366 C104.715,69.366 205.601,107.460 205.601,107.460 C205.601,107.460 202.326,118.626 202.326,118.626 Z" id="path-2" class="cls-4" fill-rule="evenodd"/>
  </g>
</svg>
