<svg xmlns="http://www.w3.org/2000/svg" xmlns:xlink="http://www.w3.org/1999/xlink" preserveAspectRatio="xMidYMid" width="217" height="164" viewBox="0 0 217 164">
  <defs>
    <style>

      .cls-3 {
        fill: #142a3b;
      }

      .cls-4 {
        fill: #020403;
        opacity: 0.45;
      }

      .cls-5 {
        fill: #fbb713;
      }

      .cls-8 {
        fill: #ff3a2f;
      }

      .cls-9 {
        fill: #020403;
        opacity: 0.35;
      }
    </style>
  </defs>
  <g id="group-58svg">
    <path d="M163.156,42.953 C163.452,33.778 164.158,29.105 163.305,19.165 C162.066,4.672 160.595,1.378 143.826,0.379 C124.342,-0.781 97.072,0.937 91.955,5.364 C83.880,12.364 73.775,23.754 54.882,43.272 C54.882,43.272 54.882,43.272 54.882,43.272 " id="path-1" class="cls-3" fill-rule="evenodd"/>
    <path d="M55.045,43.103 C55.045,43.103 112.219,43.103 112.219,43.103 C112.219,43.103 163.156,42.953 163.156,42.953 C163.377,36.118 163.823,31.776 163.684,25.898 C163.684,25.898 71.501,25.898 71.501,25.898 C66.844,30.802 61.479,36.454 55.045,43.103 Z" id="path-2" class="cls-4" fill-rule="evenodd"/>
    <path d="M144.001,31.849 C144.001,38.337 138.906,43.589 132.619,43.589 C126.359,43.589 121.276,38.337 121.276,31.849 C121.276,25.368 126.359,20.105 132.619,20.105 C138.906,20.105 144.001,25.368 144.001,31.849 Z" id="path-3" class="cls-5" fill-rule="evenodd"/>
    <path d="M36.635,150.716 C39.997,154.851 39.694,154.271 42.296,157.306 C50.997,167.486 54.614,166.689 70.078,151.368 C70.078,151.368 70.078,151.368 70.078,151.368 " id="path-4" class="cls-3" fill-rule="evenodd"/>
    <path d="M11.700,88.491 C8.560,91.644 15.519,84.199 9.818,89.950 C1.084,98.762 -4.025,102.812 4.029,113.678 C6.610,117.147 9.232,119.965 12.944,124.775 C12.944,124.775 12.944,124.775 12.944,124.775 " id="path-5" class="cls-3" fill-rule="evenodd"/>
    <path d="M27.652,39.118 C15.604,39.166 9.224,38.244 8.948,54.535 C8.612,74.181 8.888,114.322 9.715,135.128 C10.360,151.402 13.097,153.779 24.459,154.048 C43.601,154.484 151.620,156.966 173.188,153.654 C183.589,152.057 196.343,131.830 210.818,111.507 C219.270,99.637 218.893,94.385 209.574,83.064 C196.464,67.156 172.933,40.043 164.561,39.912 C143.167,39.598 76.680,38.937 27.652,39.118 Z" id="path-6" class="cls-8" fill-rule="evenodd"/>
    <path d="M209.574,83.063 C196.464,67.156 172.933,40.043 164.561,39.912 C163.566,39.897 162.441,39.881 161.257,39.865 C171.642,49.143 184.844,64.515 193.510,75.031 C202.829,86.354 203.205,91.605 194.754,103.475 C180.278,123.797 167.524,144.024 157.123,145.622 C136.371,148.808 35.636,146.632 10.983,146.074 C12.696,152.579 16.406,153.856 24.459,154.047 C43.601,154.484 151.620,156.966 173.188,153.654 C183.589,152.057 196.343,131.829 210.818,111.507 C219.270,99.637 218.893,94.385 209.574,83.063 Z" id="path-7" class="cls-9" fill-rule="evenodd"/>
    <path d="M195.792,99.079 C195.792,105.745 190.581,111.130 184.134,111.130 C177.706,111.130 172.495,105.745 172.495,99.079 C172.495,92.429 177.706,87.051 184.134,87.051 C190.581,87.051 195.792,92.429 195.792,99.079 Z" id="path-8" class="cls-5" fill-rule="evenodd"/>
  </g>
</svg>
