<svg xmlns="http://www.w3.org/2000/svg" xmlns:xlink="http://www.w3.org/1999/xlink" preserveAspectRatio="xMidYMid" width="217" height="174" viewBox="0 0 217 174">
  <defs>
    <style>

      .cls-3 {
        fill: #142a3b;
      }

      .cls-4 {
        fill: #0cb04a;
      }

      .cls-5 {
        fill: #020403;
        opacity: 0.35;
      }

      .cls-6 {
        fill: #ff3a2f;
      }

      .cls-8 {
        fill: #020403;
        opacity: 0.45;
      }
    </style>
  </defs>
  <g id="group-36svg">
    <path d="M154.300,36.931 C154.300,36.931 86.289,36.931 86.289,36.931 C86.289,36.931 86.289,10.166 86.289,10.166 C86.289,10.166 154.300,10.166 154.300,10.166 C154.300,10.166 154.300,36.931 154.300,36.931 ZM93.518,29.703 C93.518,29.703 147.071,29.703 147.071,29.703 C147.071,29.703 147.071,17.396 147.071,17.396 C147.071,17.396 93.518,17.396 93.518,17.396 C93.518,17.396 93.518,29.703 93.518,29.703 Z" id="path-1" class="cls-3" fill-rule="evenodd"/>
    <path d="M192.586,124.939 C192.586,124.939 48.003,124.939 48.003,124.939 C44.455,124.939 41.578,122.061 41.578,118.512 C41.578,118.512 41.578,35.800 41.578,35.800 C41.578,32.251 44.455,29.374 48.003,29.374 C48.003,29.374 192.586,29.374 192.586,29.374 C196.135,29.374 199.012,32.251 199.012,35.800 C199.012,35.800 199.012,118.512 199.012,118.512 C199.012,122.061 196.135,124.939 192.586,124.939 Z" id="path-2" class="cls-4" fill-rule="evenodd"/>
    <path d="M173.672,29.374 C173.672,29.374 172.296,29.374 172.296,29.374 C176.624,33.920 179.296,40.056 179.296,46.828 C179.296,46.828 179.296,91.712 179.296,91.712 C179.296,105.706 167.951,117.053 153.956,117.053 C153.956,117.053 48.578,117.053 48.578,117.053 C53.193,121.902 59.694,124.939 66.917,124.939 C66.917,124.939 173.672,124.939 173.672,124.939 C187.667,124.939 199.012,113.592 199.012,99.598 C199.012,99.598 199.012,54.715 199.012,54.715 C199.012,40.719 187.667,29.374 173.672,29.374 Z" id="path-3" class="cls-5" fill-rule="evenodd"/>
    <path d="M69.637,152.031 C68.128,154.284 67.244,156.991 67.244,159.906 C67.244,167.735 73.591,174.082 81.419,174.082 C89.248,174.082 95.594,167.735 95.594,159.906 C95.594,156.991 94.711,154.284 93.201,152.031 C93.201,152.031 69.637,152.031 69.637,152.031 Z" id="path-4" class="cls-6" fill-rule="evenodd"/>
    <path d="M140.513,152.031 C139.005,154.284 138.120,156.991 138.120,159.906 C138.120,167.735 144.467,174.082 152.296,174.082 C160.125,174.082 166.471,167.735 166.471,159.906 C166.471,156.991 165.587,154.284 164.078,152.031 C164.078,152.031 140.513,152.031 140.513,152.031 Z" id="path-5" class="cls-6" fill-rule="evenodd"/>
    <path d="M69.637,152.031 C68.128,154.284 67.244,156.991 67.244,159.906 C67.244,160.992 67.392,162.039 67.623,163.056 C67.623,163.056 95.215,163.056 95.215,163.056 C95.447,162.039 95.594,160.992 95.594,159.906 C95.594,156.991 94.711,154.284 93.201,152.031 C93.201,152.031 69.637,152.031 69.637,152.031 Z" id="path-6" class="cls-8" fill-rule="evenodd"/>
    <path d="M140.513,152.031 C139.005,154.284 138.120,156.991 138.120,159.906 C138.120,160.992 138.268,162.039 138.500,163.056 C138.500,163.056 166.092,163.056 166.092,163.056 C166.323,162.039 166.471,160.992 166.471,159.906 C166.471,156.991 165.587,154.284 164.078,152.031 C164.078,152.031 140.513,152.031 140.513,152.031 Z" id="path-7" class="cls-8" fill-rule="evenodd"/>
    <path d="M43.850,155.652 C25.711,155.652 11.006,140.947 11.006,122.808 C11.006,122.808 11.006,32.381 11.006,32.381 C11.006,26.406 8.222,21.078 3.880,17.627 C-0.780,13.923 -1.395,7.110 2.814,2.900 C2.814,2.900 2.814,2.900 2.814,2.900 C5.504,0.210 9.540,-0.749 13.092,0.615 C20.162,3.328 25.181,10.181 25.181,18.207 C25.181,18.207 25.181,108.632 25.181,108.632 C25.181,126.772 39.886,141.477 58.025,141.477 C58.025,141.477 209.624,141.477 209.624,141.477 C213.623,141.477 216.865,144.719 216.865,148.717 C216.865,148.717 216.865,148.717 216.865,148.717 C216.865,152.723 213.613,155.968 209.608,155.960 C209.608,155.960 43.850,155.652 43.850,155.652 Z" id="path-8" class="cls-3" fill-rule="evenodd"/>
    <path d="M170.086,124.939 C170.086,124.939 162.857,124.939 162.857,124.939 C162.857,124.939 162.857,31.265 162.857,31.265 C162.857,31.265 170.086,31.265 170.086,31.265 C170.086,31.265 170.086,124.939 170.086,124.939 Z" id="path-9" class="cls-3" fill-rule="evenodd"/>
    <path d="M77.946,124.939 C77.946,124.939 70.717,124.939 70.717,124.939 C70.717,124.939 70.717,31.265 70.717,31.265 C70.717,31.265 77.946,31.265 77.946,31.265 C77.946,31.265 77.946,124.939 77.946,124.939 Z" id="path-10" class="cls-3" fill-rule="evenodd"/>
  </g>
</svg>
