<svg xmlns="http://www.w3.org/2000/svg" xmlns:xlink="http://www.w3.org/1999/xlink" preserveAspectRatio="xMidYMid" width="212" height="217" viewBox="0 0 212 217">
  <defs>
    <style>

      .cls-3 {
        fill: #142a3b;
      }

      .cls-5 {
        fill: #0cb04a;
      }

      .cls-6 {
        fill: #ff3a2f;
      }

      .cls-7 {
        fill: #fbb713;
      }

      .cls-9 {
        fill: #020403;
        opacity: 0.35;
      }

      .cls-15 {
        fill: #ffffff;
      }
    </style>
  </defs>
  <g id="group-163svg">
    <path d="M67.095,22.236 C65.688,22.236 64.351,21.408 63.766,20.032 C63.766,20.032 57.394,5.018 57.394,5.018 C56.615,3.181 57.472,1.060 59.309,0.279 C61.147,-0.501 63.268,0.355 64.049,2.195 C64.049,2.195 70.420,17.207 70.420,17.207 C71.200,19.045 70.342,21.166 68.505,21.947 C68.044,22.143 67.566,22.236 67.095,22.236 Z" id="path-1" class="cls-3" fill-rule="evenodd"/>
    <path d="M133.982,179.870 C132.575,179.870 131.237,179.042 130.653,177.665 C130.653,177.665 98.802,102.602 98.802,102.602 C98.022,100.763 98.879,98.642 100.717,97.863 C102.550,97.084 104.675,97.941 105.455,99.778 C105.455,99.778 137.307,174.841 137.307,174.841 C138.087,176.679 137.229,178.801 135.392,179.580 C134.932,179.776 134.453,179.870 133.982,179.870 Z" id="path-2" class="cls-3" fill-rule="evenodd"/>
    <path d="M169.684,72.523 C188.339,64.605 207.027,66.591 211.426,76.955 C187.678,20.990 123.058,-5.130 67.093,18.620 C11.127,42.367 -14.990,106.990 8.758,162.956 C4.360,152.591 15.918,137.774 34.573,129.856 C53.228,121.939 71.916,123.924 76.314,134.289 C71.916,123.924 83.474,109.106 102.129,101.189 C120.784,93.273 139.472,95.257 143.870,105.623 C139.472,95.257 151.030,80.439 169.684,72.523 Z" id="path-3" class="cls-5" fill-rule="evenodd"/>
    <path d="M169.684,72.523 C188.339,64.605 207.027,66.591 211.426,76.955 C187.678,20.990 123.058,-5.130 67.093,18.620 C65.365,19.352 67.514,18.424 66.123,19.201 C62.189,21.398 118.908,58.763 143.870,105.623 C138.576,95.685 151.030,80.439 169.684,72.523 Z" id="path-4" class="cls-6" fill-rule="evenodd"/>
    <path d="M143.870,105.623 C120.122,49.655 85.748,10.703 67.093,18.620 C48.437,26.535 52.566,78.323 76.314,134.289 C76.314,134.289 76.112,133.815 76.112,133.815 C71.714,123.450 84.865,112.384 103.520,104.468 C122.175,96.551 139.270,94.782 143.668,105.148 C143.668,105.148 143.870,105.623 143.870,105.623 Z" id="path-5" class="cls-7" fill-rule="evenodd"/>
    <path d="M136.030,201.958 C141.307,214.395 155.667,220.198 168.103,214.921 C180.540,209.643 186.344,195.284 181.067,182.846 C179.308,178.700 174.521,176.765 170.375,178.524 C166.230,180.284 164.295,185.070 166.055,189.218 C167.814,193.362 165.879,198.149 161.733,199.908 C157.588,201.669 152.801,199.734 151.042,195.587 C151.042,195.587 141.487,173.068 141.487,173.068 C141.487,173.068 126.474,179.438 126.474,179.438 C126.474,179.438 136.030,201.958 136.030,201.958 Z" id="path-6" class="cls-3" fill-rule="evenodd"/>
    <path d="M137.733,174.660 C137.733,174.660 145.696,193.427 145.696,193.427 C146.989,196.472 149.917,198.309 153.023,198.379 C152.198,197.619 151.509,196.688 151.042,195.587 C151.042,195.587 141.487,173.068 141.487,173.068 C141.487,173.068 137.733,174.660 137.733,174.660 Z" id="path-7" class="cls-9" fill-rule="evenodd"/>
    <path d="M173.740,177.893 C174.565,178.654 175.254,179.585 175.721,180.686 C180.999,193.122 175.195,207.482 162.758,212.760 C157.497,214.993 151.896,215.223 146.780,213.826 C153.122,217.305 160.928,217.966 168.103,214.921 C180.540,209.643 186.344,195.284 181.067,182.846 C179.775,179.800 176.846,177.964 173.740,177.893 Z" id="path-8" class="cls-9" fill-rule="evenodd"/>
    <path d="M6.911,137.727 C5.162,138.468 3.500,139.288 1.884,140.142 C3.323,147.821 5.581,155.467 8.758,162.956 C4.875,153.804 13.174,136.202 42.701,127.022 C36.155,127.123 14.357,134.566 6.911,137.727 Z" id="path-9" class="cls-9" fill-rule="evenodd"/>
    <path d="M74.466,109.060 C64.271,111.259 57.168,119.038 52.535,125.221 C63.998,124.186 73.368,127.346 76.314,134.289 C72.431,125.137 80.853,116.399 95.752,108.121 C89.205,108.222 82.000,107.434 74.466,109.060 Z" id="path-10" class="cls-9" fill-rule="evenodd"/>
    <path d="M67.093,18.620 C66.896,18.703 66.709,18.798 66.513,18.882 C109.579,12.560 153.088,32.460 176.206,70.161 C192.513,65.198 207.542,67.803 211.426,76.955 C187.678,20.989 123.057,-5.130 67.093,18.620 Z" id="path-11" class="cls-9" fill-rule="evenodd"/>
    <path d="M142.022,80.393 C132.421,84.466 112.484,96.808 107.852,102.991 C132.867,92.978 140.924,98.679 143.870,105.623 C139.987,96.471 148.553,83.853 163.452,75.573 C156.905,75.676 149.469,77.231 142.022,80.393 Z" id="path-12" class="cls-9" fill-rule="evenodd"/>
    <path d="M12.370,121.543 C10.698,121.543 9.200,120.380 8.842,118.679 C8.570,117.390 2.567,86.687 34.579,49.591 C35.884,48.082 38.164,47.913 39.677,49.217 C41.187,50.520 41.355,52.804 40.051,54.314 C10.538,88.514 15.861,116.920 15.919,117.203 C16.313,119.154 15.058,121.064 13.108,121.467 C12.860,121.519 12.613,121.543 12.370,121.543 Z" id="path-13" class="cls-15" fill-rule="evenodd"/>
  </g>
</svg>
