<svg xmlns="http://www.w3.org/2000/svg" xmlns:xlink="http://www.w3.org/1999/xlink" preserveAspectRatio="xMidYMid" width="218" height="140" viewBox="0 0 218 140">
  <defs>
    <style>

      .cls-3 {
        fill: #fbb713;
      }

      .cls-4 {
        fill: #ffffff;
      }

      .cls-5 {
        fill: #2476ff;
      }

      .cls-7 {
        fill: #020403;
        opacity: 0.25;
      }

      .cls-8 {
        fill: #020403;
        opacity: 0.35;
      }

      .cls-10 {
        fill: #020403;
      }

      .cls-11 {
        fill: #ff3a2f;
      }
    </style>
  </defs>
  <g id="group-153svg">
    <path d="M108.423,87.614 C108.423,87.614 173.490,83.472 173.490,83.472 C174.802,78.238 175.539,72.774 175.539,67.132 C175.539,30.066 145.490,0.015 108.423,0.015 C71.355,0.015 41.306,30.066 41.306,67.132 C41.306,72.774 42.043,78.238 43.355,83.472 C43.355,83.472 108.423,87.614 108.423,87.614 Z" id="path-1" class="cls-3" fill-rule="evenodd"/>
    <path d="M55.380,61.368 C55.073,61.368 54.763,61.327 54.452,61.245 C52.521,60.733 51.372,58.754 51.886,56.824 C57.649,35.105 73.611,17.261 94.585,9.090 C96.436,8.368 98.539,9.284 99.263,11.147 C99.988,13.005 99.066,15.102 97.206,15.825 C78.379,23.163 64.047,39.182 58.871,58.678 C58.442,60.298 56.979,61.368 55.380,61.368 Z" id="path-2" class="cls-4" fill-rule="evenodd"/>
    <path d="M114.356,138.456 C167.551,135.798 216.858,124.800 216.858,124.800 C211.002,101.188 174.393,83.415 174.393,83.415 C174.393,83.415 108.423,87.614 108.423,87.614 C108.423,87.614 42.452,83.415 42.452,83.415 C42.452,83.415 5.843,101.188 -0.015,124.800 C-0.015,124.800 49.294,135.798 102.489,138.456 C102.489,138.456 106.447,138.792 108.423,138.718 C110.398,138.792 114.356,138.456 114.356,138.456 Z" id="path-3" class="cls-5" fill-rule="evenodd"/>
    <path d="M18.753,118.619 C17.993,118.619 17.228,118.382 16.574,117.887 C14.982,116.682 14.668,114.415 15.874,112.823 C23.613,102.597 35.140,94.380 43.449,89.286 C45.145,88.242 47.376,88.775 48.419,90.479 C49.462,92.181 48.929,94.407 47.226,95.448 C39.449,100.217 28.696,107.860 21.637,117.187 C20.926,118.125 19.847,118.619 18.753,118.619 Z" id="path-4" class="cls-4" fill-rule="evenodd"/>
    <path d="M108.423,0.015 C105.799,0.015 103.224,0.203 100.679,0.496 C125.979,10.110 143.994,34.516 143.994,63.190 C143.994,68.830 143.257,74.294 141.945,79.529 C141.945,79.529 76.878,83.671 76.878,83.671 C76.878,83.671 42.924,81.509 42.924,81.509 C43.067,82.163 43.193,82.825 43.355,83.472 C43.355,83.472 108.423,87.614 108.423,87.614 C108.423,87.614 173.490,83.472 173.490,83.472 C174.802,78.238 175.539,72.774 175.539,67.132 C175.539,30.066 145.490,0.015 108.423,0.015 Z" id="path-5" class="cls-7" fill-rule="evenodd"/>
    <path d="M174.394,83.415 C174.394,83.415 130.838,86.187 130.838,86.187 C142.095,93.445 157.967,105.989 161.655,120.857 C161.655,120.857 112.348,131.855 59.151,134.512 C59.151,134.512 58.947,134.529 58.651,134.552 C72.224,136.237 87.192,137.691 102.489,138.455 C102.489,138.455 106.447,138.792 108.423,138.718 C110.398,138.792 114.356,138.455 114.356,138.455 C167.551,135.798 216.858,124.800 216.858,124.800 C211.002,101.188 174.394,83.415 174.394,83.415 Z" id="path-6" class="cls-8" fill-rule="evenodd"/>
    <path d="M186.184,90.220 C179.492,85.891 174.394,83.415 174.394,83.415 C174.394,83.415 171.596,83.592 171.596,83.592 C171.596,83.592 171.596,132.760 171.596,132.760 C171.953,132.709 172.309,132.658 172.664,132.608 C172.664,132.608 180.092,108.595 180.092,108.595 C180.092,108.595 186.184,130.405 186.184,130.405 C186.184,130.405 186.184,90.220 186.184,90.220 Z" id="path-7" class="cls-8" fill-rule="evenodd"/>
    <path d="M145.820,82.389 C137.460,84.186 132.139,92.419 133.935,100.778 C135.732,109.139 143.964,114.460 152.324,112.665 C160.684,110.867 168.957,93.254 168.957,93.254 C168.957,93.254 154.180,80.593 145.820,82.389 ZM151.822,103.692 C148.254,104.458 144.742,102.187 143.975,98.621 C143.209,95.056 145.480,91.542 149.046,90.777 C152.613,90.010 158.917,95.410 158.917,95.410 C158.917,95.410 155.388,102.925 151.822,103.692 Z" id="path-8" class="cls-10" fill-rule="evenodd"/>
    <path d="M195.794,65.681 C191.616,58.222 182.181,55.559 174.720,59.737 C167.260,63.915 164.537,83.184 164.537,83.184 C164.537,83.184 182.388,90.933 189.849,86.755 C197.309,82.577 199.971,73.141 195.794,65.681 ZM185.411,81.107 C181.370,83.371 171.700,79.173 171.700,79.173 C171.700,79.173 173.174,68.735 177.216,66.472 C181.258,64.209 186.368,65.651 188.632,69.692 C190.894,73.733 189.453,78.845 185.411,81.107 Z" id="path-9" class="cls-11" fill-rule="evenodd"/>
    <path d="M145.820,70.559 C137.460,72.356 132.139,80.589 133.935,88.949 C135.732,97.309 143.964,102.630 152.324,100.834 C160.684,99.038 168.957,81.424 168.957,81.424 C168.957,81.424 154.180,68.763 145.820,70.559 ZM151.822,91.862 C148.254,92.629 144.742,90.359 143.975,86.792 C143.209,83.225 145.480,79.712 149.046,78.946 C152.613,78.179 158.917,83.581 158.917,83.581 C158.917,83.581 155.388,91.097 151.822,91.862 Z" id="path-10" class="cls-11" fill-rule="evenodd"/>
    <path d="M178.298,81.841 C178.298,81.841 178.298,134.349 178.298,134.349 C178.298,134.349 172.205,112.538 172.205,112.538 C172.205,112.538 163.710,140.004 163.710,140.004 C163.710,140.004 163.710,81.841 163.710,81.841 C163.710,81.841 178.298,81.841 178.298,81.841 Z" id="path-11" class="cls-11" fill-rule="evenodd"/>
  </g>
</svg>
