<svg xmlns="http://www.w3.org/2000/svg" xmlns:xlink="http://www.w3.org/1999/xlink" preserveAspectRatio="xMidYMid" width="208" height="217" viewBox="0 0 208 217">
  <defs>
    <style>

      .cls-3 {
        fill: #0cb04a;
      }

      .cls-7 {
        fill: #020403;
        opacity: 0.35;
      }

      .cls-8 {
        fill: #ff3a2f;
      }

      .cls-9 {
        fill: #ffffff;
      }
    </style>
  </defs>
  <g id="group-44svg">
    <path d="M207.217,79.266 C207.217,85.293 202.332,90.179 196.306,90.179 C190.280,90.179 185.395,85.293 185.395,79.266 C185.395,73.241 190.280,68.355 196.306,68.355 C202.332,68.355 207.217,73.241 207.217,79.266 Z" id="path-1" class="cls-3" fill-rule="evenodd"/>
    <path d="M32.723,10.902 C32.723,16.928 27.838,21.814 21.812,21.814 C15.786,21.814 10.901,16.928 10.901,10.902 C10.901,4.875 15.786,-0.009 21.812,-0.009 C27.838,-0.009 32.723,4.875 32.723,10.902 Z" id="path-2" class="cls-3" fill-rule="evenodd"/>
    <path d="M145.161,177.199 C145.161,177.199 169.404,177.199 169.404,177.199 C169.404,177.199 169.404,115.488 169.404,115.488 C169.404,115.488 145.161,115.488 145.161,115.488 C145.161,115.488 136.117,115.488 136.117,115.488 C136.117,115.488 136.117,130.195 136.117,130.195 C136.117,130.195 156.410,130.195 156.410,130.195 C156.410,130.195 156.410,163.989 156.410,163.989 C156.410,163.989 136.117,163.989 136.117,163.989 C136.117,163.989 136.117,177.199 136.117,177.199 C136.117,177.199 145.161,177.199 145.161,177.199 Z" id="path-3" class="cls-3" fill-rule="evenodd"/>
    <path d="M138.550,86.836 C138.550,86.836 138.550,195.396 138.550,195.396 C138.550,206.763 130.925,216.869 119.558,216.869 C119.558,216.869 47.524,216.869 47.524,216.869 C36.158,216.869 28.355,206.763 28.355,195.396 C28.355,195.396 28.355,86.836 28.355,86.836 C28.355,86.836 138.550,86.836 138.550,86.836 Z" id="path-4" class="cls-3" fill-rule="evenodd"/>
    <path d="M138.550,86.836 C138.550,86.836 116.511,86.836 116.511,86.836 C116.511,86.836 116.511,97.004 116.511,97.004 C114.490,95.570 112.623,93.932 110.983,92.081 C105.102,98.719 96.538,102.928 86.971,102.928 C75.323,102.928 65.156,96.703 59.530,87.418 C53.905,96.703 43.737,102.928 32.088,102.928 C30.823,102.928 29.582,102.833 28.355,102.690 C28.355,102.690 28.355,120.514 28.355,120.514 C39.717,120.276 49.608,114.152 55.122,105.050 C60.748,114.334 70.915,120.559 82.563,120.559 C92.130,120.559 100.695,116.351 106.575,109.712 C109.345,112.839 112.726,115.400 116.511,117.263 C116.511,117.263 116.511,195.396 116.511,195.396 C116.511,206.763 108.886,216.869 97.520,216.869 C97.520,216.869 119.558,216.869 119.558,216.869 C130.925,216.869 138.550,206.763 138.550,195.396 C138.550,195.396 138.550,119.522 138.550,119.522 C138.550,119.522 138.550,102.689 138.550,102.689 C138.550,102.689 138.550,86.836 138.550,86.836 Z" id="path-5" class="cls-7" fill-rule="evenodd"/>
    <path d="M134.994,43.135 C125.428,43.135 113.345,49.366 112.773,48.810 C119.813,45.192 121.209,41.305 121.209,32.844 C121.209,20.799 111.444,11.035 99.400,11.035 C87.356,11.035 77.592,20.799 77.592,32.844 C77.592,34.284 67.674,28.186 60.483,28.186 C50.508,28.186 42.116,34.892 39.520,44.035 C37.131,43.468 34.651,43.135 32.088,43.135 C14.360,43.135 -0.011,57.507 -0.011,75.235 C-0.011,92.964 14.360,107.336 32.088,107.336 C43.737,107.336 53.905,101.111 59.530,91.826 C65.156,101.111 75.323,107.336 86.971,107.336 C96.538,107.336 105.102,103.127 110.983,96.489 C116.864,103.127 125.428,107.336 134.994,107.336 C152.722,107.336 167.093,92.964 167.093,75.235 C167.093,57.507 152.722,43.135 134.994,43.135 Z" id="path-6" class="cls-8" fill-rule="evenodd"/>
    <path d="M11.725,85.236 C11.591,85.236 11.459,85.230 11.323,85.214 C9.339,84.996 7.907,83.209 8.126,81.225 C9.228,71.257 14.524,62.153 22.655,56.246 C24.274,55.073 26.533,55.432 27.705,57.047 C28.878,58.661 28.520,60.923 26.905,62.095 C20.415,66.808 16.190,74.071 15.313,82.019 C15.108,83.868 13.543,85.236 11.725,85.236 Z" id="path-7" class="cls-9" fill-rule="evenodd"/>
    <path d="M48.343,48.240 C47.512,48.240 46.676,47.956 45.995,47.372 C44.478,46.073 44.302,43.792 45.600,42.274 C50.435,36.627 57.466,33.387 64.891,33.387 C66.887,33.387 68.506,35.005 68.506,37.001 C68.506,38.997 66.887,40.617 64.891,40.617 C59.581,40.617 54.551,42.935 51.092,46.976 C50.377,47.812 49.364,48.240 48.343,48.240 Z" id="path-8" class="cls-9" fill-rule="evenodd"/>
    <path d="M50.714,87.418 C45.089,96.703 34.921,102.928 23.273,102.928 C19.891,102.928 16.633,102.398 13.572,101.428 C18.807,105.135 25.185,107.335 32.088,107.335 C42.314,107.335 51.395,102.535 57.267,95.081 C54.716,92.875 52.472,90.319 50.714,87.418 Z" id="path-9" class="cls-7" fill-rule="evenodd"/>
    <path d="M112.393,28.436 C112.393,36.897 110.997,40.784 103.956,44.402 C104.423,44.855 112.529,40.805 120.690,39.288 C121.054,37.461 121.209,35.375 121.209,32.844 C121.209,22.510 114.002,13.901 104.353,11.650 C109.222,15.650 112.393,21.642 112.393,28.436 Z" id="path-10" class="cls-7" fill-rule="evenodd"/>
    <path d="M102.167,92.081 C96.287,98.719 87.722,102.928 78.156,102.928 C74.755,102.928 71.506,102.342 68.434,101.360 C73.670,105.096 80.045,107.335 86.971,107.335 C95.711,107.335 103.589,103.798 109.374,98.128 C106.688,96.463 104.254,94.434 102.167,92.081 Z" id="path-11" class="cls-7" fill-rule="evenodd"/>
    <path d="M144.695,44.636 C152.904,50.450 158.277,60.002 158.277,70.827 C158.277,88.555 143.907,102.928 126.178,102.928 C122.800,102.928 119.557,102.379 116.503,101.406 C121.729,105.121 128.092,107.335 134.994,107.335 C152.722,107.335 167.093,92.964 167.093,75.235 C167.093,60.890 157.680,48.748 144.695,44.636 Z" id="path-12" class="cls-7" fill-rule="evenodd"/>
    <path d="M68.026,200.649 C66.030,200.649 64.411,199.029 64.411,197.034 C64.411,197.034 64.411,126.508 64.411,126.508 C64.411,124.512 66.030,122.894 68.026,122.894 C70.022,122.894 71.641,124.512 71.641,126.508 C71.641,126.508 71.641,197.034 71.641,197.034 C71.641,199.029 70.022,200.649 68.026,200.649 Z" id="path-13" class="cls-7" fill-rule="evenodd"/>
    <path d="M98.881,200.649 C96.885,200.649 95.265,199.029 95.265,197.034 C95.265,197.034 95.265,126.508 95.265,126.508 C95.265,124.512 96.885,122.894 98.881,122.894 C100.877,122.894 102.494,124.512 102.494,126.508 C102.494,126.508 102.494,197.034 102.494,197.034 C102.494,199.029 100.877,200.649 98.881,200.649 Z" id="path-14" class="cls-7" fill-rule="evenodd"/>
  </g>
</svg>
