<svg xmlns="http://www.w3.org/2000/svg" xmlns:xlink="http://www.w3.org/1999/xlink" preserveAspectRatio="xMidYMid" width="154" height="214" viewBox="0 0 154 214">
  <defs>
    <style>

      .cls-3 {
        fill: #fbb713;
      }

      .cls-4 {
        fill: #020403;
        opacity: 0.25;
      }

      .cls-5 {
        fill: #000000;
        opacity: 0.35;
      }

      .cls-6 {
        fill: #142a3b;
      }

      .cls-9 {
        fill: #ffffff;
      }
    </style>
  </defs>
  <g id="group-135svg">
    <path d="M131.969,161.149 C141.997,137.147 144.371,110.864 144.821,96.293 C145.029,89.557 139.627,83.081 132.888,83.081 C132.888,83.081 21.584,83.081 21.584,83.081 C14.845,83.081 9.442,88.348 9.650,95.083 C10.526,123.495 18.723,195.077 76.696,213.078 C76.696,213.078 77.776,213.078 77.776,213.078 C120.269,199.077 131.969,161.149 131.969,161.149 Z" id="path-1" class="cls-3" fill-rule="evenodd"/>
    <path d="M135.833,82.552 C135.034,97.671 132.219,121.239 123.183,142.865 C123.183,142.865 111.484,180.914 68.990,196.288 C68.990,196.288 67.910,196.288 67.910,196.288 C46.779,189.883 32.284,176.115 22.324,159.841 C31.817,183.306 48.260,205.241 76.696,213.861 C76.696,213.861 77.776,213.861 77.776,213.861 C120.269,198.484 131.969,160.437 131.969,160.437 C141.997,136.434 144.371,110.004 144.822,95.433 C144.996,89.720 141.122,84.131 135.833,82.552 Z" id="path-2" class="cls-4" fill-rule="evenodd"/>
    <path d="M9.650,97.644 C9.798,102.438 10.189,96.197 10.958,102.947 C10.958,102.947 143.599,115.254 143.599,115.254 C144.303,108.870 144.680,103.105 144.822,98.512 C144.901,95.936 144.150,93.510 142.828,91.490 C142.828,91.490 11.294,91.490 11.294,91.490 C10.209,93.247 9.579,95.323 9.650,97.644 Z" id="path-3" class="cls-5" fill-rule="evenodd"/>
    <path d="M9.644,95.637 C0.698,95.886 0.365,89.100 0.365,89.100 C-4.558,54.995 44.228,35.486 44.228,35.486 C54.230,31.810 65.421,29.751 77.236,29.751 C119.690,29.751 154.105,56.323 154.105,89.100 C154.105,89.100 153.840,94.146 146.132,95.637 C146.132,95.637 146.132,95.637 146.132,95.637 " id="path-4" class="cls-6" fill-rule="evenodd"/>
    <path d="M94.069,31.224 C114.394,41.903 127.750,59.902 127.750,80.312 C127.750,80.312 127.483,85.359 119.775,86.852 C119.775,86.852 0.146,86.852 0.146,86.852 C0.203,87.597 0.256,88.340 0.365,89.099 C0.365,89.099 0.698,95.886 9.644,95.637 C9.644,95.637 146.132,95.637 146.132,95.637 C153.840,94.146 154.105,89.099 154.105,89.099 C154.105,60.792 128.416,37.156 94.069,31.224 Z" id="path-5" class="cls-5" fill-rule="evenodd"/>
    <path d="M76.778,36.153 C74.782,36.153 73.278,34.533 73.278,32.537 C73.278,32.537 73.278,3.620 73.278,3.620 C73.278,1.625 74.782,0.005 76.778,0.005 C78.774,0.005 80.277,1.625 80.277,3.620 C80.277,3.620 80.277,32.537 80.277,32.537 C80.277,34.533 78.774,36.153 76.778,36.153 Z" id="path-6" class="cls-6" fill-rule="evenodd"/>
    <path d="M18.867,77.458 C18.467,77.458 18.058,77.391 17.658,77.249 C15.782,76.580 14.797,74.525 15.461,72.646 C15.569,72.342 26.575,42.267 60.538,41.681 C62.540,41.628 64.180,43.236 64.215,45.232 C64.249,47.228 62.658,48.873 60.662,48.909 C31.813,49.405 22.650,74.014 22.273,75.061 C21.744,76.536 20.351,77.458 18.867,77.458 Z" id="path-7" class="cls-9" fill-rule="evenodd"/>
  </g>
</svg>
