<svg xmlns="http://www.w3.org/2000/svg" xmlns:xlink="http://www.w3.org/1999/xlink" preserveAspectRatio="xMidYMid" width="218" height="218" viewBox="0 0 218 218">
  <defs>
    <style>

      .cls-3 {
        fill: #2476ff;
      }

      .cls-4 {
        fill: #ffffff;
      }

      .cls-5 {
        fill: #020403;
        opacity: 0.25;
      }

      .cls-6 {
        fill: #142a3b;
      }

      .cls-7 {
        fill: #020403;
        opacity: 0.35;
      }
    </style>
  </defs>
  <g id="group-162svg">
    <path d="M216.884,108.450 C216.884,168.340 168.334,216.889 108.447,216.889 C48.558,216.889 0.009,168.340 0.009,108.450 C0.009,48.560 48.558,0.010 108.447,0.010 C168.334,0.010 216.884,48.560 216.884,108.450 Z" id="path-1" class="cls-3" fill-rule="evenodd"/>
    <path d="M24.985,100.944 C21.990,100.944 19.564,98.517 19.564,95.522 C19.564,51.425 55.439,15.548 99.536,15.548 C102.530,15.548 104.957,17.975 104.957,20.970 C104.957,23.964 102.530,26.392 99.536,26.392 C61.419,26.392 30.407,57.404 30.407,95.522 C30.407,98.517 27.980,100.944 24.985,100.944 Z" id="path-2" class="cls-4" fill-rule="evenodd"/>
    <path d="M148.221,7.573 C170.621,27.438 184.754,56.418 184.754,88.712 C184.754,148.602 136.205,197.153 76.317,197.153 C62.270,197.153 48.862,194.453 36.542,189.590 C55.682,206.563 80.852,216.890 108.447,216.890 C168.335,216.890 216.884,168.339 216.884,108.450 C216.884,62.607 188.424,23.438 148.221,7.573 Z" id="path-3" class="cls-5" fill-rule="evenodd"/>
    <path d="M136.560,84.352 C136.560,68.825 123.973,56.238 108.447,56.238 C92.920,56.238 80.333,68.825 80.333,84.352 C80.333,95.728 87.103,105.502 96.821,109.928 C96.821,109.928 88.365,160.662 88.365,160.662 C88.365,160.662 128.528,160.662 128.528,160.662 C128.528,160.662 120.072,109.928 120.072,109.928 C129.790,105.502 136.560,95.728 136.560,84.352 Z" id="path-4" class="cls-6" fill-rule="evenodd"/>
    <path d="M136.560,84.352 C136.560,68.824 123.973,56.238 108.447,56.238 C106.376,56.238 104.365,56.475 102.422,56.901 C115.050,59.661 124.511,70.896 124.511,84.352 C124.511,95.728 117.742,105.502 108.023,109.928 C108.023,109.928 116.479,160.662 116.479,160.662 C116.479,160.662 128.528,160.662 128.528,160.662 C128.528,160.662 120.072,109.928 120.072,109.928 C129.790,105.502 136.560,95.728 136.560,84.352 Z" id="path-5" class="cls-7" fill-rule="evenodd"/>
  </g>
</svg>
