<svg xmlns="http://www.w3.org/2000/svg" xmlns:xlink="http://www.w3.org/1999/xlink" preserveAspectRatio="xMidYMid" width="131" height="218" viewBox="0 0 131 218">
  <defs>
    <style>

      .cls-3 {
        fill: #0cb04a;
      }

      .cls-4 {
        fill: #fbb713;
      }

      .cls-5 {
        fill: #000000;
        opacity: 0.25;
      }

      .cls-6 {
        fill: #ff3a2f;
      }

      .cls-7 {
        fill: #142a3b;
      }

      .cls-10 {
        fill: #000000;
        opacity: 0.35;
      }

      .cls-11 {
        fill: #ffffff;
      }
    </style>
  </defs>
  <g id="group-18svg">
    <path d="M2.845,42.159 C2.845,42.159 -13.220,108.428 30.958,180.721 C30.958,180.721 101.241,180.721 101.241,180.721 C101.241,180.721 143.411,123.489 127.347,42.159 C127.347,42.159 2.845,42.159 2.845,42.159 Z" id="path-1" class="cls-3" fill-rule="evenodd"/>
    <path d="M9.968,135.226 C14.660,149.702 21.393,165.069 30.958,180.721 C30.958,180.721 101.241,180.721 101.241,180.721 C101.241,180.721 113.709,163.760 122.504,135.226 C122.504,135.226 9.968,135.226 9.968,135.226 Z" id="path-2" class="cls-4" fill-rule="evenodd"/>
    <path d="M127.347,42.159 C127.347,42.159 107.746,42.159 107.746,42.159 C117.239,116.507 79.554,167.709 79.554,167.709 C79.554,167.709 23.609,167.709 23.609,167.709 C25.854,172.016 28.291,176.356 30.958,180.721 C30.958,180.721 101.241,180.721 101.241,180.721 C101.241,180.721 143.411,123.489 127.347,42.159 Z" id="path-3" class="cls-5" fill-rule="evenodd"/>
    <path d="M42.992,120.455 C42.992,108.026 65.496,79.923 65.496,79.923 C65.496,79.923 88.000,108.026 88.000,120.455 C88.000,132.883 77.925,142.959 65.496,142.959 C53.068,142.959 42.992,132.883 42.992,120.455 Z" id="path-4" class="cls-6" fill-rule="evenodd"/>
    <path d="M95.592,216.868 C95.592,216.868 35.401,216.868 35.401,216.868 C33.168,216.868 31.359,215.058 31.359,212.826 C31.359,212.826 31.359,180.721 31.359,180.721 C31.359,180.721 99.634,180.721 99.634,180.721 C99.634,180.721 99.634,212.826 99.634,212.826 C99.634,215.058 97.824,216.868 95.592,216.868 Z" id="path-5" class="cls-7" fill-rule="evenodd"/>
    <path d="M129.171,42.159 C129.171,42.159 1.822,42.159 1.822,42.159 C1.822,42.159 1.822,3.396 1.822,3.396 C1.822,1.514 3.348,-0.011 5.229,-0.011 C5.229,-0.011 125.764,-0.011 125.764,-0.011 C127.646,-0.011 129.171,1.514 129.171,3.396 C129.171,3.396 129.171,42.159 129.171,42.159 Z" id="path-6" class="cls-7" fill-rule="evenodd"/>
    <path d="M75.537,216.868 C75.537,216.868 75.537,208.836 75.537,208.836 C75.537,203.312 71.019,198.795 65.496,198.795 C59.974,198.795 55.456,203.312 55.456,208.836 C55.456,208.836 55.456,216.868 55.456,216.868 C55.456,216.868 75.537,216.868 75.537,216.868 Z" id="path-7" class="cls-4" fill-rule="evenodd"/>
    <path d="M130.027,60.447 C129.435,54.497 128.581,48.409 127.347,42.159 C127.347,42.159 2.845,42.159 2.845,42.159 C2.845,42.159 2.273,44.523 1.642,48.834 C1.642,48.834 130.027,60.447 130.027,60.447 Z" id="path-8" class="cls-10" fill-rule="evenodd"/>
    <path d="M31.343,150.157 C29.898,150.157 28.532,149.283 27.974,147.853 C15.618,116.092 13.427,87.643 13.764,69.370 C13.803,67.374 15.573,65.793 17.446,65.822 C19.442,65.860 21.031,67.508 20.994,69.504 C20.667,87.126 22.781,114.569 34.712,145.231 C35.436,147.092 34.515,149.188 32.655,149.911 C32.224,150.079 31.779,150.157 31.343,150.157 Z" id="path-9" class="cls-11" fill-rule="evenodd"/>
  </g>
</svg>
