<svg xmlns="http://www.w3.org/2000/svg" xmlns:xlink="http://www.w3.org/1999/xlink" preserveAspectRatio="xMidYMid" width="138" height="218" viewBox="0 0 138 218">
  <defs>
    <style>

      .cls-3 {
        fill: #142a3b;
      }

      .cls-4 {
        fill: #020403;
        opacity: 0.35;
      }

      .cls-5 {
        fill: #ff3a2f;
      }

      .cls-6 {
        fill: #ffffff;
      }

      .cls-8 {
        fill: #fbb713;
      }
    </style>
  </defs>
  <g id="group-40svg">
    <path d="M87.508,0.011 C87.508,0.011 50.063,0.031 50.063,0.031 C42.922,0.034 37.117,5.845 37.120,12.987 C37.120,12.987 37.140,51.405 37.140,51.405 C37.140,51.405 43.067,51.401 43.067,51.401 C43.067,51.401 48.994,51.398 48.994,51.398 C48.994,51.398 88.631,51.378 88.631,51.378 C88.631,51.378 94.558,51.375 94.558,51.375 C94.558,51.375 100.485,51.372 100.485,51.372 C100.485,51.372 100.464,12.954 100.464,12.954 C100.461,5.819 94.644,0.008 87.508,0.011 Z" id="path-1" class="cls-3" fill-rule="evenodd"/>
    <path d="M100.465,12.954 C100.460,5.819 94.644,0.008 87.509,0.010 C87.509,0.010 73.737,0.018 73.737,0.018 C80.838,0.053 86.617,5.843 86.621,12.954 C86.621,12.954 86.641,51.372 86.641,51.372 C86.641,51.372 80.715,51.375 80.715,51.375 C80.715,51.375 74.788,51.378 74.788,51.378 C74.788,51.378 37.140,51.398 37.140,51.398 C37.140,51.398 37.140,51.405 37.140,51.405 C37.140,51.405 43.067,51.401 43.067,51.401 C43.067,51.401 48.993,51.398 48.993,51.398 C48.993,51.398 88.631,51.378 88.631,51.378 C88.631,51.378 94.558,51.375 94.558,51.375 C94.558,51.375 100.483,51.372 100.483,51.372 C100.483,51.372 100.465,12.954 100.465,12.954 Z" id="path-2" class="cls-4" fill-rule="evenodd"/>
    <path d="M114.566,47.710 C114.566,47.710 23.070,47.757 23.070,47.757 C10.333,47.764 -0.014,58.134 -0.009,70.859 C-0.009,70.859 0.055,193.817 0.055,193.817 C0.062,206.542 10.432,216.897 23.158,216.890 C23.158,216.890 114.646,216.843 114.646,216.843 C127.383,216.836 137.732,206.465 137.726,193.746 C137.726,193.746 137.662,70.788 137.662,70.788 C137.650,58.063 127.297,47.715 114.566,47.710 Z" id="path-3" class="cls-5" fill-rule="evenodd"/>
    <path d="M13.899,123.600 C11.906,123.600 10.288,121.986 10.284,119.993 C10.284,119.993 10.220,84.709 10.220,84.709 C10.217,77.584 12.993,70.880 18.037,65.828 C23.084,60.774 29.786,57.989 36.911,57.985 C36.911,57.985 36.913,57.985 36.913,57.985 C38.909,57.985 40.526,59.603 40.528,61.598 C40.530,63.595 38.911,65.214 36.915,65.214 C31.723,65.217 26.834,67.249 23.152,70.937 C19.473,74.622 17.445,79.511 17.449,84.701 C17.449,84.701 17.513,119.979 17.513,119.979 C17.517,121.976 15.902,123.596 13.906,123.600 C13.903,123.600 13.901,123.600 13.899,123.600 Z" id="path-4" class="cls-6" fill-rule="evenodd"/>
    <path d="M137.662,70.788 C137.650,58.063 127.296,47.715 114.566,47.710 C114.566,47.710 87.020,47.724 87.020,47.724 C99.684,47.807 109.962,58.112 109.975,70.788 C109.975,70.788 110.040,193.746 110.040,193.746 C110.047,206.465 99.696,216.836 86.961,216.843 C86.961,216.843 23.015,216.875 23.015,216.875 C23.064,216.875 23.109,216.890 23.157,216.890 C23.157,216.890 114.646,216.843 114.646,216.843 C127.383,216.836 137.732,206.465 137.726,193.746 C137.726,193.746 137.662,70.788 137.662,70.788 Z" id="path-5" class="cls-4" fill-rule="evenodd"/>
    <path d="M89.319,107.909 C90.314,105.699 92.061,103.160 94.194,101.002 C96.344,98.880 98.892,97.135 101.102,96.132 C103.277,95.088 105.155,94.815 105.155,94.815 C105.155,94.815 104.883,96.687 103.847,98.869 C102.841,101.080 101.105,103.630 98.980,105.788 C96.828,107.917 94.288,109.667 92.071,110.675 C89.890,111.714 88.018,111.981 88.018,111.981 C88.018,111.981 88.283,110.086 89.319,107.909 Z" id="path-6" class="cls-8" fill-rule="evenodd"/>
    <path d="M66.898,83.585 C67.703,81.309 68.834,79.791 68.834,79.791 C68.834,79.791 69.967,81.307 70.775,83.584 C71.635,85.859 72.205,88.893 72.218,91.922 C72.208,94.945 71.647,97.979 70.789,100.256 C69.984,102.532 68.847,104.044 68.847,104.044 C68.847,104.044 67.708,102.532 66.902,100.258 C66.040,97.977 65.476,94.948 65.456,91.925 C65.473,88.896 66.040,85.857 66.898,83.585 Z" id="path-7" class="cls-8" fill-rule="evenodd"/>
    <path d="M36.572,96.160 C38.795,97.155 41.333,98.902 43.491,101.028 C45.614,103.190 47.363,105.732 48.360,107.942 C49.404,110.129 49.678,111.996 49.678,111.996 C49.678,111.996 47.805,111.724 45.630,110.676 C43.413,109.681 40.869,107.934 38.711,105.819 C36.582,103.664 34.832,101.128 33.823,98.911 C32.785,96.731 32.518,94.853 32.518,94.853 C32.518,94.853 34.397,95.118 36.572,96.160 Z" id="path-8" class="cls-8" fill-rule="evenodd"/>
    <path d="M21.289,133.122 C19.012,132.305 17.500,131.180 17.500,131.180 C17.500,131.180 19.011,130.047 21.287,129.234 C23.562,128.372 26.596,127.814 29.624,127.795 C32.654,127.811 35.688,128.372 37.958,129.237 C40.241,130.042 41.753,131.167 41.753,131.167 C41.753,131.167 40.235,132.300 37.960,133.101 C35.691,133.956 32.658,134.520 29.628,134.551 C26.599,134.529 23.565,133.985 21.289,133.122 Z" id="path-9" class="cls-8" fill-rule="evenodd"/>
    <path d="M48.402,154.385 C47.401,156.596 45.661,159.158 43.534,161.309 C41.372,163.439 38.836,165.188 36.620,166.185 C34.445,167.230 32.567,167.503 32.567,167.503 C32.567,167.503 32.833,165.612 33.869,163.431 C34.863,161.219 36.611,158.676 38.743,156.518 C40.893,154.388 43.441,152.639 45.663,151.642 C47.837,150.609 49.710,150.331 49.710,150.331 C49.710,150.331 49.439,152.215 48.402,154.385 Z" id="path-10" class="cls-8" fill-rule="evenodd"/>
    <path d="M70.829,178.727 C70.024,180.997 68.888,182.515 68.888,182.515 C68.888,182.515 67.749,180.999 66.941,178.728 C66.081,176.447 65.517,173.425 65.497,170.396 C65.513,167.373 66.081,164.339 66.938,162.069 C67.743,159.780 68.875,158.262 68.875,158.262 C68.875,158.262 70.008,159.768 70.815,162.060 C71.675,164.330 72.245,167.352 72.259,170.392 C72.249,173.415 71.687,176.444 70.829,178.727 Z" id="path-11" class="cls-8" fill-rule="evenodd"/>
    <path d="M101.138,166.152 C98.927,165.146 96.378,163.410 94.212,161.283 C92.084,159.139 90.335,156.585 89.338,154.381 C88.293,152.189 88.025,150.310 88.025,150.310 C88.025,150.310 89.904,150.576 92.086,151.618 C94.309,152.612 96.853,154.359 99.005,156.487 C101.134,158.642 102.884,161.196 103.868,163.406 C104.913,165.593 105.186,167.466 105.186,167.466 C105.186,167.466 103.320,167.182 101.138,166.152 Z" id="path-12" class="cls-8" fill-rule="evenodd"/>
    <path d="M116.435,133.060 C114.153,133.916 111.126,134.480 108.097,134.511 C105.068,134.489 102.040,133.940 99.763,133.080 C97.481,132.264 95.969,131.138 95.969,131.138 C95.969,131.138 97.486,130.006 99.761,129.194 C102.036,128.333 105.071,127.773 108.093,127.754 C111.122,127.770 114.150,128.333 116.433,129.196 C118.709,130.001 120.221,131.126 120.221,131.126 C120.221,131.126 118.710,132.247 116.435,133.060 Z" id="path-13" class="cls-8" fill-rule="evenodd"/>
    <path d="M86.131,127.795 C86.131,137.365 78.373,145.124 68.802,145.124 C59.232,145.124 51.475,137.365 51.475,127.795 C51.475,118.224 59.232,110.467 68.802,110.467 C78.373,110.467 86.131,118.224 86.131,127.795 Z" id="path-14" class="cls-8" fill-rule="evenodd"/>
  </g>
</svg>
