<svg xmlns="http://www.w3.org/2000/svg" xmlns:xlink="http://www.w3.org/1999/xlink" preserveAspectRatio="xMidYMid" width="69" height="217" viewBox="0 0 69 217">
  <defs>
    <style>

      .cls-3 {
        fill: #142a3b;
      }

      .cls-4 {
        fill: #010101;
        opacity: 0.35;
      }

      .cls-5 {
        fill: #fbb713;
      }

      .cls-7 {
        fill: #ffffff;
      }
    </style>
  </defs>
  <g id="group-145svg">
    <path d="M24.415,-0.009 C28.949,-0.009 36.969,0.135 43.067,0.135 C46.899,0.135 47.603,3.613 47.603,3.613 C47.603,3.613 47.603,44.398 47.603,56.925 C47.603,64.025 49.702,64.999 51.265,66.116 C53.334,67.583 58.949,69.163 61.543,70.288 C69.569,73.775 68.697,82.123 68.697,82.123 C68.697,82.123 68.640,190.092 68.640,210.138 C68.640,214.872 66.422,216.872 62.587,216.872 C45.162,216.872 24.815,216.728 8.300,216.728 C4.289,216.728 0.011,216.451 0.011,210.883 C0.011,186.107 0.011,81.711 0.011,81.711 C0.011,81.711 0.121,73.498 7.859,70.016 C14.655,66.948 13.968,67.509 16.920,65.698 C20.150,63.725 20.233,62.498 20.233,57.064 C20.233,25.315 20.060,6.959 20.060,3.613 C20.060,1.664 22.720,-0.009 24.415,-0.009 Z" id="path-1" class="cls-3" fill-rule="evenodd"/>
    <path d="M61.543,70.288 C58.949,69.163 53.334,67.583 51.265,66.116 C49.702,64.999 47.603,64.025 47.603,56.925 C47.603,44.398 47.603,3.613 47.603,3.613 C47.603,3.613 46.900,0.135 43.067,0.135 C36.969,0.135 28.949,-0.009 24.415,-0.009 C22.719,-0.009 20.060,1.664 20.060,3.613 C20.060,3.711 20.061,3.867 20.061,3.993 C23.755,4.033 27.796,4.078 31.237,4.078 C35.070,4.078 35.774,7.555 35.774,7.555 C35.774,7.555 35.774,48.339 35.774,60.868 C35.774,67.969 37.872,68.943 39.435,70.059 C41.505,71.527 47.120,73.107 49.713,74.232 C57.739,77.717 56.868,86.066 56.868,86.066 C56.868,86.066 56.810,194.033 56.810,214.080 C56.810,215.152 56.682,216.066 56.462,216.866 C58.532,216.869 60.583,216.872 62.587,216.872 C66.422,216.872 68.640,214.872 68.640,210.138 C68.640,190.091 68.697,82.123 68.697,82.123 C68.697,82.123 69.569,73.775 61.543,70.288 Z" id="path-2" class="cls-4" fill-rule="evenodd"/>
    <path d="M47.263,22.749 C47.263,22.749 20.761,22.749 20.761,22.749 C20.761,22.749 20.761,15.521 20.761,15.521 C20.761,15.521 47.263,15.521 47.263,15.521 C47.263,15.521 47.263,22.749 47.263,22.749 Z" id="path-3" class="cls-5" fill-rule="evenodd"/>
    <path d="M59.862,168.465 C59.862,169.975 58.679,171.196 57.244,171.196 C57.244,171.196 12.091,171.196 12.091,171.196 C10.652,171.196 9.488,169.975 9.488,168.465 C9.488,168.465 9.488,108.443 9.488,108.443 C9.488,106.936 10.652,105.715 12.091,105.715 C12.091,105.715 57.244,105.715 57.244,105.715 C58.679,105.715 59.862,106.936 59.862,108.443 C59.862,108.443 59.862,168.465 59.862,168.465 Z" id="path-4" class="cls-5" fill-rule="evenodd"/>
    <path d="M9.488,101.324 C7.492,101.324 5.874,99.705 5.874,97.709 C5.874,78.313 18.550,70.876 25.251,69.654 C27.235,69.304 29.097,70.598 29.457,72.560 C29.814,74.518 28.523,76.390 26.573,76.759 C25.961,76.884 13.103,79.694 13.103,97.709 C13.103,99.705 11.484,101.324 9.488,101.324 Z" id="path-5" class="cls-7" fill-rule="evenodd"/>
  </g>
</svg>
