<svg xmlns="http://www.w3.org/2000/svg" xmlns:xlink="http://www.w3.org/1999/xlink" preserveAspectRatio="xMidYMid" width="217" height="218" viewBox="0 0 217 218">
  <defs>
    <style>

      .cls-3 {
        fill: #fbb713;
      }

      .cls-4 {
        fill: #010101;
        opacity: 0.25;
      }

      .cls-5 {
        fill: #142a3b;
      }

      .cls-6 {
        fill: #010101;
        opacity: 0.35;
      }

      .cls-7 {
        fill: #020200;
        opacity: 0.35;
      }
    </style>
  </defs>
  <g id="group-62svg">
    <path d="M191.959,184.649 C191.959,184.649 24.909,184.649 24.909,184.649 C24.909,184.649 54.215,0.007 54.215,0.007 C54.215,0.007 162.652,0.007 162.652,0.007 C162.652,0.007 191.959,184.649 191.959,184.649 Z" id="path-1" class="cls-3" fill-rule="evenodd"/>
    <path d="M162.652,0.007 C162.652,0.007 141.497,0.007 141.497,0.007 C141.497,0.007 162.515,132.422 162.515,132.422 C165.552,151.557 150.766,168.876 131.392,168.876 C131.392,168.876 27.412,168.876 27.412,168.876 C27.412,168.876 24.909,184.649 24.909,184.649 C24.909,184.649 191.959,184.649 191.959,184.649 C191.959,184.649 162.652,0.007 162.652,0.007 Z" id="path-2" class="cls-4" fill-rule="evenodd"/>
    <path d="M216.871,216.887 C216.871,216.887 -0.003,216.887 -0.003,216.887 C-0.003,216.887 -0.003,184.649 -0.003,184.649 C-0.003,184.649 216.871,184.649 216.871,184.649 C216.871,184.649 216.871,216.887 216.871,216.887 Z" id="path-3" class="cls-5" fill-rule="evenodd"/>
    <path d="M201.098,184.649 C201.098,184.649 201.098,191.249 201.098,191.249 C201.098,201.052 193.151,209.000 183.347,209.000 C183.347,209.000 -0.003,209.000 -0.003,209.000 C-0.003,209.000 -0.003,216.887 -0.003,216.887 C-0.003,216.887 216.871,216.887 216.871,216.887 C216.871,216.887 216.871,184.649 216.871,184.649 C216.871,184.649 201.098,184.649 201.098,184.649 Z" id="path-4" class="cls-6" fill-rule="evenodd"/>
    <path d="M145.893,59.445 C143.897,59.445 142.279,57.827 142.279,55.830 C142.279,55.830 142.279,45.129 142.279,45.129 C142.279,43.132 143.897,41.514 145.893,41.514 C147.890,41.514 149.508,43.132 149.508,45.129 C149.508,45.129 149.508,55.830 149.508,55.830 C149.508,57.827 147.890,59.445 145.893,59.445 Z" id="path-5" class="cls-7" fill-rule="evenodd"/>
    <path d="M106.463,59.445 C104.467,59.445 102.848,57.827 102.848,55.830 C102.848,55.830 102.848,45.129 102.848,45.129 C102.848,43.132 104.467,41.514 106.463,41.514 C108.459,41.514 110.078,43.132 110.078,45.129 C110.078,45.129 110.078,55.830 110.078,55.830 C110.078,57.827 108.459,59.445 106.463,59.445 Z" id="path-6" class="cls-7" fill-rule="evenodd"/>
    <path d="M67.031,59.445 C65.035,59.445 63.417,57.827 63.417,55.830 C63.417,55.830 63.417,45.129 63.417,45.129 C63.417,43.132 65.035,41.514 67.031,41.514 C69.027,41.514 70.646,43.132 70.646,45.129 C70.646,45.129 70.646,55.830 70.646,55.830 C70.646,57.827 69.027,59.445 67.031,59.445 Z" id="path-7" class="cls-7" fill-rule="evenodd"/>
    <path d="M67.031,110.707 C65.035,110.707 63.417,109.088 63.417,107.091 C63.417,107.091 63.417,96.391 63.417,96.391 C63.417,94.395 65.035,92.776 67.031,92.776 C69.027,92.776 70.646,94.395 70.646,96.391 C70.646,96.391 70.646,107.091 70.646,107.091 C70.646,109.088 69.027,110.707 67.031,110.707 Z" id="path-8" class="cls-7" fill-rule="evenodd"/>
    <path d="M130.122,138.310 C128.125,138.310 126.507,136.691 126.507,134.695 C126.507,134.695 126.507,123.993 126.507,123.993 C126.507,121.997 128.125,120.378 130.122,120.378 C132.118,120.378 133.736,121.997 133.736,123.993 C133.736,123.993 133.736,134.695 133.736,134.695 C133.736,136.691 132.118,138.310 130.122,138.310 Z" id="path-9" class="cls-7" fill-rule="evenodd"/>
    <path d="M86.747,161.969 C84.751,161.969 83.133,160.351 83.133,158.355 C83.133,158.355 83.133,147.652 83.133,147.652 C83.133,145.656 84.751,144.038 86.747,144.038 C88.743,144.038 90.362,145.656 90.362,147.652 C90.362,147.652 90.362,158.355 90.362,158.355 C90.362,160.351 88.743,161.969 86.747,161.969 Z" id="path-10" class="cls-7" fill-rule="evenodd"/>
    <path d="M149.838,102.821 C147.842,102.821 146.223,101.202 146.223,99.206 C146.223,99.206 146.223,88.505 146.223,88.505 C146.223,86.508 147.842,84.890 149.838,84.890 C151.834,84.890 153.453,86.508 153.453,88.505 C153.453,88.505 153.453,99.206 153.453,99.206 C153.453,101.202 151.834,102.821 149.838,102.821 Z" id="path-11" class="cls-7" fill-rule="evenodd"/>
    <path d="M149.838,169.856 C147.842,169.856 146.223,168.238 146.223,166.241 C146.223,166.241 146.223,155.539 146.223,155.539 C146.223,153.543 147.842,151.924 149.838,151.924 C151.834,151.924 153.453,153.543 153.453,155.539 C153.453,155.539 153.453,166.241 153.453,166.241 C153.453,168.238 151.834,169.856 149.838,169.856 Z" id="path-12" class="cls-7" fill-rule="evenodd"/>
    <path d="M51.258,161.969 C49.262,161.969 47.643,160.351 47.643,158.355 C47.643,158.355 47.643,147.652 47.643,147.652 C47.643,145.656 49.262,144.038 51.258,144.038 C53.254,144.038 54.873,145.656 54.873,147.652 C54.873,147.652 54.873,158.355 54.873,158.355 C54.873,160.351 53.254,161.969 51.258,161.969 Z" id="path-13" class="cls-7" fill-rule="evenodd"/>
    <path d="M110.406,98.877 C108.410,98.877 106.792,97.258 106.792,95.263 C106.792,95.263 106.792,84.561 106.792,84.561 C106.792,82.565 108.410,80.946 110.406,80.946 C112.402,80.946 114.021,82.565 114.021,84.561 C114.021,84.561 114.021,95.263 114.021,95.263 C114.021,97.258 112.402,98.877 110.406,98.877 Z" id="path-14" class="cls-7" fill-rule="evenodd"/>
  </g>
</svg>
