<svg xmlns="http://www.w3.org/2000/svg" xmlns:xlink="http://www.w3.org/1999/xlink" preserveAspectRatio="xMidYMid" width="217" height="144" viewBox="0 0 217 144">
  <defs>
    <style>

      .cls-3 {
        fill: #ff3a2f;
      }

      .cls-4 {
        fill: #010101;
        opacity: 0.35;
      }

      .cls-5 {
        fill: #ffffff;
      }

      .cls-6 {
        fill: #0cb04a;
      }
    </style>
  </defs>
  <g id="group-124svg">
    <path d="M29.074,78.127 C30.504,91.329 39.109,123.039 160.974,141.598 C160.974,141.598 207.532,147.895 215.789,134.575 C224.041,121.260 182.568,114.293 174.517,111.286 C126.000,93.171 91.235,37.689 71.793,31.191 C59.886,27.210 35.844,27.405 35.844,27.405 C35.844,27.405 14.458,0.009 14.458,0.009 C14.458,0.009 -0.003,17.723 -0.003,17.723 C-0.003,17.723 28.266,38.173 28.266,38.173 C28.266,38.173 28.204,70.090 29.074,78.127 Z" id="path-1" class="cls-3" fill-rule="evenodd"/>
    <path d="M215.789,134.575 C216.065,134.131 216.279,133.695 216.444,133.265 C216.474,133.186 216.486,133.110 216.514,133.032 C216.637,132.672 216.738,132.313 216.790,131.964 C216.798,131.912 216.796,131.863 216.802,131.811 C216.846,131.429 216.860,131.052 216.825,130.681 C216.825,130.681 216.820,130.649 216.818,130.631 C216.775,130.231 216.693,129.836 216.565,129.450 C216.565,129.450 216.564,129.448 216.564,129.448 C203.066,138.206 165.226,133.092 165.226,133.092 C68.658,118.386 50.817,87.131 44.040,74.789 C42.857,72.634 43.573,69.971 45.642,68.643 C55.336,62.425 70.962,36.587 68.790,30.342 C60.122,28.200 47.716,27.614 40.865,27.460 C38.328,28.038 36.140,28.617 34.653,29.039 C33.274,29.428 31.813,29.157 30.653,28.318 C30.653,28.318 9.526,13.034 9.526,13.034 C7.513,11.580 4.714,11.944 3.142,13.869 C3.142,13.869 3.141,13.870 3.141,13.870 C1.435,15.960 1.840,19.057 4.027,20.638 C4.027,20.638 24.514,35.458 24.514,35.458 C24.514,35.458 28.266,38.174 28.266,38.174 C28.266,38.174 28.265,39.165 28.266,40.764 C28.266,41.040 28.266,41.354 28.267,41.668 C28.268,41.964 28.268,42.283 28.269,42.609 C28.269,42.979 28.271,43.362 28.272,43.768 C28.273,44.163 28.274,44.585 28.275,45.011 C28.276,45.336 28.278,45.651 28.279,45.992 C28.282,46.756 28.286,47.564 28.291,48.397 C28.292,48.621 28.294,48.846 28.295,49.074 C28.300,49.871 28.305,50.690 28.312,51.530 C28.314,51.874 28.318,52.229 28.321,52.578 C28.326,53.246 28.332,53.923 28.339,54.608 C28.343,55.001 28.347,55.398 28.352,55.795 C28.358,56.435 28.366,57.078 28.375,57.724 C28.380,58.177 28.386,58.629 28.393,59.082 C28.402,59.783 28.413,60.481 28.424,61.177 C28.430,61.499 28.434,61.823 28.440,62.143 C28.457,63.128 28.476,64.103 28.497,65.060 C28.500,65.231 28.504,65.400 28.508,65.571 C28.528,66.469 28.550,67.348 28.573,68.202 C28.583,68.550 28.594,68.878 28.605,69.218 C28.622,69.822 28.641,70.417 28.661,70.987 C28.673,71.326 28.686,71.652 28.699,71.979 C28.720,72.523 28.742,73.042 28.766,73.544 C28.779,73.840 28.793,74.134 28.808,74.414 C28.834,74.919 28.862,75.385 28.891,75.833 C28.905,76.049 28.919,76.278 28.933,76.479 C28.977,77.091 29.023,77.649 29.073,78.112 C29.073,78.112 29.074,78.126 29.074,78.126 C29.834,85.141 32.618,97.377 53.334,110.092 C54.552,110.840 55.832,111.590 57.178,112.340 C65.254,116.841 75.678,121.365 89.154,125.708 C91.399,126.430 93.730,127.149 96.149,127.861 C113.077,132.850 134.315,137.538 160.974,141.598 C160.974,141.598 207.532,147.894 215.789,134.575 Z" id="path-2" class="cls-4" fill-rule="evenodd"/>
    <path d="M98.600,73.924 C97.179,73.924 95.832,73.082 95.257,71.688 C95.155,71.445 88.966,57.037 74.822,52.978 C72.904,52.428 71.795,50.426 72.344,48.506 C72.897,46.587 74.892,45.480 76.817,46.030 C94.432,51.085 101.642,68.209 101.942,68.936 C102.699,70.782 101.817,72.894 99.971,73.653 C99.521,73.837 99.056,73.924 98.600,73.924 Z" id="path-3" class="cls-5" fill-rule="evenodd"/>
    <path d="M61.833,29.027 C49.897,27.296 35.844,27.406 35.844,27.406 C35.844,27.406 14.458,0.008 14.458,0.008 C14.458,0.008 -0.003,17.723 -0.003,17.723 C-0.003,17.723 28.266,38.174 28.266,38.174 C28.266,38.174 28.237,53.301 28.503,65.350 C45.834,57.271 57.159,45.303 61.833,29.027 Z" id="path-4" class="cls-6" fill-rule="evenodd"/>
    <path d="M32.756,56.845 C32.489,44.796 32.519,29.668 32.519,29.668 C32.519,29.668 5.941,10.441 5.941,10.441 C5.941,10.441 -0.003,17.723 -0.003,17.723 C-0.003,17.723 28.266,38.174 28.266,38.174 C28.266,38.174 28.237,53.301 28.503,65.350 C44.115,58.074 54.803,47.606 60.197,33.709 C54.175,43.445 44.998,51.138 32.756,56.845 Z" id="path-5" class="cls-4" fill-rule="evenodd"/>
  </g>
</svg>
