<svg xmlns="http://www.w3.org/2000/svg" xmlns:xlink="http://www.w3.org/1999/xlink" preserveAspectRatio="xMidYMid" width="186" height="218" viewBox="0 0 186 218">
  <defs>
    <style>

      .cls-3 {
        fill: #0cb04a;
      }

      .cls-5 {
        fill: #fbb713;
      }

      .cls-6 {
        fill: #ff3a2f;
      }

      .cls-7 {
        fill: #142a3b;
      }

      .cls-8 {
        fill: #000000;
        opacity: 0.35;
      }

      .cls-13 {
        fill: #2476ff;
      }

      .cls-15 {
        fill: #ffffff;
      }
    </style>
  </defs>
  <g id="group-20svg">
    <path d="M20.278,52.902 C24.921,57.546 24.921,65.074 20.278,69.718 C15.634,74.362 8.105,74.362 3.461,69.718 C-1.182,65.074 -1.182,57.546 3.461,52.902 C8.105,48.258 15.634,48.258 20.278,52.902 Z" id="path-1" class="cls-3" fill-rule="evenodd"/>
    <path d="M58.775,2.264 C61.780,5.268 61.780,10.139 58.775,13.144 C55.771,16.148 50.901,16.148 47.896,13.144 C44.892,10.139 44.892,5.268 47.896,2.264 C50.901,-0.740 55.771,-0.740 58.775,2.264 Z" id="path-2" class="cls-3" fill-rule="evenodd"/>
    <path d="M144.981,216.890 C144.981,216.890 46.868,216.890 46.868,216.890 C43.739,216.890 41.202,214.353 41.202,211.223 C41.202,211.223 41.202,95.822 41.202,95.822 C41.202,89.287 46.499,83.988 53.034,83.988 C53.034,83.988 138.815,83.988 138.815,83.988 C145.350,83.988 150.647,89.287 150.647,95.822 C150.647,95.822 150.647,211.223 150.647,211.223 C150.647,214.353 148.110,216.890 144.981,216.890 Z" id="path-3" class="cls-5" fill-rule="evenodd"/>
    <path d="M114.352,83.988 C114.352,83.988 77.498,83.988 77.498,83.988 C77.498,83.988 77.498,66.119 77.498,66.119 C77.498,66.119 114.352,66.119 114.352,66.119 C114.352,66.119 114.352,83.988 114.352,83.988 Z" id="path-4" class="cls-6" fill-rule="evenodd"/>
    <path d="M173.318,28.148 C173.318,28.148 75.264,28.148 75.264,28.148 C71.255,28.148 68.005,31.398 68.005,35.408 C68.005,35.408 68.005,35.408 68.005,35.408 C68.005,39.417 71.255,42.667 75.264,42.667 C75.264,42.667 79.453,42.667 79.453,42.667 C83.461,42.667 86.711,45.917 86.711,49.927 C86.711,49.927 86.711,66.119 86.711,66.119 C86.711,66.119 105.138,66.119 105.138,66.119 C105.138,66.119 105.138,49.927 105.138,49.927 C105.138,45.917 108.388,42.667 112.397,42.667 C112.397,42.667 173.318,42.667 173.318,42.667 C177.327,42.667 180.578,39.417 180.578,35.408 C180.578,35.408 180.578,35.408 180.578,35.408 C180.578,31.398 177.327,28.148 173.318,28.148 Z" id="path-5" class="cls-7" fill-rule="evenodd"/>
    <path d="M86.711,54.795 C86.711,54.795 86.711,66.119 86.711,66.119 C86.711,66.119 105.138,66.119 105.138,66.119 C105.138,66.119 105.138,54.795 105.138,54.795 C105.138,54.795 86.711,54.795 86.711,54.795 Z" id="path-6" class="cls-8" fill-rule="evenodd"/>
    <path d="M114.353,116.641 C114.353,116.641 77.497,116.641 77.497,116.641 C77.497,116.641 77.497,109.411 77.497,109.411 C77.497,109.411 114.353,109.411 114.353,109.411 C114.353,109.411 114.353,116.641 114.353,116.641 Z" id="path-7" class="cls-7" fill-rule="evenodd"/>
    <path d="M114.353,135.068 C114.353,135.068 77.497,135.068 77.497,135.068 C77.497,135.068 77.497,127.839 77.497,127.839 C77.497,127.839 114.353,127.839 114.353,127.839 C114.353,127.839 114.353,135.068 114.353,135.068 Z" id="path-8" class="cls-7" fill-rule="evenodd"/>
    <path d="M114.353,153.496 C114.353,153.496 77.497,153.496 77.497,153.496 C77.497,153.496 77.497,146.267 77.497,146.267 C77.497,146.267 114.353,146.267 114.353,146.267 C114.353,146.267 114.353,153.496 114.353,153.496 Z" id="path-9" class="cls-7" fill-rule="evenodd"/>
    <path d="M162.166,102.419 C162.166,95.916 173.939,81.214 173.939,81.214 C173.939,81.214 185.712,95.916 185.712,102.419 C185.712,108.921 180.441,114.192 173.939,114.192 C167.437,114.192 162.166,108.921 162.166,102.419 Z" id="path-10" class="cls-3" fill-rule="evenodd"/>
    <path d="M150.647,173.334 C150.647,173.334 41.202,173.956 41.202,173.956 C41.202,173.956 41.202,195.499 41.202,195.499 C41.202,207.313 50.779,216.890 62.592,216.890 C62.592,216.890 129.257,216.890 129.257,216.890 C141.071,216.890 150.647,207.313 150.647,195.499 C150.647,195.499 150.647,173.956 150.647,173.956 C150.647,173.956 150.647,173.956 150.647,173.956 " id="path-11" class="cls-13" fill-rule="evenodd"/>
    <path d="M124.745,88.163 C133.682,96.330 139.323,108.046 139.323,121.108 C139.323,121.108 139.323,187.949 139.323,187.949 C139.323,199.763 129.746,209.340 117.933,209.340 C117.933,209.340 51.268,209.340 51.268,209.340 C49.336,209.340 47.475,209.061 45.695,208.581 C49.607,213.628 55.712,216.890 62.592,216.890 C62.592,216.890 129.257,216.890 129.257,216.890 C141.071,216.890 150.647,207.313 150.647,195.499 C150.647,195.499 150.647,128.657 150.647,128.657 C150.647,110.699 140.027,95.258 124.745,88.163 Z" id="path-12" class="cls-8" fill-rule="evenodd"/>
    <path d="M61.029,205.277 C59.033,205.277 57.414,203.658 57.414,201.662 C57.414,201.662 57.414,124.076 57.414,124.076 C57.414,122.080 59.033,120.462 61.029,120.462 C63.025,120.462 64.643,122.080 64.643,124.076 C64.643,124.076 64.643,201.662 64.643,201.662 C64.643,203.658 63.025,205.277 61.029,205.277 Z" id="path-13" class="cls-15" fill-rule="evenodd"/>
  </g>
</svg>
