<svg xmlns="http://www.w3.org/2000/svg" xmlns:xlink="http://www.w3.org/1999/xlink" preserveAspectRatio="xMidYMid" width="161" height="217" viewBox="0 0 161 217">
  <defs>
    <style>

      .cls-3 {
        fill: #ff3a2f;
      }

      .cls-4 {
        fill: #fbb713;
      }

      .cls-5 {
        fill: #2476ff;
      }

      .cls-6 {
        fill: #020403;
        opacity: 0.35;
      }

      .cls-9 {
        fill: #142a3b;
      }

      .cls-12 {
        fill: #020403;
        opacity: 0.45;
      }
    </style>
  </defs>
  <g id="group-42svg">
    <path d="M85.457,0.007 C85.457,0.007 76.149,25.037 76.149,25.037 C76.149,25.037 97.903,33.042 97.903,33.042 C97.903,33.042 85.492,66.414 85.492,66.414 C85.492,66.414 93.879,69.501 93.879,69.501 C93.879,69.501 106.290,36.128 106.290,36.128 C106.290,36.128 128.043,44.133 128.043,44.133 C128.043,44.133 137.351,19.104 137.351,19.104 C137.351,19.104 85.457,0.007 85.457,0.007 ZM122.656,35.827 C122.656,35.827 85.381,22.111 85.381,22.111 C85.381,22.111 90.552,8.206 90.552,8.206 C90.552,8.206 127.827,21.922 127.827,21.922 C127.827,21.922 122.656,35.827 122.656,35.827 Z" id="path-1" class="cls-3" fill-rule="evenodd"/>
    <path d="M119.782,67.542 C115.542,67.542 111.663,68.940 108.654,71.252 C104.856,64.371 97.072,59.640 88.060,59.640 C76.397,59.640 66.782,67.550 65.232,77.813 C63.023,73.900 58.605,71.196 53.453,71.196 C50.856,71.196 48.453,71.904 46.405,73.078 C43.231,69.694 38.527,67.542 33.266,67.542 C23.710,67.542 15.963,74.618 15.963,83.347 C15.963,83.347 137.085,83.347 137.085,83.347 C137.085,74.618 129.339,67.542 119.782,67.542 Z" id="path-2" class="cls-4" fill-rule="evenodd"/>
    <path d="M134.901,216.886 C134.901,216.886 23.177,216.886 23.177,216.886 C23.177,216.886 23.177,108.020 23.177,108.020 C23.177,108.020 134.901,108.020 134.901,108.020 C134.901,108.020 134.901,216.886 134.901,216.886 Z" id="path-3" class="cls-5" fill-rule="evenodd"/>
    <path d="M23.177,108.020 C23.177,108.020 23.177,116.052 23.177,116.052 C23.177,116.052 110.676,124.085 110.676,124.085 C110.676,124.085 110.676,216.886 110.676,216.886 C110.676,216.886 134.901,216.886 134.901,216.886 C134.901,216.886 134.901,108.020 134.901,108.020 C134.901,108.020 23.177,108.020 23.177,108.020 Z" id="path-4" class="cls-6" fill-rule="evenodd"/>
    <path d="M145.319,108.020 C145.319,108.020 12.758,108.020 12.758,108.020 C12.758,108.020 12.758,80.550 12.758,80.550 C12.758,80.550 145.319,80.550 145.319,80.550 C145.319,80.550 145.319,108.020 145.319,108.020 Z" id="path-5" class="cls-5" fill-rule="evenodd"/>
    <path d="M121.095,80.550 C121.095,80.550 121.095,99.988 121.095,99.988 C121.095,99.988 12.758,99.988 12.758,99.988 C12.758,99.988 12.758,108.020 12.758,108.020 C12.758,108.020 145.319,108.020 145.319,108.020 C145.319,108.020 145.319,80.550 145.319,80.550 C145.319,80.550 121.095,80.550 121.095,80.550 Z" id="path-6" class="cls-6" fill-rule="evenodd"/>
    <path d="M144.190,141.257 C144.190,141.257 134.901,141.257 134.901,141.257 C134.901,141.257 134.901,116.838 134.901,116.838 C134.901,116.838 144.190,116.838 144.190,116.838 C144.190,116.838 144.190,141.257 144.190,141.257 Z" id="path-7" class="cls-9" fill-rule="evenodd"/>
    <path d="M23.869,141.643 C23.869,141.643 14.579,141.643 14.579,141.643 C14.579,141.643 14.579,117.225 14.579,117.225 C14.579,117.225 23.869,117.225 23.869,117.225 C23.869,117.225 23.869,141.643 23.869,141.643 Z" id="path-8" class="cls-9" fill-rule="evenodd"/>
    <path d="M80.128,199.087 C35.942,199.087 -0.005,167.841 -0.005,129.434 C-0.005,129.434 -0.005,125.728 -0.005,125.728 C-0.005,125.728 19.314,126.206 19.314,126.206 C19.314,126.206 19.134,133.434 19.134,133.434 C19.134,133.434 7.351,133.142 7.351,133.142 C9.601,165.843 41.384,191.857 80.128,191.857 C118.910,191.857 150.716,165.794 152.909,133.048 C152.909,133.048 137.692,133.048 137.692,133.048 C137.692,133.048 137.692,125.820 137.692,125.820 C137.692,125.820 160.258,125.820 160.258,125.820 C160.258,125.820 160.258,129.434 160.258,129.434 C160.258,167.841 124.313,199.087 80.128,199.087 Z" id="path-9" class="cls-9" fill-rule="evenodd"/>
    <path d="M84.164,211.137 C58.027,211.137 33.698,192.155 24.451,183.993 C22.955,182.673 22.812,180.390 24.133,178.893 C25.454,177.395 27.738,177.254 29.234,178.574 C35.968,184.517 59.831,203.907 84.164,203.907 C102.113,203.907 116.344,199.718 128.953,190.720 C130.581,189.558 132.835,189.940 133.995,191.563 C135.154,193.188 134.776,195.445 133.154,196.605 C119.449,206.383 103.425,211.137 84.164,211.137 Z" id="path-10" class="cls-12" fill-rule="evenodd"/>
  </g>
</svg>
