<svg xmlns="http://www.w3.org/2000/svg" xmlns:xlink="http://www.w3.org/1999/xlink" preserveAspectRatio="xMidYMid" width="184" height="218" viewBox="0 0 184 218">
  <defs>
    <style>

      .cls-3 {
        fill: #ff3a2f;
      }

      .cls-6 {
        fill: #0cb04a;
      }

      .cls-7 {
        fill: #010101;
        opacity: 0.35;
      }

      .cls-10 {
        fill: #010101;
        opacity: 0.25;
      }

      .cls-11 {
        fill: #fbb713;
      }

      .cls-14 {
        fill: #090909;
        opacity: 0.35;
      }
    </style>
  </defs>
  <g id="group-63svg">
    <path d="M179.536,102.371 C179.536,102.371 165.582,102.371 165.582,102.371 C163.587,102.371 161.968,100.754 161.968,98.757 C161.968,96.761 163.587,95.142 165.582,95.142 C165.582,95.142 179.536,95.142 179.536,95.142 C181.532,95.142 183.150,96.761 183.150,98.757 C183.150,100.754 181.532,102.371 179.536,102.371 Z" id="path-1" class="cls-3" fill-rule="evenodd"/>
    <path d="M32.567,216.879 C30.571,216.879 28.953,215.261 28.953,213.264 C28.953,213.264 28.953,194.718 28.953,194.718 C28.953,192.722 30.571,191.104 32.567,191.104 C34.563,191.104 36.182,192.722 36.182,194.718 C36.182,194.718 36.182,213.264 36.182,213.264 C36.182,215.261 34.563,216.879 32.567,216.879 Z" id="path-2" class="cls-3" fill-rule="evenodd"/>
    <path d="M125.591,216.879 C123.595,216.879 121.976,215.261 121.976,213.264 C121.976,213.264 121.976,194.718 121.976,194.718 C121.976,192.722 123.595,191.104 125.591,191.104 C127.587,191.104 129.205,192.722 129.205,194.718 C129.205,194.718 129.205,213.264 129.205,213.264 C129.205,215.261 127.587,216.879 125.591,216.879 Z" id="path-3" class="cls-3" fill-rule="evenodd"/>
    <path d="M167.452,200.763 C167.452,200.763 167.452,87.523 167.452,87.523 C167.452,70.500 150.094,57.026 133.017,57.026 C133.017,57.026 29.827,57.026 29.827,57.026 C12.750,57.026 0.008,70.500 0.008,87.523 C0.008,87.523 0.008,200.763 0.008,200.763 C0.008,200.763 167.452,200.763 167.452,200.763 Z" id="path-4" class="cls-6" fill-rule="evenodd"/>
    <path d="M134.069,57.079 C136.581,61.191 138.089,65.835 138.089,70.796 C138.089,70.796 138.089,143.902 138.089,143.902 C138.089,166.068 120.063,184.036 97.828,184.036 C97.828,184.036 0.008,184.036 0.008,184.036 C0.008,184.036 0.008,200.763 0.008,200.763 C0.008,200.763 167.452,200.763 167.452,200.763 C167.452,200.763 167.452,87.523 167.452,87.523 C167.452,70.849 150.799,57.616 134.069,57.079 Z" id="path-5" class="cls-7" fill-rule="evenodd"/>
    <path d="M138.164,114.876 C138.164,126.719 128.533,136.320 116.652,136.320 C104.771,136.320 95.140,126.719 95.140,114.876 C95.140,103.032 104.771,93.431 116.652,93.431 C128.533,93.431 138.164,103.032 138.164,114.876 Z" id="path-6" class="cls-7" fill-rule="evenodd"/>
    <path d="M133.969,106.512 C133.969,118.356 124.338,127.956 112.457,127.956 C100.577,127.956 90.945,118.356 90.945,106.512 C90.945,94.669 100.577,85.068 112.457,85.068 C124.338,85.068 133.969,94.669 133.969,106.512 Z" id="path-7" class="cls-3" fill-rule="evenodd"/>
    <path d="M117.536,85.734 C122.403,89.665 125.579,95.598 125.579,102.331 C125.579,114.174 115.948,123.775 104.068,123.775 C102.309,123.775 100.625,123.507 98.989,123.109 C102.685,126.094 107.329,127.956 112.457,127.956 C124.338,127.956 133.969,118.356 133.969,106.512 C133.969,96.421 126.953,88.017 117.536,85.734 Z" id="path-8" class="cls-10" fill-rule="evenodd"/>
    <path d="M139.545,58.436 C139.545,58.436 139.545,17.400 139.545,17.400 C139.545,7.703 132.256,-0.000 122.529,-0.000 C112.803,-0.000 105.514,0.478 105.514,9.750 C105.514,9.750 60.858,9.750 60.858,9.750 C60.858,0.478 54.113,-0.000 44.387,-0.000 C34.661,-0.000 27.916,7.703 27.916,17.400 C27.916,17.400 27.916,58.436 27.916,58.436 C27.916,58.436 139.545,58.436 139.545,58.436 Z" id="path-9" class="cls-11" fill-rule="evenodd"/>
    <path d="M35.997,8.363 C45.724,8.363 52.468,8.840 52.468,18.114 C52.468,18.114 97.125,18.114 97.125,18.114 C97.125,13.460 98.963,11.025 102.020,9.750 C102.020,9.750 60.858,9.750 60.858,9.750 C60.858,0.478 54.113,-0.000 44.387,-0.000 C37.485,-0.000 32.142,3.917 29.587,9.633 C31.523,8.828 33.668,8.363 35.997,8.363 Z" id="path-10" class="cls-10" fill-rule="evenodd"/>
    <path d="M122.529,-0.000 C113.163,-0.000 106.125,0.524 105.613,8.840 C108.098,8.449 110.967,8.363 114.140,8.363 C123.867,8.363 131.155,16.066 131.155,25.763 C131.155,25.763 131.155,58.435 131.155,58.435 C131.155,58.435 139.545,58.435 139.545,58.435 C139.545,58.435 139.545,17.400 139.545,17.400 C139.545,7.703 132.256,-0.000 122.529,-0.000 Z" id="path-11" class="cls-10" fill-rule="evenodd"/>
    <path d="M87.193,35.544 C87.193,36.813 86.173,37.853 84.916,37.853 C83.659,37.853 82.635,36.813 82.635,35.544 C82.635,34.267 83.659,33.235 84.916,33.235 C86.173,33.235 87.193,34.267 87.193,35.544 Z" id="path-12" class="cls-14" fill-rule="evenodd"/>
    <path d="M45.245,31.363 C45.245,32.633 44.224,33.672 42.968,33.672 C41.711,33.672 40.687,32.633 40.687,31.363 C40.687,30.086 41.711,29.053 42.968,29.053 C44.224,29.053 45.245,30.086 45.245,31.363 Z" id="path-13" class="cls-14" fill-rule="evenodd"/>
    <path d="M49.440,52.271 C49.440,53.542 48.419,54.580 47.162,54.580 C45.906,54.580 44.881,53.542 44.881,52.271 C44.881,50.994 45.906,49.962 47.162,49.962 C48.419,49.962 49.440,50.994 49.440,52.271 Z" id="path-14" class="cls-14" fill-rule="evenodd"/>
    <path d="M116.557,52.271 C116.557,53.542 115.536,54.580 114.279,54.580 C113.023,54.580 111.998,53.542 111.998,52.271 C111.998,50.994 113.023,49.962 114.279,49.962 C115.536,49.962 116.557,50.994 116.557,52.271 Z" id="path-15" class="cls-14" fill-rule="evenodd"/>
    <path d="M78.804,56.453 C78.804,57.723 77.783,58.761 76.526,58.761 C75.270,58.761 74.245,57.723 74.245,56.453 C74.245,55.175 75.270,54.144 76.526,54.144 C77.783,54.144 78.804,55.175 78.804,56.453 Z" id="path-16" class="cls-14" fill-rule="evenodd"/>
    <path d="M115.343,27.181 C115.343,28.451 114.322,29.490 113.062,29.490 C111.805,29.490 110.784,28.451 110.784,27.181 C110.784,25.903 111.805,24.872 113.062,24.872 C114.322,24.872 115.343,25.903 115.343,27.181 Z" id="path-17" class="cls-14" fill-rule="evenodd"/>
  </g>
</svg>
