<svg xmlns="http://www.w3.org/2000/svg" xmlns:xlink="http://www.w3.org/1999/xlink" preserveAspectRatio="xMidYMid" width="217" height="161" viewBox="0 0 217 161">
  <defs>
    <style>

      .cls-3 {
        fill: #2476ff;
      }

      .cls-4 {
        fill: #ffffff;
      }

      .cls-5 {
        fill: #020403;
        opacity: 0.35;
      }
    </style>
  </defs>
  <g id="group-71svg">
    <path d="M65.466,160.837 C64.182,160.837 62.929,160.291 62.051,159.280 C51.201,146.758 48.576,143.996 39.104,140.736 C32.808,140.877 17.559,147.535 7.116,154.833 C5.633,155.870 3.678,155.932 2.143,154.969 C0.608,154.016 -0.213,152.238 0.060,150.451 C2.558,134.046 15.411,113.846 37.838,107.212 C59.951,64.827 91.109,37.347 106.464,25.517 C99.532,15.435 87.192,13.132 80.044,12.686 C77.865,12.545 76.095,10.868 75.840,8.702 C75.584,6.536 76.916,4.494 78.999,3.854 C94.044,-0.758 113.435,1.810 130.140,10.198 C132.832,8.830 135.284,7.727 137.455,6.915 C149.928,2.203 159.459,0.002 167.436,0.002 C180.805,0.002 190.361,6.333 197.338,19.869 C209.188,21.066 215.166,23.977 216.600,29.180 C217.850,33.729 214.730,37.850 211.394,40.197 C210.529,40.797 209.462,41.079 208.443,40.995 C195.519,39.954 181.797,42.037 166.836,47.041 C167.732,62.899 161.802,89.036 158.219,94.417 C157.111,96.061 155.051,96.801 153.149,96.224 C151.243,95.647 149.942,93.889 149.942,91.900 C149.942,85.542 146.261,79.105 139.300,73.285 C135.894,70.438 133.652,66.605 132.800,62.634 C101.055,80.719 74.759,104.885 62.943,116.538 C65.881,127.322 69.640,144.835 69.963,154.978 C70.095,155.402 70.165,155.852 70.165,156.318 C70.165,158.843 68.131,160.647 65.564,160.837 C65.529,160.837 65.498,160.837 65.466,160.837 Z" id="path-1" class="cls-3" fill-rule="evenodd"/>
    <path d="M146.313,14.155 C145.583,14.155 144.896,13.710 144.623,12.986 C144.269,12.053 144.741,11.009 145.675,10.656 C157.416,6.222 166.415,4.156 173.998,4.156 C174.997,4.156 175.806,4.966 175.806,5.963 C175.806,6.962 174.997,7.771 173.998,7.771 C166.866,7.771 158.272,9.762 146.953,14.038 C146.743,14.117 146.525,14.155 146.313,14.155 Z" id="path-2" class="cls-4" fill-rule="evenodd"/>
    <path d="M189.451,11.982 C190.562,12.096 191.569,12.237 192.577,12.380 C190.337,9.464 187.895,7.044 185.195,5.180 C186.700,7.225 188.138,9.434 189.451,11.982 Z" id="path-3" class="cls-5" fill-rule="evenodd"/>
    <path d="M76.874,5.348 C76.120,6.272 75.692,7.449 75.840,8.702 C76.095,10.868 77.865,12.546 80.044,12.685 C84.833,12.984 91.934,14.181 98.197,17.930 C98.318,17.836 98.459,17.723 98.578,17.631 C92.994,9.509 83.936,6.470 76.874,5.348 Z" id="path-4" class="cls-5" fill-rule="evenodd"/>
    <path d="M62.943,116.538 C74.429,105.209 99.617,82.072 130.176,64.176 C127.493,61.492 125.652,58.191 124.914,54.747 C93.169,72.833 66.872,96.997 55.057,108.652 C57.994,119.436 61.753,136.948 62.076,147.092 C62.209,147.515 62.279,147.965 62.279,148.432 C62.279,150.956 60.245,152.762 57.678,152.951 C57.642,152.951 57.610,152.951 57.580,152.951 C57.112,152.951 56.668,152.801 56.226,152.660 C57.906,154.512 59.795,156.676 62.051,159.280 C62.929,160.291 64.182,160.837 65.466,160.837 C65.498,160.837 65.529,160.837 65.564,160.837 C68.131,160.648 70.165,158.843 70.165,156.318 C70.165,155.852 70.095,155.402 69.963,154.979 C69.640,144.834 65.880,127.322 62.943,116.538 Z" id="path-5" class="cls-5" fill-rule="evenodd"/>
    <path d="M216.600,29.180 C215.746,26.078 213.231,23.806 208.862,22.212 C209.489,26.389 206.616,30.123 203.507,32.311 C202.643,32.911 201.576,33.193 200.556,33.109 C187.633,32.067 173.911,34.151 158.949,39.154 C159.845,55.011 153.916,81.150 150.332,86.529 C150.059,86.934 149.726,87.284 149.354,87.573 C149.727,89.014 149.942,90.459 149.942,91.900 C149.942,93.889 151.243,95.647 153.149,96.224 C155.051,96.801 157.111,96.061 158.220,94.416 C161.802,89.036 167.732,62.899 166.836,47.041 C181.797,42.037 195.519,39.954 208.442,40.995 C209.462,41.079 210.529,40.797 211.394,40.197 C214.730,37.850 217.850,33.729 216.600,29.180 Z" id="path-6" class="cls-5" fill-rule="evenodd"/>
    <path d="M53.518,92.531 C53.196,92.531 52.871,92.447 52.578,92.267 C51.726,91.748 51.455,90.635 51.977,89.783 C53.166,87.829 81.383,41.893 102.189,38.013 C103.186,37.828 104.116,38.479 104.298,39.458 C104.480,40.440 103.834,41.384 102.853,41.567 C83.621,45.152 55.346,91.200 55.062,91.665 C54.721,92.224 54.126,92.531 53.518,92.531 Z" id="path-7" class="cls-4" fill-rule="evenodd"/>
    <path d="M31.217,132.848 C25.272,132.982 11.392,138.937 1.066,145.743 C0.650,147.334 0.294,148.912 0.060,150.451 C-0.213,152.239 0.608,154.016 2.143,154.969 C3.678,155.932 5.633,155.869 7.116,154.833 C17.559,147.534 32.808,140.877 39.104,140.736 C43.599,142.283 46.553,143.730 49.576,146.149 C42.327,138.005 39.186,135.593 31.217,132.848 Z" id="path-8" class="cls-5" fill-rule="evenodd"/>
  </g>
</svg>
