<svg xmlns="http://www.w3.org/2000/svg" xmlns:xlink="http://www.w3.org/1999/xlink" preserveAspectRatio="xMidYMid" width="218" height="202" viewBox="0 0 218 202">
  <defs>
    <style>

      .cls-3 {
        fill: #ededed;
      }

      .cls-4 {
        fill: #020403;
        opacity: 0.25;
      }

      .cls-6 {
        fill: #fbb713;
      }

      .cls-7 {
        fill: #ffffff;
      }
    </style>
  </defs>
  <g id="group-86svg">
    <path d="M53.678,44.691 C53.678,44.691 117.420,-55.863 186.550,44.691 C186.550,44.691 240.417,73.939 204.506,119.468 C204.506,119.468 200.017,251.186 59.064,181.158 C59.064,181.158 -70.217,115.617 53.678,44.691 Z" id="path-1" class="cls-3" fill-rule="evenodd"/>
    <path d="M186.550,44.691 C165.066,13.441 144.104,1.622 125.412,0.165 C139.351,6.105 154.147,18.458 169.201,40.353 C169.201,40.353 223.067,69.601 187.155,115.131 C187.155,115.131 183.845,212.019 93.969,195.411 C200.774,228.466 204.506,119.468 204.506,119.468 C240.417,73.938 186.550,44.691 186.550,44.691 Z" id="path-2" class="cls-4" fill-rule="evenodd"/>
    <path d="M159.949,103.307 C159.949,127.787 140.104,147.632 115.624,147.632 C91.145,147.632 71.302,127.787 71.302,103.307 C71.302,78.827 91.145,58.983 115.624,58.983 C140.104,58.983 159.949,78.827 159.949,103.307 Z" id="path-3" class="cls-4" fill-rule="evenodd"/>
    <path d="M150.534,103.307 C150.534,122.587 134.904,138.218 115.624,138.218 C96.345,138.218 80.715,122.587 80.715,103.307 C80.715,84.027 96.345,68.397 115.624,68.397 C134.904,68.397 150.534,84.027 150.534,103.307 Z" id="path-4" class="cls-6" fill-rule="evenodd"/>
    <path d="M95.128,105.522 C93.132,105.522 91.514,103.903 91.514,101.907 C91.514,86.991 103.648,74.857 118.563,74.857 C120.560,74.857 122.178,76.476 122.178,78.472 C122.178,80.468 120.560,82.086 118.563,82.086 C107.634,82.086 98.744,90.979 98.744,101.907 C98.744,103.903 97.124,105.522 95.128,105.522 Z" id="path-5" class="cls-7" fill-rule="evenodd"/>
  </g>
</svg>
