<svg xmlns="http://www.w3.org/2000/svg" xmlns:xlink="http://www.w3.org/1999/xlink" preserveAspectRatio="xMidYMid" width="216" height="218" viewBox="0 0 216 218">
  <defs>
    <style>

      .cls-3 {
        fill: #fbb713;
      }

      .cls-4 {
        fill: #ffffff;
      }

      .cls-6 {
        fill: #0cb04a;
      }

      .cls-7 {
        fill: #020403;
        opacity: 0.25;
      }

      .cls-9 {
        fill: #8e6602;
      }

      .cls-10 {
        fill: #142a3b;
      }

      .cls-12 {
        fill: #020403;
      }
    </style>
  </defs>
  <g id="group-127svg">
    <path d="M102.524,165.608 C102.524,193.923 79.571,216.876 51.257,216.876 C22.943,216.876 -0.009,193.923 -0.009,165.608 C-0.009,137.293 22.943,114.340 51.257,114.340 C79.571,114.340 102.524,137.293 102.524,165.608 Z" id="path-1" class="cls-3" fill-rule="evenodd"/>
    <path d="M13.846,172.528 C11.851,172.528 10.232,170.910 10.232,168.914 C10.232,144.528 30.070,124.689 54.454,124.689 C56.450,124.689 58.069,126.307 58.069,128.304 C58.069,130.300 56.450,131.918 54.454,131.918 C34.057,131.918 17.461,148.514 17.461,168.914 C17.461,170.910 15.842,172.528 13.846,172.528 Z" id="path-2" class="cls-4" fill-rule="evenodd"/>
    <path d="M53.423,165.608 C51.854,165.608 50.580,164.328 50.580,162.753 C50.580,161.176 51.854,159.903 53.423,159.903 C54.989,159.903 56.262,161.176 56.262,162.753 C56.262,164.328 54.989,165.608 53.423,165.608 Z" id="path-3" class="cls-3" fill-rule="evenodd"/>
    <path d="M193.274,2.005 C177.429,11.839 133.421,47.277 113.340,75.943 C108.864,82.335 88.615,101.008 88.615,101.008 C88.615,101.008 116.426,124.729 116.333,124.247 C115.735,121.077 114.744,111.651 124.722,101.703 C136.228,90.230 165.279,47.944 198.836,37.026 C232.389,26.108 210.465,-8.661 193.274,2.005 Z" id="path-4" class="cls-6" fill-rule="evenodd"/>
    <path d="M208.455,2.865 C214.840,11.693 214.295,26.346 194.572,32.763 C161.016,43.681 131.965,85.968 120.458,97.440 C110.481,107.387 110.612,108.496 111.210,111.667 C111.280,112.025 100.472,104.003 92.574,97.287 C92.362,97.482 91.693,98.077 91.693,98.077 C91.693,98.077 116.426,124.729 116.333,124.247 C115.735,121.077 114.744,111.651 124.722,101.703 C136.228,90.230 165.279,47.944 198.836,37.026 C222.272,29.399 218.632,10.152 208.455,2.865 Z" id="path-5" class="cls-7" fill-rule="evenodd"/>
    <path d="M55.043,114.531 C72.962,122.521 85.471,140.457 85.471,161.344 C85.471,189.659 62.518,212.613 34.204,212.613 C32.926,212.613 31.673,212.513 30.418,212.421 C36.790,215.262 43.830,216.876 51.257,216.876 C79.571,216.876 102.524,193.922 102.524,165.608 C102.524,138.571 81.582,116.477 55.043,114.531 Z" id="path-6" class="cls-7" fill-rule="evenodd"/>
    <path d="M60.434,179.174 C54.531,179.174 49.731,174.358 49.731,168.438 C49.731,162.530 54.531,157.721 60.434,157.721 C62.231,157.721 63.960,158.170 65.488,158.995 C65.488,158.995 84.283,127.611 84.283,127.611 C84.283,127.611 87.558,130.846 87.558,130.846 C92.031,135.262 95.504,140.457 97.881,146.286 C97.881,146.286 99.011,149.052 99.011,149.052 C99.011,149.052 71.058,167.240 71.058,167.240 C71.102,167.637 71.125,168.037 71.125,168.438 C71.125,174.358 66.328,179.174 60.434,179.174 ZM60.434,164.951 C58.518,164.951 56.960,166.516 56.960,168.438 C56.960,170.372 58.518,171.945 60.434,171.945 C62.343,171.945 63.896,170.372 63.896,168.438 C63.896,167.963 63.799,167.495 63.607,167.052 C63.607,167.052 63.328,166.543 63.328,166.543 C62.682,165.546 61.598,164.951 60.434,164.951 ZM85.608,139.471 C85.608,139.471 76.111,155.327 76.111,155.327 C76.111,155.327 89.966,146.313 89.966,146.313 C88.752,143.877 87.296,141.590 85.608,139.471 Z" id="path-7" class="cls-9" fill-rule="evenodd"/>
    <circle id="circle-1" class="cls-10" cx="53" cy="163" r="9"/>
    <path d="M55.838,164.404 C55.838,164.404 50.844,160.159 50.844,160.159 C50.844,160.159 89.009,96.435 89.009,96.435 C89.009,96.435 117.741,124.118 117.741,124.118 C117.741,124.118 55.838,164.404 55.838,164.404 ZM90.541,107.949 C90.541,107.949 65.766,149.319 65.766,149.319 C65.766,149.319 106.180,123.016 106.180,123.016 C106.180,123.016 90.541,107.949 90.541,107.949 Z" id="path-8" class="cls-10" fill-rule="evenodd"/>
    <path d="M196.726,22.896 C194.229,22.896 192.197,20.863 192.197,18.364 C192.197,15.866 194.229,13.834 196.726,13.834 C199.225,13.834 201.257,15.866 201.257,18.364 C201.257,20.863 199.225,22.896 196.726,22.896 ZM196.726,17.024 C195.986,17.024 195.387,17.625 195.387,18.364 C195.387,19.104 195.986,19.706 196.726,19.706 C197.465,19.706 198.068,19.104 198.068,18.364 C198.068,17.625 197.465,17.024 196.726,17.024 Z" id="path-9" class="cls-12" fill-rule="evenodd"/>
  </g>
</svg>
