<svg xmlns="http://www.w3.org/2000/svg" xmlns:xlink="http://www.w3.org/1999/xlink" preserveAspectRatio="xMidYMid" width="206" height="217" viewBox="0 0 206 217">
  <defs>
    <style>

      .cls-3 {
        fill: #142a3b;
      }

      .cls-7 {
        fill: #0cb04a;
      }

      .cls-8 {
        fill: #020403;
        opacity: 0.35;
      }

      .cls-11 {
        fill: #fbb713;
      }

      .cls-14 {
        fill: #ff3a2f;
      }
    </style>
  </defs>
  <g id="group-129svg">
    <path d="M106.618,60.547 C104.623,60.547 103.004,58.929 103.004,56.932 C103.004,56.932 103.004,3.616 103.004,3.616 C103.004,1.620 104.623,0.001 106.618,0.001 C108.614,0.001 110.233,1.620 110.233,3.616 C110.233,3.616 110.233,56.932 110.233,56.932 C110.233,58.929 108.614,60.547 106.618,60.547 Z" id="path-1" class="cls-3" fill-rule="evenodd"/>
    <path d="M106.618,119.194 C104.623,119.194 103.004,117.576 103.004,115.579 C103.004,115.579 103.004,108.698 103.004,108.698 C103.004,106.702 104.623,105.083 106.618,105.083 C108.614,105.083 110.233,106.702 110.233,108.698 C110.233,108.698 110.233,115.579 110.233,115.579 C110.233,117.576 108.614,119.194 106.618,119.194 ZM106.618,101.470 C104.623,101.470 103.004,99.850 103.004,97.854 C103.004,97.854 103.004,79.782 103.004,79.782 C103.004,77.786 104.623,76.165 106.618,76.165 C108.614,76.165 110.233,77.786 110.233,79.782 C110.233,79.782 110.233,97.854 110.233,97.854 C110.233,99.850 108.614,101.470 106.618,101.470 Z" id="path-2" class="cls-3" fill-rule="evenodd"/>
    <path d="M182.782,159.303 C180.786,159.303 179.167,157.686 179.167,155.689 C179.167,155.689 179.167,137.615 179.167,137.615 C179.167,135.619 180.786,134.001 182.782,134.001 C184.778,134.001 186.397,135.619 186.397,137.615 C186.397,137.615 186.397,155.689 186.397,155.689 C186.397,157.686 184.778,159.303 182.782,159.303 ZM182.782,130.387 C180.786,130.387 179.167,128.768 179.167,126.773 C179.167,126.773 179.167,108.698 179.167,108.698 C179.167,106.702 180.786,105.083 182.782,105.083 C184.778,105.083 186.397,106.702 186.397,108.698 C186.397,108.698 186.397,126.773 186.397,126.773 C186.397,128.768 184.778,130.387 182.782,130.387 ZM182.782,101.470 C180.786,101.470 179.167,99.850 179.167,97.854 C179.167,97.854 179.167,79.782 179.167,79.782 C179.167,77.786 180.786,76.165 182.782,76.165 C184.778,76.165 186.397,77.786 186.397,79.782 C186.397,79.782 186.397,97.854 186.397,97.854 C186.397,99.850 184.778,101.470 182.782,101.470 Z" id="path-3" class="cls-3" fill-rule="evenodd"/>
    <path d="M30.455,170.161 C28.459,170.161 26.840,168.543 26.840,166.546 C26.840,164.550 28.459,162.924 30.455,162.924 C32.451,162.924 34.069,164.536 34.069,166.532 C34.069,166.532 34.069,166.546 34.069,166.546 C34.069,168.543 32.451,170.161 30.455,170.161 ZM30.455,159.303 C28.459,159.303 26.840,157.686 26.840,155.689 C26.840,155.689 26.840,137.615 26.840,137.615 C26.840,135.619 28.459,134.001 30.455,134.001 C32.451,134.001 34.069,135.619 34.069,137.615 C34.069,137.615 34.069,155.689 34.069,155.689 C34.069,157.686 32.451,159.303 30.455,159.303 ZM30.455,130.387 C28.459,130.387 26.840,128.768 26.840,126.773 C26.840,126.773 26.840,108.698 26.840,108.698 C26.840,106.702 28.459,105.083 30.455,105.083 C32.451,105.083 34.069,106.702 34.069,108.698 C34.069,108.698 34.069,126.773 34.069,126.773 C34.069,128.768 32.451,130.387 30.455,130.387 ZM30.455,101.470 C28.459,101.470 26.840,99.850 26.840,97.854 C26.840,97.854 26.840,79.782 26.840,79.782 C26.840,77.786 28.459,76.165 30.455,76.165 C32.451,76.165 34.069,77.786 34.069,79.782 C34.069,79.782 34.069,97.854 34.069,97.854 C34.069,99.850 32.451,101.470 30.455,101.470 Z" id="path-4" class="cls-3" fill-rule="evenodd"/>
    <path d="M189.842,172.491 C189.842,172.491 182.782,158.185 182.782,158.185 C182.782,158.185 175.721,172.491 175.721,172.491 C175.721,172.491 159.933,174.786 159.933,174.786 C159.933,174.786 171.357,185.921 171.357,185.921 C171.357,185.921 168.661,201.647 168.661,201.647 C168.661,201.647 182.782,194.222 182.782,194.222 C182.782,194.222 196.903,201.647 196.903,201.647 C196.903,201.647 194.206,185.921 194.206,185.921 C194.206,185.921 205.631,174.786 205.631,174.786 C205.631,174.786 189.842,172.491 189.842,172.491 Z" id="path-5" class="cls-7" fill-rule="evenodd"/>
    <path d="M186.034,176.300 C186.034,176.300 201.736,178.583 201.736,178.583 C201.736,178.583 205.631,174.786 205.631,174.786 C205.631,174.786 189.842,172.491 189.842,172.491 C189.842,172.491 182.782,158.186 182.782,158.186 C182.782,158.186 179.937,163.945 179.937,163.945 C179.937,163.945 186.034,176.300 186.034,176.300 Z" id="path-6" class="cls-8" fill-rule="evenodd"/>
    <path d="M190.398,189.731 C190.398,189.731 192.000,199.069 192.000,199.069 C192.000,199.069 196.903,201.647 196.903,201.647 C196.903,201.647 194.220,186.005 194.220,186.005 C194.220,186.005 190.398,189.731 190.398,189.731 Z" id="path-7" class="cls-8" fill-rule="evenodd"/>
    <path d="M171.913,176.300 C171.913,176.300 173.643,172.794 173.643,172.794 C173.643,172.794 159.933,174.786 159.933,174.786 C159.933,174.786 162.839,177.618 162.839,177.618 C162.839,177.618 171.913,176.300 171.913,176.300 Z" id="path-8" class="cls-8" fill-rule="evenodd"/>
    <path d="M39.870,178.005 C39.870,178.005 30.455,158.930 30.455,158.930 C30.455,158.930 21.040,178.005 21.040,178.005 C21.040,178.005 -0.011,181.065 -0.011,181.065 C-0.011,181.065 15.221,195.913 15.221,195.913 C15.221,195.913 11.625,216.880 11.625,216.880 C11.625,216.880 30.455,206.980 30.455,206.980 C30.455,206.980 49.283,216.880 49.283,216.880 C49.283,216.880 45.687,195.913 45.687,195.913 C45.687,195.913 60.920,181.065 60.920,181.065 C60.920,181.065 39.870,178.005 39.870,178.005 Z" id="path-9" class="cls-11" fill-rule="evenodd"/>
    <path d="M60.920,181.065 C60.920,181.065 39.870,178.005 39.870,178.005 C39.870,178.005 30.455,158.930 30.455,158.930 C30.455,158.930 26.646,166.644 26.646,166.644 C26.646,166.644 32.252,178.005 32.252,178.005 C32.252,178.005 53.304,181.065 53.304,181.065 C53.304,181.065 38.071,195.913 38.071,195.913 C38.071,195.913 40.912,212.479 40.912,212.479 C40.912,212.479 49.283,216.881 49.283,216.881 C49.283,216.881 45.687,195.913 45.687,195.913 C45.687,195.913 60.920,181.065 60.920,181.065 Z" id="path-10" class="cls-8" fill-rule="evenodd"/>
    <path d="M173.001,66.042 C172.420,66.042 171.830,65.901 171.284,65.606 C171.284,65.606 106.618,30.576 106.618,30.576 C106.618,30.576 42.287,65.422 42.287,65.422 C40.528,66.374 38.339,65.720 37.387,63.967 C36.436,62.211 37.089,60.017 38.845,59.066 C38.845,59.066 106.618,22.355 106.618,22.355 C106.618,22.355 174.725,59.247 174.725,59.247 C176.481,60.199 177.134,62.394 176.183,64.149 C175.528,65.357 174.286,66.042 173.001,66.042 Z" id="path-11" class="cls-3" fill-rule="evenodd"/>
    <path d="M41.879,68.358 C41.879,74.666 36.764,79.782 30.454,79.782 C24.144,79.782 19.029,74.666 19.029,68.358 C19.029,62.047 24.144,56.932 30.454,56.932 C36.764,56.932 41.879,62.047 41.879,68.358 Z" id="path-12" class="cls-14" fill-rule="evenodd"/>
    <path d="M118.043,68.358 C118.043,74.666 112.928,79.782 106.618,79.782 C100.308,79.782 95.193,74.666 95.193,68.358 C95.193,62.047 100.308,56.932 106.618,56.932 C112.928,56.932 118.043,62.047 118.043,68.358 Z" id="path-13" class="cls-14" fill-rule="evenodd"/>
    <path d="M112.538,58.628 C113.593,60.360 114.235,62.372 114.235,64.549 C114.235,70.859 109.120,75.973 102.810,75.973 C100.634,75.973 98.621,75.331 96.891,74.276 C98.896,77.566 102.484,79.782 106.618,79.782 C112.928,79.782 118.043,74.666 118.043,68.358 C118.043,64.223 115.826,60.635 112.538,58.628 Z" id="path-14" class="cls-8" fill-rule="evenodd"/>
    <path d="M36.374,58.628 C37.430,60.360 38.071,62.372 38.071,64.549 C38.071,70.859 32.956,75.973 26.646,75.973 C24.470,75.973 22.457,75.331 20.727,74.276 C22.732,77.566 26.320,79.782 30.454,79.782 C36.764,79.782 41.879,74.666 41.879,68.358 C41.879,64.223 39.662,60.635 36.374,58.628 Z" id="path-15" class="cls-8" fill-rule="evenodd"/>
    <path d="M194.206,68.358 C194.206,74.666 189.092,79.782 182.782,79.782 C176.472,79.782 171.357,74.666 171.357,68.358 C171.357,62.047 176.472,56.932 182.782,56.932 C189.092,56.932 194.206,62.047 194.206,68.358 Z" id="path-16" class="cls-14" fill-rule="evenodd"/>
    <path d="M188.701,58.628 C189.757,60.360 190.398,62.372 190.398,64.549 C190.398,70.859 185.283,75.973 178.974,75.973 C176.798,75.973 174.785,75.331 173.054,74.276 C175.060,77.566 178.648,79.782 182.782,79.782 C189.092,79.782 194.206,74.666 194.206,68.358 C194.206,64.223 191.990,60.635 188.701,58.628 Z" id="path-17" class="cls-8" fill-rule="evenodd"/>
    <path d="M132.479,124.637 C132.479,116.811 126.136,110.468 118.311,110.468 C113.554,110.468 109.355,112.823 106.785,116.419 C104.216,112.823 100.017,110.468 95.260,110.468 C87.435,110.468 81.093,116.811 81.093,124.637 C81.093,127.861 94.512,146.089 106.503,156.822 C117.295,144.226 132.479,128.709 132.479,124.637 Z" id="path-18" class="cls-14" fill-rule="evenodd"/>
    <path d="M103.175,119.880 C104.185,118.465 105.455,117.255 106.905,116.292 C103.779,113.327 100.811,110.470 95.260,110.470 C93.676,110.470 92.180,110.788 90.758,111.268 C94.634,111.850 100.994,116.825 103.175,119.880 Z" id="path-19" class="cls-8" fill-rule="evenodd"/>
    <path d="M118.311,110.470 C116.663,110.470 115.088,110.768 113.617,111.287 C120.527,112.231 125.871,118.094 125.871,125.261 C125.871,128.937 113.518,141.921 103.175,153.678 C104.289,154.773 105.402,155.836 106.503,156.822 C117.295,144.226 132.479,128.709 132.479,124.638 C132.479,116.813 126.136,110.470 118.311,110.470 Z" id="path-20" class="cls-8" fill-rule="evenodd"/>
    <path d="M22.838,206.980 C22.838,206.980 12.380,212.479 12.380,212.479 C12.380,212.479 11.625,216.881 11.625,216.881 C11.625,216.881 26.646,208.984 26.646,208.984 C26.646,208.984 22.838,206.980 22.838,206.980 Z" id="path-21" class="cls-8" fill-rule="evenodd"/>
  </g>
</svg>
