<svg xmlns="http://www.w3.org/2000/svg" xmlns:xlink="http://www.w3.org/1999/xlink" preserveAspectRatio="xMidYMid" width="217" height="218" viewBox="0 0 217 218">
  <defs>
    <style>

      .cls-3 {
        fill: #ededed;
      }

      .cls-5 {
        fill: #ff3a2f;
      }

      .cls-6 {
        fill: #020403;
        opacity: 0.25;
      }

      .cls-8 {
        fill: #020403;
        opacity: 0.35;
      }
    </style>
  </defs>
  <g id="group-97svg">
    <path d="M101.190,54.707 C101.190,54.707 74.099,27.614 74.099,27.614 C74.099,27.614 101.703,0.009 101.703,0.009 C101.703,0.009 128.795,27.101 128.795,27.101 C128.795,27.101 101.190,54.707 101.190,54.707 Z" id="path-1" class="cls-3" fill-rule="evenodd"/>
    <path d="M189.239,142.756 C189.239,142.756 162.147,115.665 162.147,115.665 C162.147,115.665 189.752,88.059 189.752,88.059 C189.752,88.059 216.843,115.152 216.843,115.152 C216.843,115.152 189.239,142.756 189.239,142.756 Z" id="path-2" class="cls-3" fill-rule="evenodd"/>
    <path d="M162.147,115.665 C162.147,115.665 118.636,159.179 118.636,159.179 C101.799,176.012 74.510,176.012 57.676,159.179 C40.844,142.344 40.844,115.055 57.676,98.218 C57.676,98.218 101.190,54.706 101.190,54.706 C101.190,54.706 74.098,27.613 74.098,27.613 C74.098,27.613 23.811,77.898 23.811,77.898 C-7.978,109.697 -7.978,161.251 23.811,193.043 C55.612,224.840 107.163,224.841 138.953,193.043 C138.953,193.043 189.240,142.758 189.240,142.758 C189.240,142.758 162.147,115.665 162.147,115.665 Z" id="path-3" class="cls-5" fill-rule="evenodd"/>
    <path d="M116.822,15.128 C116.822,15.128 96.401,35.549 96.401,35.549 C96.401,35.549 74.099,27.614 74.099,27.614 C74.099,27.614 101.190,54.706 101.190,54.706 C101.190,54.706 128.795,27.101 128.795,27.101 C128.795,27.101 116.822,15.128 116.822,15.128 Z" id="path-4" class="cls-6" fill-rule="evenodd"/>
    <path d="M204.870,103.179 C204.870,103.179 184.449,123.598 184.449,123.598 C184.449,123.598 162.147,115.665 162.147,115.665 C162.147,115.665 189.239,142.756 189.239,142.756 C189.239,142.756 216.843,115.152 216.843,115.152 C216.843,115.152 204.870,103.179 204.870,103.179 Z" id="path-5" class="cls-6" fill-rule="evenodd"/>
    <path d="M52.887,79.061 C39.277,92.675 36.683,113.119 45.083,129.348 C44.915,118.100 49.095,106.802 57.676,98.218 C57.676,98.218 101.190,54.706 101.190,54.706 C101.190,54.706 89.217,42.732 89.217,42.732 C89.217,42.732 52.887,79.061 52.887,79.061 Z" id="path-6" class="cls-8" fill-rule="evenodd"/>
    <path d="M177.267,130.785 C177.267,130.785 134.163,173.885 134.163,173.885 C102.374,205.684 50.823,205.684 19.022,173.885 C10.726,165.590 4.650,155.932 0.684,145.647 C2.854,162.973 10.511,179.741 23.811,193.043 C55.612,224.840 107.163,224.841 138.953,193.043 C138.953,193.043 189.240,142.758 189.240,142.758 C189.240,142.758 177.267,130.785 177.267,130.785 Z" id="path-7" class="cls-8" fill-rule="evenodd"/>
  </g>
</svg>
