<svg xmlns="http://www.w3.org/2000/svg" xmlns:xlink="http://www.w3.org/1999/xlink" preserveAspectRatio="xMidYMid" width="128" height="218" viewBox="0 0 128 218">
  <defs>
    <style>

      .cls-3 {
        fill: #fbb713;
      }

      .cls-4 {
        fill: #ff3a2f;
      }

      .cls-5 {
        fill: #020403;
        opacity: 0.35;
      }

      .cls-6 {
        fill: #0cb04a;
      }

      .cls-7 {
        fill: #ffffff;
      }

      .cls-8 {
        fill: #142a3b;
      }
    </style>
  </defs>
  <g id="group-38svg">
    <path d="M127.040,63.145 C127.040,98.012 63.909,151.505 63.909,151.505 C63.909,151.505 0.778,98.012 0.778,63.145 C0.778,28.278 29.043,0.012 63.909,0.012 C98.776,0.012 127.040,28.278 127.040,63.145 Z" id="path-1" class="cls-3" fill-rule="evenodd"/>
    <path d="M63.909,151.505 C63.909,151.505 127.040,98.012 127.040,63.145 C127.040,28.278 98.776,0.012 63.909,0.012 C63.909,0.012 61.388,1.839 61.388,1.839 C83.070,8.620 99.152,33.496 99.152,63.145 C99.152,86.376 77.099,131.728 62.380,150.165 C62.380,150.165 63.909,151.505 63.909,151.505 Z" id="path-2" class="cls-4" fill-rule="evenodd"/>
    <path d="M92.546,6.931 C106.126,18.510 114.765,35.715 114.765,54.961 C114.765,86.469 63.222,133.176 53.289,141.886 C59.615,147.860 63.909,151.505 63.909,151.505 C63.909,151.505 127.040,98.012 127.040,63.145 C127.040,38.599 113.003,17.375 92.546,6.931 Z" id="path-3" class="cls-5" fill-rule="evenodd"/>
    <path d="M63.140,151.505 C63.140,151.505 0.009,98.012 0.009,63.145 C0.009,28.278 28.274,0.012 63.140,0.012 C63.140,0.012 65.660,1.839 65.660,1.839 C43.979,8.620 27.897,33.496 27.897,63.145 C27.897,86.376 49.950,131.728 64.668,150.165 C64.668,150.165 63.140,151.505 63.140,151.505 Z" id="path-4" class="cls-6" fill-rule="evenodd"/>
    <path d="M16.414,71.203 C14.904,71.203 13.496,70.250 12.987,68.738 C11.646,64.737 10.964,60.962 10.964,57.512 C10.964,41.547 17.977,26.489 30.201,16.199 C31.723,14.915 34.007,15.109 35.294,16.638 C36.578,18.165 36.383,20.444 34.856,21.731 C24.267,30.643 18.193,43.686 18.193,57.512 C18.193,60.178 18.748,63.180 19.840,66.437 C20.476,68.329 19.457,70.378 17.566,71.014 C17.184,71.142 16.796,71.203 16.414,71.203 Z" id="path-5" class="cls-7" fill-rule="evenodd"/>
    <path d="M63.141,162.625 C61.144,162.625 59.526,161.006 59.526,159.010 C59.526,159.010 59.526,151.505 59.526,151.505 C59.526,149.509 61.144,147.890 63.141,147.890 C65.137,147.890 66.756,149.509 66.756,151.505 C66.756,151.505 66.756,159.010 66.756,159.010 C66.756,161.006 65.137,162.625 63.141,162.625 Z" id="path-6" class="cls-8" fill-rule="evenodd"/>
    <path d="M92.849,216.892 C92.849,216.892 34.969,216.892 34.969,216.892 C34.969,216.892 34.969,159.010 34.969,159.010 C34.969,159.010 92.849,159.010 92.849,159.010 C92.849,159.010 92.849,216.892 92.849,216.892 Z" id="path-7" class="cls-8" fill-rule="evenodd"/>
    <path d="M76.481,159.010 C76.481,159.010 76.481,216.892 76.481,216.892 C76.481,216.892 92.849,216.892 92.849,216.892 C92.849,216.892 92.849,159.010 92.849,159.010 C92.849,159.010 76.481,159.010 76.481,159.010 Z" id="path-8" class="cls-5" fill-rule="evenodd"/>
  </g>
</svg>
