<svg xmlns="http://www.w3.org/2000/svg" xmlns:xlink="http://www.w3.org/1999/xlink" preserveAspectRatio="xMidYMid" width="218" height="151" viewBox="0 0 218 151">
  <defs>
    <style>

      .cls-3 {
        fill: #fbb713;
      }

      .cls-4 {
        fill: #ffffff;
      }

      .cls-5 {
        fill: #ff3a2f;
      }

      .cls-6 {
        fill: #020403;
        opacity: 0.25;
      }

      .cls-7 {
        fill: #a6261f;
      }

      .cls-9 {
        fill: #142a3b;
      }
    </style>
  </defs>
  <g id="group-85svg">
    <path d="M107.796,44.202 C56.230,44.202 14.426,86.361 14.426,137.573 C14.426,137.573 201.167,137.573 201.167,137.573 C201.167,86.361 159.363,44.202 107.796,44.202 Z" id="path-1" class="cls-3" fill-rule="evenodd"/>
    <path d="M36.146,122.882 C34.150,122.882 32.531,121.264 32.531,119.268 C32.531,85.976 59.614,58.893 92.904,58.893 C94.901,58.893 96.518,60.512 96.518,62.508 C96.518,64.505 94.901,66.122 92.904,66.122 C63.601,66.122 39.760,89.964 39.760,119.268 C39.760,121.264 38.142,122.882 36.146,122.882 Z" id="path-2" class="cls-4" fill-rule="evenodd"/>
    <path d="M127.319,19.514 C127.319,30.297 118.579,39.038 107.796,39.038 C97.015,39.038 88.274,30.297 88.274,19.514 C88.274,8.732 97.015,-0.009 107.796,-0.009 C118.579,-0.009 127.319,8.732 127.319,19.514 Z" id="path-3" class="cls-5" fill-rule="evenodd"/>
    <path d="M148.621,53.647 C152.728,57.239 156.521,61.185 159.950,65.431 C178.903,88.903 161.875,123.917 131.709,123.917 C131.709,123.917 15.441,123.917 15.441,123.917 C14.780,128.380 14.426,132.938 14.426,137.573 C14.426,137.573 201.167,137.573 201.167,137.573 C201.167,100.902 179.727,68.879 148.621,53.647 Z" id="path-4" class="cls-6" fill-rule="evenodd"/>
    <path d="M117.744,2.737 C119.478,5.654 120.492,9.047 120.492,12.686 C120.492,23.469 111.750,32.210 100.968,32.210 C97.330,32.210 93.936,31.195 91.020,29.461 C94.423,35.188 100.652,39.038 107.796,39.038 C118.579,39.038 127.319,30.297 127.319,19.514 C127.319,12.370 123.470,6.141 117.744,2.737 Z" id="path-5" class="cls-7" fill-rule="evenodd"/>
    <path d="M105.100,17.271 C102.969,19.402 99.513,19.402 97.382,17.271 C95.251,15.139 95.251,11.683 97.382,9.553 C99.513,7.421 102.969,7.421 105.100,9.553 C107.232,11.683 107.232,15.139 105.100,17.271 Z" id="path-6" class="cls-4" fill-rule="evenodd"/>
    <path d="M216.875,150.622 C216.875,150.622 0.002,150.622 0.002,150.622 C0.002,150.622 0.002,137.671 0.002,137.671 C0.002,137.671 216.875,137.671 216.875,137.671 C216.875,137.671 216.875,150.622 216.875,150.622 Z" id="path-7" class="cls-9" fill-rule="evenodd"/>
  </g>
</svg>
