<svg xmlns="http://www.w3.org/2000/svg" xmlns:xlink="http://www.w3.org/1999/xlink" preserveAspectRatio="xMidYMid" width="93" height="217" viewBox="0 0 93 217">
  <defs>
    <style>

      .cls-3 {
        fill: #fbb713;
      }

      .cls-4 {
        fill: #020403;
        opacity: 0.35;
      }

      .cls-5 {
        fill: #ff3a2f;
      }

      .cls-7 {
        fill: #ffffff;
      }
    </style>
  </defs>
  <g id="group-114svg">
    <path d="M21.336,47.988 C21.336,47.988 21.336,131.430 21.336,131.430 C8.142,139.592 -0.003,154.081 -0.003,170.649 C-0.003,196.176 20.724,216.869 46.438,216.869 C72.145,216.869 92.435,196.176 92.435,170.649 C92.435,154.297 83.859,139.960 70.951,131.744 C70.951,131.744 70.951,25.215 70.951,25.215 C70.951,11.284 59.840,-0.010 46.139,-0.010 C32.439,-0.010 21.336,11.284 21.336,25.215 C21.336,25.215 21.336,29.026 21.336,29.026 C21.336,29.026 21.336,47.988 21.336,47.988 Z" id="path-1" class="cls-3" fill-rule="evenodd"/>
    <path d="M70.950,131.744 C70.950,131.744 70.950,25.215 70.950,25.215 C70.950,11.285 59.840,-0.010 46.139,-0.010 C44.306,-0.010 42.526,0.208 40.807,0.591 C51.942,3.074 60.284,13.149 60.284,25.215 C60.284,25.215 60.284,131.744 60.284,131.744 C73.193,139.960 81.769,154.297 81.769,170.649 C81.769,194.381 64.224,213.911 41.101,216.543 C42.854,216.743 44.630,216.869 46.438,216.869 C72.145,216.869 92.435,196.176 92.435,170.649 C92.435,154.297 83.859,139.960 70.950,131.744 Z" id="path-2" class="cls-4" fill-rule="evenodd"/>
    <path d="M56.344,141.463 C56.344,141.463 56.344,101.914 56.344,101.914 C56.344,96.120 51.882,94.802 46.400,94.802 C40.914,94.802 36.087,96.489 36.087,102.281 C36.087,102.281 36.087,141.463 36.087,141.463 C25.465,145.541 17.912,155.810 17.912,167.869 C17.912,183.502 30.584,196.173 46.216,196.173 C61.848,196.173 74.520,183.502 74.520,167.869 C74.520,155.810 66.967,145.541 56.344,141.463 Z" id="path-3" class="cls-5" fill-rule="evenodd"/>
    <path d="M56.344,141.463 C56.344,141.463 56.344,101.914 56.344,101.914 C56.344,96.120 51.883,94.802 46.400,94.802 C45.220,94.802 44.085,94.900 43.008,95.080 C46.651,95.700 49.234,97.512 49.234,101.914 C49.234,101.914 49.234,141.463 49.234,141.463 C59.856,145.541 67.409,155.810 67.409,167.869 C67.409,182.294 56.611,194.174 42.660,195.927 C43.828,196.073 45.009,196.173 46.216,196.173 C61.848,196.173 74.520,183.502 74.520,167.869 C74.520,155.810 66.967,145.541 56.344,141.463 Z" id="path-4" class="cls-4" fill-rule="evenodd"/>
    <path d="M41.621,175.434 C41.621,178.870 38.835,181.656 35.399,181.656 C31.963,181.656 29.178,178.870 29.178,175.434 C29.178,171.998 31.963,169.211 35.399,169.211 C38.835,169.211 41.621,171.998 41.621,175.434 Z" id="path-5" class="cls-7" fill-rule="evenodd"/>
    <path d="M46.114,136.828 C44.119,136.828 42.500,135.208 42.500,133.214 C42.500,133.214 42.500,27.884 42.500,27.884 C42.500,25.889 44.119,24.269 46.114,24.269 C48.111,24.269 49.729,25.889 49.729,27.884 C49.729,27.884 49.729,133.214 49.729,133.214 C49.729,135.208 48.111,136.828 46.114,136.828 Z" id="path-6" class="cls-7" fill-rule="evenodd"/>
  </g>
</svg>
