<svg xmlns="http://www.w3.org/2000/svg" xmlns:xlink="http://www.w3.org/1999/xlink" preserveAspectRatio="xMidYMid" width="211" height="217" viewBox="0 0 211 217">
  <defs>
    <style>

      .cls-3 {
        fill: #d99a02;
      }

      .cls-4 {
        fill: #fbb713;
      }

      .cls-5 {
        fill: #fccb56;
      }

      .cls-7 {
        fill: #bba300;
      }
    </style>
  </defs>
  <g id="group-66svg">
    <path d="M38.269,98.234 C38.269,98.234 198.659,98.234 198.659,98.234 C198.659,98.234 198.659,167.468 198.659,167.468 C198.659,167.468 38.269,167.468 38.269,167.468 C38.269,167.468 38.269,98.234 38.269,98.234 Z" id="path-1" class="cls-3" fill-rule="evenodd"/>
    <path d="M81.310,94.508 C81.310,94.508 82.107,214.208 82.107,214.208 C82.107,214.208 92.758,196.900 120.718,206.219 C150.895,220.422 181.073,220.421 211.252,206.219 C211.252,206.219 211.252,46.215 211.252,46.215 C211.252,22.697 192.402,0.397 168.887,-0.008 C168.887,-0.008 40.832,0.560 40.832,0.560 C40.832,0.560 81.310,94.508 81.310,94.508 Z" id="path-2" class="cls-4" fill-rule="evenodd"/>
    <path d="M81.663,84.084 C81.663,130.213 63.382,167.609 40.832,167.609 C18.280,167.609 -0.000,130.213 -0.000,84.084 C-0.000,37.955 18.280,0.560 40.832,0.560 C63.382,0.560 81.663,37.955 81.663,84.084 Z" id="path-3" class="cls-5" fill-rule="evenodd"/>
    <path d="M53.461,84.084 C53.461,98.352 47.806,109.919 40.832,109.919 C33.856,109.919 28.202,98.352 28.202,84.084 C28.202,69.815 33.856,58.248 40.832,58.248 C47.806,58.248 53.461,69.815 53.461,84.084 Z" id="path-4" class="cls-3" fill-rule="evenodd"/>
    <path d="M208.133,142.089 C208.133,142.089 202.808,142.089 202.808,142.089 C202.808,142.089 202.808,139.871 202.808,139.871 C202.808,139.871 208.133,139.871 208.133,139.871 C208.133,139.871 208.133,142.089 208.133,142.089 ZM197.483,142.089 C197.483,142.089 192.157,142.089 192.157,142.089 C192.157,142.089 192.157,139.871 192.157,139.871 C192.157,139.871 197.483,139.871 197.483,139.871 C197.483,139.871 197.483,142.089 197.483,142.089 ZM186.832,142.089 C186.832,142.089 181.507,142.089 181.507,142.089 C181.507,142.089 181.507,139.871 181.507,139.871 C181.507,139.871 186.832,139.871 186.832,139.871 C186.832,139.871 186.832,142.089 186.832,142.089 ZM176.183,142.089 C176.183,142.089 170.858,142.089 170.858,142.089 C170.858,142.089 170.858,139.871 170.858,139.871 C170.858,139.871 176.183,139.871 176.183,139.871 C176.183,139.871 176.183,142.089 176.183,142.089 ZM165.532,142.089 C165.532,142.089 160.207,142.089 160.207,142.089 C160.207,142.089 160.207,139.871 160.207,139.871 C160.207,139.871 165.532,139.871 165.532,139.871 C165.532,139.871 165.532,142.089 165.532,142.089 ZM154.882,142.089 C154.882,142.089 149.557,142.089 149.557,142.089 C149.557,142.089 149.557,139.871 149.557,139.871 C149.557,139.871 154.882,139.871 154.882,139.871 C154.882,139.871 154.882,142.089 154.882,142.089 ZM144.232,142.089 C144.232,142.089 138.907,142.089 138.907,142.089 C138.907,142.089 138.907,139.871 138.907,139.871 C138.907,139.871 144.232,139.871 144.232,139.871 C144.232,139.871 144.232,142.089 144.232,142.089 ZM133.582,142.089 C133.582,142.089 128.257,142.089 128.257,142.089 C128.257,142.089 128.257,139.871 128.257,139.871 C128.257,139.871 133.582,139.871 133.582,139.871 C133.582,139.871 133.582,142.089 133.582,142.089 ZM122.932,142.089 C122.932,142.089 117.607,142.089 117.607,142.089 C117.607,142.089 117.607,139.871 117.607,139.871 C117.607,139.871 122.932,139.871 122.932,139.871 C122.932,139.871 122.932,142.089 122.932,142.089 ZM112.282,142.089 C112.282,142.089 106.957,142.089 106.957,142.089 C106.957,142.089 106.957,139.871 106.957,139.871 C106.957,139.871 112.282,139.871 112.282,139.871 C112.282,139.871 112.282,142.089 112.282,142.089 ZM101.632,142.089 C101.632,142.089 96.307,142.089 96.307,142.089 C96.307,142.089 96.307,139.871 96.307,139.871 C96.307,139.871 101.632,139.871 101.632,139.871 C101.632,139.871 101.632,142.089 101.632,142.089 ZM90.982,142.089 C90.982,142.089 85.657,142.089 85.657,142.089 C85.657,142.089 85.657,139.871 85.657,139.871 C85.657,139.871 90.982,139.871 90.982,139.871 C90.982,139.871 90.982,142.089 90.982,142.089 Z" id="path-5" class="cls-7" fill-rule="evenodd"/>
  </g>
</svg>
