<svg xmlns="http://www.w3.org/2000/svg" xmlns:xlink="http://www.w3.org/1999/xlink" preserveAspectRatio="xMidYMid" width="154" height="217" viewBox="0 0 154 217">
  <defs>
    <style>

      .cls-3 {
        fill: #142a3b;
      }

      .cls-5 {
        fill: #ff3a2f;
      }

      .cls-6 {
        fill: #020403;
        opacity: 0.45;
      }

      .cls-9 {
        fill: #020403;
        opacity: 0.35;
      }

      .cls-16 {
        fill: #ffffff;
      }
    </style>
  </defs>
  <g id="group-65svg">
    <path d="M130.074,154.095 C142.889,154.095 153.315,143.665 153.315,130.846 C153.315,118.034 142.889,107.612 130.074,107.612 C130.074,107.612 130.074,154.095 130.074,154.095 Z" id="path-1" class="cls-3" fill-rule="evenodd"/>
    <path d="M23.228,154.095 C10.412,154.095 -0.013,143.665 -0.013,130.846 C-0.013,118.034 10.412,107.612 23.228,107.612 C23.228,107.612 23.228,154.095 23.228,154.095 Z" id="path-2" class="cls-3" fill-rule="evenodd"/>
    <path d="M51.982,162.900 C51.982,162.900 24.989,162.900 24.989,162.900 C22.502,162.900 20.491,160.887 20.491,158.401 C20.491,158.401 20.491,104.413 20.491,104.413 C20.491,101.926 22.502,99.915 24.989,99.915 C24.989,99.915 51.982,99.915 51.982,99.915 C54.469,99.915 56.481,101.926 56.481,104.413 C56.481,104.413 56.481,158.401 56.481,158.401 C56.481,160.887 54.469,162.900 51.982,162.900 Z" id="path-3" class="cls-5" fill-rule="evenodd"/>
    <path d="M46.054,99.915 C46.054,99.915 43.304,99.915 43.304,99.915 C43.304,99.915 43.304,150.514 43.304,150.514 C43.304,153.001 41.671,155.013 39.652,155.013 C39.652,155.013 20.491,155.013 20.491,155.013 C20.491,155.013 20.491,158.401 20.491,158.401 C20.491,160.887 22.124,162.900 24.142,162.900 C24.142,162.900 46.054,162.900 46.054,162.900 C48.073,162.900 49.706,160.887 49.706,158.401 C49.706,158.401 49.706,104.413 49.706,104.413 C49.706,101.926 48.073,99.915 46.054,99.915 Z" id="path-4" class="cls-6" fill-rule="evenodd"/>
    <path d="M132.961,162.900 C132.961,162.900 105.967,162.900 105.967,162.900 C103.481,162.900 101.469,160.887 101.469,158.401 C101.469,158.401 101.469,104.413 101.469,104.413 C101.469,101.926 103.481,99.915 105.967,99.915 C105.967,99.915 132.961,99.915 132.961,99.915 C135.447,99.915 137.459,101.926 137.459,104.413 C137.459,104.413 137.459,158.401 137.459,158.401 C137.459,160.887 135.447,162.900 132.961,162.900 Z" id="path-5" class="cls-5" fill-rule="evenodd"/>
    <path d="M105.967,198.891 C105.967,198.891 51.982,198.891 51.982,198.891 C49.495,198.891 47.483,196.879 47.483,194.391 C47.483,194.391 47.483,86.419 47.483,86.419 C47.483,83.931 49.495,81.919 51.982,81.919 C51.982,81.919 105.967,81.919 105.967,81.919 C108.454,81.919 110.466,83.931 110.466,86.419 C110.466,86.419 110.466,194.391 110.466,194.391 C110.466,196.879 108.454,198.891 105.967,198.891 Z" id="path-6" class="cls-5" fill-rule="evenodd"/>
    <path d="M105.967,81.919 C105.967,81.919 51.982,81.919 51.982,81.919 C49.495,81.919 47.483,83.931 47.483,86.419 C47.483,86.419 47.483,89.805 47.483,89.805 C47.483,89.805 86.252,89.805 86.252,89.805 C88.739,89.805 90.751,91.817 90.751,94.305 C90.751,94.305 90.751,198.891 90.751,198.891 C90.751,198.891 105.967,198.891 105.967,198.891 C108.454,198.891 110.466,196.879 110.466,194.391 C110.466,194.391 110.466,86.419 110.466,86.419 C110.466,83.931 108.454,81.919 105.967,81.919 Z" id="path-7" class="cls-9" fill-rule="evenodd"/>
    <path d="M141.958,216.887 C141.958,216.887 15.991,216.887 15.991,216.887 C13.505,216.887 11.493,214.875 11.493,212.387 C11.493,212.387 11.493,194.391 11.493,194.391 C11.493,191.906 13.505,189.894 15.991,189.894 C15.991,189.894 141.958,189.894 141.958,189.894 C144.445,189.894 146.457,191.906 146.457,194.391 C146.457,194.391 146.457,212.387 146.457,212.387 C146.457,214.875 144.445,216.887 141.958,216.887 Z" id="path-8" class="cls-5" fill-rule="evenodd"/>
    <path d="M141.958,189.894 C141.958,189.894 130.684,189.894 130.684,189.894 C130.684,189.894 130.684,204.502 130.684,204.502 C130.684,206.988 128.673,209.000 126.185,209.000 C126.185,209.000 11.493,209.000 11.493,209.000 C11.493,209.000 11.493,212.387 11.493,212.387 C11.493,214.875 13.505,216.887 15.991,216.887 C15.991,216.887 141.958,216.887 141.958,216.887 C144.445,216.887 146.457,214.875 146.457,212.387 C146.457,212.387 146.457,194.391 146.457,194.391 C146.457,191.905 144.445,189.894 141.958,189.894 Z" id="path-9" class="cls-9" fill-rule="evenodd"/>
    <path d="M103.651,23.249 C103.651,10.438 93.225,0.007 80.409,0.007 C67.594,0.007 57.169,10.438 57.169,23.249 C57.169,23.249 103.651,23.249 103.651,23.249 Z" id="path-10" class="cls-3" fill-rule="evenodd"/>
    <path d="M123.963,86.974 C123.963,86.974 33.987,86.974 33.987,86.974 C31.500,86.974 29.488,84.961 29.488,82.474 C29.488,82.474 29.488,62.229 29.488,62.229 C29.488,35.641 51.227,14.807 78.975,14.807 C106.724,14.807 128.462,35.798 128.462,62.598 C128.462,62.598 128.462,82.474 128.462,82.474 C128.462,84.961 126.450,86.974 123.963,86.974 Z" id="path-11" class="cls-5" fill-rule="evenodd"/>
    <path d="M78.975,14.807 C75.580,14.807 72.279,15.128 69.093,15.724 C91.973,20.014 108.746,39.061 108.746,62.598 C108.746,62.598 108.746,82.474 108.746,82.474 C108.746,84.961 106.735,86.974 104.247,86.974 C104.247,86.974 123.963,86.974 123.963,86.974 C126.450,86.974 128.461,84.961 128.461,82.474 C128.461,82.474 128.461,62.598 128.461,62.598 C128.461,35.798 106.724,14.807 78.975,14.807 Z" id="path-12" class="cls-9" fill-rule="evenodd"/>
    <path d="M119.465,162.900 C119.465,162.900 110.466,162.900 110.466,162.900 C110.466,162.900 110.466,99.915 110.466,99.915 C110.466,99.915 119.465,99.915 119.465,99.915 C119.465,99.915 119.465,162.900 119.465,162.900 Z" id="path-13" class="cls-6" fill-rule="evenodd"/>
    <path d="M38.491,66.412 C38.317,66.412 38.139,66.399 37.962,66.372 C35.987,66.082 34.620,64.246 34.911,62.271 C35.114,60.885 40.149,28.311 63.042,30.610 C65.028,30.809 66.476,32.580 66.279,34.567 C66.079,36.553 64.300,38.006 62.322,37.804 C46.145,36.193 42.101,63.050 42.062,63.322 C41.799,65.119 40.255,66.412 38.491,66.412 Z" id="path-14" class="cls-16" fill-rule="evenodd"/>
  </g>
</svg>
