<svg xmlns="http://www.w3.org/2000/svg" xmlns:xlink="http://www.w3.org/1999/xlink" preserveAspectRatio="xMidYMid" width="107" height="217" viewBox="0 0 107 217">
  <defs>
    <style>

      .cls-3 {
        fill: #ff3a2f;
      }

      .cls-4 {
        fill: #ffffff;
      }

      .cls-5 {
        fill: #010101;
      }

      .cls-6 {
        fill: #020403;
        opacity: 0.35;
      }

      .cls-7 {
        fill: #fbb713;
      }

      .cls-9 {
        fill: #020403;
        opacity: 0.2;
      }
    </style>
  </defs>
  <g id="group-168svg">
    <path d="M57.834,69.566 C57.834,69.566 57.834,53.197 57.834,53.197 C57.834,53.197 66.019,57.290 70.111,45.015 C74.203,32.738 49.651,16.370 53.743,0.001 C53.743,0.001 33.283,20.462 37.375,45.015 C37.375,45.015 36.166,49.099 47.000,51.149 C47.000,51.149 47.000,65.530 47.000,65.530 C47.000,65.530 57.834,69.566 57.834,69.566 Z" id="path-1" class="cls-3" fill-rule="evenodd"/>
    <path d="M47.070,45.800 C46.960,45.800 46.847,45.789 46.733,45.767 C43.396,45.136 41.311,44.074 40.362,42.517 C39.900,41.758 39.823,41.065 39.852,40.595 C37.574,26.207 46.226,18.039 46.598,17.697 C47.326,17.023 48.466,17.069 49.144,17.798 C49.822,18.528 49.780,19.671 49.052,20.350 C48.737,20.644 41.368,27.701 43.459,40.259 C43.459,40.259 43.528,40.671 43.528,40.671 C43.528,40.671 43.515,40.717 43.515,40.717 C43.745,40.973 44.612,41.688 47.404,42.217 C48.385,42.403 49.030,43.349 48.844,44.329 C48.680,45.196 47.921,45.800 47.070,45.800 Z" id="path-2" class="cls-4" fill-rule="evenodd"/>
    <path d="M38.816,47.057 C38.447,46.986 38.126,46.909 37.784,46.835 C38.004,47.197 38.344,47.590 38.816,47.993 C38.816,47.993 38.816,47.057 38.816,47.057 Z" id="path-3" class="cls-5" fill-rule="evenodd"/>
    <path d="M53.743,0.001 C53.743,0.001 50.633,3.135 47.085,8.378 C52.148,20.367 64.975,31.780 61.927,40.923 C57.834,53.197 49.651,49.107 49.651,49.107 C49.651,49.107 49.651,65.474 49.651,65.474 C49.651,65.474 47.000,64.488 47.000,64.488 C47.000,64.488 47.000,65.530 47.000,65.530 C47.000,65.530 57.834,69.566 57.834,69.566 C57.834,69.566 57.834,53.197 57.834,53.197 C57.834,53.197 66.019,57.289 70.111,45.014 C74.203,32.738 49.651,16.370 53.743,0.001 Z" id="path-4" class="cls-6" fill-rule="evenodd"/>
    <path d="M0.003,90.027 C0.003,90.027 0.003,212.788 0.003,212.788 C0.003,215.050 1.834,216.881 4.096,216.881 C4.096,216.881 102.302,216.881 102.302,216.881 C104.564,216.881 106.395,215.050 106.395,212.788 C106.395,212.788 106.395,77.751 106.395,77.751 C106.395,75.489 104.564,73.659 102.302,73.659 C102.302,73.659 69.567,70.078 49.107,61.381 C28.647,52.688 4.096,36.830 4.096,36.830 C1.834,36.830 0.003,38.660 0.003,40.923 C0.003,40.923 0.003,53.197 0.003,53.197 C0.003,53.197 0.003,90.027 0.003,90.027 Z" id="path-5" class="cls-7" fill-rule="evenodd"/>
    <path d="M16.371,197.749 C13.377,197.749 10.950,195.322 10.950,192.328 C10.950,192.328 10.950,94.119 10.950,94.119 C10.950,91.123 13.377,88.697 16.371,88.697 C19.367,88.697 21.793,91.123 21.793,94.119 C21.793,94.119 21.793,192.328 21.793,192.328 C21.793,195.322 19.367,197.749 16.371,197.749 Z" id="path-6" class="cls-4" fill-rule="evenodd"/>
    <path d="M102.302,73.659 C102.302,73.659 69.567,70.078 49.107,61.381 C28.647,52.687 4.096,36.829 4.096,36.829 C1.834,36.829 0.003,38.660 0.003,40.923 C0.003,40.923 0.003,53.197 0.003,53.197 C0.003,53.197 0.003,63.095 0.003,63.095 C8.468,67.968 19.000,73.651 28.647,77.750 C49.107,86.446 81.843,90.027 81.843,90.027 C84.104,90.027 85.935,91.857 85.935,94.118 C85.935,94.118 85.935,216.879 85.935,216.879 C85.935,216.879 102.302,216.879 102.302,216.879 C104.564,216.879 106.395,215.050 106.395,212.788 C106.395,212.788 106.395,77.750 106.395,77.750 C106.395,75.489 104.564,73.659 102.302,73.659 Z" id="path-7" class="cls-9" fill-rule="evenodd"/>
  </g>
</svg>
