<svg xmlns="http://www.w3.org/2000/svg" xmlns:xlink="http://www.w3.org/1999/xlink" preserveAspectRatio="xMidYMid" width="98" height="217" viewBox="0 0 98 217">
  <defs>
    <style>

      .cls-3 {
        fill: #ff3a2f;
      }

      .cls-4 {
        fill: #020403;
        opacity: 0.35;
      }

      .cls-5 {
        fill: #142a3b;
      }

      .cls-7 {
        fill: #fbb713;
      }

      .cls-10 {
        fill: #ededed;
      }

      .cls-13 {
        fill: #ffffff;
      }
    </style>
  </defs>
  <g id="group-34svg">
    <path d="M79.187,187.518 C79.187,187.518 18.605,187.518 18.605,187.518 C18.605,187.518 29.611,26.097 29.611,26.097 C29.611,26.097 68.182,26.097 68.182,26.097 C68.182,26.097 79.187,187.518 79.187,187.518 Z" id="path-1" class="cls-3" fill-rule="evenodd"/>
    <path d="M52.408,33.983 C52.408,33.983 62.877,187.517 62.877,187.517 C62.877,187.517 79.187,187.517 79.187,187.517 C79.187,187.517 68.182,26.097 68.182,26.097 C68.182,26.097 29.611,26.097 29.611,26.097 C29.611,26.097 29.073,33.983 29.073,33.983 C29.073,33.983 52.408,33.983 52.408,33.983 Z" id="path-2" class="cls-4" fill-rule="evenodd"/>
    <path d="M97.802,216.867 C97.802,216.867 -0.010,216.867 -0.010,216.867 C-0.010,216.867 -0.010,187.518 -0.010,187.518 C-0.010,187.518 97.802,187.518 97.802,187.518 C97.802,187.518 97.802,216.867 97.802,216.867 Z" id="path-3" class="cls-5" fill-rule="evenodd"/>
    <path d="M64.284,187.517 C64.284,187.517 64.284,216.867 64.284,216.867 C64.284,216.867 97.802,216.867 97.802,216.867 C97.802,216.867 97.802,187.517 97.802,187.517 C97.802,187.517 64.284,187.517 64.284,187.517 Z" id="path-4" class="cls-4" fill-rule="evenodd"/>
    <path d="M73.069,26.097 C73.115,25.486 73.162,24.876 73.162,24.254 C73.162,10.853 62.298,-0.012 48.896,-0.012 C35.494,-0.012 24.631,10.853 24.631,24.254 C24.631,24.876 24.678,25.486 24.724,26.097 C24.724,26.097 73.069,26.097 73.069,26.097 Z" id="path-5" class="cls-7" fill-rule="evenodd"/>
    <path d="M48.896,-0.012 C46.131,-0.012 43.486,0.473 41.010,1.324 C50.534,4.601 57.389,13.618 57.389,24.253 C57.389,24.876 57.342,25.486 57.296,26.097 C57.296,26.097 73.069,26.097 73.069,26.097 C73.115,25.486 73.162,24.876 73.162,24.253 C73.162,10.853 62.298,-0.012 48.896,-0.012 Z" id="path-6" class="cls-4" fill-rule="evenodd"/>
    <path d="M87.416,77.404 C87.416,77.404 10.377,77.404 10.377,77.404 C10.377,77.404 10.377,70.175 10.377,70.175 C10.377,70.175 87.416,70.175 87.416,70.175 C87.416,70.175 87.416,77.404 87.416,77.404 Z" id="path-7" class="cls-5" fill-rule="evenodd"/>
    <path d="M60.165,73.789 C60.165,73.789 37.628,73.789 37.628,73.789 C37.628,73.789 40.046,59.274 40.046,59.274 C40.767,54.948 44.511,51.777 48.896,51.777 C48.896,51.777 48.896,51.777 48.896,51.777 C53.282,51.777 57.024,54.948 57.746,59.274 C57.746,59.274 60.165,73.789 60.165,73.789 Z" id="path-8" class="cls-10" fill-rule="evenodd"/>
    <path d="M73.159,129.779 C72.564,129.779 71.960,129.632 71.405,129.321 C71.405,129.321 22.873,102.298 22.873,102.298 C21.127,101.326 20.500,99.126 21.473,97.382 C22.444,95.637 24.648,95.011 26.388,95.982 C26.388,95.982 74.920,123.005 74.920,123.005 C76.666,123.977 77.292,126.177 76.320,127.922 C75.660,129.109 74.428,129.779 73.159,129.779 Z" id="path-9" class="cls-10" fill-rule="evenodd"/>
    <path d="M73.159,169.211 C72.564,169.211 71.960,169.064 71.405,168.754 C71.405,168.754 22.873,141.730 22.873,141.730 C21.127,140.759 20.500,138.558 21.473,136.813 C22.444,135.070 24.648,134.442 26.388,135.414 C26.388,135.414 74.920,162.438 74.920,162.438 C76.666,163.409 77.292,165.610 76.320,167.355 C75.660,168.542 74.428,169.211 73.159,169.211 Z" id="path-10" class="cls-10" fill-rule="evenodd"/>
    <path d="M44.450,10.072 C44.450,11.524 43.273,12.701 41.821,12.701 C40.370,12.701 39.193,11.524 39.193,10.072 C39.193,8.620 40.370,7.443 41.821,7.443 C43.273,7.443 44.450,8.620 44.450,10.072 Z" id="path-11" class="cls-13" fill-rule="evenodd"/>
    <path d="M38.686,17.958 C38.686,20.582 36.559,22.710 33.935,22.710 C31.312,22.710 29.184,20.582 29.184,17.958 C29.184,15.334 31.312,13.208 33.935,13.208 C36.559,13.208 38.686,15.334 38.686,17.958 Z" id="path-12" class="cls-13" fill-rule="evenodd"/>
  </g>
</svg>
