<svg xmlns="http://www.w3.org/2000/svg" xmlns:xlink="http://www.w3.org/1999/xlink" preserveAspectRatio="xMidYMid" width="217" height="189" viewBox="0 0 217 189">
  <defs>
    <style>

      .cls-3 {
        fill: #fbb713;
      }

      .cls-4 {
        fill: #142a3b;
      }

      .cls-5 {
        fill: #ff3a2f;
      }

      .cls-6 {
        fill: #000000;
        opacity: 0.35;
      }

      .cls-12 {
        fill: #010101;
        opacity: 0.25;
      }
    </style>
  </defs>
  <g id="group-121svg">
    <path d="M19.487,62.217 C19.487,62.217 19.487,175.625 19.487,175.625 C19.487,182.820 25.853,188.658 33.708,188.658 C33.708,188.658 182.994,188.658 182.994,188.658 C190.849,188.658 197.214,182.820 197.214,175.625 C197.214,175.625 197.214,62.217 197.214,62.217 C197.214,62.217 19.487,62.217 19.487,62.217 Z" id="path-1" class="cls-3" fill-rule="evenodd"/>
    <path d="M137.764,113.524 C137.764,113.524 78.937,113.524 78.937,113.524 C78.937,113.524 78.937,188.658 78.937,188.658 C78.937,188.658 137.764,188.658 137.764,188.658 C137.764,188.658 137.764,113.524 137.764,113.524 Z" id="path-2" class="cls-4" fill-rule="evenodd"/>
    <path d="M24.695,-0.006 C24.695,-0.006 0.014,47.315 0.014,47.315 C0.014,55.544 4.302,62.217 9.578,62.217 C9.578,62.217 207.323,62.217 207.323,62.217 C212.607,62.217 216.888,55.544 216.888,47.315 C216.888,47.315 192.206,-0.006 192.206,-0.006 C192.206,-0.006 24.695,-0.006 24.695,-0.006 Z" id="path-3" class="cls-5" fill-rule="evenodd"/>
    <path d="M78.937,113.524 C78.937,113.524 78.937,123.060 78.937,123.060 C78.937,123.060 118.692,123.060 118.692,123.060 C118.692,123.060 118.692,188.659 118.692,188.659 C118.692,188.659 137.764,188.659 137.764,188.659 C137.764,188.659 137.764,113.524 137.764,113.524 C137.764,113.524 78.937,113.524 78.937,113.524 Z" id="path-4" class="cls-6" fill-rule="evenodd"/>
    <path d="M20.967,60.608 C20.513,60.608 20.050,60.522 19.605,60.339 C17.756,59.586 16.869,57.477 17.621,55.628 C17.621,55.628 38.506,4.351 38.506,4.351 C39.260,2.502 41.364,1.612 43.219,2.366 C45.066,3.119 45.955,5.229 45.203,7.078 C45.203,7.078 24.317,58.356 24.317,58.356 C23.745,59.758 22.393,60.608 20.967,60.608 Z" id="path-5" class="cls-4" fill-rule="evenodd"/>
    <path d="M65.575,60.608 C65.312,60.608 65.046,60.578 64.779,60.519 C62.831,60.081 61.607,58.146 62.046,56.198 C62.046,56.198 73.575,4.920 73.575,4.920 C74.015,2.974 75.953,1.754 77.895,2.188 C79.844,2.625 81.066,4.559 80.628,6.507 C80.628,6.507 69.098,57.785 69.098,57.785 C68.721,59.466 67.229,60.608 65.575,60.608 Z" id="path-6" class="cls-4" fill-rule="evenodd"/>
    <path d="M195.299,60.608 C193.930,60.608 192.620,59.826 192.011,58.498 C192.011,58.498 168.520,7.220 168.520,7.220 C167.688,5.404 168.487,3.258 170.300,2.426 C172.112,1.598 174.259,2.391 175.093,4.208 C175.093,4.208 198.583,55.487 198.583,55.487 C199.415,57.301 198.617,59.447 196.803,60.278 C196.316,60.502 195.804,60.608 195.299,60.608 Z" id="path-7" class="cls-4" fill-rule="evenodd"/>
    <path d="M151.252,60.608 C149.619,60.608 148.138,59.494 147.741,57.837 C147.741,57.837 135.415,6.558 135.415,6.558 C134.947,4.618 136.144,2.666 138.084,2.199 C140.028,1.737 141.978,2.927 142.443,4.869 C142.443,4.869 154.769,56.148 154.769,56.148 C155.237,58.088 154.041,60.040 152.100,60.507 C151.816,60.575 151.533,60.608 151.252,60.608 Z" id="path-8" class="cls-4" fill-rule="evenodd"/>
    <path d="M108.454,60.606 C106.458,60.606 104.841,58.988 104.841,56.992 C104.841,56.992 104.841,5.714 104.841,5.714 C104.841,3.717 106.458,2.099 108.454,2.099 C110.450,2.099 112.069,3.717 112.069,5.714 C112.069,5.714 112.069,56.992 112.069,56.992 C112.069,58.988 110.450,60.606 108.454,60.606 Z" id="path-9" class="cls-4" fill-rule="evenodd"/>
    <path d="M9.578,62.217 C9.578,62.217 207.323,62.217 207.323,62.217 C212.607,62.217 216.888,55.545 216.888,47.315 C216.888,47.315 0.014,47.315 0.014,47.315 C0.014,55.545 4.302,62.217 9.578,62.217 Z" id="path-10" class="cls-12" fill-rule="evenodd"/>
    <path d="M197.214,87.091 C197.214,87.091 19.487,77.556 19.487,77.556 C19.487,77.556 19.487,62.217 19.487,62.217 C19.487,62.217 197.214,62.217 197.214,62.217 C197.214,62.217 197.214,87.091 197.214,87.091 Z" id="path-11" class="cls-6" fill-rule="evenodd"/>
  </g>
</svg>
