<svg xmlns="http://www.w3.org/2000/svg" xmlns:xlink="http://www.w3.org/1999/xlink" preserveAspectRatio="xMidYMid" width="206" height="218" viewBox="0 0 206 218">
  <defs>
    <style>

      .cls-3 {
        fill: #142a3b;
      }

      .cls-4 {
        fill: #ff3a2f;
      }

      .cls-5 {
        fill: #ffffff;
      }

      .cls-6 {
        fill: #fbb713;
      }

      .cls-16 {
        fill: #020403;
        opacity: 0.35;
      }
    </style>
  </defs>
  <g id="group-35svg">
    <path d="M121.014,197.104 C121.014,197.104 130.563,199.659 130.563,199.659 C130.563,199.659 152.965,116.047 152.965,116.047 C152.965,116.047 143.416,113.491 143.416,113.491 C143.416,113.491 121.014,197.104 121.014,197.104 Z" id="path-1" class="cls-3" fill-rule="evenodd"/>
    <path d="M162.129,58.443 C193.020,66.710 211.355,98.439 203.084,129.310 C203.084,129.310 91.221,99.374 91.221,99.374 C99.492,68.502 131.240,50.176 162.129,58.443 Z" id="path-2" class="cls-4" fill-rule="evenodd"/>
    <path d="M108.280,98.791 C107.971,98.791 107.657,98.752 107.342,98.668 C105.414,98.151 104.270,96.169 104.787,94.240 C110.422,73.205 132.134,60.679 153.171,66.310 C155.100,66.826 156.245,68.807 155.728,70.735 C155.211,72.663 153.234,73.806 151.303,73.292 C134.092,68.689 116.374,78.928 111.769,96.112 C111.336,97.726 109.877,98.791 108.280,98.791 Z" id="path-3" class="cls-5" fill-rule="evenodd"/>
    <path d="M15.873,203.187 C33.714,195.690 56.714,191.176 81.817,191.176 C119.814,191.176 152.991,201.519 170.752,216.892 C170.752,216.892 15.873,203.187 15.873,203.187 Z" id="path-4" class="cls-6" fill-rule="evenodd"/>
    <path d="M38.648,23.594 C36.652,23.594 35.034,21.976 35.034,19.979 C35.034,19.979 35.034,3.626 35.034,3.626 C35.034,1.631 36.652,0.011 38.648,0.011 C40.644,0.011 42.263,1.631 42.263,3.626 C42.263,3.626 42.263,19.979 42.263,19.979 C42.263,21.976 40.644,23.594 38.648,23.594 Z" id="path-5" class="cls-6" fill-rule="evenodd"/>
    <path d="M38.648,77.294 C36.652,77.294 35.034,75.676 35.034,73.680 C35.034,73.680 35.034,57.327 35.034,57.327 C35.034,55.331 36.652,53.712 38.648,53.712 C40.644,53.712 42.263,55.331 42.263,57.327 C42.263,57.327 42.263,73.680 42.263,73.680 C42.263,75.676 40.644,77.294 38.648,77.294 Z" id="path-6" class="cls-6" fill-rule="evenodd"/>
    <path d="M73.696,42.268 C73.696,42.268 57.333,42.268 57.333,42.268 C55.338,42.268 53.719,40.649 53.719,38.653 C53.719,36.657 55.338,35.038 57.333,35.038 C57.333,35.038 73.696,35.038 73.696,35.038 C75.692,35.038 77.311,36.657 77.311,38.653 C77.311,40.649 75.692,42.268 73.696,42.268 Z" id="path-7" class="cls-6" fill-rule="evenodd"/>
    <path d="M19.965,42.268 C19.965,42.268 3.602,42.268 3.602,42.268 C1.606,42.268 -0.012,40.649 -0.012,38.653 C-0.012,36.657 1.606,35.038 3.602,35.038 C3.602,35.038 19.965,35.038 19.965,35.038 C21.961,35.038 23.579,36.657 23.579,38.653 C23.579,40.649 21.961,42.268 19.965,42.268 Z" id="path-8" class="cls-6" fill-rule="evenodd"/>
    <path d="M63.431,67.035 C62.507,67.035 61.581,66.683 60.876,65.978 C60.876,65.978 49.305,54.414 49.305,54.414 C47.893,53.003 47.893,50.714 49.303,49.302 C50.715,47.890 53.004,47.890 54.417,49.301 C54.417,49.301 65.987,60.863 65.987,60.863 C67.399,62.275 67.399,64.563 65.989,65.975 C65.282,66.681 64.356,67.035 63.431,67.035 Z" id="path-9" class="cls-6" fill-rule="evenodd"/>
    <path d="M25.438,29.063 C24.513,29.063 23.588,28.711 22.883,28.006 C22.883,28.006 11.311,16.442 11.311,16.442 C9.899,15.032 9.899,12.743 11.309,11.331 C12.721,9.918 15.010,9.918 16.423,11.329 C16.423,11.329 27.993,22.891 27.993,22.891 C29.406,24.303 29.406,26.591 27.995,28.004 C27.289,28.709 26.363,29.063 25.438,29.063 Z" id="path-10" class="cls-6" fill-rule="evenodd"/>
    <path d="M51.861,29.063 C50.936,29.063 50.009,28.709 49.303,28.004 C47.893,26.591 47.893,24.303 49.305,22.891 C49.305,22.891 60.876,11.329 60.876,11.329 C62.287,9.918 64.577,9.918 65.989,11.331 C67.399,12.743 67.399,15.032 65.987,16.442 C65.987,16.442 54.417,28.006 54.417,28.006 C53.710,28.711 52.785,29.063 51.861,29.063 Z" id="path-11" class="cls-6" fill-rule="evenodd"/>
    <path d="M13.867,67.035 C12.942,67.035 12.016,66.682 11.309,65.975 C9.899,64.563 9.899,62.275 11.311,60.863 C11.311,60.863 22.883,49.301 22.883,49.301 C24.294,47.890 26.583,47.889 27.995,49.302 C29.406,50.714 29.406,53.003 27.993,54.414 C27.993,54.414 16.423,65.978 16.423,65.978 C15.716,66.683 14.792,67.035 13.867,67.035 Z" id="path-12" class="cls-6" fill-rule="evenodd"/>
    <path d="M56.869,39.684 C56.869,49.740 48.712,57.893 38.649,57.893 C28.586,57.893 20.429,49.740 20.429,39.684 C20.429,29.628 28.586,21.475 38.649,21.475 C48.712,21.475 56.869,29.628 56.869,39.684 Z" id="path-13" class="cls-6" fill-rule="evenodd"/>
    <path d="M162.129,58.443 C156.653,56.976 151.154,56.387 145.758,56.514 C172.857,66.509 188.571,95.217 182.032,123.677 C182.032,123.677 203.084,129.310 203.084,129.310 C211.356,98.439 193.020,66.710 162.129,58.443 Z" id="path-14" class="cls-16" fill-rule="evenodd"/>
  </g>
</svg>
