<svg xmlns="http://www.w3.org/2000/svg" xmlns:xlink="http://www.w3.org/1999/xlink" preserveAspectRatio="xMidYMid" width="106" height="218" viewBox="0 0 106 218">
  <defs>
    <style>

      .cls-3 {
        fill: #142a3b;
      }

      .cls-4 {
        fill: #0cb04a;
      }

      .cls-5 {
        fill: #020403;
        opacity: 0.45;
      }

      .cls-6 {
        fill: #ff3a2f;
      }

      .cls-7 {
        fill: #ffffff;
      }

      .cls-9 {
        fill: #020403;
        opacity: 0.35;
      }

      .cls-10 {
        fill: #fbb713;
      }

      .cls-11 {
        fill: #020403;
        opacity: 0.25;
      }
    </style>
  </defs>
  <g id="group-39svg">
    <path d="M84.160,30.251 C84.160,46.952 70.622,60.490 53.922,60.490 C37.223,60.490 23.683,46.952 23.683,30.251 C23.683,13.551 37.223,0.012 53.922,0.012 C70.622,0.012 84.160,13.551 84.160,30.251 Z" id="path-1" class="cls-3" fill-rule="evenodd"/>
    <path d="M60.888,61.484 C60.888,78.184 47.350,91.723 30.650,91.723 C13.950,91.723 0.413,78.184 0.413,61.484 C0.413,44.783 13.950,31.245 30.650,31.245 C47.350,31.245 60.888,44.783 60.888,61.484 Z" id="path-2" class="cls-4" fill-rule="evenodd"/>
    <path d="M54.235,36.365 C41.434,39.883 32.017,51.575 32.017,65.494 C32.017,79.414 41.434,91.105 54.235,94.623 C67.037,91.105 76.454,79.414 76.454,65.494 C76.454,51.575 67.037,39.883 54.235,36.365 Z" id="path-3" class="cls-5" fill-rule="evenodd"/>
    <path d="M104.524,61.484 C104.524,78.184 90.985,91.723 74.285,91.723 C57.585,91.723 44.047,78.184 44.047,61.484 C44.047,44.783 57.585,31.245 74.285,31.245 C90.985,31.245 104.524,44.783 104.524,61.484 Z" id="path-4" class="cls-6" fill-rule="evenodd"/>
    <path d="M50.669,70.507 C48.673,70.507 47.054,68.888 47.054,66.892 C47.054,51.106 59.898,38.263 75.684,38.263 C77.679,38.263 79.298,39.881 79.298,41.878 C79.298,43.875 77.679,45.493 75.684,45.493 C63.884,45.493 54.284,55.093 54.284,66.892 C54.284,68.888 52.665,70.507 50.669,70.507 Z" id="path-5" class="cls-7" fill-rule="evenodd"/>
    <path d="M10.570,70.507 C8.574,70.507 6.955,68.888 6.955,66.892 C6.955,57.597 11.497,48.845 19.102,43.482 C20.729,42.332 22.988,42.722 24.139,44.352 C25.290,45.984 24.899,48.239 23.266,49.390 C17.581,53.401 14.184,59.944 14.184,66.892 C14.184,68.888 12.566,70.507 10.570,70.507 Z" id="path-6" class="cls-7" fill-rule="evenodd"/>
    <path d="M77.566,31.430 C86.489,36.687 92.493,46.369 92.493,57.474 C92.493,74.174 78.955,87.714 62.256,87.714 C61.145,87.714 60.052,87.644 58.973,87.528 C63.468,90.177 68.690,91.723 74.285,91.723 C90.985,91.723 104.524,78.184 104.524,61.484 C104.524,45.894 92.722,33.068 77.566,31.430 Z" id="path-7" class="cls-9" fill-rule="evenodd"/>
    <path d="M67.668,216.892 C67.668,216.892 105.684,77.276 105.684,77.276 C105.684,77.276 0.015,77.276 0.015,77.276 C0.015,77.276 38.030,216.892 38.030,216.892 C38.030,216.892 67.668,216.892 67.668,216.892 Z" id="path-8" class="cls-10" fill-rule="evenodd"/>
    <path d="M86.368,77.276 C86.368,77.276 51.629,204.861 51.629,204.861 C51.629,204.861 34.754,204.861 34.754,204.861 C34.754,204.861 38.030,216.891 38.030,216.891 C38.030,216.891 67.668,216.891 67.668,216.891 C67.668,216.891 105.684,77.276 105.684,77.276 C105.684,77.276 86.368,77.276 86.368,77.276 Z" id="path-9" class="cls-11" fill-rule="evenodd"/>
    <path d="M41.172,181.157 C39.586,181.157 38.131,180.105 37.690,178.503 C37.690,178.503 17.710,106.055 17.710,106.055 C17.178,104.129 18.308,102.140 20.232,101.609 C22.164,101.076 24.147,102.208 24.676,104.133 C24.676,104.133 44.658,176.580 44.658,176.580 C45.189,178.504 44.059,180.495 42.136,181.025 C41.813,181.114 41.490,181.157 41.172,181.157 Z" id="path-10" class="cls-7" fill-rule="evenodd"/>
  </g>
</svg>
