<svg xmlns="http://www.w3.org/2000/svg" xmlns:xlink="http://www.w3.org/1999/xlink" preserveAspectRatio="xMidYMid" width="170" height="217" viewBox="0 0 170 217">
  <defs>
    <style>

      .cls-3 {
        fill: #0cb04a;
      }

      .cls-4 {
        fill: #142a3b;
      }

      .cls-7 {
        fill: #ededed;
      }

      .cls-8 {
        fill: #020403;
        opacity: 0.35;
      }

      .cls-11 {
        fill: #020403;
        opacity: 0.25;
      }
    </style>
  </defs>
  <g id="group-99svg">
    <path d="M137.104,23.651 C131.444,23.651 126.121,25.074 121.468,27.575 C116.990,11.685 102.421,0.015 85.104,0.015 C67.779,0.015 53.210,11.685 48.723,27.575 C44.069,25.074 38.747,23.651 33.106,23.651 C14.820,23.651 0.002,38.471 0.002,56.743 C0.002,75.024 14.174,89.834 33.082,89.834 C33.082,89.834 33.082,216.895 33.082,216.895 C33.082,216.895 137.081,216.895 137.081,216.895 C137.081,216.895 137.081,89.834 137.081,89.834 C155.990,89.834 170.181,75.024 170.181,56.743 C170.181,38.471 155.371,23.651 137.104,23.651 Z" id="path-1" class="cls-3" fill-rule="evenodd"/>
    <path d="M61.445,182.691 C59.450,182.691 57.831,181.071 57.831,179.077 C57.831,179.077 57.831,141.258 57.831,141.258 C57.831,139.262 59.450,137.642 61.445,137.642 C63.442,137.642 65.060,139.262 65.060,141.258 C65.060,141.258 65.060,179.077 65.060,179.077 C65.060,181.071 63.442,182.691 61.445,182.691 Z" id="path-2" class="cls-4" fill-rule="evenodd"/>
    <path d="M85.082,182.691 C83.086,182.691 81.468,181.071 81.468,179.077 C81.468,179.077 81.468,131.803 81.468,131.803 C81.468,129.806 83.086,128.188 85.082,128.188 C87.078,128.188 88.696,129.806 88.696,131.803 C88.696,131.803 88.696,179.077 88.696,179.077 C88.696,181.071 87.078,182.691 85.082,182.691 Z" id="path-3" class="cls-4" fill-rule="evenodd"/>
    <path d="M108.718,182.691 C106.722,182.691 105.103,181.071 105.103,179.077 C105.103,179.077 105.103,141.258 105.103,141.258 C105.103,139.262 106.722,137.642 108.718,137.642 C110.714,137.642 112.332,139.262 112.332,141.258 C112.332,141.258 112.332,179.077 112.332,179.077 C112.332,181.071 110.714,182.691 108.718,182.691 Z" id="path-4" class="cls-4" fill-rule="evenodd"/>
    <path d="M137.081,216.895 C137.081,216.895 33.082,216.895 33.082,216.895 C33.082,216.895 33.082,175.003 33.082,175.003 C33.082,175.003 137.081,175.003 137.081,175.003 C137.081,175.003 137.081,216.895 137.081,216.895 Z" id="path-5" class="cls-7" fill-rule="evenodd"/>
    <path d="M18.924,33.106 C24.565,33.106 38.034,37.926 42.687,40.426 C43.976,35.862 46.120,31.662 48.899,27.971 C46.683,25.567 35.740,23.651 33.105,23.651 C23.217,23.651 14.369,28.008 8.303,34.879 C11.641,33.747 15.204,33.106 18.924,33.106 Z" id="path-6" class="cls-8" fill-rule="evenodd"/>
    <path d="M137.104,23.651 C131.444,23.651 126.120,25.074 121.468,27.575 C116.990,11.685 102.421,0.015 85.104,0.015 C74.254,0.015 64.486,4.596 57.596,11.921 C61.743,10.353 66.225,9.469 70.923,9.469 C88.240,9.469 102.808,21.141 107.287,37.031 C111.939,34.528 117.262,33.106 122.922,33.106 C141.189,33.106 155.999,47.925 155.999,66.197 C155.999,74.598 152.976,82.243 147.902,88.077 C161.144,83.662 170.181,71.319 170.181,56.742 C170.181,38.471 155.371,23.651 137.104,23.651 Z" id="path-7" class="cls-8" fill-rule="evenodd"/>
    <path d="M122.899,92.622 C122.899,92.622 122.899,174.348 122.899,174.348 C122.899,174.348 137.080,174.348 137.080,174.348 C137.080,174.348 137.080,89.528 137.080,89.528 C132.824,91.494 128.046,92.622 122.899,92.622 Z" id="path-8" class="cls-8" fill-rule="evenodd"/>
    <path d="M122.899,175.003 C122.899,175.003 122.899,189.332 122.899,189.332 C122.899,196.722 116.909,202.711 109.520,202.711 C109.520,202.711 33.082,202.711 33.082,202.711 C33.082,202.711 33.082,216.893 33.082,216.893 C33.082,216.893 137.080,216.893 137.080,216.893 C137.080,216.893 137.080,175.003 137.080,175.003 C137.080,175.003 122.899,175.003 122.899,175.003 Z" id="path-9" class="cls-11" fill-rule="evenodd"/>
  </g>
</svg>
