<svg xmlns="http://www.w3.org/2000/svg" xmlns:xlink="http://www.w3.org/1999/xlink" preserveAspectRatio="xMidYMid" width="217" height="176" viewBox="0 0 217 176">
  <defs>
    <style>

      .cls-3 {
        fill: #ff3a2f;
      }

      .cls-4 {
        fill: #020403;
        opacity: 0.35;
      }

      .cls-5 {
        fill: #142a3b;
      }

      .cls-6 {
        fill: #ffe56d;
      }
    </style>
  </defs>
  <g id="group-74svg">
    <path d="M216.883,175.469 C216.883,175.469 9.513,175.469 9.513,175.469 C9.513,175.469 9.513,42.686 9.513,42.686 C9.513,42.686 216.883,42.686 216.883,42.686 C216.883,42.686 216.883,175.469 216.883,175.469 Z" id="path-1" class="cls-3" fill-rule="evenodd"/>
    <path d="M216.884,163.250 C216.884,163.250 9.513,163.250 9.513,163.250 C9.513,163.250 9.513,175.469 9.513,175.469 C9.513,175.469 216.884,175.469 216.884,175.469 C216.884,175.469 216.884,163.250 216.884,163.250 Z" id="path-2" class="cls-4" fill-rule="evenodd"/>
    <path d="M177.491,150.245 C177.491,150.245 48.906,150.245 48.906,150.245 C48.906,150.245 48.906,67.910 48.906,67.910 C48.906,67.910 177.491,67.910 177.491,67.910 C177.491,67.910 177.491,150.245 177.491,150.245 Z" id="path-3" class="cls-5" fill-rule="evenodd"/>
    <path d="M98.844,127.406 C98.844,127.406 83.632,120.744 98.844,95.916 C98.844,95.916 100.282,105.604 103.232,108.027 C103.232,108.027 107.704,95.916 113.302,95.916 C113.302,95.916 117.215,97.127 113.818,86.227 C113.818,86.227 118.326,88.649 120.127,97.733 C120.127,97.733 121.355,100.760 120.127,106.817 C120.127,106.817 128.176,103.182 128.080,92.888 C128.080,92.888 142.106,111.055 128.080,127.406 C118.948,133.391 109.212,133.479 98.844,127.406 Z" id="path-4" class="cls-6" fill-rule="evenodd"/>
    <path d="M104.565,132.319 C104.565,132.319 95.416,128.314 104.565,113.380 C104.565,113.380 105.430,119.207 107.205,120.664 C107.205,120.664 109.894,113.380 113.260,113.380 C113.260,113.380 115.613,114.108 113.570,107.552 C113.570,107.552 116.282,109.010 117.365,114.473 C117.365,114.473 118.104,116.294 117.365,119.935 C117.365,119.935 122.206,117.751 122.148,111.558 C122.148,111.558 130.584,122.486 122.149,132.319 C116.656,135.918 110.800,135.972 104.565,132.319 Z" id="path-5" class="cls-3" fill-rule="evenodd"/>
    <path d="M216.883,17.984 C216.883,17.984 48.906,17.984 48.906,17.984 C48.906,17.984 48.906,9.562 48.906,9.562 C48.906,9.562 216.883,9.562 216.883,9.562 C216.883,9.562 216.883,17.984 216.883,17.984 Z" id="path-6" class="cls-5" fill-rule="evenodd"/>
    <path d="M51.515,6.608 C41.640,3.264 30.381,0.009 23.951,0.009 C10.729,0.009 0.009,6.172 0.009,13.774 C0.009,21.374 10.729,27.536 23.951,27.536 C30.381,27.536 41.640,24.282 51.515,20.938 C51.515,20.938 51.515,6.608 51.515,6.608 Z" id="path-7" class="cls-3" fill-rule="evenodd"/>
    <path d="M1.077,9.701 C0.384,10.987 0.009,12.355 0.009,13.774 C0.009,21.374 10.729,27.536 23.951,27.536 C30.381,27.536 41.640,24.282 51.515,20.938 C51.515,20.938 51.515,12.792 51.515,12.792 C41.640,16.136 30.381,19.391 23.951,19.391 C13.196,19.391 4.097,15.313 1.077,9.701 Z" id="path-8" class="cls-4" fill-rule="evenodd"/>
  </g>
</svg>
