<svg xmlns="http://www.w3.org/2000/svg" xmlns:xlink="http://www.w3.org/1999/xlink" preserveAspectRatio="xMidYMid" width="155" height="217" viewBox="0 0 155 217">
  <defs>
    <style>

      .cls-3 {
        fill: #142a3b;
      }

      .cls-4 {
        fill: #ff3a2f;
      }

      .cls-5 {
        fill: #020403;
        opacity: 0.35;
      }

      .cls-8 {
        fill: #ffffff;
      }
    </style>
  </defs>
  <g id="group-94svg">
    <path d="M72.577,54.908 C70.581,54.908 69.077,53.289 69.077,51.293 C69.077,51.293 69.077,19.840 69.077,19.840 C69.077,8.523 78.053,-0.011 89.931,-0.011 C91.927,-0.011 93.555,1.607 93.555,3.603 C93.555,5.600 91.808,7.218 89.812,7.218 C82.055,7.218 76.077,12.644 76.077,19.840 C76.077,19.840 76.077,51.293 76.077,51.293 C76.077,53.289 74.573,54.908 72.577,54.908 Z" id="path-1" class="cls-3" fill-rule="evenodd"/>
    <path d="M77.502,63.579 C81.070,63.579 84.553,63.904 87.993,64.370 C87.993,64.370 87.993,44.205 87.993,44.205 C87.993,44.205 58.902,44.205 58.902,44.205 C58.902,44.205 58.902,64.985 58.902,64.985 C58.902,64.985 62.990,64.985 62.990,64.985 C67.696,64.092 72.537,63.579 77.502,63.579 Z" id="path-2" class="cls-4" fill-rule="evenodd"/>
    <path d="M83.837,44.205 C83.837,44.205 83.837,56.059 83.837,56.059 C80.397,55.593 76.914,55.267 73.347,55.267 C68.405,55.267 63.588,55.778 58.902,56.662 C58.902,56.662 58.902,64.985 58.902,64.985 C58.902,64.985 62.990,64.985 62.990,64.985 C67.696,64.092 72.537,63.579 77.502,63.579 C81.070,63.579 84.553,63.904 87.993,64.370 C87.993,64.370 87.993,44.205 87.993,44.205 C87.993,44.205 83.837,44.205 83.837,44.205 Z" id="path-3" class="cls-5" fill-rule="evenodd"/>
    <path d="M154.993,139.136 C154.993,181.919 120.318,216.628 77.502,216.628 C34.704,216.628 0.012,181.919 0.012,139.136 C0.012,96.336 34.704,61.643 77.502,61.643 C120.318,61.643 154.993,96.336 154.993,139.136 Z" id="path-4" class="cls-3" fill-rule="evenodd"/>
    <path d="M95.589,63.457 C118.666,76.877 134.214,101.809 134.214,130.429 C134.214,173.212 99.539,207.922 56.723,207.922 C50.491,207.922 44.461,207.106 38.654,205.715 C50.085,212.364 63.328,216.233 77.502,216.233 C120.318,216.233 154.993,181.524 154.993,138.742 C154.993,102.180 129.657,71.611 95.589,63.457 Z" id="path-5" class="cls-5" fill-rule="evenodd"/>
    <path d="M21.985,134.438 C19.989,134.438 18.370,132.820 18.370,130.823 C18.370,105.092 39.304,84.157 65.035,84.157 C67.031,84.157 68.650,85.777 68.650,87.773 C68.650,89.769 67.031,91.387 65.035,91.387 C43.289,91.387 25.599,109.079 25.599,130.823 C25.599,132.820 23.981,134.438 21.985,134.438 Z" id="path-6" class="cls-8" fill-rule="evenodd"/>
  </g>
</svg>
