<svg xmlns="http://www.w3.org/2000/svg" xmlns:xlink="http://www.w3.org/1999/xlink" preserveAspectRatio="xMidYMid" width="92" height="217" viewBox="0 0 92 217">
  <defs>
    <style>

      .cls-3 {
        fill: #142a3b;
      }

      .cls-4 {
        fill: #0cb04a;
      }

      .cls-5 {
        fill: #ff3a2f;
      }

      .cls-6 {
        fill: #020403;
        opacity: 0.35;
      }
    </style>
  </defs>
  <g id="group-91svg">
    <path d="M51.291,131.871 C51.291,131.871 66.041,6.060 66.041,6.060 C66.390,3.076 65.148,0.468 63.281,0.268 C63.281,0.268 60.852,0.006 60.852,0.006 C58.985,-0.194 57.217,2.089 56.924,5.080 C56.924,5.080 44.599,131.152 44.599,131.152 C44.599,131.152 51.291,131.871 51.291,131.871 Z" id="path-1" class="cls-3" fill-rule="evenodd"/>
    <path d="M48.468,127.904 C38.217,126.801 29.248,132.042 28.435,139.608 C28.435,139.608 65.555,143.598 65.555,143.598 C66.368,136.032 58.717,129.004 48.468,127.904 Z" id="path-2" class="cls-4" fill-rule="evenodd"/>
    <path d="M63.719,213.906 C59.826,208.942 59.520,201.750 59.767,197.398 C59.862,195.709 57.864,194.524 56.206,195.291 C47.155,199.465 41.785,204.869 39.503,211.303 C39.503,211.303 0.005,207.058 0.005,207.058 C0.005,207.058 5.290,157.882 5.290,157.882 C6.504,146.593 17.776,138.462 30.339,139.812 C30.339,139.812 63.650,143.393 63.650,143.393 C76.214,144.743 85.500,155.085 84.287,166.373 C84.287,166.373 81.300,194.168 81.300,194.168 C81.300,194.168 75.876,208.292 91.320,216.874 C91.320,216.874 63.719,213.906 63.719,213.906 Z" id="path-3" class="cls-5" fill-rule="evenodd"/>
    <path d="M49.947,128.117 C53.578,131.049 55.659,135.001 55.216,139.123 C55.216,139.123 29.407,136.349 29.407,136.349 C28.928,137.379 28.559,138.454 28.435,139.608 C28.435,139.608 65.555,143.598 65.555,143.598 C66.328,136.400 59.440,129.705 49.947,128.117 Z" id="path-4" class="cls-6" fill-rule="evenodd"/>
    <path d="M57.499,189.333 C57.596,187.643 55.597,186.458 53.938,187.225 C44.888,191.400 31.447,201.423 29.166,207.858 C29.166,207.858 0.254,204.750 0.254,204.750 C0.254,204.750 0.005,207.058 0.005,207.058 C0.005,207.058 39.503,211.303 39.503,211.303 C43.716,199.145 52.494,197.956 57.567,194.465 C57.412,192.568 57.416,190.786 57.499,189.333 Z" id="path-5" class="cls-6" fill-rule="evenodd"/>
    <path d="M81.300,194.168 C81.300,194.168 84.287,166.373 84.287,166.373 C85.500,155.085 76.214,144.743 63.650,143.393 C63.650,143.393 63.519,143.378 63.519,143.378 C70.488,147.592 74.799,155.021 73.948,162.927 C73.948,162.927 70.961,190.722 70.961,190.722 C70.961,190.722 65.539,204.846 80.983,213.427 C80.983,213.427 62.164,211.404 62.164,211.404 C62.610,212.277 63.107,213.125 63.719,213.906 C63.719,213.906 91.320,216.874 91.320,216.874 C75.876,208.292 81.300,194.168 81.300,194.168 Z" id="path-6" class="cls-6" fill-rule="evenodd"/>
    <path d="M73.521,212.337 C72.985,212.337 72.453,212.100 72.097,211.645 C65.578,203.331 69.633,193.844 69.810,193.444 C70.208,192.532 71.264,192.118 72.185,192.519 C73.097,192.917 73.516,193.980 73.120,194.894 C72.981,195.215 69.780,202.834 74.941,209.414 C75.557,210.200 75.420,211.336 74.635,211.952 C74.303,212.211 73.911,212.337 73.521,212.337 Z" id="path-7" class="cls-3" fill-rule="evenodd"/>
    <path d="M28.196,209.643 C28.133,209.643 28.067,209.639 28.002,209.632 C27.009,209.525 26.290,208.636 26.397,207.642 C26.397,207.642 27.455,197.807 27.455,197.807 C27.561,196.815 28.430,196.090 29.444,196.204 C30.437,196.310 31.156,197.201 31.049,198.193 C31.049,198.193 29.991,208.030 29.991,208.030 C29.892,208.956 29.108,209.643 28.196,209.643 Z" id="path-8" class="cls-3" fill-rule="evenodd"/>
    <path d="M18.204,208.569 C18.139,208.569 18.075,208.565 18.009,208.559 C17.015,208.451 16.297,207.562 16.405,206.569 C16.405,206.569 19.852,174.497 19.852,174.497 C19.957,173.506 20.840,172.788 21.841,172.894 C22.834,173.000 23.553,173.891 23.445,174.883 C23.445,174.883 19.998,206.955 19.998,206.955 C19.899,207.882 19.115,208.569 18.204,208.569 Z" id="path-9" class="cls-3" fill-rule="evenodd"/>
    <path d="M8.210,207.494 C8.147,207.494 8.081,207.491 8.016,207.484 C7.023,207.378 6.304,206.486 6.411,205.494 C6.411,205.494 8.134,189.458 8.134,189.458 C8.240,188.467 9.101,187.740 10.124,187.855 C11.117,187.962 11.835,188.853 11.727,189.846 C11.727,189.846 10.005,205.880 10.005,205.880 C9.906,206.807 9.122,207.494 8.210,207.494 Z" id="path-10" class="cls-3" fill-rule="evenodd"/>
    <path d="M82.015,162.453 C81.952,162.453 81.887,162.450 81.821,162.443 C81.821,162.443 9.947,154.717 9.947,154.717 C8.953,154.610 8.235,153.719 8.343,152.727 C8.448,151.736 9.318,151.017 10.331,151.123 C10.331,151.123 82.207,158.849 82.207,158.849 C83.200,158.955 83.918,159.846 83.811,160.839 C83.712,161.766 82.928,162.453 82.015,162.453 Z" id="path-11" class="cls-3" fill-rule="evenodd"/>
  </g>
</svg>
