<svg xmlns="http://www.w3.org/2000/svg" xmlns:xlink="http://www.w3.org/1999/xlink" preserveAspectRatio="xMidYMid" width="218" height="183" viewBox="0 0 218 183">
  <defs>
    <style>

      .cls-3 {
        fill: #ff3a2f;
      }

      .cls-4 {
        fill: #020403;
        opacity: 0.35;
      }

      .cls-5 {
        fill: #142a3b;
      }

      .cls-9 {
        fill: #ffffff;
      }
    </style>
  </defs>
  <g id="group-49svg">
    <path d="M195.062,38.937 C195.062,38.937 195.062,153.836 195.062,153.836 C195.062,171.131 181.307,182.614 164.116,182.614 C164.116,182.614 60.231,182.614 60.231,182.614 C43.039,182.614 26.491,171.131 26.491,153.836 C26.491,153.836 26.491,38.937 26.491,38.937 C26.491,38.937 195.062,38.937 195.062,38.937 Z" id="path-1" class="cls-3" fill-rule="evenodd"/>
    <path d="M26.491,48.358 C26.491,48.358 26.491,57.780 26.491,57.780 C26.491,57.780 176.331,71.912 176.331,71.912 C176.331,71.912 176.331,172.680 176.331,172.680 C176.331,175.588 175.912,178.316 175.183,180.870 C186.841,177.058 195.062,167.195 195.062,153.836 C195.062,153.836 195.062,48.358 195.062,48.358 C195.062,48.358 26.491,48.358 26.491,48.358 Z" id="path-2" class="cls-4" fill-rule="evenodd"/>
    <path d="M211.450,51.426 C211.450,51.426 5.420,51.426 5.420,51.426 C2.425,51.426 -0.002,48.998 -0.002,46.004 C-0.002,43.008 2.425,40.581 5.420,40.581 C5.420,40.581 211.450,40.581 211.450,40.581 C214.445,40.581 216.872,43.008 216.872,46.004 C216.872,48.998 214.445,51.426 211.450,51.426 Z" id="path-3" class="cls-5" fill-rule="evenodd"/>
    <path d="M195.062,38.937 C195.062,38.937 190.921,8.317 175.405,8.317 C175.405,8.317 53.660,8.317 53.660,8.317 C38.143,8.317 26.491,19.358 26.491,34.967 C26.491,34.967 26.491,38.937 26.491,38.937 C26.491,38.937 195.062,38.937 195.062,38.937 Z" id="path-4" class="cls-3" fill-rule="evenodd"/>
    <path d="M151.992,13.028 C163.666,13.028 168.898,30.353 170.774,38.937 C170.774,38.937 195.062,38.937 195.062,38.937 C195.062,38.937 190.921,8.317 175.405,8.317 C175.405,8.317 53.660,8.317 53.660,8.317 C47.583,8.317 42.115,10.031 37.691,13.028 C37.691,13.028 151.992,13.028 151.992,13.028 Z" id="path-5" class="cls-4" fill-rule="evenodd"/>
    <path d="M141.213,7.222 C141.213,7.222 80.341,7.222 80.341,7.222 C78.345,7.222 76.726,5.603 76.726,3.607 C76.726,1.612 78.345,-0.008 80.341,-0.008 C80.341,-0.008 141.213,-0.008 141.213,-0.008 C143.209,-0.008 144.828,1.612 144.828,3.607 C144.828,5.603 143.209,7.222 141.213,7.222 Z" id="path-6" class="cls-5" fill-rule="evenodd"/>
    <path d="M74.278,172.097 C55.916,172.097 36.923,159.980 36.923,139.704 C36.923,139.704 36.923,109.598 36.923,109.598 C36.923,107.602 38.543,105.983 40.538,105.983 C42.534,105.983 44.152,107.602 44.152,109.598 C44.152,109.598 44.152,139.704 44.152,139.704 C44.152,155.247 59.790,164.868 74.278,164.868 C76.275,164.868 77.893,166.486 77.893,168.482 C77.893,170.479 76.275,172.097 74.278,172.097 Z" id="path-7" class="cls-9" fill-rule="evenodd"/>
  </g>
</svg>
