<svg xmlns="http://www.w3.org/2000/svg" xmlns:xlink="http://www.w3.org/1999/xlink" preserveAspectRatio="xMidYMid" width="218" height="194" viewBox="0 0 218 194">
  <defs>
    <style>

      .cls-3 {
        fill: #142a3b;
      }

      .cls-5 {
        fill: #020403;
        opacity: 0.45;
      }

      .cls-7 {
        fill: #ff3a2f;
      }

      .cls-8 {
        fill: #020403;
        opacity: 0.35;
      }

      .cls-13 {
        fill: #020403;
      }
    </style>
  </defs>
  <g id="group-23svg">
    <path d="M61.572,153.079 C61.572,153.079 90.547,12.601 90.547,12.601 C90.547,12.601 0.002,12.601 0.002,12.601 C0.002,12.601 28.976,153.079 28.976,153.079 C28.976,153.079 61.572,153.079 61.572,153.079 Z" id="path-1" class="cls-3" fill-rule="evenodd"/>
    <path d="M187.902,153.079 C187.902,153.079 216.876,12.601 216.876,12.601 C216.876,12.601 126.331,12.601 126.331,12.601 C126.331,12.601 155.306,153.079 155.306,153.079 C155.306,153.079 187.902,153.079 187.902,153.079 Z" id="path-2" class="cls-3" fill-rule="evenodd"/>
    <path d="M155.306,153.079 C155.306,153.079 187.902,153.079 187.902,153.079 C187.902,153.079 192.686,129.878 192.686,129.878 C192.686,129.878 192.686,126.993 192.686,126.993 C192.686,117.314 184.778,109.394 175.110,109.394 C175.110,109.394 168.097,109.394 168.097,109.394 C158.431,109.394 150.521,117.314 150.521,126.993 C150.521,126.993 150.521,129.880 150.521,129.880 C150.521,129.880 155.306,153.079 155.306,153.079 Z" id="path-3" class="cls-5" fill-rule="evenodd"/>
    <path d="M28.976,153.079 C28.976,153.079 61.572,153.079 61.572,153.079 C61.572,153.079 66.358,129.878 66.358,129.878 C66.358,129.878 66.358,126.993 66.358,126.993 C66.358,117.314 58.448,109.394 48.780,109.394 C48.780,109.394 41.768,109.394 41.768,109.394 C32.101,109.394 24.191,117.314 24.191,126.993 C24.191,126.993 24.191,129.880 24.191,129.880 C24.191,129.880 28.976,153.079 28.976,153.079 Z" id="path-4" class="cls-5" fill-rule="evenodd"/>
    <path d="M184.867,192.699 C184.867,192.699 158.341,192.699 158.341,192.699 C155.968,192.699 154.027,190.759 154.027,188.387 C154.027,188.387 154.027,124.974 154.027,124.974 C154.027,122.601 155.968,120.660 158.340,120.660 C158.340,120.660 184.866,120.660 184.866,120.660 C187.240,120.660 189.180,122.601 189.180,124.974 C189.180,124.974 189.180,188.387 189.180,188.387 C189.180,190.759 187.240,192.699 184.867,192.699 Z" id="path-5" class="cls-7" fill-rule="evenodd"/>
    <path d="M179.807,177.954 C179.807,177.954 163.400,177.954 163.400,177.954 C162.202,177.954 161.223,176.975 161.223,175.777 C161.223,175.777 161.223,137.583 161.223,137.583 C161.223,136.386 162.202,135.406 163.400,135.406 C163.400,135.406 179.807,135.406 179.807,135.406 C181.005,135.406 181.984,136.386 181.984,137.583 C181.984,137.583 181.984,175.777 181.984,175.777 C181.984,176.975 181.005,177.954 179.807,177.954 Z" id="path-6" class="cls-8" fill-rule="evenodd"/>
    <path d="M177.187,173.874 C177.187,173.874 174.171,173.874 174.171,173.874 C169.290,173.874 165.298,169.876 165.298,164.990 C165.298,164.990 165.298,140.210 165.298,140.210 C165.298,138.817 165.651,137.513 166.228,136.337 C163.282,137.786 161.223,140.797 161.223,144.290 C161.223,144.290 161.223,169.071 161.223,169.071 C161.223,173.956 165.216,177.954 170.095,177.954 C170.095,177.954 173.113,177.954 173.113,177.954 C176.601,177.954 179.608,175.893 181.055,172.943 C179.880,173.520 178.579,173.874 177.187,173.874 Z" id="path-7" class="cls-8" fill-rule="evenodd"/>
    <path d="M58.538,192.699 C58.538,192.699 32.011,192.699 32.011,192.699 C29.640,192.699 27.698,190.759 27.698,188.387 C27.698,188.387 27.698,124.974 27.698,124.974 C27.698,122.601 29.640,120.660 32.011,120.660 C32.011,120.660 58.538,120.660 58.538,120.660 C60.910,120.660 62.850,122.601 62.850,124.974 C62.850,124.974 62.850,188.387 62.850,188.387 C62.850,190.759 60.910,192.699 58.538,192.699 Z" id="path-8" class="cls-7" fill-rule="evenodd"/>
    <path d="M50.859,173.874 C50.859,173.874 47.841,173.874 47.841,173.874 C42.960,173.874 38.969,169.876 38.969,164.990 C38.969,164.990 38.969,140.210 38.969,140.210 C38.969,138.817 39.322,137.513 39.898,136.337 C36.952,137.786 34.894,140.797 34.894,144.290 C34.894,144.290 34.894,169.071 34.894,169.071 C34.894,173.956 38.886,177.954 43.765,177.954 C43.765,177.954 46.783,177.954 46.783,177.954 C50.272,177.954 53.279,175.893 54.726,172.943 C53.551,173.520 52.249,173.874 50.859,173.874 Z" id="path-9" class="cls-8" fill-rule="evenodd"/>
    <path d="M53.478,177.954 C53.478,177.954 37.070,177.954 37.070,177.954 C35.873,177.954 34.894,176.975 34.894,175.777 C34.894,175.777 34.894,137.583 34.894,137.583 C34.894,136.386 35.873,135.406 37.070,135.406 C37.070,135.406 53.478,135.406 53.478,135.406 C54.676,135.406 55.655,136.386 55.655,137.583 C55.655,137.583 55.655,175.777 55.655,175.777 C55.655,176.975 54.676,177.954 53.478,177.954 Z" id="path-10" class="cls-8" fill-rule="evenodd"/>
    <path d="M190.505,45.871 C190.322,45.871 190.138,45.862 189.950,45.843 C186.973,45.542 184.802,42.882 185.104,39.902 C185.104,39.902 187.294,18.274 187.294,18.274 C187.596,15.294 190.248,13.120 193.234,13.426 C196.213,13.728 198.382,16.387 198.081,19.366 C198.081,19.366 195.891,40.995 195.891,40.995 C195.608,43.789 193.252,45.871 190.505,45.871 Z" id="path-11" class="cls-13" fill-rule="evenodd"/>
    <path d="M162.311,45.871 C159.563,45.871 157.207,43.789 156.925,40.995 C156.925,40.995 154.734,19.366 154.734,19.366 C154.433,16.387 156.603,13.728 159.581,13.426 C162.571,13.121 165.220,15.294 165.522,18.274 C165.522,18.274 167.712,39.902 167.712,39.902 C168.014,42.882 165.843,45.542 162.866,45.843 C162.678,45.862 162.495,45.871 162.311,45.871 Z" id="path-12" class="cls-13" fill-rule="evenodd"/>
    <path d="M64.174,45.871 C63.991,45.871 63.807,45.862 63.620,45.843 C60.643,45.542 58.471,42.882 58.774,39.902 C58.774,39.902 60.964,18.274 60.964,18.274 C61.266,15.294 63.910,13.120 66.905,13.426 C69.884,13.728 72.053,16.387 71.751,19.366 C71.751,19.366 69.561,40.995 69.561,40.995 C69.278,43.789 66.922,45.871 64.174,45.871 Z" id="path-13" class="cls-13" fill-rule="evenodd"/>
    <path d="M35.982,45.871 C33.234,45.871 30.877,43.789 30.595,40.995 C30.595,40.995 28.405,19.366 28.405,19.366 C28.103,16.387 30.272,13.728 33.251,13.426 C36.233,13.121 38.891,15.294 39.192,18.274 C39.192,18.274 41.383,39.902 41.383,39.902 C41.685,42.882 39.514,45.542 36.536,45.843 C36.349,45.862 36.165,45.871 35.982,45.871 Z" id="path-14" class="cls-13" fill-rule="evenodd"/>
    <path d="M158.029,48.145 C156.198,48.145 154.627,46.760 154.437,44.899 C154.437,44.899 150.227,3.965 150.227,3.965 C150.022,1.980 151.466,0.205 153.451,0.001 C155.463,-0.205 157.214,1.240 157.417,3.227 C157.417,3.227 161.627,44.160 161.627,44.160 C161.831,46.146 160.388,47.922 158.402,48.125 C158.274,48.139 158.151,48.145 158.029,48.145 Z" id="path-15" class="cls-7" fill-rule="evenodd"/>
    <path d="M186.425,48.145 C186.337,48.145 186.249,48.141 186.162,48.135 C184.169,47.991 182.674,46.260 182.816,44.269 C182.816,44.269 185.779,3.335 185.779,3.335 C185.924,1.343 187.694,-0.147 189.646,-0.009 C191.638,0.135 193.134,1.866 192.991,3.856 C192.991,3.856 190.028,44.791 190.028,44.791 C189.890,46.692 188.304,48.145 186.425,48.145 Z" id="path-16" class="cls-7" fill-rule="evenodd"/>
    <path d="M60.095,48.145 C60.007,48.145 59.919,48.141 59.831,48.135 C57.841,47.991 56.344,46.260 56.486,44.269 C56.486,44.269 59.450,3.335 59.450,3.335 C59.593,1.343 61.350,-0.147 63.317,-0.009 C65.307,0.135 66.804,1.866 66.661,3.856 C66.661,3.856 63.698,44.791 63.698,44.791 C63.560,46.692 61.973,48.145 60.095,48.145 Z" id="path-17" class="cls-7" fill-rule="evenodd"/>
    <path d="M31.698,48.145 C29.868,48.145 28.297,46.760 28.106,44.899 C28.106,44.899 23.897,3.965 23.897,3.965 C23.692,1.980 25.137,0.205 27.121,0.001 C29.137,-0.205 30.884,1.240 31.087,3.227 C31.087,3.227 35.297,44.160 35.297,44.160 C35.502,46.146 34.058,47.922 32.073,48.125 C31.946,48.139 31.822,48.145 31.698,48.145 Z" id="path-18" class="cls-7" fill-rule="evenodd"/>
  </g>
</svg>
