<svg xmlns="http://www.w3.org/2000/svg" xmlns:xlink="http://www.w3.org/1999/xlink" preserveAspectRatio="xMidYMid" width="218" height="133" viewBox="0 0 218 133">
  <defs>
    <style>

      .cls-3 {
        fill: #0cb04a;
      }

      .cls-4 {
        fill: #000000;
        opacity: 0.35;
      }

      .cls-9 {
        fill: #142a3b;
      }
    </style>
  </defs>
  <g id="group-122svg">
    <path d="M177.648,53.236 C155.976,53.236 138.407,70.784 138.407,92.431 C138.407,114.078 155.976,131.625 177.648,131.625 C199.320,131.625 216.889,114.078 216.889,92.431 C216.889,70.784 199.320,53.236 177.648,53.236 ZM177.648,117.400 C163.841,117.400 152.648,106.222 152.648,92.431 C152.648,78.640 163.841,67.459 177.648,67.459 C191.455,67.459 202.647,78.640 202.647,92.431 C202.647,106.222 191.455,117.400 177.648,117.400 Z" id="path-1" class="cls-3" fill-rule="evenodd"/>
    <path d="M174.188,67.726 C173.055,67.569 171.905,67.459 170.728,67.459 C156.921,67.459 145.729,78.640 145.729,92.431 C145.729,106.222 156.921,117.400 170.728,117.400 C171.905,117.400 173.055,117.291 174.188,117.134 C162.023,115.448 152.648,105.045 152.648,92.431 C152.648,79.816 162.023,69.413 174.188,67.726 Z" id="path-2" class="cls-4" fill-rule="evenodd"/>
    <path d="M177.648,53.236 C176.480,53.236 175.330,53.312 174.188,53.411 C194.237,55.163 209.969,71.950 209.969,92.431 C209.969,112.911 194.237,129.698 174.188,131.450 C175.330,131.549 176.480,131.625 177.648,131.625 C199.320,131.625 216.889,114.078 216.889,92.431 C216.889,70.784 199.320,53.236 177.648,53.236 Z" id="path-3" class="cls-4" fill-rule="evenodd"/>
    <path d="M39.257,53.236 C17.584,53.236 0.016,70.784 0.016,92.431 C0.016,114.078 17.584,131.625 39.257,131.625 C60.929,131.625 78.497,114.078 78.497,92.431 C78.497,70.784 60.929,53.236 39.257,53.236 ZM39.257,117.400 C25.449,117.400 14.257,106.222 14.257,92.431 C14.257,78.640 25.449,67.459 39.257,67.459 C53.063,67.459 64.256,78.640 64.256,92.431 C64.256,106.222 53.063,117.400 39.257,117.400 Z" id="path-4" class="cls-3" fill-rule="evenodd"/>
    <path d="M35.797,67.726 C34.663,67.569 33.515,67.459 32.337,67.459 C18.530,67.459 7.337,78.640 7.337,92.431 C7.337,106.222 18.530,117.400 32.337,117.400 C33.515,117.400 34.663,117.291 35.797,117.134 C23.631,115.448 14.257,105.045 14.257,92.431 C14.257,79.816 23.631,69.413 35.797,67.726 Z" id="path-5" class="cls-4" fill-rule="evenodd"/>
    <path d="M39.257,53.236 C38.088,53.236 36.938,53.312 35.797,53.411 C55.845,55.163 71.578,71.950 71.578,92.431 C71.578,112.911 55.845,129.698 35.797,131.450 C36.938,131.549 38.088,131.625 39.257,131.625 C60.929,131.625 78.497,114.078 78.497,92.431 C78.497,70.784 60.929,53.236 39.257,53.236 Z" id="path-6" class="cls-4" fill-rule="evenodd"/>
    <path d="M187.468,92.430 C187.468,97.848 183.072,102.239 177.648,102.239 C172.224,102.239 167.828,97.848 167.828,92.430 C167.828,87.013 172.224,82.622 177.648,82.622 C183.072,82.622 187.468,87.013 187.468,92.430 Z" id="path-7" class="cls-9" fill-rule="evenodd"/>
    <path d="M47.984,94.413 C47.984,99.830 43.587,104.222 38.164,104.222 C32.739,104.222 28.343,99.830 28.343,94.413 C28.343,88.995 32.739,84.605 38.164,84.605 C43.587,84.605 47.984,88.995 47.984,94.413 Z" id="path-8" class="cls-9" fill-rule="evenodd"/>
    <path d="M124.999,94.413 C124.999,99.830 120.603,104.222 115.180,104.222 C109.756,104.222 105.360,99.830 105.360,94.413 C105.360,88.995 109.756,84.605 115.180,84.605 C120.603,84.605 124.999,88.995 124.999,94.413 Z" id="path-9" class="cls-9" fill-rule="evenodd"/>
    <path d="M117.295,96.045 C117.295,96.045 31.790,96.045 31.790,96.045 C31.790,96.045 75.518,25.578 75.518,25.578 C75.518,25.578 157.470,25.578 157.470,25.578 C159.466,25.578 161.084,27.197 161.084,29.193 C161.084,31.190 159.466,32.808 157.470,32.808 C157.470,32.808 145.072,32.808 145.072,32.808 C145.072,32.808 117.295,96.045 117.295,96.045 ZM44.783,88.815 C44.783,88.815 112.575,88.815 112.575,88.815 C112.575,88.815 137.176,32.808 137.176,32.808 C137.176,32.808 79.537,32.808 79.537,32.808 C79.537,32.808 44.783,88.815 44.783,88.815 Z" id="path-10" class="cls-9" fill-rule="evenodd"/>
    <path d="M177.647,96.046 C176.116,96.046 174.696,95.065 174.205,93.528 C174.205,93.528 146.331,6.178 146.331,6.178 C145.724,4.278 146.774,2.244 148.675,1.637 C150.570,1.032 152.609,2.078 153.219,3.982 C153.219,3.982 181.092,91.331 181.092,91.331 C181.698,93.233 180.649,95.267 178.748,95.874 C178.383,95.990 178.012,96.046 177.647,96.046 Z" id="path-11" class="cls-9" fill-rule="evenodd"/>
    <path d="M114.939,96.046 C113.703,96.046 112.497,95.411 111.823,94.270 C111.823,94.270 76.209,34.036 76.209,34.036 C75.193,32.318 75.762,30.101 77.482,29.084 C79.200,28.069 81.417,28.639 82.432,30.355 C82.432,30.355 118.047,90.590 118.047,90.590 C119.063,92.309 118.493,94.524 116.774,95.542 C116.197,95.883 115.563,96.046 114.939,96.046 Z" id="path-12" class="cls-9" fill-rule="evenodd"/>
    <path d="M125.003,115.615 C123.779,115.615 122.585,114.992 121.905,113.867 C121.905,113.867 112.084,97.582 112.084,97.582 C111.054,95.872 111.605,93.651 113.313,92.619 C115.020,91.587 117.244,92.137 118.276,93.848 C118.276,93.848 128.096,110.134 128.096,110.134 C129.126,111.844 128.576,114.064 126.868,115.096 C126.284,115.448 125.640,115.615 125.003,115.615 Z" id="path-13" class="cls-9" fill-rule="evenodd"/>
    <path d="M133.502,116.881 C133.502,116.881 115.180,116.881 115.180,116.881 C113.184,116.881 111.565,115.263 111.565,113.267 C111.565,111.272 113.184,109.653 115.180,109.653 C115.180,109.653 133.502,109.653 133.502,109.653 C135.498,109.653 137.117,111.272 137.117,113.267 C137.117,115.263 135.498,116.881 133.502,116.881 Z" id="path-14" class="cls-9" fill-rule="evenodd"/>
    <path d="M79.320,32.808 C77.324,32.808 75.705,31.190 75.705,29.193 C75.705,29.193 75.705,17.380 75.705,17.380 C75.705,15.384 77.324,13.765 79.320,13.765 C81.317,13.765 82.936,15.384 82.936,17.380 C82.936,17.380 82.936,29.193 82.936,29.193 C82.936,31.190 81.317,32.808 79.320,32.808 Z" id="path-15" class="cls-9" fill-rule="evenodd"/>
    <path d="M90.934,18.425 C90.934,18.425 66.157,18.425 66.157,18.425 C64.161,18.425 62.543,16.806 62.543,14.810 C62.543,12.813 64.161,11.196 66.157,11.196 C66.157,11.196 90.934,11.196 90.934,11.196 C92.930,11.196 94.548,12.813 94.548,14.810 C94.548,16.806 92.930,18.425 90.934,18.425 Z" id="path-16" class="cls-9" fill-rule="evenodd"/>
    <path d="M134.040,17.003 C132.044,17.003 130.426,15.384 130.426,13.388 C130.426,0.243 143.013,0.243 149.774,0.243 C151.221,0.243 152.706,0.178 154.179,0.115 C159.909,-0.134 165.834,-0.389 169.441,3.067 C171.288,4.835 172.223,7.266 172.223,10.295 C172.223,12.291 170.604,13.909 168.608,13.909 C166.612,13.909 164.993,12.291 164.993,10.295 C164.993,9.314 164.807,8.638 164.442,8.288 C163.061,6.968 158.310,7.173 154.490,7.337 C152.915,7.406 151.322,7.473 149.774,7.473 C138.850,7.473 137.655,9.368 137.655,13.388 C137.655,15.384 136.037,17.003 134.040,17.003 Z" id="path-17" class="cls-9" fill-rule="evenodd"/>
  </g>
</svg>
