<svg xmlns="http://www.w3.org/2000/svg" xmlns:xlink="http://www.w3.org/1999/xlink" preserveAspectRatio="xMidYMid" width="217" height="213" viewBox="0 0 217 213">
  <defs>
    <style>

      .cls-3 {
        fill: #fbb713;
      }

      .cls-4 {
        fill: #142a3b;
      }

      .cls-17 {
        fill: #ff3a2f;
      }

      .cls-18 {
        fill: #ffffff;
      }

      .cls-19 {
        fill: #2476ff;
      }

      .cls-22 {
        fill: #020403;
        opacity: 0.35;
      }
    </style>
  </defs>
  <g id="group-118svg">
    <path d="M216.861,41.501 C216.861,41.501 46.226,212.140 46.226,212.140 C46.226,212.140 16.028,181.943 16.028,181.943 C16.028,181.943 186.663,11.304 186.663,11.304 C186.663,11.304 216.861,41.501 216.861,41.501 Z" id="path-1" class="cls-3" fill-rule="evenodd"/>
    <path d="M79.524,155.109 C78.599,155.109 77.674,154.755 76.968,154.048 C76.968,154.048 64.148,141.227 64.148,141.227 C62.737,139.815 62.737,137.526 64.148,136.114 C65.561,134.704 67.848,134.704 69.260,136.115 C69.260,136.115 82.080,148.937 82.080,148.937 C83.491,150.350 83.491,152.638 82.080,154.051 C81.374,154.755 80.448,155.109 79.524,155.109 Z" id="path-2" class="cls-4" fill-rule="evenodd"/>
    <path d="M57.476,176.917 C56.551,176.917 55.626,176.563 54.921,175.858 C54.921,175.858 41.979,162.916 41.979,162.916 C40.567,161.505 40.567,159.216 41.979,157.805 C43.391,156.393 45.678,156.393 47.090,157.805 C47.090,157.805 60.033,170.746 60.033,170.746 C61.444,172.157 61.444,174.446 60.033,175.858 C59.326,176.563 58.401,176.917 57.476,176.917 Z" id="path-3" class="cls-4" fill-rule="evenodd"/>
    <path d="M41.671,180.979 C40.747,180.979 39.822,180.627 39.116,179.920 C39.116,179.920 32.406,173.210 32.406,173.210 C30.994,171.798 30.994,169.508 32.406,168.097 C33.817,166.686 36.105,166.686 37.517,168.097 C37.517,168.097 44.228,174.808 44.228,174.808 C45.639,176.219 45.639,178.508 44.228,179.920 C43.521,180.627 42.596,180.979 41.671,180.979 Z" id="path-4" class="cls-4" fill-rule="evenodd"/>
    <path d="M61.817,161.313 C60.892,161.313 59.967,160.959 59.261,160.253 C59.261,160.253 52.551,153.544 52.551,153.544 C51.139,152.133 51.139,149.842 52.551,148.432 C53.963,147.020 56.251,147.020 57.662,148.432 C57.662,148.432 64.372,155.143 64.372,155.143 C65.784,156.553 65.784,158.842 64.372,160.253 C63.666,160.959 62.741,161.313 61.817,161.313 Z" id="path-5" class="cls-4" fill-rule="evenodd"/>
    <path d="M83.146,139.984 C82.221,139.984 81.296,139.630 80.590,138.924 C80.590,138.924 73.879,132.213 73.879,132.213 C72.468,130.802 72.468,128.512 73.879,127.102 C75.292,125.690 77.580,125.690 78.992,127.102 C78.992,127.102 85.701,133.813 85.701,133.813 C87.113,135.223 87.113,137.513 85.701,138.924 C84.995,139.630 84.071,139.984 83.146,139.984 Z" id="path-6" class="cls-4" fill-rule="evenodd"/>
    <path d="M100.375,133.778 C99.449,133.778 98.525,133.424 97.819,132.719 C97.819,132.719 84.997,119.897 84.997,119.897 C83.585,118.486 83.585,116.196 84.997,114.786 C86.409,113.373 88.696,113.373 90.108,114.786 C90.108,114.786 102.931,127.607 102.931,127.607 C104.342,129.018 104.342,131.307 102.931,132.719 C102.225,133.424 101.300,133.778 100.375,133.778 Z" id="path-7" class="cls-4" fill-rule="evenodd"/>
    <path d="M104.955,117.694 C104.030,117.694 103.105,117.342 102.399,116.637 C102.399,116.637 95.687,109.926 95.687,109.926 C94.276,108.514 94.276,106.225 95.687,104.813 C97.099,103.401 99.387,103.401 100.798,104.812 C100.798,104.812 107.511,111.523 107.511,111.523 C108.922,112.935 108.922,115.224 107.511,116.635 C106.804,117.342 105.879,117.694 104.955,117.694 Z" id="path-8" class="cls-4" fill-rule="evenodd"/>
    <path d="M122.982,111.010 C122.057,111.010 121.132,110.657 120.427,109.952 C120.427,109.952 107.798,97.334 107.798,97.334 C106.387,95.923 106.387,93.635 107.797,92.223 C109.208,90.809 111.497,90.809 112.909,92.219 C112.909,92.219 125.538,104.837 125.538,104.837 C126.950,106.249 126.950,108.538 125.540,109.949 C124.833,110.656 123.907,111.010 122.982,111.010 Z" id="path-9" class="cls-4" fill-rule="evenodd"/>
    <path d="M127.202,95.368 C126.277,95.368 125.352,95.015 124.646,94.308 C124.646,94.308 117.935,87.598 117.935,87.598 C116.525,86.186 116.525,83.896 117.935,82.485 C119.348,81.074 121.635,81.074 123.047,82.485 C123.047,82.485 129.757,89.197 129.757,89.197 C131.169,90.607 131.169,92.897 129.757,94.308 C129.051,95.015 128.126,95.368 127.202,95.368 Z" id="path-10" class="cls-4" fill-rule="evenodd"/>
    <path d="M145.249,89.021 C144.326,89.021 143.400,88.669 142.694,87.962 C142.694,87.962 130.194,75.460 130.194,75.460 C128.782,74.049 128.782,71.760 130.194,70.349 C131.605,68.936 133.893,68.936 135.305,70.349 C135.305,70.349 147.806,82.851 147.806,82.851 C149.218,84.261 149.218,86.551 147.806,87.962 C147.100,88.669 146.175,89.021 145.249,89.021 Z" id="path-11" class="cls-4" fill-rule="evenodd"/>
    <path d="M149.409,73.476 C148.485,73.476 147.560,73.123 146.854,72.417 C146.854,72.417 140.144,65.708 140.144,65.708 C138.732,64.296 138.732,62.007 140.144,60.597 C141.557,59.184 143.843,59.184 145.255,60.597 C145.255,60.597 151.965,67.308 151.965,67.308 C153.378,68.717 153.378,71.006 151.965,72.417 C151.259,73.123 150.335,73.476 149.409,73.476 Z" id="path-12" class="cls-4" fill-rule="evenodd"/>
    <path d="M175.280,48.086 C174.355,48.086 173.430,47.732 172.724,47.026 C172.724,47.026 166.014,40.315 166.014,40.315 C164.602,38.904 164.602,36.617 166.014,35.205 C167.426,33.793 169.713,33.793 171.125,35.205 C171.125,35.205 177.835,41.915 177.835,41.915 C179.247,43.327 179.247,45.615 177.835,47.026 C177.129,47.732 176.205,48.086 175.280,48.086 Z" id="path-13" class="cls-4" fill-rule="evenodd"/>
    <path d="M167.777,66.493 C166.853,66.493 165.928,66.140 165.222,65.434 C165.222,65.434 152.721,52.933 152.721,52.933 C151.309,51.520 151.309,49.232 152.721,47.820 C154.133,46.409 156.421,46.409 157.832,47.820 C157.832,47.820 170.333,60.322 170.333,60.322 C171.745,61.734 171.745,64.023 170.333,65.434 C169.627,66.140 168.702,66.493 167.777,66.493 Z" id="path-14" class="cls-4" fill-rule="evenodd"/>
    <path d="M134.870,33.407 C134.870,33.407 124.326,43.953 124.326,43.953 C124.326,43.953 97.686,17.312 97.686,17.312 C97.686,17.312 108.231,6.767 108.231,6.767 C116.551,-1.554 129.231,-2.295 136.562,5.038 C140.246,8.721 141.903,13.755 141.573,18.871 C141.289,24.030 139.011,29.266 134.870,33.407 Z" id="path-15" class="cls-17" fill-rule="evenodd"/>
    <path d="M110.477,17.246 C109.945,17.246 109.404,17.128 108.894,16.880 C107.101,16.004 106.354,13.841 107.230,12.045 C110.905,4.512 119.489,1.107 126.364,4.460 C128.159,5.334 128.905,7.498 128.030,9.293 C127.154,11.085 124.989,11.831 123.197,10.958 C119.900,9.350 115.657,11.262 113.728,15.216 C113.102,16.500 111.815,17.246 110.477,17.246 Z" id="path-16" class="cls-18" fill-rule="evenodd"/>
    <path d="M12.609,102.130 C12.609,102.130 100.299,14.796 100.299,14.796 C100.299,14.796 127.010,41.507 127.010,41.507 C127.010,41.507 38.180,129.860 38.180,129.860 C38.180,129.860 38.180,129.860 38.180,129.860 " id="path-17" class="cls-19" fill-rule="evenodd"/>
    <path d="M15.440,135.621 C15.440,135.621 -0.014,141.654 -0.014,141.654 C-0.014,141.654 5.393,125.575 5.393,125.575 C5.393,125.575 15.440,135.621 15.440,135.621 Z" id="path-18" class="cls-4" fill-rule="evenodd"/>
    <path d="M28.024,102.225 C28.024,102.225 18.138,102.225 18.138,102.225 C18.138,102.225 12.609,102.130 12.609,102.130 C12.609,102.130 5.393,125.575 5.393,125.575 C5.393,125.575 15.439,135.621 15.439,135.621 C15.439,135.621 38.180,129.860 38.180,129.860 C38.180,129.860 38.954,122.713 38.954,122.713 C38.954,122.713 38.958,113.168 38.958,113.168 C38.958,113.168 27.801,114.706 27.801,114.706 C27.801,114.706 28.024,102.225 28.024,102.225 Z" id="path-19" class="cls-3" fill-rule="evenodd"/>
    <path d="M126.163,0.134 C127.325,0.831 128.420,1.662 129.411,2.653 C133.096,6.338 134.752,11.371 134.422,16.487 C134.138,21.647 131.859,26.882 127.719,31.024 C127.719,31.024 121.941,36.802 121.941,36.802 C121.941,36.802 126.709,41.567 126.709,41.567 C126.709,41.567 134.870,33.407 134.870,33.407 C139.010,29.266 141.289,24.032 141.573,18.871 C141.903,13.755 140.246,8.721 136.562,5.038 C133.714,2.189 130.055,0.574 126.163,0.134 Z" id="path-20" class="cls-22" fill-rule="evenodd"/>
    <path d="M98.528,16.209 C98.528,16.209 112.986,34.756 112.986,34.756 C115.562,38.059 115.276,42.763 112.322,45.731 C112.322,45.731 38.972,119.423 38.972,119.423 C38.972,119.423 38.180,129.860 38.180,129.860 C38.180,129.860 127.010,41.507 127.010,41.507 C127.010,41.507 100.299,14.796 100.299,14.796 C100.299,14.796 98.528,16.209 98.528,16.209 Z" id="path-21" class="cls-22" fill-rule="evenodd"/>
    <path d="M25.707,102.225 C25.707,102.225 26.737,114.351 26.737,114.351 C26.737,114.351 27.801,114.706 27.801,114.706 C27.801,114.706 28.024,102.225 28.024,102.225 C28.024,102.225 25.707,102.225 25.707,102.225 Z" id="path-22" class="cls-22" fill-rule="evenodd"/>
    <path d="M32.512,126.801 C32.512,126.801 12.055,132.237 12.055,132.237 C12.055,132.237 15.439,135.621 15.439,135.621 C15.439,135.621 38.180,129.860 38.180,129.860 C38.180,129.860 38.954,122.713 38.954,122.713 C38.954,122.713 38.958,113.168 38.958,113.168 C38.958,113.168 36.550,113.499 36.550,113.499 C36.550,113.499 32.512,126.801 32.512,126.801 Z" id="path-23" class="cls-22" fill-rule="evenodd"/>
    <path d="M40.235,89.677 C39.310,89.677 38.386,89.324 37.679,88.618 C36.268,87.207 36.268,84.919 37.679,83.507 C37.679,83.507 90.516,30.671 90.516,30.671 C91.928,29.259 94.215,29.259 95.627,30.671 C97.039,32.083 97.039,34.371 95.627,35.782 C95.627,35.782 42.791,88.618 42.791,88.618 C42.085,89.324 41.160,89.677 40.235,89.677 Z" id="path-24" class="cls-18" fill-rule="evenodd"/>
  </g>
</svg>
