<svg xmlns="http://www.w3.org/2000/svg" xmlns:xlink="http://www.w3.org/1999/xlink" preserveAspectRatio="xMidYMid" width="217" height="217" viewBox="0 0 217 217">
  <defs>
    <style>

      .cls-3 {
        fill: #142a3b;
      }

      .cls-4 {
        fill: #ff3a2f;
      }

      .cls-5 {
        fill: #010101;
        opacity: 0.35;
      }

      .cls-6 {
        fill: #0cb04a;
      }
    </style>
  </defs>
  <g id="group-77svg">
    <path d="M7.372,216.882 C7.372,216.882 0.013,209.523 0.013,209.523 C0.013,209.523 127.875,81.657 127.875,81.657 C127.875,81.657 135.234,89.017 135.234,89.017 C135.234,89.017 7.372,216.882 7.372,216.882 Z" id="path-1" class="cls-3" fill-rule="evenodd"/>
    <path d="M100.279,123.972 C100.279,123.972 92.921,116.613 92.921,116.613 C92.921,116.613 127.875,81.657 127.875,81.657 C127.875,81.657 135.234,89.017 135.234,89.017 C135.234,89.017 100.279,123.972 100.279,123.972 Z" id="path-2" class="cls-4" fill-rule="evenodd"/>
    <path d="M123.036,101.215 C123.036,101.215 121.254,88.280 121.254,88.280 C121.254,88.280 127.875,81.657 127.875,81.657 C127.875,81.657 135.234,89.017 135.234,89.017 C135.234,89.017 123.036,101.215 123.036,101.215 Z" id="path-3" class="cls-5" fill-rule="evenodd"/>
    <path d="M175.708,129.492 C175.708,129.492 87.401,41.182 87.401,41.182 C87.401,41.182 103.958,24.624 103.958,24.624 C103.958,24.624 192.266,112.934 192.266,112.934 C192.266,112.934 175.708,129.492 175.708,129.492 Z" id="path-4" class="cls-6" fill-rule="evenodd"/>
    <path d="M183.988,121.212 C183.988,121.212 98.468,30.115 98.468,30.115 C98.468,30.115 103.958,24.624 103.958,24.624 C103.958,24.624 192.266,112.934 192.266,112.934 C192.266,112.934 183.988,121.212 183.988,121.212 Z" id="path-5" class="cls-5" fill-rule="evenodd"/>
    <path d="M210.419,132.497 C210.419,132.497 84.397,6.471 84.397,6.471 C84.397,6.471 90.864,0.003 90.864,0.003 C90.864,0.003 216.887,126.028 216.887,126.028 C216.887,126.028 210.419,132.497 210.419,132.497 Z" id="path-6" class="cls-4" fill-rule="evenodd"/>
  </g>
</svg>
