<svg xmlns="http://www.w3.org/2000/svg" xmlns:xlink="http://www.w3.org/1999/xlink" preserveAspectRatio="xMidYMid" width="217" height="207" viewBox="0 0 217 207">
  <defs>
    <style>

      .cls-3 {
        fill: #ff3a2f;
      }

      .cls-4 {
        fill: #010101;
        opacity: 0.35;
      }

      .cls-14 {
        fill: #ffffff;
      }
    </style>
  </defs>
  <g id="group-156svg">
    <path d="M216.239,135.487 C215.339,133.160 213.598,131.330 211.339,130.331 C211.339,130.331 194.409,122.814 194.409,122.814 C191.858,121.685 188.799,121.798 186.338,123.108 C184.080,122.023 181.449,121.738 178.987,122.341 C178.987,122.341 159.329,127.254 159.329,127.254 C159.329,127.254 156.200,112.818 156.200,112.818 C156.797,112.759 157.412,112.638 158.117,112.445 C158.117,112.445 178.991,103.820 178.991,103.820 C179.806,103.614 180.750,103.358 181.689,103.044 C181.873,103.142 182.061,103.221 182.241,103.299 C182.241,103.299 182.702,103.494 182.702,103.494 C182.702,103.494 203.084,101.671 203.084,101.671 C204.001,102.361 204.785,103.914 205.380,105.101 C206.210,106.722 206.991,108.250 208.701,108.250 C210.442,108.250 211.193,106.557 211.512,105.828 C212.517,103.547 212.577,101.017 211.684,98.710 C210.792,96.395 209.043,94.563 206.772,93.550 C206.772,93.550 189.831,86.034 189.831,86.034 C187.272,84.927 184.237,85.028 181.772,86.330 C179.505,85.232 176.845,84.949 174.433,85.561 C174.433,85.561 152.471,91.043 152.471,91.043 C152.246,91.101 152.021,91.164 151.784,91.243 C151.784,91.243 157.491,87.205 157.491,87.205 C158.842,86.248 159.926,84.949 160.636,83.458 C162.902,81.946 164.463,79.664 165.045,77.018 C165.045,77.018 167.029,68.069 167.029,68.069 C176.026,50.598 176.759,35.431 169.201,23.001 C160.628,8.887 143.173,2.819 138.797,2.819 C136.707,2.819 136.276,4.219 136.194,4.646 C135.789,6.740 138.204,7.701 139.976,8.410 C144.171,10.096 147.018,12.665 148.444,16.043 C150.992,22.145 148.201,29.195 148.201,29.195 C147.301,30.762 146.520,30.762 146.261,30.762 C143.450,30.762 138.782,24.892 136.363,20.719 C136.363,20.719 134.587,17.672 134.587,17.672 C134.587,17.672 132.843,20.729 132.843,20.729 C129.248,27.026 128.433,33.547 130.415,40.107 C133.586,50.594 142.941,58.159 147.252,61.183 C146.944,61.859 146.707,62.553 146.553,63.266 C146.553,63.266 144.505,72.488 144.505,72.488 C144.478,72.612 144.460,72.733 144.440,72.861 C144.440,72.861 136.667,78.376 136.667,78.376 C136.611,78.418 136.554,79.897 136.498,79.939 C135.151,79.676 133.874,80.990 132.603,80.990 C132.603,80.990 85.854,80.990 85.854,80.990 C85.321,80.990 84.791,79.572 84.251,79.623 C83.583,78.580 82.751,76.984 81.761,76.292 C81.761,76.292 73.963,70.403 73.963,70.403 C73.948,70.283 73.921,69.971 73.899,69.832 C73.899,69.832 71.847,60.531 71.847,60.531 C71.689,59.813 71.452,59.071 71.149,58.403 C76.477,54.610 97.107,38.103 85.557,17.924 C85.557,17.924 83.820,14.854 83.820,14.854 C83.820,14.854 82.046,17.895 82.046,17.895 C79.622,22.064 74.942,27.937 72.132,27.937 C71.873,27.937 71.104,27.934 70.312,26.595 C70.016,25.845 67.505,19.101 69.959,13.221 C71.381,9.833 74.234,7.262 78.425,5.577 C80.188,4.876 82.604,3.908 82.207,1.814 C82.120,1.386 81.685,-0.009 79.598,-0.009 C75.227,-0.009 57.783,6.061 49.202,20.170 C41.638,32.610 42.369,47.772 51.382,65.239 C51.382,65.239 53.356,74.193 53.356,74.193 C53.948,76.834 55.517,79.116 57.767,80.628 C58.466,82.117 59.551,83.412 60.917,84.387 C60.917,84.387 67.779,89.251 67.779,89.251 C67.723,89.370 67.660,89.490 67.603,89.610 C66.619,88.972 65.532,88.493 64.349,88.193 C64.349,88.193 42.395,82.730 42.395,82.730 C39.972,82.117 37.330,82.392 35.044,83.476 C32.576,82.170 29.507,82.077 26.971,83.194 C26.971,83.194 10.060,90.698 10.060,90.698 C7.800,91.697 6.070,93.513 5.189,95.816 C4.269,98.189 4.356,100.815 5.417,103.201 C6.052,104.661 6.959,105.397 8.126,105.397 C9.846,105.397 10.618,103.881 11.463,102.214 C12.036,101.063 12.820,99.506 13.747,98.816 C13.747,98.816 33.993,100.639 33.993,100.639 C33.993,100.639 34.148,100.649 34.148,100.649 C34.148,100.649 34.629,100.433 34.629,100.433 C34.797,100.358 34.966,100.279 35.124,100.189 C35.923,100.466 36.782,100.714 37.563,100.879 C37.563,100.879 58.988,109.693 58.988,109.693 C60.098,109.979 61.269,110.073 62.474,109.968 C62.474,109.968 58.815,124.729 58.815,124.729 C58.815,124.729 37.833,119.509 37.833,119.509 C35.401,118.882 32.752,119.167 30.475,120.249 C27.998,118.961 24.939,118.859 22.415,119.960 C22.415,119.960 5.492,127.483 5.492,127.483 C3.203,128.496 1.466,130.342 0.592,132.680 C-0.290,135.036 -0.192,137.629 0.847,139.993 C1.482,141.454 2.389,142.188 3.553,142.188 C5.286,142.188 6.063,140.639 6.888,138.991 C7.432,137.910 8.239,136.301 9.181,135.595 C9.181,135.595 29.447,137.419 29.447,137.419 C29.447,137.419 29.600,137.432 29.600,137.432 C29.600,137.432 30.092,137.205 30.092,137.205 C30.250,137.131 30.404,137.051 30.565,136.969 C31.593,137.322 32.569,137.565 33.000,137.659 C33.000,137.659 54.406,146.469 54.406,146.469 C54.991,146.616 55.604,146.705 56.248,146.746 C57.202,149.118 58.673,151.925 60.549,154.908 C60.549,154.908 47.690,162.635 47.690,162.635 C45.491,163.967 43.886,165.949 43.037,168.365 C40.339,169.212 38.144,171.250 37.123,173.872 C37.123,173.872 30.482,191.145 30.482,191.145 C29.574,193.466 29.638,195.992 30.640,198.263 C31.664,200.578 33.533,202.312 36.047,203.283 C36.606,203.492 37.139,203.602 37.634,203.602 C38.939,203.602 39.589,202.848 39.753,202.620 C40.636,201.404 40.183,200.038 39.604,198.308 C39.221,197.149 38.651,195.434 38.827,194.277 C38.827,194.277 54.451,181.223 54.451,181.223 C54.451,181.223 54.571,181.123 54.571,181.123 C54.571,181.123 54.760,180.597 54.760,180.597 C54.812,180.442 54.861,180.281 54.908,180.127 C55.656,179.764 56.414,179.339 57.123,178.905 C57.123,178.905 74.110,170.125 74.110,170.125 C80.590,176.477 86.076,177.987 90.427,177.987 C90.427,177.987 131.079,177.987 131.079,177.987 C134.677,177.987 138.700,177.482 143.045,173.118 C143.045,173.118 159.412,180.777 159.412,180.777 C160.361,181.343 161.161,182.214 161.889,182.566 C161.941,182.736 161.994,183.122 162.061,183.295 C162.061,183.295 162.197,183.754 162.197,183.754 C162.197,183.754 177.967,197.076 177.967,197.076 C178.144,198.243 177.576,199.985 177.187,201.140 C176.624,202.870 176.173,204.249 177.048,205.457 C177.321,205.844 177.960,206.480 179.119,206.480 C179.637,206.480 180.173,206.361 180.991,206.049 C185.782,204.184 188.173,198.779 186.320,194.002 C186.320,194.002 179.678,176.731 179.678,176.731 C178.661,174.112 176.470,172.072 173.765,171.220 C172.928,168.814 171.288,166.792 169.115,165.487 C169.115,165.487 155.525,157.324 155.525,157.324 C156.992,154.619 158.245,152.037 159.258,149.622 C160.361,149.681 161.385,149.587 162.666,149.239 C162.666,149.239 183.550,140.616 183.550,140.616 C184.416,140.391 185.347,140.140 186.245,139.828 C186.402,139.910 186.563,139.993 186.729,140.065 C186.729,140.065 187.208,140.283 187.208,140.283 C187.208,140.283 207.621,138.455 207.621,138.455 C208.567,139.148 209.377,140.762 209.925,141.851 C210.747,143.489 211.523,145.029 213.249,145.029 C215.001,145.029 215.737,143.344 216.055,142.616 C217.073,140.338 217.132,137.806 216.239,135.487 Z" id="path-1" class="cls-3" fill-rule="evenodd"/>
    <path d="M138.716,26.990 C138.924,26.990 139.477,26.947 140.154,26.125 C138.704,24.376 137.346,22.414 136.363,20.719 C136.363,20.719 134.587,17.672 134.587,17.672 C134.587,17.672 132.843,20.729 132.843,20.729 C132.619,21.122 132.439,21.518 132.236,21.912 C134.451,24.670 136.949,26.990 138.716,26.990 Z" id="path-2" class="cls-4" fill-rule="evenodd"/>
    <path d="M161.656,19.226 C169.213,31.659 168.482,46.825 159.484,64.296 C159.484,64.296 157.499,73.245 157.499,73.245 C156.917,75.891 155.356,78.172 153.090,79.684 C152.381,81.178 151.297,82.477 149.946,83.433 C149.946,83.433 144.239,87.470 144.239,87.470 C144.476,87.390 144.700,87.327 144.926,87.271 C144.926,87.271 160.826,83.302 160.826,83.302 C162.980,81.791 164.480,79.583 165.045,77.018 C165.045,77.018 167.029,68.069 167.029,68.069 C176.026,50.598 176.759,35.431 169.201,23.001 C163.504,13.621 153.900,7.815 146.802,4.961 C152.221,8.231 157.824,12.921 161.656,19.226 Z" id="path-3" class="cls-4" fill-rule="evenodd"/>
    <path d="M51.442,105.920 C51.442,105.920 30.017,97.107 30.017,97.107 C29.236,96.941 28.378,96.693 27.578,96.415 C27.421,96.505 27.252,96.584 27.083,96.659 C27.083,96.659 26.603,96.877 26.603,96.877 C26.603,96.877 26.449,96.865 26.449,96.865 C26.449,96.865 6.202,95.041 6.202,95.041 C5.773,95.363 5.378,95.876 5.016,96.442 C4.333,98.645 4.446,101.020 5.417,103.201 C6.052,104.661 6.959,105.397 8.126,105.397 C9.846,105.397 10.618,103.881 11.463,102.214 C12.036,101.063 12.820,99.504 13.747,98.815 C13.747,98.815 33.993,100.639 33.993,100.639 C33.993,100.639 34.148,100.649 34.148,100.649 C34.148,100.649 34.629,100.433 34.629,100.433 C34.797,100.358 34.966,100.279 35.124,100.189 C35.923,100.466 36.782,100.714 37.563,100.879 C37.563,100.879 54.517,107.853 54.517,107.853 C54.517,107.853 54.928,106.194 54.928,106.194 C53.724,106.300 52.553,106.205 51.442,105.920 Z" id="path-4" class="cls-4" fill-rule="evenodd"/>
    <path d="M148.655,109.046 C148.655,109.046 151.784,123.481 151.784,123.481 C151.784,123.481 158.166,121.886 158.166,121.886 C158.166,121.886 156.200,112.818 156.200,112.818 C156.797,112.759 157.412,112.638 158.117,112.445 C158.117,112.445 178.991,103.821 178.991,103.821 C179.806,103.614 180.750,103.358 181.689,103.044 C181.873,103.142 182.061,103.221 182.241,103.299 C182.241,103.299 182.702,103.494 182.702,103.494 C182.702,103.494 198.250,102.104 198.250,102.104 C198.111,101.846 197.972,101.595 197.836,101.327 C197.238,100.141 196.455,98.589 195.539,97.898 C195.539,97.898 175.158,99.722 175.158,99.722 C175.158,99.722 174.695,99.526 174.695,99.526 C174.515,99.448 174.327,99.368 174.144,99.270 C173.206,99.586 172.260,99.842 171.446,100.048 C171.446,100.048 150.573,108.671 150.573,108.671 C149.867,108.866 149.252,108.987 148.655,109.046 Z" id="path-5" class="cls-4" fill-rule="evenodd"/>
    <path d="M80.533,20.264 C85.404,37.606 68.383,51.270 63.603,54.672 C63.908,55.340 64.144,56.127 64.301,56.843 C64.301,56.843 66.354,66.230 66.354,66.230 C66.375,66.370 66.402,66.850 66.417,66.971 C66.417,66.971 74.215,73.200 74.215,73.200 C75.205,73.895 76.038,76.173 76.706,77.217 C77.247,77.164 77.775,79.950 78.308,79.950 C78.308,79.950 83.684,79.950 83.684,79.950 C83.129,78.846 82.488,77.483 81.761,76.974 C81.761,76.974 73.963,70.744 73.963,70.744 C73.948,70.624 73.921,70.142 73.899,70.003 C73.899,70.003 71.846,60.615 71.846,60.615 C71.689,59.899 71.452,59.112 71.149,58.445 C76.477,54.652 97.107,38.124 85.557,17.945 C85.557,17.945 83.820,14.864 83.820,14.864 C83.820,14.864 82.046,17.901 82.046,17.901 C81.611,18.647 81.089,19.452 80.533,20.264 Z" id="path-6" class="cls-4" fill-rule="evenodd"/>
    <path d="M162.666,149.239 C162.666,149.239 183.550,140.616 183.550,140.616 C184.416,140.391 185.347,140.140 186.245,139.828 C186.402,139.910 186.563,139.993 186.729,140.065 C186.729,140.065 187.208,140.283 187.208,140.283 C187.208,140.283 202.803,138.886 202.803,138.886 C202.662,138.620 202.519,138.357 202.379,138.079 C201.832,136.991 201.021,135.376 200.076,134.682 C200.076,134.682 179.663,136.509 179.663,136.509 C179.663,136.509 179.184,136.291 179.184,136.291 C179.018,136.219 178.856,136.138 178.699,136.055 C177.802,136.367 176.872,136.618 176.005,136.844 C176.005,136.844 155.119,145.466 155.119,145.466 C153.840,145.814 152.816,145.908 151.713,145.848 C150.700,148.265 149.447,150.847 147.980,153.552 C147.980,153.552 161.570,161.714 161.570,161.714 C163.743,163.020 165.382,165.042 166.219,167.447 C168.924,168.299 171.116,170.340 172.132,172.959 C172.132,172.959 178.774,190.231 178.774,190.231 C179.892,193.112 179.445,196.209 177.881,198.633 C177.723,199.518 177.430,200.449 177.187,201.171 C176.624,202.900 176.173,204.264 177.048,205.472 C177.321,205.858 177.960,206.488 179.119,206.488 C179.637,206.488 180.173,206.363 180.991,206.053 C185.782,204.187 188.173,198.782 186.319,194.005 C186.319,194.005 179.678,176.731 179.678,176.731 C178.661,174.113 176.470,172.072 173.765,171.220 C172.928,168.814 171.288,166.792 169.115,165.487 C169.115,165.487 155.525,157.324 155.525,157.324 C156.992,154.619 158.245,152.038 159.258,149.622 C160.361,149.681 161.385,149.587 162.666,149.239 Z" id="path-7" class="cls-4" fill-rule="evenodd"/>
    <path d="M153.085,176.278 C152.358,175.925 134.242,168.266 134.242,168.266 C129.897,172.630 125.875,175.046 122.276,175.046 C122.276,175.046 81.625,175.046 81.625,175.046 C80.951,175.046 80.240,174.936 79.513,174.773 C83.165,177.420 86.400,178.820 89.170,178.820 C89.170,178.820 129.822,178.820 129.822,178.820 C133.421,178.820 138.700,177.950 143.045,173.586 C143.045,173.586 152.247,177.760 152.247,177.760 C152.188,177.605 153.134,176.433 153.085,176.278 Z" id="path-8" class="cls-4" fill-rule="evenodd"/>
    <path d="M62.414,9.450 C59.960,15.329 62.470,22.075 62.767,22.824 C63.558,24.165 64.328,24.167 64.587,24.167 C65.830,24.167 67.440,22.987 69.058,21.345 C68.765,18.914 68.808,15.983 69.959,13.221 C71.381,9.835 74.234,7.262 78.425,5.578 C80.188,4.876 82.604,3.908 82.207,1.814 C82.120,1.386 81.685,-0.009 79.598,-0.009 C77.364,-0.009 71.712,1.588 65.577,5.024 C64.180,6.293 63.119,7.769 62.414,9.450 Z" id="path-9" class="cls-4" fill-rule="evenodd"/>
    <path d="M66.564,168.266 C66.564,168.266 49.578,175.131 49.578,175.131 C48.869,175.566 48.111,175.991 47.364,176.355 C47.315,176.508 47.266,176.670 47.214,176.823 C47.214,176.823 47.026,177.348 47.026,177.348 C47.026,177.348 46.906,177.450 46.906,177.450 C46.906,177.450 31.282,190.505 31.282,190.505 C31.105,191.660 31.676,193.375 32.058,194.536 C32.636,196.265 33.090,197.631 32.209,198.847 C32.111,198.980 31.822,199.285 31.356,199.523 C32.440,201.202 34.020,202.500 36.047,203.283 C36.606,203.492 37.139,203.602 37.634,203.602 C38.939,203.602 39.589,202.848 39.753,202.620 C40.636,201.404 40.183,200.037 39.604,198.308 C39.221,197.149 38.651,195.434 38.827,194.277 C38.827,194.277 54.451,181.223 54.451,181.223 C54.451,181.223 54.571,181.122 54.571,181.122 C54.571,181.122 54.759,180.596 54.759,180.596 C54.812,180.442 54.861,180.281 54.910,180.127 C55.656,179.764 56.414,179.339 57.123,178.905 C57.123,178.905 74.110,170.592 74.110,170.592 C72.425,169.268 68.413,170.080 66.564,168.266 Z" id="path-10" class="cls-4" fill-rule="evenodd"/>
    <path d="M29.600,137.432 C29.600,137.432 30.092,137.205 30.092,137.205 C30.250,137.130 30.404,137.051 30.564,136.969 C31.593,137.322 32.569,137.565 33.000,137.659 C33.000,137.659 49.369,144.396 49.369,144.396 C49.159,143.930 48.879,143.413 48.704,142.975 C48.057,142.934 47.446,142.843 46.861,142.697 C46.861,142.697 25.455,133.886 25.455,133.886 C25.023,133.793 24.048,133.549 23.020,133.195 C22.857,133.279 22.704,133.358 22.547,133.432 C22.547,133.432 22.055,133.657 22.055,133.657 C22.055,133.657 21.902,133.647 21.902,133.647 C21.902,133.647 1.635,131.822 1.635,131.822 C1.206,132.145 0.809,132.664 0.448,133.226 C-0.231,135.435 -0.114,137.807 0.847,139.993 C1.482,141.454 2.389,142.188 3.552,142.188 C5.286,142.188 6.063,140.639 6.888,138.991 C7.432,137.910 8.239,136.301 9.181,135.595 C9.181,135.595 29.447,137.419 29.447,137.419 C29.447,137.419 29.600,137.432 29.600,137.432 Z" id="path-11" class="cls-4" fill-rule="evenodd"/>
    <circle id="circle-1" class="cls-14" cx="90" cy="96" r="5"/>
    <circle id="circle-2" class="cls-14" cx="89" cy="155" r="12"/>
    <circle id="circle-3" class="cls-14" cx="78" cy="136" r="7"/>
    <circle id="circle-4" class="cls-14" cx="130" cy="96" r="5"/>
    <path d="M216.239,135.487 C215.339,133.160 213.598,131.330 211.339,130.330 C211.339,130.330 205.935,127.932 205.935,127.932 C207.141,128.932 208.110,130.203 208.695,131.714 C209.587,134.033 209.527,136.566 208.511,138.842 C208.470,138.935 208.401,139.070 208.347,139.186 C208.979,139.979 209.524,141.054 209.925,141.851 C210.747,143.489 211.523,145.029 213.249,145.029 C215.001,145.029 215.737,143.344 216.055,142.616 C217.073,140.338 217.132,137.806 216.239,135.487 Z" id="path-12" class="cls-4" fill-rule="evenodd"/>
    <path d="M204.139,94.937 C205.033,97.246 204.972,99.773 203.966,102.056 C203.925,102.149 203.855,102.287 203.798,102.406 C204.410,103.185 204.947,104.236 205.380,105.101 C206.210,106.722 206.991,108.250 208.701,108.250 C210.442,108.250 211.193,106.557 211.512,105.828 C212.517,103.547 212.577,101.017 211.684,98.710 C210.792,96.395 209.042,94.563 206.772,93.550 C206.772,93.550 201.369,91.154 201.369,91.154 C202.584,92.159 203.558,93.430 204.139,94.937 Z" id="path-13" class="cls-4" fill-rule="evenodd"/>
  </g>
</svg>
