<svg xmlns="http://www.w3.org/2000/svg" xmlns:xlink="http://www.w3.org/1999/xlink" preserveAspectRatio="xMidYMid" width="168" height="218" viewBox="0 0 168 218">
  <defs>
    <style>

      .cls-3 {
        fill: #ff3a2f;
      }

      .cls-4 {
        fill: #020403;
        opacity: 0.35;
      }

      .cls-5 {
        fill: #2476ff;
      }

      .cls-7 {
        fill: #ffffff;
      }
    </style>
  </defs>
  <g id="group-73svg">
    <path d="M112.061,191.525 C112.214,191.525 112.376,191.515 112.529,191.498 C130.611,189.695 145.210,181.893 154.734,168.943 C166.133,153.441 169.568,131.121 164.402,106.096 C158.566,77.696 137.636,46.368 117.398,16.067 C114.215,11.286 111.060,6.561 108.011,1.917 C106.298,-0.689 101.988,-0.671 100.292,1.917 C97.180,6.670 93.952,11.494 90.697,16.373 C84.195,26.113 77.539,36.077 71.353,46.043 C71.353,46.043 112.061,191.525 112.061,191.525 Z" id="path-1" class="cls-3" fill-rule="evenodd"/>
    <path d="M91.607,37.032 C89.126,33.312 86.703,29.660 84.297,26.016 C79.897,32.654 75.518,39.335 71.353,46.043 C71.353,46.043 112.061,191.525 112.061,191.525 C112.214,191.525 112.376,191.515 112.529,191.498 C119.080,190.845 125.157,189.381 130.718,187.192 C140.646,171.835 143.507,150.793 138.620,127.069 C132.766,98.688 111.844,67.342 91.607,37.032 Z" id="path-2" class="cls-4" fill-rule="evenodd"/>
    <path d="M62.597,216.848 C41.694,216.848 24.775,209.634 13.656,195.988 C0.941,180.378 -3.082,157.310 2.347,131.023 C8.182,102.641 29.095,71.321 49.322,41.029 C52.523,36.241 55.680,31.497 58.738,26.843 C60.433,24.246 64.760,24.246 66.456,26.843 C69.496,31.488 72.652,36.203 75.835,40.974 C96.071,71.285 116.994,102.632 122.846,131.013 C128.266,157.319 124.243,180.396 111.520,195.998 C100.409,209.643 83.491,216.848 62.597,216.848 Z" id="path-3" class="cls-5" fill-rule="evenodd"/>
    <path d="M122.847,131.013 C116.994,102.632 96.071,71.285 75.835,40.975 C72.652,36.203 69.496,31.488 66.456,26.843 C64.760,24.246 60.433,24.246 58.738,26.843 C56.999,29.487 55.178,32.209 53.388,34.904 C73.240,64.648 93.450,95.311 99.187,123.126 C104.607,149.433 100.585,172.510 87.861,188.112 C76.750,201.756 59.832,208.961 38.937,208.961 C35.086,208.961 31.419,208.634 27.851,208.149 C37.491,213.857 49.214,216.848 62.596,216.848 C83.491,216.848 100.409,209.643 111.520,195.998 C124.243,180.396 128.266,157.319 122.847,131.013 Z" id="path-4" class="cls-4" fill-rule="evenodd"/>
    <path d="M36.571,187.370 C33.523,187.370 30.682,186.013 28.772,183.650 C19.847,172.695 17.244,155.396 21.458,134.959 C22.064,132.027 24.923,130.131 27.862,130.745 C30.796,131.349 32.683,134.218 32.080,137.149 C28.574,154.145 30.312,168.113 36.970,176.540 C39.777,176.744 41.992,179.088 41.992,181.948 C41.992,184.942 39.566,187.370 36.571,187.370 Z" id="path-5" class="cls-7" fill-rule="evenodd"/>
  </g>
</svg>
