<?xml version="1.0" encoding="utf-8"?>
<!-- Generator: Adobe Illustrator 15.0.0, SVG Export Plug-In . SVG Version: 6.00 Build 0)  -->
<!DOCTYPE svg PUBLIC "-//W3C//DTD SVG 1.1//EN" "http://www.w3.org/Graphics/SVG/1.1/DTD/svg11.dtd">
<svg version="1.1" id="Layer_1" xmlns="http://www.w3.org/2000/svg" xmlns:xlink="http://www.w3.org/1999/xlink" x="0px" y="0px"
	 width="124.768px" height="89.843px" viewBox="0 0 124.768 89.843" enable-background="new 0 0 124.768 89.843"
	 xml:space="preserve">
<g>
	<g>
		<path fill="#83BD41" d="M64.939,69.964c18.048,0,20.997-12.79,20.997-23.147c0-10.352-3.813-11.871-7.07-15.022
			c-2.579-2.5-23.349-3.346-27.532-0.08c0,0-7.893,2.923-7.357,14.497C44.503,57.781,45.5,69.964,64.939,69.964z"/>
	</g>
	<path fill="#73B544" d="M85.936,46.816c0-10.352-3.813-11.871-7.07-15.022c-2.579-2.5-23.349-3.346-27.532-0.08
		c0,0-7.893,2.923-7.357,14.497c0.527,11.57,1.523,23.752,20.963,23.752C82.987,69.964,85.936,57.174,85.936,46.816z M51.026,50.215
		c0.054-3.908-0.729-9.407,2.658-12.635c4.929-4.701,14.146-3.349,18.71,0.768c4.44,4.003,6.084,9.933,5.514,15.066
		c-0.433,3.905-1.754,8.233-5.983,10.778C58.234,72.43,50.908,58.818,51.026,50.215z"/>
	<g>
		<path fill="#98C93E" d="M39.985,68.137c-6.23-0.433-12.862,0.116-19.063,0.541c-4.548,0.314-10.67,1.092-15.099,0.266
			c-1.549-0.29-2.827-1.383-4.446-0.607c-1.851,0.889-1.768,3.027-0.162,3.969c1.96,1.148,5.382,0.064,7.493-0.07
			c4.263-0.277,9.324,4.607,4.136,6.07c-2.107,0.593-9.466,0.089-7.226,3.332c1.947,2.821,7.175,0.335,9.672-0.584
			c3.923-1.441,7.569-1.099,11.402,0.686c5.016,2.332-0.027,3.612-0.396,6.038c-0.239,1.6,0.933,1.881,2.662,2.028
			c2.401,0.207,3.086-0.424,3.842-1.951c0.903-1.834,0.892-2.547,2.725-4.101c4.095-3.472,7.684-7.508,13.048-9.931
			c6.302-2.846,3.487-13.446-3.827-21.93c-0.186-0.216-0.797-6.633-0.797-6.633c-4.274-6.44-13.268-6.761-15.706-5.344
			c-8.713,5.064-5.538,11.371,13.602,26.802C41.845,66.717,42.91,68.339,39.985,68.137z"/>
	</g>
	<g>
		<path fill="#86C240" d="M44.747,51.893c-0.186-0.216-0.797-6.633-0.797-6.633c-0.263-0.397-0.55-0.77-0.848-1.123
			c-0.146,1.054-0.277,2.105-0.353,3.17c-0.302,4.493,1.143,7.653,3.671,11.596c3.504,5.467,2.639,10.102-3.816,13.988
			c-5.105,3.068-13.338,5.83-19.898,4.408c-5.012-1.086-6.896-4.878-5.861-8.299c-3.734,0.299-7.818,0.539-11.021-0.057
			c-1.549-0.29-2.827-1.383-4.446-0.607c-1.851,0.889-1.768,3.027-0.162,3.969c1.96,1.148,5.382,0.064,7.493-0.07
			c4.263-0.277,9.324,4.607,4.136,6.07c-2.107,0.593-9.466,0.089-7.226,3.332c1.947,2.821,7.175,0.335,9.672-0.584
			c3.923-1.441,7.569-1.099,11.402,0.686c5.016,2.332-0.027,3.612-0.396,6.038c-0.239,1.6,0.933,1.881,2.662,2.028
			c2.401,0.207,3.086-0.424,3.842-1.951c0.903-1.834,0.892-2.547,2.725-4.101c4.095-3.472,7.684-7.508,13.048-9.931
			C54.875,70.977,52.061,60.376,44.747,51.893z"/>
	</g>
	<g>
		<path fill="#5B8A3D" d="M28.895,82.039c-0.591-2.406-3.265-3.524-6.316-3.533c-2.506-0.01-5.211,1.077-7.59,1.608
			c-2.84,0.638-7.257,1.364-9.755,0.2c-0.086,0.354,0.017,0.787,0.385,1.322c1.947,2.821,7.175,0.335,9.672-0.584
			c3.923-1.441,7.569-1.099,11.402,0.686c0.935,0.436,1.515,0.831,1.848,1.205c0.062-0.072,0.13-0.139,0.186-0.21
			c0.085-0.109,0.169-0.224,0.253-0.335C28.953,82.28,28.925,82.164,28.895,82.039z"/>
		<path fill="#5B8A3D" d="M3.87,70.916c-1.839-0.094-3.004-0.596-3.714-1.349c-0.396,0.964-0.006,2.113,1.06,2.737
			c1.96,1.148,5.382,0.064,7.493-0.07c2.229-0.145,4.664,1.121,5.748,2.568C13.821,70.862,8.613,71.149,3.87,70.916z"/>
		<path fill="#5B8A3D" d="M46.29,53.808c1.323,4.128,3.886,8.08,3.504,12.456c-0.509,5.875-7.708,8.171-12.344,11.963
			c-3.049,2.494-3.976,6.144-7.199,8.592c-1.327,1.012-2.728,1.381-3.957,1.198c-0.086,1.376,1.033,1.649,2.666,1.788
			c2.401,0.207,3.086-0.424,3.842-1.951c0.903-1.834,0.892-2.547,2.725-4.101c4.095-3.472,7.684-7.508,13.048-9.931
			C54.406,71.188,52.423,61.901,46.29,53.808z"/>
	</g>
	<g>
		<path fill="#70AE43" d="M30.603,45.266c3.47,0.713,6.523,2.271,9.525,3.742c1.519,0.746,3.169,1.578,4.541,2.578
			c-0.239-1.308-0.72-6.327-0.72-6.327c-4.274-6.44-13.268-6.761-15.706-5.344c-2.938,1.708-4.521,3.561-4.596,5.852
			C25.684,44.783,28.261,44.783,30.603,45.266z"/>
	</g>
	<g>
		<path fill="#98C93E" d="M102.684,39.915c-2.435-1.417-12.48-1.149-16.748,5.289c0,0-0.181,7.202-0.367,7.419
			c-7.315,8.479-9.515,18.354-3.221,21.199c5.753,2.596,10.524,7.119,14.154,11.318c1.454,1.684,3.298,4.125,6.28,2.324
			c3.107-1.872-0.572-2.704,0.284-4.41c0.769-1.528,6.72-3.211,8.707-3.574c4.001-0.736,4.162,1.644,7.437,1.961
			c1.907,0.184,3.641-0.359,3.351-2.035c-0.432-2.459-5.371-0.938-6.479-3.501c-0.897-2.094,1.679-3.735,4.064-3.976
			c1.679-0.171,5.255,0.873,4.525-2.025c-0.604-2.377-3.618-1.404-5.578-0.955c-4.415,1.014-7.622-0.115-11.896-0.443
			c-5.353-0.412-10.886-0.742-16.252-0.369c-2.929,0.202-1.865-1.42-1.865-1.42C108.222,51.286,111.399,44.979,102.684,39.915z"/>
	</g>
	<g>
		<path fill="#86C240" d="M120.146,71.93c1.679-0.171,5.255,0.873,4.525-2.025c-0.604-2.377-3.618-1.404-5.578-0.955
			c-1.815,0.418-3.433,0.469-5.006,0.364c-0.531,5.379-6.456,9.679-13.938,8.725c-3.431-0.437-6.576-1.788-9.154-3.653
			c-4.931-2.1-8.261-5.767-7.962-10.371c0.217-3.303,2.054-6.386,2.164-9.688c0.014-0.419,0.005-0.829-0.025-1.231
			c-6.994,8.373-8.999,17.938-2.823,20.729c5.753,2.596,10.524,7.119,14.154,11.318c1.454,1.684,3.298,4.125,6.28,2.324
			c3.107-1.872-0.572-2.704,0.284-4.41c0.769-1.528,6.72-3.211,8.707-3.574c4.001-0.736,4.162,1.644,7.437,1.961
			c1.907,0.184,3.641-0.359,3.351-2.035c-0.432-2.459-5.371-0.938-6.479-3.501C115.184,73.812,117.76,72.17,120.146,71.93z"/>
	</g>
	<g>
		<path fill="#5B8A3D" d="M100.039,85.877c-1.944-1.836-2.942-4.104-3.994-6.307c-1.108-1.145-2.394-2.197-4.096-3.053
			C86.407,73.73,79.5,70.982,79.778,65.119c0.117-2.601,1.136-5.082,2.188-7.55c-4.24,7.045-4.709,13.952,0.383,16.253
			c5.753,2.596,10.524,7.119,14.154,11.318c1.454,1.684,3.298,4.125,6.28,2.324c0.014-0.008,0.027-0.02,0.042-0.027
			C101.84,87.184,100.894,86.684,100.039,85.877z"/>
		<path fill="#5B8A3D" d="M123.906,68.75c-1.036,0.758-2.477,1.148-3.998,1.461c-2.823,0.584-3.688,1.904-3.706,3.833
			c0.657-1.144,2.332-1.954,3.944-2.114c1.679-0.171,5.255,0.873,4.525-2.025C124.533,69.355,124.258,68.99,123.906,68.75z"/>
		<path fill="#5B8A3D" d="M122.042,79.602c-2.138-0.498-4.113-1.34-6.235-1.859c-3.823-0.943-9.2,1.266-11.029,3.781
			c-0.295,0.414-0.714,0.65-1.168,0.76c0.031,0.033,0.067,0.068,0.098,0.104c1.773-1.321,6.368-2.596,8.066-2.906
			c4.001-0.736,4.162,1.644,7.437,1.961c1.787,0.172,3.42-0.291,3.378-1.728C122.404,79.677,122.217,79.639,122.042,79.602z"/>
	</g>
	<g>
		<path fill="#70AE43" d="M93.938,42.951c1.435-1.435,3.034-2.666,4.772-3.732c-4.052,0.018-9.808,1.51-12.774,5.985
			c0,0-0.128,5.027-0.276,6.806c0.046-0.033,0.092-0.061,0.138-0.091C87.823,48.631,91.328,45.565,93.938,42.951z"/>
	</g>
	<g opacity="0.47">
		<ellipse fill="#98C93E" cx="65.304" cy="52.049" rx="9.746" ry="7.812"/>
	</g>
	<g>
		<path fill="#98C93E" d="M59.927,48.006c-1.334,2.031,8.237,6.091,18.859,4.771c10.622-1.32,12.772-9.036,10.912-13.908
			c-1.864-4.872-6.91-7.51-6.91-7.51s-2.657-1.926-4.796-0.097c-1.736,1.479,3.023,4.563,4.03,5.665
			c1.297,1.408,2.026,2.902,1.981,4.646c-0.092,3.47-3.36,6.185-8.045,4.923c-2.563-0.695-2.248-2.274-2.768-4.027
			c-0.346-1.165-1.823-3.085-3.229-1.065c-0.395,0.555,0.127,1.63-0.487,2.121c-1.849,1.475-3.292-1.486-4.427-2.156
			c-2.618-1.544-4.229,0.489-3.073,2.374c0.612,1.001,3.501,2.197,2.481,3.484C63.343,48.635,61.085,46.233,59.927,48.006z"/>
	</g>
	<g>
		<path fill="#ADD149" d="M66.022,49.703c0.401-1.982,3.272-5.205,6.397-3.489c2.621,1.438,5.244,2.663,8.619,1.61
			c2.789-0.869,3.572-2.678,4.226-4.737c0.017-0.052,0.044-0.091,0.064-0.139c0.084-1.81-0.453-3.648-1.887-5.628
			c-1.606-2.211-4.608-3.696-5.343-6.137c-0.037,0.028-0.071,0.048-0.106,0.079c-1.736,1.479,3.023,4.563,4.03,5.665
			c1.297,1.408,2.026,2.902,1.981,4.646c-0.092,3.47-3.36,6.185-8.045,4.923c-2.563-0.695-2.248-2.274-2.768-4.027
			c-0.346-1.165-1.823-3.085-3.229-1.065c-0.395,0.555,0.127,1.63-0.487,2.121c-1.849,1.475-3.292-1.486-4.427-2.156
			c-2.618-1.544-4.229,0.489-3.073,2.374c0.612,1.001,3.501,2.197,2.481,3.484c-1.114,1.409-3.372-0.993-4.53,0.78
			c-0.761,1.153,2.006,2.961,6.478,4.065C65.988,51.447,65.827,50.649,66.022,49.703z"/>
	</g>
	<g>
		<path fill="#5B8A3D" d="M89.699,38.87c-1.864-4.872-6.91-7.51-6.91-7.51s-2.657-1.926-4.796-0.097
			c-0.778,0.663-0.249,1.646,0.657,2.633c9.695-3.688,12.48,12.022,4.588,15.147c-5.625,2.229-12.8,2.331-18.652,0.615
			c-1.438-0.422-3.168-1.057-4.378-1.978c-0.098,0.09-0.196,0.192-0.28,0.325c-1.334,2.031,8.237,6.091,18.859,4.771
			C89.409,51.457,91.559,43.742,89.699,38.87z"/>
	</g>
	<g>
		<path fill="#98C93E" d="M27.966,22.2c-1.181-2.187-13.942,6.292-5.19,16.234c6.265,7.107,16.58,5.629,21.929,2.265
			c5.343-3.361,6.575-8.139,6.575-8.139s1.009-1.319-2.163-2.129c-3.163-0.813-4.42,5.436-8.85,7.609
			c-4.427,2.175-12.062-2.053-11.378-4.557c0.919-3.384,5.64-3.579,4.679-5.613c-0.456-0.982-2.528-0.795-3.773-0.585
			c-0.539,0.15-0.962,0.198-0.962,0.198s0.396-0.1,0.962-0.198c1.075-0.297,2.629-1.016,2.241-2.641
			c-0.517-2.207-5.067,0.873-6.082,1.042C25.954,25.687,28.972,24.063,27.966,22.2z"/>
		<path fill="#98C93E" d="M29.794,27.285c-0.566,0.098-0.962,0.198-0.962,0.198S29.255,27.435,29.794,27.285z"/>
	</g>
	<g>
		<path fill="#ADD149" d="M26.131,28.863c2.188,1.865,0.986,3.679,1.526,5.861c0.545,2.181,3.637,3.827,6.468,4.374
			c3.224,0.623,6.213,0.721,8.665-1.255c0.775-0.625,1.458-1.295,2.098-1.995c0.48-0.798,0.891-1.616,1.309-2.331
			c0.616-1.056,1.183-2.099,1.832-3.087c-2.437,0.66-3.874,5.701-7.762,7.609c-4.427,2.175-12.062-2.053-11.378-4.557
			c0.919-3.384,5.64-3.579,4.679-5.613c-0.456-0.982-2.528-0.795-3.773-0.585c-0.539,0.15-0.962,0.198-0.962,0.198
			s0.396-0.1,0.962-0.198c1.075-0.297,2.629-1.016,2.241-2.641c-0.517-2.207-5.067,0.873-6.082,1.042c0,0,3.019-1.624,2.013-3.486
			c-0.807-1.495-7.039,2.005-8.084,7.551C21.25,28.107,24.033,27.067,26.131,28.863z"/>
		<path fill="#ADD149" d="M29.794,27.285c-0.566,0.098-0.962,0.198-0.962,0.198S29.255,27.435,29.794,27.285z"/>
	</g>
	<g>
		<path fill="#5B8A3D" d="M49.117,30.431c-1.242-0.319-2.183,0.451-3.143,1.627c1.166,0.552,1.682,1.186,1.733,1.856
			c0.016,0.057,0.035,0.112,0.043,0.167c0.37,2.789-3.03,5.248-5.881,6.6c-4.015,1.905-9.056,1.777-13.174,0.07
			c-3.703-1.536-5.77-3.732-7.013-6.263c-0.983-1.655-1.595-3.406-1.741-5.033c-0.588,2.621-0.031,5.719,2.834,8.979
			c6.265,7.107,16.58,5.629,21.929,2.265c5.343-3.361,6.575-8.139,6.575-8.139S52.289,31.24,49.117,30.431z"/>
		<path fill="#5B8A3D" d="M29.794,27.285c-0.566,0.098-0.962,0.198-0.962,0.198S29.255,27.435,29.794,27.285z"/>
	</g>
	<g>
		<path fill="#98C93E" d="M105.324,17.661c0-6.966-6.79-6.919-10.473-8.336S90.015,0.017,81.784,0
			c-3.498-0.005-5.891,0.666-8.799,2.787c-3.249,2.368-9.139,2.567-12.838,0.229C57.104,1.09,55.063-0.005,51.149,0
			c-8.232,0.017-9.384,7.908-13.065,9.325c-3.683,1.417-10.426,1.713-10.426,8.337c0,8.563,27.805,16.312,39.21,16.327
			C78.841,34.008,105.324,26.223,105.324,17.661z"/>
	</g>
	<g opacity="0.26">
		<path fill="#CCE081" d="M39.874,8.933c2.036,0.355,6.778,1.701,8.502,0.086c2.16-2.024,3.27-3.756,6.968-4.027
			C58.234,4.785,60,7.047,62.354,7.899c2.566,0.929,6.32,0.032,8.724-0.92c1.966-0.783,3.509-1.836,5.772-2.087
			c2.199-0.241,4.535,0.063,6.466,0.825c1.9,0.751,4.037,2.345,5.56,3.448c1.671,1.213,2.818,2.363,5.418,1.657
			c0.831-0.228,1.6-0.557,2.281-0.958c-0.617-0.167-1.202-0.339-1.724-0.539C91.168,7.908,90.015,0.017,81.784,0
			c-3.498-0.005-5.891,0.666-8.799,2.787c-3.249,2.368-9.139,2.567-12.838,0.229C57.104,1.09,55.063-0.005,51.149,0
			c-7.508,0.015-9.13,6.592-12.156,8.814C39.286,8.843,39.579,8.881,39.874,8.933z"/>
	</g>
	<path fill="#8CBD3F" d="M88.232,7.343c-0.262-1.667-2.111-3.478-4.068-4.379c-1.004-0.46-1.869-0.637-3.068-0.645
		c-2.902-0.019-5.714,1.41-6.842,3.437c-1.33,2.399-1.056,6.372,1.751,8.149c2.317,1.462,5.445,1.552,8.091,0.571
		C87.532,13.202,88.656,10.06,88.232,7.343z"/>
	<path fill="#8CBD3F" d="M58.433,7.329c-0.263-1.667-2.107-3.481-4.071-4.382c-1-0.458-1.865-0.637-3.065-0.643
		c-2.902-0.019-5.716,1.409-6.841,3.439c-1.33,2.394-1.063,6.371,1.75,8.148c2.313,1.463,5.446,1.553,8.092,0.57
		C57.732,13.183,58.854,10.041,58.433,7.329z"/>
	<g>
		<path fill="#ADD149" d="M80.487,17.336c-2.239,0.139-4.403-0.098-5.694-1.294c0.063,0.134,0.101,0.268,0.12,0.411
			c-3.196-0.71-6.295-2.007-9.798-1.629c-3.854,0.411-7.006,1.636-10.976,1.638c-3.065,0-6.093-0.222-9.16-0.602
			c-1.75-0.217-8.721-1.909-7.378,0.917c1.392,2.931,7.658,4.095,10.965,4.901c6.713,1.639,13.112,1.945,20.142,1.944
			c8.398-0.003,18.952-0.551,25.332-5.296c0.853-0.64,2.403-1.804,2.38-2.775c-0.059-2.209-8.161,0.534-9.971,0.876
			C84.886,16.723,82.653,17.204,80.487,17.336z"/>
		<path fill="#8CBD3F" d="M102.044,11.716c0.687,1.046,0.997,2.198,0.644,3.421c-1.027,3.544-4.766,6.524-8.705,8.374
			c-9.681,4.541-22.362,7.305-33.731,6.406c-5.373-0.425-10.313-1.715-15.238-3.345c-4.335-1.437-8.721-3.152-11.678-6.051
			c-2.291-2.246-3.255-6.218-1.771-9.017c-2.182,1.079-3.906,2.812-3.906,6.158c0,8.563,27.805,16.312,39.21,16.327
			c11.974,0.019,38.456-7.767,38.456-16.329C105.324,14.496,103.921,12.782,102.044,11.716z"/>
		<path fill="#70AE43" d="M105.204,16.236c-0.057,1.862-0.83,3.769-2.03,5.104c-2.069,2.305-16.908,10.23-36.248,11.337
			c-8.188,0.467-25.757-4.327-30.494-7.701c-0.153-0.06-7.298-3.534-7.876-6.684c-0.257-1.416-0.306-2.827-0.007-4.184
			c-0.559,0.928-0.891,2.086-0.891,3.554c0,8.563,27.805,16.312,39.21,16.327c11.974,0.019,38.456-7.767,38.456-16.329
			C105.324,17.145,105.274,16.681,105.204,16.236z"/>
	</g>
	<g>
		<path fill="#2C4D25" d="M66.463,26.736c0.315,0.002,0.625,0.002,0.935,0.002c28.943,0,33.165-9.439,33.201-9.534
			c0.072-0.202-0.038-0.435-0.271-0.54c-0.236-0.102-0.533-0.072-0.726,0.072c-0.093,0.07-0.148,0.157-0.169,0.244
			c-0.255,0.507-5.047,9.035-32.962,8.842c-28.377-0.197-32.15-8.789-32.191-8.889c-0.098-0.244-0.423-0.38-0.742-0.309
			c-0.316,0.07-0.498,0.323-0.401,0.564C33.28,17.571,37.043,26.532,66.463,26.736z"/>
	</g>
	<g>
		<path opacity="0.72" fill="#CCE081" d="M74.353,17.457c8.615,2.828,15.249-1.966,15.249-1.966
			c-5.075,0.409-8.907,1.302-12.098,0.52c-2.576-0.633-6.206-2.735-11.126-2.735c-5.023,0-8.496,2.321-12.978,2.735
			c-5.741,0.527-11.189-0.522-11.189-0.522c2.036,0.763,9.968,3.473,15.157,2.449C62.547,16.915,67.798,15.302,74.353,17.457z"/>
	</g>
	<g opacity="0.72">
		<path fill="#CCE081" d="M50.79,0.524c-3.956,0.015-5.236,2.738-5.236,2.738c5.318-1.976,10.37,0,10.37,0S55.923,0.503,50.79,0.524
			z"/>
	</g>
	<g>
		<path opacity="0.72" fill="#CCE081" d="M81.025,0.524c-5.132-0.021-5.132,2.738-5.132,2.738s5.053-1.976,10.372,0
			C86.265,3.263,84.984,0.54,81.025,0.524z"/>
	</g>
	<g>
		<path fill="#E7EBA3" d="M58.199,17.061c3.126-0.093,7.649-1.949,7.649-1.949s0.575-1.006-2.513-0.7
			c-3.09,0.305-6.281,1.4-6.281,1.4C55.572,16.266,55.065,17.153,58.199,17.061z"/>
	</g>
	<g>
		<path fill="#FFFFFF" d="M57.911,8.706c0,3.219-3.046,5.829-6.813,5.829c-3.76,0-6.807-2.61-6.807-5.829
			c0-3.217,3.047-5.829,6.807-5.829C54.865,2.876,57.911,5.489,57.911,8.706z"/>
		<g>
			<path fill="#010101" d="M51.593,5.673c-2.497-0.189-4.743,1.349-5.019,3.435c-0.271,2.089,1.533,3.933,4.032,4.124
				c2.497,0.188,4.746-1.35,5.02-3.434C55.898,7.708,54.09,5.866,51.593,5.673z"/>
			<path fill="#FFFFFF" d="M49.341,7.611C48.875,7.576,48.437,7.98,48.37,8.51c-0.071,0.535,0.25,0.993,0.725,1.032
				c0.46,0.033,0.898-0.372,0.972-0.902C50.135,8.108,49.808,7.646,49.341,7.611z"/>
		</g>
	</g>
	<g>
		<path fill="#FFFFFF" d="M87.889,8.706c0,3.219-3.049,5.829-6.812,5.829c-3.758,0-6.808-2.61-6.808-5.829
			c0-3.217,3.05-5.829,6.808-5.829C84.84,2.876,87.889,5.489,87.889,8.706z"/>
		<g>
			<path fill="#010101" d="M81.568,5.673c-2.489-0.189-4.738,1.349-5.013,3.435c-0.274,2.089,1.533,3.933,4.028,4.124
				c2.5,0.188,4.752-1.35,5.021-3.434C85.88,7.708,84.07,5.866,81.568,5.673z"/>
			<path fill="#FFFFFF" d="M79.321,7.611c-0.468-0.035-0.904,0.369-0.976,0.899c-0.068,0.535,0.254,0.993,0.729,1.032
				c0.461,0.033,0.899-0.372,0.969-0.902C80.112,8.108,79.791,7.646,79.321,7.611z"/>
		</g>
	</g>
	<path opacity="0.72" fill="#CCE081" d="M65.85,29.509c0.802-0.045,1.603-0.17,2.403-0.236c1.028-0.083,4.785-0.31,3.296-1.709
		c-0.857-0.808-2.688-0.109-3.796-0.078c-1.432,0.043-2.856-0.099-4.289-0.156c-0.838-0.036-3.674,0.072-2.396,1.357
		c0.539,0.541,3.598,0.862,4.47,0.837C65.644,29.52,65.747,29.515,65.85,29.509z"/>
	<path opacity="0.67" fill="#ADD149" d="M98.979,52.29c1.525-0.425,3.045-0.845,4.284-1.517c3.493-1.889,4.041-7.963,0.063-9.846
		c-4.411-2.083-8.389,1.703-10.559,4.206c-4.972,5.749-11.165,12.555-12.504,19.496c-0.479,2.486,0.432,4.259,2.339,1.22
		c1.945-3.104,3.681-5.467,6.444-8.123c1.665-1.592,3.852-3.115,6.26-4.215C96.42,53.002,97.7,52.643,98.979,52.29z"/>
	<path opacity="0.67" fill="#ADD149" d="M33.14,57.992c0.284,0.24,0.575,0.473,0.87,0.701c1.999,1.551,3.862,3.172,5.926,4.67
		c1.191,0.864,3.429,3.492,5.2,3.47c0.441-1.831-1.078-2.806-2.154-4.228c-1.234-1.636-2.209-3.672-2.389-5.571
		c-0.189-1.978,0.534-3.733-0.933-5.606c-1.916-2.445-14.242-7.527-12.385-1.334C28.168,53.065,30.448,55.752,33.14,57.992z"/>
	<path opacity="0.67" fill="#ADD149" d="M40.14,71.168c4.431-3.358-5.209-2.336-7.981-2.021c-3.488,0.396-7.99-0.327-11.206,1.27
		c-3.703,1.836-1.384,4.123,1.989,4.777C28.19,76.213,36.355,74.035,40.14,71.168z"/>
	<path opacity="0.67" fill="#ADD149" d="M102.125,75.594c2.651,0.068,8.878-1.221,7.05-4.104c-0.953-1.502-4.543-1.925-6.393-2.175
		c-1.728-0.228-13.042-1.202-12.853,1.479c0.069,0.9,4.008,2.571,5.006,3.057C97.127,74.922,99.509,75.527,102.125,75.594z"/>
</g>
</svg>
