<?xml version="1.0" encoding="utf-8"?>
<!-- Generator: Adobe Illustrator 15.0.0, SVG Export Plug-In . SVG Version: 6.00 Build 0)  -->
<!DOCTYPE svg PUBLIC "-//W3C//DTD SVG 1.1//EN" "http://www.w3.org/Graphics/SVG/1.1/DTD/svg11.dtd">
<svg version="1.1" id="Layer_1" xmlns="http://www.w3.org/2000/svg" xmlns:xlink="http://www.w3.org/1999/xlink" x="0px" y="0px"
	 width="115.56px" height="151.044px" viewBox="0 0 115.56 151.044" enable-background="new 0 0 115.56 151.044"
	 xml:space="preserve">
<g>
	<g>
		<path fill="#F3E9E0" d="M95.837,2.154c-4.668,0.15-21.811,2.602-19.596,8.14c1,2.5,6.5,0.667,6.5,0.667s-6.314,2.602-5.333,5.5
			c1.015,2.998,3.825,0.146,3.825,0.146L95.837,2.154z"/>
		<path fill="#F3E9E0" d="M81.867,1.544C83-1.753,98.492,0.919,98.617,3.169C98.661,3.958,80.492,5.544,81.867,1.544z"/>
		<path fill="#F7AA4D" d="M79.628,131.473c-1.656,6.173-3.463,10.84-0.451,14.754l-3.463,1.204c0,0,1.054-12.946-0.451-14
			L79.628,131.473z"/>
		<path fill="#F7AA4D" d="M69.341,151.044c-1.004-2.609,6.373-1.104,6.624-5.619c0.206-3.712,2.259-0.452,2.259-0.452
			c6.222,6.624,14.552,1.906,13.699,5.67L69.341,151.044z"/>
		<path fill="#B79786" d="M67.642,132.805c5.041,2.565,13.383,6.19,14.425-5.479L67.642,132.805z"/>
		<path fill="#E8D9CF" d="M4.908,82.094c7.828,20.475,27.901,55.804,62.627,51.387c34.725-4.416,40.547-39.744,34.524-53.394
			c-9.032-20.475-22.322-40.139-1.605-51.386c7.026-3.814,12.445-15.255,1.807-24.087C91.622-4.219,79.647,11.02,77.37,24.084
			c-3.813,21.879,9.435,48.174,3.413,58.411L4.908,82.094z"/>
		<path fill="#D7BEAF" d="M100.454,28.701c7.026-3.814,12.445-15.255,1.807-24.087c-1.814-1.507-3.667-2.299-5.505-2.535
			c10.297,8.802,6.456,21.428-0.514,25.212c-20.717,11.247-8.965,29.571,0.067,50.046c6.022,13.649,0.2,48.978-34.524,53.394
			c-8.066,1.025-15.34-0.095-21.855-2.674c7.901,4.445,17.079,6.763,27.605,5.424c34.725-4.416,40.547-39.744,34.524-53.394
			C93.027,59.612,79.737,39.948,100.454,28.701z"/>
		<path fill="#E8D9CF" d="M83.236,37.572c1.115,2.886,7.906,4.446,3.761-2.919L83.236,37.572z"/>
		<path fill="#D7BEAF" d="M81.409,129.291c3.667-5.166,7.5-29.666,6.667-34.834l-58.167-7.5l-17.685,10.85
			c10.454,18.834,28.521,39.082,55.311,35.674c5.115-0.65,9.587-1.986,13.502-3.81C81.189,129.544,81.32,129.417,81.409,129.291z"/>
		<path fill="#F3E9E0" d="M80.576,37.458c6.773,4.635,16.98-10.264,21.166-13c4.334-2.833,9.709-17.164-3-22.042
			S77.998,17.71,77.37,24.084S77.408,35.291,80.576,37.458z"/>
		<path fill="#F3E9E0" d="M6.513,92.934C51.877,67.241,79.4,72.652,86.804,89.923c5.232,12.203,0,27.098-14.854,33.12
			C61.062,127.456,35.619,120.031,6.513,92.934z"/>
		<path fill="#E8D9CF" d="M7.818,89.02c-5.62-12.044-8.631-20.475-7.627-24.088c1.003-3.612,6.322,14.453,10.236,16.66
			c3.375,1.903-8.229-16.46-5.318-20.977c3.273-5.078,7.326,17.063,10.236,17.665c2.91,0.602-4.717-12.948-2.008-13.449
			c2.711-0.501,5.922,17.865,10.539,18.166L7.818,89.02z"/>
		<path fill="#F4E8DE" d="M13.337,64.831c-2.709,0.501,4.918,14.051,2.008,13.449c-2.91-0.603-6.963-22.743-10.236-17.665
			c-2.911,4.517,8.693,22.88,5.318,20.977C6.513,79.385,1.194,61.32,0.191,64.932c-0.271,0.975-0.239,2.314,0.048,3.968
			c2.682,6.782,7.786,13.565,14.894,19.016c15.594,11.959,34.888,12.98,43.095,2.279c1.759-2.293,2.862-4.941,3.362-7.802
			l-39.294-0.208C18.507,78.607,15.728,64.389,13.337,64.831z"/>
		<path fill="#C56528" d="M92.726,31.911c1.003,3.613,5.871,10.94,7.526,10.037c1.656-0.903,1.706-7.527,1.706-7.527L92.726,31.911z
			"/>
		<path fill="#F7AA4D" d="M92.324,31.911c5.119,4.064,22.499,7.696,23.184,6.021c0.904-2.208-10.136-13.949-10.136-13.949
			S94.332,26.39,92.324,31.911z"/>
		<path fill="#6D5747" d="M88.361,20.22c1.871,2.185,7.678-3.764,4.816-5.57C90.318,12.844,86.554,18.112,88.361,20.22z"/>
		<path fill="#F7AA4D" d="M50.679,133.883c2.623,5.828,5.153,10.145,2.808,14.49l3.61,0.635c0,0-3.113-12.611-1.796-13.893
			L50.679,133.883z"/>
		<path fill="#F7AA4D" d="M65.444,151.044c-0.489-2.609-6.247-1.104-8.861-5.619c-2.147-3.712-2.245-0.452-2.245-0.452
			c-2.024,6.624-11.925,1.906-9.175,5.67L65.444,151.044z"/>
		<path fill="#D7BEAF" d="M45.003,128.161c2.408,5.118,6.774,13.098,14.753,4.517L45.003,128.161z"/>
		<path fill="#A58976" d="M30.601,81.493c2.208,11.843,11.642,35.528,28.303,42.152c0,0-31.113-2.21-54.197-30.511
			C14.042,88.618,20.664,84.787,30.601,81.493z"/>
		<ellipse fill="#C56528" cx="92.742" cy="32.291" rx="0.625" ry="0.792"/>
		<polygon fill="#F3E9E0" points="35.648,88.314 20.075,94.957 37.909,90.791 		"/>
		<polygon fill="#F3E9E0" points="44.937,98.959 26.401,103.543 45.916,104.215 		"/>
		<polygon fill="#F3E9E0" points="54.318,108.247 35.428,111.035 54.789,113.572 		"/>
		<path opacity="0.5" fill="#F3E9E0" enable-background="new    " d="M86.804,89.923c-6.035-14.079-25.444-20.27-56.985-8.163
			C20.36,84.979,13.85,88.705,4.831,93.074c11.887,6.93,30.303,11.383,50.994,11.383c12.024,0,23.278-1.508,32.936-4.127
			C88.882,96.818,88.239,93.27,86.804,89.923z"/>
		<path fill="#FEC569" d="M94.367,30.416c2.75-2.625,8-4.5,9.875-4.375s7.375,6.75,6.25,8S94.367,30.416,94.367,30.416z"/>
		<path fill="#F7AA4D" d="M49.159,150.458c-0.417-2.083-0.167-2.583,0.833-2.917s3,3,3,3L49.159,150.458z"/>
		<path fill="#F7AA4D" d="M82.909,150.041c-0.417-2.084-0.167-2.584,0.833-2.917s3,3,3,3L82.909,150.041z"/>
		<path fill="#C56528" d="M100.326,26.375c2.333,1.417,3.832,1.5,4.166,1.333s-2-2.25-2-2.25L100.326,26.375z"/>
		<path fill="#E8D9CF" d="M88.742,69.041c2.125,2.25,9,1.125,2.375-4.125L88.742,69.041z"/>
		<path fill="#E8D9CF" d="M90.742,72.666c2.125,2.25,9,1.125,2.375-4.125L90.742,72.666z"/>
		<path fill="#E8D9CF" d="M91.492,76.416c2.125,2.25,9,1.125,2.375-4.125L91.492,76.416z"/>
		<path fill="#E8D9CF" d="M87.492,65.291c2.125,2.25,9,1.125,2.375-4.125L87.492,65.291z"/>
		<path fill="#E8D9CF" d="M86.117,61.291c2.125,2.25,9,1.125,2.375-4.125L86.117,61.291z"/>
		<path fill="#E8D9CF" d="M84.742,57.541c2.125,2.25,9,1.125,2.375-4.125L84.742,57.541z"/>
		<path fill="#E8D9CF" d="M83.427,53.279c1.779,2.531,8.744,2.401,2.94-3.743L83.427,53.279z"/>
		<path fill="#E8D9CF" d="M82.611,48.947c1.115,2.886,7.906,4.446,3.761-2.919L82.611,48.947z"/>
		<path fill="#E8D9CF" d="M82.111,45.072c1.115,2.886,7.906,4.446,3.761-2.919L82.111,45.072z"/>
		<path fill="#E8D9CF" d="M82.861,41.197c1.115,2.886,7.906,4.446,3.761-2.919L82.861,41.197z"/>
		<path fill="#F8EFE8" d="M53.242,117.957c2.333,3.834,13.401,5.364,17,4.5c4.167-1,12.667-7.332,13.334-12.166
			C83.871,108.145,51.766,115.533,53.242,117.957z"/>
	</g>
	<g>
		<g>
			<defs>
				<polygon id="SVGID_2_" points="1,1 2,1 1,2 				"/>
			</defs>
			<defs>
				<polygon id="SVGID_3_" points="-1,-1 -2,-1 -1,-2 				"/>
			</defs>
			<clipPath id="SVGID_4_">
				<use xlink:href="#SVGID_2_"  overflow="visible"/>
			</clipPath>
			<clipPath id="SVGID_5_" clip-path="url(#SVGID_4_)">
				<use xlink:href="#SVGID_3_"  overflow="visible"/>
			</clipPath>
			
				<linearGradient id="SVGID_6_" gradientUnits="userSpaceOnUse" x1="49.4126" y1="803.6392" x2="49.4126" y2="666.905" gradientTransform="matrix(1 0 0 -1 8.3701 816.9307)">
				<stop  offset="0.0215" style="stop-color:#999999"/>
				<stop  offset="1" style="stop-color:#FFFFFF"/>
			</linearGradient>
			<path clip-path="url(#SVGID_5_)" fill="url(#SVGID_6_)" d="M105.511,24.133c3.137-4.422,4.183-10.678-0.214-16.395
				c-1.198-2.165-3.269-4.061-6.556-5.323c-0.506-0.194-1-0.335-1.49-0.452c-3.825-1.807-14.453-3.13-15.385-0.42
				c-0.414,1.207,0.954,1.902,3.06,2.268c-5.224,1.308-9.908,3.423-8.685,6.482c0.803,2.007,4.502,1.222,5.931,0.834
				c-0.024,0.041-0.047,0.083-0.071,0.124c-1.576,0.752-5.48,2.884-4.692,5.209c0.368,1.087,0.973,1.4,1.593,1.363
				c-0.926,2.51-1.484,4.766-1.632,6.26c-3.756,21.549,9.024,47.37,3.659,57.926c-0.104-0.09-0.21-0.176-0.314-0.264
				c-0.162-0.135-0.328-0.265-0.494-0.396c-0.273-0.215-0.552-0.424-0.838-0.629c-0.18-0.13-0.361-0.258-0.547-0.384
				c-0.301-0.204-0.611-0.398-0.926-0.591c-0.178-0.108-0.352-0.221-0.533-0.325c-0.482-0.278-0.978-0.547-1.49-0.8
				c-0.146-0.071-0.299-0.134-0.447-0.203c-0.389-0.183-0.781-0.361-1.188-0.529c-0.234-0.098-0.478-0.188-0.718-0.279
				c-0.335-0.127-0.672-0.252-1.017-0.369c-0.266-0.092-0.535-0.179-0.807-0.264c-0.342-0.105-0.689-0.205-1.041-0.302
				c-0.279-0.077-0.557-0.155-0.842-0.226c-0.393-0.097-0.797-0.183-1.201-0.268c-0.33-0.068-0.66-0.139-0.998-0.2
				c-0.55-0.1-1.108-0.19-1.68-0.269c-0.326-0.045-0.662-0.078-0.994-0.115c-0.377-0.041-0.754-0.083-1.139-0.115
				c-0.363-0.031-0.732-0.056-1.104-0.078s-0.747-0.04-1.127-0.054c-0.385-0.015-0.771-0.026-1.164-0.032
				c-0.387-0.005-0.781,0-1.176,0.004c-0.397,0.004-0.79,0.002-1.195,0.016c-0.538,0.017-1.089,0.05-1.641,0.083
				c-0.621,0.038-1.253,0.087-1.892,0.146c-0.41,0.038-0.817,0.072-1.234,0.119c-0.459,0.051-0.928,0.113-1.396,0.174
				c-0.407,0.054-0.815,0.109-1.228,0.172c-0.481,0.071-0.966,0.148-1.456,0.231c-0.416,0.07-0.837,0.148-1.259,0.228
				c-0.5,0.093-1,0.185-1.509,0.289c-0.429,0.089-0.868,0.19-1.303,0.287c-0.934,0.208-1.882,0.436-2.845,0.682
				c-0.449,0.115-0.894,0.225-1.349,0.349c-0.544,0.147-1.099,0.311-1.652,0.471c-0.455,0.132-0.91,0.264-1.371,0.403
				c-0.561,0.172-1.128,0.351-1.698,0.534c-0.471,0.151-0.946,0.31-1.423,0.47c-0.573,0.193-1.147,0.387-1.73,0.593
				c-0.497,0.175-1.001,0.363-1.505,0.548c-0.579,0.213-1.153,0.419-1.74,0.645h-0.001c-0.002,0.001-0.004,0.002-0.006,0.002
				c-0.444,0.152-0.886,0.303-1.318,0.457l-6.2-0.033c-0.109-0.103-0.216-0.217-0.323-0.336c-0.014-0.016-0.028-0.03-0.042-0.046
				c-0.104-0.118-0.206-0.243-0.307-0.376c-0.016-0.02-0.032-0.041-0.048-0.062c-0.103-0.136-0.205-0.278-0.305-0.428
				c-0.011-0.017-0.022-0.033-0.034-0.05c-1.978-2.955-3.669-8.387-5.177-12.111c-0.003-0.008-0.006-0.016-0.009-0.023
				c-0.093-0.229-0.186-0.452-0.277-0.667c-0.004-0.009-0.008-0.02-0.012-0.029c-0.28-0.657-0.554-1.242-0.822-1.729
				c-0.024-0.043-0.048-0.083-0.072-0.125c-0.062-0.109-0.124-0.214-0.186-0.312c-0.031-0.048-0.061-0.092-0.091-0.137
				c-0.055-0.082-0.11-0.161-0.164-0.233c-0.033-0.043-0.065-0.083-0.098-0.123c-0.052-0.064-0.104-0.122-0.156-0.176
				c-0.033-0.034-0.065-0.067-0.098-0.097c-0.052-0.048-0.104-0.087-0.155-0.124c-0.032-0.022-0.063-0.047-0.094-0.065
				c-0.056-0.032-0.111-0.053-0.166-0.071c-0.026-0.009-0.053-0.023-0.079-0.028c-0.081-0.017-0.162-0.021-0.242-0.007
				c-2.709,0.501,4.918,14.051,2.008,13.449c-2.91-0.603-6.963-22.743-10.236-17.665c-2.911,4.517,8.693,22.88,5.318,20.978
				C6.512,79.386,1.193,61.321,0.19,64.933c-0.066,0.239-0.113,0.503-0.145,0.784c-0.004,0.038-0.003,0.082-0.007,0.12
				c-0.024,0.256-0.037,0.527-0.034,0.816c0,0.014,0.001,0.03,0.002,0.045c0.06,4.094,2.774,11.422,7.329,21.28
				c0.457,1.031,0.94,2.083,1.448,3.149c-0.23,0.115-0.456,0.229-0.688,0.344c-0.407,0.201-0.822,0.406-1.238,0.611
				c-0.123,0.061-0.243,0.12-0.366,0.182c-0.385,0.188-0.78,0.381-1.173,0.572c-0.206,0.1-0.405,0.198-0.613,0.299
				c3.831,4.697,7.885,8.662,11.979,12.031c0.318,0.479,0.643,0.957,0.971,1.434c0.024,0.036,0.049,0.071,0.074,0.107
				c0.772,1.118,1.572,2.227,2.4,3.322c0.042,0.057,0.085,0.111,0.128,0.168c0.816,1.074,1.66,2.133,2.531,3.174
				c0.056,0.066,0.113,0.135,0.169,0.201c0.864,1.025,1.755,2.031,2.673,3.013c0.069,0.073,0.138,0.147,0.207,0.221
				c0.458,0.485,0.921,0.966,1.393,1.439c0.029,0.029,0.06,0.058,0.089,0.088c0.444,0.444,0.895,0.882,1.351,1.313
				c0.074,0.07,0.147,0.141,0.222,0.211c0.478,0.447,0.961,0.889,1.451,1.322c0.067,0.059,0.135,0.117,0.203,0.176
				c0.449,0.394,0.904,0.781,1.364,1.161c0.073,0.06,0.145,0.122,0.218,0.181c0.5,0.41,1.005,0.81,1.517,1.201
				c0.095,0.072,0.19,0.144,0.285,0.215c0.473,0.357,0.951,0.709,1.435,1.051c0.061,0.043,0.12,0.088,0.181,0.131
				c0.524,0.367,1.057,0.725,1.594,1.074c0.114,0.074,0.229,0.146,0.343,0.22c0.519,0.331,1.042,0.655,1.572,0.968
				c0.032,0.019,0.063,0.038,0.094,0.057c0.258,0.151,0.52,0.297,0.781,0.444c0-0.001-0.001-0.001-0.001-0.001
				c0.002,0.002,0.004,0.003,0.006,0.004c0.296,0.166,0.593,0.33,0.893,0.49c0.128,0.068,0.257,0.137,0.386,0.205
				c0.571,0.299,1.146,0.59,1.729,0.866c0.019,0.009,0.038,0.017,0.057,0.025c0.565,0.267,1.139,0.519,1.716,0.763
				c0.137,0.059,0.273,0.115,0.411,0.172c0.297,0.123,0.596,0.24,0.896,0.356c0.053,0.021,0.106,0.041,0.16,0.062
				c0.115,0.044,0.23,0.089,0.346,0.132c1.317,2.286,3.023,4.453,5.236,5.121c1.401,3.042,2.558,5.681,2.639,8.182
				c-0.057,0.284-0.066,0.538-0.066,0.538c-0.556,1.82-1.708,2.781-3.027,3.299c-0.476-0.498-0.961-0.85-1.318-0.73
				c-0.651,0.217-0.979,0.514-1.017,1.262c-2.845,0.301-5.377-0.302-3.812,1.84l20.281,0.401c-0.489-2.609-6.247-1.104-8.861-5.619
				c-0.163-0.282-0.311-0.512-0.451-0.718c-0.617-2.979-1.275-6.722-1.135-8.564c1.125-0.389,2.349-1.158,3.679-2.391
				c0.377,0.025,0.755,0.051,1.137,0.066c0.084,0.004,0.17,0.005,0.254,0.008c0.146,0.006,0.295,0.008,0.443,0.012
				c0.339,0.008,0.68,0.016,1.022,0.016c0.194,0.001,0.39-0.002,0.584-0.004c0.107-0.001,0.214,0,0.322-0.002
				c0.076-0.002,0.151,0,0.229-0.002c0.21-0.005,0.423-0.016,0.634-0.023c0.208-0.008,0.416-0.016,0.625-0.025
				c0.293-0.016,0.586-0.033,0.881-0.054c0.155-0.011,0.311-0.022,0.467-0.034c0.15-0.012,0.301-0.022,0.451-0.035
				c0.6-0.054,1.202-0.116,1.811-0.193c0.384-0.049,0.756-0.109,1.133-0.166c2.217,1.077,4.869,2.15,7.235,2.107
				c0.362,3.014,0.054,8.521-0.106,10.883c-1.112,3.432-7.387,2.318-6.455,4.739l22.582-0.401c0.521-2.297-2.383-1.438-6.137-1.923
				c-0.654-0.865-1.498-1.778-2.045-1.596c-0.526,0.176-0.84,0.405-0.963,0.88c-1.408-0.516-2.84-1.341-4.188-2.664
				c-1.734-3.009-0.996-6.469,0.162-10.691c1.391-0.855,2.488-2.496,3.036-5.317c22.002-10.804,25.349-37.733,20.27-49.244
				c-7.738-17.541-18.581-34.482-8.508-46.05c1.756,3.758,5.329,8.66,6.701,7.912c1.12-0.611,1.505-3.832,1.637-5.857
				c6.356,1.878,13.194,2.88,13.618,1.842C116.352,35.87,106.778,25.493,105.511,24.133z"/>
		</g>
	</g>
</g>
</svg>
