<?xml version="1.0" encoding="utf-8"?>
<!-- Generator: Adobe Illustrator 15.0.0, SVG Export Plug-In . SVG Version: 6.00 Build 0)  -->
<!DOCTYPE svg PUBLIC "-//W3C//DTD SVG 1.1//EN" "http://www.w3.org/Graphics/SVG/1.1/DTD/svg11.dtd">
<svg version="1.1" id="Layer_1" xmlns="http://www.w3.org/2000/svg" xmlns:xlink="http://www.w3.org/1999/xlink" x="0px" y="0px"
	 width="78.721px" height="87.183px" viewBox="0 0 78.721 87.183" enable-background="new 0 0 78.721 87.183" xml:space="preserve">
<g>
	<g>
		<path fill="#E5CFC4" d="M21.333,17.967c0.102,1.097-0.32,4.723,0.891,6.025c0,0-1.679-0.734-2.651-2.228L21.333,17.967z"/>
		<path fill="#E5CFC4" d="M20.823,20.739c0.1,1.098-0.319,4.725,0.891,6.026c0,0-1.679-0.734-2.651-2.229L20.823,20.739z"/>
		<path fill="#E8A62E" d="M42.728,73.852c0.012,0.33-1.537,12.271-1.537,12.271l-1.433-0.058c0,0,1.385-10.395-1.678-12.925
			L42.728,73.852z"/>
		<path fill="#E8A62E" d="M34.814,74.139c0.012,0.33-1.536,12.271-1.536,12.271l-1.434-0.058c0,0,1.385-10.396-1.679-12.926
			L34.814,74.139z"/>
		<path fill="#E8A62E" d="M45.824,86.396c-2.051-1.905-5.273-2.779-5.273-2.779s-4.244,1.364-5.385,3.276L45.824,86.396z"/>
		<path fill="#E8A62E" d="M37.8,86.686c-2.049-1.905-5.274-2.779-5.274-2.779s-4.243,1.365-5.383,3.276L37.8,86.686z"/>
		<path fill="#B39C8E" d="M32.982,76.409c-5.163,0.172-13.24-9.916-13.24-9.916l26.653,0.825
			C46.396,67.318,38.988,76.209,32.982,76.409z"/>
		<path fill="#DBC0B4" d="M62.423,30.216c5.715-3.287,4.695-10.183,7.666-10.182c1.777,0.002-0.38,7.718-0.38,7.718
			s1.288-3.899,2.962-3.299c1.672,0.6-0.982,6.309-0.982,6.309s4.627-8.973,6.205-1.876c0.625,2.814-1.584,6.32-4.474,9.527
			c0.542-0.156,0.876,0,0.879,0.618c0.011,1.949-0.63,3.672-1.601,5.166c0.68-0.184,1.125-0.084,1.145,0.464
			c0.095,2.623-2.141,5.03-4.51,6.811c0.586-0.022,0.897,0.328,0.623,1.362c-0.492,1.868-2.81,3.713-4.84,4.956
			c1.477-0.419,2.816-0.568,2.491,0.083c-1.679,3.362-9.876,10.923-19.463,13.619L62.423,30.216z"/>
		<path fill="#E5CFC4" d="M70.39,26.258c0,0,1.288-3.898,2.961-3.299c1.673,0.601-0.982,6.31-0.982,6.31s4.629-8.972,6.206-1.876
			c0.625,2.815-0.782,6.601-3.672,9.806c0.542-0.155,0.876,0.001,0.878,0.618c0.012,1.949-1.431,3.392-2.4,4.887
			c0.678-0.183,1.123-0.083,1.143,0.465c0.155,4.27-7.563,13.611-20.557,14.923l9.138-29.367
			C64.914,27.683,73.292,9.659,70.39,26.258z"/>
		<path fill="#CF4A27" d="M10.261,6.024c1.382-0.502,2.12,0.639,2.434,1.563c0.036-2.428,1.237-8.528,5.497-7.463
			c4.998,1.25,2.621,5.518,2.621,5.518s0.934-1.575,1.723-1.052c0.789,0.521,0.28,1.641,0.28,1.641s4.328-2.029,5.229,1.571
			c0.901,3.598-2.508,6.692-7.815,6.006L9.736,12.756C9.736,12.756,6.568,7.368,10.261,6.024z"/>
		<path fill="#EA5427" d="M11.115,6.547c-0.583-0.188-2.1,0.788-2.235,1.681c-0.135,0.894,0.76,4.518,2.937,2.893
			C12.968,10.26,12.948,7.136,11.115,6.547z"/>
		<path fill="#E5CFC4" d="M64.681,28.706c-14.01,8.209-38.446,7.017-42.417,1.757c-6.476-8.57,3.948-14.055-3.757-18.575
			C5.578,4.302,3.26,22.346,4.572,40.346C5.276,50,14.435,75.647,39.878,73.185C74.904,69.796,64.681,28.706,64.681,28.706z"/>
		<path fill="#F3E1D8" d="M21.47,14.962c-1.14-3.807-9.902-8.115-13.464-1.745c-3.563,6.371-0.86,19.276,5.235,19.178
			C19.334,32.297,22.085,17.021,21.47,14.962z"/>
		<path fill="#DBC0B4" d="M11.065,25.07c-0.088,2.635-3.095,7.456-5.955,7.927L5.043,24.37L11.065,25.07z"/>
		<path fill="#DBC0B4" d="M8.619,12.147c-1.882,5.822-2.108,14.579-1.47,23.333c0.704,9.653,9.862,35.302,35.305,32.84
			c10.58-1.024,17.027-5.492,20.879-11.223c-3.252,7.945-10.025,14.789-23.455,16.088C14.435,75.647,5.276,50,4.572,40.346
			C3.713,28.566,4.41,16.768,8.619,12.147z"/>
		<path fill="#DBC0B4" d="M18.155,35.566C12.5,40.244,10.773,72.75,43.093,69.622c28.791-2.787,26.227-36.197,21.334-42.874
			c0,0-12.32,10.259-21.112,10.658C31.337,37.949,25.526,29.465,18.155,35.566z"/>
		<path fill="#DBC0B4" d="M40.338,76.801c-5.046,0.402-17.02-8.078-17.02-8.078l30.751-1.775
			C54.07,66.948,46.504,76.308,40.338,76.801z"/>
		<path fill="#E8A62E" d="M10.596,25.381c0.351,0.593-1.044,2.717-2.458,2.952c-1.107,0.186-6.229-2.459-6.029-4.416
			C2.108,23.917,9.761,23.975,10.596,25.381z"/>
		<path fill="#FEC146" d="M10.975,25.491c0.88-0.632-4.475-5.168-5.489-5.123c-1.013,0.046-5.831,2.412-5.467,2.961
			C0.405,23.909,10.213,26.04,10.975,25.491z"/>
		<path fill="#4D3F2A" d="M13.367,21.375c-1.253-0.034-1.21-6.065,1.185-5.271C16.639,16.794,14.248,21.397,13.367,21.375z"/>
		<path fill="#4D3F2A" d="M7.853,20.384c-1.206,0.028-1.846-4.819,0.543-4.286C10.479,16.563,8.703,20.364,7.853,20.384z"/>
		<path fill="#F3E1D8" d="M18.769,32.239c-5.655,4.678-6.938,36.35,21.768,32.777C69.24,61.448,67.3,35.213,64.744,25.401
			c0,0-12.023,8.277-20.815,8.678C31.951,34.623,26.141,26.14,18.769,32.239z"/>
		<g>
			<path fill="#FFF1EA" d="M18.769,32.239c7.372-6.099,13.183,2.384,25.16,1.84c8.195-0.372,19.194-7.587,20.649-8.565
				c1.311,9.033-17.667,37.974-47.86,26.041C14.233,43.54,15.961,34.562,18.769,32.239z"/>
		</g>
		<path fill="#E5CFC4" d="M45.038,72.612c0.492,0.93-3.79,2.883-5.036,2.874c-2.113-0.015-5.489-2.004-5.237-2.655
			C35.017,72.178,44.698,71.969,45.038,72.612z"/>
		<path fill="#FFD353" d="M10.452,25.045c0.565-0.39-2.785-3.272-3.43-3.251c-0.644,0.024-4.932,1.287-4.706,1.634
			C2.555,23.796,9.961,25.387,10.452,25.045z"/>
		<path fill="#EA5427" d="M27.843,9.698c0.226-1.141-0.207-3.586-1.922-3.646c-1.716-0.059-7.534,3.211-6.222,5.611
			C21.009,14.063,27.131,13.289,27.843,9.698z"/>
		<path fill="#EA5427" d="M20.494,1.932c-0.56-1.021-3.541-1.929-4.897-0.876c-1.356,1.053-2.678,7.091-0.133,8.093
			C18.008,10.152,22.248,5.146,20.494,1.932z"/>
		<path fill="#EA5427" d="M20.358,7.294c0.088,0.263,0.913,0.391,1.401,0.037c0.488-0.354,1.346-2.104,0.659-2.276
			C21.732,4.881,20.077,6.467,20.358,7.294z"/>
		<path fill="#F3E1D8" d="M74.197,33.768c2.199-2.65,5.448-6.716,3.168-8.836c-2.279-2.12-7.785,8.085-7.456,9.541
			C70.237,35.93,72,36.417,74.197,33.768z"/>
		<path fill="#F3E1D8" d="M71.76,27.553c0.808-1.643,1.756-3.646,0.972-4.433c-0.877-0.873-3.376,4.979-3.164,5.822
			C69.782,29.786,70.775,29.562,71.76,27.553z"/>
		<path fill="#F3E1D8" d="M66.35,24.108c-0.798,1.649-0.715,3.943,1.403,3.254c1.178-0.384,2.865-7.149,2.648-7.989
			C70.181,18.529,67.322,22.092,66.35,24.108z"/>
		<path fill="#F3E1D8" d="M71.429,39.401c-0.953,0.896-0.414,2.995,0.998,2.265c2.132-1.104,2.742-3.313,2.813-3.932
			C75.308,37.117,72.589,38.303,71.429,39.401z"/>
		<path fill="#DBC0B4" d="M64.128,49.737c-1.689,1.529-8.756,6.65-17.617,7.798c0,0,7.063,2.405,16.73-4.369L64.128,49.737z"/>
		<path fill="#DBC0B4" d="M66.492,40.732c-1.508,1.57-7.903,6.908-16.238,8.525c0,0,6.843,1.906,15.604-5.175L66.492,40.732z"/>
		<path fill="#DBC0B4" d="M66.14,31.614c-1.371,1.692-5.459,6.591-13.715,9.275c0,0,7.436,0.007,14.131-5.192L66.14,31.614z"/>
	</g>
	<g>
		<g>
			<defs>
				<polygon id="SVGID_2_" points="1,1 2,1 1,2 				"/>
			</defs>
			<defs>
				<polygon id="SVGID_3_" points="-1,-1 -2,-1 -1,-2 				"/>
			</defs>
			<clipPath id="SVGID_4_">
				<use xlink:href="#SVGID_2_"  overflow="visible"/>
			</clipPath>
			<clipPath id="SVGID_5_" clip-path="url(#SVGID_4_)">
				<use xlink:href="#SVGID_3_"  overflow="visible"/>
			</clipPath>
			
				<linearGradient id="SVGID_6_" gradientUnits="userSpaceOnUse" x1="6.0737" y1="811.356" x2="6.0737" y2="728.8121" gradientTransform="matrix(0.9991 0.0417 0.0417 -0.9991 0.3591 814.9126)">
				<stop  offset="0.0215" style="stop-color:#999999"/>
				<stop  offset="1" style="stop-color:#FFFFFF"/>
			</linearGradient>
			<path clip-path="url(#SVGID_5_)" fill="url(#SVGID_6_)" d="M0.02,23.329c0.106,0.162,0.938,0.44,2.098,0.749
				c0.036,0.889,1.067,1.89,2.29,2.701c-0.004,0.067-0.008,0.135-0.013,0.204c-0.007,0.127-0.016,0.253-0.023,0.381
				c-0.023,0.425-0.042,0.853-0.059,1.284c-0.005,0.136-0.009,0.271-0.014,0.407c-0.011,0.363-0.021,0.729-0.029,1.098
				c-0.002,0.109-0.005,0.219-0.007,0.328c-0.008,0.452-0.011,0.906-0.012,1.365c0,0.131,0,0.264,0.001,0.396
				c0.001,0.403,0.005,0.809,0.01,1.216c0.001,0.083,0.002,0.166,0.004,0.249c0.007,0.476,0.02,0.953,0.035,1.435
				c0.003,0.125,0.008,0.25,0.012,0.374c0.015,0.448,0.032,0.897,0.053,1.348c0.002,0.049,0.004,0.098,0.007,0.146
				c0.022,0.49,0.049,0.982,0.078,1.476c0.007,0.122,0.015,0.247,0.022,0.371c0.031,0.497,0.063,0.994,0.1,1.49
				c0.517,7.083,5.595,22.765,18.306,29.648c2.439,2.499,5.878,5.536,8.775,6.254c0.614,2.442,0.55,5.678,0.405,7.821
				c-1.131,0.415-4.007,1.589-4.916,3.113l8.084-0.376c-0.019,0.029-0.044,0.056-0.062,0.086l10.659-0.497
				c-1.362-1.268-3.239-2.076-4.348-2.478c0.275-2.136,0.689-5.366,0.965-7.593c2.926-1.03,5.937-3.501,8.16-5.65
				c8.5-3.172,15.473-9.73,17.007-12.802c0.325-0.651-1.015-0.502-2.491-0.083c2.03-1.243,4.348-3.088,4.84-4.956
				c0.252-0.949,0.008-1.319-0.488-1.357c0.314-0.279,0.619-0.561,0.905-0.843c1.374-1.178,2.581-2.561,3.142-4.061
				c0.696-1.287,1.042-2.468,1.008-3.405c-0.018-0.506-0.41-0.617-1.004-0.489c0.066-0.149,0.128-0.3,0.188-0.452
				c0.937-1.331,2.086-2.67,2.074-4.41c-0.002-0.617-0.336-0.773-0.878-0.618c2.89-3.205,4.297-6.99,3.672-9.806
				c-0.372-1.671-0.913-2.444-1.523-2.66c-1.098-0.474-2.721,1.173-4.146,3.259c0.676-1.719,1.61-4.614,0.445-5.032
				c-0.327-0.116-0.638-0.06-0.929,0.104c-0.191,0.058-0.413,0.26-0.651,0.569c-0.501,0.592-0.897,1.412-1.135,1.98
				c-0.074,0.161-0.148,0.321-0.22,0.484c0.882-5.102,0.675-6.859-0.083-6.83c-0.135-0.084-0.419,0.091-0.781,0.432
				c-0.162,0.146-0.335,0.325-0.514,0.532c-0.907,1.004-2.025,2.573-2.61,3.724c-0.509,0.804-1.009,1.607-1.468,2.324
				c-0.07-0.305-0.144-0.6-0.217-0.879c0,0-0.061,0.04-0.166,0.112l0,0c-0.179,0.12-0.504,0.335-0.947,0.619
				c-0.01,0.006-0.016,0.01-0.023,0.016c-0.068,0.043-0.144,0.091-0.219,0.138c-0.056,0.035-0.109,0.071-0.168,0.108
				c-0.065,0.041-0.137,0.085-0.205,0.128c-0.076,0.047-0.149,0.094-0.229,0.142c-0.067,0.043-0.139,0.086-0.208,0.129
				c-0.092,0.056-0.181,0.11-0.274,0.168c-0.069,0.043-0.144,0.088-0.216,0.132c-0.1,0.06-0.199,0.121-0.303,0.184
				c-0.078,0.046-0.158,0.092-0.238,0.14c-0.106,0.063-0.216,0.128-0.328,0.194c-0.08,0.047-0.16,0.093-0.242,0.142
				c-0.119,0.069-0.241,0.141-0.366,0.212c-0.081,0.047-0.161,0.092-0.244,0.14c-0.132,0.076-0.265,0.15-0.401,0.228
				c-0.081,0.047-0.163,0.093-0.246,0.139c-0.142,0.078-0.289,0.159-0.436,0.241c-0.08,0.044-0.16,0.087-0.242,0.133
				c-0.157,0.085-0.319,0.171-0.479,0.259c-0.076,0.039-0.152,0.082-0.23,0.121c-0.174,0.093-0.354,0.186-0.533,0.28
				c-0.067,0.035-0.136,0.07-0.203,0.105c-0.207,0.105-0.418,0.214-0.629,0.32c-0.044,0.022-0.086,0.044-0.131,0.064
				c-0.523,0.264-1.062,0.524-1.611,0.779c-0.014,0.007-0.029,0.014-0.045,0.02c-0.254,0.118-0.512,0.235-0.77,0.351
				c-0.069,0.03-0.141,0.063-0.211,0.094c-0.203,0.088-0.408,0.178-0.613,0.265c-0.095,0.042-0.19,0.08-0.285,0.12
				c-0.186,0.076-0.369,0.153-0.556,0.229c-0.104,0.042-0.21,0.083-0.316,0.125c-0.178,0.07-0.354,0.14-0.532,0.208
				c-0.111,0.044-0.223,0.084-0.337,0.126c-0.173,0.065-0.345,0.128-0.519,0.189c-0.117,0.041-0.234,0.083-0.352,0.123
				c-0.168,0.058-0.336,0.115-0.504,0.17c-0.121,0.041-0.244,0.08-0.365,0.119c-0.166,0.053-0.332,0.104-0.496,0.152
				c-0.123,0.038-0.246,0.074-0.369,0.109c-0.165,0.048-0.33,0.093-0.492,0.138c-0.123,0.033-0.245,0.066-0.367,0.099
				c-0.165,0.042-0.33,0.081-0.494,0.12c-0.12,0.026-0.241,0.057-0.361,0.084c-0.165,0.036-0.33,0.069-0.494,0.103
				c-0.118,0.022-0.235,0.047-0.352,0.069c-0.17,0.031-0.338,0.058-0.506,0.084c-0.11,0.018-0.222,0.037-0.332,0.053
				c-0.184,0.025-0.365,0.047-0.547,0.065c-0.092,0.012-0.184,0.023-0.273,0.033c-0.272,0.026-0.541,0.047-0.808,0.058
				c-10.082,0.458-15.794-5.479-21.746-3.731c-1.219-1.647-1.815-3.179-2.041-4.611c0.8,0.684,1.572,1.029,1.572,1.029
				c-0.698-0.752-0.854-2.277-0.879-3.645c0.731,0.584,1.39,0.872,1.39,0.872c-1.131-1.217-0.838-4.462-0.877-5.776
				c0.225-1.563,0.267-2.771,0.123-3.254c-0.109-0.363-0.287-0.729-0.524-1.092c4.891,0.329,7.959-2.638,7.099-6.069
				c-0.9-3.601-5.229-1.571-5.229-1.571s0.509-1.12-0.28-1.641c-0.789-0.523-1.723,1.052-1.723,1.052s2.377-4.268-2.621-5.518
				c-4.26-1.065-5.461,5.035-5.497,7.463c-0.314-0.924-1.051-2.064-2.434-1.563C7.65,6.976,8.472,9.948,9.176,11.605
				C8.98,11.778,8.79,11.959,8.609,12.16c-0.156,0.173-0.305,0.356-0.452,0.547c-0.062,0.081-0.123,0.165-0.183,0.25
				c-0.116,0.163-0.23,0.333-0.34,0.508c-0.058,0.094-0.117,0.188-0.175,0.285c-0.114,0.192-0.226,0.395-0.333,0.603
				c-0.051,0.103-0.105,0.207-0.156,0.313c-0.103,0.212-0.204,0.43-0.301,0.655c-0.049,0.115-0.098,0.234-0.146,0.353
				c-0.087,0.217-0.173,0.438-0.253,0.664c-0.045,0.12-0.087,0.239-0.128,0.362c-0.093,0.277-0.186,0.56-0.272,0.85
				c-0.034,0.115-0.065,0.231-0.097,0.347c-0.067,0.239-0.132,0.481-0.195,0.728c-0.032,0.134-0.066,0.267-0.099,0.402
				c-0.077,0.326-0.151,0.653-0.221,0.993c-0.024,0.118-0.047,0.242-0.07,0.363c-0.002,0.014-0.005,0.026-0.008,0.041
				C3.75,20.775-0.317,22.823,0.02,23.329z M39.969,83.823c-0.829,0.309-2.384,0.955-3.56,1.813
				c-1.025-0.648-2.094-1.105-2.853-1.387c0.294-2.281,0.75-5.849,1.025-8.082c0.39-0.1,0.781-0.226,1.172-0.377
				c1.484,0.582,2.868,0.971,3.996,1.019C40.169,79.129,40.098,81.915,39.969,83.823z"/>
		</g>
	</g>
</g>
</svg>
