<?xml version="1.0" encoding="utf-8"?>
<!-- Generator: Adobe Illustrator 15.0.0, SVG Export Plug-In . SVG Version: 6.00 Build 0)  -->
<!DOCTYPE svg PUBLIC "-//W3C//DTD SVG 1.1//EN" "http://www.w3.org/Graphics/SVG/1.1/DTD/svg11.dtd">
<svg version="1.1" id="Layer_1" xmlns="http://www.w3.org/2000/svg" xmlns:xlink="http://www.w3.org/1999/xlink" x="0px" y="0px"
	 width="135.625px" height="153.921px" viewBox="0 0 135.625 153.921" enable-background="new 0 0 135.625 153.921"
	 xml:space="preserve">
<g>
	<g>
		<path fill="#D35F42" d="M119.619,17.317c-2.896-4.798-8.537-7.058-15.027-5.975c-1.087,0.182-0.906,0.906,2.445,1.901
			c2.743,0.815-6.125-0.581-8.148,0.633c-0.906,0.544,3.35,1.54,4.254,2.083c0.906,0.542-10.771-1.268-12.221,0.905
			c-1.447,2.172,10.772,2.082,10.412,3.53C100.97,21.844,119.619,17.317,119.619,17.317z"/>
		<path fill="#EA6643" d="M82.593,128.931c1.788,13.674,2.347,20.16-0.182,24.543l5.084-0.175c0,0-4.673-11.571,2.701-24.368H82.593
			z"/>
		<path fill="#EA6643" d="M94.252,153.921c-1.962-1.71-6.644-4.025-8.112-4.164c-1.481-0.142-5.264,2.367-6.625,4.164H94.252z"/>
		<path fill="#644F3F" d="M70.282,120.97c5.069,7.965,14.437,26.053,28.063,5.068C109.023,109.599,84.947,122.78,70.282,120.97z"/>
		<path fill="#EA6643" d="M64.67,128.754c2.896,13.772,3.983,20.306,1.809,24.72l5.07-0.177c0,0-5.612-11.653,0.724-24.543H64.67z"
			/>
		<path fill="#EA6643" d="M77.162,153.921c-2.072-1.71-7.017-4.025-8.568-4.164c-1.564-0.142-5.56,2.367-6.997,4.164H77.162z"/>
		<path fill="#CE9061" d="M48.526,113.568C22.632,105.517-7.311,64.9,1.606,51.985c1.746-2.531,13.527,17.373,15.507,16.057
			S-2.98,41.935,6.492,33.763c1.734-1.496,14.184,21.934,15.209,19.312c1.023-2.622-17.14-29.209-6.515-42.322
			c3.772-4.659,15.82,40.213,19.308,38.219c1.691-0.966-14.728-31.441-1.518-48.826c3.204-4.216,20.738,84.213,30.547,87.203
			L48.526,113.568z"/>
		<path fill="#B6764B" d="M16.523,55.349c-4.111-5.822-10.667-14.5-10.031-21.586c-9.472,8.171,12.602,32.963,10.622,34.279
			S3.353,49.454,1.606,51.985c-8.917,12.916,21.025,53.532,46.92,61.583l12.497-16.552C46.69,91.683,26.082,69.345,16.523,55.349z"
			/>
		<path fill="#806955" d="M126.47,78.906c-1.447-29.417-18.183-27.535-4.828-42.005c2.896-3.139,2.895-25.589-11.106-23.416
			c-14.001,2.172-14.471,19.146-8.69,29.693c17.864,32.589-3.379,51.177-44.658,32.106c-13.82-6.385-40.611,10.43-17.38,36.21
			C79.396,155.429,127.917,108.356,126.47,78.906z"/>
		<path fill="#644E3E" d="M66.164,78.958c-2.874-1.02-5.867-2.238-8.977-3.674c-1.333-0.616-2.787-1.013-4.304-1.21
			C57.586,76.183,62.024,77.804,66.164,78.958z"/>
		<path fill="#644E3E" d="M126.47,78.906c-1.447-29.417-18.183-27.535-4.828-42.005c0.918-0.995,1.542-3.93,1.524-7.404
			c-1.503,3.357-3.771,6.535-6.144,8.853c-10.75,10.5,2.5,9.389,3.947,38.807c1.236,25.154-33.643,62.318-68.514,45.25
			C90.689,146.85,127.767,105.275,126.47,78.906z"/>
		<path fill="#B85539" d="M121.642,36.901c2.896-3.139,2.895-25.589-11.106-23.416c-14.001,2.172-14.471,19.146-8.69,29.693
			c7.602,13.868,8.118,25.197,3.026,32.171c5.151,4.5,16.901,6,21.326,0C123.649,49.638,108.853,50.757,121.642,36.901z"/>
		<path fill="#D35F42" d="M122.148,30.099c0.625-5.5-0.75-17.886-11.125-17.375c-5.916,0.292-12.75,6.75-12.875,15.75
			c-0.105,7.642,4.511,15.157,9.773,15.272C113.181,43.86,121.285,37.693,122.148,30.099z"/>
		<path fill="#EE7057" d="M115.458,26.157c0.206-3.594-0.986-11.728-7.148-11.574c-3.121,0.078-7.388,4.21-7.191,10.106
			c0.168,5.007,3.143,10.009,6.28,10.173C110.535,35.025,115.173,31.12,115.458,26.157z"/>
		<path fill="#A6432C" d="M121.642,36.901c0.909-0.986,1.532-3.877,1.526-7.312c-0.553,3.052-1.508,5.443-2.524,6.276
			c-16.762,13.722,0.049,14.763,0.214,42.896c2.164-0.591,4.062-1.681,5.34-3.413C123.649,49.638,108.853,50.757,121.642,36.901z"/>
		<path fill="#806955" d="M60.6,122.748c-3.198,2.207-18.946,2.271-21.718-4.566C36.224,111.615,65.899,122.72,60.6,122.748z"/>
		<path fill="#806955" d="M56.717,116.617c-2.992,2.478-21.258,0.629-25.59-5.058C26.835,105.923,60.703,108.083,56.717,116.617z"/>
		<path fill="#806955" d="M46.324,109.141c-3.345,1.978-16.478,1.811-22.03-6.64C20.404,96.583,51.597,101.339,46.324,109.141z"/>
		<path fill="#806955" d="M42.426,102.562c-3.723,1.11-18.985-1.892-21.029-11.647C19.945,83.981,49.426,96.265,42.426,102.562z"/>
		<path fill="#806955" d="M32.507,94.648c-7.147-7.872-11.178-11.303-7.462-14.383c3.717-3.079,12.912,7.11,12.912,7.11
			L32.507,94.648z"/>
		<path fill="#806955" d="M38.482,88.672c-7.148-7.871-11.179-11.301-7.462-14.381c3.718-3.08,12.912,7.11,12.912,7.11
			L38.482,88.672z"/>
		<path fill="#806955" d="M48.779,77.347c-6.665-8.923-8.541-11.775-4.092-13.652c4.448-1.876,13.003,10.154,13.003,10.154
			L48.779,77.347z"/>
		<path fill="#806955" d="M41.391,81.064c-5.612-7.243-9.337-12.068-4.888-13.941c3.439-1.449,11.406,7.604,11.406,7.604
			L41.391,81.064z"/>
		<path fill="#F4A454" d="M121.701,29.085c0,0,4.967-0.097,10.32,3.651c4.826,3.38,5.636,7.34-2.776,4.104
			c-4.708-1.81-7.362,0.362-7.362,0.362C117.889,36.469,121.52,32.404,121.701,29.085z"/>
		<path fill="#FDC05C" d="M122.884,28.59c0,0,3.197-0.063,7.639,2.727c5.211,3.275,7.576,7.938-1.563,3.595
			c-3.836-1.822-7,0.313-7,0.313C119.304,34.393,122.822,30.759,122.884,28.59z"/>
		<path fill="#BC3626" d="M123.783,27.637c5.793,0.271-4.616,8.781-1.268,13.76c1.536,2.281,7.242,12.855,2.264,13.489
			c-3.059,0.389-6.471-3.547-5.885-12.946C119.527,31.801,118.6,27.395,123.783,27.637z"/>
		<path fill="#806955" d="M53.082,120.97c5.07,7.965,11.588,23.898,28.063,5.068C95.215,109.958,68.833,123.324,53.082,120.97z"/>
		<path fill="#715947" d="M106.523,79.349c0,0-1.137-0.872-3.107-2.275c-12.477,12.764-40.726-0.641-44.559-3.391
			s-9.721-11.864-14.169-9.988c-3.18,1.342-3.113,3.195-0.39,7.395c-2.565-2.328-5.88-4.773-7.794-3.967
			c-3.186,1.341-2.17,4.203,0.717,8.374c-2.316-1.532-4.703-2.446-6.2-1.206c-2.665,2.208-1.334,4.606,2.259,8.681
			c-2.843-2.295-6.288-4.318-8.234-2.707c-2.775,2.301-1.227,4.798,2.71,9.193c-3.888-1.023-6.841-0.854-6.357,1.456
			c0.864,4.122,4.088,7.034,7.803,8.943c-3.708-0.074-6.174,0.715-4.907,2.644c2.145,3.265,5.422,5.289,8.828,6.436
			c-2.001,0.496-2.953,1.363-1.995,2.622c1.583,2.077,5.027,3.64,8.905,4.669c-1.099,0.233-1.604,0.83-1.15,1.953
			c1.932,4.764,10.16,6.175,16.056,5.848c4.449,7.443,10.486,16.782,22.542,5.773C89.523,127.183,109.8,115.383,106.523,79.349z"/>
		<path fill="#CE9061" d="M105.593,79.46c-3.387-5.991-26.192,2.568-39.318-2.36c-13.127-4.93-20.848-6.446-22.972-3.468
			c-2.122,2.978,8.3,8.555,11.196,10.617c-3.281-1.143-14.092-5.799-15.829-3.379c-3.981,5.546,5.212,10.664,10.619,14.078
			c-4.634-2.539-10.944-4.367-11.583-0.281c-0.772,4.918,18.725,13.225,18.725,13.225s-13.127-5.653-13.513-3.467
			c-0.386,2.188,2.703,14.684,30.116,14.541C100.445,118.824,110.996,89.031,105.593,79.46z"/>
		<path fill="#99745A" d="M106.041,78.658c-2.963-5.246-21.604,1.297-35.009-0.305c0.444,5.014-0.009,10.477-1.507,16.058
			c-2.57,9.562-7.082,17.149-13.31,22.522c4.599,1.336,9.547,2.665,16.237,2.659C101.839,119.566,111.447,88.228,106.041,78.658z"/>
		<path fill="#48372B" d="M106.825,20.033c2.083-1.72,8.616,3.629,5.522,9.596C111.08,32.073,104.607,21.865,106.825,20.033z"/>
		<path fill="#48372B" d="M117.109,19.433c1.377-0.949,4.872,2.876,2.57,6.445C118.736,27.34,115.645,20.443,117.109,19.433z"/>
		<path opacity="0.6" fill="#E8BC9E" d="M106.041,78.658c-2.518-5.309-19.89,0.705-33.09-0.137
			c-2.385-0.221-4.646-0.658-6.676-1.421c-13.127-4.93-20.848-6.446-22.972-3.468c-2.122,2.978,8.3,8.555,11.196,10.617
			c-3.281-1.143-14.092-5.799-15.829-3.379c-3.935,5.48,4.994,10.541,10.423,13.955c6.597,3.357,14.672,5.811,24.43,6.523
			C93.417,102.803,111.319,89.783,106.041,78.658z"/>
		<g>
			<path fill="#D35F42" d="M104.16,47.814c5.32,11.753,5.223,21.355,0.712,27.535c3.147,2.75,8.757,4.368,13.655,3.851
				C116.773,56.474,109.319,49.845,104.16,47.814z"/>
		</g>
		<path fill="#D83C29" d="M119.69,50.933c-1.25-4.333-1.5-10.417,0.333-10.917s4.166,7.583,4.834,9.583
			c0.666,2,1.583,5.084-0.5,5.167C122.273,54.849,120.179,52.629,119.69,50.933z"/>
		<path fill="#D83C29" d="M119.568,30c-0.961,2.825-0.482,7.042,0.705,7.432c1.188,0.389,2.142-5.085,2.645-6.386
			c0.503-1.301,1.203-3.31-0.162-3.432C121.39,27.494,119.944,28.894,119.568,30z"/>
		<path fill="#715947" d="M63.523,83.849c6.5,3.5,17.834,3.5,23.397,0.627C74.857,87.016,63.523,83.849,63.523,83.849z"/>
		<path opacity="0.6" fill="#E8BC9E" d="M95.148,78.349c3.762-1.851,13.75,2.75,7,5.625S87.273,82.224,95.148,78.349z"/>
		<path opacity="0.4" fill="#E8BC9E" d="M81.357,117.849c-8.563,2.395-31.632-0.417-16.167-4
			C80.655,110.266,101.023,112.349,81.357,117.849z"/>
		<path fill="#806955" d="M114.773,92.224c-0.375,2.75,3.25,4.75,4.375,0.75L114.773,92.224z"/>
		<path fill="#806955" d="M117.648,91.224c-0.375,2.75,3.25,4.75,4.375,0.75L117.648,91.224z"/>
		<path fill="#806955" d="M115.531,94.337c-0.389,2.748,3.226,4.768,4.371,0.773L115.531,94.337z"/>
		<path fill="#806955" d="M113.281,95.962c-0.389,2.748,3.226,4.768,4.371,0.773L113.281,95.962z"/>
		<path fill="#806955" d="M116.648,89.474c-0.375,2.75,3.25,4.75,4.375,0.75L116.648,89.474z"/>
		<path fill="#806955" d="M119.523,88.099c-0.375,2.75,3.25,4.75,4.375,0.75L119.523,88.099z"/>
		<path fill="#806955" d="M116.898,87.349c-0.375,2.75,3.25,4.75,4.375,0.75L116.898,87.349z"/>
		<path fill="#806955" d="M118.273,83.349c-0.375,2.75,3.25,4.75,4.375,0.75L118.273,83.349z"/>
		<path fill="#806955" d="M120.131,82.453c-0.093,2.774,3.718,4.396,4.429,0.303L120.131,82.453z"/>
		<path fill="#806955" d="M119.599,80.918c0.301,2.759,4.302,3.825,4.428-0.327L119.599,80.918z"/>
		<path fill="#806955" d="M118.719,79.642c0.806,2.656,4.936,2.964,4.29-1.141L118.719,79.642z"/>
		<path fill="#806955" d="M119.023,85.849c-0.375,2.75,3.25,4.75,4.375,0.75L119.023,85.849z"/>
		<path fill="#F2A875" d="M33.19,4.183c-6.5,7.167-1.5,46.833,15.333,54.167L33.19,4.183z"/>
		<path fill="#F2A875" d="M16.69,14.349c-6.416,7.013,8.5,45.667,21.5,49.167L16.69,14.349z"/>
		<g>
			<path fill="#EA6643" d="M61.104,153.921c-0.41-2.167,0.329-2.667,1.314-2.75c0.985-0.084,1.97,2.75,1.97,2.75H61.104z"/>
			<path fill="#EA6643" d="M77.49,153.921c0.411-2.167-0.328-2.667-1.313-2.75c-0.986-0.084-1.971,2.75-1.971,2.75H77.49z"/>
		</g>
		<g>
			<path fill="#EA6643" d="M79.104,153.921c-0.41-2.167,0.329-2.667,1.313-2.75c0.986-0.084,1.971,2.75,1.971,2.75H79.104z"/>
			<path fill="#EA6643" d="M95.49,153.921c0.411-2.167-0.328-2.667-1.313-2.75c-0.986-0.084-1.971,2.75-1.971,2.75H95.49z"/>
		</g>
	</g>
	<defs>
		<filter id="Adobe_OpacityMaskFilter" filterUnits="userSpaceOnUse" x="0" y="0" width="135.612" height="153.921">
			<feFlood  style="flood-color:white;flood-opacity:1" result="back"/>
			<feBlend  in="SourceGraphic" in2="back" mode="normal"/>
		</filter>
	</defs>
	<mask maskUnits="userSpaceOnUse" x="0" y="0" width="135.612" height="153.921" id="SVGID_1_">
		<g filter="url(#Adobe_OpacityMaskFilter)">
			<defs>
				<filter id="Adobe_OpacityMaskFilter_1_" filterUnits="userSpaceOnUse" x="0" y="0" width="135.611" height="153.921">
					<feFlood  style="flood-color:white;flood-opacity:1" result="back"/>
					<feBlend  in="SourceGraphic" in2="back" mode="normal"/>
				</filter>
			</defs>
			<mask maskUnits="userSpaceOnUse" x="0" y="0" width="135.611" height="153.921" id="SVGID_1_">
				<g filter="url(#Adobe_OpacityMaskFilter_1_)">
				</g>
			</mask>
			<linearGradient id="SVGID_2_" gradientUnits="userSpaceOnUse" x1="67.8062" y1="39.3491" x2="67.8061" y2="152.7073">
				<stop  offset="0.0215" style="stop-color:#999999"/>
				<stop  offset="1" style="stop-color:#FFFFFF"/>
			</linearGradient>
			<path mask="url(#SVGID_1_)" fill="url(#SVGID_2_)" d="M135.003,35.542c-0.466-1.094-2.201-2.792-4.48-4.225
				c-1.947-1.223-3.654-1.898-4.959-2.27c0.041-0.822-0.419-1.346-1.781-1.41c-0.246-0.012-0.466-0.002-0.685,0.007
				c-0.282-4.051-1.451-8.467-3.994-11.307c-0.536-0.705-1.15-1.341-1.861-1.874c-3.126-2.789-7.632-3.958-12.651-3.121
				c-1.087,0.182-0.906,0.906,2.445,1.901c2.743,0.815-6.125-0.581-8.148,0.633c-0.906,0.544,3.35,1.54,4.254,2.083
				c0.906,0.542-10.771-1.268-12.221,0.905c-1.211,1.818,7.146,2.052,9.693,2.928c-1.47,2.437-2.421,5.386-2.467,8.682
				c-0.02,1.404,0.123,2.802,0.396,4.152c0.423,3.713,1.583,7.417,3.301,10.552c0.431,0.785,0.832,1.56,1.217,2.328
				c0.064,0.13,0.132,0.26,0.195,0.389c0.319,0.647,0.615,1.285,0.902,1.919l0,0c0.285,0.631,0.548,1.252,0.803,1.87
				c0.057,0.139,0.117,0.279,0.174,0.417c0.229,0.569,0.439,1.13,0.642,1.688c0.065,0.181,0.132,0.361,0.195,0.541
				c0.187,0.534,0.36,1.062,0.523,1.584c0.06,0.193,0.118,0.385,0.175,0.576c0.152,0.511,0.295,1.017,0.424,1.517
				c0.049,0.191,0.092,0.379,0.139,0.568c0.12,0.498,0.235,0.993,0.333,1.479c0.033,0.168,0.06,0.333,0.091,0.499
				c0.093,0.502,0.184,1.002,0.252,1.491c0.01,0.064,0.014,0.126,0.022,0.19c0.214,1.585,0.291,3.098,0.252,4.544
				c-0.007,0.241-0.007,0.484-0.021,0.721c-0.018,0.322-0.052,0.634-0.082,0.948c-0.027,0.271-0.053,0.543-0.088,0.809
				c-0.039,0.288-0.088,0.569-0.139,0.85c-0.049,0.281-0.102,0.56-0.162,0.833c-0.059,0.26-0.121,0.516-0.188,0.77
				c-0.076,0.284-0.158,0.563-0.246,0.839c-0.073,0.233-0.147,0.465-0.229,0.692c-0.104,0.29-0.221,0.571-0.339,0.85
				c-0.086,0.202-0.167,0.406-0.26,0.603c-0.145,0.309-0.305,0.607-0.468,0.903c-0.085,0.155-0.162,0.315-0.252,0.467
				c-0.261,0.442-0.539,0.872-0.84,1.284l0,0c-0.388,0.531-0.808,1.036-1.26,1.516c-5.792-1.69-19.669,2.357-30.661,1.656
				c-0.548-0.051-1.087-0.116-1.619-0.191c-0.141-0.02-0.278-0.043-0.418-0.064c-0.393-0.061-0.78-0.129-1.164-0.204
				c-0.167-0.033-0.334-0.067-0.5-0.104c-0.365-0.08-0.725-0.169-1.081-0.265c-0.15-0.04-0.303-0.077-0.451-0.12
				c-0.491-0.143-0.974-0.297-1.442-0.473c-1.274-0.479-2.482-0.915-3.654-1.328c-1.803-0.877-3.127-1.632-3.764-2.089
				c-1.377-0.988-3.021-2.799-4.768-4.626C45.119,42.563,35.294-2.905,32.976,0.146c-13.21,17.384,3.209,47.859,1.518,48.826
				c-3.488,1.994-15.535-42.878-19.308-38.219c-10.625,13.113,7.538,39.701,6.515,42.322C20.675,55.697,8.226,32.267,6.492,33.763
				c-9.472,8.171,12.602,32.963,10.622,34.279S3.353,49.454,1.606,51.985c-6.361,9.213,7.053,32.519,24.665,48.048
				c-0.162,0.027-0.316,0.06-0.463,0.094c-0.087,0.021-0.171,0.043-0.254,0.065c-0.1,0.027-0.201,0.055-0.292,0.086
				c-0.15,0.052-0.287,0.108-0.414,0.169c-0.061,0.029-0.114,0.061-0.169,0.093c-0.094,0.054-0.179,0.111-0.256,0.172
				c-0.033,0.026-0.071,0.051-0.101,0.078c-0.095,0.087-0.167,0.183-0.226,0.283c-0.018,0.031-0.032,0.063-0.046,0.096
				c-0.044,0.099-0.073,0.201-0.083,0.312c-0.001,0.016-0.007,0.029-0.008,0.046c-0.005,0.126,0.02,0.262,0.063,0.403
				c0.01,0.035,0.023,0.07,0.037,0.106c0.055,0.148,0.126,0.302,0.235,0.466c0.24,0.365,0.499,0.71,0.766,1.045
				c0.06,0.075,0.121,0.15,0.182,0.225c0.27,0.325,0.549,0.639,0.842,0.935c0.024,0.024,0.049,0.047,0.073,0.071
				c0.283,0.281,0.577,0.549,0.878,0.805c0.057,0.049,0.114,0.098,0.171,0.146c0.327,0.27,0.662,0.526,1.006,0.769
				c0.026,0.019,0.054,0.036,0.08,0.054c0.342,0.237,0.691,0.46,1.047,0.67c0.031,0.019,0.061,0.037,0.091,0.056
				c0.38,0.222,0.768,0.429,1.161,0.622c0.015,0.008,0.03,0.015,0.045,0.021c0.809,0.396,1.641,0.732,2.48,1.016
				c0.001,0,0.002,0.001,0.004,0.002c-0.197,0.049-0.375,0.104-0.55,0.16c-0.062,0.02-0.127,0.037-0.187,0.058
				c-0.146,0.052-0.277,0.107-0.406,0.164c-0.072,0.032-0.145,0.063-0.211,0.097c-0.107,0.055-0.203,0.111-0.295,0.171
				c-0.067,0.042-0.13,0.087-0.188,0.132c-0.073,0.058-0.139,0.116-0.197,0.178c-0.053,0.055-0.096,0.112-0.136,0.17
				c-0.041,0.06-0.081,0.119-0.108,0.182c-0.03,0.069-0.044,0.143-0.058,0.215c-0.011,0.06-0.027,0.117-0.026,0.18
				c0,0.09,0.025,0.184,0.05,0.279c0.014,0.053,0.017,0.104,0.039,0.158c0.062,0.153,0.15,0.313,0.278,0.479
				c0.177,0.231,0.384,0.455,0.605,0.675c0.057,0.057,0.116,0.111,0.176,0.168c0.212,0.197,0.437,0.39,0.682,0.576
				c0.023,0.018,0.043,0.035,0.066,0.053c0.275,0.206,0.573,0.404,0.884,0.596c0.065,0.041,0.132,0.08,0.198,0.119
				c0.294,0.175,0.6,0.345,0.92,0.509c0.028,0.015,0.055,0.029,0.083,0.044c0.365,0.184,0.747,0.359,1.141,0.527
				c0.042,0.019,0.084,0.035,0.126,0.053c0.386,0.163,0.783,0.32,1.192,0.469c0.012,0.004,0.024,0.01,0.037,0.014
				c0.888,0.322,1.825,0.611,2.789,0.867c0.001,0,0.002,0,0.003,0c-0.377,0.08-0.681,0.205-0.901,0.379
				c-0.035,0.027-0.069,0.056-0.1,0.086c-0.049,0.048-0.097,0.098-0.134,0.152c-0.055,0.078-0.098,0.164-0.127,0.256
				c-0.013,0.043-0.02,0.09-0.028,0.136c-0.017,0.097-0.022,0.2-0.014,0.311c0.003,0.045,0.008,0.09,0.016,0.137
				c0.025,0.153,0.064,0.315,0.138,0.497c0.108,0.266,0.242,0.519,0.388,0.764c0.042,0.07,0.086,0.139,0.131,0.207
				c0.123,0.189,0.257,0.371,0.401,0.549c0.042,0.052,0.082,0.105,0.126,0.157c0.189,0.218,0.393,0.425,0.612,0.624
				c0.049,0.043,0.102,0.084,0.152,0.128c0.182,0.157,0.374,0.308,0.573,0.453c0.071,0.052,0.143,0.103,0.216,0.153
				c0.241,0.164,0.49,0.323,0.752,0.473c0.017,0.01,0.033,0.02,0.05,0.029c0.283,0.159,0.579,0.307,0.883,0.447
				c0.08,0.037,0.161,0.072,0.243,0.107c0.249,0.11,0.503,0.215,0.763,0.314c0.07,0.025,0.138,0.054,0.209,0.08
				c0.33,0.119,0.666,0.232,1.01,0.336c0.046,0.014,0.094,0.025,0.141,0.039c0.306,0.09,0.616,0.173,0.931,0.25
				c0.079,0.02,0.157,0.039,0.236,0.057c0.73,0.172,1.479,0.311,2.233,0.418c0.053,0.008,0.106,0.015,0.16,0.021
				c0.35,0.049,0.7,0.091,1.051,0.126c0.036,0.004,0.072,0.009,0.108,0.012c0.786,0.077,1.568,0.122,2.333,0.139
				c0.033,0.001,0.066,0.002,0.1,0.003c0.773,0.015,1.527,0.002,2.246-0.038c0.003-0.001,0.005-0.001,0.008-0.001
				c0.097,0.162,0.194,0.324,0.292,0.488c0.067,0.111,0.135,0.225,0.204,0.337c0.09,0.149,0.181,0.298,0.272,0.446
				c0.076,0.125,0.152,0.248,0.229,0.372c0.091,0.147,0.183,0.296,0.275,0.444c0.067,0.105,0.136,0.213,0.204,0.318
				c0.194,0.306,0.392,0.609,0.593,0.912c0.057,0.086,0.114,0.172,0.171,0.258c0.113,0.166,0.228,0.332,0.343,0.496
				c0.061,0.088,0.122,0.175,0.183,0.262c0.121,0.17,0.243,0.339,0.367,0.507c0.052,0.069,0.104,0.139,0.156,0.208
				c0.627,0.836,1.289,1.627,1.993,2.344c0.025,0.025,0.05,0.052,0.075,0.077c0.173,0.175,0.349,0.343,0.527,0.507
				c0.02,0.019,0.04,0.037,0.06,0.055c1.472,1.343,3.124,2.323,5.011,2.665c1.391,7.058,2.03,11.753,1.591,15.212
				c-1.147,0.367-2.665,1.234-3.935,2.188c-0.333-0.541-0.732-0.987-1.131-0.953c-0.985,0.083-1.724,0.583-1.314,2.75h0.493h2.792
				h9.818h2.955h0.328c0.411-2.167-0.328-2.667-1.313-2.75c-0.467-0.04-0.933,0.576-1.295,1.234
				c-1.438-0.825-3.096-1.613-4.414-2.113c-0.973-3.357-2.004-9.208-0.287-15.884c1.969-0.606,4.145-1.849,6.578-3.95
				c1.954,2.285,4.168,4.189,6.644,4.979c0.824,7.162,1.028,11.813,0.14,15.221c-0.688,0.387-1.399,0.863-2.053,1.371
				c-0.321-0.497-0.696-0.89-1.072-0.857c-0.984,0.083-1.724,0.583-1.313,2.75h0.411h2.873h9.818h2.046h1.237
				c0.411-2.167-0.328-2.667-1.313-2.75c-0.555-0.047-1.109,0.83-1.488,1.605c-2.016-1.302-4.75-2.606-6.128-2.94
				c-0.612-3.188-1.011-8.298,0.722-14.144c3.309-0.61,6.996-3.391,11.063-9.654c0.906-1.395,1.543-2.561,1.977-3.557
				c15.563-9.887,26.104-27.876,26.176-42.066c0-0.049,0.003-0.1,0.003-0.148c0-0.457-0.009-0.912-0.03-1.361
				c-0.859-17.455-7.1-23.89-9.244-29.26c-0.003-0.009-0.006-0.017-0.01-0.025c-0.101-0.254-0.19-0.506-0.271-0.756
				c-0.016-0.049-0.031-0.098-0.047-0.147c-0.065-0.213-0.122-0.426-0.173-0.638c-0.018-0.075-0.034-0.15-0.05-0.226
				c-0.039-0.189-0.07-0.378-0.096-0.567c-0.014-0.093-0.025-0.186-0.034-0.279c-0.017-0.174-0.025-0.35-0.03-0.526
				c-0.002-0.106-0.004-0.212-0.002-0.319c0.003-0.167,0.016-0.336,0.031-0.505c0.012-0.117,0.021-0.233,0.038-0.352
				c0.022-0.164,0.057-0.332,0.093-0.499c0.025-0.126,0.051-0.252,0.084-0.38c0.044-0.165,0.1-0.334,0.154-0.503
				c0.045-0.135,0.087-0.27,0.139-0.408c0.065-0.17,0.145-0.345,0.221-0.52c0.063-0.143,0.123-0.284,0.195-0.431
				c0.088-0.179,0.191-0.364,0.293-0.548c0.082-0.15,0.159-0.299,0.252-0.453c0.114-0.192,0.248-0.394,0.378-0.593
				c0.101-0.154,0.192-0.305,0.303-0.463c0.093-0.135,0.204-0.278,0.304-0.415c-0.027,0.553-0.06,1.13-0.096,1.723
				c-0.465,2.239-0.082,6.099,0.788,9.117c0.277,0.962,1.079,2.081,2.096,2.864c0.933,0.861,1.98,1.217,2.993,1.089
				c4.979-0.634-0.728-11.208-2.264-13.489c-0.869-1.293-0.808-2.825-0.346-4.389c0.801-0.489,3.265-1.632,7.075-0.167
				C135.297,39.169,136.56,37.768,135.003,35.542z"/>
		</g>
	</mask>
	<linearGradient id="SVGID_3_" gradientUnits="userSpaceOnUse" x1="67.8062" y1="39.3491" x2="67.8061" y2="152.7073">
		<stop  offset="0.0215" style="stop-color:#FFD995"/>
		<stop  offset="1" style="stop-color:#260C44"/>
	</linearGradient>
	<path opacity="0.6" fill="url(#SVGID_3_)" d="M135.003,35.542c-0.466-1.094-2.201-2.792-4.48-4.225
		c-1.947-1.223-3.654-1.898-4.959-2.27c0.041-0.822-0.419-1.346-1.781-1.41c-0.246-0.012-0.466-0.002-0.685,0.007
		c-0.282-4.051-1.451-8.467-3.994-11.307c-0.536-0.705-1.15-1.341-1.861-1.874c-3.126-2.789-7.632-3.958-12.651-3.121
		c-1.087,0.182-0.906,0.906,2.445,1.901c2.743,0.815-6.125-0.581-8.148,0.633c-0.906,0.544,3.35,1.54,4.254,2.083
		c0.906,0.542-10.771-1.268-12.221,0.905c-1.211,1.818,7.146,2.052,9.693,2.928c-1.47,2.437-2.421,5.386-2.467,8.682
		c-0.02,1.404,0.123,2.802,0.396,4.152c0.423,3.713,1.583,7.417,3.301,10.552c0.431,0.785,0.832,1.56,1.217,2.328
		c0.064,0.13,0.132,0.26,0.195,0.389c0.319,0.647,0.615,1.285,0.902,1.919l0,0c0.285,0.631,0.548,1.252,0.803,1.87
		c0.057,0.139,0.117,0.279,0.174,0.417c0.229,0.569,0.439,1.13,0.642,1.688c0.065,0.181,0.132,0.361,0.195,0.541
		c0.187,0.534,0.36,1.062,0.523,1.584c0.06,0.193,0.118,0.385,0.175,0.576c0.152,0.511,0.295,1.017,0.424,1.517
		c0.049,0.191,0.092,0.379,0.139,0.568c0.12,0.498,0.235,0.993,0.333,1.479c0.033,0.168,0.06,0.333,0.091,0.499
		c0.093,0.502,0.184,1.002,0.252,1.491c0.01,0.064,0.014,0.126,0.022,0.19c0.214,1.585,0.291,3.098,0.252,4.544
		c-0.007,0.241-0.007,0.484-0.021,0.721c-0.018,0.322-0.052,0.634-0.082,0.948c-0.027,0.271-0.053,0.543-0.088,0.809
		c-0.039,0.288-0.088,0.569-0.139,0.85c-0.049,0.281-0.102,0.56-0.162,0.833c-0.059,0.26-0.121,0.516-0.188,0.77
		c-0.076,0.284-0.158,0.563-0.246,0.839c-0.073,0.233-0.147,0.465-0.229,0.692c-0.104,0.29-0.221,0.571-0.339,0.85
		c-0.086,0.202-0.167,0.406-0.26,0.603c-0.145,0.309-0.305,0.607-0.468,0.903c-0.085,0.155-0.162,0.315-0.252,0.467
		c-0.261,0.442-0.539,0.872-0.84,1.284l0,0c-0.388,0.531-0.808,1.036-1.26,1.516c-5.792-1.69-19.669,2.357-30.661,1.656
		c-0.548-0.051-1.087-0.116-1.619-0.191c-0.141-0.02-0.278-0.043-0.418-0.064c-0.393-0.061-0.78-0.129-1.164-0.204
		c-0.167-0.033-0.334-0.067-0.5-0.104c-0.365-0.08-0.725-0.169-1.081-0.265c-0.15-0.04-0.303-0.077-0.451-0.12
		c-0.491-0.143-0.974-0.297-1.442-0.473c-1.274-0.479-2.482-0.915-3.654-1.328c-1.803-0.877-3.127-1.632-3.764-2.089
		c-1.377-0.988-3.021-2.799-4.768-4.626C45.119,42.563,35.294-2.905,32.976,0.146c-13.21,17.384,3.209,47.859,1.518,48.826
		c-3.488,1.994-15.535-42.878-19.308-38.219c-10.625,13.113,7.538,39.701,6.515,42.322C20.675,55.697,8.226,32.267,6.492,33.763
		c-9.472,8.171,12.602,32.963,10.622,34.279S3.353,49.454,1.606,51.985c-6.361,9.213,7.053,32.519,24.665,48.048
		c-0.162,0.027-0.316,0.06-0.463,0.094c-0.087,0.021-0.171,0.043-0.254,0.065c-0.1,0.027-0.201,0.055-0.292,0.086
		c-0.15,0.052-0.287,0.108-0.414,0.169c-0.061,0.029-0.114,0.061-0.169,0.093c-0.094,0.054-0.179,0.111-0.256,0.172
		c-0.033,0.026-0.071,0.051-0.101,0.078c-0.095,0.087-0.167,0.183-0.226,0.283c-0.018,0.031-0.032,0.063-0.046,0.096
		c-0.044,0.099-0.073,0.201-0.083,0.312c-0.001,0.016-0.007,0.029-0.008,0.046c-0.005,0.126,0.02,0.262,0.063,0.403
		c0.01,0.035,0.023,0.07,0.037,0.106c0.055,0.148,0.126,0.302,0.235,0.466c0.24,0.365,0.499,0.71,0.766,1.045
		c0.06,0.075,0.121,0.15,0.182,0.225c0.27,0.325,0.549,0.639,0.842,0.935c0.024,0.024,0.049,0.047,0.073,0.071
		c0.283,0.281,0.577,0.549,0.878,0.805c0.057,0.049,0.114,0.098,0.171,0.146c0.327,0.27,0.662,0.526,1.006,0.769
		c0.026,0.019,0.054,0.036,0.08,0.054c0.342,0.237,0.691,0.46,1.047,0.67c0.031,0.019,0.061,0.037,0.091,0.056
		c0.38,0.222,0.768,0.429,1.161,0.622c0.015,0.008,0.03,0.015,0.045,0.021c0.809,0.396,1.641,0.732,2.48,1.016
		c0.001,0,0.002,0.001,0.004,0.002c-0.197,0.049-0.375,0.104-0.55,0.16c-0.062,0.02-0.127,0.037-0.187,0.058
		c-0.146,0.052-0.277,0.107-0.406,0.164c-0.072,0.032-0.145,0.063-0.211,0.097c-0.107,0.055-0.203,0.111-0.295,0.171
		c-0.067,0.042-0.13,0.087-0.188,0.132c-0.073,0.058-0.139,0.116-0.197,0.178c-0.053,0.055-0.096,0.112-0.136,0.17
		c-0.041,0.06-0.081,0.119-0.108,0.182c-0.03,0.069-0.044,0.143-0.058,0.215c-0.011,0.06-0.027,0.117-0.026,0.18
		c0,0.09,0.025,0.184,0.05,0.279c0.014,0.053,0.017,0.104,0.039,0.158c0.062,0.153,0.15,0.313,0.278,0.479
		c0.177,0.231,0.384,0.455,0.605,0.675c0.057,0.057,0.116,0.111,0.176,0.168c0.212,0.197,0.437,0.39,0.682,0.576
		c0.023,0.018,0.043,0.035,0.066,0.053c0.275,0.206,0.573,0.404,0.884,0.596c0.065,0.041,0.132,0.08,0.198,0.119
		c0.294,0.175,0.6,0.345,0.92,0.509c0.028,0.015,0.055,0.029,0.083,0.044c0.365,0.184,0.747,0.359,1.141,0.527
		c0.042,0.019,0.084,0.035,0.126,0.053c0.386,0.163,0.783,0.32,1.192,0.469c0.012,0.004,0.024,0.01,0.037,0.014
		c0.888,0.322,1.825,0.611,2.789,0.867c0.001,0,0.002,0,0.003,0c-0.377,0.08-0.681,0.205-0.901,0.379
		c-0.035,0.027-0.069,0.056-0.1,0.086c-0.049,0.048-0.097,0.098-0.134,0.152c-0.055,0.078-0.098,0.164-0.127,0.256
		c-0.013,0.043-0.02,0.09-0.028,0.136c-0.017,0.097-0.022,0.2-0.014,0.311c0.003,0.045,0.008,0.09,0.016,0.137
		c0.025,0.153,0.064,0.315,0.138,0.497c0.108,0.266,0.242,0.519,0.388,0.764c0.042,0.07,0.086,0.139,0.131,0.207
		c0.123,0.189,0.257,0.371,0.401,0.549c0.042,0.052,0.082,0.105,0.126,0.157c0.189,0.218,0.393,0.425,0.612,0.624
		c0.049,0.043,0.102,0.084,0.152,0.128c0.182,0.157,0.374,0.308,0.573,0.453c0.071,0.052,0.143,0.103,0.216,0.153
		c0.241,0.164,0.49,0.323,0.752,0.473c0.017,0.01,0.033,0.02,0.05,0.029c0.283,0.159,0.579,0.307,0.883,0.447
		c0.08,0.037,0.161,0.072,0.243,0.107c0.249,0.11,0.503,0.215,0.763,0.314c0.07,0.025,0.138,0.054,0.209,0.08
		c0.33,0.119,0.666,0.232,1.01,0.336c0.046,0.014,0.094,0.025,0.141,0.039c0.306,0.09,0.616,0.173,0.931,0.25
		c0.079,0.02,0.157,0.039,0.236,0.057c0.73,0.172,1.479,0.311,2.233,0.418c0.053,0.008,0.106,0.015,0.16,0.021
		c0.35,0.049,0.7,0.091,1.051,0.126c0.036,0.004,0.072,0.009,0.108,0.012c0.786,0.077,1.568,0.122,2.333,0.139
		c0.033,0.001,0.066,0.002,0.1,0.003c0.773,0.015,1.527,0.002,2.246-0.038c0.003-0.001,0.005-0.001,0.008-0.001
		c0.097,0.162,0.194,0.324,0.292,0.488c0.067,0.111,0.135,0.225,0.204,0.337c0.09,0.149,0.181,0.298,0.272,0.446
		c0.076,0.125,0.152,0.248,0.229,0.372c0.091,0.147,0.183,0.296,0.275,0.444c0.067,0.105,0.136,0.213,0.204,0.318
		c0.194,0.306,0.392,0.609,0.593,0.912c0.057,0.086,0.114,0.172,0.171,0.258c0.113,0.166,0.228,0.332,0.343,0.496
		c0.061,0.088,0.122,0.175,0.183,0.262c0.121,0.17,0.243,0.339,0.367,0.507c0.052,0.069,0.104,0.139,0.156,0.208
		c0.627,0.836,1.289,1.627,1.993,2.344c0.025,0.025,0.05,0.052,0.075,0.077c0.173,0.175,0.349,0.343,0.527,0.507
		c0.02,0.019,0.04,0.037,0.06,0.055c1.472,1.343,3.124,2.323,5.011,2.665c1.391,7.058,2.03,11.753,1.591,15.212
		c-1.147,0.367-2.665,1.234-3.935,2.188c-0.333-0.541-0.732-0.987-1.131-0.953c-0.985,0.083-1.724,0.583-1.314,2.75h0.493h2.792
		h9.818h2.955h0.328c0.411-2.167-0.328-2.667-1.313-2.75c-0.467-0.04-0.933,0.576-1.295,1.234c-1.438-0.825-3.096-1.613-4.414-2.113
		c-0.973-3.357-2.004-9.208-0.287-15.884c1.969-0.606,4.145-1.849,6.578-3.95c1.954,2.285,4.168,4.189,6.644,4.979
		c0.824,7.162,1.028,11.813,0.14,15.221c-0.688,0.387-1.399,0.863-2.053,1.371c-0.321-0.497-0.696-0.89-1.072-0.857
		c-0.984,0.083-1.724,0.583-1.313,2.75h0.411h2.873h9.818h2.046h1.237c0.411-2.167-0.328-2.667-1.313-2.75
		c-0.555-0.047-1.109,0.83-1.488,1.605c-2.016-1.302-4.75-2.606-6.128-2.94c-0.612-3.188-1.011-8.298,0.722-14.144
		c3.309-0.61,6.996-3.391,11.063-9.654c0.906-1.395,1.543-2.561,1.977-3.557c15.563-9.887,26.104-27.876,26.176-42.066
		c0-0.049,0.003-0.1,0.003-0.148c0-0.457-0.009-0.912-0.03-1.361c-0.859-17.455-7.1-23.89-9.244-29.26
		c-0.003-0.009-0.006-0.017-0.01-0.025c-0.101-0.254-0.19-0.506-0.271-0.756c-0.016-0.049-0.031-0.098-0.047-0.147
		c-0.065-0.213-0.122-0.426-0.173-0.638c-0.018-0.075-0.034-0.15-0.05-0.226c-0.039-0.189-0.07-0.378-0.096-0.567
		c-0.014-0.093-0.025-0.186-0.034-0.279c-0.017-0.174-0.025-0.35-0.03-0.526c-0.002-0.106-0.004-0.212-0.002-0.319
		c0.003-0.167,0.016-0.336,0.031-0.505c0.012-0.117,0.021-0.233,0.038-0.352c0.022-0.164,0.057-0.332,0.093-0.499
		c0.025-0.126,0.051-0.252,0.084-0.38c0.044-0.165,0.1-0.334,0.154-0.503c0.045-0.135,0.087-0.27,0.139-0.408
		c0.065-0.17,0.145-0.345,0.221-0.52c0.063-0.143,0.123-0.284,0.195-0.431c0.088-0.179,0.191-0.364,0.293-0.548
		c0.082-0.15,0.159-0.299,0.252-0.453c0.114-0.192,0.248-0.394,0.378-0.593c0.101-0.154,0.192-0.305,0.303-0.463
		c0.093-0.135,0.204-0.278,0.304-0.415c-0.027,0.553-0.06,1.13-0.096,1.723c-0.465,2.239-0.082,6.099,0.788,9.117
		c0.277,0.962,1.079,2.081,2.096,2.864c0.933,0.861,1.98,1.217,2.993,1.089c4.979-0.634-0.728-11.208-2.264-13.489
		c-0.869-1.293-0.808-2.825-0.346-4.389c0.801-0.489,3.265-1.632,7.075-0.167C135.297,39.169,136.56,37.768,135.003,35.542z"/>
</g>
</svg>
