<?xml version="1.0" encoding="utf-8"?>
<!-- Generator: Adobe Illustrator 15.0.0, SVG Export Plug-In . SVG Version: 6.00 Build 0)  -->
<!DOCTYPE svg PUBLIC "-//W3C//DTD SVG 1.1//EN" "http://www.w3.org/Graphics/SVG/1.1/DTD/svg11.dtd">
<svg version="1.1" id="Layer_1" xmlns="http://www.w3.org/2000/svg" xmlns:xlink="http://www.w3.org/1999/xlink" x="0px" y="0px"
	 width="265.732px" height="270.519px" viewBox="0 0 265.732 270.519" enable-background="new 0 0 265.732 270.519"
	 xml:space="preserve">
<g>
	<g>
		<path fill="#89441F" d="M86.655,269.266l-16.716,0.687c0,0,5.822-16.425,11.797-16.498
			C87.715,253.381,86.655,269.266,86.655,269.266z"/>
		<path fill="#AF6937" d="M64.191,6.021c6.157,1.048,15.174,5.353,23.686,13.73c4.226,2.499,8.888,4.822,12.788,5.67
			c-1.755,1.27-3.736,2.068-5.77,2.459c1.276,1.727,2.516,3.557,3.702,5.507c4.556,5.472,10.967,12.15,15.646,12.902
			c-2.859,1.339-5.996,1.634-8.929,1.094c0.141,0.389,0.304,0.747,0.444,1.14c0.354,1.001,0.69,2.031,1.016,3.075
			c3.204,7.508,8.503,18.729,13.197,22.978c-3.04-1.016-6.152-3.087-8.867-5.67c0.567,2.716,1.108,5.42,1.639,8.072
			c1.915,6.723,4.456,13.938,7.285,17.519c-1.423-0.758-2.818-1.792-4.146-3.005c2.5,9.867,5.546,16.689,10.797,16.058
			c-2.279,8.83-18.425,12.025-29.134,2.669c-10.709-9.355,6.929-63.285-36.909-86.634C60.636,23.584,66.71,12.959,64.191,6.021z"/>
		<g>
			<path fill="#965426" d="M113.016,77.901c1.878,6.45,4.315,13.178,7.012,16.595c-1.423-0.758-2.818-1.792-4.146-3.005
				c2.5,9.867,5.546,16.689,10.797,16.058c-2.279,8.83-18.425,12.025-29.134,2.669c-6.063-5.296-3.046-24.875-7.235-45.109
				C97.794,71.039,105.615,75.372,113.016,77.901z"/>
			<path fill="#965426" d="M61.17,23.894c-0.184-0.1-0.347-0.21-0.535-0.31c0,0,0.124-0.221,0.318-0.59
				C61.024,23.293,61.092,23.592,61.17,23.894z"/>
		</g>
		<path fill="#AF6937" d="M265.732,191.994c-14.926,14.73-68.662,9.095-59.18-48.748c3.67-22.388-10.445-39.455-22.339-36.85
			c0,0,19.093-11.696,41.25,7.482C243.764,129.718,220.691,195.254,265.732,191.994z"/>
		<g>
			<path fill="#965426" d="M263.299,192.059c-0.415,0.018-0.822,0.028-1.226,0.034C262.466,192.097,262.895,192.066,263.299,192.059
				z"/>
			<path fill="#965426" d="M222.861,113.319c-14.17-13.724-24.859-7.943-32.487-6.604c-2.054-0.623-4.139-0.761-6.16-0.318
				c0,0,25.656-11.669,43.368,7.355c16.151,17.35-5.451,77.424,34.025,78.341C216.175,191.039,238.695,128.659,222.861,113.319z"/>
		</g>
		<path fill="#965426" d="M198.123,102.877c13.898-1.575,29.297,14.645,25.22,33.624c-9.665,44.965,22.919,63.326,41.841,55.976
			c-15.617,14.1-68.004,7.953-58.631-49.23c3.67-22.388-10.445-39.455-22.339-36.85
			C184.213,106.396,189.666,103.061,198.123,102.877z"/>
		<path fill="#713D18" d="M198.123,102.877c47.785,21.96,1.244,60.538,21.177,87.012c-10.083-8.423-16.582-23.261-12.747-46.643
			c3.67-22.388-10.445-39.455-22.339-36.85C184.213,106.396,189.666,103.061,198.123,102.877z"/>
		<path fill="#89441F" d="M177.698,266.903l-20.743,0.853c0,0,7.398-16.063,14.814-16.198
			C179.182,251.422,177.698,266.903,177.698,266.903z"/>
		<path fill="#A45926" d="M183.488,213.356c-20.332-5.2-73.73-33.518-68.735-66.583c4.999-33.063,52.32-68.03,72.007-17.037
			c3.951,10.23-2.324,37.177-8.265,47.949C172.254,189.006,183.488,213.356,183.488,213.356z"/>
		<path fill="#A45926" d="M165.227,249.981c5.761-14.317,14.237-31.43-9.722-56.265l22.691,6.781
			c2.922,10.942,9.412,10.621,6.726,17.661c-11.63,30.486-0.507,37.597-7.229,38.857
			C167.359,258.947,163.787,253.561,165.227,249.981z"/>
		<path fill="#A45926" d="M97.052,170.893c-0.203,11.696-7.167,38.418-14.271,43.645c-7.354,5.418-29.507-45.531-32.538-55.175
			C47.322,150.058,97.052,170.893,97.052,170.893z"/>
		<path fill="#A45926" d="M82.333,255.469c4.661,0.141,7.674-2.99,5.1-9.036c-2.737-6.416-4.074-24.67-1.836-32.177
			c0.852-2.871-0.473-7.932-5.893-10.736c-3.488-1.805-4.192-1.775-5.786,3.07c-1.602,4.846-1.174,8.369,1.157,11.284
			c2.328,2.915,8.49,19.565,1.829,30.052C75.314,250.432,77.374,255.318,82.333,255.469z"/>
		<path fill="#BF7039" d="M205.478,121.405c-1.053,43.157-62.217,100.731-126.36,68.722c-57.834-28.864-26.072-93.433-26.072-93.433
			l28.353-70.256c39.442,51.588,12.531,92.401,35.227,84.321C149.506,99.058,206.667,72.914,205.478,121.405z"/>
		<path fill="#CC8756" d="M205.478,121.405c-1.053,43.157-53.642,93.278-118.023,61.749C41.379,160.591,59.233,99.03,59.233,99.03
			l22.166-72.592c39.442,51.588,12.531,92.401,35.227,84.321C149.506,99.058,206.667,72.914,205.478,121.405z"/>
		<path fill="#A45926" d="M55.509,90.405c20.459-11.423,29.354-25.74,28.089-50.849l-14.529,16.43L55.509,90.405z"/>
		<path fill="#CC885A" d="M117.746,170.273c-0.283,12.454-7.941,38.711-15.42,43.521c-7.479,4.806-34.604-43.317-38.989-53.461
			C58.949,150.188,117.746,170.273,117.746,170.273z"/>
		<path fill="#885B3D" d="M106.922,269.81l-17.269,0.709c0,0,6.018-16.836,12.187-16.911
			C108.017,253.53,106.922,269.81,106.922,269.81z"/>
		<path fill="#885B3D" d="M206.417,265.726l-20.745,0.852c0,0,7.364-16.893,14.78-17.018
			C207.866,249.431,206.417,265.726,206.417,265.726z"/>
		<path fill="#CC885A" d="M212.089,209.375c-20.344-5.52-73.809-35.442-68.885-70.233c4.925-34.792,52.179-71.495,71.977-17.779
			c3.974,10.776-2.248,39.127-8.162,50.454C200.798,183.719,212.089,209.375,212.089,209.375z"/>
		<path fill="#CC885A" d="M193.907,247.886c5.733-15.06,14.17-33.052-9.848-59.244l22.708,7.185
			c2.946,11.527,9.436,11.201,6.764,18.604c-11.564,32.065-0.425,39.574-7.143,40.884
			C196.058,257.328,192.474,251.651,193.907,247.886z"/>
		<path fill="#CC885A" d="M102.585,258.872c4.658,0.139,7.646-4.758,4.518-10.42c-3.242-5.869-2.453-22.338,0.007-29.827
			c0.945-2.861-0.226-7.914-5.555-10.714c-3.428-1.801-4.133-1.772-5.874,3.065c-1.742,4.837-1.421,8.352,0.815,11.261
			c2.236,2.91,4.148,19.245-1.059,30.044C94.133,254.984,97.642,258.72,102.585,258.872z"/>
		<path fill="#CC885A" d="M43.22,24.938C39.539,15.826,38.752,13.218,48.281,0c0,0,4.334,15.273,1.474,24.285L43.22,24.938z"/>
		<path fill="#EBA372" d="M45.813,24.177c-3.681-9.112-3.904-10.881,2.683-22.529c0,0,4.557,11.729,1.26,22.638L45.813,24.177z"/>
		<path fill="#DA9565" d="M75.607,27.204c8.824-4.332,11.146-5.75,12.861-21.971c0,0-13.415,8.492-17.297,17.125L75.607,27.204z"/>
		<path fill="#CC885A" d="M44.29,83.286c6.812-4.215,21.537-10.978,30.696-20.646c10.139-10.701,14.031-24.738,5.277-38.011
			C63.61-0.627,40.539,24.145,40.539,24.145C29.895,35.7,31.208,67.678,19.143,76.907C19.143,76.907,30.089,92.077,44.29,83.286z"/>
		<path fill="#CC8756" d="M35.358,33.275c6.522-17.089,38.37-35.641,47.63,0.896c0.59,18.684-37.063,43.745-43.95,48.007
			c-14.2,8.789-19.895-5.271-19.895-5.271C28.774,69.539,29.887,47.674,35.358,33.275z"/>
		<path fill="#DA9565" d="M35.471,33.771c3.013-16.349,39.237-37.04,48.498-0.5c0.59,18.681-38.059,44.624-44.931,48.907
			C18.237,95.149,29.999,48.17,35.471,33.771z"/>
		<path fill="#CC885A" d="M66.68,37.899c0.515,6.798-14.601,28.113-25.026,26.188c-10.426-1.923-7.917-26.717-5.545-31.988
			C36.108,32.1,62.487,33.134,66.68,37.899z"/>
		<path fill="#DA9565" d="M42.264,82.797c0,0,13.958-26.597,2.262-28.938c-11.7-2.342-20.923,25.001-20.923,25.001L42.264,82.797z"
			/>
		<path fill="#7D4B2F" d="M45.947,91.426c-0.312,5.309-6.953,11.138-14.924,10.407c-7.974-0.733-13.719-5.262-9.721-10.983
			L45.947,91.426z"/>
		<path fill="#B56840" d="M41.998,92.434c-0.161,4.045-4.958,8.552-10.816,8.075c-5.858-0.475-10.131-3.864-7.272-8.26
			L41.998,92.434z"/>
		<path fill="#E9C93B" d="M19.279,86.695c-7.594-4.451-16.587-10.7-17.304-8.818c-0.716,1.884,15.202,9.171,15.202,9.171
			S3.05,84.716,0,87.753c0,0,11.165,1.13,19.97,2.886L19.279,86.695z"/>
		<path fill="#E9C93B" d="M42.135,93.17c7.304,4.91,17.851,13.639,18.683,11.806c0.828-1.837-14.623-11.796-14.623-11.796
			s14.518,5.292,17.748,2.446c3.235-2.842-11.616-2.202-20.305-4.491L42.135,93.17z"/>
		<path fill="#E9C93B" d="M40.924,93.233c6.409,4.68,15.435,13.311,13.224,13.588c-3.166,0.392-14.975-12.683-14.975-12.683
			L40.924,93.233z"/>
		<path fill="#935430" d="M49.868,90.206c0.864-0.615,1.997-14.821-3.484-13.888c-18.4,3.138-24.011-4.573-28.892-0.931
			c-4.114,3.072-1.91,11.46,0.883,15.052C21.171,94.031,33.664,101.725,49.868,90.206z"/>
		<path fill="#67462F" d="M54.888,42.339c-1.726-0.16-3.23,0.701-3.837,2.041c-0.034-0.214-0.054-0.433-0.045-0.654
			c0.084-1.98,1.936-3.421,4.134-3.213c2.195,0.205,3.914,1.979,3.826,3.961c-0.016,0.42-0.128,0.811-0.294,1.171
			C58.404,43.943,56.835,42.523,54.888,42.339z"/>
		<path fill="#67462F" d="M39.242,39.74c-1.705,0.07-3.271,1.209-3.991,2.732c-0.013-0.227-0.016-0.456,0.011-0.7
			c0.25-2.136,2.215-3.944,4.38-4.032c2.167-0.09,3.73,1.569,3.481,3.709c-0.055,0.456-0.198,0.888-0.392,1.3
			C42.603,40.961,41.165,39.658,39.242,39.74z"/>
		<g>
			<path fill="#DA9565" d="M69.086,171.053C34.483,114.783,88.616,73.996,102.33,69.9c6.631,28.615-1.414,46.452,14.295,40.86
				c22.13-7.877,54.509-23.297,73.444-17.102c11.935,2.514,35.644,20.485,23.442,58.9C181.786,174.968,89.54,204.313,69.086,171.053
				z"/>
		</g>
		<path fill="#BF7039" d="M144.794,151.642c4.288,7.521,14.525,25.244,21.215,31.768l-9.658,5.382
			C146.451,176.655,142.875,158.305,144.794,151.642z"/>
		<path fill="#DA9565" d="M212.089,209.375c-20.344-5.52-73.809-35.442-68.885-70.233c4.925-34.792,52.179-71.495,71.977-17.779
			c3.974,10.776-2.248,39.127-8.162,50.454C200.798,183.719,212.089,209.375,212.089,209.375z"/>
		<path fill="#DA9565" d="M117.757,172.816c3.339,11.495-7.953,36.168-15.432,40.978c-7.479,4.806-34.604-43.317-38.989-53.461
			C58.949,150.188,111.553,151.438,117.757,172.816z"/>
		<path fill="#BF7039" d="M77.927,168.652c-3.193,8.126-2.602,16.803,2.569,22.47C70.328,184.014,68.415,177.509,77.927,168.652z"/>
		<path fill="#E8A171" d="M116.625,110.76c22.13-7.877,54.509-23.297,73.444-17.102c11.561,2.436,34.173,19.375,24.483,55.356
			c-10.703,4.296-22.84,6.971-35.773,7.501c-44.988,1.848-82.535-22.825-83.86-55.108c-0.403-9.821,2.606-19.213,8.237-27.582
			C108.251,100.119,101.651,116.09,116.625,110.76z"/>
		<path fill="#BF7039" d="M77.208,24.786c5.644-3.385,7.596-5.503,8.968-14.237c0,0-9.326,5.521-12.037,11.11L77.208,24.786z"/>
		<path fill="#E8A171" d="M66.767,40.012c-4.586-4.123-27.492-8.238-31.634-5.873c2.792-7.442,6.343-14.096,18.71-12.958
			C64.97,22.293,68.537,32.57,66.767,40.012z"/>
		<path fill="#B56840" d="M47.214,79.262c-1.861-2.392-15.7,1.351-17.34,4.357c-1.64,3.008-2.484,8.214,2.166,9.787
			C36.69,94.979,54.898,89.139,47.214,79.262z"/>
		<path fill="#B56840" d="M38.335,92.09c3.398-1.807-13.471-16.408-16.891-16.195c-3.416,0.212-5.709,4.306-4.565,9.081
			C18.023,89.747,29.476,96.805,38.335,92.09z"/>
		<path fill="#60341E" d="M41.594,88.429c2.917-3.412,4.783-6.663,2.871-7.406c-1.912-0.745-7.662,5.252-7.662,5.252L41.594,88.429z
			"/>
		<path fill="#60341E" d="M25.698,84.898c-0.591-4.449-3.429-7.447-5.261-6.522c-1.836,0.925,1.504,8.194,1.504,8.194L25.698,84.898
			z"/>
		<path fill="#AF6937" d="M235.169,191.805c-10.314-3.423-18.627-14.264-14.365-25.469
			C222.999,176.715,226.192,183.103,235.169,191.805z"/>
		<path fill="#CC8756" d="M210.169,204.485c-3.932-8.388-9.213-22.22-6.126-30.799c4.435-12.336,7.013-42.196,1.701-52.788
			c-9.068-18.088-21.718-28.699-32.179-28.365c30.521-6.896,60.303,27.873,33.453,79.283
			C202.489,180.489,207.249,196.454,210.169,204.485z"/>
		<path fill="#DA9565" d="M103.623,221.84c-3.109,2.396-10.966-3.626-6.676-13.679l5.467-0.538
			C102.414,207.623,109.852,217.037,103.623,221.84z"/>
		<path fill="#DA9565" d="M211.558,213.898c-2.06,3.343-11.539,0.491-11.088-10.431l4.924-2.438
			C205.394,201.03,215.685,207.201,211.558,213.898z"/>
		<path fill="#E8A171" d="M113.591,170.38c-7.296-10.957-18.56-1.804-19.237,5.23c-1.098,11.38,4.439,24.01,9.929,24.019
			C108.461,199.639,121.352,182.041,113.591,170.38z"/>
	</g>
	<g>
		<g>
			<defs>
				<polygon id="SVGID_2_" points="1,1 2,1 1,2 				"/>
			</defs>
			<defs>
				<polygon id="SVGID_3_" points="-1,-1 -2,-1 -1,-2 				"/>
			</defs>
			<clipPath id="SVGID_4_">
				<use xlink:href="#SVGID_2_"  overflow="visible"/>
			</clipPath>
			<clipPath id="SVGID_5_" clip-path="url(#SVGID_4_)">
				<use xlink:href="#SVGID_3_"  overflow="visible"/>
			</clipPath>
			
				<linearGradient id="SVGID_6_" gradientUnits="userSpaceOnUse" x1="106.3296" y1="775.5874" x2="106.3295" y2="564.9029" gradientTransform="matrix(0.9989 0.0478 0.0478 -0.9989 -5.6671 810.2536)">
				<stop  offset="0.0215" style="stop-color:#999999"/>
				<stop  offset="1" style="stop-color:#FFFFFF"/>
			</linearGradient>
			<path clip-path="url(#SVGID_5_)" fill="url(#SVGID_6_)" d="M18.289,90.316c0.028,0.041,0.059,0.085,0.086,0.123
				c0.45,0.579,1.158,1.265,2.09,1.96c-2.052,4.973,3.321,8.77,10.558,9.434c4.658,0.428,8.853-1.395,11.607-4.038
				c2.132,2.186,4.884,4.866,7.257,6.749c-4.682,13.396-11.355,41.467,4.02,64.35c4.765,11.432,12.927,28.912,19.715,38.723
				c-1.208,4.317-0.708,7.555,1.453,10.258c2.328,2.915,8.49,19.565,1.829,30.052c-1.18,1.854-0.349,5.014,2.171,6.588
				c-4.93,3.609-9.137,15.438-9.137,15.438l16.716-0.687c0,0,0.647-9.913-2.031-14.032c3.255-0.827,4.928-3.824,2.81-8.801
				c-2.737-6.416-4.074-24.67-1.836-32.177c0.252-0.851,0.286-1.907,0.104-3.031c1.308-1.974,2.577-4.525,3.766-7.424
				c2.216,2.886,4.331,5.327,6.233,7.123c-0.006,0.02-0.013,0.033-0.02,0.053c-1.742,4.837-1.421,8.352,0.815,11.261
				c2.236,2.91,4.148,19.245-1.059,30.044c-0.694,1.438-0.018,3.156,1.5,4.482c-4.105,4.893-7.283,13.755-7.283,13.755l17.269-0.709
				c0,0,0.462-7.077-0.987-11.879c2.478-1.667,3.443-5.364,1.168-9.479c-3.242-5.869-2.453-22.338,0.007-29.827
				c0.65-1.974,0.255-4.979-1.773-7.579c2.453-2.808,5.035-7.033,7.247-11.775c11.417,0.659,22.373-1.143,32.514-4.743
				c6.758,4.696,13.838,8.704,20.375,11.857c11.018,18.225,4.482,31.852-0.245,43.597c-0.567,1.408-0.343,3.09,0.747,4.502
				c-5.041,4.663-9.02,13.272-9.02,13.272l20.743-0.853c0,0,0.506-5.399-0.601-9.799c0.201-0.031,0.387-0.05,0.596-0.088
				c6.723-1.261-4.4-8.371,7.229-38.857c1.994-5.223-1.063-6.401-3.966-11.125c-1.48-4.097-3.193-9.672-3.952-15.178
				c5.729,3.944,11.579,7.353,17.05,10.139c11.062,19.207,4.555,33.54-0.147,45.891c-0.563,1.482-0.337,3.255,0.757,4.741
				c-5.031,4.899-8.991,13.95-8.991,13.95l20.745-0.852c0,0,0.495-5.688-0.625-10.318c0.201-0.034,0.388-0.054,0.596-0.093
				c6.718-1.31-4.422-8.818,7.143-40.884c1.982-5.487-1.07-6.737-3.982-11.705c-0.166-0.481-0.337-0.981-0.506-1.502
				c-0.018-0.052-0.037-0.106-0.054-0.161c-0.374-1.143-0.756-2.371-1.124-3.653c-0.035-0.126-0.069-0.251-0.104-0.375
				c-0.357-1.255-0.696-2.561-1.009-3.897c-0.04-0.163-0.076-0.328-0.116-0.494c-0.129-0.575-0.253-1.154-0.372-1.737
				c-0.022-0.104-0.046-0.207-0.064-0.313c-0.13-0.659-0.249-1.322-0.36-1.987c-0.029-0.173-0.056-0.348-0.085-0.521
				c-0.085-0.551-0.162-1.1-0.232-1.649c-0.021-0.15-0.042-0.299-0.06-0.448c-0.078-0.66-0.143-1.319-0.189-1.97
				c-0.015-0.162-0.021-0.319-0.031-0.477c-0.037-0.535-0.059-1.065-0.072-1.593c-0.004-0.164-0.01-0.329-0.014-0.493
				c-0.008-0.64,0.003-1.273,0.032-1.897c0.006-0.123,0.016-0.24,0.025-0.362c0.03-0.523,0.075-1.035,0.136-1.538
				c0.019-0.158,0.038-0.318,0.061-0.476c0.082-0.599,0.184-1.184,0.314-1.752c0.016-0.069,0.039-0.137,0.055-0.206
				c0.122-0.503,0.268-0.988,0.428-1.461c0.045-0.144,0.099-0.283,0.148-0.424c0.199-0.525,0.412-1.04,0.664-1.521
				c0.133-0.256,0.244-0.508,0.373-0.762c0.009,0.034,0.021,0.065,0.03,0.099c0.188,0.646,0.383,1.276,0.589,1.896
				c0.1,0.296,0.189,0.6,0.293,0.891c0.063,0.175,0.136,0.339,0.201,0.514c0.223,0.593,0.464,1.165,0.707,1.733
				c0.15,0.346,0.286,0.701,0.439,1.038c0.041,0.083,0.08,0.165,0.117,0.248c0.33,0.692,0.68,1.354,1.037,2.011
				c0.14,0.256,0.271,0.52,0.418,0.77c0.154,0.272,0.33,0.523,0.492,0.789c0.307,0.504,0.611,1.006,0.935,1.485
				c0.114,0.168,0.224,0.336,0.34,0.503c0.177,0.246,0.362,0.472,0.54,0.714c0.281,0.378,0.561,0.752,0.852,1.115
				c0.189,0.233,0.368,0.474,0.561,0.698c0.147,0.177,0.305,0.337,0.455,0.51c0.277,0.318,0.566,0.625,0.857,0.933
				c0.266,0.281,0.527,0.575,0.799,0.847c0.104,0.103,0.211,0.2,0.314,0.304c0.291,0.282,0.596,0.54,0.893,0.813
				c0.344,0.309,0.684,0.63,1.034,0.927c0,0,0.003-0.001,0.004,0.001c0,0,0,0-0.001-0.002c0.005,0.006,0.008,0.006,0.012,0.011
				c0.331,0.275,0.676,0.524,1.014,0.788c0.452,0.352,0.9,0.707,1.365,1.033c0.371,0.262,0.752,0.496,1.129,0.739
				c0.449,0.293,0.896,0.593,1.354,0.863c0.414,0.241,0.836,0.459,1.252,0.684c0.437,0.236,0.873,0.481,1.318,0.701
				c0.458,0.223,0.922,0.42,1.382,0.626c0.419,0.184,0.831,0.376,1.253,0.547c0.509,0.201,1.016,0.379,1.527,0.56
				c0.387,0.136,0.768,0.282,1.158,0.411c0.555,0.179,1.117,0.33,1.674,0.484c0.346,0.097,0.691,0.2,1.041,0.287
				c0.604,0.15,1.213,0.275,1.82,0.399c0.303,0.06,0.604,0.13,0.904,0.185c0.658,0.116,1.313,0.209,1.967,0.295
				c0.252,0.035,0.502,0.075,0.757,0.104c0.702,0.079,1.397,0.133,2.099,0.18c0.198,0.013,0.401,0.033,0.6,0.044
				c0.744,0.035,1.477,0.049,2.207,0.047c0.154-0.001,0.305,0.004,0.46,0.003c0.771-0.008,1.534-0.042,2.292-0.096
				c0.106-0.007,0.213-0.009,0.316-0.017c0.797-0.063,1.58-0.146,2.355-0.25c0.062-0.012,0.123-0.017,0.182-0.023
				c0.808-0.113,1.6-0.253,2.379-0.413c0.025-0.006,0.051-0.009,0.076-0.016c0.802-0.169,1.584-0.361,2.35-0.578
				c0,0,0.004-0.001,0.004-0.003c3.865-1.095,7.193-2.802,9.635-5.006h0.004l0,0c0.178-0.163,0.38-0.313,0.549-0.482
				c-1.447,0.104-2.819,0.134-4.129,0.099h0.004c-0.008,0.001-0.012,0.001-0.02,0.002c-11.316-0.294-17.652-5.597-21.355-13.371
				c-0.145-0.313-0.287-0.628-0.421-0.949c-0.149-0.341-0.29-0.687-0.429-1.034c-7.371-19.24-0.75-51.115-11.801-62.988
				c-6.445-6.924-13.945-9.772-20.875-10.606c-8.412-9.317-20.712-13.42-33.141-10.612c0.227-0.007,0.46,0.021,0.691,0.021
				c-15.232,1.631-33.544,9.079-48.933,14.97c-4.434-0.612-7.168-7.053-9.443-16.033c1.329,1.213,2.723,2.247,4.146,3.005
				c-0.345-0.435-0.685-0.933-1.019-1.469c-0.138-0.219-0.27-0.471-0.404-0.704c-0.197-0.341-0.395-0.669-0.586-1.038
				c-0.168-0.323-0.333-0.677-0.502-1.021c-0.148-0.312-0.3-0.614-0.45-0.943c-0.189-0.418-0.373-0.858-0.557-1.299
				c-0.118-0.278-0.236-0.549-0.354-0.835c-0.206-0.513-0.407-1.045-0.609-1.58c-0.083-0.225-0.168-0.443-0.251-0.672
				c-0.224-0.616-0.444-1.247-0.662-1.882c-0.046-0.145-0.1-0.289-0.146-0.434c-0.247-0.733-0.487-1.477-0.72-2.22
				c-0.012-0.036-0.021-0.072-0.033-0.106c-0.25-0.798-0.489-1.598-0.72-2.393c0,0,0,0-0.003,0c-0.089-0.307-0.184-0.618-0.27-0.924
				c-0.531-2.652-1.072-5.356-1.639-8.072c2.715,2.583,5.827,4.654,8.867,5.67c-4.694-4.248-9.994-15.47-13.197-22.978
				c-0.325-1.044-0.662-2.074-1.016-3.075c-0.14-0.393-0.303-0.751-0.444-1.14c2.933,0.54,6.07,0.245,8.929-1.094
				c-4.679-0.752-11.09-7.431-15.646-12.902c-1.186-1.95-2.426-3.78-3.702-5.507c2.034-0.391,4.015-1.189,5.77-2.459
				c-3.899-0.848-8.562-3.171-12.788-5.67c-0.617-0.607-1.237-1.146-1.859-1.713c1.095-2.846,1.818-6.81,2.451-12.805
				c0,0-4.77,3.031-9.441,7.297c-5.542-3.707-10.802-5.825-14.835-6.509c0.771,2.124,0.733,4.588,0.313,6.992
				c-4.554-0.298-9.269,0.942-13.554,3.127c0.069-5.184-1.009-9.796-1.757-12.359C48.701,1.478,48.281,0,48.281,0
				c-8.59,11.913-8.785,15.222-6.049,22.428c-0.321,0.316-0.635,0.636-0.941,0.963c-0.481,0.467-0.751,0.754-0.751,0.754
				c-0.879,0.954-1.672,2.061-2.401,3.271c-0.083,0.126-0.159,0.253-0.234,0.379c-0.041,0.07-0.083,0.141-0.123,0.21
				c-0.571,0.953-1.061,1.916-1.448,2.876c-1.86,4.174-3.234,9.187-4.502,14.383c-0.9,3.299-1.771,6.873-2.516,10.485
				c-0.006,0.026-0.012,0.053-0.019,0.08c-0.224,0.886-0.453,1.763-0.688,2.632c-0.141,0.522-0.285,1.039-0.433,1.554
				c-0.093,0.326-0.183,0.655-0.279,0.978c-0.226,0.774-0.463,1.529-0.708,2.274c-0.088,0.267-0.176,0.527-0.266,0.789
				c-0.252,0.744-0.512,1.477-0.788,2.188c-0.046,0.123-0.096,0.245-0.143,0.37c-0.279,0.704-0.571,1.385-0.875,2.052
				c-0.084,0.186-0.168,0.372-0.256,0.555c-0.331,0.703-0.678,1.38-1.044,2.028c-0.069,0.124-0.144,0.241-0.217,0.363
				c-0.34,0.58-0.695,1.134-1.066,1.662c-0.073,0.104-0.146,0.216-0.219,0.319c-0.226,0.308-0.476,0.577-0.714,0.866
				c-1.55-0.186-2.855-0.005-4.106,0.93c-2.484,1.856-2.656,5.647-1.795,9.153c-6.592-4.036-13.114-8.256-13.722-6.664
				c-0.292,0.77,2.188,2.438,5.222,4.144c3.386,1.903,7.462,3.851,9.16,4.646c0.033,0.09,0.066,0.183,0.099,0.271
				C13.566,86.517,2.64,85.125,0,87.753C0,87.753,9.807,88.746,18.289,90.316z M52.646,97.552c-3.349-2.371-6.452-4.372-6.452-4.372
				s3.461,1.258,7.374,2.218l-0.523,1.297C53.045,96.694,52.899,96.997,52.646,97.552z M47.285,91.893
				c0.85-0.512,1.708-1.067,2.583-1.687c0.547-0.391,1.199-6.239,0.208-10.233c3.696-2.051,8.072-4.481,12.423-7.313l-6.991,17.745
				c0.032-0.02,0.064-0.038,0.097-0.059L54.614,92.8C52.225,92.561,49.667,92.287,47.285,91.893z M44.288,95.856
				c0.188-0.274,0.36-0.552,0.517-0.83c2.233,1.586,4.594,3.335,6.809,4.938c-0.223,0.552-0.466,1.162-0.726,1.838
				C49.014,99.921,46.637,97.78,44.288,95.856z"/>
		</g>
	</g>
</g>
</svg>
